<svg height="533.33331" viewBox="0 0 800 533.33331" width="800" xmlns="http://www.w3.org/2000/svg"><path d="m0 0h600v400h-600z" fill="#75b2dd" transform="matrix(1.3333333 0 0 -1.3333333 0 533.33333)"/><g fill="#fff"><path d="m0 0-12.361-38.042 19.021-6.181" transform="matrix(1.3333333 0 0 -1.3333333 396.19987 53.333333)"/><path d="m0 0 12.36-38.042-19.021-6.181" transform="matrix(1.3333333 0 0 -1.3333333 396.19987 53.333333)"/><path d="m0 0h-40v-20" transform="matrix(1.3333333 0 0 -1.3333333 446.92253 90.1856)"/><path d="m0 0-32.36-23.512-11.756 16.181" transform="matrix(1.3333333 0 0 -1.3333333 446.92253 90.1856)"/><path d="m0 0-12.361 38.042-19.021-6.18" transform="matrix(1.3333333 0 0 -1.3333333 427.5488 149.8144)"/><path d="m0 0-32.361 23.512 11.756 16.18" transform="matrix(1.3333333 0 0 -1.3333333 427.5488 149.8144)"/><path d="m0 0 32.361 23.512-11.756 16.18" transform="matrix(1.3333333 0 0 -1.3333333 364.85147 149.8144)"/><path d="m0 0 12.36 38.042 19.021-6.18" transform="matrix(1.3333333 0 0 -1.3333333 364.85147 149.8144)"/><path d="m0 0 32.361-23.512 11.756 16.181" transform="matrix(1.3333333 0 0 -1.3333333 345.47653 90.1856)"/><path d="m0 0h40v-20" transform="matrix(1.3333333 0 0 -1.3333333 345.47653 90.1856)"/><path d="m0 0-38.042 12.361-6.181-19.021" transform="matrix(1.3333333 0 0 -1.3333333 609.5332 266.66667)"/><path d="m0 0-38.042-12.36-6.181 19.021" transform="matrix(1.3333333 0 0 -1.3333333 609.5332 266.66667)"/><path d="m0 0v40h-20" transform="matrix(1.3333333 0 0 -1.3333333 572.68027 317.38933)"/><path d="m0 0-23.511 32.36 16.18 11.756" transform="matrix(1.3333333 0 0 -1.3333333 572.68027 317.38933)"/><path d="m0 0 38.042 12.361-6.181 19.021" transform="matrix(1.3333333 0 0 -1.3333333 513.05267 298.0156)"/><path d="m0 0 23.511 32.361 16.18-11.756" transform="matrix(1.3333333 0 0 -1.3333333 513.05267 298.0156)"/><path d="m0 0 23.511-32.361 16.18 11.756" transform="matrix(1.3333333 0 0 -1.3333333 513.05267 235.3184)"/><path d="m0 0 38.042-12.36-6.181-19.021" transform="matrix(1.3333333 0 0 -1.3333333 513.05267 235.3184)"/><path d="m0 0-23.511-32.361 16.18-11.756" transform="matrix(1.3333333 0 0 -1.3333333 572.68027 215.94333)"/><path d="m0 0v-40h-20" transform="matrix(1.3333333 0 0 -1.3333333 572.68027 215.94333)"/><path d="m0 0 12.36 38.042-19.021 6.181" transform="matrix(1.3333333 0 0 -1.3333333 396.19987 480)"/><path d="m0 0-12.361 38.042 19.021 6.181" transform="matrix(1.3333333 0 0 -1.3333333 396.19987 480)"/><path d="m0 0h40v20" transform="matrix(1.3333333 0 0 -1.3333333 345.47653 443.1472)"/><path d="m0 0 32.361 23.511 11.756-16.18" transform="matrix(1.3333333 0 0 -1.3333333 345.47653 443.1472)"/><path d="m0 0 12.36-38.042 19.021 6.181" transform="matrix(1.3333333 0 0 -1.3333333 364.85147 383.51947)"/><path d="m0 0 32.361-23.511-11.756-16.18" transform="matrix(1.3333333 0 0 -1.3333333 364.85147 383.51947)"/><path d="m0 0-32.361-23.511 11.756-16.18" transform="matrix(1.3333333 0 0 -1.3333333 427.5488 383.51947)"/><path d="m0 0-12.361-38.042-19.021 6.181" transform="matrix(1.3333333 0 0 -1.3333333 427.5488 383.51947)"/><path d="m0 0-32.36 23.511-11.756-16.18" transform="matrix(1.3333333 0 0 -1.3333333 446.92253 443.1472)"/><path d="m0 0h-40v20" transform="matrix(1.3333333 0 0 -1.3333333 446.92253 443.1472)"/><path d="m0 0 38.042-12.36 6.181 19.021" transform="matrix(1.3333333 0 0 -1.3333333 182.86653 266.66667)"/><path d="m0 0 38.042 12.361 6.181-19.021" transform="matrix(1.3333333 0 0 -1.3333333 182.86653 266.66667)"/><path d="m0 0v-40h20" transform="matrix(1.3333333 0 0 -1.3333333 219.71867 215.94333)"/><path d="m0 0 23.512-32.361-16.181-11.756" transform="matrix(1.3333333 0 0 -1.3333333 219.71867 215.94333)"/><path d="m0 0-38.042-12.36 6.18-19.021" transform="matrix(1.3333333 0 0 -1.3333333 279.3476 235.3184)"/><path d="m0 0-23.512-32.361-16.18 11.756" transform="matrix(1.3333333 0 0 -1.3333333 279.3476 235.3184)"/><path d="m0 0-23.512 32.361-16.18-11.756" transform="matrix(1.3333333 0 0 -1.3333333 279.3476 298.0156)"/><path d="m0 0-38.042 12.361 6.18 19.021" transform="matrix(1.3333333 0 0 -1.3333333 279.3476 298.0156)"/><g transform="matrix(1.3333333 0 0 -1.3333333 219.71867 317.38933)"><path d="m0 0 23.512 32.36-16.181 11.756"/><path d="m0 0v40h20"/></g></g></svg>