<svg xmlns="http://www.w3.org/2000/svg" width="36" height="36" viewBox="0 0 60 60">
<style><![CDATA[.R{fill:#c12;stroke:#c12}.B{fill:#016}.W{fill:#fff;stroke:#fff}.O{scale:1.5}]]></style>
	<defs>
		<g id="a">
			<g id="c">
				<path id="t" d="M0,-4V0H2" transform="rotate(18 0,-4)"/>
				<use href="#t" transform="scale(-1,1)"/>
				</g>
			<use href="#c" transform="rotate(72)"/>
			<use href="#c" transform="rotate(144)"/>
			<use href="#c" transform="rotate(216)"/>
			<use href="#c" transform="rotate(288)"/>
			</g>
		<path id="b" d="M0 0h30v30H0z"/>
		<g id="x">
			<use href="#a" class="W O"/>
			<use href="#a" class="R"/>
			</g>
		</defs>
	<mask id="m">
		<use href="#b" fill="#fff"/>
		</mask>
	<path class="B" d="M0 0h60v60H0z"/>
	<g mask="url(#m)">
		<path class="W" d="m0 0 30 30m0-30L0 30" stroke-width="6"/>
		<path class="R" d="m0 0 30 30m0-30L0 30" stroke-width="4"/>
		<path class="W" d="M15 15v-3L3 0H0zh3L30 3V0zv3l12 12h3zh-3L0 27v3z"/>
		<path class="W" d="M15 0v30M0 15h30" stroke-width="10"/>
		<path class="R" d="M15 0v30M0 15h30" stroke-width="6"/>
		</g>
	<use href="#x" style="transform:translate(45px,16px);stroke-width:0"/>
	<use href="#x" style="transform:translate(45px,40px);stroke-width:0"/>
	<use href="#x" style="transform:translate(38px,27px);stroke-width:0"/>
	<use href="#x" style="transform:translate(52px,25px);stroke-width:0"/>
</svg>