<svg height="1000" viewBox="0 0 1000.0001 1000.0001" width="1000" xmlns="http://www.w3.org/2000/svg"><path d="m.00004925 1000h999.99995075v-999.99998111h-999.99995075z" fill="#00247d" stroke-width="1.22475"/><g fill="#fff" transform="matrix(1.1249997 0 0 1.1249995 -380.00054 -.000109)"><path d="m0 0v-23.664l47.327 23.664z" transform="matrix(1.3333333 0 0 -1.3333333 986.5664 178.4672)"/><path d="m0 0-13.909 19.145 52.197 8.673z" transform="matrix(1.3333333 0 0 -1.3333333 998.61853 215.5584)"/><path d="m0 0v-23.664l-47.327 23.664z" transform="matrix(1.3333333 0 0 -1.3333333 986.5664 178.4672)"/><path d="m0 0 13.908 19.145-52.197 8.673z" transform="matrix(1.3333333 0 0 -1.3333333 974.5156 215.5584)"/><path d="m0 0-22.505-7.312 37.13-37.699z" transform="matrix(1.3333333 0 0 -1.3333333 1006.0664 192.6352)"/><path d="m0 0 13.909 19.144 24.379-46.962z" transform="matrix(1.3333333 0 0 -1.3333333 974.5156 215.5584)"/><path d="m0 0 22.505-7.312-7.88 52.323z" transform="matrix(1.3333333 0 0 -1.3333333 967.0664 192.6352)"/><path d="m0 0-22.506-7.312 7.881 52.323z" transform="matrix(1.3333333 0 0 -1.3333333 1006.0664 192.6352)"/><path d="m0 0 22.505-7.312-37.13-37.699z" transform="matrix(1.3333333 0 0 -1.3333333 967.0664 192.6352)"/><path d="m0 0-13.908 19.144-24.38-46.962z" transform="matrix(1.3333333 0 0 -1.3333333 998.6172 215.5584)"/></g><g fill="#cc142b" stroke-width="1.5"><path d="m729.88631 208.59984v23.45549l46.9095-23.45549z"/><path d="m738.84541 236.17268-13.785-18.975 51.7365-8.59798z"/><path d="m729.88631 208.59984v23.45549l-46.9094-23.45549z"/><path d="m720.92731 236.17268 13.7865-18.975-51.738-8.59798z"/><path d="m744.38251 219.13209-22.3065 7.248 36.8025 37.36647z"/><path d="m720.92731 236.17342 13.7865-18.97499 24.165 46.54797z"/><path d="m715.39021 219.13209 22.3065 7.248-7.8105-51.86248z"/><path d="m744.38251 219.13209-22.3065 7.248 7.8105-51.86248z"/><path d="m715.39021 219.13209 22.3065 7.248-36.8025 37.36647z"/><path d="m738.84541 236.17342-13.7865-18.97499-24.165 46.54797z"/></g><g fill="#fff" transform="matrix(1.1249997 0 0 1.1249995 -380.00054 -.000109)"><path d="m0 0v-21.058l42.115 21.058z" transform="matrix(1.3333333 0 0 -1.3333333 1151.7344 324.30387)"/><path d="m0 0-12.378 17.036 46.449 7.719z" transform="matrix(1.3333333 0 0 -1.3333333 1162.4596 357.3104)"/><path d="m0 0v-21.058l-42.114 21.058z" transform="matrix(1.3333333 0 0 -1.3333333 1151.7344 324.30387)"/><path d="m0 0 12.378 17.036-46.449 7.719z" transform="matrix(1.3333333 0 0 -1.3333333 1141.0104 357.3104)"/><path d="m0 0-20.026-6.507 33.041-33.547z" transform="matrix(1.3333333 0 0 -1.3333333 1169.0872 336.91187)"/><path d="m0 0 12.378 17.036 21.694-41.791z" transform="matrix(1.3333333 0 0 -1.3333333 1141.0104 357.3104)"/><path d="m0 0 20.026-6.507-7.012 46.561z" transform="matrix(1.3333333 0 0 -1.3333333 1134.3828 336.91187)"/><path d="m0 0-20.027-6.507 7.012 46.561z" transform="matrix(1.3333333 0 0 -1.3333333 1169.0872 336.91187)"/><path d="m0 0 20.026-6.507-33.041-33.547z" transform="matrix(1.3333333 0 0 -1.3333333 1134.3828 336.91187)"/><path d="m0 0-12.378 17.036-21.694-41.791z" transform="matrix(1.3333333 0 0 -1.3333333 1162.4596 357.3104)"/></g><g stroke-width="1.5"><g fill="#cc142b"><path d="m915.70031 372.66601v19.54649l39.093-19.54649z"/><path d="m923.16661 395.6442-11.4885-15.81299 43.1145-7.1655z"/><path d="m915.70031 372.66601v19.54649l-39.0915-19.54649z"/><path d="m908.23541 395.6442 11.4885-15.81299-43.1145-7.1655z"/><path d="m927.78091 381.44266-18.5895 6.04049 30.6705 31.13849z"/><path d="m908.23541 395.6442 11.4885-15.81299 20.1375 38.78998z"/><path d="m903.62111 381.44266 18.5895 6.04049-6.5101-43.21948z"/><path d="m927.78091 381.44266-18.5895 6.04049 6.5084-43.21948z"/><path d="m903.62111 381.44266 18.5895 6.04049-30.6706 31.13849z"/><path d="m923.16661 395.6442-11.4885-15.81299-20.1375 38.78998z"/></g><path d="m553.10266 418.88249v35.49599l70.99049-35.49599z" fill="#fff"/><path d="m566.66132 460.61007-20.86349-28.71749 78.29548-13.00949z" fill="#fff"/><path d="m553.10266 418.88249v35.49599l-70.99048-35.49599z" fill="#fff"/><path d="m539.54568 460.61007 20.86349-28.71749-78.29698-13.00949z" fill="#fff"/><path d="m575.04016 434.82148-33.7575 10.968 55.69499 56.54848z" fill="#fff"/><path d="m539.54568 460.61007 20.86349-28.71598 36.56849 70.44297z" fill="#fff"/><path d="m531.16517 434.82148 33.75899 10.968-11.8215-78.48447z" fill="#fff"/><path d="m575.04016 434.82148-33.75899 10.968 11.82149-78.48447z" fill="#fff"/><path d="m531.16517 434.82148 33.75899 10.968-55.69648 56.54848z" fill="#fff"/><path d="m566.66132 460.61007-20.86349-28.71598-36.57 70.44297z" fill="#fff"/><path d="m553.10266 426.70768v23.45549l46.90949-23.45549z" fill="#cc142b"/><path d="m562.06171 454.28052-13.78499-18.97499 51.73648-8.59799z" fill="#cc142b"/><path d="m553.10266 426.70768v23.45549l-46.90948-23.45549z" fill="#cc142b"/><path d="m544.14377 454.28052 13.7865-18.97499-51.73799-8.59799z" fill="#cc142b"/><path d="m567.59881 437.23993-22.30649 7.248 36.80249 37.36498z" fill="#cc142b"/><path d="m544.14377 454.28052 13.7865-18.97499 24.165 46.54798z" fill="#cc142b"/><path d="m538.60667 437.23993 22.3065 7.248-7.81051-51.86248z" fill="#cc142b"/><path d="m567.59881 437.23993-22.30649 7.248 7.8105-51.86248z" fill="#cc142b"/><path d="m538.60667 437.23993 22.3065 7.248-36.80249 37.36498z" fill="#cc142b"/><path d="m562.06171 454.28052-13.78499-18.97499-24.1665 46.54798z" fill="#cc142b"/><path d="m729.88631 761.15622v39.40499l78.8085-39.40499z" fill="#fff"/><path d="m744.93761 807.47905-23.16-31.87948 86.9176-14.44349z" fill="#fff"/><path d="m729.88631 761.15622v39.40499l-78.8084-39.40499z" fill="#fff"/><path d="m714.83511 807.47905 23.1615-31.87948-86.919-14.44349z" fill="#fff"/><path d="m754.24081 778.85007-37.476 12.17699 61.8285 62.77497z" fill="#fff"/><path d="m714.83511 807.47905 23.1615-31.87798 40.5974 78.20096z" fill="#fff"/><path d="m705.53341 778.85007 37.4745 12.17699-13.122-87.12896z" fill="#fff"/><path d="m754.23941 778.85007-37.4759 12.17699 13.1234-87.12896z" fill="#fff"/><path d="m705.53341 778.85007 37.4745 12.17699-61.8285 62.77497z" fill="#fff"/><path d="m744.93761 807.47905-23.1615-31.87798-40.5974 78.20096z" fill="#fff"/><path d="m729.88631 768.98143v27.36299l54.7276-27.36299z" fill="#cc142b"/><path d="m740.33801 801.14936-16.0844-22.1385 60.3614-10.02898z" fill="#cc142b"/><path d="m729.88631 768.98143v27.36299l-54.7274-27.36299z" fill="#cc142b"/><path d="m719.43471 801.14936 16.0844-22.1385-60.3614-10.02898z" fill="#cc142b"/><path d="m746.79951 781.26851-26.0265 8.457 42.9375 43.59298z" fill="#cc142b"/><path d="m719.43471 801.14936 16.0844-22.1385 28.1925 54.30749z" fill="#cc142b"/><path d="m712.97481 781.26851 26.0249 8.457-9.1139-60.50698z" fill="#cc142b"/><path d="m746.79791 781.26851-26.025 8.457 9.114-60.50698z" fill="#cc142b"/><path d="m712.97481 781.26851 26.0249 8.457-42.9374 43.59298z" fill="#cc142b"/><path d="m740.33801 801.14936-16.0844-22.1385-28.1925 54.30749z" fill="#cc142b"/></g><path d="m.00001226-.00004119v61.24352019l155.26513774 155.256481-155.26513774 155.25648v61.24352h61.24352074l155.256477-155.26514 155.25649 155.26514h61.24352v-61.24352l-155.26515-155.25648 155.26515-155.256481v-61.24352019h-61.24352l-155.25649 155.26514119-155.256477-155.26514119z" fill="#fff" stroke-width="1.44333"/><path d="m.00001226-.00004119v40.59375019l103.73958774 103.739581h40.59375zm392.40625774 0-103.73959 103.73958119v40.59375l144.33334-144.33333119zm-248.07292 288.66667119-144.33333774 144.33333h40.59375074l103.739587-103.73958zm144.33333 0 144.33334 144.33333v-40.59375l-103.73959-103.73958z" fill="#cf142b" stroke-linecap="round" stroke-linejoin="round" stroke-width="2.25521"/><path d="m216.50001-.00004119v433.00000119m-216.49999774-216.5h433.00000774" stroke="#fff" stroke-width="144.333"/><path d="m216.50001-.00004119v433.00000119m-216.49999774-216.5h433.00000774" stroke="#cf142b" stroke-width="86.6"/></svg>