<svg height="666.6507" viewBox="0 0 998 666.6507" width="998" xmlns="http://www.w3.org/2000/svg"><path d="m0 0h748.5v499h-748.5z" fill="#0073cf" transform="matrix(1.3333333 0 0 -1.3333333 0 666.65067)"/><path d="m0 166.655h748.5v166.666h-748.5z" fill="#fff" transform="matrix(1.3333333 0 0 -1.3333333 0 666.65067)"/><g fill="#0073cf"><path d="m0 0-8.584-26.418 13.209-4.292z" transform="matrix(1.3333333 0 0 -1.3333333 515.33333 296.2964)"/><path d="m0 0 8.584-26.418-13.209-4.292z" transform="matrix(1.3333333 0 0 -1.3333333 515.33333 296.2964)"/><path d="m0 0h-27.777v-13.889z" transform="matrix(1.3333333 0 0 -1.3333333 550.55733 321.88813)"/><path d="m0 0-22.473-16.327-8.163 11.236z" transform="matrix(1.3333333 0 0 -1.3333333 550.55733 321.88813)"/><path d="m0 0 22.473-16.327 8.163 11.236z" transform="matrix(1.3333333 0 0 -1.3333333 480.10867 321.88813)"/><path d="m0 0h27.778v-13.889z" transform="matrix(1.3333333 0 0 -1.3333333 480.10867 321.88813)"/><path d="m0 0-8.584 26.418-13.208-4.292z" transform="matrix(1.3333333 0 0 -1.3333333 537.1028 363.29693)"/><path d="m0 0-22.473 16.327 8.164 11.236z" transform="matrix(1.3333333 0 0 -1.3333333 537.1028 363.29693)"/><path d="m0 0 22.473 16.327-8.164 11.236z" transform="matrix(1.3333333 0 0 -1.3333333 493.56387 363.29693)"/><path d="m0 0 8.583 26.418 13.21-4.292z" transform="matrix(1.3333333 0 0 -1.3333333 493.56387 363.29693)"/><path d="m0 0-8.584-26.418 13.21-4.292z" transform="matrix(1.3333333 0 0 -1.3333333 700.51827 237.0372)"/><path d="m0 0 8.584-26.418-13.209-4.292z" transform="matrix(1.3333333 0 0 -1.3333333 700.51827 237.0372)"/><path d="m0 0h-27.778v-13.889z" transform="matrix(1.3333333 0 0 -1.3333333 735.74347 262.62907)"/><path d="m0 0-22.474-16.328-8.163 11.237z" transform="matrix(1.3333333 0 0 -1.3333333 735.74347 262.62907)"/><path d="m0 0 22.473-16.328 8.164 11.237z" transform="matrix(1.3333333 0 0 -1.3333333 665.29427 262.62907)"/><path d="m0 0h27.777v-13.889z" transform="matrix(1.3333333 0 0 -1.3333333 665.29427 262.62907)"/><path d="m0 0-8.583 26.418-13.209-4.292z" transform="matrix(1.3333333 0 0 -1.3333333 722.28773 304.03787)"/><path d="m0 0-22.473 16.328 8.164 11.236z" transform="matrix(1.3333333 0 0 -1.3333333 722.28773 304.03787)"/><path d="m0 0 22.473 16.328-8.164 11.236z" transform="matrix(1.3333333 0 0 -1.3333333 678.74867 304.03787)"/><path d="m0 0 8.584 26.418 13.209-4.292z" transform="matrix(1.3333333 0 0 -1.3333333 678.74867 304.03787)"/><path d="m0 0-8.584-26.418 13.21-4.292z" transform="matrix(1.3333333 0 0 -1.3333333 700.51827 348.14853)"/><path d="m0 0 8.584-26.418-13.209-4.292z" transform="matrix(1.3333333 0 0 -1.3333333 700.51827 348.14853)"/><path d="m0 0h-27.778v-13.89z" transform="matrix(1.3333333 0 0 -1.3333333 735.74347 373.73973)"/><path d="m0 0-22.474-16.328-8.163 11.236z" transform="matrix(1.3333333 0 0 -1.3333333 735.74347 373.73973)"/><path d="m0 0 22.473-16.328 8.164 11.236z" transform="matrix(1.3333333 0 0 -1.3333333 665.29427 373.73973)"/><path d="m0 0h27.777v-13.89z" transform="matrix(1.3333333 0 0 -1.3333333 665.29427 373.73973)"/><path d="m0 0-8.583 26.418-13.209-4.292z" transform="matrix(1.3333333 0 0 -1.3333333 722.28773 415.14853)"/><path d="m0 0-22.473 16.327 8.164 11.236z" transform="matrix(1.3333333 0 0 -1.3333333 722.28773 415.14853)"/><path d="m0 0 22.473 16.327-8.164 11.236z" transform="matrix(1.3333333 0 0 -1.3333333 678.74867 415.14853)"/><path d="m0 0 8.584 26.418 13.209-4.292z" transform="matrix(1.3333333 0 0 -1.3333333 678.74867 415.14853)"/><path d="m0 0-8.584-26.418 13.209-4.292z" transform="matrix(1.3333333 0 0 -1.3333333 330.1484 237.0372)"/><path d="m0 0 8.583-26.418-13.208-4.292z" transform="matrix(1.3333333 0 0 -1.3333333 330.1484 237.0372)"/><path d="m0 0h-27.778v-13.889z" transform="matrix(1.3333333 0 0 -1.3333333 365.3724 262.62907)"/><path d="m0 0-22.473-16.328-8.163 11.237z" transform="matrix(1.3333333 0 0 -1.3333333 365.3724 262.62907)"/><path d="m0 0 22.473-16.328 8.163 11.237z" transform="matrix(1.3333333 0 0 -1.3333333 294.92387 262.62907)"/><path d="m0 0h27.778v-13.889z" transform="matrix(1.3333333 0 0 -1.3333333 294.92387 262.62907)"/><path d="m0 0-8.584 26.418-13.209-4.292z" transform="matrix(1.3333333 0 0 -1.3333333 351.918 304.03787)"/><path d="m0 0-22.473 16.328 8.164 11.236z" transform="matrix(1.3333333 0 0 -1.3333333 351.918 304.03787)"/><path d="m0 0 22.473 16.328-8.164 11.236z" transform="matrix(1.3333333 0 0 -1.3333333 308.37827 304.03787)"/><path d="m0 0 8.584 26.418 13.209-4.292z" transform="matrix(1.3333333 0 0 -1.3333333 308.37827 304.03787)"/><path d="m0 0-8.584-26.418 13.209-4.292z" transform="matrix(1.3333333 0 0 -1.3333333 330.1484 348.14853)"/><path d="m0 0 8.583-26.418-13.208-4.292z" transform="matrix(1.3333333 0 0 -1.3333333 330.1484 348.14853)"/><path d="m0 0h-27.778v-13.89z" transform="matrix(1.3333333 0 0 -1.3333333 365.3724 373.73973)"/><path d="m0 0-22.473-16.328-8.163 11.236z" transform="matrix(1.3333333 0 0 -1.3333333 365.3724 373.73973)"/><path d="m0 0 22.473-16.328 8.163 11.236z" transform="matrix(1.3333333 0 0 -1.3333333 294.92387 373.73973)"/><path d="m0 0h27.778v-13.89z" transform="matrix(1.3333333 0 0 -1.3333333 294.92387 373.73973)"/><path d="m0 0-8.584 26.418-13.209-4.292z" transform="matrix(1.3333333 0 0 -1.3333333 351.918 415.14853)"/><path d="m0 0-22.473 16.327 8.164 11.236z" transform="matrix(1.3333333 0 0 -1.3333333 351.918 415.14853)"/><g transform="matrix(1.3333333 0 0 -1.3333333 308.37827 415.14853)"><path d="m0 0 22.473 16.327-8.164 11.236z"/><path d="m0 0 8.584 26.418 13.209-4.292z"/></g></g></svg>