<svg xmlns="http://www.w3.org/2000/svg" width="144" height="96" viewBox="0 0 7560 5040">
<style><![CDATA[.R{fill:#c12;stroke:#c12}.B{fill:#026}.W{fill:#fff;stroke:#fff}.O{scale:1.6}]]></style>
<defs>
	<clipPath id="c1">
		<path d="M0,0H6V3H0z"/>
		</clipPath>
	<clipPath id="c2">
		<path d="M0,0V1.5H6V3H6zM6,0H3V3H0V3z"/>
		</clipPath>
	<path id="Star7" d="M0,-360 69.421398,-144.155019 281.459334,-224.456329 155.988466,-35.603349 350.974048,80.107536 125.093037,99.758368 156.198146,324.348792 0,160 -156.198146,324.348792 -125.093037,99.758368 -350.974048,80.107536 -155.988466,-35.603349 -281.459334,-224.456329 -69.421398,-144.155019z"/>
	<path id="Star5" d="M0,-210 54.859957,-75.508253 199.721868,-64.893569 88.765275,28.841586 123.434903,169.893569 0,93.333333 -123.434903,169.893569 -88.765275,28.841586 -199.721868,-64.893569 -54.859957,-75.508253z"/>
	<path id="b" d="M0 0h45v30H0z"/>
	</defs>
<mask id="m">
	<use href="#b" fill="#fff"/>
	</mask>
<g transform="scale(84)">
	<clipPath id="u">
		<path d="M22.5,15 h22.5 v15 z v15 h-22.5 z h-22.5 v-15 z v-15 h22.5 z"/>
		</clipPath>
	<path class="B" d="M0 0h90v60H0z"/>
	<g mask="url(#m)">
		<path class="W" d="M0,0 L45,30 M45,0 L0,30" stroke-width="6"/>
		<path class="R" d="M0,0 L45,30 M45,0 L0,30" stroke-width="4" clip-path="url(#u)"/>
		<path class="W" d="M22.5,0 v30 M0,15 h45" stroke-width="10"/>
		<path class="R" d="M22.5,0 v30 M0,15 h45" stroke-width="6"/>
		</g>
	</g>
<g fill="#fff">
	<g transform="translate(-650,0)">
		<use id="Comwlth" href="#Star7" transform="translate(2520, 3780) scale(2.1)"/>
		</g>
	<g transform="translate(-1950,0)">
		<use id="αCrucis" href="#Star7" x="7560" y="4200"/>
		<use id="βCrucis" href="#Star7" x="6300" y="2205"/>
		<use id="γCrucis" href="#Star7" x="7560" y="840"/>
		<use id="δCrucis" href="#Star7" x="8680" y="1869"/>
		<use id="εCrucis" href="#Star5" x="8064" y="2730"/>
		</g>
	</g>
</svg>