<svg height="598.66669" viewBox="0 0 898 598.66669" width="898" xmlns="http://www.w3.org/2000/svg" xmlns:xlink="http://www.w3.org/1999/xlink"><clipPath id="a"><path d="m0 0h673.5v449h-673.5z" transform="translate(-376.62601 -381.67581)"/></clipPath><clipPath id="b"><path d="m0 0h673.5v449h-673.5z" transform="translate(-337.37991 -389.51221)"/></clipPath><clipPath id="c"><path d="m0 0h673.5v449h-673.5z" transform="translate(-370.48931 -351.23391)"/></clipPath><clipPath id="d"><path d="m0 0h673.5v449h-673.5z" transform="translate(-313.95801 -375.47311)"/></clipPath><clipPath id="e"><path d="m0 0h673.5v449h-673.5z" transform="translate(-321.99321 -375.47311)"/></clipPath><clipPath id="f"><path d="m0 0h673.5v449h-673.5z" transform="translate(-317.98881 -376.88281)"/></clipPath><clipPath id="g"><path d="m0 0h673.5v449h-673.5z" transform="translate(-305.44191 -365.60501)"/></clipPath><clipPath id="h"><path d="m0 0h673.5v449h-673.5z" transform="translate(-345.37991 -351.41801)"/></clipPath><clipPath id="i"><path d="m0 0h673.5v449h-673.5z" transform="translate(-318.80181 -372.58981)"/></clipPath><clipPath id="j"><path d="m0 0h673.5v449h-673.5z" transform="translate(-317.97411 -364.96091)"/></clipPath><clipPath id="k"><path d="m0 0h673.5v449h-673.5z" transform="translate(-316.79791 -368.67581)"/></clipPath><clipPath id="l"><path d="m0 0h673.5v449h-673.5z" transform="translate(-316.79791 -368.51221)"/></clipPath><clipPath id="m"><path d="m0 0h673.5v449h-673.5z" transform="translate(-316.83301 -368.33201)"/></clipPath><clipPath id="n"><path d="m0 0h673.5v449h-673.5z" transform="translate(-319.14991 -368.67581)"/></clipPath><clipPath id="o"><path d="m0 0h673.5v449h-673.5z" transform="translate(-319.14991 -368.51221)"/></clipPath><clipPath id="p"><path d="m0 0h673.5v449h-673.5z" transform="translate(-319.11821 -368.33201)"/></clipPath><clipPath id="q"><path d="m0 0h673.5v449h-673.5z" transform="translate(-301.71191 -378.06981)"/></clipPath><clipPath id="r"><path d="m0 0h673.5v449h-673.5z" transform="translate(-300.52781 -375.37891)"/></clipPath><clipPath id="s"><path d="m0 0h673.5v449h-673.5z" transform="translate(-299.93121 -371.76221)"/></clipPath><clipPath id="t"><path d="m0 0h673.5v449h-673.5z" transform="translate(-301.02101 -360.55521)"/></clipPath><clipPath id="u"><path d="m0 0h673.5v449h-673.5z" transform="translate(-300.96191 -358.10211)"/></clipPath><clipPath id="v"><path d="m0 0h673.5v449h-673.5z" transform="translate(-302.71971 -356.27001)"/></clipPath><clipPath id="w"><path d="m0 0h673.5v449h-673.5z" transform="translate(-338.57131 -352.71871)"/></clipPath><clipPath id="x"><path d="m0 0h673.5v449h-673.5z" transform="translate(-340.41891 -351.05911)"/></clipPath><clipPath id="y"><path d="m0 0h673.5v449h-673.5z" transform="translate(-339.11821 -355.07421)"/></clipPath><clipPath id="z"><path d="m0 0h673.5v449h-673.5z" transform="translate(-364.62211 -352.20311)"/></clipPath><clipPath id="A"><path d="m0 0h673.5v449h-673.5z" transform="translate(-364.66501 -354.45311)"/></clipPath><clipPath id="B"><path d="m0 0h673.5v449h-673.5z" transform="translate(-365.66111 -350.19091)"/></clipPath><clipPath id="C"><path d="m0 0h673.5v449h-673.5z" transform="translate(-318.07911 -366.06201)"/></clipPath><clipPath id="D"><path d="m0 0h673.5v449h-673.5z" transform="translate(-366.01271 -319.22711)"/></clipPath><clipPath id="E"><path d="m0 0h673.5v449h-673.5z" transform="translate(-315.13821 -341.04301)"/></clipPath><clipPath id="F"><path d="m0 0h673.5v449h-673.5z" transform="translate(-322.36431 -341.04301)"/></clipPath><clipPath id="G"><path d="m0 0h673.5v449h-673.5z" transform="translate(-318.76321 -342.31201)"/></clipPath><clipPath id="H"><path d="m0 0h673.5v449h-673.5z" transform="translate(-307.47411 -332.16021)"/></clipPath><clipPath id="I"><path d="m0 0h673.5v449h-673.5z" transform="translate(-343.41501 -319.39501)"/></clipPath><clipPath id="J"><path d="m0 0h673.5v449h-673.5z" transform="translate(-319.49711 -338.44921)"/></clipPath><clipPath id="K"><path d="m0 0h673.5v449h-673.5z" transform="translate(-318.75101 -331.58201)"/></clipPath><clipPath id="L"><path d="m0 0h673.5v449h-673.5z" transform="translate(-317.69191 -334.92191)"/></clipPath><clipPath id="M"><path d="m0 0h673.5v449h-673.5z" transform="translate(-317.69191 -334.77691)"/></clipPath><clipPath id="N"><path d="m0 0h673.5v449h-673.5z" transform="translate(-317.72411 -334.61281)"/></clipPath><clipPath id="O"><path d="m0 0h673.5v449h-673.5z" transform="translate(-319.81011 -334.92191)"/></clipPath><clipPath id="P"><path d="m0 0h673.5v449h-673.5z" transform="translate(-319.81011 -334.77691)"/></clipPath><clipPath id="Q"><path d="m0 0h673.5v449h-673.5z" transform="translate(-319.77781 -334.61281)"/></clipPath><clipPath id="R"><path d="m0 0h673.5v449h-673.5z" transform="translate(-304.11381 -343.37891)"/></clipPath><clipPath id="S"><path d="m0 0h673.5v449h-673.5z" transform="translate(-303.04791 -340.95701)"/></clipPath><clipPath id="T"><path d="m0 0h673.5v449h-673.5z" transform="translate(-302.51321 -337.70311)"/></clipPath><clipPath id="U"><path d="m0 0h673.5v449h-673.5z" transform="translate(-303.49321 -327.61721)"/></clipPath><clipPath id="V"><path d="m0 0h673.5v449h-673.5z" transform="translate(-303.44191 -325.41021)"/></clipPath><clipPath id="W"><path d="m0 0h673.5v449h-673.5z" transform="translate(-305.02101 -323.75781)"/></clipPath><clipPath id="X"><path d="m0 0h673.5v449h-673.5z" transform="translate(-337.28611 -320.56201)"/></clipPath><clipPath id="Y"><path d="m0 0h673.5v449h-673.5z" transform="translate(-338.95021 -319.06591)"/></clipPath><clipPath id="Z"><path d="m0 0h673.5v449h-673.5z" transform="translate(-337.77831 -322.68411)"/></clipPath><clipPath id="aa"><path d="m0 0h673.5v449h-673.5z" transform="translate(-360.73241 -320.09811)"/></clipPath><clipPath id="ab"><path d="m0 0h673.5v449h-673.5z" transform="translate(-360.77151 -322.12501)"/></clipPath><clipPath id="ac"><path d="m0 0h673.5v449h-673.5z" transform="translate(-361.66891 -318.28521)"/></clipPath><clipPath id="ad"><path d="m0 0h673.5v449h-673.5z" transform="translate(-318.84471 -332.56981)"/></clipPath><clipPath id="ae"><path d="m0 0h673.5v449h-673.5z" transform="translate(-358.52831 -291.83201)"/></clipPath><clipPath id="af"><path d="m0 0h673.5v449h-673.5z" transform="translate(-358.52831 -291.83201)"/></clipPath><clipPath id="ag"><path d="m0 0h673.5v449h-673.5z" transform="translate(-320.65721 -310.01221)"/></clipPath><clipPath id="ah"><path d="m0 0h673.5v449h-673.5z" transform="translate(-320.65721 -310.01221)"/></clipPath><clipPath id="ai"><path d="m0 0h673.5v449h-673.5z" transform="translate(-326.03611 -310.01221)"/></clipPath><clipPath id="aj"><path d="m0 0h673.5v449h-673.5z" transform="translate(-326.03611 -310.01221)"/></clipPath><clipPath id="ak"><path d="m0 0h673.5v449h-673.5z" transform="translate(-323.35301 -311.06981)"/></clipPath><clipPath id="al"><path d="m0 0h673.5v449h-673.5z" transform="translate(-323.35251 -311.06981)"/></clipPath><clipPath id="am"><path d="m0 0h673.5v449h-673.5z" transform="translate(-314.95021 -302.60941)"/></clipPath><clipPath id="an"><path d="m0 0h673.5v449h-673.5z" transform="translate(-314.94971 -302.60941)"/></clipPath><clipPath id="ao"><path d="m0 0h673.5v449h-673.5z" transform="translate(-341.70801 -291.9687)"/></clipPath><clipPath id="ap"><path d="m0 0h673.5v449h-673.5z" transform="translate(-323.89941 -307.84811)"/></clipPath><clipPath id="aq"><path d="m0 0h673.5v449h-673.5z" transform="translate(-323.34471 -302.12501)"/></clipPath><clipPath id="ar"><path d="m0 0h673.5v449h-673.5z" transform="translate(-323.34471 -302.12501)"/></clipPath><clipPath id="as"><path d="m0 0h673.5v449h-673.5z" transform="translate(-322.56011 -304.91021)"/></clipPath><clipPath id="at"><path d="m0 0h673.5v449h-673.5z" transform="translate(-322.56011 -304.78911)"/></clipPath><clipPath id="au"><path d="m0 0h673.5v449h-673.5z" transform="translate(-322.57911 -304.65621)"/></clipPath><clipPath id="av"><path d="m0 0h673.5v449h-673.5z" transform="translate(-324.13381 -304.91021)"/></clipPath><clipPath id="aw"><path d="m0 0h673.5v449h-673.5z" transform="translate(-324.13381 -304.78911)"/></clipPath><clipPath id="ax"><path d="m0 0h673.5v449h-673.5z" transform="translate(-324.10991 -304.65621)"/></clipPath><clipPath id="ay"><path d="m0 0h673.5v449h-673.5z" transform="translate(-324.11041 -304.65621)"/></clipPath><clipPath id="az"><path d="m0 0h673.5v449h-673.5z" transform="translate(-312.45021 -311.95701)"/></clipPath><clipPath id="aA"><path d="m0 0h673.5v449h-673.5z" transform="translate(-312.45021 -311.95701)"/></clipPath><clipPath id="aB"><path d="m0 0h673.5v449h-673.5z" transform="translate(-311.65721 -309.93801)"/></clipPath><clipPath id="aC"><path d="m0 0h673.5v449h-673.5z" transform="translate(-311.25881 -307.22711)"/></clipPath><clipPath id="aD"><path d="m0 0h673.5v449h-673.5z" transform="translate(-311.25881 -307.22711)"/></clipPath><clipPath id="aE"><path d="m0 0h673.5v449h-673.5z" transform="translate(-311.98881 -298.82031)"/></clipPath><clipPath id="aF"><path d="m0 0h673.5v449h-673.5z" transform="translate(-311.98931 -298.82031)"/></clipPath><clipPath id="aG"><path d="m0 0h673.5v449h-673.5z" transform="translate(-311.95021 -296.9844)"/></clipPath><clipPath id="aH"><path d="m0 0h673.5v449h-673.5z" transform="translate(-311.95021 -296.9844)"/></clipPath><clipPath id="aI"><path d="m0 0h673.5v449h-673.5z" transform="translate(-313.12601 -295.60941)"/></clipPath><clipPath id="aJ"><path d="m0 0h673.5v449h-673.5z" transform="translate(-313.12601 -295.60941)"/></clipPath><clipPath id="aK"><path d="m0 0h673.5v449h-673.5z" transform="translate(-337.14601 -292.94531)"/></clipPath><clipPath id="aL"><path d="m0 0h673.5v449h-673.5z" transform="translate(-337.14551 -292.94531)"/></clipPath><clipPath id="aM"><path d="m0 0h673.5v449h-673.5z" transform="translate(-338.38381 -291.69921)"/></clipPath><clipPath id="aN"><path d="m0 0h673.5v449h-673.5z" transform="translate(-338.38381 -291.69921)"/></clipPath><clipPath id="aO"><path d="m0 0h673.5v449h-673.5z" transform="translate(-337.50881 -294.71091)"/></clipPath><clipPath id="aP"><path d="m0 0h673.5v449h-673.5z" transform="translate(-337.50881 -294.71091)"/></clipPath><clipPath id="aQ"><path d="m0 0h673.5v449h-673.5z" transform="translate(-354.59861 -292.55861)"/></clipPath><clipPath id="aR"><path d="m0 0h673.5v449h-673.5z" transform="translate(-354.59861 -292.55861)"/></clipPath><clipPath id="aS"><path d="m0 0h673.5v449h-673.5z" transform="translate(-354.62601 -294.24611)"/></clipPath><clipPath id="aT"><path d="m0 0h673.5v449h-673.5z" transform="translate(-354.62601 -294.24611)"/></clipPath><clipPath id="aU"><path d="m0 0h673.5v449h-673.5z" transform="translate(-355.29391 -291.04691)"/></clipPath><clipPath id="aV"><path d="m0 0h673.5v449h-673.5z" transform="translate(-355.29391 -291.04691)"/></clipPath><clipPath id="aW"><path d="m0 0h673.5v449h-673.5z" transform="translate(-323.41501 -302.95311)"/></clipPath><clipPath id="aX"><path d="m0 0h673.5v449h-673.5z" transform="translate(-323.41501 -302.95311)"/></clipPath><path d="m0 0h673.5v449h-673.5z" fill="#fff" transform="matrix(1.3333333 0 0 -1.3333333 0 598.66667)"/><path d="m0 0-325.781-196.094-325.781 196.094h-11.599v-51.496l288.942-173.504-288.942-173.504v-50.496h13.26l324.12 195.094 324.12-195.094h11.999v51.253l-287.681 172.747 287.681 172.747v52.253z" fill="#df112d" transform="matrix(1.3333333 0 0 -1.3333333 884.2152 -.000133)"/><g stroke="#000" stroke-width=".382"><path clip-path="url(#a)" d="m0 0c9.637-39.028 4.352-87.227-39.184-113.969-43.535 26.742-48.824 74.941-39.179 113.969 10.262 9.328 56.902 15.082 78.363 0" fill="#e8112d" transform="matrix(1.3333333 0 0 -1.3333333 502.168 89.7656)"/><g fill="#f9dd16"><path clip-path="url(#b)" d="m0 0c15.961 0 30.824-4.227 39.586-9.703 1.719 13.457 7.82 26.914 15.019 37.082-7.507.16-10.875-3.832-10.949-7.977-1.879 5.32-9.234 5.008-11.504 2.109 8.215-5.554 1.879-15.41-5.549-13.375-3.494.954-5.336 3.387-5.994 6.922.805.055 1.602.348 2.274.895 1.73 1.402 1.996 3.945.595 5.68-1.408 1.73-3.947 1.996-5.681.589-1.735-1.402-2-3.945-.59-5.679.457-.567 1.047-.973 1.68-1.215-2.348-3.836-6.559-4.985-9.574-4.141-3.915 1.094-5.559 4.613-5.559 7.746 0 8.133 7.824 9.387 10.172 7.977-.155 5.476-8.762 9.859-11.422 5.32 2.974 5.32 2.816 12.832-2.504 17.84-5.32-5.008-5.477-12.52-2.504-17.84-2.66 4.539-11.266.156-11.422-5.32 2.348 1.41 10.172.156 10.172-7.977 0-3.133-1.644-6.652-5.555-7.746-3.019-.844-7.23.305-9.582 4.141.637.242 1.223.648 1.684 1.215 1.406 1.734 1.141 4.277-.59 5.679-1.734 1.407-4.277 1.141-5.683-.589-1.403-1.735-1.137-4.278.593-5.68.676-.547 1.473-.84 2.278-.895-.657-3.535-2.504-5.968-5.993-6.922-7.429-2.035-13.765 7.821-5.554 13.375-2.266 2.899-9.621 3.211-11.5-2.109-.078 4.145-3.442 8.137-10.949 7.977 7.195-10.168 13.296-23.625 15.019-37.082 8.762 5.476 23.625 9.703 39.586 9.703" transform="matrix(1.3333333 0 0 -1.3333333 449.83987 79.317067)"/><path clip-path="url(#c)" d="m0 0c-.961-.226-.961-1.468-1.464-1.468 2.5.07 3.714.757 4.472 2.019-.551-.504-.07-1.469-.254-1.695 1.836.64 2.711 2.203 2.066 3.258.414-.598 1.61-.918 1.973-.965-1.285 1.012-.363 3.305-2.434 4.5.692.043 2.024-.735 2.391-1.653-.32 2.063-.645 3.395-2.344 4.543.184-.207 1.149-.39 1.563 0-1.101.688-1.426 1.836-1.332 2.571.129 1.027-.551 1.238-1.836.918-1.16-.289-3.808-.457-5.371-.457-3.211 0-6.012 0-8.676 1.836 3.996-1.653 9.09 1.836 9.09 4.726 0 3.215-3.949 5.832-11.937 4.086-7.985-1.746-17.716-1.008-17.716 1.652 0 2.665 6.973 3.032 10.559 2.481 3.579-.551 6.145-.918 12.852 1.469-1.652-.645-6.981-.828-11.2.367-4.226 1.191-14.601 1.191-14.691-4.406-.093-5.602 11.047-5.094 20.657-3.676 5.601.828 8.539.277 8.539-1.559 0-1.746-5.141-2.48-9.091-2.019-3.945.457-7.987.367-12.668-1.012-3.91-1.148-6.609 0-10.925-.734-2.094-.356-7.164 0-9.664 4.132-1.539-1.101-6.176-3.41-6.954-5.656-1.101-2.066-.366-4.121 1.098-6.14 1.852-2.543-.914-2.161-2.886-2.25-2.707-.125-6.328.285-8.219 2.433-1.676 1.899-3.906 3.426-5.684 2.016-.918-.727-.039-1.68.688-1.414.715.265 1.566-.266 2.332-.602-1.227.527-2.57.117-3.098-.351-.722-.649.157-1.891 1.032-1.454.687.344 2.097.575 3.015-.265-.992.191-2.023.152-2.519-.383-.496-.531-.114-1.305.957-1.258 1.715.074 2.156-1.129 3.875-.879-1.059-.14-1.657-.691-1.93-1.101 1.605.734 3.379-1.246 5.464-.782-.812-.335-2.124-1.132-2.112-1.746 1.237 1.426 9.546-1.101 9.73 2.02.231-.641.184-1.606-.457-2.434 1.062.645 4.5.875 5.551 3.352.094-.734-.043-1.695-.684-1.926 1.102-.359 2.551.461 4.035 2.66.59.875.731 1.457.629 2.114 1.473-.059 2.539.312 3.688 1.285 1.195 1.008 2.48-.828 4.5.461 2.019 1.285 3.765.183 4.863.824 1.102.644 2.617-.231 3.813.504 1.194.734 3.043-.36 5.019 1.203 3.109-1.141 6.738-3.25 15.636-1.613 5.102.937 6.704-.782 6.704-3.125 0-1.606-.942-1.746-1.652-1.789-2.841-.176-4.059 1.062-5.177.668-.753-.27-1.211-1.493-.125-1.911-.898-.457-.78-1.316-.323-1.632.461-.317 1.64-.028 2.445.343-1.031-.468-2.102-1.308-1.493-2.187.371-.531 1.305-.985 2.18.152.875 1.149 2.48 2.102 3.5 1.949" transform="matrix(1.3333333 0 0 -1.3333333 493.98573 130.3548)"/><path clip-path="url(#d)" d="m0 0c-2.57 1.054-3.437 1.086-2.844-1.008.254-.899.868-2.16 1.489-2.735.023.875.347 3.286 1.355 3.743" transform="matrix(1.3333333 0 0 -1.3333333 418.61067 98.035867)"/><path clip-path="url(#e)" d="m0 0c2.571 1.054 3.438 1.086 2.844-1.008-.254-.899-.871-2.16-1.492-2.735-.02.875-.344 3.286-1.352 3.743" transform="matrix(1.3333333 0 0 -1.3333333 429.32427 98.035867)"/><path clip-path="url(#f)" d="m0 0c4.864 0 5.473-2.281 5.446-5.129-.02-3.074-1.672-2.02-2.614-5.965-.367-1.547-1.597-1.633-2.832-1.633-1.242 0-2.468.086-2.839 1.633-.938 3.945-2.594 2.891-2.614 5.965-.023 2.848.582 5.129 5.453 5.129" transform="matrix(1.3333333 0 0 -1.3333333 423.98507 96.156267)"/><path clip-path="url(#g)" d="m0 0c-1.238.735-2.039.223-2.542.086 1.605-.414 1.671-2.476 5.343-3.437-.824.226-1.285-.231-2.066.184 1.515-1.196 3.215-2.579 6.797-2.618 1.996-.023.617-1.054-.692-.461 1.356-1.398 4.039-.25 5.739-2.8.32 1.976-3.168 5.097-1.559 7.347-4.957.211-5.363 2.957-8.219 5.141-2.324 1.777-2.531 3.582-3.554 6.961-.469 1.531-2.262 2.484-3.254 2.125-.867-.321-1.184-1.071-.442-1.633.746-.562 1.699-.641 1.903-2.066-.965 1.16-2.418 1.578-3.114.855-.425-.445-.254-1.473.66-1.566 1.489-.153.418-1.606 2.11-3.024-1.5 1.688-2.797 1.84-3.602.922-.476-.547 0-1.527 1.035-1.422 1.493.153 3.223-3.637 5.457-4.594" transform="matrix(1.3333333 0 0 -1.3333333 407.25587 111.19333)"/></g></g><path clip-path="url(#h)" d="m0 0c-.781-.137-.551-1.422-1.604-1.516 2.522 0 3.807.598 5.002 1.563-.55-.32-.781-1.149-.828-1.606 1.332 1.149 4.5 1.239 6.153.918 1.652-.324 1.925.457 2.523 1.516.598 1.055-.229 1.652-1.055 2.477-.828.828-1.011 1.972-.828 3.902-4.406 5.875-12.301 3.031-12.39.461 2.843-3.309 3.212-2.942 5.597-3.399 2.387-.461 3.852-.457 2.25-1.789-.549-.461-2.847-.246-4.635-.324-4.005-.172-5.837 2.766-7.021 1.238-.973-1.254.031-1.808 2.016-1.742-1.375-.008-3.196.067-2.887-1.215.527-2.156 2.59.403 3.392-.488-.689.164-1.755-.258-1.794-.906-.038-.649 1.527-1.488 3.246-.121.941.746 2.14 1.027 2.863 1.031" fill="#f9dd16" transform="matrix(1.3333333 0 0 -1.3333333 460.50653 130.10933)"/><g stroke="#000"><path clip-path="url(#i)" d="m0 0c-.277-.227-.305.183-.094-.899.391-1.988.852-2.921-.758-2.921-1.64 0-1.144.933-.758 2.921.215 1.082.188.672-.089.899m4.152.476c-.809-.406-1.266.739-2.453-.476.328.355.734-.942 1.644-.082m-5.796.558c.808-.406 1.265.739 2.453-.476-.328.355-.735-.942-1.645-.082m11.742-11.449c-1.175-2.532-.461-3.782-.289-4.957m21.883 4.277c-1.43.523-2.746.844-4.426.496m1.012-9.457c-.781-.137-.551-1.422-1.604-1.516 2.522 0 3.807.598 5.003 1.563-.551-.32-.782-1.149-.829-1.606 1.332 1.149 4.5 1.239 6.153.918 1.652-.324 1.926.457 2.523 1.516.598 1.055-.229 1.652-1.054 2.477-.829.828-1.012 1.972-.829 3.902-4.406 5.875-12.3 3.031-12.39.461 2.844-3.309 3.212-2.942 5.597-3.399 2.387-.461 3.852-.457 2.25-1.789-.549-.461-2.847-.246-4.635-.324-4.005-.172-5.837 2.766-7.021 1.238-.972-1.254.031-1.808 2.016-1.742-1.375-.008-3.196.067-2.887-1.215.527-2.156 2.59.403 3.392-.488-.689.164-1.755-.258-1.794-.906-.038-.649 1.527-1.488 3.246-.121.941.746 2.14 1.027 2.863 1.031z" fill="none" stroke-width=".382" transform="matrix(1.3333333 0 0 -1.3333333 425.06907 101.88027)"/><g stroke-width=".191"><path clip-path="url(#j)" d="m0 0c1.308 0 2.066.023 1.863 1.859-.086.739.895 1.032.547 2.227.367-1.469-2.41-1.328-2.41-.664 0-.664-2.774-.805-2.406.664-.348-1.195.628-1.488.546-2.227-.203-1.836.555-1.859 1.86-1.859" fill="#ff0016" transform="matrix(1.3333333 0 0 -1.3333333 423.96547 112.05213)"/><path clip-path="url(#k)" d="m0 0-3.137.875" transform="matrix(1.3333333 0 0 -1.3333333 422.3972 107.09893)"/><path clip-path="url(#l)" d="m0 0-3.504.031" transform="matrix(1.3333333 0 0 -1.3333333 422.3972 107.31707)"/><path clip-path="url(#m)" d="m0 0-2.988-.801" transform="matrix(1.3333333 0 0 -1.3333333 422.444 107.55733)"/><path clip-path="url(#n)" d="m0 0 3.14.875" transform="matrix(1.3333333 0 0 -1.3333333 425.5332 107.09893)"/><path clip-path="url(#o)" d="m0 0 3.507.031" transform="matrix(1.3333333 0 0 -1.3333333 425.5332 107.31707)"/><path clip-path="url(#p)" d="m0 0 2.989-.801" transform="matrix(1.3333333 0 0 -1.3333333 425.49093 107.55733)"/></g><g fill="#0051ba" stroke-width=".04"><path clip-path="url(#q)" d="m0 0c-.914 1.137-3.199.176-3.246-1.234.773.914 2.035-.402 2.723-.125.476.191.894.894.523 1.359" transform="matrix(1.3333333 0 0 -1.3333333 402.28253 94.5736)"/><path clip-path="url(#r)" d="m0 0c-.914 1.137-3.199.176-3.246-1.234.77.914 2.032-.403 2.723-.125.477.191.895.894.523 1.359" transform="matrix(1.3333333 0 0 -1.3333333 400.70373 98.161467)"/><path clip-path="url(#s)" d="m0 0c-1.035 1.027-3.196-.184-3.082-1.59.664.996 2.062-.172 2.715.18.453.246.789.992.367 1.41" transform="matrix(1.3333333 0 0 -1.3333333 399.90827 102.98373)"/><path clip-path="url(#t)" d="m0 0c-1.149.902-3.153-.551-2.883-1.934.547 1.063 2.07.067 2.68.492.421.293.671 1.075.203 1.442" transform="matrix(1.3333333 0 0 -1.3333333 401.36133 117.9264)"/><path clip-path="url(#u)" d="m0 0c-1.367.507-2.832-1.493-2.144-2.727.187 1.18 1.949.699 2.398 1.293.309.41.305 1.23-.254 1.434" transform="matrix(1.3333333 0 0 -1.3333333 401.28253 121.1972)"/><path clip-path="url(#v)" d="m0 0c-1.367.503-2.832-1.493-2.149-2.727.192 1.18 1.95.699 2.399 1.293.312.41.305 1.23-.25 1.434" transform="matrix(1.3333333 0 0 -1.3333333 403.62627 123.64)"/><path clip-path="url(#w)" d="m0 0c-1.371.504-2.836-1.492-2.148-2.727.191 1.18 1.949.699 2.398 1.293.309.41.305 1.231-.25 1.434" transform="matrix(1.3333333 0 0 -1.3333333 451.4284 128.37507)"/><path clip-path="url(#x)" d="m0 0c-1.418.343-2.648-1.809-1.824-2.957.055 1.195 1.855.918 2.234 1.558.262.442.164 1.258-.41 1.399" transform="matrix(1.3333333 0 0 -1.3333333 453.89187 130.58787)"/><path clip-path="url(#y)" d="m0 0c-1.266.731-3.05-.992-2.582-2.324.391 1.133 2.039.359 2.582.867.375.352.512 1.16 0 1.457" transform="matrix(1.3333333 0 0 -1.3333333 452.1576 125.2344)"/><path clip-path="url(#z)" d="m0 0c-1.418.344-2.645-1.808-1.824-2.957.059 1.195 1.859.918 2.234 1.559.266.441.168 1.257-.41 1.398" transform="matrix(1.3333333 0 0 -1.3333333 486.1628 129.06253)"/><path clip-path="url(#A)" d="m0 0c-1.285.688-3.008-1.094-2.5-2.41.352 1.145 2.027.43 2.555.953.363.367.469 1.18-.055 1.457" transform="matrix(1.3333333 0 0 -1.3333333 486.22 126.06253)"/><path clip-path="url(#B)" d="m0 0c-1.429.282-2.563-1.921-1.691-3.035.004 1.199 1.816 1 2.164 1.656.242.454.109 1.262-.473 1.379" transform="matrix(1.3333333 0 0 -1.3333333 487.54813 131.74547)"/><path clip-path="url(#C)" d="m0 0c.899 0 1.262-.261 1.262-1.886 0-3.434-.039-4.914-1.145-4.914-1.109 0-1.035 1.406-1.035 3.929 0 1.317 0 1.973-.265 1.864 0 .859.382 1.007 1.183 1.007" transform="matrix(1.3333333 0 0 -1.3333333 424.10547 110.584)"/></g><g fill="#f9dd16" stroke-width=".344"><path clip-path="url(#D)" d="m0 0c-.867-.207-.867-1.321-1.32-1.321 2.254.063 3.347.68 4.027 1.817-.492-.453-.062-1.321-.227-1.528 1.654.578 2.438 1.985 1.86 2.934.371-.539 1.445-.828 1.777-.867-1.156.906-.332 2.972-2.19 4.047.62.043 1.819-.661 2.147-1.489-.289 1.86-.578 3.059-2.104 4.094.164-.187 1.03-.352 1.401 0-.988.617-1.281 1.652-1.194 2.313.116.925-.497 1.113-1.657.824-1.04-.258-3.425-.41-4.833-.41-2.89 0-5.41 0-7.808 1.652 3.598-1.488 8.18 1.652 8.18 4.254 0 2.891-3.555 5.246-10.743 3.676-7.187-1.571-15.945-.907-15.945 1.488 0 2.398 6.281 2.727 9.504 2.23 3.223-.496 5.531-.824 11.566 1.325-1.488-.578-6.281-.746-10.078.328-3.804 1.074-13.141 1.074-13.223-3.965s9.942-4.582 18.594-3.305c5.036.742 7.68.246 7.68-1.406 0-1.57-4.625-2.23-8.18-1.816-3.55.414-7.187.328-11.402-.911-3.516-1.035-5.945 0-9.832-.66-1.883-.32-6.445 0-8.695 3.719-1.387-.992-5.559-3.066-6.258-5.094-.992-1.859-.332-3.707.988-5.523 1.664-2.289-.824-1.942-2.602-2.028-2.433-.113-5.695.262-7.394 2.192-1.508 1.711-3.516 3.082-5.117 1.812-.825-.652-.032-1.511.621-1.269.644.238 1.41-.242 2.097-.543-1.101.473-2.312.105-2.785-.317-.652-.585.137-1.699.926-1.304.621.308 1.891.515 2.715-.242-.895.171-1.824.136-2.269-.344-.446-.477-.102-1.176.863-1.133 1.543.07 1.937-1.016 3.488-.793-.953-.121-1.492-.617-1.738-.988 1.445.66 3.043-1.121 4.918-.703-.731-.301-1.911-1.02-1.899-1.571 1.113 1.282 8.59-.992 8.754 1.817.207-.578.168-1.446-.41-2.188.957.578 4.047.785 4.996 3.016.082-.664-.039-1.531-.617-1.735.992-.328 2.297.415 3.633 2.395.531.785.656 1.309.566 1.898 1.324-.05 2.285.286 3.316 1.161 1.079.906 2.235-.746 4.051.41 1.821 1.156 3.391.168 4.379.746.993.578 2.357-.207 3.43.453 1.074.66 2.742-.324 4.52 1.082 2.796-1.027 6.062-2.926 14.075-1.453 4.589.844 6.03-.703 6.03-2.809 0-1.445-.848-1.574-1.487-1.613-2.556-.156-3.654.957-4.661.602-.675-.243-1.086-1.344-.11-1.719-.808-.414-.703-1.188-.293-1.469.414-.285 1.478-.027 2.199.309-.924-.422-1.89-1.176-1.339-1.969.332-.481 1.171-.887 1.961.137.789 1.031 2.23 1.89 3.148 1.754" transform="matrix(1.3333333 0 0 -1.3333333 488.01693 173.03053)"/><path clip-path="url(#E)" d="m0 0c-2.317.949-3.098.977-2.563-.91.227-.805.785-1.942 1.34-2.457.024.785.313 2.953 1.223 3.367" transform="matrix(1.3333333 0 0 -1.3333333 420.18427 143.94267)"/><path clip-path="url(#F)" d="m0 0c2.317.949 3.098.977 2.563-.91-.227-.805-.785-1.942-1.344-2.457-.019.785-.308 2.953-1.219 3.367" transform="matrix(1.3333333 0 0 -1.3333333 429.81907 143.94267)"/><path clip-path="url(#G)" d="m0 0c4.379 0 4.926-2.054 4.902-4.617-.019-2.769-1.504-1.816-2.351-5.371-.329-1.39-1.438-1.465-2.551-1.465-1.117 0-2.223.075-2.555 1.465-.844 3.555-2.332 2.602-2.351 5.371-.024 2.563.523 4.617 4.906 4.617" transform="matrix(1.3333333 0 0 -1.3333333 425.0176 142.25067)"/><path clip-path="url(#H)" d="m0 0c-1.117.66-1.836.203-2.289.078 1.445-.371 1.504-2.226 4.808-3.093-.742.207-1.156-.207-1.859.164 1.363-1.075 2.891-2.317 6.117-2.356 1.797-.019.555-.949-.625-.414 1.223-1.258 3.637-.227 5.168-2.519.289 1.777-2.852 4.585-1.406 6.609-4.457.191-4.824 2.664-7.395 4.629-2.09 1.597-2.277 3.222-3.203 6.265-.418 1.379-2.031 2.239-2.926 1.911-.781-.286-1.066-.961-.394-1.469.668-.508 1.527-.574 1.711-1.86-.871 1.043-2.176 1.422-2.805.77-.379-.398-.226-1.324.594-1.41 1.34-.137.379-1.442 1.902-2.719-1.351 1.516-2.519 1.652-3.242.828-.434-.492 0-1.371.93-1.277 1.343.137 2.902-3.274 4.914-4.137" transform="matrix(1.3333333 0 0 -1.3333333 409.96547 155.7864)"/></g></g><path clip-path="url(#I)" d="m0 0c-.703-.125-.492-1.282-1.445-1.364 2.273 0 3.43.535 4.504 1.403-.496-.289-.703-1.032-.742-1.446 1.199 1.032 4.046 1.117 5.535.828 1.488-.289 1.734.411 2.269 1.364.539.949-.207 1.484-.949 2.23-.742.742-.91 1.774-.742 3.512-3.969 5.285-11.075 2.726-11.156.41 2.562-2.973 2.89-2.641 5.043-3.055 2.144-.414 3.46-.414 2.023-1.613-.496-.41-2.563-.219-4.176-.289-3.602-.156-5.25 2.492-6.316 1.117-.875-1.133.027-1.629 1.816-1.57-1.238-.008-2.879.058-2.597-1.094.472-1.941 2.328.36 3.05-.437-.617.144-1.582-.235-1.617-.817-.031-.586 1.375-1.34 2.922-.113.848.676 1.926.926 2.578.934" fill="#f9dd16" transform="matrix(1.3333333 0 0 -1.3333333 457.88667 172.80667)"/><g stroke="#000"><path clip-path="url(#J)" d="m0 0c-.25-.207-.277.164-.086-.812.352-1.789.766-2.625-.679-2.625-1.481 0-1.032.836-.684 2.625.191.976.168.605-.082.812m3.738.426c-.73-.363-1.136.664-2.207-.426.293.317.66-.847 1.477-.074m-5.215.5c.726-.363 1.137.664 2.207-.426-.293.317-.66-.847-1.481-.074m10.571-10.305c-1.063-2.281-.418-3.406-.262-4.465m19.695 3.852c-1.289.473-2.472.758-3.984.445m.91-8.507c-.703-.125-.492-1.282-1.445-1.364 2.273 0 3.43.535 4.504 1.403-.497-.289-.703-1.032-.742-1.446 1.199 1.032 4.046 1.117 5.535.828 1.488-.289 1.734.411 2.269 1.364.539.949-.207 1.484-.949 2.23-.742.742-.91 1.774-.742 3.512-3.969 5.285-11.075 2.726-11.156.41 2.562-2.973 2.89-2.641 5.043-3.055 2.144-.414 3.46-.414 2.023-1.613-.496-.41-2.563-.219-4.176-.289-3.602-.156-5.25 2.492-6.316 1.117-.875-1.133.027-1.629 1.816-1.57-1.238-.008-2.879.058-2.597-1.094.472-1.941 2.327.36 3.05-.437-.617.144-1.582-.235-1.617-.817-.031-.586 1.375-1.34 2.922-.113.847.676 1.926.926 2.578.934z" fill="none" stroke-width=".344" transform="matrix(1.3333333 0 0 -1.3333333 425.99613 147.40107)"/><g stroke-width=".172"><path clip-path="url(#K)" d="m0 0c1.176 0 1.859.02 1.676 1.672-.078.664.805.926.492 2.004.332-1.32-2.168-1.196-2.168-.598 0-.598-2.5-.722-2.168.598-.312-1.078.57-1.34.496-2.004-.187-1.652.496-1.672 1.672-1.672" fill="#ff0016" transform="matrix(1.3333333 0 0 -1.3333333 425.00133 156.55733)"/><path clip-path="url(#L)" d="m0 0-2.824.789" transform="matrix(1.3333333 0 0 -1.3333333 423.5892 152.10413)"/><path clip-path="url(#M)" d="m0 0-3.156.028" transform="matrix(1.3333333 0 0 -1.3333333 423.5892 152.29747)"/><path clip-path="url(#N)" d="m0 0-2.692-.718" transform="matrix(1.3333333 0 0 -1.3333333 423.63213 152.51627)"/><path clip-path="url(#O)" d="m0 0 2.824.789" transform="matrix(1.3333333 0 0 -1.3333333 426.41347 152.10413)"/><path clip-path="url(#P)" d="m0 0 3.156.028" transform="matrix(1.3333333 0 0 -1.3333333 426.41347 152.29747)"/><path clip-path="url(#Q)" d="m0 0 2.692-.718" transform="matrix(1.3333333 0 0 -1.3333333 426.3704 152.51627)"/></g><g fill="#0051ba" stroke-width=".036"><path clip-path="url(#R)" d="m0 0c-.82 1.023-2.879.16-2.922-1.109.696.82 1.833-.364 2.45-.114.429.172.804.805.472 1.223" transform="matrix(1.3333333 0 0 -1.3333333 405.48507 140.82813)"/><path clip-path="url(#S)" d="m0 0c-.82 1.023-2.879.156-2.918-1.113.691.824 1.828-.36 2.449-.114.426.176.805.809.469 1.227" transform="matrix(1.3333333 0 0 -1.3333333 404.06387 144.05733)"/><path clip-path="url(#T)" d="m0 0c-.934.922-2.879-.168-2.778-1.433.602.894 1.86-.157 2.446.164.41.218.711.89.332 1.269" transform="matrix(1.3333333 0 0 -1.3333333 403.35093 148.39587)"/><path clip-path="url(#U)" d="m0 0c-1.035.809-2.84-.496-2.593-1.742.492.957 1.863.059 2.41.441.379.266.605.969.183 1.301" transform="matrix(1.3333333 0 0 -1.3333333 404.6576 161.84373)"/><path clip-path="url(#V)" d="m0 0c-1.234.453-2.55-1.348-1.933-2.457.172 1.063 1.754.633 2.156 1.164.281.367.277 1.106-.223 1.293" transform="matrix(1.3333333 0 0 -1.3333333 404.5892 164.7864)"/><path clip-path="url(#W)" d="m0 0c-1.231.457-2.551-1.344-1.934-2.453.172 1.062 1.758.629 2.16 1.164.281.367.274 1.105-.226 1.289" transform="matrix(1.3333333 0 0 -1.3333333 406.69467 166.9896)"/><path clip-path="url(#X)" d="m0 0c-1.23.458-2.551-1.343-1.933-2.453.175 1.063 1.754.629 2.16 1.164.277.368.273 1.106-.227 1.289" transform="matrix(1.3333333 0 0 -1.3333333 449.7148 171.25067)"/><path clip-path="url(#Y)" d="m0 0c-1.277.313-2.382-1.625-1.64-2.66.047 1.078 1.667.828 2.011 1.403.234.398.149 1.132-.371 1.257" transform="matrix(1.3333333 0 0 -1.3333333 451.9336 173.24547)"/><path clip-path="url(#Z)" d="m0 0c-1.136.656-2.742-.891-2.324-2.09.352 1.015 1.836.32 2.328.777.336.317.457 1.043-.004 1.313" transform="matrix(1.3333333 0 0 -1.3333333 450.37107 168.4212)"/><path clip-path="url(#aa)" d="m0 0c-1.274.312-2.38-1.625-1.642-2.66.055 1.078 1.676.828 2.012 1.402.238.398.149 1.133-.37 1.258" transform="matrix(1.3333333 0 0 -1.3333333 480.97653 171.8692)"/><path clip-path="url(#ab)" d="m0 0c-1.157.617-2.707-.988-2.246-2.172.315 1.031 1.823.387 2.296.859.329.329.422 1.059-.05 1.313" transform="matrix(1.3333333 0 0 -1.3333333 481.02867 169.16667)"/><path clip-path="url(#ac)" d="m0 0c-1.289.258-2.309-1.726-1.522-2.726.003 1.078 1.631.898 1.948 1.488.22.41.097 1.137-.426 1.238" transform="matrix(1.3333333 0 0 -1.3333333 482.2252 174.2864)"/><path clip-path="url(#ad)" d="m0 0c.808 0 1.137-.234 1.137-1.695 0-3.094-.036-4.422-1.032-4.422-1 0-.929 1.262-.929 3.535 0 1.184 0 1.778-.238 1.676 0 .774.343.906 1.062.906" transform="matrix(1.3333333 0 0 -1.3333333 425.12627 155.24027)"/></g></g><path clip-path="url(#ae)" d="m0 0c-.645-.172-.645-1.102-.98-1.102 1.675.051 2.492.567 2.996 1.516-.368-.379-.047-1.101-.168-1.273 1.231.48 1.816 1.652 1.386 2.441.274-.445 1.075-.687 1.321-.723-.864.758-.246 2.481-1.633 3.375.465.036 1.355-.55 1.601-1.238-.214 1.547-.429 2.547-1.569 3.406.125-.152.769-.293 1.046 0-.738.52-.953 1.379-.891 1.93.086.77-.371.93-1.23.688-.777-.215-2.55-.344-3.598-.344-2.152 0-4.031 0-5.812 1.379 2.676-1.242 6.09 1.375 6.09 3.543 0 2.41-2.648 4.375-8 3.066-5.348-1.308-11.868-.758-11.868 1.238s4.672 2.274 7.071 1.86 4.121-.688 8.613 1.101c-1.109-.48-4.676-.621-7.503.278-2.832.894-9.782.894-9.844-3.309-.063-4.199 7.402-3.816 13.839-2.754 3.755.621 5.723.207 5.723-1.168 0-1.308-3.445-1.859-6.09-1.515-2.645.343-5.352.273-8.488-.758-2.621-.864-4.43 0-7.32-.551-1.402-.266-4.797 0-6.473 3.098-1.035-.825-4.14-2.555-4.66-4.243-.738-1.55-.247-3.089.733-4.605 1.244-1.906-.612-1.617-1.932-1.688-1.813-.093-4.242.215-5.508 1.825-1.122 1.425-2.613 2.57-3.81 1.511-.612-.543-.022-1.257.462-1.058.481.199 1.051-.199 1.562-.453-.819.394-1.722.089-2.073-.262-.485-.488.105-1.418.691-1.09.461.258 1.406.43 2.02-.199-.664.144-1.356.113-1.688-.285-.332-.403-.075-.981.641-.946 1.148.055 1.445-.843 2.597-.66-.712-.101-1.109-.515-1.293-.828 1.075.555 2.266-.933 3.661-.582-.547-.254-1.422-.851-1.415-1.308.829 1.066 6.395-.829 6.52 1.511.152-.48.121-1.203-.31-1.824.716.484 3.017.656 3.724 2.516.059-.551-.031-1.274-.461-1.446.737-.273 1.711.344 2.703 1.996.395.653.489 1.09.422 1.582.987-.042 1.699.235 2.468.965.802.758 1.665-.621 3.017.344 1.355.965 2.523.137 3.261.621.739.481 1.754-.172 2.551.379.8.551 2.043-.27 3.367.898 2.082-.851 4.511-2.437 10.476-1.21 3.414.703 4.489-.583 4.489-2.34 0-1.203-.629-1.309-1.105-1.344-1.903-.129-2.72.797-3.47.5-.504-.199-.812-1.117-.082-1.43-.601-.344-.523-.988-.218-1.226.309-.235 1.097-.02 1.636.257-.691-.351-1.405-.98-.996-1.636.246-.403.871-.739 1.457.113.587.859 1.66 1.574 2.344 1.461" fill="#f9dd16" transform="matrix(1.3333333 0 0 -1.3333333 478.03773 209.55733)"/><path clip-path="url(#af)" d="m0 0c-.645-.172-.645-1.102-.98-1.102 1.675.051 2.492.567 2.996 1.516-.368-.379-.047-1.101-.168-1.273 1.23.48 1.816 1.652 1.386 2.441.274-.445 1.075-.687 1.321-.723-.864.758-.246 2.481-1.634 3.375.466.036 1.356-.55 1.602-1.238-.214 1.547-.429 2.547-1.57 3.406.125-.152.77-.293 1.047 0-.738.52-.953 1.379-.891 1.93.086.77-.371.93-1.23.688-.777-.215-2.551-.344-3.598-.344-2.152 0-4.031 0-5.812 1.379 2.676-1.242 6.09 1.375 6.09 3.543 0 2.41-2.649 4.375-8 3.066-5.348-1.308-11.868-.758-11.868 1.238s4.672 2.274 7.071 1.86c2.398-.414 4.121-.688 8.613 1.101-1.109-.48-4.676-.621-7.504.278-2.832.894-9.781.894-9.844-3.309-.062-4.199 7.403-3.816 13.84-2.754 3.754.621 5.723.207 5.723-1.168 0-1.308-3.445-1.859-6.09-1.515-2.645.343-5.352.273-8.488-.758-2.621-.864-4.43 0-7.321-.551-1.402-.266-4.796 0-6.472 3.098-1.035-.825-4.14-2.555-4.66-4.243-.739-1.55-.246-3.089.734-4.605 1.243-1.906-.613-1.617-1.934-1.688-1.812-.093-4.242.215-5.507 1.825-1.122 1.425-2.614 2.57-3.809 1.511-.614-.543-.023-1.257.461-1.058.481.199 1.051-.199 1.562-.453-.819.394-1.722.089-2.074-.262-.484-.488.106-1.418.692-1.09.461.258 1.406.43 2.02-.199-.665.144-1.357.113-1.688-.285-.332-.403-.074-.981.64-.946 1.148.055 1.446-.843 2.598-.66-.711-.101-1.109-.515-1.294-.828 1.075.555 2.266-.933 3.661-.582-.547-.254-1.422-.851-1.413-1.308.828 1.066 6.394-.829 6.519 1.511.152-.48.121-1.203-.309-1.824.714.484 3.016.656 3.723 2.516.058-.551-.032-1.274-.462-1.446.739-.273 1.712.344 2.704 1.996.394.653.488 1.09.421 1.582.989-.042 1.7.235 2.469.965.801.758 1.665-.621 3.017.344 1.355.965 2.522.137 3.261.621.738.481 1.754-.172 2.551.379.8.551 2.043-.27 3.367.899 2.082-.852 4.511-2.438 10.476-1.211 3.414.703 4.489-.583 4.489-2.34 0-1.203-.629-1.309-1.106-1.344-1.902-.129-2.719.797-3.469.5-.504-.199-.812-1.117-.082-1.43-.601-.344-.523-.988-.218-1.226.308-.235 1.097-.02 1.636.257-.691-.351-1.406-.98-.996-1.636.246-.403.871-.739 1.457.113.586.859 1.66 1.574 2.344 1.461z" fill="none" stroke="#000" stroke-width=".286" transform="matrix(1.3333333 0 0 -1.3333333 478.03773 209.55733)"/><path clip-path="url(#ag)" d="m0 0c-1.726.789-2.304.812-1.91-.758.172-.672.586-1.621 1-2.051.016.656.231 2.461.91 2.809" fill="#f9dd16" transform="matrix(1.3333333 0 0 -1.3333333 427.54293 185.31707)"/><path clip-path="url(#ah)" d="m0 0c-1.727.789-2.305.812-1.911-.758.173-.672.586-1.621 1.001-2.051.015.656.23 2.461.91 2.809z" fill="none" stroke="#000" stroke-width=".286" transform="matrix(1.3333333 0 0 -1.3333333 427.54293 185.31707)"/><path clip-path="url(#ai)" d="m0 0c1.723.789 2.305.812 1.906-.758-.167-.672-.582-1.621-1-2.051-.011.656-.226 2.461-.906 2.809" fill="#f9dd16" transform="matrix(1.3333333 0 0 -1.3333333 434.7148 185.31707)"/><path clip-path="url(#aj)" d="m0 0c1.723.789 2.305.812 1.906-.758-.168-.672-.582-1.621-1-2.051-.011.656-.226 2.461-.906 2.809z" fill="none" stroke="#000" stroke-width=".286" transform="matrix(1.3333333 0 0 -1.3333333 434.7148 185.31707)"/><path clip-path="url(#ak)" d="m0 0c3.261 0 3.668-1.715 3.652-3.847-.016-2.309-1.121-1.516-1.75-4.477-.246-1.156-1.07-1.222-1.902-1.222-.828 0-1.653.066-1.899 1.222-.629 2.961-1.738 2.168-1.754 4.477-.015 2.132.391 3.847 3.653 3.847" fill="#f9dd16" transform="matrix(1.3333333 0 0 -1.3333333 431.13733 183.90693)"/><path clip-path="url(#al)" d="m0 0c3.262 0 3.668-1.715 3.652-3.847-.015-2.309-1.121-1.516-1.75-4.477-.246-1.156-1.07-1.222-1.902-1.222-.828 0-1.652.066-1.898 1.222-.629 2.961-1.739 2.168-1.755 4.477-.015 2.132.391 3.847 3.653 3.847z" fill="none" stroke="#000" stroke-width=".286" transform="matrix(1.3333333 0 0 -1.3333333 431.13667 183.90693)"/><path clip-path="url(#am)" d="m0 0c-.832.551-1.367.168-1.703.066 1.074-.312 1.117-1.859 3.578-2.582-.554.172-.859-.172-1.383.141 1.016-.898 2.153-1.934 4.551-1.965 1.34-.015.414-.793-.461-.344.91-1.05 2.707-.187 3.844-2.101.215 1.48-2.121 3.824-1.043 5.512-3.32.156-3.594 2.214-5.508 3.855-1.554 1.332-1.695 2.684-2.383 5.219-.312 1.149-1.515 1.866-2.179 1.594-.582-.238-.793-.801-.293-1.223s1.137-.481 1.273-1.551c-.648.872-1.621 1.184-2.086.641-.285-.332-.172-1.105.442-1.177.996-.112.281-1.202 1.414-2.264-1.004 1.264-1.875 1.379-2.414.691-.321-.41 0-1.144.691-1.066 1.004.113 2.164-2.727 3.66-3.446" fill="#f9dd16" transform="matrix(1.3333333 0 0 -1.3333333 419.9336 195.18747)"/><path clip-path="url(#an)" d="m0 0c-.832.551-1.367.168-1.703.066 1.074-.312 1.117-1.859 3.578-2.582-.554.172-.859-.172-1.382.141 1.015-.898 2.153-1.934 4.55-1.965 1.34-.015.415-.793-.461-.344.911-1.05 2.708-.187 3.844-2.101.216 1.48-2.121 3.824-1.042 5.512-3.321.156-3.594 2.214-5.509 3.855-1.554 1.332-1.695 2.684-2.382 5.219-.313 1.149-1.516 1.866-2.18 1.594-.583-.238-.793-.801-.293-1.223.501-.422 1.136-.481 1.273-1.551-.647.872-1.621 1.184-2.086.641-.285-.332-.171-1.105.442-1.177.997-.112.281-1.202 1.414-2.264-1.003 1.264-1.875 1.379-2.414.691-.32-.41 0-1.144.691-1.066 1.004.113 2.165-2.727 3.66-3.446z" fill="none" stroke="#000" stroke-width=".286" transform="matrix(1.3333333 0 0 -1.3333333 419.93293 195.18747)"/><path clip-path="url(#ao)" d="m0 0c-.523-.102-.367-1.066-1.078-1.137 1.695 0 2.555.45 3.352 1.172-.368-.242-.52-.859-.551-1.203.89.859 3.015.93 4.121.688 1.105-.243 1.293.343 1.691 1.136.399.789-.156 1.239-.707 1.86-.554.617-.676 1.48-.554 2.925-2.954 4.407-8.243 2.27-8.305.344 1.906-2.48 2.152-2.203 3.754-2.547 1.597-.343 2.578-.343 1.508-1.343-.371-.344-1.911-.184-3.11-.243-2.679-.129-3.91 2.075-4.699.93-.656-.941.02-1.355 1.348-1.309-.918-.007-2.141.051-1.934-.91.352-1.617 1.734.301 2.274-.363-.461.121-1.18-.195-1.204-.684-.027-.484 1.024-1.113 2.176-.089.629.558 1.434.769 1.918.773" fill="#f9dd16" transform="matrix(1.3333333 0 0 -1.3333333 455.61067 209.37507)"/><path clip-path="url(#ap)" d="m0 0c-.183-.172-.203.136-.062-.676.261-1.488.569-2.188-.508-2.188-1.101 0-.765.7-.508 2.188.144.812.125.504-.058.676m2.781.359c-.543-.305-.848.551-1.645-.359.219.265.492-.703 1.102-.059m-3.883.418c.543-.305.848.551 1.645-.359-.219.265-.492-.703-1.102-.059m7.867-8.59c-.789-1.898-.313-2.836-.196-3.719m14.665 3.208c-.961.394-1.84.632-2.969.374m.68-7.093c-.524-.102-.368-1.067-1.079-1.137 1.696 0 2.555.449 3.352 1.172-.367-.242-.52-.86-.551-1.203.891.859 3.016.929 4.121.687 1.106-.242 1.293.344 1.692 1.137.398.789-.157 1.238-.707 1.859-.555.617-.676 1.481-.555 2.926-2.953 4.406-8.242 2.27-8.305.344 1.907-2.481 2.153-2.203 3.754-2.547 1.598-.344 2.578-.344 1.508-1.344-.371-.344-1.91-.183-3.109-.242-2.68-.129-3.91 2.074-4.7.93-.656-.942.02-1.356 1.348-1.309-.918-.008-2.14.051-1.934-.91.352-1.617 1.735.301 2.274-.363-.461.121-1.18-.196-1.203-.684-.027-.484 1.023-1.113 2.176-.09.629.559 1.433.77 1.918.774z" fill="none" stroke="#000" stroke-width=".286" transform="matrix(1.3333333 0 0 -1.3333333 431.86587 188.20253)"/><path clip-path="url(#aq)" d="m0 0c.879 0 1.387.02 1.246 1.395-.055.554.601.773.371 1.671.246-1.101-1.617-.996-1.617-.5 0-.496-1.86-.601-1.613.5-.231-.898.426-1.117.367-1.671-.137-1.375.371-1.395 1.246-1.395" fill="#ff0016" transform="matrix(1.3333333 0 0 -1.3333333 431.12627 195.83333)"/><g stroke="#000"><path clip-path="url(#ar)" d="m0 0c.879 0 1.386.02 1.246 1.395-.055.554.601.773.371 1.671.246-1.101-1.617-.996-1.617-.5 0-.496-1.859-.601-1.613.5-.231-.898.426-1.117.367-1.671-.137-1.375.371-1.395 1.246-1.395z" fill="none" stroke-width=".143" transform="matrix(1.3333333 0 0 -1.3333333 431.12627 195.83333)"/><path clip-path="url(#as)" d="m0 0-2.106.66" stroke-width=".143" transform="matrix(1.3333333 0 0 -1.3333333 430.08013 192.11973)"/><path clip-path="url(#at)" d="m0 0-2.352.023" stroke-width=".143" transform="matrix(1.3333333 0 0 -1.3333333 430.08013 192.2812)"/><path clip-path="url(#au)" d="m0 0-2-.601" stroke-width=".143" transform="matrix(1.3333333 0 0 -1.3333333 430.10547 192.4584)"/><path clip-path="url(#av)" d="m0 0 2.105.66" stroke-width=".143" transform="matrix(1.3333333 0 0 -1.3333333 432.1784 192.11973)"/><path clip-path="url(#aw)" d="m0 0 2.348.023" stroke-width=".143" transform="matrix(1.3333333 0 0 -1.3333333 432.1784 192.2812)"/></g><path clip-path="url(#ax)" d="m0 0 2.004-.601" transform="matrix(1.3333333 0 0 -1.3333333 432.14653 192.4584)"/><path clip-path="url(#ay)" d="m0 0 2.003-.601" fill="none" stroke="#000" stroke-width=".143" transform="matrix(1.3333333 0 0 -1.3333333 432.1472 192.4584)"/><path clip-path="url(#az)" d="m0 0c-.613.852-2.144.133-2.175-.926.519.688 1.363-.301 1.824-.093.32.144.597.671.351 1.019" fill="#0051ba" transform="matrix(1.3333333 0 0 -1.3333333 416.60027 182.724)"/><path clip-path="url(#aA)" d="m0 0c-.613.852-2.145.133-2.176-.926.52.688 1.364-.301 1.824-.093.321.144.598.671.352 1.019z" fill="none" stroke="#000" stroke-width=".03" transform="matrix(1.3333333 0 0 -1.3333333 416.60027 182.724)"/><path clip-path="url(#aB)" d="m0 0c-.613.855-2.144.132-2.175-.926.515.687 1.363-.301 1.824-.094.32.144.601.672.351 1.02" fill="#0051ba" stroke="#000" stroke-width=".03" transform="matrix(1.3333333 0 0 -1.3333333 415.54293 185.416)"/><path clip-path="url(#aC)" d="m0 0c-.695.769-2.145-.137-2.07-1.192.449.746 1.386-.129 1.824.133.301.184.527.746.246 1.059" fill="#0051ba" transform="matrix(1.3333333 0 0 -1.3333333 415.01173 189.03053)"/><path clip-path="url(#aD)" d="m0 0c-.695.769-2.145-.137-2.07-1.192.448.746 1.386-.129 1.824.133.3.184.527.746.246 1.059z" fill="none" stroke="#000" stroke-width=".03" transform="matrix(1.3333333 0 0 -1.3333333 415.01173 189.03053)"/><path clip-path="url(#aE)" d="m0 0c-.769.676-2.117-.41-1.933-1.449.367.797 1.386.051 1.793.367.285.223.453.809.14 1.082" fill="#0051ba" transform="matrix(1.3333333 0 0 -1.3333333 415.98507 200.2396)"/><path clip-path="url(#aF)" d="m0 0c-.77.676-2.117-.41-1.934-1.449.367.797 1.388.051 1.793.367.286.223.454.809.141 1.082z" fill="none" stroke="#000" stroke-width=".03" transform="matrix(1.3333333 0 0 -1.3333333 415.98573 200.2396)"/><path clip-path="url(#aG)" d="m0 0c-.918.375-1.902-1.121-1.441-2.047.129.887 1.309.524 1.609.969.207.308.203.922-.168 1.078" fill="#0051ba" transform="matrix(1.3333333 0 0 -1.3333333 415.9336 202.68747)"/><path clip-path="url(#aH)" d="m0 0c-.918.375-1.902-1.121-1.441-2.046.129.886 1.308.523 1.609.968.207.308.203.922-.168 1.078z" fill="none" stroke="#000" stroke-width=".03" transform="matrix(1.3333333 0 0 -1.3333333 415.9336 202.68747)"/><path clip-path="url(#aI)" d="m0 0c-.918.379-1.898-1.121-1.441-2.047.129.887 1.308.524 1.609.969.207.308.203.922-.168 1.078" fill="#0051ba" transform="matrix(1.3333333 0 0 -1.3333333 417.50133 204.5208)"/><path clip-path="url(#aJ)" d="m0 0c-.917.379-1.898-1.121-1.441-2.047.129.887 1.309.524 1.609.969.207.308.204.922-.168 1.078z" fill="none" stroke="#000" stroke-width=".03" transform="matrix(1.3333333 0 0 -1.3333333 417.50133 204.5208)"/><path clip-path="url(#aK)" d="m0 0c-.918.379-1.899-1.121-1.442-2.047.129.887 1.309.527 1.61.969.207.308.203.926-.168 1.078" fill="#0051ba" transform="matrix(1.3333333 0 0 -1.3333333 449.528 208.07293)"/><path clip-path="url(#aL)" d="m0 0c-.918.379-1.898-1.121-1.441-2.047.129.887 1.308.527 1.609.969.207.308.203.926-.168 1.078z" fill="none" stroke="#000" stroke-width=".03" transform="matrix(1.3333333 0 0 -1.3333333 449.52733 208.07293)"/><path clip-path="url(#aM)" d="m0 0c-.949.258-1.774-1.355-1.223-2.219.035.899 1.243.692 1.496 1.168.176.332.115.946-.273 1.051" fill="#0051ba" transform="matrix(1.3333333 0 0 -1.3333333 451.1784 209.7344)"/><path clip-path="url(#aN)" d="m0 0c-.95.258-1.773-1.355-1.223-2.219.036.899 1.243.692 1.496 1.168.176.332.114.946-.273 1.051z" fill="none" stroke="#000" stroke-width=".03" transform="matrix(1.3333333 0 0 -1.3333333 451.1784 209.7344)"/><path clip-path="url(#aO)" d="m0 0c-.844.547-2.039-.742-1.727-1.742.262.847 1.368.269 1.731.648.25.266.34.871-.004 1.094" fill="#0051ba" transform="matrix(1.3333333 0 0 -1.3333333 450.01173 205.7188)"/><path clip-path="url(#aP)" d="m0 0c-.844.547-2.039-.742-1.726-1.742.262.847 1.367.269 1.73.648.25.266.34.871-.004 1.094z" fill="none" stroke="#000" stroke-width=".03" transform="matrix(1.3333333 0 0 -1.3333333 450.01173 205.7188)"/><path clip-path="url(#aQ)" d="m0 0c-.948.258-1.773-1.355-1.223-2.219.039.899 1.246.692 1.5 1.168.176.332.11.946-.277 1.051" fill="#0051ba" transform="matrix(1.3333333 0 0 -1.3333333 472.79813 208.58853)"/><path clip-path="url(#aR)" d="m0 0c-.949.258-1.773-1.355-1.223-2.219.039.899 1.246.692 1.5 1.168.176.332.11.946-.277 1.051z" fill="none" stroke="#000" stroke-width=".03" transform="matrix(1.3333333 0 0 -1.3333333 472.79813 208.58853)"/><path clip-path="url(#aS)" d="m0 0c-.859.516-2.016-.82-1.672-1.808.235.859 1.36.32 1.711.714.242.274.317.883-.039 1.094" fill="#0051ba" transform="matrix(1.3333333 0 0 -1.3333333 472.83467 206.33853)"/><path clip-path="url(#aT)" d="m0 0c-.859.516-2.016-.82-1.672-1.809.235.86 1.36.321 1.711.715.242.274.316.883-.039 1.094z" fill="none" stroke="#000" stroke-width=".03" transform="matrix(1.3333333 0 0 -1.3333333 472.83467 206.33853)"/><path clip-path="url(#aU)" d="m0 0c-.957.215-1.715-1.441-1.133-2.273.004.898 1.219.75 1.449 1.242.165.34.075.945-.316 1.031" fill="#0051ba" transform="matrix(1.3333333 0 0 -1.3333333 473.7252 210.60413)"/><path clip-path="url(#aV)" d="m0 0c-.957.215-1.715-1.441-1.133-2.273.004.898 1.219.75 1.449 1.242.164.34.075.945-.316 1.031z" fill="none" stroke="#000" stroke-width=".03" transform="matrix(1.3333333 0 0 -1.3333333 473.7252 210.60413)"/><path clip-path="url(#aW)" d="m0 0c.602 0 .848-.199.848-1.414 0-2.578-.028-3.688-.77-3.688s-.691 1.055-.691 2.946c0 .988 0 1.48-.18 1.398 0 .645.258.758.793.758" fill="#0051ba" transform="matrix(1.3333333 0 0 -1.3333333 431.22 194.7292)"/><path clip-path="url(#aX)" d="m0 0c.602 0 .848-.199.848-1.414 0-2.578-.028-3.688-.77-3.688-.743 0-.692 1.055-.692 2.946 0 .988 0 1.48-.179 1.398 0 .645.258.758.793.758z" fill="none" stroke="#000" stroke-width=".03" transform="matrix(1.3333333 0 0 -1.3333333 431.22 194.7292)"/></svg>