<svg height="400" viewBox="0 0 600 400" width="600" xmlns="http://www.w3.org/2000/svg"><g transform="matrix(1.3333333 0 0 -1.3333333 0 400)"><path d="m0 0h450v300h-450z" fill="#009e60"/><path d="m0 0h337.5v300h-337.5z" fill="#fcd116"/><path d="m0 0h112.5v300h-112.5z" fill="#0072c6"/></g><g fill="#009e60"><path d="m0 0 25-50 25 50-25 50z" transform="matrix(1.3333333 0 0 -1.3333333 266.66667 283.33333)"/><path d="m0 0 25-50 25 50-25 50z" transform="matrix(1.3333333 0 0 -1.3333333 225 200)"/><path d="m0 0 25-50 25 50-25 50z" transform="matrix(1.3333333 0 0 -1.3333333 308.33333 200)"/></g></svg>