<svg height="480" viewBox="0 0 715.73334 480" width="715.73334" xmlns="http://www.w3.org/2000/svg" xmlns:xlink="http://www.w3.org/1999/xlink"><clipPath id="a"><path d="m0 360h536.8v-360h-536.8z" transform="translate(-270.3382 -223.20021)"/></clipPath><clipPath id="b"><path d="m0 360h536.8v-360h-536.8z" transform="translate(-285.01101 -174.52251)"/></clipPath><clipPath id="c"><path d="m0 360h536.8v-360h-536.8z" transform="translate(-155.8792 -341.22751)"/></clipPath><clipPath id="d"><path d="m0 360h536.8v-360h-536.8z" transform="translate(-275.8792 -341.22751)"/></clipPath><clipPath id="e"><path d="m0 360h536.8v-360h-536.8z" transform="translate(-399.12631 -331.23441)"/></clipPath><clipPath id="f"><path d="m0 360h536.8v-360h-536.8z" transform="translate(-99.582805 -187.59621)"/></clipPath><clipPath id="g"><path d="m0 360h536.8v-360h-536.8z" transform="translate(-73.760002 -213.24021)"/></clipPath><clipPath id="h"><path d="m0 360h536.8v-360h-536.8z" transform="translate(-155.8792 -31.227503)"/></clipPath><clipPath id="i"><path d="m0 360h536.8v-360h-536.8z" transform="translate(-275.8792 -31.227503)"/></clipPath><clipPath id="j"><path d="m0 360h536.8v-360h-536.8z" transform="translate(-399.12631 -21.234398)"/></clipPath><path d="m0 0h536.8v360h-536.8z" fill="#ce1126" transform="matrix(1.3333333 0 0 -1.3333333 0 480)"/><path d="m45.091 309.6h446.618v-259.2h-446.618z" fill="#007a5e" transform="matrix(1.3333333 0 0 -1.3333333 0 480)"/><path d="m0 0h446.618l-446.618-259.2h446.618z" fill="#fcd116" transform="matrix(1.3333333 0 0 -1.3333333 60.121467 67.199867)"/><path clip-path="url(#a)" d="m0 0c23.858 0 43.2-19.341 43.2-43.2s-19.342-43.2-43.2-43.2c-23.859 0-43.2 19.341-43.2 43.2s19.341 43.2 43.2 43.2" fill="#ce1126" transform="matrix(1.3333333 0 0 -1.3333333 360.45093 182.39973)"/><g fill="#fcd116"><path clip-path="url(#b)" d="m0 0 23.276 16.911h-28.77l-8.891 27.363-8.891-27.363h-28.771l23.276-16.911-8.891-27.363 23.277 16.911 23.276-16.911z" transform="matrix(1.3333333 0 0 -1.3333333 380.01467 247.30333)"/><path clip-path="url(#c)" d="m0 0-5.253 16.169-5.254-16.169h-17.001l13.754-9.993-5.254-16.169 13.755 9.993 13.753-9.993-5.253 16.169 13.754 9.993z" transform="matrix(1.3333333 0 0 -1.3333333 207.83893 25.03)"/><path clip-path="url(#d)" d="m0 0-5.253 16.169-5.254-16.169h-17.001l13.754-9.993-5.254-16.169 13.755 9.993 13.754-9.993-5.254 16.169 13.754 9.993z" transform="matrix(1.3333333 0 0 -1.3333333 367.83893 25.03)"/><path clip-path="url(#e)" d="m0 0 13.754 9.993h-17.001l-5.254 16.169-5.253-16.169h-17.001l13.754-9.993-5.254-16.169 13.754 9.993 13.755-9.993z" transform="matrix(1.3333333 0 0 -1.3333333 532.1684 38.354133)"/></g><path clip-path="url(#f)" d="m0 0-16.658-8.892c5.405-10.067 15.918-21.024 25.099-24.876.147 10.225-3.48 23.328-8.441 33.768" fill="#ce1126" transform="matrix(1.3333333 0 0 -1.3333333 132.77707 229.87173)"/><g fill="#fcd116"><path clip-path="url(#g)" d="m0 0c7.835-16.332-20.319-55.296 26.587-64.428-5.786 7.896-9.517 20.928-8.106 31.392 9.841-3.744 20.196-14.7 24.381-23.076 12.276 44.58-31.488 41.868-42.862 56.112" transform="matrix(1.3333333 0 0 -1.3333333 98.346667 195.67973)"/><path clip-path="url(#h)" d="m0 0-5.253 16.169-5.254-16.169h-17.001l13.754-9.993-5.254-16.169 13.755 9.993 13.753-9.993-5.253 16.169 13.754 9.993z" transform="matrix(1.3333333 0 0 -1.3333333 207.83893 438.36333)"/><path clip-path="url(#i)" d="m0 0-5.253 16.169-5.254-16.169h-17.001l13.754-9.993-5.254-16.169 13.755 9.993 13.754-9.993-5.254 16.169 13.754 9.993z" transform="matrix(1.3333333 0 0 -1.3333333 367.83893 438.36333)"/><path clip-path="url(#j)" d="m0 0 13.754 9.993h-17.001l-5.254 16.169-5.253-16.169h-17.001l13.754-9.993-5.254-16.169 13.754 9.993 13.755-9.993z" transform="matrix(1.3333333 0 0 -1.3333333 532.1684 451.68747)"/></g></svg>