<svg height="1066.6667" viewBox="0 0 1602.6667 1066.6667" width="1602.6667" xmlns="http://www.w3.org/2000/svg" xmlns:xlink="http://www.w3.org/1999/xlink"><clipPath id="a"><path d="m0 800h1202v-800h-1202z" transform="translate(-381.33351 -577.77781)"/></clipPath><clipPath id="b"><path d="m0 800h1202v-800h-1202z" transform="translate(-381.33351 -572.22222)"/></clipPath><clipPath id="c"><path d="m0 800h1202v-800h-1202z" transform="translate(-381.33351 -572.22222)"/></clipPath><clipPath id="d"><path d="m0 800h1202v-800h-1202z" transform="translate(-545.12651 -453.21971)"/></clipPath><clipPath id="e"><path d="m0 800h1202v-800h-1202z" transform="translate(-545.12651 -453.21971)"/></clipPath><clipPath id="f"><path d="m0 800h1202v-800h-1202z" transform="translate(-217.54 -453.21971)"/></clipPath><clipPath id="g"><path d="m0 800h1202v-800h-1202z" transform="translate(-217.54 -453.21971)"/></clipPath><clipPath id="h"><path d="m0 800h1202v-800h-1202z" transform="translate(-482.56301 -260.66891)"/></clipPath><clipPath id="i"><path d="m0 800h1202v-800h-1202z" transform="translate(-482.56301 -260.66891)"/></clipPath><clipPath id="j"><path d="m0 800h1202v-800h-1202z" transform="translate(-280.1035 -260.66891)"/></clipPath><clipPath id="k"><path d="m0 800h1202v-800h-1202z" transform="translate(-280.1035 -260.66891)"/></clipPath><g transform="matrix(1.3333333 0 0 -1.3333333 0 1066.6667)"><path d="m0 0h1202v800h-1202z" fill="#024fa2"/><path d="m0 133.333h1202v533.334h-1202z" fill="#fff"/><path d="m0 155.556h1202v488.888h-1202z" fill="#ed1c27"/></g><path clip-path="url(#a)" d="m0 0c98.184 0 177.778-79.594 177.778-177.778 0-98.183-79.594-177.777-177.778-177.777s-177.778 79.594-177.778 177.777c0 98.184 79.594 177.778 177.778 177.778" fill="#fff" transform="matrix(1.3333333 0 0 -1.3333333 508.44467 296.29627)"/><g fill="#ed1c27"><path clip-path="url(#b)" d="m0 0-53.22-163.793 81.897-26.61z" transform="matrix(1.3333333 0 0 -1.3333333 508.44467 303.70373)"/><path clip-path="url(#c)" d="m0 0 53.219-163.793-81.896-26.61z" transform="matrix(1.3333333 0 0 -1.3333333 508.44467 303.70373)"/><path clip-path="url(#d)" d="m0 0h-172.222v-86.111z" transform="matrix(1.3333333 0 0 -1.3333333 726.83533 462.37373)"/><path clip-path="url(#e)" d="m0 0-139.331-101.229-50.615 69.665z" transform="matrix(1.3333333 0 0 -1.3333333 726.83533 462.37373)"/><path clip-path="url(#f)" d="m0 0 139.331-101.229 50.615 69.665z" transform="matrix(1.3333333 0 0 -1.3333333 290.05333 462.37373)"/><path clip-path="url(#g)" d="m0 0h172.223v-86.111z" transform="matrix(1.3333333 0 0 -1.3333333 290.05333 462.37373)"/><path clip-path="url(#h)" d="m0 0-53.22 163.793-81.896-26.609z" transform="matrix(1.3333333 0 0 -1.3333333 643.41733 719.10813)"/><path clip-path="url(#i)" d="m0 0-139.331 101.23 50.615 69.666z" transform="matrix(1.3333333 0 0 -1.3333333 643.41733 719.10813)"/><path clip-path="url(#j)" d="m0 0 139.331 101.23-50.615 69.666z" transform="matrix(1.3333333 0 0 -1.3333333 373.47133 719.10813)"/><path clip-path="url(#k)" d="m0 0 53.22 163.793 81.896-26.609z" transform="matrix(1.3333333 0 0 -1.3333333 373.47133 719.10813)"/></g></svg>