<svg height="800" viewBox="0 0 1200 800" width="1200" xmlns="http://www.w3.org/2000/svg" xmlns:xlink="http://www.w3.org/1999/xlink"><clipPath id="a"><path d="m0 600h900v-600h-900z" transform="translate(-316.25491 -136.5)"/></clipPath><clipPath id="b"><path d="m0 600h900v-600h-900z" transform="translate(-316.25491 -150)"/></clipPath><clipPath id="c"><path d="m316.255 450h-115.456s-4.461-42.437-4.461-135.749c0-93.313 70.577-140.484 119.917-164.251 49.344 23.767 119.921 70.938 119.921 164.251 0 93.312-4.462 135.749-4.462 135.749z" transform="translate(-326.80761 -338.71631)"/></clipPath><clipPath id="d"><path d="m316.255 450h-115.456s-4.461-42.437-4.461-135.749c0-93.313 70.577-140.484 119.917-164.251 49.344 23.767 119.921 70.938 119.921 164.251 0 93.312-4.462 135.749-4.462 135.749z" transform="translate(-314.08151 -119.3877)"/></clipPath><g transform="matrix(1.3333333 0 0 -1.3333333 0 800)"><path d="m0 0h900v600h-900z" fill="#ee1c25"/><path d="m0 200h900v400h-900z" fill="#0b4ea2"/><path d="m0 400h900v200.001h-900z" fill="#fff"/></g><path clip-path="url(#a)" d="m0 0c-53.781 25.905-130.71 77.322-130.71 179.033s4.863 147.967 4.863 147.967h125.847 125.85s4.864-46.256 4.864-147.967-76.929-153.128-130.714-179.033" fill="#fff" transform="matrix(1.3333333 0 0 -1.3333333 421.6732 618)"/><path clip-path="url(#b)" d="m0 0c-49.34 23.767-119.917 70.938-119.917 164.251 0 93.312 4.461 135.749 4.461 135.749h115.456 115.459s4.462-42.437 4.462-135.749c0-93.313-70.577-140.484-119.921-164.251" fill="#ee1c25" transform="matrix(1.3333333 0 0 -1.3333333 421.6732 600)"/><path clip-path="url(#c)" d="m0 0c13.36-.216 39.425-.739 62.635 7.027 0 0-.613-8.305-.613-17.98 0-9.677.613-17.983.613-17.983-21.289 7.124-47.579 7.273-62.635 7.082v-51.539h-21.104v51.539c-15.054.191-41.344.042-62.634-7.082 0 0 .613 8.306.613 17.983 0 9.675-.613 17.98-.613 17.98 23.21-7.766 49.275-7.243 62.634-7.027v32.368c-12.176.108-29.723-.474-49.563-7.113 0 0 .614 8.306.614 17.982s-.614 17.981-.614 17.981c19.811-6.628 37.336-7.219 49.509-7.114-.625 20.496-6.596 46.331-6.596 46.331s12.289-.959 17.201-.959c4.918 0 17.203.959 17.203.959s-5.969-25.835-6.596-46.331c12.174-.105 29.699.486 49.509 7.114 0 0-.613-8.305-.613-17.981s.613-17.982.613-17.982c-19.839 6.639-37.387 7.221-49.563 7.113z" fill="#fff" transform="matrix(1.3333333 0 0 -1.3333333 435.74347 348.37827)"/><path clip-path="url(#d)" d="m0 0-102.236 91.13s13.07 42.27 38.582 42.27c20.272 0 27.671-16.345 27.671-16.345s13.31 34.456 38.156 34.456c24.849 0 38.16-34.456 38.16-34.456s7.397 16.345 27.67 16.345c25.512 0 38.581-42.27 38.581-42.27z" fill="#0b4ea2" transform="matrix(1.3333333 0 0 -1.3333333 418.77533 640.8164)"/></svg>