<svg height="1200" viewBox="0 0 1200 1200" width="1200" xmlns="http://www.w3.org/2000/svg" xmlns:xlink="http://www.w3.org/1999/xlink"><clipPath id="a"><path d="m0 600h900v-600h-900z" transform="translate(-562.50001 -480.00001)"/></clipPath><clipPath id="b"><path d="m0 600h900v-600h-900z" transform="translate(-498.89061 -464.22071)"/></clipPath><clipPath id="c"><path d="m0 600h900v-600h-900z" transform="translate(-628.13572 -434.69141)"/></clipPath><path d="m0 1200h1200v-1199.99998h-1200z" fill="#fff" stroke-width="1.63299"/><path d="m299.99999 1200h900.00001v-1199.99998h-900.00001z" fill="#01411c" stroke-width="1.63299"/><path clip-path="url(#a)" d="m0 0c99.411 0 180-80.589 180-180s-80.589-180-180-180-180 80.589-180 180 80.589 180 180 180" fill="#fff" transform="matrix(1.68437329122 0 0 -1.68437329122 723.88226 278.6256157368)"/><path clip-path="url(#b)" d="m0 0c68.108 60.542 172.4 54.407 232.942-13.703 60.541-68.109 54.407-172.401-13.702-232.943-68.109-60.541-172.401-54.406-232.943 13.704-60.541 68.109-54.406 172.4 13.703 232.942" fill="#01411c" transform="matrix(1.68437329122 0 0 -1.68437329122 616.7402871016 305.2038520864)"/><path clip-path="url(#c)" d="m0 0 75.822-85.299-111.479 24.441 104.554 45.752-57.694-98.47z" fill="#fff" transform="matrix(1.68437329122 0 0 -1.68437329122 834.4372870056 354.9422175584)"/></svg>