<?xml version="1.0" encoding="UTF-8" standalone="no"?>
<svg
   height="600"
   viewBox="0 0 600 600"
   width="600"
   version="1.1"
   id="svg3"
   sodipodi:docname="rect copy.svg"
   inkscape:version="1.4 (e7c3feb1, 2024-10-09)"
   xmlns:inkscape="http://www.inkscape.org/namespaces/inkscape"
   xmlns:sodipodi="http://sodipodi.sourceforge.net/DTD/sodipodi-0.dtd"
   xmlns="http://www.w3.org/2000/svg"
   xmlns:svg="http://www.w3.org/2000/svg">
  <defs
     id="defs3" />
  <sodipodi:namedview
     id="namedview3"
     pagecolor="#ffffff"
     bordercolor="#000000"
     borderopacity="0.25"
     inkscape:showpageshadow="2"
     inkscape:pageopacity="0.0"
     inkscape:pagecheckerboard="0"
     inkscape:deskcolor="#d1d1d1"
     inkscape:current-layer="svg3" />
  <clipPath
     id="a">
    <path
       d="M 0,466.667 H 700 V 0 H 0 Z"
       transform="translate(-399.18751,-377.41051)"
       id="path1" />
  </clipPath>
  <path
     d="M 0,600.00135 H 600 V 0.00135222 H 0 Z"
     fill="#e41e20"
     id="path2"
     style="stroke-width:1.04978" />
  <path
     clip-path="url(#a)"
     d="M 0,0 C 3.94,0 6.437,-1.231 6.437,-2.875 6.437,-4.548 3.94,-6.032 0,-6.032 c -3.956,0 -6.406,1.36 -6.406,3.032 0,1.644 2.45,3 6.406,3 m -98.375,0 c 3.957,0 6.407,-1.356 6.407,-3 0,-1.672 -2.45,-3.032 -6.407,-3.032 -3.939,0 -6.437,1.484 -6.437,3.157 0,1.644 2.498,2.875 6.437,2.875 m -0.719,8.719 c -4.862,0.081 -12.93,-1.551 -12.75,-5.281 -13.542,2.32 -14.952,-3.273 -14.156,-8.25 1.289,1.975 2.857,3.047 4.062,3.25 1.806,0.299 3.696,-0.284 5.625,-1.469 1.93,-1.186 4.056,-3.098 5,-4.281 -4.779,-1.143 -8.471,-0.406 -12.218,0.25 -1.847,0.323 -4.432,1.362 -5.969,2.437 -1.537,1.075 -2.021,2.087 -4.437,4.563 -2.85,2.917 -5.883,2.096 -4.938,-2.438 2.186,-4.211 5.837,-6.088 10.438,-6.844 2.213,-0.364 5.512,-1.153 9.249,-1.156 3.739,-0.004 7.936,0.54 10.219,0.062 -1.371,-0.861 -2.924,-2.346 -6,-2.937 -3.128,-0.601 -7.883,1.86 -10.781,2.531 0.368,-2.438 3.444,-4.718 9.5,-5.906 9.952,-2.167 18.221,-3.814 23.687,-6.781 5.467,-2.968 8.914,-6.683 11.375,-9.594 4.899,-5.793 5.157,-10.24 5.469,-11.219 1.008,-9.256 -2.219,-14.462 -8.219,-16.062 -2.999,-0.801 -8.327,0.706 -10.281,3 -1.953,2.293 -3.854,6.234 -3.312,12.406 0.526,2.421 3.295,8.728 0.937,10.031 -10.861,6.004 -24.051,12.074 -33.593,15.688 -2.608,0.987 -4.757,-2.558 -5.594,-3.938 -16.211,1.974 -30.827,12.944 -37.406,24.625 -4.481,7.955 -11.867,-0.016 -10.625,-7.531 2.004,-8.388 8.395,-14.452 16.062,-18.75 7.87,-4.333 17.706,-8.597 27.656,-8.375 5.361,-1.014 5.308,-7.95 -1.125,-9.25 -12.581,-0.08 -22.617,0.234 -32.093,9.375 -7.188,6.563 -11.235,-1.257 -9.157,-5.688 3.522,-13.658 23.007,-17.483 42.719,-13.062 7.633,1.264 3.063,-6.916 0.906,-7 -8.237,-5.906 -22.983,-11.684 -35.968,0.062 -5.943,4.55 -9.96,0.726 -7.75,-5.843 5.762,-17.128 27.803,-13.531 42.937,-5.094 3.896,2.171 7.431,-2.881 2.688,-6.719 -18.821,-13.15 -28.23,-13.3 -36.719,-8.25 -10.628,4.191 -11.563,-7.596 -5.25,-11.469 7.016,-4.304 24.87,-1.077 37.969,7.157 5.615,4.175 5.869,-2.353 2.312,-4.938 -15.544,-13.433 -21.671,-16.971 -37.875,-14.781 -8.035,0.626 -7.915,-9.28 -1.594,-13.156 8.63,-5.293 25.483,3.492 38.563,14.343 5.505,2.942 6.409,-1.882 3.687,-7.593 -7.992,-10.084 -15.493,-16.029 -22.718,-18.782 -7.226,-2.753 -14.176,-2.314 -19.094,-0.624 -6,2.061 -6.753,-4.174 -3.438,-9.844 1.999,-3.417 10.28,-4.513 19.219,-1.344 8.939,3.169 18.536,10.603 25.125,19.312 5.733,5.02 5.02,-1.723 2.406,-6.468 -13.194,-20.859 -25.262,-28.596 -41.156,-27.282 -7.047,1.198 -8.648,-4.283 -4.156,-9.343 7.887,-6.541 17.749,-6.336 26.375,0.125 7.668,7.393 22.338,23.313 30.031,31.844 5.421,4.322 7.153,0.061 5.562,-8.719 -1.446,-5.028 -5.068,-10.324 -14.937,-14.188 -6.742,-3.847 -1.679,-9.151 3.375,-9.25 2.782,-0.053 8.429,3.198 12.75,8.063 5.685,6.4 6.022,10.698 9.156,20.656 2.961,4.854 8.25,2.589 8.25,-2.5 -2.536,-9.975 -4.716,-11.764 -9.844,-15.844 -4.904,-4.604 3.416,-6.139 6.219,-4.25 8.111,5.467 11.072,12.538 13.781,18.969 1.957,4.642 7.631,2.392 5,-5.188 -6.285,-18.112 -16.614,-25.244 -34.687,-28.906 -1.832,-0.325 -2.949,-1.406 -2.312,-3.531 2.425,-2.518 4.855,-4.803 7.281,-7.313 -11.175,-3.253 -20.254,-5.081 -31.438,-8.343 -5.487,3.596 -9.919,6.648 -15.406,10.25 -1.447,3.382 -2.122,8.545 -10.219,4.906 -5.487,2.534 -8.017,1.604 -11.062,-0.938 4.395,-0.164 6.307,-1.34 8.031,-3.343 2.25,-5.927 7.439,-6.499 12.75,-4.813 3.455,-2.911 5.295,-5.143 8.75,-8.062 -6.449,0.22 -10.942,0.335 -17.375,0.531 -6.141,6.593 -11.042,6.231 -15.437,1.062 -3.351,-0.515 -4.771,-0.586 -7.063,-4.657 3.605,1.481 5.873,1.924 7.438,0.313 6.528,-3.785 10.793,-2.94 14.031,0 6.299,-0.385 11.974,-0.711 18.281,-1.125 -2.316,-1.969 -5.496,-3.014 -7.812,-5 -9.461,2.707 -14.398,-0.937 -16.063,-8.656 -1.268,-3.116 -1.861,-6.324 -1.312,-9.657 0.915,3.049 2.387,5.67 5.093,7.313 8.432,-2.142 11.603,1.301 12.063,6.344 4.064,3.316 10.193,4.047 14.25,7.406 4.743,-1.519 7.035,-2.459 11.812,-3.969 1.698,-5.16 5.542,-7.204 11.781,-5.875 7.428,-0.232 6.117,-3.28 6.719,-5.719 1.974,3.501 1.919,6.907 -2.656,10 -1.665,4.523 -5.353,6.579 -10.187,3.969 -4.551,1.292 -5.748,3.149 -10.282,4.438 11.469,3.655 19.603,4.477 31.063,8.125 2.868,-2.707 5.141,-4.649 8.031,-7.063 1.523,-0.908 2.98,-1.138 3.875,0 7.181,10.394 10.388,19.553 17.062,26.406 2.55,2.836 5.772,6.661 9.344,7.594 1.786,0.467 3.977,0.182 5.375,-1.344 1.399,-1.525 2.497,-4.337 2.031,-8.531 -0.668,-6.02 -2.123,-7.922 -3.812,-11.531 -1.689,-3.61 -3.753,-5.829 -5.875,-8.594 -4.244,-5.527 -9.842,-8.745 -13.156,-10.906 -6.628,-4.322 -9.431,-2.43 -14.563,-2.156 -6.633,-0.745 -8.397,-3.975 -2.969,-8.438 5.075,-2.641 9.637,-2.966 13.344,-2.281 3.183,0.589 6.908,4.697 9.563,6.906 2.988,3.452 7.941,-0.642 4.562,-4.656 -6.139,-7.295 -12.274,-12.105 -19.844,-12 -7.954,-1.071 -6.466,-5.54 -1.187,-7.719 9.501,-3.921 18.08,3.424 22.437,8.25 3.363,3.679 5.751,3.822 5.157,-1.875 -3.338,-10.313 -7.899,-14.298 -15.344,-14.812 -6.039,0.561 -6.104,-4.101 -1.688,-7.25 10.061,-6.963 17.347,4.894 20.75,12.062 2.426,6.466 6.146,3.392 6.532,-1.937 0.05,-7.12 -3.167,-12.932 -11.782,-20.219 6.592,-10.501 14.276,-21.183 20.875,-31.719 6.6,10.537 14.285,21.218 20.876,31.72 -8.615,7.286 -11.832,13.099 -11.782,20.218 0.385,5.329 4.106,8.404 6.531,1.938 3.405,-7.168 10.69,-19.025 20.75,-12.062 4.417,3.149 4.351,7.81 -1.687,7.249 -7.444,0.515 -12.006,4.5 -15.344,14.813 -0.593,5.696 1.794,5.554 5.157,1.875 4.357,-4.827 12.936,-12.171 22.437,-8.25 5.279,2.179 6.768,6.648 -1.188,7.719 -7.57,-0.105 -13.704,4.705 -19.843,12 -3.379,4.014 1.575,8.107 4.562,4.656 2.655,-2.209 6.379,-6.317 9.563,-6.906 3.707,-0.686 8.268,-0.36 13.343,2.281 5.429,4.463 3.665,7.693 -2.968,8.437 -5.132,-0.274 -7.935,-2.166 -14.563,2.157 -3.313,2.161 -8.913,5.378 -13.156,10.906 -2.122,2.764 -4.186,4.984 -5.875,8.594 -1.689,3.609 -3.144,5.51 -3.813,11.531 -0.465,4.194 0.633,7.006 2.032,8.531 1.398,1.526 3.589,1.81 5.375,1.344 3.572,-0.933 6.794,-4.759 9.344,-7.594 6.674,-6.853 9.881,-16.013 17.062,-26.406 0.895,-1.138 2.353,-0.909 3.875,0 2.89,2.414 5.163,4.356 8.031,7.062 11.46,-3.647 19.595,-4.469 31.063,-8.125 -4.534,-1.289 -5.731,-3.145 -10.282,-4.437 -4.834,2.61 -8.522,0.554 -10.187,-3.969 -4.575,-3.094 -4.63,-6.499 -2.656,-10 0.602,2.438 -0.709,5.486 6.718,5.719 6.241,-1.329 10.084,0.715 11.782,5.875 4.776,1.51 7.069,2.45 11.812,3.969 4.057,-3.359 10.186,-4.09 14.25,-7.407 0.46,-5.043 3.631,-8.485 12.063,-6.343 2.706,-1.644 4.177,-4.265 5.094,-7.313 0.548,3.333 -0.045,6.54 -1.313,9.656 -1.665,7.72 -6.603,11.363 -16.062,8.657 -2.317,1.986 -5.497,3.03 -7.813,5 6.307,0.414 11.982,0.739 18.281,1.125 3.238,-2.941 7.503,-3.785 14.032,0 1.564,1.61 3.832,1.167 7.437,-0.313 -2.292,4.07 -3.713,4.142 -7.062,4.656 -4.396,5.17 -9.297,5.532 -15.438,-1.062 -6.433,-0.196 -10.926,-0.311 -17.375,-0.531 3.454,2.919 5.295,5.152 8.75,8.062 5.312,-1.685 10.5,-1.113 12.75,4.813 1.724,2.003 3.636,3.18 8.031,3.343 -3.045,2.543 -5.576,3.472 -11.062,0.938 -8.098,3.639 -8.772,-1.523 -10.219,-4.906 -5.487,-3.601 -9.919,-6.653 -15.406,-10.25 -11.184,3.262 -20.263,5.091 -31.438,8.343 2.426,2.51 4.856,4.795 7.281,7.313 0.637,2.125 -0.48,3.206 -2.312,3.531 -18.072,3.661 -28.401,10.793 -34.688,28.906 -2.629,7.579 3.044,9.83 5,5.188 2.71,-6.431 5.671,-13.502 13.782,-18.969 2.803,-1.889 11.123,-0.354 6.219,4.25 -5.128,4.08 -7.308,5.868 -9.844,15.844 0.001,5.088 5.289,7.354 8.25,2.5 3.134,-9.959 3.471,-14.256 9.156,-20.656 4.32,-4.865 9.969,-8.117 12.75,-8.063 5.054,0.099 10.117,5.402 3.375,9.25 -9.869,3.864 -13.491,9.159 -14.938,14.188 -1.59,8.78 0.142,13.04 5.563,8.718 7.693,-8.53 22.363,-24.451 30.031,-31.843 8.626,-6.461 18.488,-6.666 26.375,-0.125 4.492,5.059 2.892,10.54 -4.156,9.343 -15.895,-1.315 -27.962,6.422 -41.156,27.281 -2.615,4.745 -3.327,11.488 2.406,6.469 6.589,-8.71 16.186,-16.143 25.125,-19.312 8.938,-3.17 17.221,-2.074 19.219,1.343 3.315,5.67 2.562,11.906 -3.438,9.844 -4.918,-1.689 -11.868,-2.128 -19.093,0.625 -7.226,2.753 -14.727,8.698 -22.719,18.782 -2.722,5.711 -1.818,10.535 3.687,7.593 13.08,-10.851 29.933,-19.636 38.563,-14.343 6.32,3.876 6.441,13.782 -1.594,13.156 -16.204,-2.19 -22.331,1.348 -37.875,14.781 -3.557,2.584 -3.303,9.113 2.313,4.938 13.098,-8.234 30.953,-11.461 37.968,-7.157 6.313,3.873 5.378,15.66 -5.25,11.469 -8.489,-5.05 -17.898,-4.9 -36.718,8.25 -4.744,3.838 -1.209,8.89 2.687,6.719 15.134,-8.437 37.176,-12.034 42.938,5.094 2.209,6.569 -1.808,10.393 -7.75,5.843 -12.987,-11.746 -27.733,-5.968 -35.969,-0.062 -2.156,0.084 -6.728,8.264 0.906,7 19.713,-4.421 39.197,-0.596 42.719,13.062 2.078,4.431 -1.969,12.251 -9.156,5.688 -9.477,-9.141 -19.513,-9.455 -32.094,-9.375 -6.433,1.3 -6.486,8.236 -1.125,9.25 9.95,-0.223 19.787,4.042 27.656,8.375 7.667,4.298 14.059,10.362 16.063,18.75 1.241,7.515 -6.144,15.487 -10.625,7.531 -6.58,-11.68 -21.196,-22.651 -37.407,-24.625 -0.837,1.38 -2.985,4.925 -5.594,3.938 -9.542,-3.613 -22.732,-9.684 -33.593,-15.688 -2.358,-1.303 0.411,-7.61 0.937,-10.031 0.542,-6.172 -1.359,-10.113 -3.312,-12.406 -1.953,-2.294 -7.282,-3.801 -10.282,-3 -5.999,1.6 -9.226,6.806 -8.218,16.062 0.312,0.978 0.569,5.426 5.469,11.219 2.461,2.911 5.908,6.626 11.375,9.594 5.466,2.967 13.736,4.614 23.687,6.781 6.056,1.188 9.132,3.467 9.5,5.906 -2.898,-0.672 -7.653,-3.133 -10.781,-2.531 -3.076,0.591 -4.628,2.076 -6,2.937 2.283,0.478 6.48,-0.066 10.218,-0.062 3.739,0.003 7.037,0.792 9.25,1.156 4.601,0.755 8.252,2.633 10.438,6.844 0.945,4.534 -2.088,5.355 -4.937,2.437 -2.417,-2.475 -2.902,-3.487 -4.438,-4.562 -1.537,-1.076 -4.122,-2.115 -5.969,-2.437 -3.747,-0.656 -7.439,-1.394 -12.218,-0.251 0.944,1.183 3.07,3.096 4.999,4.281 1.93,1.186 3.82,1.769 5.625,1.469 1.206,-0.203 2.775,-1.274 4.063,-3.25 C 28.421,0.165 27.011,5.758 13.469,3.437 13.649,7.168 5.58,8.8 0.719,8.718 -2.034,8.672 -7.684,7.058 -11.75,5.156 -18.183,3.207 -24.576,1.781 -32.063,1.25 c 4.324,-3.632 5.173,-3.839 9.532,-6.938 -6.6,-2.4 -11.711,-7.376 -14,-10.625 5.764,-0.276 7.668,0.209 9.625,-0.624 -8.031,-2.326 -11.665,-3.689 -15.907,-7.938 1.502,-0.273 3.734,-0.674 4.688,-1.031 0.986,-0.37 0.578,-0.877 -0.094,-1.594 -1.841,-1.152 -8.885,-9.452 -10.969,-11.375 -2.083,1.923 -9.127,10.223 -10.968,11.375 -0.672,0.717 -1.08,1.224 -0.094,1.594 0.954,0.357 3.186,0.758 4.687,1.031 -4.241,4.249 -7.876,5.612 -15.906,7.938 1.957,0.833 3.861,0.348 9.625,0.624 -2.288,3.249 -7.4,8.225 -14,10.626 4.359,3.098 5.208,3.306 9.531,6.937 -7.486,0.531 -13.879,1.957 -20.312,3.906 -4.067,1.902 -9.715,3.516 -12.469,3.563"
     transform="matrix(1.3333333,0,0,-1.3333333,365.58333,119.00867)"
     id="path3" />
</svg>
