<svg height="600" viewBox="0 0 902.07068 600" width="902.07068" xmlns="http://www.w3.org/2000/svg" xmlns:xlink="http://www.w3.org/1999/xlink"><clipPath id="a"><path d="m0 450h676.553v-450h-676.553z" transform="translate(-556.15621 -285.35251)"/></clipPath><clipPath id="b"><path d="m0 450h676.553v-450h-676.553z" transform="translate(-218.75001 -228.90621)"/></clipPath><clipPath id="c"><path d="m0 450h676.553v-450h-676.553z" transform="translate(-150.3267 -103.9063)"/></clipPath><clipPath id="d"><path d="m0 450h676.553v-450h-676.553z" transform="translate(-181.0225 -151.7598)"/></clipPath><clipPath id="e"><path d="m0 450h676.553v-450h-676.553z" transform="translate(-150.3267 -310.54981)"/></clipPath><clipPath id="f"><path d="m0 450h676.553v-450h-676.553z" transform="translate(-81.5767 -222.6562)"/></clipPath><path d="m0 0h676.552v450h-676.552z" transform="matrix(1.3333333 0 0 -1.3333333 0 600)"/><path d="m0 0 676.552-450v450z" fill="#ce1126" transform="scale(1.3333333 -1.3333333)"/><path clip-path="url(#a)" d="m0 0c6.281-6.281 48.68-34.547 48.68-69.094s-30.884-33.501-39.782-32.453c9.946-8.375 47.633-6.805 47.633 32.453 0 34.547-48.679 69.094-54.961 72.235-6.281 3.14-7.851 3.14-1.57-3.141m-76.684 36.902c-4.431-5.723-14.918 5.758-27.48 6.02-12.563.263-21.462-12.039-25.125-16.227-3.664-4.188-15.441-26.171-15.18-28.527.262-2.355 7.329 6.543 9.946 8.113.261-3.14-2.879-6.804-2.094-7.851s9.159 6.281 12.039 6.543c.785-2.095-1.57-4.188-.785-7.328 1.047-1.047 5.758 5.234 8.898 6.542.524-2.355-2.879-6.805-1.047-9.683 1.309-.261 9.159 8.898 11.778 9.946 2.617 1.047-1.31-8.637 0-9.422 2.355 1.57 9.683 9.945 12.039 10.992 2.355 1.046-.261-10.731.785-10.731 2.879 2.094 10.207 12.039 10.992 13.609.785 1.571-.785-15.179 7.328-24.078s20.415-19.105 21.723-19.105c1.57 2.879-.523 8.898.785 8.637 3.664-3.926 10.469-9.684 12.039-9.684s-1.048 6.281 1.047 6.281c4.187-3.926 16.226-19.367 39.781-26.433-1.57 4.449-4.973 8.375-5.234 10.468 1.57-.261 7.067-2.879 8.113-2.617 1.047.262-11.516 15.703-10.73 17.797 2.879.262 4.188-1.57 5.234-.261-1.309 2.093-12.301 14.394-12.301 17.273s3.404-.524 4.449 0c1.047.524-4.186 11.516-3.14 12.824 1.047 1.308 12.561-7.066 15.441-7.066 2.879 0 .785 10.207 2.094 10.731 1.309.523 10.993-5.497 13.086-5.497 2.094 0 1.832 4.45 2.617 3.926s23.555-23.293 15.703-49.989c-7.851-19.105-23.554-29.312-46.586-20.937 1.309-2.094 13.61-12.301 26.957-8.637 13.348 3.664 29.574 14.133 27.742 40.304-1.832 26.172-10.469 29.836-11.777 33.762-1.308 3.926 2.095-1.046 4.973-2.094 2.879-1.047-.524 5.497-1.309 8.376s8.637-6.02 10.992-6.805c2.356-.785-5.496 21.461-7.851 23.031-2.356 1.571 2.355-.522 3.926-1.046 1.57-.524-14.396 24.339-17.797 24.339-3.403 0 2.878 1.31 4.711 1.31 1.832 0-18.32 16.226-21.723 16.226-3.402 0 7.327 4.189 8.375 4.45 1.832-.261-23.293 13.347-45.801-.261-1.308 1.045 10.601 9.289 10.992 12.822.131.917-3.924 2.88-4.187 3.926-.262 1.047 6.281 4.188 6.543 6.543-1.57 2.094-4.449 1.309-6.02 1.832-.391 1.962 5.497 6.805 4.973 8.898-.393 1.178-4.712 1.57-5.758.785-1.047-.785 2.749 5.496 2.094 7.328-.523.785-2.617.262-4.711-.261-1.309.261 6.805 11.515 5.234 13.086-1.57 1.57-23.555-11.516-31.668-26.172-8.113-14.657-1.831-26.434-2.879-31.406-1.046-4.973-2.356-9.946-5.757-9.946-3.403 0-11.253 5.235-13.871 7.852s-3.141 4.449-6.805 5.496-12.039-2.094-15.18-2.356c-3.14-.261-15.441 2.356-16.226 1.571-.786-.786 12.039-5.496 14.918-7.067 2.879-1.57 3.141-3.664 5.234-4.972 2.094-1.308 21.723-7.066 15.441-15.18" fill="#fcd116" transform="matrix(1.3333333 0 0 -1.3333333 741.5416 219.53)"/><g fill="#fff"><path clip-path="url(#b)" d="m0 0 6.562-22.531h22.671l-17.899-13.771 6.563-21.904-17.897 13.769-17.897-13.143 6.562 21.278-17.898 13.771h22.074z" transform="matrix(1.3333333 0 0 -1.3333333 291.66667 294.79173)"/><path clip-path="url(#c)" d="m0 0 6.562-22.531h22.671l-17.899-13.771 6.563-21.904-17.897 13.769-17.898-13.143 6.563 21.278-17.898 13.771h22.073z" transform="matrix(1.3333333 0 0 -1.3333333 200.4356 461.45827)"/><path clip-path="url(#d)" d="m0 0 3.281-11.266h11.336l-8.95-6.885 3.282-10.953-8.949 6.885-8.949-6.571 3.282 10.639-8.949 6.885h11.036z" transform="matrix(1.3333333 0 0 -1.3333333 241.36333 397.6536)"/><path clip-path="url(#e)" d="m0 0 6.562-22.531h22.671l-17.899-13.77 6.563-21.905-17.897 13.769-17.898-13.143 6.563 21.279-17.898 13.77h22.073z" transform="matrix(1.3333333 0 0 -1.3333333 200.4356 185.9336)"/><path clip-path="url(#f)" d="m0 0 6.562-22.531h22.671l-17.899-13.771 6.563-21.904-17.897 13.769-17.898-13.143 6.563 21.278-17.898 13.771h22.073z" transform="matrix(1.3333333 0 0 -1.3333333 108.76893 303.12507)"/></g></svg>