<svg height="800" viewBox="0 0 1200 800" width="1200" xmlns="http://www.w3.org/2000/svg" xmlns:xlink="http://www.w3.org/1999/xlink"><clipPath id="a"><path d="m0 600h900v-600h-900z" transform="translate(-449.52831 -408.86181)"/></clipPath><clipPath id="b"><path d="m0 600h900v-600h-900z" transform="translate(-470.85841 -311.98191)"/></clipPath><clipPath id="c"><path d="m0 600h900v-600h-900z" transform="translate(-375.57571 -234.86041)"/></clipPath><clipPath id="d"><path d="m0 600h900v-600h-900z" transform="translate(-380.64751 -221.72071)"/></clipPath><clipPath id="e"><path d="m0 600h900v-600h-900z" transform="translate(-384.79691 -234.62991)"/></clipPath><clipPath id="f"><path d="m0 600h900v-600h-900z" transform="translate(-391.94291 -216.18751)"/></clipPath><clipPath id="g"><path d="m0 600h900v-600h-900z" transform="translate(-408.54101 -227.7139)"/></clipPath><clipPath id="h"><path d="m0 600h900v-600h-900z" transform="translate(-415.91801 -210.42481)"/></clipPath><clipPath id="i"><path d="m0 600h900v-600h-900z" transform="translate(-432.74661 -224.02641)"/></clipPath><clipPath id="j"><path d="m0 600h900v-600h-900z" transform="translate(-442.19821 -208.58011)"/></clipPath><clipPath id="k"><path d="m0 600h900v-600h-900z" transform="translate(-463.63671 -223.56451)"/></clipPath><clipPath id="l"><path d="m0 600h900v-600h-900z" transform="translate(-484.84571 -216.4189)"/></clipPath><clipPath id="m"><path d="m0 600h900v-600h-900z" transform="translate(-488.99511 -226.33111)"/></clipPath><clipPath id="n"><path d="m0 600h900v-600h-900z" transform="translate(-508.82032 -221.9512)"/></clipPath><clipPath id="o"><path d="m0 600h900v-600h-900z" transform="translate(-523.11331 -238.31841)"/></clipPath><clipPath id="p"><path d="m0 600h900v-600h-900z" transform="translate(-527.95411 -229.09771)"/></clipPath><g transform="matrix(1.3333333 0 0 -1.3333333 0 800)"><path d="m0 0h900v600h-900z" fill="#fff"/><path d="m0 0h900v180h-900z" fill="#009543"/><path d="m0 420h900v180h-900z" fill="#00209f"/></g><path clip-path="url(#a)" d="m0 0c-3.419-.073-6.756-3.861-6.756-3.861l.295-40.466-12.776-13.384h10.342l-.087-23.206-61.183-82.384-9.044 3.126-15.809-33.723s39.1-24.482 95.851-23.813c62.287.741 96.128 24.943 96.128 24.943l-16.336 33.288-7.999-3.478-61.966 81.957-.087 23.898h10.342l-14.075 13.218.083 40.318s-3.503 3.641-6.923 3.567" stroke="#000" stroke-width=".88" transform="matrix(1.3333333 0 0 -1.3333333 599.37107 254.85093)"/><path clip-path="url(#b)" d="m0 0h-42.305s-15.355 32.353-12.866 54.971c2.534 23.03 15.696 33.925 33.196 34.118 20.69.23 31.534-10.138 34.81-33.196 3.246-22.849-12.835-55.893-12.835-55.893z" fill="none" stroke="#000" stroke-width="4.398" transform="matrix(1.3333333 0 0 -1.3333333 627.8112 384.02413)"/><g fill="#fff"><path clip-path="url(#c)" d="m0 0c-.691-.922-5.763-11.065-5.763-11.065l8.76 1.844z" transform="matrix(1.3333333 0 0 -1.3333333 500.7676 486.8528)"/><path clip-path="url(#d)" d="m0 0-9.221-2.997 11.065-4.38z" transform="matrix(1.3333333 0 0 -1.3333333 507.53 504.3724)"/><path clip-path="url(#e)" d="m0 0 4.61-13.601 11.296 3.228-2.997 6.454z" transform="matrix(1.3333333 0 0 -1.3333333 513.06253 487.16013)"/><path clip-path="url(#f)" d="m0 0 1.614-5.532 14.984-3.689-5.994 12.679z" transform="matrix(1.3333333 0 0 -1.3333333 522.59053 511.75)"/><path clip-path="url(#g)" d="m0 0 5.302-12.679 11.296 4.38-3.688 5.533z" transform="matrix(1.3333333 0 0 -1.3333333 544.72133 496.38147)"/><path clip-path="url(#h)" d="m0 0 1.844-4.841 17.52-2.536-7.377 11.526z" transform="matrix(1.3333333 0 0 -1.3333333 554.55733 519.4336)"/><path clip-path="url(#i)" d="m0 0 6.455-11.296 16.367 5.993-1.844 4.38z" transform="matrix(1.3333333 0 0 -1.3333333 576.99547 501.29813)"/><path clip-path="url(#j)" d="m0 0 3.458-5.993 20.286.691-7.607 11.296z" transform="matrix(1.3333333 0 0 -1.3333333 589.5976 521.8932)"/><path clip-path="url(#k)" d="m0 0 5.533-9.451 12.909 6.224-3.458 5.072z" transform="matrix(1.3333333 0 0 -1.3333333 618.18227 501.914)"/><path clip-path="url(#l)" d="m0 0-12.909-6.455 3.457-5.533 17.29 2.766z" transform="matrix(1.3333333 0 0 -1.3333333 646.46093 511.44147)"/><path clip-path="url(#m)" d="m0 0 6.686-8.299 10.835 8.529-3.689 3.919z" transform="matrix(1.3333333 0 0 -1.3333333 651.99347 498.2252)"/><path clip-path="url(#n)" d="m0 0-10.374-7.838 2.767-4.841 14.293 3.689z" transform="matrix(1.3333333 0 0 -1.3333333 678.42707 504.06507)"/><path clip-path="url(#o)" d="m0 0 2.536-3.688-7.146-10.604-7.377 9.451z" transform="matrix(1.3333333 0 0 -1.3333333 697.4844 482.24213)"/><path clip-path="url(#p)" d="m0 0 4.38-8.76-8.76-2.997-.691 4.15z" transform="matrix(1.3333333 0 0 -1.3333333 703.9388 494.5364)"/></g></svg>