<svg height="533.33331" viewBox="0 0 800 533.33331" width="800" xmlns="http://www.w3.org/2000/svg" xmlns:xlink="http://www.w3.org/1999/xlink"><clipPath id="a"><path d="m0 400h600v-400h-600z" transform="translate(-380.08011 -96.046002)"/></clipPath><clipPath id="b"><path d="m0 400h600v-400h-600z" transform="translate(-406.19041 -79.968904)"/></clipPath><clipPath id="c"><path d="m0 400h600v-400h-600z"/></clipPath><clipPath id="d"><path d="m0 400h600v-400h-600z" transform="translate(-198.6763 -190.9718)"/></clipPath><clipPath id="e"><path d="m0 400h600v-400h-600z" transform="translate(-105.4482 -385.05531)"/></clipPath><clipPath id="f"><path d="m0 400h600v-400h-600z" transform="translate(-141.42531 -350.87371)"/></clipPath><clipPath id="g"><path d="m0 400h600v-400h-600z" transform="translate(-99.050305 -304.89421)"/></clipPath><clipPath id="h"><path d="m0 400h600v-400h-600z" transform="translate(-101.5117 -295.08221)"/></clipPath><clipPath id="i"><path d="m0 400h600v-400h-600z" transform="translate(-86.266105 -350.87951)"/></clipPath><clipPath id="j"><path d="m0 400h600v-400h-600z" transform="translate(-290.37211 -385.05481)"/></clipPath><clipPath id="k"><path d="m0 400h600v-400h-600z" transform="translate(-326.34961 -350.87321)"/></clipPath><clipPath id="l"><path d="m0 400h600v-400h-600z" transform="translate(-283.97461 -304.89371)"/></clipPath><clipPath id="m"><path d="m0 400h600v-400h-600z" transform="translate(-286.43551 -295.0817)"/></clipPath><clipPath id="n"><path d="m0 400h600v-400h-600z" transform="translate(-271.19041 -350.87951)"/></clipPath><clipPath id="o"><path d="m0 400h600v-400h-600z" transform="translate(-481.49121 -385.70571)"/></clipPath><clipPath id="p"><path d="m0 400h600v-400h-600z" transform="translate(-517.46782 -351.52401)"/></clipPath><clipPath id="q"><path d="m0 400h600v-400h-600z" transform="translate(-475.09281 -305.54461)"/></clipPath><clipPath id="r"><path d="m0 400h600v-400h-600z" transform="translate(-477.55371 -295.73251)"/></clipPath><clipPath id="s"><path d="m0 400h600v-400h-600z" transform="translate(-462.30861 -351.52991)"/></clipPath><clipPath id="t"><path d="m0 400h600v-400h-600z" transform="translate(-105.08691 -229.14071)"/></clipPath><clipPath id="u"><path d="m0 400h600v-400h-600z" transform="translate(-216.57621 -186.6896)"/></clipPath><clipPath id="v"><path d="m0 400h600v-400h-600z" transform="translate(-191.5659 -222.86341)"/></clipPath><clipPath id="w"><path d="m0 400h600v-400h-600z" transform="translate(-80.2588 -235.88201)"/></clipPath><clipPath id="x"><path d="m0 400h600v-400h-600z" transform="translate(-86.2246 -221.6183)"/></clipPath><clipPath id="y"><path d="m0 400h600v-400h-600z" transform="translate(-168.8154 -215.07631)"/></clipPath><clipPath id="z"><path d="m0 400h600v-400h-600z" transform="translate(-177.916 -220.13491)"/></clipPath><clipPath id="A"><path d="m0 400h600v-400h-600z" transform="translate(-160.8901 -214.1486)"/></clipPath><clipPath id="B"><path d="m0 400h600v-400h-600z" transform="translate(-148.10211 -163.0577)"/></clipPath><clipPath id="C"><path d="m0 400h600v-400h-600z" transform="translate(-113.3979 -194.5529)"/></clipPath><clipPath id="D"><path d="m0 400h600v-400h-600z" transform="translate(-114.74271 -197.14561)"/></clipPath><clipPath id="E"><path d="m0 400h600v-400h-600z" transform="translate(-123.8701 -192.11341)"/></clipPath><clipPath id="F"><path d="m0 400h600v-400h-600z" transform="translate(-77.864702 -211.60711)"/></clipPath><clipPath id="G"><path d="m0 400h600v-400h-600z" transform="translate(-91.9126 -201.7277)"/></clipPath><clipPath id="H"><path d="m0 400h600v-400h-600z" transform="translate(-186.3022 -190.2853)"/></clipPath><clipPath id="I"><path d="m0 400h600v-400h-600z" transform="translate(-187.41651 -172.67)"/></clipPath><clipPath id="J"><path d="m0 400h600v-400h-600z" transform="translate(-166.7134 -194.74621)"/></clipPath><clipPath id="K"><path d="m0 400h600v-400h-600z" transform="translate(-197.3857 -181.19641)"/></clipPath><clipPath id="L"><path d="m0 400h600v-400h-600z" transform="translate(-176.0601 -167.8898)"/></clipPath><clipPath id="M"><path d="m0 400h600v-400h-600z" transform="translate(-110.7222 -243.6818)"/></clipPath><clipPath id="N"><path d="m0 400h600v-400h-600z" transform="translate(-170.4556 -191.76871)"/></clipPath><clipPath id="O"><path d="m0 400h600v-400h-600z" transform="translate(-121.5679 -171.9298)"/></clipPath><clipPath id="P"><path d="m0 400h600v-400h-600z" transform="translate(-189.1899 -150.5284)"/></clipPath><clipPath id="Q"><path d="m0 400h600v-400h-600z" transform="translate(-171.1177 -155.6935)"/></clipPath><clipPath id="R"><path d="m0 400h600v-400h-600z" transform="translate(-192.9946 -146.63491)"/></clipPath><clipPath id="S"><path d="m0 400h600v-400h-600z" transform="translate(-190.5342 -130.7179)"/></clipPath><clipPath id="T"><path d="m0 400h600v-400h-600z" transform="translate(-390.74511 -100.5031)"/></clipPath><clipPath id="U"><path d="m0 400h600v-400h-600z" transform="translate(-394.55961 -105.12901)"/></clipPath><clipPath id="V"><path d="m0 400h600v-400h-600z" transform="translate(-385.92291 -97.1417)"/></clipPath><clipPath id="W"><path d="m0 400h600v-400h-600z" transform="translate(-382.17771 -93.344802)"/></clipPath><clipPath id="X"><path d="m0 400h600v-400h-600z" transform="translate(-378.65141 -88.5626)"/></clipPath><clipPath id="Y"><path d="m0 400h600v-400h-600z" transform="translate(-374.66991 -84.2042)"/></clipPath><clipPath id="Z"><path d="m0 400h600v-400h-600z" transform="translate(-310.18461 -44.790199)"/></clipPath><path d="m0 266.508h599.986v133.492h-599.986z" fill="#002488" transform="matrix(1.3333333 0 0 -1.3333333 0 533.33333)"/><path clip-path="url(#a)" d="m0 0c0-.927 3.147-2.967 7.037-4.635 6.481-2.781 14.259-5.562 71.665-26.142 24.629-8.9 34.258-11.495 34.258-9.085 0 .926-22.222 9.085-49.443 17.984-27.407 9.085-52.777 17.984-56.48 20.024-3.89 1.854-7.037 2.596-7.037 1.854" fill="#008000" transform="matrix(1.3333333 0 0 -1.3333333 506.77347 405.272)"/><path clip-path="url(#b)" d="m0 0c1.111-1.854 69.073-29.665 80.554-33.003 4.259-1.298 6.111 2.226 1.852 3.709-1.297.37-14.074 5.006-28.333 10.197-21.851 7.972-32.777 12.051-52.592 20.024-1.666.556-2.221.185-1.481-.927" fill="#008000" transform="matrix(1.3333333 0 0 -1.3333333 541.5872 426.70813)"/><path clip-path="url(#c)" d="m.013 0h599.987v266.984h-599.987z" transform="matrix(1.3333333 0 0 -1.3333333 0 533.33333)"/><path clip-path="url(#d)" d="m0 0c2.087-5.102 9.49-8.588 19.425-9.446 6.724-.478 3.64 2.422-5.757 5.846-4.414 1.412-9.555 4.074-11.737 5.659-3.844 2.979-3.844 2.979-1.931-2.059" fill="#008000" transform="matrix(1.3333333 0 0 -1.3333333 264.90173 278.70427)"/><g fill="#fcdd09"><path clip-path="url(#e)" d="m0 0c-7.326-12.081-8.2-21.745-3.2-38.431 2.408-7.787 5.052-19.416 6.163-25.72 1.481-8.899 1.326-9.745 1.534-11.68 1.852 0 6.06-.007 8.006.004.28 3.081.506 6.638 1.163 11.528.766 5.702 3.038 17.628 5.481 25.911 4.883 16.552 4.556 26.707-3.036 38.202-2.778 4.265-6.482 7.788-8.148 7.788-1.667 0-5.437-3.256-7.963-7.602" transform="matrix(1.3333333 0 0 -1.3333333 140.5976 19.926267)"/><path clip-path="url(#f)" d="m0 0c-10.37-4.45-16.607-16.768-20.015-33.744-.629-3.188-.782-4.313-1.098-7.905 2.245-.01 3.127-.025 5.315-.012.479 2.417.824 3.693 1.88 7.123 4.185 13.268 16.51 18.593 15.955 6.171-.185-3.43-1.631-5.345-3.241-7.184 1.99.497 6.215 2.471 9.641 4.418 19.073 11.495 11.563 39.662-8.437 31.133" transform="matrix(1.3333333 0 0 -1.3333333 188.56707 65.501733)"/><path clip-path="url(#g)" d="m0 0c8.369-.038 22.833-.104 29.781-.067.008 1.787.034.875.051 2.319-5.114.042-24.7-.028-29.792-.028.011-.934-.012-1.386-.04-2.224" transform="matrix(1.3333333 0 0 -1.3333333 132.06707 126.80773)"/><path clip-path="url(#h)" d="m0 0c-3.017-3.256-7.73-5.69-7.73-5.69s4.169-.469 8.057-.185 6.046.77 8.343 1.887c-.624-4.638-.66-9.118-.66-9.118.566-5.97 1.206-7.498 2.499-10.403 1.754-2.424 2.774-2.437 4.064.122 1.394 2.866 2.311 5.813 2.602 10.309-.101 3.369-.289 4.913-1.086 9.032 2.69-1.165 4.389-1.468 8.403-1.829 4.107-.371 7.882-.189 7.882-.189s-5.548 2.788-7.99 6.206c-2.41 3.375-1.896 2.801-3.649 7.148-2.13.101-12.927.002-16.353.002-1.876-3.963-2.065-4.791-4.382-7.292" transform="matrix(1.3333333 0 0 -1.3333333 135.34893 139.8904)"/><path clip-path="url(#i)" d="m0 0c10.37-4.45 16.607-16.768 20.015-33.744.629-3.187.782-4.313 1.098-7.905-2.245-.009-3.127-.025-5.315-.012-.479 2.417-.824 3.693-1.88 7.124-4.185 13.267-16.51 18.592-15.955 6.17.185-3.43 1.631-5.345 3.241-7.184-1.99.497-6.215 2.471-9.641 4.418-19.073 11.495-11.563 39.662 8.437 31.133z" transform="matrix(1.3333333 0 0 -1.3333333 115.02147 65.494)"/><path clip-path="url(#j)" d="m0 0c-7.326-12.081-8.2-21.745-3.2-38.431 2.408-7.787 5.052-19.416 6.163-25.719 1.481-8.9 1.327-9.746 1.535-11.681 1.851 0 6.06-.007 8.006.004.279 3.081.506 6.638 1.162 11.528.767 5.702 3.038 17.628 5.481 25.911 4.883 16.552 4.556 26.707-3.036 38.202-2.778 4.265-6.482 7.788-8.148 7.788-1.667 0-5.437-3.256-7.963-7.602" transform="matrix(1.3333333 0 0 -1.3333333 387.1628 19.926933)"/><path clip-path="url(#k)" d="m0 0c-10.37-4.45-16.607-16.768-20.015-33.744-.629-3.187-.782-4.313-1.097-7.905 2.244-.009 3.126-.025 5.314-.012.479 2.417.824 3.693 1.88 7.124 4.185 13.267 16.51 18.592 15.955 6.17-.185-3.43-1.632-5.345-3.241-7.184 1.99.497 6.215 2.471 9.641 4.418 19.074 11.495 11.562 39.662-8.437 31.133" transform="matrix(1.3333333 0 0 -1.3333333 435.1328 65.5024)"/><path clip-path="url(#l)" d="m0 0c8.369-.037 22.834-.104 29.781-.067.008 1.787.034.875.051 2.319-5.114.043-24.7-.028-29.792-.028.011-.934-.012-1.386-.04-2.224" transform="matrix(1.3333333 0 0 -1.3333333 378.6328 126.8084)"/><path clip-path="url(#m)" d="m0 0c-3.017-3.256-7.729-5.69-7.729-5.69s4.168-.469 8.056-.185 6.046.77 8.343 1.887c-.624-4.638-.659-9.118-.659-9.118.565-5.97 1.205-7.498 2.498-10.403 1.754-2.423 2.774-2.436 4.064.123 1.394 2.865 2.312 5.812 2.603 10.308-.102 3.37-.29 4.913-1.087 9.032 2.69-1.165 4.39-1.467 8.403-1.829 4.107-.37 7.882-.189 7.882-.189s-5.548 2.788-7.989 6.206c-2.411 3.375-1.897 2.801-3.65 7.149-2.13.1-12.926.001-16.352.001-1.877-3.963-2.065-4.791-4.383-7.292" transform="matrix(1.3333333 0 0 -1.3333333 381.914 139.89107)"/><path clip-path="url(#n)" d="m0 0c10.37-4.45 16.607-16.768 20.014-33.744.63-3.188.783-4.313 1.098-7.905-2.244-.01-3.126-.025-5.315-.012-.478 2.417-.823 3.693-1.879 7.123-4.185 13.268-16.511 18.593-15.955 6.171.185-3.43 1.631-5.345 3.241-7.184-1.99.496-6.215 2.471-9.641 4.418-19.074 11.495-11.563 39.662 8.437 31.133" transform="matrix(1.3333333 0 0 -1.3333333 361.5872 65.494)"/><path clip-path="url(#o)" d="m0 0c-7.326-12.081-8.2-21.745-3.2-38.431 2.407-7.787 5.052-19.416 6.163-25.72 1.481-8.899 1.326-9.745 1.534-11.68 1.852 0 6.06-.007 8.006.004.279 3.081.506 6.638 1.163 11.528.766 5.702 3.037 17.628 5.48 25.911 4.883 16.552 4.557 26.707-3.036 38.202-2.777 4.265-6.481 7.788-8.148 7.788-1.666 0-5.437-3.256-7.962-7.602" transform="matrix(1.3333333 0 0 -1.3333333 641.98827 19.059067)"/><path clip-path="url(#p)" d="m0 0c-10.37-4.45-16.607-16.768-20.015-33.744-.629-3.188-.782-4.313-1.097-7.905 2.244-.01 3.127-.025 5.314-.012.48 2.417.824 3.693 1.88 7.123 4.185 13.268 16.511 18.593 15.955 6.171-.185-3.43-1.631-5.345-3.24-7.184 1.989.496 6.214 2.471 9.64 4.418 19.074 11.495 11.563 39.662-8.437 31.133" transform="matrix(1.3333333 0 0 -1.3333333 689.95707 64.634667)"/><path clip-path="url(#q)" d="m0 0c8.369-.038 22.834-.104 29.781-.067.008 1.787.034.875.051 2.319-5.114.042-24.7-.028-29.792-.028.012-.934-.012-1.386-.04-2.224" transform="matrix(1.3333333 0 0 -1.3333333 633.45707 125.94053)"/><path clip-path="url(#r)" d="m0 0c-3.017-3.256-7.729-5.69-7.729-5.69s4.168-.469 8.057-.185c3.888.284 6.045.77 8.343 1.887-.624-4.638-.66-9.118-.66-9.118.565-5.97 1.206-7.498 2.499-10.403 1.754-2.424 2.774-2.437 4.063.122 1.394 2.866 2.312 5.813 2.603 10.309-.102 3.369-.289 4.913-1.086 9.032 2.689-1.165 4.389-1.468 8.402-1.829 4.107-.371 7.882-.189 7.882-.189s-5.548 2.788-7.989 6.206c-2.41 3.375-1.897 2.801-3.65 7.148-2.129.101-12.926.002-16.352.002-1.876-3.963-2.065-4.791-4.382-7.292z" transform="matrix(1.3333333 0 0 -1.3333333 636.73827 139.02333)"/><path clip-path="url(#s)" d="m0 0c10.37-4.45 16.607-16.768 20.015-33.744.629-3.187.782-4.313 1.097-7.905-2.244-.009-3.126-.025-5.314-.012-.479 2.417-.824 3.693-1.88 7.124-4.185 13.267-16.51 18.592-15.955 6.17.185-3.43 1.632-5.345 3.241-7.184-1.99.497-6.215 2.471-9.641 4.418-19.074 11.495-11.562 39.662 8.437 31.133z" transform="matrix(1.3333333 0 0 -1.3333333 616.41147 64.6268)"/></g><g fill="#008000"><path clip-path="url(#t)" d="m0 0c5.371-7.973 11.481-13.72 23.333-21.693 8.704-5.932 16.296-10.568 16.667-10.197.74.927-42.592 41.16-45.555 42.272-1.112.371 1.296-4.264 5.555-10.382" transform="matrix(1.3333333 0 0 -1.3333333 140.11587 227.8124)"/><path clip-path="url(#u)" d="m0 0c4.021-1.877 9.154-3.355 11.743-3.442 3.06-.104 2.248.649-3.463 2.873-4.47 1.747-9.816 4.684-12.189 6.506-4.255 3.48-4.255 3.48-3.809.417.255-1.75 3.462-4.469 7.718-6.354" transform="matrix(1.3333333 0 0 -1.3333333 288.76827 284.41387)"/><path clip-path="url(#v)" d="m0 0c2.593-10.383 13.333-29.479 17.037-30.222 3.333-.555 3.333-.37.555 2.782-4.629 5.377-14.629 25.03-14.629 28.738 0 2.039-.926 3.522-2.037 3.522-1.296 0-1.667-1.854-.926-4.82" transform="matrix(1.3333333 0 0 -1.3333333 255.4212 236.18213)"/><path clip-path="url(#w)" d="m0 0c-.064-.365 3.412-3.05 7.768-6.078 4.355-3.028 9.43-7.313 11.114-9.493 2.887-3.898 19.236-13.562 20.77-12.326 1.502 1.052-19.558 18.137-28.463 23.098-10.599 6.013-10.964 6.077-11.189 4.799" transform="matrix(1.3333333 0 0 -1.3333333 107.01173 218.824)"/><path clip-path="url(#x)" d="m0 0c0-.371 3.889-2.41 8.704-4.635s10.555-5.562 12.592-7.416c3.518-3.338 21.296-10.012 22.592-8.529 1.296 1.298-22.407 14.462-32.036 17.799-11.481 4.079-11.852 4.079-11.852 2.781" transform="matrix(1.3333333 0 0 -1.3333333 114.96613 237.84227)"/><path clip-path="url(#y)" d="m0 0c7.037-12.979 14.259-21.507 17.222-20.58 1.481.557-1.852 5.933-9.074 14.647-6.481 7.601-12.037 14.276-12.592 14.832-.556.557 1.481-3.522 4.444-8.899" transform="matrix(1.3333333 0 0 -1.3333333 225.0872 246.56493)"/><path clip-path="url(#z)" d="m0 0c0-2.039 7.222-16.13 11.481-22.063 2.408-3.337 5.185-5.192 8.333-5.192 4.63 0 4.63 0-2.407 7.973-4.074 4.264-9.444 10.754-12.222 14.276-2.778 3.523-5.185 5.748-5.185 5.006" transform="matrix(1.3333333 0 0 -1.3333333 237.22133 239.82013)"/><path clip-path="url(#A)" d="m0 0c0-2.781 13.537-21.321 15.634-21.321.953 0-1.335 4.449-5.339 9.826-8.961 12.237-10.295 13.535-10.295 11.495" transform="matrix(1.3333333 0 0 -1.3333333 214.52013 247.80187)"/><path clip-path="url(#B)" d="m0 0c-12.222-4.821-14.814-6.489-14.814-9.085 0-1.112 1.296-.928 3.333.741 1.667 1.669 7.777 3.894 13.333 5.192 5.555 1.298 12.222 3.522 14.814 4.82l4.63 2.41h-5.556c-2.963-.184-10.185-2.039-15.74-4.078" transform="matrix(1.3333333 0 0 -1.3333333 197.46947 315.92307)"/><path clip-path="url(#C)" d="m0 0c9.131-8.313 39.671-24.019 55.145-28.639 4.193-1.234 10.996-1.517 14.84-.709l7.167 1.428-7.073 3.736c-11.409 5.906-30.144 18.413-36.871 24.447-7.327 6.603-7.088 4.322.366-4.799 2.912-3.675 11.521-10.008 19.069-13.966 7.61-4.132 12.928-7.916 12.058-8.233-2.263-.825-23.15 11.097-39.037 22.275-17.265 12.256-17.977 12.588-11.551 4.67 3.149-3.785 8.973-8.963 13.198-11.369 4.114-2.645 6.931-4.972 6.061-5.289-1.74-.635-12.564 5.287-26.695 14.344-3.94 2.707-9.304 6.079-11.631 7.599-2.563 1.63-.268-.887 4.954-5.495z" transform="matrix(1.3333333 0 0 -1.3333333 151.1972 273.92947)"/><path clip-path="url(#D)" d="m0 0-7.407-2.41 5.555-.928c2.963-.741 6.852-.37 8.704.557 1.667.927 5 1.669 7.407 1.854 4.074 0 4.074.185.555 1.668-4.629 2.04-5.74 2.04-14.814-.741" transform="matrix(1.3333333 0 0 -1.3333333 152.99027 270.47253)"/><path clip-path="url(#E)" d="m0 0c-3.148-2.41-2.963-2.596 3.889-1.483 4.073.555 9.999 1.669 12.962 2.41 4.815 1.298 4.444 1.483-3.889 1.669-5.555.185-10.74-.928-12.962-2.596" transform="matrix(1.3333333 0 0 -1.3333333 165.16013 277.18213)"/><path clip-path="url(#F)" d="m0 0c30.555-5.562 91.85-26.142 88.146-29.666-.925-.926-18.147 3.338-20.555 5.006-.925.928-10 .557-19.999-.741-18.703-2.039-21.852-3.708-21.481-11.309.185-3.708.185-3.708 1.111 0 1.667 6.86 4.444 8.342 15 8.342 11.481 0 42.962-4.634 56.85-8.342 18.518-5.192 19.074-5.192 12.963-1.855-7.963 4.45-20 12.607-22.222 15.019-4.074 4.634-77.961 25.029-88.702 24.658-5-.371-5.185-.371-1.111-1.112" transform="matrix(1.3333333 0 0 -1.3333333 103.8196 251.19053)"/><path clip-path="url(#G)" d="m0 0c-2.222-1.669-4.629-5.562-5.185-8.714-1.111-5.377-1.111-5.377 1.852-1.854 7.777 9.826 8.333 10.197 17.962 10.382 7.778.186 8.889.557 5.185 1.669-7.777 2.411-15.555 1.854-19.814-1.483" transform="matrix(1.3333333 0 0 -1.3333333 122.55013 264.36307)"/><path clip-path="url(#H)" d="m0 0c1.481-2.596 15.926-9.826 17.037-8.714.555.557-1.111 2.04-3.333 3.338-2.408 1.298-5.556 3.337-6.852 4.82-2.963 2.782-8.519 3.337-6.852.556" transform="matrix(1.3333333 0 0 -1.3333333 248.40293 279.6196)"/><path clip-path="url(#I)" d="m0 0c1.481-2.595 15.925-9.826 17.037-8.714.555.557-1.112 2.04-3.334 3.338-2.407 1.298-5.555 3.337-6.851 4.82-2.963 2.782-8.519 3.337-6.852.557z" transform="matrix(1.3333333 0 0 -1.3333333 249.88867 303.10667)"/><path clip-path="url(#J)" d="m0 0c.267.258 4.433-1.127 9.376-3.049s11.329-3.738 14.076-3.917c4.842-.216 21.986-8.383 21.821-10.346-.032-1.835-25.955 6.091-35.042 10.708-10.906 5.436-11.163 5.703-10.231 6.604" transform="matrix(1.3333333 0 0 -1.3333333 222.28453 273.67173)"/><path clip-path="url(#K)" d="m0 0c-3.455-1.337-6.929-3.755-8.008-5.484-1.276-2.044-.196-2.064 4.259.177 3.495 1.749 8.539 3.185 11.307 3.42 5.182.257 5.182.257 1.884 2.32-1.885 1.179-5.889 1.06-9.442-.433" transform="matrix(1.3333333 0 0 -1.3333333 263.18093 291.73813)"/><path clip-path="url(#L)" d="m0 0c-10.554-9.477-12.888-16.084-9.508-25.901l2.923-8.407-.813 8.508c-1.259 11.677 1.885 16.988 14.663 26.214 6.006 4.293 10.778 8.186 10.664 8.538-.63 1.94-12.562-3.891-17.929-8.952" transform="matrix(1.3333333 0 0 -1.3333333 234.7468 309.48027)"/><path clip-path="url(#M)" d="m0 0c5.741-10.939 29.073-36.154 42.036-45.795 3.518-2.596 9.815-5.191 13.703-5.748l7.222-1.112-5.37 5.932c-8.703 9.456-22.036 27.626-26.296 35.599-4.629 8.714-5.185 6.489-1.296-4.635 1.481-4.45 7.407-13.349 13.148-19.654 5.741-6.489 9.444-11.865 8.519-11.865-2.408 0-17.963 18.355-29.074 34.299-12.037 17.429-12.592 17.985-9.259 8.344 1.667-4.635 5.37-11.495 8.518-15.203 2.963-3.894 4.815-7.046 3.889-7.046-1.852 0-10 9.271-20.185 22.62-2.777 3.893-6.666 8.899-8.333 11.124-1.852 2.411-.555-.741 2.778-6.86" transform="matrix(1.3333333 0 0 -1.3333333 147.6296 208.42427)"/><path clip-path="url(#N)" d="m0 0c0-1.298 2.778-4.636 6.111-7.231 9.814-7.416 35.925-19.838 39.258-18.54 2.037.741-1.111 2.781-9.999 6.118-15.556 6.118-29.815 14.276-29.815 17.057 0 1.484 6.112 1.668 21.296.742 22.777-1.298 29.629 1.297 8.889 3.152-21.851 2.224-35.74 1.668-35.74-1.298" transform="matrix(1.3333333 0 0 -1.3333333 227.27413 277.64173)"/><path clip-path="url(#O)" d="m0 0c-7.963-1.854-12.222-4.635-12.222-7.973 0-1.298.741-1.112 1.666.371 1.482 2.411 16.667 6.861 18.148 5.377.37-.371-.185-3.152-1.296-5.932-1.111-2.781-1.482-5.563-.926-6.119.556-.742 1.482.742 2.037 2.781 2.222 7.973 9.074 10.383 25.555 8.899 8.333-.741 17.592-1.669 20.555-1.853 3.148-.186 7.407-1.298 9.629-2.596 4.815-2.596 23.519-2.781 21.852-.185-.556.926-4.074 2.224-7.963 2.781-3.703.555-11.481 2.41-17.222 3.893-11.481 2.966-48.147 3.337-59.813.556" transform="matrix(1.3333333 0 0 -1.3333333 162.09053 304.0936)"/><path clip-path="url(#P)" d="m0 0c-13.957 2.492-20.594.266-26.239-8.445l-4.818-7.482 6.196 5.88c8.416 8.182 14.532 8.972 29.659 4.57 7.077-2.095 13.078-3.464 13.286-3.157 1.139 1.691-10.797 7.515-18.084 8.634" transform="matrix(1.3333333 0 0 -1.3333333 252.2532 332.6288)"/><path clip-path="url(#Q)" d="m0 0c-25.74-7.045-28.703-9.641-24.999-21.321 1.481-4.45 1.481-4.265 1.666 1.483.186 3.151 1.852 7.602 3.704 9.455 3.333 3.338 18.333 7.603 36.666 10.569 4.444.556 7.407 1.854 6.852 2.781-1.482 2.41-7.408 1.669-23.889-2.967" transform="matrix(1.3333333 0 0 -1.3333333 228.15693 325.742)"/><path clip-path="url(#R)" d="m0 0c-12.963-5.747-17.222-11.31-17.037-21.692l.185-8.9 1.852 8.344c2.408 11.495 7.037 15.574 22.037 20.394 7.037 2.225 12.777 4.45 12.777 4.821 0 2.04-13.147.185-19.814-2.967" transform="matrix(1.3333333 0 0 -1.3333333 257.32613 337.82013)"/><path clip-path="url(#S)" d="m0 0c-2.222-2.967-3.889-6.86-3.889-8.899 0-2.412.926-1.855 3.519 2.41 2.037 3.337 5.555 7.23 7.777 8.899 4.26 2.966 4.26 2.966.371 2.966-2.222 0-5.556-2.225-7.778-5.376" transform="matrix(1.3333333 0 0 -1.3333333 254.0456 359.0428)"/><path clip-path="url(#T)" d="m0 0c6.014-2.609 37.212-10.486 59.286-16.959 22.073-6.472 47.883-13.923 53.596-14.726 8.165 17.82-6.695-15.51 1.785 4.69-11.024 2.809-54.479 13.046-71.918 18.063-15.033 4.215-36.36 10.789-41.822 11.994-5.462 1.204-5.537-1.055-.927-3.062" transform="matrix(1.3333333 0 0 -1.3333333 520.99347 399.3292)"/><path clip-path="url(#U)" d="m0 0c6.101-2.397 37.555-9.18 59.841-14.877s48.339-12.242 54.076-12.845c7.54 18.094-6.149-15.734 1.622 4.75-11.116 2.422-54.901 11.135-72.504 15.539-15.172 3.687-36.715 9.512-42.215 10.525-5.501 1.012-5.497-1.247-.82-3.092" transform="matrix(1.3333333 0 0 -1.3333333 526.07947 393.16133)"/><path clip-path="url(#V)" d="m0 0c5.868-2.921 36.612-12.422 58.317-20.042 21.706-7.62 47.09-16.413 52.753-17.515 9.086 17.368-7.496-15.138 2.029 4.59-10.863 3.384-53.723 15.883-70.875 21.808-14.793 4.996-35.746 12.679-41.139 14.168-5.392 1.488-5.584-.764-1.085-3.009" transform="matrix(1.3333333 0 0 -1.3333333 514.56387 403.81107)"/><path clip-path="url(#W)" d="m0 0c5.708-3.224 35.913-14.323 57.19-23.07 21.278-8.747 46.167-18.859 51.765-20.255 9.982 16.867-8.277-14.725 2.266 4.477-10.671 3.949-52.819 18.677-69.638 25.492-14.512 5.764-35.035 14.535-40.342 16.303-5.306 1.77-5.616-.468-1.241-2.947" transform="matrix(1.3333333 0 0 -1.3333333 509.57027 408.8736)"/><path clip-path="url(#X)" d="m0 0c5.592-3.422 35.392-15.57 56.351-25.055 20.96-9.485 45.481-20.46 51.027-22.051 10.563 16.508-8.785-14.426 2.421 4.395-10.528 4.318-52.136 20.511-68.707 27.909-14.302 6.269-34.507 15.75-39.749 17.704-5.241 1.953-5.63-.273-1.343-2.902" transform="matrix(1.3333333 0 0 -1.3333333 504.86853 415.24987)"/><path clip-path="url(#Y)" d="m0 0c5.406-3.71 34.529-17.403 54.965-27.974 20.434-10.57 44.349-22.814 49.805-24.694 11.411 15.932-9.529-13.946 2.646 4.263-10.286 4.864-50.992 23.214-67.154 31.47-13.954 7.009-33.636 17.538-38.769 19.763-5.132 2.226-5.636.023-1.493-2.828" transform="matrix(1.3333333 0 0 -1.3333333 499.55987 421.06107)"/></g><path clip-path="url(#Z)" d="m0 0 5.998-4.288c8.598-5.997 13.326-14.332 12.858-22.934l-.318-7.104 2.822 6.989c3.088 7.315 2.663 18.391-.984 26.594l-2.127 4.783 6.757-2.945c9.654-4.077 16.012-11.244 17.34-19.758l1.164-7.016 1.309 7.427c1.5 7.799-1.214 18.54-6.486 25.804l-3.074 4.238 7.22-1.475c10.292-1.977 17.998-7.666 21.065-15.717l2.596-6.62-.263 7.538c-.15 7.939-5.037 17.881-11.702 23.89l-3.888 3.505 7.37.06c10.476.207 19.196-3.752 23.868-10.992l3.913-5.932-1.822 7.317c-1.796 7.732-8.639 16.441-16.406 20.931l-4.531 2.62 7.197 1.591c10.203 2.387 19.555.326 25.627-5.78l5.06-4.99-3.302 6.779c-3.363 7.19-11.865 14.286-20.395 17.06l-4.976 1.615 6.709 3.057c9.484 4.457 19.059 4.389 26.267-.318l5.987-3.829-4.636 5.944c-4.783 6.335-14.574 11.503-23.493 12.44l-5.202.546 5.927 4.387c8.353 6.332 17.732 8.263 25.76 5.156l6.65-2.497-5.768 4.847c-5.994 5.199-16.644 8.219-25.564 7.278l-5.201-.546 4.886 5.525c6.855 7.932 15.63 11.771 24.127 10.403l7.023-1.057-6.65 3.539c-6.942 3.838-17.986 4.574-26.516 1.799l-4.975-1.616 3.632 6.418c5.057 9.188 12.842 14.769 21.438 15.202l7.09.426-7.24 2.077c-7.588 2.31-18.543.729-26.31-3.759l-4.531-2.619 2.221 7.036c3.04 10.039 9.496 17.117 17.815 19.33l6.847 1.893-7.514.525c-7.902.681-18.29-3.143-24.954-9.152l-3.888-3.505.711 7.344c.888 10.454 5.733 18.721 13.411 22.619l6.304 3.274-7.459-1.048c-7.87-.98-17.236-6.884-22.507-14.148l-3.075-4.239-.829 7.332c-1.302 10.408 1.719 19.507 8.42 24.914l5.484 4.517-7.077-2.578c-7.495-2.597-15.429-10.322-19.077-18.525l-2.127-4.787-2.335 7c-3.436 9.911-2.368 19.438 3.063 26.122l4.428 5.56-6.388-3.994c-6.792-4.1-12.949-13.308-14.814-22.09l-1.087-5.125-3.736 6.359c-5.419 8.982-6.354 18.52-2.43 26.191l3.177 6.359-5.419-5.236c-5.792-5.426-9.902-15.716-9.902-24.694v-5.237l-4.976 5.443c-7.163 7.653-10.058 16.793-7.814 25.111l1.785 6.884-4.212-6.253c-4.539-6.51-6.423-17.43-4.558-26.216l1.086-5.122-5.997 4.289c-8.598 5.997-13.326 14.332-12.858 22.937l.316 7.104-2.822-6.993c-3.086-7.315-2.661-18.387.985-26.59l2.127-4.786-6.756 2.946c-9.656 4.076-16.013 11.244-17.341 19.757l-1.164 7.015-1.308-7.426c-1.5-7.796 1.213-18.54 6.486-25.804l3.074-4.237-7.221 1.476c-10.29 1.977-17.996 7.664-21.064 15.717l-2.596 6.619.263-7.536c.15-7.94 5.038-17.883 11.702-23.89l3.887-3.505-7.369-.06c-10.476-.208-19.196 3.752-23.868 10.988l-3.913 5.934 1.821-7.315c1.797-7.735 8.641-16.444 16.408-20.935l4.529-2.619-7.195-1.59c-10.204-2.384-19.556-.328-25.628 5.779l-5.06 4.99 3.301-6.778c3.364-7.192 11.867-14.283 20.396-17.058l4.976-1.619-6.709-3.056c-9.485-4.458-19.06-4.388-26.268.32l-5.987 3.828 4.637-5.943c4.783-6.334 14.573-11.502 23.493-12.44l5.202-.549-5.928-4.385c-8.353-6.334-17.732-8.26-25.76-5.155l-6.651 2.496 5.769-4.846c5.994-5.202 16.644-8.218 25.564-7.28l5.202.546-4.887-5.521c-6.855-7.936-15.63-11.772-24.127-10.407l-7.023 1.06 6.65-3.542c6.943-3.839 17.987-4.573 26.517-1.799l4.975 1.618-3.633-6.421c-5.057-9.186-12.843-14.768-21.438-15.2l-7.09-.424 7.24-2.08c7.588-2.309 18.543-.728 26.31 3.76l4.531 2.62-2.22-7.036c-3.04-10.041-9.495-17.12-17.814-19.332l-6.847-1.893 7.514-.526c7.902-.679 18.289 3.148 24.953 9.155l3.888 3.506-.712-7.347c-.887-10.452-5.732-18.72-13.41-22.616l-6.303-3.277 7.458 1.048c7.871.979 17.236 6.888 22.507 14.151l3.075 4.237.83-7.333c1.302-10.409-1.72-19.503-8.42-24.914l-5.487-4.516 7.079 2.578c7.494 2.596 15.429 10.324 19.077 18.525l2.127 4.785 2.334-6.997c3.436-9.913 2.368-19.437-3.063-26.124l-4.428-5.56 6.388 3.996c6.791 4.099 12.949 13.309 14.814 22.092l1.087 5.122 3.737-6.361c5.418-8.979 6.352-18.519 2.429-26.189l-3.177-6.36 5.419 5.239c5.792 5.422 9.903 15.712 9.903 24.691v5.239l4.975-5.445c7.163-7.654 10.058-16.793 7.815-25.111l-1.787-6.883 4.212 6.253c4.539 6.512 6.423 17.43 4.559 26.214l-1.087 5.122" fill="#fcdd09" transform="matrix(1.3333333 0 0 -1.3333333 413.57947 473.61307)"/></svg>