<?xml version="1.0" encoding="UTF-8" standalone="no"?>
<svg
   width="96"
   height="96"
   version="1.1"
   id="svg2294"
   xmlns="http://www.w3.org/2000/svg"
   xmlns:svg="http://www.w3.org/2000/svg">
  <defs
     id="defs2298">
    <linearGradient
       id="linearGradient4662">
      <stop
         style="stop-color:#ffcc00;stop-opacity:1;"
         offset="0"
         id="stop4660" />
    </linearGradient>
  </defs>
  <path
     fill="#c13"
     d="M 0,0 H 96 V 96 H 0 Z"
     id="path2290"
     style="fill:#004499;fill-opacity:1" />
  <path
     fill="#ffffff"
     d="M 0,32 H 96 V 64 H 0 Z"
     id="path2292" />
  <g
     id="g4672"
     style="fill:#ffaa00;fill-opacity:1">
    <path
       id="text4392"
       style="font-style:normal;font-variant:normal;font-weight:normal;font-stretch:normal;font-size:16px;font-family:Urbanist;-inkscape-font-specification:'Urbanist, @wght=900';font-variant-ligatures:normal;font-variant-caps:normal;font-variant-numeric:normal;font-variant-east-asian:normal;font-variation-settings:'wght' 900;text-align:center;text-anchor:middle;fill:#ffaa00;fill-opacity:1;stroke-width:0;stroke-linecap:square"
       d="m 24.515625,34.591797 c -0.757333,0 -1.4681,0.153031 -2.134766,0.457031 -0.666666,0.298666 -1.255052,0.714714 -1.761718,1.248047 -0.506667,0.533333 -0.903407,1.151469 -1.191407,1.855469 -0.287999,0.698666 -0.43164,1.448047 -0.43164,2.248047 0,0.799999 0.143641,1.55186 0.43164,2.255859 0.288,0.698666 0.68474,1.314323 1.191407,1.847656 0.506666,0.533333 1.095052,0.95186 1.761718,1.25586 0.666666,0.298666 1.377433,0.447265 2.134766,0.447265 0.762666,0 1.477865,-0.148599 2.144531,-0.447265 0.666666,-0.304 1.2531,-0.722527 1.759766,-1.25586 0.506666,-0.533333 0.900927,-1.14899 1.183594,-1.847656 0.287999,-0.703999 0.43164,-1.45586 0.43164,-2.255859 0,-0.8 -0.143641,-1.549381 -0.43164,-2.248047 -0.282667,-0.704 -0.676928,-1.322136 -1.183594,-1.855469 -0.506666,-0.533333 -1.0931,-0.949381 -1.759766,-1.248047 -0.666666,-0.304 -1.381865,-0.457031 -2.144531,-0.457031 z m 51.511719,0 c -0.757333,0 -1.4681,0.153031 -2.134766,0.457031 -0.666666,0.298666 -1.253099,0.714714 -1.759766,1.248047 -0.506666,0.533333 -0.905359,1.151469 -1.193359,1.855469 -0.288,0.698666 -0.431641,1.448047 -0.431641,2.248047 10e-7,0.799999 0.143641,1.55186 0.431641,2.255859 0.288,0.698666 0.686693,1.314323 1.193359,1.847656 0.506667,0.533333 1.0931,0.95186 1.759766,1.25586 0.666666,0.298666 1.377433,0.447265 2.134766,0.447265 0.762666,0 1.477865,-0.148599 2.144531,-0.447265 0.666666,-0.304 1.253099,-0.722527 1.759766,-1.25586 0.506666,-0.533333 0.900927,-1.14899 1.183593,-1.847656 0.288,-0.703999 0.433594,-1.45586 0.433594,-2.255859 0,-0.8 -0.145594,-1.549381 -0.433594,-2.248047 -0.282666,-0.704 -0.676927,-1.322136 -1.183593,-1.855469 -0.506667,-0.533333 -1.0931,-0.949381 -1.759766,-1.248047 -0.666666,-0.304 -1.381865,-0.457031 -2.144531,-0.457031 z m -41.160156,0.103515 c -0.618667,0 -1.195709,0.136204 -1.734376,0.408204 -0.533332,0.271999 -0.963729,0.648906 -1.289062,1.128906 -0.325333,0.479999 -0.488281,1.03225 -0.488281,1.65625 0,0.549333 0.150552,1.06049 0.449219,1.535156 0.298666,0.474666 0.741458,0.883277 1.328124,1.22461 0.586667,0.341332 1.311783,0.589474 2.175782,0.74414 0.346666,0.05867 0.66813,0.212224 0.966797,0.462891 0.298666,0.245333 0.449218,0.534568 0.449218,0.865234 0,0.224 -0.07528,0.416172 -0.224609,0.576172 -0.149333,0.16 -0.339026,0.281854 -0.568359,0.367187 -0.224,0.08533 -0.452834,0.128907 -0.6875,0.128907 -0.304,0 -0.613068,-0.07032 -0.927735,-0.208985 -0.309333,-0.138666 -0.586698,-0.301614 -0.832031,-0.488281 -0.24,-0.186666 -0.407906,-0.349615 -0.503906,-0.488281 l -1.984375,1.361328 c 0.287999,0.421333 0.669865,0.801245 1.144531,1.142578 0.474666,0.336 0.985823,0.603448 1.535156,0.800781 0.549333,0.197334 1.077318,0.294922 1.583985,0.294922 0.693332,0 1.330776,-0.148599 1.912109,-0.447265 0.586666,-0.298667 1.056203,-0.712235 1.408203,-1.240235 0.357333,-0.527999 0.535156,-1.13374 0.535156,-1.816406 0,-0.751999 -0.192172,-1.370136 -0.576172,-1.855469 -0.383999,-0.490666 -0.897636,-0.889885 -1.542968,-1.199218 -0.645333,-0.309334 -1.360532,-0.562433 -2.144532,-0.759766 -0.170666,-0.04267 -0.341052,-0.110505 -0.511718,-0.201172 -0.165333,-0.096 -0.304016,-0.210417 -0.416016,-0.34375 -0.112,-0.138667 -0.167969,-0.289745 -0.167969,-0.455078 0,-0.16 0.05597,-0.298683 0.167969,-0.416016 0.117333,-0.117333 0.260974,-0.206958 0.431641,-0.265625 0.170666,-0.064 0.338573,-0.0957 0.503906,-0.0957 0.224,0 0.47462,0.05845 0.751953,0.175781 0.282667,0.112 0.486709,0.306652 0.609375,0.583985 l 2.183594,-1.023438 c -0.176,-0.389333 -0.43849,-0.746932 -0.785156,-1.072265 -0.346667,-0.325333 -0.753324,-0.58587 -1.222657,-0.783203 -0.469332,-0.197334 -0.979964,-0.296876 -1.529296,-0.296876 z M 4.1640625,34.800781 V 46 h 3.7128906 c 0.7733326,0 1.4959694,-0.143641 2.1679689,-0.431641 0.677333,-0.293333 1.271204,-0.696985 1.783203,-1.208984 0.517333,-0.517333 0.919032,-1.111204 1.207031,-1.783203 0.293333,-0.677333 0.441406,-1.402449 0.441406,-2.175781 0,-0.773333 -0.148073,-1.49597 -0.441406,-2.167969 -0.287999,-0.677333 -0.689698,-1.273157 -1.207031,-1.785156 -0.511999,-0.517333 -1.10587,-0.919032 -1.783203,-1.207032 C 9.3729225,34.946901 8.6502857,34.800781 7.8769531,34.800781 Z m 10.7519535,0 V 46 h 2.40039 V 34.800781 Z m 29.480468,0 v 6.527344 c 0,0.901332 0.192173,1.723511 0.576172,2.464844 0.389333,0.735999 0.924756,1.322432 1.607422,1.759765 0.687999,0.437333 1.479001,0.654297 2.375,0.654297 0.671999,0 1.287131,-0.124333 1.841797,-0.375 0.554666,-0.250666 1.03412,-0.600828 1.439453,-1.048828 0.405333,-0.447999 0.716881,-0.964115 0.935547,-1.550781 C 53.390541,42.640422 53.5,42.005458 53.5,41.328125 v -6.527344 h -2.400391 v 6.527344 c 0,0.458666 -0.08271,0.877193 -0.248047,1.255859 -0.165333,0.373333 -0.408515,0.672485 -0.728515,0.896485 -0.32,0.218666 -0.709303,0.328125 -1.167969,0.328125 -0.453333,0 -0.842636,-0.111938 -1.167969,-0.335938 -0.319999,-0.224 -0.563708,-0.523151 -0.734375,-0.896484 -0.170666,-0.378666 -0.255859,-0.794714 -0.255859,-1.248047 v -6.527344 z m 10.783204,0 V 46 h 2.40039 V 39.136719 L 61.675781,46 h 2.591797 V 34.800781 h -2.40039 v 6.863281 l -4.095704,-6.863281 z m 11.248046,0 V 46 h 2.400391 V 34.800781 Z m 16.320313,0 V 46 h 2.400391 V 39.136719 L 89.244141,46 h 2.591797 V 34.800781 h -2.400391 v 6.863281 l -4.095703,-6.863281 z m -58.232422,2.191407 c 0.426666,-10e-7 0.827839,0.09015 1.201172,0.271484 0.378666,0.176 0.712,0.421662 1,0.736328 0.288,0.309333 0.511875,0.669412 0.671875,1.080078 0.165333,0.410666 0.248047,0.85098 0.248047,1.320313 0,0.469332 -0.08271,0.909646 -0.248047,1.320312 -0.16,0.410666 -0.383875,0.773224 -0.671875,1.087891 -0.288,0.309333 -0.621334,0.554995 -1,0.736328 -0.373333,0.176 -0.774506,0.263672 -1.201172,0.263672 -0.426666,0 -0.828365,-0.08767 -1.207031,-0.263672 -0.373333,-0.181333 -0.704188,-0.426995 -0.992188,-0.736328 -0.287999,-0.314667 -0.514354,-0.677225 -0.679687,-1.087891 -0.16,-0.410666 -0.240235,-0.85098 -0.240235,-1.320312 0,-0.469333 0.08023,-0.909647 0.240235,-1.320313 0.165333,-0.410666 0.391688,-0.770745 0.679687,-1.080078 0.288,-0.314666 0.618855,-0.560328 0.992188,-0.736328 0.378666,-0.181333 0.780365,-0.271484 1.207031,-0.271484 z m 51.511719,0 c 0.426666,-10e-7 0.827839,0.09015 1.201172,0.271484 0.378666,0.176 0.712,0.421662 1,0.736328 0.287999,0.309333 0.511875,0.669412 0.671875,1.080078 0.165333,0.410666 0.248047,0.85098 0.248047,1.320313 -10e-7,0.469332 -0.08271,0.909646 -0.248047,1.320312 -0.16,0.410666 -0.383876,0.773224 -0.671875,1.087891 -0.288,0.309333 -0.621334,0.554995 -1,0.736328 -0.373333,0.176 -0.774506,0.263672 -1.201172,0.263672 -0.426666,0 -0.828365,-0.08767 -1.207032,-0.263672 -0.373332,-0.181333 -0.704187,-0.426995 -0.992187,-0.736328 -0.288,-0.314667 -0.514354,-0.677225 -0.679687,-1.087891 -0.16,-0.410666 -0.240235,-0.85098 -0.240235,-1.320312 0,-0.469333 0.08024,-0.909647 0.240235,-1.320313 0.165333,-0.410666 0.391687,-0.770745 0.679687,-1.080078 0.288,-0.314666 0.618855,-0.560328 0.992187,-0.736328 0.378667,-0.181333 0.780366,-0.271484 1.207032,-0.271484 z M 6.5644531,37.199219 h 1.3125 c 0.4373329,0 0.8464692,0.08271 1.2304688,0.248047 0.3839996,0.165333 0.7242451,0.398599 1.0175781,0.697265 0.298666,0.293333 0.529979,0.631626 0.695312,1.015625 0.170667,0.384 0.25586,0.797568 0.25586,1.240235 0,0.442666 -0.08519,0.858714 -0.25586,1.248047 -0.165333,0.383999 -0.396646,0.722291 -0.695312,1.015624 -0.2986664,0.293334 -0.641391,0.522167 -1.0253906,0.6875 -0.3839996,0.165334 -0.7906567,0.248047 -1.2226563,0.248047 h -1.3125 z M 12.136719,49.800781 V 61 h 6.798828 v -2.400391 h -4.400391 v -8.798828 z m 8.798828,0 V 61 h 2.400391 V 49.800781 Z m 4.560547,0 V 61 h 4.847656 c 0.591999,0 1.127422,-0.143641 1.607422,-0.431641 0.485333,-0.287999 0.872156,-0.674823 1.160156,-1.160156 0.288,-0.485333 0.433594,-1.020756 0.433594,-1.607422 0,-0.698666 -0.201563,-1.323714 -0.601563,-1.873047 -0.399999,-0.549332 -0.911156,-0.931198 -1.535156,-1.144531 0.421333,-0.224 0.762105,-0.542985 1.023438,-0.958984 0.261333,-0.416 0.392578,-0.8781 0.392578,-1.384766 0,-0.485333 -0.119375,-0.928125 -0.359375,-1.328125 -0.234667,-0.399999 -0.553126,-0.716505 -0.953125,-0.951172 -0.4,-0.24 -0.842792,-0.359375 -1.328125,-0.359375 z m 9.248047,0 V 61 h 7.136718 v -2.400391 h -4.736328 v -2.40039 h 3.646485 v -2.398438 h -3.646485 v -1.601562 h 4.736328 v -2.398438 z m 8.896484,0 V 61 h 2.398437 v -4.351562 h 0.832032 L 49.400391,61 h 2.767578 l -2.65625,-4.576172 c 0.399999,-0.192 0.747682,-0.445099 1.041015,-0.759766 0.298667,-0.319999 0.527501,-0.685036 0.6875,-1.095703 0.16,-0.415999 0.240235,-0.86375 0.240235,-1.34375 0,-0.623999 -0.148073,-1.195557 -0.441407,-1.71289 -0.287999,-0.522666 -0.679781,-0.938714 -1.175781,-1.248047 -0.495999,-0.309333 -1.05073,-0.462891 -1.664062,-0.462891 z m 9.806641,0 V 61 h 3.71289 c 0.773333,0 1.49597,-0.143641 2.167969,-0.431641 0.677333,-0.293333 1.271204,-0.696985 1.783203,-1.208984 0.517333,-0.517333 0.920985,-1.111204 1.208984,-1.783203 0.293334,-0.677333 0.439454,-1.402449 0.439454,-2.175781 0,-0.773333 -0.14612,-1.49597 -0.439454,-2.167969 -0.287999,-0.677333 -0.691651,-1.273157 -1.208984,-1.785156 -0.511999,-0.517333 -1.10587,-0.919032 -1.783203,-1.207032 -0.671999,-0.293333 -1.394636,-0.439453 -2.167969,-0.439453 z m 13.537109,0 L 62.919922,61 h 2.544922 l 0.638672,-1.759766 h 4.464843 L 71.207031,61 h 2.544922 L 69.6875,49.800781 Z m 8.046875,0 V 61 h 3.712891 c 0.773332,0 1.495969,-0.143641 2.167968,-0.431641 0.677333,-0.293333 1.271204,-0.696985 1.783203,-1.208984 0.517333,-0.517333 0.920985,-1.111204 1.208985,-1.783203 0.293333,-0.677333 0.439453,-1.402449 0.439453,-2.175781 0,-0.773333 -0.14612,-1.49597 -0.439453,-2.167969 -0.288,-0.677333 -0.691652,-1.273157 -1.208985,-1.785156 -0.511999,-0.517333 -1.10587,-0.919032 -1.783203,-1.207032 -0.671999,-0.293333 -1.394636,-0.439453 -2.167968,-0.439453 z m -47.142578,2 h 1.65625 c 0.197333,0 0.375156,0.04906 0.535156,0.150391 0.165333,0.096 0.296578,0.229724 0.392578,0.40039 0.096,0.165334 0.142578,0.355027 0.142578,0.56836 0,0.197333 -0.04658,0.379589 -0.142578,0.544922 -0.096,0.165333 -0.227245,0.294625 -0.392578,0.390625 C 29.920078,53.951469 29.742255,54 29.544922,54 h -1.65625 z m 18.15039,0.04687 h 1.873047 c 0.213333,0 0.407985,0.05597 0.583985,0.167969 0.176,0.106667 0.317161,0.250307 0.423828,0.431641 0.106666,0.181333 0.160156,0.382896 0.160156,0.601562 0,0.218667 -0.05349,0.418276 -0.160156,0.59961 -0.106667,0.181333 -0.247828,0.327453 -0.423828,0.439453 -0.176,0.106666 -0.370652,0.160156 -0.583985,0.160156 h -1.873047 z m 9.808594,0.351563 h 1.3125 c 0.437333,0 0.848423,0.08271 1.232422,0.248047 0.384,0.165333 0.722292,0.398599 1.015625,0.697265 0.298666,0.293333 0.529979,0.631626 0.695313,1.015625 0.170666,0.384 0.255859,0.797568 0.255859,1.240235 0,0.442666 -0.08519,0.858714 -0.255859,1.248047 -0.165334,0.383999 -0.396647,0.722291 -0.695313,1.015624 -0.298666,0.293334 -0.639438,0.522167 -1.023437,0.6875 -0.384,0.165334 -0.79261,0.248047 -1.22461,0.248047 h -1.3125 z m 21.583985,0 h 1.3125 c 0.437333,0 0.848422,0.08271 1.232421,0.248047 0.384,0.165333 0.722292,0.398599 1.015626,0.697265 0.298666,0.293333 0.529979,0.631626 0.695312,1.015625 0.170666,0.384 0.255859,0.797568 0.255859,1.240235 0,0.442666 -0.08519,0.858714 -0.255859,1.248047 -0.165333,0.383999 -0.396646,0.722291 -0.695312,1.015624 -0.298667,0.293334 -0.639438,0.522167 -1.023438,0.6875 -0.384,0.165334 -0.79261,0.248047 -1.224609,0.248047 h -1.3125 z m -9.103516,0.929687 1.359375,3.710938 H 66.984375 Z M 27.888672,56 h 2.046875 c 0.272,0 0.520141,0.06589 0.744141,0.199219 0.223999,0.133333 0.403776,0.315589 0.537109,0.544922 0.133333,0.229333 0.199219,0.484911 0.199219,0.767578 0,0.271999 -0.06589,0.52262 -0.199219,0.751953 -0.133333,0.224 -0.31311,0.403776 -0.537109,0.537109 C 30.455688,58.934114 30.207547,59 29.935547,59 h -2.046875 z" />
  </g>
</svg>
