<?xml version="1.0" encoding="UTF-8" standalone="no"?>
<svg
   height="770"
   viewBox="0 0 770.00014 770.00001"
   width="770"
   version="1.1"
   id="svg65"
   sodipodi:docname="square.svg"
   inkscape:version="1.4 (e7c3feb1, 2024-10-09)"
   xmlns:inkscape="http://www.inkscape.org/namespaces/inkscape"
   xmlns:sodipodi="http://sodipodi.sourceforge.net/DTD/sodipodi-0.dtd"
   xmlns="http://www.w3.org/2000/svg"
   xmlns:svg="http://www.w3.org/2000/svg">
  <defs
     id="defs65" />
  <sodipodi:namedview
     id="namedview65"
     pagecolor="#ffffff"
     bordercolor="#000000"
     borderopacity="0.25"
     inkscape:showpageshadow="2"
     inkscape:pageopacity="0.0"
     inkscape:pagecheckerboard="0"
     inkscape:deskcolor="#d1d1d1"
     inkscape:current-layer="svg65" />
  <clipPath
     id="a">
    <path
       d="M 0,338 H 505.363 V 0 H 0 Z"
       transform="translate(-138.62991,-169.25)"
       id="path1" />
  </clipPath>
  <clipPath
     id="b">
    <path
       d="M 0,338 H 505.363 V 0 H 0 Z"
       transform="translate(-33.629901,-169.25)"
       id="path2" />
  </clipPath>
  <clipPath
     id="c">
    <path
       d="M 0,338 H 505.363 V 0 H 0 Z"
       transform="translate(-41.129901,-160.8555)"
       id="path3" />
  </clipPath>
  <clipPath
     id="d">
    <path
       d="M 0,338 H 505.363 V 0 H 0 Z"
       transform="translate(-41.129901,-177.645)"
       id="path4" />
  </clipPath>
  <clipPath
     id="e">
    <path
       d="M 0,338 H 505.363 V 0 H 0 Z"
       transform="translate(-54.497101,-219.63281)"
       id="path5" />
  </clipPath>
  <clipPath
     id="f">
    <path
       d="M 0,338 H 505.363 V 0 H 0 Z"
       transform="translate(-53.868202,-208.395)"
       id="path6" />
  </clipPath>
  <clipPath
     id="g">
    <path
       d="M 0,338 H 505.363 V 0 H 0 Z"
       transform="translate(-65.734901,-220.26221)"
       id="path7" />
  </clipPath>
  <clipPath
     id="h">
    <path
       d="M 0,338 H 505.363 V 0 H 0 Z"
       transform="translate(-104.87991,-240.50001)"
       id="path8" />
  </clipPath>
  <clipPath
     id="i">
    <path
       d="M 0,338 H 505.363 V 0 H 0 Z"
       transform="translate(-96.4849,-233.00001)"
       id="path9" />
  </clipPath>
  <clipPath
     id="j">
    <path
       d="M 0,338 H 505.363 V 0 H 0 Z"
       transform="translate(-113.2749,-233.00001)"
       id="path10" />
  </clipPath>
  <clipPath
     id="k">
    <path
       d="M 0,338 H 505.363 V 0 H 0 Z"
       transform="translate(-155.2632,-219.63281)"
       id="path11" />
  </clipPath>
  <clipPath
     id="l">
    <path
       d="M 0,338 H 505.363 V 0 H 0 Z"
       transform="translate(-144.0249,-220.26221)"
       id="path12" />
  </clipPath>
  <clipPath
     id="m">
    <path
       d="M 0,338 H 505.363 V 0 H 0 Z"
       transform="translate(-155.8921,-208.395)"
       id="path13" />
  </clipPath>
  <clipPath
     id="n">
    <path
       d="M 0,338 H 505.363 V 0 H 0 Z"
       transform="translate(-176.12991,-169.25)"
       id="path14" />
  </clipPath>
  <clipPath
     id="o">
    <path
       d="M 0,338 H 505.363 V 0 H 0 Z"
       transform="translate(-168.62991,-177.645)"
       id="path15" />
  </clipPath>
  <clipPath
     id="p">
    <path
       d="M 0,338 H 505.363 V 0 H 0 Z"
       transform="translate(-168.62991,-160.8555)"
       id="path16" />
  </clipPath>
  <clipPath
     id="q">
    <path
       d="M 0,338 H 505.363 V 0 H 0 Z"
       transform="translate(-155.2632,-118.8672)"
       id="path17" />
  </clipPath>
  <clipPath
     id="r">
    <path
       d="M 0,338 H 505.363 V 0 H 0 Z"
       transform="translate(-155.8921,-130.1055)"
       id="path18" />
  </clipPath>
  <clipPath
     id="s">
    <path
       d="M 0,338 H 505.363 V 0 H 0 Z"
       transform="translate(-144.0249,-118.2383)"
       id="path19" />
  </clipPath>
  <clipPath
     id="t">
    <path
       d="M 0,338 H 505.363 V 0 H 0 Z"
       transform="translate(-104.87991,-98.000002)"
       id="path20" />
  </clipPath>
  <clipPath
     id="u">
    <path
       d="M 0,338 H 505.363 V 0 H 0 Z"
       transform="translate(-113.2749,-105.5)"
       id="path21" />
  </clipPath>
  <clipPath
     id="v">
    <path
       d="M 0,338 H 505.363 V 0 H 0 Z"
       transform="translate(-96.4849,-105.5)"
       id="path22" />
  </clipPath>
  <clipPath
     id="w">
    <path
       d="M 0,338 H 505.363 V 0 H 0 Z"
       transform="translate(-54.497101,-118.8672)"
       id="path23" />
  </clipPath>
  <clipPath
     id="x">
    <path
       d="M 0,338 H 505.363 V 0 H 0 Z"
       transform="translate(-65.734901,-118.2383)"
       id="path24" />
  </clipPath>
  <clipPath
     id="y">
    <path
       d="M 0,338 H 505.363 V 0 H 0 Z"
       transform="translate(-53.868202,-130.1055)"
       id="path25" />
  </clipPath>
  <clipPath
     id="z">
    <path
       d="M 0,338 H 505.363 V 0 H 0 Z"
       transform="translate(-258.415,-169.25)"
       id="path26" />
  </clipPath>
  <clipPath
     id="A">
    <path
       d="M 0,338 H 505.363 V 0 H 0 Z"
       transform="translate(-258.415,-169.25)"
       id="path27" />
  </clipPath>
  <clipPath
     id="B">
    <path
       d="M 0,338 H 505.363 V 0 H 0 Z"
       transform="translate(-16.754901,-29.726601)"
       id="path28" />
  </clipPath>
  <clipPath
     id="C">
    <path
       d="M 0,338 H 505.363 V 0 H 0 Z"
       transform="translate(-16.754901,-29.726601)"
       id="path29" />
  </clipPath>
  <clipPath
     id="D">
    <path
       d="M 0,338 H 505.363 V 0 H 0 Z"
       transform="translate(-16.754901,-308.77291)"
       id="path30" />
  </clipPath>
  <clipPath
     id="E">
    <path
       d="M 0,338 H 505.363 V 0 H 0 Z"
       transform="translate(-16.754901,-308.77291)"
       id="path31" />
  </clipPath>
  <path
     d="M 0,770.00001 H 770 V 1.46e-5 H 0 Z"
     fill="#0038a8"
     id="path32"
     style="stroke-width:1.86445" />
  <path
     d="M 0,770.00001 H 770 V 385.00003 H 0 Z"
     fill="#ce1126"
     id="path33"
     style="stroke-width:1.86445" />
  <path
     d="M 0,769.84145 445.15932,384.99887 0,0.15628465 Z"
     fill="#ffffff"
     id="path34"
     style="stroke-width:1.86445" />
  <g
     id="g68"
     transform="translate(0,127.49999)">
    <path
       clip-path="url(#a)"
       d="m 0,0 c 0,-18.641 -15.109,-33.75 -33.75,-33.75 -18.641,0 -33.75,15.109 -33.75,33.75 0,18.641 15.109,33.75 33.75,33.75 C -15.109,33.75 0,18.641 0,0"
       transform="matrix(1.5236573,0,0,-1.525926,211.22447,257.50001)"
       id="path35"
       style="fill:#fcd116" />
    <path
       clip-path="url(#b)"
       d="M 0,0 4.383,-4.383 71.25,0 4.383,4.383 Z"
       transform="matrix(1.5236573,0,0,-1.525926,51.240444,257.50001)"
       id="path36"
       style="fill:#fcd116" />
    <path
       clip-path="url(#c)"
       d="M 0,0 3.578,-3.574 63.75,8.395 Z"
       transform="matrix(1.5236573,0,0,-1.525926,62.667874,270.3094)"
       id="path37"
       style="fill:#fcd116" />
    <path
       clip-path="url(#d)"
       d="M 0,0 3.578,3.574 63.75,-8.395 Z"
       transform="matrix(1.5236573,0,0,-1.525926,62.667874,244.68987)"
       id="path38"
       style="fill:#fcd116" />
    <path
       clip-path="url(#e)"
       d="M 0,0 V -6.199 L 50.383,-50.383 6.199,0 Z"
       transform="matrix(1.5236573,0,0,-1.525926,83.034906,180.61958)"
       id="path39"
       style="fill:#fcd116" />
    <path
       clip-path="url(#f)"
       d="M 0,0 V -5.059 L 51.012,-39.145 Z"
       transform="matrix(1.5236573,0,0,-1.525926,82.076678,197.76764)"
       id="path40"
       style="fill:#fcd116" />
    <path
       clip-path="url(#g)"
       d="M 0,0 H 5.059 L 39.145,-51.012 Z"
       transform="matrix(1.5236573,0,0,-1.525926,100.15746,179.65916)"
       id="path41"
       style="fill:#fcd116" />
    <path
       clip-path="url(#h)"
       d="M 0,0 -4.383,-4.383 0,-71.25 4.383,-4.383 Z"
       transform="matrix(1.5236573,0,0,-1.525926,159.80103,148.77778)"
       id="path42"
       style="fill:#fcd116" />
    <path
       clip-path="url(#i)"
       d="M 0,0 -3.574,-3.578 8.395,-63.75 Z"
       transform="matrix(1.5236573,0,0,-1.525926,147.00992,160.22223)"
       id="path43"
       style="fill:#fcd116" />
    <path
       clip-path="url(#j)"
       d="M 0,0 3.574,-3.578 -8.395,-63.75 Z"
       transform="matrix(1.5236573,0,0,-1.525926,172.59213,160.22223)"
       id="path44"
       style="fill:#fcd116" />
    <path
       clip-path="url(#k)"
       d="M 0,0 H -6.199 L -50.383,-50.383 0,-6.199 Z"
       transform="matrix(1.5236573,0,0,-1.525926,236.56791,180.61958)"
       id="path45"
       style="fill:#fcd116" />
    <path
       clip-path="url(#l)"
       d="M 0,0 H -5.059 L -39.145,-51.012 Z"
       transform="matrix(1.5236573,0,0,-1.525926,219.4446,179.65916)"
       id="path46"
       style="fill:#fcd116" />
    <path
       clip-path="url(#m)"
       d="M 0,0 V -5.059 L -51.012,-39.145 Z"
       transform="matrix(1.5236573,0,0,-1.525926,237.52614,197.76764)"
       id="path47"
       style="fill:#fcd116" />
    <path
       clip-path="url(#n)"
       d="M 0,0 -4.383,4.383 -71.25,0 -4.383,-4.383 Z"
       transform="matrix(1.5236573,0,0,-1.525926,268.36162,257.50001)"
       id="path48"
       style="fill:#fcd116" />
    <path
       clip-path="url(#o)"
       d="M 0,0 -3.578,3.574 -63.75,-8.395 Z"
       transform="matrix(1.5236573,0,0,-1.525926,256.93419,244.68987)"
       id="path49"
       style="fill:#fcd116" />
    <path
       clip-path="url(#p)"
       d="M 0,0 -3.578,-3.574 -63.75,8.395 Z"
       transform="matrix(1.5236573,0,0,-1.525926,256.93419,270.3094)"
       id="path50"
       style="fill:#fcd116" />
    <path
       clip-path="url(#q)"
       d="M 0,0 V 6.199 L -50.383,50.383 -6.199,0 Z"
       transform="matrix(1.5236573,0,0,-1.525926,236.56791,334.38044)"
       id="path51"
       style="fill:#fcd116" />
    <path
       clip-path="url(#r)"
       d="M 0,0 V 5.059 L -51.012,39.145 Z"
       transform="matrix(1.5236573,0,0,-1.525926,237.52614,317.23162)"
       id="path52"
       style="fill:#fcd116" />
    <path
       clip-path="url(#s)"
       d="M 0,0 H -5.059 L -39.145,51.012 Z"
       transform="matrix(1.5236573,0,0,-1.525926,219.4446,335.34009)"
       id="path53"
       style="fill:#fcd116" />
    <path
       clip-path="url(#t)"
       d="M 0,0 4.383,4.383 0,71.25 -4.383,4.383 Z"
       transform="matrix(1.5236573,0,0,-1.525926,159.80103,366.22224)"
       id="path54"
       style="fill:#fcd116" />
    <path
       clip-path="url(#u)"
       d="M 0,0 3.574,3.578 -8.395,63.75 Z"
       transform="matrix(1.5236573,0,0,-1.525926,172.59213,354.77779)"
       id="path55"
       style="fill:#fcd116" />
    <path
       clip-path="url(#v)"
       d="M 0,0 -3.574,3.578 8.395,63.75 Z"
       transform="matrix(1.5236573,0,0,-1.525926,147.00992,354.77779)"
       id="path56"
       style="fill:#fcd116" />
    <path
       clip-path="url(#w)"
       d="M 0,0 H 6.199 L 50.383,50.383 0,6.199 Z"
       transform="matrix(1.5236573,0,0,-1.525926,83.034906,334.38044)"
       id="path57"
       style="fill:#fcd116" />
    <path
       clip-path="url(#x)"
       d="M 0,0 H 5.059 L 39.145,51.012 Z"
       transform="matrix(1.5236573,0,0,-1.525926,100.15746,335.34009)"
       id="path58"
       style="fill:#fcd116" />
    <path
       clip-path="url(#y)"
       d="M 0,0 V 5.059 L 51.012,39.145 Z"
       transform="matrix(1.5236573,0,0,-1.525926,82.076678,317.23162)"
       id="path59"
       style="fill:#fcd116" />
  </g>
  <g
     id="g65"
     transform="matrix(1.5478228,0,0,1.5478228,-194.43342,-13.564386)">
    <path
       clip-path="url(#z)"
       d="M 0,0 -12.683,-4.41 -12.957,-17.832 -21.07,-7.133 -33.922,-11.02 -26.25,0 Z"
       transform="matrix(1.5236573,0,0,-1.525926,393.73591,257.50001)"
       id="path60"
       style="fill:#fcd116" />
    <path
       clip-path="url(#A)"
       d="M 0,0 -12.683,4.41 -12.957,17.832 -21.07,7.133 -33.922,11.02 -26.25,0 Z"
       transform="matrix(1.5236573,0,0,-1.525926,393.73591,257.50001)"
       id="path61"
       style="fill:#fcd116" />
  </g>
  <g
     id="g66"
     transform="matrix(1.4803137,0,0,1.4803137,-15.570049,8.4613683)">
    <path
       clip-path="url(#B)"
       d="m 0,0 2.523,13.188 -11.488,6.949 13.32,1.675 3.059,13.075 5.711,-12.153 z"
       transform="matrix(1.5236573,0,0,-1.525926,25.528727,470.40239)"
       id="path62"
       style="fill:#fcd116" />
    <path
       clip-path="url(#C)"
       d="M 0,0 10.16,8.781 21.922,2.305 16.711,14.68 26.504,23.867 13.125,22.734 Z"
       transform="matrix(1.5236573,0,0,-1.525926,25.528727,470.40239)"
       id="path63"
       style="fill:#fcd116" />
  </g>
  <g
     id="g67"
     transform="matrix(1.4803137,0,0,1.4803137,-15.570049,3.9803923)">
    <path
       clip-path="url(#D)"
       d="m 0,0 10.16,-8.781 11.762,6.477 -5.211,-12.375 9.793,-9.188 -13.379,1.133 z"
       transform="matrix(1.5236573,0,0,-1.525926,25.528727,44.59839)"
       id="path64"
       style="fill:#fcd116" />
    <path
       clip-path="url(#E)"
       d="m 0,0 2.523,-13.187 -11.488,-6.949 13.32,-1.676 3.059,-13.074 5.711,12.152 z"
       transform="matrix(1.5236573,0,0,-1.525926,25.528727,44.59839)"
       id="path65"
       style="fill:#fcd116" />
  </g>
</svg>
