<svg height="817.77734" viewBox="0 0 1226.6667 817.77734" width="1226.6667" xmlns="http://www.w3.org/2000/svg" xmlns:xlink="http://www.w3.org/1999/xlink"><clipPath id="a"><path d="m0 613.333h920v-613.333h-920z" transform="translate(-476.29301 -200.71661)"/></clipPath><path d="m0 0h920v613.333h-920z" fill="#007934" transform="matrix(1.3333333 0 0 -1.3333333 0 817.77733)"/><path d="m280 0h360v613.333h-360z" fill="#fff" transform="matrix(1.3333333 0 0 -1.3333333 0 817.77733)"/><path clip-path="url(#a)" d="m0 0c4.308.027 9.513-.979 10.267-2.429.142-.297.1-.624-.175-.955-2.132-2.565-14.252-.231-14.252-.231v3.124c1.079.313 2.564.481 4.159.491zm-73.559.579c3.863.231 8.178-2.136 8.668-2.372.006-.002.026.001.029 0 0-.133-.145-4.28-.145-4.28s-7.647 2.12-10.064 6.391c.485.132 1.002.23 1.512.261m43.541 2.197c4.224.197 8.813-1.474 8.813-1.474.109-.215 2.27-4.452.35-5.871-.072-.051-.15-.102-.233-.145-2.357-1.227-13.62.959-14.281 5.466 1.326 1.392 3.289 1.929 5.351 2.024m39.034 11.539c1.857.1 2.644-.47 1.192-2.515-4.039-5.691-14.484-3.356-14.484-3.356l-.437 3.53c3.684-.144 10.418 2.165 13.728 2.341zm-51.918 2.199c2.418.121 4.532-1.456 6.748-2.719 4.936 1.005 15.066-.78 15.066-.78v-4.454c0-.004-.023-.026-.03-.03-.004-.002-.023.002-.028 0-.923-.159-12.793.357-15.445 2.025-2.162 0-8.284 3.213-8.754 4.859-.005.014-.027.044-.03.058-.003.02.002.066 0 .087v.057c.001.012-.001.046 0 .058.001.006 0 .023 0 .029.002.012.025.046.03.058.002.006-.003.023 0 .029.845.448 1.67.685 2.443.723m46.303 8.821c.849.034 1.554-.051 1.95-.289.047-.031.107-.08.145-.116.012-.012.047-.045.058-.058.016-.02.046-.065.058-.087s.02-.063.03-.087c.071-.216.044-.514-.146-.867-1.796-3.348-9.656-2.111-9.656-2.111v2.342h.028c.444-.038 4.776 1.16 7.533 1.273m24.52 12.378c.454.017.869-.075 1.163-.261.12-.08.238-.194.32-.318.111-.177.184-.418.203-.694-1.195-1.836-7.378-1.035-7.765-.983.311.11 3.882 2.173 6.079 2.256m-65.588.752c.058.001.112 0 .174 0 11.445-1.228 15.72-5.487 16.928-7.201-2.282-3.983-20.37 4.948-18.469 6.853.218.194.665.333 1.367.348zm67.739 15.269c2.237.022 3.944-.306 4.916-1.011h.03c0-.002-.001-.027 0-.03v-.029c-.001-.01.001-.046 0-.058-.096-.691-1.517-3.945-6.516-5.35-6.234.554-32.692-7.224-33.216-7.346-.002.002-.027-.002-.029 0-.002.01.001.044 0 .058-.014.498.349 3.181.349 3.181 9.121 5.424 25.695 10.503 34.466 10.585m-10.644 3.962c.6.015.967-.083 1.017-.259.002-.014.002-.043 0-.058-.03-.148-.207-.371-.581-.637-5.05-3.569-24.025-7.229-24.025-7.229s.235 2.494.348 3.093c.529.008 18.7 4.98 23.24 5.091zm-12.653 5.178c1.934.071 3.446-.043 3.898-.492.028-.029.069-.083.088-.115.01-.021.022-.066.028-.087.007-.023-.002-.065 0-.087.001-.039.011-.103 0-.146-.021-.085-.08-.189-.145-.289-2.601-2.538-15.241-2.921-15.241-2.921v3.153c2.373.08 7.657.845 11.372.983zm19.662 17.988c1.937.074 2.772-.25 3.026-.694.019-.039.046-.103.058-.145.018-.075.035-.179.029-.259-.063-.574-.687-1.261-1.163-1.707-1.908-1.786-32.315-11.366-32.315-11.366s-.228 6.355-.116 6.913c17.777 5.356 26.472 7.107 30.482 7.258zm-15.56 4.686c1.524.036 2.619-.138 2.85-.578.13-.3-.121-.741-.843-1.331-5.611-4.575-17.83-5.466-17.83-5.466v5.032h.029c.694.082 10.73 2.222 15.794 2.343m-15.853 8.907c.471-.1 7.02-.315 8.232-1.33.006-.004.023-.024.029-.029.004-.004.025-.024.029-.029.004-.004.025-.024.03-.029.011-.017.019-.043.029-.058.002-.006.026-.024.028-.029.011-.021.025-.065.03-.087.001-.006-.001-.023 0-.029s0-.023 0-.028c0-.013.001-.047 0-.059-.001-.006.001-.022 0-.028-.002-.013-.025-.046-.03-.058-.002-.007.002-.023 0-.029-.005-.012-.021-.046-.028-.058-1.011-1.562-7.853-2.14-7.853-2.14s-.336 3.061-.495 4.02zm-51.451 9.92c3.834.241 13.337-1.33 36.793-9.804l.785-4.569s-39.055 12.535-40.167 12.928c.002 0-.001.025 0 .029.001.023-.006.082 0 .145.014.114.072.294.203.462.276.335.905.717 2.386.81zm67.071.955c1.319.043 2.254-.032 2.472-.261l.029-.028c.006-.011-.002-.048 0-.059.001-.005.029-.023.029-.028 0-.007-.028-.023-.029-.029-.002-.013.006-.046 0-.058-.004-.007-.025-.022-.029-.029-.016-.026-.035-.06-.058-.087-.018-.021-.064-.065-.087-.087-2.024-1.736-17.917-5.061-17.917-5.061s-.437 3.793-.437 3.904c.441-.01 11.067 1.659 16.026 1.822zm1.512 11.943c1.364.06 2.361 0 2.676-.173.038-.024.073-.058.088-.087.002-.004-.001-.023 0-.029v-.028c-.003-.013.006-.047 0-.059-.005-.005-.025-.022-.029-.028-.021-.026-.056-.059-.088-.087-2.02-1.785-20.767-5.466-20.767-5.466s-.088 3.454-.088 3.788c.532.114 12.635 1.925 18.208 2.169m-58.52 2.372c6.551.336 26.397-8.712 27.37-8.994.002-.001.027 0 .029 0-.101-.404-.118-3.672-.203-4.194-.002-.014.002-.05 0-.058-.001-.002-.029.001-.029 0-.535.286-27.737 11.51-28.94 10.615-.751 1.768.027 2.542 1.774 2.631zm64.686 9.688c1.106.047 1.831-.048 2.007-.289.016-.027.027-.083.029-.115-.004-.116-.1-.263-.291-.434-3.451-3.099-25.453-6.854-26.235-6.912h-.029c-.002 0-.026-.002-.029 0-.002.002-.026.026-.029.029-.008.01-.023.044-.029.057-.002.007.002.024 0 .03-.004.011-.027.044-.029.057-.14.719.315 3.234.348 3.587.001.006 0 .025 0 .029.001-.001.028.001.029 0 .004-.001.025-.029.03-.029.006-.001.022 0 .029 0 1.408.023 18.27 3.744 24.199 3.99m-72.452 16.631c4.322.227 14.08-2.052 35.95-12.349 0-.107.195-3.658.117-3.991-.002 0-.027-.001-.03 0-1.297.415-39.353 13.708-39.353 13.708-.04.145-.613 2.424 3.316 2.631zm63.465.52c.881.045 1.501-.044 1.716-.26.007-.006.024-.023.029-.029.012-.02.023-.066.029-.087.004-.022.03-.063.03-.087-.012-.122-.105-.286-.262-.462-2.693-3.014-17.161-6.016-17.161-6.016v3.904h.029c.659.023 11.279 2.819 15.59 3.037m-56.717 6.334c3.297.174 10.974-1.626 28.068-8.821l.117-4.251s-28.949 8.73-29.958 10.18c-.497.713-1.422 2.722 1.774 2.892zm55.495 18.394c3.928.076 6.701-.258 5.672-1.446-2.806-3.236-22.192-5.9-22.192-5.9l-.349 5.9c.416.061 10.267 1.317 16.87 1.446zm-40.487 10.122c4.114.146 13.969-2.211 14.514-2.083 0-.781.436-4.475-.058-5.234-.004-.006-.024-.023-.029-.029-.004-.006-.024-.024-.03-.029-.005-.004-.023-.025-.029-.029-.01-.006-.046-.024-.058-.029-.006-.002-.022.001-.029 0-.012-.001-.045-.001-.058 0-.006.001-.022-.002-.03 0-.837.208-15.382 4.802-15.939 6.681-.007.031 0 .086 0 .116.007.065.038.145.088.202.006.006.022.023.029.029.006.006.022.023.029.029.28.22.856.35 1.6.376m-13.379 10.903c3.841.198 11.462-.701 25.77-4.628 0-.302.29-3.991.174-4.598-.001-.004-.027-.025-.029-.029 0-.004.001-.026 0-.029-.002-.002-.025-.028-.029-.029-.224.112-26.031 7.486-28.388 7.375-.064-.002-.142-.006-.203 0-.052.006-.126.018-.175.029-.064.016-.147.061-.203.087-.021.01-.068.018-.088.029-.006.004-.023.025-.029.029-.078.052-.156.133-.204.202-.004.006-.026.024-.029.029-.006.012-.023.046-.029.058-.002.006.002.023 0 .029-.004.012-.026.046-.029.058-.001.006.001.023 0 .028-.001.013 0 .046 0 .059 0 .012-.001.044 0 .058.004.031.018.082.029.115.032.079.097.181.174.261.395.383 1.383.769 3.287.867zm35.863 9.659c.004-.001.025.002.029 0 .005-.001.023.002.029 0 .699-.183 5.57-.34 6.167-1.156.006-.008.024-.021.028-.029.003-.004-.002-.025 0-.029.005-.008.028-.021.03-.029.001-.004 0-.025 0-.029.001-.004 0-.025 0-.029s.001-.025 0-.029c0-.004.001-.024 0-.028 0-.005.001-.025 0-.03-.002-.004-.028-.024-.03-.029-.002-.003.003-.024 0-.028-.008-.014-.019-.044-.028-.058-.005-.004-.026-.024-.029-.029-.004-.004.004-.024 0-.029-1.01-1.227-5.506-1.562-5.731-1.562-.002 0-.027-.001-.029 0s.002.028 0 .029c-.004.006-.025.023-.028.029-.206.415-.408 3.065-.408 3.065m.669 7.26c.207 0 11.97-.101 13.001-1.62.008-.012.023-.045.03-.058.007-.02.024-.066.029-.087.002-.014-.001-.044 0-.058 0-.021.004-.065 0-.086-.006-.022-.021-.065-.029-.087-.899-1.897-12.798-3.037-12.798-3.037l-.234 5.032zm-8.522 4.887v-3.673s-6.009.306-7.126 1.244c-.006.004-.025.024-.029.029-.004.003-.025.024-.029.028-.004.005-.025.025-.03.03-.003.004-.025.024-.029.028-.01.014-.021.043-.029.058-.002.005.002.025 0 .029s-.027.024-.029.029c-.001.004.001.024 0 .029-.001.01 0 .047 0 .058v.029c.001.006-.001.023 0 .029.006.021.018.065.029.087.002.006.026.023.029.028.014.023.039.064.058.087.007.006.024.023.03.029.012.012.045.046.058.058.04.035.092.079.145.116 2.016 1.403 6.042 1.37 6.835 1.59.006.002.023-.002.029 0 .007.002.024.027.03.029.004.002.025-.002.029 0s.026.027.029.029m4.77 91.332c-.804-8.704-1.61-17.412-2.414-26.116-2.947-.444-5.894-.886-8.842-1.33 0 0 6.141-3.449 7.213-6.912.172-.555.103-1.014-.145-1.36-.082-.108-.207-.227-.32-.318-1.779-1.367-7.039-.723-7.039-.723s6.968-5.879 7.504-8.011c.012-.05.028-.096.029-.145-.001-.04.008-.106 0-.144-.008-.031-.046-.086-.058-.116-.048-.104-.134-.222-.233-.318-1.638-1.513-9.366-1.938-9.366-1.938s8.568-6.109 9.104-9.572c.486-3.14.079-4.978 0-5.293-.598.511-14.415 12.122-23.327 8.734-.444-.23-.706-.45-.814-.665-.048-.107-.057-.241-.029-.347.625-1.931 13.227-3.91 22.018-11.511-.218-1.902-25.055 6.05-25.973 1.07.777-1.404 26.729-5.145 28.649-8.532-9.558-.355-29.303 2.104-28.649-1.041-1.997-3.631 18.649-1.58 27.311-4.54 2.54-2.87 2.294-5.28-2.123-5.582-8.349 3.969-27.034 6.918-27.079 1.851 0-.006-.001-.024 0-.029.002-.006.027-.024.029-.029.008-.016.016-.043.029-.058.03-.028.096-.06.145-.087 2.11-1.052 19.51-.539 26.061-4.858-9.288-2.101-40.782 4.261-40.981 1.156.897-1.45 5.88-7.815 14.455-7.548s28.414-3.467 29.756-6.131c.041-.083.041-.169.028-.232-.58-1.858-26.126 5.669-35.95 1.042-10.182-4.797 29.198-1.889 35.63-7.751s-12.855.549-12.855.549-26.784 3.716-30.803 1.851c-4.02-1.866-8.58-6.131-8.58-6.131s2.672-5.317 5.352-4.251c.408.162.687.195.844.144.003-.002.025.002.029 0s.025-.027.029-.029c.006-.004.024-.024.029-.029.004-.006.024-.023.029-.029.002-.002.028-.025.029-.028.012-.027.025-.083.029-.116.063-.799-1.832-3.124-1.832-3.124s37.532-9.041 45.839-17.034c8.307-7.994-47.7 12.523-47.7 12.523s-22.51-8.259 1.338-8.792c-2.658-3.867 1.1-6.246 1.338-6.391 0 0 39.668-8.268 43.687-14.663s-27.063 6.139-34.031 9.601c-6.721 3.343-25.432-1.767-26.497-3.325-.007-.012-.024-.046-.028-.058-.002-.006.002-.023 0-.029-.002-.012-.001-.047 0-.058.001-.006-.001-.024 0-.029.002-.006-.002-.024 0-.029.002-.006.026-.024.028-.029.002-.006-.002-.024 0-.029.013-.021.042-.065.059-.086.004-.007.024-.024.029-.029 1.199-1.314 9.55-3.122 9.802-5.38.001-.01-.001-.02 0-.028.003-.121-.034-.264-.088-.376-1.052-2.029-11.016-2.891-11.431-4.802-.006-.032-.029-.082-.029-.115 0-2.133 50.125-12.524 63.523-23.715 13.399-11.191-39.382 13.333-39.382 13.333s2.948-3.995 0-5.062c-2.947-1.065-13.419 14.921-30.569 5.062-3.124-4.057 14.974-7.276 19.575-7.722-1.571-4.016-2.941-5.346 3.49-9.342.704-.437 1.099-.701 1.251-.839.004-.003.025-.024.03-.028l.028-.029c.002-.002 0-.027 0-.029s.001-.028 0-.029-.025 0-.028 0c-.005 0-.025-.001-.03 0-.996.155-12.55 6.059-13.758 6.304-.012.002-.049 0-.058 0-.004 0-.026.001-.029 0 0-.533 1.338-6.94 1.338-6.94-5.937 4.795-13.114 6.241-19.836 1.33-.01-.285-.059-4.883 6.69-7.722-3.804-7.729 4.298-5.329 17.161-12.524-19.116 4.969-20.647-4.259-6.981-6.39 13.667-2.132 51.19-3.467 60.033-14.924 1.866-2.416 2.372-3.632 2.007-4.02-1.475-1.329-15.044 8.43-17.015 8.792-.004-.001-.025.004-.029 0-.004-.003-.025-.024-.029-.029-.025-.031-.063-.093-.088-.144-.481-1.06-.931-5.669-.931-5.669-5.716 3.291-10.961 6.242-17.799 7.635-.536-1.065-.424-2.579-.96-3.644-6.205 4.45-11.611 7.578-20.622 8.012-.358-1.422-.719-2.86-1.077-4.281 0 0-7.512 9.326-22.25 0-8.23-5.867 31.088-2.124 37.52-9.052 6.431-6.927 1.337-7.983 1.337-7.983-5.358 1.954-10.695 3.889-16.054 5.843 0 0-19.044 3.481-24.404-.781-5.358-4.264 78.244-14.658 80.655-26.116 1.626-6.213-19.642 6.506-38.044 11.973-.712-2.034-1.441-4.068-2.153-6.102-.436.429-7.555 7.313-15.532 8.503-.002-.004-.027-.023-.029-.03-.001-.01 0-.045 0-.057.012-.875 1.629-7.116 1.629-7.116s-20.613 9.604-31.063 4.541c-10.451-5.062 36.433-7.726 40.72-12.523.469-.524.664-.906.64-1.156-.008-.044-.038-.11-.058-.145-1.036-1.508-15.018 4.062-16.404 1.301-1.609-3.197-24.381 5.853-24.113 1.591.269-4.264 3.229-6.652 3.229-6.652s47.43-4.527 49.038-10.122c1.607-5.595-26.264 3.182-26.264 3.182s-2.696-3.978-.553-5.843c.084-.072.151-.142.175-.173 0-.002-.001-.027 0-.029-.002.001-.025-.001-.029 0-.969.317-16.071 10.153-14.601 2.603-5.91 2.339-21.166 9.587-19.022 3.991 2.111-5.513 41.904-13.362 43.075-13.593-1.052-.082-17.881-1.482-17.101-5.871-22.555 13.663-22.502 5.47-21.99 4.83.001-.001 0-.028 0-.029-1.267.199-29.016 7.073-6.951-4.801 11.833-6.367 14.717-8.85 14.776-9.804 0-.021.002-.067 0-.087-.004-.025-.02-.064-.029-.087-.002-.005-.026-.023-.029-.029-.01-.016-.018-.043-.029-.057-.004-.004-.025-.025-.03-.03-.003-.004-.024-.024-.029-.028-.004-.004-.024-.026-.029-.029-.005-.004-.023-.026-.029-.03-.458-.292-1.567-.169-1.891-.173-.013-.001-.047.001-.058 0-.006-.002-.027-.026-.028-.029l.028-.029c.315-.465 2.046-5.164 1.949-5.986-.002-.014-.025-.047-.029-.058-.002-.004.002-.025 0-.029-.001-.002-.028.002-.029 0-.002-.001.002-.029 0-.03-.002 0-.027.001-.029 0-.002.001-.027 0-.03 0-.966.243-15.581 8.008-20.593 8.533-5.092.533-29.215-6.654-3.49-17.844 25.725-11.192 41.526 2.669 55.728 1.069 14.202-1.598 20.914-4.001 19.575-8.531-1.34-4.529-14.528 14.849-28.388-1.909-15.766 3.102-26.462 4.897-18.324-6.623-25.747 9.568-41.47-2.919-9.046-7.982 31.863-.934 51.452 7.722 51.452 7.722s5.375-9.878 13.147-2.95c7.407 6.602 7.99-1.801 8.261-2.603.004-.012.025-.022.029-.029.002-.002-.002-.027 0-.029h.029c.572.143 7.475 3.21 7.475 3.21h1.891v-63.944c8.664-.089 17.308-.171 25.972-.261 0 0-8.306 55.675-3.752 63.135 4.414 7.227 8.587 6.446 8.843 6.392 0 0 16.885-5.052 18.76-4.252.021.01.066.018.087.029.014.008.045.021.058.028.032.022.087.064.116.087.006.004.024.025.03.03 1.372 1.246-.026 6.161 8.551 5.408 2.648.958 1.638 5.156 3.345 6.189.03.018.084.042.116.058.065.03.162.064.233.087.099.028.233.046.349.057 2.679.267 54.392-14.376 65.646-.52-2.948 7.727-13.144.526-15.823.26-2.411 0-12.602 4.796-18.498 0-5.36 3.997-29.726 6.652-29.726 6.652-3.216 3.197 58.149-1.588 61.632.81 7.234 7.194-13.393 6.388-16.608 3.991-5.717 3.464-12.9 3.208-17.277.809-2.098 4.993-22.024 2.83-33.099 4.252-3.545 2.068-2.955 3.254-.553 4.54 23.135-.977 46.151-3.98 69.398-2.95 6.283 8.146-7.91 11.218-16.608 4.281-5.106 8.35-15.545.271-22.512 1.07-6.967.8-3.752 9.314 5.09 7.982 8.844-1.333 24.655.544 27.603 4.541 2.946 3.996-1.76 8.045-16.347 4.251-4.937 4.798-15.792.008-20.884-1.591-6.773 3.758-22.534.524-27.892-.809-5.248 3.243 27.601 8.531 27.601 8.531 12.68.224 19.831 2.404 23.851 3.471 19.168 10.215-.268 11.3-10.326 3.875-6.243 4.847-12.172-.419-17.799-2.284-5.277-1.748-15.033-3.022-16.231-2.517-.013.007-.047.022-.058.029-.002.002-.026.027-.029.03l-.029.028c-.001.003.001.026 0 .029 0 .002-.001.026 0 .03.004.011.02.043.029.057.79 1.219 15.241 10.036 15.241 10.036s18.76 1.347 22.512 1.88c2.286.324 10.299 4.097 10.296 5.495-.067.868-3.405.788-13.525-1.764-9.111-.8-14.462-.284-17.946-.55-5.603.576-7.963 1.164-8.435 1.678-.018.021-.047.065-.058.086-.039.093-.014.201.058.29.018.02.063.066.088.086 1.373 1.091 10.237 1.88 10.237 1.88s27.064 2.468 28.854 3.875c.005.007.023.024.029.03.01.011.022.046.028.057.002.007.029.025.029.03.558 11.001-22.959 5.921-23.587 5.841.067 7.737-21.224.115-22.221 0-.002.001-.028 0-.029 0-.916.537-1.316 1.104-1.397 1.62-.026.197-.001.418.059.608.533 1.595 3.752 2.834 3.752 2.834 5.895 1.421 14.71 1.864 17.014 3.73 0 0 16.64.146 18.616 4.541-4.083 11.201-35.213-1.983-39.382-3.991-.835 0-1.347.209-1.6.55-1.369 1.988 5.386 8.537 5.613 8.763.002.002.025.026.03.029 1.029.29 25.883 1.555 37.753 17.555.837 9.893-14.195-5.582-14.195-5.582-1.122 12.831-16.344-.814-25.187-1.88s-9.102 4.001-2.938 4.8c6.162.799 13.124.277 16.608 9.602 3.483 9.326 13.947-.543 15.823 2.921 1.816 3.356-3.424 6.217-3.752 6.392 0 0 7.766 8.017-4.828 7.751-12.467-.264-28.585 1.553-28.911 1.59.782.297 13.479 5.059 25.421 4.801 12.327-.266 5.625 8.792-6.166 8.792-11.79 0-17.947 3.991-17.947 3.991 6.7 2.487 13.4 4.975 20.099 7.462-.447 1.865-.892 3.717-1.339 5.582 0 0 11.786 9.332-4.828 7.201-16.613-2.132-18.498-2.4-18.498-2.4s-32.705-4.984-33.478-5.061c-.002 0-.026-.001-.029 0-.316.049-3.556 1.049-4.159 2.284-.018.041-.046.104-.059.145-.013.049-.024.123-.029.173-.004.059-.01.144 0 .203.136.65 1.145 1.354 3.724 1.995 8.574 2.132 38.87 8.251 43.424 6.652.587-.206 1.016-.16 1.281.058 1.707 1.536-3.975 11.338-17.918 12.725-16.077 1.598-25.973-3.991-25.973-3.991s-10.462 3.743-.814 6.941c9.646 3.196 24.925-1.07 24.925-1.07s17.141 5.07 2.939 7.201c-14.202 2.132-18.681-1.917-25.189-2.14-2.597 3.224 22.297 3.985 23.85 6.652-2.625 4.797-18.027 0-27.05 0-3.837 1.618-4.091 4.252.262 5.87 9.201.356 17.85-.181 27.05.174-.268 4.884.007 10.675-.262 15.559-11.67 2.12-25.354-1.553-31.906-1.244 1.752 5.33 26.948 6.706 29.755 8.156 5.789 7.195-24.167.111-24.898 0-5.317.781-4.995 4.123-1.629 6.131 7.772.889 25.198-1.132 23.879 4.107-1.01 4.909-12.082 2.281-16.637 1.215-4.554-1.066-11.255-.261-11.255-.261-2.917 3.905 26.269 2.309 26.003 5.322-.381 3.458-18.501 1.076-24.666.809-4.74 3.253 22.287 5.415 23.56 5.843.006.004.025.026.028.029 1.011 8.857-18.759 0-22.511 0-.645 0-1.133.16-1.484.433-.078.064-.167.158-.232.232-1.288 1.494-.146 4.916-.146 4.916s7.045 3.148 7.475 3.904c.002.007.027.024.029.03.001.002 0 .026 0 .029 0 .001.001.026 0 .028-.002.004-.026.025-.029.029-.016.023-.055.061-.087.087-.827.633-5.673 2.232-6.311 2.285h-.03c-.004.002-.025.027-.029.029-.008.006-.022.02-.029.029-.004.004-.026.023-.029.029-.365.745.087 6.044.087 6.044s5.582 4.16 5.934 5.814c.002.013-.002.044 0 .057.002.014-.001.046 0 .058v.058c-.001.012.002.046 0 .058-.001.006.001.023 0 .029-.004.016-.023.042-.029.058-.002.006.001.023 0 .029-.002.004-.027.024-.03.029-.006.01-.022.02-.029.028-.01.015-.018.046-.028.058-.005.004-.026.025-.03.029-.022.018-.06.042-.088.058l-.057.029c-1.41.674-7.243-1.33-7.243-1.33v5.321s5.106.552 5.642 2.95c.032.141.017.279 0 .405-.008.05-.013.126-.028.174-.033.103-.084.224-.147.318-.009.014-.046.044-.057.058-1.169 1.499-5.934 1.706-5.934 1.706-.893 9.325-1.782 18.641-2.676 27.966z" fill="#007934" transform="matrix(1.3333333 0 0 -1.3333333 635.05733 550.1552)"/></svg>