<svg height="666.66669" viewBox="0 0 1002 666.66669" width="1002" xmlns="http://www.w3.org/2000/svg" xmlns:xlink="http://www.w3.org/1999/xlink"><clipPath id="a"><path d="m0 500h751.5v-500h-751.5z" transform="translate(-435.81741 -104.4561)"/></clipPath><clipPath id="b"><path d="m0 500h751.5v-500h-751.5z" transform="translate(-477.00981 -79.929704)"/></clipPath><clipPath id="c"><path d="m0 500h751.5v-500h-751.5z" transform="translate(-497.94041 -91.8096)"/></clipPath><clipPath id="d"><path d="m0 500h751.5v-500h-751.5z" transform="translate(-532.75981 -121.1904)"/></clipPath><clipPath id="e"><path d="m0 500h751.5v-500h-751.5z" transform="translate(-539.40041 -134.2695)"/></clipPath><clipPath id="f"><path d="m0 500h751.5v-500h-751.5z" transform="translate(-470.37011 -119.58011)"/></clipPath><clipPath id="g"><path d="m0 500h751.5v-500h-751.5z" transform="translate(-493.30961 -140.1104)"/></clipPath><clipPath id="h"><path d="m0 500h751.5v-500h-751.5z" transform="translate(-565.55962 -159.6299)"/></clipPath><clipPath id="i"><path d="m0 500h751.5v-500h-751.5z" transform="translate(-516.86041 -167.48051)"/></clipPath><clipPath id="j"><path d="m0 500h751.5v-500h-751.5z" transform="translate(-545.42971 -222.23051)"/></clipPath><clipPath id="k"><path d="m0 500h751.5v-500h-751.5z" transform="translate(-556.50001 -265.8999)"/></clipPath><clipPath id="l"><path d="m0 500h751.5v-500h-751.5z" transform="translate(-598.96972 -299.71001)"/></clipPath><clipPath id="m"><path d="m0 500h751.5v-500h-751.5z" transform="translate(-550.87012 -305.35011)"/></clipPath><clipPath id="n"><path d="m0 500h751.5v-500h-751.5z" transform="translate(-526.51951 -341.56981)"/></clipPath><clipPath id="o"><path d="m0 500h751.5v-500h-751.5z" transform="translate(-544.62991 -396.31011)"/></clipPath><clipPath id="p"><path d="m0 500h751.5v-500h-751.5z" transform="translate(-482.83981 -395.50981)"/></clipPath><clipPath id="q"><path d="m0 500h751.5v-500h-751.5z" transform="translate(-509.61041 -420.06301)"/></clipPath><clipPath id="r"><path d="m0 500h751.5v-500h-751.5z" transform="translate(-479.82031 -448.84281)"/></clipPath><clipPath id="s"><path d="m0 500h751.5v-500h-751.5z" transform="translate(-468.75001 -407.58501)"/></clipPath><clipPath id="t"><path d="m0 500h751.5v-500h-751.5z" transform="translate(-450.04001 -415.63481)"/></clipPath><clipPath id="u"><path d="m0 500h751.5v-500h-751.5z" transform="translate(-419.04001 -420.66701)"/></clipPath><clipPath id="v"><path d="m0 500h751.5v-500h-751.5z" transform="translate(-377.58011 -426.70511)"/></clipPath><clipPath id="w"><path d="m0 500h751.5v-500h-751.5z" transform="translate(-340.96001 -426.50291)"/></clipPath><clipPath id="x"><path d="m0 500h751.5v-500h-751.5z" transform="translate(-275.75001 -393.08981)"/></clipPath><clipPath id="y"><path d="m0 500h751.5v-500h-751.5z" transform="translate(-250.5898 -369.75001)"/></clipPath><clipPath id="z"><path d="m0 500h751.5v-500h-751.5z" transform="translate(-231.06981 -354.64991)"/></clipPath><clipPath id="A"><path d="m0 500h751.5v-500h-751.5z" transform="translate(-225.43021 -347.21001)"/></clipPath><clipPath id="B"><path d="m0 500h751.5v-500h-751.5z" transform="translate(-186.1899 -382.62991)"/></clipPath><clipPath id="C"><path d="m0 500h751.5v-500h-751.5z" transform="translate(-169.68021 -345.39991)"/></clipPath><clipPath id="D"><path d="m0 500h751.5v-500h-751.5z" transform="translate(-207.72021 -307.56011)"/></clipPath><clipPath id="E"><path d="m0 500h751.5v-500h-751.5z" transform="translate(-204.2998 -280.18991)"/></clipPath><clipPath id="F"><path d="m0 500h751.5v-500h-751.5z" transform="translate(-196.0498 -267.71001)"/></clipPath><clipPath id="G"><path d="m0 500h751.5v-500h-751.5z" transform="translate(-192.62991 -253.8198)"/></clipPath><clipPath id="H"><path d="m0 500h751.5v-500h-751.5z" transform="translate(-190.6099 -235.11041)"/></clipPath><clipPath id="I"><path d="m0 500h751.5v-500h-751.5z" transform="translate(-192.4302 -213.16991)"/></clipPath><clipPath id="J"><path d="m0 500h751.5v-500h-751.5z" transform="translate(-207.31981 -197.46971)"/></clipPath><clipPath id="K"><path d="m0 500h751.5v-500h-751.5z" transform="translate(-217.58011 -176.7402)"/></clipPath><clipPath id="L"><path d="m0 500h751.5v-500h-751.5z" transform="translate(-225.8398 -160.63961)"/></clipPath><clipPath id="M"><path d="m0 500h751.5v-500h-751.5z" transform="translate(-177.3301 -157.2197)"/></clipPath><clipPath id="N"><path d="m0 500h751.5v-500h-751.5z" transform="translate(-183.1699 -145.1396)"/></clipPath><clipPath id="O"><path d="m0 500h751.5v-500h-751.5z" transform="translate(-238.50981 -141.91991)"/></clipPath><clipPath id="P"><path d="m0 500h751.5v-500h-751.5z" transform="translate(-262.2598 -134.2695)"/></clipPath><clipPath id="Q"><path d="m0 500h751.5v-500h-751.5z" transform="translate(-204.10011 -126.21971)"/></clipPath><clipPath id="R"><path d="m0 500h751.5v-500h-751.5z" transform="translate(-209.93991 -112.3398)"/></clipPath><clipPath id="S"><path d="m0 500h751.5v-500h-751.5z" transform="translate(-230.87011 -98.849602)"/></clipPath><clipPath id="T"><path d="m0 500h751.5v-500h-751.5z" transform="translate(-246.97021 -84.559605)"/></clipPath><clipPath id="U"><path d="m0 500h751.5v-500h-751.5z" transform="translate(-264.06981 -116.5596)"/></clipPath><clipPath id="V"><path d="m0 500h751.5v-500h-751.5z" transform="translate(-270.5098 -78.120104)"/></clipPath><clipPath id="W"><path d="m0 500h751.5v-500h-751.5z" transform="translate(-510.21001 -366.12991)"/></clipPath><clipPath id="X"><path d="m0 500h751.5v-500h-751.5z" transform="translate(-404.34961 -424.69191)"/></clipPath><clipPath id="Y"><path d="m0 500h751.5v-500h-751.5z" transform="translate(-332.50001 -468.16411)"/></clipPath><clipPath id="Z"><path d="m0 500h751.5v-500h-751.5z" transform="translate(-296.2798 -454.47801)"/></clipPath><clipPath id="aa"><path d="m0 500h751.5v-500h-751.5z" transform="translate(-439.71971 -76.320299)"/></clipPath><clipPath id="ab"><path d="m0 500h751.5v-500h-751.5z" transform="translate(-307.95021 -78.990202)"/></clipPath><clipPath id="ac"><path d="m0 500h751.5v-500h-751.5z" transform="translate(-450.03031 -68.629904)"/></clipPath><clipPath id="ad"><path d="m0 500h751.5v-500h-751.5z" transform="translate(-471.45021 -84.330105)"/></clipPath><clipPath id="ae"><path d="m0 500h751.5v-500h-751.5z" transform="translate(-297.7402 -71.160202)"/></clipPath><clipPath id="af"><path d="m0 500h751.5v-500h-751.5z" transform="translate(-276.5098 -87.139605)"/></clipPath><clipPath id="ag"><path d="m0 500h751.5v-500h-751.5z" transform="translate(-507.91991 -111.8096)"/></clipPath><clipPath id="ah"><path d="m0 500h751.5v-500h-751.5z" transform="translate(-240.37011 -115.11041)"/></clipPath><clipPath id="ai"><path d="m0 500h751.5v-500h-751.5z" transform="translate(-240.37011 -115.11041)"/></clipPath><clipPath id="aj"><path d="m0 500h751.5v-500h-751.5z" transform="translate(-523.46002 -127.17971)"/></clipPath><clipPath id="ak"><path d="m0 500h751.5v-500h-751.5z" transform="translate(-533.75981 -139.76951)"/></clipPath><clipPath id="al"><path d="m0 500h751.5v-500h-751.5z" transform="translate(-544.07032 -156.1299)"/></clipPath><clipPath id="am"><path d="m0 500h751.5v-500h-751.5z" transform="translate(-552.74021 -172.8096)"/></clipPath><clipPath id="an"><path d="m0 500h751.5v-500h-751.5z" transform="translate(-556.66021 -181.63961)"/></clipPath><clipPath id="ao"><path d="m0 500h751.5v-500h-751.5z" transform="translate(-561.08011 -193.25)"/></clipPath><clipPath id="ap"><path d="m0 500h751.5v-500h-751.5z" transform="translate(-224.98 -130.7598)"/></clipPath><clipPath id="aq"><path d="m0 500h751.5v-500h-751.5z" transform="translate(-214.77001 -143.58011)"/></clipPath><clipPath id="ar"><path d="m0 500h751.5v-500h-751.5z" transform="translate(-204.56011 -160.2305)"/></clipPath><clipPath id="as"><path d="m0 500h751.5v-500h-751.5z" transform="translate(-195.9702 -177.21)"/></clipPath><clipPath id="at"><path d="m0 500h751.5v-500h-751.5z" transform="translate(-192.0801 -186.20021)"/></clipPath><clipPath id="au"><path d="m0 500h751.5v-500h-751.5z" transform="translate(-187.71 -198.0195)"/></clipPath><clipPath id="av"><path d="m0 500h751.5v-500h-751.5z" transform="translate(-221.56011 -384.25981)"/></clipPath><clipPath id="aw"><path d="m0 500h751.5v-500h-751.5z" transform="translate(-217.89991 -381.37991)"/></clipPath><clipPath id="ax"><path d="m0 500h751.5v-500h-751.5z" transform="translate(-154.41021 -319.68991)"/></clipPath><clipPath id="ay"><path d="m0 500h751.5v-500h-751.5z" transform="translate(-267.35011 -443.63921)"/></clipPath><clipPath id="az"><path d="m0 500h751.5v-500h-751.5z" transform="translate(-432.44041 -460.83401)"/></clipPath><clipPath id="aA"><path d="m0 500h751.5v-500h-751.5z" transform="translate(-596.17972 -301.70021)"/></clipPath><clipPath id="aB"><path d="m0 500h751.5v-500h-751.5z" transform="translate(-590.58982 -178.0596)"/></clipPath><clipPath id="aC"><path d="m0 500h751.5v-500h-751.5z" transform="translate(-369.79981 -473.04001)"/></clipPath><clipPath id="aD"><path d="m0 500h751.5v-500h-751.5z" transform="translate(-372.14011 -463.86721)"/></clipPath><clipPath id="aE"><path d="m0 500h751.5v-500h-751.5z" transform="translate(-379.13961 -474.72901)"/></clipPath><clipPath id="aF"><path d="m0 500h751.5v-500h-751.5z" transform="translate(-568.30961 -364.20021)"/></clipPath><clipPath id="aG"><path d="m0 500h751.5v-500h-751.5z" transform="translate(-565.86041 -373.41021)"/></clipPath><clipPath id="aH"><path d="m0 500h751.5v-500h-751.5z" transform="translate(-567.54982 -354.68021)"/></clipPath><clipPath id="aI"><path d="m0 500h751.5v-500h-751.5z" transform="translate(-573.23051 -371.41021)"/></clipPath><clipPath id="aJ"><path d="m0 500h751.5v-500h-751.5z" transform="translate(-557.71972 -369.72021)"/></clipPath><clipPath id="aK"><path d="m0 500h751.5v-500h-751.5z" transform="translate(-560.17972 -356.52001)"/></clipPath><clipPath id="aL"><path d="m0 500h751.5v-500h-751.5z" transform="translate(-552.50002 -362.35991)"/></clipPath><clipPath id="aM"><path d="m0 500h751.5v-500h-751.5z" transform="translate(-551.28031 -370.18021)"/></clipPath><clipPath id="aN"><path d="m0 500h751.5v-500h-751.5z" transform="translate(-586.26952 -330.37991)"/></clipPath><clipPath id="aO"><path d="m0 500h751.5v-500h-751.5z" transform="translate(-595.28032 -253.18991)"/></clipPath><clipPath id="aP"><path d="m0 500h751.5v-500h-751.5z" transform="translate(-597.17971 -208.25001)"/></clipPath><clipPath id="aQ"><path d="m0 500h751.5v-500h-751.5z" transform="translate(-605.83982 -250.3101)"/></clipPath><clipPath id="aR"><path d="m0 500h751.5v-500h-751.5z" transform="translate(-598.32031 -241.87011)"/></clipPath><clipPath id="aS"><path d="m0 500h751.5v-500h-751.5z" transform="translate(-184.37991 -244.69041)"/></clipPath><clipPath id="aT"><path d="m0 500h751.5v-500h-751.5z" transform="translate(-187.21 -253.83981)"/></clipPath><clipPath id="aU"><path d="m0 500h751.5v-500h-751.5z" transform="translate(-162.6099 -297.37011)"/></clipPath><clipPath id="aV"><path d="m0 500h751.5v-500h-751.5z" transform="translate(-170.04 -270.25001)"/></clipPath><clipPath id="aW"><path d="m0 500h751.5v-500h-751.5z" transform="translate(-177.99021 -250.3701)"/></clipPath><clipPath id="aX"><path d="m0 500h751.5v-500h-751.5z" transform="translate(-165.23001 -247.46001)"/></clipPath><clipPath id="aY"><path d="m0 500h751.5v-500h-751.5z" transform="translate(-159.41991 -256.0098)"/></clipPath><clipPath id="aZ"><path d="m0 500h751.5v-500h-751.5z" transform="translate(-156.75981 -264.66021)"/></clipPath><clipPath id="a0"><path d="m0 500h751.5v-500h-751.5z" transform="translate(-159.58011 -281.2998)"/></clipPath><clipPath id="a1"><path d="m0 500h751.5v-500h-751.5z" transform="translate(-168.54 -282.58011)"/></clipPath><clipPath id="a2"><path d="m0 500h751.5v-500h-751.5z" transform="translate(-232.39011 -409.95801)"/></clipPath><clipPath id="a3"><path d="m0 500h751.5v-500h-751.5z" transform="translate(-220.27 -391.58011)"/></clipPath><clipPath id="a4"><path d="m0 500h751.5v-500h-751.5z" transform="translate(-213.18991 -401.78321)"/></clipPath><clipPath id="a5"><path d="m0 500h751.5v-500h-751.5z" transform="translate(-240.46 -419.71921)"/></clipPath><clipPath id="a6"><path d="m0 500h751.5v-500h-751.5z" transform="translate(-226.25001 -402.34081)"/></clipPath><clipPath id="a7"><path d="m0 500h751.5v-500h-751.5z" transform="translate(-246.75981 -413.08011)"/></clipPath><clipPath id="a8"><path d="m0 500h751.5v-500h-751.5z" transform="translate(-209.6899 -388.02981)"/></clipPath><clipPath id="a9"><path d="m0 500h751.5v-500h-751.5z" transform="translate(-254.56981 -426.39401)"/></clipPath><clipPath id="ba"><path d="m0 500h751.5v-500h-751.5z" transform="translate(-431.24021 -411.62501)"/></clipPath><clipPath id="bb"><path d="m0 500h751.5v-500h-751.5z" transform="translate(-319.79981 -407.68411)"/></clipPath><clipPath id="bc"><path d="m0 500h751.5v-500h-751.5z" transform="translate(-319.79981 -407.68411)"/></clipPath><clipPath id="bd"><path d="m0 500h751.5v-500h-751.5z" transform="translate(-297.73 -401.03321)"/></clipPath><clipPath id="be"><path d="m0 500h751.5v-500h-751.5z" transform="translate(-273.24021 -393.47021)"/></clipPath><clipPath id="bf"><path d="m0 500h751.5v-500h-751.5z" transform="translate(-256.00981 -376.24021)"/></clipPath><clipPath id="bg"><path d="m0 500h751.5v-500h-751.5z" transform="translate(-237.8701 -359.60991)"/></clipPath><clipPath id="bh"><path d="m0 500h751.5v-500h-751.5z" transform="translate(-237.8701 -359.60991)"/></clipPath><clipPath id="bi"><path d="m0 500h751.5v-500h-751.5z" transform="translate(-279.5698 -456.48101)"/></clipPath><clipPath id="bj"><path d="m0 500h751.5v-500h-751.5z" transform="translate(-279.5698 -456.48101)"/></clipPath><clipPath id="bk"><path d="m0 500h751.5v-500h-751.5z" transform="translate(-315.85011 -467.66701)"/></clipPath><clipPath id="bl"><path d="m0 500h751.5v-500h-751.5z" transform="translate(-315.85011 -467.66701)"/></clipPath><clipPath id="bm"><path d="m0 500h751.5v-500h-751.5z" transform="translate(-180.66021 -369.73001)"/></clipPath><clipPath id="bn"><path d="m0 500h751.5v-500h-751.5z" transform="translate(-162.54 -323.35991)"/></clipPath><clipPath id="bo"><path d="m0 500h751.5v-500h-751.5z" transform="translate(-162.54 -323.35991)"/></clipPath><clipPath id="bp"><path d="m0 500h751.5v-500h-751.5z" transform="translate(-204.33981 -271.56011)"/></clipPath><clipPath id="bq"><path d="m0 500h751.5v-500h-751.5z" transform="translate(-195.66021 -293.9502)"/></clipPath><clipPath id="br"><path d="m0 500h751.5v-500h-751.5z" transform="translate(-195.66021 -293.9502)"/></clipPath><clipPath id="bs"><path d="m0 500h751.5v-500h-751.5z" transform="translate(-456.94041 -400.43901)"/></clipPath><clipPath id="bt"><path d="m0 500h751.5v-500h-751.5z" transform="translate(-494.96971 -381.47021)"/></clipPath><clipPath id="bu"><path d="m0 500h751.5v-500h-751.5z" transform="translate(-598.74022 -273.73001)"/></clipPath><clipPath id="bv"><path d="m0 500h751.5v-500h-751.5z" transform="translate(-548.00002 -265.70021)"/></clipPath><clipPath id="bw"><path d="m0 500h751.5v-500h-751.5z" transform="translate(-539.83012 -412.51611)"/></clipPath><clipPath id="bx"><path d="m0 500h751.5v-500h-751.5z" transform="translate(-539.83012 -412.51611)"/></clipPath><clipPath id="by"><path d="m0 500h751.5v-500h-751.5z" transform="translate(-510.21001 -437.30711)"/></clipPath><clipPath id="bz"><path d="m0 500h751.5v-500h-751.5z" transform="translate(-510.21001 -437.30711)"/></clipPath><clipPath id="bA"><path d="m0 500h751.5v-500h-751.5z" transform="translate(-466.01951 -460.94681)"/></clipPath><clipPath id="bB"><path d="m0 500h751.5v-500h-751.5z" transform="translate(-466.01951 -460.94681)"/></clipPath><clipPath id="bC"><path d="m0 500h751.5v-500h-751.5z" transform="translate(-437.26951 -467.86911)"/></clipPath><clipPath id="bD"><path d="m0 500h751.5v-500h-751.5z" transform="translate(-437.26951 -467.86911)"/></clipPath><clipPath id="bE"><path d="m0 500h751.5v-500h-751.5z" transform="translate(-355.66021 -418.11281)"/></clipPath><clipPath id="bF"><path d="m0 500h751.5v-500h-751.5z" transform="translate(-579.62011 -266.89011)"/></clipPath><clipPath id="bG"><path d="m0 500h751.5v-500h-751.5z" transform="translate(-577.95022 -287.33981)"/></clipPath><clipPath id="bH"><path d="m0 500h751.5v-500h-751.5z" transform="translate(-573.79981 -309.18021)"/></clipPath><clipPath id="bI"><path d="m0 500h751.5v-500h-751.5z" transform="translate(-566.23051 -332.00001)"/></clipPath><clipPath id="bJ"><path d="m0 500h751.5v-500h-751.5z" transform="translate(-558.13961 -350.31011)"/></clipPath><clipPath id="bK"><path d="m0 500h751.5v-500h-751.5z" transform="translate(-546.63961 -368.72021)"/></clipPath><clipPath id="bL"><path d="m0 500h751.5v-500h-751.5z" transform="translate(-533.84962 -386.46001)"/></clipPath><clipPath id="bM"><path d="m0 500h751.5v-500h-751.5z" transform="translate(-518.58982 -403.00391)"/></clipPath><clipPath id="bN"><path d="m0 500h751.5v-500h-751.5z" transform="translate(-501.41021 -418.22411)"/></clipPath><clipPath id="bO"><path d="m0 500h751.5v-500h-751.5z" transform="translate(-483.21001 -430.37211)"/></clipPath><clipPath id="bP"><path d="m0 500h751.5v-500h-751.5z" transform="translate(-462.83981 -441.15581)"/></clipPath><clipPath id="bQ"><path d="m0 500h751.5v-500h-751.5z" transform="translate(-442.86041 -449.20121)"/></clipPath><clipPath id="bR"><path d="m0 500h751.5v-500h-751.5z" transform="translate(-422.55961 -455.56981)"/></clipPath><clipPath id="bS"><path d="m0 500h751.5v-500h-751.5z" transform="translate(-400.21001 -459.37991)"/></clipPath><clipPath id="bT"><path d="m0 500h751.5v-500h-751.5z" transform="translate(-378.15041 -460.62501)"/></clipPath><clipPath id="bU"><path d="m0 500h751.5v-500h-751.5z" transform="translate(-357.93991 -459.91111)"/></clipPath><clipPath id="bV"><path d="m0 500h751.5v-500h-751.5z" transform="translate(-334.25001 -457.10501)"/></clipPath><clipPath id="bW"><path d="m0 500h751.5v-500h-751.5z" transform="translate(-312.70021 -451.70411)"/></clipPath><clipPath id="bX"><path d="m0 500h751.5v-500h-751.5z" transform="translate(-293.04001 -443.28521)"/></clipPath><clipPath id="bY"><path d="m0 500h751.5v-500h-751.5z" transform="translate(-273.43021 -433.23391)"/></clipPath><clipPath id="bZ"><path d="m0 500h751.5v-500h-751.5z" transform="translate(-254.87991 -420.65091)"/></clipPath><clipPath id="b0"><path d="m0 500h751.5v-500h-751.5z" transform="translate(-237.71001 -407.64211)"/></clipPath><clipPath id="b1"><path d="m0 500h751.5v-500h-751.5z" transform="translate(-222.56011 -391.81011)"/></clipPath><clipPath id="b2"><path d="m0 500h751.5v-500h-751.5z" transform="translate(-209.50981 -374.21001)"/></clipPath><clipPath id="b3"><path d="m0 500h751.5v-500h-751.5z" transform="translate(-197.5801 -356.18991)"/></clipPath><clipPath id="b4"><path d="m0 500h751.5v-500h-751.5z" transform="translate(-187.6401 -335.75981)"/></clipPath><clipPath id="b5"><path d="m0 500h751.5v-500h-751.5z" transform="translate(-179.77 -314.41021)"/></clipPath><clipPath id="b6"><path d="m0 500h751.5v-500h-751.5z" transform="translate(-172.9399 -273.99021)"/></clipPath><clipPath id="b7"><path d="m0 500h751.5v-500h-751.5z" transform="translate(-174.75981 -292.85991)"/></clipPath><clipPath id="b8"><path d="m0 500h751.5v-500h-751.5z" transform="translate(-563.33011 -302.52981)"/></clipPath><clipPath id="b9"><path d="m0 500h751.5v-500h-751.5z" transform="translate(-567.12991 -281.33981)"/></clipPath><clipPath id="ca"><path d="m0 500h751.5v-500h-751.5z" transform="translate(-558.13961 -321.85991)"/></clipPath><clipPath id="cb"><path d="m0 500h751.5v-500h-751.5z" transform="translate(-548.71001 -341.14011)"/></clipPath><clipPath id="cc"><path d="m0 500h751.5v-500h-751.5z" transform="translate(-526.09961 -376.46001)"/></clipPath><clipPath id="cd"><path d="m0 500h751.5v-500h-751.5z" transform="translate(-511.32031 -391.85011)"/></clipPath><clipPath id="ce"><path d="m0 500h751.5v-500h-751.5z" transform="translate(-480.25981 -418.06491)"/></clipPath><clipPath id="cf"><path d="m0 500h751.5v-500h-751.5z" transform="translate(-496.41991 -405.94291)"/></clipPath><clipPath id="cg"><path d="m0 500h751.5v-500h-751.5z" transform="translate(-461.80961 -428.24411)"/></clipPath><clipPath id="ch"><path d="m0 500h751.5v-500h-751.5z" transform="translate(-442.96001 -436.47221)"/></clipPath><clipPath id="ci"><path d="m0 500h751.5v-500h-751.5z" transform="translate(-422.65041 -442.76511)"/></clipPath><clipPath id="cj"><path d="m0 500h751.5v-500h-751.5z" transform="translate(-402.70021 -446.62701)"/></clipPath><clipPath id="ck"><path d="m0 500h751.5v-500h-751.5z" transform="translate(-381.57031 -448.24711)"/></clipPath><clipPath id="cl"><path d="m0 500h751.5v-500h-751.5z" transform="translate(-340.21001 -445.13091)"/></clipPath><clipPath id="cm"><path d="m0 500h751.5v-500h-751.5z" transform="translate(-360.56981 -447.81101)"/></clipPath><clipPath id="cn"><path d="m0 500h751.5v-500h-751.5z" transform="translate(-320.23001 -440.81491)"/></clipPath><clipPath id="co"><path d="m0 500h751.5v-500h-751.5z" transform="translate(-281.98 -423.22801)"/></clipPath><clipPath id="cp"><path d="m0 500h751.5v-500h-751.5z" transform="translate(-300.41991 -432.64991)"/></clipPath><clipPath id="cq"><path d="m0 500h751.5v-500h-751.5z" transform="translate(-247.6699 -399.33981)"/></clipPath><clipPath id="cr"><path d="m0 500h751.5v-500h-751.5z" transform="translate(-264.04 -412.73681)"/></clipPath><clipPath id="cs"><path d="m0 500h751.5v-500h-751.5z" transform="translate(-233.12991 -385.00981)"/></clipPath><clipPath id="ct"><path d="m0 500h751.5v-500h-751.5z" transform="translate(-220.08981 -368.10011)"/></clipPath><clipPath id="cu"><path d="m0 500h751.5v-500h-751.5z" transform="translate(-209.18991 -350.79981)"/></clipPath><clipPath id="cv"><path d="m0 500h751.5v-500h-751.5z" transform="translate(-199.6099 -332.33011)"/></clipPath><clipPath id="cw"><path d="m0 500h751.5v-500h-751.5z" transform="translate(-191.9502 -313.37991)"/></clipPath><clipPath id="cx"><path d="m0 500h751.5v-500h-751.5z" transform="translate(-186.81981 -292.25001)"/></clipPath><clipPath id="cy"><path d="m0 500h751.5v-500h-751.5z" transform="translate(-184.73001 -274.66991)"/></clipPath><clipPath id="cz"><path d="m0 500h751.5v-500h-751.5z" transform="translate(-540.29981 -358.31981)"/></clipPath><clipPath id="cA"><path d="m0 500h751.5v-500h-751.5z" transform="translate(-569.45021 -259.87991)"/></clipPath><clipPath id="cB"><path d="m0 500h751.5v-500h-751.5z" transform="translate(-524.90041 -350.33981)"/></clipPath><clipPath id="cC"><path d="m0 500h751.5v-500h-751.5z" transform="translate(-541.66991 -375.08011)"/></clipPath><clipPath id="cD"><path d="m0 500h751.5v-500h-751.5z" transform="translate(-556.41991 -342.64991)"/></clipPath><clipPath id="cE"><path d="m0 500h751.5v-500h-751.5z" transform="translate(-383.65041 -447.70701)"/></clipPath><clipPath id="cF"><path d="m0 500h751.5v-500h-751.5z" transform="translate(-366.75001 -448.48291)"/></clipPath><clipPath id="cG"><path d="m0 500h751.5v-500h-751.5z" transform="translate(-575.37991 -250.81011)"/></clipPath><clipPath id="cH"><path d="m0 500h751.5v-500h-751.5z" transform="translate(-575.37991 -250.6401)"/></clipPath><clipPath id="cI"><path d="m0 500h751.5v-500h-751.5z" transform="translate(-170.8198 -247.1904)"/></clipPath><clipPath id="cJ"><path d="m0 500h751.5v-500h-751.5z" transform="translate(-170.8198 -247.1904)"/></clipPath><clipPath id="cK"><path d="m0 500h751.5v-500h-751.5z" transform="translate(-170.8198 -247.01951)"/></clipPath><clipPath id="cL"><path d="m0 500h751.5v-500h-751.5z" transform="translate(-404.37991 -395.43991)"/></clipPath><clipPath id="cM"><path d="m0 500h751.5v-500h-751.5z" transform="translate(-421.62991 -362.12991)"/></clipPath><clipPath id="cN"><path d="m0 500h751.5v-500h-751.5z" transform="translate(-406.17971 -328.37011)"/></clipPath><clipPath id="cO"><path d="m0 500h751.5v-500h-751.5z" transform="translate(-325.14991 -132.8496)"/></clipPath><clipPath id="cP"><path d="m0 500h751.5v-500h-751.5z" transform="translate(-422.23051 -119.6504)"/></clipPath><clipPath id="cQ"><path d="m0 500h751.5v-500h-751.5z" transform="translate(-376.18991 -385.54981)"/></clipPath><path d="m0 0h751.5v500h-751.5z" fill="#0071bc" transform="matrix(1.3333333 0 0 -1.3333333 0 666.66667)"/><g stroke="#000"><g stroke-width="1.935"><path clip-path="url(#a)" d="m0 0s17.632 18.649 34.585 15.089c5.087 19.666 24.244 21.192 24.244 21.192s-1.865 21.7 22.718 26.448c.679 14.75 15.598 26.957 15.598 26.957s-3.052 22.886 12.545 28.142c-9.494 18.141 3.221 31.365 3.052 31.704-.17.339-16.106 28.652-1.865 36.789-15.089 12.716-10.172 27.126-10.172 27.126s-16.445 4.239-10.512 23.905c-13.562 2.374-16.275 24.244-16.275 24.244s-20.854-4.239-23.397 13.902c-13.732-2.204-15.257 11.359-15.427 11.359-.169 0-27.295-7.29-32.721 13.224-10.511-5.426-15.089 4.238-15.089 4.238s-15.089-7.46-24.074 6.951c-17.971-11.189-27.973.509-27.973.509s-23.566-15.597-31.364-3.56c-13.903-14.072-26.279-7.969-26.279-7.969s-10.511-18.649-27.465-13.902c-3.899-17.292-23.396-17.632-23.396-17.632s2.035-15.258-21.361-19.327c-3.052-17.971-15.259-21.022-15.259-21.022s1.187-17.463-9.833-23.057c3.899-9.834-6.273-21.871-6.273-21.871s10.85-13.563-3.899-28.821c14.241-3.73 3.899-28.312 3.899-28.312s19.666-8.817 7.29-25.092c14.072-4.577 9.664-15.768 9.833-22.379 8.986-4.068 16.954-2.034 13.055-20.175 27.634-3.052 14.58-18.31 14.58-18.31s12.884-.508 7.798-10.681c23.566.509 26.957-17.632 26.957-17.632s21.87 5.765 24.752-2.712-9.494-65.611-9.494-65.611-18.479 0-32.212 14.75c-32.212.848-25.091 22.04-25.6 22.04-.508 0-10.681-3.9-15.936 13.732-21.531-4.408-20.853 13.732-21.023 13.902s-9.664 4.408-6.103 13.393c-22.21-2.034-20.514 19.666-20.514 19.666-4.86 1.979-6.669 6.499-5.934 11.021-2.882 1.017-22.548 1.356-12.376 27.295-18.819 11.359-7.121 24.414-7.121 24.414s-25.939 13.392-5.934 28.821c-14.919 22.04 1.187 33.059 1.187 33.059s-20.683 21.023.339 35.942c-3.39 31.873 15.597 39.502 15.597 39.502s-10.002 25.939 17.124 36.79c1.695 26.278 20.684 26.956 20.684 26.956s.508 20.854 30.346 18.819c5.765 18.649 26.109 14.919 26.109 14.919s6.273 22.549 33.907 11.698c14.072 27.465 34.925 13.394 34.925 13.394s13.224 8.646 19.836 5.933c8.396 14.429 26.27.56 37.826-2.233 4.189 1.629 19.139 12.914 30.667-1.327 15.258 10.003 28.313-7.968 28.313-7.968s21.022 10.681 30.855-13.732c44.589 4.068 38.147-25.092 38.147-25.092s35.093 7.968 27.465-26.956c31.873-2.204 28.651-23.227 28.651-23.227s20.175-15.258 11.359-28.991c17.971-.848 11.359-18.14 11.359-18.14s13.732-5.256 2.374-26.617c26.278-21.023 5.086-41.876 4.916-41.707-.169.17 14.072-16.954 1.187-36.62 3.9-31.195-11.868-39.163-11.868-39.163s4.069-20.174-13.562-25.939c-.339-23.736-22.718-26.617-22.718-26.617s5.933-10.31-16.277-21.16c-.876-15.882-24.074-17.156-24.074-17.156s-2.203-29.16-31.703-21.361c-7.159-23.397-41.706-16.445-42.384-16.107-.678.339-6.612 50.183-6.612 50.353" fill="#fff" transform="matrix(1.3333333 0 0 -1.3333333 581.08987 527.39187)"/><g fill="none"><path clip-path="url(#b)" d="m0 0s-2.616-5.031 7.85-9.459" transform="matrix(1.3333333 0 0 -1.3333333 636.01307 560.09373)"/><path clip-path="url(#c)" d="m0 0s11.673 2.818 19.521 0" transform="matrix(1.3333333 0 0 -1.3333333 663.92053 544.25387)"/><path clip-path="url(#d)" d="m0 0c0-.202-1.609-5.233 7.648-12.479" transform="matrix(1.3333333 0 0 -1.3333333 710.3464 505.07947)"/><path clip-path="url(#e)" d="m0 0s6.843-5.031 18.314-4.83" transform="matrix(1.3333333 0 0 -1.3333333 719.20053 487.64067)"/><path clip-path="url(#f)" d="m0 0s.402-13.283-6.44-19.522" transform="matrix(1.3333333 0 0 -1.3333333 627.16013 507.22653)"/><path clip-path="url(#g)" d="m0 0s11.271-2.818 20.529 1.811" transform="matrix(1.3333333 0 0 -1.3333333 657.74613 479.8528)"/><path clip-path="url(#h)" d="m0 0s2.415-3.421 14.894-2.817" transform="matrix(1.3333333 0 0 -1.3333333 754.07947 453.8268)"/><path clip-path="url(#i)" d="m0 0c.402-.202 14.691-4.831 23.749-.604" transform="matrix(1.3333333 0 0 -1.3333333 689.1472 443.35933)"/><path clip-path="url(#j)" d="m0 0s.604.805 5.032-14.692" transform="matrix(1.3333333 0 0 -1.3333333 727.2396 370.35933)"/><path clip-path="url(#k)" d="m0 0s-.604-8.251-7.245-11.874" transform="matrix(1.3333333 0 0 -1.3333333 742 312.13347)"/><path clip-path="url(#l)" d="m0 0s-9.66-7.849-7.849-11.069" transform="matrix(1.3333333 0 0 -1.3333333 798.62627 267.05333)"/><path clip-path="url(#m)" d="m0 0s5.031-8.453-3.22-14.289" transform="matrix(1.3333333 0 0 -1.3333333 734.49347 259.5332)"/><path clip-path="url(#n)" d="m0 0s8.654.403 12.479-7.044" transform="matrix(1.3333333 0 0 -1.3333333 702.026 211.24027)"/><path clip-path="url(#o)" d="m0 0c0-.201 1.812-1.811-1.61-5.233" transform="matrix(1.3333333 0 0 -1.3333333 726.1732 138.2532)"/><path clip-path="url(#p)" d="m0 0s4.629-7.245 3.824-16.101" transform="matrix(1.3333333 0 0 -1.3333333 643.7864 139.32027)"/><path clip-path="url(#q)" d="m0 0c2.012.201 8.855 3.22 8.855 3.22" transform="matrix(1.3333333 0 0 -1.3333333 679.48053 106.58267)"/><path clip-path="url(#r)" d="m0 0c-.201 0-2.617-9.056 1.812-12.277" transform="matrix(1.3333333 0 0 -1.3333333 639.7604 68.2096)"/><path clip-path="url(#s)" d="m0 0c0-9.661 7.648-7.245 2.415-16.503" transform="matrix(1.3333333 0 0 -1.3333333 625 123.22)"/><path clip-path="url(#t)" d="m0 0c-.201 0-12.075-9.258-12.075-10.868" transform="matrix(1.3333333 0 0 -1.3333333 600.05333 112.48693)"/><path clip-path="url(#u)" d="m0 0s5.031-5.031 3.824-11.874" transform="matrix(1.3333333 0 0 -1.3333333 558.72 105.77733)"/><path clip-path="url(#v)" d="m0 0c-.201-.403-4.227-9.057-7.044-10.667" transform="matrix(1.3333333 0 0 -1.3333333 503.44013 97.726533)"/><path clip-path="url(#w)" d="m0 0c.201 0 4.025-8.05-1.006-13.887" transform="matrix(1.3333333 0 0 -1.3333333 454.61333 97.996133)"/><path clip-path="url(#x)" d="m0 0c.201-.402 10.264-2.012 10.264-2.012" transform="matrix(1.3333333 0 0 -1.3333333 367.66667 142.54693)"/><path clip-path="url(#y)" d="m0 0c.201.201 12.277 3.824 12.277 3.824" transform="matrix(1.3333333 0 0 -1.3333333 334.11973 173.66667)"/><path clip-path="url(#z)" d="m0 0c.403 0 8.453-1.409 10.465-.402" transform="matrix(1.3333333 0 0 -1.3333333 308.09307 193.80013)"/><path clip-path="url(#A)" d="m0 0s2.616-1.409.402-14.893" transform="matrix(1.3333333 0 0 -1.3333333 300.5736 203.72)"/><path clip-path="url(#B)" d="m0 0 4.83-7.245" transform="matrix(1.3333333 0 0 -1.3333333 248.2532 156.49347)"/><path clip-path="url(#C)" d="m0 0c0 .202 4.83-7.245 11.271-8.654" transform="matrix(1.3333333 0 0 -1.3333333 226.24027 206.13347)"/><path clip-path="url(#D)" d="m0 0c.201 0 7.849 1.61 9.057 2.415" transform="matrix(1.3333333 0 0 -1.3333333 276.96027 256.58653)"/><path clip-path="url(#E)" d="m0 0c.202 0-.201 5.032 6.038 8.453" transform="matrix(1.3333333 0 0 -1.3333333 272.39973 293.08013)"/><path clip-path="url(#F)" d="m0 0c0-.201 5.837-7.447 9.862-8.453" transform="matrix(1.3333333 0 0 -1.3333333 261.39973 309.72)"/><path clip-path="url(#G)" d="m0 0c.604.202 6.843 5.636 14.088 5.233" transform="matrix(1.3333333 0 0 -1.3333333 256.83987 328.24027)"/><path clip-path="url(#H)" d="m0 0s.201-6.239 18.717-4.63" transform="matrix(1.3333333 0 0 -1.3333333 254.14653 353.18613)"/><path clip-path="url(#I)" d="m0 0c0 .201 5.434 12.479 16.503 17.107" transform="matrix(1.3333333 0 0 -1.3333333 256.5736 382.44013)"/><path clip-path="url(#J)" d="m0 0s1.61 5.233 10.868 8.855" transform="matrix(1.3333333 0 0 -1.3333333 276.4264 403.37373)"/><path clip-path="url(#K)" d="m0 0s6.642 5.434 9.057 6.238" transform="matrix(1.3333333 0 0 -1.3333333 290.1068 431.01307)"/><path clip-path="url(#L)" d="m0 0s4.025-4.226 14.088 3.02" transform="matrix(1.3333333 0 0 -1.3333333 301.11973 452.48053)"/><path clip-path="url(#M)" d="m0 0c1.208.201 15.899 3.623 20.931-4.025" transform="matrix(1.3333333 0 0 -1.3333333 236.44013 457.0404)"/><path clip-path="url(#N)" d="m0 0s15.497 2.013 17.51.403" transform="matrix(1.3333333 0 0 -1.3333333 244.22653 473.1472)"/><path clip-path="url(#O)" d="m0 0s-2.012-4.227 17.107 2.817" transform="matrix(1.3333333 0 0 -1.3333333 318.01307 477.44013)"/><path clip-path="url(#P)" d="m0 0c-3.421-5.836.805-10.465-3.623-13.082" transform="matrix(1.3333333 0 0 -1.3333333 349.67973 487.64067)"/><path clip-path="url(#Q)" d="m0 0c.604.402 7.044 2.616 6.038 11.874" transform="matrix(1.3333333 0 0 -1.3333333 272.13347 498.37373)"/><path clip-path="url(#R)" d="m0 0c.805.201 11.472 4.83 13.686 2.415" transform="matrix(1.3333333 0 0 -1.3333333 279.91987 516.88027)"/><path clip-path="url(#S)" d="m0 0s1.409 9.46 4.428 10.466" transform="matrix(1.3333333 0 0 -1.3333333 307.8268 534.8672)"/><path clip-path="url(#T)" d="m0 0s8.855.202 12.679 3.02" transform="matrix(1.3333333 0 0 -1.3333333 329.2936 553.92053)"/><path clip-path="url(#U)" d="m0 0c.202-.201 8.252-4.427 25.359-.201" transform="matrix(1.3333333 0 0 -1.3333333 352.09307 511.25387)"/><path clip-path="url(#V)" d="m0 0s2.416-12.277 2.214-15.094" transform="matrix(1.3333333 0 0 -1.3333333 360.67973 562.50653)"/><path clip-path="url(#W)" d="m0 0h6.642" transform="matrix(1.3333333 0 0 -1.3333333 680.28 178.49347)"/><path clip-path="url(#X)" d="m0 0s-2.616-7.647-6.037-9.66" transform="matrix(1.3333333 0 0 -1.3333333 539.1328 100.4108)"/><path clip-path="url(#Y)" d="m0 0c.201-.201.805-6.239-3.019-11.472" transform="matrix(1.3333333 0 0 -1.3333333 443.33333 42.447867)"/><path clip-path="url(#Z)" d="m0 0c0-.201 1.61-6.843-9.056-9.057" transform="matrix(1.3333333 0 0 -1.3333333 395.03973 60.696)"/></g></g><g fill="#f7df73" stroke-linejoin="round"><path clip-path="url(#aa)" d="m0 0s100.53 28.396 130.891 151.779c-17.626-126.649-127.63-166.79-127.63-166.79l-3.265 15.016z" stroke-width="2.419" transform="matrix(1.3333333 0 0 -1.3333333 586.29293 564.90627)"/><path clip-path="url(#ab)" d="m0 0s-99.612 28.908-129.69 154.51c17.464-128.92 126.46-169.79 126.46-169.79l3.234 15.285z" stroke-width="2.429" transform="matrix(1.3333333 0 0 -1.3333333 410.60027 561.3464)"/></g></g><path clip-path="url(#ac)" d="m0 0c3.107 0 10.794 8.505 15.21 9.486 4.416.982 4.906 5.398-.164 5.561-5.069.163-9.485-5.725-9.485-5.725s-4.416-3.761-8.996-4.252-1.635-6.215 3.435-5.07" fill="#8c1800" transform="matrix(1.3333333 0 0 -1.3333333 600.0404 575.16013)"/><path clip-path="url(#ad)" d="m0 0s-3.107 1.145 4.906 4.252c8.014 3.107 7.524 6.706 10.14 8.178 2.617 1.471 8.178 5.397 9.322 3.107 1.146-2.29-5.888-6.869-7.522-7.359-1.636-.491-9.65-7.851-11.94-8.505-2.289-.654-3.925-.327-4.906.327" fill="#8c1800" transform="matrix(1.3333333 0 0 -1.3333333 628.60027 554.22653)"/><path clip-path="url(#ae)" d="m0 0c-3.079 0-10.695 8.657-15.071 9.656s-4.862 5.494.162 5.661c5.023.166 9.399-5.827 9.399-5.827s4.375-3.83 8.912-4.329c4.538-.5 1.621-6.326-3.402-5.161z" fill="#8c1800" transform="matrix(1.3333333 0 0 -1.3333333 396.98693 571.7864)"/><path clip-path="url(#af)" d="m0 0s3.079 1.166-4.861 4.329c-7.941 3.163-7.454 6.826-10.047 8.324-2.593 1.499-8.103 5.494-9.237 3.164-1.134-2.331 5.834-6.993 7.454-7.492 1.621-.5 9.562-7.992 11.83-8.658 2.269-.666 3.889-.333 4.862.333z" fill="#8c1800" transform="matrix(1.3333333 0 0 -1.3333333 368.67973 550.48053)"/><path clip-path="url(#ag)" d="m0 0s-10.467-6.051-8.995-7.522c1.472-1.473 10.794 5.723 10.958 5.887.163.163 3.925 4.742-1.963 1.635" fill="#8c1800" stroke="#8c1800" stroke-width="2.419" transform="matrix(1.3333333 0 0 -1.3333333 677.22653 517.5872)"/><path clip-path="url(#ah)" d="m0 0s10.371-6.16 8.913-7.659c-1.459-1.498-10.695 5.827-10.857 5.994-.162.166-3.889 4.828 1.944 1.665z" fill="#8c1800" transform="matrix(1.3333333 0 0 -1.3333333 320.49347 513.18613)"/><path clip-path="url(#ai)" d="m0 0s10.371-6.16 8.913-7.659c-1.459-1.498-10.695 5.827-10.857 5.994-.162.166-3.889 4.828 1.944 1.665z" fill="none" stroke="#8c1800" stroke-width="2.429" transform="matrix(1.3333333 0 0 -1.3333333 320.49347 513.18613)"/><path clip-path="url(#aj)" d="m0 0c-6.869-7.687-6.869-7.523-6.869-7.523" fill="none" stroke="#8c1800" stroke-linecap="round" stroke-width="3.144" transform="matrix(1.3333333 0 0 -1.3333333 697.94667 497.09373)"/><path clip-path="url(#ak)" d="m0 0-6.542-8.014" fill="none" stroke="#8c1800" stroke-linecap="round" stroke-width="2.902" transform="matrix(1.3333333 0 0 -1.3333333 711.67973 480.30733)"/><path clip-path="url(#al)" d="m0 0-7.36-11.776" fill="none" stroke="#8c1800" stroke-linecap="round" stroke-width="2.66" transform="matrix(1.3333333 0 0 -1.3333333 725.42707 458.49347)"/><path clip-path="url(#am)" d="m0 0-6.052-12.103" fill="none" stroke="#8c1800" stroke-linecap="round" stroke-width="2.419" transform="matrix(1.3333333 0 0 -1.3333333 736.98693 436.25387)"/><path clip-path="url(#an)" d="m0 0-1.963-4.252" fill="none" stroke="#8c1800" stroke-linecap="round" stroke-width="2.419" transform="matrix(1.3333333 0 0 -1.3333333 742.2136 424.48053)"/><path clip-path="url(#ao)" d="m0 0-1.636-5.07" fill="none" stroke="#8c1800" stroke-linecap="round" stroke-width="1.451" transform="matrix(1.3333333 0 0 -1.3333333 748.1068 409)"/><path clip-path="url(#ap)" d="m0 0c6.806-7.825 6.806-7.658 6.806-7.658" fill="none" stroke="#8c1800" stroke-linecap="round" stroke-width="3.158" transform="matrix(1.3333333 0 0 -1.3333333 299.97333 492.32027)"/><path clip-path="url(#aq)" d="m0 0 6.482-8.158" fill="none" stroke="#8c1800" stroke-linecap="round" stroke-width="2.915" transform="matrix(1.3333333 0 0 -1.3333333 286.36 475.22653)"/><path clip-path="url(#ar)" d="m0 0 7.292-11.987" fill="none" stroke="#8c1800" stroke-linecap="round" stroke-width="2.672" transform="matrix(1.3333333 0 0 -1.3333333 272.7468 453.026)"/><path clip-path="url(#as)" d="m0 0 5.996-12.32" fill="none" stroke="#8c1800" stroke-linecap="round" stroke-width="2.429" transform="matrix(1.3333333 0 0 -1.3333333 261.2936 430.38667)"/><path clip-path="url(#at)" d="m0 0 1.944-4.329" fill="none" stroke="#8c1800" stroke-linecap="round" stroke-width="2.429" transform="matrix(1.3333333 0 0 -1.3333333 256.1068 418.39973)"/><path clip-path="url(#au)" d="m0 0 1.621-5.16" fill="none" stroke="#8c1800" stroke-linecap="round" stroke-width="1.457" transform="matrix(1.3333333 0 0 -1.3333333 250.28 402.64067)"/><path clip-path="url(#av)" d="m0 0c.086 0 7.477-6.41 6.096-16.07-1.38-9.66-6.959-23.09-5.837-33.095.685-4.011.426-11.198.426-11.198s-6.7 9.52-6.787 19.698c-.086 10.179 7.255 19.842 7.255 27.346 0 7.505-1.326 13.492-1.153 13.319" fill="#217900" stroke="#000" stroke-linejoin="round" stroke-width="1.935" transform="matrix(1.3333333 0 0 -1.3333333 295.41347 154.32027)"/><path clip-path="url(#aw)" d="m0 0s-9.698-9.258-10.947-18.255c-.922-4.638-1.28-26.247-1.389-35.839-.218-2.943-1.437-14.558-1.697-18.785-.258-4.226 7.135 7.215 7.557 16.53-.231 9.642-.232 29.953.749 33.005.872 3.924.682 8.259 2.031 12.194 1.784 5.461 3.782 11.064 3.696 11.15" fill="#217900" stroke="#000" stroke-linejoin="round" stroke-width="1.935" transform="matrix(1.3333333 0 0 -1.3333333 290.5332 158.16013)"/><path clip-path="url(#ax)" d="m0 0s6.574-9.103 7.754-14.328 3.371-15.508 6.237-19.722c2.865-4.214 19.216-27.644 20.058-37.421.169-6.405-6.742-17.362-17.025-17.529-6.405.167-22.923 4.381-23.598 18.541-.675 14.159 5.056 14.497 5.731 23.093.674 8.597.843 47.197.843 47.366z" fill="none" stroke="#6b18b5" stroke-linejoin="round" stroke-width="1.935" transform="matrix(1.3333333 0 0 -1.3333333 205.88027 240.41347)"/><path clip-path="url(#ay)" d="m0 0s-6.806-.485-12.046-3.326c-4.06-2.504-10.937-6.106-15.743-12.769-12.223-9.529-30.612-13.975-36.412-21.891-3.472-5.386-3.258-18.338 5.44-23.823 5.561-3.184 21.865-8.165 29.797 3.583s3.21 15.015 7.1 22.71c6.418 17.641 21.776 35.372 21.864 35.517z" fill="none" stroke="#6b18b5" stroke-linejoin="round" transform="matrix(1.3333333 0 0 -1.3333333 356.4668 75.147733)"/><path clip-path="url(#az)" d="m0 0s-5.084 4.552-10.77 6.34c-4.622 1.175-12.322.664-20.288 1.446-15.347 2.152-31.171 13.253-40.891 11.912-6.284-1.252-15.442-10.416-13.331-20.481 1.58-6.21 8.525-18.768 22.483-16.294 13.957 2.474 13.837 5.519 22.071 8.077 20.085 11.263 40.561 8.962 40.725 9z" fill="none" stroke="#6b18b5" stroke-linejoin="round" transform="matrix(1.3333333 0 0 -1.3333333 576.5872 52.221333)"/><path clip-path="url(#aA)" d="m0 0c1.146 2.619-.964 7.542-2.463 13.311-1.456 4.542-3.628 11.592-8.942 17.858-6.315 14.154-5.233 33.564-11.524 41.094-4.394 4.663-17.019 7.567-24.433.44-4.426-4.633-13.177-19.264-3.677-29.785 9.499-10.521 13.64-6.558 20.176-12.182 15.583-10.467 23.215-28.816 30.863-30.736z" fill="none" stroke="#6b18b5" stroke-linejoin="round" transform="matrix(1.3333333 0 0 -1.3333333 794.90627 264.39973)"/><path clip-path="url(#aB)" d="m0 0c2.128 2.947 5.938 8.625 5.485 13.354-.358 3.747 1.717 15.101 1.944 20.055 1.408 15.435 11.069 27.962 8.442 41.372-1.555 6.217-10.658 15.083-20.61 12.49-6.126-1.879-19.765-9.385-16.619-23.207 3.145-13.822 7.611-13.592 10.565-21.694 8.48-16.748 3.054-36.641 10.793-42.37z" fill="none" stroke="#6b18b5" stroke-linejoin="round" transform="matrix(1.3333333 0 0 -1.3333333 787.45307 429.25387)"/><g fill="#6b18b5"><path clip-path="url(#aC)" d="m0 0c.001 2.178-2.449 3.943-5.471 3.943s-5.472-1.765-5.471-3.943c-.001-2.178 2.449-3.943 5.471-3.943s5.472 1.765 5.471 3.943" transform="matrix(1.3333333 0 0 -1.3333333 493.0664 35.946667)"/><path clip-path="url(#aD)" d="m0 0c0 2.088-2.522 3.781-5.632 3.781-3.111 0-5.632-1.693-5.632-3.781 0-2.089 2.521-3.782 5.632-3.782 3.11 0 5.632 1.693 5.632 3.782" transform="matrix(1.3333333 0 0 -1.3333333 496.1868 48.177067)"/><path clip-path="url(#aE)" d="m0 0s-6.437-4.828-3.781-6.759c2.655-1.93 9.976 4.184 9.976 4.184z" transform="matrix(1.3333333 0 0 -1.3333333 505.51947 33.694667)"/><path clip-path="url(#aF)" d="m0 0c.003 1.372-.641 2.641-1.687 3.328-1.045.687-2.334.687-3.379 0-1.046-.687-1.689-1.956-1.687-3.328-.003-1.373.641-2.642 1.687-3.328 1.045-.687 2.334-.687 3.379 0 1.046.686 1.689 1.955 1.687 3.328" transform="matrix(1.3333333 0 0 -1.3333333 757.74613 181.0664)"/><path clip-path="url(#aG)" d="m0 0c0 2.289-1.581 4.144-3.53 4.144-1.95 0-3.531-1.855-3.531-4.144s1.581-4.145 3.531-4.145c1.949 0 3.53 1.856 3.53 4.145" transform="matrix(1.3333333 0 0 -1.3333333 754.48053 168.7864)"/><path clip-path="url(#aH)" d="m0 0c0 1.187-.618 2.149-1.381 2.149-.764 0-1.382-.962-1.382-2.149s.618-2.149 1.382-2.149c.763 0 1.381.962 1.381 2.149" transform="matrix(1.3333333 0 0 -1.3333333 756.73307 193.75973)"/><path clip-path="url(#aI)" d="m0 0c0 1.356-.619 2.456-1.382 2.456s-1.382-1.1-1.382-2.456.619-2.456 1.382-2.456 1.382 1.1 1.382 2.456" transform="matrix(1.3333333 0 0 -1.3333333 764.30733 171.45307)"/><path clip-path="url(#aJ)" d="m0 0c0 1.102-.618 1.995-1.381 1.995-.764 0-1.382-.893-1.382-1.995s.618-1.996 1.382-1.996c.763 0 1.381.894 1.381 1.996" transform="matrix(1.3333333 0 0 -1.3333333 743.62627 173.7064)"/><path clip-path="url(#aK)" d="m0 0c.001 1.781-1.305 3.225-2.916 3.225s-2.917-1.444-2.916-3.225c-.001-1.781 1.305-3.225 2.916-3.225s2.917 1.444 2.916 3.225" transform="matrix(1.3333333 0 0 -1.3333333 746.90627 191.30667)"/><path clip-path="url(#aL)" d="m0 0c0 1.526-1.1 2.763-2.456 2.763-1.357 0-2.456-1.237-2.456-2.763s1.099-2.763 2.456-2.763c1.356 0 2.456 1.237 2.456 2.763" transform="matrix(1.3333333 0 0 -1.3333333 736.66667 183.52013)"/><path clip-path="url(#aM)" d="m0 0c.001.823-.408 1.584-1.074 1.996-.665.412-1.486.412-2.151 0s-1.074-1.173-1.073-1.996c-.001-.824.408-1.585 1.073-1.997s1.486-.412 2.151 0c.666.413 1.075 1.173 1.074 1.997" transform="matrix(1.3333333 0 0 -1.3333333 735.0404 173.09307)"/><path clip-path="url(#aN)" d="m0 0c-3.17 4.185-8.246 5.948-11.337 3.938-3.09-2.009-3.025-7.03.145-11.215 3.171-4.184 8.246-5.947 11.337-3.938 3.09 2.009 3.026 7.03-.145 11.215" transform="matrix(1.3333333 0 0 -1.3333333 781.69267 226.16013)"/><path clip-path="url(#aO)" d="m0 0c.614 5.135-1.89 9.656-5.594 10.099-3.703.443-7.204-3.36-7.818-8.495-.614-5.134 1.89-9.655 5.594-10.099 3.703-.443 7.204 3.361 7.818 8.495" transform="matrix(1.3333333 0 0 -1.3333333 793.70707 329.08013)"/><path clip-path="url(#aP)" d="m0 0c1.056 5.062-1.049 9.783-4.7 10.544-3.652.762-7.467-2.726-8.523-7.787-1.055-5.063 1.049-9.783 4.701-10.544 3.651-.762 7.467 2.725 8.522 7.787" transform="matrix(1.3333333 0 0 -1.3333333 796.2396 389)"/><path clip-path="url(#aQ)" d="m0 0c0 2.035-1.374 3.684-3.069 3.684-1.696 0-3.071-1.649-3.071-3.684s1.374-3.684 3.071-3.684c1.695 0 3.069 1.649 3.069 3.684" transform="matrix(1.3333333 0 0 -1.3333333 807.7864 332.91987)"/><path clip-path="url(#aR)" d="m0 0-6.294-7.138s-5.909-.153-5.602-2.072c.307-1.918 8.135-7.675 8.058-9.977-.076-2.302 5.219.538 5.219.538s4.222 12.816 4.222 12.892c0 .077-.231 8.903-2.534 8.749-2.301-.153-2.925-2.83-3.069-2.993z" transform="matrix(1.3333333 0 0 -1.3333333 797.7604 344.1732)"/><path clip-path="url(#aS)" d="m0 0c0 1.653-1.341 2.995-2.995 2.995s-2.995-1.342-2.995-2.995c0-1.654 1.341-2.995 2.995-2.995s2.995 1.341 2.995 2.995" transform="matrix(1.3333333 0 0 -1.3333333 245.83987 340.4128)"/><path clip-path="url(#aT)" d="m0 0c0 1.746-1.341 3.162-2.995 3.162s-2.995-1.416-2.995-3.162 1.341-3.162 2.995-3.162 2.995 1.416 2.995 3.162" transform="matrix(1.3333333 0 0 -1.3333333 249.61333 328.2136)"/><path clip-path="url(#aU)" d="m0 0c-1.123 2.518-3.462 3.921-5.225 3.135-1.762-.786-2.28-3.465-1.157-5.983 1.123-2.517 3.463-3.921 5.225-3.134 1.762.786 2.281 3.464 1.157 5.982" transform="matrix(1.3333333 0 0 -1.3333333 216.8132 270.1732)"/><path clip-path="url(#aV)" d="m0 0c-1.543 3.263-4.757 5.083-7.178 4.063-2.421-1.019-3.133-4.49-1.59-7.753 1.544-3.264 4.757-5.083 7.178-4.064 2.422 1.019 3.133 4.491 1.59 7.754" transform="matrix(1.3333333 0 0 -1.3333333 226.72 306.33333)"/><path clip-path="url(#aW)" d="m0 0c.5 4.076-1.189 7.82-3.772 8.363-2.584.542-5.083-2.321-5.583-6.398-.5-4.075 1.189-7.819 3.772-8.362s5.083 2.321 5.583 6.397" transform="matrix(1.3333333 0 0 -1.3333333 237.32027 332.83987)"/><path clip-path="url(#aX)" d="m0 0c1.598 3.783 1 7.847-1.336 9.076-2.336 1.23-5.524-.839-7.122-4.622s-1-7.847 1.336-9.076c2.335-1.231 5.524.84 7.122 4.622" transform="matrix(1.3333333 0 0 -1.3333333 220.30667 336.72)"/><path clip-path="url(#aY)" d="m0 0c0 1.93-1.49 3.495-3.328 3.495s-3.328-1.565-3.328-3.495 1.49-3.494 3.328-3.494 3.328 1.564 3.328 3.494" transform="matrix(1.3333333 0 0 -1.3333333 212.55987 325.32027)"/><path clip-path="url(#aZ)" d="m0 0c0 1.746-1.341 3.162-2.995 3.162s-2.995-1.416-2.995-3.162 1.341-3.162 2.995-3.162 2.995 1.416 2.995 3.162" transform="matrix(1.3333333 0 0 -1.3333333 209.01307 313.7864)"/><path clip-path="url(#a0)" d="m0 0c0 2.941-1.304 5.325-2.912 5.325-1.609 0-2.912-2.384-2.912-5.325 0-2.94 1.303-5.325 2.912-5.325 1.608 0 2.912 2.385 2.912 5.325" transform="matrix(1.3333333 0 0 -1.3333333 212.77347 291.60027)"/><path clip-path="url(#a1)" d="m0 0c.388 2.915-.59 5.45-2.184 5.662-1.594.213-3.201-1.979-3.589-4.894s.59-5.45 2.184-5.662 3.201 1.979 3.589 4.894" transform="matrix(1.3333333 0 0 -1.3333333 224.72 289.8932)"/><path clip-path="url(#a2)" d="m0 0c1.187 4.128-.037 8.277-2.734 9.267s-5.845-1.554-7.032-5.683c-1.187-4.128.037-8.277 2.734-9.267s5.845 1.555 7.032 5.683" transform="matrix(1.3333333 0 0 -1.3333333 309.85347 120.056)"/><path clip-path="url(#a3)" d="m0 0c3.557 3.027 5.076 7.212 3.394 9.349-1.683 2.136-5.93 1.414-9.486-1.613-3.557-3.028-5.076-7.213-3.394-9.349s5.929-1.414 9.486 1.613" transform="matrix(1.3333333 0 0 -1.3333333 293.69333 144.55987)"/><path clip-path="url(#a4)" d="m0 0c3.517 2.598 5.02 6.191 3.356 8.025s-5.863 1.214-9.38-1.384c-3.518-2.599-5.02-6.192-3.356-8.026 1.663-1.834 5.863-1.214 9.38 1.385" transform="matrix(1.3333333 0 0 -1.3333333 284.2532 130.95573)"/><path clip-path="url(#a5)" d="m0 0c2.372 1.813 3.385 4.32 2.263 5.6-1.122 1.279-3.954.846-6.325-.967-2.373-1.813-3.386-4.32-2.264-5.599 1.122-1.28 3.954-.847 6.326.966" transform="matrix(1.3333333 0 0 -1.3333333 320.61333 107.04107)"/><path clip-path="url(#a6)" d="m0 0c1.622 2.506 1.731 5.208.243 6.035-1.487.826-4.008-.535-5.63-3.042-1.622-2.506-1.731-5.208-.243-6.035 1.487-.826 4.008.536 5.63 3.042" transform="matrix(1.3333333 0 0 -1.3333333 301.66667 130.21227)"/><path clip-path="url(#a7)" d="m0 0c2.551 2.149 3.544 4.997 2.22 6.36-1.325 1.363-4.467.725-7.017-1.424-2.551-2.15-3.544-4.998-2.22-6.36 1.325-1.364 4.467-.725 7.017 1.424" transform="matrix(1.3333333 0 0 -1.3333333 329.01307 115.8932)"/><path clip-path="url(#a8)" d="m0 0c2.384.119 4.184 1.307 4.02 2.653s-2.23 2.341-4.614 2.222c-2.385-.119-4.184-1.307-4.02-2.653s2.23-2.341 4.614-2.222" transform="matrix(1.3333333 0 0 -1.3333333 279.58653 149.2936)"/><path clip-path="url(#a9)" d="m0 0c1.622 2.506 1.731 5.208.244 6.035-1.488.826-4.009-.535-5.631-3.042-1.621-2.506-1.73-5.208-.243-6.035 1.487-.826 4.008.536 5.63 3.042" transform="matrix(1.3333333 0 0 -1.3333333 339.4264 98.141333)"/></g><path clip-path="url(#ba)" d="m0 0s12.574 5.8 16.169 16.603c3.594 10.802-10.882 10.906-12.795 7.473-1.913-3.434 1.631-11.983.719-14.243-.913-2.26-6.029-7.716-4.093-9.833" fill="#ffd200" stroke="#ef8a10" stroke-width="1.935" transform="matrix(1.3333333 0 0 -1.3333333 574.98693 117.83333)"/><path clip-path="url(#bb)" d="m0 0s8.163 11.186 6.047 22.372c-2.117 11.186-14.814 4.232-14.814.302s7.256-9.674 7.558-12.093c.302-2.418-1.512-9.674 1.209-10.581z" fill="#ffd200" transform="matrix(1.3333333 0 0 -1.3333333 426.39973 123.08787)"/><path clip-path="url(#bc)" d="m0 0s8.163 11.186 6.047 22.372c-2.117 11.186-14.814 4.232-14.814.302s7.256-9.674 7.558-12.093c.302-2.418-1.512-9.674 1.209-10.581z" fill="none" stroke="#ef8a10" stroke-width="2.419" transform="matrix(1.3333333 0 0 -1.3333333 426.39973 123.08787)"/><path clip-path="url(#bd)" d="m0 0s8.163 11.186 6.046 22.372c-2.116 11.186-14.814 4.232-14.814.302s7.256-9.674 7.559-12.093c.302-2.418-1.512-9.674 1.209-10.581" fill="#ffd200" stroke="#ef8a10" stroke-width="2.419" transform="matrix(1.3333333 0 0 -1.3333333 396.97333 131.95573)"/><path clip-path="url(#be)" d="m0 0s8.163 11.186 6.046 22.372c-2.116 11.186-14.814 4.232-14.814.302s7.256-9.674 7.559-12.093c.302-2.418-1.512-9.674 1.209-10.581" fill="#ffd200" stroke="#ef8a10" stroke-width="2.419" transform="matrix(1.3333333 0 0 -1.3333333 364.32027 142.03973)"/><path clip-path="url(#bf)" d="m0 0s8.163 11.186 6.047 22.372c-2.117 11.186-14.814 4.232-14.814.302s7.256-9.674 7.558-12.093c.302-2.418-1.512-9.674 1.209-10.581" fill="#ffd200" stroke="#ef8a10" stroke-width="2.419" transform="matrix(1.3333333 0 0 -1.3333333 341.3464 165.01307)"/><path clip-path="url(#bg)" d="m0 0s8.163 11.186 6.046 22.372c-2.116 11.186-14.814 4.233-14.814.302 0-3.93 7.256-9.674 7.559-12.092.302-2.419-1.512-9.675 1.209-10.582z" fill="#ffd200" transform="matrix(1.3333333 0 0 -1.3333333 317.16013 187.1868)"/><path clip-path="url(#bh)" d="m0 0s8.163 11.186 6.046 22.372c-2.116 11.186-14.814 4.233-14.814.302 0-3.93 7.256-9.674 7.559-12.092.302-2.419-1.512-9.675 1.209-10.582z" fill="none" stroke="#ef8a10" stroke-width="2.419" transform="matrix(1.3333333 0 0 -1.3333333 317.16013 187.1868)"/><path clip-path="url(#bi)" d="m0 0s-10.87-8.579-11.84-19.922 13.13-8.06 14.187-4.275-4.387 11.269-4.027 13.68c.359 2.411 4.057 8.912 1.68 10.517z" fill="#ffd200" transform="matrix(1.3333333 0 0 -1.3333333 372.75973 58.025333)"/><path clip-path="url(#bj)" d="m0 0s-10.87-8.579-11.84-19.922 13.13-8.06 14.187-4.275-4.387 11.269-4.027 13.68c.359 2.411 4.057 8.912 1.68 10.517z" fill="none" stroke="#ef8a10" stroke-width="1.935" transform="matrix(1.3333333 0 0 -1.3333333 372.75973 58.025333)"/><path clip-path="url(#bk)" d="m0 0s-10.87-8.579-11.84-19.922 13.13-8.06 14.187-4.275-4.387 11.269-4.028 13.68c.36 2.411 4.058 8.912 1.681 10.517z" fill="#ffd200" transform="matrix(1.3333333 0 0 -1.3333333 421.13347 43.110667)"/><path clip-path="url(#bl)" d="m0 0s-10.87-8.579-11.84-19.922 13.13-8.06 14.187-4.275-4.387 11.269-4.028 13.68c.36 2.411 4.058 8.912 1.681 10.517z" fill="none" stroke="#ef8a10" stroke-width="1.935" transform="matrix(1.3333333 0 0 -1.3333333 421.13347 43.110667)"/><path clip-path="url(#bm)" d="m0 0s2.296-13.656 11.776-19.96 13.38 7.638 10.569 10.385-11.991 1.572-13.932 3.045c-1.941 1.474-5.863 7.842-8.414 6.53z" fill="#ffd200" stroke="#ef8a10" stroke-width="1.935" transform="matrix(1.3333333 0 0 -1.3333333 240.88027 173.69333)"/><path clip-path="url(#bn)" d="m0 0s.112-13.847 8.479-21.568c8.366-7.721 14.418 5.431 12.076 8.587-2.343 3.156-11.592 3.443-13.277 5.206-1.684 1.761-4.552 8.669-7.278 7.775z" fill="#ffd200" transform="matrix(1.3333333 0 0 -1.3333333 216.72 235.52013)"/><path clip-path="url(#bo)" d="m0 0s.112-13.847 8.479-21.568c8.366-7.721 14.418 5.431 12.076 8.587-2.343 3.156-11.592 3.443-13.277 5.206-1.684 1.761-4.552 8.669-7.278 7.775z" fill="none" stroke="#ef8a10" stroke-width="1.935" transform="matrix(1.3333333 0 0 -1.3333333 216.72 235.52013)"/><path clip-path="url(#bp)" d="m0 0s-4.942 12.936-15.479 17.248c-10.536 4.312-11.613-10.125-8.315-12.264 3.297-2.139 12.065.823 14.259-.24 2.193-1.063 7.293-6.533 9.535-4.744" fill="#ffd200" stroke="#ef8a10" stroke-width="1.935" transform="matrix(1.3333333 0 0 -1.3333333 272.45307 304.58653)"/><path clip-path="url(#bq)" d="m0 0s8.379 11.025 6.481 22.25-14.729 4.52-14.805.59c-.076-3.929 7.066-9.814 7.321-12.237.255-2.425-1.699-9.644 1.003-10.603z" fill="#ffd200" transform="matrix(1.3333333 0 0 -1.3333333 260.88027 274.73307)"/><path clip-path="url(#br)" d="m0 0s8.379 11.025 6.481 22.25-14.729 4.52-14.805.59c-.076-3.929 7.066-9.814 7.321-12.237.255-2.425-1.699-9.644 1.003-10.603z" fill="none" stroke="#ef8a10" stroke-width="1.935" transform="matrix(1.3333333 0 0 -1.3333333 260.88027 274.73307)"/><path clip-path="url(#bs)" d="m0 0s12.573 5.8 16.169 16.603c3.594 10.802-10.883 10.906-12.795 7.473-1.913-3.434 1.631-11.983.718-14.243-.912-2.26-6.029-7.716-4.092-9.833" fill="#ffd200" stroke="#ef8a10" stroke-width="1.935" transform="matrix(1.3333333 0 0 -1.3333333 609.25387 132.748)"/><path clip-path="url(#bt)" d="m0 0s7.396 11.707 4.537 22.726c-2.86 11.019-15.064 3.232-14.801-.689.263-3.922 7.886-9.168 8.35-11.561s-.861-9.754 1.914-10.477z" fill="#ffd200" stroke="#ef8a10" stroke-width="1.935" transform="matrix(1.3333333 0 0 -1.3333333 659.9596 158.03973)"/><path clip-path="url(#bu)" d="m0 0s-4.96 12.929-15.502 17.226-11.6-10.141-8.299-12.275c3.3-2.134 12.064.839 14.259-.221 2.195-1.059 7.302-6.522 9.542-4.73" fill="#ffd200" stroke="#ef8a10" stroke-width="1.935" transform="matrix(1.3333333 0 0 -1.3333333 798.32027 301.69333)"/><path clip-path="url(#bv)" d="m0 0s.288 13.845 8.751 21.459c8.464 7.614 14.349-5.612 11.966-8.739-2.382-3.126-11.635-3.297-13.342-5.037-1.706-1.741-4.661-8.611-7.375-7.683" fill="#ffd200" stroke="#ef8a10" stroke-width="1.935" transform="matrix(1.3333333 0 0 -1.3333333 730.66667 312.39973)"/><path clip-path="url(#bw)" d="m0 0s-12.945 4.917-23.175-.08c-10.23-4.996-.169-15.405 3.622-14.366 3.791 1.038 7.413 9.553 9.666 10.485 2.254.93 9.731 1.097 9.887 3.961z" fill="#ffd200" transform="matrix(1.3333333 0 0 -1.3333333 719.77347 116.6452)"/><path clip-path="url(#bx)" d="m0 0s-12.945 4.917-23.175-.08c-10.23-4.996-.169-15.405 3.622-14.366 3.791 1.038 7.413 9.553 9.666 10.485 2.254.93 9.731 1.097 9.887 3.961z" fill="none" stroke="#ef8a10" stroke-width="1.935" transform="matrix(1.3333333 0 0 -1.3333333 719.77347 116.6452)"/><path clip-path="url(#by)" d="m0 0s-12.945 4.917-23.175-.08c-10.23-4.996-.169-15.405 3.622-14.366 3.791 1.038 7.414 9.553 9.667 10.485 2.253.93 9.73 1.097 9.886 3.961z" fill="#ffd200" transform="matrix(1.3333333 0 0 -1.3333333 680.28 83.590533)"/><path clip-path="url(#bz)" d="m0 0s-12.945 4.917-23.175-.08c-10.23-4.996-.169-15.405 3.622-14.366 3.791 1.038 7.414 9.553 9.667 10.485 2.253.93 9.73 1.097 9.886 3.961z" fill="none" stroke="#ef8a10" stroke-width="1.935" transform="matrix(1.3333333 0 0 -1.3333333 680.28 83.590533)"/><path clip-path="url(#bA)" d="m0 0s-10.975-8.445-12.084-19.775c-1.108-11.331 13.03-8.221 14.134-4.449 1.102 3.773-4.248 11.323-3.86 13.729.389 2.407 4.167 8.862 1.81 10.495z" fill="#ffd200" transform="matrix(1.3333333 0 0 -1.3333333 621.35933 52.070933)"/><path clip-path="url(#bB)" d="m0 0s-10.975-8.445-12.084-19.775c-1.108-11.331 13.03-8.221 14.134-4.449 1.102 3.773-4.248 11.323-3.86 13.729.389 2.407 4.167 8.862 1.81 10.495z" fill="none" stroke="#ef8a10" stroke-width="1.935" transform="matrix(1.3333333 0 0 -1.3333333 621.35933 52.070933)"/><path clip-path="url(#bC)" d="m0 0s-5.004-12.912-.077-23.175c4.928-10.263 15.404-.273 14.391 3.525-1.012 3.797-9.503 7.478-10.418 9.737-.917 2.259-1.033 9.737-3.896 9.913z" fill="#ffd200" transform="matrix(1.3333333 0 0 -1.3333333 583.026 42.8412)"/><path clip-path="url(#bD)" d="m0 0s-5.004-12.912-.077-23.175c4.928-10.263 15.404-.273 14.391 3.525-1.012 3.797-9.503 7.478-10.418 9.737-.917 2.259-1.033 9.737-3.896 9.913z" fill="none" stroke="#ef8a10" stroke-width="1.935" transform="matrix(1.3333333 0 0 -1.3333333 583.026 42.8412)"/><path clip-path="url(#bE)" d="m0 0s8.952 10.565 7.651 21.875-14.468 5.295-14.753 1.375 6.536-10.174 6.662-12.609c.127-2.434-2.209-9.539.44-10.641" fill="#ffd200" stroke="#ef8a10" stroke-width="1.935" transform="matrix(1.3333333 0 0 -1.3333333 474.2136 109.18293)"/><g fill="#de2010" stroke="#000"><g stroke-width="2.383"><path clip-path="url(#bF)" d="m0 0c-.503 4.049-2.454 7.607-5.117 9.332-2.663 1.724-5.634 1.353-7.79-.975-2.157-2.326-3.172-6.255-2.663-10.303.503-4.05 2.454-7.607 5.117-9.332 2.663-1.724 5.634-1.353 7.79.974 2.157 2.327 3.172 6.256 2.663 10.304" transform="matrix(1.3333333 0 0 -1.3333333 772.8268 310.8132)"/><path clip-path="url(#bG)" d="m0 0c-.503 4.049-2.454 7.607-5.117 9.332-2.663 1.724-5.634 1.353-7.79-.974-2.157-2.327-3.172-6.256-2.663-10.304.503-4.049 2.454-7.607 5.117-9.332 2.663-1.724 5.634-1.353 7.79.974 2.157 2.327 3.172 6.256 2.663 10.304" transform="matrix(1.3333333 0 0 -1.3333333 770.60027 283.54693)"/><path clip-path="url(#bH)" d="m0 0c-.856 3.989-3.112 7.362-5.917 8.846s-5.73.853-7.675-1.655c-1.943-2.507-2.609-6.51-1.746-10.498.856-3.989 3.112-7.362 5.917-8.846s5.731-.853 7.675 1.655c1.943 2.507 2.609 6.51 1.746 10.498" transform="matrix(1.3333333 0 0 -1.3333333 765.0664 254.4264)"/><path clip-path="url(#bI)" d="m0 0c-1.846 3.639-4.887 6.325-7.978 7.045-3.089.72-5.758-.636-6.999-3.556-1.24-2.921-.864-6.961.988-10.597 1.844-3.64 4.886-6.326 7.976-7.045 3.09-.72 5.759.636 6.999 3.556 1.242 2.92.865 6.96-.986 10.597" transform="matrix(1.3333333 0 0 -1.3333333 754.974 224)"/><path clip-path="url(#bJ)" d="m0 0c-1.845 3.639-4.886 6.325-7.977 7.045-3.089.72-5.758-.636-6.999-3.556-1.24-2.921-.864-6.961.988-10.597 1.844-3.64 4.886-6.326 7.976-7.045 3.09-.72 5.759.636 6.999 3.556 1.241 2.92.865 6.96-.987 10.597" transform="matrix(1.3333333 0 0 -1.3333333 744.18613 199.58653)"/><path clip-path="url(#bK)" d="m0 0c-2.146 3.47-5.404 5.889-8.544 6.344-3.141.456-5.685-1.121-6.673-4.136-.989-3.015-.272-7.009 1.881-10.475 2.147-3.47 5.404-5.889 8.544-6.344 3.141-.456 5.685 1.121 6.673 4.136.989 3.015.272 7.008-1.881 10.475" transform="matrix(1.3333333 0 0 -1.3333333 728.8528 175.03973)"/><path clip-path="url(#bL)" d="m0 0c-2.472 3.246-5.948 5.339-9.117 5.489-3.17.15-5.55-1.666-6.242-4.762-.693-3.097.407-7.002 2.884-10.245 2.472-3.246 5.949-5.338 9.119-5.488 3.169-.15 5.548 1.666 6.241 4.762.693 3.097-.407 7.002-2.885 10.244" transform="matrix(1.3333333 0 0 -1.3333333 711.79947 151.38667)"/><path clip-path="url(#bM)" d="m0 0c-2.916 2.854-6.659 4.42-9.817 4.109s-5.249-2.453-5.486-5.617c-.236-3.163 1.418-6.869 4.34-9.717 2.916-2.854 6.659-4.42 9.817-4.109s5.249 2.453 5.486 5.617c.236 3.163-1.418 6.868-4.34 9.717" transform="matrix(1.3333333 0 0 -1.3333333 691.45307 129.32813)"/><path clip-path="url(#bN)" d="m0 0c-3.167 2.573-7.038 3.789-10.154 3.188-3.116-.6-5.001-2.925-4.946-6.097.056-3.173 2.044-6.71 5.215-9.277 3.166-2.573 7.038-3.789 10.154-3.189 3.116.601 5.002 2.925 4.946 6.098-.056 3.172-2.044 6.709-5.215 9.277" transform="matrix(1.3333333 0 0 -1.3333333 668.54693 109.03453)"/><path clip-path="url(#bO)" d="m0 0c-3.55 2.012-7.569 2.567-10.542 1.458s-4.446-3.714-3.865-6.833c.582-3.119 3.13-6.277 6.682-8.283 3.55-2.012 7.57-2.568 10.542-1.459 2.973 1.11 4.447 3.715 3.866 6.834s-3.129 6.277-6.683 8.283" transform="matrix(1.3333333 0 0 -1.3333333 644.28 92.8372)"/><path clip-path="url(#bP)" d="m0 0c-3.718 1.681-7.771 1.868-10.631.493-2.859-1.375-4.09-4.104-3.226-7.157.862-3.053 3.687-5.966 7.408-7.64 3.719-1.68 7.771-1.868 10.631-.493 2.859 1.375 4.089 4.104 3.227 7.157-.863 3.053-3.688 5.966-7.409 7.64" transform="matrix(1.3333333 0 0 -1.3333333 617.11973 78.458933)"/><path clip-path="url(#bQ)" d="m0 0c-3.823 1.427-7.88 1.343-10.641-.221-2.76-1.564-3.804-4.369-2.739-7.357 1.066-2.989 4.079-5.706 7.904-7.127 3.823-1.427 7.879-1.342 10.64.221 2.761 1.564 3.806 4.369 2.739 7.358-1.065 2.988-4.079 5.705-7.903 7.126" transform="matrix(1.3333333 0 0 -1.3333333 590.48053 67.731733)"/><path clip-path="url(#bR)" d="m0 0c-3.92 1.132-7.958.738-10.592-1.032-2.633-1.77-3.461-4.647-2.17-7.545 1.29-2.899 4.503-5.378 8.425-6.502 3.92-1.132 7.959-.738 10.592 1.032 2.634 1.77 3.461 4.647 2.171 7.545-1.291 2.898-4.503 5.377-8.426 6.502" transform="matrix(1.3333333 0 0 -1.3333333 563.4128 59.240267)"/><path clip-path="url(#bS)" d="m0 0c-4.048.514-7.978-.497-10.307-2.651-2.33-2.154-2.704-5.124-.982-7.789s5.277-4.62 9.325-5.127c4.048-.515 7.978.497 10.308 2.65 2.329 2.155 2.704 5.125.982 7.79s-5.277 4.62-9.326 5.127" transform="matrix(1.3333333 0 0 -1.3333333 533.61333 54.160133)"/><path clip-path="url(#bT)" d="m0 0c-4.077.167-7.906-1.175-10.043-3.52-2.138-2.345-2.258-5.335-.315-7.844 1.942-2.509 5.651-4.154 9.729-4.314 4.076-.168 7.905 1.175 10.042 3.519 2.138 2.346 2.258 5.336.316 7.845-1.943 2.509-5.652 4.154-9.729 4.314" transform="matrix(1.3333333 0 0 -1.3333333 504.20053 52.5)"/><path clip-path="url(#bU)" d="m0 0c-4.077.167-7.906-1.175-10.043-3.52s-2.257-5.336-.315-7.845 5.652-4.153 9.729-4.314c4.077-.167 7.906 1.176 10.043 3.52 2.137 2.345 2.257 5.336.315 7.845s-5.652 4.153-9.729 4.314" transform="matrix(1.3333333 0 0 -1.3333333 477.2532 53.451867)"/><path clip-path="url(#bV)" d="m0 0c-3.979-.906-7.323-3.204-8.772-6.026-1.449-2.823-.782-5.741 1.75-7.654 2.531-1.913 6.542-2.529 10.519-1.616 3.978.905 7.322 3.203 8.772 6.026 1.449 2.823.781 5.741-1.75 7.653-2.531 1.913-6.542 2.53-10.519 1.617" transform="matrix(1.3333333 0 0 -1.3333333 445.66667 57.193333)"/><path clip-path="url(#bW)" d="m0 0c-3.891-1.23-7.034-3.797-8.245-6.729-1.211-2.933-.306-5.786 2.375-7.483 2.68-1.698 6.728-1.981 10.616-.744 3.89 1.231 7.033 3.797 8.245 6.729 1.211 2.933.305 5.786-2.375 7.483-2.681 1.698-6.728 1.981-10.616.744" transform="matrix(1.3333333 0 0 -1.3333333 416.9336 64.394533)"/><path clip-path="url(#bX)" d="m0 0c-3.716-1.686-6.531-4.607-7.385-7.664-.853-3.055.386-5.78 3.249-7.147 2.864-1.366 6.917-1.165 10.63.527 3.715 1.685 6.531 4.607 7.384 7.663s-.385 5.781-3.249 7.147-6.917 1.165-10.629-.526" transform="matrix(1.3333333 0 0 -1.3333333 390.72 75.619733)"/><path clip-path="url(#bY)" d="m0 0c-3.559-1.996-6.115-5.148-6.704-8.265-.589-3.118.877-5.727 3.847-6.844s6.99-.571 10.546 1.431c3.559 1.996 6.114 5.148 6.704 8.265.589 3.118-.877 5.727-3.847 6.844s-6.991.571-10.546-1.431" transform="matrix(1.3333333 0 0 -1.3333333 364.5736 89.021467)"/><path clip-path="url(#bZ)" d="m0 0c-3.32-2.371-5.519-5.782-5.766-8.945s1.495-5.597 4.568-6.385 7.011.192 10.328 2.569c3.321 2.371 5.519 5.782 5.766 8.945.248 3.163-1.494 5.597-4.568 6.385-3.074.787-7.011-.192-10.328-2.569" transform="matrix(1.3333333 0 0 -1.3333333 339.83987 105.7988)"/><path clip-path="url(#b0)" d="m0 0c-3.108-2.644-5.01-6.228-4.989-9.401.022-3.173 1.963-5.451 5.093-5.975 3.128-.525 6.969.784 10.072 3.433 3.108 2.643 5.01 6.228 4.989 9.401-.021 3.172-1.963 5.451-5.092 5.975-3.129.525-6.97-.784-10.073-3.433" transform="matrix(1.3333333 0 0 -1.3333333 316.94667 123.14387)"/><path clip-path="url(#b1)" d="m0 0c-2.911-2.859-4.55-6.571-4.302-9.734.249-3.163 2.349-5.297 5.508-5.596 3.158-.298 6.895 1.283 9.801 4.147 2.91 2.86 4.55 6.572 4.301 9.735-.248 3.162-2.348 5.296-5.507 5.595-3.158.299-6.896-1.282-9.801-4.147" transform="matrix(1.3333333 0 0 -1.3333333 296.7468 144.2532)"/><path clip-path="url(#b2)" d="m0 0c-2.661-3.093-3.984-6.929-3.472-10.06.513-3.131 2.784-5.081 5.957-5.115 3.172-.033 6.764 1.855 9.419 4.953 2.661 3.093 3.985 6.929 3.472 10.06-.512 3.131-2.783 5.081-5.956 5.115-3.172.033-6.764-1.855-9.42-4.953" transform="matrix(1.3333333 0 0 -1.3333333 279.3464 167.72)"/><path clip-path="url(#b3)" d="m0 0c-2.316-3.359-3.223-7.314-2.379-10.373.843-3.059 3.31-4.755 6.467-4.45 3.159.305 6.528 2.566 8.838 5.929 2.316 3.359 3.223 7.314 2.38 10.373-.844 3.059-3.31 4.755-6.468 4.45s-6.528-2.566-8.838-5.929" transform="matrix(1.3333333 0 0 -1.3333333 263.44013 191.7468)"/><path clip-path="url(#b4)" d="m0 0c-1.705-3.707-1.918-7.759-.562-10.628 1.356-2.868 4.077-4.116 7.136-3.273s5.99 3.649 7.688 7.359c1.704 3.708 1.918 7.759.562 10.628-1.357 2.868-4.077 4.116-7.136 3.273s-5.99-3.649-7.688-7.359" transform="matrix(1.3333333 0 0 -1.3333333 250.1868 218.98693)"/><path clip-path="url(#b5)" d="m0 0c-1.361-3.847-1.207-7.901.404-10.635s4.433-3.73 7.403-2.613 5.635 4.177 6.989 8.026c1.362 3.846 1.207 7.901-.403 10.635-1.611 2.733-4.434 3.73-7.404 2.612-2.969-1.116-5.635-4.176-6.989-8.025" transform="matrix(1.3333333 0 0 -1.3333333 239.69333 247.45307)"/></g><path clip-path="url(#b6)" d="m0 0c-.38-3.257.76-6.379 2.989-8.188 2.23-1.81 5.211-2.031 7.818-.582 2.607 1.45 4.443 4.351 4.817 7.608.38 3.257-.76 6.378-2.99 8.188-2.229 1.809-5.21 2.031-7.817.581s-4.443-4.35-4.817-7.607" stroke-width="2.133" transform="matrix(1.3333333 0 0 -1.3333333 230.58653 301.3464)"/><path clip-path="url(#b7)" d="m0 0c-.91-3.977-.291-7.988 1.624-10.518 1.914-2.53 4.832-3.195 7.654-1.745 2.822 1.451 5.118 4.797 6.021 8.776.91 3.977.291 7.987-1.623 10.518-1.915 2.53-4.833 3.196-7.655 1.745s-5.117-4.797-6.021-8.776" stroke-width="2.383" transform="matrix(1.3333333 0 0 -1.3333333 233.01307 276.1868)"/></g><g fill="#ffe300"><path clip-path="url(#b8)" d="m0 0c2.485 2.661 4.798 3.413 7.724 2.443-1.033 7.019-3.253 9.401-5.958 8.556-2.706-.846-3.931-4.454-1.766-10.999z" transform="matrix(1.3333333 0 0 -1.3333333 751.1068 263.2936)"/><path clip-path="url(#b9)" d="m0 0c2.679 2.466 5.042 3.042 7.887 1.854-.5 7.077-2.536 9.619-5.298 8.98s-4.254-4.145-2.589-10.834" transform="matrix(1.3333333 0 0 -1.3333333 756.1732 291.54693)"/><path clip-path="url(#ca)" d="m0 0c1.729 3.205 3.774 4.52 6.851 4.324-2.781 6.528-5.534 8.267-7.937 6.762-2.402-1.504-2.67-5.306 1.086-11.086" transform="matrix(1.3333333 0 0 -1.3333333 744.18613 237.52013)"/><path clip-path="url(#cb)" d="m0 0c1.729 3.205 3.773 4.52 6.851 4.324-2.782 6.527-5.535 8.266-7.937 6.761-2.402-1.504-2.67-5.305 1.086-11.085z" transform="matrix(1.3333333 0 0 -1.3333333 731.61333 211.8132)"/><path clip-path="url(#cc)" d="m0 0c1.191 3.441 2.999 5.067 6.066 5.369-3.793 5.995-6.79 7.27-8.92 5.398-2.128-1.871-1.782-5.665 2.854-10.767" transform="matrix(1.3333333 0 0 -1.3333333 701.46613 164.72)"/><path clip-path="url(#cd)" d="m0 0c1.06 3.483 2.805 5.177 5.858 5.594-4.016 5.848-7.059 7.008-9.117 5.057-2.056-1.95-1.567-5.729 3.259-10.651z" transform="matrix(1.3333333 0 0 -1.3333333 681.7604 144.19987)"/><path clip-path="url(#ce)" d="m0 0c-.064 3.641 1.074 5.79 3.852 7.127-5.623 4.326-8.875 4.493-10.232 2.003-1.356-2.488.274-5.933 6.381-9.13z" transform="matrix(1.3333333 0 0 -1.3333333 640.3464 109.2468)"/><path clip-path="url(#cf)" d="m0 0c.567 3.597 2.061 5.516 5.027 6.353-4.789 5.234-7.964 5.961-9.73 3.745-1.767-2.217-.758-5.891 4.703-10.098z" transform="matrix(1.3333333 0 0 -1.3333333 661.8932 125.40947)"/><path clip-path="url(#cg)" d="m0 0c-.439 3.614.472 5.869 3.096 7.486-6.039 3.723-9.292 3.553-10.384.937-1.093-2.615.884-5.874 7.288-8.423" transform="matrix(1.3333333 0 0 -1.3333333 615.74613 95.674533)"/><path clip-path="url(#ch)" d="m0 0c-.952 3.514-.374 5.876 1.992 7.852-6.51 2.82-9.704 2.187-10.411-.559-.707-2.745 1.715-5.686 8.419-7.293" transform="matrix(1.3333333 0 0 -1.3333333 590.61333 84.703733)"/><path clip-path="url(#ci)" d="m0 0c-1.247 3.421-.87 5.823 1.319 7.993-6.724 2.258-9.854 1.357-10.325-1.438-.473-2.795 2.191-5.521 9.006-6.555" transform="matrix(1.3333333 0 0 -1.3333333 563.53387 76.3132)"/><path clip-path="url(#cj)" d="m0 0c-1.491 3.322-1.289 5.745.738 8.067-6.871 1.767-9.926.641-10.195-2.181s2.584-5.348 9.457-5.886" transform="matrix(1.3333333 0 0 -1.3333333 536.9336 71.164)"/><path clip-path="url(#ck)" d="m0 0c-1.827 3.149-1.878 5.581-.103 8.1-7.017 1.045-9.939-.392-9.913-3.226.025-2.834 3.124-5.051 10.016-4.874" transform="matrix(1.3333333 0 0 -1.3333333 508.7604 69.003867)"/><path clip-path="url(#cl)" d="m0 0c-2.532 2.616-3.167 4.963-2.052 7.837-7.062-.678-9.552-2.776-8.844-5.521s4.251-4.149 10.896-2.316z" transform="matrix(1.3333333 0 0 -1.3333333 453.61333 73.1588)"/><path clip-path="url(#cm)" d="m0 0c-2.155 2.935-2.466 5.347-.972 8.042-7.089.285-9.84-1.458-9.509-4.273.329-2.815 3.649-4.686 10.481-3.769z" transform="matrix(1.3333333 0 0 -1.3333333 480.75973 69.585333)"/><path clip-path="url(#cn)" d="m0 0c-2.881 2.226-3.846 4.458-3.154 7.461-6.892-1.683-9.055-4.117-7.961-6.731 1.094-2.615 4.802-3.497 11.115-.73z" transform="matrix(1.3333333 0 0 -1.3333333 426.97333 78.913467)"/><path clip-path="url(#co)" d="m0 0c-3.252 1.637-4.624 3.645-4.516 6.726-6.446-2.964-8.107-5.766-6.535-8.124 1.572-2.359 5.379-2.519 11.051 1.398z" transform="matrix(1.3333333 0 0 -1.3333333 375.97333 102.36267)"/><path clip-path="url(#cp)" d="m0 0c-3.029 2.02-4.147 4.18-3.666 7.224-6.758-2.159-8.746-4.737-7.473-7.269 1.274-2.533 5.034-3.155 11.139.045z" transform="matrix(1.3333333 0 0 -1.3333333 400.55987 89.800133)"/><path clip-path="url(#cq)" d="m0 0c-3.522.924-5.282 2.602-5.818 5.637-5.687-4.242-6.727-7.328-4.699-9.307 2.029-1.98 5.787-1.344 10.517 3.67z" transform="matrix(1.3333333 0 0 -1.3333333 330.22653 134.2136)"/><path clip-path="url(#cr)" d="m0 0c-3.439 1.197-5.062 3.007-5.359 6.075-6.001-3.784-7.281-6.779-5.412-8.91 1.867-2.133 5.662-1.793 10.771 2.835z" transform="matrix(1.3333333 0 0 -1.3333333 352.05333 116.35093)"/><path clip-path="url(#cs)" d="m0 0c-3.591.6-5.497 2.11-6.307 5.084-5.277-4.741-6.033-7.908-3.832-9.695 2.2-1.787 5.884-.812 10.139 4.611z" transform="matrix(1.3333333 0 0 -1.3333333 310.83987 153.32027)"/><path clip-path="url(#ct)" d="m0 0c-3.631.271-5.666 1.603-6.742 4.491-4.825-5.201-5.29-8.424-2.937-10.003 2.354-1.58 5.933-.275 9.679 5.512" transform="matrix(1.3333333 0 0 -1.3333333 293.45307 175.86653)"/><path clip-path="url(#cu)" d="m0 0c-3.629-.288-5.844.716-7.35 3.406-3.972-5.879-3.939-9.135-1.371-10.335 2.568-1.201 5.906.637 8.721 6.929" transform="matrix(1.3333333 0 0 -1.3333333 278.91987 198.9336)"/><path clip-path="url(#cv)" d="m0 0c-3.562-.757-5.888-.048-7.73 2.423-3.176-6.344-2.719-9.569-.018-10.425 2.702-.858 5.773 1.398 7.748 8.002z" transform="matrix(1.3333333 0 0 -1.3333333 266.14653 223.55987)"/><path clip-path="url(#cw)" d="m0 0c-3.397-1.312-5.806-.98-8.017 1.167-2.13-6.767-1.169-9.877 1.635-10.296 2.803-.419 5.478 2.295 6.382 9.129z" transform="matrix(1.3333333 0 0 -1.3333333 255.9336 248.8268)"/><path clip-path="url(#cx)" d="m0 0c-3.301-1.536-5.727-1.367-8.076.628-1.673-6.895-.506-9.934 2.32-10.164 2.825-.23 5.312 2.657 5.756 9.536z" transform="matrix(1.3333333 0 0 -1.3333333 249.09307 277)"/><path clip-path="url(#cy)" d="m0 0c-3.108-1.646-5.53-1.84-8.07-.596-.924-5.619.556-7.84 3.38-7.639 2.824.2 4.981 2.794 4.69 8.235" transform="matrix(1.3333333 0 0 -1.3333333 246.30667 300.44013)"/><path clip-path="url(#cz)" d="m0 0c1.243 3.422 3.075 5.021 6.147 5.276-3.702 6.053-6.679 7.372-8.836 5.534-2.158-1.839-1.87-5.639 2.689-10.81z" transform="matrix(1.3333333 0 0 -1.3333333 720.39973 188.90693)"/><path clip-path="url(#cA)" d="m0 0c2.679 2.466 5.041 3.042 7.886 1.854-.5 7.077-2.535 9.619-5.297 8.98s-4.255-4.145-2.589-10.834" transform="matrix(1.3333333 0 0 -1.3333333 759.26693 320.16013)"/></g><path clip-path="url(#cB)" d="m0 0s7.396 11.707 4.536 22.726c-2.859 11.019-15.063 3.233-14.801-.689.263-3.921 7.887-9.167 8.351-11.561.463-2.393-.862-9.754 1.914-10.477z" fill="#ffd200" stroke="#ef8a10" stroke-width="1.008" transform="matrix(1.3333333 0 0 -1.3333333 699.8672 199.54693)"/><path clip-path="url(#cC)" d="m0 0c-.086 0-8.021-7.936-6.642-17.596 1.38-9.66 7.504-21.564 6.383-31.569-1.121-10.006-2.932-16.647-2.932-16.647s9.315 10.609 9.402 20.787c.086 10.178-6.384 23.548-6.384 31.052s.346 14.146.173 13.973" fill="#217900" stroke="#000" stroke-linejoin="round" stroke-width="1.935" transform="matrix(1.3333333 0 0 -1.3333333 722.22653 166.55987)"/><path clip-path="url(#cD)" d="m0 0s-6.21-4.571-5.606-15.095c.603-10.523 11.471-29.844 11.471-29.844s7.936-16.302 7.677-20.529c-.259-4.226 1.467 4.054.69 13.369-.776 9.316-12.765 29.844-12.765 29.844s-2.588 4.226-2.329 11.213c.258 6.987.948 10.954.862 11.041z" fill="#217900" stroke="#000" stroke-linejoin="round" stroke-width="1.935" transform="matrix(1.3333333 0 0 -1.3333333 741.8932 209.80013)"/><path clip-path="url(#cE)" d="m0 0s26.652-1.035 26.824-18.286c-.086-2.674 0-5.865-.948-13.542 5.261 2.846 8.798 10.782 8.107 15.871.087 17.51-23.805 29.499-33.983 15.957" fill="#217900" stroke="#000" stroke-linejoin="round" stroke-width="2.419" transform="matrix(1.3333333 0 0 -1.3333333 511.53387 69.724)"/><path clip-path="url(#cF)" d="m0 0s21.477 4.485 21.65-12.766c.172-17.251-6.814-20.011-6.814-20.011s16.475 3.537 16.56 21.046c.087 17.51-21.217 25.272-31.396 11.731" fill="#217900" stroke="#000" stroke-linejoin="round" stroke-width="2.419" transform="matrix(1.3333333 0 0 -1.3333333 489 68.689467)"/><path clip-path="url(#cG)" d="m0 0c.494-7.74 8.068-15.149 5.104-28.652-3.787-15.314-17.125-51.705-14.819-58.127-3.952 5.434-3.294 10.539-3.623 18.112-.329 7.576 11.032 35.733 12.022 45.284-.001 8.562.823 20.254 1.316 23.382z" fill="#217900" stroke="#000" stroke-linejoin="round" stroke-width="2.419" transform="matrix(1.3333333 0 0 -1.3333333 767.1732 332.2532)"/><path clip-path="url(#cH)" d="m0 0s12.351-15.643 11.691-27.993c-.659-12.35-7.575-26.84-5.269-33.262-3.952 5.434-4.941 8.892-5.27 16.466-.329 7.576 6.093 15.974 4.776 24.206-1.318 8.234-6.093 20.584-5.928 20.584z" fill="#217900" stroke="#000" stroke-linejoin="round" stroke-width="2.419" transform="matrix(1.3333333 0 0 -1.3333333 767.1732 332.47987)"/><path clip-path="url(#cI)" d="m0 0c-.494-7.739-6.257-14.655-3.293-28.158 3.787-15.315 17.29-34.744 15.148-56.975 3.953 5.435 5.105 11.528 5.435 19.103.329 7.574-14.984 33.097-15.973 42.647 0 8.563-.823 20.255-1.317 23.383z" fill="#217900" transform="matrix(1.3333333 0 0 -1.3333333 227.75973 337.07947)"/><path clip-path="url(#cJ)" d="m0 0c-.494-7.739-6.257-14.655-3.293-28.158 3.787-15.315 17.29-34.744 15.148-56.975 3.953 5.435 5.105 11.528 5.435 19.103.329 7.574-14.984 33.097-15.973 42.647 0 8.563-.823 20.255-1.317 23.383z" fill="none" stroke="#000" stroke-linejoin="round" stroke-width="2.419" transform="matrix(1.3333333 0 0 -1.3333333 227.75973 337.07947)"/><path clip-path="url(#cK)" d="m0 0s-12.021-15.148-11.362-27.498c.165-8.233 15.314-42.648 13.009-49.07 3.952 5.433 5.105 4.775 4.94 13.008-4.446 21.078-12.35 34.581-11.032 42.814 1.318 8.232 4.611 20.747 4.446 20.747z" fill="#217900" stroke="#000" stroke-linejoin="round" stroke-width="2.419" transform="matrix(1.3333333 0 0 -1.3333333 227.75973 337.30733)"/><path clip-path="url(#cL)" d="m0 0s21.457-1.35 22.508-13.655c1.051-12.304-5.102-19.807-5.102-19.807s2.701-26.559-18.305-34.361c-22.508-2.701-57.769-.6-57.769-.6s-10.354-2.551-14.556 18.906c-4.201 21.457-5.401 36.612-5.401 36.612s2.101 12.004 17.256 12.754 61.22-.15 61.371.15z" fill="#8c8a8c" stroke="#000" stroke-width="1.935" transform="matrix(1.3333333 0 0 -1.3333333 539.1732 139.41347)"/><path clip-path="url(#cM)" d="m0 0s-11.554-14.405-10.353-20.257" fill="none" stroke="#000" stroke-linecap="round" stroke-width="1.935" transform="matrix(1.3333333 0 0 -1.3333333 562.1732 183.8268)"/><path clip-path="url(#cN)" d="m0 0c2.852-2.401 5.552-5.102 6.152-13.955.601-8.853 1.201-17.706 1.201-17.706l15.004-135.05 13.205-97.684.9-15.154s-3.151-11.104-12.004-12.004c-6.452-13.504-41.414-17.406-44.865-17.257-3.151.151-14.255 4.802-21.007 4.203-6.753-.601-18.456-5.102-23.708-4.352s-17.106 4.802-19.206 13.354c-14.705 4.652-17.106 15.905-17.106 15.905l15.905 112.99 15.455 142.85s1.801 19.056 9.453 21.907c7.953.75 49.066-.75 60.62 1.951z" fill="#8c8a8c" stroke="#000" stroke-width="1.935" transform="matrix(1.3333333 0 0 -1.3333333 541.57293 228.83987)"/><path clip-path="url(#cO)" d="m0 0-3.151-99.934" fill="none" stroke="#000" stroke-width="1.935" transform="matrix(1.3333333 0 0 -1.3333333 433.5332 489.53387)"/><path clip-path="url(#cP)" d="m0 0 8.853-82.378" fill="none" stroke="#000" stroke-width="1.935" transform="matrix(1.3333333 0 0 -1.3333333 562.974 507.1328)"/><path clip-path="url(#cQ)" d="m0 0 29.923-92.093 96.82-.004-78.327-56.92 29.916-92.094-78.331 56.915-78.331-56.914 29.916 92.094-78.327 56.92 96.82.004z" fill="#fff" stroke="#000" stroke-linejoin="round" stroke-width="2.016" transform="matrix(1.3333333 0 0 -1.3333333 501.58653 152.60027)"/></svg>