<svg height="650" viewBox="0 0 975 650" width="975" xmlns="http://www.w3.org/2000/svg"><path d="m0 650h975v-649.99998375h-975z" fill="#fff" stroke-width="1.33393"/><g fill="#b22234" transform="matrix(1.3345415 0 0 -1.3333333 0 650.00001)"><path d="m0 450h730.588v37.5h-730.588z"/><path d="m0 375h730.588v37.499h-730.588z"/><path d="m0 300h730.588v37.5h-730.588z"/><path d="m0 225h730.588v37.5h-730.588z"/><path d="m0 150h730.588v37.499h-730.588z"/><path d="m0 75h730.588v37.5h-730.588z"/><path d="m0 0h730.588v37.5h-730.588z"/></g><g stroke-width="1.33333"><path d="m0 350.00001h487.49999v-349.99999375h-487.49999z" fill="#3c3b6e"/><path d="m39.884133 16.4896-4.496 13.833333h-14.546666l11.770666 8.552-4.494666 13.833333 11.765333-8.552 11.765333 8.552-4.494667-13.833333 11.770667-8.552h-14.546667z" fill="#fff"/><path d="m121.784 16.4896-4.49467 13.833333h-14.54666l11.76666 8.549333-4.496 13.836 11.768-8.550667 11.76934 8.550667-4.49467-13.833333 11.77067-8.552h-14.548z" fill="#fff"/><path d="m203.68493 16.4896-4.49467 13.833333h-14.54666l11.76666 8.549333-4.496 13.836 11.768-8.550667 11.768 8.550667-4.49466-13.833333 11.76533-8.552h-14.54133z" fill="#fff"/><path d="m285.5808 16.4896-4.49467 13.833333h-14.54l11.764 8.552-4.49466 13.833333 11.768-8.550667 11.768 8.550667-4.496-13.836 11.76666-8.549333h-14.54666z" fill="#fff"/><path d="m367.48187 16.4896-4.49467 13.833333h-14.54666l11.77066 8.552-4.49466 13.833333 11.768-8.550667 11.768 8.550667-4.49467-13.836 11.76533-8.549333h-14.54533z" fill="#fff"/><path d="m442.112 38.875067-4.49467 13.833333 11.76534-8.552 11.76533 8.552-4.49467-13.833333 11.77067-8.552h-14.54667l-4.49466-13.833333-4.49467 13.833333h-14.54667z" fill="#fff"/><path d="m39.884133 86.6928-4.494667 13.83333h-14.547999l11.769333 8.548-4.493333 13.832 11.765333-8.548 11.765333 8.548-4.493334-13.832 11.769334-8.548h-14.546667z" fill="#fff"/><path d="m121.784 86.6928-4.49467 13.83333h-14.54666l11.76533 8.54534-4.49467 13.83466 11.768-8.54666 11.76934 8.54666-4.49467-13.832 11.77067-8.548h-14.548z" fill="#fff"/><path d="m203.68493 86.6928-4.49467 13.83333h-14.54666l11.76533 8.54534-4.49467 13.83466 11.768-8.54666 11.768 8.54666-4.49466-13.832 11.76533-8.548h-14.54133z" fill="#fff"/><path d="m285.5808 86.6928-4.49467 13.83333h-14.54l11.764 8.54667-4.49466 13.83333 11.768-8.54666 11.768 8.54666-4.49467-13.83466 11.76533-8.54534h-14.54666z" fill="#fff"/><path d="m367.48187 86.6928-4.49467 13.83333h-14.54666l11.76933 8.548-4.49333 13.832 11.768-8.54666 11.768 8.54666-4.49467-13.83466 11.76533-8.54534h-14.54666z" fill="#fff"/><path d="m449.38293 86.6928-4.49467 13.83333h-14.54666l11.76933 8.548-4.49333 13.832 11.76533-8.548 11.76533 8.548-4.49333-13.832 11.76933-8.548h-14.54666z" fill="#fff"/><path d="m39.884133 156.89067-4.494667 13.83333h-14.547999l11.770666 8.552-4.494666 13.832 11.765333-8.55066 11.765333 8.55066-4.494667-13.832 11.770667-8.552h-14.546667z" fill="#fff"/><path d="m121.784 156.89067-4.49467 13.83333h-14.54666l11.76666 8.54934-4.496 13.83466 11.768-8.54933 11.76934 8.54933-4.49467-13.832 11.77067-8.552h-14.548z" fill="#fff"/><path d="m203.68493 156.89067-4.49467 13.83333h-14.54666l11.76666 8.54934-4.496 13.83466 11.768-8.55066 11.768 8.55066-4.49466-13.832 11.76533-8.552h-14.54133z" fill="#fff"/><path d="m285.5808 156.89067-4.49467 13.83333h-14.54l11.764 8.552-4.49466 13.832 11.768-8.55066 11.768 8.55066-4.496-13.83466 11.76666-8.54934h-14.54666z" fill="#fff"/><path d="m367.48187 156.89067-4.49467 13.83333h-14.54666l11.77066 8.552-4.49466 13.832 11.768-8.54933 11.768 8.54933-4.49467-13.83466 11.76533-8.54934h-14.54666z" fill="#fff"/><path d="m449.38293 156.89067-4.49467 13.83333h-14.54666l11.77066 8.552-4.49466 13.832 11.76533-8.55066 11.76533 8.55066-4.49466-13.832 11.77066-8.552h-14.54666z" fill="#fff"/><path d="m39.884133 227.09373-4.496 13.83333h-14.546666l11.769333 8.548-4.493333 13.832 11.765333-8.548 11.765333 8.548-4.493334-13.832 11.769334-8.548h-14.545333z" fill="#fff"/><path d="m121.784 227.09373-4.496 13.83333h-14.54533l11.76533 8.54534-4.49467 13.83466 11.768-8.54666 11.76934 8.54666-4.49467-13.832 11.77067-8.548h-14.54667z" fill="#fff"/><path d="m203.68493 227.09373-4.496 13.83333h-14.54533l11.76533 8.54534-4.49467 13.83466 11.768-8.54666 11.768 8.54666-4.49466-13.832 11.76533-8.548h-14.54z" fill="#fff"/><path d="m285.5808 227.09373-4.496 13.83333h-14.53867l11.764 8.548-4.49466 13.832 11.768-8.54666 11.768 8.54666-4.49467-13.83466 11.76533-8.54534h-14.54533z" fill="#fff"/><path d="m367.48187 227.09373-4.496 13.83333h-14.54533l11.76933 8.548-4.49333 13.832 11.768-8.54666 11.768 8.54666-4.49467-13.83466 11.76533-8.54534h-14.54533z" fill="#fff"/><path d="m449.38293 227.09373-4.496 13.83333h-14.54533l11.76933 8.548-4.49333 13.832 11.76533-8.548 11.76533 8.548-4.49333-13.832 11.76933-8.548h-14.54533z" fill="#fff"/><path d="m44.3776 311.12453-4.493334-13.83333-4.494666 13.83333h-14.548l11.770667 8.552-4.494667 13.83333 11.765333-8.552 11.765333 8.552-4.494667-13.83333 11.770667-8.552z" fill="#fff"/><path d="m126.27867 311.12507-4.49467-13.83333-4.49466 13.83333h-14.54667l11.76667 8.54933-4.496 13.836 11.768-8.55066 11.76933 8.55066-4.49467-13.83333 11.77067-8.552z" fill="#fff"/><path d="m208.17973 311.12507-4.49467-13.83333-4.49466 13.83333h-14.54667l11.76667 8.54933-4.496 13.836 11.768-8.55066 11.768 8.55066-4.49467-13.83333 11.76533-8.552z" fill="#fff"/><path d="m290.0756 311.12507-4.49467-13.83333-4.49466 13.83333h-14.54l11.76533 8.552-4.496 13.83333 11.768-8.55066 11.768 8.55066-4.496-13.836 11.76667-8.54933z" fill="#fff"/><path d="m371.97667 311.12507-4.49467-13.83333-4.49466 13.83333h-14.54667l11.77067 8.552-4.49467 13.83333 11.768-8.55066 11.768 8.55066-4.496-13.836 11.76667-8.54933z" fill="#fff"/><path d="m453.8776 311.12453-4.49467-13.83333-4.49467 13.83333h-14.54666l11.77066 8.552-4.49466 13.83333 11.76533-8.552 11.76533 8.552-4.49466-13.83333 11.77066-8.552z" fill="#fff"/></g></svg>