<svg height="650" viewBox="0 0 650 650" width="650" xmlns="http://www.w3.org/2000/svg"><path d="m0 650h650v-649.99998375h-650z" fill="#fff" stroke-width="1.08915"/><g fill="#b22234" transform="matrix(.88969433 0 0 -1.3333333 0 650.00001)"><path d="m0 450h730.588v37.5h-730.588z"/><path d="m0 375h730.588v37.499h-730.588z"/><path d="m0 300h730.588v37.5h-730.588z"/><path d="m0 225h730.588v37.5h-730.588z"/><path d="m0 150h730.588v37.499h-730.588z"/><path d="m0 75h730.588v37.5h-730.588z"/><path d="m0 0h730.588v37.5h-730.588z"/></g><path d="m0 350.00001h325v-349.99999375h-325z" fill="#3c3b6e" stroke-width="1.08866"/><g fill="#fff" stroke-width="1.33333"><path d="m47.751267 26.489613-4.495999 13.833333h-14.546667l11.770667 8.552-4.494666 13.833333 11.765333-8.552 11.765333 8.552-4.494668-13.833333 11.770668-8.552h-14.546667z"/><path d="m105.12756 26.489613-4.49467 13.833333h-14.546656l11.76666 8.549333-4.495999 13.836 11.767995-8.550667 11.76934 8.550667-4.49467-13.833333 11.77068-8.552h-14.54801z"/><path d="m162.50654 26.489613-4.49467 13.833333h-14.54666l11.76666 8.549333-4.496 13.836 11.768-8.550667 11.768 8.550667-4.49466-13.833333 11.76533-8.552h-14.54133z"/><path d="m219.87217 26.489613-4.49467 13.833333h-14.54l11.764 8.552-4.49466 13.833333 11.768-8.550667 11.768 8.550667-4.496-13.836 11.76666-8.549333h-14.54666z"/><path d="m269.97914 48.87508-4.49467 13.833333 11.76534-8.552 11.76533 8.552-4.49467-13.833333 11.77067-8.552h-14.54667l-4.49466-13.833333-4.49467 13.833333h-14.54667z"/><path d="m47.751267 91.693015-4.494666 13.833325h-14.548l11.769333 8.548-4.493333 13.832 11.765333-8.548 11.765333 8.548-4.493333-13.832 11.769334-8.548h-14.546667z"/><path d="m105.12763 91.69315-4.49467 13.83333h-14.546658l11.765331 8.54534-4.49467 13.83466 11.767997-8.54666 11.76934 8.54666-4.49467-13.832 11.77068-8.548h-14.54801z"/><path d="m162.50667 91.69315-4.49467 13.83333h-14.54666l11.76533 8.54534-4.49467 13.83466 11.768-8.54666 11.768 8.54666-4.49466-13.832 11.76533-8.548h-14.54133z"/><path d="m219.87238 91.69315-4.49467 13.83333h-14.54l11.764 8.54667-4.49466 13.83333 11.768-8.54666 11.768 8.54666-4.49467-13.83466 11.76533-8.54534h-14.54666z"/><path d="m277.25007 91.693116-4.49467 13.833324h-14.54666l11.76933 8.548-4.49333 13.832 11.76533-8.548 11.76533 8.548-4.49333-13.832 11.76933-8.548h-14.54666z"/><path d="m47.751267 156.89108-4.494666 13.83333h-14.548l11.770667 8.552-4.494666 13.832 11.765333-8.55066 11.765333 8.55066-4.494668-13.832 11.770668-8.552h-14.546667z"/><path d="m105.12763 156.89135-4.49467 13.83333h-14.546658l11.76666 8.54934-4.495999 13.83466 11.767997-8.54933 11.76934 8.54933-4.49467-13.832 11.77068-8.552h-14.54801z"/><path d="m162.50667 156.89135-4.49467 13.83333h-14.54666l11.76666 8.54934-4.496 13.83466 11.768-8.55066 11.768 8.55066-4.49466-13.832 11.76533-8.552h-14.54133z"/><path d="m219.87238 156.89135-4.49467 13.83333h-14.54l11.764 8.552-4.49466 13.832 11.768-8.55066 11.768 8.55066-4.496-13.83466 11.76666-8.54934h-14.54666z"/><path d="m277.25007 156.89114-4.49467 13.83333h-14.54666l11.77066 8.552-4.49466 13.832 11.76533-8.55066 11.76533 8.55066-4.49466-13.832 11.77066-8.552h-14.54666z"/><path d="m47.751267 222.09314-4.495999 13.83333h-14.546667l11.769333 8.548-4.493333 13.832 11.765333-8.548 11.765333 8.548-4.493333-13.832 11.769334-8.548h-14.545333z"/><path d="m105.12763 222.09355-4.496 13.83333h-14.545328l11.765331 8.54534-4.49467 13.83466 11.767997-8.54666 11.76934 8.54666-4.49467-13.832 11.77068-8.548h-14.54668z"/><path d="m162.50667 222.09355-4.496 13.83333h-14.54533l11.76533 8.54534-4.49467 13.83466 11.768-8.54666 11.768 8.54666-4.49466-13.832 11.76533-8.548h-14.54z"/><path d="m219.87238 222.09355-4.496 13.83333h-14.53867l11.764 8.548-4.49466 13.832 11.768-8.54666 11.768 8.54666-4.49467-13.83466 11.76533-8.54534h-14.54533z"/><path d="m277.25007 222.09318-4.496 13.83333h-14.54533l11.76933 8.548-4.49333 13.832 11.76533-8.548 11.76533 8.548-4.49333-13.832 11.76933-8.548h-14.54533z"/><path d="m52.244735 301.12454-4.493334-13.83333-4.494666 13.83333h-14.548l11.770667 8.552-4.494667 13.83333 11.765332-8.552 11.765333 8.552-4.494666-13.83333 11.770667-8.552z"/><path d="m109.6224 301.12508-4.49467-13.83333-4.49465 13.83333h-14.546676l11.76667 8.54933-4.495999 13.836 11.767995-8.55066 11.76933 8.55066-4.49467-13.83333 11.77067-8.552z"/><path d="m167.0014 301.12508-4.49467-13.83333-4.49466 13.83333h-14.54667l11.76667 8.54933-4.496 13.836 11.768-8.55066 11.768 8.55066-4.49467-13.83333 11.76533-8.552z"/><path d="m224.36707 301.12508-4.49467-13.83333-4.49466 13.83333h-14.54l11.76533 8.552-4.496 13.83333 11.768-8.55066 11.768 8.55066-4.496-13.836 11.76667-8.54933z"/><path d="m281.74474 301.12454-4.49467-13.83333-4.49467 13.83333h-14.54666l11.77066 8.552-4.49466 13.83333 11.76533-8.552 11.76533 8.552-4.49466-13.83333 11.77066-8.552z"/></g></svg>