<svg height="800" viewBox="0 0 1200 800" width="1200" xmlns="http://www.w3.org/2000/svg" xmlns:xlink="http://www.w3.org/1999/xlink"><clipPath id="a"><path d="m0 600h900v-600h-900z" transform="translate(-450.00001 -393.50001)"/></clipPath><clipPath id="b"><path d="m0 600h900v-600h-900z" transform="translate(-433.52051 -371.60941)"/></clipPath><clipPath id="c"><path d="m0 600h900v-600h-900z" transform="translate(-439.37111 -374.58791)"/></clipPath><clipPath id="d"><path d="m0 600h900v-600h-900z" transform="translate(-453.09471 -370.01421)"/></clipPath><clipPath id="e"><path d="m0 600h900v-600h-900z" transform="translate(-436.60551 -211.92681)"/></clipPath><clipPath id="f"><path d="m0 600h900v-600h-900z" transform="translate(-440.19141 -348.33941)"/></clipPath><clipPath id="g"><path d="m0 600h900v-600h-900z" transform="translate(-447.88181 -369.26901)"/></clipPath><clipPath id="h"><path d="m0 600h900v-600h-900z" transform="translate(-438.00001 -363.79981)"/></clipPath><clipPath id="i"><path d="m0 600h900v-600h-900z" transform="translate(-432.56251 -355.01421)"/></clipPath><clipPath id="j"><path d="m0 600h900v-600h-900z" transform="translate(-445.96681 -294.6934)"/></clipPath><clipPath id="k"><path d="m0 600h900v-600h-900z" transform="translate(-455.11621 -270.5449)"/></clipPath><clipPath id="l"><path d="m0 600h900v-600h-900z" transform="translate(-485.22271 -269.05471)"/></clipPath><clipPath id="m"><path d="m0 600h900v-600h-900z" transform="translate(-466.60551 -292.35351)"/></clipPath><clipPath id="n"><path d="m0 600h900v-600h-900z" transform="translate(-467.77641 -296.92771)"/></clipPath><clipPath id="o"><path d="m0 600h900v-600h-900z" transform="translate(-417.66891 -354.05621)"/></clipPath><g transform="matrix(1.3333333 0 0 -1.3333333 0 800)"><path d="m0 0h900v600h-900z"/><path d="m0 400h900v100.001h-900z" fill="#fcdc04"/><path d="m0 300h900v100h-900z" fill="#d90000"/><path d="m0 100h900v100h-900z" fill="#fcdc04"/><path d="m0 0h900v100h-900z" fill="#d90000"/></g><path clip-path="url(#a)" d="m0 0c51.639 0 93.5-41.861 93.5-93.5s-41.861-93.5-93.5-93.5-93.5 41.861-93.5 93.5 41.861 93.5 93.5 93.5" fill="#fff" transform="matrix(1.3333333 0 0 -1.3333333 600 275.33333)"/><g stroke="#000"><path clip-path="url(#b)" d="m0 0-6.064 11.17c2.339 2.34 6.276 4.149 12.553 4.149 0-.425-.638-12.234-.638-12.234z" fill="#d90000" transform="matrix(1.3333333 0 0 -1.3333333 578.02733 304.5208)"/><path clip-path="url(#c)" d="m0 0 .851 12.341s12.553.744 19.362-7.447c.106.106-6.702-9.574-6.702-9.574z" fill="#fcdc04" transform="matrix(1.3333333 0 0 -1.3333333 585.82813 300.54947)"/><path clip-path="url(#d)" d="m0 0 6.17 9.574c4.149-4.362 5.851-7.447 6.489-12.128.107-.106-9.787-2.446-9.787-2.34s-2.766 4.788-2.872 4.894" fill="#d90000" transform="matrix(1.3333333 0 0 -1.3333333 604.12627 306.64773)"/><path clip-path="url(#e)" d="m0 0s11.596 13.299 34.149 10.426c-3.404 5.532-14.362 4.893-14.362 4.893s-3.404 25.852-.744 27.128c2.659 1.278 13.936-.106 13.936-.106 1.489 0 4.042 4.043 2.021 6.596s-7.979 12.34-5.532 14.255 15.745-1.063 15.745-1.063l-37.553 48.085s-3.83 18.085 3.829 26.809c9.256 7.66 8.298 15.957 7.979 15.851-1.277 8.405-14.042 14.469-22.659 6.702-5.107-6.17-1.703-10.851-1.703-10.851s-13.404-3.617-13.936-5.957c-.532-2.341 15.106.425 15.106.425l-1.489-10.745s-30.426-27.659-7.128-51.595c.213.106.745 1.063.745 1.063s8.192-10.106 16.808-12.341c8.085-8.298 7.341-7.02 7.341-7.02s1.595-13.086.107-15.639c-2.022.638-22.66 1.382-25.746.213-2.766-.852-13.404-.319-10.745-17.661 2.021 4.681 3.831 8.831 3.831 8.831s-.32-6.277 2.234-8.512c-.426 6.597 2.447 11.065 2.447 11.065s.531-7.235 2.127-8.298c1.596-1.064 1.596 11.703 10.426 10.638 8.829-1.064 15.213-.745 15.213-.745s2.979-25 2.021-27.341c-6.384 1.491-21.596-.638-22.553-4.467 8.935.531 13.085-.532 13.085-.532s-7.234-6.383-5-10.107" transform="matrix(1.3333333 0 0 -1.3333333 582.14067 517.43093)"/></g><path clip-path="url(#f)" d="m0 0s-22.139-24.402-12.588-43.075c.509 2.604.287 4.24.607 4.134-.533.319 2.745-2.247 2.496-1.747.069 1.35-.999 4.243-.999 4.243.999-.25 1.998-.5 2.996-.749-.583 1.082-1.166 2.163-1.748 3.245 1.415-.167 2.829-.332 4.244-.499 0 0-1.498 3.994-.998 3.994.498 0 3.494-.25 3.494-.25-6.296 11.299-.357 20.683 2.496 30.704" fill="#9ca69c" stroke="#9ca69c" transform="matrix(1.3333333 0 0 -1.3333333 586.92187 335.54747)"/><path clip-path="url(#g)" d="m0 0s1.17-8.404-3.404-10.851c-.745-.532-3.617-1.489-3.192-3.192.533-2.34 1.809-1.915 3.617-1.489 4.787.851 10.32 11.064 2.979 15.532" fill="#9ca69c" stroke="#9ca69c" transform="matrix(1.3333333 0 0 -1.3333333 597.17573 307.64133)"/><path clip-path="url(#h)" d="m0 0c.994 0 1.8-.806 1.8-1.8s-.806-1.8-1.8-1.8-1.8.806-1.8 1.8.806 1.8 1.8 1.8" fill="#fff" transform="matrix(1.3333333 0 0 -1.3333333 584 314.9336)"/><path clip-path="url(#i)" d="m0 0c-1.17-.958-7.34-7.341-1.277-9.682 6.277 1.703 4.575 2.872 5.958 4.256.036 2.872-3.12 3.617-4.681 5.426" fill="#d90000" stroke="#000" transform="matrix(1.3333333 0 0 -1.3333333 576.75 326.64773)"/><path clip-path="url(#j)" d="m0 0c-.319-1.383-1.702-6.489.213-10.426 5.319 2.235 7.766 1.597 9.575.426-4.361 3.511-6.064 5.001-9.788 10" fill="#9ca69c" stroke="#9ca69c" transform="matrix(1.3333333 0 0 -1.3333333 594.6224 407.07547)"/><path clip-path="url(#k)" d="m0 0 .319-11.915s4.149-.745 6.064 0-.107 8.298-6.383 11.915" fill="#fff" stroke="#fff" transform="matrix(1.3333333 0 0 -1.3333333 606.8216 439.27347)"/><g stroke="#000"><path clip-path="url(#l)" d="m0 0s-7.66 18.511-27.234 23.192c-19.575 4.681-17.022 25.532-15.426 26.809.851 1.809 1.49 4.575 7.127 1.915 5.639-2.66 31.596-15.745 35.32-16.383s.532-35.958.213-35.533" fill="#9ca69c" transform="matrix(1.3333333 0 0 -1.3333333 646.9636 441.2604)"/><path clip-path="url(#m)" d="m0 0c-.319-.213 26.171-15.638 18.191-28.937 7.555 5.001 5.107 13.724 5.107 13.724s6.171-16.064-8.83-23.936c1.596-1.384 2.66-1.064 2.66-1.064l-2.554-2.554s-1.17-1.915 8.937 2.98c-2.767-2.234-2.979-3.83-2.979-3.83s.744-2.128 7.341 3.617c-5.319-5.745-6.49-8.724-6.49-8.617 14.361 1.276 45.638 47.978-9.894 61.809 2.98-3.086 2.554-2.66 2.554-2.66z" fill="#d90000" transform="matrix(1.3333333 0 0 -1.3333333 622.14067 410.19533)"/><path clip-path="url(#n)" d="m0 0c3.616-2.553 4.893-3.404 5.318-4.681-3.297.744-6.276.533-6.276.533s-7.128 6.808-8.404 7.34c-.958 0-6.49 3.51-6.49 3.51-2.766 1.383-5.318 10.958 4.894 8.192 10.531-4.999 12.02-5.426 12.02-5.426 4.186-1.312 8.37-2.624 12.554-3.936 2.412-2.695 4.822-5.39 7.235-8.086 0 0-12.872 6.384-14.468 6.491 3.51-2.873 5.532-6.809 5.532-6.809-4.079 1.171-7.624 2.234-11.915 2.872" fill="#fff" transform="matrix(1.3333333 0 0 -1.3333333 623.70187 404.0964)"/></g><path clip-path="url(#o)" d="m0 0s12.341 2.979 13.83 2.553" stroke="#fff" transform="matrix(1.3333333 0 0 -1.3333333 556.89187 327.92507)"/></svg>