<svg xmlns="http://www.w3.org/2000/svg" width="144" height="96" viewBox="0 0 24 16">
	<path fill="#111" d="M0 0H24v16H0z"/>
	<g fill="#fc0">
		<path d="M 12,1 12.487726,3.5480368 13.913417,1.3806024 13.388926,3.9213259 15.535534,2.4644662 14.078674,4.6110744 16.619398,4.086583 14.451963,5.5122742 17,6 14.451963,6.4877258 16.619398,7.9134173 14.078674,7.3889256 15.535534,9.535534 13.388926,8.078674 13.913417,10.619398 12.487726,8.4519632 12,11 11.512274,8.4519632 10.086583,10.619398 10.611074,8.0786741 8.464466,9.5355338 9.921326,7.3889256 7.3806023,7.913417 9.5480368,6.4877258 7,6 9.5480368,5.5122742 7.3806024,4.0865827 9.9213259,4.6110744 8.4644662,2.464466 10.611074,3.921326 10.086583,1.3806023 11.512274,3.5480368 Z"/>
		</g>
	<path fill="#07c" d="M0 6H24V16H0z"/>
	<path fill="#fff" d="M0 10H24V16H0z"/>
	<g fill="#c12">
		<path d="M0 0L12 16H0z"/>
		<path d="M24 0v16h-12z"/>
		</g>
</svg>