<svg height="613.33331" viewBox="0 0 920 613.33331" width="920" xmlns="http://www.w3.org/2000/svg"><path d="m0 0h690v460h-690z" fill="#fff" transform="matrix(1.3333333 0 0 -1.3333333 0 613.33333)"/><path d="m0 280h690v180h-690z" transform="matrix(1.3333333 0 0 -1.3333333 0 613.33333)"/><g fill="#fcd116"><path d="m0 0 147.118-29.264 7.316 36.78" transform="matrix(1.3333333 0 0 -1.3333333 260 240)"/><path d="m0 0 147.118 29.264 7.316-36.78" transform="matrix(1.3333333 0 0 -1.3333333 260 240)"/><path d="m0 0 124.721-83.335 20.834 31.18" transform="matrix(1.3333333 0 0 -1.3333333 275.224 163.4636)"/><path d="m0 0 147.118-29.263-7.316-36.78" transform="matrix(1.3333333 0 0 -1.3333333 275.224 163.4636)"/><path d="m0 0 83.335-124.72 31.18 20.834" transform="matrix(1.3333333 0 0 -1.3333333 318.5788 98.5788)"/><path d="m0 0 124.72-83.335-20.834-31.181" transform="matrix(1.3333333 0 0 -1.3333333 318.5788 98.5788)"/><path d="m0 0 29.263-147.118 36.78 7.316" transform="matrix(1.3333333 0 0 -1.3333333 383.4636 55.224)"/><path d="m0 0 83.335-124.721-31.18-20.833" transform="matrix(1.3333333 0 0 -1.3333333 383.4636 55.224)"/><path d="m0 0-29.264-147.118 36.78-7.316" transform="matrix(1.3333333 0 0 -1.3333333 460 40)"/><path d="m0 0 29.264-147.118-36.78-7.316" transform="matrix(1.3333333 0 0 -1.3333333 460 40)"/><path d="m0 0-83.335-124.721 31.18-20.833" transform="matrix(1.3333333 0 0 -1.3333333 536.5364 55.224)"/><path d="m0 0-29.264-147.118-36.779 7.316" transform="matrix(1.3333333 0 0 -1.3333333 536.5364 55.224)"/><path d="m0 0-124.721-83.335 20.834-31.181" transform="matrix(1.3333333 0 0 -1.3333333 601.42187 98.5788)"/><path d="m0 0-83.336-124.72-31.18 20.834" transform="matrix(1.3333333 0 0 -1.3333333 601.42187 98.5788)"/><path d="m0 0-147.118-29.263 7.316-36.78" transform="matrix(1.3333333 0 0 -1.3333333 644.776 163.4636)"/><path d="m0 0-124.721-83.335-20.833 31.18" transform="matrix(1.3333333 0 0 -1.3333333 644.776 163.4636)"/><g transform="matrix(1.3333333 0 0 -1.3333333 660 240)"><path d="m0 0-147.118 29.264-7.316-36.78"/><path d="m0 0-147.118-29.264-7.316 36.78"/></g></g><path d="m0 180h690v100h-690z" fill="#0072c6" transform="matrix(1.3333333 0 0 -1.3333333 0 613.33333)"/><path d="m0 0-345.001-460-344.999 460v-460h690z" fill="#ce1126" transform="matrix(1.3333333 0 0 -1.3333333 920.0004 .000133)"/></svg>