<?xml version="1.0" encoding="UTF-8" standalone="no"?>
<!-- Created with Inkscape (http://www.inkscape.org/) -->

<svg
   width="96"
   height="96"
   viewBox="0 0 96 96"
   version="1.1"
   id="svg5"
   xml:space="preserve"
   inkscape:version="1.2.2 (732a01da63, 2022-12-09)"
   sodipodi:docname="square_v7.svg"
   inkscape:export-filename="rect_v4.svg"
   inkscape:export-xdpi="96"
   inkscape:export-ydpi="96"
   xmlns:inkscape="http://www.inkscape.org/namespaces/inkscape"
   xmlns:sodipodi="http://sodipodi.sourceforge.net/DTD/sodipodi-0.dtd"
   xmlns="http://www.w3.org/2000/svg"
   xmlns:svg="http://www.w3.org/2000/svg"><sodipodi:namedview
     id="namedview7"
     pagecolor="#505050"
     bordercolor="#eeeeee"
     borderopacity="1"
     inkscape:showpageshadow="0"
     inkscape:pageopacity="0"
     inkscape:pagecheckerboard="0"
     inkscape:deskcolor="#505050"
     inkscape:document-units="px"
     showgrid="false"
     inkscape:zoom="7.3263748"
     inkscape:cx="33.645562"
     inkscape:cy="40.811453"
     inkscape:window-width="2560"
     inkscape:window-height="1377"
     inkscape:window-x="1912"
     inkscape:window-y="-8"
     inkscape:window-maximized="1"
     inkscape:current-layer="svg5"
     showguides="false"><inkscape:grid
       type="xygrid"
       id="grid2138"
       originx="0"
       originy="0"
       empspacing="8" /></sodipodi:namedview><defs
     id="defs2" /><g
     id="g4148"
     transform="matrix(4,0,0,4,0,-24)"
     style="display:none"><path
       fill="#ffb700"
       d="m 36,27 c 0,2.209 -1.791,4 -4,4 H 4 C 1.791,31 0,29.209 0,27 V 9 C 0,6.791 1.791,5 4,5 h 28 c 2.209,0 4,1.791 4,4 z"
       id="path4127" /><path
       fill="#8d2129"
       d="M 32,6 H 10 v 24 h 22 c 1.654,0 3,-1.346 3,-3 V 9 C 35,7.346 33.654,6 32,6 Z"
       id="path4129"
       style="fill:#882233;fill-opacity:1" /><path
       fill="#005641"
       d="M 4,6 C 2.346,6 1,7.346 1,9 v 18 c 0,1.654 1.346,3 3,3 H 5 V 6 Z"
       id="path4131" /><path
       fill="#ff5b00"
       d="M 5,6 H 9 V 30 H 5 Z"
       id="path4133" /><path
       d="m 13.199,10.062 c 0,0 -0.067,-0.959 -0.035,-1.762 0.021,-0.532 -0.277,-1.175 -0.84,-1.082 -0.563,0.093 -1.188,-0.021 -1.188,-0.021 0,0 0.125,0.364 0,0.708 -0.125,0.344 -0.125,1.062 0.719,1.156 0.844,0.095 1.188,0.532 1.344,1.001 z m 18.684,0 c 0,0 0.067,-0.959 0.035,-1.762 -0.021,-0.532 0.277,-1.175 0.84,-1.082 0.563,0.093 1.188,-0.021 1.188,-0.021 0,0 -0.125,0.364 0,0.708 0.125,0.344 0.125,1.062 -0.719,1.156 -0.844,0.095 -1.188,0.532 -1.344,1.001 z M 13.199,25.938 c 0,0 -0.067,0.96 -0.035,1.763 0.021,0.532 -0.277,1.175 -0.84,1.081 -0.562,-0.094 -1.188,0.021 -1.188,0.021 0,0 0.125,-0.365 0,-0.709 -0.125,-0.344 -0.125,-1.062 0.719,-1.156 0.844,-0.094 1.188,-0.532 1.344,-1 z m 18.684,0 c 0,0 0.067,0.96 0.035,1.763 -0.021,0.532 0.277,1.175 0.84,1.081 0.562,-0.094 1.188,0.021 1.188,0.021 0,0 -0.125,-0.365 0,-0.709 0.125,-0.344 0.125,-1.062 -0.719,-1.156 -0.844,-0.094 -1.188,-0.532 -1.344,-1 z"
       fill="#ffb700"
       id="path4135"
       style="display:none"
       sodipodi:nodetypes="ccscsccccscsccccccsscccccssc" /></g><rect
     style="fill:#ffbb00;fill-opacity:1;stroke-width:2;stroke-linecap:round;stroke-linejoin:round"
     id="rect16425"
     width="96"
     height="96"
     x="0"
     y="0" /><rect
     style="display:inline;fill:#881133;fill-opacity:1;stroke-width:2;stroke-linecap:round;stroke-linejoin:round"
     id="rect9766"
     width="56"
     height="80"
     x="32"
     y="8" /><rect
     style="display:inline;fill:#005544;fill-opacity:1;stroke-width:2;stroke-linecap:round;stroke-linejoin:round"
     id="rect10507"
     width="8"
     height="80"
     x="8"
     y="8" /><rect
     style="display:inline;fill:#ee7700;fill-opacity:1;stroke-width:2;stroke-linecap:round;stroke-linejoin:round"
     id="rect11289"
     width="8"
     height="80"
     x="16"
     y="8" /><g
     id="g20792"
     transform="matrix(0.75,0,0,0.75,-7.5,12)"><rect
       style="fill:#ffffff;fill-opacity:0;stroke-width:2;stroke-linecap:round;stroke-linejoin:round"
       id="rect20788"
       width="72"
       height="60"
       x="54"
       y="18" /><path
       d="m 18.406,13.375 c 0,0 0.594,-0.031 1.188,-0.188 C 20.188,13.031 20,12.469 20,12.469 c 0,0 0.531,-0.281 0.844,0 0.312,0.281 0.688,0.25 0.5,-0.125 0.562,-0.281 0.812,0.344 0.812,0.344 0,0 0.281,-0.177 0.344,-0.417 0.5,-0.052 0.594,0.448 0.906,0.385 0.312,-0.063 0.531,-0.389 0.531,-0.389 0,0 0.062,0.889 -0.469,1.108 0.438,0.562 0.312,1.656 0.312,1.938 l -0.312,-0.188 c 0,0 0.188,0.875 0.281,1 0.094,0.125 -0.312,0 -0.312,0 0,0 0.219,0.594 0.375,0.688 0.156,0.094 3.094,-0.188 3.938,-0.188 0.844,0 2,-0.125 2,-0.875 0,-0.75 -0.969,-0.688 -2.062,-0.531 -1.094,0.156 -1.812,0.125 -2.25,-0.156 -0.438,-0.281 -0.937,-0.354 -0.896,0.354 -0.667,-0.312 -0.188,-0.979 -0.188,-0.979 0,0 -0.761,-0.833 -0.276,-1.667 0.484,-0.833 2.359,-1.084 3.672,-0.354 1.313,0.73 1.833,1.333 2.375,1.438 -0.021,-0.396 0.646,-0.687 0.729,0.042 0.083,0.729 -0.834,0.583 -1.229,0.354 -0.395,-0.229 -1.104,-0.917 -1.104,-0.917 0,0 -0.021,0.417 0.25,0.688 -0.75,-0.083 -0.916,-0.646 -0.916,-0.646 0,0 -0.043,0.603 -0.73,0.624 0.5,-0.583 0.333,-1.062 -0.354,-1.312 0.396,0.604 0.021,1.125 -0.562,1.208 0.396,-0.562 0.063,-1.208 -0.666,-1.333 0.104,0.458 -0.25,0.583 -0.25,0.583 0,0 -0.166,-0.417 -0.5,-0.188 -0.334,0.229 -0.418,0.73 0.019,1.042 0.271,-0.542 0.812,-0.5 1,-0.271 -0.562,0.062 -0.541,0.584 -0.333,0.854 0.208,-0.354 0.417,-0.458 0.625,-0.083 0.208,0.375 0.833,0.354 1.958,0.188 1.125,-0.166 2.161,-0.044 2.333,0.958 0.146,0.854 -0.708,1.271 -0.708,1.271 0,0 1.104,0.833 0.396,2.646 -0.708,1.813 -0.416,2.562 -0.146,2.75 0.27,0.188 0.688,0.208 0.125,0.708 -0.563,0.5 -0.417,0.855 -0.188,1.146 0.229,0.291 0.167,0.583 -0.5,0.208 -0.292,0.292 -0.583,0.208 -0.75,-0.042 -0.167,0.229 -0.479,0.292 -0.688,0.042 -0.208,0.167 -0.479,0.167 -0.333,-0.188 0.146,-0.355 0.854,-0.5 1.062,-0.562 0.208,-0.062 0.188,-0.438 0.125,-0.854 -0.063,-0.416 -0.417,-0.854 -1.167,-1.25 -0.333,0.25 -0.292,0.541 -0.167,0.688 0.125,0.147 0.521,0.188 0.542,0.312 0.021,0.124 -0.208,0.396 -0.458,0.584 -0.25,0.188 -0.208,0.521 -0.125,0.688 0.083,0.167 0.187,0.577 -0.084,0.768 -0.271,0.19 -0.541,-0.247 -0.541,-0.247 0,0 -0.168,0.521 -0.646,0.021 -0.271,0.334 -0.541,0.209 -0.666,0.021 -0.271,0.271 -0.688,0.25 -0.479,-0.125 0.209,-0.375 0.458,-0.376 0.75,-0.396 0.292,-0.02 0.687,-0.082 0.646,-0.666 -0.041,-0.584 -0.156,-1.177 -0.562,-1.542 -0.625,-0.562 -0.521,-1.229 -0.521,-1.229 0,0 -1.042,-0.104 -1.854,0.459 -0.812,0.563 -1.438,0.562 -1.438,0.562 0,0 -0.459,0.5 -0.5,0.812 -0.041,0.312 0.146,0.417 0.396,0.5 0.25,0.083 0.438,0.062 0.062,0.396 -0.376,0.334 -0.688,0.312 -0.688,0.312 0,0 -0.019,0.353 0.022,0.561 0.041,0.208 -0.084,0.569 -0.292,0.607 -0.208,0.038 -0.521,-0.232 -0.521,-0.232 0,0 -0.396,0.417 -0.708,-0.021 -0.354,0.333 -0.667,0.209 -0.792,0 -0.208,0.333 -0.542,0.188 -0.333,-0.188 0.209,-0.376 0.5,-0.418 1,-0.396 0.5,0.022 0.916,-0.375 0.729,-0.896 -0.187,-0.521 -0.354,-1.229 -0.354,-1.229 0,0 -0.396,-0.042 -0.979,-0.375 -0.729,0.875 -0.979,0.563 -1.188,0.396 -0.209,-0.167 -0.708,-0.625 -0.708,-0.625 0,0 -0.271,-0.021 -0.229,0.229 -0.292,-0.021 -0.188,-0.479 -0.188,-0.708 0,-0.229 -0.083,-0.5 -0.25,-0.5 -0.167,0 -0.417,0.042 -0.417,0.042 0,0 0,0.082 0.25,0.166 0.25,0.084 0.229,0.251 -0.021,0.271 -0.25,0.02 -0.417,0.082 -0.229,0.229 0.188,0.147 0.208,0.229 0.062,0.375 -0.146,0.146 -0.125,0.541 0.125,0.688 0.167,-0.396 0.479,-0.166 0.417,0.104 -0.062,0.27 -0.521,0.229 -0.521,0.229 l 0.312,0.354 -0.476,0.104 c 0,0 -0.024,0.292 -0.211,0.354 -0.187,0.062 -0.229,-0.438 -0.229,-0.438 l -0.438,-0.021 0.292,-0.354 c 0,0 -0.417,-0.146 -0.438,-0.396 -0.021,-0.25 0.312,-0.125 0.375,0 0.333,-0.146 0.229,-0.479 0.104,-0.604 -0.125,-0.125 -0.042,-0.229 0.083,-0.375 0.125,-0.146 0.104,-0.229 -0.083,-0.188 -0.187,0.041 -0.5,-0.334 -0.188,-0.334 0.312,0 0.375,-0.021 0.333,-0.25 -0.375,-0.041 -0.146,-0.333 -0.146,-0.333 0,0 -0.292,-0.209 -0.083,-0.354 -0.188,-0.166 -0.229,-0.438 -0.021,-0.479 -0.125,-0.104 0.042,-0.292 0.042,-0.292 0,0 -0.601,-0.102 -0.601,-0.56 0,-0.458 0.521,-0.375 0.521,-0.375 0,0 -0.062,-1.458 0.083,-3.5 0.145,-2.042 1,-2.75 1.521,-2.958 -0.542,1.146 -0.479,3.083 -0.479,4.271 0,1.188 -0.021,2.125 -0.021,2.125 0,0 0.583,0.041 0.541,0.437 -0.042,0.396 -0.312,0.479 -0.312,0.479 L 18,19.833 c 0,0 -0.062,-1.389 0.396,-1.944 0.458,-0.555 1.166,-1.076 1.375,-1.243 0.209,-0.167 -0.129,-0.609 -0.291,-0.125 -0.236,-0.029 -0.438,-0.417 -0.438,-0.417 0,0 0.021,0.146 -0.125,0.25 -0.146,0.104 -0.104,-0.354 -0.188,-0.312 -0.084,0.042 -0.312,0.167 -0.604,0.25 0.021,-0.167 0.146,-0.375 0.146,-0.375 0,0 -0.375,0.041 -0.709,0.083 0,-0.292 0.187,-0.771 0.354,-0.812 -0.417,-0.208 -0.312,-0.604 -0.125,-0.542 0.187,0.062 1.062,0.583 2.042,0.646 -0.312,-0.354 -0.562,-0.812 -0.562,-0.812 l -0.104,0.354 -0.375,-0.354 -0.042,0.354 c 0,0 -0.917,-0.667 -1.083,-1.208 -0.166,-0.541 0.021,-0.939 0.333,-0.896 0.604,0.082 0.406,0.645 0.406,0.645 z"
       fill="#ffb700"
       id="path7474"
       style="display:inline;fill:#ffbb00;fill-opacity:1"
       sodipodi:nodetypes="cccccccsccccccssscscccscssccccccccscccssccsssscccssscssssccccsssccscssscsscccsssccsccsscsssscscccscccscsssscccccscscscsccssccssccccscccccscc"
       transform="matrix(4,0,0,4,0,-24)" /></g></svg>
