<svg height="800" viewBox="0 0 1200 800" width="1200" xmlns="http://www.w3.org/2000/svg" xmlns:xlink="http://www.w3.org/1999/xlink"><clipPath id="a"><path d="m0 600h900v-600h-900z" transform="translate(-449.96391 -300.08641)"/></clipPath><clipPath id="b"><path d="m0 600h900v-600h-900z" transform="translate(-444.27201 -399.08011)"/></clipPath><clipPath id="c"><path d="m0 600h900v-600h-900z" transform="translate(-450.55961 -301.24121)"/></clipPath><clipPath id="d"><path d="m0 600h900v-600h-900z" transform="translate(-450.07131 -300.06101)"/></clipPath><clipPath id="e"><path d="m0 600h900v-600h-900z" transform="translate(-542.46091 -336.06541)"/></clipPath><clipPath id="f"><path d="m0 600h900v-600h-900z" transform="translate(-451.35351 -299.85111)"/></clipPath><clipPath id="g"><path d="m0 600h900v-600h-900z" transform="translate(-450.08011 -299.9512)"/></clipPath><clipPath id="h"><path d="m0 600h900v-600h-900z" transform="translate(-512.87212 -223.20901)"/></clipPath><clipPath id="i"><path d="m0 600h900v-600h-900z" transform="translate(-450.27641 -298.66701)"/></clipPath><clipPath id="j"><path d="m0 600h900v-600h-900z" transform="translate(-449.97801 -299.90871)"/></clipPath><clipPath id="k"><path d="m0 600h900v-600h-900z" transform="translate(-396.39601 -216.4756)"/></clipPath><clipPath id="l"><path d="m0 600h900v-600h-900z" transform="translate(-448.81741 -299.32521)"/></clipPath><clipPath id="m"><path d="m0 600h900v-600h-900z" transform="translate(-449.90671 -299.99271)"/></clipPath><clipPath id="n"><path d="m0 600h900v-600h-900z" transform="translate(-353.99901 -325.16991)"/></clipPath><clipPath id="o"><path d="m0 600h900v-600h-900z" transform="translate(-448.99271 -300.91601)"/></clipPath><path d="m0 0h900v600h-900z" fill="#000" transform="matrix(1.3333333 0 0 -1.3333333 0 800)"/><path clip-path="url(#a)" d="m0 0c-105.263 44.486-58.602 181.582 42.069 174.691-20.365-10.467-23.317-29.998-11.686-48.09 13.024-20.256-1.199-52.849-18.806-60.768-28.935-13.024-34.728-47.75-11.577-65.833" fill="#fff" transform="matrix(1.3333333 0 0 -1.3333333 599.95187 399.8848)"/><path clip-path="url(#b)" d="m0 0-5.92-9.293-2.144 10.814-10.679 2.759 9.625 5.389-.671 11 8.085-7.489 10.256 4.042-4.61-10.009 7.001-8.505z" fill="#000" transform="matrix(1.3333333 0 0 -1.3333333 592.36267 267.8932)"/><path clip-path="url(#c)" d="m0 0c-12.73 6.534-22.996 20.155-27.468 36.431-5.115 18.67-2.173 38.742 8.083 55.038l-2.208 1.393c-10.64-16.928-13.693-37.742-8.386-57.118 4.729-17.223 15.214-31.098 28.788-38.064z" fill="#000" transform="matrix(1.3333333 0 0 -1.3333333 600.74613 398.34507)"/><path clip-path="url(#d)" d="m0 0c9.781 113.858 154.586 111.845 179.141 13.972-16.248 16.134-35.735 12.906-49.348-3.746-15.239-18.646-50.633-15.19-63.605-.893-21.328 23.494-56.144 18.273-66.188-9.333" fill="#fff" transform="matrix(1.3333333 0 0 -1.3333333 600.09507 399.91867)"/><path clip-path="url(#e)" d="m0 0-10.668 2.758 9.622 5.381-.676 11.008 8.1-7.488 10.254 4.038-4.624-10.005 7.013-8.504-10.944 1.292-5.925-9.287z" fill="#000" transform="matrix(1.3333333 0 0 -1.3333333 723.2812 351.9128)"/><path clip-path="url(#f)" d="m0 0c2.28 14.127 12.062 28.099 26.16 37.382 16.175 10.634 36.175 14.038 54.842 9.32l.643 2.53c-19.388 4.889-40.127 1.36-56.915-9.675-14.917-9.818-24.875-24.079-27.306-39.14z" fill="#000" transform="matrix(1.3333333 0 0 -1.3333333 601.80467 400.19853)"/><path clip-path="url(#g)" d="m0 0c111.308 25.882 154.141-112.458 68.646-166.056 10.324 20.439 1.232 37.975-18.812 45.776-22.443 8.731-30.094 43.46-20.504 60.216 15.753 27.543.028 59.043-29.33 60.064" fill="#fff" transform="matrix(1.3333333 0 0 -1.3333333 600.1068 400.06507)"/><path clip-path="url(#h)" d="m0 0-.674 10.999 8.092-7.488 10.261 4.044-4.619-10.018 7.008-8.504-10.943 1.306-5.921-9.299-2.153 10.809-10.664 2.765z" fill="#000" transform="matrix(1.3333333 0 0 -1.3333333 683.82947 502.388)"/><path clip-path="url(#i)" d="m0 0c14.141 2.196 30.451-2.789 43.636-13.328 15.112-12.098 24.53-30.067 25.811-49.277l2.606.169c-1.342 19.951-11.108 38.583-26.79 51.14-13.948 11.153-30.587 16.216-45.663 13.874z" fill="#000" transform="matrix(1.3333333 0 0 -1.3333333 600.36853 401.77733)"/><path clip-path="url(#j)" d="m0 0c59.011-97.862-59.321-181.348-136.715-116.6 22.629-3.503 36.496 10.563 37.721 32.037 1.369 24.042 32.034 42.05 50.932 38.107 31.065-6.47 56.163 18.218 48.062 46.456" fill="#fff" transform="matrix(1.3333333 0 0 -1.3333333 599.97067 400.12173)"/><path clip-path="url(#k)" d="m0 0 10.252 4.039-4.621-10.009 7.016-8.509-10.954 1.297-5.922-9.294-2.139 10.812-10.674 2.758 9.614 5.387-.665 10.998z" fill="#000" transform="matrix(1.3333333 0 0 -1.3333333 528.528 511.36587)"/><path clip-path="url(#l)" d="m0 0c6.459-12.77 6.758-29.822.809-45.619-6.836-18.11-21.015-32.62-38.89-39.776l.967-2.424c18.559 7.441 33.263 22.485 40.358 41.281 6.298 16.711 5.971 34.1-.916 47.715z" fill="#000" transform="matrix(1.3333333 0 0 -1.3333333 598.4232 400.89973)"/><path clip-path="url(#m)" d="m0 0c-74.837-86.364-190.804.378-153.141 93.993 3.662-22.604 21.324-31.447 42.125-25.976 23.289 6.128 49.892-17.471 51.982-36.663 3.446-31.544 34.681-47.784 59.034-31.354" fill="#fff" transform="matrix(1.3333333 0 0 -1.3333333 599.8756 400.00973)"/><g fill="#000"><path clip-path="url(#n)" d="m0 0 7.01-8.502-10.948 1.302-5.924-9.303-2.152 10.819-10.668 2.761 9.621 5.375-.675 11.004 8.094-7.478 10.253 4.03z" transform="matrix(1.3333333 0 0 -1.3333333 471.99867 366.44013)"/><path clip-path="url(#o)" d="m0 0c-10.148-10.089-26.274-15.643-43.136-14.866-19.337.905-37.518 9.906-49.846 24.695l-2.008-1.669c12.812-15.351 31.664-24.686 51.732-25.626 17.84-.826 34.277 4.859 45.096 15.615z" transform="matrix(1.3333333 0 0 -1.3333333 598.65693 398.77867)"/></g></svg>