<svg height="330" viewBox="0 0 491.44266 330" width="491.44266" xmlns="http://www.w3.org/2000/svg" xmlns:xlink="http://www.w3.org/1999/xlink"><clipPath id="a"><path d="m0 247.5h368.582v-247.5h-368.582z" transform="translate(-213.90031 -123.75)"/></clipPath><clipPath id="b"><path d="m0 247.5h368.582v-247.5h-368.582z" transform="translate(-208.25571 -123.75)"/></clipPath><clipPath id="c"><path d="m0 247.5h368.582v-247.5h-368.582z" transform="translate(-202.1737 -123.75)"/></clipPath><clipPath id="d"><path d="m0 247.5h368.582v-247.5h-368.582z" transform="translate(-162.5409 -111.3828)"/></clipPath><clipPath id="e"><path d="m0 247.5h368.582v-247.5h-368.582z" transform="translate(-159.08391 -114.2188)"/></clipPath><clipPath id="f"><path d="m0 247.5h368.582v-247.5h-368.582z" transform="translate(-159.2787 -120.7266)"/></clipPath><clipPath id="g"><path d="m0 247.5h368.582v-247.5h-368.582z" transform="translate(-157.4857 -127.2148)"/></clipPath><clipPath id="h"><path d="m0 247.5h368.582v-247.5h-368.582z" transform="translate(-161.65761 -130.4922)"/></clipPath><clipPath id="i"><path d="m0 247.5h368.582v-247.5h-368.582z" transform="translate(-160.07601 -135.4731)"/></clipPath><clipPath id="j"><path d="m0 247.5h368.582v-247.5h-368.582z" transform="translate(-162.6537 -139.3789)"/></clipPath><clipPath id="k"><path d="m0 247.5h368.582v-247.5h-368.582z" transform="translate(-168.39291 -141.5859)"/></clipPath><clipPath id="l"><path d="m0 247.5h368.582v-247.5h-368.582z" transform="translate(-172.25961 -143.9019)"/></clipPath><clipPath id="m"><path d="m0 247.5h368.582v-247.5h-368.582z" transform="translate(-177.7518 -147.5469)"/></clipPath><clipPath id="n"><path d="m0 247.5h368.582v-247.5h-368.582z" transform="translate(-181.7719 -149.0122)"/></clipPath><clipPath id="o"><path d="m0 247.5h368.582v-247.5h-368.582z" transform="translate(-186.9076 -148.605)"/></clipPath><clipPath id="p"><path d="m0 247.5h368.582v-247.5h-368.582z" transform="translate(-193.97061 -144.0942)"/></clipPath><clipPath id="q"><path d="m0 247.5h368.582v-247.5h-368.582z" transform="translate(-198.09951 -139.98)"/></clipPath><clipPath id="r"><path d="m0 247.5h368.582v-247.5h-368.582z" transform="translate(-201.451 -137.48781)"/></clipPath><clipPath id="s"><path d="m0 247.5h368.582v-247.5h-368.582z" transform="translate(-203.52531 -131.6992)"/></clipPath><clipPath id="t"><path d="m0 247.5h368.582v-247.5h-368.582z" transform="translate(-204.6385 -127.03521)"/></clipPath><clipPath id="u"><path d="m0 247.5h368.582v-247.5h-368.582z" transform="translate(-207.4276 -120.8398)"/></clipPath><clipPath id="v"><path d="m0 247.5h368.582v-247.5h-368.582z" transform="translate(-203.6737 -116.3008)"/></clipPath><clipPath id="w"><path d="m0 247.5h368.582v-247.5h-368.582z" transform="translate(-205.201 -112.82811)"/></clipPath><clipPath id="x"><path d="m0 247.5h368.582v-247.5h-368.582z" transform="translate(-186.4359 -138.5229)"/></clipPath><clipPath id="y"><path d="m0 247.5h368.582v-247.5h-368.582z" transform="translate(-192.51351 -136.24611)"/></clipPath><clipPath id="z"><path d="m0 247.5h368.582v-247.5h-368.582z" transform="translate(-192.09951 -136.1328)"/></clipPath><clipPath id="A"><path d="m0 247.5h368.582v-247.5h-368.582z" transform="translate(-190.8925 -135.33591)"/></clipPath><clipPath id="B"><path d="m0 247.5h368.582v-247.5h-368.582z" transform="translate(-191.0721 -135.7812)"/></clipPath><clipPath id="C"><path d="m0 247.5h368.582v-247.5h-368.582z" transform="translate(-191.58 -135.98781)"/></clipPath><clipPath id="D"><path d="m0 247.5h368.582v-247.5h-368.582z" transform="translate(-192.4237 -134.4771)"/></clipPath><clipPath id="E"><path d="m0 247.5h368.582v-247.5h-368.582z" transform="translate(-196.1503 -133.24611)"/></clipPath><clipPath id="F"><path d="m0 247.5h368.582v-247.5h-368.582z" transform="translate(-195.5253 -133.2661)"/></clipPath><clipPath id="G"><path d="m0 247.5h368.582v-247.5h-368.582z" transform="translate(-193.59951 -132.66801)"/></clipPath><clipPath id="H"><path d="m0 247.5h368.582v-247.5h-368.582z" transform="translate(-193.99011 -133.2148)"/></clipPath><clipPath id="I"><path d="m0 247.5h368.582v-247.5h-368.582z" transform="translate(-194.7675 -133.2891)"/></clipPath><clipPath id="J"><path d="m0 247.5h368.582v-247.5h-368.582z" transform="translate(-195.4276 -130.7461)"/></clipPath><clipPath id="K"><path d="m0 247.5h368.582v-247.5h-368.582z" transform="translate(-198.10731 -128.25)"/></clipPath><clipPath id="L"><path d="m0 247.5h368.582v-247.5h-368.582z" transform="translate(-197.5135 -128.3979)"/></clipPath><clipPath id="M"><path d="m0 247.5h368.582v-247.5h-368.582z" transform="translate(-195.5175 -128.17581)"/></clipPath><clipPath id="N"><path d="m0 247.5h368.582v-247.5h-368.582z" transform="translate(-195.9979 -128.64111)"/></clipPath><clipPath id="O"><path d="m0 247.5h368.582v-247.5h-368.582z" transform="translate(-196.7635 -128.5659)"/></clipPath><clipPath id="P"><path d="m0 247.5h368.582v-247.5h-368.582z" transform="translate(-196.95891 -125.9341)"/></clipPath><clipPath id="Q"><path d="m0 247.5h368.582v-247.5h-368.582z" transform="translate(-198.2557 -122.6836)"/></clipPath><clipPath id="R"><path d="m0 247.5h368.582v-247.5h-368.582z" transform="translate(-197.7675 -123.0664)"/></clipPath><clipPath id="S"><path d="m0 247.5h368.582v-247.5h-368.582z" transform="translate(-195.88071 -123.6841)"/></clipPath><clipPath id="T"><path d="m0 247.5h368.582v-247.5h-368.582z" transform="translate(-196.494 -123.9141)"/></clipPath><clipPath id="U"><path d="m0 247.5h368.582v-247.5h-368.582z" transform="translate(-197.16201 -123.5229)"/></clipPath><clipPath id="V"><path d="m0 247.5h368.582v-247.5h-368.582z" transform="translate(-196.3134 -121.0039)"/></clipPath><clipPath id="W"><path d="m0 247.5h368.582v-247.5h-368.582z" transform="translate(-196.7557 -117.0391)"/></clipPath><clipPath id="X"><path d="m0 247.5h368.582v-247.5h-368.582z" transform="translate(-196.3456 -117.6289)"/></clipPath><clipPath id="Y"><path d="m0 247.5h368.582v-247.5h-368.582z" transform="translate(-194.4706 -118.99611)"/></clipPath><clipPath id="Z"><path d="m0 247.5h368.582v-247.5h-368.582z" transform="translate(-195.2206 -119.0313)"/></clipPath><clipPath id="aa"><path d="m0 247.5h368.582v-247.5h-368.582z" transform="translate(-195.826 -118.3633)"/></clipPath><clipPath id="ab"><path d="m0 247.5h368.582v-247.5h-368.582z" transform="translate(-194.0634 -115.8828)"/></clipPath><clipPath id="ac"><path d="m0 247.5h368.582v-247.5h-368.582z" transform="translate(-192.88071 -112.0938)"/></clipPath><clipPath id="ad"><path d="m0 247.5h368.582v-247.5h-368.582z" transform="translate(-192.8182 -112.8984)"/></clipPath><clipPath id="ae"><path d="m0 247.5h368.582v-247.5h-368.582z" transform="translate(-191.74791 -115.2813)"/></clipPath><clipPath id="af"><path d="m0 247.5h368.582v-247.5h-368.582z" transform="translate(-192.49791 -114.87891)"/></clipPath><clipPath id="ag"><path d="m0 247.5h368.582v-247.5h-368.582z" transform="translate(-192.7128 -113.8867)"/></clipPath><clipPath id="ah"><path d="m0 247.5h368.582v-247.5h-368.582z" transform="translate(-189.6537 -112.5508)"/></clipPath><clipPath id="ai"><path d="m0 247.5h368.582v-247.5h-368.582z" transform="translate(-187.80261 -109.3203)"/></clipPath><clipPath id="aj"><path d="m0 247.5h368.582v-247.5h-368.582z" transform="translate(-187.3807 -112.1641)"/></clipPath><clipPath id="ak"><path d="m0 247.5h368.582v-247.5h-368.582z" transform="translate(-187.82601 -110.7148)"/></clipPath><clipPath id="al"><path d="m0 247.5h368.582v-247.5h-368.582z" transform="translate(-188.6859 -138.2539)"/></clipPath><clipPath id="am"><path d="m0 247.5h368.582v-247.5h-368.582z" transform="translate(-187.7206 -137.43801)"/></clipPath><clipPath id="an"><path d="m0 247.5h368.582v-247.5h-368.582z" transform="translate(-188.11071 -137.95311)"/></clipPath><clipPath id="ao"><path d="m0 247.5h368.582v-247.5h-368.582z" transform="translate(-173.8456 -112.4023)"/></clipPath><clipPath id="ap"><path d="m0 247.5h368.582v-247.5h-368.582z" transform="translate(-176.6737 -136.3789)"/></clipPath><clipPath id="aq"><path d="m0 247.5h368.582v-247.5h-368.582z" transform="translate(-179.5677 -135.6372)"/></clipPath><clipPath id="ar"><path d="m0 247.5h368.582v-247.5h-368.582z" transform="translate(-176.1229 -136.19091)"/></clipPath><clipPath id="as"><path d="m0 247.5h368.582v-247.5h-368.582z" transform="translate(-179.0179 -135.66801)"/></clipPath><clipPath id="at"><path d="m0 247.5h368.582v-247.5h-368.582z" transform="translate(-175.6737 -136.02)"/></clipPath><clipPath id="au"><path d="m0 247.5h368.582v-247.5h-368.582z" transform="translate(-178.6576 -135.6372)"/></clipPath><clipPath id="av"><path d="m0 247.5h368.582v-247.5h-368.582z" transform="translate(-175.3456 -136.0039)"/></clipPath><clipPath id="aw"><path d="m0 247.5h368.582v-247.5h-368.582z" transform="translate(-178.6429 -135.4648)"/></clipPath><clipPath id="ax"><path d="m0 247.5h368.582v-247.5h-368.582z" transform="translate(-174.9076 -135.3828)"/></clipPath><clipPath id="ay"><path d="m0 247.5h368.582v-247.5h-368.582z" transform="translate(-178.0677 -135.3828)"/></clipPath><clipPath id="az"><path d="m0 247.5h368.582v-247.5h-368.582z" transform="translate(-174.02481 -135.1948)"/></clipPath><clipPath id="aA"><path d="m0 247.5h368.582v-247.5h-368.582z" transform="translate(-177.5638 -135.30081)"/></clipPath><clipPath id="aB"><path d="m0 247.5h368.582v-247.5h-368.582z" transform="translate(-173.57601 -134.6328)"/></clipPath><clipPath id="aC"><path d="m0 247.5h368.582v-247.5h-368.582z" transform="translate(-176.80701 -134.8711)"/></clipPath><clipPath id="aD"><path d="m0 247.5h368.582v-247.5h-368.582z" transform="translate(-173.11071 -134.2578)"/></clipPath><clipPath id="aE"><path d="m0 247.5h368.582v-247.5h-368.582z" transform="translate(-176.3998 -134.73)"/></clipPath><clipPath id="aF"><path d="m0 247.5h368.582v-247.5h-368.582z" transform="translate(-172.5609 -134.10891)"/></clipPath><clipPath id="aG"><path d="m0 247.5h368.582v-247.5h-368.582z" transform="translate(-176.3998 -134.5039)"/></clipPath><clipPath id="aH"><path d="m0 247.5h368.582v-247.5h-368.582z" transform="translate(-172.14981 -133.207)"/></clipPath><clipPath id="aI"><path d="m0 247.5h368.582v-247.5h-368.582z" transform="translate(-175.8177 -134.062)"/></clipPath><clipPath id="aJ"><path d="m0 247.5h368.582v-247.5h-368.582z" transform="translate(-171.61461 -132.6289)"/></clipPath><clipPath id="aK"><path d="m0 247.5h368.582v-247.5h-368.582z" transform="translate(-175.264 -133.46871)"/></clipPath><clipPath id="aL"><path d="m0 247.5h368.582v-247.5h-368.582z" transform="translate(-171.139 -132.21921)"/></clipPath><clipPath id="aM"><path d="m0 247.5h368.582v-247.5h-368.582z" transform="translate(-174.6039 -132.8872)"/></clipPath><clipPath id="aN"><path d="m0 247.5h368.582v-247.5h-368.582z" transform="translate(-170.48571 -132.55521)"/></clipPath><clipPath id="aO"><path d="m0 247.5h368.582v-247.5h-368.582z" transform="translate(-174.78261 -133.3872)"/></clipPath><clipPath id="aP"><path d="m0 247.5h368.582v-247.5h-368.582z" transform="translate(-170.17761 -131.2729)"/></clipPath><clipPath id="aQ"><path d="m0 247.5h368.582v-247.5h-368.582z" transform="translate(-174.1659 -132.7891)"/></clipPath><clipPath id="aR"><path d="m0 247.5h368.582v-247.5h-368.582z" transform="translate(-169.63071 -130.5391)"/></clipPath><clipPath id="aS"><path d="m0 247.5h368.582v-247.5h-368.582z" transform="translate(-173.4789 -132.35211)"/></clipPath><clipPath id="aT"><path d="m0 247.5h368.582v-247.5h-368.582z" transform="translate(-169.1859 -129.9141)"/></clipPath><clipPath id="aU"><path d="m0 247.5h368.582v-247.5h-368.582z" transform="translate(-173.33391 -132.59421)"/></clipPath><clipPath id="aV"><path d="m0 247.5h368.582v-247.5h-368.582z" transform="translate(-169.3378 -129.69921)"/></clipPath><clipPath id="aW"><path d="m0 247.5h368.582v-247.5h-368.582z" transform="translate(-172.9359 -132.082)"/></clipPath><clipPath id="aX"><path d="m0 247.5h368.582v-247.5h-368.582z" transform="translate(-168.98571 -128.7622)"/></clipPath><clipPath id="aY"><path d="m0 247.5h368.582v-247.5h-368.582z" transform="translate(-172.7787 -131.95311)"/></clipPath><clipPath id="aZ"><path d="m0 247.5h368.582v-247.5h-368.582z" transform="translate(-168.98961 -128.0698)"/></clipPath><clipPath id="a0"><path d="m0 247.5h368.582v-247.5h-368.582z" transform="translate(-172.36071 -131.00391)"/></clipPath><clipPath id="a1"><path d="m0 247.5h368.582v-247.5h-368.582z" transform="translate(-168.57171 -127.41801)"/></clipPath><clipPath id="a2"><path d="m0 247.5h368.582v-247.5h-368.582z" transform="translate(-172.3378 -130.98)"/></clipPath><clipPath id="a3"><path d="m0 247.5h368.582v-247.5h-368.582z" transform="translate(-168.6469 -127.14111)"/></clipPath><clipPath id="a4"><path d="m0 247.5h368.582v-247.5h-368.582z" transform="translate(-171.7206 -130.5508)"/></clipPath><clipPath id="a5"><path d="m0 247.5h368.582v-247.5h-368.582z" transform="translate(-168.32601 -126.5698)"/></clipPath><clipPath id="a6"><path d="m0 247.5h368.582v-247.5h-368.582z" transform="translate(-171.45891 -130.3281)"/></clipPath><clipPath id="a7"><path d="m0 247.5h368.582v-247.5h-368.582z" transform="translate(-168.30261 -126.0313)"/></clipPath><clipPath id="a8"><path d="m0 247.5h368.582v-247.5h-368.582z" transform="translate(-171.3456 -129.9961)"/></clipPath><clipPath id="a9"><path d="m0 247.5h368.582v-247.5h-368.582z" transform="translate(-168.66201 -125.48781)"/></clipPath><clipPath id="ba"><path d="m0 247.5h368.582v-247.5h-368.582z" transform="translate(-171.139 -129.457)"/></clipPath><clipPath id="bb"><path d="m0 247.5h368.582v-247.5h-368.582z" transform="translate(-168.45891 -125.0122)"/></clipPath><clipPath id="bc"><path d="m0 247.5h368.582v-247.5h-368.582z" transform="translate(-171.1 -128.812)"/></clipPath><clipPath id="bd"><path d="m0 247.5h368.582v-247.5h-368.582z" transform="translate(-168.5326 -123.96921)"/></clipPath><clipPath id="be"><path d="m0 247.5h368.582v-247.5h-368.582z" transform="translate(-171.19671 -128.3008)"/></clipPath><clipPath id="bf"><path d="m0 247.5h368.582v-247.5h-368.582z" transform="translate(-168.4818 -123.50391)"/></clipPath><clipPath id="bg"><path d="m0 247.5h368.582v-247.5h-368.582z" transform="translate(-170.7826 -127.47711)"/></clipPath><clipPath id="bh"><path d="m0 247.5h368.582v-247.5h-368.582z" transform="translate(-167.97891 -122.8633)"/></clipPath><clipPath id="bi"><path d="m0 247.5h368.582v-247.5h-368.582z" transform="translate(-170.8456 -127.3359)"/></clipPath><clipPath id="bj"><path d="m0 247.5h368.582v-247.5h-368.582z" transform="translate(-167.7826 -122.37891)"/></clipPath><clipPath id="bk"><path d="m0 247.5h368.582v-247.5h-368.582z" transform="translate(-170.60391 -126.8979)"/></clipPath><clipPath id="bl"><path d="m0 247.5h368.582v-247.5h-368.582z" transform="translate(-169.3729 -121.9336)"/></clipPath><clipPath id="bm"><path d="m0 247.5h368.582v-247.5h-368.582z" transform="translate(-170.5878 -126.32811)"/></clipPath><clipPath id="bn"><path d="m0 247.5h368.582v-247.5h-368.582z" transform="translate(-169.389 -121.0195)"/></clipPath><clipPath id="bo"><path d="m0 247.5h368.582v-247.5h-368.582z" transform="translate(-170.3998 -125.86281)"/></clipPath><clipPath id="bp"><path d="m0 247.5h368.582v-247.5h-368.582z" transform="translate(-169.5526 -120.2344)"/></clipPath><clipPath id="bq"><path d="m0 247.5h368.582v-247.5h-368.582z" transform="translate(-170.4076 -125.26611)"/></clipPath><clipPath id="br"><path d="m0 247.5h368.582v-247.5h-368.582z" transform="translate(-169.62291 -119.8203)"/></clipPath><clipPath id="bs"><path d="m0 247.5h368.582v-247.5h-368.582z" transform="translate(-170.48571 -124.5742)"/></clipPath><clipPath id="bt"><path d="m0 247.5h368.582v-247.5h-368.582z" transform="translate(-170.0179 -118.8828)"/></clipPath><clipPath id="bu"><path d="m0 247.5h368.582v-247.5h-368.582z" transform="translate(-170.64291 -123.76611)"/></clipPath><clipPath id="bv"><path d="m0 247.5h368.582v-247.5h-368.582z" transform="translate(-170.3646 -117.9844)"/></clipPath><clipPath id="bw"><path d="m0 247.5h368.582v-247.5h-368.582z" transform="translate(-170.6776 -122.8516)"/></clipPath><clipPath id="bx"><path d="m0 247.5h368.582v-247.5h-368.582z" transform="translate(-170.6737 -117.2539)"/></clipPath><clipPath id="by"><path d="m0 247.5h368.582v-247.5h-368.582z" transform="translate(-170.7679 -122.2578)"/></clipPath><clipPath id="bz"><path d="m0 247.5h368.582v-247.5h-368.582z" transform="translate(-171.08391 -117.457)"/></clipPath><clipPath id="bA"><path d="m0 247.5h368.582v-247.5h-368.582z" transform="translate(-170.9037 -122.0469)"/></clipPath><clipPath id="bB"><path d="m0 247.5h368.582v-247.5h-368.582z" transform="translate(-171.5487 -116.35551)"/></clipPath><clipPath id="bC"><path d="m0 247.5h368.582v-247.5h-368.582z" transform="translate(-171.2206 -121.2891)"/></clipPath><clipPath id="bD"><path d="m0 247.5h368.582v-247.5h-368.582z" transform="translate(-172.2679 -115.6563)"/></clipPath><clipPath id="bE"><path d="m0 247.5h368.582v-247.5h-368.582z" transform="translate(-171.35391 -120.4492)"/></clipPath><clipPath id="bF"><path d="m0 247.5h368.582v-247.5h-368.582z" transform="translate(-172.73961 -115.05861)"/></clipPath><clipPath id="bG"><path d="m0 247.5h368.582v-247.5h-368.582z" transform="translate(-171.5878 -119.91021)"/></clipPath><clipPath id="bH"><path d="m0 247.5h368.582v-247.5h-368.582z" transform="translate(-172.9276 -115.05081)"/></clipPath><clipPath id="bI"><path d="m0 247.5h368.582v-247.5h-368.582z" transform="translate(-171.9076 -119.3164)"/></clipPath><clipPath id="bJ"><path d="m0 247.5h368.582v-247.5h-368.582z" transform="translate(-173.7396 -114.52341)"/></clipPath><clipPath id="bK"><path d="m0 247.5h368.582v-247.5h-368.582z" transform="translate(-171.66201 -118.98831)"/></clipPath><clipPath id="bL"><path d="m0 247.5h368.582v-247.5h-368.582z" transform="translate(-174.4896 -114.0078)"/></clipPath><clipPath id="bM"><path d="m0 247.5h368.582v-247.5h-368.582z" transform="translate(-172.1737 -118.25391)"/></clipPath><clipPath id="bN"><path d="m0 247.5h368.582v-247.5h-368.582z" transform="translate(-175.1107 -113.6016)"/></clipPath><clipPath id="bO"><path d="m0 247.5h368.582v-247.5h-368.582z" transform="translate(-172.5526 -117.8164)"/></clipPath><clipPath id="bP"><path d="m0 247.5h368.582v-247.5h-368.582z" transform="translate(-175.45101 -113.19921)"/></clipPath><clipPath id="bQ"><path d="m0 247.5h368.582v-247.5h-368.582z" transform="translate(-178.32171 -137.20311)"/></clipPath><clipPath id="bR"><path d="m0 247.5h368.582v-247.5h-368.582z" transform="translate(-180.2787 -136.44921)"/></clipPath><clipPath id="bS"><path d="m0 247.5h368.582v-247.5h-368.582z" transform="translate(-178.1659 -137.0859)"/></clipPath><clipPath id="bT"><path d="m0 247.5h368.582v-247.5h-368.582z" transform="translate(-180.44271 -136.19091)"/></clipPath><clipPath id="bU"><path d="m0 247.5h368.582v-247.5h-368.582z" transform="translate(-176.8807 -136.83591)"/></clipPath><clipPath id="bV"><path d="m0 247.5h368.582v-247.5h-368.582z" transform="translate(-179.53701 -136.0591)"/></clipPath><clipPath id="bW"><path d="m0 247.5h368.582v-247.5h-368.582z" transform="translate(-176.57601 -136.875)"/></clipPath><clipPath id="bX"><path d="m0 247.5h368.582v-247.5h-368.582z" transform="translate(-179.43201 -135.66021)"/></clipPath><clipPath id="bY"><path d="m0 247.5h368.582v-247.5h-368.582z" transform="translate(-176.75571 -136.6411)"/></clipPath><clipPath id="bZ"><path d="m0 247.5h368.582v-247.5h-368.582z" transform="translate(-174.70101 -113.6563)"/></clipPath><clipPath id="b0"><path d="m0 247.5h368.582v-247.5h-368.582z" transform="translate(-175.6146 -113.3242)"/></clipPath><clipPath id="b1"><path d="m0 247.5h368.582v-247.5h-368.582z" transform="translate(-176.4628 -112.98051)"/></clipPath><clipPath id="b2"><path d="m0 247.5h368.582v-247.5h-368.582z" transform="translate(-173.205 -116.6016)"/></clipPath><clipPath id="b3"><path d="m0 247.5h368.582v-247.5h-368.582z" transform="translate(-177.1659 -112.7188)"/></clipPath><clipPath id="b4"><path d="m0 247.5h368.582v-247.5h-368.582z" transform="translate(-173.6776 -116.2656)"/></clipPath><clipPath id="b5"><path d="m0 247.5h368.582v-247.5h-368.582z" transform="translate(-177.5878 -112.4023)"/></clipPath><clipPath id="b6"><path d="m0 247.5h368.582v-247.5h-368.582z" transform="translate(-176.57601 -112.7109)"/></clipPath><clipPath id="b7"><path d="m0 247.5h368.582v-247.5h-368.582z" transform="translate(-177.514 -112.44141)"/></clipPath><clipPath id="b8"><path d="m0 247.5h368.582v-247.5h-368.582z" transform="translate(-178.3807 -112.1563)"/></clipPath><clipPath id="b9"><path d="m0 247.5h368.582v-247.5h-368.582z" transform="translate(-174.8568 -115.5469)"/></clipPath><clipPath id="ca"><path d="m0 247.5h368.582v-247.5h-368.582z" transform="translate(-179.11071 -111.9453)"/></clipPath><clipPath id="cb"><path d="m0 247.5h368.582v-247.5h-368.582z" transform="translate(-175.36071 -115.24611)"/></clipPath><clipPath id="cc"><path d="m0 247.5h368.582v-247.5h-368.582z" transform="translate(-179.55261 -111.66021)"/></clipPath><clipPath id="cd"><path d="m0 247.5h368.582v-247.5h-368.582z" transform="translate(-186.1576 -118.8594)"/></clipPath><g transform="matrix(1.3333333 0 0 -1.3333333 0 330)"><path d="m0 0h368.581v247.5h-368.581z" fill="#0038a8"/><path d="m0 82.5h368.581v165h-368.581z" fill="#fff"/><path d="m0 165h368.581v82.5h-368.581z" fill="#d52b1e"/></g><g fill="none" stroke="#000"><path clip-path="url(#a)" d="m0 0c0-17.48-14.168-31.648-31.648-31.648s-31.648 14.168-31.648 31.648 14.168 31.648 31.648 31.648 31.648-14.168 31.648-31.648z" stroke-width=".807" transform="matrix(1.3333333 0 0 -1.3333333 285.2004 165)"/><path clip-path="url(#b)" d="m0 0c0-14.359-11.645-26.004-26.004-26.004s-26.004 11.645-26.004 26.004 11.645 26.004 26.004 26.004 26.004-11.645 26.004-26.004z" stroke-width=".359" transform="matrix(1.3333333 0 0 -1.3333333 277.67427 165)"/><path clip-path="url(#c)" d="m0 0c0-11-8.922-19.922-19.922-19.922s-19.922 8.922-19.922 19.922 8.922 19.922 19.922 19.922 19.922-8.922 19.922-19.922z" stroke-width=".329" transform="matrix(1.3333333 0 0 -1.3333333 269.56493 165)"/></g><path clip-path="url(#d)" d="m0 0-.285.477c-.031.054-.106.144-.227.273-.062.066-.136.102-.226.113-.09.012-.176-.008-.254-.054-.117-.071-.188-.161-.207-.274-.02-.113.035-.273.156-.48l.297-.496zm2.859.156-3.671-2.179-1.122 1.89c-.207.352-.335.637-.386.86-.051.218-.028.433.066.644.098.211.262.387.496.524.203.121.403.183.602.183s.39-.047.574-.144c.113-.063.242-.168.379-.313-.035.16-.047.285-.039.375.004.06.035.16.086.297s.094.234.133.293l.738 1.18.762-1.282-.762-1.269c-.102-.164-.152-.289-.16-.375-.008-.113.015-.223.078-.328l.058-.102 1.493.887z" transform="matrix(1.3333333 0 0 -1.3333333 216.7212 181.4896)"/><path clip-path="url(#e)" d="m0 0-1.113 3.352.863.289.699-2.102.641.215-.645 1.949.825.274.648-1.95.797.266-.719 2.16.918.309 1.137-3.419z" transform="matrix(1.3333333 0 0 -1.3333333 212.11187 177.70827)"/><path clip-path="url(#f)" d="m0 0-.035.324c-.031.25-.094.422-.195.516-.098.09-.215.129-.356.113-.132-.016-.238-.07-.32-.172-.082-.097-.109-.269-.082-.515l.043-.371zm-1.656-1.523-.25 2.179c-.055.473.016.844.215 1.106.199.261.508.414.926.465.426.046.773-.043 1.047-.274.269-.23.433-.609.496-1.137l.082-.718 1.574.183.148-1.316z" transform="matrix(1.3333333 0 0 -1.3333333 212.3716 169.0312)"/><path clip-path="url(#g)" d="m0 0 .141 1.308 2.531-.273c.25-.027.485-.09.699-.195.211-.102.395-.243.543-.43.149-.184.247-.371.297-.563.067-.265.078-.574.043-.933-.023-.207-.062-.43-.117-.672-.055-.238-.137-.437-.238-.594-.106-.152-.242-.289-.414-.41-.176-.117-.348-.191-.52-.226-.281-.051-.523-.067-.73-.043l-2.531.273.14 1.309 2.59-.282c.234-.023.422.02.566.137.141.113.227.285.25.512.028.226-.019.41-.132.551-.118.144-.29.226-.528.254z" transform="matrix(1.3333333 0 0 -1.3333333 209.98093 160.38027)"/><path clip-path="url(#h)" d="m0 0 .223.637c.074.215.09.379.043.492-.043.113-.129.195-.258.238-.121.043-.23.032-.332-.031-.105-.058-.195-.199-.27-.418l-.222-.633zm-1.582.555.188.539c.07.195.082.344.043.441-.039.102-.125.172-.25.215-.117.043-.223.035-.317-.015-.09-.055-.172-.176-.234-.364l-.195-.551zm-2.019-.703.816 2.328c.133.39.336.652.602.793.261.14.539.164.82.062.238-.082.418-.226.535-.433.082-.141.121-.317.117-.532.172.266.367.438.582.516.219.078.457.07.711-.019.211-.075.379-.188.512-.344.133-.153.219-.332.258-.535.023-.125.012-.301-.031-.52-.063-.293-.11-.484-.141-.578l-.754-2.148z" transform="matrix(1.3333333 0 0 -1.3333333 215.54347 156.0104)"/><path clip-path="url(#i)" d="m0 0 .68 1.129 2.754-1.661 1.062 1.762.903-.543-1.746-2.894z" transform="matrix(1.3333333 0 0 -1.3333333 213.43467 149.3692)"/><path clip-path="url(#j)" d="m0 0 .848 1.016 3.277-2.731-.847-1.016z" transform="matrix(1.3333333 0 0 -1.3333333 216.8716 144.16147)"/><path clip-path="url(#k)" d="m0 0 1.105.488c.152-.297.234-.582.25-.855.016-.274-.035-.535-.152-.778-.114-.246-.317-.492-.61-.742-.351-.304-.679-.5-.992-.59-.312-.086-.656-.074-1.043.047-.383.117-.746.379-1.09.778-.461.539-.671 1.07-.636 1.605.039.531.316 1.02.839 1.469.407.351.797.543 1.172.578s.766-.066 1.176-.313l-.715-.953c-.117.071-.211.114-.285.133-.121.027-.238.027-.355 0-.117-.031-.227-.086-.325-.172-.226-.195-.324-.437-.289-.722.028-.215.164-.465.414-.754.309-.36.575-.559.797-.602.223-.039.434.027.633.195.192.164.289.344.293.536.008.191-.055.41-.187.652" transform="matrix(1.3333333 0 0 -1.3333333 224.52387 141.2188)"/><path clip-path="url(#l)" d="m0 0-1.141 1.133.309-1.574zm.676-.683-1.325-.707.149-.719-1.188-.633-.593 4.52 1.269.675 3.422-3.007-1.215-.653z" transform="matrix(1.3333333 0 0 -1.3333333 229.67947 138.1308)"/><path clip-path="url(#m)" d="m0 0 .398-2.297.317.055c.273.047.461.109.566.191.106.078.176.199.215.359.039.165.027.411-.027.75-.078.446-.203.739-.379.875-.172.141-.426.18-.766.122zm-1.461.726 1.93.336c.379.067.695.067.949.004.25-.062.469-.179.656-.343.188-.168.336-.375.449-.618.114-.246.196-.511.247-.797.074-.449.085-.808.027-1.074-.063-.261-.168-.496-.32-.695-.153-.199-.329-.344-.528-.434-.273-.125-.523-.211-.754-.25l-1.929-.332z" transform="matrix(1.3333333 0 0 -1.3333333 237.0024 133.2708)"/><path clip-path="url(#n)" d="m0 0 3.531-.153-.039-.91-2.211.094-.028-.676 2.051-.09-.039-.867-2.051.086-.035-.84 2.274-.097-.039-.965-3.598.152z" transform="matrix(1.3333333 0 0 -1.3333333 242.36253 131.31707)"/><path clip-path="url(#o)" d="m0 0 1.282-.312-.766-3.125 2-.492-.25-1.02-3.277.805z" transform="matrix(1.3333333 0 0 -1.3333333 249.21013 131.86)"/><path clip-path="url(#p)" d="m0 0 .277-.164c.219-.133.395-.184.532-.16.132.023.234.093.304.214.067.114.086.235.059.36-.031.125-.152.25-.363.375l-.325.191zm-.215 2.238 1.887-1.113c.414-.246.664-.524.75-.84.09-.317.027-.656-.184-1.016-.218-.371-.504-.597-.851-.672-.344-.078-.746.02-1.203.289l-.621.368-.809-1.364-1.141.676z" transform="matrix(1.3333333 0 0 -1.3333333 258.62747 137.8744)"/><path clip-path="url(#q)" d="m0 0 .699 1.446-1.39-.805zm-.426-.863-1.101 1.024-.633-.375-.985.918 4.079 2.031 1.054-.977-1.73-4.218-1.012.937z" transform="matrix(1.3333333 0 0 -1.3333333 264.13267 143.36)"/><path clip-path="url(#r)" d="m0 0 .316-.457c.032-.051.114-.136.246-.254.063-.062.141-.097.231-.101.09-.008.172.019.25.07.113.078.176.176.187.289.012.113-.05.27-.187.469l-.328.476zm-2.84-.343 3.516 2.414 1.246-1.813c.23-.336.375-.613.44-.828.064-.219.056-.434-.026-.648-.078-.219-.234-.403-.457-.555-.195-.137-.391-.211-.59-.223-.199-.015-.394.02-.582.106-.117.054-.254.152-.398.285.043-.156.066-.281.062-.371 0-.059-.023-.16-.066-.301-.039-.141-.078-.242-.114-.301l-.656-1.226-.844 1.23.676 1.316c.09.172.133.297.137.383 0 .117-.035.223-.102.325l-.066.093-1.43-.976z" transform="matrix(1.3333333 0 0 -1.3333333 268.60133 146.68293)"/><path clip-path="url(#s)" d="m0 0 1.25 1.008-1.598-.137zm-.754-.597-.555 1.394-.734-.07-.496 1.254 4.559.09.531-1.336-3.371-3.071-.508 1.282z" transform="matrix(1.3333333 0 0 -1.3333333 271.36707 154.40107)"/><path clip-path="url(#t)" d="m0 0 .879.133.301-2.016-1.797-.269c-.324.344-.551.66-.692.941-.139.281-.238.629-.3 1.035-.075.5-.051.922.074 1.262.121.344.34.625.652.848.313.226.688.371 1.125.437.461.067.875.032 1.242-.105.371-.141.672-.379.903-.719.179-.266.304-.641.375-1.125.07-.465.082-.82.031-1.066-.051-.243-.152-.453-.305-.633-.156-.18-.363-.328-.625-.446l-.414 1.223c.153.078.262.184.328.32.067.137.082.301.055.493-.043.285-.176.5-.398.64-.227.137-.555.176-.985.114-.457-.071-.769-.204-.937-.407-.172-.199-.235-.453-.188-.761.024-.145.063-.282.125-.407.063-.129.156-.269.285-.425l.399.062z" transform="matrix(1.3333333 0 0 -1.3333333 272.85133 160.61973)"/><path clip-path="url(#u)" d="m0 0-.114-1.309-2.534.223c-.254.024-.485.086-.704.185-.214.096-.398.237-.55.417-.153.183-.254.371-.309.558-.07.266-.09.574-.059.934.02.207.055.429.106.672.05.242.125.441.226.597.102.157.235.297.407.418s.343.199.515.238c.279.055.52.075.731.055l2.531-.226-.113-1.309-2.598.231c-.23.019-.418-.028-.558-.145-.145-.117-.223-.289-.247-.516-.019-.226.032-.41.149-.55.117-.141.293-.219.527-.243z" transform="matrix(1.3333333 0 0 -1.3333333 276.57013 168.88027)"/><path clip-path="url(#v)" d="m0 0 1.605-.031-1.312.922zm-.961.023.469 1.426-.606.418.422 1.281 3.551-2.855-.449-1.367-4.555-.192.434 1.313z" transform="matrix(1.3333333 0 0 -1.3333333 271.56493 174.93227)"/><path clip-path="url(#w)" d="m0 0-.754-1.254h-1.676l.792-1.48-.75-1.246-1.272 2.699-1.535.918.679 1.133 1.536-.918z" transform="matrix(1.3333333 0 0 -1.3333333 273.60133 179.56253)"/><g stroke="#000"><g fill="#009b3a" stroke-width=".075"><path clip-path="url(#x)" d="m0 0s12.039-5.183 9.937-15.902-8.805-10.648-11.433-11.832c-2.629-1.183-4.442-2.879-5.477-2.644-1.039.238-2.41 1.039-2.41 1.039s-.11-1.762 2.004-2.082c2.109-.321 4.886 2.777 6.218 3.125 1.332.343 9.516 1.23 11.508 12.136 2.32 11.641-10.269 15.821-10.343 16.16z" transform="matrix(1.3333333 0 0 -1.3333333 248.5812 145.3028)"/><path clip-path="url(#y)" d="m0 0c.535-2.125-.25-2.184-.793-.062-.23.886-.234 1.621-.016 1.64.219.016.582-.691.809-1.578" transform="matrix(1.3333333 0 0 -1.3333333 256.68467 148.33853)"/><path clip-path="url(#z)" d="m0 0c.418-.844.598-1.59.398-1.66-.199-.075-.699.554-1.117 1.398-1 2.027-.285 2.289.719.262" transform="matrix(1.3333333 0 0 -1.3333333 256.13267 148.4896)"/><path clip-path="url(#A)" d="m0 0c2.043-.602 1.969-1.406-.074-.813-2.047.602-1.973 1.411.074.813" transform="matrix(1.3333333 0 0 -1.3333333 254.52333 149.55213)"/><path clip-path="url(#B)" d="m0 0c.781-.523 1.34-1.101 1.241-1.293-.096-.191-.807.082-1.589.606-.781.523-1.335 1.101-1.242 1.293.098.187.809-.082 1.59-.606" transform="matrix(1.3333333 0 0 -1.3333333 254.7628 148.9584)"/><path clip-path="url(#C)" d="m0 0c.664-.687 1.086-1.367.941-1.515-.144-.149-.8.293-1.464.98-1.586 1.652-1.063 2.184.523.535" transform="matrix(1.3333333 0 0 -1.3333333 255.44 148.68293)"/><path clip-path="url(#D)" d="m0 0c.004-.008-.465-.262-.574-.301-.106-.039-.25.14-.559-.016-.304-.156-.515-.445-.582-.613-.066-.168.086-.238.457-.059.371.18.469.465.648.578.176.11.477.278.649.336.074.16.313.508.438.707.125.2.613.528.789.907.156.316.097.586-.11.472-.207-.113-.476-.429-.601-.656s-.016-.52-.157-.73c-.109-.157-.371-.625-.398-.625" transform="matrix(1.3333333 0 0 -1.3333333 256.56493 150.6972)"/><path clip-path="url(#E)" d="m0 0c.02-1.367-.215-2.414-.523-2.34-.309.074-.579 1.239-.598 2.606-.016 1.367.219 2.414.527 2.34.309-.075.574-1.239.594-2.606" transform="matrix(1.3333333 0 0 -1.3333333 261.53373 152.33853)"/><path clip-path="url(#F)" d="m0 0c.301-1.395.301-2.539.004-2.555-.301-.016-.785 1.105-1.082 2.504-.301 1.394-.301 2.539-.004 2.555.301.015.785-1.106 1.082-2.504" transform="matrix(1.3333333 0 0 -1.3333333 260.7004 152.31187)"/><path clip-path="url(#G)" d="m0 0c1.105-.742 1.922-1.602 1.816-1.918-.102-.312-1.086.039-2.191.785-1.105.742-1.922 1.602-1.816 1.914.101.317 1.086-.035 2.191-.781" transform="matrix(1.3333333 0 0 -1.3333333 258.13267 153.10933)"/><path clip-path="url(#H)" d="m0 0c2.164-2.629 1.465-3.453-.707-.828-.91 1.097-1.488 2.179-1.293 2.406.195.23 1.094-.477 2-1.578" transform="matrix(1.3333333 0 0 -1.3333333 258.65347 152.38027)"/><path clip-path="url(#I)" d="m0 0c.691-1.281 1.046-2.441.796-2.59-.25-.148-1.011.774-1.698 2.055-.688 1.281-1.047 2.441-.797 2.59.25.148 1.012-.774 1.699-2.055" transform="matrix(1.3333333 0 0 -1.3333333 259.69 152.2812)"/><path clip-path="url(#J)" d="m0 0c.008-.012-.727-.164-.887-.172-.164-.008-.304.317-.781.227-.477-.086-.863-.406-1.012-.617-.148-.211.043-.379.614-.289.574.093.804.457 1.089.539.286.078.754.179 1.012.191.156.199.601.586.84.816.238.227 1.02.481 1.395.946.316.383.324.797 0 .726-.321-.066-.797-.402-1.047-.672-.246-.269-.196-.734-.457-.976-.204-.176-.723-.731-.762-.719z" transform="matrix(1.3333333 0 0 -1.3333333 260.57013 155.67187)"/><path clip-path="url(#K)" d="m0 0c-.227-1.355-.648-2.348-.937-2.215-.286.133-.336 1.34-.11 2.695.231 1.356.649 2.348.938 2.215s.336-1.34.109-2.695" transform="matrix(1.3333333 0 0 -1.3333333 264.14307 159)"/><path clip-path="url(#L)" d="m0 0c.043-1.437-.164-2.578-.457-2.535-.297.043-.57 1.25-.609 2.692-.043 1.441.164 2.578.461 2.535.296-.043.566-1.25.605-2.692" transform="matrix(1.3333333 0 0 -1.3333333 263.35133 158.8028)"/><path clip-path="url(#M)" d="m0 0c.941-.942 1.578-1.942 1.422-2.231s-1.047.243-1.988 1.184c-2.274 2.273-1.704 3.32.566 1.047" transform="matrix(1.3333333 0 0 -1.3333333 260.69 159.09893)"/><path clip-path="url(#N)" d="m0 0c.687-1.254 1.055-2.426.824-2.614-.234-.187-.976.676-1.664 1.93-.683 1.254-1.055 2.426-.82 2.613.23.188.975-.675 1.66-1.929" transform="matrix(1.3333333 0 0 -1.3333333 261.33053 158.47853)"/><path clip-path="url(#O)" d="m0 0c.445-1.402.59-2.625.316-2.722-.273-.098-.855.965-1.296 2.367-.446 1.402-.586 2.625-.313 2.723.27.097.852-.965 1.293-2.368" transform="matrix(1.3333333 0 0 -1.3333333 262.35133 158.5788)"/><path clip-path="url(#P)" d="m0 0c.004-.016-.742-.028-.902 0-.157.023-.235.367-.719.371-.481.007-.918-.235-1.102-.414-.183-.18-.027-.383.551-.403.574-.019.867.297 1.16.321.293.027.77.035 1.024-.004.187.168.695.465.968.644.274.18 1.083.278 1.532.668.379.317.461.723.133.719-.329-.008-.856-.246-1.145-.465-.293-.219-.324-.687-.625-.879-.23-.129-.84-.578-.875-.558" transform="matrix(1.3333333 0 0 -1.3333333 262.61187 162.08787)"/><path clip-path="url(#Q)" d="m0 0c-1.766-2.801-2.523-1.926-.758.878 1.766 2.801 2.524 1.926.758-.878" transform="matrix(1.3333333 0 0 -1.3333333 264.34093 166.42187)"/><path clip-path="url(#R)" d="m0 0c-1.254-3.25-2.16-2.664-.902.585 1.254 3.25 2.16 2.665.902-.585" transform="matrix(1.3333333 0 0 -1.3333333 263.69 165.91147)"/><path clip-path="url(#S)" d="m0 0c.484-1.266.672-2.454.418-2.657s-.855.657-1.344 1.918c-1.172 3.051-.25 3.785.926.739" transform="matrix(1.3333333 0 0 -1.3333333 261.17427 165.08787)"/><path clip-path="url(#T)" d="m0 0c.316-3.473-.699-3.758-1.027-.285-.133 1.453-.016 2.699.269 2.781.285.078.625-1.043.758-2.496" transform="matrix(1.3333333 0 0 -1.3333333 261.992 164.7812)"/><path clip-path="url(#U)" d="m0 0c-.141-1.472-.488-2.652-.77-2.632-.285.023-.398 1.234-.253 2.711.14 1.476.484 2.652.769 2.632.281-.019.395-1.234.254-2.711" transform="matrix(1.3333333 0 0 -1.3333333 262.88267 165.3028)"/><path clip-path="url(#V)" d="m0 0c0-.016-.683.285-.815.375-.133.086-.071.437-.508.645-.434.203-.922.16-1.156.07-.235-.094-.176-.348.339-.602.516-.258.903-.082 1.176-.183.274-.098.711-.285.926-.426.234.078.809.144 1.125.195.32.055 1.09-.187 1.648-.012.465.137.7.477.399.61-.301.129-.867.125-1.219.043-.348-.082-.559-.504-.906-.555-.259-.027-.985-.191-1.009-.16" transform="matrix(1.3333333 0 0 -1.3333333 261.7512 168.66147)"/><path clip-path="url(#W)" d="m0 0c-2.863-2.457-3.41-1.215-.547 1.242 2.863 2.453 3.414 1.211.547-1.242" transform="matrix(1.3333333 0 0 -1.3333333 262.34093 173.94787)"/><path clip-path="url(#X)" d="m0 0c-1.016-1.297-2.02-2.133-2.242-1.863-.223.269.422 1.539 1.437 2.836 1.012 1.297 2.016 2.132 2.239 1.863.222-.266-.422-1.535-1.434-2.836" transform="matrix(1.3333333 0 0 -1.3333333 261.79413 173.16147)"/><path clip-path="url(#Y)" d="m0 0c.121-1.574-.062-2.961-.41-3.094s-.731 1.039-.848 2.614c-.125 1.574.059 2.96.41 3.093.348.133.727-1.039.848-2.613" transform="matrix(1.3333333 0 0 -1.3333333 259.29413 171.33853)"/><path clip-path="url(#Z)" d="m0 0c-.793-3.957-2.012-3.902-1.223.059.328 1.648.868 2.976 1.207 2.961.336-.016.344-1.368.016-3.02" transform="matrix(1.3333333 0 0 -1.3333333 260.29413 171.2916)"/><path clip-path="url(#aa)" d="m0 0c-.641-1.582-1.414-2.77-1.719-2.641-.304.125-.027 1.516.617 3.098.641 1.582 1.414 2.77 1.719 2.645.305-.129.028-1.516-.617-3.102" transform="matrix(1.3333333 0 0 -1.3333333 261.10133 172.18227)"/><path clip-path="url(#ab)" d="m0 0c-.007-.016-.655.562-.776.707-.118.145.066.512-.344.895-.414.382-.961.511-1.25.496-.293-.016-.309-.317.176-.786.48-.472.965-.417 1.234-.625.27-.21.688-.574.875-.808.285 0 .938-.133 1.309-.191.367-.055 1.136-.602 1.804-.61.563-.019.93.274.641.527-.285.254-.914.454-1.324.489-.414.035-.782-.352-1.18-.285-.293.062-1.148.144-1.165.191" transform="matrix(1.3333333 0 0 -1.3333333 258.7512 175.4896)"/><path clip-path="url(#ac)" d="m0 0c-1.711-.282-3.067-.176-3.024.238.04.418 1.465.98 3.172 1.262 1.707.285 3.067.176 3.024-.238s-1.465-.981-3.172-1.262" transform="matrix(1.3333333 0 0 -1.3333333 257.17427 180.5416)"/><path clip-path="url(#ad)" d="m0 0c-4.074-1.562-4.32-.172-.246 1.391 1.687.644 3.113.859 3.18.476.07-.387-1.243-1.222-2.934-1.867" transform="matrix(1.3333333 0 0 -1.3333333 257.09093 179.4688)"/><path clip-path="url(#ae)" d="m0 0c-.742-1.562-1.672-2.766-2.082-2.691-.406.074-.137 1.402.605 2.964 1.789 3.774 3.266 3.5 1.477-.273" transform="matrix(1.3333333 0 0 -1.3333333 255.66387 176.2916)"/><path clip-path="url(#af)" d="m0 0c-2.937-3.324-4.086-2.563-1.152.758 2.937 3.324 4.086 2.562 1.152-.758" transform="matrix(1.3333333 0 0 -1.3333333 256.66387 176.82813)"/><path clip-path="url(#ag)" d="m0 0c-1.48-1.129-2.867-1.809-3.094-1.512-.226.293.797 1.453 2.278 2.582 3.57 2.719 4.382 1.653.816-1.07" transform="matrix(1.3333333 0 0 -1.3333333 256.9504 178.15107)"/><path clip-path="url(#ah)" d="m0 0c-.015-.012-.328.914-.363 1.121s.344.449.156 1.051c-.191.601-.648 1.043-.937 1.199-.289.152-.469-.125-.258-.851.207-.727.703-.958.848-1.309.148-.356.351-.945.41-1.273.269-.165.828-.672 1.152-.938.325-.266.77-1.23 1.414-1.625.528-.344 1.043-.277.903.129-.137.41-.633.961-1.012 1.234-.379.27-.945.114-1.293.41-.25.231-1.027.801-1.02.852" transform="matrix(1.3333333 0 0 -1.3333333 252.8716 179.93227)"/><path clip-path="url(#ai)" d="m0 0c-4.184-.051-4.176 1.746.004 1.816 4.18.052 4.176-1.746-.004-1.816" transform="matrix(1.3333333 0 0 -1.3333333 250.40347 184.2396)"/><path clip-path="url(#aj)" d="m0 0c-2.672-3.453-4.02-2.324-1.348 1.125 2.672 3.453 4.024 2.324 1.348-1.125" transform="matrix(1.3333333 0 0 -1.3333333 249.84093 180.44787)"/><path clip-path="url(#ak)" d="m0 0c-3.922-1.691-4.566-.012-.644 1.68 3.921 1.691 4.566.011.644-1.68" transform="matrix(1.3333333 0 0 -1.3333333 250.43467 182.38027)"/><path clip-path="url(#al)" d="m0 0c1.933-1.742 1.191-2.145-.746-.406-.805.726-1.293 1.41-1.09 1.519.207.113 1.031-.387 1.836-1.113" transform="matrix(1.3333333 0 0 -1.3333333 251.5812 145.66147)"/><path clip-path="url(#am)" d="m0 0c2.625-.34 2.777-1.161.148-.817-1.086.141-2.004.438-2.043.664-.043.227.805.293 1.895.153" transform="matrix(1.3333333 0 0 -1.3333333 250.29413 146.74933)"/><path clip-path="url(#an)" d="m0 0c2.473-1.258 2.079-1.902-.398-.644-2.473 1.257-2.078 1.906.398.644" transform="matrix(1.3333333 0 0 -1.3333333 250.81427 146.06253)"/><path clip-path="url(#ao)" d="m0 0s2.652-.57 4.957-1.406c2.304-.84 5.808-3.715 6.75-3.875 1.054-.051 2.519.308 3.074 1.836-1.625-.434-2.602-1.094-4.152-.243-.551.211-2.348 1.844-4.317 2.719-1.968.879-5.937 1.875-5.937 1.875z" transform="matrix(1.3333333 0 0 -1.3333333 231.79413 180.13027)"/><path clip-path="url(#ap)" d="m0 0c-.012.023 3.051 1.613 3.051 1.613l-3.368-.863-.39-.59z" transform="matrix(1.3333333 0 0 -1.3333333 235.56493 148.16147)"/><path clip-path="url(#aq)" d="m0 0c-1.183.215-3 .613-4.156.707.797.883 1.899 2.383 2.578 3.301-.445-.875-1.152-2.032-1.429-2.872.816-.441 2.097-.785 3.007-1.136" transform="matrix(1.3333333 0 0 -1.3333333 239.4236 149.1504)"/><path clip-path="url(#ar)" d="m0 0c-.012.024 2.715 2.102 2.715 2.102l-3.152-1.41-.282-.653z" transform="matrix(1.3333333 0 0 -1.3333333 234.83053 148.41213)"/><path clip-path="url(#as)" d="m0 0c-1.188.227-3.02.644-4.184.742.785.914 1.863 2.457 2.527 3.406-.433-.906-1.117-2.097-1.379-2.964.825-.457 2.118-.817 3.036-1.184" transform="matrix(1.3333333 0 0 -1.3333333 238.69053 149.10933)"/><path clip-path="url(#at)" d="m0 0c-.008.023 3.195 1.339 3.195 1.339l-3.441-.566-.442-.555z" transform="matrix(1.3333333 0 0 -1.3333333 234.2316 148.64)"/><path clip-path="url(#au)" d="m0 0c-1.203.101-3.062.324-4.226.301.672 1.011 1.554 2.699 2.101 3.734-.324-.965-.859-2.254-1.019-3.16.871-.375 2.191-.602 3.144-.875" transform="matrix(1.3333333 0 0 -1.3333333 238.21013 149.1504)"/><path clip-path="url(#av)" d="m0 0c-.02.019 2.164 2.637 2.164 2.637l-2.742-2.051-.129-.699z" transform="matrix(1.3333333 0 0 -1.3333333 233.79413 148.66147)"/><path clip-path="url(#aw)" d="m0 0c-1.289.023-3.289.137-4.52.027.609 1.156 1.379 3.059 1.856 4.227-.247-1.078-.688-2.52-.766-3.524.965-.347 2.391-.5 3.43-.73" transform="matrix(1.3333333 0 0 -1.3333333 238.19053 149.38027)"/><path clip-path="url(#ax)" d="m0 0c-.015.023 2.629 2.519 2.629 2.519l-3.18-1.757-.218-.754z" transform="matrix(1.3333333 0 0 -1.3333333 233.21013 149.4896)"/><path clip-path="url(#ay)" d="m0 0c-1.386-.004-3.523.07-4.875-.082.899 1.285 2.125 3.402 2.879 4.703-.488-1.195-1.261-2.793-1.554-3.902.968-.36 2.472-.493 3.55-.719" transform="matrix(1.3333333 0 0 -1.3333333 237.4236 149.4896)"/><path clip-path="url(#az)" d="m0 0c-.015.024 3.356 2.844 3.356 2.844l-3.793-2.019-.391-.836z" transform="matrix(1.3333333 0 0 -1.3333333 232.03307 149.74027)"/><path clip-path="url(#aA)" d="m0 0c-1.371-.199-3.496-.422-4.816-.758.703 1.379 1.617 3.613 2.18 4.984-.313-1.234-.852-2.898-.981-4.019 1.008-.215 2.52-.137 3.617-.207" transform="matrix(1.3333333 0 0 -1.3333333 236.75173 149.59893)"/><path clip-path="url(#aB)" d="m0 0c-.019.019 2.586 3.582 2.586 3.582l-3.23-2.918-.172-.895z" transform="matrix(1.3333333 0 0 -1.3333333 231.43467 150.4896)"/><path clip-path="url(#aC)" d="m0 0c-1.383-.129-3.516-.242-4.852-.512.781 1.34 1.817 3.524 2.453 4.864-.379-1.211-1.011-2.852-1.203-3.961.996-.266 2.508-.262 3.602-.391" transform="matrix(1.3333333 0 0 -1.3333333 235.74267 150.17187)"/><path clip-path="url(#aD)" d="m0 0c-.015.023 3.289 2.847 3.289 2.847l-3.734-2.011-.379-.84z" transform="matrix(1.3333333 0 0 -1.3333333 230.81427 150.9896)"/><path clip-path="url(#aE)" d="m0 0c-1.375-.292-3.515-.66-4.828-1.082.641 1.407 1.45 3.672 1.95 5.063-.254-1.234-.715-2.914-.79-4.027 1.032-.145 2.555.039 3.668.046" transform="matrix(1.3333333 0 0 -1.3333333 235.19973 150.36)"/><path clip-path="url(#aF)" d="m0 0c-.02.016 2.105 3.903 2.105 3.903l-2.848-3.375-.046-.895z" transform="matrix(1.3333333 0 0 -1.3333333 230.0812 151.18813)"/><path clip-path="url(#aG)" d="m0 0c-1.476-.383-3.781-.887-5.175-1.418.535 1.602 1.148 4.164 1.527 5.742-.129-1.39-.43-3.289-.375-4.535 1.148-.113 2.801.156 4.023.211" transform="matrix(1.3333333 0 0 -1.3333333 235.19973 150.66147)"/><path clip-path="url(#aH)" d="m0 0c-.023.023 2.649 3.914 2.649 3.914l-3.387-3.164-.144-.988z" transform="matrix(1.3333333 0 0 -1.3333333 229.53307 152.39067)"/><path clip-path="url(#aI)" d="m0 0c-1.453-.46-3.722-1.082-5.086-1.679.458 1.609.95 4.176 1.25 5.754-.062-1.383-.273-3.274-.16-4.5 1.149-.051 2.782.304 3.996.425" transform="matrix(1.3333333 0 0 -1.3333333 234.4236 151.25067)"/><path clip-path="url(#aJ)" d="m0 0c-.023.019 2.016 4.32 2.016 4.32l-2.863-3.719.011-.996z" transform="matrix(1.3333333 0 0 -1.3333333 228.81947 153.16147)"/><path clip-path="url(#aK)" d="m0 0c-1.492-.34-3.805-.774-5.219-1.258.605 1.566 1.324 4.086 1.769 5.633-.187-1.371-.57-3.239-.57-4.473 1.141-.144 2.797.078 4.02.098" transform="matrix(1.3333333 0 0 -1.3333333 233.68533 152.04173)"/><path clip-path="url(#aL)" d="m0 0c-.02.023 3.289 3.379 3.289 3.379l-3.879-2.504-.317-.949z" transform="matrix(1.3333333 0 0 -1.3333333 228.18533 153.70773)"/><path clip-path="url(#aM)" d="m0 0c-1.477-.199-3.766-.414-5.172-.766.683 1.535 1.543 4.027 2.074 5.559-.27-1.379-.758-3.242-.832-4.496 1.105-.262 2.734-.2 3.93-.297" transform="matrix(1.3333333 0 0 -1.3333333 232.8052 152.81707)"/><path clip-path="url(#aN)" d="m0 0c-.027.019 2.239 4.23 2.239 4.23l-3.039-3.558-.047-1.008z" transform="matrix(1.3333333 0 0 -1.3333333 227.31427 153.25973)"/><path clip-path="url(#aO)" d="m0 0c-1.605-.657-4.109-1.571-5.613-2.379.492 1.902 1.012 4.918 1.336 6.769-.059-1.605-.274-3.812-.141-5.226 1.274.039 3.075.594 4.418.836" transform="matrix(1.3333333 0 0 -1.3333333 233.04347 152.1504)"/><path clip-path="url(#aP)" d="m0 0c-.028.024 2.679 4.856 2.679 4.856l-3.539-4.109-.097-1.149z" transform="matrix(1.3333333 0 0 -1.3333333 226.90347 154.96947)"/><path clip-path="url(#aQ)" d="m0 0c-1.57-.738-4.031-1.785-5.492-2.668.406 1.902.789 4.902 1.027 6.75.016-1.586-.101-3.773.094-5.16 1.269.113 3.043.762 4.371 1.078" transform="matrix(1.3333333 0 0 -1.3333333 232.2212 152.94787)"/><path clip-path="url(#aR)" d="m0 0c-.031.016 1.953 5.223 1.953 5.223l-2.926-4.664.074-1.133z" transform="matrix(1.3333333 0 0 -1.3333333 226.17427 155.94787)"/><path clip-path="url(#aS)" d="m0 0c-1.571-.75-4.024-1.813-5.485-2.707.399 1.902.762 4.906.988 6.75.028-1.583-.078-3.774.129-5.153 1.266.121 3.039.785 4.368 1.11" transform="matrix(1.3333333 0 0 -1.3333333 231.3052 153.53053)"/><path clip-path="url(#aT)" d="m0 0c-.024.027 3.027 4.609 3.027 4.609l-3.816-3.773-.184-1.141z" transform="matrix(1.3333333 0 0 -1.3333333 225.5812 156.7812)"/><path clip-path="url(#aU)" d="m0 0c-1.398-1.117-3.609-2.758-4.867-3.985-.004 1.926-.262 4.891-.418 6.711.351-1.508.699-3.629 1.187-4.898 1.235.437 2.852 1.519 4.098 2.172" transform="matrix(1.3333333 0 0 -1.3333333 231.11187 153.20773)"/><path clip-path="url(#aV)" d="m0 0c-.035.004.348 5.52.348 5.52l-1.457-5.367.406-1.012z" transform="matrix(1.3333333 0 0 -1.3333333 225.78373 157.06773)"/><path clip-path="url(#aW)" d="m0 0c-1.399-1.109-3.618-2.738-4.883-3.957.008 1.926-.239 4.891-.387 6.715.344-1.512.684-3.633 1.168-4.906 1.23.433 2.852 1.507 4.102 2.148" transform="matrix(1.3333333 0 0 -1.3333333 230.5812 153.89067)"/><path clip-path="url(#aX)" d="m0 0c-.031.011 1.407 5.394 1.407 5.394l-2.438-4.961.192-1.109z" transform="matrix(1.3333333 0 0 -1.3333333 225.31427 158.31707)"/><path clip-path="url(#aY)" d="m0 0c-1.324-1.305-3.433-3.238-4.605-4.641-.207 1.973-.789 4.985-1.145 6.84.524-1.511 1.11-3.644 1.75-4.894 1.227.594 2.782 1.887 4 2.695" transform="matrix(1.3333333 0 0 -1.3333333 230.3716 154.06253)"/><path clip-path="url(#aZ)" d="m0 0c-.031.004.266 5.739.266 5.739l-1.41-5.575.437-1.054z" transform="matrix(1.3333333 0 0 -1.3333333 225.31947 159.24027)"/><path clip-path="url(#a0)" d="m0 0c-1.418-1.172-3.664-2.899-4.937-4.184-.047 2-.375 5.078-.578 6.969.394-1.562.801-3.762 1.336-5.078 1.261.465 2.906 1.605 4.179 2.293" transform="matrix(1.3333333 0 0 -1.3333333 229.81427 155.32813)"/><path clip-path="url(#a1)" d="m0 0c-.031.02 1.996 5.394 1.996 5.394l-2.996-4.781.082-1.183z" transform="matrix(1.3333333 0 0 -1.3333333 224.76227 160.10933)"/><path clip-path="url(#a2)" d="m0 0c-1.254-1.328-3.254-3.296-4.363-4.722-.196 2-.754 5.054-1.09 6.933.496-1.531 1.055-3.695 1.664-4.957 1.16.602 2.633 1.922 3.789 2.746" transform="matrix(1.3333333 0 0 -1.3333333 229.78373 155.36)"/><path clip-path="url(#a3)" d="m0 0c-.036 0-.235 5.703-.235 5.703l-.926-5.68.532-.988z" transform="matrix(1.3333333 0 0 -1.3333333 224.86253 160.47853)"/><path clip-path="url(#a4)" d="m0 0c-1.211-1.336-3.149-3.324-4.215-4.762-.258 2-.902 5.055-1.293 6.93.539-1.528 1.16-3.688 1.805-4.946 1.144.614 2.574 1.946 3.703 2.778" transform="matrix(1.3333333 0 0 -1.3333333 228.9608 155.93227)"/><path clip-path="url(#a5)" d="m0 0c-.035.008.637 5.797.637 5.797l-1.699-5.484.336-1.125z" transform="matrix(1.3333333 0 0 -1.3333333 224.43467 161.24027)"/><path clip-path="url(#a6)" d="m0 0c-1.109-1.449-2.891-3.617-3.848-5.148-.406 1.965-1.281 4.937-1.816 6.765.656-1.465 1.441-3.554 2.18-4.746 1.093.723 2.422 2.188 3.484 3.129" transform="matrix(1.3333333 0 0 -1.3333333 228.61187 156.2292)"/><path clip-path="url(#a7)" d="m0 0c-.035 0-.367 5.801-.367 5.801l-.731-5.758.524-1.012z" transform="matrix(1.3333333 0 0 -1.3333333 224.40347 161.95827)"/><path clip-path="url(#a8)" d="m0 0c-1.039-1.516-2.723-3.793-3.602-5.387-.512 1.961-1.539 4.907-2.168 6.719.731-1.437 1.625-3.5 2.426-4.66 1.062.781 2.324 2.328 3.344 3.328" transform="matrix(1.3333333 0 0 -1.3333333 228.4608 156.67187)"/><path clip-path="url(#a9)" d="m0 0c-.031.012.59 5.832.59 5.832l-1.66-5.48.351-1.149z" transform="matrix(1.3333333 0 0 -1.3333333 224.88267 162.68293)"/><path clip-path="url(#ba)" d="m0 0c-.899-1.652-2.364-4.148-3.098-5.855-.68 1.875-1.969 4.664-2.758 6.378.86-1.332 1.93-3.257 2.832-4.3.985.929 2.098 2.64 3.024 3.777" transform="matrix(1.3333333 0 0 -1.3333333 228.18533 157.39067)"/><path clip-path="url(#bb)" d="m0 0c-.031-.012-1.629 5.527-1.629 5.527l.551-5.828.734-.82z" transform="matrix(1.3333333 0 0 -1.3333333 224.61187 163.31707)"/><path clip-path="url(#bc)" d="m0 0c-.938-1.648-2.461-4.136-3.227-5.839-.687 1.871-1.988 4.648-2.785 6.359.871-1.324 1.961-3.246 2.879-4.285 1.015.926 2.176 2.629 3.133 3.765" transform="matrix(1.3333333 0 0 -1.3333333 228.13333 158.25067)"/><path clip-path="url(#bd)" d="m0 0c-.031 0-.597 5.812-.597 5.812l-.539-5.812.582-.997z" transform="matrix(1.3333333 0 0 -1.3333333 224.71013 164.70773)"/><path clip-path="url(#be)" d="m0 0c-.961-1.625-2.527-4.078-3.32-5.762-.656 1.887-1.91 4.695-2.68 6.426.848-1.348 1.907-3.293 2.805-4.352 1.035.899 2.219 2.578 3.195 3.688" transform="matrix(1.3333333 0 0 -1.3333333 228.26227 158.93227)"/><path clip-path="url(#bf)" d="m0 0c-.035-.004-1.078 5.707-1.078 5.707l-.054-5.848.664-.918z" transform="matrix(1.3333333 0 0 -1.3333333 224.6424 165.32813)"/><path clip-path="url(#bg)" d="m0 0c-1.035-1.559-2.715-3.899-3.586-5.524-.566 1.93-1.683 4.82-2.371 6.602.785-1.407 1.746-3.422 2.594-4.543 1.074.828 2.336 2.422 3.363 3.465" transform="matrix(1.3333333 0 0 -1.3333333 227.71013 160.03053)"/><path clip-path="url(#bh)" d="m0 0c-.032.012.484 5.836.484 5.836l-1.59-5.531.383-1.129z" transform="matrix(1.3333333 0 0 -1.3333333 223.97187 166.18227)"/><path clip-path="url(#bi)" d="m0 0c-.887-1.688-2.34-4.238-3.055-5.973-.742 1.84-2.121 4.563-2.969 6.239.91-1.29 2.051-3.164 3-4.161.992.965 2.098 2.719 3.024 3.895" transform="matrix(1.3333333 0 0 -1.3333333 227.79413 160.2188)"/><path clip-path="url(#bj)" d="m0 0c-.031-.012-1.789 5.437-1.789 5.437l.688-5.785.773-.785z" transform="matrix(1.3333333 0 0 -1.3333333 223.71013 166.82813)"/><path clip-path="url(#bk)" d="m0 0c-.618-1.851-1.664-4.675-2.11-6.531-1.004 1.645-2.773 4.016-3.859 5.477 1.09-1.067 2.496-2.655 3.582-3.43.828 1.164 1.652 3.129 2.387 4.484" transform="matrix(1.3333333 0 0 -1.3333333 227.47187 160.8028)"/><path clip-path="url(#bl)" d="m0 0c-.031-.012-1.937 5.363-1.937 5.363l.847-5.75.793-.754z" transform="matrix(1.3333333 0 0 -1.3333333 225.83053 167.42187)"/><path clip-path="url(#bm)" d="m0 0c-.606-1.855-1.629-4.691-2.059-6.555-1.019 1.637-2.804 3.989-3.902 5.438 1.098-1.055 2.516-2.633 3.605-3.395.821 1.176 1.633 3.149 2.356 4.512" transform="matrix(1.3333333 0 0 -1.3333333 227.4504 161.56253)"/><path clip-path="url(#bn)" d="m0 0c-.032-.016-2.492 5.016-2.492 5.016l1.453-5.571.863-.625z" transform="matrix(1.3333333 0 0 -1.3333333 225.852 168.64067)"/><path clip-path="url(#bo)" d="m0 0c-.386-1.925-1.078-4.882-1.289-6.792-1.199 1.476-3.242 3.55-4.496 4.831 1.211-.89 2.801-2.249 3.969-2.847.68 1.281 1.258 3.355 1.816 4.808" transform="matrix(1.3333333 0 0 -1.3333333 227.19973 162.18293)"/><path clip-path="url(#bp)" d="m0 0c-.031-.008-1.344 5.621-1.344 5.621l.223-5.836.703-.875z" transform="matrix(1.3333333 0 0 -1.3333333 226.07013 169.68747)"/><path clip-path="url(#bq)" d="m0 0c-.203-1.973-.613-5.008-.648-6.938-1.324 1.305-3.543 3.098-4.906 4.203 1.281-.723 2.984-1.859 4.199-2.301.554 1.368.933 3.508 1.355 5.036" transform="matrix(1.3333333 0 0 -1.3333333 227.21013 162.97853)"/><path clip-path="url(#br)" d="m0 0c-.027-.027-3.555 4.059-3.555 4.059l2.676-4.918.981-.332z" transform="matrix(1.3333333 0 0 -1.3333333 226.16387 170.2396)"/><path clip-path="url(#bs)" d="m0 0c-.214-1.969-.636-5.004-.679-6.934-1.321 1.317-3.532 3.121-4.891 4.235 1.281-.731 2.977-1.879 4.191-2.324.563 1.363.95 3.5 1.379 5.023" transform="matrix(1.3333333 0 0 -1.3333333 227.31427 163.90107)"/><path clip-path="url(#bt)" d="m0 0c-.028-.02-2.731 4.894-2.731 4.894l1.719-5.496.894-.585z" transform="matrix(1.3333333 0 0 -1.3333333 226.69053 171.4896)"/><path clip-path="url(#bu)" d="m0 0c-.129-1.985-.426-5.043-.387-6.969-1.371 1.23-3.656 2.902-5.059 3.929 1.309-.648 3.051-1.695 4.282-2.066.5 1.395.8 3.559 1.164 5.106" transform="matrix(1.3333333 0 0 -1.3333333 227.52387 164.97853)"/><path clip-path="url(#bv)" d="m0 0c-.027-.027-3.375 4.277-3.375 4.277l2.461-5.078.965-.398z" transform="matrix(1.3333333 0 0 -1.3333333 227.1528 172.68747)"/><path clip-path="url(#bw)" d="m0 0c-.117-1.984-.391-5.047-.34-6.977-1.379 1.223-3.676 2.872-5.082 3.891 1.312-.641 3.058-1.672 4.289-2.031.496 1.402.781 3.566 1.133 5.117" transform="matrix(1.3333333 0 0 -1.3333333 227.57013 166.19787)"/><path clip-path="url(#bx)" d="m0 0c-.035-.016-2.367 5.16-2.367 5.16l1.308-5.648.852-.676z" transform="matrix(1.3333333 0 0 -1.3333333 227.56493 173.66147)"/><path clip-path="url(#by)" d="m0 0c.07-1.992.082-5.074.308-6.988-1.48 1.031-3.91 2.363-5.402 3.187 1.363-.461 3.191-1.25 4.449-1.445.359 1.461.441 3.652.645 5.246" transform="matrix(1.3333333 0 0 -1.3333333 227.69053 166.9896)"/><path clip-path="url(#bz)" d="m0 0c-.02-.031-4.32 2.961-4.32 2.961l3.664-4.039 1.015-.051z" transform="matrix(1.3333333 0 0 -1.3333333 228.11187 173.39067)"/><path clip-path="url(#bA)" d="m0 0c.172-1.98.344-5.055.676-6.953-1.539.973-4.043 2.211-5.578 2.973 1.387-.407 3.262-1.125 4.527-1.274.285 1.473.25 3.66.375 5.254" transform="matrix(1.3333333 0 0 -1.3333333 227.8716 167.2708)"/><path clip-path="url(#bB)" d="m0 0c-.027-.027-3.602 4.137-3.602 4.137l2.731-4.969.984-.359z" transform="matrix(1.3333333 0 0 -1.3333333 228.7316 174.85933)"/><path clip-path="url(#bC)" d="m0 0c.254-1.973.554-5.039.965-6.918-1.575.879-4.118 1.965-5.684 2.637 1.398-.324 3.297-.93 4.566-1 .219 1.492.094 3.679.153 5.281" transform="matrix(1.3333333 0 0 -1.3333333 228.29413 168.2812)"/><path clip-path="url(#bD)" d="m0 0c-.02-.031-4.286 3.032-4.286 3.032l3.618-4.098 1.015-.071z" transform="matrix(1.3333333 0 0 -1.3333333 229.69053 175.7916)"/><path clip-path="url(#bE)" d="m0 0c.386-1.949.886-4.988 1.418-6.832-1.622.73-4.219 1.578-5.817 2.105 1.41-.195 3.336-.621 4.602-.57.117 1.512-.153 3.688-.203 5.297" transform="matrix(1.3333333 0 0 -1.3333333 228.47187 169.40107)"/><path clip-path="url(#bF)" d="m0 0c-.023-.027-3.547 4.203-3.547 4.203l2.664-5.015.981-.379z" transform="matrix(1.3333333 0 0 -1.3333333 230.31947 176.58853)"/><path clip-path="url(#bG)" d="m0 0c.562-1.898 1.344-4.863 2.043-6.633-1.672.512-4.32 1.012-5.949 1.321 1.41-.004 3.355-.172 4.601.046-.023 1.528-.496 3.664-.695 5.266" transform="matrix(1.3333333 0 0 -1.3333333 228.78373 170.11973)"/><path clip-path="url(#bH)" d="m0 0c-.004-.039-4.953 1.062-4.953 1.062l4.711-2.343.953.359z" transform="matrix(1.3333333 0 0 -1.3333333 230.57013 176.59893)"/><path clip-path="url(#bI)" d="m0 0c.559-1.898 1.328-4.871 2.02-6.645-1.672.524-4.321 1.04-5.946 1.356 1.411-.012 3.356-.191 4.602.023-.016 1.524-.48 3.664-.676 5.266" transform="matrix(1.3333333 0 0 -1.3333333 229.21013 170.91147)"/><path clip-path="url(#bJ)" d="m0 0c-.015-.035-4.742 2.293-4.742 2.293l4.254-3.449 1.016.097z" transform="matrix(1.3333333 0 0 -1.3333333 231.6528 177.30213)"/><path clip-path="url(#bK)" d="m0 0c.942-1.73 2.317-4.461 3.367-6.039-1.738.133-4.425.035-6.082-.02 1.379.309 3.313.571 4.481 1.063-.336 1.484-1.238 3.473-1.766 4.996" transform="matrix(1.3333333 0 0 -1.3333333 228.88267 171.34893)"/><path clip-path="url(#bL)" d="m0 0c-.011-.039-4.926 1.359-4.926 1.359l4.622-2.617.972.297z" transform="matrix(1.3333333 0 0 -1.3333333 232.6528 177.9896)"/><path clip-path="url(#bM)" d="m0 0c.949-1.727 2.344-4.445 3.398-6.016-1.734.118-4.422 0-6.074-.07 1.375.32 3.305.598 4.473 1.098-.348 1.488-1.262 3.468-1.797 4.988" transform="matrix(1.3333333 0 0 -1.3333333 229.56493 172.32813)"/><path clip-path="url(#bN)" d="m0 0c-.015-.031-4.589 2.746-4.589 2.746l4.011-3.836 1.031-.012z" transform="matrix(1.3333333 0 0 -1.3333333 233.48093 178.5312)"/><path clip-path="url(#bO)" d="m0 0c1.105-1.609 2.734-4.16 3.926-5.602-1.715-.105-4.344-.578-5.957-.863 1.32.504 3.183 1.035 4.281 1.688-.485 1.449-1.574 3.324-2.25 4.777" transform="matrix(1.3333333 0 0 -1.3333333 230.07013 172.91147)"/><path clip-path="url(#bP)" d="m0 0c-.004-.043-4.957.112-4.957.112l4.903-1.444.871.539z" transform="matrix(1.3333333 0 0 -1.3333333 233.93467 179.06773)"/><path clip-path="url(#bQ)" d="m0 0c0 .016 3.567.598 3.567.598l-3.547-.082-.621-.321z" transform="matrix(1.3333333 0 0 -1.3333333 237.76227 147.06253)"/><path clip-path="url(#bR)" d="m0 0c-1.035.313-2.597.836-3.66 1.067 1.129.445 2.801 1.242 3.828 1.73-.793-.496-1.941-1.129-2.554-1.625.593-.402 1.668-.812 2.386-1.172" transform="matrix(1.3333333 0 0 -1.3333333 240.3716 148.06773)"/><path clip-path="url(#bS)" d="m0 0c-.004.016 3.449.945 3.449.945l-3.574-.453-.539-.371z" transform="matrix(1.3333333 0 0 -1.3333333 237.55453 147.2188)"/><path clip-path="url(#bT)" d="m0 0c-1.207.114-3.062.348-4.253.36.898.793 2.16 2.125 2.933 2.941-.531-.765-1.351-1.785-1.707-2.512.813-.324 2.113-.542 3.027-.789" transform="matrix(1.3333333 0 0 -1.3333333 240.59027 148.41213)"/><path clip-path="url(#bU)" d="m0 0c.004.016 3.586.406 3.586.406l-3.492.113-.653-.289z" transform="matrix(1.3333333 0 0 -1.3333333 235.84093 147.55213)"/><path clip-path="url(#bV)" d="m0 0c-1.097.211-2.769.574-3.879.707 1.055.515 2.594 1.41 3.543 1.957-.711-.535-1.754-1.235-2.281-1.754.668-.332 1.828-.629 2.617-.91" transform="matrix(1.3333333 0 0 -1.3333333 239.38267 148.58787)"/><path clip-path="url(#bW)" d="m0 0c-.012.012 3.153 1.359 3.153 1.359l-3.454-.914-.414-.422z" transform="matrix(1.3333333 0 0 -1.3333333 235.43467 147.5)"/><path clip-path="url(#bX)" d="m0 0c-.914.379-2.317 1.016-3.219 1.285.699.649 1.687 1.793 2.293 2.493-.422-.7-1.066-1.606-1.352-2.297.606-.52 1.586-1.028 2.278-1.481" transform="matrix(1.3333333 0 0 -1.3333333 239.24267 149.11973)"/><path clip-path="url(#bY)" d="m0 0c-.008.023 2.453 1.066 2.453 1.066l-2.672-.367-.328-.477z" transform="matrix(1.3333333 0 0 -1.3333333 235.67427 147.81187)"/><path clip-path="url(#bZ)" d="m0 0c0-.039-5.09-.039-5.09-.039l5.153-1.262.843.555z" transform="matrix(1.3333333 0 0 -1.3333333 232.93467 178.45827)"/><path clip-path="url(#b0)" d="m0 0c-.008-.035-5.168 1.203-5.168 1.203l4.961-2.433.973.312z" transform="matrix(1.3333333 0 0 -1.3333333 234.1528 178.90107)"/><path clip-path="url(#b1)" d="m0 0c0-.039-5.129.258-5.129.258l5.129-1.547.879.5z" transform="matrix(1.3333333 0 0 -1.3333333 235.28373 179.35933)"/><path clip-path="url(#b2)" d="m0 0c1.336-1.469 3.336-3.813 4.735-5.109-1.723-.262-4.317-.957-5.915-1.383 1.27.609 3.086 1.297 4.11 2.035-.692 1.367-2.047 3.098-2.93 4.457" transform="matrix(1.3333333 0 0 -1.3333333 230.94 174.5312)"/><path clip-path="url(#b3)" d="m0 0c-.008-.039-5.125 1.676-5.125 1.676l4.816-2.863 1.008.21z" transform="matrix(1.3333333 0 0 -1.3333333 236.2212 179.70827)"/><path clip-path="url(#b4)" d="m0 0c1.457-1.327 3.648-3.457 5.148-4.598-1.648-.476-4.105-1.5-5.613-2.129 1.172.773 2.867 1.696 3.785 2.567-.812 1.305-2.316 2.89-3.32 4.16" transform="matrix(1.3333333 0 0 -1.3333333 231.57013 174.9792)"/><path clip-path="url(#b5)" d="m0 0c.008-.039-4.867-.957-4.867-.957l5.129-.348.722.714z" transform="matrix(1.3333333 0 0 -1.3333333 236.78373 180.13027)"/><path clip-path="url(#b6)" d="m0 0c.004-.039-5.078-.391-5.078-.391l5.238-.898.801.609z" transform="matrix(1.3333333 0 0 -1.3333333 235.43467 179.7188)"/><path clip-path="url(#b7)" d="m0 0c-.004-.039-5.25.84-5.25.84l5.136-2.082.946.379z" transform="matrix(1.3333333 0 0 -1.3333333 236.68533 180.07813)"/><path clip-path="url(#b8)" d="m0 0c.004-.039-5.137-.098-5.137-.098l5.235-1.187.839.558z" transform="matrix(1.3333333 0 0 -1.3333333 237.84093 180.45827)"/><path clip-path="url(#b9)" d="m0 0c1.442-1.375 3.614-3.574 5.11-4.77-1.699-.378-4.238-1.253-5.801-1.785 1.223.697 2.981 1.504 3.945 2.313-.789 1.316-2.273 2.945-3.254 4.242" transform="matrix(1.3333333 0 0 -1.3333333 233.1424 175.93747)"/><path clip-path="url(#ca)" d="m0 0c-.007-.035-5.246 1.316-5.246 1.316l5.024-2.519.992.281z" transform="matrix(1.3333333 0 0 -1.3333333 238.81427 180.7396)"/><path clip-path="url(#cb)" d="m0 0c1.551-1.223 3.899-3.195 5.481-4.23-1.61-.586-3.985-1.778-5.445-2.504 1.113.847 2.738 1.882 3.585 2.816-.91 1.242-2.527 2.719-3.621 3.918" transform="matrix(1.3333333 0 0 -1.3333333 233.81427 176.33853)"/><path clip-path="url(#cc)" d="m0 0c.011-.039-4.785-1.289-4.785-1.289l5.144.004.668.762z" transform="matrix(1.3333333 0 0 -1.3333333 239.40347 181.11973)"/></g><path clip-path="url(#cd)" d="m0 0-3.906 2.702-3.91-2.702 1.465 4.324-3.418 2.699h4.398l1.465 4.321 1.465-4.321h4.398l-3.422-2.699z" fill="#fedf00" stroke-width=".224" transform="matrix(1.3333333 0 0 -1.3333333 248.21013 171.5208)"/></g></svg>