<?xml version="1.0" encoding="UTF-8" standalone="no"?>
<!-- Created with Inkscape (http://www.inkscape.org/) -->

<svg
   width="144"
   height="96"
   viewBox="0 0 144 96"
   version="1.1"
   id="svg5"
   inkscape:version="1.2.2 (732a01da63, 2022-12-09)"
   sodipodi:docname="v2.svg"
   xml:space="preserve"
   xmlns:inkscape="http://www.inkscape.org/namespaces/inkscape"
   xmlns:sodipodi="http://sodipodi.sourceforge.net/DTD/sodipodi-0.dtd"
   xmlns:xlink="http://www.w3.org/1999/xlink"
   xmlns="http://www.w3.org/2000/svg"
   xmlns:svg="http://www.w3.org/2000/svg"><sodipodi:namedview
     id="namedview7"
     pagecolor="#505050"
     bordercolor="#eeeeee"
     borderopacity="1"
     inkscape:showpageshadow="0"
     inkscape:pageopacity="0"
     inkscape:pagecheckerboard="0"
     inkscape:deskcolor="#505050"
     inkscape:document-units="px"
     showgrid="false"
     inkscape:zoom="2.8284271"
     inkscape:cx="32.526912"
     inkscape:cy="-2.8284271"
     inkscape:window-width="2560"
     inkscape:window-height="1377"
     inkscape:window-x="1912"
     inkscape:window-y="-8"
     inkscape:window-maximized="1"
     inkscape:current-layer="layer1"><inkscape:grid
       type="xygrid"
       id="grid2501"
       empspacing="6"
       originx="0"
       originy="0"
       color="#000000"
       opacity="0.14901961"
       empcolor="#000000"
       empopacity="0.30196078" /></sodipodi:namedview><defs
     id="defs2"><linearGradient
       id="winger"
       inkscape:swatch="solid"><stop
         style="stop-color:#00843d;stop-opacity:1;"
         offset="0"
         id="stop6019" /></linearGradient><linearGradient
       id="outer"
       inkscape:swatch="solid"><stop
         style="stop-color:#ffcc00;stop-opacity:1;"
         offset="0"
         id="stop3903" /></linearGradient><linearGradient
       id="middle"
       inkscape:swatch="solid"><stop
         style="stop-color:#111111;stop-opacity:1;"
         offset="0"
         id="stop10417" /></linearGradient><linearGradient
       id="inner"
       inkscape:swatch="solid"><stop
         style="stop-color:#dd0022;stop-opacity:1;"
         offset="0"
         id="stop1523" /></linearGradient><linearGradient
       id="triangle"
       inkscape:swatch="solid"><stop
         style="stop-color:#ffffff;stop-opacity:1;"
         offset="0"
         id="stop1517" /></linearGradient><clipPath
       id="t"><path
         d="m0 0h63v63H0z"
         id="path4080" /></clipPath><linearGradient
       inkscape:collect="always"
       xlink:href="#winger"
       id="linearGradient6023"
       x1="216"
       y1="48"
       x2="252"
       y2="48"
       gradientUnits="userSpaceOnUse" /><linearGradient
       inkscape:collect="always"
       xlink:href="#outer"
       id="linearGradient6804"
       gradientUnits="userSpaceOnUse"
       x1="216"
       y1="48"
       x2="252"
       y2="48" /><linearGradient
       inkscape:collect="always"
       xlink:href="#inner"
       id="linearGradient6808"
       gradientUnits="userSpaceOnUse"
       x1="216"
       y1="48"
       x2="252"
       y2="48" /><linearGradient
       inkscape:collect="always"
       xlink:href="#middle"
       id="linearGradient6812"
       gradientUnits="userSpaceOnUse"
       x1="216"
       y1="48"
       x2="252"
       y2="48" /><linearGradient
       inkscape:collect="always"
       xlink:href="#triangle"
       id="linearGradient9926"
       x1="0"
       y1="48"
       x2="64"
       y2="48"
       gradientUnits="userSpaceOnUse" /><linearGradient
       inkscape:collect="always"
       xlink:href="#middle"
       id="linearGradient9930"
       gradientUnits="userSpaceOnUse"
       x1="0"
       y1="48"
       x2="64"
       y2="48"
       gradientTransform="matrix(0.26458333,0,0,0.26458333,0.52916666,0)" /><linearGradient
       inkscape:collect="always"
       xlink:href="#inner"
       id="linearGradient10093"
       x1="1.8205934"
       y1="12.245221"
       x2="10.879406"
       y2="12.245221"
       gradientUnits="userSpaceOnUse" /></defs><g
     inkscape:label="zw"
     inkscape:groupmode="layer"
     id="layer1"
     transform="scale(3.7795276)"><g
       id="g6027"
       transform="matrix(2.4,0,0,2.2857143,-137.16,0)"
       inkscape:label="stripes"><rect
         style="font-variation-settings:'wght' 700;fill:url(#linearGradient6023);fill-opacity:1;stroke-width:0.2;stroke-linejoin:round"
         id="rect5291"
         width="60"
         height="42"
         x="216"
         y="0"
         transform="scale(0.26458333)"
         inkscape:label="winger" /><rect
         style="font-variation-settings:'wght' 700;fill:url(#linearGradient6804);fill-opacity:1;stroke-width:0.2;stroke-linejoin:round"
         id="rect6802"
         width="60"
         height="30"
         x="216"
         y="6"
         transform="scale(0.26458333)"
         inkscape:label="outer" /><rect
         style="font-variation-settings:'wght' 700;fill:url(#linearGradient6808);fill-opacity:1;stroke-width:0.2;stroke-linejoin:round"
         id="rect6806"
         width="60"
         height="18"
         x="216"
         y="12"
         transform="scale(0.26458333)"
         inkscape:label="inner" /><rect
         style="font-variation-settings:'wght' 700;fill:url(#linearGradient6812);fill-opacity:1;stroke-width:0.2;stroke-linejoin:round"
         id="rect6810"
         width="60"
         height="6"
         x="216"
         y="18"
         transform="scale(0.26458333)"
         inkscape:label="mid" /></g><g
       id="g12470"
       inkscape:label="triangle"><path
         style="font-variation-settings:'wght' 700;fill:url(#linearGradient9930);fill-opacity:1;stroke-width:0.0529167;stroke-linejoin:round"
         d="M 1.5875,-2.7516666e-7 18.520833,12.7 1.5875,25.4 0,25.4 V 0 Z"
         id="path9928"
         sodipodi:nodetypes="cccccc"
         inkscape:label="stroke" /><path
         style="font-variation-settings:'wght' 700;fill:url(#linearGradient9926);stroke-width:0.2;stroke-linejoin:round;fill-opacity:1.0"
         d="M 0,0 64,48 0,96 Z"
         id="path9144"
         transform="scale(0.26458333)"
         inkscape:label="fill" /></g><path
       style="font-variation-settings:'wght' 700;fill:url(#linearGradient10093);stroke-width:0.0529167;stroke-linejoin:round;stroke-dasharray:none;stroke:none;fill-opacity:1.0"
       d="m 6.3499999,7.9374999 -2.7993273,8.6154431 7.3287334,-5.324636 -9.0588126,-10e-7 7.3287336,5.324637 z"
       id="path10087"
       inkscape:label="star" /><g
       fill="none"
       stroke="#000000"
       stroke-linejoin="round"
       stroke-linecap="round"
       stroke-width="38"
       id="g10884"
       style="display:inline;stroke-width:65.625;stroke-dasharray:none"
       transform="matrix(0.00186018,0,0,0.00186018,0.34184891,1.678105)"
       inkscape:label="birb"><path
         fill="#ffd200"
         d="m 2290,4580 c -18,-45 -15,-95 8,-138 23,-42 65,-72 113,-80 51,-9 102,-12 154,-11 49,-76 131,-125 221,-132 90,-6 178,30 238,98 71,81 113,183 122,290 l 37,464 1412,1105 a 86,86 0 0 1 -76,150 l -59,-17 c -227,141 -395,387 -428,651 l -85,672 H 2454 l -198,-769 c -71,-86 -81,-207 -25,-303 73,-125 161,-241 262,-345 66,-66 96,-160 83,-253 -14,-92 -21,-185 -22,-278 -1,-77 16,-154 49,-223 l -19,-694 c -3,-82 -48,-157 -119,-197 z"
         id="path10874"
         style="stroke-width:65.625;stroke-dasharray:none" /><path
         d="m 2465,4570 167,-10 m -29,901 580,-390 m 232,1167 c 229,64 372,45 439,-101 m -852,-566 c -62,179 50,338 200,381 l 1258,357 m -2040,631 c -47,-184 21,-513 312,-650 135,-63 179,-201 180,-318 0,-44 1,-95 64,-120 m -720,1011 44,-107 c 21,79 64,137 120,184 31,-65 58,-131 81,-198 26,52 47,123 65,194 -4,-161 81,-279 193,-329 l 434,-193 c 141,-63 276,-188 307,-378 m 742,460 H 3008 m -727,464 h 1751 m -1346,381 h 1297 m -1428,-381 131,381 v 291 m -63,-509 128,-128 128,128 128,-128 128,128 128,-128 128,128 128,-128 128,128 128,-128 128,128 124,-124 m -1366,269 90,-90 128,128 128,-128 128,128 128,-128 128,128 128,-128 128,128 128,-128 128,128 97,-97"
         id="path10876"
         style="stroke-width:65.625;stroke-dasharray:none" /><circle
         r="76"
         cx="2799"
         cy="4459"
         id="circle10878"
         style="stroke-width:65.625;stroke-dasharray:none" /><circle
         r="145"
         cx="3139"
         cy="6730"
         id="circle10880"
         style="stroke-width:65.625;stroke-dasharray:none" /><circle
         r="145"
         cx="3714"
         cy="6730"
         id="circle10882"
         style="stroke-width:65.625;stroke-dasharray:none" /></g></g></svg>
