<svg height="600" viewBox="0 0 600 600" width="600" xmlns="http://www.w3.org/2000/svg"><path d="m0 599.99989h599.99973v-599.999878h-599.99973z" fill="#fff" stroke-width="1.065"/><path d="m0 234.78258h599.99973v-234.782568h-599.99973z" stroke-width="1.065"/><g fill="#fcd116" transform="matrix(.875 0 0 .875 -102.5 25)"><path d="m0 0 147.118-29.264 7.316 36.78" transform="matrix(1.3333333 0 0 -1.3333333 260 240)"/><path d="m0 0 147.118 29.264 7.316-36.78" transform="matrix(1.3333333 0 0 -1.3333333 260 240)"/><path d="m0 0 124.721-83.335 20.834 31.18" transform="matrix(1.3333333 0 0 -1.3333333 275.224 163.4636)"/><path d="m0 0 147.118-29.263-7.316-36.78" transform="matrix(1.3333333 0 0 -1.3333333 275.224 163.4636)"/><path d="m0 0 83.335-124.72 31.18 20.834" transform="matrix(1.3333333 0 0 -1.3333333 318.5788 98.5788)"/><path d="m0 0 124.72-83.335-20.834-31.181" transform="matrix(1.3333333 0 0 -1.3333333 318.5788 98.5788)"/><path d="m0 0 29.263-147.118 36.78 7.316" transform="matrix(1.3333333 0 0 -1.3333333 383.4636 55.224)"/><path d="m0 0 83.335-124.721-31.18-20.833" transform="matrix(1.3333333 0 0 -1.3333333 383.4636 55.224)"/><path d="m0 0-29.264-147.118 36.78-7.316" transform="matrix(1.3333333 0 0 -1.3333333 460 40)"/><path d="m0 0 29.264-147.118-36.78-7.316" transform="matrix(1.3333333 0 0 -1.3333333 460 40)"/><path d="m0 0-83.335-124.721 31.18-20.833" transform="matrix(1.3333333 0 0 -1.3333333 536.5364 55.224)"/><path d="m0 0-29.264-147.118-36.779 7.316" transform="matrix(1.3333333 0 0 -1.3333333 536.5364 55.224)"/><path d="m0 0-124.721-83.335 20.834-31.181" transform="matrix(1.3333333 0 0 -1.3333333 601.42187 98.5788)"/><path d="m0 0-83.336-124.72-31.18 20.834" transform="matrix(1.3333333 0 0 -1.3333333 601.42187 98.5788)"/><path d="m0 0-147.118-29.263 7.316-36.78" transform="matrix(1.3333333 0 0 -1.3333333 644.776 163.4636)"/><path d="m0 0-124.721-83.335-20.833 31.18" transform="matrix(1.3333333 0 0 -1.3333333 644.776 163.4636)"/><g transform="matrix(1.3333333 0 0 -1.3333333 660 240)"><path d="m0 0-147.118 29.264-7.316-36.78"/><path d="m0 0-147.118-29.264-7.316 36.78"/></g></g><g stroke-width="1.065"><path d="m0 365.21734h599.99973v-130.43476h-599.99973z" fill="#0072c6"/><path d="m600 .00013037-300.00073 599.99987963-299.99899413-599.99987963v599.99987963h599.99972413z" fill="#ce1126"/></g></svg>