<svg height="400" viewBox="0 0 400 400" width="400" xmlns="http://www.w3.org/2000/svg" xmlns:xlink="http://www.w3.org/1999/xlink"><clipPath id="a"><path d="m0 300h450v-300h-450z" transform="translate(-231.11521 -208.18021)"/></clipPath><clipPath id="b"><path d="m0 300h450v-300h-450z" transform="translate(-302.62401 -157.645)"/></clipPath><clipPath id="c"><path d="m0 300h450v-300h-450z" transform="translate(-299.6416 -127.35741)"/></clipPath><clipPath id="d"><path d="m0 300h450v-300h-450z" transform="translate(-285.29491 -100.51761)"/></clipPath><clipPath id="e"><path d="m0 300h450v-300h-450z" transform="translate(-247.6426 -224.64111)"/></clipPath><clipPath id="f"><path d="m0 300h450v-300h-450z" transform="translate(-274.4824 -210.2944)"/></clipPath><clipPath id="g"><path d="m0 300h450v-300h-450z" transform="translate(-293.79001 -186.7686)"/></clipPath><clipPath id="h"><path d="m0 300h450v-300h-450z" transform="translate(-261.76861 -81.210002)"/></clipPath><clipPath id="i"><path d="m0 300h450v-300h-450z" transform="translate(-232.64551 -72.375999)"/></clipPath><clipPath id="j"><path d="m0 300h450v-300h-450z" transform="translate(-202.35741 -75.358404)"/></clipPath><clipPath id="k"><path d="m0 300h450v-300h-450z" transform="translate(-199.3242 -185.3437)"/></clipPath><clipPath id="l"><path d="m0 300h450v-300h-450z" transform="translate(-287.8789 -83.685505)"/></clipPath><clipPath id="m"><path d="m0 300h450v-300h-450z" transform="translate(-231.3604 -102.15531)"/></clipPath><clipPath id="n"><path d="m0 300h450v-300h-450z" transform="translate(-279.6631 -76.310499)"/></clipPath><clipPath id="o"><path d="m0 300h450v-300h-450z" transform="translate(-216.08541 -132.48051)"/></clipPath><clipPath id="p"><path d="m0 300h450v-300h-450z" transform="translate(-290.4004 -78.710904)"/></clipPath><clipPath id="q"><path d="m0 300h450v-300h-450z" transform="translate(-297.81931 -72.245102)"/></clipPath><clipPath id="r"><path d="m0 300h450v-300h-450z" transform="translate(-304.33791 -65.621102)"/></clipPath><path d="m0 400h400v-200h-400z" stroke-width=".769799"/><path d="m0 200h400v-200h-400z" fill="#ce1126" stroke-width="1.08866"/><g fill="#f9d616" transform="translate(-99.999995)"><path clip-path="url(#a)" d="m0 0c32.132-3.378 55.441-32.164 52.063-64.295-3.376-32.132-32.163-55.442-64.294-52.064-11.365 1.194-22.13 5.692-30.968 12.935l-8.558-10.441c30.754-25.207 76.119-20.71 101.326 10.044s20.71 76.12-10.044 101.327c-10.877 8.915-24.128 14.45-38.114 15.92z" transform="matrix(1.3333333 0 0 -1.3333333 308.1536 122.4264)"/><path clip-path="url(#b)" d="m0 0c.501-5.084.501-10.206 0-15.291l-14.928 1.47c.406 4.108.406 8.244 0 12.351z" transform="matrix(1.3333333 0 0 -1.3333333 403.49867 189.80667)"/><path clip-path="url(#c)" d="m0 0c-1.483-4.889-3.443-9.621-5.852-14.127l-13.229 7.071c1.945 3.64 3.528 7.461 4.727 11.41z" transform="matrix(1.3333333 0 0 -1.3333333 399.52213 230.19013)"/><path clip-path="url(#d)" d="m0 0c-3.241-3.95-6.863-7.571-10.813-10.813l-9.515 11.595c3.189 2.618 6.114 5.543 8.732 8.734z" transform="matrix(1.3333333 0 0 -1.3333333 380.3932 265.97653)"/><path clip-path="url(#e)" d="m0 0c4.889-1.483 9.621-3.443 14.127-5.852l-7.071-13.228c-3.64 1.945-7.461 3.528-11.41 4.726z" transform="matrix(1.3333333 0 0 -1.3333333 330.19013 100.47853)"/><path clip-path="url(#f)" d="m0 0c3.95-3.241 7.571-6.862 10.813-10.812l-11.595-9.516c-2.618 3.19-5.543 6.115-8.734 8.733z" transform="matrix(1.3333333 0 0 -1.3333333 365.97653 119.60747)"/><path clip-path="url(#g)" d="m0 0c2.408-4.506 4.368-9.237 5.852-14.126l-14.355-4.355c-1.197 3.949-2.78 7.771-4.726 11.41z" transform="matrix(1.3333333 0 0 -1.3333333 391.72 150.9752)"/><path clip-path="url(#h)" d="m0 0c-4.506-2.408-9.237-4.368-14.127-5.852l-4.353 14.355c3.948 1.197 7.77 2.78 11.409 4.726z" transform="matrix(1.3333333 0 0 -1.3333333 349.0248 291.72)"/><path clip-path="url(#i)" d="m0 0c-5.085-.501-10.207-.501-15.291 0l1.47 14.928c4.107-.405 8.244-.405 12.35 0z" transform="matrix(1.3333333 0 0 -1.3333333 310.194 303.49867)"/><path clip-path="url(#j)" d="m0 0c-4.889 1.483-9.621 3.443-14.126 5.852l7.07 13.229c3.64-1.945 7.461-3.528 11.41-4.727z" transform="matrix(1.3333333 0 0 -1.3333333 269.80987 299.52213)"/><path clip-path="url(#k)" d="m0 0h51.352l-41.544-30.184 15.868 48.84 15.867-48.84z" transform="matrix(1.3333333 0 0 -1.3333333 265.7656 152.87507)"/><path clip-path="url(#l)" d="m0 0c3.838-3.715 9.007-7.376 12.755-10.703 3.749-3.326 6.62-6.092 8.945-9.871 3.407-5.539-.419-11.813-5.724-8.13-2.87 1.991-4.672 7.366-9.067 11.814-3.256 2.772-5.82 5.677-14.003 7.078-.392.068-.508.898-.198 1.26z" transform="matrix(1.3333333 0 0 -1.3333333 383.83853 288.41933)"/></g><path clip-path="url(#m)" d="m0 0 20.247-11.973 4.402-17.078 23.241 1.761 10.212 11.972-37.855 26.234z" transform="matrix(1.3333333 0 0 -1.3333333 208.48053 263.79293)"/><path clip-path="url(#n)" d="m0 0c-26.035 17.314-42.591 26.663-67.542 40.85-9.801 5.573-25.022 19.582-13.016 43.02.756-15.387 61.569-57.623 87.265-75.987z" fill="#f9d616" transform="matrix(1.3333333 0 0 -1.3333333 272.88414 298.25267)"/><path clip-path="url(#o)" d="m0 0c20.046-18.891 45.291-34.302 67.812-51.335" fill="none" stroke="#000" stroke-linecap="round" stroke-width="1.5" transform="matrix(1.3333333 0 0 -1.3333333 188.11387 223.35933)"/><path clip-path="url(#p)" d="m0 0c.557 0 1.008-.451 1.008-1.008 0-.556-.451-1.008-1.008-1.008s-1.009.452-1.009 1.008c0 .557.452 1.008 1.009 1.008" transform="matrix(1.3333333 0 0 -1.3333333 287.20053 295.05213)"/><path clip-path="url(#q)" d="m0 0c.557 0 1.008-.451 1.008-1.008 0-.556-.451-1.008-1.008-1.008s-1.008.452-1.008 1.008c0 .557.451 1.008 1.008 1.008" transform="matrix(1.3333333 0 0 -1.3333333 297.0924 303.6732)"/><path clip-path="url(#r)" d="m0 0c.557 0 1.008-.452 1.008-1.009 0-.556-.451-1.008-1.008-1.008s-1.008.452-1.008 1.008c0 .557.451 1.009 1.008 1.009" transform="matrix(1.3333333 0 0 -1.3333333 305.78387 312.5052)"/></svg>