<svg height="96" width="96" xmlns="http://www.w3.org/2000/svg"><g transform="scale(.32)"><g><path d="m0 0h300v300h-300z" fill="#00247d"/><path d="m0 0v42.432l107.574 107.568-107.574 107.568v42.432h42.432l107.568-107.574 107.568 107.574h42.432v-42.432l-107.574-107.568 107.574-107.568v-42.432h-42.432l-107.568 107.574-107.568-107.574z" fill="#fff"/><path d="m0 0v28.125l71.875 71.875h28.125zm271.875 0-71.875 71.875v28.125l100-100zm-171.875 200-100 100h28.125l71.875-71.875zm100 0 100 100v-28.125l-71.875-71.875z" fill="#cf142b" stroke-linecap="round" stroke-linejoin="round" stroke-width="1.5625"/><path d="m150 0v300m-150-150h300" stroke="#fff" stroke-width="100"/><path d="m150 0v300m-150-150h300" stroke="#cf142b" stroke-width="60"/></g><g><path d="m0 0h300v300h-300z" fill="#00247d"/><path d="m0 0v37.5l112.5 112.5-112.5 112.5v37.5h37.5l112.5-112.5 112.5 112.5h37.5v-37.5l-112.5-112.5 112.5-112.5v-37.5h-37.5l-112.5 112.5-112.5-112.5z" fill="#fff"/><path d="m0 0v25l75 75h25zm275 0-75 75v25l100-100zm-175 200-100 100h25l75-75zm100 0 100 100v-25l-75-75z" fill="#cf142b" stroke-linecap="round" stroke-linejoin="round" stroke-width="1.5625"/><path d="m150 0v300m-150-150h300" stroke="#fff" stroke-width="100"/><path d="m150 0v300m-150-150h300" stroke="#cf142b" stroke-width="62.5"/></g></g></svg>