<svg height="96" viewBox="0 0 96 96" width="96" xmlns="http://www.w3.org/2000/svg" xmlns:xlink="http://www.w3.org/1999/xlink"><path d="m0 0h96v96h-96z" fill="#fff" stroke-width=".905095"/><path d="m0 0h96v32h-96z" fill="#f62" stroke-width=".337309"/><path d="m0 64h96v32h-96z" fill="#063" stroke-width=".522558"/><g transform="matrix(.64 0 0 .64 48 48)"><circle fill="#008" r="20"/><circle fill="#fff" r="17.5"/><circle fill="#008" r="3.5"/><g id="a"><g id="b"><g id="c"><g id="d" fill="#008"><circle r=".875" transform="matrix(.99144486 .13052619 -.13052619 .99144486 17.350389 2.284215)"/><path d="m0 17.5.6-10.5-.6-5-.6 5z" fill="#008"/></g><use transform="matrix(.96592583 .25881905 -.25881905 .96592583 0 0)" xlink:href="#d"/></g><use transform="matrix(.8660254 .5 -.5 .8660254 0 0)" xlink:href="#c"/></g><use transform="matrix(.5 .8660254 -.8660254 .5 0 0)" xlink:href="#b"/></g><use transform="matrix(-.5 .8660254 -.8660254 -.5 0 0)" xlink:href="#a"/><use transform="matrix(-.5 -.8660254 .8660254 -.5 0 0)" xlink:href="#a"/></g></svg>