<?xml version="1.0" encoding="UTF-8" standalone="no"?>
<!-- Created with Inkscape (http://www.inkscape.org/) -->

<svg
   width="96"
   height="96"
   viewBox="0 0 96 96"
   version="1.1"
   id="svg5"
   inkscape:version="1.2.2 (732a01da63, 2022-12-09)"
   sodipodi:docname="my.svg"
   xml:space="preserve"
   inkscape:export-filename="my.png"
   inkscape:export-xdpi="96"
   inkscape:export-ydpi="96"
   xmlns:inkscape="http://www.inkscape.org/namespaces/inkscape"
   xmlns:sodipodi="http://sodipodi.sourceforge.net/DTD/sodipodi-0.dtd"
   xmlns:xlink="http://www.w3.org/1999/xlink"
   xmlns="http://www.w3.org/2000/svg"
   xmlns:svg="http://www.w3.org/2000/svg"><sodipodi:namedview
     id="namedview7"
     pagecolor="#505050"
     bordercolor="#eeeeee"
     borderopacity="1"
     inkscape:showpageshadow="0"
     inkscape:pageopacity="0"
     inkscape:pagecheckerboard="0"
     inkscape:deskcolor="#505050"
     inkscape:document-units="px"
     showgrid="false"
     inkscape:zoom="4.0000001"
     inkscape:cx="-7.2499998"
     inkscape:cy="27.749999"
     inkscape:window-width="2560"
     inkscape:window-height="1377"
     inkscape:window-x="1912"
     inkscape:window-y="-8"
     inkscape:window-maximized="1"
     inkscape:current-layer="g5317"><inkscape:grid
       type="xygrid"
       id="grid2501"
       empspacing="12" /></sodipodi:namedview><defs
     id="defs2"><inkscape:path-effect
       effect="copy_rotate"
       starting_point="112.7,12.7"
       origin="12.7,12.7"
       id="path-effect20155"
       is_visible="true"
       lpeversion="1.2"
       lpesatellites=""
       method="normal"
       num_copies="12"
       starting_angle="0"
       rotation_angle="30"
       gap="-0.01"
       copies_to_360="true"
       mirror_copies="false"
       split_items="false"
       link_styles="false" /></defs><g
     inkscape:label="Layer 1"
     inkscape:groupmode="layer"
     id="layer1"
     style="display:none"><g
       id="g2298"
       transform="matrix(0.65969936,0,0,0.65969936,103.55961,32.880772)"><g
         id="g1192"
         transform="matrix(0.13229167,0,0,0.26458333,-156.98001,-49.842055)"><path
           fill="#ffffff"
           d="M 0,0 H 1100 V 550 H 0 Z"
           id="path1157" /><path
           id="a"
           fill="#cc0001"
           d="m 0,500 h 1100 v 50 H 0 Z" /><use
           xlink:href="#a"
           transform="translate(0,-100)"
           fill="#cc0001"
           id="use1160" /><use
           xlink:href="#a"
           transform="translate(0,-200)"
           fill="#cc0001"
           id="use1162" /><use
           xlink:href="#a"
           transform="translate(0,-300)"
           fill="#cc0001"
           id="use1164" /><use
           xlink:href="#a"
           transform="translate(0,-400)"
           fill="#cc0001"
           id="use1166" /><use
           xlink:href="#a"
           transform="translate(0,-500)"
           fill="#cc0001"
           id="use1168" /><path
           fill="#010066"
           d="M 0,0 H 550 V 350 H 0 Z"
           id="path1170"
           style="fill:#110066;fill-opacity:1" /><g
           id="g3136"
           style="display:none"><path
             fill="#ffcc00"
             d="m 314.043,206.28 -54.15,8.958 42.232,-35.055 -50.396,-21.738 54.478,-6.66 -30.644,-45.533 49.43,23.853 -1.16,-54.872 28.688,46.79 28.69,-46.79 -1.164,54.872 49.43,-23.85 -30.643,45.53 54.48,6.66 -50.397,21.738 42.232,35.055 -54.15,-8.96 16.575,52.322 -40.71,-36.81 -14.343,52.978 -14.345,-52.98 -40.706,36.812 z"
             id="path1172" /><path
             d="m 137.003,175.11 c -0.704,-35.63 15.493,-72.055 45.44,-92.264 27.337,-19.11 62.362,-24.368 94.92,-19.79 -37.138,-19.22 -83.946,-17.522 -119.394,4.753 -41.928,24.937 -67.54,75.505 -60.078,124.107 7.223,55.392 55.328,102.177 110.94,107.696 23.45,2.618 47.48,-2.153 68.533,-12.67 -39.75,5.872 -84,-4.1 -111.873,-34.526 -19.388,-20.668 -28.7,-49.25 -28.49,-77.307 z"
             fill="#ffcc00"
             id="path1174" /></g></g></g></g><g
     inkscape:groupmode="layer"
     id="layer2"
     inkscape:label="Layer 2"><g
       id="g5317"
       transform="matrix(0.65969936,0,0,0.65969936,103.55961,32.880772)"><g
         id="g6945"
         style="display:none"><rect
           style="display:none;fill:#ffffff;fill-opacity:1;stroke-width:16;stroke-linecap:round;stroke-linejoin:round"
           id="rect6829"
           width="96"
           height="96"
           x="0"
           y="0"
           transform="matrix(1.515842,0,0,1.515842,-156.98001,-49.842055)" /><g
           id="g6940"><rect
             style="fill:#cc0022;fill-opacity:1;stroke-width:24.2535;stroke-linecap:round;stroke-linejoin:round"
             id="rect6936"
             width="145.52083"
             height="13.642578"
             x="-156.98001"
             y="-49.842056" /><rect
             style="fill:#cc0022;fill-opacity:1;stroke-width:24.2535;stroke-linecap:round;stroke-linejoin:round"
             id="rect6947"
             width="145.52083"
             height="13.642578"
             x="-156.98001"
             y="-24.072742" /><rect
             style="fill:#cc0022;fill-opacity:1;stroke-width:24.2535;stroke-linecap:round;stroke-linejoin:round"
             id="rect6949"
             width="145.52083"
             height="13.642578"
             x="-156.98001"
             y="3.2124138" /><rect
             style="fill:#cc0022;fill-opacity:1;stroke-width:24.2535;stroke-linecap:round;stroke-linejoin:round"
             id="rect6951"
             width="145.52083"
             height="13.642578"
             x="-156.98001"
             y="30.49757" /><rect
             style="fill:#cc0022;fill-opacity:1;stroke-width:24.2535;stroke-linecap:round;stroke-linejoin:round"
             id="rect6955"
             width="145.52083"
             height="13.642578"
             x="-156.98001"
             y="56.266884" /><rect
             style="fill:#cc0022;fill-opacity:1;stroke-width:24.2535;stroke-linecap:round;stroke-linejoin:round"
             id="rect6959"
             width="145.52083"
             height="13.642578"
             x="-156.98001"
             y="82.036201" /><g
             id="g7035"><rect
               style="fill:#cc0022;fill-opacity:1;stroke-width:16;stroke-linecap:round;stroke-linejoin:round"
               id="rect7015"
               width="12"
               height="8"
               x="96"
               y="79"
               transform="matrix(1.515842,0,0,1.515842,-156.98001,-49.842055)" /><rect
               style="fill:#cc0022;fill-opacity:1;stroke-width:16;stroke-linecap:round;stroke-linejoin:round"
               id="rect7017"
               width="12"
               height="8"
               x="96"
               y="9"
               transform="matrix(1.515842,0,0,1.515842,-156.98001,-49.842055)" /><rect
               style="fill:#cc0022;fill-opacity:1;stroke-width:16;stroke-linecap:round;stroke-linejoin:round"
               id="rect7019"
               width="12"
               height="8"
               x="96"
               y="27"
               transform="matrix(1.515842,0,0,1.515842,-156.98001,-49.842055)" /><rect
               style="fill:#cc0022;fill-opacity:1;stroke-width:16;stroke-linecap:round;stroke-linejoin:round"
               id="rect7021"
               width="12.000003"
               height="9"
               x="96"
               y="44"
               transform="matrix(1.515842,0,0,1.515842,-156.98001,-49.842055)" /><rect
               style="fill:#cc0022;fill-opacity:1;stroke-width:16;stroke-linecap:round;stroke-linejoin:round"
               id="rect7023"
               width="12"
               height="8"
               x="96"
               y="62"
               transform="matrix(1.515842,0,0,1.515842,-156.98001,-49.842055)" /></g></g></g><g
         id="g7106"
         style="display:inline"><rect
           style="display:inline;fill:#ffffff;fill-opacity:1;stroke-width:16;stroke-linecap:round;stroke-linejoin:round"
           id="rect7078"
           width="96"
           height="96"
           x="0"
           y="0"
           transform="matrix(1.515842,0,0,1.515842,-156.98001,-49.842055)" /><g
           id="g7104"><rect
             style="fill:#cc0022;fill-opacity:1;stroke-width:24.2535;stroke-linecap:round;stroke-linejoin:round"
             id="rect7080"
             width="145.52084"
             height="12.126737"
             x="-156.98001"
             y="-49.842056" /><g
             id="g7102" /><rect
             style="fill:#cc0022;fill-opacity:1;stroke-width:24.2535;stroke-linecap:round;stroke-linejoin:round"
             id="rect7123"
             width="145.52084"
             height="12.126737"
             x="-156.98001"
             y="-24.072742" /><rect
             style="fill:#cc0022;fill-opacity:1;stroke-width:24.2535;stroke-linecap:round;stroke-linejoin:round"
             id="rect7129"
             width="145.52084"
             height="12.126737"
             x="-156.98001"
             y="1.6965716" /><rect
             style="fill:#cc0022;fill-opacity:1;stroke-width:24.2535;stroke-linecap:round;stroke-linejoin:round"
             id="rect7133"
             width="145.52084"
             height="12.126737"
             x="-156.98001"
             y="28.981728" /><rect
             style="fill:#cc0022;fill-opacity:1;stroke-width:24.2535;stroke-linecap:round;stroke-linejoin:round"
             id="rect7137"
             width="145.52084"
             height="13.64258"
             x="-156.98001"
             y="54.751041" /><rect
             style="fill:#cc0022;fill-opacity:1;stroke-width:24.2535;stroke-linecap:round;stroke-linejoin:round"
             id="rect7141"
             width="145.52084"
             height="13.642573"
             x="-156.98001"
             y="82.036201" /></g></g><rect
         style="display:inline;fill:#110066;fill-opacity:1;stroke-width:24.2535;stroke-linecap:round;stroke-linejoin:round"
         id="rect5153"
         width="90.950523"
         height="90.950523"
         x="-156.98001"
         y="-49.842056" /><g
         id="g3196"
         transform="matrix(5.7291668,0,0,5.7291668,-163.04338,-49.842055)"><circle
           style="fill:#ffcc00;fill-opacity:1;stroke-width:24.2535;stroke-linecap:round;stroke-linejoin:round"
           id="path5070"
           cx="-126.66317"
           cy="-1.335111"
           r="24.253471"
           transform="matrix(0.17454545,0,0,0.17454545,30.575146,8.6997039)" /><circle
           style="fill:#110066;fill-opacity:1;stroke-width:24.2535;stroke-linecap:round;stroke-linejoin:round"
           id="path5072"
           cx="-117.56812"
           cy="-1.335111"
           r="21.221788"
           transform="matrix(0.17454545,0,0,0.17454545,30.575146,8.6997039)" /><path
           sodipodi:type="star"
           style="fill:#ffcc00;fill-opacity:1;stroke-width:4.23333;stroke-linecap:round;stroke-linejoin:round"
           id="path5099"
           inkscape:flatsided="false"
           sodipodi:sides="11"
           sodipodi:cx="32"
           sodipodi:cy="32"
           sodipodi:r1="10"
           sodipodi:r2="5"
           sodipodi:arg1="-1.5707964"
           sodipodi:arg2="-1.2851971"
           inkscape:rounded="0"
           inkscape:randomized="0"
           d="m 31.999999,22 1.408663,5.202535 3.997746,-3.615071 -1.62766,5.138232 5.317572,-0.879847 -4.147213,3.442576 4.949108,2.134723 -5.350055,0.653927 3.009336,4.471532 -4.854291,-2.34234 0.114121,5.388663 L 32.000001,37 l -2.817326,4.59493 0.114121,-5.388662 -4.854291,2.34234 3.009335,-4.471532 -5.350054,-0.653927 4.949107,-2.134723 -4.147213,-3.442575 5.317572,0.879846 -1.627661,-5.138232 3.997746,3.61507 z"
           transform="matrix(0.26458333,0,0,0.26458333,3.1749998,-5.699527e-8)"
           inkscape:transform-center-y="-0.26329513" /></g></g></g></svg>
