<svg height="96" viewBox="0 0 25.399999 25.4" width="96" xmlns="http://www.w3.org/2000/svg"><g stroke-width="1.08333" transform="matrix(1.5000001 0 0 .92307696 0 .000001)"><g stroke-width=".999998" transform="matrix(8.0000001 0 0 7.9999944 0 -118.53325)"><path d="m0 14.816667h3.439583v3.439583h-3.439583z" fill="#fff" transform="scale(.61538461 .99999999)"/><g fill="#bb133e" stroke-linecap="square" stroke-width="2.11667"><path d="m0 14.816667h2.1166666v.264583h-2.1166666z"/><path d="m0 15.345834h2.1166666v.264583h-2.1166666z"/><path d="m0 15.875001h2.1166666v.264583h-2.1166666z"/><path d="m0 16.404168h2.1166666v.264583h-2.1166666z"/><path d="m0 16.933335h2.1166666v.264583h-2.1166666z"/><path d="m0 17.462502h2.1166666v.264583h-2.1166666z"/><path d="m0 17.991669h2.1166666v.264583h-2.1166666z"/></g></g><g stroke-width=".847665" transform="scale(1.1666666 1.399997)"><path d="m.000001-.000001h7.815384v10.583337h-7.815384z" fill="#002664"/><g fill="#fff" stroke-width=".847665" transform="matrix(.10549451 0 0 .14285744 -4.465934 -4.535722)"><path d="m48.506947 36.194994.8709 1.764636 1.947391.282973-1.409146 1.373578.332654 1.939523-1.7418-.915719-1.7418.915718.332655-1.939523-1.409146-1.373577 1.947392-.282973z"/><path d="m60.854172 36.195021.8709 1.764636 1.947391.282973-1.409145 1.373577.332653 1.939523-1.741799-.915718-1.741801.915718.332655-1.939523-1.409146-1.373578 1.947392-.282972z"/><path d="m73.201394 36.19504.870899 1.764636 1.947392.282973-1.409146 1.373578.332654 1.939522-1.7418-.915718-1.7418.915718.332654-1.939523-1.409145-1.373578 1.947391-.282972z"/><path d="m85.548615 36.195078.8709 1.764636 1.947391.282973-1.409146 1.373578.332654 1.939523-1.7418-.915719-1.7418.915718.332655-1.939523-1.409146-1.373578 1.947392-.282972z"/><path d="m97.895829 36.195097.870899 1.764636 1.947392.282973-1.409146 1.373578.332654 1.939523-1.7418-.915719-1.7418.915718.332654-1.939523-1.409145-1.373577 1.947391-.282973z"/><path d="m110.24305 36.195128.8709 1.764636 1.94739.282973-1.40914 1.373577.33265 1.939523-1.7418-.915719-1.7418.915719.33265-1.939523-1.40914-1.373578 1.94739-.282972z"/><path d="m54.680561 43.603312.8709 1.764636 1.947392.282973-1.409147 1.373577.332655 1.939523-1.7418-.915719-1.7418.915719.332655-1.939523-1.409146-1.373578 1.947391-.282972z"/><path d="m67.027778 43.603337.87089 1.764617 1.947371.282968-1.40913 1.373563.332651 1.939501-1.741781-.915708-1.741781.915709.332651-1.939501-1.409131-1.373562 1.94737-.28297z"/><path d="m79.374999 43.603367.870891 1.764617 1.94737.282968-1.40913 1.373563.332652 1.939502-1.741782-.915708-1.74178.915709.33265-1.939502-1.409131-1.373561 1.94737-.28297z"/><path d="m91.722228 43.60339.870891 1.764617 1.94737.282968-1.40913 1.373563.332652 1.939502-1.741781-.915709-1.741781.91571.33265-1.939502-1.409131-1.373562 1.94737-.282969z"/><path d="m104.06945 43.603421.87089 1.764617 1.94737.282968-1.40913 1.373563.33265 1.939501-1.74178-.915708-1.74178.915709.33265-1.939501-1.40913-1.373562 1.94737-.28297z"/><path d="m48.506945 51.011631.870891 1.764617 1.947371.282969-1.409131 1.373563.332652 1.939501-1.741781-.915708-1.74178.915709.33265-1.939502-1.409131-1.373561 1.94737-.28297z"/><path d="m60.854171 51.011653.870884 1.764604 1.947357.282966-1.40912 1.373553.332649 1.939488-1.741769-.915702-1.741768.915703.332648-1.939488-1.409121-1.373552 1.947356-.282968z"/><path d="m73.201393 51.011683.870884 1.764605 1.947357.282967-1.409121 1.373552.332648 1.939488-1.741768-.915702-1.741768.915702.332648-1.939488-1.40912-1.373552 1.947356-.282967z"/><path d="m85.548614 51.011709.870882 1.7646 1.947352.282966-1.409117 1.37355.332648 1.939483-1.741764-.9157-1.741764.915701.332647-1.939483-1.409118-1.373549 1.947352-.282967z"/><path d="m97.895829 51.011736.870899 1.764637 1.947392.282972-1.409146 1.373578.332654 1.939523-1.7418-.915719-1.7418.915718.332655-1.939523-1.409146-1.373577 1.947392-.282972z"/><path d="m110.24305 51.01176.87088 1.764604 1.94736.282966-1.40912 1.373553.33265 1.939488-1.74177-.915702-1.74177.915703.33265-1.939488-1.40912-1.373552 1.94736-.282968z"/><path d="m54.68056 58.419949.870891 1.764617 1.94737.282968-1.40913 1.373563.332652 1.939502-1.741781-.915709-1.741781.91571.33265-1.939502-1.409131-1.373562 1.94737-.28297z"/><path d="m67.027777 58.419975.870906 1.764646 1.947403.282973-1.409153 1.373587.332657 1.939534-1.74181-.915723-1.74181.915725.332655-1.939534-1.409155-1.373585 1.947403-.282975z"/><path d="m79.374999 58.419998.870908 1.764651 1.947408.282974-1.409158 1.37359.332658 1.939539-1.741814-.915726-1.741815.915727.332657-1.939539-1.409159-1.373589 1.947409-.282975z"/><path d="m91.722227 58.420029.870906 1.764646 1.947404.282973-1.409154 1.373586.332658 1.939534-1.741811-.915723-1.74181.915726.332656-1.939535-1.409156-1.373585 1.947403-.282975z"/><path d="m104.06945 58.420052.87089 1.764617 1.94737.282968-1.40913 1.373563.33265 1.939502-1.74178-.915709-1.74178.91571.33265-1.939502-1.40913-1.373562 1.94737-.28297z"/><path d="m48.506947 65.828261.870899 1.764636 1.947392.282973-1.409146 1.373577.332654 1.939523-1.7418-.915719-1.7418.915719.332655-1.939523-1.409146-1.373578 1.947392-.282972z"/><path d="m60.854171 65.828295.870899 1.764634 1.94739.282971-1.409144 1.373576.332655 1.939521-1.741799-.915717-1.741797.915718.332653-1.939521-1.409145-1.373575 1.94739-.282973z"/><path d="m73.201393 65.828315.870884 1.764604 1.947357.282967-1.409121 1.373553.332648 1.939487-1.741768-.915702-1.741768.915702.332648-1.939488-1.40912-1.373552 1.947356-.282967z"/><path d="m85.548614 65.828341.870901 1.764638 1.947394.282972-1.409147 1.37358.332655 1.939525-1.741802-.915719-1.741802.91572.332655-1.939525-1.409149-1.373579 1.947394-.282973z"/><path d="m97.895829 65.828367.870899 1.764637 1.947392.282973-1.409146 1.373577.332654 1.939523-1.7418-.915719-1.7418.915718.332655-1.939522-1.409146-1.373578 1.947392-.282972z"/><path d="m110.24305 65.82839.8709 1.764637 1.94739.282972-1.40915 1.373578.33266 1.939523-1.7418-.915719-1.7418.915718.33265-1.939523-1.40914-1.373577 1.94739-.282972z"/><path d="m54.68056 73.236573.870893 1.764621 1.947375.28297-1.409134 1.373566.332653 1.939506-1.741785-.915711-1.741785.915712.332651-1.939507-1.409134-1.373565 1.947375-.28297z"/><path d="m67.027778 73.236612.870892 1.764621 1.947376.282969-1.409134 1.373566.332652 1.939506-1.741785-.915711-1.741785.915712.332652-1.939506-1.409135-1.373566 1.947375-.28297z"/><path d="m79.374999 73.236622.870907 1.764651 1.947409.282974-1.409158 1.373589.332658 1.93954-1.741814-.915727-1.741815.915728.332657-1.93954-1.409159-1.373588 1.947409-.282975z"/><path d="m91.722228 73.236664.870891 1.764617 1.94737.282968-1.40913 1.373563.332652 1.939502-1.741781-.915709-1.741781.91571.33265-1.939502-1.409131-1.373562 1.947371-.282969z"/><path d="m104.06945 73.236683.8709 1.764647 1.94741.282973-1.40916 1.373586.33266 1.939534-1.74181-.915724-1.74181.915725.33266-1.939534-1.40916-1.373585 1.94741-.282975z"/><path d="m48.506947 80.644903.870899 1.764637 1.947392.282972-1.409146 1.373578.332654 1.939523-1.7418-.915719-1.7418.915718.332655-1.939522-1.409146-1.373578 1.947392-.282972z"/><path d="m60.854171 80.644926.870882 1.7646 1.947352.282966-1.409117 1.37355.332649 1.939483-1.741765-.9157-1.741764.915701.332647-1.939483-1.409117-1.373549 1.947352-.282967z"/><path d="m73.201393 80.644957.870884 1.764605 1.947357.282967-1.409121 1.373552.332648 1.939488-1.741768-.915702-1.741768.915702.332648-1.939488-1.40912-1.373552 1.947356-.282967z"/><path d="m85.548615 80.64498.870899 1.764636 1.947392.282973-1.409146 1.373577.332654 1.939523-1.7418-.915719-1.7418.915719.332655-1.939523-1.409146-1.373578 1.947392-.282972z"/><path d="m97.895829 80.645003.870899 1.764636 1.947392.282973-1.409146 1.373577.332654 1.939523-1.7418-.915719-1.7418.915719.332655-1.939523-1.409146-1.373578 1.947392-.282972z"/><path d="m110.24305 80.645033.8709 1.764637 1.94739.282972-1.40915 1.373578.33266 1.939523-1.7418-.91572-1.7418.915719.33265-1.939523-1.40914-1.373578 1.94739-.282971z"/><path d="m54.68056 88.053219.870908 1.764651 1.947408.282974-1.409158 1.373589.332659 1.939539-1.741815-.915726-1.741815.915728.332657-1.93954-1.409158-1.373588 1.947408-.282975z"/><path d="m67.027778 88.053239.870892 1.764621 1.947376.282969-1.409134 1.373566.332652 1.939506-1.741785-.91571-1.741785.915711.332652-1.939506-1.409135-1.373565 1.947375-.28297z"/><path d="m79.374999 88.05327.870893 1.764621 1.947375.282968-1.409134 1.373567.332653 1.939506-1.741786-.915711-1.741784.915712.332651-1.939506-1.409134-1.373565 1.947375-.282971z"/><path d="m91.722228 88.053299.870891 1.764617 1.94737.282969-1.40913 1.373562.332652 1.939502-1.741781-.915708-1.741781.915709.33265-1.939502-1.409131-1.373561 1.947371-.28297z"/><path d="m104.06945 88.053318.8709 1.764647 1.94741.282973-1.40916 1.373586.33266 1.939534-1.74181-.915724-1.74181.915725.33266-1.939534-1.40916-1.373585 1.94741-.282975z"/><path d="m48.506945 95.461534.870898 1.76463 1.947385.28297-1.409141 1.373573.332654 1.939513-1.741794-.915712-1.741793.915712.332652-1.939512-1.409141-1.373572 1.947385-.282972z"/><path d="m60.854172 95.461569.8709 1.764637 1.947391.282972-1.409146 1.373577.332654 1.939525-1.741799-.915721-1.741801.915721.332655-1.939525-1.409146-1.373578 1.947392-.282971z"/><path d="m73.201394 95.461592.870899 1.764637 1.947392.282972-1.409147 1.373577.332655 1.939522-1.7418-.915718-1.7418.915718.332655-1.939522-1.409146-1.373578 1.947392-.282972z"/><path d="m85.548614 95.461615.870889 1.764614 1.947366.282968-1.409127 1.37356.332651 1.939493-1.741778-.915702-1.741777.915712.33265-1.939503-1.409129-1.373559 1.947367-.282969z"/><path d="m97.895829 95.461638.870899 1.764636 1.947392.282973-1.409146 1.373577.332654 1.939526-1.7418-.915722-1.7418.915722.332655-1.939526-1.409146-1.373578 1.947392-.282972z"/><path d="m110.24305 95.461662.87089 1.764617 1.94737.282969-1.40913 1.373563.33265 1.939499-1.74178-.915705-1.74178.915705.33265-1.939498-1.40913-1.373563 1.94737-.282969z"/></g></g></g></svg>