<svg height="400" viewBox="0 0 600 400" width="600" xmlns="http://www.w3.org/2000/svg" xmlns:xlink="http://www.w3.org/1999/xlink"><clipPath id="a"><path d="m0 0h450v300h-450z" transform="translate(-284.00001 -190)"/></clipPath><clipPath id="b"><path d="m0 0h450v300h-450z" transform="translate(-299.00001 -190)"/></clipPath><clipPath id="c"><path d="m0 0h450v300h-450z" transform="translate(-273.26271 -125.7793)"/></clipPath><g transform="matrix(1.3333333 0 0 -1.3333333 0 400)"><path d="m0 150h450v149.999h-450z"/><path d="m0 0h450v150h-450z" fill="#007a3d"/><path d="m0 100h450v100h-450z" fill="#fff"/></g><path d="m0 0v-300l185 150.001z" fill="#c4111b" transform="matrix(1.3333333 0 0 -1.3333333 0 .0004)"/><path clip-path="url(#a)" d="m0 0c22.092 0 40-17.909 40-40 0-22.092-17.908-40-40-40-22.091 0-40 17.908-40 40 0 22.091 17.909 40 40 40" fill="#c4111b" transform="matrix(1.3333333 0 0 -1.3333333 378.66667 146.66667)"/><path clip-path="url(#b)" d="m0 0c22.092 0 40-17.909 40-40 0-22.092-17.908-40-40-40-22.091 0-40 17.908-40 40 0 22.091 17.909 40 40 40" fill="#fff" transform="matrix(1.3333333 0 0 -1.3333333 398.66667 146.66667)"/><path clip-path="url(#c)" d="m0 0 17.057 12.193 16.922-12.377-6.325 19.99 17.001 12.269-20.966.161-6.416 19.961-6.631-19.89-20.967.067 16.867-12.454z" fill="#c4111b" transform="matrix(1.3333333 0 0 -1.3333333 364.35027 232.29427)"/></svg>