<?xml version="1.0" encoding="UTF-8" standalone="no"?>
<svg
   height="650"
   viewBox="0 0 975 650"
   width="975"
   version="1.1"
   id="svg124"
   sodipodi:docname="rect.svg"
   inkscape:version="1.2.2 (732a01da63, 2022-12-09)"
   xmlns:inkscape="http://www.inkscape.org/namespaces/inkscape"
   xmlns:sodipodi="http://sodipodi.sourceforge.net/DTD/sodipodi-0.dtd"
   xmlns="http://www.w3.org/2000/svg"
   xmlns:svg="http://www.w3.org/2000/svg">
  <defs
     id="defs128" />
  <sodipodi:namedview
     id="namedview126"
     pagecolor="#505050"
     bordercolor="#eeeeee"
     borderopacity="1"
     inkscape:showpageshadow="0"
     inkscape:pageopacity="0"
     inkscape:pagecheckerboard="0"
     inkscape:deskcolor="#505050"
     showgrid="false"
     inkscape:zoom="1.2625641"
     inkscape:cx="348.49716"
     inkscape:cy="324.73599"
     inkscape:window-width="2560"
     inkscape:window-height="1377"
     inkscape:window-x="1912"
     inkscape:window-y="-8"
     inkscape:window-maximized="1"
     inkscape:current-layer="svg124" />
  <path
     d="m0 650h975v-649.99998375h-975z"
     fill="#fff"
     stroke-width="1.33393"
     id="path2" />
  <g
     fill="#b22234"
     transform="matrix(1.3345415 0 0 -1.3333333 0 650.00001)"
     id="g18"
     style="fill:#b31942;fill-opacity:1">
    <path
       d="m0 450h730.588v37.5h-730.588z"
       id="path4"
       style="fill:#b31942;fill-opacity:1" />
    <path
       d="m0 375h730.588v37.499h-730.588z"
       id="path6"
       style="fill:#b31942;fill-opacity:1" />
    <path
       d="m0 300h730.588v37.5h-730.588z"
       id="path8"
       style="fill:#b31942;fill-opacity:1" />
    <path
       d="m0 225h730.588v37.5h-730.588z"
       id="path10"
       style="fill:#b31942;fill-opacity:1" />
    <path
       d="m0 150h730.588v37.499h-730.588z"
       id="path12"
       style="fill:#b31942;fill-opacity:1" />
    <path
       d="m0 75h730.588v37.5h-730.588z"
       id="path14"
       style="fill:#b31942;fill-opacity:1" />
    <path
       d="m0 0h730.588v37.5h-730.588z"
       id="path16"
       style="fill:#b31942;fill-opacity:1" />
  </g>
  <path
     d="m0 350.00001h487.49999v-349.99999375h-487.49999z"
     fill="#3c3b6e"
     stroke-width="1.33333"
     id="path20"
     style="fill:#0a3161;fill-opacity:1" />
  <g
     fill="#fff"
     id="g122">
    <path
       d="m0 0-3.372-10.375h-10.91l8.828-6.414-3.371-10.375 8.824 6.414 8.824-6.414-3.371 10.375 8.828 6.414h-10.91z"
       transform="matrix(1.3333333 0 0 -1.3333333 39.884133 16.4896)"
       id="path22" />
    <path
       d="m0 0-3.371-10.375h-10.91l8.825-6.412-3.372-10.377 8.826 6.413 8.827-6.413-3.371 10.375 8.828 6.414h-10.911z"
       transform="matrix(1.3333333 0 0 -1.3333333 121.784 16.4896)"
       id="path24" />
    <path
       d="m0 0-3.371-10.375h-10.91l8.825-6.412-3.372-10.377 8.826 6.413 8.826-6.413-3.371 10.375 8.824 6.414h-10.906z"
       transform="matrix(1.3333333 0 0 -1.3333333 203.68493 16.4896)"
       id="path26" />
    <path
       d="m0 0-3.371-10.375h-10.905l8.823-6.414-3.371-10.375 8.826 6.413 8.826-6.413-3.372 10.377 8.825 6.412h-10.91z"
       transform="matrix(1.3333333 0 0 -1.3333333 285.5808 16.4896)"
       id="path28" />
    <path
       d="m0 0-3.371-10.375h-10.91l8.828-6.414-3.371-10.375 8.826 6.413 8.826-6.413-3.371 10.377 8.824 6.412h-10.909z"
       transform="matrix(1.3333333 0 0 -1.3333333 367.48187 16.4896)"
       id="path30" />
    <path
       d="m0 0-3.371-10.375 8.824 6.414 8.824-6.414-3.371 10.375 8.828 6.414h-10.91l-3.371 10.375-3.371-10.375h-10.91z"
       transform="matrix(1.3333333 0 0 -1.3333333 442.112 38.875067)"
       id="path32" />
    <path
       d="m0 0-3.372-10.375h-10.905l8.824-6.41-3.371-10.375 8.826 6.41 8.827-6.41-3.372 10.376 8.824 6.409h-10.909z"
       transform="matrix(1.3333333 0 0 -1.3333333 80.8308 51.593733)"
       id="path34" />
    <path
       d="m0 0-3.372-10.375h-10.909l8.828-6.412-3.371-10.373 8.826 6.41 8.826-6.41-3.371 10.376 8.824 6.409h-10.909z"
       transform="matrix(1.3333333 0 0 -1.3333333 162.73187 51.593733)"
       id="path36" />
    <path
       d="m0 0-3.372-10.375h-10.909l8.828-6.412-3.371-10.373 8.824 6.411 8.824-6.411-3.371 10.373 8.828 6.412h-10.909z"
       transform="matrix(1.3333333 0 0 -1.3333333 244.63293 51.593733)"
       id="path38" />
    <path
       d="m0 0-3.372-10.375h-10.908l8.824-6.409-3.372-10.376 8.826 6.41 8.826-6.41-3.37 10.373 8.827 6.412h-10.909z"
       transform="matrix(1.3333333 0 0 -1.3333333 326.534 51.593733)"
       id="path40" />
    <path
       d="m0 0-3.373-10.375h-10.909l8.824-6.409-3.371-10.376 8.826 6.41 8.826-6.41-3.371 10.375 8.824 6.41h-10.905z"
       transform="matrix(1.3333333 0 0 -1.3333333 408.43627 51.593733)"
       id="path42" />
    <path
       d="m0 0-3.371-10.375h-10.911l8.827-6.411-3.37-10.374 8.824 6.411 8.824-6.411-3.37 10.374 8.827 6.411h-10.91z"
       transform="matrix(1.3333333 0 0 -1.3333333 39.884133 86.6928)"
       id="path44" />
    <path
       d="m0 0-3.371-10.375h-10.91l8.824-6.409-3.371-10.376 8.826 6.41 8.827-6.41-3.371 10.374 8.828 6.411h-10.911z"
       transform="matrix(1.3333333 0 0 -1.3333333 121.784 86.6928)"
       id="path46" />
    <path
       d="m0 0-3.371-10.375h-10.91l8.824-6.409-3.371-10.376 8.826 6.41 8.826-6.41-3.371 10.374 8.824 6.411h-10.906z"
       transform="matrix(1.3333333 0 0 -1.3333333 203.68493 86.6928)"
       id="path48" />
    <path
       d="m0 0-3.371-10.375h-10.905l8.823-6.41-3.371-10.375 8.826 6.41 8.826-6.41-3.371 10.376 8.824 6.409h-10.91z"
       transform="matrix(1.3333333 0 0 -1.3333333 285.5808 86.6928)"
       id="path50" />
    <path
       d="m0 0-3.371-10.375h-10.91l8.827-6.411-3.37-10.374 8.826 6.41 8.826-6.41-3.371 10.376 8.824 6.409h-10.91z"
       transform="matrix(1.3333333 0 0 -1.3333333 367.48187 86.6928)"
       id="path52" />
    <path
       d="m0 0-3.371-10.375h-10.91l8.827-6.411-3.37-10.374 8.824 6.411 8.824-6.411-3.37 10.374 8.827 6.411h-10.91z"
       transform="matrix(1.3333333 0 0 -1.3333333 449.38293 86.6928)"
       id="path54" />
    <path
       d="m0 0-3.371-10.375h-10.906l8.824-6.413-3.371-10.376 8.826 6.413 8.827-6.413-3.372 10.377 8.824 6.412h-10.91z"
       transform="matrix(1.3333333 0 0 -1.3333333 80.8308 121.79173)"
       id="path56" />
    <path
       d="m0 0-3.371-10.375h-10.91l8.828-6.414-3.371-10.375 8.826 6.413 8.826-6.413-3.372 10.377 8.825 6.412h-10.91z"
       transform="matrix(1.3333333 0 0 -1.3333333 162.73187 121.79173)"
       id="path58" />
    <path
       d="m0 0-3.371-10.375h-10.91l8.828-6.414-3.371-10.375 8.824 6.414 8.824-6.414-3.371 10.375 8.828 6.414h-10.91z"
       transform="matrix(1.3333333 0 0 -1.3333333 244.63293 121.79173)"
       id="path60" />
    <path
       d="m0 0-3.371-10.375h-10.909l8.824-6.412-3.372-10.377 8.826 6.413 8.826-6.413-3.371 10.375 8.828 6.414h-10.91z"
       transform="matrix(1.3333333 0 0 -1.3333333 326.534 121.79173)"
       id="path62" />
    <path
       d="m0 0-3.371-10.375h-10.911l8.825-6.411-3.372-10.378 8.826 6.413 8.826-6.413-3.371 10.376 8.824 6.413h-10.906z"
       transform="matrix(1.3333333 0 0 -1.3333333 408.43627 121.79173)"
       id="path64" />
    <path
       d="m0 0-3.371-10.375h-10.911l8.828-6.414-3.371-10.374 8.824 6.413 8.824-6.413-3.371 10.374 8.828 6.414h-10.91z"
       transform="matrix(1.3333333 0 0 -1.3333333 39.884133 156.89067)"
       id="path66" />
    <path
       d="m0 0-3.371-10.375h-10.91l8.825-6.412-3.372-10.376 8.826 6.412 8.827-6.412-3.371 10.374 8.828 6.414h-10.911z"
       transform="matrix(1.3333333 0 0 -1.3333333 121.784 156.89067)"
       id="path68" />
    <path
       d="m0 0-3.371-10.375h-10.91l8.825-6.412-3.372-10.376 8.826 6.413 8.826-6.413-3.371 10.374 8.824 6.414h-10.906z"
       transform="matrix(1.3333333 0 0 -1.3333333 203.68493 156.89067)"
       id="path70" />
    <path
       d="m0 0-3.371-10.375h-10.905l8.823-6.414-3.371-10.374 8.826 6.413 8.826-6.413-3.372 10.376 8.825 6.412h-10.91z"
       transform="matrix(1.3333333 0 0 -1.3333333 285.5808 156.89067)"
       id="path72" />
    <path
       d="m0 0-3.371-10.375h-10.91l8.828-6.414-3.371-10.374 8.826 6.412 8.826-6.412-3.371 10.376 8.824 6.412h-10.91z"
       transform="matrix(1.3333333 0 0 -1.3333333 367.48187 156.89067)"
       id="path74" />
    <path
       d="m0 0-3.371-10.375h-10.91l8.828-6.414-3.371-10.374 8.824 6.413 8.824-6.413-3.371 10.374 8.828 6.414h-10.91z"
       transform="matrix(1.3333333 0 0 -1.3333333 449.38293 156.89067)"
       id="path76" />
    <path
       d="m0 0-3.371-10.375h-10.906l8.824-6.414-3.371-10.375 8.826 6.413 8.827-6.413-3.372 10.377 8.824 6.412h-10.91z"
       transform="matrix(1.3333333 0 0 -1.3333333 80.8308 191.9896)"
       id="path78" />
    <path
       d="m0 0-3.371-10.375h-10.91l8.828-6.415-3.371-10.374 8.826 6.413 8.826-6.413-3.372 10.377 8.825 6.412h-10.91z"
       transform="matrix(1.3333333 0 0 -1.3333333 162.73187 191.9896)"
       id="path80" />
    <path
       d="m0 0-3.371-10.375h-10.91l8.828-6.415-3.371-10.374 8.824 6.414 8.824-6.414-3.371 10.374 8.828 6.415h-10.91z"
       transform="matrix(1.3333333 0 0 -1.3333333 244.63293 191.9896)"
       id="path82" />
    <path
       d="m0 0-3.371-10.375h-10.909l8.824-6.412-3.372-10.377 8.826 6.413 8.826-6.413-3.371 10.374 8.828 6.415h-10.91z"
       transform="matrix(1.3333333 0 0 -1.3333333 326.534 191.9896)"
       id="path84" />
    <path
       d="m0 0-3.372-10.375h-10.91l8.824-6.412-3.371-10.377 8.826 6.413 8.826-6.413-3.371 10.375 8.824 6.414h-10.906z"
       transform="matrix(1.3333333 0 0 -1.3333333 408.43627 191.9896)"
       id="path86" />
    <path
       d="m0 0-3.372-10.375h-10.91l8.827-6.411-3.37-10.374 8.824 6.411 8.824-6.411-3.37 10.374 8.827 6.411h-10.909z"
       transform="matrix(1.3333333 0 0 -1.3333333 39.884133 227.09373)"
       id="path88" />
    <path
       d="m0 0-3.372-10.375h-10.909l8.824-6.409-3.371-10.376 8.826 6.41 8.827-6.41-3.371 10.374 8.828 6.411h-10.91z"
       transform="matrix(1.3333333 0 0 -1.3333333 121.784 227.09373)"
       id="path90" />
    <path
       d="m0 0-3.372-10.375h-10.909l8.824-6.409-3.371-10.376 8.826 6.41 8.826-6.41-3.371 10.374 8.824 6.411h-10.905z"
       transform="matrix(1.3333333 0 0 -1.3333333 203.68493 227.09373)"
       id="path92" />
    <path
       d="m0 0-3.372-10.375h-10.904l8.823-6.411-3.371-10.374 8.826 6.41 8.826-6.41-3.371 10.376 8.824 6.409h-10.909z"
       transform="matrix(1.3333333 0 0 -1.3333333 285.5808 227.09373)"
       id="path94" />
    <path
       d="m0 0-3.372-10.375h-10.909l8.827-6.411-3.37-10.374 8.826 6.41 8.826-6.41-3.371 10.376 8.824 6.409h-10.909z"
       transform="matrix(1.3333333 0 0 -1.3333333 367.48187 227.09373)"
       id="path96" />
    <path
       d="m0 0-3.372-10.375h-10.909l8.827-6.411-3.37-10.374 8.824 6.411 8.824-6.411-3.37 10.374 8.827 6.411h-10.909z"
       transform="matrix(1.3333333 0 0 -1.3333333 449.38293 227.09373)"
       id="path98" />
    <path
       d="m0 0-3.371 10.375-3.371-10.375h-10.906l8.824-6.41-3.371-10.375 8.826 6.41 8.827-6.41-3.372 10.377 8.824 6.408z"
       transform="matrix(1.3333333 0 0 -1.3333333 85.3256 276.02613)"
       id="path100" />
    <path
       d="m0 0-3.371 10.375-3.371-10.375h-10.91l8.828-6.411-3.371-10.374 8.826 6.41 8.826-6.41-3.372 10.376 8.825 6.409z"
       transform="matrix(1.3333333 0 0 -1.3333333 167.22667 276.02613)"
       id="path102" />
    <path
       d="m0 0-3.371 10.375-3.371-10.375h-10.91l8.828-6.411-3.371-10.374 8.824 6.411 8.824-6.411-3.371 10.374 8.828 6.411z"
       transform="matrix(1.3333333 0 0 -1.3333333 249.12773 276.02613)"
       id="path104" />
    <path
       d="m0 0-3.371 10.375-3.371-10.375h-10.909l8.824-6.409-3.372-10.376 8.826 6.41 8.826-6.41-3.37 10.374 8.827 6.411z"
       transform="matrix(1.3333333 0 0 -1.3333333 331.02867 276.02613)"
       id="path106" />
    <path
       d="m0 0-3.37 10.375-3.371-10.375h-10.911l8.824-6.408-3.371-10.377 8.826 6.41 8.826-6.41-3.371 10.375 8.824 6.41z"
       transform="matrix(1.3333333 0 0 -1.3333333 412.92973 276.02613)"
       id="path108" />
    <path
       d="m3.371 4.641-3.37 10.375-3.371-10.375h-10.911l8.828-6.414-3.371-10.375 8.824 6.414 8.824-6.414-3.371 10.375 8.828 6.414z"
       transform="matrix(1.3333333 0 0 -1.3333333 39.882933 317.31253)"
       id="path110" />
    <path
       d="m0 0-3.371 10.375-3.371-10.375h-10.91l8.825-6.412-3.372-10.377 8.826 6.413 8.827-6.413-3.371 10.375 8.828 6.414z"
       transform="matrix(1.3333333 0 0 -1.3333333 126.27867 311.12507)"
       id="path112" />
    <path
       d="m0 0-3.371 10.375-3.371-10.375h-10.91l8.825-6.412-3.372-10.377 8.826 6.413 8.826-6.413-3.371 10.375 8.824 6.414z"
       transform="matrix(1.3333333 0 0 -1.3333333 208.17973 311.12507)"
       id="path114" />
    <path
       d="m0 0-3.371 10.375-3.371-10.375h-10.905l8.824-6.414-3.372-10.375 8.826 6.413 8.826-6.413-3.372 10.377 8.825 6.412z"
       transform="matrix(1.3333333 0 0 -1.3333333 290.0756 311.12507)"
       id="path116" />
    <path
       d="m0 0-3.371 10.375-3.371-10.375h-10.91l8.828-6.414-3.371-10.375 8.826 6.413 8.826-6.413-3.372 10.377 8.825 6.412z"
       transform="matrix(1.3333333 0 0 -1.3333333 371.97667 311.12507)"
       id="path118" />
    <path
       d="m3.371 4.641-3.371 10.375-3.371-10.375h-10.91l8.828-6.414-3.371-10.375 8.824 6.414 8.824-6.414-3.371 10.375 8.828 6.414z"
       transform="matrix(1.3333333 0 0 -1.3333333 449.38293 317.31253)"
       id="path120" />
  </g>
</svg>
