<?xml version="1.0" encoding="UTF-8" standalone="no"?>
<svg
   height="650"
   viewBox="0 0 650 650"
   width="650"
   version="1.1"
   id="svg34"
   sodipodi:docname="square-small.svg"
   inkscape:version="1.2.2 (732a01da63, 2022-12-09)"
   xmlns:inkscape="http://www.inkscape.org/namespaces/inkscape"
   xmlns:sodipodi="http://sodipodi.sourceforge.net/DTD/sodipodi-0.dtd"
   xmlns="http://www.w3.org/2000/svg"
   xmlns:svg="http://www.w3.org/2000/svg">
  <defs
     id="defs34" />
  <sodipodi:namedview
     id="namedview34"
     pagecolor="#ffffff"
     bordercolor="#000000"
     borderopacity="0.25"
     inkscape:showpageshadow="2"
     inkscape:pageopacity="0.0"
     inkscape:pagecheckerboard="0"
     inkscape:deskcolor="#d1d1d1"
     inkscape:current-layer="svg34"
     showgrid="false"
     inkscape:zoom="0.55915829"
     inkscape:cx="-270.04876"
     inkscape:cy="405.96734"
     inkscape:window-width="2560"
     inkscape:window-height="1377"
     inkscape:window-x="1912"
     inkscape:window-y="-8"
     inkscape:window-maximized="1">
    <inkscape:grid
       type="xygrid"
       id="grid814" />
  </sodipodi:namedview>
  <path
     d="m0 650h650v-649.99998375h-650z"
     fill="#fff"
     stroke-width="1.08915"
     id="path1" />
  <g
     fill="#b22234"
     transform="matrix(.88969433 0 0 -1.3333333 0 650.00001)"
     id="g8"
     style="fill:#b31942;fill-opacity:1">
    <path
       d="m0 450h730.588v37.5h-730.588z"
       id="path2"
       style="fill:#b31942;fill-opacity:1" />
    <path
       d="m0 375h730.588v37.499h-730.588z"
       id="path3"
       style="fill:#b31942;fill-opacity:1" />
    <path
       d="m0 300h730.588v37.5h-730.588z"
       id="path4"
       style="fill:#b31942;fill-opacity:1" />
    <path
       d="m0 225h730.588v37.5h-730.588z"
       id="path5"
       style="fill:#b31942;fill-opacity:1" />
    <path
       d="m0 150h730.588v37.499h-730.588z"
       id="path6"
       style="fill:#b31942;fill-opacity:1" />
    <path
       d="m0 75h730.588v37.5h-730.588z"
       id="path7"
       style="fill:#b31942;fill-opacity:1" />
    <path
       d="m0 0h730.588v37.5h-730.588z"
       id="path8"
       style="fill:#b31942;fill-opacity:1" />
  </g>
  <path
     d="m0 350.00001h325v-349.99999375h-325z"
     fill="#3c3b6e"
     stroke-width="1.08866"
     id="path9"
     style="fill:#0a3161;fill-opacity:1" />
  <path
     d="M 67.751267,46.489613 63.255268,60.322946 H 48.708601 l 11.770667,8.552 -4.494666,13.833333 11.765333,-8.552 11.765333,8.552 -4.494668,-13.833333 11.770668,-8.552 H 72.244601 Z"
     id="path10"
     style="fill:#ffffff;stroke-width:1.33333" />
  <path
     d="m 130.91833,46.489613 -4.49467,13.833333 H 111.877 l 11.76666,8.549333 -4.49599,13.836 11.76799,-8.550667 11.76934,8.550667 -4.49467,-13.833333 11.77068,-8.552 H 135.413 Z"
     id="path11"
     style="fill:#ffffff;stroke-width:1.33333" />
  <path
     d="m 194.08141,46.489613 -4.49467,13.833333 h -14.54 l 11.764,8.552 -4.49466,13.833333 11.768,-8.550667 11.768,8.550667 -4.496,-13.836 11.76666,-8.549333 h -14.54666 z"
     id="path13"
     style="fill:#ffffff;stroke-width:1.33333" />
  <path
     d="m 249.97914,68.87508 -4.49467,13.833333 11.76534,-8.552 11.76533,8.552 -4.49467,-13.833333 11.77067,-8.552 h -14.54667 l -4.49466,-13.833333 -4.49467,13.833333 h -14.54667 z"
     id="path14"
     style="fill:#ffffff;stroke-width:1.33333" />
  <path
     d="m 91.440752,101.69302 -4.494666,13.83332 h -14.548 l 11.769333,8.548 -4.493333,13.832 11.765333,-8.548 11.765341,8.548 -4.493341,-13.832 11.769341,-8.548 H 95.934086 Z"
     id="path15"
     style="fill:#ffffff;stroke-width:1.33333" />
  <path
     d="m 162.50287,101.69315 -4.49468,13.83333 h -14.54666 l 11.76533,8.54534 -4.49467,13.83466 11.76801,-8.54666 11.76934,8.54666 -4.49468,-13.832 11.77068,-8.548 h -14.54801 z"
     id="path16"
     style="fill:#ffffff;stroke-width:1.33333" />
  <path
     d="m 233.56099,101.69315 -4.49467,13.83333 h -14.54 l 11.764,8.54667 -4.49466,13.83333 11.768,-8.54666 11.768,8.54666 -4.49467,-13.83466 11.76533,-8.54534 h -14.54666 z"
     id="path18"
     style="fill:#ffffff;stroke-width:1.33333" />
  <path
     d="m 67.751267,156.89108 -4.494666,13.83333 h -14.548 l 11.770667,8.552 -4.494666,13.832 11.765333,-8.55066 11.765333,8.55066 -4.494668,-13.832 11.770668,-8.552 H 72.244601 Z"
     id="path20"
     style="fill:#ffffff;stroke-width:1.33333" />
  <path
     d="m 130.91797,156.89135 -4.49467,13.83333 h -14.54665 l 11.76665,8.54934 -4.496,13.83466 11.768,-8.54933 11.76934,8.54933 -4.49467,-13.832 11.77068,-8.552 h -14.54801 z"
     id="path21"
     style="fill:#ffffff;stroke-width:1.33333" />
  <path
     d="m 194.08736,156.89135 -4.49467,13.83333 h -14.54666 l 11.76666,8.54934 -4.496,13.83466 11.768,-8.55066 11.768,8.55066 -4.49466,-13.832 11.76533,-8.552 h -14.54133 z"
     id="path22"
     style="fill:#ffffff;stroke-width:1.33333" />
  <path
     d="m 257.25007,156.89114 -4.49467,13.83333 h -14.54666 l 11.77066,8.552 -4.49466,13.832 11.76533,-8.55066 11.76533,8.55066 -4.49466,-13.832 11.77066,-8.552 h -14.54666 z"
     id="path24"
     style="fill:#ffffff;stroke-width:1.33333" />
  <path
     d="m 91.440755,212.09314 -4.495999,13.83333 H 72.398089 l 11.769333,8.548 -4.493332,13.832 11.765333,-8.548 11.765337,8.548 -4.493337,-13.832 11.769337,-8.548 H 95.935423 Z"
     id="path25"
     style="fill:#ffffff;stroke-width:1.33333" />
  <path
     d="m 162.50287,212.09355 -4.49601,13.83333 h -14.54533 l 11.76533,8.54534 -4.49467,13.83466 11.76801,-8.54666 11.76934,8.54666 -4.49468,-13.832 11.77068,-8.548 h -14.54668 z"
     id="path26"
     style="fill:#ffffff;stroke-width:1.33333" />
  <path
     d="m 233.56099,212.09355 -4.496,13.83333 h -14.53867 l 11.764,8.548 -4.49466,13.832 11.768,-8.54666 11.768,8.54666 -4.49467,-13.83466 11.76533,-8.54534 h -14.54533 z"
     id="path28"
     style="fill:#ffffff;stroke-width:1.33333" />
  <path
     d="m 72.244735,281.12454 -4.493334,-13.83333 -4.494666,13.83333 h -14.548 l 11.770667,8.552 -4.494667,13.83333 11.765332,-8.552 11.765333,8.552 -4.494666,-13.83333 11.770667,-8.552 z"
     id="path30"
     style="fill:#ffffff;stroke-width:1.33333" />
  <path
     d="m 135.41318,281.12508 -4.49467,-13.83333 -4.49465,13.83333 h -14.54668 l 11.76667,8.54933 -4.49599,13.836 11.76799,-8.55066 11.76933,8.55066 -4.49467,-13.83333 11.77067,-8.552 z"
     id="path31"
     style="fill:#ffffff;stroke-width:1.33333" />
  <path
     d="m 198.57629,281.12508 -4.49467,-13.83333 -4.49466,13.83333 h -14.54 l 11.76533,8.552 -4.496,13.83333 11.768,-8.55066 11.768,8.55066 -4.496,-13.836 11.76667,-8.54933 z"
     id="path33"
     style="fill:#ffffff;stroke-width:1.33333" />
  <path
     d="m 261.74474,281.12454 -4.49467,-13.83333 -4.49467,13.83333 h -14.54666 l 11.77066,8.552 -4.49466,13.83333 11.76533,-8.552 11.76533,8.552 -4.49466,-13.83333 11.77066,-8.552 z"
     id="path34"
     style="fill:#ffffff;stroke-width:1.33333" />
</svg>
