<svg height="888.88934" viewBox="0 0 1333.3333 888.88934" width="1333.3333" xmlns="http://www.w3.org/2000/svg" xmlns:xlink="http://www.w3.org/1999/xlink"><clipPath id="a"><path d="m0 666.667h1000v-666.667h-1000z" transform="translate(-500.00002 -440.45891)"/></clipPath><clipPath id="b"><path d="m0 666.667h1000v-666.667h-1000z" transform="translate(-439.04491 -385.48191)"/></clipPath><clipPath id="c"><path d="m0 666.667h1000v-666.667h-1000z" transform="translate(-889.9297 -500.60541)"/></clipPath><clipPath id="d"><path d="m0 666.667h1000v-666.667h-1000z" transform="translate(-931.62992 -404.15081)"/></clipPath><clipPath id="e"><path d="m0 666.667h1000v-666.667h-1000z" transform="translate(-194.16021 -363.22061)"/></clipPath><clipPath id="f"><path d="m0 666.667h1000v-666.667h-1000z" transform="translate(-239.39011 -218.6303)"/></clipPath><clipPath id="g"><path d="m0 666.667h1000v-666.667h-1000z" transform="translate(-196.6816 -94.159602)"/></clipPath><clipPath id="h"><path d="m0 666.667h1000v-666.667h-1000z" transform="translate(-82.094702 -239.9975)"/></clipPath><clipPath id="i"><path d="m0 666.667h1000v-666.667h-1000z" transform="translate(-302.58741 -278.1938)"/></clipPath><path d="m0 0h1000v666.666h-1000z" fill="#0021ad" transform="matrix(1.3333333 0 0 -1.3333333 0 888.88933)"/><path d="m0 0 1000-585.506v585.506z" fill="#1c8a42" transform="matrix(1.3333333 0 0 -1.3333333 0 .001333)"/><path clip-path="url(#a)" d="m0 0c55.123 0 99.81-44.686 99.81-99.809s-44.687-99.81-99.81-99.81-99.809 44.687-99.809 99.81 44.686 99.809 99.809 99.809" fill="#ffc639" transform="matrix(1.3333333 0 0 -1.3333333 666.66667 301.6108)"/><path clip-path="url(#b)" d="m0 0c6.828-9.367 17.175-25.072 25.496-20.973 6.494-.022 9.846-.479 10.726-4.8 15.315-2.607 41.056 3.854 57.073 24.715 0 0 1.348-.178.88 7.753.089 3.452 4.722 2.762 4.834 1.637.646-1.715.535-2.996 1.403-3.041 1.972.657 4.667 5.079 6.929 7.886.612 1.237.278 2.54.423 4.099 1.192 2.93 4.166 2.294 4.79.758.567-.992.579-1.749 1.135-2.741 3.019-2.016 8.465-.133 8.889-.133.534 2.462 2.116 2.228 2.116 2.228 2.016.445 1.225.267 2.551-.424-1.17-13.266 2.606-13.856 2.294-20.661.134-7.596-2.294-9.757-2.294-12.653.769-3.542 11.973-3.665 8.03-6.661-3.463-1.849.011-5.313-5.201-6.66-15.171-7.697-18.078-14.302-18.078-14.302s-3.809-7.195-4.232-7.195c-2.54-4.802-5.759-2.184-7.552-4.522-.892-2.942-1.894-9.457-.111-12.844.89-4.655-.112-7.195-1.226-11.851-1.002-9.712-4.856-11.182-5.302-14.591-1.782-3.642.379-20.751-1.314-20.751-11.294-.222-19.948 2.162-24.415 3.052 4.354 18.769 2.662 35.253 2.662 36.946-1.114 13.422-20.105 10.158-23.012 11.94-2.406.513-3.921 2.473-4.767 3.319-2.685.289-3.687.903-6.372 1.181-1.336-.669-.534-1.359-3.519-2.283-7.574-.914-10.916 6.604-10.916 6.604.368 2.529-17.03-.511-26.487 1.682-3.876-2.16-5.569-8.554-8.744-9.312-.088-1.982-5.223 1.627-6.259 3.577-.212 5.668 4.945 8.175 4.945 8.175 4.099 2.885 6.527 3.352 8.499 5.346.991 4.935.49 8.588 2.595 12.297 1.782 2.829 4.411 1.504 6.193 2.774 1.916 1.269 2.729 9.578.958 11.85 0 0-7.663 6.917-8.087 7.341-2.495 7.15 2.919 11.762 4.467 11.238z" fill="#1c8a42" transform="matrix(1.3333333 0 0 -1.3333333 585.3932 374.91347)"/><path clip-path="url(#c)" d="m0 0c-4.092 16.194-40.721 51.071-68.247 73.265-6.571 4.478-10.855 1.811-9.998-4.573 3.427-5.716 5.997-12 9.424-17.716.958-3.81 2.761-6.477 3.719-10.286 0 0 .283-6.573.857-7.144 8.567-9.433 9.717-17.432 9.717-17.432 4.948-9.526 9.333-16.478 18.002-24.29 9.715-6.098 2.57-25.047 2.852-35.147 0-6.38-4.566-5.624-8.567-4.858-31.529 28.958-62.775 29.049-90.302 37.435-10.765 1.139-10.956-4.002-7.428-6.854 19.242-20.582 37.334-34.582 61.151-46.294 4.002-2.48 8.003-4.959 12.005-7.439 4.566-3.81 9.142-7.62 13.708-11.43 10.573-6.854 11.44-13.143 11.44-13.708.282-12.861-6.582-22.86-8.577-26.861-3.61-13.637-10.856-16.006-10.856-16.006-58.874-39.723-89.737-50.004-185.179-37.717-1.432.756-10.574-.766 0-4.575 24.291-8.094 83.961-21.077 141.689 6.258 13.86 9.717 23.132 6.532 33.171 12.348 16.49 10.17 40.035 22.83 44.319 24.251 12.862 6.863 48.866 14.575 57.161 21.439 9.514.766 19.392 2.016 20.057 10.2 3.125 2.026 7.701.544 11.097 7.217 7.55 1.31 6.28 4.011 6.28 4.011-1.905 5.332-8.961 7.529-14 11.43-7.438 2.479-12.579 3.246-18.013.575-1.712-.766-3.426-1.522-5.14-2.288 0 0-8.003 1.148-8.003 1.713-17.779.977-16.046 59.902-22.336 84.478z" fill="#ffc639" transform="matrix(1.3333333 0 0 -1.3333333 1186.5729 221.41547)"/><path clip-path="url(#d)" d="m0 0c-.514-1.432-2.811-2.003-5.129-1.274-2.318.728-3.781 2.479-3.267 3.911.514 1.431 2.811 2.002 5.129 1.274 2.319-.728 3.782-2.479 3.267-3.911" fill="#1c8a42" transform="matrix(1.3333333 0 0 -1.3333333 1242.1732 350.0216)"/><g fill="#fff"><path clip-path="url(#e)" d="m0 0-12.751 11.936-12.904-11.77 1.383 17.405-17.249 2.753 14.475 9.774-8.606 15.197 16.668-5.219 6.518 16.204 6.31-16.287 16.734 5.007-8.801-15.086 14.348-9.959-17.283-2.532 1.159-17.423z" transform="matrix(1.3333333 0 0 -1.3333333 258.88027 404.5952)"/><path clip-path="url(#f)" d="m0 0-13.752 9.167-13.391-9.664 4.711 15.568-13.582 9.415 16.668.446 4.988 15.496 5.594-15.299 16.667.155-13.21-9.902z" transform="matrix(1.3333333 0 0 -1.3333333 319.1868 597.38227)"/><path clip-path="url(#g)" d="m0 0-12.751 11.937-12.904-11.771 1.383 17.405-17.249 2.753 14.475 9.775-8.606 15.197 16.668-5.22 6.518 16.204 6.31-16.287 16.734 5.007-8.801-15.086 14.348-9.959-17.283-2.531 1.159-17.424z" transform="matrix(1.3333333 0 0 -1.3333333 262.24213 763.3432)"/><path clip-path="url(#h)" d="m0 0-12.751 11.937-12.904-11.771 1.383 17.405-17.249 2.753 14.475 9.775-8.606 15.197 16.668-5.22 6.518 16.204 6.31-16.287 16.734 5.007-8.801-15.086 14.348-9.959-17.283-2.531z" transform="matrix(1.3333333 0 0 -1.3333333 109.4596 568.89267)"/><path clip-path="url(#i)" d="m0 0-12.751 11.936-12.904-11.77 1.383 17.405-17.249 2.753 14.475 9.775-8.605 15.196 16.668-5.22 6.517 16.205 6.31-16.288 16.734 5.008-8.801-15.086 14.348-9.959-17.282-2.531 1.158-17.425z" transform="matrix(1.3333333 0 0 -1.3333333 403.44987 517.96427)"/></g></svg>