<svg xmlns="http://www.w3.org/2000/svg" width="144" height="96" viewBox="0 0 27 18">
	<path fill="#fff" d="M0 0h27v18H0z"/>
	<g fill="#13A">
		<path d="M10 4v-2H27v2z"/>
		<path d="M10 8v-2H27v2z"/>
		<path d="M0 12v-2H27v2z"/>
		<path d="M0 16v-2H27v2z"/>
		</g>
	<circle fill="#fe9" cx="5" cy="5" r="3"/>
	<g fill="#fc0">
		<g transform="rotate(45 5 5)">
			<path d="M5 1l1 4l-2 0z"/>
			<path d="M9 5l-4 1l0 -2z"/>
			<path d="M5 9l1 -4l-2 0z"/>
			<path d="M1 5l4 1l0 -2z"/>
			</g>
		<g transform="rotate(22.5 5 5)">
			<path d="M5 1l1 4l-2 0z"/>
			<path d="M9 5l-4 1l0 -2z"/>
			<path d="M5 9l1 -4l-2 0z"/>
			<path d="M1 5l4 1l0 -2z"/>
			</g>
		<g transform="rotate(67.5 5 5)">
			<path d="M5 1l1 4l-2 0z"/>
			<path d="M9 5l-4 1l0 -2z"/>
			<path d="M5 9l1 -4l-2 0z"/>
			<path d="M1 5l4 1l0 -2z"/>
			</g>
		<g>
			<path d="M5 1l1 4l-2 0z"/>
			<path d="M9 5l-4 1l0 -2z"/>
			<path d="M5 9l1 -4l-2 0z"/>
			<path d="M1 5l4 1l0 -2z"/>
			</g>
		</g>
	<circle fill="#fa3" cx="5" cy="5" r="2.5"/>
	<circle fill="#fc0" cx="5" cy="5" r="2"/>
</svg>