<svg height="533.33331" viewBox="0 0 800 533.33331" width="800" xmlns="http://www.w3.org/2000/svg"><path d="m0 0h200v400h-200z" fill="#007a5e" transform="matrix(1.3333333 0 0 -1.3333333 0 533.33333)"/><path d="m200 0h200v400h-200z" fill="#ce1126" transform="matrix(1.3333333 0 0 -1.3333333 0 533.33333)"/><g fill="#fcd116"><path d="m400 0h200.001v400h-200.001z" transform="matrix(1.3333333 0 0 -1.3333333 0 533.33333)"/><path d="m0 0-16.481-50.723 25.362-8.24z" transform="matrix(1.3333333 0 0 -1.3333333 400 195.55533)"/><path d="m0 0 16.48-50.723-25.36-8.24z" transform="matrix(1.3333333 0 0 -1.3333333 400 195.55533)"/><path d="m0 0h-53.333v-26.667z" transform="matrix(1.3333333 0 0 -1.3333333 467.63027 244.692)"/><path d="m0 0-43.147-31.348-15.674 21.573z" transform="matrix(1.3333333 0 0 -1.3333333 467.63027 244.692)"/><path d="m0 0-16.481 50.723-25.361-8.241z" transform="matrix(1.3333333 0 0 -1.3333333 441.79813 324.19667)"/><path d="m0 0-43.147 31.349 15.673 21.573z" transform="matrix(1.3333333 0 0 -1.3333333 441.79813 324.19667)"/><path d="m0 0 43.147 31.349-15.674 21.573z" transform="matrix(1.3333333 0 0 -1.3333333 358.20187 324.19667)"/><path d="m0 0 16.481 50.723 25.362-8.241z" transform="matrix(1.3333333 0 0 -1.3333333 358.20187 324.19667)"/><g transform="matrix(1.3333333 0 0 -1.3333333 332.3692 244.692)"><path d="m0 0 43.147-31.348 15.675 21.573z"/><path d="m0 0h53.333v-26.667z"/></g></g></svg>