<svg height="1866.6667" viewBox="0 0 2800 1866.6667" width="2800" xmlns="http://www.w3.org/2000/svg"><path d="m0 0h2100v1400h-2100z" fill="#12ad2b" transform="matrix(1.3333333 0 0 -1.3333333 0 1866.6667)"/><path d="m0 400h2100v600h-2100z" fill="#ffce00" transform="matrix(1.3333333 0 0 -1.3333333 0 1866.6667)"/><path d="m0 0v-1400l700 700z" fill="#d21034" transform="matrix(1.3333333 0 0 -1.3333333 0 -.000533)"/><path d="m0 0-57.647-177.42 88.71-28.824" transform="matrix(1.3333333 0 0 -1.3333333 1364.1303 686.65693)"/><path d="m0 0 57.647-177.42-88.709-28.824" transform="matrix(1.3333333 0 0 -1.3333333 1364.1303 686.65693)"/><path d="m0 0h-186.551v-93.275" transform="matrix(1.3333333 0 0 -1.3333333 1600.6908 858.528)"/><path d="m0 0-150.923-109.652-54.826 75.462" transform="matrix(1.3333333 0 0 -1.3333333 1600.6908 858.528)"/><path d="m0 0-57.647 177.42-88.71-28.823" transform="matrix(1.3333333 0 0 -1.3333333 1510.3327 1136.6211)"/><path d="m0 0-150.923 109.651 54.826 75.462" transform="matrix(1.3333333 0 0 -1.3333333 1510.3327 1136.6211)"/><path d="m0 0 150.923 109.651-54.826 75.462" transform="matrix(1.3333333 0 0 -1.3333333 1217.9277 1136.6211)"/><path d="m0 0 57.647 177.42 88.711-28.823" transform="matrix(1.3333333 0 0 -1.3333333 1217.9277 1136.6211)"/><path d="m0 0 150.923-109.652 54.826 75.462" transform="matrix(1.3333333 0 0 -1.3333333 1127.5696 858.528)"/><path d="m0 0h186.551v-93.275" transform="matrix(1.3333333 0 0 -1.3333333 1127.5696 858.528)"/><path d="m0 0-57.647-177.42 88.709-28.824" transform="matrix(1.3333333 0 0 -1.3333333 2234.7005 686.65693)"/><path d="m0 0 57.647-177.42-88.709-28.824" transform="matrix(1.3333333 0 0 -1.3333333 2234.7005 686.65693)"/><path d="m0 0h-186.551v-93.275" transform="matrix(1.3333333 0 0 -1.3333333 2471.2617 858.528)"/><path d="m0 0-150.923-109.652-54.826 75.462" transform="matrix(1.3333333 0 0 -1.3333333 2471.2617 858.528)"/><path d="m0 0-57.647 177.42-88.711-28.823" transform="matrix(1.3333333 0 0 -1.3333333 2380.9036 1136.6211)"/><path d="m0 0-150.923 109.651 54.825 75.462" transform="matrix(1.3333333 0 0 -1.3333333 2380.9036 1136.6211)"/><path d="m0 0 150.923 109.651-54.826 75.462" transform="matrix(1.3333333 0 0 -1.3333333 2088.4987 1136.6211)"/><path d="m0 0 57.647 177.42 88.71-28.823" transform="matrix(1.3333333 0 0 -1.3333333 2088.4987 1136.6211)"/><g transform="matrix(1.3333333 0 0 -1.3333333 1998.1407 858.528)"><path d="m0 0 150.923-109.652 54.825 75.462"/><path d="m0 0h186.551v-93.275"/></g></svg>