<svg height="400" viewBox="0 0 600 400" width="600" xmlns="http://www.w3.org/2000/svg" xmlns:xlink="http://www.w3.org/1999/xlink"><clipPath id="a"><path d="m0 300h450v-300h-450z" transform="translate(-34.534701 -248.68021)"/></clipPath><clipPath id="b"><path d="m0 300h450v-300h-450z" transform="translate(-34.948201 -248.24021)"/></clipPath><clipPath id="c"><path d="m0 300h450v-300h-450z" transform="translate(-41.952101 -245.58501)"/></clipPath><clipPath id="d"><path d="m0 300h450v-300h-450z" transform="translate(-42.232401 -244.36081)"/></clipPath><clipPath id="e"><path d="m0 300h450v-300h-450z" transform="translate(-35.901401 -247.79491)"/></clipPath><clipPath id="f"><path d="m0 300h450v-300h-450z" transform="translate(-36.893101 -247.79491)"/></clipPath><clipPath id="g"><path d="m0 300h450v-300h-450z" transform="translate(-37.884301 -247.79491)"/></clipPath><clipPath id="h"><path d="m0 300h450v-300h-450z" transform="translate(-38.876001 -247.79491)"/></clipPath><clipPath id="i"><path d="m0 300h450v-300h-450z" transform="translate(-39.867701 -247.79491)"/></clipPath><clipPath id="j"><path d="m0 300h450v-300h-450z" transform="translate(-40.858901 -247.79491)"/></clipPath><clipPath id="k"><path d="m0 300h450v-300h-450z" transform="translate(-41.851101 -247.79491)"/></clipPath><clipPath id="l"><path d="m0 300h450v-300h-450z" transform="translate(-42.842301 -247.79491)"/></clipPath><clipPath id="m"><path d="m0 300h450v-300h-450z" transform="translate(-43.834001 -247.79491)"/></clipPath><clipPath id="n"><path d="m0 300h450v-300h-450z" transform="translate(-44.825701 -247.79491)"/></clipPath><clipPath id="o"><path d="m0 300h450v-300h-450z" transform="translate(-45.816901 -247.79491)"/></clipPath><clipPath id="p"><path d="m0 300h450v-300h-450z" transform="translate(-46.808601 -247.79491)"/></clipPath><clipPath id="q"><path d="m0 300h450v-300h-450z" transform="translate(-42.842301 -247.79491)"/></clipPath><clipPath id="r"><path d="m0 300h450v-300h-450z" transform="translate(-47.799801 -247.79491)"/></clipPath><clipPath id="s"><path d="m0 300h450v-300h-450z" transform="translate(-48.791501 -247.79491)"/></clipPath><clipPath id="t"><path d="m0 300h450v-300h-450z" transform="translate(-49.783201 -247.79491)"/></clipPath><clipPath id="u"><path d="m0 300h450v-300h-450z" transform="translate(-50.774902 -247.79491)"/></clipPath><clipPath id="v"><path d="m0 300h450v-300h-450z" transform="translate(-49.287101 -247.79491)"/></clipPath><clipPath id="w"><path d="m0 300h450v-300h-450z" transform="translate(-48.295401 -247.79491)"/></clipPath><clipPath id="x"><path d="m0 300h450v-300h-450z" transform="translate(-47.304201 -247.79491)"/></clipPath><clipPath id="y"><path d="m0 300h450v-300h-450z" transform="translate(-46.312501 -247.79491)"/></clipPath><clipPath id="z"><path d="m0 300h450v-300h-450z" transform="translate(-45.320801 -247.79491)"/></clipPath><clipPath id="A"><path d="m0 300h450v-300h-450z" transform="translate(-44.329601 -247.79491)"/></clipPath><clipPath id="B"><path d="m0 300h450v-300h-450z" transform="translate(-43.337901 -247.79491)"/></clipPath><clipPath id="C"><path d="m0 300h450v-300h-450z" transform="translate(-42.346701 -247.79491)"/></clipPath><clipPath id="D"><path d="m0 300h450v-300h-450z" transform="translate(-41.355001 -247.79491)"/></clipPath><clipPath id="E"><path d="m0 300h450v-300h-450z" transform="translate(-40.363301 -247.79491)"/></clipPath><clipPath id="F"><path d="m0 300h450v-300h-450z" transform="translate(-39.372101 -247.79491)"/></clipPath><clipPath id="G"><path d="m0 300h450v-300h-450z" transform="translate(-38.380401 -247.79491)"/></clipPath><clipPath id="H"><path d="m0 300h450v-300h-450z" transform="translate(-42.346701 -247.79491)"/></clipPath><clipPath id="I"><path d="m0 300h450v-300h-450z" transform="translate(-37.389201 -247.79491)"/></clipPath><clipPath id="J"><path d="m0 300h450v-300h-450z" transform="translate(-36.397501 -247.79491)"/></clipPath><clipPath id="K"><path d="m0 300h450v-300h-450z" transform="translate(-35.405801 -247.79491)"/></clipPath><clipPath id="L"><path d="m0 300h450v-300h-450z" transform="translate(-34.414601 -247.79491)"/></clipPath><clipPath id="M"><path d="m0 300h450v-300h-450z" transform="translate(-35.901401 -240.28521)"/></clipPath><clipPath id="N"><path d="m0 300h450v-300h-450z" transform="translate(-36.893101 -240.28521)"/></clipPath><clipPath id="O"><path d="m0 300h450v-300h-450z" transform="translate(-37.884301 -240.28521)"/></clipPath><clipPath id="P"><path d="m0 300h450v-300h-450z" transform="translate(-38.876001 -240.28521)"/></clipPath><clipPath id="Q"><path d="m0 300h450v-300h-450z" transform="translate(-39.867701 -240.28521)"/></clipPath><clipPath id="R"><path d="m0 300h450v-300h-450z" transform="translate(-40.858901 -240.28521)"/></clipPath><clipPath id="S"><path d="m0 300h450v-300h-450z" transform="translate(-41.851101 -240.28521)"/></clipPath><clipPath id="T"><path d="m0 300h450v-300h-450z" transform="translate(-42.842301 -240.28521)"/></clipPath><clipPath id="U"><path d="m0 300h450v-300h-450z" transform="translate(-43.834001 -240.28521)"/></clipPath><clipPath id="V"><path d="m0 300h450v-300h-450z" transform="translate(-44.825701 -240.28521)"/></clipPath><clipPath id="W"><path d="m0 300h450v-300h-450z" transform="translate(-45.816901 -240.28521)"/></clipPath><clipPath id="X"><path d="m0 300h450v-300h-450z" transform="translate(-46.808601 -240.28521)"/></clipPath><clipPath id="Y"><path d="m0 300h450v-300h-450z" transform="translate(-42.842301 -240.28521)"/></clipPath><clipPath id="Z"><path d="m0 300h450v-300h-450z" transform="translate(-47.799801 -240.28521)"/></clipPath><clipPath id="aa"><path d="m0 300h450v-300h-450z" transform="translate(-48.791501 -240.28521)"/></clipPath><clipPath id="ab"><path d="m0 300h450v-300h-450z" transform="translate(-49.783201 -240.28521)"/></clipPath><clipPath id="ac"><path d="m0 300h450v-300h-450z" transform="translate(-50.774902 -240.28521)"/></clipPath><clipPath id="ad"><path d="m0 300h450v-300h-450z" transform="translate(-49.287101 -240.28521)"/></clipPath><clipPath id="ae"><path d="m0 300h450v-300h-450z" transform="translate(-48.295401 -240.28521)"/></clipPath><clipPath id="af"><path d="m0 300h450v-300h-450z" transform="translate(-47.304201 -240.28521)"/></clipPath><clipPath id="ag"><path d="m0 300h450v-300h-450z" transform="translate(-46.312501 -240.28521)"/></clipPath><clipPath id="ah"><path d="m0 300h450v-300h-450z" transform="translate(-45.320801 -240.28521)"/></clipPath><clipPath id="ai"><path d="m0 300h450v-300h-450z" transform="translate(-44.329601 -240.28521)"/></clipPath><clipPath id="aj"><path d="m0 300h450v-300h-450z" transform="translate(-43.337901 -240.28521)"/></clipPath><clipPath id="ak"><path d="m0 300h450v-300h-450z" transform="translate(-42.346701 -240.28521)"/></clipPath><clipPath id="al"><path d="m0 300h450v-300h-450z" transform="translate(-41.355001 -240.28521)"/></clipPath><clipPath id="am"><path d="m0 300h450v-300h-450z" transform="translate(-40.363301 -240.28521)"/></clipPath><clipPath id="an"><path d="m0 300h450v-300h-450z" transform="translate(-39.372101 -240.28521)"/></clipPath><clipPath id="ao"><path d="m0 300h450v-300h-450z" transform="translate(-38.380401 -240.28521)"/></clipPath><clipPath id="ap"><path d="m0 300h450v-300h-450z" transform="translate(-42.346701 -240.28521)"/></clipPath><clipPath id="aq"><path d="m0 300h450v-300h-450z" transform="translate(-37.389201 -240.28521)"/></clipPath><clipPath id="ar"><path d="m0 300h450v-300h-450z" transform="translate(-36.397501 -240.28521)"/></clipPath><clipPath id="as"><path d="m0 300h450v-300h-450z" transform="translate(-35.405801 -240.28521)"/></clipPath><clipPath id="at"><path d="m0 300h450v-300h-450z" transform="translate(-34.414601 -240.28521)"/></clipPath><clipPath id="au"><path d="m0 300h450v-300h-450z" transform="translate(-115.4653 -248.68021)"/></clipPath><clipPath id="av"><path d="m0 300h450v-300h-450z" transform="translate(-115.0518 -248.24021)"/></clipPath><clipPath id="aw"><path d="m0 300h450v-300h-450z" transform="translate(-108.04791 -245.58501)"/></clipPath><clipPath id="ax"><path d="m0 300h450v-300h-450z" transform="translate(-107.7676 -244.36081)"/></clipPath><clipPath id="ay"><path d="m0 300h450v-300h-450z" transform="translate(-114.09861 -247.79491)"/></clipPath><clipPath id="az"><path d="m0 300h450v-300h-450z" transform="translate(-113.1069 -247.79491)"/></clipPath><clipPath id="aA"><path d="m0 300h450v-300h-450z" transform="translate(-112.1157 -247.79491)"/></clipPath><clipPath id="aB"><path d="m0 300h450v-300h-450z" transform="translate(-111.124 -247.79491)"/></clipPath><clipPath id="aC"><path d="m0 300h450v-300h-450z" transform="translate(-110.13231 -247.79491)"/></clipPath><clipPath id="aD"><path d="m0 300h450v-300h-450z" transform="translate(-109.14111 -247.79491)"/></clipPath><clipPath id="aE"><path d="m0 300h450v-300h-450z" transform="translate(-108.1489 -247.79491)"/></clipPath><clipPath id="aF"><path d="m0 300h450v-300h-450z" transform="translate(-107.1577 -247.79491)"/></clipPath><clipPath id="aG"><path d="m0 300h450v-300h-450z" transform="translate(-106.16601 -247.79491)"/></clipPath><clipPath id="aH"><path d="m0 300h450v-300h-450z" transform="translate(-105.1743 -247.79491)"/></clipPath><clipPath id="aI"><path d="m0 300h450v-300h-450z" transform="translate(-104.1831 -247.79491)"/></clipPath><clipPath id="aJ"><path d="m0 300h450v-300h-450z" transform="translate(-103.1914 -247.79491)"/></clipPath><clipPath id="aK"><path d="m0 300h450v-300h-450z" transform="translate(-107.1577 -247.79491)"/></clipPath><clipPath id="aL"><path d="m0 300h450v-300h-450z" transform="translate(-102.2002 -247.79491)"/></clipPath><clipPath id="aM"><path d="m0 300h450v-300h-450z" transform="translate(-101.20851 -247.79491)"/></clipPath><clipPath id="aN"><path d="m0 300h450v-300h-450z" transform="translate(-100.2168 -247.79491)"/></clipPath><clipPath id="aO"><path d="m0 300h450v-300h-450z" transform="translate(-99.2251 -247.79491)"/></clipPath><clipPath id="aP"><path d="m0 300h450v-300h-450z" transform="translate(-100.71291 -247.79491)"/></clipPath><clipPath id="aQ"><path d="m0 300h450v-300h-450z" transform="translate(-101.7046 -247.79491)"/></clipPath><clipPath id="aR"><path d="m0 300h450v-300h-450z" transform="translate(-102.6958 -247.79491)"/></clipPath><clipPath id="aS"><path d="m0 300h450v-300h-450z" transform="translate(-103.6875 -247.79491)"/></clipPath><clipPath id="aT"><path d="m0 300h450v-300h-450z" transform="translate(-104.67921 -247.79491)"/></clipPath><clipPath id="aU"><path d="m0 300h450v-300h-450z" transform="translate(-105.67041 -247.79491)"/></clipPath><clipPath id="aV"><path d="m0 300h450v-300h-450z" transform="translate(-106.6621 -247.79491)"/></clipPath><clipPath id="aW"><path d="m0 300h450v-300h-450z" transform="translate(-107.6533 -247.79491)"/></clipPath><clipPath id="aX"><path d="m0 300h450v-300h-450z" transform="translate(-108.645 -247.79491)"/></clipPath><clipPath id="aY"><path d="m0 300h450v-300h-450z" transform="translate(-109.63671 -247.79491)"/></clipPath><clipPath id="aZ"><path d="m0 300h450v-300h-450z" transform="translate(-110.62791 -247.79491)"/></clipPath><clipPath id="a0"><path d="m0 300h450v-300h-450z" transform="translate(-111.6196 -247.79491)"/></clipPath><clipPath id="a1"><path d="m0 300h450v-300h-450z" transform="translate(-107.6533 -247.79491)"/></clipPath><clipPath id="a2"><path d="m0 300h450v-300h-450z" transform="translate(-112.6108 -247.79491)"/></clipPath><clipPath id="a3"><path d="m0 300h450v-300h-450z" transform="translate(-113.6025 -247.79491)"/></clipPath><clipPath id="a4"><path d="m0 300h450v-300h-450z" transform="translate(-114.59421 -247.79491)"/></clipPath><clipPath id="a5"><path d="m0 300h450v-300h-450z" transform="translate(-115.58541 -247.79491)"/></clipPath><clipPath id="a6"><path d="m0 300h450v-300h-450z" transform="translate(-114.09861 -240.28521)"/></clipPath><clipPath id="a7"><path d="m0 300h450v-300h-450z" transform="translate(-113.1069 -240.28521)"/></clipPath><clipPath id="a8"><path d="m0 300h450v-300h-450z" transform="translate(-112.1157 -240.28521)"/></clipPath><clipPath id="a9"><path d="m0 300h450v-300h-450z" transform="translate(-111.124 -240.28521)"/></clipPath><clipPath id="ba"><path d="m0 300h450v-300h-450z" transform="translate(-110.13231 -240.28521)"/></clipPath><clipPath id="bb"><path d="m0 300h450v-300h-450z" transform="translate(-109.14111 -240.28521)"/></clipPath><clipPath id="bc"><path d="m0 300h450v-300h-450z" transform="translate(-108.1489 -240.28521)"/></clipPath><clipPath id="bd"><path d="m0 300h450v-300h-450z" transform="translate(-107.1577 -240.28521)"/></clipPath><clipPath id="be"><path d="m0 300h450v-300h-450z" transform="translate(-106.16601 -240.28521)"/></clipPath><clipPath id="bf"><path d="m0 300h450v-300h-450z" transform="translate(-105.1743 -240.28521)"/></clipPath><clipPath id="bg"><path d="m0 300h450v-300h-450z" transform="translate(-104.1831 -240.28521)"/></clipPath><clipPath id="bh"><path d="m0 300h450v-300h-450z" transform="translate(-103.1914 -240.28521)"/></clipPath><clipPath id="bi"><path d="m0 300h450v-300h-450z" transform="translate(-107.1577 -240.28521)"/></clipPath><clipPath id="bj"><path d="m0 300h450v-300h-450z" transform="translate(-102.2002 -240.28521)"/></clipPath><clipPath id="bk"><path d="m0 300h450v-300h-450z" transform="translate(-101.20851 -240.28521)"/></clipPath><clipPath id="bl"><path d="m0 300h450v-300h-450z" transform="translate(-100.2168 -240.28521)"/></clipPath><clipPath id="bm"><path d="m0 300h450v-300h-450z" transform="translate(-99.2251 -240.28521)"/></clipPath><clipPath id="bn"><path d="m0 300h450v-300h-450z" transform="translate(-100.71291 -240.28521)"/></clipPath><clipPath id="bo"><path d="m0 300h450v-300h-450z" transform="translate(-101.7046 -240.28521)"/></clipPath><clipPath id="bp"><path d="m0 300h450v-300h-450z" transform="translate(-102.6958 -240.28521)"/></clipPath><clipPath id="bq"><path d="m0 300h450v-300h-450z" transform="translate(-103.6875 -240.28521)"/></clipPath><clipPath id="br"><path d="m0 300h450v-300h-450z" transform="translate(-104.67921 -240.28521)"/></clipPath><clipPath id="bs"><path d="m0 300h450v-300h-450z" transform="translate(-105.67041 -240.28521)"/></clipPath><clipPath id="bt"><path d="m0 300h450v-300h-450z" transform="translate(-106.6621 -240.28521)"/></clipPath><clipPath id="bu"><path d="m0 300h450v-300h-450z" transform="translate(-107.6533 -240.28521)"/></clipPath><clipPath id="bv"><path d="m0 300h450v-300h-450z" transform="translate(-108.645 -240.28521)"/></clipPath><clipPath id="bw"><path d="m0 300h450v-300h-450z" transform="translate(-109.63671 -240.28521)"/></clipPath><clipPath id="bx"><path d="m0 300h450v-300h-450z" transform="translate(-110.62791 -240.28521)"/></clipPath><clipPath id="by"><path d="m0 300h450v-300h-450z" transform="translate(-111.6196 -240.28521)"/></clipPath><clipPath id="bz"><path d="m0 300h450v-300h-450z" transform="translate(-107.6533 -240.28521)"/></clipPath><clipPath id="bA"><path d="m0 300h450v-300h-450z" transform="translate(-112.6108 -240.28521)"/></clipPath><clipPath id="bB"><path d="m0 300h450v-300h-450z" transform="translate(-113.6025 -240.28521)"/></clipPath><clipPath id="bC"><path d="m0 300h450v-300h-450z" transform="translate(-114.59421 -240.28521)"/></clipPath><clipPath id="bD"><path d="m0 300h450v-300h-450z" transform="translate(-115.58541 -240.28521)"/></clipPath><clipPath id="bE"><path d="m0 300h450v-300h-450z" transform="translate(-63.254902 -226.43991)"/></clipPath><clipPath id="bF"><path d="m0 300h450v-300h-450z" transform="translate(-43.003901 -209.3452)"/></clipPath><clipPath id="bG"><path d="m0 300h450v-300h-450z" transform="translate(-43.003901 -208.46001)"/></clipPath><clipPath id="bH"><path d="m0 300h450v-300h-450z" transform="translate(-68.895002 -227.47021)"/></clipPath><clipPath id="bI"><path d="m0 300h450v-300h-450z" transform="translate(-66.615202 -223.81491)"/></clipPath><clipPath id="bJ"><path d="m0 300h450v-300h-450z" transform="translate(-63.290002 -221.08501)"/></clipPath><clipPath id="bK"><path d="m0 300h450v-300h-450z" transform="translate(-59.410201 -217.27)"/></clipPath><clipPath id="bL"><path d="m0 300h450v-300h-450z" transform="translate(-56.475101 -213.50001)"/></clipPath><clipPath id="bM"><path d="m0 300h450v-300h-450z" transform="translate(-51.660202 -211.72021)"/></clipPath><clipPath id="bN"><path d="m0 300h450v-300h-450z" transform="translate(-43.621101 -206.88481)"/></clipPath><clipPath id="bO"><path d="m0 300h450v-300h-450z" transform="translate(-90.7051 -247.66991)"/></clipPath><clipPath id="bP"><path d="m0 300h450v-300h-450z" transform="translate(-90.000002 -247.99511)"/></clipPath><clipPath id="bQ"><path d="m0 300h450v-300h-450z" transform="translate(-88.230002 -257.26951)"/></clipPath><clipPath id="bR"><path d="m0 300h450v-300h-450z" transform="translate(-88.705105 -256.55271)"/></clipPath><clipPath id="bS"><path d="m0 300h450v-300h-450z" transform="translate(-91.7725 -254.14501)"/></clipPath><clipPath id="bT"><path d="m0 300h450v-300h-450z" transform="translate(-91.7749 -254.14401)"/></clipPath><clipPath id="bU"><path d="m0 300h450v-300h-450z" transform="translate(-89.270005 -249.82521)"/></clipPath><clipPath id="bV"><path d="m0 300h450v-300h-450z" transform="translate(-104.51511 -276.13671)"/></clipPath><clipPath id="bW"><path d="m0 300h450v-300h-450z" transform="translate(-104.1592 -279.56691)"/></clipPath><clipPath id="bX"><path d="m0 300h450v-300h-450z" transform="translate(-86.7451 -226.43991)"/></clipPath><clipPath id="bY"><path d="m0 300h450v-300h-450z" transform="translate(-106.99611 -209.3452)"/></clipPath><clipPath id="bZ"><path d="m0 300h450v-300h-450z" transform="translate(-106.99611 -208.46001)"/></clipPath><clipPath id="b0"><path d="m0 300h450v-300h-450z" transform="translate(-81.105002 -227.47021)"/></clipPath><clipPath id="b1"><path d="m0 300h450v-300h-450z" transform="translate(-83.3848 -223.81491)"/></clipPath><clipPath id="b2"><path d="m0 300h450v-300h-450z" transform="translate(-86.71 -221.08501)"/></clipPath><clipPath id="b3"><path d="m0 300h450v-300h-450z" transform="translate(-90.589802 -217.27)"/></clipPath><clipPath id="b4"><path d="m0 300h450v-300h-450z" transform="translate(-93.524905 -213.50001)"/></clipPath><clipPath id="b5"><path d="m0 300h450v-300h-450z" transform="translate(-98.3398 -211.72021)"/></clipPath><clipPath id="b6"><path d="m0 300h450v-300h-450z" transform="translate(-106.3789 -206.88481)"/></clipPath><clipPath id="b7"><path d="m0 300h450v-300h-450z" transform="translate(-59.294902 -247.66991)"/></clipPath><clipPath id="b8"><path d="m0 300h450v-300h-450z" transform="translate(-60.000002 -247.99511)"/></clipPath><clipPath id="b9"><path d="m0 300h450v-300h-450z" transform="translate(-61.770002 -257.26951)"/></clipPath><clipPath id="ca"><path d="m0 300h450v-300h-450z" transform="translate(-61.294901 -256.55271)"/></clipPath><clipPath id="cb"><path d="m0 300h450v-300h-450z" transform="translate(-58.227502 -254.14501)"/></clipPath><clipPath id="cc"><path d="m0 300h450v-300h-450z" transform="translate(-58.225102 -254.14401)"/></clipPath><clipPath id="cd"><path d="m0 300h450v-300h-450z" transform="translate(-60.730001 -249.82521)"/></clipPath><clipPath id="ce"><path d="m0 300h450v-300h-450z" transform="translate(-45.484901 -276.13671)"/></clipPath><clipPath id="cf"><path d="m0 300h450v-300h-450z" transform="translate(-45.840801 -279.56691)"/></clipPath><clipPath id="cg"><path d="m0 300h450v-300h-450z" transform="translate(-67.629902 -257.52101)"/></clipPath><clipPath id="ch"><path d="m0 300h450v-300h-450z" transform="translate(-67.629902 -253.10111)"/></clipPath><clipPath id="ci"><path d="m0 300h450v-300h-450z" transform="translate(-67.629902 -257.52101)"/></clipPath><clipPath id="cj"><path d="m0 300h450v-300h-450z" transform="translate(-67.629902 -255.31101)"/></clipPath><clipPath id="ck"><path d="m0 300h450v-300h-450z" transform="translate(-67.629902 -250.89111)"/></clipPath><clipPath id="cl"><path d="m0 300h450v-300h-450z" transform="translate(-68.306201 -254.53121)"/></clipPath><clipPath id="cm"><path d="m0 300h450v-300h-450z" transform="translate(-71.010302 -254.29301)"/></clipPath><clipPath id="cn"><path d="m0 300h450v-300h-450z" transform="translate(-73.714802 -254.05471)"/></clipPath><clipPath id="co"><path d="m0 300h450v-300h-450z" transform="translate(-76.418904 -254.05471)"/></clipPath><clipPath id="cp"><path d="m0 300h450v-300h-450z" transform="translate(-79.122602 -254.29301)"/></clipPath><clipPath id="cq"><path d="m0 300h450v-300h-450z" transform="translate(-81.827102 -254.53121)"/></clipPath><clipPath id="cr"><path d="m0 300h450v-300h-450z" transform="translate(-67.629902 -246.47021)"/></clipPath><clipPath id="cs"><path d="m0 300h450v-300h-450z" transform="translate(-69.115202 -246.47021)"/></clipPath><clipPath id="ct"><path d="m0 300h450v-300h-450z" transform="translate(-71.100102 -246.02981)"/></clipPath><clipPath id="cu"><path d="m0 300h450v-300h-450z" transform="translate(-72.589802 -246.02981)"/></clipPath><clipPath id="cv"><path d="m0 300h450v-300h-450z" transform="translate(-74.075202 -246.02981)"/></clipPath><clipPath id="cw"><path d="m0 300h450v-300h-450z" transform="translate(-75.560102 -246.02981)"/></clipPath><clipPath id="cx"><path d="m0 300h450v-300h-450z" transform="translate(-77.049804 -246.02981)"/></clipPath><clipPath id="cy"><path d="m0 300h450v-300h-450z" transform="translate(-78.535202 -246.02981)"/></clipPath><clipPath id="cz"><path d="m0 300h450v-300h-450z" transform="translate(-80.024905 -246.02981)"/></clipPath><clipPath id="cA"><path d="m0 300h450v-300h-450z" transform="translate(-81.5098 -246.02981)"/></clipPath><clipPath id="cB"><path d="m0 300h450v-300h-450z" transform="translate(-67.629902 -245.14501)"/></clipPath><clipPath id="cC"><path d="m0 300h450v-300h-450z" transform="translate(-82.5049 -246.47021)"/></clipPath><clipPath id="cD"><path d="m0 300h450v-300h-450z" transform="translate(-81.0151 -246.47021)"/></clipPath><clipPath id="cE"><path d="m0 300h450v-300h-450z" transform="translate(-79.035204 -246.02981)"/></clipPath><clipPath id="cF"><path d="m0 300h450v-300h-450z" transform="translate(-77.544902 -246.02981)"/></clipPath><clipPath id="cG"><path d="m0 300h450v-300h-450z" transform="translate(-76.060104 -246.02981)"/></clipPath><clipPath id="cH"><path d="m0 300h450v-300h-450z" transform="translate(-74.569802 -246.02981)"/></clipPath><clipPath id="cI"><path d="m0 300h450v-300h-450z" transform="translate(-73.085002 -246.02981)"/></clipPath><clipPath id="cJ"><path d="m0 300h450v-300h-450z" transform="translate(-71.595202 -246.02981)"/></clipPath><clipPath id="cK"><path d="m0 300h450v-300h-450z" transform="translate(-70.109902 -246.02981)"/></clipPath><clipPath id="cL"><path d="m0 300h450v-300h-450z" transform="translate(-68.620102 -246.02981)"/></clipPath><clipPath id="cM"><path d="m0 300h450v-300h-450z" transform="translate(-82.5049 -245.14501)"/></clipPath><clipPath id="cN"><path d="m0 300h450v-300h-450z" transform="translate(-82.5049 -243.81981)"/></clipPath><clipPath id="cO"><path d="m0 300h450v-300h-450z" transform="translate(-82.5049 -242.49511)"/></clipPath><clipPath id="cP"><path d="m0 300h450v-300h-450z" transform="translate(-82.5049 -241.16501)"/></clipPath><clipPath id="cQ"><path d="m0 300h450v-300h-450z" transform="translate(-82.5049 -239.83981)"/></clipPath><clipPath id="cR"><path d="m0 300h450v-300h-450z" transform="translate(-82.5049 -238.51511)"/></clipPath><clipPath id="cS"><path d="m0 300h450v-300h-450z" transform="translate(-82.5049 -237.18991)"/></clipPath><clipPath id="cT"><path d="m0 300h450v-300h-450z" transform="translate(-82.5049 -235.85991)"/></clipPath><clipPath id="cU"><path d="m0 300h450v-300h-450z" transform="translate(-82.5049 -234.53521)"/></clipPath><clipPath id="cV"><path d="m0 300h450v-300h-450z" transform="translate(-82.5049 -233.21001)"/></clipPath><clipPath id="cW"><path d="m0 300h450v-300h-450z" transform="translate(-82.004905 -231.43991)"/></clipPath><clipPath id="cX"><path d="m0 300h450v-300h-450z" transform="translate(-81.5098 -229.67481)"/></clipPath><clipPath id="cY"><path d="m0 300h450v-300h-450z" transform="translate(-80.520002 -227.46481)"/></clipPath><clipPath id="cZ"><path d="m0 300h450v-300h-450z" transform="translate(-67.629902 -243.81981)"/></clipPath><clipPath id="c0"><path d="m0 300h450v-300h-450z" transform="translate(-67.629902 -242.49511)"/></clipPath><clipPath id="c1"><path d="m0 300h450v-300h-450z" transform="translate(-67.629902 -241.16501)"/></clipPath><clipPath id="c2"><path d="m0 300h450v-300h-450z" transform="translate(-67.629902 -239.83981)"/></clipPath><clipPath id="c3"><path d="m0 300h450v-300h-450z" transform="translate(-67.629902 -238.51511)"/></clipPath><clipPath id="c4"><path d="m0 300h450v-300h-450z" transform="translate(-67.134802 -237.62991)"/></clipPath><clipPath id="c5"><path d="m0 300h450v-300h-450z" transform="translate(-67.134802 -236.30521)"/></clipPath><clipPath id="c6"><path d="m0 300h450v-300h-450z" transform="translate(-66.640102 -235.41991)"/></clipPath><clipPath id="c7"><path d="m0 300h450v-300h-450z" transform="translate(-66.145001 -234.53521)"/></clipPath><clipPath id="c8"><path d="m0 300h450v-300h-450z" transform="translate(-66.145001 -233.21001)"/></clipPath><clipPath id="c9"><path d="m0 300h450v-300h-450z" transform="translate(-66.145001 -231.88481)"/></clipPath><clipPath id="da"><path d="m0 300h450v-300h-450z" transform="translate(-67.629902 -248.68021)"/></clipPath><clipPath id="db"><path d="m0 300h450v-300h-450z" transform="translate(-66.145001 -230.56011)"/></clipPath><clipPath id="dc"><path d="m0 300h450v-300h-450z" transform="translate(-66.145001 -229.23001)"/></clipPath><clipPath id="dd"><path d="m0 300h450v-300h-450z" transform="translate(-66.145001 -227.90481)"/></clipPath><clipPath id="de"><path d="m0 300h450v-300h-450z" transform="translate(-66.145001 -226.58011)"/></clipPath><clipPath id="df"><path d="m0 300h450v-300h-450z" transform="translate(-66.145001 -225.25491)"/></clipPath><clipPath id="dg"><path d="m0 300h450v-300h-450z" transform="translate(-66.145001 -223.93021)"/></clipPath><clipPath id="dh"><path d="m0 300h450v-300h-450z" transform="translate(-68.306201 -247.90091)"/></clipPath><clipPath id="di"><path d="m0 300h450v-300h-450z" transform="translate(-71.010302 -247.66261)"/></clipPath><clipPath id="dj"><path d="m0 300h450v-300h-450z" transform="translate(-73.714802 -247.42431)"/></clipPath><clipPath id="dk"><path d="m0 300h450v-300h-450z" transform="translate(-76.418904 -247.42431)"/></clipPath><clipPath id="dl"><path d="m0 300h450v-300h-450z" transform="translate(-79.122602 -247.66261)"/></clipPath><clipPath id="dm"><path d="m0 300h450v-300h-450z" transform="translate(-81.827102 -247.90091)"/></clipPath><clipPath id="dn"><path d="m0 300h450v-300h-450z" transform="translate(-46.312501 -225.69481)"/></clipPath><clipPath id="do"><path d="m0 300h450v-300h-450z" transform="translate(-45.320801 -226.14011)"/></clipPath><clipPath id="dp"><path d="m0 300h450v-300h-450z" transform="translate(-44.825701 -227.02001)"/></clipPath><clipPath id="dq"><path d="m0 300h450v-300h-450z" transform="translate(-44.329601 -227.90481)"/></clipPath><clipPath id="dr"><path d="m0 300h450v-300h-450z" transform="translate(-43.337901 -228.79001)"/></clipPath><clipPath id="ds"><path d="m0 300h450v-300h-450z" transform="translate(-43.834001 -230.11521)"/></clipPath><clipPath id="dt"><path d="m0 300h450v-300h-450z" transform="translate(-43.337901 -231.00001)"/></clipPath><clipPath id="du"><path d="m0 300h450v-300h-450z" transform="translate(-43.337901 -232.32521)"/></clipPath><clipPath id="dv"><path d="m0 300h450v-300h-450z" transform="translate(-47.799801 -225.25491)"/></clipPath><clipPath id="dw"><path d="m0 300h450v-300h-450z" transform="translate(-49.287101 -224.81011)"/></clipPath><clipPath id="dx"><path d="m0 300h450v-300h-450z" transform="translate(-50.774902 -224.3701)"/></clipPath><clipPath id="dy"><path d="m0 300h450v-300h-450z" transform="translate(-52.259801 -223.93021)"/></clipPath><clipPath id="dz"><path d="m0 300h450v-300h-450z" transform="translate(-54.245101 -223.93021)"/></clipPath><clipPath id="dA"><path d="m0 300h450v-300h-450z" transform="translate(-55.730002 -223.48491)"/></clipPath><clipPath id="dB"><path d="m0 300h450v-300h-450z" transform="translate(-57.220201 -223.04491)"/></clipPath><clipPath id="dC"><path d="m0 300h450v-300h-450z" transform="translate(-59.200201 -223.04491)"/></clipPath><clipPath id="dD"><path d="m0 300h450v-300h-450z" transform="translate(-61.185101 -222.6001)"/></clipPath><clipPath id="dE"><path d="m0 300h450v-300h-450z" transform="translate(-63.169901 -222.6001)"/></clipPath><clipPath id="dF"><path d="m0 300h450v-300h-450z" transform="translate(-66.640102 -235.41991)"/></clipPath><clipPath id="dG"><path d="m0 300h450v-300h-450z" transform="translate(-37.389201 -229.23001)"/></clipPath><clipPath id="dH"><path d="m0 300h450v-300h-450z" transform="translate(-37.389201 -232.32521)"/></clipPath><clipPath id="dI"><path d="m0 300h450v-300h-450z" transform="translate(-46.312501 -234.53521)"/></clipPath><clipPath id="dJ"><path d="m0 300h450v-300h-450z" transform="translate(-82.484905 -256.63721)"/></clipPath><clipPath id="dK"><path d="m0 300h450v-300h-450z"/></clipPath><clipPath id="dL"><path d="m0 300h450v-300h-450z"/></clipPath><clipPath id="dM"><path d="m0 300h450v-300h-450z"/></clipPath><clipPath id="dN"><path d="m0 300h450v-300h-450z"/></clipPath><clipPath id="dO"><path d="m0 300h450v-300h-450z"/></clipPath><clipPath id="dP"><path d="m0 300h450v-300h-450z" transform="translate(-75.314499 -283.15771)"/></clipPath><clipPath id="dQ"><path d="m0 300h450v-300h-450z" transform="translate(-78.390099 -279.18021)"/></clipPath><clipPath id="dR"><path d="m0 300h450v-300h-450z" transform="translate(-77.365202 -279.18021)"/></clipPath><clipPath id="dS"><path d="m0 300h450v-300h-450z" transform="translate(-69.167002 -280.06351)"/></clipPath><clipPath id="dT"><path d="m0 300h450v-300h-450z" transform="translate(-81.461402 -280.06351)"/></clipPath><clipPath id="dU"><path d="m0 300h450v-300h-450z" transform="translate(-75.314004 -280.06351)"/></clipPath><clipPath id="dV"><path d="m0 300h450v-300h-450z" transform="translate(-75.314004 -284.48341)"/></clipPath><clipPath id="dW"><path d="m0 300h450v-300h-450z" transform="translate(-70.813502 -259.28861)"/></clipPath><clipPath id="dX"><path d="m0 300h450v-300h-450z" transform="translate(-79.302699 -259.28861)"/></clipPath><clipPath id="dY"><path d="m0 300h450v-300h-450z" transform="translate(-71.345202 -261.49951)"/></clipPath><clipPath id="dZ"><path d="m0 300h450v-300h-450z" transform="translate(-75.058104 -260.17241)"/></clipPath><clipPath id="d0"><path d="m0 300h450v-300h-450z" transform="translate(-67.503902 -245.14011)"/></clipPath><clipPath id="d1"><path d="m0 300h450v-300h-450z" transform="translate(-81.759805 -246.46481)"/></clipPath><clipPath id="d2"><path d="m0 300h450v-300h-450z" transform="translate(-81.759805 -246.46481)"/></clipPath><clipPath id="d3"><path d="m0 300h450v-300h-450z" transform="translate(-68.870102 -247.79001)"/></clipPath><clipPath id="d4"><path d="m0 300h450v-300h-450z" transform="translate(-68.870102 -247.79001)"/></clipPath><clipPath id="d5"><path d="m0 300h450v-300h-450z" transform="translate(-64.904801 -246.90481)"/></clipPath><clipPath id="d6"><path d="m0 300h450v-300h-450z" transform="translate(-64.904801 -246.90481)"/></clipPath><clipPath id="d7"><path d="m0 300h450v-300h-450z" transform="translate(-58.955101 -248.23491)"/></clipPath><clipPath id="d8"><path d="m0 300h450v-300h-450z" transform="translate(-58.955101 -248.23491)"/></clipPath><clipPath id="d9"><path d="m0 300h450v-300h-450z" transform="translate(-91.180202 -247.79001)"/></clipPath><clipPath id="ea"><path d="m0 300h450v-300h-450z" transform="translate(-91.180202 -247.79001)"/></clipPath><clipPath id="eb"><path d="m0 300h450v-300h-450z" transform="translate(-83.0728 -245.14011)"/></clipPath><clipPath id="ec"><path d="m0 300h450v-300h-450z" transform="translate(-77.488299 -245.58011)"/></clipPath><clipPath id="ed"><path d="m0 300h450v-300h-450z" transform="translate(-61.128401 -245.58011)"/></clipPath><clipPath id="ee"><path d="m0 300h450v-300h-450z" transform="translate(-50.406701 -246.02491)"/></clipPath><clipPath id="ef"><path d="m0 300h450v-300h-450z" transform="translate(-93.5098 -245.58011)"/></clipPath><g transform="matrix(1.3333333 0 0 -1.3333333 0 400)"><path d="m0 0h450v300h-450z" fill="#db161b"/><path d="m150 200h300v100h-300z" fill="#fff"/><path d="m150 0h300v100h-300z" fill="#008000"/></g><g stroke="#db161b"><g fill="#fff"><path clip-path="url(#a)" d="m0 0h16.119c.888 0 1.608-.675 1.608-1.508v-7.593c0-.833-.72-1.508-1.608-1.508h-16.119c-.888 0-1.608.675-1.608 1.508v7.593c0 .833.72 1.508 1.608 1.508" stroke-width=".283" transform="matrix(1.3333333 0 0 -1.3333333 46.046267 68.4264)"/><path clip-path="url(#b)" d="m0 0h15.292c.843 0 1.526-.619 1.526-1.382v-6.961c0-.763-.683-1.382-1.526-1.382h-15.292c-.842 0-1.525.619-1.525 1.382v6.961c0 .763.683 1.382 1.525 1.382" stroke-width=".264" transform="matrix(1.3333333 0 0 -1.3333333 46.5976 69.013067)"/><path clip-path="url(#c)" d="m0 0 .926-.03.042-.42.759-.385.589.48.716-.385-.674-.42.169-.58.842.03v-.775l-.674.035-.337-.485.758-.55-.589-.45-.632.485-.927-.195.042-.71-1.01-.065-.126.68-.843.355-.463-.485-.716.355.421.55-.505.355h-.716l-.042 1 .716-.065.505.58-.59.45.758.52.548-.42.927.125z" stroke-width=".167" transform="matrix(1.3333333 0 0 -1.3333333 55.936133 72.553333)"/><path clip-path="url(#d)" d="m0 0c.562 0 1.018-.39 1.018-.871s-.456-.871-1.018-.871-1.018.39-1.018.871.456.871 1.018.871" transform="matrix(1.3333333 0 0 -1.3333333 56.309867 74.1856)"/><g stroke-width=".264"><path clip-path="url(#e)" d="m0 0-1.487-1.325" transform="matrix(1.3333333 0 0 -1.3333333 47.868533 69.6068)"/><path clip-path="url(#f)" d="m0 0-1.487-1.325" transform="matrix(1.3333333 0 0 -1.3333333 49.1908 69.6068)"/><path clip-path="url(#g)" d="m0 0-1.487-1.325" transform="matrix(1.3333333 0 0 -1.3333333 50.5124 69.6068)"/><path clip-path="url(#h)" d="m0 0-1.487-1.325" transform="matrix(1.3333333 0 0 -1.3333333 51.834667 69.6068)"/><path clip-path="url(#i)" d="m0 0-1.487-1.325" transform="matrix(1.3333333 0 0 -1.3333333 53.156933 69.6068)"/><path clip-path="url(#j)" d="m0 0-1.487-1.325" transform="matrix(1.3333333 0 0 -1.3333333 54.478533 69.6068)"/><path clip-path="url(#k)" d="m0 0-1.488-1.325" transform="matrix(1.3333333 0 0 -1.3333333 55.801467 69.6068)"/><path clip-path="url(#l)" d="m0 0-1.487-1.325" transform="matrix(1.3333333 0 0 -1.3333333 57.123067 69.6068)"/><path clip-path="url(#m)" d="m0 0-1.487-1.325" transform="matrix(1.3333333 0 0 -1.3333333 58.445333 69.6068)"/><path clip-path="url(#n)" d="m0 0-1.488-1.325" transform="matrix(1.3333333 0 0 -1.3333333 59.7676 69.6068)"/><path clip-path="url(#o)" d="m0 0-1.487-1.325" transform="matrix(1.3333333 0 0 -1.3333333 61.0892 69.6068)"/><path clip-path="url(#p)" d="m0 0-1.488-1.325" transform="matrix(1.3333333 0 0 -1.3333333 62.411467 69.6068)"/><path clip-path="url(#q)" d="m0 0-1.487-1.325" transform="matrix(1.3333333 0 0 -1.3333333 57.123067 69.6068)"/><path clip-path="url(#r)" d="m0 0-1.487-1.325" transform="matrix(1.3333333 0 0 -1.3333333 63.733067 69.6068)"/><path clip-path="url(#s)" d="m0 0-1.487-1.325" transform="matrix(1.3333333 0 0 -1.3333333 65.055333 69.6068)"/><path clip-path="url(#t)" d="m0 0-1.488-1.325" transform="matrix(1.3333333 0 0 -1.3333333 66.3776 69.6068)"/><path clip-path="url(#u)" d="m0 0-1.488-1.325" transform="matrix(1.3333333 0 0 -1.3333333 67.699867 69.6068)"/><path clip-path="url(#v)" d="m0 0 1.488-1.325" transform="matrix(1.3333333 0 0 -1.3333333 65.716133 69.6068)"/><path clip-path="url(#w)" d="m0 0 1.488-1.325" transform="matrix(1.3333333 0 0 -1.3333333 64.393867 69.6068)"/><path clip-path="url(#x)" d="m0 0 1.487-1.325" transform="matrix(1.3333333 0 0 -1.3333333 63.072267 69.6068)"/><path clip-path="url(#y)" d="m0 0 1.487-1.325" transform="matrix(1.3333333 0 0 -1.3333333 61.75 69.6068)"/><path clip-path="url(#z)" d="m0 0 1.488-1.325" transform="matrix(1.3333333 0 0 -1.3333333 60.427733 69.6068)"/><path clip-path="url(#A)" d="m0 0 1.487-1.325" transform="matrix(1.3333333 0 0 -1.3333333 59.106133 69.6068)"/><path clip-path="url(#B)" d="m0 0 1.488-1.325" transform="matrix(1.3333333 0 0 -1.3333333 57.783867 69.6068)"/><path clip-path="url(#C)" d="m0 0 1.487-1.325" transform="matrix(1.3333333 0 0 -1.3333333 56.462267 69.6068)"/><path clip-path="url(#D)" d="m0 0 1.487-1.325" transform="matrix(1.3333333 0 0 -1.3333333 55.14 69.6068)"/><path clip-path="url(#E)" d="m0 0 1.488-1.325" transform="matrix(1.3333333 0 0 -1.3333333 53.817733 69.6068)"/><path clip-path="url(#F)" d="m0 0 1.487-1.325" transform="matrix(1.3333333 0 0 -1.3333333 52.496133 69.6068)"/><path clip-path="url(#G)" d="m0 0 1.487-1.325" transform="matrix(1.3333333 0 0 -1.3333333 51.173867 69.6068)"/><path clip-path="url(#H)" d="m0 0 1.487-1.325" transform="matrix(1.3333333 0 0 -1.3333333 56.462267 69.6068)"/><path clip-path="url(#I)" d="m0 0 1.487-1.325" transform="matrix(1.3333333 0 0 -1.3333333 49.852267 69.6068)"/><path clip-path="url(#J)" d="m0 0 1.487-1.325" transform="matrix(1.3333333 0 0 -1.3333333 48.53 69.6068)"/><path clip-path="url(#K)" d="m0 0 1.487-1.325" transform="matrix(1.3333333 0 0 -1.3333333 47.207733 69.6068)"/><path clip-path="url(#L)" d="m0 0 1.487-1.325" transform="matrix(1.3333333 0 0 -1.3333333 45.886133 69.6068)"/><path clip-path="url(#M)" d="m0 0-1.487-1.33" transform="matrix(1.3333333 0 0 -1.3333333 47.868533 79.619733)"/><path clip-path="url(#N)" d="m0 0-1.487-1.33" transform="matrix(1.3333333 0 0 -1.3333333 49.1908 79.619733)"/><path clip-path="url(#O)" d="m0 0-1.487-1.33" transform="matrix(1.3333333 0 0 -1.3333333 50.5124 79.619733)"/><path clip-path="url(#P)" d="m0 0-1.487-1.33" transform="matrix(1.3333333 0 0 -1.3333333 51.834667 79.619733)"/><path clip-path="url(#Q)" d="m0 0-1.487-1.33" transform="matrix(1.3333333 0 0 -1.3333333 53.156933 79.619733)"/><path clip-path="url(#R)" d="m0 0-1.487-1.33" transform="matrix(1.3333333 0 0 -1.3333333 54.478533 79.619733)"/><path clip-path="url(#S)" d="m0 0-1.488-1.33" transform="matrix(1.3333333 0 0 -1.3333333 55.801467 79.619733)"/><path clip-path="url(#T)" d="m0 0-1.487-1.33" transform="matrix(1.3333333 0 0 -1.3333333 57.123067 79.619733)"/><path clip-path="url(#U)" d="m0 0-1.487-1.33" transform="matrix(1.3333333 0 0 -1.3333333 58.445333 79.619733)"/><path clip-path="url(#V)" d="m0 0-1.488-1.33" transform="matrix(1.3333333 0 0 -1.3333333 59.7676 79.619733)"/><path clip-path="url(#W)" d="m0 0-1.487-1.33" transform="matrix(1.3333333 0 0 -1.3333333 61.0892 79.619733)"/><path clip-path="url(#X)" d="m0 0-1.488-1.33" transform="matrix(1.3333333 0 0 -1.3333333 62.411467 79.619733)"/><path clip-path="url(#Y)" d="m0 0-1.487-1.33" transform="matrix(1.3333333 0 0 -1.3333333 57.123067 79.619733)"/><path clip-path="url(#Z)" d="m0 0-1.487-1.33" transform="matrix(1.3333333 0 0 -1.3333333 63.733067 79.619733)"/><path clip-path="url(#aa)" d="m0 0-1.487-1.33" transform="matrix(1.3333333 0 0 -1.3333333 65.055333 79.619733)"/><path clip-path="url(#ab)" d="m0 0-1.488-1.33" transform="matrix(1.3333333 0 0 -1.3333333 66.3776 79.619733)"/><path clip-path="url(#ac)" d="m0 0-1.488-1.33" transform="matrix(1.3333333 0 0 -1.3333333 67.699867 79.619733)"/><path clip-path="url(#ad)" d="m0 0 1.488-1.33" transform="matrix(1.3333333 0 0 -1.3333333 65.716133 79.619733)"/><path clip-path="url(#ae)" d="m0 0 1.488-1.33" transform="matrix(1.3333333 0 0 -1.3333333 64.393867 79.619733)"/><path clip-path="url(#af)" d="m0 0 1.487-1.33" transform="matrix(1.3333333 0 0 -1.3333333 63.072267 79.619733)"/><path clip-path="url(#ag)" d="m0 0 1.487-1.33" transform="matrix(1.3333333 0 0 -1.3333333 61.75 79.619733)"/><path clip-path="url(#ah)" d="m0 0 1.488-1.33" transform="matrix(1.3333333 0 0 -1.3333333 60.427733 79.619733)"/><path clip-path="url(#ai)" d="m0 0 1.487-1.33" transform="matrix(1.3333333 0 0 -1.3333333 59.106133 79.619733)"/><path clip-path="url(#aj)" d="m0 0 1.488-1.33" transform="matrix(1.3333333 0 0 -1.3333333 57.783867 79.619733)"/><path clip-path="url(#ak)" d="m0 0 1.487-1.33" transform="matrix(1.3333333 0 0 -1.3333333 56.462267 79.619733)"/><path clip-path="url(#al)" d="m0 0 1.487-1.33" transform="matrix(1.3333333 0 0 -1.3333333 55.14 79.619733)"/><path clip-path="url(#am)" d="m0 0 1.488-1.33" transform="matrix(1.3333333 0 0 -1.3333333 53.817733 79.619733)"/><path clip-path="url(#an)" d="m0 0 1.487-1.33" transform="matrix(1.3333333 0 0 -1.3333333 52.496133 79.619733)"/><path clip-path="url(#ao)" d="m0 0 1.487-1.33" transform="matrix(1.3333333 0 0 -1.3333333 51.173867 79.619733)"/><path clip-path="url(#ap)" d="m0 0 1.487-1.33" transform="matrix(1.3333333 0 0 -1.3333333 56.462267 79.619733)"/><path clip-path="url(#aq)" d="m0 0 1.487-1.33" transform="matrix(1.3333333 0 0 -1.3333333 49.852267 79.619733)"/><path clip-path="url(#ar)" d="m0 0 1.487-1.33" transform="matrix(1.3333333 0 0 -1.3333333 48.53 79.619733)"/><path clip-path="url(#as)" d="m0 0 1.487-1.33" transform="matrix(1.3333333 0 0 -1.3333333 47.207733 79.619733)"/><path clip-path="url(#at)" d="m0 0 1.487-1.33" transform="matrix(1.3333333 0 0 -1.3333333 45.886133 79.619733)"/></g><path clip-path="url(#au)" d="m0 0h-16.119c-.888 0-1.608-.675-1.608-1.508v-7.593c0-.833.72-1.508 1.608-1.508h16.119c.888 0 1.608.675 1.608 1.508v7.593c0 .833-.72 1.508-1.608 1.508" stroke-width=".283" transform="matrix(1.3333333 0 0 -1.3333333 153.95373 68.4264)"/><path clip-path="url(#av)" d="m0 0h-15.292c-.843 0-1.526-.619-1.526-1.382v-6.961c0-.763.683-1.382 1.526-1.382h15.292c.842 0 1.525.619 1.525 1.382v6.961c0 .763-.683 1.382-1.525 1.382" stroke-width=".264" transform="matrix(1.3333333 0 0 -1.3333333 153.4024 69.013067)"/><path clip-path="url(#aw)" d="m0 0-.926-.03-.042-.42-.759-.385-.589.48-.716-.385.674-.42-.169-.58-.842.03v-.775l.674.035.337-.485-.758-.55.589-.45.632.485.927-.195-.042-.71 1.01-.065.126.68.843.355.463-.485.716.355-.421.55.505.355h.716l.042 1-.716-.065-.505.58.59.45-.758.52-.548-.42-.927.125z" stroke-width=".167" transform="matrix(1.3333333 0 0 -1.3333333 144.06387 72.553333)"/><path clip-path="url(#ax)" d="m0 0c-.562 0-1.018-.39-1.018-.871s.456-.871 1.018-.871 1.018.39 1.018.871-.456.871-1.018.871" transform="matrix(1.3333333 0 0 -1.3333333 143.69013 74.1856)"/><g stroke-width=".264"><path clip-path="url(#ay)" d="m0 0 1.487-1.325" transform="matrix(1.3333333 0 0 -1.3333333 152.13147 69.6068)"/><path clip-path="url(#az)" d="m0 0 1.487-1.325" transform="matrix(1.3333333 0 0 -1.3333333 150.8092 69.6068)"/><path clip-path="url(#aA)" d="m0 0 1.487-1.325" transform="matrix(1.3333333 0 0 -1.3333333 149.4876 69.6068)"/><path clip-path="url(#aB)" d="m0 0 1.487-1.325" transform="matrix(1.3333333 0 0 -1.3333333 148.16533 69.6068)"/><path clip-path="url(#aC)" d="m0 0 1.487-1.325" transform="matrix(1.3333333 0 0 -1.3333333 146.84307 69.6068)"/><path clip-path="url(#aD)" d="m0 0 1.487-1.325" transform="matrix(1.3333333 0 0 -1.3333333 145.52147 69.6068)"/><path clip-path="url(#aE)" d="m0 0 1.488-1.325" transform="matrix(1.3333333 0 0 -1.3333333 144.19853 69.6068)"/><path clip-path="url(#aF)" d="m0 0 1.487-1.325" transform="matrix(1.3333333 0 0 -1.3333333 142.87693 69.6068)"/><path clip-path="url(#aG)" d="m0 0 1.487-1.325" transform="matrix(1.3333333 0 0 -1.3333333 141.55467 69.6068)"/><path clip-path="url(#aH)" d="m0 0 1.488-1.325" transform="matrix(1.3333333 0 0 -1.3333333 140.2324 69.6068)"/><path clip-path="url(#aI)" d="m0 0 1.487-1.325" transform="matrix(1.3333333 0 0 -1.3333333 138.9108 69.6068)"/><path clip-path="url(#aJ)" d="m0 0 1.488-1.325" transform="matrix(1.3333333 0 0 -1.3333333 137.58853 69.6068)"/><path clip-path="url(#aK)" d="m0 0 1.487-1.325" transform="matrix(1.3333333 0 0 -1.3333333 142.87693 69.6068)"/><path clip-path="url(#aL)" d="m0 0 1.487-1.325" transform="matrix(1.3333333 0 0 -1.3333333 136.26693 69.6068)"/><path clip-path="url(#aM)" d="m0 0 1.487-1.325" transform="matrix(1.3333333 0 0 -1.3333333 134.94467 69.6068)"/><path clip-path="url(#aN)" d="m0 0 1.488-1.325" transform="matrix(1.3333333 0 0 -1.3333333 133.6224 69.6068)"/><path clip-path="url(#aO)" d="m0 0 1.488-1.325" transform="matrix(1.3333333 0 0 -1.3333333 132.30013 69.6068)"/><path clip-path="url(#aP)" d="m0 0-1.488-1.325" transform="matrix(1.3333333 0 0 -1.3333333 134.28387 69.6068)"/><path clip-path="url(#aQ)" d="m0 0-1.488-1.325" transform="matrix(1.3333333 0 0 -1.3333333 135.60613 69.6068)"/><path clip-path="url(#aR)" d="m0 0-1.487-1.325" transform="matrix(1.3333333 0 0 -1.3333333 136.92773 69.6068)"/><path clip-path="url(#aS)" d="m0 0-1.487-1.325" transform="matrix(1.3333333 0 0 -1.3333333 138.25 69.6068)"/><path clip-path="url(#aT)" d="m0 0-1.488-1.325" transform="matrix(1.3333333 0 0 -1.3333333 139.57227 69.6068)"/><path clip-path="url(#aU)" d="m0 0-1.487-1.325" transform="matrix(1.3333333 0 0 -1.3333333 140.89387 69.6068)"/><path clip-path="url(#aV)" d="m0 0-1.488-1.325" transform="matrix(1.3333333 0 0 -1.3333333 142.21613 69.6068)"/><path clip-path="url(#aW)" d="m0 0-1.487-1.325" transform="matrix(1.3333333 0 0 -1.3333333 143.53773 69.6068)"/><path clip-path="url(#aX)" d="m0 0-1.487-1.325" transform="matrix(1.3333333 0 0 -1.3333333 144.86 69.6068)"/><path clip-path="url(#aY)" d="m0 0-1.488-1.325" transform="matrix(1.3333333 0 0 -1.3333333 146.18227 69.6068)"/><path clip-path="url(#aZ)" d="m0 0-1.487-1.325" transform="matrix(1.3333333 0 0 -1.3333333 147.50387 69.6068)"/><path clip-path="url(#a0)" d="m0 0-1.487-1.325" transform="matrix(1.3333333 0 0 -1.3333333 148.82613 69.6068)"/><path clip-path="url(#a1)" d="m0 0-1.487-1.325" transform="matrix(1.3333333 0 0 -1.3333333 143.53773 69.6068)"/><path clip-path="url(#a2)" d="m0 0-1.487-1.325" transform="matrix(1.3333333 0 0 -1.3333333 150.14773 69.6068)"/><path clip-path="url(#a3)" d="m0 0-1.487-1.325" transform="matrix(1.3333333 0 0 -1.3333333 151.47 69.6068)"/><path clip-path="url(#a4)" d="m0 0-1.487-1.325" transform="matrix(1.3333333 0 0 -1.3333333 152.79227 69.6068)"/><path clip-path="url(#a5)" d="m0 0-1.487-1.325" transform="matrix(1.3333333 0 0 -1.3333333 154.11387 69.6068)"/><path clip-path="url(#a6)" d="m0 0 1.487-1.33" transform="matrix(1.3333333 0 0 -1.3333333 152.13147 79.619733)"/><path clip-path="url(#a7)" d="m0 0 1.487-1.33" transform="matrix(1.3333333 0 0 -1.3333333 150.8092 79.619733)"/><path clip-path="url(#a8)" d="m0 0 1.487-1.33" transform="matrix(1.3333333 0 0 -1.3333333 149.4876 79.619733)"/><path clip-path="url(#a9)" d="m0 0 1.487-1.33" transform="matrix(1.3333333 0 0 -1.3333333 148.16533 79.619733)"/><path clip-path="url(#ba)" d="m0 0 1.487-1.33" transform="matrix(1.3333333 0 0 -1.3333333 146.84307 79.619733)"/><path clip-path="url(#bb)" d="m0 0 1.487-1.33" transform="matrix(1.3333333 0 0 -1.3333333 145.52147 79.619733)"/><path clip-path="url(#bc)" d="m0 0 1.488-1.33" transform="matrix(1.3333333 0 0 -1.3333333 144.19853 79.619733)"/><path clip-path="url(#bd)" d="m0 0 1.487-1.33" transform="matrix(1.3333333 0 0 -1.3333333 142.87693 79.619733)"/><path clip-path="url(#be)" d="m0 0 1.487-1.33" transform="matrix(1.3333333 0 0 -1.3333333 141.55467 79.619733)"/><path clip-path="url(#bf)" d="m0 0 1.488-1.33" transform="matrix(1.3333333 0 0 -1.3333333 140.2324 79.619733)"/><path clip-path="url(#bg)" d="m0 0 1.487-1.33" transform="matrix(1.3333333 0 0 -1.3333333 138.9108 79.619733)"/><path clip-path="url(#bh)" d="m0 0 1.488-1.33" transform="matrix(1.3333333 0 0 -1.3333333 137.58853 79.619733)"/><path clip-path="url(#bi)" d="m0 0 1.487-1.33" transform="matrix(1.3333333 0 0 -1.3333333 142.87693 79.619733)"/><path clip-path="url(#bj)" d="m0 0 1.487-1.33" transform="matrix(1.3333333 0 0 -1.3333333 136.26693 79.619733)"/><path clip-path="url(#bk)" d="m0 0 1.487-1.33" transform="matrix(1.3333333 0 0 -1.3333333 134.94467 79.619733)"/><path clip-path="url(#bl)" d="m0 0 1.488-1.33" transform="matrix(1.3333333 0 0 -1.3333333 133.6224 79.619733)"/><path clip-path="url(#bm)" d="m0 0 1.488-1.33" transform="matrix(1.3333333 0 0 -1.3333333 132.30013 79.619733)"/><path clip-path="url(#bn)" d="m0 0-1.488-1.33" transform="matrix(1.3333333 0 0 -1.3333333 134.28387 79.619733)"/><path clip-path="url(#bo)" d="m0 0-1.488-1.33" transform="matrix(1.3333333 0 0 -1.3333333 135.60613 79.619733)"/><path clip-path="url(#bp)" d="m0 0-1.487-1.33" transform="matrix(1.3333333 0 0 -1.3333333 136.92773 79.619733)"/><path clip-path="url(#bq)" d="m0 0-1.487-1.33" transform="matrix(1.3333333 0 0 -1.3333333 138.25 79.619733)"/><path clip-path="url(#br)" d="m0 0-1.488-1.33" transform="matrix(1.3333333 0 0 -1.3333333 139.57227 79.619733)"/><path clip-path="url(#bs)" d="m0 0-1.487-1.33" transform="matrix(1.3333333 0 0 -1.3333333 140.89387 79.619733)"/><path clip-path="url(#bt)" d="m0 0-1.488-1.33" transform="matrix(1.3333333 0 0 -1.3333333 142.21613 79.619733)"/><path clip-path="url(#bu)" d="m0 0-1.487-1.33" transform="matrix(1.3333333 0 0 -1.3333333 143.53773 79.619733)"/><path clip-path="url(#bv)" d="m0 0-1.487-1.33" transform="matrix(1.3333333 0 0 -1.3333333 144.86 79.619733)"/><path clip-path="url(#bw)" d="m0 0-1.488-1.33" transform="matrix(1.3333333 0 0 -1.3333333 146.18227 79.619733)"/><path clip-path="url(#bx)" d="m0 0-1.487-1.33" transform="matrix(1.3333333 0 0 -1.3333333 147.50387 79.619733)"/><path clip-path="url(#by)" d="m0 0-1.487-1.33" transform="matrix(1.3333333 0 0 -1.3333333 148.82613 79.619733)"/><path clip-path="url(#bz)" d="m0 0-1.487-1.33" transform="matrix(1.3333333 0 0 -1.3333333 143.53773 79.619733)"/><path clip-path="url(#bA)" d="m0 0-1.487-1.33" transform="matrix(1.3333333 0 0 -1.3333333 150.14773 79.619733)"/><path clip-path="url(#bB)" d="m0 0-1.487-1.33" transform="matrix(1.3333333 0 0 -1.3333333 151.47 79.619733)"/><path clip-path="url(#bC)" d="m0 0-1.487-1.33" transform="matrix(1.3333333 0 0 -1.3333333 152.79227 79.619733)"/><path clip-path="url(#bD)" d="m0 0-1.487-1.33" transform="matrix(1.3333333 0 0 -1.3333333 154.11387 79.619733)"/></g><path clip-path="url(#bE)" d="m0 0c-24.057-23.525-34.319-26.5-29.503-28.395s20.308 10.245 36.428 26.375c16.12 16.125 25.99 30.478 21.175 32.374s-2.515-5.332-28.1-30.354" stroke-width=".424" transform="matrix(1.3333333 0 0 -1.3333333 84.339867 98.080133)"/><path clip-path="url(#bF)" d="m0 0 8.426-2.21c-7.93-7.515-16.854-10.61-19.332-9.285-2.479 1.325 4.461 4.42 10.906 11.495" stroke-width=".33" transform="matrix(1.3333333 0 0 -1.3333333 57.338533 120.87307)"/><path clip-path="url(#bG)" d="m0 0 6.94-1.77c-7.726-7.225-15.368-9.28-17.345-8.4-1.989.885 4.127 3.37 10.405 10.17" stroke-width=".33" transform="matrix(1.3333333 0 0 -1.3333333 57.338533 122.05333)"/></g><path clip-path="url(#bH)" d="m0 0c-.02-.115-.075-.62-.125-.82 0-.28-.03-.49-.06-.71-.08-.19-.065-.365-.31-.435-.165-.23-.27-.29-.49-.385-.15-.115-.38-.23-.62-.325-.245-.095-.47-.105-.735-.055-.22.135-.375.27-.555.38-.045.175-.08.43-.125.6.065-.175.115-.455.125-.705-.025-.275-.125-.395-.245-.6" fill="none" stroke-width=".33" transform="matrix(1.3333333 0 0 -1.3333333 91.86 96.7064)"/><path clip-path="url(#bI)" d="m0 0c-.02.015-.04.035-.06.055.145-.13.085-.07-.25.105-.235.11-.49.17-.8.22h-.86c-.335 0-.56-.045-.8-.11-.175-.155-.435-.24-.615-.38-.19-.115-.27-.25-.37-.435-.17-.15-.28-.38-.435-.495-.065-.25-.21-.24-.305-.435.29-.02.525-.055.675-.215.26-.12-.215.115-.305.215-.205.055-.255.11-.555.11-.28.08-.45-.065-.74-.11-.165-.085-.215-.11-.43-.11" fill="none" stroke-width=".33" transform="matrix(1.3333333 0 0 -1.3333333 88.820267 101.58013)"/><path clip-path="url(#bJ)" d="m0 0c-.125-.005-.7-.1-.925 0-.25.06-.4.18-.555.385-.075.145 0-.265 0-.44-.025-.32-.135-.325-.305-.545-.18-.1-.37-.245-.555-.325-.155-.12-.345-.2-.555-.275-.185-.075-.405-.155-.555-.27-.205-.13-.185-.29-.305-.49.02-.27.07-.42.245-.55.07-.18.235-.365.37-.49.15-.25.32-.365-.065-.435-.21-.08-.325-.015-.55 0" fill="none" stroke-width=".33" transform="matrix(1.3333333 0 0 -1.3333333 84.386667 105.22)"/><path clip-path="url(#bK)" d="m0 0c-.15.03-.69.19-.925.27h-.86c-.335-.02-.4-.11-.68-.215-.18-.165-.305-.28-.555-.385-.13-.15-.39-.405-.49-.6-.075-.185-.125-.435-.125-.71.005-.315.1-.37.125-.655.07-.23.18-.445.37-.65.025-.07.045-.09.12-.11" fill="none" stroke-width=".33" transform="matrix(1.3333333 0 0 -1.3333333 79.2136 110.30667)"/><path clip-path="url(#bL)" d="m0 0c-.025 0-.085-.14-.175-.26-.195-.2-.22-.215-.525-.215-.27.01-.245.105-.435.175-.09.135-.205.245-.305.43-.07.11-.135.285-.22.385-.08.13-.18.225-.265.345-.08.035-.11.07-.215.085.25-.04.27-.125.435-.255.075-.125.155-.25.22-.39.025-.185.085-.33.085-.56 0-.235 0-.405-.085-.6-.105-.11-.18-.22-.305-.305-.105-.095-.23-.225-.31-.34-.135-.085-.235-.155-.39-.26-.135-.075-.275-.155-.48-.175-.26.02-.335.09-.525.175-.165.12-.295.195-.44.3-.115.08-.23.235-.305.345-.235.06-.385.035-.525-.085-.12-.08-.225-.185-.305-.3-.075-.035-.19-.14-.265-.175" fill="none" stroke-width=".33" transform="matrix(1.3333333 0 0 -1.3333333 75.300133 115.33333)"/><path clip-path="url(#bM)" d="m0 0c.07-.03.32-.205.435-.27.07-.225.18-.35.215-.59.06-.235.055-.49.055-.755-.06-.275-.175-.475-.27-.695-.175-.12-.26-.2-.49-.325-.215-.03-.43-.055-.705-.055-.17-.055-.49-.08-.655 0-.24.035-.421.13-.597.215-.201.115-.324.22-.544.325-.107.155-.272.295-.435.485-.135.18-.235.28-.326.48.08-.23.202-.43.272-.645.123-.225.195-.31.217-.59.076-.225.055-.495.055-.75-.024-.175-.037-.505-.109-.645v-.165" fill="none" stroke-width=".33" transform="matrix(1.3333333 0 0 -1.3333333 68.880267 117.7064)"/><path clip-path="url(#bN)" d="m0 0v-.08c0 .21-.005.105.087-.31.165-.185.553-.235.875-.155.283.205.274.365.787.465.496-.03.685-.16.962-.31.329-.145.481-.22.7-.545.108-.265.169-.445-.176-.545-.273-.175-.598-.27-.962-.315-.403 0-.694.045-.874-.155-.277-.255-.262-.41-.262-.855-.094-.14-.112-.55-.175-.705-.243-.1-.386-.155-.787-.155-.094.24-.199.675-.262.935-.069.28-.09.67-.263.86-.163.21-.372.4-.612.545-.107.135-.311.245-.525.31.343-.155.392-.325.437-.7-.301-.135-.382-.23-.874-.235-.484.035-.601.145-.787.39-.034-.39-.174-.52-.262-.86-.18-.235-.256-.475-.438-.775.078-.38.244-.395.263-.86.113-.305.101-.595.349-.78.111-.12.195-.145.438-.155-.507 0-.802.05-1.137.235-.26.14-.456.32-.7.465-.309.2-.692.385-1.049.47-.404 0-.695.04-.875-.155-.247-.16-.414-.43-.524-.78-.081-.405-.112-.675.087-.935.148-.305.182-.42 0-.78-.203-.255-.505-.285-.962-.39-.333.015-.653.08-.874.155" fill="none" stroke-width=".33" transform="matrix(1.3333333 0 0 -1.3333333 58.161467 124.1536)"/><path clip-path="url(#bO)" d="m0 0c10.675 18.429 17.76 34.111 15.81 35.007-1.945.895-12.185-13.332-22.86-31.759z" fill="#fff" stroke-width=".335" transform="matrix(1.3333333 0 0 -1.3333333 120.94013 69.773467)"/><path clip-path="url(#bP)" d="m0 0c10.295 17.778 17.39 32.787 15.835 33.503-1.555.717-11.175-13.128-21.475-30.905" fill="#fff" stroke-width=".294" transform="matrix(1.3333333 0 0 -1.3333333 120 69.339867)"/><path clip-path="url(#bQ)" d="m0 0c-1.255-2.079-2.58-4.454-3.87-6.676l5.64-2.598c1.285 2.224 2.69 4.565 3.865 6.677z" fill="#fff" stroke-width=".334" transform="matrix(1.3333333 0 0 -1.3333333 117.64 56.974)"/><path clip-path="url(#bR)" d="m0 0c-1.25-2.079-2.125-3.669-3.41-5.891l4.225-1.947c1.29 2.221 2.24 3.777 3.415 5.89z" fill="#fff" stroke-width=".334" transform="matrix(1.3333333 0 0 -1.3333333 118.27347 57.929733)"/><path clip-path="url(#bS)" d="m0 0-2.819 1.298-2.502-4.32 2.819-1.298z" fill="#fff" stroke-width=".335" transform="matrix(1.3333333 0 0 -1.3333333 122.36333 61.14)"/><path clip-path="url(#bT)" d="m0 0-5.32-3.021" fill="#fff" stroke-width=".334" transform="matrix(1.3333333 0 0 -1.3333333 122.36653 61.141333)"/><path clip-path="url(#bU)" d="m0 0-.315 5.617" fill="#fff" stroke-width=".334" transform="matrix(1.3333333 0 0 -1.3333333 119.02667 66.899733)"/><path clip-path="url(#bV)" d="m0 0-2.82 1.298" fill="#fff" stroke-width=".334" transform="matrix(1.3333333 0 0 -1.3333333 139.35347 31.817733)"/><path clip-path="url(#bW)" d="m0 0c-.439-.11-.715-.513-.616-.898.099-.386.535-.608.975-.498.439.111.715.514.616.899-.1.385-.536.608-.975.497" fill="#db161b" transform="matrix(1.3333333 0 0 -1.3333333 138.87893 27.244133)"/><path clip-path="url(#bX)" d="m0 0c24.057-23.525 34.319-26.5 29.503-28.395s-20.308 10.245-36.428 26.375c-16.12 16.125-25.99 30.478-21.175 32.374s2.515-5.332 28.1-30.354" fill="#fff" stroke-width=".424" transform="matrix(1.3333333 0 0 -1.3333333 115.66013 98.080133)"/><g stroke-width=".33"><path clip-path="url(#bY)" d="m0 0-8.426-2.21c7.93-7.515 16.854-10.61 19.332-9.285 2.479 1.325-4.461 4.42-10.906 11.495" fill="#fff" transform="matrix(1.3333333 0 0 -1.3333333 142.66147 120.87307)"/><path clip-path="url(#bZ)" d="m0 0-6.94-1.77c7.726-7.225 15.368-9.28 17.345-8.4 1.989.885-4.127 3.37-10.405 10.17" fill="#fff" transform="matrix(1.3333333 0 0 -1.3333333 142.66147 122.05333)"/><path clip-path="url(#b0)" d="m0 0c.02-.115.075-.62.125-.82 0-.28.03-.49.06-.71.08-.19.065-.365.31-.435.165-.23.27-.29.49-.385.15-.115.38-.23.62-.325.245-.095.47-.105.735-.055.22.135.375.27.555.38.045.175.08.43.125.6-.065-.175-.115-.455-.125-.705.025-.275.125-.395.245-.6" fill="none" transform="matrix(1.3333333 0 0 -1.3333333 108.14 96.7064)"/><path clip-path="url(#b1)" d="m0 0c.02.015.04.035.06.055-.145-.13-.085-.07.25.105.235.11.49.17.8.22h.86c.335 0 .56-.045.8-.11.175-.155.435-.24.615-.38.19-.115.27-.25.37-.435.17-.15.28-.38.435-.495.065-.25.21-.24.305-.435-.29-.02-.525-.055-.675-.215-.26-.12.215.115.305.215.205.055.255.11.555.11.28.08.45-.065.74-.11.165-.085.215-.11.43-.11" fill="none" transform="matrix(1.3333333 0 0 -1.3333333 111.17973 101.58013)"/><path clip-path="url(#b2)" d="m0 0c.125-.005.7-.1.925 0 .25.06.4.18.555.385.075.145 0-.265 0-.44.025-.32.135-.325.305-.545.18-.1.37-.245.555-.325.155-.12.345-.2.555-.275.185-.075.405-.155.555-.27.205-.13.185-.29.305-.49-.02-.27-.07-.42-.245-.55-.07-.18-.235-.365-.37-.49-.15-.25-.32-.365.065-.435.21-.08.325-.015.55 0" fill="none" transform="matrix(1.3333333 0 0 -1.3333333 115.61333 105.22)"/><path clip-path="url(#b3)" d="m0 0c.15.03.69.19.925.27h.86c.335-.02.4-.11.68-.215.18-.165.305-.28.555-.385.13-.15.39-.405.49-.6.075-.185.125-.435.125-.71-.005-.315-.1-.37-.125-.655-.07-.23-.18-.445-.37-.65-.025-.07-.045-.09-.12-.11" fill="none" transform="matrix(1.3333333 0 0 -1.3333333 120.7864 110.30667)"/><path clip-path="url(#b4)" d="m0 0c.025 0 .085-.14.175-.26.195-.2.22-.215.525-.215.27.01.245.105.435.175.09.135.205.245.305.43.07.11.135.285.22.385.08.13.18.225.265.345.08.035.11.07.215.085-.25-.04-.27-.125-.435-.255-.075-.125-.155-.25-.22-.39-.025-.185-.085-.33-.085-.56 0-.235 0-.405.085-.6.105-.11.18-.22.305-.305.105-.095.23-.225.31-.34.135-.085.235-.155.39-.26.135-.075.275-.155.48-.175.26.02.335.09.525.175.165.12.295.195.44.3.115.08.23.235.305.345.235.06.385.035.525-.085.12-.08.225-.185.305-.3.075-.035.19-.14.265-.175" fill="none" transform="matrix(1.3333333 0 0 -1.3333333 124.69987 115.33333)"/><path clip-path="url(#b5)" d="m0 0c-.07-.03-.32-.205-.435-.27-.07-.225-.18-.35-.215-.59-.06-.235-.055-.49-.055-.755.06-.275.175-.475.27-.695.175-.12.26-.2.49-.325.215-.03.43-.055.705-.055.17-.055.49-.08.655 0 .24.035.421.13.597.215.201.115.324.22.544.325.107.155.272.295.435.485.135.18.235.28.326.48-.08-.23-.202-.43-.272-.645-.123-.225-.195-.31-.217-.59-.076-.225-.055-.495-.055-.75.024-.175.037-.505.109-.645v-.165" fill="none" transform="matrix(1.3333333 0 0 -1.3333333 131.11973 117.7064)"/><path clip-path="url(#b6)" d="m0 0v-.08c0 .21.005.105-.087-.31-.165-.185-.553-.235-.875-.155-.283.205-.274.365-.787.465-.496-.03-.685-.16-.962-.31-.329-.145-.481-.22-.7-.545-.108-.265-.169-.445.176-.545.273-.175.598-.27.962-.315.403 0 .694.045.874-.155.277-.255.262-.41.262-.855.094-.14.112-.55.175-.705.243-.1.386-.155.787-.155.094.24.199.675.262.935.069.28.09.67.263.86.163.21.372.4.612.545.107.135.311.245.525.31-.343-.155-.392-.325-.437-.7.301-.135.382-.23.874-.235.484.035.601.145.787.39.034-.39.174-.52.262-.86.18-.235.256-.475.438-.775-.078-.38-.244-.395-.263-.86-.113-.305-.101-.595-.349-.78-.111-.12-.195-.145-.438-.155.507 0 .802.05 1.137.235.26.14.456.32.7.465.309.2.692.385 1.049.47.404 0 .695.04.875-.155.247-.16.414-.43.524-.78.081-.405.112-.675-.087-.935-.148-.305-.182-.42 0-.78.203-.255.505-.285.962-.39.333.015.653.08.874.155" fill="none" transform="matrix(1.3333333 0 0 -1.3333333 141.83853 124.1536)"/></g><path clip-path="url(#b7)" d="m0 0c-10.675 18.429-17.76 34.111-15.81 35.007 1.945.895 12.185-13.332 22.86-31.759z" fill="#fff" stroke-width=".335" transform="matrix(1.3333333 0 0 -1.3333333 79.059867 69.773467)"/><path clip-path="url(#b8)" d="m0 0c-10.295 17.778-17.39 32.787-15.835 33.503 1.555.717 11.175-13.128 21.475-30.905" fill="#fff" stroke-width=".294" transform="matrix(1.3333333 0 0 -1.3333333 80 69.339867)"/><path clip-path="url(#b9)" d="m0 0c1.255-2.079 2.58-4.454 3.87-6.676l-5.64-2.598c-1.285 2.224-2.69 4.565-3.865 6.677z" fill="#fff" stroke-width=".334" transform="matrix(1.3333333 0 0 -1.3333333 82.36 56.974)"/><path clip-path="url(#ca)" d="m0 0c1.25-2.079 2.125-3.669 3.41-5.891l-4.225-1.947c-1.29 2.221-2.24 3.777-3.415 5.89z" fill="#fff" stroke-width=".334" transform="matrix(1.3333333 0 0 -1.3333333 81.726533 57.929733)"/><path clip-path="url(#cb)" d="m0 0 2.819 1.298 2.502-4.32-2.819-1.298z" fill="#fff" stroke-width=".335" transform="matrix(1.3333333 0 0 -1.3333333 77.636667 61.14)"/><path clip-path="url(#cc)" d="m0 0 5.32-3.021" fill="#fff" stroke-width=".334" transform="matrix(1.3333333 0 0 -1.3333333 77.633467 61.141333)"/><path clip-path="url(#cd)" d="m0 0 .315 5.617" fill="#fff" stroke-width=".334" transform="matrix(1.3333333 0 0 -1.3333333 80.973333 66.899733)"/><path clip-path="url(#ce)" d="m0 0 2.82 1.298" fill="#fff" stroke-width=".334" transform="matrix(1.3333333 0 0 -1.3333333 60.646533 31.817733)"/><path clip-path="url(#cf)" d="m0 0c.439-.11.715-.513.616-.898-.099-.386-.535-.608-.975-.498-.439.111-.715.514-.616.899.1.385.536.608.975.497" fill="#db161b" transform="matrix(1.3333333 0 0 -1.3333333 61.121067 27.244133)"/><g fill="#fff"><path clip-path="url(#cg)" d="m0 0c0-15.471.09-21.301-1.05-22.101-1.08-.855-31.174 0-31.174-4.42s24.789-8.84 32.224-8.84c9.915 0 14.875 4.42 14.875 13.26v22.101z" stroke-width=".305" transform="matrix(1.3333333 0 0 -1.3333333 90.1732 56.638667)"/><path clip-path="url(#ch)" d="m0 0v-2.21c4.96-.737 9.915-.737 14.875 0v2.21c-4.96-.737-9.915-.737-14.875 0" stroke-width=".264" transform="matrix(1.3333333 0 0 -1.3333333 90.1732 62.531867)"/><path clip-path="url(#ci)" d="m0 0v-2.21c4.96-.736 9.915-.736 14.875 0v2.21c-4.96-.736-9.915-.736-14.875 0" stroke-width=".264" transform="matrix(1.3333333 0 0 -1.3333333 90.1732 56.638667)"/><path clip-path="url(#cj)" d="m0 0v-2.21c4.96-.737 9.915-.737 14.875 0v2.21c-4.96-.736-9.915-.736-14.875 0" stroke-width=".264" transform="matrix(1.3333333 0 0 -1.3333333 90.1732 59.585333)"/><path clip-path="url(#ck)" d="m0 0v-2.211c4.96-.735 9.915-.735 14.875 0v2.211c-4.96-.737-9.915-.737-14.875 0" stroke-width=".264" transform="matrix(1.3333333 0 0 -1.3333333 90.1732 65.478533)"/><path clip-path="url(#cl)" d="m0 0c.374 0 .676-.213.676-.477 0-.263-.302-.477-.676-.477-.373 0-.676.214-.676.477 0 .264.303.477.676.477" stroke-width="4.463" transform="matrix(1.3333333 0 0 -1.3333333 91.074933 60.625067)"/><path clip-path="url(#cm)" d="m0 0c.373 0 .676-.213.676-.477 0-.263-.303-.477-.676-.477-.374 0-.676.214-.676.477 0 .264.302.477.676.477" stroke-width="4.463" transform="matrix(1.3333333 0 0 -1.3333333 94.6804 60.942667)"/><path clip-path="url(#cn)" d="m0 0c.374 0 .676-.214.676-.477s-.302-.477-.676-.477-.676.214-.676.477.302.477.676.477" stroke-width="4.463" transform="matrix(1.3333333 0 0 -1.3333333 98.2864 61.2604)"/><path clip-path="url(#co)" d="m0 0c.373 0 .676-.214.676-.477s-.303-.477-.676-.477c-.374 0-.676.214-.676.477s.302.477.676.477" stroke-width="4.463" transform="matrix(1.3333333 0 0 -1.3333333 101.89187 61.2604)"/><path clip-path="url(#cp)" d="m0 0c.374 0 .676-.213.676-.477 0-.263-.302-.477-.676-.477-.373 0-.676.214-.676.477 0 .264.303.477.676.477" stroke-width="4.463" transform="matrix(1.3333333 0 0 -1.3333333 105.4968 60.942667)"/><path clip-path="url(#cq)" d="m0 0c.374 0 .676-.213.676-.477 0-.263-.302-.477-.676-.477-.373 0-.676.214-.676.477 0 .264.303.477.676.477" stroke-width="4.463" transform="matrix(1.3333333 0 0 -1.3333333 109.1028 60.625067)"/><g stroke-width=".264"><path clip-path="url(#cr)" d="m0 0 14.875-11.935" transform="matrix(1.3333333 0 0 -1.3333333 90.1732 71.373067)"/><path clip-path="url(#cs)" d="m0 0 13.39-10.605" transform="matrix(1.3333333 0 0 -1.3333333 92.1536 71.373067)"/><path clip-path="url(#ct)" d="m0 0 11.405-8.84" transform="matrix(1.3333333 0 0 -1.3333333 94.800133 71.960267)"/><path clip-path="url(#cu)" d="m0 0 9.915-7.515" transform="matrix(1.3333333 0 0 -1.3333333 96.7864 71.960267)"/><path clip-path="url(#cv)" d="m0 0 8.43-6.19" transform="matrix(1.3333333 0 0 -1.3333333 98.766933 71.960267)"/><path clip-path="url(#cw)" d="m0 0 6.945-4.865" transform="matrix(1.3333333 0 0 -1.3333333 100.7468 71.960267)"/><path clip-path="url(#cx)" d="m0 0 5.455-3.535" transform="matrix(1.3333333 0 0 -1.3333333 102.73307 71.960267)"/><path clip-path="url(#cy)" d="m0 0 3.97-2.655" transform="matrix(1.3333333 0 0 -1.3333333 104.7136 71.960267)"/><path clip-path="url(#cz)" d="m0 0 2.48-1.77" transform="matrix(1.3333333 0 0 -1.3333333 106.69987 71.960267)"/><path clip-path="url(#cA)" d="m0 0 .995-.885" transform="matrix(1.3333333 0 0 -1.3333333 108.67973 71.960267)"/><path clip-path="url(#cB)" d="m0 0 14.875-11.935" transform="matrix(1.3333333 0 0 -1.3333333 90.1732 73.14)"/><path clip-path="url(#cC)" d="m0 0-16.36-13.26" transform="matrix(1.3333333 0 0 -1.3333333 110.00653 71.373067)"/><path clip-path="url(#cD)" d="m0 0-14.375-11.49" transform="matrix(1.3333333 0 0 -1.3333333 108.02013 71.373067)"/><path clip-path="url(#cE)" d="m0 0-11.405-8.84" transform="matrix(1.3333333 0 0 -1.3333333 105.38027 71.960267)"/><path clip-path="url(#cF)" d="m0 0-9.915-7.515" transform="matrix(1.3333333 0 0 -1.3333333 103.3932 71.960267)"/><path clip-path="url(#cG)" d="m0 0-8.43-6.19" transform="matrix(1.3333333 0 0 -1.3333333 101.41347 71.960267)"/><path clip-path="url(#cH)" d="m0 0-6.94-4.865" transform="matrix(1.3333333 0 0 -1.3333333 99.4264 71.960267)"/><path clip-path="url(#cI)" d="m0 0-5.455-3.535" transform="matrix(1.3333333 0 0 -1.3333333 97.446667 71.960267)"/><path clip-path="url(#cJ)" d="m0 0-3.965-2.655" transform="matrix(1.3333333 0 0 -1.3333333 95.460267 71.960267)"/><path clip-path="url(#cK)" d="m0 0-2.48-1.77" transform="matrix(1.3333333 0 0 -1.3333333 93.479867 71.960267)"/><path clip-path="url(#cL)" d="m0 0-.99-.885" transform="matrix(1.3333333 0 0 -1.3333333 91.493467 71.960267)"/><path clip-path="url(#cM)" d="m0 0-16.36-13.26" transform="matrix(1.3333333 0 0 -1.3333333 110.00653 73.14)"/><path clip-path="url(#cN)" d="m0 0-16.36-13.26" transform="matrix(1.3333333 0 0 -1.3333333 110.00653 74.906933)"/><path clip-path="url(#cO)" d="m0 0-16.36-13.265" transform="matrix(1.3333333 0 0 -1.3333333 110.00653 76.6732)"/><path clip-path="url(#cP)" d="m0 0-16.36-13.26" transform="matrix(1.3333333 0 0 -1.3333333 110.00653 78.446667)"/><path clip-path="url(#cQ)" d="m0 0-16.36-13.26" transform="matrix(1.3333333 0 0 -1.3333333 110.00653 80.2136)"/><path clip-path="url(#cR)" d="m0 0-16.36-13.26" transform="matrix(1.3333333 0 0 -1.3333333 110.00653 81.979867)"/><path clip-path="url(#cS)" d="m0 0-16.36-13.26" transform="matrix(1.3333333 0 0 -1.3333333 110.00653 83.7468)"/><path clip-path="url(#cT)" d="m0 0-16.36-13.26" transform="matrix(1.3333333 0 0 -1.3333333 110.00653 85.520133)"/><path clip-path="url(#cU)" d="m0 0-15.37-12.375" transform="matrix(1.3333333 0 0 -1.3333333 110.00653 87.2864)"/><path clip-path="url(#cV)" d="m0 0-13.885-11.05" transform="matrix(1.3333333 0 0 -1.3333333 110.00653 89.053333)"/><path clip-path="url(#cW)" d="m0 0-10.905-8.84" transform="matrix(1.3333333 0 0 -1.3333333 109.33987 91.413467)"/><path clip-path="url(#cX)" d="m0 0-8.92-7.075" transform="matrix(1.3333333 0 0 -1.3333333 108.67973 93.766933)"/><path clip-path="url(#cY)" d="m0 0-4.46-3.535" transform="matrix(1.3333333 0 0 -1.3333333 107.36 96.7136)"/><path clip-path="url(#cZ)" d="m0 0 14.375-11.495" transform="matrix(1.3333333 0 0 -1.3333333 90.1732 74.906933)"/><path clip-path="url(#c0)" d="m0 0 14.375-11.495" transform="matrix(1.3333333 0 0 -1.3333333 90.1732 76.6732)"/><path clip-path="url(#c1)" d="m0 0 13.88-11.05" transform="matrix(1.3333333 0 0 -1.3333333 90.1732 78.446667)"/><path clip-path="url(#c2)" d="m0 0 13.88-11.05" transform="matrix(1.3333333 0 0 -1.3333333 90.1732 80.2136)"/><path clip-path="url(#c3)" d="m0 0 13.385-10.61" transform="matrix(1.3333333 0 0 -1.3333333 90.1732 81.979867)"/><path clip-path="url(#c4)" d="m0 0 13.385-10.61" transform="matrix(1.3333333 0 0 -1.3333333 89.513067 83.160133)"/><path clip-path="url(#c5)" d="m0 0 12.395-9.725" transform="matrix(1.3333333 0 0 -1.3333333 89.513067 84.9264)"/><path clip-path="url(#c6)" d="m0 0 12.395-9.725" transform="matrix(1.3333333 0 0 -1.3333333 88.853467 86.1068)"/><path clip-path="url(#c7)" d="m0 0 11.895-9.28" transform="matrix(1.3333333 0 0 -1.3333333 88.193333 87.2864)"/><path clip-path="url(#c8)" d="m0 0 11.4-8.84" transform="matrix(1.3333333 0 0 -1.3333333 88.193333 89.053333)"/><path clip-path="url(#c9)" d="m0 0 9.915-7.955" transform="matrix(1.3333333 0 0 -1.3333333 88.193333 90.820267)"/><path clip-path="url(#da)" d="m0 0v-2.21c4.96-.735 9.915-.735 14.875 0v2.21c-4.96-.735-9.915-.735-14.875 0" transform="matrix(1.3333333 0 0 -1.3333333 90.1732 68.4264)"/><path clip-path="url(#db)" d="m0 0 8.92-7.075" transform="matrix(1.3333333 0 0 -1.3333333 88.193333 92.586533)"/><path clip-path="url(#dc)" d="m0 0 7.93-6.185" transform="matrix(1.3333333 0 0 -1.3333333 88.193333 94.36)"/><path clip-path="url(#dd)" d="m0 0 6.94-5.305" transform="matrix(1.3333333 0 0 -1.3333333 88.193333 96.126933)"/><path clip-path="url(#de)" d="m0 0 4.955-3.98" transform="matrix(1.3333333 0 0 -1.3333333 88.193333 97.8932)"/><path clip-path="url(#df)" d="m0 0 3.965-3.095" transform="matrix(1.3333333 0 0 -1.3333333 88.193333 99.660133)"/><path clip-path="url(#dg)" d="m0 0 2.475-1.77" transform="matrix(1.3333333 0 0 -1.3333333 88.193333 101.4264)"/></g><path clip-path="url(#dh)" d="m0 0c.374 0 .676-.213.676-.477 0-.263-.302-.476-.676-.476-.373 0-.676.213-.676.476 0 .264.303.477.676.477" stroke-width="4.463" transform="matrix(1.3333333 0 0 -1.3333333 91.074933 69.465467)"/><path clip-path="url(#di)" d="m0 0c.373 0 .676-.213.676-.477 0-.263-.303-.477-.676-.477-.374 0-.676.214-.676.477 0 .264.302.477.676.477" stroke-width="4.463" transform="matrix(1.3333333 0 0 -1.3333333 94.6804 69.7832)"/><path clip-path="url(#dj)" d="m0 0c.374 0 .676-.213.676-.477 0-.263-.302-.477-.676-.477s-.676.214-.676.477c0 .264.302.477.676.477" stroke-width="4.463" transform="matrix(1.3333333 0 0 -1.3333333 98.2864 70.100933)"/><path clip-path="url(#dk)" d="m0 0c.373 0 .676-.213.676-.477 0-.263-.303-.477-.676-.477-.374 0-.676.214-.676.477 0 .264.302.477.676.477" stroke-width="4.463" transform="matrix(1.3333333 0 0 -1.3333333 101.89187 70.100933)"/><path clip-path="url(#dl)" d="m0 0c.374 0 .676-.213.676-.477 0-.263-.302-.477-.676-.477-.373 0-.676.214-.676.477 0 .264.303.477.676.477" stroke-width="4.463" transform="matrix(1.3333333 0 0 -1.3333333 105.4968 69.7832)"/><path clip-path="url(#dm)" d="m0 0c.374 0 .676-.213.676-.477 0-.263-.302-.476-.676-.476-.373 0-.676.213-.676.476 0 .264.303.477.676.477" stroke-width="4.463" transform="matrix(1.3333333 0 0 -1.3333333 109.1028 69.465467)"/><path clip-path="url(#dn)" d="m0 0 17.848 9.285" stroke-width=".264" transform="matrix(1.3333333 0 0 -1.3333333 61.75 99.0736)"/><path clip-path="url(#do)" d="m0 0 16.854 8.84" stroke-width=".264" transform="matrix(1.3333333 0 0 -1.3333333 60.427733 98.479867)"/><path clip-path="url(#dp)" d="m0 0 15.369 7.96" stroke-width=".264" transform="matrix(1.3333333 0 0 -1.3333333 59.7676 97.306667)"/><path clip-path="url(#dq)" d="m0 0 13.385 7.075" stroke-width=".264" transform="matrix(1.3333333 0 0 -1.3333333 59.106133 96.126933)"/><path clip-path="url(#dr)" d="m0 0 12.392 6.19" stroke-width=".264" transform="matrix(1.3333333 0 0 -1.3333333 57.783867 94.946667)"/><path clip-path="url(#ds)" d="m0 0 8.426 4.42" stroke-width=".264" transform="matrix(1.3333333 0 0 -1.3333333 58.445333 93.179733)"/><path clip-path="url(#dt)" d="m0 0 6.445 3.535" stroke-width=".264" transform="matrix(1.3333333 0 0 -1.3333333 57.783867 92)"/><path clip-path="url(#du)" d="m0 0 4.462 2.21" stroke-width=".264" transform="matrix(1.3333333 0 0 -1.3333333 57.783867 90.233067)"/><path clip-path="url(#dv)" d="m0 0 16.855 8.84" stroke-width=".264" transform="matrix(1.3333333 0 0 -1.3333333 63.733067 99.660133)"/><path clip-path="url(#dw)" d="m0 0 15.863 8.4" stroke-width=".264" transform="matrix(1.3333333 0 0 -1.3333333 65.716133 100.2532)"/><path clip-path="url(#dx)" d="m0 0 14.87 7.955" stroke-width=".264" transform="matrix(1.3333333 0 0 -1.3333333 67.699867 100.83987)"/><path clip-path="url(#dy)" d="m0 0 12.395 6.63" stroke-width=".264" transform="matrix(1.3333333 0 0 -1.3333333 69.679733 101.4264)"/><path clip-path="url(#dz)" d="m0 0 10.905 5.745" stroke-width=".264" transform="matrix(1.3333333 0 0 -1.3333333 72.3268 101.4264)"/><path clip-path="url(#dA)" d="m0 0 9.42 4.865" stroke-width=".264" transform="matrix(1.3333333 0 0 -1.3333333 74.306667 102.02013)"/><path clip-path="url(#dB)" d="m0 0 7.435 3.975" stroke-width=".264" transform="matrix(1.3333333 0 0 -1.3333333 76.2936 102.6068)"/><path clip-path="url(#dC)" d="m0 0 5.95 3.095" stroke-width=".264" transform="matrix(1.3333333 0 0 -1.3333333 78.9336 102.6068)"/><path clip-path="url(#dD)" d="m0 0 3.965 2.21" stroke-width=".264" transform="matrix(1.3333333 0 0 -1.3333333 81.580133 103.19987)"/><path clip-path="url(#dE)" d="m0 0 2.475 1.33" stroke-width=".264" transform="matrix(1.3333333 0 0 -1.3333333 84.226533 103.19987)"/><path clip-path="url(#dF)" d="m0 0h-2.48c-.825-4.42-.825-8.84 0-13.26h2.48c-.83 4.42-.83 8.84 0 13.26" stroke-width=".264" transform="matrix(1.3333333 0 0 -1.3333333 88.853467 86.1068)"/><path clip-path="url(#dG)" d="m0 0 5.949 4.42" stroke-width=".264" transform="matrix(1.3333333 0 0 -1.3333333 49.852267 94.36)"/><path clip-path="url(#dH)" d="m0 0 5.949-5.305" stroke-width=".264" transform="matrix(1.3333333 0 0 -1.3333333 49.852267 90.233067)"/><path clip-path="url(#dI)" d="m0 0-2.975-.44c-.661-2.8-.661-5.155 0-7.955l2.975-.885c-.661 2.8-.661 6.48 0 9.28" stroke-width=".188" transform="matrix(1.3333333 0 0 -1.3333333 61.75 87.2864)"/><path clip-path="url(#dJ)" d="m0 0v2.229c-2.225-.019-3.715 1.307-3.715 2.652l-7.425-.019c0-1.326-1.485-2.652-3.715-2.652v-2.21z" stroke-width=".323" transform="matrix(1.3333333 0 0 -1.3333333 109.97987 57.817067)"/><path clip-path="url(#dK)" d="m71.875 264.151h6.367v-2.652h-6.367z" stroke-width=".273" transform="matrix(1.3333333 0 0 -1.3333333 0 400)"/><path clip-path="url(#dL)" d="m72.405 266.804h5.306v-2.652h-5.306z" stroke-width=".273" transform="matrix(1.3333333 0 0 -1.3333333 0 400)"/><path clip-path="url(#dM)" d="m72.405 269.456h5.306v-2.652h-5.306z" stroke-width=".273" transform="matrix(1.3333333 0 0 -1.3333333 0 400)"/><path clip-path="url(#dN)" d="m72.935 272.992h4.245v-3.536h-4.245z" stroke-width=".273" transform="matrix(1.3333333 0 0 -1.3333333 0 400)"/><path clip-path="url(#dO)" d="m72.755 276.085h4.611v-3.094h-4.611z" stroke-width=".285" transform="matrix(1.3333333 0 0 -1.3333333 0 400)"/><path clip-path="url(#dP)" d="m0 0c3.395 0 6.147-1.88 6.147-4.199s-2.752-4.199-6.147-4.199c-3.396 0-6.147 1.88-6.147 4.199s2.751 4.199 6.147 4.199" transform="matrix(1.3333333 0 0 -1.3333333 100.41933 22.4564)"/><path clip-path="url(#dQ)" d="m0 0c0-1.16 1.535-3.095 1.535-3.095-1.115-.759-2.915-1.326-4.61-1.326s-3.81.316-4.61 1.326c0 0 1.535 1.935 1.535 3.095 0 1.159-1.535 2.652-1.535 2.652 1.11.76 2.915 1.326 4.61 1.326s3.495-.566 4.61-1.326c0 0-1.535-1.493-1.535-2.652" stroke-width=".269" transform="matrix(1.3333333 0 0 -1.3333333 104.52013 27.759733)"/><path clip-path="url(#dR)" d="m0 0c0-1.16 1.535-3.537 1.535-3.537-1.11-.76-1.89-.884-3.585-.884s-2.785-.126-3.585.884c0 0 1.535 2.377 1.535 3.537 0 1.159-1.535 3.094-1.535 3.094 1.11.76 1.89.884 3.585.884s2.475-.124 3.585-.884c0 0-1.535-1.935-1.535-3.094" stroke-width=".269" transform="matrix(1.3333333 0 0 -1.3333333 103.1536 27.759733)"/><path clip-path="url(#dS)" d="m0 0c.849 0 1.537-.594 1.537-1.326 0-.733-.688-1.326-1.537-1.326s-1.537.593-1.537 1.326c0 .732.688 1.326 1.537 1.326" transform="matrix(1.3333333 0 0 -1.3333333 92.222667 26.582)"/><path clip-path="url(#dT)" d="m0 0c.849 0 1.537-.594 1.537-1.326 0-.733-.688-1.326-1.537-1.326s-1.537.593-1.537 1.326c0 .732.688 1.326 1.537 1.326" transform="matrix(1.3333333 0 0 -1.3333333 108.6152 26.582)"/><path clip-path="url(#dU)" d="m0 0c.849 0 1.537-.594 1.537-1.326 0-.733-.688-1.326-1.537-1.326s-1.537.593-1.537 1.326c0 .732.688 1.326 1.537 1.326" transform="matrix(1.3333333 0 0 -1.3333333 100.41867 26.582)"/><path clip-path="url(#dV)" d="m0 0c.849 0 1.537-.594 1.537-1.326 0-.733-.688-1.326-1.537-1.326s-1.537.593-1.537 1.326c0 .732.688 1.326 1.537 1.326" transform="matrix(1.3333333 0 0 -1.3333333 100.41867 20.6888)"/><path clip-path="url(#dW)" d="m0 0c.879 0 1.592-.594 1.592-1.326 0-.733-.713-1.326-1.592-1.326s-1.592.593-1.592 1.326c0 .732.713 1.326 1.592 1.326" transform="matrix(1.3333333 0 0 -1.3333333 94.418 54.281867)"/><path clip-path="url(#dX)" d="m0 0c.879 0 1.592-.594 1.592-1.326 0-.733-.713-1.326-1.592-1.326s-1.592.593-1.592 1.326c0 .732.713 1.326 1.592 1.326" transform="matrix(1.3333333 0 0 -1.3333333 105.73693 54.281867)"/><path clip-path="url(#dY)" d="m0 0h7.425l-3.71-3.979z" stroke-width=".273" transform="matrix(1.3333333 0 0 -1.3333333 95.126933 51.334)"/><path clip-path="url(#dZ)" d="m0 0c1.172 0 2.122-.792 2.122-1.768 0-.977-.95-1.768-2.122-1.768s-2.123.791-2.123 1.768c0 .976.951 1.768 2.123 1.768" transform="matrix(1.3333333 0 0 -1.3333333 100.07747 53.103467)"/><path clip-path="url(#d0)" d="m0 0h10.165c.341 0 .619-.21.619-.469v-1.714c0-.259-.278-.469-.619-.469h-10.165c-.342 0-.619.21-.619.469v1.714c0 .259.277.469.619.469" stroke-width=".33" transform="matrix(1.3333333 0 0 -1.3333333 90.0052 73.146533)"/></g></g><path clip-path="url(#d1)" d="m0 0c-.825 0-1.49-.825-1.49-1.85v-1.165c0-1.025.665-1.845 1.49-1.845s1.485.82 1.485 1.845v1.165c0 1.025-.66 1.85-1.485 1.85m0 .885c-1.375 0-2.48-1.03-2.48-2.31v-2.01c0-1.28 1.105-2.31 2.48-2.31s2.48 1.03 2.48 2.31v2.01c0 1.28-1.105 2.31-2.48 2.31" fill="#fff" transform="matrix(1.3333333 0 0 -1.3333333 109.01307 71.380267)"/><path clip-path="url(#d2)" d="m0 0c-.825 0-1.49-.825-1.49-1.85v-1.165c0-1.025.665-1.845 1.49-1.845s1.485.82 1.485 1.845v1.165c0 1.025-.66 1.85-1.485 1.85zm0 .885c-1.375 0-2.48-1.03-2.48-2.31v-2.01c0-1.28 1.105-2.31 2.48-2.31s2.48 1.03 2.48 2.31v2.01c0 1.28-1.105 2.31-2.48 2.31z" fill="none" stroke="#db161b" stroke-width=".33" transform="matrix(1.3333333 0 0 -1.3333333 109.01307 71.380267)"/><path clip-path="url(#d3)" d="m0 0c-1.375 0-2.48-1.03-2.48-2.31v-2.895c0-1.28 1.105-2.31 2.48-2.31s2.48 1.03 2.48 2.31v2.895c0 1.28-1.105 2.31-2.48 2.31m0-.885c-.825 0-1.485-.82-1.485-1.845v-2.05c0-1.025.66-1.85 1.485-1.85s1.485.825 1.485 1.85v2.05c0 1.025-.66 1.845-1.485 1.845" fill="#fff" transform="matrix(1.3333333 0 0 -1.3333333 91.8268 69.613333)"/><path clip-path="url(#d4)" d="m0 0c-1.375 0-2.48-1.03-2.48-2.31v-2.895c0-1.28 1.105-2.31 2.48-2.31s2.48 1.03 2.48 2.31v2.895c0 1.28-1.105 2.31-2.48 2.31zm0-.885c-.825 0-1.485-.82-1.485-1.845v-2.05c0-1.025.66-1.85 1.485-1.85s1.485.825 1.485 1.85v2.05c0 1.025-.66 1.845-1.485 1.845z" fill="none" stroke="#db161b" stroke-width=".33" transform="matrix(1.3333333 0 0 -1.3333333 91.8268 69.613333)"/><path clip-path="url(#d5)" d="m0 0c-1.375 0-2.48-1.03-2.48-2.31v-1.325c0-1.28 1.105-2.31 2.48-2.31 1.37 0 2.48 1.03 2.48 2.31v1.325c0 1.28-1.11 2.31-2.48 2.31m0-.88c-.825 0-1.49-.825-1.49-1.85v-.48c0-1.025.665-1.85 1.49-1.85s1.485.825 1.485 1.85v.48c0 1.025-.66 1.85-1.485 1.85" fill="#fff" transform="matrix(1.3333333 0 0 -1.3333333 86.539733 70.7936)"/><path clip-path="url(#d6)" d="m0 0c-1.375 0-2.48-1.03-2.48-2.31v-1.325c0-1.28 1.105-2.31 2.48-2.31 1.37 0 2.48 1.03 2.48 2.31v1.325c0 1.28-1.11 2.31-2.48 2.31zm0-.88c-.825 0-1.49-.825-1.49-1.85v-.48c0-1.025.665-1.85 1.49-1.85s1.485.825 1.485 1.85v.48c0 1.025-.66 1.85-1.485 1.85z" fill="none" stroke="#db161b" stroke-width=".33" transform="matrix(1.3333333 0 0 -1.3333333 86.539733 70.7936)"/><path clip-path="url(#d7)" d="m0 0c-2.47 0-4.46-1.155-4.46-2.585v-3.235c0-1.43 1.99-2.58 4.46-2.58s4.46 1.15 4.46 2.58v3.235c0 1.43-1.99 2.585-4.46 2.585m0-.99c-1.485 0-2.675-.92-2.675-2.065v-2.29c0-1.145 1.19-2.065 2.675-2.065s2.675.92 2.675 2.065v2.29c0 1.145-1.19 2.065-2.675 2.065" fill="#fff" transform="matrix(1.3333333 0 0 -1.3333333 78.6068 69.020133)"/><path clip-path="url(#d8)" d="m0 0c-2.47 0-4.46-1.155-4.46-2.585v-3.235c0-1.43 1.99-2.58 4.46-2.58s4.46 1.15 4.46 2.58v3.235c0 1.43-1.99 2.585-4.46 2.585zm0-.99c-1.485 0-2.675-.92-2.675-2.065v-2.29c0-1.145 1.19-2.065 2.675-2.065s2.675.92 2.675 2.065v2.29c0 1.145-1.19 2.065-2.675 2.065z" fill="none" stroke="#db161b" stroke-width=".33" transform="matrix(1.3333333 0 0 -1.3333333 78.6068 69.020133)"/><path clip-path="url(#d9)" d="m0 0c-2.475 0-4.465-1.15-4.465-2.58v-3.235c0-1.43 1.99-2.58 4.465-2.58 2.47 0 4.46 1.15 4.46 2.58v3.235c0 1.43-1.99 2.58-4.46 2.58m0-.985c-1.485 0-2.68-.925-2.68-2.07v-2.29c0-1.145 1.195-2.065 2.68-2.065 1.48 0 2.675.92 2.675 2.065v2.29c0 1.145-1.195 2.07-2.675 2.07" fill="#fff" transform="matrix(1.3333333 0 0 -1.3333333 121.5736 69.613333)"/><g stroke="#db161b" stroke-width=".33"><path clip-path="url(#ea)" d="m0 0c-2.475 0-4.465-1.15-4.465-2.58v-3.235c0-1.43 1.99-2.58 4.465-2.58 2.47 0 4.46 1.15 4.46 2.58v3.235c0 1.43-1.99 2.58-4.46 2.58zm0-.985c-1.485 0-2.68-.925-2.68-2.07v-2.29c0-1.145 1.195-2.065 2.68-2.065 1.48 0 2.675.92 2.675 2.065v2.29c0 1.145-1.195 2.07-2.675 2.07z" fill="none" transform="matrix(1.3333333 0 0 -1.3333333 121.5736 69.613333)"/><g fill="#fff"><path clip-path="url(#eb)" d="m0 0h5.303c.178 0 .323-.21.323-.469v-1.714c0-.259-.145-.469-.323-.469h-5.303c-.178 0-.323.21-.323.469v1.714c0 .259.145.469.323.469" transform="matrix(1.3333333 0 0 -1.3333333 110.76373 73.146533)"/><path clip-path="url(#ec)" d="m0 0h3.094c.104 0 .188-.28.188-.625v-2.286c0-.345-.084-.625-.188-.625h-3.094c-.104 0-.188.28-.188.625v2.286c0 .345.084.625.188.625" transform="matrix(1.3333333 0 0 -1.3333333 103.31773 72.559867)"/><path clip-path="url(#ed)" d="m0 0h3.094c.104 0 .188-.28.188-.625v-2.286c0-.345-.084-.625-.188-.625h-3.094c-.104 0-.188.28-.188.625v2.286c0 .345.084.625.188.625" transform="matrix(1.3333333 0 0 -1.3333333 81.504533 72.559867)"/><path clip-path="url(#ee)" d="m0 0h6.187c.208 0 .377-.35.377-.782v-2.856c0-.432-.169-.782-.377-.782h-6.187c-.208 0-.377.35-.377.782v2.856c0 .432.169.782.377.782" transform="matrix(1.3333333 0 0 -1.3333333 67.208933 71.9668)"/><path clip-path="url(#ef)" d="m0 0h5.746c.192 0 .349-.35.349-.782v-2.857c0-.431-.157-.781-.349-.781h-5.746c-.193 0-.35.35-.35.781v2.857c0 .432.157.782.35.782" transform="matrix(1.3333333 0 0 -1.3333333 124.67973 72.559867)"/></g></g></svg>