<?xml version="1.0" encoding="UTF-8" standalone="no"?>
<svg
   width="96"
   height="96"
   version="1.1"
   id="svg14"
   sodipodi:docname="nz.svg"
   inkscape:version="1.2.2 (732a01da63, 2022-12-09)"
   xml:space="preserve"
   inkscape:export-filename="nz.png"
   inkscape:export-xdpi="96"
   inkscape:export-ydpi="96"
   xmlns:inkscape="http://www.inkscape.org/namespaces/inkscape"
   xmlns:sodipodi="http://sodipodi.sourceforge.net/DTD/sodipodi-0.dtd"
   xmlns:xlink="http://www.w3.org/1999/xlink"
   xmlns="http://www.w3.org/2000/svg"
   xmlns:svg="http://www.w3.org/2000/svg"><defs
     id="defs18"><clipPath
       id="c1"><path
         d="M0,0H6V3H0z"
         id="path26789" /></clipPath><clipPath
       id="c2"><path
         d="M0,0V1.5H6V3H6zM6,0H3V3H0V3z"
         id="path26792" /></clipPath><path
       id="Star7"
       d="M0,-360 69.421398,-144.155019 281.459334,-224.456329 155.988466,-35.603349 350.974048,80.107536 125.093037,99.758368 156.198146,324.348792 0,160 -156.198146,324.348792 -125.093037,99.758368 -350.974048,80.107536 -155.988466,-35.603349 -281.459334,-224.456329 -69.421398,-144.155019z" /><path
       id="Star5"
       d="M0,-210 54.859957,-75.508253 199.721868,-64.893569 88.765275,28.841586 123.434903,169.893569 0,93.333333 -123.434903,169.893569 -88.765275,28.841586 -199.721868,-64.893569 -54.859957,-75.508253z" /><clipPath
       id="c1-9"><path
         d="M0,0H6V3H0z"
         id="path29052" /></clipPath><clipPath
       id="c2-1"><path
         d="M0,0V1.5H6V3H6zM6,0H3V3H0V3z"
         id="path29055" /></clipPath><path
       id="Star7-6"
       d="M0,-360 69.421398,-144.155019 281.459334,-224.456329 155.988466,-35.603349 350.974048,80.107536 125.093037,99.758368 156.198146,324.348792 0,160 -156.198146,324.348792 -125.093037,99.758368 -350.974048,80.107536 -155.988466,-35.603349 -281.459334,-224.456329 -69.421398,-144.155019z" /><path
       id="Star5-9"
       d="M0,-210 54.859957,-75.508253 199.721868,-64.893569 88.765275,28.841586 123.434903,169.893569 0,93.333333 -123.434903,169.893569 -88.765275,28.841586 -199.721868,-64.893569 -54.859957,-75.508253z" /><clipPath
       id="c1-2"><path
         d="M0,0H6V3H0z"
         id="path30603" /></clipPath><clipPath
       id="c2-8"><path
         d="M0,0V1.5H6V3H6zM6,0H3V3H0V3z"
         id="path30606" /></clipPath><path
       id="Star7-67"
       d="M0,-360 69.421398,-144.155019 281.459334,-224.456329 155.988466,-35.603349 350.974048,80.107536 125.093037,99.758368 156.198146,324.348792 0,160 -156.198146,324.348792 -125.093037,99.758368 -350.974048,80.107536 -155.988466,-35.603349 -281.459334,-224.456329 -69.421398,-144.155019z" /><path
       id="Star5-5"
       d="M0,-210 54.859957,-75.508253 199.721868,-64.893569 88.765275,28.841586 123.434903,169.893569 0,93.333333 -123.434903,169.893569 -88.765275,28.841586 -199.721868,-64.893569 -54.859957,-75.508253z" /><clipPath
       id="Canton"><path
         d="M 0,0 L 600,0 L 600,300 L 0,300 z"
         id="path280606" /></clipPath><clipPath
       id="Diagonals"><path
         d="M 0,0 L 300,150 L 0,150 z M 300,0 L 600,0 L 300,150 z M 300,150 L 600,150 L 600,300 z M 300,150 L 300,300 L 0,300 z"
         id="path280609" /></clipPath><g
       id="Pentagram"><g
         id="Arm"
         transform="translate(0,-0.324925)"><path
           d="M 0,0 L 0,0.5 L 1,0 z"
           id="path280612" /><path
           d="M 0,0 L 0,-0.5 L 1,0 z"
           transform="rotate(-36,1,0)"
           id="path280614" /></g><use
         xlink:href="#Arm"
         transform="scale(-1,1)"
         id="use280617" /><use
         xlink:href="#Arm"
         transform="rotate(72,0,0)"
         id="use280619" /><use
         xlink:href="#Arm"
         transform="rotate(-72,0,0)"
         id="use280621" /><use
         xlink:href="#Arm"
         transform="rotate(-72,0,0) scale(-1,1)"
         id="use280623" /></g></defs><sodipodi:namedview
     id="namedview16"
     pagecolor="#505050"
     bordercolor="#eeeeee"
     borderopacity="1"
     inkscape:showpageshadow="0"
     inkscape:pageopacity="0"
     inkscape:pagecheckerboard="0"
     inkscape:deskcolor="#505050"
     showgrid="false"
     inkscape:zoom="5.6568543"
     inkscape:cx="11.844039"
     inkscape:cy="32.173358"
     inkscape:window-width="2560"
     inkscape:window-height="1377"
     inkscape:window-x="1912"
     inkscape:window-y="-8"
     inkscape:window-maximized="1"
     inkscape:current-layer="g72636"><inkscape:grid
       type="xygrid"
       id="grid3475"
       empspacing="4" /></sodipodi:namedview><g
     id="g31768"
     inkscape:label="nz"
     style="display:none"><rect
       style="fill:#012169;fill-opacity:1;stroke-width:6.25981;stroke-linecap:round"
       id="rect23460"
       width="600"
       height="600"
       x="0"
       y="0"
       transform="scale(0.16)" /><g
       id="g1587"
       transform="scale(0.16)"
       inkscape:label="union jack"><path
         id="path4673"
         style="color:#000000;display:inline;fill:#ffffff;-inkscape-stroke:none"
         d="M 0,0 V 42.431641 L 107.57446,150 0,257.56836 V 300 H 42.431641 L 150,192.42554 257.56836,300 H 300 V 257.56836 L 192.42554,150 300,42.431641 V 0 H 257.56836 L 150,107.57446 42.431641,0 Z" /><path
         id="path5492"
         style="color:#000000;display:inline;fill:#cf142b;-inkscape-stroke:none"
         d="M 0,0 V 28.283691 L 121.71631,150 0,271.71631 V 300 H 28.283691 L 150,178.28369 271.71631,300 H 300 V 271.71631 L 178.28369,150 300,28.283691 V 0 H 271.71631 L 150,121.71631 28.283691,0 Z" /><path
         d="M 150,150 V 120 L 30,0 H 0 Z m 0,0 h 30 L 300,30 V 0 Z m 0,0 v 30 l 120,120 h 30 z m 0,0 H 120 L 0,270 v 30 z"
         fill="#ffffff"
         id="path8"
         style="display:inline" /><path
         d="M 150,0 V 300 M 0,150 h 300"
         stroke="#ffffff"
         stroke-width="100"
         id="path10"
         style="display:inline" /><path
         d="M 150,0 V 300 M 0,150 h 300"
         stroke="#cf142b"
         stroke-width="60"
         id="path12"
         style="display:inline;stroke:#c8102e;stroke-opacity:1" /></g><g
       id="Southern_Cross"
       transform="matrix(0.10666667,0,0,0.10666667,-24.000002,15.999999)"
       style="stroke-width:14.0625;stroke-dasharray:none"><g
         id="Gamma_Crucis"
         style="stroke-width:14.0625;stroke-dasharray:none"><path
           sodipodi:type="star"
           style="display:inline;fill:#c8102e;fill-opacity:1;stroke:#ffffff;stroke-width:1.5;stroke-linecap:round;stroke-dasharray:none;stroke-opacity:1;paint-order:stroke fill markers"
           id="path54230"
           inkscape:flatsided="false"
           sodipodi:sides="5"
           sodipodi:cx="72"
           sodipodi:cy="28.799986"
           sodipodi:r1="3.3646705"
           sodipodi:r2="1.6823353"
           sodipodi:arg1="-1.5707998"
           sodipodi:arg2="-0.94248124"
           inkscape:rounded="0"
           inkscape:randomized="0"
           d="m 71.999988,25.435315 0.988859,2.00363 2.211141,0.321289 -1.59999,1.559617 0.377715,2.202204 -1.977707,-1.039734 -1.9777,1.039747 0.3777,-2.202206 -1.600001,-1.559605 2.211138,-0.321306 z"
           inkscape:transform-center-x="3.5777091e-06"
           inkscape:transform-center-y="-0.32129405"
           transform="matrix(9.3749997,0,0,9.3749997,225.00001,-149.99999)" /></g><g
         transform="rotate(82,900,240)"
         id="g280653"
         style="stroke-width:14.0625;stroke-dasharray:none"><g
           id="Delta_Crucis"
           style="stroke-width:14.0625;stroke-dasharray:none"><path
             sodipodi:type="star"
             style="fill:#c8102e;fill-opacity:1;stroke:#ffffff;stroke-width:1.5;stroke-linecap:round;stroke-dasharray:none;stroke-opacity:1;paint-order:stroke fill markers"
             id="path58376"
             inkscape:flatsided="false"
             sodipodi:sides="5"
             sodipodi:cx="84.67543"
             sodipodi:cy="39.818565"
             sodipodi:r1="2.8038857"
             sodipodi:r2="1.4019428"
             sodipodi:arg1="-1.5707999"
             sodipodi:arg2="-0.94248133"
             inkscape:rounded="0"
             inkscape:randomized="0"
             d="m 84.67542,37.01468 0.824048,1.669687 1.842613,0.267741 -1.333322,1.299677 0.314762,1.835166 -1.648086,-0.866443 -1.648079,0.866454 0.314749,-1.835168 -1.333332,-1.299667 1.842612,-0.267754 z"
             inkscape:transform-center-x="3.0631882e-06"
             inkscape:transform-center-y="-0.26774435"
             transform="matrix(1.3047478,-9.2837629,9.2837629,1.3047478,419.85363,854.15343)" /></g><g
           id="Beta_Crucis"
           style="stroke-width:14.0625;stroke-dasharray:none"><path
             sodipodi:type="star"
             style="fill:#c8102e;fill-opacity:1;stroke:#ffffff;stroke-width:1.5;stroke-linecap:round;stroke-dasharray:none;stroke-opacity:1;paint-order:stroke fill markers"
             id="path58507"
             inkscape:flatsided="false"
             sodipodi:sides="5"
             sodipodi:cx="57.211994"
             sodipodi:cy="43.678303"
             sodipodi:r1="3.3646708"
             sodipodi:r2="1.6823353"
             sodipodi:arg1="-1.5707998"
             sodipodi:arg2="-0.94248127"
             inkscape:rounded="0"
             inkscape:randomized="0"
             d="m 57.211982,40.313632 0.988859,2.00363 2.211142,0.321289 -1.599991,1.559616 0.377715,2.202205 -1.977707,-1.039734 -1.9777,1.039747 0.3777,-2.202206 -1.600001,-1.559606 2.211139,-0.321305 z"
             inkscape:transform-center-x="3.6100114e-06"
             inkscape:transform-center-y="-0.32129403"
             transform="matrix(1.3047478,-9.2837629,9.2837629,1.3047478,419.85363,854.15343)" /></g></g><g
         id="Alpha_Crucis"
         style="stroke-width:14.0625;stroke-dasharray:none"><path
           sodipodi:type="star"
           style="fill:#c8102e;fill-opacity:1;stroke:#ffffff;stroke-width:1.5;stroke-linecap:round;stroke-dasharray:none;stroke-opacity:1;paint-order:stroke fill markers"
           id="path59311"
           inkscape:flatsided="false"
           sodipodi:sides="5"
           sodipodi:cx="71.999992"
           sodipodi:cy="67.199982"
           sodipodi:r1="3.9254496"
           sodipodi:r2="1.9627246"
           sodipodi:arg1="-1.5707998"
           sodipodi:arg2="-0.9424813"
           inkscape:rounded="0"
           inkscape:randomized="0"
           d="m 71.999979,63.274532 1.153668,2.337568 2.579666,0.374838 -1.866657,1.819552 0.440669,2.569239 -2.307326,-1.213023 -2.307317,1.213039 0.440651,-2.569242 -1.866669,-1.819539 2.579662,-0.374856 z"
           inkscape:transform-center-x="4.2485292e-06"
           inkscape:transform-center-y="-0.37484303"
           transform="matrix(9.3749997,0,0,9.3749997,225.00001,-149.99999)" /></g></g></g><g
     id="g72636"
     transform="scale(0.5)"
     style="display:inline"
     inkscape:label="nz"><rect
       style="display:inline;fill:#012169;fill-opacity:1;stroke-width:6.25981;stroke-linecap:round"
       id="rect73293"
       width="600"
       height="600"
       x="0"
       y="0"
       transform="scale(0.32)" /><g
       id="g73219"><path
         sodipodi:type="star"
         style="fill:#c8102e;fill-opacity:1;stroke:#ffffff;stroke-width:2.4690183;stroke-linecap:square;stroke-dasharray:none;stroke-opacity:1;paint-order:stroke fill markers"
         id="path73215"
         inkscape:flatsided="false"
         sodipodi:sides="5"
         sodipodi:cx="72"
         sodipodi:cy="64"
         sodipodi:r1="8"
         sodipodi:r2="3.056"
         sodipodi:arg1="-1.5707963"
         sodipodi:arg2="-0.9424778"
         inkscape:rounded="0"
         inkscape:randomized="0"
         d="m 72,56 1.796272,5.527644 5.81218,2.2e-4 -4.702023,3.416492 1.795853,5.52778 L 72,67.056 l -4.702282,3.416136 1.795853,-5.52778 -4.702023,-3.416492 5.81218,-2.2e-4 z"
         inkscape:transform-center-y="-0.61881514"
         transform="matrix(1.6200771,0,0,1.6200771,27.354448,28.315064)" /><path
         sodipodi:type="star"
         style="fill:#c8102e;fill-opacity:1;stroke:#ffffff;stroke-width:2.46902;stroke-linecap:square;stroke-dasharray:none;stroke-opacity:1;paint-order:stroke fill markers"
         id="path74022"
         inkscape:flatsided="false"
         sodipodi:sides="5"
         sodipodi:cx="72"
         sodipodi:cy="64"
         sodipodi:r1="8"
         sodipodi:r2="3.056"
         sodipodi:arg1="-1.5707963"
         sodipodi:arg2="-0.9424778"
         inkscape:rounded="0"
         inkscape:randomized="0"
         d="m 72,56 1.796272,5.527644 5.81218,2.2e-4 -4.702023,3.416492 1.795853,5.52778 L 72,67.056 l -4.702282,3.416136 1.795853,-5.52778 -4.702023,-3.416492 5.81218,-2.2e-4 z"
         inkscape:transform-center-y="-0.61881514"
         transform="matrix(1.6200771,0,0,1.6200771,-0.645552,-13.684936)" /><path
         sodipodi:type="star"
         style="fill:#c8102e;fill-opacity:1;stroke:#ffffff;stroke-width:2.46902;stroke-linecap:square;stroke-dasharray:none;stroke-opacity:1;paint-order:stroke fill markers"
         id="path74024"
         inkscape:flatsided="false"
         sodipodi:sides="5"
         sodipodi:cx="72"
         sodipodi:cy="64"
         sodipodi:r1="8"
         sodipodi:r2="3.056"
         sodipodi:arg1="-1.5707963"
         sodipodi:arg2="-0.9424778"
         inkscape:rounded="0"
         inkscape:randomized="0"
         d="m 72,56 1.796272,5.527644 5.81218,2.2e-4 -4.702023,3.416492 1.795853,5.52778 L 72,67.056 l -4.702282,3.416136 1.795853,-5.52778 -4.702023,-3.416492 5.81218,-2.2e-4 z"
         inkscape:transform-center-y="-0.61881514"
         transform="matrix(1.6200771,0,0,1.6200771,53.354448,-21.684936)" /><path
         sodipodi:type="star"
         style="fill:#c8102e;fill-opacity:1;stroke:#ffffff;stroke-width:2.4690183;stroke-linecap:square;stroke-dasharray:none;stroke-opacity:1;paint-order:stroke fill markers"
         id="path74026"
         inkscape:flatsided="false"
         sodipodi:sides="5"
         sodipodi:cx="72"
         sodipodi:cy="64"
         sodipodi:r1="8"
         sodipodi:r2="3.056"
         sodipodi:arg1="-1.5707963"
         sodipodi:arg2="-0.9424778"
         inkscape:rounded="0"
         inkscape:randomized="0"
         d="m 72,56 1.796272,5.527644 5.81218,2.2e-4 -4.702023,3.416492 1.795853,5.52778 L 72,67.056 l -4.702282,3.416136 1.795853,-5.52778 -4.702023,-3.416492 5.81218,-2.2e-4 z"
         inkscape:transform-center-y="-0.61881514"
         transform="matrix(1.6200771,0,0,1.6200771,27.354448,-47.684936)" /></g><g
       id="g55022"
       transform="scale(0.32)"
       inkscape:label="uk"
       style="display:inline"><rect
         width="300"
         height="300"
         fill="#00247d"
         id="rect55008"
         x="0"
         y="0"
         style="display:inline;fill:#012169;fill-opacity:1"
         inkscape:label="blue" /><g
         id="g55014"
         inkscape:label="diagonal cross"
         style="display:inline"><path
           id="path55010"
           style="color:#000000;display:inline;fill:#ffffff;-inkscape-stroke:none"
           d="M 0,0 V 37.5 L 112.5,150 0,262.5 V 300 H 37.5 L 150,187.5 262.5,300 H 300 V 262.5 L 187.5,150 300,37.5 V 0 H 262.5 L 150,112.5 37.5,0 Z"
           inkscape:label="white"
           sodipodi:nodetypes="ccccccccccccccccc" /><path
           id="path55012"
           style="fill:#c8102e;fill-opacity:1;stroke-width:1.5625;stroke-linecap:round;stroke-linejoin:round"
           inkscape:label="red"
           d="m 0,0 v 25 l 75,75 h 25 z m 275,0 -75,75 v 25 L 300,0 Z M 100,200 0,300 h 25 l 75,-75 z m 100,0 100,100 v -25 l -75,-75 z"
           sodipodi:nodetypes="cccccccccccccccccccc" /></g><g
         id="g55020"
         inkscape:label="straight cross"><path
           d="M 150,0 V 300 M 0,150 h 300"
           stroke="#ffffff"
           stroke-width="100"
           id="path55016"
           style="display:inline"
           inkscape:label="white" /><path
           d="M 150,0 V 300 M 0,150 h 300"
           stroke="#cf142b"
           stroke-width="60"
           id="path55018"
           style="display:inline;stroke:#c8102e;stroke-width:62.5;stroke-dasharray:none;stroke-opacity:1"
           inkscape:label="red" /></g></g></g></svg>
