<svg xmlns="http://www.w3.org/2000/svg" width="96" height="96" viewBox="24 0 96 96">
	<g id="star">
		<g transform="translate(72 50)">
			<g transform="scale(0.05)">
				<g transform="translate(-25 -25)">
					<circle fill="none" cx="25" cy="25" r="25"/>
					<path fill="#fff" transform="translate(-0 -1)" d="m25,1 6,17h18l-14,11 5,17-15-10-15,10 5-17-14-11h18z"/>
					</g>
				</g>
			</g>
		</g>
	<path fill="#149" d="M0 0h144v96H0z"/>
	<path fill="#fd0" d="M0 0h144v48H0z"/>
	<path fill="#d23" d="M0 72h144v24H0z"/>
	<g transform="rotate(7.5 72 60)">
		<g id="g">
			<g id="e">
				<g id="a"><use href="#star"/></g>
				<g id="b" transform="rotate(15 72 60)"><use href="#a"/></g>
				<g id="c" transform="rotate(15 72 60)"><use href="#b"/></g>
				<g id="d" transform="rotate(15 72 60)"><use href="#c"/></g>
				</g>
			<g id="f" transform="rotate(60 72 60)"><use href="#e"/></g>
			</g>
		<g id="h" transform="rotate(120 72 60)"><use href="#g"/></g>
		<g id="i" transform="rotate(240 72 60)"><use href="#g"/></g>
		</g>
	</svg>