<svg height="3840" viewBox="0 0 5760 3840" width="5760" xmlns="http://www.w3.org/2000/svg" xmlns:xlink="http://www.w3.org/1999/xlink"><clipPath id="a"><path d="m0 2880h4320v-2880h-4320z" transform="translate(-1481.6778 -2160.0001)"/></clipPath><clipPath id="b"><path d="m0 2880h4320v-2880h-4320z" transform="translate(-1651.8351 -2160.0001)"/></clipPath><clipPath id="c"><path d="m0 2880h4320v-2880h-4320z" transform="translate(-1007.1954 -2146.9356)"/></clipPath><clipPath id="d"><path d="m0 2880h4320v-2880h-4320z" transform="translate(-1584.3838 -2146.9356)"/></clipPath><clipPath id="e"><path d="m0 2880h4320v-2880h-4320z" transform="translate(-1296.0835 -2361.1471)"/></clipPath><clipPath id="f"><path d="m0 2880h4320v-2880h-4320z" transform="translate(-1115.1948 -1804.1865)"/></clipPath><clipPath id="g"><path d="m0 2880h4320v-2880h-4320z" transform="translate(-1476.3838 -1804.1865)"/></clipPath><path d="m0 1440h4319.999v1440h-4319.999z" fill="#ed2939" transform="matrix(1.3333333 0 0 -1.3333333 0 3840)"/><path d="m0 0h4319.999v1440h-4319.999z" fill="#fff" transform="matrix(1.3333333 0 0 -1.3333333 0 3840)"/><path clip-path="url(#a)" d="m0 0c0-299.062-242.437-541.5-541.5-541.5-299.062 0-541.5 242.438-541.5 541.5s242.438 541.5 541.5 541.5c299.063 0 541.5-242.438 541.5-541.5" fill="#fff" transform="matrix(1.3333333 0 0 -1.3333333 1975.5703 960)"/><path clip-path="url(#b)" d="m0 0c0-282.624-229.111-511.735-511.735-511.735-282.623 0-511.735 229.111-511.735 511.735s229.112 511.735 511.735 511.735c282.624 0 511.735-229.111 511.735-511.735" fill="#ed2939" transform="matrix(1.3333333 0 0 -1.3333333 2202.4467 960)"/><g fill="#fff"><path clip-path="url(#c)" d="m0 0-73.561 56.43-73.542-56.457 28.313 90.995-73.794 56.091 91.059-.193 27.935 91.124 27.964-91.114 91.059.226-73.776-56.119z" transform="matrix(1.3333333 0 0 -1.3333333 1342.9271 977.41933)"/><path clip-path="url(#d)" d="m0 0-73.561 56.43-73.542-56.457 28.313 90.995-73.794 56.091 91.059-.193 27.935 91.124 27.964-91.114 91.059.226-73.776-56.119z" transform="matrix(1.3333333 0 0 -1.3333333 2112.5117 977.41933)"/><path clip-path="url(#e)" d="m0 0-73.561 56.43-73.541-56.457 28.313 90.994-73.794 56.092 91.059-.193 27.934 91.124 27.965-91.114 91.058.226-73.776-56.119z" transform="matrix(1.3333333 0 0 -1.3333333 1728.1113 691.804)"/><path clip-path="url(#f)" d="m0 0-73.561 56.43-73.542-56.456 28.313 90.994-73.794 56.092 91.059-.193 27.935 91.123 27.964-91.114 91.059.226-73.776-56.118z" transform="matrix(1.3333333 0 0 -1.3333333 1486.9264 1434.418)"/><path clip-path="url(#g)" d="m0 0-73.561 56.43-73.542-56.456 28.313 90.994-73.794 56.092 91.059-.193 27.935 91.123 27.964-91.114 91.059.226-73.776-56.118z" transform="matrix(1.3333333 0 0 -1.3333333 1968.5117 1434.418)"/></g></svg>