<?xml version="1.0" encoding="UTF-8" standalone="no"?>
<!-- Created with Inkscape (http://www.inkscape.org/) -->

<svg
   width="96"
   height="96"
   viewBox="0 0 96 96"
   version="1.1"
   id="svg5"
   inkscape:version="1.2.2 (732a01da63, 2022-12-09)"
   sodipodi:docname="square.svg"
   xml:space="preserve"
   xmlns:inkscape="http://www.inkscape.org/namespaces/inkscape"
   xmlns:sodipodi="http://sodipodi.sourceforge.net/DTD/sodipodi-0.dtd"
   xmlns:xlink="http://www.w3.org/1999/xlink"
   xmlns="http://www.w3.org/2000/svg"
   xmlns:svg="http://www.w3.org/2000/svg"><sodipodi:namedview
     id="namedview7"
     pagecolor="#505050"
     bordercolor="#eeeeee"
     borderopacity="1"
     inkscape:showpageshadow="0"
     inkscape:pageopacity="0"
     inkscape:pagecheckerboard="0"
     inkscape:deskcolor="#505050"
     inkscape:document-units="px"
     showgrid="false"
     inkscape:zoom="4"
     inkscape:cx="32.5"
     inkscape:cy="10.5"
     inkscape:window-width="2560"
     inkscape:window-height="1377"
     inkscape:window-x="1912"
     inkscape:window-y="-8"
     inkscape:window-maximized="1"
     inkscape:current-layer="layer1"><inkscape:grid
       type="xygrid"
       id="grid2501"
       empspacing="16"
       originx="0"
       originy="0"
       color="#000000"
       opacity="0.14901961"
       empcolor="#000000"
       empopacity="0.30196078"
       spacingx="0.5"
       spacingy="0.5" /></sodipodi:namedview><defs
     id="defs2"><linearGradient
       id="lion"
       inkscape:swatch="solid"><stop
         style="stop-color:#ffaa33;stop-opacity:1;"
         offset="0"
         id="stop4856" /></linearGradient><linearGradient
       id="outline"
       inkscape:swatch="solid"><stop
         style="stop-color:#111111;stop-opacity:1;"
         offset="0"
         id="stop4850" /></linearGradient><linearGradient
       id="green"
       inkscape:swatch="solid"><stop
         style="stop-color:#229944;stop-opacity:1;"
         offset="0"
         id="stop4015" /></linearGradient><linearGradient
       id="white"
       inkscape:swatch="solid"><stop
         style="stop-color:#ffffff;stop-opacity:1;"
         offset="0"
         id="stop1523" /></linearGradient><linearGradient
       id="red"
       inkscape:swatch="solid"><stop
         style="stop-color:#dd1122;stop-opacity:1;"
         offset="0"
         id="stop1517" /></linearGradient><linearGradient
       inkscape:collect="always"
       xlink:href="#red"
       id="linearGradient1521"
       x1="0"
       y1="12.7"
       x2="38.099998"
       y2="12.7"
       gradientUnits="userSpaceOnUse" /><linearGradient
       inkscape:collect="always"
       xlink:href="#white"
       id="linearGradient1527"
       x1="0"
       y1="-12.7"
       x2="38.099998"
       y2="-12.7"
       gradientUnits="userSpaceOnUse" /><style
       id="style3354">
      .cls-1 {
        fill: #fff;
      }

      .cls-2 {
        fill: #ffbb26;
      }

      .cls-3 {
        fill: #da0000;
      }

      .cls-4 {
        fill: #239f40;
      }
    </style><linearGradient
       inkscape:collect="always"
       xlink:href="#green"
       id="linearGradient4019"
       x1="0"
       y1="4.2333331"
       x2="38.099998"
       y2="4.2333331"
       gradientUnits="userSpaceOnUse" /><linearGradient
       inkscape:collect="always"
       xlink:href="#lion"
       id="linearGradient6455"
       x1="18.959616"
       y1="15.032"
       x2="21.352472"
       y2="15.032"
       gradientUnits="userSpaceOnUse" /><linearGradient
       inkscape:collect="always"
       xlink:href="#outline"
       id="linearGradient6461"
       x1="18.993193"
       y1="15.052598"
       x2="21.298958"
       y2="15.052598"
       gradientUnits="userSpaceOnUse" /><linearGradient
       inkscape:collect="always"
       xlink:href="#lion"
       id="linearGradient6465"
       gradientUnits="userSpaceOnUse"
       x1="18.959616"
       y1="15.032"
       x2="21.352472"
       y2="15.032"
       gradientTransform="matrix(0.04233263,0,0,0.04233263,-0.92588449,0)" /><linearGradient
       inkscape:collect="always"
       xlink:href="#outline"
       id="linearGradient6467"
       gradientUnits="userSpaceOnUse"
       x1="18.993193"
       y1="15.052598"
       x2="21.298958"
       y2="15.052598"
       gradientTransform="matrix(0.04233263,0,0,0.04233263,-0.92588449,0)" /><style
       id="style7591">
      .cls-1 {
        fill: #fff;
      }

      .cls-2 {
        fill: #ffbb26;
      }

      .cls-3 {
        fill: #da0000;
      }

      .cls-4 {
        fill: #239f40;
      }
    </style><linearGradient
       inkscape:collect="always"
       xlink:href="#lion"
       id="linearGradient8338"
       x1="427.95166"
       y1="305.42276"
       x2="658.96002"
       y2="305.42276"
       gradientUnits="userSpaceOnUse" /><linearGradient
       inkscape:collect="always"
       xlink:href="#lion"
       id="linearGradient8344"
       x1="522.58319"
       y1="351.81393"
       x2="578.73999"
       y2="351.81393"
       gradientUnits="userSpaceOnUse" /><linearGradient
       inkscape:collect="always"
       xlink:href="#lion"
       id="linearGradient8350"
       x1="443.37439"
       y1="306.02499"
       x2="537.29999"
       y2="306.02499"
       gradientUnits="userSpaceOnUse" /><linearGradient
       inkscape:collect="always"
       xlink:href="#lion"
       id="linearGradient8352"
       x1="507.20999"
       y1="294.465"
       x2="581.40997"
       y2="294.465"
       gradientUnits="userSpaceOnUse" /><linearGradient
       inkscape:collect="always"
       xlink:href="#lion"
       id="linearGradient8354"
       x1="439.79001"
       y1="269.70999"
       x2="525.27002"
       y2="269.70999"
       gradientUnits="userSpaceOnUse" /><linearGradient
       inkscape:collect="always"
       xlink:href="#lion"
       id="linearGradient8360"
       x1="453.53098"
       y1="323.10001"
       x2="524.89734"
       y2="323.10001"
       gradientUnits="userSpaceOnUse" /><linearGradient
       inkscape:collect="always"
       xlink:href="#lion"
       id="linearGradient8362"
       x1="406.30124"
       y1="324.47467"
       x2="469.01001"
       y2="324.47467"
       gradientUnits="userSpaceOnUse" /><linearGradient
       inkscape:collect="always"
       xlink:href="#lion"
       id="linearGradient8364"
       x1="408.24335"
       y1="255.0574"
       x2="492.79999"
       y2="255.0574"
       gradientUnits="userSpaceOnUse" /><linearGradient
       inkscape:collect="always"
       xlink:href="#lion"
       id="linearGradient8366"
       x1="391.23001"
       y1="291.72"
       x2="440.35001"
       y2="291.72"
       gradientUnits="userSpaceOnUse" /><linearGradient
       inkscape:collect="always"
       xlink:href="#lion"
       id="linearGradient8410"
       x1="408.78"
       y1="306.22"
       x2="422.79001"
       y2="306.22"
       gradientUnits="userSpaceOnUse" /><linearGradient
       inkscape:collect="always"
       xlink:href="#lion"
       id="linearGradient8416"
       x1="406.88"
       y1="311.03314"
       x2="425.32001"
       y2="311.03314"
       gradientUnits="userSpaceOnUse" /><linearGradient
       inkscape:collect="always"
       xlink:href="#lion"
       id="linearGradient8418"
       x1="406.88"
       y1="316.63315"
       x2="425.32001"
       y2="316.63315"
       gradientUnits="userSpaceOnUse" /><linearGradient
       inkscape:collect="always"
       xlink:href="#lion"
       id="linearGradient8420"
       x1="407.10999"
       y1="321.89627"
       x2="424.45001"
       y2="321.89627"
       gradientUnits="userSpaceOnUse" /><linearGradient
       inkscape:collect="always"
       xlink:href="#lion"
       id="linearGradient8426"
       x1="475.20001"
       y1="249.825"
       x2="631.32001"
       y2="249.825"
       gradientUnits="userSpaceOnUse" /><linearGradient
       inkscape:collect="always"
       xlink:href="#outline"
       id="linearGradient8432"
       x1="473.98001"
       y1="249.89"
       x2="632.47998"
       y2="249.89"
       gradientUnits="userSpaceOnUse" /><linearGradient
       inkscape:collect="always"
       xlink:href="#outline"
       id="linearGradient8438"
       x1="506.32999"
       y1="294.465"
       x2="582.28003"
       y2="294.465"
       gradientUnits="userSpaceOnUse" /><linearGradient
       inkscape:collect="always"
       xlink:href="#outline"
       id="linearGradient8444"
       x1="427.04135"
       y1="305.345"
       x2="660.34003"
       y2="305.345"
       gradientUnits="userSpaceOnUse" /><linearGradient
       inkscape:collect="always"
       xlink:href="#outline"
       id="linearGradient8450"
       x1="434.42987"
       y1="345.27649"
       x2="617.46002"
       y2="345.27649"
       gradientUnits="userSpaceOnUse" /><linearGradient
       inkscape:collect="always"
       xlink:href="#outline"
       id="linearGradient8456"
       x1="521.71747"
       y1="351.05499"
       x2="579.96997"
       y2="351.05499"
       gradientUnits="userSpaceOnUse" /><linearGradient
       inkscape:collect="always"
       xlink:href="#outline"
       id="linearGradient8462"
       x1="528.74988"
       y1="359.30499"
       x2="571.42999"
       y2="359.30499"
       gradientUnits="userSpaceOnUse" /><linearGradient
       inkscape:collect="always"
       xlink:href="#outline"
       id="linearGradient8468"
       x1="418.98999"
       y1="389.05499"
       x2="635.34998"
       y2="389.05499"
       gradientUnits="userSpaceOnUse" /><linearGradient
       inkscape:collect="always"
       xlink:href="#outline"
       id="linearGradient8474"
       x1="413.35001"
       y1="392.73999"
       x2="641.14001"
       y2="392.73999"
       gradientUnits="userSpaceOnUse" /><linearGradient
       inkscape:collect="always"
       xlink:href="#outline"
       id="linearGradient8480"
       x1="452.67203"
       y1="323.01999"
       x2="525.80359"
       y2="323.01999"
       gradientUnits="userSpaceOnUse" /><linearGradient
       inkscape:collect="always"
       xlink:href="#outline"
       id="linearGradient8486"
       x1="459.26001"
       y1="327.815"
       x2="523.03003"
       y2="327.815"
       gradientUnits="userSpaceOnUse" /><linearGradient
       inkscape:collect="always"
       xlink:href="#outline"
       id="linearGradient8492"
       x1="442.47656"
       y1="306.125"
       x2="538.51001"
       y2="306.125"
       gradientUnits="userSpaceOnUse" /><linearGradient
       inkscape:collect="always"
       xlink:href="#outline"
       id="linearGradient8498"
       x1="438.64001"
       y1="269.73999"
       x2="526.39001"
       y2="269.73999"
       gradientUnits="userSpaceOnUse" /><linearGradient
       inkscape:collect="always"
       xlink:href="#outline"
       id="linearGradient8500"
       x1="447.20999"
       y1="308.48001"
       x2="532.08002"
       y2="308.48001"
       gradientUnits="userSpaceOnUse" /><linearGradient
       inkscape:collect="always"
       xlink:href="#outline"
       id="linearGradient8502"
       x1="405.42749"
       y1="324.9682"
       x2="469.95001"
       y2="324.9682"
       gradientUnits="userSpaceOnUse" /><linearGradient
       inkscape:collect="always"
       xlink:href="#outline"
       id="linearGradient8504"
       x1="443.29999"
       y1="270.33499"
       x2="522.20001"
       y2="270.33499"
       gradientUnits="userSpaceOnUse" /><linearGradient
       inkscape:collect="always"
       xlink:href="#outline"
       id="linearGradient8510"
       x1="389.67001"
       y1="291.73001"
       x2="441.92999"
       y2="291.73001"
       gradientUnits="userSpaceOnUse" /><linearGradient
       inkscape:collect="always"
       xlink:href="#outline"
       id="linearGradient8516"
       x1="407.38754"
       y1="255.07851"
       x2="496.41"
       y2="255.07851"
       gradientUnits="userSpaceOnUse" /><linearGradient
       inkscape:collect="always"
       xlink:href="#outline"
       id="linearGradient8522"
       x1="415.03085"
       y1="257.88"
       x2="456.10001"
       y2="257.88"
       gradientUnits="userSpaceOnUse" /><linearGradient
       inkscape:collect="always"
       xlink:href="#outline"
       id="linearGradient8524"
       x1="407.91"
       y1="306.215"
       x2="423.67001"
       y2="306.215"
       gradientUnits="userSpaceOnUse" /><linearGradient
       inkscape:collect="always"
       xlink:href="#outline"
       id="linearGradient8530"
       x1="406.0199"
       y1="311.03931"
       x2="426.34"
       y2="311.03931"
       gradientUnits="userSpaceOnUse" /><linearGradient
       inkscape:collect="always"
       xlink:href="#outline"
       id="linearGradient8532"
       x1="406.0199"
       y1="316.63931"
       x2="426.34"
       y2="316.63931"
       gradientUnits="userSpaceOnUse" /><linearGradient
       inkscape:collect="always"
       xlink:href="#outline"
       id="linearGradient8534"
       x1="406.22992"
       y1="321.90289"
       x2="425.45999"
       y2="321.90289"
       gradientUnits="userSpaceOnUse" /><linearGradient
       inkscape:collect="always"
       xlink:href="#lion"
       id="linearGradient12344"
       x1="414.22"
       y1="392.745"
       x2="640.26001"
       y2="392.745"
       gradientUnits="userSpaceOnUse" /><linearGradient
       inkscape:collect="always"
       xlink:href="#lion"
       id="linearGradient1643"
       gradientUnits="userSpaceOnUse"
       x1="18.959616"
       y1="15.032"
       x2="21.352472"
       y2="15.032" /><linearGradient
       inkscape:collect="always"
       xlink:href="#outline"
       id="linearGradient1645"
       gradientUnits="userSpaceOnUse"
       x1="18.993193"
       y1="15.052598"
       x2="21.298958"
       y2="15.052598" /></defs><g
     inkscape:label="ir"
     inkscape:groupmode="layer"
     id="layer1"
     transform="matrix(3.7795276,0,0,3.7795276,-24,0)"><rect
       style="fill:url(#linearGradient1521);fill-opacity:1;stroke:none;stroke-width:0.264999;stroke-linecap:round;stroke-dasharray:none"
       id="rect5982"
       width="25.4"
       height="12.7"
       x="6.3499999"
       y="12.7"
       inkscape:label="red" /><rect
       style="fill:url(#linearGradient4019);fill-opacity:1;stroke:none;stroke-width:0.2095;stroke-linecap:round;stroke-dasharray:none"
       id="rect8946"
       width="25.4"
       height="12.7"
       x="6.3499999"
       y="0"
       inkscape:label="green" /><rect
       style="display:inline;fill:url(#linearGradient1527);fill-opacity:1;stroke:none;stroke-width:0.2095;stroke-linecap:round;stroke-dasharray:none"
       id="rect10452"
       width="25.4"
       height="8.4666796"
       x="6.3499999"
       y="-16.933332"
       transform="scale(1,-1)"
       inkscape:label="white" /><g
       id="g60"
       transform="matrix(0.04233263,0,0,0.04233263,-3.1748428,-1.0074356e-6)"
       inkscape:label="lion"><g
         id="g36"><g
           id="path8"><path
             class="cls-2"
             d="m 408.9,302 c 0,0 -2.83,-30.54 3.26,-49.28 4.2,-12.93 10.69,-23.53 21.18,-32.17 16.39,-13.5 41.7,-17.06 59.46,-8.96 -15.55,0.81 -36.37,6.06 -47.65,15.48 -8.64,7.21 -15.39,17.35 -18.73,28.1 -5.68,18.28 -2.85,47.65 -2.85,47.65 l -14.66,-0.81 v 0 z"
             id="path7601"
             style="fill:url(#linearGradient8364);fill-opacity:1" /><path
             d="m 424.53,303.74 -16.43,-0.91 -0.07,-0.75 c -0.03,-0.31 -2.77,-30.94 3.3,-49.63 4.51,-13.88 11.33,-24.24 21.45,-32.58 8,-6.59 18.53,-11.13 29.64,-12.77 11.03,-1.63 21.95,-0.32 30.74,3.69 l 3.25,1.48 -3.57,0.19 c -14.82,0.78 -35.88,5.89 -47.13,15.27 -8.46,7.06 -15.19,17.15 -18.46,27.69 -5.56,17.9 -2.84,47.01 -2.82,47.3 l 0.1,1.01 v 0 z m -14.82,-2.57 12.9,0.72 c -0.43,-5.35 -2.1,-30.66 2.97,-46.98 3.37,-10.85 10.3,-21.24 19.01,-28.51 5.3,-4.42 13.09,-8.27 22.53,-11.13 7.02,-2.13 14.65,-3.61 21.86,-4.28 -7.81,-2.76 -17,-3.53 -26.29,-2.16 -10.8,1.6 -21.02,6 -28.79,12.39 -9.86,8.12 -16.5,18.21 -20.9,31.77 -5.43,16.73 -3.66,43.38 -3.28,48.18 v 0 z"
             id="path7603"
             style="fill:url(#linearGradient8516);fill-opacity:1" /></g><g
           id="path10"><path
             d="m 419.98,252.06 c -5.25,15.85 -5.25,33.33 -4.73,48.35 l 1.95,-0.08 c -0.52,-14.95 -0.4,-32.19 4.65,-47.66 5.05,-15.47 14.95,-29.17 34.25,-37.32 -23.04,5.18 -33.42,28.54 -36.13,36.71 z"
             id="path7606"
             style="fill:url(#linearGradient8522);fill-opacity:1" /></g><g
           id="g32"><g
             id="path12"><path
               class="cls-2"
               d="m 408.78,290.51 h 14.01 v 31.42 h -14.01 z"
               id="path7609"
               style="fill:url(#linearGradient8410);fill-opacity:1" /><path
               d="m 423.67,322.8 h -15.76 v -33.17 h 15.76 z m -14.01,-1.75 h 12.26 v -29.67 h -12.26 z"
               id="path7611"
               style="fill:url(#linearGradient8524);fill-opacity:1" /></g><g
             id="g22"><g
               id="path14"><path
                 class="cls-2"
                 d="m 464.84,349.8 c -8.42,-7.82 -9.05,-1.9 -25.9,-24.6 0,0 -7.36,2.25 -11.19,2.4 -2,0.08 -4.05,-0.18 -5.93,-0.8 -3.46,-1.13 -9.44,-5.2 -9.44,-5.2 l -1.54,-13.2 c 0,0 -3.04,-0.49 -3.95,-1.8 -0.78,-1.13 -0.79,-2.88 0,-4 1.13,-1.61 2.88,-1.99 5.05,-2.6 4.06,-1.14 8.59,-1.06 12.73,-0.2 3.67,0.76 6.52,2.53 10.1,3.6 11,3.29 34.24,5.4 34.24,5.4 l -4.17,40.99 v 0 z"
                 id="path7614"
                 style="fill:url(#linearGradient8362);fill-opacity:1" /><path
                 d="m 465.53,351.63 -1.29,-1.19 c -2.66,-2.47 -4.47,-3.5 -6.39,-4.6 -3.95,-2.25 -8.04,-4.58 -19.25,-19.63 -1.85,0.54 -7.52,2.13 -10.83,2.26 -2.14,0.08 -4.3,-0.21 -6.23,-0.84 -3.54,-1.16 -9.41,-5.14 -9.66,-5.31 l -0.33,-0.22 -1.51,-12.96 c -1.06,-0.24 -3.05,-0.84 -3.87,-2.03 -0.99,-1.43 -0.99,-3.58 0,-5 1.23,-1.75 3.01,-2.24 5.07,-2.81 l 0.45,-0.13 c 3.88,-1.09 8.55,-1.16 13.14,-0.21 2.19,0.45 4.11,1.26 5.97,2.03 1.34,0.56 2.73,1.14 4.2,1.58 10.8,3.23 33.84,5.34 34.07,5.37 l 0.88,0.08 -4.44,43.62 h 0.02 z m -26.26,-27.46 0.37,0.5 c 11.27,15.19 15.24,17.45 19.08,19.64 1.61,0.92 3.27,1.87 5.42,3.69 l 3.91,-38.42 c -4.4,-0.42 -23.65,-2.39 -33.53,-5.35 -1.57,-0.47 -2.99,-1.07 -4.38,-1.65 -1.86,-0.78 -3.62,-1.52 -5.65,-1.94 -4.32,-0.89 -8.7,-0.83 -12.32,0.19 l -0.46,0.13 c -1.88,0.52 -3.24,0.9 -4.11,2.13 -0.58,0.82 -0.57,2.17 0,3 0.48,0.69 2.26,1.25 3.37,1.43 l 0.65,0.11 0.08,0.66 1.49,12.8 c 1.29,0.85 6.04,3.94 8.89,4.87 1.74,0.57 3.68,0.83 5.62,0.76 3.67,-0.14 10.9,-2.34 10.97,-2.36 l 0.59,-0.18 h 0.01 z"
                 id="path7616"
                 style="fill:url(#linearGradient8502);fill-opacity:1" /></g><g
               id="path16"><path
                 class="cls-2"
                 d="m 407.99,319.2 c 0,0 5.64,0.06 8.34,-0.2 1.96,-0.19 3.61,-1.22 5.71,-0.4 1.25,0.49 2.41,3 2.41,3 0,0 -1.9,2.3 -3.29,2.8 -3.88,1.39 -9.25,1.69 -12.73,-0.4 -0.93,-0.56 -1.3,-1.78 -1.32,-2.8 0,-0.72 0.88,-2 0.88,-2 z"
                 id="path7619"
                 style="fill:url(#linearGradient8420);fill-opacity:1" /><path
                 d="m 414.73,326.38 c -2.42,0 -4.83,-0.47 -6.76,-1.63 -1.26,-0.76 -1.72,-2.32 -1.74,-3.54 -0.01,-0.93 0.79,-2.15 1.03,-2.51 l 0.26,-0.38 h 0.46 c 0.06,0 5.63,0.06 8.25,-0.19 0.56,-0.05 1.11,-0.19 1.68,-0.33 1.28,-0.32 2.74,-0.67 4.43,-0.01 1.5,0.59 2.67,2.97 2.89,3.45 l 0.23,0.5 -0.35,0.42 c -0.21,0.25 -2.09,2.5 -3.67,3.07 -1.96,0.7 -4.34,1.16 -6.72,1.16 h 0.01 z m -6.27,-6.31 c -0.27,0.46 -0.48,0.94 -0.48,1.11 0,0.71 0.25,1.67 0.89,2.06 3.31,1.99 8.54,1.57 11.99,0.33 0.72,-0.26 1.81,-1.3 2.54,-2.11 -0.46,-0.84 -1.17,-1.85 -1.69,-2.06 -1.17,-0.46 -2.19,-0.21 -3.37,0.08 -0.61,0.15 -1.24,0.31 -1.93,0.37 -2.28,0.22 -6.51,0.22 -7.95,0.21 v 0 z"
                 id="path7621"
                 style="fill:url(#linearGradient8534);fill-opacity:1" /></g><g
               id="path18"><path
                 class="cls-2"
                 d="m 407.77,314.2 c 0,0 5.64,0.06 8.34,-0.2 1.96,-0.19 4.7,-1.62 6.8,-0.8 1.25,0.49 2.41,3 2.41,3 0,0 -1.9,2.3 -3.29,2.8 -3.88,1.39 -10.35,2.09 -13.83,0 -0.93,-0.56 -1.3,-1.78 -1.32,-2.8 0,-0.72 0.88,-2 0.88,-2 z"
                 id="path7624"
                 style="fill:url(#linearGradient8418);fill-opacity:1" /><path
                 d="m 414.29,321.19 c -2.48,0 -4.84,-0.42 -6.53,-1.44 -1.26,-0.76 -1.72,-2.32 -1.74,-3.54 -0.01,-0.93 0.79,-2.15 1.03,-2.51 l 0.26,-0.38 h 0.46 c 0.06,0 5.63,0.06 8.25,-0.19 0.58,-0.06 1.27,-0.24 2.01,-0.44 1.65,-0.45 3.52,-0.95 5.19,-0.3 1.5,0.59 2.67,2.97 2.89,3.45 l 0.23,0.5 -0.35,0.42 c -0.21,0.25 -2.09,2.5 -3.67,3.07 -2.32,0.83 -5.26,1.37 -8.04,1.37 v 0 z m -6.04,-6.12 c -0.27,0.46 -0.48,0.94 -0.48,1.11 0,0.71 0.25,1.67 0.89,2.06 3.02,1.81 9.02,1.39 13.08,-0.07 0.71,-0.26 1.81,-1.3 2.54,-2.11 -0.46,-0.84 -1.17,-1.85 -1.69,-2.06 -1.14,-0.44 -2.64,-0.04 -4.1,0.36 -0.81,0.22 -1.58,0.43 -2.3,0.5 -2.28,0.22 -6.51,0.22 -7.95,0.21 z"
                 id="path7626"
                 style="fill:url(#linearGradient8532);fill-opacity:1" /></g><g
               id="path20"><path
                 class="cls-2"
                 d="m 407.77,308.6 c 0,0 5.64,0.06 8.34,-0.2 1.96,-0.19 4.7,-1.62 6.8,-0.8 1.25,0.49 2.41,3 2.41,3 0,0 -1.9,2.3 -3.29,2.8 -3.88,1.39 -10.35,2.09 -13.83,0 -0.93,-0.56 -1.3,-1.78 -1.32,-2.8 0,-0.72 0.88,-2 0.88,-2 z"
                 id="path7629"
                 style="fill:url(#linearGradient8416);fill-opacity:1" /><path
                 d="m 414.29,315.59 c -2.48,0 -4.84,-0.42 -6.53,-1.44 -1.26,-0.76 -1.72,-2.32 -1.74,-3.54 -0.01,-0.93 0.79,-2.15 1.03,-2.51 l 0.26,-0.38 h 0.46 c 0.06,0 5.63,0.06 8.25,-0.19 0.58,-0.06 1.27,-0.24 2.01,-0.44 1.65,-0.45 3.52,-0.95 5.19,-0.3 1.5,0.59 2.67,2.97 2.89,3.45 l 0.23,0.5 -0.35,0.42 c -0.21,0.25 -2.09,2.5 -3.67,3.07 -2.32,0.83 -5.26,1.37 -8.04,1.37 v 0 z m -6.04,-6.12 c -0.27,0.46 -0.48,0.94 -0.48,1.11 0,0.71 0.25,1.67 0.89,2.06 3.02,1.81 9.02,1.39 13.08,-0.07 0.72,-0.26 1.81,-1.3 2.54,-2.11 -0.46,-0.84 -1.17,-1.85 -1.69,-2.06 -1.14,-0.44 -2.64,-0.04 -4.1,0.36 -0.81,0.22 -1.58,0.43 -2.3,0.5 -2.28,0.22 -6.51,0.21 -7.95,0.21 z"
                 id="path7631"
                 style="fill:url(#linearGradient8530);fill-opacity:1" /></g></g><g
             id="path24"><path
               class="cls-2"
               d="m 426.32,294.61 h 9.48 l 4.55,-3.05 -4.53,-3.12 h -9.48 l -10.28,-2.55 -10.28,2.55 h -10.02 l -4.53,3.12 4.55,3.05 h 10.02 l 10.26,2.94 z"
               id="path7635"
               style="fill:url(#linearGradient8366);fill-opacity:1" /><path
               d="m 416.06,298.47 -10.38,-2.98 h -10.17 l -5.84,-3.92 5.82,-4 h 10.19 l 10.39,-2.58 10.39,2.58 h 9.65 l 5.82,4 -5.84,3.92 h -9.63 l -10.38,2.98 z m -20.02,-4.73 h 9.88 l 10.14,2.91 10.14,-2.91 h 9.34 l 3.26,-2.19 -3.25,-2.23 h -9.32 l -10.17,-2.53 -10.18,2.53 h -9.86 l -3.25,2.23 3.26,2.19 v 0 z"
               id="path7637"
               style="fill:url(#linearGradient8510);fill-opacity:1" /></g><g
             id="path26"><path
               class="cls-2"
               d="m 544.26,205.6 c -1.17,0 -2.34,0.03 -3.5,0.08 l 1.07,63.03 -9.37,-41.99 c -2.44,0.4 -4.85,0.92 -7.22,1.55 l 11.99,43.02 -25.86,-59.63 c -2.4,0.9 -4.76,1.9 -7.08,2.99 l 28.53,59.99 -26.45,-38.41 c -2.07,1.23 -4.07,2.56 -6,3.98 l 25.3,33.03 -45.25,-42.56 c -1.81,1.67 -3.55,3.43 -5.22,5.24 l 48.27,42.59 -38.29,-23.2 c -1.36,1.84 -2.62,3.75 -3.79,5.73 l 45.48,24.73 1.75,-2.75 0.81,0.75 3.76,-3.44 1.84,-1.17 v 0.09 l 4.04,-1.5 v 0.08 l 3.49,-0.83 h 3.49 l 3.58,0.83 v -0.08 l 4.04,1.5 v -0.09 l 1.84,1.17 3.76,3.44 0.81,-0.75 1.29,2.09 -0.92,0.34 1.93,4.35 1.11,4.25 52.11,-9.37 c -0.33,-2.24 -0.77,-4.44 -1.32,-6.59 l -51.07,11.53 68.11,-24.55 c -0.81,-2.23 -1.71,-4.41 -2.7,-6.54 l -60.92,24.06 39.54,-21.49 c -1.17,-1.98 -2.42,-3.9 -3.78,-5.74 l -38.23,23.15 48.23,-42.54 c -1.66,-1.8 -3.4,-3.54 -5.2,-5.2 l -45.22,42.56 25.24,-33.06 c -1.92,-1.41 -3.91,-2.75 -5.97,-3.98 l -23.86,34.64 -0.64,-0.34 26.58,-55.89 c -2.33,-1.1 -4.71,-2.09 -7.12,-2.99 l -24.41,56.29 -0.37,-0.2 10.99,-39.46 c -2.39,-0.64 -4.81,-1.18 -7.26,-1.58 l -8.67,38.46 1.09,-59.48 c -1.45,-0.07 -2.9,-0.11 -4.36,-0.11 v 0 z"
               id="path7640"
               style="fill:url(#linearGradient8426);fill-opacity:1" /><path
               d="m 562.87,295.02 -1.09,-4.2 -12.1,2.73 11.6,-4.18 -1.26,-2.83 -5.31,2.1 5.03,-2.73 -0.44,-0.98 v 0 l -1.2,-1.09 -0.76,0.46 0.64,-0.57 -2.98,-2.72 -1.35,-0.85 -3.71,-1.38 -3.97,-0.92 h -3.28 l -2.52,0.6 1.35,4.85 -2.03,-4.69 -0.7,0.17 -2.54,0.95 2.11,4.43 -2.86,-4.15 -0.39,0.15 -1.35,0.85 -2.98,2.72 0.65,0.57 -0.76,-0.46 -1.2,1.1 -0.64,-0.59 -1.63,2.55 -46.99,-25.56 0.46,-0.78 c 1.17,-1.98 2.46,-3.93 3.84,-5.8 l 0.47,-0.64 30.6,18.54 -41.6,-36.71 0.61,-0.66 c 1.8,-1.95 3.52,-3.68 5.27,-5.29 l 0.6,-0.55 38,35.75 -19.3,-25.19 0.72,-0.53 c 1.96,-1.44 4.01,-2.79 6.07,-4.02 l 0.7,-0.42 20.7,30.06 -24.19,-50.88 0.79,-0.37 c 2.33,-1.1 4.74,-2.12 7.14,-3.02 l 0.78,-0.29 21.13,48.73 -8.81,-31.62 0.85,-0.23 c 2.39,-0.64 4.84,-1.17 7.3,-1.57 l 0.82,-0.13 7.67,34.39 -0.94,-55.27 0.86,-0.03 c 1.37,-0.05 2.49,-0.08 3.53,-0.08 1.42,0 2.9,0.04 4.4,0.11 l 0.85,0.04 -0.95,51.76 6.97,-30.91 0.81,0.13 c 2.42,0.4 4.9,0.94 7.35,1.6 l 0.85,0.23 -8.64,31.01 20.88,-48.13 0.78,0.29 c 2.61,0.98 4.96,1.97 7.19,3.02 l 0.79,0.37 -24.2,50.9 20.71,-30.06 0.7,0.42 c 1.98,1.18 4.02,2.53 6.04,4.02 l 0.72,0.53 -19.3,25.28 38.04,-35.8 0.6,0.55 c 1.8,1.66 3.57,3.43 5.25,5.25 l 0.61,0.66 -41.56,36.67 30.55,-18.5 0.47,0.64 c 1.32,1.79 2.6,3.74 3.83,5.82 l 0.46,0.78 -27.74,15.08 48.36,-19.1 0.35,0.75 c 1,2.15 1.91,4.37 2.73,6.61 l 0.3,0.82 -55.67,20.07 38.14,-8.61 0.21,0.82 c 0.55,2.15 1,4.39 1.34,6.68 l 0.12,0.84 -53.74,9.66 v -0.02 z m 0.61,-4.59 0.67,2.58 50.47,-9.07 c -0.27,-1.64 -0.59,-3.26 -0.97,-4.84 z m -1.83,-4.52 1.27,2.86 h 0.01 l 67.28,-24.26 c -0.62,-1.65 -1.3,-3.29 -2.03,-4.9 l -65.51,25.87 0.02,0.04 -1.05,0.38 h 0.01 z m -1.73,-1.55 -0.6,0.55 0.77,-0.28 z m 0.76,-2.09 1.45,2.34 43.91,-23.87 c -0.9,-1.49 -1.84,-2.91 -2.79,-4.24 l -42.56,25.78 h -0.01 z m -78.05,-21.6 43.96,23.91 1.47,-2.31 -42.63,-25.82 c -0.99,1.38 -1.93,2.79 -2.81,4.23 h 0.01 z m 45.83,20.96 0.99,0.92 2.48,-2.27 -51.5,-48.44 c -1.31,1.23 -2.62,2.55 -3.96,3.98 l 51.96,45.85 0.02,-0.04 z m 28.38,-1.31 2.44,2.23 1,-0.93 0.02,0.04 51.91,-45.79 c -1.28,-1.36 -2.6,-2.68 -3.95,-3.95 z m -4.04,-2.78 3.25,2.06 0.63,0.57 30.37,-39.77 c -1.5,-1.08 -3.01,-2.08 -4.48,-2.98 l -23.83,34.6 -2.08,-1.09 26.56,-55.85 c -1.73,-0.79 -3.53,-1.55 -5.49,-2.3 l -24.46,56.39 -1.82,-0.99 10.94,-39.28 c -1.84,-0.47 -3.69,-0.88 -5.51,-1.2 l -10.38,46.01 1.23,-67.19 c -1.18,-0.05 -2.35,-0.07 -3.47,-0.07 v 0 c -0.8,0 -1.64,0 -2.61,0.05 l 1.19,69.58 h 3.32 l 2.6,0.6 v -0.24 l 4.04,1.5 z m -51.18,-37.18 30.47,39.77 0.58,-0.53 1.76,-1.12 -28.31,-41.11 c -1.53,0.93 -3.04,1.93 -4.51,2.98 h 0.01 z m 34.3,37.19 v 0.42 l 2.82,-1.05 -27.82,-64.16 c -1.83,0.71 -3.65,1.48 -5.44,2.3 l 29.89,62.84 0.56,-0.35 z m 4.04,-1.08 v 0.23 l 2.51,-0.6 h 0.12 L 531.8,227.71 c -1.84,0.32 -3.67,0.71 -5.46,1.17 l 13.3,47.71 0.33,-0.12 z"
               id="path7642"
               style="display:inline;fill:url(#linearGradient8432);fill-opacity:1;stroke-width:1.00002;stroke-dasharray:none" /></g><g
             id="path28"><path
               class="cls-2"
               d="m 544.26,260.67 c -20.33,0 -37.05,15.02 -37.05,33.75 0,18.73 16.71,33.84 37.05,33.84 20.34,0 37.15,-15.1 37.15,-33.84 0,-18.74 -16.82,-33.75 -37.15,-33.75 z"
               id="path7645"
               style="fill:url(#linearGradient8352);fill-opacity:1" /><path
               d="m 544.26,329.14 c -20.91,0 -37.93,-15.57 -37.93,-34.72 0,-19.15 17.01,-34.63 37.93,-34.63 20.92,0 38.02,15.53 38.02,34.63 0,19.1 -17.06,34.72 -38.02,34.72 z m 0,-67.59 c -19.95,0 -36.18,14.75 -36.18,32.88 0,18.13 16.23,32.97 36.18,32.97 19.95,0 36.27,-14.79 36.27,-32.97 0,-18.18 -16.27,-32.88 -36.27,-32.88 z"
               id="path7647"
               style="fill:url(#linearGradient8438);fill-opacity:1" /></g><g
             id="path30"><path
               class="cls-2"
               d="M 414.22,399.13 H 640.26 V 386.36 H 414.22 Z"
               id="path7650"
               style="fill:url(#linearGradient12344);fill-opacity:1" /><path
               d="M 641.14,400 H 413.35 V 385.48 H 641.14 Z M 415.1,398.25 H 639.39 V 387.22 H 415.1 Z"
               id="path7652"
               style="display:inline;fill:url(#linearGradient8474);fill-opacity:1" /></g></g><g
           id="path34"><path
             d="m 421.37,385.37 c 0.16,2.41 0.99,6.26 1.94,7.37 -3.68,-0.53 -3.86,-4.96 -4.32,-7.28 l 2.37,-0.09 z m 6.84,0 c 0.16,2.41 0.99,6.26 1.94,7.37 -3.68,-0.53 -3.86,-4.96 -4.32,-7.28 l 2.37,-0.09 z m 6.84,0 c 0.16,2.41 0.99,6.26 1.94,7.37 -3.68,-0.53 -3.86,-4.96 -4.32,-7.28 l 2.37,-0.09 z m 6.84,0 c 0.16,2.41 0.99,6.26 1.94,7.37 -3.68,-0.53 -3.86,-4.96 -4.32,-7.28 l 2.37,-0.09 z m 6.84,0 c 0.16,2.41 0.99,6.26 1.94,7.37 -3.68,-0.53 -3.86,-4.96 -4.32,-7.28 l 2.37,-0.09 z m 6.84,0 c 0.16,2.41 0.99,6.26 1.94,7.37 -3.68,-0.53 -3.86,-4.96 -4.32,-7.28 l 2.37,-0.09 z m 6.84,0 c 0.16,2.41 0.99,6.26 1.94,7.37 -3.68,-0.53 -3.86,-4.96 -4.32,-7.28 l 2.37,-0.09 z m 6.84,0 c 0.16,2.41 0.99,6.26 1.94,7.37 -3.68,-0.53 -3.86,-4.96 -4.32,-7.28 l 2.37,-0.09 z m 6.84,0 c 0.16,2.41 0.99,6.26 1.94,7.37 -3.68,-0.53 -3.86,-4.96 -4.32,-7.28 l 2.37,-0.09 z m 6.84,0 c 0.16,2.41 0.99,6.26 1.94,7.37 -3.68,-0.53 -3.86,-4.96 -4.32,-7.28 l 2.37,-0.09 z m 6.84,0 c 0.16,2.41 0.99,6.26 1.94,7.37 -3.68,-0.53 -3.86,-4.96 -4.32,-7.28 l 2.37,-0.09 z m 6.84,0 c 0.16,2.41 0.99,6.26 1.94,7.37 -3.68,-0.53 -3.86,-4.96 -4.32,-7.28 l 2.37,-0.09 z m 6.84,0 c 0.16,2.41 0.99,6.26 1.94,7.37 -3.68,-0.53 -3.86,-4.96 -4.32,-7.28 l 2.37,-0.09 z m 6.84,0 c 0.16,2.41 0.99,6.26 1.94,7.37 -3.68,-0.53 -3.86,-4.96 -4.32,-7.28 l 2.37,-0.09 z m 6.84,0 c 0.16,2.41 0.99,6.26 1.94,7.37 -3.68,-0.53 -3.86,-4.96 -4.32,-7.28 l 2.37,-0.09 z m 6.84,0 c 0.16,2.41 0.99,6.26 1.94,7.37 -3.68,-0.53 -3.86,-4.96 -4.32,-7.28 l 2.37,-0.09 z m 6.84,0 c 0.16,2.41 0.99,6.26 1.94,7.37 -3.68,-0.53 -3.86,-4.96 -4.32,-7.28 l 2.37,-0.09 z m 6.84,0 c 0.16,2.41 0.99,6.26 1.94,7.37 -3.68,-0.53 -3.86,-4.96 -4.32,-7.28 l 2.37,-0.09 z m 6.84,0 c 0.16,2.41 0.99,6.26 1.94,7.37 -3.68,-0.53 -3.86,-4.96 -4.32,-7.28 l 2.37,-0.09 z m 6.84,0 c 0.16,2.41 0.99,6.26 1.94,7.37 -3.68,-0.53 -3.86,-4.96 -4.32,-7.28 l 2.37,-0.09 z m 6.84,0 c 0.16,2.41 0.99,6.26 1.94,7.37 -3.68,-0.53 -3.86,-4.96 -4.32,-7.28 l 2.37,-0.09 z m 6.84,0 c 0.16,2.41 0.99,6.26 1.94,7.37 -3.68,-0.53 -3.86,-4.96 -4.32,-7.28 l 2.37,-0.09 z m 6.84,0 c 0.16,2.41 0.99,6.26 1.94,7.37 -3.68,-0.53 -3.86,-4.96 -4.32,-7.28 l 2.37,-0.09 z m 6.84,0 c 0.16,2.41 0.99,6.26 1.94,7.37 -3.68,-0.53 -3.86,-4.96 -4.32,-7.28 l 2.37,-0.09 z m 6.84,0 c 0.16,2.41 0.99,6.26 1.94,7.37 -3.68,-0.53 -3.86,-4.96 -4.32,-7.28 l 2.37,-0.09 z m 6.84,0 c 0.16,2.41 0.99,6.26 1.94,7.37 -3.68,-0.53 -3.86,-4.96 -4.32,-7.28 l 2.37,-0.09 z m 6.84,0 c 0.16,2.41 0.99,6.26 1.94,7.37 -3.68,-0.53 -3.86,-4.96 -4.32,-7.28 l 2.37,-0.09 z m 6.84,0 c 0.16,2.41 0.99,6.26 1.94,7.37 -3.68,-0.53 -3.86,-4.96 -4.32,-7.28 l 2.37,-0.09 z m 6.84,0 c 0.16,2.41 0.99,6.26 1.94,7.37 -3.68,-0.53 -3.86,-4.96 -4.32,-7.28 l 2.37,-0.09 z m 6.84,0 c 0.16,2.41 0.99,6.26 1.94,7.37 -3.68,-0.53 -3.86,-4.96 -4.32,-7.28 l 2.37,-0.09 z m 6.84,0 c 0.16,2.41 0.99,6.26 1.94,7.37 -3.68,-0.53 -3.86,-4.96 -4.32,-7.28 l 2.37,-0.09 z m 6.84,0 c 0.16,2.41 0.99,6.26 1.94,7.37 -3.68,-0.53 -3.86,-4.96 -4.32,-7.28 l 2.37,-0.09 z"
             id="path7656"
             style="fill:url(#linearGradient8468);fill-opacity:1" /></g></g><g
         id="g58"><g
           id="path38"><path
             class="cls-2"
             d="m 553.63,353.64 c -4.42,7.37 1.71,13.95 -1.62,19.59 0,0 -7.08,-1.27 -10.76,-1.43 -2.55,-0.11 -6.31,-0.11 -8.49,0.89 -3.89,1.79 -7.25,4.24 -9.02,6.96 -3.22,4.96 0.71,9.55 6.52,7.12 5.2,4.78 11.32,1.72 18.82,-0.89 1.54,-0.54 3.79,0.04 5.68,0.43 1.97,0.4 4.2,0.72 6.06,0 4.42,-1.71 7.42,-6.74 10.22,-14.82 l 4.36,1.83 c 0.05,-3.45 -1.49,-6.09 -3.5,-8.48 l 5.2,1.75 c 0.03,-3.44 -1.65,-5.95 -3.36,-7.84 l 5,1.85 c 0,0 -0.42,-1.79 -0.5,-4.44 -0.05,-1.72 0.36,-4.23 0.02,-5.37 -0.58,-1.97 -1.35,-2.75 -1.85,-4.19 -0.4,-1.15 -0.89,-3.52 -0.89,-3.52 -15.06,-6.6 -11.82,-22.15 -9.05,-28.73 l -28.68,19.78 c -5.79,3.77 2.16,17.34 15.83,19.53 v 0 -0.02 z"
             id="path7660"
             style="fill:url(#linearGradient8344);fill-opacity:1" /><path
             d="m 536.63,390.16 c -2.3,0 -4.47,-0.65 -6.53,-2.39 -2.92,1.05 -5.65,0.56 -7.23,-1.33 -1.59,-1.9 -1.53,-4.68 0.15,-7.27 1.76,-2.71 5.09,-5.3 9.38,-7.28 1.82,-0.84 4.73,-1.16 8.9,-0.97 3.09,0.14 8.42,1.02 10.25,1.33 1.04,-2.2 0.62,-4.6 0.13,-7.34 -0.57,-3.21 -1.2,-6.82 0.62,-10.63 -5.19,-1.09 -8.93,-3.61 -11.2,-5.6 -3.1,-2.72 -5.25,-6 -5.89,-9.01 -0.59,-2.78 0.16,-5.01 2.12,-6.28 l 31.12,-21.46 -1.16,2.75 c -0.7,1.67 -2.93,7.61 -2.1,13.91 0.83,6.34 4.43,10.94 10.7,13.69 l 0.41,0.18 0.09,0.44 c 0,0 0.48,2.33 0.86,3.42 0.19,0.55 0.43,1 0.7,1.52 0.37,0.71 0.8,1.5 1.15,2.71 0.25,0.85 0.17,2.12 0.09,3.46 -0.05,0.74 -0.09,1.51 -0.07,2.13 0.08,2.53 0.47,4.25 0.48,4.27 l 0.37,1.58 -3.7,-1.37 c 0.96,1.56 1.74,3.54 1.71,5.99 v 1.2 l -3.71,-1.24 c 1.14,1.8 2.05,4.02 2.01,6.77 l -0.02,1.3 -4.7,-1.97 c -3.05,8.49 -6.19,12.83 -10.42,14.47 -2.06,0.8 -4.46,0.47 -6.55,0.04 -0.2,-0.04 -0.4,-0.08 -0.61,-0.13 -1.62,-0.34 -3.46,-0.73 -4.6,-0.33 -0.83,0.29 -1.66,0.59 -2.45,0.88 -3.7,1.34 -7.12,2.58 -10.3,2.58 z m -6.18,-4.41 0.41,0.38 c 4.23,3.89 9.19,2.09 15.47,-0.19 0.8,-0.29 1.63,-0.59 2.47,-0.89 1.6,-0.56 3.69,-0.12 5.54,0.27 0.2,0.04 0.4,0.09 0.6,0.13 1.83,0.38 3.93,0.67 5.56,0.04 3.84,-1.49 6.75,-5.76 9.71,-14.29 l 0.31,-0.88 3.94,1.65 c -0.26,-2.21 -1.27,-4.24 -3.23,-6.57 l -2,-2.38 6.92,2.33 c -0.35,-2.72 -1.87,-4.71 -3.06,-6.02 l 0.95,-1.41 3.58,1.32 c -0.11,-0.78 -0.22,-1.83 -0.25,-3.06 -0.02,-0.7 0.03,-1.51 0.08,-2.29 0.07,-1.08 0.14,-2.3 -0.02,-2.86 -0.3,-1.03 -0.67,-1.72 -1.02,-2.38 -0.28,-0.53 -0.58,-1.08 -0.81,-1.77 -0.31,-0.89 -0.66,-2.44 -0.82,-3.19 -6.52,-2.99 -10.43,-8.13 -11.31,-14.87 -0.63,-4.77 0.38,-9.33 1.28,-12.21 l -26.43,18.23 c -1.7,1.1 -1.69,3.04 -1.38,4.47 1.14,5.36 7.91,12.04 16.85,13.47 l 1.28,0.2 -0.66,1.11 c -2.2,3.66 -1.58,7.15 -0.99,10.52 0.53,3.03 1.08,6.16 -0.63,9.06 l -0.31,0.52 -0.6,-0.11 c -0.07,-0.01 -7.07,-1.26 -10.64,-1.42 -3.83,-0.17 -6.55,0.11 -8.09,0.82 -4,1.84 -7.07,4.2 -8.65,6.64 -1.24,1.92 -1.35,3.91 -0.27,5.2 1.16,1.39 3.35,1.63 5.73,0.63 l 0.52,-0.22 z"
             id="path7662"
             style="fill:url(#linearGradient8456);fill-opacity:1" /></g><g
           id="path40"><path
             d="m 554.21,340.59 c -2.01,-0.74 -5.02,-2.39 -5.68,-5.31 l 2.18,-4.55 c -0.95,5.14 2.5,8.9 3.5,9.86 z m -3.29,2.77 c -2.01,-0.74 -5.02,-2.39 -5.68,-5.31 l 2.18,-4.55 c -0.95,5.14 2.5,8.9 3.5,9.86 z m -2.77,3.26 c -2.01,-0.74 -5.02,-2.39 -5.68,-5.31 l 2.18,-4.55 c -0.95,5.14 2.5,8.9 3.5,9.86 z m -3.53,30.56 c 0,0 -4.33,-0.23 -6.88,0.17 -1.69,0.26 -3.35,0.87 -4.77,1.84 -1.63,1.11 -3.59,2.53 -4.13,4.68 -0.24,0.96 0.05,1.93 0.28,2.67 0.23,0.75 0.46,1.34 0.46,1.34 l 1.93,-0.75 c 0,0 -0.27,-0.47 -0.46,-1.09 -0.19,-0.61 -0.27,-1.41 -0.18,-1.76 0.33,-1.34 1.78,-2.56 3.3,-3.59 3.62,-2.86 7.14,-2 10.46,-3.51 z m 15.03,-0.76 c 1.53,-2.06 4.13,-4.41 5.04,-7.26 0.91,-2.86 1.23,-5.86 0.2,-8.29 -1.96,0.85 -5.97,14.99 -5.25,15.55 z m 11.01,-22.75 c -0.51,2.91 -5.26,2.83 -7.31,2.09 -2.06,-0.73 -3.59,-3.24 -2.56,-5.59 0.82,3.2 5.96,4.69 9.88,3.5 z m 0.76,-7.15 c -0.51,2.91 -5.26,2.83 -7.31,2.09 -2.06,-0.73 -3.59,-3.24 -2.56,-5.59 0.82,3.2 5.96,4.69 9.88,3.5 z"
             id="path7665"
             style="fill:url(#linearGradient8462);fill-opacity:1" /></g><g
           id="path42"><path
             class="cls-2"
             d="m 642.56,233.3 c 0.88,3.98 -0.88,6.72 -3.17,7.82 -3.45,1.65 -6.66,0.54 -9.54,-1.92 -3.75,-3.2 -6.29,-7.46 -9.63,-10.28 -4.24,-3.57 -9.36,-4.53 -13.76,-4.26 -4.41,0.27 -8.36,2.08 -11.19,4.93 -5.68,5.7 -7.14,15.92 -1.19,24.32 5.6,7.91 22.43,13.53 28.81,18.31 5.73,4.29 8.26,7.13 9.36,10.29 1.1,3.16 1.52,7.17 -0.18,11.03 -2.05,4.65 -6.94,6.64 -14.23,6.79 -9.69,0.19 -18.83,-8 -28.18,-9.37 -17.51,-2.57 -22.49,4.24 -38.76,4.43 -32.23,0.38 -45.38,-9.36 -45.38,-9.36 l -34.94,40.45 c -10.67,3.98 -11.23,18.67 0,26.58 -3.21,1.84 -6.39,5.66 -7.8,8.86 -1.77,4.03 -3.22,6.53 -5.41,9.45 0,0 -7.06,-1.26 -10.74,-1.42 -2.55,-0.11 -6.35,-0.09 -8.53,0.92 -3.89,1.79 -7.23,4.21 -8.99,6.94 -3.22,4.96 0.7,9.54 6.51,7.1 5.2,4.78 11.31,1.78 18.81,-0.84 1.54,-0.54 3.81,0.03 5.69,0.42 1.97,0.4 4.22,0.76 6.06,0 4.32,-1.79 6.27,-6.39 9.36,-9.61 1.45,-1.52 4.31,-4.6 4.31,-4.6 l 2.84,3.59 c 1.92,-2.98 2.01,-5.96 1.56,-8.94 l 3.58,3.84 c 1.89,-2.97 1.75,-5.94 1.28,-8.36 l 3.39,3.84 c 0,0 0.56,-1.67 1.93,-4.01 0.89,-1.52 2.61,-3.54 2.94,-4.68 0.56,-1.97 0.73,-4.51 0.73,-4.51 1.96,1.71 3.45,2.59 5.96,2.26 0.36,-3.57 0.62,-4.65 1.56,-6.1 12.47,-0.6 24.08,-2.59 34.59,-6.6 7.94,-3.03 15.3,-7.17 21.84,-12.71 1.71,-1.44 3.08,-2.21 4.68,-3.84 1.57,-1.61 8.09,-0.79 11.38,0.42 1.59,0.58 3.58,3.01 3.58,3.01 2.63,6.71 8.85,22.73 25.97,26.16 -4.42,7.37 1.68,14.01 -1.65,19.64 0,0 -7.06,-1.34 -10.74,-1.5 -2.55,-0.11 -6.26,-0.09 -8.44,0.92 -3.89,1.79 -7.32,4.21 -9.08,6.94 -3.22,4.96 0.7,9.63 6.51,7.19 5.2,4.78 11.31,1.7 18.81,-0.92 1.54,-0.54 3.81,0.03 5.69,0.42 1.97,0.4 4.2,0.72 6.06,0 4.42,-1.71 7.47,-6.72 10.28,-14.79 l 4.31,1.76 c 0.05,-3.45 -1.48,-6.05 -3.49,-8.44 l 5.23,1.76 c 0.03,-3.44 -1.68,-5.97 -3.39,-7.86 l 5.05,1.84 c 0,0 -0.47,-1.78 -0.55,-4.43 -0.05,-1.72 0.34,-4.21 0,-5.35 -0.58,-1.97 -1.34,-2.74 -1.84,-4.18 -0.4,-1.15 -0.83,-3.51 -0.83,-3.51 -9.02,-4.16 -11.01,-11.02 -11.1,-17.22 -0.12,-8.18 -1.48,-12.81 -7.16,-17.76 1.99,-0.32 4.04,-0.06 5.78,-0.04 10.84,0.12 19.72,-4.94 22.37,-12.38 1.77,-4.96 1.79,-10.53 -0.36,-14.78 -3.08,-6.09 -6.34,-8.72 -12.56,-13.37 -7.01,-5.25 -23.2,-11.1 -27.53,-17.22 -4.64,-6.55 -3.29,-13.27 0.55,-17.14 3.77,-3.79 9.94,-5.57 16.61,-0.33 4,3.14 6.43,7.6 9.73,10.36 3.85,3.22 10.56,5.88 16.33,2.51 5.99,-3.5 6.78,-8.68 6.2,-13.08 1,-3.61 4.46,-6.7 10.51,-6.98 -1.92,-3.68 -10.74,-7.39 -14.49,0.3 -4.5,-6.12 -13.1,-3.15 -14.71,2.68 4.5,-0.94 9.43,0.49 12.82,4.67 z"
             id="path7668"
             style="fill:url(#linearGradient8338);fill-opacity:1" /><path
             d="m 590.57,390.19 c -2.29,0 -4.45,-0.65 -6.51,-2.38 -2.9,1.04 -5.62,0.55 -7.2,-1.34 -1.6,-1.92 -1.55,-4.73 0.13,-7.33 1.73,-2.66 5.08,-5.24 9.45,-7.26 1.82,-0.84 4.8,-1.18 8.85,-1 3.09,0.14 8.4,1.07 10.23,1.4 1.04,-2.2 0.62,-4.61 0.14,-7.36 -0.56,-3.24 -1.19,-6.87 0.66,-10.7 -16.61,-3.97 -22.75,-19.54 -25.41,-26.32 -0.59,-0.69 -2.06,-2.25 -3.12,-2.64 -3.65,-1.34 -9.41,-1.69 -10.45,-0.63 -1.04,1.06 -1.97,1.76 -2.95,2.5 -0.57,0.43 -1.16,0.87 -1.79,1.41 -6.32,5.35 -13.75,9.67 -22.09,12.85 -9.93,3.79 -21.19,5.96 -34.4,6.64 -0.65,1.13 -0.88,2.22 -1.19,5.34 l -0.07,0.69 -0.68,0.09 c -2.22,0.3 -3.75,-0.25 -5.38,-1.43 -0.12,0.9 -0.31,2.05 -0.6,3.06 -0.24,0.85 -1,1.92 -1.8,3.06 -0.44,0.63 -0.9,1.27 -1.22,1.82 -1.3,2.22 -1.85,3.83 -1.85,3.85 l -0.48,1.43 -2.57,-2.91 c 0.03,1.86 -0.34,4.02 -1.72,6.18 l -0.61,0.95 -2.61,-2.81 c 0.04,2.12 -0.36,4.53 -1.92,6.95 l -0.66,1.03 -2.97,-3.76 c -0.94,1.01 -2.63,2.81 -3.63,3.86 -0.97,1.01 -1.81,2.15 -2.71,3.36 -1.87,2.53 -3.81,5.15 -6.95,6.45 -2.08,0.86 -4.48,0.48 -6.57,0.05 -0.18,-0.04 -0.37,-0.08 -0.56,-0.12 -1.64,-0.35 -3.51,-0.74 -4.67,-0.33 -0.79,0.28 -1.57,0.56 -2.34,0.83 -6.43,2.32 -12,4.34 -16.94,0.18 -2.92,1.05 -5.65,0.56 -7.22,-1.32 -1.58,-1.89 -1.53,-4.68 0.15,-7.27 1.75,-2.7 5.08,-5.28 9.36,-7.26 1.83,-0.84 4.84,-1.18 8.94,-1 3.14,0.14 8.59,1.04 10.32,1.34 2.02,-2.74 3.36,-5.12 4.99,-8.84 1.39,-3.15 4.23,-6.56 7.07,-8.56 -5.38,-4.26 -8.21,-10.45 -7.44,-16.44 0.65,-5.05 3.73,-8.98 8.45,-10.82 l 35.33,-40.9 0.65,0.48 c 0,0 3.33,2.42 10.47,4.73 6.6,2.14 17.92,4.65 34.38,4.46 6.9,-0.08 11.74,-1.37 16.43,-2.62 6.34,-1.69 12.32,-3.29 22.46,-1.8 4.29,0.63 8.55,2.66 12.66,4.61 5.01,2.38 10.19,4.85 15.37,4.75 7.35,-0.14 11.62,-2.13 13.45,-6.27 1.74,-3.95 1.05,-7.83 0.16,-10.39 -1.04,-3.01 -3.58,-5.78 -9.06,-9.87 -2.22,-1.66 -5.86,-3.49 -9.72,-5.43 -7.29,-3.66 -15.56,-7.81 -19.28,-13.08 -2.94,-4.15 -4.29,-8.9 -3.92,-13.74 0.35,-4.52 2.2,-8.67 5.21,-11.7 3.06,-3.07 7.23,-4.91 11.76,-5.19 3.86,-0.23 9.49,0.35 14.38,4.47 1.7,1.43 3.15,3.16 4.68,4.99 1.52,1.82 3.1,3.71 4.96,5.29 2.98,2.55 5.8,3.14 8.6,1.8 1.8,-0.86 3.45,-3.05 2.74,-6.64 -2.98,-3.57 -7.38,-5.14 -11.82,-4.21 l -1.4,0.29 0.38,-1.38 c 0.9,-3.26 3.89,-5.89 7.43,-6.55 3.04,-0.56 5.88,0.37 7.98,2.57 1.58,-2.45 3.92,-3.81 6.71,-3.85 h 0.12 c 3.79,0 7.39,2.41 8.57,4.68 l 0.63,1.21 -1.37,0.06 c -4.97,0.24 -8.56,2.54 -9.66,6.18 0.75,6.11 -1.48,10.75 -6.65,13.77 -2.79,1.63 -6.08,2.09 -9.52,1.32 -2.77,-0.62 -5.54,-2.01 -7.81,-3.91 -1.58,-1.32 -2.93,-2.97 -4.36,-4.72 -1.61,-1.96 -3.27,-3.99 -5.35,-5.63 -7.91,-6.21 -13.82,-1.37 -15.45,0.26 -4.76,4.78 -3.66,11.49 -0.46,16.01 2.51,3.54 9.36,7.08 15.98,10.5 4.39,2.27 8.55,4.42 11.36,6.52 6.23,4.67 9.63,7.39 12.81,13.68 2.17,4.3 2.33,10.08 0.41,15.47 -2.77,7.79 -11.91,12.97 -22.82,12.97 h -0.39 c -0.5,0 -1.02,-0.03 -1.56,-0.06 -0.71,-0.03 -1.44,-0.07 -2.16,-0.06 4.87,4.87 5.87,9.72 5.98,17.04 0.12,7.93 3.49,13.16 10.59,16.44 l 0.41,0.19 0.08,0.45 c 0,0 0.42,2.31 0.79,3.38 0.19,0.56 0.43,1 0.7,1.52 0.37,0.7 0.79,1.5 1.15,2.7 0.25,0.85 0.18,2.12 0.1,3.47 -0.04,0.73 -0.09,1.49 -0.07,2.1 0.08,2.5 0.52,4.22 0.52,4.24 l 0.42,1.61 -3.79,-1.38 c 0.98,1.57 1.77,3.57 1.75,6.02 v 1.2 l -3.75,-1.25 c 1.13,1.79 2.04,4.01 2,6.74 l -0.02,1.28 -4.65,-1.89 c -3.04,8.46 -6.2,12.8 -10.48,14.46 -2.06,0.8 -4.46,0.47 -6.55,0.04 -0.18,-0.04 -0.37,-0.08 -0.56,-0.12 -1.64,-0.35 -3.51,-0.74 -4.67,-0.33 -0.85,0.3 -1.7,0.6 -2.51,0.9 -3.69,1.34 -7.09,2.58 -10.26,2.58 z m -6.15,-4.41 0.41,0.38 c 4.21,3.87 9.15,2.08 15.4,-0.19 0.82,-0.3 1.67,-0.61 2.53,-0.91 1.62,-0.56 3.74,-0.12 5.6,0.27 0.19,0.04 0.37,0.08 0.55,0.11 1.83,0.38 3.93,0.67 5.57,0.04 3.85,-1.49 6.86,-5.89 9.77,-14.27 l 0.3,-0.87 3.89,1.58 c -0.33,-2.77 -1.78,-4.85 -3.21,-6.55 l -2,-2.38 6.95,2.33 c -0.35,-2.71 -1.89,-4.71 -3.09,-6.03 l 0.95,-1.41 3.6,1.31 c -0.12,-0.79 -0.24,-1.83 -0.27,-3.05 -0.02,-0.69 0.02,-1.49 0.07,-2.26 0.06,-1.08 0.13,-2.31 -0.03,-2.87 -0.3,-1.03 -0.67,-1.72 -1.02,-2.38 -0.28,-0.53 -0.57,-1.08 -0.81,-1.76 -0.31,-0.9 -0.63,-2.44 -0.77,-3.19 -7.41,-3.57 -11.07,-9.39 -11.2,-17.81 -0.12,-7.65 -1.17,-12.16 -6.86,-17.12 l -1.4,-1.22 1.84,-0.3 c 1.52,-0.25 3.07,-0.17 4.43,-0.11 0.53,0.03 1.03,0.05 1.5,0.05 10.34,0.12 18.98,-4.63 21.54,-11.8 1.76,-4.95 1.64,-10.22 -0.32,-14.1 -3.01,-5.95 -6.12,-8.44 -12.3,-13.07 -2.7,-2.02 -6.78,-4.13 -11.11,-6.37 -6.81,-3.52 -13.85,-7.16 -16.6,-11.05 -5.03,-7.11 -3.3,-14.29 0.64,-18.26 3.88,-3.9 10.58,-6.05 17.77,-0.41 2.23,1.76 3.96,3.86 5.62,5.9 1.37,1.68 2.67,3.26 4.12,4.48 3.99,3.34 10.27,5.38 15.33,2.42 4.62,-2.7 6.51,-6.69 5.77,-12.21 l -0.02,-0.18 0.05,-0.17 c 1.13,-4.08 4.72,-6.8 9.73,-7.48 -1.37,-1.4 -3.77,-2.6 -6.17,-2.6 h -0.1 c -1.77,0.02 -4.21,0.74 -5.81,4.01 l -0.63,1.3 -0.86,-1.16 c -1.73,-2.35 -4.32,-3.41 -7.1,-2.9 -2.39,0.44 -4.47,1.97 -5.53,3.97 4.62,-0.45 9.06,1.44 12.12,5.22 l 0.13,0.16 0.04,0.2 c 0.85,3.88 -0.58,7.33 -3.65,8.79 -3.44,1.64 -6.97,0.95 -10.49,-2.05 -1.97,-1.68 -3.59,-3.62 -5.16,-5.5 -1.48,-1.77 -2.89,-3.45 -4.47,-4.78 -4.45,-3.74 -9.6,-4.27 -13.15,-4.06 -4.1,0.25 -7.87,1.91 -10.63,4.68 -2.72,2.73 -4.39,6.49 -4.7,10.6 -0.34,4.43 0.91,8.79 3.6,12.6 3.47,4.91 11.53,8.95 18.64,12.52 3.93,1.97 7.64,3.84 9.98,5.59 5.78,4.33 8.49,7.33 9.66,10.7 0.99,2.86 1.76,7.21 -0.21,11.67 -2.1,4.76 -7.01,7.15 -15.01,7.31 -5.6,0.1 -10.96,-2.45 -16.16,-4.92 -4.19,-1.99 -8.14,-3.87 -12.17,-4.46 -9.79,-1.44 -15.6,0.11 -21.76,1.76 -4.79,1.28 -9.74,2.6 -16.86,2.68 -9.25,0.11 -22.85,-0.6 -35.06,-4.58 -5.58,-1.82 -8.86,-3.67 -10.18,-4.5 l -34.58,40.04 -0.21,0.08 c -4.22,1.57 -6.97,5.03 -7.54,9.49 -0.74,5.72 2.23,11.68 7.74,15.56 l 1.12,0.79 -1.19,0.68 c -2.88,1.65 -6,5.2 -7.43,8.45 -1.76,4 -3.25,6.61 -5.51,9.62 l -0.32,0.43 -0.53,-0.09 c -0.07,-0.01 -7.05,-1.25 -10.62,-1.41 -3.77,-0.17 -6.58,0.12 -8.13,0.84 -3.99,1.84 -7.05,4.19 -8.62,6.62 -1.24,1.92 -1.35,3.91 -0.28,5.19 1.16,1.38 3.35,1.62 5.72,0.63 l 0.52,-0.22 0.41,0.38 c 4.25,3.91 9.25,2.11 15.57,-0.18 0.77,-0.28 1.56,-0.56 2.36,-0.84 1.62,-0.56 3.73,-0.12 5.6,0.27 0.19,0.04 0.37,0.08 0.55,0.11 1.83,0.38 3.93,0.72 5.55,0.05 2.69,-1.11 4.4,-3.43 6.21,-5.88 0.89,-1.2 1.81,-2.44 2.85,-3.53 1.43,-1.5 4.27,-4.56 4.3,-4.59 l 0.69,-0.75 2.67,3.38 c 1.02,-2.06 1.26,-4.31 0.81,-7.26 l -0.42,-2.79 4.68,5.03 c 1.18,-2.47 0.96,-4.86 0.6,-6.72 l -0.6,-3.14 4.57,5.18 c 0.32,-0.72 0.8,-1.7 1.45,-2.82 0.36,-0.61 0.84,-1.29 1.3,-1.95 0.65,-0.92 1.39,-1.97 1.55,-2.53 0.53,-1.86 0.7,-4.31 0.7,-4.33 l 0.12,-1.76 1.33,1.16 c 1.65,1.44 2.84,2.17 4.6,2.11 0.32,-3.01 0.62,-4.23 1.62,-5.77 l 0.24,-0.38 0.45,-0.02 c 13.22,-0.64 24.45,-2.78 34.32,-6.55 8.16,-3.11 15.42,-7.34 21.58,-12.56 0.67,-0.57 1.28,-1.02 1.87,-1.47 0.93,-0.7 1.8,-1.35 2.75,-2.32 2.04,-2.09 9.1,-0.97 12.3,0.21 1.76,0.65 3.73,3.01 3.95,3.27 l 0.09,0.11 0.09,0.22 c 2.61,6.65 8.72,22.21 25.29,25.53 l 1.21,0.24 -0.64,1.06 c -2.2,3.66 -1.59,7.17 -1,10.56 0.53,3.04 1.07,6.18 -0.64,9.08 l -0.31,0.53 -0.6,-0.11 c -0.07,-0.01 -7.04,-1.33 -10.61,-1.49 -3.71,-0.16 -6.49,0.13 -8.04,0.84 -4.07,1.88 -7.17,4.23 -8.72,6.62 -1.25,1.93 -1.35,3.95 -0.26,5.26 1.16,1.39 3.35,1.64 5.7,0.65 l 0.52,-0.22 z"
             id="path7670"
             style="fill:url(#linearGradient8444);fill-opacity:1" /></g><g
           id="path44"><path
             d="m 598.6,302.96 c 3.88,-0.68 8.17,1.76 12.35,3.29 2.49,0.91 4.74,0.61 5.57,1.18 l -3.77,0.68 4.71,8.29 c -2.24,-4.13 -14.64,-12.53 -18.85,-13.44 z m -9.41,23.16 c 0.98,7.09 3.31,12.56 7.43,16.63 4.12,4.07 9.89,6.7 17.43,8.36 -2.61,-3.83 -11.32,-6.69 -15.23,-10.11 -5.28,-4.62 -6.28,-12.46 -9.63,-14.88 z m 22.46,45.96 c 1.14,-2.26 3.28,-4.97 3.66,-7.92 0.38,-2.95 0.15,-5.96 -1.3,-8.2 -1.78,1.13 -3.18,15.68 -2.37,16.12 z m -25.94,-49.64 c 1.62,-2.55 -2.12,-5.21 -4.23,-5.83 -2.11,-0.61 -5.03,0.45 -5.86,2.87 2.85,-2.02 7.87,-0.21 10.08,2.96 v 0 z m -48.24,-2.21 c 1.45,5.18 17.44,11.91 20.69,10.33 l 4.62,-2.64 c -5.77,2.92 -20.88,-2.65 -25.3,-7.69 z m -7.93,1.14 c -0.24,4.21 17.91,14.31 22.14,13.61 l 4.76,-2.42 c -6.26,3.28 -26.74,-8.53 -26.9,-11.18 v 0 z m -4.19,4.99 c 0.8,5.29 15.47,13.63 18.89,12.4 l 4.92,-2.15 c -7.66,1.79 -20.82,-5.07 -23.81,-10.26 v 0 z m -4.56,4.86 c -0.37,4.05 9.1,10.51 13.56,11.31 l 5.13,-1.68 c -6.47,1.01 -16.85,-5.45 -18.69,-9.63 z m -7.23,1.16 c -0.52,3.45 7.49,12.15 11.07,12.46 l 5.33,-1.05 c -5.16,1.31 -15.87,-8.88 -16.4,-11.41 z m -4.21,5.27 c -0.21,1.89 2.19,6.98 5.79,8.63 l 5.43,-0.48 c -6.92,-0.74 -10.58,-6.89 -11.22,-8.15 z m -6.43,2.98 c 0.03,1.98 0.61,5.13 3.36,6.75 l 5.45,-0.19 c -5.6,-1.07 -8.18,-5.36 -8.81,-6.56 z m -26.39,7.12 c 0.51,2.91 5.26,2.83 7.31,2.09 2.06,-0.73 3.59,-3.24 2.56,-5.59 -0.82,3.2 -5.96,4.69 -9.88,3.5 z m 0.12,6.77 c 0.51,2.91 5.26,2.83 7.31,2.09 2.06,-0.73 3.59,-3.24 2.56,-5.59 -0.82,3.2 -5.96,4.69 -9.88,3.5 z m -12.78,20.56 c 2.22,-1.43 5.57,-2.8 7.53,-5.18 1.96,-2.38 3.42,-5.09 3.39,-7.69 -2.16,0.16 -11.38,12.11 -10.92,12.87 z m 134.62,1.93 c 0,0 -4.33,-0.23 -6.88,0.17 -1.69,0.26 -3.35,0.87 -4.77,1.84 -1.63,1.11 -3.59,2.53 -4.13,4.68 -0.24,0.96 0.05,1.93 0.28,2.67 0.23,0.75 0.46,1.34 0.46,1.34 l 1.93,-0.75 c 0,0 -0.27,-0.47 -0.46,-1.09 -0.19,-0.61 -0.27,-1.41 -0.18,-1.76 0.33,-1.34 1.78,-2.56 3.3,-3.59 3.62,-2.86 7.14,-2 10.46,-3.51 z M 450.3,375.17 c 0,0 -4.33,-0.23 -6.88,0.17 -1.69,0.26 -3.35,0.87 -4.77,1.84 -1.63,1.11 -3.59,2.53 -4.13,4.68 -0.24,0.96 0.05,1.93 0.28,2.67 0.23,0.75 0.46,1.34 0.46,1.34 l 1.93,-0.75 c 0,0 -0.27,-0.47 -0.46,-1.09 -0.19,-0.61 -0.27,-1.41 -0.18,-1.76 0.33,-1.34 1.78,-2.56 3.3,-3.59 3.62,-2.86 7.14,-2 10.46,-3.51 v 0 z"
             id="path7673"
             style="fill:url(#linearGradient8450);fill-opacity:1" /></g><g
           id="path46"><path
             class="cls-2"
             d="m 510.21,308.91 -2.67,1.4 c -18.13,6.37 -32.1,6.16 -50.35,0 l -2.6,6.67 c -2.07,7.54 -0.93,14.18 1.9,19.54 1.73,-0.75 3.46,-2.38 5.19,-3.94 0.85,2.6 0.47,6.31 3.46,9.3 3.39,-1.73 5.49,-4.1 6.75,-5.83 0.58,3.56 2.07,6.26 5.06,8.2 3,-1.93 4.48,-4.63 5.06,-8.2 1.25,1.73 3.36,4.73 6.75,6.46 2.99,-2.99 2.95,-4.8 3.89,-7.78 1.51,3.1 3.44,4.67 6.83,6.41 2.99,-2.99 2.61,-6.7 3.46,-9.3 1.43,2.11 3.25,3.58 5.19,3.94 1.48,-1.93 2.56,-5.03 2.55,-7.83 2.79,1.99 5.38,2.59 7.14,2.72 0.7,-3.65 0.55,-6.46 -0.02,-9.71 2.63,0.82 3.13,1.57 6.36,1.58 2.16,-7.23 -0.41,-15.05 -7.92,-20.59 l -6.05,6.96 z"
             id="path7676"
             style="fill:url(#linearGradient8360);fill-opacity:1" /><path
             d="m 476.96,345.28 -0.47,-0.31 c -2.57,-1.66 -4.21,-3.89 -5.05,-6.94 -1.67,1.92 -3.65,3.47 -5.89,4.62 l -0.57,0.29 -0.45,-0.45 c -2.32,-2.32 -2.79,-5.07 -3.16,-7.28 -0.06,-0.35 -0.12,-0.69 -0.18,-1.01 -1.41,1.26 -2.86,2.47 -4.34,3.11 l -0.74,0.32 -0.38,-0.71 c -3.24,-6.12 -3.92,-13.1 -1.97,-20.18 l 0.03,-0.09 2.9,-7.44 0.79,0.27 c 9.33,3.15 17.25,4.62 24.94,4.65 h 0.2 c 7.76,0 15.58,-1.47 24.58,-4.63 l 2.46,-1.29 6.47,-7.45 0.65,0.48 c 7.53,5.55 10.61,13.61 8.24,21.54 l -0.19,0.62 h -0.65 c -2.44,0 -3.47,-0.42 -4.78,-0.95 -0.16,-0.06 -0.32,-0.13 -0.49,-0.2 0.42,3.07 0.35,5.64 -0.21,8.56 l -0.15,0.76 -0.78,-0.06 c -1.55,-0.12 -3.81,-0.58 -6.29,-2.04 -0.29,2.47 -1.26,5.01 -2.64,6.81 l -0.33,0.43 -0.53,-0.1 c -1.62,-0.3 -3.21,-1.29 -4.6,-2.83 -0.04,0.22 -0.08,0.44 -0.12,0.67 -0.37,2.21 -0.84,4.95 -3.16,7.28 l -0.45,0.45 -0.57,-0.29 c -2.65,-1.35 -4.61,-2.69 -6.16,-4.96 -0.55,1.98 -1.13,3.75 -3.55,6.17 l -0.45,0.45 -0.57,-0.29 c -2.68,-1.37 -4.58,-3.46 -5.91,-5.17 -0.85,3.01 -2.48,5.22 -5.03,6.87 l -0.47,0.31 h 0.02 z m -4.54,-11.44 0.34,2.08 c 0.53,3.28 1.87,5.61 4.2,7.28 2.33,-1.67 3.67,-4 4.2,-7.28 l 0.34,-2.08 1.34,1.85 c 1.13,1.57 2.98,4.12 5.77,5.75 1.84,-1.99 2.23,-3.39 2.75,-5.29 0.14,-0.52 0.29,-1.07 0.48,-1.67 l 0.66,-2.08 0.96,1.96 c 1.25,2.55 2.76,4.04 5.86,5.71 1.56,-1.82 1.9,-3.87 2.24,-5.87 0.16,-0.93 0.31,-1.8 0.57,-2.62 l 0.55,-1.69 1,1.47 c 1.21,1.78 2.65,2.99 4.1,3.44 1.25,-1.86 2.05,-4.53 2.04,-6.84 v -1.71 l 1.38,0.99 c 2.25,1.61 4.36,2.24 5.91,2.47 0.53,-3.29 0.32,-5.84 -0.16,-8.6 l -0.25,-1.42 1.37,0.43 c 0.81,0.26 1.43,0.5 1.97,0.72 1.08,0.44 1.84,0.74 3.47,0.81 1.74,-6.76 -0.89,-13.59 -7.14,-18.51 l -5.62,6.47 -2.93,1.52 c -17.7,6.22 -31.83,6.3 -50.12,0.27 l -2.28,5.85 c -1.73,6.34 -1.23,12.57 1.46,18.09 1.27,-0.74 2.6,-1.94 3.89,-3.11 l 1.33,-1.2 0.42,1.28 c 0.27,0.82 0.42,1.69 0.57,2.62 0.34,1.99 0.69,4.04 2.24,5.86 2.29,-1.28 4.26,-3.05 5.86,-5.26 l 1.23,-1.71 z"
             id="path7678"
             style="fill:url(#linearGradient8480);fill-opacity:1" /></g><g
           id="path48"><path
             d="m 523.03,322.32 -4.3,-0.26 -1.4,2.6 c -0.07,-3.53 -2.15,-6.7 -2.56,-8.61 0.97,2.01 3.94,4.31 8.25,6.27 z m -8.13,7.6 -3.62,-1.3 -1.74,2.42 c 0.41,-3.51 -0.2,-9.25 -0.34,-11.19 0.69,2.11 2.51,7.6 5.7,10.07 z m -9.53,3.92 -2.13,-1.3 -1.74,2.42 c 0.41,-3.51 -0.34,-10.48 -0.47,-12.42 0.69,2.11 3.05,8.95 4.35,11.29 h -0.01 z m -10.37,3.08 -2.13,-1.3 -1.74,2.42 c 0.41,-3.51 0.61,-9.74 0.47,-11.68 0.69,2.11 2.1,8.21 3.41,10.56 z m -10.63,1.17 -2.13,-1.3 -1.74,2.42 c 0.41,-3.51 0.61,-9.74 0.47,-11.68 0.69,2.11 2.1,8.21 3.41,10.56 z m -15.05,0.37 2.13,-1.3 1.74,2.42 c -0.41,-3.51 -0.61,-7.9 -0.47,-9.84 -0.69,2.11 -2.1,6.37 -3.41,8.72 z m -10.05,-3.85 2.13,-1.3 1.74,2.42 c -0.41,-3.51 -0.61,-7.9 -0.47,-9.84 -0.69,2.11 -2.1,6.37 -3.41,8.72 z"
             id="path7681"
             style="fill:url(#linearGradient8486);fill-opacity:1" /></g><g
           id="path50"><path
             class="cls-2"
             d="m 452.16,288.06 c 0,0 -6.69,10.7 -8.03,16.23 -0.87,3.57 -0.75,9.14 -0.75,9.14 2.17,-0.12 4.35,-0.56 6.52,-2.51 0.22,3.05 -0.11,6.09 2.01,9.14 2.17,-0.76 4.85,-1.77 7.02,-5.49 0.17,3.79 0.94,6.03 3.26,9.6 2.85,-0.83 5.08,-3.92 7.28,-5.94 0.05,2.76 0.8,5.85 3.51,9.83 3.56,-1.94 5.62,-6.44 6.45,-8.99 0.9,2.41 2.89,7.04 6.45,8.99 2.71,-3.98 3.47,-7.06 3.51,-9.83 2.19,2.03 4.43,5.11 7.28,5.94 2.32,-3.57 3.09,-5.81 3.26,-9.6 2.17,3.72 4.85,4.72 7.02,5.49 2.12,-3.05 1.78,-6.09 2.01,-9.14 2.17,1.95 5.15,3.64 7.33,3.77 0.43,-0.39 2.13,-5.74 1.31,-8.93 2.56,2.02 4.74,3.37 8.52,3.27 0.62,-2.95 0.09,-5.91 -0.54,-8.58 4.1,1.41 8.55,1.79 11.72,0.27 -7.4,-12.53 -19.1,-14.57 -31.96,-16.73 -14.56,12.06 -32.03,14.31 -53.18,4.08 v 0 z"
             id="path7684"
             style="fill:url(#linearGradient8350);fill-opacity:1" /><path
             d="m 486.16,329.21 -0.7,-0.38 c -2.34,-1.28 -4.36,-3.76 -6,-7.39 -1.03,2.34 -2.97,5.7 -6.06,7.39 l -0.7,0.38 -0.45,-0.65 c -1.98,-2.91 -3.12,-5.61 -3.51,-8.37 -0.12,0.13 -0.25,0.26 -0.37,0.39 -1.69,1.76 -3.6,3.76 -5.94,4.44 l -0.62,0.18 -0.35,-0.54 c -1.9,-2.92 -2.8,-4.99 -3.19,-7.63 -2.1,2.47 -4.43,3.29 -6.08,3.86 l -0.63,0.22 -0.38,-0.55 c -1.87,-2.69 -1.97,-5.34 -2.08,-7.91 v -0.03 c -1.99,1.29 -3.96,1.58 -5.69,1.68 l -0.91,0.05 -0.02,-0.91 c 0,-0.23 -0.1,-5.72 0.78,-9.37 1.35,-5.6 7.86,-16.04 8.14,-16.49 l 0.42,-0.66 0.71,0.34 c 10.19,4.93 19.81,7.03 28.6,6.24 8.42,-0.75 16.38,-4.19 23.64,-10.2 l 0.31,-0.26 0.39,0.07 c 12.81,2.15 24.9,4.19 32.56,17.15 l 0.48,0.82 -0.86,0.41 c -2.78,1.33 -6.7,1.4 -10.92,0.22 0.49,2.39 0.76,4.92 0.22,7.48 l -0.14,0.68 -0.69,0.02 c -3.29,0.09 -5.48,-0.88 -7.46,-2.24 0.02,3.19 -1.14,7.07 -1.81,7.68 l -0.27,0.25 -0.37,-0.02 c -2.13,-0.12 -4.59,-1.46 -6.49,-2.87 -0.1,2.55 -0.22,5.19 -2.07,7.87 l -0.38,0.55 -0.63,-0.22 c -1.65,-0.58 -3.98,-1.4 -6.08,-3.86 -0.39,2.64 -1.29,4.71 -3.19,7.63 l -0.35,0.54 -0.62,-0.18 c -2.33,-0.68 -4.25,-2.68 -5.94,-4.44 -0.13,-0.13 -0.25,-0.26 -0.37,-0.39 -0.39,2.76 -1.53,5.46 -3.51,8.37 l -0.45,0.65 z m -6.79,-12.78 0.88,2.34 c 1.47,3.93 3.28,6.66 5.37,8.1 1.95,-3.04 2.85,-5.74 2.9,-8.65 l 0.03,-1.95 1.43,1.33 c 0.59,0.54 1.16,1.14 1.76,1.77 1.44,1.5 2.92,3.05 4.56,3.75 1.97,-3.14 2.6,-5.16 2.75,-8.58 l 0.13,-2.96 1.5,2.56 c 1.84,3.15 4.03,4.18 5.91,4.87 1.23,-2.09 1.32,-4.2 1.41,-6.42 0.02,-0.56 0.05,-1.15 0.09,-1.73 l 0.13,-1.77 1.32,1.19 c 2,1.8 4.48,3.16 6.26,3.48 0.53,-1.33 1.58,-5.33 0.95,-7.78 l -0.64,-2.51 2.03,1.61 c 2.48,1.96 4.34,3.01 7.24,3.08 0.37,-2.54 -0.09,-5.1 -0.66,-7.51 l -0.37,-1.54 1.5,0.52 c 3.87,1.33 7.5,1.56 10.15,0.68 -7.2,-11.37 -18.47,-13.37 -30.43,-15.38 -7.46,6.09 -15.63,9.57 -24.29,10.34 -8.91,0.8 -18.59,-1.24 -28.81,-6.06 -1.46,2.41 -6.41,10.76 -7.51,15.31 -0.62,2.57 -0.72,6.28 -0.73,7.99 1.64,-0.18 3.36,-0.68 5.07,-2.22 l 1.32,-1.19 0.13,1.77 c 0.04,0.58 0.07,1.16 0.09,1.73 0.09,2.22 0.17,4.33 1.41,6.42 1.88,-0.69 4.07,-1.72 5.91,-4.87 l 1.5,-2.56 0.13,2.96 c 0.15,3.42 0.78,5.45 2.75,8.58 1.64,-0.71 3.12,-2.25 4.56,-3.75 0.6,-0.63 1.18,-1.23 1.76,-1.77 l 1.43,-1.33 0.03,1.95 c 0.05,2.91 0.95,5.61 2.9,8.65 1.34,-0.94 3.8,-3.23 5.36,-8.06 l 0.77,-2.38 h 0.02 z m 36.25,-2.31 z"
             id="path7686"
             style="fill:url(#linearGradient8492);fill-opacity:1" /></g><g
           id="path52"><path
             d="m 529.11,301.6 -2.55,-0.25 -0.32,2.88 c -1.41,-3.28 -3.58,-7.91 -4.68,-9.58 1.07,1.95 6.61,6.37 10.52,6.95 z m -7.89,6.27 -3.4,-1.94 0.37,4.42 c -1.2,-3.35 -3.08,-8.08 -4.08,-9.8 1.58,1.66 4.86,5.67 7.11,7.33 v 0 z m -8.87,5.97 -2.99,-2.45 -0.46,4.41 c -0.55,-3.49 -1.51,-8.45 -2.17,-10.29 1.24,1.89 3.72,6.35 5.62,8.33 z m -9.67,3.24 -2.3,-1.04 -1.39,2.6 c -0.08,-3.53 -0.36,-8.55 -0.77,-10.46 0.98,2.01 2.84,6.72 4.46,8.9 z m -21.23,4.5 -1.97,-1.5 -2.02,2.23 c 0.83,-3.45 1.84,-8.65 1.94,-10.59 0.43,2.16 1.03,7.39 2.05,9.86 z m 10.62,-1.4 -2.3,-1.04 -1.39,2.6 c -0.08,-3.53 -0.36,-8.55 -0.77,-10.46 0.98,2.01 2.84,6.72 4.46,8.9 z m -25.39,0.52 2.3,-1.04 1.39,2.6 c 0.08,-3.53 0.36,-8.55 0.77,-10.46 -0.98,2.01 -2.84,6.72 -4.46,8.9 z m -10.52,-3.47 2.3,-1.04 1.39,2.6 c 0.08,-3.53 0.93,-9.84 1.34,-11.75 -0.98,2.01 -3.4,8.01 -5.03,10.18 v 0 z m -8.95,-4.9 2.42,-0.78 1.04,2.73 c 0.54,-3.49 1.53,-7.8 2.18,-9.65 -1.23,1.89 -3.75,5.71 -5.64,7.7 z"
             id="path7689"
             style="fill:url(#linearGradient8500);fill-opacity:1" /></g><g
           id="path54"><path
             class="cls-2"
             d="m 509.32,277.42 c 2.33,0.64 3.29,-0.12 5.99,0.25 -1.44,-5.61 -1.86,-7.59 -6.74,-11.38 3.6,0.95 4.15,0.07 6.43,0.29 -5.08,-8.43 -4.15,-16.97 -11.73,-21.33 2.37,-5.73 0.82,-6.89 -1.24,-12.09 -0.51,-1.3 -0.25,-4.14 -0.25,-4.14 0,0 -6.49,1.21 -8.83,3.84 -1.35,1.52 -3.05,3.65 -3.05,3.65 0.53,-3.19 0.18,-4.59 -2.52,-6.66 -1.14,1.42 -2.43,4.59 -3.78,5.82 -0.46,-2.89 -1.09,-5.36 -3.7,-7.21 -2.28,2 -3.59,4.24 -3.7,7.21 -1.36,-1.24 -2.65,-4.41 -3.78,-5.82 -2.7,2.07 -3.06,3.47 -2.52,6.66 0,0 -1.7,-2.13 -3.05,-3.65 -2.34,-2.63 -8.83,-3.84 -8.83,-3.84 0,0 0.07,2.79 -0.25,4.14 -0.75,3.12 -4.44,7.17 -1.24,12.09 -9.19,5.82 -7.19,13.63 -12.26,22.06 2.29,-0.22 2.72,0.91 6.32,-0.04 -4.88,3.78 -5.22,4.55 -6.66,10.15 1.77,-0.64 3.27,-0.13 6.72,-1.01 -1.17,2.5 -3.69,4.33 -5.1,5.51 -3.47,2.93 -4.9,5.86 -5.76,9.25 2.28,0.03 4.55,-0.7 6.83,-1.29 -0.78,2.7 -1.17,4.69 -0.24,8.58 3.42,-1.25 5.11,-2.57 7.3,-3.86 -0.28,2.5 -0.43,5.44 0.47,7.94 2.28,-0.61 4.55,-1.97 6.83,-4.29 -0.05,3.27 0.93,5.59 2.12,7.72 2.09,-1.19 4.2,-2.38 5.89,-3.86 0.68,2.32 0.84,4.33 3.3,7.72 3.75,-1.52 4.52,-3.73 5.89,-5.79 0.52,1.91 1.45,4 4.19,6.92 3.59,-2.36 3.41,-4.73 4.42,-7.09 0.82,1.7 2.55,4.69 5.26,5.94 2.04,-2.11 2.36,-4.98 2.94,-6.7 1.84,2.09 3.98,3.91 6.94,4.98 1.54,-2.81 1.59,-5.17 1.47,-7.47 2.59,2.72 5.19,3.49 7.78,4.21 0.65,-2.55 0.47,-5.11 0,-7.66 2.73,1.96 5.47,2.89 8.2,2.3 0.14,-2.82 -0.77,-4.93 -1.68,-7.28 2.75,0.48 5.38,0.73 7.57,0.19 0,0 -1.5,-3.35 -3.36,-4.98 -2.41,-2.1 -5.66,-3.63 -8.06,-5.74 -1.39,-1.22 -4.51,-4.26 -4.51,-4.26 v 0 z"
             id="path7692"
             style="fill:url(#linearGradient8354);fill-opacity:1" /><path
             d="m 482.22,312.11 -0.5,-0.54 c -2.08,-2.22 -3.16,-4 -3.79,-5.49 -1,1.61 -2.27,3.34 -5.33,4.58 l -0.64,0.26 -0.4,-0.56 c -2.08,-2.88 -2.6,-4.83 -3.08,-6.71 -1.46,1.1 -3.12,2.04 -4.73,2.96 l -1,0.57 -0.43,-0.77 c -0.96,-1.73 -1.86,-3.67 -2.14,-6.22 -1.87,1.59 -3.82,2.67 -5.82,3.2 l -0.78,0.21 -0.27,-0.75 c -0.76,-2.11 -0.82,-4.48 -0.68,-6.58 -1.61,1 -3.27,2.04 -5.97,3.03 l -0.92,0.34 -0.23,-0.96 c -0.81,-3.37 -0.65,-5.46 -0.15,-7.56 -1.82,0.48 -3.7,0.96 -5.61,0.93 h -1.11 l 0.27,-1.09 c 0.74,-2.9 2.03,-6.32 6.04,-9.7 0.19,-0.16 0.4,-0.33 0.62,-0.51 0.99,-0.81 2.25,-1.84 3.22,-3.07 -0.9,0.13 -1.64,0.18 -2.29,0.22 -0.93,0.05 -1.6,0.09 -2.31,0.35 l -1.56,0.57 0.41,-1.6 c 1.21,-4.69 1.75,-6.21 4.58,-8.69 -0.56,-0.03 -1.01,-0.12 -1.44,-0.2 -0.59,-0.12 -1.11,-0.22 -1.87,-0.14 l -1.73,0.16 0.89,-1.48 c 1.82,-3.02 2.7,-5.96 3.56,-8.81 1.44,-4.78 2.8,-9.31 8.28,-13.07 -2,-3.76 -0.5,-7.1 0.62,-9.59 0.4,-0.88 0.77,-1.71 0.94,-2.44 0.24,-1.01 0.25,-3.17 0.23,-3.91 l -0.03,-1.08 1.06,0.2 c 0.28,0.05 6.81,1.3 9.32,4.12 0.43,0.49 0.9,1.04 1.34,1.56 0.14,-1.71 0.96,-3.08 3.05,-4.68 l 0.68,-0.52 0.53,0.67 c 0.52,0.65 1.04,1.57 1.58,2.55 0.3,0.54 0.62,1.11 0.94,1.63 0.52,-2.11 1.73,-3.95 3.7,-5.68 l 0.52,-0.45 0.56,0.4 c 2.28,1.61 3.18,3.66 3.69,5.86 0.35,-0.55 0.69,-1.17 1.02,-1.76 0.55,-0.98 1.06,-1.9 1.58,-2.55 l 0.53,-0.67 0.68,0.52 c 2.09,1.6 2.91,2.97 3.05,4.68 0.44,-0.52 0.9,-1.07 1.34,-1.56 2.51,-2.82 9.04,-4.07 9.32,-4.12 l 1.14,-0.21 -0.11,1.15 c -0.09,1.02 -0.12,2.93 0.19,3.73 0.36,0.9 0.7,1.69 1.01,2.38 1.43,3.25 2.24,5.12 0.5,9.67 4.48,2.89 5.95,7.33 7.5,12.01 0.99,3 2.02,6.11 3.89,9.22 l 0.89,1.48 -1.73,-0.16 c -0.76,-0.07 -1.31,0 -1.9,0.06 -0.46,0.05 -0.95,0.11 -1.56,0.11 2.89,2.8 3.48,5.09 4.6,9.46 l 0.42,1.63 -1.29,-0.17 c -1.13,-0.15 -1.93,-0.09 -2.71,-0.03 -0.24,0.02 -0.48,0.04 -0.73,0.05 0.93,0.88 1.99,1.89 2.65,2.47 1.16,1.01 2.57,1.93 3.94,2.81 1.41,0.91 2.87,1.84 4.11,2.93 1.99,1.74 3.52,5.14 3.59,5.28 l 0.43,0.96 -1.02,0.25 c -2.02,0.49 -4.36,0.35 -6.41,0.06 0.72,1.9 1.31,3.81 1.19,6.22 l -0.03,0.67 -0.65,0.14 c -2.33,0.51 -4.71,0.06 -7.23,-1.38 0.27,2.31 0.17,4.24 -0.31,6.1 l -0.22,0.87 -0.86,-0.24 c -2.06,-0.57 -4.34,-1.21 -6.64,-3.04 -0.06,1.77 -0.41,3.69 -1.61,5.88 l -0.36,0.66 -0.7,-0.26 c -2.28,-0.83 -4.28,-2.14 -6.22,-4.08 -0.44,1.66 -1.06,3.85 -2.74,5.59 l -0.43,0.44 -0.56,-0.26 c -2.07,-0.95 -3.62,-2.79 -4.71,-4.57 -0.55,1.77 -1.24,3.76 -4.12,5.65 l -0.61,0.4 h 0.07 z m -3.72,-10.13 0.51,1.86 c 0.43,1.58 1.16,3.4 3.48,5.99 1.94,-1.47 2.37,-2.87 2.86,-4.48 0.18,-0.58 0.36,-1.18 0.62,-1.79 l 0.76,-1.77 0.83,1.73 c 0.7,1.46 2.15,3.96 4.27,5.22 1.1,-1.39 1.55,-3.1 1.92,-4.5 0.13,-0.5 0.26,-0.97 0.4,-1.39 l 0.48,-1.43 1,1.13 c 1.9,2.15 3.73,3.55 5.87,4.46 1.11,-2.35 1.12,-4.34 1.02,-6.32 l -0.12,-2.35 1.63,1.71 c 2.18,2.29 4.36,3.1 6.49,3.72 0.33,-1.85 0.26,-3.87 -0.2,-6.41 l -0.39,-2.13 1.76,1.26 c 2.47,1.77 4.71,2.51 6.83,2.27 -0.03,-2.13 -0.71,-3.84 -1.47,-5.8 l -0.73,-1.86 1.53,0.27 c 1.84,0.32 4.12,0.63 6.12,0.4 -0.56,-1.06 -1.55,-2.71 -2.64,-3.67 -1.15,-1 -2.55,-1.9 -3.91,-2.78 -1.42,-0.92 -2.9,-1.86 -4.15,-2.96 -1.39,-1.22 -4.41,-4.16 -4.54,-4.29 l 0.84,-1.47 c 1.13,0.31 1.86,0.25 2.8,0.18 0.53,-0.04 1.11,-0.08 1.8,-0.06 -1.2,-4.63 -1.84,-6.39 -6.12,-9.71 l 0.76,-1.54 c 2.1,0.55 3.04,0.44 4.03,0.33 0.22,-0.03 0.44,-0.05 0.68,-0.07 -1.52,-2.85 -2.46,-5.69 -3.3,-8.25 -1.58,-4.78 -2.94,-8.9 -7.36,-11.44 l -0.67,-0.38 0.29,-0.71 c 1.81,-4.38 1.22,-5.73 -0.21,-8.99 -0.31,-0.71 -0.66,-1.51 -1.03,-2.44 -0.36,-0.91 -0.4,-2.34 -0.38,-3.36 -2.16,0.53 -5.78,1.68 -7.24,3.33 -1.32,1.48 -3,3.6 -3.02,3.62 l -2.1,2.64 0.56,-3.33 c 0.43,-2.54 0.29,-3.7 -1.48,-5.25 -0.29,0.46 -0.6,1.01 -0.92,1.59 -0.77,1.38 -1.56,2.8 -2.46,3.61 l -1.2,1.09 -0.26,-1.6 c -0.39,-2.42 -0.88,-4.57 -2.79,-6.21 -1.89,1.83 -2.79,3.74 -2.87,6.1 l -0.07,1.88 -1.39,-1.27 c -0.89,-0.81 -1.69,-2.24 -2.46,-3.61 -0.32,-0.57 -0.63,-1.12 -0.92,-1.59 -1.77,1.55 -1.91,2.71 -1.48,5.25 l 0.56,3.33 -2.1,-2.64 c 0,0 -1.7,-2.13 -3.02,-3.62 -1.47,-1.66 -5.14,-2.82 -7.3,-3.34 -0.01,0.97 -0.07,2.37 -0.28,3.26 -0.21,0.88 -0.62,1.79 -1.05,2.74 -1.19,2.66 -2.43,5.41 -0.31,8.67 l 0.48,0.74 -0.75,0.47 c -5.52,3.5 -6.79,7.7 -8.25,12.57 -0.77,2.55 -1.56,5.18 -3,7.91 0.29,0.04 0.55,0.09 0.81,0.14 0.93,0.18 1.8,0.35 3.81,-0.18 l 0.76,1.54 c -4.25,3.3 -4.86,4.1 -5.99,8.29 0.42,-0.05 0.84,-0.08 1.3,-0.1 1.06,-0.06 2.26,-0.13 4,-0.58 l 1.79,-0.46 -0.78,1.67 c -1.1,2.35 -3.28,4.13 -4.73,5.32 -0.22,0.18 -0.42,0.34 -0.6,0.5 -2.63,2.21 -4.17,4.49 -5.16,7.66 1.41,-0.14 2.83,-0.52 4.33,-0.91 0.37,-0.1 0.75,-0.2 1.12,-0.29 l 1.48,-0.38 -0.42,1.47 c -0.67,2.32 -1.05,4.04 -0.44,7.16 2.01,-0.82 3.34,-1.65 4.75,-2.53 0.47,-0.3 0.96,-0.6 1.47,-0.9 l 1.51,-0.89 -0.19,1.74 c -0.23,2.02 -0.39,4.54 0.18,6.75 1.94,-0.68 3.79,-1.93 5.63,-3.81 l 1.53,-1.57 -0.04,2.19 c -0.04,2.73 0.69,4.76 1.59,6.51 1.77,-1.01 3.55,-2.07 4.96,-3.31 l 1.03,-0.91 0.39,1.32 c 0.13,0.44 0.24,0.87 0.35,1.29 0.43,1.68 0.85,3.27 2.41,5.59 2.36,-1.12 3.25,-2.57 4.18,-4.1 0.22,-0.35 0.44,-0.72 0.68,-1.08 l 1.06,-1.6 v -0.06 z"
             id="path7694"
             style="fill:url(#linearGradient8498);fill-opacity:1" /></g><g
           id="path56"><path
             d="m 460.55,233.59 c 0,0 0.2,1.94 -0.09,2.93 -0.56,1.89 -1.54,3.48 -1.65,5.43 -0.07,1.33 1.38,3.84 1.38,3.84 0,0 0.94,-3.08 2.48,-3.68 1.53,-0.6 4.68,0.84 4.68,0.84 0,0 -0.2,-2.84 -0.64,-3.93 -0.98,-2.44 -6.15,-5.43 -6.15,-5.43 z m 38.35,0 c 0,0 -5.16,2.99 -6.15,5.43 -0.44,1.09 -0.64,3.93 -0.64,3.93 0,0 3.15,-1.43 4.68,-0.84 1.54,0.6 2.48,3.68 2.48,3.68 0,0 1.45,-2.51 1.38,-3.84 -0.11,-1.96 -1,-3.54 -1.56,-5.43 -0.29,-0.98 -0.18,-2.93 -0.18,-2.93 z m -39.91,16.47 c -2.29,1.4 -3.09,3.77 -2.48,5.85 0.47,1.6 1.97,2.85 3.95,3.59 -0.1,0.09 -0.08,0.07 -0.18,0.17 -0.78,0.71 -1.68,1.66 -2.02,2.84 -1.4,4.94 -0.48,9.75 2.57,12.87 -1.61,2.16 -4.64,6.97 -5.96,9.7 2.66,-2.17 5.4,-6.08 7.43,-8.44 0.9,0.65 1.93,1.15 3.03,1.59 -1.13,2.15 -3.39,7.82 -4.22,10.87 2.41,-2.79 4.54,-7.68 6.15,-10.2 0.79,0.21 1.63,0.3 2.48,0.42 -0.63,1.8 -0.4,3.69 0.64,5.27 -1.14,2.03 -3.52,7.94 -4.4,11.03 2.27,-2.57 4.28,-6.91 5.87,-9.53 0.92,0.74 2.04,1.3 3.39,1.67 -0.51,2.62 -1.1,8.1 -1.1,11.03 1.5,-3.01 2.29,-7.72 3.12,-10.62 0.57,0.06 1.12,0.17 1.74,0.17 0.36,0 0.67,-0.06 1.01,-0.08 0.58,2.96 0.97,7.58 2.2,10.62 0.22,-2.87 0.11,-8.16 -0.18,-10.87 1.03,-0.22 1.94,-0.58 2.75,-1 1.3,2.73 2.76,7.51 4.77,10.36 -0.52,-3.2 -2.15,-9.48 -3.03,-11.53 0.25,-0.23 0.53,-0.42 0.73,-0.67 1.1,-1.31 1.48,-2.97 1.28,-4.6 2.73,2.23 7.2,6.19 10.18,7.94 -1.77,-2.49 -6.65,-7.38 -8.9,-9.45 2.31,-0.49 4.47,-1.31 6.15,-2.59 2.59,2.16 7.88,8.31 11.1,10.2 -1.88,-2.64 -7.73,-9.63 -9.73,-11.53 2.88,-3.12 3.75,-7.8 2.39,-12.62 -0.34,-1.19 -1.24,-2.13 -2.02,-2.84 -0.1,-0.09 -0.08,-0.08 -0.18,-0.17 1.97,-0.75 3.47,-1.99 3.95,-3.59 0.62,-2.08 -0.19,-4.45 -2.48,-5.85 0.65,1.84 1.12,3.3 0.55,5.43 -0.36,1.36 -1.68,2.55 -4.04,2.84 l -2.57,0.33 2.11,1.34 c 0,0 0.53,0.4 1.19,1 0.66,0.6 1.41,1.46 1.56,2.01 1.26,4.44 0,8.21 -2.66,10.87 -2.66,2.66 -6.88,4.5 -11.65,3.84 -3.31,-0.46 -3.4,-1.21 -3.39,-3.93 0.62,-0.06 1.39,-0.22 2.11,-0.59 0.66,-0.33 0.92,-0.68 1.19,-1 0.27,-0.33 0.49,-0.56 0.55,-0.59 0.86,-0.37 2.2,-0.25 2.2,-0.25 l 1.1,0.25 0.09,-1.09 c 0.07,-0.94 0.3,-1.55 -0.46,-3.09 -0.62,-1.25 -1.55,-2 -2.2,-2.42 -0.32,-0.21 -0.51,-0.31 -0.64,-0.42 -0.13,-0.11 -0.16,-0.16 -0.18,-0.25 -0.85,-3.13 -1.11,-5.84 -0.28,-8.45 0.5,-1.56 2.2,-2.88 4.4,-3.18 2.38,-0.31 5.27,0.35 6.61,0.59 -1.32,-1.5 -3.89,-2.95 -7.16,-2.42 -2.68,0.43 -5.1,2.09 -5.87,4.51 -0.95,2.99 -0.6,6.14 0.28,9.37 0.13,0.49 0.42,0.9 0.73,1.17 0.31,0.27 0.64,0.48 0.92,0.67 0.56,0.37 1.12,0.7 1.56,1.59 0.38,0.77 0.23,0.74 0.18,1.41 -0.66,-0.05 -1.06,-0.53 -2.11,-0.08 -0.69,0.3 -1.08,0.81 -1.38,1.17 -0.3,0.36 -0.57,0.64 -0.46,0.59 -0.29,0.14 -0.89,0.28 -1.38,0.33 -0.49,0.05 -0.92,0 -0.92,0 0,0 -0.43,0.05 -0.92,0 -0.49,-0.05 -1.09,-0.19 -1.38,-0.33 0.11,0.05 -0.16,-0.22 -0.46,-0.59 -0.3,-0.36 -0.68,-0.87 -1.38,-1.17 -1.05,-0.45 -1.45,0.03 -2.11,0.08 -0.05,-0.67 -0.19,-0.65 0.18,-1.41 0.44,-0.89 1,-1.22 1.56,-1.59 0.28,-0.18 0.6,-0.4 0.92,-0.67 0.32,-0.27 0.6,-0.68 0.73,-1.17 0.87,-3.22 1.23,-6.38 0.28,-9.37 -0.77,-2.42 -3.2,-4.08 -5.87,-4.51 -3.27,-0.53 -5.84,0.92 -7.16,2.42 1.34,-0.24 4.23,-0.9 6.61,-0.59 2.2,0.29 3.91,1.61 4.4,3.18 0.83,2.61 0.57,5.32 -0.28,8.45 -0.02,0.09 -0.05,0.14 -0.18,0.25 -0.13,0.11 -0.32,0.21 -0.64,0.42 -0.65,0.42 -1.59,1.17 -2.2,2.42 -0.76,1.54 -0.53,2.14 -0.46,3.09 l 0.09,1.09 1.1,-0.25 c 0,0 1.34,-0.12 2.2,0.25 0.06,0.02 0.28,0.26 0.55,0.59 0.27,0.33 0.54,0.67 1.19,1 0.72,0.36 1.49,0.52 2.11,0.59 0.2,2.88 -0.31,3.42 -3.39,3.93 -4.75,0.78 -8.99,-1.19 -11.65,-3.84 -2.66,-2.65 -3.92,-6.42 -2.66,-10.87 0.15,-0.55 0.9,-1.4 1.56,-2.01 0.66,-0.61 1.19,-1 1.19,-1 l 2.11,-1.34 -2.57,-0.33 c -2.36,-0.3 -3.67,-1.48 -4.04,-2.84 -0.57,-2.13 -0.09,-3.59 0.55,-5.43 h 0.04 z m 10.28,4.75 c -0.79,0 -1.74,0.26 -2.84,0.75 0.38,2.13 2.85,4.96 7.07,2.67 -0.67,-1.64 -1.84,-3.45 -4.22,-3.43 h -0.01 z m 19.45,0 c -2.38,-0.02 -3.55,1.79 -4.22,3.43 4.22,2.28 6.69,-0.54 7.07,-2.67 -1.1,-0.49 -2.05,-0.74 -2.84,-0.75 h -0.01 z m -9.73,23.23 c 0.27,0.15 0.53,0.3 1.19,0.59 0.92,0.4 1.98,0.75 3.12,0.84 0.99,0.08 1.96,0.12 2.94,0.08 0.66,1.45 0.42,2.49 -0.64,3.76 -1.17,1.4 -3.33,2.42 -6.61,2.42 -3.28,0 -5.53,-1.03 -6.7,-2.42 -1.06,-1.27 -1.22,-2.31 -0.55,-3.76 0.97,0.04 1.94,0 2.94,-0.08 1.14,-0.09 2.2,-0.43 3.12,-0.84 0.66,-0.29 0.93,-0.44 1.19,-0.59 z m -25.6,4.01 c -3.45,2.43 -6.53,7.07 -10.09,8.19 l 3.21,-0.42 0.37,3.09 c 1.7,-6.67 5.14,-6.32 6.51,-10.87 v 0 z m 6.33,1.35 c -3.02,2.86 -6.2,11.04 -9.54,12.62 l 3.12,-0.92 0.83,3.01 c 0.62,-6.82 4.97,-10.03 5.6,-14.71 v 0 z m 49.73,1.17 c 0.93,3.82 7.05,5.15 8.62,11.03 l 0.37,-3.01 3.76,0.17 c -6.79,-3.01 -6.76,-3.65 -12.75,-8.19 z m -7.07,0.33 c 0.15,3.91 8.16,9.67 8.53,15.71 l 1.01,-2.84 2.94,1.25 c -3.74,-3.11 -9.68,-11.85 -12.48,-14.13 v 0 z m -38.35,4.94 c -2.44,3.29 -3.43,8.2 -6.42,10.28 l 2.84,-1.34 1.47,2.84 c -0.68,-6.82 2.37,-7.08 2.11,-11.79 v 0 z m 34.22,0.26 c -0.16,3.91 5.16,7.18 4.13,13.96 l 1.56,-2.76 2.84,1.5 c -2.88,-2.21 -5.92,-10.26 -8.53,-12.71 v 0 z m -6.42,1.18 c -1.04,4.62 3.36,8.32 1.56,14.96 l 1.84,-2.67 2.66,1.76 c -2.62,-2.47 -4.19,-10.45 -6.06,-14.04 v 0 z m -21.47,2.66 c -1.87,3.59 -1.6,8.32 -4.22,10.78 l 2.66,-1.76 1.84,2.59 c -1.8,-6.65 0.76,-7 -0.28,-11.62 v 0 z m 14.5,0.6 c -1.42,4.53 2.35,6.04 0,12.54 l 2.11,-2.42 2.39,1.84 c -2.41,-2.64 -2.93,-8.25 -4.5,-11.95 v 0 z m -6.33,2.66 c -1.56,3.71 -0.44,6.64 -2.84,9.28 l 2.48,-1.92 2.02,2.51 c -2.35,-6.5 -0.23,-5.33 -1.65,-9.86 h -0.01 z"
             id="path7697"
             style="display:inline;fill:url(#linearGradient8504);fill-opacity:1" /></g></g></g><g
       id="g6449"
       inkscape:label="lion redraw (hide me)"
       style="display:none;fill:url(#linearGradient6455);fill-opacity:1;stroke:url(#linearGradient6461);stroke-width:0.0661458;stroke-dasharray:none"><path
         class="cls-2"
         d="m 553.13047,353.13086 c -3.12505,9.37516 3.12505,15.62526 0,21.87537 0,0 -6.2501,-3.12506 -12.50021,-3.12506 -3.12505,0 -12.5002,0 -15.62526,6.25011 -3.12505,6.2501 -0.555,11.06872 5.255,8.63872 5.2,4.78 11.32,1.72 18.82,-0.89 1.54,-0.54 3.79,0.04 5.68,0.43 1.97,0.4 4.2,0.72 6.06,0 4.42,-1.71 4.81068,-5.05367 7.93573,-14.42883 l 6.2501,3.12506 c 0,-3.12506 -3.12505,-6.25011 -3.12505,-9.37516 l 6.25011,3.12505 c 0,-6.2501 -3.12506,-6.2501 -6.25011,-9.37515 h 6.25011 c -3.12506,-6.25011 -6.25011,-9.37516 -3.12506,-15.62526 -15.62525,-6.25011 -12.5002,-15.62526 -9.37515,-21.87537 l -25.00042,12.50021 c -6.2501,3.12505 -6.2501,15.62526 12.50021,18.75031 z"
         id="path3423"
         style="display:inline;fill:url(#linearGradient1643);fill-opacity:1;stroke:url(#linearGradient1645);stroke-width:1.56253;stroke-miterlimit:12;stroke-dasharray:none"
         sodipodi:nodetypes="cccccccccccccccccc"
         transform="matrix(0.04233263,0,0,0.04233263,-3.1748428,0)"
         inkscape:label="path3423" /><path
         class="cls-2"
         d="m 22.489583,14.948958 c -0.132292,0.396875 0.132292,0.661458 0,0.926042 0,0 -0.264583,-0.132292 -0.529167,-0.132292 -0.132291,0 -0.529166,0 -0.661458,0.264584 -0.132292,0.264583 0,0.529166 0.264583,0.396874 0.22013,0.20235 0.396875,-0.132291 0.79375,-0.132291 0.264584,0 0.379071,0.112116 0.45781,0.08164 0.18711,-0.07239 0.33594,-0.213928 0.468232,-0.478511 h 0.264583 c 0,-0.132292 -0.264583,-0.264584 -0.264583,-0.396875 l 0.264584,0.132291 c 0,-0.264583 -0.132292,-0.264583 -0.132292,-0.396874 h 0.132292 c -0.132292,-0.132292 -0.132293,-0.396876 -1e-6,-0.661459 C 22.886458,14.2875 22.886458,13.890625 23.01875,13.626041 l -1.058334,0.529167 c -0.264583,0.132292 -0.264583,0.661458 0.529167,0.79375 z"
         id="path6463"
         style="display:inline;fill:url(#linearGradient6465);fill-opacity:1;stroke:url(#linearGradient6467);stroke-width:0.066146;stroke-miterlimit:12;stroke-dasharray:none"
         sodipodi:nodetypes="ccccccccccccccccc"
         inkscape:label="path3423" /></g></g></svg>
