<svg height="586.66669" viewBox="0 0 880 586.66669" width="880" xmlns="http://www.w3.org/2000/svg" xmlns:xlink="http://www.w3.org/1999/xlink"><clipPath id="a"><path d="m0 440h660v-440h-660z" transform="translate(-331.78831 -339.99951)"/></clipPath><clipPath id="b"><path d="m0 440h660v-440h-660z" transform="translate(-399.45341 -199.4385)"/></clipPath><clipPath id="c"><path d="m0 440h660v-440h-660z" transform="translate(-331.20341 -111.87401)"/></clipPath><clipPath id="d"><path d="m0 440h660v-440h-660z" transform="translate(-401.86841 -213.54791)"/></clipPath><clipPath id="e"><path d="m0 440h660v-440h-660z" transform="translate(-327.60671 -152.6445)"/></clipPath><clipPath id="f"><path d="m0 440h660v-440h-660z" transform="translate(-391.98461 -179.45021)"/></clipPath><clipPath id="g"><path d="m0 440h660v-440h-660z"/></clipPath><clipPath id="h"><path d="m0 440h660v-440h-660z" transform="translate(-315.66921 -176.9004)"/></clipPath><clipPath id="i"><path d="m0 440h660v-440h-660z" transform="translate(-327.38991 -274.83351)"/></clipPath><clipPath id="j"><path d="m0 440h660v-440h-660z" transform="translate(-310.56271 -295.74021)"/></clipPath><clipPath id="k"><path d="m0 440h660v-440h-660z" transform="translate(-321.82201 -311.99661)"/></clipPath><clipPath id="l"><path d="m0 440h660v-440h-660z" transform="translate(-334.89381 -274.32231)"/></clipPath><clipPath id="m"><path d="m0 440h660v-440h-660z" transform="translate(-331.09841 -266.54001)"/></clipPath><clipPath id="n"><path d="m0 440h660v-440h-660z" transform="translate(-296.50221 -228.83981)"/></clipPath><clipPath id="o"><path d="m0 440h660v-440h-660z" transform="translate(-311.11841 -223.0029)"/></clipPath><clipPath id="p"><path d="m0 440h660v-440h-660z" transform="translate(-346.37431 -230.4687)"/></clipPath><clipPath id="q"><path d="m0 440h660v-440h-660z" transform="translate(-373.18581 -219.69971)"/></clipPath><clipPath id="r"><path d="m0 440h660v-440h-660z" transform="translate(-303.13501 -182.92871)"/></clipPath><clipPath id="s"><path d="m0 440h660v-440h-660z" transform="translate(-294.157 -212.5215)"/></clipPath><clipPath id="t"><path d="m0 440h660v-440h-660z" transform="translate(-335.28641 -274.79201)"/></clipPath><clipPath id="u"><path d="m0 440h660v-440h-660z" transform="translate(-330.62431 -275.63871)"/></clipPath><clipPath id="v"><path d="m0 440h660v-440h-660z" transform="translate(-330.62431 -270.67871)"/></clipPath><clipPath id="w"><path d="m0 440h660v-440h-660z" transform="translate(-334.11651 -272.15481)"/></clipPath><path d="m0 0h660v440h-660z" fill="#c62139" transform="matrix(1.3333333 0 0 -1.3333333 0 586.66667)"/><path d="m20.531 420h618v-400h-618z" fill="#00297b" transform="matrix(1.3333333 0 0 -1.3333333 0 586.66667)"/><path clip-path="url(#a)" d="m0 0s-80.257-54.71-80.257-119.221c0-64.521 80.257-120.779 80.257-120.779s79.743 51.619 79.743 120.779c0 69.156-79.743 119.221-79.743 119.221" fill="#c62139" transform="matrix(1.3333333 0 0 -1.3333333 442.3844 133.334)"/><path clip-path="url(#b)" d="m0 0c1.761 6.864 2.761 13.991 2.761 21.34 0 61.931-70.426 107.862-70.426 107.862s-71.455-47.485-71.455-107.862c0-7.251 1.017-14.317 2.813-21.159z" fill="#66afeb" transform="matrix(1.3333333 0 0 -1.3333333 532.60453 320.74867)"/><path clip-path="url(#c)" d="m0 0s55.236 36.58 68.227 87.745h-136.336c13.189-50.18 68.109-87.745 68.109-87.745" fill="#007bde" transform="matrix(1.3333333 0 0 -1.3333333 441.60453 437.50133)"/><path clip-path="url(#d)" d="m0 0c-12.083-8.608-80.087-4.475-80.087-4.475l-3.802-9.634h81.468c.339 1.321.65 2.642.93 3.978z" fill="#9c8431" transform="matrix(1.3333333 0 0 -1.3333333 535.82453 301.93613)"/><path clip-path="url(#e)" d="m0 0c-1.036 7.21-32.841 14.931-49.721 14.296 5.27-8.268 11.242-15.834 17.248-22.559 8.575 9.202 32.812 5.884 32.473 8.263" fill="#fff100" transform="matrix(1.3333333 0 0 -1.3333333 436.80893 383.14067)"/><path clip-path="url(#f)" d="m0 0c-4.042-.145-11.376-.79-16.4-3.406-7.247-3.783-23.472-7.917-30.724-5.847-7.247 2.064-18.64-4.475-17.254-5.848 2.298-2.296 18.98.341 18.98-14.456 0-12.385-19.325-6.883-26.923-12.045-4.579-3.101-7.773-6.471-9.586-8.639 11.861-10.977 21.149-17.335 21.149-17.335s22.021 14.585 41.521 38.2l9.171 12.17c3.696 5.413 7.124 11.157 10.066 17.206" fill="#fff100" transform="matrix(1.3333333 0 0 -1.3333333 522.64613 347.39973)"/><path clip-path="url(#g)" d="m306.171 182.836h2.924v31.481h-2.924z" transform="matrix(1.3333333 0 0 -1.3333333 0 586.66667)"/><path clip-path="url(#h)" d="m0 0s-1.199-.211-3.106-.454v2.457h-1.942v-2.668c-1.988-.201-4.398-.367-6.925-.367-2.684 0-5.392.196-7.627.424v2.544h-2.14v-2.302c-1.848.232-3.042.433-3.042.433s-.585-3.225 12.622-3.225c13.201 0 12.166 3.158 12.166 3.158" fill="#7b4800" transform="matrix(1.3333333 0 0 -1.3333333 420.89227 350.79947)"/><path clip-path="url(#i)" d="m0 0s-11.007 6.451-26.021 3.359c-15.014-3.096-18.254-12.509-18.254-12.509l5.047 2.317.129-2.064 4.533 2.838.128-2.065 3.884 3.608.637-2.317 3.498 3.096.263-1.677 5.691 3.613v-2.323l4.533 2.07-.386-2.199 8.545 1.544s-20.196-6.705-22.781-22.833l3.878 4.635.392-2.183 2.456 4.898.649-1.935 2.2 4.515.643-2.704 3.363 4.903.263-2.844 3.878 5.29v-2.57l4.146 4.516-.128-3.365s4.012 3.365 5.299 3.365l-4.784-6.199 1.555-.516s-3.368-2.709-3.626-3.225c-.257-.511 2.205 0 2.205 0s-2.982-3.092-3.111-4 1.942 0 1.942 0-2.72-3.478-3.106-4.779c-.392-1.29 1.421-.253 1.421-.253s-1.679-4.129-1.813-5.29c-.129-1.151 1.942.263 1.942.263l1.169-7.096 2.071 8.506 1.293-1.936v6.069l1.164-1.026-.129 3.989 1.55-1.543-.772 4.903 1.678-1.926-.257 4.119 1.679-1.683v5.424l1.555-1.408.258 3.726 1.813-.898s.257 4.515 2.334 4.386c2.064-.118 4.655-2.317 3.62-3.344l1.813.501-.386-4.371 1.678 1.026-.257-3.225 1.421.645-.514-4.123 1.684 1.016.123-5.016 1.936 1.409-.129-5.925 1.942 1.538v-4.898l1.814 1.28 1.947-4.768-.392 7.096 1.427-1.156-2.597 5.026 1.948.264-2.076 3.359 1.941-.144-2.842 3.36 1.936.382-4.276 3.101 2.334.898-4.404 2.844 1.685.645-3.101 3.225 3.235-1.29 1.03 2.065 3.882-3.102v3.102l3.364-4.645.391 2.844 2.592-3.618.515 1.672 1.812-3.608.902 2.7 1.812-3.871.515 2.72 1.684-4.263 1.556 1.682.778-4.391 1.544 1.682 1.422-3.871 1.813 1.419 1.555-4.392s4.27 23.488-32.361 23.88l-10.873 2.054" fill="#009270" transform="matrix(1.3333333 0 0 -1.3333333 436.51987 220.222)"/><path clip-path="url(#j)" d="m0 0 2.065-2.57-1.035-.785 3.497-1.935-.777-1.414 3.497-1.291-1.299-1.037 3.112-1.796-2.07-.655 3.749-1.801-.515-1.673 3.234-.779-1.421-1.156 3.749-2.978 4.276-2.962 2.977 1.027-1.17 5.687s-12.294 16.773-21.869 16.128" fill="#009270" transform="matrix(1.3333333 0 0 -1.3333333 414.0836 192.3464)"/><path clip-path="url(#k)" d="m0 0 1.427-3.344-1.948-.392 4.404-4.387-3.497-.129 4.276-3.35-2.077-.655 3.89-3.87-2.077-1.028 4.013-3.999-2.714-1.027 4.533-4.134-2.591-.134 2.713-3.473-2.456-.78s2.977-5.543 2.843-7.87l5.047-.253s.778 14.967.134 16.902l-1.298-.903.386 5.419-1.942-1.167-.38 6.451-1.947-2.059-.509 6.322-1.428-2.199-1.427 6.199-1.55-1.935-1.427 3.994-1.164-1.543-3.234 3.354" fill="#009270" transform="matrix(1.3333333 0 0 -1.3333333 429.096 170.6712)"/><path clip-path="url(#l)" d="m0 0c1.428 9.032 10.879 22.192 28.612 22.708l-4.017-2.064 2.333-1.033-4.661-1.682 2.328-1.409-5.563-.392 2.843-1.936-4.136-.516-3.24-.645 2.328-2.188-4.661-.511 2.982-1.553s-7.38-2.581-7.895-3.36c0 0 24.857 6.322 30.94-5.409l-4.796 2.065.392-2.199-3.363 2.452.514-1.807-3.491 1.807.515-2.188-3.627 2.064.778-1.946-4.662 2.199.778-2.064-4.012 1.29.392-2.188-4.018.252.391-2.58-12.428.263-1.556 2.58" fill="#009270" transform="matrix(1.3333333 0 0 -1.3333333 446.52507 220.9036)"/><path clip-path="url(#m)" d="m0 0 2.59.17c-1.21-24.607-.075-59.887 3.276-72.948 5.691-22.187 22.284-30.734 26.232-32.86 2.24-1.197 1.38-6.188-3.111-5.847-4.481.345-20.138 11.875-25.542 32.518-7.241 27.698-3.726 76.082-3.445 78.967" fill="#7b4800" transform="matrix(1.3333333 0 0 -1.3333333 441.46453 231.28)"/><g fill="#c62139"><path clip-path="url(#n)" d="m0 0h-3.07c-.24 1.321-.819 2.25-1.738 2.761-.514.294-1.082.433-1.707.433-1.211 0-2.193-.572-2.965-1.754-.779-1.167-1.165-2.942-1.165-5.29 0-2.379.421-4.051 1.258-5.053.836-.975 1.79-1.47 2.86-1.47 1.047 0 1.901.387 2.573 1.171.667.774 1.077 1.801 1.24 3.076h-3.462v3.215h6.223v-10.353h-2.065l-.315 2.41c-.603-.918-1.141-1.563-1.621-1.945-.824-.655-1.836-.98-3.041-.98-1.977 0-3.603.887-4.86 2.663-1.316 1.775-1.977 4.211-1.977 7.297 0 3.122.666 5.635 2 7.519 1.322 1.884 3.082 2.823 5.276 2.823 1.895 0 3.421-.624 4.574-1.868 1.146-1.238 1.813-2.792 1.982-4.655" transform="matrix(1.3333333 0 0 -1.3333333 395.33627 281.54693)"/><path clip-path="url(#o)" d="m0 0v11.865h3.17v-11.865c0-1.321.129-2.287.369-2.9.38-1.079 1.199-1.626 2.474-1.626 1.258 0 2.082.547 2.462 1.626.246.613.357 1.579.357 2.9v11.865h3.176v-11.865c0-2.044-.246-3.639-.737-4.789-.924-2.085-2.673-3.133-5.264-3.133-2.585 0-4.346 1.037-5.27 3.133-.491 1.14-.737 2.745-.737 4.789" transform="matrix(1.3333333 0 0 -1.3333333 414.82453 289.32947)"/><path clip-path="url(#p)" d="m0 0 1.875-7.594h-3.781zm-1.719 4.406-5.343-19.312h3.281l1.031 3.968h5.5l.969-3.968h3.375l-5.313 19.312z" transform="matrix(1.3333333 0 0 -1.3333333 461.8324 279.37507)"/><path clip-path="url(#q)" d="m0 0 2.696 15.168h4.487v-19.292h-2.907v13.042c0 .382.006.909.012 1.584.006.677.012 1.198.012 1.559l-2.831-16.185h-3.031l-2.806 16.185c0-.361.006-.882.012-1.559.005-.675.011-1.202.011-1.584v-13.042h-2.907v19.292h4.539l2.714-15.168" transform="matrix(1.3333333 0 0 -1.3333333 497.58107 293.73373)"/></g><path clip-path="url(#r)" d="m0 0c10.703 0 19.681 1.714 19.681 1.714s1.375-6.875-19.681-6.875-19.331 5.843-19.331 5.843 8.634-.682 19.331-.682" fill="#7b4800" transform="matrix(1.3333333 0 0 -1.3333333 404.18 342.76173)"/><path clip-path="url(#s)" d="m0 0s16.57-6.198 23.132-27.879c0 0-15.189 3.091-23.822-.347h-4.831c0 .011 8.288 12.046 5.521 28.226" fill="#fff" transform="matrix(1.3333333 0 0 -1.3333333 392.20933 303.30467)"/><g fill="#7b4800"><path clip-path="url(#t)" d="m0 0c1.614 0 2.93-1.311 2.93-2.921 0-1.615-1.316-2.921-2.93-2.921-1.62 0-2.931 1.306-2.931 2.921 0 1.61 1.311 2.921 2.931 2.921" transform="matrix(1.3333333 0 0 -1.3333333 447.04853 220.27733)"/><path clip-path="url(#u)" d="m0 0c1.515 0 2.743-1.218 2.743-2.73 0-1.513-1.228-2.741-2.743-2.741s-2.743 1.228-2.743 2.741c0 1.512 1.228 2.73 2.743 2.73" transform="matrix(1.3333333 0 0 -1.3333333 440.8324 219.1484)"/><path clip-path="url(#v)" d="m0 0c1.416 0 2.562-1.135 2.562-2.549 0-1.409-1.146-2.56-2.562-2.56-1.415 0-2.562 1.151-2.562 2.56 0 1.414 1.147 2.549 2.562 2.549" transform="matrix(1.3333333 0 0 -1.3333333 440.8324 225.76173)"/><path clip-path="url(#w)" d="m0 0c1.521 0 2.749-1.223 2.749-2.735s-1.228-2.73-2.749-2.73c-1.516 0-2.743 1.218-2.743 2.73s1.227 2.735 2.743 2.735" transform="matrix(1.3333333 0 0 -1.3333333 445.48867 223.7936)"/></g></svg>