<svg viewBox="0 0 228 228" id="svg141" width="456" height="456" xmlns="http://www.w3.org/2000/svg">
<style><![CDATA[.Y{fill:#fff200}]]></style>
	<defs id="defs141"/>
	<path class="Y" d="M202.825 183.871c-34.26-.996-191.34-98.693-192.41-114.232l8.67-14.374c15.59 22.512 176.17 117.54 191.94 114.123z"/>
	<path class="Y" style="stroke:#231f20;stroke-width:.648;stroke-linecap:round;stroke-linejoin:round" d="M17.265 53.273c-3.07 8.238 41 35.371 94 67.486 53 32.114 98.71 51.966 102.12 49.117a30 30 0 0 0 1.53-2.849c-.64.996-2.18 1.255-4.59.558-14.32-4.114-51.68-21.197-97.94-49.137s-86.51-53.7-92.77-64.637a6.6 6.6 0 0 1-.68-3.218h-.15l-1.33 2.321-.18.369zm186.38 131.057c-.58 1.055-1.66 1.085-3.72.856-12.81-1.414-51.69-20.24-97.7-47.673-53.53-31.875-97.75-61.001-92.94-68.611l1.31-2.301.26.079c-4.31 12.88 87.25 65.026 92.64 68.353 53 32.692 97.65 51.797 101.6 46.816l-1.44 2.461z"/>
	<path class="Y" d="M114.305 79.052c34.29-.269 76.6-4.672 100.94-14.334l-5.27-8.457c-14.39 7.969-56.93 13.149-96 13.945-46.19-.428-78.8-4.711-95.13-15.628l-5 9.044c30 12.661 60.8 15.35 100.37 15.48z"/>
	<path style="fill:#fff200;stroke:#231f20;stroke-width:.65;stroke-linecap:round;stroke-linejoin:round" d="M216.665 64.917c-.84 1.335-16.72 6.794-40.11 10.818a416.5 416.5 0 0 1-62.37 4.492 444 444 0 0 1-59.74-3.765c-24.56-3.835-37.23-9.174-41.92-11.057.45-.886.74-1.514 1.17-2.341a182 182 0 0 0 41.14 10.858 439 439 0 0 0 59.28 3.775c20.729.01 41.43-1.521 61.93-4.582 24-3.855 37.09-8.815 38.93-11.116l1.69 2.908zm-4.61-8.656c-2.6 2.082-15.55 6.654-38.35 10.28a414 414 0 0 1-59.26 4.144 401 401 0 0 1-57.25-3.666c-23.15-2.988-35.47-8.447-39.91-10.031q.66-1.135 1.35-2.271c3.46 1.733 15.35 6.544 38.81 9.852a412 412 0 0 0 57 3.526 409 409 0 0 0 58.83-4.164c22.91-3.138 35.24-8.965 37.11-10.439z"/>
	<path class="Y" d="M1.725 120.191c21.09 11.296 67.93 16.993 112.25 17.382 40.36.059 92.93-6.216 112.59-16.595l-.59-11.296c-6.15 9.572-62.49 18.756-112.49 18.388-50-.369-96.38-8.059-111.85-18.02l.09 10.161z"/>
	<path style="fill:#fff200;stroke:#231f20;stroke-width:0.65;stroke-linecap:round;stroke-linejoin:round" id="path6" d="m 227.645,118.567 v 2.7 c -3,3.516 -21.48,8.835 -44.72,12.58 -17.68,2.7 -40.74,4.742 -69.47,4.742 -27.29,0 -49.06,-1.933 -65.93,-4.523 -26.68,-3.864 -43.74,-10.648 -47.17,-12.67 v -3.148 c 10.29,6.814 38.17,11.804 47.53,13.328 16.77,2.57 38.4,4.493 65.56,4.493 28.59,0 51.52,-1.993 69.09,-4.712 16.67,-2.401 40.42,-8.636 45.09,-12.79 z m 0,-9.592 v 2.699 c -3,3.516 -21.48,8.836 -44.72,12.581 -17.67,2.729 -40.73,4.721 -69.45,4.721 -27.29,0 -49.06,-1.932 -65.93,-4.522 -26.68,-3.865 -43.74,-10.648 -47.17,-12.67 v -3.148 c 10.29,6.813 38.17,11.804 47.53,13.328 16.77,2.57 38.4,4.492 65.56,4.492 28.59,0 51.52,-1.992 69.09,-4.711 16.67,-2.401 40.42,-8.637 45.09,-12.79 z"/>
	<path style="fill:#fff200;stroke-width:1" id="path7" d="m 113.875,181.939 c -48.5,-0.289 -90.06,-13.168 -98.83,-15.3 l 6.4,9.961 c 15.5,6.494 56,16.177 92.9,15.101 36.9,-1.076 69.07,-3.915 91.76,-14.942 l 6.56,-10.339 c -15.47,7.251 -68.11,15.399 -98.79,15.479 z"/>
	<path style="fill:#fff200;stroke:#231f20;stroke-width:0.65;stroke-linecap:round;stroke-linejoin:round" id="path8" d="m 208.565,174.478 c -1,1.464 -1.95,2.919 -2.94,4.323 -11.33,3.75 -22.908,6.712 -34.65,8.866 -14.54,2.988 -37,5.189 -57,5.199 -43,-0.627 -78.13,-8.965 -94.68,-16.147 l -1.33,-2.291 0.22,-0.348 2.26,0.876 c 29.42,10.479 62.47,14.663 93.77,15.42 18.746,-0.078 37.448,-1.798 55.89,-5.14 24.69,-4.931 34.67,-8.636 37.73,-10.32 l 0.78,-0.438 z m 5.69,-9.343 0.07,0.089 c -0.72,1.216 -1.46,2.451 -2.23,3.686 -5.71,1.992 -21.21,6.544 -43.84,9.702 -14.91,1.992 -24.18,3.984 -53.84,4.562 -55.58,-1.404 -91.56,-12.232 -100.11,-14.941 l -1.25,-2.401 c 32.21,8.377 65.11,14.224 101.38,14.822 27.14,-0.578 38.68,-2.57 53.47,-4.572 26.39,-4.084 39.68,-8.417 43.67,-9.662 l -0.18,-0.229 2.86,-1.066 z"/>
	<path style="fill:#fff200;stroke-width:1" id="path9" d="m 113.975,13.349 c -17.622,-0.014 -34.94,4.577 -50.224,13.315 -67.26,38.45 -67.51,135.009 -0.45,173.805 67.059,38.797 151.134,-9.267 151.334,-86.514 0,-55.503 -44.97,-100.606 -100.66,-100.606 z m 0,-9.961 c 61,0 110.79,49.586 110.79,110.378 0,60.792 -49.79,110.398 -110.79,110.398 -61,0 -110.83,-49.586 -110.83,-110.378 0,-60.792 49.76,-110.378 110.83,-110.378 z"/>
	<path style="fill:#fff200;stroke:#231f20;stroke-width:0.65;stroke-linecap:round;stroke-linejoin:round" id="path10" d="m 113.975,4.544 c -60.17,0 -109.8,49.217 -109.8,109.371 0,60.155 49.56,109.382 109.8,109.382 60.24,0 109.8,-49.217 109.8,-109.372 0,-60.154 -49.59,-109.381 -109.8,-109.381 z m 0,-2.461 c 61.84,0 112.27,50.243 112.27,111.842 0,61.599 -50.4,111.832 -112.27,111.832 -61.87,0 -112.24,-50.243 -112.24,-111.842 0,-61.598 50.44,-111.832 112.24,-111.832 z"/>
	<path style="fill:#fff200;stroke:#231f20;stroke-width:0.65;stroke-linecap:round;stroke-linejoin:round" id="path11" d="m 114.105,13.837 c -55.03,0 -100.37,44.974 -100.37,99.979 0,55.004 45.33,99.988 100.37,99.988 55.04,0 100.37,-45.004 100.37,-99.988 0,-54.985 -45.37,-99.979 -100.37,-99.979 z m 0,-2.46 c 56.39,0 102.84,46.099 102.84,102.439 0,56.339 -46.45,102.449 -102.84,102.449 -56.39,0 -102.84,-46.1 -102.84,-102.449 0,-56.35 46.45,-102.439 102.84,-102.439 z"/>
	<polygon class="Y" points="187.132,79.77 196.902,79.77 196.902,304.799 187.132,304.799" transform="translate(-77.667,-78.215)"/>
	<path style="fill:none;stroke:#231f20;stroke-width:.65;stroke-linecap:round;stroke-linejoin:round" d="M110.735 1.635h6.82m-6.81 224.71h6.86"/>
	<path style="fill:#fff200;stroke:#231f20;stroke-width:.65;stroke-linecap:round;stroke-linejoin:round" d="M117.655.35h2.45v227.3h-2.43V.35Zm-9.55 0h2.47v227.3h-2.47z"/>
	<path style="fill:#fff200;stroke-width:1" d="M1.335 109.154c14.08-12.949 66-21.277 112.11-21.068 46.11.21 100.67 9.653 112.53 20.799l.12 9.632c-9.94-9.313-52.35-20.43-112.57-20.549-60.22-.12-103.93 11.286-112.19 20.788z"/>
	<path style="fill:none;stroke:#231f20;stroke-width:.651;stroke-linecap:round;stroke-linejoin:round" d="M1.315 109.602v8.308m225.05-7.969v8.307"/>
	<path style="fill:#fff200;stroke:#231f20;stroke-width:.65;stroke-linecap:round;stroke-linejoin:round" d="M114.065 96.603c26.51 0 52.24 2.5 72.64 6.455 21.06 4.193 35.87 9.443 40.94 15.33v2.918c-6.11-7.331-26-12.7-41.41-15.778-20.26-3.924-45.81-6.435-72.17-6.435-27.82.05-53.73 2.68-73.69 6.555-16 3.167-37.36 9.453-40 15.648v-3.038c1.46-4.293 17.36-10.708 39.67-15.15 20.1-3.905 46.06-6.485 74-6.535zm0-9.592c26.51 0 52.24 2.5 72.64 6.454 21.06 4.194 35.87 9.443 40.94 15.33v2.919c-6.11-7.331-26-12.7-41.41-15.778-20.25-3.925-45.8-6.455-72.17-6.405-27.82.05-53.61 2.679-73.56 6.554-15.45 2.919-37.68 9.453-40.15 15.649v-3.038c1.46-4.244 17.69-10.888 39.67-15.151 20.1-3.905 46.06-6.485 74-6.534z"/>
	<path class="Y" d="M113.525 38.092c41.78-.209 78.23 5.817 94.9 14.324l6.08 10.479c-14.49-7.779-53.81-15.868-100.92-14.662-38.39.239-79.4 4.213-100 15.15l7.27-12.102c16.89-8.726 56.72-13.149 92.66-13.199z"/>
	<line style="fill:none;stroke:#231f20;stroke-width:.649;stroke-linecap:round;stroke-linejoin:round" id="line17" x1="209.485" y1="54.109997" x2="213.62498" y2="60.734005"/>
	<path style="fill:#fff200;stroke:#231f20;stroke-width:.65;stroke-linecap:round;stroke-linejoin:round" d="M114.075 46.748c23.83-.059 46.86 1.275 65.17 4.572 17.06 3.158 33.32 7.909 35.65 10.459l1.8 3.178c-5.66-3.676-19.73-7.77-37.8-11.186s-41.16-4.522-64.86-4.463c-26.9-.089-47.8 1.325-65.73 4.433-19 3.536-32.13 8.586-35.38 10.957l1.77-3.357c6.28-3.187 16.28-7.072 33.13-10.06 18.55-3.377 39.67-4.393 66.25-4.533m0-9.582c22.81-.06 45.33 1.205 62.88 4.353 13.84 2.689 27.53 6.873 32.55 10.608l2.64 4.174c-4.48-4.981-21.36-9.662-36.26-12.302-17.42-2.988-39-4.174-61.81-4.363-23.93.06-46.05 1.524-63.22 4.642-16.38 3.098-26.94 6.773-31.41 9.642l2.32-3.486c6.17-3.237 16.14-6.206 28.69-8.636 17.29-3.138 39.55-4.562 63.62-4.622z"/>
	<path class="Y" d="M169.845 160.413c-20.66-3.845-41.35-4.402-55.81-4.233-69.63.817-92.12 14.244-94.87 18.308l-5.2-8.447c17.73-12.8 55.64-19.982 100.45-19.244 23.27.378 43.34 1.922 60.23 5.179z"/>
	<line style="fill:none;stroke:#231f20;stroke-width:0.65;stroke-linecap:round;stroke-linejoin:round" x1="15.114998" y1="167.207" x2="18.535004" y2="173.06401"/>
	<path style="fill:#fff200;stroke:#231f20;stroke-width:.65;stroke-linecap:round;stroke-linejoin:round" d="M113.635 154.985c19.37.288 38.38 1.085 56.73 4.492l-1.32 2.371c-17-3.138-35.21-4.333-55.34-4.234-25.7-.199-51.69 2.192-74.32 8.656-7.14 1.993-19 6.555-20.17 10.33l-1.32-2.172c.38-2.231 7.53-6.863 20.88-10.608 25.92-7.391 50.16-8.636 74.86-8.806zm.88-9.712c20.07.368 40.79 1.294 60.94 5.269l-1.38 2.43c-18.19-3.596-35.57-4.791-59.43-5.159-25.78 0-53.12 1.872-78 9.074-8 2.331-21.88 7.361-22.34 11.346l-1.33-2.311c.3-3.626 12.3-8.348 23.08-11.475 25.06-7.252 52.47-9.125 78.45-9.164z"/>
	<path style="fill:#231f20" d="M93.725 152.046c.013-.31.133-.606.34-.837.19-.204.451-.328.73-.348a.9.9 0 0 1 .5.089c.146.078.26.206.32.359.068.174.092.362.07.548a1.4 1.4 0 0 1-.17.578 1.14 1.14 0 0 1-.9.577.85.85 0 0 1-.5-.099.7.7 0 0 1-.31-.359 1.1 1.1 0 0 1-.07-.508zm.28 0a.74.74 0 0 0 .15.578.55.55 0 0 0 .48.169.77.77 0 0 0 .52-.259 1 1 0 0 0 .25-.637 1 1 0 0 0 0-.439.52.52 0 0 0-.22-.269.6.6 0 0 0-.36-.069.8.8 0 0 0-.51.239c-.166.19-.258.434-.26.687zm2.65.329.25-.05a.3.3 0 0 0 .09.229.35.35 0 0 0 .26.07.45.45 0 0 0 .26-.08.25.25 0 0 0 .1-.169.13.13 0 0 0-.06-.13.8.8 0 0 0-.25-.069 2 2 0 0 1-.37-.1.3.3 0 0 1-.14-.14.35.35 0 0 1 0-.199.51.51 0 0 1 .38-.418.8.8 0 0 1 .22 0 .8.8 0 0 1 .3 0 .33.33 0 0 1 .18.129q.06.107.06.229h-.25a.23.23 0 0 0-.08-.179.3.3 0 0 0-.22-.05.45.45 0 0 0-.25.07.2.2 0 0 0-.09.14.14.14 0 0 0 0 .089q.037.044.09.06l.21.05.36.099a.3.3 0 0 1 .15.13.33.33 0 0 1 0 .219.5.5 0 0 1-.1.249.6.6 0 0 1-.23.189.8.8 0 0 1-.32.08.6.6 0 0 1-.42-.1.47.47 0 0 1-.15-.348zm2.55-.18h.25a.8.8 0 0 1-.27.369.77.77 0 0 1-.44.149.57.57 0 0 1-.49-.179.7.7 0 0 1-.12-.558 1 1 0 0 1 .26-.597.76.76 0 0 1 .52-.239.53.53 0 0 1 .46.179.73.73 0 0 1 .12.568v.069l-1.1.05a.52.52 0 0 0 .09.369c.072.084.18.129.29.119a.45.45 0 0 0 .24-.089.6.6 0 0 0 .18-.239zm-.77-.368h.82a.45.45 0 0 0-.06-.279.32.32 0 0 0-.29-.13.46.46 0 0 0-.3.13.57.57 0 0 0-.17.319zm1.24.926h.24a.2.2 0 0 0 .06.16.37.37 0 0 0 .25.059c.1.002.197-.026.28-.079a.44.44 0 0 0 .15-.209q.046-.162.06-.329a.6.6 0 0 1-.43.219.46.46 0 0 1-.45-.199.78.78 0 0 1-.1-.528 1.2 1.2 0 0 1 .12-.399.8.8 0 0 1 .26-.289.7.7 0 0 1 .35-.119.44.44 0 0 1 .41.199v-.179h.23l-.15 1.305a1.4 1.4 0 0 1-.13.498.7.7 0 0 1-.25.239.84.84 0 0 1-.38.099.6.6 0 0 1-.41-.099.36.36 0 0 1-.11-.359zm.31-.916a.6.6 0 0 0 .07.428.3.3 0 0 0 .27.12.44.44 0 0 0 .3-.15.74.74 0 0 0 .17-.428.55.55 0 0 0-.07-.408.31.31 0 0 0-.27-.13.43.43 0 0 0-.3.149.73.73 0 0 0-.16.419zm1.31.707.2-1.504h.22v.209a.68.68 0 0 1 .48-.259.4.4 0 0 1 .26.06.3.3 0 0 1 .12.189.64.64 0 0 1 .49-.279.38.38 0 0 1 .32.11c.076.11.101.248.07.378l-.14.996h-.25l.13-.996a.7.7 0 0 0 0-.219.16.16 0 0 0-.07-.109.24.24 0 0 0-.14 0 .4.4 0 0 0-.27.109.56.56 0 0 0-.15.339l-.12.876h-.25l.13-.996a.4.4 0 0 0 0-.249.19.19 0 0 0-.19-.079.4.4 0 0 0-.2.059.4.4 0 0 0-.15.17 1 1 0 0 0-.08.319l-.1.786zm3.45-.627h.25a.8.8 0 0 1-.27.368.77.77 0 0 1-.44.14.56.56 0 0 1-.49-.19.7.7 0 0 1-.11-.567 1 1 0 0 1 .27-.598.76.76 0 0 1 .52-.229.52.52 0 0 1 .45.189.73.73 0 0 1 .11.578v.069h-1.1a.5.5 0 0 0 .09.379c.072.085.18.129.29.12a.43.43 0 0 0 .24-.08.6.6 0 0 0 .19-.239zm-.76-.389h.82a.45.45 0 0 0-.06-.279.32.32 0 0 0-.29-.139.46.46 0 0 0-.31.129.57.57 0 0 0-.17.319zm1.28.857.2-1.504h.22v.209a.63.63 0 0 1 .5-.259.54.54 0 0 1 .24 0 .3.3 0 0 1 .15.119.4.4 0 0 1 .05.19q.01.124 0 .249l-.12.926h-.25l.12-.916a.7.7 0 0 0 0-.23.2.2 0 0 0-.09-.119.27.27 0 0 0-.17 0 .48.48 0 0 0-.29.109.62.62 0 0 0-.17.399l-.11.827zm2.16-.289v.229h-.19a.4.4 0 0 1-.2 0 .2.2 0 0 1-.09-.11 1 1 0 0 1 0-.298l.13-.867h-.18v-.199h.18l.06-.379.27-.159-.08.528h.25v.199h-.25l-.13.886a.5.5 0 0 0 0 .14h.08zm.23-.548a.94.94 0 0 1 .32-.657.78.78 0 0 1 .49-.17.55.55 0 0 1 .46.199.7.7 0 0 1 .11.558 1.1 1.1 0 0 1-.15.458.76.76 0 0 1-.29.259.8.8 0 0 1-.37.1.55.55 0 0 1-.47-.199.74.74 0 0 1-.1-.578zm.26 0a.6.6 0 0 0 .06.428.33.33 0 0 0 .29.14.46.46 0 0 0 .33-.15.78.78 0 0 0 .19-.448.57.57 0 0 0-.06-.418.33.33 0 0 0-.29-.14.46.46 0 0 0-.33.15.76.76 0 0 0-.19.438m3.17.239h.25a.8.8 0 0 1-.28.359.76.76 0 0 1-.44.129.56.56 0 0 1-.48-.199.72.72 0 0 1-.1-.568c.023-.225.122-.436.28-.598a.75.75 0 0 1 .53-.219.52.52 0 0 1 .45.2.74.74 0 0 1 .1.577v.07h-1.1a.53.53 0 0 0 .08.379c.07.088.178.136.29.129a.43.43 0 0 0 .24-.08.6.6 0 0 0 .19-.239zm-.76-.398h.82a.45.45 0 0 0-.05-.279.32.32 0 0 0-.29-.14.46.46 0 0 0-.31.12.57.57 0 0 0-.18.319zm1.23.846.35-2.082h.25l-.35 2.082zm.94-1.793v-.299h.25v.299zm-.3 1.783.25-1.504h.25l-.25 1.504zm.63 0 .25-1.504h.22v.209a.7.7 0 0 1 .21-.179.56.56 0 0 1 .27-.07.4.4 0 0 1 .26.07.3.3 0 0 1 .11.199.63.63 0 0 1 .5-.259.37.37 0 0 1 .31.13.48.48 0 0 1 .05.378l-.17.996h-.25l.16-.996a.7.7 0 0 0 0-.219.17.17 0 0 0-.07-.109.24.24 0 0 0-.14 0 .4.4 0 0 0-.27.109.56.56 0 0 0-.16.339l-.15.876h-.25l.16-.996a.4.4 0 0 0 0-.259.19.19 0 0 0-.18-.089.42.42 0 0 0-.36.229 1.1 1.1 0 0 0-.09.319l-.13.786zm2.66-1.783v-.299h.25v.299zm-.3 1.783.25-1.504h.25l-.25 1.504zm.63 0 .28-1.504h.22v.209a.62.62 0 0 1 .51-.239.5.5 0 0 1 .23.05q.092.042.14.13a.4.4 0 0 1 0 .189q.01.124 0 .249l-.17.926h-.25l.17-.916a.7.7 0 0 0 0-.239.2.2 0 0 0-.08-.13.3.3 0 0 0-.16-.049.46.46 0 0 0-.29.099.62.62 0 0 0-.19.389l-.15.826zm2.55-.129q-.136.107-.3.169a.8.8 0 0 1-.28 0 .46.46 0 0 1-.35-.129.36.36 0 0 1-.07-.309.54.54 0 0 1 .24-.339.7.7 0 0 1 .19-.079h.23q.234-.017.46-.08v-.07a.26.26 0 0 0 0-.219.35.35 0 0 0-.27-.09.5.5 0 0 0-.27.06.5.5 0 0 0-.16.219h-.24a.8.8 0 0 1 .16-.259.6.6 0 0 1 .25-.149q.17-.029.34 0a.8.8 0 0 1 .3.05.3.3 0 0 1 .15.119.34.34 0 0 1 0 .179q.009.12 0 .24l-.06.338a4 4 0 0 0-.07.448.5.5 0 0 0 0 .18h-.26a.6.6 0 0 1 0-.19zm.08-.568a2 2 0 0 1-.42.09h-.23a.27.27 0 0 0-.17.199.2.2 0 0 0 0 .169.27.27 0 0 0 .21.07.55.55 0 0 0 .27-.06.5.5 0 0 0 .2-.169.7.7 0 0 0 .09-.259v-.09zm1.45.767v-.189a.54.54 0 0 1-.45.219.5.5 0 0 1-.3-.11.52.52 0 0 1-.17-.328 1 1 0 0 1 0-.409 1.3 1.3 0 0 1 .15-.408.75.75 0 0 1 .27-.279.65.65 0 0 1 .34-.09.4.4 0 0 1 .22.06q.091.056.14.149l.14-.747h.25l-.38 2.082zm-.64-.767a.62.62 0 0 0 0 .438.29.29 0 0 0 .25.15.4.4 0 0 0 .3-.13.75.75 0 0 0 .19-.418.67.67 0 0 0 0-.458.29.29 0 0 0-.26-.15.4.4 0 0 0-.3.13.83.83 0 0 0-.19.438zm1.32 0a1 1 0 0 1 .34-.618.78.78 0 0 1 .49-.159.54.54 0 0 1 .46.219c.11.169.142.375.09.568a1.15 1.15 0 0 1-.17.458.79.79 0 0 1-.66.339.55.55 0 0 1-.46-.209.75.75 0 0 1-.08-.588zm.25 0a.6.6 0 0 0 0 .438.32.32 0 0 0 .28.15.46.46 0 0 0 .33-.14.8.8 0 0 0 .2-.438.58.58 0 0 0 0-.428.32.32 0 0 0-.28-.15.46.46 0 0 0-.33.14.77.77 0 0 0-.2.428m2 .817.28-1.504h.22v.229a.8.8 0 0 1 .2-.209.3.3 0 0 1 .17 0 .4.4 0 0 1 .24.089l-.13.239a.3.3 0 0 0-.17-.059.27.27 0 0 0-.16 0 .35.35 0 0 0-.12.139 1.2 1.2 0 0 0-.1.299l-.15.787zm2-.428h.25a.8.8 0 0 1-.3.348.75.75 0 0 1-.44.11.55.55 0 0 1-.47-.229.74.74 0 0 1-.07-.578c.033-.225.143-.433.31-.588a.74.74 0 0 1 .53-.189.52.52 0 0 1 .44.229.76.76 0 0 1 .07.588v.069h-1.09a.53.53 0 0 0 .06.389.33.33 0 0 0 .28.149.42.42 0 0 0 .25-.059.6.6 0 0 0 .2-.23zm-.73-.449h.81a.46.46 0 0 0 0-.289.31.31 0 0 0-.28-.159.45.45 0 0 0-.31.11.58.58 0 0 0-.19.308zm1.19.468h.25a.3.3 0 0 0 .07.24.34.34 0 0 0 .25.089c.095.011.19-.01.27-.06a.26.26 0 0 0 .12-.169.14.14 0 0 0 0-.139 1 1 0 0 0-.23-.1 2 2 0 0 1-.35-.139.3.3 0 0 1-.13-.15.4.4 0 0 1 0-.199.5.5 0 0 1 .08-.189.5.5 0 0 1 .15-.14.6.6 0 0 1 .17-.07.8.8 0 0 1 .22 0q.152.001.29.06c.069.03.126.083.16.15q.03.119 0 .239h-.25a.24.24 0 0 0-.06-.19.3.3 0 0 0-.21-.069.44.44 0 0 0-.25 0 .2.2 0 0 0-.1.129.14.14 0 0 0 0 .09.2.2 0 0 0 .08.07l.2.069.34.13a.3.3 0 0 1 .14.139.36.36 0 0 1 0 .219.5.5 0 0 1-.12.239.6.6 0 0 1-.24.17.8.8 0 0 1-.32 0 .58.58 0 0 1-.41-.14.5.5 0 0 1-.12-.368zm1.3 1.086.42-2.082h.22v.2a.7.7 0 0 1 .21-.17.5.5 0 0 1 .25 0 .47.47 0 0 1 .47.399 1 1 0 0 1 0 .398 1.2 1.2 0 0 1-.16.409.8.8 0 0 1-.29.278.66.66 0 0 1-.34.09.4.4 0 0 1-.34-.209l-.15.737zm.49-1.315a.64.64 0 0 0 0 .439c.051.09.146.147.25.149a.42.42 0 0 0 .31-.129.8.8 0 0 0 .21-.439.63.63 0 0 0 0-.438.28.28 0 0 0-.24-.159.42.42 0 0 0-.31.139.8.8 0 0 0-.21.438zm2.28.359h.25a.75.75 0 0 1-.74.458.55.55 0 0 1-.47-.219.74.74 0 0 1-.07-.578 1 1 0 0 1 .31-.587.74.74 0 0 1 .53-.19.52.52 0 0 1 .44.229.75.75 0 0 1 .07.588v.07h-1.09a.53.53 0 0 0 .06.388.33.33 0 0 0 .28.15.4.4 0 0 0 .25-.06.6.6 0 0 0 .2-.229zm-.73-.448h.81a.5.5 0 0 0 0-.289.31.31 0 0 0-.28-.16.45.45 0 0 0-.31.11.57.57 0 0 0-.19.309zm1.55-.837.06-.299h.25l-.06.299zm-.36 1.783.3-1.504h.25l-.3 1.504zm1.21-.179v.229h-.19a.37.37 0 0 1-.2-.05.2.2 0 0 1-.08-.12 1 1 0 0 1 0-.298l.17-.867h-.18v-.199h.18l.08-.379.28-.139-.11.528h.25v.199h-.25l-.18.877a.5.5 0 0 0 0 .139.1.1 0 0 0 0 .05h.08zm1.14.089a1.1 1.1 0 0 1-.3.16.8.8 0 0 1-.28 0 .45.45 0 0 1-.34-.14.36.36 0 0 1-.07-.318.5.5 0 0 1 .25-.339.7.7 0 0 1 .19-.08h.23q.234-.012.46-.07v-.069a.26.26 0 0 0 0-.219.35.35 0 0 0-.26-.1.47.47 0 0 0-.27.05.5.5 0 0 0-.17.219h-.23a.8.8 0 0 1 .16-.259.6.6 0 0 1 .25-.14q.17-.027.34 0a.8.8 0 0 1 .29.06.3.3 0 0 1 .15.12.34.34 0 0 1 0 .179q.01.12 0 .239l-.07.339a4 4 0 0 0-.08.448.5.5 0 0 0 0 .179h-.26a.6.6 0 0 1 0-.189zm.09-.567a2 2 0 0 1-.42.079h-.23a.27.27 0 0 0-.17.199.2.2 0 0 0 0 .17.28.28 0 0 0 .2.08.6.6 0 0 0 .27-.05.5.5 0 0 0 .2-.17.7.7 0 0 0 .09-.249v-.089zm1.31.089a1 1 0 0 1 .35-.607.76.76 0 0 1 .49-.15.54.54 0 0 1 .45.219.7.7 0 0 1 .08.568c-.026.163-.088.32-.18.458a.79.79 0 0 1-.67.329.54.54 0 0 1-.45-.219.76.76 0 0 1-.07-.588zm.25 0a.62.62 0 0 0 0 .439c.058.099.165.16.28.159a.45.45 0 0 0 .34-.13.8.8 0 0 0 .21-.438.58.58 0 0 0 0-.428.32.32 0 0 0-.28-.16.45.45 0 0 0-.34.13.77.77 0 0 0-.21.428m1.9 1.425.45-2.082h.22v.199a.7.7 0 0 1 .22-.159.5.5 0 0 1 .25 0 .5.5 0 0 1 .31.119.5.5 0 0 1 .15.289 1 1 0 0 1 0 .398q-.046.22-.17.409a.8.8 0 0 1-.29.269.67.67 0 0 1-.34.08.4.4 0 0 1-.34-.22l-.16.737zm.51-1.305a.63.63 0 0 0 0 .438.29.29 0 0 0 .24.159.4.4 0 0 0 .31-.129.8.8 0 0 0 .21-.438.64.64 0 0 0 0-.439.28.28 0 0 0-.24-.159.43.43 0 0 0-.31.139.83.83 0 0 0-.22.439zm1.17.827.33-1.505h.22v.23a.8.8 0 0 1 .2-.2.3.3 0 0 1 .17 0 .4.4 0 0 1 .23.1l-.14.229a.3.3 0 0 0-.17-.07.26.26 0 0 0-.16 0 .36.36 0 0 0-.12.13q-.075.14-.11.299l-.17.787zm1-.688a1 1 0 0 1 .36-.607.76.76 0 0 1 .49-.14.54.54 0 0 1 .44.229c.105.175.13.384.07.578a1.2 1.2 0 0 1-.18.448.78.78 0 0 1-.67.319.54.54 0 0 1-.45-.229.76.76 0 0 1-.06-.598m.25 0a.62.62 0 0 0 0 .438.32.32 0 0 0 .27.16.45.45 0 0 0 .34-.13.8.8 0 0 0 .22-.438.58.58 0 0 0 0-.428.32.32 0 0 0-.27-.16.45.45 0 0 0-.34.13.77.77 0 0 0-.22.428m1.61-.916.06-.299h.25l-.06.299zm-.83 2.351.09-.21h.11a.15.15 0 0 0 .12 0 .6.6 0 0 0 .09-.259l.35-1.583h.25l-.35 1.583a.9.9 0 0 1-.15.379.38.38 0 0 1-.33.129h-.19zm2.16-.997h.25a.8.8 0 0 1-.3.349.74.74 0 0 1-.44.1.55.55 0 0 1-.46-.229.75.75 0 0 1-.06-.578c.038-.223.151-.427.32-.578a.73.73 0 0 1 .53-.179.51.51 0 0 1 .43.229c.098.18.12.391.06.588v.069l-1.08-.059a.53.53 0 0 0 .05.388.33.33 0 0 0 .27.15.42.42 0 0 0 .25-.06.6.6 0 0 0 .2-.229zm-.72-.458h.81a.5.5 0 0 0 0-.289.31.31 0 0 0-.27-.169.44.44 0 0 0-.31.1.6.6 0 0 0-.2.308z"/>
	<line style="fill:none;stroke:#ed1b2e;stroke-width:1.059;stroke-linecap:round;stroke-linejoin:round" x1="175.34499" y1="150.80101" x2="169.215" y2="161.629"/>
	<path class="Y" d="M19.885 51.141c34.49-.448 193.79 96.96 194.26 114.9l-9.87 15.071c-4.45-20.828-166.09-115.617-192.76-113.824l8.37-16.137z"/>
	<path style="fill:none;stroke:#231f20;stroke-width:.648;stroke-linecap:round;stroke-linejoin:round" d="m213.425 167.316-8.37 12.95M19.625 51.988l-7.78 14.364"/>
	<path style="fill:#fff200;stroke:#231f20;stroke-width:.648;stroke-linecap:round;stroke-linejoin:round" d="M10.525 66.7c6.4-4.323 53.45 16.555 102.68 46.12s96 63.162 91.78 69.428l-1.39 2.181-.64.498c.14-.099.84-.996-.07-3.277-2.09-6.853-35.37-33.309-90.59-66.519-53.83-31.975-98.7-51.24-103.18-45.741l1.41-2.7zm204.61 100.437c4-7.969-39.59-40.711-93.7-72.596-55.35-31.247-95.24-49.635-102.53-44.157l-1.62 2.939c0 .159.06-.2.4-.459 1.33-1.155 3.52-1.075 4.51-1.095 12.55.189 48.38 16.615 98.66 45.322 22 12.78 93.06 58.153 92.79 70.913 0 1.095.09 1.324-.32 1.862l1.81-2.739z"/>
	<path style="fill:#fff;stroke:#231f20;stroke-width:.76;stroke-miterlimit:2.6131" d="M46.755 126.237c.31 36.858 30.218 66.667 67.22 66.998 37.147-.005 67.294-29.936 67.42-66.938v-89.44l-134.64-.159Z"/>
	<path style="fill:#ed1c24;stroke:#231f20;stroke-width:.574;stroke-miterlimit:2.6131" d="M49.275 126.367a63.58 63.58 0 0 0 19 45.193c25.152 25.135 66.004 25.18 91.21.099a63.55 63.55 0 0 0 18.94-45.223v-86.73H49.345l-.08 86.661zm103.21-60.703v61.061a42 42 0 0 1-.27 4.781 37.44 37.44 0 0 1-11 22.263 38.63 38.63 0 0 1-27.27 11.226c-21.145-.328-38.175-17.385-38.39-38.449V65.525l77 .139z"/>
	<g id="g154">
		<path style="fill:#2e2c70" d="M105.765 116.515a9.4 9.4 0 0 0 2.51 6.485c3.206 3.55 8.794 3.55 12 0a9.4 9.4 0 0 0 2.5-6.435v-12.192h-17v12.162z"/>
		<g style="fill:#ffffff">
			<path d="M119.085 107.311c-1.293.008-2.093 1.407-1.439 2.519s2.269 1.102 2.909-.018a1.66 1.66 0 0 0 .22-.827 1.686 1.686 0 0 0-1.69-1.674"/>
			<path d="M114.365 111.824c-1.293 0-2.101 1.394-1.455 2.51.647 1.115 2.264 1.115 2.91 0 .148-.254.225-.543.225-.837a1.685 1.685 0 0 0-1.68-1.673"/>
			<path d="M119.075 116.535c-1.293.008-2.093 1.407-1.439 2.519s2.269 1.102 2.909-.018a1.66 1.66 0 0 0 .22-.827 1.686 1.686 0 0 0-1.69-1.674"/>
			<path d="M109.875 116.545c-1.293 0-2.101 1.395-1.455 2.51.647 1.116 2.264 1.116 2.91 0 .148-.254.225-.543.225-.837a1.685 1.685 0 0 0-1.68-1.673"/>
			<path d="M109.865 107.311c-1.293 0-2.101 1.395-1.455 2.51.647 1.116 2.264 1.116 2.91 0 .148-.254.225-.543.225-.836a1.686 1.686 0 0 0-1.68-1.674"/>
			</g>
		</g>
	<use href="#g154" transform="translate(0,29.116)"/>
	<use href="#g154" transform="translate(-23.59)"/>
	<use href="#g154" transform="translate(23.53)"/>
	<use href="#g154" transform="translate(0,-29.385)"/>
	<g id="g145">
		<path class="Y" d="M57.635 62.337c.15-6.235 4.6-7.71 4.63-7.729s4.8 1.593 4.78 7.789z"/>
		<g style="fill:#fff200;stroke:#231f20;stroke-width:0.566;stroke-miterlimit:2.6131">
			<path d="m53.795 54.717-.77 7.162h4.69c0-5.977 4.51-6.913 4.61-6.893s4.52 1.315 4.64 6.893h4.71l-.85-7.222h-17z"/>
			<path d="M52.715 61.919h19.26c.447.047.775.44.74.886a.83.83 0 0 1-.74.887h-19.26a.83.83 0 0 1-.74-.887.827.827 0 0 1 .74-.886"/>
			<path d="M59.705 61.889c0-3.745 2.56-4.801 2.58-4.801a4.975 4.975 0 0 1 2.68 4.801z"/>
			<path d="M53.115 51.749h18.42a.76.76 0 0 1 .71.797.76.76 0 0 1-.71.797h-18.42a.76.76 0 0 1-.71-.797.76.76 0 0 1 .71-.797"/>
			<path d="M53.505 53.343h17.62a.747.747 0 0 1 .68.796.75.75 0 0 1-.68.797h-17.62a.75.75 0 0 1-.68-.797.75.75 0 0 1 .68-.796"/>
			<path d="M59.185 41.389h1.41v.996h1v-.996h1.43v.996h1v-.996h1.43v2.271a.59.59 0 0 1-.62.588h-5a.64.64 0 0 1-.65-.598z"/>
			<path d="M65.235 44.945h1.38v.996h1v-.996h1.36v.996h1v-.996h1.4v2.271a.59.59 0 0 1-.61.588h-4.9a.63.63 0 0 1-.63-.597z"/>
			<path d="M53.235 44.965h1.35v.996h1v-.996h1.39v.996h1v-.996h1.4v2.271a.59.59 0 0 1-.61.588h-4.9a.63.63 0 0 1-.63-.598z"/>
			<g transform="translate(-77.667,-78.215)">
				<polygon points="137.542,129.914 137.862,122.622 142.112,122.642 142.422,129.934"/>
				<polygon points="143.652,129.934 143.782,126.009 148.182,126.009 148.332,129.934"/>
				<polygon points="131.622,129.944 131.752,126.019 136.152,126.019 136.302,129.944"/>
				</g>
			</g>
		<g style="fill:#231f20">
			<path d="M61.835 46.728a.5.5 0 0 1 1 0v1.734h-1z"/>
			<path d="M67.855 49.288a.47.47 0 0 1 .94 0v1.345h-.94z"/>
			<path d="M55.795 49.288a.47.47 0 0 1 .94 0v1.345h-.94z"/>
			</g>
		</g>
	<use href="#g145" transform="translate(51.83)"/>
	<use href="#g145" transform="translate(103.03)"/>
	<use href="#g145" transform="translate(103.03,52.315)"/>
	<use href="#g145" transform="rotate(45,-20.549843,215.95075)"/>
	<use href="#g145" transform="rotate(-45,196.67286,91.04128)"/>
	<use href="#g145" transform="translate(0,52.306)"/>
	</svg>