<svg xmlns="http://www.w3.org/2000/svg" viewBox="0 0 8 8">
	<style><![CDATA[svg{stroke-miterlimit:2.6131;stroke-linecap:round;stroke-linejoin:round}.R{fill:#e12}.G{fill:#063}.W{fill:#fff}.B{fill:#2e2c70}.Y{fill:#fff200}.X{stroke:#231f20}.Z{stroke:#231f20}.K{fill:#231f20}.c{stroke-width:0.76}.d{stroke-width:0.65}.e{stroke-width:0.574}.f{stroke-width:0.566}]]></style>
	<path class="G" d="M0 8h8V0H0z"/>
	<path class="R" d="M1 7h6V1H1z"/>
	<g id="coa" transform="scale(0.02) translate(86,86)">
		<g class="Y">
			<path d="M202.825 183.871c-34.26-.996-191.34-98.693-192.41-114.232l8.67-14.374c15.59 22.512 176.17 117.54 191.94 114.123z"/>
			<path class="Z d" d="M17.265 53.273c-3.07 8.238 41 35.371 94 67.486 53 32.114 98.71 51.966 102.12 49.117a30 30 0 0 0 1.53-2.849c-.64.996-2.18 1.255-4.59.558-14.32-4.114-51.68-21.197-97.94-49.137s-86.51-53.7-92.77-64.637a6.6 6.6 0 0 1-.68-3.218h-.15l-1.33 2.321-.18.369zm186.38 131.057c-.58 1.055-1.66 1.085-3.72.856-12.81-1.414-51.69-20.24-97.7-47.673-53.53-31.875-97.75-61.001-92.94-68.611l1.31-2.301.26.079c-4.31 12.88 87.25 65.026 92.64 68.353 53 32.692 97.65 51.797 101.6 46.816l-1.44 2.461z"/>
			<path d="M114.305 79.052c34.29-.269 76.6-4.672 100.94-14.334l-5.27-8.457c-14.39 7.969-56.93 13.149-96 13.945-46.19-.428-78.8-4.711-95.13-15.628l-5 9.044c30 12.661 60.8 15.35 100.37 15.48z"/>
			<path class="Z d" d="M216.665 64.917c-.84 1.335-16.72 6.794-40.11 10.818a416.5 416.5 0 0 1-62.37 4.492 444 444 0 0 1-59.74-3.765c-24.56-3.835-37.23-9.174-41.92-11.057.45-.886.74-1.514 1.17-2.341a182 182 0 0 0 41.14 10.858 439 439 0 0 0 59.28 3.775c20.729.01 41.43-1.521 61.93-4.582 24-3.855 37.09-8.815 38.93-11.116l1.69 2.908zm-4.61-8.656c-2.6 2.082-15.55 6.654-38.35 10.28a414 414 0 0 1-59.26 4.144 401 401 0 0 1-57.25-3.666c-23.15-2.988-35.47-8.447-39.91-10.031q.66-1.135 1.35-2.271c3.46 1.733 15.35 6.544 38.81 9.852a412 412 0 0 0 57 3.526 409 409 0 0 0 58.83-4.164c22.91-3.138 35.24-8.965 37.11-10.439z"/>
			<path d="M1.725 120.191c21.09 11.296 67.93 16.993 112.25 17.382 40.36.059 92.93-6.216 112.59-16.595l-.59-11.296c-6.15 9.572-62.49 18.756-112.49 18.388-50-.369-96.38-8.059-111.85-18.02l.09 10.161z"/>
			<path class="Z d" d="M227.645 118.567v2.7c-3 3.516-21.48 8.835-44.72 12.58-17.68 2.7-40.74 4.742-69.47 4.742-27.29 0-49.06-1.933-65.93-4.523-26.68-3.864-43.74-10.648-47.17-12.67v-3.148c10.29 6.814 38.17 11.804 47.53 13.328 16.77 2.57 38.4 4.493 65.56 4.493 28.59 0 51.52-1.993 69.09-4.712 16.67-2.401 40.42-8.636 45.09-12.79zm0-9.592v2.699c-3 3.516-21.48 8.836-44.72 12.581-17.67 2.729-40.73 4.721-69.45 4.721-27.29 0-49.06-1.932-65.93-4.522-26.68-3.865-43.74-10.648-47.17-12.67v-3.148c10.29 6.813 38.17 11.804 47.53 13.328 16.77 2.57 38.4 4.492 65.56 4.492 28.59 0 51.52-1.992 69.09-4.711 16.67-2.401 40.42-8.637 45.09-12.79z"/>
			<path d="M113.875 181.939c-48.5-.289-90.06-13.168-98.83-15.3l6.4 9.961c15.5 6.494 56 16.177 92.9 15.101s69.07-3.915 91.76-14.942l6.56-10.339c-15.47 7.251-68.11 15.399-98.79 15.479z"/>
			<path class="Z d" d="M208.565 174.478c-1 1.464-1.95 2.919-2.94 4.323a259 259 0 0 1-34.65 8.866c-14.54 2.988-37 5.189-57 5.199-43-.627-78.13-8.965-94.68-16.147l-1.33-2.291.22-.348 2.26.876c29.42 10.479 62.47 14.663 93.77 15.42a321 321 0 0 0 55.89-5.14c24.69-4.931 34.67-8.636 37.73-10.32l.78-.438zm5.69-9.343.07.089c-.72 1.216-1.46 2.451-2.23 3.686-5.71 1.992-21.21 6.544-43.84 9.702-14.91 1.992-24.18 3.984-53.84 4.562-55.58-1.404-91.56-12.232-100.11-14.941l-1.25-2.401c32.21 8.377 65.11 14.224 101.38 14.822 27.14-.578 38.68-2.57 53.47-4.572 26.39-4.084 39.68-8.417 43.67-9.662l-.18-.229 2.86-1.066z"/>
			<path d="M113.975 13.349a101.04 101.04 0 0 0-50.224 13.315c-67.26 38.45-67.51 135.009-.45 173.805 67.059 38.797 151.134-9.267 151.334-86.514 0-55.503-44.97-100.606-100.66-100.606m0-9.961c61 0 110.79 49.586 110.79 110.378s-49.79 110.398-110.79 110.398S3.145 174.578 3.145 113.786 52.905 3.408 113.975 3.408z"/>
			<g class="Z d">
				<path d="M113.975 4.544c-60.17 0-109.8 49.217-109.8 109.371 0 60.155 49.56 109.382 109.8 109.382s109.8-49.217 109.8-109.372-49.59-109.381-109.8-109.381m0-2.461c61.84 0 112.27 50.243 112.27 111.842s-50.4 111.832-112.27 111.832S1.735 175.514 1.735 113.915 52.175 2.083 113.975 2.083"/>
				<path d="M114.105 13.837c-55.03 0-100.37 44.974-100.37 99.979 0 55.004 45.33 99.988 100.37 99.988s100.37-45.004 100.37-99.988-45.37-99.979-100.37-99.979m0-2.46c56.39 0 102.84 46.099 102.84 102.439s-46.45 102.449-102.84 102.449-102.84-46.1-102.84-102.449c0-56.35 46.45-102.439 102.84-102.439"/>
				</g>
			<polygon points="187.132,79.77 196.902,79.77 196.902,304.799 187.132,304.799" transform="translate(-77.667,-78.215)"/>
			<g class="Z d">
				<path d="M110.735 1.635h6.82m-6.81 224.71h6.86"/>
				<path d="M117.655.35h2.45v227.3h-2.43V.35Zm-9.55 0h2.47v227.3h-2.47z"/>
				</g>
			<path d="M1.335 109.154c14.08-12.949 66-21.277 112.11-21.068 46.11.21 100.67 9.653 112.53 20.799l.12 9.632c-9.94-9.313-52.35-20.43-112.57-20.549-60.22-.12-103.93 11.286-112.19 20.788z"/>
			<g class="Z d">
				<path d="M1.315 109.602v8.308m225.05-7.969v8.307"/>
				<path d="M114.065 96.603c26.51 0 52.24 2.5 72.64 6.455 21.06 4.193 35.87 9.443 40.94 15.33v2.918c-6.11-7.331-26-12.7-41.41-15.778-20.26-3.924-45.81-6.435-72.17-6.435-27.82.05-53.73 2.68-73.69 6.555-16 3.167-37.36 9.453-40 15.648v-3.038c1.46-4.293 17.36-10.708 39.67-15.15 20.1-3.905 46.06-6.485 74-6.535zm0-9.592c26.51 0 52.24 2.5 72.64 6.454 21.06 4.194 35.87 9.443 40.94 15.33v2.919c-6.11-7.331-26-12.7-41.41-15.778-20.25-3.925-45.8-6.455-72.17-6.405-27.82.05-53.61 2.679-73.56 6.554-15.45 2.919-37.68 9.453-40.15 15.649v-3.038c1.46-4.244 17.69-10.888 39.67-15.151 20.1-3.905 46.06-6.485 74-6.534z"/>
				</g>
			<path d="M113.525 38.092c41.78-.209 78.23 5.817 94.9 14.324l6.08 10.479c-14.49-7.779-53.81-15.868-100.92-14.662-38.39.239-79.4 4.213-100 15.15l7.27-12.102c16.89-8.726 56.72-13.149 92.66-13.199z"/>
			<g class="Z d">
				<line x1="209.485" y1="54.109997" x2="213.62498" y2="60.734005"/>
				<path d="M114.075 46.748c23.83-.059 46.86 1.275 65.17 4.572 17.06 3.158 33.32 7.909 35.65 10.459l1.8 3.178c-5.66-3.676-19.73-7.77-37.8-11.186s-41.16-4.522-64.86-4.463c-26.9-.089-47.8 1.325-65.73 4.433-19 3.536-32.13 8.586-35.38 10.957l1.77-3.357c6.28-3.187 16.28-7.072 33.13-10.06 18.55-3.377 39.67-4.393 66.25-4.533m0-9.582c22.81-.06 45.33 1.205 62.88 4.353 13.84 2.689 27.53 6.873 32.55 10.608l2.64 4.174c-4.48-4.981-21.36-9.662-36.26-12.302-17.42-2.988-39-4.174-61.81-4.363-23.93.06-46.05 1.524-63.22 4.642-16.38 3.098-26.94 6.773-31.41 9.642l2.32-3.486c6.17-3.237 16.14-6.206 28.69-8.636 17.29-3.138 39.55-4.562 63.62-4.622z"/>
				</g>
			<path d="M169.845 160.413c-20.66-3.845-41.35-4.402-55.81-4.233-69.63.817-92.12 14.244-94.87 18.308l-5.2-8.447c17.73-12.8 55.64-19.982 100.45-19.244 23.27.378 43.34 1.922 60.23 5.179z"/>
			<g class="Z d">
				<line x1="15.114998" y1="167.207" x2="18.535004" y2="173.06401"/>
				<path d="M113.635 154.985c19.37.288 38.38 1.085 56.73 4.492l-1.32 2.371c-17-3.138-35.21-4.333-55.34-4.234-25.7-.199-51.69 2.192-74.32 8.656-7.14 1.993-19 6.555-20.17 10.33l-1.32-2.172c.38-2.231 7.53-6.863 20.88-10.608 25.92-7.391 50.16-8.636 74.86-8.806zm.88-9.712c20.07.368 40.79 1.294 60.94 5.269l-1.38 2.43c-18.19-3.596-35.57-4.791-59.43-5.159-25.78 0-53.12 1.872-78 9.074-8 2.331-21.88 7.361-22.34 11.346l-1.33-2.311c.3-3.626 12.3-8.348 23.08-11.475 25.06-7.252 52.47-9.125 78.45-9.164z"/>
				</g>
			<path d="M19.885 51.141c34.49-.448 193.79 96.96 194.26 114.9l-9.87 15.071c-4.45-20.828-166.09-115.617-192.76-113.824l8.37-16.137z"/>
			<g class="Z d">
				<path d="m213.425 167.316-8.37 12.95M19.625 51.988l-7.78 14.364"/>
				<path d="M10.525 66.7c6.4-4.323 53.45 16.555 102.68 46.12s96 63.162 91.78 69.428l-1.39 2.181-.64.498c.14-.099.84-.996-.07-3.277-2.09-6.853-35.37-33.309-90.59-66.519-53.83-31.975-98.7-51.24-103.18-45.741l1.41-2.7zm204.61 100.437c4-7.969-39.59-40.711-93.7-72.596-55.35-31.247-95.24-49.635-102.53-44.157l-1.62 2.939c0 .159.06-.2.4-.459 1.33-1.155 3.52-1.075 4.51-1.095 12.55.189 48.38 16.615 98.66 45.322 22 12.78 93.06 58.153 92.79 70.913 0 1.095.09 1.324-.32 1.862l1.81-2.739z"/>
				</g>
			</g>
		<path class="W Z c" d="M46.755 126.237c.31 36.858 30.218 66.667 67.22 66.998 37.147-.005 67.294-29.936 67.42-66.938v-89.44l-134.64-.159Z"/>
		<path class="R Z e" d="M49.275 126.367a63.58 63.58 0 0 0 19 45.193c25.152 25.135 66.004 25.18 91.21.099a63.55 63.55 0 0 0 18.94-45.223v-86.73H49.345l-.08 86.661zm103.21-60.703v61.061a42 42 0 0 1-.27 4.781 37.44 37.44 0 0 1-11 22.263 38.63 38.63 0 0 1-27.27 11.226c-21.145-.328-38.175-17.385-38.39-38.449V65.525l77 .139z"/>
		<g id="h">
			<path class="B" d="M105.765 116.515a9.4 9.4 0 0 0 2.51 6.485c3.206 3.55 8.794 3.55 12 0a9.4 9.4 0 0 0 2.5-6.435v-12.192h-17v12.162z"/>
			<g class="W">
				<path d="M119.085 107.311c-1.293.008-2.093 1.407-1.439 2.519s2.269 1.102 2.909-.018a1.66 1.66 0 0 0 .22-.827 1.686 1.686 0 0 0-1.69-1.674"/>
				<path d="M114.365 111.824c-1.293 0-2.101 1.394-1.455 2.51.647 1.115 2.264 1.115 2.91 0 .148-.254.225-.543.225-.837a1.685 1.685 0 0 0-1.68-1.673"/>
				<path d="M119.075 116.535c-1.293.008-2.093 1.407-1.439 2.519s2.269 1.102 2.909-.018a1.66 1.66 0 0 0 .22-.827 1.686 1.686 0 0 0-1.69-1.674"/>
				<path d="M109.875 116.545c-1.293 0-2.101 1.395-1.455 2.51.647 1.116 2.264 1.116 2.91 0 .148-.254.225-.543.225-.837a1.685 1.685 0 0 0-1.68-1.673"/>
				<path d="M109.865 107.311c-1.293 0-2.101 1.395-1.455 2.51.647 1.116 2.264 1.116 2.91 0 .148-.254.225-.543.225-.836a1.686 1.686 0 0 0-1.68-1.674"/>
				</g>
			</g>
		<use href="#h" transform="translate(0,29.116)"/>
		<use href="#h" transform="translate(-23.59)"/>
		<use href="#h" transform="translate(23.53)"/>
		<use href="#h" transform="translate(0,-29.385)"/>
		<g id="g">
			<path class="Y" d="M57.635 62.337c.15-6.235 4.6-7.71 4.63-7.729s4.8 1.593 4.78 7.789z"/>
			<g class="Y Z f">
				<path d="m53.795 54.717-.77 7.162h4.69c0-5.977 4.51-6.913 4.61-6.893s4.52 1.315 4.64 6.893h4.71l-.85-7.222h-17z"/>
				<path d="M52.715 61.919h19.26c.447.047.775.44.74.886a.83.83 0 0 1-.74.887h-19.26a.83.83 0 0 1-.74-.887.827.827 0 0 1 .74-.886"/>
				<path d="M59.705 61.889c0-3.745 2.56-4.801 2.58-4.801a4.975 4.975 0 0 1 2.68 4.801z"/>
				<path d="M53.115 51.749h18.42a.76.76 0 0 1 .71.797.76.76 0 0 1-.71.797h-18.42a.76.76 0 0 1-.71-.797.76.76 0 0 1 .71-.797"/>
				<path d="M53.505 53.343h17.62a.747.747 0 0 1 .68.796.75.75 0 0 1-.68.797h-17.62a.75.75 0 0 1-.68-.797.75.75 0 0 1 .68-.796"/>
				<path d="M59.185 41.389h1.41v.996h1v-.996h1.43v.996h1v-.996h1.43v2.271a.59.59 0 0 1-.62.588h-5a.64.64 0 0 1-.65-.598z"/>
				<path d="M65.235 44.945h1.38v.996h1v-.996h1.36v.996h1v-.996h1.4v2.271a.59.59 0 0 1-.61.588h-4.9a.63.63 0 0 1-.63-.597z"/>
				<path d="M53.235 44.965h1.35v.996h1v-.996h1.39v.996h1v-.996h1.4v2.271a.59.59 0 0 1-.61.588h-4.9a.63.63 0 0 1-.63-.598z"/>
				<g transform="translate(-77.667,-78.215)">
					<polygon points="137.542,129.914 137.862,122.622 142.112,122.642 142.422,129.934"/>
					<polygon points="143.652,129.934 143.782,126.009 148.182,126.009 148.332,129.934"/>
					<polygon points="131.622,129.944 131.752,126.019 136.152,126.019 136.302,129.944"/>
					</g>
				</g>
			<g class="K">
				<path d="M61.835 46.728a.5.5 0 0 1 1 0v1.734h-1z"/>
				<path d="M67.855 49.288a.47.47 0 0 1 .94 0v1.345h-.94z"/>
				<path d="M55.795 49.288a.47.47 0 0 1 .94 0v1.345h-.94z"/>
				</g>
			</g>
		<use href="#g" transform="translate(51.83)"/>
		<use href="#g" transform="translate(103.03)"/>
		<use href="#g" transform="translate(103.03,52.315)"/>
		<use href="#g" transform="rotate(45,-20.549843,215.95075)"/>
		<use href="#g" transform="rotate(-45,196.67286,91.04128)"/>
		<use href="#g" transform="translate(0,52.306)"/>
		</g>
	</svg>