<?xml version="1.0" encoding="UTF-8" standalone="no"?>
<svg
   width="144"
   height="96"
   version="1.1"
   id="svg16682"
   sodipodi:docname="rect.svg"
   inkscape:version="1.2.2 (732a01da63, 2022-12-09)"
   inkscape:export-filename="az.png"
   inkscape:export-xdpi="96"
   inkscape:export-ydpi="96"
   xmlns:inkscape="http://www.inkscape.org/namespaces/inkscape"
   xmlns:sodipodi="http://sodipodi.sourceforge.net/DTD/sodipodi-0.dtd"
   xmlns="http://www.w3.org/2000/svg"
   xmlns:svg="http://www.w3.org/2000/svg">
  <defs
     id="defs16686">
    <inkscape:path-effect
       effect="offset"
       id="path-effect3390"
       is_visible="true"
       lpeversion="1.2"
       linejoin_type="miter"
       unit="px"
       offset="-4"
       miter_limit="4"
       attempt_force_join="false"
       update_on_knot_move="true" />
    <inkscape:path-effect
       effect="offset"
       id="path-effect2136"
       is_visible="true"
       lpeversion="1.2"
       linejoin_type="miter"
       unit="px"
       offset="-1"
       miter_limit="4"
       attempt_force_join="false"
       update_on_knot_move="true" />
  </defs>
  <sodipodi:namedview
     id="namedview16684"
     pagecolor="#505050"
     bordercolor="#eeeeee"
     borderopacity="1"
     inkscape:showpageshadow="0"
     inkscape:pageopacity="0"
     inkscape:pagecheckerboard="0"
     inkscape:deskcolor="#505050"
     showgrid="false"
     inkscape:zoom="8.0666664"
     inkscape:cx="54.669423"
     inkscape:cy="55.041324"
     inkscape:window-width="2560"
     inkscape:window-height="1377"
     inkscape:window-x="1912"
     inkscape:window-y="-8"
     inkscape:window-maximized="1"
     inkscape:current-layer="g1610">
    <inkscape:grid
       type="xygrid"
       id="grid17531"
       empspacing="8"
       originx="0"
       originy="0" />
  </sodipodi:namedview>
  <g
     id="g1610"
     transform="matrix(0.16,0,0,0.16,-24,0)"
     style="display:inline"
     inkscape:groupmode="layer">
    <path
       fill="#00ae65"
       d="m 150,0 h 900 V 600 H 150 Z"
       id="path1596"
       style="stroke-width:0.707106"
       sodipodi:nodetypes="ccccc" />
    <path
       fill="#e00034"
       d="m 150,0 h 900 V 400 H 150 Z"
       id="path1598"
       style="display:inline;stroke-width:0.707106"
       sodipodi:nodetypes="ccccc" />
    <path
       fill="#0079c4"
       d="m 150,0 h 900 V 200 H 150 Z"
       id="path1600"
       style="stroke-width:0.707106"
       sodipodi:nodetypes="ccccc" />
    <g
       id="g1608">
      <g
         id="g2503"
         transform="translate(-231.25)">
        <path
           style="fill:#ffffff;stroke-width:5;stroke-linecap:round;stroke-linejoin:round;paint-order:stroke fill markers"
           id="path1666"
           transform="matrix(6.25,0,0,6.25,300,0)"
           inkscape:path-effect="#path-effect2136"
           sodipodi:type="arc"
           sodipodi:cx="80"
           sodipodi:cy="48"
           sodipodi:rx="16"
           sodipodi:ry="16"
           d="m 80,33 c 8.279227,0 15,6.720773 15,15 0,8.279227 -6.720773,15 -15,15 -8.279227,0 -15,-6.720773 -15,-15 0,-8.279227 6.720773,-15 15,-15 z" />
        <path
           style="fill:#e00034;fill-opacity:1;stroke-width:5;stroke-linecap:round;stroke-linejoin:round;paint-order:stroke fill markers"
           id="path3386"
           inkscape:path-effect="#path-effect3390"
           sodipodi:type="arc"
           sodipodi:cx="825"
           sodipodi:cy="300"
           sodipodi:rx="100"
           sodipodi:ry="100"
           d="m 825,225 c 41.29525,0 75,33.70475 75,75 0,41.29525 -33.70475,75 -75,75 -41.29525,0 -75,-33.70475 -75,-75 0,-41.29525 33.70475,-75 75,-75 z" />
      </g>
      <path
         sodipodi:type="star"
         style="display:inline;fill:#ffffff;fill-opacity:1;stroke-width:5;stroke-linecap:round;stroke-linejoin:round;paint-order:stroke fill markers"
         id="path3307"
         inkscape:flatsided="false"
         sodipodi:sides="8"
         sodipodi:cx="59"
         sodipodi:cy="48"
         sodipodi:r1="8"
         sodipodi:r2="4"
         sodipodi:arg1="-1.5707963"
         sodipodi:arg2="-1.1780972"
         inkscape:rounded="0"
         inkscape:randomized="0"
         d="m 59,40 1.530734,4.304482 4.12612,-1.961336 -1.961336,4.12612 L 67,48 l -4.304482,1.530734 1.961336,4.12612 -4.12612,-1.961336 L 59,56 57.469266,51.695518 53.343146,53.656854 55.304482,49.530734 51,48 l 4.304482,-1.530734 -1.961336,-4.12612 4.12612,1.961336 z"
         transform="matrix(6.25,0,0,6.25,306.25,0)" />
    </g>
  </g>
</svg>
