<svg height="493.57599" viewBox="0 0 738.66669 493.57599" width="738.66669" xmlns="http://www.w3.org/2000/svg"><path d="m0 0h554v370.182h-554z" fill="#fff" transform="matrix(1.3333333 0 0 -1.3333333 0 493.576)"/><g fill="#0038b8"><path d="m0 277.637h554v57.84h-554z" transform="matrix(1.3333333 0 0 -1.3333333 0 493.576)"/><path d="m0 34.704h554v57.841h-554z" transform="matrix(1.3333333 0 0 -1.3333333 0 493.576)"/><path d="m0 0h94.734l-47.367 82.044zm116.774-12.726h-138.814l69.407 120.222z" transform="matrix(1.3333333 0 0 -1.3333333 308.17707 283.25427)"/><path d="m0 0 47.367-82.045 47.367 82.045zm47.367-107.496-69.407 120.221h138.814z" transform="matrix(1.3333333 0 0 -1.3333333 308.17707 210.32133)"/></g></svg>