<svg height="1200" viewBox="0 0 1797.3333 1200" width="1797.3333" xmlns="http://www.w3.org/2000/svg" xmlns:xlink="http://www.w3.org/1999/xlink"><clipPath id="a"><path d="m0 900h1348v-900h-1348z" transform="translate(-626.47222 -447.42191)"/></clipPath><clipPath id="b"><path d="m0 900h1348v-900h-1348z" transform="translate(-817.83985 -544.95361)"/></clipPath><g transform="matrix(1.3333333 0 0 -1.3333333 0 1200)"><path d="m.5 600.556h1347.5v299.444h-1347.5z" fill="#ce1126"/><path d="m.5 301.111h1347.5v299.444h-1347.5z" fill="#fff"/><path d="m.5 1.667h1347.5v299.444h-1347.5z"/></g><g fill="#007a3d"><path clip-path="url(#a)" d="m0 0c0 49.132.408 70.596 1.351 71.234.74.5 3.961-2.07 7.154-5.71 3.192-3.641 8.884-9.487 12.653-12.991 5.944-5.537 6.562-6.556 4.73-7.77-6.128-4.048-5.972-2.773-5.972-49.48v-43.886h11.912c10.576 0 12.531.392 17.421 3.513 6.071 3.87 6.474 3.36 3.469-4.363-1.126-2.881-2.382-8.592-2.804-12.686l-.759-7.443-24.58-.367-24.575-.367v70.357zm-269.424-103.548c-2.785 1.107-7.305 4.752-10.267 8.276-5.584 6.642-6.855 9.742-3.104 7.56 5.592-3.257 16.671-5.373 20.614-3.946 14.542 5.281 17.847 26.394 6.235 39.788-2.278 2.626-4.144 5.679-4.144 6.785 0 1.107 2.423 3.176 5.381 4.599 4.145 1.994 6.17 4.166 8.824 9.463 2.69 5.379 3.797 6.551 5.091 5.383 1.846-1.667 8.087-17.859 8.087-20.99 0-1.65 2.254-2.014 12.46-2.014h12.462l-1.946 5.079c-1.069 2.788-2.831 6.545-3.915 8.345-1.752 2.917-1.763 3.432-.08 4.737 1.037.805 4.488 3.447 7.671 5.869 3.178 2.421 6.151 5.465 6.595 6.764 1.103 3.223 7.994 12.516 9.273 12.516.567 0 1.037-9.742 1.037-21.65v-21.654h155.556v62.036l-4.328 2.913-4.327 2.911-4.383-3.637-4.384-3.635v-44.341h-65.333c-35.94 0-65.338.246-65.338.541 0 .474 32.511 48.226 36.487 53.595.826 1.116 2.87 4.16 4.538 6.765 1.67 2.606 3.37 5.042 3.774 5.415.412.371 2.096 2.808 3.755 5.414 1.655 2.605 3.587 5.449 4.294 6.316.709.872 12.485 18.039 26.174 38.152 13.69 20.113 25.297 36.606 25.803 36.651.502.047 1.216-1.595 1.585-3.639 2.053-11.329 3.63-17.672 5.256-21.159 2.082-4.461.862-6.128-4.637-6.312-2.601-.086-8.597-8.091-36.713-49.02-18.48-26.904-33.787-49.397-34.016-49.989-.23-.591 16.431-1.076 37.022-1.076h37.438l.019 14.55c.011 8 .431 15.179.933 15.948 2.35 3.6 27.102 22.407 28.828 21.907 1.074-.31 7.693-5.316 14.711-11.124l12.756-10.564v-90.27h-216.167l-2.172-8.73c-2.606-10.46-6.867-18.006-12.591-22.269-5.439-3.977-17.675-5.099-24.848-2.242zm53.163-4.282-7.745 8.499 7.815 8.423 7.815 8.422 7.745-8.499 7.745-8.499-7.815-8.422-7.815-8.422-7.736 8.514z" transform="matrix(1.3333333 0 0 -1.3333333 835.29627 603.43747)"/><path clip-path="url(#b)" d="m0 0c-3.009 2.233-9.361 13.678-9.601 17.319-.21 3.12.3 4.074 2.34 4.395 3.573.556 5.223-2.029 7.97-12.486 2.251-8.565 2.015-11.268-.703-9.228zm-15.142-22.434c-2.203.878-4.734 2.434-5.62 3.453-1.36 1.56-.686 1.713 4.256.942 8.88-1.375 14.321.261 19.273 5.813l4.355 4.874 6.052-2.335c3.329-1.285 6.807-2.019 7.736-1.631 2.4 1.004 6.751 8.504 6.315 10.889-.531 2.912 1.927 2.469 3.445-.616 2.982-6.058.493-13.74-5.204-16.081-2.788-1.146-5.485-1.177-10.004-.127-5.55 1.295-6.459 1.158-8.893-1.32-5.438-5.558-13.736-7.036-21.707-3.875zm98.357-73.925c0 49.321.407 70.873 1.355 71.51.745.499 3.98-2.08 7.182-5.736 3.206-3.655 8.916-9.524 12.695-13.042 5.967-5.558 6.592-6.581 4.749-7.801-6.151-4.063-5.996-2.788-5.996-49.672v-44.061h12.203c11.069 0 12.643.327 16.961 3.519 2.621 1.933 5.068 3.182 5.444 2.773.376-.408-.3-3.364-1.505-6.572-1.205-3.207-2.541-9.192-2.968-13.301l-.778-7.474-24.673-.367-24.674-.368v70.613zm-108.717-39.972v8.831h-4.9c-6.577 0-12.587-6.208-12.587-13.011v-4.65h17.487v8.821zm-37.177-13.255c.652 19.787 2.532 26.501 9.207 32.875 5.139 4.905 12.491 7.229 20.998 6.633l6.372-.449.383 8.096c.485 10.258-.37 13.918-3.506 15.004-3.765 1.3-2.996 5.552 1.566 8.647 2.231 1.513 7.698 6.76 12.143 11.659 4.444 4.9 8.523 8.908 9.056 8.908.535 0 .976-19.562.976-43.474v-43.48h17.487v44.739c0 38.861-.259 45.019-1.965 46.874-1.078 1.173-2.484 2.137-3.122 2.137-2.805 0-.82 5.44 2.897 7.964 2.237 1.513 7.67 6.729 12.085 11.593 4.412 4.863 8.491 8.53 9.058 8.147.567-.381 1.031-27.862 1.031-61.073v-60.381h17.488v123.652l-3.122 2.952c-1.717 1.622-3.124 3.69-3.124 4.594 0 .902 3.887 5.052 8.636 9.227 4.749 4.176 9.846 9.437 11.327 11.7 6.375 9.744 6.273 11.197 6.273-84.872v-88.985h-132.721l.797 17.333z" transform="matrix(1.3333333 0 0 -1.3333333 1090.4531 473.3952)"/></g></svg>