<svg height="450" viewBox="0 0 675 450" width="675" xmlns="http://www.w3.org/2000/svg" xmlns:xlink="http://www.w3.org/1999/xlink"><clipPath id="a"><path d="m0 337.5h506.25v-337.5h-506.25z" transform="translate(-247.5229 -108)"/></clipPath><clipPath id="b"><path d="m0 337.5h506.25v-337.5h-506.25z" transform="translate(-191.5 -173.4771)"/></clipPath><clipPath id="c"><path d="m0 337.5h506.25v-337.5h-506.25z" transform="translate(-256.97661 -229.50001)"/></clipPath><clipPath id="d"><path d="m0 337.5h506.25v-337.5h-506.25z" transform="translate(-313.00001 -164.02341)"/></clipPath><clipPath id="e"><path d="m0 337.5h506.25v-337.5h-506.25z" transform="translate(-228.98391 -112.43361)"/></clipPath><clipPath id="f"><path d="m0 337.5h506.25v-337.5h-506.25z" transform="translate(-195.93411 -192.01611)"/></clipPath><clipPath id="g"><path d="m0 337.5h506.25v-337.5h-506.25z" transform="translate(-275.5156 -225.06591)"/></clipPath><clipPath id="h"><path d="m0 337.5h506.25v-337.5h-506.25z" transform="translate(-308.56641 -145.4844)"/></clipPath><clipPath id="i"><path d="m0 337.5h506.25v-337.5h-506.25z" transform="translate(-212.7187 -122.37891)"/></clipPath><clipPath id="j"><path d="m0 337.5h506.25v-337.5h-506.25z" transform="translate(-205.87891 -208.28121)"/></clipPath><clipPath id="k"><path d="m0 337.5h506.25v-337.5h-506.25z" transform="translate(-291.78121 -215.1211)"/></clipPath><clipPath id="l"><path d="m0 337.5h506.25v-337.5h-506.25z" transform="translate(-298.62111 -129.2187)"/></clipPath><clipPath id="m"><path d="m0 337.5h506.25v-337.5h-506.25z" transform="translate(-200.3242 -136.8633)"/></clipPath><clipPath id="n"><path d="m0 337.5h506.25v-337.5h-506.25z" transform="translate(-220.36281 -220.67581)"/></clipPath><clipPath id="o"><path d="m0 337.5h506.25v-337.5h-506.25z" transform="translate(-304.17581 -200.63721)"/></clipPath><clipPath id="p"><path d="m0 337.5h506.25v-337.5h-506.25z" transform="translate(-284.1367 -116.8242)"/></clipPath><clipPath id="q"><path d="m0 337.5h506.25v-337.5h-506.25z" transform="translate(-193.0122 -154.4727)"/></clipPath><clipPath id="r"><path d="m0 337.5h506.25v-337.5h-506.25z" transform="translate(-237.97311 -227.9878)"/></clipPath><clipPath id="s"><path d="m0 337.5h506.25v-337.5h-506.25z" transform="translate(-311.48831 -183.02691)"/></clipPath><clipPath id="t"><path d="m0 337.5h506.25v-337.5h-506.25z" transform="translate(-266.5273 -109.5117)"/></clipPath><clipPath id="u"><path d="m0 337.5h506.25v-337.5h-506.25z" transform="translate(-238.07811 -109.4883)"/></clipPath><clipPath id="v"><path d="m0 337.5h506.25v-337.5h-506.25z" transform="translate(-192.98781 -182.92191)"/></clipPath><clipPath id="w"><path d="m0 337.5h506.25v-337.5h-506.25z" transform="translate(-266.42191 -228.01221)"/></clipPath><clipPath id="x"><path d="m0 337.5h506.25v-337.5h-506.25z" transform="translate(-311.51171 -154.5781)"/></clipPath><clipPath id="y"><path d="m0 337.5h506.25v-337.5h-506.25z" transform="translate(-220.46091 -116.76561)"/></clipPath><clipPath id="z"><path d="m0 337.5h506.25v-337.5h-506.25z" transform="translate(-200.26611 -200.53911)"/></clipPath><clipPath id="A"><path d="m0 337.5h506.25v-337.5h-506.25z" transform="translate(-284.03911 -220.73391)"/></clipPath><clipPath id="B"><path d="m0 337.5h506.25v-337.5h-506.25z" transform="translate(-304.23441 -136.9609)"/></clipPath><clipPath id="C"><path d="m0 337.5h506.25v-337.5h-506.25z" transform="translate(-205.9531 -129.13281)"/></clipPath><clipPath id="D"><path d="m0 337.5h506.25v-337.5h-506.25z" transform="translate(-212.63281 -215.04691)"/></clipPath><clipPath id="E"><path d="m0 337.5h506.25v-337.5h-506.25z" transform="translate(-298.5469 -208.3672)"/></clipPath><clipPath id="F"><path d="m0 337.5h506.25v-337.5h-506.25z" transform="translate(-291.86721 -122.4531)"/></clipPath><clipPath id="G"><path d="m0 337.5h506.25v-337.5h-506.25z" transform="translate(-195.9771 -145.3789)"/></clipPath><clipPath id="H"><path d="m0 337.5h506.25v-337.5h-506.25z" transform="translate(-228.87891 -225.0229)"/></clipPath><clipPath id="I"><path d="m0 337.5h506.25v-337.5h-506.25z" transform="translate(-308.52341 -192.12111)"/></clipPath><clipPath id="J"><path d="m0 337.5h506.25v-337.5h-506.25z" transform="translate(-275.62111 -112.4766)"/></clipPath><clipPath id="K"><path d="m0 337.5h506.25v-337.5h-506.25z" transform="translate(-191.5078 -163.9141)"/></clipPath><clipPath id="L"><path d="m0 337.5h506.25v-337.5h-506.25z" transform="translate(-247.41411 -229.49221)"/></clipPath><clipPath id="M"><path d="m0 337.5h506.25v-337.5h-506.25z" transform="translate(-312.99221 -173.58591)"/></clipPath><clipPath id="N"><path d="m0 337.5h506.25v-337.5h-506.25z" transform="translate(-257.08591 -108.0078)"/></clipPath><clipPath id="O"><path d="m0 337.5h506.25v-337.5h-506.25z" transform="translate(-313.00001 -168.75)"/></clipPath><clipPath id="P"><path d="m0 337.5h506.25v-337.5h-506.25z" transform="translate(-302.87501 -172.125)"/></clipPath><clipPath id="Q"><path d="m196 168.75c0-31.066 25.184-56.25 56.25-56.25s56.25 25.184 56.25 56.25-25.184 56.25-56.25 56.25-56.25-25.184-56.25-56.25" transform="translate(-206.96871 -128.25)"/></clipPath><clipPath id="R"><path d="m196 168.75c0-31.066 25.184-56.25 56.25-56.25s56.25 25.184 56.25 56.25-25.184 56.25-56.25 56.25-56.25-25.184-56.25-56.25" transform="translate(-216.76221 -128.25)"/></clipPath><clipPath id="S"><path d="m196 168.75c0-31.066 25.184-56.25 56.25-56.25s56.25 25.184 56.25 56.25-25.184 56.25-56.25 56.25-56.25-25.184-56.25-56.25" transform="translate(-298.82421 -201.06201)"/></clipPath><clipPath id="T"><path d="m196 168.75c0-31.066 25.184-56.25 56.25-56.25s56.25 25.184 56.25 56.25-25.184 56.25-56.25 56.25-56.25-25.184-56.25-56.25" transform="translate(-297.53121 -128.25)"/></clipPath><clipPath id="U"><path d="m196 168.75c0-31.066 25.184-56.25 56.25-56.25s56.25 25.184 56.25 56.25-25.184 56.25-56.25 56.25-56.25-25.184-56.25-56.25" transform="translate(-287.73831 -128.25)"/></clipPath><clipPath id="V"><path d="m196 168.75c0-31.066 25.184-56.25 56.25-56.25s56.25 25.184 56.25 56.25-25.184 56.25-56.25 56.25-56.25-25.184-56.25-56.25" transform="translate(-205.67581 -201.06201)"/></clipPath><path d="m0 0h506.25v337.5h-506.25z" fill="#e8112d" transform="matrix(1.3333333 0 0 -1.3333333 0 450)"/><g fill="#ffef00"><path clip-path="url(#a)" d="m0 0c4.727-12.375-5.398-31.5 4.727-40.5-3.375 13.5 7.875 28.125 4.727 40.5-3.153 12.375-14.176 12.375-9.454 0" transform="matrix(1.3333333 0 0 -1.3333333 330.03053 306)"/><path clip-path="url(#b)" d="m0 0c-12.375-4.727-31.5 5.398-40.5-4.727 13.5 3.375 28.125-7.875 40.5-4.727 12.375 3.153 12.375 14.176 0 9.454" transform="matrix(1.3333333 0 0 -1.3333333 255.33333 218.6972)"/><path clip-path="url(#c)" d="m0 0c-4.727 12.375 5.398 31.5-4.727 40.5 3.375-13.5-7.875-28.125-4.727-40.5 3.153-12.375 14.177-12.375 9.454 0" transform="matrix(1.3333333 0 0 -1.3333333 342.63547 144)"/><path clip-path="url(#d)" d="m0 0c12.375 4.727 31.5-5.398 40.5 4.727-13.5-3.375-28.125 7.875-40.5 4.727-12.375-3.153-12.375-14.177 0-9.454" transform="matrix(1.3333333 0 0 -1.3333333 417.33333 231.30213)"/><path clip-path="url(#e)" d="m0 0c.668-13.23-14.871-28.289-8.023-39.977.965 13.879 16.184 24.313 17.012 37.055.828 12.746-9.661 16.152-8.989 2.922" transform="matrix(1.3333333 0 0 -1.3333333 305.31187 300.08853)"/><path clip-path="url(#f)" d="m0 0c-13.231-.668-28.289 14.871-39.977 8.023 13.879-.965 24.313-16.184 37.055-17.012 12.746-.828 16.152 9.661 2.922 8.989" transform="matrix(1.3333333 0 0 -1.3333333 261.24547 193.97853)"/><path clip-path="url(#g)" d="m0 0c-.668 13.231 14.871 28.289 8.023 39.977-.964-13.879-16.183-24.313-17.011-37.055-.828-12.746 9.66-16.152 8.988-2.922" transform="matrix(1.3333333 0 0 -1.3333333 367.35413 149.91213)"/><path clip-path="url(#h)" d="m0 0c13.23.668 28.289-14.871 39.977-8.023-13.879.964-24.313 16.183-37.055 17.011-12.746.828-16.152-9.661-2.922-8.988" transform="matrix(1.3333333 0 0 -1.3333333 411.42187 256.0208)"/><path clip-path="url(#i)" d="m0 0c-3.449-12.789-22.883-22.309-19.981-35.543 5.203 12.906 22.903 18.125 27.625 29.988 4.727 11.865-4.191 18.344-7.644 5.555" transform="matrix(1.3333333 0 0 -1.3333333 283.62493 286.82813)"/><path clip-path="url(#j)" d="m0 0c-12.789 3.449-22.309 22.883-35.543 19.981 12.906-5.203 18.125-22.903 29.988-27.625 11.864-4.727 18.344 4.191 5.555 7.644" transform="matrix(1.3333333 0 0 -1.3333333 274.5052 172.29173)"/><path clip-path="url(#k)" d="m0 0c3.449 12.789 22.883 22.309 19.98 35.543-5.203-12.906-22.902-18.125-27.625-29.988-4.726-11.864 4.192-18.344 7.645-5.555" transform="matrix(1.3333333 0 0 -1.3333333 389.0416 163.17187)"/><path clip-path="url(#l)" d="m0 0c12.789-3.449 22.309-22.883 35.543-19.98-12.906 5.203-18.125 22.902-29.988 27.625-11.864 4.726-18.344-4.192-5.555-7.645" transform="matrix(1.3333333 0 0 -1.3333333 398.16147 277.7084)"/><path clip-path="url(#m)" d="m0 0c-7.234-11.094-28.656-14.145-29.988-27.625 8.937 10.664 27.383 10.16 35.543 19.98 8.16 9.825 1.68 18.743-5.555 7.645" transform="matrix(1.3333333 0 0 -1.3333333 267.09893 267.5156)"/><path clip-path="url(#n)" d="m0 0c-11.093 7.234-14.144 28.656-27.625 29.988 10.664-8.937 10.16-27.383 19.981-35.543 9.824-8.16 18.742-1.68 7.644 5.555" transform="matrix(1.3333333 0 0 -1.3333333 293.81707 155.7656)"/><path clip-path="url(#o)" d="m0 0c7.234 11.093 28.656 14.144 29.988 27.625-8.937-10.664-27.383-10.16-35.543-19.981-8.16-9.824-1.679-18.742 5.555-7.644" transform="matrix(1.3333333 0 0 -1.3333333 405.56773 182.48373)"/><path clip-path="url(#p)" d="m0 0c11.094-7.234 14.145-28.656 27.625-29.988-10.664 8.937-10.16 27.383-19.98 35.543-9.825 8.16-18.743 1.679-7.645-5.555" transform="matrix(1.3333333 0 0 -1.3333333 378.84893 294.2344)"/><path clip-path="url(#q)" d="m0 0c-10.309-8.32-31.625-4.602-37.055-17.012 11.793 7.383 29.18 1.203 39.977 8.024 10.796 6.82 7.39 17.304-2.922 8.988" transform="matrix(1.3333333 0 0 -1.3333333 257.3496 244.0364)"/><path clip-path="url(#r)" d="m0 0c-8.321 10.309-4.602 31.625-17.012 37.055 7.383-11.793 1.203-29.18 8.023-39.977 6.821-10.796 17.305-7.39 8.989 2.922" transform="matrix(1.3333333 0 0 -1.3333333 317.29747 146.01627)"/><path clip-path="url(#s)" d="m0 0c10.309 8.321 31.625 4.602 37.055 17.012-11.793-7.383-29.18-1.203-39.977-8.023-10.797-6.821-7.391-17.305 2.922-8.989" transform="matrix(1.3333333 0 0 -1.3333333 415.31773 205.96413)"/><path clip-path="url(#t)" d="m0 0c8.32-10.309 4.602-31.625 17.012-37.055-7.383 11.793-1.203 29.18-8.024 39.977-6.82 10.797-17.304 7.391-8.988-2.922" transform="matrix(1.3333333 0 0 -1.3333333 355.36973 303.9844)"/><path clip-path="url(#u)" d="m0 0c2.734-12.965-10.258-30.27-1.668-40.742-1.222 13.863 12.18 26.547 11.004 39.262-1.176 12.714-12.066 14.441-9.336 1.48" transform="matrix(1.3333333 0 0 -1.3333333 317.43747 304.0156)"/><path clip-path="url(#v)" d="m0 0c-12.965-2.734-30.269 10.258-40.742 1.668 13.863 1.222 26.547-12.18 39.262-11.004s14.441 12.066 1.48 9.336" transform="matrix(1.3333333 0 0 -1.3333333 257.31707 206.10413)"/><path clip-path="url(#w)" d="m0 0c-2.734 12.965 10.258 30.269 1.668 40.742 1.223-13.863-12.18-26.547-11.004-39.262s12.066-14.441 9.336-1.48" transform="matrix(1.3333333 0 0 -1.3333333 355.2292 145.98373)"/><path clip-path="url(#x)" d="m0 0c12.965 2.733 30.27-10.258 40.742-1.668-13.863-1.222-26.547 12.18-39.262 11.004-12.714-1.176-14.441-12.066-1.48-9.336" transform="matrix(1.3333333 0 0 -1.3333333 415.34893 243.89587)"/><path clip-path="url(#y)" d="m0 0c-1.41-13.172-19.113-25.613-14.176-38.23 3.121 13.562 19.785 21.484 22.594 33.941 2.812 12.457-7.012 17.462-8.418 4.289" transform="matrix(1.3333333 0 0 -1.3333333 293.94787 294.31253)"/><path clip-path="url(#z)" d="m0 0c-13.172 1.41-25.614 19.113-38.231 14.176 13.563-3.121 21.485-19.785 33.942-22.594 12.457-2.812 17.461 7.012 4.289 8.418" transform="matrix(1.3333333 0 0 -1.3333333 267.02147 182.61453)"/><path clip-path="url(#A)" d="m0 0c1.41 13.172 19.113 25.614 14.176 38.231-3.121-13.563-19.785-21.485-22.594-33.942-2.812-12.457 7.012-17.461 8.418-4.289" transform="matrix(1.3333333 0 0 -1.3333333 378.7188 155.68813)"/><path clip-path="url(#B)" d="m0 0c13.172-1.41 25.613-19.113 38.23-14.176-13.562 3.121-21.484 19.785-33.941 22.594-12.457 2.812-17.461-7.012-4.289-8.418" transform="matrix(1.3333333 0 0 -1.3333333 405.64587 267.38547)"/><path clip-path="url(#C)" d="m0 0c-5.41-12.09-26.094-18.453-25.297-31.977 7.16 11.93 25.453 14.317 31.977 25.297 6.523 10.977-1.27 18.774-6.68 6.68" transform="matrix(1.3333333 0 0 -1.3333333 274.60413 277.82293)"/><path clip-path="url(#D)" d="m0 0c-12.09 5.41-18.453 26.094-31.977 25.297 11.93-7.16 14.317-25.453 25.297-31.977 10.977-6.523 18.774 1.27 6.68 6.68" transform="matrix(1.3333333 0 0 -1.3333333 283.5104 163.2708)"/><path clip-path="url(#E)" d="m0 0c5.41 12.09 26.094 18.453 25.297 31.977-7.16-11.93-25.453-14.317-31.977-25.297-6.523-10.977 1.27-18.774 6.68-6.68" transform="matrix(1.3333333 0 0 -1.3333333 398.06253 172.17707)"/><path clip-path="url(#F)" d="m0 0c12.09-5.41 18.453-26.094 31.977-25.297-11.93 7.16-14.317 25.453-25.297 31.977-10.977 6.523-18.774-1.27-6.68-6.68" transform="matrix(1.3333333 0 0 -1.3333333 389.15627 286.7292)"/><path clip-path="url(#G)" d="m0 0c-8.883-9.828-30.52-9.488-33.942-22.594 10.496 9.133 28.637 5.75 38.231 14.176 9.597 8.426 4.589 18.246-4.289 8.418" transform="matrix(1.3333333 0 0 -1.3333333 261.3028 256.16147)"/><path clip-path="url(#H)" d="m0 0c-9.828 8.883-9.488 30.52-22.594 33.942 9.133-10.496 5.75-28.637 14.176-38.231 8.426-9.597 18.246-4.589 8.418 4.289" transform="matrix(1.3333333 0 0 -1.3333333 305.17187 149.96947)"/><path clip-path="url(#I)" d="m0 0c8.883 9.828 30.52 9.488 33.941 22.594-10.496-9.133-28.636-5.75-38.23-14.176-9.598-8.426-4.59-18.246 4.289-8.418" transform="matrix(1.3333333 0 0 -1.3333333 411.36453 193.83853)"/><path clip-path="url(#J)" d="m0 0c9.828-8.883 9.488-30.52 22.594-33.941-9.133 10.496-5.75 28.636-14.176 38.23-8.426 9.598-18.246 4.59-8.418-4.289" transform="matrix(1.3333333 0 0 -1.3333333 367.4948 300.0312)"/><path clip-path="url(#K)" d="m0 0c-11.485-6.603-31.957.406-39.262-11.004 12.805 5.445 29.012-3.379 40.742 1.668 11.731 5.047 10.004 15.938-1.48 9.336" transform="matrix(1.3333333 0 0 -1.3333333 255.34373 231.44787)"/><path clip-path="url(#L)" d="m0 0c-6.602 11.485.406 31.957-11.004 39.262 5.445-12.805-3.379-29.012 1.668-40.742 5.047-11.731 15.938-10.004 9.336 1.48" transform="matrix(1.3333333 0 0 -1.3333333 329.88547 144.0104)"/><path clip-path="url(#M)" d="m0 0c11.484 6.602 31.957-.406 39.262 11.004-12.805-5.445-29.012 3.379-40.742-1.668-11.731-5.047-10.004-15.938 1.48-9.336" transform="matrix(1.3333333 0 0 -1.3333333 417.32293 218.55213)"/><path clip-path="url(#N)" d="m0 0c6.602-11.484-.406-31.957 11.004-39.262-5.445 12.805 3.379 29.012-1.668 40.742-5.047 11.731-15.938 10.004-9.336-1.48" transform="matrix(1.3333333 0 0 -1.3333333 342.7812 305.9896)"/></g><path clip-path="url(#O)" d="m0 0c0-33.551-27.199-60.75-60.75-60.75s-60.75 27.199-60.75 60.75 27.199 60.75 60.75 60.75 60.75-27.199 60.75-60.75" fill="#e8112d" transform="matrix(1.3333333 0 0 -1.3333333 417.33333 225)"/><path clip-path="url(#P)" d="m0 0c0-27.961-22.664-50.625-50.625-50.625s-50.625 22.664-50.625 50.625 22.664 50.625 50.625 50.625 50.625-22.664 50.625-50.625" fill="#ffef00" transform="matrix(1.3333333 0 0 -1.3333333 403.83333 220.5)"/><g fill="#e8112d"><path clip-path="url(#Q)" d="m0 0c0 43.273 35.082 78.355 78.355 78.355 43.278 0 78.356-35.082 78.356-78.355h2.164c0 42.23-34.238 76.469-76.469 76.469-42.23 0-76.469-34.239-76.469-76.469z" transform="matrix(1.3333333 0 0 -1.3333333 275.95827 279)"/><path clip-path="url(#R)" d="m0 0c0 41.594 33.718 75.312 75.312 75.312s75.316-33.718 75.316-75.312h2.477c0 40.727-33.016 73.742-73.742 73.742-40.727 0-73.742-33.015-73.742-73.742z" transform="matrix(1.3333333 0 0 -1.3333333 289.01627 279)"/><path clip-path="url(#S)" d="m0 0c-19.309 0-37.832-7.671-51.484-21.328-13.656-13.652-21.328-32.172-21.328-51.484s7.672-37.832 21.328-51.484c13.652-13.657 32.175-21.328 51.484-21.328l4.051 1.218c-39.539 0-71.594 32.055-71.594 71.594s32.055 71.594 71.594 71.594z" transform="matrix(1.3333333 0 0 -1.3333333 398.43227 181.91733)"/><path clip-path="url(#T)" d="m0 0c0 43.273-35.082 78.355-78.355 78.355-43.278 0-78.356-35.082-78.356-78.355h-2.164c0 42.23 34.239 76.469 76.469 76.469s76.469-34.239 76.469-76.469z" transform="matrix(1.3333333 0 0 -1.3333333 396.70827 279)"/><path clip-path="url(#U)" d="m0 0c0 41.594-33.719 75.312-75.313 75.312-41.593 0-75.316-33.718-75.316-75.312h-2.476c0 40.727 33.015 73.742 73.742 73.742s73.742-33.015 73.742-73.742z" transform="matrix(1.3333333 0 0 -1.3333333 383.65107 279)"/><path clip-path="url(#V)" d="m0 0c19.308 0 37.832-7.671 51.484-21.328 13.657-13.652 21.329-32.172 21.329-51.484s-7.672-37.832-21.329-51.484c-13.652-13.657-32.176-21.328-51.484-21.328l-4.051 1.218c39.539 0 71.594 32.055 71.594 71.594s-32.055 71.594-71.594 71.594z" transform="matrix(1.3333333 0 0 -1.3333333 274.2344 181.91733)"/></g></svg>