<?xml version="1.0" encoding="UTF-8" standalone="no"?>
<svg
   height="1600"
   viewBox="0 0 1600 1599.9999"
   width="1600"
   version="1.1"
   id="svg7"
   sodipodi:docname="rect copy.svg"
   inkscape:version="1.4 (e7c3feb1, 2024-10-09)"
   xmlns:inkscape="http://www.inkscape.org/namespaces/inkscape"
   xmlns:sodipodi="http://sodipodi.sourceforge.net/DTD/sodipodi-0.dtd"
   xmlns="http://www.w3.org/2000/svg"
   xmlns:svg="http://www.w3.org/2000/svg">
  <defs
     id="defs7" />
  <sodipodi:namedview
     id="namedview7"
     pagecolor="#ffffff"
     bordercolor="#000000"
     borderopacity="0.25"
     inkscape:showpageshadow="2"
     inkscape:pageopacity="0.0"
     inkscape:pagecheckerboard="0"
     inkscape:deskcolor="#d1d1d1"
     inkscape:current-layer="svg7" />
  <clipPath
     id="a">
    <path
       d="M 0,800 H 1200 V 0 H 0 Z"
       transform="translate(-425.00001,-600.00001)"
       id="path1" />
  </clipPath>
  <clipPath
     id="b">
    <path
       d="M 0,800 H 1200 V 0 H 0 Z"
       transform="translate(-475.00001,-560.00001)"
       id="path2" />
  </clipPath>
  <clipPath
     id="c">
    <path
       d="M 0,800 H 1200 V 0 H 0 Z"
       transform="translate(-583.33402,-400.00001)"
       id="path3" />
  </clipPath>
  <path
     d="M 0,1600.0001 H 1600 V 6e-5 H 0 Z"
     fill="#e30a17"
     id="path4"
     style="stroke-width:1.63299" />
  <g
     id="g7"
     transform="translate(0,266.66667)">
    <path
       clip-path="url(#a)"
       d="m 0,0 c 110.457,0 200,-89.543 200,-200 0,-110.457 -89.543,-200 -200,-200 -110.457,0 -200,89.543 -200,200 0,110.457 89.543,200 200,200"
       fill="#ffffff"
       transform="matrix(1.3333333,0,0,-1.3333333,566.66667,266.66667)"
       id="path5" />
    <path
       clip-path="url(#b)"
       d="m 0,0 c 88.366,0 160,-71.634 160,-160 0,-88.365 -71.634,-160 -160,-160 -88.366,0 -160,71.635 -160,160 0,88.366 71.634,160 160,160"
       fill="#e30a17"
       transform="matrix(1.3333333,0,0,-1.3333333,633.33333,320)"
       id="path6" />
    <path
       clip-path="url(#c)"
       d="M 0,0 180.901,-58.779 69.097,95.106 V -95.106 L 180.901,58.779 Z"
       fill="#ffffff"
       transform="matrix(1.3333333,0,0,-1.3333333,777.77867,533.33333)"
       id="path7" />
  </g>
</svg>
