<svg height="1600" viewBox="0 0 1600 1599.9999" width="1600" xmlns="http://www.w3.org/2000/svg" xmlns:xlink="http://www.w3.org/1999/xlink"><clipPath id="a"><path d="m0 800h1200v-800h-1200z" transform="translate(-425.00001 -600.00001)"/></clipPath><clipPath id="b"><path d="m0 800h1200v-800h-1200z" transform="translate(-475.00001 -560.00001)"/></clipPath><clipPath id="c"><path d="m0 800h1200v-800h-1200z" transform="translate(-583.33402 -400.00001)"/></clipPath><path d="m0 1600.0001h1600v-1600.00004h-1600z" fill="#e30a17" stroke-width="1.63299"/><path clip-path="url(#a)" d="m0 0c110.457 0 200-89.543 200-200s-89.543-200-200-200-200 89.543-200 200 89.543 200 200 200" fill="#fff" transform="matrix(1.74999995625 0 0 -1.74999995625 649.999991375 450.00000875)"/><path clip-path="url(#b)" d="m0 0c88.366 0 160-71.634 160-160 0-88.365-71.634-160-160-160s-160 71.635-160 160c0 88.366 71.634 160 160 160" fill="#e30a17" transform="matrix(1.74999995625 0 0 -1.74999995625 737.499982625 520.000004375)"/><path clip-path="url(#c)" d="m0 0 180.901-58.779-111.804 153.885v-190.212l111.804 153.885z" fill="#fff" transform="matrix(1.74999995625 0 0 -1.74999995625 927.084491375 800)"/></svg>