<svg height="533.33331" viewBox="0 0 800 533.33331" width="800" xmlns="http://www.w3.org/2000/svg"><g transform="matrix(1.3333333 0 0 -1.3333333 0 533.33333)"><path d="m0 0h600v400h-600z" fill="#002395"/><path d="m0 236h244v164h-244z" fill="#fff"/><path d="m0 240h80v159.999h-80z" fill="#002395"/><path d="m160 240h80v159.999h-80z" fill="#ed2939"/></g><g fill="#fff"><path d="m474 129.5h-40v-14h40zm-76 0h-40v-14h40zm-43 87.5 12.875-20.5h36.625v-71.5l-27.5 43-37-59h18l19 34 39-70 39 70 19-34h18l-37 59-27.5-43v39.5h16.5l12.25 19.5h-28.75v12.5h36.625l12.875 20.5z" transform="matrix(1.3333333 0 0 -1.3333333 0 533.33333)"/><path d="m0 0 12.344 8.968h-15.258l-4.715 14.511-4.715-14.511h-15.258l12.344-8.968-4.715-14.511 12.344 8.968 12.344-8.968z" transform="matrix(1.3333333 0 0 -1.3333333 564.83853 485.97133)"/><path d="m0 0 12.344 8.968h-15.258l-4.715 14.511-4.715-14.511h-15.258l12.344-8.968-4.715-14.511 12.344 8.968 12.344-8.968z" transform="matrix(1.3333333 0 0 -1.3333333 504.83853 440.638)"/><path d="m0 0 12.344-37.989-32.317 23.478h39.946l-32.317-23.478z" transform="matrix(1.3333333 0 0 -1.3333333 614.66667 409.33333)"/><path d="m0 0 12.344 8.968h-15.258l-4.715 14.511-4.715-14.511h-15.258l12.344-8.968-4.715-14.511 12.344 8.968 12.344-8.968z" transform="matrix(1.3333333 0 0 -1.3333333 454.17187 305.97133)"/><path d="m0 0 12.344 8.968h-15.258l-4.715 14.511-4.715-14.511h-15.258l12.344-8.968-4.715-14.511 12.344 8.968 12.344-8.968z" transform="matrix(1.3333333 0 0 -1.3333333 675.5052 305.97133)"/></g></svg>