<svg height="800" viewBox="0 0 1198 800" width="1198" xmlns="http://www.w3.org/2000/svg" xmlns:xlink="http://www.w3.org/1999/xlink"><clipPath id="a"><path d="m0 0h898.5v599h-898.5z" transform="translate(-451.00001 -500.00002)"/></clipPath><clipPath id="b"><path d="m0 0h898.5v599h-898.5z" transform="translate(-451.00001 -460.62211)"/></clipPath><clipPath id="c"><path d="m0 0h898.5v599h-898.5z" transform="translate(-520.74412 -277.33891)"/></clipPath><g transform="matrix(1.3333333 0 0 -1.3333333 0 800)"><path d="m0 0h898.5v599h-898.5z" fill="#da121a"/><path d="m0 200h898.5v399.001h-898.5z" fill="#fcdd09"/><path d="m0 400h898.5v199.001h-898.5z" fill="#078930"/></g><path clip-path="url(#a)" d="m0 0c110.457 0 200-89.543 200-200s-89.543-200-200-200-200 89.543-200 200 89.543 200 200 200" fill="#0f47af" transform="matrix(1.3333333 0 0 -1.3333333 601.33333 133.33333)"/><path clip-path="url(#b)" d="m0 0 35.923-110.558h85.056l-18.352-13.333h-123.605l4.333 13.333h38.548l-28.913 88.984zm152.169-110.558-94.045-68.328 26.283-80.893-18.351 13.334-38.197 117.554h14.02l11.912-36.661 75.694 54.994zm-58.123-178.884-94.046 68.328-68.812-49.995 7.01 21.573 99.998 72.653 4.332-13.333-31.186-22.658 75.694-54.995zm-188.091 0 35.922 110.556-68.812 49.995h22.684l99.998-72.653-11.342-8.24-31.186 22.658-28.913-88.983zm-58.124 178.884h116.247l26.284 80.894 7.01-21.574-38.196-117.555-11.343 8.241 11.913 36.661h-93.563z" fill="#fcdd09" transform="matrix(1.3333333 0 0 -1.3333333 601.33333 185.8372)"/><path clip-path="url(#c)" d="m0 0 82.425-26.781zm-26.64 81.989 50.942 70.115m-137.15-70.115-50.942 70.115m24.302-152.104-82.425-26.781m152.169-23.891v-86.667" stroke="#fcdd09" stroke-width="6.667" transform="matrix(1.3333333 0 0 -1.3333333 694.32547 430.2148)"/></svg>