<svg height="666.66669" viewBox="0 0 1000 666.66669" width="1000" xmlns="http://www.w3.org/2000/svg"><g transform="matrix(1.3333333 0 0 -1.3333333 0 666.66667)"><path d="m0 0h750v500h-750z" fill="#006a4e"/><path d="m0 300h750v100h-750z" fill="#ffce00"/><path d="m0 100h750v100h-750z" fill="#ffce00"/><path d="m0 200h300v300.001h-300z" fill="#d21034"/></g><g fill="#fff"><path d="m0 0-29.356-90.351 47.552-15.45" transform="matrix(1.3333333 0 0 -1.3333333 200 73.333333)"/><path d="m0 0 29.356-90.351-47.552-15.45" transform="matrix(1.3333333 0 0 -1.3333333 200 73.333333)"/><path d="m0 0h-95v-50" transform="matrix(1.3333333 0 0 -1.3333333 320.46747 160.85813)"/><path d="m0 0-76.857-55.839-29.389 40.45" transform="matrix(1.3333333 0 0 -1.3333333 320.46747 160.85813)"/><path d="m0 0-29.356 90.35-47.553-15.451" transform="matrix(1.3333333 0 0 -1.3333333 274.45253 302.4752)"/><path d="m0 0-76.856 55.839 29.389 40.451" transform="matrix(1.3333333 0 0 -1.3333333 274.45253 302.4752)"/><path d="m0 0 76.856 55.839-29.389 40.451" transform="matrix(1.3333333 0 0 -1.3333333 125.54747 302.4752)"/><path d="m0 0 29.356 90.35 47.553-15.451" transform="matrix(1.3333333 0 0 -1.3333333 125.54747 302.4752)"/><g transform="matrix(1.3333333 0 0 -1.3333333 79.532533 160.85813)"><path d="m0 0 76.857-55.839 29.389 40.45"/><path d="m0 0h95v-50"/></g></g></svg>