<?xml version="1.0" encoding="UTF-8" standalone="no"?>
<!-- Created with Inkscape (http://www.inkscape.org/) -->

<svg
   width="96"
   height="96"
   viewBox="0 0 96 96"
   version="1.1"
   id="svg5"
   inkscape:version="1.2.2 (732a01da63, 2022-12-09)"
   sodipodi:docname="af.svg"
   xml:space="preserve"
   inkscape:export-filename="af.png"
   inkscape:export-xdpi="768"
   inkscape:export-ydpi="768"
   xmlns:inkscape="http://www.inkscape.org/namespaces/inkscape"
   xmlns:sodipodi="http://sodipodi.sourceforge.net/DTD/sodipodi-0.dtd"
   xmlns="http://www.w3.org/2000/svg"
   xmlns:svg="http://www.w3.org/2000/svg"><sodipodi:namedview
     id="namedview7"
     pagecolor="#505050"
     bordercolor="#eeeeee"
     borderopacity="1"
     inkscape:showpageshadow="0"
     inkscape:pageopacity="0"
     inkscape:pagecheckerboard="0"
     inkscape:deskcolor="#505050"
     inkscape:document-units="px"
     showgrid="false"
     inkscape:zoom="5.6568545"
     inkscape:cx="31.643027"
     inkscape:cy="53.563336"
     inkscape:window-width="1920"
     inkscape:window-height="1017"
     inkscape:window-x="4472"
     inkscape:window-y="-8"
     inkscape:window-maximized="1"
     inkscape:current-layer="layer1"><inkscape:grid
       type="xygrid"
       id="grid2501"
       empspacing="8" /></sodipodi:namedview><defs
     id="defs2"><clipPath
       id="f"><path
         d="m0 0h12v6H0z"
         id="path45613" /></clipPath></defs><g
     inkscape:label="af"
     id="layer1"><path
       id="rect130495"
       style="fill:#cc1122;stroke-width:6;stroke-linecap:square;fill-opacity:1"
       d="M 0,0 H 96 V 96 H 0 Z"
       sodipodi:nodetypes="ccccc" /><path
       style="fill:#008855;fill-opacity:1;stroke-width:6;stroke-linecap:square"
       d="M 96,0 H 64 v 96 h 32 z"
       id="path132754" /><path
       style="fill:#111111;fill-opacity:1;stroke-width:6;stroke-linecap:square"
       d="M 32,0 H 0 v 96 h 32 z"
       id="path132810" /><g
       transform="matrix(0.24,0,0,0.24,-60.373327,-24.639997)"
       id="svg_4"
       class=""
       style="display:none"><path
         d="m 405.72446,342.92389 v 7.56454 h 8.39274 v -7.56454 z m 17.39573,0 v 7.56454 h 7.48105 v -7.56454 z m 16.45096,0 v 7.56454 h 7.47737 v -7.56454 h -7.47921 z m 16.48036,0 v 7.56454 h 7.48105 v -7.56454 z m 16.48404,0 v 7.56454 h 7.47921 v -7.56454 h -7.48105 z m 16.44912,0 v 7.56454 h 8.42583 v -7.56454 z m -74.36015,7.86347 v 4.864 h 7.51413 v -4.864 z m 16.72115,0 v 4.864 h 7.47921 v -4.864 h -7.48105 z m 16.4822,0 v 4.864 h 7.48105 v -4.864 z m 16.44912,0 v 4.864 h 7.48105 v -4.864 z m 16.71932,0 v 4.864 h 7.48104 v -4.864 z m -58.0103,5.66453 v 4.864 h 7.47921 v -4.864 h -7.48104 z m 16.5833,0 v 4.864 h 7.48105 v -4.864 z m 16.4822,0 v 4.864 h 7.48105 v -4.864 z m 16.58514,0 v 4.864 h 7.48105 v -4.864 z"
         fill="#ffffff"
         id="svg_5" /><path
         d="m 529.52202,246.93208 c 3.05676,0 5.51613,2.4206 5.51613,5.4302 0,2.32053 -1.47783,4.31047 -3.55304,5.09833 l -2.77552,8.19534 c 12.01195,6.2358 21.28882,16.91 21.28882,30.3544 0,6.76907 -2.54393,12.21447 -4.90772,16.32734 -2.6248,3.6404 -6.13005,6.68293 -8.66478,11.0618 -2.60274,4.49667 -2.30313,10.05353 -7.24209,13.1936 -2.57334,-1.15393 -5.61906,-4.17747 -5.61906,-8.8958 0,-6.16234 3.79199,-12.78447 3.79199,-17.86 0,-4.4042 -3.12109,-12.75027 -7.98836,-16.72507 l -14.79116,43.48087 -5.55105,-5.1642 25.31793,-77.13368 a 10.984458,7.569601 0 0 1 -0.37313,-1.93293 c 0,-3.0096 2.49429,-5.4302 5.55104,-5.4302 z m -155.93298,0 c -3.05676,0 -5.51613,2.4206 -5.51613,5.4302 0,2.32053 1.47783,4.31047 3.55304,5.09833 l 2.77552,8.19534 c -12.01195,6.2358 -21.28882,16.91 -21.28882,30.3544 0,6.76907 2.54393,12.21447 4.90772,16.32734 2.6248,3.6404 6.13005,6.68293 8.66478,11.0618 2.60274,4.49667 2.30313,10.05353 7.2421,13.1936 2.57333,-1.15393 5.61905,-4.17747 5.61905,-8.8958 0,-6.16234 -3.79015,-12.78447 -3.79015,-17.86 0,-4.4042 3.11925,-12.75027 7.98653,-16.72507 l 14.79115,43.48087 5.55105,-5.1642 -25.31793,-77.13368 c 0.2316,-0.6004 0.37314,-1.254 0.37314,-1.93293 0,-3.0096 -2.4943,-5.4302 -5.55105,-5.4302 z"
         fill="#ffffff"
         id="svg_6" /><path
         d="m 420.58362,285.08155 c -4.54009,0 -8.19239,3.5948 -8.19239,8.0636 v 6.9312 h -4.19637 v 7.163 h 9.61324 v -2.299 h 27.54937 v 2.299 h 49.58263 v -7.163 h -4.19637 v -6.9312 c 0,-4.4688 -3.68355,-8.0636 -8.22364,-8.0636 h -61.93831 z m 2.09543,5.43147 c 2.36379,0 4.30114,1.90633 4.30114,4.23066 0,2.3256 -1.93735,4.199 -4.30114,4.199 -2.36011,0 -4.26438,-1.8734 -4.26438,-4.19773 0,-2.3256 1.90427,-4.23067 4.26438,-4.23067 z m 9.98637,0 c 2.36196,0 4.26439,1.90633 4.26439,4.23066 0,2.3256 -1.90243,4.199 -4.26439,4.199 -2.36195,0 -4.2993,-1.8734 -4.2993,-4.19773 0,-2.3256 1.93735,-4.23067 4.2993,-4.23067 z m 9.94961,0 c 2.36196,0 4.29931,1.90633 4.29931,4.23066 0,2.3256 -1.93735,4.199 -4.29931,4.199 -2.36195,0 -4.26438,-1.8734 -4.26438,-4.19773 0,-2.3256 1.90243,-4.23067 4.26438,-4.23067 z m 17.76887,0 c 2.36196,0 4.29931,1.90633 4.29931,4.23066 0,2.3256 -1.93735,4.199 -4.29931,4.199 -2.36195,0 -4.26438,-1.8734 -4.26438,-4.19773 0,-2.3256 1.90243,-4.23067 4.26438,-4.23067 z m 9.98454,0 c 2.36195,0 4.26438,1.90633 4.26438,4.23066 0,2.3256 -1.90243,4.199 -4.26438,4.199 -2.36196,0 -4.29747,-1.8734 -4.29747,-4.19773 0,-2.3256 1.93551,-4.23067 4.29747,-4.23067 z m 9.95145,0 c 2.36195,0 4.29746,1.90633 4.29746,4.23066 0,2.3256 -1.93551,4.199 -4.29746,4.199 -2.36196,0 -4.26439,-1.8734 -4.26439,-4.19773 0,-2.3256 1.90243,-4.23067 4.26439,-4.23067 z"
         fill="#ffffff"
         id="svg_7" /><g
         fill="#ffffff"
         stroke="#be0000"
         stroke-width="0.762"
         stroke-linecap="square"
         stroke-linejoin="round"
         stroke-dashoffset="3.2"
         id="svg_8"><rect
           ry="0"
           rx="0"
           y="585.47742"
           x="-324.22473"
           height="103.388"
           width="12.053"
           transform="matrix(1.083061,0,0,1.0662168,747.5916,-378.13486)"
           stroke-width="0"
           id="svg_9" /><rect
           width="12.053"
           height="103.388"
           x="-234.49773"
           y="585.47742"
           rx="0"
           ry="0"
           transform="matrix(1.083061,0,0,1.0662168,747.5916,-378.13486)"
           stroke-width="0"
           id="svg_10" /></g><path
         d="m 454.32554,311.70435 c -1.07896,0 -1.93,0.8702 -1.93,1.93294 v 29.2866 h 3.6909 v -21.1242 h 1.21865 v 21.1242 h 2.87662 v -19.89174 l 20.30728,19.89174 h 4.26438 l -21.56086,-21.1242 h 2.43732 l 21.52593,21.1242 h 5.21284 v -5.36433 h -4.16328 v -4.19774 h -4.19638 v -4.1648 h -4.16328 v -4.1648 h -4.19637 v -4.199 h -4.19821 v -4.1648 h -4.29747 v -3.03113 c 0,-1.064 -0.88229,-1.93294 -1.96309,-1.93294 h -10.86314 z m -28.22763,60.70754 c -1.49989,0.11527 -2.65789,1.77841 -1.62304,3.13247 8.04167,10.52347 25.32344,18.3388 36.44943,15.59267 0.53305,1.40093 1.18741,2.91587 2.20204,4.332 1.68554,2.35347 4.56951,4.2978 8.69787,4.2978 5.93153,0 9.97534,-6.17373 8.22364,-12.3614 -0.23895,-0.85753 -1.06058,-1.43007 -1.96309,-1.36547 -5.69809,0.4142 -10.27128,0.40787 -16.212,0 -12.60566,-0.8664 -23.81253,-6.97426 -34.14997,-13.19487 -0.56062,-0.3382 -1.12308,-0.4712 -1.62304,-0.4332 z m 50.3969,17.42554 c 0.31983,3.53147 -1.79214,6.1978 -4.6706,6.1978 -3.06227,0 -4.44452,-1.0602 -5.61906,-2.698 -0.69664,-0.9728 -1.20395,-2.1964 -1.69105,-3.4656 4.06771,0.17607 7.91484,0.19253 11.98071,-0.0342 z"
         fill="#ffffff"
         id="svg_11" /><path
         d="m 478.43951,372.41189 c 1.50173,0.11527 2.65973,1.77841 1.62488,3.13247 -8.04167,10.52347 -25.32344,18.3388 -36.44943,15.59267 -0.53305,1.40093 -1.18741,2.91587 -2.20204,4.332 -1.68553,2.35347 -4.56951,4.2978 -8.69787,4.2978 -5.93337,0 -9.97534,-6.17373 -8.22364,-12.3614 0.23896,-0.85753 1.06058,-1.43007 1.96309,-1.36547 5.6981,0.4142 10.27128,0.40787 16.212,0 12.60566,-0.8664 23.81253,-6.97426 34.14998,-13.19487 0.56062,-0.3382 1.12307,-0.4712 1.62303,-0.4332 z m -50.39322,17.42681 c -0.31983,3.53146 1.79214,6.1978 4.6706,6.1978 3.06227,0 4.44452,-1.0602 5.61906,-2.698 0.69664,-0.9728 1.20395,-2.1964 1.69105,-3.4656 -4.06771,0.17606 -7.91484,0.19253 -11.98071,-0.0342 z"
         fill="#ffffff"
         id="svg_12" /><path
         d="m 402.96299,219.34257 c -2.76506,0 -8.56268,9.71004 -8.56268,14.36087 0,4.64978 3.83945,8.39646 8.56268,8.39646 4.72431,0 8.56268,-3.74668 8.56268,-8.39646 0,-4.65083 -5.72398,-14.36194 -8.56268,-14.36194 z m -7.00524,23.98988 c -0.60327,0 -1.08306,0.47233 -1.08306,1.06621 v 4.49731 c 0,0.59388 0.47979,1.06621 1.08306,1.06621 h 14.01156 c 0.60218,0 1.08306,-0.47233 1.08306,-1.06621 v -4.49731 c 0,-0.59388 -0.48088,-1.06621 -1.08306,-1.06621 h -14.01264 z m 1.11555,28.68763 c -0.92385,0 -1.69174,0.75701 -1.69174,1.66649 v 1.1995 c 0,0.90948 0.76897,1.63131 1.69282,1.63131 h 11.81187 c 0.92385,0 1.65816,-0.72183 1.65816,-1.63131 v -1.1995 c 0,-0.91055 -0.73431,-1.66649 -1.65816,-1.66649 h -11.81187 z m 0.339,27.92208 c -0.92385,0 -1.65817,0.7229 -1.65817,1.63131 v 3.29995 c 0,0.90948 0.73432,1.63131 1.65817,1.63131 h 11.10137 c 0.92386,0 1.65817,-0.72183 1.65817,-1.63131 v -3.29888 c 0,-0.90948 -0.73431,-1.63344 -1.65708,-1.63344 h -11.10138 z"
         fill="#ffffff"
         stroke="#be0000"
         stroke-width="0.762"
         stroke-linecap="square"
         stroke-linejoin="round"
         stroke-dashoffset="3.2"
         id="svg_13" /><path
         d="m 392.3854,356.77489 -7.58214,11.7116 h 133.32073 l -7.5803,-11.7116 -14.99335,4.04194 h -87.79662 l -15.37016,-4.04067 z"
         fill="#ffffff"
         id="svg_14" /><path
         d="m 396.04114,348.72158 c -2.8896,4.16464 -4.16653,8.32929 -5.14454,12.49393 h 24.13277 c -1.06573,-4.26167 -3.16146,-8.42311 -6.16045,-12.49393 z M 500.14388,219.34257 c -2.76614,0 -8.56376,9.71004 -8.56376,14.36087 0,4.64978 3.83945,8.39646 8.56376,8.39646 4.72323,0 8.56268,-3.74668 8.56268,-8.39646 0,-4.65083 -5.72506,-14.36194 -8.56268,-14.36194 z m -7.00632,23.98988 c -0.60326,0 -1.08306,0.47233 -1.08306,1.06621 v 4.49731 c 0,0.59388 0.4798,1.06621 1.08306,1.06621 h 14.01156 c 0.60327,0 1.08306,-0.47233 1.08306,-1.06621 v -4.49731 c 0,-0.59388 -0.47979,-1.06621 -1.08306,-1.06621 z m 1.11664,28.68763 c -0.92385,0 -1.69174,0.75701 -1.69174,1.66649 v 1.1995 c 0,0.90948 0.76789,1.63131 1.69174,1.63131 h 11.81186 c 0.92493,0 1.65925,-0.72183 1.65925,-1.63131 v -1.1995 c 0,-0.91055 -0.73432,-1.66649 -1.65925,-1.66649 z m 0.33791,27.92208 c -0.92385,0 -1.65708,0.7229 -1.65708,1.63131 v 3.29995 c 0,0.90948 0.73323,1.63131 1.65708,1.63131 h 11.10138 c 0.92493,0 1.65925,-0.72183 1.65925,-1.63131 v -3.29888 c 0,-0.90948 -0.73432,-1.63344 -1.65817,-1.63344 h -11.10138 z m -1.37007,48.77942 c -2.89069,4.16464 -4.16654,8.32929 -5.14454,12.49393 h 24.13168 c -1.06465,-4.26167 -3.16037,-8.42311 -6.15937,-12.49393 z m -41.66861,-103.0232 c -0.81229,1.86908 -3.4777,4.67003 -7.00632,7.19697 -3.47987,2.49068 -7.8067,4.70521 -10.39088,5.39719 -11.98407,3.20931 -20.17201,9.63433 -20.17201,17.02641 0,4.36723 2.87336,8.40286 7.68323,11.62816 h 59.77197 c 4.80987,-3.2253 7.68215,-7.26093 7.68215,-11.62816 0,-7.39208 -8.18686,-13.81604 -20.17201,-17.02641 -2.5831,-0.69198 -6.90993,-2.90651 -10.3898,-5.39826 -3.52862,-2.52693 -6.19511,-5.32682 -7.00741,-7.19696 z"
         fill="#ffffff"
         stroke="#be0000"
         stroke-width="0.762"
         stroke-linecap="square"
         stroke-linejoin="round"
         stroke-dashoffset="3.2"
         id="svg_15" /><path
         d="m 416.16225,301.08515 h 70.78237"
         fill="#ffdd55"
         stroke="#be0000"
         stroke-width="0.762"
         stroke-linecap="round"
         stroke-linejoin="round"
         stroke-dashoffset="3.2"
         id="svg_16" /><path
         d="m 417.8081,304.94035 v 37.98354 h 4.9408 v -20.05767 c 0,-4.864 3.93169,-8.79573 8.83389,-8.79573 4.90036,0 8.83204,3.93046 8.83204,8.79573 v 20.05767 h 4.94264 v -37.98354 h -27.55121 z m 3.72214,1.69987 h 5.00881 v 6.4296 h -5.00881 z m 7.54722,0 h 5.00881 v 6.4296 h -5.00881 z m 7.54722,0 h 5.00881 v 6.4296 h -5.00881 z"
         fill="#ffffff"
         id="svg_17" /><path
         d="m 417.80417,307.23828 v -2.29876 h 27.55091 v 2.29876"
         fill="none"
         stroke="#be0000"
         stroke-width="0.762"
         stroke-linecap="round"
         stroke-linejoin="round"
         stroke-dashoffset="3.2"
         id="svg_18" /><path
         d="m 451.55553,144.33333 -5.88926,5.79753 2.77553,48.44621 c 1.0422,-0.0304 2.06418,-0.0671 3.11373,-0.0671 1.04955,0 2.07153,0.038 3.11373,0.0671 l 2.77553,-48.44621 z m -11.23628,11.0618 -9.61324,9.462 6.02528,34.71934 a 75.775484,52.21834 0 0 1 6.09145,-0.66627 z m 22.47256,0 -2.50349,43.51507 c 2.08992,0.16847 4.17248,0.38 6.22747,0.66627 l 5.95543,-34.6522 z m -37.02476,14.3944 -7.92035,7.72921 7.10791,24.25667 c 1.99434,-0.50667 4.05484,-0.87147 6.09329,-1.26667 z m 51.58064,0 -5.34886,30.72048 c 2.04028,0.39266 4.09895,0.76 6.09328,1.26666 L 485.20003,177.52 Z m -64.03557,12.26134 -6.7017,6.5968 7.10792,16.79347 c 1.93,-0.7296 3.83978,-1.44653 5.82124,-2.06593 z m 76.4905,0 -6.22747,21.32434 a 85.973238,59.245808 0 0 1 5.88926,2.06466 l 7.03991,-16.7922 z m -151.96638,8.664 v 8.19533 l 36.7564,32.32028 a 139.60519,96.204613 0 0 1 4.4004,-4.332 L 346.16281,190.7136 h -8.32657 z m 15.84071,0 29.51246,32.51914 a 122.75904,84.595611 0 0 1 4.87463,-3.8 L 367.3487,190.7136 h -13.67175 z m 20.64549,0 18.34419,25.45494 a 110.21588,75.951877 0 0 1 5.27901,-3.26547 L 385.4907,190.7136 h -11.16826 z m 17.59976,0 10.96608,19.5244 a 96.996296,66.842009 0 0 1 5.61722,-2.66633 l -7.10792,-16.85934 h -9.47538 z m 109.79496,0 -7.10792,16.85934 a 96.998134,66.843276 0 0 1 5.61722,2.66506 l 10.96608,-19.52567 h -9.47538 z m 15.97304,0 -12.45309,22.18947 c 1.78295,1.0374 3.5659,2.13053 5.27901,3.26547 l 18.34419,-25.45621 h -11.16827 z m 18.00599,0 -20.64549,28.65327 c 1.67267,1.2388 3.27916,2.53333 4.87463,3.86587 l 29.51246,-32.52041 h -13.7416 z m 21.25573,0 -32.82838,36.18361 a 139.60335,96.203346 0 0 1 4.39856,4.332 l 36.7564,-32.32028 v -8.19533 z m 8.32658,15.72567 -32.96625,28.98767 a 155.43486,107.11315 0 0 1 3.86,4.79813 l 29.10625,-20.32493 z m -227.44226,0.0671 v 13.39374 l 29.10808,20.32493 a 155.68485,107.28541 0 0 1 3.79015,-4.731 z m 0,20.19067 v 10.99467 l 22.5424,12.19547 c 1.04588,-1.74674 2.10279,-3.51754 3.24792,-5.19714 l -25.78848,-17.993 z m 227.44226,0 -25.79032,17.993 a 173.49415,119.55815 0 0 1 3.31592,5.26427 l 22.4744,-12.26133 v -10.99467 z m -227.44593,17.32674 v 9.26187 l 17.12553,6.99706 a 186.40126,128.45268 0 0 1 2.64134,-5.4644 z m 227.44225,0 -19.76688,10.72867 c 0.9503,1.79866 1.79582,3.67206 2.64134,5.53026 l 17.12554,-6.99706 z m -229.60753,14.39313 -6.7017,6.59807 21.72813,6.19653 a 194.0845,133.74735 0 0 1 2.09911,-5.79753 z m 231.77281,0 -17.12554,6.99707 c 0.74811,1.919 1.46496,3.82533 2.09911,5.79753 l 21.72812,-6.19653 z m -243.0771,11.12894 -7.85234,7.73047 31.27336,5.26426 c 0.39886,-2.0064 0.772,-4.03433 1.28666,-5.99766 z m 254.38138,0 -24.70768,6.99707 c 0.51467,1.96333 0.8878,3.99 1.28667,5.99766 l 31.27336,-5.26426 z m -267.17452,12.59447 -9.68125,9.52913 44.27053,2.39907 c 0.1691,-2.03554 0.38967,-4.0622 0.67642,-6.06354 z m 279.96767,0 -35.2657,5.86466 c 0.28858,2.02287 0.50731,4.07234 0.67642,6.13067 l 44.27053,-2.4662 z m 14.96209,14.72753 -49.21316,2.7322 c 0.0312,1.026 0.068,2.03174 0.068,3.06534 0,1.0336 -0.0368,2.03933 -0.068,3.06533 l 49.21133,2.7322 5.89109,-5.79753 z m -309.95803,0.0671 -5.81941,5.73041 5.95543,5.86466 49.14516,-2.7322 c -0.0312,-1.0488 -0.068,-2.07733 -0.068,-3.13246 0,-1.0108 0.0386,-1.995 0.068,-2.9982 l -49.27934,-2.73221 z m 49.61755,14.32601 -44.20252,2.4662 9.67941,9.52913 35.19953,-5.86467 a 214.89909,148.09109 0 0 1 -0.67642,-6.13066 z m 210.78911,0.0671 a 214.79616,148.02015 0 0 1 -0.67642,6.0648 l 35.19953,5.86467 9.67941,-9.5304 z m -209.16423,11.5292 -31.27336,5.19714 7.92035,7.79633 24.70584,-6.9958 a 208.21945,143.48802 0 0 1 -1.35283,-5.99767 z m 207.53935,0 c -0.4007,2.01147 -0.83633,4.028 -1.35284,5.99767 l 24.70584,6.9958 7.92219,-7.79633 z m -204.62965,11.3278 -21.66012,6.1978 6.7017,6.5968 17.05753,-6.99706 c -0.74995,-1.919 -1.46313,-3.82534 -2.09911,-5.79754 z m 201.71995,0 a 194.23522,133.85122 0 0 1 -2.09911,5.79754 l 17.12554,6.9312 6.63552,-6.53094 z m -197.45557,10.9288 -17.12553,6.99707 v 9.26314 l 19.83305,-10.72867 c -0.95581,-1.8088 -1.85648,-3.66194 -2.70752,-5.53154 z m 193.19118,0 a 184.99879,127.48622 0 0 1 -2.70751,5.46441 l 19.83305,10.7958 v -9.26314 z m -187.84232,10.32967 -22.47439,12.26134 v 10.99467 l 25.862,-18.05887 c -1.16535,-1.71 -2.32152,-3.41747 -3.38393,-5.19714 z m 182.42546,0.0659 a 170.6304,117.58468 0 0 1 -3.31593,5.1984 l 25.85833,17.99174 v -10.99467 z m -175.79177,9.6634 -29.10808,20.32494 v 13.46087 l 32.96624,-28.98768 a 155.5764,107.21068 0 0 1 -3.86,-4.79813 z m 169.22609,0 a 154.46435,106.44435 0 0 1 -3.85816,4.731 l 32.96624,28.98767 V 385.4991 Z m -161.57778,8.99587 -36.75639,32.319 v 8.13074 h 8.39458 l 32.76221,-36.11774 a 139.69525,96.26668 0 0 1 -4.4004,-4.332 z m 153.86146,0 a 139.57761,96.185613 0 0 1 -4.3324,4.26487 l 32.76222,36.18487 h 8.39458 v -8.13074 z m -145.26469,7.99647 -29.44629,32.452 h 13.67543 l 20.64549,-28.5874 a 124.35083,85.692545 0 0 1 -4.87463,-3.8646 z m 136.73592,0 a 123.22592,84.917345 0 0 1 -4.87463,3.79873 l 20.64549,28.65454 h 13.67543 z m -127.32671,7.0642 -18.27618,25.38907 h 11.16827 l 12.45493,-22.19201 c -1.79765,-1.04373 -3.62104,-2.052 -5.34702,-3.19706 z m 117.84949,0 c -1.71126,1.1324 -3.49789,2.1622 -5.27901,3.19833 l 12.45494,22.19074 h 11.16826 z m -107.55983,5.93053 -10.96608,19.45854 h 9.47539 l 7.10791,-16.79347 a 96.919096,66.788809 0 0 1 -5.61722,-2.66507 z m 97.33818,0 a 96.922772,66.791342 0 0 1 -5.61722,2.66507 l 7.10792,16.79347 h 9.47538 z m -86.57429,4.79814 -7.03991,16.7922 6.69986,6.59806 6.22747,-21.32433 a 85.90339,59.197675 0 0 1 -5.88926,-2.06593 z m 75.74424,0 c -1.93,0.7296 -3.83979,1.44526 -5.82125,2.06466 l 6.22746,21.3256 6.7017,-6.59806 z m -64.37378,3.66446 -7.10792,24.25667 7.85235,7.73047 5.34885,-30.72047 c -2.04028,-0.39393 -4.09895,-0.76 -6.09328,-1.26667 z m 53.00148,0 c -1.95206,0.49527 -3.9611,0.88034 -5.95543,1.26667 l 5.27901,30.72047 7.92035,-7.79633 -7.10791,-24.19081 c -0.0423,0.0114 -0.0919,-0.0101 -0.13602,0 z m -41.427,2.19894 -5.95543,34.58633 9.67942,9.52914 2.50348,-43.44921 a 75.656008,52.136007 0 0 1 -6.22747,-0.66626 z m 29.7845,0 c -2.01087,0.27866 -4.04565,0.5016 -6.09145,0.66626 l 2.50349,43.44921 9.61324,-9.462 z m -17.93797,1.00066 -2.77553,48.37908 5.8911,5.79753 5.88926,-5.79753 -2.77553,-48.37908 c -1.0422,0.0291 -2.06418,0.0659 -3.11373,0.0659 -1.04771,0 -2.07153,-0.0367 -3.11373,-0.0659 z m 1.76089,-204.09549 a 9.4974391,6.5448675 0 0 0 -1.37121,0.0317 c -3.32696,2.45353 -3.78648,10.35373 -3.0347,15.67753 -2.35276,-0.133 -4.77353,-0.38507 -7.08218,-0.38507 -2.92441,0 -6.01976,3.14134 -6.13556,5.97614 -0.15624,3.895 3.40047,8.6336 3.98131,12.36773 0.15624,0.99687 0.20954,2.27494 0.2941,3.5986 1.29953,-1.615 2.8564,-3.31486 4.53641,-4.62586 0.88964,-0.69414 2.19653,-0.96394 3.62105,-1.31734 1.4282,-0.35466 2.92993,-0.69033 3.81957,-1.0602 0.39335,-0.1634 1.40614,-0.86893 2.57884,-1.8316 1.17087,-0.96266 2.56415,-2.19133 3.98132,-3.50106 a 358.34406,246.94177 0 0 0 7.43877,-7.19721 0.8032477,0.55353341 0 0 1 0.49077,-0.25713 c 0.35843,-0.0469 0.72421,0.12667 0.88229,0.45093 a 1.617524,1.1146668 0 0 1 -0.19668,0.96267 358.27237,246.89237 0 0 1 -7.47369,7.22887 117.05727,80.666411 0 0 1 -4.04749,3.56567 c -1.21314,0.99686 -2.17079,1.7442 -3.00161,2.08873 -1.1433,0.47373 -2.67811,0.8094 -4.08057,1.15647 -1.39879,0.34706 -2.702,0.78786 -2.96853,0.9956 -2.0072,1.56686 -3.96293,3.85446 -5.35253,5.75066 0.29777,2.11914 0.91905,3.97607 2.51451,4.49794 2.53106,0.82966 8.96256,-3.98367 12.92181,-3.98367 4.25336,0 9.52134,3.91527 10.96608,2.28 2.42813,-2.7512 -0.193,-11.62547 0.48894,-16.80107 0.2224,-1.6986 1.59362,-2.71826 2.08807,-5.33267 0.88596,-4.68033 -5.73486,-6.4904 -7.89646,-6.4904 -1.27563,0 -3.2957,0.61054 -5.38562,1.15647 -0.89515,-4.6398 0.4485,-8.759 3.55672,-11.43673 -0.99993,-2.33827 -3.08984,-3.51627 -6.13373,-3.56567 z m -7.01784,18.3768 c 3.25342,0 5.90763,2.6106 5.90763,5.814 0,3.20467 -2.65237,5.81527 -5.90763,5.81527 -3.25343,0 -5.9058,-2.61187 -5.9058,-5.814 0,-3.20467 2.65237,-5.81527 5.9058,-5.81527 z"
         fill="#ffffff"
         id="svg_19" /></g><g
       id="g327640"
       transform="matrix(3.5555556,0,0,3.5555556,-16,-15.996444)"
       style="display:inline"><path
         fill="#ffffff"
         d="m 22.048,23.783 c -0.032,0.08 -0.141,0.151 -0.227,0.117 -0.086,-0.034 -0.116,-0.161 -0.084,-0.241 0.032,-0.08 0.277,-0.319 0.303,-0.309 0.026,0.01 0.04,0.353 0.008,0.433 z m 0.061,0.075 c -0.085,0.014 -0.179,0.104 -0.164,0.196 0.015,0.091 0.131,0.149 0.217,0.135 0.085,-0.014 0.372,-0.201 0.368,-0.228 -0.005,-0.027 -0.336,-0.116 -0.421,-0.103 z m 0.352,-0.401 c -0.03,0.074 -0.131,0.14 -0.21,0.109 -0.079,-0.031 -0.108,-0.149 -0.078,-0.224 0.03,-0.075 0.257,-0.296 0.281,-0.287 0.024,0.009 0.036,0.328 0.007,0.402 z m 0.056,0.07 c -0.079,0.013 -0.166,0.097 -0.152,0.182 0.014,0.085 0.122,0.138 0.201,0.125 0.079,-0.013 0.345,-0.186 0.341,-0.212 -0.004,-0.026 -0.311,-0.107 -0.39,-0.095 z m -1.831,0.538 c -0.019,0.102 -0.13,0.212 -0.24,0.192 -0.109,-0.02 -0.175,-0.162 -0.157,-0.264 0.019,-0.102 0.251,-0.442 0.284,-0.436 0.033,0.006 0.131,0.406 0.113,0.508 z m 0.089,0.074 c -0.097,0.036 -0.186,0.166 -0.147,0.27 0.039,0.104 0.19,0.144 0.288,0.108 0.097,-0.036 0.391,-0.325 0.379,-0.357 -0.012,-0.031 -0.423,-0.057 -0.52,-0.021 z m 0.265,-0.483 c -0.015,0.085 -0.108,0.176 -0.199,0.16 -0.091,-0.016 -0.146,-0.135 -0.13,-0.22 0.015,-0.085 0.209,-0.368 0.236,-0.363 0.027,0.005 0.109,0.338 0.093,0.423 z m 0.074,0.062 c -0.081,0.03 -0.154,0.138 -0.122,0.224 0.032,0.086 0.158,0.12 0.239,0.09 0.081,-0.03 0.325,-0.271 0.315,-0.297 -0.009,-0.025 -0.351,-0.047 -0.432,-0.017 z m 0.266,-0.462 c -0.014,0.079 -0.1,0.163 -0.185,0.148 -0.084,-0.015 -0.135,-0.125 -0.121,-0.204 0.014,-0.079 0.194,-0.341 0.219,-0.337 0.025,0.005 0.101,0.314 0.087,0.393 z m 0.069,0.057 c -0.075,0.028 -0.143,0.128 -0.113,0.208 0.03,0.08 0.147,0.111 0.222,0.083 0.075,-0.028 0.301,-0.251 0.293,-0.275 -0.008,-0.024 -0.327,-0.044 -0.402,-0.016 z m 0.225,-0.402 c -0.013,0.071 -0.091,0.148 -0.167,0.134 -0.076,-0.014 -0.122,-0.113 -0.109,-0.184 0.013,-0.071 0.175,-0.309 0.198,-0.304 0.022,0.003 0.091,0.283 0.078,0.354 z m 0.062,0.052 c -0.068,0.025 -0.13,0.115 -0.102,0.188 0.027,0.073 0.133,0.1 0.201,0.075 0.068,-0.025 0.273,-0.227 0.265,-0.249 -0.008,-0.022 -0.296,-0.039 -0.364,-0.014 z m -0.097,1.755 c -0.076,0.07 -0.231,0.091 -0.307,0.009 -0.076,-0.082 -0.043,-0.235 0.033,-0.305 0.076,-0.07 0.467,-0.202 0.489,-0.178 0.022,0.024 -0.139,0.404 -0.215,0.474 z m 0.026,0.113 c -0.1,-0.029 -0.248,0.021 -0.279,0.127 -0.032,0.107 0.066,0.229 0.165,0.259 0.1,0.029 0.508,-0.025 0.517,-0.057 0.01,-0.031 -0.303,-0.299 -0.403,-0.329 z m 0.503,-0.226 c -0.063,0.059 -0.192,0.076 -0.255,0.008 -0.063,-0.068 -0.036,-0.195 0.028,-0.254 0.063,-0.059 0.388,-0.168 0.407,-0.148 0.018,0.02 -0.117,0.335 -0.18,0.394 z m 0.022,0.094 c -0.083,-0.025 -0.206,0.017 -0.232,0.106 -0.026,0.089 0.054,0.191 0.137,0.215 0.083,0.025 0.422,-0.021 0.43,-0.047 0.008,-0.027 -0.253,-0.25 -0.335,-0.274 z m 0.49,-0.21 c -0.059,0.054 -0.178,0.07 -0.237,0.007 -0.058,-0.063 -0.033,-0.181 0.026,-0.235 0.059,-0.054 0.36,-0.156 0.377,-0.137 0.018,0.018 -0.107,0.31 -0.166,0.365 z m 0.021,0.087 c -0.077,-0.023 -0.191,0.016 -0.216,0.098 -0.024,0.082 0.051,0.177 0.127,0.2 0.077,0.023 0.392,-0.019 0.399,-0.044 0.007,-0.025 -0.234,-0.231 -0.31,-0.254 z m 0.421,-0.186 c -0.053,0.049 -0.161,0.064 -0.214,0.007 -0.053,-0.057 -0.03,-0.164 0.023,-0.213 0.053,-0.049 0.326,-0.141 0.341,-0.124 0.016,0.017 -0.097,0.281 -0.15,0.33 z m 0.019,0.079 c -0.069,-0.021 -0.173,0.014 -0.195,0.089 -0.022,0.074 0.046,0.16 0.115,0.181 0.069,0.021 0.354,-0.017 0.361,-0.04 0.006,-0.022 -0.212,-0.209 -0.281,-0.23 z m 0.343,-2.771 c 0.013,0.103 -0.061,0.241 -0.172,0.254 -0.11,0.013 -0.215,-0.103 -0.228,-0.206 -0.013,-0.103 0.109,-0.497 0.142,-0.501 0.033,-0.004 0.245,0.35 0.258,0.453 z m 0.107,0.044 c -0.082,0.063 -0.128,0.213 -0.06,0.301 0.068,0.088 0.224,0.081 0.307,0.018 0.082,-0.063 0.277,-0.427 0.257,-0.453 -0.022,-0.026 -0.422,0.071 -0.504,0.134 z m 0.11,-0.54 c 0.01,0.086 -0.051,0.2 -0.143,0.212 -0.092,0.011 -0.179,-0.085 -0.19,-0.171 -0.01,-0.086 0.091,-0.413 0.118,-0.417 0.028,-0.003 0.205,0.29 0.215,0.376 z m 0.089,0.037 c -0.068,0.053 -0.107,0.177 -0.05,0.25 0.057,0.073 0.187,0.067 0.255,0.015 0.068,-0.053 0.23,-0.355 0.213,-0.377 -0.016,-0.021 -0.349,0.06 -0.418,0.112 z m 0.117,-0.52 c 0.01,0.079 -0.047,0.186 -0.133,0.196 -0.086,0.01 -0.166,-0.079 -0.176,-0.159 -0.01,-0.079 0.084,-0.383 0.109,-0.386 0.026,-0.003 0.19,0.269 0.2,0.349 z m 0.083,0.034 c -0.063,0.049 -0.099,0.164 -0.046,0.232 0.053,0.068 0.173,0.063 0.236,0.014 0.063,-0.049 0.214,-0.329 0.198,-0.349 -0.016,-0.02 -0.325,0.054 -0.388,0.103 z m 0.095,-0.45 c 0.009,0.072 -0.043,0.168 -0.12,0.178 -0.077,0.009 -0.15,-0.072 -0.159,-0.144 -0.009,-0.072 0.076,-0.347 0.099,-0.349 0.023,-0.004 0.172,0.243 0.18,0.315 z m 0.075,0.031 c -0.057,0.044 -0.089,0.149 -0.042,0.21 0.047,0.061 0.157,0.057 0.214,0.012 0.057,-0.044 0.193,-0.298 0.179,-0.316 -0.014,-0.018 -0.293,0.049 -0.351,0.094 z m 0.428,1.705 c -0.052,0.09 -0.194,0.156 -0.29,0.1 -0.096,-0.056 -0.11,-0.212 -0.059,-0.301 0.052,-0.09 0.386,-0.332 0.414,-0.315 0.028,0.017 -0.013,0.426 -0.065,0.516 z m 0.058,0.1 c -0.104,0.001 -0.231,0.093 -0.229,0.204 0.002,0.111 0.131,0.2 0.234,0.198 0.104,-0.001 0.478,-0.174 0.477,-0.208 0.001,-0.032 -0.378,-0.195 -0.482,-0.194 z m 0.413,-0.365 c -0.043,0.075 -0.161,0.129 -0.241,0.083 -0.08,-0.046 -0.092,-0.176 -0.049,-0.251 0.043,-0.075 0.321,-0.276 0.345,-0.262 0.024,0.014 -0.011,0.355 -0.055,0.43 z m 0.049,0.083 c -0.086,0.001 -0.192,0.078 -0.191,0.17 10e-4,0.092 0.109,0.166 0.195,0.165 0.086,-0.001 0.397,-0.145 0.397,-0.173 0,-0.027 -0.315,-0.163 -0.401,-0.162 z m 0.406,-0.346 c -0.04,0.069 -0.15,0.12 -0.224,0.077 -0.074,-0.043 -0.085,-0.163 -0.045,-0.232 0.04,-0.069 0.297,-0.256 0.32,-0.243 0.023,0.013 -0.011,0.329 -0.051,0.398 z m 0.046,0.077 c -0.08,10e-4 -0.178,0.072 -0.177,0.158 0.001,0.086 0.101,0.154 0.181,0.153 0.08,-0.001 0.368,-0.135 0.368,-0.16 0,-0.025 -0.292,-0.152 -0.372,-0.151 z m 0.347,-0.302 c -0.036,0.063 -0.135,0.109 -0.203,0.07 -0.067,-0.039 -0.077,-0.148 -0.041,-0.21 0.036,-0.062 0.269,-0.231 0.289,-0.22 0.021,0.011 -0.009,0.297 -0.045,0.36 z m 0.041,0.07 c -0.072,10e-4 -0.161,0.065 -0.16,0.143 0.001,0.078 0.091,0.139 0.164,0.138 0.073,-0.001 0.333,-0.122 0.333,-0.145 0,-0.023 -0.264,-0.137 -0.337,-0.136 z m -1.051,-0.555 c -0.002,0.104 -0.096,0.23 -0.207,0.227 -0.111,-0.003 -0.198,-0.133 -0.196,-0.236 0.002,-0.103 0.179,-0.476 0.212,-0.475 0.034,0 0.194,0.38 0.191,0.484 z m 0.1,0.06 c -0.09,0.051 -0.158,0.192 -0.103,0.289 0.055,0.097 0.21,0.113 0.301,0.062 0.091,-0.051 0.335,-0.382 0.319,-0.411 -0.016,-0.029 -0.427,0.009 -0.517,0.06 z m 0.187,-0.519 c -0.002,0.086 -0.079,0.191 -0.172,0.189 -0.093,-0.002 -0.165,-0.11 -0.163,-0.197 0.002,-0.086 0.149,-0.396 0.177,-0.395 0.027,0.001 0.16,0.317 0.158,0.403 z m 0.082,0.05 c -0.075,0.042 -0.131,0.16 -0.086,0.241 0.045,0.081 0.175,0.094 0.25,0.051 0.075,-0.042 0.279,-0.318 0.265,-0.342 -0.012,-0.025 -0.353,0.007 -0.429,0.05 z m 0.191,-0.499 c -0.002,0.08 -0.074,0.177 -0.159,0.175 -0.086,-0.002 -0.153,-0.102 -0.151,-0.182 0.002,-0.08 0.138,-0.367 0.164,-0.367 0.025,0.001 0.148,0.294 0.146,0.374 z m 0.077,0.046 c -0.07,0.039 -0.122,0.148 -0.079,0.223 0.043,0.075 0.162,0.087 0.232,0.047 0.07,-0.04 0.259,-0.295 0.246,-0.317 -0.013,-0.022 -0.33,0.008 -0.399,0.047 z m -0.845,-1.708 c 0.041,0.096 0.007,0.249 -0.095,0.292 -0.102,0.043 -0.235,-0.039 -0.276,-0.135 -0.041,-0.096 -0.033,-0.508 -0.002,-0.521 0.031,-0.012 0.333,0.269 0.373,0.364 z m 0.115,0.014 c -0.061,0.084 -0.064,0.24 0.025,0.306 0.09,0.066 0.238,0.016 0.299,-0.068 0.061,-0.084 0.148,-0.486 0.122,-0.506 -0.026,-0.02 -0.384,0.184 -0.446,0.268 z m -0.043,-0.55 c 0.034,0.079 0.006,0.207 -0.079,0.243 -0.085,0.036 -0.196,-0.033 -0.229,-0.112 -0.033,-0.079 -0.027,-0.422 -0.002,-0.433 0.026,-0.011 0.277,0.223 0.31,0.302 z m 0.096,0.011 c -0.051,0.07 -0.054,0.2 0.021,0.255 0.075,0.055 0.198,0.013 0.249,-0.056 0.051,-0.07 0.123,-0.405 0.101,-0.421 -0.022,-0.016 -0.32,0.153 -0.371,0.222 z m -0.031,-0.532 c 0.031,0.074 0.006,0.192 -0.073,0.225 -0.079,0.033 -0.182,-0.03 -0.213,-0.104 -0.031,-0.074 -0.025,-0.391 -10e-4,-0.401 0.023,-0.01 0.256,0.206 0.287,0.28 z m 0.089,0.01 c -0.047,0.065 -0.05,0.185 0.019,0.236 0.069,0.051 0.184,0.012 0.231,-0.052 0.047,-0.065 0.114,-0.375 0.094,-0.39 -0.021,-0.016 -0.297,0.142 -0.344,0.206 z m -0.033,-0.46 c 0.028,0.067 0.005,0.173 -0.066,0.204 -0.071,0.03 -0.164,-0.027 -0.193,-0.094 -0.028,-0.067 -0.023,-0.354 -0.001,-0.363 0.022,-0.009 0.232,0.187 0.26,0.253 z m 0.081,0.01 c -0.043,0.058 -0.045,0.168 0.018,0.214 0.063,0.046 0.166,0.011 0.209,-0.047 0.043,-0.058 0.104,-0.339 0.085,-0.353 -0.019,-0.015 -0.269,0.127 -0.312,0.186 z m 0.881,1.521 c -0.025,0.101 -0.144,0.203 -0.251,0.176 -0.107,-0.027 -0.165,-0.173 -0.139,-0.274 0.025,-0.101 0.279,-0.425 0.311,-0.417 0.032,0.008 0.104,0.414 0.079,0.515 z m 0.084,0.08 c -0.099,0.03 -0.196,0.153 -0.164,0.26 0.032,0.107 0.181,0.156 0.28,0.126 0.099,-0.03 0.411,-0.3 0.401,-0.331 -0.008,-0.033 -0.417,-0.085 -0.517,-0.055 z m 0.297,-0.465 c -0.021,0.084 -0.119,0.169 -0.209,0.147 -0.09,-0.022 -0.137,-0.144 -0.116,-0.228 0.021,-0.084 0.232,-0.354 0.259,-0.347 0.026,0.007 0.086,0.344 0.066,0.428 z m 0.069,0.066 c -0.083,0.025 -0.163,0.127 -0.136,0.216 0.027,0.089 0.15,0.13 0.233,0.105 0.083,-0.025 0.342,-0.249 0.334,-0.276 -0.008,-0.026 -0.348,-0.069 -0.431,-0.045 z m 0.295,-0.444 c -0.019,0.078 -0.111,0.157 -0.194,0.136 -0.083,-0.021 -0.127,-0.133 -0.108,-0.211 0.019,-0.078 0.215,-0.328 0.24,-0.322 0.025,0.006 0.082,0.319 0.062,0.397 z m 0.065,0.062 c -0.077,0.023 -0.151,0.118 -0.126,0.2 0.025,0.082 0.139,0.12 0.216,0.097 0.077,-0.023 0.317,-0.231 0.31,-0.256 -0.008,-0.024 -0.323,-0.065 -0.4,-0.041 z m 0.251,-0.387 c -0.018,0.07 -0.1,0.142 -0.175,0.123 -0.075,-0.019 -0.115,-0.121 -0.097,-0.191 0.018,-0.07 0.195,-0.297 0.217,-0.291 0.022,0.005 0.072,0.289 0.055,0.359 z m 0.059,0.056 c -0.069,0.021 -0.137,0.107 -0.114,0.181 0.022,0.074 0.126,0.109 0.195,0.088 0.069,-0.021 0.287,-0.209 0.28,-0.231 -0.007,-0.023 -0.292,-0.059 -0.361,-0.038 z M 25.8,16.98 c 0.026,0.1 -0.028,0.247 -0.136,0.275 -0.108,0.028 -0.227,-0.073 -0.254,-0.173 -0.026,-0.1 0.041,-0.507 0.073,-0.515 0.032,-0.008 0.291,0.312 0.317,0.413 z m 0.112,0.029 c -0.073,0.074 -0.098,0.228 -0.019,0.306 0.079,0.078 0.233,0.05 0.306,-0.024 0.073,-0.074 0.217,-0.46 0.193,-0.483 -0.023,-0.023 -0.407,0.128 -0.48,0.201 z m 0.037,-0.55 c 0.022,0.084 -0.024,0.205 -0.113,0.229 -0.089,0.023 -0.189,-0.06 -0.211,-0.144 -0.022,-0.084 0.034,-0.422 0.061,-0.429 0.026,-0.006 0.241,0.261 0.263,0.344 z m 0.093,0.025 c -0.061,0.062 -0.082,0.19 -0.016,0.255 0.066,0.065 0.194,0.042 0.255,-0.02 0.061,-0.062 0.18,-0.383 0.161,-0.402 -0.019,-0.019 -0.339,0.106 -0.4,0.167 z m 0.046,-0.531 c 0.02,0.077 -0.022,0.191 -0.105,0.212 -0.083,0.022 -0.175,-0.056 -0.196,-0.134 -0.02,-0.077 0.032,-0.391 0.056,-0.398 0.025,-0.006 0.224,0.242 0.245,0.32 z m 0.086,0.023 c -0.056,0.057 -0.076,0.176 -0.015,0.236 0.061,0.06 0.18,0.039 0.236,-0.018 0.056,-0.057 0.167,-0.355 0.149,-0.373 -0.018,-0.018 -0.314,0.098 -0.37,0.155 z m -1.336,-1.141 c 0.09,0.035 0.169,0.157 0.131,0.253 -0.038,0.096 -0.179,0.13 -0.268,0.095 -0.09,-0.035 -0.357,-0.308 -0.345,-0.337 0.011,-0.029 0.392,-0.046 0.482,-0.011 z m 0.084,-0.068 c 0.015,0.095 0.117,0.199 0.219,0.182 0.102,-0.017 0.165,-0.147 0.15,-0.242 -0.015,-0.095 -0.225,-0.414 -0.256,-0.409 -0.031,0.005 -0.129,0.374 -0.113,0.469 z M 24.53,14.439 c 0.074,0.029 0.141,0.13 0.109,0.21 -0.031,0.08 -0.149,0.108 -0.223,0.079 -0.074,-0.029 -0.297,-0.256 -0.287,-0.28 0.009,-0.024 0.327,-0.039 0.401,-0.009 z m 0.07,-0.056 c 0.013,0.079 0.097,0.165 0.182,0.151 0.085,-0.014 0.137,-0.122 0.125,-0.201 -0.012,-0.079 -0.187,-0.344 -0.213,-0.34 -0.026,0.004 -0.107,0.311 -0.094,0.39 z m -0.373,-0.326 c 0.069,0.027 0.131,0.121 0.101,0.195 -0.03,0.074 -0.138,0.1 -0.207,0.073 -0.069,-0.027 -0.275,-0.238 -0.266,-0.26 0.009,-0.022 0.303,-0.035 0.372,-0.008 z m 0.065,-0.052 c 0.012,0.073 0.09,0.153 0.169,0.14 0.079,-0.013 0.127,-0.113 0.116,-0.187 -0.012,-0.073 -0.174,-0.319 -0.197,-0.316 -0.025,0.005 -0.1,0.29 -0.088,0.363 z m -0.325,-0.277 c 0.062,0.025 0.118,0.109 0.092,0.176 -0.026,0.067 -0.125,0.091 -0.187,0.066 -0.062,-0.025 -0.249,-0.215 -0.241,-0.235 0.008,-0.02 0.273,-0.032 0.336,-0.007 z m 0.058,-0.047 c 0.011,0.066 0.082,0.139 0.153,0.127 0.071,-0.012 0.115,-0.103 0.105,-0.169 -0.011,-0.066 -0.157,-0.289 -0.178,-0.286 -0.022,0.004 -0.09,0.262 -0.08,0.328 z m 1.579,0.405 c 0.05,0.082 0.041,0.227 -0.047,0.281 -0.088,0.054 -0.221,-0.004 -0.271,-0.086 -0.05,-0.082 -0.1,-0.461 -0.073,-0.477 0.027,-0.016 0.34,0.2 0.391,0.282 z m 0.107,-0.003 c -0.045,0.085 -0.026,0.229 0.065,0.277 0.091,0.048 0.22,-0.018 0.265,-0.103 0.045,-0.085 0.069,-0.466 0.042,-0.481 -0.027,-0.015 -0.327,0.221 -0.372,0.307 z m -0.115,-0.498 c 0.042,0.068 0.034,0.189 -0.039,0.234 -0.073,0.045 -0.184,-0.003 -0.226,-0.071 -0.042,-0.068 -0.083,-0.383 -0.061,-0.397 0.022,-0.014 0.284,0.165 0.326,0.234 z m 0.09,-0.003 c -0.037,0.071 -0.022,0.191 0.054,0.23 0.076,0.04 0.183,-0.015 0.221,-0.086 0.037,-0.071 0.057,-0.388 0.035,-0.4 -0.023,-0.012 -0.273,0.185 -0.31,0.256 z m -0.103,-0.484 c 0.039,0.063 0.032,0.175 -0.036,0.217 -0.068,0.042 -0.171,-0.003 -0.209,-0.066 -0.039,-0.063 -0.077,-0.355 -0.057,-0.368 0.02,-0.013 0.263,0.153 0.302,0.217 z m 0.083,-0.003 c -0.035,0.066 -0.02,0.177 0.05,0.214 0.07,0.037 0.17,-0.014 0.205,-0.08 0.035,-0.066 0.053,-0.36 0.032,-0.371 -0.021,-0.011 -0.252,0.171 -0.287,0.237 z m -0.093,-0.417 c 0.035,0.057 0.029,0.158 -0.033,0.196 -0.061,0.038 -0.154,-0.002 -0.189,-0.06 -0.035,-0.057 -0.07,-0.322 -0.051,-0.333 0.018,-0.011 0.238,0.14 0.273,0.197 z m 0.075,-0.002 c -0.031,0.059 -0.018,0.16 0.046,0.193 0.064,0.033 0.154,-0.013 0.185,-0.072 0.031,-0.059 0.048,-0.325 0.029,-0.335 -0.019,-0.01 -0.228,0.154 -0.26,0.214 z m -0.916,0.611 c 0.084,0.048 0.145,0.179 0.094,0.269 -0.051,0.089 -0.196,0.103 -0.279,0.055 -0.084,-0.048 -0.309,-0.356 -0.293,-0.383 0.014,-0.027 0.394,0.011 0.478,0.059 z m 0.092,-0.055 c 0.002,0.096 0.087,0.213 0.19,0.212 0.103,-0.002 0.185,-0.122 0.183,-0.218 -0.002,-0.096 -0.163,-0.442 -0.194,-0.442 -0.03,10e-4 -0.18,0.352 -0.179,0.448 z m -0.34,-0.381 c 0.069,0.04 0.121,0.149 0.078,0.224 -0.042,0.074 -0.162,0.085 -0.232,0.045 -0.069,-0.04 -0.257,-0.296 -0.244,-0.319 0.013,-0.022 0.329,0.01 0.398,0.05 z m 0.077,-0.046 c 0.001,0.08 0.072,0.178 0.158,0.176 0.086,-10e-4 0.154,-0.101 0.152,-0.181 -10e-4,-0.08 -0.136,-0.368 -0.161,-0.367 -0.025,0 -0.15,0.292 -0.149,0.372 z M 24.239,12.43 c 0.064,0.037 0.112,0.138 0.072,0.207 -0.04,0.069 -0.151,0.08 -0.215,0.043 -0.064,-0.037 -0.238,-0.275 -0.226,-0.296 0.012,-0.021 0.305,0.009 0.369,0.046 z m 0.072,-0.043 c 0.001,0.074 0.067,0.165 0.147,0.163 0.08,-0.001 0.142,-0.094 0.141,-0.168 -0.001,-0.074 -0.126,-0.341 -0.15,-0.341 -0.024,0 -0.139,0.272 -0.138,0.346 z"
         id="path324883" /><path
         fill="#ffffff"
         d="m 25.46,23.116 c 0,0 -0.716,-0.008 -1.328,-0.421 -0.612,-0.413 -1.865,-1.173 -2.868,-0.188 0,0 0.7,-0.118 1.226,0.319 0.526,0.438 1.341,0.951 2.027,0.894 0.686,-0.056 0.943,-0.604 0.943,-0.604 z"
         id="path324885"
         style="display:inline" /><path
         fill="#ff5b57"
         d="m 13.013,12.188 -0.884,-0.884 c 1.581,-1.581 3.682,-2.451 5.917,-2.451 2.235,0 4.336,0.871 5.917,2.451 l -0.885,0.884 c -1.344,-1.344 -3.131,-2.085 -5.032,-2.085 -1.901,0 -3.689,0.741 -5.033,2.085 z"
         id="path324887"
         style="display:inline;fill:#ffffff;fill-opacity:1" /><path
         fill="#ffffff"
         d="m 14.579,21.801 -0.008,-0.632 h 6.789 l 0.027,0.646 z"
         id="path324889" /><g
         fill="#ffffff"
         id="g324895"><path
           d="m 21.387,15.549 -0.57,-0.071 v -1.335 c 0,-0.03 -0.01,-0.057 -0.017,-0.085 h 0.027 c 0.087,0 0.159,-0.071 0.159,-0.159 0,-0.087 -0.071,-0.159 -0.159,-0.159 H 20.12 c -0.087,0 -0.159,0.071 -0.159,0.159 0,0.087 0.071,0.159 0.159,0.159 h 0.027 c -0.007,0.028 -0.017,0.055 -0.017,0.085 v 1.25 l -0.261,-0.032 -0.518,-0.557 c 0.103,-0.155 0.167,-0.328 0.167,-0.515 0,-0.62 -0.641,-1.122 -1.433,-1.122 -0.792,0 -1.433,0.502 -1.433,1.122 0,0.185 0.063,0.358 0.164,0.512 l -0.521,0.561 -0.262,0.032 v -1.25 c 0,-0.03 -0.01,-0.057 -0.017,-0.085 h 0.027 c 0.087,0 0.159,-0.071 0.159,-0.159 0,-0.087 -0.071,-0.159 -0.159,-0.159 h -0.706 c -0.087,0 -0.159,0.071 -0.159,0.159 0,0.087 0.071,0.159 0.159,0.159 h 0.027 c -0.007,0.028 -0.017,0.055 -0.017,0.085 v 1.335 l -0.569,0.07 0.472,0.707 h 0.074 v 0.978 h 0.731 v -0.978 h 4.053 v 0.978 h 0.731 v -0.978 h 0.076 z"
           id="path324891" /><path
           d="m 20.473,13.624 c 0.27,0 0.488,-0.116 0.488,-0.259 0,-0.078 -0.069,-0.146 -0.173,-0.194 l -0.316,-0.453 -0.315,0.453 c -0.104,0.047 -0.173,0.115 -0.173,0.194 10e-4,0.143 0.22,0.259 0.489,0.259 z m -2.447,-0.593 c 0.28,0 0.507,-0.14 0.507,-0.312 0,-0.092 -0.067,-0.172 -0.169,-0.229 l -0.338,-0.486 -0.338,0.486 c -0.102,0.057 -0.169,0.138 -0.169,0.229 0,0.172 0.227,0.312 0.507,0.312 z m -2.337,0.593 c 0.27,0 0.488,-0.116 0.488,-0.259 0,-0.078 -0.069,-0.146 -0.173,-0.194 l -0.315,-0.453 -0.315,0.453 c -0.104,0.047 -0.173,0.115 -0.173,0.194 0,0.143 0.218,0.259 0.488,0.259 z"
           id="path324893" /></g><g
         fill="#ffffff"
         id="g324901"><path
           d="m 21.32,20.864 -0.481,-0.52 v -0.911 h -0.731 v 0.874 h -0.294 l -1.884,-2.61 -1.438,-0.077 -0.073,2.225 1.889,0.019 0.888,0.443 v 0.557 z"
           id="path324897" /><path
           d="m 16.054,19.433 h -0.73 v 0.954 l -0.442,0.477 h 2.123 v -0.557 h -0.951 z m -1.971,-3.595 -0.224,0.196 c 0,0 -0.969,0.706 -0.647,1.388 -0.18,0.251 -0.588,0.753 -0.275,1.263 0.314,0.51 0.612,0.965 0.416,1.443 0.588,-0.306 0.855,-0.871 0.674,-1.506 -0.151,-0.533 0.597,-0.941 0.844,-1.06 l 0.452,0.682 v 0.628 h 0.731 v -1.078 h -0.633 z m 8.867,1.585 c 0.322,-0.682 -0.647,-1.388 -0.647,-1.388 l -0.224,-0.196 -1.338,1.956 h -0.633 v 1.078 h 0.731 v -0.628 l 0.452,-0.682 c 0.246,0.118 0.995,0.526 0.844,1.06 -0.18,0.635 0.086,1.2 0.674,1.506 -0.196,-0.478 0.102,-0.933 0.416,-1.443 0.313,-0.51 -0.095,-1.012 -0.275,-1.263 z"
           id="path324899" /></g><path
         fill="#ffffff"
         d="m 21.672,26.085 c 0,0.192 -0.156,0.348 -0.348,0.348 -0.192,0 -1.289,-0.156 -1.289,-0.348 0,-0.192 1.097,-0.348 1.289,-0.348 0.193,0 0.348,0.156 0.348,0.348 z"
         id="path324903" /><path
         fill="#ffffff"
         d="m 22.922,26.111 c 0.98,-0.183 1.019,-0.713 1.019,-0.713 0,0 -0.533,0.339 -1.16,0.214 -0.627,-0.125 -1.193,-0.105 -1.193,-0.105 0,0 0.597,0.662 0.095,0.991 -0.222,0.146 -0.837,0.084 -1.105,0.025 -0.268,-0.059 -0.845,-0.166 -0.971,-0.166 -0.192,0 -0.348,0.156 -0.348,0.348 0,0.192 0.156,0.348 0.348,0.348 0.128,0 0.698,-0.106 0.995,-0.174 0.297,-0.068 0.505,-0.1 0.728,-0.146 0.267,-0.055 0.824,0.016 1.522,0.071 0.698,0.055 1.208,-0.267 1.443,-0.549 -0.495,0.157 -1.146,-0.031 -1.373,-0.144 z m 4.706,-7.901 c 0.039,-0.095 -0.856,0.573 -1.467,0.498 -0.611,-0.075 -1.785,-0.242 -2.025,0.214 -0.241,0.455 -0.456,0.927 -0.456,0.927 0,0 0.407,-0.237 0.934,-0.24 0.529,-0.003 1.64,-0.054 2.077,-0.2 0.439,-0.147 0.781,-0.824 0.937,-1.199 z m -0.845,-2.954 c -0.011,-0.199 -0.407,-0.115 -0.489,-0.28 -0.081,-0.165 0.222,-0.516 0.054,-0.635 -0.167,-0.119 -1.019,0.644 -1.493,1.155 -0.474,0.512 -0.606,1.329 -0.453,1.57 0.151,0.241 0.054,0.021 0.054,0.021 0,0 0.3,-0.595 0.781,-0.838 0.481,-0.242 1.546,-0.993 1.546,-0.993 z m -12.902,8.527 c 0.032,0.08 0.141,0.151 0.227,0.117 0.086,-0.034 0.116,-0.161 0.084,-0.241 -0.032,-0.08 -0.277,-0.319 -0.303,-0.309 -0.026,0.01 -0.04,0.353 -0.008,0.433 z m -0.06,0.075 c 0.085,0.014 0.179,0.104 0.164,0.196 -0.015,0.091 -0.131,0.149 -0.217,0.135 -0.086,-0.014 -0.372,-0.201 -0.368,-0.228 0.005,-0.027 0.336,-0.116 0.421,-0.103 z m -0.352,-0.401 c 0.03,0.074 0.131,0.14 0.21,0.109 0.079,-0.031 0.108,-0.149 0.078,-0.224 -0.03,-0.075 -0.257,-0.296 -0.281,-0.287 -0.024,0.009 -0.037,0.328 -0.007,0.402 z m -0.056,0.07 c 0.079,0.013 0.166,0.097 0.152,0.182 -0.014,0.085 -0.122,0.138 -0.201,0.125 -0.079,-0.013 -0.345,-0.186 -0.341,-0.212 0.004,-0.026 0.311,-0.107 0.39,-0.095 z m 1.831,0.538 c 0.019,0.102 0.13,0.212 0.24,0.192 0.109,-0.02 0.175,-0.162 0.157,-0.264 -0.019,-0.102 -0.251,-0.442 -0.284,-0.436 -0.033,0.006 -0.132,0.406 -0.113,0.508 z m -0.089,0.074 c 0.097,0.036 0.186,0.166 0.147,0.27 -0.039,0.104 -0.19,0.144 -0.288,0.108 -0.097,-0.036 -0.391,-0.325 -0.379,-0.357 0.011,-0.031 0.423,-0.057 0.52,-0.021 z m -0.266,-0.483 c 0.015,0.085 0.108,0.176 0.199,0.16 0.091,-0.017 0.146,-0.135 0.13,-0.22 -0.015,-0.085 -0.209,-0.368 -0.236,-0.363 -0.027,0.005 -0.108,0.338 -0.093,0.423 z m -0.074,0.062 c 0.081,0.03 0.154,0.138 0.122,0.224 -0.032,0.086 -0.158,0.12 -0.239,0.09 -0.081,-0.03 -0.325,-0.271 -0.315,-0.297 0.009,-0.025 0.351,-0.047 0.432,-0.017 z m -0.266,-0.462 c 0.014,0.079 0.1,0.163 0.185,0.148 0.084,-0.015 0.135,-0.125 0.121,-0.204 -0.014,-0.079 -0.194,-0.341 -0.219,-0.337 -0.025,0.005 -0.101,0.314 -0.087,0.393 z m -0.068,0.057 c 0.075,0.028 0.143,0.128 0.113,0.208 -0.03,0.08 -0.147,0.111 -0.222,0.083 -0.075,-0.028 -0.301,-0.251 -0.293,-0.275 0.01,-0.024 0.327,-0.044 0.402,-0.016 z m -0.225,-0.402 c 0.013,0.071 0.091,0.148 0.167,0.134 0.076,-0.014 0.122,-0.113 0.109,-0.184 -0.013,-0.071 -0.175,-0.309 -0.198,-0.304 -0.023,0.003 -0.091,0.283 -0.078,0.354 z m -0.063,0.052 c 0.068,0.025 0.13,0.115 0.102,0.188 -0.027,0.073 -0.133,0.1 -0.201,0.075 -0.068,-0.025 -0.273,-0.227 -0.265,-0.249 0.01,-0.021 0.297,-0.039 0.364,-0.014 z m 0.098,1.755 c 0.076,0.07 0.231,0.091 0.307,0.009 0.076,-0.082 0.043,-0.235 -0.033,-0.305 -0.076,-0.07 -0.467,-0.202 -0.489,-0.178 -0.024,0.025 0.138,0.404 0.215,0.474 z m -0.027,0.113 c 0.1,-0.029 0.248,0.021 0.279,0.127 0.032,0.107 -0.066,0.229 -0.165,0.259 -0.1,0.029 -0.508,-0.025 -0.517,-0.057 -0.009,-0.032 0.304,-0.299 0.403,-0.329 z m -0.502,-0.226 c 0.063,0.059 0.192,0.076 0.255,0.008 0.063,-0.068 0.036,-0.195 -0.028,-0.254 -0.063,-0.059 -0.388,-0.168 -0.407,-0.148 -0.019,0.02 0.116,0.335 0.18,0.394 z m -0.022,0.094 c 0.083,-0.025 0.206,0.017 0.232,0.106 0.026,0.089 -0.054,0.191 -0.137,0.215 -0.083,0.025 -0.422,-0.021 -0.43,-0.047 -0.008,-0.027 0.252,-0.25 0.335,-0.274 z m -0.491,-0.21 c 0.059,0.054 0.178,0.07 0.237,0.007 0.058,-0.063 0.033,-0.181 -0.026,-0.235 -0.059,-0.054 -0.36,-0.156 -0.377,-0.137 -0.018,0.018 0.107,0.31 0.166,0.365 z m -0.02,0.087 c 0.077,-0.023 0.191,0.016 0.216,0.098 0.024,0.082 -0.051,0.177 -0.127,0.2 -0.077,0.023 -0.392,-0.019 -0.399,-0.044 -0.007,-0.025 0.233,-0.231 0.31,-0.254 z M 12.807,24.39 c 0.053,0.049 0.161,0.064 0.214,0.007 0.053,-0.057 0.03,-0.164 -0.023,-0.213 -0.053,-0.049 -0.326,-0.141 -0.341,-0.124 -0.016,0.017 0.097,0.281 0.15,0.33 z m -0.018,0.079 c 0.069,-0.021 0.173,0.014 0.195,0.089 0.022,0.074 -0.046,0.16 -0.115,0.181 -0.069,0.021 -0.354,-0.017 -0.361,-0.04 -0.007,-0.022 0.211,-0.209 0.281,-0.23 z m -0.343,-2.771 c -0.013,0.103 0.061,0.241 0.172,0.254 0.11,0.013 0.215,-0.103 0.228,-0.206 0.013,-0.103 -0.109,-0.497 -0.142,-0.501 -0.033,-0.004 -0.246,0.35 -0.258,0.453 z m -0.107,0.044 c 0.082,0.063 0.128,0.213 0.06,0.301 -0.068,0.088 -0.224,0.081 -0.307,0.018 -0.082,-0.063 -0.277,-0.427 -0.257,-0.453 0.021,-0.026 0.421,0.071 0.504,0.134 z m -0.111,-0.54 c -0.01,0.086 0.051,0.2 0.143,0.212 0.092,0.011 0.179,-0.085 0.19,-0.171 0.01,-0.086 -0.091,-0.413 -0.118,-0.417 -0.028,-0.003 -0.204,0.29 -0.215,0.376 z m -0.089,0.037 c 0.068,0.053 0.107,0.177 0.05,0.25 -0.057,0.073 -0.187,0.067 -0.255,0.015 -0.068,-0.053 -0.23,-0.355 -0.213,-0.377 0.017,-0.021 0.35,0.06 0.418,0.112 z m -0.117,-0.52 c -0.01,0.079 0.047,0.186 0.133,0.196 0.086,0.01 0.166,-0.079 0.176,-0.159 0.01,-0.079 -0.084,-0.383 -0.109,-0.386 -0.025,-0.003 -0.19,0.269 -0.2,0.349 z m -0.082,0.034 c 0.063,0.049 0.099,0.164 0.046,0.232 -0.052,0.068 -0.173,0.063 -0.236,0.014 -0.063,-0.049 -0.214,-0.329 -0.198,-0.349 0.016,-0.02 0.324,0.054 0.388,0.103 z m -0.096,-0.45 c -0.009,0.072 0.043,0.168 0.12,0.178 0.077,0.009 0.15,-0.072 0.159,-0.144 0.009,-0.072 -0.076,-0.347 -0.099,-0.349 -0.023,-0.004 -0.171,0.243 -0.18,0.315 z m -0.075,0.031 c 0.057,0.044 0.089,0.149 0.042,0.21 -0.047,0.061 -0.157,0.057 -0.214,0.012 -0.057,-0.044 -0.193,-0.298 -0.179,-0.316 0.014,-0.018 0.294,0.049 0.351,0.094 z m -0.427,1.705 c 0.052,0.09 0.194,0.156 0.29,0.1 0.096,-0.056 0.11,-0.212 0.059,-0.301 -0.051,-0.089 -0.386,-0.332 -0.414,-0.315 -0.028,0.017 0.013,0.426 0.065,0.516 z m -0.059,0.1 c 0.104,0.001 0.231,0.093 0.229,0.204 -0.002,0.111 -0.131,0.2 -0.234,0.198 -0.104,-0.001 -0.478,-0.174 -0.477,-0.208 0,-0.032 0.378,-0.195 0.482,-0.194 z M 10.87,21.774 c 0.043,0.075 0.161,0.129 0.241,0.083 0.08,-0.046 0.092,-0.176 0.049,-0.251 -0.043,-0.075 -0.321,-0.276 -0.345,-0.262 -0.023,0.014 0.012,0.355 0.055,0.43 z m -0.049,0.083 c 0.086,0.001 0.192,0.078 0.191,0.17 -0.001,0.093 -0.109,0.166 -0.195,0.165 -0.086,-0.001 -0.397,-0.145 -0.397,-0.173 0,-0.027 0.315,-0.163 0.401,-0.162 z m -0.406,-0.346 c 0.04,0.069 0.15,0.12 0.224,0.077 0.074,-0.043 0.085,-0.163 0.045,-0.232 -0.04,-0.069 -0.297,-0.256 -0.32,-0.243 -0.023,0.013 0.011,0.329 0.051,0.398 z m -0.045,0.077 c 0.08,10e-4 0.178,0.072 0.177,0.158 -0.001,0.086 -0.101,0.154 -0.181,0.153 -0.08,-0.001 -0.368,-0.135 -0.368,-0.16 0,-0.025 0.292,-0.152 0.372,-0.151 z m -0.348,-0.302 c 0.036,0.063 0.135,0.109 0.203,0.07 0.067,-0.039 0.077,-0.148 0.041,-0.21 -0.036,-0.062 -0.269,-0.231 -0.289,-0.22 -0.021,0.011 0.009,0.297 0.045,0.36 z m -0.041,0.07 c 0.072,10e-4 0.161,0.065 0.16,0.143 C 10.14,21.577 10.05,21.638 9.977,21.637 9.904,21.636 9.644,21.515 9.644,21.492 9.645,21.469 9.909,21.355 9.981,21.356 Z m 1.051,-0.555 c 0.002,0.104 0.096,0.23 0.207,0.227 0.111,-0.003 0.198,-0.133 0.196,-0.236 -0.002,-0.103 -0.179,-0.476 -0.212,-0.475 -0.034,0 -0.193,0.38 -0.191,0.484 z m -0.099,0.06 c 0.09,0.051 0.158,0.192 0.103,0.289 -0.055,0.097 -0.21,0.113 -0.301,0.062 -0.09,-0.051 -0.335,-0.382 -0.319,-0.411 0.016,-0.03 0.426,0.009 0.517,0.06 z m -0.187,-0.519 c 0.002,0.086 0.079,0.191 0.172,0.189 0.093,-0.002 0.165,-0.11 0.163,-0.197 -0.002,-0.086 -0.149,-0.396 -0.177,-0.395 -0.028,0.001 -0.16,0.317 -0.158,0.403 z m -0.083,0.05 c 0.075,0.042 0.131,0.16 0.086,0.241 -0.045,0.081 -0.175,0.094 -0.25,0.051 -0.075,-0.043 -0.279,-0.318 -0.265,-0.342 0.013,-0.025 0.354,0.007 0.429,0.05 z m -0.19,-0.499 c 0.002,0.08 0.074,0.177 0.159,0.175 0.086,-0.002 0.153,-0.102 0.151,-0.182 -0.002,-0.08 -0.138,-0.367 -0.164,-0.367 -0.025,0.001 -0.148,0.294 -0.146,0.374 z m -0.077,0.046 c 0.07,0.039 0.122,0.148 0.079,0.223 -0.043,0.075 -0.162,0.087 -0.232,0.047 -0.07,-0.039 -0.259,-0.295 -0.246,-0.317 0.013,-0.022 0.329,0.008 0.399,0.047 z m 0.844,-1.708 c -0.041,0.096 -0.007,0.249 0.095,0.292 0.102,0.043 0.235,-0.039 0.276,-0.135 0.041,-0.096 0.033,-0.508 0.002,-0.521 -0.031,-0.012 -0.332,0.269 -0.373,0.364 z m -0.115,0.014 c 0.061,0.084 0.064,0.24 -0.025,0.306 -0.09,0.066 -0.238,0.016 -0.3,-0.068 -0.061,-0.084 -0.148,-0.486 -0.122,-0.506 0.026,-0.02 0.386,0.184 0.447,0.268 z m 0.043,-0.55 c -0.034,0.079 -0.006,0.207 0.079,0.243 0.085,0.036 0.196,-0.033 0.229,-0.112 0.033,-0.079 0.027,-0.422 0.002,-0.433 -0.025,-0.011 -0.276,0.223 -0.31,0.302 z m -0.096,0.011 c 0.051,0.07 0.054,0.2 -0.021,0.255 -0.075,0.055 -0.198,0.013 -0.249,-0.056 -0.051,-0.07 -0.123,-0.405 -0.101,-0.421 0.022,-0.017 0.32,0.153 0.371,0.222 z m 0.032,-0.532 c -0.031,0.074 -0.006,0.192 0.073,0.225 0.079,0.033 0.182,-0.03 0.213,-0.104 0.031,-0.074 0.025,-0.391 10e-4,-0.401 -0.023,-0.01 -0.256,0.206 -0.287,0.28 z m -0.089,0.01 c 0.047,0.065 0.05,0.185 -0.019,0.236 -0.069,0.051 -0.184,0.012 -0.231,-0.052 -0.047,-0.065 -0.114,-0.375 -0.094,-0.39 0.02,-0.016 0.296,0.142 0.344,0.206 z m 0.032,-0.46 c -0.028,0.067 -0.005,0.173 0.066,0.204 0.071,0.03 0.164,-0.027 0.193,-0.094 0.028,-0.067 0.023,-0.354 0.001,-0.363 -0.021,-0.009 -0.232,0.187 -0.26,0.253 z m -0.081,0.01 c 0.043,0.058 0.045,0.168 -0.018,0.214 -0.063,0.046 -0.166,0.011 -0.209,-0.047 -0.043,-0.058 -0.104,-0.339 -0.085,-0.353 0.02,-0.015 0.27,0.127 0.312,0.186 z m -0.881,1.521 c 0.025,0.101 0.144,0.203 0.251,0.176 0.108,-0.027 0.165,-0.173 0.139,-0.274 -0.025,-0.101 -0.279,-0.425 -0.311,-0.417 -0.032,0.008 -0.104,0.414 -0.079,0.515 z m -0.084,0.08 c 0.099,0.03 0.196,0.153 0.164,0.26 -0.032,0.107 -0.181,0.156 -0.28,0.126 -0.099,-0.03 -0.411,-0.3 -0.401,-0.331 0.009,-0.033 0.418,-0.085 0.517,-0.055 z M 9.705,17.87 c 0.021,0.084 0.119,0.169 0.209,0.147 0.09,-0.022 0.137,-0.144 0.116,-0.228 C 10.009,17.705 9.798,17.435 9.771,17.442 9.744,17.449 9.684,17.786 9.705,17.87 Z m -0.07,0.066 c 0.083,0.025 0.163,0.127 0.136,0.216 -0.027,0.089 -0.15,0.13 -0.233,0.105 C 9.455,18.232 9.196,18.008 9.204,17.981 9.212,17.955 9.552,17.912 9.635,17.936 Z M 9.34,17.492 C 9.359,17.57 9.451,17.649 9.534,17.628 9.617,17.607 9.661,17.495 9.642,17.417 9.623,17.339 9.427,17.089 9.402,17.095 9.377,17.101 9.321,17.414 9.34,17.492 Z m -0.065,0.062 c 0.077,0.023 0.151,0.118 0.126,0.2 -0.025,0.082 -0.139,0.12 -0.216,0.097 -0.077,-0.023 -0.317,-0.231 -0.31,-0.256 0.008,-0.024 0.323,-0.065 0.4,-0.041 z m -0.25,-0.387 c 0.018,0.07 0.1,0.142 0.175,0.123 C 9.275,17.271 9.315,17.169 9.297,17.099 9.279,17.029 9.102,16.802 9.08,16.808 9.057,16.813 9.007,17.097 9.025,17.167 Z M 8.966,17.223 C 9.035,17.244 9.103,17.33 9.08,17.404 9.058,17.478 8.954,17.513 8.885,17.492 8.816,17.471 8.598,17.283 8.605,17.261 8.611,17.238 8.896,17.202 8.966,17.223 Z m 1.163,-0.243 c -0.026,0.1 0.028,0.247 0.136,0.275 0.108,0.028 0.227,-0.073 0.254,-0.173 0.026,-0.1 -0.041,-0.507 -0.073,-0.515 -0.032,-0.009 -0.29,0.312 -0.317,0.413 z m -0.112,0.029 c 0.073,0.074 0.098,0.228 0.019,0.306 -0.079,0.078 -0.233,0.05 -0.306,-0.024 -0.073,-0.074 -0.217,-0.46 -0.193,-0.483 0.024,-0.023 0.407,0.128 0.48,0.201 z m -0.036,-0.55 c -0.022,0.084 0.024,0.205 0.113,0.229 0.089,0.023 0.189,-0.06 0.211,-0.144 0.022,-0.084 -0.034,-0.422 -0.061,-0.429 -0.027,-0.007 -0.242,0.261 -0.263,0.344 z m -0.094,0.025 c 0.061,0.062 0.082,0.19 0.016,0.255 -0.066,0.065 -0.194,0.042 -0.255,-0.02 -0.061,-0.062 -0.18,-0.383 -0.161,-0.402 0.019,-0.019 0.34,0.106 0.4,0.167 z M 9.842,15.953 c -0.02,0.077 0.022,0.191 0.105,0.212 0.083,0.022 0.175,-0.056 0.196,-0.134 0.02,-0.077 -0.032,-0.391 -0.056,-0.398 -0.026,-0.006 -0.225,0.242 -0.245,0.32 z m -0.087,0.023 c 0.056,0.057 0.076,0.176 0.015,0.236 -0.061,0.06 -0.18,0.039 -0.236,-0.018 -0.056,-0.057 -0.167,-0.355 -0.149,-0.373 0.018,-0.018 0.314,0.098 0.37,0.155 z m 1.337,-1.141 c -0.09,0.035 -0.169,0.157 -0.131,0.253 0.038,0.096 0.179,0.13 0.268,0.095 0.089,-0.035 0.357,-0.308 0.345,-0.337 -0.011,-0.029 -0.393,-0.046 -0.482,-0.011 z m -0.084,-0.068 c -0.015,0.095 -0.117,0.199 -0.219,0.182 -0.102,-0.017 -0.165,-0.147 -0.15,-0.242 0.015,-0.095 0.225,-0.414 0.256,-0.409 0.03,0.005 0.128,0.374 0.113,0.469 z m 0.391,-0.328 c -0.074,0.029 -0.141,0.13 -0.109,0.21 0.031,0.08 0.149,0.108 0.223,0.079 0.074,-0.029 0.297,-0.256 0.287,-0.28 -0.009,-0.024 -0.326,-0.039 -0.401,-0.009 z M 11.33,14.383 c -0.013,0.079 -0.097,0.165 -0.182,0.151 -0.085,-0.014 -0.137,-0.122 -0.125,-0.201 0.013,-0.079 0.187,-0.344 0.213,-0.34 0.025,0.004 0.106,0.311 0.094,0.39 z m 0.372,-0.326 c -0.069,0.027 -0.131,0.121 -0.101,0.195 0.03,0.074 0.138,0.1 0.207,0.073 0.069,-0.027 0.275,-0.238 0.266,-0.26 -0.008,-0.022 -0.303,-0.035 -0.372,-0.008 z m -0.064,-0.052 c -0.012,0.073 -0.09,0.153 -0.169,0.14 -0.079,-0.013 -0.127,-0.113 -0.116,-0.187 0.012,-0.073 0.174,-0.319 0.197,-0.316 0.024,0.005 0.1,0.29 0.088,0.363 z m 0.325,-0.277 c -0.062,0.025 -0.118,0.109 -0.092,0.176 0.026,0.067 0.125,0.091 0.187,0.066 0.062,-0.025 0.249,-0.215 0.241,-0.235 -0.008,-0.02 -0.274,-0.032 -0.336,-0.007 z m -0.059,-0.047 c -0.011,0.066 -0.082,0.139 -0.153,0.127 -0.071,-0.012 -0.115,-0.103 -0.105,-0.169 0.01,-0.066 0.157,-0.289 0.178,-0.286 0.023,0.004 0.091,0.262 0.08,0.328 z m -1.578,0.405 c -0.05,0.082 -0.041,0.227 0.047,0.281 0.088,0.054 0.221,-0.004 0.271,-0.086 0.05,-0.082 0.1,-0.461 0.073,-0.477 -0.026,-0.016 -0.341,0.2 -0.391,0.282 z m -0.108,-0.003 c 0.045,0.085 0.026,0.229 -0.065,0.277 -0.091,0.048 -0.22,-0.018 -0.265,-0.103 -0.045,-0.085 -0.069,-0.466 -0.042,-0.481 0.027,-0.015 0.327,0.221 0.372,0.307 z m 0.115,-0.498 c -0.042,0.068 -0.034,0.189 0.039,0.234 0.073,0.045 0.184,-0.003 0.226,-0.071 0.042,-0.068 0.083,-0.383 0.061,-0.397 -0.022,-0.014 -0.284,0.165 -0.326,0.234 z m -0.089,-0.003 c 0.037,0.071 0.022,0.191 -0.054,0.23 -0.076,0.04 -0.183,-0.015 -0.221,-0.086 -0.037,-0.071 -0.057,-0.388 -0.035,-0.4 0.023,-0.012 0.273,0.185 0.31,0.256 z m 0.102,-0.484 c -0.039,0.063 -0.032,0.175 0.036,0.217 0.068,0.042 0.171,-0.003 0.209,-0.066 0.039,-0.063 0.077,-0.355 0.057,-0.368 -0.02,-0.013 -0.263,0.153 -0.302,0.217 z m -0.083,-0.003 c 0.035,0.066 0.02,0.177 -0.05,0.214 -0.07,0.037 -0.17,-0.014 -0.205,-0.08 -0.035,-0.066 -0.053,-0.36 -0.032,-0.371 0.021,-0.011 0.253,0.171 0.287,0.237 z m 0.093,-0.417 c -0.035,0.057 -0.029,0.158 0.033,0.196 0.062,0.038 0.154,-0.002 0.189,-0.06 0.035,-0.058 0.07,-0.322 0.051,-0.333 -0.018,-0.011 -0.238,0.14 -0.273,0.197 z m -0.075,-0.002 c 0.031,0.059 0.018,0.16 -0.046,0.193 -0.064,0.033 -0.154,-0.013 -0.185,-0.072 -0.031,-0.059 -0.048,-0.325 -0.029,-0.335 0.019,-0.011 0.229,0.154 0.26,0.214 z m 0.917,0.611 c -0.084,0.048 -0.145,0.179 -0.094,0.269 0.051,0.089 0.196,0.103 0.279,0.055 0.084,-0.048 0.309,-0.356 0.293,-0.383 -0.015,-0.027 -0.395,0.011 -0.478,0.059 z m -0.093,-0.055 c -0.002,0.096 -0.087,0.213 -0.19,0.212 -0.103,-0.002 -0.185,-0.122 -0.183,-0.218 0.002,-0.096 0.163,-0.442 0.194,-0.442 0.031,10e-4 0.181,0.352 0.179,0.448 z m 0.34,-0.381 c -0.069,0.04 -0.121,0.149 -0.078,0.224 0.043,0.074 0.163,0.086 0.232,0.046 0.069,-0.04 0.257,-0.296 0.244,-0.319 -0.012,-0.023 -0.329,0.009 -0.398,0.049 z m -0.077,-0.046 c -10e-4,0.08 -0.072,0.178 -0.158,0.176 -0.086,-10e-4 -0.154,-0.101 -0.152,-0.181 10e-4,-0.08 0.136,-0.368 0.161,-0.367 0.025,0 0.15,0.292 0.149,0.372 z M 11.69,12.43 c -0.064,0.037 -0.112,0.138 -0.072,0.207 0.04,0.069 0.151,0.08 0.215,0.043 0.064,-0.037 0.238,-0.275 0.226,-0.296 -0.011,-0.021 -0.305,0.009 -0.369,0.046 z m -0.071,-0.043 c -10e-4,0.074 -0.067,0.165 -0.147,0.163 -0.08,-0.001 -0.142,-0.094 -0.141,-0.168 0.001,-0.074 0.126,-0.341 0.15,-0.341 0.024,0 0.139,0.272 0.138,0.346 z"
         id="path324905" /><path
         fill="#ffffff"
         d="m 10.469,23.116 c 0,0 0.716,-0.008 1.328,-0.421 0.612,-0.413 1.865,-1.173 2.868,-0.188 0,0 -0.7,-0.118 -1.226,0.319 -0.526,0.438 -1.341,0.951 -2.027,0.894 -0.685,-0.056 -0.943,-0.604 -0.943,-0.604 z m 9.849,1.449 c 0,0 -1.2,0.353 -2.353,0.329 -1.153,0.024 -2.353,-0.329 -2.353,-0.329 l -1.106,1.059 c 0,0 0.424,-0.129 1.129,0.188 0.66,0.297 1.424,0.608 2.329,0.608 0.905,0 1.67,-0.311 2.329,-0.608 0.706,-0.318 1.129,-0.188 1.129,-0.188 z"
         id="path324907" /><path
         fill="#ffffff"
         d="m 14.257,26.085 c 0,0.192 0.156,0.348 0.348,0.348 0.192,0 1.289,-0.156 1.289,-0.348 0,-0.192 -1.097,-0.348 -1.289,-0.348 -0.192,0 -0.348,0.156 -0.348,0.348 z"
         id="path324909" /><path
         fill="#ffffff"
         d="m 13.008,26.111 c -0.98,-0.183 -1.019,-0.713 -1.019,-0.713 0,0 0.533,0.339 1.16,0.214 0.627,-0.125 1.193,-0.105 1.193,-0.105 0,0 -0.597,0.662 -0.095,0.991 0.222,0.146 0.837,0.084 1.105,0.025 0.268,-0.059 0.845,-0.166 0.971,-0.166 0.192,0 0.348,0.156 0.348,0.348 0,0.192 -0.156,0.348 -0.348,0.348 -0.128,0 -0.698,-0.106 -0.995,-0.174 -0.297,-0.068 -0.505,-0.1 -0.728,-0.146 -0.267,-0.055 -0.824,0.016 -1.522,0.071 -0.698,0.055 -1.208,-0.267 -1.443,-0.549 0.494,0.157 1.145,-0.031 1.373,-0.144 z M 8.301,18.21 c -0.039,-0.095 0.856,0.573 1.467,0.498 0.611,-0.075 1.785,-0.242 2.025,0.214 0.241,0.455 0.456,0.927 0.456,0.927 0,0 -0.407,-0.237 -0.934,-0.24 -0.529,-0.003 -1.64,-0.054 -2.077,-0.2 C 8.8,19.262 8.457,18.585 8.301,18.21 Z m 0.845,-2.954 c 0.011,-0.199 0.407,-0.115 0.489,-0.28 0.082,-0.165 -0.222,-0.516 -0.054,-0.635 0.167,-0.119 1.019,0.644 1.493,1.155 0.474,0.512 0.606,1.329 0.453,1.57 -0.151,0.241 -0.054,0.021 -0.054,0.021 0,0 -0.3,-0.595 -0.781,-0.838 -0.481,-0.242 -1.546,-0.993 -1.546,-0.993 z m 11.054,7.82 c -0.196,0.048 -0.44,0.292 -0.669,0.633 -0.024,-0.332 -0.294,-0.595 -0.631,-0.595 -0.081,0 -0.157,0.019 -0.229,0.046 -0.084,-0.118 -0.215,-0.199 -0.371,-0.199 -0.121,0 -0.229,0.049 -0.312,0.125 -0.083,-0.076 -0.191,-0.125 -0.312,-0.125 -0.156,0 -0.287,0.082 -0.371,0.199 -0.071,-0.028 -0.148,-0.046 -0.229,-0.046 -0.35,0 -0.633,0.282 -0.638,0.631 -0.236,-0.359 -0.488,-0.619 -0.691,-0.668 -0.335,-0.082 -0.594,-0.435 -0.818,-0.594 0,0 0.021,0.607 0.624,1.041 0.4,0.288 0.294,0.953 0.294,0.953 0,0 0.729,0.182 1.059,0.218 -0.05,-0.147 -0.115,-0.281 -0.177,-0.416 0.058,0.039 0.121,0.067 0.19,0.085 l 0.186,0.347 c 0,0 0.428,0.039 0.881,0.039 0.453,0 0.884,-0.039 0.884,-0.039 l 0.186,-0.347 c 0.053,-0.014 0.103,-0.031 0.15,-0.057 -0.058,0.127 -0.118,0.252 -0.165,0.389 0.329,-0.035 1.059,-0.218 1.059,-0.218 0,0 -0.106,-0.665 0.294,-0.953 0.602,-0.434 0.624,-1.041 0.624,-1.041 -0.224,0.157 -0.483,0.51 -0.818,0.592 z"
         id="path324911" /></g></g></svg>
