<svg height="1200" viewBox="0 0 1200 1200" width="1200" xmlns="http://www.w3.org/2000/svg" xmlns:xlink="http://www.w3.org/1999/xlink"><clipPath id="a"><path d="m.065481 216.60405h1199.869v766.79193h-1199.869z"/></clipPath><clipPath id="b"><path d="m0 0h1350v900h-1350z" transform="translate(-720.33112 -530.42092)"/></clipPath><clipPath id="c"><path d="m0 0h1350v900h-1350z" transform="translate(-674.50202 -539.46481)"/></clipPath><clipPath id="d"><path d="m0 0h1350v900h-1350z" transform="translate(-674.50202 -341.18071)"/></clipPath><clipPath id="e"><path d="m0 0h1350v900h-1350z" transform="translate(-628.67291 -530.42092)"/></clipPath><path d="m0 400.00003h1200v-400h-1200z" fill="#239f40" stroke-width=".628538"/><path d="m0 799.99869h1200v-400h-1200z" fill="#fff" stroke-width="1.08866"/><path d="m0 1200h1200v-399.99999h-1200z" fill="#da0000" stroke-width="1.08866"/><g clip-path="url(#a)" fill="#fff"><g transform="matrix(1.3333333 0 0 -1.3333333 0 1200)"><path d="m699.5 641.5h-92v8h92zm-69.993-28h-8l-.007 8h8.007zm41.993 0h-36v14h-20v-14h-8v22h36v-14h20v6h-14v8h22zm70 0h-36v14h-20v-6h14v-8h-22v22h28v14h8v-28h6v28h8v-28h6v28h8z"/><path d="m671.5 598h-64v8h64zm70 0h-64v8h64z"/><path d="m699.5 278.5h-92v8h92zm-69.993-28h-8l-.007 8h8.007zm41.993 0h-36v14h-20v-14h-8v22h36v-14h20v6h-14v8h22zm70 0h-36v14h-20v-6h14v-8h-22v22h28v14h8v-28h6v28h8v-28h6v28h8z"/><path d="m671.5 294h-64v8h64zm70 0h-64v8h64z"/><path d="m839.5 641.5h-92v8h92zm-69.993-28h-8l-.007 8h8.007zm41.993 0h-36v14h-20v-14h-8v22h36v-14h20v6h-14v8h22zm70 0h-36v14h-20v-6h14v-8h-22v22h28v14h8v-28h6v28h8v-28h6v28h8z"/><path d="m811.5 598h-64v8h64zm70 0h-64v8h64z"/><path d="m839.5 278.5h-92v8h92zm-69.993-28h-8l-.007 8h8.007zm41.993 0h-36v14h-20v-14h-8v22h36v-14h20v6h-14v8h22zm70 0h-36v14h-20v-6h14v-8h-22v22h28v14h8v-28h6v28h8v-28h6v28h8z"/><path d="m811.5 294h-64v8h64zm70 0h-64v8h64z"/><path d="m419.5 641.5h-92v8h92zm-69.993-28h-8l-.007 8h8.007zm41.993 0h-36v14h-20v-14h-8v22h36v-14h20v6h-14v8h22zm70 0h-36v14h-20v-6h14v-8h-22v22h28v14h8v-28h6v28h8v-28h6v28h8z"/><path d="m391.5 598h-64v8h64zm70 0h-64v8h64z"/><path d="m419.5 278.5h-92v8h92zm-69.993-28h-8l-.007 8h8.007zm41.993 0h-36v14h-20v-14h-8v22h36v-14h20v6h-14v8h22zm70 0h-36v14h-20v-6h14v-8h-22v22h28v14h8v-28h6v28h8v-28h6v28h8z"/><path d="m391.5 294h-64v8h64zm70 0h-64v8h64z"/><path d="m559.5 641.5h-92v8h92zm-69.993-28h-8l-.007 8h8.007zm41.993 0h-36v14h-20v-14h-8v22h36v-14h20v6h-14v8h22zm70 0h-36v14h-20v-6h14v-8h-22v22h28v14h8v-28h6v28h8v-28h6v28h8z"/><path d="m531.5 598h-64v8h64zm70 0h-64v8h64z"/><path d="m559.5 278.5h-92v8h92zm-69.993-28h-8l-.007 8h8.007zm41.993 0h-36v14h-20v-14h-8v22h36v-14h20v6h-14v8h22zm70 0h-36v14h-20v-6h14v-8h-22v22h28v14h8v-28h6v28h8v-28h6v28h8z"/><path d="m531.5 294h-64v8h64zm70 0h-64v8h64z"/><path d="m1259.5 641.5h-92v8h92zm-69.993-28h-8l-.01 8h8.007v-8zm41.993 0h-36v14h-20v-14h-8v22h36v-14h20v6h-14v8h22zm70 0h-36v14h-20v-6h14v-8h-22v22h28v14h8v-28h6v28h8v-28h6v28h8z"/><path d="m1231.5 598h-64v8h64zm70 0h-64v8h64z"/><path d="m1259.5 278.5h-92v8h92zm-69.993-28h-8l-.01 8h8.007v-8zm41.993 0h-36v14h-20v-14h-8v22h36v-14h20v6h-14v8h22zm70 0h-36v14h-20v-6h14v-8h-22v22h28v14h8v-28h6v28h8v-28h6v28h8z"/><path d="m1231.5 294h-64v8h64zm70 0h-64v8h64z"/><path d="m1307.5 641.5h42.5v8h-42.5zm42-14h.5v8h-.5zm-42 8v-22h8v14h20v-14h14.5v8h-6.5v14zm14-14 .01-8h8v8h-8.007z"/><path d="m1307.5 598h42.5v8h-42.5z"/><path d="m1307.5 278.5h42.5v8h-42.5zm42-14h.5v8h-.5zm-42 8v-22h8v14h20v-14h14.5v8h-6.5v14zm14-14 .01-8h8v8h-8.007z"/><path d="m1307.5 294h42.5v8h-42.5z"/><path d="m979.5 641.5h-92v8h92zm-69.993-28h-8l-.007 8h8.007zm41.993 0h-36v14h-20v-14h-8v22h36v-14h20v6h-14v8h22zm70 0h-36v14h-20v-6h14v-8h-22v22h28v14h8v-28h6v28h8v-28h6v28h8z"/><path d="m951.5 598h-64v8h64zm70 0h-64v8h64z"/><path d="m979.5 278.5h-92v8h92zm-69.993-28h-8l-.007 8h8.007zm41.993 0h-36v14h-20v-14h-8v22h36v-14h20v6h-14v8h22zm70 0h-36v14h-20v-6h14v-8h-22v22h28v14h8v-28h6v28h8v-28h6v28h8z"/><path d="m951.5 294h-64v8h64zm70 0h-64v8h64z"/><path d="m1119.5 641.5h-92v8h92zm-69.993-28h-8l-.01 8h8.007v-8zm41.993 0h-36v14h-20v-14h-8v22h36v-14h20v6h-14v8h22zm70 0h-36v14h-20v-6h14v-8h-22v22h28v14h8v-28h6v28h8v-28h6v28h8z"/><path d="m1091.5 598h-64v8h64zm70 0h-64v8h64z"/><path d="m1119.5 278.5h-92v8h92zm-69.993-28h-8l-.01 8h8.007v-8zm41.993 0h-36v14h-20v-14h-8v22h36v-14h20v6h-14v8h22zm70 0h-36v14h-20v-6h14v-8h-22v22h28v14h8v-28h6v28h8v-28h6v28h8z"/><path d="m1091.5 294h-64v8h64zm70 0h-64v8h64z"/><path d="m279.5 641.5h-92v8h92zm-69.993-28h-8l-.007 8h8.007zm41.993 0h-36v14h-20v-14h-8v22h36v-14h20v6h-14v8h22zm70 0h-36v14h-20v-6h14v-8h-22v22h28v14h8v-28h6v28h8v-28h6v28h8z"/><path d="m251.5 598h-64v8h64zm70 0h-64v8h64z"/><path d="m279.5 278.5h-92v8h92zm-69.993-28h-8l-.007 8h8.007zm41.993 0h-36v14h-20v-14h-8v22h36v-14h20v6h-14v8h22zm70 0h-36v14h-20v-6h14v-8h-22v22h28v14h8v-28h6v28h8v-28h6v28h8z"/><path d="m251.5 294h-64v8h64zm70 0h-64v8h64z"/></g><path d="m0 0v-28h-5.999v28h-8v-28h-6.001v28h-8v-14h-5.5v-8.001h5.5v-13.999h36v36z" transform="matrix(1.3333333 0 0 -1.3333333 44.6664 333.9996)"/><path d="m0 598h41.5v8h-41.5z" transform="matrix(1.3333333 0 0 -1.3333333 0 1200)"/><path d="m0 0v-28h-5.999v28h-8v-28h-6.001v28h-8v-14h-5.5v-8h5.5v-14h36v36z" transform="matrix(1.3333333 0 0 -1.3333333 44.6664 818.0004)"/><path d="m0 294h41.5v8h-41.5z" transform="matrix(1.3333333 0 0 -1.3333333 0 1200)"/><path d="m139.5 641.5h-92v8h92zm-69.993-28h-8l-.007 8h8.007zm41.993 0h-36v14h-20v-14h-8v22h36v-14h20v6h-14v8h22zm70 0h-36v14h-20v-6h14v-8h-22v22h28v14h8v-28h6v28h8v-28h6v28h8z" transform="matrix(1.3333333 0 0 -1.3333333 0 1200)"/><path d="m111.5 598h-64v8h64zm70 0h-64v8h64z" transform="matrix(1.3333333 0 0 -1.3333333 0 1200)"/><path d="m139.5 278.5h-92v8h92zm-69.993-28h-8l-.007 8h8.007zm41.993 0h-36v14h-20v-14h-8v22h36v-14h20v6h-14v8h22zm70 0h-36v14h-20v-6h14v-8h-22v22h28v14h8v-28h6v28h8v-28h6v28h8z" transform="matrix(1.3333333 0 0 -1.3333333 0 1200)"/><path d="m111.5 294h-64v8h64zm70 0h-64v8h64z" transform="matrix(1.3333333 0 0 -1.3333333 0 1200)"/></g><g fill="#da0000"><path clip-path="url(#b)" d="m0 0s81.399-63.659 21.567-155.145c56.354 34.439 61.222 129.144-21.567 155.145" transform="matrix(1.3333333 0 0 -1.3333333 661.10664 492.77213)"/><path clip-path="url(#c)" d="m0 0c-12.958-14.61-35.221-.087-27.568 15.828 13.393-24.002 27.568-4.609 27.568-4.609s14.175-19.393 27.567 4.609c7.654-15.914-14.609-30.438-27.567-15.828" transform="matrix(1.3333333 0 0 -1.3333333 600.00117 480.7136)"/><path clip-path="url(#d)" d="m0 0-9.305 12.176s-21.915-7.306-50.788 2.782c23.655 0 36.874 4.175 41.743 6.609 0 0-53.572 28.873-52.528 87.662 3.13 59.484 34.786 77.575 34.786 77.575s-56.354-82.094 26.437-150.709l-3.653 84.88v62.354c4.697 1.13 13.306 11.045 13.306 11.045s8.609-9.915 13.306-11.045v-62.354l-3.653-84.88c82.788 68.615 26.435 150.714 26.435 150.714s31.655-18.089 34.786-77.575c1.043-58.791-52.529-87.661-52.529-87.661 4.87-2.435 18.089-6.61 41.743-6.61-28.872-10.088-50.787-2.782-50.787-2.782l-9.305-12.176z" transform="matrix(1.3333333 0 0 -1.3333333 600.00117 745.0924)"/><path clip-path="url(#e)" d="m0 0s-81.4-63.659-21.567-155.145c-56.354 34.439-61.227 129.144 21.567 155.145" transform="matrix(1.3333333 0 0 -1.3333333 538.8957 492.77213)"/></g></svg>