<?xml version="1.0" encoding="UTF-8" standalone="no"?>
<svg
   height="1200"
   viewBox="0 0 1200 1200"
   width="1200"
   version="1.1"
   id="svg55"
   sodipodi:docname="rect copy.svg"
   inkscape:version="1.4 (e7c3feb1, 2024-10-09)"
   xmlns:inkscape="http://www.inkscape.org/namespaces/inkscape"
   xmlns:sodipodi="http://sodipodi.sourceforge.net/DTD/sodipodi-0.dtd"
   xmlns="http://www.w3.org/2000/svg"
   xmlns:svg="http://www.w3.org/2000/svg">
  <defs
     id="defs55">
    <clipPath
       clipPathUnits="userSpaceOnUse"
       id="clipPath55">
      <rect
         style="fill:#dc1324;fill-opacity:0.156204;stroke:#f1b31c;stroke-width:0.130962;stroke-linejoin:round;stroke-miterlimit:4.8"
         id="rect56"
         width="1199.869"
         height="766.79193"
         x="0.065481164"
         y="216.60405" />
    </clipPath>
  </defs>
  <sodipodi:namedview
     id="namedview55"
     pagecolor="#ffffff"
     bordercolor="#000000"
     borderopacity="0.25"
     inkscape:showpageshadow="2"
     inkscape:pageopacity="0.0"
     inkscape:pagecheckerboard="0"
     inkscape:deskcolor="#d1d1d1"
     inkscape:current-layer="svg55" />
  <clipPath
     id="a">
    <path
       d="M 0,0 H 1350 V 900 H 0 Z"
       transform="translate(-720.33112,-530.42092)"
       id="path1" />
  </clipPath>
  <clipPath
     id="b">
    <path
       d="M 0,0 H 1350 V 900 H 0 Z"
       transform="translate(-674.50202,-539.46481)"
       id="path2" />
  </clipPath>
  <clipPath
     id="c">
    <path
       d="M 0,0 H 1350 V 900 H 0 Z"
       transform="translate(-674.50202,-341.18071)"
       id="path3" />
  </clipPath>
  <clipPath
     id="d">
    <path
       d="M 0,0 H 1350 V 900 H 0 Z"
       transform="translate(-628.67291,-530.42092)"
       id="path4" />
  </clipPath>
  <path
     d="M 0,400.00003 H 1200 V 3e-5 H 0 Z"
     fill="#239f40"
     id="path5"
     style="stroke-width:0.628538" />
  <path
     d="m 0,799.99869 h 1200 v -400 H 0 Z"
     fill="#ffffff"
     id="path6"
     style="stroke-width:1.08866" />
  <path
     d="M 0,1200 H 1200 V 800.00001 H 0 Z"
     fill="#da0000"
     id="path7"
     style="stroke-width:1.08866" />
  <g
     fill="#ffffff"
     id="g51"
     clip-path="url(#clipPath55)">
    <g
       transform="matrix(1.3333333,0,0,-1.3333333,0,1200)"
       id="g43">
      <path
         d="m 699.5,641.5 h -92 v 8 h 92 z m -69.993,-28 h -8 l -0.007,8 h 8.007 z m 41.993,0 h -36 v 14 h -20 v -14 h -8 v 22 h 36 v -14 h 20 v 6 h -14 v 8 h 22 z m 70,0 h -36 v 14 h -20 v -6 h 14 v -8 h -22 v 22 h 28 v 14 h 8 v -28 h 6 v 28 h 8 v -28 h 6 v 28 h 8 z"
         id="path8" />
      <path
         d="m 671.5,598 h -64 v 8 h 64 z m 70,0 h -64 v 8 h 64 z"
         id="path9" />
      <path
         d="m 699.5,278.5 h -92 v 8 h 92 z m -69.993,-28 h -8 l -0.007,8 h 8.007 z m 41.993,0 h -36 v 14 h -20 v -14 h -8 v 22 h 36 v -14 h 20 v 6 h -14 v 8 h 22 z m 70,0 h -36 v 14 h -20 v -6 h 14 v -8 h -22 v 22 h 28 v 14 h 8 v -28 h 6 v 28 h 8 v -28 h 6 v 28 h 8 z"
         id="path10" />
      <path
         d="m 671.5,294 h -64 v 8 h 64 z m 70,0 h -64 v 8 h 64 z"
         id="path11" />
      <path
         d="m 839.5,641.5 h -92 v 8 h 92 z m -69.993,-28 h -8 l -0.007,8 h 8.007 z m 41.993,0 h -36 v 14 h -20 v -14 h -8 v 22 h 36 v -14 h 20 v 6 h -14 v 8 h 22 z m 70,0 h -36 v 14 h -20 v -6 h 14 v -8 h -22 v 22 h 28 v 14 h 8 v -28 h 6 v 28 h 8 v -28 h 6 v 28 h 8 z"
         id="path12" />
      <path
         d="m 811.5,598 h -64 v 8 h 64 z m 70,0 h -64 v 8 h 64 z"
         id="path13" />
      <path
         d="m 839.5,278.5 h -92 v 8 h 92 z m -69.993,-28 h -8 l -0.007,8 h 8.007 z m 41.993,0 h -36 v 14 h -20 v -14 h -8 v 22 h 36 v -14 h 20 v 6 h -14 v 8 h 22 z m 70,0 h -36 v 14 h -20 v -6 h 14 v -8 h -22 v 22 h 28 v 14 h 8 v -28 h 6 v 28 h 8 v -28 h 6 v 28 h 8 z"
         id="path14" />
      <path
         d="m 811.5,294 h -64 v 8 h 64 z m 70,0 h -64 v 8 h 64 z"
         id="path15" />
      <path
         d="m 419.5,641.5 h -92 v 8 h 92 z m -69.993,-28 h -8 l -0.007,8 h 8.007 z m 41.993,0 h -36 v 14 h -20 v -14 h -8 v 22 h 36 v -14 h 20 v 6 h -14 v 8 h 22 z m 70,0 h -36 v 14 h -20 v -6 h 14 v -8 h -22 v 22 h 28 v 14 h 8 v -28 h 6 v 28 h 8 v -28 h 6 v 28 h 8 z"
         id="path16" />
      <path
         d="m 391.5,598 h -64 v 8 h 64 z m 70,0 h -64 v 8 h 64 z"
         id="path17" />
      <path
         d="m 419.5,278.5 h -92 v 8 h 92 z m -69.993,-28 h -8 l -0.007,8 h 8.007 z m 41.993,0 h -36 v 14 h -20 v -14 h -8 v 22 h 36 v -14 h 20 v 6 h -14 v 8 h 22 z m 70,0 h -36 v 14 h -20 v -6 h 14 v -8 h -22 v 22 h 28 v 14 h 8 v -28 h 6 v 28 h 8 v -28 h 6 v 28 h 8 z"
         id="path18" />
      <path
         d="m 391.5,294 h -64 v 8 h 64 z m 70,0 h -64 v 8 h 64 z"
         id="path19" />
      <path
         d="m 559.5,641.5 h -92 v 8 h 92 z m -69.993,-28 h -8 l -0.007,8 h 8.007 z m 41.993,0 h -36 v 14 h -20 v -14 h -8 v 22 h 36 v -14 h 20 v 6 h -14 v 8 h 22 z m 70,0 h -36 v 14 h -20 v -6 h 14 v -8 h -22 v 22 h 28 v 14 h 8 v -28 h 6 v 28 h 8 v -28 h 6 v 28 h 8 z"
         id="path20" />
      <path
         d="m 531.5,598 h -64 v 8 h 64 z m 70,0 h -64 v 8 h 64 z"
         id="path21" />
      <path
         d="m 559.5,278.5 h -92 v 8 h 92 z m -69.993,-28 h -8 l -0.007,8 h 8.007 z m 41.993,0 h -36 v 14 h -20 v -14 h -8 v 22 h 36 v -14 h 20 v 6 h -14 v 8 h 22 z m 70,0 h -36 v 14 h -20 v -6 h 14 v -8 h -22 v 22 h 28 v 14 h 8 v -28 h 6 v 28 h 8 v -28 h 6 v 28 h 8 z"
         id="path22" />
      <path
         d="m 531.5,294 h -64 v 8 h 64 z m 70,0 h -64 v 8 h 64 z"
         id="path23" />
      <path
         d="m 1259.5,641.5 h -92 v 8 h 92 z m -69.993,-28 h -8 l -0.01,8 h 8.007 v -8 z m 41.993,0 h -36 v 14 h -20 v -14 h -8 v 22 h 36 v -14 h 20 v 6 h -14 v 8 h 22 z m 70,0 h -36 v 14 h -20 v -6 h 14 v -8 h -22 v 22 h 28 v 14 h 8 v -28 h 6 v 28 h 8 v -28 h 6 v 28 h 8 z"
         id="path24" />
      <path
         d="m 1231.5,598 h -64 v 8 h 64 z m 70,0 h -64 v 8 h 64 z"
         id="path25" />
      <path
         d="m 1259.5,278.5 h -92 v 8 h 92 z m -69.993,-28 h -8 l -0.01,8 h 8.007 v -8 z m 41.993,0 h -36 v 14 h -20 v -14 h -8 v 22 h 36 v -14 h 20 v 6 h -14 v 8 h 22 z m 70,0 h -36 v 14 h -20 v -6 h 14 v -8 h -22 v 22 h 28 v 14 h 8 v -28 h 6 v 28 h 8 v -28 h 6 v 28 h 8 z"
         id="path26" />
      <path
         d="m 1231.5,294 h -64 v 8 h 64 z m 70,0 h -64 v 8 h 64 z"
         id="path27" />
      <path
         d="m 1307.5,641.5 h 42.5 v 8 h -42.5 z m 42,-14 h 0.5 v 8 h -0.5 z m -42,8 v -22 h 8 v 14 h 20 v -14 h 14.5 v 8 h -6.5 v 14 z m 14,-14 0.01,-8 h 8 v 8 h -8.007 z"
         id="path28" />
      <path
         d="m 1307.5,598 h 42.5 v 8 h -42.5 z"
         id="path29" />
      <path
         d="m 1307.5,278.5 h 42.5 v 8 h -42.5 z m 42,-14 h 0.5 v 8 h -0.5 z m -42,8 v -22 h 8 v 14 h 20 v -14 h 14.5 v 8 h -6.5 v 14 z m 14,-14 0.01,-8 h 8 v 8 h -8.007 z"
         id="path30" />
      <path
         d="m 1307.5,294 h 42.5 v 8 h -42.5 z"
         id="path31" />
      <path
         d="m 979.5,641.5 h -92 v 8 h 92 z m -69.993,-28 h -8 l -0.007,8 h 8.007 z m 41.993,0 h -36 v 14 h -20 v -14 h -8 v 22 h 36 v -14 h 20 v 6 h -14 v 8 h 22 z m 70,0 h -36 v 14 h -20 v -6 h 14 v -8 h -22 v 22 h 28 v 14 h 8 v -28 h 6 v 28 h 8 v -28 h 6 v 28 h 8 z"
         id="path32" />
      <path
         d="m 951.5,598 h -64 v 8 h 64 z m 70,0 h -64 v 8 h 64 z"
         id="path33" />
      <path
         d="m 979.5,278.5 h -92 v 8 h 92 z m -69.993,-28 h -8 l -0.007,8 h 8.007 z m 41.993,0 h -36 v 14 h -20 v -14 h -8 v 22 h 36 v -14 h 20 v 6 h -14 v 8 h 22 z m 70,0 h -36 v 14 h -20 v -6 h 14 v -8 h -22 v 22 h 28 v 14 h 8 v -28 h 6 v 28 h 8 v -28 h 6 v 28 h 8 z"
         id="path34" />
      <path
         d="m 951.5,294 h -64 v 8 h 64 z m 70,0 h -64 v 8 h 64 z"
         id="path35" />
      <path
         d="m 1119.5,641.5 h -92 v 8 h 92 z m -69.993,-28 h -8 l -0.01,8 h 8.007 v -8 z m 41.993,0 h -36 v 14 h -20 v -14 h -8 v 22 h 36 v -14 h 20 v 6 h -14 v 8 h 22 z m 70,0 h -36 v 14 h -20 v -6 h 14 v -8 h -22 v 22 h 28 v 14 h 8 v -28 h 6 v 28 h 8 v -28 h 6 v 28 h 8 z"
         id="path36" />
      <path
         d="m 1091.5,598 h -64 v 8 h 64 z m 70,0 h -64 v 8 h 64 z"
         id="path37" />
      <path
         d="m 1119.5,278.5 h -92 v 8 h 92 z m -69.993,-28 h -8 l -0.01,8 h 8.007 v -8 z m 41.993,0 h -36 v 14 h -20 v -14 h -8 v 22 h 36 v -14 h 20 v 6 h -14 v 8 h 22 z m 70,0 h -36 v 14 h -20 v -6 h 14 v -8 h -22 v 22 h 28 v 14 h 8 v -28 h 6 v 28 h 8 v -28 h 6 v 28 h 8 z"
         id="path38" />
      <path
         d="m 1091.5,294 h -64 v 8 h 64 z m 70,0 h -64 v 8 h 64 z"
         id="path39" />
      <path
         d="m 279.5,641.5 h -92 v 8 h 92 z m -69.993,-28 h -8 l -0.007,8 h 8.007 z m 41.993,0 h -36 v 14 h -20 v -14 h -8 v 22 h 36 v -14 h 20 v 6 h -14 v 8 h 22 z m 70,0 h -36 v 14 h -20 v -6 h 14 v -8 h -22 v 22 h 28 v 14 h 8 v -28 h 6 v 28 h 8 v -28 h 6 v 28 h 8 z"
         id="path40" />
      <path
         d="m 251.5,598 h -64 v 8 h 64 z m 70,0 h -64 v 8 h 64 z"
         id="path41" />
      <path
         d="m 279.5,278.5 h -92 v 8 h 92 z m -69.993,-28 h -8 l -0.007,8 h 8.007 z m 41.993,0 h -36 v 14 h -20 v -14 h -8 v 22 h 36 v -14 h 20 v 6 h -14 v 8 h 22 z m 70,0 h -36 v 14 h -20 v -6 h 14 v -8 h -22 v 22 h 28 v 14 h 8 v -28 h 6 v 28 h 8 v -28 h 6 v 28 h 8 z"
         id="path42" />
      <path
         d="m 251.5,294 h -64 v 8 h 64 z m 70,0 h -64 v 8 h 64 z"
         id="path43" />
    </g>
    <path
       d="M 0,0 V -28 H -5.999 V 0 h -8 V -28 H -20 V 0 h -8 v -14 h -5.5 v -8.001 H -28 V -36 H 8 V 0 Z"
       transform="matrix(1.3333333,0,0,-1.3333333,44.6664,333.9996)"
       id="path44" />
    <path
       d="m 0,598 h 41.5 v 8 H 0 Z"
       transform="matrix(1.3333333,0,0,-1.3333333,0,1200)"
       id="path45" />
    <path
       d="M 0,0 V -28 H -5.999 V 0 h -8 V -28 H -20 V 0 h -8 v -14 h -5.5 v -8 H -28 V -36 H 8 V 0 Z"
       transform="matrix(1.3333333,0,0,-1.3333333,44.6664,818.0004)"
       id="path46" />
    <path
       d="m 0,294 h 41.5 v 8 H 0 Z"
       transform="matrix(1.3333333,0,0,-1.3333333,0,1200)"
       id="path47" />
    <path
       d="m 139.5,641.5 h -92 v 8 h 92 z m -69.993,-28 h -8 l -0.007,8 h 8.007 z m 41.993,0 h -36 v 14 h -20 v -14 h -8 v 22 h 36 v -14 h 20 v 6 h -14 v 8 h 22 z m 70,0 h -36 v 14 h -20 v -6 h 14 v -8 h -22 v 22 h 28 v 14 h 8 v -28 h 6 v 28 h 8 v -28 h 6 v 28 h 8 z"
       transform="matrix(1.3333333,0,0,-1.3333333,0,1200)"
       id="path48" />
    <path
       d="m 111.5,598 h -64 v 8 h 64 z m 70,0 h -64 v 8 h 64 z"
       transform="matrix(1.3333333,0,0,-1.3333333,0,1200)"
       id="path49" />
    <path
       d="m 139.5,278.5 h -92 v 8 h 92 z m -69.993,-28 h -8 l -0.007,8 h 8.007 z m 41.993,0 h -36 v 14 h -20 v -14 h -8 v 22 h 36 v -14 h 20 v 6 h -14 v 8 h 22 z m 70,0 h -36 v 14 h -20 v -6 h 14 v -8 h -22 v 22 h 28 v 14 h 8 v -28 h 6 v 28 h 8 v -28 h 6 v 28 h 8 z"
       transform="matrix(1.3333333,0,0,-1.3333333,0,1200)"
       id="path50" />
    <path
       d="m 111.5,294 h -64 v 8 h 64 z m 70,0 h -64 v 8 h 64 z"
       transform="matrix(1.3333333,0,0,-1.3333333,0,1200)"
       id="path51" />
  </g>
  <g
     id="g55"
     transform="translate(-299.33483)">
    <path
       clip-path="url(#a)"
       d="M 0,0 C 0,0 81.399,-63.659 21.567,-155.145 77.921,-120.706 82.789,-26.001 0,0"
       transform="matrix(1.3333333,0,0,-1.3333333,960.44147,492.77213)"
       id="path52"
       style="fill:#da0000" />
    <path
       clip-path="url(#b)"
       d="M 0,0 C -12.958,-14.61 -35.221,-0.087 -27.568,15.828 -14.175,-8.174 0,11.219 0,11.219 c 0,0 14.175,-19.393 27.567,4.609 C 35.221,-0.086 12.958,-14.61 0,0"
       transform="matrix(1.3333333,0,0,-1.3333333,899.336,480.7136)"
       id="path53"
       style="fill:#da0000" />
    <path
       clip-path="url(#c)"
       d="m 0,0 -9.305,12.176 c 0,0 -21.915,-7.306 -50.788,2.782 23.655,0 36.874,4.175 41.743,6.609 0,0 -53.572,28.873 -52.528,87.662 3.13,59.484 34.786,77.575 34.786,77.575 0,0 -56.354,-82.094 26.437,-150.709 l -3.653,84.88 v 62.354 c 4.697,1.13 13.306,11.045 13.306,11.045 0,0 8.609,-9.915 13.306,-11.045 V 120.975 L 9.651,36.095 c 82.788,68.615 26.435,150.714 26.435,150.714 0,0 31.655,-18.089 34.786,-77.575 C 71.915,50.443 18.343,21.573 18.343,21.573 23.213,19.138 36.432,14.963 60.086,14.963 31.214,4.875 9.299,12.181 9.299,12.181 L -0.006,0.005 Z"
       transform="matrix(1.3333333,0,0,-1.3333333,899.336,745.0924)"
       id="path54"
       style="fill:#da0000" />
    <path
       clip-path="url(#d)"
       d="M 0,0 C 0,0 -81.4,-63.659 -21.567,-155.145 -77.921,-120.706 -82.794,-26.001 0,0"
       transform="matrix(1.3333333,0,0,-1.3333333,838.23053,492.77213)"
       id="path55"
       style="fill:#da0000" />
  </g>
</svg>
