<?xml version="1.0" encoding="UTF-8" standalone="no"?>
<svg
   height="800"
   viewBox="0 0 800 800"
   width="800"
   version="1.1"
   id="svg5"
   sodipodi:docname="rect copy.svg"
   inkscape:version="1.4 (e7c3feb1, 2024-10-09)"
   xmlns:inkscape="http://www.inkscape.org/namespaces/inkscape"
   xmlns:sodipodi="http://sodipodi.sourceforge.net/DTD/sodipodi-0.dtd"
   xmlns="http://www.w3.org/2000/svg"
   xmlns:svg="http://www.w3.org/2000/svg">
  <defs
     id="defs5" />
  <sodipodi:namedview
     id="namedview5"
     pagecolor="#ffffff"
     bordercolor="#000000"
     borderopacity="0.25"
     inkscape:showpageshadow="2"
     inkscape:pageopacity="0.0"
     inkscape:pagecheckerboard="0"
     inkscape:deskcolor="#d1d1d1"
     inkscape:current-layer="svg5" />
  <clipPath
     id="a">
    <path
       d="M 0,600 H 900 V 0 H 0 Z"
       transform="translate(-410.40621,-122.9688)"
       id="path1" />
  </clipPath>
  <clipPath
     id="b">
    <path
       d="M 0,600 H 900 V 0 H 0 Z"
       transform="translate(-688.90622,-521.03122)"
       id="path2" />
  </clipPath>
  <path
     d="M 0,800 H 800 V 2e-5 H 0 Z"
     fill="#ffffff"
     id="path3"
     style="stroke-width:1.08866" />
  <g
     id="g5"
     transform="translate(-200.06227)">
    <path
       clip-path="url(#a)"
       d="M 0,0 -0.469,-0.531 -3.5,-3.938 -4.375,-4.937 -3.188,-5.5 l 4.157,-1.937 -13,-9.563 -1.032,-0.781 1,-0.813 c 0,0 2.041,-1.695 4.094,-3.562 1.027,-0.934 2.071,-1.909 2.813,-2.719 0.371,-0.404 0.66,-0.765 0.844,-1.031 0.137,-0.2 0.177,-0.383 0.187,-0.344 0.006,-0.099 0.027,-0.2 0.094,-0.344 0.093,-0.201 0.316,-0.43 0.562,-0.531 0.493,-0.2 0.779,-0.044 0.938,0.031 0.317,0.151 0.439,0.301 0.656,0.5 0.434,0.398 1.002,0.976 1.656,1.719 1.307,1.485 3,3.576 4.719,5.719 2.883,3.593 5.332,6.76 6.188,7.875 0.859,-1.119 3.307,-4.285 6.187,-7.875 1.719,-2.143 3.412,-4.234 4.719,-5.719 0.654,-0.743 1.222,-1.321 1.656,-1.719 0.217,-0.199 0.339,-0.349 0.656,-0.5 0.159,-0.075 0.445,-0.231 0.938,-0.031 0.246,0.101 0.469,0.33 0.562,0.531 0.067,0.144 0.088,0.245 0.094,0.344 0.01,-0.039 0.05,0.144 0.187,0.344 0.184,0.266 0.473,0.627 0.844,1.031 0.742,0.81 1.786,1.785 2.813,2.719 2.053,1.867 4.094,3.562 4.094,3.562 l 1,0.813 -1.032,0.781 -13,9.563 4.156,1.937 1.188,0.563 -0.875,0.999 -3.031,3.407 L 21.375,0 20.687,-0.281 10.688,-4.562 0.687,-0.281 Z M 56.25,2.625 C 50.308,2.648 42.248,0.939 31.312,-4.25 L 29.75,-5 31.187,-5.969 c 0,0 17.712,-12.077 39.532,0.469 l 0.812,0.469 -0.406,0.844 c 0,0 -0.901,1.791 -3.187,3.468 -2.287,1.678 -6.014,3.322 -11.688,3.344 m -91.125,0 c -5.673,-0.022 -9.402,-1.666 -11.688,-3.344 -2.285,-1.677 -3.187,-3.468 -3.187,-3.468 l -0.406,-0.844 0.812,-0.469 c 21.82,-12.546 39.531,-0.469 39.531,-0.469 L -8.375,-5 -9.938,-4.25 C -20.873,0.939 -28.933,2.648 -34.875,2.625 M 82.531,6.094 C 79.739,5.87 77.615,3.485 76.688,1.125 c -0.495,-1.259 -0.72,-2.598 -0.282,-3.781 0.439,-1.184 1.71,-2.031 3.282,-2.031 1.663,0 3.014,0.687 3.906,1.656 0.891,0.968 1.367,2.156 1.656,3.312 0.578,2.314 0.375,4.563 0.375,4.563 l -0.062,0.593 -0.532,0.219 c -0.645,0.275 -1.307,0.422 -1.937,0.438 -0.193,0.005 -0.376,0.014 -0.563,0 m -144.25,0 c -0.63,-0.016 -1.292,-0.163 -1.937,-0.438 L -64.188,5.437 -64.25,4.844 c 0,0 -0.203,-2.249 0.375,-4.563 0.289,-1.156 0.764,-2.344 1.656,-3.312 0.892,-0.969 2.244,-1.656 3.906,-1.656 1.571,0 2.843,0.847 3.282,2.031 0.439,1.183 0.213,2.522 -0.282,3.781 -0.989,2.518 -3.334,5.046 -6.406,4.969 M 75.719,18.375 C 69.406,18.385 60.565,16.216 51.375,7.312 l -1.5,-1.437 2.063,-0.281 c 16.171,-2.156 24.563,0.115 29,3.125 2.218,1.505 3.412,3.196 4.031,4.531 0.619,1.335 0.687,2.406 0.687,2.406 l 0.032,0.656 -0.594,0.282 c 0,0 -3.206,1.517 -8.156,1.75 -0.398,0.018 -0.798,0.03 -1.219,0.031 m -130.063,0 c -0.421,-0.001 -0.821,-0.013 -1.219,-0.031 -4.95,-0.233 -8.156,-1.75 -8.156,-1.75 l -0.594,-0.282 0.032,-0.656 c 0,0 0.068,-1.071 0.687,-2.406 0.619,-1.335 1.813,-3.026 4.031,-4.531 4.437,-3.01 12.829,-5.281 29.001,-3.125 L -28.5,5.875 -30,7.312 c -9.19,8.904 -18.031,11.073 -24.344,11.063 m 161.094,0.906 c -5.834,-0.1 -11.906,-1.125 -16.281,-4.406 -1.442,-1.081 -2.342,-2.181 -2.563,-3.406 -0.22,-1.226 0.448,-2.377 1.438,-3.125 1.981,-1.496 5.375,-2.153 9.531,-2.219 8.312,-0.133 19.61,2.392 26.594,9.375 l 1.219,1.25 -1.688,0.437 c 0,0 -7.349,1.89 -15.75,2.094 -0.817,0.02 -1.667,0.015 -2.5,0 m -194.625,0 c -8.402,-0.204 -15.75,-2.094 -15.75,-2.094 l -1.688,-0.437 1.219,-1.25 c 6.983,-6.983 18.282,-9.508 26.594,-9.375 4.156,0.066 7.55,0.723 9.531,2.219 0.991,0.748 1.658,1.899 1.438,3.125 -0.22,1.225 -1.121,2.325 -2.563,3.406 -4.999,3.75 -12.244,4.565 -18.781,4.406 M 55.813,27.156 C 50.398,27.183 38.466,24.248 27.125,2.781 l -0.938,-1.75 1.969,0.281 C 45.178,3.744 53.095,9.776 56.688,15.344 60.28,20.911 59.469,26 59.469,26 l -0.125,0.625 -0.563,0.187 c 0,0 -1.163,0.335 -2.968,0.344 m -90.251,0 c -1.805,-0.009 -2.968,-0.344 -2.968,-0.344 L -37.969,26.625 -38.094,26 c 0,0 -0.811,-5.089 2.781,-10.656 3.593,-5.568 11.51,-11.6 28.532,-14.032 l 1.969,-0.281 -0.938,1.75 c -11.341,21.467 -23.273,24.402 -28.688,24.375 m 161.969,1.625 c -1.301,0.036 -2.437,-0.596 -3.312,-1.437 -0.875,-0.841 -1.545,-1.925 -1.938,-3.032 -0.392,-1.106 -0.533,-2.228 -0.187,-3.281 0.345,-1.052 1.427,-1.906 2.75,-1.906 1.382,0 2.529,0.656 3.25,1.531 0.72,0.875 1.083,1.923 1.312,2.938 0.459,2.028 0.313,3.968 0.313,3.968 l -0.032,0.594 -0.531,0.25 c -0.557,0.266 -1.125,0.362 -1.625,0.375 m -233.687,0 c -0.501,-0.013 -1.068,-0.109 -1.625,-0.375 l -0.532,-0.25 -0.031,-0.594 c 0,0 -0.146,-1.94 0.313,-3.968 0.229,-1.015 0.591,-2.063 1.312,-2.938 0.721,-0.875 1.869,-1.531 3.25,-1.531 1.323,0 2.405,0.854 2.75,1.906 0.346,1.053 0.205,2.175 -0.187,3.281 -0.392,1.107 -1.063,2.191 -1.938,3.032 -0.875,0.841 -2.012,1.473 -3.312,1.437 M 69.156,31.219 C 66.364,30.995 64.24,28.61 63.313,26.25 c -0.495,-1.259 -0.72,-2.598 -0.282,-3.781 0.439,-1.184 1.71,-2.032 3.282,-2.032 1.663,0 3.014,0.688 3.906,1.657 0.891,0.968 1.367,2.156 1.656,3.312 0.578,2.314 0.375,4.563 0.375,4.563 l -0.062,0.593 -0.532,0.219 c -0.645,0.275 -1.307,0.422 -1.937,0.438 -0.193,0.005 -0.376,0.014 -0.563,0 m -117.5,0 c -0.63,-0.016 -1.292,-0.163 -1.937,-0.438 l -0.532,-0.219 -0.062,-0.593 c 0,0 -0.203,-2.249 0.375,-4.563 0.289,-1.156 0.764,-2.344 1.656,-3.312 0.892,-0.969 2.244,-1.657 3.906,-1.657 1.571,0 2.843,0.848 3.282,2.032 0.439,1.183 0.213,2.522 -0.282,3.781 -0.989,2.518 -3.334,5.046 -6.406,4.969 m 171.25,9.562 c -6.063,-0.222 -16.646,-3.212 -28.843,-17.5 l -1.5,-1.75 2.281,0.094 c 15.402,0.54 23.95,4.75 28.625,8.937 2.337,2.094 3.693,4.179 4.469,5.751 0.775,1.571 0.999,2.718 0.999,2.718 l 0.125,0.782 -0.75,0.312 c 0,0 -1.603,0.604 -4.249,0.656 -0.364,0.007 -0.752,0.015 -1.157,0 m -225.594,0 c -2.646,-0.052 -4.25,-0.656 -4.25,-0.656 l -0.75,-0.312 0.125,-0.782 c 0,0 0.225,-1.147 1,-2.718 0.776,-1.572 2.132,-3.657 4.469,-5.751 4.675,-4.187 13.223,-8.397 28.625,-8.937 l 2.281,-0.094 -1.5,1.75 c -13.01,15.241 -24.189,17.614 -30,17.5 m 258.657,2.907 c -2.856,0.043 -6.075,-0.16 -9.5,-0.844 -11.099,-2.22 -16.688,-10.563 -16.688,-10.563 l -0.75,-1.156 1.313,-0.375 c 0,0 11.48,-3.278 24.593,0 6.574,1.644 9.777,4.176 11.282,6.438 0.752,1.13 1.068,2.158 1.187,2.937 0.118,0.779 0.031,1.375 0.031,1.375 l -0.125,0.625 -0.593,0.188 c 0,0 -4.464,1.278 -10.75,1.375 m -290.563,0 c -6.286,-0.097 -10.75,-1.375 -10.75,-1.375 l -0.593,-0.188 -0.125,-0.625 c 0,0 -0.088,-0.596 0.031,-1.375 0.118,-0.779 0.435,-1.807 1.187,-2.937 1.505,-2.262 4.709,-4.794 11.282,-6.438 13.113,-3.278 24.593,0 24.593,0 l 1.313,0.375 -0.75,1.156 c 0,0 -5.589,8.343 -16.688,10.563 -3.425,0.684 -6.644,0.887 -9.5,0.844 M 101.563,46 C 94.709,45.851 82.773,42.507 76.781,24.531 l -0.531,-1.562 1.625,0.25 c 12.502,1.902 19.939,7.137 24.219,11.906 4.279,4.769 5.437,9.156 5.437,9.156 l 0.25,0.969 -0.968,0.25 c 0,0 -1.629,0.437 -4.125,0.5 -0.357,0.009 -0.736,0.009 -1.125,0 m -182.876,0 c -2.496,-0.063 -4.125,-0.5 -4.125,-0.5 l -0.968,-0.25 0.25,-0.969 c 0,0 1.158,-4.387 5.437,-9.156 4.28,-4.769 11.717,-10.004 24.219,-11.906 l 1.625,-0.25 -0.531,1.562 c -5.992,17.976 -17.928,21.32 -24.782,21.469 -0.389,0.009 -0.768,0.009 -1.125,0 m 197.501,4.719 c -2.792,-0.225 -4.917,-2.615 -5.844,-4.969 -0.495,-1.255 -0.69,-2.568 -0.25,-3.75 0.439,-1.182 1.679,-2.031 3.25,-2.031 1.662,0 3.013,0.659 3.906,1.625 0.893,0.966 1.367,2.19 1.656,3.344 0.579,2.306 0.375,4.531 0.375,4.531 l -0.062,0.594 -0.531,0.218 c -0.645,0.275 -1.308,0.422 -1.938,0.438 -0.191,0.005 -0.377,0.014 -0.562,0 m -211.563,0 c -0.63,-0.016 -1.292,-0.163 -1.938,-0.438 l -0.531,-0.218 -0.062,-0.594 c 0,0 -0.204,-2.225 0.375,-4.531 0.289,-1.154 0.764,-2.378 1.656,-3.344 0.892,-0.966 2.245,-1.625 3.906,-1.625 1.57,0 2.811,0.849 3.25,2.031 0.44,1.182 0.245,2.495 -0.25,3.75 -0.989,2.511 -3.337,5.046 -6.406,4.969 m 258.906,3.687 c -4.081,0.061 -7.525,-1.951 -9.094,-4.281 -0.784,-1.165 -1.148,-2.635 -0.406,-3.812 0.742,-1.178 2.268,-1.688 4.375,-1.688 4.568,0 6.942,2.182 7.875,4.344 0.934,2.162 0.625,4.25 0.625,4.25 l -0.094,0.687 -0.656,0.157 c -0.878,0.219 -1.777,0.331 -2.625,0.343 m -305.687,0 c -0.848,-0.012 -1.748,-0.124 -2.625,-0.343 l -0.656,-0.157 -0.094,-0.687 c 0,0 -0.309,-2.088 0.625,-4.25 0.933,-2.162 3.307,-4.344 7.875,-4.344 2.107,0 3.633,0.51 4.375,1.688 0.741,1.177 0.378,2.647 -0.406,3.812 -1.569,2.33 -5.013,4.342 -9.094,4.281 M 158.5,69.219 c -2.089,-0.088 -5.422,-0.823 -9.313,-3.781 -4.446,-3.382 -9.614,-9.632 -14.656,-21.032 l -0.844,-1.875 2,0.5 c 0,0 6.024,1.511 12.25,5.344 6.227,3.833 12.787,10.09 13.625,19.594 l 0.063,0.844 -0.813,0.218 c 0,0 -0.597,0.154 -1.5,0.188 -0.246,0.009 -0.513,0.012 -0.812,0 m -296.437,0 c -0.903,-0.034 -1.5,-0.188 -1.5,-0.188 l -0.813,-0.218 0.063,-0.844 c 0.838,-9.504 7.398,-15.761 13.624,-19.594 6.227,-3.833 12.25,-5.344 12.25,-5.344 l 2,-0.5 -0.843,1.875 c -5.042,11.4 -10.21,17.65 -14.657,21.032 -4.446,3.381 -8.158,3.855 -10.124,3.781 M 191.156,74.688 190,74.656 c -13.027,-0.383 -19.76,-4.044 -23.188,-7.781 -3.427,-3.737 -3.468,-7.594 -3.468,-7.594 v -0.906 l 0.906,-0.094 c 0,0 7.678,-0.76 16.156,0.782 4.61,0.837 7.27,4.568 8.75,7.937 1.481,3.369 1.875,6.531 1.875,6.531 z m -360.937,0 0.125,-1.157 c 0,0 0.394,-3.162 1.875,-6.531 1.48,-3.369 4.14,-7.1 8.75,-7.937 8.478,-1.542 16.156,-0.782 16.156,-0.782 l 0.906,0.094 v 0.906 c 0,0 -0.041,3.857 -3.468,7.594 -3.428,3.737 -10.161,7.398 -23.188,7.781 z m 313.25,0.968 c -2.789,-0.079 -6.684,-1.325 -10.813,-5.781 -4.129,-4.456 -8.554,-12.079 -12.625,-25.031 l -0.593,-2 1.937,0.75 c 0,0 4.301,1.683 9.75,6.25 5.449,4.566 12.123,12.068 17,23.719 l 0.344,0.812 -0.782,0.438 c 0,0 -1.291,0.716 -3.312,0.843 -0.289,0.019 -0.589,0.009 -0.906,0 m -266.469,0 c -2.021,-0.127 -3.313,-0.843 -3.313,-0.843 l -0.781,-0.438 0.344,-0.812 c 4.877,-11.651 11.551,-19.153 17,-23.719 5.449,-4.567 9.75,-6.25 9.75,-6.25 l 1.937,-0.75 -0.593,2 c -4.071,12.952 -8.496,20.575 -12.625,25.031 -4.13,4.456 -8.023,5.702 -10.813,5.781 -0.317,0.009 -0.617,0.019 -0.906,0 m 287.031,24.438 -1.562,-0.563 c 0,0 -8.969,-3.239 -8.969,-11.531 0,-7.625 0.75,-15.187 0.75,-15.187 l 0.25,-2.438 1.531,1.906 c 0,0 1.545,1.906 3.094,4.313 1.549,2.407 3.187,5.2 3.187,7.625 0,1.758 0.376,5.39 0.75,8.5 0.375,3.109 0.75,5.75 0.75,5.75 z m -306.687,0 0.219,-1.625 c 0,0 0.376,-2.641 0.75,-5.75 0.373,-3.11 0.75,-6.742 0.75,-8.5 0,-2.425 1.639,-5.218 3.187,-7.625 1.548,-2.407 3.094,-4.313 3.094,-4.313 l 1.531,-1.906 0.25,2.438 c 0,0 0.75,7.562 0.75,15.187 0,8.292 -8.969,11.531 -8.969,11.531 z m 333.562,7.25 c -2.16,-0.037 -4.385,-1.186 -6.656,-2.75 -2.271,-1.565 -4.571,-3.6 -6.625,-5.625 -4.106,-4.051 -7.281,-8.063 -7.281,-8.063 l -0.063,-0.062 -0.031,-0.063 c 0,0 -2.46,-4.374 -4.375,-8.687 -0.958,-2.157 -1.779,-4.275 -2.094,-5.969 -0.157,-0.848 -0.246,-1.594 0.063,-2.344 0.154,-0.375 0.461,-0.768 0.875,-0.968 0.414,-0.201 0.859,-0.227 1.281,-0.157 2.596,0.433 6.903,2.356 11.406,4.938 4.503,2.582 9.087,5.813 11.875,9 2.908,3.323 3.834,8.24 4.125,12.312 0.291,4.073 -0.094,7.375 -0.094,7.375 l -0.093,0.625 -0.594,0.188 c -0.563,0.187 -1.153,0.26 -1.719,0.25 m -360.437,0 c -0.566,0.01 -1.156,-0.063 -1.719,-0.25 l -0.594,-0.188 -0.093,-0.625 c 0,0 -0.385,-3.302 -0.094,-7.375 0.291,-4.072 1.217,-8.989 4.125,-12.312 2.788,-3.187 7.372,-6.418 11.875,-9 4.503,-2.582 8.81,-4.505 11.406,-4.938 0.422,-0.07 0.867,-0.044 1.281,0.157 0.415,0.2 0.721,0.593 0.875,0.968 0.308,0.75 0.22,1.496 0.063,2.344 -0.315,1.694 -1.136,3.812 -2.094,5.969 -1.915,4.313 -4.375,8.687 -4.375,8.687 l -0.031,0.063 -0.063,0.062 c 0,0 -3.174,4.012 -7.281,8.063 -2.053,2.025 -4.354,4.06 -6.625,5.625 -2.271,1.564 -4.496,2.713 -6.656,2.75"
       fill="#435024"
       transform="matrix(1.3333333,0,0,-1.3333333,547.20827,636.0416)"
       id="path4" />
    <path
       clip-path="url(#b)"
       d="M 0,0 C -0.586,-0.009 -1.189,-0.104 -1.812,-0.312 -3.06,-0.728 -4.313,-1.943 -4.625,-3.5 c -0.173,-0.865 -2.06,-3.691 -3.969,-5.781 -1.54,-1.687 -2.482,-2.523 -3,-3 -1.329,0.374 -4.317,1.167 -8.187,1.562 -2.439,0.249 -4.995,0.298 -7.313,-0.25 -2.317,-0.548 -4.605,-1.909 -5.437,-4.406 -0.813,-2.437 -4.992,-6.953 -8.969,-10.375 -3.832,-3.297 -7.149,-5.601 -7.406,-5.781 l -12.313,-2.157 -0.812,-0.156 -0.5,-0.656 -4.782,-6.844 -11.937,-1.406 -1.313,-0.156 -0.375,-1.219 c 0,0 -0.704,-2.298 -1.968,-4.406 -0.633,-1.054 -1.417,-2.008 -2.157,-2.594 -0.739,-0.586 -1.3,-0.788 -2,-0.688 -3.13,0.448 -7.47,0.012 -11.218,-0.468 -3.748,-0.481 -6.813,-1.063 -6.813,-1.063 l -2.25,-0.437 0.719,-2.157 c 0,0 0.027,0.036 0,-0.375 -0.027,-0.41 -0.141,-1.096 -0.719,-2 -1.156,-1.807 -4.288,-4.624 -12.344,-7.187 -16.206,-5.156 -26.846,-13.413 -27.874,-14.219 -7.846,1.358 -12.808,1.464 -15.813,1.063 -1.566,-0.209 -2.662,-0.552 -3.406,-0.875 -0.372,-0.162 -0.656,-0.323 -0.875,-0.469 -0.22,-0.146 -0.469,-0.344 -0.469,-0.344 l -0.094,-0.094 -0.062,-0.093 c 0,0 -2.727,-3.456 -6.813,-6.907 -4.086,-3.45 -9.482,-6.687 -14.312,-6.687 -5.935,0 -9.259,-1.288 -11.531,-2.375 -2.273,-1.087 -3.056,-1.755 -5.594,-1.438 -6.695,0.837 -11.959,-3.636 -12.938,-4.5 l -36.125,1.5 c -0.25,0.08 -3.482,1.084 -7.531,2.188 -4.202,1.146 -8.757,2.344 -11.687,2.344 -1.495,0 -5.49,1.248 -10.594,2.5 -5.104,1.252 -11.55,2.423 -19,2.031 -6.397,-0.336 -15.538,3.255 -22.875,7.062 -7.338,3.809 -12.906,7.688 -12.906,7.688 l -2.844,2 -0.281,-3.469 -1.5,-18.875 -0.063,-0.719 0.406,-0.593 6.375,-9.219 c -0.05,-0.978 -0.762,-13.882 -6.062,-24.656 -2.752,-5.593 -6.624,-10.337 -12.063,-12.5 -5.439,-2.163 -12.686,-1.936 -22.75,3.187 -10.614,5.404 -19.277,7.317 -26.406,6.875 -7.129,-0.441 -12.676,-3.292 -16.781,-7.093 -8.211,-7.603 -11.093,-18.942 -12.5,-22.813 -2.55,-7.012 -10.067,-8.433 -10.438,-8.5 -0.659,0.056 -17.786,1.5 -24.75,1.5 -0.927,0 -2.175,0.612 -3.5,1.906 -1.325,1.295 -2.622,3.169 -3.75,5.063 -2.255,3.788 -3.75,7.625 -3.75,7.625 l -3.812,-1 3.031,-19.656 v -0.125 l 0.063,-0.125 3.781,-12.875 0.25,-0.907 0.875,-0.343 7.719,-3.219 -1.375,-12.125 -0.063,-0.594 0.281,-0.531 3.563,-7.094 v -7.125 -1.687 l 1.687,-0.282 8.219,-1.25 0.688,-12 0.031,-0.75 0.531,-0.562 4.438,-4.438 0.093,-0.093 15.032,-17.282 0.562,-0.656 0.844,-0.031 16.5,-0.719 6.25,-7.625 0.406,-0.5 0.656,-0.156 8.782,-2.219 6.593,-3.656 0.125,-0.063 0.094,-0.031 c 0,0 3.525,-1.397 8.656,-5.062 1.465,-1.046 2.561,-1.642 3.875,-1.719 0.657,-0.038 1.424,0.136 2,0.562 0.576,0.426 0.901,0.985 1.063,1.469 0.253,0.761 0.146,1.298 0.094,1.813 l 5.75,3.843 0.062,0.032 7.094,4.25 7.437,0.687 6.657,-2.687 11.25,-10.5 v -7.469 h 0.031 c -0.021,-0.191 -0.205,-1.771 0,-3.719 0.108,-1.031 0.302,-2.116 0.812,-3.187 0.51,-1.072 1.482,-2.23 2.938,-2.594 2.872,-0.718 1.984,-0.813 8.031,-0.813 3.852,0 6.416,2.527 7.75,4.75 1.334,2.225 1.781,4.407 1.781,4.407 l 0.031,0.187 v 0.219 11.125 c 0.159,0.529 1.5,5.052 1.5,8.531 0,0.177 0.064,0.337 0.344,0.656 0.28,0.321 0.775,0.694 1.312,1 0.987,0.565 1.837,0.857 2,0.907 0,0 0.093,0.031 0.094,0.031 0.004,0.001 0.094,0.031 0.094,0.031 0.165,0.03 2.09,0.374 4.531,1.031 2.545,0.686 5.427,1.532 7.469,3.063 2.654,1.99 5.253,2.641 5.312,2.656 l 9.344,2.188 10.563,-2.813 8.062,-5.156 1.969,-1.25 0.906,2.156 2.063,4.813 4.406,3.093 11.5,0.719 0.906,0.063 0.563,0.718 4.187,5.625 9.282,3.532 0.312,0.125 0.282,0.25 4.687,4.031 h 9.125 0.813 l 0.593,0.594 3.688,3.687 0.094,0.094 6.312,5.594 13.031,2.156 1.75,0.312 -0.093,1.75 c -0.743,14.459 1.847,23.741 4.531,29.375 2.347,4.93 4.314,6.663 4.844,7.094 h 4.5 c 0,0 2.606,-0.038 5.156,-1.312 1.17,-0.586 2.519,-0.642 3.562,-0.25 1.043,0.391 1.762,1.101 2.282,1.75 0.71,0.889 0.801,1.343 1,1.843 l 2.468,1.407 0.219,-1.094 0.25,-1.188 1.156,-0.312 8.032,-2.188 c 0.252,-0.158 5.894,-3.699 9.625,-5.937 1.906,-1.144 3.092,-2.052 4.875,-2.25 0.89,-0.099 2.242,0.407 2.812,1.312 0.569,0.906 0.625,1.735 0.625,2.657 0,0.849 0.584,2.638 1.281,4.031 0.69,1.38 1.393,2.355 1.407,2.375 V -194 l 5.218,5.875 9.688,-0.656 5.562,-4.844 0.438,-0.375 0.593,-0.094 c 0,0 5.297,-0.769 8.094,-1.468 3.856,-0.964 6.875,1.031 6.875,1.031 l 1.125,0.75 -0.281,1.312 -2.25,10.594 -0.063,0.313 -0.156,0.25 -5.312,9.093 -0.219,0.375 -0.375,0.282 -6.156,4.093 c -0.189,1.065 -0.616,2.942 -2.094,5.75 -2.039,3.873 -5.873,8.853 -12.938,13.563 -2.92,1.947 -4.364,4.694 -4.999,8 -0.637,3.306 -0.35,7.13 0.375,10.75 1.419,7.102 4.384,13.111 4.499,13.343 l 3.907,4.563 11.468,2.875 9.094,2.25 1.156,0.281 0.282,1.156 1.218,4.938 4.188,1.219 0.719,0.187 0.406,0.594 2.937,4.437 0.063,0.094 0.031,0.031 5.188,6.688 0.093,0.094 0.063,0.093 6.094,10.188 3.187,-0.563 1.219,-0.187 0.719,0.969 6.125,8.218 9.531,-0.687 1.062,-0.094 0.625,0.844 5.125,6.594 7.313,5.093 0.312,0.219 0.188,0.313 2.437,3.656 h 6.5 0.469 l 0.406,0.219 3.032,1.5 0.531,0.25 0.281,0.5 2.282,3.781 0.187,0.312 0.063,0.375 1.25,7.563 9.031,0.625 1.656,0.125 0.187,1.656 0.563,5.782 h 11.063 1.968 v 1.968 6.375 l 7.281,3.969 0.969,0.531 0.063,1.094 0.781,12.094 0.062,1.375 -1.25,0.562 c 0,0 -1.858,0.849 -4,1.188 C 1.152,-0.072 0.586,0.009 0,0"
       fill="#d87503"
       transform="matrix(1.3333333,0,0,-1.3333333,918.5416,105.29173)"
       id="path5" />
  </g>
</svg>
