<svg height="1333.3333" viewBox="0 0 2000 1333.3333" width="2000" xmlns="http://www.w3.org/2000/svg" xmlns:xlink="http://www.w3.org/1999/xlink"><clipPath id="a"><path d="m0 1000h1500v-1000h-1500z" transform="translate(-750.00002 -742.25002)"/></clipPath><clipPath id="b"><path d="m0 1000h1500v-1000h-1500z" transform="translate(-750.00002 -742.25002)"/></clipPath><path d="m0 0h1500v1000h-1500z" fill="#00267f" transform="matrix(1.3333333 0 0 -1.3333333 0 1333.3333)"/><path d="m500 0h499.999v1000h-499.999z" fill="#ffc726" transform="matrix(1.3333333 0 0 -1.3333333 0 1333.3333)"/><path clip-path="url(#a)" d="m0 0c-16.25-44.313-32.813-90.438-68.25-125.75 11 3.625 30.25 6.875 42.625 6.562v-186.374l-52.625-7.813c-1.875.188-2.5 3.125-2.5 7.125-5.063 57.875-18.75 106.5-34.5 156.813-1.125 6.875-21.062 33.124-5.688 28.499 1.875-.25 22.438-8.624 19.188-4.625-28 29-68.937 49.875-108.687 56.063-3.5.875-5.563-.875-2.438-4.938 52.75-81.187 96.875-176.999 96.5-290.687 20.5 0 70.187 12.125 90.75 12.125v-131.5h25.937l5.938 367.25z" transform="matrix(1.3333333 0 0 -1.3333333 1000 343.66667)"/><path clip-path="url(#b)" d="m0 0c16.25-44.313 32.813-90.438 68.25-125.75-11 3.625-30.25 6.875-42.625 6.562v-186.374l52.625-7.813c1.875.188 2.5 3.125 2.5 7.125 5.063 57.875 18.75 106.5 34.5 156.813 1.125 6.875 21.062 33.124 5.688 28.499-1.875-.25-22.438-8.624-19.188-4.625 28 29 68.937 49.875 108.687 56.063 3.5.875 5.563-.875 2.438-4.938-52.75-81.187-96.875-176.999-96.5-290.687-20.5 0-70.187 12.125-90.75 12.125v-131.5h-25.937l-5.938 367.25z" transform="matrix(1.3333333 0 0 -1.3333333 1000 343.66667)"/></svg>