<svg height="800" viewBox="0 0 1200 800" width="1200" xmlns="http://www.w3.org/2000/svg" xmlns:xlink="http://www.w3.org/1999/xlink"><clipPath id="a"><path d="m0 600h900v-600h-900z" transform="translate(-562.50001 -480.00001)"/></clipPath><clipPath id="b"><path d="m0 600h900v-600h-900z" transform="translate(-498.89061 -464.22071)"/></clipPath><clipPath id="c"><path d="m0 600h900v-600h-900z" transform="translate(-628.13572 -434.69141)"/></clipPath><path d="m0 0h900v600h-900z" fill="#fff" transform="matrix(1.3333333 0 0 -1.3333333 0 800)"/><path d="m225 0h675v600h-675z" fill="#01411c" transform="matrix(1.3333333 0 0 -1.3333333 0 800)"/><path clip-path="url(#a)" d="m0 0c99.411 0 180-80.589 180-180s-80.589-180-180-180-180 80.589-180 180 80.589 180 180 180" fill="#fff" transform="matrix(1.3333333 0 0 -1.3333333 750 160)"/><path clip-path="url(#b)" d="m0 0c68.108 60.542 172.4 54.407 232.942-13.703 60.541-68.109 54.407-172.401-13.702-232.943-68.109-60.541-172.401-54.406-232.943 13.704-60.541 68.109-54.406 172.4 13.703 232.942" fill="#01411c" transform="matrix(1.3333333 0 0 -1.3333333 665.18747 181.03907)"/><path clip-path="url(#c)" d="m0 0 75.822-85.299-111.479 24.441 104.554 45.752-57.694-98.47z" fill="#fff" transform="matrix(1.3333333 0 0 -1.3333333 837.51427 220.41147)"/></svg>