<svg height="800" viewBox="0 0 1200 800" width="1200" xmlns="http://www.w3.org/2000/svg"><path d="m0 0h900v600h-900z" fill="#215b33" transform="matrix(1.3333333 0 0 -1.3333333 0 800)"/><path d="m0 0v-600l900 600z" fill="#0051ba" transform="matrix(1.3333333 0 0 -1.3333333 0 -.0004)"/><path d="m0 0-900-600z" transform="matrix(1.3333333 0 0 -1.3333333 1200 -.0004)"/><path d="m0 0-870.653-580.435v-19.565h29.347l870.653 580.435v19.565z" fill="#fcd116" transform="matrix(1.3333333 0 0 -1.3333333 1160.8711 -.0004)"/><g fill="#fff"><path d="m0 0-16.228-49.945 24.972-8.114z" transform="matrix(1.3333333 0 0 -1.3333333 250.80733 156.4472)"/><path d="m0 0 16.228-49.945-24.973-8.114z" transform="matrix(1.3333333 0 0 -1.3333333 250.80733 156.4472)"/><path d="m0 0h-52.515v-26.257z" transform="matrix(1.3333333 0 0 -1.3333333 317.39973 204.83013)"/><path d="m0 0-42.485-30.867-15.434 21.242z" transform="matrix(1.3333333 0 0 -1.3333333 317.39973 204.83013)"/><path d="m0 0 42.485-30.867 15.434 21.242z" transform="matrix(1.3333333 0 0 -1.3333333 184.21413 204.83013)"/><path d="m0 0h52.515v-26.257z" transform="matrix(1.3333333 0 0 -1.3333333 184.21413 204.83013)"/><path d="m0 0-16.228 49.945-24.972-8.114z" transform="matrix(1.3333333 0 0 -1.3333333 291.9636 283.11453)"/><path d="m0 0-42.485 30.868 15.433 21.242z" transform="matrix(1.3333333 0 0 -1.3333333 291.9636 283.11453)"/><path d="m0 0 42.485 30.868-15.433 21.242z" transform="matrix(1.3333333 0 0 -1.3333333 209.6504 283.11453)"/><path d="m0 0 16.228 49.945 24.972-8.114z" transform="matrix(1.3333333 0 0 -1.3333333 209.6504 283.11453)"/><path d="m0 0-16.228-49.945 24.973-8.114z" transform="matrix(1.3333333 0 0 -1.3333333 389.03387 37.972)"/><path d="m0 0 16.228-49.945-24.972-8.114z" transform="matrix(1.3333333 0 0 -1.3333333 389.03387 37.972)"/><path d="m0 0h-52.515v-26.258z" transform="matrix(1.3333333 0 0 -1.3333333 455.62693 86.3548)"/><path d="m0 0-42.485-30.868-15.434 21.243z" transform="matrix(1.3333333 0 0 -1.3333333 455.62693 86.3548)"/><path d="m0 0 42.486-30.868 15.433 21.243z" transform="matrix(1.3333333 0 0 -1.3333333 322.4408 86.3548)"/><path d="m0 0h52.515v-26.258z" transform="matrix(1.3333333 0 0 -1.3333333 322.4408 86.3548)"/><path d="m0 0-16.228 49.945-24.973-8.114z" transform="matrix(1.3333333 0 0 -1.3333333 430.1908 164.64)"/><path d="m0 0-42.485 30.868 15.433 21.242z" transform="matrix(1.3333333 0 0 -1.3333333 430.1908 164.64)"/><path d="m0 0 42.486 30.868-15.434 21.242z" transform="matrix(1.3333333 0 0 -1.3333333 347.87693 164.64)"/><path d="m0 0 16.228 49.945 24.973-8.114z" transform="matrix(1.3333333 0 0 -1.3333333 347.87693 164.64)"/><path d="m0 0-16.228-49.945 24.973-8.114z" transform="matrix(1.3333333 0 0 -1.3333333 389.03387 274.92187)"/><path d="m0 0 16.228-49.945-24.972-8.114z" transform="matrix(1.3333333 0 0 -1.3333333 389.03387 274.92187)"/><path d="m0 0h-52.515v-26.257z" transform="matrix(1.3333333 0 0 -1.3333333 455.62693 323.30467)"/><path d="m0 0-42.485-30.868-15.434 21.243z" transform="matrix(1.3333333 0 0 -1.3333333 455.62693 323.30467)"/><path d="m0 0 42.486-30.868 15.433 21.243z" transform="matrix(1.3333333 0 0 -1.3333333 322.4408 323.30467)"/><path d="m0 0h52.515v-26.257z" transform="matrix(1.3333333 0 0 -1.3333333 322.4408 323.30467)"/><path d="m0 0-16.228 49.945-24.973-8.114z" transform="matrix(1.3333333 0 0 -1.3333333 430.1908 401.58987)"/><path d="m0 0-42.485 30.868 15.433 21.243z" transform="matrix(1.3333333 0 0 -1.3333333 430.1908 401.58987)"/><path d="m0 0 42.486 30.868-15.434 21.243z" transform="matrix(1.3333333 0 0 -1.3333333 347.87693 401.58987)"/><path d="m0 0 16.228 49.945 24.973-8.114z" transform="matrix(1.3333333 0 0 -1.3333333 347.87693 401.58987)"/><path d="m0 0-16.228-49.945 24.972-8.114z" transform="matrix(1.3333333 0 0 -1.3333333 112.58013 274.92187)"/><path d="m0 0 16.228-49.945-24.972-8.114z" transform="matrix(1.3333333 0 0 -1.3333333 112.58013 274.92187)"/><path d="m0 0h-52.515v-26.257z" transform="matrix(1.3333333 0 0 -1.3333333 179.1732 323.30467)"/><path d="m0 0-42.486-30.868-15.433 21.243z" transform="matrix(1.3333333 0 0 -1.3333333 179.1732 323.30467)"/><path d="m0 0 42.486-30.868 15.433 21.243z" transform="matrix(1.3333333 0 0 -1.3333333 45.986933 323.30467)"/><path d="m0 0h52.515v-26.257z" transform="matrix(1.3333333 0 0 -1.3333333 45.986933 323.30467)"/><path d="m0 0-16.228 49.945-24.973-8.114z" transform="matrix(1.3333333 0 0 -1.3333333 153.73693 401.58987)"/><path d="m0 0-42.486 30.868 15.434 21.243z" transform="matrix(1.3333333 0 0 -1.3333333 153.73693 401.58987)"/><path d="m0 0 42.486 30.868-15.434 21.243z" transform="matrix(1.3333333 0 0 -1.3333333 71.4232 401.58987)"/><path d="m0 0 16.228 49.945 24.973-8.114z" transform="matrix(1.3333333 0 0 -1.3333333 71.4232 401.58987)"/><path d="m0 0-16.228-49.945 24.972-8.114z" transform="matrix(1.3333333 0 0 -1.3333333 112.58013 37.972)"/><path d="m0 0 16.228-49.945-24.972-8.114z" transform="matrix(1.3333333 0 0 -1.3333333 112.58013 37.972)"/><path d="m0 0h-52.515v-26.258z" transform="matrix(1.3333333 0 0 -1.3333333 179.1732 86.3548)"/><path d="m0 0-42.486-30.868-15.433 21.243z" transform="matrix(1.3333333 0 0 -1.3333333 179.1732 86.3548)"/><path d="m0 0 42.486-30.868 15.433 21.243z" transform="matrix(1.3333333 0 0 -1.3333333 45.986933 86.3548)"/><path d="m0 0h52.515v-26.258z" transform="matrix(1.3333333 0 0 -1.3333333 45.986933 86.3548)"/><path d="m0 0-16.228 49.945-24.973-8.114z" transform="matrix(1.3333333 0 0 -1.3333333 153.73693 164.64)"/><path d="m0 0-42.486 30.868 15.434 21.242z" transform="matrix(1.3333333 0 0 -1.3333333 153.73693 164.64)"/><g transform="matrix(1.3333333 0 0 -1.3333333 71.4232 164.64)"><path d="m0 0 42.486 30.868-15.434 21.242z"/><path d="m0 0 16.228 49.945 24.973-8.114z"/></g></g></svg>