<svg height="1200" viewBox="0 0 1800 1200" width="1800" xmlns="http://www.w3.org/2000/svg" xmlns:xlink="http://www.w3.org/1999/xlink"><clipPath id="a"><path d="m0 900h1350v-900h-1350z" transform="translate(-675.00002 -570.00001)"/></clipPath><clipPath id="b"><path d="m0 900h1350v-900h-1350z" transform="translate(-675.00002 -555.00001)"/></clipPath><clipPath id="c"><path d="m0 900h1350v-900h-1350z" transform="translate(-675.00002 -471.00001)"/></clipPath><clipPath id="d"><path d="m0 900h1350v-900h-1350z" transform="translate(-779.78709 -441.50001)"/></clipPath><clipPath id="e"><path d="m0 900h1350v-900h-1350z" transform="translate(-675.00002 -345.00001)"/></clipPath><clipPath id="f"><path d="m0 900h1350v-900h-1350z" transform="translate(-774.01659 -414.66891)"/></clipPath><clipPath id="g"><path d="m0 900h1350v-900h-1350z" transform="translate(-647.82422 -348.57811)"/></clipPath><clipPath id="h"><path d="m0 900h1350v-900h-1350z" transform="translate(-761.49804 -390.24511)"/></clipPath><clipPath id="i"><path d="m0 900h1350v-900h-1350z" transform="translate(-622.50002 -359.06741)"/></clipPath><clipPath id="j"><path d="m0 900h1350v-900h-1350z" transform="translate(-743.08502 -369.89361)"/></clipPath><clipPath id="k"><path d="m0 900h1350v-900h-1350z" transform="translate(-600.75392 -375.75391)"/></clipPath><clipPath id="l"><path d="m0 900h1350v-900h-1350z" transform="translate(-720.03222 -355.00201)"/></clipPath><clipPath id="m"><path d="m0 900h1350v-900h-1350z" transform="translate(-584.06741 -397.50001)"/></clipPath><clipPath id="n"><path d="m0 900h1350v-900h-1350z" transform="translate(-693.91022 -346.58401)"/></clipPath><clipPath id="o"><path d="m0 900h1350v-900h-1350z" transform="translate(-573.57761 -422.82421)"/></clipPath><clipPath id="p"><path d="m0 900h1350v-900h-1350z" transform="translate(-666.50002 -345.21291)"/></clipPath><clipPath id="q"><path d="m0 900h1350v-900h-1350z" transform="translate(-570.00001 -450.00001)"/></clipPath><clipPath id="r"><path d="m0 900h1350v-900h-1350z" transform="translate(-639.66851 -350.98341)"/></clipPath><clipPath id="s"><path d="m0 900h1350v-900h-1350z" transform="translate(-573.57761 -477.17581)"/></clipPath><clipPath id="t"><path d="m0 900h1350v-900h-1350z" transform="translate(-615.24512 -363.50201)"/></clipPath><clipPath id="u"><path d="m0 900h1350v-900h-1350z" transform="translate(-584.06741 -502.50001)"/></clipPath><clipPath id="v"><path d="m0 900h1350v-900h-1350z" transform="translate(-594.89401 -381.91501)"/></clipPath><clipPath id="w"><path d="m0 900h1350v-900h-1350z" transform="translate(-600.75392 -524.24611)"/></clipPath><clipPath id="x"><path d="m0 900h1350v-900h-1350z" transform="translate(-580.00201 -404.96781)"/></clipPath><clipPath id="y"><path d="m0 900h1350v-900h-1350z" transform="translate(-622.50002 -540.93262)"/></clipPath><clipPath id="z"><path d="m0 900h1350v-900h-1350z" transform="translate(-571.58351 -431.08981)"/></clipPath><clipPath id="A"><path d="m0 900h1350v-900h-1350z" transform="translate(-647.82422 -551.42242)"/></clipPath><clipPath id="B"><path d="m0 900h1350v-900h-1350z" transform="translate(-570.21292 -458.50001)"/></clipPath><clipPath id="C"><path d="m0 900h1350v-900h-1350z" transform="translate(-675.00002 -555.00001)"/></clipPath><clipPath id="D"><path d="m0 900h1350v-900h-1350z" transform="translate(-575.98342 -485.33151)"/></clipPath><clipPath id="E"><path d="m0 900h1350v-900h-1350z" transform="translate(-702.17582 -551.42242)"/></clipPath><clipPath id="F"><path d="m0 900h1350v-900h-1350z" transform="translate(-588.50201 -509.75491)"/></clipPath><clipPath id="G"><path d="m0 900h1350v-900h-1350z" transform="translate(-727.50002 -540.93262)"/></clipPath><clipPath id="H"><path d="m0 900h1350v-900h-1350z" transform="translate(-606.91502 -530.10601)"/></clipPath><clipPath id="I"><path d="m0 900h1350v-900h-1350z" transform="translate(-749.24612 -524.24611)"/></clipPath><clipPath id="J"><path d="m0 900h1350v-900h-1350z" transform="translate(-629.96782 -544.99801)"/></clipPath><clipPath id="K"><path d="m0 900h1350v-900h-1350z" transform="translate(-765.93264 -502.50001)"/></clipPath><clipPath id="L"><path d="m0 900h1350v-900h-1350z" transform="translate(-656.08982 -553.41652)"/></clipPath><clipPath id="M"><path d="m0 900h1350v-900h-1350z" transform="translate(-776.42192 -477.17581)"/></clipPath><clipPath id="N"><path d="m0 900h1350v-900h-1350z" transform="translate(-683.50001 -554.78711)"/></clipPath><clipPath id="O"><path d="m0 900h1350v-900h-1350z" transform="translate(-780.00002 -450.00001)"/></clipPath><clipPath id="P"><path d="m0 900h1350v-900h-1350z" transform="translate(-710.33112 -549.01661)"/></clipPath><clipPath id="Q"><path d="m0 900h1350v-900h-1350z" transform="translate(-776.42192 -422.82421)"/></clipPath><clipPath id="R"><path d="m0 900h1350v-900h-1350z" transform="translate(-734.75492 -536.49802)"/></clipPath><clipPath id="S"><path d="m0 900h1350v-900h-1350z" transform="translate(-765.93264 -397.50001)"/></clipPath><clipPath id="T"><path d="m0 900h1350v-900h-1350z" transform="translate(-755.10639 -518.08501)"/></clipPath><clipPath id="U"><path d="m0 900h1350v-900h-1350z" transform="translate(-749.24612 -375.75391)"/></clipPath><clipPath id="V"><path d="m0 900h1350v-900h-1350z" transform="translate(-769.99802 -495.03221)"/></clipPath><clipPath id="W"><path d="m0 900h1350v-900h-1350z" transform="translate(-727.50002 -359.06741)"/></clipPath><clipPath id="X"><path d="m0 900h1350v-900h-1350z" transform="translate(-778.41602 -468.91021)"/></clipPath><clipPath id="Y"><path d="m0 900h1350v-900h-1350z" transform="translate(-702.17582 -348.57811)"/></clipPath><g transform="matrix(1.3333333 0 0 -1.3333333 0 1200)"><path d="m0 0h1350v900h-1350z" fill="#f93"/><path d="m0 300h1350v300.001h-1350z" fill="#fff"/><path d="m0 0h1350v300h-1350z" fill="#128807"/></g><path clip-path="url(#a)" d="m0 0c66.274 0 120-53.726 120-120s-53.726-120-120-120-120 53.726-120 120 53.726 120 120 120" fill="#008" transform="matrix(1.3333333 0 0 -1.3333333 900 440)"/><path clip-path="url(#b)" d="m0 0c57.99 0 105-47.01 105-105s-47.01-105-105-105-105 47.01-105 105 47.01 105 105 105" fill="#fff" transform="matrix(1.3333333 0 0 -1.3333333 900 460)"/><g fill="#008"><path clip-path="url(#c)" d="m0 0c11.598 0 21-9.402 21-21s-9.402-21-21-21-21 9.402-21 21 9.402 21 21 21" transform="matrix(1.3333333 0 0 -1.3333333 900 572)"/><path clip-path="url(#d)" d="m0 0c2.875-.379 4.898-3.016 4.52-5.891s-3.016-4.898-5.891-4.519c-2.874.378-4.898 3.015-4.52 5.89.379 2.874 3.016 4.898 5.891 4.52" transform="matrix(1.3333333 0 0 -1.3333333 1039.7161 611.33333)"/><path clip-path="url(#e)" d="m0 0 3.6 63-3.6 30-3.6-30z" transform="matrix(1.3333333 0 0 -1.3333333 900 740)"/><path clip-path="url(#f)" d="m0 0c2.679-1.11 3.951-4.181 2.841-6.859-1.11-2.68-4.181-3.952-6.86-2.842-2.678 1.109-3.95 4.18-2.84 6.859 1.109 2.679 4.18 3.951 6.859 2.842" transform="matrix(1.3333333 0 0 -1.3333333 1032.0221 647.10813)"/><path clip-path="url(#g)" d="m0 0 19.783 59.921 4.287 29.91-11.242-28.046z" transform="matrix(1.3333333 0 0 -1.3333333 863.7656 735.2292)"/><path clip-path="url(#h)" d="m0 0c2.301-1.765 2.734-5.061.969-7.361s-5.061-2.735-7.361-.969c-2.3 1.765-2.734 5.06-.969 7.361 1.765 2.3 5.061 2.735 7.361.969" transform="matrix(1.3333333 0 0 -1.3333333 1015.3307 679.6732)"/><path clip-path="url(#i)" d="m0 0 34.618 52.76 11.882 27.78-18.118-24.181z" transform="matrix(1.3333333 0 0 -1.3333333 830 721.24347)"/><path clip-path="url(#j)" d="m0 0c1.766-2.3 1.331-5.596-.969-7.36-2.301-1.766-5.596-1.332-7.361.968-1.766 2.3-1.331 5.596.969 7.362 2.3 1.764 5.596 1.331 7.361-.97" transform="matrix(1.3333333 0 0 -1.3333333 990.78 706.80853)"/><path clip-path="url(#k)" d="m0 0 47.093 42.002 18.668 23.759-23.759-18.668z" transform="matrix(1.3333333 0 0 -1.3333333 801.0052 698.9948)"/><path clip-path="url(#l)" d="m0 0c1.109-2.679-.162-5.75-2.842-6.859-2.679-1.111-5.749.162-6.859 2.84-1.11 2.679.163 5.75 2.842 6.86 2.678 1.109 5.75-.162 6.859-2.841" transform="matrix(1.3333333 0 0 -1.3333333 960.04293 726.664)"/><path clip-path="url(#m)" d="m0 0 56.359 28.382 24.182 18.118-27.781-11.882z" transform="matrix(1.3333333 0 0 -1.3333333 778.75653 670)"/><path clip-path="url(#n)" d="m0 0c.379-2.875-1.645-5.513-4.52-5.891-2.875-.379-5.511 1.645-5.89 4.52-.378 2.875 1.645 5.512 4.519 5.891 2.875.377 5.513-1.646 5.891-4.52" transform="matrix(1.3333333 0 0 -1.3333333 925.2136 737.888)"/><path clip-path="url(#o)" d="m0 0 61.785 12.828 28.046 11.242-29.909-4.288z" transform="matrix(1.3333333 0 0 -1.3333333 764.77013 636.2344)"/><path clip-path="url(#p)" d="m0 0c-.378-2.875-3.016-4.898-5.891-4.52-2.874.378-4.898 3.016-4.519 5.891.378 2.874 3.015 4.898 5.89 4.52 2.874-.379 4.898-3.016 4.52-5.891" transform="matrix(1.3333333 0 0 -1.3333333 888.66667 739.71613)"/><path clip-path="url(#q)" d="m0 0 63-3.6 30 3.6-30 3.6z" transform="matrix(1.3333333 0 0 -1.3333333 760 600)"/><path clip-path="url(#r)" d="m0 0c-1.109-2.679-4.181-3.951-6.859-2.841-2.679 1.11-3.951 4.181-2.842 6.86 1.11 2.678 4.181 3.95 6.86 2.84 2.679-1.109 3.951-4.18 2.841-6.859" transform="matrix(1.3333333 0 0 -1.3333333 852.89133 732.02213)"/><path clip-path="url(#s)" d="m0 0 59.922-19.783 29.909-4.287-28.046 11.242z" transform="matrix(1.3333333 0 0 -1.3333333 764.77013 563.7656)"/><path clip-path="url(#t)" d="m0 0c-1.765-2.301-5.061-2.734-7.361-.969-2.301 1.765-2.734 5.061-.969 7.361s5.06 2.734 7.361.969c2.3-1.765 2.734-5.061.969-7.361" transform="matrix(1.3333333 0 0 -1.3333333 820.3268 715.33067)"/><path clip-path="url(#u)" d="m0 0 52.76-34.618 27.781-11.882-24.182 18.118z" transform="matrix(1.3333333 0 0 -1.3333333 778.75653 530)"/><path clip-path="url(#v)" d="m0 0c-2.3-1.766-5.596-1.331-7.361.969-1.765 2.301-1.331 5.596.969 7.361 2.3 1.766 5.596 1.331 7.361-.969s1.331-5.596-.969-7.361" transform="matrix(1.3333333 0 0 -1.3333333 793.192 690.78)"/><path clip-path="url(#w)" d="m0 0 42.002-47.093 23.759-18.668-18.668 23.759z" transform="matrix(1.3333333 0 0 -1.3333333 801.0052 501.0052)"/><path clip-path="url(#x)" d="m0 0c-2.679-1.109-5.75.163-6.86 2.842-1.109 2.679.163 5.749 2.841 6.859 2.679 1.11 5.75-.163 6.86-2.842 1.11-2.678-.162-5.75-2.841-6.859" transform="matrix(1.3333333 0 0 -1.3333333 773.336 660.04293)"/><path clip-path="url(#y)" d="m0 0 28.382-56.359 18.118-24.182-11.882 27.781z" transform="matrix(1.3333333 0 0 -1.3333333 830 478.75653)"/><path clip-path="url(#z)" d="m0 0c-2.875-.379-5.512 1.645-5.89 4.52-.379 2.875 1.645 5.511 4.519 5.89 2.875.378 5.513-1.645 5.891-4.519.378-2.875-1.645-5.513-4.52-5.891" transform="matrix(1.3333333 0 0 -1.3333333 762.11133 625.2136)"/><path clip-path="url(#A)" d="m0 0 12.828-61.785 11.242-28.046-4.287 29.909z" transform="matrix(1.3333333 0 0 -1.3333333 863.7656 464.77013)"/><path clip-path="url(#B)" d="m0 0c-2.875.378-4.898 3.016-4.52 5.891.379 2.874 3.016 4.898 5.891 4.519 2.874-.378 4.898-3.015 4.52-5.89-.379-2.874-3.016-4.898-5.891-4.52" transform="matrix(1.3333333 0 0 -1.3333333 760.28387 588.66667)"/><path clip-path="url(#C)" d="m0 0-3.6-63 3.6-30 3.6 30z" transform="matrix(1.3333333 0 0 -1.3333333 900 460)"/><path clip-path="url(#D)" d="m0 0c-2.679 1.109-3.951 4.181-2.841 6.859 1.11 2.679 4.18 3.951 6.86 2.842 2.678-1.11 3.95-4.181 2.841-6.86-1.11-2.679-4.181-3.951-6.86-2.841" transform="matrix(1.3333333 0 0 -1.3333333 767.97787 552.89133)"/><path clip-path="url(#E)" d="m0 0-19.782-59.922-4.288-29.909 11.242 28.046z" transform="matrix(1.3333333 0 0 -1.3333333 936.2344 464.77013)"/><path clip-path="url(#F)" d="m0 0c-2.3 1.765-2.734 5.061-.969 7.361 1.765 2.301 5.061 2.734 7.361.969s2.734-5.06.969-7.361c-1.765-2.3-5.061-2.734-7.361-.969" transform="matrix(1.3333333 0 0 -1.3333333 784.66933 520.3268)"/><path clip-path="url(#G)" d="m0 0-34.618-52.76-11.882-27.781 18.118 24.182z" transform="matrix(1.3333333 0 0 -1.3333333 970 478.75653)"/><path clip-path="url(#H)" d="m0 0c-1.765 2.3-1.332 5.596.969 7.361s5.596 1.331 7.361-.969 1.331-5.596-.969-7.361-5.596-1.331-7.361.969" transform="matrix(1.3333333 0 0 -1.3333333 809.22 493.192)"/><path clip-path="url(#I)" d="m0 0-47.093-42.002-18.668-23.759 23.759 18.668z" transform="matrix(1.3333333 0 0 -1.3333333 998.9948 501.0052)"/><path clip-path="url(#J)" d="m0 0c-1.109 2.679.163 5.75 2.841 6.86 2.679 1.109 5.75-.163 6.86-2.841 1.11-2.679-.162-5.75-2.842-6.86-2.678-1.11-5.749.162-6.859 2.841" transform="matrix(1.3333333 0 0 -1.3333333 839.95707 473.336)"/><path clip-path="url(#K)" d="m0 0-56.359-28.382-24.181-18.118 27.78 11.882z" transform="matrix(1.3333333 0 0 -1.3333333 1021.2435 530)"/><path clip-path="url(#L)" d="m0 0c-.378 2.875 1.645 5.512 4.52 5.89 2.875.379 5.512-1.645 5.89-4.519.379-2.875-1.645-5.513-4.52-5.891-2.874-.378-5.512 1.645-5.89 4.52" transform="matrix(1.3333333 0 0 -1.3333333 874.7864 462.11133)"/><path clip-path="url(#M)" d="m0 0-61.785-12.828-28.046-11.242 29.91 4.287z" transform="matrix(1.3333333 0 0 -1.3333333 1035.2292 563.7656)"/><path clip-path="url(#N)" d="m0 0c.379 2.875 3.016 4.898 5.891 4.52 2.875-.379 4.898-3.016 4.519-5.891-.378-2.874-3.015-4.898-5.89-4.52-2.874.379-4.898 3.016-4.52 5.891" transform="matrix(1.3333333 0 0 -1.3333333 911.33333 460.28387)"/><path clip-path="url(#O)" d="m0 0-63 3.6-30-3.6 30-3.6z" transform="matrix(1.3333333 0 0 -1.3333333 1040 600)"/><path clip-path="url(#P)" d="m0 0c1.11 2.679 4.181 3.951 6.859 2.841 2.68-1.11 3.952-4.18 2.842-6.86-1.109-2.678-4.18-3.95-6.859-2.841-2.679 1.11-3.951 4.181-2.842 6.86" transform="matrix(1.3333333 0 0 -1.3333333 947.10813 467.97787)"/><path clip-path="url(#Q)" d="m0 0-59.921 19.782-29.91 4.288 28.046-11.242z" transform="matrix(1.3333333 0 0 -1.3333333 1035.2292 636.2344)"/><path clip-path="url(#R)" d="m0 0c1.765 2.3 5.061 2.734 7.361.969s2.735-5.061.969-7.361c-1.765-2.3-5.06-2.734-7.361-.969-2.3 1.765-2.735 5.061-.969 7.361" transform="matrix(1.3333333 0 0 -1.3333333 979.6732 484.66933)"/><path clip-path="url(#S)" d="m0 0-52.76 34.618-27.78 11.882 24.181-18.118z" transform="matrix(1.3333333 0 0 -1.3333333 1021.2435 670)"/><path clip-path="url(#T)" d="m0 0c2.3 1.765 5.596 1.332 7.36-.969 1.766-2.301 1.332-5.596-.968-7.361s-5.596-1.331-7.362.969c-1.764 2.3-1.331 5.596.97 7.361" transform="matrix(1.3333333 0 0 -1.3333333 1006.8085 509.22)"/><path clip-path="url(#U)" d="m0 0-42.002 47.093-23.759 18.668 18.668-23.759z" transform="matrix(1.3333333 0 0 -1.3333333 998.9948 698.9948)"/><path clip-path="url(#V)" d="m0 0c2.679 1.109 5.75-.163 6.859-2.841 1.111-2.679-.162-5.75-2.84-6.86-2.679-1.11-5.75.162-6.86 2.842-1.109 2.678.162 5.749 2.841 6.859" transform="matrix(1.3333333 0 0 -1.3333333 1026.664 539.95707)"/><path clip-path="url(#W)" d="m0 0-28.382 56.359-18.118 24.181 11.882-27.78z" transform="matrix(1.3333333 0 0 -1.3333333 970 721.24347)"/><path clip-path="url(#X)" d="m0 0c2.875.378 5.513-1.645 5.891-4.52.379-2.875-1.645-5.512-4.52-5.89-2.875-.379-5.512 1.645-5.891 4.52-.377 2.874 1.646 5.512 4.52 5.89" transform="matrix(1.3333333 0 0 -1.3333333 1037.888 574.7864)"/><path clip-path="url(#Y)" d="m0 0-12.828 61.785-11.242 28.046 4.288-29.91z" transform="matrix(1.3333333 0 0 -1.3333333 936.2344 735.2292)"/></g></svg>