<svg height="1866.6667" viewBox="0 0 2800 1866.6667" width="2800" xmlns="http://www.w3.org/2000/svg" xmlns:xlink="http://www.w3.org/1999/xlink"><clipPath id="a"><path d="m0 1400h2100v-1400h-2100z" transform="translate(-423.27001 -1258.4248)"/></clipPath><clipPath id="b"><path d="m0 1400h2100v-1400h-2100z" transform="translate(-838.3291 -879.11472)"/></clipPath><g transform="matrix(1.3333333 0 0 -1.3333333 0 1866.6667)"><path d="m0 0h2100v1400h-2100z" fill="#cc0001"/><g fill="#fff"><path d="m0 0h2100v100h-2100z"/><path d="m0 200h2100v100h-2100z"/><path d="m0 400h2100v100.001h-2100z"/><path d="m0 600h2100v100h-2100z"/><path d="m0 800h2100v100h-2100z"/><path d="m0 1000h2100v100h-2100z"/><path d="m0 1200h2100v100h-2100z"/></g><path d="m0 600h1050v800h-1050z" fill="#010066"/></g><g fill="#fc0"><path clip-path="url(#a)" d="m0 0c-138.151 0-250.282-111.758-250.282-249.451 0-137.692 112.131-249.451 250.282-249.451 49.913 0 96.417 14.605 135.474 39.732-22.744-7.849-47.154-12.142-72.566-12.142-122.503 0-221.925 99.092-221.925 221.188s99.422 221.188 221.925 221.188c27.072 0 53.005-4.835 76.999-13.692-39.946 26.904-88.1 42.628-139.907 42.628" transform="matrix(1.3333333 0 0 -1.3333333 564.36 188.76693)"/><path clip-path="url(#b)" d="m0 0-105.426 55.006 31.171-112.575-70.515 94.17-21.999-114.618-21.636 114.684-70.812-93.958 31.528 112.481-105.601-54.689 78.447 88.002-119.472-4.588 109.828 46.092-109.682 46.422 119.457-4.948-78.167 88.237 105.426-55.006-31.172 112.576 70.515-94.17 21.999 114.617 21.636-114.683 70.812 93.958-31.527-112.482 105.6 54.689-78.447-88.001 119.473 4.587-109.828-46.091 109.682-46.422-119.457 4.947z" transform="matrix(1.3333333 0 0 -1.3333333 1117.7721 694.51373)"/></g></svg>