<?xml version="1.0" encoding="UTF-8" standalone="no"?>
<svg
   width="600"
   height="600"
   version="1"
   id="svg132"
   sodipodi:docname="rect copy.svg"
   inkscape:version="1.4 (e7c3feb1, 2024-10-09)"
   xmlns:inkscape="http://www.inkscape.org/namespaces/inkscape"
   xmlns:sodipodi="http://sodipodi.sourceforge.net/DTD/sodipodi-0.dtd"
   xmlns:xlink="http://www.w3.org/1999/xlink"
   xmlns="http://www.w3.org/2000/svg"
   xmlns:svg="http://www.w3.org/2000/svg">
  <defs
     id="defs132" />
  <sodipodi:namedview
     id="namedview132"
     pagecolor="#ffffff"
     bordercolor="#000000"
     borderopacity="0.25"
     inkscape:showpageshadow="2"
     inkscape:pageopacity="0.0"
     inkscape:pagecheckerboard="0"
     inkscape:deskcolor="#d1d1d1"
     inkscape:current-layer="svg132" />
  <g
     stroke-width="0.94868"
     id="g3"
     transform="scale(0.66666667,1)">
    <path
       d="M 0,0 H 900 V 200 H 0 Z"
       id="path1" />
    <path
       d="M 0,200 H 900 V 400 H 0 Z"
       fill="#dd0000"
       id="path2" />
    <path
       d="M 0,400 H 900 V 600 H 0 Z"
       fill="#ffce00"
       id="path3" />
  </g>
  <g
     transform="matrix(0.2046,0,0,0.20455,133.49652,254.74)"
     id="g132">
    <path
       d="m 224.25,214.16 h 1177.3 L 1186.02,884.75 H 439.81 Z"
       fill="#ffc709"
       id="path4" />
    <path
       d="M 1361.7,188.7 C 1361.7,491.52 1116.28,737 813.54,737 510.8,737 265.38,491.52 265.38,188.7 c 0,-302.82 245.42,-548.3 548.16,-548.3 302.74,0 548.16,245.48 548.16,548.3 z"
       fill="#dd0000"
       id="path5" />
    <g
       transform="translate(-896.58,-1479.2)"
       id="g18">
      <use
         transform="matrix(-1,0,0,1,3344.2,-55.4)"
         width="744.09399"
         height="1052.3621"
         xlink:href="#a"
         id="use5" />
      <use
         transform="matrix(-1,0,0,1,3362.8,-41.478)"
         width="744.09399"
         height="1052.3621"
         xlink:href="#a"
         id="use6" />
      <use
         transform="matrix(-1,0,0,1,3381.3,-27.626)"
         width="744.09399"
         height="1052.3621"
         xlink:href="#a"
         id="use7" />
      <use
         transform="matrix(-1,0,0,1,3399.8,-13.725)"
         width="744.09399"
         height="1052.3621"
         xlink:href="#a"
         id="use8" />
      <use
         transform="matrix(-1,0,0,1,3418.4,0.166)"
         width="744.09399"
         height="1052.3621"
         xlink:href="#a"
         id="use9" />
      <use
         transform="translate(74.619,-55.507)"
         width="744.09399"
         height="1052.3621"
         xlink:href="#a"
         id="use10" />
      <use
         transform="translate(55.84,-41.547)"
         width="744.09399"
         height="1052.3621"
         xlink:href="#a"
         id="use11" />
      <use
         transform="translate(37.06,-27.587)"
         width="744.09399"
         height="1052.3621"
         xlink:href="#a"
         id="use12" />
      <use
         transform="translate(18.475,-13.765)"
         width="744.09399"
         height="1052.3621"
         xlink:href="#a"
         id="use13" />
      <path
         id="a"
         d="m 1605.7,2445.3 175.52,82.975 18.546,-13.92 -164.76,-77.69 z"
         fill="#ffc709"
         fill-rule="evenodd"
         stroke="#ba6d00"
         stroke-width="6.25" />
      <path
         d="m 1718,1214.4 -249.53,13.406 v 147 l 249.53,13.407 h 27.032 l 208.06,-30.563 v -112.69 l -208.06,-30.562 H 1718 Z"
         stroke="#000000"
         stroke-linejoin="round"
         stroke-miterlimit="5"
         stroke-width="12.5"
         id="path13" />
      <g
         fill="#ffc709"
         id="g17">
        <g
           stroke="#000000"
           stroke-width="13.75"
           id="g15">
          <rect
             x="1644.5"
             y="1465"
             width="129.75999"
             height="734.84998"
             rx="21.865999"
             ry="21.865999"
             stroke-linejoin="round"
             id="rect13" />
          <path
             d="m 2002.9,1700.1 c -73.748,76.148 -176.98,123.56 -291.28,123.56 -81.712,0 -157.75,-24.284 -221.44,-65.906 l -51.906,76.719 c 78.503,51.663 172.4,81.812 273.34,81.812 140.09,0 266.67,-58.007 357.22,-151.19 z"
             id="path14" />
          <path
             d="m 1662.7,1371.5 -357.4,660.16 404.59,-522.12 404.62,522.12 -357.37,-660.16 -47.219,66.313 z"
             fill-rule="evenodd"
             id="path15" />
        </g>
        <path
           d="m 1717.6,1221.4 -171.4,8.215 -71.18,28.571 v 86.284 l 70.25,28.572 172.33,9.145 h 26.278 l 202.27,-29.668 v -102.85 l -202.27,-28.272 z"
           id="path16" />
        <rect
           x="1649.9"
           y="1351.9"
           width="118.79"
           height="121.74"
           rx="59.396999"
           ry="59.396999"
           stroke="#000000"
           stroke-linejoin="round"
           stroke-miterlimit="5"
           stroke-width="17.717"
           id="rect16" />
        <path
           transform="matrix(0.94883,0,0,0.94873,88.46,71.264)"
           d="m 1734.8,1412.9 c 0,14.646 -11.873,26.518 -26.518,26.518 -14.646,0 -26.518,-11.872 -26.518,-26.518 0,-14.645 11.872,-26.518 26.518,-26.518 14.646,0 26.518,11.873 26.518,26.518 z"
           stroke="#000000"
           stroke-linejoin="round"
           stroke-width="6.25"
           id="path17" />
      </g>
    </g>
    <g
       id="h">
      <path
         transform="translate(-896.58,-1479.2)"
         d="m 1247.4,2299.7 -224.6,-251.16 -88.148,-315.16 31.395,-291.01 143.69,-278.93 222.18,-171.47 132.83,-49.508 37.432,54.338 65.205,19.32 -37.432,31.395 -4.83,80.903 -227.01,148.52 -137.66,229.43 -13.282,258.41 68.827,224.6 263.24,251.16 z"
         fill="#ffc709"
         fill-rule="evenodd"
         id="path18" />
      <g
         transform="translate(-896.58,-1479.2)"
         id="g118">
        <use
           transform="rotate(-1.89,3472.1,2550.2)"
           width="744.09399"
           height="1052.3621"
           xlink:href="#b"
           id="use18" />
        <use
           transform="rotate(-2.066,2237.8,4254.9)"
           width="744.09399"
           height="1052.3621"
           xlink:href="#c"
           id="use19" />
        <use
           transform="translate(-120.22,6.374)"
           width="744.09399"
           height="1052.3621"
           xlink:href="#c"
           id="use20" />
        <use
           transform="rotate(-1.146,4462.4,4277.6)"
           width="744.09399"
           height="1052.3621"
           xlink:href="#b"
           id="use21" />
        <use
           transform="matrix(0.8859,1.8e-4,-2e-4,0.98766,147.29,-0.549)"
           width="744.09399"
           height="1052.3621"
           xlink:href="#b"
           id="use22" />
        <use
           transform="translate(56.086,-19.554)"
           width="744.09399"
           height="1052.3621"
           xlink:href="#b"
           id="use23" />
        <use
           transform="translate(-25.226,-14.844)"
           width="744.09399"
           height="1052.3621"
           xlink:href="#c"
           id="use24" />
        <use
           transform="rotate(-3.49,1623.3,861.92)"
           width="744.09399"
           height="1052.3621"
           xlink:href="#c"
           id="use25" />
        <use
           transform="rotate(-1.736,3369.6,-2615.1)"
           width="744.09399"
           height="1052.3621"
           xlink:href="#b"
           id="use26" />
        <use
           transform="translate(23.908,16.696)"
           width="744.09399"
           height="1052.3621"
           xlink:href="#b"
           id="use27" />
        <path
           id="b"
           d="m 991.04,1855.7 c 0,0 8.816,28.993 30.208,63.997 23.738,36.412 41.25,34.847 41.25,34.847 0,0 26.613,4.846 30.367,-15.943 1.408,-20.788 -12.67,-28.277 -12.67,-28.746 0,0.47 -15.355,-11.274 -35.193,-20.158 -17.023,-11.23 -15.931,-11.004 -25.785,-24.612 -6.1,-15.485 -4.22,-4.702 -19.22,-65.23 -15,-60.528 -21.253,-94.227 -21.723,-94.227 l -21.489,4.22 19.463,88.135 6.815,30.032 z"
           fill="#ffc709"
           fill-rule="evenodd"
           stroke="#ba6d00"
           stroke-linejoin="round"
           stroke-width="6.25" />
        <path
           id="c"
           d="m 1049.2,1688.7 40.824,156.99 c 0,0 4.887,17.056 7.605,34.465 -0.567,20.693 -4.535,28.816 -4.535,28.816 -0.469,0 -2.601,10.942 -4.009,22.192 -0.938,15.473 5.575,26.246 5.575,25.777 0,0.47 4.996,8.28 20.158,9.688 17.507,-0.469 20.153,-12.969 20.153,-12.969 0,0 2.704,-1.25 1.977,-18.75 -0.727,-17.5 -9.477,-45 -9.477,-45 l -58.75,-212 z"
           fill="#ffc709"
           fill-rule="evenodd"
           stroke="#ba6d00"
           stroke-linejoin="round"
           stroke-width="6.25" />
        <use
           transform="rotate(-4.254,2118.7,-308.62)"
           width="744.09399"
           height="1052.3621"
           xlink:href="#b"
           id="use28" />
        <path
           d="m 1130.6,1752.8 56.093,149.92 c 0,0 6.544,16.225 10.965,33.105 1.48,20.6 -1.664,29.215 -1.664,29.215 -0.467,0.066 -1.507,11.217 -1.796,22.572 0.594,15.476 8.134,25.241 8.088,24.776 0.046,0.465 5.785,7.508 21.001,6.768 17.363,-2.932 18.76,-15.7 18.76,-15.7 0,0 2.565,-16.637 -2.231,-32.95 -3.858,-20.536 -40.613,-87.868 -55.16,-133.38 l -32.424,-99.188 -21.632,14.86 z"
           fill="#ffc709"
           fill-rule="evenodd"
           stroke="#ba6d00"
           stroke-linejoin="round"
           stroke-width="6.25"
           id="path28" />
        <use
           transform="translate(35.036,6.846)"
           width="744.09399"
           height="1052.3621"
           xlink:href="#d"
           id="use29" />
        <use
           transform="translate(19.367,-0.654)"
           width="744.09399"
           height="1052.3621"
           xlink:href="#d"
           id="use30" />
        <use
           transform="rotate(7.458,1442.7,2300.2)"
           width="744.09399"
           height="1052.3621"
           xlink:href="#d"
           id="use31" />
        <use
           transform="rotate(-8.402,933.96,2090.9)"
           width="744.09399"
           height="1052.3621"
           xlink:href="#e"
           id="use32" />
        <path
           id="d"
           d="m 1072.7,1170.1 c 0,0 -21.079,23.845 -50.19,72.22 -28.174,47.437 -29.37,49.377 -42.5,85 -9.377,34.685 -9.465,46.408 -2.966,65.781 8.377,15.619 16.578,18.907 24.216,19.22 7.642,0.311 11.565,-1.783 17.184,-10.415 11.25,-25.524 -2.93,-38.336 -7.184,-59.586 -4.254,-21.25 -2.492,-4.917 -2.5,-20.654 2.338,-20.9 8.903,-26.373 11.719,-32.004 4.223,-7.977 7.196,-13.982 30.78,-49.175 24.523,-37.54 36.25,-58.167 36.25,-58.167 0,0 2.586,-8.389 -3.078,-12.5 -5.433,-3.943 -11.731,0.28 -11.731,0.28 z"
           fill="#ffc709"
           fill-rule="evenodd"
           stroke="#ba6d00"
           stroke-width="6.25" />
        <use
           transform="translate(-22.622,-33.453)"
           width="744.09399"
           height="1052.3621"
           xlink:href="#e"
           id="use33" />
        <use
           transform="rotate(6.718,1377.7,2562.2)"
           width="744.09399"
           height="1052.3621"
           xlink:href="#d"
           id="use34" />
        <use
           transform="translate(-5.051,-25.44)"
           width="744.09399"
           height="1052.3621"
           xlink:href="#e"
           id="use35" />
        <use
           transform="rotate(6.949,1534.9,2190.8)"
           width="744.09399"
           height="1052.3621"
           xlink:href="#d"
           id="use36" />
        <path
           id="e"
           d="m 1286.7,1173.4 c 0,0 -46.059,55.185 -62.915,76.435 -20.14,23.127 -40.427,57.023 -57.5,74.062 -19.888,15.63 -37.496,16.092 -51.25,25.938 -15.63,10.316 -19.061,15.935 -21.25,26.25 -1.719,14.07 10.528,26.25 25,23.75 14.004,0.316 32.5,-19.499 32.5,-19.499 0,0 25.15,-34.354 42.5,-58 38.466,-56.495 110.75,-137.5 110.75,-137.5 z"
           fill="#ffc709"
           fill-rule="evenodd"
           stroke="#ba6d00"
           stroke-width="6.25" />
        <use
           transform="matrix(1.1057,-0.04355,0.05268,1.0476,-211.82,44.918)"
           width="744.09399"
           height="1052.3621"
           xlink:href="#e"
           id="use37" />
        <use
           transform="rotate(2.963,1455.4,554.9)"
           width="744.09399"
           height="1052.3621"
           xlink:href="#f"
           id="use38" />
        <use
           transform="matrix(1.1249,-0.12498,0.14275,0.99186,-325.25,250.87)"
           width="744.09399"
           height="1052.3621"
           xlink:href="#e"
           id="use39" />
        <path
           id="f"
           d="m 1324.2,1275.3 c 0,0 -6.23,8.363 -58.655,83.36 -47.265,81.565 -54.3,96.83 -54.3,96.83 0,0 -7.486,15.67 -15.618,20.67 -8.132,5 -22.424,5.238 -26.882,2.188 -4.25,-2.909 -6.561,-3.277 -8.75,-18.439 1.096,-9.061 3.527,-12.779 7.089,-16.34 7.298,-6.149 11.134,-7.314 20.31,-10.76 8.972,-5.259 12.28,-10.048 18.114,-18.916 11.406,-20.209 16.454,-30.062 35.838,-59.656 25.086,-39.079 45.157,-63.142 68.334,-93.953 z"
           fill="#ffc709"
           fill-rule="evenodd"
           stroke="#ba6d00"
           stroke-width="6.25" />
        <path
           d="m 1627.2,871.97 c -72.039,7.589 -141.32,24.504 -206.53,49.656 l 5.563,11.156 c 65.15,-24.995 133.59,-41.324 202.97,-48.687 6.042,-0.688 4.705,-12.78 -2,-12.125 z"
           fill="#ffc709"
           stroke="#ba6d00"
           stroke-linecap="round"
           stroke-linejoin="round"
           stroke-width="5.138"
           id="path39" />
        <path
           d="m 1668.8,891.22 c -66.162,3.428 -119.49,13.526 -174.59,29.625 -21.417,6.145 -42.544,13.26 -63.344,21.25 l 5.656,11.312 c 74.64,-28.388 153.64,-45.218 233.38,-49.75 7.35,-0.791 6.315,-12.316 -1.093,-12.437 z"
           fill="#ffc709"
           stroke="#ba6d00"
           stroke-linecap="round"
           stroke-linejoin="round"
           stroke-width="5"
           id="path40" />
        <path
           d="m 1638.2,916.41 c -67.278,6.84 -133.73,22.318 -197,46.25 l 4.75,9.5 c 62.308,-23.442 127.75,-38.576 193.97,-45.375 6.136,-0.44 4.892,-10.941 -1.718,-10.375 z"
           fill="#ffc709"
           stroke="#ba6d00"
           stroke-linecap="round"
           stroke-linejoin="round"
           stroke-width="5"
           id="path41" />
        <path
           d="m 1449.7,979.66 5.624,11.219 c 88.963,-32.381 168.24,-44.792 236.41,-46.813 7.067,-0.435 7.09,-11.94 -0.938,-12.375 -77.424,2.686 -166.49,19.969 -241.09,47.97 z"
           fill="#ffc709"
           stroke="#ba6d00"
           stroke-linecap="round"
           stroke-linejoin="round"
           stroke-width="5"
           id="path42" />
        <path
           d="m 1654.7,956.06 c -59.264,4.9 -125.95,18.84 -194.69,44.187 l 5.75,11.469 c 59.114,-21.89 138.31,-39.447 191.09,-43.344 7.331,-1.085 5.606,-12.904 -2.157,-12.313 z m -183.31,66.843 5.594,11.188 c 60.176,-22.09 158.98,-42.998 216.34,-42.032 6.196,-0.487 5.684,-12.043 -0.53,-12.53 -71.942,-0.037 -147.16,16.439 -221.41,43.374 z m 176.75,-16.687 c -56.398,6.454 -112.14,19.568 -165.53,39.093 l 5.593,11.157 c 50.278,-18.164 105.78,-32.172 161.38,-37.719 8.241,-1.158 7.091,-13.05 -1.438,-12.531 z m -154.38,61.375 5.625,11.187 c 49.246,-17.663 127.05,-34.129 180,-36.875 7.696,-0.875 6.671,-12.483 -1.063,-12.687 -61.984,2.355 -129.53,19.075 -184.56,38.375 z m 190.16,-11.375 c -45.906,0.347 -126.34,17.26 -177.97,35.656 l 5.624,11.219 c 49.353,-17.464 130.65,-33.535 172.94,-34.532 8.523,-0.089 8.325,-12.254 -0.594,-12.343 z m -39.156,29.031 c -43.047,6.133 -85.594,16.451 -126.66,30.906 l 5.593,11.157 c 39.217,-14.212 82.915,-24.7 123.66,-30.032 7.856,-1.662 5.985,-13.723 -2.594,-12.031 z m 37.563,20.563 c -47.42,1.697 -109.34,15.641 -153.78,31.187 l 5.625,11.219 c 41.43,-14.296 100.58,-28.175 148.34,-29.907 8.659,-0.476 7.925,-13.029 -0.188,-12.5 z"
           fill="#ffc709"
           stroke="#ba6d00"
           stroke-linecap="round"
           stroke-linejoin="round"
           stroke-width="5"
           id="path43" />
        <use
           transform="matrix(-0.34285,0.88667,-0.90474,-0.33395,3477.8,854.28)"
           width="744.09399"
           height="1052.3621"
           xlink:href="#g"
           id="use43" />
        <use
           transform="matrix(-0.61506,-0.66895,-0.68365,0.60157,3316.9,691.16)"
           width="744.09399"
           height="1052.3621"
           xlink:href="#g"
           id="use44" />
        <use
           transform="matrix(0.08304,0.9138,-0.90737,0.08363,3016.6,99.302)"
           width="744.09399"
           height="1052.3621"
           xlink:href="#g"
           id="use45" />
        <use
           transform="matrix(-0.53344,-0.68936,-0.68821,0.54105,3192.2,841.39)"
           width="744.09399"
           height="1052.3621"
           xlink:href="#g"
           id="use46" />
        <use
           transform="matrix(0.1898,0.8771,-0.87789,0.18963,2808.2,-31.802)"
           width="744.09399"
           height="1052.3621"
           xlink:href="#g"
           id="use47" />
        <use
           transform="matrix(-0.49109,-0.68533,-0.65436,0.54712,3045,852.35)"
           width="744.09399"
           height="1052.3621"
           xlink:href="#g"
           id="use48" />
        <use
           transform="matrix(0.36579,0.78043,-0.81444,0.35051,2481.5,-198.43)"
           width="744.09399"
           height="1052.3621"
           xlink:href="#g"
           id="use49" />
        <use
           transform="matrix(-0.63748,-0.5981,-0.60016,0.65277,3042.7,610.86)"
           width="744.09399"
           height="1052.3621"
           xlink:href="#g"
           id="use50" />
        <use
           transform="matrix(-0.67017,-0.4812,-0.485,0.67525,2829.4,493.66)"
           width="744.09399"
           height="1052.3621"
           xlink:href="#g"
           id="use51" />
        <use
           transform="matrix(0.37133,0.75773,-0.7967,0.35316,2397.7,-146.03)"
           width="744.09399"
           height="1052.3621"
           xlink:href="#g"
           id="use52" />
        <use
           transform="matrix(0.4625,0.71801,-0.74338,0.44672,2175.2,-239.82)"
           width="744.09399"
           height="1052.3621"
           xlink:href="#g"
           id="use53" />
        <use
           transform="matrix(-0.6759,-0.53733,-0.48467,0.73335,2793.3,479.05)"
           width="744.09399"
           height="1052.3621"
           xlink:href="#g"
           id="use54" />
        <use
           transform="matrix(-0.34609,1.0219,-0.99494,-0.35334,3562.6,617.3)"
           width="744.09399"
           height="1052.3621"
           xlink:href="#g"
           id="use55" />
        <use
           transform="matrix(0.27564,0.98697,-1.0023,0.27076,2925.6,-443.52)"
           width="744.09399"
           height="1052.3621"
           xlink:href="#g"
           id="use56" />
        <use
           transform="matrix(0.32902,1.0597,-1.0334,0.33885,2874.4,-601.98)"
           width="744.09399"
           height="1052.3621"
           xlink:href="#g"
           id="use57" />
        <use
           transform="matrix(0.39445,1.0045,-0.97463,0.40676,2654.3,-641.52)"
           width="744.09399"
           height="1052.3621"
           xlink:href="#g"
           id="use58" />
        <use
           transform="matrix(0.5287,0.87511,-0.8929,0.51082,2329.7,-667.55)"
           width="744.09399"
           height="1052.3621"
           xlink:href="#g"
           id="use59" />
        <use
           transform="matrix(0.55278,0.8687,-0.87166,0.54975,2224.3,-695.51)"
           width="744.09399"
           height="1052.3621"
           xlink:href="#g"
           id="use60" />
        <use
           transform="matrix(0.54569,0.8703,-0.87608,0.53907,2193.9,-646.09)"
           width="744.09399"
           height="1052.3621"
           xlink:href="#g"
           id="use61" />
        <use
           transform="matrix(0.64306,0.79514,-0.79481,0.64351,1918.4,-719.24)"
           width="744.09399"
           height="1052.3621"
           xlink:href="#g"
           id="use62" />
        <use
           transform="matrix(-0.90214,-0.4821,-0.47596,0.91378,3261.3,-164.29)"
           width="744.09399"
           height="1052.3621"
           xlink:href="#g"
           id="use63" />
        <use
           transform="matrix(-0.1512,1.0759,-0.9885,-0.16455,3427.6,265.66)"
           width="744.09399"
           height="1052.3621"
           xlink:href="#g"
           id="use64" />
        <use
           transform="matrix(-0.62515,-0.86299,-0.86142,0.62629,3629.3,738.96)"
           width="744.09399"
           height="1052.3621"
           xlink:href="#g"
           id="use65" />
        <use
           transform="matrix(0.11322,1.0537,-1.0677,0.11173,3255.8,-187.44)"
           width="744.09399"
           height="1052.3621"
           xlink:href="#g"
           id="use66" />
        <use
           transform="matrix(-0.64277,-0.89528,-0.85986,0.66925,3573.7,714.92)"
           width="744.09399"
           height="1052.3621"
           xlink:href="#g"
           id="use67" />
        <use
           transform="matrix(-0.63115,-0.81145,-0.80261,0.6381,3401.3,725.68)"
           width="744.09399"
           height="1052.3621"
           xlink:href="#g"
           id="use68" />
        <use
           transform="matrix(0.24308,1.15,-1.1305,0.24727,3178.2,-491.24)"
           width="744.09399"
           height="1052.3621"
           xlink:href="#g"
           id="use69" />
        <use
           transform="matrix(0.41988,0.99784,-1.0229,0.40958,2755,-595.91)"
           width="744.09399"
           height="1052.3621"
           xlink:href="#g"
           id="use70" />
        <use
           transform="matrix(-0.70073,-0.74975,-0.71343,0.7364,3252.8,527.55)"
           width="744.09399"
           height="1052.3621"
           xlink:href="#g"
           id="use71" />
        <use
           transform="matrix(0.5179,0.96263,-0.9768,0.51038,2521.4,-702.5)"
           width="744.09399"
           height="1052.3621"
           xlink:href="#g"
           id="use72" />
        <use
           transform="matrix(0.55508,0.88011,-0.89278,0.5472,2286.4,-655.25)"
           width="744.09399"
           height="1052.3621"
           xlink:href="#g"
           id="use73" />
        <use
           transform="matrix(-0.84349,-0.63046,-0.63617,0.83592,3196.7,280.27)"
           width="744.09399"
           height="1052.3621"
           xlink:href="#g"
           id="use74" />
        <use
           transform="matrix(1.0261,-0.52763,0.57308,0.90658,-861.66,1048.4)"
           width="744.09399"
           height="1052.3621"
           xlink:href="#g"
           id="use75" />
        <use
           transform="matrix(0.99696,-0.64269,0.64906,0.98717,-930.82,1060)"
           width="744.09399"
           height="1052.3621"
           xlink:href="#g"
           id="use76" />
        <use
           transform="rotate(-35.456,1819.8,1602.7)"
           width="744.09399"
           height="1052.3621"
           xlink:href="#g"
           id="use77" />
        <use
           transform="matrix(-0.63793,0.7701,0.7701,0.63793,447.74,256.14)"
           width="744.09399"
           height="1052.3621"
           xlink:href="#g"
           id="use78" />
        <use
           transform="matrix(0.97004,-0.37286,0.3686,0.98128,-359.44,775.6)"
           width="744.09399"
           height="1052.3621"
           xlink:href="#g"
           id="use79" />
        <use
           transform="rotate(-29.284,1819.1,1266.9)"
           width="744.09399"
           height="1052.3621"
           xlink:href="#g"
           id="use80" />
        <use
           transform="matrix(-0.58195,0.85154,0.84328,0.58765,306.33,315.27)"
           width="744.09399"
           height="1052.3621"
           xlink:href="#g"
           id="use81" />
        <use
           transform="matrix(0.88368,-0.55974,0.56506,0.87535,-583.41,1190.9)"
           width="744.09399"
           height="1052.3621"
           xlink:href="#g"
           id="use82" />
        <use
           transform="matrix(-0.46424,0.8347,0.80512,0.52054,355.42,408.48)"
           width="744.09399"
           height="1052.3621"
           xlink:href="#g"
           id="use83" />
        <use
           transform="matrix(0.80058,-0.52202,0.5226,0.80015,-338.18,1241.3)"
           width="744.09399"
           height="1052.3621"
           xlink:href="#g"
           id="use84" />
        <use
           transform="matrix(-0.50844,0.75055,0.761,0.49413,518.21,565.62)"
           width="744.09399"
           height="1052.3621"
           xlink:href="#g"
           id="use85" />
        <use
           transform="rotate(-40.916,1730.4,1401.8)"
           width="744.09399"
           height="1052.3621"
           xlink:href="#g"
           id="use86" />
        <use
           transform="matrix(-0.48563,0.9168,0.91866,0.48464,131.57,481.12)"
           width="744.09399"
           height="1052.3621"
           xlink:href="#g"
           id="use87" />
        <use
           transform="matrix(-0.47861,0.87803,0.87803,0.47861,246.4,569.17)"
           width="744.09399"
           height="1052.3621"
           xlink:href="#g"
           id="use88" />
        <use
           transform="matrix(-0.60015,0.7999,0.7999,0.60015,577.92,381.37)"
           width="744.09399"
           height="1052.3621"
           xlink:href="#g"
           id="use89" />
        <use
           transform="matrix(0.93572,0.48854,-0.4967,0.91625,983.92,-666.37)"
           width="744.09399"
           height="1052.3621"
           xlink:href="#g"
           id="use90" />
        <use
           transform="matrix(0.98045,0.4224,-0.42792,0.95725,802.46,-617.11)"
           width="744.09399"
           height="1052.3621"
           xlink:href="#g"
           id="use91" />
        <use
           transform="matrix(1.0653,0.35814,-0.38603,0.96596,635.75,-512.67)"
           width="744.09399"
           height="1052.3621"
           xlink:href="#g"
           id="use92" />
        <use
           transform="matrix(1.0342,0.27943,-0.27337,1.0685,457,-558.32)"
           width="744.09399"
           height="1052.3621"
           xlink:href="#g"
           id="use93" />
        <use
           transform="matrix(1.0494,0.23015,-0.23551,1.0252,370.94,-374.89)"
           width="744.09399"
           height="1052.3621"
           xlink:href="#g"
           id="use94" />
        <use
           transform="matrix(0.8039,0.78185,-0.83622,0.7512,1803.7,-700.17)"
           width="744.09399"
           height="1052.3621"
           xlink:href="#g"
           id="use95" />
        <use
           transform="matrix(-1.0415,-0.17548,-0.17684,1.0329,2387.8,-249.43)"
           width="744.09399"
           height="1052.3621"
           xlink:href="#g"
           id="use96" />
        <use
           transform="matrix(0.88004,0.61124,-0.62697,0.85748,1324,-663.13)"
           width="744.09399"
           height="1052.3621"
           xlink:href="#g"
           id="use97" />
        <use
           transform="matrix(0.72028,0.60984,-0.70802,0.6916,1725.5,-343.75)"
           width="744.09399"
           height="1052.3621"
           xlink:href="#g"
           id="use98" />
        <use
           transform="matrix(-0.8395,-0.14096,-0.129,0.89646,2187.2,36.142)"
           width="744.09399"
           height="1052.3621"
           xlink:href="#g"
           id="use99" />
        <use
           transform="matrix(0.7423,0.47088,-0.50093,0.79345,1313.9,-339.04)"
           width="744.09399"
           height="1052.3621"
           xlink:href="#g"
           id="use100" />
        <use
           transform="matrix(-1.0234,-0.12887,-0.12838,1.0338,2266.3,-233.74)"
           width="744.09399"
           height="1052.3621"
           xlink:href="#g"
           id="use101" />
        <use
           transform="matrix(1.0283,0.46798,-0.47623,1.01,896.68,-729.98)"
           width="744.09399"
           height="1052.3621"
           xlink:href="#g"
           id="use102" />
        <use
           transform="matrix(-0.87003,-0.03643,-0.03643,0.85326,2036.3,66.667)"
           width="744.09399"
           height="1052.3621"
           xlink:href="#g"
           id="use103" />
        <use
           transform="matrix(0.79186,0.38861,-0.44686,0.75714,1159.6,-141.37)"
           width="744.09399"
           height="1052.3621"
           xlink:href="#g"
           id="use104" />
        <use
           transform="matrix(-1.0589,0.05105,0.05195,1.0526,1963.6,-373.05)"
           width="744.09399"
           height="1052.3621"
           xlink:href="#g"
           id="use105" />
        <use
           transform="matrix(1.0118,0.3628,-0.33766,1.0865,649.49,-700.97)"
           width="744.09399"
           height="1052.3621"
           xlink:href="#g"
           id="use106" />
        <use
           transform="matrix(-0.87306,0.01354,0.01144,0.92685,1945.7,-61.61)"
           width="744.09399"
           height="1052.3621"
           xlink:href="#g"
           id="use107" />
        <use
           transform="matrix(0.82078,0.32755,-0.36634,0.80568,982.14,-111.39)"
           width="744.09399"
           height="1052.3621"
           xlink:href="#g"
           id="use108" />
        <use
           transform="matrix(-1.0378,0.1234,0.1227,1.0408,1808.5,-354.41)"
           width="744.09399"
           height="1052.3621"
           xlink:href="#g"
           id="use109" />
        <use
           transform="matrix(1.0529,0.18293,-0.17535,1.0978,319.08,-485.4)"
           width="744.09399"
           height="1052.3621"
           xlink:href="#g"
           id="use110" />
        <use
           transform="matrix(1.0478,0.13047,-0.12924,1.0578,181.22,-283.99)"
           width="744.09399"
           height="1052.3621"
           xlink:href="#g"
           id="use111" />
        <use
           transform="matrix(-0.89014,0.16278,0.15955,0.87093,1693.1,-46.42)"
           width="744.09399"
           height="1052.3621"
           xlink:href="#g"
           id="use112" />
        <use
           transform="matrix(0.94222,0.19602,-0.25044,0.9056,659.68,-102.94)"
           width="744.09399"
           height="1052.3621"
           xlink:href="#g"
           id="use113" />
        <use
           transform="matrix(-1.0165,0.21025,0.20196,1.0421,1647.4,-377.18)"
           width="744.09399"
           height="1052.3621"
           xlink:href="#g"
           id="use114" />
        <use
           transform="matrix(1.0293,0.07198,-0.06964,1.0633,148.85,-258.28)"
           width="744.09399"
           height="1052.3621"
           xlink:href="#g"
           id="use115" />
        <use
           transform="matrix(-0.86515,0.24476,0.25295,0.86173,1505.6,-51.742)"
           width="744.09399"
           height="1052.3621"
           xlink:href="#g"
           id="use116" />
        <use
           transform="matrix(0.83975,0.13523,-0.16684,0.91506,608.98,-5.917)"
           width="744.09399"
           height="1052.3621"
           xlink:href="#g"
           id="use117" />
        <use
           transform="matrix(-0.86777,0.21145,0.27276,0.83445,1476.5,77.494)"
           width="744.09399"
           height="1052.3621"
           xlink:href="#g"
           id="use118" />
        <path
           id="g"
           d="m 900.43,1739.5 c 0,0 15.461,103.83 68.067,77.083 35.912,-41.935 -68.067,-77.083 -68.067,-77.083 z"
           fill="#ffc709"
           fill-rule="evenodd"
           stroke="#ba6d00"
           stroke-linejoin="round"
           stroke-width="6.289" />
      </g>
      <g
         fill-rule="evenodd"
         id="g121">
        <path
           d="m 203.8,476.44 c 0,0 -58.75,0.731 -97.934,-11.692 -51.443,-14.065 -71.931,-61.602 -71.931,-61.602 0,0 -7.54,10.884 -7.071,26.37 0.469,14.077 10.527,46.572 35.78,80.972 26.192,42.378 44.02,92.343 65.14,125.16 16.895,29.531 52.554,56.25 52.554,56.25 0,0 113.48,-13.564 124.45,-15.91 14.615,-2.23 114.88,-25.34 137.38,-26.59 22.5,-1.25 73.592,2.031 73.592,2.031 0,0 -17.985,-33.127 -26.666,-39.53 -17.362,-14.382 -38.347,-20.246 -60.063,-41.25 -11.863,-13.028 -31.863,-36.093 -43.113,-48.593 -14.065,-13.439 -24.684,-26.674 -40,-35.291 -12.5,-8.148 -142.12,-10.323 -142.12,-10.323 z"
           stroke="#ba6d00"
           stroke-width="3.125"
           id="path118" />
        <path
           transform="translate(-896.58,-1479.2)"
           d="m 1356.9,2074.5 c 0,0 -41.712,1.061 -61.792,3.633 -22.193,3.514 -69.893,9.28 -108.19,13.201 -34.403,3.8 -63.547,6.018 -102.37,6.428 l -70.52,-3.226 c 2.25,4.184 8.532,15.455 14.77,24.422 7.5,11.49 13.398,19.137 27.125,31.92 11.263,10.666 18.22,16.209 21.445,18.68 8.447,-0.94 61.798,-7.336 83.336,-10.315 35.439,-3.45 53.422,-8.194 94.226,-16.838 21.33,-4.349 70.77,-14.752 83.633,-15.458 14.505,-1.178 66.088,1.543 71.484,2.014 a 2260.5,2260.5 0 0 1 -13.094,-21.792 c -7.996,-13.516 -14.187,-16.995 -25.437,-24.52 -4.453,-2.903 -14.249,-8 -14.614,-8.149 z"
           fill="#ffc709"
           id="path119" />
        <path
           transform="translate(-896.58,-1479.2)"
           d="m 972.03,2008.8 c 3.285,6.1 11.951,23.578 19.686,39.21 9.903,21.415 15.361,33.087 22.594,47.141 15.72,1.173 31.058,1.622 70.2,2.872 38.828,-0.41 67.95,-2.635 102.35,-6.422 38.294,-3.907 86.017,-9.638 108.21,-13.14 20.08,-2.563 62.422,-3.579 62.422,-3.579 0,0 -18.809,-11.367 -27.559,-18.867 -10.861,-10.08 -15.85,-17.276 -24.706,-26.602 -11.496,-0.938 -27.5,-1.015 -45,-2.265 -30.639,-1.72 -77.735,1.484 -103.98,1.484 -26.245,0 -70.626,-0.897 -108.05,-5.25 -50.796,-3.65 -63.027,-12 -76.166,-14.581 z"
           fill="#dd0000"
           id="path120" />
        <path
           d="m 33.155,413.67 c 7.78,12.043 15.612,24.313 28.135,34.53 21.247,15.17 26.724,18.184 67.78,27.815 36.99,5.857 45.319,4.236 94.635,5.755 48.063,1.48 61.946,2.6 93.037,5.115 15.03,1.216 20.062,2.478 26.536,3.517"
           fill="none"
           fill-opacity="0.75"
           stroke="#ffc709"
           stroke-linecap="round"
           stroke-width="5"
           id="path121" />
      </g>
    </g>
    <use
       transform="matrix(-1,0,0,1,1627.6,0)"
       width="744.09399"
       height="1052.3621"
       xlink:href="#h"
       id="use121" />
    <path
       d="m 612.8,696.56 c -6.853,0.057 -14.156,1.007 -21.219,2.25 -47.084,8.161 -82.561,35.759 -199.88,63.5 -40.408,11.07 -81.719,14.689 -129.44,12.313 -3.527,-0.986 -6.35,-4.945 -6.406,-9.094 l -11.5,-6.563 c -5.032,7.774 -1.963,15.728 -0.157,20.563 1.488,3.982 3.862,8.488 7.375,11.281 84.813,60.39 86.998,73.376 135.78,119.41 26.897,26.516 35.008,34.9 124.56,20.688 17.666,28.65 21.485,43.6 72.438,28.781 l 8.562,21.469 c 7.925,14.797 18.782,15.023 46.344,9.156 71.38,-15.355 92.028,-32.759 173.53,-34.562 81.532,1.8 102.17,19.205 173.56,34.562 27.562,5.867 38.419,5.641 46.343,-9.156 l 8.563,-21.469 c 50.953,14.818 54.772,-0.13 72.437,-28.781 89.555,14.211 97.665,5.828 124.56,-20.688 48.784,-46.03 50.97,-59.016 135.78,-119.41 3.514,-2.793 5.856,-7.298 7.344,-11.281 1.807,-4.835 4.907,-12.79 -0.125,-20.563 l -11.5,6.563 c -0.056,4.15 -2.88,8.108 -6.406,9.094 -47.718,2.376 -89.03,-1.244 -129.44,-12.313 -117.31,-27.741 -152.79,-55.339 -199.88,-63.5 -18.833,-3.314 -39.499,-4.563 -48.28,7.656 -10.149,12.37 -18.571,35.85 -33.095,57.72 -27.226,-8.649 -48.849,-16.62 -71.125,-21.313 -29.753,-6.268 -51.209,-5.884 -68.75,-5.884 -17.251,0 -38.978,-0.381 -68.719,5.884 -22.275,4.692 -43.898,12.664 -71.125,21.312 -14.523,-21.869 -22.946,-45.349 -33.093,-57.719 -5.49,-7.637 -15.64,-10 -27.063,-9.906 z"
       fill-rule="evenodd"
       stroke="#ba6d00"
       stroke-width="3.125"
       id="path122" />
    <path
       d="m 604.12,754.9 c 7.34,13.074 10.326,23.414 13.165,34.8"
       fill="none"
       stroke="#ffc709"
       stroke-width="5"
       id="path123" />
    <g
       fill-rule="evenodd"
       id="g127">
      <path
         d="m 319.73,841.63 c 29.99,-3.253 38.725,-4.077 63.524,-8.199 23.263,-4.242 42.465,-8.503 63.375,-14.158 6.333,9.425 12.224,18.472 18.784,27.822 5.88,9.374 8.5,12.818 17.622,32.145 -18.824,1.709 -34.401,4.562 -54.205,7.1 -16.99,2.212 -36.467,4.876 -56.398,7.314 -7.64,-7.49 -13.47,-13.622 -21.79,-22.242 -10.153,-10.23 -17.894,-18.196 -30.912,-29.782 z m 210.38,-6.406 c -30.18,6.365 -33.915,6.974 -56.58,14.313 11.512,20.044 17.964,38.982 25.98,55.635 23.245,-5.267 35.064,-7.713 57.568,-12.355 l -11.406,-24.5 -15.562,-33.094 z"
         fill="#dd0000"
         id="path124" />
      <path
         d="m 372.34,893.59 c 18.443,-2.192 36.554,-4.716 55.328,-7.173 21.949,-2.945 36.725,-5.417 56.88,-7.431 4.164,9.688 6.307,14.893 11.244,25.782 4.13,9.089 9.585,17.714 13.695,25.054 -13.345,1.857 -23.57,3.448 -38.244,4.974 -15.85,1.336 -21.578,1.845 -34.402,1.02 -12.615,-1.137 -21.844,-3.602 -33.066,-12.375 -7.257,-5.85 -18.805,-17.613 -31.435,-29.851 z m 127.18,11.578 c 20.055,-4.68 38.053,-8.467 59.221,-12.701 5.04,12.15 7.012,17.695 11.31,30.217 4.48,12.603 8.216,24.019 12.325,36.028 -10.054,2.704 -13.798,3.553 -25.038,4.995 -9.087,0.669 -17.58,-0.295 -24.142,-5.563 -5.262,-3.794 -12.751,-15.307 -19.795,-27.637 -5.321,-9.485 -9.005,-15.26 -13.881,-25.34 z"
         fill="#ffc709"
         id="path125" />
      <path
         d="m 801.21,813.28 c -17.643,0.945 -35.264,3.178 -41.03,4.562 -33.994,8.32 -54.277,15.407 -77.532,23.22 -41.155,13.754 -54.127,20.082 -77.281,27.155 -18.313,5.613 -31.322,8.646 -48,12.47 8.018,19.033 14.008,36.376 21.218,57.093 20.94,-3.597 37.722,-7.336 58.594,-13.625 23.401,-7.71 43.97,-14.264 69.188,-21.906 21.827,-6.608 37.313,-10.325 66.343,-15.25 11.593,-1.092 20.027,-1.764 28.813,-2.063 v 0.031 c 4.185,-0.141 7.766,-0.197 11.281,-0.218 3.524,0.02 7.116,0.076 11.313,0.218 v -0.03 c 8.778,0.298 17.23,0.971 28.812,2.062 29.03,4.925 44.517,8.642 66.344,15.25 25.219,7.642 45.787,14.197 69.187,21.906 20.873,6.29 37.655,10.028 58.594,13.625 7.21,-20.717 13.201,-38.06 21.22,-57.094 -16.679,-3.823 -29.688,-6.856 -48,-12.469 -23.155,-7.073 -36.127,-13.401 -77.282,-27.156 -23.255,-7.812 -43.538,-14.899 -77.532,-23.219 -5.766,-1.384 -23.387,-3.617 -41.03,-4.562 -10.801,-0.445 -12.475,-0.445 -23.22,0 z"
         fill="#dd0000"
         id="path126" />
      <path
         d="m 802.96,884.72 v 0.062 c -19.31,0.325 -32.887,1.894 -61.718,8.094 -47.74,11.108 -89.448,27.453 -116.91,34.968 -16.153,4.087 -30.11,6.976 -45.718,10.063 5.122,16.14 10.712,30.883 16.562,44.25 6.156,10.06 14.934,11.19 24.5,10.062 15.285,-2.346 27.846,-5.047 43.313,-9.03 30.714,-8.269 55.775,-16.819 85.125,-22.813 23.467,-4.267 42.074,-5.503 64.687,-6.157 22.616,0.654 41.22,1.89 64.688,6.157 29.35,5.994 54.442,14.544 85.156,22.812 15.467,3.984 28.028,6.685 43.312,9.031 9.567,1.128 18.345,-0.003 24.5,-10.062 5.85,-13.367 11.44,-28.11 16.563,-44.25 -15.607,-3.087 -29.597,-5.976 -45.75,-10.063 -27.459,-7.515 -69.134,-23.86 -116.88,-34.968 -28.818,-6.197 -42.423,-7.768 -61.719,-8.094 v -0.063 c -3.789,-0.022 -6.584,0.03 -9.875,0.032 -3.285,-0.002 -6.06,-0.054 -9.844,-0.032 z"
         fill="#ffc709"
         id="path127" />
    </g>
    <path
       d="m 1021.2,755.68 c -5.785,12.036 -10.327,23.155 -13.425,34.023"
       fill="none"
       stroke="#ffc709"
       stroke-width="5"
       id="path128" />
    <path
       d="m 1305.9,841.63 c -29.99,-3.253 -38.726,-4.077 -63.524,-8.199 -23.264,-4.242 -42.465,-8.503 -63.375,-14.158 -6.334,9.425 -12.225,18.472 -18.784,27.822 -5.881,9.374 -8.5,12.818 -17.623,32.145 18.824,1.709 34.402,4.562 54.206,7.1 16.99,2.212 36.467,4.876 56.397,7.314 7.64,-7.49 13.471,-13.622 21.79,-22.242 10.153,-10.23 17.894,-18.196 30.913,-29.782 z m -210.38,-6.406 c 30.18,6.365 33.915,6.974 56.579,14.313 -11.512,20.044 -17.963,38.982 -25.98,55.635 -23.244,-5.267 -35.063,-7.713 -57.568,-12.355 l 11.406,-24.5 15.563,-33.094 z"
       fill="#dd0000"
       fill-rule="evenodd"
       id="path129" />
    <path
       d="m 1253.3,893.59 c -18.443,-2.192 -36.554,-4.716 -55.329,-7.173 -21.948,-2.945 -36.725,-5.417 -56.88,-7.431 -4.163,9.688 -6.307,14.893 -11.244,25.782 -4.13,9.089 -9.584,17.714 -13.695,25.054 13.346,1.857 23.57,3.448 38.244,4.974 15.85,1.336 21.579,1.845 34.402,1.02 12.616,-1.137 21.845,-3.602 33.066,-12.375 7.257,-5.85 18.805,-17.613 31.436,-29.851 z m -127.18,11.578 c -20.055,-4.68 -38.053,-8.467 -59.222,-12.701 -5.04,12.15 -7.011,17.695 -11.31,30.217 -4.479,12.603 -8.216,24.019 -12.324,36.028 10.053,2.704 13.797,3.553 25.038,4.995 9.086,0.669 17.579,-0.295 24.142,-5.563 5.262,-3.794 12.75,-15.307 19.794,-27.637 5.322,-9.485 9.006,-15.26 13.882,-25.34 z"
       fill="#ffc709"
       fill-rule="evenodd"
       id="path130" />
    <path
       d="m 517.06,807.39 c 4.797,13.349 15.247,30.372 22.054,44.726 2.897,5.542 12.275,25.16 19.082,43.104 M 430.716,793.28 c 11.187,17.484 21.655,33.531 33.623,50.68 8.627,12.565 14.02,24.8 19.552,37.43 m 710.76,-86.294 c -11.186,17.483 -21.394,31.715 -33.362,48.864 -8.627,12.565 -14.02,24.8 -19.552,37.43 m -33.238,-75.277 c -4.797,13.348 -15.247,31.668 -22.054,46.022 -2.897,5.542 -12.275,25.16 -19.082,43.104"
       fill="none"
       stroke="#ffc709"
       stroke-width="3.125"
       id="path131" />
    <path
       d="m 249.8,762.02 c -1.84,2.8 -0.622,7.08 0.8,9.66 1.208,2.194 5.206,7.426 10.616,8.18 40.887,1.612 67.194,1.086 109.44,-7.022 44.635,-10.542 84.819,-20.502 129.96,-37.38 26.56,-9.58 58.206,-23.147 77.206,-28.33 23.89,-6.431 47.244,-10.466 55.562,-0.321 5.968,9.343 -13.87,20.312 -33.897,26.95 -23.269,7.06 -45.163,10.685 -68.57,13.76 -24.707,4.523 -50.927,9.458 -73.023,16.18 -13.833,4.477 -29.648,15.733 -27.948,25.571 2.864,12.867 21.18,9.194 37.516,3.778 l 108.34,-41.364 c 12.353,-4.513 25.605,-2.994 28.4,3.643 2.447,6.786 0.495,16.185 -16.166,19.534 l -51.867,8.757 c -18.407,3.344 -20.462,16.72 -19.064,21.546 1.544,5.017 9.025,12.037 31.189,6.745 50.877,-12.46 86.357,-30.142 119.23,-40.265 80.102,-27.202 95.002,-29.251 145.21,-29.45 48.435,0.1 63.786,1.772 145.38,29.45 32.87,10.123 68.35,27.806 119.23,40.265 22.164,5.292 29.385,-2.506 30.93,-7.523 1.397,-4.825 -1.177,-15.35 -18.806,-20.768 l -51.866,-8.757 c -16.661,-3.35 -18.613,-12.748 -16.167,-19.534 2.796,-6.637 16.048,-8.156 28.401,-3.643 l 108.34,41.364 c 16.335,5.416 35.43,9.608 38.294,-3.259 1.7,-9.838 -11.003,-20.835 -28.727,-26.09 -22.096,-6.722 -48.315,-11.657 -73.023,-16.18 -23.407,-3.075 -45.3,-6.7 -68.57,-13.76 -20.027,-6.638 -39.865,-17.348 -34.156,-26.95 9.615,-10.404 33.488,-6.37 55.822,0.321 19,5.183 50.646,18.75 77.206,28.33 45.138,16.878 85.321,26.838 129.96,37.38 42.248,8.108 68.555,8.634 109.44,7.021 5.41,-0.753 9.408,-5.985 10.616,-8.18 1.421,-2.58 2.64,-6.86 0.8,-9.659"
       fill="none"
       stroke="#ffc709"
       stroke-width="5"
       id="path132" />
  </g>
</svg>
