<svg height="600" viewBox="0 0 600 600" width="600" xmlns="http://www.w3.org/2000/svg" xmlns:xlink="http://www.w3.org/1999/xlink"><clipPath id="a"><path d="m0 500h748.12v-500h-748.12z" transform="translate(-593.88181 -205.6758)"/></clipPath><clipPath id="b"><path d="m0 500h748.12v-500h-748.12z" transform="translate(-460.12061 -219.2295)"/></clipPath><clipPath id="c"><path d="m0 500h748.12v-500h-748.12z" transform="translate(-491.75541 -252.48581)"/></clipPath><clipPath id="d"><path d="m0 500h748.12v-500h-748.12z" transform="translate(-505.95211 -245.99321)"/></clipPath><clipPath id="e"><path d="m0 500h748.12v-500h-748.12z" transform="translate(-492.31741 -252.36521)"/></clipPath><clipPath id="f"><path d="m0 500h748.12v-500h-748.12z" transform="translate(-666.06742 -266.25681)"/></clipPath><clipPath id="g"><path d="m0 500h748.12v-500h-748.12z" transform="translate(-666.06742 -266.25681)"/></clipPath><clipPath id="h"><path d="m0 500h748.12v-500h-748.12z" transform="translate(-521.76071 -215.57811)"/></clipPath><clipPath id="i"><path d="m0 500h748.12v-500h-748.12z" transform="translate(-526.63282 -206.6631)"/></clipPath><clipPath id="j"><path d="m0 500h748.12v-500h-748.12z" transform="translate(-552.58501 -200.58011)"/></clipPath><clipPath id="k"><path d="m0 500h748.12v-500h-748.12z" transform="translate(-597.59771 -151.1055)"/></clipPath><clipPath id="l"><path d="m0 500h748.12v-500h-748.12z" transform="translate(-574.88671 -148.26461)"/></clipPath><clipPath id="m"><path d="m0 500h748.12v-500h-748.12z" transform="translate(-548.93362 -157.58981)"/></clipPath><clipPath id="n"><path d="m0 500h748.12v-500h-748.12z" transform="translate(-523.79101 -163.27151)"/></clipPath><clipPath id="o"><path d="m0 500h748.12v-500h-748.12z" transform="translate(-527.03321 -168.5352)"/></clipPath><clipPath id="p"><path d="m0 500h748.12v-500h-748.12z" transform="translate(-610.98341 -187.1943)"/></clipPath><clipPath id="q"><path d="m0 500h748.12v-500h-748.12z" transform="translate(-542.16892 -175.58201)"/></clipPath><clipPath id="r"><path d="m0 500h748.12v-500h-748.12z" transform="translate(-599.21872 -172.59671)"/></clipPath><clipPath id="s"><path d="m0 500h748.12v-500h-748.12z" transform="translate(-562.72072 -175.0283)"/></clipPath><clipPath id="t"><path d="m0 500h748.12v-500h-748.12z" transform="translate(-584.54101 -195.88481)"/></clipPath><clipPath id="u"><path d="m0 500h748.12v-500h-748.12z" transform="translate(-589.78121 -197.2568)"/></clipPath><clipPath id="v"><path d="m0 500h748.12v-500h-748.12z" transform="translate(-592.74322 -194.74511)"/></clipPath><clipPath id="w"><path d="m0 500h748.12v-500h-748.12z" transform="translate(-598.88962 -192.6992)"/></clipPath><clipPath id="x"><path d="m0 500h748.12v-500h-748.12z" transform="translate(-605.26952 -191.5596)"/></clipPath><clipPath id="y"><path d="m0 500h748.12v-500h-748.12z" transform="translate(-597.98341 -175.16411)"/></clipPath><clipPath id="z"><path d="m0 500h748.12v-500h-748.12z" transform="translate(-577.48732 -183.1328)"/></clipPath><clipPath id="A"><path d="m0 500h748.12v-500h-748.12z" transform="translate(-595.02151 -165.1406)"/></clipPath><clipPath id="B"><path d="m0 500h748.12v-500h-748.12z" transform="translate(-589.55662 -172.20311)"/></clipPath><clipPath id="C"><path d="m0 500h748.12v-500h-748.12z" transform="translate(-583.17682 -172.4277)"/></clipPath><clipPath id="D"><path d="m0 500h748.12v-500h-748.12z" transform="translate(-576.57232 -173.5674)"/></clipPath><clipPath id="E"><path d="m0 500h748.12v-500h-748.12z" transform="translate(-501.87502 -253.95411)"/></clipPath><clipPath id="F"><path d="m0 500h748.12v-500h-748.12z" transform="translate(-505.97561 -260.7915)"/></clipPath><clipPath id="G"><path d="m0 500h748.12v-500h-748.12z" transform="translate(-511.89841 -258.168)"/></clipPath><clipPath id="H"><path d="m0 500h748.12v-500h-748.12z" transform="translate(-662.19922 -274.68311)"/></clipPath><clipPath id="I"><path d="m0 500h748.12v-500h-748.12z" transform="translate(-664.02152 -276.72951)"/></clipPath><clipPath id="J"><path d="m0 500h748.12v-500h-748.12z" transform="translate(-664.24612 -277.86911)"/></clipPath><clipPath id="K"><path d="m0 500h748.12v-500h-748.12z" transform="translate(-665.61821 -287.89211)"/></clipPath><clipPath id="L"><path d="m0 500h748.12v-500h-748.12z" transform="translate(-664.02152 -293.58201)"/></clipPath><clipPath id="M"><path d="m0 500h748.12v-500h-748.12z" transform="translate(-536.03812 -322.50441)"/></clipPath><clipPath id="N"><path d="m0 500h748.12v-500h-748.12z" transform="translate(-547.88281 -304.74511)"/></clipPath><clipPath id="O"><path d="m0 500h748.12v-500h-748.12z" transform="translate(-582.95212 -276.5049)"/></clipPath><clipPath id="P"><path d="m0 500h748.12v-500h-748.12z" transform="translate(-599.34772 -271.48931)"/></clipPath><clipPath id="Q"><path d="m0 500h748.12v-500h-748.12z" transform="translate(-608.23142 -270.12501)"/></clipPath><clipPath id="R"><path d="m0 500h748.12v-500h-748.12z" transform="translate(-642.16112 -278.0937)"/></clipPath><clipPath id="S"><path d="m0 500h748.12v-500h-748.12z" transform="translate(-648.76562 -281.9697)"/></clipPath><clipPath id="T"><path d="m0 500h748.12v-500h-748.12z" transform="translate(-641.24612 -288.79931)"/></clipPath><clipPath id="U"><path d="m0 500h748.12v-500h-748.12z" transform="translate(-632.13772 -295.40381)"/></clipPath><clipPath id="V"><path d="m0 500h748.12v-500h-748.12z" transform="translate(-638.74222 -265.34181)"/></clipPath><clipPath id="W"><path d="m0 500h748.12v-500h-748.12z" transform="translate(-627.35452 -253.04741)"/></clipPath><clipPath id="X"><path d="m0 500h748.12v-500h-748.12z" transform="translate(-630.99802 -243.48141)"/></clipPath><clipPath id="Y"><path d="m0 500h748.12v-500h-748.12z" transform="translate(-633.50201 -237.792)"/></clipPath><clipPath id="Z"><path d="m0 500h748.12v-500h-748.12z" transform="translate(-630.09182 -234.83111)"/></clipPath><clipPath id="aa"><path d="m0 500h748.12v-500h-748.12z" transform="translate(-622.80472 -230.2725)"/></clipPath><clipPath id="ab"><path d="m0 500h748.12v-500h-748.12z" transform="translate(-618.92872 -226.62891)"/></clipPath><clipPath id="ac"><path d="m0 500h748.12v-500h-748.12z" transform="translate(-612.32422 -218.20311)"/></clipPath><clipPath id="ad"><path d="m0 500h748.12v-500h-748.12z" transform="translate(-571.33201 -259.65231)"/></clipPath><clipPath id="ae"><path d="m0 500h748.12v-500h-748.12z" transform="translate(-586.59571 -262.3809)"/></clipPath><clipPath id="af"><path d="m0 500h748.12v-500h-748.12z" transform="translate(-607.31642 -248.9463)"/></clipPath><clipPath id="ag"><path d="m0 500h748.12v-500h-748.12z" transform="translate(-603.89752 -237.33401)"/></clipPath><clipPath id="ah"><path d="m0 500h748.12v-500h-748.12z" transform="translate(-601.62701 -227.3115)"/></clipPath><clipPath id="ai"><path d="m0 500h748.12v-500h-748.12z" transform="translate(-599.70901 -246.042)"/></clipPath><clipPath id="aj"><path d="m0 500h748.12v-500h-748.12z" transform="translate(-594.41992 -234.87111)"/></clipPath><clipPath id="ak"><path d="m0 500h748.12v-500h-748.12z" transform="translate(-594.66112 -224.19731)"/></clipPath><clipPath id="al"><path d="m0 500h748.12v-500h-748.12z" transform="translate(-595.10251 -216.0195)"/></clipPath><clipPath id="am"><path d="m0 500h748.12v-500h-748.12z" transform="translate(-543.66991 -327.69681)"/></clipPath><clipPath id="an"><path d="m0 500h748.12v-500h-748.12z" transform="translate(-594.20311 -349.25201)"/></clipPath><clipPath id="ao"><path d="m0 500h748.12v-500h-748.12z" transform="translate(-631.07812 -362.90231)"/></clipPath><clipPath id="ap"><path d="m0 500h748.12v-500h-748.12z" transform="translate(-659.33501 -370.08501)"/></clipPath><clipPath id="aq"><path d="m0 500h748.12v-500h-748.12z" transform="translate(-561.15622 -320.04051)"/></clipPath><clipPath id="ar"><path d="m0 500h748.12v-500h-748.12z" transform="translate(-571.45211 -315.72311)"/></clipPath><clipPath id="as"><path d="m0 500h748.12v-500h-748.12z" transform="translate(-596.11331 -331.29201)"/></clipPath><clipPath id="at"><path d="m0 500h748.12v-500h-748.12z" transform="translate(-591.56351 -338.71481)"/></clipPath><clipPath id="au"><path d="m0 500h748.12v-500h-748.12z" transform="translate(-658.62011 -369.84421)"/></clipPath><clipPath id="av"><path d="m0 500h748.12v-500h-748.12z" transform="translate(-696.45022 -373.67871)"/></clipPath><clipPath id="aw"><path d="m0 500h748.12v-500h-748.12z" transform="translate(-693.81842 -365.77541)"/></clipPath><clipPath id="ax"><path d="m0 500h748.12v-500h-748.12z" transform="translate(-691.18652 -358.11131)"/></clipPath><clipPath id="ay"><path d="m0 500h748.12v-500h-748.12z" transform="translate(-686.15432 -350.44781)"/></clipPath><clipPath id="az"><path d="m0 500h748.12v-500h-748.12z" transform="translate(-681.84472 -344.46091)"/></clipPath><clipPath id="aA"><path d="m0 500h748.12v-500h-748.12z" transform="translate(-678.73142 -337.76031)"/></clipPath><clipPath id="aB"><path d="m0 500h748.12v-500h-748.12z" transform="translate(-675.61721 -332.24661)"/></clipPath><clipPath id="aC"><path d="m0 500h748.12v-500h-748.12z" transform="translate(-659.09372 -321.95071)"/></clipPath><clipPath id="aD"><path d="m0 500h748.12v-500h-748.12z" transform="translate(-634.90622 -308.78171)"/></clipPath><clipPath id="aE"><path d="m0 500h748.12v-500h-748.12z" transform="translate(-661.01171 -362.42091)"/></clipPath><clipPath id="aF"><path d="m0 500h748.12v-500h-748.12z" transform="translate(-662.68952 -354.99801)"/></clipPath><clipPath id="aG"><path d="m0 500h748.12v-500h-748.12z" transform="translate(-664.12601 -348.53761)"/></clipPath><clipPath id="aH"><path d="m0 500h748.12v-500h-748.12z" transform="translate(-665.56252 -342.06931)"/></clipPath><clipPath id="aI"><path d="m0 500h748.12v-500h-748.12z" transform="translate(-666.99902 -335.60111)"/></clipPath><clipPath id="aJ"><path d="m0 500h748.12v-500h-748.12z" transform="translate(-664.12601 -328.90041)"/></clipPath><clipPath id="aK"><path d="m0 500h748.12v-500h-748.12z" transform="translate(-629.64161 -350.92921)"/></clipPath><clipPath id="aL"><path d="m0 500h748.12v-500h-748.12z" transform="translate(-643.29302 -317.88181)"/></clipPath><clipPath id="aM"><path d="m0 500h748.12v-500h-748.12z" transform="translate(-602.82232 -325.30521)"/></clipPath><clipPath id="aN"><path d="m0 500h748.12v-500h-748.12z" transform="translate(-607.37212 -320.27341)"/></clipPath><clipPath id="aO"><path d="m0 500h748.12v-500h-748.12z" transform="translate(-611.68162 -316.20461)"/></clipPath><clipPath id="aP"><path d="m0 500h748.12v-500h-748.12z" transform="translate(-617.42771 -310.94041)"/></clipPath><clipPath id="aQ"><path d="m0 500h748.12v-500h-748.12z" transform="translate(-620.78222 -307.58591)"/></clipPath><clipPath id="aR"><path d="m0 500h748.12v-500h-748.12z" transform="translate(-624.37792 -304.95361)"/></clipPath><clipPath id="aS"><path d="m0 500h748.12v-500h-748.12z" transform="translate(-630.59672 -306.86381)"/></clipPath><g stroke-width=".981029"><path d="m0 599.99947h599.99959v-599.9995053h-599.99959z" fill="#006"/><path d="m600-.000533-599.99959 299.999753 599.99959 299.99975z" fill="#bd1021"/><path d="m64.2843 299.99947 535.71529 267.85178v-535.70356z" fill="#fff"/></g><g stroke="#000" stroke-width="1.72" transform="matrix(.90226107 0 0 .89999928 -300 -.000053)"><path clip-path="url(#a)" d="m0 0s-5.01 4.099.911 10.703c-3.188 2.733-.227 7.97-.227 7.97s-5.466 2.05.227 10.475c-4.099 2.733-2.277 8.882-2.277 8.882s-13.436 5.011-.683 9.792c-10.475-4.554-20.268 6.149-20.268 6.149l-15.257-.455c-2.581 12.676-22.697 1.67-7.743 38.03-3.871.683-8.199 1.822-12.525-1.366-4.327-3.188-16.624-10.02-23.912-3.188-7.287 6.831 4.782 16.623 5.011 16.851.227.228 16.169 8.427 18.446 13.892-.227 4.099-5.238 7.287-.683 16.169 5.238 8.426 37.347 16.396 51.922 19.129 7.06 3.188 10.247 9.337 10.247 9.337l1.595-5.921s32.338 9.565 33.932 14.119c1.594 4.555.682-4.099.682-4.099 12.753 1.139 28.921 12.07 31.199 7.06 10.703 2.05 31.199 11.159 31.199 11.159s7.059.228 2.049-7.515c3.188-5.01-.91-9.338-1.138-9.338s1.365-5.009-2.733-7.742c1.367-4.327-2.505-7.743-2.505-7.743s1.822-5.238-5.465-7.971c.683-4.554-4.1-5.465-4.1-5.465s.684-4.782-2.505-6.832c0-3.644-3.643-5.465-3.643-5.465s2.276-1.367-.912-3.644c-3.187-2.277-36.208-22.545-36.208-22.318 0 .228 24.139-4.326 25.733-5.238 1.594-.91 19.813-12.98 19.813-12.98l-18.448-22.773s-20.495 2.277-21.405 1.139c-.911-1.139 4.326-1.595 5.465-3.416 1.139-1.822 2.961-6.15 6.603-5.694 3.645.456-6.831-6.604-13.663-7.287 0-2.506 8.654-2.732 10.931-.683 2.278 2.049-5.466-5.921-6.377-7.06-.91-1.138 10.249 1.595 10.249 1.595s-1.822-7.515-11.613-9.792c3.87-6.377 2.276-10.477 2.049-10.477-.228 0-6.377 6.377-12.298 5.24 1.595-6.15 6.377-11.842 7.743-12.754s-10.702-.683-12.297 2.733-2.961-8.198 1.365-11.843c-5.008-.226-9.336 2.734-9.336 2.734s-2.96-6.831-.911-10.248c2.05-3.416-7.058 6.832-7.058 6.832l-17.308-7.287-3.872 6.604z" fill="#9c3900" stroke-linejoin="round" transform="matrix(1.3333333 0 0 -1.3333333 791.8424 392.43227)"/><path clip-path="url(#b)" d="m0 0c.406 0 25.144.406 36.498 6.895 5.677-8.921 13.382-15.004 13.382-15.004l3.651 12.976s8.921-.405 9.732-2.433c-1.217-2.432-1.622-5.677-1.622-5.677s6.083-.406 6.488-1.217c.407-.811-1.622-7.704-1.622-7.704l25.955-6.083s2.028 10.138 4.055 8.921c2.028-1.217 10.95-13.788 23.522-14.599 12.571-.811 13.382 10.544 13.382 10.544l2.839-1.623s5.272 11.355 6.083 11.355c.812 0 2.028-1.622 8.921-1.622 2.028-2.433 2.84-8.11 2.84-8.11s-7.706-7.706-5.272-13.79c2.432-6.083 2.838-4.46 2.838-4.46l55.964-13.383s2.84-4.461-2.027-6.894c0-.405-56.369 12.977-56.369 12.977s-5.273-6.083-9.327-4.866c-4.056 1.216-1.217-2.433-1.217-2.433l60.83-4.867s4.461-5.677 1.216-7.299c-4.055-.406-65.697 4.054-65.697 4.054s-3.649-7.705-7.704-1.217c-2.839-4.46-6.084 1.217-6.084 1.217s-5.271-4.054-6.083.406c-4.461-3.244-7.298 2.028-7.298 2.028l-25.955 1.623-1.622-2.434s4.461-1.217-2.433-4.055c-6.894-2.839 41.364-1.622 42.581-2.028s-3.243-4.055-3.243-4.055 24.737-1.622 29.197 3.649c4.461 5.272-1.622-6.894-1.622-6.894s19.466.811 19.466 1.623c0 .811-.407-6.084-13.788-5.272 8.11-5.273 18.248-8.517 18.248-8.517s-10.138-2.432-21.898.406c2.028-5.272 10.949-10.138 10.949-10.138s-6.489-5.678-21.088 8.11c4.055-7.299.811-10.138.406-9.327-.406.812-7.3 10.949-23.521 14.599 10.138-6.488 5.677-9.327 5.677-9.327s-5.271 9.327-13.788 0c-3.244 8.516-15.815 13.382-31.227 14.194-4.866 5.677-7.705 4.055-19.059 7.3-6.489 7.298-15.817 15.409-15.817 15.409s.406 10.949 11.355 9.732c1.217-3.649 1.217-2.432 1.217-2.432s12.166 4.461 15.816-1.622c5.272 9.327 12.57 1.394 13.787-1.849 3.494-.513 21.089-.989 21.089-.989s-2.028 3.649-.811 3.243c1.216-.405 10.949 3.65 10.543 4.866-.406 1.217-.811 5.272.811 4.867 1.623-.405-13.788 2.028-22.305-4.462-2.838 2.84-.81 10.544-.81 10.544l-25.144 5.273-1.217-6.488s-7.298-1.217-6.893.404c.405 1.623-1.622-5.677-1.622-5.677s-9.734 2.434-9.734 2.839 2.839 14.599 2.839 14.193-8.11-.811-19.465-9.327c-3.244 10.138-28.793 23.521-28.793 23.926z" fill="#ffc221" transform="matrix(1.3333333 0 0 -1.3333333 613.49413 374.36067)"/><path clip-path="url(#c)" d="m0 0s-17.032-14.598 0-23.115c.811 5.678 2.028 6.489 2.028 6.489s14.194-5.272 22.71 7.299c-3.65 5.272-10.138 3.244-10.138 3.244s-13.383 0-14.599 6.083z" fill="#ffc221" transform="matrix(1.3333333 0 0 -1.3333333 655.67387 330.01893)"/><path clip-path="url(#d)" d="m0 0-11.761-10.138" fill="none" transform="matrix(1.3333333 0 0 -1.3333333 674.6028 338.67573)"/><path clip-path="url(#e)" d="m0 0s2.277 2.278 2.96 5.01c.684 2.733-.911 5.694 1.822 8.198 2.733 2.505 38.714 17.763 41.674 20.724 2.961 2.96 8.426 9.336 9.109 10.703.684 1.366 2.733-6.832-3.416-10.476 6.605 1.822 10.931 3.871 13.664 2.96-2.733-3.871-10.02-10.248-13.436-10.248 7.971 2.961 15.257 5.466 17.308 3.872 2.048-1.594-9.792-9.565-14.576-10.02 7.971 2.049 18.674 5.237 20.039 1.821-4.326-1.366-2.96-2.503-11.841-7.514-1.139-.912-6.832-1.139-6.832-1.139 6.832.684 16.169 3.416 17.079-1.594-5.465-2.049-7.515-4.782-12.069-5.921s-15.03-3.188-21.407-5.693c-6.376-2.505-15.713-9.792-15.713-9.792s-20.268-.684-20.268-.455c0 .227-3.871 9.336-4.099 9.564z" fill="#fff" stroke-linejoin="round" transform="matrix(1.3333333 0 0 -1.3333333 656.4232 330.17973)"/></g><path clip-path="url(#f)" d="m0 0 39.396-7.515s4.329 5.01 2.051 7.743c5.921 1.365 4.326 9.108 4.326 9.108s6.832 2.96 1.139 9.793c3.873 3.871-.911 6.831-.911 6.831s1.595 6.832-3.416 7.515c1.367 5.466-8.653 7.288-8.653 7.288s-20.723-5.694-35.298-6.149c4.782-4.782-1.822-7.743-1.822-7.743s3.872-2.732 2.733-5.01c-1.139-2.278.683-4.782-4.327-6.377 6.604-2.961-.684-7.969-.684-7.969s7.288-5.011 5.466-7.515z" fill="#fff" transform="matrix(1.2030147 0 0 -1.199999 501.28891 280.49156)"/><g fill="none" stroke="#000" transform="matrix(.90226107 0 0 .89999928 -300 -.000053)"><g stroke-width="1.72"><path clip-path="url(#g)" d="m0 0 39.396-7.515s4.329 5.01 2.051 7.743c5.921 1.365 4.326 9.108 4.326 9.108s6.832 2.96 1.139 9.793c3.873 3.871-.911 6.831-.911 6.831s1.595 6.832-3.416 7.515c1.367 5.466-8.653 7.288-8.653 7.288s-20.723-5.694-35.298-6.149c4.782-4.782-1.822-7.743-1.822-7.743s3.872-2.732 2.733-5.01c-1.139-2.278.683-4.782-4.327-6.377 6.604-2.961-.684-7.969-.684-7.969s7.288-5.011 5.466-7.515z" transform="matrix(1.3333333 0 0 -1.3333333 888.08987 311.6576)"/><path clip-path="url(#h)" d="m0 0-5.271-23.521" transform="matrix(1.3333333 0 0 -1.3333333 695.68093 379.2292)"/><path clip-path="url(#i)" d="m0 0-1.623-7.705" transform="matrix(1.3333333 0 0 -1.3333333 702.17707 391.11587)"/><path clip-path="url(#j)" d="m0 0-2.433-7.3" transform="matrix(1.3333333 0 0 -1.3333333 736.78 399.22653)"/><path clip-path="url(#k)" d="m0 0c-.405 0-12.977-1.622-14.599-1.217s19.87-6.488 19.87-9.327" transform="matrix(1.3333333 0 0 -1.3333333 796.79693 465.19267)"/><path clip-path="url(#l)" d="m0 0s-12.571 8.109-14.599 7.3c-2.028-.812 12.572.404 13.788 1.621" transform="matrix(1.3333333 0 0 -1.3333333 766.5156 468.98053)"/><path clip-path="url(#m)" d="m0 0s-12.977-.405-14.193.811c-1.217 1.216 12.571-8.921 15.004-8.111" transform="matrix(1.3333333 0 0 -1.3333333 731.91147 456.54693)"/><path clip-path="url(#n)" d="m0 0c-.405 0-8.921 3.243-12.57 4.056 3.244-3.244 5.676-7.706 13.787-9.327" transform="matrix(1.3333333 0 0 -1.3333333 698.388 448.97133)"/><path clip-path="url(#o)" d="m0 0c-.405.812-16.221 5.679-16.221 8.111 3.651-1.216 8.922-2.838 13.788-1.622" transform="matrix(1.3333333 0 0 -1.3333333 702.71093 441.95307)"/><path clip-path="url(#p)" d="m0 0-1.621-7.299" transform="matrix(1.3333333 0 0 -1.3333333 814.64453 417.07427)"/><path clip-path="url(#q)" d="m0 0s2.711-2.989.277-6.639" transform="matrix(1.3333333 0 0 -1.3333333 722.89187 432.55733)"/><path clip-path="url(#r)" d="m0 0-4.46-.406" transform="matrix(1.3333333 0 0 -1.3333333 798.95827 436.53773)"/><path clip-path="url(#s)" d="m0 0 8.11-1.217" transform="matrix(1.3333333 0 0 -1.3333333 750.29427 433.2956)"/><path clip-path="url(#t)" d="m0 0s.228-8.198-6.604-7.971c-6.832.229-4.555-.227-4.555-.227" transform="matrix(1.3333333 0 0 -1.3333333 779.388 405.48693)"/><path clip-path="url(#u)" d="m0 0s2.732-.91 2.051-2.961c-.684-2.049.681-7.97-7.288-13.663-8.427-1.821-7.515 7.06-7.515 7.06" transform="matrix(1.3333333 0 0 -1.3333333 786.37493 403.6576)"/><path clip-path="url(#v)" d="m0 0s5.01 2.96 5.693-1.822c.682-4.782-4.099-13.664-7.515-15.031-3.417-1.365-7.287.229-6.832 2.505" transform="matrix(1.3333333 0 0 -1.3333333 790.32427 407.00653)"/><path clip-path="url(#w)" d="m0 0s4.556 3.645 5.921-1.139c1.367-4.782-3.643-15.485-5.693-15.713" transform="matrix(1.3333333 0 0 -1.3333333 798.51947 409.7344)"/><path clip-path="url(#x)" d="m0 0s2.278 1.139 3.871-.228" transform="matrix(1.3333333 0 0 -1.3333333 807.026 411.25387)"/><path clip-path="url(#y)" d="m0 0c-.911-.228-4.783-.454-6.148 2.505" transform="matrix(1.3333333 0 0 -1.3333333 797.3112 433.11453)"/><path clip-path="url(#z)" d="m0 0c-.228 0-4.781-.229-4.781-.229" transform="matrix(1.3333333 0 0 -1.3333333 769.98307 422.4896)"/><path clip-path="url(#A)" d="m0 0-.454 7.516-1.822 2.505-3.189-3.189s-.455-7.515-1.821-8.198" transform="matrix(1.3333333 0 0 -1.3333333 793.362 446.4792)"/><path clip-path="url(#B)" d="m0 0c-.228.455-2.505 4.781-2.505 4.781l-3.872-4.781s-.454-6.833-1.821-7.517" transform="matrix(1.3333333 0 0 -1.3333333 786.07547 437.06253)"/><path clip-path="url(#C)" d="m0 0c0 .228-1.594 4.554-1.594 4.554s-4.554-2.505-5.01-4.326c-.455-1.822-.683-6.832-1.822-7.289" transform="matrix(1.3333333 0 0 -1.3333333 777.56907 436.76307)"/><path clip-path="url(#D)" d="m0 0s.456 4.1-.911 4.1c-1.365 0-7.515-5.695-7.742-10.704" transform="matrix(1.3333333 0 0 -1.3333333 768.76307 435.24347)"/><path clip-path="url(#E)" d="m0 0s.228 4.554 2.277 6.148c2.05 1.595 12.298 5.466 14.575 8.883 2.277 3.415-3.416-5.921-2.505-8.426" transform="matrix(1.3333333 0 0 -1.3333333 669.16667 328.0612)"/><path clip-path="url(#F)" d="m0 0s5.011-1.823 3.872-5.693" transform="matrix(1.3333333 0 0 -1.3333333 674.63413 318.94467)"/></g><path clip-path="url(#G)" d="m0 0c0-2.075-1.683-3.757-3.758-3.757s-3.757 1.682-3.757 3.757 1.682 3.757 3.757 3.757 3.758-1.682 3.758-3.757z" transform="matrix(1.3333333 0 0 -1.3333333 682.5312 322.44267)"/><g stroke-width="1.72"><path clip-path="url(#H)" d="m0 0s34.843-4.099 36.438-4.099c1.593 0 7.742-2.05 8.881-4.099" transform="matrix(1.3333333 0 0 -1.3333333 882.93227 300.42253)"/><path clip-path="url(#I)" d="m0 0 48.506-1.138" transform="matrix(1.3333333 0 0 -1.3333333 885.362 297.694)"/><path clip-path="url(#J)" d="m0 0s46 2.732 49.188 7.515" transform="matrix(1.3333333 0 0 -1.3333333 885.66147 296.17453)"/><path clip-path="url(#K)" d="m0 0s46.229 5.01 46.686 4.327" transform="matrix(1.3333333 0 0 -1.3333333 887.49093 282.81053)"/><path clip-path="url(#L)" d="m0 0s44.862 7.06 45.317 5.921" transform="matrix(1.3333333 0 0 -1.3333333 885.362 275.224)"/><path clip-path="url(#M)" d="m0 0s14.119-15.485 12.752-25.961" transform="matrix(1.3333333 0 0 -1.3333333 714.71747 236.6608)"/><path clip-path="url(#N)" d="m0 0s4.555-6.604 6.376-7.288c1.822-.683 17.763-1.593 18.674-8.426.911-4.327-3.416-2.96-2.733-6.148 1.138-4.099 11.842-9.337 23.455-3.189" transform="matrix(1.3333333 0 0 -1.3333333 730.5104 260.33987)"/><path clip-path="url(#O)" d="m0 0s9.564-14.12 23.684 1.138" transform="matrix(1.3333333 0 0 -1.3333333 777.26947 297.99347)"/><path clip-path="url(#P)" d="m0 0s11.613-6.148 21.178 9.792" transform="matrix(1.3333333 0 0 -1.3333333 799.13027 304.68093)"/><path clip-path="url(#Q)" d="m0 0s5.693-4.783 17.536 1.593" transform="matrix(1.3333333 0 0 -1.3333333 810.9752 306.5)"/><path clip-path="url(#R)" d="m0 0s17.535-3.643 18.674-4.783" transform="matrix(1.3333333 0 0 -1.3333333 856.2148 295.87507)"/><path clip-path="url(#S)" d="m0 0c.228 0 12.298-.456 12.298-.456" transform="matrix(1.3333333 0 0 -1.3333333 865.0208 290.70707)"/><path clip-path="url(#T)" d="m0 0s20.951 1.366 23.685-2.961" transform="matrix(1.3333333 0 0 -1.3333333 854.9948 281.60093)"/><path clip-path="url(#U)" d="m0 0s29.378-1.139 30.743-2.733" transform="matrix(1.3333333 0 0 -1.3333333 842.85027 272.79493)"/><path clip-path="url(#V)" d="m0 0s5.01 1.366 5.693.683" transform="matrix(1.3333333 0 0 -1.3333333 851.65627 312.8776)"/><path clip-path="url(#W)" d="m0 0s6.604-5.693 15.031-3.188" transform="matrix(1.3333333 0 0 -1.3333333 836.47267 329.27013)"/><path clip-path="url(#X)" d="m0 0s7.516-3.416 16.397-1.365" transform="matrix(1.3333333 0 0 -1.3333333 841.33067 342.0248)"/><path clip-path="url(#Y)" d="m0 0s7.515-5.01 12.524-4.099" transform="matrix(1.3333333 0 0 -1.3333333 844.66933 349.61067)"/><path clip-path="url(#Z)" d="m0 0s5.237-3.872 5.465-5.921" transform="matrix(1.3333333 0 0 -1.3333333 840.1224 353.55853)"/><path clip-path="url(#aa)" d="m0 0s1.594-8.197 7.287-11.158" transform="matrix(1.3333333 0 0 -1.3333333 830.40627 359.63667)"/><path clip-path="url(#ab)" d="m0 0s-2.505-10.703 3.872-17.308" transform="matrix(1.3333333 0 0 -1.3333333 825.23827 364.4948)"/><path clip-path="url(#ac)" d="m0 0c0-.228-.455-5.011-.228-5.467" transform="matrix(1.3333333 0 0 -1.3333333 816.43227 375.7292)"/><path clip-path="url(#ad)" d="m0 0 12.298.683s4.554 1.822 1.365 4.782" transform="matrix(1.3333333 0 0 -1.3333333 761.776 320.4636)"/><path clip-path="url(#ae)" d="m0 0c.229 0 11.613-.911 14.575-4.327 2.96-3.416 6.604-10.247 8.654-11.387 2.049-1.138 2.504.456 2.504.456" transform="matrix(1.3333333 0 0 -1.3333333 782.1276 316.82547)"/><path clip-path="url(#af)" d="m0 0s-6.148-10.476-1.366-13.664" transform="matrix(1.3333333 0 0 -1.3333333 809.7552 334.73827)"/><path clip-path="url(#ag)" d="m0 0s-5.465-7.287-1.138-10.931" transform="matrix(1.3333333 0 0 -1.3333333 805.19667 350.22133)"/><path clip-path="url(#ah)" d="m0 0s-4.327-7.061.911-11.842" transform="matrix(1.3333333 0 0 -1.3333333 802.16933 363.58467)"/><path clip-path="url(#ai)" d="m0 0c-.294-.294-5.29-3.82-7.053-2.939" transform="matrix(1.3333333 0 0 -1.3333333 799.612 338.61067)"/><path clip-path="url(#aj)" d="m0 0s2.057-2.057 3.82-1.764" transform="matrix(1.3333333 0 0 -1.3333333 792.55987 353.5052)"/><path clip-path="url(#ak)" d="m0 0 3.282-2.251" transform="matrix(1.3333333 0 0 -1.3333333 792.88147 367.73693)"/><path clip-path="url(#al)" d="m0 0 2.839-1.713" transform="matrix(1.3333333 0 0 -1.3333333 793.47 378.64067)"/><path clip-path="url(#am)" d="m0 0s5.986-3.113 10.775 0c4.79 3.113 27.78 14.847 33.766 16.763 5.986 1.915 9.339 12.931 10.537 17.72" transform="matrix(1.3333333 0 0 -1.3333333 724.8932 229.7376)"/><path clip-path="url(#an)" d="m0 0 33.526 9.819s5.508 4.55 5.748 12.931" transform="matrix(1.3333333 0 0 -1.3333333 792.2708 200.99733)"/><path clip-path="url(#ao)" d="m0 0s33.525 3.353 33.525 15.806" transform="matrix(1.3333333 0 0 -1.3333333 841.43747 182.79693)"/><path clip-path="url(#ap)" d="m0 0s35.202 9.579 38.556 13.171" transform="matrix(1.3333333 0 0 -1.3333333 879.11333 173.22)"/><path clip-path="url(#aq)" d="m0 0s21.312 11.016 24.666 12.213c3.352 1.198 11.014 10.777-.479 10.777" transform="matrix(1.3333333 0 0 -1.3333333 748.20827 239.946)"/><path clip-path="url(#ar)" d="m0 0c.239 0 17.481 11.255 23.229 12.692 3.113 4.31 1.437 8.86-3.832 7.902" transform="matrix(1.3333333 0 0 -1.3333333 761.93613 245.70253)"/><path clip-path="url(#as)" d="m0 0c.479.239 9.34.479 6.227-6.466-4.549-3.352-24.187-13.171-24.187-13.171" transform="matrix(1.3333333 0 0 -1.3333333 794.81773 224.944)"/><path clip-path="url(#at)" d="m0 0 37.357 12.453s3.114 6.465-1.436 7.423" transform="matrix(1.3333333 0 0 -1.3333333 788.75133 215.04693)"/><path clip-path="url(#au)" d="m0 0c0-.239 4.791-2.874 1.917-7.184-5.269-3.113-30.174-9.1-30.174-9.1" transform="matrix(1.3333333 0 0 -1.3333333 878.16013 173.54107)"/><path clip-path="url(#av)" d="m0 0-35.197-9.821" transform="matrix(1.3333333 0 0 -1.3333333 928.60027 168.4284)"/><path clip-path="url(#aw)" d="m0 0-30.651-9.339" transform="matrix(1.3333333 0 0 -1.3333333 925.0912 178.96613)"/><path clip-path="url(#ax)" d="m0 0-27.061-8.137" transform="matrix(1.3333333 0 0 -1.3333333 921.582 189.18493)"/><path clip-path="url(#ay)" d="m0 0c-.719 0-20.114-5.987-20.114-5.987" transform="matrix(1.3333333 0 0 -1.3333333 914.8724 199.40293)"/><path clip-path="url(#az)" d="m0 0-12.453-5.029" transform="matrix(1.3333333 0 0 -1.3333333 909.12627 207.38547)"/><path clip-path="url(#aA)" d="m0 0c-.479 0-10.776-4.55-10.776-4.55" transform="matrix(1.3333333 0 0 -1.3333333 904.9752 216.3196)"/><path clip-path="url(#aB)" d="m0 0-9.578-4.55" transform="matrix(1.3333333 0 0 -1.3333333 900.82293 223.6712)"/><path clip-path="url(#aC)" d="m0 0s1.198-.479.958-1.916" transform="matrix(1.3333333 0 0 -1.3333333 878.7916 237.39907)"/><path clip-path="url(#aD)" d="m0 0s4.071-1.437.239-5.269c-1.915-2.634-7.423-1.916-10.775-6.705" transform="matrix(1.3333333 0 0 -1.3333333 846.5416 254.95773)"/><path clip-path="url(#aE)" d="m0 0s5.03-1.197 1.198-7.663c-10.058-3.832-30.413-10.058-30.413-10.058s-.958-1.676-3.592-3.113c-2.633-1.437-31.61-9.579-31.61-9.579" transform="matrix(1.3333333 0 0 -1.3333333 881.34893 183.4388)"/><path clip-path="url(#aF)" d="m0 0s5.508-2.395 0-6.466c-6.227-3.592-28.019-10.297-28.019-10.297s-.24-1.916-1.197-2.634c-.958-.718-29.694-10.297-29.694-10.297" transform="matrix(1.3333333 0 0 -1.3333333 883.586 193.336)"/><path clip-path="url(#aG)" d="m0 0s5.747-1.676.719-6.465c-5.988-3.593-25.146-10.058-25.146-10.058s-1.915-2.395-5.028-3.353-22.988-9.1-22.988-9.1" transform="matrix(1.3333333 0 0 -1.3333333 885.50133 201.94987)"/><path clip-path="url(#aH)" d="m0 0c1.677-.718 6.227-1.437.719-5.747-6.466-2.874-22.271-9.1-22.271-9.1l-1.437-2.634-25.145-10.776" transform="matrix(1.3333333 0 0 -1.3333333 887.41667 210.57427)"/><path clip-path="url(#aI)" d="m0 0s2.395-2.874-2.874-6.226c-5.748-3.113-18.199-7.902-18.199-7.902" transform="matrix(1.3333333 0 0 -1.3333333 889.332 219.19853)"/><path clip-path="url(#aJ)" d="m0 0s2.634-1.676-.718-4.071c-3.832-1.916-18.918-9.819-18.918-9.819l-9.82-6.465" transform="matrix(1.3333333 0 0 -1.3333333 885.50133 228.1328)"/><path clip-path="url(#aK)" d="m0 0c0-.24 4.072-3.592 2.635-7.424 3.592-2.634 2.873-5.508 2.873-5.508s5.029-2.873 4.311-6.944c5.03-1.198 4.789-4.071 4.789-4.071l-1.676-2.635s5.028.24.718-6.226c2.634-1.437 1.438-3.113 1.438-3.113" transform="matrix(1.3333333 0 0 -1.3333333 839.52213 198.76107)"/><path clip-path="url(#aL)" d="m0 0c-.719 0-17.481-6.226-21.792-10.058" transform="matrix(1.3333333 0 0 -1.3333333 857.724 242.82427)"/><path clip-path="url(#aM)" d="m0 0s5.028.239 4.312-5.269c5.747 1.916 4.548-3.591 4.548-3.591s6.705 2.634 5.509-5.748c4.31.958 3.591-3.352 3.591-3.352s3.832.239 3.832-1.916c2.634 2.395 5.508 1.197 5.508 1.197s1.916 2.635 4.55 1.916" transform="matrix(1.3333333 0 0 -1.3333333 803.76307 232.9264)"/><path clip-path="url(#aN)" d="m0 0c0-.479-22.511-12.932-22.511-12.932" transform="matrix(1.3333333 0 0 -1.3333333 809.82947 239.63547)"/><path clip-path="url(#aO)" d="m0 0-17.003-10.537" transform="matrix(1.3333333 0 0 -1.3333333 815.57547 245.06053)"/><path clip-path="url(#aP)" d="m0 0c0-.24-14.848-8.861-14.848-8.861" transform="matrix(1.3333333 0 0 -1.3333333 823.23693 252.07947)"/><path clip-path="url(#aQ)" d="m0 0s-10.537-8.622-12.932-8.143" transform="matrix(1.3333333 0 0 -1.3333333 827.7096 256.55213)"/><path clip-path="url(#aR)" d="m0 0s-5.987-4.55-11.017-6.705" transform="matrix(1.3333333 0 0 -1.3333333 832.50387 260.06187)"/><path clip-path="url(#aS)" d="m0 0s1.916-2.395-10.058-8.621" transform="matrix(1.3333333 0 0 -1.3333333 840.7956 257.51493)"/></g></g></svg>