<?xml version="1.0" encoding="UTF-8" standalone="no"?>
<svg
   height="600"
   viewBox="0 0 600 600"
   width="600"
   version="1.1"
   id="svg198"
   sodipodi:docname="square.svg"
   inkscape:version="1.4 (e7c3feb1, 2024-10-09)"
   xmlns:inkscape="http://www.inkscape.org/namespaces/inkscape"
   xmlns:sodipodi="http://sodipodi.sourceforge.net/DTD/sodipodi-0.dtd"
   xmlns="http://www.w3.org/2000/svg"
   xmlns:svg="http://www.w3.org/2000/svg">
  <defs
     id="defs198" />
  <sodipodi:namedview
     id="namedview198"
     pagecolor="#ffffff"
     bordercolor="#000000"
     borderopacity="0.25"
     inkscape:showpageshadow="2"
     inkscape:pageopacity="0.0"
     inkscape:pagecheckerboard="0"
     inkscape:deskcolor="#d1d1d1"
     inkscape:current-layer="svg198" />
  <clipPath
     id="a">
    <path
       d="M 0,500 H 748.12 V 0 H 0 Z"
       transform="translate(-593.88181,-205.6758)"
       id="path1" />
  </clipPath>
  <clipPath
     id="b">
    <path
       d="M 0,500 H 748.12 V 0 H 0 Z"
       transform="translate(-460.12061,-219.2295)"
       id="path2" />
  </clipPath>
  <clipPath
     id="c">
    <path
       d="M 0,500 H 748.12 V 0 H 0 Z"
       transform="translate(-491.75541,-252.48581)"
       id="path3" />
  </clipPath>
  <clipPath
     id="d">
    <path
       d="M 0,500 H 748.12 V 0 H 0 Z"
       transform="translate(-505.95211,-245.99321)"
       id="path4" />
  </clipPath>
  <clipPath
     id="e">
    <path
       d="M 0,500 H 748.12 V 0 H 0 Z"
       transform="translate(-492.31741,-252.36521)"
       id="path5" />
  </clipPath>
  <clipPath
     id="f">
    <path
       d="M 0,500 H 748.12 V 0 H 0 Z"
       transform="translate(-666.06742,-266.25681)"
       id="path6" />
  </clipPath>
  <clipPath
     id="g">
    <path
       d="M 0,500 H 748.12 V 0 H 0 Z"
       transform="translate(-666.06742,-266.25681)"
       id="path7" />
  </clipPath>
  <clipPath
     id="h">
    <path
       d="M 0,500 H 748.12 V 0 H 0 Z"
       transform="translate(-521.76071,-215.57811)"
       id="path8" />
  </clipPath>
  <clipPath
     id="i">
    <path
       d="M 0,500 H 748.12 V 0 H 0 Z"
       transform="translate(-526.63282,-206.6631)"
       id="path9" />
  </clipPath>
  <clipPath
     id="j">
    <path
       d="M 0,500 H 748.12 V 0 H 0 Z"
       transform="translate(-552.58501,-200.58011)"
       id="path10" />
  </clipPath>
  <clipPath
     id="k">
    <path
       d="M 0,500 H 748.12 V 0 H 0 Z"
       transform="translate(-597.59771,-151.1055)"
       id="path11" />
  </clipPath>
  <clipPath
     id="l">
    <path
       d="M 0,500 H 748.12 V 0 H 0 Z"
       transform="translate(-574.88671,-148.26461)"
       id="path12" />
  </clipPath>
  <clipPath
     id="m">
    <path
       d="M 0,500 H 748.12 V 0 H 0 Z"
       transform="translate(-548.93362,-157.58981)"
       id="path13" />
  </clipPath>
  <clipPath
     id="n">
    <path
       d="M 0,500 H 748.12 V 0 H 0 Z"
       transform="translate(-523.79101,-163.27151)"
       id="path14" />
  </clipPath>
  <clipPath
     id="o">
    <path
       d="M 0,500 H 748.12 V 0 H 0 Z"
       transform="translate(-527.03321,-168.5352)"
       id="path15" />
  </clipPath>
  <clipPath
     id="p">
    <path
       d="M 0,500 H 748.12 V 0 H 0 Z"
       transform="translate(-610.98341,-187.1943)"
       id="path16" />
  </clipPath>
  <clipPath
     id="q">
    <path
       d="M 0,500 H 748.12 V 0 H 0 Z"
       transform="translate(-542.16892,-175.58201)"
       id="path17" />
  </clipPath>
  <clipPath
     id="r">
    <path
       d="M 0,500 H 748.12 V 0 H 0 Z"
       transform="translate(-599.21872,-172.59671)"
       id="path18" />
  </clipPath>
  <clipPath
     id="s">
    <path
       d="M 0,500 H 748.12 V 0 H 0 Z"
       transform="translate(-562.72072,-175.0283)"
       id="path19" />
  </clipPath>
  <clipPath
     id="t">
    <path
       d="M 0,500 H 748.12 V 0 H 0 Z"
       transform="translate(-584.54101,-195.88481)"
       id="path20" />
  </clipPath>
  <clipPath
     id="u">
    <path
       d="M 0,500 H 748.12 V 0 H 0 Z"
       transform="translate(-589.78121,-197.2568)"
       id="path21" />
  </clipPath>
  <clipPath
     id="v">
    <path
       d="M 0,500 H 748.12 V 0 H 0 Z"
       transform="translate(-592.74322,-194.74511)"
       id="path22" />
  </clipPath>
  <clipPath
     id="w">
    <path
       d="M 0,500 H 748.12 V 0 H 0 Z"
       transform="translate(-598.88962,-192.6992)"
       id="path23" />
  </clipPath>
  <clipPath
     id="x">
    <path
       d="M 0,500 H 748.12 V 0 H 0 Z"
       transform="translate(-605.26952,-191.5596)"
       id="path24" />
  </clipPath>
  <clipPath
     id="y">
    <path
       d="M 0,500 H 748.12 V 0 H 0 Z"
       transform="translate(-597.98341,-175.16411)"
       id="path25" />
  </clipPath>
  <clipPath
     id="z">
    <path
       d="M 0,500 H 748.12 V 0 H 0 Z"
       transform="translate(-577.48732,-183.1328)"
       id="path26" />
  </clipPath>
  <clipPath
     id="A">
    <path
       d="M 0,500 H 748.12 V 0 H 0 Z"
       transform="translate(-595.02151,-165.1406)"
       id="path27" />
  </clipPath>
  <clipPath
     id="B">
    <path
       d="M 0,500 H 748.12 V 0 H 0 Z"
       transform="translate(-589.55662,-172.20311)"
       id="path28" />
  </clipPath>
  <clipPath
     id="C">
    <path
       d="M 0,500 H 748.12 V 0 H 0 Z"
       transform="translate(-583.17682,-172.4277)"
       id="path29" />
  </clipPath>
  <clipPath
     id="D">
    <path
       d="M 0,500 H 748.12 V 0 H 0 Z"
       transform="translate(-576.57232,-173.5674)"
       id="path30" />
  </clipPath>
  <clipPath
     id="E">
    <path
       d="M 0,500 H 748.12 V 0 H 0 Z"
       transform="translate(-501.87502,-253.95411)"
       id="path31" />
  </clipPath>
  <clipPath
     id="F">
    <path
       d="M 0,500 H 748.12 V 0 H 0 Z"
       transform="translate(-505.97561,-260.7915)"
       id="path32" />
  </clipPath>
  <clipPath
     id="G">
    <path
       d="M 0,500 H 748.12 V 0 H 0 Z"
       transform="translate(-511.89841,-258.168)"
       id="path33" />
  </clipPath>
  <clipPath
     id="H">
    <path
       d="M 0,500 H 748.12 V 0 H 0 Z"
       transform="translate(-662.19922,-274.68311)"
       id="path34" />
  </clipPath>
  <clipPath
     id="I">
    <path
       d="M 0,500 H 748.12 V 0 H 0 Z"
       transform="translate(-664.02152,-276.72951)"
       id="path35" />
  </clipPath>
  <clipPath
     id="J">
    <path
       d="M 0,500 H 748.12 V 0 H 0 Z"
       transform="translate(-664.24612,-277.86911)"
       id="path36" />
  </clipPath>
  <clipPath
     id="K">
    <path
       d="M 0,500 H 748.12 V 0 H 0 Z"
       transform="translate(-665.61821,-287.89211)"
       id="path37" />
  </clipPath>
  <clipPath
     id="L">
    <path
       d="M 0,500 H 748.12 V 0 H 0 Z"
       transform="translate(-664.02152,-293.58201)"
       id="path38" />
  </clipPath>
  <clipPath
     id="M">
    <path
       d="M 0,500 H 748.12 V 0 H 0 Z"
       transform="translate(-536.03812,-322.50441)"
       id="path39" />
  </clipPath>
  <clipPath
     id="N">
    <path
       d="M 0,500 H 748.12 V 0 H 0 Z"
       transform="translate(-547.88281,-304.74511)"
       id="path40" />
  </clipPath>
  <clipPath
     id="O">
    <path
       d="M 0,500 H 748.12 V 0 H 0 Z"
       transform="translate(-582.95212,-276.5049)"
       id="path41" />
  </clipPath>
  <clipPath
     id="P">
    <path
       d="M 0,500 H 748.12 V 0 H 0 Z"
       transform="translate(-599.34772,-271.48931)"
       id="path42" />
  </clipPath>
  <clipPath
     id="Q">
    <path
       d="M 0,500 H 748.12 V 0 H 0 Z"
       transform="translate(-608.23142,-270.12501)"
       id="path43" />
  </clipPath>
  <clipPath
     id="R">
    <path
       d="M 0,500 H 748.12 V 0 H 0 Z"
       transform="translate(-642.16112,-278.0937)"
       id="path44" />
  </clipPath>
  <clipPath
     id="S">
    <path
       d="M 0,500 H 748.12 V 0 H 0 Z"
       transform="translate(-648.76562,-281.9697)"
       id="path45" />
  </clipPath>
  <clipPath
     id="T">
    <path
       d="M 0,500 H 748.12 V 0 H 0 Z"
       transform="translate(-641.24612,-288.79931)"
       id="path46" />
  </clipPath>
  <clipPath
     id="U">
    <path
       d="M 0,500 H 748.12 V 0 H 0 Z"
       transform="translate(-632.13772,-295.40381)"
       id="path47" />
  </clipPath>
  <clipPath
     id="V">
    <path
       d="M 0,500 H 748.12 V 0 H 0 Z"
       transform="translate(-638.74222,-265.34181)"
       id="path48" />
  </clipPath>
  <clipPath
     id="W">
    <path
       d="M 0,500 H 748.12 V 0 H 0 Z"
       transform="translate(-627.35452,-253.04741)"
       id="path49" />
  </clipPath>
  <clipPath
     id="X">
    <path
       d="M 0,500 H 748.12 V 0 H 0 Z"
       transform="translate(-630.99802,-243.48141)"
       id="path50" />
  </clipPath>
  <clipPath
     id="Y">
    <path
       d="M 0,500 H 748.12 V 0 H 0 Z"
       transform="translate(-633.50201,-237.792)"
       id="path51" />
  </clipPath>
  <clipPath
     id="Z">
    <path
       d="M 0,500 H 748.12 V 0 H 0 Z"
       transform="translate(-630.09182,-234.83111)"
       id="path52" />
  </clipPath>
  <clipPath
     id="aa">
    <path
       d="M 0,500 H 748.12 V 0 H 0 Z"
       transform="translate(-622.80472,-230.2725)"
       id="path53" />
  </clipPath>
  <clipPath
     id="ab">
    <path
       d="M 0,500 H 748.12 V 0 H 0 Z"
       transform="translate(-618.92872,-226.62891)"
       id="path54" />
  </clipPath>
  <clipPath
     id="ac">
    <path
       d="M 0,500 H 748.12 V 0 H 0 Z"
       transform="translate(-612.32422,-218.20311)"
       id="path55" />
  </clipPath>
  <clipPath
     id="ad">
    <path
       d="M 0,500 H 748.12 V 0 H 0 Z"
       transform="translate(-571.33201,-259.65231)"
       id="path56" />
  </clipPath>
  <clipPath
     id="ae">
    <path
       d="M 0,500 H 748.12 V 0 H 0 Z"
       transform="translate(-586.59571,-262.3809)"
       id="path57" />
  </clipPath>
  <clipPath
     id="af">
    <path
       d="M 0,500 H 748.12 V 0 H 0 Z"
       transform="translate(-607.31642,-248.9463)"
       id="path58" />
  </clipPath>
  <clipPath
     id="ag">
    <path
       d="M 0,500 H 748.12 V 0 H 0 Z"
       transform="translate(-603.89752,-237.33401)"
       id="path59" />
  </clipPath>
  <clipPath
     id="ah">
    <path
       d="M 0,500 H 748.12 V 0 H 0 Z"
       transform="translate(-601.62701,-227.3115)"
       id="path60" />
  </clipPath>
  <clipPath
     id="ai">
    <path
       d="M 0,500 H 748.12 V 0 H 0 Z"
       transform="translate(-599.70901,-246.042)"
       id="path61" />
  </clipPath>
  <clipPath
     id="aj">
    <path
       d="M 0,500 H 748.12 V 0 H 0 Z"
       transform="translate(-594.41992,-234.87111)"
       id="path62" />
  </clipPath>
  <clipPath
     id="ak">
    <path
       d="M 0,500 H 748.12 V 0 H 0 Z"
       transform="translate(-594.66112,-224.19731)"
       id="path63" />
  </clipPath>
  <clipPath
     id="al">
    <path
       d="M 0,500 H 748.12 V 0 H 0 Z"
       transform="translate(-595.10251,-216.0195)"
       id="path64" />
  </clipPath>
  <clipPath
     id="am">
    <path
       d="M 0,500 H 748.12 V 0 H 0 Z"
       transform="translate(-543.66991,-327.69681)"
       id="path65" />
  </clipPath>
  <clipPath
     id="an">
    <path
       d="M 0,500 H 748.12 V 0 H 0 Z"
       transform="translate(-594.20311,-349.25201)"
       id="path66" />
  </clipPath>
  <clipPath
     id="ao">
    <path
       d="M 0,500 H 748.12 V 0 H 0 Z"
       transform="translate(-631.07812,-362.90231)"
       id="path67" />
  </clipPath>
  <clipPath
     id="ap">
    <path
       d="M 0,500 H 748.12 V 0 H 0 Z"
       transform="translate(-659.33501,-370.08501)"
       id="path68" />
  </clipPath>
  <clipPath
     id="aq">
    <path
       d="M 0,500 H 748.12 V 0 H 0 Z"
       transform="translate(-561.15622,-320.04051)"
       id="path69" />
  </clipPath>
  <clipPath
     id="ar">
    <path
       d="M 0,500 H 748.12 V 0 H 0 Z"
       transform="translate(-571.45211,-315.72311)"
       id="path70" />
  </clipPath>
  <clipPath
     id="as">
    <path
       d="M 0,500 H 748.12 V 0 H 0 Z"
       transform="translate(-596.11331,-331.29201)"
       id="path71" />
  </clipPath>
  <clipPath
     id="at">
    <path
       d="M 0,500 H 748.12 V 0 H 0 Z"
       transform="translate(-591.56351,-338.71481)"
       id="path72" />
  </clipPath>
  <clipPath
     id="au">
    <path
       d="M 0,500 H 748.12 V 0 H 0 Z"
       transform="translate(-658.62011,-369.84421)"
       id="path73" />
  </clipPath>
  <clipPath
     id="av">
    <path
       d="M 0,500 H 748.12 V 0 H 0 Z"
       transform="translate(-696.45022,-373.67871)"
       id="path74" />
  </clipPath>
  <clipPath
     id="aw">
    <path
       d="M 0,500 H 748.12 V 0 H 0 Z"
       transform="translate(-693.81842,-365.77541)"
       id="path75" />
  </clipPath>
  <clipPath
     id="ax">
    <path
       d="M 0,500 H 748.12 V 0 H 0 Z"
       transform="translate(-691.18652,-358.11131)"
       id="path76" />
  </clipPath>
  <clipPath
     id="ay">
    <path
       d="M 0,500 H 748.12 V 0 H 0 Z"
       transform="translate(-686.15432,-350.44781)"
       id="path77" />
  </clipPath>
  <clipPath
     id="az">
    <path
       d="M 0,500 H 748.12 V 0 H 0 Z"
       transform="translate(-681.84472,-344.46091)"
       id="path78" />
  </clipPath>
  <clipPath
     id="aA">
    <path
       d="M 0,500 H 748.12 V 0 H 0 Z"
       transform="translate(-678.73142,-337.76031)"
       id="path79" />
  </clipPath>
  <clipPath
     id="aB">
    <path
       d="M 0,500 H 748.12 V 0 H 0 Z"
       transform="translate(-675.61721,-332.24661)"
       id="path80" />
  </clipPath>
  <clipPath
     id="aC">
    <path
       d="M 0,500 H 748.12 V 0 H 0 Z"
       transform="translate(-659.09372,-321.95071)"
       id="path81" />
  </clipPath>
  <clipPath
     id="aD">
    <path
       d="M 0,500 H 748.12 V 0 H 0 Z"
       transform="translate(-634.90622,-308.78171)"
       id="path82" />
  </clipPath>
  <clipPath
     id="aE">
    <path
       d="M 0,500 H 748.12 V 0 H 0 Z"
       transform="translate(-661.01171,-362.42091)"
       id="path83" />
  </clipPath>
  <clipPath
     id="aF">
    <path
       d="M 0,500 H 748.12 V 0 H 0 Z"
       transform="translate(-662.68952,-354.99801)"
       id="path84" />
  </clipPath>
  <clipPath
     id="aG">
    <path
       d="M 0,500 H 748.12 V 0 H 0 Z"
       transform="translate(-664.12601,-348.53761)"
       id="path85" />
  </clipPath>
  <clipPath
     id="aH">
    <path
       d="M 0,500 H 748.12 V 0 H 0 Z"
       transform="translate(-665.56252,-342.06931)"
       id="path86" />
  </clipPath>
  <clipPath
     id="aI">
    <path
       d="M 0,500 H 748.12 V 0 H 0 Z"
       transform="translate(-666.99902,-335.60111)"
       id="path87" />
  </clipPath>
  <clipPath
     id="aJ">
    <path
       d="M 0,500 H 748.12 V 0 H 0 Z"
       transform="translate(-664.12601,-328.90041)"
       id="path88" />
  </clipPath>
  <clipPath
     id="aK">
    <path
       d="M 0,500 H 748.12 V 0 H 0 Z"
       transform="translate(-629.64161,-350.92921)"
       id="path89" />
  </clipPath>
  <clipPath
     id="aL">
    <path
       d="M 0,500 H 748.12 V 0 H 0 Z"
       transform="translate(-643.29302,-317.88181)"
       id="path90" />
  </clipPath>
  <clipPath
     id="aM">
    <path
       d="M 0,500 H 748.12 V 0 H 0 Z"
       transform="translate(-602.82232,-325.30521)"
       id="path91" />
  </clipPath>
  <clipPath
     id="aN">
    <path
       d="M 0,500 H 748.12 V 0 H 0 Z"
       transform="translate(-607.37212,-320.27341)"
       id="path92" />
  </clipPath>
  <clipPath
     id="aO">
    <path
       d="M 0,500 H 748.12 V 0 H 0 Z"
       transform="translate(-611.68162,-316.20461)"
       id="path93" />
  </clipPath>
  <clipPath
     id="aP">
    <path
       d="M 0,500 H 748.12 V 0 H 0 Z"
       transform="translate(-617.42771,-310.94041)"
       id="path94" />
  </clipPath>
  <clipPath
     id="aQ">
    <path
       d="M 0,500 H 748.12 V 0 H 0 Z"
       transform="translate(-620.78222,-307.58591)"
       id="path95" />
  </clipPath>
  <clipPath
     id="aR">
    <path
       d="M 0,500 H 748.12 V 0 H 0 Z"
       transform="translate(-624.37792,-304.95361)"
       id="path96" />
  </clipPath>
  <clipPath
     id="aS">
    <path
       d="M 0,500 H 748.12 V 0 H 0 Z"
       transform="translate(-630.59672,-306.86381)"
       id="path97" />
  </clipPath>
  <path
     d="M 0,599.99947 H 599.99959 V -3.53004e-5 H 0 Z"
     fill="#000066"
     id="path98"
     style="stroke-width:0.981029" />
  <path
     d="M 600,-5.33e-4 4.1e-4,299.99922 600,599.99897 Z"
     fill="#bd1021"
     id="path99"
     style="stroke-width:0.981029" />
  <path
     d="M 64.2843,299.99947 599.99959,567.85125 V 32.14769 Z"
     fill="#ffffff"
     id="path100"
     style="stroke-width:0.981029" />
  <g
     stroke="#000000"
     id="g105"
     transform="matrix(0.90226107,0,0,0.89999928,-300,-5.3300386e-5)">
    <path
       clip-path="url(#a)"
       d="m 0,0 c 0,0 -5.01,4.099 0.911,10.703 -3.188,2.733 -0.227,7.97 -0.227,7.97 0,0 -5.466,2.05 0.227,10.475 -4.099,2.733 -2.277,8.882 -2.277,8.882 0,0 -13.436,5.011 -0.683,9.792 -10.475,-4.554 -20.268,6.149 -20.268,6.149 l -15.257,-0.455 c -2.581,12.676 -22.697,1.67 -7.743,38.03 -3.871,0.683 -8.199,1.822 -12.525,-1.366 -4.327,-3.188 -16.624,-10.02 -23.912,-3.188 -7.287,6.831 4.782,16.623 5.011,16.851 0.227,0.228 16.169,8.427 18.446,13.892 -0.227,4.099 -5.238,7.287 -0.683,16.169 5.238,8.426 37.347,16.396 51.922,19.129 7.06,3.188 10.247,9.337 10.247,9.337 l 1.595,-5.921 c 0,0 32.338,9.565 33.932,14.119 1.594,4.555 0.682,-4.099 0.682,-4.099 12.753,1.139 28.921,12.07 31.199,7.06 10.703,2.05 31.199,11.159 31.199,11.159 0,0 7.059,0.228 2.049,-7.515 3.188,-5.01 -0.91,-9.338 -1.138,-9.338 -0.228,0 1.365,-5.009 -2.733,-7.742 1.367,-4.327 -2.505,-7.743 -2.505,-7.743 0,0 1.822,-5.238 -5.465,-7.971 0.683,-4.554 -4.1,-5.465 -4.1,-5.465 0,0 0.684,-4.782 -2.505,-6.832 0,-3.644 -3.643,-5.465 -3.643,-5.465 0,0 2.276,-1.367 -0.912,-3.644 -3.187,-2.277 -36.208,-22.545 -36.208,-22.318 0,0.228 24.139,-4.326 25.733,-5.238 1.594,-0.91 19.813,-12.98 19.813,-12.98 L 71.734,59.664 c 0,0 -20.495,2.277 -21.405,1.139 -0.911,-1.139 4.326,-1.595 5.465,-3.416 1.139,-1.822 2.961,-6.15 6.603,-5.694 3.645,0.456 -6.831,-6.604 -13.663,-7.287 0,-2.506 8.654,-2.732 10.931,-0.683 2.278,2.049 -5.466,-5.921 -6.377,-7.06 -0.91,-1.138 10.249,1.595 10.249,1.595 0,0 -1.822,-7.515 -11.613,-9.792 3.87,-6.377 2.276,-10.477 2.049,-10.477 -0.228,0 -6.377,6.377 -12.298,5.24 1.595,-6.15 6.377,-11.842 7.743,-12.754 C 50.784,9.563 38.716,9.792 37.121,13.208 35.526,16.624 34.16,5.01 38.486,1.365 33.478,1.139 29.15,4.099 29.15,4.099 c 0,0 -2.96,-6.831 -0.911,-10.248 2.05,-3.416 -7.058,6.832 -7.058,6.832 L 3.873,-6.604 0.001,0 Z"
       fill="#9c3900"
       stroke-linejoin="round"
       stroke-width="1.72"
       transform="matrix(1.3333333,0,0,-1.3333333,791.8424,392.43227)"
       id="path101" />
    <path
       clip-path="url(#b)"
       d="M 0,0 C 0.406,0 25.144,0.406 36.498,6.895 42.175,-2.026 49.88,-8.109 49.88,-8.109 l 3.651,12.976 c 0,0 8.921,-0.405 9.732,-2.433 -1.217,-2.432 -1.622,-5.677 -1.622,-5.677 0,0 6.083,-0.406 6.488,-1.217 0.407,-0.811 -1.622,-7.704 -1.622,-7.704 l 25.955,-6.083 c 0,0 2.028,10.138 4.055,8.921 2.028,-1.217 10.95,-13.788 23.522,-14.599 12.571,-0.811 13.382,10.544 13.382,10.544 l 2.839,-1.623 c 0,0 5.272,11.355 6.083,11.355 0.812,0 2.028,-1.622 8.921,-1.622 2.028,-2.433 2.84,-8.11 2.84,-8.11 0,0 -7.706,-7.706 -5.272,-13.79 2.432,-6.083 2.838,-4.46 2.838,-4.46 l 55.964,-13.383 c 0,0 2.84,-4.461 -2.027,-6.894 0,-0.405 -56.369,12.977 -56.369,12.977 0,0 -5.273,-6.083 -9.327,-4.866 -4.056,1.216 -1.217,-2.433 -1.217,-2.433 l 60.83,-4.867 c 0,0 4.461,-5.677 1.216,-7.299 -4.055,-0.406 -65.697,4.054 -65.697,4.054 0,0 -3.649,-7.705 -7.704,-1.217 -2.839,-4.46 -6.084,1.217 -6.084,1.217 0,0 -5.271,-4.054 -6.083,0.406 -4.461,-3.244 -7.298,2.028 -7.298,2.028 l -25.955,1.623 -1.622,-2.434 c 0,0 4.461,-1.217 -2.433,-4.055 -6.894,-2.839 41.364,-1.622 42.581,-2.028 1.217,-0.406 -3.243,-4.055 -3.243,-4.055 0,0 24.737,-1.622 29.197,3.649 4.461,5.272 -1.622,-6.894 -1.622,-6.894 0,0 19.466,0.811 19.466,1.623 0,0.811 -0.407,-6.084 -13.788,-5.272 8.11,-5.273 18.248,-8.517 18.248,-8.517 0,0 -10.138,-2.432 -21.898,0.406 2.028,-5.272 10.949,-10.138 10.949,-10.138 0,0 -6.489,-5.678 -21.088,8.11 4.055,-7.299 0.811,-10.138 0.406,-9.327 -0.406,0.812 -7.3,10.949 -23.521,14.599 10.138,-6.488 5.677,-9.327 5.677,-9.327 0,0 -5.271,9.327 -13.788,0 -3.244,8.516 -15.815,13.382 -31.227,14.194 -4.866,5.677 -7.705,4.055 -19.059,7.3 -6.489,7.298 -15.817,15.409 -15.817,15.409 0,0 0.406,10.949 11.355,9.732 1.217,-3.649 1.217,-2.432 1.217,-2.432 0,0 12.166,4.461 15.816,-1.622 5.272,9.327 12.57,1.394 13.787,-1.849 3.494,-0.513 21.089,-0.989 21.089,-0.989 0,0 -2.028,3.649 -0.811,3.243 1.216,-0.405 10.949,3.65 10.543,4.866 -0.406,1.217 -0.811,5.272 0.811,4.867 1.623,-0.405 -13.788,2.028 -22.305,-4.462 -2.838,2.84 -0.81,10.544 -0.81,10.544 l -25.144,5.273 -1.217,-6.488 c 0,0 -7.298,-1.217 -6.893,0.404 0.405,1.623 -1.622,-5.677 -1.622,-5.677 0,0 -9.734,2.434 -9.734,2.839 0,0.405 2.839,14.599 2.839,14.193 0,-0.406 -8.11,-0.811 -19.465,-9.327 C 25.549,-13.789 0,-0.406 0,-0.001 Z"
       fill="#ffc221"
       stroke-width="1.72"
       transform="matrix(1.3333333,0,0,-1.3333333,613.49413,374.36067)"
       id="path102" />
    <path
       clip-path="url(#c)"
       d="m 0,0 c 0,0 -17.032,-14.598 0,-23.115 0.811,5.678 2.028,6.489 2.028,6.489 0,0 14.194,-5.272 22.71,7.299 -3.65,5.272 -10.138,3.244 -10.138,3.244 0,0 -13.383,0 -14.599,6.083 z"
       fill="#ffc221"
       stroke-width="1.72"
       transform="matrix(1.3333333,0,0,-1.3333333,655.67387,330.01893)"
       id="path103" />
    <path
       clip-path="url(#d)"
       d="M 0,0 -11.761,-10.138"
       fill="none"
       stroke-width="1.72"
       transform="matrix(1.3333333,0,0,-1.3333333,674.6028,338.67573)"
       id="path104" />
    <path
       clip-path="url(#e)"
       d="m 0,0 c 0,0 2.277,2.278 2.96,5.01 0.684,2.733 -0.911,5.694 1.822,8.198 2.733,2.505 38.714,17.763 41.674,20.724 2.961,2.96 8.426,9.336 9.109,10.703 0.684,1.366 2.733,-6.832 -3.416,-10.476 6.605,1.822 10.931,3.871 13.664,2.96 -2.733,-3.871 -10.02,-10.248 -13.436,-10.248 7.971,2.961 15.257,5.466 17.308,3.872 2.048,-1.594 -9.792,-9.565 -14.576,-10.02 7.971,2.049 18.674,5.237 20.039,1.821 -4.326,-1.366 -2.96,-2.503 -11.841,-7.514 -1.139,-0.912 -6.832,-1.139 -6.832,-1.139 6.832,0.684 16.169,3.416 17.079,-1.594 C 68.089,10.248 66.039,7.515 61.485,6.376 56.931,5.237 46.455,3.188 40.078,0.683 33.702,-1.822 24.365,-9.109 24.365,-9.109 c 0,0 -20.268,-0.684 -20.268,-0.455 0,0.227 -3.871,9.336 -4.099,9.564 z"
       fill="#ffffff"
       stroke-linejoin="round"
       stroke-width="1.72"
       transform="matrix(1.3333333,0,0,-1.3333333,656.4232,330.17973)"
       id="path105" />
  </g>
  <path
     clip-path="url(#f)"
     d="m 0,0 39.396,-7.515 c 0,0 4.329,5.01 2.051,7.743 5.921,1.365 4.326,9.108 4.326,9.108 0,0 6.832,2.96 1.139,9.793 3.873,3.871 -0.911,6.831 -0.911,6.831 0,0 1.595,6.832 -3.416,7.515 1.367,5.466 -8.653,7.288 -8.653,7.288 0,0 -20.723,-5.694 -35.298,-6.149 4.782,-4.782 -1.822,-7.743 -1.822,-7.743 0,0 3.872,-2.732 2.733,-5.01 C -1.594,19.583 0.228,17.079 -4.782,15.484 1.822,12.523 -5.466,7.515 -5.466,7.515 -5.466,7.515 1.822,2.504 0,0 Z"
     fill="#ffffff"
     transform="matrix(1.2030147,0,0,-1.199999,501.28891,280.49156)"
     id="path106" />
  <g
     fill="none"
     stroke="#000000"
     id="g198"
     transform="matrix(0.90226107,0,0,0.89999928,-300,-5.3300386e-5)">
    <path
       clip-path="url(#g)"
       d="m 0,0 39.396,-7.515 c 0,0 4.329,5.01 2.051,7.743 5.921,1.365 4.326,9.108 4.326,9.108 0,0 6.832,2.96 1.139,9.793 3.873,3.871 -0.911,6.831 -0.911,6.831 0,0 1.595,6.832 -3.416,7.515 1.367,5.466 -8.653,7.288 -8.653,7.288 0,0 -20.723,-5.694 -35.298,-6.149 4.782,-4.782 -1.822,-7.743 -1.822,-7.743 0,0 3.872,-2.732 2.733,-5.01 C -1.594,19.583 0.228,17.079 -4.782,15.484 1.822,12.523 -5.466,7.515 -5.466,7.515 -5.466,7.515 1.822,2.504 0,0 Z"
       stroke-width="1.72"
       transform="matrix(1.3333333,0,0,-1.3333333,888.08987,311.6576)"
       id="path107" />
    <path
       clip-path="url(#h)"
       d="M 0,0 -5.271,-23.521"
       stroke-width="1.72"
       transform="matrix(1.3333333,0,0,-1.3333333,695.68093,379.2292)"
       id="path108" />
    <path
       clip-path="url(#i)"
       d="M 0,0 -1.623,-7.705"
       stroke-width="1.72"
       transform="matrix(1.3333333,0,0,-1.3333333,702.17707,391.11587)"
       id="path109" />
    <path
       clip-path="url(#j)"
       d="M 0,0 -2.433,-7.3"
       stroke-width="1.72"
       transform="matrix(1.3333333,0,0,-1.3333333,736.78,399.22653)"
       id="path110" />
    <path
       clip-path="url(#k)"
       d="m 0,0 c -0.405,0 -12.977,-1.622 -14.599,-1.217 -1.622,0.405 19.87,-6.488 19.87,-9.327"
       stroke-width="1.72"
       transform="matrix(1.3333333,0,0,-1.3333333,796.79693,465.19267)"
       id="path111" />
    <path
       clip-path="url(#l)"
       d="M 0,0 C 0,0 -12.571,8.109 -14.599,7.3 -16.627,6.488 -2.027,7.704 -0.811,8.921"
       stroke-width="1.72"
       transform="matrix(1.3333333,0,0,-1.3333333,766.5156,468.98053)"
       id="path112" />
    <path
       clip-path="url(#m)"
       d="M 0,0 C 0,0 -12.977,-0.405 -14.193,0.811 -15.41,2.027 -1.622,-8.11 0.811,-7.3"
       stroke-width="1.72"
       transform="matrix(1.3333333,0,0,-1.3333333,731.91147,456.54693)"
       id="path113" />
    <path
       clip-path="url(#n)"
       d="M 0,0 C -0.405,0 -8.921,3.243 -12.57,4.056 -9.326,0.812 -6.894,-3.65 1.217,-5.271"
       stroke-width="1.72"
       transform="matrix(1.3333333,0,0,-1.3333333,698.388,448.97133)"
       id="path114" />
    <path
       clip-path="url(#o)"
       d="M 0,0 C -0.405,0.812 -16.221,5.679 -16.221,8.111 -12.57,6.895 -7.299,5.273 -2.433,6.489"
       stroke-width="1.72"
       transform="matrix(1.3333333,0,0,-1.3333333,702.71093,441.95307)"
       id="path115" />
    <path
       clip-path="url(#p)"
       d="M 0,0 -1.621,-7.299"
       stroke-width="1.72"
       transform="matrix(1.3333333,0,0,-1.3333333,814.64453,417.07427)"
       id="path116" />
    <path
       clip-path="url(#q)"
       d="M 0,0 C 0,0 2.711,-2.989 0.277,-6.639"
       stroke-width="1.72"
       transform="matrix(1.3333333,0,0,-1.3333333,722.89187,432.55733)"
       id="path117" />
    <path
       clip-path="url(#r)"
       d="M 0,0 -4.46,-0.406"
       stroke-width="1.72"
       transform="matrix(1.3333333,0,0,-1.3333333,798.95827,436.53773)"
       id="path118" />
    <path
       clip-path="url(#s)"
       d="M 0,0 8.11,-1.217"
       stroke-width="1.72"
       transform="matrix(1.3333333,0,0,-1.3333333,750.29427,433.2956)"
       id="path119" />
    <path
       clip-path="url(#t)"
       d="m 0,0 c 0,0 0.228,-8.198 -6.604,-7.971 -6.832,0.229 -4.555,-0.227 -4.555,-0.227"
       stroke-width="1.72"
       transform="matrix(1.3333333,0,0,-1.3333333,779.388,405.48693)"
       id="path120" />
    <path
       clip-path="url(#u)"
       d="m 0,0 c 0,0 2.732,-0.91 2.051,-2.961 -0.684,-2.049 0.681,-7.97 -7.288,-13.663 -8.427,-1.821 -7.515,7.06 -7.515,7.06"
       stroke-width="1.72"
       transform="matrix(1.3333333,0,0,-1.3333333,786.37493,403.6576)"
       id="path121" />
    <path
       clip-path="url(#v)"
       d="m 0,0 c 0,0 5.01,2.96 5.693,-1.822 0.682,-4.782 -4.099,-13.664 -7.515,-15.031 -3.417,-1.365 -7.287,0.229 -6.832,2.505"
       stroke-width="1.72"
       transform="matrix(1.3333333,0,0,-1.3333333,790.32427,407.00653)"
       id="path122" />
    <path
       clip-path="url(#w)"
       d="M 0,0 C 0,0 4.556,3.645 5.921,-1.139 7.288,-5.921 2.278,-16.624 0.228,-16.852"
       stroke-width="1.72"
       transform="matrix(1.3333333,0,0,-1.3333333,798.51947,409.7344)"
       id="path123" />
    <path
       clip-path="url(#x)"
       d="M 0,0 C 0,0 2.278,1.139 3.871,-0.228"
       stroke-width="1.72"
       transform="matrix(1.3333333,0,0,-1.3333333,807.026,411.25387)"
       id="path124" />
    <path
       clip-path="url(#y)"
       d="M 0,0 C -0.911,-0.228 -4.783,-0.454 -6.148,2.505"
       stroke-width="1.72"
       transform="matrix(1.3333333,0,0,-1.3333333,797.3112,433.11453)"
       id="path125" />
    <path
       clip-path="url(#z)"
       d="M 0,0 C -0.228,0 -4.781,-0.229 -4.781,-0.229"
       stroke-width="1.72"
       transform="matrix(1.3333333,0,0,-1.3333333,769.98307,422.4896)"
       id="path126" />
    <path
       clip-path="url(#A)"
       d="m 0,0 -0.454,7.516 -1.822,2.505 -3.189,-3.189 c 0,0 -0.455,-7.515 -1.821,-8.198"
       stroke-width="1.72"
       transform="matrix(1.3333333,0,0,-1.3333333,793.362,446.4792)"
       id="path127" />
    <path
       clip-path="url(#B)"
       d="M 0,0 C -0.228,0.455 -2.505,4.781 -2.505,4.781 L -6.377,0 c 0,0 -0.454,-6.833 -1.821,-7.517"
       stroke-width="1.72"
       transform="matrix(1.3333333,0,0,-1.3333333,786.07547,437.06253)"
       id="path128" />
    <path
       clip-path="url(#C)"
       d="m 0,0 c 0,0.228 -1.594,4.554 -1.594,4.554 0,0 -4.554,-2.505 -5.01,-4.326 -0.455,-1.822 -0.683,-6.832 -1.822,-7.289"
       stroke-width="1.72"
       transform="matrix(1.3333333,0,0,-1.3333333,777.56907,436.76307)"
       id="path129" />
    <path
       clip-path="url(#D)"
       d="m 0,0 c 0,0 0.456,4.1 -0.911,4.1 -1.365,0 -7.515,-5.695 -7.742,-10.704"
       stroke-width="1.72"
       transform="matrix(1.3333333,0,0,-1.3333333,768.76307,435.24347)"
       id="path130" />
    <path
       clip-path="url(#E)"
       d="m 0,0 c 0,0 0.228,4.554 2.277,6.148 2.05,1.595 12.298,5.466 14.575,8.883 2.277,3.415 -3.416,-5.921 -2.505,-8.426"
       stroke-width="1.72"
       transform="matrix(1.3333333,0,0,-1.3333333,669.16667,328.0612)"
       id="path131" />
    <path
       clip-path="url(#F)"
       d="M 0,0 C 0,0 5.011,-1.823 3.872,-5.693"
       stroke-width="1.72"
       transform="matrix(1.3333333,0,0,-1.3333333,674.63413,318.94467)"
       id="path132" />
    <path
       clip-path="url(#G)"
       d="m 0,0 c 0,-2.075 -1.683,-3.757 -3.758,-3.757 -2.075,0 -3.757,1.682 -3.757,3.757 0,2.075 1.682,3.757 3.757,3.757 C -1.683,3.757 0,2.075 0,0 Z"
       transform="matrix(1.3333333,0,0,-1.3333333,682.5312,322.44267)"
       id="path133" />
    <g
       stroke-width="1.72"
       id="g197">
      <path
         clip-path="url(#H)"
         d="m 0,0 c 0,0 34.843,-4.099 36.438,-4.099 1.593,0 7.742,-2.05 8.881,-4.099"
         transform="matrix(1.3333333,0,0,-1.3333333,882.93227,300.42253)"
         id="path134" />
      <path
         clip-path="url(#I)"
         d="M 0,0 48.506,-1.138"
         transform="matrix(1.3333333,0,0,-1.3333333,885.362,297.694)"
         id="path135" />
      <path
         clip-path="url(#J)"
         d="M 0,0 C 0,0 46,2.732 49.188,7.515"
         transform="matrix(1.3333333,0,0,-1.3333333,885.66147,296.17453)"
         id="path136" />
      <path
         clip-path="url(#K)"
         d="M 0,0 C 0,0 46.229,5.01 46.686,4.327"
         transform="matrix(1.3333333,0,0,-1.3333333,887.49093,282.81053)"
         id="path137" />
      <path
         clip-path="url(#L)"
         d="M 0,0 C 0,0 44.862,7.06 45.317,5.921"
         transform="matrix(1.3333333,0,0,-1.3333333,885.362,275.224)"
         id="path138" />
      <path
         clip-path="url(#M)"
         d="M 0,0 C 0,0 14.119,-15.485 12.752,-25.961"
         transform="matrix(1.3333333,0,0,-1.3333333,714.71747,236.6608)"
         id="path139" />
      <path
         clip-path="url(#N)"
         d="m 0,0 c 0,0 4.555,-6.604 6.376,-7.288 1.822,-0.683 17.763,-1.593 18.674,-8.426 0.911,-4.327 -3.416,-2.96 -2.733,-6.148 1.138,-4.099 11.842,-9.337 23.455,-3.189"
         transform="matrix(1.3333333,0,0,-1.3333333,730.5104,260.33987)"
         id="path140" />
      <path
         clip-path="url(#O)"
         d="M 0,0 C 0,0 9.564,-14.12 23.684,1.138"
         transform="matrix(1.3333333,0,0,-1.3333333,777.26947,297.99347)"
         id="path141" />
      <path
         clip-path="url(#P)"
         d="M 0,0 C 0,0 11.613,-6.148 21.178,9.792"
         transform="matrix(1.3333333,0,0,-1.3333333,799.13027,304.68093)"
         id="path142" />
      <path
         clip-path="url(#Q)"
         d="M 0,0 C 0,0 5.693,-4.783 17.536,1.593"
         transform="matrix(1.3333333,0,0,-1.3333333,810.9752,306.5)"
         id="path143" />
      <path
         clip-path="url(#R)"
         d="M 0,0 C 0,0 17.535,-3.643 18.674,-4.783"
         transform="matrix(1.3333333,0,0,-1.3333333,856.2148,295.87507)"
         id="path144" />
      <path
         clip-path="url(#S)"
         d="M 0,0 C 0.228,0 12.298,-0.456 12.298,-0.456"
         transform="matrix(1.3333333,0,0,-1.3333333,865.0208,290.70707)"
         id="path145" />
      <path
         clip-path="url(#T)"
         d="M 0,0 C 0,0 20.951,1.366 23.685,-2.961"
         transform="matrix(1.3333333,0,0,-1.3333333,854.9948,281.60093)"
         id="path146" />
      <path
         clip-path="url(#U)"
         d="M 0,0 C 0,0 29.378,-1.139 30.743,-2.733"
         transform="matrix(1.3333333,0,0,-1.3333333,842.85027,272.79493)"
         id="path147" />
      <path
         clip-path="url(#V)"
         d="M 0,0 C 0,0 5.01,1.366 5.693,0.683"
         transform="matrix(1.3333333,0,0,-1.3333333,851.65627,312.8776)"
         id="path148" />
      <path
         clip-path="url(#W)"
         d="M 0,0 C 0,0 6.604,-5.693 15.031,-3.188"
         transform="matrix(1.3333333,0,0,-1.3333333,836.47267,329.27013)"
         id="path149" />
      <path
         clip-path="url(#X)"
         d="M 0,0 C 0,0 7.516,-3.416 16.397,-1.365"
         transform="matrix(1.3333333,0,0,-1.3333333,841.33067,342.0248)"
         id="path150" />
      <path
         clip-path="url(#Y)"
         d="M 0,0 C 0,0 7.515,-5.01 12.524,-4.099"
         transform="matrix(1.3333333,0,0,-1.3333333,844.66933,349.61067)"
         id="path151" />
      <path
         clip-path="url(#Z)"
         d="M 0,0 C 0,0 5.237,-3.872 5.465,-5.921"
         transform="matrix(1.3333333,0,0,-1.3333333,840.1224,353.55853)"
         id="path152" />
      <path
         clip-path="url(#aa)"
         d="M 0,0 C 0,0 1.594,-8.197 7.287,-11.158"
         transform="matrix(1.3333333,0,0,-1.3333333,830.40627,359.63667)"
         id="path153" />
      <path
         clip-path="url(#ab)"
         d="M 0,0 C 0,0 -2.505,-10.703 3.872,-17.308"
         transform="matrix(1.3333333,0,0,-1.3333333,825.23827,364.4948)"
         id="path154" />
      <path
         clip-path="url(#ac)"
         d="M 0,0 C 0,-0.228 -0.455,-5.011 -0.228,-5.467"
         transform="matrix(1.3333333,0,0,-1.3333333,816.43227,375.7292)"
         id="path155" />
      <path
         clip-path="url(#ad)"
         d="m 0,0 12.298,0.683 c 0,0 4.554,1.822 1.365,4.782"
         transform="matrix(1.3333333,0,0,-1.3333333,761.776,320.4636)"
         id="path156" />
      <path
         clip-path="url(#ae)"
         d="m 0,0 c 0.229,0 11.613,-0.911 14.575,-4.327 2.96,-3.416 6.604,-10.247 8.654,-11.387 2.049,-1.138 2.504,0.456 2.504,0.456"
         transform="matrix(1.3333333,0,0,-1.3333333,782.1276,316.82547)"
         id="path157" />
      <path
         clip-path="url(#af)"
         d="M 0,0 C 0,0 -6.148,-10.476 -1.366,-13.664"
         transform="matrix(1.3333333,0,0,-1.3333333,809.7552,334.73827)"
         id="path158" />
      <path
         clip-path="url(#ag)"
         d="M 0,0 C 0,0 -5.465,-7.287 -1.138,-10.931"
         transform="matrix(1.3333333,0,0,-1.3333333,805.19667,350.22133)"
         id="path159" />
      <path
         clip-path="url(#ah)"
         d="M 0,0 C 0,0 -4.327,-7.061 0.911,-11.842"
         transform="matrix(1.3333333,0,0,-1.3333333,802.16933,363.58467)"
         id="path160" />
      <path
         clip-path="url(#ai)"
         d="M 0,0 C -0.294,-0.294 -5.29,-3.82 -7.053,-2.939"
         transform="matrix(1.3333333,0,0,-1.3333333,799.612,338.61067)"
         id="path161" />
      <path
         clip-path="url(#aj)"
         d="M 0,0 C 0,0 2.057,-2.057 3.82,-1.764"
         transform="matrix(1.3333333,0,0,-1.3333333,792.55987,353.5052)"
         id="path162" />
      <path
         clip-path="url(#ak)"
         d="M 0,0 3.282,-2.251"
         transform="matrix(1.3333333,0,0,-1.3333333,792.88147,367.73693)"
         id="path163" />
      <path
         clip-path="url(#al)"
         d="M 0,0 2.839,-1.713"
         transform="matrix(1.3333333,0,0,-1.3333333,793.47,378.64067)"
         id="path164" />
      <path
         clip-path="url(#am)"
         d="m 0,0 c 0,0 5.986,-3.113 10.775,0 4.79,3.113 27.78,14.847 33.766,16.763 5.986,1.915 9.339,12.931 10.537,17.72"
         transform="matrix(1.3333333,0,0,-1.3333333,724.8932,229.7376)"
         id="path165" />
      <path
         clip-path="url(#an)"
         d="m 0,0 33.526,9.819 c 0,0 5.508,4.55 5.748,12.931"
         transform="matrix(1.3333333,0,0,-1.3333333,792.2708,200.99733)"
         id="path166" />
      <path
         clip-path="url(#ao)"
         d="M 0,0 C 0,0 33.525,3.353 33.525,15.806"
         transform="matrix(1.3333333,0,0,-1.3333333,841.43747,182.79693)"
         id="path167" />
      <path
         clip-path="url(#ap)"
         d="M 0,0 C 0,0 35.202,9.579 38.556,13.171"
         transform="matrix(1.3333333,0,0,-1.3333333,879.11333,173.22)"
         id="path168" />
      <path
         clip-path="url(#aq)"
         d="M 0,0 C 0,0 21.312,11.016 24.666,12.213 28.018,13.411 35.68,22.99 24.187,22.99"
         transform="matrix(1.3333333,0,0,-1.3333333,748.20827,239.946)"
         id="path169" />
      <path
         clip-path="url(#ar)"
         d="m 0,0 c 0.239,0 17.481,11.255 23.229,12.692 3.113,4.31 1.437,8.86 -3.832,7.902"
         transform="matrix(1.3333333,0,0,-1.3333333,761.93613,245.70253)"
         id="path170" />
      <path
         clip-path="url(#as)"
         d="M 0,0 C 0.479,0.239 9.34,0.479 6.227,-6.466 1.678,-9.818 -17.96,-19.637 -17.96,-19.637"
         transform="matrix(1.3333333,0,0,-1.3333333,794.81773,224.944)"
         id="path171" />
      <path
         clip-path="url(#at)"
         d="m 0,0 37.357,12.453 c 0,0 3.114,6.465 -1.436,7.423"
         transform="matrix(1.3333333,0,0,-1.3333333,788.75133,215.04693)"
         id="path172" />
      <path
         clip-path="url(#au)"
         d="m 0,0 c 0,-0.239 4.791,-2.874 1.917,-7.184 -5.269,-3.113 -30.174,-9.1 -30.174,-9.1"
         transform="matrix(1.3333333,0,0,-1.3333333,878.16013,173.54107)"
         id="path173" />
      <path
         clip-path="url(#av)"
         d="M 0,0 -35.197,-9.821"
         transform="matrix(1.3333333,0,0,-1.3333333,928.60027,168.4284)"
         id="path174" />
      <path
         clip-path="url(#aw)"
         d="M 0,0 -30.651,-9.339"
         transform="matrix(1.3333333,0,0,-1.3333333,925.0912,178.96613)"
         id="path175" />
      <path
         clip-path="url(#ax)"
         d="M 0,0 -27.061,-8.137"
         transform="matrix(1.3333333,0,0,-1.3333333,921.582,189.18493)"
         id="path176" />
      <path
         clip-path="url(#ay)"
         d="M 0,0 C -0.719,0 -20.114,-5.987 -20.114,-5.987"
         transform="matrix(1.3333333,0,0,-1.3333333,914.8724,199.40293)"
         id="path177" />
      <path
         clip-path="url(#az)"
         d="M 0,0 -12.453,-5.029"
         transform="matrix(1.3333333,0,0,-1.3333333,909.12627,207.38547)"
         id="path178" />
      <path
         clip-path="url(#aA)"
         d="M 0,0 C -0.479,0 -10.776,-4.55 -10.776,-4.55"
         transform="matrix(1.3333333,0,0,-1.3333333,904.9752,216.3196)"
         id="path179" />
      <path
         clip-path="url(#aB)"
         d="M 0,0 -9.578,-4.55"
         transform="matrix(1.3333333,0,0,-1.3333333,900.82293,223.6712)"
         id="path180" />
      <path
         clip-path="url(#aC)"
         d="M 0,0 C 0,0 1.198,-0.479 0.958,-1.916"
         transform="matrix(1.3333333,0,0,-1.3333333,878.7916,237.39907)"
         id="path181" />
      <path
         clip-path="url(#aD)"
         d="m 0,0 c 0,0 4.071,-1.437 0.239,-5.269 -1.915,-2.634 -7.423,-1.916 -10.775,-6.705"
         transform="matrix(1.3333333,0,0,-1.3333333,846.5416,254.95773)"
         id="path182" />
      <path
         clip-path="url(#aE)"
         d="m 0,0 c 0,0 5.03,-1.197 1.198,-7.663 -10.058,-3.832 -30.413,-10.058 -30.413,-10.058 0,0 -0.958,-1.676 -3.592,-3.113 -2.633,-1.437 -31.61,-9.579 -31.61,-9.579"
         transform="matrix(1.3333333,0,0,-1.3333333,881.34893,183.4388)"
         id="path183" />
      <path
         clip-path="url(#aF)"
         d="m 0,0 c 0,0 5.508,-2.395 0,-6.466 -6.227,-3.592 -28.019,-10.297 -28.019,-10.297 0,0 -0.24,-1.916 -1.197,-2.634 -0.958,-0.718 -29.694,-10.297 -29.694,-10.297"
         transform="matrix(1.3333333,0,0,-1.3333333,883.586,193.336)"
         id="path184" />
      <path
         clip-path="url(#aG)"
         d="m 0,0 c 0,0 5.747,-1.676 0.719,-6.465 -5.988,-3.593 -25.146,-10.058 -25.146,-10.058 0,0 -1.915,-2.395 -5.028,-3.353 -3.113,-0.958 -22.988,-9.1 -22.988,-9.1"
         transform="matrix(1.3333333,0,0,-1.3333333,885.50133,201.94987)"
         id="path185" />
      <path
         clip-path="url(#aH)"
         d="m 0,0 c 1.677,-0.718 6.227,-1.437 0.719,-5.747 -6.466,-2.874 -22.271,-9.1 -22.271,-9.1 l -1.437,-2.634 -25.145,-10.776"
         transform="matrix(1.3333333,0,0,-1.3333333,887.41667,210.57427)"
         id="path186" />
      <path
         clip-path="url(#aI)"
         d="m 0,0 c 0,0 2.395,-2.874 -2.874,-6.226 -5.748,-3.113 -18.199,-7.902 -18.199,-7.902"
         transform="matrix(1.3333333,0,0,-1.3333333,889.332,219.19853)"
         id="path187" />
      <path
         clip-path="url(#aJ)"
         d="M 0,0 C 0,0 2.634,-1.676 -0.718,-4.071 -4.55,-5.987 -19.636,-13.89 -19.636,-13.89 l -9.82,-6.465"
         transform="matrix(1.3333333,0,0,-1.3333333,885.50133,228.1328)"
         id="path188" />
      <path
         clip-path="url(#aK)"
         d="m 0,0 c 0,-0.24 4.072,-3.592 2.635,-7.424 3.592,-2.634 2.873,-5.508 2.873,-5.508 0,0 5.029,-2.873 4.311,-6.944 5.03,-1.198 4.789,-4.071 4.789,-4.071 l -1.676,-2.635 c 0,0 5.028,0.24 0.718,-6.226 2.634,-1.437 1.438,-3.113 1.438,-3.113"
         transform="matrix(1.3333333,0,0,-1.3333333,839.52213,198.76107)"
         id="path189" />
      <path
         clip-path="url(#aL)"
         d="M 0,0 C -0.719,0 -17.481,-6.226 -21.792,-10.058"
         transform="matrix(1.3333333,0,0,-1.3333333,857.724,242.82427)"
         id="path190" />
      <path
         clip-path="url(#aM)"
         d="m 0,0 c 0,0 5.028,0.239 4.312,-5.269 5.747,1.916 4.548,-3.591 4.548,-3.591 0,0 6.705,2.634 5.509,-5.748 4.31,0.958 3.591,-3.352 3.591,-3.352 0,0 3.832,0.239 3.832,-1.916 2.634,2.395 5.508,1.197 5.508,1.197 0,0 1.916,2.635 4.55,1.916"
         transform="matrix(1.3333333,0,0,-1.3333333,803.76307,232.9264)"
         id="path191" />
      <path
         clip-path="url(#aN)"
         d="M 0,0 C 0,-0.479 -22.511,-12.932 -22.511,-12.932"
         transform="matrix(1.3333333,0,0,-1.3333333,809.82947,239.63547)"
         id="path192" />
      <path
         clip-path="url(#aO)"
         d="M 0,0 -17.003,-10.537"
         transform="matrix(1.3333333,0,0,-1.3333333,815.57547,245.06053)"
         id="path193" />
      <path
         clip-path="url(#aP)"
         d="M 0,0 C 0,-0.24 -14.848,-8.861 -14.848,-8.861"
         transform="matrix(1.3333333,0,0,-1.3333333,823.23693,252.07947)"
         id="path194" />
      <path
         clip-path="url(#aQ)"
         d="M 0,0 C 0,0 -10.537,-8.622 -12.932,-8.143"
         transform="matrix(1.3333333,0,0,-1.3333333,827.7096,256.55213)"
         id="path195" />
      <path
         clip-path="url(#aR)"
         d="M 0,0 C 0,0 -5.987,-4.55 -11.017,-6.705"
         transform="matrix(1.3333333,0,0,-1.3333333,832.50387,260.06187)"
         id="path196" />
      <path
         clip-path="url(#aS)"
         d="M 0,0 C 0,0 1.916,-2.395 -10.058,-8.621"
         transform="matrix(1.3333333,0,0,-1.3333333,840.7956,257.51493)"
         id="path197" />
    </g>
  </g>
</svg>
