<?xml version="1.0" encoding="UTF-8" standalone="no"?>
<!-- Created with Inkscape (http://www.inkscape.org/) -->

<svg
   version="1.1"
   id="svg1"
   width="600"
   height="400"
   viewBox="0 0 600 400"
   sodipodi:docname="ao.ai"
   xmlns:inkscape="http://www.inkscape.org/namespaces/inkscape"
   xmlns:sodipodi="http://sodipodi.sourceforge.net/DTD/sodipodi-0.dtd"
   xmlns="http://www.w3.org/2000/svg"
   xmlns:svg="http://www.w3.org/2000/svg">
  <defs
     id="defs1">
    <clipPath
       clipPathUnits="userSpaceOnUse"
       id="clipPath4">
      <path
         d="M 0,300 H 450 V 0 H 0 Z"
         transform="translate(-231.11521,-208.18021)"
         id="path4" />
    </clipPath>
    <clipPath
       clipPathUnits="userSpaceOnUse"
       id="clipPath6">
      <path
         d="M 0,300 H 450 V 0 H 0 Z"
         transform="translate(-302.62401,-157.645)"
         id="path6" />
    </clipPath>
    <clipPath
       clipPathUnits="userSpaceOnUse"
       id="clipPath8">
      <path
         d="M 0,300 H 450 V 0 H 0 Z"
         transform="translate(-299.6416,-127.35741)"
         id="path8" />
    </clipPath>
    <clipPath
       clipPathUnits="userSpaceOnUse"
       id="clipPath10">
      <path
         d="M 0,300 H 450 V 0 H 0 Z"
         transform="translate(-285.29491,-100.51761)"
         id="path10" />
    </clipPath>
    <clipPath
       clipPathUnits="userSpaceOnUse"
       id="clipPath12">
      <path
         d="M 0,300 H 450 V 0 H 0 Z"
         transform="translate(-247.6426,-224.64111)"
         id="path12" />
    </clipPath>
    <clipPath
       clipPathUnits="userSpaceOnUse"
       id="clipPath14">
      <path
         d="M 0,300 H 450 V 0 H 0 Z"
         transform="translate(-274.4824,-210.2944)"
         id="path14" />
    </clipPath>
    <clipPath
       clipPathUnits="userSpaceOnUse"
       id="clipPath16">
      <path
         d="M 0,300 H 450 V 0 H 0 Z"
         transform="translate(-293.79001,-186.7686)"
         id="path16" />
    </clipPath>
    <clipPath
       clipPathUnits="userSpaceOnUse"
       id="clipPath18">
      <path
         d="M 0,300 H 450 V 0 H 0 Z"
         transform="translate(-261.76861,-81.210002)"
         id="path18" />
    </clipPath>
    <clipPath
       clipPathUnits="userSpaceOnUse"
       id="clipPath20">
      <path
         d="M 0,300 H 450 V 0 H 0 Z"
         transform="translate(-232.64551,-72.375999)"
         id="path20" />
    </clipPath>
    <clipPath
       clipPathUnits="userSpaceOnUse"
       id="clipPath22">
      <path
         d="M 0,300 H 450 V 0 H 0 Z"
         transform="translate(-202.35741,-75.358404)"
         id="path22" />
    </clipPath>
    <clipPath
       clipPathUnits="userSpaceOnUse"
       id="clipPath24">
      <path
         d="M 0,300 H 450 V 0 H 0 Z"
         transform="translate(-199.3242,-185.3437)"
         id="path24" />
    </clipPath>
    <clipPath
       clipPathUnits="userSpaceOnUse"
       id="clipPath26">
      <path
         d="M 0,300 H 450 V 0 H 0 Z"
         transform="translate(-287.8789,-83.685505)"
         id="path26" />
    </clipPath>
    <clipPath
       clipPathUnits="userSpaceOnUse"
       id="clipPath28">
      <path
         d="M 0,300 H 450 V 0 H 0 Z"
         transform="translate(-231.3604,-102.15531)"
         id="path28" />
    </clipPath>
    <clipPath
       clipPathUnits="userSpaceOnUse"
       id="clipPath30">
      <path
         d="M 0,300 H 450 V 0 H 0 Z"
         transform="translate(-279.6631,-76.310499)"
         id="path30" />
    </clipPath>
    <clipPath
       clipPathUnits="userSpaceOnUse"
       id="clipPath32">
      <path
         d="M 0,300 H 450 V 0 H 0 Z"
         transform="translate(-216.08541,-132.48051)"
         id="path32" />
    </clipPath>
    <clipPath
       clipPathUnits="userSpaceOnUse"
       id="clipPath34">
      <path
         d="M 0,300 H 450 V 0 H 0 Z"
         transform="translate(-290.4004,-78.710904)"
         id="path34" />
    </clipPath>
    <clipPath
       clipPathUnits="userSpaceOnUse"
       id="clipPath36">
      <path
         d="M 0,300 H 450 V 0 H 0 Z"
         transform="translate(-297.81931,-72.245102)"
         id="path36" />
    </clipPath>
    <clipPath
       clipPathUnits="userSpaceOnUse"
       id="clipPath38">
      <path
         d="M 0,300 H 450 V 0 H 0 Z"
         transform="translate(-304.33791,-65.621102)"
         id="path38" />
    </clipPath>
  </defs>
  <sodipodi:namedview
     id="namedview1"
     pagecolor="#ffffff"
     bordercolor="#000000"
     borderopacity="0.25"
     inkscape:showpageshadow="2"
     inkscape:pageopacity="0.0"
     inkscape:pagecheckerboard="0"
     inkscape:deskcolor="#d1d1d1">
    <inkscape:page
       x="0"
       y="0"
       inkscape:label="1"
       id="page1"
       width="600"
       height="400"
       margin="0"
       bleed="0" />
  </sodipodi:namedview>
  <g
     id="layer-MC0"
     inkscape:groupmode="layer"
     inkscape:label="Layer 1">
    <path
       id="path1"
       d="M 0,0 H 450 V 300 H 0 Z"
       style="fill:#000000;fill-opacity:1;fill-rule:nonzero;stroke:none"
       transform="matrix(1.3333333,0,0,-1.3333333,0,400)" />
    <path
       id="path2"
       d="M 0,150 H 450 V 299.999 H 0 Z"
       style="fill:#ce1126;fill-opacity:1;fill-rule:nonzero;stroke:none"
       transform="matrix(1.3333333,0,0,-1.3333333,0,400)" />
    <path
       id="path3"
       d="m 0,0 c 32.132,-3.378 55.441,-32.164 52.063,-64.295 -3.376,-32.132 -32.163,-55.442 -64.294,-52.064 -11.365,1.194 -22.13,5.692 -30.968,12.935 l -8.558,-10.441 c 30.754,-25.207 76.119,-20.71 101.326,10.044 25.207,30.754 20.71,76.12 -10.044,101.327 -10.877,8.915 -24.128,14.45 -38.114,15.92 z"
       style="fill:#f9d616;fill-opacity:1;fill-rule:nonzero;stroke:none"
       transform="matrix(1.3333333,0,0,-1.3333333,308.1536,122.4264)"
       clip-path="url(#clipPath4)" />
    <path
       id="path5"
       d="m 0,0 c 0.501,-5.084 0.501,-10.206 0,-15.291 l -14.928,1.47 c 0.406,4.108 0.406,8.244 0,12.351 z"
       style="fill:#f9d616;fill-opacity:1;fill-rule:nonzero;stroke:none"
       transform="matrix(1.3333333,0,0,-1.3333333,403.49867,189.80667)"
       clip-path="url(#clipPath6)" />
    <path
       id="path7"
       d="m 0,0 c -1.483,-4.889 -3.443,-9.621 -5.852,-14.127 l -13.229,7.071 c 1.945,3.64 3.528,7.461 4.727,11.41 z"
       style="fill:#f9d616;fill-opacity:1;fill-rule:nonzero;stroke:none"
       transform="matrix(1.3333333,0,0,-1.3333333,399.52213,230.19013)"
       clip-path="url(#clipPath8)" />
    <path
       id="path9"
       d="m 0,0 c -3.241,-3.95 -6.863,-7.571 -10.813,-10.813 l -9.515,11.595 c 3.189,2.618 6.114,5.543 8.732,8.734 z"
       style="fill:#f9d616;fill-opacity:1;fill-rule:nonzero;stroke:none"
       transform="matrix(1.3333333,0,0,-1.3333333,380.3932,265.97653)"
       clip-path="url(#clipPath10)" />
    <path
       id="path11"
       d="M 0,0 C 4.889,-1.483 9.621,-3.443 14.127,-5.852 L 7.056,-19.08 c -3.64,1.945 -7.461,3.528 -11.41,4.726 z"
       style="fill:#f9d616;fill-opacity:1;fill-rule:nonzero;stroke:none"
       transform="matrix(1.3333333,0,0,-1.3333333,330.19013,100.47853)"
       clip-path="url(#clipPath12)" />
    <path
       id="path13"
       d="m 0,0 c 3.95,-3.241 7.571,-6.862 10.813,-10.812 l -11.595,-9.516 c -2.618,3.19 -5.543,6.115 -8.734,8.733 z"
       style="fill:#f9d616;fill-opacity:1;fill-rule:nonzero;stroke:none"
       transform="matrix(1.3333333,0,0,-1.3333333,365.97653,119.60747)"
       clip-path="url(#clipPath14)" />
    <path
       id="path15"
       d="m 0,0 c 2.408,-4.506 4.368,-9.237 5.852,-14.126 l -14.355,-4.355 c -1.197,3.949 -2.78,7.771 -4.726,11.41 z"
       style="fill:#f9d616;fill-opacity:1;fill-rule:nonzero;stroke:none"
       transform="matrix(1.3333333,0,0,-1.3333333,391.72,150.9752)"
       clip-path="url(#clipPath16)" />
    <path
       id="path17"
       d="M 0,0 C -4.506,-2.408 -9.237,-4.368 -14.127,-5.852 L -18.48,8.503 c 3.948,1.197 7.77,2.78 11.409,4.726 z"
       style="fill:#f9d616;fill-opacity:1;fill-rule:nonzero;stroke:none"
       transform="matrix(1.3333333,0,0,-1.3333333,349.0248,291.72)"
       clip-path="url(#clipPath18)" />
    <path
       id="path19"
       d="m 0,0 c -5.085,-0.501 -10.207,-0.501 -15.291,0 l 1.47,14.928 c 4.107,-0.405 8.244,-0.405 12.35,0 z"
       style="fill:#f9d616;fill-opacity:1;fill-rule:nonzero;stroke:none"
       transform="matrix(1.3333333,0,0,-1.3333333,310.194,303.49867)"
       clip-path="url(#clipPath20)" />
    <path
       id="path21"
       d="m 0,0 c -4.889,1.483 -9.621,3.443 -14.126,5.852 l 7.07,13.229 c 3.64,-1.945 7.461,-3.528 11.41,-4.727 z"
       style="fill:#f9d616;fill-opacity:1;fill-rule:nonzero;stroke:none"
       transform="matrix(1.3333333,0,0,-1.3333333,269.80987,299.52213)"
       clip-path="url(#clipPath22)" />
    <path
       id="path23"
       d="M 0,0 H 51.352 L 9.808,-30.184 25.676,18.656 41.543,-30.184 Z"
       style="fill:#f9d616;fill-opacity:1;fill-rule:nonzero;stroke:none"
       transform="matrix(1.3333333,0,0,-1.3333333,265.7656,152.87507)"
       clip-path="url(#clipPath24)" />
    <path
       id="path25"
       d="m 0,0 c 3.838,-3.715 9.007,-7.376 12.755,-10.703 3.749,-3.326 6.62,-6.092 8.945,-9.871 3.407,-5.539 -0.419,-11.813 -5.724,-8.13 -2.87,1.991 -4.672,7.366 -9.067,11.814 -3.256,2.772 -5.82,5.677 -14.003,7.078 -0.392,0.068 -0.508,0.898 -0.198,1.26 z"
       style="fill:#f9d616;fill-opacity:1;fill-rule:nonzero;stroke:none"
       transform="matrix(1.3333333,0,0,-1.3333333,383.83853,288.41933)"
       clip-path="url(#clipPath26)" />
    <path
       id="path27"
       d="m 0,0 20.247,-11.973 4.402,-17.078 23.241,1.761 10.212,11.972 -37.855,26.234 z"
       style="fill:#000000;fill-opacity:1;fill-rule:nonzero;stroke:none"
       transform="matrix(1.3333333,0,0,-1.3333333,308.48053,263.79293)"
       clip-path="url(#clipPath28)" />
    <path
       id="path29"
       d="M 0,0 C -26.035,17.314 -42.591,26.663 -67.542,40.85 -77.343,46.423 -92.564,60.432 -80.558,83.87 -79.802,68.483 -18.989,26.247 6.707,7.883 Z"
       style="fill:#f9d616;fill-opacity:1;fill-rule:nonzero;stroke:none"
       transform="matrix(1.3333333,0,0,-1.3333333,372.88413,298.25267)"
       clip-path="url(#clipPath30)" />
    <path
       id="path31"
       d="M 0,0 C 20.046,-18.891 45.291,-34.302 67.812,-51.335"
       style="fill:none;stroke:#000000;stroke-width:1.5;stroke-linecap:round;stroke-linejoin:miter;stroke-miterlimit:4;stroke-dasharray:none;stroke-opacity:1"
       transform="matrix(1.3333333,0,0,-1.3333333,288.11387,223.35933)"
       clip-path="url(#clipPath32)" />
    <path
       id="path33"
       d="m 0,0 c 0.557,0 1.008,-0.451 1.008,-1.008 0,-0.556 -0.451,-1.008 -1.008,-1.008 -0.557,0 -1.009,0.452 -1.009,1.008 C -1.009,-0.451 -0.557,0 0,0"
       style="fill:#000000;fill-opacity:1;fill-rule:nonzero;stroke:none"
       transform="matrix(1.3333333,0,0,-1.3333333,387.20053,295.05213)"
       clip-path="url(#clipPath34)" />
    <path
       id="path35"
       d="m 0,0 c 0.557,0 1.008,-0.451 1.008,-1.008 0,-0.556 -0.451,-1.008 -1.008,-1.008 -0.557,0 -1.008,0.452 -1.008,1.008 C -1.008,-0.451 -0.557,0 0,0"
       style="fill:#000000;fill-opacity:1;fill-rule:nonzero;stroke:none"
       transform="matrix(1.3333333,0,0,-1.3333333,397.0924,303.6732)"
       clip-path="url(#clipPath36)" />
    <path
       id="path37"
       d="m 0,0 c 0.557,0 1.008,-0.452 1.008,-1.009 0,-0.556 -0.451,-1.008 -1.008,-1.008 -0.557,0 -1.008,0.452 -1.008,1.008 C -1.008,-0.452 -0.557,0 0,0"
       style="fill:#000000;fill-opacity:1;fill-rule:nonzero;stroke:none"
       transform="matrix(1.3333333,0,0,-1.3333333,405.78387,312.5052)"
       clip-path="url(#clipPath38)" />
  </g>
</svg>
