<svg height="666.66669" viewBox="0 0 999.33331 666.66669" width="999.33331" xmlns="http://www.w3.org/2000/svg" xmlns:xlink="http://www.w3.org/1999/xlink"><clipPath id="a"><path d="m0 500h749.5v-500h-749.5z" transform="translate(-377.97751 -227.18651)"/></clipPath><clipPath id="b"><path d="m0 500h749.5v-500h-749.5z" transform="translate(-369.05911 -227.97561)"/></clipPath><clipPath id="c"><path d="m0 500h749.5v-500h-749.5z" transform="translate(-361.12061 -232.11621)"/></clipPath><clipPath id="d"><path d="m0 500h749.5v-500h-749.5z" transform="translate(-355.37161 -238.98051)"/></clipPath><clipPath id="e"><path d="m0 500h749.5v-500h-749.5z" transform="translate(-373.91991 -249.2529)"/></clipPath><clipPath id="f"><path d="m0 500h749.5v-500h-749.5z" transform="translate(-373.75441 -249.91461)"/></clipPath><clipPath id="g"><path d="m0 500h749.5v-500h-749.5z" transform="translate(-373.85451 -250.58891)"/></clipPath><clipPath id="h"><path d="m0 500h749.5v-500h-749.5z" transform="translate(-374.20511 -251.1738)"/></clipPath><clipPath id="i"><path d="m0 500h749.5v-500h-749.5z" transform="translate(-352.68701 -247.5225)"/></clipPath><clipPath id="j"><path d="m0 500h749.5v-500h-749.5z" transform="translate(-353.47511 -256.4409)"/></clipPath><clipPath id="k"><path d="m0 500h749.5v-500h-749.5z" transform="translate(-357.61671 -264.37941)"/></clipPath><clipPath id="l"><path d="m0 500h749.5v-500h-749.5z" transform="translate(-364.48051 -270.1284)"/></clipPath><clipPath id="m"><path d="m0 500h749.5v-500h-749.5z" transform="translate(-374.75291 -251.58011)"/></clipPath><clipPath id="n"><path d="m0 500h749.5v-500h-749.5z" transform="translate(-375.41461 -251.7456)"/></clipPath><clipPath id="o"><path d="m0 500h749.5v-500h-749.5z" transform="translate(-376.08891 -251.64551)"/></clipPath><clipPath id="p"><path d="m0 500h749.5v-500h-749.5z" transform="translate(-376.67381 -251.29491)"/></clipPath><clipPath id="q"><path d="m0 500h749.5v-500h-749.5z" transform="translate(-373.02201 -272.81301)"/></clipPath><clipPath id="r"><path d="m0 500h749.5v-500h-749.5z" transform="translate(-381.94141 -272.02491)"/></clipPath><clipPath id="s"><path d="m0 500h749.5v-500h-749.5z" transform="translate(-389.87891 -267.88331)"/></clipPath><clipPath id="t"><path d="m0 500h749.5v-500h-749.5z" transform="translate(-395.62791 -261.0195)"/></clipPath><clipPath id="u"><path d="m0 500h749.5v-500h-749.5z" transform="translate(-377.08011 -250.74711)"/></clipPath><clipPath id="v"><path d="m0 500h749.5v-500h-749.5z" transform="translate(-377.24511 -250.0854)"/></clipPath><clipPath id="w"><path d="m0 500h749.5v-500h-749.5z" transform="translate(-377.14551 -249.41111)"/></clipPath><clipPath id="x"><path d="m0 500h749.5v-500h-749.5z" transform="translate(-376.79491 -248.82621)"/></clipPath><clipPath id="y"><path d="m0 500h749.5v-500h-749.5z" transform="translate(-398.31351 -252.47801)"/></clipPath><clipPath id="z"><path d="m0 500h749.5v-500h-749.5z" transform="translate(-397.52441 -243.5586)"/></clipPath><clipPath id="A"><path d="m0 500h749.5v-500h-749.5z" transform="translate(-393.38381 -235.62111)"/></clipPath><clipPath id="B"><path d="m0 500h749.5v-500h-749.5z" transform="translate(-386.51951 -229.87211)"/></clipPath><clipPath id="C"><path d="m0 500h749.5v-500h-749.5z" transform="translate(-376.24711 -248.41991)"/></clipPath><clipPath id="D"><path d="m0 500h749.5v-500h-749.5z" transform="translate(-375.58591 -248.25491)"/></clipPath><clipPath id="E"><path d="m0 500h749.5v-500h-749.5z" transform="translate(-374.91111 -248.35451)"/></clipPath><clipPath id="F"><path d="m0 500h749.5v-500h-749.5z" transform="translate(-374.32621 -248.7051)"/></clipPath><clipPath id="G"><path d="m0 500h749.5v-500h-749.5z" transform="translate(-375.50001 -277.7778)"/></clipPath><clipPath id="H"><path d="m0 500h749.5v-500h-749.5z" transform="translate(-384.93851 -255.50241)"/></clipPath><clipPath id="I"><path d="m0 500h749.5v-500h-749.5z" transform="translate(-385.33011 -257.25981)"/></clipPath><clipPath id="J"><path d="m0 500h749.5v-500h-749.5z" transform="translate(-393.01951 -255.98001)"/></clipPath><clipPath id="K"><path d="m0 500h749.5v-500h-749.5z" transform="translate(-384.90231 -255.77291)"/></clipPath><clipPath id="L"><path d="m0 500h749.5v-500h-749.5z" transform="translate(-390.46001 -252.5601)"/></clipPath><clipPath id="M"><path d="m0 500h749.5v-500h-749.5z" transform="translate(-371.25001 -246.1602)"/></clipPath><clipPath id="N"><path d="m0 500h749.5v-500h-749.5z" transform="translate(-373.33981 -240.46971)"/></clipPath><clipPath id="O"><path d="m0 500h749.5v-500h-749.5z" transform="translate(-372.62011 -237.94041)"/></clipPath><clipPath id="P"><path d="m0 500h749.5v-500h-749.5z" transform="translate(-369.25001 -237.28031)"/></clipPath><clipPath id="Q"><path d="m0 500h749.5v-500h-749.5z" transform="translate(-379.34961 -230.33981)"/></clipPath><clipPath id="R"><path d="m0 500h749.5v-500h-749.5z" transform="translate(-358.23001 -255.98001)"/></clipPath><clipPath id="S"><path d="m0 500h749.5v-500h-749.5z" transform="translate(-365.91991 -257.25981)"/></clipPath><clipPath id="T"><path d="m0 500h749.5v-500h-749.5z" transform="translate(-365.75781 -255.50241)"/></clipPath><clipPath id="U"><path d="m0 500h749.5v-500h-749.5z" transform="translate(-366.04001 -255.77291)"/></clipPath><clipPath id="V"><path d="m0 500h749.5v-500h-749.5z" transform="translate(-360.79001 -252.5601)"/></clipPath><path d="m0 0h749.5v500h-749.5z" fill="#74acdf" transform="matrix(1.3333333 0 0 -1.3333333 0 666.66667)"/><path d="m0 166.66h749.5v166.67h-749.5z" fill="#fff" transform="matrix(1.3333333 0 0 -1.3333333 0 666.66667)"/><g fill="#f6b40e" stroke="#85340a" stroke-width="1.112"><path clip-path="url(#a)" d="m0 0c-.347-9.428 5.453-14.612 4.694-23.031-.756-8.42 3.868-13.181 4.94-16.454 1.073-3.275-1.159-5.233-.197-5.699s3.069 2.121 2.382 6.776c-.686 4.655-4.22 6.037-3.389 16.32.83 10.282-4.206 12.678-2.981 22.058m-11.087 21.534 28.454-61.992s.49-1.186 1.281-.859c.79.326.299 1.511.299 1.511l-23.715 63.957" transform="matrix(1.3333333 0 0 -1.3333333 503.97 363.75133)"/><path clip-path="url(#b)" d="m0 0c-3.928-8.578-.555-15.588-4.477-23.075-3.921-7.49-1.471-13.657-1.733-17.092-.262-3.437-3.074-4.391-2.364-5.189.712-.799 3.648.785 4.795 5.348s-1.589 7.193 3.114 16.374c4.702 9.183.966 13.323 5.688 21.52m-2.003 24.137 2.565-68.162s-.001-1.282.854-1.283c.855 0 .854 1.282.854 1.282l2.566 68.163" transform="matrix(1.3333333 0 0 -1.3333333 492.0788 362.6992)"/><path clip-path="url(#c)" d="m0 0c-6.911-6.421-6.477-14.188-12.966-19.605-6.49-5.418-6.586-12.054-8.142-15.127-1.557-3.075-4.52-2.88-4.17-3.89.352-1.011 3.671-.671 6.477 3.106 2.805 3.777 1.284 7.253 9.143 13.937 7.858 6.684 5.991 11.938 13.49 17.705m7.387 23.066-23.716-63.955s-.491-1.184.299-1.512c.789-.329 1.28.857 1.28.857l28.455 61.993" transform="matrix(1.3333333 0 0 -1.3333333 481.49413 357.1784)"/><path clip-path="url(#d)" d="m0 0c-8.843-3.287-11.414-10.63-19.482-13.15-8.069-2.524-10.697-8.618-13.311-10.861-2.615-2.245-5.278-.93-5.341-1.998-.062-1.068 3.134-2.024 7.172.391 4.038 2.416 3.962 6.21 13.781 9.378 9.818 3.168 10.103 8.737 19.238 11.194m15.652 18.484-46.384-50.011s-.908-.906-.304-1.512c.604-.604 1.511.303 1.511.303l50.012 46.385" transform="matrix(1.3333333 0 0 -1.3333333 473.8288 348.026)"/></g><path clip-path="url(#e)" d="m0 0 19.487-42.577-16.329 43.887m2.732-24.973c.454-9.054 5.587-13.063 4.579-21.314 2.213 6.525-3.123 11.583-2.821 21.22" fill="#85340a" transform="matrix(1.3333333 0 0 -1.3333333 498.55987 334.32947)"/><path clip-path="url(#f)" d="m0 0 1.71-46.793 1.708 46.795m-7.032-24.118c-3.046-8.538.163-14.207-3.926-21.444 4.541 5.182 1.547 11.897 5.515 20.685" fill="#85340a" transform="matrix(1.3333333 0 0 -1.3333333 498.3392 333.4472)"/><path clip-path="url(#g)" d="m0 0-16.327-43.886 19.486 42.579m-15.726-19.59c-6.082-6.722-5.287-13.187-11.834-18.309 6.179 3.049 5.982 10.399 13.011 16.999" fill="#85340a" transform="matrix(1.3333333 0 0 -1.3333333 498.47267 332.54813)"/><path clip-path="url(#h)" d="m0 0-31.878-34.297 34.297 31.881m-22.026-12.081c-8.192-3.884-9.931-10.16-17.94-12.387 6.875.452 9.506 7.319 18.526 10.726" fill="#85340a" transform="matrix(1.3333333 0 0 -1.3333333 498.94013 331.76827)"/><path clip-path="url(#i)" d="m0 0c-9.428.347-14.613-5.453-23.032-4.694-8.42.756-13.18-3.868-16.454-4.94-3.274-1.073-5.232 1.159-5.698.197s2.121-3.069 6.775-2.382c4.655.686 6.037 4.22 16.32 3.389 10.283-.83 12.678 4.206 22.058 2.981m21.534 11.087-61.992-28.454s-1.185-.49-.859-1.281c.327-.79 1.512-.299 1.512-.299l63.956 23.715" fill="#f6b40e" stroke="#85340a" stroke-width="1.112" transform="matrix(1.3333333 0 0 -1.3333333 470.24933 336.63667)"/><path clip-path="url(#j)" d="m0 0c-8.577 3.928-15.587.555-23.075 4.477-7.489 3.921-13.657 1.471-17.092 1.733-3.436.262-4.39 3.074-5.188 2.364-.8-.712.784-3.648 5.347-4.795 4.564-1.147 7.193 1.589 16.375-3.114 9.183-4.702 13.322-.966 21.52-5.688m24.137 2.003-68.162-2.565s-1.282.001-1.283-.854 1.282-.854 1.282-.854l68.163-2.566" fill="#f6b40e" stroke="#85340a" stroke-width="1.112" transform="matrix(1.3333333 0 0 -1.3333333 471.30013 324.74547)"/><path clip-path="url(#k)" d="m0 0c-6.421 6.911-14.188 6.477-19.605 12.966-5.419 6.49-12.055 6.586-15.128 8.142-3.074 1.557-2.88 4.52-3.889 4.17-1.011-.352-.671-3.671 3.105-6.477 3.778-2.805 7.253-1.284 13.937-9.143 6.685-7.858 11.939-5.991 17.705-13.49m23.067-7.387-63.956 23.716s-1.184.491-1.512-.299c-.328-.789.858-1.28.858-1.28l61.993-28.455" fill="#f6b40e" stroke="#85340a" stroke-width="1.112" transform="matrix(1.3333333 0 0 -1.3333333 476.82227 314.1608)"/><path clip-path="url(#l)" d="m0 0c-3.288 8.843-10.629 11.414-13.151 19.482-2.523 8.069-8.617 10.697-10.86 13.311-2.245 2.615-.931 5.278-1.998 5.341-1.068.062-2.025-3.134.391-7.172s6.21-3.962 9.377-13.781c3.169-9.818 8.738-10.103 11.195-19.238m18.484-15.652-50.012 46.384s-.905.908-1.511.304c-.605-.604.303-1.511.303-1.511l46.384-50.012" fill="#f6b40e" stroke="#85340a" stroke-width="1.112" transform="matrix(1.3333333 0 0 -1.3333333 485.974 306.49547)"/><path clip-path="url(#m)" d="m0 0-42.577-19.487 43.887 16.329m-24.973-2.732c-9.054-.454-13.063-5.587-21.314-4.579 6.525-2.213 11.583 3.123 21.22 2.821" fill="#85340a" transform="matrix(1.3333333 0 0 -1.3333333 499.67053 331.22653)"/><path clip-path="url(#n)" d="m0 0-46.793-1.71 46.795-1.708m-24.118 7.032c-8.538 3.046-14.206-.163-21.444 3.926 5.182-4.541 11.897-1.547 20.685-5.515" fill="#85340a" transform="matrix(1.3333333 0 0 -1.3333333 500.5528 331.00587)"/><path clip-path="url(#o)" d="m0 0-43.886 16.327 42.579-19.486m-19.59 15.726c-6.723 6.082-13.187 5.287-18.309 11.834 3.049-6.179 10.399-5.982 16.999-13.011" fill="#85340a" transform="matrix(1.3333333 0 0 -1.3333333 501.45187 331.13933)"/><path clip-path="url(#p)" d="m0 0-34.297 31.878 31.881-34.297m-12.081 22.026c-3.884 8.192-10.161 9.931-12.387 17.94.452-6.875 7.319-9.506 10.726-18.526" fill="#85340a" transform="matrix(1.3333333 0 0 -1.3333333 502.23173 331.6068)"/><path clip-path="url(#q)" d="m0 0c.347 9.428-5.453 14.613-4.694 23.032.757 8.42-3.868 13.18-4.94 16.454-1.073 3.274 1.16 5.232.198 5.698-.963.466-3.07-2.121-2.383-6.775.687-4.655 4.22-6.037 3.39-16.32s4.206-12.678 2.98-22.058m11.087-21.534-28.454 61.992s-.49 1.185-1.28.859c-.79-.327-.299-1.512-.299-1.512l23.715-63.956" fill="#f6b40e" stroke="#85340a" stroke-width="1.112" transform="matrix(1.3333333 0 0 -1.3333333 497.36267 302.916)"/><path clip-path="url(#r)" d="m0 0c3.928 8.577.554 15.587 4.477 23.075 3.921 7.489 1.47 13.657 1.733 17.092.261 3.436 3.073 4.39 2.363 5.188-.712.8-3.648-.784-4.795-5.347-1.146-4.564 1.589-7.193-3.113-16.375-4.702-9.183-.966-13.322-5.688-21.52m2.002-24.137-2.564 68.162s.001 1.282-.854 1.283-.855-1.282-.855-1.282l-2.565-68.163" fill="#f6b40e" stroke="#85340a" stroke-width="1.112" transform="matrix(1.3333333 0 0 -1.3333333 509.2552 303.9668)"/><path clip-path="url(#s)" d="m0 0c6.912 6.421 6.478 14.188 12.967 19.605 6.489 5.419 6.585 12.055 8.142 15.128 1.556 3.074 4.52 2.88 4.169 3.889-.351 1.011-3.671.671-6.476-3.105-2.806-3.778-1.284-7.253-9.143-13.937-7.858-6.685-5.991-11.939-13.49-17.705m-7.387-23.067 23.715 63.956s.491 1.184-.298 1.512c-.79.328-1.28-.858-1.28-.858l-28.455-61.993" fill="#f6b40e" stroke="#85340a" stroke-width="1.112" transform="matrix(1.3333333 0 0 -1.3333333 519.83853 309.48893)"/><path clip-path="url(#t)" d="m0 0c8.843 3.288 11.414 10.629 19.482 13.151 8.07 2.523 10.698 8.617 13.312 10.86 2.614 2.245 5.278.931 5.34 1.998.062 1.068-3.134 2.025-7.172-.391-4.037-2.416-3.962-6.21-13.78-9.377-9.818-3.169-10.104-8.738-19.239-11.195m-15.651-18.484 46.384 50.012s.907.905.303 1.511c-.604.605-1.51-.303-1.51-.303l-50.013-46.384" fill="#f6b40e" stroke="#85340a" stroke-width="1.112" transform="matrix(1.3333333 0 0 -1.3333333 527.50387 318.64067)"/><path clip-path="url(#u)" d="m0 0-19.487 42.577 16.329-43.887m-2.732 24.973c-.453 9.054-5.587 13.063-4.579 21.314-2.213-6.525 3.123-11.583 2.82-21.22" fill="#85340a" transform="matrix(1.3333333 0 0 -1.3333333 502.77347 332.3372)"/><path clip-path="url(#v)" d="m0 0-1.71 46.793-1.708-46.795m7.032 24.118c3.046 8.538-.162 14.206 3.927 21.444-4.542-5.182-1.548-11.897-5.516-20.685" fill="#85340a" transform="matrix(1.3333333 0 0 -1.3333333 502.99347 333.21947)"/><path clip-path="url(#w)" d="m0 0 16.327 43.886-19.486-42.579m15.726 19.59c6.081 6.723 5.287 13.187 11.834 18.309-6.178-3.049-5.982-10.399-13.01-16.999" fill="#85340a" transform="matrix(1.3333333 0 0 -1.3333333 502.86067 334.11853)"/><path clip-path="url(#x)" d="m0 0 31.879 34.297-34.298-31.881m22.026 12.081c8.192 3.884 9.931 10.161 17.94 12.387-6.875-.452-9.506-7.319-18.526-10.726" fill="#85340a" transform="matrix(1.3333333 0 0 -1.3333333 502.3932 334.8984)"/><path clip-path="url(#y)" d="m0 0c9.428-.347 14.612 5.453 23.031 4.694 8.42-.757 13.181 3.868 16.454 4.94 3.275 1.073 5.233-1.16 5.699-.198.466.963-2.121 3.07-6.776 2.383s-6.037-4.22-16.32-3.39c-10.282.83-12.678-4.206-22.058-2.98m-21.534-11.087 61.992 28.454s1.186.49.859 1.28c-.326.79-1.511.299-1.511.299l-63.957-23.715" fill="#f6b40e" stroke="#85340a" stroke-width="1.112" transform="matrix(1.3333333 0 0 -1.3333333 531.08467 330.02933)"/><path clip-path="url(#z)" d="m0 0c8.578-3.928 15.588-.554 23.075-4.477 7.49-3.921 13.657-1.47 17.092-1.733 3.437-.261 4.391-3.073 5.189-2.363.799.712-.785 3.648-5.348 4.795-4.563 1.146-7.193-1.589-16.374 3.113-9.183 4.702-13.323.966-21.52 5.688m-24.137-2.002 68.162 2.564s1.282-.001 1.283.854c0 .855-1.282.855-1.282.855l-68.163 2.565" fill="#f6b40e" stroke="#85340a" stroke-width="1.112" transform="matrix(1.3333333 0 0 -1.3333333 530.03253 341.92187)"/><path clip-path="url(#A)" d="m0 0c6.421-6.912 14.188-6.478 19.605-12.967 5.418-6.489 12.054-6.585 15.127-8.142 3.075-1.556 2.88-4.52 3.89-4.169 1.011.351.671 3.671-3.106 6.476-3.777 2.806-7.253 1.284-13.937 9.143-6.684 7.858-11.938 5.991-17.705 13.49m-23.066 7.387 63.955-23.715s1.184-.491 1.512.298c.329.79-.857 1.28-.857 1.28l-61.993 28.455" fill="#f6b40e" stroke="#85340a" stroke-width="1.112" transform="matrix(1.3333333 0 0 -1.3333333 524.51173 352.5052)"/><path clip-path="url(#B)" d="m0 0c3.287-8.843 10.63-11.414 13.15-19.482 2.524-8.07 8.618-10.698 10.861-13.312 2.245-2.614.93-5.278 1.998-5.34s2.024 3.134-.391 7.172c-2.416 4.037-6.21 3.962-9.378 13.78s-8.737 10.104-11.194 19.239m-18.484 15.651 50.011-46.384s.906-.907 1.512-.303c.604.604-.303 1.51-.303 1.51l-46.385 50.013" fill="#f6b40e" stroke="#85340a" stroke-width="1.112" transform="matrix(1.3333333 0 0 -1.3333333 515.35933 360.17053)"/><path clip-path="url(#C)" d="m0 0 42.577 19.487-43.887-16.329m24.973 2.732c9.054.453 13.063 5.587 21.314 4.579-6.525 2.213-11.583-3.123-21.22-2.82" fill="#85340a" transform="matrix(1.3333333 0 0 -1.3333333 501.6628 335.44013)"/><path clip-path="url(#D)" d="m0 0 46.793 1.709-46.795 1.709m24.117-7.032c8.538-3.046 14.207.162 21.445-3.927-5.182 4.542-11.898 1.548-20.685 5.516" fill="#85340a" transform="matrix(1.3333333 0 0 -1.3333333 500.7812 335.66013)"/><path clip-path="url(#E)" d="m0 0 43.886-16.327-42.579 19.486m19.59-15.726c6.722-6.081 13.187-5.287 18.309-11.834-3.049 6.178-10.399 5.982-16.999 13.01" fill="#85340a" transform="matrix(1.3333333 0 0 -1.3333333 499.88147 335.52733)"/><path clip-path="url(#F)" d="m0 0 34.297-31.879-31.881 34.298m12.081-22.026c3.884-8.192 10.16-9.931 12.387-17.94-.452 6.875-7.319 9.506-10.726 18.526" fill="#85340a" transform="matrix(1.3333333 0 0 -1.3333333 499.1016 335.05987)"/><path clip-path="url(#G)" d="m0 0c15.342 0 27.778-12.437 27.778-27.778 0-15.342-12.436-27.778-27.778-27.778-15.341 0-27.778 12.436-27.778 27.778 0 15.341 12.437 27.778 27.778 27.778" fill="#f6b40e" stroke="#85340a" stroke-width="1.5" transform="matrix(1.3333333 0 0 -1.3333333 500.66667 296.29627)"/><path clip-path="url(#H)" d="m0 0c1.847.034 3.572-.814 3.813-1.656-2.137-2.35-5.551-2.146-7.688-.438.936 1.496 2.439 2.068 3.875 2.094m.031.437c-1.896 0-3.713-.821-4.781-2.531 2.137-1.922 6.856-2.132 10.062.219-1.388 1.496-3.384 2.312-5.281 2.312" fill="#843511" transform="matrix(1.3333333 0 0 -1.3333333 513.25133 325.9968)"/><g fill="#85340a"><path clip-path="url(#I)" d="m0 0c-2.776 0-3.419-.642-4.701-1.71-1.283-1.068-1.923-.854-2.137-1.068-.212-.214 0-.854.427-.64s1.283.64 2.563 1.709c1.284 1.069 2.564 1.068 3.847 1.068 3.846 0 5.982-3.205 6.409-2.991.427.215-2.137 3.633-6.409 3.633z" transform="matrix(1.3333333 0 0 -1.3333333 513.77347 323.6536)"/><path clip-path="url(#J)" d="m0 0c-4.914 4.273-11.109 4.915-14.529 1.708-.837-1.12-1.373-2.318-1.594-3.569-.43-2.433.33-5.062 2.236-7.756-.215.001-.642-.213-.856-.426-1.696 3.244-2.297 6.576-1.74 9.745.146.828.374 1.643.67 2.436 4.701 3.845 11.11 4.273 15.81-2.138z" transform="matrix(1.3333333 0 0 -1.3333333 524.026 325.36)"/><path clip-path="url(#K)" d="m0 0c1.062 0 1.923-.861 1.923-1.923s-.861-1.923-1.923-1.923-1.924.861-1.924 1.923.862 1.923 1.924 1.923" transform="matrix(1.3333333 0 0 -1.3333333 513.20307 325.63613)"/><path clip-path="url(#L)" d="m0 0c-3.633-2.778-7.265-2.564-9.401-1.282-2.137 1.282-2.137 1.709-1.71 1.709.426 0 .852-.427 2.562-1.281 1.71-.856 4.274-.856 8.547.854z" transform="matrix(1.3333333 0 0 -1.3333333 520.61333 329.91987)"/><path clip-path="url(#M)" d="m0 0c-.914-.167-1.562-.978-1.562-1.906 0-1.062.877-1.907 1.937-1.907.626 0 1.203.297 1.562.813.74-.557 1.765-.615 2.313-.625.084-.002.193 0 .25 0 .548.01 1.573.068 2.312.625.361-.516.936-.813 1.563-.813 1.06 0 1.938.845 1.938 1.907 0 .928-.65 1.739-1.563 1.906.513-.181.844-.677.844-1.219 0-.708-.572-1.281-1.281-1.281-.681 0-1.242.54-1.282 1.219-.209-.416-1.034-1.656-2.656-1.719-1.622.063-2.447 1.303-2.656 1.719-.04-.679-.601-1.219-1.281-1.219-.71 0-1.281.573-1.281 1.281 0 .542.33 1.037.843 1.219z" transform="matrix(1.3333333 0 0 -1.3333333 495 338.45307)"/><path clip-path="url(#N)" d="m0 0c-2.138 0-2.983-1.937-4.906-3.219 1.069.427 1.909 1.27 3.406 2.125 1.496.855 2.772-.187 3.625-.187h.031c.854 0 2.129 1.042 3.625.187 1.497-.855 2.369-1.698 3.438-2.125-1.923 1.282-2.8 3.219-4.938 3.219-.427 0-1.271-.23-2.125-.656h-.031c-.853.427-1.698.656-2.125.656" transform="matrix(1.3333333 0 0 -1.3333333 497.7864 346.0404)"/><path clip-path="url(#O)" d="m0 0c-.844-.038-1.96-.207-3.563-.687 3.848.853 4.697-.438 6.407-.438h.031c1.71 0 2.559 1.292 6.406.438-4.274 1.281-5.124.437-6.406.437h-.031c-.802 0-1.438.312-2.844.25" transform="matrix(1.3333333 0 0 -1.3333333 496.8268 349.4128)"/><path clip-path="url(#P)" d="m0 0c-.248-.003-.519-.005-.812-.031 4.487-.428 2.33-3 7.031-3h.031c4.7 0 2.574 2.572 7.063 3-4.702.427-3.215-2.344-7.063-2.344h-.031c-3.608 0-2.496 2.421-6.219 2.375" transform="matrix(1.3333333 0 0 -1.3333333 492.33333 350.29293)"/><path clip-path="url(#Q)" d="m0 0c0 2.124-1.723 3.847-3.846 3.847s-3.846-1.723-3.846-3.847c.423 1.781 2.016 3.039 3.846 3.039 1.833 0 3.424-1.258 3.846-3.039" transform="matrix(1.3333333 0 0 -1.3333333 505.79947 359.54693)"/><path clip-path="url(#R)" d="m0 0c4.915 4.273 11.11 4.915 14.53 1.708.837-1.12 1.373-2.318 1.594-3.569.43-2.433-.331-5.062-2.237-7.756.215.001.643-.213.857-.426 1.696 3.244 2.296 6.576 1.739 9.745-.145.828-.373 1.643-.669 2.436-4.701 3.845-11.11 4.273-15.811-2.138z" transform="matrix(1.3333333 0 0 -1.3333333 477.64 325.36)"/><path clip-path="url(#S)" d="m0 0c2.777 0 3.419-.642 4.701-1.71 1.283-1.068 1.923-.854 2.136-1.068s0-.854-.426-.64c-.427.214-1.284.64-2.563 1.709-1.284 1.069-2.564 1.068-3.847 1.068-3.846 0-5.983-3.205-6.409-2.991-.427.215 2.137 3.633 6.409 3.633z" transform="matrix(1.3333333 0 0 -1.3333333 487.8932 323.6536)"/></g><path clip-path="url(#T)" d="m0 0c1.846.034 3.572-.814 3.813-1.656-2.137-2.35-5.551-2.146-7.688-.438.935 1.496 2.439 2.068 3.875 2.094m.031.437c-1.897 0-3.713-.821-4.781-2.531 2.137-1.922 6.856-2.132 10.062.219-1.388 1.496-3.384 2.312-5.281 2.312z" fill="#843511" transform="matrix(1.3333333 0 0 -1.3333333 487.67707 325.9968)"/><path clip-path="url(#U)" d="m0 0c1.062 0 1.923-.861 1.923-1.923s-.861-1.923-1.923-1.923-1.923.861-1.923 1.923.861 1.923 1.923 1.923" fill="#85340a" transform="matrix(1.3333333 0 0 -1.3333333 488.05333 325.63613)"/><path clip-path="url(#V)" d="m0 0c3.633-2.778 7.265-2.564 9.402-1.282s2.137 1.709 1.71 1.709-.854-.427-2.564-1.281c-1.71-.856-4.273-.856-8.546.854z" fill="#85340a" transform="matrix(1.3333333 0 0 -1.3333333 481.05333 329.91987)"/></svg>