<?xml version="1.0" encoding="UTF-8" standalone="no"?>
<!-- Created with Inkscape (http://www.inkscape.org/) -->

<svg
   version="1.1"
   id="svg1"
   width="999.33331"
   height="666.66669"
   viewBox="0 0 999.33331 666.66669"
   sodipodi:docname="ar.ai"
   xmlns:inkscape="http://www.inkscape.org/namespaces/inkscape"
   xmlns:sodipodi="http://sodipodi.sourceforge.net/DTD/sodipodi-0.dtd"
   xmlns="http://www.w3.org/2000/svg"
   xmlns:svg="http://www.w3.org/2000/svg">
  <defs
     id="defs1">
    <clipPath
       clipPathUnits="userSpaceOnUse"
       id="clipPath4">
      <path
         d="M 0,500 H 749.5 V 0 H 0 Z"
         transform="translate(-377.97751,-227.18651)"
         id="path4" />
    </clipPath>
    <clipPath
       clipPathUnits="userSpaceOnUse"
       id="clipPath6">
      <path
         d="M 0,500 H 749.5 V 0 H 0 Z"
         transform="translate(-369.05911,-227.97561)"
         id="path6" />
    </clipPath>
    <clipPath
       clipPathUnits="userSpaceOnUse"
       id="clipPath8">
      <path
         d="M 0,500 H 749.5 V 0 H 0 Z"
         transform="translate(-361.12061,-232.11621)"
         id="path8" />
    </clipPath>
    <clipPath
       clipPathUnits="userSpaceOnUse"
       id="clipPath10">
      <path
         d="M 0,500 H 749.5 V 0 H 0 Z"
         transform="translate(-355.37161,-238.98051)"
         id="path10" />
    </clipPath>
    <clipPath
       clipPathUnits="userSpaceOnUse"
       id="clipPath12">
      <path
         d="M 0,500 H 749.5 V 0 H 0 Z"
         transform="translate(-373.91991,-249.2529)"
         id="path12" />
    </clipPath>
    <clipPath
       clipPathUnits="userSpaceOnUse"
       id="clipPath14">
      <path
         d="M 0,500 H 749.5 V 0 H 0 Z"
         transform="translate(-373.75441,-249.91461)"
         id="path14" />
    </clipPath>
    <clipPath
       clipPathUnits="userSpaceOnUse"
       id="clipPath16">
      <path
         d="M 0,500 H 749.5 V 0 H 0 Z"
         transform="translate(-373.85451,-250.58891)"
         id="path16" />
    </clipPath>
    <clipPath
       clipPathUnits="userSpaceOnUse"
       id="clipPath18">
      <path
         d="M 0,500 H 749.5 V 0 H 0 Z"
         transform="translate(-374.20511,-251.1738)"
         id="path18" />
    </clipPath>
    <clipPath
       clipPathUnits="userSpaceOnUse"
       id="clipPath20">
      <path
         d="M 0,500 H 749.5 V 0 H 0 Z"
         transform="translate(-352.68701,-247.5225)"
         id="path20" />
    </clipPath>
    <clipPath
       clipPathUnits="userSpaceOnUse"
       id="clipPath22">
      <path
         d="M 0,500 H 749.5 V 0 H 0 Z"
         transform="translate(-353.47511,-256.4409)"
         id="path22" />
    </clipPath>
    <clipPath
       clipPathUnits="userSpaceOnUse"
       id="clipPath24">
      <path
         d="M 0,500 H 749.5 V 0 H 0 Z"
         transform="translate(-357.61671,-264.37941)"
         id="path24" />
    </clipPath>
    <clipPath
       clipPathUnits="userSpaceOnUse"
       id="clipPath26">
      <path
         d="M 0,500 H 749.5 V 0 H 0 Z"
         transform="translate(-364.48051,-270.1284)"
         id="path26" />
    </clipPath>
    <clipPath
       clipPathUnits="userSpaceOnUse"
       id="clipPath28">
      <path
         d="M 0,500 H 749.5 V 0 H 0 Z"
         transform="translate(-374.75291,-251.58011)"
         id="path28" />
    </clipPath>
    <clipPath
       clipPathUnits="userSpaceOnUse"
       id="clipPath30">
      <path
         d="M 0,500 H 749.5 V 0 H 0 Z"
         transform="translate(-375.41461,-251.7456)"
         id="path30" />
    </clipPath>
    <clipPath
       clipPathUnits="userSpaceOnUse"
       id="clipPath32">
      <path
         d="M 0,500 H 749.5 V 0 H 0 Z"
         transform="translate(-376.08891,-251.64551)"
         id="path32" />
    </clipPath>
    <clipPath
       clipPathUnits="userSpaceOnUse"
       id="clipPath34">
      <path
         d="M 0,500 H 749.5 V 0 H 0 Z"
         transform="translate(-376.67381,-251.29491)"
         id="path34" />
    </clipPath>
    <clipPath
       clipPathUnits="userSpaceOnUse"
       id="clipPath36">
      <path
         d="M 0,500 H 749.5 V 0 H 0 Z"
         transform="translate(-373.02201,-272.81301)"
         id="path36" />
    </clipPath>
    <clipPath
       clipPathUnits="userSpaceOnUse"
       id="clipPath38">
      <path
         d="M 0,500 H 749.5 V 0 H 0 Z"
         transform="translate(-381.94141,-272.02491)"
         id="path38" />
    </clipPath>
    <clipPath
       clipPathUnits="userSpaceOnUse"
       id="clipPath40">
      <path
         d="M 0,500 H 749.5 V 0 H 0 Z"
         transform="translate(-389.87891,-267.88331)"
         id="path40" />
    </clipPath>
    <clipPath
       clipPathUnits="userSpaceOnUse"
       id="clipPath42">
      <path
         d="M 0,500 H 749.5 V 0 H 0 Z"
         transform="translate(-395.62791,-261.0195)"
         id="path42" />
    </clipPath>
    <clipPath
       clipPathUnits="userSpaceOnUse"
       id="clipPath44">
      <path
         d="M 0,500 H 749.5 V 0 H 0 Z"
         transform="translate(-377.08011,-250.74711)"
         id="path44" />
    </clipPath>
    <clipPath
       clipPathUnits="userSpaceOnUse"
       id="clipPath46">
      <path
         d="M 0,500 H 749.5 V 0 H 0 Z"
         transform="translate(-377.24511,-250.0854)"
         id="path46" />
    </clipPath>
    <clipPath
       clipPathUnits="userSpaceOnUse"
       id="clipPath48">
      <path
         d="M 0,500 H 749.5 V 0 H 0 Z"
         transform="translate(-377.14551,-249.41111)"
         id="path48" />
    </clipPath>
    <clipPath
       clipPathUnits="userSpaceOnUse"
       id="clipPath50">
      <path
         d="M 0,500 H 749.5 V 0 H 0 Z"
         transform="translate(-376.79491,-248.82621)"
         id="path50" />
    </clipPath>
    <clipPath
       clipPathUnits="userSpaceOnUse"
       id="clipPath52">
      <path
         d="M 0,500 H 749.5 V 0 H 0 Z"
         transform="translate(-398.31351,-252.47801)"
         id="path52" />
    </clipPath>
    <clipPath
       clipPathUnits="userSpaceOnUse"
       id="clipPath54">
      <path
         d="M 0,500 H 749.5 V 0 H 0 Z"
         transform="translate(-397.52441,-243.5586)"
         id="path54" />
    </clipPath>
    <clipPath
       clipPathUnits="userSpaceOnUse"
       id="clipPath56">
      <path
         d="M 0,500 H 749.5 V 0 H 0 Z"
         transform="translate(-393.38381,-235.62111)"
         id="path56" />
    </clipPath>
    <clipPath
       clipPathUnits="userSpaceOnUse"
       id="clipPath58">
      <path
         d="M 0,500 H 749.5 V 0 H 0 Z"
         transform="translate(-386.51951,-229.87211)"
         id="path58" />
    </clipPath>
    <clipPath
       clipPathUnits="userSpaceOnUse"
       id="clipPath60">
      <path
         d="M 0,500 H 749.5 V 0 H 0 Z"
         transform="translate(-376.24711,-248.41991)"
         id="path60" />
    </clipPath>
    <clipPath
       clipPathUnits="userSpaceOnUse"
       id="clipPath62">
      <path
         d="M 0,500 H 749.5 V 0 H 0 Z"
         transform="translate(-375.58591,-248.25491)"
         id="path62" />
    </clipPath>
    <clipPath
       clipPathUnits="userSpaceOnUse"
       id="clipPath64">
      <path
         d="M 0,500 H 749.5 V 0 H 0 Z"
         transform="translate(-374.91111,-248.35451)"
         id="path64" />
    </clipPath>
    <clipPath
       clipPathUnits="userSpaceOnUse"
       id="clipPath66">
      <path
         d="M 0,500 H 749.5 V 0 H 0 Z"
         transform="translate(-374.32621,-248.7051)"
         id="path66" />
    </clipPath>
    <clipPath
       clipPathUnits="userSpaceOnUse"
       id="clipPath68">
      <path
         d="M 0,500 H 749.5 V 0 H 0 Z"
         transform="translate(-375.50001,-277.7778)"
         id="path68" />
    </clipPath>
    <clipPath
       clipPathUnits="userSpaceOnUse"
       id="clipPath70">
      <path
         d="M 0,500 H 749.5 V 0 H 0 Z"
         transform="translate(-384.93851,-255.50241)"
         id="path70" />
    </clipPath>
    <clipPath
       clipPathUnits="userSpaceOnUse"
       id="clipPath72">
      <path
         d="M 0,500 H 749.5 V 0 H 0 Z"
         transform="translate(-385.33011,-257.25981)"
         id="path72" />
    </clipPath>
    <clipPath
       clipPathUnits="userSpaceOnUse"
       id="clipPath74">
      <path
         d="M 0,500 H 749.5 V 0 H 0 Z"
         transform="translate(-393.01951,-255.98001)"
         id="path74" />
    </clipPath>
    <clipPath
       clipPathUnits="userSpaceOnUse"
       id="clipPath76">
      <path
         d="M 0,500 H 749.5 V 0 H 0 Z"
         transform="translate(-384.90231,-255.77291)"
         id="path76" />
    </clipPath>
    <clipPath
       clipPathUnits="userSpaceOnUse"
       id="clipPath78">
      <path
         d="M 0,500 H 749.5 V 0 H 0 Z"
         transform="translate(-390.46001,-252.5601)"
         id="path78" />
    </clipPath>
    <clipPath
       clipPathUnits="userSpaceOnUse"
       id="clipPath80">
      <path
         d="M 0,500 H 749.5 V 0 H 0 Z"
         transform="translate(-371.25001,-246.1602)"
         id="path80" />
    </clipPath>
    <clipPath
       clipPathUnits="userSpaceOnUse"
       id="clipPath82">
      <path
         d="M 0,500 H 749.5 V 0 H 0 Z"
         transform="translate(-373.33981,-240.46971)"
         id="path82" />
    </clipPath>
    <clipPath
       clipPathUnits="userSpaceOnUse"
       id="clipPath84">
      <path
         d="M 0,500 H 749.5 V 0 H 0 Z"
         transform="translate(-372.62011,-237.94041)"
         id="path84" />
    </clipPath>
    <clipPath
       clipPathUnits="userSpaceOnUse"
       id="clipPath86">
      <path
         d="M 0,500 H 749.5 V 0 H 0 Z"
         transform="translate(-369.25001,-237.28031)"
         id="path86" />
    </clipPath>
    <clipPath
       clipPathUnits="userSpaceOnUse"
       id="clipPath88">
      <path
         d="M 0,500 H 749.5 V 0 H 0 Z"
         transform="translate(-379.34961,-230.33981)"
         id="path88" />
    </clipPath>
    <clipPath
       clipPathUnits="userSpaceOnUse"
       id="clipPath90">
      <path
         d="M 0,500 H 749.5 V 0 H 0 Z"
         transform="translate(-358.23001,-255.98001)"
         id="path90" />
    </clipPath>
    <clipPath
       clipPathUnits="userSpaceOnUse"
       id="clipPath92">
      <path
         d="M 0,500 H 749.5 V 0 H 0 Z"
         transform="translate(-365.91991,-257.25981)"
         id="path92" />
    </clipPath>
    <clipPath
       clipPathUnits="userSpaceOnUse"
       id="clipPath94">
      <path
         d="M 0,500 H 749.5 V 0 H 0 Z"
         transform="translate(-365.75781,-255.50241)"
         id="path94" />
    </clipPath>
    <clipPath
       clipPathUnits="userSpaceOnUse"
       id="clipPath96">
      <path
         d="M 0,500 H 749.5 V 0 H 0 Z"
         transform="translate(-366.04001,-255.77291)"
         id="path96" />
    </clipPath>
    <clipPath
       clipPathUnits="userSpaceOnUse"
       id="clipPath98">
      <path
         d="M 0,500 H 749.5 V 0 H 0 Z"
         transform="translate(-360.79001,-252.5601)"
         id="path98" />
    </clipPath>
  </defs>
  <sodipodi:namedview
     id="namedview1"
     pagecolor="#ffffff"
     bordercolor="#000000"
     borderopacity="0.25"
     inkscape:showpageshadow="2"
     inkscape:pageopacity="0.0"
     inkscape:pagecheckerboard="0"
     inkscape:deskcolor="#d1d1d1">
    <inkscape:page
       x="0"
       y="0"
       inkscape:label="1"
       id="page1"
       width="999.33331"
       height="666.66669"
       margin="0"
       bleed="0" />
  </sodipodi:namedview>
  <g
     id="layer-MC0"
     inkscape:groupmode="layer"
     inkscape:label="Layer 1">
    <path
       id="path1"
       d="M 0,0 H 749.5 V 500 H 0 Z"
       style="fill:#74acdf;fill-opacity:1;fill-rule:nonzero;stroke:none"
       transform="matrix(1.3333333,0,0,-1.3333333,0,666.66667)" />
    <path
       id="path2"
       d="M 0,166.66 H 749.5 V 333.33 H 0 Z"
       style="fill:#ffffff;fill-opacity:1;fill-rule:nonzero;stroke:none"
       transform="matrix(1.3333333,0,0,-1.3333333,0,666.66667)" />
    <path
       id="path3"
       d="m 0,0 c -0.347,-9.428 5.453,-14.612 4.694,-23.031 -0.756,-8.42 3.868,-13.181 4.94,-16.454 1.073,-3.275 -1.159,-5.233 -0.197,-5.699 0.962,-0.466 3.069,2.121 2.382,6.776 -0.686,4.655 -4.22,6.037 -3.389,16.32 C 9.26,-11.806 4.224,-9.41 5.449,-0.03 M -5.638,21.504 22.816,-40.488 c 0,0 0.49,-1.186 1.281,-0.859 0.79,0.326 0.299,1.511 0.299,1.511 L 0.681,24.121"
       style="fill:#f6b40e;fill-opacity:1;fill-rule:nonzero;stroke:#85340a;stroke-width:1.112;stroke-linecap:butt;stroke-linejoin:miter;stroke-miterlimit:4;stroke-dasharray:none;stroke-opacity:1"
       transform="matrix(1.3333333,0,0,-1.3333333,503.97,363.75133)"
       clip-path="url(#clipPath4)" />
    <path
       id="path5"
       d="m 0,0 c -3.928,-8.578 -0.555,-15.588 -4.477,-23.075 -3.921,-7.49 -1.471,-13.657 -1.733,-17.092 -0.262,-3.437 -3.074,-4.391 -2.364,-5.189 0.712,-0.799 3.648,0.785 4.795,5.348 1.147,4.563 -1.589,7.193 3.114,16.374 4.702,9.183 0.966,13.323 5.688,21.52 M 3.02,22.023 5.585,-46.139 c 0,0 -0.001,-1.282 0.854,-1.283 0.855,0 0.854,1.282 0.854,1.282 l 2.566,68.163"
       style="fill:#f6b40e;fill-opacity:1;fill-rule:nonzero;stroke:#85340a;stroke-width:1.112;stroke-linecap:butt;stroke-linejoin:miter;stroke-miterlimit:4;stroke-dasharray:none;stroke-opacity:1"
       transform="matrix(1.3333333,0,0,-1.3333333,492.0788,362.6992)"
       clip-path="url(#clipPath6)" />
    <path
       id="path7"
       d="m 0,0 c -6.911,-6.421 -6.477,-14.188 -12.966,-19.605 -6.49,-5.418 -6.586,-12.054 -8.142,-15.127 -1.557,-3.075 -4.52,-2.88 -4.17,-3.89 0.352,-1.011 3.671,-0.671 6.477,3.106 2.805,3.777 1.284,7.253 9.143,13.937 7.858,6.684 5.991,11.938 13.49,17.705 m 7.387,23.066 -23.716,-63.955 c 0,0 -0.491,-1.184 0.299,-1.512 0.789,-0.329 1.28,0.857 1.28,0.857 l 28.455,61.993"
       style="fill:#f6b40e;fill-opacity:1;fill-rule:nonzero;stroke:#85340a;stroke-width:1.112;stroke-linecap:butt;stroke-linejoin:miter;stroke-miterlimit:4;stroke-dasharray:none;stroke-opacity:1"
       transform="matrix(1.3333333,0,0,-1.3333333,481.49413,357.1784)"
       clip-path="url(#clipPath8)" />
    <path
       id="path9"
       d="m 0,0 c -8.843,-3.287 -11.414,-10.63 -19.482,-13.15 -8.069,-2.524 -10.697,-8.618 -13.311,-10.861 -2.615,-2.245 -5.278,-0.93 -5.341,-1.998 -0.062,-1.068 3.134,-2.024 7.172,0.391 4.038,2.416 3.962,6.21 13.781,9.378 9.818,3.168 10.103,8.737 19.238,11.194 m 15.652,18.484 -46.384,-50.011 c 0,0 -0.908,-0.906 -0.304,-1.512 0.604,-0.604 1.511,0.303 1.511,0.303 L 22.544,8.603"
       style="fill:#f6b40e;fill-opacity:1;fill-rule:nonzero;stroke:#85340a;stroke-width:1.112;stroke-linecap:butt;stroke-linejoin:miter;stroke-miterlimit:4;stroke-dasharray:none;stroke-opacity:1"
       transform="matrix(1.3333333,0,0,-1.3333333,473.8288,348.026)"
       clip-path="url(#clipPath10)" />
    <path
       id="path11"
       d="M 0,0 19.487,-42.577 3.158,1.31 M 5.89,-23.663 c 0.454,-9.054 5.587,-13.063 4.579,-21.314 2.213,6.525 -3.123,11.583 -2.821,21.22"
       style="fill:#85340a;fill-opacity:1;fill-rule:nonzero;stroke:none"
       transform="matrix(1.3333333,0,0,-1.3333333,498.55987,334.32947)"
       clip-path="url(#clipPath12)" />
    <path
       id="path13"
       d="M 0,0 1.71,-46.793 3.418,0.002 m -7.032,-24.118 c -3.046,-8.538 0.163,-14.207 -3.926,-21.444 4.541,5.182 1.547,11.897 5.515,20.685"
       style="fill:#85340a;fill-opacity:1;fill-rule:nonzero;stroke:none"
       transform="matrix(1.3333333,0,0,-1.3333333,498.3392,333.4472)"
       clip-path="url(#clipPath14)" />
    <path
       id="path15"
       d="M 0,0 -16.327,-43.886 3.159,-1.307 m -15.726,-19.59 c -6.082,-6.722 -5.287,-13.187 -11.834,-18.309 6.179,3.049 5.982,10.399 13.011,16.999"
       style="fill:#85340a;fill-opacity:1;fill-rule:nonzero;stroke:none"
       transform="matrix(1.3333333,0,0,-1.3333333,498.47267,332.54813)"
       clip-path="url(#clipPath16)" />
    <path
       id="path17"
       d="M 0,0 -31.878,-34.297 2.419,-2.416 m -22.026,-12.081 c -8.192,-3.884 -9.931,-10.16 -17.94,-12.387 6.875,0.452 9.506,7.319 18.526,10.726"
       style="fill:#85340a;fill-opacity:1;fill-rule:nonzero;stroke:none"
       transform="matrix(1.3333333,0,0,-1.3333333,498.94013,331.76827)"
       clip-path="url(#clipPath18)" />
    <path
       id="path19"
       d="m 0,0 c -9.428,0.347 -14.613,-5.453 -23.032,-4.694 -8.42,0.756 -13.18,-3.868 -16.454,-4.94 -3.274,-1.073 -5.232,1.159 -5.698,0.197 -0.466,-0.962 2.121,-3.069 6.775,-2.382 4.655,0.686 6.037,4.22 16.32,3.389 10.283,-0.83 12.678,4.206 22.058,2.981 M 21.503,5.638 -40.489,-22.816 c 0,0 -1.185,-0.49 -0.859,-1.281 0.327,-0.79 1.512,-0.299 1.512,-0.299 L 24.12,-0.681"
       style="fill:#f6b40e;fill-opacity:1;fill-rule:nonzero;stroke:#85340a;stroke-width:1.112;stroke-linecap:butt;stroke-linejoin:miter;stroke-miterlimit:4;stroke-dasharray:none;stroke-opacity:1"
       transform="matrix(1.3333333,0,0,-1.3333333,470.24933,336.63667)"
       clip-path="url(#clipPath20)" />
    <path
       id="path21"
       d="m 0,0 c -8.577,3.928 -15.587,0.555 -23.075,4.477 -7.489,3.921 -13.657,1.471 -17.092,1.733 -3.436,0.262 -4.39,3.074 -5.188,2.364 -0.8,-0.712 0.784,-3.648 5.347,-4.795 4.564,-1.147 7.193,1.589 16.375,-3.114 9.183,-4.702 13.322,-0.966 21.52,-5.688 m 24.137,2.003 -68.162,-2.565 c 0,0 -1.282,0.001 -1.283,-0.854 -10e-4,-0.855 1.282,-0.854 1.282,-0.854 l 68.163,-2.566"
       style="fill:#f6b40e;fill-opacity:1;fill-rule:nonzero;stroke:#85340a;stroke-width:1.112;stroke-linecap:butt;stroke-linejoin:miter;stroke-miterlimit:4;stroke-dasharray:none;stroke-opacity:1"
       transform="matrix(1.3333333,0,0,-1.3333333,471.30013,324.74547)"
       clip-path="url(#clipPath22)" />
    <path
       id="path23"
       d="m 0,0 c -6.421,6.911 -14.188,6.477 -19.605,12.966 -5.419,6.49 -12.055,6.586 -15.128,8.142 -3.074,1.557 -2.88,4.52 -3.889,4.17 -1.011,-0.352 -0.671,-3.671 3.105,-6.477 3.778,-2.805 7.253,-1.284 13.937,-9.143 6.685,-7.858 11.939,-5.991 17.705,-13.49 m 23.067,-7.387 -63.956,23.716 c 0,0 -1.184,0.491 -1.512,-0.299 -0.328,-0.789 0.858,-1.28 0.858,-1.28 l 61.993,-28.455"
       style="fill:#f6b40e;fill-opacity:1;fill-rule:nonzero;stroke:#85340a;stroke-width:1.112;stroke-linecap:butt;stroke-linejoin:miter;stroke-miterlimit:4;stroke-dasharray:none;stroke-opacity:1"
       transform="matrix(1.3333333,0,0,-1.3333333,476.82227,314.1608)"
       clip-path="url(#clipPath24)" />
    <path
       id="path25"
       d="m 0,0 c -3.288,8.843 -10.629,11.414 -13.151,19.482 -2.523,8.069 -8.617,10.697 -10.86,13.311 -2.245,2.615 -0.931,5.278 -1.998,5.341 -1.068,0.062 -2.025,-3.134 0.391,-7.172 2.416,-4.038 6.21,-3.962 9.377,-13.781 3.169,-9.818 8.738,-10.103 11.195,-19.238 m 18.484,-15.652 -50.012,46.384 c 0,0 -0.905,0.908 -1.511,0.304 -0.605,-0.604 0.303,-1.511 0.303,-1.511 L 8.602,-22.544"
       style="fill:#f6b40e;fill-opacity:1;fill-rule:nonzero;stroke:#85340a;stroke-width:1.112;stroke-linecap:butt;stroke-linejoin:miter;stroke-miterlimit:4;stroke-dasharray:none;stroke-opacity:1"
       transform="matrix(1.3333333,0,0,-1.3333333,485.974,306.49547)"
       clip-path="url(#clipPath26)" />
    <path
       id="path27"
       d="M 0,0 -42.577,-19.487 1.31,-3.158 M -23.663,-5.89 c -9.054,-0.454 -13.063,-5.587 -21.314,-4.579 6.525,-2.213 11.583,3.123 21.22,2.821"
       style="fill:#85340a;fill-opacity:1;fill-rule:nonzero;stroke:none"
       transform="matrix(1.3333333,0,0,-1.3333333,499.67053,331.22653)"
       clip-path="url(#clipPath28)" />
    <path
       id="path29"
       d="M 0,0 -46.793,-1.71 0.002,-3.418 M -24.116,3.614 C -32.654,6.66 -38.322,3.451 -45.56,7.54 -40.378,2.999 -33.663,5.993 -24.875,2.025"
       style="fill:#85340a;fill-opacity:1;fill-rule:nonzero;stroke:none"
       transform="matrix(1.3333333,0,0,-1.3333333,500.5528,331.00587)"
       clip-path="url(#clipPath30)" />
    <path
       id="path31"
       d="M 0,0 -43.886,16.327 -1.307,-3.159 m -19.59,15.726 c -6.723,6.082 -13.187,5.287 -18.309,11.834 3.049,-6.179 10.399,-5.982 16.999,-13.011"
       style="fill:#85340a;fill-opacity:1;fill-rule:nonzero;stroke:none"
       transform="matrix(1.3333333,0,0,-1.3333333,501.45187,331.13933)"
       clip-path="url(#clipPath32)" />
    <path
       id="path33"
       d="M 0,0 -34.297,31.878 -2.416,-2.419 m -12.081,22.026 c -3.884,8.192 -10.161,9.931 -12.387,17.94 0.452,-6.875 7.319,-9.506 10.726,-18.526"
       style="fill:#85340a;fill-opacity:1;fill-rule:nonzero;stroke:none"
       transform="matrix(1.3333333,0,0,-1.3333333,502.23173,331.6068)"
       clip-path="url(#clipPath34)" />
    <path
       id="path35"
       d="m 0,0 c 0.347,9.428 -5.453,14.613 -4.694,23.032 0.757,8.42 -3.868,13.18 -4.94,16.454 -1.073,3.274 1.16,5.232 0.198,5.698 -0.963,0.466 -3.07,-2.121 -2.383,-6.775 0.687,-4.655 4.22,-6.037 3.39,-16.32 -0.83,-10.283 4.206,-12.678 2.98,-22.058 M 5.638,-21.503 -22.816,40.489 c 0,0 -0.49,1.185 -1.28,0.859 -0.79,-0.327 -0.299,-1.512 -0.299,-1.512 L -0.68,-24.12"
       style="fill:#f6b40e;fill-opacity:1;fill-rule:nonzero;stroke:#85340a;stroke-width:1.112;stroke-linecap:butt;stroke-linejoin:miter;stroke-miterlimit:4;stroke-dasharray:none;stroke-opacity:1"
       transform="matrix(1.3333333,0,0,-1.3333333,497.36267,302.916)"
       clip-path="url(#clipPath36)" />
    <path
       id="path37"
       d="m 0,0 c 3.928,8.577 0.554,15.587 4.477,23.075 3.921,7.489 1.47,13.657 1.733,17.092 0.261,3.436 3.073,4.39 2.363,5.188 C 7.861,46.155 4.925,44.571 3.778,40.008 2.632,35.444 5.367,32.815 0.665,23.633 -4.037,14.45 -0.301,10.311 -5.023,2.113 m 2.002,-24.137 -2.564,68.162 c 0,0 0.001,1.282 -0.854,1.283 -0.855,10e-4 -0.855,-1.282 -0.855,-1.282 l -2.565,-68.163"
       style="fill:#f6b40e;fill-opacity:1;fill-rule:nonzero;stroke:#85340a;stroke-width:1.112;stroke-linecap:butt;stroke-linejoin:miter;stroke-miterlimit:4;stroke-dasharray:none;stroke-opacity:1"
       transform="matrix(1.3333333,0,0,-1.3333333,509.2552,303.9668)"
       clip-path="url(#clipPath38)" />
    <path
       id="path39"
       d="m 0,0 c 6.912,6.421 6.478,14.188 12.967,19.605 6.489,5.419 6.585,12.055 8.142,15.128 1.556,3.074 4.52,2.88 4.169,3.889 -0.351,1.011 -3.671,0.671 -6.476,-3.105 C 15.996,31.739 17.518,28.264 9.659,21.58 1.801,14.895 3.668,9.641 -3.831,3.875 m -7.387,-23.067 23.715,63.956 c 0,0 0.491,1.184 -0.298,1.512 -0.79,0.328 -1.28,-0.858 -1.28,-0.858 l -28.455,-61.993"
       style="fill:#f6b40e;fill-opacity:1;fill-rule:nonzero;stroke:#85340a;stroke-width:1.112;stroke-linecap:butt;stroke-linejoin:miter;stroke-miterlimit:4;stroke-dasharray:none;stroke-opacity:1"
       transform="matrix(1.3333333,0,0,-1.3333333,519.83853,309.48893)"
       clip-path="url(#clipPath40)" />
    <path
       id="path41"
       d="m 0,0 c 8.843,3.288 11.414,10.629 19.482,13.151 8.07,2.523 10.698,8.617 13.312,10.86 2.614,2.245 5.278,0.931 5.34,1.998 C 38.196,27.077 35,28.034 30.962,25.618 26.925,23.202 27,19.408 17.182,16.241 7.364,13.072 7.078,7.503 -2.057,5.046 m -15.651,-18.484 46.384,50.012 c 0,0 0.907,0.905 0.303,1.511 -0.604,0.605 -1.51,-0.303 -1.51,-0.303 L -22.544,-8.602"
       style="fill:#f6b40e;fill-opacity:1;fill-rule:nonzero;stroke:#85340a;stroke-width:1.112;stroke-linecap:butt;stroke-linejoin:miter;stroke-miterlimit:4;stroke-dasharray:none;stroke-opacity:1"
       transform="matrix(1.3333333,0,0,-1.3333333,527.50387,318.64067)"
       clip-path="url(#clipPath42)" />
    <path
       id="path43"
       d="M 0,0 -19.487,42.577 -3.158,-1.31 M -5.89,23.663 c -0.453,9.054 -5.587,13.063 -4.579,21.314 -2.213,-6.525 3.123,-11.583 2.82,-21.22"
       style="fill:#85340a;fill-opacity:1;fill-rule:nonzero;stroke:none"
       transform="matrix(1.3333333,0,0,-1.3333333,502.77347,332.3372)"
       clip-path="url(#clipPath44)" />
    <path
       id="path45"
       d="M 0,0 -1.71,46.793 -3.418,-0.002 M 3.614,24.116 C 6.66,32.654 3.452,38.322 7.541,45.56 2.999,40.378 5.993,33.663 2.025,24.875"
       style="fill:#85340a;fill-opacity:1;fill-rule:nonzero;stroke:none"
       transform="matrix(1.3333333,0,0,-1.3333333,502.99347,333.21947)"
       clip-path="url(#clipPath46)" />
    <path
       id="path47"
       d="M 0,0 16.327,43.886 -3.159,1.307 m 15.726,19.59 c 6.081,6.723 5.287,13.187 11.834,18.309 -6.178,-3.049 -5.982,-10.399 -13.01,-16.999"
       style="fill:#85340a;fill-opacity:1;fill-rule:nonzero;stroke:none"
       transform="matrix(1.3333333,0,0,-1.3333333,502.86067,334.11853)"
       clip-path="url(#clipPath48)" />
    <path
       id="path49"
       d="M 0,0 31.879,34.297 -2.419,2.416 m 22.026,12.081 c 8.192,3.884 9.931,10.161 17.94,12.387 -6.875,-0.452 -9.506,-7.319 -18.526,-10.726"
       style="fill:#85340a;fill-opacity:1;fill-rule:nonzero;stroke:none"
       transform="matrix(1.3333333,0,0,-1.3333333,502.3932,334.8984)"
       clip-path="url(#clipPath50)" />
    <path
       id="path51"
       d="m 0,0 c 9.428,-0.347 14.612,5.453 23.031,4.694 8.42,-0.757 13.181,3.868 16.454,4.94 3.275,1.073 5.233,-1.16 5.699,-0.198 0.466,0.963 -2.121,3.07 -6.776,2.383 C 33.753,11.132 32.371,7.599 22.088,8.429 11.806,9.259 9.41,4.223 0.03,5.449 M -21.504,-5.638 40.488,22.816 c 0,0 1.186,0.49 0.859,1.28 -0.326,0.79 -1.511,0.299 -1.511,0.299 L -24.121,0.68"
       style="fill:#f6b40e;fill-opacity:1;fill-rule:nonzero;stroke:#85340a;stroke-width:1.112;stroke-linecap:butt;stroke-linejoin:miter;stroke-miterlimit:4;stroke-dasharray:none;stroke-opacity:1"
       transform="matrix(1.3333333,0,0,-1.3333333,531.08467,330.02933)"
       clip-path="url(#clipPath52)" />
    <path
       id="path53"
       d="m 0,0 c 8.578,-3.928 15.588,-0.554 23.075,-4.477 7.49,-3.921 13.657,-1.47 17.092,-1.733 3.437,-0.261 4.391,-3.073 5.189,-2.363 0.799,0.712 -0.785,3.648 -5.348,4.795 -4.563,1.146 -7.193,-1.589 -16.374,3.113 C 14.451,4.037 10.311,0.301 2.114,5.023 M -22.023,3.021 46.139,5.585 c 0,0 1.282,-0.001 1.283,0.854 0,0.855 -1.282,0.855 -1.282,0.855 l -68.163,2.565"
       style="fill:#f6b40e;fill-opacity:1;fill-rule:nonzero;stroke:#85340a;stroke-width:1.112;stroke-linecap:butt;stroke-linejoin:miter;stroke-miterlimit:4;stroke-dasharray:none;stroke-opacity:1"
       transform="matrix(1.3333333,0,0,-1.3333333,530.03253,341.92187)"
       clip-path="url(#clipPath54)" />
    <path
       id="path55"
       d="m 0,0 c 6.421,-6.912 14.188,-6.478 19.605,-12.967 5.418,-6.489 12.054,-6.585 15.127,-8.142 3.075,-1.556 2.88,-4.52 3.89,-4.169 1.011,0.351 0.671,3.671 -3.106,6.476 -3.777,2.806 -7.253,1.284 -13.937,9.143 -6.684,7.858 -11.938,5.991 -17.705,13.49 m -23.066,7.387 63.955,-23.715 c 0,0 1.184,-0.491 1.512,0.298 0.329,0.79 -0.857,1.28 -0.857,1.28 l -61.993,28.455"
       style="fill:#f6b40e;fill-opacity:1;fill-rule:nonzero;stroke:#85340a;stroke-width:1.112;stroke-linecap:butt;stroke-linejoin:miter;stroke-miterlimit:4;stroke-dasharray:none;stroke-opacity:1"
       transform="matrix(1.3333333,0,0,-1.3333333,524.51173,352.5052)"
       clip-path="url(#clipPath56)" />
    <path
       id="path57"
       d="m 0,0 c 3.287,-8.843 10.63,-11.414 13.15,-19.482 2.524,-8.07 8.618,-10.698 10.861,-13.312 2.245,-2.614 0.93,-5.278 1.998,-5.34 1.068,-0.062 2.024,3.134 -0.391,7.172 -2.416,4.037 -6.21,3.962 -9.378,13.78 C 13.072,-7.364 7.503,-7.078 5.046,2.057 m -18.484,15.651 50.011,-46.384 c 0,0 0.906,-0.907 1.512,-0.303 0.604,0.604 -0.303,1.51 -0.303,1.51 L -8.603,22.544"
       style="fill:#f6b40e;fill-opacity:1;fill-rule:nonzero;stroke:#85340a;stroke-width:1.112;stroke-linecap:butt;stroke-linejoin:miter;stroke-miterlimit:4;stroke-dasharray:none;stroke-opacity:1"
       transform="matrix(1.3333333,0,0,-1.3333333,515.35933,360.17053)"
       clip-path="url(#clipPath58)" />
    <path
       id="path59"
       d="M 0,0 42.577,19.487 -1.31,3.158 M 23.663,5.89 c 9.054,0.453 13.063,5.587 21.314,4.579 -6.525,2.213 -11.583,-3.123 -21.22,-2.82"
       style="fill:#85340a;fill-opacity:1;fill-rule:nonzero;stroke:none"
       transform="matrix(1.3333333,0,0,-1.3333333,501.6628,335.44013)"
       clip-path="url(#clipPath60)" />
    <path
       id="path61"
       d="M 0,0 46.793,1.709 -0.002,3.418 m 24.117,-7.032 c 8.538,-3.046 14.207,0.162 21.445,-3.927 -5.182,4.542 -11.898,1.548 -20.685,5.516"
       style="fill:#85340a;fill-opacity:1;fill-rule:nonzero;stroke:none"
       transform="matrix(1.3333333,0,0,-1.3333333,500.7812,335.66013)"
       clip-path="url(#clipPath62)" />
    <path
       id="path63"
       d="M 0,0 43.886,-16.327 1.307,3.159 m 19.59,-15.726 c 6.722,-6.081 13.187,-5.287 18.309,-11.834 -3.049,6.178 -10.399,5.982 -16.999,13.01"
       style="fill:#85340a;fill-opacity:1;fill-rule:nonzero;stroke:none"
       transform="matrix(1.3333333,0,0,-1.3333333,499.88147,335.52733)"
       clip-path="url(#clipPath64)" />
    <path
       id="path65"
       d="M 0,0 34.297,-31.879 2.416,2.419 m 12.081,-22.026 c 3.884,-8.192 10.16,-9.931 12.387,-17.94 -0.452,6.875 -7.319,9.506 -10.726,18.526"
       style="fill:#85340a;fill-opacity:1;fill-rule:nonzero;stroke:none"
       transform="matrix(1.3333333,0,0,-1.3333333,499.1016,335.05987)"
       clip-path="url(#clipPath66)" />
    <path
       id="path67"
       d="M 0,0 C 15.342,0 27.778,-12.437 27.778,-27.778 27.778,-43.12 15.342,-55.556 0,-55.556 c -15.341,0 -27.778,12.436 -27.778,27.778 C -27.778,-12.437 -15.341,0 0,0"
       style="fill:#f6b40e;fill-opacity:1;fill-rule:nonzero;stroke:#85340a;stroke-width:1.5;stroke-linecap:butt;stroke-linejoin:miter;stroke-miterlimit:4;stroke-dasharray:none;stroke-opacity:1"
       transform="matrix(1.3333333,0,0,-1.3333333,500.66667,296.29627)"
       clip-path="url(#clipPath68)" />
    <path
       id="path69"
       d="M 0,0 C 1.847,0.034 3.572,-0.814 3.813,-1.656 1.676,-4.006 -1.738,-3.802 -3.875,-2.094 -2.939,-0.598 -1.436,-0.026 0,0 m 0.031,0.437 c -1.896,0 -3.713,-0.821 -4.781,-2.531 2.137,-1.922 6.856,-2.132 10.062,0.219 -1.388,1.496 -3.384,2.312 -5.281,2.312"
       style="fill:#843511;fill-opacity:1;fill-rule:nonzero;stroke:none"
       transform="matrix(1.3333333,0,0,-1.3333333,513.25133,325.9968)"
       clip-path="url(#clipPath70)" />
    <path
       id="path71"
       d="m 0,0 c -2.776,0 -3.419,-0.642 -4.701,-1.71 -1.283,-1.068 -1.923,-0.854 -2.137,-1.068 -0.212,-0.214 0,-0.854 0.427,-0.64 0.427,0.214 1.283,0.64 2.563,1.709 1.284,1.069 2.564,1.068 3.847,1.068 3.846,0 5.982,-3.205 6.409,-2.991 0.427,0.215 -2.137,3.633 -6.409,3.633 z"
       style="fill:#85340a;fill-opacity:1;fill-rule:nonzero;stroke:none"
       transform="matrix(1.3333333,0,0,-1.3333333,513.77347,323.6536)"
       clip-path="url(#clipPath72)" />
    <path
       id="path73"
       d="m 0,0 c -4.914,4.273 -11.109,4.915 -14.529,1.708 -0.837,-1.12 -1.373,-2.318 -1.594,-3.569 -0.43,-2.433 0.33,-5.062 2.236,-7.756 -0.215,0.001 -0.642,-0.213 -0.856,-0.426 -1.696,3.244 -2.297,6.576 -1.74,9.745 0.146,0.828 0.374,1.643 0.67,2.436 4.701,3.845 11.11,4.273 15.81,-2.138 z"
       style="fill:#85340a;fill-opacity:1;fill-rule:nonzero;stroke:none"
       transform="matrix(1.3333333,0,0,-1.3333333,524.026,325.36)"
       clip-path="url(#clipPath74)" />
    <path
       id="path75"
       d="m 0,0 c 1.062,0 1.923,-0.861 1.923,-1.923 0,-1.062 -0.861,-1.923 -1.923,-1.923 -1.062,0 -1.924,0.861 -1.924,1.923 C -1.924,-0.861 -1.062,0 0,0"
       style="fill:#85340a;fill-opacity:1;fill-rule:nonzero;stroke:none"
       transform="matrix(1.3333333,0,0,-1.3333333,513.20307,325.63613)"
       clip-path="url(#clipPath76)" />
    <path
       id="path77"
       d="m 0,0 c -3.633,-2.778 -7.265,-2.564 -9.401,-1.282 -2.137,1.282 -2.137,1.709 -1.71,1.709 0.426,0 0.852,-0.427 2.562,-1.281 1.71,-0.856 4.274,-0.856 8.547,0.854 z"
       style="fill:#85340a;fill-opacity:1;fill-rule:nonzero;stroke:none"
       transform="matrix(1.3333333,0,0,-1.3333333,520.61333,329.91987)"
       clip-path="url(#clipPath78)" />
    <path
       id="path79"
       d="m 0,0 c -0.914,-0.167 -1.562,-0.978 -1.562,-1.906 0,-1.062 0.877,-1.907 1.937,-1.907 0.626,0 1.203,0.297 1.562,0.813 0.74,-0.557 1.765,-0.615 2.313,-0.625 0.084,-0.002 0.193,0 0.25,0 0.548,0.01 1.573,0.068 2.312,0.625 0.361,-0.516 0.936,-0.813 1.563,-0.813 1.06,0 1.938,0.845 1.938,1.907 0,0.928 -0.65,1.739 -1.563,1.906 C 9.263,-0.181 9.594,-0.677 9.594,-1.219 9.594,-1.927 9.022,-2.5 8.313,-2.5 7.632,-2.5 7.071,-1.96 7.031,-1.281 6.822,-1.697 5.997,-2.937 4.375,-3 2.753,-2.937 1.928,-1.697 1.719,-1.281 1.679,-1.96 1.118,-2.5 0.438,-2.5 c -0.71,0 -1.281,0.573 -1.281,1.281 0,0.542 0.33,1.037 0.843,1.219 z"
       style="fill:#85340a;fill-opacity:1;fill-rule:nonzero;stroke:none"
       transform="matrix(1.3333333,0,0,-1.3333333,495,338.45307)"
       clip-path="url(#clipPath80)" />
    <path
       id="path81"
       d="m 0,0 c -2.138,0 -2.983,-1.937 -4.906,-3.219 1.069,0.427 1.909,1.27 3.406,2.125 1.496,0.855 2.772,-0.187 3.625,-0.187 h 0.031 c 0.854,0 2.129,1.042 3.625,0.187 C 7.278,-1.949 8.15,-2.792 9.219,-3.219 7.296,-1.937 6.419,0 4.281,0 3.854,0 3.01,-0.23 2.156,-0.656 H 2.125 C 1.272,-0.229 0.427,0 0,0"
       style="fill:#85340a;fill-opacity:1;fill-rule:nonzero;stroke:none"
       transform="matrix(1.3333333,0,0,-1.3333333,497.7864,346.0404)"
       clip-path="url(#clipPath82)" />
    <path
       id="path83"
       d="m 0,0 c -0.844,-0.038 -1.96,-0.207 -3.563,-0.687 3.848,0.853 4.697,-0.438 6.407,-0.438 h 0.031 c 1.71,0 2.559,1.292 6.406,0.438 C 5.007,0.594 4.157,-0.25 2.875,-0.25 H 2.844 C 2.042,-0.25 1.406,0.062 0,0"
       style="fill:#85340a;fill-opacity:1;fill-rule:nonzero;stroke:none"
       transform="matrix(1.3333333,0,0,-1.3333333,496.8268,349.4128)"
       clip-path="url(#clipPath84)" />
    <path
       id="path85"
       d="m 0,0 c -0.248,-0.003 -0.519,-0.005 -0.812,-0.031 4.487,-0.428 2.33,-3 7.031,-3 H 6.25 c 4.7,0 2.574,2.572 7.063,3 C 8.611,0.396 10.098,-2.375 6.25,-2.375 H 6.219 C 2.611,-2.375 3.723,0.046 0,0"
       style="fill:#85340a;fill-opacity:1;fill-rule:nonzero;stroke:none"
       transform="matrix(1.3333333,0,0,-1.3333333,492.33333,350.29293)"
       clip-path="url(#clipPath86)" />
    <path
       id="path87"
       d="M 0,0 C 0,2.124 -1.723,3.847 -3.846,3.847 -5.969,3.847 -7.692,2.124 -7.692,0 -7.269,1.781 -5.676,3.039 -3.846,3.039 -2.013,3.039 -0.422,1.781 0,0"
       style="fill:#85340a;fill-opacity:1;fill-rule:nonzero;stroke:none"
       transform="matrix(1.3333333,0,0,-1.3333333,505.79947,359.54693)"
       clip-path="url(#clipPath88)" />
    <path
       id="path89"
       d="m 0,0 c 4.915,4.273 11.11,4.915 14.53,1.708 0.837,-1.12 1.373,-2.318 1.594,-3.569 0.43,-2.433 -0.331,-5.062 -2.237,-7.756 0.215,0.001 0.643,-0.213 0.857,-0.426 1.696,3.244 2.296,6.576 1.739,9.745 C 16.338,0.53 16.11,1.345 15.814,2.138 11.113,5.983 4.704,6.411 0.003,0 Z"
       style="fill:#85340a;fill-opacity:1;fill-rule:nonzero;stroke:none"
       transform="matrix(1.3333333,0,0,-1.3333333,477.64,325.36)"
       clip-path="url(#clipPath90)" />
    <path
       id="path91"
       d="m 0,0 c 2.777,0 3.419,-0.642 4.701,-1.71 1.283,-1.068 1.923,-0.854 2.136,-1.068 0.213,-0.214 0,-0.854 -0.426,-0.64 -0.427,0.214 -1.284,0.64 -2.563,1.709 -1.284,1.069 -2.564,1.068 -3.847,1.068 -3.846,0 -5.983,-3.205 -6.409,-2.991 -0.427,0.215 2.137,3.633 6.409,3.633 z"
       style="fill:#85340a;fill-opacity:1;fill-rule:nonzero;stroke:none"
       transform="matrix(1.3333333,0,0,-1.3333333,487.8932,323.6536)"
       clip-path="url(#clipPath92)" />
    <path
       id="path93"
       d="M 0,0 C 1.846,0.034 3.572,-0.814 3.813,-1.656 1.676,-4.006 -1.738,-3.802 -3.875,-2.094 -2.94,-0.598 -1.436,-0.026 0,0 m 0.031,0.437 c -1.897,0 -3.713,-0.821 -4.781,-2.531 2.137,-1.922 6.856,-2.132 10.062,0.219 -1.388,1.496 -3.384,2.312 -5.281,2.312 z"
       style="fill:#843511;fill-opacity:1;fill-rule:nonzero;stroke:none"
       transform="matrix(1.3333333,0,0,-1.3333333,487.67707,325.9968)"
       clip-path="url(#clipPath94)" />
    <path
       id="path95"
       d="m 0,0 c 1.062,0 1.923,-0.861 1.923,-1.923 0,-1.062 -0.861,-1.923 -1.923,-1.923 -1.062,0 -1.923,0.861 -1.923,1.923 C -1.923,-0.861 -1.062,0 0,0"
       style="fill:#85340a;fill-opacity:1;fill-rule:nonzero;stroke:none"
       transform="matrix(1.3333333,0,0,-1.3333333,488.05333,325.63613)"
       clip-path="url(#clipPath96)" />
    <path
       id="path97"
       d="M 0,0 C 3.633,-2.778 7.265,-2.564 9.402,-1.282 11.539,0 11.539,0.427 11.112,0.427 10.685,0.427 10.258,0 8.548,-0.854 6.838,-1.71 4.275,-1.71 0.002,0 Z"
       style="fill:#85340a;fill-opacity:1;fill-rule:nonzero;stroke:none"
       transform="matrix(1.3333333,0,0,-1.3333333,481.05333,329.91987)"
       clip-path="url(#clipPath98)" />
  </g>
</svg>
