<?xml version="1.0" encoding="UTF-8" standalone="no"?>
<!-- Created with Inkscape (http://www.inkscape.org/) -->

<svg
   version="1.1"
   id="svg1"
   width="800"
   height="533.33331"
   viewBox="0 0 800 533.33331"
   sodipodi:docname="tf.ai"
   xmlns:inkscape="http://www.inkscape.org/namespaces/inkscape"
   xmlns:sodipodi="http://sodipodi.sourceforge.net/DTD/sodipodi-0.dtd"
   xmlns="http://www.w3.org/2000/svg"
   xmlns:svg="http://www.w3.org/2000/svg">
  <defs
     id="defs1" />
  <sodipodi:namedview
     id="namedview1"
     pagecolor="#ffffff"
     bordercolor="#000000"
     borderopacity="0.25"
     inkscape:showpageshadow="2"
     inkscape:pageopacity="0.0"
     inkscape:pagecheckerboard="0"
     inkscape:deskcolor="#d1d1d1">
    <inkscape:page
       x="0"
       y="0"
       inkscape:label="1"
       id="page1"
       width="800"
       height="533.33331"
       margin="0"
       bleed="0" />
  </sodipodi:namedview>
  <g
     id="layer-MC0"
     inkscape:groupmode="layer"
     inkscape:label="Layer 1">
    <path
       id="path1"
       d="M 0,0 H 600 V 400 H 0 Z"
       style="fill:#002395;fill-opacity:1;fill-rule:nonzero;stroke:none"
       transform="matrix(1.3333333,0,0,-1.3333333,0,533.33333)" />
    <path
       id="path2"
       d="M 0,236 H 244 V 400 H 0 Z"
       style="fill:#ffffff;fill-opacity:1;fill-rule:nonzero;stroke:none"
       transform="matrix(1.3333333,0,0,-1.3333333,0,533.33333)" />
    <path
       id="path3"
       d="M 0,240 H 80 V 399.999 H 0 Z"
       style="fill:#002395;fill-opacity:1;fill-rule:nonzero;stroke:none"
       transform="matrix(1.3333333,0,0,-1.3333333,0,533.33333)" />
    <path
       id="path4"
       d="m 160,240 h 80 v 159.999 h -80 z"
       style="fill:#ed2939;fill-opacity:1;fill-rule:nonzero;stroke:none"
       transform="matrix(1.3333333,0,0,-1.3333333,0,533.33333)" />
    <path
       id="path5"
       d="m 474,129.5 h -40 v -14 h 40 z m -76,0 h -40 v -14 h 40 z M 355,217 367.875,196.5 H 404.5 V 125 L 377,168 340,109 h 18 l 19,34 39,-70 39,70 19,-34 h 18 l -37,59 -27.5,-43 v 39.5 H 444 L 456.25,184 H 427.5 v 12.5 h 36.625 L 477,217 Z"
       style="fill:#ffffff;fill-opacity:1;fill-rule:nonzero;stroke:none"
       transform="matrix(1.3333333,0,0,-1.3333333,0,533.33333)" />
    <path
       id="path6"
       d="M 0,0 12.344,8.968 H -2.914 L -7.629,23.479 -12.344,8.968 H -27.602 L -15.258,0 l -4.715,-14.511 12.344,8.968 12.344,-8.968 z"
       style="fill:#ffffff;fill-opacity:1;fill-rule:nonzero;stroke:none"
       transform="matrix(1.3333333,0,0,-1.3333333,564.83853,485.97133)" />
    <path
       id="path7"
       d="M 0,0 12.344,8.968 H -2.914 L -7.629,23.479 -12.344,8.968 H -27.602 L -15.258,0 l -4.715,-14.511 12.344,8.968 12.344,-8.968 z"
       style="fill:#ffffff;fill-opacity:1;fill-rule:nonzero;stroke:none"
       transform="matrix(1.3333333,0,0,-1.3333333,504.83853,440.638)" />
    <path
       id="path8"
       d="m 0,0 12.344,-37.989 -32.317,23.478 h 39.946 l -32.317,-23.478 z"
       style="fill:#ffffff;fill-opacity:1;fill-rule:nonzero;stroke:none"
       transform="matrix(1.3333333,0,0,-1.3333333,614.66667,409.33333)" />
    <path
       id="path9"
       d="M 0,0 12.344,8.968 H -2.914 L -7.629,23.479 -12.344,8.968 H -27.602 L -15.258,0 l -4.715,-14.511 12.344,8.968 12.344,-8.968 z"
       style="fill:#ffffff;fill-opacity:1;fill-rule:nonzero;stroke:none"
       transform="matrix(1.3333333,0,0,-1.3333333,454.17187,305.97133)" />
    <path
       id="path10"
       d="M 0,0 12.344,8.968 H -2.914 L -7.629,23.479 -12.344,8.968 H -27.602 L -15.258,0 l -4.715,-14.511 12.344,8.968 12.344,-8.968 z"
       style="fill:#ffffff;fill-opacity:1;fill-rule:nonzero;stroke:none"
       transform="matrix(1.3333333,0,0,-1.3333333,675.5052,305.97133)" />
  </g>
</svg>
