<?xml version="1.0" encoding="UTF-8" standalone="no"?>
<!-- Created with Inkscape (http://www.inkscape.org/) -->

<svg
   version="1.1"
   id="svg1"
   width="920"
   height="613.33331"
   viewBox="0 0 920 613.33331"
   sodipodi:docname="ag.ai"
   xmlns:inkscape="http://www.inkscape.org/namespaces/inkscape"
   xmlns:sodipodi="http://sodipodi.sourceforge.net/DTD/sodipodi-0.dtd"
   xmlns="http://www.w3.org/2000/svg"
   xmlns:svg="http://www.w3.org/2000/svg">
  <defs
     id="defs1" />
  <sodipodi:namedview
     id="namedview1"
     pagecolor="#ffffff"
     bordercolor="#000000"
     borderopacity="0.25"
     inkscape:showpageshadow="2"
     inkscape:pageopacity="0.0"
     inkscape:pagecheckerboard="0"
     inkscape:deskcolor="#d1d1d1">
    <inkscape:page
       x="0"
       y="0"
       inkscape:label="1"
       id="page1"
       width="920"
       height="613.33331"
       margin="0"
       bleed="0" />
  </sodipodi:namedview>
  <g
     id="layer-MC0"
     inkscape:groupmode="layer"
     inkscape:label="Layer 1">
    <path
       id="path1"
       d="M 0,0 H 690 V 460 H 0 Z"
       style="fill:#ffffff;fill-opacity:1;fill-rule:nonzero;stroke:none"
       transform="matrix(1.3333333,0,0,-1.3333333,0,613.33333)" />
    <path
       id="path2"
       d="M 0,280 H 690 V 460 H 0 Z"
       style="fill:#000000;fill-opacity:1;fill-rule:nonzero;stroke:none"
       transform="matrix(1.3333333,0,0,-1.3333333,0,613.33333)" />
    <path
       id="path3"
       d="m 0,0 147.118,-29.264 7.316,36.78"
       style="fill:#fcd116;fill-opacity:1;fill-rule:nonzero;stroke:none"
       transform="matrix(1.3333333,0,0,-1.3333333,260,240)" />
    <path
       id="path4"
       d="m 0,0 147.118,29.264 7.316,-36.78"
       style="fill:#fcd116;fill-opacity:1;fill-rule:nonzero;stroke:none"
       transform="matrix(1.3333333,0,0,-1.3333333,260,240)" />
    <path
       id="path5"
       d="m 0,0 124.721,-83.335 20.834,31.18"
       style="fill:#fcd116;fill-opacity:1;fill-rule:nonzero;stroke:none"
       transform="matrix(1.3333333,0,0,-1.3333333,275.224,163.4636)" />
    <path
       id="path6"
       d="m 0,0 147.118,-29.263 -7.316,-36.78"
       style="fill:#fcd116;fill-opacity:1;fill-rule:nonzero;stroke:none"
       transform="matrix(1.3333333,0,0,-1.3333333,275.224,163.4636)" />
    <path
       id="path7"
       d="m 0,0 83.335,-124.72 31.18,20.834"
       style="fill:#fcd116;fill-opacity:1;fill-rule:nonzero;stroke:none"
       transform="matrix(1.3333333,0,0,-1.3333333,318.5788,98.5788)" />
    <path
       id="path8"
       d="m 0,0 124.72,-83.335 -20.834,-31.181"
       style="fill:#fcd116;fill-opacity:1;fill-rule:nonzero;stroke:none"
       transform="matrix(1.3333333,0,0,-1.3333333,318.5788,98.5788)" />
    <path
       id="path9"
       d="m 0,0 29.263,-147.118 36.78,7.316"
       style="fill:#fcd116;fill-opacity:1;fill-rule:nonzero;stroke:none"
       transform="matrix(1.3333333,0,0,-1.3333333,383.4636,55.224)" />
    <path
       id="path10"
       d="m 0,0 83.335,-124.721 -31.18,-20.833"
       style="fill:#fcd116;fill-opacity:1;fill-rule:nonzero;stroke:none"
       transform="matrix(1.3333333,0,0,-1.3333333,383.4636,55.224)" />
    <path
       id="path11"
       d="m 0,0 -29.264,-147.118 36.78,-7.316"
       style="fill:#fcd116;fill-opacity:1;fill-rule:nonzero;stroke:none"
       transform="matrix(1.3333333,0,0,-1.3333333,460,40)" />
    <path
       id="path12"
       d="m 0,0 29.264,-147.118 -36.78,-7.316"
       style="fill:#fcd116;fill-opacity:1;fill-rule:nonzero;stroke:none"
       transform="matrix(1.3333333,0,0,-1.3333333,460,40)" />
    <path
       id="path13"
       d="m 0,0 -83.335,-124.721 31.18,-20.833"
       style="fill:#fcd116;fill-opacity:1;fill-rule:nonzero;stroke:none"
       transform="matrix(1.3333333,0,0,-1.3333333,536.5364,55.224)" />
    <path
       id="path14"
       d="m 0,0 -29.264,-147.118 -36.779,7.316"
       style="fill:#fcd116;fill-opacity:1;fill-rule:nonzero;stroke:none"
       transform="matrix(1.3333333,0,0,-1.3333333,536.5364,55.224)" />
    <path
       id="path15"
       d="m 0,0 -124.721,-83.335 20.834,-31.181"
       style="fill:#fcd116;fill-opacity:1;fill-rule:nonzero;stroke:none"
       transform="matrix(1.3333333,0,0,-1.3333333,601.42187,98.5788)" />
    <path
       id="path16"
       d="m 0,0 -83.336,-124.72 -31.18,20.834"
       style="fill:#fcd116;fill-opacity:1;fill-rule:nonzero;stroke:none"
       transform="matrix(1.3333333,0,0,-1.3333333,601.42187,98.5788)" />
    <path
       id="path17"
       d="m 0,0 -147.118,-29.263 7.316,-36.78"
       style="fill:#fcd116;fill-opacity:1;fill-rule:nonzero;stroke:none"
       transform="matrix(1.3333333,0,0,-1.3333333,644.776,163.4636)" />
    <path
       id="path18"
       d="m 0,0 -124.721,-83.335 -20.833,31.18"
       style="fill:#fcd116;fill-opacity:1;fill-rule:nonzero;stroke:none"
       transform="matrix(1.3333333,0,0,-1.3333333,644.776,163.4636)" />
    <path
       id="path19"
       d="m 0,0 -147.118,29.264 -7.316,-36.78"
       style="fill:#fcd116;fill-opacity:1;fill-rule:nonzero;stroke:none"
       transform="matrix(1.3333333,0,0,-1.3333333,660,240)" />
    <path
       id="path20"
       d="m 0,0 -147.118,-29.264 -7.316,36.78"
       style="fill:#fcd116;fill-opacity:1;fill-rule:nonzero;stroke:none"
       transform="matrix(1.3333333,0,0,-1.3333333,660,240)" />
    <path
       id="path21"
       d="M 0,180 H 690 V 280 H 0 Z"
       style="fill:#0072c6;fill-opacity:1;fill-rule:nonzero;stroke:none"
       transform="matrix(1.3333333,0,0,-1.3333333,0,613.33333)" />
    <path
       id="path22"
       d="M 0,0 -345.001,-460 -690,0 V -460 H 0 Z"
       style="fill:#ce1126;fill-opacity:1;fill-rule:nonzero;stroke:none"
       transform="matrix(1.3333333,0,0,-1.3333333,920.0004,1.3333333e-4)" />
  </g>
</svg>
