<?xml version="1.0" encoding="UTF-8" standalone="no"?>
<!-- Created with Inkscape (http://www.inkscape.org/) -->

<svg
   version="1.1"
   id="svg1"
   width="1333.3333"
   height="888.88934"
   viewBox="0 0 1333.3333 888.88934"
   sodipodi:docname="au.ai"
   xmlns:inkscape="http://www.inkscape.org/namespaces/inkscape"
   xmlns:sodipodi="http://sodipodi.sourceforge.net/DTD/sodipodi-0.dtd"
   xmlns="http://www.w3.org/2000/svg"
   xmlns:svg="http://www.w3.org/2000/svg">
  <defs
     id="defs1" />
  <sodipodi:namedview
     id="namedview1"
     pagecolor="#ffffff"
     bordercolor="#000000"
     borderopacity="0.25"
     inkscape:showpageshadow="2"
     inkscape:pageopacity="0.0"
     inkscape:pagecheckerboard="0"
     inkscape:deskcolor="#d1d1d1">
    <inkscape:page
       x="0"
       y="0"
       inkscape:label="1"
       id="page1"
       width="1333.3333"
       height="888.88934"
       margin="0"
       bleed="0" />
  </sodipodi:namedview>
  <g
     id="layer-MC0"
     inkscape:groupmode="layer"
     inkscape:label="svg1">
    <path
       id="path1"
       d="M 0,0 H 1000 V 666.667 H 0 Z"
       style="fill:#00247d;fill-opacity:1;fill-rule:nonzero;stroke:none"
       transform="matrix(1.3333333,0,0,-1.3333333,0,888.88933)" />
    <path
       id="path2"
       d="m 0,0 -168.089,-112.059 48.411,-32.274 168.089,112.059 V 0 Z m -384.589,0 v -32.274 l 168.089,-112.059 48.411,32.274 L -336.178,0 Z m 0,-256.392 v -32.275 h 48.411 l 168.089,112.06 -48.411,32.274 z m 216.5,79.785 L 0,-288.667 h 48.411 v 32.274 l -168.089,112.06 z"
       style="fill:#ffffff;fill-opacity:1;fill-rule:nonzero;stroke:none"
       transform="matrix(1.3333333,0,0,-1.3333333,512.7852,1.3333333e-4)" />
    <path
       id="path3"
       d="m 0,0 v -96.223 h -180.417 v -96.221 H 0 v -96.223 h 72.166 v 96.223 h 180.417 v 96.221 H 72.166 V 0 Z"
       style="fill:#ffffff;fill-opacity:1;fill-rule:nonzero;stroke:none"
       transform="matrix(1.3333333,0,0,-1.3333333,240.5556,1.3333333e-4)" />
    <path
       id="path4"
       d="M 0,0 V -115.467 H -194.85 V -173.2 H 0 V -288.667 H 43.3 V -173.2 h 194.85 v 57.733 H 43.3 L 43.3,0 Z"
       style="fill:#cf142b;fill-opacity:1;fill-rule:nonzero;stroke:none"
       transform="matrix(1.3333333,0,0,-1.3333333,259.8,1.3333333e-4)" />
    <path
       id="path5"
       d="m 0,0 -144.334,-96.223 h 32.274 L 32.273,0 Z m -400.727,0 v -21.516 l 112.06,-74.707 h 32.274 z m 288.667,-192.444 144.333,-96.223 v 21.516 l -112.06,74.707 z m -144.333,0 -144.334,-96.223 h 32.274 l 144.333,96.223 z"
       style="fill:#cf142b;fill-opacity:1;fill-rule:nonzero;stroke:none"
       transform="matrix(1.3333333,0,0,-1.3333333,534.3024,1.3333333e-4)" />
    <path
       id="path6"
       d="m 0,0 17.575,-54.644 53.68,20.33 -31.765,-47.811 49.364,-29.294 -57.185,-4.975 7.874,-56.857 -39.543,41.606 -39.543,-41.606 7.875,56.857 -57.185,4.975 49.363,29.294 -31.764,47.811 53.679,-20.33 z"
       style="fill:#ffffff;fill-opacity:1;fill-rule:nonzero;stroke:none"
       transform="matrix(1.3333333,0,0,-1.3333333,287.9564,540.86507)" />
    <path
       id="path7"
       d="M 0,0 8.369,-26.021 33.932,-16.34 18.806,-39.106 42.312,-53.056 15.081,-55.425 18.831,-82.5 0,-62.688 -18.83,-82.5 l 3.75,27.075 -27.231,2.369 23.506,13.95 -15.126,22.766 25.563,-9.681 z"
       style="fill:#ffffff;fill-opacity:1;fill-rule:nonzero;stroke:none"
       transform="matrix(1.3333333,0,0,-1.3333333,979.40627,661.36107)" />
    <path
       id="path8"
       d="M 0,0 8.369,-26.021 33.931,-16.34 18.805,-39.107 42.312,-53.057 15.08,-55.426 18.83,-82.5 0,-62.688 -18.83,-82.5 l 3.75,27.074 -27.231,2.369 23.506,13.95 -15.126,22.767 25.562,-9.681 z"
       style="fill:#ffffff;fill-opacity:1;fill-rule:nonzero;stroke:none"
       transform="matrix(1.3333333,0,0,-1.3333333,776.8776,340.6892)" />
    <path
       id="path9"
       d="m 0,0 8.369,-26.021 25.563,9.681 -15.126,-22.767 23.506,-13.95 -27.231,-2.368 3.75,-27.076 L 0,-62.688 l -18.83,-19.813 3.75,27.076 -27.231,2.368 23.506,13.95 -15.126,22.767 25.563,-9.681 z"
       style="fill:#ffffff;fill-opacity:1;fill-rule:nonzero;stroke:none"
       transform="matrix(1.3333333,0,0,-1.3333333,979.40627,121.28227)" />
    <path
       id="path10"
       d="M 0,0 8.369,-26.021 33.932,-16.34 18.806,-39.107 42.312,-53.057 15.081,-55.426 18.831,-82.5 0,-62.688 -18.83,-82.5 l 3.75,27.074 -27.231,2.369 23.506,13.95 -15.126,22.767 25.563,-9.681 z"
       style="fill:#ffffff;fill-opacity:1;fill-rule:nonzero;stroke:none"
       transform="matrix(1.3333333,0,0,-1.3333333,1159.4323,286.68147)" />
    <path
       id="path11"
       d="m 0,0 6.614,-16.214 17.463,-1.279 -13.376,-11.3 4.18,-17.005 -14.881,9.23 -14.88,-9.23 4.18,17.005 -13.376,11.3 17.463,1.279 z"
       style="fill:#ffffff;fill-opacity:1;fill-rule:nonzero;stroke:none"
       transform="matrix(1.3333333,0,0,-1.3333333,1060.418,449.18667)" />
  </g>
</svg>
