<svg height="533.33331" viewBox="0 0 797.33331 533.33331" width="797.33331" xmlns="http://www.w3.org/2000/svg"><path d="m0 .667h598v398.667h-598z" fill="#002395" transform="matrix(1.3333333 0 0 -1.3333333 0 533.33333)"/><path d="m0 0 398.668-398.667h.667v398.667z" fill="#fecb00" transform="matrix(1.3333333 0 0 -1.3333333 180.7008 .888533)"/><g fill="#fff"><path d="m0 0-8.31-25.576 22.336 16.228 22.336-16.228-8.311 25.576z" transform="matrix(1.3333333 0 0 -1.3333333 65.1124 .888533)"/><path d="m0 0 22.336 68.743 22.336-68.743-58.476 42.485h72.28z" transform="matrix(1.3333333 0 0 -1.3333333 120.69853 101.65693)"/><path d="m0 0 22.336 68.743 22.336-68.743-58.476 42.485h72.28z" transform="matrix(1.3333333 0 0 -1.3333333 187.3652 168.3236)"/><path d="m0 0 22.336 68.743 22.336-68.743-58.476 42.485h72.28z" transform="matrix(1.3333333 0 0 -1.3333333 254.03187 234.99027)"/><path d="m0 0 22.336 68.742 22.336-68.742-58.476 42.485h72.28z" transform="matrix(1.3333333 0 0 -1.3333333 320.69853 301.65627)"/><path d="m0 0 22.336 68.742 22.336-68.742-58.476 42.484h72.281z" transform="matrix(1.3333333 0 0 -1.3333333 387.3652 368.32293)"/><path d="m0 0 22.336 68.742 22.336-68.742-58.477 42.484h72.282z" transform="matrix(1.3333333 0 0 -1.3333333 454.03187 434.9896)"/><path d="m0 0 22.336 68.742 22.336-68.742-58.477 42.484h72.282z" transform="matrix(1.3333333 0 0 -1.3333333 520.69853 501.65627)"/><path d="m0 0h-27.61l21.439-15.575h29.405l21.438 15.575h-27.609l-8.531 26.258z" transform="matrix(1.3333333 0 0 -1.3333333 605.77107 511.67693)"/></g></svg>