<?xml version="1.0" encoding="UTF-8" standalone="no"?>
<!-- Created with Inkscape (http://www.inkscape.org/) -->

<svg
   version="1.1"
   id="svg1"
   width="399.51199"
   height="266.34134"
   viewBox="0 0 399.51199 266.34134"
   sodipodi:docname="br.ai"
   xmlns:inkscape="http://www.inkscape.org/namespaces/inkscape"
   xmlns:sodipodi="http://sodipodi.sourceforge.net/DTD/sodipodi-0.dtd"
   xmlns="http://www.w3.org/2000/svg"
   xmlns:svg="http://www.w3.org/2000/svg">
  <defs
     id="defs1">
    <clipPath
       clipPathUnits="userSpaceOnUse"
       id="clipPath4">
      <path
         d="M 0,0 H 299.634 V 199.756 H 0 Z"
         transform="translate(-149.6343,-152.2855)"
         id="path4" />
    </clipPath>
    <clipPath
       clipPathUnits="userSpaceOnUse"
       id="clipPath6">
      <path
         d="m 97.134,99.786 c 0,-28.996 23.505,-52.501 52.5,-52.501 v 0 c 28.995,0 52.501,23.505 52.501,52.501 v 0 c 0,28.995 -23.506,52.499 -52.501,52.499 v 0 c -28.995,0 -52.5,-23.504 -52.5,-52.499"
         transform="translate(7.8657002,5.2145001)"
         id="path6" />
    </clipPath>
    <clipPath
       clipPathUnits="userSpaceOnUse"
       id="clipPath8">
      <path
         d="M 0,0 H 299.634 V 199.756 H 0 Z"
         transform="translate(-121.6177,-116.0404)"
         id="path8" />
    </clipPath>
    <clipPath
       clipPathUnits="userSpaceOnUse"
       id="clipPath10">
      <path
         d="M 0,0 H 299.634 V 199.756 H 0 Z"
         transform="translate(-127.96041,-115.7699)"
         id="path10" />
    </clipPath>
    <clipPath
       clipPathUnits="userSpaceOnUse"
       id="clipPath12">
      <path
         d="M 0,0 H 299.634 V 199.756 H 0 Z"
         transform="translate(-138.3198,-114.602)"
         id="path12" />
    </clipPath>
    <clipPath
       clipPathUnits="userSpaceOnUse"
       id="clipPath14">
      <path
         d="M 0,0 H 299.634 V 199.756 H 0 Z"
         transform="translate(-169.3071,-108.12931)"
         id="path14" />
    </clipPath>
    <clipPath
       clipPathUnits="userSpaceOnUse"
       id="clipPath16">
      <path
         d="M 0,0 H 299.634 V 199.756 H 0 Z"
         transform="translate(-170.3877,-107.6596)"
         id="path16" />
    </clipPath>
    <clipPath
       clipPathUnits="userSpaceOnUse"
       id="clipPath18">
      <path
         d="M 0,0 H 299.634 V 199.756 H 0 Z"
         transform="translate(-184.67721,-98.977002)"
         id="path18" />
    </clipPath>
    <clipPath
       clipPathUnits="userSpaceOnUse"
       id="clipPath20">
      <path
         d="M 0,0 H 299.634 V 199.756 H 0 Z"
         transform="translate(-177.3823,-101.4242)"
         id="path20" />
    </clipPath>
    <clipPath
       clipPathUnits="userSpaceOnUse"
       id="clipPath22">
      <path
         d="M 0,0 H 299.634 V 199.756 H 0 Z"
         transform="translate(-190.041,-95.430102)"
         id="path22" />
    </clipPath>
    <clipPath
       clipPathUnits="userSpaceOnUse"
       id="clipPath24">
      <path
         d="M 0,0 H 299.634 V 199.756 H 0 Z"
         transform="translate(-104.55321,-119.13421)"
         id="path24" />
    </clipPath>
    <clipPath
       clipPathUnits="userSpaceOnUse"
       id="clipPath26">
      <path
         d="M 0,0 H 299.634 V 199.756 H 0 Z"
         transform="translate(-197.77341,-92.767002)"
         id="path26" />
    </clipPath>
    <clipPath
       clipPathUnits="userSpaceOnUse"
       id="clipPath28">
      <path
         d="M 0,0 H 299.634 V 199.756 H 0 Z"
         transform="translate(-117.3037,-116.9272)"
         id="path28" />
    </clipPath>
    <clipPath
       clipPathUnits="userSpaceOnUse"
       id="clipPath30">
      <path
         d="M 0,0 H 299.634 V 199.756 H 0 Z"
         transform="translate(-111.95211,-118.69861)"
         id="path30" />
    </clipPath>
    <clipPath
       clipPathUnits="userSpaceOnUse"
       id="clipPath32">
      <path
         d="M 0,0 H 299.634 V 199.756 H 0 Z"
         transform="translate(-163.48581,-112.0961)"
         id="path32" />
    </clipPath>
    <clipPath
       clipPathUnits="userSpaceOnUse"
       id="clipPath34">
      <path
         d="M 0,0 H 299.634 V 199.756 H 0 Z"
         transform="translate(-157.8628,-113.1752)"
         id="path34" />
    </clipPath>
    <clipPath
       clipPathUnits="userSpaceOnUse"
       id="clipPath36">
      <path
         d="M 0,0 H 299.634 V 199.756 H 0 Z"
         transform="translate(-176.1015,-105.83731)"
         id="path36" />
    </clipPath>
    <clipPath
       clipPathUnits="userSpaceOnUse"
       id="clipPath38">
      <path
         d="M 0,0 H 299.634 V 199.756 H 0 Z"
         transform="translate(-151.68891,-114.83731)"
         id="path38" />
    </clipPath>
    <clipPath
       clipPathUnits="userSpaceOnUse"
       id="clipPath40">
      <path
         d="M 0,0 H 299.634 V 199.756 H 0 Z"
         transform="translate(-170.58591,-107.6078)"
         id="path40" />
    </clipPath>
    <clipPath
       clipPathUnits="userSpaceOnUse"
       id="clipPath42">
      <path
         d="M 0,0 H 299.634 V 199.756 H 0 Z"
         transform="translate(-167.8887,-116.75431)"
         id="path42" />
    </clipPath>
    <clipPath
       clipPathUnits="userSpaceOnUse"
       id="clipPath44">
      <path
         d="M 0,0 H 299.634 V 199.756 H 0 Z"
         transform="translate(-104.6377,-109.9096)"
         id="path44" />
    </clipPath>
    <clipPath
       clipPathUnits="userSpaceOnUse"
       id="clipPath46">
      <path
         d="M 0,0 H 299.634 V 199.756 H 0 Z"
         transform="translate(-162.5293,-102.893)"
         id="path46" />
    </clipPath>
    <clipPath
       clipPathUnits="userSpaceOnUse"
       id="clipPath48">
      <path
         d="M 0,0 H 299.634 V 199.756 H 0 Z"
         transform="translate(-115.6191,-90.5756)"
         id="path48" />
    </clipPath>
    <clipPath
       clipPathUnits="userSpaceOnUse"
       id="clipPath50">
      <path
         d="M 0,0 H 299.634 V 199.756 H 0 Z"
         transform="translate(-111.4116,-89.392002)"
         id="path50" />
    </clipPath>
    <clipPath
       clipPathUnits="userSpaceOnUse"
       id="clipPath52">
      <path
         d="M 0,0 H 299.634 V 199.756 H 0 Z"
         transform="translate(-103.2085,-83.008205)"
         id="path52" />
    </clipPath>
    <clipPath
       clipPathUnits="userSpaceOnUse"
       id="clipPath54">
      <path
         d="M 0,0 H 299.634 V 199.756 H 0 Z"
         transform="translate(-127.9194,-98.257205)"
         id="path54" />
    </clipPath>
    <clipPath
       clipPathUnits="userSpaceOnUse"
       id="clipPath56">
      <path
         d="M 0,0 H 299.634 V 199.756 H 0 Z"
         transform="translate(-120.8589,-82.577502)"
         id="path56" />
    </clipPath>
    <clipPath
       clipPathUnits="userSpaceOnUse"
       id="clipPath58">
      <path
         d="M 0,0 H 299.634 V 199.756 H 0 Z"
         transform="translate(-119.3779,-77.083399)"
         id="path58" />
    </clipPath>
    <clipPath
       clipPathUnits="userSpaceOnUse"
       id="clipPath60">
      <path
         d="M 0,0 H 299.634 V 199.756 H 0 Z"
         transform="translate(-126.4678,-72.902704)"
         id="path60" />
    </clipPath>
    <clipPath
       clipPathUnits="userSpaceOnUse"
       id="clipPath62">
      <path
         d="M 0,0 H 299.634 V 199.756 H 0 Z"
         transform="translate(-147.83691,-91.748405)"
         id="path62" />
    </clipPath>
    <clipPath
       clipPathUnits="userSpaceOnUse"
       id="clipPath64">
      <path
         d="M 0,0 H 299.634 V 199.756 H 0 Z"
         transform="translate(-142.8472,-87.0209)"
         id="path64" />
    </clipPath>
    <clipPath
       clipPathUnits="userSpaceOnUse"
       id="clipPath66">
      <path
         d="M 0,0 H 299.634 V 199.756 H 0 Z"
         transform="translate(-146.05521,-83.4008)"
         id="path66" />
    </clipPath>
    <clipPath
       clipPathUnits="userSpaceOnUse"
       id="clipPath68">
      <path
         d="M 0,0 H 299.634 V 199.756 H 0 Z"
         transform="translate(-153.9048,-87.160602)"
         id="path68" />
    </clipPath>
    <clipPath
       clipPathUnits="userSpaceOnUse"
       id="clipPath70">
      <path
         d="M 0,0 H 299.634 V 199.756 H 0 Z"
         transform="translate(-147.49461,-76.674199)"
         id="path70" />
    </clipPath>
    <clipPath
       clipPathUnits="userSpaceOnUse"
       id="clipPath72">
      <path
         d="M 0,0 H 299.634 V 199.756 H 0 Z"
         transform="translate(-148.91451,-58.938904)"
         id="path72" />
    </clipPath>
    <clipPath
       clipPathUnits="userSpaceOnUse"
       id="clipPath74">
      <path
         d="M 0,0 H 299.634 V 199.756 H 0 Z"
         transform="translate(-159.7119,-70.797304)"
         id="path74" />
    </clipPath>
    <clipPath
       clipPathUnits="userSpaceOnUse"
       id="clipPath76">
      <path
         d="M 0,0 H 299.634 V 199.756 H 0 Z"
         transform="translate(-163.52931,-65.034604)"
         id="path76" />
    </clipPath>
    <clipPath
       clipPathUnits="userSpaceOnUse"
       id="clipPath78">
      <path
         d="M 0,0 H 299.634 V 199.756 H 0 Z"
         transform="translate(-170.43651,-68.939802)"
         id="path78" />
    </clipPath>
    <clipPath
       clipPathUnits="userSpaceOnUse"
       id="clipPath80">
      <path
         d="M 0,0 H 299.634 V 199.756 H 0 Z"
         transform="translate(-174.228,-71.347099)"
         id="path80" />
    </clipPath>
    <clipPath
       clipPathUnits="userSpaceOnUse"
       id="clipPath82">
      <path
         d="M 0,0 H 299.634 V 199.756 H 0 Z"
         transform="translate(-174.04641,-66.383202)"
         id="path82" />
    </clipPath>
    <clipPath
       clipPathUnits="userSpaceOnUse"
       id="clipPath84">
      <path
         d="M 0,0 H 299.634 V 199.756 H 0 Z"
         transform="translate(-174.4878,-60.899802)"
         id="path84" />
    </clipPath>
    <clipPath
       clipPathUnits="userSpaceOnUse"
       id="clipPath86">
      <path
         d="M 0,0 H 299.634 V 199.756 H 0 Z"
         transform="translate(-179.71341,-70.407604)"
         id="path86" />
    </clipPath>
    <clipPath
       clipPathUnits="userSpaceOnUse"
       id="clipPath88">
      <path
         d="M 0,0 H 299.634 V 199.756 H 0 Z"
         transform="translate(-183.5986,-73.128304)"
         id="path88" />
    </clipPath>
    <clipPath
       clipPathUnits="userSpaceOnUse"
       id="clipPath90">
      <path
         d="M 0,0 H 299.634 V 199.756 H 0 Z"
         transform="translate(-186.7539,-77.224002)"
         id="path90" />
    </clipPath>
    <clipPath
       clipPathUnits="userSpaceOnUse"
       id="clipPath92">
      <path
         d="M 0,0 H 299.634 V 199.756 H 0 Z"
         transform="translate(-184.2715,-82.091202)"
         id="path92" />
    </clipPath>
    <clipPath
       clipPathUnits="userSpaceOnUse"
       id="clipPath94">
      <path
         d="M 0,0 H 299.634 V 199.756 H 0 Z"
         transform="translate(-192.2817,-81.298205)"
         id="path94" />
    </clipPath>
  </defs>
  <sodipodi:namedview
     id="namedview1"
     pagecolor="#ffffff"
     bordercolor="#000000"
     borderopacity="0.25"
     inkscape:showpageshadow="2"
     inkscape:pageopacity="0.0"
     inkscape:pagecheckerboard="0"
     inkscape:deskcolor="#d1d1d1">
    <inkscape:page
       x="0"
       y="0"
       inkscape:label="1"
       id="page1"
       width="399.51199"
       height="266.34134"
       margin="0"
       bleed="0" />
  </sodipodi:namedview>
  <g
     id="layer-MC0"
     inkscape:groupmode="layer"
     inkscape:label="Countryflags.com">
    <path
       id="path1"
       d="M 0,0 H 299.634 V 199.756 H 0 Z"
       style="fill:#009b3a;fill-opacity:1;fill-rule:nonzero;stroke:none"
       transform="matrix(1.3333333,0,0,-1.3333333,0,266.34133)" />
    <path
       id="path2"
       d="M 0,0 124.5,-79.5 249.001,0 124.5,79.5 Z"
       style="fill:#fedf00;fill-opacity:1;fill-rule:nonzero;stroke:none"
       transform="matrix(1.3333333,0,0,-1.3333333,33.5124,133.29387)" />
    <path
       id="path3"
       d="M 0,0 C 28.995,0 52.5,-23.505 52.5,-52.5 52.5,-81.495 28.995,-105 0,-105 c -28.995,0 -52.5,23.505 -52.5,52.5 C -52.5,-23.505 -28.995,0 0,0"
       style="fill:#002776;fill-opacity:1;fill-rule:nonzero;stroke:none"
       transform="matrix(1.3333333,0,0,-1.3333333,199.5124,63.294)"
       clip-path="url(#clipPath4)" />
    <path
       id="path5"
       d="M 0,0 C 0,70.416 57.084,127.5 127.5,127.5 197.916,127.5 255,70.416 255,0 h -7.5 c 0,66.274 -53.726,120 -120,120 C 61.226,120 7.5,66.274 7.5,0 Z"
       style="fill:#ffffff;fill-opacity:1;fill-rule:nonzero;stroke:none"
       transform="matrix(1.3333333,0,0,-1.3333333,-10.4876,273.294)"
       clip-path="url(#clipPath6)" />
    <path
       id="path7"
       d="m 0,0 4.497,-0.157 0.032,0.928 -3.64,0.126 0.045,1.286 2.855,-0.1 0.03,0.856 -2.856,0.1 0.036,1 3.426,-0.12 0.033,0.929 -4.284,0.149 z"
       style="fill:#009b3a;fill-opacity:1;fill-rule:nonzero;stroke:none"
       transform="matrix(1.3333333,0,0,-1.3333333,162.15693,111.6208)"
       clip-path="url(#clipPath8)" />
    <path
       id="path9"
       d="M 0,0 0.854,-0.074 1.153,3.341 1.851,-0.162 2.633,-0.23 3.928,3.099 3.629,-0.317 4.483,-0.392 4.919,4.589 3.674,4.698 2.378,1.37 1.681,4.872 0.436,4.981 Z"
       style="fill:#009b3a;fill-opacity:1;fill-rule:nonzero;stroke:none"
       transform="matrix(1.3333333,0,0,-1.3333333,170.61387,111.98147)"
       clip-path="url(#clipPath10)" />
    <path
       id="path11"
       d="M 0,0 3.696,-0.636 3.841,0.21 0.99,0.699 1.184,1.826 3.507,1.427 3.652,2.271 1.329,2.671 1.462,3.445 4.225,2.97 4.37,3.814 0.762,4.435 Z"
       style="fill:#009b3a;fill-opacity:1;fill-rule:nonzero;stroke:none"
       transform="matrix(1.3333333,0,0,-1.3333333,184.4264,113.53867)"
       clip-path="url(#clipPath12)" />
    <path
       id="path13"
       d="M 0,0 1.736,-0.755 1.451,-1.41 -0.285,-0.655 Z"
       style="fill:#009b3a;fill-opacity:1;fill-rule:nonzero;stroke:none"
       transform="matrix(1.3333333,0,0,-1.3333333,225.7428,122.16893)"
       clip-path="url(#clipPath14)" />
    <path
       id="path15"
       d="m 0,0 0.655,-0.285 -0.997,-2.292 -0.655,0.284 z"
       style="fill:#009b3a;fill-opacity:1;fill-rule:nonzero;stroke:none"
       transform="matrix(1.3333333,0,0,-1.3333333,227.1836,122.7952)"
       clip-path="url(#clipPath16)" />
    <path
       id="path17"
       d="m 0,0 c -0.269,-0.422 0.004,-0.893 0.606,-1.275 0.602,-0.384 1.013,-0.371 1.186,-0.1 0.547,0.858 -2.615,2.11 -1.64,3.606 C 0.992,3.518 2.43,2.517 2.972,2.172 3.514,1.826 4.385,0.933 3.708,-0.097 L 2.789,0.488 C 3.077,0.94 2.761,1.375 2.279,1.682 1.812,1.979 1.433,2.115 1.154,1.678 0.688,0.979 3.787,-0.338 2.837,-1.829 c -0.7,-1.1 -1.919,-0.619 -2.733,-0.102 -0.692,0.442 -1.728,1.483 -1.053,2.535 z"
       style="fill:#009b3a;fill-opacity:1;fill-rule:nonzero;stroke:none"
       transform="matrix(1.3333333,0,0,-1.3333333,246.23627,134.372)"
       clip-path="url(#clipPath18)" />
    <path
       id="path19"
       d="M 0,0 3.917,-2.216 4.374,-1.408 1.203,0.386 1.836,1.505 4.323,0.099 4.746,0.845 2.258,2.251 2.751,3.121 5.735,1.433 6.192,2.241 2.462,4.352 Z"
       style="fill:#009b3a;fill-opacity:1;fill-rule:nonzero;stroke:none"
       transform="matrix(1.3333333,0,0,-1.3333333,236.50973,131.10907)"
       clip-path="url(#clipPath20)" />
    <path
       id="path21"
       d="M 0,0 C -0.29,-0.407 -0.042,-0.892 0.539,-1.306 1.12,-1.721 1.531,-1.729 1.718,-1.467 2.309,-0.638 -0.783,0.777 0.269,2.221 1.175,3.461 2.558,2.387 3.082,2.014 3.605,1.64 4.428,0.702 3.698,-0.291 L 2.811,0.342 C 3.122,0.778 2.829,1.228 2.364,1.56 1.913,1.882 1.542,2.037 1.24,1.615 0.739,0.942 3.764,-0.535 2.737,-1.976 1.98,-3.036 0.789,-2.493 0.004,-1.933 c -0.669,0.477 -1.649,1.57 -0.92,2.585 z"
       style="fill:#009b3a;fill-opacity:1;fill-rule:nonzero;stroke:none"
       transform="matrix(1.3333333,0,0,-1.3333333,253.388,139.1012)"
       clip-path="url(#clipPath22)" />
    <path
       id="path23"
       d="M 0,0 C 1.699,0 1.699,-3.047 0,-3.047 -1.7,-3.047 -1.7,0 0,0 M 2.233,-1.247 C 2.064,0.124 0.929,1.111 -0.305,0.96 -1.538,0.809 -2.401,-0.425 -2.233,-1.795 c 0.168,-1.371 1.304,-2.358 2.537,-2.207 1.234,0.151 2.097,1.385 1.929,2.755"
       style="fill:#009b3a;fill-opacity:1;fill-rule:nonzero;stroke:none"
       transform="matrix(1.3333333,0,0,-1.3333333,139.40427,107.49573)"
       clip-path="url(#clipPath24)" />
    <path
       id="path25"
       d="M 0,0 C 1.403,-0.96 -0.318,-3.475 -1.721,-2.515 -3.123,-1.555 -1.402,0.959 0,0 m 1.139,-2.291 c 0.635,1.226 0.256,2.684 -0.848,3.255 -1.103,0.571 -2.513,0.041 -3.148,-1.185 -0.635,-1.225 -0.255,-2.682 0.848,-3.255 1.103,-0.571 2.512,-0.041 3.148,1.185"
       style="fill:#009b3a;fill-opacity:1;fill-rule:nonzero;stroke:none"
       transform="matrix(1.3333333,0,0,-1.3333333,263.69787,142.652)"
       clip-path="url(#clipPath26)" />
    <path
       id="path27"
       d="m 0,0 c -0.384,0.001 -1.123,-0.005 -1.123,-0.005 0,0 -0.044,2.526 -0.055,3.143 1.034,0.013 1.07,0.013 1.471,0.013 C 1.035,3.139 1.348,2.585 1.504,2.227 1.56,1.828 1.562,1.667 1.575,1.322 1.53,0.951 1.419,0.645 1.106,0.352 0.592,0.007 0.332,0 0,0 M 2.04,3.159 C 1.489,4.047 0.378,4.089 0.378,4.089 l -2.5,-0.039 0.087,-4.999 c 0,0 1.983,-0.001 2.51,0.049 0.526,0.049 1.146,0.353 1.55,0.885 0.404,0.532 0.4,1.161 0.397,1.548 C 2.419,1.92 2.48,2.448 2.04,3.159"
       style="fill:#009b3a;fill-opacity:1;fill-rule:nonzero;stroke:none"
       transform="matrix(1.3333333,0,0,-1.3333333,156.40493,110.4384)"
       clip-path="url(#clipPath28)" />
    <path
       id="path29"
       d="m 0,0 c -0.195,-0.163 -0.742,-0.17 -0.742,-0.17 l -1.546,-0.101 c 0,0 -0.061,0.871 -0.09,1.282 0.234,-0.002 1.464,0.101 1.486,0.102 0.247,0.008 0.527,0.033 0.527,0.033 0,0 0.202,-0.007 0.404,-0.183 C 0.078,0.937 0.247,0.787 0.241,0.533 0.234,0.279 0.089,0.049 0,0 m 0.562,-0.777 c 0,0 0.522,0.442 0.657,1.075 C 1.354,0.931 0.962,1.448 0.796,1.597 0.63,1.745 0.281,2.096 -0.234,2.075 -0.75,2.056 -3.298,1.878 -3.298,1.878 l 0.278,-4.993 0.926,0.064 -0.13,1.853 1.609,0.112 0.386,0.027 c 0,0 0.498,-0.814 0.546,-1.317 0.032,-0.296 0.027,-0.548 0.027,-0.548 h 0.903 c 0,0 0.023,0.89 -0.234,1.422 -0.257,0.532 -0.451,0.725 -0.451,0.725"
       style="fill:#009b3a;fill-opacity:1;fill-rule:nonzero;stroke:none"
       transform="matrix(1.3333333,0,0,-1.3333333,149.26947,108.07653)"
       clip-path="url(#clipPath30)" />
    <path
       id="path31"
       d="M 0,0 C 1.643,-0.436 0.861,-3.381 -0.782,-2.944 -2.424,-2.509 -1.643,0.437 0,0 m 1.838,-1.778 c 0.189,1.368 -0.655,2.614 -1.886,2.784 -1.231,0.17 -2.382,-0.801 -2.571,-2.168 -0.189,-1.368 0.656,-2.614 1.887,-2.784 1.23,-0.171 2.381,0.8 2.57,2.168"
       style="fill:#009b3a;fill-opacity:1;fill-rule:nonzero;stroke:none"
       transform="matrix(1.3333333,0,0,-1.3333333,217.98107,116.87987)"
       clip-path="url(#clipPath32)" />
    <path
       id="path33"
       d="m 0,0 c -0.238,-0.09 -0.757,0.083 -0.757,0.083 l -1.494,0.409 c 0,0 0.227,0.844 0.334,1.241 0.221,-0.078 1.417,-0.382 1.438,-0.389 0.236,-0.073 0.508,-0.142 0.508,-0.142 0,0 0.189,-0.072 0.323,-0.304 C 0.38,0.861 0.491,0.664 0.402,0.426 0.313,0.188 0.1,0.018 0,0 m 0.277,-0.918 c 0,0 0.639,0.248 0.973,0.802 0.334,0.553 0.133,1.171 0.024,1.365 -0.108,0.194 -0.323,0.64 -0.817,0.79 -0.494,0.149 -2.959,0.815 -2.959,0.815 l -1.371,-4.81 0.897,-0.241 0.483,1.793 1.556,-0.42 0.375,-0.101 c 0,0 0.204,-0.932 0.084,-1.424 -0.066,-0.29 -0.152,-0.526 -0.152,-0.526 L 0.222,-3.17 c 0,0 0.313,0.833 0.245,1.42 -0.07,0.588 -0.19,0.832 -0.19,0.832"
       style="fill:#009b3a;fill-opacity:1;fill-rule:nonzero;stroke:none"
       transform="matrix(1.3333333,0,0,-1.3333333,210.48373,115.44107)"
       clip-path="url(#clipPath34)" />
    <path
       id="path35"
       d="m 0,0 c -0.245,-0.069 -0.747,0.146 -0.747,0.146 l -1.454,0.535 c 0,0 0.298,0.821 0.438,1.209 0.214,-0.097 1.38,-0.502 1.4,-0.51 0.23,-0.094 0.495,-0.185 0.495,-0.185 0,0 0.181,-0.088 0.295,-0.33 C 0.452,0.826 0.546,0.619 0.437,0.39 0.328,0.161 0.102,0.009 0,0 m 0.199,-0.938 c 0,0 0.656,0.192 1.037,0.715 0.379,0.524 0.231,1.157 0.14,1.359 -0.091,0.203 -0.268,0.665 -0.747,0.856 -0.48,0.192 -2.88,1.063 -2.88,1.063 l -1.773,-4.675 0.872,-0.317 0.634,1.746 1.515,-0.551 0.365,-0.132 c 0,0 0.124,-0.947 -0.037,-1.426 -0.09,-0.283 -0.197,-0.512 -0.197,-0.512 l 0.825,-0.366 c 0,0 0.382,0.804 0.363,1.395 -0.019,0.591 -0.117,0.845 -0.117,0.845"
       style="fill:#009b3a;fill-opacity:1;fill-rule:nonzero;stroke:none"
       transform="matrix(1.3333333,0,0,-1.3333333,234.802,125.22493)"
       clip-path="url(#clipPath36)" />
    <path
       id="path37"
       d="m 0,0 c -0.235,-0.096 -0.758,0.064 -0.758,0.064 l -1.504,0.373 c 0,0 0.207,0.85 0.304,1.25 0.223,-0.073 1.426,-0.349 1.447,-0.355 0.239,-0.068 0.512,-0.13 0.512,-0.13 0,0 0.191,-0.067 0.329,-0.296 C 0.359,0.87 0.476,0.676 0.392,0.436 0.308,0.195 0.1,0.021 0,0 m 0.3,-0.911 c 0,0 0.632,0.263 0.952,0.824 C 1.573,0.475 1.357,1.087 1.245,1.279 1.131,1.471 0.906,1.911 0.408,2.049 -0.089,2.187 -2.57,2.792 -2.57,2.792 l -1.255,-4.84 0.903,-0.221 0.44,1.804 1.566,-0.382 0.377,-0.091"
       style="fill:#009b3a;fill-opacity:1;fill-rule:nonzero;stroke:none"
       transform="matrix(1.3333333,0,0,-1.3333333,202.25187,113.22493)"
       clip-path="url(#clipPath38)" />
    <path
       id="path39"
       d="m 0,0 c -0.128,0.058 -0.263,0.098 -0.397,0.14 -0.392,-0.738 -1.257,-1.263 -2.028,-0.735 -1.403,0.96 0.318,3.474 1.72,2.515 C -0.366,1.687 -0.213,1.365 -0.19,1.023 0.022,0.933 0.251,0.892 0.464,0.794 0.553,0.753 0.642,0.71 0.731,0.669 0.803,1.589 0.386,2.47 -0.414,2.884 -1.517,3.455 -2.926,2.925 -3.562,1.699 c -0.635,-1.226 -0.255,-2.683 0.848,-3.255 1.103,-0.572 2.513,-0.041 3.148,1.185 0.025,0.049 0.046,0.098 0.068,0.147 C 0.334,-0.15 0.168,-0.073 0,0"
       style="fill:#009b3a;fill-opacity:1;fill-rule:nonzero;stroke:none"
       transform="matrix(1.3333333,0,0,-1.3333333,227.44787,122.86427)"
       clip-path="url(#clipPath40)" />
    <path
       id="path41"
       d="m 0,0 -1.111,-0.807 0.424,-1.306 -1.111,0.806 -1.111,-0.806 0.425,1.306 L -3.595,0 h 1.373 L -1.798,1.306 -1.373,0 Z"
       style="fill:#ffffff;fill-opacity:1;fill-rule:nonzero;stroke:none"
       transform="matrix(1.3333333,0,0,-1.3333333,223.8516,110.66893)"
       clip-path="url(#clipPath42)" />
    <path
       id="path43"
       d="M 0,0 1.322,-0.961 0.817,-2.516 2.14,-1.555 3.462,-2.516 2.957,-0.961 4.28,0 H 2.645 L 2.14,1.555 1.635,0 Z"
       style="fill:#ffffff;fill-opacity:1;fill-rule:nonzero;stroke:none"
       transform="matrix(1.3333333,0,0,-1.3333333,139.51693,119.7952)"
       clip-path="url(#clipPath44)" />
    <path
       id="path45"
       d="M 0,0 0.915,-0.665 0.566,-1.741 1.481,-1.076 2.396,-1.741 2.046,-0.665 2.962,0 H 1.831 L 1.481,1.075 1.137,0 Z"
       style="fill:#ffffff;fill-opacity:1;fill-rule:nonzero;stroke:none"
       transform="matrix(1.3333333,0,0,-1.3333333,216.70573,129.15067)"
       clip-path="url(#clipPath46)" />
    <path
       id="path47"
       d="M 0,0 0.561,-0.393 0.344,-1.059 0.901,-0.654 1.458,-1.059 1.245,-0.404 1.802,0 H 1.113 L 0.901,0.654 0.688,0 Z"
       style="fill:#ffffff;fill-opacity:1;fill-rule:nonzero;stroke:none"
       transform="matrix(1.3333333,0,0,-1.3333333,154.1588,145.57387)"
       clip-path="url(#clipPath48)" />
    <path
       id="path49"
       d="m 0,0 -0.498,-1.554 h -1.633 l 1.322,-0.961 -0.505,-1.554 1.322,0.961 1.323,-0.961 -0.505,1.554 1.322,0.961 H 0.514 L 0.008,0"
       style="fill:#ffffff;fill-opacity:1;fill-rule:nonzero;stroke:none"
       transform="matrix(1.3333333,0,0,-1.3333333,148.5488,147.152)"
       clip-path="url(#clipPath50)" />
    <path
       id="path51"
       d="M 0,0 1.102,-0.801 0.681,-2.097 1.783,-1.296 2.885,-2.097 2.464,-0.801 3.566,0 H 2.204 L 1.783,1.295 1.362,0 Z"
       style="fill:#ffffff;fill-opacity:1;fill-rule:nonzero;stroke:none"
       transform="matrix(1.3333333,0,0,-1.3333333,137.61133,155.66373)"
       clip-path="url(#clipPath52)" />
    <path
       id="path53"
       d="m 0,0 1.08,-0.785 -0.413,-1.27 1.08,0.785 1.08,-0.785 -0.412,1.27 L 3.495,0 H 2.16 L 1.747,1.27 1.334,0 Z"
       style="fill:#ffffff;fill-opacity:1;fill-rule:nonzero;stroke:none"
       transform="matrix(1.3333333,0,0,-1.3333333,170.5592,135.33173)"
       clip-path="url(#clipPath54)" />
    <path
       id="path55"
       d="M 0,0 0.996,-0.724 0.616,-1.895 1.612,-1.171 2.608,-1.895 2.227,-0.724 3.224,0 H 1.992 L 1.612,1.171 1.231,0 Z"
       style="fill:#ffffff;fill-opacity:1;fill-rule:nonzero;stroke:none"
       transform="matrix(1.3333333,0,0,-1.3333333,161.1452,156.238)"
       clip-path="url(#clipPath56)" />
    <path
       id="path57"
       d="M 0,0 0.915,-0.664 0.566,-1.74 1.481,-1.075 2.396,-1.74 2.046,-0.664 2.962,0 H 1.831 L 1.481,1.076 1.136,0 Z"
       style="fill:#ffffff;fill-opacity:1;fill-rule:nonzero;stroke:none"
       transform="matrix(1.3333333,0,0,-1.3333333,159.17053,163.56347)"
       clip-path="url(#clipPath58)" />
    <path
       id="path59"
       d="M 0,0 1.323,-0.961 0.817,-2.517 2.14,-1.555 3.462,-2.517 2.957,-0.961 4.28,0 H 2.645 L 2.14,1.554 1.635,0 Z"
       style="fill:#ffffff;fill-opacity:1;fill-rule:nonzero;stroke:none"
       transform="matrix(1.3333333,0,0,-1.3333333,168.62373,169.13773)"
       clip-path="url(#clipPath60)" />
    <path
       id="path61"
       d="M 0,0 1.111,-0.806 0.687,-2.112 1.798,-1.306 2.909,-2.112 2.484,-0.806 3.595,0 H 2.216 L 1.797,1.306 1.373,0 Z"
       style="fill:#ffffff;fill-opacity:1;fill-rule:nonzero;stroke:none"
       transform="matrix(1.3333333,0,0,-1.3333333,197.11587,144.01013)"
       clip-path="url(#clipPath62)" />
    <path
       id="path63"
       d="M 0,0 0.915,-0.665 0.566,-1.741 1.479,-1.074 2.396,-1.741 2.046,-0.665 2.962,0 H 1.831 L 1.481,1.075 1.131,0 Z"
       style="fill:#ffffff;fill-opacity:1;fill-rule:nonzero;stroke:none"
       transform="matrix(1.3333333,0,0,-1.3333333,190.46293,150.31347)"
       clip-path="url(#clipPath64)" />
    <path
       id="path65"
       d="M 0,0 0.557,-0.404 0.344,-1.059 0.901,-0.655 1.458,-1.059 1.245,-0.404 1.802,0 H 1.113 L 0.901,0.654 0.688,0 Z"
       style="fill:#ffffff;fill-opacity:1;fill-rule:nonzero;stroke:none"
       transform="matrix(1.3333333,0,0,-1.3333333,194.74027,155.14027)"
       clip-path="url(#clipPath66)" />
    <path
       id="path67"
       d="M 0,0 1.111,-0.807 0.687,-2.113 1.797,-1.306 2.908,-2.113 2.484,-0.807 3.595,0 H 2.222 L 1.797,1.306 1.379,0 Z"
       style="fill:#ffffff;fill-opacity:1;fill-rule:nonzero;stroke:none"
       transform="matrix(1.3333333,0,0,-1.3333333,205.2064,150.1272)"
       clip-path="url(#clipPath68)" />
    <path
       id="path69"
       d="M 0,0 1.323,-0.961 0.817,-2.516 2.14,-1.555 3.462,-2.516 2.957,-0.961 4.279,0 H 2.645 L 2.14,1.555 1.642,0 Z"
       style="fill:#ffffff;fill-opacity:1;fill-rule:nonzero;stroke:none"
       transform="matrix(1.3333333,0,0,-1.3333333,196.65947,164.10907)"
       clip-path="url(#clipPath70)" />
    <path
       id="path71"
       d="M 0,0 0.424,-0.308 0.263,-0.807 0.687,-0.498 1.111,-0.807 0.949,-0.308 1.373,0 H 0.849 L 0.687,0.499 0.527,0 Z"
       style="fill:#ffffff;fill-opacity:1;fill-rule:nonzero;stroke:none"
       transform="matrix(1.3333333,0,0,-1.3333333,198.55267,187.75613)"
       clip-path="url(#clipPath72)" />
    <path
       id="path73"
       d="M 0,0 0.915,-0.665 0.566,-1.74 1.481,-1.076 2.396,-1.74 2.046,-0.664 2.962,0 H 1.831 L 1.481,1.076 1.137,0 Z"
       style="fill:#ffffff;fill-opacity:1;fill-rule:nonzero;stroke:none"
       transform="matrix(1.3333333,0,0,-1.3333333,212.9492,171.94493)"
       clip-path="url(#clipPath74)" />
    <path
       id="path75"
       d="M 0,0 1.111,-0.807 0.687,-2.113 1.797,-1.306 2.909,-2.113 2.484,-0.807 3.595,0 H 2.222 L 1.797,1.306 1.374,0 Z"
       style="fill:#ffffff;fill-opacity:1;fill-rule:nonzero;stroke:none"
       transform="matrix(1.3333333,0,0,-1.3333333,218.03907,179.62853)"
       clip-path="url(#clipPath76)" />
    <path
       id="path77"
       d="M 0,0 0.916,0.665 H -0.216 L -0.565,1.74 -0.91,0.665 H -2.046 L -1.131,0 -1.48,-1.076 -0.565,-0.411 0.35,-1.076 Z"
       style="fill:#ffffff;fill-opacity:1;fill-rule:nonzero;stroke:none"
       transform="matrix(1.3333333,0,0,-1.3333333,227.24867,174.4216)"
       clip-path="url(#clipPath78)" />
    <path
       id="path79"
       d="M 0,0 0.916,-0.665 0.566,-1.74 1.481,-1.076 2.396,-1.74 2.046,-0.665 2.962,0 H 1.831 L 1.481,1.076 1.131,0 Z"
       style="fill:#ffffff;fill-opacity:1;fill-rule:nonzero;stroke:none"
       transform="matrix(1.3333333,0,0,-1.3333333,232.304,171.21187)"
       clip-path="url(#clipPath80)" />
    <path
       id="path81"
       d="M 0,0 1.111,-0.807 0.687,-2.113 1.797,-1.306 2.908,-2.113 2.484,-0.807 3.595,0 H 2.222 L 1.797,1.306 1.373,0 Z"
       style="fill:#ffffff;fill-opacity:1;fill-rule:nonzero;stroke:none"
       transform="matrix(1.3333333,0,0,-1.3333333,232.06187,177.8304)"
       clip-path="url(#clipPath82)" />
    <path
       id="path83"
       d="M 0,0 0.915,-0.665 0.566,-1.741 1.481,-1.076 2.396,-1.741 2.046,-0.665 2.962,0 H 1.825 L 1.481,1.076 1.137,0 Z"
       style="fill:#ffffff;fill-opacity:1;fill-rule:nonzero;stroke:none"
       transform="matrix(1.3333333,0,0,-1.3333333,232.6504,185.1416)"
       clip-path="url(#clipPath84)" />
    <path
       id="path85"
       d="M 0,0 0.916,-0.664 0.566,-1.74 1.481,-1.075 2.396,-1.74 2.047,-0.664 2.962,0 H 1.831 L 1.481,1.076 1.131,0 Z"
       style="fill:#ffffff;fill-opacity:1;fill-rule:nonzero;stroke:none"
       transform="matrix(1.3333333,0,0,-1.3333333,239.61787,172.46453)"
       clip-path="url(#clipPath86)" />
    <path
       id="path87"
       d="M 0,0 1.111,-0.808 0.687,-2.113 1.797,-1.306 2.909,-2.113 2.484,-0.808 3.595,0 H 2.222 L 1.797,1.306 1.379,0 0.032,0.006"
       style="fill:#ffffff;fill-opacity:1;fill-rule:nonzero;stroke:none"
       transform="matrix(1.3333333,0,0,-1.3333333,244.79813,168.83693)"
       clip-path="url(#clipPath88)" />
    <path
       id="path89"
       d="M 0,0 1.111,-0.807 0.687,-2.113 1.797,-1.306 2.909,-2.113 2.484,-0.807 3.595,0 H 2.222 L 1.797,1.306 1.373,0 Z"
       style="fill:#ffffff;fill-opacity:1;fill-rule:nonzero;stroke:none"
       transform="matrix(1.3333333,0,0,-1.3333333,249.0052,163.376)"
       clip-path="url(#clipPath90)" />
    <path
       id="path91"
       d="M 0,0 1.322,-0.961 0.817,-2.516 2.14,-1.555 3.462,-2.516 2.957,-0.961 4.28,0 H 2.645 L 2.14,1.555 1.634,0 Z"
       style="fill:#ffffff;fill-opacity:1;fill-rule:nonzero;stroke:none"
       transform="matrix(1.3333333,0,0,-1.3333333,245.69533,156.8864)"
       clip-path="url(#clipPath92)" />
    <path
       id="path93"
       d="M 0,0 0.915,-0.665 0.566,-1.74 1.481,-1.076 2.396,-1.74 2.046,-0.665 2.961,0 H 1.831 L 1.481,1.076 1.136,0 Z"
       style="fill:#ffffff;fill-opacity:1;fill-rule:nonzero;stroke:none"
       transform="matrix(1.3333333,0,0,-1.3333333,256.3756,157.94373)"
       clip-path="url(#clipPath94)" />
  </g>
</svg>
