<?xml version="1.0" encoding="UTF-8" standalone="no"?>
<!-- Created with Inkscape (http://www.inkscape.org/) -->

<svg
   version="1.1"
   id="svg1"
   width="2000"
   height="1333.3333"
   viewBox="0 0 2000 1333.3333"
   sodipodi:docname="bb.ai"
   xmlns:inkscape="http://www.inkscape.org/namespaces/inkscape"
   xmlns:sodipodi="http://sodipodi.sourceforge.net/DTD/sodipodi-0.dtd"
   xmlns="http://www.w3.org/2000/svg"
   xmlns:svg="http://www.w3.org/2000/svg">
  <defs
     id="defs1">
    <clipPath
       clipPathUnits="userSpaceOnUse"
       id="clipPath4">
      <path
         d="M 0,1000 H 1500 V 0 H 0 Z"
         transform="translate(-750.00002,-742.25002)"
         id="path4" />
    </clipPath>
    <clipPath
       clipPathUnits="userSpaceOnUse"
       id="clipPath6">
      <path
         d="M 0,1000 H 1500 V 0 H 0 Z"
         transform="translate(-750.00002,-742.25002)"
         id="path6" />
    </clipPath>
  </defs>
  <sodipodi:namedview
     id="namedview1"
     pagecolor="#ffffff"
     bordercolor="#000000"
     borderopacity="0.25"
     inkscape:showpageshadow="2"
     inkscape:pageopacity="0.0"
     inkscape:pagecheckerboard="0"
     inkscape:deskcolor="#d1d1d1">
    <inkscape:page
       x="0"
       y="0"
       inkscape:label="1"
       id="page1"
       width="2000"
       height="1333.3333"
       margin="0"
       bleed="0" />
  </sodipodi:namedview>
  <g
     id="layer-MC0"
     inkscape:groupmode="layer"
     inkscape:label="Layer 1">
    <path
       id="path1"
       d="M 0,0 H 1500 V 1000 H 0 Z"
       style="fill:#00267f;fill-opacity:1;fill-rule:nonzero;stroke:none"
       transform="matrix(1.3333333,0,0,-1.3333333,0,1333.3333)" />
    <path
       id="path2"
       d="M 500,0 H 999.999 V 1000 H 500 Z"
       style="fill:#ffc726;fill-opacity:1;fill-rule:nonzero;stroke:none"
       transform="matrix(1.3333333,0,0,-1.3333333,0,1333.3333)" />
    <path
       id="path3"
       d="m 0,0 c -16.25,-44.313 -32.813,-90.438 -68.25,-125.75 11,3.625 30.25,6.875 42.625,6.562 v -186.374 l -52.625,-7.813 c -1.875,0.188 -2.5,3.125 -2.5,7.125 -5.063,57.875 -18.75,106.5 -34.5,156.813 -1.125,6.875 -21.062,33.124 -5.688,28.499 1.875,-0.25 22.438,-8.624 19.188,-4.625 -28,29 -68.937,49.875 -108.687,56.063 -3.5,0.875 -5.563,-0.875 -2.438,-4.938 52.75,-81.187 96.875,-176.999 96.5,-290.687 20.5,0 70.187,12.125 90.75,12.125 V -484.5 H 0.312 l 5.938,367.25 z"
       style="fill:#000000;fill-opacity:1;fill-rule:nonzero;stroke:none"
       transform="matrix(1.3333333,0,0,-1.3333333,1000,343.66667)"
       clip-path="url(#clipPath4)" />
    <path
       id="path5"
       d="m 0,0 c 16.25,-44.313 32.813,-90.438 68.25,-125.75 -11,3.625 -30.25,6.875 -42.625,6.562 v -186.374 l 52.625,-7.813 c 1.875,0.188 2.5,3.125 2.5,7.125 5.063,57.875 18.75,106.5 34.5,156.813 1.125,6.875 21.062,33.124 5.688,28.499 -1.875,-0.25 -22.438,-8.624 -19.188,-4.625 28,29 68.937,49.875 108.687,56.063 3.5,0.875 5.563,-0.875 2.438,-4.938 -52.75,-81.187 -96.875,-176.999 -96.5,-290.687 -20.5,0 -70.187,12.125 -90.75,12.125 V -484.5 H -0.312 l -5.938,367.25 z"
       style="fill:#000000;fill-opacity:1;fill-rule:nonzero;stroke:none"
       transform="matrix(1.3333333,0,0,-1.3333333,1000,343.66667)"
       clip-path="url(#clipPath6)" />
  </g>
</svg>
