<svg height="960" viewBox="0 0 1438 960" width="1438" xmlns="http://www.w3.org/2000/svg" xmlns:xlink="http://www.w3.org/1999/xlink"><clipPath id="a"><path d="m0 .5h1078.5v718.999h-1078.5z" transform="translate(-516.40612 -150.28221)"/></clipPath><clipPath id="b"><path d="m0 .5h1078.5v718.999h-1078.5z" transform="translate(-623.38361 -180.2539)"/></clipPath><clipPath id="c"><path d="m0 .5h1078.5v718.999h-1078.5z" transform="translate(-531.70681 -156.1816)"/></clipPath><clipPath id="d"><path d="m0 .5h1078.5v718.999h-1078.5z" transform="translate(-553.67951 -157.1113)"/></clipPath><clipPath id="e"><path d="m0 .5h1078.5v718.999h-1078.5z" transform="translate(-546.47641 -162.3496)"/></clipPath><clipPath id="f"><path d="m0 .5h1078.5v718.999h-1078.5z" transform="translate(-529.55401 -166.57131)"/></clipPath><clipPath id="g"><path d="m0 .5h1078.5v718.999h-1078.5z" transform="translate(-514.54621 -164.1582)"/></clipPath><clipPath id="h"><path d="m0 .5h1078.5v718.999h-1078.5z" transform="translate(-601.36511 -167.7324)"/></clipPath><clipPath id="i"><path d="m0 .5h1078.5v718.999h-1078.5z" transform="translate(-630.01352 -205.21291)"/></clipPath><clipPath id="j"><path d="m0 .5h1078.5v718.999h-1078.5z" transform="translate(-640.40512 -189.5068)"/></clipPath><clipPath id="k"><path d="m0 .5h1078.5v718.999h-1078.5z" transform="translate(-454.78251 -194.4346)"/></clipPath><clipPath id="l"><path d="m0 .5h1078.5v718.999h-1078.5z" transform="translate(-600.32111 -193.67481)"/></clipPath><clipPath id="m"><path d="m0 .5h1078.5v718.999h-1078.5z" transform="translate(-441.18981 -200.6758)"/></clipPath><clipPath id="n"><path d="m0 .5h1078.5v718.999h-1078.5z" transform="translate(-440.10431 -205.2178)"/></clipPath><clipPath id="o"><path d="m0 .5h1078.5v718.999h-1078.5z" transform="translate(-655.59362 -207.9805)"/></clipPath><clipPath id="p"><path d="m0 .5h1078.5v718.999h-1078.5z" transform="translate(-527.00422 -194.832)"/></clipPath><clipPath id="q"><path d="m0 .5h1078.5v718.999h-1078.5z" transform="translate(-583.72642 -207.3457)"/></clipPath><clipPath id="r"><path d="m0 .5h1078.5v718.999h-1078.5z" transform="translate(-578.64341 -210.4141)"/></clipPath><clipPath id="s"><path d="m0 .5h1078.5v718.999h-1078.5z" transform="translate(-496.34551 -213.36621)"/></clipPath><clipPath id="t"><path d="m0 .5h1078.5v718.999h-1078.5z" transform="translate(-501.19271 -226.12011)"/></clipPath><clipPath id="u"><path d="m0 .5h1078.5v718.999h-1078.5z" transform="translate(-492.75811 -224.39841)"/></clipPath><clipPath id="v"><path d="m0 .5h1078.5v718.999h-1078.5z" transform="translate(-600.16682 -228.03121)"/></clipPath><clipPath id="w"><path d="m0 .5h1078.5v718.999h-1078.5z" transform="translate(-621.63562 -249.99121)"/></clipPath><clipPath id="x"><path d="m0 .5h1078.5v718.999h-1078.5z" transform="translate(-635.91292 -254.3428)"/></clipPath><clipPath id="y"><path d="m0 .5h1078.5v718.999h-1078.5z" transform="translate(-465.76501 -228.5176)"/></clipPath><clipPath id="z"><path d="m0 .5h1078.5v718.999h-1078.5z" transform="translate(-516.59992 -234.20121)"/></clipPath><clipPath id="A"><path d="m0 .5h1078.5v718.999h-1078.5z" transform="translate(-446.06571 -239.7637)"/></clipPath><clipPath id="B"><path d="m0 .5h1078.5v718.999h-1078.5z" transform="translate(-448.97301 -244.88281)"/></clipPath><clipPath id="C"><path d="m0 .5h1078.5v718.999h-1078.5z" transform="translate(-451.57401 -247.70511)"/></clipPath><clipPath id="D"><path d="m0 .5h1078.5v718.999h-1078.5z" transform="translate(-494.81621 -243.2578)"/></clipPath><clipPath id="E"><path d="m0 .5h1078.5v718.999h-1078.5z" transform="translate(-606.86411 -253.1836)"/></clipPath><clipPath id="F"><path d="m0 .5h1078.5v718.999h-1078.5z" transform="translate(-432.48611 -266.90821)"/></clipPath><clipPath id="G"><path d="m0 .5h1078.5v718.999h-1078.5z" transform="translate(-641.32012 -274.59961)"/></clipPath><clipPath id="H"><path d="m0 .5h1078.5v718.999h-1078.5z" transform="translate(-660.95591 -276.82131)"/></clipPath><clipPath id="I"><path d="m0 .5h1078.5v718.999h-1078.5z" transform="translate(-669.70882 -301.89451)"/></clipPath><clipPath id="J"><path d="m0 .5h1078.5v718.999h-1078.5z" transform="translate(-748.63852 -250.0996)"/></clipPath><clipPath id="K"><path d="m0 .5h1078.5v718.999h-1078.5z" transform="translate(-779.13564 -417.29881)"/></clipPath><clipPath id="L"><path d="m0 .5h1078.5v718.999h-1078.5z" transform="translate(-769.21764 -415.81101)"/></clipPath><clipPath id="M"><path d="m0 .5h1078.5v718.999h-1078.5z" transform="translate(-760.92849 -413.37891)"/></clipPath><clipPath id="N"><path d="m0 .5h1078.5v718.999h-1078.5z" transform="translate(-751.50572 -412.03271)"/></clipPath><clipPath id="O"><path d="m0 .5h1078.5v718.999h-1078.5z" transform="translate(-737.26542 -354.62301)"/></clipPath><clipPath id="P"><path d="m0 .5h1078.5v718.999h-1078.5z" transform="translate(-705.43152 -269.13481)"/></clipPath><clipPath id="Q"><path d="m0 .5h1078.5v718.999h-1078.5z" transform="translate(-742.37972 -270.43161)"/></clipPath><clipPath id="R"><path d="m0 .5h1078.5v718.999h-1078.5z" transform="translate(-745.83382 -260.4775)"/></clipPath><clipPath id="S"><path d="m0 .5h1078.5v718.999h-1078.5z" transform="translate(-332.68541 -250.0996)"/></clipPath><clipPath id="T"><path d="m0 .5h1078.5v718.999h-1078.5z" transform="translate(-302.18831 -417.29881)"/></clipPath><clipPath id="U"><path d="m0 .5h1078.5v718.999h-1078.5z" transform="translate(-312.10681 -415.81101)"/></clipPath><clipPath id="V"><path d="m0 .5h1078.5v718.999h-1078.5z" transform="translate(-320.39581 -413.37891)"/></clipPath><clipPath id="W"><path d="m0 .5h1078.5v718.999h-1078.5z" transform="translate(-329.81821 -412.03271)"/></clipPath><clipPath id="X"><path d="m0 .5h1078.5v718.999h-1078.5z" transform="translate(-344.05841 -354.62301)"/></clipPath><clipPath id="Y"><path d="m0 .5h1078.5v718.999h-1078.5z" transform="translate(-375.89241 -269.13481)"/></clipPath><clipPath id="Z"><path d="m0 .5h1078.5v718.999h-1078.5z" transform="translate(-338.94461 -270.43161)"/></clipPath><clipPath id="aa"><path d="m0 .5h1078.5v718.999h-1078.5z" transform="translate(-335.49011 -260.4775)"/></clipPath><clipPath id="ab"><path d="m0 .5h1078.5v718.999h-1078.5z" transform="translate(-536.32891 -244.0195)"/></clipPath><clipPath id="ac"><path d="m0 .5h1078.5v718.999h-1078.5z" transform="translate(-552.19321 -259.7803)"/></clipPath><clipPath id="ad"><path d="m0 .5h1078.5v718.999h-1078.5z" transform="translate(-547.39241 -330.37401)"/></clipPath><clipPath id="ae"><path d="m0 .5h1078.5v718.999h-1078.5z" transform="translate(-532.27331 -393.10551)"/></clipPath><clipPath id="af"><path d="m0 .5h1078.5v718.999h-1078.5z" transform="translate(-547.33091 -486.97461)"/></clipPath><clipPath id="ag"><path d="m0 .5h1078.5v718.999h-1078.5z" transform="translate(-537.61552 -522.43552)"/></clipPath><clipPath id="ah"><path d="m0 .5h1078.5v718.999h-1078.5z" transform="translate(-545.55451 -564.76271)"/></clipPath><clipPath id="ai"><path d="m0 .5h1078.5v718.999h-1078.5z" transform="translate(-542.84362 -570.91852)"/></clipPath><clipPath id="aj"><path d="m0 .5h1078.5v718.999h-1078.5z" transform="translate(-545.56432 -566.02981)"/></clipPath><clipPath id="ak"><path d="m0 .5h1078.5v718.999h-1078.5z" transform="translate(-515.54861 -515.75291)"/></clipPath><clipPath id="al"><path d="m0 .5h1078.5v718.999h-1078.5z" transform="translate(-598.15801 -163.10841)"/></clipPath><clipPath id="am"><path d="m0 .5h1078.5v718.999h-1078.5z" transform="translate(-604.45202 -165.207)"/></clipPath><path d="m0 .5h1078.5v718.999h-1078.5z" fill="#f7e017" transform="matrix(1.3333333 0 0 -1.3333333 0 960)"/><path d="m0 0 1078.5-224.688v170l-1078.5 224.687z" fill="#fff" transform="matrix(1.3333333 0 0 -1.3333333 0 343.1492)"/><path d="m0 0 1078.5-224.687v149.999l-1078.5 224.688z" transform="matrix(1.3333333 0 0 -1.3333333 0 543.14947)"/><path clip-path="url(#a)" d="m0 0c-19.367 2.566-37.115 8.729-49.447 17.173-2.389 1.635-4.633 2.973-4.987 2.973-.356 0-.645-1.816-.647-4.064-.003-6.379-2.567-9.581-9.008-11.251-6.16-1.599-15.558 1.625-23.177 7.948-7.889 6.548-17.001 11.545-24.71 13.551-6.353 1.653-14.777 1.389-20.868-.655-2.828-.948-6.054-2.288-7.17-2.977-1.115-.688-2.359-1.252-2.763-1.252-1.081 0-.925 6.854.206 9.04 1.485 2.872 5.161 5.702 9.432 7.259 2.162.788 3.931 1.803 3.931 2.255s-.728 2.096-1.618 3.651c-2.902 5.078-1.713 9.999 3.35 13.866 5.184 3.957 13.949 4.641 21.704 1.695 1.952-.743 3.77-1.351 4.038-1.351 1.016 0 .396 1.422-2.409 5.519-3.246 4.741-3.886 7.081-3.479 12.714.518 7.148 6.34 12.984 13.467 13.5 5.821.421 9.445-1.532 18.029-9.718 25.655-24.463 53.544-37.938 86.074-41.59 8.21-.921 24.726-.426 34.417 1.033 29.271 4.407 58.761 19.124 81.794 40.82 6.378 6.007 9.445 7.6 14.68 7.62 4.548.017 7.735-1.448 10.994-5.056 2.977-3.294 3.979-6.427 3.661-11.431-.205-3.216-.731-4.791-2.64-7.901-2.819-4.597-2.339-5.018 3.238-2.85 7.543 2.932 16.83 1.579 21.844-3.182 4.409-4.188 4.828-8.378 1.405-14.063-1.252-2.079-2.277-4.031-2.277-4.338 0-.572.951-.843 5.528-1.577 5.99-.961 9.429-5.417 9.429-12.218 0-2.033-.252-3.697-.561-3.697s-2.576.832-5.04 1.848c-6.987 2.881-10.959 3.624-19.109 3.574-6.215-.037-8.357-.332-12.68-1.742-6.639-2.164-13.727-6.344-19.508-11.502-6.366-5.679-10.373-7.471-16.582-7.413-5.757.053-9.695 1.731-11.774 5.02-1.112 1.758-1.27 2.831-1 6.802.175 2.593.142 4.714-.074 4.714-.215 0-2.461-1.424-4.989-3.165-6.635-4.568-10.873-6.824-18.468-9.831-23.183-9.178-56.628-13.144-82.236-9.751" fill="#cf1126" transform="matrix(1.3333333 0 0 -1.3333333 688.54147 759.62373)"/><path clip-path="url(#b)" d="m0 0c4.125 2.104 9.529 7.607 11.743 11.958 1.765 3.468 2.013 4.662 2.225 10.729.195 5.594.028 7.24-.92 9.104-1.064 2.088-1.399 2.276-4.06 2.276-2.572 0-3.068-.25-4.388-2.21-1.906-2.826-2.098-8.924-.35-11.083 1.089-1.345 1.243-1.363 3.555-.397 3.216 1.344 3.76 1.278 3.753-.453-.02-4.416-6.347-12.92-12.986-17.449-1.787-1.22-3.389-2.584-3.561-3.033-.483-1.256 1.969-.982 4.989.558" fill="#fc0" transform="matrix(1.3333333 0 0 -1.3333333 831.17813 719.66147)"/><path clip-path="url(#c)" d="m0 0c3.992 1.32 6.264 3.734 7.896 8.395.814 2.324 1.364 4.738 1.221 5.364-.339 1.488-2.058 1.413-3.962-.173-1.303-1.086-1.459-1.641-1.086-3.853.948-5.608-1.042-6.998-11.648-8.133-1.046-.113-4.09.067-6.765.399-5.04.626-6.84.128-5.013-1.388.554-.46 1.956-1.08 3.116-1.378 2.825-.724 13.212-.234 16.241.767" fill="#ffd42a" transform="matrix(1.3333333 0 0 -1.3333333 708.9424 751.75787)"/><path clip-path="url(#d)" d="m0 0c.602.544 2.663 1.495 4.581 2.113 2.558.825 3.88 1.708 4.958 3.311 3.114 4.634 2.534 8.621-2.039 14.008-2.479 2.92-3.581 2.839-5.558-.404-1.71-2.803-1.671-2.978.792-3.617 1.289-.334 2.527-1.282 3.206-2.457 2.682-4.634 1.892-7.505-2.073-7.537-3.605-.03-4.593-.539-5.566-2.871-.504-1.206-.916-2.494-.916-2.863 0-.984 1.36-.819 2.615.317" fill="#ffd42a" transform="matrix(1.3333333 0 0 -1.3333333 738.23933 750.51827)"/><path clip-path="url(#e)" d="m0 0c.678 1.843.912 5.149.841 11.898-.055 5.141-.259 9.506-.453 9.701-.599.598-3.56-1.304-3.951-2.537-.204-.64.124-2.119.727-3.286.922-1.782 1.043-3.452.758-10.465-.36-8.862.223-10.349 2.078-5.311" fill="#ffd42a" transform="matrix(1.3333333 0 0 -1.3333333 728.6352 743.53387)"/><path clip-path="url(#f)" d="m0 0c.354 1.653.818 5.026 1.03 7.496.212 2.469.713 5.596 1.114 6.947 1.024 3.453-.005 4.369-2.731 2.427l-2.039-1.451.426-4.969c.386-4.477-.32-12.835-1.356-16.074-.272-.853.125-.636 1.256.685.91 1.063 1.946 3.286 2.3 4.939" fill="#ffd42a" transform="matrix(1.3333333 0 0 -1.3333333 706.072 737.90493)"/><path clip-path="url(#g)" d="m0 0c2.381 2.178 2.87 3.538 3.771 10.497.464 3.576 1.032 7.453 1.263 8.616.516 2.604-.511 2.782-3.278.568-1.811-1.449-1.881-1.675-1.2-3.893.902-2.938.095-10.21-1.383-12.466-1.124-1.716-3.426-2.102-5.596-.94-.953.509-1.15 1.108-.854 2.591.554 2.77-1.036 3.096-5.425 1.11-4.107-1.858-5.69-1.696-5.131.526.223.891-.015 1.78-.608 2.272-.9.747-1.784.73-7.791-.146-1.005-.146-1.301.181-1.301 1.437 0 .894-.202 1.935-.449 2.313-.256.393-3.156.734-6.756.793-6.936.117-11.85 1.263-15.261 3.562-3.478 2.344-3.788 4.191-1.459 8.707 1.081 2.094 2.303 4.856 2.718 6.139.415 1.282 1.625 3.166 2.69 4.185 1.064 1.021 1.935 2.131 1.935 2.469 0 .862-4.377.057-6.207-1.142-1.243-.815-1.453-1.387-1.164-3.175.393-2.42-1.143-6.022-4.035-9.459-3.178-3.777-7.855-2.226-14.071 4.666-2.343 2.6-3.221 3.2-3.82 2.612-1.119-1.1-.238-4.931 1.509-6.565 1.963-1.837 9.517-5.347 11.532-5.361 2.029-.013 2.674-.481 3.901-2.836 1.555-2.98 11.464-5.999 21.131-6.436 3.058-.138 3.267-.261 3.58-2.098.331-1.935.371-1.952 5.043-2.142 4.695-.19 5.37-.514 3.974-1.911-.405-.405-.556-1.208-.335-1.784.333-.867 1.098-.981 4.468-.667 2.237.209 4.655.519 5.375.688.988.234 1.545-.209 2.283-1.814.749-1.631 1.503-2.219 3.251-2.531 3.211-.576 5.928-.006 7.7 1.615" fill="#ffd42a" transform="matrix(1.3333333 0 0 -1.3333333 686.0616 741.1224)"/><path clip-path="url(#h)" d="m0 0c5.849 2.88 9.298 6.118 11.515 10.811 1.05 2.222 1.909 4.332 1.909 4.686 0 .807-2.879 2.155-4.603 2.155-1.725 0-2.079 1.182-1.339 4.476.721 3.208-.142 7.228-1.551 7.228-.512 0-1.418-.745-2.015-1.655-.924-1.41-.967-2.012-.292-4.064 1.001-3.042.216-5.313-2.51-7.253-1.291-.919-1.996-1.98-1.996-3.003 0-.869.111-1.581.243-1.581.134 0 1.556.733 3.16 1.629l2.915 1.63 1.718-1.352c.946-.743 1.718-1.954 1.718-2.69 0-3.554-10.144-9.541-17.114-10.101-3.706-.298-4.343-.172-5.63 1.115-1.046 1.046-1.351 1.93-1.09 3.171.198.946.558 2.672.799 3.834.643 3.099-.695 2.678-2.989-.94-1.893-2.985-2.455-6.176-1.386-7.862.866-1.365 6.646-2.672 10.735-2.428 2.57.153 5.107.867 7.803 2.194" fill="#fc0" transform="matrix(1.3333333 0 0 -1.3333333 801.82013 736.3568)"/><path clip-path="url(#i)" d="m0 0c-1.547 2.361-.619 5.206 1.698 5.206 1.374 0 1.639-.337 1.804-2.309.139-1.646-.173-2.641-1.087-3.468-1.238-1.121-1.318-1.102-2.415.571" fill="#cf1126" transform="matrix(1.3333333 0 0 -1.3333333 840.018 686.3828)"/><path clip-path="url(#j)" d="m0 0c3.673 3.674 5.234 8.145 5.256 15.051l.015 5.191 3.036 1.442c3.951 1.876 7.694 5.624 7.694 7.704 0 2.133-.95 2.025-2.673-.305-1.25-1.69-2.923-2.713-9.032-5.518-1.544-.709-1.644-1.088-1.994-7.551-.404-7.452-1.419-10.243-5.577-15.327-2.543-3.109-2.642-3.509-.865-3.509.725 0 2.587 1.27 4.14 2.822" fill="#fc0" transform="matrix(1.3333333 0 0 -1.3333333 853.87347 707.32427)"/><path clip-path="url(#k)" d="m0 0c1.11 1.4 2.768 4.254 3.686 6.34.917 2.086 2.283 4.455 3.035 5.264 1.763 1.897.775 3.067-2.063 2.444-1.501-.329-2.104-.886-2.363-2.179-.851-4.244-2.385-8.579-3.752-10.599-2.48-3.666-2.54-3.818-1.52-3.818.528 0 1.868 1.147 2.977 2.548" fill="#ffd42a" transform="matrix(1.3333333 0 0 -1.3333333 606.37667 700.75387)"/><path clip-path="url(#l)" d="m0 0c.355 1.067-1.682 1.83-2.556.956-.374-.374-.473-1.014-.22-1.423.574-.929 2.414-.62 2.776.467" fill="#fc0" transform="matrix(1.3333333 0 0 -1.3333333 800.42813 701.76693)"/><path clip-path="url(#m)" d="m0 0c3.315 1.68 6.483 5.604 6.483 8.03 0 1.588-2.666 3.339-5.082 3.339-1.071 0-3.086-.877-4.698-2.045-5.044-3.652-10.436-2.907-13.386 1.852-2.428 3.916-4.964 6.046-7.199 6.046-2.795 0-2.908-1.754-.174-2.707 1.323-.461 2.421-1.577 3.327-3.38 2.659-5.29 4.212-6.234 11.28-6.848l4.552-.395.2-2.764c.11-1.521.486-2.764.835-2.764.348 0 2.087.737 3.862 1.636" fill="#ffd42a" transform="matrix(1.3333333 0 0 -1.3333333 588.25307 692.43227)"/><path clip-path="url(#n)" d="m0 0c-.581 1.513.238 2.926 1.695 2.926 1.334 0 1.651-.985.927-2.873-.5-1.304-2.129-1.336-2.622-.053" fill="#cf1126" transform="matrix(1.3333333 0 0 -1.3333333 586.80573 686.37627)"/><path clip-path="url(#o)" d="m0 0c.355 1.068-1.682 1.83-2.556.956-.374-.374-.473-1.014-.22-1.423.574-.929 2.414-.62 2.776.467" fill="#fc0" transform="matrix(1.3333333 0 0 -1.3333333 874.1248 682.69267)"/><path clip-path="url(#p)" d="m0 0c-.537.105-3.609.537-6.828.959-16.573 2.17-36.293 9.021-50.747 17.632-32.614 19.428-56.468 53.139-63.971 90.412-8.577 42.601-2.468 79.249 17.66 105.955 3.666 4.863 7.532 8.882 6.817 7.087-.213-.537-1.742-4.261-3.396-8.276-9.301-22.573-10.457-46.435-3.538-73.006 2.739-10.521 5.314-17.283 10.156-26.676 16.956-32.892 48.726-57.156 83.768-63.977 2.861-.556 8.274-1.602 12.03-2.324 9.867-1.895 15.239-1.705 28.581 1.015 12.468 2.541 22.516 5.559 31.556 9.48 27.439 11.9 50.244 34.609 61.933 61.673 8.003 18.528 11.764 45.723 9.217 66.652-1.538 12.644-5.521 26.487-10.429 36.252-1.034 2.056-1.597 3.739-1.25 3.739 1.079 0 8.515-9.093 12.864-15.73 9.584-14.628 16.066-32.788 18.382-51.503 1.905-15.387.258-40.034-3.63-54.329-7.985-29.362-25.458-57.246-46.595-74.357-22.398-18.131-46.182-27.522-76.895-30.36-6.442-.595-23.232-.803-25.685-.318" fill="#cf1126" transform="matrix(1.3333333 0 0 -1.3333333 702.67227 700.224)"/><path clip-path="url(#q)" d="m0 0c.619.537 1.314 1.983 1.546 3.215.23 1.231.748 2.328 1.15 2.437.402.11 1.967.535 3.478.945 1.846.501 3.306 1.48 4.454 2.984 2.606 3.418 2.358 7.831-1.024 18.246-1.502 4.625-2.946 9.142-3.208 10.035-.623 2.125-1.174 2.051-3.072-.409l-1.569-2.036 1.631-1.938c2.163-2.571 5.652-13.126 5.752-17.402.053-2.281-.303-3.985-1.082-5.175-1.257-1.918-.612-1.88-9.994-.597-2.083.285-3.41.041-5.384-.989-3.473-1.809-5.041-1.737-5.958.277-1.139 2.499-2.151 1.548-2.151-2.022v-3.197h3.558 3.559l.415-2.506c.227-1.379.795-2.742 1.262-3.03 1.183-.732 5.283-.014 6.637 1.162" fill="#fc0" transform="matrix(1.3333333 0 0 -1.3333333 778.30187 683.53907)"/><path clip-path="url(#r)" d="m0 0c-1.353 2.064-.779 3.582 1.353 3.582 1.172 0 1.843-.477 2.278-1.62 1.309-3.445-1.621-5.028-3.631-1.962" fill="#d40000" transform="matrix(1.3333333 0 0 -1.3333333 771.52453 679.44787)"/><path clip-path="url(#s)" d="m0 0c2.05.882 4.487 2.735 6.533 4.97l3.264 3.563 3.766-.457c4.664-.565 4.741-.611 4.741-2.839 0-1.77.115-1.829 4.389-2.233 2.414-.228 5.597-.416 7.074-.419 1.894-.003 2.946-.37 3.576-1.248.84-1.171 1.327-1.204 8.366-.569 6.581.593 7.877.537 10.846-.472 2.107-.717 4.425-1.027 6.185-.829 5.039.568 12.01 4.714 13.02 7.744.121.364 1.947 1.009 4.057 1.431 5.091 1.017 5.324 2.109.575 2.703-2.059.257-5.155 1.023-6.88 1.704-1.726.68-4.085 1.236-5.244 1.236-2.556 0-4.997-1.584-4.997-3.241 0-1.078.387-1.178 3.413-.87 2.853.289 3.709.112 5.209-1.074.986-.783 1.624-1.697 1.417-2.033-.671-1.085-6.607-3.792-9.238-4.213-1.756-.281-3.188-.082-4.573.634-2.307 1.193-5.7 1.377-6.338.344-.276-.447-.995-.171-1.994.768l-1.562 1.467-3.548-1.47c-3.592-1.49-4.896-1.409-4.896.3 0 .785-1.054.874-6.34.532-5.834-.377-6.434-.305-7.522.91-1.006 1.122-1.057 1.519-.341 2.666.665 1.065.674 1.513.04 2.146-.63.63-1.425.634-3.732.017-5.793-1.55-7.465-.69-7.465 3.836 0 3.962-3.235 5.658-6.47 3.392-5.315-3.722-6.694-8.127-3.084-9.849 2.655-1.267 1.98-2.764-2.191-4.851-5.968-2.986-11.224-2.606-21.231 1.537-2.463 1.02-3.095.61-2.531-1.638.554-2.206 2.563-3.414 7.586-4.562 5.395-1.231 11.919-.841 16.12.967" fill="#fc0" transform="matrix(1.3333333 0 0 -1.3333333 661.794 675.51173)"/><path clip-path="url(#t)" d="m0 0c-.251.655.059 1.412.804 1.957 1.03.753 1.355.746 2.145-.044.512-.513.755-1.392.538-1.957-.518-1.351-2.964-1.319-3.487.044" fill="#cf1126" transform="matrix(1.3333333 0 0 -1.3333333 668.25693 658.50653)"/><path clip-path="url(#u)" d="m0 0c3.535 2.241 3.452 2.068 3.959 8.292.358 4.389.295 4.715-.898 4.715-1.725 0-2.628-1.895-2.628-5.514 0-2.317-.363-3.362-1.597-4.595-2.937-2.938-10.244-1.595-11.159 2.049-.316 1.259.083 2.385 1.616 4.56 3.19 4.525 2.467 5.631-1.441 2.199-2.685-2.357-3.171-2.43-2.66-.395.469 1.87-.505 2.615-2.698 2.065-1.124-.282-1.725-.989-1.997-2.346-.266-1.331-.875-2.064-1.936-2.33-1.771-.445-4.789 1.233-4.789 2.662 0 1.062 4.518 6.575 10.326 12.603 2.189 2.271 3.98 4.393 3.98 4.715 0 .321-1.171.584-2.601.584-2.095 0-2.602-.235-2.602-1.201 0-.659-2.926-4.494-6.502-8.522-7.457-8.397-8.077-10.145-4.389-12.394 2.974-1.813 6.777-1.674 9.765.356l2.427 1.649v-2.992c0-3.82.761-5.192 3.759-6.775 3.768-1.989 8.324-1.757 12.065.615" fill="#fc0" transform="matrix(1.3333333 0 0 -1.3333333 657.0108 660.80213)"/><path clip-path="url(#v)" d="m0 0c.008 4.129.114 4.479 1.301 4.266 7.445-1.331 10.888-.335 14.105 4.08 1.759 2.414 1.91 3.027 1.679 6.777l-.256 4.123 3.611-.433c6.548-.784 6.622-.825 6.166-3.499-1.242-7.299-3.522-11.319-9.149-16.126-3.935-3.362-3.924-5.006.021-3.134 3.337 1.584 7.214 5.567 9.3 9.558 1.532 2.931 1.801 4.237 1.828 8.873.029 4.877.187 5.562 1.537 6.655 1.131.916 2.39 1.18 5.077 1.066 3.228-.138 3.73.03 5.197 1.735 1.278 1.485 1.541 2.332 1.232 3.977-.568 3.027.072 4.086 3.532 5.839 4.685 2.374 6.507 4.901 6.507 9.031 0 3.799-1.174 6.039-2.833 5.402-1.259-.483-1.446-3.767-.316-5.576.414-.663.569-1.681.347-2.262-.606-1.58-4.116-3.484-7.297-3.961-4.016-.602-6.793-2.747-8.888-6.864-3.331-6.546-2.851-6.244-5.759-3.617-4.463 4.033-8.41 2.967-10.088-2.724l-.717-2.432-1.203 2.438c-1.222 2.478-2.673 3.068-4.083 1.659-1.261-1.262-.887-3.254 1.182-6.309 1.067-1.573 1.94-3.563 1.94-4.421 0-4.003-3.785-7.241-7.402-6.334-1.936.486-3.653 3.203-3.653 5.781 0 2.332-1.748 2.114-2.274-.285-.885-4.03-2.695-2.39-3.489 3.16-.538 3.759-1.899 3.963-3.573.537-1.07-2.191-1.099-2.598-.248-3.576 1.774-2.04 4.553-10.171 4.885-14.296.454-5.637 1.77-4.978 1.781.892" fill="#fc0" transform="matrix(1.3333333 0 0 -1.3333333 800.2224 655.9584)"/><path clip-path="url(#w)" d="m0 0c-1.587 1.16-.859 3.021 1.182 3.021 1.857 0 3.326-1.535 2.795-2.918-.469-1.222-2.379-1.271-3.977-.103" fill="#cf1126" transform="matrix(1.3333333 0 0 -1.3333333 828.84747 626.6784)"/><path clip-path="url(#x)" d="m0 0c-.508 1.602.682 3.221 2.365 3.221 1.249 0 1.602-1.504.826-3.524-.564-1.472-2.692-1.27-3.191.303" fill="#cf1126" transform="matrix(1.3333333 0 0 -1.3333333 847.88387 620.87627)"/><path clip-path="url(#y)" d="m0 0c.122.628-.205 1.085-.774 1.085-1.208 0-1.937-1.061-1.366-1.985.588-.953 1.887-.406 2.14.9" fill="#fc0" transform="matrix(1.3333333 0 0 -1.3333333 621.02 655.30987)"/><path clip-path="url(#z)" d="m0 0c0 .931-.35 1.281-1.13 1.131-1.696-.326-1.885-2.479-.218-2.479.931 0 1.348.418 1.348 1.348" fill="#fc0" transform="matrix(1.3333333 0 0 -1.3333333 688.79987 647.73173)"/><path clip-path="url(#A)" d="m0 0 1.798 2.358 6.746-.452c8.215-.551 9.197-.092 15.288 7.152 2.239 2.662 4.445 4.84 4.903 4.84s.833.732.833 1.625c0 2.359-2.829 2.252-4.34-.162-2.176-3.476-8.244-10.036-9.85-10.646-.895-.34-2.937-.423-4.537-.183-2.425.364-2.712.547-1.722 1.101 1.716.96 5.493 4.851 5.493 5.658 0 1.051-3.126 2.009-5.085 1.558-.958-.221-3.243-1.228-5.076-2.238-3.47-1.911-6.096-1.959-6.096-.11 0 .552 1.537 2.662 3.415 4.69 1.877 2.028 4.243 4.615 5.256 5.748 1.015 1.135 2.112 2.063 2.439 2.063s.595.438.595.975c0 .694-.705.975-2.439.975-2.231 0-2.574-.252-4.004-2.948-.861-1.622-2.588-3.848-3.839-4.945-1.845-1.621-2.675-1.933-4.397-1.654-3.373.548-5.479 2.254-5.479 4.441 0 1.043-.416 2.055-.924 2.251-1.373.526-3.628-.913-3.628-2.317 0-2.386.858-3.367 4.592-5.252 3.318-1.674 3.802-2.165 3.982-4.032.181-1.881.413-2.11 2.023-1.999 2.571.18 3.579-2.111 2.147-4.881-1.114-2.152-1.411-5.974-.466-5.974.315 0 1.383 1.061 2.372 2.358" fill="#fc0" transform="matrix(1.3333333 0 0 -1.3333333 594.75427 640.31507)"/><path clip-path="url(#B)" d="m0 0c0 1.06.595 1.206 2.277.561.864-.332.908-.528.216-.966-1.348-.855-2.493-.668-2.493.405" fill="#f0f" transform="matrix(1.3333333 0 0 -1.3333333 598.63067 633.4896)"/><path clip-path="url(#C)" d="m0 0c0 .566 2.847 2.055 3.932 2.055 1.265 0 .568-1.813-.843-2.191-2.047-.549-3.089-.503-3.089.136" fill="#cf1126" transform="matrix(1.3333333 0 0 -1.3333333 602.09867 629.72653)"/><g fill="#fc0"><path clip-path="url(#D)" d="m0 0c0 1.41-2.537 1.216-2.813-.216-.177-.923.113-1.142 1.292-.975.836.119 1.521.654 1.521 1.191" transform="matrix(1.3333333 0 0 -1.3333333 659.75493 635.65627)"/><path clip-path="url(#E)" d="m0 0c.259 1.344-1.618 2.249-2.609 1.259-.991-.991-.085-2.868 1.258-2.61.623.121 1.231.728 1.351 1.351" transform="matrix(1.3333333 0 0 -1.3333333 809.15213 622.42187)"/><path clip-path="url(#F)" d="m0 0c1.756 1.511 1.777 1.612 1.012 4.927-1.074 4.652-1.006 5.155.765 5.599 2.242.563 7.927-2.486 9.19-4.929.975-1.885.948-2.017-.712-3.556-1.784-1.653-1.778-3.583.012-3.583 1.477 0 5.569 3.87 5.569 5.268 0 1.925-4.543 6.485-8.128 8.158-2.218 1.036-4.445 1.519-7.011 1.524-4.599.008-5.222-.984-3.978-6.338 1.457-6.268-.521-7.115-5.575-2.387-3.75 3.506-5.224 7.16-5.21 12.911.015 6.173 2.375 9.221 7.688 9.934 3.531.474 3.448 1.301-.187 1.847-5.297.794-9.779-2.744-11.48-9.063-1.888-7.009 2.437-15.554 10.097-19.948 4.012-2.301 5.61-2.375 7.948-.364" transform="matrix(1.3333333 0 0 -1.3333333 576.64813 604.1224)"/><path clip-path="url(#G)" d="m0 0c.429.43.78 1.396.78 2.15 0 .753.732 2.361 1.626 3.573s1.625 2.448 1.625 2.748c0 1.231-2.025 1.189-3.634-.076-1.637-1.289-2.868-1.318-2.868-.068 0 .317.783.958 1.741 1.424 2.384 1.163 2.585 2.309.567 3.228-2.579 1.175-5.168-.969-5.432-4.5-.176-2.363.018-2.768 1.835-3.837 1.666-.98 1.971-1.503 1.692-2.907-.482-2.424.53-3.273 2.068-1.735" transform="matrix(1.3333333 0 0 -1.3333333 855.09347 593.8672)"/><path clip-path="url(#H)" d="m0 0c1.432 1.294 2.603 2.755 2.603 3.247 0 .493 1.244 1.79 2.763 2.882 4.313 3.098 5.258 6.231 3.332 11.044-.755 1.885-3.116 4.499-8.238 9.116-3.948 3.561-7.569 6.474-8.046 6.474-1.399 0-1.149-5.153.273-5.607 2.563-.819 4.107-1.863 8.134-5.497 4.688-4.231 6.845-8.184 5.667-10.385-1.134-2.121-2.635-1.463-6.764 2.964-2.172 2.329-4.315 4.231-4.762 4.227-.474-.005-.813-.849-.813-2.026 0-1.475.787-2.892 2.927-5.272 3.486-3.878 3.828-6.212 1.212-8.269-.941-.741-1.908-1.348-2.147-1.348-.24 0-1.004 1.155-1.701 2.566-1.463 2.967-10.39 12.39-11.737 12.39-.603 0-.908-.759-.908-2.259 0-1.809.357-2.444 1.797-3.188 1.777-.919 6.15-5.332 10.557-10.656 1.252-1.51 2.496-2.75 2.762-2.751.268-.002 1.657 1.055 3.089 2.348" transform="matrix(1.3333333 0 0 -1.3333333 881.27453 590.90493)"/><path clip-path="url(#I)" d="m0 0c-.58 1.864-12.557 14.192-13.787 14.192-.645 0-.836-.753-.692-2.72.175-2.376.437-2.784 2.069-3.217 1.027-.273 4.181-2.747 7.009-5.498 2.827-2.751 5.304-4.837 5.506-4.636.202.202.155 1.047-.105 1.879" transform="matrix(1.3333333 0 0 -1.3333333 892.94507 557.474)"/></g><g fill="#cf1126"><path clip-path="url(#J)" d="m0 0c2.62.275 5.256-1.908 4.362-4.697-.22-.505-1.101-1.482-2.572-2.48-1.496-1.015-3.591-2.095-6.169-3.07-5.157-1.95-12.255-3.456-20.527-3.235h1.175c-8.396-.111-12.901.667-18.772 2.605-4.963 1.623-9.243 2.856-9.543 7.242 0 .755.229 1.198.609 1.559.38.36.969.64 1.715.803 1.492.324 3.213-.538 4.711-1.03 3.193-1.048 9.951-3.906 21.278-3.978 5.97-.153 10.374 1.269 14.93 2.787 5.454 1.816 6.218 3.122 8.803 3.494" transform="matrix(1.3333333 0 0 -1.3333333 998.18467 626.53387)"/><path clip-path="url(#K)" d="m0 0c.079-.006.145-.026.213-.047.272-.083.561-.283.849-.827v-.023c.1-.17.352-1.071.426-2.314.074-1.244.037-2.866-.071-4.771-.216-3.81-.77-8.707-1.582-13.933-1.625-10.447-4.257-22.237-7.037-29.283-2.725-6.522-8.692-12.369-14.5-17.641-5.809-5.27-11.471-9.867-13.509-14.618-.38-.85-.56-2.037-.756-3.731-.195-1.7-.343-3.858-.471-6.376-.259-5.038-.416-11.5-.473-18.444-.091-11.034.021-23.16.213-32.779-.272-.118-.557-.243-.851-.377-1.403-.644-3.053-1.476-4.889-2.315-3.669-1.677-8.104-3.304-12.705-3.165h-.023c-9.278.068-13.413 2.783-16.555 3.992h-.023c-.603.231-1.263.407-1.937.519.118 8.823.934 69.985.921 80.6v.023c-.101 2.907 2.654 6.611 6.236 9.919 3.581 3.308 7.823 6.245 10.295 8.1l.024.024.048.024c1.469 1.306 4.468 4.467 7.297 7.604 1.414 1.568 2.78 3.134 3.849 4.416 1.069 1.281 1.806 2.171 2.172 2.904.105.21.687.973 1.488 1.748.802.775 1.837 1.618 2.953 2.338 1.114.72 2.315 1.312 3.377 1.558 1.061.248 1.932.179 2.644-.259.637-.392.883-1.017.851-2.173-.033-1.155-.451-2.714-1.111-4.345-1.319-3.263-3.565-6.891-5.195-9.116-.995-1.357-1.914-3.625-2.811-6.258-.895-2.633-1.721-5.589-2.314-8.123-.592-2.536-.98-4.478-.897-5.715.021-.31-.089-.672.496-1.134.293-.231.807-.272 1.087-.165.279.105.421.251.542.378.485.508.809 1.169 1.346 2.361v.024l.025.023c.812 2.076 3.98 4.39 8.004 6.731 4.026 2.341 8.82 4.793 12.682 7.769.93.754 1.165 1.869 1.441 3.189.275 1.318.544 2.964 1.11 4.982 1.132 4.036 3.466 9.591 9.47 16.649l.306.354-.093.473c-1.316 6.725.459 13.194 2.88 17.192 1.21 1.999 2.621 3.359 3.637 3.826.381.174.683.232.921.212" transform="matrix(1.3333333 0 0 -1.3333333 1038.8475 403.6016)"/><path clip-path="url(#L)" d="m0 0c.453-.01.852-.184 1.228-.472.74-.568 1.319-1.715 1.275-3.236-1.966-4.239-3.138-9.939-2.078-15.94-5.951-7.092-8.364-12.833-9.541-17.027-.598-2.132-.874-3.859-1.134-5.101-.256-1.228-.558-1.885-.755-2.054-3.646-2.807-8.334-5.227-12.422-7.605-3.342-1.943-6.336-3.788-7.982-6.092.093.457.192.926.306 1.417.332 1.415.753 2.979 1.206 4.534.665 1.673 2.58 3.813 4.793 5.55 2.214 1.736 4.739 3.098 6.423 3.495l.733.165.047.732c.127 1.906 1.682 6.302 3.849 10.414 2.167 4.113 5.023 8.083 7.274 9.541l.472.307-.023.567c-.363 13.066 2.538 18.803 4.794 20.285.563.372 1.081.531 1.535.52" transform="matrix(1.3333333 0 0 -1.3333333 1025.6235 405.58533)"/><path clip-path="url(#M)" d="m0 0c.344-.021.596-.13.896-.496.285-.344.584-.968.78-1.889-1.192-3.513-1.877-8.535-1.724-15.515-2.751-2.012-5.359-5.907-7.486-9.943-2.056-3.901-3.606-7.83-3.99-10.509-2.047-.636-4.378-2.004-6.519-3.684-.569-.446-1.127-.91-1.653-1.393.608 1.524 1.217 2.773 1.676 3.401 1.719 2.344 4.011 6.049 5.432 9.564.484 1.194.876 2.355 1.087 3.471 2.325 2.429 4.538 6.83 3.991 11.171-.486 5.567 1.825 11.033 4.322 13.838 1.249 1.404 2.5 2.026 3.188 1.984" transform="matrix(1.3333333 0 0 -1.3333333 1014.5713 408.82813)"/><path clip-path="url(#N)" d="m0 0c.262-.018.554-.129.921-.401.477-.354 1.055-1.011 1.653-2.008-1.837-3.302-3.05-7.68-2.645-12.256v-.024-.023c.331-2.578-.704-5.516-2.031-7.675-.255.905-.767 1.703-1.606 2.22-.895.551-1.901.714-2.904.661.463 6.864 1.888 13.213 3.707 16.696.951 1.821 1.968 2.719 2.645 2.81.085.012.172.006.26 0" transform="matrix(1.3333333 0 0 -1.3333333 1002.0076 410.62307)"/><path clip-path="url(#O)" d="m0 0c.103-.139.006-.157 0-.07-.001.018 0 .048 0 .07" transform="matrix(1.3333333 0 0 -1.3333333 983.02053 487.16933)"/><path clip-path="url(#P)" d="m0 0c.444-.09.871-.208 1.252-.354 1.643-.632 4.077-1.95 7.863-2.928l-9.162.094c0 .001.044 2.943.047 3.188" transform="matrix(1.3333333 0 0 -1.3333333 940.57533 601.1536)"/><path clip-path="url(#Q)" d="m0 0c1.942.275 3.896-1.907 3.234-4.697-.164-.505-.817-1.482-1.907-2.48-1.109-1.015-2.663-2.094-4.574-3.07-3.823-1.95-9.086-3.456-15.22-3.235h.871c-6.224-.111-9.564.667-13.917 2.606-3.679 1.622-6.853 2.855-7.075 7.241 0 .755.169 1.198.451 1.559.283.36.719.64 1.272.803 1.105.325 2.383-.538 3.493-1.03 2.366-1.048 7.378-3.906 15.775-3.978 4.427-.153 7.692 1.269 11.07 2.787 4.045 1.816 4.61 3.122 6.527 3.494" transform="matrix(1.3333333 0 0 -1.3333333 989.8396 599.42453)"/><path clip-path="url(#R)" d="m0 0c2.276.276 4.566-1.907 3.79-4.697-.191-.505-.957-1.482-2.235-2.48-1.299-1.015-3.119-2.094-5.36-3.07-4.48-1.949-10.646-3.456-17.835-3.235h1.022c-7.295-.111-11.209.667-16.31 2.606-4.311 1.622-8.03 2.855-8.29 7.241 0 .755.198 1.199.529 1.559s.842.641 1.49.804c1.296.324 2.792-.539 4.094-1.03 2.772-1.049 8.645-3.907 18.485-3.979 5.187-.153 9.013 1.269 12.972 2.787 4.739 1.816 5.402 3.122 7.648 3.494" transform="matrix(1.3333333 0 0 -1.3333333 994.44507 612.69667)"/><path clip-path="url(#S)" d="m0 0c-2.62.275-5.255-1.908-4.363-4.697.221-.505 1.103-1.482 2.573-2.48 1.496-1.015 3.591-2.095 6.169-3.07 5.157-1.95 12.255-3.456 20.528-3.235h-1.175c8.395-.111 12.9.667 18.771 2.605 4.962 1.623 9.243 2.856 9.542 7.242 0 .755-.228 1.198-.608 1.559-.381.36-.97.64-1.715.803-1.492.324-3.214-.538-4.711-1.03-3.192-1.048-9.951-3.906-21.278-3.978-5.971-.153-10.373 1.269-14.93 2.787-5.455 1.816-6.218 3.122-8.803 3.494" transform="matrix(1.3333333 0 0 -1.3333333 443.58053 626.53387)"/><path clip-path="url(#T)" d="m0 0c-.08-.006-.145-.026-.213-.047-.272-.083-.561-.283-.85-.827v-.023c-.099-.17-.351-1.071-.425-2.314-.074-1.244-.037-2.866.071-4.771.216-3.81.77-8.707 1.582-13.933 1.625-10.447 4.257-22.237 7.038-29.283 2.724-6.522 8.691-12.369 14.5-17.641 5.807-5.27 11.47-9.867 13.507-14.618.381-.85.561-2.037.756-3.731.196-1.7.343-3.858.472-6.376.26-5.038.416-11.5.473-18.444.091-11.034-.021-23.16-.213-32.779.272-.118.557-.243.851-.377 1.404-.644 3.053-1.476 4.888-2.315 3.67-1.677 8.105-3.304 12.705-3.165h.024c9.278.068 13.413 2.783 16.554 3.992h.024c.602.231 1.263.407 1.936.519-.118 8.823-.932 69.985-.921 80.6v.023c.102 2.907-2.653 6.611-6.234 9.919s-7.824 6.245-10.296 8.1l-.024.024-.047.024c-1.47 1.306-4.469 4.467-7.298 7.604-1.414 1.568-2.78 3.134-3.849 4.416-1.069 1.281-1.805 2.171-2.173 2.904-.104.21-.686.973-1.487 1.748-.802.775-1.837 1.618-2.952 2.338s-2.316 1.312-3.377 1.558c-1.062.248-1.934.179-2.645-.259-.637-.392-.883-1.017-.85-2.173.032-1.155.45-2.714 1.11-4.345 1.319-3.263 3.565-6.891 5.195-9.116.996-1.357 1.914-3.625 2.81-6.258s1.723-5.589 2.315-8.123c.591-2.536.98-4.478.897-5.715-.021-.31.09-.672-.496-1.134-.293-.231-.807-.272-1.087-.165-.278.105-.421.251-.542.378-.485.508-.81 1.169-1.347 2.361v.024l-.023.023c-.813 2.076-3.981 4.39-8.006 6.731s-8.819 4.793-12.681 7.769c-.93.754-1.166 1.869-1.441 3.189-.275 1.318-.544 2.964-1.11 4.982-1.132 4.036-3.466 9.591-9.47 16.649l-.307.354.095.473c1.315 6.725-.46 13.194-2.881 17.192-1.211 1.999-2.621 3.359-3.637 3.826-.381.174-.683.232-.921.212" transform="matrix(1.3333333 0 0 -1.3333333 402.91773 403.6016)"/><path clip-path="url(#U)" d="m0 0c-.454-.01-.852-.184-1.228-.472-.74-.568-1.319-1.715-1.275-3.236 1.965-4.239 3.137-9.939 2.078-15.94 5.951-7.092 8.364-12.833 9.541-17.027.598-2.132.874-3.859 1.133-5.101.256-1.228.559-1.885.756-2.054 3.646-2.807 8.333-5.227 12.422-7.605 3.341-1.943 6.335-3.788 7.982-6.092-.093.457-.193.926-.307 1.417-.331 1.415-.753 2.979-1.205 4.534-.665 1.673-2.58 3.813-4.793 5.55-2.214 1.736-4.739 3.098-6.424 3.495l-.732.165-.048.732c-.126 1.906-1.681 6.302-3.849 10.414-2.167 4.113-5.022 8.083-7.273 9.541l-.473.307.024.567c.363 13.066-2.538 18.803-4.794 20.285-.564.372-1.081.531-1.535.52" transform="matrix(1.3333333 0 0 -1.3333333 416.1424 405.58533)"/><path clip-path="url(#V)" d="m0 0c-.344-.021-.596-.13-.897-.496-.284-.344-.584-.968-.78-1.889 1.193-3.513 1.878-8.535 1.724-15.515 2.752-2.012 5.359-5.907 7.486-9.943 2.056-3.901 3.606-7.83 3.991-10.509 2.047-.636 4.378-2.004 6.518-3.684.57-.446 1.127-.91 1.653-1.393-.608 1.524-1.216 2.773-1.676 3.401-1.719 2.344-4.011 6.049-5.432 9.564-.483 1.194-.876 2.355-1.087 3.471-2.325 2.429-4.537 6.83-3.99 11.171.486 5.567-1.826 11.033-4.322 13.838-1.249 1.404-2.501 2.026-3.188 1.984" transform="matrix(1.3333333 0 0 -1.3333333 427.1944 408.82813)"/><path clip-path="url(#W)" d="m0 0c-.262-.018-.553-.129-.921-.401-.477-.354-1.055-1.011-1.653-2.008 1.837-3.302 3.049-7.68 2.645-12.256v-.024-.023c-.33-2.578.704-5.516 2.031-7.675.256.905.767 1.703 1.606 2.22.895.551 1.901.714 2.904.661-.462 6.864-1.889 13.213-3.707 16.696-.951 1.821-1.967 2.719-2.645 2.81-.085.012-.173.006-.26 0" transform="matrix(1.3333333 0 0 -1.3333333 439.7576 410.62307)"/><path clip-path="url(#X)" d="m0 0c-.103-.139-.006-.157 0-.07.001.018 0 .048 0 .07" transform="matrix(1.3333333 0 0 -1.3333333 458.74453 487.16933)"/><path clip-path="url(#Y)" d="m0 0c-.444-.09-.872-.208-1.252-.354-1.643-.632-4.077-1.95-7.864-2.928l9.163.094c0 .001-.044 2.943-.047 3.188" transform="matrix(1.3333333 0 0 -1.3333333 501.18987 601.1536)"/><path clip-path="url(#Z)" d="m0 0c-1.943.275-3.897-1.907-3.235-4.697.164-.505.818-1.482 1.908-2.48 1.109-1.015 2.662-2.094 4.574-3.07 3.823-1.95 9.086-3.456 15.219-3.235h-.871c6.225-.111 9.565.667 13.918 2.606 3.679 1.622 6.852 2.855 7.074 7.241 0 .755-.169 1.198-.451 1.559-.282.36-.719.64-1.271.803-1.106.325-2.383-.538-3.493-1.03-2.367-1.048-7.378-3.906-15.776-3.978-4.427-.153-7.691 1.269-11.07 2.787-4.044 1.816-4.609 3.122-6.526 3.494" transform="matrix(1.3333333 0 0 -1.3333333 451.92613 599.42453)"/><path clip-path="url(#aa)" d="m0 0c-2.276.276-4.566-1.907-3.791-4.697.193-.505.958-1.482 2.236-2.48 1.3-1.015 3.119-2.094 5.36-3.07 4.48-1.949 10.647-3.456 17.834-3.235h-1.02c7.294-.111 11.208.667 16.308 2.606 4.312 1.622 8.031 2.855 8.291 7.241 0 .755-.198 1.199-.529 1.559s-.842.641-1.49.804c-1.296.324-2.792-.539-4.093-1.03-2.773-1.049-8.646-3.907-18.486-3.979-5.188-.153-9.013 1.269-12.972 2.787-4.739 1.816-5.402 3.122-7.648 3.494" transform="matrix(1.3333333 0 0 -1.3333333 447.32013 612.69667)"/><path clip-path="url(#ab)" d="m0 0c-12.48 1.316-23.35 9.227-28.612 20.82-1.761 3.88-1.714 4.885.163 3.533 3.175-2.288 7.699-4.307 9.649-4.307 1.603 0 2.933-.823 6.072-3.76 6.083-5.69 12.901-7.164 9.938-2.148-2.079 3.519-1.499 5.893 2.953 12.086 2.235 3.109 4.357 5.674 4.714 5.701.357.026 2.166-2.067 4.019-4.65 3.981-5.551 5.214-9.73 3.745-12.693-1.288-2.598-1.195-4.29.237-4.29 1.567 0 6.983 3.438 10.206 6.479 1.75 1.652 3.666 2.709 5.853 3.231 1.788.428 4.817 1.655 6.73 2.729 1.914 1.074 3.614 1.818 3.779 1.653.783-.782-4.41-9.605-7.774-13.208-6.526-6.991-12.809-10.119-22.281-11.092-2.841-.292-7.066-.33-9.391-.084" transform="matrix(1.3333333 0 0 -1.3333333 715.1052 634.64067)"/><path clip-path="url(#ac)" d="m0 0c-.205.534-.206 1.242-.002 1.573.784 1.27-1.693 7.287-4.765 11.57-1.764 2.46-3.68 5.131-4.256 5.936-.578.805-1.415 1.463-1.862 1.463-.949 0-7.108-8.366-9.694-13.168-.983-1.827-1.788-4.293-1.788-5.48 0-1.189-.312-2.161-.694-2.161-1.789 0-5.317 3.74-7.267 7.704-1.975 4.012-2.115 4.745-2.083 10.818.042 7.687 1.173 12.553 5.37 23.096 2.695 6.768 2.98 8.002 3.01 13.004.035 6.026-1.103 9.182-4.43 12.288-1.982 1.85-1.689 2.669.956 2.669 2.464 0 6.327-1.969 8.264-4.211 1.847-2.139 3.034-1.443 3.603 2.113.214 1.336 1.252 3.452 2.307 4.702 1.59 1.883 2.122 2.154 3.106 1.581 1.778-1.034 4.115-6.076 4.115-8.875 0-3.21 1.007-3.164 4.256.191 2.873 2.965 4.819 4.122 7.936 4.714 2.814.536 2.768-.627-.142-3.446-3.378-3.275-5.068-7.37-5.106-12.376-.035-4.817.617-7.165 4.178-15.017 3.357-7.402 5.134-14.579 5.134-20.733 0-6.629-1.333-10.833-4.615-14.562-3.27-3.716-5.001-4.777-5.531-3.393" transform="matrix(1.3333333 0 0 -1.3333333 736.2576 613.62627)"/><path clip-path="url(#ad)" d="m0 0c-1.638 3.211-5.062 7.171-6.199 7.171-1.027 0-6.165-5.7-6.165-6.84 0-.441-.403-1.139-.896-1.547-.695-.577-1.494-.352-3.559.999-3.357 2.198-4.872 6.286-4.828 13.032.038 5.885.982 9.904 4.233 18.023 2.363 5.899 2.558 6.849 2.341 11.38-.288 5.99-1.91 9.668-6.464 14.65-1.75 1.915-3.182 3.66-3.182 3.878s1.355.397 3.012.397c3.353 0 6.109-1.402 8.889-4.522.97-1.09 2.017-1.981 2.326-1.981s.763 1.536 1.009 3.414c.493 3.757 1.836 6.34 3.295 6.34 1.378 0 2.927-3.433 2.927-6.491 0-3.717 1.331-3.953 4.225-.75 1.3 1.439 3.37 2.949 4.599 3.354 2.31.763 5.824.361 6.506-.744.214-.346-.833-1.954-2.326-3.575-6.548-7.103-7.866-15.103-4.019-24.396 3.137-7.582 4.189-12.961 3.86-19.744-.356-7.332-1.677-10.701-5.076-12.951-1.397-.924-2.685-1.68-2.864-1.68s-.919 1.163-1.644 2.583" transform="matrix(1.3333333 0 0 -1.3333333 729.85653 519.50133)"/><path clip-path="url(#ae)" d="m0 0c-3.359 2.465-4.472 4.819-4.472 9.465 0 2.384.443 3.667 2.008 5.828 2.316 3.197 1.889 4.207-1.379 3.27-5.255-1.507-7.767-.131-7.946 4.35-.087 2.19.379 3.124 3.327 6.666 2.361 2.838 3.218 4.328 2.755 4.792-.464.463-3.258-1.957-8.985-7.784-4.572-4.65-9.711-9.402-11.421-10.558-9.834-6.649-19.234-7.675-23.531-2.569-2.196 2.612-2.075 4.087.467 5.664 1.162.721 3.137 2.38 4.389 3.687 2.948 3.077 11.733 9.418 16.094 11.617 3.538 1.783 4.384 2.999 2.088 2.999-2.985 0-12.548-6.227-19.791-12.886-2.138-1.966-5.205-4.157-6.818-4.87-3.617-1.6-10.723-2.185-13.882-1.143-2.238.739-6.302 4.573-6.302 5.947 0 .361.926 1.156 2.058 1.765 1.132.61 3.156 2.072 4.499 3.249 5.799 5.088 16.787 10.322 25.514 12.153 2.769.581 1.745 1.983-1.348 1.846-5.982-.265-17.871-5.83-24.978-11.692-8.322-6.863-20.87-6.214-24.91 1.287-.694 1.288-1.104 2.499-.912 2.691s2.666.935 5.498 1.651c3.058.773 9.114 3.278 14.904 6.165 9.116 4.546 11.808 5.516 18.087 6.52 2.819.451 2.962 1.83.223 2.155-3.532.417-8.94-1.353-18.495-6.054-12.279-6.041-15.723-7.08-22.194-6.693-5.902.353-9.225 1.87-14.015 6.4-3.131 2.961-7.577 10.505-6.705 11.377.207.206 1.649.002 3.205-.455 1.72-.506 6.652-.841 12.583-.856 8.314-.021 10.522.198 14.956 1.481 7.403 2.142 17.262 7.148 23.993 12.181 12.891 9.638 23.402 13.512 36.806 13.565 12.371.049 20.237-2.806 27.211-9.875 2.356-2.389 4.369-3.939 4.694-3.614.312.312.651 4.492.751 9.288 0 0 3.647.35 4.41-.67 0-7.786.088-8.4 1.221-8.4.743 0 1.536.761 2.027 1.944 1.055 2.547 4.978 6.043 9.16 8.162 9.058 4.59 24.719 4.731 37.294.334 5.3-1.853 11.182-5.179 16.784-9.492 5.612-4.32 17.103-10.106 23.899-12.034 6.868-1.947 18.974-2.441 25.193-1.026 2.557.581 4.959 1.058 5.336 1.058 2.291 0-1.615-7.636-6.192-12.105-8.37-8.172-19.258-8.133-34.584.122-9.547 5.141-20.965 7.949-20.965 5.155 0-.583.599-.975 1.489-.975 3.316 0 9.731-2.225 18.669-6.472 9.674-4.598 15.103-6.534 18.326-6.534 2.336 0 2.408-1.452.23-4.656-2.315-3.407-6.237-5.101-11.771-5.084-5.297.017-8.237 1.175-12.962 5.107-7.907 6.578-27.617 13.918-26.863 10.005.151-.787 1.105-1.266 3.135-1.575 6.86-1.045 14.911-4.893 23.148-11.063 2.543-1.905 5.175-3.787 5.849-4.183 1.13-.662 1.151-.864.255-2.536-1.473-2.754-5.203-4.9-9.242-5.317-5.232-.54-9.785 1.017-14.49 4.955-9.944 8.324-19.311 14.347-22.31 14.347-2.454 0-1.353-1.35 2.969-3.641 5.679-3.011 11.518-7.085 15.814-11.035 2.039-1.874 4.325-3.738 5.08-4.142 1.803-.966 1.734-2.369-.245-4.965-2.017-2.644-5.363-3.797-9.692-3.34-8.64.912-15.381 5.082-25.972 16.067-4.138 4.293-7.831 7.805-8.206 7.805-1.412 0-.586-1.916 2.144-4.969 3.384-3.785 4.038-5.917 2.757-8.983-1.135-2.716-3.014-3.346-6.877-2.306-3.948 1.063-4.563.092-1.978-3.125 3.866-4.811 3.291-10.694-1.442-14.745-1.469-1.258-3.008-2.287-3.42-2.287s-1.457 1.074-2.322 2.386c-3.043 4.619-5.718 4.592-8.674-.086-1.026-1.622-1.896-2.942-1.933-2.934-.038.009-1.422 1.009-3.075 2.223" transform="matrix(1.3333333 0 0 -1.3333333 709.69773 435.85933)"/><path clip-path="url(#af)" d="m0 0-5.125-4.062-4.605 3.472v-27.749l9.73-.118z" transform="matrix(1.3333333 0 0 -1.3333333 729.77453 310.70053)"/><path clip-path="url(#ag)" d="m0 0c-4.459-.078-9.166-.139-13.39-.968-2.935-.577-5.596-1.524-7.817-3.094.368-8.531 41-12.089 51.908-.165-2.297 1.675-5.09 2.661-8.171 3.259-4.07.789-8.572.874-12.848.945.009-2.347.025-4.692.025-7.038l-9.707.023z" transform="matrix(1.3333333 0 0 -1.3333333 716.82067 263.41933)"/><path clip-path="url(#ah)" d="m0 0-2.416-23.639 24.325-11.879-12.312 16.459 16.812 5.442z" transform="matrix(1.3333333 0 0 -1.3333333 727.406 206.98307)"/><path clip-path="url(#ai)" d="m0 0c-3.693 0-6.423-1.38-6.423-3.017 0-1.638 2.73-3.028 6.423-3.028 3.691 0 6.4 1.39 6.4 3.028 0 1.637-2.709 3.017-6.4 3.017" transform="matrix(1.3333333 0 0 -1.3333333 723.79147 198.77533)"/><path clip-path="url(#aj)" d="m0 0-6.314-.047v-49.386l6.437-.023z" transform="matrix(1.3333333 0 0 -1.3333333 727.41907 205.2936)"/><path clip-path="url(#ak)" d="m0 0c-1.021-13.117-4.347-22.266-8.976-32.357l11.097 10.293 7.72-9.167 8.363 9.328 8.525-7.881 8.202 8.202 8.524-9.971 7.398 8.202 12.544-9.006c-4.553 10.093-10.714 18.648-9.94 32.839-12.152-9.022-41.029-10.651-53.457-.482" transform="matrix(1.3333333 0 0 -1.3333333 687.39813 272.32947)"/></g><path clip-path="url(#al)" d="m0 0c.002-.901-.795-1.633-1.778-1.634-.984-.001-1.782.729-1.783 1.63v.004c-.002.902.795 1.634 1.779 1.635.983.001 1.781-.729 1.782-1.63z" fill="#fc0" transform="matrix(1.3333333 0 0 -1.3333333 797.544 742.52213)"/><path clip-path="url(#am)" d="m0 0c.001-.901-.795-1.634-1.778-1.635-.984-.001-1.782.729-1.784 1.63v.005c-.001.901.796 1.633 1.779 1.634.984.001 1.782-.729 1.783-1.63z" fill="#fc0" transform="matrix(1.3333333 0 0 -1.3333333 805.936 739.724)"/></svg>