<svg height="535.3493" viewBox="0 0 800 535.3493" width="800" xmlns="http://www.w3.org/2000/svg" xmlns:xlink="http://www.w3.org/1999/xlink"><clipPath id="a"><path d="m0 401.512h600v-401.512h-600z" transform="translate(-305.04981 -268.79171)"/></clipPath><clipPath id="b"><path d="m0 401.512h600v-401.512h-600z" transform="translate(-325.80081 -257.00311)"/></clipPath><clipPath id="c"><path d="m0 401.512h600v-401.512h-600z" transform="translate(-110.25 -379.48801)"/></clipPath><clipPath id="d"><path d="m0 401.512h600v-401.512h-600z" transform="translate(-105.2305 -251.88451)"/></clipPath><clipPath id="e"><path d="m0 401.512h600v-401.512h-600z" transform="translate(-105.2305 -251.88451)"/></clipPath><clipPath id="f"><path d="m0 401.512h600v-401.512h-600z" transform="translate(-134.71731 -315.61441)"/></clipPath><clipPath id="g"><path d="m0 401.512h600v-401.512h-600z" transform="translate(-464.76861 -118.5803)"/></clipPath><clipPath id="h"><path d="m0 401.512h600v-401.512h-600z" transform="translate(-384.90921 -245.0246)"/></clipPath><clipPath id="i"><path d="m0 401.512h600v-401.512h-600z" transform="translate(-464.76861 -331.53881)"/></clipPath><clipPath id="j"><path d="m0 401.512h600v-401.512h-600z" transform="translate(-535.75492 -266.32001)"/></clipPath><clipPath id="k"><path d="m0 401.512h600v-401.512h-600z" transform="translate(-496.71291 -202.24241)"/></clipPath><path d="m0 0h600v401.512h-600z" fill="#008000" transform="matrix(1.3333333 0 0 -1.3333333 0 535.34933)"/><path clip-path="url(#a)" d="m0 0c36.754 0 66.55-29.795 66.55-66.549 0-36.755-29.796-66.55-66.55-66.55s-66.55 29.795-66.55 66.55c0 36.754 29.796 66.549 66.55 66.549" fill="#ffe000" transform="matrix(1.3333333 0 0 -1.3333333 406.73307 176.9604)"/><path clip-path="url(#b)" d="m0 0c30.243 0 54.761-24.518 54.761-54.761 0-30.244-24.518-54.76-54.761-54.76-30.244 0-54.761 24.516-54.761 54.76 0 30.243 24.517 54.761 54.761 54.761" fill="#008000" transform="matrix(1.3333333 0 0 -1.3333333 434.40107 192.67853)"/><path clip-path="url(#c)" d="m0 0c40.179 0 72.75-32.571 72.75-72.75s-32.571-72.75-72.75-72.75-72.75 32.571-72.75 72.75 32.571 72.75 72.75 72.75" fill="#ffe000" transform="matrix(1.3333333 0 0 -1.3333333 147 29.365333)"/><path clip-path="url(#d)" d="m0 0h18.166s.819 1.666-.184 2.498c-1.003.833-4.909 1.016-3.853 3.961 2.169 6.055 2.472 4.188 3.835 18.569 1.362 14.381 2.018 36.936 2.018 36.936h-2.624s.505-7.013-1.009-16.147c-1.514-9.133-1.968-9.94-3.633-16.954-1.665-7.013-1.918-7.619-3.431-11.706-1.514-4.088-1.665-4.289-4.037-8.074-2.372-3.784-1.514-2.371-2.826-4.642-.656-1.135-1.463-.833-1.905-1.659-.441-.826-.517-2.782-.517-2.782z" fill="#802000" transform="matrix(1.3333333 0 0 -1.3333333 140.30733 199.50333)"/><path clip-path="url(#e)" d="m0 0h18.166s.819 1.666-.184 2.498c-1.003.833-4.909 1.016-3.853 3.961 2.169 6.055 2.472 4.188 3.835 18.569 1.362 14.381 2.018 36.936 2.018 36.936h-2.624s.505-7.013-1.009-16.147c-1.514-9.133-1.968-9.94-3.633-16.954-1.665-7.013-1.918-7.619-3.431-11.706-1.514-4.088-1.665-4.289-4.037-8.074-2.372-3.784-1.514-2.371-2.826-4.642-.656-1.135-1.463-.833-1.905-1.659-.441-.826-.517-2.782-.517-2.782z" fill="none" stroke="#7b3100" stroke-width="23.333" transform="matrix(1.3333333 0 0 -1.3333333 140.30733 199.50333)"/><path clip-path="url(#f)" d="m0 0c2.518.426.053-3.824-1.158-3.762.108 1.528-3.641 1.381-1.316 2.711.755.487 1.595.859 2.474 1.051m-15.625 44.125c.151-2.821-.133-6.556-1.302-9.596-1.186-3.387-2.475-6.764-2.411-10.272-1.885-.641-3.828 4.079-5.642 1.303 1.364-3.837 4.513-6.875 6.67-10.332.364-1.072 3.468-3.871 1.672-4.521-4.533 1.551-5.632 7.295-8.444 10.783-3.266 5.87-9.355 10.019-16.137 10.305-2.548-.066-10.832.632-8.677-3.731 3.174-2.158 7.086-3.565 10.22-5.988 2.336-.218 6.568-4.117 6.322-5.59-4.108 1.664-6.03 3.658-10.456 5.408-5.995 2.315-14.289.922-17.608-5.028-.619-1.55-1.533-6.067.414-6.497 2.274 3.55 5.526 7.52 10.346 6.455 3.786-.296-4.224-7.053-1.16-5.694.971.432 3.214 1.903 4.769 2.057 1.555.153 2.424-1.011 3.604-1.172 2.36-.322 3.01-1.311 2.791-1.887-.258-.679-1.008-.1-3.407-.86-1.2-.381-1.826-1.435-3.226-1.917-1.399-.483-4.31-.518-5.398-.089-3.806 1.653-10.045 1.365-11.232-3.404-.001-2.098-1.867.231-2.729-.674-.647-2.289-.815-4.639-4.209-4.431-2.061-2.162-4.171-4.4-6.787-5.938 1.535-3.524 7.619 3.539 7.334.561-2.659-3.626 1.369-4.389 3.132-1.598 2.982 3.151 6.675 6.986 11.125 3.81 2.119-1.995 3.35 1.056 4.884.892.967-2.479 2.183-.122 3.28.579 1.795.224 1.29-2.243 3.424-.724 4.252 2.814 9.483.45 13.637 3.188 4.421 2.015.62-1.623-.6-3.044-1.942-3.768-.258-8.714-4.471-11.054-1.693-4.49 2-10.41-1.767-13.732-.547-2.083 4.844-1.844 6.357-2.7 2.651-.105-.114 6.068 2.516 6.896 3.528-2.184 3.363 3.905 2.635 5.783.342 4.269.583 8.937 2.704 12.804 2.256 4.739 4.343-1.93 1.818-3.807-1.434-4.358-3.521-9.812-.26-13.864.939-.211 1.711-2.489 2.928-3.189s2.879.177 3.182 2.25c1.561 6.241.775 12.953 3.004 19.023 1.573 1.88 3.744.303 4.719-1.426 3.124-3.627 5.32-8.16 9.102-11.148 3.442-1.611 6.488-4.048 8.075-7.593-.022-2.735 7.767-3.154 5.44-.114-2.234 2.959-.76 5.919 1.502 7.887 1.212-.299.854 1.871-.097 1.013-1.52.359-1.617 3.142.497 1.819 3.56-1.149-.278 2.577-1.565 2.691-3.011 1.866-6.469 4.013-7.95 7.256 3.919-.04 7.988-2.153 11.992-.842 3.211 1.649 6.466-.138 7.587-2.967 2.482.396 1.424 2.884 0 3.713 1.815.749 3.071 2.302.87 3.672-1.163 1.516 1.559 4.104-1.786 3.996.109 2.554-.897 4.892-3.681 5.775-2.789 2.362-10.975-3.48-10.738 1.844-.825 2.898 3.325.388 4.485 1.833 1.198 3.055-5.71 2.757-3.431 5.125 1.489.959 8.476 2.336 2.997 3.361-2.735-.751-5.082-.195-7.234 1.158-1.961-3.28-7.562 1.782-6.564-4.05-.766-2.198-5.772-7.908-7.127-3.534 1.153 3.429 7.083 4.551 5.245 9.174-.283 2.885-2.676-.502-3.803-.287-.57 1.797 1.726 3.914 3.328 4.34 3.177-2.443 3.273 3.083 6.294 2.633 2.206.49-.712 1.437-1.327 1.852.604 1.615 3.991 2.44.67 3.842-2.93 2.174-5.101-2.164-7.518-2.395-2.32 2.618 2.106 3.877 3.327 5.256.066 1.028-2.58.31-1.784 1.206.692 1.236 5.377 1.328 3.183 3.183-3.304 1.134-7.569.851-10.74-.619-1.997-.646-2.584-5.163-4.306-4.976-.81 2.011.263 5.977-2.508 6.559z" fill="#008000" transform="matrix(1.3333333 0 0 -1.3333333 179.62307 114.53013)"/><g fill="#ffe000"><path clip-path="url(#g)" d="m0 0 4.4-13.681 13.439 5.09-7.952-11.97 12.358-7.334-14.316-1.246 1.971-14.234-9.9 10.417-9.899-10.417 1.97 14.234-14.316 1.246 12.358 7.334-7.952 11.97 13.44-5.09z" transform="matrix(1.3333333 0 0 -1.3333333 619.69147 377.24227)"/><path clip-path="url(#h)" d="m0 0 4.4-13.681 13.439 5.09-7.952-11.97 12.358-7.334-14.316-1.246 1.971-14.234-9.9 10.417-9.9-10.417 1.971 14.234-14.316 1.246 12.358 7.334-7.952 11.97 13.439-5.09z" transform="matrix(1.3333333 0 0 -1.3333333 513.21227 208.64987)"/><path clip-path="url(#i)" d="m0 0 4.4-13.681 13.439 5.09-7.952-11.97 12.358-7.334-14.316-1.245 1.971-14.235-9.9 10.417-9.899-10.417 1.97 14.235-14.316 1.245 12.358 7.334-7.952 11.97 13.44-5.09z" transform="matrix(1.3333333 0 0 -1.3333333 619.69147 93.2976)"/><path clip-path="url(#j)" d="m0 0 4.4-13.68 13.439 5.089-7.952-11.969 12.358-7.334-14.316-1.246 1.971-14.235-9.9 10.417-9.899-10.417 1.97 14.235-14.316 1.246 12.358 7.334-7.952 11.969 13.44-5.089z" transform="matrix(1.3333333 0 0 -1.3333333 714.33987 180.256)"/><path clip-path="url(#k)" d="m0 0 3.477-8.524 9.181-.673-7.032-5.941 2.197-8.94-7.823 4.852-7.823-4.852 2.197 8.94-7.033 5.941 9.181.673z" transform="matrix(1.3333333 0 0 -1.3333333 662.28387 265.6928)"/></g></svg>