<?xml version="1.0" encoding="UTF-8" standalone="no"?>
<!-- Created with Inkscape (http://www.inkscape.org/) -->

<svg
   version="1.1"
   id="svg1"
   width="800"
   height="535.3493"
   viewBox="0 0 800 535.3493"
   sodipodi:docname="cc.ai"
   xmlns:inkscape="http://www.inkscape.org/namespaces/inkscape"
   xmlns:sodipodi="http://sodipodi.sourceforge.net/DTD/sodipodi-0.dtd"
   xmlns="http://www.w3.org/2000/svg"
   xmlns:svg="http://www.w3.org/2000/svg">
  <defs
     id="defs1">
    <clipPath
       clipPathUnits="userSpaceOnUse"
       id="clipPath3">
      <path
         d="M 0,401.512 H 600 V 0 H 0 Z"
         transform="translate(-305.04981,-268.79171)"
         id="path3" />
    </clipPath>
    <clipPath
       clipPathUnits="userSpaceOnUse"
       id="clipPath5">
      <path
         d="M 0,401.512 H 600 V 0 H 0 Z"
         transform="translate(-325.80081,-257.00311)"
         id="path5" />
    </clipPath>
    <clipPath
       clipPathUnits="userSpaceOnUse"
       id="clipPath7">
      <path
         d="M 0,401.512 H 600 V 0 H 0 Z"
         transform="translate(-110.25,-379.48801)"
         id="path7" />
    </clipPath>
    <clipPath
       clipPathUnits="userSpaceOnUse"
       id="clipPath9">
      <path
         d="M 0,401.512 H 600 V 0 H 0 Z"
         transform="translate(-105.2305,-251.88451)"
         id="path9" />
    </clipPath>
    <clipPath
       clipPathUnits="userSpaceOnUse"
       id="clipPath11">
      <path
         d="M 0,401.512 H 600 V 0 H 0 Z"
         transform="translate(-105.2305,-251.88451)"
         id="path11" />
    </clipPath>
    <clipPath
       clipPathUnits="userSpaceOnUse"
       id="clipPath13">
      <path
         d="M 0,401.512 H 600 V 0 H 0 Z"
         transform="translate(-134.71731,-315.61441)"
         id="path13" />
    </clipPath>
    <clipPath
       clipPathUnits="userSpaceOnUse"
       id="clipPath15">
      <path
         d="M 0,401.512 H 600 V 0 H 0 Z"
         transform="translate(-464.76861,-118.5803)"
         id="path15" />
    </clipPath>
    <clipPath
       clipPathUnits="userSpaceOnUse"
       id="clipPath17">
      <path
         d="M 0,401.512 H 600 V 0 H 0 Z"
         transform="translate(-384.90921,-245.0246)"
         id="path17" />
    </clipPath>
    <clipPath
       clipPathUnits="userSpaceOnUse"
       id="clipPath19">
      <path
         d="M 0,401.512 H 600 V 0 H 0 Z"
         transform="translate(-464.76861,-331.53881)"
         id="path19" />
    </clipPath>
    <clipPath
       clipPathUnits="userSpaceOnUse"
       id="clipPath21">
      <path
         d="M 0,401.512 H 600 V 0 H 0 Z"
         transform="translate(-535.75492,-266.32001)"
         id="path21" />
    </clipPath>
    <clipPath
       clipPathUnits="userSpaceOnUse"
       id="clipPath23">
      <path
         d="M 0,401.512 H 600 V 0 H 0 Z"
         transform="translate(-496.71291,-202.24241)"
         id="path23" />
    </clipPath>
  </defs>
  <sodipodi:namedview
     id="namedview1"
     pagecolor="#ffffff"
     bordercolor="#000000"
     borderopacity="0.25"
     inkscape:showpageshadow="2"
     inkscape:pageopacity="0.0"
     inkscape:pagecheckerboard="0"
     inkscape:deskcolor="#d1d1d1">
    <inkscape:page
       x="0"
       y="0"
       inkscape:label="1"
       id="page1"
       width="800"
       height="535.3493"
       margin="0"
       bleed="0" />
  </sodipodi:namedview>
  <g
     id="layer-MC0"
     inkscape:groupmode="layer"
     inkscape:label="Layer 1">
    <path
       id="path1"
       d="M 0,0 H 600 V 401.512 H 0 Z"
       style="fill:#008000;fill-opacity:1;fill-rule:nonzero;stroke:none"
       transform="matrix(1.3333333,0,0,-1.3333333,0,535.34933)" />
    <path
       id="path2"
       d="m 0,0 c 36.754,0 66.55,-29.795 66.55,-66.549 0,-36.755 -29.796,-66.55 -66.55,-66.55 -36.754,0 -66.55,29.795 -66.55,66.55 C -66.55,-29.795 -36.754,0 0,0"
       style="fill:#ffe000;fill-opacity:1;fill-rule:nonzero;stroke:none"
       transform="matrix(1.3333333,0,0,-1.3333333,406.73307,176.9604)"
       clip-path="url(#clipPath3)" />
    <path
       id="path4"
       d="m 0,0 c 30.243,0 54.761,-24.518 54.761,-54.761 0,-30.244 -24.518,-54.76 -54.761,-54.76 -30.244,0 -54.761,24.516 -54.761,54.76 C -54.761,-24.518 -30.244,0 0,0"
       style="fill:#008000;fill-opacity:1;fill-rule:nonzero;stroke:none"
       transform="matrix(1.3333333,0,0,-1.3333333,434.40107,192.67853)"
       clip-path="url(#clipPath5)" />
    <path
       id="path6"
       d="m 0,0 c 40.179,0 72.75,-32.571 72.75,-72.75 0,-40.179 -32.571,-72.75 -72.75,-72.75 -40.179,0 -72.75,32.571 -72.75,72.75 C -72.75,-32.571 -40.179,0 0,0"
       style="fill:#ffe000;fill-opacity:1;fill-rule:nonzero;stroke:none"
       transform="matrix(1.3333333,0,0,-1.3333333,147,29.365333)"
       clip-path="url(#clipPath7)" />
    <path
       id="path8"
       d="m 0,0 h 18.166 c 0,0 0.819,1.666 -0.184,2.498 -1.003,0.833 -4.909,1.016 -3.853,3.961 2.169,6.055 2.472,4.188 3.835,18.569 1.362,14.381 2.018,36.936 2.018,36.936 h -2.624 c 0,0 0.505,-7.013 -1.009,-16.147 C 14.835,36.684 14.381,35.877 12.716,28.863 11.051,21.85 10.798,21.244 9.285,17.157 7.771,13.069 7.62,12.868 5.248,9.083 2.876,5.299 3.734,6.712 2.422,4.441 1.766,3.306 0.959,3.608 0.517,2.782 0.076,1.956 0,0 0,0 Z"
       style="fill:#802000;fill-opacity:1;fill-rule:nonzero;stroke:none"
       transform="matrix(1.3333333,0,0,-1.3333333,140.30733,199.50333)"
       clip-path="url(#clipPath9)" />
    <path
       id="path10"
       d="m 0,0 h 18.166 c 0,0 0.819,1.666 -0.184,2.498 -1.003,0.833 -4.909,1.016 -3.853,3.961 2.169,6.055 2.472,4.188 3.835,18.569 1.362,14.381 2.018,36.936 2.018,36.936 h -2.624 c 0,0 0.505,-7.013 -1.009,-16.147 C 14.835,36.684 14.381,35.877 12.716,28.863 11.051,21.85 10.798,21.244 9.285,17.157 7.771,13.069 7.62,12.868 5.248,9.083 2.876,5.299 3.734,6.712 2.422,4.441 1.766,3.306 0.959,3.608 0.517,2.782 0.076,1.956 0,0 0,0 Z"
       style="fill:none;stroke:#7b3100;stroke-width:23.333;stroke-linecap:butt;stroke-linejoin:miter;stroke-miterlimit:4;stroke-dasharray:none;stroke-opacity:1"
       transform="matrix(1.3333333,0,0,-1.3333333,140.30733,199.50333)"
       clip-path="url(#clipPath11)" />
    <path
       id="path12"
       d="m 0,0 c 2.518,0.426 0.053,-3.824 -1.158,-3.762 0.108,1.528 -3.641,1.381 -1.316,2.711 C -1.719,-0.564 -0.879,-0.192 0,0 m -15.625,44.125 c 0.151,-2.821 -0.133,-6.556 -1.302,-9.596 -1.186,-3.387 -2.475,-6.764 -2.411,-10.272 -1.885,-0.641 -3.828,4.079 -5.642,1.303 1.364,-3.837 4.513,-6.875 6.67,-10.332 0.364,-1.072 3.468,-3.871 1.672,-4.521 -4.533,1.551 -5.632,7.295 -8.444,10.783 -3.266,5.87 -9.355,10.019 -16.137,10.305 -2.548,-0.066 -10.832,0.632 -8.677,-3.731 3.174,-2.158 7.086,-3.565 10.22,-5.988 2.336,-0.218 6.568,-4.117 6.322,-5.59 -4.108,1.664 -6.03,3.658 -10.456,5.408 -5.995,2.315 -14.289,0.922 -17.608,-5.028 -0.619,-1.55 -1.533,-6.067 0.414,-6.497 2.274,3.55 5.526,7.52 10.346,6.455 3.786,-0.296 -4.224,-7.053 -1.16,-5.694 0.971,0.432 3.214,1.903 4.769,2.057 1.555,0.153 2.424,-1.011 3.604,-1.172 2.36,-0.322 3.01,-1.311 2.791,-1.887 -0.258,-0.679 -1.008,-0.1 -3.407,-0.86 -1.2,-0.381 -1.826,-1.435 -3.226,-1.917 -1.399,-0.483 -4.31,-0.518 -5.398,-0.089 -3.806,1.653 -10.045,1.365 -11.232,-3.404 -10e-4,-2.098 -1.867,0.231 -2.729,-0.674 -0.647,-2.289 -0.815,-4.639 -4.209,-4.431 -2.061,-2.162 -4.171,-4.4 -6.787,-5.938 1.535,-3.524 7.619,3.539 7.334,0.561 -2.659,-3.626 1.369,-4.389 3.132,-1.598 2.982,3.151 6.675,6.986 11.125,3.81 2.119,-1.995 3.35,1.056 4.884,0.892 0.967,-2.479 2.183,-0.122 3.28,0.579 1.795,0.224 1.29,-2.243 3.424,-0.724 4.252,2.814 9.483,0.45 13.637,3.188 4.421,2.015 0.62,-1.623 -0.6,-3.044 -1.942,-3.768 -0.258,-8.714 -4.471,-11.054 -1.693,-4.49 2,-10.41 -1.767,-13.732 -0.547,-2.083 4.844,-1.844 6.357,-2.7 2.651,-0.105 -0.114,6.068 2.516,6.896 3.528,-2.184 3.363,3.905 2.635,5.783 0.342,4.269 0.583,8.937 2.704,12.804 2.256,4.739 4.343,-1.93 1.818,-3.807 -1.434,-4.358 -3.521,-9.812 -0.26,-13.864 0.939,-0.211 1.711,-2.489 2.928,-3.189 1.217,-0.7 2.879,0.177 3.182,2.25 1.561,6.241 0.775,12.953 3.004,19.023 1.573,1.88 3.744,0.303 4.719,-1.426 3.124,-3.627 5.32,-8.16 9.102,-11.148 3.442,-1.611 6.488,-4.048 8.075,-7.593 -0.022,-2.735 7.767,-3.154 5.44,-0.114 -2.234,2.959 -0.76,5.919 1.502,7.887 1.212,-0.299 0.854,1.871 -0.097,1.013 -1.52,0.359 -1.617,3.142 0.497,1.819 3.56,-1.149 -0.278,2.577 -1.565,2.691 -3.011,1.866 -6.469,4.013 -7.95,7.256 3.919,-0.04 7.988,-2.153 11.992,-0.842 3.211,1.649 6.466,-0.138 7.587,-2.967 2.482,0.396 1.424,2.884 0,3.713 1.815,0.749 3.071,2.302 0.87,3.672 -1.163,1.516 1.559,4.104 -1.786,3.996 0.109,2.554 -0.897,4.892 -3.681,5.775 -2.789,2.362 -10.975,-3.48 -10.738,1.844 -0.825,2.898 3.325,0.388 4.485,1.833 1.198,3.055 -5.71,2.757 -3.431,5.125 1.489,0.959 8.476,2.336 2.997,3.361 -2.735,-0.751 -5.082,-0.195 -7.234,1.158 -1.961,-3.28 -7.562,1.782 -6.564,-4.05 -0.766,-2.198 -5.772,-7.908 -7.127,-3.534 1.153,3.429 7.083,4.551 5.245,9.174 -0.283,2.885 -2.676,-0.502 -3.803,-0.287 -0.57,1.797 1.726,3.914 3.328,4.34 3.177,-2.443 3.273,3.083 6.294,2.633 2.206,0.49 -0.712,1.437 -1.327,1.852 0.604,1.615 3.991,2.44 0.67,3.842 -2.93,2.174 -5.101,-2.164 -7.518,-2.395 -2.32,2.618 2.106,3.877 3.327,5.256 0.066,1.028 -2.58,0.31 -1.784,1.206 0.692,1.236 5.377,1.328 3.183,3.183 -3.304,1.134 -7.569,0.851 -10.74,-0.619 -1.997,-0.646 -2.584,-5.163 -4.306,-4.976 -0.81,2.011 0.263,5.977 -2.508,6.559 z"
       style="fill:#008000;fill-opacity:1;fill-rule:nonzero;stroke:none"
       transform="matrix(1.3333333,0,0,-1.3333333,179.62307,114.53013)"
       clip-path="url(#clipPath13)" />
    <path
       id="path14"
       d="m 0,0 4.4,-13.681 13.439,5.09 -7.952,-11.97 12.358,-7.334 L 7.929,-29.141 9.9,-43.375 0,-32.958 l -9.899,-10.417 1.97,14.234 -14.316,1.246 12.358,7.334 -7.952,11.97 13.44,-5.09 z"
       style="fill:#ffe000;fill-opacity:1;fill-rule:nonzero;stroke:none"
       transform="matrix(1.3333333,0,0,-1.3333333,619.69147,377.24227)"
       clip-path="url(#clipPath15)" />
    <path
       id="path16"
       d="m 0,0 4.4,-13.681 13.439,5.09 -7.952,-11.97 12.358,-7.334 L 7.929,-29.141 9.9,-43.375 0,-32.958 l -9.9,-10.417 1.971,14.234 -14.316,1.246 12.358,7.334 -7.952,11.97 13.439,-5.09 z"
       style="fill:#ffe000;fill-opacity:1;fill-rule:nonzero;stroke:none"
       transform="matrix(1.3333333,0,0,-1.3333333,513.21227,208.64987)"
       clip-path="url(#clipPath17)" />
    <path
       id="path18"
       d="m 0,0 4.4,-13.681 13.439,5.09 -7.952,-11.97 12.358,-7.334 L 7.929,-29.14 9.9,-43.375 0,-32.958 l -9.899,-10.417 1.97,14.235 -14.316,1.245 12.358,7.334 -7.952,11.97 13.44,-5.09 z"
       style="fill:#ffe000;fill-opacity:1;fill-rule:nonzero;stroke:none"
       transform="matrix(1.3333333,0,0,-1.3333333,619.69147,93.2976)"
       clip-path="url(#clipPath19)" />
    <path
       id="path20"
       d="M 0,0 4.4,-13.68 17.839,-8.591 9.887,-20.56 22.245,-27.894 7.929,-29.14 9.9,-43.375 0,-32.958 l -9.899,-10.417 1.97,14.235 -14.316,1.246 12.358,7.334 -7.952,11.969 13.44,-5.089 z"
       style="fill:#ffe000;fill-opacity:1;fill-rule:nonzero;stroke:none"
       transform="matrix(1.3333333,0,0,-1.3333333,714.33987,180.256)"
       clip-path="url(#clipPath21)" />
    <path
       id="path22"
       d="m 0,0 3.477,-8.524 9.181,-0.673 -7.032,-5.941 2.197,-8.94 -7.823,4.852 -7.823,-4.852 2.197,8.94 -7.033,5.941 9.181,0.673 z"
       style="fill:#ffe000;fill-opacity:1;fill-rule:nonzero;stroke:none"
       transform="matrix(1.3333333,0,0,-1.3333333,662.28387,265.6928)"
       clip-path="url(#clipPath23)" />
  </g>
</svg>
