<svg height="1333.3333" viewBox="0 0 2000 1333.3333" width="2000" xmlns="http://www.w3.org/2000/svg"><path d="m0 0h1500v1000h-1500z" fill="#de2910" transform="matrix(1.3333333 0 0 -1.3333333 0 1333.3333)"/><g fill="#ffde00"><path d="m0 0 88.167 64.058h-108.98l-33.678 103.647-33.677-103.647h-108.981l88.168-64.058-33.678-103.647 88.168 64.057 88.168-64.057z" transform="matrix(1.3333333 0 0 -1.3333333 405.9876 356.94013)"/><path d="m0 0 18.69-31.15 3.189 36.187 35.402 8.149-33.431 14.215 3.189 36.187-23.85-27.401-33.43 14.215 18.69-31.15-23.85-27.401z" transform="matrix(1.3333333 0 0 -1.3333333 656.70187 156.76693)"/><path d="m0 0 5.138-35.962 16.981 32.113 35.79-6.226-25.295 26.074 16.982 32.113-32.615-15.999-25.294 26.075 5.138-35.962-32.615-15.999z" transform="matrix(1.3333333 0 0 -1.3333333 781.72267 284.3972)"/><path d="m0 0 28.605 22.392-36.304-1.302-12.457 34.124-9.98-34.929-36.303-1.302 30.135-20.285-9.979-34.93 28.604 22.393 30.137-20.286z" transform="matrix(1.3333333 0 0 -1.3333333 824.4844 473.66213)"/><path d="m0 0 1.686 36.288-22.694-28.367-33.991 12.817 19.966-30.348-22.693-28.367 35.033 9.61 19.965-30.348 1.686 36.288 35.033 9.61z" transform="matrix(1.3333333 0 0 -1.3333333 687.94013 586.00453)"/></g></svg>