<?xml version="1.0" encoding="UTF-8" standalone="no"?>
<!-- Created with Inkscape (http://www.inkscape.org/) -->

<svg
   version="1.1"
   id="svg1"
   width="1328.2292"
   height="888.88934"
   viewBox="0 0 1328.2292 888.88934"
   sodipodi:docname="ck.ai"
   xmlns:inkscape="http://www.inkscape.org/namespaces/inkscape"
   xmlns:sodipodi="http://sodipodi.sourceforge.net/DTD/sodipodi-0.dtd"
   xmlns="http://www.w3.org/2000/svg"
   xmlns:svg="http://www.w3.org/2000/svg">
  <defs
     id="defs1" />
  <sodipodi:namedview
     id="namedview1"
     pagecolor="#ffffff"
     bordercolor="#000000"
     borderopacity="0.25"
     inkscape:showpageshadow="2"
     inkscape:pageopacity="0.0"
     inkscape:pagecheckerboard="0"
     inkscape:deskcolor="#d1d1d1">
    <inkscape:page
       x="0"
       y="0"
       inkscape:label="1"
       id="page1"
       width="1328.2292"
       height="888.88934"
       margin="0"
       bleed="0" />
  </sodipodi:namedview>
  <g
     id="layer-MC0"
     inkscape:groupmode="layer"
     inkscape:label="Layer 1">
    <path
       id="path1"
       d="M 0,0 H 996.172 V 666.667 H 0 Z"
       style="fill:#00247d;fill-opacity:1;fill-rule:nonzero;stroke:none"
       transform="matrix(1.3333333,0,0,-1.3333333,0,888.88933)" />
    <path
       id="path2"
       d="m 0,0 -168.089,-112.059 48.411,-32.274 168.089,112.059 V 0 Z m -380.761,0 v -34.826 l 164.261,-109.507 48.411,32.274 L -336.178,0 Z m 0,-253.84 v -34.827 h 44.583 l 168.089,112.06 -48.411,32.274 z m 212.672,77.233 L 0,-288.667 h 48.411 v 32.274 l -168.089,112.06 z"
       style="fill:#ffffff;fill-opacity:1;fill-rule:nonzero;stroke:none"
       transform="matrix(1.3333333,0,0,-1.3333333,507.6816,1.3333333e-4)" />
    <path
       id="path3"
       d="m 0,0 v -96.223 h -176.589 v -96.221 H 0 v -96.223 h 72.167 v 96.223 h 180.416 v 96.221 H 72.167 V 0 Z"
       style="fill:#ffffff;fill-opacity:1;fill-rule:nonzero;stroke:none"
       transform="matrix(1.3333333,0,0,-1.3333333,235.452,1.3333333e-4)" />
    <path
       id="path4"
       d="M 0,0 V -115.467 H -191.022 V -173.2 H 0 V -288.667 H 43.3 V -173.2 h 194.85 v 57.733 H 43.3 L 43.3,0 Z"
       style="fill:#cf142b;fill-opacity:1;fill-rule:nonzero;stroke:none"
       transform="matrix(1.3333333,0,0,-1.3333333,254.6964,1.3333333e-4)" />
    <path
       id="path5"
       d="m 0,0 -144.333,-96.223 h 32.274 L 32.274,0 Z m -396.898,-24.068 108.232,-72.155 h 32.273 l -140.505,93.671 z m 284.839,-168.376 144.333,-96.223 v 21.516 l -112.059,74.707 z m -144.334,0 -140.505,-93.671 v -2.552 h 28.446 l 144.333,96.223 z"
       style="fill:#cf142b;fill-opacity:1;fill-rule:nonzero;stroke:none"
       transform="matrix(1.3333333,0,0,-1.3333333,529.1976,1.3333333e-4)" />
    <path
       id="path6"
       d="M 0,0 8.128,-24.813 H 34.865 L 13.262,-40.855 21.39,-65.881 0,-50.48 l -21.818,-15.401 8.128,25.026 -21.39,16.042 h 26.737"
       style="fill:#ffffff;fill-opacity:1;fill-rule:nonzero;stroke:none"
       transform="matrix(1.3333333,0,0,-1.3333333,969.30467,192.3852)" />
    <path
       id="path7"
       d="m 0,0 -25.572,-5.915 -2.796,-26.59 -13.59,23.151 -25.687,-5.474 17.581,19.66 -13.023,23.308 23.941,-10.69 18.09,19.606 -2.705,-25.74"
       style="fill:#ffffff;fill-opacity:1;fill-rule:nonzero;stroke:none"
       transform="matrix(1.3333333,0,0,-1.3333333,1107.4544,264.98347)" />
    <path
       id="path8"
       d="m 0,0 -25.796,4.835 -13.225,-23.236 -3.166,26.658 -25.724,5.285 23.986,10.96 -2.581,26.574 17.645,-19.393 24.433,10.706 -12.799,-22.495"
       style="fill:#ffffff;fill-opacity:1;fill-rule:nonzero;stroke:none"
       transform="matrix(1.3333333,0,0,-1.3333333,1176.8672,337.48813)" />
    <path
       id="path9"
       d="m 0,0 -21.504,15.046 -21.632,-15.712 8.112,25.59 -21.253,15.427 26.373,0.089 8.609,25.272 8.075,-24.945 26.672,-0.326 -20.938,-15.212"
       style="fill:#ffffff;fill-opacity:1;fill-rule:nonzero;stroke:none"
       transform="matrix(1.3333333,0,0,-1.3333333,1208.5781,432.66907)" />
    <path
       id="path10"
       d="M 0,0 -13.466,22.526 -39.634,17.04 -21.763,37.073 -34.845,59.846 -10.744,49.134 7.453,68.673 4.615,42.606 28.819,31.399 3.489,26.084"
       style="fill:#ffffff;fill-opacity:1;fill-rule:nonzero;stroke:none"
       transform="matrix(1.3333333,0,0,-1.3333333,1200.7357,533.5252)" />
    <path
       id="path11"
       d="M 0,0 -3.332,26.031 -29.51,31.469 -5.118,42.684 -8.001,68.786 9.805,49.329 34.296,59.959 21.271,37.204 38.974,17.253 13.631,22.512 Z"
       style="fill:#ffffff;fill-opacity:1;fill-rule:nonzero;stroke:none"
       transform="matrix(1.3333333,0,0,-1.3333333,1151.4623,621.84413)" />
    <path
       id="path12"
       d="m 0,0 -21.504,15.045 -21.633,-15.712 8.112,25.592 -21.253,15.427 26.374,0.088 8.609,25.273 8.074,-24.946 26.673,-0.325 -20.939,-15.213"
       style="fill:#ffffff;fill-opacity:1;fill-rule:nonzero;stroke:none"
       transform="matrix(1.3333333,0,0,-1.3333333,1127.582,681.36373)" />
    <path
       id="path13"
       d="M 0,0 -13.466,22.526 -39.634,17.04 -21.763,37.073 -34.844,59.845 -10.743,49.134 7.453,68.672 4.615,42.606 28.819,31.399 3.489,26.084"
       style="fill:#ffffff;fill-opacity:1;fill-rule:nonzero;stroke:none"
       transform="matrix(1.3333333,0,0,-1.3333333,1025.6224,728.03173)" />
    <path
       id="path14"
       d="M 0,0 -3.332,26.03 -29.51,31.468 -5.118,42.683 -8.001,68.785 9.805,49.329 34.296,59.959 21.271,37.203 38.974,17.252 13.631,22.511 Z"
       style="fill:#ffffff;fill-opacity:1;fill-rule:nonzero;stroke:none"
       transform="matrix(1.3333333,0,0,-1.3333333,913.60547,728.1072)" />
    <path
       id="path15"
       d="m 0,0 -21.504,15.045 -21.633,-15.712 8.113,25.592 -21.254,15.427 26.374,0.088 8.609,25.273 8.074,-24.946 26.673,-0.325 -20.939,-15.213"
       style="fill:#ffffff;fill-opacity:1;fill-rule:nonzero;stroke:none"
       transform="matrix(1.3333333,0,0,-1.3333333,867.4792,681.36373)" />
    <path
       id="path16"
       d="M 0,0 25.33,5.315 1.126,16.521 3.964,42.588 -14.233,23.049 -38.334,33.761 -25.252,10.989 -43.123,-9.044 l 26.168,5.486 13.466,-22.527 z"
       style="fill:#ffffff;fill-opacity:1;fill-rule:nonzero;stroke:none"
       transform="matrix(1.3333333,0,0,-1.3333333,791.27733,586.30253)" />
    <path
       id="path17"
       d="M 0,0 -13.466,22.526 -39.634,17.04 -21.763,37.073 -34.844,59.845 -10.743,49.133 7.453,68.672 4.615,42.606 28.819,31.4 3.489,26.084"
       style="fill:#ffffff;fill-opacity:1;fill-rule:nonzero;stroke:none"
       transform="matrix(1.3333333,0,0,-1.3333333,814.28907,361.8344)" />
    <path
       id="path18"
       d="m 0,0 -21.504,15.045 -21.632,-15.712 8.112,25.591 -21.253,15.428 26.373,0.088 8.609,25.272 8.075,-24.945 26.672,-0.325 -20.938,-15.213"
       style="fill:#ffffff;fill-opacity:1;fill-rule:nonzero;stroke:none"
       transform="matrix(1.3333333,0,0,-1.3333333,786.76693,432.95427)" />
    <path
       id="path19"
       d="M 0,0 -3.332,26.03 -29.51,31.468 -5.118,42.683 -8.001,68.785 9.805,49.329 34.296,59.959 21.271,37.203 38.974,17.252 13.631,22.511 Z"
       style="fill:#ffffff;fill-opacity:1;fill-rule:nonzero;stroke:none"
       transform="matrix(1.3333333,0,0,-1.3333333,738.20707,533.60067)" />
    <path
       id="path20"
       d="M 0,0 -3.333,26.031 -29.51,31.469 -5.119,42.683 -8.002,68.786 9.804,49.329 34.296,59.959 21.271,37.204 38.973,17.252 13.631,22.511 Z"
       style="fill:#ffffff;fill-opacity:1;fill-rule:nonzero;stroke:none"
       transform="matrix(1.3333333,0,0,-1.3333333,869.11453,307.43733)" />
  </g>
</svg>
