<?xml version="1.0" encoding="UTF-8" standalone="no"?>
<!-- Created with Inkscape (http://www.inkscape.org/) -->

<svg
   version="1.1"
   id="svg1"
   width="808.66669"
   height="533.33331"
   viewBox="0 0 808.66669 533.33331"
   sodipodi:docname="cu.ai"
   xmlns:inkscape="http://www.inkscape.org/namespaces/inkscape"
   xmlns:sodipodi="http://sodipodi.sourceforge.net/DTD/sodipodi-0.dtd"
   xmlns="http://www.w3.org/2000/svg"
   xmlns:svg="http://www.w3.org/2000/svg">
  <defs
     id="defs1" />
  <sodipodi:namedview
     id="namedview1"
     pagecolor="#ffffff"
     bordercolor="#000000"
     borderopacity="0.25"
     inkscape:showpageshadow="2"
     inkscape:pageopacity="0.0"
     inkscape:pagecheckerboard="0"
     inkscape:deskcolor="#d1d1d1">
    <inkscape:page
       x="0"
       y="0"
       inkscape:label="1"
       id="page1"
       width="808.66669"
       height="533.33331"
       margin="0"
       bleed="0" />
  </sodipodi:namedview>
  <g
     id="layer-MC0"
     inkscape:groupmode="layer"
     inkscape:label="Layer 1">
    <path
       id="path1"
       d="M 0,0 H 606.5 V 400 H 0 Z"
       style="fill:#002a8f;fill-opacity:1;fill-rule:nonzero;stroke:none"
       transform="matrix(1.3333333,0,0,-1.3333333,0,533.33333)" />
    <path
       id="path2"
       d="m 0,240 h 606.5 v 80 H 0 Z"
       style="fill:#ffffff;fill-opacity:1;fill-rule:nonzero;stroke:none"
       transform="matrix(1.3333333,0,0,-1.3333333,0,533.33333)" />
    <path
       id="path3"
       d="m 0,80 h 606.5 v 80 H 0 Z"
       style="fill:#ffffff;fill-opacity:1;fill-rule:nonzero;stroke:none"
       transform="matrix(1.3333333,0,0,-1.3333333,0,533.33333)" />
    <path
       id="path4"
       d="m 0,0 v -400 l 292,200 z"
       style="fill:#cf142b;fill-opacity:1;fill-rule:nonzero;stroke:none"
       transform="matrix(1.3333333,0,0,-1.3333333,0,5.3333333e-4)" />
    <path
       id="path5"
       d="M 0,0 -13.469,-41.469 H -57.063 L -21.812,-67.094 -35.281,-108.531 0,-82.906 35.281,-108.531 21.812,-67.094 57.063,-41.469 H 13.469 Z"
       style="fill:#ffffff;fill-opacity:1;fill-rule:nonzero;stroke:none"
       transform="matrix(1.3333333,0,0,-1.3333333,129.9584,190.66667)" />
  </g>
</svg>
