<?xml version="1.0" encoding="UTF-8" standalone="no"?>
<!-- Created with Inkscape (http://www.inkscape.org/) -->

<svg
   version="1.1"
   id="svg1"
   width="1333.3333"
   height="888.88934"
   viewBox="0 0 1333.3333 888.88934"
   sodipodi:docname="cx.ai"
   xmlns:inkscape="http://www.inkscape.org/namespaces/inkscape"
   xmlns:sodipodi="http://sodipodi.sourceforge.net/DTD/sodipodi-0.dtd"
   xmlns="http://www.w3.org/2000/svg"
   xmlns:svg="http://www.w3.org/2000/svg">
  <defs
     id="defs1">
    <clipPath
       clipPathUnits="userSpaceOnUse"
       id="clipPath4">
      <path
         d="M 0,666.667 H 1000 V 0 H 0 Z"
         transform="translate(-500.00002,-440.45891)"
         id="path4" />
    </clipPath>
    <clipPath
       clipPathUnits="userSpaceOnUse"
       id="clipPath6">
      <path
         d="M 0,666.667 H 1000 V 0 H 0 Z"
         transform="translate(-439.04491,-385.48191)"
         id="path6" />
    </clipPath>
    <clipPath
       clipPathUnits="userSpaceOnUse"
       id="clipPath8">
      <path
         d="M 0,666.667 H 1000 V 0 H 0 Z"
         transform="translate(-889.9297,-500.60541)"
         id="path8" />
    </clipPath>
    <clipPath
       clipPathUnits="userSpaceOnUse"
       id="clipPath10">
      <path
         d="M 0,666.667 H 1000 V 0 H 0 Z"
         transform="translate(-931.62992,-404.15081)"
         id="path10" />
    </clipPath>
    <clipPath
       clipPathUnits="userSpaceOnUse"
       id="clipPath12">
      <path
         d="M 0,666.667 H 1000 V 0 H 0 Z"
         transform="translate(-194.16021,-363.22061)"
         id="path12" />
    </clipPath>
    <clipPath
       clipPathUnits="userSpaceOnUse"
       id="clipPath14">
      <path
         d="M 0,666.667 H 1000 V 0 H 0 Z"
         transform="translate(-239.39011,-218.6303)"
         id="path14" />
    </clipPath>
    <clipPath
       clipPathUnits="userSpaceOnUse"
       id="clipPath16">
      <path
         d="M 0,666.667 H 1000 V 0 H 0 Z"
         transform="translate(-196.6816,-94.159602)"
         id="path16" />
    </clipPath>
    <clipPath
       clipPathUnits="userSpaceOnUse"
       id="clipPath18">
      <path
         d="M 0,666.667 H 1000 V 0 H 0 Z"
         transform="translate(-82.094702,-239.9975)"
         id="path18" />
    </clipPath>
    <clipPath
       clipPathUnits="userSpaceOnUse"
       id="clipPath20">
      <path
         d="M 0,666.667 H 1000 V 0 H 0 Z"
         transform="translate(-302.58741,-278.1938)"
         id="path20" />
    </clipPath>
  </defs>
  <sodipodi:namedview
     id="namedview1"
     pagecolor="#ffffff"
     bordercolor="#000000"
     borderopacity="0.25"
     inkscape:showpageshadow="2"
     inkscape:pageopacity="0.0"
     inkscape:pagecheckerboard="0"
     inkscape:deskcolor="#d1d1d1">
    <inkscape:page
       x="0"
       y="0"
       inkscape:label="1"
       id="page1"
       width="1333.3333"
       height="888.88934"
       margin="0"
       bleed="0" />
  </sodipodi:namedview>
  <g
     id="layer-MC0"
     inkscape:groupmode="layer"
     inkscape:label="Layer 1">
    <path
       id="path1"
       d="M 0,0 H 1000 V 666.666 H 0 Z"
       style="fill:#0021ad;fill-opacity:1;fill-rule:nonzero;stroke:none"
       transform="matrix(1.3333333,0,0,-1.3333333,0,888.88933)" />
    <path
       id="path2"
       d="M 0,0 1000,-585.506 V 0 Z"
       style="fill:#1c8a42;fill-opacity:1;fill-rule:nonzero;stroke:none"
       transform="matrix(1.3333333,0,0,-1.3333333,0,0.00133333)" />
    <path
       id="path3"
       d="m 0,0 c 55.123,0 99.81,-44.686 99.81,-99.809 0,-55.123 -44.687,-99.81 -99.81,-99.81 -55.123,0 -99.809,44.687 -99.809,99.81 C -99.809,-44.686 -55.123,0 0,0"
       style="fill:#ffc639;fill-opacity:1;fill-rule:nonzero;stroke:none"
       transform="matrix(1.3333333,0,0,-1.3333333,666.66667,301.6108)"
       clip-path="url(#clipPath4)" />
    <path
       id="path5"
       d="m 0,0 c 6.828,-9.367 17.175,-25.072 25.496,-20.973 6.494,-0.022 9.846,-0.479 10.726,-4.8 15.315,-2.607 41.056,3.854 57.073,24.715 0,0 1.348,-0.178 0.88,7.753 0.089,3.452 4.722,2.762 4.834,1.637 0.646,-1.715 0.535,-2.996 1.403,-3.041 1.972,0.657 4.667,5.079 6.929,7.886 0.612,1.237 0.278,2.54 0.423,4.099 1.192,2.93 4.166,2.294 4.79,0.758 0.567,-0.992 0.579,-1.749 1.135,-2.741 3.019,-2.016 8.465,-0.133 8.889,-0.133 0.534,2.462 2.116,2.228 2.116,2.228 2.016,0.445 1.225,0.267 2.551,-0.424 -1.17,-13.266 2.606,-13.856 2.294,-20.661 0.134,-7.596 -2.294,-9.757 -2.294,-12.653 0.769,-3.542 11.973,-3.665 8.03,-6.661 -3.463,-1.849 0.011,-5.313 -5.201,-6.66 -15.171,-7.697 -18.078,-14.302 -18.078,-14.302 0,0 -3.809,-7.195 -4.232,-7.195 -2.54,-4.802 -5.759,-2.184 -7.552,-4.522 -0.892,-2.942 -1.894,-9.457 -0.111,-12.844 0.89,-4.655 -0.112,-7.195 -1.226,-11.851 -1.002,-9.712 -4.856,-11.182 -5.302,-14.591 -1.782,-3.642 0.379,-20.751 -1.314,-20.751 -11.294,-0.222 -19.948,2.162 -24.415,3.052 4.354,18.769 2.662,35.253 2.662,36.946 -1.114,13.422 -20.105,10.158 -23.012,11.94 -2.406,0.513 -3.921,2.473 -4.767,3.319 -2.685,0.289 -3.687,0.903 -6.372,1.181 -1.336,-0.669 -0.534,-1.359 -3.519,-2.283 -7.574,-0.914 -10.916,6.604 -10.916,6.604 0.368,2.529 -17.03,-0.511 -26.487,1.682 -3.876,-2.16 -5.569,-8.554 -8.744,-9.312 -0.088,-1.982 -5.223,1.627 -6.259,3.577 -0.212,5.668 4.945,8.175 4.945,8.175 4.099,2.885 6.527,3.352 8.499,5.346 0.991,4.935 0.49,8.588 2.595,12.297 1.782,2.829 4.411,1.504 6.193,2.774 1.916,1.269 2.729,9.578 0.958,11.85 0,0 -7.663,6.917 -8.087,7.341 C -6.962,-4.088 -1.548,0.524 0,0 Z"
       style="fill:#1c8a42;fill-opacity:1;fill-rule:nonzero;stroke:none"
       transform="matrix(1.3333333,0,0,-1.3333333,585.3932,374.91347)"
       clip-path="url(#clipPath6)" />
    <path
       id="path7"
       d="m 0,0 c -4.092,16.194 -40.721,51.071 -68.247,73.265 -6.571,4.478 -10.855,1.811 -9.998,-4.573 3.427,-5.716 5.997,-12 9.424,-17.716 0.958,-3.81 2.761,-6.477 3.719,-10.286 0,0 0.283,-6.573 0.857,-7.144 8.567,-9.433 9.717,-17.432 9.717,-17.432 4.948,-9.526 9.333,-16.478 18.002,-24.29 9.715,-6.098 2.57,-25.047 2.852,-35.147 0,-6.38 -4.566,-5.624 -8.567,-4.858 -31.529,28.958 -62.775,29.049 -90.302,37.435 -10.765,1.139 -10.956,-4.002 -7.428,-6.854 19.242,-20.582 37.334,-34.582 61.151,-46.294 4.002,-2.48 8.003,-4.959 12.005,-7.439 4.566,-3.81 9.142,-7.62 13.708,-11.43 10.573,-6.854 11.44,-13.143 11.44,-13.708 0.282,-12.861 -6.582,-22.86 -8.577,-26.861 -3.61,-13.637 -10.856,-16.006 -10.856,-16.006 -58.874,-39.723 -89.737,-50.004 -185.179,-37.717 -1.432,0.756 -10.574,-0.766 0,-4.575 24.291,-8.094 83.961,-21.077 141.689,6.258 13.86,9.717 23.132,6.532 33.171,12.348 16.49,10.17 40.035,22.83 44.319,24.251 12.862,6.863 48.866,14.575 57.161,21.439 9.514,0.766 19.392,2.016 20.057,10.2 3.125,2.026 7.701,0.544 11.097,7.217 7.55,1.31 6.28,4.011 6.28,4.011 -1.905,5.332 -8.961,7.529 -14,11.43 -7.438,2.479 -12.579,3.246 -18.013,0.575 -1.712,-0.766 -3.426,-1.522 -5.14,-2.288 0,0 -8.003,1.148 -8.003,1.713 C 4.56,-83.499 6.293,-24.574 0.003,0.002 Z"
       style="fill:#ffc639;fill-opacity:1;fill-rule:nonzero;stroke:none"
       transform="matrix(1.3333333,0,0,-1.3333333,1186.5729,221.41547)"
       clip-path="url(#clipPath8)" />
    <path
       id="path9"
       d="m 0,0 c -0.514,-1.432 -2.811,-2.003 -5.129,-1.274 -2.318,0.728 -3.781,2.479 -3.267,3.911 0.514,1.431 2.811,2.002 5.129,1.274 C -0.948,3.183 0.515,1.432 0,0"
       style="fill:#1c8a42;fill-opacity:1;fill-rule:nonzero;stroke:none"
       transform="matrix(1.3333333,0,0,-1.3333333,1242.1732,350.0216)"
       clip-path="url(#clipPath10)" />
    <path
       id="path11"
       d="m 0,0 -12.751,11.936 -12.904,-11.77 1.383,17.405 -17.249,2.753 14.475,9.774 -8.606,15.197 16.668,-5.219 6.518,16.204 6.31,-16.287 L 10.578,45 1.777,29.914 16.125,19.955 -1.158,17.423 0.001,0 Z"
       style="fill:#ffffff;fill-opacity:1;fill-rule:nonzero;stroke:none"
       transform="matrix(1.3333333,0,0,-1.3333333,258.88027,404.5952)"
       clip-path="url(#clipPath12)" />
    <path
       id="path13"
       d="m 0,0 -13.752,9.167 -13.391,-9.664 4.711,15.568 -13.582,9.415 16.668,0.446 4.988,15.496 5.594,-15.299 16.667,0.155 -13.21,-9.902 z"
       style="fill:#ffffff;fill-opacity:1;fill-rule:nonzero;stroke:none"
       transform="matrix(1.3333333,0,0,-1.3333333,319.1868,597.38227)"
       clip-path="url(#clipPath14)" />
    <path
       id="path15"
       d="m 0,0 -12.751,11.937 -12.904,-11.771 1.383,17.405 -17.249,2.753 14.475,9.775 -8.606,15.197 16.668,-5.22 6.518,16.204 6.31,-16.287 L 10.578,45 1.777,29.914 16.125,19.955 -1.158,17.424 0.001,0 Z"
       style="fill:#ffffff;fill-opacity:1;fill-rule:nonzero;stroke:none"
       transform="matrix(1.3333333,0,0,-1.3333333,262.24213,763.3432)"
       clip-path="url(#clipPath16)" />
    <path
       id="path17"
       d="m 0,0 -12.751,11.937 -12.904,-11.771 1.383,17.405 -17.249,2.753 14.475,9.775 -8.606,15.197 16.668,-5.22 6.518,16.204 6.31,-16.287 L 10.578,45 1.777,29.914 16.125,19.955 -1.158,17.424 Z"
       style="fill:#ffffff;fill-opacity:1;fill-rule:nonzero;stroke:none"
       transform="matrix(1.3333333,0,0,-1.3333333,109.4596,568.89267)"
       clip-path="url(#clipPath18)" />
    <path
       id="path19"
       d="m 0,0 -12.751,11.936 -12.904,-11.77 1.383,17.405 -17.249,2.753 14.475,9.775 -8.605,15.196 16.668,-5.22 6.517,16.205 6.31,-16.288 L 10.578,45 1.777,29.914 16.125,19.955 -1.157,17.424 0.001,-0.001 Z"
       style="fill:#ffffff;fill-opacity:1;fill-rule:nonzero;stroke:none"
       transform="matrix(1.3333333,0,0,-1.3333333,403.44987,517.96427)"
       clip-path="url(#clipPath20)" />
  </g>
</svg>
