<svg height="888.88934" viewBox="0 0 1333.3333 888.88934" width="1333.3333" xmlns="http://www.w3.org/2000/svg" xmlns:xlink="http://www.w3.org/1999/xlink"><clipPath id="a"><path d="m0 666.667h1000v-666.667h-1000z" transform="translate(-668.30572 -227.8649)"/></clipPath><clipPath id="b"><path d="m0 666.667h1000v-666.667h-1000z" transform="translate(-668.30572 -227.8649)"/></clipPath><clipPath id="c"><path d="m0 666.667h1000v-666.667h-1000z" transform="translate(-586.08982 -192.986)"/></clipPath><clipPath id="d"><path d="m0 666.667h1000v-666.667h-1000z" transform="translate(-878.3428 -192.986)"/></clipPath><clipPath id="e"><path d="m0 666.667h1000v-666.667h-1000z" transform="translate(-732.21582 -151.6423)"/></clipPath><clipPath id="f"><path d="m0 666.667h1000v-666.667h-1000z" transform="translate(-643.28612 -232.87961)"/></clipPath><clipPath id="g"><path d="m0 666.667h1000v-666.667h-1000z" transform="translate(-643.28612 -232.87961)"/></clipPath><clipPath id="h"><path d="m0 666.667h1000v-666.667h-1000z" transform="translate(-820.6582 -232.87961)"/></clipPath><clipPath id="i"><path d="m0 666.667h1000v-666.667h-1000z" transform="translate(-820.6582 -232.87961)"/></clipPath><clipPath id="j"><path d="m0 666.667h1000v-666.667h-1000z" transform="translate(-586.08982 -192.986)"/></clipPath><clipPath id="k"><path d="m0 666.667h1000v-666.667h-1000z" transform="translate(-878.3428 -192.986)"/></clipPath><clipPath id="l"><path d="m0 666.667h1000v-666.667h-1000z" transform="translate(-822.09865 -410.25161)"/></clipPath><clipPath id="m"><path d="m0 666.667h1000v-666.667h-1000z" transform="translate(-732.21582 -330.93811)"/></clipPath><clipPath id="n"><path d="m0 666.667h1000v-666.667h-1000z" transform="translate(-732.21582 -282.86881)"/></clipPath><clipPath id="o"><path d="m0 666.667h1000v-666.667h-1000z" transform="translate(-732.21582 -262.1999)"/></clipPath><clipPath id="p"><path d="m0 666.667h1000v-666.667h-1000z" transform="translate(-732.21582 -185.2936)"/></clipPath><clipPath id="q"><path d="m0 666.667h1000v-666.667h-1000z" transform="translate(-695.20511 -410.73501)"/></clipPath><clipPath id="r"><path d="m0 666.667h1000v-666.667h-1000z" transform="translate(-710.10642 -433.80391)"/></clipPath><clipPath id="s"><path d="m0 666.667h1000v-666.667h-1000z" transform="translate(-751.44339 -433.32101)"/></clipPath><clipPath id="t"><path d="m0 666.667h1000v-666.667h-1000z" transform="translate(-751.44339 -433.32101)"/></clipPath><clipPath id="u"><path d="m0 666.667h1000v-666.667h-1000z" transform="translate(-780.28029 -430.43721)"/></clipPath><clipPath id="v"><path d="m0 666.667h1000v-666.667h-1000z" transform="translate(-730.77442 -435.24531)"/></clipPath><clipPath id="w"><path d="m0 666.667h1000v-666.667h-1000z" transform="translate(-689.91412 -430.92011)"/></clipPath><clipPath id="x"><path d="m0 666.667h1000v-666.667h-1000z" transform="translate(-689.91412 -430.92011)"/></clipPath><clipPath id="y"><path d="m0 666.667h1000v-666.667h-1000z" transform="translate(-712.99022 -479.94941)"/></clipPath><clipPath id="z"><path d="m0 666.667h1000v-666.667h-1000z" transform="translate(-718.75782 -487.15791)"/></clipPath><clipPath id="A"><path d="m0 666.667h1000v-666.667h-1000z" transform="translate(-734.13482 -500.61591)"/></clipPath><clipPath id="B"><path d="m0 666.667h1000v-666.667h-1000z" transform="translate(-744.71092 -503.02311)"/></clipPath><clipPath id="C"><path d="m0 666.667h1000v-666.667h-1000z" transform="translate(-749.03612 -493.40741)"/></clipPath><clipPath id="D"><path d="m0 666.667h1000v-666.667h-1000z" transform="translate(-749.03612 -493.40741)"/></clipPath><clipPath id="E"><path d="m0 666.667h1000v-666.667h-1000z" transform="translate(-755.76864 -482.83121)"/></clipPath><clipPath id="F"><path d="m0 666.667h1000v-666.667h-1000z" transform="translate(-753.84369 -486.19841)"/></clipPath><clipPath id="G"><path d="m0 666.667h1000v-666.667h-1000z" transform="translate(-753.84369 -486.19841)"/></clipPath><clipPath id="H"><path d="m0 666.667h1000v-666.667h-1000z" transform="translate(-730.77442 -491.48311)"/></clipPath><clipPath id="I"><path d="m0 666.667h1000v-666.667h-1000z" transform="translate(-719.71582 -491.96601)"/></clipPath><clipPath id="J"><path d="m0 666.667h1000v-666.667h-1000z" transform="translate(-725.00682 -492.44941)"/></clipPath><clipPath id="K"><path d="m0 666.667h1000v-666.667h-1000z" transform="translate(-713.46682 -504.94251)"/></clipPath><clipPath id="L"><path d="m0 666.667h1000v-666.667h-1000z" transform="translate(-729.80862 -507.34982)"/></clipPath><clipPath id="M"><path d="m0 666.667h1000v-666.667h-1000z" transform="translate(-729.80862 -507.34982)"/></clipPath><clipPath id="N"><path d="m0 666.667h1000v-666.667h-1000z" transform="translate(-723.56642 -503.50022)"/></clipPath><clipPath id="O"><path d="m0 666.667h1000v-666.667h-1000z" transform="translate(-723.56642 -503.50022)"/></clipPath><clipPath id="P"><path d="m0 666.667h1000v-666.667h-1000z" transform="translate(-736.54302 -502.05872)"/></clipPath><clipPath id="Q"><path d="m0 666.667h1000v-666.667h-1000z" transform="translate(-729.33402 -498.21551)"/></clipPath><clipPath id="R"><path d="m0 666.667h1000v-666.667h-1000z" transform="translate(-720.67582 -495.80831)"/></clipPath><clipPath id="S"><path d="m0 666.667h1000v-666.667h-1000z" transform="translate(-738.46682 -497.73401)"/></clipPath><clipPath id="T"><path d="m0 666.667h1000v-666.667h-1000z" transform="translate(-736.54302 -493.89031)"/></clipPath><clipPath id="U"><path d="m0 666.667h1000v-666.667h-1000z" transform="translate(-728.85062 -489.56511)"/></clipPath><clipPath id="V"><path d="m0 666.667h1000v-666.667h-1000z" transform="translate(-728.85062 -489.56511)"/></clipPath><clipPath id="W"><path d="m0 666.667h1000v-666.667h-1000z" transform="translate(-716.83202 -489.56511)"/></clipPath><clipPath id="X"><path d="m0 666.667h1000v-666.667h-1000z" transform="translate(-743.75102 -490.52361)"/></clipPath><clipPath id="Y"><path d="m0 666.667h1000v-666.667h-1000z" transform="translate(-746.63482 -482.35661)"/></clipPath><clipPath id="Z"><path d="m0 666.667h1000v-666.667h-1000z" transform="translate(-737.50102 -483.79751)"/></clipPath><clipPath id="aa"><path d="m0 666.667h1000v-666.667h-1000z" transform="translate(-724.04302 -482.35661)"/></clipPath><clipPath id="ab"><path d="m0 666.667h1000v-666.667h-1000z" transform="translate(-720.67582 -483.31461)"/></clipPath><clipPath id="ac"><path d="m0 666.667h1000v-666.667h-1000z" transform="translate(-727.89062 -481.39031)"/></clipPath><clipPath id="ad"><path d="m0 666.667h1000v-666.667h-1000z" transform="translate(-730.29202 -534.26781)"/></clipPath><clipPath id="ae"><path d="m0 666.667h1000v-666.667h-1000z" transform="translate(-741.82712 -521.28491)"/></clipPath><clipPath id="af"><path d="m0 666.667h1000v-666.667h-1000z" transform="translate(-690.87401 -473.69841)"/></clipPath><clipPath id="ag"><path d="m0 666.667h1000v-666.667h-1000z" transform="translate(-690.87401 -473.69841)"/></clipPath><clipPath id="ah"><path d="m0 666.667h1000v-666.667h-1000z" transform="translate(-788.93649 -457.35461)"/></clipPath><clipPath id="ai"><path d="m0 666.667h1000v-666.667h-1000z" transform="translate(-788.93649 -457.35461)"/></clipPath><clipPath id="aj"><path d="m0 666.667h1000v-666.667h-1000z" transform="translate(-697.60642 -475.62271)"/></clipPath><clipPath id="ak"><path d="m0 666.667h1000v-666.667h-1000z" transform="translate(-697.60642 -475.62271)"/></clipPath><clipPath id="al"><path d="m0 666.667h1000v-666.667h-1000z" transform="translate(-782.68749 -463.60561)"/></clipPath><clipPath id="am"><path d="m0 666.667h1000v-666.667h-1000z" transform="translate(-751.44339 -478.50651)"/></clipPath><clipPath id="an"><path d="m0 666.667h1000v-666.667h-1000z" transform="translate(-728.85062 -482.35661)"/></clipPath><clipPath id="ao"><path d="m0 666.667h1000v-666.667h-1000z" transform="translate(-697.60642 -475.62271)"/></clipPath><clipPath id="ap"><path d="m0 666.667h1000v-666.667h-1000z" transform="translate(-774.03609 -455.91371)"/></clipPath><clipPath id="aq"><path d="m0 666.667h1000v-666.667h-1000z" transform="translate(-774.03609 -455.91371)"/></clipPath><clipPath id="ar"><path d="m0 666.667h1000v-666.667h-1000z" transform="translate(-737.50102 -445.33801)"/></clipPath><clipPath id="as"><path d="m0 666.667h1000v-666.667h-1000z" transform="translate(-720.67582 -468.41371)"/></clipPath><clipPath id="at"><path d="m0 666.667h1000v-666.667h-1000z" transform="translate(-720.67582 -468.41371)"/></clipPath><clipPath id="au"><path d="m0 666.667h1000v-666.667h-1000z" transform="translate(-696.64652 -462.64611)"/></clipPath><clipPath id="av"><path d="m0 666.667h1000v-666.667h-1000z" transform="translate(-672.61232 -471.29751)"/></clipPath><clipPath id="aw"><path d="m0 666.667h1000v-666.667h-1000z" transform="translate(-661.55372 -472.73891)"/></clipPath><clipPath id="ax"><path d="m0 666.667h1000v-666.667h-1000z" transform="translate(-719.71582 -386.69891)"/></clipPath><clipPath id="ay"><path d="m0 666.667h1000v-666.667h-1000z" transform="translate(-719.71582 -386.69891)"/></clipPath><clipPath id="az"><path d="m0 666.667h1000v-666.667h-1000z" transform="translate(-750.47754 -368.43131)"/></clipPath><clipPath id="aA"><path d="m0 666.667h1000v-666.667h-1000z" transform="translate(-706.73932 -383.81511)"/></clipPath><clipPath id="aB"><path d="m0 666.667h1000v-666.667h-1000z" transform="translate(-659.15332 -395.35121)"/></clipPath><clipPath id="aC"><path d="m0 666.667h1000v-666.667h-1000z" transform="translate(-661.55372 -404.00061)"/></clipPath><clipPath id="aD"><path d="m0 666.667h1000v-666.667h-1000z" transform="translate(-671.16992 -396.30921)"/></clipPath><clipPath id="aE"><path d="m0 666.667h1000v-666.667h-1000z" transform="translate(-653.38481 -388.14031)"/></clipPath><clipPath id="aF"><path d="m0 666.667h1000v-666.667h-1000z" transform="translate(-660.59572 -358.81511)"/></clipPath><clipPath id="aG"><path d="m0 666.667h1000v-666.667h-1000z" transform="translate(-664.43752 -361.69891)"/></clipPath><clipPath id="aH"><path d="m0 666.667h1000v-666.667h-1000z" transform="translate(-659.62991 -353.04751)"/></clipPath><clipPath id="aI"><path d="m0 666.667h1000v-666.667h-1000z" transform="translate(-660.11231 -344.87951)"/></clipPath><clipPath id="aJ"><path d="m0 666.667h1000v-666.667h-1000z" transform="translate(-726.92682 -359.29851)"/></clipPath><clipPath id="aK"><path d="m0 666.667h1000v-666.667h-1000z" transform="translate(-722.59962 -355.93131)"/></clipPath><clipPath id="aL"><path d="m0 666.667h1000v-666.667h-1000z" transform="translate(-725.00682 -352.08951)"/></clipPath><clipPath id="aM"><path d="m0 666.667h1000v-666.667h-1000z" transform="translate(-729.33402 -348.23991)"/></clipPath><clipPath id="aN"><path d="m0 666.667h1000v-666.667h-1000z" transform="translate(-783.64554 -352.57101)"/></clipPath><clipPath id="aO"><path d="m0 666.667h1000v-666.667h-1000z" transform="translate(-786.52929 -350.64711)"/></clipPath><clipPath id="aP"><path d="m0 666.667h1000v-666.667h-1000z" transform="translate(-792.29792 -348.72231)"/></clipPath><clipPath id="aQ"><path d="m0 666.667h1000v-666.667h-1000z" transform="translate(-796.62894 -349.20571)"/></clipPath><clipPath id="aR"><path d="m0 666.667h1000v-666.667h-1000z" transform="translate(-687.03032 -333.33851)"/></clipPath><clipPath id="aS"><path d="m0 666.667h1000v-666.667h-1000z" transform="translate(-777.87992 -333.33851)"/></clipPath><clipPath id="aT"><path d="m0 666.667h1000v-666.667h-1000z" transform="translate(-732.21582 -280.9508)"/></clipPath><clipPath id="aU"><path d="m0 666.667h1000v-666.667h-1000z" transform="translate(-687.03032 -324.68721)"/></clipPath><clipPath id="aV"><path d="m0 666.667h1000v-666.667h-1000z" transform="translate(-777.87992 -324.68721)"/></clipPath><clipPath id="aW"><path d="m0 666.667h1000v-666.667h-1000z" transform="translate(-732.21582 -272.29261)"/></clipPath><clipPath id="aX"><path d="m0 666.667h1000v-666.667h-1000z" transform="translate(-613.96781 -236.24671)"/></clipPath><clipPath id="aY"><path d="m0 666.667h1000v-666.667h-1000z" transform="translate(-622.14262 -229.99771)"/></clipPath><clipPath id="aZ"><path d="m0 666.667h1000v-666.667h-1000z" transform="translate(-629.82812 -211.73011)"/></clipPath><clipPath id="a0"><path d="m0 666.667h1000v-666.667h-1000z" transform="translate(-637.04302 -201.6374)"/></clipPath><clipPath id="a1"><path d="m0 666.667h1000v-666.667h-1000z" transform="translate(-640.88572 -192.01921)"/></clipPath><clipPath id="a2"><path d="m0 666.667h1000v-666.667h-1000z" transform="translate(-653.38481 -190.10221)"/></clipPath><clipPath id="a3"><path d="m0 666.667h1000v-666.667h-1000z" transform="translate(-662.99711 -176.6423)"/></clipPath><clipPath id="a4"><path d="m0 666.667h1000v-666.667h-1000z" transform="translate(-676.93751 -169.90981)"/></clipPath><clipPath id="a5"><path d="m0 666.667h1000v-666.667h-1000z" transform="translate(-691.83892 -168.9499)"/></clipPath><clipPath id="a6"><path d="m0 666.667h1000v-666.667h-1000z" transform="translate(-696.16502 -175.19401)"/></clipPath><clipPath id="a7"><path d="m0 666.667h1000v-666.667h-1000z" transform="translate(-712.50682 -165.5846)"/></clipPath><clipPath id="a8"><path d="m0 666.667h1000v-666.667h-1000z" transform="translate(-716.83202 -169.4264)"/></clipPath><clipPath id="a9"><path d="m0 666.667h1000v-666.667h-1000z" transform="translate(-746.63482 -159.8171)"/></clipPath><clipPath id="ba"><path d="m0 666.667h1000v-666.667h-1000z" transform="translate(-751.44339 -158.8522)"/></clipPath><clipPath id="bb"><path d="m0 666.667h1000v-666.667h-1000z" transform="translate(-772.11234 -168.4684)"/></clipPath><clipPath id="bc"><path d="m0 666.667h1000v-666.667h-1000z" transform="translate(-777.39654 -171.83371)"/></clipPath><clipPath id="bd"><path d="m0 666.667h1000v-666.667h-1000z" transform="translate(-789.89649 -183.8522)"/></clipPath><clipPath id="be"><path d="m0 666.667h1000v-666.667h-1000z" transform="translate(-811.52935 -182.4098)"/></clipPath><clipPath id="bf"><path d="m0 666.667h1000v-666.667h-1000z" transform="translate(-816.81452 -193.945)"/></clipPath><clipPath id="bg"><path d="m0 666.667h1000v-666.667h-1000z" transform="translate(-821.1406 -204.03781)"/></clipPath><clipPath id="bh"><path d="m0 666.667h1000v-666.667h-1000z" transform="translate(-832.67485 -217.49581)"/></clipPath><clipPath id="bi"><path d="m0 666.667h1000v-666.667h-1000z" transform="translate(-837.00002 -221.34641)"/></clipPath><clipPath id="bj"><path d="m0 666.667h1000v-666.667h-1000z" transform="translate(-849.98245 -229.99771)"/></clipPath><clipPath id="bk"><path d="m0 666.667h1000v-666.667h-1000z" transform="translate(-847.09862 -240.57191)"/></clipPath><clipPath id="bl"><path d="m0 666.667h1000v-666.667h-1000z" transform="translate(-732.69242 -163.66081)"/></clipPath><clipPath id="bm"><path d="m0 666.667h1000v-666.667h-1000z" transform="translate(-789.41312 -170.3932)"/></clipPath><clipPath id="bn"><path d="m0 666.667h1000v-666.667h-1000z" transform="translate(-822.09865 -410.25161)"/></clipPath><path d="m0 0h1000v666.667h-1000z" fill="#00247d" transform="matrix(1.3333333 0 0 -1.3333333 0 888.88933)"/><path d="m0 0-168.089-112.059 48.411-32.274 168.089 112.059v32.274zm-384.589 0v-32.274l168.089-112.059 48.411 32.274-168.089 112.059zm0-256.392v-32.275h48.411l168.089 112.06-48.411 32.274zm216.5 79.785 168.089-112.06h48.411v32.274l-168.089 112.06z" fill="#fff" transform="matrix(1.3333333 0 0 -1.3333333 512.7852 .000133)"/><path d="m0 0v-96.223h-180.417v-96.221h180.417v-96.223h72.166v96.223h180.417v96.221h-180.417v96.223z" fill="#fff" transform="matrix(1.3333333 0 0 -1.3333333 240.5556 .000133)"/><path d="m0 0v-115.467h-194.85v-57.733h194.85v-115.467h43.3v115.467h194.85v57.733h-194.85v115.467z" fill="#cf142b" transform="matrix(1.3333333 0 0 -1.3333333 259.8 .000133)"/><path d="m0 0-144.334-96.223h32.274l144.333 96.223zm-400.727 0v-21.516l112.06-74.707h32.274zm288.667-192.444 144.333-96.223v21.516l-112.06 74.707zm-144.333 0-144.334-96.223h32.274l144.333 96.223z" fill="#cf142b" transform="matrix(1.3333333 0 0 -1.3333333 534.3024 .000133)"/><path clip-path="url(#a)" d="m0 0c3.861-4.67 8.03-8.965 12.568-12.895v-.037c13.961-12.092 30.593-21.07 49.519-29.038h.037c.371-.157.721-.332 1.098-.489.007-.006.03-.03.037-.037h.045c.199-.088.401-.163.606-.243.233.098.459.18.691.28.37.164.72.327 1.09.489.414.175.809.352 1.217.527.188.082.389.164.57.246.006.005.032.03.037.037.295.131.564.237.853.364.701.313 1.411.619 2.112.934.013.005.056.03.083.043.005 0 .03-.006.037 0 .35.157.709.326 1.053.483.094.043.188.08.287.125 16.118 7.284 30.926 15.559 43.307 26.279-.032.013-.088.063-.12.082 4.464 3.885 8.569 8.156 12.37 12.77 4.256-8.608 8.607-15.68 13.382-21.615-20.662-18.15-45.955-27.289-76.969-27.289-31.035 0-56.344 9.152-77.013 27.332 4.734 5.942 9.004 13.019 13.103 21.652m154.99 7.586c.045.007.082-.007.125 0h.121.162c2.331.043 5.31-2 6.527-5.473-1.072-1.529-2.183-3.002-3.285-4.463h-.038c-2.145 2.138-4.293 4.545-6.244 7.177.332 1.674 1.349 2.589 2.632 2.759m-171.703 21.007c.02-.056.069-.108.082-.163v-.044c1.824-10.381-6.087-22.511-14.393-30.535-1.047 1.385-2.07 2.813-3.085 4.262 1.975 5.66 8.131 7.486 9.083 2.714 5.291 6.613 9.698 15.742 8.313 23.766m78.229 179.283c.515-.056 1.047-.069 1.581-.12-.245-.156-.459-.337-.647-.527-.283.257-.596.458-.934.647m-11.109 2.351c1.599-.521 3.292-.992 5.11-1.373-.996-.033-2.062-.113-3.166-.208-2.431-.188-4.293-.438-5.761-.77 1.261.677 2.527 1.474 3.817 2.351m49.187 1.541c1.874-3.881 2.707-6.431 3.164-8.557-1.56 2.276-4.112 2.665-9.044 3.047-5.611.426-8.126.471-9.975-.571-.595.766-1.31 1.387-2.15 1.868 6.847.647 13.003 2.189 18.005 4.213m-14.313 39.663-.045-1.868h-.036c-.201-.006-.408-.024-.608-.037l-.043.037c.287.559.552 1.18.732 1.868m-28.228 29.238c-.282-.426-.539-.884-.766-1.378-.112.231-.218.464-.325.688.357.27.733.49 1.091.69m1.704 5.028c.476.02.897-.032 1.217-.118-1.348-1.349-3.46-3.561-4.138-5.392-.733 1.511-1.473 2.991-2.269 4.419 1.825.502 3.555.934 4.865 1.053.12.006.219.038.325.038m16.469 3.448h.039c-.013-.013-.033-.024-.039-.038-.006-.012 0-.031 0-.045-.019-.03-.063-.086-.082-.118h-.043-.038c.038.038.081.107.12.163.005 0 .037-.006.043 0 0 0-.006.038 0 .038m-25.427 2.801c3.801.089 7.103-1.378 8.84-3.973-2.884.356-4.677-.621-5.799-2.151-1.253 2.138-2.577 4.17-3.975 6.044.12.005.239.031.364.037.188.013.382.037.57.043m100.691-252.891c.025.039.057.045.08.082-.03-.026-.049-.056-.08-.082m-76.724 267.611c-3.78-1.109-7.962-5.766-9.372-8.111 0 2.401-1.429 6.224-2.388 7.667-.967-3.85-4.352-7.203-1.95-12.494-4.233 1.411-7.999 1.918-11.317-1.661-3.91 5.171-8.442 9.146-13.664 11.27 4.821-7.064 10.5-16.285 15.17-28.504-8.858 12.676-15.696 15.867-19.998 19.383 2.063-3.892 5.535-10.85 9.291-18.048-7.523 6.52-16.199 11.697-25.634 13.222 6.457-3.686 15.686-11.868 23.119-21.578-8.43 4.965-17.326 8.951-25.997 9.572 7.574-3.962 17.841-11.967 25.953-19.991-8.205 5.397-17.113 9.78-25.463 10.871 4.651-2.797 14.694-10.413 22.669-16.87-.251-.151-.478-.289-.734-.451-.244-.157-.527-.314-.765-.483-.126-.088-.207-.157-.327-.245-.006-.005-.037-.031-.043-.044-.013-.006-.062-.03-.082-.037 0-.006-.03-.038-.037-.038-.019-.024-.069-.069-.082-.082-.282-.212-.576-.425-.851-.652-.396-.325-.792-.657-1.174-1.015-.118-.106-.213-.212-.325-.32-.013-.012-.031-.03-.044-.043-.038-.032-.118-.089-.163-.119-.007-.012-.025-.032-.037-.045-.007-.006-.04-.03-.04-.037-.036-.045-.092-.125-.125-.163-.005-.013-.03-.031-.036-.044l-.979-.483c-1.868.934-5.523-.42-7.052-1.378-2.821.313-5.222 1.717-6.895 3.811-3.368 4.325-12.5 6.237-16.344 2.394-1.442-.965-3.341-.983-4.782-1.46-2.408 0-5.304-2.37-4.338-7.178 1.918 1.443 2.407 0 3.848 0 .076.038.145.056.201.082.019.006.069.03.082.036h.043.082.039c.004 0 .036-.036.043-.036.006-.007.03-.039.037-.044.006-.006.032-.032.045-.038v-.044-.038c.023-.201-.045-.533-.082-.895v-.039c-.013-.138 0-.307 0-.445 0-2.407 5.246-7.215 10.053-6.732 1.819 0 3.312-.233 4.502-.571h.045c.093-.024.188-.05.281-.082 0 .006.039 0 .039 0 2.055-.645 3.215-1.629 3.811-2.224.182-.183.332-.319.451-.446.02-.024.02-.024.037-.044.006-.006.032-.032.038-.036 0-.007.007-.039 0-.045 0 0 .007-.037 0-.037.013-.007.038-.039.043-.045h.039c.011-.018.038-.068.043-.08.013-.02.033-.063.038-.083v-.038h.044c.087-.212.138-.488.201-.77v-.044-.038c.006-.007.031-.031.044-.037.025-.181.038-.408.118-.69.007-.013.032-.037.045-.044-.006 0 0-.032 0-.038.013-.063.017-.106.037-.162v-.045c.007-.005.032-.031.039-.037 0-.006.005-.037 0-.043.005 0 .043-.039.043-.039v-.043-.038-.044-.037c.043-.12.105-.232.162-.364.641-.645 1.123-1.109 1.217-1.586v-.075-.043-.082-.082-.037c-.007-.02-.032-.069-.044-.082v-.082c-.006-.013-.032-.069-.038-.082-.195-.444-.683-.984-1.579-1.704-3.368-2.884-5.768-9.592 0-14.883 2.3-1.767 5.905-3.861 10.418-5.108-.488-.189-.889-.434-1.171-.69-.057-.05-.12-.113-.164-.164-.093-.106-.182-.238-.245-.363-.13-.263-.2-.571-.2-.89-3.679.038-6.745-1.618-10.099-3.855-3.848-2.401-4.821-9.135-.973-12.976 2.252-2.07 4.27-3.26 6.283-3.856h-43.267v-62.488-25.471-5.755-.769-.207c0-.559-.007-1.112 0-1.661v-.203c0-.313-.007-.626 0-.934.006-.313.03-.626.037-.934.006-.175-.007-.349 0-.526.012-.445.032-.896.043-1.335v-.081-.045c.483-17.715 2.923-32.761 7.016-45.698-.897.796-1.775 1.49-2.558 2.187.425-.477.833-1.029 1.259-1.625-.582.648-1.259 1.23-1.986 1.825-1.656 1.504-3.505 2.138-5.435 2.151-4.251.024-8.714-2.871-11.353-5.518-.703-.701-1.374-1.359-1.95-2.025v-.043c-.006 0-.032-.037-.038-.037h-.044v-.045c-.006-.006-.03-.031-.036-.037-4.233-4.288-11.993-10.062-18.13-12.695-6.251-3.366-11.535-8.681-6.244-18.774 3.58-6.833 7.504-13.091 11.716-18.857-5.542-.665-11.855.952-18.938 6.851-.182.17-.401.314-.608.408-.853 1.993-1.612 3.775-2.27 5.354-2.4 5.767-7.202 12.506-12.487 10.582-5.291-1.919-4.808-5.768-3.367-10.1.96-4.783 4.746-23.384 9.53-30.655.006-.006.03-.03.036-.043.014-.007.039-.032.045-.038 2.883-7.693 23.533-17.803 47.567-4.826.188.105.382.218.572.326 31.368-27.841 70.198-36.861 97.974-36.861 27.828 0 66.476 9.063 97.733 37.023.269-.156.539-.339.808-.488 23.558-12.977 44.208-2.867 47.573 4.826.007.006.033.031.039.038v.043c4.306 7.267 8.13 25.865 9.573 30.655.958 4.332 1.918 8.181-3.366 10.1-5.292 1.924-10.087-4.815-12.495-10.582-.658-1.579-1.417-3.361-2.268-5.354-.201-.094-.421-.238-.609-.408-7.215-6.012-13.686-7.579-19.383-6.813 4.193 5.76 8.104 12.003 11.678 18.819 5.286 10.093 0 15.408-6.244 18.774-6.288 2.696-13.842 8.708-18.33 13.021v.038l-.044.044s-.03.023-.037.036h-.045c-.006.014-.036.039-.036.045-.514.551-1.053 1.129-1.661 1.698-3.267 3.73-10.646 7.943-16.344 3.812.026.039.013.089.038.125-1.317-1.027-2.475-2.049-3.731-3.285.809 2.603 1.568 5.267 2.232 8.031h-.081c1.68 6.803 2.946 14.149 3.768 22.097h.162c.815 6.088.917 12.156.934 18.819.006.246 0 .483 0 .728v.206c.013.936.038 1.887.038 2.84v5.755 87.959h-129.201c.727.144 1.493.307 2.276.488 4.093 1.118 8.188 3.417 11.391 4.383h.082c3.523-.439 7.34.727 14.48 2.351-.477.238-.891.583-1.298.934.252-.17.532-.308.809-.446 4.327-2.407 16.374-.958 18.775.483 3.698-2.771 15.83-2.878 18.049-1.171.062.043.119.106.162.155.434-.533.947-1.016 1.499-1.417 3.354-3.353 12.901-3.348 15.815-2.395.332-.394.823-.908 1.461-1.417 3.367-2.4 12.03-2.894 13.95 2.397 1.384 2.763 1.979 6.35-.165 9.609 1.029.477 1.618 1.687 1.141 3.849-1.818 12.726-9.215 15.139-10.832 20.644.232.3.47.607.69.889 4.319-.382 7.373-.25 9.166 1.542 1.44 1.925 3.39 5.285 5.314 6.245.539.362.858.733.973 1.016.006.03.03.086.037.125v.037c.007.013 0 .069 0 .082-.007.006-.031.032-.037.036v.045c-.006.007-.033.031-.045.038v.044h-.037c-.019.012-.069.031-.081.037-.007.007-.032.037-.038.044-.012 0-.039-.007-.044 0-.007 0-.031.038-.038.038-.019.006-.062 0-.082 0-.043.006-.119 0-.162 0-.232.006-.558-.026-.933-.119-1.858-.37-3.154-.998-5.637-1.054.037.045.094.12.119.157.032.043.095.119.125.164.025.043.063.125.082.162.007.013.032.069.037.082v.043c.006.013.032.063.045.082v.037c.006.013.03.069.036.082v.038.125.038c-.006.019-.03.068-.036.081v.082c-.013.013-.039.069-.045.082-.011.024-.03.069-.037.08-.013.013-.032.063-.043.082-.007.013-.032.069-.039.082-.017.019-.062.056-.082.082-.011.011-.036.03-.043.036-.025.033-.082.095-.119.126-.038.032-.118.088-.163.119-.419.275-1.072.515-1.905.653-2.401.476-3.825 2.4-4.785 3.365-.287.282-.569.571-.851.847-.564.557-1.148 1.096-1.705 1.623-.069.069-.131.138-.2.207-.49.459-.979.897-1.462 1.335-.012.007-.031.032-.043.045-.032.031-.089.08-.119.119-.007.006-.033.03-.039.037-.281.251-.576.496-.852.733-.007 0-.037.032-.043.039-.026.023-.095.062-.119.082-.013.011-.039.036-.045.043-.276.237-.533.457-.809.69-.007.006-.037.037-.044.037-.032.038-.088.088-.118.125-.007.006-.032.025-.039.039-.207.168-.401.319-.608.487-.136.108-.313.214-.451.321-.206.162-.395.333-.608.488-.069.05-.132.114-.201.164-.207.155-.438.332-.645.489-.144.1-.269.181-.408.281-.144.101-.262.188-.407.283-.069.049-.169.112-.244.163-.207.143-.395.27-.609.408-.068.043-.13.112-.2.162-.358.226-.74.433-1.097.645-.145.089-.257.164-.402.246-.075.036-.175.081-.244.118-.075.044-.132.083-.207.125-.144.083-.295.164-.444.24-.145.08-.295.168-.447.244-.073.037-.131.088-.2.125-.589.295-1.177.552-1.786.808-.301.132-.621.245-.934.363-.076.032-.164.095-.238.127-.082.024-.17.05-.245.08-.156.058-.287.108-.445.164-.157.05-.332.106-.489.158h-.043c-.033.011-.125.036-.158.043h-.043c-.239.075-.445.175-.69.244h-.037c-.032.006-.095.032-.125.038h-.082c-.289.082-.582.169-.891.244 11.148 7.254 25.803 13.874 31.633 16.061-7.867 1.51-17.634-.972-25.953-4.219 8.389 8.538 18.306 18.481 24.492 24.411-13.634-4.545-26.529-14.795-35.079-23.076 7.302 10.475 20.028 25.783 29.318 35.08-17.334-6.851-28.242-18.762-34.711-27.25 3.587 10.419 11.542 25.207 16.953 30.617-8.077-3.723-13.974-8.826-18.414-14.845 2.145 7.128 4.559 14.368 6.854 19.183-3.337-3.165-6.37-6.232-9.204-9.491-.007.006-.037 0-.043 0-2.2-.339-4.657-.815-6.407-1.905 3.009 3.905 2.808 9.44 7.176 10.425-2.819.282-6.888-1.467-10.098-4.583 1.192 2.577 1.33 5.88 2.721 7.178.087.082.182.182.282.244z" fill="#fff" transform="matrix(1.3333333 0 0 -1.3333333 891.07427 585.06947)"/><path d="m0 0c3.861-4.67 8.03-8.965 12.568-12.895v-.037c13.961-12.092 30.593-21.07 49.519-29.038h.037c.371-.157.721-.332 1.098-.489.007-.006.03-.03.037-.037h.045c.199-.088.401-.163.606-.243.233.098.459.18.691.28.37.164.72.327 1.09.489.414.175.809.352 1.217.527.188.082.389.164.57.246.006.005.032.03.037.037.295.131.564.237.853.364.701.313 1.411.619 2.112.934.013.005.056.03.083.043.005 0 .03-.006.037 0 .35.157.709.326 1.053.483.094.043.188.08.287.125 16.118 7.284 30.926 15.559 43.307 26.279-.032.013-.088.063-.12.082 4.464 3.885 8.569 8.156 12.37 12.77 4.256-8.608 8.607-15.68 13.382-21.615-20.662-18.15-45.955-27.289-76.969-27.289-31.035 0-56.344 9.152-77.013 27.332 4.734 5.942 9.004 13.019 13.103 21.652zm154.99 7.586c.045.007.082-.007.125 0h.121.162c2.331.043 5.31-2 6.527-5.473-1.072-1.529-2.183-3.002-3.285-4.463h-.038c-2.145 2.138-4.293 4.545-6.244 7.177.332 1.674 1.349 2.589 2.632 2.759zm-171.703 21.007c.02-.056.069-.108.082-.163v-.044c1.824-10.381-6.087-22.511-14.393-30.535-1.047 1.385-2.07 2.813-3.085 4.262 1.975 5.66 8.131 7.486 9.083 2.714 5.291 6.613 9.698 15.742 8.313 23.766zm78.229 179.283c.515-.056 1.047-.069 1.581-.12-.245-.156-.459-.337-.647-.527-.283.257-.596.458-.934.647zm-11.109 2.351c1.599-.521 3.292-.992 5.11-1.373-.996-.033-2.062-.113-3.166-.208-2.431-.188-4.293-.438-5.761-.77 1.261.677 2.527 1.474 3.817 2.351zm49.187 1.541c1.874-3.881 2.707-6.431 3.164-8.557-1.56 2.276-4.112 2.665-9.044 3.047-5.611.426-8.126.471-9.975-.571-.595.766-1.31 1.387-2.15 1.868 6.847.647 13.003 2.189 18.005 4.213zm-14.313 39.663-.045-1.868h-.036c-.201-.006-.408-.024-.608-.037l-.043.037c.287.559.552 1.18.732 1.868zm-28.228 29.238c-.282-.426-.539-.884-.766-1.378-.112.231-.218.464-.325.688.357.27.733.49 1.091.69zm1.704 5.028c.476.02.897-.032 1.217-.118-1.348-1.349-3.46-3.561-4.138-5.392-.733 1.511-1.473 2.991-2.269 4.419 1.825.502 3.555.934 4.865 1.053.12.006.219.038.325.038zm16.469 3.448h.039c-.013-.013-.033-.024-.039-.038-.006-.012 0-.031 0-.045-.019-.03-.063-.086-.082-.118h-.043-.038c.038.038.081.107.12.163.005 0 .037-.006.043 0 0 0-.006.038 0 .038zm-25.427 2.801c3.801.089 7.103-1.378 8.84-3.973-2.884.356-4.677-.621-5.799-2.151-1.253 2.138-2.577 4.17-3.975 6.044.12.005.239.031.364.037.188.013.382.037.57.043zm100.691-252.891c.025.039.057.045.08.082-.03-.026-.049-.056-.08-.082zm-76.724 267.611c-3.78-1.109-7.962-5.766-9.372-8.111 0 2.401-1.429 6.224-2.388 7.667-.967-3.85-4.352-7.203-1.95-12.494-4.233 1.411-7.999 1.918-11.317-1.661-3.91 5.171-8.442 9.146-13.664 11.27 4.821-7.064 10.5-16.285 15.17-28.504-8.858 12.676-15.696 15.867-19.998 19.383 2.063-3.892 5.535-10.85 9.291-18.048-7.523 6.52-16.199 11.697-25.634 13.222 6.457-3.686 15.686-11.868 23.119-21.578-8.43 4.965-17.326 8.951-25.997 9.572 7.574-3.962 17.841-11.967 25.953-19.991-8.205 5.397-17.113 9.78-25.463 10.871 4.651-2.797 14.694-10.413 22.669-16.87-.251-.151-.478-.289-.734-.451-.244-.157-.527-.314-.765-.483-.126-.088-.207-.157-.327-.245-.006-.005-.037-.031-.043-.044-.013-.006-.062-.03-.082-.037 0-.006-.03-.038-.037-.038-.019-.024-.069-.069-.082-.082-.282-.212-.576-.425-.851-.652-.396-.325-.792-.657-1.174-1.015-.118-.106-.213-.212-.325-.32-.013-.012-.031-.03-.044-.043-.038-.032-.118-.089-.163-.119-.007-.012-.025-.032-.037-.045-.007-.006-.04-.03-.04-.037-.036-.045-.092-.125-.125-.163-.005-.013-.03-.031-.036-.044l-.979-.483c-1.868.934-5.523-.42-7.052-1.378-2.821.313-5.222 1.717-6.895 3.811-3.368 4.325-12.5 6.237-16.344 2.394-1.442-.965-3.341-.983-4.782-1.46-2.408 0-5.304-2.37-4.338-7.178 1.918 1.443 2.407 0 3.848 0 .076.038.145.056.201.082.019.006.069.03.082.036h.043.082.039c.004 0 .036-.036.043-.036.006-.007.03-.039.037-.044.006-.006.032-.032.045-.038v-.044-.038c.023-.201-.045-.533-.082-.895v-.039c-.013-.138 0-.307 0-.445 0-2.407 5.246-7.215 10.053-6.732 1.819 0 3.312-.233 4.502-.571h.045c.093-.024.188-.05.281-.082 0 .006.039 0 .039 0 2.055-.645 3.215-1.629 3.811-2.224.182-.183.332-.319.451-.446.02-.024.02-.024.037-.044.006-.006.032-.032.038-.036 0-.007.007-.039 0-.045 0 0 .007-.037 0-.037.013-.007.038-.039.043-.045h.039c.011-.018.038-.068.043-.08.013-.02.033-.063.038-.083v-.038h.044c.087-.212.138-.488.201-.77v-.044-.038c.006-.007.031-.031.044-.037.025-.181.038-.408.118-.69.007-.013.032-.037.045-.044-.006 0 0-.032 0-.038.013-.063.017-.106.037-.162v-.045c.007-.005.032-.031.039-.037 0-.006.005-.037 0-.043.005 0 .043-.039.043-.039v-.043-.038-.044-.037c.043-.12.105-.232.162-.364.641-.645 1.123-1.109 1.217-1.586v-.075-.043-.082-.082-.037c-.007-.02-.032-.069-.044-.082v-.082c-.006-.013-.032-.069-.038-.082-.195-.444-.683-.984-1.579-1.704-3.368-2.884-5.768-9.592 0-14.883 2.3-1.767 5.905-3.861 10.418-5.108-.488-.189-.889-.434-1.171-.69-.057-.05-.12-.113-.164-.164-.093-.106-.182-.238-.245-.363-.13-.263-.2-.571-.2-.89-3.679.038-6.745-1.618-10.099-3.855-3.848-2.401-4.821-9.135-.973-12.976 2.252-2.07 4.27-3.26 6.283-3.856h-43.267v-62.488-25.471-5.755-.769-.207c0-.559-.007-1.112 0-1.661v-.203c0-.313-.007-.626 0-.934.006-.313.03-.626.037-.934.006-.175-.007-.349 0-.526.012-.445.032-.896.043-1.335v-.081-.045c.483-17.715 2.923-32.761 7.016-45.698-.897.796-1.775 1.49-2.558 2.187.425-.477.833-1.029 1.259-1.625-.582.648-1.259 1.23-1.986 1.825-1.656 1.504-3.505 2.138-5.435 2.151-4.251.024-8.714-2.871-11.353-5.518-.703-.701-1.374-1.359-1.95-2.025v-.043c-.006 0-.032-.037-.038-.037h-.044v-.045c-.006-.006-.03-.031-.036-.037-4.233-4.288-11.993-10.062-18.13-12.695-6.251-3.366-11.535-8.681-6.244-18.774 3.58-6.833 7.504-13.091 11.716-18.857-5.542-.665-11.855.952-18.938 6.851-.182.17-.401.314-.608.408-.853 1.993-1.612 3.775-2.27 5.354-2.4 5.767-7.202 12.506-12.487 10.582-5.291-1.919-4.808-5.768-3.367-10.1.96-4.783 4.746-23.384 9.53-30.655.006-.006.03-.03.036-.043.014-.007.039-.032.045-.038 2.883-7.693 23.533-17.803 47.567-4.826.188.105.382.218.572.326 31.368-27.841 70.198-36.861 97.974-36.861 27.828 0 66.476 9.063 97.733 37.023.269-.156.539-.339.808-.488 23.558-12.977 44.208-2.867 47.573 4.826.007.006.033.031.039.038v.043c4.306 7.267 8.13 25.865 9.573 30.655.958 4.332 1.918 8.181-3.366 10.1-5.292 1.924-10.087-4.815-12.495-10.582-.658-1.579-1.417-3.361-2.268-5.354-.201-.094-.421-.238-.609-.408-7.215-6.012-13.686-7.579-19.383-6.813 4.193 5.76 8.104 12.003 11.678 18.819 5.286 10.093 0 15.408-6.244 18.774-6.288 2.696-13.842 8.708-18.33 13.021v.038l-.044.044s-.03.023-.037.036h-.045c-.006.014-.036.039-.036.045-.514.551-1.053 1.129-1.661 1.698-3.267 3.73-10.646 7.943-16.344 3.812.026.039.013.089.038.125-1.317-1.027-2.475-2.049-3.731-3.285.809 2.603 1.568 5.267 2.232 8.031h-.081c1.68 6.803 2.946 14.149 3.768 22.097h.162c.815 6.088.917 12.156.934 18.819.006.246 0 .483 0 .728v.206c.013.936.038 1.887.038 2.84v5.755 87.959h-129.201c.727.144 1.493.307 2.276.488 4.093 1.118 8.188 3.417 11.391 4.383h.082c3.523-.439 7.34.727 14.48 2.351-.477.238-.891.583-1.298.934.252-.17.532-.308.809-.446 4.327-2.407 16.374-.958 18.775.483 3.698-2.771 15.83-2.878 18.049-1.171.062.043.119.106.162.155.434-.533.947-1.016 1.499-1.417 3.354-3.353 12.901-3.348 15.815-2.395.332-.394.823-.908 1.461-1.417 3.367-2.4 12.03-2.894 13.95 2.397 1.384 2.763 1.979 6.35-.165 9.609 1.029.477 1.618 1.687 1.141 3.849-1.818 12.726-9.215 15.139-10.832 20.644.232.3.47.607.69.889 4.319-.382 7.373-.25 9.166 1.542 1.44 1.925 3.39 5.285 5.314 6.245.539.362.858.733.973 1.016.006.03.03.086.037.125v.037c.007.013 0 .069 0 .082-.007.006-.031.032-.037.036v.045c-.006.007-.033.031-.045.038v.044h-.037c-.019.012-.069.031-.081.037-.007.007-.032.037-.038.044-.012 0-.039-.007-.044 0-.007 0-.031.038-.038.038-.019.006-.062 0-.082 0-.043.006-.119 0-.162 0-.232.006-.558-.026-.933-.119-1.858-.37-3.154-.998-5.637-1.054.037.045.094.12.119.157.032.043.095.119.125.164.025.043.063.125.082.162.007.013.032.069.037.082v.043c.006.013.032.063.045.082v.037c.006.013.03.069.036.082v.038.125.038c-.006.019-.03.068-.036.081v.082c-.013.013-.039.069-.045.082-.011.024-.03.069-.037.08-.013.013-.032.063-.043.082-.007.013-.032.069-.039.082-.017.019-.062.056-.082.082-.011.011-.036.03-.043.036-.025.033-.082.095-.119.126-.038.032-.118.088-.163.119-.419.275-1.072.515-1.905.653-2.401.476-3.825 2.4-4.785 3.365-.287.282-.569.571-.851.847-.564.557-1.148 1.096-1.705 1.623-.069.069-.131.138-.2.207-.49.459-.979.897-1.462 1.335-.012.007-.031.032-.043.045-.032.031-.089.08-.119.119-.007.006-.033.03-.039.037-.281.251-.576.496-.852.733-.007 0-.037.032-.043.039-.026.023-.095.062-.119.082-.013.011-.039.036-.045.043-.276.237-.533.457-.809.69-.007.006-.037.037-.044.037-.032.038-.088.088-.118.125-.007.006-.032.025-.039.039-.207.168-.401.319-.608.487-.136.108-.313.214-.451.321-.206.162-.395.333-.608.488-.069.05-.132.114-.201.164-.207.155-.438.332-.645.489-.144.1-.269.181-.408.281-.144.101-.262.188-.407.283-.069.049-.169.112-.244.163-.207.143-.395.27-.609.408-.068.043-.13.112-.2.162-.358.226-.74.433-1.097.645-.145.089-.257.164-.402.246-.075.036-.175.081-.244.118-.075.044-.132.083-.207.125-.144.083-.295.164-.444.24-.145.08-.295.168-.447.244-.073.037-.131.088-.2.125-.589.295-1.177.552-1.786.808-.301.132-.621.245-.934.363-.076.032-.164.095-.238.127-.082.024-.17.05-.245.08-.156.058-.287.108-.445.164-.157.05-.332.106-.489.158h-.043c-.033.011-.125.036-.158.043h-.043c-.239.075-.445.175-.69.244h-.037c-.032.006-.095.032-.125.038h-.082c-.289.082-.582.169-.891.244 11.148 7.254 25.803 13.874 31.633 16.061-7.867 1.51-17.634-.972-25.953-4.219 8.389 8.538 18.306 18.481 24.492 24.411-13.634-4.545-26.529-14.795-35.079-23.076 7.302 10.475 20.028 25.783 29.318 35.08-17.334-6.851-28.242-18.762-34.711-27.25 3.587 10.419 11.542 25.207 16.953 30.617-8.077-3.723-13.974-8.826-18.414-14.845 2.145 7.128 4.559 14.368 6.854 19.183-3.337-3.165-6.37-6.232-9.204-9.491-.007.006-.037 0-.043 0-2.2-.339-4.657-.815-6.407-1.905 3.009 3.905 2.808 9.44 7.176 10.425-2.819.282-6.888-1.467-10.098-4.583 1.192 2.577 1.33 5.88 2.721 7.178.087.082.182.182.282.244z" style="fill:none;stroke:#fff;stroke-width:6;stroke-linecap:square;stroke-linejoin:round;clip-path:url(#b)" transform="matrix(1.3333333 0 0 -1.3333333 891.07427 585.06947)"/><path clip-path="url(#c)" d="m0 0c2.884-7.692 23.553-17.792 47.587-4.809 16.343 9.133 26.919 22.11 37.012 45.179 2.882 5.775 4.325 12.984-2.403 17.309-5.289 3.843-13.941 8.168-17.784 12.018-1.925 1.924-3.849 3.365-5.29 4.808.958-.966 1.924-1.924 2.882-3.366 9.618-11.535-.482-28.362-11.051-38.453-7.691-7.216-21.634-25-41.819-8.176-4.332 3.85-14.425-12.017-9.134-24.51" fill="#fcea83" stroke="#000" stroke-width=".899" transform="matrix(1.3333333 0 0 -1.3333333 781.45307 631.57467)"/><path clip-path="url(#d)" d="m0 0c-3.366-7.692-24.033-17.792-47.586-4.809-16.344 9.133-26.919 22.11-37.495 45.179-2.407 5.775-3.849 12.984 2.884 17.309 5.285 3.843 13.936 8.168 17.785 12.018 1.926 1.924 3.366 3.365 5.284 4.808-.958-.966-1.918-1.924-2.884-3.366-9.609-11.535.484-28.362 10.576-38.453 7.692-7.216 22.112-25 42.303-8.176 4.325 3.85 13.935-12.017 9.133-24.51" fill="#fcea83" stroke="#000" stroke-width=".899" transform="matrix(1.3333333 0 0 -1.3333333 1171.1237 631.57467)"/><path clip-path="url(#e)" d="m0 0c38.453 0 97.575 17.308 129.303 77.872 5.284 10.093 0 15.384-6.251 18.743-6.726 2.891-14.902 9.617-19.226 13.943 7.692-7.692 6.249-12.977.958-21.628-24.511-40.861-58.162-61.528-104.784-61.528-46.626 0-80.271 20.667-104.788 61.528-5.285 8.651-6.734 13.936.48 21.628-3.847-4.326-12.499-11.052-19.225-13.943-6.25-3.359-11.542-8.65-6.25-18.743 31.72-60.564 91.33-77.872 129.783-77.872" fill="#fcea83" stroke="#000" stroke-width=".899" transform="matrix(1.3333333 0 0 -1.3333333 976.28773 686.6996)"/><path clip-path="url(#f)" d="m0 0c-.958 4.809-7.209 2.884-9.133-2.882-2.401 3.359-4.802 6.726-6.725 10.574-5.769 8.652-6.735 14.419 1.44 22.594 3.842 3.843 11.534 8.168 16.825 3.359 11.053-9.132 5.284-24.034-2.407-33.645" fill="#db161c" transform="matrix(1.3333333 0 0 -1.3333333 857.7148 578.3832)"/><path clip-path="url(#g)" d="m0 0c-.958 4.809-7.209 2.884-9.133-2.882-2.401 3.359-4.802 6.726-6.725 10.574-5.769 8.652-6.735 14.419 1.44 22.593 3.844 3.844 11.534 8.169 16.825 3.36 11.053-9.132 5.284-24.034-2.407-33.645z" fill="none" stroke="#000" stroke-width=".899" transform="matrix(1.3333333 0 0 -1.3333333 857.7148 578.3832)"/><path clip-path="url(#h)" d="m0 0c.964 4.809 7.691 2.884 9.616-2.882 2.401 3.359 4.808 6.726 6.726 10.574 5.773 8.652 6.733 14.419-1.918 22.594-3.367 3.843-11.059 8.168-16.825 3.359-10.576-9.132-5.285-24.034 2.401-33.645" fill="#db161c" transform="matrix(1.3333333 0 0 -1.3333333 1094.2109 578.3832)"/><path clip-path="url(#i)" d="m0 0c.964 4.809 7.691 2.884 9.616-2.882 2.401 3.359 4.808 6.726 6.726 10.574 5.773 8.652 6.733 14.419-1.918 22.593-3.367 3.844-11.059 8.169-16.825 3.36-10.576-9.132-5.285-24.034 2.401-33.645z" fill="none" stroke="#000" stroke-width=".899" transform="matrix(1.3333333 0 0 -1.3333333 1094.2109 578.3832)"/><path clip-path="url(#j)" d="m0 0c-4.808 7.208-8.651 25.953-9.616 30.761-1.443 4.325-1.926 8.169 3.366 10.093 5.284 1.923 10.093-4.808 12.5-10.576 2.4-5.768 6.244-14.418 10.569-24.994-10.569 6.251-19.226 1.924-16.819-5.284" fill="#db161c" stroke="#000" stroke-width=".899" transform="matrix(1.3333333 0 0 -1.3333333 781.45307 631.57467)"/><path clip-path="url(#k)" d="m0 0c4.325 7.208 8.169 25.953 9.61 30.761.966 4.325 1.926 8.169-3.359 10.093-5.291 1.923-10.099-4.808-12.5-10.576-2.402-5.768-6.251-14.418-10.575-24.994 10.575 6.251 18.742 1.924 16.824-5.284" fill="#db161c" stroke="#000" stroke-width=".899" transform="matrix(1.3333333 0 0 -1.3333333 1171.1237 631.57467)"/><path clip-path="url(#l)" d="m0 0v-93.731c0-81.24-38.453-109.118-89.883-131.227-51.434 22.109-90.371 49.987-90.371 131.227v93.731z" fill="#fff" transform="matrix(1.3333333 0 0 -1.3333333 1096.1315 341.8872)"/><path clip-path="url(#m)" d="m0 0c4.327 0 11.053 3.842 16.82 9.616 6.249 6.728 16.826 9.128 27.884 0 11.053-9.134 17.785-5.291 23.553 0 5.765 5.284 10.575 7.209 21.626 7.209v62.488h-180.254v-62.488c11.059 0 15.867-1.925 21.634-7.209 5.767-5.291 12.495-9.134 23.551 0 11.537 9.128 21.635 6.728 28.361 0 5.285-5.774 12.017-9.616 16.825-9.616" fill="#cf142b" transform="matrix(1.3333333 0 0 -1.3333333 976.28773 447.63853)"/><path clip-path="url(#n)" d="m0 0c5.768 0 17.304 6.249 20.187 7.691 10.575 6.25 18.266.484 24.517-2.4 6.726-2.884 19.226-6.251 26.918 0 7.691 6.249 12.019 5.766 17.303 5.766.958 7.211.958 14.42.958 22.594v5.767c-6.726 1.442-10.093-.481-17.301-6.732-7.209-6.245-15.385-4.802-25.96-.96-10.093 4.326-20.185 12.018-30.278 0-2.884-3.366-9.616-8.174-16.344-8.174-7.209 0-13.458 4.808-16.342 8.174-10.576 12.018-20.191 4.326-30.284 0-10.576-3.842-19.228-5.285-26.437.96-6.732 6.251-10.099 8.174-17.308 6.732v-5.767c0-8.174.483-15.383 1.441-22.594 5.291 0 9.135.483 16.826-5.766 7.693-6.251 20.669-2.884 26.918 0 6.728 2.884 14.42 8.65 24.995 2.4 2.883-1.442 13.942-7.691 20.191-7.691" fill="#0b50a0" transform="matrix(1.3333333 0 0 -1.3333333 976.28773 511.73093)"/><path clip-path="url(#o)" d="m0 0c7.211 0 15.86 2.884 23.553 7.209 9.609 5.291 16.343 2.884 25.959-1.918 10.092-4.808 18.261-3.366 24.029 0 2.884 1.918 5.291 5.768 11.54 4.325-2.884-12.016-7.215-22.593-12.499-31.244-9.616-2.407-14.901-2.407-24.994 1.919-10.093 4.809-22.593 7.692-29.326 3.365-6.243-3.842-12.977-5.765-18.262-5.765-5.289 0-12.017 1.923-18.266 5.765-6.734 4.327-19.227 1.444-29.32-3.365-10.1-4.326-15.384-4.326-25-1.919-5.285 8.651-9.61 19.228-12.494 31.244 6.249 1.443 8.65-2.407 11.534-4.325 5.285-3.366 13.942-4.808 23.553 0 10.093 4.802 16.824 7.209 26.442 1.918 7.686-4.325 16.342-7.209 23.551-7.209" fill="#0b50a0" transform="matrix(1.3333333 0 0 -1.3333333 976.28773 539.28947)"/><path clip-path="url(#p)" d="m0 0c19.228 8.169 37.013 17.302 51.43 29.802-3.842 1.442-6.249.476-9.61 2.884-3.367 2.4-13.46 3.367-22.116-1.442-9.128-4.325-12.976-5.291-19.704-5.291-6.732 0-10.574.966-19.709 5.291-8.649 4.809-18.749 3.842-22.109 1.442-3.368-2.408-5.768-1.442-9.617-2.884 14.424-12.5 31.726-21.633 51.435-29.802" fill="#0b50a0" transform="matrix(1.3333333 0 0 -1.3333333 976.28773 641.8312)"/><path clip-path="url(#q)" d="m0 0c-6.25-1.443-10.575-1.926-16.35 3.358-3.841 3.85-2.881 10.577.966 12.984 4.325 2.884 8.169 4.801 13.46 3.36 5.285-1.441 19.226-14.418 15.861-14.9-3.368 0-8.652-3.362-13.937-4.802" fill="#fff" stroke="#000" stroke-width=".899" transform="matrix(1.3333333 0 0 -1.3333333 926.94013 341.24267)"/><path clip-path="url(#r)" d="m0 0c1.918 1.441 4.325 2.401 10.569 2.882 5.775.484 10.099.484 11.54-3.841 1.919-5.291 3.361-11.541 7.211-14.425-2.407-1.443-14.42-2.883-18.751-.476-5.767 2.883-7.209 13.934-10.569 15.86" fill="#fff" stroke="#000" stroke-width=".899" transform="matrix(1.3333333 0 0 -1.3333333 946.80853 310.48413)"/><path clip-path="url(#s)" d="m0 0c1.924 1.441 4.325 1.441 10.576.964 6.249-.481 8.65-.964 10.093-5.289 1.44-4.803 0-11.052 2.884-15.377-2.884-.967-12.5-.967-15.861 2.4-5.292 3.843-4.808 14.901-7.692 17.302" fill="#fff" transform="matrix(1.3333333 0 0 -1.3333333 1001.9245 311.128)"/><path clip-path="url(#t)" d="m0 0c1.924 1.441 4.325 1.441 10.576.964 6.249-.481 8.65-.964 10.093-5.289 1.44-4.803 0-11.052 2.884-15.379-2.884-.965-12.5-.965-15.861 2.402-5.292 3.843-4.808 14.901-7.692 17.302z" fill="none" stroke="#000" stroke-width=".899" transform="matrix(1.3333333 0 0 -1.3333333 1001.9245 311.128)"/><path clip-path="url(#u)" d="m0 0c-4.326.966-7.21 1.441-9.128 0 2.4-2.884.477-14.418 5.284-18.262 3.367-2.407 12.018-2.884 13.944 2.402 2.4 4.808 2.4 12.016-10.1 15.86" fill="#073163" stroke="#000" stroke-width=".899" transform="matrix(1.3333333 0 0 -1.3333333 1040.3737 314.97307)"/><path clip-path="url(#v)" d="m0 0c1.441 1.441 4.325 1.924 10.093 1.924 6.251 0 10.093-.965 12.017-4.808 1.926-4.808 1.443-11.057 4.808-14.901-1.441-1.923-14.424-1.923-18.266.96-5.292 3.365-5.768 14.424-8.652 16.825" fill="#073163" stroke="#000" stroke-width=".899" transform="matrix(1.3333333 0 0 -1.3333333 974.36587 308.56227)"/><path clip-path="url(#w)" d="m0 0c0 2.401 3.367 2.884 12.018 3.365 8.651.96 9.134.477 12.018-5.766 1.441-3.367 3.365-9.134 7.209-11.058-10.576-2.402-13.943-3.842-19.709-.484-4.327 2.408-9.135 8.175-10.095 10.576-.481 1.443-.481 2.884-1.441 3.367" fill="#073163" transform="matrix(1.3333333 0 0 -1.3333333 919.88547 314.3292)"/><path clip-path="url(#x)" d="m0 0c0 2.401 3.367 2.884 12.018 3.365 8.651.96 9.134.477 12.018-5.766 1.441-3.367 3.365-9.134 7.209-11.058-10.576-2.402-13.943-3.844-19.709-.484-4.327 2.408-9.135 8.175-10.095 10.576-.481 1.443-.481 2.884-1.441 3.367z" fill="none" stroke="#000" stroke-width=".899" transform="matrix(1.3333333 0 0 -1.3333333 919.88547 314.3292)"/><path clip-path="url(#y)" d="m0 0c-10.1 7.69-22.116 14.9-33.169 16.342 7.209-4.325 27.395-20.186 32.686-25.477" fill="#f9d050" stroke="#000" stroke-width=".404" transform="matrix(1.3333333 0 0 -1.3333333 950.6536 248.9568)"/><path clip-path="url(#z)" d="m0 0c-12.019 8.173-25.96 17.308-39.419 18.268 10.093-5.285 24.993-17.787 33.168-27.879" fill="#f9d050" stroke="#000" stroke-width=".404" transform="matrix(1.3333333 0 0 -1.3333333 958.34373 239.34547)"/><path clip-path="url(#A)" d="m0 0c6.732 14.903 13.941 23.076 23.558 32.21-4.808-10.099-10.099-30.767-12.5-38.936" fill="#f9d050" stroke="#000" stroke-width=".404" transform="matrix(1.3333333 0 0 -1.3333333 978.8464 221.40147)"/><path clip-path="url(#B)" d="m0 0c4.809 10.576 12.018 19.704 24.518 25.477-6.251-6.249-15.862-25-18.269-35.093" fill="#f9d050" stroke="#000" stroke-width=".404" transform="matrix(1.3333333 0 0 -1.3333333 992.94787 218.19187)"/><path clip-path="url(#C)" d="m0 0c5.774 8.175 17.308 23.552 37.977 31.727-12.017-12.017-29.802-34.128-34.128-42.778" fill="#f9d050" transform="matrix(1.3333333 0 0 -1.3333333 998.7148 231.0128)"/><path clip-path="url(#D)" d="m0 0c5.774 8.175 17.308 23.552 37.977 31.727-12.017-12.018-29.802-34.128-34.128-42.778" fill="none" stroke="#000" stroke-width=".404" transform="matrix(1.3333333 0 0 -1.3333333 998.7148 231.0128)"/><path clip-path="url(#E)" d="m0 0c8.651 4.808 25.959 12.5 38.453 10.093-7.692-2.882-30.762-13.458-40.854-23.07" fill="#f9d050" stroke="#000" stroke-width=".404" transform="matrix(1.3333333 0 0 -1.3333333 1007.6915 245.1144)"/><path clip-path="url(#F)" d="m0 0c8.176 8.651 23.076 21.628 38.937 26.919-11.536-11.059-36.052-36.052-39.414-39.896" fill="#f9d050" transform="matrix(1.3333333 0 0 -1.3333333 1005.1249 240.6248)"/><path clip-path="url(#G)" d="m0 0c8.176 8.651 23.076 21.628 38.937 26.918-11.536-11.058-36.052-36.051-39.414-39.895" fill="none" stroke="#000" stroke-width=".404" transform="matrix(1.3333333 0 0 -1.3333333 1005.1249 240.6248)"/><path clip-path="url(#H)" d="m0 0c-5.768 17.785-14.424 34.61-27.4 39.901 7.209-10.576 16.341-25.958 21.15-49.027" fill="#f9d050" stroke="#000" stroke-width=".404" transform="matrix(1.3333333 0 0 -1.3333333 974.36587 233.57853)"/><path clip-path="url(#I)" d="m0 0c-9.609 11.534-22.593 23.076-37.493 25.477 10.093-5.768 26.919-22.593 33.168-38.936" fill="#f9d050" stroke="#000" stroke-width=".404" transform="matrix(1.3333333 0 0 -1.3333333 959.62107 232.93467)"/><path clip-path="url(#J)" d="m0 0c-12.017 21.626-21.149 25.477-26.44 29.801 4.324-8.175 14.9-29.801 21.149-38.936" fill="#f9d050" transform="matrix(1.3333333 0 0 -1.3333333 966.67573 232.29013)"/><path clip-path="url(#K)" d="m0 0c1.924-2.884 5.768-9.611 7.209-14.419m-2.884 22.592c2.884-7.69 8.175-20.666 10.099-25.958m27.878 26.918c-3.365-4.325-10.093-16.819-12.018-21.152m24.518 16.827c-4.332-4.808-14.425-16.827-18.268-22.593m4.81-7.208c4.802 6.249 14.418 14.9 17.784 17.785m-14.426-21.152c4.809 3.848 15.384 10.099 20.669 12.017m-77.864-4.802c2.884-2.407 8.168-5.291 12.976-9.616m-12.976 19.709c5.765-3.367 14.417-11.534 17.301-16.825m6.732 15.384c-12.017 21.626-21.149 25.476-26.44 29.801 4.324-8.175 14.9-29.801 21.149-38.936" fill="none" stroke="#000" stroke-width=".404" transform="matrix(1.3333333 0 0 -1.3333333 951.28907 215.63267)"/><path clip-path="url(#L)" d="m0 0c0 4.325 2.884 9.133 5.768 9.133 3.367 0 5.774-5.772 5.774-9.133 0-3.85-2.884-7.208-5.774-7.208-2.884 0-5.768 2.881-5.768 7.208" fill="#f9d050" transform="matrix(1.3333333 0 0 -1.3333333 973.07813 212.42293)"/><path clip-path="url(#M)" d="m0 0c0 4.325 2.884 9.133 5.768 9.133 3.367 0 5.774-5.774 5.774-9.133 0-3.85-2.884-7.208-5.774-7.208-2.884 0-5.768 2.881-5.768 7.208z" fill="none" stroke="#000" stroke-width=".404" transform="matrix(1.3333333 0 0 -1.3333333 973.07813 212.42293)"/><path clip-path="url(#N)" d="m0 0c.477 4.808 3.842 8.658 6.726 8.175 2.883-.483 4.325-6.249 3.842-9.616-.476-3.844-3.842-6.728-6.244-6.251-2.407 0-4.807 3.367-4.324 7.692" fill="#f9d050" transform="matrix(1.3333333 0 0 -1.3333333 964.7552 217.55573)"/><path clip-path="url(#O)" d="m0 0c.477 4.808 3.842 8.658 6.726 8.175 2.883-.483 4.326-6.249 3.842-9.616-.476-3.844-3.842-6.728-6.244-6.251-2.407 0-4.807 3.367-4.324 7.692z" fill="none" stroke="#000" stroke-width=".404" transform="matrix(1.3333333 0 0 -1.3333333 964.7552 217.55573)"/><path clip-path="url(#P)" d="m0 0c-.967 4.325.958 9.133 3.842 9.616s5.767-4.325 6.25-8.175c.959-3.842-1.443-7.691-3.843-7.691-2.407-.478-5.772 1.925-6.249 6.25" fill="#f9d050" stroke="#000" stroke-width=".404" transform="matrix(1.3333333 0 0 -1.3333333 982.05733 219.47773)"/><path clip-path="url(#Q)" d="m0 0c0 4.808 2.882 9.134 5.766 9.134 3.367 0 5.767-5.291 5.767-9.134 0-3.849-2.884-7.209-5.767-7.209-2.884 0-5.766 2.884-5.766 7.209" fill="#f9d050" stroke="#000" stroke-width=".404" transform="matrix(1.3333333 0 0 -1.3333333 972.44533 224.602)"/><path clip-path="url(#R)" d="m0 0c0 4.333 3.367 9.134 6.251 9.134 2.882 0 5.766-5.767 5.766-9.134 0-3.842-3.359-7.209-5.766-7.209-2.884 0-6.251 2.884-6.251 7.209" fill="#f9d050" stroke="#000" stroke-width=".404" transform="matrix(1.3333333 0 0 -1.3333333 960.90107 227.8116)"/><path clip-path="url(#S)" d="m0 0c0 4.325 2.884 9.133 5.768 9.133 3.359 0 5.766-5.768 5.766-9.133 0-3.844-2.883-7.21-5.766-7.21-2.884 0-5.768 2.883-5.768 7.21" fill="#f9d050" stroke="#000" stroke-width=".404" transform="matrix(1.3333333 0 0 -1.3333333 984.6224 225.244)"/><path clip-path="url(#T)" d="m0 0c0 4.808 3.365 9.133 6.249 9.133s5.768-5.289 5.768-9.133c0-3.848-2.884-7.209-5.768-7.209s-6.249 2.884-6.249 7.209" fill="#f9d050" stroke="#000" stroke-width=".404" transform="matrix(1.3333333 0 0 -1.3333333 982.05733 230.36893)"/><path clip-path="url(#U)" d="m0 0c0 4.802 2.884 9.133 5.767 9.133 3.366 0 5.767-5.774 5.767-9.133 0-3.85-2.884-7.208-5.767-7.208s-5.767 2.881-5.767 7.208" fill="#f9d050" transform="matrix(1.3333333 0 0 -1.3333333 971.8008 236.13587)"/><path clip-path="url(#V)" d="m0 0c0 4.802 2.884 9.133 5.768 9.133 3.365 0 5.766-5.774 5.766-9.133 0-3.85-2.884-7.208-5.766-7.208-2.884 0-5.768 2.881-5.768 7.208z" fill="none" stroke="#000" stroke-width=".404" transform="matrix(1.3333333 0 0 -1.3333333 971.8008 236.13587)"/><path clip-path="url(#W)" d="m0 0c0 4.802 2.402 9.133 4.81 9.133 2.401 0 4.325-5.774 4.325-9.133 0-3.85-2.401-7.208-4.325-7.208-2.408 0-4.81 2.881-4.81 7.208" fill="#f9d050" stroke="#000" stroke-width=".404" transform="matrix(1.3333333 0 0 -1.3333333 955.776 236.13587)"/><path clip-path="url(#X)" d="m0 0c0 4.326 2.401 8.651 4.809 8.651 2.4 0 4.807-5.284 4.807-8.651 0-4.325-2.889-7.209-4.807-7.209-2.408 0-4.809 2.884-4.809 7.209" fill="#f9d050" stroke="#000" stroke-width=".404" transform="matrix(1.3333333 0 0 -1.3333333 991.668 234.85787)"/><path clip-path="url(#Y)" d="m0 0c.959 4.801 3.843 8.65 5.769 8.167 1.923-.481 2.407-6.25 1.44-9.616-.477-4.325-3.366-6.726-5.284-6.243-1.925.475-2.884 3.842-1.925 7.692" fill="#f9d050" stroke="#000" stroke-width=".404" transform="matrix(1.3333333 0 0 -1.3333333 995.51307 245.7472)"/><path clip-path="url(#Z)" d="m0 0c.482 4.325 3.366 8.652 5.768 8.168 2.883 0 4.325-5.767 3.849-9.134-.483-4.325-2.884-7.209-5.291-6.726-2.4 0-4.807 3.36-4.326 7.692" fill="#f9d050" stroke="#000" stroke-width=".404" transform="matrix(1.3333333 0 0 -1.3333333 983.33467 243.826)"/><path clip-path="url(#aa)" d="m0 0c-1.443 4.801-4.327 8.167-6.251 7.686-1.918-.478-2.401-6.245-1.441-9.612.964-3.848 3.848-6.249 5.766-5.766 1.449.475 2.89 3.842 1.926 7.692" fill="#f9d050" stroke="#000" stroke-width=".404" transform="matrix(1.3333333 0 0 -1.3333333 965.39067 245.7472)"/><path clip-path="url(#ab)" d="m0 0c0 4.325 2.407 8.651 4.808 8.651 2.883 0 4.808-5.284 4.808-8.651 0-4.325-2.401-7.209-4.808-7.209-1.917 0-4.808 2.884-4.808 7.209" fill="#f9d050" stroke="#000" stroke-width=".404" transform="matrix(1.3333333 0 0 -1.3333333 960.90107 244.46987)"/><path clip-path="url(#ac)" d="m0 0c0 4.808 2.884 9.133 5.768 9.133 3.361 0 5.768-5.285 5.768-9.133 0-3.844-2.884-7.209-5.768-7.209s-5.768 2.884-5.768 7.209" fill="#f9d050" stroke="#000" stroke-width=".404" transform="matrix(1.3333333 0 0 -1.3333333 970.5208 247.0356)"/><path clip-path="url(#ad)" d="m0 0c-.958-3.849-4.325-7.209-1.925-12.5-4.324 1.443-8.168 1.924-11.535-1.924 4.327.483 8.175-.96 10.095-3.844-3.844.483-5.768-1.441-6.728-3.842 3.367.96 6.728 1.918 8.168 1.442-1.44-1.442-3.843-3.849-4.324-5.773 2.884 2.407 6.249 1.924 8.173 3.365-1.442-3.365 1.442-6.726 3.844-10.092-.484 4.808 2.407 8.168.96 10.575 4.331-.964 4.807-4.808 11.056-4.808-2.4 1.441-3.842 6.251-6.725 6.251 1.441.482 7.209.958 8.169 0-.96 1.924-4.328 3.842-6.251 3.842 1.923 1.924 5.291 5.767 7.691 6.732-3.366-.481-8.651-.965-10.575-3.848 4.807 3.848 3.849 11.059 9.135 12.017-2.885.483-7.211-1.442-10.577-4.802 1.442 2.884 1.442 6.726 3.366 7.686-3.842-.96-8.174-5.768-9.617-8.169 0 2.401-1.441 6.251-2.4 7.692" fill="#f9d050" transform="matrix(1.3333333 0 0 -1.3333333 973.72267 176.53227)"/><path clip-path="url(#ae)" d="m0 0c-1.442-.958-2.884-2.401-3.36-4.325m.476 10.099c-.96-.966-2.884-4.332-2.884-7.215m-3.367 6.732c0-1.441 0-4.325-.476-5.291m-1.924 12.983c-.958-3.849-4.325-7.209-1.925-12.5-4.324 1.443-8.168 1.924-11.535-1.924 4.327.483 8.175-.96 10.095-3.844-3.844.483-5.768-1.441-6.728-3.842 3.367.958 6.728 1.918 8.168 1.441-1.44-1.441-3.843-3.848-4.324-5.772 2.884 2.407 6.249 1.924 8.173 3.365-1.442-3.365 1.442-6.726 3.843-10.093-.483 4.809 2.408 8.169.96 10.576 4.331-.966 4.808-4.808 11.057-4.808-2.4 1.441-3.842 6.249-6.726 6.249 1.442.483 7.209.96 8.169 0-.96 1.926-4.327 3.844-6.251 3.844 1.924 1.924 5.291 5.767 7.692 6.732-3.366-.481-8.652-.965-10.575-3.848 4.807 3.848 3.849 11.059 9.134 12.017-2.884.483-7.211-1.442-10.576-4.802 1.442 2.884 1.442 6.726 3.365 7.685-3.841-.959-8.173-5.767-9.616-8.168 0 2.401-1.441 6.251-2.4 7.692z" fill="none" stroke="#000" stroke-width=".404" transform="matrix(1.3333333 0 0 -1.3333333 989.1028 193.8428)"/><path clip-path="url(#af)" d="m0 0c-3.36 0-6.244 1.441-8.169 3.848-3.366 4.327-12.5 6.251-16.343 2.403-1.441-.96-3.365-.96-4.808-1.443-2.401 0-5.284-2.401-4.326-7.209 1.925 1.442 2.402 0 3.843 0 .966.483.483-.483.483-1.443 0-2.401 5.291-7.208 10.092-6.732 5.291 0 7.693-1.918 8.659-2.883 1.441-1.442.476-.958 1.441-3.359 1.442-1.443 1.917-1.927-.483-3.85-3.366-2.884-5.766-9.61 0-14.901 6.251-4.808 22.111-12.017 39.896 1.924 17.308 13.459 44.219 5.768 46.145.959 2.407-4.808 3.365-7.691 3.848-10.092.477-1.925 2.884-3.844 6.244-3.367 3.366 0 7.216-1.441 9.133-2.884 2.408-1.441 5.769-.958 4.809 3.367-1.925 13.459-10.093 15.384-11.058 21.626 4.809-.475 8.174-.475 10.1 1.443 1.44 1.925 3.358 5.291 5.284 6.249 1.441.967 1.441 1.927-.482 1.443-2.402-.476-3.844-1.443-8.169-.959-22.11 2.401-84.122 19.227-96.139 15.86" fill="#059334" transform="matrix(1.3333333 0 0 -1.3333333 921.16533 257.29147)"/><path clip-path="url(#ag)" d="m0 0c-3.36 0-6.244 1.441-8.169 3.848-3.366 4.327-12.5 6.251-16.343 2.403-1.441-.96-3.365-.96-4.808-1.443-2.401 0-5.284-2.401-4.326-7.209 1.925 1.442 2.402 0 3.843 0 .966.483.483-.483.483-1.443 0-2.401 5.291-7.208 10.092-6.732 5.291 0 7.693-1.918 8.659-2.883 1.441-1.442.476-.958 1.441-3.359 1.442-1.443 1.919-1.927-.483-3.85-3.366-2.884-5.766-9.61 0-14.901 6.251-4.808 22.111-12.017 39.896 1.924 17.308 13.459 44.219 5.768 46.145.959 2.407-4.808 3.365-7.691 3.848-10.092.477-1.925 2.884-3.844 6.244-3.367 3.366 0 7.216-1.441 9.133-2.884 2.408-1.441 5.769-.958 4.809 3.367-1.925 13.459-10.093 15.384-11.058 21.626 4.809-.475 8.174-.475 10.1 1.443 1.44 1.925 3.358 5.291 5.284 6.249 1.441.967 1.441 1.927-.482 1.443-2.402-.476-3.844-1.443-8.169-.959-22.11 2.401-84.122 19.227-96.139 15.86z" fill="none" stroke="#000" stroke-width=".899" transform="matrix(1.3333333 0 0 -1.3333333 921.16533 257.29147)"/><path clip-path="url(#ah)" d="m0 0c-2.407-1.441-4.808-3.842-9.133-9.609-4.807-6.25-19.227-12.5-37.012-12.5-17.308 0-27.883 2.883-35.576 9.132-4.325 3.368-7.685 5.285-10.569 6.728-5.291 2.407-6.249 7.692-4.808 12.017-1.441-2.401-2.407-4.802-5.291-4.325-1.918 0-5.766 0-4.801-1.918-.484.958-.484 2.401-.965 2.882-.477.477-.96.96-.96.96 1.441-.96 4.808 1.925 7.209 1.925 1.925-.482 4.325 1.918 3.843 4.807-.476 2.401-.959 4.327-1.442 6.245 3.85 1.924 54.319-7.209 64.412-8.169 10.093-.483 38.937-4.808 35.093-8.175" transform="matrix(1.3333333 0 0 -1.3333333 1051.9153 279.0832)"/><path clip-path="url(#ai)" d="m0 0c-2.407-1.441-4.808-3.842-9.133-9.609-4.807-6.25-19.227-12.5-37.012-12.5-17.308 0-27.883 2.883-35.576 9.132-4.325 3.368-7.685 5.285-10.569 6.728-5.291 2.407-6.249 7.692-4.808 12.017-1.441-2.401-2.407-4.802-5.291-4.325-1.918 0-5.766 0-4.801-1.918-.484.958-.484 2.401-.965 2.882-.477.477-.96.96-.96.96 1.441-.96 4.808 1.925 7.209 1.925 1.925-.484 4.325 1.918 3.843 4.807-.476 2.401-.959 4.327-1.442 6.245 3.85 1.924 54.319-7.209 64.412-8.169 10.093-.483 38.937-4.808 35.093-8.175z" fill="none" stroke="#000" stroke-width=".899" transform="matrix(1.3333333 0 0 -1.3333333 1051.9153 279.0832)"/><path clip-path="url(#aj)" d="m0 0c4.808 4.808 10.575 7.208 16.344 5.768h1.44c2.884 2.407 9.616 2.883 13.46.966h1.924c5.769 1.917 16.819 0 20.669-3.85l1.441-.96c12.977.96 20.668-4.808 29.803-13.941.958-.96 2.401-2.884 4.809-3.367 2.883-.477 3.358-1.918.958-3.359-2.884-1.443-5.285-3.85-10.093-9.134-4.325-5.769-18.267-11.541-35.569-11.541-16.826 0-26.918 2.889-34.611 8.657-4.324 3.36-7.691 5.284-10.092 6.727-2.884.958-6.734 4.808-5.292 8.65.96 3.85-1.442 8.658-3.366 13.46 1.443.966 5.291 2.407 7.215 1.441z" fill="#059334" transform="matrix(1.3333333 0 0 -1.3333333 930.14187 254.72573)"/><path clip-path="url(#ak)" d="m0 0c4.808 4.808 10.575 7.208 16.344 5.768h1.44c2.884 2.407 9.616 2.883 13.46.966h1.924c5.769 1.917 16.819 0 20.669-3.85l1.441-.96c12.977.96 20.668-4.808 29.803-13.941.958-.96 2.401-2.884 4.809-3.367 2.883-.477 3.358-1.918.958-3.359-2.883-1.443-5.285-3.85-10.093-9.134-4.325-5.769-18.267-11.541-35.569-11.541-16.826 0-26.918 2.889-34.611 8.657-4.324 3.36-7.691 5.284-10.092 6.727-2.884.958-6.734 4.808-5.292 8.65.96 3.85-1.442 8.658-3.366 13.46 1.443.966 5.291 2.407 7.215 1.441z" fill="none" stroke="#000" stroke-width=".899" transform="matrix(1.3333333 0 0 -1.3333333 930.14187 254.72573)"/><path clip-path="url(#al)" d="m0 0c-9.135 9.133-16.826 14.901-29.803 13.941 0-.482 0-1.924-.481-2.882 7.691-2.884 18.749-11.542 23.551-17.785 1.925 1.918 5.291 4.325 6.733 6.726" fill="#00493d" stroke="#000" stroke-width=".899" transform="matrix(1.3333333 0 0 -1.3333333 1043.5833 270.74853)"/><path clip-path="url(#am)" d="m0 0c-3.85 3.85-14.9 5.768-20.669 3.85 0-1.926 0-4.81-.966-6.734 3.367-1.441 6.251-4.808 9.135-8.169 1.924.477 6.732 1.92 9.133 2.401.96 1.926 2.884 6.251 3.367 8.652" fill="#00493d" stroke="#000" stroke-width=".899" transform="matrix(1.3333333 0 0 -1.3333333 1001.9245 250.88067)"/><path clip-path="url(#an)" d="m0 0c-3.844 1.917-10.576 1.441-13.46-.966-.959-1.925-1.44-5.768-1.44-7.692 1.923 0 4.807-1.441 5.765-2.401 2.884.96 6.735 2.884 8.175 4.325.477 1.924 1.443 4.808.96 6.734" fill="#00493d" stroke="#000" stroke-width=".899" transform="matrix(1.3333333 0 0 -1.3333333 971.8008 245.7472)"/><path clip-path="url(#ao)" d="m0 0c4.808 4.808 10.575 7.208 16.344 5.768-.96-1.441-1.444-4.326-1.444-7.209-5.291.483-12.016-.96-14.9-2.884z" fill="#00493d" stroke="#000" stroke-width=".899" transform="matrix(1.3333333 0 0 -1.3333333 930.14187 254.72573)"/><path clip-path="url(#ap)" d="m0 0c-4.325 6.251-14.9 13.459-22.116 16.825 0-.481-.96-2.401-1.443-3.842 2.89-4.332 8.659-13.943 11.059-19.234 2.4.966 9.133 3.85 12.5 6.251" fill="#00493d" transform="matrix(1.3333333 0 0 -1.3333333 1032.0481 281.0044)"/><path clip-path="url(#aq)" d="m0 0c-4.325 6.249-14.9 13.459-22.116 16.825 0-.481-.96-2.401-1.443-3.842 2.89-4.332 8.659-13.943 11.059-19.234 2.4.966 9.133 3.85 12.5 6.251z" fill="none" stroke="#000" stroke-width=".899" transform="matrix(1.3333333 0 0 -1.3333333 1032.0481 281.0044)"/><path clip-path="url(#ar)" d="m0 0c.966 6.732 1.442 16.343 1.442 19.708 2.408.484 7.209 1.926 9.133 2.408 2.402-3.848 8.175-13.941 10.576-18.749-5.767-1.443-15.383-3.844-21.151-3.367" fill="#00493d" stroke="#000" stroke-width=".899" transform="matrix(1.3333333 0 0 -1.3333333 983.33467 295.10533)"/><path clip-path="url(#as)" d="m0 0c2.407.959 5.774 2.884 8.175 4.808 1.924-1.441 5.766-4.808 7.209-6.732 0-4.325-1.443-16.827-1.925-21.152-3.843 0-10.092.966-13.459 2.884.483 7.215.966 15.384 0 20.192" fill="#00493d" transform="matrix(1.3333333 0 0 -1.3333333 960.90107 264.33773)"/><path clip-path="url(#at)" d="m0 0c2.407.959 5.774 2.884 8.175 4.808 1.924-1.441 5.767-4.808 7.209-6.732 0-4.327-1.442-16.827-1.925-21.152-3.843 0-10.092.966-13.459 2.884.483 7.215.966 15.384 0 20.192z" fill="none" stroke="#000" stroke-width=".899" transform="matrix(1.3333333 0 0 -1.3333333 960.90107 264.33773)"/><path clip-path="url(#au)" d="m0 0c.477.959.96 4.326.96 5.768 3.844 2.4 13.46 4.808 20.668.959.483-4.808 0-16.827-.482-19.71-6.244 4.81-16.342 11.542-21.146 12.983" fill="#00493d" stroke="#000" stroke-width=".899" transform="matrix(1.3333333 0 0 -1.3333333 928.862 272.02787)"/><path clip-path="url(#av)" d="m0 0c-.966 0-1.442 2.884-3.366 2.884-.484 0-1.925-.483-2.402 0 0-.96.477-1.924.96-2.401.482-1.442 2.884-.483 4.808-.483" transform="matrix(1.3333333 0 0 -1.3333333 896.8164 260.49267)"/><path clip-path="url(#aw)" d="m0 0v-2.401m4.809 9.611c-1.442-.96-2.408-2.884-3.366-4.326m11.534-7.692c-1.918-2.884-5.285-4.808-7.209-3.842m0 11.05c1.441 0 2.407 1.926 4.808-.474.96-.967 2.401-1.443 3.367-1.443m.477-10.576c4.331-1.924 7.691 8.169 11.057 7.692m-14.418-7.215c5.768 0 6.726 7.215 9.61 7.692" fill="none" stroke="#000" stroke-width=".899" transform="matrix(1.3333333 0 0 -1.3333333 882.0716 258.5708)"/><path clip-path="url(#ax)" d="m0 0c.483-.966-.481-3.366 0-4.324.96-1.925.96-2.891 2.401-3.851h3.367c10.576 0 23.076 4.327 33.652 4.327 10.093 0 16.342-3.367 22.109-3.367 3.367 0 6.251 2.407 6.251 4.808 0 2.407-3.85 3.848-12.018 3.848-11.541 0-17.785-2.881-27.402-2.881-14.418 0-16.825 5.284-16.825 7.685 0 2.407 2.407 5.773 10.1 5.773 2.4 0 4.325.476 5.284 1.442.483.958 1.925 2.884 4.809 4.325 3.367 1.918 10.092 0 13.46 2.401 0-1.924-2.884-4.808-5.292-5.768 4.808 1.442 10.099 1.442 11.057-2.4-2.4 1.442-6.249.476-7.691 0-1.925-.482-2.883-.965-4.809-1.442 1.926.477 2.884-3.367 5.768-3.367-2.884-2.407-7.686-2.407-12.493-.482-1.443.482-5.291 1.925-7.693 1.925-4.807 0-7.691-.96-7.691-2.884 0-2.408 2.884-3.85 11.534-3.85 8.657 0 13.459 2.407 26.442 2.407-.966 1.443.477 2.884-1.441 4.327 4.802 0 10.093-1.443 12.017-4.808-.483 3.365 2.401 6.249 1.441 9.133 2.884-.483 5.285-3.367 5.767-5.768 0 1.443 1.918 1.443 1.918 2.884 2.891-1.441 4.333-4.808 3.851-7.692 1.44 2.401 2.884 1.443 3.842 4.326.966-1.925.482-7.693-2.884-9.611 2.884 1.918 7.21 1.918 10.094-1.44-2.884.476-4.326-.967-5.768-1.444-5.767-3.365-15.377-5.291-22.593-4.807-7.685.476-8.651 1.919-13.453 1.919 2.884-.477 8.651-6.244 13.935-6.244 3.367 0 5.767 0 7.211.476 1.44.484 3.847 0 5.765-.96 1.444-1.44 4.333-2.884 6.251-2.4-.476-1.925-1.442-2.884-2.883-3.367 2.407-1.442.965-2.408 3.367-4.326-.96 0-1.926-.963-3.367-.482 1.441-1.441 1.441-3.365 2.883-4.325-.476 0-1.918-.484-2.883 0 1.441-1.925 0-4.325 1.441-5.285 1.442-1.924-1.441-4.331-3.842-2.408.477-1.44-.967-2.883-2.407-2.4-1.443.477-2.401 1.918-1.918 2.4 0 .484 0 .484.475.96-.958-1.442-2.882-1.442-3.842-.96-.484.484-.96.96-.96 1.442-3.365-.958-4.808 1.926-4.325 3.367.477 1.442 3.361 1.924 4.325 1.442.96-.483 1.92-.96 2.884 0 .96.482 1.443 1.442 1.443 2.402 0 1.44-1.443 5.765-7.692 5.291-7.21-.484-18.751 1.44-24.519 3.365-.476.477-.958.477-1.44.959 0-1.924-1.918-2.884-1.918-4.808 0-2.4.958-4.326 3.842-5.285-1.442-2.407-3.842-1.924-4.809-.482 0-1.442-1.924-2.402-1.924-4.325-.476.958-.96 1.441-1.442 2.4-1.442-3.36-5.285-5.284-7.209-4.326-2.402-1.924-5.285-1.442-6.249.483-1.444-.965-3.362-.965-4.327 0 0-1.441-.958-.965-1.442-2.884 0-.964-1.917-1.441-2.884-.964-.959.483-1.44 2.407-.476 3.365-1.441-.958-2.884-.958-3.848 0 0 .966 0 2.407.964 2.884h.96c-.96.483-2.4 0-3.367.483-.958.959-.958 1.924-.483 2.884.483.482 1.926 1.441 2.89.482l.477-.482c0 .96.483 1.924.966 1.924.958.476 2.401.476 3.842-.964.959-1.444 1.924-1.444 4.808-.96 2.401 0 6.251 2.4 9.135 4.807-8.175 1.444-3.368 6.727-.966 8.653-1.918.481-4.802.481-6.726-.484-10.093-5.285-20.669-11.535-27.401-9.609 0-.967.481-1.926.965-2.885-1.442 0-4.332 0-5.291 1.442-.484-.964-1.442-3.366-.484-5.291-.958.965-3.842 1.925-5.285 2.407.96-.965 0-2.884.483-4.325-1.44 1.441-3.847 2.401-4.807 1.441-.965-.965-2.884-1.441-4.325-.965-.966-1.442-2.408-2.4-3.85-2.884 0 .96 0 2.408-.477 2.884-.481-1.442-1.924-3.366-3.848-4.324 0 .958 0 2.4-.477 3.365 0-1.925-3.848-2.884-4.332-4.325.484 1.441.484 2.884.484 3.842-.96-1.442-2.401-2.882-4.808-3.365.481.964.964 1.923.481 2.883-.481-1.919-3.366-2.883-5.766-2.4 0-.96-1.926-2.402-4.326-.96-1.442.477-2.408 1.918-1.442 2.884-1.925 0-3.848 1.924-2.884 3.365 0 .477.477.96.477 1.442-1.441.96-1.918 2.884-.477 4.326.477.476 1.918.476 2.884.476 0 3.851 3.367 3.851 4.808.967.96-1.443 3.844-3.851 6.245-3.367.964 0 1.44.482 2.407.482 2.884.959 8.65 3.362 12.017 6.243.476 1.443.476 2.408.476 3.368-1.919-.96-3.843-1.925-4.801-3.368v1.443c-1.443 0-3.85.483-4.808.483.475.482.958 2.883 1.924 3.365-2.407-.482-4.808 0-6.734.484.959.96.959 2.4 1.443 3.844-.96-.484-3.367.481-5.285 0 .476 1.44.96 3.365 2.401 3.841-1.925-.476-4.325 0-6.726.966 1.917 0 2.882 2.402 4.325 2.402-3.85 0-4.808 1.923-6.732 2.883 1.441-.476 2.407.964 3.848.964-1.441.477-3.848 2.884-2.89 4.325-.476-.481-.958-1.441-1.918-1.923-.966-.484-2.884 0-4.325 1.442-.966 1.924-.483 4.325 1.441 4.808-2.407.477-2.407 2.884-1.441 3.842.477.966 2.4 2.408 3.359.966.483-.483.966-1.442 1.443-1.924-.477.958-.477 2.884-.477 4.325.477 1.441 1.442 1.441 2.884 1.924 1.441 0 2.4-1.441 2.4-2.883s.484-2.408.965-4.326c0 .477.477 1.442.477 1.918 0 1.926 2.407 1.443 3.849.966 1.442-.483 1.918-3.367 0-4.808-.965-.966-.482-2.408.478-3.367 3.365-5.285 9.133-9.616 13.94-10.092 0 1.923.96 3.843 2.402 5.284 0 .967.482 2.407.966 3.367.476 2.884 1.918 4.325 3.841 3.365-.481.477-.958.96-.958 1.443-1.442 1.441-2.883 3.842-1.925 5.768.96 1.924 3.849 1.441 4.809.482-.482 2.883 2.882 5.284 2.882 6.727.483-1.443 1.443-3.367.96-4.808.483 1.923 3.851 4.325 6.251 5.291-.96-1.443 1.924-3.85 1.441-5.291.966 2.407 4.808 3.848 7.692 3.848-.959-.965-.959-2.884-.959-3.848 1.442 0 3.843.481 4.803 1.923 0-1.923-.96-3.842-1.919-4.807.476.483 2.4.483 3.843.483-1.443-1.443-.96-2.884-2.401-3.844 1.918.96 4.325.96 4.809-.965.958-1.442-.484-3.843-1.45-5.286-.958-.481-1.918-1.441-2.401-1.441" fill="#f9d050" transform="matrix(1.3333333 0 0 -1.3333333 959.62107 373.2908)"/><path clip-path="url(#ay)" d="m0 0c-.481-.482-.958 0-.958 0-.966.96.477 2.884 1.918 3.844-1.441-.484-2.401-.484-3.36-.484-.965-2.883-3.849-4.326-5.767-2.4-.482-1.926-2.884-4.326-4.81-3.844-1.923.96-2.407 2.402-1.923 3.844-2.402-2.884-5.286-.96-6.249 0-.477.958 0 3.365.963 6.249m18.262-12.977c0-.963 1.443-2.888 5.291-2.888-.483 0-.966.481-.966.481m36.052 18.751h-3.842m40.855-45.185c-.477-1.443-.477-1.926-.477-3.368m-3.85 3.368c.483-.484 0-1.926 0-2.408m-34.126 17.308c-7.693 3.366-7.209 7.692-13.46 7.209m42.784-24.035c-.964.966-.964 2.407.476 3.367.967.482 1.444.959 2.408 1.442m-38.459-.483c0 .965 0 1.925.482 2.885m-13.94-6.728c1.447.483 2.407 1.443 3.847 2.884m2.402-3.367c.966.483 1.442 1.442 1.924 3.367m-15.859-2.401c-.483-.483-.967-.966-1.443-.966m-.964 3.367s-.477-.483-.96-.483m1.441 2.883c-.958-.476-1.441 0-1.924.484m-63.447-7.209s0 .476.477.476c.965.482 2.407 1.448 2.89 2.408m3.842-1.926c-.483-.958-1.441-1.924-1.441-2.882m22.593 4.324c.476.965.476 2.407.958 3.367m17.786 4.809c-.477 1.917.481 4.324 3.365 5.284m30.762 4.809c.966-.484 2.407-.96 2.884-1.444.482.96 2.407 2.402 3.848 2.884m-90.371-17.302c1.441.477 2.884-.482 3.849.477m24.035 8.65c-.484-1.918-.966-4.325-1.924-4.801 3.842 1.918 7.208 4.801 7.691 9.134m-20.191-11.058c-3.844-.96-6.728-.484-9.611 1.441-.482.483-.965.483-1.442.959m29.802 12.018c-.965-1.918-2.407-3.36-3.849-4.325m.484 6.732c-3.367-2.884-4.809-5.291-5.285-8.657m-21.152 26.441c-.966.96-2.407 1.443-2.884 1.443m4.802-4.327h.966m-1.442 6.728c-.482 0-.482 0-.965.483m5.291-1.925c0 .482 0 .482.481.965m22.588-9.616c-.476 0-.96-.483-1.442-.483m2.884 4.808c-.477-.483-1.442-.96-1.918-1.441m3.36 9.616c.481 0 .965-.966 1.447-1.924-1.447.958-2.889-1.443-1.924-2.884m29.802-24.994c0-.965 0-2.407-.966-2.89m-2.401 1.925c0-.96-.958-2.402-1.441-2.884m-1.924 1.924c0-.482-.477-1.442-1.443-1.442m-16.341 25.953c-.477-2.4-.477-5.767-.96-7.208-.484-.96-1.442-4.327 2.4-5.285 4.325-.966 6.732-.483 9.135 6.726m-11.535 13.46c-.96-2.401-.484-5.285 1.44-5.768m-3.364-3.844c0-.481-.96-1.441-1.925-1.923.481-.958 0-3.366-.96-3.842.483-.967 0-2.407-.482-3.367 0-.484.482-1.925.482-2.408m8.652-4.325c.482.484.964 1.442.964 1.924.96 0 1.918.483 2.402.96 1.923 0 3.366 1.441 3.849 2.884.958 0 1.442 2.407 1.918 3.365.484-.477 1.442 0 1.924 1.925.96-.482 2.401 0 2.884 1.442m-10.575 11.534c-1.925 0-3.366-1.441-2.884-2.883s2.4-1.442 3.843-.482m3.367-1.443c.481-.477 2.883-1.442 5.29-.477-1.925-.481-3.365 1.92-1.442 3.367m2.884-.483c-.966-.482-1.924.96-3.367.483-.482 0-1.924-.483-2.4 0m1.442.96c-.966 0-1.926-.483-1.926-1.925 0-.959-1.441-2.402-1.441-3.843-.483-1.924-1.443-2.407-2.884-1.924-1.44.958-1.44.958-1.44 2.4 0 1.925 2.4 2.408 2.4 4.332.481.96.958 2.401 1.441 2.401-2.401-1.441-5.767-.483-6.249 2.401m13.941-23.553c1.925 1.443 2.401 2.403 2.401 6.735m-5.767-11.06c2.883 1.925 3.366 4.809 3.366 9.135m-5.284-9.617v-2.402c1.918 1.444 2.4 3.368 2.4 5.768m-13.94-12.017c1.923.958 4.807 3.849 6.249 7.209-.484-1.442 0-3.843-.958-5.285 2.4 2.402 3.358 3.843 3.841 6.25 0-.481.483-1.441.483-1.925.96.96 1.925 1.925 1.925 3.844m-12.5-4.802c-.96-1.925 0-5.291-1.442-6.733 2.402 1.442 4.325 3.366 4.809 6.733m-9.135-4.333c2.884.966 4.808 1.926 7.208 6.251m-9.615 8.175c-4.802-2.884-6.727-5.291-5.767-10.576m6.249 13.941c-3.366-1.447-4.324-4.807-4.807-6.732m34.609 12.5c.483-.966-.481-3.366 0-4.324.96-1.925.96-2.891 2.401-3.851h3.367c10.576 0 23.076 4.327 33.652 4.327 10.093 0 16.342-3.367 22.109-3.367 3.367 0 6.251 2.407 6.251 4.808 0 2.407-3.85 3.848-12.018 3.848-11.541 0-17.785-2.881-27.402-2.881-14.418 0-16.825 5.284-16.825 7.685 0 2.407 2.407 5.773 10.1 5.773 2.4 0 4.325.476 5.284 1.442.483.958 1.925 2.884 4.809 4.325 3.367 1.918 10.092 0 13.46 2.401 0-1.924-2.884-4.808-5.292-5.768 4.808 1.442 10.099 1.442 11.057-2.4-2.4 1.442-6.249.476-7.691 0-1.925-.482-2.883-.965-4.809-1.442 1.926.477 2.884-3.367 5.768-3.367-2.884-2.407-7.686-2.407-12.493-.482-1.443.482-5.291 1.925-7.693 1.925-4.807 0-7.691-.96-7.691-2.884 0-2.408 2.884-3.85 11.534-3.85 8.657 0 13.459 2.407 26.442 2.407-.966 1.443.477 2.884-1.441 4.327 4.802 0 10.093-1.443 12.017-4.808-.483 3.365 2.401 6.249 1.441 9.133 2.884-.483 5.285-3.367 5.767-5.768 0 1.443 1.918 1.443 1.918 2.884 2.891-1.441 4.333-4.808 3.851-7.692 1.44 2.401 2.884 1.443 3.842 4.326.966-1.925.482-7.693-2.884-9.611 2.884 1.918 7.21 1.918 10.094-1.44-2.884.476-4.326-.967-5.768-1.444-5.767-3.365-15.377-5.291-22.593-4.807-7.685.476-8.651 1.919-13.453 1.919 2.884-.477 8.651-6.244 13.935-6.244 3.367 0 5.767 0 7.211.476 1.44.484 3.847 0 5.765-.96 1.444-1.44 4.333-2.884 6.251-2.4-.476-1.925-1.442-2.884-2.883-3.367 2.407-1.442.965-2.408 3.367-4.326-.96 0-1.926-.965-3.367-.482 1.441-1.441 1.441-3.365 2.883-4.325-.476 0-1.918-.484-2.883 0 1.441-1.925 0-4.325 1.441-5.285 1.442-1.924-1.441-4.331-3.842-2.408.477-1.44-.967-2.883-2.407-2.4-1.443.477-2.401 1.918-1.918 2.4 0 .484 0 .484.475.96-.958-1.442-2.882-1.442-3.842-.96-.484.484-.96.96-.96 1.442-3.365-.958-4.808 1.926-4.325 3.367.477 1.442 3.361 1.924 4.325 1.442.96-.483 1.92-.96 2.884 0 .96.482 1.443 1.442 1.443 2.402 0 1.44-1.443 5.765-7.692 5.289-7.21-.482-18.751 1.442-24.519 3.367-.476.477-.958.477-1.44.959 0-1.924-1.918-2.884-1.918-4.808 0-2.4.958-4.326 3.842-5.285-1.442-2.407-3.842-1.924-4.809-.482 0-1.442-1.924-2.402-1.924-4.325-.476.958-.96 1.441-1.442 2.4-1.442-3.36-5.285-5.284-7.209-4.326-2.402-1.924-5.285-1.442-6.249.483-1.444-.965-3.362-.965-4.327 0 0-1.441-.958-.965-1.442-2.884 0-.964-1.917-1.441-2.884-.964-.959.483-1.44 2.407-.476 3.365-1.441-.958-2.884-.958-3.848 0 0 .966 0 2.407.964 2.884h.96c-.96.483-2.4 0-3.367.483-.958.959-.958 1.924-.483 2.884.483.482 1.926 1.441 2.89.482l.477-.482c0 .96.483 1.924.966 1.924.958.476 2.401.476 3.842-.964.959-1.444 1.924-1.444 4.808-.96 2.401 0 6.251 2.4 9.135 4.807-8.175 1.442-3.368 6.727-.966 8.653-1.918.481-4.802.481-6.726-.484-10.093-5.285-20.669-11.535-27.401-9.609 0-.967.481-1.926.965-2.885-1.442 0-4.332 0-5.291 1.442-.484-.964-1.442-3.366-.484-5.291-.958.965-3.842 1.925-5.285 2.407.96-.965 0-2.884.483-4.325-1.44 1.441-3.847 2.401-4.807 1.441-.965-.965-2.884-1.441-4.325-.965-.966-1.442-2.408-2.4-3.85-2.884 0 .96 0 2.408-.476 2.884-.482-1.442-1.925-3.366-3.849-4.324 0 .958 0 2.4-.477 3.365 0-1.925-3.848-2.884-4.332-4.325.484 1.441.484 2.884.484 3.842-.96-1.442-2.401-2.882-4.808-3.365.481.964.964 1.923.481 2.883-.481-1.919-3.366-2.883-5.766-2.4 0-.96-1.926-2.402-4.326-.96-1.442.477-2.408 1.918-1.442 2.884-1.925 0-3.848 1.924-2.884 3.365 0 .477.477.96.477 1.442-1.441.96-1.918 2.884-.477 4.326.477.476 1.918.476 2.884.476 0 3.849 3.367 3.849 4.808.967.96-1.443 3.844-3.851 6.245-3.367.964 0 1.44.482 2.407.482 2.884.959 8.65 3.36 12.017 6.243.476 1.443.476 2.408.476 3.368-1.918-.96-3.843-1.925-4.801-3.368v1.443c-1.443 0-3.85.483-4.808.483.475.482.958 2.883 1.924 3.365-2.407-.482-4.808 0-6.734.484.959.96.959 2.4 1.443 3.844-.96-.484-3.367.481-5.285 0 .476 1.44.96 3.365 2.401 3.841-1.925-.476-4.325 0-6.726.966 1.917 0 2.882 2.402 4.325 2.402-3.85 0-4.808 1.923-6.732 2.883 1.441-.476 2.407.964 3.848.964-1.441.477-3.848 2.884-2.89 4.325-.476-.481-.958-1.441-1.918-1.923-.966-.484-2.884 0-4.325 1.442-.966 1.924-.483 4.325 1.441 4.808-2.407.477-2.407 2.884-1.441 3.842.477.966 2.4 2.408 3.359.966.483-.483.966-1.442 1.443-1.924-.477.958-.477 2.884-.477 4.325.477 1.441 1.442 1.441 2.884 1.924 1.441 0 2.4-1.441 2.4-2.883s.484-2.408.965-4.326c0 .477.477 1.442.477 1.918 0 1.926 2.407 1.443 3.849.966 1.442-.483 1.918-3.367 0-4.808-.965-.966-.482-2.408.478-3.367 3.365-5.285 9.133-9.616 13.94-10.092 0 1.923.96 3.843 2.402 5.284 0 .967.482 2.407.966 3.367.476 2.884 1.918 4.325 3.841 3.365-.481.477-.958.96-.958 1.443-1.442 1.441-2.883 3.842-1.925 5.768.96 1.924 3.849 1.441 4.809.482-.482 2.883 2.882 5.284 2.882 6.727.483-1.443 1.443-3.367.96-4.808.483 1.923 3.851 4.325 6.251 5.291-.96-1.443 1.924-3.85 1.441-5.291.966 2.407 4.808 3.848 7.692 3.848-.959-.965-.959-2.884-.959-3.848 1.442 0 3.843.481 4.803 1.923 0-1.923-.96-3.842-1.919-4.807.476.483 2.4.483 3.843.483-1.443-1.443-.96-2.884-2.401-3.844 1.918.96 4.325.96 4.809-.965.958-1.442-.484-3.843-1.45-5.286-.958-.481-1.918-1.441-2.401-1.441z" fill="none" stroke="#000" stroke-width=".899" transform="matrix(1.3333333 0 0 -1.3333333 959.62107 373.2908)"/><path clip-path="url(#az)" d="m0 0c-1.441-.958-2.884 0-4.325-1.441-.96-.959.482-1.443 1.441-1.443-.475-1.441-.475-1.924 1.926-1.924-.96-1.441 1.924-1.924 1.44-3.841 1.444 1.44 1.444 3.358.96 4.8-.476 1.449-2.883 2.408-1.442 3.849" transform="matrix(1.3333333 0 0 -1.3333333 1000.6367 397.6476)"/><g fill="#073163"><path clip-path="url(#aA)" d="m0 0c-1.924.96-2.407 2.401-1.924 3.844-.483-.96-1.441-1.443-2.401-1.443-1.924-4.325-4.324-8.173-7.209-8.173-3.366-.477-2.89-3.844-.483-3.844 5.285-.959 7.692.96 12.017 9.616" transform="matrix(1.3333333 0 0 -1.3333333 942.31907 377.13587)"/><path clip-path="url(#aB)" d="m0 0c1.442 1.44.477 2.884-.483 3.365-1.442.477-4.326 0-5.766-2.407 1.44.482 2.882.482 3.365-.477.477-.964 1.443-1.924 2.884-.481" transform="matrix(1.3333333 0 0 -1.3333333 878.87107 361.7544)"/><path clip-path="url(#aC)" d="m0 0c3.367 0 4.325-.481 4.809-1.924.482-.96-.484-2.401-1.442-2.401-1.442 0-2.884.96-2.407 1.441.483.96.483 2.403-.96 2.884" transform="matrix(1.3333333 0 0 -1.3333333 882.0716 350.22187)"/><path clip-path="url(#aD)" d="m0 0c2.401-.477 3.36.966 1.92 2.884-.478 1.442-1.92 2.407-4.327 1.924 2.407-1.442 0-3.842 2.407-4.808" transform="matrix(1.3333333 0 0 -1.3333333 894.8932 360.47707)"/><path clip-path="url(#aE)" d="m0 0c1.443-2.407 3.844-2.407 4.804-1.924 1.441.483 1.924 1.924 1.441 2.884-.96 1.442-2.401 1.924-2.884 0-.96-1.925-2.401-1.441-3.361-.96" transform="matrix(1.3333333 0 0 -1.3333333 871.17973 371.36893)"/><path clip-path="url(#aF)" d="m0 0c-.966 1.925-3.85 1.925-6.251 0 .96.483 2.884 0 3.367-.959.477-.959 1.442-.959 1.918-.959.483.478 1.442.959.966 1.918" transform="matrix(1.3333333 0 0 -1.3333333 880.79427 410.4692)"/><path clip-path="url(#aG)" d="m0 0c0 2.407-3.366 2.884-5.284 1.925.959 0 2.4-.958 2.4-1.925.484-.959 1.444-1.44 1.925-1.44.959.481 1.442.963.959 1.44" transform="matrix(1.3333333 0 0 -1.3333333 885.91667 406.62413)"/><path clip-path="url(#aH)" d="m0 0c-2.884.483-4.325-2.884-4.325-5.284.481 1.442 1.924 2.4 3.365 1.919 1.442 0 1.926.481 1.926 1.447.475.96 0 1.441-.966 1.918" transform="matrix(1.3333333 0 0 -1.3333333 879.50653 418.15933)"/><path clip-path="url(#aI)" d="m0 0c.959-.481 1.925.477 2.401 1.919 0 .965 1.924.965 2.408.483.958-.483.958-2.402-.484-3.367-.959-.476-3.366-.96-4.325.965" transform="matrix(1.3333333 0 0 -1.3333333 880.14973 429.05)"/><path clip-path="url(#aJ)" d="m0 0c-.96.483-3.36 1.441-5.285 0 1.441.483 2.401-.483 2.883-1.442 0-.959 1.442-1.442 1.925-.482.477.482.958 1.441.477 1.924" transform="matrix(1.3333333 0 0 -1.3333333 969.23573 409.82467)"/><path clip-path="url(#aK)" d="m0 0c-1.924.966-4.325-1.441-4.808-3.36.483.476 2.408 1.442 3.368 1.442.958-.482 1.923 0 1.923.96.484.481.484.958-.483.958" transform="matrix(1.3333333 0 0 -1.3333333 963.46613 414.31427)"/><path clip-path="url(#aL)" d="m0 0c-1.44 0-3.365-1.926-3.365-3.85.475.966 1.441 1.443 2.401.966.964 0 2.407.477 2.407 1.442 0 .959-.483 1.442-1.443 1.442" transform="matrix(1.3333333 0 0 -1.3333333 966.67573 419.43667)"/><path clip-path="url(#aM)" d="m0 0c-.967.482-2.407 0-2.407-1.441 0-1.443 0-2.884-.477-3.361.958.96 1.917 1.442 2.884 1.918.475.483.958 1.926 0 2.884" transform="matrix(1.3333333 0 0 -1.3333333 972.44533 424.56947)"/><path clip-path="url(#aN)" d="m0 0c-.958.96-2.4.477-2.884-.481-.481-.96-.958-3.368 0-5.291 0 .964.966 2.407 1.926 2.407 1.441.476 1.925 2.4.958 3.365" transform="matrix(1.3333333 0 0 -1.3333333 1044.8607 418.79467)"/><path clip-path="url(#aO)" d="m0 0c-1.917-.965-1.917-4.325-.477-6.249 0 .958.477 2.4 1.444 2.884 1.44 0 1.917 1.924 1.44 2.882-.964.965-1.924.483-2.407.483" transform="matrix(1.3333333 0 0 -1.3333333 1048.7057 421.35987)"/><path clip-path="url(#aP)" d="m0 0c-.96.483-1.918-.482-1.918-1.44-.483-1.444.475-3.368 1.918-4.328 0 .96.482 1.925.964 2.402 1.443.966.96 2.884-.964 3.366" transform="matrix(1.3333333 0 0 -1.3333333 1056.3972 423.92627)"/><path clip-path="url(#aQ)" d="m0 0c-.965 0-1.924-1.442-.965-2.884.482-.966 1.442-1.442 3.365-.966-.482 0-1.44 1.443-.958 1.926.476.958 0 1.924-1.442 1.924" transform="matrix(1.3333333 0 0 -1.3333333 1062.1719 423.28173)"/></g><path clip-path="url(#aR)" d="m0 0-9.133-28.36h-29.804l24.037-17.302-9.133-28.36 24.033 17.301 24.036-17.301-9.135 28.36 24.036 17.302h-29.802z" fill="#f9d050" transform="matrix(1.3333333 0 0 -1.3333333 916.0404 444.438)"/><path clip-path="url(#aS)" d="m0 0 8.649-28.36h30.286l-24.517-17.302 9.133-28.36-23.551 17.301-24.036-17.301 9.134 28.36-24.511 17.302h29.802z" fill="#f9d050" transform="matrix(1.3333333 0 0 -1.3333333 1037.1732 444.438)"/><path clip-path="url(#aT)" d="m0 0-9.133-28.36h-29.802l24.035-17.31-9.134-28.359 24.034 17.308 24.035-17.308-9.133 28.359 24.035 17.31h-29.802z" fill="#f9d050" transform="matrix(1.3333333 0 0 -1.3333333 976.28773 514.28827)"/><path clip-path="url(#aU)" d="m0 0-7.209-22.109h-23.552l19.228-13.942-7.693-22.588 19.226 13.937 18.744-13.937-7.208 22.588 19.226 13.942h-23.553z" fill="#024919" transform="matrix(1.3333333 0 0 -1.3333333 916.0404 455.97307)"/><path clip-path="url(#aV)" d="m0 0 6.732-22.109h24.029l-19.228-13.942 7.216-22.588-18.749 13.937-19.228-13.937 7.209 22.588-19.226 13.942h23.553z" fill="#024919" transform="matrix(1.3333333 0 0 -1.3333333 1037.1732 455.97307)"/><path clip-path="url(#aW)" d="m0 0-7.209-22.109h-23.557l19.226-13.937-7.686-22.593 19.226 13.937 18.744-13.937-7.209 22.593 19.227 13.46h-23.551z" fill="#024919" transform="matrix(1.3333333 0 0 -1.3333333 976.28773 525.83253)"/><g fill="#00493d"><path clip-path="url(#aX)" d="m0 0-3.844-1.924c-.965-.483-.965-1.443-.965-1.925h-.476l-1.924 4.326h.481c0-.477.477-.96 1.443-.477l8.169 4.325c.958.477.958.96.481 1.443l.477.476 2.407-4.803h-.481c-.484.477-.96.96-1.926.477l-3.36-1.918 1.442-2.891 3.844 1.45c.958.475.481 1.441.481 1.918h.477l1.923-4.326c-.474.482-.958.958-1.923.482l-8.169-4.324c-.958-.484-.958-.965-.482-1.442l-.476-.483-2.408 4.325.484.483c.481-.483.958-.966 1.924-.483l3.842 1.924z" transform="matrix(1.3333333 0 0 -1.3333333 818.62373 573.89373)"/><path clip-path="url(#aY)" d="m0 0c.958.475.958.958.475 1.918h.483l4.808-7.209-3.366-2.401v.481c1.925 1.443 1.925 3.361 1.442 3.844-.484.483-.96.96-.96 1.441-.482 0-.482.484-1.441-.481-.483-.477-3.367-2.403-3.367-2.403.477-.481.96-1.923 3.367-.481h.477l-5.285-3.844v.484c2.401 1.918 1.441 3.36.96 3.841l-3.367-2.401c-.959-.481-.959-.964-.959-1.44.482 0 .482-.484.959-.967.483-.958 1.924-1.924 4.325-.958l.483-.483-3.844-1.443-4.808 7.692h.483c.477-.481.96-.958 1.918-.481z" transform="matrix(1.3333333 0 0 -1.3333333 829.52347 582.22573)"/><path clip-path="url(#aZ)" d="m0 0-3.36-2.884c-.484-.483-.484-1.443 0-1.925h-.484l-3.367 3.366.483.483c.484-.483.96-.965 1.924 0l6.245 6.244c.966.482.966.965.483 1.925l3.365-3.844c-.481.477-1.44.477-1.924 0l-2.884-2.883 2.401-2.407 2.89 2.407c.96.959.477 1.442 0 1.918l.477.484 3.367-3.844h-.483c-.477 0-.96.477-1.918-.483l-6.25-5.766c-.965-.966-.965-1.442-.484-1.926v-.481l-3.365 3.848c.484 0 1.442-.483 1.924 0l3.367 3.367z" transform="matrix(1.3333333 0 0 -1.3333333 839.7708 606.58253)"/><path clip-path="url(#a0)" d="m0 0 1.441-1.443 1.918 4.327s-1.441-.484-3.841-1.926l.482-.958-.482-.483-.96.96c-.484-.477-.965-.477-1.448-.96-1.443-.96-.96-1.443-.476-1.924v-.477l-2.407 2.401h.482s.958 0 1.925.483l9.609 5.284.484-.476s-.484-.483-4.809-10.099c0-.96-.477-1.443 0-2.401l-3.844 3.365.484.476c.476-.958 1.442-.958 1.919 0 0 .484.481 1.444.481 1.925l-1.44 1.443z" transform="matrix(1.3333333 0 0 -1.3333333 849.39067 620.03947)"/><path clip-path="url(#a1)" d="m0 0 .482.483c.477-.483.96-.483 1.918 0l6.251 8.169-.483.483c-.96.483-2.4.483-3.842-.96v.477l1.924 2.408 7.209-5.292-2.4-2.884h-.484c1.444 1.443.96 3.367 0 3.85v.477l-6.249-8.169c-.96-.482-.483-1.442 0-1.924h-.483z" transform="matrix(1.3333333 0 0 -1.3333333 854.51427 632.86373)"/><path clip-path="url(#a2)" d="m0 0-2.407-3.367c-.476-.965 0-1.442.483-1.925l-.483-.482-3.842 2.883v.484c.958-.484 1.441-.484 1.918.482l5.291 7.209c.483.96 0 1.443-.482 1.924l.482.477 3.844-2.884v-.477c-.96.477-1.443.477-1.919-.481l-2.407-3.366 2.883-1.925 2.408 3.365c.476.967 0 1.443-.484 1.926l.484.481 3.843-2.882v-.483c-.483.483-1.443.483-1.925-.482l-4.802-7.693c-.965-.476-.484-.96 0-1.441v-.477l-4.325 2.884h.476c.484 0 .964 0 1.442.476l2.407 3.849z" transform="matrix(1.3333333 0 0 -1.3333333 871.17973 635.41973)"/><path clip-path="url(#a3)" d="m0 0 .481.477c.477-.477 1.443-.477 1.926.482l3.842 8.169c.482.965 0 1.441-.483 1.925l8.174-3.843-1.923-3.85-.484.484c1.444 1.924 0 3.842-.476 4.324-.483 0-.964.483-1.442.483-.482 0-.482 0-.966-.965-.476-.476-1.918-3.36-1.918-3.36.477-.482 1.442-1.442 3.362.958h.481l-2.883-5.765-.483.481c1.441 2.884-.477 3.36-.959 3.36l-1.925-3.841c-.476-.967 0-1.444.484-1.444v-.482z" transform="matrix(1.3333333 0 0 -1.3333333 883.99613 653.36627)"/><path clip-path="url(#a4)" d="m0 0c-1.44.96-1.44 3.844 0 6.732.96 2.884 2.884 5.285 4.809 4.327 1.442-.483.959-3.368 0-6.251-1.442-3.366-3.366-5.291-4.809-4.808h-.482c3.366-1.441 5.767.483 7.208 3.844 1.443 2.888.966 6.249-1.917 7.691-2.891 1.442-5.773-.476-7.216-3.844-1.441-3.366-.959-6.731 1.925-7.691z" transform="matrix(1.3333333 0 0 -1.3333333 902.58333 662.34293)"/><path clip-path="url(#a5)" d="m0 0 1.919 5.768c.481.96 0 1.443-.477 1.924l2.402-.481v-.483c-.478 0-.96 0-1.444-.96l-1.923-5.768c-.96-2.407-2.402-4.325-5.286-3.365-1.923.483-3.367 2.884-2.4 5.285l2.4 6.249c.484.966 0 1.442-.482 1.926v.481l4.326-1.925v-.482c-.476.482-1.442.482-1.442-.477l-2.402-6.249c-.482-1.924-.482-3.85.96-4.325 1.442-.483 2.884.475 3.849 2.882" transform="matrix(1.3333333 0 0 -1.3333333 922.45187 663.6228)"/><path clip-path="url(#a6)" d="m0 0c0 .483 0 .483-.482.483l3.364-.483 2.885-9.126 1.442 5.766c.483.96 0 1.443-.483 1.92l2.883-.477-.476-.483c-.483 0-.966 0-1.441-.96l-2.407-10.575h-.476l-3.851 11.535-2.4-7.692c0-1.441.482-1.441.96-1.918v-.483l-2.885.96v.481c.483-.481 1.441 0 1.441.96l2.407 8.652z" transform="matrix(1.3333333 0 0 -1.3333333 928.22 655.29733)"/><path clip-path="url(#a7)" d="m0 0c-.958-4.325-2.884-5.291-3.842-5.291h-.966s-.483.483 0 .966l1.443 9.61c.481.483.481.964.965.483h.96c.958 0 1.923-1.926 1.44-5.768l1.443-.482c.958 4.807-.96 6.731-3.367 7.208-1.918.483-4.808.966-4.808.966v-.483c.483-.483 1.441-.483.964-1.924l-1.441-8.652c-.482-.958-.966-1.441-1.44-1.441h-.484l4.808-.96c2.401-.483 4.808 0 5.768 5.286z" transform="matrix(1.3333333 0 0 -1.3333333 950.00907 668.10987)"/><path clip-path="url(#a8)" d="m0 0c0 .967-.958 1.443-1.441 1.443v.483l8.652-.959-.477-3.851c0 2.407-1.449 3.367-2.407 3.367-.483.484-.96.484-1.443.484-.482 0-.482 0-.482-1.444 0-.481-.476-3.847-.476-3.847.476 0 1.918-.478 2.884 2.407l-.483-6.25h-.483c0 2.883-1.442 2.883-1.918 2.883l-.484-4.325c0-.965 0-.965.484-.965 0 0 .958 0 .958-.477 1.443 0 2.884.477 3.85 3.365h.477l-.96-3.847-9.133.959c.958 0 1.441.481 1.924 1.441z" transform="matrix(1.3333333 0 0 -1.3333333 955.776 662.98747)"/><path clip-path="url(#a9)" d="m0 0c0-.965.483-.965 1.441-.965v-.476l-5.284-.483c.477.483 1.443.959 1.443 1.924l-.966 9.133c-.477.96-.96.96-1.918.96v.483l5.284.477c-.482-.477-1.442-.96-.959-1.92z" transform="matrix(1.3333333 0 0 -1.3333333 995.51307 675.79987)"/><path clip-path="url(#ba)" d="m0 0v.481c.477 0 .96.484.96 1.444l-1.926 10.093h-.476c-.965-.477-1.925-1.444-1.442-3.361h-.483l-.483 3.361 8.658 1.44.477-3.36h-.477c0 1.92-1.441 2.402-2.884 2.402h-.483l1.926-10.093c0-.966.475-1.442 1.441-1.442v-.484z" transform="matrix(1.3333333 0 0 -1.3333333 1001.9245 677.0864)"/><path clip-path="url(#bb)" d="m0 0-1.925 5.767c0 .959-.959.959-1.442.959v.483l2.407.965v-.482c-.483-.483-.483-.483-.483-1.443l1.925-6.249c.476-1.926.476-4.808-2.407-5.768-1.919-.483-4.326.484-4.809 3.368l-1.918 6.242c-.483.967-.964.967-1.441.967l-.483.476 4.807 1.441v-.477c-.482-.482-.965-.964-.482-1.924l1.442-6.251c.482-1.918 1.925-2.882 3.366-2.882 1.443.482 1.925 2.408 1.443 4.808" transform="matrix(1.3333333 0 0 -1.3333333 1029.4831 664.2648)"/><path clip-path="url(#bc)" d="m0 0c2.407.96 1.924 2.401 1.441 3.844-.476 1.441-1.441 2.407-2.401 1.924-.482 0-.959-.483-.482-.959l1.442-4.809.483-.481.958-3.843c.483-.967 1.443-.967 1.924-.484v-.483l-4.325-1.918-.482.478c.965.482.965.965.965 1.923l-3.367 8.168c-.482 1.449-.958.967-1.924.967v.482l4.808 1.919c1.925.483 3.844 0 4.809-1.919.482-2.408-.484-3.849-2.408-4.809-.476 0-.958-.481-.958-.481z" transform="matrix(1.3333333 0 0 -1.3333333 1036.5287 659.77773)"/><path clip-path="url(#bd)" d="m0 0h-.483-.477l2.884 1.918 8.652-4.802-2.884 5.285c-.483.958-1.443.958-1.924.958v.484l2.407.959c-.483-.477-.966-.959 0-1.919l4.802-9.616-.477-.477-10.576 5.768 3.844-7.216c.481-.959 1.441-.959 1.924-.477v-.482l-2.407-1.442v.484c.483.476.483.958 0 1.917l-3.844 7.692z" transform="matrix(1.3333333 0 0 -1.3333333 1053.1953 643.75307)"/><path clip-path="url(#be)" d="m0 0v.477c0 .483.477.965 0 1.923l-5.772 8.176h-.477c-.966-.483-1.442-2.407 0-3.848l-.482-.484-1.925 3.365 7.209 4.81 1.924-2.884c-1.441 1.442-2.884 1.442-3.842.958l-.483-.476 5.768-8.173c.481-.96 1.44-.96 1.924-.484v-.476z" transform="matrix(1.3333333 0 0 -1.3333333 1082.0391 645.67627)"/><path clip-path="url(#bf)" d="m0 0 2.884-3.366c.483-.477 1.442-.477 1.924 0v-.477l-3.848-3.367v.477c.482.483.482.965 0 1.925l-5.769 7.209c-.476.964-.958.483-1.923.483l3.848 3.365v-.482c0-.482-.481-.958 0-1.925l2.401-2.884 2.883 1.926-2.4 3.365c-.483.96-1.441.478-1.925.478l3.849 3.366v-.483c-.482-.476-.482-.96 0-1.918l5.767-7.211c.477-.481.96-.481 1.444 0l.481-.481-3.848-3.366-.484.482c.484.484.967.958.484 1.925l-2.884 3.36z" transform="matrix(1.3333333 0 0 -1.3333333 1089.086 630.296)"/><path clip-path="url(#bg)" d="m0 0c-.482.483-1.442.483-1.926 0v.483l6.251 5.766 2.884-2.884h-.477c-1.442 1.926-3.367.96-4.331.484 0-.484-.476-.484-.96-.965 0 0 0-.477.484-1.443l2.884-2.883c.481.483 1.923 1.442 0 3.849h.481l3.844-4.331v-.476c-2.402 2.4-3.367.958-3.844.476l2.884-2.884c.476-.96.96-.96.96-.96.482.484.959.96 1.44 1.442.484.482.96 1.926 0 4.809h.484l1.918-3.367-6.244-6.251-.483.484c.483.483.96.96 0 1.923z" transform="matrix(1.3333333 0 0 -1.3333333 1094.8541 616.83893)"/><path clip-path="url(#bh)" d="m0 0c-.477-.481-.477-1.44.483-1.924.958-.958 1.924-.958 3.842 0 .966.484 2.89.966 4.333-.476 2.401-2.408 1.441-4.326.958-5.29-.483-.477-1.441-.959-1.925-1.443-.476 0-.476 0-.476-.476v-.484l-3.366 2.884h.476c1.926-.958 3.85-1.44 4.808 0 .966.96 0 1.926-.475 2.401-.967.966-1.926.966-3.367 0-1.442-.475-3.367-.475-4.808.484-1.924 1.924-1.924 3.366-.96 4.807.477.477 1.443.96 1.918 1.443.483 0 .483 0 0 .958l3.367-2.401h-.483c-2.401.96-3.842.477-4.325-.483" transform="matrix(1.3333333 0 0 -1.3333333 1110.2331 598.89493)"/><path clip-path="url(#bi)" d="m0 0c-.958.477-1.441 0-1.918-.483h-.483l5.291 7.692 3.361-2.407-.478-.477c-1.923 1.443-3.847.477-4.331 0 0-.483-.476-.965-.476-1.441-.484 0-.484-.484.476-.966.484-.478 3.366-2.401 3.366-2.401.483.483 1.443 1.442-.475 3.367v.476l4.802-3.843c-2.884 1.442-3.362 0-3.844-.484l3.367-2.4c.959-.484 1.441-.484 1.441-.484 0 .484.476.96.96 1.444.483.964.96 2.407-.96 4.325l.476.482 2.407-2.883-4.807-7.209h-.484c.484.96.484 1.441-.476 2.401z" transform="matrix(1.3333333 0 0 -1.3333333 1116 593.7608)"/><path clip-path="url(#bj)" d="m0 0-1.44-2.407c-1.925 1.924-2.884 3.365-2.884 3.365l4.324-.958h.96c.483 0 1.441-.483 1.924-.483 1.443-.483.96-.959.477-1.924h.483l2.407 4.325c-.966-.96-1.442-.477-2.407-.477-10.093 1.917-11.053 2.401-11.053 2.401v-.484l7.686-8.649c.483-.477.483-1.442.483-1.92h.483l1.441 2.401-.483.484c-.481-.965-.958-1.442-1.924 0l-.959.959 1.442 3.367z" transform="matrix(1.3333333 0 0 -1.3333333 1133.3099 582.22573)"/><path clip-path="url(#bk)" d="m0 0c-.481-.481-.481-1.441.96-1.924s1.924 0 3.367.959c1.441.965 2.884 1.925 4.808.965 2.884-1.441 2.401-3.849 1.918-4.809-.477-.482-.96-1.44-1.442-1.923v-.484-.476l-3.843 1.925c2.401-.482 4.325 0 4.808 1.442.477.96-.483 1.918-.965 2.401-.959.483-1.919 0-3.366-.96-1.441-1.441-2.885-1.925-4.802-.965-1.924.965-2.883 2.408-1.924 3.849 0 .96.958 1.442 1.441 1.919 0 .481 0 .481-.483.965v.476l3.85-1.918h-.483c-2.401.477-3.844-.482-3.844-1.442" transform="matrix(1.3333333 0 0 -1.3333333 1129.4648 568.1268)"/><path clip-path="url(#bl)" d="m0 0c0-4.327-1.441-5.768-2.884-5.768-.474.483-.474.483-.958.483 0 0-.483 0-.483.476l.483 10.098c0 .477 0 .477.484.477h.958c.959 0 2.4-1.441 2.4-5.766h1.925c0 4.808-2.402 6.249-4.809 6.249-1.918.483-4.802.483-4.802.483v-.483c.477 0 1.444-.483 1.444-1.441l-.484-9.135c0-.958-.483-1.441-.96-1.441v-.483h4.328c2.4 0 4.8.966 5.283 6.251z" transform="matrix(1.3333333 0 0 -1.3333333 976.9232 670.67493)"/><path clip-path="url(#bm)" d="m0 0c-1.44-.483-3.36 1.44-4.801 4.801-1.443 2.89-1.443 5.774 0 6.251 1.441.481 3.361-1.443 4.801-4.326 1.441-2.884 1.441-5.767 0-6.726 2.885.959 3.849 4.324 2.407 7.691-1.44 2.884-4.324 4.802-7.208 3.842-2.885-1.44-3.85-4.807-2.407-7.691 1.44-3.365 4.324-5.285 7.208-3.842" transform="matrix(1.3333333 0 0 -1.3333333 1052.5508 661.6984)"/></g><path clip-path="url(#bn)" d="m0 0v-93.731c0-81.24-38.453-109.118-89.883-131.227-51.434 22.109-90.371 49.987-90.371 131.227v93.731z" fill="none" stroke="#000" stroke-width=".899" transform="matrix(1.3333333 0 0 -1.3333333 1096.1315 341.8872)"/></svg>