<svg height="800" viewBox="0 0 1200 800" width="1200" xmlns="http://www.w3.org/2000/svg" xmlns:xlink="http://www.w3.org/1999/xlink"><clipPath id="a"><path d="m0 0h900v600h-900zm366.229 300c0 66.274 53.725 120 120 120 66.274 0 119.999-53.726 119.999-120 0-66.275-53.725-120-119.999-120-66.275 0-120 53.725-120 120" transform="translate(-450.00001 -450.00001)"/></clipPath><path d="m0 0h900v600h-900z" fill="#fff" transform="matrix(1.3333333 0 0 -1.3333333 0 800)"/><path d="m0 0h450v600h-450z" fill="#006233" transform="matrix(1.3333333 0 0 -1.3333333 0 800)"/><g fill="#d21034"><path clip-path="url(#a)" d="m0 0c82.843 0 150-67.157 150-150s-67.157-150-150-150-150 67.157-150 150 67.157 150 150 150" transform="matrix(1.3333333 0 0 -1.3333333 600 200)"/><path d="m0 0-71.33 23.176-13.905-42.797z" transform="matrix(1.3333333 0 0 -1.3333333 780.9024 400)"/><path d="m0 0-71.33-23.177-13.905 42.798z" transform="matrix(1.3333333 0 0 -1.3333333 780.9024 400)"/><path d="m0 0v75h-45z" transform="matrix(1.3333333 0 0 -1.3333333 711.80333 495.10547)"/><path d="m0 0-44.084 60.676 36.406 26.45z" transform="matrix(1.3333333 0 0 -1.3333333 711.80333 495.10547)"/><path d="m0 0-44.084-60.676 36.406-26.451z" transform="matrix(1.3333333 0 0 -1.3333333 711.80333 304.89453)"/><path d="m0 0v-75h-45z" transform="matrix(1.3333333 0 0 -1.3333333 711.80333 304.89453)"/><path d="m0 0 71.329 23.177-13.905 42.797z" transform="matrix(1.3333333 0 0 -1.3333333 600 458.77867)"/><path d="m0 0 44.084 60.676 36.405-26.45z" transform="matrix(1.3333333 0 0 -1.3333333 600 458.77867)"/><g transform="matrix(1.3333333 0 0 -1.3333333 600 341.22133)"><path d="m0 0 44.084-60.677 36.405 26.451z"/><path d="m0 0 71.329-23.176-13.905-42.798z"/></g></g></svg>