<?xml version="1.0" encoding="UTF-8" standalone="no"?>
<!-- Created with Inkscape (http://www.inkscape.org/) -->

<svg
   version="1.1"
   id="svg1"
   width="600"
   height="400"
   viewBox="0 0 600 400"
   sodipodi:docname="eg.ai"
   xmlns:inkscape="http://www.inkscape.org/namespaces/inkscape"
   xmlns:sodipodi="http://sodipodi.sourceforge.net/DTD/sodipodi-0.dtd"
   xmlns="http://www.w3.org/2000/svg"
   xmlns:svg="http://www.w3.org/2000/svg">
  <defs
     id="defs1">
    <clipPath
       clipPathUnits="userSpaceOnUse"
       id="clipPath5">
      <path
         d="M 0,300 H 450 V 0 H 0 Z"
         transform="translate(-225.00001,-103.0947)"
         id="path5" />
    </clipPath>
    <clipPath
       clipPathUnits="userSpaceOnUse"
       id="clipPath7">
      <path
         d="M 0,300 H 450 V 0 H 0 Z"
         transform="translate(-225.40531,-148.7998)"
         id="path7" />
    </clipPath>
    <clipPath
       clipPathUnits="userSpaceOnUse"
       id="clipPath9">
      <path
         d="M 0,300 H 450 V 0 H 0 Z"
         transform="translate(-234.9697,-167.1396)"
         id="path9" />
    </clipPath>
    <clipPath
       clipPathUnits="userSpaceOnUse"
       id="clipPath11">
      <path
         d="M 0,300 H 450 V 0 H 0 Z"
         transform="translate(-226.58011,-142.4697)"
         id="path11" />
    </clipPath>
    <clipPath
       clipPathUnits="userSpaceOnUse"
       id="clipPath13">
      <path
         d="M 0,300 H 450 V 0 H 0 Z"
         transform="translate(-196.7344,-176.7549)"
         id="path13" />
    </clipPath>
    <clipPath
       clipPathUnits="userSpaceOnUse"
       id="clipPath15">
      <path
         d="M 0,300 H 450 V 0 H 0 Z"
         transform="translate(-201.5449,-172.7349)"
         id="path15" />
    </clipPath>
    <clipPath
       clipPathUnits="userSpaceOnUse"
       id="clipPath17">
      <path
         d="M 0,300 H 450 V 0 H 0 Z"
         transform="translate(-205.91991,-169.1499)"
         id="path17" />
    </clipPath>
    <clipPath
       clipPathUnits="userSpaceOnUse"
       id="clipPath19">
      <path
         d="M 0,300 H 450 V 0 H 0 Z"
         transform="translate(-210.6553,-167.1396)"
         id="path19" />
    </clipPath>
    <clipPath
       clipPathUnits="userSpaceOnUse"
       id="clipPath21">
      <path
         d="M 0,300 H 450 V 0 H 0 Z"
         transform="translate(-215.03031,-167.1396)"
         id="path21" />
    </clipPath>
    <clipPath
       clipPathUnits="userSpaceOnUse"
       id="clipPath23">
      <path
         d="M 0,300 H 450 V 0 H 0 Z"
         transform="translate(-253.2646,-176.7549)"
         id="path23" />
    </clipPath>
    <clipPath
       clipPathUnits="userSpaceOnUse"
       id="clipPath25">
      <path
         d="M 0,300 H 450 V 0 H 0 Z"
         transform="translate(-248.45511,-172.7349)"
         id="path25" />
    </clipPath>
    <clipPath
       clipPathUnits="userSpaceOnUse"
       id="clipPath27">
      <path
         d="M 0,300 H 450 V 0 H 0 Z"
         transform="translate(-244.0801,-169.1499)"
         id="path27" />
    </clipPath>
    <clipPath
       clipPathUnits="userSpaceOnUse"
       id="clipPath29">
      <path
         d="M 0,300 H 450 V 0 H 0 Z"
         transform="translate(-239.34471,-167.1396)"
         id="path29" />
    </clipPath>
    <clipPath
       clipPathUnits="userSpaceOnUse"
       id="clipPath31">
      <path
         d="M 0,300 H 450 V 0 H 0 Z"
         transform="translate(-214.24021,-152.08011)"
         id="path31" />
    </clipPath>
    <clipPath
       clipPathUnits="userSpaceOnUse"
       id="clipPath33">
      <path
         d="M 0,300 H 450 V 0 H 0 Z"
         transform="translate(-235.75981,-152.08011)"
         id="path33" />
    </clipPath>
    <clipPath
       clipPathUnits="userSpaceOnUse"
       id="clipPath35">
      <path
         d="M 0,300 H 450 V 0 H 0 Z"
         transform="translate(-238.9141,-140.52981)"
         id="path35" />
    </clipPath>
    <clipPath
       clipPathUnits="userSpaceOnUse"
       id="clipPath37">
      <path
         d="M 0,300 H 450 V 0 H 0 Z"
         transform="translate(-230.8486,-120.5908)"
         id="path37" />
    </clipPath>
    <clipPath
       clipPathUnits="userSpaceOnUse"
       id="clipPath39">
      <path
         d="M 0,300 H 450 V 0 H 0 Z"
         transform="translate(-211.08501,-140.52981)"
         id="path39" />
    </clipPath>
    <clipPath
       clipPathUnits="userSpaceOnUse"
       id="clipPath41">
      <path
         d="M 0,300 H 450 V 0 H 0 Z"
         transform="translate(-215.37991,-147.54)"
         id="path41" />
    </clipPath>
    <clipPath
       clipPathUnits="userSpaceOnUse"
       id="clipPath43">
      <path
         d="M 0,300 H 450 V 0 H 0 Z"
         transform="translate(-219.04491,-138.5244)"
         id="path43" />
    </clipPath>
    <clipPath
       clipPathUnits="userSpaceOnUse"
       id="clipPath45">
      <path
         d="M 0,300 H 450 V 0 H 0 Z"
         transform="translate(-219.04491,-120.5908)"
         id="path45" />
    </clipPath>
    <clipPath
       clipPathUnits="userSpaceOnUse"
       id="clipPath47">
      <path
         d="M 0,300 H 450 V 0 H 0 Z"
         transform="translate(-207.4951,-119.0146)"
         id="path47" />
    </clipPath>
    <clipPath
       clipPathUnits="userSpaceOnUse"
       id="clipPath49">
      <path
         d="M 0,300 H 450 V 0 H 0 Z"
         transform="translate(-242.60941,-119.0146)"
         id="path49" />
    </clipPath>
    <clipPath
       clipPathUnits="userSpaceOnUse"
       id="clipPath51">
      <path
         d="M 0,300 H 450 V 0 H 0 Z"
         transform="translate(-211.4443,-118.23051)"
         id="path51" />
    </clipPath>
    <clipPath
       clipPathUnits="userSpaceOnUse"
       id="clipPath53">
      <path
         d="M 0,300 H 450 V 0 H 0 Z"
         transform="translate(-238.55961,-118.23051)"
         id="path53" />
    </clipPath>
    <clipPath
       clipPathUnits="userSpaceOnUse"
       id="clipPath55">
      <path
         d="M 0,300 H 450 V 0 H 0 Z"
         transform="translate(-201.5449,-119.8047)"
         id="path55" />
    </clipPath>
    <clipPath
       clipPathUnits="userSpaceOnUse"
       id="clipPath57">
      <path
         d="M 0,300 H 450 V 0 H 0 Z"
         transform="translate(-211.08501,-112.4697)"
         id="path57" />
    </clipPath>
    <clipPath
       clipPathUnits="userSpaceOnUse"
       id="clipPath59">
      <path
         d="M 0,300 H 450 V 0 H 0 Z"
         transform="translate(-222.44041,-117.00981)"
         id="path59" />
    </clipPath>
    <clipPath
       clipPathUnits="userSpaceOnUse"
       id="clipPath61">
      <path
         d="M 0,300 H 450 V 0 H 0 Z"
         transform="translate(-222.44041,-117.00981)"
         id="path61" />
    </clipPath>
    <clipPath
       clipPathUnits="userSpaceOnUse"
       id="clipPath63">
      <path
         d="M 0,300 H 450 V 0 H 0 Z"
         transform="translate(-248.45511,-119.8047)"
         id="path63" />
    </clipPath>
    <clipPath
       clipPathUnits="userSpaceOnUse"
       id="clipPath65">
      <path
         d="M 0,300 H 450 V 0 H 0 Z"
         transform="translate(-238.9141,-112.4697)"
         id="path65" />
    </clipPath>
    <clipPath
       clipPathUnits="userSpaceOnUse"
       id="clipPath67">
      <path
         d="M 0,300 H 450 V 0 H 0 Z"
         transform="translate(-227.55961,-117.00981)"
         id="path67" />
    </clipPath>
    <clipPath
       clipPathUnits="userSpaceOnUse"
       id="clipPath69">
      <path
         d="M 0,300 H 450 V 0 H 0 Z"
         transform="translate(-202.33501,-119.0146)"
         id="path69" />
    </clipPath>
    <clipPath
       clipPathUnits="userSpaceOnUse"
       id="clipPath71">
      <path
         d="M 0,300 H 450 V 0 H 0 Z"
         transform="translate(-206.2744,-117.79491)"
         id="path71" />
    </clipPath>
    <clipPath
       clipPathUnits="userSpaceOnUse"
       id="clipPath73">
      <path
         d="M 0,300 H 450 V 0 H 0 Z"
         transform="translate(-220.62501,-116.2197)"
         id="path73" />
    </clipPath>
    <clipPath
       clipPathUnits="userSpaceOnUse"
       id="clipPath75">
      <path
         d="M 0,300 H 450 V 0 H 0 Z"
         transform="translate(-216.25,-116.2197)"
         id="path75" />
    </clipPath>
    <clipPath
       clipPathUnits="userSpaceOnUse"
       id="clipPath77">
      <path
         d="M 0,300 H 450 V 0 H 0 Z"
         transform="translate(-247.6699,-119.0146)"
         id="path77" />
    </clipPath>
    <clipPath
       clipPathUnits="userSpaceOnUse"
       id="clipPath79">
      <path
         d="M 0,300 H 450 V 0 H 0 Z"
         transform="translate(-243.7246,-117.79491)"
         id="path79" />
    </clipPath>
    <clipPath
       clipPathUnits="userSpaceOnUse"
       id="clipPath81">
      <path
         d="M 0,300 H 450 V 0 H 0 Z"
         transform="translate(-229.375,-116.2197)"
         id="path81" />
    </clipPath>
    <clipPath
       clipPathUnits="userSpaceOnUse"
       id="clipPath83">
      <path
         d="M 0,300 H 450 V 0 H 0 Z"
         transform="translate(-233.75001,-116.2197)"
         id="path83" />
    </clipPath>
    <clipPath
       clipPathUnits="userSpaceOnUse"
       id="clipPath85">
      <path
         d="M 0,300 H 450 V 0 H 0 Z"
         transform="translate(-234.6943,-147.54)"
         id="path85" />
    </clipPath>
    <clipPath
       clipPathUnits="userSpaceOnUse"
       id="clipPath87">
      <path
         d="M 0,300 H 450 V 0 H 0 Z"
         transform="translate(-224.9902,-136.3848)"
         id="path87" />
    </clipPath>
    <clipPath
       clipPathUnits="userSpaceOnUse"
       id="clipPath89">
      <path
         d="M 0,300 H 450 V 0 H 0 Z"
         transform="translate(-238.60941,-165.98001)"
         id="path89" />
    </clipPath>
    <clipPath
       clipPathUnits="userSpaceOnUse"
       id="clipPath91">
      <path
         d="m 211.813,165.971 c -0.143,0 -0.285,0.017 -0.425,0.043 v 0 c -0.006,-0.696 0.03,-1.417 0.073,-2.072 v 0 c 0.161,-2.45 0.592,-4.909 1.244,-7.275 v 0 c 2.054,-7.447 6.258,-13.776 12.285,-18.576 v 0 c 6.033,4.804 10.241,11.139 12.3,18.592 v 0 c 0.654,2.365 1.085,4.825 1.248,7.274 v 0 c 0.042,0.642 0.078,1.346 0.074,2.027 v 0 c -0.142,-0.009 -0.282,-0.013 -0.424,-0.013 v 0 c -3.103,0 -10.31,1.592 -13.087,3.978 v 0 c -2.91,-2.204 -10.236,-3.978 -13.288,-3.978"
         id="path91" />
    </clipPath>
    <clipPath
       clipPathUnits="userSpaceOnUse"
       id="clipPath93">
      <path
         d="m 211.813,165.971 c -0.143,0 -0.285,0.017 -0.425,0.043 v 0 c -0.006,-0.696 0.03,-1.417 0.073,-2.072 v 0 c 0.161,-2.45 0.592,-4.909 1.244,-7.275 v 0 c 2.054,-7.447 6.258,-13.776 12.285,-18.576 v 0 c 6.033,4.804 10.241,11.139 12.3,18.592 v 0 c 0.654,2.365 1.085,4.825 1.248,7.274 v 0 c 0.042,0.642 0.078,1.346 0.074,2.027 v 0 c -0.142,-0.009 -0.282,-0.013 -0.424,-0.013 v 0 c -3.103,0 -10.31,1.592 -13.087,3.978 v 0 c -2.91,-2.204 -10.236,-3.978 -13.288,-3.978"
         id="path93" />
    </clipPath>
    <clipPath
       clipPathUnits="userSpaceOnUse"
       id="clipPath95">
      <path
         d="M 0,300 H 450 V 0 H 0 Z"
         transform="translate(-230.79981,-138.5244)"
         id="path95" />
    </clipPath>
    <clipPath
       clipPathUnits="userSpaceOnUse"
       id="clipPath97">
      <path
         d="M 0,300 H 450 V 0 H 0 Z"
         transform="translate(-224.1367,-105.3369)"
         id="path97" />
    </clipPath>
    <clipPath
       clipPathUnits="userSpaceOnUse"
       id="clipPath99">
      <path
         d="M 0,300 H 450 V 0 H 0 Z"
         transform="translate(-231.15531,-173.4526)"
         id="path99" />
    </clipPath>
    <clipPath
       clipPathUnits="userSpaceOnUse"
       id="clipPath101">
      <path
         d="M 0,300 H 450 V 0 H 0 Z"
         transform="translate(-231.15531,-173.4526)"
         id="path101" />
    </clipPath>
    <clipPath
       clipPathUnits="userSpaceOnUse"
       id="clipPath103">
      <path
         d="M 0,300 H 450 V 0 H 0 Z"
         transform="translate(-223.05961,-186.2148)"
         id="path103" />
    </clipPath>
    <clipPath
       clipPathUnits="userSpaceOnUse"
       id="clipPath105">
      <path
         d="M 0,300 H 450 V 0 H 0 Z"
         transform="translate(-224.82421,-186.43071)"
         id="path105" />
    </clipPath>
    <clipPath
       clipPathUnits="userSpaceOnUse"
       id="clipPath107">
      <path
         d="M 0,300 H 450 V 0 H 0 Z"
         transform="translate(-226.39161,-186.0972)"
         id="path107" />
    </clipPath>
    <clipPath
       clipPathUnits="userSpaceOnUse"
       id="clipPath109">
      <path
         d="M 0,300 H 450 V 0 H 0 Z"
         transform="translate(-228.3721,-185.646)"
         id="path109" />
    </clipPath>
    <clipPath
       clipPathUnits="userSpaceOnUse"
       id="clipPath111">
      <path
         d="M 0,300 H 450 V 0 H 0 Z"
         transform="translate(-221.04001,-190.1938)"
         id="path111" />
    </clipPath>
    <clipPath
       clipPathUnits="userSpaceOnUse"
       id="clipPath113">
      <path
         d="M 0,300 H 450 V 0 H 0 Z"
         transform="translate(-216.21781,-195.3696)"
         id="path113" />
    </clipPath>
    <clipPath
       clipPathUnits="userSpaceOnUse"
       id="clipPath115">
      <path
         d="M 0,300 H 450 V 0 H 0 Z"
         transform="translate(-224.41111,-194.0757)"
         id="path115" />
    </clipPath>
    <clipPath
       clipPathUnits="userSpaceOnUse"
       id="clipPath117">
      <path
         d="M 0,300 H 450 V 0 H 0 Z"
         transform="translate(-238.60941,-165.98001)"
         id="path117" />
    </clipPath>
  </defs>
  <sodipodi:namedview
     id="namedview1"
     pagecolor="#ffffff"
     bordercolor="#000000"
     borderopacity="0.25"
     inkscape:showpageshadow="2"
     inkscape:pageopacity="0.0"
     inkscape:pagecheckerboard="0"
     inkscape:deskcolor="#d1d1d1">
    <inkscape:page
       x="0"
       y="0"
       inkscape:label="1"
       id="page1"
       width="600"
       height="400"
       margin="0"
       bleed="0" />
  </sodipodi:namedview>
  <g
     id="layer-MC0"
     inkscape:groupmode="layer"
     inkscape:label="svg2">
    <path
       id="path1"
       d="M 0,0 H 450 V 150 H 0 Z"
       style="fill:#000000;fill-opacity:1;fill-rule:nonzero;stroke:none"
       transform="matrix(1.3333333,0,0,-1.3333333,0,400)" />
    <path
       id="path2"
       d="M 0,150 H 450 V 299.999 H 0 Z"
       style="fill:#ce1126;fill-opacity:1;fill-rule:nonzero;stroke:none"
       transform="matrix(1.3333333,0,0,-1.3333333,0,400)" />
    <path
       id="path3"
       d="M 0,100 H 450 V 200 H 0 Z"
       style="fill:#ffffff;fill-opacity:1;fill-rule:nonzero;stroke:none"
       transform="matrix(1.3333333,0,0,-1.3333333,0,400)" />
    <path
       id="path4"
       d="m 0,0 c 9.972,0 19.512,0.789 25.106,2.367 2.368,0.429 2.368,1.65 2.368,3.228 2.368,0.789 1.148,3.585 2.797,3.585 -1.649,-0.431 -2.007,2.798 -4.016,2.366 0,2.798 -2.798,3.156 -5.165,2.369 -4.735,-1.579 -13.128,-1.937 -21.091,-1.937 -7.962,0.358 -16.283,0.358 -21.089,1.937 -2.367,0.787 -5.163,0.429 -5.163,-2.369 -2.01,0.432 -2.368,-2.798 -4.018,-2.366 1.65,0 0.43,-2.796 2.797,-3.585 0,-1.578 0,-2.799 2.44,-3.228 C -19.512,0.789 -9.97,0 -0.001,0 Z"
       style="fill:#ffffff;fill-opacity:1;fill-rule:nonzero;stroke:#c09300;stroke-width:1.189;stroke-linecap:round;stroke-linejoin:round;stroke-miterlimit:4;stroke-dasharray:none;stroke-opacity:1"
       transform="matrix(1.3333333,0,0,-1.3333333,300,262.5404)"
       clip-path="url(#clipPath5)" />
    <path
       id="path6"
       d="m 0,0 34.244,-31.79 -2.438,57.735 c -0.359,8.75 -7.962,6.743 -13.487,3.587 -5.594,-3.587 -11.978,-3.587 -18.721,-1.219 -6.744,-2.368 -13.127,-2.368 -18.723,1.219 -5.523,3.156 -13.126,5.164 -13.485,-3.587 l -2.44,-57.735 z"
       style="fill:#ffffff;fill-opacity:1;fill-rule:nonzero;stroke:#c09300;stroke-width:0.635;stroke-linecap:round;stroke-linejoin:round;stroke-miterlimit:4;stroke-dasharray:none;stroke-opacity:1"
       transform="matrix(1.3333333,0,0,-1.3333333,300.5404,201.60027)"
       clip-path="url(#clipPath7)" />
    <path
       id="path8"
       d="m 0,0 1.148,-27.828 3.228,-3.156 -1.22,30.625 C 2.368,-0.358 0.359,-0.358 0,0 Z"
       style="fill:#c09300;fill-opacity:1;fill-rule:nonzero;stroke:none"
       transform="matrix(1.3333333,0,0,-1.3333333,313.29293,177.1472)"
       clip-path="url(#clipPath9)" />
    <path
       id="path10"
       d="m 0,0 4.807,-21.877 -1.579,-1.578 -1.651,1.22 -2.725,19.508 1.148,-19.508 -1.579,-2.009 -1.578,2.009 1.147,19.508 -2.724,-19.508 -1.652,-1.22 -1.577,1.578 L -3.157,0 Z"
       style="fill:#c09300;fill-opacity:1;fill-rule:nonzero;stroke:#c09300;stroke-width:0.537;stroke-linecap:square;stroke-linejoin:miter;stroke-miterlimit:4;stroke-dasharray:none;stroke-opacity:1"
       transform="matrix(1.3333333,0,0,-1.3333333,302.1068,210.0404)"
       clip-path="url(#clipPath11)" />
    <path
       id="path12"
       d="m 0,0 -2.366,-56.16 -4.019,-3.584 2.44,57.735 C -2.798,-1.22 -0.788,0 0,0 Z"
       style="fill:#c09300;fill-opacity:1;fill-rule:nonzero;stroke:none"
       transform="matrix(1.3333333,0,0,-1.3333333,262.31253,164.3268)"
       clip-path="url(#clipPath13)" />
    <path
       id="path14"
       d="m 0,0 -2.009,-46.978 -4.016,-4.11 2.439,54.245 C -2.797,2.369 -0.43,0.433 0,0.002 Z"
       style="fill:#c09300;fill-opacity:1;fill-rule:nonzero;stroke:none"
       transform="matrix(1.3333333,0,0,-1.3333333,268.72653,169.6868)"
       clip-path="url(#clipPath15)" />
    <path
       id="path16"
       d="m 0,0 -1.577,-39.181 -3.228,-3.154 2.009,44.702 C -2.009,1.578 -0.431,0.43 0,0"
       style="fill:#c09300;fill-opacity:1;fill-rule:nonzero;stroke:none"
       transform="matrix(1.3333333,0,0,-1.3333333,274.55987,174.4668)"
       clip-path="url(#clipPath17)" />
    <path
       id="path18"
       d="m 0,0 -1.579,-33.393 -3.156,-2.56 1.578,37.172 C -2.368,0.861 -0.79,0 0,0 Z"
       style="fill:#c09300;fill-opacity:1;fill-rule:nonzero;stroke:none"
       transform="matrix(1.3333333,0,0,-1.3333333,280.87373,177.1472)"
       clip-path="url(#clipPath19)" />
    <path
       id="path20"
       d="m 0,0 -1.149,-27.828 -3.228,-3.156 1.221,30.625 C -2.369,-0.358 -0.36,-0.358 0,0 Z"
       style="fill:#c09300;fill-opacity:1;fill-rule:nonzero;stroke:none"
       transform="matrix(1.3333333,0,0,-1.3333333,286.70707,177.1472)"
       clip-path="url(#clipPath21)" />
    <path
       id="path22"
       d="m 0,0 2.367,-56.16 4.018,-3.584 -2.44,57.735 C 2.798,-1.22 0.788,0 0,0 Z"
       style="fill:#c09300;fill-opacity:1;fill-rule:nonzero;stroke:none"
       transform="matrix(1.3333333,0,0,-1.3333333,337.68613,164.3268)"
       clip-path="url(#clipPath23)" />
    <path
       id="path24"
       d="M 0,0 2.009,-46.978 6.024,-51.088 3.586,3.157 C 2.796,2.369 0.429,0.433 0,0.002 Z"
       style="fill:#c09300;fill-opacity:1;fill-rule:nonzero;stroke:none"
       transform="matrix(1.3333333,0,0,-1.3333333,331.27347,169.6868)"
       clip-path="url(#clipPath25)" />
    <path
       id="path26"
       d="M 0,0 1.577,-39.181 4.805,-42.335 2.796,2.367 C 2.009,1.578 0.43,0.43 0,0"
       style="fill:#c09300;fill-opacity:1;fill-rule:nonzero;stroke:none"
       transform="matrix(1.3333333,0,0,-1.3333333,325.44013,174.4668)"
       clip-path="url(#clipPath27)" />
    <path
       id="path28"
       d="M 0,0 1.578,-33.393 4.735,-35.953 3.156,1.219 C 2.367,0.861 0.789,0 0,0 Z"
       style="fill:#c09300;fill-opacity:1;fill-rule:nonzero;stroke:none"
       transform="matrix(1.3333333,0,0,-1.3333333,319.12627,177.1472)"
       clip-path="url(#clipPath29)" />
    <path
       id="path30"
       d="m 0,0 -9.541,-33.853 13.128,-2.008 5.595,25.462 z"
       style="fill:#ffffff;fill-opacity:1;fill-rule:nonzero;stroke:#c09300;stroke-width:0.594;stroke-linecap:round;stroke-linejoin:round;stroke-miterlimit:4;stroke-dasharray:none;stroke-opacity:1"
       transform="matrix(1.3333333,0,0,-1.3333333,285.6536,197.22653)"
       clip-path="url(#clipPath31)" />
    <path
       id="path32"
       d="m 0,0 9.539,-33.853 -13.125,-2.008 -5.596,25.462 z"
       style="fill:#ffffff;fill-opacity:1;fill-rule:nonzero;stroke:#c09300;stroke-width:0.594;stroke-linecap:round;stroke-linejoin:round;stroke-miterlimit:4;stroke-dasharray:none;stroke-opacity:1"
       transform="matrix(1.3333333,0,0,-1.3333333,314.3464,197.22653)"
       clip-path="url(#clipPath33)" />
    <path
       id="path34"
       d="M 0,0 -1.146,-2.796 -7.35,3.127"
       style="fill:none;stroke:#c09300;stroke-width:0.635;stroke-linecap:round;stroke-linejoin:round;stroke-miterlimit:4;stroke-dasharray:none;stroke-opacity:1"
       transform="matrix(1.3333333,0,0,-1.3333333,318.55213,212.62693)"
       clip-path="url(#clipPath35)" />
    <path
       id="path36"
       d="m 0,0 1.396,6.6 1.217,6.711 2.92,-3.955 1.281,4.56 L 10.902,9.724 8.823,2.098 5.954,6.815 4.376,2.009 1.432,6.59 M -2.999,13.229 1.36,6.608"
       style="fill:none;stroke:#c09300;stroke-width:0.635;stroke-linecap:round;stroke-linejoin:round;stroke-miterlimit:4;stroke-dasharray:none;stroke-opacity:1"
       transform="matrix(1.3333333,0,0,-1.3333333,307.79813,239.21227)"
       clip-path="url(#clipPath37)" />
    <path
       id="path38"
       d="M 0,0 1.147,-2.796 7.35,3.127"
       style="fill:none;stroke:#c09300;stroke-width:0.635;stroke-linecap:round;stroke-linejoin:round;stroke-miterlimit:4;stroke-dasharray:none;stroke-opacity:1"
       transform="matrix(1.3333333,0,0,-1.3333333,281.44667,212.62693)"
       clip-path="url(#clipPath39)" />
    <path
       id="path40"
       d="m 0,0 1.298,-12.174 3.945,5.165"
       style="fill:none;stroke:#c09300;stroke-width:0.635;stroke-linecap:round;stroke-linejoin:round;stroke-miterlimit:4;stroke-dasharray:none;stroke-opacity:1"
       transform="matrix(1.3333333,0,0,-1.3333333,287.1732,203.28)"
       clip-path="url(#clipPath41)" />
    <path
       id="path42"
       d="M 0,0 2.154,-7.437"
       style="fill:none;stroke:#c09300;stroke-width:0.635;stroke-linecap:round;stroke-linejoin:round;stroke-miterlimit:4;stroke-dasharray:none;stroke-opacity:1"
       transform="matrix(1.3333333,0,0,-1.3333333,292.05987,215.3008)"
       clip-path="url(#clipPath43)" />
    <path
       id="path44"
       d="m 0,0 -1.395,6.6 -1.217,6.711 -2.921,-3.955 -1.28,4.56 L -10.9,9.724 -8.822,2.098 -5.953,6.815 -4.375,2.009 -1.43,6.59 M 3,13.229 -1.358,6.608"
       style="fill:none;stroke:#c09300;stroke-width:0.635;stroke-linecap:round;stroke-linejoin:round;stroke-miterlimit:4;stroke-dasharray:none;stroke-opacity:1"
       transform="matrix(1.3333333,0,0,-1.3333333,292.05987,239.21227)"
       clip-path="url(#clipPath45)" />
    <path
       id="path46"
       d="M 0,0 2.649,3.722 4.376,-2.007 6.743,2.01 8.322,-2.797"
       style="fill:none;stroke:#c09300;stroke-width:0.635;stroke-linecap:round;stroke-linejoin:round;stroke-miterlimit:4;stroke-dasharray:none;stroke-opacity:1"
       transform="matrix(1.3333333,0,0,-1.3333333,276.66013,241.31387)"
       clip-path="url(#clipPath47)" />
    <path
       id="path48"
       d="M 0,0 -2.649,3.722 -4.376,-2.007 -6.743,2.01 -8.322,-2.797"
       style="fill:none;stroke:#c09300;stroke-width:0.635;stroke-linecap:round;stroke-linejoin:round;stroke-miterlimit:4;stroke-dasharray:none;stroke-opacity:1"
       transform="matrix(1.3333333,0,0,-1.3333333,323.4792,241.31387)"
       clip-path="url(#clipPath49)" />
    <path
       id="path50"
       d="m 0,0 c 3.228,-0.432 6.814,-0.79 9.613,-0.432 1.576,0 2.725,-2.724 -0.431,-3.156 -2.796,-0.357 -7.173,0 -9.54,0.432 -2.008,0.358 -6.384,1.147 -9.183,1.937 C -12.338,0 -10.328,2.365 -8.752,2.008 -6.312,1.219 -3.156,0.429 0.001,0 Z"
       style="fill:#ffffff;fill-opacity:1;fill-rule:nonzero;stroke:#c09300;stroke-width:0.635;stroke-linecap:round;stroke-linejoin:round;stroke-miterlimit:4;stroke-dasharray:none;stroke-opacity:1"
       transform="matrix(1.3333333,0,0,-1.3333333,281.92573,242.35933)"
       clip-path="url(#clipPath51)" />
    <path
       id="path52"
       d="m 0,0 c -3.229,-0.432 -6.814,-0.79 -9.54,-0.432 -1.65,0 -2.798,-2.724 0.358,-3.156 2.798,-0.357 7.173,0 9.539,0.432 2.009,0.358 6.384,1.147 9.182,1.937 C 12.337,0 10.329,2.365 8.75,2.008 6.312,1.219 3.156,0.429 0,0"
       style="fill:#ffffff;fill-opacity:1;fill-rule:nonzero;stroke:#c09300;stroke-width:0.635;stroke-linecap:round;stroke-linejoin:round;stroke-miterlimit:4;stroke-dasharray:none;stroke-opacity:1"
       transform="matrix(1.3333333,0,0,-1.3333333,318.07947,242.35933)"
       clip-path="url(#clipPath53)" />
    <path
       id="path54"
       d="m 0,0 c -2.438,0.431 -3.586,-2.366 -2.796,-3.943 0.358,0.789 2.007,0.789 2.366,1.577 C 0,-1.147 -0.789,-1.147 0,0"
       style="fill:#ffffff;fill-opacity:1;fill-rule:nonzero;stroke:#c09300;stroke-width:0.635;stroke-linecap:round;stroke-linejoin:round;stroke-miterlimit:4;stroke-dasharray:none;stroke-opacity:1"
       transform="matrix(1.3333333,0,0,-1.3333333,268.72653,240.2604)"
       clip-path="url(#clipPath55)" />
    <path
       id="path56"
       d="M 0,0 C 0,1.577 1.577,1.383 1.577,2.961 1.577,3.75 1.147,4.969 0.358,4.969 -0.431,4.969 -1.22,4.181 -1.22,3.392 -1.579,1.813 0,1.576 0,0"
       style="fill:#ffffff;fill-opacity:1;fill-rule:nonzero;stroke:#c09300;stroke-width:0.635;stroke-linecap:round;stroke-linejoin:round;stroke-miterlimit:4;stroke-dasharray:none;stroke-opacity:1"
       transform="matrix(1.3333333,0,0,-1.3333333,281.44667,250.0404)"
       clip-path="url(#clipPath57)" />
    <path
       id="path58"
       d="m 0,0 c 2.365,0 2.13,-3.156 0.981,-4.735 0,1.147 -2.007,1.579 -2.007,2.366 0,1.221 1.813,1.221 1.026,2.369"
       style="fill:#ffffff;fill-opacity:1;fill-rule:nonzero;stroke:none"
       transform="matrix(1.3333333,0,0,-1.3333333,296.5872,243.98693)"
       clip-path="url(#clipPath59)" />
    <path
       id="path60"
       d="m 0,0 c 2.365,0 2.13,-3.156 0.981,-4.735 0,1.147 -2.007,1.579 -2.007,2.366 0,1.221 1.813,1.221 1.026,2.369 z"
       style="fill:none;stroke:#c09300;stroke-width:0.635;stroke-linecap:round;stroke-linejoin:round;stroke-miterlimit:4;stroke-dasharray:none;stroke-opacity:1"
       transform="matrix(1.3333333,0,0,-1.3333333,296.5872,243.98693)"
       clip-path="url(#clipPath61)" />
    <path
       id="path62"
       d="M 0,0 C 2.438,0.431 3.587,-2.366 2.798,-3.943 2.438,-3.154 0.789,-3.154 0.43,-2.366 0,-1.147 0.789,-1.147 0,0"
       style="fill:#ffffff;fill-opacity:1;fill-rule:nonzero;stroke:#c09300;stroke-width:0.635;stroke-linecap:round;stroke-linejoin:round;stroke-miterlimit:4;stroke-dasharray:none;stroke-opacity:1"
       transform="matrix(1.3333333,0,0,-1.3333333,331.27347,240.2604)"
       clip-path="url(#clipPath63)" />
    <path
       id="path64"
       d="m 0,0 c 0,1.577 -1.575,1.383 -1.575,2.961 0,0.789 0.429,2.008 1.219,2.008 0.788,0 1.577,-0.788 1.577,-1.577 C 1.58,1.813 0.001,1.576 0.001,0 Z"
       style="fill:#ffffff;fill-opacity:1;fill-rule:nonzero;stroke:#c09300;stroke-width:0.635;stroke-linecap:round;stroke-linejoin:round;stroke-miterlimit:4;stroke-dasharray:none;stroke-opacity:1"
       transform="matrix(1.3333333,0,0,-1.3333333,318.55213,250.0404)"
       clip-path="url(#clipPath65)" />
    <path
       id="path66"
       d="m 0,0 c -2.366,0 -2.132,-3.156 -0.983,-4.735 0,1.147 2.007,1.579 2.007,2.366 C 1.024,-1.148 -0.788,-1.148 0,0"
       style="fill:#ffffff;fill-opacity:1;fill-rule:nonzero;stroke:#c09300;stroke-width:0.635;stroke-linecap:round;stroke-linejoin:round;stroke-miterlimit:4;stroke-dasharray:none;stroke-opacity:1"
       transform="matrix(1.3333333,0,0,-1.3333333,303.4128,243.98693)"
       clip-path="url(#clipPath67)" />
    <path
       id="path68"
       d="M 0,0 C 0.79,0 2.009,-0.358 2.368,-0.788 Z"
       style="fill:none;stroke:#c09300;stroke-width:0.446;stroke-linecap:round;stroke-linejoin:round;stroke-miterlimit:4;stroke-dasharray:none;stroke-opacity:1"
       transform="matrix(1.3333333,0,0,-1.3333333,269.78,241.31387)"
       clip-path="url(#clipPath69)" />
    <path
       id="path70"
       d="M 0,0 C 0.431,0 2.01,-0.358 2.798,-0.788 Z"
       style="fill:none;stroke:#c09300;stroke-width:0.446;stroke-linecap:round;stroke-linejoin:round;stroke-miterlimit:4;stroke-dasharray:none;stroke-opacity:1"
       transform="matrix(1.3333333,0,0,-1.3333333,275.03253,242.94013)"
       clip-path="url(#clipPath71)" />
    <path
       id="path72"
       d="M 0,0 C -0.789,0 -2.367,0 -2.797,-0.357 Z"
       style="fill:none;stroke:#c09300;stroke-width:0.446;stroke-linecap:round;stroke-linejoin:round;stroke-miterlimit:4;stroke-dasharray:none;stroke-opacity:1"
       transform="matrix(1.3333333,0,0,-1.3333333,294.16667,245.0404)"
       clip-path="url(#clipPath73)" />
    <path
       id="path74"
       d="M 0,0 C -0.43,0.432 -2.009,0.432 -2.797,0 Z"
       style="fill:none;stroke:#c09300;stroke-width:0.446;stroke-linecap:round;stroke-linejoin:round;stroke-miterlimit:4;stroke-dasharray:none;stroke-opacity:1"
       transform="matrix(1.3333333,0,0,-1.3333333,288.33333,245.0404)"
       clip-path="url(#clipPath75)" />
    <path
       id="path76"
       d="M 0,0 C -0.789,0 -1.937,-0.358 -2.368,-0.788 Z"
       style="fill:#ffffff;fill-opacity:1;fill-rule:nonzero;stroke:#c09300;stroke-width:0.446;stroke-linecap:round;stroke-linejoin:round;stroke-miterlimit:4;stroke-dasharray:none;stroke-opacity:1"
       transform="matrix(1.3333333,0,0,-1.3333333,330.22653,241.31387)"
       clip-path="url(#clipPath77)" />
    <path
       id="path78"
       d="M 0,0 C -0.43,0 -2.009,-0.358 -2.798,-0.788 Z"
       style="fill:#ffffff;fill-opacity:1;fill-rule:nonzero;stroke:#c09300;stroke-width:0.446;stroke-linecap:round;stroke-linejoin:round;stroke-miterlimit:4;stroke-dasharray:none;stroke-opacity:1"
       transform="matrix(1.3333333,0,0,-1.3333333,324.96613,242.94013)"
       clip-path="url(#clipPath79)" />
    <path
       id="path80"
       d="M 0,0 C 0.789,0 2.367,0 2.797,-0.357 Z"
       style="fill:#ffffff;fill-opacity:1;fill-rule:nonzero;stroke:#c09300;stroke-width:0.446;stroke-linecap:round;stroke-linejoin:round;stroke-miterlimit:4;stroke-dasharray:none;stroke-opacity:1"
       transform="matrix(1.3333333,0,0,-1.3333333,305.83333,245.0404)"
       clip-path="url(#clipPath81)" />
    <path
       id="path82"
       d="M 0,0 C 0.43,0.432 2.009,0.432 2.797,0 Z"
       style="fill:#ffffff;fill-opacity:1;fill-rule:nonzero;stroke:#c09300;stroke-width:0.446;stroke-linecap:round;stroke-linejoin:round;stroke-miterlimit:4;stroke-dasharray:none;stroke-opacity:1"
       transform="matrix(1.3333333,0,0,-1.3333333,311.66667,245.0404)"
       clip-path="url(#clipPath83)" />
    <path
       id="path84"
       d="m 0,0 -1.298,-12.174 -3.945,5.165"
       style="fill:none;stroke:#c09300;stroke-width:0.635;stroke-linecap:round;stroke-linejoin:round;stroke-miterlimit:4;stroke-dasharray:none;stroke-opacity:1"
       transform="matrix(1.3333333,0,0,-1.3333333,312.92573,203.28)"
       clip-path="url(#clipPath85)" />
    <path
       id="path86"
       d="m 0,0 c 16.32,12.553 14.921,30.941 14.921,30.941 -0.431,-0.086 -0.84,-0.129 -1.271,-0.129 -3.422,0 -11.588,1.959 -13.494,4.447 -2.04,-2.252 -10.385,-4.447 -13.787,-4.447 -0.431,0 -0.86,0.043 -1.27,0.129 0,0 -1.421,-18.387 14.9,-30.941 z"
       style="fill:#ffffff;fill-opacity:1;fill-rule:nonzero;stroke:#c09300;stroke-width:0.575;stroke-linecap:butt;stroke-linejoin:miter;stroke-miterlimit:4;stroke-dasharray:none;stroke-opacity:1"
       transform="matrix(1.3333333,0,0,-1.3333333,299.98693,218.1536)"
       clip-path="url(#clipPath87)" />
    <path
       id="path88"
       d="m 0,0 c -0.14,-0.009 -0.281,-0.013 -0.423,-0.013 -3.103,0 -10.31,1.592 -13.088,3.978 -2.91,-2.204 -10.235,-3.978 -13.288,-3.978 -0.142,0 -0.284,0.017 -0.425,0.043 -0.007,-0.696 0.029,-1.416 0.073,-2.072 0.161,-2.45 0.59,-4.909 1.243,-7.276 2.054,-7.447 6.258,-13.776 12.287,-18.578 6.032,4.806 10.241,11.141 12.3,18.594 0.654,2.365 1.085,4.824 1.248,7.275 C -0.031,-1.385 0.005,-0.682 0,0"
       style="fill:#ffffff;fill-opacity:1;fill-rule:nonzero;stroke:none"
       transform="matrix(1.3333333,0,0,-1.3333333,318.14587,178.69333)"
       clip-path="url(#clipPath89)" />
    <path
       id="path90"
       d="m 207.9,174.296 h 11.786 V 133.652 H 207.9 Z"
       style="fill:#c09300;fill-opacity:1;fill-rule:nonzero;stroke:none"
       transform="matrix(1.3333333,0,0,-1.3333333,0,400)"
       clip-path="url(#clipPath91)" />
    <path
       id="path92"
       d="m 229.993,174.296 h 12.412 v -40.644 h -12.412 z"
       style="fill:#c09300;fill-opacity:1;fill-rule:nonzero;stroke:none"
       transform="matrix(1.3333333,0,0,-1.3333333,0,400)"
       clip-path="url(#clipPath93)" />
    <path
       id="path94"
       d="M 0,0 -2.155,-7.437"
       style="fill:none;stroke:#c09300;stroke-width:0.635;stroke-linecap:round;stroke-linejoin:round;stroke-miterlimit:4;stroke-dasharray:none;stroke-opacity:1"
       transform="matrix(1.3333333,0,0,-1.3333333,307.73307,215.3008)"
       clip-path="url(#clipPath95)" />
    <path
       id="path96"
       d="m 0,0 c 0,0.017 -0.094,0.074 -0.208,0.126 -0.221,0.101 -0.41,0.255 -0.525,0.426 -0.081,0.119 -0.176,0.421 -0.179,0.566 0,0.073 -0.024,0.105 -0.086,0.117 -0.254,0.056 -0.902,0.127 -1.379,0.152 -0.3,0.014 -0.86,0.058 -1.246,0.096 C -4.461,1.566 -4.78,1.555 -4.892,1.437 -4.935,1.393 -4.987,1.304 -5.009,1.239 -5.031,1.175 -5.113,1.038 -5.191,0.935 -5.269,0.83 -5.333,0.729 -5.333,0.708 -5.332,0.687 -5.35,0.67 -5.369,0.67 -5.39,0.669 -5.437,0.641 -5.475,0.605 -5.569,0.516 -5.763,0.383 -5.862,0.339 -5.908,0.318 -5.989,0.276 -6.04,0.248 -6.175,0.171 -7.112,0.162 -7.264,0.236 -7.323,0.265 -7.423,0.289 -7.486,0.288 -7.55,0.287 -7.634,0.31 -7.673,0.337 c -0.06,0.041 -0.067,0.066 -0.036,0.152 0.042,0.122 0.168,0.154 0.652,0.161 0.27,0.004 0.348,0.021 0.505,0.102 0.189,0.098 0.51,0.333 0.535,0.392 0.007,0.016 0.044,0.057 0.083,0.089 0.038,0.034 0.08,0.117 0.092,0.186 0.013,0.07 0.055,0.191 0.096,0.269 0.083,0.164 0.073,0.263 -0.068,0.668 -0.147,0.418 -0.199,0.512 -0.366,0.652 -0.209,0.177 -0.204,0.261 0.031,0.499 0.102,0.103 0.247,0.278 0.319,0.387 0.119,0.175 0.145,0.195 0.25,0.187 0.101,-0.009 0.133,-0.039 0.224,-0.208 0.141,-0.259 0.335,-0.707 0.335,-0.776 0,-0.031 0.025,-0.106 0.054,-0.168 0.03,-0.063 0.075,-0.172 0.1,-0.244 0.058,-0.179 0.093,-0.198 0.402,-0.223 0.327,-0.028 0.331,-0.024 0.36,0.414 0.01,0.167 0.036,0.32 0.057,0.341 0.021,0.02 0.037,0.068 0.037,0.107 -0.002,0.088 -0.187,0.603 -0.235,0.649 -0.065,0.062 -0.038,0.246 0.057,0.404 0.051,0.087 0.107,0.158 0.124,0.158 0.017,0 0.094,0.042 0.172,0.095 0.196,0.13 0.489,0.161 0.614,0.066 0.081,-0.061 0.093,-0.105 0.112,-0.386 0.019,-0.288 0.031,-0.326 0.12,-0.4 0.055,-0.045 0.141,-0.082 0.191,-0.082 0.049,-10e-4 0.121,-0.026 0.158,-0.057 0.056,-0.049 0.189,-0.06 0.791,-0.065 C -1.074,3.7 -0.608,3.678 -0.55,3.642 -0.526,3.628 -0.382,3.617 -0.227,3.618 -0.072,3.62 0.265,3.607 0.522,3.593 0.975,3.566 0.996,3.563 1.105,3.458 L 1.22,3.352 1.229,2.872 C 1.237,2.319 1.271,2.248 1.512,2.251 1.724,2.252 1.783,2.318 1.8,2.563 1.809,2.681 1.837,2.793 1.862,2.813 1.89,2.835 1.936,2.91 1.967,2.982 2.029,3.133 2.291,3.396 2.412,3.433 2.457,3.445 2.526,3.485 2.568,3.521 2.608,3.557 2.692,3.596 2.754,3.606 3.024,3.658 3.321,3.758 3.392,3.82 3.439,3.864 3.53,3.892 3.642,3.897 3.785,3.904 3.831,3.89 3.894,3.819 3.983,3.719 3.999,3.641 4.034,3.146 4.049,2.942 4.079,2.732 4.103,2.679 4.125,2.627 4.154,2.372 4.166,2.116 L 4.188,1.647 4.071,1.494 3.954,1.34 2.741,1.329 C 2.074,1.324 1.471,1.308 1.399,1.294 1.258,1.268 1.225,1.193 1.228,0.917 1.229,0.831 1.204,0.761 1.158,0.721 1.119,0.686 1.077,0.618 1.065,0.571 1.043,0.48 0.794,0.293 0.635,0.245 0.583,0.229 0.517,0.197 0.485,0.173 0.397,0.103 0.116,-0.031 0.056,-0.031 0.024,-0.032 0,-0.019 0,0 M 0.317,1.151 C 0.4,1.215 0.402,1.231 0.399,1.894 L 0.396,2.57 0.294,2.658 C 0.197,2.743 0.162,2.747 -0.527,2.774 -0.925,2.79 -1.314,2.823 -1.394,2.848 -1.498,2.881 -1.592,2.883 -1.728,2.857 -1.852,2.835 -1.998,2.836 -2.149,2.859 -2.711,2.947 -3.084,2.877 -3.219,2.658 -3.283,2.556 -3.283,2.544 -3.222,2.447 -3.187,2.392 -3.115,2.338 -3.063,2.329 -3.011,2.32 -2.89,2.289 -2.794,2.262 -2.688,2.229 -2.461,2.21 -2.213,2.21 -1.988,2.211 -1.61,2.199 -1.373,2.185 -1.136,2.169 -0.807,2.153 -0.64,2.149 -0.424,2.145 -0.309,2.124 -0.231,2.076 L -0.125,2.012 -0.146,1.663 C -0.168,1.329 -0.165,1.312 -0.081,1.24 0.02,1.154 0.14,1.087 0.194,1.088 c 0.021,0 0.077,0.028 0.123,0.063 M 3.213,2.24 C 3.296,2.271 3.313,2.296 3.296,2.355 3.283,2.396 3.254,2.508 3.23,2.602 3.194,2.748 3.176,2.771 3.097,2.771 3.011,2.771 2.852,2.681 2.707,2.551 2.636,2.487 2.592,2.331 2.63,2.278 2.715,2.164 2.966,2.147 3.213,2.24 M 6.368,0.293 C 6.246,0.418 6.221,0.471 6.219,0.593 6.217,0.716 6.241,0.766 6.36,0.886 6.579,1.106 6.686,1.112 7.064,0.921 7.426,0.737 7.548,0.721 7.581,0.852 7.612,0.977 7.82,1.09 8.018,1.091 8.143,1.092 8.213,1.067 8.313,0.989 8.439,0.892 8.445,0.877 8.448,0.649 8.45,0.418 8.447,0.41 8.304,0.281 8.164,0.16 8.143,0.152 7.971,0.169 7.752,0.191 7.62,0.291 7.585,0.464 7.56,0.589 7.516,0.618 7.482,0.533 7.473,0.506 7.419,0.473 7.363,0.458 7.261,0.433 7.089,0.324 6.966,0.208 6.92,0.165 6.838,0.145 6.706,0.144 6.529,0.142 6.504,0.152 6.368,0.293 M 9.79,0.517 9.705,0.574 9.78,0.678 c 0.042,0.057 0.138,0.124 0.215,0.149 0.261,0.085 0.438,0.192 0.651,0.396 0.118,0.11 0.213,0.229 0.212,0.262 0,0.035 0.046,0.116 0.102,0.181 0.098,0.113 0.102,0.135 0.094,0.498 -0.007,0.373 -0.027,0.45 -0.165,0.665 -0.067,0.104 -0.29,0.265 -0.519,0.376 -0.151,0.073 -0.205,0.224 -0.127,0.351 0.032,0.053 0.136,0.252 0.231,0.441 0.093,0.189 0.19,0.384 0.215,0.434 0.069,0.136 0.236,0.143 0.35,0.016 0.107,-0.122 0.279,-0.427 0.28,-0.498 10e-4,-0.026 0.034,-0.077 0.073,-0.112 0.086,-0.076 0.27,-0.394 0.271,-0.466 10e-4,-0.028 0.045,-0.123 0.1,-0.209 0.067,-0.108 0.099,-0.213 0.102,-0.33 0.003,-0.095 0.03,-0.231 0.06,-0.306 C 12.016,2.313 11.987,1.594 11.879,1.392 11.835,1.308 11.785,1.237 11.771,1.237 11.755,1.237 11.693,1.17 11.632,1.089 11.516,0.935 11.118,0.655 11.014,0.654 10.979,0.653 10.927,0.617 10.897,0.572 10.846,0.495 10.812,0.489 10.358,0.475 9.959,0.461 9.862,0.469 9.79,0.517 m 2.977,0.323 c -0.044,0.041 -0.032,0.218 0.018,0.256 0.026,0.019 0.088,0.048 0.14,0.063 0.052,0.016 0.119,0.049 0.149,0.074 0.03,0.027 0.14,0.06 0.242,0.076 0.372,0.054 0.694,0.347 0.695,0.63 C 14.013,2.019 14,2.1 13.985,2.121 13.943,2.185 13.296,2.146 12.944,2.058 12.861,2.037 12.82,2.054 12.719,2.149 l -0.125,0.118 -0.018,0.529 -0.017,0.529 0.162,0.179 c 0.089,0.1 0.202,0.243 0.25,0.322 0.05,0.078 0.099,0.148 0.114,0.153 0.013,0.006 0.089,0.069 0.168,0.139 0.157,0.14 0.416,0.281 0.591,0.323 0.06,0.015 0.127,0.052 0.149,0.08 0.022,0.03 0.088,0.058 0.148,0.063 0.091,0.007 0.124,-0.016 0.213,-0.151 0.058,-0.089 0.109,-0.21 0.112,-0.27 0.003,-0.059 0.031,-0.172 0.062,-0.251 0.031,-0.079 0.068,-0.237 0.082,-0.35 0.015,-0.115 0.046,-0.229 0.069,-0.256 0.056,-0.067 0.51,-0.098 0.59,-0.041 0.044,0.031 0.062,0.129 0.075,0.372 0.009,0.188 0.04,0.377 0.072,0.441 0.031,0.062 0.068,0.165 0.082,0.23 0.036,0.177 0.332,0.586 0.509,0.704 0.086,0.057 0.177,0.124 0.203,0.147 0.025,0.024 0.084,0.055 0.13,0.07 0.112,0.034 0.139,0.081 0.138,0.24 -0.001,0.137 -0.116,0.295 -0.352,0.486 -0.058,0.047 -0.105,0.112 -0.105,0.148 -0.001,0.101 0.109,0.294 0.282,0.497 0.089,0.102 0.161,0.2 0.162,0.216 0,0.017 0.059,0.068 0.131,0.113 0.101,0.063 0.149,0.073 0.222,0.048 0.101,-0.036 0.129,-0.085 0.222,-0.394 0.122,-0.408 0.151,-0.527 0.181,-0.758 0.017,-0.13 0.043,-0.253 0.056,-0.275 0.014,-0.022 0.181,-0.071 0.369,-0.113 0.189,-0.04 0.378,-0.094 0.422,-0.121 0.044,-0.025 0.123,-0.058 0.174,-0.073 0.128,-0.035 0.302,-0.16 0.304,-0.218 0,-0.025 0.015,-0.046 0.031,-0.046 0.041,0 0.23,-0.275 0.403,-0.587 0.196,-0.352 0.184,-0.344 0.497,-0.34 0.251,0.001 0.28,0.01 0.35,0.097 0.042,0.053 0.076,0.14 0.075,0.195 -0.001,0.112 0.096,0.245 0.331,0.453 0.09,0.08 0.201,0.179 0.245,0.219 0.145,0.131 0.311,0.236 0.375,0.238 0.034,0 0.219,-0.065 0.412,-0.144 0.284,-0.115 0.369,-0.169 0.454,-0.285 0.186,-0.251 0.583,-0.354 0.779,-0.203 0.052,0.04 0.112,0.073 0.135,0.073 0.022,0 0.04,0.026 0.04,0.055 0,0.076 -0.153,0.492 -0.2,0.545 -0.021,0.024 -0.056,0.169 -0.077,0.323 -0.022,0.153 -0.074,0.353 -0.117,0.442 -0.051,0.108 -0.085,0.273 -0.1,0.502 -0.014,0.187 -0.058,0.46 -0.098,0.607 -0.041,0.147 -0.075,0.312 -0.075,0.368 -0.004,0.267 -0.23,0.615 -0.458,0.71 -0.053,0.022 -0.137,0.063 -0.19,0.09 C 21.224,8.41 21.045,8.4 20.966,8.314 20.929,8.274 20.863,8.241 20.82,8.241 20.74,8.241 20.5,8.046 20.5,7.983 20.5,7.965 20.445,7.949 20.377,7.949 20.277,7.947 20.231,7.975 20.133,8.097 20.064,8.179 20.01,8.263 20.01,8.284 c -0.001,0.022 -0.069,0.095 -0.152,0.163 -0.123,0.102 -0.151,0.149 -0.152,0.254 -0.002,0.103 0.017,0.138 0.091,0.171 0.051,0.024 0.093,0.058 0.093,0.077 0,0.02 0.062,0.046 0.139,0.061 0.077,0.012 0.276,0.058 0.44,0.101 0.415,0.108 1.16,0.114 1.342,0.011 0.066,-0.037 0.165,-0.078 0.218,-0.089 0.122,-0.027 0.448,-0.327 0.514,-0.475 0.028,-0.063 0.067,-0.123 0.086,-0.135 0.019,-0.011 0.048,-0.088 0.062,-0.173 0.016,-0.083 0.052,-0.2 0.08,-0.259 0.041,-0.089 0.098,-0.459 0.156,-1.025 0.01,-0.102 0.086,-0.447 0.145,-0.664 0.022,-0.079 0.064,-0.263 0.094,-0.408 0.03,-0.145 0.082,-0.291 0.115,-0.326 0.031,-0.034 0.059,-0.089 0.06,-0.125 10e-4,-0.14 0.388,-0.377 0.615,-0.375 0.196,0.002 0.49,0.135 0.675,0.304 0.104,0.097 0.229,0.186 0.279,0.198 0.102,0.027 0.266,-0.051 0.325,-0.152 0.071,-0.124 0.19,-0.232 0.346,-0.319 C 25.75,5.005 25.812,4.881 25.748,4.762 25.727,4.723 25.68,4.689 25.645,4.689 25.608,4.689 25.49,4.647 25.381,4.597 25.271,4.546 25.149,4.504 25.111,4.504 25.072,4.504 24.86,4.445 24.638,4.373 24.416,4.302 24.024,4.199 23.767,4.146 23.312,4.052 22.702,3.883 22.627,3.831 22.606,3.816 22.522,3.793 22.439,3.777 22.186,3.733 22.163,3.72 22.14,3.589 22.109,3.428 21.766,3.068 21.512,2.933 21.336,2.839 21.3,2.834 20.861,2.835 20.606,2.836 20.366,2.844 20.329,2.854 20.292,2.866 20.25,2.923 20.235,2.98 20.223,3.039 20.16,3.12 20.098,3.162 19.978,3.241 19.842,3.239 19.535,3.152 L 19.399,3.113 19.377,2.758 C 19.364,2.563 19.331,2.364 19.304,2.316 19.276,2.27 19.237,2.199 19.219,2.158 19.198,2.119 19.096,2.013 18.991,1.923 18.886,1.833 18.733,1.697 18.651,1.622 18.482,1.467 18.337,1.443 18.235,1.555 18.198,1.596 18.124,1.626 18.062,1.625 17.936,1.623 17.644,1.743 17.46,1.872 17.348,1.95 17.112,2.335 17.11,2.441 c 0,0.022 -0.034,0.071 -0.075,0.11 -0.06,0.056 -0.125,0.07 -0.31,0.067 C 16.596,2.616 16.414,2.598 16.322,2.576 16.229,2.557 16.004,2.521 15.82,2.5 15.638,2.479 15.434,2.438 15.368,2.41 15.302,2.383 15.177,2.349 15.089,2.333 14.858,2.294 14.789,2.21 14.791,1.975 14.792,1.851 14.774,1.766 14.739,1.737 14.71,1.714 14.677,1.648 14.664,1.593 14.633,1.447 14.326,1.149 14.107,1.052 14.005,1.006 13.858,0.937 13.783,0.897 13.669,0.837 13.57,0.824 13.219,0.82 12.983,0.818 12.779,0.826 12.767,0.84 m 5.813,1.735 c 0.106,0.081 0.113,0.196 0.022,0.277 -0.11,0.095 -0.309,0.093 -0.513,-0.004 -0.122,-0.058 -0.156,-0.094 -0.155,-0.164 0,-0.061 0.029,-0.101 0.085,-0.122 0.127,-0.048 0.494,-0.04 0.561,0.013 M 13.84,3.004 C 13.969,3.069 14,3.142 13.967,3.3 13.917,3.539 13.616,3.61 13.471,3.416 13.426,3.357 13.39,3.294 13.39,3.276 13.39,3.258 13.365,3.223 13.335,3.198 13.291,3.163 13.289,3.137 13.323,3.076 13.347,3.035 13.385,2.988 13.408,2.975 13.479,2.93 13.729,2.947 13.84,3.004 m 2.978,0.557 c 0.014,0.061 0.012,0.201 -0.004,0.31 -0.022,0.157 -0.051,0.22 -0.141,0.297 C 16.537,4.284 16.467,4.273 16.307,4.11 16.203,4.006 16.187,3.965 16.184,3.776 16.179,3.48 16.219,3.442 16.539,3.445 c 0.255,0.002 0.255,0.002 0.279,0.116 m 1.333,0.127 c 0.161,0.074 0.18,0.095 0.18,0.201 0,0.163 -0.148,0.355 -0.367,0.476 -0.233,0.128 -0.317,0.126 -0.42,-0.011 -0.081,-0.108 -0.081,-0.117 -0.023,-0.277 0.035,-0.092 0.062,-0.19 0.062,-0.22 0,-0.072 0.228,-0.252 0.317,-0.252 0.04,-10e-4 0.154,0.037 0.251,0.083 m 2.995,0.026 c 0.231,0.1 0.297,0.224 0.206,0.388 C 21.273,4.243 21.159,4.3 20.973,4.287 20.758,4.272 20.58,4.131 20.582,3.973 20.583,3.87 20.608,3.835 20.743,3.745 20.832,3.688 20.917,3.639 20.932,3.637 20.947,3.636 21.043,3.67 21.146,3.714 M -10.406,0.877 c -0.057,0.019 -0.103,0.048 -0.103,0.062 -10e-4,0.034 -0.356,0.251 -0.411,0.25 -0.022,0 -0.051,0.044 -0.063,0.099 -0.011,0.055 -0.057,0.205 -0.1,0.335 -0.075,0.229 -0.074,0.403 0.003,0.449 0.057,0.034 0.036,0.147 -0.039,0.209 -0.044,0.038 -0.162,0.067 -0.329,0.076 -0.352,0.024 -0.392,0.035 -0.517,0.138 -0.088,0.074 -0.113,0.132 -0.14,0.325 -0.02,0.138 -0.06,0.263 -0.099,0.303 -0.069,0.072 -0.186,0.091 -0.221,0.037 -0.011,-0.018 -0.07,-0.042 -0.133,-0.055 -0.076,-0.016 -0.126,-0.053 -0.15,-0.117 -0.02,-0.05 -0.079,-0.149 -0.132,-0.217 -0.093,-0.12 -0.107,-0.125 -0.338,-0.127 -0.132,-0.002 -0.297,0.018 -0.365,0.045 -0.147,0.058 -0.31,0.083 -0.718,0.111 -0.585,0.039 -0.854,-0.004 -0.9,-0.146 -0.063,-0.196 -0.535,-0.6 -0.741,-0.633 -0.082,-0.014 -0.223,-0.048 -0.312,-0.078 -0.089,-0.029 -0.178,-0.044 -0.198,-0.032 -0.02,0.012 -0.217,0.043 -0.439,0.07 -0.418,0.052 -0.571,0.123 -0.572,0.262 -0.002,0.085 0.255,0.214 0.354,0.178 0.106,-0.038 0.281,-0.036 0.281,0.004 0,0.018 0.091,0.053 0.202,0.076 0.111,0.023 0.224,0.065 0.248,0.095 0.024,0.029 0.094,0.053 0.152,0.053 0.09,0 0.129,0.034 0.219,0.171 0.061,0.094 0.111,0.194 0.11,0.221 0,0.027 0.032,0.092 0.074,0.143 0.043,0.055 0.072,0.147 0.072,0.226 -0.002,0.074 0.023,0.206 0.055,0.293 0.052,0.149 0.051,0.173 -0.031,0.409 -0.046,0.138 -0.107,0.263 -0.132,0.279 -0.027,0.014 -0.068,0.084 -0.093,0.152 -0.066,0.184 0.006,0.349 0.27,0.632 0.029,0.03 0.063,0.107 0.078,0.173 0.025,0.121 0.109,0.189 0.237,0.19 0.093,10e-4 0.269,-0.193 0.27,-0.298 0.001,-0.044 0.03,-0.116 0.063,-0.161 0.036,-0.05 0.074,-0.212 0.096,-0.411 0.036,-0.343 0.096,-0.694 0.141,-0.829 0.039,-0.114 0.244,-0.273 0.354,-0.273 0.052,-10e-4 0.198,-0.023 0.322,-0.05 0.124,-0.028 0.322,-0.049 0.441,-0.048 0.217,10e-4 0.218,10e-4 0.439,0.223 0.122,0.122 0.222,0.241 0.22,0.263 -0.006,0.145 -0.489,0.403 -0.877,0.473 -0.136,0.022 -0.232,0.189 -0.203,0.35 0.026,0.137 0.207,0.374 0.384,0.502 0.068,0.049 0.291,0.136 0.498,0.194 l 0.375,0.104 0.104,0.202 c 0.198,0.387 0.613,0.692 0.945,0.696 0.167,0.001 0.202,-0.019 0.334,-0.184 0.037,-0.046 0.107,-0.131 0.154,-0.189 0.148,-0.183 0.23,-0.398 0.208,-0.539 -0.02,-0.132 0.036,-0.342 0.092,-0.341 0.052,10e-4 0.598,-0.532 0.624,-0.608 0.014,-0.039 0.039,-0.07 0.057,-0.069 0.047,0 0.115,-0.24 0.117,-0.414 0.002,-0.258 -0.055,-0.296 -0.455,-0.303 C -10.815,3.824 -11.048,3.8 -11.14,3.771 l -0.169,-0.049 -0.008,-0.2 c -0.012,-0.27 0.055,-0.345 0.35,-0.388 0.121,-0.018 0.239,-0.049 0.261,-0.069 0.021,-0.02 0.083,-0.036 0.137,-0.036 0.053,10e-4 0.131,-0.021 0.171,-0.049 0.066,-0.045 0.074,-0.097 0.079,-0.511 l 0.005,-0.463 0.122,-0.036 c 0.067,-0.021 0.142,-0.056 0.167,-0.079 0.089,-0.083 0.206,-0.049 0.254,0.076 0.024,0.064 0.058,0.149 0.076,0.189 0.017,0.04 0.047,0.283 0.065,0.541 0.02,0.258 0.058,0.533 0.086,0.613 0.028,0.08 0.068,0.338 0.088,0.575 0.02,0.237 0.057,0.453 0.079,0.479 0.024,0.029 0.05,0.254 0.059,0.513 0.013,0.37 0.03,0.477 0.082,0.532 0.054,0.06 0.063,0.142 0.059,0.518 l -0.005,0.446 -0.151,0.125 c -0.101,0.083 -0.15,0.154 -0.15,0.215 -0.002,0.13 0.033,0.168 0.22,0.236 0.093,0.033 0.236,0.086 0.319,0.115 0.082,0.032 0.165,0.075 0.185,0.099 0.066,0.075 0.274,0.207 0.328,0.208 0.029,10e-4 0.08,-0.029 0.115,-0.064 0.081,-0.084 0.088,-0.426 0.012,-0.57 C -8.336,6.677 -8.357,6.537 -8.356,6.396 -8.354,6.264 -8.38,6.086 -8.411,5.999 -8.443,5.908 -8.484,5.58 -8.507,5.229 -8.529,4.892 -8.566,4.581 -8.591,4.537 -8.615,4.493 -8.634,4.348 -8.634,4.212 -8.632,4.077 -8.656,3.829 -8.686,3.66 -8.717,3.492 -8.757,3.209 -8.775,3.031 -8.794,2.854 -8.833,2.652 -8.862,2.585 -8.891,2.517 -8.924,2.346 -8.936,2.204 -8.947,2.063 -8.987,1.892 -9.025,1.822 -9.063,1.752 -9.092,1.667 -9.092,1.633 -9.091,1.541 -9.285,1.208 -9.34,1.206 -9.364,1.206 -9.401,1.175 -9.421,1.138 -9.442,1.102 -9.509,1.06 -9.572,1.048 -9.635,1.035 -9.731,0.993 -9.788,0.954 -9.908,0.871 -10.258,0.828 -10.406,0.877 m -1.162,3.566 c 0.098,0.069 0.107,0.161 0.015,0.184 -0.116,0.029 -0.21,0.189 -0.218,0.371 -0.014,0.327 -0.167,0.346 -0.452,0.056 C -12.305,4.97 -12.43,4.856 -12.5,4.803 l -0.13,-0.099 0.094,-0.094 c 0.157,-0.158 0.332,-0.221 0.621,-0.222 0.184,-0.001 0.289,0.015 0.347,0.055 M 5.319,1.472 C 5.241,1.58 5.237,1.605 5.273,1.804 5.295,1.923 5.314,2.125 5.317,2.253 5.319,2.382 5.342,2.522 5.366,2.566 5.39,2.61 5.408,2.699 5.408,2.767 5.406,2.86 5.439,2.919 5.555,3.029 5.637,3.107 5.703,3.189 5.703,3.21 5.702,3.258 5.995,3.483 6.057,3.484 6.081,3.485 6.131,3.518 6.168,3.558 6.204,3.598 6.28,3.631 6.336,3.631 6.392,3.631 6.481,3.67 6.535,3.715 6.628,3.793 6.634,3.817 6.631,4.111 6.629,4.3 6.604,4.489 6.566,4.589 6.533,4.68 6.51,4.789 6.515,4.833 6.519,4.876 6.508,5.081 6.489,5.289 6.46,5.625 6.445,5.677 6.358,5.765 6.304,5.818 6.239,5.862 6.213,5.862 6.166,5.862 5.989,6.068 6.015,6.094 6.272,6.37 6.732,6.804 6.784,6.82 6.89,6.854 7.049,6.782 7.089,6.683 7.108,6.635 7.138,6.419 7.151,6.206 7.165,5.993 7.194,5.721 7.216,5.602 7.237,5.483 7.274,5.111 7.298,4.774 7.322,4.438 7.358,4.106 7.379,4.037 7.399,3.969 7.431,3.661 7.447,3.354 7.463,3.048 7.494,2.734 7.515,2.658 7.587,2.396 7.889,2.237 8.104,2.351 8.14,2.369 8.3,2.406 8.46,2.432 8.833,2.491 8.84,2.503 8.807,3.035 8.783,3.404 8.771,3.456 8.682,3.566 8.627,3.634 8.54,3.699 8.488,3.711 8.386,3.734 8.321,3.822 8.32,3.939 8.32,4.022 8.513,4.216 8.635,4.254 8.676,4.267 8.787,4.34 8.883,4.418 9.095,4.591 9.234,4.604 9.366,4.463 9.45,4.372 9.46,4.325 9.487,3.843 9.51,3.471 9.535,3.291 9.579,3.214 9.625,3.136 9.642,3.008 9.646,2.741 9.647,2.493 9.669,2.335 9.71,2.243 9.763,2.125 9.763,2.096 9.717,1.996 9.688,1.934 9.652,1.847 9.64,1.804 9.608,1.702 9.552,1.686 9.207,1.677 9.053,1.673 8.858,1.65 8.776,1.628 8.694,1.605 8.475,1.583 8.289,1.578 7.498,1.558 6.416,1.467 6.356,1.414 6.312,1.376 6.187,1.362 5.852,1.358 L 5.404,1.354 5.319,1.471 Z M 6.458,2.248 6.654,2.306 6.641,2.493 6.627,2.681 6.472,2.689 C 6.341,2.697 6.3,2.683 6.219,2.598 6.073,2.445 6.058,2.337 6.167,2.258 6.217,2.222 6.26,2.191 6.26,2.191 c 0.002,0 0.092,0.026 0.198,0.057 m -14.525,-0.332 -0.141,0.121 0.02,0.302 c 0.01,0.165 0.042,0.365 0.073,0.445 0.031,0.08 0.054,0.261 0.054,0.404 -0.002,0.143 0.023,0.33 0.052,0.416 0.029,0.084 0.076,0.402 0.106,0.705 0.03,0.302 0.069,0.591 0.089,0.641 0.018,0.051 0.034,0.185 0.033,0.297 -0.002,0.112 0.027,0.311 0.064,0.44 0.044,0.151 0.069,0.361 0.068,0.577 -0.001,0.187 0.015,0.398 0.037,0.466 0.02,0.07 0.037,0.166 0.037,0.211 -10e-4,0.089 0.129,0.296 0.185,0.296 0.018,0 0.094,-0.086 0.169,-0.192 C -7.146,6.939 -6.996,6.771 -6.887,6.669 -6.406,6.226 -6.428,6.265 -6.584,6.118 -6.642,6.064 -6.705,6.021 -6.726,6.021 -6.746,6.02 -6.809,5.974 -6.863,5.918 -6.946,5.833 -6.963,5.782 -6.963,5.62 -6.962,5.512 -6.987,5.358 -7.02,5.278 -7.071,5.147 -7.125,4.662 -7.144,4.144 -7.148,4.035 -7.167,3.921 -7.187,3.892 -7.206,3.861 -7.229,3.602 -7.237,3.313 -7.246,3.025 -7.269,2.766 -7.288,2.737 -7.307,2.708 -7.323,2.619 -7.325,2.54 -7.331,2.247 -7.396,1.981 -7.483,1.89 -7.552,1.818 -7.606,1.8 -7.748,1.798 -7.899,1.796 -7.949,1.814 -8.067,1.916 m -10.959,0.492 c -0.183,0.048 -0.277,0.186 -0.279,0.404 -0.002,0.167 0.01,0.193 0.127,0.284 0.075,0.059 0.195,0.11 0.288,0.123 0.134,0.018 0.183,0.007 0.29,-0.069 0.276,-0.194 0.334,-0.385 0.175,-0.571 -0.17,-0.197 -0.331,-0.243 -0.601,-0.171 M 23.502,2.982 C 23.39,3.077 23.366,3.12 23.364,3.239 23.363,3.445 23.481,3.596 23.737,3.712 24.079,3.866 24.218,3.846 24.346,3.619 24.517,3.318 24.509,3.195 24.304,2.993 24.191,2.881 24.171,2.875 23.912,2.872 23.658,2.87 23.629,2.877 23.502,2.982 m -44.553,0.039 c -0.243,0.06 -0.383,0.304 -0.311,0.544 0.064,0.218 0.101,0.239 0.42,0.243 0.358,0.003 0.427,-0.057 0.43,-0.372 0.002,-0.177 -0.011,-0.218 -0.1,-0.3 -0.103,-0.097 -0.303,-0.149 -0.439,-0.115 m -1.524,0.464 c -0.248,0.233 -0.208,0.403 0.159,0.676 0.157,0.117 0.252,0.104 0.431,-0.059 0.276,-0.252 0.288,-0.413 0.044,-0.627 -0.121,-0.108 -0.173,-0.129 -0.314,-0.131 -0.146,-0.002 -0.188,0.016 -0.32,0.141 m 4.839,0.019 c -0.114,0.037 -0.393,0.104 -0.62,0.148 -0.526,0.102 -1.342,0.286 -1.562,0.352 -0.093,0.029 -0.262,0.072 -0.376,0.098 -0.209,0.046 -0.316,0.078 -0.658,0.193 -0.105,0.034 -0.359,0.104 -0.565,0.155 -0.207,0.052 -0.448,0.122 -0.537,0.16 -0.089,0.036 -0.193,0.067 -0.233,0.066 -0.039,-0.001 -0.128,0.029 -0.196,0.065 -0.069,0.037 -0.234,0.077 -0.367,0.09 -0.276,0.024 -0.483,0.122 -0.6,0.283 -0.1,0.137 -0.103,0.243 -0.01,0.432 0.039,0.079 0.071,0.173 0.072,0.208 0,0.035 0.034,0.092 0.075,0.126 0.041,0.034 0.074,0.078 0.073,0.097 0,0.043 0.174,0.295 0.277,0.402 0.136,0.14 0.415,0.273 0.573,0.275 0.093,0.002 0.175,0.027 0.215,0.066 0.044,0.044 0.146,0.07 0.326,0.084 l 0.262,0.02 0.102,0.182 c 0.056,0.099 0.103,0.229 0.103,0.289 0.001,0.059 0.028,0.156 0.06,0.217 0.031,0.058 0.08,0.205 0.107,0.325 0.105,0.45 0.18,0.702 0.225,0.745 0.065,0.064 0.058,0.092 -0.054,0.231 -0.06,0.075 -0.132,0.122 -0.184,0.122 -0.125,-0.002 -0.329,-0.077 -0.393,-0.144 -0.129,-0.135 -0.299,-0.224 -0.429,-0.225 -0.178,-0.002 -0.406,0.125 -0.492,0.274 -0.066,0.116 -0.066,0.124 0.011,0.282 0.052,0.103 0.118,0.176 0.182,0.201 0.156,0.06 0.553,0.03 0.645,-0.049 0.064,-0.055 0.113,-0.06 0.32,-0.037 0.136,0.015 0.253,0.041 0.263,0.057 0.011,0.017 0.094,0.041 0.184,0.056 0.091,0.012 0.174,0.047 0.185,0.075 0.012,0.027 0.079,0.062 0.151,0.075 0.074,0.014 0.152,0.048 0.175,0.076 0.024,0.028 0.092,0.051 0.151,0.052 0.082,10e-4 0.121,-0.025 0.171,-0.114 0.055,-0.102 0.057,-0.144 0.017,-0.351 -0.025,-0.13 -0.076,-0.296 -0.113,-0.37 -0.038,-0.074 -0.069,-0.197 -0.068,-0.274 0.001,-0.088 -0.025,-0.171 -0.072,-0.224 -0.041,-0.045 -0.073,-0.12 -0.073,-0.165 0,-0.045 -0.024,-0.108 -0.057,-0.139 C -20.501,7.96 -20.544,7.833 -20.566,7.709 -20.587,7.585 -20.625,7.45 -20.65,7.41 -20.676,7.37 -20.706,7.262 -20.719,7.169 -20.731,7.077 -20.767,6.981 -20.796,6.958 -20.825,6.933 -20.85,6.862 -20.849,6.8 c 0,-0.063 -0.03,-0.174 -0.067,-0.246 -0.038,-0.074 -0.079,-0.219 -0.093,-0.325 -0.012,-0.104 -0.045,-0.223 -0.071,-0.263 -0.026,-0.039 -0.06,-0.154 -0.072,-0.252 -0.015,-0.1 -0.05,-0.219 -0.08,-0.264 -0.049,-0.075 -0.047,-0.093 0.022,-0.183 0.11,-0.147 0.437,-0.252 0.769,-0.248 0.257,10e-4 0.272,0.006 0.364,0.12 0.056,0.069 0.106,0.19 0.121,0.29 0.014,0.093 0.049,0.216 0.077,0.27 0.029,0.055 0.052,0.192 0.052,0.304 -0.002,0.19 -0.012,0.211 -0.137,0.308 -0.124,0.096 -0.131,0.112 -0.09,0.2 0.042,0.091 0.212,0.169 0.373,0.171 0.034,10e-4 0.101,0.031 0.15,0.068 0.049,0.037 0.125,0.079 0.17,0.094 0.044,0.013 0.144,0.083 0.222,0.152 0.164,0.148 0.266,0.151 0.348,0.012 0.052,-0.086 0.051,-0.113 -0.005,-0.27 -0.035,-0.095 -0.062,-0.245 -0.06,-0.333 0,-0.088 -0.023,-0.184 -0.05,-0.217 -0.03,-0.031 -0.069,-0.13 -0.089,-0.219 -0.021,-0.09 -0.062,-0.228 -0.093,-0.307 -0.031,-0.079 -0.056,-0.21 -0.056,-0.29 0,-0.08 -0.034,-0.21 -0.073,-0.287 -0.106,-0.206 -0.094,-0.331 0.041,-0.392 0.031,-0.012 0.099,-0.047 0.151,-0.075 0.051,-0.029 0.162,-0.052 0.244,-0.052 0.083,0 0.223,-0.03 0.312,-0.068 0.09,-0.038 0.27,-0.078 0.401,-0.09 0.232,-0.02 0.239,-0.018 0.342,0.096 0.065,0.071 0.124,0.195 0.153,0.321 0.025,0.112 0.055,0.241 0.066,0.285 0.036,0.137 -0.022,0.319 -0.139,0.426 -0.207,0.191 -0.121,0.445 0.149,0.447 0.116,0.002 0.433,0.129 0.517,0.207 0.225,0.213 0.366,0.27 0.504,0.201 0.109,-0.055 0.144,-0.204 0.076,-0.325 -0.028,-0.049 -0.075,-0.187 -0.102,-0.306 -0.027,-0.119 -0.084,-0.331 -0.125,-0.472 -0.04,-0.141 -0.101,-0.385 -0.132,-0.541 -0.031,-0.158 -0.089,-0.383 -0.127,-0.5 -0.039,-0.118 -0.07,-0.244 -0.069,-0.282 0,-0.037 -0.035,-0.15 -0.078,-0.249 -0.125,-0.288 -0.313,-0.345 -0.703,-0.212 m -4.216,2.2 c 0.129,0.111 0.131,0.225 0.006,0.277 -0.079,0.034 -0.125,0.027 -0.281,-0.048 -0.157,-0.075 -0.184,-0.103 -0.175,-0.179 0.008,-0.085 0.077,-0.114 0.31,-0.134 0.021,-0.002 0.083,0.036 0.14,0.084 M 5.178,4.171 C 4.968,4.243 4.891,4.346 4.873,4.578 4.856,4.82 4.879,4.858 5.136,4.998 l 0.182,0.1 0.174,-0.077 C 5.731,4.914 5.839,4.799 5.848,4.637 5.856,4.464 5.728,4.285 5.527,4.195 5.352,4.117 5.341,4.116 5.178,4.171 M 4.996,5.412 c -0.1,0.036 -0.258,0.259 -0.257,0.361 0,0.194 0.286,0.509 0.464,0.511 C 5.29,6.285 5.53,6.16 5.62,6.066 5.783,5.897 5.747,5.62 5.543,5.463 5.442,5.385 5.143,5.356 4.996,5.412 m -27.463,1.961 c -0.266,0.051 -0.407,0.262 -0.34,0.512 0.081,0.304 0.326,0.479 0.557,0.398 0.146,-0.053 0.414,-0.323 0.415,-0.42 0.001,-0.111 -0.141,-0.376 -0.201,-0.377 -0.026,-10e-4 -0.067,-0.023 -0.091,-0.051 -0.05,-0.059 -0.207,-0.087 -0.34,-0.062"
       style="fill:#c09300;fill-opacity:1;fill-rule:nonzero;stroke:none"
       transform="matrix(1.3333333,0,0,-1.3333333,298.84893,259.5508)"
       clip-path="url(#clipPath97)" />
    <path
       id="path98"
       d="M 0,0 C 0.333,-0.02 -0.45,1.784 -0.45,1.784 0.432,0.882 3.765,0.667 3.765,0.667 c -2,0.882 -4,7.547 -3.765,12.86 0.217,5.332 -0.765,7.43 -1.548,8.214 -1,1 -4.215,1.882 -6.333,1.999 -1.195,0.059 -0.999,-0.902 -0.999,-0.902 -2.216,0.569 -4.431,0.785 -5.431,0.118 -0.941,-0.627 -1.137,-3.764 -0.451,-3.215 1.666,1.333 3.117,0.118 4.117,-1.333 0.882,-1.274 0.824,-4.881 -0.451,-9.096 -1.333,-4.43 -4.979,-8.861 -4.979,-8.861 1.98,0 4.764,1.764 4.764,1.764 l -0.667,-2.764 C -9.881,0.451 -8.214,2 -8.214,2 l 1.999,-2.098 c 0.667,0.882 2,2.098 2,2.098 0,0 1.667,-1.765 4.215,-2"
       style="fill:#ffffff;fill-opacity:1;fill-rule:nonzero;stroke:none"
       transform="matrix(1.3333333,0,0,-1.3333333,308.20707,168.72987)"
       clip-path="url(#clipPath99)" />
    <path
       id="path100"
       d="M 0,0 C 0.333,-0.02 -0.45,1.784 -0.45,1.784 0.432,0.882 3.765,0.667 3.765,0.667 c -2,0.882 -4,7.547 -3.765,12.86 0.217,5.332 -0.765,7.43 -1.548,8.214 -1,1 -4.215,1.882 -6.333,1.999 -1.195,0.059 -0.999,-0.902 -0.999,-0.902 -2.216,0.569 -4.431,0.785 -5.431,0.118 -0.941,-0.627 -1.137,-3.764 -0.451,-3.215 1.666,1.333 3.117,0.118 4.117,-1.333 0.882,-1.274 0.824,-4.881 -0.451,-9.096 -1.333,-4.43 -4.979,-8.861 -4.979,-8.861 1.98,0 4.764,1.764 4.764,1.764 l -0.667,-2.764 C -9.881,0.451 -8.214,2 -8.214,2 l 1.999,-2.098 c 0.667,0.882 2,2.098 2,2.098 0,0 1.667,-1.765 4.215,-2 z"
       style="fill:none;stroke:#c09300;stroke-width:0.635;stroke-linecap:butt;stroke-linejoin:miter;stroke-miterlimit:4;stroke-dasharray:none;stroke-opacity:1"
       transform="matrix(1.3333333,0,0,-1.3333333,308.20707,168.72987)"
       clip-path="url(#clipPath101)" />
    <path
       id="path102"
       d="M 0,0 C 0,0 -1.118,-8.214 -3.215,-10.547"
       style="fill:none;stroke:#c09300;stroke-width:0.635;stroke-linecap:butt;stroke-linejoin:miter;stroke-miterlimit:4;stroke-dasharray:none;stroke-opacity:1"
       transform="matrix(1.3333333,0,0,-1.3333333,297.4128,151.7136)"
       clip-path="url(#clipPath103)" />
    <path
       id="path104"
       d="M 0,0 C 0,0 -0.432,-8.312 -1.882,-10.978"
       style="fill:none;stroke:#c09300;stroke-width:0.635;stroke-linecap:butt;stroke-linejoin:miter;stroke-miterlimit:4;stroke-dasharray:none;stroke-opacity:1"
       transform="matrix(1.3333333,0,0,-1.3333333,299.7656,151.42573)"
       clip-path="url(#clipPath105)" />
    <path
       id="path106"
       d="M 0,0 C 0,0 0,-9.096 0.549,-10.645"
       style="fill:none;stroke:#c09300;stroke-width:0.635;stroke-linecap:butt;stroke-linejoin:miter;stroke-miterlimit:4;stroke-dasharray:none;stroke-opacity:1"
       transform="matrix(1.3333333,0,0,-1.3333333,301.85547,151.8704)"
       clip-path="url(#clipPath107)" />
    <path
       id="path108"
       d="M 0,0 C 0,0 0.451,-7.645 2.333,-10.41"
       style="fill:none;stroke:#c09300;stroke-width:0.635;stroke-linecap:butt;stroke-linejoin:miter;stroke-miterlimit:4;stroke-dasharray:none;stroke-opacity:1"
       transform="matrix(1.3333333,0,0,-1.3333333,304.49613,152.472)"
       clip-path="url(#clipPath109)" />
    <path
       id="path110"
       d="m 0,0 c -0.098,0.726 -0.274,1.294 -0.529,1.667 -1,1.45 -2.451,2.666 -4.117,1.333 0,0 0.568,1.764 1.784,1.823 0.94,0.058 3.078,-0.706 4.96,-3.921 0,0 -1.393,0.314 -1.726,0.019 C -0.255,0.373 0,0 0,0"
       style="fill:#c09300;fill-opacity:1;fill-rule:nonzero;stroke:#c09300;stroke-width:0.635;stroke-linecap:butt;stroke-linejoin:miter;stroke-miterlimit:4;stroke-dasharray:none;stroke-opacity:1"
       transform="matrix(1.3333333,0,0,-1.3333333,294.72,146.40827)"
       clip-path="url(#clipPath111)" />
    <path
       id="path112"
       d="m 0,0 c 0.138,0.451 0.353,0.863 0.627,1.039 1,0.667 3.215,0.451 5.43,-0.118 0,0 -0.196,0.961 1,0.902 2.118,-0.117 5.333,-1 6.333,-1.999 0.234,-0.255 0.508,-0.628 0.744,-1.196 h -0.039 c -0.491,0.686 -1.882,0.646 -2.216,0.607 C 11.35,-0.823 11.017,-0.804 10.311,-0.98 9.978,-1.059 9.469,-1.157 9.193,-1.372 8.978,-1.549 8.802,-2.196 8.469,-2.196 c -0.53,0 -0.491,0.137 -0.628,0.295 C 7.664,-1.686 7.566,-1.372 7.39,-1.392 6.842,-1.49 5.959,-1.059 4.842,-0.176 3.725,0.706 3.293,0.921 1.842,0.823 0.411,0.706 -0.04,-0.098 -0.04,-0.098 Z"
       style="fill:#c09300;fill-opacity:1;fill-rule:nonzero;stroke:#c09300;stroke-width:0.635;stroke-linecap:butt;stroke-linejoin:miter;stroke-miterlimit:4;stroke-dasharray:none;stroke-opacity:1"
       transform="matrix(1.3333333,0,0,-1.3333333,288.2904,139.5072)"
       clip-path="url(#clipPath113)" />
    <path
       id="path114"
       d="M 0,0 C 0.334,0 0.589,0.255 0.589,0.588 0.589,0.921 0.334,1.176 0,1.176 -0.312,1.176 -0.587,0.921 -0.587,0.588 -0.587,0.255 -0.312,0 0,0"
       style="fill:#ffffff;fill-opacity:1;fill-rule:nonzero;stroke:none"
       transform="matrix(1.3333333,0,0,-1.3333333,299.2148,141.2324)"
       clip-path="url(#clipPath115)" />
    <path
       id="path116"
       d="m 0,0 c -0.14,-0.009 -0.281,-0.013 -0.423,-0.013 -3.103,0 -10.31,1.592 -13.088,3.978 -2.91,-2.204 -10.235,-3.978 -13.288,-3.978 -0.142,0 -0.284,0.017 -0.425,0.043 -0.007,-0.696 0.029,-1.416 0.073,-2.072 0.161,-2.45 0.59,-4.909 1.243,-7.276 2.054,-7.447 6.258,-13.776 12.287,-18.578 6.032,4.806 10.241,11.141 12.3,18.594 0.654,2.365 1.085,4.824 1.248,7.275 C -0.031,-1.385 0.005,-0.682 0,0 Z"
       style="fill:none;stroke:#c09300;stroke-width:0.458;stroke-linecap:butt;stroke-linejoin:miter;stroke-miterlimit:4;stroke-dasharray:none;stroke-opacity:1"
       transform="matrix(1.3333333,0,0,-1.3333333,318.14587,178.69333)"
       clip-path="url(#clipPath117)" />
  </g>
</svg>
