<?xml version="1.0" encoding="UTF-8" standalone="no"?>
<!-- Created with Inkscape (http://www.inkscape.org/) -->

<svg
   version="1.1"
   id="svg1"
   width="1001.3333"
   height="666.66669"
   viewBox="0 0 1001.3333 666.66669"
   sodipodi:docname="er.ai"
   xmlns:inkscape="http://www.inkscape.org/namespaces/inkscape"
   xmlns:sodipodi="http://sodipodi.sourceforge.net/DTD/sodipodi-0.dtd"
   xmlns="http://www.w3.org/2000/svg"
   xmlns:svg="http://www.w3.org/2000/svg">
  <defs
     id="defs1">
    <clipPath
       clipPathUnits="userSpaceOnUse"
       id="clipPath5">
      <path
         d="M 0,0 H 751 V 500 H 0 Z"
         transform="translate(-193.5405,-144.65621)"
         id="path5" />
    </clipPath>
  </defs>
  <sodipodi:namedview
     id="namedview1"
     pagecolor="#ffffff"
     bordercolor="#000000"
     borderopacity="0.25"
     inkscape:showpageshadow="2"
     inkscape:pageopacity="0.0"
     inkscape:pagecheckerboard="0"
     inkscape:deskcolor="#d1d1d1">
    <inkscape:page
       x="0"
       y="0"
       inkscape:label="1"
       id="page1"
       width="1001.3333"
       height="666.66669"
       margin="0"
       bleed="0" />
  </sodipodi:namedview>
  <g
     id="layer-MC0"
     inkscape:groupmode="layer"
     inkscape:label="Layer 1">
    <path
       id="path1"
       d="M 0,0 H 751 V 500 H 0 Z"
       style="fill:#ea0437;fill-opacity:1;fill-rule:nonzero;stroke:none"
       transform="matrix(1.3333333,0,0,-1.3333333,0,666.66667)" />
    <path
       id="path2"
       d="M 0,0 H 751 V 250 Z"
       style="fill:#4189dd;fill-opacity:1;fill-rule:nonzero;stroke:none"
       transform="matrix(1.3333333,0,0,-1.3333333,0,666.66667)" />
    <path
       id="path3"
       d="M 0,0 751,-250 V 0 Z"
       style="fill:#12ad2b;fill-opacity:1;fill-rule:nonzero;stroke:none"
       transform="matrix(1.3333333,0,0,-1.3333333,0,-5.3333333e-4)" />
    <path
       id="path4"
       d="m 0,0 c -9.587,-2.647 -15.083,-10.085 -14.942,-17.103 l 47.189,0.19 c 0.424,7.541 -5.78,14.515 -15.224,17.262 46.203,0.954 86.341,18.26 93.634,29.365 -7.218,3.132 -15.563,-1.909 -21.512,-0.749 14.125,6.528 56.444,33.92 49.564,63.285 -5.349,-16.311 -21.55,-29.806 -28.451,-33.429 15.809,24.004 37.395,48.996 18.667,68.348 0.946,-11.216 -7.127,-23.56 -10.693,-24.487 9.17,25.363 17.92,57.208 -1.949,78.2 2.61,-7.588 1.556,-28.992 -2.037,-29.953 -1.106,17.246 -4.049,53.523 -22.212,53.007 5.768,-5.136 8.293,-19.153 8.421,-33.31 -4.14,9.699 -8.844,17.001 -18.905,24.163 -8.14,15.61 -22.622,28.544 -37.107,37.81 1.626,-11.362 2.972,-20.327 18.837,-32.112 -8.272,0.515 -16.542,16.195 -25.382,16.63 -7.031,0.34 -12.549,-6.371 -24.04,-2.51 1.272,-3.793 6.633,-5.473 7.765,-8.278 -2.462,-1.701 -8.305,0.265 -13.162,2.795 6.682,-9.102 17.036,-14.454 25.825,-12.648 10.453,2.01 21.661,0.947 32.35,-5.135 -2.73,-1.402 -13.356,-1.393 -20.176,-0.54 6.199,-6.276 10.356,-10.435 21.134,-10.366 9.627,0.063 14.674,5.135 17.146,1.994 6.038,-7.155 10.101,-14.306 15.152,-22.729 -11.157,-1.232 -7.793,12.618 -20.219,19.703 -6.981,-14.45 8.03,-31.58 18.248,-38.7 0.138,-10.861 1.725,-19.948 6.332,-28.218 3.105,-5.83 7.121,-11.797 5.606,-24.956 -6.116,4.455 -12.095,19.481 -9.895,31.409 -7.656,-2.088 -10.65,-15.551 -7.041,-22.329 2.696,-5.158 4.495,-15.032 1.386,-19.446 -3.03,-4.112 -3.348,-3.652 -3.308,-12.477 0.108,-5.282 -2.842,-11.527 -7.647,-15.881 1.003,3.72 2.147,10.123 1.036,14.125 C 80.591,56.486 71.063,49.818 68.062,42.892 65.115,35.948 64.368,23.922 50.107,21.148 31.762,17.507 25.43,14.327 13.625,9.497 c -1.31,8.966 2.611,27.663 10.109,26.597 7.32,-1.303 29.515,7.647 21.576,26.344 -1.569,-5.892 -6.8,-11.643 -12.455,-11.898 6.11,7.928 17.014,16.136 11.704,29.418 -2.953,-5.645 -7.595,-12.422 -14.636,-16.234 7.548,14.464 0.877,18.791 -8.086,6.879 -3.385,-4.597 -5.429,-13.806 -7.58,-25.502 -3.521,9.512 -3.288,22.035 -7.46,32.203 -4.358,10.996 5.784,13.899 10.556,13.017 11.686,-3.12 31.215,-3.118 29.764,16.188 -5.047,-6.53 -13.897,-8.548 -23.455,-6.196 10.734,7.838 19.21,22.582 7.248,30.28 -0.399,-8.164 -6.716,-17.316 -15.15,-21.531 -1.974,6.888 -1.974,14.197 -0.281,22.211 -4.71,-4.957 -8.149,-15.271 -10.885,-26.997 -0.206,11.591 1.987,19.941 3.613,26.176 2.464,9.107 8.59,3.181 17.968,2.51 9.032,-0.513 21.466,4.478 19.089,16.725 -3.083,-4.845 -9.413,-6.73 -15.881,-6.218 7.786,4.717 21.352,13.098 13.912,25.991 -3.125,-4.883 -4.137,-9.06 -13.183,-10.558 2.369,5.45 2.763,13.155 9.784,16.208 -12.524,2.494 -19.695,-5.726 -23.34,-18.598 -1.478,8.925 -3.238,12.21 -3.588,18.738 6.771,7.52 7.48,22.229 -7.177,25.519 -0.871,-7.588 -0.612,-9.396 1.055,-15.574 -6.88,4.087 -16.577,6.343 -23.033,0.563 4.373,-4.72 11.144,-8.876 21.579,-3.728 -2.465,-8.064 -8.876,-6.684 -17.686,-3.609 5.385,-10.114 12.18,-11.911 19.679,-10.745 3.927,-10.352 4.1,-18.218 -7.374,-33.294 0.53,9.368 -0.136,16.348 -7.579,23.923 -6.379,6.247 -11.563,-0.267 -1.595,-14.156 -6.047,4.454 -12.891,13.492 -14.952,22.529 -1.993,-11.164 -0.198,-24.322 5.982,-31.699 -2.923,-3.124 -6.247,0.332 -11.164,7.974 1.86,-24.455 12.294,-29.174 26.316,-23.723 0.399,-13.423 0.399,-25.852 1.196,-42.067 -8.175,11.762 -18.54,20.534 -24.323,22.727 -1.794,-6.578 4.985,-15.15 8.773,-19.935 -5.782,1.196 -18.342,10.765 -18.342,10.765 -1.263,-10.899 12.827,-21 21.931,-25.519 -10.699,0.466 -15.419,4.519 -22.33,11.164 C -35.943,46.129 -3.315,51.38 2.8,56.031 3.598,41.145 4.735,23.936 5.532,9.049 c -9.224,1.61 -8.499,4.384 -16.391,5.114 -21.906,0.854 -39.283,26.296 -45.037,45.012 -1.651,-3.08 -0.341,-6.303 -1.852,-10.087 -3.556,9.186 -8.1,21.051 -14.193,26.572 1.551,-5.355 1.716,-10.798 1.176,-20.806 -2.091,6.484 -4.036,8.473 -4.177,16.085 0.133,5.845 5.639,10.158 5.334,18.379 -0.225,6.001 -5.7,19.01 -6.505,29.08 -2.651,-10.364 -4.315,-21.291 -8.374,-27.707 2.017,11.069 1.37,18.706 4.783,26.155 3.943,7.842 7.295,14.844 4.67,22.758 -2.517,-3.057 -1.651,-5.834 -7.975,-13.261 -1.374,8.077 8.177,21.004 17.446,26.2 6.538,3.445 14.779,15.766 9.411,24.211 -6.148,-4.416 -8.909,-10.381 -17.594,-20.574 6.195,24.215 22.29,30.55 41.56,30.633 4.264,0.02 12.86,1.56 15.273,7.202 -5.431,-2.097 -11.854,-2.364 -17.568,-1.22 4.159,6.106 12.918,5.312 21.079,5.349 6.402,0.03 16.397,0.898 20.437,10.016 -7.809,-3.383 -19.989,-4.087 -27.658,-1.691 12.196,6.32 31.3,7 41.098,15.293 -11.168,8.335 -39.113,-1.942 -56.764,-14.048 4.933,4.512 12.73,12.514 17.032,18.974 -9.654,4.628 -34.068,-22.418 -42.478,-38.489 -7.989,-4.511 -11.184,-11.582 -14.286,-16.517 4.256,14.382 4.708,24.819 8.259,36.664 -27.383,-9.427 -16.001,-60.021 -21.957,-72.125 0.7,13.363 0.133,30.531 -5.369,39.383 -8.434,-6.434 -9.115,-44.306 -1.196,-75.834 -2.86,8.437 -8.257,16.313 -9.988,26.582 -12.483,-22.766 7.317,-49.625 23.874,-70.842 -12.465,6.492 -24.789,20.457 -32.884,32.164 2.234,-40.748 44.786,-49.214 51.392,-59.229 -8.966,4.174 -26.108,12.433 -33.381,3.779 C -85.43,29.49 -75.985,26.33 -68.374,21.341 -57.331,7.554 -36.419,1.523 0,0"
       style="fill:#ffc726;fill-opacity:1;fill-rule:nonzero;stroke:none"
       transform="matrix(1.3333333,0,0,-1.3333333,258.054,473.79173)"
       clip-path="url(#clipPath5)" />
  </g>
</svg>
