<?xml version="1.0" encoding="UTF-8" standalone="no"?>
<svg
   width="720"
   height="480"
   version="1.1"
   id="svg29"
   sodipodi:docname="Flag_of_Wales.svg"
   inkscape:version="1.4 (e7c3feb1, 2024-10-09)"
   xmlns:inkscape="http://www.inkscape.org/namespaces/inkscape"
   xmlns:sodipodi="http://sodipodi.sourceforge.net/DTD/sodipodi-0.dtd"
   xmlns="http://www.w3.org/2000/svg"
   xmlns:svg="http://www.w3.org/2000/svg">
  <defs
     id="defs29" />
  <sodipodi:namedview
     id="namedview29"
     pagecolor="#ffffff"
     bordercolor="#000000"
     borderopacity="0.25"
     inkscape:showpageshadow="2"
     inkscape:pageopacity="0.0"
     inkscape:pagecheckerboard="0"
     inkscape:deskcolor="#d1d1d1"
     inkscape:zoom="0.56026312"
     inkscape:cx="304.3213"
     inkscape:cy="339.12637"
     inkscape:window-width="1648"
     inkscape:window-height="899"
     inkscape:window-x="0"
     inkscape:window-y="38"
     inkscape:window-maximized="0"
     inkscape:current-layer="svg29" />
  <path
     fill="#00b140"
     d="M 0,0 H 720 V 480 H 0 Z"
     id="path1"
     style="stroke-width:0.948683" />
  <path
     fill="#ffffff"
     d="M 0,0 H 720 V 240 H 0 Z"
     id="path2"
     style="stroke-width:0.948683" />
  <g
     stroke="#000000"
     id="g29"
     transform="translate(-39.991674)">
    <g
       stroke-width="1.157"
       id="g28">
      <g
         fill="#c8102e"
         id="g4">
        <path
           d="m 246.663,113.816 c -25.98,3.938 -91.82,10.123 -117.509,5.906 l 5.02,12.092 c 42.515,-3.937 83.26,9.843 121.053,-4.5 z"
           id="path3" />
        <path
           d="m 145.985,143.343 c -16.24,-4.779 -43.107,-32.62 -47.535,-49.492 12.695,8.716 43.105,19.965 54.03,18.841 -3.544,2.531 -12.402,9.279 -19.192,10.123 3.25,6.188 9.448,14.06 12.697,20.528 z"
           id="path4" />
      </g>
      <path
         fill="#c8102e"
         d="m 198.242,134.907 c 4.726,6.467 29.526,3.796 42.072,-4.076 l -3.395,-5.485 -2.509,4.64 -3.985,-4.358 -1.033,6.889 -6.938,-5.062 -1.183,6.047 -4.428,-5.343 -1.622,6.609 -6.497,-5.064 -2.509,6.892 a 13.182,13.182 0 0 1 -3.101,-8.296 c -2.51,0.983 -4.576,4.217 -4.872,6.607 z m 2.067,-20.949 c 0,1.686 2.066,6.609 5.906,8.013 0.148,-2.108 -2.511,-7.03 -0.886,-9.137 l 3.395,3.092 1.034,-5.906 4.576,3.234 0.442,-6.888 4.724,3.092 v -7.592 c -7.677,0.701 -17.125,9.56 -19.191,12.092 z"
         id="path5" />
      <path
         fill="#c8102e"
         d="m 679.42,190.587 c -1.992,-4.499 -8.192,-9.982 -13.654,-13.357 a 1345.822,1345.822 0 0 0 8.778,-21.074 c -8.267,1.688 -25.459,2.936 -35.499,1.812 18.895,-17.998 58.46,-55.119 71.45,-71.992 -4.724,23.06 -1.18,74.802 8.268,92.8 -10.04,-3.937 -21.643,-12.09 -28.137,-21.088 -3.831,12.918 -8.53,26.996 -11.13,32.758"
         id="path6" />
      <path
         fill="#c8102e"
         d="m 310.733,91.882 c 1.18,5.906 1.474,10.405 5.904,12.092 4.428,1.688 14.171,5.061 20.372,15.186 -7.381,-1.968 -17.715,-4.781 -18.602,1.969 -0.842,6.424 2.116,6.234 7.087,7.31 6.495,1.406 12.696,8.999 12.992,19.124 -5.317,-3.093 -12.697,-5.624 -17.421,-5.624 -4.724,0 -6.053,0.842 -7.233,6.466 -1.949,9.276 1.625,9.843 6.052,10.405 4.43,0.562 13.878,4.781 14.468,20.248 -5.02,-4.22 -15.088,-6.57 -21.259,-7.592 -3.395,-0.562 -3.985,1.124 -4.427,7.03 -0.445,5.905 0.294,7.874 6.198,9.56 5.907,1.689 12.697,5.906 14.468,14.905 -5.61,-2.53 -14.468,-1.687 -17.125,-0.562 -2.657,1.124 -4.096,7.41 1.514,19.5 a 176.19,176.19 0 0 1 37.163,-7.69 c 27.906,-2.799 21.26,-21.371 21.26,-50.618 0,-29.247 61.41,-61.866 154.708,-113.61 -22.439,54.555 8.268,49.493 25.39,43.308 17.125,-6.188 57.28,-21.935 88.576,-34.871 -43.107,27.558 -64.956,56.805 -27.163,69.74 -48.421,14.623 -70.86,54.555 -44.288,79.865 -18.12,-6.113 -43.232,5.42 -53.75,21.482 18.896,-1.689 55.52,2.703 77.96,8.888 21.367,5.89 56.64,-1.007 59.964,-19.157 0.175,-0.915 0.265,-1.845 0.268,-2.777 0,-6.327 -1.63,-11.104 -4.124,-14.585 -5.488,-7.66 -15.105,-9.318 -20.382,-9.318 -7.677,0 -15.648,3.092 -15.648,8.436 0,5.344 4.724,7.593 14.172,7.593 5.165,0 13.13,0.855 21.858,-6.711 2.495,3.48 4.124,8.258 4.124,14.585 -0.008,0.92 -0.102,1.836 -0.28,2.738 a 56.838,56.838 0 0 1 -26.885,6.823 c -18.896,0 -36.608,-7.312 -36.608,-26.996 0,-19.684 21.256,-30.934 38.38,-30.934 23.62,0 56.687,9 56.687,44.993 0,45.558 -62.713,66.864 -99.916,66.864 6.237,4.985 13.262,9.627 20.79,12.438 26.349,9.843 49.603,21.935 57.87,40.496 -10.038,0 -26.573,-7.874 -34.25,-15.749 21.259,24.748 -4.525,70.27 -1.77,85.49 2.95,16.308 23.029,6.185 23.029,18.841 0,11.247 -11.811,9.279 -16.239,4.217 -4.43,-5.061 -18.627,-9.313 -25.982,-4.217 -6.495,4.5 -16.532,6.748 -20.962,2.25 -4.428,-4.5 -20.667,-2.814 -27.457,3.374 -6.79,6.185 -16.276,6.669 -19.192,1.969 -3.122,-5.033 -2.324,-11.153 10.307,-13.271 -5.61,-5.626 -22.708,3.99 -25.659,-6.695 -2.123,-7.679 2.361,-11.25 17.123,-10.126 -1.477,-3.654 -12.399,-5.34 -10.925,-12.935 1.477,-7.593 10.01,-12.293 20.079,-1.124 26.866,29.808 39.267,13.217 48.418,0.282 -2.95,-6.75 0.297,-11.25 5.907,-15.467 -2.953,-4.781 -1.183,-11.53 0.884,-16.029 -4.428,-2.53 -7.084,-13.78 -2.36,-17.717 -3.84,0 -9.745,-4.22 -9.745,-11.53 a 13.768,13.768 0 0 1 -16.532,-1.686 c -5.61,3.093 -20.372,3.655 -26.869,-3.095 -8.857,3.375 -24.506,2.53 -28.637,-3.937 -7.795,1.97 -22.145,-4.5 -25.096,-11.53 a 30.639,30.639 0 0 1 -12.945,-3.934 c -11.808,8.436 -27.8,24.745 -11.857,37.119 15.945,12.373 49.011,2.248 49.602,33.181 -7.677,-6.185 -21.849,-4.5 -26.573,-10.685 -15.942,22.497 -38.971,43.025 -72.925,51.461 5.018,3.093 14.172,3.375 17.713,3.093 7.363,-0.584 13.582,5.344 7.974,12.374 -5.61,7.032 -17.125,1.124 -23.916,-4.78 -9.772,-8.5 -16.238,-3.656 -18.896,-1.688 -2.656,1.968 -6.2,3.095 -10.924,-1.406 -4.724,-4.5 -9.154,-1.404 -11.514,1.406 -3.838,4.57 -12.696,-5.906 -26.867,6.468 -6.814,5.95 -23.029,-1.686 -16.535,-10.405 -6.79,1.689 -18.8,-7.707 -8.857,-16.871 9.154,-8.436 26.572,10.967 40.744,5.341 -3.185,-3.86 -9.823,-11.01 -23.62,-12.653 -7.086,-0.844 -8.34,-8.695 -5.02,-14.343 4.134,-7.03 16.831,-2.248 25.393,8.72 6.744,8.639 15.648,8.716 24.8,7.03 6.43,-4.084 16.386,-4.22 20.816,-2.814 0,-4.217 6.936,-7.874 12.25,-7.874 -0.293,-5.624 1.477,-10.685 10.04,-12.092 0.714,-0.116 1.452,-0.231 2.214,-0.3 a 20.276,20.276 0 0 1 -15.804,-6.478 c -11.827,2.885 -24.93,-2.676 -26.855,-13.313 -18.694,-1.303 -20.553,-20.167 -15.947,-26.308 0.376,-0.508 0.797,-0.98 1.26,-1.409 -5.565,4.184 -12.675,6.12 -21.467,3.073 a 33.344,33.344 0 0 1 -36.058,12.292 27.316,27.316 0 0 1 -15.898,11.362 c 0.55,6.816 -0.92,14.539 -9.915,23.612 2.36,-12.374 -14.172,-16.31 -10.628,-36.556 -1.183,14.622 -45.765,38.807 -52.852,70.864 6.497,2.813 13.584,4.78 18.012,3.937 11.137,-2.12 14.762,9 11.514,13.499 -3.248,4.499 -12.4,6.747 -16.238,2.81 -3.838,-3.935 -11.811,1.407 -15.649,-5.904 -3.837,-7.312 -14.467,-4.78 -18.895,0 -4.428,4.78 -19.192,-6.187 -29.82,4.78 -3.976,4.102 -17.419,8.436 -25.392,6.188 -7.971,-2.25 -12.695,-10.125 -10.038,-14.342 -5.314,-4.782 -5.388,-10.637 -0.294,-15.75 -1.92,-7.17 4.34,-21.34 14.91,-15.746 6.643,3.514 30.188,20.107 50.708,1.125 17.792,-16.664 7.427,-30.016 18.821,-31.778 -1.386,-6.765 2.954,-15.184 7.678,-16.873 a 12.246,12.246 0 0 1 -0.697,-9.014 29.115,29.115 0 0 1 -7.849,-1.72 105.655,105.655 0 0 1 -27.18,3.986 c 0,6.748 -8.266,23.059 -15.353,30.934 -2.36,-61.867 -61.41,-68.055 -69.383,-117.265 -0.294,7.31 -8.268,14.622 -9.152,20.808 -0.886,6.188 -4.724,10.967 -11.81,8.157 -7.085,-2.814 -8.858,-14.625 -1.771,-16.311 7.087,-1.689 5.758,-12.937 10.186,-14.343 4.428,-1.406 5.166,-5.906 3.395,-11.53 -1.773,-5.623 0.884,-12.373 2.657,-16.59 1.77,-4.22 -0.886,-11.25 -7.087,-13.78 -6.198,-2.53 -8.265,-8.717 -5.904,-14.06 -6.495,-4.5 -4.643,-14.223 4.133,-16.029 10.925,-2.25 10.629,14.902 16.83,16.873 -0.885,-3.375 0.295,-9.843 2.953,-14.062 -3.544,-7.313 0.886,-13.216 7.97,-13.216 12.402,0 8.268,19.684 5.315,25.872 4.133,-5.626 10.63,-12.094 15.648,-7.592 5.02,4.496 4.2,13.894 -1.18,17.995 -4.43,3.374 -13.582,8.718 -10.925,14.624 5.314,8.999 8.561,19.684 9.154,33.464 7.38,5.344 12.104,11.53 12.104,16.59 4.87,0.283 14.2,4.132 15.5,9.564 5.905,-0.565 14.723,0.564 17.271,5.764 1.922,-0.985 7.043,-1.313 10.145,-1.033 a 19.06,19.06 0 0 1 4.323,-12.043 c -10.038,-10.688 -9.744,-27.558 0.59,-34.309 -2.942,-7.006 -1.77,-19.966 7.972,-26.716 -0.21,-7.032 1.772,-16.308 11.514,-22.214 -1.476,-7.594 3.544,-17.997 9.744,-18.56 -1.477,-7.312 -0.36,-16.337 8.2,-20.556 a 10.553,10.553 0 0 1 -2.895,-7.89 c -15.019,3.093 -20.888,11.847 -25.677,20.01 -0.59,-3.375 -1.477,-7.874 -3.544,-11.25 0,8.717 -6.79,11.812 -7.084,23.904 -5.02,-5.062 -6.79,-13.218 -6.497,-18.842 0.236,-4.501 -7.675,-8.716 -5.314,-16.59 11.81,10.405 35.726,-12.374 56.393,-5.062 -20.373,-40.776 -35.134,-21.093 -45.469,-14.06 -10.334,7.03 -17.715,-3.375 -16.532,-10.125 -13.878,-3.093 -30.412,-2.531 -48.421,0.844 13.285,-16.593 44.581,-23.903 67.61,-22.217 10.038,-17.715 22.145,-15.184 33.954,-13.498 7.72,1.105 16.738,1.129 25.686,0.7 5.61,-14.905 38.382,-16.446 41.63,-28.258 2.954,2.249 1.16,10.712 -1.793,18.022 8.536,-2.434 15.866,-5.033 18.326,-10.147 1.477,4.78 -0.884,17.715 -4.134,21.652 a 34.287,34.287 0 0 1 10.335,-1.125 c -10.335,5.624 -23.323,14.06 -25.39,15.467 -2.067,1.406 -3.25,4.217 2.067,7.03 -5.907,1.125 -22.44,6.75 -29.23,2.251"
         id="path7" />
      <path
         fill="#c8102e"
         d="m 86.345,167.95 c 7.823,-5.344 18.52,-1.394 20.815,6.467 1.476,5.062 -7.492,8.82 -8.268,4.079 -1.032,-6.327 -5.314,-10.264 -12.547,-10.546 z m 30.682,-16.349 c 9.105,-2.983 18.163,3.721 17.995,11.88 -0.11,5.251 -9.833,6.402 -9.147,1.65 0.914,-6.345 -2.002,-11.285 -8.848,-13.53 z m 33.86,14.396 c 8.684,3.956 10.203,14.787 4.074,20.49 -3.946,3.67 -11.723,-2.006 -7.733,-4.938 5.323,-3.908 6.883,-9.38 3.66,-15.552 z M 81.733,279.659 c 7.577,5.654 18.442,2.143 21.085,-5.62 1.7,-4.997 -7.094,-9.115 -8.078,-4.408 -1.314,6.278 -5.768,10.039 -13.007,10.028 z m 53.326,113.719 c 3.173,-8.657 14.31,-11.289 20.934,-6.115 4.263,3.333 -0.803,11.32 -4.3,7.866 -4.668,-4.61 -10.548,-5.485 -16.634,-1.75 z m -9.962,23.284 c 0.528,-9.155 13.41,-14.909 21.281,-11.688 5.07,2.075 2.528,11.088 -1.84,8.692 -5.825,-3.194 -14.68,-2.2 -19.441,2.996 z m 14,21.604 c -3.303,-8.613 3.56,-17.37 12.128,-17.362 5.516,0.004 6.909,9.24 1.905,8.679 -6.675,-0.75 -11.806,2.123 -14.033,8.683 z m 138.863,-7.689 c 1.14,-9.105 -7.652,-16.126 -15.989,-14.248 -5.367,1.21 -4.497,10.505 0.236,8.864 6.319,-2.189 12.005,-0.516 15.752,5.384 z m 53.267,2.907 c -1.976,-8.974 6.132,-16.705 14.61,-15.532 5.46,0.754 5.452,10.085 0.583,8.849 -6.495,-1.652 -12.003,0.49 -15.193,6.683 z m 132.829,-2.193 c 0.738,-9.144 -8.355,-15.808 -16.602,-13.597 -5.31,1.424 -4.032,10.676 0.627,8.848 6.217,-2.44 11.97,-0.996 15.975,4.749 z M 315.457,414.442 c -1.412,-9.069 8.035,-16.875 16.425,-15.224 5.403,1.065 3.942,10.926 -0.842,9.415 -6.38,-2.017 -12.015,-0.19 -15.583,5.809 z m 12.366,-26.092 c 0.528,-9.155 11.431,-14.993 19.302,-11.77 5.067,2.075 1.554,11.457 -2.811,9.061 -5.826,-3.197 -11.73,-2.484 -16.491,2.709 z m 203.286,49.914 c -1.977,-8.975 6.13,-16.706 14.609,-15.533 5.46,0.756 5.453,10.088 0.583,8.85 -6.495,-1.65 -12.003,0.492 -15.192,6.683 z M 663.04,433.97 c 2.043,-8.962 -6.01,-16.748 -14.496,-15.63 -5.463,0.718 -5.525,10.05 -0.648,8.844 6.508,-1.607 12.002,0.571 15.143,6.785 z M 514.116,417.465 c -1.391,-9.072 7.205,-16.311 15.59,-14.64 5.4,1.076 4.784,10.39 0.007,8.866 -6.376,-2.03 -12.014,-0.216 -15.597,5.774 z m 4.914,-24.761 c 0.178,-9.169 9.896,-14.977 17.884,-12.028 5.142,1.899 2.946,10.992 -1.51,8.75 -5.943,-2.994 -11.815,-2.077 -16.375,3.278 z"
         id="path8" />
      <path
         fill="none"
         d="m 552.242,93.289 c -22.439,7.312 -109.241,39.931 -125.183,44.993 -15.942,5.062 -24.21,6.188 -33.658,26.996"
         id="path9" />
      <path
         fill="none"
         d="m 510.318,69.103 c -56.686,34.87 -102.745,65.242 -115.736,93.926 -12.991,28.683 -12.105,46.118 -43.698,51.18 m -90.934,53.993 c 14.172,-15.748 43.696,-34.87 72.04,-35.994 a 169.521,169.521 0 0 0 -14.173,26.996"
         id="path10" />
      <path
         fill="none"
         d="m 317.227,269.889 c 7.087,-9 24.8,-28.12 36.02,-35.995 -5.314,15.187 -14.171,51.18 -9.447,75.926 2.95,-23.62 15.942,-60.177 29.523,-80.988 10.04,23.06 23.62,55.68 23.62,76.491 2.953,-24.747 -2.951,-67.492 -11.809,-86.051 24.21,11.81 54.326,45.555 67.317,66.366 -8.857,-29.247 -38.973,-64.68 -54.918,-75.93 39.564,6.75 96.843,30.936 118.099,48.934 -34.838,-30.934 -77.355,-55.119 -107.469,-66.368 47.239,-3.935 135.814,6.188 161.204,15.749 -37.2,-20.249 -113.965,-30.934 -160.023,-28.121 48.42,-19.686 134.633,-42.182 204.31,-51.743 -53.144,2.81 -121.642,16.31 -191.91,31.495 31.297,-20.248 128.137,-58.491 151.167,-65.241 M 274.122,79.79 c 4.217,-13.272 21.423,-16.795 35.407,-20.785 m -12.084,30.629 c -11.808,-0.845 -13.907,-4.842 -7.38,-9.281 4.133,-2.813 12.694,-7.313 18.601,-7.875 -1.477,-0.28 -5.61,-1.406 -7.677,-1.686 6.2,-2.53 16.534,-6.188 20.076,-9.563"
         id="path11" />
      <path
         fill="none"
         d="m 283.716,68.261 c -4.518,0.39 -9.26,0.75 -14.024,0.979 m -16.532,65.105 c -2.881,0.143 -5.747,0.505 -8.573,1.082 m -39.448,142.288 a 32.454,32.454 0 0 0 8.16,21.982 c 4.725,5.062 33.66,6.75 34.84,-2.812 m -38.677,-31.214 c 10.038,10.686 42.515,4.218 42.515,-3.655 m -41.924,-30.653 c 3.543,8.437 41.334,16.03 41.924,6.186 m -33.953,-32.902 c 0.296,9.843 34.712,16.236 35.726,9 m -24.212,-31.214 c 1.477,7.592 24.212,14.905 27.46,11.53 m -17.716,-30.09 c 1.076,5.333 17.42,10.123 23.03,8.155 m -14.83,-28.711 c 3.35,3.873 9.849,7.477 21.03,9.307 m -77.649,-49.212 c 0.294,-5.906 6.198,-6.749 5.314,-12.654 m 56.687,36.839 c 2.066,3.092 7.38,9.56 7.97,14.342 2.954,-2.25 5.315,-7.032 6.201,-9.28 a 18.425,18.425 0 0 1 5.904,8.998 c 1.183,-3.375 3.25,-9.28 3.544,-12.936 a 27.39,27.39 0 0 1 11.514,5.623 c 0.59,-3.655 -1.18,-8.436 -4.133,-10.405 3.263,0.136 6.51,-0.54 9.447,-1.968 -2.066,-2.811 -5.314,-6.468 -8.561,-8.155 2.954,-0.844 7.085,-4.216 8.858,-5.623 -2.658,-1.124 -7.381,-3.657 -10.335,-5.062 1.771,-1.688 3.248,-5.06 4.134,-7.594 M 203.852,81.9 c -1.919,0 -2.805,4.217 0.738,6.89 2.549,1.922 2.51,9.842 -2.066,11.81"
         id="path12" />
      <path
         fill="none"
         d="m 272.94,141.657 c -12.99,28.682 -24.948,83.097 -20.815,122.467 m 14.024,53.853 c 0,5.906 9.744,7.03 9.447,-7.03"
         id="path13" />
      <path
         fill="none"
         d="m 274.712,317.977 c 1.18,5.061 11.219,6.186 9.152,-8.719"
         id="path14" />
      <path
         fill="none"
         d="m 270.579,321.914 c 0.59,10.967 7.97,10.405 8.56,0 m 5.021,-7.594 c 2.951,6.75 11.218,3.374 8.858,-11.53"
         id="path15" />
      <path
         fill="none"
         d="m 293.312,309.258 c 3.249,5.626 10.924,1.127 11.81,-8.716 M 254.93,278.045 c -5.066,5.284 -10.878,17.147 -3.84,28.402 4.137,6.607 15.503,10.265 16.683,6.327 m -16.683,-6.327 c -4.575,0.704 -11.306,10.046 -7.97,18.98 2.363,6.328 15.944,10.126 18.01,5.486 M 389.858,314.32 c 14.762,1.688 34.25,-7.873 35.43,-26.996"
         id="path16" />
      <path
         fill="none"
         d="m 423.515,296.323 c 8.268,5.061 25.393,6.75 32.477,-6.187 m -24.799,10.124 c -7.678,16.872 -14.633,34.8 1.18,47.806 12.99,10.687 22.64,-5.245 38.383,10.687 4.724,4.78 -0.886,13.778 -48.421,39.932 M 194.995,278.748 c 3.1,6.327 2.805,18.701 -3.1,17.012 m -43.549,122.89 c 10.038,-14.622 21.89,-2.806 30.41,-5.343"
         id="path17" />
      <path
         fill="#ffffff"
         d="m 226.735,84.429 c -1.772,4.078 2.942,9.783 7.381,10.266 5.166,0.562 12.547,-2.672 10.925,-7.874"
         id="path18" />
      <path
         fill="none"
         d="m 221.567,84.852 c 2.657,-3.516 33.66,7.592 46.059,-0.282 M 121.183,189.745 c -1.18,2.529 -0.738,9.982 3.84,14.06 M 340.256,416.4 c 2.363,-2.81 11.105,-5.65 17.567,-4.076 6.349,1.545 17.715,-0.562 25.096,-3.376"
         id="path19" />
      <g
         fill="none"
         id="g21">
        <path
           d="m 272.94,141.657 c -2.952,27.558 3.691,69.882 20.668,88.723 m -29.584,-64.256 c 0.486,24.523 6.79,53.637 19.254,69.664 M 257.2,192.849 c 2.454,18.557 7.979,37.218 16.709,49.338 m -20.988,-21.171 c 2.95,11.013 7.101,21.12 12.492,28.722 m -14.013,-2.07 a 66.724,66.724 0 0 0 5.882,10.136"
           id="path20" />
        <path
           d="m 272.35,158.81 c -0.885,8.718 -6.495,15.466 -11.516,19.404 m 12.106,-7.31 c -0.885,8.716 -7.085,16.59 -15.205,20.386 m 16.977,-8.295 c -0.886,8.717 -9.744,19.403 -19.782,24.183 m 22.143,-12.092 c -0.884,8.72 -12.399,21.935 -24.122,26.177 m 27.814,-14.085 c -3.396,11.812 -16.977,25.592 -28.934,28.685 m 34.248,-16.591 c -0.887,8.716 -19.044,26.433 -34.692,31.495"
           id="path21" />
      </g>
      <path
         fill="none"
         d="m 177.724,272.984 c 1.918,8.013 -4.43,15.325 -7.677,13.356"
         id="path22" />
      <path
         fill="none"
         d="m 211.53,300.824 c -30.707,-6.188 -53.537,-16.496 -66.135,-40.496 -3.25,-6.186 5.314,-7.874 4.724,-13.498 m -9.154,-33.464 c -5.314,-8.999 -6.496,-18.842 -3.543,-25.027"
         id="path23" />
      <path
         fill="none"
         d="m 162.224,263.42 c 0,5.064 -6.349,11.53 -8.564,9.14 m 59.64,27.137 c -3.54,8.188 3.305,23.822 18.323,29.199 m 11.497,-3.468 a 9.532,9.532 0 0 0 -3.648,5.187 m 15.755,11.545 c -2.66,4.22 -12.992,1.126 -15.058,-2.531 M 213.67,388.28 c -12.52,11.723 -25.272,12.384 -40.522,14.06 -15.354,1.688 -19.634,-4.92 -25.096,0.562 M 313.683,300.26 c 1.774,7.874 1.181,15.748 -5.904,27.56 -3.911,6.516 -0.206,13.546 0.468,21.943 m 73.423,-26.727 c 6.767,-5.088 11.234,-13.48 13.502,-19.963 m -34.97,23.037 a 32.604,32.604 0 0 0 3.083,-34.849 m -39.14,47.14 c 4.539,-6.675 7.254,-16.183 7.254,-28.58 m -98.908,46.681 c 1.181,5.765 10.335,8.296 11.811,5.485"
         id="path24" />
      <path
         fill="none"
         d="m 305.712,288.73 c 0,5.624 -5.904,9.843 -10.334,6.468 0.59,8.154 -5.608,10.687 -10.037,6.75 0.886,11.53 -9.152,12.654 -15.649,3.655 -7.38,34.588 -32.18,60.46 -33.953,77.333 -0.59,3.937 -16.387,2.813 -12.253,-8.716 m 189.401,-53.712 c -8.857,-1.054 -24.436,-3.646 -31.218,2.528 m 34.761,23.905 c -8.186,3.093 -14.8,4.18 -20.073,3.812 m 42.659,19.792 c 8.158,-0.305 16.573,-5.472 19.93,-18.26 m -35.734,11.781 a 24.442,24.442 0 0 0 15.951,-12.343"
         id="path25" />
      <path
         fill="none"
         d="m 463.373,373.375 c -5.14,-1.547 -15.99,-3.589 -24.357,-2.83 m -4.87,21.672 c 3.247,-1.689 -2.067,-9.281 -7.384,-9.281 m -54.619,21.934 a 130.567,130.567 0 0 0 21.552,-11.247 m 20.817,-2.813 c 4.008,1.274 9.89,6.186 7.823,7.875 M 452.45,285.637 c 4.725,7.875 13.58,12.936 25.39,7.875 0.832,2.372 3.64,4.806 7.134,6.75 m 32.725,-16.593 c 5.906,4.499 -4.428,21.09 -19.78,20.528"
         id="path26" />
      <path
         fill="none"
         d="m 600.367,385.187 c 2.049,4.68 9.745,4.217 12.698,0 3.372,-4.82 9.448,-19.686 5.904,-49.495 -3.543,-29.807 -33.657,-33.744 -68.497,-40.494 -34.84,-6.748 -43.698,-17.435 -50.782,-37.119"
         id="path27" />
      <path
         fill="none"
         d="m 606.274,369.72 c 2.951,4.78 11.218,3.655 12.399,-1.126 m -11.515,-14.903 c 4.43,2.531 12.991,1.687 12.695,-3.937 m -15.056,-13.78 c 3.838,0 14.172,0.562 13.582,-3.937 m -23.326,-7.592 c 3.248,-2.251 12.401,-11.812 7.381,-14.625 m -23.914,12.938 c 5.609,-3.095 11.81,-19.123 5.019,-20.53 m -31.887,17.435 c 8.858,-3.375 17.125,-20.81 11.22,-21.934 m -39.857,17.997 c 14.465,-3.655 18.896,-22.214 13.285,-23.903 m 6.495,107.142 c 15.067,1.148 23.325,8.718 29.23,11.811 M 539.253,246.267 c 13.727,-1.265 27.223,18.732 45.934,33.68 M 690.625,157.688 c 2.583,-8.713 4.748,-16.897 5.699,-21.655 M 551.33,415.785 a 64.602,64.602 0 0 1 10.656,-0.79 M 685.103,129.283 c -1.995,5.383 -6.284,16.34 -10.559,26.873 M 313.72,221.9 c -26.04,8.55 -53.006,24.97 -70.304,55.3 9.448,2.25 27.753,0 36.02,-2.812 0.59,7.312 0.59,16.873 0.59,23.061 8.268,-6.188 18.306,-15.187 25.983,-17.435 -0.593,7.31 -0.593,20.245 -0.593,25.31 11.22,-11.25 32.477,-12.374 38.384,4.496 4.723,-24.745 43.695,-25.87 53.143,-4.497 10.63,-19.685 37.793,-26.998 55.508,-19.685 7.675,-20.81 41.332,-32.058 63.18,-26.996 -7.241,-9.535 -5.947,-20.077 -0.013,-29.137"
         id="path28" />
    </g>
    <path
       stroke-linejoin="round"
       stroke-width="1.692"
       d="m 230.229,85.39 11.58,2.04 c 0,0 -8.15,10.404 -11.58,-2.04 z"
       id="path29" />
  </g>
</svg>
