<?xml version="1.0" encoding="UTF-8" standalone="no"?>
<!-- Created with Inkscape (http://www.inkscape.org/) -->

<svg
   version="1.1"
   id="svg1"
   width="992.24268"
   height="666.66669"
   viewBox="0 0 992.24268 666.66669"
   sodipodi:docname="gi.ai"
   xmlns:inkscape="http://www.inkscape.org/namespaces/inkscape"
   xmlns:sodipodi="http://sodipodi.sourceforge.net/DTD/sodipodi-0.dtd"
   xmlns="http://www.w3.org/2000/svg"
   xmlns:svg="http://www.w3.org/2000/svg">
  <defs
     id="defs1">
    <clipPath
       clipPathUnits="userSpaceOnUse"
       id="clipPath11">
      <path
         d="M 0,500 H 744.182 V 0 H 0 Z"
         transform="translate(-398.00261,-206.97071)"
         id="path11" />
    </clipPath>
    <clipPath
       clipPathUnits="userSpaceOnUse"
       id="clipPath13">
      <path
         d="M 0,500 H 744.182 V 0 H 0 Z"
         transform="translate(-372.81411,-192.59471)"
         id="path13" />
    </clipPath>
    <clipPath
       clipPathUnits="userSpaceOnUse"
       id="clipPath15">
      <path
         d="M 0,500 H 744.182 V 0 H 0 Z"
         transform="translate(-377.53391,-195.92681)"
         id="path15" />
    </clipPath>
    <clipPath
       clipPathUnits="userSpaceOnUse"
       id="clipPath17">
      <path
         d="M 0,500 H 744.182 V 0 H 0 Z"
         transform="translate(-382.25361,-198.8672)"
         id="path17" />
    </clipPath>
    <clipPath
       clipPathUnits="userSpaceOnUse"
       id="clipPath19">
      <path
         d="M 0,500 H 744.182 V 0 H 0 Z"
         transform="translate(-386.97331,-201.77051)"
         id="path19" />
    </clipPath>
    <clipPath
       clipPathUnits="userSpaceOnUse"
       id="clipPath21">
      <path
         d="M 0,500 H 744.182 V 0 H 0 Z"
         transform="translate(-291.5065,-184.5332)"
         id="path21" />
    </clipPath>
    <clipPath
       clipPathUnits="userSpaceOnUse"
       id="clipPath23">
      <path
         d="M 0,500 H 744.182 V 0 H 0 Z"
         transform="translate(-281.15061,-248.8398)"
         id="path23" />
    </clipPath>
    <clipPath
       clipPathUnits="userSpaceOnUse"
       id="clipPath25">
      <path
         d="M 0,500 H 744.182 V 0 H 0 Z"
         id="path25" />
    </clipPath>
    <clipPath
       clipPathUnits="userSpaceOnUse"
       id="clipPath27">
      <path
         d="M 0,500 H 744.182 V 0 H 0 Z"
         id="path27" />
    </clipPath>
    <clipPath
       clipPathUnits="userSpaceOnUse"
       id="clipPath29">
      <path
         d="M 0,500 H 744.182 V 0 H 0 Z"
         transform="translate(-256.24821,-406.98241)"
         id="path29" />
    </clipPath>
    <clipPath
       clipPathUnits="userSpaceOnUse"
       id="clipPath31">
      <path
         d="M 0,500 H 744.182 V 0 H 0 Z"
         id="path31" />
    </clipPath>
    <clipPath
       clipPathUnits="userSpaceOnUse"
       id="clipPath33">
      <path
         d="M 0,500 H 744.182 V 0 H 0 Z"
         id="path33" />
    </clipPath>
    <clipPath
       clipPathUnits="userSpaceOnUse"
       id="clipPath35">
      <path
         d="M 0,500 H 744.182 V 0 H 0 Z"
         transform="translate(-324.36351,-437.56101)"
         id="path35" />
    </clipPath>
    <clipPath
       clipPathUnits="userSpaceOnUse"
       id="clipPath37">
      <path
         d="M 0,500 H 744.182 V 0 H 0 Z"
         transform="translate(-316.85611,-451.96531)"
         id="path37" />
    </clipPath>
    <clipPath
       clipPathUnits="userSpaceOnUse"
       id="clipPath39">
      <path
         d="M 0,500 H 744.182 V 0 H 0 Z"
         id="path39" />
    </clipPath>
    <clipPath
       clipPathUnits="userSpaceOnUse"
       id="clipPath41">
      <path
         d="M 0,500 H 744.182 V 0 H 0 Z"
         transform="translate(-244.6516,-434.20411)"
         id="path41" />
    </clipPath>
    <clipPath
       clipPathUnits="userSpaceOnUse"
       id="clipPath43">
      <path
         d="M 0,500 H 744.182 V 0 H 0 Z"
         id="path43" />
    </clipPath>
    <clipPath
       clipPathUnits="userSpaceOnUse"
       id="clipPath45">
      <path
         d="M 0,500 H 744.182 V 0 H 0 Z"
         transform="translate(-335.56321,-141.8457)"
         id="path45" />
    </clipPath>
    <clipPath
       clipPathUnits="userSpaceOnUse"
       id="clipPath47">
      <path
         d="M 0,500 H 744.182 V 0 H 0 Z"
         transform="translate(-330.80241,-206.72661)"
         id="path47" />
    </clipPath>
    <clipPath
       clipPathUnits="userSpaceOnUse"
       id="clipPath49">
      <path
         d="M 0,500 H 744.182 V 0 H 0 Z"
         transform="translate(-360.41031,-191.3379)"
         id="path49" />
    </clipPath>
    <clipPath
       clipPathUnits="userSpaceOnUse"
       id="clipPath51">
      <path
         d="M 0,500 H 744.182 V 0 H 0 Z"
         transform="translate(-365.84441,-188.00981)"
         id="path51" />
    </clipPath>
    <clipPath
       clipPathUnits="userSpaceOnUse"
       id="clipPath53">
      <path
         d="M 0,500 H 744.182 V 0 H 0 Z"
         transform="translate(-371.65011,-183.57131)"
         id="path53" />
    </clipPath>
    <clipPath
       clipPathUnits="userSpaceOnUse"
       id="clipPath55">
      <path
         d="M 0,500 H 744.182 V 0 H 0 Z"
         transform="translate(-373.42941,-171.52151)"
         id="path55" />
    </clipPath>
    <clipPath
       clipPathUnits="userSpaceOnUse"
       id="clipPath57">
      <path
         d="M 0,500 H 744.182 V 0 H 0 Z"
         transform="translate(-375.01631,-176.8965)"
         id="path57" />
    </clipPath>
    <clipPath
       clipPathUnits="userSpaceOnUse"
       id="clipPath59">
      <path
         d="M 0,500 H 744.182 V 0 H 0 Z"
         transform="translate(-367.47141,-168.4287)"
         id="path59" />
    </clipPath>
    <clipPath
       clipPathUnits="userSpaceOnUse"
       id="clipPath61">
      <path
         d="M 0,500 H 744.182 V 0 H 0 Z"
         transform="translate(-365.32881,-174.3057)"
         id="path61" />
    </clipPath>
    <clipPath
       clipPathUnits="userSpaceOnUse"
       id="clipPath63">
      <path
         d="M 0,500 H 744.182 V 0 H 0 Z"
         transform="translate(-342.10371,-201.2949)"
         id="path63" />
    </clipPath>
    <clipPath
       clipPathUnits="userSpaceOnUse"
       id="clipPath65">
      <path
         d="M 0,500 H 744.182 V 0 H 0 Z"
         transform="translate(-354.38251,-194.8359)"
         id="path65" />
    </clipPath>
    <clipPath
       clipPathUnits="userSpaceOnUse"
       id="clipPath67">
      <path
         d="M 0,500 H 744.182 V 0 H 0 Z"
         transform="translate(-348.24291,-198.0605)"
         id="path67" />
    </clipPath>
    <clipPath
       clipPathUnits="userSpaceOnUse"
       id="clipPath69">
      <path
         d="M 0,500 H 744.182 V 0 H 0 Z"
         transform="translate(-374.22921,-171.5088)"
         id="path69" />
    </clipPath>
    <clipPath
       clipPathUnits="userSpaceOnUse"
       id="clipPath71">
      <path
         d="M 0,500 H 744.182 V 0 H 0 Z"
         transform="translate(-374.22921,-171.5088)"
         id="path71" />
    </clipPath>
    <clipPath
       clipPathUnits="userSpaceOnUse"
       id="clipPath73">
      <path
         d="M 0,500 H 744.182 V 0 H 0 Z"
         transform="translate(-447.28781,-248.8398)"
         id="path73" />
    </clipPath>
    <clipPath
       clipPathUnits="userSpaceOnUse"
       id="clipPath75">
      <path
         d="M 0,500 H 744.182 V 0 H 0 Z"
         transform="translate(-299.278,-308.89891)"
         id="path75" />
    </clipPath>
    <clipPath
       clipPathUnits="userSpaceOnUse"
       id="clipPath77">
      <path
         d="M 0,500 H 744.182 V 0 H 0 Z"
         id="path77" />
    </clipPath>
    <clipPath
       clipPathUnits="userSpaceOnUse"
       id="clipPath79">
      <path
         d="M 0,500 H 744.182 V 0 H 0 Z"
         id="path79" />
    </clipPath>
    <clipPath
       clipPathUnits="userSpaceOnUse"
       id="clipPath81">
      <path
         d="M 0,500 H 744.182 V 0 H 0 Z"
         transform="translate(-472.19011,-406.98241)"
         id="path81" />
    </clipPath>
    <clipPath
       clipPathUnits="userSpaceOnUse"
       id="clipPath83">
      <path
         d="M 0,500 H 744.182 V 0 H 0 Z"
         transform="translate(-293.968,-338.07371)"
         id="path83" />
    </clipPath>
    <clipPath
       clipPathUnits="userSpaceOnUse"
       id="clipPath85">
      <path
         d="M 0,500 H 744.182 V 0 H 0 Z"
         id="path85" />
    </clipPath>
    <clipPath
       clipPathUnits="userSpaceOnUse"
       id="clipPath87">
      <path
         d="M 0,500 H 744.182 V 0 H 0 Z"
         transform="translate(-483.78781,-434.20411)"
         id="path87" />
    </clipPath>
    <clipPath
       clipPathUnits="userSpaceOnUse"
       id="clipPath89">
      <path
         d="M 0,500 H 744.182 V 0 H 0 Z"
         id="path89" />
    </clipPath>
    <clipPath
       clipPathUnits="userSpaceOnUse"
       id="clipPath91">
      <path
         d="M 0,500 H 744.182 V 0 H 0 Z"
         transform="translate(-310.87471,-299.9268)"
         id="path91" />
    </clipPath>
  </defs>
  <sodipodi:namedview
     id="namedview1"
     pagecolor="#ffffff"
     bordercolor="#000000"
     borderopacity="0.25"
     inkscape:showpageshadow="2"
     inkscape:pageopacity="0.0"
     inkscape:pagecheckerboard="0"
     inkscape:deskcolor="#d1d1d1">
    <inkscape:page
       x="0"
       y="0"
       inkscape:label="1"
       id="page1"
       width="992.24268"
       height="666.66669"
       margin="0"
       bleed="0" />
  </sodipodi:namedview>
  <g
     id="layer-MC0"
     inkscape:groupmode="layer"
     inkscape:label="Layer 1">
    <path
       id="path1"
       d="M 0,0 H 744.182 V 500 H 0 Z"
       style="fill:#ffffff;fill-opacity:1;fill-rule:nonzero;stroke:none"
       transform="matrix(1.3333333,0,0,-1.3333333,0,666.66667)" />
    <path
       id="path2"
       d="M 0,0 H 744.182 V 165.039 H 0 Z"
       style="fill:#da000c;fill-opacity:1;fill-rule:nonzero;stroke:none"
       transform="matrix(1.3333333,0,0,-1.3333333,0,666.66667)" />
    <path
       id="path3"
       d="M 0,0 V -15.747 H 33.752 V 0 H 23.193 V -7.873 H 9.827 L 9.827,0 Z M 0,21.606 V 5.92 h 9.827 v 7.874 H 23.193 V 5.92 h 10.559 v 15.686 z"
       style="fill:#f8d80e;fill-opacity:1;fill-rule:nonzero;stroke:#000000;stroke-width:1;stroke-linecap:butt;stroke-linejoin:miter;stroke-miterlimit:4;stroke-dasharray:none;stroke-opacity:1"
       transform="matrix(1.3333333,0,0,-1.3333333,432.97293,621.41933)" />
    <path
       id="path4"
       d="M 248.147,272.845 H 480.292 V 186.922 H 248.147 Z"
       style="fill:#000000;fill-opacity:1;fill-rule:nonzero;stroke:none"
       transform="matrix(1.3333333,0,0,-1.3333333,0,666.66667)" />
    <path
       id="path5"
       d="M 0,0 H -76.307 L -93.221,-11.133 V -22.929 H 0"
       style="fill:#da000c;fill-opacity:1;fill-rule:nonzero;stroke:#000000;stroke-width:1;stroke-linecap:square;stroke-linejoin:miter;stroke-miterlimit:4;stroke-dasharray:none;stroke-opacity:1"
       transform="matrix(1.3333333,0,0,-1.3333333,417.44627,400.6888)" />
    <path
       id="path6"
       d="M 0,0 H 76.307 L 93.221,-11.133 V -22.929 H 0"
       style="fill:#da000c;fill-opacity:1;fill-rule:nonzero;stroke:#000000;stroke-width:1;stroke-linecap:square;stroke-linejoin:miter;stroke-miterlimit:4;stroke-dasharray:none;stroke-opacity:1"
       transform="matrix(1.3333333,0,0,-1.3333333,553.8056,400.6888)" />
    <path
       id="path7"
       d="M 0,0 H 288.711 Z"
       style="fill:#000000;fill-opacity:1;fill-rule:nonzero;stroke:none"
       transform="matrix(1.3333333,0,0,-1.3333333,293.1516,415.53307)" />
    <path
       id="path8"
       d="M 0,0 H 288.711"
       style="fill:none;stroke:#000000;stroke-width:1;stroke-linecap:square;stroke-linejoin:miter;stroke-miterlimit:4;stroke-dasharray:none;stroke-opacity:1"
       transform="matrix(1.3333333,0,0,-1.3333333,293.152,415.53253)" />
    <path
       id="path9"
       d="m 0,0 -19.104,-9.216 v -13.733 h 72.693 72.693 V -9.216 L 107.178,0 H 53.589 Z"
       style="fill:#da000c;fill-opacity:1;fill-rule:nonzero;stroke:#000000;stroke-width:1;stroke-linecap:butt;stroke-linejoin:miter;stroke-miterlimit:4;stroke-dasharray:none;stroke-opacity:1"
       transform="matrix(1.3333333,0,0,-1.3333333,414.17413,408.36587)" />
    <path
       id="path10"
       d="m 0,0 c -2.621,-0.772 -5.937,-2.448 -10.01,-4.7 -4.072,-2.252 -8.73,-5.086 -13.123,-7.995 -3.256,-2.158 -5.975,-4.312 -8.667,-6.409 -0.938,-0.732 -2.232,-1.497 -3.052,-2.198 -0.957,-0.819 -1.613,-1.601 -2.379,-2.38 -0.502,-0.509 -1.17,-1.024 -1.587,-1.526 -1.056,-1.27 -2.076,-2.374 -2.076,-4.7 0,-0.422 0.012,-0.845 0.061,-1.281 1.514,1.814 3.687,3.076 6.104,3.357 0.011,-10e-4 0.053,-10e-4 0.061,0 0.061,-10e-4 0.182,0.001 0.244,0 h 0.061 c 0.238,0.019 0.428,0 0.672,0 0.243,0 0.432,0.019 0.67,0 0.367,-0.029 0.691,-0.116 1.039,-0.184 0.132,0.123 0.237,0.246 0.366,0.367 0.443,0.412 0.682,0.7 1.22,1.159 1.074,0.919 2.844,2.082 4.211,3.113 2.213,1.669 4.218,3.271 6.836,5.005 4.238,2.807 8.751,5.543 12.635,7.69 3.883,2.148 7.331,3.697 8.667,4.09 z"
       style="fill:#f8d80e;fill-opacity:1;fill-rule:nonzero;stroke:#000000;stroke-width:0.768;stroke-linecap:round;stroke-linejoin:miter;stroke-miterlimit:4;stroke-dasharray:none;stroke-opacity:1"
       transform="matrix(1.3333333,0,0,-1.3333333,530.67013,390.70573)"
       clip-path="url(#clipPath11)" />
    <path
       id="path12"
       d="M 0,0 V -7.64"
       style="fill:#000000;fill-opacity:1;fill-rule:nonzero;stroke:#000000;stroke-width:1;stroke-linecap:round;stroke-linejoin:miter;stroke-miterlimit:4;stroke-dasharray:none;stroke-opacity:1"
       transform="matrix(1.3333333,0,0,-1.3333333,497.08547,409.87373)"
       clip-path="url(#clipPath13)" />
    <path
       id="path14"
       d="M 0,0 V -7.583"
       style="fill:#000000;fill-opacity:1;fill-rule:nonzero;stroke:#000000;stroke-width:1;stroke-linecap:round;stroke-linejoin:miter;stroke-miterlimit:4;stroke-dasharray:none;stroke-opacity:1"
       transform="matrix(1.3333333,0,0,-1.3333333,503.37853,405.43093)"
       clip-path="url(#clipPath15)" />
    <path
       id="path16"
       d="M 0,0 V -7.535"
       style="fill:#000000;fill-opacity:1;fill-rule:nonzero;stroke:#000000;stroke-width:1;stroke-linecap:round;stroke-linejoin:miter;stroke-miterlimit:4;stroke-dasharray:none;stroke-opacity:1"
       transform="matrix(1.3333333,0,0,-1.3333333,509.67147,401.5104)"
       clip-path="url(#clipPath17)" />
    <path
       id="path18"
       d="M 0,0 V -7.776"
       style="fill:#000000;fill-opacity:1;fill-rule:nonzero;stroke:#000000;stroke-width:1;stroke-linecap:round;stroke-linejoin:miter;stroke-miterlimit:4;stroke-dasharray:none;stroke-opacity:1"
       transform="matrix(1.3333333,0,0,-1.3333333,515.9644,397.63933)"
       clip-path="url(#clipPath19)" />
    <path
       id="path20"
       d="M 0,0 H 145.426"
       style="fill:#000000;fill-opacity:1;fill-rule:nonzero;stroke:#000000;stroke-width:1;stroke-linecap:butt;stroke-linejoin:miter;stroke-miterlimit:4;stroke-dasharray:none;stroke-opacity:1"
       transform="matrix(1.3333333,0,0,-1.3333333,388.67533,420.6224)"
       clip-path="url(#clipPath21)" />
    <path
       id="path22"
       d="m 0,0 c 10.986,0 19.958,-9.158 19.958,-20.446 v -28.87 H 34.302 V 60.059 H -44.373 V -49.316 h 24.415 v 28.87 C -19.958,-9.6 -11.14,0 0,0"
       style="fill:#da000c;fill-opacity:1;fill-rule:nonzero;stroke:#000000;stroke-width:1;stroke-linecap:square;stroke-linejoin:miter;stroke-miterlimit:4;stroke-dasharray:none;stroke-opacity:1"
       transform="matrix(1.3333333,0,0,-1.3333333,374.86747,334.88027)"
       clip-path="url(#clipPath23)" />
    <path
       id="path24"
       d="m 263.689,382.887 h 36.178 V 316.56 h -36.178 z"
       style="fill:#000000;fill-opacity:1;fill-rule:nonzero;stroke:none"
       transform="matrix(1.3333333,0,0,-1.3333333,0,666.66667)"
       clip-path="url(#clipPath25)" />
    <path
       id="path26"
       d="m 229.149,317.762 h 68.302 v -8.863 h -68.302 z m 70.617,9.081 h -31.658 v 11.231 h -23.212 v -11.231 h -15.747 v 11.231 h -9.4 v -20.386 h 80.017"
       style="fill:#da000c;fill-opacity:1;fill-rule:nonzero;stroke:#000000;stroke-width:1;stroke-linecap:butt;stroke-linejoin:miter;stroke-miterlimit:4;stroke-dasharray:none;stroke-opacity:1"
       transform="matrix(1.3333333,0,0,-1.3333333,0,666.66667)"
       clip-path="url(#clipPath27)" />
    <path
       id="path28"
       d="m 0,0 v -68.909 h 11.86 v 18.921 c 0,7.089 5.004,12.889 12.005,13.245 0.225,0.011 0.443,0 0.671,0 7.318,0 13.245,-5.927 13.245,-13.245 V -68.909 H 49.072 V 0 Z"
       style="fill:#da000c;fill-opacity:1;fill-rule:nonzero;stroke:#000000;stroke-width:1;stroke-linecap:butt;stroke-linejoin:miter;stroke-miterlimit:4;stroke-dasharray:none;stroke-opacity:1"
       transform="matrix(1.3333333,0,0,-1.3333333,341.66427,124.02347)"
       clip-path="url(#clipPath29)" />
    <path
       id="path30"
       d="M 334.538,425.095 H 391.82 V 321.082 h -57.282 z"
       style="fill:#000000;fill-opacity:1;fill-rule:nonzero;stroke:none"
       transform="matrix(1.3333333,0,0,-1.3333333,0,666.66667)"
       clip-path="url(#clipPath31)" />
    <path
       id="path32"
       d="m 377.464,409.424 h 5.677 v -21.79 h -5.677 z m -32.165,0 h 5.676 v -21.79 h -5.676 z m 16.113,5.859 h 2.807 2.808 v -29.785 h -2.808 -2.807 z m -30.884,9.766 v -87.036 h 18.188 v 25.818 c 0,5.955 3.814,14.221 15.503,14.221 11.69,0 15.503,-8.266 15.503,-14.221 v -25.818 h 18.189 v 87.036 h -33.692 z"
       style="fill:#da000c;fill-opacity:1;fill-rule:nonzero;stroke:#000000;stroke-width:1;stroke-linecap:butt;stroke-linejoin:miter;stroke-miterlimit:4;stroke-dasharray:none;stroke-opacity:1"
       transform="matrix(1.3333333,0,0,-1.3333333,0,666.66667)"
       clip-path="url(#clipPath33)" />
    <path
       id="path34"
       d="M 0,0 V -12.39 H 39.856 79.711 V 0 H 39.856 Z"
       style="fill:#da000c;fill-opacity:1;fill-rule:nonzero;stroke:#000000;stroke-width:1;stroke-linecap:square;stroke-linejoin:miter;stroke-miterlimit:4;stroke-dasharray:none;stroke-opacity:1"
       transform="matrix(1.3333333,0,0,-1.3333333,432.48467,83.252)"
       clip-path="url(#clipPath35)" />
    <path
       id="path36"
       d="M 0,0 V -14.404 H 47.363 94.727 V 0 H 82.824 V -7.935 H 69.396 V 0 H 54.077 V -7.935 H 47.363 40.649 V 0 H 25.33 V -7.935 H 11.902 V 0 Z"
       style="fill:#da000c;fill-opacity:1;fill-rule:nonzero;stroke:#000000;stroke-width:1;stroke-linecap:square;stroke-linejoin:miter;stroke-miterlimit:4;stroke-dasharray:none;stroke-opacity:1"
       transform="matrix(1.3333333,0,0,-1.3333333,422.4748,64.046267)"
       clip-path="url(#clipPath37)" />
    <path
       id="path38"
       d="m 251.976,406.982 h 57.129 v 9.338 h -57.129 z"
       style="fill:#da000c;fill-opacity:1;fill-rule:nonzero;stroke:#000000;stroke-width:1;stroke-linecap:square;stroke-linejoin:miter;stroke-miterlimit:4;stroke-dasharray:none;stroke-opacity:1"
       transform="matrix(1.3333333,0,0,-1.3333333,0,666.66667)"
       clip-path="url(#clipPath39)" />
    <path
       id="path40"
       d="M 0,0 V -17.883 H 68.542 V 0 H 57.983 V -9.094 H 45.227 V 0 H 25.757 V -9.094 H 13 V 0 Z"
       style="fill:#da000c;fill-opacity:1;fill-rule:nonzero;stroke:#000000;stroke-width:1;stroke-linecap:square;stroke-linejoin:miter;stroke-miterlimit:4;stroke-dasharray:none;stroke-opacity:1"
       transform="matrix(1.3333333,0,0,-1.3333333,326.20213,87.727867)"
       clip-path="url(#clipPath41)" />
    <path
       id="path42"
       d="m 358.461,121.774 h 9.747 V 8.268 h -9.747 z"
       style="fill:#f8d80e;fill-opacity:1;fill-rule:nonzero;stroke:#000000;stroke-width:1;stroke-linecap:butt;stroke-linejoin:miter;stroke-miterlimit:4;stroke-dasharray:none;stroke-opacity:1"
       transform="matrix(1.3333333,0,0,-1.3333333,0,666.66667)"
       clip-path="url(#clipPath43)" />
    <path
       id="path44"
       d="M 0,0 H -5.432 V -8.667 H 0 L 27.771,-24.78 55.542,-8.667 h 5.433 V 0 L 55.542,0 27.771,16.113 Z M 27.771,7.752 48.523,-4.334 27.771,-16.357 7.02,-4.334 Z"
       style="fill:#f8d80e;fill-opacity:1;fill-rule:nonzero;stroke:#000000;stroke-width:1.024;stroke-linecap:butt;stroke-linejoin:miter;stroke-miterlimit:4;stroke-dasharray:none;stroke-opacity:1"
       transform="matrix(1.3333333,0,0,-1.3333333,447.4176,477.53907)"
       clip-path="url(#clipPath45)" />
    <path
       id="path46"
       d="m 0,0 -2.319,-6.471 c 7.501,-2.71 18.144,-7.98 26.673,-13.122 4.263,-2.571 7.995,-5.098 10.558,-7.202 1.282,-1.052 2.267,-2.028 2.808,-2.685 0.067,-0.082 0.145,-0.18 0.183,-0.245 0.007,-0.012 -0.006,-0.048 0,-0.06 0.043,-0.091 0.095,-0.186 0.122,-0.244 -0.049,-0.438 -0.128,-0.908 -0.244,-1.221 -0.01,-0.025 -0.051,-0.1 -0.061,-0.123 -0.005,-0.011 0.006,-0.051 0,-0.061 -0.006,-0.009 -0.055,-0.051 -0.061,-0.06 -0.041,-0.053 -0.079,-0.133 -0.122,-0.184 -0.009,-0.009 -0.052,-0.051 -0.061,-0.06 -0.01,-0.011 -0.051,-0.052 -0.061,-0.062 -0.022,-0.018 -0.097,-0.043 -0.122,-0.061 -0.042,-0.026 -0.132,-0.098 -0.184,-0.121 -0.278,-0.114 -0.734,-0.184 -1.464,-0.184 -0.433,0 -0.783,0.063 -1.038,0.122 -0.098,0.024 -0.227,0.03 -0.305,0.062 -0.025,0.009 -0.099,0.048 -0.122,0.06 -0.066,0.035 -0.131,0.083 -0.183,0.122 -0.017,0.017 -0.053,0.054 -0.061,0.062 -0.005,0.006 -0.056,0.052 -0.061,0.06 -0.016,0.027 -0.047,0.101 -0.062,0.122 h -0.06 c -0.006,0 -0.055,0.001 -0.062,0 h -0.06 -0.122 c -0.19,0 -0.365,0.019 -0.55,0 -2.241,-0.226 -4.14,-1.824 -4.761,-4.028 0.001,-0.005 0,-0.056 0,-0.061 0.008,-0.008 0.054,-0.053 0.062,-0.061 0.03,-0.028 0.091,-0.09 0.122,-0.122 1.567,-1.893 4.258,-3.174 7.263,-3.174 3.161,0 5.918,1.323 7.446,3.296 1.529,1.973 1.892,4.215 1.892,6.042 0,2.132 -0.957,3.369 -1.953,4.578 -0.996,1.209 -2.29,2.374 -3.784,3.602 -2.989,2.453 -6.904,5.069 -11.352,7.751 C 18.997,-8.369 8.205,-2.966 0,0"
       style="fill:#f8d80e;fill-opacity:1;fill-rule:nonzero;stroke:#000000;stroke-width:0.768;stroke-linecap:butt;stroke-linejoin:miter;stroke-miterlimit:4;stroke-dasharray:none;stroke-opacity:1"
       transform="matrix(1.3333333,0,0,-1.3333333,441.06987,391.0312)"
       clip-path="url(#clipPath47)" />
    <path
       id="path48"
       d="M 0,0 -0.61,-6.522"
       style="fill:#000000;fill-opacity:1;fill-rule:nonzero;stroke:#000000;stroke-width:1;stroke-linecap:round;stroke-linejoin:miter;stroke-miterlimit:4;stroke-dasharray:none;stroke-opacity:1"
       transform="matrix(1.3333333,0,0,-1.3333333,480.54707,411.54947)"
       clip-path="url(#clipPath49)" />
    <path
       id="path50"
       d="M 0,0 -1.684,-6.387"
       style="fill:#000000;fill-opacity:1;fill-rule:nonzero;stroke:#000000;stroke-width:1;stroke-linecap:round;stroke-linejoin:miter;stroke-miterlimit:4;stroke-dasharray:none;stroke-opacity:1"
       transform="matrix(1.3333333,0,0,-1.3333333,487.79253,415.98693)"
       clip-path="url(#clipPath51)" />
    <path
       id="path52"
       d="M 0,0 -3.533,-4.956"
       style="fill:#000000;fill-opacity:1;fill-rule:nonzero;stroke:#000000;stroke-width:1;stroke-linecap:round;stroke-linejoin:miter;stroke-miterlimit:4;stroke-dasharray:none;stroke-opacity:1"
       transform="matrix(1.3333333,0,0,-1.3333333,495.53347,421.90493)"
       clip-path="url(#clipPath53)" />
    <path
       id="path54"
       d="M 0,0 -5.099,2.735"
       style="fill:#000000;fill-opacity:1;fill-rule:nonzero;stroke:#000000;stroke-width:1;stroke-linecap:round;stroke-linejoin:miter;stroke-miterlimit:4;stroke-dasharray:none;stroke-opacity:1"
       transform="matrix(1.3333333,0,0,-1.3333333,497.90587,437.97133)"
       clip-path="url(#clipPath55)" />
    <path
       id="path56"
       d="M 0,0 -5.851,-0.548"
       style="fill:#000000;fill-opacity:1;fill-rule:nonzero;stroke:#000000;stroke-width:1;stroke-linecap:round;stroke-linejoin:miter;stroke-miterlimit:4;stroke-dasharray:none;stroke-opacity:1"
       transform="matrix(1.3333333,0,0,-1.3333333,500.02173,430.80467)"
       clip-path="url(#clipPath57)" />
    <path
       id="path58"
       d="M 0,0 -0.4,5.141"
       style="fill:#000000;fill-opacity:1;fill-rule:nonzero;stroke:#000000;stroke-width:1;stroke-linecap:round;stroke-linejoin:miter;stroke-miterlimit:4;stroke-dasharray:none;stroke-opacity:1"
       transform="matrix(1.3333333,0,0,-1.3333333,489.96187,442.09507)"
       clip-path="url(#clipPath59)" />
    <path
       id="path60"
       d="M 0,0 -4.83,-3.56"
       style="fill:#000000;fill-opacity:1;fill-rule:nonzero;stroke:#000000;stroke-width:1;stroke-linecap:round;stroke-linejoin:miter;stroke-miterlimit:4;stroke-dasharray:none;stroke-opacity:1"
       transform="matrix(1.3333333,0,0,-1.3333333,487.10507,434.25907)"
       clip-path="url(#clipPath61)" />
    <path
       id="path62"
       d="M 0,0 V -6.084"
       style="fill:#000000;fill-opacity:1;fill-rule:nonzero;stroke:#000000;stroke-width:1;stroke-linecap:round;stroke-linejoin:miter;stroke-miterlimit:4;stroke-dasharray:none;stroke-opacity:1"
       transform="matrix(1.3333333,0,0,-1.3333333,456.13827,398.27347)"
       clip-path="url(#clipPath63)" />
    <path
       id="path64"
       d="M 0,0 V -6.902"
       style="fill:#000000;fill-opacity:1;fill-rule:nonzero;stroke:#000000;stroke-width:1;stroke-linecap:round;stroke-linejoin:miter;stroke-miterlimit:4;stroke-dasharray:none;stroke-opacity:1"
       transform="matrix(1.3333333,0,0,-1.3333333,472.51,406.88547)"
       clip-path="url(#clipPath65)" />
    <path
       id="path66"
       d="M 0,0 V -6.482"
       style="fill:#000000;fill-opacity:1;fill-rule:nonzero;stroke:#000000;stroke-width:1;stroke-linecap:round;stroke-linejoin:miter;stroke-miterlimit:4;stroke-dasharray:none;stroke-opacity:1"
       transform="matrix(1.3333333,0,0,-1.3333333,464.32387,402.586)"
       clip-path="url(#clipPath67)" />
    <path
       id="path68"
       d="M 0,0 C -0.099,-0.147 -0.197,-0.341 -0.305,-0.488 -1.117,-1.536 -2.28,-2.41 -3.662,-2.991 v -14.77 L 0.244,-20.02 V -2.015 C 0.244,-1.33 0.194,-0.647 0.061,0 0.055,0.002 0.006,0 0,0 m -11.292,7.63 c -4.53,-0.696 -7.995,-4.819 -7.995,-9.645 V -23.56 c 0,-5.307 4.216,-9.705 9.399,-9.705 0.135,0 0.233,-0.005 0.367,0 0.133,-0.005 0.231,0 0.366,0 3.685,0 6.883,2.241 8.423,5.433 l -3.358,2.015 c -0.834,-2.071 -2.794,-3.48 -5.065,-3.48 -0.088,0 -0.173,0.001 -0.244,0 h -0.122 c -0.035,-0.003 -0.092,0 -0.123,0 -0.071,0.001 -0.156,0 -0.244,0 -3.029,0 -5.493,2.496 -5.493,5.737 v 21.545 c 0,3.242 2.464,5.677 5.493,5.677 0.086,0 0.172,-10e-4 0.244,0 0.031,-10e-4 0.089,0.003 0.123,0 h 0.122 c 0.072,-10e-4 0.158,0 0.244,0 0.851,0 1.66,-0.2 2.38,-0.55 0.005,0 0.057,10e-4 0.061,0 0.159,0.03 0.322,0.08 0.427,0.123 0.05,0.032 0.152,0.102 0.183,0.121 0.01,0.012 0.051,0.051 0.061,0.062 h 0.062 c 0.01,0.01 0.05,0.051 0.061,0.061 l 0.061,0.061 c 0.037,0.05 0.087,0.138 0.122,0.184 0,0.005 0.001,0.053 0,0.06 l 0.061,0.061 c 0.008,0.017 0.045,0.09 0.061,0.123 0.116,0.312 0.194,0.783 0.244,1.22 -0.027,0.059 -0.079,0.154 -0.122,0.245 v 0.06 c -0.041,0.064 -0.125,0.173 -0.183,0.244 -0.397,0.482 -1.078,1.103 -1.892,1.831 -0.006,-10e-4 -0.056,0 -0.061,0 -0.058,0.014 -0.186,0.049 -0.244,0.062 h -0.062 c -0.031,-0.001 -0.103,-0.001 -0.122,0 -0.011,-0.001 -0.053,-0.001 -0.06,0 -0.035,-0.001 -0.099,0 -0.123,0 -0.063,-0.003 -0.187,-0.005 -0.244,0 -0.239,0.018 -0.428,0 -0.671,0 -0.153,0 -0.232,-0.001 -0.366,0 -0.135,-0.001 -0.214,0 -0.367,0 -0.243,0 -0.433,0.018 -0.671,0 -0.057,-0.005 -0.181,-0.003 -0.244,0 -0.024,0 -0.088,-0.001 -0.122,0 -0.016,-0.001 -0.051,0.001 -0.061,0 -0.025,-0.001 -0.102,-0.002 -0.122,0 h -0.061 c -0.036,-0.006 -0.087,0.005 -0.123,0"
       style="fill:#f8d80e;fill-opacity:1;fill-rule:nonzero;stroke:none"
       transform="matrix(1.3333333,0,0,-1.3333333,498.97227,437.98827)"
       clip-path="url(#clipPath69)" />
    <path
       id="path70"
       d="M 0,0 C -0.099,-0.147 -0.197,-0.341 -0.305,-0.488 -1.117,-1.536 -2.28,-2.41 -3.662,-2.991 v -14.77 L 0.244,-20.02 V -2.015 C 0.244,-1.33 0.194,-0.647 0.061,0 0.055,0.002 0.006,0 0,0 Z m -11.292,7.63 c -4.53,-0.696 -7.995,-4.819 -7.995,-9.645 V -23.56 c 0,-5.307 4.216,-9.705 9.399,-9.705 0.135,0 0.233,-0.005 0.367,0 0.133,-0.005 0.231,0 0.366,0 3.685,0 6.883,2.241 8.423,5.433 l -3.358,2.015 c -0.834,-2.071 -2.794,-3.48 -5.065,-3.48 -0.088,0 -0.173,0.001 -0.244,0 h -0.122 c -0.035,-0.003 -0.092,0 -0.123,0 -0.071,0.001 -0.156,0 -0.244,0 -3.029,0 -5.493,2.496 -5.493,5.737 v 21.545 c 0,3.242 2.464,5.677 5.493,5.677 0.086,0 0.172,-10e-4 0.244,0 0.031,-10e-4 0.089,0.003 0.123,0 h 0.122 c 0.072,-10e-4 0.158,0 0.244,0 0.851,0 1.66,-0.2 2.38,-0.55 0.005,0 0.057,10e-4 0.061,0 0.159,0.03 0.322,0.08 0.427,0.123 0.05,0.032 0.152,0.102 0.183,0.121 0.01,0.012 0.051,0.051 0.061,0.062 h 0.062 c 0.01,0.01 0.05,0.051 0.061,0.061 l 0.061,0.061 c 0.037,0.05 0.087,0.138 0.122,0.184 0,0.005 0.001,0.053 0,0.06 l 0.061,0.061 c 0.008,0.017 0.045,0.09 0.061,0.123 0.116,0.312 0.194,0.783 0.244,1.22 -0.027,0.059 -0.079,0.154 -0.122,0.245 v 0.06 c -0.041,0.064 -0.125,0.173 -0.183,0.244 -0.397,0.482 -1.078,1.103 -1.892,1.831 -0.006,-10e-4 -0.056,0 -0.061,0 -0.058,0.014 -0.186,0.049 -0.244,0.062 h -0.062 c -0.031,-0.001 -0.103,-0.001 -0.122,0 -0.011,-0.001 -0.053,-0.001 -0.06,0 -0.035,-0.001 -0.099,0 -0.123,0 -0.063,-0.003 -0.187,-0.005 -0.244,0 -0.239,0.018 -0.428,0 -0.671,0 -0.153,0 -0.232,-0.001 -0.366,0 -0.135,-0.001 -0.214,0 -0.367,0 -0.243,0 -0.433,0.018 -0.671,0 -0.057,-0.005 -0.181,-0.003 -0.244,0 -0.024,0 -0.088,-0.001 -0.122,0 -0.016,-0.001 -0.051,0.001 -0.061,0 -0.025,-0.001 -0.102,-0.002 -0.122,0 h -0.061 c -0.036,-0.006 -0.087,0.005 -0.123,0 z"
       style="fill:none;stroke:#000000;stroke-width:1.024;stroke-linecap:butt;stroke-linejoin:miter;stroke-miterlimit:4;stroke-dasharray:none;stroke-opacity:1"
       transform="matrix(1.3333333,0,0,-1.3333333,498.97227,437.98827)"
       clip-path="url(#clipPath71)" />
    <path
       id="path72"
       d="m 0,0 c -10.985,0 -19.958,-9.158 -19.958,-20.446 v -28.87 H -34.301 V 60.059 H 44.373 V -49.316 H 19.959 v 28.87 C 19.959,-9.6 11.141,0 0,0"
       style="fill:#da000c;fill-opacity:1;fill-rule:nonzero;stroke:#000000;stroke-width:1;stroke-linecap:square;stroke-linejoin:miter;stroke-miterlimit:4;stroke-dasharray:none;stroke-opacity:1"
       transform="matrix(1.3333333,0,0,-1.3333333,596.38373,334.88027)"
       clip-path="url(#clipPath73)" />
    <path
       id="path74"
       d="m 0,0 v -8.972 h 64.941 64.942 V 0 H 64.941 Z"
       style="fill:#da000c;fill-opacity:1;fill-rule:nonzero;stroke:#000000;stroke-width:1;stroke-linecap:round;stroke-linejoin:miter;stroke-miterlimit:4;stroke-dasharray:none;stroke-opacity:1"
       transform="matrix(1.3333333,0,0,-1.3333333,399.03733,254.80147)"
       clip-path="url(#clipPath75)" />
    <path
       id="path76"
       d="M 464.751,382.887 H 428.572 V 316.56 h 36.179 z"
       style="fill:#000000;fill-opacity:1;fill-rule:nonzero;stroke:none"
       transform="matrix(1.3333333,0,0,-1.3333333,0,666.66667)"
       clip-path="url(#clipPath77)" />
    <path
       id="path78"
       d="m 499.29,317.762 h -68.301 v -8.863 h 68.301 z m -70.617,9.081 h 31.658 v 11.231 h 23.213 v -11.231 h 15.746 v 11.231 h 9.4 v -20.386 h -80.017"
       style="fill:#da000c;fill-opacity:1;fill-rule:nonzero;stroke:#000000;stroke-width:1;stroke-linecap:butt;stroke-linejoin:miter;stroke-miterlimit:4;stroke-dasharray:none;stroke-opacity:1"
       transform="matrix(1.3333333,0,0,-1.3333333,0,666.66667)"
       clip-path="url(#clipPath79)" />
    <path
       id="path80"
       d="m 0,0 v -68.909 h -11.859 v 18.921 c 0,7.089 -5.004,12.889 -12.005,13.245 -0.226,0.011 -0.443,0 -0.671,0 -7.318,0 -13.245,-5.927 -13.245,-13.245 V -68.909 H -49.072 V 0 Z"
       style="fill:#da000c;fill-opacity:1;fill-rule:nonzero;stroke:#000000;stroke-width:1;stroke-linecap:butt;stroke-linejoin:miter;stroke-miterlimit:4;stroke-dasharray:none;stroke-opacity:1"
       transform="matrix(1.3333333,0,0,-1.3333333,629.5868,124.02347)"
       clip-path="url(#clipPath81)" />
    <path
       id="path82"
       d="m 0,0 v -29.175 h 70.251 70.252 V 0 H 127.197 V -11.23 H 109.498 V 0 H 85.754 V -11.23 H 70.251 54.749 V 0 H 31.006 v -11.23 h -17.7 V 0 Z"
       style="fill:#da000c;fill-opacity:1;fill-rule:nonzero;stroke:#000000;stroke-width:1;stroke-linecap:butt;stroke-linejoin:miter;stroke-miterlimit:4;stroke-dasharray:none;stroke-opacity:1"
       transform="matrix(1.3333333,0,0,-1.3333333,391.95733,215.90173)"
       clip-path="url(#clipPath83)" />
    <path
       id="path84"
       d="m 476.464,406.982 h -57.129 v 9.338 h 57.129 z"
       style="fill:#da000c;fill-opacity:1;fill-rule:nonzero;stroke:#000000;stroke-width:1;stroke-linecap:square;stroke-linejoin:miter;stroke-miterlimit:4;stroke-dasharray:none;stroke-opacity:1"
       transform="matrix(1.3333333,0,0,-1.3333333,0,666.66667)"
       clip-path="url(#clipPath85)" />
    <path
       id="path86"
       d="M 0,0 V -17.883 H -68.543 V 0 h 10.559 v -9.094 h 12.756 V 0 h 19.47 v -9.094 h 12.757 V 0 Z"
       style="fill:#da000c;fill-opacity:1;fill-rule:nonzero;stroke:#000000;stroke-width:1;stroke-linecap:square;stroke-linejoin:miter;stroke-miterlimit:4;stroke-dasharray:none;stroke-opacity:1"
       transform="matrix(1.3333333,0,0,-1.3333333,645.0504,87.727867)"
       clip-path="url(#clipPath87)" />
    <path
       id="path88"
       d="m 358.461,111.955 h 9.747 V 14.182 h -9.747 z"
       style="fill:#f8d80e;fill-opacity:1;fill-rule:nonzero;stroke:#000000;stroke-width:1;stroke-linecap:butt;stroke-linejoin:miter;stroke-miterlimit:4;stroke-dasharray:none;stroke-opacity:1"
       transform="matrix(1.3333333,0,0,-1.3333333,0,666.66667)"
       clip-path="url(#clipPath89)" />
    <path
       id="path90"
       d="m 0,0 v -106.14 h 25.085 v 39.734 c 0,18.716 12.493,27.527 28.26,27.527 15.154,0 28.259,-8.811 28.259,-27.527 v -39.734 h 25.085 V 0 L 53.345,0 Z"
       style="fill:#da000c;fill-opacity:1;fill-rule:nonzero;stroke:#000000;stroke-width:1;stroke-linecap:butt;stroke-linejoin:round;stroke-miterlimit:4;stroke-dasharray:none;stroke-opacity:1"
       transform="matrix(1.3333333,0,0,-1.3333333,414.4996,266.76427)"
       clip-path="url(#clipPath91)" />
  </g>
</svg>
