<?xml version="1.0" encoding="UTF-8" standalone="no"?>
<!-- Created with Inkscape (http://www.inkscape.org/) -->

<svg
   version="1.1"
   id="svg1"
   width="800"
   height="533.33331"
   viewBox="0 0 800 533.33331"
   sodipodi:docname="gp.ai"
   xmlns:inkscape="http://www.inkscape.org/namespaces/inkscape"
   xmlns:sodipodi="http://sodipodi.sourceforge.net/DTD/sodipodi-0.dtd"
   xmlns="http://www.w3.org/2000/svg"
   xmlns:svg="http://www.w3.org/2000/svg">
  <defs
     id="defs1">
    <clipPath
       clipPathUnits="userSpaceOnUse"
       id="clipPath3">
      <path
         d="M 0,400 H 600 V 0 H 0 Z"
         transform="translate(-380.08011,-96.046002)"
         id="path3" />
    </clipPath>
    <clipPath
       clipPathUnits="userSpaceOnUse"
       id="clipPath5">
      <path
         d="M 0,400 H 600 V 0 H 0 Z"
         transform="translate(-406.19041,-79.968904)"
         id="path5" />
    </clipPath>
    <clipPath
       clipPathUnits="userSpaceOnUse"
       id="clipPath7">
      <path
         d="M 0,400 H 600 V 0 H 0 Z"
         id="path7" />
    </clipPath>
    <clipPath
       clipPathUnits="userSpaceOnUse"
       id="clipPath9">
      <path
         d="M 0,400 H 600 V 0 H 0 Z"
         transform="translate(-198.6763,-190.9718)"
         id="path9" />
    </clipPath>
    <clipPath
       clipPathUnits="userSpaceOnUse"
       id="clipPath11">
      <path
         d="M 0,400 H 600 V 0 H 0 Z"
         transform="translate(-105.4482,-385.05531)"
         id="path11" />
    </clipPath>
    <clipPath
       clipPathUnits="userSpaceOnUse"
       id="clipPath13">
      <path
         d="M 0,400 H 600 V 0 H 0 Z"
         transform="translate(-141.42531,-350.87371)"
         id="path13" />
    </clipPath>
    <clipPath
       clipPathUnits="userSpaceOnUse"
       id="clipPath15">
      <path
         d="M 0,400 H 600 V 0 H 0 Z"
         transform="translate(-99.050305,-304.89421)"
         id="path15" />
    </clipPath>
    <clipPath
       clipPathUnits="userSpaceOnUse"
       id="clipPath17">
      <path
         d="M 0,400 H 600 V 0 H 0 Z"
         transform="translate(-101.5117,-295.08221)"
         id="path17" />
    </clipPath>
    <clipPath
       clipPathUnits="userSpaceOnUse"
       id="clipPath19">
      <path
         d="M 0,400 H 600 V 0 H 0 Z"
         transform="translate(-86.266105,-350.87951)"
         id="path19" />
    </clipPath>
    <clipPath
       clipPathUnits="userSpaceOnUse"
       id="clipPath21">
      <path
         d="M 0,400 H 600 V 0 H 0 Z"
         transform="translate(-290.37211,-385.05481)"
         id="path21" />
    </clipPath>
    <clipPath
       clipPathUnits="userSpaceOnUse"
       id="clipPath23">
      <path
         d="M 0,400 H 600 V 0 H 0 Z"
         transform="translate(-326.34961,-350.87321)"
         id="path23" />
    </clipPath>
    <clipPath
       clipPathUnits="userSpaceOnUse"
       id="clipPath25">
      <path
         d="M 0,400 H 600 V 0 H 0 Z"
         transform="translate(-283.97461,-304.89371)"
         id="path25" />
    </clipPath>
    <clipPath
       clipPathUnits="userSpaceOnUse"
       id="clipPath27">
      <path
         d="M 0,400 H 600 V 0 H 0 Z"
         transform="translate(-286.43551,-295.0817)"
         id="path27" />
    </clipPath>
    <clipPath
       clipPathUnits="userSpaceOnUse"
       id="clipPath29">
      <path
         d="M 0,400 H 600 V 0 H 0 Z"
         transform="translate(-271.19041,-350.87951)"
         id="path29" />
    </clipPath>
    <clipPath
       clipPathUnits="userSpaceOnUse"
       id="clipPath31">
      <path
         d="M 0,400 H 600 V 0 H 0 Z"
         transform="translate(-481.49121,-385.70571)"
         id="path31" />
    </clipPath>
    <clipPath
       clipPathUnits="userSpaceOnUse"
       id="clipPath33">
      <path
         d="M 0,400 H 600 V 0 H 0 Z"
         transform="translate(-517.46782,-351.52401)"
         id="path33" />
    </clipPath>
    <clipPath
       clipPathUnits="userSpaceOnUse"
       id="clipPath35">
      <path
         d="M 0,400 H 600 V 0 H 0 Z"
         transform="translate(-475.09281,-305.54461)"
         id="path35" />
    </clipPath>
    <clipPath
       clipPathUnits="userSpaceOnUse"
       id="clipPath37">
      <path
         d="M 0,400 H 600 V 0 H 0 Z"
         transform="translate(-477.55371,-295.73251)"
         id="path37" />
    </clipPath>
    <clipPath
       clipPathUnits="userSpaceOnUse"
       id="clipPath39">
      <path
         d="M 0,400 H 600 V 0 H 0 Z"
         transform="translate(-462.30861,-351.52991)"
         id="path39" />
    </clipPath>
    <clipPath
       clipPathUnits="userSpaceOnUse"
       id="clipPath41">
      <path
         d="M 0,400 H 600 V 0 H 0 Z"
         transform="translate(-105.08691,-229.14071)"
         id="path41" />
    </clipPath>
    <clipPath
       clipPathUnits="userSpaceOnUse"
       id="clipPath43">
      <path
         d="M 0,400 H 600 V 0 H 0 Z"
         transform="translate(-216.57621,-186.6896)"
         id="path43" />
    </clipPath>
    <clipPath
       clipPathUnits="userSpaceOnUse"
       id="clipPath45">
      <path
         d="M 0,400 H 600 V 0 H 0 Z"
         transform="translate(-191.5659,-222.86341)"
         id="path45" />
    </clipPath>
    <clipPath
       clipPathUnits="userSpaceOnUse"
       id="clipPath47">
      <path
         d="M 0,400 H 600 V 0 H 0 Z"
         transform="translate(-80.2588,-235.88201)"
         id="path47" />
    </clipPath>
    <clipPath
       clipPathUnits="userSpaceOnUse"
       id="clipPath49">
      <path
         d="M 0,400 H 600 V 0 H 0 Z"
         transform="translate(-86.2246,-221.6183)"
         id="path49" />
    </clipPath>
    <clipPath
       clipPathUnits="userSpaceOnUse"
       id="clipPath51">
      <path
         d="M 0,400 H 600 V 0 H 0 Z"
         transform="translate(-168.8154,-215.07631)"
         id="path51" />
    </clipPath>
    <clipPath
       clipPathUnits="userSpaceOnUse"
       id="clipPath53">
      <path
         d="M 0,400 H 600 V 0 H 0 Z"
         transform="translate(-177.916,-220.13491)"
         id="path53" />
    </clipPath>
    <clipPath
       clipPathUnits="userSpaceOnUse"
       id="clipPath55">
      <path
         d="M 0,400 H 600 V 0 H 0 Z"
         transform="translate(-160.8901,-214.1486)"
         id="path55" />
    </clipPath>
    <clipPath
       clipPathUnits="userSpaceOnUse"
       id="clipPath57">
      <path
         d="M 0,400 H 600 V 0 H 0 Z"
         transform="translate(-148.10211,-163.0577)"
         id="path57" />
    </clipPath>
    <clipPath
       clipPathUnits="userSpaceOnUse"
       id="clipPath59">
      <path
         d="M 0,400 H 600 V 0 H 0 Z"
         transform="translate(-113.3979,-194.5529)"
         id="path59" />
    </clipPath>
    <clipPath
       clipPathUnits="userSpaceOnUse"
       id="clipPath61">
      <path
         d="M 0,400 H 600 V 0 H 0 Z"
         transform="translate(-114.74271,-197.14561)"
         id="path61" />
    </clipPath>
    <clipPath
       clipPathUnits="userSpaceOnUse"
       id="clipPath63">
      <path
         d="M 0,400 H 600 V 0 H 0 Z"
         transform="translate(-123.8701,-192.11341)"
         id="path63" />
    </clipPath>
    <clipPath
       clipPathUnits="userSpaceOnUse"
       id="clipPath65">
      <path
         d="M 0,400 H 600 V 0 H 0 Z"
         transform="translate(-77.864702,-211.60711)"
         id="path65" />
    </clipPath>
    <clipPath
       clipPathUnits="userSpaceOnUse"
       id="clipPath67">
      <path
         d="M 0,400 H 600 V 0 H 0 Z"
         transform="translate(-91.9126,-201.7277)"
         id="path67" />
    </clipPath>
    <clipPath
       clipPathUnits="userSpaceOnUse"
       id="clipPath69">
      <path
         d="M 0,400 H 600 V 0 H 0 Z"
         transform="translate(-186.3022,-190.2853)"
         id="path69" />
    </clipPath>
    <clipPath
       clipPathUnits="userSpaceOnUse"
       id="clipPath71">
      <path
         d="M 0,400 H 600 V 0 H 0 Z"
         transform="translate(-187.41651,-172.67)"
         id="path71" />
    </clipPath>
    <clipPath
       clipPathUnits="userSpaceOnUse"
       id="clipPath73">
      <path
         d="M 0,400 H 600 V 0 H 0 Z"
         transform="translate(-166.7134,-194.74621)"
         id="path73" />
    </clipPath>
    <clipPath
       clipPathUnits="userSpaceOnUse"
       id="clipPath75">
      <path
         d="M 0,400 H 600 V 0 H 0 Z"
         transform="translate(-197.3857,-181.19641)"
         id="path75" />
    </clipPath>
    <clipPath
       clipPathUnits="userSpaceOnUse"
       id="clipPath77">
      <path
         d="M 0,400 H 600 V 0 H 0 Z"
         transform="translate(-176.0601,-167.8898)"
         id="path77" />
    </clipPath>
    <clipPath
       clipPathUnits="userSpaceOnUse"
       id="clipPath79">
      <path
         d="M 0,400 H 600 V 0 H 0 Z"
         transform="translate(-110.7222,-243.6818)"
         id="path79" />
    </clipPath>
    <clipPath
       clipPathUnits="userSpaceOnUse"
       id="clipPath81">
      <path
         d="M 0,400 H 600 V 0 H 0 Z"
         transform="translate(-170.4556,-191.76871)"
         id="path81" />
    </clipPath>
    <clipPath
       clipPathUnits="userSpaceOnUse"
       id="clipPath83">
      <path
         d="M 0,400 H 600 V 0 H 0 Z"
         transform="translate(-121.5679,-171.9298)"
         id="path83" />
    </clipPath>
    <clipPath
       clipPathUnits="userSpaceOnUse"
       id="clipPath85">
      <path
         d="M 0,400 H 600 V 0 H 0 Z"
         transform="translate(-189.1899,-150.5284)"
         id="path85" />
    </clipPath>
    <clipPath
       clipPathUnits="userSpaceOnUse"
       id="clipPath87">
      <path
         d="M 0,400 H 600 V 0 H 0 Z"
         transform="translate(-171.1177,-155.6935)"
         id="path87" />
    </clipPath>
    <clipPath
       clipPathUnits="userSpaceOnUse"
       id="clipPath89">
      <path
         d="M 0,400 H 600 V 0 H 0 Z"
         transform="translate(-192.9946,-146.63491)"
         id="path89" />
    </clipPath>
    <clipPath
       clipPathUnits="userSpaceOnUse"
       id="clipPath91">
      <path
         d="M 0,400 H 600 V 0 H 0 Z"
         transform="translate(-190.5342,-130.7179)"
         id="path91" />
    </clipPath>
    <clipPath
       clipPathUnits="userSpaceOnUse"
       id="clipPath93">
      <path
         d="M 0,400 H 600 V 0 H 0 Z"
         transform="translate(-390.74511,-100.5031)"
         id="path93" />
    </clipPath>
    <clipPath
       clipPathUnits="userSpaceOnUse"
       id="clipPath95">
      <path
         d="M 0,400 H 600 V 0 H 0 Z"
         transform="translate(-394.55961,-105.12901)"
         id="path95" />
    </clipPath>
    <clipPath
       clipPathUnits="userSpaceOnUse"
       id="clipPath97">
      <path
         d="M 0,400 H 600 V 0 H 0 Z"
         transform="translate(-385.92291,-97.1417)"
         id="path97" />
    </clipPath>
    <clipPath
       clipPathUnits="userSpaceOnUse"
       id="clipPath99">
      <path
         d="M 0,400 H 600 V 0 H 0 Z"
         transform="translate(-382.17771,-93.344802)"
         id="path99" />
    </clipPath>
    <clipPath
       clipPathUnits="userSpaceOnUse"
       id="clipPath101">
      <path
         d="M 0,400 H 600 V 0 H 0 Z"
         transform="translate(-378.65141,-88.5626)"
         id="path101" />
    </clipPath>
    <clipPath
       clipPathUnits="userSpaceOnUse"
       id="clipPath103">
      <path
         d="M 0,400 H 600 V 0 H 0 Z"
         transform="translate(-374.66991,-84.2042)"
         id="path103" />
    </clipPath>
    <clipPath
       clipPathUnits="userSpaceOnUse"
       id="clipPath105">
      <path
         d="M 0,400 H 600 V 0 H 0 Z"
         transform="translate(-310.18461,-44.790199)"
         id="path105" />
    </clipPath>
  </defs>
  <sodipodi:namedview
     id="namedview1"
     pagecolor="#ffffff"
     bordercolor="#000000"
     borderopacity="0.25"
     inkscape:showpageshadow="2"
     inkscape:pageopacity="0.0"
     inkscape:pagecheckerboard="0"
     inkscape:deskcolor="#d1d1d1">
    <inkscape:page
       x="0"
       y="0"
       inkscape:label="1"
       id="page1"
       width="800"
       height="533.33331"
       margin="0"
       bleed="0" />
  </sodipodi:namedview>
  <g
     id="layer-MC0"
     inkscape:groupmode="layer"
     inkscape:label="svg2">
    <path
       id="path1"
       d="M 0,266.508 H 599.986 V 400 H 0 Z"
       style="fill:#002488;fill-opacity:1;fill-rule:nonzero;stroke:none"
       transform="matrix(1.3333333,0,0,-1.3333333,0,533.33333)" />
    <path
       id="path2"
       d="m 0,0 c 0,-0.927 3.147,-2.967 7.037,-4.635 6.481,-2.781 14.259,-5.562 71.665,-26.142 24.629,-8.9 34.258,-11.495 34.258,-9.085 0,0.926 -22.222,9.085 -49.443,17.984 C 36.11,-12.793 10.74,-3.894 7.037,-1.854 3.147,0 0,0.742 0,0"
       style="fill:#008000;fill-opacity:1;fill-rule:nonzero;stroke:none"
       transform="matrix(1.3333333,0,0,-1.3333333,506.77347,405.272)"
       clip-path="url(#clipPath3)" />
    <path
       id="path4"
       d="m 0,0 c 1.111,-1.854 69.073,-29.665 80.554,-33.003 4.259,-1.298 6.111,2.226 1.852,3.709 -1.297,0.37 -14.074,5.006 -28.333,10.197 C 32.222,-11.125 21.296,-7.046 1.481,0.927 -0.185,1.483 -0.74,1.112 0,0"
       style="fill:#008000;fill-opacity:1;fill-rule:nonzero;stroke:none"
       transform="matrix(1.3333333,0,0,-1.3333333,541.5872,426.70813)"
       clip-path="url(#clipPath5)" />
    <path
       id="path6"
       d="M 0.013,0 H 600 V 266.984 H 0.013 Z"
       style="fill:#000000;fill-opacity:1;fill-rule:nonzero;stroke:none"
       transform="matrix(1.3333333,0,0,-1.3333333,0,533.33333)"
       clip-path="url(#clipPath7)" />
    <path
       id="path8"
       d="m 0,0 c 2.087,-5.102 9.49,-8.588 19.425,-9.446 6.724,-0.478 3.64,2.422 -5.757,5.846 C 9.254,-2.188 4.113,0.474 1.931,2.059 -1.913,5.038 -1.913,5.038 0,0"
       style="fill:#008000;fill-opacity:1;fill-rule:nonzero;stroke:none"
       transform="matrix(1.3333333,0,0,-1.3333333,264.90173,278.70427)"
       clip-path="url(#clipPath9)" />
    <path
       id="path10"
       d="m 0,0 c -7.326,-12.081 -8.2,-21.745 -3.2,-38.431 2.408,-7.787 5.052,-19.416 6.163,-25.72 1.481,-8.899 1.326,-9.745 1.534,-11.68 1.852,0 6.06,-0.007 8.006,0.004 0.28,3.081 0.506,6.638 1.163,11.528 0.766,5.702 3.038,17.628 5.481,25.911 4.883,16.552 4.556,26.707 -3.036,38.202 C 13.333,4.079 9.629,7.602 7.963,7.602 6.296,7.602 2.526,4.346 0,0"
       style="fill:#fcdd09;fill-opacity:1;fill-rule:nonzero;stroke:none"
       transform="matrix(1.3333333,0,0,-1.3333333,140.5976,19.926267)"
       clip-path="url(#clipPath11)" />
    <path
       id="path12"
       d="m 0,0 c -10.37,-4.45 -16.607,-16.768 -20.015,-33.744 -0.629,-3.188 -0.782,-4.313 -1.098,-7.905 2.245,-0.01 3.127,-0.025 5.315,-0.012 0.479,2.417 0.824,3.693 1.88,7.123 4.185,13.268 16.51,18.593 15.955,6.171 -0.185,-3.43 -1.631,-5.345 -3.241,-7.184 1.99,0.497 6.215,2.471 9.641,4.418 C 27.51,-19.638 20,8.529 0,0"
       style="fill:#fcdd09;fill-opacity:1;fill-rule:nonzero;stroke:none"
       transform="matrix(1.3333333,0,0,-1.3333333,188.56707,65.501733)"
       clip-path="url(#clipPath13)" />
    <path
       id="path14"
       d="M 0,0 C 8.369,-0.038 22.833,-0.104 29.781,-0.067 29.789,1.72 29.815,0.808 29.832,2.252 24.718,2.294 5.132,2.224 0.04,2.224 0.051,1.29 0.028,0.838 0,0"
       style="fill:#fcdd09;fill-opacity:1;fill-rule:nonzero;stroke:none"
       transform="matrix(1.3333333,0,0,-1.3333333,132.06707,126.80773)"
       clip-path="url(#clipPath15)" />
    <path
       id="path16"
       d="m 0,0 c -3.017,-3.256 -7.73,-5.69 -7.73,-5.69 0,0 4.169,-0.469 8.057,-0.185 3.888,0.284 6.046,0.77 8.343,1.887 -0.624,-4.638 -0.66,-9.118 -0.66,-9.118 0.566,-5.97 1.206,-7.498 2.499,-10.403 1.754,-2.424 2.774,-2.437 4.064,0.122 1.394,2.866 2.311,5.813 2.602,10.309 -0.101,3.369 -0.289,4.913 -1.086,9.032 2.69,-1.165 4.389,-1.468 8.403,-1.829 4.107,-0.371 7.882,-0.189 7.882,-0.189 0,0 -5.548,2.788 -7.99,6.206 C 21.974,3.517 22.488,2.943 20.735,7.29 18.605,7.391 7.808,7.292 4.382,7.292 2.506,3.329 2.317,2.501 0,0"
       style="fill:#fcdd09;fill-opacity:1;fill-rule:nonzero;stroke:none"
       transform="matrix(1.3333333,0,0,-1.3333333,135.34893,139.8904)"
       clip-path="url(#clipPath17)" />
    <path
       id="path18"
       d="m 0,0 c 10.37,-4.45 16.607,-16.768 20.015,-33.744 0.629,-3.187 0.782,-4.313 1.098,-7.905 -2.245,-0.009 -3.127,-0.025 -5.315,-0.012 -0.479,2.417 -0.824,3.693 -1.88,7.124 -4.185,13.267 -16.51,18.592 -15.955,6.17 0.185,-3.43 1.631,-5.345 3.241,-7.184 -1.99,0.497 -6.215,2.471 -9.641,4.418 C -27.51,-19.638 -20,8.529 0,0 Z"
       style="fill:#fcdd09;fill-opacity:1;fill-rule:nonzero;stroke:none"
       transform="matrix(1.3333333,0,0,-1.3333333,115.02147,65.494)"
       clip-path="url(#clipPath19)" />
    <path
       id="path20"
       d="m 0,0 c -7.326,-12.081 -8.2,-21.745 -3.2,-38.431 2.408,-7.787 5.052,-19.416 6.163,-25.719 1.481,-8.9 1.327,-9.746 1.535,-11.681 1.851,0 6.06,-0.007 8.006,0.004 0.279,3.081 0.506,6.638 1.162,11.528 0.767,5.702 3.038,17.628 5.481,25.911 4.883,16.552 4.556,26.707 -3.036,38.202 C 13.333,4.079 9.629,7.602 7.963,7.602 6.296,7.602 2.526,4.346 0,0"
       style="fill:#fcdd09;fill-opacity:1;fill-rule:nonzero;stroke:none"
       transform="matrix(1.3333333,0,0,-1.3333333,387.1628,19.926933)"
       clip-path="url(#clipPath21)" />
    <path
       id="path22"
       d="m 0,0 c -10.37,-4.45 -16.607,-16.768 -20.015,-33.744 -0.629,-3.187 -0.782,-4.313 -1.097,-7.905 2.244,-0.009 3.126,-0.025 5.314,-0.012 0.479,2.417 0.824,3.693 1.88,7.124 4.185,13.267 16.51,18.592 15.955,6.17 -0.185,-3.43 -1.632,-5.345 -3.241,-7.184 1.99,0.497 6.215,2.471 9.641,4.418 C 27.511,-19.638 19.999,8.529 0,0"
       style="fill:#fcdd09;fill-opacity:1;fill-rule:nonzero;stroke:none"
       transform="matrix(1.3333333,0,0,-1.3333333,435.1328,65.5024)"
       clip-path="url(#clipPath23)" />
    <path
       id="path24"
       d="M 0,0 C 8.369,-0.037 22.834,-0.104 29.781,-0.067 29.789,1.72 29.815,0.808 29.832,2.252 24.718,2.295 5.132,2.224 0.04,2.224 0.051,1.29 0.028,0.838 0,0"
       style="fill:#fcdd09;fill-opacity:1;fill-rule:nonzero;stroke:none"
       transform="matrix(1.3333333,0,0,-1.3333333,378.6328,126.8084)"
       clip-path="url(#clipPath25)" />
    <path
       id="path26"
       d="m 0,0 c -3.017,-3.256 -7.729,-5.69 -7.729,-5.69 0,0 4.168,-0.469 8.056,-0.185 3.888,0.284 6.046,0.77 8.343,1.887 -0.624,-4.638 -0.659,-9.118 -0.659,-9.118 0.565,-5.97 1.205,-7.498 2.498,-10.403 1.754,-2.423 2.774,-2.436 4.064,0.123 1.394,2.865 2.312,5.812 2.603,10.308 -0.102,3.37 -0.29,4.913 -1.087,9.032 2.69,-1.165 4.39,-1.467 8.403,-1.829 4.107,-0.37 7.882,-0.189 7.882,-0.189 0,0 -5.548,2.788 -7.989,6.206 -2.411,3.375 -1.897,2.801 -3.65,7.149 C 18.605,7.391 7.809,7.292 4.383,7.292 2.506,3.329 2.318,2.501 0,0"
       style="fill:#fcdd09;fill-opacity:1;fill-rule:nonzero;stroke:none"
       transform="matrix(1.3333333,0,0,-1.3333333,381.914,139.89107)"
       clip-path="url(#clipPath27)" />
    <path
       id="path28"
       d="m 0,0 c 10.37,-4.45 16.607,-16.768 20.014,-33.744 0.63,-3.188 0.783,-4.313 1.098,-7.905 -2.244,-0.01 -3.126,-0.025 -5.315,-0.012 -0.478,2.417 -0.823,3.693 -1.879,7.123 -4.185,13.268 -16.511,18.593 -15.955,6.171 0.185,-3.43 1.631,-5.345 3.241,-7.184 -1.99,0.496 -6.215,2.471 -9.641,4.418 C -27.511,-19.638 -20,8.529 0,0"
       style="fill:#fcdd09;fill-opacity:1;fill-rule:nonzero;stroke:none"
       transform="matrix(1.3333333,0,0,-1.3333333,361.5872,65.494)"
       clip-path="url(#clipPath29)" />
    <path
       id="path30"
       d="m 0,0 c -7.326,-12.081 -8.2,-21.745 -3.2,-38.431 2.407,-7.787 5.052,-19.416 6.163,-25.72 1.481,-8.899 1.326,-9.745 1.534,-11.68 1.852,0 6.06,-0.007 8.006,0.004 0.279,3.081 0.506,6.638 1.163,11.528 0.766,5.702 3.037,17.628 5.48,25.911 4.883,16.552 4.557,26.707 -3.036,38.202 C 13.333,4.079 9.629,7.602 7.962,7.602 6.296,7.602 2.525,4.346 0,0"
       style="fill:#fcdd09;fill-opacity:1;fill-rule:nonzero;stroke:none"
       transform="matrix(1.3333333,0,0,-1.3333333,641.98827,19.059067)"
       clip-path="url(#clipPath31)" />
    <path
       id="path32"
       d="m 0,0 c -10.37,-4.45 -16.607,-16.768 -20.015,-33.744 -0.629,-3.188 -0.782,-4.313 -1.097,-7.905 2.244,-0.01 3.127,-0.025 5.314,-0.012 0.48,2.417 0.824,3.693 1.88,7.123 4.185,13.268 16.511,18.593 15.955,6.171 -0.185,-3.43 -1.631,-5.345 -3.24,-7.184 1.989,0.496 6.214,2.471 9.64,4.418 C 27.511,-19.638 20,8.529 0,0"
       style="fill:#fcdd09;fill-opacity:1;fill-rule:nonzero;stroke:none"
       transform="matrix(1.3333333,0,0,-1.3333333,689.95707,64.634667)"
       clip-path="url(#clipPath33)" />
    <path
       id="path34"
       d="M 0,0 C 8.369,-0.038 22.834,-0.104 29.781,-0.067 29.789,1.72 29.815,0.808 29.832,2.252 24.718,2.294 5.132,2.224 0.04,2.224 0.052,1.29 0.028,0.838 0,0"
       style="fill:#fcdd09;fill-opacity:1;fill-rule:nonzero;stroke:none"
       transform="matrix(1.3333333,0,0,-1.3333333,633.45707,125.94053)"
       clip-path="url(#clipPath35)" />
    <path
       id="path36"
       d="m 0,0 c -3.017,-3.256 -7.729,-5.69 -7.729,-5.69 0,0 4.168,-0.469 8.057,-0.185 3.888,0.284 6.045,0.77 8.343,1.887 -0.624,-4.638 -0.66,-9.118 -0.66,-9.118 0.565,-5.97 1.206,-7.498 2.499,-10.403 1.754,-2.424 2.774,-2.437 4.063,0.122 1.394,2.866 2.312,5.813 2.603,10.309 -0.102,3.369 -0.289,4.913 -1.086,9.032 2.689,-1.165 4.389,-1.468 8.402,-1.829 4.107,-0.371 7.882,-0.189 7.882,-0.189 0,0 -5.548,2.788 -7.989,6.206 -2.41,3.375 -1.897,2.801 -3.65,7.148 C 18.606,7.391 7.809,7.292 4.383,7.292 2.507,3.329 2.318,2.501 0.001,0 Z"
       style="fill:#fcdd09;fill-opacity:1;fill-rule:nonzero;stroke:none"
       transform="matrix(1.3333333,0,0,-1.3333333,636.73827,139.02333)"
       clip-path="url(#clipPath37)" />
    <path
       id="path38"
       d="m 0,0 c 10.37,-4.45 16.607,-16.768 20.015,-33.744 0.629,-3.187 0.782,-4.313 1.097,-7.905 -2.244,-0.009 -3.126,-0.025 -5.314,-0.012 -0.479,2.417 -0.824,3.693 -1.88,7.124 -4.185,13.267 -16.51,18.592 -15.955,6.17 0.185,-3.43 1.632,-5.345 3.241,-7.184 -1.99,0.497 -6.215,2.471 -9.641,4.418 C -27.511,-19.638 -19.999,8.529 0,0 Z"
       style="fill:#fcdd09;fill-opacity:1;fill-rule:nonzero;stroke:none"
       transform="matrix(1.3333333,0,0,-1.3333333,616.41147,64.6268)"
       clip-path="url(#clipPath39)" />
    <path
       id="path40"
       d="M 0,0 C 5.371,-7.973 11.481,-13.72 23.333,-21.693 32.037,-27.625 39.629,-32.261 40,-31.89 40.74,-30.963 -2.592,9.27 -5.555,10.382 -6.667,10.753 -4.259,6.118 0,0"
       style="fill:#008000;fill-opacity:1;fill-rule:nonzero;stroke:none"
       transform="matrix(1.3333333,0,0,-1.3333333,140.11587,227.8124)"
       clip-path="url(#clipPath41)" />
    <path
       id="path42"
       d="m 0,0 c 4.021,-1.877 9.154,-3.355 11.743,-3.442 3.06,-0.104 2.248,0.649 -3.463,2.873 C 3.81,1.178 -1.536,4.115 -3.909,5.937 -8.164,9.417 -8.164,9.417 -7.718,6.354 -7.463,4.604 -4.256,1.885 0,0"
       style="fill:#008000;fill-opacity:1;fill-rule:nonzero;stroke:none"
       transform="matrix(1.3333333,0,0,-1.3333333,288.76827,284.41387)"
       clip-path="url(#clipPath43)" />
    <path
       id="path44"
       d="m 0,0 c 2.593,-10.383 13.333,-29.479 17.037,-30.222 3.333,-0.555 3.333,-0.37 0.555,2.782 C 12.963,-22.063 2.963,-2.41 2.963,1.298 2.963,3.337 2.037,4.82 0.926,4.82 -0.37,4.82 -0.741,2.966 0,0"
       style="fill:#008000;fill-opacity:1;fill-rule:nonzero;stroke:none"
       transform="matrix(1.3333333,0,0,-1.3333333,255.4212,236.18213)"
       clip-path="url(#clipPath45)" />
    <path
       id="path46"
       d="m 0,0 c -0.064,-0.365 3.412,-3.05 7.768,-6.078 4.355,-3.028 9.43,-7.313 11.114,-9.493 2.887,-3.898 19.236,-13.562 20.77,-12.326 C 41.154,-26.845 20.094,-9.76 11.189,-4.799 0.59,1.214 0.225,1.278 0,0"
       style="fill:#008000;fill-opacity:1;fill-rule:nonzero;stroke:none"
       transform="matrix(1.3333333,0,0,-1.3333333,107.01173,218.824)"
       clip-path="url(#clipPath47)" />
    <path
       id="path48"
       d="m 0,0 c 0,-0.371 3.889,-2.41 8.704,-4.635 4.815,-2.225 10.555,-5.562 12.592,-7.416 3.518,-3.338 21.296,-10.012 22.592,-8.529 1.296,1.298 -22.407,14.462 -32.036,17.799 C 0.371,1.298 0,1.298 0,0"
       style="fill:#008000;fill-opacity:1;fill-rule:nonzero;stroke:none"
       transform="matrix(1.3333333,0,0,-1.3333333,114.96613,237.84227)"
       clip-path="url(#clipPath49)" />
    <path
       id="path50"
       d="m 0,0 c 7.037,-12.979 14.259,-21.507 17.222,-20.58 1.481,0.557 -1.852,5.933 -9.074,14.647 C 1.667,1.668 -3.889,8.343 -4.444,8.899 -5,9.456 -2.963,5.377 0,0"
       style="fill:#008000;fill-opacity:1;fill-rule:nonzero;stroke:none"
       transform="matrix(1.3333333,0,0,-1.3333333,225.0872,246.56493)"
       clip-path="url(#clipPath51)" />
    <path
       id="path52"
       d="m 0,0 c 0,-2.039 7.222,-16.13 11.481,-22.063 2.408,-3.337 5.185,-5.192 8.333,-5.192 4.63,0 4.63,0 -2.407,7.973 C 13.333,-15.018 7.963,-8.528 5.185,-5.006 2.407,-1.483 0,0.742 0,0"
       style="fill:#008000;fill-opacity:1;fill-rule:nonzero;stroke:none"
       transform="matrix(1.3333333,0,0,-1.3333333,237.22133,239.82013)"
       clip-path="url(#clipPath53)" />
    <path
       id="path54"
       d="m 0,0 c 0,-2.781 13.537,-21.321 15.634,-21.321 0.953,0 -1.335,4.449 -5.339,9.826 C 1.334,0.742 0,2.04 0,0"
       style="fill:#008000;fill-opacity:1;fill-rule:nonzero;stroke:none"
       transform="matrix(1.3333333,0,0,-1.3333333,214.52013,247.80187)"
       clip-path="url(#clipPath55)" />
    <path
       id="path56"
       d="m 0,0 c -12.222,-4.821 -14.814,-6.489 -14.814,-9.085 0,-1.112 1.296,-0.928 3.333,0.741 1.667,1.669 7.777,3.894 13.333,5.192 5.555,1.298 12.222,3.522 14.814,4.82 l 4.63,2.41 H 15.74 C 12.777,3.894 5.555,2.039 0,0"
       style="fill:#008000;fill-opacity:1;fill-rule:nonzero;stroke:none"
       transform="matrix(1.3333333,0,0,-1.3333333,197.46947,315.92307)"
       clip-path="url(#clipPath57)" />
    <path
       id="path58"
       d="m 0,0 c 9.131,-8.313 39.671,-24.019 55.145,-28.639 4.193,-1.234 10.996,-1.517 14.84,-0.709 l 7.167,1.428 -7.073,3.736 C 58.67,-18.278 39.935,-5.771 33.208,0.263 c -7.327,6.603 -7.088,4.322 0.366,-4.799 2.912,-3.675 11.521,-10.008 19.069,-13.966 7.61,-4.132 12.928,-7.916 12.058,-8.233 C 62.438,-27.56 41.551,-15.638 25.664,-4.46 8.399,7.796 7.687,8.128 14.113,0.21 c 3.149,-3.785 8.973,-8.963 13.198,-11.369 4.114,-2.645 6.931,-4.972 6.061,-5.289 -1.74,-0.635 -12.564,5.287 -26.695,14.344 C 2.737,0.603 -2.627,3.975 -4.954,5.495 -7.517,7.125 -5.222,4.608 0,0 Z"
       style="fill:#008000;fill-opacity:1;fill-rule:nonzero;stroke:none"
       transform="matrix(1.3333333,0,0,-1.3333333,151.1972,273.92947)"
       clip-path="url(#clipPath59)" />
    <path
       id="path60"
       d="m 0,0 -7.407,-2.41 5.555,-0.928 c 2.963,-0.741 6.852,-0.37 8.704,0.557 1.667,0.927 5,1.669 7.407,1.854 4.074,0 4.074,0.185 0.555,1.668 C 10.185,2.781 9.074,2.781 0,0"
       style="fill:#008000;fill-opacity:1;fill-rule:nonzero;stroke:none"
       transform="matrix(1.3333333,0,0,-1.3333333,152.99027,270.47253)"
       clip-path="url(#clipPath61)" />
    <path
       id="path62"
       d="m 0,0 c -3.148,-2.41 -2.963,-2.596 3.889,-1.483 4.073,0.555 9.999,1.669 12.962,2.41 4.815,1.298 4.444,1.483 -3.889,1.669 C 7.407,2.781 2.222,1.668 0,0"
       style="fill:#008000;fill-opacity:1;fill-rule:nonzero;stroke:none"
       transform="matrix(1.3333333,0,0,-1.3333333,165.16013,277.18213)"
       clip-path="url(#clipPath63)" />
    <path
       id="path64"
       d="m 0,0 c 30.555,-5.562 91.85,-26.142 88.146,-29.666 -0.925,-0.926 -18.147,3.338 -20.555,5.006 -0.925,0.928 -10,0.557 -19.999,-0.741 -18.703,-2.039 -21.852,-3.708 -21.481,-11.309 0.185,-3.708 0.185,-3.708 1.111,0 1.667,6.86 4.444,8.342 15,8.342 11.481,0 42.962,-4.634 56.85,-8.342 18.518,-5.192 19.074,-5.192 12.963,-1.855 -7.963,4.45 -20,12.607 -22.222,15.019 C 85.739,-18.912 11.852,1.483 1.111,1.112 -3.889,0.741 -4.074,0.741 0,0"
       style="fill:#008000;fill-opacity:1;fill-rule:nonzero;stroke:none"
       transform="matrix(1.3333333,0,0,-1.3333333,103.8196,251.19053)"
       clip-path="url(#clipPath65)" />
    <path
       id="path66"
       d="m 0,0 c -2.222,-1.669 -4.629,-5.562 -5.185,-8.714 -1.111,-5.377 -1.111,-5.377 1.852,-1.854 C 4.444,-0.742 5,-0.371 14.629,-0.186 22.407,0 23.518,0.371 19.814,1.483 12.037,3.894 4.259,3.337 0,0"
       style="fill:#008000;fill-opacity:1;fill-rule:nonzero;stroke:none"
       transform="matrix(1.3333333,0,0,-1.3333333,122.55013,264.36307)"
       clip-path="url(#clipPath67)" />
    <path
       id="path68"
       d="m 0,0 c 1.481,-2.596 15.926,-9.826 17.037,-8.714 0.555,0.557 -1.111,2.04 -3.333,3.338 -2.408,1.298 -5.556,3.337 -6.852,4.82 C 3.889,2.226 -1.667,2.781 0,0"
       style="fill:#008000;fill-opacity:1;fill-rule:nonzero;stroke:none"
       transform="matrix(1.3333333,0,0,-1.3333333,248.40293,279.6196)"
       clip-path="url(#clipPath69)" />
    <path
       id="path70"
       d="m 0,0 c 1.481,-2.595 15.925,-9.826 17.037,-8.714 0.555,0.557 -1.112,2.04 -3.334,3.338 -2.407,1.298 -5.555,3.337 -6.851,4.82 C 3.889,2.226 -1.667,2.781 0,0.001 Z"
       style="fill:#008000;fill-opacity:1;fill-rule:nonzero;stroke:none"
       transform="matrix(1.3333333,0,0,-1.3333333,249.88867,303.10667)"
       clip-path="url(#clipPath71)" />
    <path
       id="path72"
       d="m 0,0 c 0.267,0.258 4.433,-1.127 9.376,-3.049 4.943,-1.922 11.329,-3.738 14.076,-3.917 4.842,-0.216 21.986,-8.383 21.821,-10.346 -0.032,-1.835 -25.955,6.091 -35.042,10.708 C -0.675,-1.168 -0.932,-0.901 0,0"
       style="fill:#008000;fill-opacity:1;fill-rule:nonzero;stroke:none"
       transform="matrix(1.3333333,0,0,-1.3333333,222.28453,273.67173)"
       clip-path="url(#clipPath73)" />
    <path
       id="path74"
       d="m 0,0 c -3.455,-1.337 -6.929,-3.755 -8.008,-5.484 -1.276,-2.044 -0.196,-2.064 4.259,0.177 3.495,1.749 8.539,3.185 11.307,3.42 5.182,0.257 5.182,0.257 1.884,2.32 C 7.557,1.612 3.553,1.493 0,0"
       style="fill:#008000;fill-opacity:1;fill-rule:nonzero;stroke:none"
       transform="matrix(1.3333333,0,0,-1.3333333,263.18093,291.73813)"
       clip-path="url(#clipPath75)" />
    <path
       id="path76"
       d="m 0,0 c -10.554,-9.477 -12.888,-16.084 -9.508,-25.901 l 2.923,-8.407 -0.813,8.508 C -8.657,-14.123 -5.513,-8.812 7.265,0.414 13.271,4.707 18.043,8.6 17.929,8.952 17.299,10.892 5.367,5.061 0,0"
       style="fill:#008000;fill-opacity:1;fill-rule:nonzero;stroke:none"
       transform="matrix(1.3333333,0,0,-1.3333333,234.7468,309.48027)"
       clip-path="url(#clipPath77)" />
    <path
       id="path78"
       d="m 0,0 c 5.741,-10.939 29.073,-36.154 42.036,-45.795 3.518,-2.596 9.815,-5.191 13.703,-5.748 l 7.222,-1.112 -5.37,5.932 c -8.703,9.456 -22.036,27.626 -26.296,35.599 -4.629,8.714 -5.185,6.489 -1.296,-4.635 1.481,-4.45 7.407,-13.349 13.148,-19.654 5.741,-6.489 9.444,-11.865 8.519,-11.865 -2.408,0 -17.963,18.355 -29.074,34.299 C 10.555,4.45 10,5.006 13.333,-4.635 15,-9.27 18.703,-16.13 21.851,-19.838 c 2.963,-3.894 4.815,-7.046 3.889,-7.046 -1.852,0 -10,9.271 -20.185,22.62 C 2.778,-0.371 -1.111,4.635 -2.778,6.86 -4.63,9.271 -3.333,6.119 0,0"
       style="fill:#008000;fill-opacity:1;fill-rule:nonzero;stroke:none"
       transform="matrix(1.3333333,0,0,-1.3333333,147.6296,208.42427)"
       clip-path="url(#clipPath79)" />
    <path
       id="path80"
       d="m 0,0 c 0,-1.298 2.778,-4.636 6.111,-7.231 9.814,-7.416 35.925,-19.838 39.258,-18.54 2.037,0.741 -1.111,2.781 -9.999,6.118 -15.556,6.118 -29.815,14.276 -29.815,17.057 0,1.484 6.112,1.668 21.296,0.742 C 49.628,-3.152 56.48,-0.557 35.74,1.298 13.889,3.522 0,2.966 0,0"
       style="fill:#008000;fill-opacity:1;fill-rule:nonzero;stroke:none"
       transform="matrix(1.3333333,0,0,-1.3333333,227.27413,277.64173)"
       clip-path="url(#clipPath81)" />
    <path
       id="path82"
       d="m 0,0 c -7.963,-1.854 -12.222,-4.635 -12.222,-7.973 0,-1.298 0.741,-1.112 1.666,0.371 1.482,2.411 16.667,6.861 18.148,5.377 0.37,-0.371 -0.185,-3.152 -1.296,-5.932 -1.111,-2.781 -1.482,-5.563 -0.926,-6.119 0.556,-0.742 1.482,0.742 2.037,2.781 2.222,7.973 9.074,10.383 25.555,8.899 8.333,-0.741 17.592,-1.669 20.555,-1.853 3.148,-0.186 7.407,-1.298 9.629,-2.596 4.815,-2.596 23.519,-2.781 21.852,-0.185 -0.556,0.926 -4.074,2.224 -7.963,2.781 -3.703,0.555 -11.481,2.41 -17.222,3.893 C 48.332,2.41 11.666,2.781 0,0"
       style="fill:#008000;fill-opacity:1;fill-rule:nonzero;stroke:none"
       transform="matrix(1.3333333,0,0,-1.3333333,162.09053,304.0936)"
       clip-path="url(#clipPath83)" />
    <path
       id="path84"
       d="m 0,0 c -13.957,2.492 -20.594,0.266 -26.239,-8.445 l -4.818,-7.482 6.196,5.88 c 8.416,8.182 14.532,8.972 29.659,4.57 7.077,-2.095 13.078,-3.464 13.286,-3.157 C 19.223,-6.943 7.287,-1.119 0,0"
       style="fill:#008000;fill-opacity:1;fill-rule:nonzero;stroke:none"
       transform="matrix(1.3333333,0,0,-1.3333333,252.2532,332.6288)"
       clip-path="url(#clipPath85)" />
    <path
       id="path86"
       d="m 0,0 c -25.74,-7.045 -28.703,-9.641 -24.999,-21.321 1.481,-4.45 1.481,-4.265 1.666,1.483 0.186,3.151 1.852,7.602 3.704,9.455 3.333,3.338 18.333,7.603 36.666,10.569 4.444,0.556 7.407,1.854 6.852,2.781 C 22.407,5.377 16.481,4.636 0,0"
       style="fill:#008000;fill-opacity:1;fill-rule:nonzero;stroke:none"
       transform="matrix(1.3333333,0,0,-1.3333333,228.15693,325.742)"
       clip-path="url(#clipPath87)" />
    <path
       id="path88"
       d="m 0,0 c -12.963,-5.747 -17.222,-11.31 -17.037,-21.692 l 0.185,-8.9 1.852,8.344 c 2.408,11.495 7.037,15.574 22.037,20.394 7.037,2.225 12.777,4.45 12.777,4.821 C 19.814,5.007 6.667,3.152 0,0"
       style="fill:#008000;fill-opacity:1;fill-rule:nonzero;stroke:none"
       transform="matrix(1.3333333,0,0,-1.3333333,257.32613,337.82013)"
       clip-path="url(#clipPath89)" />
    <path
       id="path90"
       d="m 0,0 c -2.222,-2.967 -3.889,-6.86 -3.889,-8.899 0,-2.412 0.926,-1.855 3.519,2.41 2.037,3.337 5.555,7.23 7.777,8.899 4.26,2.966 4.26,2.966 0.371,2.966 C 5.556,5.376 2.222,3.151 0,0"
       style="fill:#008000;fill-opacity:1;fill-rule:nonzero;stroke:none"
       transform="matrix(1.3333333,0,0,-1.3333333,254.0456,359.0428)"
       clip-path="url(#clipPath91)" />
    <path
       id="path92"
       d="m 0,0 c 6.014,-2.609 37.212,-10.486 59.286,-16.959 22.073,-6.472 47.883,-13.923 53.596,-14.726 8.165,17.82 -6.695,-15.51 1.785,4.69 -11.024,2.809 -54.479,13.046 -71.918,18.063 C 27.716,-4.717 6.389,1.857 0.927,3.062 -4.535,4.266 -4.61,2.007 0,0"
       style="fill:#008000;fill-opacity:1;fill-rule:nonzero;stroke:none"
       transform="matrix(1.3333333,0,0,-1.3333333,520.99347,399.3292)"
       clip-path="url(#clipPath93)" />
    <path
       id="path94"
       d="m 0,0 c 6.101,-2.397 37.555,-9.18 59.841,-14.877 22.286,-5.697 48.339,-12.242 54.076,-12.845 7.54,18.094 -6.149,-15.734 1.622,4.75 C 104.423,-20.55 60.638,-11.837 43.035,-7.433 27.863,-3.746 6.32,2.079 0.82,3.092 -4.681,4.104 -4.677,1.845 0,0"
       style="fill:#008000;fill-opacity:1;fill-rule:nonzero;stroke:none"
       transform="matrix(1.3333333,0,0,-1.3333333,526.07947,393.16133)"
       clip-path="url(#clipPath95)" />
    <path
       id="path96"
       d="m 0,0 c 5.868,-2.921 36.612,-12.422 58.317,-20.042 21.706,-7.62 47.09,-16.413 52.753,-17.515 9.086,17.368 -7.496,-15.138 2.029,4.59 -10.863,3.384 -53.723,15.883 -70.875,21.808 C 27.431,-6.163 6.478,1.52 1.085,3.009 -4.307,4.497 -4.499,2.245 0,0"
       style="fill:#008000;fill-opacity:1;fill-rule:nonzero;stroke:none"
       transform="matrix(1.3333333,0,0,-1.3333333,514.56387,403.81107)"
       clip-path="url(#clipPath97)" />
    <path
       id="path98"
       d="m 0,0 c 5.708,-3.224 35.913,-14.323 57.19,-23.07 21.278,-8.747 46.167,-18.859 51.765,-20.255 9.982,16.867 -8.277,-14.725 2.266,4.477 -10.671,3.949 -52.819,18.677 -69.638,25.492 C 27.071,-7.592 6.548,1.179 1.241,2.947 -4.065,4.717 -4.375,2.479 0,0"
       style="fill:#008000;fill-opacity:1;fill-rule:nonzero;stroke:none"
       transform="matrix(1.3333333,0,0,-1.3333333,509.57027,408.8736)"
       clip-path="url(#clipPath99)" />
    <path
       id="path100"
       d="m 0,0 c 5.592,-3.422 35.392,-15.57 56.351,-25.055 20.96,-9.485 45.481,-20.46 51.027,-22.051 10.563,16.508 -8.785,-14.426 2.421,4.395 C 99.271,-38.393 57.663,-22.2 41.092,-14.802 26.79,-8.533 6.585,0.948 1.343,2.902 -3.898,4.855 -4.287,2.629 0,0"
       style="fill:#008000;fill-opacity:1;fill-rule:nonzero;stroke:none"
       transform="matrix(1.3333333,0,0,-1.3333333,504.86853,415.24987)"
       clip-path="url(#clipPath101)" />
    <path
       id="path102"
       d="m 0,0 c 5.406,-3.71 34.529,-17.403 54.965,-27.974 20.434,-10.57 44.349,-22.814 49.805,-24.694 11.411,15.932 -9.529,-13.946 2.646,4.263 -10.286,4.864 -50.992,23.214 -67.154,31.47 C 26.308,-9.926 6.626,0.603 1.493,2.828 -3.639,5.054 -4.143,2.851 0,0"
       style="fill:#008000;fill-opacity:1;fill-rule:nonzero;stroke:none"
       transform="matrix(1.3333333,0,0,-1.3333333,499.55987,421.06107)"
       clip-path="url(#clipPath103)" />
    <path
       id="path104"
       d="m 0,0 5.998,-4.288 c 8.598,-5.997 13.326,-14.332 12.858,-22.934 l -0.318,-7.104 2.822,6.989 c 3.088,7.315 2.663,18.391 -0.984,26.594 L 18.249,4.04 25.006,1.095 c 9.654,-4.077 16.012,-11.244 17.34,-19.758 l 1.164,-7.016 1.309,7.427 c 1.5,7.799 -1.214,18.54 -6.486,25.804 l -3.074,4.238 7.22,-1.475 C 52.771,8.338 60.477,2.649 63.544,-5.402 l 2.596,-6.62 -0.263,7.538 c -0.15,7.939 -5.037,17.881 -11.702,23.89 l -3.888,3.505 7.37,0.06 c 10.476,0.207 19.196,-3.752 23.868,-10.992 l 3.913,-5.932 -1.822,7.317 C 81.82,21.096 74.977,29.805 67.21,34.295 l -4.531,2.62 7.197,1.591 c 10.203,2.387 19.555,0.326 25.627,-5.78 l 5.06,-4.99 -3.302,6.779 c -3.363,7.19 -11.865,14.286 -20.395,17.06 l -4.976,1.615 6.709,3.057 c 9.484,4.457 19.059,4.389 26.267,-0.318 l 5.987,-3.829 -4.636,5.944 c -4.783,6.335 -14.574,11.503 -23.493,12.44 l -5.202,0.546 5.927,4.387 c 8.353,6.332 17.732,8.263 25.76,5.156 l 6.65,-2.497 -5.768,4.847 c -5.994,5.199 -16.644,8.219 -25.564,7.278 l -5.201,-0.546 4.886,5.525 c 6.855,7.932 15.63,11.771 24.127,10.403 l 7.023,-1.057 -6.65,3.539 c -6.942,3.838 -17.986,4.574 -26.516,1.799 l -4.975,-1.616 3.632,6.418 c 5.057,9.188 12.842,14.769 21.438,15.202 l 7.09,0.426 -7.24,2.077 c -7.588,2.31 -18.543,0.729 -26.31,-3.759 l -4.531,-2.619 2.221,7.036 c 3.04,10.039 9.496,17.117 17.815,19.33 l 6.847,1.893 -7.514,0.525 c -7.902,0.681 -18.29,-3.143 -24.954,-9.152 l -3.888,-3.505 0.711,7.344 c 0.888,10.454 5.733,18.721 13.411,22.619 l 6.304,3.274 -7.459,-1.048 c -7.87,-0.98 -17.236,-6.884 -22.507,-14.148 l -3.075,-4.239 -0.829,7.332 c -1.302,10.408 1.719,19.507 8.42,24.914 l 5.484,4.517 -7.077,-2.578 C 47.715,187.51 39.781,179.785 36.133,171.582 l -2.127,-4.787 -2.335,7 c -3.436,9.911 -2.368,19.438 3.063,26.122 l 4.428,5.56 -6.388,-3.994 c -6.792,-4.1 -12.949,-13.308 -14.814,-22.09 l -1.087,-5.125 -3.736,6.359 c -5.419,8.982 -6.354,18.52 -2.43,26.191 l 3.177,6.359 -5.419,-5.236 c -5.792,-5.426 -9.902,-15.716 -9.902,-24.694 v -5.237 l -4.976,5.443 c -7.163,7.653 -10.058,16.793 -7.814,25.111 l 1.785,6.884 -4.212,-6.253 c -4.539,-6.51 -6.423,-17.43 -4.558,-26.216 l 1.086,-5.122 -5.997,4.289 c -8.598,5.997 -13.326,14.332 -12.858,22.937 l 0.316,7.104 -2.822,-6.993 c -3.086,-7.315 -2.661,-18.387 0.985,-26.59 l 2.127,-4.786 -6.756,2.946 c -9.656,4.076 -16.013,11.244 -17.341,19.757 l -1.164,7.015 -1.308,-7.426 c -1.5,-7.796 1.213,-18.54 6.486,-25.804 l 3.074,-4.237 -7.221,1.476 c -10.29,1.977 -17.996,7.664 -21.064,15.717 l -2.596,6.619 0.263,-7.536 c 0.15,-7.94 5.038,-17.883 11.702,-23.89 l 3.887,-3.505 -7.369,-0.06 c -10.476,-0.208 -19.196,3.752 -23.868,10.988 l -3.913,5.934 1.821,-7.315 c 1.797,-7.735 8.641,-16.444 16.408,-20.935 l 4.529,-2.619 -7.195,-1.59 c -10.204,-2.384 -19.556,-0.328 -25.628,5.779 l -5.06,4.99 3.301,-6.778 c 3.364,-7.192 11.867,-14.283 20.396,-17.058 l 4.976,-1.619 -6.709,-3.056 c -9.485,-4.458 -19.06,-4.388 -26.268,0.32 l -5.987,3.828 4.637,-5.943 c 4.783,-6.334 14.573,-11.502 23.493,-12.44 l 5.202,-0.549 -5.928,-4.385 c -8.353,-6.334 -17.732,-8.26 -25.76,-5.155 l -6.651,2.496 5.769,-4.846 c 5.994,-5.202 16.644,-8.218 25.564,-7.28 l 5.202,0.546 -4.887,-5.521 c -6.855,-7.936 -15.63,-11.772 -24.127,-10.407 l -7.023,1.06 6.65,-3.542 c 6.943,-3.839 17.987,-4.573 26.517,-1.799 l 4.975,1.618 -3.633,-6.421 c -5.057,-9.186 -12.843,-14.768 -21.438,-15.2 l -7.09,-0.424 7.24,-2.08 c 7.588,-2.309 18.543,-0.728 26.31,3.76 l 4.531,2.62 -2.22,-7.036 c -3.04,-10.041 -9.495,-17.12 -17.814,-19.332 l -6.847,-1.893 7.514,-0.526 c 7.902,-0.679 18.289,3.148 24.953,9.155 l 3.888,3.506 -0.712,-7.347 C -83.551,17.942 -88.396,9.674 -96.074,5.778 l -6.303,-3.277 7.458,1.048 c 7.871,0.979 17.236,6.888 22.507,14.151 l 3.075,4.237 0.83,-7.333 c 1.302,-10.409 -1.72,-19.503 -8.42,-24.914 l -5.487,-4.516 7.079,2.578 c 7.494,2.596 15.429,10.324 19.077,18.525 l 2.127,4.785 2.334,-6.997 c 3.436,-9.913 2.368,-19.437 -3.063,-26.124 l -4.428,-5.56 6.388,3.996 c 6.791,4.099 12.949,13.309 14.814,22.092 l 1.087,5.122 3.737,-6.361 c 5.418,-8.979 6.352,-18.519 2.429,-26.189 l -3.177,-6.36 5.419,5.239 c 5.792,5.422 9.903,15.712 9.903,24.691 v 5.239 l 4.975,-5.445 c 7.163,-7.654 10.058,-16.793 7.815,-25.111 l -1.787,-6.883 4.212,6.253 c 4.539,6.512 6.423,17.43 4.559,26.214 L -0.001,0"
       style="fill:#fcdd09;fill-opacity:1;fill-rule:nonzero;stroke:none"
       transform="matrix(1.3333333,0,0,-1.3333333,413.57947,473.61307)"
       clip-path="url(#clipPath105)" />
  </g>
</svg>
