<svg height="266.66666" viewBox="0 0 400 266.66666" width="400" xmlns="http://www.w3.org/2000/svg" xmlns:xlink="http://www.w3.org/1999/xlink"><clipPath id="a"><path d="m0 200h300v-200h-300z" transform="translate(-155.66601 -78.583004)"/></clipPath><clipPath id="b"><path d="m0 200h300v-200h-300z" transform="translate(-155.9326 -78.292004)"/></clipPath><clipPath id="c"><path d="m0 200h300v-200h-300z" transform="translate(-144.50001 -78.583004)"/></clipPath><clipPath id="d"><path d="m0 200h300v-200h-300z" transform="translate(-141.7852 -76.581104)"/></clipPath><clipPath id="e"><path d="m0 200h300v-200h-300z" transform="translate(-134.00001 -120.0996)"/></clipPath><clipPath id="f"><path d="m0 200h300v-200h-300z" transform="translate(-144.4858 -80.8086)"/></clipPath><clipPath id="g"><path d="m0 200h300v-200h-300z" transform="translate(-131.083 -87.333)"/></clipPath><clipPath id="h"><path d="m0 200h300v-200h-300z" transform="translate(-126.8965 -88.131802)"/></clipPath><clipPath id="i"><path d="m0 200h300v-200h-300z" transform="translate(-148.9165 -124.7832)"/></clipPath><clipPath id="j"><path d="m0 200h300v-200h-300z" transform="translate(-145.29981 -124.8809)"/></clipPath><clipPath id="k"><path d="m0 200h300v-200h-300z" transform="translate(-141.08301 -124.1748)"/></clipPath><clipPath id="l"><path d="m0 200h300v-200h-300z" transform="translate(-137.4937 -123.5601)"/></clipPath><clipPath id="m"><path d="m0 200h300v-200h-300z" transform="translate(-133.5 -122.61671)"/></clipPath><clipPath id="n"><path d="m0 200h300v-200h-300z" transform="translate(-130.18311 -121.2446)"/></clipPath><clipPath id="o"><path d="m0 200h300v-200h-300z" transform="translate(-151.333 -124.7832)"/></clipPath><clipPath id="p"><path d="m0 200h300v-200h-300z" transform="translate(-151.7578 -125.0142)"/></clipPath><clipPath id="q"><path d="m0 200h300v-200h-300z" transform="translate(-159.166 -124.1748)"/></clipPath><clipPath id="r"><path d="m0 200h300v-200h-300z" transform="translate(-159.6357 -124.31201)"/></clipPath><clipPath id="s"><path d="m0 200h300v-200h-300z" transform="translate(-166.666 -122.61671)"/></clipPath><clipPath id="t"><path d="m0 200h300v-200h-300z" transform="translate(-167.16891 -122.6465)"/></clipPath><clipPath id="u"><path d="m0 200h300v-200h-300z" transform="translate(-141.50001 -76.583002)"/></clipPath><clipPath id="v"><path d="m0 200h300v-200h-300z" transform="translate(-141.75 -75.955102)"/></clipPath><clipPath id="w"><path d="m0 200h300v-200h-300z" transform="translate(-126.1665 -81.833002)"/></clipPath><clipPath id="x"><path d="m0 200h300v-200h-300z" transform="translate(-126.4312 -81.787102)"/></clipPath><clipPath id="y"><path d="m0 200h300v-200h-300z" transform="translate(-173.916 -81.833002)"/></clipPath><clipPath id="z"><path d="m0 200h300v-200h-300z" transform="translate(-155.8408 -79.383802)"/></clipPath><clipPath id="A"><path d="m0 200h300v-200h-300z" transform="translate(-127.25001 -84.75)"/></clipPath><clipPath id="B"><path d="m0 200h300v-200h-300z" transform="translate(-126.8794 -93.790005)"/></clipPath><clipPath id="C"><path d="m0 200h300v-200h-300z" transform="translate(-172.833 -84.75)"/></clipPath><clipPath id="D"><path d="m0 200h300v-200h-300z" transform="translate(-171.3223 -88.702102)"/></clipPath><clipPath id="E"><path d="m0 200h300v-200h-300z" transform="translate(-151.416 -71.582999)"/></clipPath><clipPath id="F"><path d="m0 200h300v-200h-300z" transform="translate(-152.25 -83.416005)"/></clipPath><clipPath id="G"><path d="m0 200h300v-200h-300z" transform="translate(-150.375 -104.7017)"/></clipPath><clipPath id="H"><path d="m0 200h300v-200h-300z" transform="translate(-149.6665 -107.66651)"/></clipPath><clipPath id="I"><path d="m0 200h300v-200h-300z" transform="translate(-149.4585 -83.442405)"/></clipPath><clipPath id="J"><path d="m0 200h300v-200h-300z" transform="translate(-147.333 -83.416005)"/></clipPath><clipPath id="K"><path d="m0 200h300v-200h-300z" transform="translate(-147.3618 -83.805705)"/></clipPath><clipPath id="L"><path d="m0 200h300v-200h-300z" transform="translate(-147.127 -83.642602)"/></clipPath><clipPath id="M"><path d="m0 200h300v-200h-300z" transform="translate(-152.374 -83.404305)"/></clipPath><clipPath id="N"><path d="m0 200h300v-200h-300z" transform="translate(-154.58301 -113.333)"/></clipPath><clipPath id="O"><path d="m0 200h300v-200h-300z" transform="translate(-142.97751 -104.2964)"/></clipPath><clipPath id="P"><path d="m0 200h300v-200h-300z" transform="translate(-148.125 -112.33301)"/></clipPath><clipPath id="Q"><path d="m0 200h300v-200h-300z" transform="translate(-151.0645 -112.8438)"/></clipPath><clipPath id="R"><path d="m0 200h300v-200h-300z" transform="translate(-154.26951 -111.4307)"/></clipPath><clipPath id="S"><path d="m0 200h300v-200h-300z" transform="translate(-158.07231 -111.3984)"/></clipPath><clipPath id="T"><path d="m0 200h300v-200h-300z" transform="translate(-161.208 -106.458)"/></clipPath><clipPath id="U"><path d="m0 200h300v-200h-300z" transform="translate(-160.041 -105.75)"/></clipPath><clipPath id="V"><path d="m0 200h300v-200h-300z" transform="translate(-155.958 -106.25)"/></clipPath><clipPath id="W"><path d="m0 200h300v-200h-300z" transform="translate(-152.458 -107.66651)"/></clipPath><clipPath id="X"><path d="m0 200h300v-200h-300z" transform="translate(-142.95561 -104.14211)"/></clipPath><clipPath id="Y"><path d="m0 200h300v-200h-300z" transform="translate(-144.5625 -105.18071)"/></clipPath><clipPath id="Z"><path d="m0 200h300v-200h-300z" transform="translate(-143.6943 -108.3882)"/></clipPath><clipPath id="aa"><path d="m0 200h300v-200h-300z" transform="translate(-145.1304 -109.6304)"/></clipPath><clipPath id="ab"><path d="m0 200h300v-200h-300z" transform="translate(-151.10841 -109.1201)"/></clipPath><clipPath id="ac"><path d="m0 200h300v-200h-300z" transform="translate(-157.6689 -108.29591)"/></clipPath><clipPath id="ad"><path d="m0 200h300v-200h-300z" transform="translate(-145.6074 -107.35211)"/></clipPath><clipPath id="ae"><path d="m0 200h300v-200h-300z" transform="translate(-138.50001 -77.416004)"/></clipPath><clipPath id="af"><path d="m0 200h300v-200h-300z" transform="translate(-171.75 -81.083002)"/></clipPath><g transform="matrix(1.3333333 0 0 -1.3333333 0 266.66667)"><path d="m0 0h300v200h-300z" fill="#e32118"/><path d="m0 66.666h300v133.334h-300z" fill="#fff"/><path d="m0 133.333h300v66.667h-300z" fill="#3e9a00"/></g><path d="m0 0v-200l75 100z" fill="#0073ce" transform="matrix(1.3333333 0 0 -1.3333333 0 .000267)"/><path d="m0 0 2.084-3 1.916 2.833-1.333 2.417z" fill="#fff" transform="matrix(1.3333333 0 0 -1.3333333 225.22133 150.22267)"/><path d="m0 0 1.746-2.514 1.626 2.405-1.111 2.015zm1.752-3.398-2.422 3.486 3.073 2.594 1.555-2.819z" transform="matrix(1.3333333 0 0 -1.3333333 225.668 150.2812)"/><path clip-path="url(#a)" d="m0 0 .167-3s.833 0 1.583.25c.667.25 1.25.75 1.25.75l-.083 1.583z" fill="#fff" transform="matrix(1.3333333 0 0 -1.3333333 207.55467 161.88933)"/><path clip-path="url(#b)" d="m0 0 .137-2.449c.289.017.8.071 1.267.227.46.172.889.485 1.074.627l-.067 1.25zm-.1-2.959h-.236l-.197 3.541 3.423-.489.099-1.911-.093-.08c-.025-.022-.625-.533-1.325-.795-.788-.263-1.634-.266-1.671-.266" transform="matrix(1.3333333 0 0 -1.3333333 207.91013 162.27733)"/><path clip-path="url(#c)" d="m0 0-.167-2.917s-.75 0-1.5.167c-.666.167-1.25.583-1.25.583l-.833 2z" fill="#fff" transform="matrix(1.3333333 0 0 -1.3333333 192.66667 161.88933)"/><path clip-path="url(#d)" d="m0 0c.156-.102.612-.381 1.108-.506.462-.102.932-.139 1.204-.152l.137 2.398-3.116-.138zm2.784-1.165h-.236c-.032 0-.786.002-1.554.173-.711.178-1.316.605-1.341.624l-.058.041-.998 2.395 4.383.196z" transform="matrix(1.3333333 0 0 -1.3333333 189.04693 164.55853)"/><path clip-path="url(#e)" d="m0 0h31.916v-33.434c0-11.25-14.666-2.583-15.916-8.583-2.167 6.167-15.917-2.75-15.917 9.25 0 11.667-.083 32.767-.083 32.767" fill="#fff" transform="matrix(1.3333333 0 0 -1.3333333 178.66667 106.53387)"/><path clip-path="url(#f)" d="m0 0c2.378 0 4.484-.253 5.473-2.023.902 2.075 3.73 1.996 6.706 1.906 2.855-.078 5.806-.168 7.523 1.498.995.967 1.478 2.431 1.478 4.476v33.184h-31.415c.009-2.421.082-21.667.082-32.517 0-2.336.52-3.979 1.589-5.026 1.664-1.631 4.441-1.571 7.125-1.518.486.01.968.02 1.439.02m5.576-3.655-.298.846c-.846 2.41-3.693 2.354-6.707 2.289-2.793-.058-5.672-.116-7.486 1.661-1.169 1.145-1.738 2.907-1.738 5.383 0 11.534-.082 32.555-.083 32.766l-.001.251h32.417v-33.684c0-2.187-.533-3.769-1.631-4.835-1.868-1.814-5.066-1.717-7.884-1.639-3.175.091-5.92.173-6.406-2.159z" transform="matrix(1.3333333 0 0 -1.3333333 192.64773 158.92187)"/><path clip-path="url(#g)" d="m0 0-2.167-3-2.333 3.833 1.75 1.834z" fill="#fff" transform="matrix(1.3333333 0 0 -1.3333333 174.77733 150.22267)"/><path clip-path="url(#h)" d="m0 0 2.038-3.348 1.819 2.52-2.414 2.342zm2.002-4.25-2.629 4.318 2.057 2.155 3.086-2.993z" transform="matrix(1.3333333 0 0 -1.3333333 169.19533 149.1576)"/><path clip-path="url(#i)" d="m0 0-1.833-.083-.917-1.642-1 1.567-1.833-.075.833 1.65-1 1.566 1.917.083.833 1.642 1-1.566 1.833.075-.833-1.651z" fill="#ffd700" transform="matrix(1.3333333 0 0 -1.3333333 198.55533 100.28907)"/><path clip-path="url(#j)" d="m0 0 .853-1.335.78 1.397 1.54.07-.844 1.322.706 1.398-1.552-.064-.841 1.319-.702-1.382-1.629-.07.843-1.322-.706-1.397zm.881-2.31-1.148 1.798-2.115-.086.961 1.902-1.156 1.813 2.203.095.966 1.902 1.158-1.814 2.115.086-.961-1.903 1.156-1.811-2.126-.097z" transform="matrix(1.3333333 0 0 -1.3333333 193.73307 100.1588)"/><path clip-path="url(#k)" d="m0 0-1.833-.45-.5-1.775-1.334 1.333-1.75-.433.5 1.775-1.25 1.35 1.75.442.5 1.783 1.334-1.333 1.833.433-.583-1.783z" fill="#ffd700" transform="matrix(1.3333333 0 0 -1.3333333 188.11067 101.10027)"/><path clip-path="url(#l)" d="m0 0 1.131-1.132.424 1.505 1.546.379-1.13 1.137.492 1.505-1.535-.363-1.13 1.13-.423-1.512-1.482-.374 1.059-1.143-.422-1.496zm1.381-2.089-1.535 1.535-2.031-.503.579 2.055-1.441 1.556 2.018.509.576 2.056 1.537-1.537 2.131.503-.673-2.061 1.536-1.546-2.12-.521z" transform="matrix(1.3333333 0 0 -1.3333333 183.32493 101.91987)"/><path clip-path="url(#m)" d="m0 0-1.667-.825-.083-1.85-1.583 1.016-1.667-.816.167 1.85-1.584 1.025 1.667.833.167 1.85 1.5-1.017 1.666.817-.083-1.85z" fill="#ffd700" transform="matrix(1.3333333 0 0 -1.3333333 178 103.17773)"/><path clip-path="url(#n)" d="m0 0 1.336-.858.071 1.564 1.418.701-1.264.871.07 1.567-1.418-.695-1.269.86-.141-1.566-1.4-.7 1.343-.869-.141-1.558zm1.797-1.748-1.83 1.175-1.939-.95.193 2.142-1.825 1.181 1.935.966.191 2.134 1.731-1.173 1.915.939-.095-2.133 1.736-1.196-1.916-.949z" transform="matrix(1.3333333 0 0 -1.3333333 173.57747 105.0072)"/><path clip-path="url(#o)" d="m0 0 1.833-.083.834-1.642 1 1.567 1.833-.075-.833 1.65 1 1.566-1.834.083-.916 1.642-1-1.566-1.834.075.834-1.651z" fill="#ffd700" transform="matrix(1.3333333 0 0 -1.3333333 201.77733 100.28907)"/><path clip-path="url(#p)" d="m0 0 1.565-.071.702-1.382.841 1.32 1.552-.064-.705 1.397.844 1.322-1.541.07-.78 1.398-.852-1.335-1.553.064.703-1.392zm2.218-2.459-.967 1.901-2.101.096 1.058 1.806-.965 1.909 2.115-.086 1.149 1.798 1.052-1.886 2.127-.097-1.157-1.811.961-1.902-2.114.086z" transform="matrix(1.3333333 0 0 -1.3333333 202.34373 99.981067)"/><path clip-path="url(#q)" d="m0 0 1.75-.45.5-1.775 1.334 1.333 1.75-.433-.5 1.775 1.333 1.35-1.833.442-.5 1.783-1.334-1.333-1.75.433.5-1.783z" fill="#ffd700" transform="matrix(1.3333333 0 0 -1.3333333 212.22133 101.10027)"/><path clip-path="url(#r)" d="m0 0 1.481-.381.424-1.503 1.132 1.132 1.47-.364-.423 1.501 1.124 1.138-1.545.373-.424 1.513-1.132-1.131-1.47.364.422-1.505zm1.655-2.841-.576 2.048-2.018.519 1.441 1.546-.578 2.061 2.029-.502 1.536 1.535.576-2.053 2.122-.511-1.542-1.561.577-2.05-2.031.503z" transform="matrix(1.3333333 0 0 -1.3333333 212.8476 100.91733)"/><path clip-path="url(#s)" d="m0 0 1.667-.825.083-1.85 1.584 1.016 1.666-.816-.083 1.85 1.5 1.025-1.667.833-.083 1.85-1.583-1.017-1.667.817.167-1.85z" fill="#ffd700" transform="matrix(1.3333333 0 0 -1.3333333 222.22133 103.17773)"/><path clip-path="url(#t)" d="m0 0 1.407-.696.071-1.564 1.336.858 1.415-.693-.071 1.568 1.264.863-1.418.709-.07 1.563-1.336-.858-1.395.684.141-1.558zm1.017-3.15-.096 2.136-1.927.954 1.824 1.191-.193 2.142 1.939-.95 1.831 1.175.095-2.137 1.916-.957-1.736-1.187.096-2.132-1.918.94z" transform="matrix(1.3333333 0 0 -1.3333333 222.89187 103.138)"/><path clip-path="url(#u)" d="m0 0v-4c0-2.833 17.166-2.833 17.166 0v4c0-2.083-17.166-1.667-17.166 0" fill="#fff" transform="matrix(1.3333333 0 0 -1.3333333 188.66667 164.556)"/><path clip-path="url(#v)" d="m0 0v-3.372c0-1.051 3.66-1.875 8.333-1.875s8.333.824 8.333 1.875v3.304c-1.355-.823-5.166-.964-7.626-.964-2.31 0-4.632.137-6.372.378-1.438.198-2.233.426-2.668.654m8.333-5.747c-2.266 0-4.381.191-5.955.537-1.91.421-2.878 1.039-2.878 1.838v4l.5.001c.139-.738 7.261-1.54 13.096-.994 2.818.262 3.57.748 3.57.993h.5v-4c0-1.753-4.758-2.375-8.833-2.375" transform="matrix(1.3333333 0 0 -1.3333333 189 165.3932)"/><path clip-path="url(#w)" d="m0 0c1.5-7.667 15.333-7.833 15.333-7.833v2.583c-.333 1 .25 1.333 2.5 1.667.917.083.5 1.416.5 1.416s-6-1.083-10.25.584c-5.75 2.333-6.583 6.833-6.583 6.833s-.417-3.5-1.5-5.25" fill="#fff" transform="matrix(1.3333333 0 0 -1.3333333 168.222 157.556)"/><path clip-path="url(#x)" d="m0 0c1.422-6.731 12.955-7.457 14.819-7.529v2.285c-.086.269-.162.65.047.99.321.523 1.221.75 2.666.964.188.018.255.091.291.144.121.181.098.508.056.74-1.166-.185-6.309-.871-10.151.636-4.161 1.688-5.799 4.459-6.408 5.967-.206-1.163-.621-3.011-1.32-4.197m15.319-8.04-.253.003c-.035 0-3.533.054-7.168 1.05-4.868 1.336-7.775 3.751-8.408 6.985l-.019.096.052.084c1.041 1.681 1.46 5.113 1.464 5.147l.494.017c.008-.044.888-4.398 6.432-6.648 4.134-1.62 10.053-.58 10.111-.569l.218.039.066-.211c.027-.089.261-.882-.069-1.376-.141-.212-.365-.338-.648-.363-1.051-.156-2.069-.355-2.299-.73-.053-.086-.108-.242.014-.609l.013-.079z" transform="matrix(1.3333333 0 0 -1.3333333 168.57493 157.6172)"/><path clip-path="url(#y)" d="m0 0c-1.416-7.667-15.25-7.833-15.25-7.833v2.583c.25 1-.333 1.333-2.583 1.667-.917.083-.417 1.416-.417 1.416s6-1.083 10.25.584c5.667 2.333 6.334 6.833 6.334 6.833s.583-3.5 1.666-5.25" fill="#fff" transform="matrix(1.3333333 0 0 -1.3333333 231.888 157.556)"/><path clip-path="url(#z)" d="m0 0c-.065-.256-.1-.584.008-.754.031-.049.091-.116.257-.131 1.452-.215 2.352-.44 2.7-.96.177-.264.21-.588.102-1.016l.007-2.265c1.862.073 13.391.799 14.738 7.528-.707 1.191-1.192 3.055-1.445 4.214-.551-1.508-2.087-4.289-6.197-5.981-3.862-1.515-9.034-.818-10.17-.635m2.575-5.637v2.836c.099.427.037.583-.026.679-.256.384-1.278.583-2.344.741-.343.03-.528.213-.621.361-.313.499-.026 1.3.007 1.39l.073.195.205-.037c.061-.009 5.981-1.049 10.115.571 5.468 2.252 6.171 6.593 6.178 6.637l.494.004c.005-.034.587-3.471 1.632-5.159l.051-.082-.018-.095c-.597-3.236-3.48-5.652-8.336-6.987-3.624-.997-7.122-1.051-7.157-1.051z" transform="matrix(1.3333333 0 0 -1.3333333 207.78773 160.8216)"/><path clip-path="url(#A)" d="m0 0c-3.833 2.083-.833 4.25-.5 10.416.583-3.75 4.833-5.333 4.333-7.75-1.75-.083-2.583 2.584-3.416-.333z" fill="#fff" transform="matrix(1.3333333 0 0 -1.3333333 169.66667 153.66667)"/><path clip-path="url(#B)" d="m0 0c-.193-1.568-.537-2.845-.826-3.916-.625-2.32-.953-3.539 1.013-4.73l.354 1.983c.268.94.543 1.392.929 1.531.418.152.817-.117 1.238-.404.375-.254.793-.537 1.28-.583.079.985-.744 1.88-1.688 2.906-.841.914-1.767 1.921-2.3 3.213m.556-9.425-.305.165c-2.647 1.439-2.214 3.044-1.559 5.474.362 1.343.812 3.015.929 5.176l.497.024c.283-1.823 1.487-3.133 2.55-4.288 1.102-1.198 2.053-2.232 1.78-3.551l-.039-.189-.194-.01c-.745-.016-1.321.357-1.787.674-.327.222-.61.413-.787.348-.142-.051-.363-.296-.614-1.173z" transform="matrix(1.3333333 0 0 -1.3333333 169.17253 141.61333)"/><path clip-path="url(#C)" d="m0 0c3.833 2.166.667 4.25.333 10.416-.583-3.75-4.75-5.333-4.25-7.75 1.667-.083 2.5 2.584 3.334-.333l.583-2.25z" fill="#fff" transform="matrix(1.3333333 0 0 -1.3333333 230.444 153.66667)"/><path clip-path="url(#D)" d="m0 0c.08 0 .16-.013.241-.042.387-.138.664-.589.927-1.509l.519-2.005c1.932 1.214 1.588 2.392.934 4.636-.318 1.089-.697 2.389-.903 4.007-.526-1.287-1.431-2.291-2.254-3.203-.928-1.029-1.736-1.926-1.655-2.914.452.049.849.325 1.205.573.335.233.656.457.986.457m1.261-4.381v.48l-.575 2.219c-.25.874-.471 1.119-.612 1.169-.178.061-.468-.14-.774-.354-.451-.314-1.005-.688-1.719-.669l-.193.01-.039.189c-.273 1.319.662 2.356 1.744 3.556 1.041 1.153 2.22 2.462 2.504 4.283l.497-.024c.12-2.217.611-3.904 1.007-5.258.688-2.358 1.142-3.915-1.467-5.39z" transform="matrix(1.3333333 0 0 -1.3333333 228.42973 148.3972)"/><path clip-path="url(#E)" d="m0 0v.5l1.417 1.75h-1.25v.417h2v-.417l-1.5-1.75h1.5v-.5zm-1 1.083-.416 1-.334-1zm1-1.083h-.583l-.25.667h-1.083l-.25-.667h-.584l1.084 2.667h.583zm-4.083 2.25v-.75h.25.417c.083.083.166.083.166.167.084.083.084.083.084.166 0 .167 0 .25-.084.25-.083.084-.166.167-.25.167h-.333zm-.583-2.25v2.667h.833.667c.166-.084.333-.167.416-.25.084-.167.167-.334.167-.5 0-.167-.083-.334-.083-.417-.084-.167-.167-.25-.25-.333-.084 0-.167-.084-.25-.084-.167 0-.334-.083-.584-.083h-.333v-1z" transform="matrix(1.3333333 0 0 -1.3333333 201.888 171.22267)"/><path clip-path="url(#F)" d="m0 0s-.417-.416-1.167-.083-.833 21.417-.833 21.417c1.666 1.833 3 2.416 3 2.416l1-.833c-3.75-1.917-3.417-4.667-3.084-9.417.084-1.75.084-4 .5-6.166.584-2.75 1.75-5.084 1.834-6.834.083-1.083-1.25-.5-1.25-.5" fill="#73452b" transform="matrix(1.3333333 0 0 -1.3333333 203 155.44533)"/><path clip-path="url(#G)" d="m0 0c.033-8.263.267-20.71.774-21.265.643-.28.999.055 1.013.068l.061.059.077-.033c.179-.079.696-.243.937-.072.109.077.156.228.138.448-.046.955-.416 2.079-.845 3.381-.339 1.032-.724 2.201-.986 3.436-.337 1.753-.402 3.534-.459 5.104-.014.377-.027.74-.044 1.082l-.033.477c-.314 4.402-.504 7.086 3.018 8.97l-.795.662c-.288-.145-1.456-.786-2.856-2.317m1.27-21.624c-.175 0-.379.038-.613.141-.764.34-.887 16.566-.907 21.531v.049l.032.035c1.665 1.832 2.988 2.423 3.043 2.448l.071.03 1.205-1.004-.169-.086c-3.548-1.813-3.371-4.301-3.05-8.817l.034-.48c.017-.347.029-.709.043-1.087.058-1.562.122-3.333.455-5.064.259-1.22.642-2.382.979-3.407.434-1.32.809-2.459.857-3.445.023-.309-.059-.535-.243-.667-.34-.24-.903-.061-1.111.018-.101-.074-.314-.195-.626-.195" transform="matrix(1.3333333 0 0 -1.3333333 200.5 127.0644)"/><path clip-path="url(#H)" d="m0 0h1.5c-1.25-12.083-.167-19.25-.167-22.75 0-1.167.667-1.583.584-1.583-1.5-1.667-2.25.083-2.25.083z" fill="#73452b" transform="matrix(1.3333333 0 0 -1.3333333 199.55533 123.11133)"/><path clip-path="url(#I)" d="m0 0c.055-.113.325-.619.788-.694.346-.062.748.141 1.177.596-.163.186-.548.669-.548 1.572 0 .859-.065 1.922-.147 3.268-.249 4.113-.625 10.318.299 19.357h-1.238zm.908-.954c-.055 0-.109.004-.162.013-.655.108-.973.835-.986.866l-.011.024.001.027.334 24.373h1.762l-.014-.138c-.941-9.094-.562-15.328-.312-19.453.082-1.351.147-2.417.147-3.284 0-.862.385-1.294.512-1.436.05-.057.103-.115.067-.196l-.034-.073-.031-.001c-.442-.48-.87-.722-1.273-.722" transform="matrix(1.3333333 0 0 -1.3333333 199.278 155.41013)"/><path clip-path="url(#J)" d="m0 0c-1.417-.666-1.583.667-1.5.834 3.083 6.25 4.417 20 1.583 21.5l.167 1.333c1.083-.333 2.083-1.75 2.083-1.75.417-15.417 0-21.75-.25-22-1.5-1.583-2.083.25-2.166.417" fill="#a36629" transform="matrix(1.3333333 0 0 -1.3333333 196.444 155.44533)"/><path clip-path="url(#K)" d="m0 0c.007-.014.018-.038.031-.071.084-.202.339-.82.803-.906.324-.059.703.139 1.13.59.202.343.64 6.178.217 21.872-.143.194-.964 1.267-1.855 1.623l-.137-1.097c2.82-1.748 1.395-15.539-1.606-21.622-.021-.064.006-.463.257-.686.226-.203.57-.204 1.018-.007-.024.055-.044.102-.058.137-.01.025-.018.045-.024.056zm.948-1.237c-.054 0-.107.005-.159.014-.395.074-.658.409-.818.696-.723-.322-1.127-.134-1.34.084-.289.295-.349.788-.272.943 3.247 6.58 4.272 19.939 1.637 21.334l-.076.04.196 1.566.142-.043c1.112-.342 2.107-1.738 2.149-1.797l.022-.032.001-.037c.391-14.484.06-21.745-.287-22.093-.425-.448-.827-.675-1.195-.675" transform="matrix(1.3333333 0 0 -1.3333333 196.4824 154.92573)"/><path clip-path="url(#L)" d="m0 0c-.109.586.243 1.496.69 2.648.626 1.615 1.405 3.624 1.308 5.704l.25.011c.099-2.132-.69-4.169-1.325-5.805-.415-1.072-.774-1.996-.677-2.511z" transform="matrix(1.3333333 0 0 -1.3333333 196.16933 155.1432)"/><path clip-path="url(#M)" d="m0 0-.248.023c.157 1.666-.132 3.45-.91 5.614l.234.084c.792-2.2 1.086-4.017.924-5.721" transform="matrix(1.3333333 0 0 -1.3333333 203.16533 155.46093)"/><path clip-path="url(#N)" d="m0 0c.5.583.5.583 1.417.583.166 1.25 2.25 1.25 2.416-.333 1.667.333 2-.667 1.334-1.667 1.583.417 3 0 2.583-1.833 2.833-.75 1.75-2.75.5-3.167-.167-1.25-1.333-1.666-2.917-1.166-2-1.417-3.166-.917-4.083.5-2.25-.334-2.417.166-3.417 1.416-1.75-.75-2.083-.75-3.583.167-.083-1.167-.5-.833-1.25-.75.083-1.5-.5-2.167-1.833-1.667 1-2.083-1.584-3-2.834-1.25-1.166-.083-1.25.25-1.833.667-.5-1.667-2.333-1.417-2.667-.5-2.333.333-2.083 1.583-.166 1.667.166 1.333 1.333 1.083 2.083.916.083.834.583.667 1 .5-.25.584-.083.917.667 1.084-1.084 1.416-.417 1.916.666 2.416-.583 1.334.417 1.25 1.167 1.334-.083 1.416.333 1.666 1.833 1.833-.166.5.084.917.917.917-.5 1.416.167 1.742 1.667 1.5.25 2.058 4.666 1.083 4.333-1.75 1.25-.167 1.667-.417 2-1.417" fill="#009a3b" transform="matrix(1.3333333 0 0 -1.3333333 206.11067 115.556)"/><path clip-path="url(#O)" d="m0 0 .041-.057c.64-.896 1.665-1.052 2.287-.684.451.267.776.882.332 1.807l-.135.28.291-.109c.551-.206.968-.208 1.243-.007.319.235.465.771.421 1.55l-.007.147.146-.016c.137-.015.263-.038.379-.06.25-.047.43-.08.533.002.107.082.173.309.2.692l.014.205.175-.107c1.453-.886 1.744-.898 3.47-.158l.087.037.059-.074c.082-.103.159-.201.233-.294.803-1.026 1.074-1.371 3.068-1.077l.08.012.043-.068c.484-.747.977-1.146 1.552-1.257.651-.124 1.425.133 2.354.792l.051.035.06-.018c.897-.283 1.661-.265 2.154.049.337.214.539.555.6 1.015l.011.077.074.025c.595.198 1.224.83 1.203 1.506-.02.632-.623 1.137-1.696 1.421l-.116.031.026.117c.15.659.064 1.149-.256 1.458-.412.398-1.204.482-2.172.227l-.319-.083.182.273c.315.473.389.927.196 1.213-.206.308-.702.402-1.401.262l-.135-.027-.014.136c-.08.765-.643 1.114-1.167 1.122h-.016c-.441 0-.912-.243-.985-.791l-.014-.109h-.11c-.859 0-.859 0-1.322-.54l-.143-.167-.07.209c-.306.919-.661 1.168-1.898 1.333l-.122.016.014.122c.193 1.636-1.284 2.558-2.393 2.69-.721.086-1.588-.116-1.692-.97l-.015-.128-.129.02c-.838.134-1.349.078-1.56-.174-.176-.212-.166-.602.031-1.161l.059-.166h-.177c-.377 0-.641-.09-.762-.259-.113-.156-.082-.355-.035-.494l.048-.147-.153-.016c-1.444-.161-1.802-.349-1.723-1.702l.007-.119-.118-.012c-.082-.01-.167-.017-.253-.024-.387-.033-.789-.067-.923-.292-.099-.166-.062-.45.111-.844l.049-.112-.112-.051c-.608-.281-1.033-.545-1.125-.921-.081-.328.084-.755.506-1.306l.119-.156-.191-.042c-.351-.079-.559-.191-.638-.345-.068-.132-.049-.318.058-.568l.119-.277-.28.112c-.236.095-.48.181-.628.089-.108-.066-.176-.229-.201-.486l-.014-.139-.137.03c-.453.1-1.137.252-1.547-.036-.213-.15-.339-.403-.386-.774l-.013-.105-.105-.004c-.895-.039-1.378-.338-1.391-.614-.014-.287.466-.647 1.57-.805l.074-.01.026-.07c.139-.385.601-.66 1.11-.639.618.018 1.111.441 1.319 1.132l.05.167.142-.102c.12-.085.219-.168.312-.244.348-.288.559-.458 1.44-.399zm1.597-1.181c-.584 0-1.231.274-1.718.922-.927-.05-1.188.162-1.549.461-.051.042-.104.086-.162.131-.267-.699-.815-1.122-1.494-1.142-.575-.028-1.119.281-1.324.732-1.098.17-1.737.562-1.713 1.055.023.458.618.784 1.527.845.066.385.226.668.474.843.455.323 1.122.211 1.612.105.047.266.146.441.301.536.179.108.389.085.602.019-.05.206-.038.379.036.525.1.193.299.331.623.427-.393.553-.533.99-.439 1.368.111.449.523.736 1.154 1.037-.166.421-.182.735-.049.959.2.336.667.375 1.117.413.044.004.087.007.13.011-.054 1.349.401 1.657 1.807 1.828-.042.219-.006.415.108.573.107.148.33.321.795.356-.177.572-.155.979.065 1.243.265.316.798.405 1.669.28.164.759.926 1.182 1.948 1.06 1.4-.167 2.737-1.271 2.624-2.845 1.072-.155 1.565-.4 1.909-1.281.385.436.499.464 1.268.465.123.537.604.9 1.212.9h.021c.602-.009 1.247-.388 1.393-1.212.991.164 1.381-.171 1.528-.391.212-.317.193-.765-.045-1.234.926.187 1.691.063 2.123-.356.368-.354.486-.884.352-1.576 1.503-.432 1.753-1.198 1.767-1.623.024-.774-.63-1.47-1.301-1.726-.083-.491-.325-.877-.702-1.116-.547-.346-1.363-.38-2.306-.095-.966-.674-1.781-.933-2.496-.797-.619.119-1.165.544-1.669 1.299-2.066-.292-2.409.143-3.224 1.182-.054.07-.111.142-.171.218-1.655-.704-2.083-.702-3.439.109-.044-.352-.129-.558-.277-.672-.192-.15-.442-.104-.732-.05-.068.013-.14.026-.216.038.022-.797-.156-1.34-.529-1.614-.297-.218-.704-.256-1.212-.113.34-.937-.038-1.575-.54-1.872-.244-.144-.542-.225-.858-.225" transform="matrix(1.3333333 0 0 -1.3333333 190.63667 127.6048)"/><path clip-path="url(#P)" d="m0 0h-.25c0 .756-.278 1.226-.553 1.299-.227.06-.488-.132-.714-.528l-.196-.344-.037.395c-.056.615-.251.664-.498.727-.087.022-.177.044-.266.089l.111.224c.066-.033.139-.051.216-.071.289-.073.525-.171.635-.623.33.417.641.419.813.373.442-.118.739-.737.739-1.541" transform="matrix(1.3333333 0 0 -1.3333333 197.5 116.88933)"/><path clip-path="url(#Q)" d="m0 0c-.206.289-.542.478-.847.478-.012 0-.024-.001-.036-.001-.15-.008-.356-.066-.49-.3l-.217.124c.148.259.395.41.694.425.301.016.611-.106.861-.32.046.725.569 1.008.966 1.222.202.109.393.213.483.348l.209-.139c-.125-.187-.343-.304-.573-.429-.455-.246-.926-.5-.824-1.32z" transform="matrix(1.3333333 0 0 -1.3333333 201.41933 116.20827)"/><path clip-path="url(#R)" d="m0 0-.207.139c.299.447.395 1.382.395 1.763h.25c0-.323-.08-1.367-.438-1.902" transform="matrix(1.3333333 0 0 -1.3333333 205.69267 118.0924)"/><path clip-path="url(#S)" d="m0 0-.145.203c.418.299 1.115.355 1.531.387.099.009.212.017.238.026l.047-.104.096.094.032-.141c-.035-.095-.112-.101-.394-.124-.364-.029-1.043-.082-1.405-.341" transform="matrix(1.3333333 0 0 -1.3333333 210.76307 118.13547)"/><path clip-path="url(#T)" d="m0 0v.375c0 .524-.09 1.125-.792 1.125v.25c.612 0 .957-.363 1.028-1.079.493.391 1.071.092 1.369-.062l.076-.039-.112-.223-.079.04c-.438.227-.895.405-1.265-.087z" transform="matrix(1.3333333 0 0 -1.3333333 214.944 124.72267)"/><path clip-path="url(#U)" d="m0 0h-.25c0 .796-.151 1.023-.312 1.264l.208.138c.174-.26.354-.529.354-1.402" transform="matrix(1.3333333 0 0 -1.3333333 213.388 125.66667)"/><path clip-path="url(#V)" d="m0 0h-.25c0 .308.272.695.607.862.31.153.639.12.926-.095l-.15-.201c-.267.2-.509.15-.663.073-.278-.139-.47-.448-.47-.639" transform="matrix(1.3333333 0 0 -1.3333333 207.944 125)"/><path clip-path="url(#W)" d="m0 0h-.25c0 .065-.011.145-.021.231-.047.358-.118.899.43 1.134l.098-.23c-.346-.148-.333-.468-.281-.872.012-.098.024-.188.024-.263" transform="matrix(1.3333333 0 0 -1.3333333 203.27733 123.11133)"/><path clip-path="url(#X)" d="m0 0-.245.049c.097.485.327.713.495.879.14.138.196.2.172.322-.041.322-.235.583-.496.672-.307.105-.678-.038-1.043-.402l-.177.176c.588.589 1.067.543 1.301.462.351-.12.611-.461.661-.868.051-.25-.098-.397-.242-.54-.153-.151-.344-.34-.426-.75" transform="matrix(1.3333333 0 0 -1.3333333 190.60747 127.81053)"/><path clip-path="url(#Y)" d="m0 0c-.12.18-.545.274-1.023.117l-.079.237c.544.183 1.107.089 1.31-.215z" transform="matrix(1.3333333 0 0 -1.3333333 192.75 126.42573)"/><path clip-path="url(#Z)" d="m0 0c-.475.238-1.245.3-1.523.023l-.177.177c.399.4 1.325.268 1.811.024z" transform="matrix(1.3333333 0 0 -1.3333333 191.5924 122.14907)"/><path clip-path="url(#aa)" d="m0 0-.083.247c-.17.511-.581.531-1.093.505-.074-.004-.143-.007-.204-.007v.25c.057 0 .122.003.191.006.388.022.955.05 1.248-.458.602.862 1.069 1.045 1.369 1.014.207-.012.383-.123.47-.299l-.224-.111c-.022.045-.092.151-.26.16-.156.003-.618-.077-1.273-1.089z" transform="matrix(1.3333333 0 0 -1.3333333 193.5072 120.4928)"/><path clip-path="url(#ab)" d="m0 0-.134.234c-.67 1.17-1.776 1.743-2.347 1.529l-.088.234c.718.269 1.834-.375 2.523-1.428.296.599.703.629 1.067.656.087.007.177.013.266.028l.041-.247c-.097-.016-.193-.023-.289-.03-.393-.029-.703-.052-.947-.722z" transform="matrix(1.3333333 0 0 -1.3333333 201.47787 121.1732)"/><path clip-path="url(#ac)" d="m0 0-.177.224c-.351.451-.942 1.204-1.856.783l-.106.227c1.076.496 1.785-.376 2.137-.828.496.59.944.59 1.416.59v-.25c-.496 0-.854 0-1.317-.617z" transform="matrix(1.3333333 0 0 -1.3333333 210.2252 122.27213)"/><path clip-path="url(#ad)" d="m0 0-.215.129c.239.398.764.55 1.224.386.01.337.138.616.36.771.182.126.398.147.58.057l-.113-.224c-.099.051-.221.034-.324-.038-.191-.134-.283-.415-.245-.753l.028-.25-.217.129c-.378.227-.874.134-1.078-.207" transform="matrix(1.3333333 0 0 -1.3333333 194.1432 123.53053)"/><path clip-path="url(#ae)" d="m0 0-.083-1.75h.416.334c.083.084.083.084.166.084.084.083.084.166.167.25 0 .166.083.333.083.5 0 .166 0 .333-.083.416 0 .167 0 .25-.083.25-.084.084-.167.167-.25.167h-.417zm-.5.417h1c.167-.083.333-.083.417-.083.166-.084.333-.167.416-.25.084-.167.167-.25.167-.417.083-.167.083-.417.083-.667 0-.166 0-.333-.083-.5-.083-.166-.167-.333-.333-.416-.084-.084-.167-.167-.334-.25h-.5l-.916.083zm-1.083-1.333-.167 1-.5-.917zm.75-1.167-.584.083-.083.584-1 .25-.333-.584-.584.167 1.5 2.25.5-.083zm-3.5 3.083-.584-1.583.334-.167c.166 0 .25-.083.333-.083h.25c0 .083.083.167.167.25.083.083.166.25.166.417.084.166.167.333.167.416 0 .084 0 .25-.083.25 0 .084-.084.167-.167.25-.083 0-.167.084-.417.167zm-.334.584.834-.334c.25-.083.333-.166.416-.25.167-.083.25-.166.334-.333.083-.167.083-.25.083-.417 0-.25-.083-.416-.167-.666 0-.167-.083-.334-.25-.417-.083-.167-.25-.333-.416-.333-.084-.084-.25-.084-.334-.084-.166 0-.333 0-.5.084l-.916.333zm-1.833-2 1.167 2.333.416-.25-1.083-2.25zm-2.167 1.333 1.417 2.167.417-.25-.084-2 .917 1.416.417-.25-1.334-2.166-.5.25.084 2-.917-1.417zm-.25 3.583.417-.333-.917-1c-.166-.167-.25-.333-.25-.333-.083-.167-.083-.25-.083-.334 0-.083.083-.166.167-.25.083-.166.25-.166.333-.166s.167 0 .25.083c.083 0 .167.083.25.25l1 1.083.333-.333-.833-1-.5-.5c-.083-.083-.167-.083-.333-.083h-.334c-.166.083-.25.166-.416.25-.167.166-.334.333-.334.5-.083.083-.083.25-.083.333s0 .25.083.333c0 .084.167.25.334.5z" transform="matrix(1.3333333 0 0 -1.3333333 184.66667 163.44533)"/><path clip-path="url(#af)" d="m0 0-.834.417.334-.917zm1.333-.167-.417-.333-.5.25-.75-.667.25-.5-.416-.416-.917 2.5.417.333zm-2.417-2.083-1.5 2 .417.333 1.5-2zm-1.25.25.5.167c.084-.25.084-.5 0-.667-.083-.25-.166-.417-.416-.583-.334-.167-.584-.167-.917-.084-.25.084-.5.25-.75.584-.167.333-.25.666-.167 1 0 .25.167.5.5.75.25.083.5.166.75.083.167 0 .334-.083.5-.25l-.416-.333c-.084.083-.167.166-.334.166-.083 0-.166 0-.333-.083s-.25-.25-.25-.417c0-.166.083-.333.167-.583.166-.333.333-.417.5-.5.166-.083.333 0 .5.083.083.084.166.167.25.25 0 .167 0 .25-.084.417m-1.666-2-1.167 2.167.417.25 1.166-2.167zm-1.417-.667-.833 1.917-.667-.333-.167.416 1.834.75.166-.333-.666-.333.75-1.834zm-3.083-.166.416.166c.084-.166.167-.25.334-.25.083-.083.25-.083.333 0 .167 0 .25.084.333.167.084.083.084.167.084.25-.084.083-.084.083-.084.167h-.25-.416c-.25 0-.5 0-.584.083-.166.083-.333.25-.416.417v.333c.083.167.166.25.25.333.083.084.25.167.416.25.334.084.584.084.75 0 .167-.083.334-.25.417-.416l-.5-.167c-.083.083-.083.167-.167.167-.083.083-.25.083-.333 0-.167 0-.25-.084-.333-.167v-.167c0-.083 0-.083.083-.166h.5.583c.084 0 .25-.084.334-.167.083-.083.166-.167.166-.333.084-.167.084-.25 0-.417 0-.167-.083-.25-.166-.333-.167-.084-.334-.167-.5-.25-.334-.084-.584-.084-.75 0-.25.083-.417.25-.5.5m-2.584 1.166.5.084.25-1.334c.084-.166.084-.333.084-.416.083-.084.166-.167.25-.167.083-.083.166-.083.333 0 .167 0 .25.083.25.083.083.084.167.167.083.25v.417l-.333 1.333.5.084.25-1.25c.083-.25.083-.5.083-.584 0-.166 0-.25-.083-.333 0-.083-.083-.167-.167-.25-.166-.083-.333-.167-.5-.167-.25-.083-.416-.083-.5-.083-.166.083-.25.083-.333.167-.083.083-.167.166-.25.25 0 .166-.083.333-.167.583zm-.833-.166.5.083.25-1.5v-.5c-.083-.167-.167-.25-.25-.417-.083-.083-.25-.166-.5-.166s-.417 0-.583.166c-.167.084-.25.25-.25.584l.416.083c.084-.167.084-.25.167-.333 0-.084.083-.084.25-.084.083 0 .167.084.167.167.083.083.083.167.083.417l-.25 1.583z" transform="matrix(1.3333333 0 0 -1.3333333 229 158.556)"/></svg>