<?xml version="1.0" encoding="UTF-8" standalone="no"?>
<!-- Created with Inkscape (http://www.inkscape.org/) -->

<svg
   version="1.1"
   id="svg1"
   width="400"
   height="266.66666"
   viewBox="0 0 400 266.66666"
   sodipodi:docname="gq.ai"
   xmlns:inkscape="http://www.inkscape.org/namespaces/inkscape"
   xmlns:sodipodi="http://sodipodi.sourceforge.net/DTD/sodipodi-0.dtd"
   xmlns="http://www.w3.org/2000/svg"
   xmlns:svg="http://www.w3.org/2000/svg">
  <defs
     id="defs1">
    <clipPath
       clipPathUnits="userSpaceOnUse"
       id="clipPath8">
      <path
         d="M 0,200 H 300 V 0 H 0 Z"
         transform="translate(-155.66601,-78.583004)"
         id="path8" />
    </clipPath>
    <clipPath
       clipPathUnits="userSpaceOnUse"
       id="clipPath10">
      <path
         d="M 0,200 H 300 V 0 H 0 Z"
         transform="translate(-155.9326,-78.292004)"
         id="path10" />
    </clipPath>
    <clipPath
       clipPathUnits="userSpaceOnUse"
       id="clipPath12">
      <path
         d="M 0,200 H 300 V 0 H 0 Z"
         transform="translate(-144.50001,-78.583004)"
         id="path12" />
    </clipPath>
    <clipPath
       clipPathUnits="userSpaceOnUse"
       id="clipPath14">
      <path
         d="M 0,200 H 300 V 0 H 0 Z"
         transform="translate(-141.7852,-76.581104)"
         id="path14" />
    </clipPath>
    <clipPath
       clipPathUnits="userSpaceOnUse"
       id="clipPath16">
      <path
         d="M 0,200 H 300 V 0 H 0 Z"
         transform="translate(-134.00001,-120.0996)"
         id="path16" />
    </clipPath>
    <clipPath
       clipPathUnits="userSpaceOnUse"
       id="clipPath18">
      <path
         d="M 0,200 H 300 V 0 H 0 Z"
         transform="translate(-144.4858,-80.8086)"
         id="path18" />
    </clipPath>
    <clipPath
       clipPathUnits="userSpaceOnUse"
       id="clipPath20">
      <path
         d="M 0,200 H 300 V 0 H 0 Z"
         transform="translate(-131.083,-87.333)"
         id="path20" />
    </clipPath>
    <clipPath
       clipPathUnits="userSpaceOnUse"
       id="clipPath22">
      <path
         d="M 0,200 H 300 V 0 H 0 Z"
         transform="translate(-126.8965,-88.131802)"
         id="path22" />
    </clipPath>
    <clipPath
       clipPathUnits="userSpaceOnUse"
       id="clipPath24">
      <path
         d="M 0,200 H 300 V 0 H 0 Z"
         transform="translate(-148.9165,-124.7832)"
         id="path24" />
    </clipPath>
    <clipPath
       clipPathUnits="userSpaceOnUse"
       id="clipPath26">
      <path
         d="M 0,200 H 300 V 0 H 0 Z"
         transform="translate(-145.29981,-124.8809)"
         id="path26" />
    </clipPath>
    <clipPath
       clipPathUnits="userSpaceOnUse"
       id="clipPath28">
      <path
         d="M 0,200 H 300 V 0 H 0 Z"
         transform="translate(-141.08301,-124.1748)"
         id="path28" />
    </clipPath>
    <clipPath
       clipPathUnits="userSpaceOnUse"
       id="clipPath30">
      <path
         d="M 0,200 H 300 V 0 H 0 Z"
         transform="translate(-137.4937,-123.5601)"
         id="path30" />
    </clipPath>
    <clipPath
       clipPathUnits="userSpaceOnUse"
       id="clipPath32">
      <path
         d="M 0,200 H 300 V 0 H 0 Z"
         transform="translate(-133.5,-122.61671)"
         id="path32" />
    </clipPath>
    <clipPath
       clipPathUnits="userSpaceOnUse"
       id="clipPath34">
      <path
         d="M 0,200 H 300 V 0 H 0 Z"
         transform="translate(-130.18311,-121.2446)"
         id="path34" />
    </clipPath>
    <clipPath
       clipPathUnits="userSpaceOnUse"
       id="clipPath36">
      <path
         d="M 0,200 H 300 V 0 H 0 Z"
         transform="translate(-151.333,-124.7832)"
         id="path36" />
    </clipPath>
    <clipPath
       clipPathUnits="userSpaceOnUse"
       id="clipPath38">
      <path
         d="M 0,200 H 300 V 0 H 0 Z"
         transform="translate(-151.7578,-125.0142)"
         id="path38" />
    </clipPath>
    <clipPath
       clipPathUnits="userSpaceOnUse"
       id="clipPath40">
      <path
         d="M 0,200 H 300 V 0 H 0 Z"
         transform="translate(-159.166,-124.1748)"
         id="path40" />
    </clipPath>
    <clipPath
       clipPathUnits="userSpaceOnUse"
       id="clipPath42">
      <path
         d="M 0,200 H 300 V 0 H 0 Z"
         transform="translate(-159.6357,-124.31201)"
         id="path42" />
    </clipPath>
    <clipPath
       clipPathUnits="userSpaceOnUse"
       id="clipPath44">
      <path
         d="M 0,200 H 300 V 0 H 0 Z"
         transform="translate(-166.666,-122.61671)"
         id="path44" />
    </clipPath>
    <clipPath
       clipPathUnits="userSpaceOnUse"
       id="clipPath46">
      <path
         d="M 0,200 H 300 V 0 H 0 Z"
         transform="translate(-167.16891,-122.6465)"
         id="path46" />
    </clipPath>
    <clipPath
       clipPathUnits="userSpaceOnUse"
       id="clipPath48">
      <path
         d="M 0,200 H 300 V 0 H 0 Z"
         transform="translate(-141.50001,-76.583002)"
         id="path48" />
    </clipPath>
    <clipPath
       clipPathUnits="userSpaceOnUse"
       id="clipPath50">
      <path
         d="M 0,200 H 300 V 0 H 0 Z"
         transform="translate(-141.75,-75.955102)"
         id="path50" />
    </clipPath>
    <clipPath
       clipPathUnits="userSpaceOnUse"
       id="clipPath52">
      <path
         d="M 0,200 H 300 V 0 H 0 Z"
         transform="translate(-126.1665,-81.833002)"
         id="path52" />
    </clipPath>
    <clipPath
       clipPathUnits="userSpaceOnUse"
       id="clipPath54">
      <path
         d="M 0,200 H 300 V 0 H 0 Z"
         transform="translate(-126.4312,-81.787102)"
         id="path54" />
    </clipPath>
    <clipPath
       clipPathUnits="userSpaceOnUse"
       id="clipPath56">
      <path
         d="M 0,200 H 300 V 0 H 0 Z"
         transform="translate(-173.916,-81.833002)"
         id="path56" />
    </clipPath>
    <clipPath
       clipPathUnits="userSpaceOnUse"
       id="clipPath58">
      <path
         d="M 0,200 H 300 V 0 H 0 Z"
         transform="translate(-155.8408,-79.383802)"
         id="path58" />
    </clipPath>
    <clipPath
       clipPathUnits="userSpaceOnUse"
       id="clipPath60">
      <path
         d="M 0,200 H 300 V 0 H 0 Z"
         transform="translate(-127.25001,-84.75)"
         id="path60" />
    </clipPath>
    <clipPath
       clipPathUnits="userSpaceOnUse"
       id="clipPath62">
      <path
         d="M 0,200 H 300 V 0 H 0 Z"
         transform="translate(-126.8794,-93.790005)"
         id="path62" />
    </clipPath>
    <clipPath
       clipPathUnits="userSpaceOnUse"
       id="clipPath64">
      <path
         d="M 0,200 H 300 V 0 H 0 Z"
         transform="translate(-172.833,-84.75)"
         id="path64" />
    </clipPath>
    <clipPath
       clipPathUnits="userSpaceOnUse"
       id="clipPath66">
      <path
         d="M 0,200 H 300 V 0 H 0 Z"
         transform="translate(-171.3223,-88.702102)"
         id="path66" />
    </clipPath>
    <clipPath
       clipPathUnits="userSpaceOnUse"
       id="clipPath68">
      <path
         d="M 0,200 H 300 V 0 H 0 Z"
         transform="translate(-151.416,-71.582999)"
         id="path68" />
    </clipPath>
    <clipPath
       clipPathUnits="userSpaceOnUse"
       id="clipPath70">
      <path
         d="M 0,200 H 300 V 0 H 0 Z"
         transform="translate(-152.25,-83.416005)"
         id="path70" />
    </clipPath>
    <clipPath
       clipPathUnits="userSpaceOnUse"
       id="clipPath72">
      <path
         d="M 0,200 H 300 V 0 H 0 Z"
         transform="translate(-150.375,-104.7017)"
         id="path72" />
    </clipPath>
    <clipPath
       clipPathUnits="userSpaceOnUse"
       id="clipPath74">
      <path
         d="M 0,200 H 300 V 0 H 0 Z"
         transform="translate(-149.6665,-107.66651)"
         id="path74" />
    </clipPath>
    <clipPath
       clipPathUnits="userSpaceOnUse"
       id="clipPath76">
      <path
         d="M 0,200 H 300 V 0 H 0 Z"
         transform="translate(-149.4585,-83.442405)"
         id="path76" />
    </clipPath>
    <clipPath
       clipPathUnits="userSpaceOnUse"
       id="clipPath78">
      <path
         d="M 0,200 H 300 V 0 H 0 Z"
         transform="translate(-147.333,-83.416005)"
         id="path78" />
    </clipPath>
    <clipPath
       clipPathUnits="userSpaceOnUse"
       id="clipPath80">
      <path
         d="M 0,200 H 300 V 0 H 0 Z"
         transform="translate(-147.3618,-83.805705)"
         id="path80" />
    </clipPath>
    <clipPath
       clipPathUnits="userSpaceOnUse"
       id="clipPath82">
      <path
         d="M 0,200 H 300 V 0 H 0 Z"
         transform="translate(-147.127,-83.642602)"
         id="path82" />
    </clipPath>
    <clipPath
       clipPathUnits="userSpaceOnUse"
       id="clipPath84">
      <path
         d="M 0,200 H 300 V 0 H 0 Z"
         transform="translate(-152.374,-83.404305)"
         id="path84" />
    </clipPath>
    <clipPath
       clipPathUnits="userSpaceOnUse"
       id="clipPath86">
      <path
         d="M 0,200 H 300 V 0 H 0 Z"
         transform="translate(-154.58301,-113.333)"
         id="path86" />
    </clipPath>
    <clipPath
       clipPathUnits="userSpaceOnUse"
       id="clipPath88">
      <path
         d="M 0,200 H 300 V 0 H 0 Z"
         transform="translate(-142.97751,-104.2964)"
         id="path88" />
    </clipPath>
    <clipPath
       clipPathUnits="userSpaceOnUse"
       id="clipPath90">
      <path
         d="M 0,200 H 300 V 0 H 0 Z"
         transform="translate(-148.125,-112.33301)"
         id="path90" />
    </clipPath>
    <clipPath
       clipPathUnits="userSpaceOnUse"
       id="clipPath92">
      <path
         d="M 0,200 H 300 V 0 H 0 Z"
         transform="translate(-151.0645,-112.8438)"
         id="path92" />
    </clipPath>
    <clipPath
       clipPathUnits="userSpaceOnUse"
       id="clipPath94">
      <path
         d="M 0,200 H 300 V 0 H 0 Z"
         transform="translate(-154.26951,-111.4307)"
         id="path94" />
    </clipPath>
    <clipPath
       clipPathUnits="userSpaceOnUse"
       id="clipPath96">
      <path
         d="M 0,200 H 300 V 0 H 0 Z"
         transform="translate(-158.07231,-111.3984)"
         id="path96" />
    </clipPath>
    <clipPath
       clipPathUnits="userSpaceOnUse"
       id="clipPath98">
      <path
         d="M 0,200 H 300 V 0 H 0 Z"
         transform="translate(-161.208,-106.458)"
         id="path98" />
    </clipPath>
    <clipPath
       clipPathUnits="userSpaceOnUse"
       id="clipPath100">
      <path
         d="M 0,200 H 300 V 0 H 0 Z"
         transform="translate(-160.041,-105.75)"
         id="path100" />
    </clipPath>
    <clipPath
       clipPathUnits="userSpaceOnUse"
       id="clipPath102">
      <path
         d="M 0,200 H 300 V 0 H 0 Z"
         transform="translate(-155.958,-106.25)"
         id="path102" />
    </clipPath>
    <clipPath
       clipPathUnits="userSpaceOnUse"
       id="clipPath104">
      <path
         d="M 0,200 H 300 V 0 H 0 Z"
         transform="translate(-152.458,-107.66651)"
         id="path104" />
    </clipPath>
    <clipPath
       clipPathUnits="userSpaceOnUse"
       id="clipPath106">
      <path
         d="M 0,200 H 300 V 0 H 0 Z"
         transform="translate(-142.95561,-104.14211)"
         id="path106" />
    </clipPath>
    <clipPath
       clipPathUnits="userSpaceOnUse"
       id="clipPath108">
      <path
         d="M 0,200 H 300 V 0 H 0 Z"
         transform="translate(-144.5625,-105.18071)"
         id="path108" />
    </clipPath>
    <clipPath
       clipPathUnits="userSpaceOnUse"
       id="clipPath110">
      <path
         d="M 0,200 H 300 V 0 H 0 Z"
         transform="translate(-143.6943,-108.3882)"
         id="path110" />
    </clipPath>
    <clipPath
       clipPathUnits="userSpaceOnUse"
       id="clipPath112">
      <path
         d="M 0,200 H 300 V 0 H 0 Z"
         transform="translate(-145.1304,-109.6304)"
         id="path112" />
    </clipPath>
    <clipPath
       clipPathUnits="userSpaceOnUse"
       id="clipPath114">
      <path
         d="M 0,200 H 300 V 0 H 0 Z"
         transform="translate(-151.10841,-109.1201)"
         id="path114" />
    </clipPath>
    <clipPath
       clipPathUnits="userSpaceOnUse"
       id="clipPath116">
      <path
         d="M 0,200 H 300 V 0 H 0 Z"
         transform="translate(-157.6689,-108.29591)"
         id="path116" />
    </clipPath>
    <clipPath
       clipPathUnits="userSpaceOnUse"
       id="clipPath118">
      <path
         d="M 0,200 H 300 V 0 H 0 Z"
         transform="translate(-145.6074,-107.35211)"
         id="path118" />
    </clipPath>
    <clipPath
       clipPathUnits="userSpaceOnUse"
       id="clipPath120">
      <path
         d="M 0,200 H 300 V 0 H 0 Z"
         transform="translate(-138.50001,-77.416004)"
         id="path120" />
    </clipPath>
    <clipPath
       clipPathUnits="userSpaceOnUse"
       id="clipPath122">
      <path
         d="M 0,200 H 300 V 0 H 0 Z"
         transform="translate(-171.75,-81.083002)"
         id="path122" />
    </clipPath>
  </defs>
  <sodipodi:namedview
     id="namedview1"
     pagecolor="#ffffff"
     bordercolor="#000000"
     borderopacity="0.25"
     inkscape:showpageshadow="2"
     inkscape:pageopacity="0.0"
     inkscape:pagecheckerboard="0"
     inkscape:deskcolor="#d1d1d1">
    <inkscape:page
       x="0"
       y="0"
       inkscape:label="1"
       id="page1"
       width="400"
       height="266.66666"
       margin="0"
       bleed="0" />
  </sodipodi:namedview>
  <g
     id="layer-MC0"
     inkscape:groupmode="layer"
     inkscape:label="Layer 1">
    <path
       id="path1"
       d="M 0,0 H 300 V 200 H 0 Z"
       style="fill:#e32118;fill-opacity:1;fill-rule:nonzero;stroke:none"
       transform="matrix(1.3333333,0,0,-1.3333333,0,266.66667)" />
    <path
       id="path2"
       d="M 0,66.666 H 300 V 200 H 0 Z"
       style="fill:#ffffff;fill-opacity:1;fill-rule:nonzero;stroke:none"
       transform="matrix(1.3333333,0,0,-1.3333333,0,266.66667)" />
    <path
       id="path3"
       d="M 0,133.333 H 300 V 200 H 0 Z"
       style="fill:#3e9a00;fill-opacity:1;fill-rule:nonzero;stroke:none"
       transform="matrix(1.3333333,0,0,-1.3333333,0,266.66667)" />
    <path
       id="path4"
       d="m 0,0 v -200 l 75,100 z"
       style="fill:#0073ce;fill-opacity:1;fill-rule:nonzero;stroke:none"
       transform="matrix(1.3333333,0,0,-1.3333333,0,2.6666667e-4)" />
    <path
       id="path5"
       d="M 0,0 2.084,-3 4,-0.167 2.667,2.25 Z"
       style="fill:#ffffff;fill-opacity:1;fill-rule:nonzero;stroke:none"
       transform="matrix(1.3333333,0,0,-1.3333333,225.22133,150.22267)" />
    <path
       id="path6"
       d="M 0,0 1.746,-2.514 3.372,-0.109 2.261,1.906 Z M 1.752,-3.398 -0.67,0.088 2.403,2.682 3.958,-0.137 Z"
       style="fill:#000000;fill-opacity:1;fill-rule:nonzero;stroke:none"
       transform="matrix(1.3333333,0,0,-1.3333333,225.668,150.2812)" />
    <path
       id="path7"
       d="M 0,0 0.167,-3 C 0.167,-3 1,-3 1.75,-2.75 2.417,-2.5 3,-2 3,-2 l -0.083,1.583 z"
       style="fill:#ffffff;fill-opacity:1;fill-rule:nonzero;stroke:none"
       transform="matrix(1.3333333,0,0,-1.3333333,207.55467,161.88933)"
       clip-path="url(#clipPath8)" />
    <path
       id="path9"
       d="m 0,0 0.137,-2.449 c 0.289,0.017 0.8,0.071 1.267,0.227 0.46,0.172 0.889,0.485 1.074,0.627 l -0.067,1.25 z M -0.1,-2.959 H -0.336 L -0.533,0.582 2.89,0.093 2.989,-1.818 2.896,-1.898 C 2.871,-1.92 2.271,-2.431 1.571,-2.693 0.783,-2.956 -0.063,-2.959 -0.1,-2.959"
       style="fill:#000000;fill-opacity:1;fill-rule:nonzero;stroke:none"
       transform="matrix(1.3333333,0,0,-1.3333333,207.91013,162.27733)"
       clip-path="url(#clipPath10)" />
    <path
       id="path11"
       d="m 0,0 -0.167,-2.917 c 0,0 -0.75,0 -1.5,0.167 -0.666,0.167 -1.25,0.583 -1.25,0.583 l -0.833,2 z"
       style="fill:#ffffff;fill-opacity:1;fill-rule:nonzero;stroke:none"
       transform="matrix(1.3333333,0,0,-1.3333333,192.66667,161.88933)"
       clip-path="url(#clipPath12)" />
    <path
       id="path13"
       d="M 0,0 C 0.156,-0.102 0.612,-0.381 1.108,-0.506 1.57,-0.608 2.04,-0.645 2.312,-0.658 L 2.449,1.74 -0.667,1.602 Z M 2.784,-1.165 H 2.548 c -0.032,0 -0.786,0.002 -1.554,0.173 -0.711,0.178 -1.316,0.605 -1.341,0.624 l -0.058,0.041 -0.998,2.395 4.383,0.196 z"
       style="fill:#000000;fill-opacity:1;fill-rule:nonzero;stroke:none"
       transform="matrix(1.3333333,0,0,-1.3333333,189.04693,164.55853)"
       clip-path="url(#clipPath14)" />
    <path
       id="path15"
       d="m 0,0 h 31.916 v -33.434 c 0,-11.25 -14.666,-2.583 -15.916,-8.583 -2.167,6.167 -15.917,-2.75 -15.917,9.25 C 0.083,-21.1 0,0 0,0"
       style="fill:#ffffff;fill-opacity:1;fill-rule:nonzero;stroke:none"
       transform="matrix(1.3333333,0,0,-1.3333333,178.66667,106.53387)"
       clip-path="url(#clipPath16)" />
    <path
       id="path17"
       d="m 0,0 c 2.378,0 4.484,-0.253 5.473,-2.023 0.902,2.075 3.73,1.996 6.706,1.906 2.855,-0.078 5.806,-0.168 7.523,1.498 0.995,0.967 1.478,2.431 1.478,4.476 v 33.184 h -31.415 c 0.009,-2.421 0.082,-21.667 0.082,-32.517 0,-2.336 0.52,-3.979 1.589,-5.026 C -6.9,-0.133 -4.123,-0.073 -1.439,-0.02 -0.953,-0.01 -0.471,0 0,0 m 5.576,-3.655 -0.298,0.846 c -0.846,2.41 -3.693,2.354 -6.707,2.289 -2.793,-0.058 -5.672,-0.116 -7.486,1.661 -1.169,1.145 -1.738,2.907 -1.738,5.383 0,11.534 -0.082,32.555 -0.083,32.766 l -10e-4,0.251 H 21.68 V 5.857 C 21.68,3.67 21.147,2.088 20.049,1.022 18.181,-0.792 14.983,-0.695 12.165,-0.617 8.99,-0.526 6.245,-0.444 5.759,-2.776 Z"
       style="fill:#000000;fill-opacity:1;fill-rule:nonzero;stroke:none"
       transform="matrix(1.3333333,0,0,-1.3333333,192.64773,158.92187)"
       clip-path="url(#clipPath18)" />
    <path
       id="path19"
       d="M 0,0 -2.167,-3 -4.5,0.833 -2.75,2.667 Z"
       style="fill:#ffffff;fill-opacity:1;fill-rule:nonzero;stroke:none"
       transform="matrix(1.3333333,0,0,-1.3333333,174.77733,150.22267)"
       clip-path="url(#clipPath20)" />
    <path
       id="path21"
       d="m 0,0 2.038,-3.348 1.819,2.52 -2.414,2.342 z M 2.002,-4.25 -0.627,0.068 1.43,2.223 4.516,-0.77 Z"
       style="fill:#000000;fill-opacity:1;fill-rule:nonzero;stroke:none"
       transform="matrix(1.3333333,0,0,-1.3333333,169.19533,149.1576)"
       clip-path="url(#clipPath22)" />
    <path
       id="path23"
       d="m 0,0 -1.833,-0.083 -0.917,-1.642 -1,1.567 -1.833,-0.075 0.833,1.65 -1,1.566 1.917,0.083 L -3,4.708 -2,3.142 -0.167,3.217 -1,1.566 Z"
       style="fill:#ffd700;fill-opacity:1;fill-rule:nonzero;stroke:none"
       transform="matrix(1.3333333,0,0,-1.3333333,198.55533,100.28907)"
       clip-path="url(#clipPath24)" />
    <path
       id="path25"
       d="m 0,0 0.853,-1.335 0.78,1.397 1.54,0.07 L 2.329,1.454 3.035,2.852 1.483,2.788 0.642,4.107 -0.06,2.725 -1.689,2.655 -0.846,1.333 -1.552,-0.064 Z m 0.881,-2.31 -1.148,1.798 -2.115,-0.086 0.961,1.902 -1.156,1.813 2.203,0.095 L 0.592,5.114 1.75,3.3 3.865,3.386 2.904,1.483 4.06,-0.328 1.934,-0.425 Z"
       style="fill:#000000;fill-opacity:1;fill-rule:nonzero;stroke:none"
       transform="matrix(1.3333333,0,0,-1.3333333,193.73307,100.1588)"
       clip-path="url(#clipPath26)" />
    <path
       id="path27"
       d="m 0,0 -1.833,-0.45 -0.5,-1.775 -1.334,1.333 -1.75,-0.433 0.5,1.775 -1.25,1.35 1.75,0.442 0.5,1.783 1.334,-1.333 1.833,0.433 -0.583,-1.783 z"
       style="fill:#ffd700;fill-opacity:1;fill-rule:nonzero;stroke:none"
       transform="matrix(1.3333333,0,0,-1.3333333,188.11067,101.10027)"
       clip-path="url(#clipPath28)" />
    <path
       id="path29"
       d="M 0,0 1.131,-1.132 1.555,0.373 3.101,0.752 1.971,1.889 2.463,3.394 0.928,3.031 -0.202,4.161 -0.625,2.649 -2.107,2.275 -1.048,1.132 -1.47,-0.364 Z m 1.381,-2.089 -1.535,1.535 -2.031,-0.503 0.579,2.055 -1.441,1.556 2.018,0.509 0.576,2.056 L 1.084,3.582 3.215,4.085 2.542,2.024 4.078,0.478 1.958,-0.043 Z"
       style="fill:#000000;fill-opacity:1;fill-rule:nonzero;stroke:none"
       transform="matrix(1.3333333,0,0,-1.3333333,183.32493,101.91987)"
       clip-path="url(#clipPath30)" />
    <path
       id="path31"
       d="M 0,0 -1.667,-0.825 -1.75,-2.675 -3.333,-1.659 -5,-2.475 l 0.167,1.85 -1.584,1.025 1.667,0.833 0.167,1.85 1.5,-1.017 1.666,0.817 -0.083,-1.85 z"
       style="fill:#ffd700;fill-opacity:1;fill-rule:nonzero;stroke:none"
       transform="matrix(1.3333333,0,0,-1.3333333,178,103.17773)"
       clip-path="url(#clipPath32)" />
    <path
       id="path33"
       d="M 0,0 1.336,-0.858 1.407,0.706 2.825,1.407 1.561,2.278 1.631,3.845 0.213,3.15 -1.056,4.01 -1.197,2.444 l -1.4,-0.7 1.343,-0.869 -0.141,-1.558 z m 1.797,-1.748 -1.83,1.175 -1.939,-0.95 0.193,2.142 L -3.604,1.8 -1.669,2.766 -1.478,4.9 0.253,3.727 2.168,4.666 2.073,2.533 3.809,1.337 1.893,0.388 Z"
       style="fill:#000000;fill-opacity:1;fill-rule:nonzero;stroke:none"
       transform="matrix(1.3333333,0,0,-1.3333333,173.57747,105.0072)"
       clip-path="url(#clipPath34)" />
    <path
       id="path35"
       d="m 0,0 1.833,-0.083 0.834,-1.642 1,1.567 1.833,-0.075 -0.833,1.65 1,1.566 -1.834,0.083 -0.916,1.642 -1,-1.566 -1.834,0.075 0.834,-1.651 z"
       style="fill:#ffd700;fill-opacity:1;fill-rule:nonzero;stroke:none"
       transform="matrix(1.3333333,0,0,-1.3333333,201.77733,100.28907)"
       clip-path="url(#clipPath36)" />
    <path
       id="path37"
       d="M 0,0 1.565,-0.071 2.267,-1.453 3.108,-0.133 4.66,-0.197 3.955,1.2 4.799,2.522 3.258,2.592 2.478,3.99 1.626,2.655 0.073,2.719 0.776,1.327 Z M 2.218,-2.459 1.251,-0.558 -0.85,-0.462 0.208,1.344 -0.757,3.253 1.358,3.167 2.507,4.965 3.559,3.079 5.686,2.982 4.529,1.171 5.49,-0.731 3.376,-0.645 Z"
       style="fill:#000000;fill-opacity:1;fill-rule:nonzero;stroke:none"
       transform="matrix(1.3333333,0,0,-1.3333333,202.34373,99.981067)"
       clip-path="url(#clipPath38)" />
    <path
       id="path39"
       d="m 0,0 1.75,-0.45 0.5,-1.775 1.334,1.333 1.75,-0.433 L 4.834,0.45 6.167,1.8 4.334,2.242 3.834,4.025 2.5,2.692 0.75,3.125 1.25,1.342 Z"
       style="fill:#ffd700;fill-opacity:1;fill-rule:nonzero;stroke:none"
       transform="matrix(1.3333333,0,0,-1.3333333,212.22133,101.10027)"
       clip-path="url(#clipPath40)" />
    <path
       id="path41"
       d="M 0,0 1.481,-0.381 1.905,-1.884 3.037,-0.752 4.507,-1.116 4.084,0.385 5.208,1.523 3.663,1.896 3.239,3.409 2.107,2.278 0.637,2.642 1.059,1.137 Z M 1.655,-2.841 1.079,-0.793 -0.939,-0.274 0.502,1.272 -0.076,3.333 1.953,2.831 3.489,4.366 4.065,2.313 6.187,1.802 4.645,0.241 5.222,-1.809 3.191,-1.306 Z"
       style="fill:#000000;fill-opacity:1;fill-rule:nonzero;stroke:none"
       transform="matrix(1.3333333,0,0,-1.3333333,212.8476,100.91733)"
       clip-path="url(#clipPath42)" />
    <path
       id="path43"
       d="M 0,0 1.667,-0.825 1.75,-2.675 3.334,-1.659 5,-2.475 4.917,-0.625 6.417,0.4 4.75,1.233 4.667,3.083 3.084,2.066 1.417,2.883 1.584,1.033 Z"
       style="fill:#ffd700;fill-opacity:1;fill-rule:nonzero;stroke:none"
       transform="matrix(1.3333333,0,0,-1.3333333,222.22133,103.17773)"
       clip-path="url(#clipPath44)" />
    <path
       id="path45"
       d="M 0,0 1.407,-0.696 1.478,-2.26 2.814,-1.402 4.229,-2.095 4.158,-0.527 5.422,0.336 4.004,1.045 3.934,2.608 2.598,1.75 1.203,2.434 1.344,0.876 Z M 1.017,-3.15 0.921,-1.014 -1.006,-0.06 0.818,1.131 0.625,3.273 2.564,2.323 4.395,3.498 4.49,1.361 6.406,0.404 4.67,-0.783 4.766,-2.915 2.848,-1.975 Z"
       style="fill:#000000;fill-opacity:1;fill-rule:nonzero;stroke:none"
       transform="matrix(1.3333333,0,0,-1.3333333,222.89187,103.138)"
       clip-path="url(#clipPath46)" />
    <path
       id="path47"
       d="m 0,0 v -4 c 0,-2.833 17.166,-2.833 17.166,0 V 0 C 17.166,-2.083 0,-1.667 0,0"
       style="fill:#ffffff;fill-opacity:1;fill-rule:nonzero;stroke:none"
       transform="matrix(1.3333333,0,0,-1.3333333,188.66667,164.556)"
       clip-path="url(#clipPath48)" />
    <path
       id="path49"
       d="m 0,0 v -3.372 c 0,-1.051 3.66,-1.875 8.333,-1.875 4.673,0 8.333,0.824 8.333,1.875 v 3.304 C 15.311,-0.891 11.5,-1.032 9.04,-1.032 6.73,-1.032 4.408,-0.895 2.668,-0.654 1.23,-0.456 0.435,-0.228 0,0 m 8.333,-5.747 c -2.266,0 -4.381,0.191 -5.955,0.537 -1.91,0.421 -2.878,1.039 -2.878,1.838 v 4 L 0,0.629 c 0.139,-0.738 7.261,-1.54 13.096,-0.994 2.818,0.262 3.57,0.748 3.57,0.993 h 0.5 v -4 c 0,-1.753 -4.758,-2.375 -8.833,-2.375"
       style="fill:#000000;fill-opacity:1;fill-rule:nonzero;stroke:none"
       transform="matrix(1.3333333,0,0,-1.3333333,189,165.3932)"
       clip-path="url(#clipPath50)" />
    <path
       id="path51"
       d="m 0,0 c 1.5,-7.667 15.333,-7.833 15.333,-7.833 v 2.583 c -0.333,1 0.25,1.333 2.5,1.667 0.917,0.083 0.5,1.416 0.5,1.416 0,0 -6,-1.083 -10.25,0.584 C 2.333,0.75 1.5,5.25 1.5,5.25 1.5,5.25 1.083,1.75 0,0"
       style="fill:#ffffff;fill-opacity:1;fill-rule:nonzero;stroke:none"
       transform="matrix(1.3333333,0,0,-1.3333333,168.222,157.556)"
       clip-path="url(#clipPath52)" />
    <path
       id="path53"
       d="m 0,0 c 1.422,-6.731 12.955,-7.457 14.819,-7.529 v 2.285 c -0.086,0.269 -0.162,0.65 0.047,0.99 0.321,0.523 1.221,0.75 2.666,0.964 0.188,0.018 0.255,0.091 0.291,0.144 0.121,0.181 0.098,0.508 0.056,0.74 C 16.713,-2.591 11.57,-3.277 7.728,-1.77 3.567,-0.082 1.929,2.689 1.32,4.197 1.114,3.034 0.699,1.186 0,0 m 15.319,-8.04 -0.253,0.003 c -0.035,0 -3.533,0.054 -7.168,1.05 -4.868,1.336 -7.775,3.751 -8.408,6.985 l -0.019,0.096 0.052,0.084 c 1.041,1.681 1.46,5.113 1.464,5.147 l 0.494,0.017 c 0.008,-0.044 0.888,-4.398 6.432,-6.648 4.134,-1.62 10.053,-0.58 10.111,-0.569 l 0.218,0.039 0.066,-0.211 c 0.027,-0.089 0.261,-0.882 -0.069,-1.376 -0.141,-0.212 -0.365,-0.338 -0.648,-0.363 -1.051,-0.156 -2.069,-0.355 -2.299,-0.73 -0.053,-0.086 -0.108,-0.242 0.014,-0.609 l 0.013,-0.079 z"
       style="fill:#000000;fill-opacity:1;fill-rule:nonzero;stroke:none"
       transform="matrix(1.3333333,0,0,-1.3333333,168.57493,157.6172)"
       clip-path="url(#clipPath54)" />
    <path
       id="path55"
       d="m 0,0 c -1.416,-7.667 -15.25,-7.833 -15.25,-7.833 v 2.583 c 0.25,1 -0.333,1.333 -2.583,1.667 -0.917,0.083 -0.417,1.416 -0.417,1.416 0,0 6,-1.083 10.25,0.584 5.667,2.333 6.334,6.833 6.334,6.833 0,0 0.583,-3.5 1.666,-5.25"
       style="fill:#ffffff;fill-opacity:1;fill-rule:nonzero;stroke:none"
       transform="matrix(1.3333333,0,0,-1.3333333,231.888,157.556)"
       clip-path="url(#clipPath56)" />
    <path
       id="path57"
       d="m 0,0 c -0.065,-0.256 -0.1,-0.584 0.008,-0.754 0.031,-0.049 0.091,-0.116 0.257,-0.131 1.452,-0.215 2.352,-0.44 2.7,-0.96 0.177,-0.264 0.21,-0.588 0.102,-1.016 L 3.074,-5.126 C 4.936,-5.053 16.465,-4.327 17.812,2.402 17.105,3.593 16.62,5.457 16.367,6.616 15.816,5.108 14.28,2.327 10.17,0.635 6.308,-0.88 1.136,-0.183 0,0 m 2.575,-5.637 v 2.836 c 0.099,0.427 0.037,0.583 -0.026,0.679 -0.256,0.384 -1.278,0.583 -2.344,0.741 -0.343,0.03 -0.528,0.213 -0.621,0.361 -0.313,0.499 -0.026,1.3 0.007,1.39 l 0.073,0.195 0.205,-0.037 C -0.07,0.519 5.85,-0.521 9.984,1.099 c 5.468,2.252 6.171,6.593 6.178,6.637 L 16.656,7.74 C 16.661,7.706 17.243,4.269 18.288,2.581 L 18.339,2.499 18.321,2.404 C 17.724,-0.832 14.841,-3.248 9.985,-4.583 6.361,-5.58 2.863,-5.634 2.828,-5.634 Z"
       style="fill:#000000;fill-opacity:1;fill-rule:nonzero;stroke:none"
       transform="matrix(1.3333333,0,0,-1.3333333,207.78773,160.8216)"
       clip-path="url(#clipPath58)" />
    <path
       id="path59"
       d="M 0,0 C -3.833,2.083 -0.833,4.25 -0.5,10.416 0.083,6.666 4.333,5.083 3.833,2.666 2.083,2.583 1.25,5.25 0.417,2.333 Z"
       style="fill:#ffffff;fill-opacity:1;fill-rule:nonzero;stroke:none"
       transform="matrix(1.3333333,0,0,-1.3333333,169.66667,153.66667)"
       clip-path="url(#clipPath60)" />
    <path
       id="path61"
       d="m 0,0 c -0.193,-1.568 -0.537,-2.845 -0.826,-3.916 -0.625,-2.32 -0.953,-3.539 1.013,-4.73 l 0.354,1.983 c 0.268,0.94 0.543,1.392 0.929,1.531 C 1.888,-4.98 2.287,-5.249 2.708,-5.536 3.083,-5.79 3.501,-6.073 3.988,-6.119 4.067,-5.134 3.244,-4.239 2.3,-3.213 1.459,-2.299 0.533,-1.292 0,0 M 0.556,-9.425 0.251,-9.26 c -2.647,1.439 -2.214,3.044 -1.559,5.474 0.362,1.343 0.812,3.015 0.929,5.176 l 0.497,0.024 c 0.283,-1.823 1.487,-3.133 2.55,-4.288 1.102,-1.198 2.053,-2.232 1.78,-3.551 L 4.409,-6.614 4.215,-6.624 C 3.47,-6.64 2.894,-6.267 2.428,-5.95 2.101,-5.728 1.818,-5.537 1.641,-5.602 1.499,-5.653 1.278,-5.898 1.027,-6.775 Z"
       style="fill:#000000;fill-opacity:1;fill-rule:nonzero;stroke:none"
       transform="matrix(1.3333333,0,0,-1.3333333,169.17253,141.61333)"
       clip-path="url(#clipPath62)" />
    <path
       id="path63"
       d="m 0,0 c 3.833,2.166 0.667,4.25 0.333,10.416 -0.583,-3.75 -4.75,-5.333 -4.25,-7.75 1.667,-0.083 2.5,2.584 3.334,-0.333 L 0,0.083 Z"
       style="fill:#ffffff;fill-opacity:1;fill-rule:nonzero;stroke:none"
       transform="matrix(1.3333333,0,0,-1.3333333,230.444,153.66667)"
       clip-path="url(#clipPath64)" />
    <path
       id="path65"
       d="M 0,0 C 0.08,0 0.16,-0.013 0.241,-0.042 0.628,-0.18 0.905,-0.631 1.168,-1.551 L 1.687,-3.556 C 3.619,-2.342 3.275,-1.164 2.621,1.08 2.303,2.169 1.924,3.469 1.718,5.087 1.192,3.8 0.287,2.796 -0.536,1.884 -1.464,0.855 -2.272,-0.042 -2.191,-1.03 c 0.452,0.049 0.849,0.325 1.205,0.573 C -0.651,-0.224 -0.33,0 0,0 m 1.261,-4.381 v 0.48 l -0.575,2.219 c -0.25,0.874 -0.471,1.119 -0.612,1.169 -0.178,0.061 -0.468,-0.14 -0.774,-0.354 -0.451,-0.314 -1.005,-0.688 -1.719,-0.669 l -0.193,0.01 -0.039,0.189 c -0.273,1.319 0.662,2.356 1.744,3.556 1.041,1.153 2.22,2.462 2.504,4.283 L 2.094,6.478 C 2.214,4.261 2.705,2.574 3.101,1.22 3.789,-1.138 4.243,-2.695 1.634,-4.17 Z"
       style="fill:#000000;fill-opacity:1;fill-rule:nonzero;stroke:none"
       transform="matrix(1.3333333,0,0,-1.3333333,228.42973,148.3972)"
       clip-path="url(#clipPath66)" />
    <path
       id="path67"
       d="m 0,0 v 0.5 l 1.417,1.75 h -1.25 v 0.417 h 2 V 2.25 L 0.667,0.5 h 1.5 V 0 Z m -1,1.083 -0.416,1 -0.334,-1 z M 0,0 h -0.583 l -0.25,0.667 H -1.916 L -2.166,0 H -2.75 l 1.084,2.667 h 0.583 z M -4.083,2.25 V 1.5 h 0.25 0.417 c 0.083,0.083 0.166,0.083 0.166,0.167 0.084,0.083 0.084,0.083 0.084,0.166 0,0.167 0,0.25 -0.084,0.25 C -3.333,2.167 -3.416,2.25 -3.5,2.25 H -3.833 Z M -4.666,0 v 2.667 h 0.833 0.667 C -3,2.583 -2.833,2.5 -2.75,2.417 -2.666,2.25 -2.583,2.083 -2.583,1.917 -2.583,1.75 -2.666,1.583 -2.666,1.5 -2.75,1.333 -2.833,1.25 -2.916,1.167 -3,1.167 -3.083,1.083 -3.166,1.083 -3.333,1.083 -3.5,1 -3.75,1 H -4.083 V 0 Z"
       style="fill:#000000;fill-opacity:1;fill-rule:nonzero;stroke:none"
       transform="matrix(1.3333333,0,0,-1.3333333,201.888,171.22267)"
       clip-path="url(#clipPath68)" />
    <path
       id="path69"
       d="M 0,0 C 0,0 -0.417,-0.416 -1.167,-0.083 -1.917,0.25 -2,21.334 -2,21.334 -0.334,23.167 1,23.75 1,23.75 L 2,22.917 C -1.75,21 -1.417,18.25 -1.084,13.5 -1,11.75 -1,9.5 -0.584,7.334 0,4.584 1.166,2.25 1.25,0.5 1.333,-0.583 0,0 0,0"
       style="fill:#73452b;fill-opacity:1;fill-rule:nonzero;stroke:none"
       transform="matrix(1.3333333,0,0,-1.3333333,203,155.44533)"
       clip-path="url(#clipPath70)" />
    <path
       id="path71"
       d="m 0,0 c 0.033,-8.263 0.267,-20.71 0.774,-21.265 0.643,-0.28 0.999,0.055 1.013,0.068 l 0.061,0.059 0.077,-0.033 c 0.179,-0.079 0.696,-0.243 0.937,-0.072 0.109,0.077 0.156,0.228 0.138,0.448 -0.046,0.955 -0.416,2.079 -0.845,3.381 -0.339,1.032 -0.724,2.201 -0.986,3.436 -0.337,1.753 -0.402,3.534 -0.459,5.104 -0.014,0.377 -0.027,0.74 -0.044,1.082 l -0.033,0.477 c -0.314,4.402 -0.504,7.086 3.018,8.97 L 2.856,2.317 C 2.568,2.172 1.4,1.531 0,0 m 1.27,-21.624 c -0.175,0 -0.379,0.038 -0.613,0.141 -0.764,0.34 -0.887,16.566 -0.907,21.531 v 0.049 l 0.032,0.035 C 1.447,1.964 2.77,2.555 2.825,2.58 L 2.896,2.61 4.101,1.606 3.932,1.52 C 0.384,-0.293 0.561,-2.781 0.882,-7.297 l 0.034,-0.48 c 0.017,-0.347 0.029,-0.709 0.043,-1.087 0.058,-1.562 0.122,-3.333 0.455,-5.064 0.259,-1.22 0.642,-2.382 0.979,-3.407 0.434,-1.32 0.809,-2.459 0.857,-3.445 0.023,-0.309 -0.059,-0.535 -0.243,-0.667 -0.34,-0.24 -0.903,-0.061 -1.111,0.018 -0.101,-0.074 -0.314,-0.195 -0.626,-0.195"
       style="fill:#000000;fill-opacity:1;fill-rule:nonzero;stroke:none"
       transform="matrix(1.3333333,0,0,-1.3333333,200.5,127.0644)"
       clip-path="url(#clipPath72)" />
    <path
       id="path73"
       d="M 0,0 H 1.5 C 0.25,-12.083 1.333,-19.25 1.333,-22.75 c 0,-1.167 0.667,-1.583 0.584,-1.583 -1.5,-1.667 -2.25,0.083 -2.25,0.083 z"
       style="fill:#73452b;fill-opacity:1;fill-rule:nonzero;stroke:none"
       transform="matrix(1.3333333,0,0,-1.3333333,199.55533,123.11133)"
       clip-path="url(#clipPath74)" />
    <path
       id="path75"
       d="M 0,0 C 0.055,-0.113 0.325,-0.619 0.788,-0.694 1.134,-0.756 1.536,-0.553 1.965,-0.098 1.802,0.088 1.417,0.571 1.417,1.474 1.417,2.333 1.352,3.396 1.27,4.742 1.021,8.855 0.645,15.06 1.569,24.099 H 0.331 Z m 0.908,-0.954 c -0.055,0 -0.109,0.004 -0.162,0.013 -0.655,0.108 -0.973,0.835 -0.986,0.866 l -0.011,0.024 0.001,0.027 0.334,24.373 H 1.846 L 1.832,24.211 C 0.891,15.117 1.27,8.883 1.52,4.758 1.602,3.407 1.667,2.341 1.667,1.474 1.667,0.612 2.052,0.18 2.179,0.038 2.229,-0.019 2.282,-0.077 2.246,-0.158 L 2.212,-0.231 2.181,-0.232 C 1.739,-0.712 1.311,-0.954 0.908,-0.954"
       style="fill:#000000;fill-opacity:1;fill-rule:nonzero;stroke:none"
       transform="matrix(1.3333333,0,0,-1.3333333,199.278,155.41013)"
       clip-path="url(#clipPath76)" />
    <path
       id="path77"
       d="m 0,0 c -1.417,-0.666 -1.583,0.667 -1.5,0.834 3.083,6.25 4.417,20 1.583,21.5 l 0.167,1.333 c 1.083,-0.333 2.083,-1.75 2.083,-1.75 0.417,-15.417 0,-21.75 -0.25,-22 C 0.583,-1.666 0,0.167 -0.083,0.334"
       style="fill:#a36629;fill-opacity:1;fill-rule:nonzero;stroke:none"
       transform="matrix(1.3333333,0,0,-1.3333333,196.444,155.44533)"
       clip-path="url(#clipPath78)" />
    <path
       id="path79"
       d="m 0,0 c 0.007,-0.014 0.018,-0.038 0.031,-0.071 0.084,-0.202 0.339,-0.82 0.803,-0.906 0.324,-0.059 0.703,0.139 1.13,0.59 0.202,0.343 0.64,6.178 0.217,21.872 -0.143,0.194 -0.964,1.267 -1.855,1.623 L 0.189,22.011 C 3.009,20.263 1.584,6.472 -1.417,0.389 c -0.021,-0.064 0.006,-0.463 0.257,-0.686 0.226,-0.203 0.57,-0.204 1.018,-0.007 -0.024,0.055 -0.044,0.102 -0.058,0.137 -0.01,0.025 -0.018,0.045 -0.024,0.056 z m 0.948,-1.237 c -0.054,0 -0.107,0.005 -0.159,0.014 -0.395,0.074 -0.658,0.409 -0.818,0.696 -0.723,-0.322 -1.127,-0.134 -1.34,0.084 -0.289,0.295 -0.349,0.788 -0.272,0.943 3.247,6.58 4.272,19.939 1.637,21.334 l -0.076,0.04 0.196,1.566 0.142,-0.043 C 1.37,23.055 2.365,21.659 2.407,21.6 L 2.429,21.568 2.43,21.531 C 2.821,7.047 2.49,-0.214 2.143,-0.562 1.718,-1.01 1.316,-1.237 0.948,-1.237"
       style="fill:#000000;fill-opacity:1;fill-rule:nonzero;stroke:none"
       transform="matrix(1.3333333,0,0,-1.3333333,196.4824,154.92573)"
       clip-path="url(#clipPath80)" />
    <path
       id="path81"
       d="m 0,0 c -0.109,0.586 0.243,1.496 0.69,2.648 0.626,1.615 1.405,3.624 1.308,5.704 l 0.25,0.011 C 2.347,6.231 1.558,4.194 0.923,2.558 0.508,1.486 0.149,0.562 0.246,0.047 Z"
       style="fill:#000000;fill-opacity:1;fill-rule:nonzero;stroke:none"
       transform="matrix(1.3333333,0,0,-1.3333333,196.16933,155.1432)"
       clip-path="url(#clipPath82)" />
    <path
       id="path83"
       d="m 0,0 -0.248,0.023 c 0.157,1.666 -0.132,3.45 -0.91,5.614 l 0.234,0.084 C -0.132,3.521 0.162,1.704 0,0"
       style="fill:#000000;fill-opacity:1;fill-rule:nonzero;stroke:none"
       transform="matrix(1.3333333,0,0,-1.3333333,203.16533,155.46093)"
       clip-path="url(#clipPath84)" />
    <path
       id="path85"
       d="m 0,0 c 0.5,0.583 0.5,0.583 1.417,0.583 0.166,1.25 2.25,1.25 2.416,-0.333 1.667,0.333 2,-0.667 1.334,-1.667 1.583,0.417 3,0 2.583,-1.833 C 10.583,-4 9.5,-6 8.25,-6.417 8.083,-7.667 6.917,-8.083 5.333,-7.583 3.333,-9 2.167,-8.5 1.25,-7.083 -1,-7.417 -1.167,-6.917 -2.167,-5.667 -3.917,-6.417 -4.25,-6.417 -5.75,-5.5 -5.833,-6.667 -6.25,-6.333 -7,-6.25 c 0.083,-1.5 -0.5,-2.167 -1.833,-1.667 1,-2.083 -1.584,-3 -2.834,-1.25 -1.166,-0.083 -1.25,0.25 -1.833,0.667 -0.5,-1.667 -2.333,-1.417 -2.667,-0.5 -2.333,0.333 -2.083,1.583 -0.166,1.667 0.166,1.333 1.333,1.083 2.083,0.916 0.083,0.834 0.583,0.667 1,0.5 -0.25,0.584 -0.083,0.917 0.667,1.084 -1.084,1.416 -0.417,1.916 0.666,2.416 -0.583,1.334 0.417,1.25 1.167,1.334 -0.083,1.416 0.333,1.666 1.833,1.833 -0.166,0.5 0.084,0.917 0.917,0.917 -0.5,1.416 0.167,1.742 1.667,1.5 C -6.083,5.225 -1.667,4.25 -2,1.417 -0.75,1.25 -0.333,1 0,0"
       style="fill:#009a3b;fill-opacity:1;fill-rule:nonzero;stroke:none"
       transform="matrix(1.3333333,0,0,-1.3333333,206.11067,115.556)"
       clip-path="url(#clipPath86)" />
    <path
       id="path87"
       d="m 0,0 0.041,-0.057 c 0.64,-0.896 1.665,-1.052 2.287,-0.684 0.451,0.267 0.776,0.882 0.332,1.807 L 2.525,1.346 2.816,1.237 C 3.367,1.031 3.784,1.029 4.059,1.23 4.378,1.465 4.524,2.001 4.48,2.78 L 4.473,2.927 4.619,2.911 c 0.137,-0.015 0.263,-0.038 0.379,-0.06 0.25,-0.047 0.43,-0.08 0.533,0.002 0.107,0.082 0.173,0.309 0.2,0.692 L 5.745,3.75 5.92,3.643 C 7.373,2.757 7.664,2.745 9.39,3.485 L 9.477,3.522 9.536,3.448 C 9.618,3.345 9.695,3.247 9.769,3.154 10.572,2.128 10.843,1.783 12.837,2.077 l 0.08,0.012 0.043,-0.068 c 0.484,-0.747 0.977,-1.146 1.552,-1.257 0.651,-0.124 1.425,0.133 2.354,0.792 l 0.051,0.035 0.06,-0.018 c 0.897,-0.283 1.661,-0.265 2.154,0.049 0.337,0.214 0.539,0.555 0.6,1.015 l 0.011,0.077 0.074,0.025 c 0.595,0.198 1.224,0.83 1.203,1.506 -0.02,0.632 -0.623,1.137 -1.696,1.421 l -0.116,0.031 0.026,0.117 c 0.15,0.659 0.064,1.149 -0.256,1.458 -0.412,0.398 -1.204,0.482 -2.172,0.227 l -0.319,-0.083 0.182,0.273 c 0.315,0.473 0.389,0.927 0.196,1.213 -0.206,0.308 -0.702,0.402 -1.401,0.262 L 15.328,9.137 15.314,9.273 c -0.08,0.765 -0.643,1.114 -1.167,1.122 h -0.016 c -0.441,0 -0.912,-0.243 -0.985,-0.791 L 13.132,9.495 h -0.11 c -0.859,0 -0.859,0 -1.322,-0.54 l -0.143,-0.167 -0.07,0.209 c -0.306,0.919 -0.661,1.168 -1.898,1.333 l -0.122,0.016 0.014,0.122 C 9.674,12.104 8.197,13.026 7.088,13.158 6.367,13.244 5.5,13.042 5.396,12.188 L 5.381,12.06 5.252,12.08 C 4.414,12.214 3.903,12.158 3.692,11.906 3.516,11.694 3.526,11.304 3.723,10.745 L 3.782,10.579 H 3.605 C 3.228,10.579 2.964,10.489 2.843,10.32 2.73,10.164 2.761,9.965 2.808,9.826 L 2.856,9.679 2.703,9.663 C 1.259,9.502 0.901,9.314 0.98,7.961 L 0.987,7.842 0.869,7.83 C 0.787,7.82 0.702,7.813 0.616,7.806 0.229,7.773 -0.173,7.739 -0.307,7.514 -0.406,7.348 -0.369,7.064 -0.196,6.67 L -0.147,6.558 -0.259,6.507 C -0.867,6.226 -1.292,5.962 -1.384,5.586 -1.465,5.258 -1.3,4.831 -0.878,4.28 L -0.759,4.124 -0.95,4.082 C -1.301,4.003 -1.509,3.891 -1.588,3.737 -1.656,3.605 -1.637,3.419 -1.53,3.169 l 0.119,-0.277 -0.28,0.112 C -1.927,3.099 -2.171,3.185 -2.319,3.093 -2.427,3.027 -2.495,2.864 -2.52,2.607 L -2.534,2.468 -2.671,2.498 C -3.124,2.598 -3.808,2.75 -4.218,2.462 -4.431,2.312 -4.557,2.059 -4.604,1.688 L -4.617,1.583 -4.722,1.579 C -5.617,1.54 -6.1,1.241 -6.113,0.965 -6.127,0.678 -5.647,0.318 -4.543,0.16 l 0.074,-0.01 0.026,-0.07 c 0.139,-0.385 0.601,-0.66 1.11,-0.639 0.618,0.018 1.111,0.441 1.319,1.132 l 0.05,0.167 0.142,-0.102 c 0.12,-0.085 0.219,-0.168 0.312,-0.244 0.348,-0.288 0.559,-0.458 1.44,-0.399 z m 1.597,-1.181 c -0.584,0 -1.231,0.274 -1.718,0.922 -0.927,-0.05 -1.188,0.162 -1.549,0.461 -0.051,0.042 -0.104,0.086 -0.162,0.131 -0.267,-0.699 -0.815,-1.122 -1.494,-1.142 -0.575,-0.028 -1.119,0.281 -1.324,0.732 -1.098,0.17 -1.737,0.562 -1.713,1.055 0.023,0.458 0.618,0.784 1.527,0.845 0.066,0.385 0.226,0.668 0.474,0.843 0.455,0.323 1.122,0.211 1.612,0.105 0.047,0.266 0.146,0.441 0.301,0.536 0.179,0.108 0.389,0.085 0.602,0.019 -0.05,0.206 -0.038,0.379 0.036,0.525 0.1,0.193 0.299,0.331 0.623,0.427 -0.393,0.553 -0.533,0.99 -0.439,1.368 0.111,0.449 0.523,0.736 1.154,1.037 -0.166,0.421 -0.182,0.735 -0.049,0.959 0.2,0.336 0.667,0.375 1.117,0.413 0.044,0.004 0.087,0.007 0.13,0.011 -0.054,1.349 0.401,1.657 1.807,1.828 -0.042,0.219 -0.006,0.415 0.108,0.573 0.107,0.148 0.33,0.321 0.795,0.356 -0.177,0.572 -0.155,0.979 0.065,1.243 0.265,0.316 0.798,0.405 1.669,0.28 0.164,0.759 0.926,1.182 1.948,1.06 1.4,-0.167 2.737,-1.271 2.624,-2.845 1.072,-0.155 1.565,-0.4 1.909,-1.281 0.385,0.436 0.499,0.464 1.268,0.465 0.123,0.537 0.604,0.9 1.212,0.9 h 0.021 c 0.602,-0.009 1.247,-0.388 1.393,-1.212 0.991,0.164 1.381,-0.171 1.528,-0.391 C 17.284,8.725 17.265,8.277 17.027,7.808 17.953,7.995 18.718,7.871 19.15,7.452 19.518,7.098 19.636,6.568 19.502,5.876 21.005,5.444 21.255,4.678 21.269,4.253 21.293,3.479 20.639,2.783 19.968,2.527 19.885,2.036 19.643,1.65 19.266,1.411 18.719,1.065 17.903,1.031 16.96,1.316 15.994,0.642 15.179,0.383 14.464,0.519 13.845,0.638 13.299,1.063 12.795,1.818 10.729,1.526 10.386,1.961 9.571,3 9.517,3.07 9.46,3.142 9.4,3.218 7.745,2.514 7.317,2.516 5.961,3.327 5.917,2.975 5.832,2.769 5.684,2.655 5.492,2.505 5.242,2.551 4.952,2.605 4.884,2.618 4.812,2.631 4.736,2.643 4.758,1.846 4.58,1.303 4.207,1.029 3.91,0.811 3.503,0.773 2.995,0.916 3.335,-0.021 2.957,-0.659 2.455,-0.956 2.211,-1.1 1.913,-1.181 1.597,-1.181"
       style="fill:#000000;fill-opacity:1;fill-rule:nonzero;stroke:none"
       transform="matrix(1.3333333,0,0,-1.3333333,190.63667,127.6048)"
       clip-path="url(#clipPath88)" />
    <path
       id="path89"
       d="m 0,0 h -0.25 c 0,0.756 -0.278,1.226 -0.553,1.299 C -1.03,1.359 -1.291,1.167 -1.517,0.771 L -1.713,0.427 -1.75,0.822 c -0.056,0.615 -0.251,0.664 -0.498,0.727 -0.087,0.022 -0.177,0.044 -0.266,0.089 l 0.111,0.224 c 0.066,-0.033 0.139,-0.051 0.216,-0.071 0.289,-0.073 0.525,-0.171 0.635,-0.623 0.33,0.417 0.641,0.419 0.813,0.373 C -0.297,1.423 0,0.804 0,0"
       style="fill:#000000;fill-opacity:1;fill-rule:nonzero;stroke:none"
       transform="matrix(1.3333333,0,0,-1.3333333,197.5,116.88933)"
       clip-path="url(#clipPath90)" />
    <path
       id="path91"
       d="m 0,0 c -0.206,0.289 -0.542,0.478 -0.847,0.478 -0.012,0 -0.024,-0.001 -0.036,-0.001 -0.15,-0.008 -0.356,-0.066 -0.49,-0.3 L -1.59,0.301 c 0.148,0.259 0.395,0.41 0.694,0.425 0.301,0.016 0.611,-0.106 0.861,-0.32 0.046,0.725 0.569,1.008 0.966,1.222 0.202,0.109 0.393,0.213 0.483,0.348 L 1.623,1.837 C 1.498,1.65 1.28,1.533 1.05,1.408 0.595,1.162 0.124,0.908 0.226,0.088 Z"
       style="fill:#000000;fill-opacity:1;fill-rule:nonzero;stroke:none"
       transform="matrix(1.3333333,0,0,-1.3333333,201.41933,116.20827)"
       clip-path="url(#clipPath92)" />
    <path
       id="path93"
       d="m 0,0 -0.207,0.139 c 0.299,0.447 0.395,1.382 0.395,1.763 h 0.25 C 0.438,1.579 0.358,0.535 0,0"
       style="fill:#000000;fill-opacity:1;fill-rule:nonzero;stroke:none"
       transform="matrix(1.3333333,0,0,-1.3333333,205.69267,118.0924)"
       clip-path="url(#clipPath94)" />
    <path
       id="path95"
       d="M 0,0 -0.145,0.203 C 0.273,0.502 0.97,0.558 1.386,0.59 1.485,0.599 1.598,0.607 1.624,0.616 L 1.671,0.512 1.767,0.606 1.799,0.465 C 1.764,0.37 1.687,0.364 1.405,0.341 1.041,0.312 0.362,0.259 0,0"
       style="fill:#000000;fill-opacity:1;fill-rule:nonzero;stroke:none"
       transform="matrix(1.3333333,0,0,-1.3333333,210.76307,118.13547)"
       clip-path="url(#clipPath96)" />
    <path
       id="path97"
       d="M 0,0 V 0.375 C 0,0.899 -0.09,1.5 -0.792,1.5 V 1.75 C -0.18,1.75 0.165,1.387 0.236,0.671 0.729,1.062 1.307,0.763 1.605,0.609 L 1.681,0.57 1.569,0.347 1.49,0.387 C 1.052,0.614 0.595,0.792 0.225,0.3 Z"
       style="fill:#000000;fill-opacity:1;fill-rule:nonzero;stroke:none"
       transform="matrix(1.3333333,0,0,-1.3333333,214.944,124.72267)"
       clip-path="url(#clipPath98)" />
    <path
       id="path99"
       d="m 0,0 h -0.25 c 0,0.796 -0.151,1.023 -0.312,1.264 l 0.208,0.138 C -0.18,1.142 0,0.873 0,0"
       style="fill:#000000;fill-opacity:1;fill-rule:nonzero;stroke:none"
       transform="matrix(1.3333333,0,0,-1.3333333,213.388,125.66667)"
       clip-path="url(#clipPath100)" />
    <path
       id="path101"
       d="m 0,0 h -0.25 c 0,0.308 0.272,0.695 0.607,0.862 0.31,0.153 0.639,0.12 0.926,-0.095 L 1.133,0.566 C 0.866,0.766 0.624,0.716 0.47,0.639 0.192,0.5 0,0.191 0,0"
       style="fill:#000000;fill-opacity:1;fill-rule:nonzero;stroke:none"
       transform="matrix(1.3333333,0,0,-1.3333333,207.944,125)"
       clip-path="url(#clipPath102)" />
    <path
       id="path103"
       d="m 0,0 h -0.25 c 0,0.065 -0.011,0.145 -0.021,0.231 -0.047,0.358 -0.118,0.899 0.43,1.134 L 0.257,1.135 C -0.089,0.987 -0.076,0.667 -0.024,0.263 -0.012,0.165 0,0.075 0,0"
       style="fill:#000000;fill-opacity:1;fill-rule:nonzero;stroke:none"
       transform="matrix(1.3333333,0,0,-1.3333333,203.27733,123.11133)"
       clip-path="url(#clipPath104)" />
    <path
       id="path105"
       d="M 0,0 -0.245,0.049 C -0.148,0.534 0.082,0.762 0.25,0.928 0.39,1.066 0.446,1.128 0.422,1.25 0.381,1.572 0.187,1.833 -0.074,1.922 -0.381,2.027 -0.752,1.884 -1.117,1.52 L -1.294,1.696 C -0.706,2.285 -0.227,2.239 0.007,2.158 0.358,2.038 0.618,1.697 0.668,1.29 0.719,1.04 0.57,0.893 0.426,0.75 0.273,0.599 0.082,0.41 0,0"
       style="fill:#000000;fill-opacity:1;fill-rule:nonzero;stroke:none"
       transform="matrix(1.3333333,0,0,-1.3333333,190.60747,127.81053)"
       clip-path="url(#clipPath106)" />
    <path
       id="path107"
       d="m 0,0 c -0.12,0.18 -0.545,0.274 -1.023,0.117 l -0.079,0.237 c 0.544,0.183 1.107,0.089 1.31,-0.215 z"
       style="fill:#000000;fill-opacity:1;fill-rule:nonzero;stroke:none"
       transform="matrix(1.3333333,0,0,-1.3333333,192.75,126.42573)"
       clip-path="url(#clipPath108)" />
    <path
       id="path109"
       d="M 0,0 C -0.475,0.238 -1.245,0.3 -1.523,0.023 L -1.7,0.2 c 0.399,0.4 1.325,0.268 1.811,0.024 z"
       style="fill:#000000;fill-opacity:1;fill-rule:nonzero;stroke:none"
       transform="matrix(1.3333333,0,0,-1.3333333,191.5924,122.14907)"
       clip-path="url(#clipPath110)" />
    <path
       id="path111"
       d="M 0,0 -0.083,0.247 C -0.253,0.758 -0.664,0.778 -1.176,0.752 -1.25,0.748 -1.319,0.745 -1.38,0.745 v 0.25 c 0.057,0 0.122,0.003 0.191,0.006 0.388,0.022 0.955,0.05 1.248,-0.458 C 0.661,1.405 1.128,1.588 1.428,1.557 1.635,1.545 1.811,1.434 1.898,1.258 L 1.674,1.147 C 1.652,1.192 1.582,1.298 1.414,1.307 1.258,1.31 0.796,1.23 0.141,0.218 Z"
       style="fill:#000000;fill-opacity:1;fill-rule:nonzero;stroke:none"
       transform="matrix(1.3333333,0,0,-1.3333333,193.5072,120.4928)"
       clip-path="url(#clipPath112)" />
    <path
       id="path113"
       d="m 0,0 -0.134,0.234 c -0.67,1.17 -1.776,1.743 -2.347,1.529 L -2.569,1.997 C -1.851,2.266 -0.735,1.622 -0.046,0.569 0.25,1.168 0.657,1.198 1.021,1.225 1.108,1.232 1.198,1.238 1.287,1.253 L 1.328,1.006 C 1.231,0.99 1.135,0.983 1.039,0.976 0.646,0.947 0.336,0.924 0.092,0.254 Z"
       style="fill:#000000;fill-opacity:1;fill-rule:nonzero;stroke:none"
       transform="matrix(1.3333333,0,0,-1.3333333,201.47787,121.1732)"
       clip-path="url(#clipPath114)" />
    <path
       id="path115"
       d="m 0,0 -0.177,0.224 c -0.351,0.451 -0.942,1.204 -1.856,0.783 l -0.106,0.227 c 1.076,0.496 1.785,-0.376 2.137,-0.828 0.496,0.59 0.944,0.59 1.416,0.59 v -0.25 c -0.496,0 -0.854,0 -1.317,-0.617 z"
       style="fill:#000000;fill-opacity:1;fill-rule:nonzero;stroke:none"
       transform="matrix(1.3333333,0,0,-1.3333333,210.2252,122.27213)"
       clip-path="url(#clipPath116)" />
    <path
       id="path117"
       d="m 0,0 -0.215,0.129 c 0.239,0.398 0.764,0.55 1.224,0.386 0.01,0.337 0.138,0.616 0.36,0.771 0.182,0.126 0.398,0.147 0.58,0.057 L 1.836,1.119 C 1.737,1.17 1.615,1.153 1.512,1.081 1.321,0.947 1.229,0.666 1.267,0.328 L 1.295,0.078 1.078,0.207 C 0.7,0.434 0.204,0.341 0,0"
       style="fill:#000000;fill-opacity:1;fill-rule:nonzero;stroke:none"
       transform="matrix(1.3333333,0,0,-1.3333333,194.1432,123.53053)"
       clip-path="url(#clipPath118)" />
    <path
       id="path119"
       d="m 0,0 -0.083,-1.75 h 0.416 0.334 c 0.083,0.084 0.083,0.084 0.166,0.084 0.084,0.083 0.084,0.166 0.167,0.25 0,0.166 0.083,0.333 0.083,0.5 0,0.166 0,0.333 -0.083,0.416 0,0.167 0,0.25 -0.083,0.25 -0.084,0.084 -0.167,0.167 -0.25,0.167 H 0.25 Z m -0.5,0.417 h 1 C 0.667,0.334 0.833,0.334 0.917,0.334 1.083,0.25 1.25,0.167 1.333,0.084 1.417,-0.083 1.5,-0.166 1.5,-0.333 1.583,-0.5 1.583,-0.75 1.583,-1 c 0,-0.166 0,-0.333 -0.083,-0.5 C 1.417,-1.666 1.333,-1.833 1.167,-1.916 1.083,-2 1,-2.083 0.833,-2.166 h -0.5 l -0.916,0.083 z m -1.083,-1.333 -0.167,1 -0.5,-0.917 z m 0.75,-1.167 -0.584,0.083 -0.083,0.584 -1,0.25 -0.333,-0.584 -0.584,0.167 1.5,2.25 0.5,-0.083 z M -4.333,1 -4.917,-0.583 -4.583,-0.75 c 0.166,0 0.25,-0.083 0.333,-0.083 H -4 c 0,0.083 0.083,0.167 0.167,0.25 0.083,0.083 0.166,0.25 0.166,0.417 C -3.583,0 -3.5,0.167 -3.5,0.25 c 0,0.084 0,0.25 -0.083,0.25 0,0.084 -0.084,0.167 -0.167,0.25 -0.083,0 -0.167,0.084 -0.417,0.167 z M -4.667,1.584 -3.833,1.25 C -3.583,1.167 -3.5,1.084 -3.417,1 -3.25,0.917 -3.167,0.834 -3.083,0.667 -3,0.5 -3,0.417 -3,0.25 -3,0 -3.083,-0.166 -3.167,-0.416 -3.167,-0.583 -3.25,-0.75 -3.417,-0.833 -3.5,-1 -3.667,-1.166 -3.833,-1.166 -3.917,-1.25 -4.083,-1.25 -4.167,-1.25 c -0.166,0 -0.333,0 -0.5,0.084 l -0.916,0.333 z m -1.833,-2 1.167,2.333 0.416,-0.25 L -6,-0.583 Z m -2.167,1.333 1.417,2.167 0.417,-0.25 -0.084,-2 L -6,2.25 -5.583,2 l -1.334,-2.166 -0.5,0.25 0.084,2 L -8.25,0.667 Z M -8.917,4.5 -8.5,4.167 l -0.917,-1 C -9.583,3 -9.667,2.834 -9.667,2.834 -9.75,2.667 -9.75,2.584 -9.75,2.5 c 0,-0.083 0.083,-0.166 0.167,-0.25 0.083,-0.166 0.25,-0.166 0.333,-0.166 0.083,0 0.167,0 0.25,0.083 0.083,0 0.167,0.083 0.25,0.25 l 1,1.083 0.333,-0.333 -0.833,-1 -0.5,-0.5 C -8.833,1.584 -8.917,1.584 -9.083,1.584 h -0.334 c -0.166,0.083 -0.25,0.166 -0.416,0.25 -0.167,0.166 -0.334,0.333 -0.334,0.5 -0.083,0.083 -0.083,0.25 -0.083,0.333 0,0.083 0,0.25 0.083,0.333 0,0.084 0.167,0.25 0.334,0.5 z"
       style="fill:#000000;fill-opacity:1;fill-rule:nonzero;stroke:none"
       transform="matrix(1.3333333,0,0,-1.3333333,184.66667,163.44533)"
       clip-path="url(#clipPath120)" />
    <path
       id="path121"
       d="M 0,0 -0.834,0.417 -0.5,-0.5 Z M 1.333,-0.167 0.916,-0.5 l -0.5,0.25 -0.75,-0.667 0.25,-0.5 L -0.5,-1.833 -1.417,0.667 -1,1 Z m -2.417,-2.083 -1.5,2 0.417,0.333 1.5,-2 z m -1.25,0.25 0.5,0.167 c 0.084,-0.25 0.084,-0.5 0,-0.667 C -1.917,-2.75 -2,-2.917 -2.25,-3.083 -2.584,-3.25 -2.834,-3.25 -3.167,-3.167 c -0.25,0.084 -0.5,0.25 -0.75,0.584 -0.167,0.333 -0.25,0.666 -0.167,1 0,0.25 0.167,0.5 0.5,0.75 0.25,0.083 0.5,0.166 0.75,0.083 0.167,0 0.334,-0.083 0.5,-0.25 L -2.75,-1.333 c -0.084,0.083 -0.167,0.166 -0.334,0.166 -0.083,0 -0.166,0 -0.333,-0.083 -0.167,-0.083 -0.25,-0.25 -0.25,-0.417 0,-0.166 0.083,-0.333 0.167,-0.583 0.166,-0.333 0.333,-0.417 0.5,-0.5 0.166,-0.083 0.333,0 0.5,0.083 0.083,0.084 0.166,0.167 0.25,0.25 0,0.167 0,0.25 -0.084,0.417 M -4,-4 l -1.167,2.167 0.417,0.25 1.166,-2.167 z M -5.417,-4.667 -6.25,-2.75 -6.917,-3.083 -7.084,-2.667 -5.25,-1.917 -5.084,-2.25 -5.75,-2.583 -5,-4.417 Z m -3.083,-0.166 0.416,0.166 c 0.084,-0.166 0.167,-0.25 0.334,-0.25 0.083,-0.083 0.25,-0.083 0.333,0 0.167,0 0.25,0.084 0.333,0.167 C -7,-4.667 -7,-4.583 -7,-4.5 c -0.084,0.083 -0.084,0.083 -0.084,0.167 h -0.25 -0.416 c -0.25,0 -0.5,0 -0.584,0.083 C -8.5,-4.167 -8.667,-4 -8.75,-3.833 V -3.5 c 0.083,0.167 0.166,0.25 0.25,0.333 0.083,0.084 0.25,0.167 0.416,0.25 0.334,0.084 0.584,0.084 0.75,0 C -7.167,-3 -7,-3.167 -6.917,-3.333 l -0.5,-0.167 c -0.083,0.083 -0.083,0.167 -0.167,0.167 -0.083,0.083 -0.25,0.083 -0.333,0 -0.167,0 -0.25,-0.084 -0.333,-0.167 v -0.167 c 0,-0.083 0,-0.083 0.083,-0.166 h 0.5 0.583 c 0.084,0 0.25,-0.084 0.334,-0.167 0.083,-0.083 0.166,-0.167 0.166,-0.333 0.084,-0.167 0.084,-0.25 0,-0.417 0,-0.167 -0.083,-0.25 -0.166,-0.333 -0.167,-0.084 -0.334,-0.167 -0.5,-0.25 -0.334,-0.084 -0.584,-0.084 -0.75,0 -0.25,0.083 -0.417,0.25 -0.5,0.5 m -2.584,1.166 0.5,0.084 0.25,-1.334 c 0.084,-0.166 0.084,-0.333 0.084,-0.416 0.083,-0.084 0.166,-0.167 0.25,-0.167 0.083,-0.083 0.166,-0.083 0.333,0 0.167,0 0.25,0.083 0.25,0.083 0.083,0.084 0.167,0.167 0.083,0.25 v 0.417 l -0.333,1.333 0.5,0.084 0.25,-1.25 c 0.083,-0.25 0.083,-0.5 0.083,-0.584 0,-0.166 0,-0.25 -0.083,-0.333 0,-0.083 -0.083,-0.167 -0.167,-0.25 -0.166,-0.083 -0.333,-0.167 -0.5,-0.167 C -9.834,-6 -10,-6 -10.084,-6 c -0.166,0.083 -0.25,0.083 -0.333,0.167 -0.083,0.083 -0.167,0.166 -0.25,0.25 0,0.166 -0.083,0.333 -0.167,0.583 z m -0.833,-0.166 0.5,0.083 0.25,-1.5 v -0.5 c -0.083,-0.167 -0.167,-0.25 -0.25,-0.417 -0.083,-0.083 -0.25,-0.166 -0.5,-0.166 -0.25,0 -0.417,0 -0.583,0.166 -0.167,0.084 -0.25,0.25 -0.25,0.584 l 0.416,0.083 c 0.084,-0.167 0.084,-0.25 0.167,-0.333 0,-0.084 0.083,-0.084 0.25,-0.084 0.083,0 0.167,0.084 0.167,0.167 0.083,0.083 0.083,0.167 0.083,0.417 l -0.25,1.583 z"
       style="fill:#000000;fill-opacity:1;fill-rule:nonzero;stroke:none"
       transform="matrix(1.3333333,0,0,-1.3333333,229,158.556)"
       clip-path="url(#clipPath122)" />
  </g>
</svg>
