<?xml version="1.0" encoding="UTF-8" standalone="no"?>
<!-- Created with Inkscape (http://www.inkscape.org/) -->

<svg
   version="1.1"
   id="svg1"
   width="880"
   height="586.66669"
   viewBox="0 0 880 586.66669"
   sodipodi:docname="gu.ai"
   xmlns:inkscape="http://www.inkscape.org/namespaces/inkscape"
   xmlns:sodipodi="http://sodipodi.sourceforge.net/DTD/sodipodi-0.dtd"
   xmlns="http://www.w3.org/2000/svg"
   xmlns:svg="http://www.w3.org/2000/svg">
  <defs
     id="defs1">
    <clipPath
       clipPathUnits="userSpaceOnUse"
       id="clipPath4">
      <path
         d="M 0,440 H 660 V 0 H 0 Z"
         transform="translate(-331.78831,-339.99951)"
         id="path4" />
    </clipPath>
    <clipPath
       clipPathUnits="userSpaceOnUse"
       id="clipPath6">
      <path
         d="M 0,440 H 660 V 0 H 0 Z"
         transform="translate(-399.45341,-199.4385)"
         id="path6" />
    </clipPath>
    <clipPath
       clipPathUnits="userSpaceOnUse"
       id="clipPath8">
      <path
         d="M 0,440 H 660 V 0 H 0 Z"
         transform="translate(-331.20341,-111.87401)"
         id="path8" />
    </clipPath>
    <clipPath
       clipPathUnits="userSpaceOnUse"
       id="clipPath10">
      <path
         d="M 0,440 H 660 V 0 H 0 Z"
         transform="translate(-401.86841,-213.54791)"
         id="path10" />
    </clipPath>
    <clipPath
       clipPathUnits="userSpaceOnUse"
       id="clipPath12">
      <path
         d="M 0,440 H 660 V 0 H 0 Z"
         transform="translate(-327.60671,-152.6445)"
         id="path12" />
    </clipPath>
    <clipPath
       clipPathUnits="userSpaceOnUse"
       id="clipPath14">
      <path
         d="M 0,440 H 660 V 0 H 0 Z"
         transform="translate(-391.98461,-179.45021)"
         id="path14" />
    </clipPath>
    <clipPath
       clipPathUnits="userSpaceOnUse"
       id="clipPath16">
      <path
         d="M 0,440 H 660 V 0 H 0 Z"
         id="path16" />
    </clipPath>
    <clipPath
       clipPathUnits="userSpaceOnUse"
       id="clipPath18">
      <path
         d="M 0,440 H 660 V 0 H 0 Z"
         transform="translate(-315.66921,-176.9004)"
         id="path18" />
    </clipPath>
    <clipPath
       clipPathUnits="userSpaceOnUse"
       id="clipPath20">
      <path
         d="M 0,440 H 660 V 0 H 0 Z"
         transform="translate(-327.38991,-274.83351)"
         id="path20" />
    </clipPath>
    <clipPath
       clipPathUnits="userSpaceOnUse"
       id="clipPath22">
      <path
         d="M 0,440 H 660 V 0 H 0 Z"
         transform="translate(-310.56271,-295.74021)"
         id="path22" />
    </clipPath>
    <clipPath
       clipPathUnits="userSpaceOnUse"
       id="clipPath24">
      <path
         d="M 0,440 H 660 V 0 H 0 Z"
         transform="translate(-321.82201,-311.99661)"
         id="path24" />
    </clipPath>
    <clipPath
       clipPathUnits="userSpaceOnUse"
       id="clipPath26">
      <path
         d="M 0,440 H 660 V 0 H 0 Z"
         transform="translate(-334.89381,-274.32231)"
         id="path26" />
    </clipPath>
    <clipPath
       clipPathUnits="userSpaceOnUse"
       id="clipPath28">
      <path
         d="M 0,440 H 660 V 0 H 0 Z"
         transform="translate(-331.09841,-266.54001)"
         id="path28" />
    </clipPath>
    <clipPath
       clipPathUnits="userSpaceOnUse"
       id="clipPath30">
      <path
         d="M 0,440 H 660 V 0 H 0 Z"
         transform="translate(-296.50221,-228.83981)"
         id="path30" />
    </clipPath>
    <clipPath
       clipPathUnits="userSpaceOnUse"
       id="clipPath32">
      <path
         d="M 0,440 H 660 V 0 H 0 Z"
         transform="translate(-311.11841,-223.0029)"
         id="path32" />
    </clipPath>
    <clipPath
       clipPathUnits="userSpaceOnUse"
       id="clipPath34">
      <path
         d="M 0,440 H 660 V 0 H 0 Z"
         transform="translate(-346.37431,-230.4687)"
         id="path34" />
    </clipPath>
    <clipPath
       clipPathUnits="userSpaceOnUse"
       id="clipPath36">
      <path
         d="M 0,440 H 660 V 0 H 0 Z"
         transform="translate(-373.18581,-219.69971)"
         id="path36" />
    </clipPath>
    <clipPath
       clipPathUnits="userSpaceOnUse"
       id="clipPath38">
      <path
         d="M 0,440 H 660 V 0 H 0 Z"
         transform="translate(-303.13501,-182.92871)"
         id="path38" />
    </clipPath>
    <clipPath
       clipPathUnits="userSpaceOnUse"
       id="clipPath40">
      <path
         d="M 0,440 H 660 V 0 H 0 Z"
         transform="translate(-294.157,-212.5215)"
         id="path40" />
    </clipPath>
    <clipPath
       clipPathUnits="userSpaceOnUse"
       id="clipPath42">
      <path
         d="M 0,440 H 660 V 0 H 0 Z"
         transform="translate(-335.28641,-274.79201)"
         id="path42" />
    </clipPath>
    <clipPath
       clipPathUnits="userSpaceOnUse"
       id="clipPath44">
      <path
         d="M 0,440 H 660 V 0 H 0 Z"
         transform="translate(-330.62431,-275.63871)"
         id="path44" />
    </clipPath>
    <clipPath
       clipPathUnits="userSpaceOnUse"
       id="clipPath46">
      <path
         d="M 0,440 H 660 V 0 H 0 Z"
         transform="translate(-330.62431,-270.67871)"
         id="path46" />
    </clipPath>
    <clipPath
       clipPathUnits="userSpaceOnUse"
       id="clipPath48">
      <path
         d="M 0,440 H 660 V 0 H 0 Z"
         transform="translate(-334.11651,-272.15481)"
         id="path48" />
    </clipPath>
  </defs>
  <sodipodi:namedview
     id="namedview1"
     pagecolor="#ffffff"
     bordercolor="#000000"
     borderopacity="0.25"
     inkscape:showpageshadow="2"
     inkscape:pageopacity="0.0"
     inkscape:pagecheckerboard="0"
     inkscape:deskcolor="#d1d1d1">
    <inkscape:page
       x="0"
       y="0"
       inkscape:label="1"
       id="page1"
       width="880"
       height="586.66669"
       margin="0"
       bleed="0" />
  </sodipodi:namedview>
  <g
     id="layer-MC0"
     inkscape:groupmode="layer"
     inkscape:label="Layer 1">
    <path
       id="path1"
       d="M 0,0 H 660 V 440 H 0 Z"
       style="fill:#c62139;fill-opacity:1;fill-rule:nonzero;stroke:none"
       transform="matrix(1.3333333,0,0,-1.3333333,0,586.66667)" />
    <path
       id="path2"
       d="m 20.531,420 h 618 V 20 h -618 z"
       style="fill:#00297b;fill-opacity:1;fill-rule:nonzero;stroke:none"
       transform="matrix(1.3333333,0,0,-1.3333333,0,586.66667)" />
    <path
       id="path3"
       d="M 0,0 C 0,0 -80.257,-54.71 -80.257,-119.221 -80.257,-183.742 0,-240 0,-240 c 0,0 79.743,51.619 79.743,120.779 C 79.743,-50.065 0,0 0,0"
       style="fill:#c62139;fill-opacity:1;fill-rule:nonzero;stroke:none"
       transform="matrix(1.3333333,0,0,-1.3333333,442.3844,133.334)"
       clip-path="url(#clipPath4)" />
    <path
       id="path5"
       d="m 0,0 c 1.761,6.864 2.761,13.991 2.761,21.34 0,61.931 -70.426,107.862 -70.426,107.862 0,0 -71.455,-47.485 -71.455,-107.862 0,-7.251 1.017,-14.317 2.813,-21.159 L 0,0"
       style="fill:#66afeb;fill-opacity:1;fill-rule:nonzero;stroke:none"
       transform="matrix(1.3333333,0,0,-1.3333333,532.60453,320.74867)"
       clip-path="url(#clipPath6)" />
    <path
       id="path7"
       d="M 0,0 C 0,0 55.236,36.58 68.227,87.745 H -68.109 C -54.92,37.565 0,0 0,0"
       style="fill:#007bde;fill-opacity:1;fill-rule:nonzero;stroke:none"
       transform="matrix(1.3333333,0,0,-1.3333333,441.60453,437.50133)"
       clip-path="url(#clipPath8)" />
    <path
       id="path9"
       d="m 0,0 c -12.083,-8.608 -80.087,-4.475 -80.087,-4.475 l -3.802,-9.634 h 81.468 c 0.339,1.321 0.65,2.642 0.93,3.978 L 0,0"
       style="fill:#9c8431;fill-opacity:1;fill-rule:nonzero;stroke:none"
       transform="matrix(1.3333333,0,0,-1.3333333,535.82453,301.93613)"
       clip-path="url(#clipPath10)" />
    <path
       id="path11"
       d="M 0,0 C -1.036,7.21 -32.841,14.931 -49.721,14.296 -44.451,6.028 -38.479,-1.538 -32.473,-8.263 -23.898,0.939 0.339,-2.379 0,0"
       style="fill:#fff100;fill-opacity:1;fill-rule:nonzero;stroke:none"
       transform="matrix(1.3333333,0,0,-1.3333333,436.80893,383.14067)"
       clip-path="url(#clipPath12)" />
    <path
       id="path13"
       d="m 0,0 c -4.042,-0.145 -11.376,-0.79 -16.4,-3.406 -7.247,-3.783 -23.472,-7.917 -30.724,-5.847 -7.247,2.064 -18.64,-4.475 -17.254,-5.848 2.298,-2.296 18.98,0.341 18.98,-14.456 0,-12.385 -19.325,-6.883 -26.923,-12.045 -4.579,-3.101 -7.773,-6.471 -9.586,-8.639 11.861,-10.977 21.149,-17.335 21.149,-17.335 0,0 22.021,14.585 41.521,38.2 l 9.171,12.17 C -6.37,-11.793 -2.942,-6.049 0,0"
       style="fill:#fff100;fill-opacity:1;fill-rule:nonzero;stroke:none"
       transform="matrix(1.3333333,0,0,-1.3333333,522.64613,347.39973)"
       clip-path="url(#clipPath14)" />
    <path
       id="path15"
       d="m 306.171,182.836 h 2.924 v 31.481 h -2.924 z"
       style="fill:#000000;fill-opacity:1;fill-rule:nonzero;stroke:none"
       transform="matrix(1.3333333,0,0,-1.3333333,0,586.66667)"
       clip-path="url(#clipPath16)" />
    <path
       id="path17"
       d="m 0,0 c 0,0 -1.199,-0.211 -3.106,-0.454 v 2.457 h -1.942 v -2.668 c -1.988,-0.201 -4.398,-0.367 -6.925,-0.367 -2.684,0 -5.392,0.196 -7.627,0.424 v 2.544 h -2.14 v -2.302 c -1.848,0.232 -3.042,0.433 -3.042,0.433 0,0 -0.585,-3.225 12.622,-3.225 C 1.041,-3.158 0.006,0 0.006,0"
       style="fill:#7b4800;fill-opacity:1;fill-rule:nonzero;stroke:none"
       transform="matrix(1.3333333,0,0,-1.3333333,420.89227,350.79947)"
       clip-path="url(#clipPath18)" />
    <path
       id="path19"
       d="M 0,0 C 0,0 -11.007,6.451 -26.021,3.359 -41.035,0.263 -44.275,-9.15 -44.275,-9.15 l 5.047,2.317 0.129,-2.064 4.533,2.838 0.128,-2.065 3.884,3.608 0.637,-2.317 3.498,3.096 0.263,-1.677 5.691,3.613 v -2.323 l 4.533,2.07 -0.386,-2.199 8.545,1.544 c 0,0 -20.196,-6.705 -22.781,-22.833 l 3.878,4.635 0.392,-2.183 2.456,4.898 0.649,-1.935 2.2,4.515 0.643,-2.704 3.363,4.903 0.263,-2.844 3.878,5.29 v -2.57 l 4.146,4.516 -0.128,-3.365 c 0,0 4.012,3.365 5.299,3.365 l -4.784,-6.199 1.555,-0.516 c 0,0 -3.368,-2.709 -3.626,-3.225 -0.257,-0.511 2.205,0 2.205,0 0,0 -2.982,-3.092 -3.111,-4 -0.129,-0.908 1.942,0 1.942,0 0,0 -2.72,-3.478 -3.106,-4.779 -0.392,-1.29 1.421,-0.253 1.421,-0.253 0,0 -1.679,-4.129 -1.813,-5.29 -0.129,-1.151 1.942,0.263 1.942,0.263 l 1.169,-7.096 2.071,8.506 1.293,-1.936 v 6.069 l 1.164,-1.026 -0.129,3.989 1.55,-1.543 -0.772,4.903 1.678,-1.926 -0.257,4.119 1.679,-1.683 v 5.424 l 1.555,-1.408 0.258,3.726 1.813,-0.898 c 0,0 0.257,4.515 2.334,4.386 2.064,-0.118 4.655,-2.317 3.62,-3.344 l 1.813,0.501 -0.386,-4.371 1.678,1.026 -0.257,-3.225 1.421,0.645 -0.514,-4.123 1.684,1.016 0.123,-5.016 1.936,1.409 -0.129,-5.925 1.942,1.538 v -4.898 l 1.814,1.28 1.947,-4.768 -0.392,7.096 1.427,-1.156 -2.597,5.026 1.948,0.264 -2.076,3.359 1.941,-0.144 -2.842,3.36 1.936,0.382 -4.276,3.101 2.334,0.898 -4.404,2.844 1.685,0.645 -3.101,3.225 3.235,-1.29 1.03,2.065 3.882,-3.102 v 3.102 l 3.364,-4.645 0.391,2.844 2.592,-3.618 0.515,1.672 1.812,-3.608 0.902,2.7 1.812,-3.871 0.515,2.72 1.684,-4.263 1.556,1.682 0.778,-4.391 1.544,1.682 1.422,-3.871 1.813,1.419 1.555,-4.392 c 0,0 4.27,23.488 -32.361,23.88 L -0.041,0"
       style="fill:#009270;fill-opacity:1;fill-rule:nonzero;stroke:none"
       transform="matrix(1.3333333,0,0,-1.3333333,436.51987,220.222)"
       clip-path="url(#clipPath20)" />
    <path
       id="path21"
       d="M 0,0 2.065,-2.57 1.03,-3.355 4.527,-5.29 3.75,-6.704 7.247,-7.995 5.948,-9.032 l 3.112,-1.796 -2.07,-0.655 3.749,-1.801 -0.515,-1.673 3.234,-0.779 -1.421,-1.156 3.749,-2.978 4.276,-2.962 2.977,1.027 -1.17,5.687 c 0,0 -12.294,16.773 -21.869,16.128"
       style="fill:#009270;fill-opacity:1;fill-rule:nonzero;stroke:none"
       transform="matrix(1.3333333,0,0,-1.3333333,414.0836,192.3464)"
       clip-path="url(#clipPath22)" />
    <path
       id="path23"
       d="m 0,0 1.427,-3.344 -1.948,-0.392 4.404,-4.387 -3.497,-0.129 4.276,-3.35 -2.077,-0.655 3.89,-3.87 -2.077,-1.028 4.013,-3.999 -2.714,-1.027 4.533,-4.134 -2.591,-0.134 2.713,-3.473 -2.456,-0.78 c 0,0 2.977,-5.543 2.843,-7.87 l 5.047,-0.253 c 0,0 0.778,14.967 0.134,16.902 l -1.298,-0.903 0.386,5.419 -1.942,-1.167 -0.38,6.451 -1.947,-2.059 L 10.23,-7.86 8.802,-10.059 7.375,-3.86 5.825,-5.795 4.398,-1.801 3.234,-3.344 0,0.01"
       style="fill:#009270;fill-opacity:1;fill-rule:nonzero;stroke:none"
       transform="matrix(1.3333333,0,0,-1.3333333,429.096,170.6712)"
       clip-path="url(#clipPath24)" />
    <path
       id="path25"
       d="m 0,0 c 1.428,9.032 10.879,22.192 28.612,22.708 l -4.017,-2.064 2.333,-1.033 -4.661,-1.682 2.328,-1.409 -5.563,-0.392 2.843,-1.936 -4.136,-0.516 -3.24,-0.645 2.328,-2.188 -4.661,-0.511 2.982,-1.553 c 0,0 -7.38,-2.581 -7.895,-3.36 0,0 24.857,6.322 30.94,-5.409 l -4.796,2.065 0.392,-2.199 -3.363,2.452 0.514,-1.807 -3.491,1.807 0.515,-2.188 -3.627,2.064 0.778,-1.946 -4.662,2.199 0.778,-2.064 -4.012,1.29 0.392,-2.188 -4.018,0.252 0.391,-2.58 L 1.556,-2.57 0,0.01"
       style="fill:#009270;fill-opacity:1;fill-rule:nonzero;stroke:none"
       transform="matrix(1.3333333,0,0,-1.3333333,446.52507,220.9036)"
       clip-path="url(#clipPath26)" />
    <path
       id="path27"
       d="m 0,0 2.59,0.17 c -1.21,-24.607 -0.075,-59.887 3.276,-72.948 5.691,-22.187 22.284,-30.734 26.232,-32.86 2.24,-1.197 1.38,-6.188 -3.111,-5.847 C 24.506,-111.14 8.849,-99.61 3.445,-78.967 -3.796,-51.269 -0.281,-2.885 0,0"
       style="fill:#7b4800;fill-opacity:1;fill-rule:nonzero;stroke:none"
       transform="matrix(1.3333333,0,0,-1.3333333,441.46453,231.28)"
       clip-path="url(#clipPath28)" />
    <path
       id="path29"
       d="m 0,0 h -3.07 c -0.24,1.321 -0.819,2.25 -1.738,2.761 -0.514,0.294 -1.082,0.433 -1.707,0.433 -1.211,0 -2.193,-0.572 -2.965,-1.754 -0.779,-1.167 -1.165,-2.942 -1.165,-5.29 0,-2.379 0.421,-4.051 1.258,-5.053 0.836,-0.975 1.79,-1.47 2.86,-1.47 1.047,0 1.901,0.387 2.573,1.171 0.667,0.774 1.077,1.801 1.24,3.076 h -3.462 v 3.215 h 6.223 v -10.353 h -2.065 l -0.315,2.41 c -0.603,-0.918 -1.141,-1.563 -1.621,-1.945 -0.824,-0.655 -1.836,-0.98 -3.041,-0.98 -1.977,0 -3.603,0.887 -4.86,2.663 -1.316,1.775 -1.977,4.211 -1.977,7.297 0,3.122 0.666,5.635 2,7.519 1.322,1.884 3.082,2.823 5.276,2.823 1.895,0 3.421,-0.624 4.574,-1.868 C -0.836,3.417 -0.169,1.863 0,0"
       style="fill:#c62139;fill-opacity:1;fill-rule:nonzero;stroke:none"
       transform="matrix(1.3333333,0,0,-1.3333333,395.33627,281.54693)"
       clip-path="url(#clipPath30)" />
    <path
       id="path31"
       d="M 0,0 V 11.865 H 3.17 V 0 c 0,-1.321 0.129,-2.287 0.369,-2.9 0.38,-1.079 1.199,-1.626 2.474,-1.626 1.258,0 2.082,0.547 2.462,1.626 0.246,0.613 0.357,1.579 0.357,2.9 v 11.865 h 3.176 V 0 c 0,-2.044 -0.246,-3.639 -0.737,-4.789 -0.924,-2.085 -2.673,-3.133 -5.264,-3.133 -2.585,0 -4.346,1.037 -5.27,3.133 C 0.246,-3.649 0,-2.044 0,0"
       style="fill:#c62139;fill-opacity:1;fill-rule:nonzero;stroke:none"
       transform="matrix(1.3333333,0,0,-1.3333333,414.82453,289.32947)"
       clip-path="url(#clipPath32)" />
    <path
       id="path33"
       d="m 0,0 1.875,-7.594 h -3.781 z m -1.719,4.406 -5.343,-19.312 h 3.281 l 1.031,3.968 h 5.5 l 0.969,-3.968 H 7.094 L 1.781,4.406 Z"
       style="fill:#c62139;fill-opacity:1;fill-rule:nonzero;stroke:none"
       transform="matrix(1.3333333,0,0,-1.3333333,461.8324,279.37507)"
       clip-path="url(#clipPath34)" />
    <path
       id="path35"
       d="M 0,0 2.696,15.168 H 7.183 V -4.124 H 4.276 V 8.918 c 0,0.382 0.006,0.909 0.012,1.584 C 4.294,11.179 4.3,11.7 4.3,12.061 L 1.469,-4.124 h -3.031 l -2.806,16.185 c 0,-0.361 0.006,-0.882 0.012,-1.559 C -4.351,9.827 -4.345,9.3 -4.345,8.918 V -4.124 h -2.907 v 19.292 h 4.539 L 0.001,0"
       style="fill:#c62139;fill-opacity:1;fill-rule:nonzero;stroke:none"
       transform="matrix(1.3333333,0,0,-1.3333333,497.58107,293.73373)"
       clip-path="url(#clipPath36)" />
    <path
       id="path37"
       d="m 0,0 c 10.703,0 19.681,1.714 19.681,1.714 0,0 1.375,-6.875 -19.681,-6.875 -21.056,0 -19.331,5.843 -19.331,5.843 C -19.331,0.682 -10.697,0 0,0"
       style="fill:#7b4800;fill-opacity:1;fill-rule:nonzero;stroke:none"
       transform="matrix(1.3333333,0,0,-1.3333333,404.18,342.76173)"
       clip-path="url(#clipPath38)" />
    <path
       id="path39"
       d="m 0,0 c 0,0 16.57,-6.198 23.132,-27.879 0,0 -15.189,3.091 -23.822,-0.347 H -5.521 C -5.521,-28.215 2.767,-16.18 0,0"
       style="fill:#ffffff;fill-opacity:1;fill-rule:nonzero;stroke:none"
       transform="matrix(1.3333333,0,0,-1.3333333,392.20933,303.30467)"
       clip-path="url(#clipPath40)" />
    <path
       id="path41"
       d="m 0,0 c 1.614,0 2.93,-1.311 2.93,-2.921 0,-1.615 -1.316,-2.921 -2.93,-2.921 -1.62,0 -2.931,1.306 -2.931,2.921 C -2.931,-1.311 -1.62,0 0,0"
       style="fill:#7b4800;fill-opacity:1;fill-rule:nonzero;stroke:none"
       transform="matrix(1.3333333,0,0,-1.3333333,447.04853,220.27733)"
       clip-path="url(#clipPath42)" />
    <path
       id="path43"
       d="m 0,0 c 1.515,0 2.743,-1.218 2.743,-2.73 0,-1.513 -1.228,-2.741 -2.743,-2.741 -1.515,0 -2.743,1.228 -2.743,2.741 C -2.743,-1.218 -1.515,0 0,0"
       style="fill:#7b4800;fill-opacity:1;fill-rule:nonzero;stroke:none"
       transform="matrix(1.3333333,0,0,-1.3333333,440.8324,219.1484)"
       clip-path="url(#clipPath44)" />
    <path
       id="path45"
       d="m 0,0 c 1.416,0 2.562,-1.135 2.562,-2.549 0,-1.409 -1.146,-2.56 -2.562,-2.56 -1.415,0 -2.562,1.151 -2.562,2.56 C -2.562,-1.135 -1.415,0 0,0"
       style="fill:#7b4800;fill-opacity:1;fill-rule:nonzero;stroke:none"
       transform="matrix(1.3333333,0,0,-1.3333333,440.8324,225.76173)"
       clip-path="url(#clipPath46)" />
    <path
       id="path47"
       d="m 0,0 c 1.521,0 2.749,-1.223 2.749,-2.735 0,-1.512 -1.228,-2.73 -2.749,-2.73 -1.516,0 -2.743,1.218 -2.743,2.73 C -2.743,-1.223 -1.516,0 0,0"
       style="fill:#7b4800;fill-opacity:1;fill-rule:nonzero;stroke:none"
       transform="matrix(1.3333333,0,0,-1.3333333,445.48867,223.7936)"
       clip-path="url(#clipPath48)" />
  </g>
</svg>
