<?xml version="1.0" encoding="UTF-8" standalone="no"?>
<!-- Created with Inkscape (http://www.inkscape.org/) -->

<svg
   version="1.1"
   id="svg1"
   width="998"
   height="666.6507"
   viewBox="0 0 998 666.6507"
   sodipodi:docname="hn.ai"
   xmlns:inkscape="http://www.inkscape.org/namespaces/inkscape"
   xmlns:sodipodi="http://sodipodi.sourceforge.net/DTD/sodipodi-0.dtd"
   xmlns="http://www.w3.org/2000/svg"
   xmlns:svg="http://www.w3.org/2000/svg">
  <defs
     id="defs1" />
  <sodipodi:namedview
     id="namedview1"
     pagecolor="#ffffff"
     bordercolor="#000000"
     borderopacity="0.25"
     inkscape:showpageshadow="2"
     inkscape:pageopacity="0.0"
     inkscape:pagecheckerboard="0"
     inkscape:deskcolor="#d1d1d1">
    <inkscape:page
       x="0"
       y="0"
       inkscape:label="1"
       id="page1"
       width="998"
       height="666.6507"
       margin="0"
       bleed="0" />
  </sodipodi:namedview>
  <g
     id="layer-MC0"
     inkscape:groupmode="layer"
     inkscape:label="Layer 1">
    <path
       id="path1"
       d="M 0,0 H 748.5 V 499 H 0 Z"
       style="fill:#0073cf;fill-opacity:1;fill-rule:nonzero;stroke:none"
       transform="matrix(1.3333333,0,0,-1.3333333,0,666.65067)" />
    <path
       id="path2"
       d="M 0,166.655 H 748.5 V 333.321 H 0 Z"
       style="fill:#ffffff;fill-opacity:1;fill-rule:nonzero;stroke:none"
       transform="matrix(1.3333333,0,0,-1.3333333,0,666.65067)" />
    <path
       id="path3"
       d="M 0,0 -8.584,-26.418 4.625,-30.71 Z"
       style="fill:#0073cf;fill-opacity:1;fill-rule:nonzero;stroke:none"
       transform="matrix(1.3333333,0,0,-1.3333333,515.33333,296.2964)" />
    <path
       id="path4"
       d="M 0,0 8.584,-26.418 -4.625,-30.71 Z"
       style="fill:#0073cf;fill-opacity:1;fill-rule:nonzero;stroke:none"
       transform="matrix(1.3333333,0,0,-1.3333333,515.33333,296.2964)" />
    <path
       id="path5"
       d="M 0,0 H -27.777 V -13.889 Z"
       style="fill:#0073cf;fill-opacity:1;fill-rule:nonzero;stroke:none"
       transform="matrix(1.3333333,0,0,-1.3333333,550.55733,321.88813)" />
    <path
       id="path6"
       d="m 0,0 -22.473,-16.327 -8.163,11.236 z"
       style="fill:#0073cf;fill-opacity:1;fill-rule:nonzero;stroke:none"
       transform="matrix(1.3333333,0,0,-1.3333333,550.55733,321.88813)" />
    <path
       id="path7"
       d="m 0,0 22.473,-16.327 8.163,11.236 z"
       style="fill:#0073cf;fill-opacity:1;fill-rule:nonzero;stroke:none"
       transform="matrix(1.3333333,0,0,-1.3333333,480.10867,321.88813)" />
    <path
       id="path8"
       d="M 0,0 H 27.778 V -13.889 Z"
       style="fill:#0073cf;fill-opacity:1;fill-rule:nonzero;stroke:none"
       transform="matrix(1.3333333,0,0,-1.3333333,480.10867,321.88813)" />
    <path
       id="path9"
       d="M 0,0 -8.584,26.418 -21.792,22.126 Z"
       style="fill:#0073cf;fill-opacity:1;fill-rule:nonzero;stroke:none"
       transform="matrix(1.3333333,0,0,-1.3333333,537.1028,363.29693)" />
    <path
       id="path10"
       d="m 0,0 -22.473,16.327 8.164,11.236 z"
       style="fill:#0073cf;fill-opacity:1;fill-rule:nonzero;stroke:none"
       transform="matrix(1.3333333,0,0,-1.3333333,537.1028,363.29693)" />
    <path
       id="path11"
       d="M 0,0 22.473,16.327 14.309,27.563 Z"
       style="fill:#0073cf;fill-opacity:1;fill-rule:nonzero;stroke:none"
       transform="matrix(1.3333333,0,0,-1.3333333,493.56387,363.29693)" />
    <path
       id="path12"
       d="m 0,0 8.583,26.418 13.21,-4.292 z"
       style="fill:#0073cf;fill-opacity:1;fill-rule:nonzero;stroke:none"
       transform="matrix(1.3333333,0,0,-1.3333333,493.56387,363.29693)" />
    <path
       id="path13"
       d="M 0,0 -8.584,-26.418 4.626,-30.71 Z"
       style="fill:#0073cf;fill-opacity:1;fill-rule:nonzero;stroke:none"
       transform="matrix(1.3333333,0,0,-1.3333333,700.51827,237.0372)" />
    <path
       id="path14"
       d="M 0,0 8.584,-26.418 -4.625,-30.71 Z"
       style="fill:#0073cf;fill-opacity:1;fill-rule:nonzero;stroke:none"
       transform="matrix(1.3333333,0,0,-1.3333333,700.51827,237.0372)" />
    <path
       id="path15"
       d="M 0,0 H -27.778 V -13.889 Z"
       style="fill:#0073cf;fill-opacity:1;fill-rule:nonzero;stroke:none"
       transform="matrix(1.3333333,0,0,-1.3333333,735.74347,262.62907)" />
    <path
       id="path16"
       d="m 0,0 -22.474,-16.328 -8.163,11.237 z"
       style="fill:#0073cf;fill-opacity:1;fill-rule:nonzero;stroke:none"
       transform="matrix(1.3333333,0,0,-1.3333333,735.74347,262.62907)" />
    <path
       id="path17"
       d="m 0,0 22.473,-16.328 8.164,11.237 z"
       style="fill:#0073cf;fill-opacity:1;fill-rule:nonzero;stroke:none"
       transform="matrix(1.3333333,0,0,-1.3333333,665.29427,262.62907)" />
    <path
       id="path18"
       d="M 0,0 H 27.777 V -13.889 Z"
       style="fill:#0073cf;fill-opacity:1;fill-rule:nonzero;stroke:none"
       transform="matrix(1.3333333,0,0,-1.3333333,665.29427,262.62907)" />
    <path
       id="path19"
       d="M 0,0 -8.583,26.418 -21.792,22.126 Z"
       style="fill:#0073cf;fill-opacity:1;fill-rule:nonzero;stroke:none"
       transform="matrix(1.3333333,0,0,-1.3333333,722.28773,304.03787)" />
    <path
       id="path20"
       d="m 0,0 -22.473,16.328 8.164,11.236 z"
       style="fill:#0073cf;fill-opacity:1;fill-rule:nonzero;stroke:none"
       transform="matrix(1.3333333,0,0,-1.3333333,722.28773,304.03787)" />
    <path
       id="path21"
       d="M 0,0 22.473,16.328 14.309,27.564 Z"
       style="fill:#0073cf;fill-opacity:1;fill-rule:nonzero;stroke:none"
       transform="matrix(1.3333333,0,0,-1.3333333,678.74867,304.03787)" />
    <path
       id="path22"
       d="M 0,0 8.584,26.418 21.793,22.126 Z"
       style="fill:#0073cf;fill-opacity:1;fill-rule:nonzero;stroke:none"
       transform="matrix(1.3333333,0,0,-1.3333333,678.74867,304.03787)" />
    <path
       id="path23"
       d="M 0,0 -8.584,-26.418 4.626,-30.71 Z"
       style="fill:#0073cf;fill-opacity:1;fill-rule:nonzero;stroke:none"
       transform="matrix(1.3333333,0,0,-1.3333333,700.51827,348.14853)" />
    <path
       id="path24"
       d="M 0,0 8.584,-26.418 -4.625,-30.71 Z"
       style="fill:#0073cf;fill-opacity:1;fill-rule:nonzero;stroke:none"
       transform="matrix(1.3333333,0,0,-1.3333333,700.51827,348.14853)" />
    <path
       id="path25"
       d="M 0,0 H -27.778 V -13.89 Z"
       style="fill:#0073cf;fill-opacity:1;fill-rule:nonzero;stroke:none"
       transform="matrix(1.3333333,0,0,-1.3333333,735.74347,373.73973)" />
    <path
       id="path26"
       d="m 0,0 -22.474,-16.328 -8.163,11.236 z"
       style="fill:#0073cf;fill-opacity:1;fill-rule:nonzero;stroke:none"
       transform="matrix(1.3333333,0,0,-1.3333333,735.74347,373.73973)" />
    <path
       id="path27"
       d="m 0,0 22.473,-16.328 8.164,11.236 z"
       style="fill:#0073cf;fill-opacity:1;fill-rule:nonzero;stroke:none"
       transform="matrix(1.3333333,0,0,-1.3333333,665.29427,373.73973)" />
    <path
       id="path28"
       d="M 0,0 H 27.777 V -13.89 Z"
       style="fill:#0073cf;fill-opacity:1;fill-rule:nonzero;stroke:none"
       transform="matrix(1.3333333,0,0,-1.3333333,665.29427,373.73973)" />
    <path
       id="path29"
       d="M 0,0 -8.583,26.418 -21.792,22.126 Z"
       style="fill:#0073cf;fill-opacity:1;fill-rule:nonzero;stroke:none"
       transform="matrix(1.3333333,0,0,-1.3333333,722.28773,415.14853)" />
    <path
       id="path30"
       d="m 0,0 -22.473,16.327 8.164,11.236 z"
       style="fill:#0073cf;fill-opacity:1;fill-rule:nonzero;stroke:none"
       transform="matrix(1.3333333,0,0,-1.3333333,722.28773,415.14853)" />
    <path
       id="path31"
       d="M 0,0 22.473,16.327 14.309,27.563 Z"
       style="fill:#0073cf;fill-opacity:1;fill-rule:nonzero;stroke:none"
       transform="matrix(1.3333333,0,0,-1.3333333,678.74867,415.14853)" />
    <path
       id="path32"
       d="M 0,0 8.584,26.418 21.793,22.126 Z"
       style="fill:#0073cf;fill-opacity:1;fill-rule:nonzero;stroke:none"
       transform="matrix(1.3333333,0,0,-1.3333333,678.74867,415.14853)" />
    <path
       id="path33"
       d="M 0,0 -8.584,-26.418 4.625,-30.71 Z"
       style="fill:#0073cf;fill-opacity:1;fill-rule:nonzero;stroke:none"
       transform="matrix(1.3333333,0,0,-1.3333333,330.1484,237.0372)" />
    <path
       id="path34"
       d="M 0,0 8.583,-26.418 -4.625,-30.71 Z"
       style="fill:#0073cf;fill-opacity:1;fill-rule:nonzero;stroke:none"
       transform="matrix(1.3333333,0,0,-1.3333333,330.1484,237.0372)" />
    <path
       id="path35"
       d="M 0,0 H -27.778 V -13.889 Z"
       style="fill:#0073cf;fill-opacity:1;fill-rule:nonzero;stroke:none"
       transform="matrix(1.3333333,0,0,-1.3333333,365.3724,262.62907)" />
    <path
       id="path36"
       d="m 0,0 -22.473,-16.328 -8.163,11.237 z"
       style="fill:#0073cf;fill-opacity:1;fill-rule:nonzero;stroke:none"
       transform="matrix(1.3333333,0,0,-1.3333333,365.3724,262.62907)" />
    <path
       id="path37"
       d="m 0,0 22.473,-16.328 8.163,11.237 z"
       style="fill:#0073cf;fill-opacity:1;fill-rule:nonzero;stroke:none"
       transform="matrix(1.3333333,0,0,-1.3333333,294.92387,262.62907)" />
    <path
       id="path38"
       d="M 0,0 H 27.778 V -13.889 Z"
       style="fill:#0073cf;fill-opacity:1;fill-rule:nonzero;stroke:none"
       transform="matrix(1.3333333,0,0,-1.3333333,294.92387,262.62907)" />
    <path
       id="path39"
       d="M 0,0 -8.584,26.418 -21.793,22.126 Z"
       style="fill:#0073cf;fill-opacity:1;fill-rule:nonzero;stroke:none"
       transform="matrix(1.3333333,0,0,-1.3333333,351.918,304.03787)" />
    <path
       id="path40"
       d="m 0,0 -22.473,16.328 8.164,11.236 z"
       style="fill:#0073cf;fill-opacity:1;fill-rule:nonzero;stroke:none"
       transform="matrix(1.3333333,0,0,-1.3333333,351.918,304.03787)" />
    <path
       id="path41"
       d="M 0,0 22.473,16.328 14.309,27.564 Z"
       style="fill:#0073cf;fill-opacity:1;fill-rule:nonzero;stroke:none"
       transform="matrix(1.3333333,0,0,-1.3333333,308.37827,304.03787)" />
    <path
       id="path42"
       d="M 0,0 8.584,26.418 21.793,22.126 Z"
       style="fill:#0073cf;fill-opacity:1;fill-rule:nonzero;stroke:none"
       transform="matrix(1.3333333,0,0,-1.3333333,308.37827,304.03787)" />
    <path
       id="path43"
       d="M 0,0 -8.584,-26.418 4.625,-30.71 Z"
       style="fill:#0073cf;fill-opacity:1;fill-rule:nonzero;stroke:none"
       transform="matrix(1.3333333,0,0,-1.3333333,330.1484,348.14853)" />
    <path
       id="path44"
       d="M 0,0 8.583,-26.418 -4.625,-30.71 Z"
       style="fill:#0073cf;fill-opacity:1;fill-rule:nonzero;stroke:none"
       transform="matrix(1.3333333,0,0,-1.3333333,330.1484,348.14853)" />
    <path
       id="path45"
       d="M 0,0 H -27.778 V -13.89 Z"
       style="fill:#0073cf;fill-opacity:1;fill-rule:nonzero;stroke:none"
       transform="matrix(1.3333333,0,0,-1.3333333,365.3724,373.73973)" />
    <path
       id="path46"
       d="m 0,0 -22.473,-16.328 -8.163,11.236 z"
       style="fill:#0073cf;fill-opacity:1;fill-rule:nonzero;stroke:none"
       transform="matrix(1.3333333,0,0,-1.3333333,365.3724,373.73973)" />
    <path
       id="path47"
       d="m 0,0 22.473,-16.328 8.163,11.236 z"
       style="fill:#0073cf;fill-opacity:1;fill-rule:nonzero;stroke:none"
       transform="matrix(1.3333333,0,0,-1.3333333,294.92387,373.73973)" />
    <path
       id="path48"
       d="M 0,0 H 27.778 V -13.89 Z"
       style="fill:#0073cf;fill-opacity:1;fill-rule:nonzero;stroke:none"
       transform="matrix(1.3333333,0,0,-1.3333333,294.92387,373.73973)" />
    <path
       id="path49"
       d="M 0,0 -8.584,26.418 -21.793,22.126 Z"
       style="fill:#0073cf;fill-opacity:1;fill-rule:nonzero;stroke:none"
       transform="matrix(1.3333333,0,0,-1.3333333,351.918,415.14853)" />
    <path
       id="path50"
       d="m 0,0 -22.473,16.327 8.164,11.236 z"
       style="fill:#0073cf;fill-opacity:1;fill-rule:nonzero;stroke:none"
       transform="matrix(1.3333333,0,0,-1.3333333,351.918,415.14853)" />
    <path
       id="path51"
       d="M 0,0 22.473,16.327 14.309,27.563 Z"
       style="fill:#0073cf;fill-opacity:1;fill-rule:nonzero;stroke:none"
       transform="matrix(1.3333333,0,0,-1.3333333,308.37827,415.14853)" />
    <path
       id="path52"
       d="M 0,0 8.584,26.418 21.793,22.126 Z"
       style="fill:#0073cf;fill-opacity:1;fill-rule:nonzero;stroke:none"
       transform="matrix(1.3333333,0,0,-1.3333333,308.37827,415.14853)" />
  </g>
</svg>
