<?xml version="1.0" encoding="UTF-8" standalone="no"?>
<!-- Created with Inkscape (http://www.inkscape.org/) -->

<svg
   version="1.1"
   id="svg1"
   width="1800"
   height="1200"
   viewBox="0 0 1800 1200"
   sodipodi:docname="in.ai"
   xmlns:inkscape="http://www.inkscape.org/namespaces/inkscape"
   xmlns:sodipodi="http://sodipodi.sourceforge.net/DTD/sodipodi-0.dtd"
   xmlns="http://www.w3.org/2000/svg"
   xmlns:svg="http://www.w3.org/2000/svg">
  <defs
     id="defs1">
    <clipPath
       clipPathUnits="userSpaceOnUse"
       id="clipPath5">
      <path
         d="M 0,900 H 1350 V 0 H 0 Z"
         transform="translate(-675.00002,-570.00001)"
         id="path5" />
    </clipPath>
    <clipPath
       clipPathUnits="userSpaceOnUse"
       id="clipPath7">
      <path
         d="M 0,900 H 1350 V 0 H 0 Z"
         transform="translate(-675.00002,-555.00001)"
         id="path7" />
    </clipPath>
    <clipPath
       clipPathUnits="userSpaceOnUse"
       id="clipPath9">
      <path
         d="M 0,900 H 1350 V 0 H 0 Z"
         transform="translate(-675.00002,-471.00001)"
         id="path9" />
    </clipPath>
    <clipPath
       clipPathUnits="userSpaceOnUse"
       id="clipPath11">
      <path
         d="M 0,900 H 1350 V 0 H 0 Z"
         transform="translate(-779.78709,-441.50001)"
         id="path11" />
    </clipPath>
    <clipPath
       clipPathUnits="userSpaceOnUse"
       id="clipPath13">
      <path
         d="M 0,900 H 1350 V 0 H 0 Z"
         transform="translate(-675.00002,-345.00001)"
         id="path13" />
    </clipPath>
    <clipPath
       clipPathUnits="userSpaceOnUse"
       id="clipPath15">
      <path
         d="M 0,900 H 1350 V 0 H 0 Z"
         transform="translate(-774.01659,-414.66891)"
         id="path15" />
    </clipPath>
    <clipPath
       clipPathUnits="userSpaceOnUse"
       id="clipPath17">
      <path
         d="M 0,900 H 1350 V 0 H 0 Z"
         transform="translate(-647.82422,-348.57811)"
         id="path17" />
    </clipPath>
    <clipPath
       clipPathUnits="userSpaceOnUse"
       id="clipPath19">
      <path
         d="M 0,900 H 1350 V 0 H 0 Z"
         transform="translate(-761.49804,-390.24511)"
         id="path19" />
    </clipPath>
    <clipPath
       clipPathUnits="userSpaceOnUse"
       id="clipPath21">
      <path
         d="M 0,900 H 1350 V 0 H 0 Z"
         transform="translate(-622.50002,-359.06741)"
         id="path21" />
    </clipPath>
    <clipPath
       clipPathUnits="userSpaceOnUse"
       id="clipPath23">
      <path
         d="M 0,900 H 1350 V 0 H 0 Z"
         transform="translate(-743.08502,-369.89361)"
         id="path23" />
    </clipPath>
    <clipPath
       clipPathUnits="userSpaceOnUse"
       id="clipPath25">
      <path
         d="M 0,900 H 1350 V 0 H 0 Z"
         transform="translate(-600.75392,-375.75391)"
         id="path25" />
    </clipPath>
    <clipPath
       clipPathUnits="userSpaceOnUse"
       id="clipPath27">
      <path
         d="M 0,900 H 1350 V 0 H 0 Z"
         transform="translate(-720.03222,-355.00201)"
         id="path27" />
    </clipPath>
    <clipPath
       clipPathUnits="userSpaceOnUse"
       id="clipPath29">
      <path
         d="M 0,900 H 1350 V 0 H 0 Z"
         transform="translate(-584.06741,-397.50001)"
         id="path29" />
    </clipPath>
    <clipPath
       clipPathUnits="userSpaceOnUse"
       id="clipPath31">
      <path
         d="M 0,900 H 1350 V 0 H 0 Z"
         transform="translate(-693.91022,-346.58401)"
         id="path31" />
    </clipPath>
    <clipPath
       clipPathUnits="userSpaceOnUse"
       id="clipPath33">
      <path
         d="M 0,900 H 1350 V 0 H 0 Z"
         transform="translate(-573.57761,-422.82421)"
         id="path33" />
    </clipPath>
    <clipPath
       clipPathUnits="userSpaceOnUse"
       id="clipPath35">
      <path
         d="M 0,900 H 1350 V 0 H 0 Z"
         transform="translate(-666.50002,-345.21291)"
         id="path35" />
    </clipPath>
    <clipPath
       clipPathUnits="userSpaceOnUse"
       id="clipPath37">
      <path
         d="M 0,900 H 1350 V 0 H 0 Z"
         transform="translate(-570.00001,-450.00001)"
         id="path37" />
    </clipPath>
    <clipPath
       clipPathUnits="userSpaceOnUse"
       id="clipPath39">
      <path
         d="M 0,900 H 1350 V 0 H 0 Z"
         transform="translate(-639.66851,-350.98341)"
         id="path39" />
    </clipPath>
    <clipPath
       clipPathUnits="userSpaceOnUse"
       id="clipPath41">
      <path
         d="M 0,900 H 1350 V 0 H 0 Z"
         transform="translate(-573.57761,-477.17581)"
         id="path41" />
    </clipPath>
    <clipPath
       clipPathUnits="userSpaceOnUse"
       id="clipPath43">
      <path
         d="M 0,900 H 1350 V 0 H 0 Z"
         transform="translate(-615.24512,-363.50201)"
         id="path43" />
    </clipPath>
    <clipPath
       clipPathUnits="userSpaceOnUse"
       id="clipPath45">
      <path
         d="M 0,900 H 1350 V 0 H 0 Z"
         transform="translate(-584.06741,-502.50001)"
         id="path45" />
    </clipPath>
    <clipPath
       clipPathUnits="userSpaceOnUse"
       id="clipPath47">
      <path
         d="M 0,900 H 1350 V 0 H 0 Z"
         transform="translate(-594.89401,-381.91501)"
         id="path47" />
    </clipPath>
    <clipPath
       clipPathUnits="userSpaceOnUse"
       id="clipPath49">
      <path
         d="M 0,900 H 1350 V 0 H 0 Z"
         transform="translate(-600.75392,-524.24611)"
         id="path49" />
    </clipPath>
    <clipPath
       clipPathUnits="userSpaceOnUse"
       id="clipPath51">
      <path
         d="M 0,900 H 1350 V 0 H 0 Z"
         transform="translate(-580.00201,-404.96781)"
         id="path51" />
    </clipPath>
    <clipPath
       clipPathUnits="userSpaceOnUse"
       id="clipPath53">
      <path
         d="M 0,900 H 1350 V 0 H 0 Z"
         transform="translate(-622.50002,-540.93262)"
         id="path53" />
    </clipPath>
    <clipPath
       clipPathUnits="userSpaceOnUse"
       id="clipPath55">
      <path
         d="M 0,900 H 1350 V 0 H 0 Z"
         transform="translate(-571.58351,-431.08981)"
         id="path55" />
    </clipPath>
    <clipPath
       clipPathUnits="userSpaceOnUse"
       id="clipPath57">
      <path
         d="M 0,900 H 1350 V 0 H 0 Z"
         transform="translate(-647.82422,-551.42242)"
         id="path57" />
    </clipPath>
    <clipPath
       clipPathUnits="userSpaceOnUse"
       id="clipPath59">
      <path
         d="M 0,900 H 1350 V 0 H 0 Z"
         transform="translate(-570.21292,-458.50001)"
         id="path59" />
    </clipPath>
    <clipPath
       clipPathUnits="userSpaceOnUse"
       id="clipPath61">
      <path
         d="M 0,900 H 1350 V 0 H 0 Z"
         transform="translate(-675.00002,-555.00001)"
         id="path61" />
    </clipPath>
    <clipPath
       clipPathUnits="userSpaceOnUse"
       id="clipPath63">
      <path
         d="M 0,900 H 1350 V 0 H 0 Z"
         transform="translate(-575.98342,-485.33151)"
         id="path63" />
    </clipPath>
    <clipPath
       clipPathUnits="userSpaceOnUse"
       id="clipPath65">
      <path
         d="M 0,900 H 1350 V 0 H 0 Z"
         transform="translate(-702.17582,-551.42242)"
         id="path65" />
    </clipPath>
    <clipPath
       clipPathUnits="userSpaceOnUse"
       id="clipPath67">
      <path
         d="M 0,900 H 1350 V 0 H 0 Z"
         transform="translate(-588.50201,-509.75491)"
         id="path67" />
    </clipPath>
    <clipPath
       clipPathUnits="userSpaceOnUse"
       id="clipPath69">
      <path
         d="M 0,900 H 1350 V 0 H 0 Z"
         transform="translate(-727.50002,-540.93262)"
         id="path69" />
    </clipPath>
    <clipPath
       clipPathUnits="userSpaceOnUse"
       id="clipPath71">
      <path
         d="M 0,900 H 1350 V 0 H 0 Z"
         transform="translate(-606.91502,-530.10601)"
         id="path71" />
    </clipPath>
    <clipPath
       clipPathUnits="userSpaceOnUse"
       id="clipPath73">
      <path
         d="M 0,900 H 1350 V 0 H 0 Z"
         transform="translate(-749.24612,-524.24611)"
         id="path73" />
    </clipPath>
    <clipPath
       clipPathUnits="userSpaceOnUse"
       id="clipPath75">
      <path
         d="M 0,900 H 1350 V 0 H 0 Z"
         transform="translate(-629.96782,-544.99801)"
         id="path75" />
    </clipPath>
    <clipPath
       clipPathUnits="userSpaceOnUse"
       id="clipPath77">
      <path
         d="M 0,900 H 1350 V 0 H 0 Z"
         transform="translate(-765.93264,-502.50001)"
         id="path77" />
    </clipPath>
    <clipPath
       clipPathUnits="userSpaceOnUse"
       id="clipPath79">
      <path
         d="M 0,900 H 1350 V 0 H 0 Z"
         transform="translate(-656.08982,-553.41652)"
         id="path79" />
    </clipPath>
    <clipPath
       clipPathUnits="userSpaceOnUse"
       id="clipPath81">
      <path
         d="M 0,900 H 1350 V 0 H 0 Z"
         transform="translate(-776.42192,-477.17581)"
         id="path81" />
    </clipPath>
    <clipPath
       clipPathUnits="userSpaceOnUse"
       id="clipPath83">
      <path
         d="M 0,900 H 1350 V 0 H 0 Z"
         transform="translate(-683.50001,-554.78711)"
         id="path83" />
    </clipPath>
    <clipPath
       clipPathUnits="userSpaceOnUse"
       id="clipPath85">
      <path
         d="M 0,900 H 1350 V 0 H 0 Z"
         transform="translate(-780.00002,-450.00001)"
         id="path85" />
    </clipPath>
    <clipPath
       clipPathUnits="userSpaceOnUse"
       id="clipPath87">
      <path
         d="M 0,900 H 1350 V 0 H 0 Z"
         transform="translate(-710.33112,-549.01661)"
         id="path87" />
    </clipPath>
    <clipPath
       clipPathUnits="userSpaceOnUse"
       id="clipPath89">
      <path
         d="M 0,900 H 1350 V 0 H 0 Z"
         transform="translate(-776.42192,-422.82421)"
         id="path89" />
    </clipPath>
    <clipPath
       clipPathUnits="userSpaceOnUse"
       id="clipPath91">
      <path
         d="M 0,900 H 1350 V 0 H 0 Z"
         transform="translate(-734.75492,-536.49802)"
         id="path91" />
    </clipPath>
    <clipPath
       clipPathUnits="userSpaceOnUse"
       id="clipPath93">
      <path
         d="M 0,900 H 1350 V 0 H 0 Z"
         transform="translate(-765.93264,-397.50001)"
         id="path93" />
    </clipPath>
    <clipPath
       clipPathUnits="userSpaceOnUse"
       id="clipPath95">
      <path
         d="M 0,900 H 1350 V 0 H 0 Z"
         transform="translate(-755.10639,-518.08501)"
         id="path95" />
    </clipPath>
    <clipPath
       clipPathUnits="userSpaceOnUse"
       id="clipPath97">
      <path
         d="M 0,900 H 1350 V 0 H 0 Z"
         transform="translate(-749.24612,-375.75391)"
         id="path97" />
    </clipPath>
    <clipPath
       clipPathUnits="userSpaceOnUse"
       id="clipPath99">
      <path
         d="M 0,900 H 1350 V 0 H 0 Z"
         transform="translate(-769.99802,-495.03221)"
         id="path99" />
    </clipPath>
    <clipPath
       clipPathUnits="userSpaceOnUse"
       id="clipPath101">
      <path
         d="M 0,900 H 1350 V 0 H 0 Z"
         transform="translate(-727.50002,-359.06741)"
         id="path101" />
    </clipPath>
    <clipPath
       clipPathUnits="userSpaceOnUse"
       id="clipPath103">
      <path
         d="M 0,900 H 1350 V 0 H 0 Z"
         transform="translate(-778.41602,-468.91021)"
         id="path103" />
    </clipPath>
    <clipPath
       clipPathUnits="userSpaceOnUse"
       id="clipPath105">
      <path
         d="M 0,900 H 1350 V 0 H 0 Z"
         transform="translate(-702.17582,-348.57811)"
         id="path105" />
    </clipPath>
  </defs>
  <sodipodi:namedview
     id="namedview1"
     pagecolor="#ffffff"
     bordercolor="#000000"
     borderopacity="0.25"
     inkscape:showpageshadow="2"
     inkscape:pageopacity="0.0"
     inkscape:pagecheckerboard="0"
     inkscape:deskcolor="#d1d1d1">
    <inkscape:page
       x="0"
       y="0"
       inkscape:label="1"
       id="page1"
       width="1800"
       height="1200"
       margin="0"
       bleed="0" />
  </sodipodi:namedview>
  <g
     id="layer-MC0"
     inkscape:groupmode="layer"
     inkscape:label="Layer 1">
    <path
       id="path1"
       d="M 0,0 H 1350 V 900 H 0 Z"
       style="fill:#ff9933;fill-opacity:1;fill-rule:nonzero;stroke:none"
       transform="matrix(1.3333333,0,0,-1.3333333,0,1200)" />
    <path
       id="path2"
       d="M 0,300 H 1350 V 600.001 H 0 Z"
       style="fill:#ffffff;fill-opacity:1;fill-rule:nonzero;stroke:none"
       transform="matrix(1.3333333,0,0,-1.3333333,0,1200)" />
    <path
       id="path3"
       d="M 0,0 H 1350 V 300 H 0 Z"
       style="fill:#128807;fill-opacity:1;fill-rule:nonzero;stroke:none"
       transform="matrix(1.3333333,0,0,-1.3333333,0,1200)" />
    <path
       id="path4"
       d="m 0,0 c 66.274,0 120,-53.726 120,-120 0,-66.274 -53.726,-120 -120,-120 -66.274,0 -120,53.726 -120,120 0,66.274 53.726,120 120,120"
       style="fill:#000088;fill-opacity:1;fill-rule:nonzero;stroke:none"
       transform="matrix(1.3333333,0,0,-1.3333333,900,440)"
       clip-path="url(#clipPath5)" />
    <path
       id="path6"
       d="m 0,0 c 57.99,0 105,-47.01 105,-105 0,-57.99 -47.01,-105 -105,-105 -57.99,0 -105,47.01 -105,105 0,57.99 47.01,105 105,105"
       style="fill:#ffffff;fill-opacity:1;fill-rule:nonzero;stroke:none"
       transform="matrix(1.3333333,0,0,-1.3333333,900,460)"
       clip-path="url(#clipPath7)" />
    <path
       id="path8"
       d="m 0,0 c 11.598,0 21,-9.402 21,-21 0,-11.598 -9.402,-21 -21,-21 -11.598,0 -21,9.402 -21,21 0,11.598 9.402,21 21,21"
       style="fill:#000088;fill-opacity:1;fill-rule:nonzero;stroke:none"
       transform="matrix(1.3333333,0,0,-1.3333333,900,572)"
       clip-path="url(#clipPath9)" />
    <path
       id="path10"
       d="m 0,0 c 2.875,-0.379 4.898,-3.016 4.52,-5.891 -0.378,-2.875 -3.016,-4.898 -5.891,-4.519 -2.874,0.378 -4.898,3.015 -4.52,5.89 C -5.512,-1.646 -2.875,0.378 0,0"
       style="fill:#000088;fill-opacity:1;fill-rule:nonzero;stroke:none"
       transform="matrix(1.3333333,0,0,-1.3333333,1039.7161,611.33333)"
       clip-path="url(#clipPath11)" />
    <path
       id="path12"
       d="M 0,0 3.6,63 0,93 -3.6,63 Z"
       style="fill:#000088;fill-opacity:1;fill-rule:nonzero;stroke:none"
       transform="matrix(1.3333333,0,0,-1.3333333,900,740)"
       clip-path="url(#clipPath13)" />
    <path
       id="path14"
       d="m 0,0 c 2.679,-1.11 3.951,-4.181 2.841,-6.859 -1.11,-2.68 -4.181,-3.952 -6.86,-2.842 -2.678,1.109 -3.95,4.18 -2.84,6.859 C -5.75,-0.163 -2.679,1.109 0,0"
       style="fill:#000088;fill-opacity:1;fill-rule:nonzero;stroke:none"
       transform="matrix(1.3333333,0,0,-1.3333333,1032.0221,647.10813)"
       clip-path="url(#clipPath15)" />
    <path
       id="path16"
       d="M 0,0 19.783,59.921 24.07,89.831 12.828,61.785 Z"
       style="fill:#000088;fill-opacity:1;fill-rule:nonzero;stroke:none"
       transform="matrix(1.3333333,0,0,-1.3333333,863.7656,735.2292)"
       clip-path="url(#clipPath17)" />
    <path
       id="path18"
       d="m 0,0 c 2.301,-1.765 2.734,-5.061 0.969,-7.361 -1.765,-2.3 -5.061,-2.735 -7.361,-0.969 -2.3,1.765 -2.734,5.06 -0.969,7.361 C -5.596,1.331 -2.3,1.766 0,0"
       style="fill:#000088;fill-opacity:1;fill-rule:nonzero;stroke:none"
       transform="matrix(1.3333333,0,0,-1.3333333,1015.3307,679.6732)"
       clip-path="url(#clipPath19)" />
    <path
       id="path20"
       d="M 0,0 34.618,52.76 46.5,80.54 28.382,56.359 Z"
       style="fill:#000088;fill-opacity:1;fill-rule:nonzero;stroke:none"
       transform="matrix(1.3333333,0,0,-1.3333333,830,721.24347)"
       clip-path="url(#clipPath21)" />
    <path
       id="path22"
       d="m 0,0 c 1.766,-2.3 1.331,-5.596 -0.969,-7.36 -2.301,-1.766 -5.596,-1.332 -7.361,0.968 -1.766,2.3 -1.331,5.596 0.969,7.362 C -5.061,2.734 -1.765,2.301 0,0"
       style="fill:#000088;fill-opacity:1;fill-rule:nonzero;stroke:none"
       transform="matrix(1.3333333,0,0,-1.3333333,990.78,706.80853)"
       clip-path="url(#clipPath23)" />
    <path
       id="path24"
       d="M 0,0 47.093,42.002 65.761,65.761 42.002,47.093 Z"
       style="fill:#000088;fill-opacity:1;fill-rule:nonzero;stroke:none"
       transform="matrix(1.3333333,0,0,-1.3333333,801.0052,698.9948)"
       clip-path="url(#clipPath25)" />
    <path
       id="path26"
       d="m 0,0 c 1.109,-2.679 -0.162,-5.75 -2.842,-6.859 -2.679,-1.111 -5.749,0.162 -6.859,2.84 -1.11,2.679 0.163,5.75 2.842,6.86 C -4.181,3.95 -1.109,2.679 0,0"
       style="fill:#000088;fill-opacity:1;fill-rule:nonzero;stroke:none"
       transform="matrix(1.3333333,0,0,-1.3333333,960.04293,726.664)"
       clip-path="url(#clipPath27)" />
    <path
       id="path28"
       d="M 0,0 56.359,28.382 80.541,46.5 52.76,34.618 Z"
       style="fill:#000088;fill-opacity:1;fill-rule:nonzero;stroke:none"
       transform="matrix(1.3333333,0,0,-1.3333333,778.75653,670)"
       clip-path="url(#clipPath29)" />
    <path
       id="path30"
       d="m 0,0 c 0.379,-2.875 -1.645,-5.513 -4.52,-5.891 -2.875,-0.379 -5.511,1.645 -5.89,4.52 -0.378,2.875 1.645,5.512 4.519,5.891 C -3.016,4.897 -0.378,2.874 0,0"
       style="fill:#000088;fill-opacity:1;fill-rule:nonzero;stroke:none"
       transform="matrix(1.3333333,0,0,-1.3333333,925.2136,737.888)"
       clip-path="url(#clipPath31)" />
    <path
       id="path32"
       d="M 0,0 61.785,12.828 89.831,24.07 59.922,19.782 Z"
       style="fill:#000088;fill-opacity:1;fill-rule:nonzero;stroke:none"
       transform="matrix(1.3333333,0,0,-1.3333333,764.77013,636.2344)"
       clip-path="url(#clipPath33)" />
    <path
       id="path34"
       d="m 0,0 c -0.378,-2.875 -3.016,-4.898 -5.891,-4.52 -2.874,0.378 -4.898,3.016 -4.519,5.891 0.378,2.874 3.015,4.898 5.89,4.52 C -1.646,5.512 0.378,2.875 0,0"
       style="fill:#000088;fill-opacity:1;fill-rule:nonzero;stroke:none"
       transform="matrix(1.3333333,0,0,-1.3333333,888.66667,739.71613)"
       clip-path="url(#clipPath35)" />
    <path
       id="path36"
       d="M 0,0 63,-3.6 93,0 63,3.6 Z"
       style="fill:#000088;fill-opacity:1;fill-rule:nonzero;stroke:none"
       transform="matrix(1.3333333,0,0,-1.3333333,760,600)"
       clip-path="url(#clipPath37)" />
    <path
       id="path38"
       d="m 0,0 c -1.109,-2.679 -4.181,-3.951 -6.859,-2.841 -2.679,1.11 -3.951,4.181 -2.842,6.86 1.11,2.678 4.181,3.95 6.86,2.84 C -0.162,5.75 1.11,2.679 0,0"
       style="fill:#000088;fill-opacity:1;fill-rule:nonzero;stroke:none"
       transform="matrix(1.3333333,0,0,-1.3333333,852.89133,732.02213)"
       clip-path="url(#clipPath39)" />
    <path
       id="path40"
       d="M 0,0 59.922,-19.783 89.831,-24.07 61.785,-12.828 Z"
       style="fill:#000088;fill-opacity:1;fill-rule:nonzero;stroke:none"
       transform="matrix(1.3333333,0,0,-1.3333333,764.77013,563.7656)"
       clip-path="url(#clipPath41)" />
    <path
       id="path42"
       d="m 0,0 c -1.765,-2.301 -5.061,-2.734 -7.361,-0.969 -2.301,1.765 -2.734,5.061 -0.969,7.361 1.765,2.3 5.06,2.734 7.361,0.969 C 1.331,5.596 1.765,2.3 0,0"
       style="fill:#000088;fill-opacity:1;fill-rule:nonzero;stroke:none"
       transform="matrix(1.3333333,0,0,-1.3333333,820.3268,715.33067)"
       clip-path="url(#clipPath43)" />
    <path
       id="path44"
       d="M 0,0 52.76,-34.618 80.541,-46.5 56.359,-28.382 Z"
       style="fill:#000088;fill-opacity:1;fill-rule:nonzero;stroke:none"
       transform="matrix(1.3333333,0,0,-1.3333333,778.75653,530)"
       clip-path="url(#clipPath45)" />
    <path
       id="path46"
       d="m 0,0 c -2.3,-1.766 -5.596,-1.331 -7.361,0.969 -1.765,2.301 -1.331,5.596 0.969,7.361 2.3,1.766 5.596,1.331 7.361,-0.969 C 2.734,5.061 2.3,1.765 0,0"
       style="fill:#000088;fill-opacity:1;fill-rule:nonzero;stroke:none"
       transform="matrix(1.3333333,0,0,-1.3333333,793.192,690.78)"
       clip-path="url(#clipPath47)" />
    <path
       id="path48"
       d="M 0,0 42.002,-47.093 65.761,-65.761 47.093,-42.002 Z"
       style="fill:#000088;fill-opacity:1;fill-rule:nonzero;stroke:none"
       transform="matrix(1.3333333,0,0,-1.3333333,801.0052,501.0052)"
       clip-path="url(#clipPath49)" />
    <path
       id="path50"
       d="m 0,0 c -2.679,-1.109 -5.75,0.163 -6.86,2.842 -1.109,2.679 0.163,5.749 2.841,6.859 2.679,1.11 5.75,-0.163 6.86,-2.842 C 3.951,4.181 2.679,1.109 0,0"
       style="fill:#000088;fill-opacity:1;fill-rule:nonzero;stroke:none"
       transform="matrix(1.3333333,0,0,-1.3333333,773.336,660.04293)"
       clip-path="url(#clipPath51)" />
    <path
       id="path52"
       d="M 0,0 28.382,-56.359 46.5,-80.541 34.618,-52.76 Z"
       style="fill:#000088;fill-opacity:1;fill-rule:nonzero;stroke:none"
       transform="matrix(1.3333333,0,0,-1.3333333,830,478.75653)"
       clip-path="url(#clipPath53)" />
    <path
       id="path54"
       d="m 0,0 c -2.875,-0.379 -5.512,1.645 -5.89,4.52 -0.379,2.875 1.645,5.511 4.519,5.89 C 1.504,10.788 4.142,8.765 4.52,5.891 4.898,3.016 2.875,0.378 0,0"
       style="fill:#000088;fill-opacity:1;fill-rule:nonzero;stroke:none"
       transform="matrix(1.3333333,0,0,-1.3333333,762.11133,625.2136)"
       clip-path="url(#clipPath55)" />
    <path
       id="path56"
       d="M 0,0 12.828,-61.785 24.07,-89.831 19.783,-59.922 Z"
       style="fill:#000088;fill-opacity:1;fill-rule:nonzero;stroke:none"
       transform="matrix(1.3333333,0,0,-1.3333333,863.7656,464.77013)"
       clip-path="url(#clipPath57)" />
    <path
       id="path58"
       d="m 0,0 c -2.875,0.378 -4.898,3.016 -4.52,5.891 0.379,2.874 3.016,4.898 5.891,4.519 C 4.245,10.032 6.269,7.395 5.891,4.52 5.512,1.646 2.875,-0.378 0,0"
       style="fill:#000088;fill-opacity:1;fill-rule:nonzero;stroke:none"
       transform="matrix(1.3333333,0,0,-1.3333333,760.28387,588.66667)"
       clip-path="url(#clipPath59)" />
    <path
       id="path60"
       d="M 0,0 -3.6,-63 0,-93 3.6,-63 Z"
       style="fill:#000088;fill-opacity:1;fill-rule:nonzero;stroke:none"
       transform="matrix(1.3333333,0,0,-1.3333333,900,460)"
       clip-path="url(#clipPath61)" />
    <path
       id="path62"
       d="m 0,0 c -2.679,1.109 -3.951,4.181 -2.841,6.859 1.11,2.679 4.18,3.951 6.86,2.842 C 6.697,8.591 7.969,5.52 6.86,2.841 5.75,0.162 2.679,-1.11 0,0"
       style="fill:#000088;fill-opacity:1;fill-rule:nonzero;stroke:none"
       transform="matrix(1.3333333,0,0,-1.3333333,767.97787,552.89133)"
       clip-path="url(#clipPath63)" />
    <path
       id="path64"
       d="m 0,0 -19.782,-59.922 -4.288,-29.909 11.242,28.046 z"
       style="fill:#000088;fill-opacity:1;fill-rule:nonzero;stroke:none"
       transform="matrix(1.3333333,0,0,-1.3333333,936.2344,464.77013)"
       clip-path="url(#clipPath65)" />
    <path
       id="path66"
       d="M 0,0 C -2.3,1.765 -2.734,5.061 -0.969,7.361 0.796,9.662 4.092,10.095 6.392,8.33 8.692,6.565 9.126,3.27 7.361,0.969 5.596,-1.331 2.3,-1.765 0,0"
       style="fill:#000088;fill-opacity:1;fill-rule:nonzero;stroke:none"
       transform="matrix(1.3333333,0,0,-1.3333333,784.66933,520.3268)"
       clip-path="url(#clipPath67)" />
    <path
       id="path68"
       d="M 0,0 -34.618,-52.76 -46.5,-80.541 -28.382,-56.359 Z"
       style="fill:#000088;fill-opacity:1;fill-rule:nonzero;stroke:none"
       transform="matrix(1.3333333,0,0,-1.3333333,970,478.75653)"
       clip-path="url(#clipPath69)" />
    <path
       id="path70"
       d="M 0,0 C -1.765,2.3 -1.332,5.596 0.969,7.361 3.27,9.126 6.565,8.692 8.33,6.392 10.095,4.092 9.661,0.796 7.361,-0.969 5.061,-2.734 1.765,-2.3 0,0"
       style="fill:#000088;fill-opacity:1;fill-rule:nonzero;stroke:none"
       transform="matrix(1.3333333,0,0,-1.3333333,809.22,493.192)"
       clip-path="url(#clipPath71)" />
    <path
       id="path72"
       d="m 0,0 -47.093,-42.002 -18.668,-23.759 23.759,18.668 z"
       style="fill:#000088;fill-opacity:1;fill-rule:nonzero;stroke:none"
       transform="matrix(1.3333333,0,0,-1.3333333,998.9948,501.0052)"
       clip-path="url(#clipPath73)" />
    <path
       id="path74"
       d="M 0,0 C -1.109,2.679 0.163,5.75 2.841,6.86 5.52,7.969 8.591,6.697 9.701,4.019 10.811,1.34 9.539,-1.731 6.859,-2.841 4.181,-3.951 1.11,-2.679 0,0"
       style="fill:#000088;fill-opacity:1;fill-rule:nonzero;stroke:none"
       transform="matrix(1.3333333,0,0,-1.3333333,839.95707,473.336)"
       clip-path="url(#clipPath75)" />
    <path
       id="path76"
       d="M 0,0 -56.359,-28.382 -80.54,-46.5 l 27.78,11.882 z"
       style="fill:#000088;fill-opacity:1;fill-rule:nonzero;stroke:none"
       transform="matrix(1.3333333,0,0,-1.3333333,1021.2435,530)"
       clip-path="url(#clipPath77)" />
    <path
       id="path78"
       d="M 0,0 C -0.378,2.875 1.645,5.512 4.52,5.89 7.395,6.269 10.032,4.245 10.41,1.371 10.789,-1.504 8.765,-4.142 5.89,-4.52 3.016,-4.898 0.378,-2.875 0,0"
       style="fill:#000088;fill-opacity:1;fill-rule:nonzero;stroke:none"
       transform="matrix(1.3333333,0,0,-1.3333333,874.7864,462.11133)"
       clip-path="url(#clipPath79)" />
    <path
       id="path80"
       d="m 0,0 -61.785,-12.828 -28.046,-11.242 29.91,4.287 z"
       style="fill:#000088;fill-opacity:1;fill-rule:nonzero;stroke:none"
       transform="matrix(1.3333333,0,0,-1.3333333,1035.2292,563.7656)"
       clip-path="url(#clipPath81)" />
    <path
       id="path82"
       d="M 0,0 C 0.379,2.875 3.016,4.898 5.891,4.52 8.766,4.141 10.789,1.504 10.41,-1.371 10.032,-4.245 7.395,-6.269 4.52,-5.891 1.646,-5.512 -0.378,-2.875 0,0"
       style="fill:#000088;fill-opacity:1;fill-rule:nonzero;stroke:none"
       transform="matrix(1.3333333,0,0,-1.3333333,911.33333,460.28387)"
       clip-path="url(#clipPath83)" />
    <path
       id="path84"
       d="M 0,0 -63,3.6 -93,0 -63,-3.6 Z"
       style="fill:#000088;fill-opacity:1;fill-rule:nonzero;stroke:none"
       transform="matrix(1.3333333,0,0,-1.3333333,1040,600)"
       clip-path="url(#clipPath85)" />
    <path
       id="path86"
       d="m 0,0 c 1.11,2.679 4.181,3.951 6.859,2.841 2.68,-1.11 3.952,-4.18 2.842,-6.86 C 8.592,-6.697 5.521,-7.969 2.842,-6.86 0.163,-5.75 -1.109,-2.679 0,0"
       style="fill:#000088;fill-opacity:1;fill-rule:nonzero;stroke:none"
       transform="matrix(1.3333333,0,0,-1.3333333,947.10813,467.97787)"
       clip-path="url(#clipPath87)" />
    <path
       id="path88"
       d="m 0,0 -59.921,19.782 -29.91,4.288 28.046,-11.242 z"
       style="fill:#000088;fill-opacity:1;fill-rule:nonzero;stroke:none"
       transform="matrix(1.3333333,0,0,-1.3333333,1035.2292,636.2344)"
       clip-path="url(#clipPath89)" />
    <path
       id="path90"
       d="M 0,0 C 1.765,2.3 5.061,2.734 7.361,0.969 9.661,-0.796 10.096,-4.092 8.33,-6.392 6.565,-8.692 3.27,-9.126 0.969,-7.361 -1.331,-5.596 -1.766,-2.3 0,0"
       style="fill:#000088;fill-opacity:1;fill-rule:nonzero;stroke:none"
       transform="matrix(1.3333333,0,0,-1.3333333,979.6732,484.66933)"
       clip-path="url(#clipPath91)" />
    <path
       id="path92"
       d="M 0,0 -52.76,34.618 -80.54,46.5 -56.359,28.382 Z"
       style="fill:#000088;fill-opacity:1;fill-rule:nonzero;stroke:none"
       transform="matrix(1.3333333,0,0,-1.3333333,1021.2435,670)"
       clip-path="url(#clipPath93)" />
    <path
       id="path94"
       d="M 0,0 C 2.3,1.765 5.596,1.332 7.36,-0.969 9.126,-3.27 8.692,-6.565 6.392,-8.33 4.092,-10.095 0.796,-9.661 -0.97,-7.361 -2.734,-5.061 -2.301,-1.765 0,0"
       style="fill:#000088;fill-opacity:1;fill-rule:nonzero;stroke:none"
       transform="matrix(1.3333333,0,0,-1.3333333,1006.8085,509.22)"
       clip-path="url(#clipPath95)" />
    <path
       id="path96"
       d="M 0,0 -42.002,47.093 -65.761,65.761 -47.093,42.002 Z"
       style="fill:#000088;fill-opacity:1;fill-rule:nonzero;stroke:none"
       transform="matrix(1.3333333,0,0,-1.3333333,998.9948,698.9948)"
       clip-path="url(#clipPath97)" />
    <path
       id="path98"
       d="m 0,0 c 2.679,1.109 5.75,-0.163 6.859,-2.841 1.111,-2.679 -0.162,-5.75 -2.84,-6.86 -2.679,-1.11 -5.75,0.162 -6.86,2.842 C -3.95,-4.181 -2.679,-1.11 0,0"
       style="fill:#000088;fill-opacity:1;fill-rule:nonzero;stroke:none"
       transform="matrix(1.3333333,0,0,-1.3333333,1026.664,539.95707)"
       clip-path="url(#clipPath99)" />
    <path
       id="path100"
       d="M 0,0 -28.382,56.359 -46.5,80.54 -34.618,52.76 Z"
       style="fill:#000088;fill-opacity:1;fill-rule:nonzero;stroke:none"
       transform="matrix(1.3333333,0,0,-1.3333333,970,721.24347)"
       clip-path="url(#clipPath101)" />
    <path
       id="path102"
       d="M 0,0 C 2.875,0.378 5.513,-1.645 5.891,-4.52 6.27,-7.395 4.246,-10.032 1.371,-10.41 -1.504,-10.789 -4.141,-8.765 -4.52,-5.89 -4.897,-3.016 -2.874,-0.378 0,0"
       style="fill:#000088;fill-opacity:1;fill-rule:nonzero;stroke:none"
       transform="matrix(1.3333333,0,0,-1.3333333,1037.888,574.7864)"
       clip-path="url(#clipPath103)" />
    <path
       id="path104"
       d="m 0,0 -12.828,61.785 -11.242,28.046 4.288,-29.91 z"
       style="fill:#000088;fill-opacity:1;fill-rule:nonzero;stroke:none"
       transform="matrix(1.3333333,0,0,-1.3333333,936.2344,735.2292)"
       clip-path="url(#clipPath105)" />
  </g>
</svg>
