<?xml version="1.0" encoding="UTF-8" standalone="no"?>
<!-- Created with Inkscape (http://www.inkscape.org/) -->

<svg
   version="1.1"
   id="svg1"
   width="1797.3333"
   height="1200"
   viewBox="0 0 1797.3333 1200"
   sodipodi:docname="iq.ai"
   xmlns:inkscape="http://www.inkscape.org/namespaces/inkscape"
   xmlns:sodipodi="http://sodipodi.sourceforge.net/DTD/sodipodi-0.dtd"
   xmlns="http://www.w3.org/2000/svg"
   xmlns:svg="http://www.w3.org/2000/svg">
  <defs
     id="defs1">
    <clipPath
       clipPathUnits="userSpaceOnUse"
       id="clipPath5">
      <path
         d="M 0,900 H 1348 V 0 H 0 Z"
         transform="translate(-626.47222,-447.42191)"
         id="path5" />
    </clipPath>
    <clipPath
       clipPathUnits="userSpaceOnUse"
       id="clipPath7">
      <path
         d="M 0,900 H 1348 V 0 H 0 Z"
         transform="translate(-817.83985,-544.95361)"
         id="path7" />
    </clipPath>
  </defs>
  <sodipodi:namedview
     id="namedview1"
     pagecolor="#ffffff"
     bordercolor="#000000"
     borderopacity="0.25"
     inkscape:showpageshadow="2"
     inkscape:pageopacity="0.0"
     inkscape:pagecheckerboard="0"
     inkscape:deskcolor="#d1d1d1">
    <inkscape:page
       x="0"
       y="0"
       inkscape:label="1"
       id="page1"
       width="1797.3333"
       height="1200"
       margin="2.2222133 0 0 0.66666669"
       bleed="0" />
  </sodipodi:namedview>
  <g
     id="layer-MC0"
     inkscape:groupmode="layer"
     inkscape:label="Layer 1">
    <path
       id="path1"
       d="M 0.5,600.556 H 1348 V 900 H 0.5 Z"
       style="fill:#ce1126;fill-opacity:1;fill-rule:nonzero;stroke:none"
       transform="matrix(1.3333333,0,0,-1.3333333,0,1200)" />
    <path
       id="path2"
       d="M 0.5,301.111 H 1348 V 600.555 H 0.5 Z"
       style="fill:#ffffff;fill-opacity:1;fill-rule:nonzero;stroke:none"
       transform="matrix(1.3333333,0,0,-1.3333333,0,1200)" />
    <path
       id="path3"
       d="M 0.5,1.667 H 1348 V 301.111 H 0.5 Z"
       style="fill:#000000;fill-opacity:1;fill-rule:nonzero;stroke:none"
       transform="matrix(1.3333333,0,0,-1.3333333,0,1200)" />
    <path
       id="path4"
       d="m 0,0 c 0,49.132 0.408,70.596 1.351,71.234 0.74,0.5 3.961,-2.07 7.154,-5.71 3.192,-3.641 8.884,-9.487 12.653,-12.991 5.944,-5.537 6.562,-6.556 4.73,-7.77 -6.128,-4.048 -5.972,-2.773 -5.972,-49.48 v -43.886 h 11.912 c 10.576,0 12.531,0.392 17.421,3.513 6.071,3.87 6.474,3.36 3.469,-4.363 -1.126,-2.881 -2.382,-8.592 -2.804,-12.686 L 49.155,-69.582 24.575,-69.949 0,-70.316 V 0.041 Z m -269.424,-103.548 c -2.785,1.107 -7.305,4.752 -10.267,8.276 -5.584,6.642 -6.855,9.742 -3.104,7.56 5.592,-3.257 16.671,-5.373 20.614,-3.946 14.542,5.281 17.847,26.394 6.235,39.788 -2.278,2.626 -4.144,5.679 -4.144,6.785 0,1.107 2.423,3.176 5.381,4.599 4.145,1.994 6.17,4.166 8.824,9.463 2.69,5.379 3.797,6.551 5.091,5.383 1.846,-1.667 8.087,-17.859 8.087,-20.99 0,-1.65 2.254,-2.014 12.46,-2.014 h 12.462 l -1.946,5.079 c -1.069,2.788 -2.831,6.545 -3.915,8.345 -1.752,2.917 -1.763,3.432 -0.08,4.737 1.037,0.805 4.488,3.447 7.671,5.869 3.178,2.421 6.151,5.465 6.595,6.764 1.103,3.223 7.994,12.516 9.273,12.516 0.567,0 1.037,-9.742 1.037,-21.65 v -21.654 h 155.556 v 62.036 l -4.328,2.913 -4.327,2.911 -4.383,-3.637 -4.384,-3.635 v -44.341 h -65.333 c -35.94,0 -65.338,0.246 -65.338,0.541 0,0.474 32.511,48.226 36.487,53.595 0.826,1.116 2.87,4.16 4.538,6.765 1.67,2.606 3.37,5.042 3.774,5.415 0.412,0.371 2.096,2.808 3.755,5.414 1.655,2.605 3.587,5.449 4.294,6.316 0.709,0.872 12.485,18.039 26.174,38.152 13.69,20.113 25.297,36.606 25.803,36.651 0.502,0.047 1.216,-1.595 1.585,-3.639 2.053,-11.329 3.63,-17.672 5.256,-21.159 2.082,-4.461 0.862,-6.128 -4.637,-6.312 -2.601,-0.086 -8.597,-8.091 -36.713,-49.02 -18.48,-26.904 -33.787,-49.397 -34.016,-49.989 -0.23,-0.591 16.431,-1.076 37.022,-1.076 h 37.438 l 0.019,14.55 c 0.011,8 0.431,15.179 0.933,15.948 2.35,3.6 27.102,22.407 28.828,21.907 1.074,-0.31 7.693,-5.316 14.711,-11.124 L -13.68,19.98 v -90.27 h -216.167 l -2.172,-8.73 c -2.606,-10.46 -6.867,-18.006 -12.591,-22.269 -5.439,-3.977 -17.675,-5.099 -24.848,-2.242 z m 53.163,-4.282 -7.745,8.499 7.815,8.423 7.815,8.422 7.745,-8.499 7.745,-8.499 -7.815,-8.422 -7.815,-8.422 -7.736,8.514 z"
       style="fill:#007a3d;fill-opacity:1;fill-rule:nonzero;stroke:none"
       transform="matrix(1.3333333,0,0,-1.3333333,835.29627,603.43747)"
       clip-path="url(#clipPath5)" />
    <path
       id="path6"
       d="m 0,0 c -3.009,2.233 -9.361,13.678 -9.601,17.319 -0.21,3.12 0.3,4.074 2.34,4.395 3.573,0.556 5.223,-2.029 7.97,-12.486 C 2.96,0.663 2.724,-2.04 0.006,0 Z m -15.142,-22.434 c -2.203,0.878 -4.734,2.434 -5.62,3.453 -1.36,1.56 -0.686,1.713 4.256,0.942 8.88,-1.375 14.321,0.261 19.273,5.813 l 4.355,4.874 6.052,-2.335 c 3.329,-1.285 6.807,-2.019 7.736,-1.631 2.4,1.004 6.751,8.504 6.315,10.889 -0.531,2.912 1.927,2.469 3.445,-0.616 2.982,-6.058 0.493,-13.74 -5.204,-16.081 -2.788,-1.146 -5.485,-1.177 -10.004,-0.127 -5.55,1.295 -6.459,1.158 -8.893,-1.32 -5.438,-5.558 -13.736,-7.036 -21.707,-3.875 z m 98.357,-73.925 c 0,49.321 0.407,70.873 1.355,71.51 0.745,0.499 3.98,-2.08 7.182,-5.736 3.206,-3.655 8.916,-9.524 12.695,-13.042 5.967,-5.558 6.592,-6.581 4.749,-7.801 -6.151,-4.063 -5.996,-2.788 -5.996,-49.672 v -44.061 h 12.203 c 11.069,0 12.643,0.327 16.961,3.519 2.621,1.933 5.068,3.182 5.444,2.773 0.376,-0.408 -0.3,-3.364 -1.505,-6.572 -1.205,-3.207 -2.541,-9.192 -2.968,-13.301 l -0.778,-7.474 -24.673,-0.367 -24.674,-0.368 v 70.613 z m -108.717,-39.972 v 8.831 h -4.9 c -6.577,0 -12.587,-6.208 -12.587,-13.011 v -4.65 h 17.487 v 8.821 z m -37.177,-13.255 c 0.652,19.787 2.532,26.501 9.207,32.875 5.139,4.905 12.491,7.229 20.998,6.633 l 6.372,-0.449 0.383,8.096 c 0.485,10.258 -0.37,13.918 -3.506,15.004 -3.765,1.3 -2.996,5.552 1.566,8.647 2.231,1.513 7.698,6.76 12.143,11.659 4.444,4.9 8.523,8.908 9.056,8.908 0.535,0 0.976,-19.562 0.976,-43.474 v -43.48 h 17.487 v 44.739 c 0,38.861 -0.259,45.019 -1.965,46.874 -1.078,1.173 -2.484,2.137 -3.122,2.137 -2.805,0 -0.82,5.44 2.897,7.964 2.237,1.513 7.67,6.729 12.085,11.593 4.412,4.863 8.491,8.53 9.058,8.147 0.567,-0.381 1.031,-27.862 1.031,-61.073 v -60.381 h 17.488 v 123.652 l -3.122,2.952 c -1.717,1.622 -3.124,3.69 -3.124,4.594 0,0.902 3.887,5.052 8.636,9.227 4.749,4.176 9.846,9.437 11.327,11.7 6.375,9.744 6.273,11.197 6.273,-84.872 v -88.985 H -63.256 l 0.797,17.333 z"
       style="fill:#007a3d;fill-opacity:1;fill-rule:nonzero;stroke:none"
       transform="matrix(1.3333333,0,0,-1.3333333,1090.4531,473.3952)"
       clip-path="url(#clipPath7)" />
  </g>
</svg>
