<?xml version="1.0" encoding="UTF-8" standalone="no"?>
<!-- Created with Inkscape (http://www.inkscape.org/) -->

<svg
   version="1.1"
   id="svg1"
   width="898"
   height="598.66669"
   viewBox="0 0 898 598.66669"
   sodipodi:docname="je.ai"
   xmlns:inkscape="http://www.inkscape.org/namespaces/inkscape"
   xmlns:sodipodi="http://sodipodi.sourceforge.net/DTD/sodipodi-0.dtd"
   xmlns="http://www.w3.org/2000/svg"
   xmlns:svg="http://www.w3.org/2000/svg">
  <defs
     id="defs1">
    <clipPath
       clipPathUnits="userSpaceOnUse"
       id="clipPath4">
      <path
         d="M 0,0 H 673.5 V 449 H 0 Z"
         transform="translate(-376.62601,-381.67581)"
         id="path4" />
    </clipPath>
    <clipPath
       clipPathUnits="userSpaceOnUse"
       id="clipPath6">
      <path
         d="M 0,0 H 673.5 V 449 H 0 Z"
         transform="translate(-337.37991,-389.51221)"
         id="path6" />
    </clipPath>
    <clipPath
       clipPathUnits="userSpaceOnUse"
       id="clipPath8">
      <path
         d="M 0,0 H 673.5 V 449 H 0 Z"
         transform="translate(-370.48931,-351.23391)"
         id="path8" />
    </clipPath>
    <clipPath
       clipPathUnits="userSpaceOnUse"
       id="clipPath10">
      <path
         d="M 0,0 H 673.5 V 449 H 0 Z"
         transform="translate(-313.95801,-375.47311)"
         id="path10" />
    </clipPath>
    <clipPath
       clipPathUnits="userSpaceOnUse"
       id="clipPath12">
      <path
         d="M 0,0 H 673.5 V 449 H 0 Z"
         transform="translate(-321.99321,-375.47311)"
         id="path12" />
    </clipPath>
    <clipPath
       clipPathUnits="userSpaceOnUse"
       id="clipPath14">
      <path
         d="M 0,0 H 673.5 V 449 H 0 Z"
         transform="translate(-317.98881,-376.88281)"
         id="path14" />
    </clipPath>
    <clipPath
       clipPathUnits="userSpaceOnUse"
       id="clipPath16">
      <path
         d="M 0,0 H 673.5 V 449 H 0 Z"
         transform="translate(-305.44191,-365.60501)"
         id="path16" />
    </clipPath>
    <clipPath
       clipPathUnits="userSpaceOnUse"
       id="clipPath18">
      <path
         d="M 0,0 H 673.5 V 449 H 0 Z"
         transform="translate(-345.37991,-351.41801)"
         id="path18" />
    </clipPath>
    <clipPath
       clipPathUnits="userSpaceOnUse"
       id="clipPath20">
      <path
         d="M 0,0 H 673.5 V 449 H 0 Z"
         transform="translate(-318.80181,-372.58981)"
         id="path20" />
    </clipPath>
    <clipPath
       clipPathUnits="userSpaceOnUse"
       id="clipPath22">
      <path
         d="M 0,0 H 673.5 V 449 H 0 Z"
         transform="translate(-317.97411,-364.96091)"
         id="path22" />
    </clipPath>
    <clipPath
       clipPathUnits="userSpaceOnUse"
       id="clipPath24">
      <path
         d="M 0,0 H 673.5 V 449 H 0 Z"
         transform="translate(-316.79791,-368.67581)"
         id="path24" />
    </clipPath>
    <clipPath
       clipPathUnits="userSpaceOnUse"
       id="clipPath26">
      <path
         d="M 0,0 H 673.5 V 449 H 0 Z"
         transform="translate(-316.79791,-368.51221)"
         id="path26" />
    </clipPath>
    <clipPath
       clipPathUnits="userSpaceOnUse"
       id="clipPath28">
      <path
         d="M 0,0 H 673.5 V 449 H 0 Z"
         transform="translate(-316.83301,-368.33201)"
         id="path28" />
    </clipPath>
    <clipPath
       clipPathUnits="userSpaceOnUse"
       id="clipPath30">
      <path
         d="M 0,0 H 673.5 V 449 H 0 Z"
         transform="translate(-319.14991,-368.67581)"
         id="path30" />
    </clipPath>
    <clipPath
       clipPathUnits="userSpaceOnUse"
       id="clipPath32">
      <path
         d="M 0,0 H 673.5 V 449 H 0 Z"
         transform="translate(-319.14991,-368.51221)"
         id="path32" />
    </clipPath>
    <clipPath
       clipPathUnits="userSpaceOnUse"
       id="clipPath34">
      <path
         d="M 0,0 H 673.5 V 449 H 0 Z"
         transform="translate(-319.11821,-368.33201)"
         id="path34" />
    </clipPath>
    <clipPath
       clipPathUnits="userSpaceOnUse"
       id="clipPath36">
      <path
         d="M 0,0 H 673.5 V 449 H 0 Z"
         transform="translate(-301.71191,-378.06981)"
         id="path36" />
    </clipPath>
    <clipPath
       clipPathUnits="userSpaceOnUse"
       id="clipPath38">
      <path
         d="M 0,0 H 673.5 V 449 H 0 Z"
         transform="translate(-300.52781,-375.37891)"
         id="path38" />
    </clipPath>
    <clipPath
       clipPathUnits="userSpaceOnUse"
       id="clipPath40">
      <path
         d="M 0,0 H 673.5 V 449 H 0 Z"
         transform="translate(-299.93121,-371.76221)"
         id="path40" />
    </clipPath>
    <clipPath
       clipPathUnits="userSpaceOnUse"
       id="clipPath42">
      <path
         d="M 0,0 H 673.5 V 449 H 0 Z"
         transform="translate(-301.02101,-360.55521)"
         id="path42" />
    </clipPath>
    <clipPath
       clipPathUnits="userSpaceOnUse"
       id="clipPath44">
      <path
         d="M 0,0 H 673.5 V 449 H 0 Z"
         transform="translate(-300.96191,-358.10211)"
         id="path44" />
    </clipPath>
    <clipPath
       clipPathUnits="userSpaceOnUse"
       id="clipPath46">
      <path
         d="M 0,0 H 673.5 V 449 H 0 Z"
         transform="translate(-302.71971,-356.27001)"
         id="path46" />
    </clipPath>
    <clipPath
       clipPathUnits="userSpaceOnUse"
       id="clipPath48">
      <path
         d="M 0,0 H 673.5 V 449 H 0 Z"
         transform="translate(-338.57131,-352.71871)"
         id="path48" />
    </clipPath>
    <clipPath
       clipPathUnits="userSpaceOnUse"
       id="clipPath50">
      <path
         d="M 0,0 H 673.5 V 449 H 0 Z"
         transform="translate(-340.41891,-351.05911)"
         id="path50" />
    </clipPath>
    <clipPath
       clipPathUnits="userSpaceOnUse"
       id="clipPath52">
      <path
         d="M 0,0 H 673.5 V 449 H 0 Z"
         transform="translate(-339.11821,-355.07421)"
         id="path52" />
    </clipPath>
    <clipPath
       clipPathUnits="userSpaceOnUse"
       id="clipPath54">
      <path
         d="M 0,0 H 673.5 V 449 H 0 Z"
         transform="translate(-364.62211,-352.20311)"
         id="path54" />
    </clipPath>
    <clipPath
       clipPathUnits="userSpaceOnUse"
       id="clipPath56">
      <path
         d="M 0,0 H 673.5 V 449 H 0 Z"
         transform="translate(-364.66501,-354.45311)"
         id="path56" />
    </clipPath>
    <clipPath
       clipPathUnits="userSpaceOnUse"
       id="clipPath58">
      <path
         d="M 0,0 H 673.5 V 449 H 0 Z"
         transform="translate(-365.66111,-350.19091)"
         id="path58" />
    </clipPath>
    <clipPath
       clipPathUnits="userSpaceOnUse"
       id="clipPath60">
      <path
         d="M 0,0 H 673.5 V 449 H 0 Z"
         transform="translate(-318.07911,-366.06201)"
         id="path60" />
    </clipPath>
    <clipPath
       clipPathUnits="userSpaceOnUse"
       id="clipPath62">
      <path
         d="M 0,0 H 673.5 V 449 H 0 Z"
         transform="translate(-366.01271,-319.22711)"
         id="path62" />
    </clipPath>
    <clipPath
       clipPathUnits="userSpaceOnUse"
       id="clipPath64">
      <path
         d="M 0,0 H 673.5 V 449 H 0 Z"
         transform="translate(-315.13821,-341.04301)"
         id="path64" />
    </clipPath>
    <clipPath
       clipPathUnits="userSpaceOnUse"
       id="clipPath66">
      <path
         d="M 0,0 H 673.5 V 449 H 0 Z"
         transform="translate(-322.36431,-341.04301)"
         id="path66" />
    </clipPath>
    <clipPath
       clipPathUnits="userSpaceOnUse"
       id="clipPath68">
      <path
         d="M 0,0 H 673.5 V 449 H 0 Z"
         transform="translate(-318.76321,-342.31201)"
         id="path68" />
    </clipPath>
    <clipPath
       clipPathUnits="userSpaceOnUse"
       id="clipPath70">
      <path
         d="M 0,0 H 673.5 V 449 H 0 Z"
         transform="translate(-307.47411,-332.16021)"
         id="path70" />
    </clipPath>
    <clipPath
       clipPathUnits="userSpaceOnUse"
       id="clipPath72">
      <path
         d="M 0,0 H 673.5 V 449 H 0 Z"
         transform="translate(-343.41501,-319.39501)"
         id="path72" />
    </clipPath>
    <clipPath
       clipPathUnits="userSpaceOnUse"
       id="clipPath74">
      <path
         d="M 0,0 H 673.5 V 449 H 0 Z"
         transform="translate(-319.49711,-338.44921)"
         id="path74" />
    </clipPath>
    <clipPath
       clipPathUnits="userSpaceOnUse"
       id="clipPath76">
      <path
         d="M 0,0 H 673.5 V 449 H 0 Z"
         transform="translate(-318.75101,-331.58201)"
         id="path76" />
    </clipPath>
    <clipPath
       clipPathUnits="userSpaceOnUse"
       id="clipPath78">
      <path
         d="M 0,0 H 673.5 V 449 H 0 Z"
         transform="translate(-317.69191,-334.92191)"
         id="path78" />
    </clipPath>
    <clipPath
       clipPathUnits="userSpaceOnUse"
       id="clipPath80">
      <path
         d="M 0,0 H 673.5 V 449 H 0 Z"
         transform="translate(-317.69191,-334.77691)"
         id="path80" />
    </clipPath>
    <clipPath
       clipPathUnits="userSpaceOnUse"
       id="clipPath82">
      <path
         d="M 0,0 H 673.5 V 449 H 0 Z"
         transform="translate(-317.72411,-334.61281)"
         id="path82" />
    </clipPath>
    <clipPath
       clipPathUnits="userSpaceOnUse"
       id="clipPath84">
      <path
         d="M 0,0 H 673.5 V 449 H 0 Z"
         transform="translate(-319.81011,-334.92191)"
         id="path84" />
    </clipPath>
    <clipPath
       clipPathUnits="userSpaceOnUse"
       id="clipPath86">
      <path
         d="M 0,0 H 673.5 V 449 H 0 Z"
         transform="translate(-319.81011,-334.77691)"
         id="path86" />
    </clipPath>
    <clipPath
       clipPathUnits="userSpaceOnUse"
       id="clipPath88">
      <path
         d="M 0,0 H 673.5 V 449 H 0 Z"
         transform="translate(-319.77781,-334.61281)"
         id="path88" />
    </clipPath>
    <clipPath
       clipPathUnits="userSpaceOnUse"
       id="clipPath90">
      <path
         d="M 0,0 H 673.5 V 449 H 0 Z"
         transform="translate(-304.11381,-343.37891)"
         id="path90" />
    </clipPath>
    <clipPath
       clipPathUnits="userSpaceOnUse"
       id="clipPath92">
      <path
         d="M 0,0 H 673.5 V 449 H 0 Z"
         transform="translate(-303.04791,-340.95701)"
         id="path92" />
    </clipPath>
    <clipPath
       clipPathUnits="userSpaceOnUse"
       id="clipPath94">
      <path
         d="M 0,0 H 673.5 V 449 H 0 Z"
         transform="translate(-302.51321,-337.70311)"
         id="path94" />
    </clipPath>
    <clipPath
       clipPathUnits="userSpaceOnUse"
       id="clipPath96">
      <path
         d="M 0,0 H 673.5 V 449 H 0 Z"
         transform="translate(-303.49321,-327.61721)"
         id="path96" />
    </clipPath>
    <clipPath
       clipPathUnits="userSpaceOnUse"
       id="clipPath98">
      <path
         d="M 0,0 H 673.5 V 449 H 0 Z"
         transform="translate(-303.44191,-325.41021)"
         id="path98" />
    </clipPath>
    <clipPath
       clipPathUnits="userSpaceOnUse"
       id="clipPath100">
      <path
         d="M 0,0 H 673.5 V 449 H 0 Z"
         transform="translate(-305.02101,-323.75781)"
         id="path100" />
    </clipPath>
    <clipPath
       clipPathUnits="userSpaceOnUse"
       id="clipPath102">
      <path
         d="M 0,0 H 673.5 V 449 H 0 Z"
         transform="translate(-337.28611,-320.56201)"
         id="path102" />
    </clipPath>
    <clipPath
       clipPathUnits="userSpaceOnUse"
       id="clipPath104">
      <path
         d="M 0,0 H 673.5 V 449 H 0 Z"
         transform="translate(-338.95021,-319.06591)"
         id="path104" />
    </clipPath>
    <clipPath
       clipPathUnits="userSpaceOnUse"
       id="clipPath106">
      <path
         d="M 0,0 H 673.5 V 449 H 0 Z"
         transform="translate(-337.77831,-322.68411)"
         id="path106" />
    </clipPath>
    <clipPath
       clipPathUnits="userSpaceOnUse"
       id="clipPath108">
      <path
         d="M 0,0 H 673.5 V 449 H 0 Z"
         transform="translate(-360.73241,-320.09811)"
         id="path108" />
    </clipPath>
    <clipPath
       clipPathUnits="userSpaceOnUse"
       id="clipPath110">
      <path
         d="M 0,0 H 673.5 V 449 H 0 Z"
         transform="translate(-360.77151,-322.12501)"
         id="path110" />
    </clipPath>
    <clipPath
       clipPathUnits="userSpaceOnUse"
       id="clipPath112">
      <path
         d="M 0,0 H 673.5 V 449 H 0 Z"
         transform="translate(-361.66891,-318.28521)"
         id="path112" />
    </clipPath>
    <clipPath
       clipPathUnits="userSpaceOnUse"
       id="clipPath114">
      <path
         d="M 0,0 H 673.5 V 449 H 0 Z"
         transform="translate(-318.84471,-332.56981)"
         id="path114" />
    </clipPath>
    <clipPath
       clipPathUnits="userSpaceOnUse"
       id="clipPath116">
      <path
         d="M 0,0 H 673.5 V 449 H 0 Z"
         transform="translate(-358.52831,-291.83201)"
         id="path116" />
    </clipPath>
    <clipPath
       clipPathUnits="userSpaceOnUse"
       id="clipPath118">
      <path
         d="M 0,0 H 673.5 V 449 H 0 Z"
         transform="translate(-358.52831,-291.83201)"
         id="path118" />
    </clipPath>
    <clipPath
       clipPathUnits="userSpaceOnUse"
       id="clipPath120">
      <path
         d="M 0,0 H 673.5 V 449 H 0 Z"
         transform="translate(-320.65721,-310.01221)"
         id="path120" />
    </clipPath>
    <clipPath
       clipPathUnits="userSpaceOnUse"
       id="clipPath122">
      <path
         d="M 0,0 H 673.5 V 449 H 0 Z"
         transform="translate(-320.65721,-310.01221)"
         id="path122" />
    </clipPath>
    <clipPath
       clipPathUnits="userSpaceOnUse"
       id="clipPath124">
      <path
         d="M 0,0 H 673.5 V 449 H 0 Z"
         transform="translate(-326.03611,-310.01221)"
         id="path124" />
    </clipPath>
    <clipPath
       clipPathUnits="userSpaceOnUse"
       id="clipPath126">
      <path
         d="M 0,0 H 673.5 V 449 H 0 Z"
         transform="translate(-326.03611,-310.01221)"
         id="path126" />
    </clipPath>
    <clipPath
       clipPathUnits="userSpaceOnUse"
       id="clipPath128">
      <path
         d="M 0,0 H 673.5 V 449 H 0 Z"
         transform="translate(-323.35301,-311.06981)"
         id="path128" />
    </clipPath>
    <clipPath
       clipPathUnits="userSpaceOnUse"
       id="clipPath130">
      <path
         d="M 0,0 H 673.5 V 449 H 0 Z"
         transform="translate(-323.35251,-311.06981)"
         id="path130" />
    </clipPath>
    <clipPath
       clipPathUnits="userSpaceOnUse"
       id="clipPath132">
      <path
         d="M 0,0 H 673.5 V 449 H 0 Z"
         transform="translate(-314.95021,-302.60941)"
         id="path132" />
    </clipPath>
    <clipPath
       clipPathUnits="userSpaceOnUse"
       id="clipPath134">
      <path
         d="M 0,0 H 673.5 V 449 H 0 Z"
         transform="translate(-314.94971,-302.60941)"
         id="path134" />
    </clipPath>
    <clipPath
       clipPathUnits="userSpaceOnUse"
       id="clipPath136">
      <path
         d="M 0,0 H 673.5 V 449 H 0 Z"
         transform="translate(-341.70801,-291.9687)"
         id="path136" />
    </clipPath>
    <clipPath
       clipPathUnits="userSpaceOnUse"
       id="clipPath138">
      <path
         d="M 0,0 H 673.5 V 449 H 0 Z"
         transform="translate(-323.89941,-307.84811)"
         id="path138" />
    </clipPath>
    <clipPath
       clipPathUnits="userSpaceOnUse"
       id="clipPath140">
      <path
         d="M 0,0 H 673.5 V 449 H 0 Z"
         transform="translate(-323.34471,-302.12501)"
         id="path140" />
    </clipPath>
    <clipPath
       clipPathUnits="userSpaceOnUse"
       id="clipPath142">
      <path
         d="M 0,0 H 673.5 V 449 H 0 Z"
         transform="translate(-323.34471,-302.12501)"
         id="path142" />
    </clipPath>
    <clipPath
       clipPathUnits="userSpaceOnUse"
       id="clipPath144">
      <path
         d="M 0,0 H 673.5 V 449 H 0 Z"
         transform="translate(-322.56011,-304.91021)"
         id="path144" />
    </clipPath>
    <clipPath
       clipPathUnits="userSpaceOnUse"
       id="clipPath146">
      <path
         d="M 0,0 H 673.5 V 449 H 0 Z"
         transform="translate(-322.56011,-304.78911)"
         id="path146" />
    </clipPath>
    <clipPath
       clipPathUnits="userSpaceOnUse"
       id="clipPath148">
      <path
         d="M 0,0 H 673.5 V 449 H 0 Z"
         transform="translate(-322.57911,-304.65621)"
         id="path148" />
    </clipPath>
    <clipPath
       clipPathUnits="userSpaceOnUse"
       id="clipPath150">
      <path
         d="M 0,0 H 673.5 V 449 H 0 Z"
         transform="translate(-324.13381,-304.91021)"
         id="path150" />
    </clipPath>
    <clipPath
       clipPathUnits="userSpaceOnUse"
       id="clipPath152">
      <path
         d="M 0,0 H 673.5 V 449 H 0 Z"
         transform="translate(-324.13381,-304.78911)"
         id="path152" />
    </clipPath>
    <clipPath
       clipPathUnits="userSpaceOnUse"
       id="clipPath154">
      <path
         d="M 0,0 H 673.5 V 449 H 0 Z"
         transform="translate(-324.10991,-304.65621)"
         id="path154" />
    </clipPath>
    <clipPath
       clipPathUnits="userSpaceOnUse"
       id="clipPath156">
      <path
         d="M 0,0 H 673.5 V 449 H 0 Z"
         transform="translate(-324.11041,-304.65621)"
         id="path156" />
    </clipPath>
    <clipPath
       clipPathUnits="userSpaceOnUse"
       id="clipPath158">
      <path
         d="M 0,0 H 673.5 V 449 H 0 Z"
         transform="translate(-312.45021,-311.95701)"
         id="path158" />
    </clipPath>
    <clipPath
       clipPathUnits="userSpaceOnUse"
       id="clipPath160">
      <path
         d="M 0,0 H 673.5 V 449 H 0 Z"
         transform="translate(-312.45021,-311.95701)"
         id="path160" />
    </clipPath>
    <clipPath
       clipPathUnits="userSpaceOnUse"
       id="clipPath162">
      <path
         d="M 0,0 H 673.5 V 449 H 0 Z"
         transform="translate(-311.65721,-309.93801)"
         id="path162" />
    </clipPath>
    <clipPath
       clipPathUnits="userSpaceOnUse"
       id="clipPath164">
      <path
         d="M 0,0 H 673.5 V 449 H 0 Z"
         transform="translate(-311.25881,-307.22711)"
         id="path164" />
    </clipPath>
    <clipPath
       clipPathUnits="userSpaceOnUse"
       id="clipPath166">
      <path
         d="M 0,0 H 673.5 V 449 H 0 Z"
         transform="translate(-311.25881,-307.22711)"
         id="path166" />
    </clipPath>
    <clipPath
       clipPathUnits="userSpaceOnUse"
       id="clipPath168">
      <path
         d="M 0,0 H 673.5 V 449 H 0 Z"
         transform="translate(-311.98881,-298.82031)"
         id="path168" />
    </clipPath>
    <clipPath
       clipPathUnits="userSpaceOnUse"
       id="clipPath170">
      <path
         d="M 0,0 H 673.5 V 449 H 0 Z"
         transform="translate(-311.98931,-298.82031)"
         id="path170" />
    </clipPath>
    <clipPath
       clipPathUnits="userSpaceOnUse"
       id="clipPath172">
      <path
         d="M 0,0 H 673.5 V 449 H 0 Z"
         transform="translate(-311.95021,-296.9844)"
         id="path172" />
    </clipPath>
    <clipPath
       clipPathUnits="userSpaceOnUse"
       id="clipPath174">
      <path
         d="M 0,0 H 673.5 V 449 H 0 Z"
         transform="translate(-311.95021,-296.9844)"
         id="path174" />
    </clipPath>
    <clipPath
       clipPathUnits="userSpaceOnUse"
       id="clipPath176">
      <path
         d="M 0,0 H 673.5 V 449 H 0 Z"
         transform="translate(-313.12601,-295.60941)"
         id="path176" />
    </clipPath>
    <clipPath
       clipPathUnits="userSpaceOnUse"
       id="clipPath178">
      <path
         d="M 0,0 H 673.5 V 449 H 0 Z"
         transform="translate(-313.12601,-295.60941)"
         id="path178" />
    </clipPath>
    <clipPath
       clipPathUnits="userSpaceOnUse"
       id="clipPath180">
      <path
         d="M 0,0 H 673.5 V 449 H 0 Z"
         transform="translate(-337.14601,-292.94531)"
         id="path180" />
    </clipPath>
    <clipPath
       clipPathUnits="userSpaceOnUse"
       id="clipPath182">
      <path
         d="M 0,0 H 673.5 V 449 H 0 Z"
         transform="translate(-337.14551,-292.94531)"
         id="path182" />
    </clipPath>
    <clipPath
       clipPathUnits="userSpaceOnUse"
       id="clipPath184">
      <path
         d="M 0,0 H 673.5 V 449 H 0 Z"
         transform="translate(-338.38381,-291.69921)"
         id="path184" />
    </clipPath>
    <clipPath
       clipPathUnits="userSpaceOnUse"
       id="clipPath186">
      <path
         d="M 0,0 H 673.5 V 449 H 0 Z"
         transform="translate(-338.38381,-291.69921)"
         id="path186" />
    </clipPath>
    <clipPath
       clipPathUnits="userSpaceOnUse"
       id="clipPath188">
      <path
         d="M 0,0 H 673.5 V 449 H 0 Z"
         transform="translate(-337.50881,-294.71091)"
         id="path188" />
    </clipPath>
    <clipPath
       clipPathUnits="userSpaceOnUse"
       id="clipPath190">
      <path
         d="M 0,0 H 673.5 V 449 H 0 Z"
         transform="translate(-337.50881,-294.71091)"
         id="path190" />
    </clipPath>
    <clipPath
       clipPathUnits="userSpaceOnUse"
       id="clipPath192">
      <path
         d="M 0,0 H 673.5 V 449 H 0 Z"
         transform="translate(-354.59861,-292.55861)"
         id="path192" />
    </clipPath>
    <clipPath
       clipPathUnits="userSpaceOnUse"
       id="clipPath194">
      <path
         d="M 0,0 H 673.5 V 449 H 0 Z"
         transform="translate(-354.59861,-292.55861)"
         id="path194" />
    </clipPath>
    <clipPath
       clipPathUnits="userSpaceOnUse"
       id="clipPath196">
      <path
         d="M 0,0 H 673.5 V 449 H 0 Z"
         transform="translate(-354.62601,-294.24611)"
         id="path196" />
    </clipPath>
    <clipPath
       clipPathUnits="userSpaceOnUse"
       id="clipPath198">
      <path
         d="M 0,0 H 673.5 V 449 H 0 Z"
         transform="translate(-354.62601,-294.24611)"
         id="path198" />
    </clipPath>
    <clipPath
       clipPathUnits="userSpaceOnUse"
       id="clipPath200">
      <path
         d="M 0,0 H 673.5 V 449 H 0 Z"
         transform="translate(-355.29391,-291.04691)"
         id="path200" />
    </clipPath>
    <clipPath
       clipPathUnits="userSpaceOnUse"
       id="clipPath202">
      <path
         d="M 0,0 H 673.5 V 449 H 0 Z"
         transform="translate(-355.29391,-291.04691)"
         id="path202" />
    </clipPath>
    <clipPath
       clipPathUnits="userSpaceOnUse"
       id="clipPath204">
      <path
         d="M 0,0 H 673.5 V 449 H 0 Z"
         transform="translate(-323.41501,-302.95311)"
         id="path204" />
    </clipPath>
    <clipPath
       clipPathUnits="userSpaceOnUse"
       id="clipPath206">
      <path
         d="M 0,0 H 673.5 V 449 H 0 Z"
         transform="translate(-323.41501,-302.95311)"
         id="path206" />
    </clipPath>
  </defs>
  <sodipodi:namedview
     id="namedview1"
     pagecolor="#ffffff"
     bordercolor="#000000"
     borderopacity="0.25"
     inkscape:showpageshadow="2"
     inkscape:pageopacity="0.0"
     inkscape:pagecheckerboard="0"
     inkscape:deskcolor="#d1d1d1">
    <inkscape:page
       x="0"
       y="0"
       inkscape:label="1"
       id="page1"
       width="898"
       height="598.66669"
       margin="0"
       bleed="0" />
  </sodipodi:namedview>
  <g
     id="layer-MC0"
     inkscape:groupmode="layer"
     inkscape:label="Layer 1">
    <path
       id="path1"
       d="M 0,0 H 673.5 V 449 H 0 Z"
       style="fill:#ffffff;fill-opacity:1;fill-rule:nonzero;stroke:none"
       transform="matrix(1.3333333,0,0,-1.3333333,0,598.66667)" />
    <path
       id="path2"
       d="M 0,0 -325.781,-196.094 -651.562,0 h -11.599 V -51.496 L -374.219,-225 -663.161,-398.504 V -449 h 13.26 l 324.12,195.094 L -1.661,-449 h 11.999 v 51.253 L -277.343,-225 10.338,-52.253 V 0 Z"
       style="fill:#df112d;fill-opacity:1;fill-rule:nonzero;stroke:none"
       transform="matrix(1.3333333,0,0,-1.3333333,884.2152,-1.3333333e-4)" />
    <path
       id="path3"
       d="M 0,0 C 9.637,-39.028 4.352,-87.227 -39.184,-113.969 -82.719,-87.227 -88.008,-39.028 -78.363,0 -68.101,9.328 -21.461,15.082 0,0"
       style="fill:#e8112d;fill-opacity:1;fill-rule:nonzero;stroke:#000000;stroke-width:0.382;stroke-linecap:butt;stroke-linejoin:miter;stroke-miterlimit:4;stroke-dasharray:none;stroke-opacity:1"
       transform="matrix(1.3333333,0,0,-1.3333333,502.168,89.7656)"
       clip-path="url(#clipPath4)" />
    <path
       id="path5"
       d="m 0,0 c 15.961,0 30.824,-4.227 39.586,-9.703 1.719,13.457 7.82,26.914 15.019,37.082 -7.507,0.16 -10.875,-3.832 -10.949,-7.977 -1.879,5.32 -9.234,5.008 -11.504,2.109 8.215,-5.554 1.879,-15.41 -5.549,-13.375 -3.494,0.954 -5.336,3.387 -5.994,6.922 0.805,0.055 1.602,0.348 2.274,0.895 1.73,1.402 1.996,3.945 0.595,5.68 -1.408,1.73 -3.947,1.996 -5.681,0.589 -1.735,-1.402 -2,-3.945 -0.59,-5.679 0.457,-0.567 1.047,-0.973 1.68,-1.215 -2.348,-3.836 -6.559,-4.985 -9.574,-4.141 -3.915,1.094 -5.559,4.613 -5.559,7.746 0,8.133 7.824,9.387 10.172,7.977 C 13.771,32.386 5.164,36.769 2.504,32.23 5.478,37.55 5.32,45.062 0,50.07 -5.32,45.062 -5.477,37.55 -2.504,32.23 c -2.66,4.539 -11.266,0.156 -11.422,-5.32 2.348,1.41 10.172,0.156 10.172,-7.977 0,-3.133 -1.644,-6.652 -5.555,-7.746 -3.019,-0.844 -7.23,0.305 -9.582,4.141 0.637,0.242 1.223,0.648 1.684,1.215 1.406,1.734 1.141,4.277 -0.59,5.679 -1.734,1.407 -4.277,1.141 -5.683,-0.589 -1.403,-1.735 -1.137,-4.278 0.593,-5.68 0.676,-0.547 1.473,-0.84 2.278,-0.895 -0.657,-3.535 -2.504,-5.968 -5.993,-6.922 -7.429,-2.035 -13.765,7.821 -5.554,13.375 -2.266,2.899 -9.621,3.211 -11.5,-2.109 -0.078,4.145 -3.442,8.137 -10.949,7.977 C -47.41,17.211 -41.309,3.754 -39.586,-9.703 -30.824,-4.227 -15.961,0 0,0"
       style="fill:#f9dd16;fill-opacity:1;fill-rule:nonzero;stroke:#000000;stroke-width:0.382;stroke-linecap:butt;stroke-linejoin:miter;stroke-miterlimit:4;stroke-dasharray:none;stroke-opacity:1"
       transform="matrix(1.3333333,0,0,-1.3333333,449.83987,79.317067)"
       clip-path="url(#clipPath6)" />
    <path
       id="path7"
       d="m 0,0 c -0.961,-0.226 -0.961,-1.468 -1.464,-1.468 2.5,0.07 3.714,0.757 4.472,2.019 C 2.457,0.047 2.938,-0.918 2.754,-1.144 4.59,-0.504 5.465,1.059 4.82,2.114 5.234,1.516 6.43,1.196 6.793,1.149 5.508,2.161 6.43,4.454 4.359,5.649 5.051,5.692 6.383,4.914 6.75,3.996 6.43,6.059 6.105,7.391 4.406,8.539 c 0.184,-0.207 1.149,-0.39 1.563,0 -1.101,0.688 -1.426,1.836 -1.332,2.571 0.129,1.027 -0.551,1.238 -1.836,0.918 -1.16,-0.289 -3.808,-0.457 -5.371,-0.457 -3.211,0 -6.012,0 -8.676,1.836 3.996,-1.653 9.09,1.836 9.09,4.726 0,3.215 -3.949,5.832 -11.937,4.086 -7.985,-1.746 -17.716,-1.008 -17.716,1.652 0,2.665 6.973,3.032 10.559,2.481 3.579,-0.551 6.145,-0.918 12.852,1.469 -1.652,-0.645 -6.981,-0.828 -11.2,0.367 -4.226,1.191 -14.601,1.191 -14.691,-4.406 -0.093,-5.602 11.047,-5.094 20.657,-3.676 5.601,0.828 8.539,0.277 8.539,-1.559 0,-1.746 -5.141,-2.48 -9.091,-2.019 -3.945,0.457 -7.987,0.367 -12.668,-1.012 -3.91,-1.148 -6.609,0 -10.925,-0.734 -2.094,-0.356 -7.164,0 -9.664,4.132 -1.539,-1.101 -6.176,-3.41 -6.954,-5.656 -1.101,-2.066 -0.366,-4.121 1.098,-6.14 1.852,-2.543 -0.914,-2.161 -2.886,-2.25 -2.707,-0.125 -6.328,0.285 -8.219,2.433 -1.676,1.899 -3.906,3.426 -5.684,2.016 -0.918,-0.727 -0.039,-1.68 0.688,-1.414 0.715,0.265 1.566,-0.266 2.332,-0.602 -1.227,0.527 -2.57,0.117 -3.098,-0.351 -0.722,-0.649 0.157,-1.891 1.032,-1.454 0.687,0.344 2.097,0.575 3.015,-0.265 -0.992,0.191 -2.023,0.152 -2.519,-0.383 -0.496,-0.531 -0.114,-1.305 0.957,-1.258 1.715,0.074 2.156,-1.129 3.875,-0.879 -1.059,-0.14 -1.657,-0.691 -1.93,-1.101 1.605,0.734 3.379,-1.246 5.464,-0.782 -0.812,-0.335 -2.124,-1.132 -2.112,-1.746 1.237,1.426 9.546,-1.101 9.73,2.02 0.231,-0.641 0.184,-1.606 -0.457,-2.434 1.062,0.645 4.5,0.875 5.551,3.352 0.094,-0.734 -0.043,-1.695 -0.684,-1.926 1.102,-0.359 2.551,0.461 4.035,2.66 0.59,0.875 0.731,1.457 0.629,2.114 1.473,-0.059 2.539,0.312 3.688,1.285 1.195,1.008 2.48,-0.828 4.5,0.461 2.019,1.285 3.765,0.183 4.863,0.824 1.102,0.644 2.617,-0.231 3.813,0.504 1.194,0.734 3.043,-0.36 5.019,1.203 3.109,-1.141 6.738,-3.25 15.636,-1.613 C -0.957,8.469 0.645,6.75 0.645,4.407 0.645,2.801 -0.297,2.661 -1.007,2.618 -3.848,2.442 -5.066,3.68 -6.184,3.286 -6.937,3.016 -7.395,1.793 -6.309,1.375 -7.207,0.918 -7.089,0.059 -6.632,-0.257 c 0.461,-0.317 1.64,-0.028 2.445,0.343 -1.031,-0.468 -2.102,-1.308 -1.493,-2.187 0.371,-0.531 1.305,-0.985 2.18,0.152 C -2.625,-0.8 -1.02,0.153 0,0"
       style="fill:#f9dd16;fill-opacity:1;fill-rule:nonzero;stroke:#000000;stroke-width:0.382;stroke-linecap:butt;stroke-linejoin:miter;stroke-miterlimit:4;stroke-dasharray:none;stroke-opacity:1"
       transform="matrix(1.3333333,0,0,-1.3333333,493.98573,130.3548)"
       clip-path="url(#clipPath8)" />
    <path
       id="path9"
       d="m 0,0 c -2.57,1.054 -3.437,1.086 -2.844,-1.008 0.254,-0.899 0.868,-2.16 1.489,-2.735 C -1.332,-2.868 -1.008,-0.457 0,0"
       style="fill:#f9dd16;fill-opacity:1;fill-rule:nonzero;stroke:#000000;stroke-width:0.382;stroke-linecap:butt;stroke-linejoin:miter;stroke-miterlimit:4;stroke-dasharray:none;stroke-opacity:1"
       transform="matrix(1.3333333,0,0,-1.3333333,418.61067,98.035867)"
       clip-path="url(#clipPath10)" />
    <path
       id="path11"
       d="M 0,0 C 2.571,1.054 3.438,1.086 2.844,-1.008 2.59,-1.907 1.973,-3.168 1.352,-3.743 1.332,-2.868 1.008,-0.457 0,0"
       style="fill:#f9dd16;fill-opacity:1;fill-rule:nonzero;stroke:#000000;stroke-width:0.382;stroke-linecap:butt;stroke-linejoin:miter;stroke-miterlimit:4;stroke-dasharray:none;stroke-opacity:1"
       transform="matrix(1.3333333,0,0,-1.3333333,429.32427,98.035867)"
       clip-path="url(#clipPath12)" />
    <path
       id="path13"
       d="M 0,0 C 4.864,0 5.473,-2.281 5.446,-5.129 5.426,-8.203 3.774,-7.149 2.832,-11.094 2.465,-12.641 1.235,-12.727 0,-12.727 c -1.242,0 -2.468,0.086 -2.839,1.633 -0.938,3.945 -2.594,2.891 -2.614,5.965 C -5.476,-2.281 -4.871,0 0,0"
       style="fill:#f9dd16;fill-opacity:1;fill-rule:nonzero;stroke:#000000;stroke-width:0.382;stroke-linecap:butt;stroke-linejoin:miter;stroke-miterlimit:4;stroke-dasharray:none;stroke-opacity:1"
       transform="matrix(1.3333333,0,0,-1.3333333,423.98507,96.156267)"
       clip-path="url(#clipPath14)" />
    <path
       id="path15"
       d="M 0,0 C -1.238,0.735 -2.039,0.223 -2.542,0.086 -0.937,-0.328 -0.871,-2.39 2.801,-3.351 1.977,-3.125 1.516,-3.582 0.735,-3.167 2.25,-4.363 3.95,-5.746 7.532,-5.785 9.528,-5.808 8.149,-6.839 6.84,-6.246 c 1.356,-1.398 4.039,-0.25 5.739,-2.8 0.32,1.976 -3.168,5.097 -1.559,7.347 -4.957,0.211 -5.363,2.957 -8.219,5.141 -2.324,1.777 -2.531,3.582 -3.554,6.961 -0.469,1.531 -2.262,2.484 -3.254,2.125 -0.867,-0.321 -1.184,-1.071 -0.442,-1.633 0.746,-0.562 1.699,-0.641 1.903,-2.066 -0.965,1.16 -2.418,1.578 -3.114,0.855 C -6.085,9.239 -5.914,8.211 -5,8.118 c 1.489,-0.153 0.418,-1.606 2.11,-3.024 -1.5,1.688 -2.797,1.84 -3.602,0.922 -0.476,-0.547 0,-1.527 1.035,-1.422 C -3.964,4.747 -2.234,0.957 0,0"
       style="fill:#f9dd16;fill-opacity:1;fill-rule:nonzero;stroke:#000000;stroke-width:0.382;stroke-linecap:butt;stroke-linejoin:miter;stroke-miterlimit:4;stroke-dasharray:none;stroke-opacity:1"
       transform="matrix(1.3333333,0,0,-1.3333333,407.25587,111.19333)"
       clip-path="url(#clipPath16)" />
    <path
       id="path17"
       d="m 0,0 c -0.781,-0.137 -0.551,-1.422 -1.604,-1.516 2.522,0 3.807,0.598 5.002,1.563 -0.55,-0.32 -0.781,-1.149 -0.828,-1.606 1.332,1.149 4.5,1.239 6.153,0.918 1.652,-0.324 1.925,0.457 2.523,1.516 C 11.844,1.93 11.017,2.527 10.191,3.352 9.363,4.18 9.18,5.324 9.363,7.254 4.957,13.129 -2.938,10.285 -3.027,7.715 -0.184,4.406 0.185,4.773 2.57,4.316 4.957,3.855 6.422,3.859 4.82,2.527 4.271,2.066 1.973,2.281 0.185,2.203 -3.82,2.031 -5.652,4.969 -6.836,3.441 -7.809,2.187 -6.805,1.633 -4.82,1.699 -6.195,1.691 -8.016,1.766 -7.707,0.484 -7.18,-1.672 -5.117,0.887 -4.315,-0.004 -5.004,0.16 -6.07,-0.262 -6.109,-0.91 -6.147,-1.559 -4.582,-2.398 -2.863,-1.031 -1.922,-0.285 -0.723,-0.004 0,0"
       style="fill:#f9dd16;fill-opacity:1;fill-rule:nonzero;stroke:none"
       transform="matrix(1.3333333,0,0,-1.3333333,460.50653,130.10933)"
       clip-path="url(#clipPath18)" />
    <path
       id="path19"
       d="m 0,0 c -0.277,-0.227 -0.305,0.183 -0.094,-0.899 0.391,-1.988 0.852,-2.921 -0.758,-2.921 -1.64,0 -1.144,0.933 -0.758,2.921 0.215,1.082 0.188,0.672 -0.089,0.899 M 2.453,0.476 C 1.644,0.07 1.187,1.215 0,0 0.328,0.355 0.734,-0.942 1.644,-0.082 M -4.152,0.476 C -3.344,0.07 -2.887,1.215 -1.699,0 -2.027,0.355 -2.434,-0.942 -3.344,-0.082 M 8.398,-11.531 c -1.175,-2.532 -0.461,-3.782 -0.289,-4.957 m 21.883,4.277 c -1.43,0.523 -2.746,0.844 -4.426,0.496 m 1.012,-9.457 c -0.781,-0.137 -0.551,-1.422 -1.604,-1.516 2.522,0 3.807,0.598 5.003,1.563 -0.551,-0.32 -0.782,-1.149 -0.829,-1.606 1.332,1.149 4.5,1.239 6.153,0.918 1.652,-0.324 1.926,0.457 2.523,1.516 0.598,1.055 -0.229,1.652 -1.054,2.477 -0.829,0.828 -1.012,1.972 -0.829,3.902 -4.406,5.875 -12.3,3.031 -12.39,0.461 2.844,-3.309 3.212,-2.942 5.597,-3.399 2.387,-0.461 3.852,-0.457 2.25,-1.789 -0.549,-0.461 -2.847,-0.246 -4.635,-0.324 -4.005,-0.172 -5.837,2.766 -7.021,1.238 -0.972,-1.254 0.031,-1.808 2.016,-1.742 -1.375,-0.008 -3.196,0.067 -2.887,-1.215 0.527,-2.156 2.59,0.403 3.392,-0.488 -0.689,0.164 -1.755,-0.258 -1.794,-0.906 -0.038,-0.649 1.527,-1.488 3.246,-0.121 0.941,0.746 2.14,1.027 2.863,1.031 z"
       style="fill:none;stroke:#000000;stroke-width:0.382;stroke-linecap:butt;stroke-linejoin:miter;stroke-miterlimit:4;stroke-dasharray:none;stroke-opacity:1"
       transform="matrix(1.3333333,0,0,-1.3333333,425.06907,101.88027)"
       clip-path="url(#clipPath20)" />
    <path
       id="path21"
       d="M 0,0 C 1.308,0 2.066,0.023 1.863,1.859 1.777,2.598 2.758,2.891 2.41,4.086 2.777,2.617 0,2.758 0,3.422 0,2.758 -2.774,2.617 -2.406,4.086 -2.754,2.891 -1.778,2.598 -1.86,1.859 -2.063,0.023 -1.305,0 0,0"
       style="fill:#ff0016;fill-opacity:1;fill-rule:nonzero;stroke:#000000;stroke-width:0.191;stroke-linecap:butt;stroke-linejoin:miter;stroke-miterlimit:4;stroke-dasharray:none;stroke-opacity:1"
       transform="matrix(1.3333333,0,0,-1.3333333,423.96547,112.05213)"
       clip-path="url(#clipPath22)" />
    <path
       id="path23"
       d="M 0,0 -3.137,0.875"
       style="fill:#000000;fill-opacity:1;fill-rule:nonzero;stroke:#000000;stroke-width:0.191;stroke-linecap:butt;stroke-linejoin:miter;stroke-miterlimit:4;stroke-dasharray:none;stroke-opacity:1"
       transform="matrix(1.3333333,0,0,-1.3333333,422.3972,107.09893)"
       clip-path="url(#clipPath24)" />
    <path
       id="path25"
       d="M 0,0 -3.504,0.031"
       style="fill:#000000;fill-opacity:1;fill-rule:nonzero;stroke:#000000;stroke-width:0.191;stroke-linecap:butt;stroke-linejoin:miter;stroke-miterlimit:4;stroke-dasharray:none;stroke-opacity:1"
       transform="matrix(1.3333333,0,0,-1.3333333,422.3972,107.31707)"
       clip-path="url(#clipPath26)" />
    <path
       id="path27"
       d="M 0,0 -2.988,-0.801"
       style="fill:#000000;fill-opacity:1;fill-rule:nonzero;stroke:#000000;stroke-width:0.191;stroke-linecap:butt;stroke-linejoin:miter;stroke-miterlimit:4;stroke-dasharray:none;stroke-opacity:1"
       transform="matrix(1.3333333,0,0,-1.3333333,422.444,107.55733)"
       clip-path="url(#clipPath28)" />
    <path
       id="path29"
       d="M 0,0 3.14,0.875"
       style="fill:#000000;fill-opacity:1;fill-rule:nonzero;stroke:#000000;stroke-width:0.191;stroke-linecap:butt;stroke-linejoin:miter;stroke-miterlimit:4;stroke-dasharray:none;stroke-opacity:1"
       transform="matrix(1.3333333,0,0,-1.3333333,425.5332,107.09893)"
       clip-path="url(#clipPath30)" />
    <path
       id="path31"
       d="M 0,0 3.507,0.031"
       style="fill:#000000;fill-opacity:1;fill-rule:nonzero;stroke:#000000;stroke-width:0.191;stroke-linecap:butt;stroke-linejoin:miter;stroke-miterlimit:4;stroke-dasharray:none;stroke-opacity:1"
       transform="matrix(1.3333333,0,0,-1.3333333,425.5332,107.31707)"
       clip-path="url(#clipPath32)" />
    <path
       id="path33"
       d="M 0,0 2.989,-0.801"
       style="fill:#000000;fill-opacity:1;fill-rule:nonzero;stroke:#000000;stroke-width:0.191;stroke-linecap:butt;stroke-linejoin:miter;stroke-miterlimit:4;stroke-dasharray:none;stroke-opacity:1"
       transform="matrix(1.3333333,0,0,-1.3333333,425.49093,107.55733)"
       clip-path="url(#clipPath34)" />
    <path
       id="path35"
       d="m 0,0 c -0.914,1.137 -3.199,0.176 -3.246,-1.234 0.773,0.914 2.035,-0.402 2.723,-0.125 C -0.047,-1.168 0.371,-0.465 0,0"
       style="fill:#0051ba;fill-opacity:1;fill-rule:nonzero;stroke:#000000;stroke-width:0.04;stroke-linecap:butt;stroke-linejoin:miter;stroke-miterlimit:4;stroke-dasharray:none;stroke-opacity:1"
       transform="matrix(1.3333333,0,0,-1.3333333,402.28253,94.5736)"
       clip-path="url(#clipPath36)" />
    <path
       id="path37"
       d="m 0,0 c -0.914,1.137 -3.199,0.176 -3.246,-1.234 0.77,0.914 2.032,-0.403 2.723,-0.125 C -0.046,-1.168 0.372,-0.465 0,0"
       style="fill:#0051ba;fill-opacity:1;fill-rule:nonzero;stroke:#000000;stroke-width:0.04;stroke-linecap:butt;stroke-linejoin:miter;stroke-miterlimit:4;stroke-dasharray:none;stroke-opacity:1"
       transform="matrix(1.3333333,0,0,-1.3333333,400.70373,98.161467)"
       clip-path="url(#clipPath38)" />
    <path
       id="path39"
       d="m 0,0 c -1.035,1.027 -3.196,-0.184 -3.082,-1.59 0.664,0.996 2.062,-0.172 2.715,0.18 C 0.086,-1.164 0.422,-0.418 0,0"
       style="fill:#0051ba;fill-opacity:1;fill-rule:nonzero;stroke:#000000;stroke-width:0.04;stroke-linecap:butt;stroke-linejoin:miter;stroke-miterlimit:4;stroke-dasharray:none;stroke-opacity:1"
       transform="matrix(1.3333333,0,0,-1.3333333,399.90827,102.98373)"
       clip-path="url(#clipPath40)" />
    <path
       id="path41"
       d="m 0,0 c -1.149,0.902 -3.153,-0.551 -2.883,-1.934 0.547,1.063 2.07,0.067 2.68,0.492 C 0.218,-1.149 0.468,-0.367 0,0"
       style="fill:#0051ba;fill-opacity:1;fill-rule:nonzero;stroke:#000000;stroke-width:0.04;stroke-linecap:butt;stroke-linejoin:miter;stroke-miterlimit:4;stroke-dasharray:none;stroke-opacity:1"
       transform="matrix(1.3333333,0,0,-1.3333333,401.36133,117.9264)"
       clip-path="url(#clipPath42)" />
    <path
       id="path43"
       d="m 0,0 c -1.367,0.507 -2.832,-1.493 -2.144,-2.727 0.187,1.18 1.949,0.699 2.398,1.293 C 0.563,-1.024 0.559,-0.204 0,0"
       style="fill:#0051ba;fill-opacity:1;fill-rule:nonzero;stroke:#000000;stroke-width:0.04;stroke-linecap:butt;stroke-linejoin:miter;stroke-miterlimit:4;stroke-dasharray:none;stroke-opacity:1"
       transform="matrix(1.3333333,0,0,-1.3333333,401.28253,121.1972)"
       clip-path="url(#clipPath44)" />
    <path
       id="path45"
       d="m 0,0 c -1.367,0.503 -2.832,-1.493 -2.149,-2.727 0.192,1.18 1.95,0.699 2.399,1.293 C 0.562,-1.024 0.555,-0.204 0,0"
       style="fill:#0051ba;fill-opacity:1;fill-rule:nonzero;stroke:#000000;stroke-width:0.04;stroke-linecap:butt;stroke-linejoin:miter;stroke-miterlimit:4;stroke-dasharray:none;stroke-opacity:1"
       transform="matrix(1.3333333,0,0,-1.3333333,403.62627,123.64)"
       clip-path="url(#clipPath46)" />
    <path
       id="path47"
       d="m 0,0 c -1.371,0.504 -2.836,-1.492 -2.148,-2.727 0.191,1.18 1.949,0.699 2.398,1.293 C 0.559,-1.024 0.555,-0.203 0,0"
       style="fill:#0051ba;fill-opacity:1;fill-rule:nonzero;stroke:#000000;stroke-width:0.04;stroke-linecap:butt;stroke-linejoin:miter;stroke-miterlimit:4;stroke-dasharray:none;stroke-opacity:1"
       transform="matrix(1.3333333,0,0,-1.3333333,451.4284,128.37507)"
       clip-path="url(#clipPath48)" />
    <path
       id="path49"
       d="m 0,0 c -1.418,0.343 -2.648,-1.809 -1.824,-2.957 0.055,1.195 1.855,0.918 2.234,1.558 C 0.672,-0.957 0.574,-0.141 0,0"
       style="fill:#0051ba;fill-opacity:1;fill-rule:nonzero;stroke:#000000;stroke-width:0.04;stroke-linecap:butt;stroke-linejoin:miter;stroke-miterlimit:4;stroke-dasharray:none;stroke-opacity:1"
       transform="matrix(1.3333333,0,0,-1.3333333,453.89187,130.58787)"
       clip-path="url(#clipPath50)" />
    <path
       id="path51"
       d="M 0,0 C -1.266,0.731 -3.05,-0.992 -2.582,-2.324 -2.191,-1.191 -0.543,-1.965 0,-1.457 0.375,-1.105 0.512,-0.297 0,0"
       style="fill:#0051ba;fill-opacity:1;fill-rule:nonzero;stroke:#000000;stroke-width:0.04;stroke-linecap:butt;stroke-linejoin:miter;stroke-miterlimit:4;stroke-dasharray:none;stroke-opacity:1"
       transform="matrix(1.3333333,0,0,-1.3333333,452.1576,125.2344)"
       clip-path="url(#clipPath52)" />
    <path
       id="path53"
       d="m 0,0 c -1.418,0.344 -2.645,-1.808 -1.824,-2.957 0.059,1.195 1.859,0.918 2.234,1.559 C 0.676,-0.957 0.578,-0.141 0,0"
       style="fill:#0051ba;fill-opacity:1;fill-rule:nonzero;stroke:#000000;stroke-width:0.04;stroke-linecap:butt;stroke-linejoin:miter;stroke-miterlimit:4;stroke-dasharray:none;stroke-opacity:1"
       transform="matrix(1.3333333,0,0,-1.3333333,486.1628,129.06253)"
       clip-path="url(#clipPath54)" />
    <path
       id="path55"
       d="m 0,0 c -1.285,0.688 -3.008,-1.094 -2.5,-2.41 0.352,1.145 2.027,0.43 2.555,0.953 C 0.418,-1.09 0.524,-0.277 0,0"
       style="fill:#0051ba;fill-opacity:1;fill-rule:nonzero;stroke:#000000;stroke-width:0.04;stroke-linecap:butt;stroke-linejoin:miter;stroke-miterlimit:4;stroke-dasharray:none;stroke-opacity:1"
       transform="matrix(1.3333333,0,0,-1.3333333,486.22,126.06253)"
       clip-path="url(#clipPath56)" />
    <path
       id="path57"
       d="m 0,0 c -1.429,0.282 -2.563,-1.921 -1.691,-3.035 0.004,1.199 1.816,1 2.164,1.656 C 0.715,-0.925 0.582,-0.117 0,0"
       style="fill:#0051ba;fill-opacity:1;fill-rule:nonzero;stroke:#000000;stroke-width:0.04;stroke-linecap:butt;stroke-linejoin:miter;stroke-miterlimit:4;stroke-dasharray:none;stroke-opacity:1"
       transform="matrix(1.3333333,0,0,-1.3333333,487.54813,131.74547)"
       clip-path="url(#clipPath58)" />
    <path
       id="path59"
       d="M 0,0 C 0.899,0 1.262,-0.261 1.262,-1.886 1.262,-5.32 1.223,-6.8 0.117,-6.8 c -1.109,0 -1.035,1.406 -1.035,3.929 0,1.317 0,1.973 -0.265,1.864 C -1.183,-0.148 -0.801,0 0,0"
       style="fill:#0051ba;fill-opacity:1;fill-rule:nonzero;stroke:#000000;stroke-width:0.04;stroke-linecap:butt;stroke-linejoin:miter;stroke-miterlimit:4;stroke-dasharray:none;stroke-opacity:1"
       transform="matrix(1.3333333,0,0,-1.3333333,424.10547,110.584)"
       clip-path="url(#clipPath60)" />
    <path
       id="path61"
       d="m 0,0 c -0.867,-0.207 -0.867,-1.321 -1.32,-1.321 2.254,0.063 3.347,0.68 4.027,1.817 C 2.215,0.043 2.645,-0.825 2.48,-1.032 4.134,-0.454 4.918,0.953 4.34,1.902 4.711,1.363 5.785,1.074 6.117,1.035 4.961,1.941 5.785,4.007 3.927,5.082 4.547,5.125 5.746,4.421 6.074,3.593 5.785,5.453 5.496,6.652 3.97,7.687 4.134,7.5 5,7.335 5.371,7.687 4.383,8.304 4.09,9.339 4.177,10 4.293,10.925 3.68,11.113 2.52,10.824 c -1.04,-0.258 -3.425,-0.41 -4.833,-0.41 -2.89,0 -5.41,0 -7.808,1.652 3.598,-1.488 8.18,1.652 8.18,4.254 0,2.891 -3.555,5.246 -10.743,3.676 -7.187,-1.571 -15.945,-0.907 -15.945,1.488 0,2.398 6.281,2.727 9.504,2.23 3.223,-0.496 5.531,-0.824 11.566,1.325 -1.488,-0.578 -6.281,-0.746 -10.078,0.328 -3.804,1.074 -13.141,1.074 -13.223,-3.965 -0.082,-5.039 9.942,-4.582 18.594,-3.305 5.036,0.742 7.68,0.246 7.68,-1.406 0,-1.57 -4.625,-2.23 -8.18,-1.816 -3.55,0.414 -7.187,0.328 -11.402,-0.911 -3.516,-1.035 -5.945,0 -9.832,-0.66 -1.883,-0.32 -6.445,0 -8.695,3.719 -1.387,-0.992 -5.559,-3.066 -6.258,-5.094 -0.992,-1.859 -0.332,-3.707 0.988,-5.523 1.664,-2.289 -0.824,-1.942 -2.602,-2.028 -2.433,-0.113 -5.695,0.262 -7.394,2.192 -1.508,1.711 -3.516,3.082 -5.117,1.812 -0.825,-0.652 -0.032,-1.511 0.621,-1.269 0.644,0.238 1.41,-0.242 2.097,-0.543 -1.101,0.473 -2.312,0.105 -2.785,-0.317 -0.652,-0.585 0.137,-1.699 0.926,-1.304 0.621,0.308 1.891,0.515 2.715,-0.242 -0.895,0.171 -1.824,0.136 -2.269,-0.344 -0.446,-0.477 -0.102,-1.176 0.863,-1.133 1.543,0.07 1.937,-1.016 3.488,-0.793 -0.953,-0.121 -1.492,-0.617 -1.738,-0.988 1.445,0.66 3.043,-1.121 4.918,-0.703 -0.731,-0.301 -1.911,-1.02 -1.899,-1.571 1.113,1.282 8.59,-0.992 8.754,1.817 0.207,-0.578 0.168,-1.446 -0.41,-2.188 0.957,0.578 4.047,0.785 4.996,3.016 0.082,-0.664 -0.039,-1.531 -0.617,-1.735 0.992,-0.328 2.297,0.415 3.633,2.395 0.531,0.785 0.656,1.309 0.566,1.898 1.324,-0.05 2.285,0.286 3.316,1.161 1.079,0.906 2.235,-0.746 4.051,0.41 1.821,1.156 3.391,0.168 4.379,0.746 0.993,0.578 2.357,-0.207 3.43,0.453 1.074,0.66 2.742,-0.324 4.52,1.082 2.796,-1.027 6.062,-2.926 14.075,-1.453 4.589,0.844 6.03,-0.703 6.03,-2.809 0,-1.445 -0.848,-1.574 -1.487,-1.613 C -3.461,2.199 -4.559,3.312 -5.566,2.957 -6.241,2.714 -6.652,1.613 -5.676,1.238 -6.484,0.824 -6.379,0.05 -5.969,-0.231 c 0.414,-0.285 1.478,-0.027 2.199,0.309 -0.924,-0.422 -1.89,-1.176 -1.339,-1.969 0.332,-0.481 1.171,-0.887 1.961,0.137 C -2.359,-0.723 -0.918,0.136 0,0"
       style="fill:#f9dd16;fill-opacity:1;fill-rule:nonzero;stroke:#000000;stroke-width:0.344;stroke-linecap:butt;stroke-linejoin:miter;stroke-miterlimit:4;stroke-dasharray:none;stroke-opacity:1"
       transform="matrix(1.3333333,0,0,-1.3333333,488.01693,173.03053)"
       clip-path="url(#clipPath62)" />
    <path
       id="path63"
       d="m 0,0 c -2.317,0.949 -3.098,0.977 -2.563,-0.91 0.227,-0.805 0.785,-1.942 1.34,-2.457 C -1.199,-2.582 -0.91,-0.414 0,0"
       style="fill:#f9dd16;fill-opacity:1;fill-rule:nonzero;stroke:#000000;stroke-width:0.344;stroke-linecap:butt;stroke-linejoin:miter;stroke-miterlimit:4;stroke-dasharray:none;stroke-opacity:1"
       transform="matrix(1.3333333,0,0,-1.3333333,420.18427,143.94267)"
       clip-path="url(#clipPath64)" />
    <path
       id="path65"
       d="M 0,0 C 2.317,0.949 3.098,0.977 2.563,-0.91 2.336,-1.715 1.778,-2.852 1.219,-3.367 1.2,-2.582 0.911,-0.414 0,0"
       style="fill:#f9dd16;fill-opacity:1;fill-rule:nonzero;stroke:#000000;stroke-width:0.344;stroke-linecap:butt;stroke-linejoin:miter;stroke-miterlimit:4;stroke-dasharray:none;stroke-opacity:1"
       transform="matrix(1.3333333,0,0,-1.3333333,429.81907,143.94267)"
       clip-path="url(#clipPath66)" />
    <path
       id="path67"
       d="M 0,0 C 4.379,0 4.926,-2.054 4.902,-4.617 4.883,-7.386 3.398,-6.433 2.551,-9.988 2.222,-11.378 1.113,-11.453 0,-11.453 c -1.117,0 -2.223,0.075 -2.555,1.465 -0.844,3.555 -2.332,2.602 -2.351,5.371 C -4.93,-2.054 -4.383,0 0,0"
       style="fill:#f9dd16;fill-opacity:1;fill-rule:nonzero;stroke:#000000;stroke-width:0.344;stroke-linecap:butt;stroke-linejoin:miter;stroke-miterlimit:4;stroke-dasharray:none;stroke-opacity:1"
       transform="matrix(1.3333333,0,0,-1.3333333,425.0176,142.25067)"
       clip-path="url(#clipPath68)" />
    <path
       id="path69"
       d="M 0,0 C -1.117,0.66 -1.836,0.203 -2.289,0.078 -0.844,-0.293 -0.785,-2.148 2.519,-3.015 1.777,-2.808 1.363,-3.222 0.66,-2.851 2.023,-3.926 3.551,-5.168 6.777,-5.207 8.574,-5.226 7.332,-6.156 6.152,-5.621 7.375,-6.879 9.789,-5.848 11.32,-8.14 11.609,-6.363 8.468,-3.555 9.914,-1.531 5.457,-1.34 5.09,1.133 2.519,3.098 0.429,4.695 0.242,6.32 -0.684,9.363 c -0.418,1.379 -2.031,2.239 -2.926,1.911 -0.781,-0.286 -1.066,-0.961 -0.394,-1.469 0.668,-0.508 1.527,-0.574 1.711,-1.86 -0.871,1.043 -2.176,1.422 -2.805,0.77 -0.379,-0.398 -0.226,-1.324 0.594,-1.41 1.34,-0.137 0.379,-1.442 1.902,-2.719 -1.351,1.516 -2.519,1.652 -3.242,0.828 -0.434,-0.492 0,-1.371 0.93,-1.277 C -3.571,4.274 -2.012,0.863 0,0"
       style="fill:#f9dd16;fill-opacity:1;fill-rule:nonzero;stroke:#000000;stroke-width:0.344;stroke-linecap:butt;stroke-linejoin:miter;stroke-miterlimit:4;stroke-dasharray:none;stroke-opacity:1"
       transform="matrix(1.3333333,0,0,-1.3333333,409.96547,155.7864)"
       clip-path="url(#clipPath70)" />
    <path
       id="path71"
       d="m 0,0 c -0.703,-0.125 -0.492,-1.282 -1.445,-1.364 2.273,0 3.43,0.535 4.504,1.403 C 2.563,-0.25 2.356,-0.993 2.317,-1.407 3.516,-0.375 6.363,-0.29 7.852,-0.579 9.34,-0.868 9.586,-0.168 10.121,0.785 10.66,1.734 9.914,2.269 9.172,3.015 8.43,3.757 8.262,4.789 8.43,6.527 4.461,11.812 -2.645,9.253 -2.726,6.937 -0.164,3.964 0.164,4.296 2.317,3.882 4.461,3.468 5.777,3.468 4.34,2.269 3.844,1.859 1.777,2.05 0.164,1.98 -3.438,1.824 -5.086,4.472 -6.152,3.097 -7.027,1.964 -6.125,1.468 -4.336,1.527 -5.574,1.519 -7.215,1.585 -6.933,0.433 c 0.472,-1.941 2.328,0.36 3.05,-0.437 C -4.5,0.14 -5.465,-0.239 -5.5,-0.821 -5.531,-1.407 -4.125,-2.161 -2.578,-0.934 -1.73,-0.258 -0.652,-0.008 0,0"
       style="fill:#f9dd16;fill-opacity:1;fill-rule:nonzero;stroke:none"
       transform="matrix(1.3333333,0,0,-1.3333333,457.88667,172.80667)"
       clip-path="url(#clipPath72)" />
    <path
       id="path73"
       d="m 0,0 c -0.25,-0.207 -0.277,0.164 -0.086,-0.812 0.352,-1.789 0.766,-2.625 -0.679,-2.625 -1.481,0 -1.032,0.836 -0.684,2.625 0.191,0.976 0.168,0.605 -0.082,0.812 M 2.207,0.426 C 1.477,0.063 1.071,1.09 0,0 0.293,0.317 0.66,-0.847 1.477,-0.074 m -5.215,0.5 C -3.012,0.063 -2.601,1.09 -1.531,0 -1.824,0.317 -2.191,-0.847 -3.012,-0.074 M 7.559,-10.379 C 6.496,-12.66 7.141,-13.785 7.297,-14.844 m 19.695,3.852 c -1.289,0.473 -2.472,0.758 -3.984,0.445 m 0.91,-8.507 c -0.703,-0.125 -0.492,-1.282 -1.445,-1.364 2.273,0 3.43,0.535 4.504,1.403 -0.497,-0.289 -0.703,-1.032 -0.742,-1.446 1.199,1.032 4.046,1.117 5.535,0.828 1.488,-0.289 1.734,0.411 2.269,1.364 0.539,0.949 -0.207,1.484 -0.949,2.23 -0.742,0.742 -0.91,1.774 -0.742,3.512 -3.969,5.285 -11.075,2.726 -11.156,0.41 2.562,-2.973 2.89,-2.641 5.043,-3.055 2.144,-0.414 3.46,-0.414 2.023,-1.613 -0.496,-0.41 -2.563,-0.219 -4.176,-0.289 -3.602,-0.156 -5.25,2.492 -6.316,1.117 -0.875,-1.133 0.027,-1.629 1.816,-1.57 -1.238,-0.008 -2.879,0.058 -2.597,-1.094 0.472,-1.941 2.327,0.36 3.05,-0.437 -0.617,0.144 -1.582,-0.235 -1.617,-0.817 -0.031,-0.586 1.375,-1.34 2.922,-0.113 0.847,0.676 1.926,0.926 2.578,0.934 z"
       style="fill:none;stroke:#000000;stroke-width:0.344;stroke-linecap:butt;stroke-linejoin:miter;stroke-miterlimit:4;stroke-dasharray:none;stroke-opacity:1"
       transform="matrix(1.3333333,0,0,-1.3333333,425.99613,147.40107)"
       clip-path="url(#clipPath74)" />
    <path
       id="path75"
       d="M 0,0 C 1.176,0 1.859,0.02 1.676,1.672 1.598,2.336 2.481,2.598 2.168,3.676 2.5,2.356 0,2.48 0,3.078 0,2.48 -2.5,2.356 -2.168,3.676 -2.48,2.598 -1.598,2.336 -1.672,1.672 -1.859,0.02 -1.176,0 0,0"
       style="fill:#ff0016;fill-opacity:1;fill-rule:nonzero;stroke:#000000;stroke-width:0.172;stroke-linecap:butt;stroke-linejoin:miter;stroke-miterlimit:4;stroke-dasharray:none;stroke-opacity:1"
       transform="matrix(1.3333333,0,0,-1.3333333,425.00133,156.55733)"
       clip-path="url(#clipPath76)" />
    <path
       id="path77"
       d="M 0,0 -2.824,0.789"
       style="fill:#000000;fill-opacity:1;fill-rule:nonzero;stroke:#000000;stroke-width:0.172;stroke-linecap:butt;stroke-linejoin:miter;stroke-miterlimit:4;stroke-dasharray:none;stroke-opacity:1"
       transform="matrix(1.3333333,0,0,-1.3333333,423.5892,152.10413)"
       clip-path="url(#clipPath78)" />
    <path
       id="path79"
       d="M 0,0 -3.156,0.028"
       style="fill:#000000;fill-opacity:1;fill-rule:nonzero;stroke:#000000;stroke-width:0.172;stroke-linecap:butt;stroke-linejoin:miter;stroke-miterlimit:4;stroke-dasharray:none;stroke-opacity:1"
       transform="matrix(1.3333333,0,0,-1.3333333,423.5892,152.29747)"
       clip-path="url(#clipPath80)" />
    <path
       id="path81"
       d="M 0,0 -2.692,-0.718"
       style="fill:#000000;fill-opacity:1;fill-rule:nonzero;stroke:#000000;stroke-width:0.172;stroke-linecap:butt;stroke-linejoin:miter;stroke-miterlimit:4;stroke-dasharray:none;stroke-opacity:1"
       transform="matrix(1.3333333,0,0,-1.3333333,423.63213,152.51627)"
       clip-path="url(#clipPath82)" />
    <path
       id="path83"
       d="M 0,0 2.824,0.789"
       style="fill:#000000;fill-opacity:1;fill-rule:nonzero;stroke:#000000;stroke-width:0.172;stroke-linecap:butt;stroke-linejoin:miter;stroke-miterlimit:4;stroke-dasharray:none;stroke-opacity:1"
       transform="matrix(1.3333333,0,0,-1.3333333,426.41347,152.10413)"
       clip-path="url(#clipPath84)" />
    <path
       id="path85"
       d="M 0,0 3.156,0.028"
       style="fill:#000000;fill-opacity:1;fill-rule:nonzero;stroke:#000000;stroke-width:0.172;stroke-linecap:butt;stroke-linejoin:miter;stroke-miterlimit:4;stroke-dasharray:none;stroke-opacity:1"
       transform="matrix(1.3333333,0,0,-1.3333333,426.41347,152.29747)"
       clip-path="url(#clipPath86)" />
    <path
       id="path87"
       d="M 0,0 2.692,-0.718"
       style="fill:#000000;fill-opacity:1;fill-rule:nonzero;stroke:#000000;stroke-width:0.172;stroke-linecap:butt;stroke-linejoin:miter;stroke-miterlimit:4;stroke-dasharray:none;stroke-opacity:1"
       transform="matrix(1.3333333,0,0,-1.3333333,426.3704,152.51627)"
       clip-path="url(#clipPath88)" />
    <path
       id="path89"
       d="m 0,0 c -0.82,1.023 -2.879,0.16 -2.922,-1.109 0.696,0.82 1.833,-0.364 2.45,-0.114 C -0.043,-1.051 0.332,-0.418 0,0"
       style="fill:#0051ba;fill-opacity:1;fill-rule:nonzero;stroke:#000000;stroke-width:0.036;stroke-linecap:butt;stroke-linejoin:miter;stroke-miterlimit:4;stroke-dasharray:none;stroke-opacity:1"
       transform="matrix(1.3333333,0,0,-1.3333333,405.48507,140.82813)"
       clip-path="url(#clipPath90)" />
    <path
       id="path91"
       d="m 0,0 c -0.82,1.023 -2.879,0.156 -2.918,-1.113 0.691,0.824 1.828,-0.36 2.449,-0.114 C -0.043,-1.051 0.336,-0.418 0,0"
       style="fill:#0051ba;fill-opacity:1;fill-rule:nonzero;stroke:#000000;stroke-width:0.036;stroke-linecap:butt;stroke-linejoin:miter;stroke-miterlimit:4;stroke-dasharray:none;stroke-opacity:1"
       transform="matrix(1.3333333,0,0,-1.3333333,404.06387,144.05733)"
       clip-path="url(#clipPath92)" />
    <path
       id="path93"
       d="m 0,0 c -0.934,0.922 -2.879,-0.168 -2.778,-1.433 0.602,0.894 1.86,-0.157 2.446,0.164 C 0.078,-1.051 0.379,-0.379 0,0"
       style="fill:#0051ba;fill-opacity:1;fill-rule:nonzero;stroke:#000000;stroke-width:0.036;stroke-linecap:butt;stroke-linejoin:miter;stroke-miterlimit:4;stroke-dasharray:none;stroke-opacity:1"
       transform="matrix(1.3333333,0,0,-1.3333333,403.35093,148.39587)"
       clip-path="url(#clipPath94)" />
    <path
       id="path95"
       d="m 0,0 c -1.035,0.809 -2.84,-0.496 -2.593,-1.742 0.492,0.957 1.863,0.059 2.41,0.441 C 0.196,-1.035 0.422,-0.332 0,0"
       style="fill:#0051ba;fill-opacity:1;fill-rule:nonzero;stroke:#000000;stroke-width:0.036;stroke-linecap:butt;stroke-linejoin:miter;stroke-miterlimit:4;stroke-dasharray:none;stroke-opacity:1"
       transform="matrix(1.3333333,0,0,-1.3333333,404.6576,161.84373)"
       clip-path="url(#clipPath96)" />
    <path
       id="path97"
       d="m 0,0 c -1.234,0.453 -2.55,-1.348 -1.933,-2.457 0.172,1.063 1.754,0.633 2.156,1.164 C 0.504,-0.926 0.5,-0.187 0,0"
       style="fill:#0051ba;fill-opacity:1;fill-rule:nonzero;stroke:#000000;stroke-width:0.036;stroke-linecap:butt;stroke-linejoin:miter;stroke-miterlimit:4;stroke-dasharray:none;stroke-opacity:1"
       transform="matrix(1.3333333,0,0,-1.3333333,404.5892,164.7864)"
       clip-path="url(#clipPath98)" />
    <path
       id="path99"
       d="m 0,0 c -1.231,0.457 -2.551,-1.344 -1.934,-2.453 0.172,1.062 1.758,0.629 2.16,1.164 C 0.507,-0.922 0.5,-0.184 0,0"
       style="fill:#0051ba;fill-opacity:1;fill-rule:nonzero;stroke:#000000;stroke-width:0.036;stroke-linecap:butt;stroke-linejoin:miter;stroke-miterlimit:4;stroke-dasharray:none;stroke-opacity:1"
       transform="matrix(1.3333333,0,0,-1.3333333,406.69467,166.9896)"
       clip-path="url(#clipPath100)" />
    <path
       id="path101"
       d="m 0,0 c -1.23,0.458 -2.551,-1.343 -1.933,-2.453 0.175,1.063 1.754,0.629 2.16,1.164 C 0.504,-0.921 0.5,-0.183 0,0"
       style="fill:#0051ba;fill-opacity:1;fill-rule:nonzero;stroke:#000000;stroke-width:0.036;stroke-linecap:butt;stroke-linejoin:miter;stroke-miterlimit:4;stroke-dasharray:none;stroke-opacity:1"
       transform="matrix(1.3333333,0,0,-1.3333333,449.7148,171.25067)"
       clip-path="url(#clipPath102)" />
    <path
       id="path103"
       d="m 0,0 c -1.277,0.313 -2.382,-1.625 -1.64,-2.66 0.047,1.078 1.667,0.828 2.011,1.403 C 0.605,-0.859 0.52,-0.125 0,0"
       style="fill:#0051ba;fill-opacity:1;fill-rule:nonzero;stroke:#000000;stroke-width:0.036;stroke-linecap:butt;stroke-linejoin:miter;stroke-miterlimit:4;stroke-dasharray:none;stroke-opacity:1"
       transform="matrix(1.3333333,0,0,-1.3333333,451.9336,173.24547)"
       clip-path="url(#clipPath104)" />
    <path
       id="path105"
       d="m 0,0 c -1.136,0.656 -2.742,-0.891 -2.324,-2.09 0.352,1.015 1.836,0.32 2.328,0.777 C 0.34,-0.996 0.461,-0.27 0,0"
       style="fill:#0051ba;fill-opacity:1;fill-rule:nonzero;stroke:#000000;stroke-width:0.036;stroke-linecap:butt;stroke-linejoin:miter;stroke-miterlimit:4;stroke-dasharray:none;stroke-opacity:1"
       transform="matrix(1.3333333,0,0,-1.3333333,450.37107,168.4212)"
       clip-path="url(#clipPath106)" />
    <path
       id="path107"
       d="m 0,0 c -1.274,0.312 -2.38,-1.625 -1.642,-2.66 0.055,1.078 1.676,0.828 2.012,1.402 C 0.608,-0.86 0.519,-0.125 0,0"
       style="fill:#0051ba;fill-opacity:1;fill-rule:nonzero;stroke:#000000;stroke-width:0.036;stroke-linecap:butt;stroke-linejoin:miter;stroke-miterlimit:4;stroke-dasharray:none;stroke-opacity:1"
       transform="matrix(1.3333333,0,0,-1.3333333,480.97653,171.8692)"
       clip-path="url(#clipPath108)" />
    <path
       id="path109"
       d="m 0,0 c -1.157,0.617 -2.707,-0.988 -2.246,-2.172 0.315,1.031 1.823,0.387 2.296,0.859 C 0.379,-0.984 0.472,-0.254 0,0"
       style="fill:#0051ba;fill-opacity:1;fill-rule:nonzero;stroke:#000000;stroke-width:0.036;stroke-linecap:butt;stroke-linejoin:miter;stroke-miterlimit:4;stroke-dasharray:none;stroke-opacity:1"
       transform="matrix(1.3333333,0,0,-1.3333333,481.02867,169.16667)"
       clip-path="url(#clipPath110)" />
    <path
       id="path111"
       d="m 0,0 c -1.289,0.258 -2.309,-1.726 -1.522,-2.726 0.003,1.078 1.631,0.898 1.948,1.488 C 0.646,-0.828 0.523,-0.101 0,0"
       style="fill:#0051ba;fill-opacity:1;fill-rule:nonzero;stroke:#000000;stroke-width:0.036;stroke-linecap:butt;stroke-linejoin:miter;stroke-miterlimit:4;stroke-dasharray:none;stroke-opacity:1"
       transform="matrix(1.3333333,0,0,-1.3333333,482.2252,174.2864)"
       clip-path="url(#clipPath112)" />
    <path
       id="path113"
       d="m 0,0 c 0.808,0 1.137,-0.234 1.137,-1.695 0,-3.094 -0.036,-4.422 -1.032,-4.422 -1,0 -0.929,1.262 -0.929,3.535 0,1.184 0,1.778 -0.238,1.676 C -1.062,-0.132 -0.719,0 0,0"
       style="fill:#0051ba;fill-opacity:1;fill-rule:nonzero;stroke:#000000;stroke-width:0.036;stroke-linecap:butt;stroke-linejoin:miter;stroke-miterlimit:4;stroke-dasharray:none;stroke-opacity:1"
       transform="matrix(1.3333333,0,0,-1.3333333,425.12627,155.24027)"
       clip-path="url(#clipPath114)" />
    <path
       id="path115"
       d="M 0,0 C -0.645,-0.172 -0.645,-1.102 -0.98,-1.102 0.695,-1.051 1.512,-0.535 2.016,0.414 1.648,0.035 1.969,-0.687 1.848,-0.859 3.079,-0.379 3.664,0.793 3.234,1.582 3.508,1.137 4.309,0.895 4.555,0.859 3.691,1.617 4.309,3.34 2.922,4.234 3.387,4.27 4.277,3.684 4.523,2.996 4.309,4.543 4.094,5.543 2.954,6.402 3.079,6.25 3.723,6.109 4,6.402 3.262,6.922 3.047,7.781 3.109,8.332 3.195,9.102 2.738,9.262 1.879,9.02 1.102,8.805 -0.671,8.676 -1.719,8.676 c -2.152,0 -4.031,0 -5.812,1.379 2.676,-1.242 6.09,1.375 6.09,3.543 0,2.41 -2.648,4.375 -8,3.066 -5.348,-1.308 -11.868,-0.758 -11.868,1.238 0,1.996 4.672,2.274 7.071,1.86 2.399,-0.414 4.121,-0.688 8.613,1.101 -1.109,-0.48 -4.676,-0.621 -7.503,0.278 -2.832,0.894 -9.782,0.894 -9.844,-3.309 -0.063,-4.199 7.402,-3.816 13.839,-2.754 3.755,0.621 5.723,0.207 5.723,-1.168 0,-1.308 -3.445,-1.859 -6.09,-1.515 -2.645,0.343 -5.352,0.273 -8.488,-0.758 -2.621,-0.864 -4.43,0 -7.32,-0.551 -1.402,-0.266 -4.797,0 -6.473,3.098 -1.035,-0.825 -4.14,-2.555 -4.66,-4.243 -0.738,-1.55 -0.247,-3.089 0.733,-4.605 1.244,-1.906 -0.612,-1.617 -1.932,-1.688 -1.813,-0.093 -4.242,0.215 -5.508,1.825 -1.122,1.425 -2.613,2.57 -3.81,1.511 -0.612,-0.543 -0.022,-1.257 0.462,-1.058 0.481,0.199 1.051,-0.199 1.562,-0.453 -0.819,0.394 -1.722,0.089 -2.073,-0.262 -0.485,-0.488 0.105,-1.418 0.691,-1.09 0.461,0.258 1.406,0.43 2.02,-0.199 -0.664,0.144 -1.356,0.113 -1.688,-0.285 -0.332,-0.403 -0.075,-0.981 0.641,-0.946 1.148,0.055 1.445,-0.843 2.597,-0.66 -0.712,-0.101 -1.109,-0.515 -1.293,-0.828 1.075,0.555 2.266,-0.933 3.661,-0.582 -0.547,-0.254 -1.422,-0.851 -1.415,-1.308 0.829,1.066 6.395,-0.829 6.52,1.511 0.152,-0.48 0.121,-1.203 -0.31,-1.824 0.716,0.484 3.017,0.656 3.724,2.516 0.059,-0.551 -0.031,-1.274 -0.461,-1.446 0.737,-0.273 1.711,0.344 2.703,1.996 0.395,0.653 0.489,1.09 0.422,1.582 0.987,-0.042 1.699,0.235 2.468,0.965 0.802,0.758 1.665,-0.621 3.017,0.344 1.355,0.965 2.523,0.137 3.261,0.621 0.739,0.481 1.754,-0.172 2.551,0.379 0.8,0.551 2.043,-0.27 3.367,0.898 2.082,-0.851 4.511,-2.437 10.476,-1.21 3.414,0.703 4.489,-0.583 4.489,-2.34 0,-1.203 -0.629,-1.309 -1.105,-1.344 -1.903,-0.129 -2.72,0.797 -3.47,0.5 -0.504,-0.199 -0.812,-1.117 -0.082,-1.43 -0.601,-0.344 -0.523,-0.988 -0.218,-1.226 0.309,-0.235 1.097,-0.02 1.636,0.257 -0.691,-0.351 -1.405,-0.98 -0.996,-1.636 0.246,-0.403 0.871,-0.739 1.457,0.113 C -1.757,-0.602 -0.684,0.113 0,0"
       style="fill:#f9dd16;fill-opacity:1;fill-rule:nonzero;stroke:none"
       transform="matrix(1.3333333,0,0,-1.3333333,478.03773,209.55733)"
       clip-path="url(#clipPath116)" />
    <path
       id="path117"
       d="M 0,0 C -0.645,-0.172 -0.645,-1.102 -0.98,-1.102 0.695,-1.051 1.512,-0.535 2.016,0.414 1.648,0.035 1.969,-0.687 1.848,-0.859 3.078,-0.379 3.664,0.793 3.234,1.582 3.508,1.137 4.309,0.895 4.555,0.859 3.691,1.617 4.309,3.34 2.921,4.234 3.387,4.27 4.277,3.684 4.523,2.996 4.309,4.543 4.094,5.543 2.953,6.402 3.078,6.25 3.723,6.109 4,6.402 3.262,6.922 3.047,7.781 3.109,8.332 3.195,9.102 2.738,9.262 1.879,9.02 1.102,8.805 -0.672,8.676 -1.719,8.676 c -2.152,0 -4.031,0 -5.812,1.379 2.676,-1.242 6.09,1.375 6.09,3.543 0,2.41 -2.649,4.375 -8,3.066 -5.348,-1.308 -11.868,-0.758 -11.868,1.238 0,1.996 4.672,2.274 7.071,1.86 2.398,-0.414 4.121,-0.688 8.613,1.101 -1.109,-0.48 -4.676,-0.621 -7.504,0.278 -2.832,0.894 -9.781,0.894 -9.844,-3.309 -0.062,-4.199 7.403,-3.816 13.84,-2.754 3.754,0.621 5.723,0.207 5.723,-1.168 0,-1.308 -3.445,-1.859 -6.09,-1.515 -2.645,0.343 -5.352,0.273 -8.488,-0.758 -2.621,-0.864 -4.43,0 -7.321,-0.551 -1.402,-0.266 -4.796,0 -6.472,3.098 -1.035,-0.825 -4.14,-2.555 -4.66,-4.243 -0.739,-1.55 -0.246,-3.089 0.734,-4.605 1.243,-1.906 -0.613,-1.617 -1.934,-1.688 -1.812,-0.093 -4.242,0.215 -5.507,1.825 -1.122,1.425 -2.614,2.57 -3.809,1.511 -0.614,-0.543 -0.023,-1.257 0.461,-1.058 0.481,0.199 1.051,-0.199 1.562,-0.453 -0.819,0.394 -1.722,0.089 -2.074,-0.262 -0.484,-0.488 0.106,-1.418 0.692,-1.09 0.461,0.258 1.406,0.43 2.02,-0.199 -0.665,0.144 -1.357,0.113 -1.688,-0.285 -0.332,-0.403 -0.074,-0.981 0.64,-0.946 1.148,0.055 1.446,-0.843 2.598,-0.66 -0.711,-0.101 -1.109,-0.515 -1.294,-0.828 1.075,0.555 2.266,-0.933 3.661,-0.582 -0.547,-0.254 -1.422,-0.851 -1.413,-1.308 0.828,1.066 6.394,-0.829 6.519,1.511 0.152,-0.48 0.121,-1.203 -0.309,-1.824 0.714,0.484 3.016,0.656 3.723,2.516 0.058,-0.551 -0.032,-1.274 -0.462,-1.446 0.739,-0.273 1.712,0.344 2.704,1.996 0.394,0.653 0.488,1.09 0.421,1.582 0.989,-0.042 1.7,0.235 2.469,0.965 0.801,0.758 1.665,-0.621 3.017,0.344 1.355,0.965 2.522,0.137 3.261,0.621 0.738,0.481 1.754,-0.172 2.551,0.379 0.8,0.551 2.043,-0.27 3.367,0.899 2.082,-0.852 4.511,-2.438 10.476,-1.211 3.414,0.703 4.489,-0.583 4.489,-2.34 0,-1.203 -0.629,-1.309 -1.106,-1.344 -1.902,-0.129 -2.719,0.797 -3.469,0.5 -0.504,-0.199 -0.812,-1.117 -0.082,-1.43 -0.601,-0.344 -0.523,-0.988 -0.218,-1.226 0.308,-0.235 1.097,-0.02 1.636,0.257 -0.691,-0.351 -1.406,-0.98 -0.996,-1.636 0.246,-0.403 0.871,-0.739 1.457,0.113 C -1.758,-0.602 -0.684,0.113 0,0 Z"
       style="fill:none;stroke:#000000;stroke-width:0.286;stroke-linecap:butt;stroke-linejoin:miter;stroke-miterlimit:4;stroke-dasharray:none;stroke-opacity:1"
       transform="matrix(1.3333333,0,0,-1.3333333,478.03773,209.55733)"
       clip-path="url(#clipPath118)" />
    <path
       id="path119"
       d="m 0,0 c -1.726,0.789 -2.304,0.812 -1.91,-0.758 0.172,-0.672 0.586,-1.621 1,-2.051 C -0.894,-2.153 -0.679,-0.348 0,0"
       style="fill:#f9dd16;fill-opacity:1;fill-rule:nonzero;stroke:none"
       transform="matrix(1.3333333,0,0,-1.3333333,427.54293,185.31707)"
       clip-path="url(#clipPath120)" />
    <path
       id="path121"
       d="M 0,0 C -1.727,0.789 -2.305,0.812 -1.911,-0.758 -1.738,-1.43 -1.325,-2.379 -0.91,-2.809 -0.895,-2.153 -0.68,-0.348 0,0 Z"
       style="fill:none;stroke:#000000;stroke-width:0.286;stroke-linecap:butt;stroke-linejoin:miter;stroke-miterlimit:4;stroke-dasharray:none;stroke-opacity:1"
       transform="matrix(1.3333333,0,0,-1.3333333,427.54293,185.31707)"
       clip-path="url(#clipPath122)" />
    <path
       id="path123"
       d="M 0,0 C 1.723,0.789 2.305,0.812 1.906,-0.758 1.739,-1.43 1.324,-2.379 0.906,-2.809 0.895,-2.153 0.68,-0.348 0,0"
       style="fill:#f9dd16;fill-opacity:1;fill-rule:nonzero;stroke:none"
       transform="matrix(1.3333333,0,0,-1.3333333,434.7148,185.31707)"
       clip-path="url(#clipPath124)" />
    <path
       id="path125"
       d="M 0,0 C 1.723,0.789 2.305,0.812 1.906,-0.758 1.738,-1.43 1.324,-2.379 0.906,-2.809 0.895,-2.153 0.68,-0.348 0,0 Z"
       style="fill:none;stroke:#000000;stroke-width:0.286;stroke-linecap:butt;stroke-linejoin:miter;stroke-miterlimit:4;stroke-dasharray:none;stroke-opacity:1"
       transform="matrix(1.3333333,0,0,-1.3333333,434.7148,185.31707)"
       clip-path="url(#clipPath126)" />
    <path
       id="path127"
       d="M 0,0 C 3.261,0 3.668,-1.715 3.652,-3.847 3.636,-6.156 2.531,-5.363 1.902,-8.324 1.656,-9.48 0.832,-9.546 0,-9.546 c -0.828,0 -1.653,0.066 -1.899,1.222 -0.629,2.961 -1.738,2.168 -1.754,4.477 C -3.668,-1.715 -3.262,0 0,0"
       style="fill:#f9dd16;fill-opacity:1;fill-rule:nonzero;stroke:none"
       transform="matrix(1.3333333,0,0,-1.3333333,431.13733,183.90693)"
       clip-path="url(#clipPath128)" />
    <path
       id="path129"
       d="M 0,0 C 3.262,0 3.668,-1.715 3.652,-3.847 3.637,-6.156 2.531,-5.363 1.902,-8.324 1.656,-9.48 0.832,-9.546 0,-9.546 c -0.828,0 -1.652,0.066 -1.898,1.222 -0.629,2.961 -1.739,2.168 -1.755,4.477 C -3.668,-1.715 -3.262,0 0,0 Z"
       style="fill:none;stroke:#000000;stroke-width:0.286;stroke-linecap:butt;stroke-linejoin:miter;stroke-miterlimit:4;stroke-dasharray:none;stroke-opacity:1"
       transform="matrix(1.3333333,0,0,-1.3333333,431.13667,183.90693)"
       clip-path="url(#clipPath130)" />
    <path
       id="path131"
       d="m 0,0 c -0.832,0.551 -1.367,0.168 -1.703,0.066 1.074,-0.312 1.117,-1.859 3.578,-2.582 -0.554,0.172 -0.859,-0.172 -1.383,0.141 1.016,-0.898 2.153,-1.934 4.551,-1.965 1.34,-0.015 0.414,-0.793 -0.461,-0.344 0.91,-1.05 2.707,-0.187 3.844,-2.101 0.215,1.48 -2.121,3.824 -1.043,5.512 C 4.063,-1.117 3.789,0.941 1.875,2.582 0.321,3.914 0.18,5.266 -0.508,7.801 -0.82,8.95 -2.023,9.667 -2.687,9.395 -3.269,9.157 -3.48,8.594 -2.98,8.172 -2.48,7.75 -1.843,7.691 -1.707,6.621 -2.355,7.493 -3.328,7.805 -3.793,7.262 -4.078,6.93 -3.965,6.157 -3.351,6.085 -2.355,5.973 -3.07,4.883 -1.937,3.821 -2.941,5.085 -3.812,5.2 -4.351,4.512 -4.672,4.102 -4.351,3.368 -3.66,3.446 -2.656,3.559 -1.496,0.719 0,0"
       style="fill:#f9dd16;fill-opacity:1;fill-rule:nonzero;stroke:none"
       transform="matrix(1.3333333,0,0,-1.3333333,419.9336,195.18747)"
       clip-path="url(#clipPath132)" />
    <path
       id="path133"
       d="m 0,0 c -0.832,0.551 -1.367,0.168 -1.703,0.066 1.074,-0.312 1.117,-1.859 3.578,-2.582 -0.554,0.172 -0.859,-0.172 -1.382,0.141 1.015,-0.898 2.153,-1.934 4.55,-1.965 1.34,-0.015 0.415,-0.793 -0.461,-0.344 0.911,-1.05 2.708,-0.187 3.844,-2.101 0.216,1.48 -2.121,3.824 -1.042,5.512 C 4.063,-1.117 3.79,0.941 1.875,2.582 0.321,3.914 0.18,5.266 -0.507,7.801 -0.82,8.95 -2.023,9.667 -2.687,9.395 -3.27,9.157 -3.48,8.594 -2.98,8.172 -2.479,7.75 -1.844,7.691 -1.707,6.621 -2.354,7.493 -3.328,7.805 -3.793,7.262 -4.078,6.93 -3.964,6.157 -3.351,6.085 -2.354,5.973 -3.07,4.883 -1.937,3.821 -2.94,5.085 -3.812,5.2 -4.351,4.512 -4.671,4.102 -4.351,3.368 -3.66,3.446 -2.656,3.559 -1.495,0.719 0,0 Z"
       style="fill:none;stroke:#000000;stroke-width:0.286;stroke-linecap:butt;stroke-linejoin:miter;stroke-miterlimit:4;stroke-dasharray:none;stroke-opacity:1"
       transform="matrix(1.3333333,0,0,-1.3333333,419.93293,195.18747)"
       clip-path="url(#clipPath134)" />
    <path
       id="path135"
       d="m 0,0 c -0.523,-0.102 -0.367,-1.066 -1.078,-1.137 1.695,0 2.555,0.45 3.352,1.172 -0.368,-0.242 -0.52,-0.859 -0.551,-1.203 0.89,0.859 3.015,0.93 4.121,0.688 1.105,-0.243 1.293,0.343 1.691,1.136 C 7.934,1.445 7.379,1.895 6.828,2.516 6.274,3.133 6.152,3.996 6.274,5.441 3.32,9.848 -1.969,7.711 -2.031,5.785 -0.125,3.305 0.121,3.582 1.723,3.238 3.32,2.895 4.301,2.895 3.231,1.895 2.86,1.551 1.32,1.711 0.121,1.652 -2.558,1.523 -3.789,3.727 -4.578,2.582 -5.234,1.641 -4.558,1.227 -3.23,1.273 -4.148,1.266 -5.371,1.324 -5.164,0.363 -4.812,-1.254 -3.43,0.664 -2.89,0 -3.351,0.121 -4.07,-0.195 -4.094,-0.684 -4.121,-1.168 -3.07,-1.797 -1.918,-0.773 -1.289,-0.215 -0.484,-0.004 0,0"
       style="fill:#f9dd16;fill-opacity:1;fill-rule:nonzero;stroke:none"
       transform="matrix(1.3333333,0,0,-1.3333333,455.61067,209.37507)"
       clip-path="url(#clipPath136)" />
    <path
       id="path137"
       d="m 0,0 c -0.183,-0.172 -0.203,0.136 -0.062,-0.676 0.261,-1.488 0.569,-2.188 -0.508,-2.188 -1.101,0 -0.765,0.7 -0.508,2.188 0.144,0.812 0.125,0.504 -0.058,0.676 M 1.645,0.359 C 1.102,0.054 0.797,0.91 0,0 0.219,0.265 0.492,-0.703 1.102,-0.059 M -2.781,0.359 C -2.238,0.054 -1.933,0.91 -1.136,0 -1.355,0.265 -1.628,-0.703 -2.238,-0.059 m 7.867,-8.59 C 4.84,-10.547 5.316,-11.485 5.433,-12.368 m 14.665,3.208 c -0.961,0.394 -1.84,0.632 -2.969,0.374 m 0.68,-7.093 c -0.524,-0.102 -0.368,-1.067 -1.079,-1.137 1.696,0 2.555,0.449 3.352,1.172 -0.367,-0.242 -0.52,-0.86 -0.551,-1.203 0.891,0.859 3.016,0.929 4.121,0.687 1.106,-0.242 1.293,0.344 1.692,1.137 0.398,0.789 -0.157,1.238 -0.707,1.859 -0.555,0.617 -0.676,1.481 -0.555,2.926 -2.953,4.406 -8.242,2.27 -8.305,0.344 1.907,-2.481 2.153,-2.203 3.754,-2.547 1.598,-0.344 2.578,-0.344 1.508,-1.344 -0.371,-0.344 -1.91,-0.183 -3.109,-0.242 -2.68,-0.129 -3.91,2.074 -4.7,0.93 -0.656,-0.942 0.02,-1.356 1.348,-1.309 -0.918,-0.008 -2.14,0.051 -1.934,-0.91 0.352,-1.617 1.735,0.301 2.274,-0.363 -0.461,0.121 -1.18,-0.196 -1.203,-0.684 -0.027,-0.484 1.023,-1.113 2.176,-0.09 0.629,0.559 1.433,0.77 1.918,0.774 z"
       style="fill:none;stroke:#000000;stroke-width:0.286;stroke-linecap:butt;stroke-linejoin:miter;stroke-miterlimit:4;stroke-dasharray:none;stroke-opacity:1"
       transform="matrix(1.3333333,0,0,-1.3333333,431.86587,188.20253)"
       clip-path="url(#clipPath138)" />
    <path
       id="path139"
       d="M 0,0 C 0.879,0 1.387,0.02 1.246,1.395 1.191,1.949 1.847,2.168 1.617,3.066 1.863,1.965 0,2.07 0,2.566 0,2.07 -1.86,1.965 -1.613,3.066 -1.844,2.168 -1.187,1.949 -1.246,1.395 -1.383,0.02 -0.875,0 0,0"
       style="fill:#ff0016;fill-opacity:1;fill-rule:nonzero;stroke:none"
       transform="matrix(1.3333333,0,0,-1.3333333,431.12627,195.83333)"
       clip-path="url(#clipPath140)" />
    <path
       id="path141"
       d="M 0,0 C 0.879,0 1.386,0.02 1.246,1.395 1.191,1.949 1.847,2.168 1.617,3.066 1.863,1.965 0,2.07 0,2.566 0,2.07 -1.859,1.965 -1.613,3.066 -1.844,2.168 -1.187,1.949 -1.246,1.395 -1.383,0.02 -0.875,0 0,0 Z"
       style="fill:none;stroke:#000000;stroke-width:0.143;stroke-linecap:butt;stroke-linejoin:miter;stroke-miterlimit:4;stroke-dasharray:none;stroke-opacity:1"
       transform="matrix(1.3333333,0,0,-1.3333333,431.12627,195.83333)"
       clip-path="url(#clipPath142)" />
    <path
       id="path143"
       d="M 0,0 -2.106,0.66"
       style="fill:#000000;fill-opacity:1;fill-rule:nonzero;stroke:#000000;stroke-width:0.143;stroke-linecap:butt;stroke-linejoin:miter;stroke-miterlimit:4;stroke-dasharray:none;stroke-opacity:1"
       transform="matrix(1.3333333,0,0,-1.3333333,430.08013,192.11973)"
       clip-path="url(#clipPath144)" />
    <path
       id="path145"
       d="M 0,0 -2.352,0.023"
       style="fill:#000000;fill-opacity:1;fill-rule:nonzero;stroke:#000000;stroke-width:0.143;stroke-linecap:butt;stroke-linejoin:miter;stroke-miterlimit:4;stroke-dasharray:none;stroke-opacity:1"
       transform="matrix(1.3333333,0,0,-1.3333333,430.08013,192.2812)"
       clip-path="url(#clipPath146)" />
    <path
       id="path147"
       d="M 0,0 -2,-0.601"
       style="fill:#000000;fill-opacity:1;fill-rule:nonzero;stroke:#000000;stroke-width:0.143;stroke-linecap:butt;stroke-linejoin:miter;stroke-miterlimit:4;stroke-dasharray:none;stroke-opacity:1"
       transform="matrix(1.3333333,0,0,-1.3333333,430.10547,192.4584)"
       clip-path="url(#clipPath148)" />
    <path
       id="path149"
       d="M 0,0 2.105,0.66"
       style="fill:#000000;fill-opacity:1;fill-rule:nonzero;stroke:#000000;stroke-width:0.143;stroke-linecap:butt;stroke-linejoin:miter;stroke-miterlimit:4;stroke-dasharray:none;stroke-opacity:1"
       transform="matrix(1.3333333,0,0,-1.3333333,432.1784,192.11973)"
       clip-path="url(#clipPath150)" />
    <path
       id="path151"
       d="M 0,0 2.348,0.023"
       style="fill:#000000;fill-opacity:1;fill-rule:nonzero;stroke:#000000;stroke-width:0.143;stroke-linecap:butt;stroke-linejoin:miter;stroke-miterlimit:4;stroke-dasharray:none;stroke-opacity:1"
       transform="matrix(1.3333333,0,0,-1.3333333,432.1784,192.2812)"
       clip-path="url(#clipPath152)" />
    <path
       id="path153"
       d="M 0,0 2.004,-0.601"
       style="fill:#000000;fill-opacity:1;fill-rule:nonzero;stroke:none"
       transform="matrix(1.3333333,0,0,-1.3333333,432.14653,192.4584)"
       clip-path="url(#clipPath154)" />
    <path
       id="path155"
       d="M 0,0 2.003,-0.601"
       style="fill:none;stroke:#000000;stroke-width:0.143;stroke-linecap:butt;stroke-linejoin:miter;stroke-miterlimit:4;stroke-dasharray:none;stroke-opacity:1"
       transform="matrix(1.3333333,0,0,-1.3333333,432.1472,192.4584)"
       clip-path="url(#clipPath156)" />
    <path
       id="path157"
       d="m 0,0 c -0.613,0.852 -2.144,0.133 -2.175,-0.926 0.519,0.688 1.363,-0.301 1.824,-0.093 C -0.031,-0.875 0.246,-0.348 0,0"
       style="fill:#0051ba;fill-opacity:1;fill-rule:nonzero;stroke:none"
       transform="matrix(1.3333333,0,0,-1.3333333,416.60027,182.724)"
       clip-path="url(#clipPath158)" />
    <path
       id="path159"
       d="m 0,0 c -0.613,0.852 -2.145,0.133 -2.176,-0.926 0.52,0.688 1.364,-0.301 1.824,-0.093 C -0.031,-0.875 0.246,-0.348 0,0 Z"
       style="fill:none;stroke:#000000;stroke-width:0.03;stroke-linecap:butt;stroke-linejoin:miter;stroke-miterlimit:4;stroke-dasharray:none;stroke-opacity:1"
       transform="matrix(1.3333333,0,0,-1.3333333,416.60027,182.724)"
       clip-path="url(#clipPath160)" />
    <path
       id="path161"
       d="M 0,0 C -0.613,0.855 -2.144,0.132 -2.175,-0.926 -1.66,-0.239 -0.812,-1.227 -0.351,-1.02 -0.031,-0.876 0.25,-0.348 0,0"
       style="fill:#0051ba;fill-opacity:1;fill-rule:nonzero;stroke:#000000;stroke-width:0.03;stroke-linecap:butt;stroke-linejoin:miter;stroke-miterlimit:4;stroke-dasharray:none;stroke-opacity:1"
       transform="matrix(1.3333333,0,0,-1.3333333,415.54293,185.416)"
       clip-path="url(#clipPath162)" />
    <path
       id="path163"
       d="m 0,0 c -0.695,0.769 -2.145,-0.137 -2.07,-1.192 0.449,0.746 1.386,-0.129 1.824,0.133 C 0.055,-0.875 0.281,-0.313 0,0"
       style="fill:#0051ba;fill-opacity:1;fill-rule:nonzero;stroke:none"
       transform="matrix(1.3333333,0,0,-1.3333333,415.01173,189.03053)"
       clip-path="url(#clipPath164)" />
    <path
       id="path165"
       d="m 0,0 c -0.695,0.769 -2.145,-0.137 -2.07,-1.192 0.448,0.746 1.386,-0.129 1.824,0.133 C 0.054,-0.875 0.281,-0.313 0,0 Z"
       style="fill:none;stroke:#000000;stroke-width:0.03;stroke-linecap:butt;stroke-linejoin:miter;stroke-miterlimit:4;stroke-dasharray:none;stroke-opacity:1"
       transform="matrix(1.3333333,0,0,-1.3333333,415.01173,189.03053)"
       clip-path="url(#clipPath166)" />
    <path
       id="path167"
       d="m 0,0 c -0.769,0.676 -2.117,-0.41 -1.933,-1.449 0.367,0.797 1.386,0.051 1.793,0.367 C 0.145,-0.859 0.313,-0.273 0,0"
       style="fill:#0051ba;fill-opacity:1;fill-rule:nonzero;stroke:none"
       transform="matrix(1.3333333,0,0,-1.3333333,415.98507,200.2396)"
       clip-path="url(#clipPath168)" />
    <path
       id="path169"
       d="m 0,0 c -0.77,0.676 -2.117,-0.41 -1.934,-1.449 0.367,0.797 1.388,0.051 1.793,0.367 C 0.145,-0.859 0.313,-0.273 0,0 Z"
       style="fill:none;stroke:#000000;stroke-width:0.03;stroke-linecap:butt;stroke-linejoin:miter;stroke-miterlimit:4;stroke-dasharray:none;stroke-opacity:1"
       transform="matrix(1.3333333,0,0,-1.3333333,415.98573,200.2396)"
       clip-path="url(#clipPath170)" />
    <path
       id="path171"
       d="m 0,0 c -0.918,0.375 -1.902,-1.121 -1.441,-2.047 0.129,0.887 1.309,0.524 1.609,0.969 C 0.375,-0.77 0.371,-0.156 0,0"
       style="fill:#0051ba;fill-opacity:1;fill-rule:nonzero;stroke:none"
       transform="matrix(1.3333333,0,0,-1.3333333,415.9336,202.68747)"
       clip-path="url(#clipPath172)" />
    <path
       id="path173"
       d="m 0,0 c -0.918,0.375 -1.902,-1.121 -1.441,-2.046 0.129,0.886 1.308,0.523 1.609,0.968 C 0.375,-0.77 0.371,-0.156 0,0 Z"
       style="fill:none;stroke:#000000;stroke-width:0.03;stroke-linecap:butt;stroke-linejoin:miter;stroke-miterlimit:4;stroke-dasharray:none;stroke-opacity:1"
       transform="matrix(1.3333333,0,0,-1.3333333,415.9336,202.68747)"
       clip-path="url(#clipPath174)" />
    <path
       id="path175"
       d="m 0,0 c -0.918,0.379 -1.898,-1.121 -1.441,-2.047 0.129,0.887 1.308,0.524 1.609,0.969 C 0.375,-0.77 0.371,-0.156 0,0"
       style="fill:#0051ba;fill-opacity:1;fill-rule:nonzero;stroke:none"
       transform="matrix(1.3333333,0,0,-1.3333333,417.50133,204.5208)"
       clip-path="url(#clipPath176)" />
    <path
       id="path177"
       d="m 0,0 c -0.917,0.379 -1.898,-1.121 -1.441,-2.047 0.129,0.887 1.309,0.524 1.609,0.969 C 0.375,-0.77 0.372,-0.156 0,0 Z"
       style="fill:none;stroke:#000000;stroke-width:0.03;stroke-linecap:butt;stroke-linejoin:miter;stroke-miterlimit:4;stroke-dasharray:none;stroke-opacity:1"
       transform="matrix(1.3333333,0,0,-1.3333333,417.50133,204.5208)"
       clip-path="url(#clipPath178)" />
    <path
       id="path179"
       d="m 0,0 c -0.918,0.379 -1.899,-1.121 -1.442,-2.047 0.129,0.887 1.309,0.527 1.61,0.969 C 0.375,-0.77 0.371,-0.152 0,0"
       style="fill:#0051ba;fill-opacity:1;fill-rule:nonzero;stroke:none"
       transform="matrix(1.3333333,0,0,-1.3333333,449.528,208.07293)"
       clip-path="url(#clipPath180)" />
    <path
       id="path181"
       d="m 0,0 c -0.918,0.379 -1.898,-1.121 -1.441,-2.047 0.129,0.887 1.308,0.527 1.609,0.969 C 0.375,-0.77 0.371,-0.152 0,0 Z"
       style="fill:none;stroke:#000000;stroke-width:0.03;stroke-linecap:butt;stroke-linejoin:miter;stroke-miterlimit:4;stroke-dasharray:none;stroke-opacity:1"
       transform="matrix(1.3333333,0,0,-1.3333333,449.52733,208.07293)"
       clip-path="url(#clipPath182)" />
    <path
       id="path183"
       d="M 0,0 C -0.949,0.258 -1.774,-1.355 -1.223,-2.219 -1.188,-1.32 0.02,-1.527 0.273,-1.051 0.449,-0.719 0.388,-0.105 0,0"
       style="fill:#0051ba;fill-opacity:1;fill-rule:nonzero;stroke:none"
       transform="matrix(1.3333333,0,0,-1.3333333,451.1784,209.7344)"
       clip-path="url(#clipPath184)" />
    <path
       id="path185"
       d="M 0,0 C -0.95,0.258 -1.773,-1.355 -1.223,-2.219 -1.187,-1.32 0.02,-1.527 0.273,-1.051 0.449,-0.719 0.387,-0.105 0,0 Z"
       style="fill:none;stroke:#000000;stroke-width:0.03;stroke-linecap:butt;stroke-linejoin:miter;stroke-miterlimit:4;stroke-dasharray:none;stroke-opacity:1"
       transform="matrix(1.3333333,0,0,-1.3333333,451.1784,209.7344)"
       clip-path="url(#clipPath186)" />
    <path
       id="path187"
       d="m 0,0 c -0.844,0.547 -2.039,-0.742 -1.727,-1.742 0.262,0.847 1.368,0.269 1.731,0.648 C 0.254,-0.828 0.344,-0.223 0,0"
       style="fill:#0051ba;fill-opacity:1;fill-rule:nonzero;stroke:none"
       transform="matrix(1.3333333,0,0,-1.3333333,450.01173,205.7188)"
       clip-path="url(#clipPath188)" />
    <path
       id="path189"
       d="m 0,0 c -0.844,0.547 -2.039,-0.742 -1.726,-1.742 0.262,0.847 1.367,0.269 1.73,0.648 C 0.254,-0.828 0.344,-0.223 0,0 Z"
       style="fill:none;stroke:#000000;stroke-width:0.03;stroke-linecap:butt;stroke-linejoin:miter;stroke-miterlimit:4;stroke-dasharray:none;stroke-opacity:1"
       transform="matrix(1.3333333,0,0,-1.3333333,450.01173,205.7188)"
       clip-path="url(#clipPath190)" />
    <path
       id="path191"
       d="m 0,0 c -0.948,0.258 -1.773,-1.355 -1.223,-2.219 0.039,0.899 1.246,0.692 1.5,1.168 C 0.453,-0.719 0.387,-0.105 0,0"
       style="fill:#0051ba;fill-opacity:1;fill-rule:nonzero;stroke:none"
       transform="matrix(1.3333333,0,0,-1.3333333,472.79813,208.58853)"
       clip-path="url(#clipPath192)" />
    <path
       id="path193"
       d="m 0,0 c -0.949,0.258 -1.773,-1.355 -1.223,-2.219 0.039,0.899 1.246,0.692 1.5,1.168 C 0.453,-0.719 0.387,-0.105 0,0 Z"
       style="fill:none;stroke:#000000;stroke-width:0.03;stroke-linecap:butt;stroke-linejoin:miter;stroke-miterlimit:4;stroke-dasharray:none;stroke-opacity:1"
       transform="matrix(1.3333333,0,0,-1.3333333,472.79813,208.58853)"
       clip-path="url(#clipPath194)" />
    <path
       id="path195"
       d="m 0,0 c -0.859,0.516 -2.016,-0.82 -1.672,-1.808 0.235,0.859 1.36,0.32 1.711,0.714 C 0.281,-0.82 0.356,-0.211 0,0"
       style="fill:#0051ba;fill-opacity:1;fill-rule:nonzero;stroke:none"
       transform="matrix(1.3333333,0,0,-1.3333333,472.83467,206.33853)"
       clip-path="url(#clipPath196)" />
    <path
       id="path197"
       d="m 0,0 c -0.859,0.516 -2.016,-0.82 -1.672,-1.809 0.235,0.86 1.36,0.321 1.711,0.715 C 0.281,-0.82 0.355,-0.211 0,0 Z"
       style="fill:none;stroke:#000000;stroke-width:0.03;stroke-linecap:butt;stroke-linejoin:miter;stroke-miterlimit:4;stroke-dasharray:none;stroke-opacity:1"
       transform="matrix(1.3333333,0,0,-1.3333333,472.83467,206.33853)"
       clip-path="url(#clipPath198)" />
    <path
       id="path199"
       d="m 0,0 c -0.957,0.215 -1.715,-1.441 -1.133,-2.273 0.004,0.898 1.219,0.75 1.449,1.242 C 0.481,-0.691 0.391,-0.086 0,0"
       style="fill:#0051ba;fill-opacity:1;fill-rule:nonzero;stroke:none"
       transform="matrix(1.3333333,0,0,-1.3333333,473.7252,210.60413)"
       clip-path="url(#clipPath200)" />
    <path
       id="path201"
       d="m 0,0 c -0.957,0.215 -1.715,-1.441 -1.133,-2.273 0.004,0.898 1.219,0.75 1.449,1.242 C 0.48,-0.691 0.391,-0.086 0,0 Z"
       style="fill:none;stroke:#000000;stroke-width:0.03;stroke-linecap:butt;stroke-linejoin:miter;stroke-miterlimit:4;stroke-dasharray:none;stroke-opacity:1"
       transform="matrix(1.3333333,0,0,-1.3333333,473.7252,210.60413)"
       clip-path="url(#clipPath202)" />
    <path
       id="path203"
       d="m 0,0 c 0.602,0 0.848,-0.199 0.848,-1.414 0,-2.578 -0.028,-3.688 -0.77,-3.688 -0.742,0 -0.691,1.055 -0.691,2.946 0,0.988 0,1.48 -0.18,1.398 C -0.793,-0.113 -0.535,0 0,0"
       style="fill:#0051ba;fill-opacity:1;fill-rule:nonzero;stroke:none"
       transform="matrix(1.3333333,0,0,-1.3333333,431.22,194.7292)"
       clip-path="url(#clipPath204)" />
    <path
       id="path205"
       d="m 0,0 c 0.602,0 0.848,-0.199 0.848,-1.414 0,-2.578 -0.028,-3.688 -0.77,-3.688 -0.743,0 -0.692,1.055 -0.692,2.946 0,0.988 0,1.48 -0.179,1.398 C -0.793,-0.113 -0.535,0 0,0 Z"
       style="fill:none;stroke:#000000;stroke-width:0.03;stroke-linecap:butt;stroke-linejoin:miter;stroke-miterlimit:4;stroke-dasharray:none;stroke-opacity:1"
       transform="matrix(1.3333333,0,0,-1.3333333,431.22,194.7292)"
       clip-path="url(#clipPath206)" />
  </g>
</svg>
