<?xml version="1.0" encoding="UTF-8" standalone="no"?>
<!-- Created with Inkscape (http://www.inkscape.org/) -->

<svg
   version="1.1"
   id="svg1"
   width="600"
   height="400"
   viewBox="0 0 600 400"
   sodipodi:docname="kz.ai"
   xmlns:inkscape="http://www.inkscape.org/namespaces/inkscape"
   xmlns:sodipodi="http://sodipodi.sourceforge.net/DTD/sodipodi-0.dtd"
   xmlns="http://www.w3.org/2000/svg"
   xmlns:svg="http://www.w3.org/2000/svg">
  <defs
     id="defs1">
    <clipPath
       clipPathUnits="userSpaceOnUse"
       id="clipPath3">
      <path
         d="M 0,300 H 450 V 0 H 0 Z"
         transform="translate(-35.393601,-212.35941)"
         id="path3" />
    </clipPath>
    <clipPath
       clipPathUnits="userSpaceOnUse"
       id="clipPath5">
      <path
         d="M 0,300 H 450 V 0 H 0 Z"
         transform="translate(-251.08591,-218.96731)"
         id="path5" />
    </clipPath>
    <clipPath
       clipPathUnits="userSpaceOnUse"
       id="clipPath7">
      <path
         d="M 0,300 H 450 V 0 H 0 Z"
         transform="translate(-259.687,-216.35841)"
         id="path7" />
    </clipPath>
    <clipPath
       clipPathUnits="userSpaceOnUse"
       id="clipPath9">
      <path
         d="M 0,300 H 450 V 0 H 0 Z"
         transform="translate(-267.6133,-212.12161)"
         id="path9" />
    </clipPath>
    <clipPath
       clipPathUnits="userSpaceOnUse"
       id="clipPath11">
      <path
         d="M 0,300 H 450 V 0 H 0 Z"
         transform="translate(-274.561,-206.41941)"
         id="path11" />
    </clipPath>
    <clipPath
       clipPathUnits="userSpaceOnUse"
       id="clipPath13">
      <path
         d="M 0,300 H 450 V 0 H 0 Z"
         transform="translate(-280.26271,-199.47171)"
         id="path13" />
    </clipPath>
    <clipPath
       clipPathUnits="userSpaceOnUse"
       id="clipPath15">
      <path
         d="M 0,300 H 450 V 0 H 0 Z"
         transform="translate(-284.49951,-191.54541)"
         id="path15" />
    </clipPath>
    <clipPath
       clipPathUnits="userSpaceOnUse"
       id="clipPath17">
      <path
         d="M 0,300 H 450 V 0 H 0 Z"
         transform="translate(-287.10891,-182.9443)"
         id="path17" />
    </clipPath>
    <clipPath
       clipPathUnits="userSpaceOnUse"
       id="clipPath19">
      <path
         d="M 0,300 H 450 V 0 H 0 Z"
         transform="translate(-287.98971,-174)"
         id="path19" />
    </clipPath>
    <clipPath
       clipPathUnits="userSpaceOnUse"
       id="clipPath21">
      <path
         d="M 0,300 H 450 V 0 H 0 Z"
         transform="translate(-287.10891,-165.05571)"
         id="path21" />
    </clipPath>
    <clipPath
       clipPathUnits="userSpaceOnUse"
       id="clipPath23">
      <path
         d="M 0,300 H 450 V 0 H 0 Z"
         transform="translate(-284.49951,-156.4546)"
         id="path23" />
    </clipPath>
    <clipPath
       clipPathUnits="userSpaceOnUse"
       id="clipPath25">
      <path
         d="M 0,300 H 450 V 0 H 0 Z"
         transform="translate(-280.26271,-148.5283)"
         id="path25" />
    </clipPath>
    <clipPath
       clipPathUnits="userSpaceOnUse"
       id="clipPath27">
      <path
         d="M 0,300 H 450 V 0 H 0 Z"
         transform="translate(-274.561,-141.58011)"
         id="path27" />
    </clipPath>
    <clipPath
       clipPathUnits="userSpaceOnUse"
       id="clipPath29">
      <path
         d="M 0,300 H 450 V 0 H 0 Z"
         transform="translate(-267.6133,-135.87891)"
         id="path29" />
    </clipPath>
    <clipPath
       clipPathUnits="userSpaceOnUse"
       id="clipPath31">
      <path
         d="M 0,300 H 450 V 0 H 0 Z"
         transform="translate(-259.687,-131.6416)"
         id="path31" />
    </clipPath>
    <clipPath
       clipPathUnits="userSpaceOnUse"
       id="clipPath33">
      <path
         d="M 0,300 H 450 V 0 H 0 Z"
         transform="translate(-216.6694,-135.87891)"
         id="path33" />
    </clipPath>
    <clipPath
       clipPathUnits="userSpaceOnUse"
       id="clipPath35">
      <path
         d="M 0,300 H 450 V 0 H 0 Z"
         transform="translate(-209.72221,-141.58011)"
         id="path35" />
    </clipPath>
    <clipPath
       clipPathUnits="userSpaceOnUse"
       id="clipPath37">
      <path
         d="M 0,300 H 450 V 0 H 0 Z"
         transform="translate(-204.02001,-148.5283)"
         id="path37" />
    </clipPath>
    <clipPath
       clipPathUnits="userSpaceOnUse"
       id="clipPath39">
      <path
         d="M 0,300 H 450 V 0 H 0 Z"
         transform="translate(-199.7832,-156.4546)"
         id="path39" />
    </clipPath>
    <clipPath
       clipPathUnits="userSpaceOnUse"
       id="clipPath41">
      <path
         d="M 0,300 H 450 V 0 H 0 Z"
         transform="translate(-197.17431,-165.05571)"
         id="path41" />
    </clipPath>
    <clipPath
       clipPathUnits="userSpaceOnUse"
       id="clipPath43">
      <path
         d="M 0,300 H 450 V 0 H 0 Z"
         transform="translate(-196.29351,-174)"
         id="path43" />
    </clipPath>
    <clipPath
       clipPathUnits="userSpaceOnUse"
       id="clipPath45">
      <path
         d="M 0,300 H 450 V 0 H 0 Z"
         transform="translate(-197.17431,-182.9443)"
         id="path45" />
    </clipPath>
    <clipPath
       clipPathUnits="userSpaceOnUse"
       id="clipPath47">
      <path
         d="M 0,300 H 450 V 0 H 0 Z"
         transform="translate(-199.7832,-191.54541)"
         id="path47" />
    </clipPath>
    <clipPath
       clipPathUnits="userSpaceOnUse"
       id="clipPath49">
      <path
         d="M 0,300 H 450 V 0 H 0 Z"
         transform="translate(-204.02001,-199.47171)"
         id="path49" />
    </clipPath>
    <clipPath
       clipPathUnits="userSpaceOnUse"
       id="clipPath51">
      <path
         d="M 0,300 H 450 V 0 H 0 Z"
         transform="translate(-209.72221,-206.41941)"
         id="path51" />
    </clipPath>
    <clipPath
       clipPathUnits="userSpaceOnUse"
       id="clipPath53">
      <path
         d="M 0,300 H 450 V 0 H 0 Z"
         transform="translate(-242.09031,-214.3135)"
         id="path53" />
    </clipPath>
    <clipPath
       clipPathUnits="userSpaceOnUse"
       id="clipPath55">
      <path
         d="M 0,300 H 450 V 0 H 0 Z"
         transform="translate(-242.14161,-219.84811)"
         id="path55" />
    </clipPath>
    <clipPath
       clipPathUnits="userSpaceOnUse"
       id="clipPath57">
      <path
         d="M 0,300 H 450 V 0 H 0 Z"
         transform="translate(-251.08591,-129.03321)"
         id="path57" />
    </clipPath>
    <clipPath
       clipPathUnits="userSpaceOnUse"
       id="clipPath59">
      <path
         d="M 0,300 H 450 V 0 H 0 Z"
         transform="translate(-242.14161,-128.1514)"
         id="path59" />
    </clipPath>
    <clipPath
       clipPathUnits="userSpaceOnUse"
       id="clipPath61">
      <path
         d="M 0,300 H 450 V 0 H 0 Z"
         transform="translate(-233.19681,-129.03321)"
         id="path61" />
    </clipPath>
    <clipPath
       clipPathUnits="userSpaceOnUse"
       id="clipPath63">
      <path
         d="M 0,300 H 450 V 0 H 0 Z"
         transform="translate(-224.59621,-131.6416)"
         id="path63" />
    </clipPath>
    <clipPath
       clipPathUnits="userSpaceOnUse"
       id="clipPath65">
      <path
         d="M 0,300 H 450 V 0 H 0 Z"
         transform="translate(-216.6694,-212.12161)"
         id="path65" />
    </clipPath>
    <clipPath
       clipPathUnits="userSpaceOnUse"
       id="clipPath67">
      <path
         d="M 0,300 H 450 V 0 H 0 Z"
         transform="translate(-224.59621,-216.35841)"
         id="path67" />
    </clipPath>
    <clipPath
       clipPathUnits="userSpaceOnUse"
       id="clipPath69">
      <path
         d="M 0,300 H 450 V 0 H 0 Z"
         transform="translate(-233.19681,-218.96731)"
         id="path69" />
    </clipPath>
    <clipPath
       clipPathUnits="userSpaceOnUse"
       id="clipPath71">
      <path
         d="M 0,300 H 450 V 0 H 0 Z"
         transform="translate(-240.7402,-103.51461)"
         id="path71" />
    </clipPath>
    <clipPath
       clipPathUnits="userSpaceOnUse"
       id="clipPath73">
      <path
         d="M 0,300 H 450 V 0 H 0 Z"
         transform="translate(-247.79001,-79.989302)"
         id="path73" />
    </clipPath>
    <clipPath
       clipPathUnits="userSpaceOnUse"
       id="clipPath75">
      <path
         d="M 0,300 H 450 V 0 H 0 Z"
         transform="translate(-224.02981,-84.3994)"
         id="path75" />
    </clipPath>
    <clipPath
       clipPathUnits="userSpaceOnUse"
       id="clipPath77">
      <path
         d="M 0,300 H 450 V 0 H 0 Z"
         transform="translate(-223.9399,-84.0898)"
         id="path77" />
    </clipPath>
    <clipPath
       clipPathUnits="userSpaceOnUse"
       id="clipPath79">
      <path
         d="M 0,300 H 450 V 0 H 0 Z"
         transform="translate(-224.00001,-83.0254)"
         id="path79" />
    </clipPath>
    <clipPath
       clipPathUnits="userSpaceOnUse"
       id="clipPath81">
      <path
         d="M 0,300 H 450 V 0 H 0 Z"
         transform="translate(-219.43951,-83.471702)"
         id="path81" />
    </clipPath>
    <clipPath
       clipPathUnits="userSpaceOnUse"
       id="clipPath83">
      <path
         d="M 0,300 H 450 V 0 H 0 Z"
         transform="translate(-223.9399,-83.558605)"
         id="path83" />
    </clipPath>
    <clipPath
       clipPathUnits="userSpaceOnUse"
       id="clipPath85">
      <path
         d="M 0,300 H 450 V 0 H 0 Z"
         transform="translate(-36.000001,-21.876998)"
         id="path85" />
    </clipPath>
    <clipPath
       clipPathUnits="userSpaceOnUse"
       id="clipPath87">
      <path
         d="M 0,300 H 450 V 0 H 0 Z"
         transform="translate(-35.393601,-87.6406)"
         id="path87" />
    </clipPath>
    <clipPath
       clipPathUnits="userSpaceOnUse"
       id="clipPath89">
      <path
         d="M 0,300 H 450 V 0 H 0 Z"
         transform="translate(-36.606401,-87.6406)"
         id="path89" />
    </clipPath>
    <clipPath
       clipPathUnits="userSpaceOnUse"
       id="clipPath91">
      <path
         d="M 0,300 H 450 V 0 H 0 Z"
         transform="translate(-36.000001,-21.876998)"
         id="path91" />
    </clipPath>
    <clipPath
       clipPathUnits="userSpaceOnUse"
       id="clipPath93">
      <path
         d="M 0,300 H 450 V 0 H 0 Z"
         transform="translate(-35.393601,-194.11671)"
         id="path93" />
    </clipPath>
    <clipPath
       clipPathUnits="userSpaceOnUse"
       id="clipPath95">
      <path
         d="M 0,300 H 450 V 0 H 0 Z"
         transform="translate(-36.606401,-194.11671)"
         id="path95" />
    </clipPath>
    <clipPath
       clipPathUnits="userSpaceOnUse"
       id="clipPath97">
      <path
         d="M 0,300 H 450 V 0 H 0 Z"
         transform="translate(-36.606401,-212.35941)"
         id="path97" />
    </clipPath>
    <clipPath
       clipPathUnits="userSpaceOnUse"
       id="clipPath99">
      <path
         d="M 0,300 H 450 V 0 H 0 Z"
         transform="translate(-36.606401,-105.88281)"
         id="path99" />
    </clipPath>
    <clipPath
       clipPathUnits="userSpaceOnUse"
       id="clipPath101">
      <path
         d="M 0,300 H 450 V 0 H 0 Z"
         transform="translate(-35.393601,-105.88281)"
         id="path101" />
    </clipPath>
    <clipPath
       clipPathUnits="userSpaceOnUse"
       id="clipPath103">
      <path
         d="M 0,300 H 450 V 0 H 0 Z"
         transform="translate(-36.000001,-278.12301)"
         id="path103" />
    </clipPath>
    <clipPath
       clipPathUnits="userSpaceOnUse"
       id="clipPath105">
      <path
         d="M 0,300 H 450 V 0 H 0 Z"
         transform="translate(-36.000001,-278.12301)"
         id="path105" />
    </clipPath>
  </defs>
  <sodipodi:namedview
     id="namedview1"
     pagecolor="#ffffff"
     bordercolor="#000000"
     borderopacity="0.25"
     inkscape:showpageshadow="2"
     inkscape:pageopacity="0.0"
     inkscape:pagecheckerboard="0"
     inkscape:deskcolor="#d1d1d1">
    <inkscape:page
       x="0"
       y="0"
       inkscape:label="1"
       id="page1"
       width="600"
       height="400"
       margin="0"
       bleed="0" />
  </sodipodi:namedview>
  <g
     id="layer-MC0"
     inkscape:groupmode="layer"
     inkscape:label="Layer 1">
    <path
       id="path1"
       d="M 0,0 H 450 V 300 H 0 Z"
       style="fill:#00afca;fill-opacity:1;fill-rule:nonzero;stroke:none"
       transform="matrix(1.3333333,0,0,-1.3333333,0,400)" />
    <path
       id="path2"
       d="m 0,0 c 0,-6.081 5.459,-9.207 9.749,-9.207 5.78,0 8.857,3.456 8.857,7.98 0,2.564 -0.47,4.173 -1.652,6.627 0,0 -9.534,19.828 -13.246,27.496 -0.463,0.957 -0.612,2.045 -0.612,3.642 0,2.465 2.391,4.48 4.898,4.542 2.285,0.057 4.776,-2.131 4.776,-4.624 0,-3.028 -1.571,-4.378 -3.184,-4.378 -1.985,0 -2.776,0.816 -2.776,2.21 0,0.97 0.469,1.391 1.143,1.391 1.702,0 1.225,-2.292 1.225,-2.292 0.845,0.185 1.54,1.049 1.142,2.128 0.619,0.138 1.199,0.463 1.654,0.982 -0.457,0.442 -0.98,0.784 -1.654,0.9 0.399,1.316 -0.133,1.959 -1.285,2.23 0.232,-0.506 0.24,-0.972 0.163,-1.412 -1.813,0.516 -4.592,-0.304 -4.592,-3.437 0,-3.109 2.158,-5.727 6.205,-5.073 -0.963,-0.46 -1.453,-1.402 -1.551,-2.455 0.734,0.286 1.551,0.327 1.551,0.327 -0.474,-0.834 -1.131,-1.553 -1.103,-3.191 0.751,0.341 1.447,0.972 2.409,0.572 -1.509,-2.968 0.344,-7.053 5.061,-8.019 -1.726,2.023 -2.572,4.208 -2.572,6.383 0,7.049 1.96,8.234 1.96,13.135 0,2.05 -1.054,4.264 -3.143,5.769 v -0.082 c 1.381,0.369 2.265,1.049 2.773,1.973 -3.154,0.894 -7.739,0.878 -10.202,-0.091 -2.83,-0.327 -4.805,-2.499 -5.388,-3.601 -0.582,-1.101 -1.712,-5.086 0,-8.674 1.875,-3.926 10.714,-22.667 13.47,-28.559 0.584,-1.25 0.939,-2.575 0.939,-4.01 0,-3.609 -3.307,-4.869 -5.184,-4.869 -2.245,0 -4.531,1.71 -4.531,3.846 0,1.354 0.735,2.169 1.796,2.169 2.538,0 2.383,-2.159 1.878,-3.519 1.579,0.71 2.497,1.978 2.245,3.315 0.894,0.122 1.745,0.546 2.53,1.432 -0.618,0.78 -1.372,1.37 -2.53,1.391 C 11.725,5.02 10.336,5.897 8.974,6.383 9.405,4.862 9.688,3.11 7.096,3.11 5.207,3.11 3.719,2.783 2.851,1.555 2.8,3.192 2.647,9.657 2.647,9.657 c -0.109,2.429 3.252,2.36 5.388,1.636 -0.806,2.799 -2.459,4.311 -6.286,3.929 0.929,0.388 1.918,1.262 1.918,2.945 0,2.278 -1.848,4.802 -3.061,5.548 L -0.001,0 Z"
       style="fill:#fec50c;fill-opacity:1;fill-rule:nonzero;stroke:none"
       transform="matrix(1.3333333,0,0,-1.3333333,47.191467,116.85413)"
       clip-path="url(#clipPath3)" />
    <path
       id="path4"
       d="m 0,0 c 2.359,-0.438 3.534,0.856 3.884,2.621 0.469,2.353 -0.538,14.201 -0.538,14.201 0,0 -5.464,-10.561 -5.931,-12.914 C -2.937,2.143 -2.353,0.468 0,0"
       style="fill:#fec50c;fill-opacity:1;fill-rule:nonzero;stroke:none"
       transform="matrix(1.3333333,0,0,-1.3333333,334.7812,108.0436)"
       clip-path="url(#clipPath5)" />
    <path
       id="path6"
       d="m 0,0 c 2.228,-0.891 3.632,0.15 4.321,1.812 0.918,2.217 2.242,14.034 2.242,14.034 0,0 -7.419,-9.293 -8.337,-11.509 C -2.462,2.675 -2.216,0.918 0,0"
       style="fill:#fec50c;fill-opacity:1;fill-rule:nonzero;stroke:none"
       transform="matrix(1.3333333,0,0,-1.3333333,346.24933,111.52213)"
       clip-path="url(#clipPath7)" />
    <path
       id="path8"
       d="m 0,0 c 2.011,-1.308 3.592,-0.561 4.592,0.935 1.332,1.994 4.937,13.326 4.937,13.326 0,0 -9.09,-7.667 -10.422,-9.661 C -1.893,3.104 -1.995,1.333 0,0"
       style="fill:#fec50c;fill-opacity:1;fill-rule:nonzero;stroke:none"
       transform="matrix(1.3333333,0,0,-1.3333333,356.81773,117.1712)"
       clip-path="url(#clipPath9)" />
    <path
       id="path10"
       d="m 0,0 c 1.717,-1.675 3.414,-1.251 4.686,0.021 1.696,1.697 7.442,12.107 7.442,12.107 0,0 -10.411,-5.746 -12.107,-7.442 C -1.251,3.414 -1.696,1.696 0,0"
       style="fill:#fec50c;fill-opacity:1;fill-rule:nonzero;stroke:none"
       transform="matrix(1.3333333,0,0,-1.3333333,366.08133,124.77413)"
       clip-path="url(#clipPath11)" />
    <path
       id="path12"
       d="M 0,0 C 1.358,-1.978 3.104,-1.893 4.6,-0.893 6.595,0.439 14.261,9.529 14.261,9.529 14.261,9.529 2.93,5.925 0.935,4.592 -0.561,3.592 -1.333,1.995 0,0"
       style="fill:#fec50c;fill-opacity:1;fill-rule:nonzero;stroke:none"
       transform="matrix(1.3333333,0,0,-1.3333333,373.6836,134.03773)"
       clip-path="url(#clipPath13)" />
    <path
       id="path14"
       d="m 0,0 c 0.946,-2.205 2.675,-2.462 4.337,-1.774 2.217,0.919 11.509,8.337 11.509,8.337 0,0 -11.817,-1.324 -14.033,-2.242 C 0.151,3.632 -0.918,2.216 0,0"
       style="fill:#fec50c;fill-opacity:1;fill-rule:nonzero;stroke:none"
       transform="matrix(1.3333333,0,0,-1.3333333,379.33267,144.60613)"
       clip-path="url(#clipPath15)" />
    <path
       id="path16"
       d="m 0,0 c 0.497,-2.347 2.143,-2.937 3.908,-2.585 2.353,0.467 12.914,5.931 12.914,5.931 0,0 -11.848,1.007 -14.201,0.539 C 0.856,3.534 -0.468,2.353 0,0"
       style="fill:#fec50c;fill-opacity:1;fill-rule:nonzero;stroke:none"
       transform="matrix(1.3333333,0,0,-1.3333333,382.81187,156.07427)"
       clip-path="url(#clipPath17)" />
    <path
       id="path18"
       d="M 0,0 C 0.03,-2.399 1.529,-3.298 3.328,-3.298 5.727,-3.298 17.152,0 17.152,0 17.152,0 5.727,3.298 3.328,3.298 1.529,3.298 0,2.399 0,0"
       style="fill:#fec50c;fill-opacity:1;fill-rule:nonzero;stroke:none"
       transform="matrix(1.3333333,0,0,-1.3333333,383.98627,168)"
       clip-path="url(#clipPath19)" />
    <path
       id="path20"
       d="m 0,0 c -0.439,-2.359 0.856,-3.534 2.621,-3.885 2.353,-0.468 14.201,0.539 14.201,0.539 0,0 -10.561,5.464 -12.914,5.931 C 2.143,2.937 0.468,2.353 0,0"
       style="fill:#fec50c;fill-opacity:1;fill-rule:nonzero;stroke:none"
       transform="matrix(1.3333333,0,0,-1.3333333,382.81187,179.92573)"
       clip-path="url(#clipPath21)" />
    <path
       id="path22"
       d="m 0,0 c -0.89,-2.228 0.151,-3.632 1.813,-4.321 2.216,-0.918 14.033,-2.242 14.033,-2.242 0,0 -9.292,7.418 -11.509,8.337 C 2.675,2.462 0.918,2.216 0,0"
       style="fill:#fec50c;fill-opacity:1;fill-rule:nonzero;stroke:none"
       transform="matrix(1.3333333,0,0,-1.3333333,379.33267,191.39387)"
       clip-path="url(#clipPath23)" />
    <path
       id="path24"
       d="m 0,0 c -1.308,-2.012 -0.561,-3.593 0.935,-4.592 1.995,-1.333 13.326,-4.937 13.326,-4.937 0,0 -7.666,9.09 -9.661,10.422 C 3.104,1.893 1.333,1.994 0,0"
       style="fill:#fec50c;fill-opacity:1;fill-rule:nonzero;stroke:none"
       transform="matrix(1.3333333,0,0,-1.3333333,373.6836,201.96227)"
       clip-path="url(#clipPath25)" />
    <path
       id="path26"
       d="m 0,0 c -1.675,-1.717 -1.251,-3.413 0.021,-4.686 1.696,-1.696 12.107,-7.442 12.107,-7.442 0,0 -5.746,10.411 -7.442,12.107 C 3.414,1.251 1.696,1.696 0,0"
       style="fill:#fec50c;fill-opacity:1;fill-rule:nonzero;stroke:none"
       transform="matrix(1.3333333,0,0,-1.3333333,366.08133,211.22653)"
       clip-path="url(#clipPath27)" />
    <path
       id="path28"
       d="m 0,0 c -1.978,-1.358 -1.893,-3.104 -0.893,-4.601 1.332,-1.994 10.422,-9.661 10.422,-9.661 0,0 -3.605,11.332 -4.937,13.326 C 3.592,0.561 1.995,1.332 0,0"
       style="fill:#fec50c;fill-opacity:1;fill-rule:nonzero;stroke:none"
       transform="matrix(1.3333333,0,0,-1.3333333,356.81773,218.82813)"
       clip-path="url(#clipPath29)" />
    <path
       id="path30"
       d="m 0,0 c -2.205,-0.945 -2.462,-2.675 -1.774,-4.337 0.918,-2.217 8.337,-11.509 8.337,-11.509 0,0 -1.324,11.817 -2.242,14.034 C 3.632,-0.15 2.216,0.918 0,0"
       style="fill:#fec50c;fill-opacity:1;fill-rule:nonzero;stroke:none"
       transform="matrix(1.3333333,0,0,-1.3333333,346.24933,224.47787)"
       clip-path="url(#clipPath31)" />
    <path
       id="path32"
       d="m 0,0 c -2.011,1.308 -3.592,0.561 -4.591,-0.936 -1.333,-1.994 -4.938,-13.326 -4.938,-13.326 0,0 9.09,7.667 10.423,9.661 C 1.893,-3.104 1.995,-1.333 0,0"
       style="fill:#fec50c;fill-opacity:1;fill-rule:nonzero;stroke:none"
       transform="matrix(1.3333333,0,0,-1.3333333,288.89253,218.82813)"
       clip-path="url(#clipPath33)" />
    <path
       id="path34"
       d="m 0,0 c -1.718,1.676 -3.414,1.251 -4.686,-0.021 -1.696,-1.696 -7.442,-12.107 -7.442,-12.107 0,0 10.41,5.746 12.107,7.442 C 1.251,-3.413 1.696,-1.696 0,0"
       style="fill:#fec50c;fill-opacity:1;fill-rule:nonzero;stroke:none"
       transform="matrix(1.3333333,0,0,-1.3333333,279.6296,211.22653)"
       clip-path="url(#clipPath35)" />
    <path
       id="path36"
       d="m 0,0 c -1.357,1.978 -3.104,1.893 -4.6,0.893 -1.994,-1.332 -9.661,-10.422 -9.661,-10.422 0,0 11.332,3.604 13.326,4.937 C 0.561,-3.593 1.333,-1.995 0,0"
       style="fill:#fec50c;fill-opacity:1;fill-rule:nonzero;stroke:none"
       transform="matrix(1.3333333,0,0,-1.3333333,272.02667,201.96227)"
       clip-path="url(#clipPath37)" />
    <path
       id="path38"
       d="m 0,0 c -0.946,2.205 -2.675,2.462 -4.337,1.774 -2.217,-0.919 -11.509,-8.337 -11.509,-8.337 0,0 11.817,1.324 14.034,2.242 C -0.15,-3.632 0.918,-2.216 0,0"
       style="fill:#fec50c;fill-opacity:1;fill-rule:nonzero;stroke:none"
       transform="matrix(1.3333333,0,0,-1.3333333,266.3776,191.39387)"
       clip-path="url(#clipPath39)" />
    <path
       id="path40"
       d="m 0,0 c -0.498,2.347 -2.144,2.937 -3.908,2.585 -2.353,-0.467 -12.914,-5.931 -12.914,-5.931 0,0 11.848,-1.007 14.201,-0.539 C -0.856,-3.534 0.468,-2.353 0,0"
       style="fill:#fec50c;fill-opacity:1;fill-rule:nonzero;stroke:none"
       transform="matrix(1.3333333,0,0,-1.3333333,262.89907,179.92573)"
       clip-path="url(#clipPath41)" />
    <path
       id="path42"
       d="M 0,0 C -0.03,2.399 -1.529,3.298 -3.329,3.298 -5.728,3.298 -17.152,0 -17.152,0 c 0,0 11.424,-3.298 13.823,-3.298 C -1.529,-3.298 0,-2.399 0,0"
       style="fill:#fec50c;fill-opacity:1;fill-rule:nonzero;stroke:none"
       transform="matrix(1.3333333,0,0,-1.3333333,261.72467,168)"
       clip-path="url(#clipPath43)" />
    <path
       id="path44"
       d="m 0,0 c 0.438,2.359 -0.856,3.534 -2.621,3.885 -2.353,0.468 -14.201,-0.539 -14.201,-0.539 0,0 10.561,-5.464 12.914,-5.931 C -2.144,-2.937 -0.468,-2.353 0,0"
       style="fill:#fec50c;fill-opacity:1;fill-rule:nonzero;stroke:none"
       transform="matrix(1.3333333,0,0,-1.3333333,262.89907,156.07427)"
       clip-path="url(#clipPath45)" />
    <path
       id="path46"
       d="m 0,0 c 0.891,2.228 -0.15,3.632 -1.812,4.321 -2.217,0.918 -14.034,2.242 -14.034,2.242 0,0 9.292,-7.418 11.509,-8.337 C -2.675,-2.462 -0.918,-2.216 0,0"
       style="fill:#fec50c;fill-opacity:1;fill-rule:nonzero;stroke:none"
       transform="matrix(1.3333333,0,0,-1.3333333,266.3776,144.60613)"
       clip-path="url(#clipPath47)" />
    <path
       id="path48"
       d="m 0,0 c 1.308,2.011 0.561,3.592 -0.935,4.592 -1.994,1.333 -13.326,4.937 -13.326,4.937 0,0 7.667,-9.09 9.661,-10.422 1.496,-1 3.267,-1.102 4.6,0.893"
       style="fill:#fec50c;fill-opacity:1;fill-rule:nonzero;stroke:none"
       transform="matrix(1.3333333,0,0,-1.3333333,272.02667,134.03773)"
       clip-path="url(#clipPath49)" />
    <path
       id="path50"
       d="m 0,0 c 1.675,1.718 1.251,3.414 -0.021,4.686 -1.697,1.696 -12.107,7.442 -12.107,7.442 0,0 5.746,-10.41 7.442,-12.107 C -3.414,-1.251 -1.696,-1.696 0,0"
       style="fill:#fec50c;fill-opacity:1;fill-rule:nonzero;stroke:none"
       transform="matrix(1.3333333,0,0,-1.3333333,279.6296,124.77413)"
       clip-path="url(#clipPath51)" />
    <path
       id="path52"
       d="m 0,0 c 22.293,0 40.365,-18.072 40.365,-40.365 0,-22.293 -18.072,-40.364 -40.365,-40.364 -22.293,0 -40.365,18.071 -40.365,40.364 C -40.365,-18.072 -22.293,0 0,0"
       style="fill:#fec50c;fill-opacity:1;fill-rule:nonzero;stroke:none"
       transform="matrix(1.3333333,0,0,-1.3333333,322.78707,114.24867)"
       clip-path="url(#clipPath53)" />
    <path
       id="path54"
       d="M 0,0 C 2.399,0.03 3.298,1.529 3.298,3.329 3.298,5.727 0,17.152 0,17.152 0,17.152 -3.298,5.727 -3.298,3.329 -3.298,1.529 -2.399,0 0,0"
       style="fill:#fec50c;fill-opacity:1;fill-rule:nonzero;stroke:none"
       transform="matrix(1.3333333,0,0,-1.3333333,322.85547,106.8692)"
       clip-path="url(#clipPath55)" />
    <path
       id="path56"
       d="m 0,0 c -2.347,-0.498 -2.937,-2.144 -2.585,-3.908 0.467,-2.353 5.931,-12.914 5.931,-12.914 0,0 1.007,11.847 0.538,14.201 C 3.534,-0.856 2.353,0.468 0,0"
       style="fill:#fec50c;fill-opacity:1;fill-rule:nonzero;stroke:none"
       transform="matrix(1.3333333,0,0,-1.3333333,334.7812,227.95573)"
       clip-path="url(#clipPath57)" />
    <path
       id="path58"
       d="M 0,0 C -2.399,-0.029 -3.298,-1.529 -3.298,-3.328 -3.298,-5.727 0,-17.151 0,-17.151 c 0,0 3.298,11.424 3.298,13.823 C 3.298,-1.529 2.399,0 0,0"
       style="fill:#fec50c;fill-opacity:1;fill-rule:nonzero;stroke:none"
       transform="matrix(1.3333333,0,0,-1.3333333,322.85547,229.13147)"
       clip-path="url(#clipPath59)" />
    <path
       id="path60"
       d="m 0,0 c -2.358,0.438 -3.533,-0.856 -3.884,-2.621 -0.468,-2.354 0.538,-14.201 0.538,-14.201 0,0 5.464,10.561 5.932,12.914 C 2.937,-2.144 2.353,-0.469 0,0"
       style="fill:#fec50c;fill-opacity:1;fill-rule:nonzero;stroke:none"
       transform="matrix(1.3333333,0,0,-1.3333333,310.92907,227.95573)"
       clip-path="url(#clipPath61)" />
    <path
       id="path62"
       d="m 0,0 c -2.228,0.891 -3.633,-0.15 -4.321,-1.812 -0.918,-2.217 -2.243,-14.034 -2.243,-14.034 0,0 7.419,9.292 8.337,11.509 C 2.462,-2.675 2.216,-0.918 0,0"
       style="fill:#fec50c;fill-opacity:1;fill-rule:nonzero;stroke:none"
       transform="matrix(1.3333333,0,0,-1.3333333,299.4616,224.47787)"
       clip-path="url(#clipPath63)" />
    <path
       id="path64"
       d="m 0,0 c 1.978,1.357 1.893,3.104 0.894,4.6 -1.333,1.994 -10.423,9.661 -10.423,9.661 0,0 3.605,-11.332 4.938,-13.326 C -3.592,-0.561 -1.995,-1.333 0,0"
       style="fill:#fec50c;fill-opacity:1;fill-rule:nonzero;stroke:none"
       transform="matrix(1.3333333,0,0,-1.3333333,288.89253,117.1712)"
       clip-path="url(#clipPath65)" />
    <path
       id="path66"
       d="m 0,0 c 2.205,0.945 2.462,2.675 1.773,4.337 -0.918,2.216 -8.337,11.509 -8.337,11.509 0,0 1.325,-11.817 2.243,-14.034 C -3.633,0.15 -2.216,-0.918 0,0"
       style="fill:#fec50c;fill-opacity:1;fill-rule:nonzero;stroke:none"
       transform="matrix(1.3333333,0,0,-1.3333333,299.4616,111.52213)"
       clip-path="url(#clipPath67)" />
    <path
       id="path68"
       d="m 0,0 c 2.347,0.498 2.937,2.143 2.586,3.908 -0.468,2.353 -5.932,12.914 -5.932,12.914 0,0 -1.006,-11.848 -0.538,-14.201 C -3.533,0.856 -2.353,-0.468 0,0"
       style="fill:#fec50c;fill-opacity:1;fill-rule:nonzero;stroke:none"
       transform="matrix(1.3333333,0,0,-1.3333333,310.92907,108.0436)"
       clip-path="url(#clipPath69)" />
    <path
       id="path70"
       d="m 0,0 -0.697,-1.393 -0.774,-1.78 -0.464,-0.85 -0.387,-0.775 -0.309,-0.619 -0.388,-0.387 -0.928,0.774 -1.006,0.697 -1.084,0.541 -1.16,0.465 -1.239,0.309 -1.238,0.31 -1.238,0.232 -1.316,0.155 -2.708,0.232 -2.709,0.077 -2.631,0.155 -2.476,0.309 -1.393,0.233 -1.315,0.309 -0.697,0.233 -0.697,0.232 -0.619,0.31 -0.542,0.309 -0.851,0.541 -0.851,0.619 -0.929,0.697 -0.851,0.774 -1.78,1.702 -1.78,1.703 -1.779,1.625 -1.626,1.47 -0.773,0.542 -0.774,0.542 -0.697,0.31 -0.696,0.232 -1.316,0.31 -1.161,0.386 -1.161,0.387 -1.161,0.542 -1.006,0.464 -1.005,0.619 -0.929,0.619 -0.852,0.619 -0.928,0.697 -0.774,0.697 -0.774,0.773 -0.774,0.774 -1.47,1.626 -1.393,1.702 -2.786,3.637 -2.941,3.714 -1.702,1.781 -1.78,1.779 -1.006,0.929 -1.006,0.851 -1.084,0.774 -1.16,0.851 -0.233,-0.077 -0.232,-0.232 -0.232,-0.31 -0.155,-0.387 -0.232,-0.696 -0.077,-0.31 -0.542,0.233 -0.464,0.231 -0.542,0.233 -0.464,0.155 h -1.006 l -0.542,-0.155 -0.542,-0.233 0.542,-0.696 0.696,-0.929 0.697,-1.083 0.619,-1.161 0.619,-1.238 0.464,-1.16 0.155,-0.619 0.155,-0.465 0.077,-0.542 v -0.464 h -0.851 -3.327 l 0.619,-0.929 0.696,-0.928 0.774,-0.929 0.851,-0.852 0.852,-0.85 0.851,-0.852 0.851,-0.696 0.774,-0.542 -0.851,-0.077 -1.161,-0.077 -1.161,-0.156 -0.851,-0.077 0.696,-0.619 0.852,-0.619 0.928,-0.696 1.006,-0.698 1.006,-0.618 1.006,-0.542 0.929,-0.309 0.851,-0.233 0.387,-0.077 0.31,-0.077 0.232,-0.078 0.155,-0.155 0.077,-0.077 v -0.309 l -0.077,-0.156 -0.155,-0.463 -0.078,-0.465 -0.077,-0.31 v -0.231 l 0.077,-0.388 0.078,-0.31 0.155,-0.154 0.232,-0.155 0.309,-0.154 0.387,-0.078 0.387,-0.155 0.387,-0.154 0.387,-0.155 0.31,-0.233 0.077,-0.077 V 9.597 l -0.077,-0.078 -0.31,-0.232 -0.309,-0.232 -0.31,-0.31 -0.31,-0.387 V 8.049 l -0.077,-0.31 0.077,-0.386 0.078,-0.465 1.315,-0.464 1.394,-0.465 0.619,-0.154 0.619,-0.233 0.464,-0.232 0.387,-0.232 -2.554,-2.012 0.696,-0.619 0.852,-0.464 1.083,-0.542 1.084,-0.387 1.238,-0.387 1.16,-0.232 1.007,-0.233 h 0.929 l -0.852,-0.619 -1.084,-0.696 -1.16,-0.619 -0.851,-0.619 0.774,-0.542 1.083,-0.541 1.238,-0.619 1.471,-0.698 3.404,-1.469 3.715,-1.471 3.869,-1.393 3.792,-1.238 1.703,-0.542 1.548,-0.387 1.392,-0.386 1.239,-0.233 -2.476,0.233 -2.322,0.309 -2.322,0.387 -2.166,0.464 -2.167,0.619 -2.09,0.619 -2.012,0.696 -1.934,0.775 -3.792,1.548 -3.561,1.547 -1.702,0.697 -1.702,0.696 -1.626,0.619 -1.625,0.619 0.387,0.233 0.465,0.154 0.618,0.232 0.697,0.155 1.47,0.465 1.316,0.463 -2.321,0.388 -3.173,0.619 -1.548,0.464 -1.316,0.387 -0.542,0.232 -0.464,0.233 -0.387,0.231 -0.232,0.233 v 0.077 l 0.078,0.078 0.231,0.077 0.233,0.154 0.619,0.233 0.851,0.232 1.858,0.542 1.547,0.541 -3.792,0.697 -2.941,0.464 -1.083,0.233 -0.851,0.309 -0.31,0.155 -0.309,0.232 -0.232,0.154 -0.155,0.233 0.232,0.155 0.696,0.154 1.007,0.156 1.16,0.231 1.239,0.155 1.083,0.31 0.542,0.154 0.464,0.155 0.309,0.233 0.31,0.231 -0.619,0.233 -0.619,0.232 -0.774,0.154 -0.774,0.156 -1.78,0.231 -1.78,0.233 -0.928,0.232 -0.851,0.154 -0.852,0.31 -0.851,0.309 -0.774,0.388 -0.696,0.541 -0.619,0.542 -0.465,0.696 0.155,0.078 0.31,0.078 h 0.386 l 0.619,-0.078 1.394,-0.078 1.547,-0.077 1.703,-0.155 h 2.166 l 0.62,0.078 0.464,0.154 0.31,0.156 -1.858,0.773 -2.476,1.084 -1.393,0.696 -1.471,0.697 -1.47,0.773 -1.47,0.775 -1.393,0.851 -1.316,0.928 -1.238,0.929 -1.083,0.928 -0.465,0.542 -0.464,0.465 -0.31,0.464 -0.309,0.542 -0.31,0.464 -0.155,0.542 -0.077,0.464 -0.077,0.542 h 0.542 l 0.619,-0.077 0.619,-0.233 0.619,-0.232 1.238,-0.774 1.393,-0.773 0.619,-0.388 0.697,-0.387 0.696,-0.309 0.619,-0.233 0.697,-0.154 0.619,-0.077 h 0.696 l 0.62,0.231 -1.858,1.394 -2.089,1.779 -2.399,2.09 -2.4,2.321 -2.398,2.477 -2.245,2.476 -1.005,1.316 -1.007,1.238 -0.851,1.238 -0.774,1.162 -0.155,0.309 v 0.541 l 0.078,0.233 0.077,0.232 0.233,0.154 0.232,0.233 0.231,0.154 0.31,0.078 0.31,0.077 h 0.619 l 0.387,-0.077 0.31,-0.078 0.309,-0.231 0.232,-0.233 1.393,-1.392 1.625,-1.625 1.703,-1.781 1.857,-1.78 1.857,-1.625 1.858,-1.548 0.928,-0.619 0.851,-0.541 0.929,-0.465 0.852,-0.309 -0.62,0.386 -0.696,0.698 -0.929,0.927 -1.006,1.162 -2.244,2.708 -2.477,3.173 -1.238,1.702 -1.161,1.703 -1.083,1.703 -1.084,1.625 -0.928,1.548 -0.774,1.393 -0.542,1.315 -0.464,1.084 -0.077,0.386 v 0.619 l 0.077,0.233 0.155,0.232 0.155,0.232 0.154,0.155 0.233,0.154 0.541,0.155 0.465,0.155 h 1.083 l 0.31,-0.077 0.232,-0.078 0.309,-0.155 0.233,-0.232 0.619,-0.541 0.619,-0.774 1.392,-1.78 1.471,-2.244 1.702,-2.399 1.781,-2.477 0.928,-1.16 0.929,-1.161 1.006,-1.006 1.083,-0.929 -1.316,2.554 -1.47,2.94 -0.774,1.625 -0.696,1.626 -0.697,1.702 -0.619,1.703 -0.541,1.78 -0.542,1.702 -0.387,1.703 -0.31,1.702 -0.154,1.625 -0.078,1.548 0.078,0.774 0.077,0.696 0.077,0.697 0.155,0.696 0.155,0.233 0.078,0.232 0.231,0.232 0.155,0.155 0.542,0.232 0.542,0.155 h 0.541 l 0.465,-0.078 0.232,-0.077 0.155,-0.078 0.077,-0.154 0.078,-0.232 0.774,-2.477 0.696,-2.631 0.696,-2.708 0.697,-2.632 0.696,-2.631 0.929,-2.476 0.464,-1.161 0.542,-1.161 0.619,-1.083 0.697,-1.083 -0.465,2.243 -0.309,2.012 -0.31,1.858 -0.155,1.703 -0.154,1.47 -0.078,1.315 0.078,1.084 0.077,0.928 0.155,0.774 0.232,0.619 0.155,0.232 0.154,0.233 0.155,0.155 0.232,0.154 0.233,0.078 h 0.696 l 0.619,-0.232 0.619,-0.31 0.542,-2.477 0.542,-2.398 0.619,-2.245 0.696,-2.167 0.774,-2.166 0.851,-2.167 0.929,-2.244 1.083,-2.244 0.774,-1.471 0.774,-1.471 0.851,-1.47 0.852,-1.47 0.929,-1.393 0.928,-1.393 1.006,-1.393 1.006,-1.393 1.857,-2.322 1.935,-2.167 2.012,-2.166 2.09,-2.012 2.167,-2.012 2.244,-1.858 2.321,-1.78 2.399,-1.702 1.625,-1.083 1.703,-1.007 1.78,-1.006 1.702,-0.928 2.709,-1.316 2.631,-1.238 2.786,-1.083 2.786,-1.006 2.631,-0.852 2.709,-0.696 2.786,-0.619 2.708,-0.542 L -8.512,0.697 -5.727,0.388 -2.863,0.155 0,0.001"
       style="fill:#fec50c;fill-opacity:1;fill-rule:nonzero;stroke:none"
       transform="matrix(1.3333333,0,0,-1.3333333,320.98693,261.98053)"
       clip-path="url(#clipPath71)" />
    <path
       id="path72"
       d="m 0,0 1.315,-0.155 0.62,-0.232 0.154,-0.078 V -0.542 H 1.935 L 1.78,-0.619 0.542,-0.852 h -1.006 l -3.25,0.233 -3.947,0.077 -4.256,0.077 -4.412,-0.077 -2.089,-0.077 -2.09,-0.155 -1.857,-0.155 -1.78,-0.155 -1.47,-0.231 -1.316,-0.31 -0.465,-0.155 -0.464,-0.155 -0.387,-0.155 -0.309,-0.232 0.155,0.774 0.309,0.774 -0.541,-0.155 -0.542,-0.155 -0.465,-0.231 -0.464,-0.233 -0.387,-0.232 -0.309,-0.31 -0.233,-0.387 -0.077,-0.386 -0.232,0.541 -0.155,0.465 -0.077,0.542 -0.077,0.463 0.077,0.387 0.077,0.465 0.078,0.387 0.232,0.386 0.154,0.31 0.31,0.387 0.309,0.309 0.31,0.31 0.852,0.542 0.928,0.542 c 0.501,-0.305 1.065,-0.525 1.625,-0.696 0.486,-0.065 1.063,0.013 1.625,0.154 0.945,-0.832 2.208,-0.73 3.018,0.155 0.148,0.161 0.327,0.408 0.387,0.619 0.128,0.447 0.104,1.031 0,1.547 l 0.929,0.078 1.083,0.155 1.161,0.309 1.238,0.31 1.238,0.232 1.161,0.31 1.084,0.154 0.928,0.078 -0.386,-0.309 -0.929,-0.698 -1.084,-0.85 -0.774,-0.542 1.007,-0.233 0.851,-0.154 -0.619,-0.696 -0.619,-0.698 -0.62,-0.696 -0.464,-0.619 0.619,-0.232 0.619,-0.155 0.697,-0.154 h 1.393 l 0.697,0.154 0.696,0.155 0.542,0.309 0.619,-0.309 L -9.983,0.619 -9.364,0.464 -8.745,0.31 -7.352,0.154 -5.882,0 H 0"
       style="fill:#fec50c;fill-opacity:1;fill-rule:nonzero;stroke:none"
       transform="matrix(1.3333333,0,0,-1.3333333,330.38667,293.3476)"
       clip-path="url(#clipPath73)" />
    <path
       id="path74"
       d="M 0,0 0.232,-0.078 0.464,-0.155 0.542,-0.388 0.619,-0.619 0.542,-0.852 0.464,-1.084 0.232,-1.238 H -0.31 l -0.154,0.154 -0.155,0.232 -0.077,0.233 0.077,0.231 0.155,0.233 0.154,0.077 z"
       style="fill:#fec50c;fill-opacity:1;fill-rule:nonzero;stroke:none"
       transform="matrix(1.3333333,0,0,-1.3333333,298.7064,287.46747)"
       clip-path="url(#clipPath75)" />
    <path
       id="path76"
       d="M 0,0 0.155,-0.077 0.232,-0.232 0.155,-0.387 0,-0.464 l -0.155,0.077 -0.077,0.155 0.077,0.155 z"
       style="fill:#fec50c;fill-opacity:1;fill-rule:nonzero;stroke:none"
       transform="matrix(1.3333333,0,0,-1.3333333,298.58653,287.88027)"
       clip-path="url(#clipPath77)" />
    <path
       id="path78"
       d="m 0,0 c -0.392,-0.001 -0.71,0.317 -0.71,0.709 0,0.392 0.318,0.71 0.71,0.709 C 0.392,1.419 0.71,1.101 0.71,0.709 0.71,0.317 0.392,-0.001 0,0"
       style="fill:#fec50c;fill-opacity:1;fill-rule:nonzero;stroke:none"
       transform="matrix(1.3333333,0,0,-1.3333333,298.66667,289.29947)"
       clip-path="url(#clipPath79)" />
    <path
       id="path80"
       d="m 0,0 1.78,-0.774 0.465,0.387 0.619,0.464 0.696,0.387 0.619,0.387 2.322,0.928 2.012,0.929 1.006,0.388 0.851,0.464 0.851,0.464 0.697,0.464 1.78,1.161 1.78,1.161 1.702,1.084 1.548,1.083 1.161,0.928 0.928,0.852 1.006,0.929 1.084,1.005 0.387,0.387 0.464,0.31 0.542,0.309 0.619,0.31 1.315,0.619 1.316,0.465 1.78,0.464 1.935,0.464 2.012,0.387 2.244,0.387 2.708,0.31 2.709,0.386 2.786,0.31 2.709,0.465 0.928,0.154 0.851,0.232 0.929,0.233 0.929,0.231 0.929,1.161 1.47,1.625 1.006,1.006 1.161,0.929 1.315,1.006 1.548,1.006 2.321,1.393 2.477,1.239 2.554,1.315 2.476,1.161 2.322,1.16 2.166,1.084 1.781,0.929 1.392,0.929 0.387,1.16 0.542,1.161 0.697,1.161 0.851,1.16 0.929,1.239 1.16,1.238 1.238,1.393 1.548,1.47 1.393,1.238 1.47,1.239 0.775,0.542 0.773,0.541 0.852,0.464 0.851,0.464 0.851,0.388 0.851,0.31 0.929,0.231 0.852,0.232 0.928,0.078 0.851,0.078 0.929,-0.078 0.851,-0.155 -0.077,-0.928 -0.232,-0.929 -0.31,-0.929 -0.387,-1.006 -0.542,-1.006 -0.696,-1.006 -0.852,-1.083 -1.005,-1.083 0.773,0.077 0.697,0.154 0.541,0.155 0.542,0.233 0.465,0.154 0.541,0.155 0.697,0.077 0.774,0.078 0.077,-0.542 v -0.541 l -0.077,-0.542 -0.155,-0.465 -0.232,-0.464 -0.309,-0.465 -0.31,-0.387 -0.387,-0.386 -1.626,-1.548 -1.625,-1.471 0.929,-0.077 1.006,-0.31 1.007,-0.309 0.773,-0.154 -0.929,-0.697 -1.083,-0.697 -1.084,-0.696 -1.238,-0.697 -1.238,-0.696 -1.238,-0.774 -1.238,-0.851 -1.161,-0.929 0.542,-0.078 0.696,-0.308 0.31,-0.078 0.31,-0.155 0.231,-0.077 0.232,0.077 -1.547,-0.851 -1.935,-0.929 -0.929,-0.464 -0.773,-0.465 -0.387,-0.232 -0.232,-0.232 -0.156,-0.232 -0.154,-0.232 0.077,-0.31 0.156,-0.231 0.309,-0.233 0.232,-0.232 -0.078,-0.31 -0.154,-0.232 -0.309,-0.232 -0.31,-0.232 -0.697,-0.387 -0.929,-0.387 -0.928,-0.309 -0.851,-0.31 -0.619,-0.309 -0.465,-0.233 1.548,-1.548 -0.542,-0.542 -0.541,-0.386 -0.465,-0.233 -0.541,-0.231 -1.084,-0.155 h -1.471 l 0.155,-0.697 0.233,-0.696 0.154,-0.774 L 75.53,15.787 74.214,14.781 72.589,13.62 70.81,12.459 68.797,11.299 67.637,10.68 66.476,10.138 65.238,9.673 63.922,9.209 62.529,8.744 61.059,8.436 59.511,8.126 57.886,7.894 60.749,7.816 h 2.477 l 2.321,0.232 2.09,0.232 1.934,0.387 1.703,0.465 1.702,0.619 1.626,0.619 2.166,1.006 2.09,1.161 2.012,1.237 2.089,1.239 -1.238,0.619 -1.238,0.388 -0.619,0.231 -0.619,0.31 -0.697,0.309 -0.696,0.387 0.619,0.465 0.696,0.309 0.852,0.31 0.928,0.232 1.858,0.387 1.934,0.232 1.702,0.232 1.548,0.155 0.619,0.154 0.542,0.156 0.31,0.154 0.232,0.232 -0.078,0.078 -0.154,0.155 -0.232,0.077 -0.31,0.154 -0.852,0.156 -1.083,0.154 -1.083,0.078 -1.084,0.154 -0.928,0.233 -0.619,0.232 2.089,0.464 2.089,0.465 1.858,0.387 1.548,0.386 1.315,0.387 1.161,0.465 0.542,0.231 0.387,0.233 0.387,0.232 0.309,0.31 -0.077,0.077 -0.155,0.155 -0.31,0.077 -0.387,0.077 -1.005,0.078 h -1.162 l -1.238,0.078 -1.16,0.077 -1.006,0.154 -0.619,0.155 0.541,0.233 0.542,0.231 1.857,0.542 1.625,0.464 1.471,0.388 1.393,0.464 1.47,0.465 1.47,0.619 0.697,0.386 0.62,0.387 0.231,0.233 0.232,0.309 0.233,0.232 0.077,0.232 -0.077,0.232 -0.233,0.155 -0.232,0.078 h -2.166 l -1.007,-0.078 h -1.392 l -0.387,0.078 -0.31,0.154 -0.309,0.155 3.094,2.012 2.865,1.858 2.553,1.625 2.245,1.547 0.928,0.774 0.851,0.774 0.697,0.774 0.619,0.774 0.464,0.851 0.387,0.851 0.232,0.929 v 1.006 h -0.542 l -0.541,-0.077 -0.619,-0.233 -0.619,-0.231 -1.238,-0.775 -1.316,-0.773 -0.697,-0.388 -0.619,-0.387 -0.696,-0.309 -0.697,-0.232 -0.619,-0.155 -0.619,-0.077 h -0.696 l -0.619,0.232 1.857,1.393 2.089,1.779 2.399,2.09 2.399,2.321 2.399,2.477 2.244,2.477 1.006,1.315 1.007,1.238 0.85,1.239 0.775,1.161 0.154,0.309 0.077,0.232 -0.077,0.309 -0.077,0.233 -0.077,0.232 -0.233,0.154 -0.232,0.233 -0.232,0.077 -0.31,0.155 -0.309,0.077 h -0.619 l -0.309,-0.077 -0.388,-0.077 -0.231,-0.232 -0.31,-0.233 -1.393,-1.392 -1.625,-1.625 -1.703,-1.781 -1.857,-1.78 -1.857,-1.625 -1.858,-1.548 -0.929,-0.619 -0.851,-0.541 -0.929,-0.465 -0.773,-0.386 0.542,0.463 0.696,0.698 0.929,0.928 1.006,1.161 2.244,2.709 2.476,3.172 1.239,1.703 1.161,1.702 1.16,1.626 1.006,1.702 0.928,1.548 0.775,1.393 0.619,1.315 0.387,1.084 0.077,0.386 v 0.62 l -0.077,0.232 -0.156,0.232 -0.154,0.232 -0.154,0.155 -0.233,0.077 -0.464,0.233 -0.542,0.154 h -1.083 l -0.31,-0.077 -0.232,-0.077 -0.31,-0.155 -0.232,-0.232 -0.619,-0.542 -0.619,-0.774 -1.393,-1.78 -1.47,-2.244 -1.625,-2.399 -1.78,-2.477 -1.006,-1.16 -0.929,-1.161 -1.006,-1.006 -1.084,-0.929 1.394,2.554 1.392,2.94 0.774,1.625 0.697,1.626 0.696,1.703 0.62,1.702 0.541,1.78 0.542,1.702 0.386,1.703 0.31,1.702 0.155,1.625 0.077,1.548 -0.077,0.774 -0.077,0.696 -0.078,0.697 -0.154,0.697 -0.078,0.232 -0.155,0.232 -0.232,0.232 -0.155,0.155 -0.542,0.232 -0.541,0.155 h -0.542 l -0.464,-0.077 -0.155,-0.078 -0.232,-0.077 -0.077,-0.155 -0.077,-0.232 -0.775,-2.554 -0.696,-2.554 -0.696,-2.708 -0.697,-2.632 -0.697,-2.631 -0.929,-2.476 -0.464,-1.238 -0.542,-1.084 -0.619,-1.16 -0.696,-1.006 0.465,2.244 0.309,2.012 0.31,1.857 0.154,1.703 0.155,1.47 0.078,1.316 -0.078,1.083 -0.078,0.928 -0.154,0.774 -0.232,0.62 -0.156,0.232 -0.154,0.232 -0.154,0.155 -0.233,0.077 -0.232,0.077 -0.232,0.078 h -0.232 l -0.232,-0.078 -0.619,-0.154 -0.62,-0.31 -0.542,-2.476 -0.541,-2.399 -0.619,-2.244 -0.697,-2.167 -0.773,-2.167 -0.852,-2.167 -0.929,-2.244 -1.083,-2.244 -0.774,-1.471 -0.774,-1.47 L 85.59,55.642 84.739,54.171 83.811,52.778 82.882,51.385 81.876,49.992 80.87,48.6 79.012,46.277 77.078,44.11 75.065,41.944 72.976,39.932 70.809,37.92 68.565,36.063 66.243,34.282 63.844,32.58 62.219,31.497 60.517,30.413 58.814,29.407 57.111,28.401 54.403,27.163 51.694,25.925 48.909,24.919 46.123,23.913 43.801,23.217 41.479,22.52 39.081,21.979 36.681,21.437 34.282,21.05 31.806,20.74 29.407,20.431 26.931,20.275 26.698,20.198 26.466,20.121 26.002,19.889 25.46,19.502 24.686,18.806 23.68,17.877 22.442,16.639 20.972,15.014 19.579,13.389 17.954,11.608 17.102,10.757 16.251,9.906 15.245,9.132 14.239,8.358 13.465,7.816 12.691,7.352 11.84,6.965 10.989,6.578 9.131,5.805 7.274,5.107 5.417,4.411 3.792,3.792 3.095,3.482 2.398,3.096 1.779,2.786 1.315,2.477 0.851,2.013 0.464,1.625 0.232,1.238 0.077,0.852 0,0.31 V 0 m 62.221,-7.274 -0.542,-0.233 -0.542,-0.077 -0.464,-0.077 -0.387,0.077 -0.387,0.077 -0.387,0.154 -0.309,0.156 -0.388,0.232 -0.619,0.464 -0.619,0.465 -0.309,0.231 -0.387,0.156 -0.31,0.077 h -0.386 l -0.697,-1.471 -0.929,-1.856 -0.309,-0.465 -0.31,-0.387 -0.31,-0.232 -0.309,-0.233 -0.387,-0.154 h -0.387 l -0.387,0.154 -0.464,0.233 -0.155,0.232 -0.155,0.232 -0.155,0.31 -0.154,0.387 -0.155,0.696 -0.077,0.465 -0.465,-0.388 -0.464,-0.541 -0.387,-0.619 -0.465,-0.697 -0.541,-0.697 -0.542,-0.542 -0.309,-0.308 -0.387,-0.233 -0.387,-0.155 -0.464,-0.154 h -0.233 l -0.387,-0.077 -0.387,0.077 -0.309,0.154 -0.929,1.084 -1.006,1.083 -0.696,-1.083 -0.774,-0.929 -0.387,-0.386 -0.387,-0.388 -0.387,-0.31 -0.387,-0.231 -0.31,-0.155 -0.386,-0.077 h -0.387 l -0.31,0.077 -0.31,0.155 -0.232,0.231 -0.309,0.388 -0.155,0.464 -0.155,0.465 -0.309,0.773 -0.078,0.387 -0.155,0.31 -0.154,0.155 H 36.76 l -2.09,-3.405 -0.309,-0.31 -0.542,-0.232 -0.619,-0.155 -0.619,-0.155 h -0.696 l -0.542,0.155 -0.155,0.077 -0.232,0.233 -0.078,0.154 v 0.31 l 0.31,3.405 -0.232,-0.077 -0.31,-0.155 -0.309,-0.155 -0.31,-0.309 -0.619,-0.697 -0.697,-0.774 -0.696,-0.852 -0.851,-0.696 -0.387,-0.309 -0.387,-0.31 -0.464,-0.231 -0.387,-0.079 -0.542,-0.077 -0.387,0.077 -0.154,0.079 -0.155,0.154 -0.078,0.232 v 0.232 l 0.078,1.007 0.155,1.005 0.077,0.542 -0.077,0.464 -0.078,0.464 -0.31,0.542 -0.464,-0.696 -0.774,-1.006 -0.929,-1.006 -1.005,-1.007 -0.542,-0.386 -0.542,-0.387 -0.464,-0.154 -0.387,-0.156 -0.155,0.077 h -0.232 l -0.155,0.156 -0.077,0.077 -0.155,0.232 -0.078,0.232 v 0.309 l -0.077,0.388 0.077,2.94 -1.934,-1.315 -2.321,-1.471 -0.542,-0.232 -0.62,-0.31 -0.541,-0.154 -0.619,-0.155 -0.542,-0.155 h -0.542 l -0.541,0.078 -0.465,0.155 0.232,0.619 0.233,0.541 0.232,0.542 0.309,0.465 0.31,0.464 0.309,0.465 0.388,0.386 0.386,0.387 0.851,0.619 1.007,0.619 1.006,0.464 1.16,0.388 1.161,0.309 1.316,0.232 1.315,0.232 1.316,0.156 2.863,0.154 2.941,0.077 h 5.882 l 1.47,0.078 1.393,0.077 1.393,0.077 1.315,0.156 1.316,0.231 1.161,0.233 1.161,0.309 1.083,0.464 1.006,0.465 0.852,0.619 0.851,0.619 0.696,0.852 -0.774,1.547 0.619,0.078 0.619,0.154 0.619,0.31 0.542,0.386 0.232,0.156 0.233,0.232 0.155,0.31 0.154,0.231 0.078,0.31 v 0.542 l -0.155,0.309 1.315,0.233 1.393,0.154 1.47,0.077 h 1.548 l 3.173,-0.154 3.251,-0.233 3.327,-0.386 3.25,-0.31 3.173,-0.31 2.941,-0.154 V 0.077 l -0.078,-0.464 -0.154,-0.465 -0.155,-0.463 -0.155,-0.388 -0.232,-0.31 -0.309,-0.386 -0.542,-0.541 -0.697,-0.465 -0.697,-0.31 -0.773,-0.154 -0.852,-0.155 -0.851,0.077 -0.774,0.078 -0.851,0.231 -0.774,0.388 -0.773,0.387 -0.62,0.541 -0.619,0.619 V -3.019 L 63.381,-4.721 63.226,-5.572 62.994,-6.346 62.839,-6.655 62.607,-6.888 62.452,-7.12 62.22,-7.274"
       style="fill:#fec50c;fill-opacity:1;fill-rule:nonzero;stroke:none"
       transform="matrix(1.3333333,0,0,-1.3333333,292.586,288.7044)"
       clip-path="url(#clipPath81)" />
    <path
       id="path82"
       d="m 0,0 c -0.16,0 -0.29,0.13 -0.29,0.29 0,0.159 0.13,0.289 0.29,0.289 0.16,0 0.29,-0.13 0.29,-0.289 C 0.29,0.13 0.16,0 0,0"
       style="fill:#fec50c;fill-opacity:1;fill-rule:nonzero;stroke:#00afca;stroke-width:0.381;stroke-linecap:butt;stroke-linejoin:miter;stroke-miterlimit:4;stroke-dasharray:none;stroke-opacity:1"
       transform="matrix(1.3333333,0,0,-1.3333333,298.58653,288.58853)"
       clip-path="url(#clipPath83)" />
    <path
       id="path84"
       d="m 0,0 c 0,0 -2.883,-2.423 -3.862,-1.208 -1.575,1.955 4.841,11.69 4.841,15.119 0,5.628 -3.754,7.158 -8.391,7.962 -3.111,0.539 -8.178,-0.226 -8.178,-0.226 0.954,-1.282 1.574,-1.66 3.182,-1.762 -1.79,-0.929 -3.612,-2.946 -3.612,-6.085 0,-4.841 1.993,-6.837 1.993,-12.295 0,-3.027 -2.483,-6.882 -2.483,-6.882 4.389,0.439 6.564,4.503 5.326,7.75 0.699,0.101 1.333,-0.057 1.878,-0.573 0.321,0.9 -0.186,1.945 -0.865,2.846 0.547,0.291 0.949,0.116 1.82,-0.064 -0.083,0.928 -0.639,1.913 -1.998,2.841 3.945,-1.025 6.373,1.725 6.373,4.603 0,2.175 -1.524,3.734 -3.013,3.734 -0.482,0 -1.189,-0.198 -1.588,-0.496 -0.281,0.598 -0.136,1.399 0.154,1.998 -1.092,-0.289 -1.785,-0.938 -1.291,-2.287 -0.839,-0.078 -1.506,-0.361 -1.96,-0.9 0.46,-0.589 1.157,-0.928 1.96,-0.9 -0.611,-1.26 0.069,-1.965 1.061,-2.537 0,0 -0.631,2.537 0.979,2.537 0.724,0 1.384,-0.237 1.384,-1.303 0,-0.93 -0.812,-2.216 -2.689,-2.135 -1.878,0.082 -3.4,1.295 -3.4,4.292 0,2.765 2.23,4.14 5.168,4.229 2.65,0.082 4.65,-1.354 4.65,-4.087 0,-3.639 -5.252,-11.933 -5.252,-15.175 0,-2.433 2.188,-3.79 4.328,-3.79 2.776,0 5.117,2.748 5.117,2.748 l -1.63,2.045 z"
       style="fill:#fec50c;fill-opacity:1;fill-rule:nonzero;stroke:none"
       transform="matrix(1.3333333,0,0,-1.3333333,48,370.83067)"
       clip-path="url(#clipPath85)" />
    <path
       id="path86"
       d="m 0,0 c 0,6.081 5.459,9.206 9.749,9.206 5.78,0 8.857,-3.455 8.857,-7.978 0,-2.565 -0.47,-4.174 -1.652,-6.628 0,0 -9.534,-19.828 -13.246,-27.496 -0.463,-0.957 -0.612,-2.045 -0.612,-3.642 0,-2.465 2.391,-4.48 4.898,-4.541 2.285,-0.058 4.776,2.13 4.776,4.623 0,3.028 -1.571,4.378 -3.184,4.378 -1.985,0 -2.776,-0.816 -2.776,-2.209 0,-0.972 0.469,-1.392 1.143,-1.392 1.702,0 1.225,2.291 1.225,2.291 0.845,-0.184 1.54,-1.049 1.142,-2.127 0.619,-0.137 1.199,-0.463 1.654,-0.982 -0.457,-0.442 -0.98,-0.784 -1.654,-0.9 0.399,-1.316 -0.133,-1.959 -1.285,-2.23 0.232,0.506 0.24,0.972 0.163,1.411 -1.813,-0.515 -4.592,0.306 -4.592,3.438 0,3.109 2.158,5.727 6.205,5.073 -0.963,0.46 -1.453,1.402 -1.551,2.455 0.734,-0.286 1.551,-0.327 1.551,-0.327 -0.474,0.834 -1.131,1.553 -1.103,3.191 0.751,-0.341 1.447,-0.972 2.409,-0.573 -1.509,2.97 0.344,7.054 5.061,8.02 -1.726,-2.024 -2.572,-4.208 -2.572,-6.383 0,-7.049 1.96,-8.234 1.96,-13.134 0,-2.051 -1.054,-4.265 -3.143,-5.77 v 0.082 c 1.381,-0.37 2.265,-1.049 2.773,-1.973 -3.154,-0.895 -7.739,-0.878 -10.202,0.091 -2.83,0.328 -4.805,2.499 -5.388,3.601 -0.582,1.101 -1.712,5.086 0,8.673 1.875,3.927 10.714,22.668 13.47,28.56 0.584,1.25 0.939,2.575 0.939,4.009 0,3.61 -3.307,4.87 -5.184,4.87 -2.245,0 -4.531,-1.71 -4.531,-3.846 0,-1.354 0.735,-2.169 1.796,-2.169 2.538,0 2.383,2.159 1.878,3.518 1.579,-0.71 2.497,-1.977 2.245,-3.313 0.894,-0.123 1.745,-0.547 2.53,-1.433 -0.618,-0.78 -1.372,-1.37 -2.53,-1.39 0.506,-2.075 -0.883,-2.951 -2.245,-3.438 0.431,1.523 0.714,3.274 -1.878,3.274 -1.889,0 -3.377,0.327 -4.245,1.554 C 2.8,-3.192 2.647,-9.657 2.647,-9.657 c -0.109,-2.429 3.252,-2.36 5.388,-1.637 -0.806,-2.798 -2.459,-4.31 -6.286,-3.928 0.929,-0.388 1.918,-1.262 1.918,-2.945 0,-2.278 -1.848,-4.802 -3.061,-5.548 L -0.001,0 Z"
       style="fill:#fec50c;fill-opacity:1;fill-rule:nonzero;stroke:none"
       transform="matrix(1.3333333,0,0,-1.3333333,47.191467,283.14587)"
       clip-path="url(#clipPath87)" />
    <path
       id="path88"
       d="m 0,0 c 0,6.081 -5.459,9.206 -9.749,9.206 -5.78,0 -8.857,-3.455 -8.857,-7.978 0,-2.565 0.47,-4.174 1.652,-6.628 0,0 9.534,-19.828 13.246,-27.496 0.463,-0.957 0.612,-2.045 0.612,-3.642 0,-2.465 -2.391,-4.48 -4.898,-4.541 -2.285,-0.058 -4.776,2.13 -4.776,4.623 0,3.028 1.571,4.378 3.184,4.378 1.985,0 2.776,-0.816 2.776,-2.209 0,-0.972 -0.469,-1.392 -1.143,-1.392 -1.702,0 -1.225,2.291 -1.225,2.291 -0.845,-0.184 -1.54,-1.049 -1.142,-2.127 -0.619,-0.137 -1.199,-0.463 -1.654,-0.982 0.457,-0.442 0.98,-0.784 1.654,-0.9 -0.399,-1.316 0.133,-1.959 1.285,-2.23 -0.232,0.506 -0.24,0.972 -0.163,1.411 1.813,-0.515 4.592,0.306 4.592,3.438 0,3.109 -2.158,5.727 -6.205,5.073 0.963,0.46 1.453,1.402 1.551,2.455 -0.734,-0.286 -1.551,-0.327 -1.551,-0.327 0.474,0.834 1.131,1.553 1.103,3.191 -0.75,-0.341 -1.447,-0.972 -2.409,-0.573 1.509,2.97 -0.344,7.054 -5.061,8.02 1.726,-2.024 2.572,-4.208 2.572,-6.383 0,-7.049 -1.96,-8.234 -1.96,-13.134 0,-2.051 1.054,-4.265 3.143,-5.77 v 0.082 c -1.381,-0.37 -2.265,-1.049 -2.773,-1.973 3.154,-0.895 7.739,-0.878 10.202,0.091 2.83,0.328 4.805,2.499 5.388,3.601 0.582,1.101 1.712,5.086 0,8.673 -1.875,3.927 -10.714,22.668 -13.47,28.56 -0.584,1.25 -0.939,2.575 -0.939,4.009 0,3.61 3.307,4.87 5.184,4.87 2.245,0 4.531,-1.71 4.531,-3.846 0,-1.354 -0.735,-2.169 -1.796,-2.169 -2.538,0 -2.383,2.159 -1.878,3.518 -1.579,-0.71 -2.497,-1.977 -2.245,-3.313 -0.894,-0.123 -1.745,-0.547 -2.53,-1.433 0.618,-0.78 1.372,-1.37 2.53,-1.39 -0.506,-2.075 0.883,-2.951 2.245,-3.438 -0.431,1.523 -0.714,3.274 1.878,3.274 1.889,0 3.377,0.327 4.245,1.554 0.051,-1.636 0.204,-8.101 0.204,-8.101 0.109,-2.429 -3.252,-2.36 -5.388,-1.637 0.806,-2.798 2.459,-4.31 6.286,-3.928 -0.929,-0.388 -1.918,-1.262 -1.918,-2.945 0,-2.278 1.848,-4.802 3.061,-5.548 L 0.001,0 Z"
       style="fill:#fec50c;fill-opacity:1;fill-rule:nonzero;stroke:none"
       transform="matrix(1.3333333,0,0,-1.3333333,48.808533,283.14587)"
       clip-path="url(#clipPath89)" />
    <path
       id="path90"
       d="m 0,0 c 0,0 2.883,-2.423 3.862,-1.208 1.575,1.955 -4.841,11.69 -4.841,15.119 0,5.628 3.754,7.158 8.391,7.962 3.111,0.539 8.178,-0.226 8.178,-0.226 -0.954,-1.282 -1.574,-1.66 -3.182,-1.762 1.79,-0.929 3.612,-2.946 3.612,-6.085 0,-4.841 -1.993,-6.837 -1.993,-12.295 0,-3.027 2.483,-6.882 2.483,-6.882 -4.389,0.439 -6.564,4.503 -5.326,7.75 C 10.485,2.474 9.851,2.316 9.306,1.8 8.985,2.7 9.492,3.745 10.171,4.646 9.624,4.937 9.222,4.762 8.351,4.582 8.434,5.51 8.99,6.495 10.349,7.423 6.404,6.398 3.976,9.148 3.976,12.026 c 0,2.175 1.524,3.734 3.013,3.734 0.482,0 1.189,-0.198 1.588,-0.496 0.281,0.598 0.136,1.399 -0.154,1.998 1.092,-0.289 1.785,-0.938 1.291,-2.287 0.839,-0.078 1.506,-0.361 1.96,-0.9 -0.46,-0.589 -1.157,-0.928 -1.96,-0.9 0.611,-1.26 -0.069,-1.965 -1.061,-2.537 0,0 0.631,2.537 -0.979,2.537 -0.724,0 -1.384,-0.237 -1.384,-1.303 0,-0.93 0.812,-2.216 2.689,-2.135 1.878,0.082 3.4,1.295 3.4,4.292 0,2.765 -2.23,4.14 -5.168,4.229 -2.65,0.082 -4.65,-1.354 -4.65,-4.087 0,-3.639 5.252,-11.933 5.252,-15.175 0,-2.433 -2.188,-3.79 -4.328,-3.79 -2.776,0 -5.117,2.748 -5.117,2.748 l 1.63,2.045 z"
       style="fill:#fec50c;fill-opacity:1;fill-rule:nonzero;stroke:none"
       transform="matrix(1.3333333,0,0,-1.3333333,48,370.83067)"
       clip-path="url(#clipPath91)" />
    <path
       id="path92"
       d="m 0,0 c 0,6.081 5.459,9.207 9.749,9.207 5.78,0 8.857,-3.457 8.857,-7.98 0,-2.564 -0.47,-4.173 -1.652,-6.627 0,0 -9.534,-19.828 -13.246,-27.496 -0.463,-0.957 -0.612,-2.045 -0.612,-3.642 0,-2.465 2.391,-4.48 4.898,-4.542 2.285,-0.057 4.776,2.131 4.776,4.624 0,3.028 -1.571,4.378 -3.184,4.378 -1.985,0 -2.776,-0.816 -2.776,-2.21 0,-0.97 0.469,-1.391 1.143,-1.391 1.702,0 1.225,2.292 1.225,2.292 0.845,-0.185 1.54,-1.05 1.142,-2.128 0.619,-0.138 1.199,-0.463 1.654,-0.982 -0.457,-0.442 -0.98,-0.784 -1.654,-0.9 0.399,-1.316 -0.133,-1.959 -1.285,-2.23 0.232,0.506 0.24,0.972 0.163,1.412 -1.813,-0.516 -4.592,0.304 -4.592,3.437 0,3.109 2.158,5.727 6.205,5.073 -0.963,0.46 -1.453,1.402 -1.551,2.455 0.734,-0.287 1.551,-0.327 1.551,-0.327 -0.474,0.834 -1.131,1.553 -1.103,3.191 0.751,-0.341 1.447,-0.972 2.409,-0.573 -1.509,2.969 0.344,7.053 5.061,8.02 -1.726,-2.023 -2.572,-4.208 -2.572,-6.383 0,-7.049 1.96,-8.234 1.96,-13.135 0,-2.05 -1.054,-4.264 -3.143,-5.769 v 0.082 c 1.381,-0.37 2.265,-1.049 2.773,-1.973 -3.154,-0.895 -7.739,-0.878 -10.202,0.091 -2.83,0.327 -4.805,2.499 -5.388,3.601 -0.582,1.101 -1.712,5.086 0,8.674 1.875,3.926 10.714,22.667 13.47,28.559 0.584,1.25 0.939,2.575 0.939,4.009 0,3.61 -3.307,4.87 -5.184,4.87 C 7.586,5.687 5.3,3.977 5.3,1.84 c 0,-1.353 0.735,-2.168 1.796,-2.168 2.538,0 2.383,2.159 1.878,3.519 1.579,-0.71 2.497,-1.978 2.245,-3.315 0.894,-0.122 1.745,-0.546 2.53,-1.432 -0.618,-0.78 -1.372,-1.37 -2.53,-1.391 0.506,-2.073 -0.883,-2.95 -2.245,-3.436 0.431,1.521 0.714,3.273 -1.878,3.273 -1.889,0 -3.377,0.327 -4.245,1.554 C 2.8,-3.192 2.647,-9.657 2.647,-9.657 c -0.109,-2.429 3.252,-2.36 5.388,-1.636 -0.806,-2.799 -2.459,-4.312 -6.286,-3.929 0.929,-0.388 1.918,-1.262 1.918,-2.945 0,-2.278 -1.848,-4.802 -3.061,-5.548 L -0.001,0 Z"
       style="fill:#fec50c;fill-opacity:1;fill-rule:nonzero;stroke:none"
       transform="matrix(1.3333333,0,0,-1.3333333,47.191467,141.17773)"
       clip-path="url(#clipPath93)" />
    <path
       id="path94"
       d="m 0,0 c 0,6.081 -5.459,9.207 -9.749,9.207 -5.78,0 -8.857,-3.457 -8.857,-7.98 0,-2.564 0.47,-4.173 1.652,-6.627 0,0 9.534,-19.828 13.246,-27.496 0.463,-0.957 0.612,-2.045 0.612,-3.642 0,-2.465 -2.391,-4.48 -4.898,-4.542 -2.285,-0.057 -4.776,2.131 -4.776,4.624 0,3.028 1.571,4.378 3.184,4.378 1.985,0 2.776,-0.816 2.776,-2.21 0,-0.97 -0.469,-1.391 -1.143,-1.391 -1.702,0 -1.225,2.292 -1.225,2.292 -0.845,-0.185 -1.54,-1.05 -1.142,-2.128 -0.619,-0.138 -1.199,-0.463 -1.654,-0.982 0.457,-0.442 0.98,-0.784 1.654,-0.9 -0.399,-1.316 0.133,-1.959 1.285,-2.23 -0.232,0.506 -0.24,0.972 -0.163,1.412 1.813,-0.516 4.592,0.304 4.592,3.437 0,3.109 -2.158,5.727 -6.205,5.073 0.963,0.46 1.453,1.402 1.551,2.455 -0.734,-0.287 -1.551,-0.327 -1.551,-0.327 0.474,0.834 1.131,1.553 1.103,3.191 -0.75,-0.341 -1.447,-0.972 -2.409,-0.573 1.509,2.969 -0.344,7.053 -5.061,8.02 1.726,-2.023 2.572,-4.208 2.572,-6.383 0,-7.049 -1.96,-8.234 -1.96,-13.135 0,-2.05 1.054,-4.264 3.143,-5.769 v 0.082 c -1.381,-0.37 -2.265,-1.049 -2.773,-1.973 3.154,-0.895 7.739,-0.878 10.202,0.091 2.83,0.327 4.805,2.499 5.388,3.601 0.582,1.101 1.712,5.086 0,8.674 -1.875,3.926 -10.714,22.667 -13.47,28.559 -0.584,1.25 -0.939,2.575 -0.939,4.009 0,3.61 3.307,4.87 5.184,4.87 2.245,0 4.531,-1.71 4.531,-3.847 0,-1.353 -0.735,-2.168 -1.796,-2.168 -2.538,0 -2.383,2.159 -1.878,3.519 -1.579,-0.71 -2.497,-1.978 -2.245,-3.315 -0.894,-0.122 -1.745,-0.546 -2.53,-1.432 0.618,-0.78 1.372,-1.37 2.53,-1.391 -0.506,-2.073 0.883,-2.95 2.245,-3.436 -0.431,1.521 -0.714,3.273 1.878,3.273 1.889,0 3.377,0.327 4.245,1.554 0.051,-1.636 0.204,-8.101 0.204,-8.101 0.109,-2.429 -3.252,-2.36 -5.388,-1.636 0.806,-2.799 2.459,-4.312 6.286,-3.929 -0.929,-0.388 -1.918,-1.262 -1.918,-2.945 0,-2.278 1.848,-4.802 3.061,-5.548 L 0.001,0 Z"
       style="fill:#fec50c;fill-opacity:1;fill-rule:nonzero;stroke:none"
       transform="matrix(1.3333333,0,0,-1.3333333,48.808533,141.17773)"
       clip-path="url(#clipPath95)" />
    <path
       id="path96"
       d="m 0,0 c 0,-6.081 -5.459,-9.207 -9.749,-9.207 -5.78,0 -8.857,3.456 -8.857,7.98 0,2.564 0.47,4.173 1.652,6.627 0,0 9.534,19.828 13.246,27.496 0.463,0.957 0.612,2.045 0.612,3.642 0,2.465 -2.391,4.48 -4.898,4.542 -2.285,0.057 -4.776,-2.131 -4.776,-4.624 0,-3.028 1.571,-4.378 3.184,-4.378 1.985,0 2.776,0.816 2.776,2.21 0,0.97 -0.469,1.391 -1.143,1.391 -1.702,0 -1.225,-2.292 -1.225,-2.292 -0.845,0.185 -1.54,1.049 -1.142,2.128 -0.619,0.138 -1.199,0.463 -1.654,0.982 0.457,0.442 0.98,0.784 1.654,0.9 -0.399,1.316 0.133,1.959 1.285,2.23 -0.232,-0.506 -0.24,-0.972 -0.163,-1.412 1.813,0.516 4.592,-0.304 4.592,-3.437 0,-3.109 -2.158,-5.727 -6.205,-5.073 0.963,-0.46 1.453,-1.402 1.551,-2.455 -0.734,0.286 -1.551,0.327 -1.551,0.327 0.474,-0.834 1.131,-1.553 1.103,-3.191 -0.75,0.341 -1.447,0.972 -2.409,0.572 1.509,-2.968 -0.344,-7.053 -5.061,-8.019 1.726,2.023 2.572,4.208 2.572,6.383 0,7.049 -1.96,8.234 -1.96,13.135 0,2.05 1.054,4.264 3.143,5.769 v -0.082 c -1.381,0.369 -2.265,1.049 -2.773,1.973 3.154,0.894 7.739,0.878 10.202,-0.091 2.83,-0.327 4.805,-2.499 5.388,-3.601 0.582,-1.101 1.712,-5.086 0,-8.674 -1.875,-3.926 -10.714,-22.667 -13.47,-28.559 -0.584,-1.25 -0.939,-2.575 -0.939,-4.01 0,-3.609 3.307,-4.869 5.184,-4.869 2.245,0 4.531,1.71 4.531,3.846 0,1.354 -0.735,2.169 -1.796,2.169 -2.538,0 -2.383,-2.159 -1.878,-3.519 -1.579,0.71 -2.497,1.978 -2.245,3.315 -0.894,0.122 -1.745,0.546 -2.53,1.432 0.618,0.78 1.372,1.37 2.53,1.391 -0.506,2.073 0.883,2.95 2.245,3.436 -0.431,-1.521 -0.714,-3.273 1.878,-3.273 1.889,0 3.377,-0.327 4.245,-1.555 0.051,1.637 0.204,8.102 0.204,8.102 0.109,2.429 -3.252,2.36 -5.388,1.636 0.806,2.799 2.459,4.311 6.286,3.929 -0.929,0.388 -1.918,1.262 -1.918,2.945 0,2.278 1.848,4.802 3.061,5.548 L 0.001,0 Z"
       style="fill:#fec50c;fill-opacity:1;fill-rule:nonzero;stroke:none"
       transform="matrix(1.3333333,0,0,-1.3333333,48.808533,116.85413)"
       clip-path="url(#clipPath97)" />
    <path
       id="path98"
       d="m 0,0 c 0,-6.08 -5.459,-9.206 -9.749,-9.206 -5.78,0 -8.857,3.456 -8.857,7.979 0,2.565 0.47,4.173 1.652,6.628 0,0 9.534,19.828 13.246,27.495 0.463,0.958 0.612,2.046 0.612,3.642 0,2.465 -2.391,4.481 -4.898,4.542 -2.285,0.057 -4.776,-2.131 -4.776,-4.624 0,-3.027 1.571,-4.378 3.184,-4.378 1.985,0 2.776,0.817 2.776,2.21 0,0.971 -0.469,1.391 -1.143,1.391 -1.702,0 -1.225,-2.291 -1.225,-2.291 -0.845,0.185 -1.54,1.049 -1.142,2.128 -0.619,0.137 -1.199,0.462 -1.654,0.981 0.457,0.442 0.98,0.784 1.654,0.9 -0.399,1.317 0.133,1.959 1.285,2.231 -0.232,-0.507 -0.24,-0.973 -0.163,-1.412 1.813,0.515 4.592,-0.305 4.592,-3.437 0,-3.11 -2.158,-5.728 -6.205,-5.074 0.963,-0.46 1.453,-1.401 1.551,-2.455 -0.734,0.287 -1.551,0.328 -1.551,0.328 0.474,-0.835 1.131,-1.554 1.103,-3.191 -0.75,0.341 -1.447,0.972 -2.409,0.572 1.509,-2.969 -0.344,-7.053 -5.061,-8.02 1.726,2.024 2.572,4.208 2.572,6.384 0,7.049 -1.96,8.234 -1.96,13.134 0,2.05 1.054,4.265 3.143,5.77 v -0.082 c -1.381,0.369 -2.265,1.049 -2.773,1.973 3.154,0.894 7.739,0.878 10.202,-0.091 2.83,-0.328 4.805,-2.5 5.388,-3.601 0.582,-1.102 1.712,-5.086 0,-8.674 -1.875,-3.927 -10.714,-22.668 -13.47,-28.56 -0.584,-1.249 -0.939,-2.574 -0.939,-4.009 0,-3.609 3.307,-4.87 5.184,-4.87 2.245,0 4.531,1.711 4.531,3.847 0,1.354 -0.735,2.168 -1.796,2.168 -2.538,0 -2.383,-2.158 -1.878,-3.518 -1.579,0.71 -2.497,1.977 -2.245,3.314 -0.894,0.122 -1.745,0.547 -2.53,1.432 0.618,0.78 1.372,1.37 2.53,1.391 -0.506,2.074 0.883,2.95 2.245,3.437 -0.431,-1.522 -0.714,-3.274 1.878,-3.274 1.889,0 3.377,-0.327 4.245,-1.554 0.051,1.636 0.204,8.101 0.204,8.101 0.109,2.43 -3.252,2.361 -5.388,1.637 0.806,2.799 2.459,4.311 6.286,3.928 -0.929,0.388 -1.918,1.262 -1.918,2.946 0,2.278 1.848,4.802 3.061,5.548 L 0.001,0 Z"
       style="fill:#fec50c;fill-opacity:1;fill-rule:nonzero;stroke:none"
       transform="matrix(1.3333333,0,0,-1.3333333,48.808533,258.82293)"
       clip-path="url(#clipPath99)" />
    <path
       id="path100"
       d="m 0,0 c 0,-6.08 5.459,-9.206 9.749,-9.206 5.78,0 8.857,3.456 8.857,7.979 0,2.565 -0.47,4.173 -1.652,6.628 0,0 -9.534,19.828 -13.246,27.495 -0.463,0.958 -0.612,2.046 -0.612,3.642 0,2.465 2.391,4.481 4.898,4.542 2.285,0.057 4.776,-2.131 4.776,-4.624 0,-3.027 -1.571,-4.378 -3.184,-4.378 -1.985,0 -2.776,0.817 -2.776,2.21 0,0.971 0.469,1.391 1.143,1.391 1.702,0 1.225,-2.291 1.225,-2.291 0.845,0.185 1.54,1.049 1.142,2.128 0.619,0.137 1.199,0.462 1.654,0.981 -0.457,0.442 -0.98,0.784 -1.654,0.9 0.399,1.317 -0.133,1.959 -1.285,2.231 0.232,-0.507 0.24,-0.973 0.163,-1.412 -1.813,0.515 -4.592,-0.305 -4.592,-3.437 0,-3.11 2.158,-5.728 6.205,-5.074 -0.963,-0.46 -1.453,-1.401 -1.551,-2.455 0.734,0.287 1.551,0.328 1.551,0.328 -0.474,-0.835 -1.131,-1.554 -1.103,-3.191 0.751,0.341 1.447,0.972 2.409,0.572 -1.509,-2.969 0.344,-7.053 5.061,-8.02 -1.726,2.024 -2.572,4.208 -2.572,6.384 0,7.049 1.96,8.234 1.96,13.134 0,2.05 -1.054,4.265 -3.143,5.77 v -0.082 c 1.381,0.369 2.265,1.049 2.773,1.973 -3.154,0.894 -7.739,0.878 -10.202,-0.091 -2.83,-0.328 -4.805,-2.5 -5.388,-3.601 -0.582,-1.102 -1.712,-5.086 0,-8.674 1.875,-3.927 10.714,-22.668 13.47,-28.56 0.584,-1.249 0.939,-2.574 0.939,-4.009 0,-3.609 -3.307,-4.87 -5.184,-4.87 -2.245,0 -4.531,1.711 -4.531,3.847 0,1.354 0.735,2.168 1.796,2.168 2.538,0 2.383,-2.158 1.878,-3.518 1.579,0.71 2.497,1.977 2.245,3.314 0.894,0.122 1.745,0.547 2.53,1.432 -0.618,0.78 -1.372,1.37 -2.53,1.391 0.506,2.074 -0.883,2.95 -2.245,3.437 C 9.405,4.862 9.688,3.11 7.096,3.11 5.207,3.11 3.719,2.783 2.851,1.556 2.8,3.192 2.647,9.657 2.647,9.657 c -0.109,2.43 3.252,2.361 5.388,1.637 -0.806,2.799 -2.459,4.311 -6.286,3.928 0.929,0.388 1.918,1.262 1.918,2.946 0,2.278 -1.848,4.802 -3.061,5.548 L -0.001,0 Z"
       style="fill:#fec50c;fill-opacity:1;fill-rule:nonzero;stroke:none"
       transform="matrix(1.3333333,0,0,-1.3333333,47.191467,258.82293)"
       clip-path="url(#clipPath101)" />
    <path
       id="path102"
       d="m 0,0 c 0,0 2.883,2.423 3.862,1.208 1.575,-1.955 -4.841,-11.69 -4.841,-15.119 0,-5.628 3.754,-7.158 8.391,-7.962 3.111,-0.539 8.178,0.226 8.178,0.226 -0.954,1.282 -1.574,1.659 -3.182,1.762 1.79,0.929 3.612,2.946 3.612,6.085 0,4.842 -1.993,6.837 -1.993,12.295 0,3.027 2.483,6.882 2.483,6.882 C 12.121,4.938 9.946,0.875 11.184,-2.373 10.485,-2.474 9.851,-2.316 9.306,-1.8 8.985,-2.7 9.492,-3.745 10.171,-4.645 9.624,-4.937 9.222,-4.762 8.351,-4.583 8.434,-5.51 8.99,-6.495 10.349,-7.422 6.404,-6.398 3.976,-9.148 3.976,-12.026 c 0,-2.175 1.524,-3.733 3.013,-3.733 0.482,0 1.189,0.198 1.588,0.495 0.281,-0.598 0.136,-1.399 -0.154,-1.997 1.092,0.288 1.785,0.937 1.291,2.286 0.839,0.077 1.506,0.36 1.96,0.9 -0.46,0.589 -1.157,0.928 -1.96,0.9 0.611,1.26 -0.069,1.966 -1.061,2.537 0,0 0.631,-2.537 -0.979,-2.537 -0.724,0 -1.384,0.236 -1.384,1.303 0,0.929 0.812,2.216 2.689,2.134 1.878,-0.081 3.4,-1.294 3.4,-4.291 0,-2.765 -2.23,-4.14 -5.168,-4.229 -2.65,-0.082 -4.65,1.354 -4.65,4.087 0,3.639 5.252,11.932 5.252,15.174 0,2.433 -2.188,3.791 -4.328,3.791 -2.776,0 -5.117,-2.748 -5.117,-2.748 l 1.63,-2.045 z"
       style="fill:#fec50c;fill-opacity:1;fill-rule:nonzero;stroke:none"
       transform="matrix(1.3333333,0,0,-1.3333333,48,29.169333)"
       clip-path="url(#clipPath103)" />
    <path
       id="path104"
       d="m 0,0 c 0,0 -2.883,2.423 -3.862,1.208 -1.575,-1.955 4.841,-11.69 4.841,-15.119 0,-5.628 -3.754,-7.158 -8.391,-7.962 -3.111,-0.539 -8.178,0.226 -8.178,0.226 0.954,1.282 1.574,1.659 3.182,1.762 -1.79,0.929 -3.612,2.946 -3.612,6.085 0,4.842 1.993,6.837 1.993,12.295 0,3.027 -2.483,6.882 -2.483,6.882 4.389,-0.439 6.564,-4.502 5.326,-7.75 0.699,-0.101 1.333,0.057 1.878,0.573 0.321,-0.9 -0.186,-1.945 -0.865,-2.845 0.547,-0.292 0.949,-0.117 1.82,0.062 -0.083,-0.927 -0.639,-1.912 -1.998,-2.839 3.945,1.024 6.373,-1.726 6.373,-4.604 0,-2.175 -1.524,-3.733 -3.013,-3.733 -0.482,0 -1.189,0.198 -1.588,0.495 -0.281,-0.598 -0.136,-1.399 0.154,-1.997 -1.092,0.288 -1.785,0.937 -1.291,2.286 -0.839,0.077 -1.506,0.36 -1.96,0.9 0.46,0.589 1.157,0.928 1.96,0.9 -0.611,1.26 0.069,1.966 1.061,2.537 0,0 -0.631,-2.537 0.979,-2.537 0.724,0 1.384,0.236 1.384,1.303 0,0.929 -0.812,2.216 -2.689,2.134 -1.878,-0.081 -3.4,-1.294 -3.4,-4.291 0,-2.765 2.23,-4.14 5.168,-4.229 2.65,-0.082 4.65,1.354 4.65,4.087 0,3.639 -5.252,11.932 -5.252,15.174 0,2.433 2.188,3.791 4.328,3.791 2.776,0 5.117,-2.748 5.117,-2.748 L 0.002,0.001 Z"
       style="fill:#fec50c;fill-opacity:1;fill-rule:nonzero;stroke:none"
       transform="matrix(1.3333333,0,0,-1.3333333,48,29.169333)"
       clip-path="url(#clipPath105)" />
  </g>
</svg>
