<?xml version="1.0" encoding="UTF-8" standalone="no"?>
<!-- Created with Inkscape (http://www.inkscape.org/) -->

<svg
   version="1.1"
   id="svg1"
   width="675"
   height="450"
   viewBox="0 0 675 450"
   sodipodi:docname="kg.ai"
   xmlns:inkscape="http://www.inkscape.org/namespaces/inkscape"
   xmlns:sodipodi="http://sodipodi.sourceforge.net/DTD/sodipodi-0.dtd"
   xmlns="http://www.w3.org/2000/svg"
   xmlns:svg="http://www.w3.org/2000/svg">
  <defs
     id="defs1">
    <clipPath
       clipPathUnits="userSpaceOnUse"
       id="clipPath3">
      <path
         d="M 0,337.5 H 506.25 V 0 H 0 Z"
         transform="translate(-247.5229,-108)"
         id="path3" />
    </clipPath>
    <clipPath
       clipPathUnits="userSpaceOnUse"
       id="clipPath5">
      <path
         d="M 0,337.5 H 506.25 V 0 H 0 Z"
         transform="translate(-191.5,-173.4771)"
         id="path5" />
    </clipPath>
    <clipPath
       clipPathUnits="userSpaceOnUse"
       id="clipPath7">
      <path
         d="M 0,337.5 H 506.25 V 0 H 0 Z"
         transform="translate(-256.97661,-229.50001)"
         id="path7" />
    </clipPath>
    <clipPath
       clipPathUnits="userSpaceOnUse"
       id="clipPath9">
      <path
         d="M 0,337.5 H 506.25 V 0 H 0 Z"
         transform="translate(-313.00001,-164.02341)"
         id="path9" />
    </clipPath>
    <clipPath
       clipPathUnits="userSpaceOnUse"
       id="clipPath11">
      <path
         d="M 0,337.5 H 506.25 V 0 H 0 Z"
         transform="translate(-228.98391,-112.43361)"
         id="path11" />
    </clipPath>
    <clipPath
       clipPathUnits="userSpaceOnUse"
       id="clipPath13">
      <path
         d="M 0,337.5 H 506.25 V 0 H 0 Z"
         transform="translate(-195.93411,-192.01611)"
         id="path13" />
    </clipPath>
    <clipPath
       clipPathUnits="userSpaceOnUse"
       id="clipPath15">
      <path
         d="M 0,337.5 H 506.25 V 0 H 0 Z"
         transform="translate(-275.5156,-225.06591)"
         id="path15" />
    </clipPath>
    <clipPath
       clipPathUnits="userSpaceOnUse"
       id="clipPath17">
      <path
         d="M 0,337.5 H 506.25 V 0 H 0 Z"
         transform="translate(-308.56641,-145.4844)"
         id="path17" />
    </clipPath>
    <clipPath
       clipPathUnits="userSpaceOnUse"
       id="clipPath19">
      <path
         d="M 0,337.5 H 506.25 V 0 H 0 Z"
         transform="translate(-212.7187,-122.37891)"
         id="path19" />
    </clipPath>
    <clipPath
       clipPathUnits="userSpaceOnUse"
       id="clipPath21">
      <path
         d="M 0,337.5 H 506.25 V 0 H 0 Z"
         transform="translate(-205.87891,-208.28121)"
         id="path21" />
    </clipPath>
    <clipPath
       clipPathUnits="userSpaceOnUse"
       id="clipPath23">
      <path
         d="M 0,337.5 H 506.25 V 0 H 0 Z"
         transform="translate(-291.78121,-215.1211)"
         id="path23" />
    </clipPath>
    <clipPath
       clipPathUnits="userSpaceOnUse"
       id="clipPath25">
      <path
         d="M 0,337.5 H 506.25 V 0 H 0 Z"
         transform="translate(-298.62111,-129.2187)"
         id="path25" />
    </clipPath>
    <clipPath
       clipPathUnits="userSpaceOnUse"
       id="clipPath27">
      <path
         d="M 0,337.5 H 506.25 V 0 H 0 Z"
         transform="translate(-200.3242,-136.8633)"
         id="path27" />
    </clipPath>
    <clipPath
       clipPathUnits="userSpaceOnUse"
       id="clipPath29">
      <path
         d="M 0,337.5 H 506.25 V 0 H 0 Z"
         transform="translate(-220.36281,-220.67581)"
         id="path29" />
    </clipPath>
    <clipPath
       clipPathUnits="userSpaceOnUse"
       id="clipPath31">
      <path
         d="M 0,337.5 H 506.25 V 0 H 0 Z"
         transform="translate(-304.17581,-200.63721)"
         id="path31" />
    </clipPath>
    <clipPath
       clipPathUnits="userSpaceOnUse"
       id="clipPath33">
      <path
         d="M 0,337.5 H 506.25 V 0 H 0 Z"
         transform="translate(-284.1367,-116.8242)"
         id="path33" />
    </clipPath>
    <clipPath
       clipPathUnits="userSpaceOnUse"
       id="clipPath35">
      <path
         d="M 0,337.5 H 506.25 V 0 H 0 Z"
         transform="translate(-193.0122,-154.4727)"
         id="path35" />
    </clipPath>
    <clipPath
       clipPathUnits="userSpaceOnUse"
       id="clipPath37">
      <path
         d="M 0,337.5 H 506.25 V 0 H 0 Z"
         transform="translate(-237.97311,-227.9878)"
         id="path37" />
    </clipPath>
    <clipPath
       clipPathUnits="userSpaceOnUse"
       id="clipPath39">
      <path
         d="M 0,337.5 H 506.25 V 0 H 0 Z"
         transform="translate(-311.48831,-183.02691)"
         id="path39" />
    </clipPath>
    <clipPath
       clipPathUnits="userSpaceOnUse"
       id="clipPath41">
      <path
         d="M 0,337.5 H 506.25 V 0 H 0 Z"
         transform="translate(-266.5273,-109.5117)"
         id="path41" />
    </clipPath>
    <clipPath
       clipPathUnits="userSpaceOnUse"
       id="clipPath43">
      <path
         d="M 0,337.5 H 506.25 V 0 H 0 Z"
         transform="translate(-238.07811,-109.4883)"
         id="path43" />
    </clipPath>
    <clipPath
       clipPathUnits="userSpaceOnUse"
       id="clipPath45">
      <path
         d="M 0,337.5 H 506.25 V 0 H 0 Z"
         transform="translate(-192.98781,-182.92191)"
         id="path45" />
    </clipPath>
    <clipPath
       clipPathUnits="userSpaceOnUse"
       id="clipPath47">
      <path
         d="M 0,337.5 H 506.25 V 0 H 0 Z"
         transform="translate(-266.42191,-228.01221)"
         id="path47" />
    </clipPath>
    <clipPath
       clipPathUnits="userSpaceOnUse"
       id="clipPath49">
      <path
         d="M 0,337.5 H 506.25 V 0 H 0 Z"
         transform="translate(-311.51171,-154.5781)"
         id="path49" />
    </clipPath>
    <clipPath
       clipPathUnits="userSpaceOnUse"
       id="clipPath51">
      <path
         d="M 0,337.5 H 506.25 V 0 H 0 Z"
         transform="translate(-220.46091,-116.76561)"
         id="path51" />
    </clipPath>
    <clipPath
       clipPathUnits="userSpaceOnUse"
       id="clipPath53">
      <path
         d="M 0,337.5 H 506.25 V 0 H 0 Z"
         transform="translate(-200.26611,-200.53911)"
         id="path53" />
    </clipPath>
    <clipPath
       clipPathUnits="userSpaceOnUse"
       id="clipPath55">
      <path
         d="M 0,337.5 H 506.25 V 0 H 0 Z"
         transform="translate(-284.03911,-220.73391)"
         id="path55" />
    </clipPath>
    <clipPath
       clipPathUnits="userSpaceOnUse"
       id="clipPath57">
      <path
         d="M 0,337.5 H 506.25 V 0 H 0 Z"
         transform="translate(-304.23441,-136.9609)"
         id="path57" />
    </clipPath>
    <clipPath
       clipPathUnits="userSpaceOnUse"
       id="clipPath59">
      <path
         d="M 0,337.5 H 506.25 V 0 H 0 Z"
         transform="translate(-205.9531,-129.13281)"
         id="path59" />
    </clipPath>
    <clipPath
       clipPathUnits="userSpaceOnUse"
       id="clipPath61">
      <path
         d="M 0,337.5 H 506.25 V 0 H 0 Z"
         transform="translate(-212.63281,-215.04691)"
         id="path61" />
    </clipPath>
    <clipPath
       clipPathUnits="userSpaceOnUse"
       id="clipPath63">
      <path
         d="M 0,337.5 H 506.25 V 0 H 0 Z"
         transform="translate(-298.5469,-208.3672)"
         id="path63" />
    </clipPath>
    <clipPath
       clipPathUnits="userSpaceOnUse"
       id="clipPath65">
      <path
         d="M 0,337.5 H 506.25 V 0 H 0 Z"
         transform="translate(-291.86721,-122.4531)"
         id="path65" />
    </clipPath>
    <clipPath
       clipPathUnits="userSpaceOnUse"
       id="clipPath67">
      <path
         d="M 0,337.5 H 506.25 V 0 H 0 Z"
         transform="translate(-195.9771,-145.3789)"
         id="path67" />
    </clipPath>
    <clipPath
       clipPathUnits="userSpaceOnUse"
       id="clipPath69">
      <path
         d="M 0,337.5 H 506.25 V 0 H 0 Z"
         transform="translate(-228.87891,-225.0229)"
         id="path69" />
    </clipPath>
    <clipPath
       clipPathUnits="userSpaceOnUse"
       id="clipPath71">
      <path
         d="M 0,337.5 H 506.25 V 0 H 0 Z"
         transform="translate(-308.52341,-192.12111)"
         id="path71" />
    </clipPath>
    <clipPath
       clipPathUnits="userSpaceOnUse"
       id="clipPath73">
      <path
         d="M 0,337.5 H 506.25 V 0 H 0 Z"
         transform="translate(-275.62111,-112.4766)"
         id="path73" />
    </clipPath>
    <clipPath
       clipPathUnits="userSpaceOnUse"
       id="clipPath75">
      <path
         d="M 0,337.5 H 506.25 V 0 H 0 Z"
         transform="translate(-191.5078,-163.9141)"
         id="path75" />
    </clipPath>
    <clipPath
       clipPathUnits="userSpaceOnUse"
       id="clipPath77">
      <path
         d="M 0,337.5 H 506.25 V 0 H 0 Z"
         transform="translate(-247.41411,-229.49221)"
         id="path77" />
    </clipPath>
    <clipPath
       clipPathUnits="userSpaceOnUse"
       id="clipPath79">
      <path
         d="M 0,337.5 H 506.25 V 0 H 0 Z"
         transform="translate(-312.99221,-173.58591)"
         id="path79" />
    </clipPath>
    <clipPath
       clipPathUnits="userSpaceOnUse"
       id="clipPath81">
      <path
         d="M 0,337.5 H 506.25 V 0 H 0 Z"
         transform="translate(-257.08591,-108.0078)"
         id="path81" />
    </clipPath>
    <clipPath
       clipPathUnits="userSpaceOnUse"
       id="clipPath83">
      <path
         d="M 0,337.5 H 506.25 V 0 H 0 Z"
         transform="translate(-313.00001,-168.75)"
         id="path83" />
    </clipPath>
    <clipPath
       clipPathUnits="userSpaceOnUse"
       id="clipPath85">
      <path
         d="M 0,337.5 H 506.25 V 0 H 0 Z"
         transform="translate(-302.87501,-172.125)"
         id="path85" />
    </clipPath>
    <clipPath
       clipPathUnits="userSpaceOnUse"
       id="clipPath87">
      <path
         d="m 196,168.75 c 0,-31.066 25.184,-56.25 56.25,-56.25 v 0 c 31.066,0 56.25,25.184 56.25,56.25 v 0 c 0,31.066 -25.184,56.25 -56.25,56.25 v 0 C 221.184,225 196,199.816 196,168.75"
         transform="translate(-206.96871,-128.25)"
         id="path87" />
    </clipPath>
    <clipPath
       clipPathUnits="userSpaceOnUse"
       id="clipPath89">
      <path
         d="m 196,168.75 c 0,-31.066 25.184,-56.25 56.25,-56.25 v 0 c 31.066,0 56.25,25.184 56.25,56.25 v 0 c 0,31.066 -25.184,56.25 -56.25,56.25 v 0 C 221.184,225 196,199.816 196,168.75"
         transform="translate(-216.76221,-128.25)"
         id="path89" />
    </clipPath>
    <clipPath
       clipPathUnits="userSpaceOnUse"
       id="clipPath91">
      <path
         d="m 196,168.75 c 0,-31.066 25.184,-56.25 56.25,-56.25 v 0 c 31.066,0 56.25,25.184 56.25,56.25 v 0 c 0,31.066 -25.184,56.25 -56.25,56.25 v 0 C 221.184,225 196,199.816 196,168.75"
         transform="translate(-298.82421,-201.06201)"
         id="path91" />
    </clipPath>
    <clipPath
       clipPathUnits="userSpaceOnUse"
       id="clipPath93">
      <path
         d="m 196,168.75 c 0,-31.066 25.184,-56.25 56.25,-56.25 v 0 c 31.066,0 56.25,25.184 56.25,56.25 v 0 c 0,31.066 -25.184,56.25 -56.25,56.25 v 0 C 221.184,225 196,199.816 196,168.75"
         transform="translate(-297.53121,-128.25)"
         id="path93" />
    </clipPath>
    <clipPath
       clipPathUnits="userSpaceOnUse"
       id="clipPath95">
      <path
         d="m 196,168.75 c 0,-31.066 25.184,-56.25 56.25,-56.25 v 0 c 31.066,0 56.25,25.184 56.25,56.25 v 0 c 0,31.066 -25.184,56.25 -56.25,56.25 v 0 C 221.184,225 196,199.816 196,168.75"
         transform="translate(-287.73831,-128.25)"
         id="path95" />
    </clipPath>
    <clipPath
       clipPathUnits="userSpaceOnUse"
       id="clipPath97">
      <path
         d="m 196,168.75 c 0,-31.066 25.184,-56.25 56.25,-56.25 v 0 c 31.066,0 56.25,25.184 56.25,56.25 v 0 c 0,31.066 -25.184,56.25 -56.25,56.25 v 0 C 221.184,225 196,199.816 196,168.75"
         transform="translate(-205.67581,-201.06201)"
         id="path97" />
    </clipPath>
  </defs>
  <sodipodi:namedview
     id="namedview1"
     pagecolor="#ffffff"
     bordercolor="#000000"
     borderopacity="0.25"
     inkscape:showpageshadow="2"
     inkscape:pageopacity="0.0"
     inkscape:pagecheckerboard="0"
     inkscape:deskcolor="#d1d1d1">
    <inkscape:page
       x="0"
       y="0"
       inkscape:label="1"
       id="page1"
       width="675"
       height="450"
       margin="0"
       bleed="0" />
  </sodipodi:namedview>
  <g
     id="layer-MC0"
     inkscape:groupmode="layer"
     inkscape:label="Layer 1">
    <path
       id="path1"
       d="M 0,0 H 506.25 V 337.5 H 0 Z"
       style="fill:#e8112d;fill-opacity:1;fill-rule:nonzero;stroke:none"
       transform="matrix(1.3333333,0,0,-1.3333333,0,450)" />
    <path
       id="path2"
       d="M 0,0 C 4.727,-12.375 -5.398,-31.5 4.727,-40.5 1.352,-27 12.602,-12.375 9.454,0 6.301,12.375 -4.722,12.375 0,0"
       style="fill:#ffef00;fill-opacity:1;fill-rule:nonzero;stroke:none"
       transform="matrix(1.3333333,0,0,-1.3333333,330.03053,306)"
       clip-path="url(#clipPath3)" />
    <path
       id="path4"
       d="M 0,0 C -12.375,-4.727 -31.5,5.398 -40.5,-4.727 -27,-1.352 -12.375,-12.602 0,-9.454 12.375,-6.301 12.375,4.722 0,0"
       style="fill:#ffef00;fill-opacity:1;fill-rule:nonzero;stroke:none"
       transform="matrix(1.3333333,0,0,-1.3333333,255.33333,218.6972)"
       clip-path="url(#clipPath5)" />
    <path
       id="path6"
       d="M 0,0 C -4.727,12.375 5.398,31.5 -4.727,40.5 -1.352,27 -12.602,12.375 -9.454,0 -6.301,-12.375 4.723,-12.375 0,0"
       style="fill:#ffef00;fill-opacity:1;fill-rule:nonzero;stroke:none"
       transform="matrix(1.3333333,0,0,-1.3333333,342.63547,144)"
       clip-path="url(#clipPath7)" />
    <path
       id="path8"
       d="M 0,0 C 12.375,4.727 31.5,-5.398 40.5,4.727 27,1.352 12.375,12.602 0,9.454 -12.375,6.301 -12.375,-4.723 0,0"
       style="fill:#ffef00;fill-opacity:1;fill-rule:nonzero;stroke:none"
       transform="matrix(1.3333333,0,0,-1.3333333,417.33333,231.30213)"
       clip-path="url(#clipPath9)" />
    <path
       id="path10"
       d="M 0,0 C 0.668,-13.23 -14.871,-28.289 -8.023,-39.977 -7.058,-26.098 8.161,-15.664 8.989,-2.922 9.817,9.824 -0.672,13.23 0,0"
       style="fill:#ffef00;fill-opacity:1;fill-rule:nonzero;stroke:none"
       transform="matrix(1.3333333,0,0,-1.3333333,305.31187,300.08853)"
       clip-path="url(#clipPath11)" />
    <path
       id="path12"
       d="M 0,0 C -13.231,-0.668 -28.289,14.871 -39.977,8.023 -26.098,7.058 -15.664,-8.161 -2.922,-8.989 9.824,-9.817 13.23,0.672 0,0"
       style="fill:#ffef00;fill-opacity:1;fill-rule:nonzero;stroke:none"
       transform="matrix(1.3333333,0,0,-1.3333333,261.24547,193.97853)"
       clip-path="url(#clipPath13)" />
    <path
       id="path14"
       d="M 0,0 C -0.668,13.231 14.871,28.289 8.023,39.977 7.059,26.098 -8.16,15.664 -8.988,2.922 -9.816,-9.824 0.672,-13.23 0,0"
       style="fill:#ffef00;fill-opacity:1;fill-rule:nonzero;stroke:none"
       transform="matrix(1.3333333,0,0,-1.3333333,367.35413,149.91213)"
       clip-path="url(#clipPath15)" />
    <path
       id="path16"
       d="M 0,0 C 13.23,0.668 28.289,-14.871 39.977,-8.023 26.098,-7.059 15.664,8.16 2.922,8.988 -9.824,9.816 -13.23,-0.673 0,0"
       style="fill:#ffef00;fill-opacity:1;fill-rule:nonzero;stroke:none"
       transform="matrix(1.3333333,0,0,-1.3333333,411.42187,256.0208)"
       clip-path="url(#clipPath17)" />
    <path
       id="path18"
       d="M 0,0 C -3.449,-12.789 -22.883,-22.309 -19.981,-35.543 -14.778,-22.637 2.922,-17.418 7.644,-5.555 12.371,6.31 3.453,12.789 0,0"
       style="fill:#ffef00;fill-opacity:1;fill-rule:nonzero;stroke:none"
       transform="matrix(1.3333333,0,0,-1.3333333,283.62493,286.82813)"
       clip-path="url(#clipPath19)" />
    <path
       id="path20"
       d="M 0,0 C -12.789,3.449 -22.309,22.883 -35.543,19.981 -22.637,14.778 -17.418,-2.922 -5.555,-7.644 6.309,-12.371 12.789,-3.453 0,0"
       style="fill:#ffef00;fill-opacity:1;fill-rule:nonzero;stroke:none"
       transform="matrix(1.3333333,0,0,-1.3333333,274.5052,172.29173)"
       clip-path="url(#clipPath21)" />
    <path
       id="path22"
       d="M 0,0 C 3.449,12.789 22.883,22.309 19.98,35.543 14.777,22.637 -2.922,17.418 -7.645,5.555 -12.371,-6.309 -3.453,-12.789 0,0"
       style="fill:#ffef00;fill-opacity:1;fill-rule:nonzero;stroke:none"
       transform="matrix(1.3333333,0,0,-1.3333333,389.0416,163.17187)"
       clip-path="url(#clipPath23)" />
    <path
       id="path24"
       d="M 0,0 C 12.789,-3.449 22.309,-22.883 35.543,-19.98 22.637,-14.777 17.418,2.922 5.555,7.645 -6.309,12.371 -12.789,3.453 0,0"
       style="fill:#ffef00;fill-opacity:1;fill-rule:nonzero;stroke:none"
       transform="matrix(1.3333333,0,0,-1.3333333,398.16147,277.7084)"
       clip-path="url(#clipPath25)" />
    <path
       id="path26"
       d="m 0,0 c -7.234,-11.094 -28.656,-14.145 -29.988,-27.625 8.937,10.664 27.383,10.16 35.543,19.98 C 13.715,2.18 7.235,11.098 0,0"
       style="fill:#ffef00;fill-opacity:1;fill-rule:nonzero;stroke:none"
       transform="matrix(1.3333333,0,0,-1.3333333,267.09893,267.5156)"
       clip-path="url(#clipPath27)" />
    <path
       id="path28"
       d="M 0,0 C -11.093,7.234 -14.144,28.656 -27.625,29.988 -16.961,21.051 -17.465,2.605 -7.644,-5.555 2.18,-13.715 11.098,-7.235 0,0"
       style="fill:#ffef00;fill-opacity:1;fill-rule:nonzero;stroke:none"
       transform="matrix(1.3333333,0,0,-1.3333333,293.81707,155.7656)"
       clip-path="url(#clipPath29)" />
    <path
       id="path30"
       d="M 0,0 C 7.234,11.093 28.656,14.144 29.988,27.625 21.051,16.961 2.605,17.465 -5.555,7.644 -13.715,-2.18 -7.234,-11.098 0,0"
       style="fill:#ffef00;fill-opacity:1;fill-rule:nonzero;stroke:none"
       transform="matrix(1.3333333,0,0,-1.3333333,405.56773,182.48373)"
       clip-path="url(#clipPath31)" />
    <path
       id="path32"
       d="M 0,0 C 11.094,-7.234 14.145,-28.656 27.625,-29.988 16.961,-21.051 17.465,-2.605 7.645,5.555 -2.18,13.715 -11.098,7.234 0,0"
       style="fill:#ffef00;fill-opacity:1;fill-rule:nonzero;stroke:none"
       transform="matrix(1.3333333,0,0,-1.3333333,378.84893,294.2344)"
       clip-path="url(#clipPath33)" />
    <path
       id="path34"
       d="m 0,0 c -10.309,-8.32 -31.625,-4.602 -37.055,-17.012 11.793,7.383 29.18,1.203 39.977,8.024 C 13.718,-2.168 10.312,8.316 0,0"
       style="fill:#ffef00;fill-opacity:1;fill-rule:nonzero;stroke:none"
       transform="matrix(1.3333333,0,0,-1.3333333,257.3496,244.0364)"
       clip-path="url(#clipPath35)" />
    <path
       id="path36"
       d="M 0,0 C -8.321,10.309 -4.602,31.625 -17.012,37.055 -9.629,25.262 -15.809,7.875 -8.989,-2.922 -2.168,-13.718 8.316,-10.312 0,0"
       style="fill:#ffef00;fill-opacity:1;fill-rule:nonzero;stroke:none"
       transform="matrix(1.3333333,0,0,-1.3333333,317.29747,146.01627)"
       clip-path="url(#clipPath37)" />
    <path
       id="path38"
       d="M 0,0 C 10.309,8.321 31.625,4.602 37.055,17.012 25.262,9.629 7.875,15.809 -2.922,8.989 -13.719,2.168 -10.313,-8.316 0,0"
       style="fill:#ffef00;fill-opacity:1;fill-rule:nonzero;stroke:none"
       transform="matrix(1.3333333,0,0,-1.3333333,415.31773,205.96413)"
       clip-path="url(#clipPath39)" />
    <path
       id="path40"
       d="M 0,0 C 8.32,-10.309 4.602,-31.625 17.012,-37.055 9.629,-25.262 15.809,-7.875 8.988,2.922 2.168,13.719 -8.316,10.313 0,0"
       style="fill:#ffef00;fill-opacity:1;fill-rule:nonzero;stroke:none"
       transform="matrix(1.3333333,0,0,-1.3333333,355.36973,303.9844)"
       clip-path="url(#clipPath41)" />
    <path
       id="path42"
       d="M 0,0 C 2.734,-12.965 -10.258,-30.27 -1.668,-40.742 -2.89,-26.879 10.512,-14.195 9.336,-1.48 8.16,11.234 -2.73,12.961 0,0"
       style="fill:#ffef00;fill-opacity:1;fill-rule:nonzero;stroke:none"
       transform="matrix(1.3333333,0,0,-1.3333333,317.43747,304.0156)"
       clip-path="url(#clipPath43)" />
    <path
       id="path44"
       d="M 0,0 C -12.965,-2.734 -30.269,10.258 -40.742,1.668 -26.879,2.89 -14.195,-10.512 -1.48,-9.336 11.235,-8.16 12.961,2.73 0,0"
       style="fill:#ffef00;fill-opacity:1;fill-rule:nonzero;stroke:none"
       transform="matrix(1.3333333,0,0,-1.3333333,257.31707,206.10413)"
       clip-path="url(#clipPath45)" />
    <path
       id="path46"
       d="M 0,0 C -2.734,12.965 10.258,30.269 1.668,40.742 2.891,26.879 -10.512,14.195 -9.336,1.48 -8.16,-11.235 2.73,-12.961 0,0"
       style="fill:#ffef00;fill-opacity:1;fill-rule:nonzero;stroke:none"
       transform="matrix(1.3333333,0,0,-1.3333333,355.2292,145.98373)"
       clip-path="url(#clipPath47)" />
    <path
       id="path48"
       d="M 0,0 C 12.965,2.733 30.27,-10.258 40.742,-1.668 26.879,-2.89 14.195,10.512 1.48,9.336 -11.234,8.16 -12.961,-2.73 0,0"
       style="fill:#ffef00;fill-opacity:1;fill-rule:nonzero;stroke:none"
       transform="matrix(1.3333333,0,0,-1.3333333,415.34893,243.89587)"
       clip-path="url(#clipPath49)" />
    <path
       id="path50"
       d="M 0,0 C -1.41,-13.172 -19.113,-25.613 -14.176,-38.23 -11.055,-24.668 5.609,-16.746 8.418,-4.289 11.23,8.168 1.406,13.173 0,0"
       style="fill:#ffef00;fill-opacity:1;fill-rule:nonzero;stroke:none"
       transform="matrix(1.3333333,0,0,-1.3333333,293.94787,294.31253)"
       clip-path="url(#clipPath51)" />
    <path
       id="path52"
       d="M 0,0 C -13.172,1.41 -25.614,19.113 -38.231,14.176 -24.668,11.055 -16.746,-5.609 -4.289,-8.418 8.168,-11.23 13.172,-1.406 0,0"
       style="fill:#ffef00;fill-opacity:1;fill-rule:nonzero;stroke:none"
       transform="matrix(1.3333333,0,0,-1.3333333,267.02147,182.61453)"
       clip-path="url(#clipPath53)" />
    <path
       id="path54"
       d="M 0,0 C 1.41,13.172 19.113,25.614 14.176,38.231 11.055,24.668 -5.609,16.746 -8.418,4.289 -11.23,-8.168 -1.406,-13.172 0,0"
       style="fill:#ffef00;fill-opacity:1;fill-rule:nonzero;stroke:none"
       transform="matrix(1.3333333,0,0,-1.3333333,378.7188,155.68813)"
       clip-path="url(#clipPath55)" />
    <path
       id="path56"
       d="M 0,0 C 13.172,-1.41 25.613,-19.113 38.23,-14.176 24.668,-11.055 16.746,5.609 4.289,8.418 -8.168,11.23 -13.172,1.406 0,0"
       style="fill:#ffef00;fill-opacity:1;fill-rule:nonzero;stroke:none"
       transform="matrix(1.3333333,0,0,-1.3333333,405.64587,267.38547)"
       clip-path="url(#clipPath57)" />
    <path
       id="path58"
       d="M 0,0 C -5.41,-12.09 -26.094,-18.453 -25.297,-31.977 -18.137,-20.047 0.156,-17.66 6.68,-6.68 13.203,4.297 5.41,12.094 0,0"
       style="fill:#ffef00;fill-opacity:1;fill-rule:nonzero;stroke:none"
       transform="matrix(1.3333333,0,0,-1.3333333,274.60413,277.82293)"
       clip-path="url(#clipPath59)" />
    <path
       id="path60"
       d="M 0,0 C -12.09,5.41 -18.453,26.094 -31.977,25.297 -20.047,18.137 -17.66,-0.156 -6.68,-6.68 4.297,-13.203 12.094,-5.41 0,0"
       style="fill:#ffef00;fill-opacity:1;fill-rule:nonzero;stroke:none"
       transform="matrix(1.3333333,0,0,-1.3333333,283.5104,163.2708)"
       clip-path="url(#clipPath61)" />
    <path
       id="path62"
       d="M 0,0 C 5.41,12.09 26.094,18.453 25.297,31.977 18.137,20.047 -0.156,17.66 -6.68,6.68 -13.203,-4.297 -5.41,-12.094 0,0"
       style="fill:#ffef00;fill-opacity:1;fill-rule:nonzero;stroke:none"
       transform="matrix(1.3333333,0,0,-1.3333333,398.06253,172.17707)"
       clip-path="url(#clipPath63)" />
    <path
       id="path64"
       d="M 0,0 C 12.09,-5.41 18.453,-26.094 31.977,-25.297 20.047,-18.137 17.66,0.156 6.68,6.68 -4.297,13.203 -12.094,5.41 0,0"
       style="fill:#ffef00;fill-opacity:1;fill-rule:nonzero;stroke:none"
       transform="matrix(1.3333333,0,0,-1.3333333,389.15627,286.7292)"
       clip-path="url(#clipPath65)" />
    <path
       id="path66"
       d="m 0,0 c -8.883,-9.828 -30.52,-9.488 -33.942,-22.594 10.496,9.133 28.637,5.75 38.231,14.176 C 13.886,0.008 8.878,9.828 0,0"
       style="fill:#ffef00;fill-opacity:1;fill-rule:nonzero;stroke:none"
       transform="matrix(1.3333333,0,0,-1.3333333,261.3028,256.16147)"
       clip-path="url(#clipPath67)" />
    <path
       id="path68"
       d="M 0,0 C -9.828,8.883 -9.488,30.52 -22.594,33.942 -13.461,23.446 -16.844,5.305 -8.418,-4.289 0.008,-13.886 9.828,-8.878 0,0"
       style="fill:#ffef00;fill-opacity:1;fill-rule:nonzero;stroke:none"
       transform="matrix(1.3333333,0,0,-1.3333333,305.17187,149.96947)"
       clip-path="url(#clipPath69)" />
    <path
       id="path70"
       d="M 0,0 C 8.883,9.828 30.52,9.488 33.941,22.594 23.445,13.461 5.305,16.844 -4.289,8.418 -13.887,-0.008 -8.879,-9.828 0,0"
       style="fill:#ffef00;fill-opacity:1;fill-rule:nonzero;stroke:none"
       transform="matrix(1.3333333,0,0,-1.3333333,411.36453,193.83853)"
       clip-path="url(#clipPath71)" />
    <path
       id="path72"
       d="M 0,0 C 9.828,-8.883 9.488,-30.52 22.594,-33.941 13.461,-23.445 16.844,-5.305 8.418,4.289 -0.008,13.887 -9.828,8.879 0,0"
       style="fill:#ffef00;fill-opacity:1;fill-rule:nonzero;stroke:none"
       transform="matrix(1.3333333,0,0,-1.3333333,367.4948,300.0312)"
       clip-path="url(#clipPath73)" />
    <path
       id="path74"
       d="M 0,0 C -11.485,-6.603 -31.957,0.406 -39.262,-11.004 -26.457,-5.559 -10.25,-14.383 1.48,-9.336 13.211,-4.289 11.484,6.602 0,0"
       style="fill:#ffef00;fill-opacity:1;fill-rule:nonzero;stroke:none"
       transform="matrix(1.3333333,0,0,-1.3333333,255.34373,231.44787)"
       clip-path="url(#clipPath75)" />
    <path
       id="path76"
       d="M 0,0 C -6.602,11.485 0.406,31.957 -11.004,39.262 -5.559,26.457 -14.383,10.25 -9.336,-1.48 -4.289,-13.211 6.602,-11.484 0,0"
       style="fill:#ffef00;fill-opacity:1;fill-rule:nonzero;stroke:none"
       transform="matrix(1.3333333,0,0,-1.3333333,329.88547,144.0104)"
       clip-path="url(#clipPath77)" />
    <path
       id="path78"
       d="M 0,0 C 11.484,6.602 31.957,-0.406 39.262,11.004 26.457,5.559 10.25,14.383 -1.48,9.336 -13.211,4.289 -11.484,-6.602 0,0"
       style="fill:#ffef00;fill-opacity:1;fill-rule:nonzero;stroke:none"
       transform="matrix(1.3333333,0,0,-1.3333333,417.32293,218.55213)"
       clip-path="url(#clipPath79)" />
    <path
       id="path80"
       d="M 0,0 C 6.602,-11.484 -0.406,-31.957 11.004,-39.262 5.559,-26.457 14.383,-10.25 9.336,1.48 4.289,13.211 -6.602,11.484 0,0"
       style="fill:#ffef00;fill-opacity:1;fill-rule:nonzero;stroke:none"
       transform="matrix(1.3333333,0,0,-1.3333333,342.7812,305.9896)"
       clip-path="url(#clipPath81)" />
    <path
       id="path82"
       d="m 0,0 c 0,-33.551 -27.199,-60.75 -60.75,-60.75 -33.551,0 -60.75,27.199 -60.75,60.75 0,33.551 27.199,60.75 60.75,60.75 C -27.199,60.75 0,33.551 0,0"
       style="fill:#e8112d;fill-opacity:1;fill-rule:nonzero;stroke:none"
       transform="matrix(1.3333333,0,0,-1.3333333,417.33333,225)"
       clip-path="url(#clipPath83)" />
    <path
       id="path84"
       d="m 0,0 c 0,-27.961 -22.664,-50.625 -50.625,-50.625 -27.961,0 -50.625,22.664 -50.625,50.625 0,27.961 22.664,50.625 50.625,50.625 C -22.664,50.625 0,27.961 0,0"
       style="fill:#ffef00;fill-opacity:1;fill-rule:nonzero;stroke:none"
       transform="matrix(1.3333333,0,0,-1.3333333,403.83333,220.5)"
       clip-path="url(#clipPath85)" />
    <path
       id="path86"
       d="m 0,0 c 0,43.273 35.082,78.355 78.355,78.355 43.278,0 78.356,-35.082 78.356,-78.355 h 2.164 c 0,42.23 -34.238,76.469 -76.469,76.469 C 40.176,76.469 5.937,42.23 5.937,0 Z"
       style="fill:#e8112d;fill-opacity:1;fill-rule:nonzero;stroke:none"
       transform="matrix(1.3333333,0,0,-1.3333333,275.95827,279)"
       clip-path="url(#clipPath87)" />
    <path
       id="path88"
       d="m 0,0 c 0,41.594 33.718,75.312 75.312,75.312 41.594,0 75.316,-33.718 75.316,-75.312 h 2.477 c 0,40.727 -33.016,73.742 -73.742,73.742 C 38.636,73.742 5.621,40.727 5.621,0 Z"
       style="fill:#e8112d;fill-opacity:1;fill-rule:nonzero;stroke:none"
       transform="matrix(1.3333333,0,0,-1.3333333,289.01627,279)"
       clip-path="url(#clipPath89)" />
    <path
       id="path90"
       d="M 0,0 C -19.309,0 -37.832,-7.671 -51.484,-21.328 -65.14,-34.98 -72.812,-53.5 -72.812,-72.812 c 0,-19.312 7.672,-37.832 21.328,-51.484 13.652,-13.657 32.175,-21.328 51.484,-21.328 l 4.051,1.218 c -39.539,0 -71.594,32.055 -71.594,71.594 0,39.539 32.055,71.594 71.594,71.594 z"
       style="fill:#e8112d;fill-opacity:1;fill-rule:nonzero;stroke:none"
       transform="matrix(1.3333333,0,0,-1.3333333,398.43227,181.91733)"
       clip-path="url(#clipPath91)" />
    <path
       id="path92"
       d="m 0,0 c 0,43.273 -35.082,78.355 -78.355,78.355 -43.278,0 -78.356,-35.082 -78.356,-78.355 h -2.164 c 0,42.23 34.239,76.469 76.469,76.469 42.23,0 76.469,-34.239 76.469,-76.469 z"
       style="fill:#e8112d;fill-opacity:1;fill-rule:nonzero;stroke:none"
       transform="matrix(1.3333333,0,0,-1.3333333,396.70827,279)"
       clip-path="url(#clipPath93)" />
    <path
       id="path94"
       d="m 0,0 c 0,41.594 -33.719,75.312 -75.313,75.312 -41.593,0 -75.316,-33.718 -75.316,-75.312 h -2.476 c 0,40.727 33.015,73.742 73.742,73.742 40.727,0 73.742,-33.015 73.742,-73.742 z"
       style="fill:#e8112d;fill-opacity:1;fill-rule:nonzero;stroke:none"
       transform="matrix(1.3333333,0,0,-1.3333333,383.65107,279)"
       clip-path="url(#clipPath95)" />
    <path
       id="path96"
       d="M 0,0 C 19.308,0 37.832,-7.671 51.484,-21.328 65.141,-34.98 72.813,-53.5 72.813,-72.812 c 0,-19.312 -7.672,-37.832 -21.329,-51.484 C 37.832,-137.953 19.308,-145.624 0,-145.624 l -4.051,1.218 c 39.539,0 71.594,32.055 71.594,71.594 0,39.539 -32.055,71.594 -71.594,71.594 z"
       style="fill:#e8112d;fill-opacity:1;fill-rule:nonzero;stroke:none"
       transform="matrix(1.3333333,0,0,-1.3333333,274.2344,181.91733)"
       clip-path="url(#clipPath97)" />
  </g>
</svg>
