<svg height="512" viewBox="0 0 766.01868 512" width="766.01868" xmlns="http://www.w3.org/2000/svg" xmlns:xlink="http://www.w3.org/1999/xlink"><clipPath id="a"><path d="m0 384h574.514v-384h-574.514z" transform="translate(-285.37381 -267.01221)"/></clipPath><clipPath id="b"><path d="m0 384h574.514v-384h-574.514z" transform="translate(-380.38601 -163.80081)"/></clipPath><clipPath id="c"><path d="m0 384h574.514v-384h-574.514z"/></clipPath><clipPath id="d"><path d="m0 384h574.514v-384h-574.514z"/></clipPath><clipPath id="e"><path d="m0 384h574.514v-384h-574.514z" transform="translate(-195.07011 -163.875)"/></clipPath><clipPath id="f"><path d="m0 384h574.514v-384h-574.514z" transform="translate(-195.07011 -163.80081)"/></clipPath><clipPath id="g"><path d="m0 384h574.514v-384h-574.514z" transform="translate(-190.824 -158.7696)"/></clipPath><clipPath id="h"><path d="m0 384h574.514v-384h-574.514z"/></clipPath><clipPath id="i"><path d="m0 384h574.514v-384h-574.514z"/></clipPath><clipPath id="j"><path d="m0 384h574.514v-384h-574.514z"/></clipPath><clipPath id="k"><path d="m0 384h574.514v-384h-574.514z"/></clipPath><clipPath id="l"><path d="m0 384h574.514v-384h-574.514z"/></clipPath><clipPath id="m"><path d="m0 384h574.514v-384h-574.514z" transform="translate(-382.78061 -158.7696)"/></clipPath><clipPath id="n"><path d="m0 384h574.514v-384h-574.514z"/></clipPath><clipPath id="o"><path d="m0 384h574.514v-384h-574.514z"/></clipPath><clipPath id="p"><path d="m0 384h574.514v-384h-574.514z" transform="translate(-315.10481 -158.7696)"/></clipPath><clipPath id="q"><path d="m0 384h574.514v-384h-574.514z"/></clipPath><clipPath id="r"><path d="m0 384h574.514v-384h-574.514z"/></clipPath><clipPath id="s"><path d="m0 384h574.514v-384h-574.514z" transform="translate(-261.28791 -216.73)"/></clipPath><clipPath id="t"><path d="m0 384h574.514v-384h-574.514z" transform="translate(-261.28791 -216.73)"/></clipPath><clipPath id="u"><path d="m0 384h574.514v-384h-574.514z" transform="translate(-306.11261 -158.7696)"/></clipPath><clipPath id="v"><path d="m0 384h574.514v-384h-574.514z" transform="translate(-310.72591 -192.688)"/></clipPath><clipPath id="w"><path d="m0 384h574.514v-384h-574.514z"/></clipPath><clipPath id="x"><path d="m0 384h574.514v-384h-574.514z" transform="translate(-192.5188 -158.7696)"/></clipPath><clipPath id="y"><path d="m0 384h574.514v-384h-574.514z"/></clipPath><clipPath id="z"><path d="m0 384h574.514v-384h-574.514z"/></clipPath><clipPath id="A"><path d="m0 384h574.514v-384h-574.514z" transform="translate(-230.4949 -158.7696)"/></clipPath><clipPath id="B"><path d="m0 384h574.514v-384h-574.514z" transform="translate(-226.51881 -158.7696)"/></clipPath><clipPath id="C"><path d="m0 384h574.514v-384h-574.514z" transform="translate(-374.28451 -158.7696)"/></clipPath><clipPath id="D"><path d="m0 384h574.514v-384h-574.514z" transform="translate(-370.30401 -158.7696)"/></clipPath><clipPath id="E"><path d="m0 384h574.514v-384h-574.514z" transform="translate(-211.37821 -187.9453)"/></clipPath><clipPath id="F"><path d="m0 384h574.514v-384h-574.514z" transform="translate(-298.68291 -158.7696)"/></clipPath><clipPath id="G"><path d="m0 384h574.514v-384h-574.514z"/></clipPath><clipPath id="H"><path d="m0 384h574.514v-384h-574.514z"/></clipPath><clipPath id="I"><path d="m0 384h574.514v-384h-574.514z"/></clipPath><clipPath id="J"><path d="m0 384h574.514v-384h-574.514z" transform="translate(-296.30011 -194.355)"/></clipPath><clipPath id="K"><path d="m0 384h574.514v-384h-574.514z" transform="translate(-303.04621 -214.648)"/></clipPath><clipPath id="L"><path d="m0 384h574.514v-384h-574.514z" transform="translate(-276.66291 -211.8628)"/></clipPath><clipPath id="M"><path d="m0 384h574.514v-384h-574.514z"/></clipPath><clipPath id="N"><path d="m0 384h574.514v-384h-574.514z"/></clipPath><clipPath id="O"><path d="m0 384h574.514v-384h-574.514z" transform="translate(-190.824 -158.7696)"/></clipPath><clipPath id="P"><path d="m0 384h574.514v-384h-574.514z"/></clipPath><clipPath id="Q"><path d="m0 384h574.514v-384h-574.514z" transform="translate(-194.2918 -211.3828)"/></clipPath><clipPath id="R"><path d="m0 384h574.514v-384h-574.514z" transform="translate(-194.36601 -197.668)"/></clipPath><clipPath id="S"><path d="m0 384h574.514v-384h-574.514z"/></clipPath><clipPath id="T"><path d="m0 384h574.514v-384h-574.514z" transform="translate(-235.8079 -204.01611)"/></clipPath><clipPath id="U"><path d="m0 384h574.514v-384h-574.514z" transform="translate(-273.38211 -214.648)"/></clipPath><clipPath id="V"><path d="m0 384h574.514v-384h-574.514z" transform="translate(-279.45591 -253.73781)"/></clipPath><clipPath id="W"><path d="m0 384h574.514v-384h-574.514z" transform="translate(-286.0228 -251.3482)"/></clipPath><clipPath id="X"><path d="m0 384h574.514v-384h-574.514z" transform="translate(-277.50711 -248.605)"/></clipPath><clipPath id="Y"><path d="m0 384h574.514v-384h-574.514z" transform="translate(-285.87381 -245.836)"/></clipPath><clipPath id="Z"><path d="m0 384h574.514v-384h-574.514z" transform="translate(-275.5618 -242.37501)"/></clipPath><clipPath id="aa"><path d="m0 384h574.514v-384h-574.514z" transform="translate(-285.60481 -237.25)"/></clipPath><clipPath id="ab"><path d="m0 384h574.514v-384h-574.514z" transform="translate(-293.63601 -232.168)"/></clipPath><clipPath id="ac"><path d="m0 384h574.514v-384h-574.514z" transform="translate(-279.03111 -223.02301)"/></clipPath><clipPath id="ad"><path d="m0 384h574.514v-384h-574.514z" transform="translate(-272.8699 -226.08601)"/></clipPath><clipPath id="ae"><path d="m0 384h574.514v-384h-574.514z" transform="translate(-296.09701 -232.168)"/></clipPath><clipPath id="af"><path d="m0 384h574.514v-384h-574.514z" transform="translate(-296.929 -223.02301)"/></clipPath><clipPath id="ag"><path d="m0 384h574.514v-384h-574.514z" transform="translate(-299.23371 -211.78911)"/></clipPath><clipPath id="ah"><path d="m0 384h574.514v-384h-574.514z" transform="translate(-297.8548 -197.773)"/></clipPath><clipPath id="ai"><path d="m0 384h574.514v-384h-574.514z"/></clipPath><clipPath id="aj"><path d="m0 384h574.514v-384h-574.514z"/></clipPath><clipPath id="ak"><path d="m0 384h574.514v-384h-574.514z"/></clipPath><clipPath id="al"><path d="m0 384h574.514v-384h-574.514z"/></clipPath><clipPath id="am"><path d="m0 384h574.514v-384h-574.514z" transform="translate(-296.27281 -187.9453)"/></clipPath><clipPath id="an"><path d="m0 384h574.514v-384h-574.514z" transform="translate(-237.76491 -197.668)"/></clipPath><clipPath id="ao"><path d="m0 384h574.514v-384h-574.514z"/></clipPath><clipPath id="ap"><path d="m0 384h574.514v-384h-574.514z"/></clipPath><clipPath id="aq"><path d="m0 384h574.514v-384h-574.514z"/></clipPath><clipPath id="ar"><path d="m0 384h574.514v-384h-574.514z" transform="translate(-200.79181 -190.40241)"/></clipPath><clipPath id="as"><path d="m0 384h574.514v-384h-574.514z" transform="translate(-218.0071 -230.0782)"/></clipPath><clipPath id="at"><path d="m0 384h574.514v-384h-574.514z" transform="translate(-218.94121 -225.37891)"/></clipPath><clipPath id="au"><path d="m0 384h574.514v-384h-574.514z" transform="translate(-219.06621 -219.02301)"/></clipPath><clipPath id="av"><path d="m0 384h574.514v-384h-574.514z" transform="translate(-219.82011 -212.77011)"/></clipPath><clipPath id="aw"><path d="m0 384h574.514v-384h-574.514z" transform="translate(-221.10921 -201.23001)"/></clipPath><clipPath id="ax"><path d="m0 384h574.514v-384h-574.514z" transform="translate(-221.10921 -194.4058)"/></clipPath><clipPath id="ay"><path d="m0 384h574.514v-384h-574.514z" transform="translate(-222.5311 -190.4385)"/></clipPath><clipPath id="az"><path d="m0 384h574.514v-384h-574.514z" transform="translate(-225.0853 -187.9453)"/></clipPath><clipPath id="aA"><path d="m0 384h574.514v-384h-574.514z" transform="translate(-194.2918 -211.3828)"/></clipPath><clipPath id="aB"><path d="m0 384h574.514v-384h-574.514z" transform="translate(-194.36601 -197.668)"/></clipPath><clipPath id="aC"><path d="m0 384h574.514v-384h-574.514z" transform="translate(-235.8079 -204.01611)"/></clipPath><clipPath id="aD"><path d="m0 384h574.514v-384h-574.514z" transform="translate(-237.76491 -197.773)"/></clipPath><clipPath id="aE"><path d="m0 384h574.514v-384h-574.514z" transform="translate(-381.11651 -211.3828)"/></clipPath><clipPath id="aF"><path d="m0 384h574.514v-384h-574.514z" transform="translate(-344.48761 -190.40241)"/></clipPath><clipPath id="aG"><path d="m0 384h574.514v-384h-574.514z" transform="translate(-361.70641 -230.0782)"/></clipPath><clipPath id="aH"><path d="m0 384h574.514v-384h-574.514z" transform="translate(-362.63601 -225.37891)"/></clipPath><clipPath id="aI"><path d="m0 384h574.514v-384h-574.514z" transform="translate(-362.76101 -219.02301)"/></clipPath><clipPath id="aJ"><path d="m0 384h574.514v-384h-574.514z" transform="translate(-363.51891 -212.77011)"/></clipPath><clipPath id="aK"><path d="m0 384h574.514v-384h-574.514z" transform="translate(-364.80401 -201.23001)"/></clipPath><clipPath id="aL"><path d="m0 384h574.514v-384h-574.514z" transform="translate(-364.80401 -194.4058)"/></clipPath><clipPath id="aM"><path d="m0 384h574.514v-384h-574.514z" transform="translate(-366.22981 -190.4385)"/></clipPath><clipPath id="aN"><path d="m0 384h574.514v-384h-574.514z" transform="translate(-381.04231 -197.668)"/></clipPath><clipPath id="aO"><path d="m0 384h574.514v-384h-574.514z" transform="translate(-339.60091 -204.01611)"/></clipPath><clipPath id="aP"><path d="m0 384h574.514v-384h-574.514z" transform="translate(-337.64781 -197.668)"/></clipPath><clipPath id="aQ"><path d="m0 384h574.514v-384h-574.514z" transform="translate(-339.60091 -204.01611)"/></clipPath><clipPath id="aR"><path d="m0 384h574.514v-384h-574.514z" transform="translate(-337.64781 -197.668)"/></clipPath><clipPath id="aS"><path d="m0 384h574.514v-384h-574.514z" transform="translate(-304.69071 -216.5782)"/></clipPath><clipPath id="aT"><path d="m0 384h574.514v-384h-574.514z" transform="translate(-270.28111 -216.5782)"/></clipPath><clipPath id="aU"><path d="m0 384h574.514v-384h-574.514z" transform="translate(-368.85871 -188.0235)"/></clipPath><clipPath id="aV"><path d="m0 384h574.514v-384h-574.514z"/></clipPath><clipPath id="aW"><path d="m0 384h574.514v-384h-574.514z"/></clipPath><clipPath id="aX"><path d="m0 384h574.514v-384h-574.514z"/></clipPath><clipPath id="aY"><path d="m0 384h574.514v-384h-574.514z"/></clipPath><clipPath id="aZ"><path d="m0 384h574.514v-384h-574.514z"/></clipPath><clipPath id="a0"><path d="m0 384h574.514v-384h-574.514z"/></clipPath><clipPath id="a1"><path d="m0 384h574.514v-384h-574.514z"/></clipPath><clipPath id="a2"><path d="m0 384h574.514v-384h-574.514z" transform="translate(-211.2532 -117.08601)"/></clipPath><clipPath id="a3"><path d="m0 384h574.514v-384h-574.514z"/></clipPath><clipPath id="a4"><path d="m0 384h574.514v-384h-574.514z"/></clipPath><clipPath id="a5"><path d="m0 384h574.514v-384h-574.514z" transform="translate(-283.23811 -117.07821)"/></clipPath><clipPath id="a6"><path d="m0 384h574.514v-384h-574.514z"/></clipPath><clipPath id="a7"><path d="m0 384h574.514v-384h-574.514z"/></clipPath><clipPath id="a8"><path d="m0 384h574.514v-384h-574.514z" transform="translate(-355.03841 -117.08601)"/></clipPath><clipPath id="a9"><path d="m0 384h574.514v-384h-574.514z"/></clipPath><clipPath id="ba"><path d="m0 384h574.514v-384h-574.514z"/></clipPath><clipPath id="bb"><path d="m0 384h574.514v-384h-574.514z"/></clipPath><clipPath id="bc"><path d="m0 384h574.514v-384h-574.514z"/></clipPath><clipPath id="bd"><path d="m0 384h574.514v-384h-574.514z"/></clipPath><clipPath id="be"><path d="m0 384h574.514v-384h-574.514z"/></clipPath><clipPath id="bf"><path d="m0 384h574.514v-384h-574.514z" transform="translate(-280.3162 -258.83211)"/></clipPath><clipPath id="bg"><path d="m0 384h574.514v-384h-574.514z" transform="translate(-281.3353 -261.8911)"/></clipPath><clipPath id="bh"><path d="m0 384h574.514v-384h-574.514z" transform="translate(-283.40611 -264.4492)"/></clipPath><path d="m0 96h574.514v192h-574.514z" fill="#e00025" transform="matrix(1.3333333 0 0 -1.3333333 0 512)"/><path d="m0 288h574.514v96h-574.514z" fill="#032ea1" transform="matrix(1.3333333 0 0 -1.3333333 0 512)"/><path d="m0 0h574.514v96h-574.514z" fill="#032ea1" transform="matrix(1.3333333 0 0 -1.3333333 0 512)"/><g fill="#fff"><path clip-path="url(#a)" d="m0 0s-.136 3.945 2.164 3.988c2.297-.043 2.161-3.988 2.161-3.988z" stroke="#000" stroke-width=".72" transform="matrix(1.3333333 0 0 -1.3333333 380.4984 155.98373)"/><path clip-path="url(#b)" d="m0 0v19.699c.641 2.496 2.762 4.707 4.359 5.149v18.476c-2.414 0-3.593-3.145-3.593-3.145l-4.102-18.058v-21.969z" stroke="#000" stroke-width=".72" transform="matrix(1.3333333 0 0 -1.3333333 507.18133 293.59893)"/><path clip-path="url(#c)" d="m338.683 203.012h5.914v-12.531h-5.914z" stroke="#000" stroke-linecap="square" stroke-linejoin="bevel" stroke-width=".775" transform="matrix(1.3333333 0 0 -1.3333333 0 512)"/><path clip-path="url(#d)" d="m233.558 203.012h109.246v-42.036h-109.246z" stroke="#000" stroke-linejoin="bevel" stroke-width=".72" transform="matrix(1.3333333 0 0 -1.3333333 0 512)"/><path clip-path="url(#e)" d="m0 0v19.625c-.641 2.496-2.762 4.707-4.36 5.148v17.274l3.594-1.942 4.102-18.058v-22.047z" stroke="#000" stroke-width=".72" transform="matrix(1.3333333 0 0 -1.3333333 260.09347 293.5)"/><path clip-path="url(#f)" d="m0 0v19.699c-.641 2.496-2.762 4.707-4.36 5.149v18.476c2.414 0 3.594-3.145 3.594-3.145l4.102-18.058v-21.969z" stroke="#000" stroke-width=".72" transform="matrix(1.3333333 0 0 -1.3333333 260.09347 293.59893)"/><path clip-path="url(#g)" d="m0 0c1.687.859 3.617 2.863 4.246 5.105h185.351c.633-2.242 2.559-4.246 4.25-5.105z" stroke="#000" stroke-width=".72" transform="matrix(1.3333333 0 0 -1.3333333 254.432 300.3072)"/><path clip-path="url(#h)" d="m337.159 179.805h3.444v-15.836h-3.444z" stroke="#000" stroke-linecap="square" stroke-linejoin="bevel" stroke-width=".72" transform="matrix(1.3333333 0 0 -1.3333333 0 512)"/><path clip-path="url(#i)" d="m233.558 187.629h109.246v-4.887h-109.246z" stroke="#000" stroke-linejoin="bevel" stroke-width=".72" transform="matrix(1.3333333 0 0 -1.3333333 0 512)"/><path clip-path="url(#j)" d="m233.558 194.25h109.246v-4.309h-109.246z" stroke="#000" stroke-linejoin="bevel" stroke-width=".72" transform="matrix(1.3333333 0 0 -1.3333333 0 512)"/><path clip-path="url(#k)" d="m233.558 200.867h109.246v-4.18h-109.246z" stroke="#000" stroke-linejoin="bevel" stroke-width=".709" transform="matrix(1.3333333 0 0 -1.3333333 0 512)"/><path clip-path="url(#l)" d="m338.683 203.012h5.914v-12.531h-5.914z" stroke="#000" stroke-linecap="square" stroke-linejoin="bevel" stroke-width=".775" transform="matrix(1.3333333 0 0 -1.3333333 0 512)"/><path clip-path="url(#m)" d="m0 0c-1.66.75-4.078 2.801-4.078 4.867v24.524l1.137 2.028h-41.782l1.629-2.028v-24.524c0-2.066-1.66-4.117-3.32-4.867z" stroke="#000" stroke-width=".72" transform="matrix(1.3333333 0 0 -1.3333333 510.37413 300.3072)"/><path clip-path="url(#n)" d="m262.312 179.805h3.441v-15.836h-3.441z" stroke="#000" stroke-linecap="square" stroke-linejoin="bevel" stroke-width=".72" transform="matrix(1.3333333 0 0 -1.3333333 0 512)"/><path clip-path="url(#o)" d="m309.347 179.805h3.441v-15.836h-3.441z" stroke="#000" stroke-linecap="square" stroke-linejoin="bevel" stroke-width=".72" transform="matrix(1.3333333 0 0 -1.3333333 0 512)"/><path clip-path="url(#p)" d="m0 0c-1.945.75-4.777 2.801-4.777 4.867v23.324l2.531 3.228h-50.664l2.425-3.228v-23.324c0-2.066-1.945-4.117-3.89-4.867z" stroke="#000" stroke-width=".72" transform="matrix(1.3333333 0 0 -1.3333333 420.13973 300.3072)"/><path clip-path="url(#q)" d="m271.202 179.805h3.445v-15.836h-3.445z" stroke="#000" stroke-linecap="square" stroke-linejoin="bevel" stroke-width=".72" transform="matrix(1.3333333 0 0 -1.3333333 0 512)"/><path clip-path="url(#r)" d="m300.308 179.805h3.441v-15.836h-3.441z" stroke="#000" stroke-linecap="square" stroke-linejoin="bevel" stroke-width=".72" transform="matrix(1.3333333 0 0 -1.3333333 0 512)"/><path clip-path="url(#s)" d="m0 0v-26.55h51.86v5.718l.078 20.832c-2.121-.832-2.496-2.753-2.496-2.753v-11.309h-46.801v11.309s-.52 1.921-2.641 2.753" transform="matrix(1.3333333 0 0 -1.3333333 348.38387 223.02667)"/></g><g stroke="#000"><path clip-path="url(#t)" d="m0 0v-26.55h51.86v5.718l.078 20.832c-2.121-.832-2.496-2.753-2.496-2.753v-11.309h-46.801v11.309s-.52 1.921-2.641 2.753z" fill="none" stroke-width=".72" transform="matrix(1.3333333 0 0 -1.3333333 348.38387 223.02667)"/><path clip-path="url(#u)" d="m0 0c-1.695.75-5.387 2.801-5.387 4.867v26.106c.364 1.457 2.336 2.317 3.61 3.222h-34.39c1.635-.866 3.46-1.586 4.112-3.222v-26.106c0-2.066-2.918-4.117-4.612-4.867z" fill="#fff" stroke-width=".72" transform="matrix(1.3333333 0 0 -1.3333333 408.15013 300.3072)"/><path clip-path="url(#v)" d="m0 0v18.8h-4.715v1.832h-37.285v-1.832h-4.715v-18.8z" fill="#fff" stroke-width=".72" transform="matrix(1.3333333 0 0 -1.3333333 414.3012 255.08267)"/><path clip-path="url(#w)" d="m234.421 179.805h3.441v-15.836h-3.441z" fill="#fff" stroke-linecap="square" stroke-linejoin="bevel" stroke-width=".72" transform="matrix(1.3333333 0 0 -1.3333333 0 512)"/><path clip-path="url(#x)" d="m0 0c1.66.75 4.078 2.801 4.078 4.867v24.524l-1.137 2.028h41.781l-1.632-2.028v-24.524c0-2.066 1.66-4.117 3.32-4.867z" fill="#fff" stroke-width=".72" transform="matrix(1.3333333 0 0 -1.3333333 256.69173 300.3072)"/><path clip-path="url(#y)" d="m196.991 206.508h3.859v-14.305h-3.859z" fill="#fff" stroke-linecap="square" stroke-linejoin="bevel" stroke-width=".72" transform="matrix(1.3333333 0 0 -1.3333333 0 512)"/><path clip-path="url(#z)" d="m196.968 209.566h3.859v-3.012h-3.859z" fill="#fff" stroke-linecap="square" stroke-linejoin="bevel" stroke-width=".72" transform="matrix(1.3333333 0 0 -1.3333333 0 512)"/><path clip-path="url(#A)" d="m0 0c-1.66.75-4.078 2.801-4.078 4.867v23.324l3.473 3.228h-28.402l3.472-3.228v-23.324c0-2.066-2.418-4.117-4.078-4.867z" fill="#fff" stroke-width=".72" transform="matrix(1.3333333 0 0 -1.3333333 307.32653 300.3072)"/><path clip-path="url(#B)" d="m0 0c-1.66.75-4.082 2.801-4.082 4.867v21.086l2.277 3.223h-18.047l2.274-3.223v-21.086c0-2.066-2.418-4.117-4.078-4.867z" fill="#fff" stroke-width=".72" transform="matrix(1.3333333 0 0 -1.3333333 302.02507 300.3072)"/><path clip-path="url(#C)" d="m0 0c-1.664.75-4.082 2.801-4.082 4.867v23.324l3.477 3.228h-28.407l3.477-3.228v-23.324c0-2.066-2.418-4.117-4.078-4.867z" fill="#fff" stroke-width=".72" transform="matrix(1.3333333 0 0 -1.3333333 499.046 300.3072)"/><path clip-path="url(#D)" d="m0 0c-1.66.75-4.078 2.801-4.078 4.867v21.086l2.273 3.223h-18.047l2.274-3.223v-21.086c0-2.066-2.418-4.117-4.078-4.867z" fill="#fff" stroke-width=".72" transform="matrix(1.3333333 0 0 -1.3333333 493.73867 300.3072)"/><path clip-path="url(#E)" d="m0 0 8.621.004v-29.18h-8.621z" fill="#fff" stroke-width=".72" transform="matrix(1.3333333 0 0 -1.3333333 281.8376 261.40627)"/><path clip-path="url(#F)" d="m0 0c-1.66.75-4.078 2.801-4.078 4.867v22.285l1.363 2.024h-16.984l1.363-2.024v-22.285c0-2.066-2.418-4.117-4.078-4.867z" fill="#fff" stroke-width=".72" transform="matrix(1.3333333 0 0 -1.3333333 398.24387 300.3072)"/><path clip-path="url(#G)" d="m283.171 187.939h8.608v-29.16h-8.608z" fill="#fff" stroke-width=".736" transform="matrix(1.3333333 0 0 -1.3333333 0 512)"/><path clip-path="url(#H)" d="m355.163 187.949h8.625v-29.181h-8.625z" fill="#fff" stroke-width=".72" transform="matrix(1.3333333 0 0 -1.3333333 0 512)"/><path clip-path="url(#I)" d="m278.839 199.031h17.272v-6.367h-17.272z" fill="#fff" stroke-linejoin="bevel" stroke-width=".72" transform="matrix(1.3333333 0 0 -1.3333333 0 512)"/><path clip-path="url(#J)" d="m0 0c.02 1.922 5.605 2.008 8.48 3.645h-34.515c2.875-1.637 8.328-1.77 8.328-3.645l1.168-3.726 14.289-.57z" fill="#fff" stroke-linejoin="bevel" stroke-width=".72" transform="matrix(1.3333333 0 0 -1.3333333 395.0668 252.86)"/><path clip-path="url(#K)" d="m0 0c0 4.704.199 6.516 1.645 6.516v-14.957c-3.547-1.285-6.075-5.809-6.075-5.809h-22.281s-2.531 4.524-6.074 5.809v14.957c1.781 0 1.793-1.894 1.793-6.516z" fill="#fff" stroke-width=".72" transform="matrix(1.3333333 0 0 -1.3333333 404.0616 225.80267)"/><path clip-path="url(#L)" d="m0 0c2.871-3.445 2.606-9.293 2.575-12.738h16.648c-.031 3.445-.301 9.293 2.57 12.738z" fill="#fff" stroke-width=".72" transform="matrix(1.3333333 0 0 -1.3333333 368.88387 229.51627)"/><path clip-path="url(#M)" d="m199.648 179.805h3.441v-15.836h-3.441z" fill="#fff" stroke-linecap="square" stroke-linejoin="bevel" stroke-width=".72" transform="matrix(1.3333333 0 0 -1.3333333 0 512)"/><path clip-path="url(#N)" d="m374.558 206.508h3.859v-14.305h-3.859z" fill="#fff" stroke-linecap="square" stroke-linejoin="bevel" stroke-width=".72" transform="matrix(1.3333333 0 0 -1.3333333 0 512)"/><path clip-path="url(#O)" d="m0 0c1.687.859 3.617 2.863 4.246 5.105h185.351c.633-2.242 2.559-4.246 4.25-5.105z" fill="none" stroke-width=".72" transform="matrix(1.3333333 0 0 -1.3333333 254.432 300.3072)"/><path clip-path="url(#P)" d="m229.163 179.805h3.445v-15.836h-3.445z" fill="#fff" stroke-linecap="square" stroke-linejoin="bevel" stroke-width=".72" transform="matrix(1.3333333 0 0 -1.3333333 0 512)"/><path clip-path="url(#Q)" d="m0 0v-21.194h2.41v21.249c-.867.437-1.683.503-2.41-.055" fill="#fff" stroke-width=".72" transform="matrix(1.3333333 0 0 -1.3333333 259.05573 230.15627)"/><path clip-path="url(#R)" d="m0 0c2.989-1.527 5.95-3.297 6.7-7.479h-6.7z" fill="#fff" stroke-width=".72" transform="matrix(1.3333333 0 0 -1.3333333 259.15467 248.44267)"/><path clip-path="url(#S)" d="m230.816 203.012h5.914v-12.531h-5.914z" fill="#fff" stroke-linecap="square" stroke-linejoin="bevel" stroke-width=".775" transform="matrix(1.3333333 0 0 -1.3333333 0 512)"/><path clip-path="url(#T)" d="m0 0v-13.828h1.957v13.863c-.613.289-1.445.332-1.957-.035" fill="#fff" stroke-width=".72" transform="matrix(1.3333333 0 0 -1.3333333 314.41053 239.97853)"/><path clip-path="url(#U)" d="m0 0v5.317c-.074 2.656-2.648 2.847-2.723 4.785 0 0-.332 2.906.434 4.234 1.039-3.886 2.934-3.172 2.934-1.574 0 1.395-1.075 2.692-3.274 6.074-.703 1.082-.265 4.477.719 5.688.383-2.949.816-4.36 2.082-4.36.773 0 1.406.504 1.406 1.981 0 1.879-1.273 2.828-1.898 4.535-.731 1.996-.227 4.027.984 5.164.52-2.906.367-4.066 1.656-4.066 2.606.824 0 4.594-.554 5.547-.641 1.109.859 3.32.859 3.32.828-2.582 1.094-2.793 1.988-2.555 1.125.305.981 1.977-.394 3.324-.867.856-.777 2.126.156 3.145.938-1.828 2.133-1.719 2.25-.633l-.754 4.219h16.566l-.824-4.078c-.234-1.168 1.34-1.422 2.321.492.933-1.019 1.023-2.289.156-3.145-1.375-1.347-1.52-3.019-.395-3.324.895-.238 1.16-.027 1.989 2.555 0 0 1.347-1.508.859-3.32-.555-.953-3.16-4.723-.555-5.547 1.293 0 1.137 1.16 1.657 4.066 1.21-1.137 1.714-3.168.984-5.164-.625-1.707-1.899-2.656-1.899-4.535 0-1.477.633-1.981 1.407-1.981 1.265 0 1.699 1.411 2.082 4.36.984-1.211 1.422-4.606.718-5.688-2.199-3.382-3.273-4.679-3.273-6.074 0-1.598 1.895-2.312 2.934 1.574.765-1.328.433-4.234.433-4.234-.074-1.938-2.648-2.129-2.722-4.785v-5.317z" fill="#fff" stroke-width=".72" transform="matrix(1.3333333 0 0 -1.3333333 364.50947 225.80267)"/><path clip-path="url(#V)" d="m0 0h16.446" fill="none" stroke-width=".6" transform="matrix(1.3333333 0 0 -1.3333333 372.60787 173.68293)"/><path clip-path="url(#W)" d="m0 0-2.282 1.175v3.356c.934-.281 1.981-.395 2.083-1.879.328 2.121.91 2.016 1.832 2.844.918-.828 1.504-.723 1.828-2.844.105 1.484 1.152 1.598 2.082 1.879v-3.356l-2.281-1.175z" fill="#fff" stroke-width=".72" transform="matrix(1.3333333 0 0 -1.3333333 381.36373 176.86907)"/><path clip-path="url(#X)" d="m0 0h20.086" fill="none" stroke-width=".6" transform="matrix(1.3333333 0 0 -1.3333333 370.00947 180.52667)"/><path clip-path="url(#Y)" d="m0 0-3.789 2.605v3.094c1.328-.308 2.817-.433 2.965-2.062.461 2.328 1.297 3.527 2.606 4.433 1.308-.906 2.144-2.105 2.605-4.433.145 1.629 1.637 1.754 2.965 2.062v-3.094l-3.789-2.605z" fill="#fff" stroke-width=".72" transform="matrix(1.3333333 0 0 -1.3333333 381.16507 184.21867)"/><path clip-path="url(#Z)" d="m0 0h23.91" fill="none" stroke-width=".6" transform="matrix(1.3333333 0 0 -1.3333333 367.41573 188.83333)"/><path clip-path="url(#aa)" d="m0 0-4.356 3.828v4.543c1.528-.449 3.242-.633 3.41-3.027.532 3.418 1.489 5.183 2.997 6.515 1.508-1.332 2.465-3.097 2.996-6.515.168 2.394 1.883 2.578 3.41 3.027v-4.543l-4.355-3.828z" fill="#fff" stroke-width=".72" transform="matrix(1.3333333 0 0 -1.3333333 380.8064 195.66667)"/><path clip-path="url(#ab)" d="m0 0-3.941-5.449h-4.457l-3.942 5.449z" fill="#fff" stroke-width=".72" transform="matrix(1.3333333 0 0 -1.3333333 391.51467 202.44267)"/><path clip-path="url(#ac)" d="m0 0c1.968-1.078 2.699-3.222 2.91-7.25h11.086c.211 4.028.937 6.172 2.91 7.25z" fill="#fff" stroke-width=".72" transform="matrix(1.3333333 0 0 -1.3333333 372.04147 214.636)"/><path clip-path="url(#ad)" d="m0 0h29.211m-28.558 8.676h28.355" fill="none" stroke-width=".6" transform="matrix(1.3333333 0 0 -1.3333333 363.82653 210.552)"/><path clip-path="url(#ae)" d="m0 0v5.477c-1.871-.516-3.082-1.625-3.621-3.129 0 1.816-2.395 6.007-5 8.093-2.617-2.336-5.047-6.125-5-8.093-.445 1.433-1.75 2.613-3.625 3.129v-5.477z" fill="#fff" stroke-linejoin="bevel" stroke-width=".72" transform="matrix(1.3333333 0 0 -1.3333333 394.796 202.44267)"/><path clip-path="url(#af)" d="m0 0v5.473c-2.055-.516-3.383-1.621-3.973-3.125 0 1.817-2.621 6.008-5.48 8.09-2.867-2.332-5.535-6.125-5.481-8.09-.488 1.43-1.921 2.609-3.972 3.125v-5.473z" fill="#fff" stroke-linejoin="bevel" stroke-width=".72" transform="matrix(1.3333333 0 0 -1.3333333 395.90533 214.636)"/><path clip-path="url(#ag)" d="m0 0v6.316c-2.551-.66-4.137-2.546-4.941-3.648 0 3.418-3.86 8.629-6.817 10.336-3.034-1.75-6.817-7.137-6.817-10.336-.823 1.094-2.39 2.988-4.945 3.648v-6.316z" fill="#fff" stroke-linejoin="bevel" stroke-width=".72" transform="matrix(1.3333333 0 0 -1.3333333 398.97827 229.61453)"/><path clip-path="url(#ah)" d="m0 0v6.493c-2.254-.883-2.926-3.055-3.637-4.528.278 6.586-3.707 13.66-6.742 15.457-3.035-1.797-7.098-9.023-6.742-15.457-.731 1.465-1.383 3.645-3.637 4.528v-6.493z" fill="#fff" stroke-linejoin="bevel" stroke-width=".72" transform="matrix(1.3333333 0 0 -1.3333333 397.13973 248.30267)"/><path clip-path="url(#ai)" d="m374.585 209.566h3.854v-3.012h-3.854z" fill="#fff" stroke-linecap="square" stroke-linejoin="bevel" stroke-width=".72" transform="matrix(1.3333333 0 0 -1.3333333 0 512)"/><path clip-path="url(#aj)" d="m342.738 179.805h3.445v-15.836h-3.445z" fill="#fff" stroke-linecap="square" stroke-linejoin="bevel" stroke-width=".72" transform="matrix(1.3333333 0 0 -1.3333333 0 512)"/><path clip-path="url(#ak)" d="m372.257 179.805h3.44v-15.836h-3.44z" fill="#fff" stroke-linecap="square" stroke-linejoin="bevel" stroke-width=".72" transform="matrix(1.3333333 0 0 -1.3333333 0 512)"/><path clip-path="url(#al)" d="m278.839 197.77h17.315v-6.367h-17.315zm-14.828.003h46.715" fill="none" stroke-width=".72" transform="matrix(1.3333333 0 0 -1.3333333 0 512)"/><g fill="#fff"><path clip-path="url(#am)" d="m0 0v6.493c-2.359-.559-2.504-1.431-3.254-2.884.277 3.93-2.508 8.419-5.543 10.212-3.035-1.793-5.82-6.282-5.543-10.212-.75 1.453-.844 2.325-3.258 2.884v-6.493z" stroke-width=".72" transform="matrix(1.3333333 0 0 -1.3333333 395.0304 261.40627)"/><path clip-path="url(#an)" d="m0 0c-2.988-1.527-5.949-3.297-6.699-7.479h6.699z" stroke-width=".72" transform="matrix(1.3333333 0 0 -1.3333333 317.01987 248.44267)"/><path clip-path="url(#ao)" d="m196.702 206.508h4.148v-16.233h-4.148z" stroke-linecap="square" stroke-linejoin="bevel" stroke-width=".72" transform="matrix(1.3333333 0 0 -1.3333333 0 512)"/><path clip-path="url(#ap)" d="m196.702 209.566h4.125v-3.012h-4.125z" stroke-linecap="square" stroke-linejoin="bevel" stroke-width=".72" transform="matrix(1.3333333 0 0 -1.3333333 0 512)"/><path clip-path="url(#aq)" d="m230.816 203.012h5.914v-12.531h-5.914z" stroke-linecap="square" stroke-linejoin="bevel" stroke-width=".775" transform="matrix(1.3333333 0 0 -1.3333333 0 512)"/><path clip-path="url(#ar)" d="m0 0v27.782c1.184 0 1.364-4.072 4.078-4.072 1.414 0 1.262 1.685.469 3.06-.703 1.219-1.57 2.897-.391 6.027.809-2.394 2.989-3.156 2.586-1.652-.691 2.582-2.683 3.003-1.187 7.008.516-3.34 2.66-3.193 2.141-1.25-.586 2.187-1.801 3.086-.305 6.172.84-3.504 1.973-3.297 1.973-1.125 0 3.214-.125 6.679 4.031 7.964 0 0 .242 2.946 1.742 2.946s1.738-2.946 1.738-2.946c4.16-1.285 4.035-4.75 4.035-7.964 0-2.172 1.133-2.379 1.969 1.125 1.496-3.086.285-3.985-.301-6.172-.523-1.943 1.621-2.09 2.141 1.25 1.492-4.005-.496-4.426-1.187-7.008-.403-1.504 1.773-.742 2.582 1.652 1.183-3.13.312-4.808-.391-6.027-.793-1.375-.941-3.06.469-3.06 2.714 0 2.898 4.072 4.082 4.072v-27.782z" stroke-width=".72" transform="matrix(1.3333333 0 0 -1.3333333 267.7224 258.13013)"/><path clip-path="url(#as)" d="m0 0 1.742 1.465v1.875c-.636-.063-.984-.281-1.453-.898-.402 1.242-1.281 2.214-2.461 2.816-1.179-.602-2.058-1.527-2.461-2.774-.468.618-.816.793-1.453.856v-1.875l1.742-1.465z" stroke-width=".72" transform="matrix(1.3333333 0 0 -1.3333333 290.67613 205.22907)"/><path clip-path="url(#at)" d="m0 0 .808 1.754v2.437c-.636-.062-.984-.285-1.453-.91-.402 1.258-1.281 2.242-2.461 2.856-1.179-.614-2.058-1.551-2.461-2.813-.468.625-.816.805-1.453.867v-2.437l.809-1.754z" stroke-width=".72" transform="matrix(1.3333333 0 0 -1.3333333 291.9216 211.4948)"/><path clip-path="url(#au)" d="m0 0 2.586 3.153v3.113c-.946-.105-1.465-.48-2.164-1.539-.594 2.133-1.899 2.598-3.653 3.633-1.754-1.035-3.058-1.426-3.652-3.559-.699 1.059-1.219 1.36-2.164 1.465v-3.113l2.586-3.153z" stroke-width=".72" transform="matrix(1.3333333 0 0 -1.3333333 292.08827 219.96933)"/><path clip-path="url(#av)" d="m0 0s3.015 2.628 3.195 4.074v3.328c-1.168-.137-2.274-.442-3.137-1.809-.734 2.758-1.879 3.524-4.043 4.86-2.164-1.336-3.308-2.102-4.043-4.86-.863 1.367-1.968 1.672-3.136 1.809v-3.328c.378-1.446 3.195-4.074 3.195-4.074z" stroke-width=".72" transform="matrix(1.3333333 0 0 -1.3333333 293.09347 228.30653)"/><path clip-path="url(#aw)" d="m0 0s4.129 4.571 4.222 6.352v5.188c-1.547-.215-3.007-1.278-4.148-3.411-.973 4.297-2.488 7.293-5.348 9.375-2.859-2.082-4.375-5.078-5.347-9.375-1.141 2.133-2.602 3.196-4.149 3.411v-5.188c.297-1.781 4.223-6.352 4.223-6.352z" stroke-width=".72" transform="matrix(1.3333333 0 0 -1.3333333 294.81227 243.69333)"/><path clip-path="url(#ax)" d="m0 0s3.527 3.594 4.222 5.153v5.191c-1.547-.215-3.007-1.277-4.148-3.41-.973 4.297-2.488 6.754-5.348 8.84-2.859-2.086-4.375-4.543-5.347-8.84-1.141 2.133-2.602 3.195-4.149 3.41v-5.191c.899-1.559 4.223-5.153 4.223-5.153z" stroke-width=".72" transform="matrix(1.3333333 0 0 -1.3333333 294.81227 252.79227)"/><path clip-path="url(#ay)" d="m0 0c-1.032 4.479-1.915 7.804-6.875 11.17-4.961-3.366-5.848-6.691-6.875-11.17z" stroke-width=".72" transform="matrix(1.3333333 0 0 -1.3333333 296.70813 258.082)"/><path clip-path="url(#az)" d="m0 0v6.493c-2.254-.883-4.289-2.188-5.039-3.641-.84 3.601-2.457 5.19-4.469 7.371-2.011-2.181-3.359-3.77-4.199-7.371-.75 1.453-2.785 2.758-5.039 3.641v-6.493z" stroke-width=".72" transform="matrix(1.3333333 0 0 -1.3333333 300.11373 261.40627)"/><path clip-path="url(#aA)" d="m0 0v-21.194h2.41v21.249c-.867.437-1.683.503-2.41-.055" stroke-width=".72" transform="matrix(1.3333333 0 0 -1.3333333 259.05573 230.15627)"/><path clip-path="url(#aB)" d="m0 0c2.989-1.527 5.95-3.297 6.7-7.479h-6.7z" stroke-width=".72" transform="matrix(1.3333333 0 0 -1.3333333 259.15467 248.44267)"/><path clip-path="url(#aC)" d="m0 0v-13.828h1.957v13.863c-.613.289-1.445.332-1.957-.035" stroke-width=".72" transform="matrix(1.3333333 0 0 -1.3333333 314.41053 239.97853)"/><path clip-path="url(#aD)" d="m0 0c-2.988-1.527-5.949-3.293-6.699-7.48h6.699z" stroke-width=".72" transform="matrix(1.3333333 0 0 -1.3333333 317.01987 248.30267)"/><path clip-path="url(#aE)" d="m0 0v-21.194h-2.41v21.249c.871.437 1.683.503 2.41-.055" stroke-width=".72" transform="matrix(1.3333333 0 0 -1.3333333 508.15533 230.15627)"/><path clip-path="url(#aF)" d="m0 0v27.782c1.184 0 1.367-4.072 4.078-4.072 1.414 0 1.266 1.685.473 3.06-.703 1.219-1.574 2.897-.391 6.027.809-2.394 2.985-3.156 2.582-1.652-.691 2.582-2.68 3.003-1.187 7.008.519-3.34 2.664-3.193 2.14-1.25-.586 2.187-1.797 3.086-.3 6.172.835-3.504 1.968-3.297 1.968-1.125 0 3.214-.125 6.679 4.035 7.964 0 0 .239 2.946 1.739 2.946s1.742-2.946 1.742-2.946c4.156-1.285 4.031-4.75 4.031-7.964 0-2.172 1.133-2.379 1.973 1.125 1.492-3.086.281-3.985-.305-6.172-.519-1.943 1.625-2.09 2.141 1.25 1.496-4.005-.496-4.426-1.188-7.008-.402-1.504 1.778-.742 2.586 1.652 1.18-3.13.313-4.808-.39-6.027-.793-1.375-.946-3.06.468-3.06 2.715 0 2.895 4.072 4.078 4.072v-27.782z" stroke-width=".72" transform="matrix(1.3333333 0 0 -1.3333333 459.3168 258.13013)"/><path clip-path="url(#aG)" d="m0 0 1.742 1.465v1.875c-.637-.063-.984-.281-1.457-.898-.398 1.242-1.281 2.214-2.461 2.816-1.179-.602-2.058-1.527-2.457-2.774-.472.618-.82.793-1.457.856v-1.875l1.742-1.465z" stroke-width=".72" transform="matrix(1.3333333 0 0 -1.3333333 482.2752 205.22907)"/><path clip-path="url(#aH)" d="m0 0 .812 1.754v2.437c-.636-.062-.984-.285-1.457-.91-.398 1.258-1.281 2.242-2.46 2.856-1.18-.614-2.059-1.551-2.457-2.813-.473.625-.821.805-1.458.867v-2.437l.809-1.754z" stroke-width=".72" transform="matrix(1.3333333 0 0 -1.3333333 483.51467 211.4948)"/><path clip-path="url(#aI)" d="m0 0 2.586 3.153v3.113c-.945-.105-1.461-.48-2.16-1.539-.594 2.133-1.903 2.598-3.656 3.633-1.75-1.035-3.059-1.426-3.653-3.559-.699 1.059-1.215 1.36-2.16 1.465v-3.113l2.586-3.153z" stroke-width=".72" transform="matrix(1.3333333 0 0 -1.3333333 483.68133 219.96933)"/><path clip-path="url(#aJ)" d="m0 0s3.016 2.628 3.191 4.074v3.328c-1.168-.137-2.273-.442-3.136-1.809-.731 2.758-1.879 3.524-4.043 4.86-2.16-1.336-3.309-2.102-4.043-4.86-.864 1.367-1.969 1.672-3.137 1.809v-3.328c.383-1.446 3.195-4.074 3.195-4.074z" stroke-width=".72" transform="matrix(1.3333333 0 0 -1.3333333 484.69187 228.30653)"/><path clip-path="url(#aK)" d="m0 0s4.129 4.571 4.223 6.352v5.188c-1.543-.215-3.004-1.278-4.149-3.411-.969 4.297-2.484 7.293-5.347 9.375-2.86-2.082-4.375-5.078-5.348-9.375-1.141 2.133-2.602 3.196-4.145 3.411v-5.188c.293-1.781 4.223-6.352 4.223-6.352z" stroke-width=".72" transform="matrix(1.3333333 0 0 -1.3333333 486.40533 243.69333)"/><path clip-path="url(#aL)" d="m0 0s3.527 3.594 4.223 5.153v5.191c-1.543-.215-3.004-1.277-4.149-3.41-.969 4.297-2.484 6.754-5.347 8.84-2.86-2.086-4.375-4.543-5.348-8.84-1.141 2.133-2.602 3.195-4.145 3.41v-5.191c.895-1.559 4.223-5.153 4.223-5.153z" stroke-width=".72" transform="matrix(1.3333333 0 0 -1.3333333 486.40533 252.79227)"/><path clip-path="url(#aM)" d="m0 0c-1.031 4.479-1.918 7.804-6.879 11.17-4.961-3.366-5.844-6.691-6.875-11.17z" stroke-width=".72" transform="matrix(1.3333333 0 0 -1.3333333 488.3064 258.082)"/><path clip-path="url(#aN)" d="m0 0c-2.988-1.527-5.625-3.297-6.375-7.479h6.375z" stroke-width=".72" transform="matrix(1.3333333 0 0 -1.3333333 508.0564 248.44267)"/><path clip-path="url(#aO)" d="m0 0v-13.828h-1.953v13.863c.609.289 1.441.332 1.953-.035" stroke-width=".72" transform="matrix(1.3333333 0 0 -1.3333333 452.8012 239.97853)"/><path clip-path="url(#aP)" d="m0 0c2.988-1.527 5.945-3.297 6.695-7.479h-6.695z" stroke-width=".72" transform="matrix(1.3333333 0 0 -1.3333333 450.19707 248.44267)"/><path clip-path="url(#aQ)" d="m0 0v-13.828h-1.953v13.863c.609.289 1.441.332 1.953-.035" stroke-width=".72" transform="matrix(1.3333333 0 0 -1.3333333 452.8012 239.97853)"/><path clip-path="url(#aR)" d="m0 0c2.988-1.527 5.945-3.297 6.695-7.479h-6.695z" stroke-width=".72" transform="matrix(1.3333333 0 0 -1.3333333 450.19707 248.44267)"/><path clip-path="url(#aS)" d="m0 0c0 5.391 4.656 6 4.656 6v-4.801c-1.773.075-2.629-1.515-2.629-3.882 0-2.368 1.43-2.407 1.43-2.407v-13.621h-3.457z" stroke-width=".72" transform="matrix(1.3333333 0 0 -1.3333333 406.25427 223.22907)"/><path clip-path="url(#aT)" d="m0 0c0 5.391-4.657 6-4.657 6v-4.801c1.774.075 2.629-1.515 2.629-3.882 0-2.368-1.429-2.407-1.429-2.407v-13.621h3.457z" stroke-width=".72" transform="matrix(1.3333333 0 0 -1.3333333 360.3748 223.22907)"/><path clip-path="url(#aU)" d="m0 0v6.493c-2.254-.884-4.289-2.192-5.039-3.645-.84 3.606-2.457 5.191-4.469 7.371-2.012-2.18-3.359-3.765-4.199-7.371-.75 1.453-2.785 2.761-5.039 3.645v-6.493z" stroke-width=".72" transform="matrix(1.3333333 0 0 -1.3333333 491.8116 261.302)"/><path clip-path="url(#aV)" d="m169.878 135.051h235.516v-12.026h-235.516z" stroke-width=".72" transform="matrix(1.3333333 0 0 -1.3333333 0 512)"/><path clip-path="url(#aW)" d="m163.671 123.043h247.93v-12.012h-247.93z" stroke-width=".72" transform="matrix(1.3333333 0 0 -1.3333333 0 512)"/><path clip-path="url(#aX)" d="m182.245 153.047h210.781v-7.785h-210.781z" stroke-width=".72" transform="matrix(1.3333333 0 0 -1.3333333 0 512)"/><path clip-path="url(#aY)" d="m176.085 145.316h223.102v-10.199h-223.102z" stroke-width=".72" transform="matrix(1.3333333 0 0 -1.3333333 0 512)"/><path clip-path="url(#aZ)" d="m185.929 159.031h203.414v-5.926h-203.414z" stroke-width=".72" transform="matrix(1.3333333 0 0 -1.3333333 0 512)"/><path clip-path="url(#a0)" d="m208.007 159h15.363v-47.938h-15.363z" stroke-width=".783" transform="matrix(1.3333333 0 0 -1.3333333 0 512)"/><path clip-path="url(#a1)" d="m211.409 159h8.559v-47.938h-8.559z" stroke-width=".782" transform="matrix(1.3333333 0 0 -1.3333333 0 512)"/></g><path clip-path="url(#a2)" d="m0 0h8.875m-8.875 6h8.875m-8.875 6h8.875m-8.875 6h8.875m-8.875 6h8.875m-8.875 6h8.875m-8.875 6h8.875" fill="none" stroke-width=".72" transform="matrix(1.3333333 0 0 -1.3333333 281.67093 355.88533)"/><path clip-path="url(#a3)" d="m279.687 159h15.363v-47.938h-15.363z" fill="#fff" stroke-width=".783" transform="matrix(1.3333333 0 0 -1.3333333 0 512)"/><path clip-path="url(#a4)" d="m283.195 159h8.562v-47.938h-8.562z" fill="#fff" stroke-width=".782" transform="matrix(1.3333333 0 0 -1.3333333 0 512)"/><path clip-path="url(#a5)" d="m0 0h8.261m-8.261 6h8.261m-8.261 6.004h8.261m-8.261 6.004h8.261m-8.261 6.004h8.261m-8.261 6.004h8.261m-8.261 6.004h8.261" fill="none" stroke-width=".72" transform="matrix(1.3333333 0 0 -1.3333333 377.6508 355.89573)"/><path clip-path="url(#a6)" d="m351.792 159h15.367v-47.938h-15.367z" fill="#fff" stroke-width=".783" transform="matrix(1.3333333 0 0 -1.3333333 0 512)"/><path clip-path="url(#a7)" d="m355.195 159h8.563v-47.938h-8.563z" fill="#fff" stroke-width=".782" transform="matrix(1.3333333 0 0 -1.3333333 0 512)"/><path clip-path="url(#a8)" d="m0 0h8.875m-8.875 6h8.875m-8.875 6h8.875m-8.875 6h8.875m-8.875 6h8.875m-8.875 6h8.875m-8.875 6h8.875" fill="none" stroke-width=".72" transform="matrix(1.3333333 0 0 -1.3333333 473.38453 355.88533)"/><path clip-path="url(#a9)" d="m241.163 179.805h3.445v-15.836h-3.445z" fill="#fff" stroke-linecap="square" stroke-linejoin="bevel" stroke-width=".72" transform="matrix(1.3333333 0 0 -1.3333333 0 512)"/><path clip-path="url(#ba)" d="m248.366 179.805h3.441v-15.836h-3.441z" fill="#fff" stroke-linecap="square" stroke-linejoin="bevel" stroke-width=".72" transform="matrix(1.3333333 0 0 -1.3333333 0 512)"/><path clip-path="url(#bb)" d="m255.566 179.805h3.441v-15.836h-3.441z" fill="#fff" stroke-linecap="square" stroke-linejoin="bevel" stroke-width=".72" transform="matrix(1.3333333 0 0 -1.3333333 0 512)"/><path clip-path="url(#bc)" d="m315.867 179.805h3.444v-15.836h-3.444z" fill="#fff" stroke-linecap="square" stroke-linejoin="bevel" stroke-width=".72" transform="matrix(1.3333333 0 0 -1.3333333 0 512)"/><path clip-path="url(#bd)" d="m323.07 179.805h3.441v-15.836h-3.441z" fill="#fff" stroke-linecap="square" stroke-linejoin="bevel" stroke-width=".72" transform="matrix(1.3333333 0 0 -1.3333333 0 512)"/><path clip-path="url(#be)" d="m330.269 179.805h3.441v-15.836h-3.441z" fill="#fff" stroke-linecap="square" stroke-linejoin="bevel" stroke-width=".72" transform="matrix(1.3333333 0 0 -1.3333333 0 512)"/><path clip-path="url(#bf)" d="m0 0-.383 3h15.207l-.383-3z" fill="#fff" stroke-width=".72" transform="matrix(1.3333333 0 0 -1.3333333 373.75493 166.89053)"/><path clip-path="url(#bg)" d="m0 0-.328 2.464h13.058l-.328-2.464z" fill="#fff" stroke-width=".72" transform="matrix(1.3333333 0 0 -1.3333333 375.11373 162.81187)"/><path clip-path="url(#bh)" d="m0 0-.219 2.465h8.699l-.219-2.465z" fill="#fff" stroke-width=".72" transform="matrix(1.3333333 0 0 -1.3333333 377.8748 159.40107)"/></g></svg>