<svg height="500" viewBox="0 0 750 500" width="750" xmlns="http://www.w3.org/2000/svg" xmlns:xlink="http://www.w3.org/1999/xlink"><clipPath id="a"><path d="m0 0h562.5v375h-562.5z" transform="translate(-.0001 .000398)"/></clipPath><clipPath id="b"><path d="m0 0h562.5v375h-562.5z" transform="translate(-.0001 .000398)"/></clipPath><path d="m0 0v-375l562.5 375z" fill="#009e49" transform="matrix(1.3333333 0 0 -1.3333333 0 -.0004)"/><path d="m0 0-562.5-375h562.5z" fill="#ce1126" transform="matrix(1.3333333 0 0 -1.3333333 750 -.0004)"/><path d="m0 0-562.5-375z" transform="matrix(1.3333333 0 0 -1.3333333 750 -.0004)"/><path clip-path="url(#a)" d="m0 0 562.5 375" fill="none" stroke="#fcd116" stroke-width="157.5" transform="matrix(1.3333333 0 0 -1.3333333 .000133 500.00053)"/><path d="m0 0-562.5-375z" transform="matrix(1.3333333 0 0 -1.3333333 750 -.0004)"/><path clip-path="url(#b)" d="m0 0 562.5 375" fill="none" stroke="#000" stroke-width="112.5" transform="matrix(1.3333333 0 0 -1.3333333 .000133 500.00053)"/><g fill="#fff"><path d="m0 0 14.195-50.547 25.274 7.102" transform="matrix(1.3333333 0 0 -1.3333333 478.67133 96.755733)"/><path d="m0 0 41.195-32.547-16.273-20.597" transform="matrix(1.3333333 0 0 -1.3333333 478.67133 96.755733)"/><path d="m0 0-43.68-29.121 14.559-21.844" transform="matrix(1.3333333 0 0 -1.3333333 560.89013 100.07347)"/><path d="m0 0-18.223-49.238-24.617 9.113" transform="matrix(1.3333333 0 0 -1.3333333 560.89013 100.07347)"/><path d="m0 0-41.195 32.547-16.274-20.598" transform="matrix(1.3333333 0 0 -1.3333333 583.14533 179.29747)"/><path d="m0 0-52.457 2.117 1.059 26.227" transform="matrix(1.3333333 0 0 -1.3333333 583.14533 179.29747)"/><path d="m0 0 18.223 49.234-24.618 9.113" transform="matrix(1.3333333 0 0 -1.3333333 514.67653 224.94267)"/><path d="m0 0-14.199 50.542 25.273 7.098" transform="matrix(1.3333333 0 0 -1.3333333 514.67653 224.94267)"/><path d="m0 0 52.457-2.113 1.055 26.227" transform="matrix(1.3333333 0 0 -1.3333333 450.1088 173.93347)"/><path d="m0 0 43.68 29.121 14.562-21.839" transform="matrix(1.3333333 0 0 -1.3333333 450.1088 173.93347)"/><path d="m0 0 14.195-50.547 25.273 7.102" transform="matrix(1.3333333 0 0 -1.3333333 193.672 286.75573)"/><path d="m0 0 41.195-32.547-16.274-20.598" transform="matrix(1.3333333 0 0 -1.3333333 193.672 286.75573)"/><path d="m0 0-43.68-29.121 14.558-21.844" transform="matrix(1.3333333 0 0 -1.3333333 275.8908 290.07347)"/><path d="m0 0-18.223-49.238-24.617 9.113" transform="matrix(1.3333333 0 0 -1.3333333 275.8908 290.07347)"/><path d="m0 0-41.195 32.547-16.274-20.598" transform="matrix(1.3333333 0 0 -1.3333333 298.14533 369.29747)"/><path d="m0 0-52.457 2.117 1.059 26.227" transform="matrix(1.3333333 0 0 -1.3333333 298.14533 369.29747)"/><path d="m0 0 18.223 49.234-24.617 9.114" transform="matrix(1.3333333 0 0 -1.3333333 229.67587 414.9432)"/><path d="m0 0-14.199 50.543 25.274 7.098" transform="matrix(1.3333333 0 0 -1.3333333 229.67587 414.9432)"/><g transform="matrix(1.3333333 0 0 -1.3333333 165.10947 363.9328)"><path d="m0 0 52.457-2.113 1.054 26.226"/><path d="m0 0 43.679 29.121 14.563-21.84"/></g></g></svg>