<?xml version="1.0" encoding="UTF-8" standalone="no"?>
<!-- Created with Inkscape (http://www.inkscape.org/) -->

<svg
   version="1.1"
   id="svg1"
   width="1200"
   height="800"
   viewBox="0 0 1200 800"
   sodipodi:docname="kr.ai"
   xmlns:inkscape="http://www.inkscape.org/namespaces/inkscape"
   xmlns:sodipodi="http://sodipodi.sourceforge.net/DTD/sodipodi-0.dtd"
   xmlns="http://www.w3.org/2000/svg"
   xmlns:svg="http://www.w3.org/2000/svg">
  <defs
     id="defs1">
    <clipPath
       clipPathUnits="userSpaceOnUse"
       id="clipPath9">
      <path
         d="M 0,600 H 900 V 0 H 0 Z"
         transform="translate(-325.19241,-383.20511)"
         id="path9" />
    </clipPath>
    <clipPath
       clipPathUnits="userSpaceOnUse"
       id="clipPath11">
      <path
         d="M 0,600 H 900 V 0 H 0 Z"
         transform="translate(-325.19241,-383.20511)"
         id="path11" />
    </clipPath>
    <clipPath
       clipPathUnits="userSpaceOnUse"
       id="clipPath13">
      <path
         d="M 0,600 H 900 V 0 H 0 Z"
         transform="translate(-293.99071,-105.8545)"
         id="path13" />
    </clipPath>
    <clipPath
       clipPathUnits="userSpaceOnUse"
       id="clipPath15">
      <path
         d="M 0,600 H 900 V 0 H 0 Z"
         transform="translate(-283.17381,-98.643602)"
         id="path15" />
    </clipPath>
    <clipPath
       clipPathUnits="userSpaceOnUse"
       id="clipPath17">
      <path
         d="M 0,600 H 900 V 0 H 0 Z"
         transform="translate(-751.61822,-410.93991)"
         id="path17" />
    </clipPath>
    <clipPath
       clipPathUnits="userSpaceOnUse"
       id="clipPath19">
      <path
         d="M 0,600 H 900 V 0 H 0 Z"
         transform="translate(-740.80182,-403.72901)"
         id="path19" />
    </clipPath>
    <clipPath
       clipPathUnits="userSpaceOnUse"
       id="clipPath21">
      <path
         d="M 0,600 H 900 V 0 H 0 Z"
         transform="translate(-694.41502,-462.94341)"
         id="path21" />
    </clipPath>
    <clipPath
       clipPathUnits="userSpaceOnUse"
       id="clipPath23">
      <path
         d="M 0,600 H 900 V 0 H 0 Z"
         transform="translate(-701.62602,-452.12701)"
         id="path23" />
    </clipPath>
  </defs>
  <sodipodi:namedview
     id="namedview1"
     pagecolor="#ffffff"
     bordercolor="#000000"
     borderopacity="0.25"
     inkscape:showpageshadow="2"
     inkscape:pageopacity="0.0"
     inkscape:pagecheckerboard="0"
     inkscape:deskcolor="#d1d1d1">
    <inkscape:page
       x="0"
       y="0"
       inkscape:label="1"
       id="page1"
       width="1200"
       height="800"
       margin="0"
       bleed="0" />
  </sodipodi:namedview>
  <g
     id="layer-MC0"
     inkscape:groupmode="layer"
     inkscape:label="svg24">
    <path
       id="path1"
       d="M 0,0 H 900 V 600 H 0 Z"
       style="fill:#ffffff;fill-opacity:1;fill-rule:nonzero;stroke:none"
       transform="matrix(1.3333333,0,0,-1.3333333,0,800)" />
    <path
       id="path2"
       d="M 0,0 83.205,124.808 M -31.202,20.801 52.003,145.609 M -62.404,41.603 20.801,166.41"
       style="fill:#000000;fill-opacity:1;fill-rule:nonzero;stroke:none"
       transform="matrix(1.3333333,0,0,-1.3333333,281.04747,307.55013)" />
    <path
       id="path3"
       d="M 0,0 -20.801,13.867 62.404,138.675 83.206,124.808 Z M 31.202,-20.801 10.4,-6.934 93.606,117.874 114.407,104.006 Z m 31.202,-20.802 -20.801,13.868 83.205,124.807 20.801,-13.867 z"
       style="fill:#000000;fill-opacity:1;fill-rule:nonzero;stroke:none"
       transform="matrix(1.3333333,0,0,-1.3333333,211.7096,261.32493)" />
    <path
       id="path4"
       d="M 0,0 83.205,124.808 M -31.202,20.802 52.003,145.609 M -62.403,41.603 20.802,166.41"
       style="fill:#000000;fill-opacity:1;fill-rule:nonzero;stroke:none"
       transform="matrix(1.3333333,0,0,-1.3333333,891.21747,714.33067)" />
    <path
       id="path5"
       d="M 0,0 -20.801,13.867 62.404,138.675 83.205,124.808 Z M 31.201,-20.801 10.4,-6.934 93.605,117.874 114.406,104.007 Z m 31.202,-20.802 -20.8,13.868 83.205,124.807 20.8,-13.867 z"
       style="fill:#000000;fill-opacity:1;fill-rule:nonzero;stroke:none"
       transform="matrix(1.3333333,0,0,-1.3333333,821.88027,668.10547)" />
    <path
       id="path6"
       d="M 0,0 104.007,-69.337"
       style="fill:#000000;fill-opacity:1;fill-rule:nonzero;stroke:none"
       transform="matrix(1.3333333,0,0,-1.3333333,835.74733,557.16533)" />
    <path
       id="path7"
       d="M 0,0 -104.007,69.337 -90.14,90.138 13.867,20.801 Z"
       style="fill:#ffffff;fill-opacity:1;fill-rule:nonzero;stroke:none"
       transform="matrix(1.3333333,0,0,-1.3333333,965.1784,663.48173)" />
    <path
       id="path8"
       d="M 0,0 C 45.953,68.929 139.083,87.555 208.013,41.603 276.942,-4.351 295.568,-97.48 249.615,-166.41 203.662,-235.34 110.532,-253.966 41.603,-208.013 -27.327,-162.06 -45.953,-68.929 0,0"
       style="fill:#c60c30;fill-opacity:1;fill-rule:nonzero;stroke:none"
       transform="matrix(1.3333333,0,0,-1.3333333,433.58987,289.05987)"
       clip-path="url(#clipPath9)" />
    <path
       id="path10"
       d="m 0,0 c -22.977,-34.465 -13.663,-81.03 20.801,-104.006 34.465,-22.976 81.03,-13.664 104.007,20.801 22.976,34.465 69.542,43.778 104.005,20.801 34.465,-22.976 43.779,-69.541 20.802,-104.006 C 203.662,-235.34 110.532,-253.966 41.603,-208.013 -27.327,-162.06 -45.953,-68.929 0,0"
       style="fill:#003478;fill-opacity:1;fill-rule:nonzero;stroke:none"
       transform="matrix(1.3333333,0,0,-1.3333333,433.58987,289.05987)"
       clip-path="url(#clipPath11)" />
    <path
       id="path12"
       d="m 0,0 -83.205,124.808 m 52.003,-145.609 -83.205,124.808 m 52.003,-145.61 -83.205,124.808"
       style="fill:#000000;fill-opacity:1;fill-rule:nonzero;stroke:none"
       transform="matrix(1.3333333,0,0,-1.3333333,391.9876,658.86067)"
       clip-path="url(#clipPath13)" />
    <path
       id="path14"
       d="m 0,0 -83.205,124.808 21.633,14.421 83.206,-124.807 z m -31.202,-20.801 -83.205,124.808 21.634,14.422 83.204,-124.808 z m -31.202,-20.802 -83.204,124.808 21.633,14.422 83.204,-124.808 z"
       style="fill:#000000;fill-opacity:1;fill-rule:nonzero;stroke:none"
       transform="matrix(1.3333333,0,0,-1.3333333,377.56507,668.4752)"
       clip-path="url(#clipPath15)" />
    <path
       id="path16"
       d="m 0,0 -83.205,124.808 m 52.003,-145.609 -83.205,124.807 m 52.004,-145.609 -83.205,124.808"
       style="fill:#000000;fill-opacity:1;fill-rule:nonzero;stroke:none"
       transform="matrix(1.3333333,0,0,-1.3333333,1002.1576,252.08013)"
       clip-path="url(#clipPath17)" />
    <path
       id="path18"
       d="m 0,0 -83.205,124.808 21.633,14.421 83.205,-124.807 z m -31.202,-20.801 -83.205,124.807 21.633,14.422 83.205,-124.807 z m -31.201,-20.802 -83.205,124.808 21.632,14.422 83.205,-124.808 z"
       style="fill:#000000;fill-opacity:1;fill-rule:nonzero;stroke:none"
       transform="matrix(1.3333333,0,0,-1.3333333,987.73573,261.69467)"
       clip-path="url(#clipPath19)" />
    <path
       id="path20"
       d="m 0,0 31.201,20.801 m -98.805,-65.87 36.402,24.268 m -457.628,-305.086 31.202,20.802"
       style="fill:#000000;fill-opacity:1;fill-rule:nonzero;stroke:none"
       transform="matrix(1.3333333,0,0,-1.3333333,925.88667,182.74213)"
       clip-path="url(#clipPath21)" />
    <path
       id="path22"
       d="M 0,0 -14.422,21.633 16.779,42.434 31.201,20.801 Z m -67.604,-45.07 -14.422,21.634 36.402,24.268 14.422,-21.634 z m -421.225,-280.817 -14.423,21.633 31.202,20.802 14.423,-21.633 z"
       style="fill:#ffffff;fill-opacity:1;fill-rule:nonzero;stroke:none"
       transform="matrix(1.3333333,0,0,-1.3333333,935.50133,197.164)"
       clip-path="url(#clipPath23)" />
  </g>
</svg>
