<?xml version="1.0" encoding="UTF-8" standalone="no"?>
<!-- Created with Inkscape (http://www.inkscape.org/) -->

<svg
   version="1.1"
   id="svg1"
   width="1000"
   height="666.66669"
   viewBox="0 0 1000 666.66669"
   sodipodi:docname="lb.ai"
   xmlns:inkscape="http://www.inkscape.org/namespaces/inkscape"
   xmlns:sodipodi="http://sodipodi.sourceforge.net/DTD/sodipodi-0.dtd"
   xmlns="http://www.w3.org/2000/svg"
   xmlns:svg="http://www.w3.org/2000/svg">
  <defs
     id="defs1">
    <clipPath
       clipPathUnits="userSpaceOnUse"
       id="clipPath4">
      <path
         d="M 0,500 H 750 V 0 H 0 Z"
         transform="translate(-352.38621,-215.67291)"
         id="path4" />
    </clipPath>
  </defs>
  <sodipodi:namedview
     id="namedview1"
     pagecolor="#ffffff"
     bordercolor="#000000"
     borderopacity="0.25"
     inkscape:showpageshadow="2"
     inkscape:pageopacity="0.0"
     inkscape:pagecheckerboard="0"
     inkscape:deskcolor="#d1d1d1">
    <inkscape:page
       x="0"
       y="0"
       inkscape:label="1"
       id="page1"
       width="1000"
       height="666.66669"
       margin="0"
       bleed="0" />
  </sodipodi:namedview>
  <g
     id="layer-MC0"
     inkscape:groupmode="layer"
     inkscape:label="Layer 1">
    <path
       id="path1"
       d="M 0,0 H 750 V 500 H 0 Z"
       style="fill:#ed1c24;fill-opacity:1;fill-rule:nonzero;stroke:none"
       transform="matrix(1.3333333,0,0,-1.3333333,0,666.66667)" />
    <path
       id="path2"
       d="M 0,125 H 750 V 375 H 0 Z"
       style="fill:#ffffff;fill-opacity:1;fill-rule:nonzero;stroke:none"
       transform="matrix(1.3333333,0,0,-1.3333333,0,666.66667)" />
    <path
       id="path3"
       d="M 0,0 C 4.282,0.981 8.211,-4.569 5.831,-8.273 1.562,-8.652 -0.654,-3.586 0,0 m 15.427,2.764 c 4.271,1.846 9.795,-3.262 7.471,-7.587 -1.661,-3.523 -8.136,-2.342 -7.921,1.738 -0.011,1.952 -0.168,3.953 0.45,5.849 m -31.71,2.375 c 4.131,0.407 7.915,-3.692 7.373,-7.764 2.99,-2.942 -2.305,-8.424 -5.284,-5.377 -2.625,3.181 -2.611,7.496 -3.628,11.303 -0.046,0.845 0.58,1.941 1.539,1.838 m 110.942,6.764 c 4.46,0.768 7.972,-5.595 4.788,-8.888 -3.015,-4.546 -10.203,-5.738 -14.314,-2.012 -1.602,3.768 1.648,7.695 5.108,8.904 1.487,0.633 2.895,1.444 4.418,1.996 M 72.594,16.684 C 76.52,18.608 80.741,12.377 77.456,9.467 73.344,4.735 65.43,3.856 60.514,7.831 c -0.591,4.188 3.592,7.229 7.308,7.829 1.562,0.442 3.116,1.102 4.772,1.024 m -104.599,15.22 c 3.078,0.902 7.564,-0.046 8.413,-3.578 0.359,-3.319 -3.291,-5.046 -5.966,-5.868 -4.287,-1.323 -8.48,-3.495 -13.089,-3.203 -3.456,1.974 -4.696,6.016 -5.928,9.541 3.335,3.127 8.245,2.21 12.379,2.992 1.396,0.071 2.794,0.106 4.191,0.116 m 67.432,6.765 c 4.648,1.167 2.98,-8.547 -0.901,-5.177 -1.289,1.531 -0.599,4.05 0.901,5.177 M 24.69,45.043 c 3.606,-2.191 5.747,-6.277 6.195,-10.4 -1.728,-3.852 -8.403,-2.923 -9.155,1.179 -1.32,3.244 -0.104,7.418 2.96,9.221 m -30.766,0.651 c 3.111,2.201 7.124,-3.172 4.535,-5.676 -3.101,-2.185 -7.125,3.104 -4.535,5.676 m 19.35,3.512 c 3.815,-0.486 2.579,-7.097 -0.948,-6.875 -3.786,0.702 -2.919,7.248 0.948,6.875 M 71.178,57.5 c 4.549,1.198 7.853,-6.072 3.946,-8.702 -3.572,-3.245 -10.516,1.054 -8.654,5.682 0.926,1.716 2.778,2.857 4.708,3.02 M -30.825,73.468 c 4.192,-0.573 6.923,-4.381 8.472,-8.007 0.379,-4.418 -6.14,-6.842 -8.984,-3.627 -3.198,2.006 -5.997,6.132 -4.321,9.961 1.033,1.52 3.091,2.148 4.833,1.673 m 17.05,2.862 c 3.695,2.01 7.619,-4.032 4.476,-6.697 -2.082,-3.061 -7.427,-4.311 -9.784,-0.908 -1.958,3.324 1.208,8.909 5.308,7.605 m 66.016,1.17 c 4.468,1.388 9.849,-3.217 8.399,-7.886 -1.991,-3.62 -6.917,-4.078 -10.445,-2.725 -4.051,0.2 -6.777,6.29 -3.167,8.869 1.493,1.128 3.376,1.592 5.213,1.742 m -29.823,3.903 c 4.078,-1.909 0.964,-8.714 -3.143,-7.733 -4.258,0.5 -4.179,7.987 0.517,7.311 0.885,0.044 1.799,0.066 2.626,0.422 m 13.834,0.781 c 4.361,-2.059 2.148,-9.916 -2.637,-9.428 -3.931,0.996 -3.417,7.737 0.541,8.274 0.749,0.287 1.434,0.708 2.096,1.154 M 1.475,98.348 C 4.52,95.45 2.722,89.857 -1.033,88.52 c -2.707,-1.505 -6.396,-5.067 -9.344,-2.137 -1.6,3.579 2.415,6.275 4.776,8.262 2.108,1.638 4.434,3.126 7.076,3.703 m 46.725,8.293 c 4.14,-1.511 2.68,-8.822 -1.688,-8.728 -4.131,-0.554 -6.054,6.337 -2.203,7.971 1.247,0.443 2.554,0.815 3.891,0.757 m -27.699,0.032 c 4.297,-0.845 3.533,-8.331 -0.804,-8.397 -3.173,-0.706 -6.593,-2.872 -9.803,-1.249 -2.611,2.761 1.163,6.844 4.077,7.742 2.235,0.45 4.291,1.465 6.53,1.904 m 12.035,1.009 c 4.239,0.758 5.136,-6.977 0.902,-7.341 -4.413,-0.79 -6.049,7.83 -0.902,7.341 m -41.09,4.228 c 4.356,-0.13 3.686,-7.981 -0.602,-7.457 -4.165,0.268 -3.91,8.3 0.602,7.457 m 27.757,47.417 c -5.366,-11.3 -15.472,-19.198 -25.131,-26.671 -1.589,-1.388 -5.54,-4.076 -2.674,-6.121 2.456,2.744 9.195,-0.89 5.278,-3.841 -3.508,-3.284 -8.339,-4.487 -12.235,-7.197 -3.45,-1.874 -6.949,-3.831 -9.685,-6.701 -0.187,-4.483 5.561,-2.001 7.894,-3.868 3.037,-3.248 -1.288,-8.722 -5.275,-7.47 -5.097,-0.156 -8.617,-4.641 -10.544,-8.92 -3.987,-6.165 -11.543,-7.991 -17.558,-11.5 -3.441,-2.006 -6.781,-4.226 -9.984,-6.567 -4.131,-2.825 -0.538,-8.416 3.857,-7.044 4.745,0.473 9.014,4.201 13.926,3.127 4.454,-1.565 5.704,-7.387 4.186,-11.451 -1.124,-3.255 -3.848,-5.547 -6.032,-8.089 -3.544,-3.591 -8.179,-5.922 -13.066,-7.034 -4.723,-1.585 -8.968,-4.479 -12.067,-8.385 -3.595,-3.62 -7.177,-7.299 -11.31,-10.318 -1.305,-3.331 2.379,-6.169 5.451,-6.08 6.472,0.407 10.958,5.705 16.47,8.427 4.574,2.056 9.958,-2.874 8.839,-7.64 -0.354,-4.636 -4.695,-6.989 -8.554,-8.415 -11.346,-5.704 -21.197,-13.974 -29.945,-23.1 -1.809,-3.691 -6.782,-2.605 -9.46,-5.177 -1.745,-3.255 2.634,-4.972 5.246,-4.637 11.225,1.35 21.699,6.095 31.622,11.315 3.69,1.764 7.155,4.086 10.991,5.492 3.604,0.891 8.629,-0.677 9.274,-4.777 -0.006,-4.331 -4.295,-6.728 -7.692,-8.419 -10.475,-5.504 -21.971,-8.546 -33.167,-12.185 -4.191,1.172 -7.349,-6.285 -2.751,-7.626 4.862,-1.667 10.031,-0.331 15.005,-0.112 15.378,2.356 28.828,10.678 43.203,16.056 5.977,1.949 13.031,-0.77 15.98,-6.37 2.964,-4.991 2.693,-11.555 -0.433,-16.405 -4.94,-10.568 -12.45,-20.281 -22.532,-26.358 -6.328,-3.133 -13.715,-4.331 -19.139,-9.128 -5.016,-1.654 2.515,-8.432 3.603,-3.052 3.015,4.11 8.331,5.339 13.153,5.509 7.247,0.789 14.944,2.126 20.575,7.143 5.048,3.92 10.023,9.328 16.878,9.412 3.789,-0.449 7.536,-3.493 11.384,-1.635 3.366,1.541 8.647,0.637 9.527,-3.501 1.606,-4.843 6.598,-7.046 10.556,-9.637 1.432,-2.012 6.193,-7.2 7.291,-2.626 -0.886,3.263 0.38,8.255 4.659,7.165 3.739,-0.167 7.302,-1.546 11.032,-1.771 4.969,-1.03 9.114,-4.431 11.936,-8.539 1.94,-2.68 6.192,-7.286 9.351,-3.731 1.96,3.676 -1.782,6.741 -4.828,8.054 -4.442,2.753 -8.239,6.419 -12.124,9.889 -5.724,5.346 -10.668,12.146 -11.576,20.133 -1.233,7.963 -0.584,16.085 0.455,24.027 1.309,5.113 7.847,7.904 12.418,5.187 6.433,-2.935 12.821,-7.135 20.196,-6.679 10.656,-0.23 21.608,1.811 32.022,-1.277 10.134,-3.192 17.381,-11.745 27.253,-15.446 2.21,-1.343 5.037,-0.065 5.846,2.296 0.979,2.121 0.288,4.835 -1.756,6.044 -11.44,11.548 -27.077,17.159 -40.315,26.183 -4.167,1.059 -4.926,7.764 -1.073,9.699 5.065,3.682 12.232,1.968 16.725,-1.828 3.796,-2.222 8.072,-3.888 12.524,-3.892 4.561,1.427 2.349,8.027 -1.734,8.524 -7.399,4.178 -12.699,11.033 -19.109,16.466 -3.69,3.125 -7.73,6.289 -12.69,6.895 -2.711,0.495 -5.486,0.603 -8.233,0.418 -2.576,2.8 0.858,7.087 4.19,6.737 3.418,-0.231 6.816,-0.485 10.23,-0.009 3.816,0.279 7.627,0.675 11.456,0.7 3.091,-2.104 9.267,1.531 6.478,5.16 -3.048,2.67 -7.453,2.438 -11.095,3.808 -6.396,2.099 -12.906,3.795 -19.498,5.125 -4.611,0.276 -4.042,6.345 0.011,7.014 2.652,0.989 4.958,-1.049 7.504,-1.365 4.348,-0.934 8.837,-0.922 13.184,-1.869 3.685,1.819 0.836,7.203 -2.497,7.516 -7.866,2.813 -14.663,7.889 -21.308,12.827 -7.337,5.518 -13.994,11.899 -21.42,17.289 -2.695,1.67 -7.112,2.151 -7.821,5.852 -0.25,3.404 3.758,4.955 6.599,4.159 4.03,-1.191 7.786,-3.263 11.893,-4.281 3.223,-0.547 6.546,-1.501 9.653,-1.095 3.943,2.477 -1.692,4.061 -3.731,4.921 -5.257,2.835 -9.928,6.613 -14.66,10.215 -3.999,3.413 3.391,4.921 5.933,3.607 4.25,-1.778 4.734,4.415 1.557,5.973 -3.743,1.592 -6.962,4.234 -10.356,6.538 -6.132,4.365 -13.078,7.821 -20.617,8.781 -8.452,0.85 -16.341,5.71 -20.825,12.938 -2.781,4.119 -4.821,8.674 -6.794,13.218"
       style="fill:#00a651;fill-opacity:1;fill-rule:nonzero;stroke:none"
       transform="matrix(1.3333333,0,0,-1.3333333,469.84827,379.1028)"
       clip-path="url(#clipPath4)" />
  </g>
</svg>
