<?xml version="1.0" encoding="UTF-8" standalone="no"?>
<!-- Created with Inkscape (http://www.inkscape.org/) -->

<svg
   version="1.1"
   id="svg1"
   width="900.12665"
   height="600"
   viewBox="0 0 900.12665 600"
   sodipodi:docname="lr.ai"
   xmlns:inkscape="http://www.inkscape.org/namespaces/inkscape"
   xmlns:sodipodi="http://sodipodi.sourceforge.net/DTD/sodipodi-0.dtd"
   xmlns="http://www.w3.org/2000/svg"
   xmlns:svg="http://www.w3.org/2000/svg">
  <defs
     id="defs1">
    <clipPath
       clipPathUnits="userSpaceOnUse"
       id="clipPath4">
      <path
         d="M 0,0 H 675 V 450 H 0 Z"
         transform="translate(0,-61.363299)"
         id="path4" />
    </clipPath>
  </defs>
  <sodipodi:namedview
     id="namedview1"
     pagecolor="#ffffff"
     bordercolor="#000000"
     borderopacity="0.25"
     inkscape:showpageshadow="2"
     inkscape:pageopacity="0.0"
     inkscape:pagecheckerboard="0"
     inkscape:deskcolor="#d1d1d1">
    <inkscape:page
       x="0"
       y="0"
       inkscape:label="1"
       id="page1"
       width="900.12665"
       height="600"
       margin="0"
       bleed="0" />
  </sodipodi:namedview>
  <g
     id="layer-MC0"
     inkscape:groupmode="layer"
     inkscape:label="Layer 1">
    <path
       id="path1"
       d="M 0,0 H 675 V 450 H 0 Z"
       style="fill:#bf0a30;fill-opacity:1;fill-rule:nonzero;stroke:none"
       transform="matrix(1.3333333,0,0,-1.3333333,0,600)" />
    <path
       id="path2"
       d="m 0,0 h 675 z m 0,-81.821 h 675 z m 0,-81.816 h 675 z m 0,-81.816 h 675 z m 0,-81.821 h 675 z"
       style="fill:#000000;fill-opacity:1;fill-rule:nonzero;stroke:none"
       transform="matrix(1.3333333,0,0,-1.3333333,0,81.8172)" />
    <path
       id="path3"
       d="M 0,0 H 675.095 M 0,81.82 H 675.095 M 0,163.637 H 675.095 M 0,245.453 H 675.095 M 0,327.274 h 675.095"
       style="fill:none;stroke:#ffffff;stroke-width:40.909;stroke-linecap:butt;stroke-linejoin:miter;stroke-miterlimit:4;stroke-dasharray:none;stroke-opacity:1"
       transform="matrix(1.3333333,0,0,-1.3333333,0,518.18227)"
       clip-path="url(#clipPath4)" />
    <path
       id="path5"
       d="M 0,245.453 H 204.547 V 450 H 0 Z"
       style="fill:#002868;fill-opacity:1;fill-rule:nonzero;stroke:none"
       transform="matrix(1.3333333,0,0,-1.3333333,0,600)" />
    <path
       id="path6"
       d="m 0,0 -18.964,-58.36 29.183,-9.48 z"
       style="fill:#ffffff;fill-opacity:1;fill-rule:nonzero;stroke:none"
       transform="matrix(1.3333333,0,0,-1.3333333,136.36387,54.546933)" />
    <path
       id="path7"
       d="m 0,0 18.961,-58.36 -29.179,-9.48 z"
       style="fill:#ffffff;fill-opacity:1;fill-rule:nonzero;stroke:none"
       transform="matrix(1.3333333,0,0,-1.3333333,136.36387,54.546933)" />
    <path
       id="path8"
       d="M 0,0 H -61.363 V -30.683 Z"
       style="fill:#ffffff;fill-opacity:1;fill-rule:nonzero;stroke:none"
       transform="matrix(1.3333333,0,0,-1.3333333,214.17707,111.0788)" />
    <path
       id="path9"
       d="M 0,0 -49.645,-36.07 -67.68,-11.25 Z"
       style="fill:#ffffff;fill-opacity:1;fill-rule:nonzero;stroke:none"
       transform="matrix(1.3333333,0,0,-1.3333333,214.17707,111.0788)" />
    <path
       id="path10"
       d="m 0,0 49.645,-36.07 18.031,24.82 z"
       style="fill:#ffffff;fill-opacity:1;fill-rule:nonzero;stroke:none"
       transform="matrix(1.3333333,0,0,-1.3333333,58.552133,111.0788)" />
    <path
       id="path11"
       d="M 0,0 H 61.363 V -30.683 Z"
       style="fill:#ffffff;fill-opacity:1;fill-rule:nonzero;stroke:none"
       transform="matrix(1.3333333,0,0,-1.3333333,58.552133,111.0788)" />
    <path
       id="path12"
       d="m 0,0 -18.961,58.359 -29.18,-9.48 z"
       style="fill:#ffffff;fill-opacity:1;fill-rule:nonzero;stroke:none"
       transform="matrix(1.3333333,0,0,-1.3333333,184.45307,202.55733)" />
    <path
       id="path13"
       d="M 0,0 -49.645,36.07 -31.61,60.891 Z"
       style="fill:#ffffff;fill-opacity:1;fill-rule:nonzero;stroke:none"
       transform="matrix(1.3333333,0,0,-1.3333333,184.45307,202.55733)" />
    <path
       id="path14"
       d="M 0,0 49.645,36.07 31.609,60.891 Z"
       style="fill:#ffffff;fill-opacity:1;fill-rule:nonzero;stroke:none"
       transform="matrix(1.3333333,0,0,-1.3333333,88.2708,202.55733)" />
    <path
       id="path15"
       d="m 0,0 18.965,58.359 29.18,-9.48 z"
       style="fill:#ffffff;fill-opacity:1;fill-rule:nonzero;stroke:none"
       transform="matrix(1.3333333,0,0,-1.3333333,88.2708,202.55733)" />
  </g>
</svg>
