<?xml version="1.0" encoding="UTF-8" standalone="no"?>
<!-- Created with Inkscape (http://www.inkscape.org/) -->

<svg
   version="1.1"
   id="svg1"
   width="1200"
   height="800"
   viewBox="0 0 1200 800"
   sodipodi:docname="li.ai"
   xmlns:inkscape="http://www.inkscape.org/namespaces/inkscape"
   xmlns:sodipodi="http://sodipodi.sourceforge.net/DTD/sodipodi-0.dtd"
   xmlns="http://www.w3.org/2000/svg"
   xmlns:svg="http://www.w3.org/2000/svg">
  <defs
     id="defs1">
    <clipPath
       clipPathUnits="userSpaceOnUse"
       id="clipPath4">
      <path
         d="M 0,600 H 900 V 0 H 0 Z"
         transform="translate(-216.37701,-477.71141)"
         id="path4" />
    </clipPath>
    <clipPath
       clipPathUnits="userSpaceOnUse"
       id="clipPath6">
      <path
         d="M 0,600 H 900 V 0 H 0 Z"
         transform="translate(-144.4561,-474.83941)"
         id="path6" />
    </clipPath>
    <clipPath
       clipPathUnits="userSpaceOnUse"
       id="clipPath8">
      <path
         d="M 0,600 H 900 V 0 H 0 Z"
         transform="translate(-149.5498,-478.52051)"
         id="path8" />
    </clipPath>
    <clipPath
       clipPathUnits="userSpaceOnUse"
       id="clipPath10">
      <path
         d="M 0,600 H 900 V 0 H 0 Z"
         transform="translate(-154.6431,-481.04831)"
         id="path10" />
    </clipPath>
    <clipPath
       clipPathUnits="userSpaceOnUse"
       id="clipPath12">
      <path
         d="M 0,600 H 900 V 0 H 0 Z"
         transform="translate(-159.7363,-482.22901)"
         id="path12" />
    </clipPath>
    <clipPath
       clipPathUnits="userSpaceOnUse"
       id="clipPath14">
      <path
         d="M 0,600 H 900 V 0 H 0 Z"
         transform="translate(-164.83011,-482.45171)"
         id="path14" />
    </clipPath>
    <clipPath
       clipPathUnits="userSpaceOnUse"
       id="clipPath16">
      <path
         d="M 0,600 H 900 V 0 H 0 Z"
         transform="translate(-169.9233,-484.03521)"
         id="path16" />
    </clipPath>
    <clipPath
       clipPathUnits="userSpaceOnUse"
       id="clipPath18">
      <path
         d="M 0,600 H 900 V 0 H 0 Z"
         transform="translate(-175.01661,-484.03521)"
         id="path18" />
    </clipPath>
    <clipPath
       clipPathUnits="userSpaceOnUse"
       id="clipPath20">
      <path
         d="M 0,600 H 900 V 0 H 0 Z"
         transform="translate(-180.1104,-483.57571)"
         id="path20" />
    </clipPath>
    <clipPath
       clipPathUnits="userSpaceOnUse"
       id="clipPath22">
      <path
         d="M 0,600 H 900 V 0 H 0 Z"
         transform="translate(-185.2036,-483.11621)"
         id="path22" />
    </clipPath>
    <clipPath
       clipPathUnits="userSpaceOnUse"
       id="clipPath24">
      <path
         d="M 0,600 H 900 V 0 H 0 Z"
         transform="translate(-190.2969,-480.12891)"
         id="path24" />
    </clipPath>
    <clipPath
       clipPathUnits="userSpaceOnUse"
       id="clipPath26">
      <path
         d="M 0,600 H 900 V 0 H 0 Z"
         transform="translate(-195.3906,-479.66941)"
         id="path26" />
    </clipPath>
    <clipPath
       clipPathUnits="userSpaceOnUse"
       id="clipPath28">
      <path
         d="M 0,600 H 900 V 0 H 0 Z"
         transform="translate(-200.48391,-479.66941)"
         id="path28" />
    </clipPath>
    <clipPath
       clipPathUnits="userSpaceOnUse"
       id="clipPath30">
      <path
         d="M 0,600 H 900 V 0 H 0 Z"
         transform="translate(-205.57761,-479.66941)"
         id="path30" />
    </clipPath>
    <clipPath
       clipPathUnits="userSpaceOnUse"
       id="clipPath32">
      <path
         d="M 0,600 H 900 V 0 H 0 Z"
         transform="translate(-176.3955,-482.07711)"
         id="path32" />
    </clipPath>
    <clipPath
       clipPathUnits="userSpaceOnUse"
       id="clipPath34">
      <path
         d="M 0,600 H 900 V 0 H 0 Z"
         transform="translate(-212.81541,-491.95751)"
         id="path34" />
    </clipPath>
    <clipPath
       clipPathUnits="userSpaceOnUse"
       id="clipPath36">
      <path
         d="M 0,600 H 900 V 0 H 0 Z"
         transform="translate(-201.7129,-494.62991)"
         id="path36" />
    </clipPath>
    <clipPath
       clipPathUnits="userSpaceOnUse"
       id="clipPath38">
      <path
         d="M 0,600 H 900 V 0 H 0 Z"
         transform="translate(-190.4497,-497.45851)"
         id="path38" />
    </clipPath>
    <clipPath
       clipPathUnits="userSpaceOnUse"
       id="clipPath40">
      <path
         d="M 0,600 H 900 V 0 H 0 Z"
         transform="translate(-179.14311,-499.34421)"
         id="path40" />
    </clipPath>
    <clipPath
       clipPathUnits="userSpaceOnUse"
       id="clipPath42">
      <path
         d="M 0,600 H 900 V 0 H 0 Z"
         transform="translate(-167.8359,-500.45951)"
         id="path42" />
    </clipPath>
    <clipPath
       clipPathUnits="userSpaceOnUse"
       id="clipPath44">
      <path
         d="M 0,600 H 900 V 0 H 0 Z"
         transform="translate(-156.7495,-499.82761)"
         id="path44" />
    </clipPath>
    <clipPath
       clipPathUnits="userSpaceOnUse"
       id="clipPath46">
      <path
         d="M 0,600 H 900 V 0 H 0 Z"
         transform="translate(-146.17971,-496.20851)"
         id="path46" />
    </clipPath>
    <clipPath
       clipPathUnits="userSpaceOnUse"
       id="clipPath48">
      <path
         d="M 0,600 H 900 V 0 H 0 Z"
         transform="translate(-137.27541,-489.66021)"
         id="path48" />
    </clipPath>
    <clipPath
       clipPathUnits="userSpaceOnUse"
       id="clipPath50">
      <path
         d="M 0,600 H 900 V 0 H 0 Z"
         transform="translate(-130.95651,-480.52641)"
         id="path50" />
    </clipPath>
    <clipPath
       clipPathUnits="userSpaceOnUse"
       id="clipPath52">
      <path
         d="M 0,600 H 900 V 0 H 0 Z"
         transform="translate(-127.91211,-469.78421)"
         id="path52" />
    </clipPath>
    <clipPath
       clipPathUnits="userSpaceOnUse"
       id="clipPath54">
      <path
         d="M 0,600 H 900 V 0 H 0 Z"
         transform="translate(-128.0269,-458.63961)"
         id="path54" />
    </clipPath>
    <clipPath
       clipPathUnits="userSpaceOnUse"
       id="clipPath56">
      <path
         d="M 0,600 H 900 V 0 H 0 Z"
         transform="translate(-130.1523,-447.72511)"
         id="path56" />
    </clipPath>
    <clipPath
       clipPathUnits="userSpaceOnUse"
       id="clipPath58">
      <path
         d="M 0,600 H 900 V 0 H 0 Z"
         transform="translate(-214.99851,-480.46871)"
         id="path58" />
    </clipPath>
    <clipPath
       clipPathUnits="userSpaceOnUse"
       id="clipPath60">
      <path
         d="M 0,600 H 900 V 0 H 0 Z"
         transform="translate(-227.56051,-477.71141)"
         id="path60" />
    </clipPath>
    <clipPath
       clipPathUnits="userSpaceOnUse"
       id="clipPath62">
      <path
         d="M 0,600 H 900 V 0 H 0 Z"
         transform="translate(-299.4814,-474.83941)"
         id="path62" />
    </clipPath>
    <clipPath
       clipPathUnits="userSpaceOnUse"
       id="clipPath64">
      <path
         d="M 0,600 H 900 V 0 H 0 Z"
         transform="translate(-294.3877,-478.52051)"
         id="path64" />
    </clipPath>
    <clipPath
       clipPathUnits="userSpaceOnUse"
       id="clipPath66">
      <path
         d="M 0,600 H 900 V 0 H 0 Z"
         transform="translate(-289.29441,-481.04831)"
         id="path66" />
    </clipPath>
    <clipPath
       clipPathUnits="userSpaceOnUse"
       id="clipPath68">
      <path
         d="M 0,600 H 900 V 0 H 0 Z"
         transform="translate(-284.2012,-482.22901)"
         id="path68" />
    </clipPath>
    <clipPath
       clipPathUnits="userSpaceOnUse"
       id="clipPath70">
      <path
         d="M 0,600 H 900 V 0 H 0 Z"
         transform="translate(-279.10741,-482.45171)"
         id="path70" />
    </clipPath>
    <clipPath
       clipPathUnits="userSpaceOnUse"
       id="clipPath72">
      <path
         d="M 0,600 H 900 V 0 H 0 Z"
         transform="translate(-274.01421,-484.03521)"
         id="path72" />
    </clipPath>
    <clipPath
       clipPathUnits="userSpaceOnUse"
       id="clipPath74">
      <path
         d="M 0,600 H 900 V 0 H 0 Z"
         transform="translate(-268.92091,-484.03521)"
         id="path74" />
    </clipPath>
    <clipPath
       clipPathUnits="userSpaceOnUse"
       id="clipPath76">
      <path
         d="M 0,600 H 900 V 0 H 0 Z"
         transform="translate(-263.82711,-483.57571)"
         id="path76" />
    </clipPath>
    <clipPath
       clipPathUnits="userSpaceOnUse"
       id="clipPath78">
      <path
         d="M 0,600 H 900 V 0 H 0 Z"
         transform="translate(-258.7339,-483.11621)"
         id="path78" />
    </clipPath>
    <clipPath
       clipPathUnits="userSpaceOnUse"
       id="clipPath80">
      <path
         d="M 0,600 H 900 V 0 H 0 Z"
         transform="translate(-253.64061,-480.12891)"
         id="path80" />
    </clipPath>
    <clipPath
       clipPathUnits="userSpaceOnUse"
       id="clipPath82">
      <path
         d="M 0,600 H 900 V 0 H 0 Z"
         transform="translate(-248.54691,-479.66941)"
         id="path82" />
    </clipPath>
    <clipPath
       clipPathUnits="userSpaceOnUse"
       id="clipPath84">
      <path
         d="M 0,600 H 900 V 0 H 0 Z"
         transform="translate(-243.45361,-479.66941)"
         id="path84" />
    </clipPath>
    <clipPath
       clipPathUnits="userSpaceOnUse"
       id="clipPath86">
      <path
         d="M 0,600 H 900 V 0 H 0 Z"
         transform="translate(-238.35991,-479.66941)"
         id="path86" />
    </clipPath>
    <clipPath
       clipPathUnits="userSpaceOnUse"
       id="clipPath88">
      <path
         d="M 0,600 H 900 V 0 H 0 Z"
         transform="translate(-267.54201,-482.07711)"
         id="path88" />
    </clipPath>
    <clipPath
       clipPathUnits="userSpaceOnUse"
       id="clipPath90">
      <path
         d="M 0,600 H 900 V 0 H 0 Z"
         transform="translate(-231.12211,-491.95751)"
         id="path90" />
    </clipPath>
    <clipPath
       clipPathUnits="userSpaceOnUse"
       id="clipPath92">
      <path
         d="M 0,600 H 900 V 0 H 0 Z"
         transform="translate(-242.2246,-494.62991)"
         id="path92" />
    </clipPath>
    <clipPath
       clipPathUnits="userSpaceOnUse"
       id="clipPath94">
      <path
         d="M 0,600 H 900 V 0 H 0 Z"
         transform="translate(-253.4878,-497.45851)"
         id="path94" />
    </clipPath>
    <clipPath
       clipPathUnits="userSpaceOnUse"
       id="clipPath96">
      <path
         d="M 0,600 H 900 V 0 H 0 Z"
         transform="translate(-264.79441,-499.34421)"
         id="path96" />
    </clipPath>
    <clipPath
       clipPathUnits="userSpaceOnUse"
       id="clipPath98">
      <path
         d="M 0,600 H 900 V 0 H 0 Z"
         transform="translate(-276.10161,-500.45951)"
         id="path98" />
    </clipPath>
    <clipPath
       clipPathUnits="userSpaceOnUse"
       id="clipPath100">
      <path
         d="M 0,600 H 900 V 0 H 0 Z"
         transform="translate(-287.188,-499.82761)"
         id="path100" />
    </clipPath>
    <clipPath
       clipPathUnits="userSpaceOnUse"
       id="clipPath102">
      <path
         d="M 0,600 H 900 V 0 H 0 Z"
         transform="translate(-297.75781,-496.20851)"
         id="path102" />
    </clipPath>
    <clipPath
       clipPathUnits="userSpaceOnUse"
       id="clipPath104">
      <path
         d="M 0,600 H 900 V 0 H 0 Z"
         transform="translate(-306.66211,-489.66021)"
         id="path104" />
    </clipPath>
    <clipPath
       clipPathUnits="userSpaceOnUse"
       id="clipPath106">
      <path
         d="M 0,600 H 900 V 0 H 0 Z"
         transform="translate(-312.98101,-480.52641)"
         id="path106" />
    </clipPath>
    <clipPath
       clipPathUnits="userSpaceOnUse"
       id="clipPath108">
      <path
         d="M 0,600 H 900 V 0 H 0 Z"
         transform="translate(-316.02541,-469.78421)"
         id="path108" />
    </clipPath>
    <clipPath
       clipPathUnits="userSpaceOnUse"
       id="clipPath110">
      <path
         d="M 0,600 H 900 V 0 H 0 Z"
         transform="translate(-315.91061,-458.63961)"
         id="path110" />
    </clipPath>
    <clipPath
       clipPathUnits="userSpaceOnUse"
       id="clipPath112">
      <path
         d="M 0,600 H 900 V 0 H 0 Z"
         transform="translate(-313.78521,-447.72511)"
         id="path112" />
    </clipPath>
    <clipPath
       clipPathUnits="userSpaceOnUse"
       id="clipPath114">
      <path
         d="M 0,600 H 900 V 0 H 0 Z"
         transform="translate(-228.93901,-480.46871)"
         id="path114" />
    </clipPath>
    <clipPath
       clipPathUnits="userSpaceOnUse"
       id="clipPath116">
      <path
         d="M 0,600 H 900 V 0 H 0 Z"
         transform="translate(-221.96871,-522.50002)"
         id="path116" />
    </clipPath>
    <clipPath
       clipPathUnits="userSpaceOnUse"
       id="clipPath118">
      <path
         d="M 0,600 H 900 V 0 H 0 Z"
         transform="translate(-224.1133,-525.04691)"
         id="path118" />
    </clipPath>
    <clipPath
       clipPathUnits="userSpaceOnUse"
       id="clipPath120">
      <path
         d="M 0,600 H 900 V 0 H 0 Z"
         transform="translate(-221.96871,-528.83741)"
         id="path120" />
    </clipPath>
    <clipPath
       clipPathUnits="userSpaceOnUse"
       id="clipPath122">
      <path
         d="M 0,600 H 900 V 0 H 0 Z"
         transform="translate(-221.96871,-510.45511)"
         id="path122" />
    </clipPath>
    <clipPath
       clipPathUnits="userSpaceOnUse"
       id="clipPath124">
      <path
         d="M 0,600 H 900 V 0 H 0 Z"
         transform="translate(-211.84371,-497.43751)"
         id="path124" />
    </clipPath>
    <clipPath
       clipPathUnits="userSpaceOnUse"
       id="clipPath126">
      <path
         d="M 0,600 H 900 V 0 H 0 Z"
         transform="translate(-232.1875,-482.31251)"
         id="path126" />
    </clipPath>
    <clipPath
       clipPathUnits="userSpaceOnUse"
       id="clipPath128">
      <path
         d="M 0,600 H 900 V 0 H 0 Z"
         transform="translate(-232.1875,-482.31251)"
         id="path128" />
    </clipPath>
    <clipPath
       clipPathUnits="userSpaceOnUse"
       id="clipPath130">
      <path
         d="M 0,600 H 900 V 0 H 0 Z"
         transform="translate(-221.95311,-445.31251)"
         id="path130" />
    </clipPath>
    <clipPath
       clipPathUnits="userSpaceOnUse"
       id="clipPath132">
      <path
         d="M 0,600 H 900 V 0 H 0 Z"
         transform="translate(-297.10641,-380.97411)"
         id="path132" />
    </clipPath>
    <clipPath
       clipPathUnits="userSpaceOnUse"
       id="clipPath134">
      <path
         d="M 0,600 H 900 V 0 H 0 Z"
         transform="translate(-221.96871,-489.05961)"
         id="path134" />
    </clipPath>
    <clipPath
       clipPathUnits="userSpaceOnUse"
       id="clipPath136">
      <path
         d="M 0,600 H 900 V 0 H 0 Z"
         transform="translate(-221.96871,-481.70651)"
         id="path136" />
    </clipPath>
    <clipPath
       clipPathUnits="userSpaceOnUse"
       id="clipPath138">
      <path
         d="M 0,600 H 900 V 0 H 0 Z"
         transform="translate(-221.96871,-473.89401)"
         id="path138" />
    </clipPath>
    <clipPath
       clipPathUnits="userSpaceOnUse"
       id="clipPath140">
      <path
         d="M 0,600 H 900 V 0 H 0 Z"
         transform="translate(-221.96871,-465.39211)"
         id="path140" />
    </clipPath>
    <clipPath
       clipPathUnits="userSpaceOnUse"
       id="clipPath142">
      <path
         d="M 0,600 H 900 V 0 H 0 Z"
         transform="translate(-221.96871,-455.74171)"
         id="path142" />
    </clipPath>
    <clipPath
       clipPathUnits="userSpaceOnUse"
       id="clipPath144">
      <path
         d="M 0,600 H 900 V 0 H 0 Z"
         transform="translate(-302.78121,-420.16891)"
         id="path144" />
    </clipPath>
    <clipPath
       clipPathUnits="userSpaceOnUse"
       id="clipPath146">
      <path
         d="M 0,600 H 900 V 0 H 0 Z"
         transform="translate(-221.96871,-394.41651)"
         id="path146" />
    </clipPath>
  </defs>
  <sodipodi:namedview
     id="namedview1"
     pagecolor="#ffffff"
     bordercolor="#000000"
     borderopacity="0.25"
     inkscape:showpageshadow="2"
     inkscape:pageopacity="0.0"
     inkscape:pagecheckerboard="0"
     inkscape:deskcolor="#d1d1d1">
    <inkscape:page
       x="0"
       y="0"
       inkscape:label="1"
       id="page1"
       width="1200"
       height="800"
       margin="0"
       bleed="0" />
  </sodipodi:namedview>
  <g
     id="layer-MC0"
     inkscape:groupmode="layer"
     inkscape:label="Layer 1">
    <path
       id="path1"
       d="M 0,0 H 900 V 600 H 0 Z"
       style="fill:#002b7f;fill-opacity:1;fill-rule:nonzero;stroke:none"
       transform="matrix(1.3333333,0,0,-1.3333333,0,800)" />
    <path
       id="path2"
       d="M 0,0 H 900 V 300 H 0 Z"
       style="fill:#ce1126;fill-opacity:1;fill-rule:nonzero;stroke:none"
       transform="matrix(1.3333333,0,0,-1.3333333,0,800)" />
    <path
       id="path3"
       d="m 0,0 -1.838,-62.5 h -63.419 c -7.803,15.168 -14.246,28.051 -14.246,45.496 0,14.6 11.482,26.195 28.032,26.195 C -33.951,9.191 -14.702,3.288 0,0"
       style="fill:#ffd83d;fill-opacity:1;fill-rule:nonzero;stroke:none"
       transform="matrix(1.3333333,0,0,-1.3333333,288.50267,163.05147)"
       clip-path="url(#clipPath4)" />
    <path
       id="path5"
       d="M 0,0 V -36.076"
       style="fill:#ffd83d;fill-opacity:1;fill-rule:nonzero;stroke:#000000;stroke-width:1.5;stroke-linecap:round;stroke-linejoin:round;stroke-miterlimit:4;stroke-dasharray:none;stroke-opacity:1"
       transform="matrix(1.3333333,0,0,-1.3333333,192.60813,166.8808)"
       clip-path="url(#clipPath6)" />
    <path
       id="path7"
       d="M 0,0 V -48.034"
       style="fill:#ffd83d;fill-opacity:1;fill-rule:nonzero;stroke:#000000;stroke-width:1.5;stroke-linecap:round;stroke-linejoin:round;stroke-miterlimit:4;stroke-dasharray:none;stroke-opacity:1"
       transform="matrix(1.3333333,0,0,-1.3333333,199.39973,161.97267)"
       clip-path="url(#clipPath8)" />
    <path
       id="path9"
       d="M 0,0 V -57.225"
       style="fill:#ffd83d;fill-opacity:1;fill-rule:nonzero;stroke:#000000;stroke-width:1.5;stroke-linecap:round;stroke-linejoin:round;stroke-miterlimit:4;stroke-dasharray:none;stroke-opacity:1"
       transform="matrix(1.3333333,0,0,-1.3333333,206.1908,158.60227)"
       clip-path="url(#clipPath10)" />
    <path
       id="path11"
       d="M 0,0 V -44.881"
       style="fill:#ffd83d;fill-opacity:1;fill-rule:nonzero;stroke:#000000;stroke-width:1.5;stroke-linecap:round;stroke-linejoin:round;stroke-miterlimit:4;stroke-dasharray:none;stroke-opacity:1"
       transform="matrix(1.3333333,0,0,-1.3333333,212.98173,157.028)"
       clip-path="url(#clipPath12)" />
    <path
       id="path13"
       d="M 0,0 V -45.326"
       style="fill:#ffd83d;fill-opacity:1;fill-rule:nonzero;stroke:#000000;stroke-width:1.5;stroke-linecap:round;stroke-linejoin:round;stroke-miterlimit:4;stroke-dasharray:none;stroke-opacity:1"
       transform="matrix(1.3333333,0,0,-1.3333333,219.77347,156.73107)"
       clip-path="url(#clipPath14)" />
    <path
       id="path15"
       d="M 0,0 V -46.885"
       style="fill:#ffd83d;fill-opacity:1;fill-rule:nonzero;stroke:#000000;stroke-width:1.5;stroke-linecap:round;stroke-linejoin:round;stroke-miterlimit:4;stroke-dasharray:none;stroke-opacity:1"
       transform="matrix(1.3333333,0,0,-1.3333333,226.5644,154.61973)"
       clip-path="url(#clipPath16)" />
    <path
       id="path17"
       d="M 0,0 V -46.885"
       style="fill:#ffd83d;fill-opacity:1;fill-rule:nonzero;stroke:#000000;stroke-width:1.5;stroke-linecap:round;stroke-linejoin:round;stroke-miterlimit:4;stroke-dasharray:none;stroke-opacity:1"
       transform="matrix(1.3333333,0,0,-1.3333333,233.35547,154.61973)"
       clip-path="url(#clipPath18)" />
    <path
       id="path19"
       d="M 0,0 V -46.885"
       style="fill:#ffd83d;fill-opacity:1;fill-rule:nonzero;stroke:#000000;stroke-width:1.5;stroke-linecap:round;stroke-linejoin:round;stroke-miterlimit:4;stroke-dasharray:none;stroke-opacity:1"
       transform="matrix(1.3333333,0,0,-1.3333333,240.1472,155.2324)"
       clip-path="url(#clipPath20)" />
    <path
       id="path21"
       d="M 0,0 V -46.885"
       style="fill:#ffd83d;fill-opacity:1;fill-rule:nonzero;stroke:#000000;stroke-width:1.5;stroke-linecap:round;stroke-linejoin:round;stroke-miterlimit:4;stroke-dasharray:none;stroke-opacity:1"
       transform="matrix(1.3333333,0,0,-1.3333333,246.93813,155.84507)"
       clip-path="url(#clipPath22)" />
    <path
       id="path23"
       d="M 0,0 V -46.885"
       style="fill:#ffd83d;fill-opacity:1;fill-rule:nonzero;stroke:#000000;stroke-width:1.5;stroke-linecap:round;stroke-linejoin:round;stroke-miterlimit:4;stroke-dasharray:none;stroke-opacity:1"
       transform="matrix(1.3333333,0,0,-1.3333333,253.7292,159.82813)"
       clip-path="url(#clipPath24)" />
    <path
       id="path25"
       d="M 0,0 V -52.859"
       style="fill:#ffd83d;fill-opacity:1;fill-rule:nonzero;stroke:#000000;stroke-width:1.5;stroke-linecap:round;stroke-linejoin:round;stroke-miterlimit:4;stroke-dasharray:none;stroke-opacity:1"
       transform="matrix(1.3333333,0,0,-1.3333333,260.5208,160.4408)"
       clip-path="url(#clipPath26)" />
    <path
       id="path27"
       d="M 0,0 V -46.885"
       style="fill:#ffd83d;fill-opacity:1;fill-rule:nonzero;stroke:#000000;stroke-width:1.5;stroke-linecap:round;stroke-linejoin:round;stroke-miterlimit:4;stroke-dasharray:none;stroke-opacity:1"
       transform="matrix(1.3333333,0,0,-1.3333333,267.31187,160.4408)"
       clip-path="url(#clipPath28)" />
    <path
       id="path29"
       d="M 0,0 V -46.885"
       style="fill:#ffd83d;fill-opacity:1;fill-rule:nonzero;stroke:#000000;stroke-width:1.5;stroke-linecap:round;stroke-linejoin:round;stroke-miterlimit:4;stroke-dasharray:none;stroke-opacity:1"
       transform="matrix(1.3333333,0,0,-1.3333333,274.10347,160.4408)"
       clip-path="url(#clipPath30)" />
    <path
       id="path31"
       d="m 0,0 c 10.763,-1.775 34.406,-12.837 31.709,-27.803 -3.821,-21.21 -16.207,-12.698 -32.628,-9.651 l -12.408,-4.136 c -4.44,-4.532 -10.978,-8.683 -15.396,-3.217 h -7.352 v -28.722 h 81.342 v 69.393 z"
       style="fill:#000000;fill-opacity:1;fill-rule:nonzero;stroke:#000000;stroke-width:1.5;stroke-linecap:round;stroke-linejoin:round;stroke-miterlimit:4;stroke-dasharray:none;stroke-opacity:1"
       transform="matrix(1.3333333,0,0,-1.3333333,235.194,157.23053)"
       clip-path="url(#clipPath32)" />
    <path
       id="path33"
       d="m 0,0 c 2.729,0 4.94,-2.211 4.94,-4.94 0,-2.728 -2.211,-4.94 -4.94,-4.94 -2.729,0 -4.94,2.212 -4.94,4.94 C -4.94,-2.211 -2.729,0 0,0"
       style="fill:#ffd83d;fill-opacity:1;fill-rule:nonzero;stroke:#000000;stroke-width:2;stroke-linecap:round;stroke-linejoin:round;stroke-miterlimit:4;stroke-dasharray:none;stroke-opacity:1"
       transform="matrix(1.3333333,0,0,-1.3333333,283.75387,144.05667)"
       clip-path="url(#clipPath34)" />
    <path
       id="path35"
       d="m 0,0 c 2.729,0 4.94,-2.212 4.94,-4.94 0,-2.729 -2.211,-4.941 -4.94,-4.941 -2.729,0 -4.94,2.212 -4.94,4.941 C -4.94,-2.212 -2.729,0 0,0"
       style="fill:#ffd83d;fill-opacity:1;fill-rule:nonzero;stroke:#000000;stroke-width:2;stroke-linecap:round;stroke-linejoin:round;stroke-miterlimit:4;stroke-dasharray:none;stroke-opacity:1"
       transform="matrix(1.3333333,0,0,-1.3333333,268.95053,140.49347)"
       clip-path="url(#clipPath36)" />
    <path
       id="path37"
       d="m 0,0 c 2.729,0 4.94,-2.212 4.94,-4.94 0,-2.729 -2.211,-4.94 -4.94,-4.94 -2.729,0 -4.94,2.211 -4.94,4.94 C -4.94,-2.212 -2.729,0 0,0"
       style="fill:#ffd83d;fill-opacity:1;fill-rule:nonzero;stroke:#000000;stroke-width:2;stroke-linecap:round;stroke-linejoin:round;stroke-miterlimit:4;stroke-dasharray:none;stroke-opacity:1"
       transform="matrix(1.3333333,0,0,-1.3333333,253.93293,136.722)"
       clip-path="url(#clipPath38)" />
    <path
       id="path39"
       d="m 0,0 c 2.729,0 4.94,-2.212 4.94,-4.94 0,-2.728 -2.211,-4.94 -4.94,-4.94 -2.729,0 -4.94,2.212 -4.94,4.94 C -4.94,-2.212 -2.729,0 0,0"
       style="fill:#ffd83d;fill-opacity:1;fill-rule:nonzero;stroke:#000000;stroke-width:2;stroke-linecap:round;stroke-linejoin:round;stroke-miterlimit:4;stroke-dasharray:none;stroke-opacity:1"
       transform="matrix(1.3333333,0,0,-1.3333333,238.85747,134.20773)"
       clip-path="url(#clipPath40)" />
    <path
       id="path41"
       d="m 0,0 c 2.729,0 4.94,-2.212 4.94,-4.94 0,-2.728 -2.211,-4.94 -4.94,-4.94 -2.728,0 -4.94,2.212 -4.94,4.94 C -4.94,-2.212 -2.728,0 0,0"
       style="fill:#ffd83d;fill-opacity:1;fill-rule:nonzero;stroke:#000000;stroke-width:2;stroke-linecap:round;stroke-linejoin:round;stroke-miterlimit:4;stroke-dasharray:none;stroke-opacity:1"
       transform="matrix(1.3333333,0,0,-1.3333333,223.7812,132.72067)"
       clip-path="url(#clipPath42)" />
    <path
       id="path43"
       d="m 0,0 c 2.728,0 4.94,-2.212 4.94,-4.94 0,-2.728 -2.212,-4.94 -4.94,-4.94 -2.729,0 -4.94,2.212 -4.94,4.94 C -4.94,-2.212 -2.729,0 0,0"
       style="fill:#ffd83d;fill-opacity:1;fill-rule:nonzero;stroke:#000000;stroke-width:2;stroke-linecap:round;stroke-linejoin:round;stroke-miterlimit:4;stroke-dasharray:none;stroke-opacity:1"
       transform="matrix(1.3333333,0,0,-1.3333333,208.99933,133.5632)"
       clip-path="url(#clipPath44)" />
    <path
       id="path45"
       d="m 0,0 c 2.728,0 4.94,-2.212 4.94,-4.94 0,-2.728 -2.212,-4.94 -4.94,-4.94 -2.729,0 -4.94,2.212 -4.94,4.94 C -4.94,-2.212 -2.729,0 0,0"
       style="fill:#ffd83d;fill-opacity:1;fill-rule:nonzero;stroke:#000000;stroke-width:2;stroke-linecap:round;stroke-linejoin:round;stroke-miterlimit:4;stroke-dasharray:none;stroke-opacity:1"
       transform="matrix(1.3333333,0,0,-1.3333333,194.90627,138.38867)"
       clip-path="url(#clipPath46)" />
    <path
       id="path47"
       d="m 0,0 c 2.729,0 4.94,-2.212 4.94,-4.94 0,-2.729 -2.211,-4.941 -4.94,-4.941 -2.729,0 -4.94,2.212 -4.94,4.941 C -4.94,-2.212 -2.729,0 0,0"
       style="fill:#ffd83d;fill-opacity:1;fill-rule:nonzero;stroke:#000000;stroke-width:2;stroke-linecap:round;stroke-linejoin:round;stroke-miterlimit:4;stroke-dasharray:none;stroke-opacity:1"
       transform="matrix(1.3333333,0,0,-1.3333333,183.03387,147.11973)"
       clip-path="url(#clipPath48)" />
    <path
       id="path49"
       d="m 0,0 c 2.729,0 4.94,-2.212 4.94,-4.94 0,-2.729 -2.211,-4.941 -4.94,-4.941 -2.729,0 -4.94,2.212 -4.94,4.941 C -4.94,-2.212 -2.729,0 0,0"
       style="fill:#ffd83d;fill-opacity:1;fill-rule:nonzero;stroke:#000000;stroke-width:2;stroke-linecap:round;stroke-linejoin:round;stroke-miterlimit:4;stroke-dasharray:none;stroke-opacity:1"
       transform="matrix(1.3333333,0,0,-1.3333333,174.60867,159.29813)"
       clip-path="url(#clipPath50)" />
    <path
       id="path51"
       d="m 0,0 c 2.729,0 4.94,-2.212 4.94,-4.94 0,-2.729 -2.211,-4.941 -4.94,-4.941 -2.729,0 -4.94,2.212 -4.94,4.941 C -4.94,-2.212 -2.729,0 0,0"
       style="fill:#ffd83d;fill-opacity:1;fill-rule:nonzero;stroke:#000000;stroke-width:2;stroke-linecap:round;stroke-linejoin:round;stroke-miterlimit:4;stroke-dasharray:none;stroke-opacity:1"
       transform="matrix(1.3333333,0,0,-1.3333333,170.54947,173.62107)"
       clip-path="url(#clipPath52)" />
    <path
       id="path53"
       d="m 0,0 c 2.729,0 4.94,-2.212 4.94,-4.94 0,-2.728 -2.211,-4.94 -4.94,-4.94 -2.729,0 -4.94,2.212 -4.94,4.94 C -4.94,-2.212 -2.729,0 0,0"
       style="fill:#ffd83d;fill-opacity:1;fill-rule:nonzero;stroke:#000000;stroke-width:2;stroke-linecap:round;stroke-linejoin:round;stroke-miterlimit:4;stroke-dasharray:none;stroke-opacity:1"
       transform="matrix(1.3333333,0,0,-1.3333333,170.70253,188.48053)"
       clip-path="url(#clipPath54)" />
    <path
       id="path55"
       d="m 0,0 c 2.729,0 4.94,-2.212 4.94,-4.94 0,-2.728 -2.211,-4.94 -4.94,-4.94 -2.729,0 -4.94,2.212 -4.94,4.94 C -4.94,-2.212 -2.729,0 0,0"
       style="fill:#ffd83d;fill-opacity:1;fill-rule:nonzero;stroke:#000000;stroke-width:2;stroke-linecap:round;stroke-linejoin:round;stroke-miterlimit:4;stroke-dasharray:none;stroke-opacity:1"
       transform="matrix(1.3333333,0,0,-1.3333333,173.5364,203.0332)"
       clip-path="url(#clipPath56)" />
    <path
       id="path57"
       d="m 0,0 -0.459,-6.434 c -12.291,1.883 -29.716,8.732 -45.957,8.732 -15.006,0 -26.654,-6.003 -26.654,-21.14 0,-14.918 6.318,-28.485 14.706,-42.279 l -8.732,-4.136 c -7.802,15.168 -14.246,28.051 -14.246,45.496 0,14.599 11.483,28.952 31.25,28.952 C -32.572,9.191 -14.702,3.288 0,0"
       style="fill:#ffd83d;fill-opacity:1;fill-rule:nonzero;stroke:#000000;stroke-width:2;stroke-linecap:round;stroke-linejoin:round;stroke-miterlimit:4;stroke-dasharray:none;stroke-opacity:1"
       transform="matrix(1.3333333,0,0,-1.3333333,286.66467,159.37507)"
       clip-path="url(#clipPath58)" />
    <path
       id="path59"
       d="m 0,0 1.838,-62.5 h 63.419 c 7.803,15.168 14.246,28.051 14.246,45.496 0,14.6 -11.482,26.195 -28.032,26.195 C 33.951,9.191 14.702,3.288 0,0"
       style="fill:#ffd83d;fill-opacity:1;fill-rule:nonzero;stroke:none"
       transform="matrix(1.3333333,0,0,-1.3333333,303.414,163.05147)"
       clip-path="url(#clipPath60)" />
    <path
       id="path61"
       d="M 0,0 V -36.076"
       style="fill:#ffd83d;fill-opacity:1;fill-rule:nonzero;stroke:#000000;stroke-width:1.5;stroke-linecap:round;stroke-linejoin:round;stroke-miterlimit:4;stroke-dasharray:none;stroke-opacity:1"
       transform="matrix(1.3333333,0,0,-1.3333333,399.30853,166.8808)"
       clip-path="url(#clipPath62)" />
    <path
       id="path63"
       d="M 0,0 V -48.034"
       style="fill:#ffd83d;fill-opacity:1;fill-rule:nonzero;stroke:#000000;stroke-width:1.5;stroke-linecap:round;stroke-linejoin:round;stroke-miterlimit:4;stroke-dasharray:none;stroke-opacity:1"
       transform="matrix(1.3333333,0,0,-1.3333333,392.51693,161.97267)"
       clip-path="url(#clipPath64)" />
    <path
       id="path65"
       d="M 0,0 V -57.225"
       style="fill:#ffd83d;fill-opacity:1;fill-rule:nonzero;stroke:#000000;stroke-width:1.5;stroke-linecap:round;stroke-linejoin:round;stroke-miterlimit:4;stroke-dasharray:none;stroke-opacity:1"
       transform="matrix(1.3333333,0,0,-1.3333333,385.72587,158.60227)"
       clip-path="url(#clipPath66)" />
    <path
       id="path67"
       d="M 0,0 V -44.881"
       style="fill:#ffd83d;fill-opacity:1;fill-rule:nonzero;stroke:#000000;stroke-width:1.5;stroke-linecap:round;stroke-linejoin:round;stroke-miterlimit:4;stroke-dasharray:none;stroke-opacity:1"
       transform="matrix(1.3333333,0,0,-1.3333333,378.93493,157.028)"
       clip-path="url(#clipPath68)" />
    <path
       id="path69"
       d="M 0,0 V -45.326"
       style="fill:#ffd83d;fill-opacity:1;fill-rule:nonzero;stroke:#000000;stroke-width:1.5;stroke-linecap:round;stroke-linejoin:round;stroke-miterlimit:4;stroke-dasharray:none;stroke-opacity:1"
       transform="matrix(1.3333333,0,0,-1.3333333,372.1432,156.73107)"
       clip-path="url(#clipPath70)" />
    <path
       id="path71"
       d="M 0,0 V -46.885"
       style="fill:#ffd83d;fill-opacity:1;fill-rule:nonzero;stroke:#000000;stroke-width:1.5;stroke-linecap:round;stroke-linejoin:round;stroke-miterlimit:4;stroke-dasharray:none;stroke-opacity:1"
       transform="matrix(1.3333333,0,0,-1.3333333,365.35227,154.61973)"
       clip-path="url(#clipPath72)" />
    <path
       id="path73"
       d="M 0,0 V -46.885"
       style="fill:#ffd83d;fill-opacity:1;fill-rule:nonzero;stroke:#000000;stroke-width:1.5;stroke-linecap:round;stroke-linejoin:round;stroke-miterlimit:4;stroke-dasharray:none;stroke-opacity:1"
       transform="matrix(1.3333333,0,0,-1.3333333,358.5612,154.61973)"
       clip-path="url(#clipPath74)" />
    <path
       id="path75"
       d="M 0,0 V -46.885"
       style="fill:#ffd83d;fill-opacity:1;fill-rule:nonzero;stroke:#000000;stroke-width:1.5;stroke-linecap:round;stroke-linejoin:round;stroke-miterlimit:4;stroke-dasharray:none;stroke-opacity:1"
       transform="matrix(1.3333333,0,0,-1.3333333,351.76947,155.2324)"
       clip-path="url(#clipPath76)" />
    <path
       id="path77"
       d="M 0,0 V -46.885"
       style="fill:#ffd83d;fill-opacity:1;fill-rule:nonzero;stroke:#000000;stroke-width:1.5;stroke-linecap:round;stroke-linejoin:round;stroke-miterlimit:4;stroke-dasharray:none;stroke-opacity:1"
       transform="matrix(1.3333333,0,0,-1.3333333,344.97853,155.84507)"
       clip-path="url(#clipPath78)" />
    <path
       id="path79"
       d="M 0,0 V -46.885"
       style="fill:#ffd83d;fill-opacity:1;fill-rule:nonzero;stroke:#000000;stroke-width:1.5;stroke-linecap:round;stroke-linejoin:round;stroke-miterlimit:4;stroke-dasharray:none;stroke-opacity:1"
       transform="matrix(1.3333333,0,0,-1.3333333,338.18747,159.82813)"
       clip-path="url(#clipPath80)" />
    <path
       id="path81"
       d="M 0,0 V -52.859"
       style="fill:#ffd83d;fill-opacity:1;fill-rule:nonzero;stroke:#000000;stroke-width:1.5;stroke-linecap:round;stroke-linejoin:round;stroke-miterlimit:4;stroke-dasharray:none;stroke-opacity:1"
       transform="matrix(1.3333333,0,0,-1.3333333,331.39587,160.4408)"
       clip-path="url(#clipPath82)" />
    <path
       id="path83"
       d="M 0,0 V -46.885"
       style="fill:#ffd83d;fill-opacity:1;fill-rule:nonzero;stroke:#000000;stroke-width:1.5;stroke-linecap:round;stroke-linejoin:round;stroke-miterlimit:4;stroke-dasharray:none;stroke-opacity:1"
       transform="matrix(1.3333333,0,0,-1.3333333,324.6048,160.4408)"
       clip-path="url(#clipPath84)" />
    <path
       id="path85"
       d="M 0,0 V -46.885"
       style="fill:#ffd83d;fill-opacity:1;fill-rule:nonzero;stroke:#000000;stroke-width:1.5;stroke-linecap:round;stroke-linejoin:round;stroke-miterlimit:4;stroke-dasharray:none;stroke-opacity:1"
       transform="matrix(1.3333333,0,0,-1.3333333,317.8132,160.4408)"
       clip-path="url(#clipPath86)" />
    <path
       id="path87"
       d="m 0,0 c -10.763,-1.775 -34.406,-12.837 -31.709,-27.803 3.821,-21.21 16.207,-12.698 32.628,-9.651 l 12.408,-4.136 c 4.44,-4.532 10.978,-8.683 15.396,-3.217 h 7.352 v -28.722 h -81.342 v 69.393 z"
       style="fill:#000000;fill-opacity:1;fill-rule:nonzero;stroke:#000000;stroke-width:1.5;stroke-linecap:round;stroke-linejoin:round;stroke-miterlimit:4;stroke-dasharray:none;stroke-opacity:1"
       transform="matrix(1.3333333,0,0,-1.3333333,356.72267,157.23053)"
       clip-path="url(#clipPath88)" />
    <path
       id="path89"
       d="m 0,0 c -2.729,0 -4.94,-2.211 -4.94,-4.94 0,-2.728 2.211,-4.94 4.94,-4.94 2.729,0 4.94,2.212 4.94,4.94 C 4.94,-2.211 2.729,0 0,0"
       style="fill:#ffd83d;fill-opacity:1;fill-rule:nonzero;stroke:#000000;stroke-width:2;stroke-linecap:round;stroke-linejoin:round;stroke-miterlimit:4;stroke-dasharray:none;stroke-opacity:1"
       transform="matrix(1.3333333,0,0,-1.3333333,308.1628,144.05667)"
       clip-path="url(#clipPath90)" />
    <path
       id="path91"
       d="m 0,0 c -2.729,0 -4.94,-2.212 -4.94,-4.94 0,-2.729 2.211,-4.941 4.94,-4.941 2.729,0 4.94,2.212 4.94,4.941 C 4.94,-2.212 2.729,0 0,0"
       style="fill:#ffd83d;fill-opacity:1;fill-rule:nonzero;stroke:#000000;stroke-width:2;stroke-linecap:round;stroke-linejoin:round;stroke-miterlimit:4;stroke-dasharray:none;stroke-opacity:1"
       transform="matrix(1.3333333,0,0,-1.3333333,322.96613,140.49347)"
       clip-path="url(#clipPath92)" />
    <path
       id="path93"
       d="m 0,0 c -2.729,0 -4.94,-2.212 -4.94,-4.94 0,-2.729 2.211,-4.94 4.94,-4.94 2.729,0 4.94,2.211 4.94,4.94 C 4.94,-2.212 2.729,0 0,0"
       style="fill:#ffd83d;fill-opacity:1;fill-rule:nonzero;stroke:#000000;stroke-width:2;stroke-linecap:round;stroke-linejoin:round;stroke-miterlimit:4;stroke-dasharray:none;stroke-opacity:1"
       transform="matrix(1.3333333,0,0,-1.3333333,337.98373,136.722)"
       clip-path="url(#clipPath94)" />
    <path
       id="path95"
       d="m 0,0 c -2.729,0 -4.94,-2.212 -4.94,-4.94 0,-2.728 2.211,-4.94 4.94,-4.94 2.729,0 4.94,2.212 4.94,4.94 C 4.94,-2.212 2.729,0 0,0"
       style="fill:#ffd83d;fill-opacity:1;fill-rule:nonzero;stroke:#000000;stroke-width:2;stroke-linecap:round;stroke-linejoin:round;stroke-miterlimit:4;stroke-dasharray:none;stroke-opacity:1"
       transform="matrix(1.3333333,0,0,-1.3333333,353.0592,134.20773)"
       clip-path="url(#clipPath96)" />
    <path
       id="path97"
       d="m 0,0 c -2.729,0 -4.94,-2.212 -4.94,-4.94 0,-2.728 2.211,-4.94 4.94,-4.94 2.728,0 4.94,2.212 4.94,4.94 C 4.94,-2.212 2.728,0 0,0"
       style="fill:#ffd83d;fill-opacity:1;fill-rule:nonzero;stroke:#000000;stroke-width:2;stroke-linecap:round;stroke-linejoin:round;stroke-miterlimit:4;stroke-dasharray:none;stroke-opacity:1"
       transform="matrix(1.3333333,0,0,-1.3333333,368.13547,132.72067)"
       clip-path="url(#clipPath98)" />
    <path
       id="path99"
       d="m 0,0 c -2.728,0 -4.94,-2.212 -4.94,-4.94 0,-2.728 2.212,-4.94 4.94,-4.94 2.729,0 4.94,2.212 4.94,4.94 C 4.94,-2.212 2.729,0 0,0"
       style="fill:#ffd83d;fill-opacity:1;fill-rule:nonzero;stroke:#000000;stroke-width:2;stroke-linecap:round;stroke-linejoin:round;stroke-miterlimit:4;stroke-dasharray:none;stroke-opacity:1"
       transform="matrix(1.3333333,0,0,-1.3333333,382.91733,133.5632)"
       clip-path="url(#clipPath100)" />
    <path
       id="path101"
       d="m 0,0 c -2.728,0 -4.94,-2.212 -4.94,-4.94 0,-2.728 2.212,-4.94 4.94,-4.94 2.729,0 4.94,2.212 4.94,4.94 C 4.94,-2.212 2.729,0 0,0"
       style="fill:#ffd83d;fill-opacity:1;fill-rule:nonzero;stroke:#000000;stroke-width:2;stroke-linecap:round;stroke-linejoin:round;stroke-miterlimit:4;stroke-dasharray:none;stroke-opacity:1"
       transform="matrix(1.3333333,0,0,-1.3333333,397.0104,138.38867)"
       clip-path="url(#clipPath102)" />
    <path
       id="path103"
       d="m 0,0 c -2.729,0 -4.94,-2.212 -4.94,-4.94 0,-2.729 2.211,-4.941 4.94,-4.941 2.729,0 4.94,2.212 4.94,4.941 C 4.94,-2.212 2.729,0 0,0"
       style="fill:#ffd83d;fill-opacity:1;fill-rule:nonzero;stroke:#000000;stroke-width:2;stroke-linecap:round;stroke-linejoin:round;stroke-miterlimit:4;stroke-dasharray:none;stroke-opacity:1"
       transform="matrix(1.3333333,0,0,-1.3333333,408.8828,147.11973)"
       clip-path="url(#clipPath104)" />
    <path
       id="path105"
       d="m 0,0 c -2.729,0 -4.94,-2.212 -4.94,-4.94 0,-2.729 2.211,-4.941 4.94,-4.941 2.729,0 4.94,2.212 4.94,4.941 C 4.94,-2.212 2.729,0 0,0"
       style="fill:#ffd83d;fill-opacity:1;fill-rule:nonzero;stroke:#000000;stroke-width:2;stroke-linecap:round;stroke-linejoin:round;stroke-miterlimit:4;stroke-dasharray:none;stroke-opacity:1"
       transform="matrix(1.3333333,0,0,-1.3333333,417.308,159.29813)"
       clip-path="url(#clipPath106)" />
    <path
       id="path107"
       d="m 0,0 c -2.729,0 -4.94,-2.212 -4.94,-4.94 0,-2.729 2.211,-4.941 4.94,-4.941 2.729,0 4.94,2.212 4.94,4.941 C 4.94,-2.212 2.729,0 0,0"
       style="fill:#ffd83d;fill-opacity:1;fill-rule:nonzero;stroke:#000000;stroke-width:2;stroke-linecap:round;stroke-linejoin:round;stroke-miterlimit:4;stroke-dasharray:none;stroke-opacity:1"
       transform="matrix(1.3333333,0,0,-1.3333333,421.3672,173.62107)"
       clip-path="url(#clipPath108)" />
    <path
       id="path109"
       d="m 0,0 c -2.729,0 -4.94,-2.212 -4.94,-4.94 0,-2.728 2.211,-4.94 4.94,-4.94 2.729,0 4.94,2.212 4.94,4.94 C 4.94,-2.212 2.729,0 0,0"
       style="fill:#ffd83d;fill-opacity:1;fill-rule:nonzero;stroke:#000000;stroke-width:2;stroke-linecap:round;stroke-linejoin:round;stroke-miterlimit:4;stroke-dasharray:none;stroke-opacity:1"
       transform="matrix(1.3333333,0,0,-1.3333333,421.21413,188.48053)"
       clip-path="url(#clipPath110)" />
    <path
       id="path111"
       d="m 0,0 c -2.729,0 -4.94,-2.212 -4.94,-4.94 0,-2.728 2.211,-4.94 4.94,-4.94 2.729,0 4.94,2.212 4.94,4.94 C 4.94,-2.212 2.729,0 0,0"
       style="fill:#ffd83d;fill-opacity:1;fill-rule:nonzero;stroke:#000000;stroke-width:2;stroke-linecap:round;stroke-linejoin:round;stroke-miterlimit:4;stroke-dasharray:none;stroke-opacity:1"
       transform="matrix(1.3333333,0,0,-1.3333333,418.38027,203.0332)"
       clip-path="url(#clipPath112)" />
    <path
       id="path113"
       d="m 0,0 0.459,-6.434 c 12.291,1.883 29.716,8.732 45.957,8.732 15.006,0 26.654,-6.003 26.654,-21.14 0,-14.918 -6.318,-28.485 -14.706,-42.279 l 8.732,-4.136 c 7.802,15.168 14.246,28.051 14.246,45.496 0,14.599 -11.483,28.952 -31.25,28.952 C 32.572,9.191 14.702,3.288 0,0"
       style="fill:#ffd83d;fill-opacity:1;fill-rule:nonzero;stroke:#000000;stroke-width:2;stroke-linecap:round;stroke-linejoin:round;stroke-miterlimit:4;stroke-dasharray:none;stroke-opacity:1"
       transform="matrix(1.3333333,0,0,-1.3333333,305.252,159.37507)"
       clip-path="url(#clipPath114)" />
    <path
       id="path115"
       d="M 0,0 -5.156,-9.625 0,-19.281 5.156,-9.625 Z M 0,24.375 -5.156,14.719 0,5.094 5.156,14.719 Z"
       style="fill:#ffd83d;fill-opacity:1;fill-rule:nonzero;stroke:#000000;stroke-width:2;stroke-linecap:round;stroke-linejoin:round;stroke-miterlimit:4;stroke-dasharray:none;stroke-opacity:1"
       transform="matrix(1.3333333,0,0,-1.3333333,295.95827,103.33333)"
       clip-path="url(#clipPath116)" />
    <path
       id="path117"
       d="M 0,0 8.105,-5.156 16.237,0 8.105,5.156 Z m -20.526,0 8.131,-5.156 8.106,5.156 -8.106,5.156 z"
       style="fill:#ffd83d;fill-opacity:1;fill-rule:nonzero;stroke:#000000;stroke-width:2;stroke-linecap:round;stroke-linejoin:round;stroke-miterlimit:4;stroke-dasharray:none;stroke-opacity:1"
       transform="matrix(1.3333333,0,0,-1.3333333,298.81773,99.937467)"
       clip-path="url(#clipPath118)" />
    <path
       id="path119"
       d="m 0,0 c 2.157,0 3.906,-1.749 3.906,-3.906 0,-2.157 -1.749,-3.906 -3.906,-3.906 -2.157,0 -3.906,1.749 -3.906,3.906 C -3.906,-1.749 -2.157,0 0,0"
       style="fill:#ffd83d;fill-opacity:1;fill-rule:nonzero;stroke:#000000;stroke-width:2;stroke-linecap:round;stroke-linejoin:round;stroke-miterlimit:4;stroke-dasharray:none;stroke-opacity:1"
       transform="matrix(1.3333333,0,0,-1.3333333,295.95827,94.883467)"
       clip-path="url(#clipPath120)" />
    <path
       id="path121"
       d="M 0,0 C 5.774,0 10.455,-4.681 10.455,-10.455 10.455,-16.229 5.774,-20.91 0,-20.91 c -5.774,0 -10.455,4.681 -10.455,10.455 C -10.455,-4.681 -5.774,0 0,0"
       style="fill:#ffd83d;fill-opacity:1;fill-rule:nonzero;stroke:#000000;stroke-width:2;stroke-linecap:round;stroke-linejoin:round;stroke-miterlimit:4;stroke-dasharray:none;stroke-opacity:1"
       transform="matrix(1.3333333,0,0,-1.3333333,295.95827,119.3932)"
       clip-path="url(#clipPath122)" />
    <path
       id="path123"
       d="M 0,0 C 3.295,0.55 6.674,0.844 10.125,0.844 13.576,0.844 16.955,0.55 20.25,0 m -0.031,5.281 c -2.432,0.405 -4.917,0.67 -7.438,0.781 v 6.626 m -5.281,0 C 7.5,9.573 7.478,7.763 7.469,6.062 4.948,5.951 2.463,5.686 0.031,5.281"
       style="fill:none;stroke:#000000;stroke-width:1.5;stroke-linecap:round;stroke-linejoin:round;stroke-miterlimit:4;stroke-dasharray:none;stroke-opacity:1"
       transform="matrix(1.3333333,0,0,-1.3333333,282.45827,136.75)"
       clip-path="url(#clipPath124)" />
    <path
       id="path125"
       d="m 0,0 -6.875,-1.156 c 1.149,-8.751 1.942,-27.265 5.719,-41.594 L 9.656,-47.125 C 3.009,-34.479 0.992,-17.082 0,0 m -20.437,0 c -0.992,-17.082 -3.009,-34.479 -9.657,-47.125 l 10.813,4.375 c 3.776,14.329 4.57,32.843 5.718,41.594 z"
       style="fill:#ffd83d;fill-opacity:1;fill-rule:nonzero;stroke:none"
       transform="matrix(1.3333333,0,0,-1.3333333,309.58333,156.91667)"
       clip-path="url(#clipPath126)" />
    <path
       id="path127"
       d="m 0,0 -6.875,-1.156 c 1.149,-8.751 1.942,-27.265 5.719,-41.594 L 9.656,-47.125 C 3.009,-34.479 0.992,-17.082 0,0 Z m -20.437,0 c -0.992,-17.082 -3.009,-34.479 -9.657,-47.125 l 10.813,4.375 c 3.776,14.329 4.57,32.843 5.718,41.594 z"
       style="fill:none;stroke:#000000;stroke-width:2;stroke-linecap:round;stroke-linejoin:round;stroke-miterlimit:4;stroke-dasharray:none;stroke-opacity:1"
       transform="matrix(1.3333333,0,0,-1.3333333,309.58333,156.91667)"
       clip-path="url(#clipPath128)" />
    <path
       id="path129"
       d="m 0,0 c -12.914,0 -22.399,-6.086 -22.969,-21.594 -3.156,5.555 -16.51,23.026 -28.969,20.688 -7.409,-1.391 -13.957,-11.666 -12.843,-23.438 -6.135,17.63 -24.107,20.519 -37.219,10.094 11.642,-9.572 16.821,-37.835 26.625,-50.094 H 0 75.375 c 9.804,12.259 15.014,40.522 26.656,50.094 C 88.919,-3.825 70.947,-6.714 64.813,-24.344 65.926,-12.572 59.347,-2.297 51.938,-0.906 39.479,1.432 26.157,-16.039 23,-21.594 22.431,-6.086 12.914,0 0,0"
       style="fill:#ffd83d;fill-opacity:1;fill-rule:nonzero;stroke:#000000;stroke-width:2;stroke-linecap:round;stroke-linejoin:round;stroke-miterlimit:4;stroke-dasharray:none;stroke-opacity:1"
       transform="matrix(1.3333333,0,0,-1.3333333,295.93747,206.25)"
       clip-path="url(#clipPath130)" />
    <path
       id="path131"
       d="m 0,0 c 0,-5.581 -33.662,-11.719 -75.138,-11.719 -41.476,0 -75.137,6.138 -75.137,11.719 0,5.581 33.661,8.502 75.137,8.502 C -33.662,8.502 0,5.581 0,0"
       style="fill:#000000;fill-opacity:1;fill-rule:nonzero;stroke:#000000;stroke-width:1.5;stroke-linecap:round;stroke-linejoin:round;stroke-miterlimit:4;stroke-dasharray:none;stroke-opacity:1"
       transform="matrix(1.3333333,0,0,-1.3333333,396.14187,292.03453)"
       clip-path="url(#clipPath132)" />
    <path
       id="path133"
       d="m 0,0 c 1.935,0 3.504,-1.569 3.504,-3.504 0,-1.935 -1.569,-3.504 -3.504,-3.504 -1.935,0 -3.504,1.569 -3.504,3.504 C -3.504,-1.569 -1.935,0 0,0"
       style="fill:#ffd83d;fill-opacity:1;fill-rule:nonzero;stroke:#000000;stroke-width:1.5;stroke-linecap:round;stroke-linejoin:round;stroke-miterlimit:4;stroke-dasharray:none;stroke-opacity:1"
       transform="matrix(1.3333333,0,0,-1.3333333,295.95827,147.92053)"
       clip-path="url(#clipPath134)" />
    <path
       id="path135"
       d="m 0,0 c 2.062,0 3.734,-1.672 3.734,-3.734 0,-2.062 -1.672,-3.734 -3.734,-3.734 -2.062,0 -3.734,1.672 -3.734,3.734 C -3.734,-1.672 -2.062,0 0,0"
       style="fill:#ffd83d;fill-opacity:1;fill-rule:nonzero;stroke:#000000;stroke-width:1.5;stroke-linecap:round;stroke-linejoin:round;stroke-miterlimit:4;stroke-dasharray:none;stroke-opacity:1"
       transform="matrix(1.3333333,0,0,-1.3333333,295.95827,157.72467)"
       clip-path="url(#clipPath136)" />
    <path
       id="path137"
       d="m 0,0 c 2.252,0 4.079,-1.826 4.079,-4.079 0,-2.252 -1.827,-4.078 -4.079,-4.078 -2.252,0 -4.079,1.826 -4.079,4.078 C -4.079,-1.826 -2.252,0 0,0"
       style="fill:#ffd83d;fill-opacity:1;fill-rule:nonzero;stroke:#000000;stroke-width:1.5;stroke-linecap:round;stroke-linejoin:round;stroke-miterlimit:4;stroke-dasharray:none;stroke-opacity:1"
       transform="matrix(1.3333333,0,0,-1.3333333,295.95827,168.14133)"
       clip-path="url(#clipPath138)" />
    <path
       id="path139"
       d="m 0,0 c 2.57,0 4.653,-2.083 4.653,-4.653 0,-2.57 -2.083,-4.653 -4.653,-4.653 -2.57,0 -4.653,2.083 -4.653,4.653 C -4.653,-2.083 -2.57,0 0,0"
       style="fill:#ffd83d;fill-opacity:1;fill-rule:nonzero;stroke:#000000;stroke-width:1.5;stroke-linecap:round;stroke-linejoin:round;stroke-miterlimit:4;stroke-dasharray:none;stroke-opacity:1"
       transform="matrix(1.3333333,0,0,-1.3333333,295.95827,179.4772)"
       clip-path="url(#clipPath140)" />
    <path
       id="path141"
       d="m 0,0 c 2.824,0 5.113,-2.289 5.113,-5.113 0,-2.824 -2.289,-5.112 -5.113,-5.112 -2.824,0 -5.113,2.288 -5.113,5.112 C -5.113,-2.289 -2.824,0 0,0"
       style="fill:#ffd83d;fill-opacity:1;fill-rule:nonzero;stroke:#000000;stroke-width:1.5;stroke-linecap:round;stroke-linejoin:round;stroke-miterlimit:4;stroke-dasharray:none;stroke-opacity:1"
       transform="matrix(1.3333333,0,0,-1.3333333,295.95827,192.3444)"
       clip-path="url(#clipPath142)" />
    <path
       id="path143"
       d="m 0,0 c -0.293,-0.026 -0.7,-0.22 -1.094,-0.531 -1.051,-0.829 -4.259,-4.13 -5.531,-5.844 -1.272,-1.714 -2.606,-1.435 -2.938,-0.937 -0.331,0.498 -0.813,1.816 -1.062,2.812 -0.367,1.468 -1.261,1.576 -1.344,0 -0.083,-1.576 0.596,-3.419 1.094,-6.156 0.498,-2.737 -0.057,-7.257 -2.344,-12.594 -0.746,-1.742 0.599,-1.075 1.594,0.75 2.446,4.485 8.543,9.42 14.625,13.844 1.181,0.859 0.94,1.731 -0.719,1.344 -1.658,-0.387 -2.55,-1.719 -4.375,-1.719 -0.611,0 -1.267,-0.015 -1.156,1.312 0.11,1.327 1.757,4.424 3.25,6.469 0.657,0.9 0.488,1.294 0,1.25 m -161.625,0 c -0.488,0.044 -0.657,-0.35 0,-1.25 1.493,-2.045 3.14,-5.142 3.25,-6.469 0.111,-1.327 -0.545,-1.312 -1.156,-1.312 -1.825,0 -2.717,1.332 -4.375,1.719 -1.659,0.387 -1.9,-0.485 -0.719,-1.344 6.083,-4.424 12.179,-9.359 14.625,-13.844 0.995,-1.825 2.34,-2.492 1.594,-0.75 -2.287,5.337 -2.842,9.857 -2.344,12.594 0.498,2.737 1.177,4.58 1.094,6.156 -0.083,1.576 -0.977,1.468 -1.344,0 -0.249,-0.996 -0.731,-2.314 -1.062,-2.812 -0.332,-0.498 -1.666,-0.777 -2.938,0.937 -1.272,1.714 -4.48,5.015 -5.531,5.844 -0.394,0.311 -0.801,0.505 -1.094,0.531 m 140.719,4.173 c -0.272,-0.028 -0.548,-0.157 -0.688,-0.406 -0.497,-0.885 -1.609,-2.314 -2.343,-3.5 -0.719,-1.162 0.401,-1.366 0.843,-0.813 0.443,0.553 1.714,1.601 2.875,3.094 0.726,0.933 0.181,1.532 -0.437,1.625 -0.093,0.014 -0.159,0.01 -0.25,0 m -120.063,0 c -0.618,-0.093 -1.163,-0.692 -0.437,-1.625 1.161,-1.493 2.432,-2.541 2.875,-3.094 0.442,-0.553 1.562,-0.349 0.844,0.813 -0.735,1.186 -1.847,2.615 -2.344,3.5 -0.187,0.332 -0.567,0.462 -0.938,0.406 M -7.562,5.594 C -7.957,5.566 -8.417,5.213 -8.5,4.687 -8.666,3.637 -8.844,2.526 -8.844,1.531 c 0,-0.995 0.724,-1.175 1,-0.125 0.277,1.051 0.613,1.978 0.844,3.094 0.166,0.802 -0.168,1.122 -0.562,1.094 m -146.5,0 c -0.395,0.028 -0.729,-0.292 -0.563,-1.094 0.231,-1.116 0.567,-2.043 0.844,-3.094 0.276,-1.05 1,-0.87 1,0.125 0,0.995 -0.178,2.106 -0.344,3.156 -0.083,0.526 -0.543,0.879 -0.937,0.907 m 132,3.954 c -0.212,-0.038 -0.481,-0.287 -0.813,-0.813 -1.327,-2.101 -2.065,-2.982 -2.562,-3.812 -0.499,-0.829 0.014,-1.715 0.843,-0.719 1.002,1.202 2,2.271 2.719,3.156 0.539,0.664 0.448,2.302 -0.187,2.188 m -117.5,0 c -0.636,0.114 -0.727,-1.524 -0.188,-2.188 0.719,-0.885 1.717,-1.954 2.719,-3.156 0.829,-0.996 1.342,-0.11 0.844,0.719 -0.498,0.83 -1.236,1.711 -2.563,3.812 -0.332,0.526 -0.601,0.775 -0.812,0.813 M -3.281,7.812 C -3.827,7.82 -4.452,7.479 -4.562,6.844 -4.784,5.572 -4.865,4.88 -5.031,3.719 -5.197,2.558 -4.308,2.171 -4.031,3 c 0.276,0.83 1.101,2.265 1.5,3.594 0.249,0.829 -0.204,1.212 -0.75,1.218 m -155.063,0 c -0.546,-0.006 -0.999,-0.389 -0.75,-1.218 0.399,-1.329 1.224,-2.764 1.5,-3.594 0.277,-0.829 1.166,-0.442 1,0.719 -0.166,1.161 -0.247,1.853 -0.468,3.125 -0.111,0.635 -0.736,0.976 -1.282,0.968 m 124.469,2.423 c -0.256,-0.047 -0.563,-0.378 -0.813,-1.093 -0.663,-1.908 -2.89,-6.112 -3.968,-7.688 -1.079,-1.576 -2.421,-0.856 -3.25,0.969 -1.244,2.737 -2.03,1.12 -1.25,-0.563 2.073,-4.479 1.809,-11.622 0.437,-20.312 -0.249,-1.576 0.637,-1.41 0.969,0 1.623,6.898 5.82,12.586 11.875,17.562 1.192,0.98 0.329,1.675 -0.5,1.094 -0.829,-0.58 -1.9,-1.179 -2.813,-1.594 -0.912,-0.414 -1.594,-0.243 -1.843,1 -0.249,1.245 0.183,3.91 1.593,8.969 0.255,0.913 0.059,1.563 -0.281,1.656 -0.048,0.014 -0.103,0.01 -0.156,0 m -94.031,0 c -0.34,-0.093 -0.536,-0.743 -0.281,-1.656 1.41,-5.059 1.842,-7.724 1.593,-8.969 -0.248,-1.243 -0.931,-1.414 -1.843,-1 -0.913,0.415 -1.984,1.014 -2.813,1.594 -0.829,0.581 -1.692,-0.114 -0.5,-1.094 6.055,-4.976 10.252,-10.664 11.875,-17.562 0.332,-1.41 1.218,-1.576 0.969,0 -1.372,8.69 -1.636,15.833 0.437,20.312 0.78,1.683 -0.006,3.3 -1.25,0.563 -0.829,-1.825 -2.171,-2.545 -3.25,-0.969 -1.078,1.576 -3.305,5.78 -3.969,7.688 -0.249,0.715 -0.556,1.046 -0.812,1.093 -0.053,0.01 -0.107,0.014 -0.156,0 M -64,8.25 c -0.302,-0.047 -0.605,-0.336 -0.75,-0.938 -0.387,-1.603 -0.498,-2.917 -0.719,-3.968 -0.221,-1.051 1.123,-1.036 1.344,0.125 0.229,1.202 0.606,2.433 0.937,3.593 0.182,0.636 -0.191,1.127 -0.625,1.188 -0.062,0.009 -0.124,0.01 -0.187,0 m -33.813,0 c -0.433,-0.061 -0.806,-0.552 -0.625,-1.188 0.332,-1.16 0.709,-2.391 0.938,-3.593 0.221,-1.161 1.565,-1.176 1.344,-0.125 -0.221,1.051 -0.332,2.365 -0.719,3.968 -0.145,0.602 -0.448,0.891 -0.75,0.938 -0.063,0.01 -0.125,0.009 -0.188,0 M 11.844,8.969 C 11.586,8.972 11.258,8.895 10.844,8.688 9.185,7.858 8.539,7.017 7.875,6.187 7.211,5.358 7.693,4.442 8.938,5.437 10,6.288 11.087,7.024 12,7.687 c 0.684,0.498 0.618,1.274 -0.156,1.282 m -185.313,0 c -0.774,-0.008 -0.84,-0.784 -0.156,-1.282 0.913,-0.663 2,-1.399 3.063,-2.25 1.244,-0.995 1.726,-0.079 1.062,0.75 -0.664,0.83 -1.31,1.671 -2.969,2.501 -0.414,0.207 -0.742,0.284 -1,0.281 M 2.094,9.313 C 1.562,9.32 0.839,8.938 0.562,8.219 0.009,6.781 -0.11,5.986 -0.719,4.437 -1.327,2.89 0.19,3.224 0.687,4.219 1.186,5.214 1.969,6.694 2.563,8 2.977,8.913 2.626,9.306 2.094,9.313 m -165.813,0 c -0.532,-0.007 -0.883,-0.4 -0.468,-1.313 0.593,-1.306 1.376,-2.786 1.875,-3.781 0.497,-0.995 2.014,-1.329 1.406,0.218 -0.609,1.549 -0.728,2.344 -1.281,3.782 -0.277,0.719 -1,1.101 -1.532,1.094 m 170.844,1 C 6.821,10.296 6.423,10.026 5.969,9.344 5.14,8.1 4.54,7.34 4.125,6.594 3.71,5.848 3.952,4.879 4.781,5.625 c 1.046,0.942 1.681,1.558 2.594,2.719 0.627,0.799 0.418,2.004 -0.25,1.969 m -175.875,0 c -0.668,0.035 -0.877,-1.17 -0.25,-1.969 0.913,-1.161 1.548,-1.777 2.594,-2.719 0.829,-0.746 1.071,0.223 0.656,0.969 -0.415,0.746 -1.015,1.506 -1.844,2.75 -0.454,0.682 -0.852,0.952 -1.156,0.969 m 144.188,3.329 c -0.348,0.027 -0.762,-0.19 -1.032,-0.75 -0.718,-1.493 -0.923,-2.7 -1.531,-3.75 -0.608,-1.051 0.252,-1.611 0.75,-0.782 0.498,0.83 1.585,2.281 2.219,3.438 0.587,1.071 0.172,1.798 -0.406,1.844 m -112.5,0 c -0.579,-0.046 -0.994,-0.773 -0.407,-1.844 0.634,-1.157 1.721,-2.608 2.219,-3.438 0.498,-0.829 1.358,-0.269 0.75,0.782 -0.608,1.05 -0.812,2.257 -1.531,3.75 -0.27,0.56 -0.684,0.777 -1.031,0.75 m 91.531,0.406 c -0.441,-0.012 -1.006,-0.495 -1.188,-1.281 -0.331,-1.438 -0.317,-1.822 -0.594,-3.094 -0.276,-1.272 0.88,-1.471 1.157,-0.531 0.276,0.94 0.97,2.904 1.156,3.906 0.104,0.56 -0.075,0.884 -0.344,0.969 -0.056,0.017 -0.124,0.033 -0.187,0.031 m -70.563,0 c -0.063,0.002 -0.131,-0.014 -0.187,-0.031 -0.269,-0.085 -0.448,-0.409 -0.344,-0.969 0.186,-1.002 0.88,-2.966 1.156,-3.906 0.277,-0.94 1.433,-0.741 1.156,0.531 -0.276,1.272 -0.262,1.656 -0.593,3.094 -0.182,0.786 -0.747,1.269 -1.188,1.281 m 35.281,-1.61 c -0.719,0 -0.818,-0.966 -0.843,-1.75 -0.083,-2.572 -1.15,-5.069 -2.063,-6.313 -0.912,-1.244 -2.256,-0.913 -3.5,-0.25 -1.244,0.664 -1.985,1.161 -3.312,2.156 -1.327,0.995 -2.334,0.414 -0.75,-1.844 4.617,-6.58 9.625,-12.204 9.625,-22.937 0,-1.388 0.242,-1.812 0.843,-1.812 0.602,0 0.875,0.424 0.875,1.812 0,10.733 4.977,16.357 9.594,22.937 1.584,2.258 0.577,2.839 -0.75,1.844 -1.326,-0.995 -2.068,-1.492 -3.312,-2.156 -1.244,-0.663 -2.588,-0.994 -3.5,0.25 -0.913,1.244 -1.98,3.741 -2.063,6.313 -0.025,0.784 -0.124,1.75 -0.844,1.75 m 14.25,1.187 c -0.35,0 -0.698,-0.295 -0.843,-1 -0.387,-1.88 -0.538,-3.084 -0.594,-3.969 -0.055,-0.885 0.887,-1.545 1.219,-0.218 0.374,1.496 0.887,2.526 1.218,3.687 0.208,0.726 -0.416,1.5 -1,1.5 m -28.5,0 c -0.583,0 -1.207,-0.774 -1,-1.5 0.332,-1.161 0.845,-2.191 1.219,-3.687 0.332,-1.327 1.275,-0.667 1.219,0.218 -0.055,0.885 -0.207,2.089 -0.594,3.969 -0.145,0.705 -0.493,1 -0.844,1 m 67.032,2.798 c -0.334,0.034 -0.673,-0.221 -0.875,-1.031 -0.277,-1.106 -0.56,-2.007 -0.781,-2.782 -0.222,-0.774 0.384,-1.716 0.937,-0.5 0.534,1.174 0.884,1.551 1.438,2.657 0.345,0.691 -0.163,1.599 -0.719,1.656 m -105.563,0 c -0.556,-0.057 -1.064,-0.965 -0.718,-1.656 0.553,-1.106 0.903,-1.483 1.437,-2.657 0.553,-1.216 1.159,-0.274 0.938,0.5 -0.222,0.775 -0.505,1.676 -0.782,2.782 -0.202,0.81 -0.541,1.065 -0.875,1.031 m 93.188,0.687 c -0.4,0.077 -0.866,-0.282 -1.157,-1.25 -0.664,-2.211 -0.935,-3.677 -1.156,-4.562 -0.221,-0.885 0.697,-1.164 1.25,0.219 0.553,1.382 1.183,2.533 1.625,3.75 0.35,0.962 -0.048,1.746 -0.562,1.843 m -80.813,0 c -0.514,-0.097 -0.912,-0.881 -0.562,-1.843 0.442,-1.217 1.072,-2.368 1.625,-3.75 0.553,-1.383 1.471,-1.104 1.25,-0.219 -0.221,0.885 -0.492,2.351 -1.157,4.562 -0.29,0.968 -0.756,1.327 -1.156,1.25 m 85.5,0.969 c -0.348,-0.074 -0.751,-0.41 -1,-1.156 -0.663,-1.991 -0.762,-2.606 -1.094,-3.656 -0.332,-1.051 0.652,-1.38 1.094,-0.219 0.502,1.318 1.221,2.565 1.719,3.781 0.249,0.608 10e-4,1.126 -0.406,1.25 -0.102,0.031 -0.197,0.025 -0.313,0 m -90.5,0 c -0.407,-0.124 -0.655,-0.642 -0.406,-1.25 0.498,-1.216 1.217,-2.463 1.719,-3.781 0.442,-1.161 1.426,-0.832 1.093,0.219 -0.331,1.05 -0.43,1.665 -1.093,3.656 -0.332,0.995 -0.905,1.281 -1.313,1.156 m 94.813,0.063 c -0.333,-0.011 -0.72,-0.295 -1.032,-1 -0.829,-1.88 -1.129,-2.866 -1.406,-3.75 -0.276,-0.886 0.572,-1.679 1.125,-0.407 0.621,1.43 1.267,2.267 1.875,3.594 0.381,0.83 -0.008,1.581 -0.562,1.563 m -98.813,0 c -0.554,0.018 -0.943,-0.733 -0.562,-1.563 0.608,-1.327 1.254,-2.164 1.875,-3.594 0.553,-1.272 1.401,-0.479 1.125,0.407 -0.277,0.884 -0.577,1.87 -1.406,3.75 -0.312,0.705 -0.699,0.989 -1.032,1 m 59.094,0.17 c -0.329,-0.09 -0.625,-0.476 -0.625,-1.312 0,-1.493 0.101,-3.132 0.156,-3.906 0.056,-0.774 1,-1.169 1,-0.063 0,1.291 0.255,2.698 0.531,3.969 0.139,0.636 -0.287,1.193 -0.75,1.312 -0.115,0.031 -0.203,0.031 -0.312,0 m -19.688,0 c -0.462,-0.119 -0.888,-0.676 -0.75,-1.312 0.277,-1.271 0.532,-2.678 0.532,-3.969 0,-1.106 0.945,-0.711 1,0.063 0.055,0.774 0.156,2.413 0.156,3.906 0,1.115 -0.475,1.432 -0.938,1.312 m 15.438,1.75 c -0.334,-0.042 -0.615,-0.325 -0.656,-0.968 -0.111,-1.714 0.014,-3.022 0.125,-3.906 0.111,-0.885 1.202,-1.486 1.312,0.062 0.107,1.499 0.383,2.692 0.438,3.687 0.03,0.545 -0.494,1.055 -1,1.125 -0.073,0.011 -0.149,0.01 -0.219,0 m -11.094,0 c -0.506,-0.07 -1.03,-0.58 -1,-1.125 0.055,-0.995 0.331,-2.188 0.438,-3.687 0.11,-1.548 1.201,-0.947 1.312,-0.062 0.111,0.884 0.236,2.192 0.125,3.906 -0.041,0.643 -0.322,0.926 -0.656,0.968 -0.069,0.01 -0.146,0.011 -0.219,0 m 7.688,0.563 c -0.553,-0.007 -1.153,-0.484 -1.125,-1.563 0.055,-2.156 -0.034,-2.901 0.187,-4.062 0.221,-1.161 1.092,-1.524 1.313,-0.031 0.195,1.317 0.399,3.269 0.562,4.312 0.138,0.885 -0.385,1.351 -0.937,1.344 m -4.063,0 c -0.552,0.007 -1.075,-0.459 -0.937,-1.344 0.163,-1.043 0.367,-2.995 0.562,-4.312 0.221,-1.493 1.092,-1.13 1.313,0.031 0.221,1.161 0.132,1.906 0.187,4.062 0.028,1.079 -0.572,1.556 -1.125,1.563"
       style="fill:#000000;fill-opacity:1;fill-rule:nonzero;stroke:none"
       transform="matrix(1.3333333,0,0,-1.3333333,403.70827,239.7748)"
       clip-path="url(#clipPath144)" />
    <path
       id="path145"
       d="M 0,0 V -7.124 M 7.474,-0.421 7.202,-6.89 m 6.283,6.307 -0.271,-6.47 m 5.498,6.143 -0.326,-6.466 m 5.067,6.14 -0.384,-6.464 m 5.612,6.462 -0.442,-6.46 m 5.335,5.955 -0.804,-6.424 m 5.678,5.774 -0.803,-6.425 m 5.84,6.75 -0.803,-6.425 m 6.157,4.615 -1.113,-6.379 m 6.597,6.385 -1.033,-6.392 m 6.189,5.884 -1.271,-6.349 m 5.291,5.544 -1.187,-6.365 m 5.52,5.653 -1.728,-6.24 m 5.738,5.07 -1.95,-6.175 M -7.474,-0.421 -7.202,-6.89 m -6.283,6.307 0.271,-6.47 m -5.498,6.143 0.326,-6.466 m -5.067,6.14 0.384,-6.464 m -5.612,6.462 0.442,-6.46 m -5.335,5.955 0.804,-6.424 m -5.678,5.774 0.803,-6.425 m -5.84,6.75 0.803,-6.425 m -6.157,4.615 1.113,-6.379 m -6.597,6.385 1.033,-6.392 m -6.189,5.884 1.271,-6.349 m -5.291,5.544 1.187,-6.365 m -5.52,5.653 1.728,-6.24 m -5.738,5.07 1.95,-6.175"
       style="fill:#ffd83d;fill-opacity:1;fill-rule:nonzero;stroke:#000000;stroke-width:1.5;stroke-linecap:round;stroke-linejoin:round;stroke-miterlimit:4;stroke-dasharray:none;stroke-opacity:1"
       transform="matrix(1.3333333,0,0,-1.3333333,295.95827,274.11133)"
       clip-path="url(#clipPath146)" />
  </g>
</svg>
