<svg height="800" viewBox="0 0 1200 800" width="1200" xmlns="http://www.w3.org/2000/svg" xmlns:xlink="http://www.w3.org/1999/xlink"><clipPath id="a"><path d="m0 600h900v-600h-900z" transform="translate(-789.46292 -139.4863)"/></clipPath><clipPath id="b"><path d="m0 600h900v-600h-900z" transform="translate(-404.41991 -458.07521)"/></clipPath><clipPath id="c"><path d="m0 600h900v-600h-900z" transform="translate(-789.46292 -460.07521)"/></clipPath><clipPath id="d"><path d="m0 600h900v-600h-900z" transform="translate(-399.28711 -139.4863)"/></clipPath><clipPath id="e"><path d="m0 600h900v-600h-900z" transform="translate(-519.41212 -357.79491)"/></clipPath><clipPath id="f"><path d="m0 600h900v-600h-900z" transform="translate(-519.41212 -357.79491)"/></clipPath><clipPath id="g"><path d="m0 600h900v-600h-900z" transform="translate(-519.41212 -357.79491)"/></clipPath><g transform="matrix(1.3333333 0 0 -1.3333333 0 800)"><path d="m0 0h900v600h-900z" fill="#ffb700"/><path d="m161.25 550h123.75v-500h-123.75z" fill="#ff5b00"/><path d="m37.5 550h123.75v-500h-123.75z" fill="#005641"/><path d="m322.5 550h543.75v-500h-543.75z" fill="#8d2029"/></g><g fill="#ffb700"><path clip-path="url(#a)" d="m0 0s5.837-11.883 12.285-16.726c9.554-7.173 29.145-6.655 37.459-15.025 9.963-9.869-.773-22.909-.683-24.04l.545-6.887s-6.717-.081-9.545-.521c-4.253-.663-5.913-4.124-13.832-3.611-19.91 1.292-19.107 19.23-20.233 34.559-1 5.837-3.313 13.447-4.628 19.282-1.128 5.004-1.368 12.969-1.368 12.969" stroke="#000" stroke-width="2.126" transform="matrix(1.3333333 0 0 -1.3333333 1052.6172 614.01827)"/><path clip-path="url(#b)" d="m0 0s-5.837 11.884-12.285 16.726c-9.554 7.173-29.145 6.656-37.459 15.025-9.963 9.87.773 22.909.683 24.041l-.546 6.886s6.718.081 9.546.522c4.254.663 5.913 4.124 13.832 3.61 19.909-1.292 19.107-19.23 20.232-34.558 1-5.837 3.314-13.447 4.629-19.282 1.127-5.004 1.368-12.97 1.368-12.97" stroke="#000" stroke-width="2.126" transform="matrix(1.3333333 0 0 -1.3333333 539.22653 189.23307)"/><path clip-path="url(#c)" d="m0 0s5.837 11.884 12.285 16.726c9.554 7.173 29.145 6.656 37.459 15.025 9.963 9.87-.773 22.909-.683 24.041l.545 6.886s-6.717.081-9.545.522c-4.253.663-5.913 4.124-13.832 3.61-19.91-1.292-19.107-19.23-20.233-34.558-1-5.837-3.313-13.447-4.628-19.282-1.128-5.004-1.368-12.97-1.368-12.97" stroke="#000" stroke-width="2.126" transform="matrix(1.3333333 0 0 -1.3333333 1052.6172 186.5664)"/><path clip-path="url(#d)" d="m0 0s-5.836-11.883-12.285-16.726c-9.554-7.173-29.145-6.655-37.459-15.025-9.963-9.869.773-22.909.683-24.04l-.546-6.887s6.718-.081 9.546-.521c4.254-.663 5.913-4.124 13.832-3.611 19.91 1.292 19.107 19.23 20.233 34.559.999 5.837 3.313 13.447 4.628 19.282 1.128 5.004 1.368 12.969 1.368 12.969" stroke="#000" stroke-width="2.126" transform="matrix(1.3333333 0 0 -1.3333333 532.3828 614.01827)"/></g><path clip-path="url(#e)" d="m0 0c.337.517-.408 3.122-1.654 5.791-1.944 4.162-2.727 4.854-5.495 4.854-8.673 0-22.617 3.876-36.991 10.282-8.3 3.7-11.168 4.55-12.163 3.607-2.54-2.405 1.681-8.114 8.218-11.115 5.799-2.662 22.01-5.934 29.404-5.934 4.29 0 4.392-.193 1.951-3.722l-1.795-2.595 4.852-.125c2.669-.068 6.355-.486 8.189-.929 4.764-1.147 4.809-1.148 5.484-.114m-90.354-56.991c.623.589.352 1.496-.692 2.316-2.286 1.797-2.164 4.469.343 7.529 1.884 2.297 2.119 5.736 2.767 40.417 1.117 59.766 5.561 104.722 11.419 115.507 2.333 4.294 2.006 4.311-4.021.21-7.763-5.282-13.674-12.16-18.911-22.006-9.888-18.589-13.324-43.598-13.324-96.982 0-30.313.207-34.278 1.933-37.128 1.64-2.706 1.728-3.706.575-6.597-.746-1.874-1.085-3.665-.753-3.979 2.208-2.091 18.29-1.536 20.664.713m6.69-9.276c10.754 4.788 11.684 16.859 1.544 20.028-4.211 1.316-6.898.607-8.51-2.245-1.234-2.184-.409-6.154 1.279-6.154.571 0 1.038-.735 1.038-1.633 0-4.192-16.419-6.091-23.152-2.678-2.366 1.199-3.396 4.311-1.427 4.311 1.471 0 2.488 3.171 1.737 5.414-1.025 3.056-4.104 4.115-8.572 2.947-10.08-2.636-9.796-14.481.466-19.506 8.415-4.122 26.863-4.372 35.597-.484m-8.206-11.945c.387 2.566-3.88 4.884-12.272 6.665-6.157 1.307-8.873.566-8.412-2.296.252-1.561 2.302-2.703 8.119-4.518 9.31-2.905 12.11-2.871 12.565.149m5.89-.532c1.774 1.799 3.226 3.921 3.226 4.717 0 2.581-7.008-1.986-7.901-5.149-1.071-3.794.666-3.634 4.675.432m-5.895-7.928c.34 2.253-1.1 3.06-12.86 7.198-8.779 3.09-12.665 1.633-9.86-3.697.978-1.856 2.618-2.704 6.297-3.255 2.736-.41 6.476-1.211 8.311-1.781 4.901-1.522 7.732-.985 8.112 1.535m0-8.457c.239 1.579-.738 2.633-3.666 3.955-6.315 2.852-13.866 4.173-15.685 2.744-3.349-2.633-1.117-6.168 4.296-6.803 2.18-.256 5.134-.92 6.567-1.477 4.16-1.616 8.116-.879 8.488 1.581m6.007-8.273c2.816 2.554 4.15 5.593 2.456 5.593-1.949 0-7.12-4.64-7.12-6.389 0-2.729.96-2.565 4.664.796m-6.332-.256c0 2.799-5.773 5.786-12.678 6.56-5.576.625-5.667.59-5.667-2.195 0-2.305.877-3.212 4.725-4.888 6.184-2.692 13.62-2.407 13.62.523m53.679-42.009c4.293 1.692 13.584 9.56 13.584 11.503 0 .611-2.564 3.432-5.698 6.268-6.596 5.967-13.771 16.018-15.63 21.895-.969 3.063-5.653 8.309-18.846 21.105l-17.557 17.027-5.06-1.281c-2.783-.705-6.178-1.299-7.545-1.32-2.356-.036-2.314-.171.818-2.595l3.305-2.557 4.633 2.57c4.491 2.493 4.65 2.508 5.204.502.325-1.174-.375-3.209-1.617-4.704-1.203-1.448-1.889-3.093-1.524-3.652.366-.561-.79-1.732-2.569-2.603-3.297-1.614-5.585-6.929-2.983-6.929 2.34 0 7.502 6.369 6.907 8.522-.305 1.103-.157 2.237.327 2.521 2.01 1.176 1.885-3.823-.158-6.282-1.203-1.449-1.889-3.093-1.524-3.653.366-.56-.79-1.731-2.569-2.602-3.275-1.604-5.586-6.929-3.007-6.929 2.527 0 7.604 6.085 6.975 8.361-.329 1.191-.201 2.398.283 2.682 1.354.792 2.084-3.155.941-5.088-.611-1.036-.606-2.45.015-3.573 1.124-2.031-.016-5.933-2.088-7.146-.888-.52-.286-1.539 1.868-3.166 3.118-2.355 3.178-2.603 3.178-12.991 0-8.682.351-10.923 1.945-12.434 1.79-1.696 1.946-1.702 1.946-.076 0 1.776 3.118 3.948 5.669 3.948.753 0 5.454-3.984 10.447-8.853 5.024-4.9 10.281-9.068 11.769-9.333 1.479-.264 3.081-.544 3.56-.623.477-.079 2.729.59 5.002 1.485zm-61.525-26.666c.952 1.287 1.731 3.366 1.731 4.619 0 1.894.846 2.399 5.007 2.989l5.007.711-3.34 2.661c-3.966 3.162-4.334 5.631-.837 5.637 3.482 0 9.38 3.616 10.277 6.291.416 1.244.154 2.905-.593 3.758-1.953 2.229-5.623 1.893-6.305-.576-.733-2.654-1.959-2.661-4.74-.027-4.184 3.962-4.279 12.166-.195 16.942 1.925 2.251 1.908 2.398-.546 4.723-2.64 2.5-4.524 7.448-3.285 8.622.395.374 2.48.076 4.635-.663 3.061-1.047 4.27-1.064 5.531-.072 3.82 3.003-.319 6.864-6.446 6.012-2.465-.343-3.483 0-3.838 1.279-.267.97-2.424 2.237-4.854 2.851-4.342 1.097-4.372 1.084-4.372-1.907 0-3.278-1.872-3.897-5.427-1.793-2.889 1.709-5.691.381-5.691-2.695 0-2.871 2.887-4.287 8.06-3.953 3.969.256 4.116-2.695.347-6.937l-2.71-3.05 2.147-3.085c3.18-4.568 2.912-12.156-.562-15.925l-2.723-2.954-1.787 2.369c-2.483 3.292-5.879 3.071-6.811-.442-.61-2.302-.105-3.353 2.776-5.791 1.937-1.639 4.764-2.98 6.283-2.98 3.76 0 3.613-2.957-.295-5.943l-3.058-2.337 4.725-.732c2.599-.404 4.726-1.163 4.726-1.686 0-2.008 3.274-8.255 4.327-8.255.608 0 1.884 1.053 2.836 2.34zm228.928-38.704 4.037 2.594 2.738-2.594c3.589-3.399 7.793-3.323 11.243.203 1.506 1.538 2.858 2.605 3.004 2.369.148-.235.819-1.376 1.492-2.534.853-1.466 2.607-2.203 5.772-2.427 3.813-.268 4.838.1 6.353 2.29l1.806 2.612 3.974-2.554c10.878-6.991 16.673.344 11.812 14.949-2.472 7.426-1.113 11.602 6.854 21.054 3.359 3.985 6.111 8.239 6.114 9.453 0 1.935-.621 2.194-5.092 2.106-4.279-.086-5.531.374-7.783 2.853-3.663 4.033-3.445 8.65.649 13.775l3.272 4.094-5.804 3.939c-3.192 2.166-8.948 7.291-12.792 11.389-8.632 9.203-17.12 13.568-28.311 14.557l-7.505.664.012-5.68c.014-7.312 3.446-14.347 12.813-26.262 10.651-13.548 11.395-15.645 11.826-33.353l.364-14.976-3.082-2.923c-2.784-2.643-4.04-2.98-13.026-3.498-8.556-.494-10.352-.935-12.863-3.16-3.334-2.953-4.331-4.56-5.362-8.639-.599-2.377-.356-2.896 1.36-2.896 1.148 0 3.905 1.168 6.126 2.595zm-77.495 268.731c-1.627 1.541-.352 1.918 6.941 2.054 9.023.169 14.502 1.672 20.967 5.753 5.18 3.27 6.584 2.627 1.667-.764-4.485-3.092-11.481-5.47-18.234-6.198-3.271-.351-6.999-.84-8.284-1.084s-2.661-.136-3.057.239m-51.244-13.122c-2.341 3.164-2.179 5.261.669 8.69 2.058 2.478 2.999 2.815 6.593 2.358 2.306-.293 7.267-2.33 11.025-4.527 4.341-2.537 8.831-4.237 12.308-4.659 3.011-.367 5.475-.504 5.475-.307s-1.251 2.235-2.78 4.528c-3.63 5.447-3.506 6.032.588 2.769 4.204-3.35 9.231-4.329 20.466-3.988l5.49.167-3.185 3.148c-4.453 4.401-3.083 4.797 1.835.528 4.612-4.004 4.324-4.285-5.385-5.255-4.125-.411-8.561-.112-12.249.826-5.516 1.403-5.731 1.381-4.685-.468.601-1.066 1.577-1.938 2.167-1.938s1.073-.541 1.073-1.2c0-2.03-11.916-.245-17.611 2.638-13.007 6.586-14.645 7.157-17.741 6.181-1.723-.543-3.448-2.132-4.042-3.725-1.982-5.312 5.552-9.442 8.659-4.745.901 1.361.691 2.292-.892 3.948-2.168 2.269-1.965 2.592.962 1.528 2.077-.755 2.356-5.743.424-7.573-2.211-2.095-7.258-1.502-9.164 1.076m83.741-8.655c-2.573 2.317-4.345 4.528-3.939 4.913.407.385.865.495 1.017.245.153-.25 2.256-2.461 4.673-4.913 5.565-5.646 4.422-5.807-1.751-.245m-62.869-21.977c-7.068 5.901-8.14 7.251-7.984 10.048l.167 2.977.461-2.875c.269-1.679 2.152-4.194 4.524-6.047l4.062-3.171 2.496 2.888c1.373 1.588 2.515 3.479 2.537 4.203.058 1.888.397 1.729 5.181-2.422 4.252-3.689 4.318-3.707 4.95-1.316.353 1.332.228 3.84-.278 5.574-1.389 4.764-1.116 5.484.988 2.61 1.049-1.431 2.735-3.456 3.747-4.498 1.763-1.814 1.87-1.792 2.526.526.377 1.333.691 3.77.7 5.417l.015 2.995 3.833-4.345c3.581-4.059 3.911-4.208 5.003-2.275.644 1.139 1.178 3.878 1.188 6.088.012 2.855.312 3.576 1.038 2.489 1.213-1.816.371-6.758-1.868-10.969l-1.607-3.023-2.109 3.286c-2.697 4.201-3.596 4.133-5.326-.4-1.636-4.284-2.699-4.61-4.293-1.316-1.032 2.132-1.229 1.87-1.96-2.609l-.815-4.976-4.875 3.783-4.876 3.784-2.191-2.492c-1.206-1.37-2.209-3.084-2.228-3.808-.045-1.569-1.218-1.618-3.005-.126zm29.651-40.873c0 1.545-4.537 5.732-9.134 8.429-3.609 2.119-4.206 2.184-4.214.455-.012-2.623-2.345-9.213-3.26-9.213-.517 0-1.282 1.288-1.699 2.863-.417 1.573-2.167 4.675-3.888 6.892l-3.131 4.032-2.438-3.735c-2.272-3.482-6.209-6.893-7.956-6.893-.417 0-.498 1.834-.18 4.076.344 2.434.078 4.367-.662 4.799-.682.4-1.24.26-1.24-.308 0-1.313-5.466-7.514-6.623-7.514-.476 0-1.143 1.777-1.482 3.948-.339 2.172-.915 5.608-1.28 7.634-.366 2.028.413.653 1.73-3.054l2.394-6.74 2.625 4.108c1.444 2.258 2.627 4.727 2.631 5.485 0 .759.492 1.094 1.085.747.594-.348 1.42-3.063 1.836-6.035l.757-5.402 2.889 3.167c1.589 1.742 3.451 4.074 4.137 5.182 1.226 1.979 1.295 1.977 3.732-.09 1.366-1.158 3.466-3.928 4.666-6.157 1.201-2.227 2.344-3.886 2.54-3.684.196.2.637 2.497.978 5.103s.646 4.834.677 4.952c.17.647 8.701-4.899 11.859-7.708 2.028-1.804 3.956-3.028 4.281-2.719.327.308.594 2.971.594 5.917 0 4.565-.485 5.789-3.277 8.284-3.21 2.87-3.3 2.885-4.486.786-1.539-2.724-3.356-2.763-3.356-.072 0 1.963-6.066 9.512-7.644 9.512-.409 0-1.688-1.658-2.84-3.684-1.152-2.028-2.391-3.684-2.754-3.682-1.556.01-10.109 9.546-10.105 11.267 0 1.369.576 1.018 2.076-1.268 1.139-1.737 3.415-4.331 5.057-5.764 3.326-2.9 4.535-2.195 5.818 3.395.365 1.593 1.001 2.895 1.411 2.895 1.422 0 8.867-7.907 9.914-10.529l1.052-2.633.796 2.897c.973 3.54 2.048 3.672 3.602.441.65-1.349 3.857-4.156 7.127-6.236l5.947-3.781 1.193 3.803c.657 2.092 1.526 3.294 1.933 2.671.606-.928-.94-7.231-2.106-8.588-.175-.203-2.102.92-4.282 2.495l-3.965 2.864-.016-5.127c-.01-2.82-.316-6.193-.685-7.495-.721-2.548-2.635-3.265-2.635-.988zm-77.975-184.53 3.744 2.161 1.601-2.165c2.133-2.884 8.035-2.851 11.952.067l2.995 2.231 2.508-2.231c3.297-2.934 9.455-2.938 13.387-.01 2.752 2.05 3.136 2.091 4.956.531 1.085-.93 4.268-1.988 7.072-2.352 5.051-.656 5.127-.62 8.082 3.813 2.475 3.713 2.863 5.216 2.272 8.817-.392 2.388-.814 6.23-.938 8.539-.223 4.181-.199 4.208 5.891 6.328 3.362 1.171 7.256 2.742 8.65 3.49 2.433 1.306 9.138 9.186 9.138 10.739 0 .412-2.619 1.043-5.821 1.401-12.735 1.429-14.892 8.268-6.613 20.97 13.501 20.716 21.649 40.89 21.704 53.742.024 5.745.351 7.673 1.089 6.424 3.017-5.105-2.387-26.511-10.574-41.882l-3.296-6.189 3.145.725c1.73.397 11.901 4.689 22.602 9.535 29.29 13.266 39.351 15.866 58.307 15.067 15.882-.668 22.644-3.771 33.857-15.531 5.941-6.231 11.662-10.689 22.13-17.241 22.302-13.959 23.232-15.169 24.292-31.585 1.075-16.634.54-17.536-12.041-20.316-10.752-2.376-17.494-7.388-19.302-14.352-.965-3.72 1.067-3.826 6.488-.343l3.973 2.554 1.767-2.554c2.322-3.357 7.259-3.37 11.358-.03l3.097 2.522 3.166-2.522c4.918-3.919 11.459-2.969 13.305 1.933.354.943 1.302.641 3.22-1.026 3.593-3.123 12.804-4.463 13.799-2.007.379.937-.341 3.251-1.602 5.142-5.36 8.036-7.036 11.868-7.106 16.243-.097 6.084 1.718 9.019 8.638 13.968 8.406 6.01 11.004 13.765 4.611 13.765-3.947 0-7.925 3.488-10.464 9.174-5.158 11.559-4.147 24.515 3.595 46.069 7.863 21.895 8.737 25.932 8.768 40.575.025 11.838-.273 13.886-2.966 20.377-1.648 3.968-4.989 9.877-7.427 13.131l-4.43 5.916 5.689 4.714c17.372 14.393 13.818 37.948-7.095 47.024-6.397 2.776-7.996 3.021-19.208 2.946-6.726-.046-16.983-.931-22.792-1.968-5.923-1.056-15.949-1.906-22.826-1.933-10.925-.044-12.779.225-16.99 2.466-4.39 2.337-5.143 3.447-6.002 8.847-.177 1.11-.953 2.218-1.725 2.462-1.494.471-8.389-5.515-9.408-8.166-.503-1.308-.913-1.217-2.388.527-.979 1.159-2.346 3.82-3.039 5.914-1.74 5.268.397 9.216 6.589 12.176l4.804 2.296-2.833 1.758c-5.846 3.627-15.785 1.145-19.379-4.838-1.018-1.693-2.126-3.081-2.465-3.085-.339-.002-2.271 1.611-4.295 3.589-7.548 7.374-4.951 18.285 5.144 21.616 5.383 1.776 10.146.421 11.137-3.168 1.513-5.48 6.217 1.723 5.374 8.229-.561 4.325-.477 4.474 2.516 4.474 4.161 0 13.02-5.462 15.76-9.717 3.182-4.944 2.95-12.728-.552-18.529l-2.75-4.555 3.598.72c5.274 1.057 10.398 4.332 12.991 8.305 2.74 4.199 3.035 12.377.604 16.79-2.354 4.276-2.084 4.955 1.398 3.51 5.921-2.458 9.087-5.169 11.462-9.815 2.139-4.183 2.258-5.223 1.099-9.578-.713-2.686-2.303-6.221-3.531-7.854-1.913-2.544-1.977-2.97-.454-2.97 2.838 0 8.763 2.685 10.867 4.926 1.064 1.132 2.614 3.918 3.446 6.192l1.511 4.136 1.737-3.153c2.456-4.457 7.231-8.467 13.053-10.963 6.262-2.685 8.87-2.836 5.595-.325-2.208 1.694-6.276 13.632-5.044 14.8.726.688 9.228-5.853 18.935-14.568 9.182-8.243 14.952-10.943 23.385-10.944 10.774 0 17.046 9.379 12.205 18.247-2.824 5.169-9.113 5.888-12.789 1.461-1.692-2.037-2.157-3.657-1.661-5.792.607-2.616.37-2.964-2.013-2.964-3.132 0-9.305 4.006-20.268 13.154-16.718 13.95-37.031 25.774-51.698 30.094-9.413 2.771-29.522 3.853-39.09 2.102-10.356-1.894-22.605-7.821-29.279-14.166-11.824-11.242-12.012-26.202-.499-39.825l3.298-3.902-2.233-3.469c-3.248-5.045-2.97-11.835.69-16.836 1.612-2.203 3.238-4.004 3.614-4.003.375.001.786 1.417.914 3.147.323 4.376 2.201 7.307 5.425 8.468 2.903 1.045 4.78.552 18.074-4.755 13.985-5.582 36.985-5.965 61.441-1.024 11.99 2.422 26.127 2.279 32.347-.326 11.401-4.777 14.043-17.203 5.662-26.636-3.628-4.083-7.127-5.746-18.874-8.97-8.939-2.454-11.057-2.616-31.376-2.414-17.358.174-23.597-.16-30.682-1.639-7.694-1.606-12.425-1.768-35.022-1.199l-26.128.659 2.898-2.4c1.593-1.319 3.844-2.942 5.002-3.607 1.971-1.131 1.906-1.283-1.023-2.369-1.722-.638-5.542-1.161-8.49-1.161h-5.361l-.721-4.555c-.397-2.506-.366-5.431.066-6.5.64-1.578.402-1.805-1.262-1.2-1.126.409-4.266 1.215-6.976 1.791-2.711.575-6.358 1.746-8.108 2.602-2.94 1.44-3.266 1.402-4.35-.515-.967-1.711-10.047-8.469-11.379-8.469-.216 0-.493 1.303-.617 2.895s-1.435 5.739-2.911 9.213c-1.477 3.475-3.019 7.266-3.427 8.424-.615 1.747-.894 1.837-1.636.526-.492-.869-1.211-3.238-1.597-5.264-.385-2.028-1.753-5.321-3.04-7.318l-2.338-3.631-1.493 3.105c-1.6 3.333-4.259 6.79-5.221 6.79-.325 0-.879-1.065-1.23-2.369-.734-2.721-7.038-10.266-8.578-10.266-.566 0-1.03 2.132-1.03 4.739 0 2.605-.501 4.738-1.112 4.738-.612 0-1.112-.675-1.112-1.499 0-2.003-5.384-7.978-7.189-7.978-.788 0-2.056-.711-2.818-1.579-1.984-2.265-3.608-1.947-2.773.543.391 1.167.137 3.892-.566 6.054-.702 2.163-1.449 4.465-1.659 5.115-.265.819-2.194.602-6.278-.707-6.598-2.115-8.81-1.741-5.416.916 1.24.972 3.127 4.338 4.193 7.48 1.066 3.141 2.638 5.928 3.494 6.194 1.199.372 1.135-.087-.278-1.998-1.009-1.364-1.838-3.204-1.841-4.089 0-.885-.763-2.981-1.688-4.66-.924-1.679-1.505-3.219-1.291-3.422.214-.202 2.724.751 5.579 2.12l5.189 2.488.022-2.226c.012-1.224.637-4.454 1.39-7.177l1.368-4.951 3.532 1.623c3.61 1.66 7.029 7.575 7.029 12.161 0 2.268 1.299 1.919 1.831-.49.157-.707.971-3.362 1.812-5.898l1.527-4.612 2.419 2.912c1.33 1.602 2.998 4.743 3.706 6.981 1.229 3.885 3.159 5.555 3.159 2.734 0-2.033 5.548-9.324 6.618-8.698.518.302 1.548 3.04 2.29 6.082 1.543 6.326 4.031 10.629 5.612 9.703.595-.348.826-1.024.515-1.501-.312-.478.966-4.591 2.839-9.141 1.874-4.549 3.755-9.13 4.181-10.178.685-1.686 1.303-1.442 5.319 2.105 2.499 2.207 4.768 4.678 5.041 5.491.412 1.229.97 1.184 3.308-.266 3.268-2.029 14.257-5.297 15.105-4.494.318.302.644 3.188.724 6.415l.147 5.865 3.16-.655c1.737-.361 5.391-.338 8.12.049l4.961.704-4.421 3.034c-2.432 1.668-4.891 3.827-5.464 4.797-.61 1.034-2.774 1.912-5.227 2.12-6.623.562-18.363 7.147-18.363 10.299 0 .592 1.627-.415 3.614-2.236 4.409-4.041 10.534-6.577 15.883-6.577h4.003l-2.476 3.293c-1.423 1.892-2.699 5.48-2.998 8.433-.477 4.706-.974 5.454-5.888 8.87-2.951 2.052-6.608 5.128-8.124 6.835l-2.758 3.103-1.407-3.684c-.774-2.028-1.72-3.686-2.102-3.686s-1.869 1.185-3.305 2.633c-1.437 1.447-2.9 2.627-3.251 2.62-.353-.006-1.624-1.957-2.828-4.334l-2.187-4.321-1.69 2.491c-.929 1.37-3.125 3.794-4.879 5.387-1.754 1.591-2.677 2.895-2.05 2.895.626 0 2.791-1.659 4.81-3.687l3.672-3.687 1.494 2.701c.887 1.603 1.22 4.066.818 6.056-.585 2.902-.503 3.07.609 1.249.708-1.158 2.856-3.379 4.774-4.935l3.487-2.828 2.407 4.408c2.395 4.387 2.411 4.395 3.501 1.776 1.457-3.504 12.003-12.149 20.982-17.199 1.383-.779.8 1.898-1.755 8.054-.677 1.63-1.231 4.57-1.231 6.532 0 2.91-.84 4.206-4.562 7.038-5.374 4.089-7.113 6.998-8.125 13.595-.41 2.673-1.351 5.646-2.09 6.606-1.097 1.425-1.278.628-.985-4.332.198-3.344-.237-7.501-.966-9.238l-1.326-3.16-1.025 2.633c-.563 1.447-3.057 3.966-5.541 5.595-2.483 1.63-4.227 3.236-3.874 3.571.354.334 2.908-1.151 5.679-3.301 4.219-3.274 5.149-3.629 5.733-2.186.687 1.694-.001 9.068-1.327 14.221-.662 2.573-.605 2.559 2.569-.615 2.341-2.34 3.636-5.132 4.639-10.003 1.273-6.187 1.917-7.217 7.638-12.241 3.436-3.016 6.426-5.315 6.645-5.108.218.207.652 8.01.963 17.343.597 17.893-.078 22.151-4.387 27.679l-2.214 2.841 3.481 3.754c4.54 4.898 6.625 8.824 7.529 14.18l.737 4.357-3.929-3.72c-3.216-3.047-4.752-3.72-8.478-3.72-3.689 0-5.13.618-7.616 3.267-2.982 3.178-8.267 6.237-13.349 7.725-1.878.55-2.502.31-2.502-.96 0-.931-1.038-3.617-2.305-5.971l-2.305-4.278-4.828 4.773c-2.962 2.927-6.476 5.206-9.092 5.894-6.68 1.757-7.042 1.582-7.042-3.396 0-7.549-3.223-8.956-9.024-3.937-4.423 3.825-8.091 4.656-16.477 3.734l-6.477-.711 1.166-2.925c.972-2.441.754-3.47-1.332-6.244-3.382-4.499-7.781-6.448-14.551-6.448-3.118 0-7.021-.644-8.672-1.434-1.651-.789-5.754-1.697-9.117-2.019-3.363-.321-6.947-.896-7.966-1.276-1.593-.595-1.767-.105-1.255 3.518.786 5.545-3.088 9.635-9.124 9.635-7.831 0-11.443-7.005-8.377-16.246.591-1.779 1.363-4.583 1.717-6.233.366-1.711 3.895-6.253 8.215-10.576 4.165-4.167 8.101-8.503 8.748-9.636.645-1.132 2.782-2.95 4.747-4.039l3.572-1.979-.471 3.822c-.518 4.201.397 4.86 2.632 1.896.799-1.06 2.829-2.773 4.511-3.807 2.649-1.628 3.058-1.661 3.058-.247 0 .897.539 2.966 1.199 4.596l1.2 2.964 2.082-4.033c1.146-2.218 4.87-7.259 8.277-11.203 6.609-7.651 10.636-16.202 8.558-18.171-.843-.798-3.122-.736-7.846.213-3.661.737-8.19 1.125-10.064.864-3.826-.531-4.128-.038-1.774 2.91 2.484 3.11 2.088 3.623-2.791 3.623-5.646 0-19.663 2.707-25.043 4.836-5.232 2.07-6.439 1.554-7.979-3.408-.693-2.233-1.962-6.28-2.82-8.993l-1.56-4.931 5.66.544c3.114.3 7.119.982 8.899 1.515 1.781.533 3.399.817 3.596.63.198-.187-.596-2.114-1.763-4.282l-2.123-3.944 3.529.72c1.941.396 4.861 1.364 6.49 2.152 2.833 1.371 3.061 1.271 5.295-2.316 2.748-4.411 4.946-4.23 5.435.447.504 4.836 2.095 4.121 5.087-2.287 2.878-6.162 5.872-8.338 6.447-4.685.19 1.213 1.74 3.187 3.444 4.387 3.447 2.428 6.043 1.7 7.532-2.112 1.542-3.945-1.896-8.013-11.894-14.073-20.028-12.141-31.67-28.744-34.994-49.907-2.997-19.089 6.365-38.815 25.148-52.982 8.989-6.78 23.268-13.935 22.361-11.205-3.854 11.596-3.727 33.72.214 37.452.592.561.388-1.748-.452-5.13-3.13-12.597-1.77-22.634 6.252-46.16 7.256-21.277 6.251-30.371-4.017-36.382-3.298-1.93-5.422-2.248-14.289-2.14-9.622.116-10.671-.077-13.76-2.538-2.995-2.387-6.878-10.223-6.878-13.88 0-1.981 2.199-1.719 6.522.777z" transform="matrix(1.3333333 0 0 -1.3333333 692.54947 322.94013)"/><path clip-path="url(#f)" d="m0 0c.337.517-.408 3.122-1.654 5.791-1.944 4.162-2.727 4.854-5.495 4.854-8.673 0-22.617 3.876-36.991 10.282-8.3 3.7-11.168 4.55-12.163 3.607-2.54-2.405 1.681-8.114 8.218-11.115 5.799-2.662 22.01-5.934 29.404-5.934 4.29 0 4.392-.193 1.951-3.722l-1.795-2.595 4.852-.125c2.669-.068 6.355-.486 8.189-.929 4.764-1.147 4.809-1.148 5.484-.114zm-90.354-56.991c.623.589.352 1.496-.692 2.316-2.286 1.797-2.164 4.469.343 7.529 1.884 2.297 2.119 5.736 2.767 40.417 1.117 59.766 5.561 104.722 11.419 115.507 2.333 4.294 2.006 4.311-4.021.21-7.763-5.282-13.674-12.16-18.911-22.006-9.888-18.589-13.324-43.598-13.324-96.982 0-30.313.207-34.278 1.933-37.128 1.64-2.706 1.728-3.706.575-6.597-.746-1.874-1.085-3.665-.753-3.979 2.208-2.091 18.29-1.536 20.664.713zm6.69-9.276c10.754 4.788 11.684 16.859 1.544 20.028-4.211 1.316-6.898.607-8.51-2.245-1.234-2.184-.409-6.154 1.279-6.154.571 0 1.038-.735 1.038-1.633 0-4.192-16.419-6.091-23.152-2.678-2.366 1.199-3.396 4.311-1.427 4.311 1.471 0 2.488 3.171 1.737 5.414-1.025 3.056-4.104 4.115-8.572 2.947-10.08-2.636-9.796-14.481.466-19.506 8.415-4.122 26.863-4.372 35.597-.484zm-8.206-11.945c.387 2.566-3.88 4.884-12.272 6.665-6.157 1.307-8.873.566-8.412-2.296.252-1.561 2.302-2.703 8.119-4.518 9.31-2.905 12.11-2.871 12.565.149zm5.89-.532c1.774 1.799 3.226 3.921 3.226 4.717 0 2.581-7.008-1.986-7.901-5.149-1.071-3.794.666-3.634 4.675.432zm-5.895-7.928c.34 2.253-1.1 3.06-12.86 7.198-8.779 3.09-12.665 1.633-9.86-3.697.978-1.856 2.618-2.704 6.297-3.255 2.736-.41 6.476-1.211 8.311-1.781 4.901-1.522 7.732-.985 8.112 1.535zm0-8.457c.239 1.579-.738 2.633-3.666 3.955-6.315 2.852-13.866 4.173-15.685 2.744-3.349-2.633-1.117-6.168 4.296-6.803 2.18-.256 5.134-.92 6.567-1.477 4.16-1.616 8.116-.879 8.488 1.581zm6.007-8.273c2.816 2.554 4.15 5.593 2.456 5.593-1.949 0-7.12-4.64-7.12-6.389 0-2.729.96-2.565 4.664.796zm-6.332-.256c0 2.799-5.773 5.786-12.678 6.56-5.576.625-5.667.59-5.667-2.195 0-2.305.877-3.212 4.725-4.888 6.184-2.692 13.62-2.407 13.62.523zm53.679-42.009c4.293 1.692 13.584 9.56 13.584 11.503 0 .611-2.564 3.432-5.698 6.268-6.596 5.967-13.771 16.018-15.63 21.895-.969 3.063-5.653 8.309-18.846 21.105l-17.557 17.027-5.06-1.281c-2.783-.705-6.178-1.299-7.545-1.32-2.356-.036-2.314-.171.818-2.595l3.305-2.557 4.633 2.57c4.491 2.493 4.65 2.508 5.204.502.325-1.174-.375-3.209-1.617-4.704-1.203-1.448-1.889-3.093-1.524-3.652.366-.561-.79-1.732-2.569-2.603-3.297-1.614-5.585-6.929-2.983-6.929 2.34 0 7.502 6.369 6.907 8.522-.305 1.103-.157 2.237.327 2.521 2.01 1.176 1.885-3.823-.158-6.282-1.203-1.449-1.889-3.093-1.524-3.653.366-.56-.79-1.731-2.569-2.602-3.275-1.604-5.586-6.929-3.007-6.929 2.527 0 7.604 6.085 6.975 8.361-.329 1.191-.201 2.398.283 2.682 1.354.792 2.084-3.155.941-5.088-.611-1.036-.606-2.45.015-3.573 1.124-2.031-.016-5.933-2.088-7.146-.888-.52-.286-1.539 1.868-3.166 3.118-2.355 3.178-2.603 3.178-12.991 0-8.682.351-10.923 1.945-12.434 1.79-1.696 1.946-1.702 1.946-.076 0 1.776 3.118 3.948 5.669 3.948.753 0 5.454-3.984 10.447-8.853 5.024-4.9 10.281-9.068 11.769-9.333 1.479-.264 3.081-.544 3.56-.623.477-.079 2.729.59 5.002 1.485zm-61.525-26.666c.952 1.287 1.731 3.366 1.731 4.619 0 1.894.846 2.399 5.007 2.989l5.007.711-3.34 2.661c-3.966 3.162-4.334 5.631-.837 5.637 3.482 0 9.38 3.616 10.277 6.291.416 1.244.154 2.905-.593 3.758-1.953 2.229-5.623 1.893-6.305-.576-.733-2.654-1.959-2.661-4.74-.027-4.184 3.962-4.279 12.166-.195 16.942 1.925 2.251 1.908 2.398-.546 4.723-2.64 2.5-4.524 7.448-3.285 8.622.395.374 2.48.076 4.635-.663 3.061-1.047 4.27-1.064 5.531-.072 3.82 3.003-.319 6.864-6.446 6.012-2.465-.343-3.483 0-3.838 1.279-.267.97-2.424 2.237-4.854 2.851-4.342 1.097-4.372 1.084-4.372-1.907 0-3.278-1.872-3.897-5.427-1.793-2.889 1.709-5.691.381-5.691-2.695 0-2.871 2.887-4.287 8.06-3.953 3.969.256 4.116-2.695.347-6.937l-2.71-3.05 2.147-3.085c3.18-4.568 2.912-12.156-.562-15.925l-2.723-2.954-1.787 2.369c-2.483 3.292-5.879 3.071-6.811-.442-.61-2.302-.105-3.353 2.776-5.791 1.937-1.639 4.764-2.98 6.283-2.98 3.76 0 3.613-2.957-.295-5.943l-3.058-2.337 4.725-.732c2.599-.404 4.726-1.163 4.726-1.686 0-2.008 3.274-8.255 4.327-8.255.608 0 1.884 1.053 2.836 2.34zm228.928-38.704 4.037 2.594 2.738-2.594c3.589-3.399 7.793-3.323 11.243.203 1.506 1.538 2.858 2.605 3.004 2.369.148-.235.819-1.376 1.492-2.534.853-1.466 2.607-2.203 5.772-2.427 3.813-.268 4.838.1 6.353 2.29l1.806 2.612 3.974-2.554c10.878-6.991 16.673.344 11.812 14.949-2.472 7.426-1.113 11.602 6.854 21.054 3.359 3.985 6.111 8.239 6.114 9.453 0 1.935-.621 2.194-5.092 2.106-4.279-.086-5.531.374-7.783 2.853-3.663 4.033-3.445 8.65.649 13.775l3.272 4.094-5.804 3.939c-3.192 2.166-8.948 7.291-12.792 11.389-8.632 9.203-17.12 13.568-28.311 14.557l-7.505.664.012-5.68c.014-7.312 3.446-14.347 12.813-26.262 10.651-13.548 11.395-15.645 11.826-33.353l.364-14.976-3.082-2.923c-2.784-2.643-4.04-2.98-13.026-3.498-8.556-.494-10.352-.935-12.863-3.16-3.334-2.953-4.331-4.56-5.362-8.639-.599-2.377-.356-2.896 1.36-2.896 1.148 0 3.905 1.168 6.126 2.595zm-77.495 268.731c-1.627 1.541-.352 1.918 6.941 2.054 9.023.169 14.502 1.672 20.967 5.753 5.18 3.27 6.584 2.627 1.667-.764-4.485-3.092-11.481-5.47-18.234-6.198-3.271-.351-6.999-.84-8.284-1.084s-2.661-.136-3.057.239zm-51.244-13.122c-2.341 3.164-2.179 5.261.669 8.69 2.058 2.478 2.999 2.815 6.593 2.358 2.306-.293 7.267-2.33 11.025-4.527 4.341-2.537 8.831-4.237 12.308-4.659 3.011-.367 5.475-.504 5.475-.307s-1.251 2.235-2.78 4.528c-3.63 5.447-3.506 6.032.588 2.769 4.204-3.35 9.231-4.329 20.466-3.988l5.49.167-3.185 3.148c-4.453 4.401-3.083 4.797 1.835.528 4.612-4.004 4.324-4.285-5.385-5.255-4.125-.411-8.561-.112-12.249.826-5.516 1.403-5.731 1.381-4.685-.468.601-1.066 1.577-1.938 2.167-1.938s1.073-.541 1.073-1.2c0-2.03-11.916-.245-17.611 2.638-13.007 6.586-14.645 7.157-17.741 6.181-1.723-.543-3.448-2.132-4.042-3.725-1.982-5.312 5.552-9.442 8.659-4.745.901 1.361.691 2.292-.892 3.948-2.168 2.269-1.965 2.592.962 1.528 2.077-.755 2.356-5.743.424-7.573-2.211-2.095-7.258-1.502-9.164 1.076zm83.741-8.655c-2.573 2.317-4.345 4.528-3.939 4.913.407.385.865.495 1.017.245.153-.25 2.256-2.461 4.673-4.913 5.565-5.646 4.422-5.807-1.751-.245zm-62.869-21.977c-7.068 5.901-8.14 7.251-7.984 10.048l.167 2.977.461-2.875c.269-1.679 2.152-4.194 4.524-6.047l4.062-3.171 2.496 2.888c1.373 1.588 2.515 3.479 2.537 4.203.058 1.888.397 1.729 5.181-2.422 4.252-3.689 4.318-3.707 4.95-1.316.353 1.332.228 3.84-.278 5.574-1.389 4.764-1.116 5.484.988 2.61 1.049-1.431 2.735-3.456 3.747-4.498 1.763-1.814 1.87-1.792 2.526.526.377 1.333.691 3.77.7 5.417l.015 2.995 3.833-4.345c3.581-4.059 3.911-4.208 5.003-2.275.644 1.139 1.178 3.878 1.188 6.088.012 2.855.312 3.576 1.038 2.489 1.213-1.816.371-6.758-1.868-10.969l-1.607-3.023-2.109 3.286c-2.697 4.201-3.596 4.133-5.326-.4-1.636-4.284-2.699-4.61-4.293-1.316-1.032 2.132-1.229 1.87-1.96-2.609l-.815-4.976-4.875 3.783-4.876 3.784-2.191-2.492c-1.206-1.37-2.209-3.084-2.228-3.808-.045-1.569-1.218-1.618-3.005-.126zm29.651-40.873c0 1.545-4.537 5.732-9.134 8.429-3.609 2.119-4.206 2.184-4.214.455-.012-2.623-2.345-9.213-3.26-9.213-.517 0-1.282 1.288-1.699 2.863-.417 1.573-2.167 4.675-3.888 6.892l-3.131 4.032-2.438-3.735c-2.272-3.482-6.209-6.893-7.956-6.893-.417 0-.498 1.834-.18 4.076.344 2.434.078 4.367-.662 4.799-.682.4-1.24.26-1.24-.308 0-1.313-5.466-7.514-6.623-7.514-.476 0-1.143 1.777-1.482 3.948-.339 2.172-.915 5.608-1.28 7.634-.366 2.028.413.653 1.73-3.054l2.394-6.74 2.625 4.108c1.444 2.258 2.627 4.727 2.631 5.485 0 .759.492 1.094 1.085.747.594-.348 1.42-3.063 1.836-6.035l.757-5.402 2.889 3.167c1.589 1.742 3.451 4.074 4.137 5.182 1.226 1.979 1.295 1.977 3.732-.09 1.366-1.158 3.466-3.928 4.666-6.157 1.201-2.227 2.344-3.886 2.54-3.684.196.2.637 2.497.978 5.103s.646 4.834.677 4.952c.17.647 8.701-4.899 11.859-7.708 2.028-1.804 3.956-3.028 4.281-2.719.327.308.594 2.971.594 5.917 0 4.565-.485 5.789-3.277 8.284-3.21 2.87-3.3 2.885-4.486.786-1.539-2.724-3.356-2.763-3.356-.072 0 1.963-6.066 9.512-7.644 9.512-.409 0-1.688-1.658-2.84-3.684-1.152-2.028-2.391-3.684-2.754-3.682-1.556.01-10.109 9.546-10.105 11.267 0 1.369.576 1.018 2.076-1.268 1.139-1.737 3.415-4.331 5.057-5.764 3.326-2.9 4.535-2.195 5.818 3.395.365 1.593 1.001 2.895 1.411 2.895 1.422 0 8.867-7.907 9.914-10.529l1.052-2.633.796 2.897c.973 3.54 2.048 3.672 3.602.441.65-1.349 3.857-4.156 7.127-6.236l5.947-3.781 1.193 3.803c.657 2.092 1.526 3.294 1.933 2.671.606-.928-.94-7.231-2.106-8.588-.175-.203-2.102.92-4.282 2.495l-3.965 2.864-.016-5.127c-.01-2.82-.316-6.193-.685-7.495-.721-2.548-2.635-3.265-2.635-.988zm-77.975-184.53 3.744 2.161 1.601-2.165c2.133-2.884 8.035-2.851 11.952.067l2.995 2.231 2.508-2.231c3.297-2.934 9.455-2.938 13.387-.01 2.752 2.05 3.136 2.091 4.956.531 1.085-.93 4.268-1.988 7.072-2.352 5.051-.656 5.127-.62 8.082 3.813 2.475 3.713 2.863 5.216 2.272 8.817-.392 2.388-.814 6.23-.938 8.539-.223 4.181-.199 4.208 5.891 6.328 3.362 1.171 7.256 2.742 8.65 3.49 2.433 1.306 9.138 9.186 9.138 10.739 0 .412-2.619 1.043-5.821 1.401-12.735 1.429-14.892 8.268-6.613 20.97 13.501 20.716 21.649 40.89 21.704 53.742.024 5.745.351 7.673 1.089 6.424 3.017-5.105-2.387-26.511-10.574-41.882l-3.296-6.189 3.145.725c1.73.397 11.901 4.689 22.602 9.535 29.29 13.266 39.351 15.866 58.307 15.067 15.882-.668 22.644-3.771 33.857-15.531 5.941-6.231 11.662-10.689 22.13-17.241 22.302-13.959 23.232-15.169 24.292-31.585 1.075-16.634.54-17.536-12.041-20.316-10.752-2.376-17.494-7.388-19.302-14.352-.965-3.72 1.067-3.826 6.488-.343l3.973 2.554 1.767-2.554c2.322-3.357 7.259-3.37 11.358-.03l3.097 2.522 3.166-2.522c4.918-3.919 11.459-2.969 13.305 1.933.354.943 1.302.641 3.22-1.026 3.593-3.123 12.804-4.463 13.799-2.007.379.937-.341 3.251-1.602 5.142-5.36 8.036-7.036 11.868-7.106 16.243-.097 6.084 1.718 9.019 8.638 13.968 8.406 6.01 11.004 13.765 4.611 13.765-3.947 0-7.925 3.488-10.464 9.174-5.158 11.559-4.147 24.515 3.595 46.069 7.863 21.895 8.737 25.932 8.768 40.575.025 11.838-.273 13.886-2.966 20.377-1.648 3.968-4.989 9.877-7.427 13.131l-4.43 5.916 5.689 4.714c17.372 14.393 13.818 37.948-7.095 47.024-6.397 2.776-7.996 3.021-19.208 2.946-6.726-.046-16.983-.931-22.792-1.968-5.923-1.056-15.949-1.906-22.826-1.933-10.925-.044-12.779.225-16.99 2.466-4.39 2.337-5.143 3.447-6.002 8.847-.177 1.11-.953 2.218-1.725 2.462-1.494.471-8.389-5.515-9.408-8.166-.503-1.308-.913-1.217-2.388.527-.979 1.159-2.346 3.82-3.039 5.914-1.74 5.268.397 9.216 6.589 12.176l4.804 2.296-2.833 1.758c-5.846 3.627-15.785 1.145-19.379-4.838-1.018-1.693-2.126-3.081-2.465-3.085-.339-.002-2.271 1.611-4.295 3.589-7.548 7.374-4.951 18.285 5.144 21.616 5.383 1.776 10.146.421 11.137-3.168 1.513-5.48 6.217 1.723 5.374 8.229-.561 4.325-.477 4.474 2.516 4.474 4.161 0 13.02-5.462 15.76-9.717 3.182-4.944 2.95-12.728-.552-18.529l-2.75-4.555 3.598.72c5.274 1.057 10.398 4.332 12.991 8.305 2.74 4.199 3.035 12.377.604 16.79-2.354 4.276-2.084 4.955 1.398 3.51 5.921-2.458 9.087-5.169 11.462-9.815 2.139-4.183 2.258-5.223 1.099-9.578-.713-2.686-2.303-6.221-3.531-7.854-1.913-2.544-1.977-2.97-.454-2.97 2.838 0 8.763 2.685 10.867 4.926 1.064 1.132 2.614 3.918 3.446 6.192l1.511 4.136 1.737-3.153c2.456-4.457 7.231-8.467 13.053-10.963 6.262-2.685 8.87-2.836 5.595-.325-2.208 1.694-6.276 13.632-5.044 14.8.726.688 9.228-5.853 18.935-14.568 9.182-8.243 14.952-10.943 23.385-10.944 10.774 0 17.046 9.379 12.205 18.247-2.824 5.169-9.113 5.888-12.789 1.461-1.692-2.037-2.157-3.657-1.661-5.792.607-2.616.37-2.964-2.013-2.964-3.132 0-9.305 4.006-20.268 13.154-16.718 13.95-37.031 25.774-51.698 30.094-9.413 2.771-29.522 3.853-39.09 2.102-10.356-1.894-22.605-7.821-29.279-14.166-11.824-11.242-12.012-26.202-.499-39.825l3.298-3.902-2.233-3.469c-3.248-5.045-2.97-11.835.69-16.836 1.612-2.203 3.238-4.004 3.614-4.003.375.001.786 1.417.914 3.147.323 4.376 2.201 7.307 5.425 8.468 2.903 1.045 4.78.552 18.074-4.755 13.985-5.582 36.985-5.965 61.441-1.024 11.99 2.422 26.127 2.279 32.347-.326 11.401-4.777 14.043-17.203 5.662-26.636-3.628-4.083-7.127-5.746-18.874-8.97-8.939-2.454-11.057-2.616-31.376-2.414-17.358.174-23.597-.16-30.682-1.639-7.694-1.606-12.425-1.768-35.022-1.199l-26.128.659 2.898-2.4c1.593-1.319 3.844-2.942 5.002-3.607 1.971-1.131 1.906-1.283-1.023-2.369-1.722-.638-5.542-1.161-8.49-1.161h-5.361l-.721-4.555c-.397-2.506-.366-5.431.066-6.5.64-1.578.402-1.805-1.262-1.2-1.126.409-4.266 1.215-6.976 1.791-2.711.575-6.358 1.746-8.108 2.602-2.94 1.44-3.266 1.402-4.35-.515-.967-1.711-10.047-8.469-11.379-8.469-.216 0-.493 1.303-.617 2.895s-1.435 5.739-2.911 9.213c-1.477 3.475-3.019 7.266-3.427 8.424-.615 1.747-.894 1.837-1.636.526-.492-.869-1.211-3.238-1.597-5.264-.385-2.028-1.753-5.321-3.04-7.318l-2.338-3.631-1.493 3.105c-1.6 3.333-4.259 6.79-5.221 6.79-.325 0-.879-1.065-1.23-2.369-.734-2.721-7.038-10.266-8.578-10.266-.566 0-1.03 2.132-1.03 4.739 0 2.605-.501 4.738-1.112 4.738-.612 0-1.112-.675-1.112-1.499 0-2.003-5.384-7.978-7.189-7.978-.788 0-2.056-.711-2.818-1.579-1.984-2.265-3.608-1.947-2.773.543.391 1.167.137 3.892-.566 6.054-.702 2.163-1.449 4.465-1.659 5.115-.265.819-2.194.602-6.278-.707-6.598-2.115-8.81-1.741-5.416.916 1.24.972 3.127 4.338 4.193 7.48 1.066 3.141 2.638 5.928 3.494 6.194 1.199.372 1.135-.087-.278-1.998-1.009-1.364-1.838-3.204-1.841-4.089 0-.885-.763-2.981-1.688-4.66-.924-1.679-1.505-3.219-1.291-3.422.214-.202 2.724.751 5.579 2.12l5.189 2.488.022-2.226c.012-1.224.637-4.454 1.39-7.177l1.368-4.951 3.532 1.623c3.61 1.66 7.029 7.575 7.029 12.161 0 2.268 1.299 1.919 1.831-.49.157-.707.971-3.362 1.812-5.898l1.527-4.612 2.419 2.912c1.33 1.602 2.998 4.743 3.706 6.981 1.229 3.885 3.159 5.555 3.159 2.734 0-2.033 5.548-9.324 6.618-8.698.518.302 1.548 3.04 2.29 6.082 1.543 6.326 4.031 10.629 5.612 9.703.595-.348.826-1.024.515-1.501-.312-.478.966-4.591 2.839-9.141 1.874-4.549 3.755-9.13 4.181-10.178.685-1.686 1.303-1.442 5.319 2.105 2.499 2.207 4.768 4.678 5.041 5.491.412 1.229.97 1.184 3.308-.266 3.268-2.029 14.257-5.297 15.105-4.494.318.302.644 3.188.724 6.415l.147 5.865 3.16-.655c1.737-.361 5.391-.338 8.12.049l4.961.704-4.421 3.034c-2.432 1.668-4.891 3.827-5.464 4.797-.61 1.034-2.774 1.912-5.227 2.12-6.623.562-18.363 7.147-18.363 10.299 0 .592 1.627-.415 3.614-2.236 4.409-4.041 10.534-6.577 15.883-6.577h4.003l-2.476 3.293c-1.423 1.892-2.699 5.48-2.998 8.433-.477 4.706-.974 5.454-5.888 8.87-2.951 2.052-6.608 5.128-8.124 6.835l-2.758 3.103-1.407-3.684c-.774-2.028-1.72-3.686-2.102-3.686s-1.869 1.185-3.305 2.633c-1.437 1.447-2.9 2.627-3.251 2.62-.353-.006-1.624-1.957-2.828-4.334l-2.187-4.321-1.69 2.491c-.929 1.37-3.125 3.794-4.879 5.387-1.754 1.591-2.677 2.895-2.05 2.895.626 0 2.791-1.659 4.81-3.687l3.672-3.687 1.494 2.701c.887 1.603 1.22 4.066.818 6.056-.585 2.902-.503 3.07.609 1.249.708-1.158 2.856-3.379 4.774-4.935l3.487-2.828 2.407 4.408c2.395 4.387 2.411 4.395 3.501 1.776 1.457-3.504 12.003-12.149 20.982-17.199 1.383-.779.8 1.898-1.755 8.054-.677 1.63-1.231 4.57-1.231 6.532 0 2.91-.84 4.206-4.562 7.038-5.374 4.089-7.113 6.998-8.125 13.595-.41 2.673-1.351 5.646-2.09 6.606-1.097 1.425-1.278.628-.985-4.332.198-3.344-.237-7.501-.966-9.238l-1.326-3.16-1.025 2.633c-.563 1.447-3.057 3.966-5.541 5.595-2.483 1.63-4.227 3.236-3.874 3.571.354.334 2.908-1.151 5.679-3.301 4.219-3.274 5.149-3.629 5.733-2.186.687 1.694-.001 9.068-1.327 14.221-.662 2.573-.605 2.559 2.569-.615 2.341-2.34 3.636-5.132 4.639-10.003 1.273-6.187 1.917-7.217 7.638-12.241 3.436-3.016 6.426-5.315 6.645-5.108.218.207.652 8.01.963 17.343.597 17.893-.078 22.151-4.387 27.679l-2.214 2.841 3.481 3.754c4.54 4.898 6.625 8.824 7.529 14.18l.737 4.357-3.929-3.72c-3.216-3.047-4.752-3.72-8.478-3.72-3.689 0-5.13.618-7.616 3.267-2.982 3.178-8.267 6.237-13.349 7.725-1.878.55-2.502.31-2.502-.96 0-.931-1.038-3.617-2.305-5.971l-2.305-4.278-4.828 4.773c-2.962 2.927-6.476 5.206-9.092 5.894-6.68 1.757-7.042 1.582-7.042-3.396 0-7.549-3.223-8.956-9.024-3.937-4.423 3.825-8.091 4.656-16.477 3.734l-6.477-.711 1.166-2.925c.972-2.441.754-3.47-1.332-6.244-3.382-4.499-7.781-6.448-14.551-6.448-3.118 0-7.021-.644-8.672-1.434-1.651-.789-5.754-1.697-9.117-2.019-3.363-.321-6.947-.896-7.966-1.276-1.593-.595-1.767-.105-1.255 3.518.786 5.545-3.088 9.635-9.124 9.635-7.831 0-11.443-7.005-8.377-16.246.591-1.779 1.363-4.583 1.717-6.233.366-1.711 3.895-6.253 8.215-10.576 4.165-4.167 8.101-8.503 8.748-9.636.645-1.132 2.782-2.95 4.747-4.039l3.572-1.979-.471 3.822c-.518 4.201.397 4.86 2.632 1.896.799-1.06 2.829-2.773 4.511-3.807 2.649-1.628 3.058-1.661 3.058-.247 0 .897.539 2.966 1.199 4.596l1.2 2.964 2.082-4.033c1.146-2.218 4.87-7.259 8.277-11.203 6.609-7.651 10.636-16.202 8.558-18.171-.843-.798-3.122-.736-7.846.213-3.661.737-8.19 1.125-10.064.864-3.826-.531-4.128-.038-1.774 2.91 2.484 3.11 2.088 3.623-2.791 3.623-5.646 0-19.663 2.707-25.043 4.836-5.232 2.07-6.439 1.554-7.979-3.408-.693-2.233-1.962-6.28-2.82-8.993l-1.56-4.931 5.66.544c3.114.3 7.119.982 8.899 1.515 1.781.533 3.399.817 3.596.63.198-.187-.596-2.114-1.763-4.282l-2.123-3.944 3.529.72c1.941.396 4.861 1.364 6.49 2.152 2.833 1.371 3.061 1.271 5.295-2.316 2.748-4.411 4.946-4.23 5.435.447.504 4.836 2.095 4.121 5.087-2.287 2.878-6.162 5.872-8.338 6.447-4.685.19 1.213 1.74 3.187 3.444 4.387 3.447 2.428 6.043 1.7 7.532-2.112 1.542-3.945-1.896-8.013-11.894-14.073-20.028-12.141-31.67-28.744-34.994-49.907-2.997-19.089 6.365-38.815 25.148-52.982 8.989-6.78 23.268-13.935 22.361-11.205-3.854 11.596-3.727 33.72.214 37.452.592.561.388-1.748-.452-5.13-3.13-12.597-1.77-22.634 6.252-46.16 7.256-21.277 6.251-30.371-4.017-36.382-3.298-1.93-5.422-2.248-14.289-2.14-9.622.116-10.671-.077-13.76-2.538-2.995-2.387-6.878-10.223-6.878-13.88 0-1.981 2.199-1.719 6.522.777z" fill="none" stroke="#000" stroke-width="5.56" transform="matrix(1.3333333 0 0 -1.3333333 692.54947 322.94013)"/><path clip-path="url(#g)" d="m0 0c.337.517-.408 3.122-1.654 5.791-1.944 4.162-2.727 4.854-5.495 4.854-8.673 0-22.617 3.876-36.991 10.282-8.3 3.7-11.168 4.55-12.163 3.607-2.54-2.405 1.681-8.114 8.218-11.115 5.799-2.662 22.01-5.934 29.404-5.934 4.29 0 4.392-.193 1.951-3.722l-1.795-2.595 4.852-.125c2.669-.068 6.355-.486 8.189-.929 4.764-1.147 4.809-1.148 5.484-.114m-90.354-56.991c.623.589.352 1.496-.692 2.316-2.286 1.797-2.164 4.469.343 7.529 1.884 2.297 2.119 5.736 2.767 40.417 1.117 59.766 5.561 104.722 11.419 115.507 2.333 4.294 2.006 4.311-4.021.21-7.763-5.282-13.674-12.16-18.911-22.006-9.888-18.589-13.324-43.598-13.324-96.982 0-30.313.207-34.278 1.933-37.128 1.64-2.706 1.728-3.706.575-6.597-.746-1.874-1.085-3.665-.753-3.979 2.208-2.091 18.29-1.536 20.664.713m6.69-9.276c10.754 4.788 11.684 16.859 1.544 20.028-4.211 1.316-6.898.607-8.51-2.245-1.234-2.184-.409-6.154 1.279-6.154.571 0 1.038-.735 1.038-1.633 0-4.192-16.419-6.091-23.152-2.678-2.366 1.199-3.396 4.311-1.427 4.311 1.471 0 2.488 3.171 1.737 5.414-1.025 3.056-4.104 4.115-8.572 2.947-10.08-2.636-9.796-14.481.466-19.506 8.415-4.122 26.863-4.372 35.597-.484m-8.206-11.945c.387 2.566-3.88 4.884-12.272 6.665-6.157 1.307-8.873.566-8.412-2.296.252-1.561 2.302-2.703 8.119-4.518 9.31-2.905 12.11-2.871 12.565.149m5.89-.532c1.774 1.799 3.226 3.921 3.226 4.717 0 2.581-7.008-1.986-7.901-5.149-1.071-3.794.666-3.634 4.675.432m-5.895-7.928c.34 2.253-1.1 3.06-12.86 7.198-8.779 3.09-12.665 1.633-9.86-3.697.978-1.856 2.618-2.704 6.297-3.255 2.736-.41 6.476-1.211 8.311-1.781 4.901-1.522 7.732-.985 8.112 1.535m0-8.457c.239 1.579-.738 2.633-3.666 3.955-6.315 2.852-13.866 4.173-15.685 2.744-3.349-2.633-1.117-6.168 4.296-6.803 2.18-.256 5.134-.92 6.567-1.477 4.16-1.616 8.116-.879 8.488 1.581m6.007-8.273c2.816 2.554 4.15 5.593 2.456 5.593-1.949 0-7.12-4.64-7.12-6.389 0-2.729.96-2.565 4.664.796m-6.332-.256c0 2.799-5.773 5.786-12.678 6.56-5.576.625-5.667.59-5.667-2.195 0-2.305.877-3.212 4.725-4.888 6.184-2.692 13.62-2.407 13.62.523m53.679-42.009c4.293 1.692 13.584 9.56 13.584 11.503 0 .611-2.564 3.432-5.698 6.268-6.596 5.967-13.771 16.018-15.63 21.895-.969 3.063-5.653 8.309-18.846 21.105l-17.557 17.027-5.06-1.281c-2.783-.705-6.178-1.299-7.545-1.32-2.356-.036-2.314-.171.818-2.595l3.305-2.557 4.633 2.57c4.491 2.493 4.65 2.508 5.204.502.325-1.174-.375-3.209-1.617-4.704-1.203-1.448-1.889-3.093-1.524-3.652.366-.561-.79-1.732-2.569-2.603-3.297-1.614-5.585-6.929-2.983-6.929 2.34 0 7.502 6.369 6.907 8.522-.305 1.103-.157 2.237.327 2.521 2.01 1.176 1.885-3.823-.158-6.282-1.203-1.449-1.889-3.093-1.524-3.653.366-.56-.79-1.731-2.569-2.602-3.275-1.604-5.586-6.929-3.007-6.929 2.527 0 7.604 6.085 6.975 8.361-.329 1.191-.201 2.398.283 2.682 1.354.792 2.084-3.155.941-5.088-.611-1.036-.606-2.45.015-3.573 1.124-2.031-.016-5.933-2.088-7.146-.888-.52-.286-1.539 1.868-3.166 3.118-2.355 3.178-2.603 3.178-12.991 0-8.682.351-10.923 1.945-12.434 1.79-1.696 1.946-1.702 1.946-.076 0 1.776 3.118 3.948 5.669 3.948.753 0 5.454-3.984 10.447-8.853 5.024-4.9 10.281-9.068 11.769-9.333 1.479-.264 3.081-.544 3.56-.623.477-.079 2.729.59 5.002 1.485zm-61.525-26.666c.952 1.287 1.731 3.366 1.731 4.619 0 1.894.846 2.399 5.007 2.989l5.007.711-3.34 2.661c-3.966 3.162-4.334 5.631-.837 5.637 3.482 0 9.38 3.616 10.277 6.291.416 1.244.154 2.905-.593 3.758-1.953 2.229-5.623 1.893-6.305-.576-.733-2.654-1.959-2.661-4.74-.027-4.184 3.962-4.279 12.166-.195 16.942 1.925 2.251 1.908 2.398-.546 4.723-2.64 2.5-4.524 7.448-3.285 8.622.395.374 2.48.076 4.635-.663 3.061-1.047 4.27-1.064 5.531-.072 3.82 3.003-.319 6.864-6.446 6.012-2.465-.343-3.483 0-3.838 1.279-.267.97-2.424 2.237-4.854 2.851-4.342 1.097-4.372 1.084-4.372-1.907 0-3.278-1.872-3.897-5.427-1.793-2.889 1.709-5.691.381-5.691-2.695 0-2.871 2.887-4.287 8.06-3.953 3.969.256 4.116-2.695.347-6.937l-2.71-3.05 2.147-3.085c3.18-4.568 2.912-12.156-.562-15.925l-2.723-2.954-1.787 2.369c-2.483 3.292-5.879 3.071-6.811-.442-.61-2.302-.105-3.353 2.776-5.791 1.937-1.639 4.764-2.98 6.283-2.98 3.76 0 3.613-2.957-.295-5.943l-3.058-2.337 4.725-.732c2.599-.404 4.726-1.163 4.726-1.686 0-2.008 3.274-8.255 4.327-8.255.608 0 1.884 1.053 2.836 2.34zm228.928-38.704 4.037 2.594 2.738-2.594c3.589-3.399 7.793-3.323 11.243.203 1.506 1.538 2.858 2.605 3.004 2.369.148-.235.819-1.376 1.492-2.534.853-1.466 2.607-2.203 5.772-2.427 3.813-.268 4.838.1 6.353 2.29l1.806 2.612 3.974-2.554c10.878-6.991 16.673.344 11.812 14.949-2.472 7.426-1.113 11.602 6.854 21.054 3.359 3.985 6.111 8.239 6.114 9.453 0 1.935-.621 2.194-5.092 2.106-4.279-.086-5.531.374-7.783 2.853-3.663 4.033-3.445 8.65.649 13.775l3.272 4.094-5.804 3.939c-3.192 2.166-8.948 7.291-12.792 11.389-8.632 9.203-17.12 13.568-28.311 14.557l-7.505.664.012-5.68c.014-7.312 3.446-14.347 12.813-26.262 10.651-13.548 11.395-15.645 11.826-33.353l.364-14.976-3.082-2.923c-2.784-2.643-4.04-2.98-13.026-3.498-8.556-.494-10.352-.935-12.863-3.16-3.334-2.953-4.331-4.56-5.362-8.639-.599-2.377-.356-2.896 1.36-2.896 1.148 0 3.905 1.168 6.126 2.595zm-77.495 268.731c-1.627 1.541-.352 1.918 6.941 2.054 9.023.169 14.502 1.672 20.967 5.753 5.18 3.27 6.584 2.627 1.667-.764-4.485-3.092-11.481-5.47-18.234-6.198-3.271-.351-6.999-.84-8.284-1.084s-2.661-.136-3.057.239m-51.244-13.122c-2.341 3.164-2.179 5.261.669 8.69 2.058 2.478 2.999 2.815 6.593 2.358 2.306-.293 7.267-2.33 11.025-4.527 4.341-2.537 8.831-4.237 12.308-4.659 3.011-.367 5.475-.504 5.475-.307s-1.251 2.235-2.78 4.528c-3.63 5.447-3.506 6.032.588 2.769 4.204-3.35 9.231-4.329 20.466-3.988l5.49.167-3.185 3.148c-4.453 4.401-3.083 4.797 1.835.528 4.612-4.004 4.324-4.285-5.385-5.255-4.125-.411-8.561-.112-12.249.826-5.516 1.403-5.731 1.381-4.685-.468.601-1.066 1.577-1.938 2.167-1.938s1.073-.541 1.073-1.2c0-2.03-11.916-.245-17.611 2.638-13.007 6.586-14.645 7.157-17.741 6.181-1.723-.543-3.448-2.132-4.042-3.725-1.982-5.312 5.552-9.442 8.659-4.745.901 1.361.691 2.292-.892 3.948-2.168 2.269-1.965 2.592.962 1.528 2.077-.755 2.356-5.743.424-7.573-2.211-2.095-7.258-1.502-9.164 1.076m83.741-8.655c-2.573 2.317-4.345 4.528-3.939 4.913.407.385.865.495 1.017.245.153-.25 2.256-2.461 4.673-4.913 5.565-5.646 4.422-5.807-1.751-.245m-62.869-21.977c-7.068 5.901-8.14 7.251-7.984 10.048l.167 2.977.461-2.875c.269-1.679 2.152-4.194 4.524-6.047l4.062-3.171 2.496 2.888c1.373 1.588 2.515 3.479 2.537 4.203.058 1.888.397 1.729 5.181-2.422 4.252-3.689 4.318-3.707 4.95-1.316.353 1.332.228 3.84-.278 5.574-1.389 4.764-1.116 5.484.988 2.61 1.049-1.431 2.735-3.456 3.747-4.498 1.763-1.814 1.87-1.792 2.526.526.377 1.333.691 3.77.7 5.417l.015 2.995 3.833-4.345c3.581-4.059 3.911-4.208 5.003-2.275.644 1.139 1.178 3.878 1.188 6.088.012 2.855.312 3.576 1.038 2.489 1.213-1.816.371-6.758-1.868-10.969l-1.607-3.023-2.109 3.286c-2.697 4.201-3.596 4.133-5.326-.4-1.636-4.284-2.699-4.61-4.293-1.316-1.032 2.132-1.229 1.87-1.96-2.609l-.815-4.976-4.875 3.783-4.876 3.784-2.191-2.492c-1.206-1.37-2.209-3.084-2.228-3.808-.045-1.569-1.218-1.618-3.005-.126zm29.651-40.873c0 1.545-4.537 5.732-9.134 8.429-3.609 2.119-4.206 2.184-4.214.455-.012-2.623-2.345-9.213-3.26-9.213-.517 0-1.282 1.288-1.699 2.863-.417 1.573-2.167 4.675-3.888 6.892l-3.131 4.032-2.438-3.735c-2.272-3.482-6.209-6.893-7.956-6.893-.417 0-.498 1.834-.18 4.076.344 2.434.078 4.367-.662 4.799-.682.4-1.24.26-1.24-.308 0-1.313-5.466-7.514-6.623-7.514-.476 0-1.143 1.777-1.482 3.948-.339 2.172-.915 5.608-1.28 7.634-.366 2.028.413.653 1.73-3.054l2.394-6.74 2.625 4.108c1.444 2.258 2.627 4.727 2.631 5.485 0 .759.492 1.094 1.085.747.594-.348 1.42-3.063 1.836-6.035l.757-5.402 2.889 3.167c1.589 1.742 3.451 4.074 4.137 5.182 1.226 1.979 1.295 1.977 3.732-.09 1.366-1.158 3.466-3.928 4.666-6.157 1.201-2.227 2.344-3.886 2.54-3.684.196.2.637 2.497.978 5.103s.646 4.834.677 4.952c.17.647 8.701-4.899 11.859-7.708 2.028-1.804 3.956-3.028 4.281-2.719.327.308.594 2.971.594 5.917 0 4.565-.485 5.789-3.277 8.284-3.21 2.87-3.3 2.885-4.486.786-1.539-2.724-3.356-2.763-3.356-.072 0 1.963-6.066 9.512-7.644 9.512-.409 0-1.688-1.658-2.84-3.684-1.152-2.028-2.391-3.684-2.754-3.682-1.556.01-10.109 9.546-10.105 11.267 0 1.369.576 1.018 2.076-1.268 1.139-1.737 3.415-4.331 5.057-5.764 3.326-2.9 4.535-2.195 5.818 3.395.365 1.593 1.001 2.895 1.411 2.895 1.422 0 8.867-7.907 9.914-10.529l1.052-2.633.796 2.897c.973 3.54 2.048 3.672 3.602.441.65-1.349 3.857-4.156 7.127-6.236l5.947-3.781 1.193 3.803c.657 2.092 1.526 3.294 1.933 2.671.606-.928-.94-7.231-2.106-8.588-.175-.203-2.102.92-4.282 2.495l-3.965 2.864-.016-5.127c-.01-2.82-.316-6.193-.685-7.495-.721-2.548-2.635-3.265-2.635-.988zm-77.975-184.53 3.744 2.161 1.601-2.165c2.133-2.884 8.035-2.851 11.952.067l2.995 2.231 2.508-2.231c3.297-2.934 9.455-2.938 13.387-.01 2.752 2.05 3.136 2.091 4.956.531 1.085-.93 4.268-1.988 7.072-2.352 5.051-.656 5.127-.62 8.082 3.813 2.475 3.713 2.863 5.216 2.272 8.817-.392 2.388-.814 6.23-.938 8.539-.223 4.181-.199 4.208 5.891 6.328 3.362 1.171 7.256 2.742 8.65 3.49 2.433 1.306 9.138 9.186 9.138 10.739 0 .412-2.619 1.043-5.821 1.401-12.735 1.429-14.892 8.268-6.613 20.97 13.501 20.716 21.649 40.89 21.704 53.742.024 5.745.351 7.673 1.089 6.424 3.017-5.105-2.387-26.511-10.574-41.882l-3.296-6.189 3.145.725c1.73.397 11.901 4.689 22.602 9.535 29.29 13.266 39.351 15.866 58.307 15.067 15.882-.668 22.644-3.771 33.857-15.531 5.941-6.231 11.662-10.689 22.13-17.241 22.302-13.959 23.232-15.169 24.292-31.585 1.075-16.634.54-17.536-12.041-20.316-10.752-2.376-17.494-7.388-19.302-14.352-.965-3.72 1.067-3.826 6.488-.343l3.973 2.554 1.767-2.554c2.322-3.357 7.259-3.37 11.358-.03l3.097 2.522 3.166-2.522c4.918-3.919 11.459-2.969 13.305 1.933.354.943 1.302.641 3.22-1.026 3.593-3.123 12.804-4.463 13.799-2.007.379.937-.341 3.251-1.602 5.142-5.36 8.036-7.036 11.868-7.106 16.243-.097 6.084 1.718 9.019 8.638 13.968 8.406 6.01 11.004 13.765 4.611 13.765-3.947 0-7.925 3.488-10.464 9.174-5.158 11.559-4.147 24.515 3.595 46.069 7.863 21.895 8.737 25.932 8.768 40.575.025 11.838-.273 13.886-2.966 20.377-1.648 3.968-4.989 9.877-7.427 13.131l-4.43 5.916 5.689 4.714c17.372 14.393 13.818 37.948-7.095 47.024-6.397 2.776-7.996 3.021-19.208 2.946-6.726-.046-16.983-.931-22.792-1.968-5.923-1.056-15.949-1.906-22.826-1.933-10.925-.044-12.779.225-16.99 2.466-4.39 2.337-5.143 3.447-6.002 8.847-.177 1.11-.953 2.218-1.725 2.462-1.494.471-8.389-5.515-9.408-8.166-.503-1.308-.913-1.217-2.388.527-.979 1.159-2.346 3.82-3.039 5.914-1.74 5.268.397 9.216 6.589 12.176l4.804 2.296-2.833 1.758c-5.846 3.627-15.785 1.145-19.379-4.838-1.018-1.693-2.126-3.081-2.465-3.085-.339-.002-2.271 1.611-4.295 3.589-7.548 7.374-4.951 18.285 5.144 21.616 5.383 1.776 10.146.421 11.137-3.168 1.513-5.48 6.217 1.723 5.374 8.229-.561 4.325-.477 4.474 2.516 4.474 4.161 0 13.02-5.462 15.76-9.717 3.182-4.944 2.95-12.728-.552-18.529l-2.75-4.555 3.598.72c5.274 1.057 10.398 4.332 12.991 8.305 2.74 4.199 3.035 12.377.604 16.79-2.354 4.276-2.084 4.955 1.398 3.51 5.921-2.458 9.087-5.169 11.462-9.815 2.139-4.183 2.258-5.223 1.099-9.578-.713-2.686-2.303-6.221-3.531-7.854-1.913-2.544-1.977-2.97-.454-2.97 2.838 0 8.763 2.685 10.867 4.926 1.064 1.132 2.614 3.918 3.446 6.192l1.511 4.136 1.737-3.153c2.456-4.457 7.231-8.467 13.053-10.963 6.262-2.685 8.87-2.836 5.595-.325-2.208 1.694-6.276 13.632-5.044 14.8.726.688 9.228-5.853 18.935-14.568 9.182-8.243 14.952-10.943 23.385-10.944 10.774 0 17.046 9.379 12.205 18.247-2.824 5.169-9.113 5.888-12.789 1.461-1.692-2.037-2.157-3.657-1.661-5.792.607-2.616.37-2.964-2.013-2.964-3.132 0-9.305 4.006-20.268 13.154-16.718 13.95-37.031 25.774-51.698 30.094-9.413 2.771-29.522 3.853-39.09 2.102-10.356-1.894-22.605-7.821-29.279-14.166-11.824-11.242-12.012-26.202-.499-39.825l3.298-3.902-2.233-3.469c-3.248-5.045-2.97-11.835.69-16.836 1.612-2.203 3.238-4.004 3.614-4.003.375.001.786 1.417.914 3.147.323 4.376 2.201 7.307 5.425 8.468 2.903 1.045 4.78.552 18.074-4.755 13.985-5.582 36.985-5.965 61.441-1.024 11.99 2.422 26.127 2.279 32.347-.326 11.401-4.777 14.043-17.203 5.662-26.636-3.628-4.083-7.127-5.746-18.874-8.97-8.939-2.454-11.057-2.616-31.376-2.414-17.358.174-23.597-.16-30.682-1.639-7.694-1.606-12.425-1.768-35.022-1.199l-26.128.659 2.898-2.4c1.593-1.319 3.844-2.942 5.002-3.607 1.971-1.131 1.906-1.283-1.023-2.369-1.722-.638-5.542-1.161-8.49-1.161h-5.361l-.721-4.555c-.397-2.506-.366-5.431.066-6.5.64-1.578.402-1.805-1.262-1.2-1.126.409-4.266 1.215-6.976 1.791-2.711.575-6.358 1.746-8.108 2.602-2.94 1.44-3.266 1.402-4.35-.515-.967-1.711-10.047-8.469-11.379-8.469-.216 0-.493 1.303-.617 2.895s-1.435 5.739-2.911 9.213c-1.477 3.475-3.019 7.266-3.427 8.424-.615 1.747-.894 1.837-1.636.526-.492-.869-1.211-3.238-1.597-5.264-.385-2.028-1.753-5.321-3.04-7.318l-2.338-3.631-1.493 3.105c-1.6 3.333-4.259 6.79-5.221 6.79-.325 0-.879-1.065-1.23-2.369-.734-2.721-7.038-10.266-8.578-10.266-.566 0-1.03 2.132-1.03 4.739 0 2.605-.501 4.738-1.112 4.738-.612 0-1.112-.675-1.112-1.499 0-2.003-5.384-7.978-7.189-7.978-.788 0-2.056-.711-2.818-1.579-1.984-2.265-3.608-1.947-2.773.543.391 1.167.137 3.892-.566 6.054-.702 2.163-1.449 4.465-1.659 5.115-.265.819-2.194.602-6.278-.707-6.598-2.115-8.81-1.741-5.416.916 1.24.972 3.127 4.338 4.193 7.48 1.066 3.141 2.638 5.928 3.494 6.194 1.199.372 1.135-.087-.278-1.998-1.009-1.364-1.838-3.204-1.841-4.089 0-.885-.763-2.981-1.688-4.66-.924-1.679-1.505-3.219-1.291-3.422.214-.202 2.724.751 5.579 2.12l5.189 2.488.022-2.226c.012-1.224.637-4.454 1.39-7.177l1.368-4.951 3.532 1.623c3.61 1.66 7.029 7.575 7.029 12.161 0 2.268 1.299 1.919 1.831-.49.157-.707.971-3.362 1.812-5.898l1.527-4.612 2.419 2.912c1.33 1.602 2.998 4.743 3.706 6.981 1.229 3.885 3.159 5.555 3.159 2.734 0-2.033 5.548-9.324 6.618-8.698.518.302 1.548 3.04 2.29 6.082 1.543 6.326 4.031 10.629 5.612 9.703.595-.348.826-1.024.515-1.501-.312-.478.966-4.591 2.839-9.141 1.874-4.549 3.755-9.13 4.181-10.178.685-1.686 1.303-1.442 5.319 2.105 2.499 2.207 4.768 4.678 5.041 5.491.412 1.229.97 1.184 3.308-.266 3.268-2.029 14.257-5.297 15.105-4.494.318.302.644 3.188.724 6.415l.147 5.865 3.16-.655c1.737-.361 5.391-.338 8.12.049l4.961.704-4.421 3.034c-2.432 1.668-4.891 3.827-5.464 4.797-.61 1.034-2.774 1.912-5.227 2.12-6.623.562-18.363 7.147-18.363 10.299 0 .592 1.627-.415 3.614-2.236 4.409-4.041 10.534-6.577 15.883-6.577h4.003l-2.476 3.293c-1.423 1.892-2.699 5.48-2.998 8.433-.477 4.706-.974 5.454-5.888 8.87-2.951 2.052-6.608 5.128-8.124 6.835l-2.758 3.103-1.407-3.684c-.774-2.028-1.72-3.686-2.102-3.686s-1.869 1.185-3.305 2.633c-1.437 1.447-2.9 2.627-3.251 2.62-.353-.006-1.624-1.957-2.828-4.334l-2.187-4.321-1.69 2.491c-.929 1.37-3.125 3.794-4.879 5.387-1.754 1.591-2.677 2.895-2.05 2.895.626 0 2.791-1.659 4.81-3.687l3.672-3.687 1.494 2.701c.887 1.603 1.22 4.066.818 6.056-.585 2.902-.503 3.07.609 1.249.708-1.158 2.856-3.379 4.774-4.935l3.487-2.828 2.407 4.408c2.395 4.387 2.411 4.395 3.501 1.776 1.457-3.504 12.003-12.149 20.982-17.199 1.383-.779.8 1.898-1.755 8.054-.677 1.63-1.231 4.57-1.231 6.532 0 2.91-.84 4.206-4.562 7.038-5.374 4.089-7.113 6.998-8.125 13.595-.41 2.673-1.351 5.646-2.09 6.606-1.097 1.425-1.278.628-.985-4.332.198-3.344-.237-7.501-.966-9.238l-1.326-3.16-1.025 2.633c-.563 1.447-3.057 3.966-5.541 5.595-2.483 1.63-4.227 3.236-3.874 3.571.354.334 2.908-1.151 5.679-3.301 4.219-3.274 5.149-3.629 5.733-2.186.687 1.694-.001 9.068-1.327 14.221-.662 2.573-.605 2.559 2.569-.615 2.341-2.34 3.636-5.132 4.639-10.003 1.273-6.187 1.917-7.217 7.638-12.241 3.436-3.016 6.426-5.315 6.645-5.108.218.207.652 8.01.963 17.343.597 17.893-.078 22.151-4.387 27.679l-2.214 2.841 3.481 3.754c4.54 4.898 6.625 8.824 7.529 14.18l.737 4.357-3.929-3.72c-3.216-3.047-4.752-3.72-8.478-3.72-3.689 0-5.13.618-7.616 3.267-2.982 3.178-8.267 6.237-13.349 7.725-1.878.55-2.502.31-2.502-.96 0-.931-1.038-3.617-2.305-5.971l-2.305-4.278-4.828 4.773c-2.962 2.927-6.476 5.206-9.092 5.894-6.68 1.757-7.042 1.582-7.042-3.396 0-7.549-3.223-8.956-9.024-3.937-4.423 3.825-8.091 4.656-16.477 3.734l-6.477-.711 1.166-2.925c.972-2.441.754-3.47-1.332-6.244-3.382-4.499-7.781-6.448-14.551-6.448-3.118 0-7.021-.644-8.672-1.434-1.651-.789-5.754-1.697-9.117-2.019-3.363-.321-6.947-.896-7.966-1.276-1.593-.595-1.767-.105-1.255 3.518.786 5.545-3.088 9.635-9.124 9.635-7.831 0-11.443-7.005-8.377-16.246.591-1.779 1.363-4.583 1.717-6.233.366-1.711 3.895-6.253 8.215-10.576 4.165-4.167 8.101-8.503 8.748-9.636.645-1.132 2.782-2.95 4.747-4.039l3.572-1.979-.471 3.822c-.518 4.201.397 4.86 2.632 1.896.799-1.06 2.829-2.773 4.511-3.807 2.649-1.628 3.058-1.661 3.058-.247 0 .897.539 2.966 1.199 4.596l1.2 2.964 2.082-4.033c1.146-2.218 4.87-7.259 8.277-11.203 6.609-7.651 10.636-16.202 8.558-18.171-.843-.798-3.122-.736-7.846.213-3.661.737-8.19 1.125-10.064.864-3.826-.531-4.128-.038-1.774 2.91 2.484 3.11 2.088 3.623-2.791 3.623-5.646 0-19.663 2.707-25.043 4.836-5.232 2.07-6.439 1.554-7.979-3.408-.693-2.233-1.962-6.28-2.82-8.993l-1.56-4.931 5.66.544c3.114.3 7.119.982 8.899 1.515 1.781.533 3.399.817 3.596.63.198-.187-.596-2.114-1.763-4.282l-2.123-3.944 3.529.72c1.941.396 4.861 1.364 6.49 2.152 2.833 1.371 3.061 1.271 5.295-2.316 2.748-4.411 4.946-4.23 5.435.447.504 4.836 2.095 4.121 5.087-2.287 2.878-6.162 5.872-8.338 6.447-4.685.19 1.213 1.74 3.187 3.444 4.387 3.447 2.428 6.043 1.7 7.532-2.112 1.542-3.945-1.896-8.013-11.894-14.073-20.028-12.141-31.67-28.744-34.994-49.907-2.997-19.089 6.365-38.815 25.148-52.982 8.989-6.78 23.268-13.935 22.361-11.205-3.854 11.596-3.727 33.72.214 37.452.592.561.388-1.748-.452-5.13-3.13-12.597-1.77-22.634 6.252-46.16 7.256-21.277 6.251-30.371-4.017-36.382-3.298-1.93-5.422-2.248-14.289-2.14-9.622.116-10.671-.077-13.76-2.538-2.995-2.387-6.878-10.223-6.878-13.88 0-1.981 2.199-1.719 6.522.777z" fill="#ffb700" transform="matrix(1.3333333 0 0 -1.3333333 692.54947 322.94013)"/></svg>