<?xml version="1.0" encoding="UTF-8" standalone="no"?>
<!-- Created with Inkscape (http://www.inkscape.org/) -->

<svg
   version="1.1"
   id="svg1"
   width="1200"
   height="800"
   viewBox="0 0 1200 800"
   sodipodi:docname="lk.ai"
   xmlns:inkscape="http://www.inkscape.org/namespaces/inkscape"
   xmlns:sodipodi="http://sodipodi.sourceforge.net/DTD/sodipodi-0.dtd"
   xmlns="http://www.w3.org/2000/svg"
   xmlns:svg="http://www.w3.org/2000/svg">
  <defs
     id="defs1">
    <clipPath
       clipPathUnits="userSpaceOnUse"
       id="clipPath6">
      <path
         d="M 0,600 H 900 V 0 H 0 Z"
         transform="translate(-789.46292,-139.4863)"
         id="path6" />
    </clipPath>
    <clipPath
       clipPathUnits="userSpaceOnUse"
       id="clipPath8">
      <path
         d="M 0,600 H 900 V 0 H 0 Z"
         transform="translate(-404.41991,-458.07521)"
         id="path8" />
    </clipPath>
    <clipPath
       clipPathUnits="userSpaceOnUse"
       id="clipPath10">
      <path
         d="M 0,600 H 900 V 0 H 0 Z"
         transform="translate(-789.46292,-460.07521)"
         id="path10" />
    </clipPath>
    <clipPath
       clipPathUnits="userSpaceOnUse"
       id="clipPath12">
      <path
         d="M 0,600 H 900 V 0 H 0 Z"
         transform="translate(-399.28711,-139.4863)"
         id="path12" />
    </clipPath>
    <clipPath
       clipPathUnits="userSpaceOnUse"
       id="clipPath14">
      <path
         d="M 0,600 H 900 V 0 H 0 Z"
         transform="translate(-519.41212,-357.79491)"
         id="path14" />
    </clipPath>
    <clipPath
       clipPathUnits="userSpaceOnUse"
       id="clipPath16">
      <path
         d="M 0,600 H 900 V 0 H 0 Z"
         transform="translate(-519.41212,-357.79491)"
         id="path16" />
    </clipPath>
    <clipPath
       clipPathUnits="userSpaceOnUse"
       id="clipPath18">
      <path
         d="M 0,600 H 900 V 0 H 0 Z"
         transform="translate(-519.41212,-357.79491)"
         id="path18" />
    </clipPath>
  </defs>
  <sodipodi:namedview
     id="namedview1"
     pagecolor="#ffffff"
     bordercolor="#000000"
     borderopacity="0.25"
     inkscape:showpageshadow="2"
     inkscape:pageopacity="0.0"
     inkscape:pagecheckerboard="0"
     inkscape:deskcolor="#d1d1d1">
    <inkscape:page
       x="0"
       y="0"
       inkscape:label="1"
       id="page1"
       width="1200"
       height="800"
       margin="0"
       bleed="0" />
  </sodipodi:namedview>
  <g
     id="layer-MC0"
     inkscape:groupmode="layer"
     inkscape:label="svg551">
    <path
       id="path1"
       d="M 0,0 H 900 V 600 H 0 Z"
       style="fill:#ffb700;fill-opacity:1;fill-rule:nonzero;stroke:none"
       transform="matrix(1.3333333,0,0,-1.3333333,0,800)" />
    <path
       id="path2"
       d="M 161.25,550 H 285 V 50 H 161.25 Z"
       style="fill:#ff5b00;fill-opacity:1;fill-rule:nonzero;stroke:none"
       transform="matrix(1.3333333,0,0,-1.3333333,0,800)" />
    <path
       id="path3"
       d="M 37.5,550 H 161.25 V 50 H 37.5 Z"
       style="fill:#005641;fill-opacity:1;fill-rule:nonzero;stroke:none"
       transform="matrix(1.3333333,0,0,-1.3333333,0,800)" />
    <path
       id="path4"
       d="M 322.5,550 H 866.25 V 50 H 322.5 Z"
       style="fill:#8d2029;fill-opacity:1;fill-rule:nonzero;stroke:none"
       transform="matrix(1.3333333,0,0,-1.3333333,0,800)" />
    <path
       id="path5"
       d="m 0,0 c 0,0 5.837,-11.883 12.285,-16.726 9.554,-7.173 29.145,-6.655 37.459,-15.025 9.963,-9.869 -0.773,-22.909 -0.683,-24.04 l 0.545,-6.887 c 0,0 -6.717,-0.081 -9.545,-0.521 -4.253,-0.663 -5.913,-4.124 -13.832,-3.611 -19.91,1.292 -19.107,19.23 -20.233,34.559 -1,5.837 -3.313,13.447 -4.628,19.282 C 0.24,-7.965 0,0 0,0"
       style="fill:#ffb700;fill-opacity:1;fill-rule:nonzero;stroke:#000000;stroke-width:2.126;stroke-linecap:butt;stroke-linejoin:miter;stroke-miterlimit:4;stroke-dasharray:none;stroke-opacity:1"
       transform="matrix(1.3333333,0,0,-1.3333333,1052.6172,614.01827)"
       clip-path="url(#clipPath6)" />
    <path
       id="path7"
       d="m 0,0 c 0,0 -5.837,11.884 -12.285,16.726 -9.554,7.173 -29.145,6.656 -37.459,15.025 -9.963,9.87 0.773,22.909 0.683,24.041 l -0.546,6.886 c 0,0 6.718,0.081 9.546,0.522 4.254,0.663 5.913,4.124 13.832,3.61 19.909,-1.292 19.107,-19.23 20.232,-34.558 1,-5.837 3.314,-13.447 4.629,-19.282 C -0.241,7.966 0,0 0,0"
       style="fill:#ffb700;fill-opacity:1;fill-rule:nonzero;stroke:#000000;stroke-width:2.126;stroke-linecap:butt;stroke-linejoin:miter;stroke-miterlimit:4;stroke-dasharray:none;stroke-opacity:1"
       transform="matrix(1.3333333,0,0,-1.3333333,539.22653,189.23307)"
       clip-path="url(#clipPath8)" />
    <path
       id="path9"
       d="m 0,0 c 0,0 5.837,11.884 12.285,16.726 9.554,7.173 29.145,6.656 37.459,15.025 9.963,9.87 -0.773,22.909 -0.683,24.041 l 0.545,6.886 c 0,0 -6.717,0.081 -9.545,0.522 -4.253,0.663 -5.913,4.124 -13.832,3.61 C 6.319,65.518 7.122,47.58 5.996,32.252 4.996,26.415 2.683,18.805 1.368,12.97 0.24,7.966 0,0 0,0"
       style="fill:#ffb700;fill-opacity:1;fill-rule:nonzero;stroke:#000000;stroke-width:2.126;stroke-linecap:butt;stroke-linejoin:miter;stroke-miterlimit:4;stroke-dasharray:none;stroke-opacity:1"
       transform="matrix(1.3333333,0,0,-1.3333333,1052.6172,186.5664)"
       clip-path="url(#clipPath10)" />
    <path
       id="path11"
       d="m 0,0 c 0,0 -5.836,-11.883 -12.285,-16.726 -9.554,-7.173 -29.145,-6.655 -37.459,-15.025 -9.963,-9.869 0.773,-22.909 0.683,-24.04 l -0.546,-6.887 c 0,0 6.718,-0.081 9.546,-0.521 4.254,-0.663 5.913,-4.124 13.832,-3.611 19.91,1.292 19.107,19.23 20.233,34.559 0.999,5.837 3.313,13.447 4.628,19.282 C -0.24,-7.965 0,0 0,0"
       style="fill:#ffb700;fill-opacity:1;fill-rule:nonzero;stroke:#000000;stroke-width:2.126;stroke-linecap:butt;stroke-linejoin:miter;stroke-miterlimit:4;stroke-dasharray:none;stroke-opacity:1"
       transform="matrix(1.3333333,0,0,-1.3333333,532.3828,614.01827)"
       clip-path="url(#clipPath12)" />
    <path
       id="path13"
       d="m 0,0 c 0.337,0.517 -0.408,3.122 -1.654,5.791 -1.944,4.162 -2.727,4.854 -5.495,4.854 -8.673,0 -22.617,3.876 -36.991,10.282 -8.3,3.7 -11.168,4.55 -12.163,3.607 -2.54,-2.405 1.681,-8.114 8.218,-11.115 5.799,-2.662 22.01,-5.934 29.404,-5.934 4.29,0 4.392,-0.193 1.951,-3.722 l -1.795,-2.595 4.852,-0.125 C -11.004,0.975 -7.318,0.557 -5.484,0.114 -0.72,-1.033 -0.675,-1.034 0,0 m -90.354,-56.991 c 0.623,0.589 0.352,1.496 -0.692,2.316 -2.286,1.797 -2.164,4.469 0.343,7.529 1.884,2.297 2.119,5.736 2.767,40.417 1.117,59.766 5.561,104.722 11.419,115.507 2.333,4.294 2.006,4.311 -4.021,0.21 -7.763,-5.282 -13.674,-12.16 -18.911,-22.006 -9.888,-18.589 -13.324,-43.598 -13.324,-96.982 0,-30.313 0.207,-34.278 1.933,-37.128 1.64,-2.706 1.728,-3.706 0.575,-6.597 -0.746,-1.874 -1.085,-3.665 -0.753,-3.979 2.208,-2.091 18.29,-1.536 20.664,0.713 m 6.69,-9.276 c 10.754,4.788 11.684,16.859 1.544,20.028 -4.211,1.316 -6.898,0.607 -8.51,-2.245 -1.234,-2.184 -0.409,-6.154 1.279,-6.154 0.571,0 1.038,-0.735 1.038,-1.633 0,-4.192 -16.419,-6.091 -23.152,-2.678 -2.366,1.199 -3.396,4.311 -1.427,4.311 1.471,0 2.488,3.171 1.737,5.414 -1.025,3.056 -4.104,4.115 -8.572,2.947 -10.08,-2.636 -9.796,-14.481 0.466,-19.506 8.415,-4.122 26.863,-4.372 35.597,-0.484 m -8.206,-11.945 c 0.387,2.566 -3.88,4.884 -12.272,6.665 -6.157,1.307 -8.873,0.566 -8.412,-2.296 0.252,-1.561 2.302,-2.703 8.119,-4.518 9.31,-2.905 12.11,-2.871 12.565,0.149 m 5.89,-0.532 c 1.774,1.799 3.226,3.921 3.226,4.717 0,2.581 -7.008,-1.986 -7.901,-5.149 -1.071,-3.794 0.666,-3.634 4.675,0.432 m -5.895,-7.928 c 0.34,2.253 -1.1,3.06 -12.86,7.198 -8.779,3.09 -12.665,1.633 -9.86,-3.697 0.978,-1.856 2.618,-2.704 6.297,-3.255 2.736,-0.41 6.476,-1.211 8.311,-1.781 4.901,-1.522 7.732,-0.985 8.112,1.535 m 0,-8.457 c 0.239,1.579 -0.738,2.633 -3.666,3.955 -6.315,2.852 -13.866,4.173 -15.685,2.744 -3.349,-2.633 -1.117,-6.168 4.296,-6.803 2.18,-0.256 5.134,-0.92 6.567,-1.477 4.16,-1.616 8.116,-0.879 8.488,1.581 m 6.007,-8.273 c 2.816,2.554 4.15,5.593 2.456,5.593 -1.949,0 -7.12,-4.64 -7.12,-6.389 0,-2.729 0.96,-2.565 4.664,0.796 m -6.332,-0.256 c 0,2.799 -5.773,5.786 -12.678,6.56 -5.576,0.625 -5.667,0.59 -5.667,-2.195 0,-2.305 0.877,-3.212 4.725,-4.888 6.184,-2.692 13.62,-2.407 13.62,0.523 m 53.679,-42.009 c 4.293,1.692 13.584,9.56 13.584,11.503 0,0.611 -2.564,3.432 -5.698,6.268 -6.596,5.967 -13.771,16.018 -15.63,21.895 -0.969,3.063 -5.653,8.309 -18.846,21.105 l -17.557,17.027 -5.06,-1.281 c -2.783,-0.705 -6.178,-1.299 -7.545,-1.32 -2.356,-0.036 -2.314,-0.171 0.818,-2.595 l 3.305,-2.557 4.633,2.57 c 4.491,2.493 4.65,2.508 5.204,0.502 0.325,-1.174 -0.375,-3.209 -1.617,-4.704 -1.203,-1.448 -1.889,-3.093 -1.524,-3.652 0.366,-0.561 -0.79,-1.732 -2.569,-2.603 -3.297,-1.614 -5.585,-6.929 -2.983,-6.929 2.34,0 7.502,6.369 6.907,8.522 -0.305,1.103 -0.157,2.237 0.327,2.521 2.01,1.176 1.885,-3.823 -0.158,-6.282 -1.203,-1.449 -1.889,-3.093 -1.524,-3.653 0.366,-0.56 -0.79,-1.731 -2.569,-2.602 -3.275,-1.604 -5.586,-6.929 -3.007,-6.929 2.527,0 7.604,6.085 6.975,8.361 -0.329,1.191 -0.201,2.398 0.283,2.682 1.354,0.792 2.084,-3.155 0.941,-5.088 -0.611,-1.036 -0.606,-2.45 0.015,-3.573 1.124,-2.031 -0.016,-5.933 -2.088,-7.146 -0.888,-0.52 -0.286,-1.539 1.868,-3.166 3.118,-2.355 3.178,-2.603 3.178,-12.991 0,-8.682 0.351,-10.923 1.945,-12.434 1.79,-1.696 1.946,-1.702 1.946,-0.076 0,1.776 3.118,3.948 5.669,3.948 0.753,0 5.454,-3.984 10.447,-8.853 5.024,-4.9 10.281,-9.068 11.769,-9.333 1.479,-0.264 3.081,-0.544 3.56,-0.623 0.477,-0.079 2.729,0.59 5.002,1.485 z m -61.525,-26.666 c 0.952,1.287 1.731,3.366 1.731,4.619 0,1.894 0.846,2.399 5.007,2.989 l 5.007,0.711 -3.34,2.661 c -3.966,3.162 -4.334,5.631 -0.837,5.637 3.482,0 9.38,3.616 10.277,6.291 0.416,1.244 0.154,2.905 -0.593,3.758 -1.953,2.229 -5.623,1.893 -6.305,-0.576 -0.733,-2.654 -1.959,-2.661 -4.74,-0.027 -4.184,3.962 -4.279,12.166 -0.195,16.942 1.925,2.251 1.908,2.398 -0.546,4.723 -2.64,2.5 -4.524,7.448 -3.285,8.622 0.395,0.374 2.48,0.076 4.635,-0.663 3.061,-1.047 4.27,-1.064 5.531,-0.072 3.82,3.003 -0.319,6.864 -6.446,6.012 -2.465,-0.343 -3.483,0 -3.838,1.279 -0.267,0.97 -2.424,2.237 -4.854,2.851 -4.342,1.097 -4.372,1.084 -4.372,-1.907 0,-3.278 -1.872,-3.897 -5.427,-1.793 -2.889,1.709 -5.691,0.381 -5.691,-2.695 0,-2.871 2.887,-4.287 8.06,-3.953 3.969,0.256 4.116,-2.695 0.347,-6.937 l -2.71,-3.05 2.147,-3.085 c 3.18,-4.568 2.912,-12.156 -0.562,-15.925 l -2.723,-2.954 -1.787,2.369 c -2.483,3.292 -5.879,3.071 -6.811,-0.442 -0.61,-2.302 -0.105,-3.353 2.776,-5.791 1.937,-1.639 4.764,-2.98 6.283,-2.98 3.76,0 3.613,-2.957 -0.295,-5.943 l -3.058,-2.337 4.725,-0.732 c 2.599,-0.404 4.726,-1.163 4.726,-1.686 0,-2.008 3.274,-8.255 4.327,-8.255 0.608,0 1.884,1.053 2.836,2.34 z m 228.928,-38.704 4.037,2.594 2.738,-2.594 c 3.589,-3.399 7.793,-3.323 11.243,0.203 1.506,1.538 2.858,2.605 3.004,2.369 0.148,-0.235 0.819,-1.376 1.492,-2.534 0.853,-1.466 2.607,-2.203 5.772,-2.427 3.813,-0.268 4.838,0.1 6.353,2.29 l 1.806,2.612 3.974,-2.554 c 10.878,-6.991 16.673,0.344 11.812,14.949 -2.472,7.426 -1.113,11.602 6.854,21.054 3.359,3.985 6.111,8.239 6.114,9.453 0,1.935 -0.621,2.194 -5.092,2.106 -4.279,-0.086 -5.531,0.374 -7.783,2.853 -3.663,4.033 -3.445,8.65 0.649,13.775 l 3.272,4.094 -5.804,3.939 c -3.192,2.166 -8.948,7.291 -12.792,11.389 -8.632,9.203 -17.12,13.568 -28.311,14.557 l -7.505,0.664 0.012,-5.68 c 0.014,-7.312 3.446,-14.347 12.813,-26.262 10.651,-13.548 11.395,-15.645 11.826,-33.353 l 0.364,-14.976 -3.082,-2.923 c -2.784,-2.643 -4.04,-2.98 -13.026,-3.498 -8.556,-0.494 -10.352,-0.935 -12.863,-3.16 -3.334,-2.953 -4.331,-4.56 -5.362,-8.639 -0.599,-2.377 -0.356,-2.896 1.36,-2.896 1.148,0 3.905,1.168 6.126,2.595 z M 51.387,57.694 c -1.627,1.541 -0.352,1.918 6.941,2.054 9.023,0.169 14.502,1.672 20.967,5.753 5.18,3.27 6.584,2.627 1.667,-0.764 -4.485,-3.092 -11.481,-5.47 -18.234,-6.198 -3.271,-0.351 -6.999,-0.84 -8.284,-1.084 -1.285,-0.244 -2.661,-0.136 -3.057,0.239 M 0.143,44.572 c -2.341,3.164 -2.179,5.261 0.669,8.69 2.058,2.478 2.999,2.815 6.593,2.358 2.306,-0.293 7.267,-2.33 11.025,-4.527 4.341,-2.537 8.831,-4.237 12.308,-4.659 3.011,-0.367 5.475,-0.504 5.475,-0.307 0,0.197 -1.251,2.235 -2.78,4.528 -3.63,5.447 -3.506,6.032 0.588,2.769 4.204,-3.35 9.231,-4.329 20.466,-3.988 l 5.49,0.167 -3.185,3.148 c -4.453,4.401 -3.083,4.797 1.835,0.528 4.612,-4.004 4.324,-4.285 -5.385,-5.255 -4.125,-0.411 -8.561,-0.112 -12.249,0.826 -5.516,1.403 -5.731,1.381 -4.685,-0.468 0.601,-1.066 1.577,-1.938 2.167,-1.938 0.59,0 1.073,-0.541 1.073,-1.2 0,-2.03 -11.916,-0.245 -17.611,2.638 C 8.93,54.468 7.292,55.039 4.196,54.063 2.473,53.52 0.748,51.931 0.154,50.338 -1.828,45.026 5.706,40.896 8.813,45.593 9.714,46.954 9.504,47.885 7.921,49.541 5.753,51.81 5.956,52.133 8.883,51.069 10.96,50.314 11.239,45.326 9.307,43.496 7.096,41.401 2.049,41.994 0.143,44.572 m 83.741,-8.655 c -2.573,2.317 -4.345,4.528 -3.939,4.913 0.407,0.385 0.865,0.495 1.017,0.245 0.153,-0.25 2.256,-2.461 4.673,-4.913 5.565,-5.646 4.422,-5.807 -1.751,-0.245 M 21.015,13.94 c -7.068,5.901 -8.14,7.251 -7.984,10.048 l 0.167,2.977 0.461,-2.875 c 0.269,-1.679 2.152,-4.194 4.524,-6.047 l 4.062,-3.171 2.496,2.888 c 1.373,1.588 2.515,3.479 2.537,4.203 0.058,1.888 0.397,1.729 5.181,-2.422 4.252,-3.689 4.318,-3.707 4.95,-1.316 0.353,1.332 0.228,3.84 -0.278,5.574 -1.389,4.764 -1.116,5.484 0.988,2.61 1.049,-1.431 2.735,-3.456 3.747,-4.498 1.763,-1.814 1.87,-1.792 2.526,0.526 0.377,1.333 0.691,3.77 0.7,5.417 l 0.015,2.995 3.833,-4.345 c 3.581,-4.059 3.911,-4.208 5.003,-2.275 0.644,1.139 1.178,3.878 1.188,6.088 0.012,2.855 0.312,3.576 1.038,2.489 1.213,-1.816 0.371,-6.758 -1.868,-10.969 L 52.694,18.814 50.585,22.1 c -2.697,4.201 -3.596,4.133 -5.326,-0.4 -1.636,-4.284 -2.699,-4.61 -4.293,-1.316 -1.032,2.132 -1.229,1.87 -1.96,-2.609 l -0.815,-4.976 -4.875,3.783 -4.876,3.784 -2.191,-2.492 C 25.043,16.504 24.04,14.79 24.021,14.066 23.976,12.497 22.803,12.448 21.016,13.94 Z m 29.651,-40.873 c 0,1.545 -4.537,5.732 -9.134,8.429 -3.609,2.119 -4.206,2.184 -4.214,0.455 -0.012,-2.623 -2.345,-9.213 -3.26,-9.213 -0.517,0 -1.282,1.288 -1.699,2.863 -0.417,1.573 -2.167,4.675 -3.888,6.892 l -3.131,4.032 -2.438,-3.735 c -2.272,-3.482 -6.209,-6.893 -7.956,-6.893 -0.417,0 -0.498,1.834 -0.18,4.076 0.344,2.434 0.078,4.367 -0.662,4.799 -0.682,0.4 -1.24,0.26 -1.24,-0.308 0,-1.313 -5.466,-7.514 -6.623,-7.514 -0.476,0 -1.143,1.777 -1.482,3.948 -0.339,2.172 -0.915,5.608 -1.28,7.634 -0.366,2.028 0.413,0.653 1.73,-3.054 l 2.394,-6.74 2.625,4.108 c 1.444,2.258 2.627,4.727 2.631,5.485 0,0.759 0.492,1.094 1.085,0.747 0.594,-0.348 1.42,-3.063 1.836,-6.035 l 0.757,-5.402 2.889,3.167 c 1.589,1.742 3.451,4.074 4.137,5.182 1.226,1.979 1.295,1.977 3.732,-0.09 1.366,-1.158 3.466,-3.928 4.666,-6.157 1.201,-2.227 2.344,-3.886 2.54,-3.684 0.196,0.2 0.637,2.497 0.978,5.103 0.341,2.606 0.646,4.834 0.677,4.952 0.17,0.647 8.701,-4.899 11.859,-7.708 2.028,-1.804 3.956,-3.028 4.281,-2.719 0.327,0.308 0.594,2.971 0.594,5.917 0,4.565 -0.485,5.789 -3.277,8.284 -3.21,2.87 -3.3,2.885 -4.486,0.786 -1.539,-2.724 -3.356,-2.763 -3.356,-0.072 0,1.963 -6.066,9.512 -7.644,9.512 -0.409,0 -1.688,-1.658 -2.84,-3.684 -1.152,-2.028 -2.391,-3.684 -2.754,-3.682 -1.556,0.01 -10.109,9.546 -10.105,11.267 0,1.369 0.576,1.018 2.076,-1.268 1.139,-1.737 3.415,-4.331 5.057,-5.764 3.326,-2.9 4.535,-2.195 5.818,3.395 0.365,1.593 1.001,2.895 1.411,2.895 1.422,0 8.867,-7.907 9.914,-10.529 l 1.052,-2.633 0.796,2.897 c 0.973,3.54 2.048,3.672 3.602,0.441 0.65,-1.349 3.857,-4.156 7.127,-6.236 l 5.947,-3.781 1.193,3.803 c 0.657,2.092 1.526,3.294 1.933,2.671 0.606,-0.928 -0.94,-7.231 -2.106,-8.588 -0.175,-0.203 -2.102,0.92 -4.282,2.495 l -3.965,2.864 -0.016,-5.127 c -0.01,-2.82 -0.316,-6.193 -0.685,-7.495 -0.721,-2.548 -2.635,-3.265 -2.635,-0.988 z m -77.975,-184.53 3.744,2.161 1.601,-2.165 c 2.133,-2.884 8.035,-2.851 11.952,0.067 l 2.995,2.231 2.508,-2.231 c 3.297,-2.934 9.455,-2.938 13.387,-0.01 2.752,2.05 3.136,2.091 4.956,0.531 1.085,-0.93 4.268,-1.988 7.072,-2.352 5.051,-0.656 5.127,-0.62 8.082,3.813 2.475,3.713 2.863,5.216 2.272,8.817 -0.392,2.388 -0.814,6.23 -0.938,8.539 -0.223,4.181 -0.199,4.208 5.891,6.328 3.362,1.171 7.256,2.742 8.65,3.49 2.433,1.306 9.138,9.186 9.138,10.739 0,0.412 -2.619,1.043 -5.821,1.401 -12.735,1.429 -14.892,8.268 -6.613,20.97 13.501,20.716 21.649,40.89 21.704,53.742 0.024,5.745 0.351,7.673 1.089,6.424 3.017,-5.105 -2.387,-26.511 -10.574,-41.882 l -3.296,-6.189 3.145,0.725 c 1.73,0.397 11.901,4.689 22.602,9.535 29.29,13.266 39.351,15.866 58.307,15.067 15.882,-0.668 22.644,-3.771 33.857,-15.531 5.941,-6.231 11.662,-10.689 22.13,-17.241 22.302,-13.959 23.232,-15.169 24.292,-31.585 1.075,-16.634 0.54,-17.536 -12.041,-20.316 -10.752,-2.376 -17.494,-7.388 -19.302,-14.352 -0.965,-3.72 1.067,-3.826 6.488,-0.343 l 3.973,2.554 1.767,-2.554 c 2.322,-3.357 7.259,-3.37 11.358,-0.03 l 3.097,2.522 3.166,-2.522 c 4.918,-3.919 11.459,-2.969 13.305,1.933 0.354,0.943 1.302,0.641 3.22,-1.026 3.593,-3.123 12.804,-4.463 13.799,-2.007 0.379,0.937 -0.341,3.251 -1.602,5.142 -5.36,8.036 -7.036,11.868 -7.106,16.243 -0.097,6.084 1.718,9.019 8.638,13.968 8.406,6.01 11.004,13.765 4.611,13.765 -3.947,0 -7.925,3.488 -10.464,9.174 -5.158,11.559 -4.147,24.515 3.595,46.069 7.863,21.895 8.737,25.932 8.768,40.575 0.025,11.838 -0.273,13.886 -2.966,20.377 -1.648,3.968 -4.989,9.877 -7.427,13.131 l -4.43,5.916 5.689,4.714 c 17.372,14.393 13.818,37.948 -7.095,47.024 -6.397,2.776 -7.996,3.021 -19.208,2.946 -6.726,-0.046 -16.983,-0.931 -22.792,-1.968 -5.923,-1.056 -15.949,-1.906 -22.826,-1.933 -10.925,-0.044 -12.779,0.225 -16.99,2.466 -4.39,2.337 -5.143,3.447 -6.002,8.847 -0.177,1.11 -0.953,2.218 -1.725,2.462 -1.494,0.471 -8.389,-5.515 -9.408,-8.166 -0.503,-1.308 -0.913,-1.217 -2.388,0.527 -0.979,1.159 -2.346,3.82 -3.039,5.914 -1.74,5.268 0.397,9.216 6.589,12.176 l 4.804,2.296 -2.833,1.758 c -5.846,3.627 -15.785,1.145 -19.379,-4.838 -1.018,-1.693 -2.126,-3.081 -2.465,-3.085 -0.339,-0.002 -2.271,1.611 -4.295,3.589 -7.548,7.374 -4.951,18.285 5.144,21.616 5.383,1.776 10.146,0.421 11.137,-3.168 1.513,-5.48 6.217,1.723 5.374,8.229 -0.561,4.325 -0.477,4.474 2.516,4.474 4.161,0 13.02,-5.462 15.76,-9.717 3.182,-4.944 2.95,-12.728 -0.552,-18.529 l -2.75,-4.555 3.598,0.72 c 5.274,1.057 10.398,4.332 12.991,8.305 2.74,4.199 3.035,12.377 0.604,16.79 -2.354,4.276 -2.084,4.955 1.398,3.51 5.921,-2.458 9.087,-5.169 11.462,-9.815 2.139,-4.183 2.258,-5.223 1.099,-9.578 -0.713,-2.686 -2.303,-6.221 -3.531,-7.854 -1.913,-2.544 -1.977,-2.97 -0.454,-2.97 2.838,0 8.763,2.685 10.867,4.926 1.064,1.132 2.614,3.918 3.446,6.192 l 1.511,4.136 1.737,-3.153 c 2.456,-4.457 7.231,-8.467 13.053,-10.963 6.262,-2.685 8.87,-2.836 5.595,-0.325 -2.208,1.694 -6.276,13.632 -5.044,14.8 0.726,0.688 9.228,-5.853 18.935,-14.568 9.182,-8.243 14.952,-10.943 23.385,-10.944 10.774,0 17.046,9.379 12.205,18.247 -2.824,5.169 -9.113,5.888 -12.789,1.461 -1.692,-2.037 -2.157,-3.657 -1.661,-5.792 0.607,-2.616 0.37,-2.964 -2.013,-2.964 -3.132,0 -9.305,4.006 -20.268,13.154 -16.718,13.95 -37.031,25.774 -51.698,30.094 -9.413,2.771 -29.522,3.853 -39.09,2.102 C 123.518,88.846 111.269,82.919 104.595,76.574 92.771,65.332 92.583,50.372 104.096,36.749 l 3.298,-3.902 -2.233,-3.469 c -3.248,-5.045 -2.97,-11.835 0.69,-16.836 1.612,-2.203 3.238,-4.004 3.614,-4.003 0.375,10e-4 0.786,1.417 0.914,3.147 0.323,4.376 2.201,7.307 5.425,8.468 2.903,1.045 4.78,0.552 18.074,-4.755 13.985,-5.582 36.985,-5.965 61.441,-1.024 11.99,2.422 26.127,2.279 32.347,-0.326 11.401,-4.777 14.043,-17.203 5.662,-26.636 -3.628,-4.083 -7.127,-5.746 -18.874,-8.97 -8.939,-2.454 -11.057,-2.616 -31.376,-2.414 -17.358,0.174 -23.597,-0.16 -30.682,-1.639 -7.694,-1.606 -12.425,-1.768 -35.022,-1.199 l -26.128,0.659 2.898,-2.4 c 1.593,-1.319 3.844,-2.942 5.002,-3.607 1.971,-1.131 1.906,-1.283 -1.023,-2.369 -1.722,-0.638 -5.542,-1.161 -8.49,-1.161 h -5.361 l -0.721,-4.555 c -0.397,-2.506 -0.366,-5.431 0.066,-6.5 0.64,-1.578 0.402,-1.805 -1.262,-1.2 -1.126,0.409 -4.266,1.215 -6.976,1.791 -2.711,0.575 -6.358,1.746 -8.108,2.602 -2.94,1.44 -3.266,1.402 -4.35,-0.515 -0.967,-1.711 -10.047,-8.469 -11.379,-8.469 -0.216,0 -0.493,1.303 -0.617,2.895 -0.124,1.592 -1.435,5.739 -2.911,9.213 -1.477,3.475 -3.019,7.266 -3.427,8.424 -0.615,1.747 -0.894,1.837 -1.636,0.526 -0.492,-0.869 -1.211,-3.238 -1.597,-5.264 -0.385,-2.028 -1.753,-5.321 -3.04,-7.318 l -2.338,-3.631 -1.493,3.105 c -1.6,3.333 -4.259,6.79 -5.221,6.79 -0.325,0 -0.879,-1.065 -1.23,-2.369 -0.734,-2.721 -7.038,-10.266 -8.578,-10.266 -0.566,0 -1.03,2.132 -1.03,4.739 0,2.605 -0.501,4.738 -1.112,4.738 -0.612,0 -1.112,-0.675 -1.112,-1.499 0,-2.003 -5.384,-7.978 -7.189,-7.978 -0.788,0 -2.056,-0.711 -2.818,-1.579 -1.984,-2.265 -3.608,-1.947 -2.773,0.543 0.391,1.167 0.137,3.892 -0.566,6.054 -0.702,2.163 -1.449,4.465 -1.659,5.115 -0.265,0.819 -2.194,0.602 -6.278,-0.707 -6.598,-2.115 -8.81,-1.741 -5.416,0.916 1.24,0.972 3.127,4.338 4.193,7.48 1.066,3.141 2.638,5.928 3.494,6.194 1.199,0.372 1.135,-0.087 -0.278,-1.998 -1.009,-1.364 -1.838,-3.204 -1.841,-4.089 0,-0.885 -0.763,-2.981 -1.688,-4.66 -0.924,-1.679 -1.505,-3.219 -1.291,-3.422 0.214,-0.202 2.724,0.751 5.579,2.12 l 5.189,2.488 0.022,-2.226 c 0.012,-1.224 0.637,-4.454 1.39,-7.177 l 1.368,-4.951 3.532,1.623 c 3.61,1.66 7.029,7.575 7.029,12.161 0,2.268 1.299,1.919 1.831,-0.49 0.157,-0.707 0.971,-3.362 1.812,-5.898 l 1.527,-4.612 2.419,2.912 c 1.33,1.602 2.998,4.743 3.706,6.981 1.229,3.885 3.159,5.555 3.159,2.734 0,-2.033 5.548,-9.324 6.618,-8.698 0.518,0.302 1.548,3.04 2.29,6.082 1.543,6.326 4.031,10.629 5.612,9.703 0.595,-0.348 0.826,-1.024 0.515,-1.501 -0.312,-0.478 0.966,-4.591 2.839,-9.141 1.874,-4.549 3.755,-9.13 4.181,-10.178 0.685,-1.686 1.303,-1.442 5.319,2.105 2.499,2.207 4.768,4.678 5.041,5.491 0.412,1.229 0.97,1.184 3.308,-0.266 3.268,-2.029 14.257,-5.297 15.105,-4.494 0.318,0.302 0.644,3.188 0.724,6.415 l 0.147,5.865 3.16,-0.655 c 1.737,-0.361 5.391,-0.338 8.12,0.049 l 4.961,0.704 -4.421,3.034 c -2.432,1.668 -4.891,3.827 -5.464,4.797 -0.61,1.034 -2.774,1.912 -5.227,2.12 -6.623,0.562 -18.363,7.147 -18.363,10.299 0,0.592 1.627,-0.415 3.614,-2.236 4.409,-4.041 10.534,-6.577 15.883,-6.577 h 4.003 l -2.476,3.293 c -1.423,1.892 -2.699,5.48 -2.998,8.433 -0.477,4.706 -0.974,5.454 -5.888,8.87 -2.951,2.052 -6.608,5.128 -8.124,6.835 L 66.374,8.536 64.967,4.852 c -0.774,-2.028 -1.72,-3.686 -2.102,-3.686 -0.382,0 -1.869,1.185 -3.305,2.633 -1.437,1.447 -2.9,2.627 -3.251,2.62 C 55.956,6.413 54.685,4.462 53.481,2.085 l -2.187,-4.321 -1.69,2.491 c -0.929,1.37 -3.125,3.794 -4.879,5.387 -1.754,1.591 -2.677,2.895 -2.05,2.895 0.626,0 2.791,-1.659 4.81,-3.687 l 3.672,-3.687 1.494,2.701 c 0.887,1.603 1.22,4.066 0.818,6.056 -0.585,2.902 -0.503,3.07 0.609,1.249 0.708,-1.158 2.856,-3.379 4.774,-4.935 l 3.487,-2.828 2.407,4.408 c 2.395,4.387 2.411,4.395 3.501,1.776 1.457,-3.504 12.003,-12.149 20.982,-17.199 1.383,-0.779 0.8,1.898 -1.755,8.054 -0.677,1.63 -1.231,4.57 -1.231,6.532 0,2.91 -0.84,4.206 -4.562,7.038 -5.374,4.089 -7.113,6.998 -8.125,13.595 -0.41,2.673 -1.351,5.646 -2.09,6.606 -1.097,1.425 -1.278,0.628 -0.985,-4.332 0.198,-3.344 -0.237,-7.501 -0.966,-9.238 l -1.326,-3.16 -1.025,2.633 c -0.563,1.447 -3.057,3.966 -5.541,5.595 -2.483,1.63 -4.227,3.236 -3.874,3.571 0.354,0.334 2.908,-1.151 5.679,-3.301 4.219,-3.274 5.149,-3.629 5.733,-2.186 0.687,1.694 -0.001,9.068 -1.327,14.221 -0.662,2.573 -0.605,2.559 2.569,-0.615 2.341,-2.34 3.636,-5.132 4.639,-10.003 1.273,-6.187 1.917,-7.217 7.638,-12.241 3.436,-3.016 6.426,-5.315 6.645,-5.108 0.218,0.207 0.652,8.01 0.963,17.343 0.597,17.893 -0.078,22.151 -4.387,27.679 l -2.214,2.841 3.481,3.754 c 4.54,4.898 6.625,8.824 7.529,14.18 l 0.737,4.357 -3.929,-3.72 c -3.216,-3.047 -4.752,-3.72 -8.478,-3.72 -3.689,0 -5.13,0.618 -7.616,3.267 -2.982,3.178 -8.267,6.237 -13.349,7.725 -1.878,0.55 -2.502,0.31 -2.502,-0.96 0,-0.931 -1.038,-3.617 -2.305,-5.971 l -2.305,-4.278 -4.828,4.773 c -2.962,2.927 -6.476,5.206 -9.092,5.894 -6.68,1.757 -7.042,1.582 -7.042,-3.396 0,-7.549 -3.223,-8.956 -9.024,-3.937 -4.423,3.825 -8.091,4.656 -16.477,3.734 L 2.01,78.906 3.176,75.981 c 0.972,-2.441 0.754,-3.47 -1.332,-6.244 -3.382,-4.499 -7.781,-6.448 -14.551,-6.448 -3.118,0 -7.021,-0.644 -8.672,-1.434 -1.651,-0.789 -5.754,-1.697 -9.117,-2.019 -3.363,-0.321 -6.947,-0.896 -7.966,-1.276 -1.593,-0.595 -1.767,-0.105 -1.255,3.518 0.786,5.545 -3.088,9.635 -9.124,9.635 -7.831,0 -11.443,-7.005 -8.377,-16.246 0.591,-1.779 1.363,-4.583 1.717,-6.233 0.366,-1.711 3.895,-6.253 8.215,-10.576 4.165,-4.167 8.101,-8.503 8.748,-9.636 0.645,-1.132 2.782,-2.95 4.747,-4.039 l 3.572,-1.979 -0.471,3.822 c -0.518,4.201 0.397,4.86 2.632,1.896 0.799,-1.06 2.829,-2.773 4.511,-3.807 2.649,-1.628 3.058,-1.661 3.058,-0.247 0,0.897 0.539,2.966 1.199,4.596 l 1.2,2.964 2.082,-4.033 c 1.146,-2.218 4.87,-7.259 8.277,-11.203 C -1.122,9.341 2.905,0.79 0.827,-1.179 c -0.843,-0.798 -3.122,-0.736 -7.846,0.213 -3.661,0.737 -8.19,1.125 -10.064,0.864 -3.826,-0.531 -4.128,-0.038 -1.774,2.91 2.484,3.11 2.088,3.623 -2.791,3.623 -5.646,0 -19.663,2.707 -25.043,4.836 -5.232,2.07 -6.439,1.554 -7.979,-3.408 -0.693,-2.233 -1.962,-6.28 -2.82,-8.993 l -1.56,-4.931 5.66,0.544 c 3.114,0.3 7.119,0.982 8.899,1.515 1.781,0.533 3.399,0.817 3.596,0.63 0.198,-0.187 -0.596,-2.114 -1.763,-4.282 l -2.123,-3.944 3.529,0.72 c 1.941,0.396 4.861,1.364 6.49,2.152 2.833,1.371 3.061,1.271 5.295,-2.316 2.748,-4.411 4.946,-4.23 5.435,0.447 0.504,4.836 2.095,4.121 5.087,-2.287 2.878,-6.162 5.872,-8.338 6.447,-4.685 0.19,1.213 1.74,3.187 3.444,4.387 3.447,2.428 6.043,1.7 7.532,-2.112 1.542,-3.945 -1.896,-8.013 -11.894,-14.073 -20.028,-12.141 -31.67,-28.744 -34.994,-49.907 -2.997,-19.089 6.365,-38.815 25.148,-52.982 8.989,-6.78 23.268,-13.935 22.361,-11.205 -3.854,11.596 -3.727,33.72 0.214,37.452 0.592,0.561 0.388,-1.748 -0.452,-5.13 -3.13,-12.597 -1.77,-22.634 6.252,-46.16 7.256,-21.277 6.251,-30.371 -4.017,-36.382 -3.298,-1.93 -5.422,-2.248 -14.289,-2.14 -9.622,0.116 -10.671,-0.077 -13.76,-2.538 -2.995,-2.387 -6.878,-10.223 -6.878,-13.88 0,-1.981 2.199,-1.719 6.522,0.777 z"
       style="fill:#000000;fill-opacity:1;fill-rule:nonzero;stroke:none"
       transform="matrix(1.3333333,0,0,-1.3333333,692.54947,322.94013)"
       clip-path="url(#clipPath14)" />
    <path
       id="path15"
       d="m 0,0 c 0.337,0.517 -0.408,3.122 -1.654,5.791 -1.944,4.162 -2.727,4.854 -5.495,4.854 -8.673,0 -22.617,3.876 -36.991,10.282 -8.3,3.7 -11.168,4.55 -12.163,3.607 -2.54,-2.405 1.681,-8.114 8.218,-11.115 5.799,-2.662 22.01,-5.934 29.404,-5.934 4.29,0 4.392,-0.193 1.951,-3.722 l -1.795,-2.595 4.852,-0.125 C -11.004,0.975 -7.318,0.557 -5.484,0.114 -0.72,-1.033 -0.675,-1.034 0,0 Z m -90.354,-56.991 c 0.623,0.589 0.352,1.496 -0.692,2.316 -2.286,1.797 -2.164,4.469 0.343,7.529 1.884,2.297 2.119,5.736 2.767,40.417 1.117,59.766 5.561,104.722 11.419,115.507 2.333,4.294 2.006,4.311 -4.021,0.21 -7.763,-5.282 -13.674,-12.16 -18.911,-22.006 -9.888,-18.589 -13.324,-43.598 -13.324,-96.982 0,-30.313 0.207,-34.278 1.933,-37.128 1.64,-2.706 1.728,-3.706 0.575,-6.597 -0.746,-1.874 -1.085,-3.665 -0.753,-3.979 2.208,-2.091 18.29,-1.536 20.664,0.713 z m 6.69,-9.276 c 10.754,4.788 11.684,16.859 1.544,20.028 -4.211,1.316 -6.898,0.607 -8.51,-2.245 -1.234,-2.184 -0.409,-6.154 1.279,-6.154 0.571,0 1.038,-0.735 1.038,-1.633 0,-4.192 -16.419,-6.091 -23.152,-2.678 -2.366,1.199 -3.396,4.311 -1.427,4.311 1.471,0 2.488,3.171 1.737,5.414 -1.025,3.056 -4.104,4.115 -8.572,2.947 -10.08,-2.636 -9.796,-14.481 0.466,-19.506 8.415,-4.122 26.863,-4.372 35.597,-0.484 z m -8.206,-11.945 c 0.387,2.566 -3.88,4.884 -12.272,6.665 -6.157,1.307 -8.873,0.566 -8.412,-2.296 0.252,-1.561 2.302,-2.703 8.119,-4.518 9.31,-2.905 12.11,-2.871 12.565,0.149 z m 5.89,-0.532 c 1.774,1.799 3.226,3.921 3.226,4.717 0,2.581 -7.008,-1.986 -7.901,-5.149 -1.071,-3.794 0.666,-3.634 4.675,0.432 z m -5.895,-7.928 c 0.34,2.253 -1.1,3.06 -12.86,7.198 -8.779,3.09 -12.665,1.633 -9.86,-3.697 0.978,-1.856 2.618,-2.704 6.297,-3.255 2.736,-0.41 6.476,-1.211 8.311,-1.781 4.901,-1.522 7.732,-0.985 8.112,1.535 z m 0,-8.457 c 0.239,1.579 -0.738,2.633 -3.666,3.955 -6.315,2.852 -13.866,4.173 -15.685,2.744 -3.349,-2.633 -1.117,-6.168 4.296,-6.803 2.18,-0.256 5.134,-0.92 6.567,-1.477 4.16,-1.616 8.116,-0.879 8.488,1.581 z m 6.007,-8.273 c 2.816,2.554 4.15,5.593 2.456,5.593 -1.949,0 -7.12,-4.64 -7.12,-6.389 0,-2.729 0.96,-2.565 4.664,0.796 z m -6.332,-0.256 c 0,2.799 -5.773,5.786 -12.678,6.56 -5.576,0.625 -5.667,0.59 -5.667,-2.195 0,-2.305 0.877,-3.212 4.725,-4.888 6.184,-2.692 13.62,-2.407 13.62,0.523 z m 53.679,-42.009 c 4.293,1.692 13.584,9.56 13.584,11.503 0,0.611 -2.564,3.432 -5.698,6.268 -6.596,5.967 -13.771,16.018 -15.63,21.895 -0.969,3.063 -5.653,8.309 -18.846,21.105 l -17.557,17.027 -5.06,-1.281 c -2.783,-0.705 -6.178,-1.299 -7.545,-1.32 -2.356,-0.036 -2.314,-0.171 0.818,-2.595 l 3.305,-2.557 4.633,2.57 c 4.491,2.493 4.65,2.508 5.204,0.502 0.325,-1.174 -0.375,-3.209 -1.617,-4.704 -1.203,-1.448 -1.889,-3.093 -1.524,-3.652 0.366,-0.561 -0.79,-1.732 -2.569,-2.603 -3.297,-1.614 -5.585,-6.929 -2.983,-6.929 2.34,0 7.502,6.369 6.907,8.522 -0.305,1.103 -0.157,2.237 0.327,2.521 2.01,1.176 1.885,-3.823 -0.158,-6.282 -1.203,-1.449 -1.889,-3.093 -1.524,-3.653 0.366,-0.56 -0.79,-1.731 -2.569,-2.602 -3.275,-1.604 -5.586,-6.929 -3.007,-6.929 2.527,0 7.604,6.085 6.975,8.361 -0.329,1.191 -0.201,2.398 0.283,2.682 1.354,0.792 2.084,-3.155 0.941,-5.088 -0.611,-1.036 -0.606,-2.45 0.015,-3.573 1.124,-2.031 -0.016,-5.933 -2.088,-7.146 -0.888,-0.52 -0.286,-1.539 1.868,-3.166 3.118,-2.355 3.178,-2.603 3.178,-12.991 0,-8.682 0.351,-10.923 1.945,-12.434 1.79,-1.696 1.946,-1.702 1.946,-0.076 0,1.776 3.118,3.948 5.669,3.948 0.753,0 5.454,-3.984 10.447,-8.853 5.024,-4.9 10.281,-9.068 11.769,-9.333 1.479,-0.264 3.081,-0.544 3.56,-0.623 0.477,-0.079 2.729,0.59 5.002,1.485 z m -61.525,-26.666 c 0.952,1.287 1.731,3.366 1.731,4.619 0,1.894 0.846,2.399 5.007,2.989 l 5.007,0.711 -3.34,2.661 c -3.966,3.162 -4.334,5.631 -0.837,5.637 3.482,0 9.38,3.616 10.277,6.291 0.416,1.244 0.154,2.905 -0.593,3.758 -1.953,2.229 -5.623,1.893 -6.305,-0.576 -0.733,-2.654 -1.959,-2.661 -4.74,-0.027 -4.184,3.962 -4.279,12.166 -0.195,16.942 1.925,2.251 1.908,2.398 -0.546,4.723 -2.64,2.5 -4.524,7.448 -3.285,8.622 0.395,0.374 2.48,0.076 4.635,-0.663 3.061,-1.047 4.27,-1.064 5.531,-0.072 3.82,3.003 -0.319,6.864 -6.446,6.012 -2.465,-0.343 -3.483,0 -3.838,1.279 -0.267,0.97 -2.424,2.237 -4.854,2.851 -4.342,1.097 -4.372,1.084 -4.372,-1.907 0,-3.278 -1.872,-3.897 -5.427,-1.793 -2.889,1.709 -5.691,0.381 -5.691,-2.695 0,-2.871 2.887,-4.287 8.06,-3.953 3.969,0.256 4.116,-2.695 0.347,-6.937 l -2.71,-3.05 2.147,-3.085 c 3.18,-4.568 2.912,-12.156 -0.562,-15.925 l -2.723,-2.954 -1.787,2.369 c -2.483,3.292 -5.879,3.071 -6.811,-0.442 -0.61,-2.302 -0.105,-3.353 2.776,-5.791 1.937,-1.639 4.764,-2.98 6.283,-2.98 3.76,0 3.613,-2.957 -0.295,-5.943 l -3.058,-2.337 4.725,-0.732 c 2.599,-0.404 4.726,-1.163 4.726,-1.686 0,-2.008 3.274,-8.255 4.327,-8.255 0.608,0 1.884,1.053 2.836,2.34 z m 228.928,-38.704 4.037,2.594 2.738,-2.594 c 3.589,-3.399 7.793,-3.323 11.243,0.203 1.506,1.538 2.858,2.605 3.004,2.369 0.148,-0.235 0.819,-1.376 1.492,-2.534 0.853,-1.466 2.607,-2.203 5.772,-2.427 3.813,-0.268 4.838,0.1 6.353,2.29 l 1.806,2.612 3.974,-2.554 c 10.878,-6.991 16.673,0.344 11.812,14.949 -2.472,7.426 -1.113,11.602 6.854,21.054 3.359,3.985 6.111,8.239 6.114,9.453 0,1.935 -0.621,2.194 -5.092,2.106 -4.279,-0.086 -5.531,0.374 -7.783,2.853 -3.663,4.033 -3.445,8.65 0.649,13.775 l 3.272,4.094 -5.804,3.939 c -3.192,2.166 -8.948,7.291 -12.792,11.389 -8.632,9.203 -17.12,13.568 -28.311,14.557 l -7.505,0.664 0.012,-5.68 c 0.014,-7.312 3.446,-14.347 12.813,-26.262 10.651,-13.548 11.395,-15.645 11.826,-33.353 l 0.364,-14.976 -3.082,-2.923 c -2.784,-2.643 -4.04,-2.98 -13.026,-3.498 -8.556,-0.494 -10.352,-0.935 -12.863,-3.16 -3.334,-2.953 -4.331,-4.56 -5.362,-8.639 -0.599,-2.377 -0.356,-2.896 1.36,-2.896 1.148,0 3.905,1.168 6.126,2.595 z M 51.387,57.694 c -1.627,1.541 -0.352,1.918 6.941,2.054 9.023,0.169 14.502,1.672 20.967,5.753 5.18,3.27 6.584,2.627 1.667,-0.764 -4.485,-3.092 -11.481,-5.47 -18.234,-6.198 -3.271,-0.351 -6.999,-0.84 -8.284,-1.084 -1.285,-0.244 -2.661,-0.136 -3.057,0.239 z M 0.143,44.572 c -2.341,3.164 -2.179,5.261 0.669,8.69 2.058,2.478 2.999,2.815 6.593,2.358 2.306,-0.293 7.267,-2.33 11.025,-4.527 4.341,-2.537 8.831,-4.237 12.308,-4.659 3.011,-0.367 5.475,-0.504 5.475,-0.307 0,0.197 -1.251,2.235 -2.78,4.528 -3.63,5.447 -3.506,6.032 0.588,2.769 4.204,-3.35 9.231,-4.329 20.466,-3.988 l 5.49,0.167 -3.185,3.148 c -4.453,4.401 -3.083,4.797 1.835,0.528 4.612,-4.004 4.324,-4.285 -5.385,-5.255 -4.125,-0.411 -8.561,-0.112 -12.249,0.826 -5.516,1.403 -5.731,1.381 -4.685,-0.468 0.601,-1.066 1.577,-1.938 2.167,-1.938 0.59,0 1.073,-0.541 1.073,-1.2 0,-2.03 -11.916,-0.245 -17.611,2.638 C 8.93,54.468 7.292,55.039 4.196,54.063 2.473,53.52 0.748,51.931 0.154,50.338 -1.828,45.026 5.706,40.896 8.813,45.593 9.714,46.954 9.504,47.885 7.921,49.541 5.753,51.81 5.956,52.133 8.883,51.069 10.96,50.314 11.239,45.326 9.307,43.496 7.096,41.401 2.049,41.994 0.143,44.572 Z m 83.741,-8.655 c -2.573,2.317 -4.345,4.528 -3.939,4.913 0.407,0.385 0.865,0.495 1.017,0.245 0.153,-0.25 2.256,-2.461 4.673,-4.913 5.565,-5.646 4.422,-5.807 -1.751,-0.245 z M 21.015,13.94 c -7.068,5.901 -8.14,7.251 -7.984,10.048 l 0.167,2.977 0.461,-2.875 c 0.269,-1.679 2.152,-4.194 4.524,-6.047 l 4.062,-3.171 2.496,2.888 c 1.373,1.588 2.515,3.479 2.537,4.203 0.058,1.888 0.397,1.729 5.181,-2.422 4.252,-3.689 4.318,-3.707 4.95,-1.316 0.353,1.332 0.228,3.84 -0.278,5.574 -1.389,4.764 -1.116,5.484 0.988,2.61 1.049,-1.431 2.735,-3.456 3.747,-4.498 1.763,-1.814 1.87,-1.792 2.526,0.526 0.377,1.333 0.691,3.77 0.7,5.417 l 0.015,2.995 3.833,-4.345 c 3.581,-4.059 3.911,-4.208 5.003,-2.275 0.644,1.139 1.178,3.878 1.188,6.088 0.012,2.855 0.312,3.576 1.038,2.489 1.213,-1.816 0.371,-6.758 -1.868,-10.969 L 52.694,18.814 50.585,22.1 c -2.697,4.201 -3.596,4.133 -5.326,-0.4 -1.636,-4.284 -2.699,-4.61 -4.293,-1.316 -1.032,2.132 -1.229,1.87 -1.96,-2.609 l -0.815,-4.976 -4.875,3.783 -4.876,3.784 -2.191,-2.492 C 25.043,16.504 24.04,14.79 24.021,14.066 23.976,12.497 22.803,12.448 21.016,13.94 Z m 29.651,-40.873 c 0,1.545 -4.537,5.732 -9.134,8.429 -3.609,2.119 -4.206,2.184 -4.214,0.455 -0.012,-2.623 -2.345,-9.213 -3.26,-9.213 -0.517,0 -1.282,1.288 -1.699,2.863 -0.417,1.573 -2.167,4.675 -3.888,6.892 l -3.131,4.032 -2.438,-3.735 c -2.272,-3.482 -6.209,-6.893 -7.956,-6.893 -0.417,0 -0.498,1.834 -0.18,4.076 0.344,2.434 0.078,4.367 -0.662,4.799 -0.682,0.4 -1.24,0.26 -1.24,-0.308 0,-1.313 -5.466,-7.514 -6.623,-7.514 -0.476,0 -1.143,1.777 -1.482,3.948 -0.339,2.172 -0.915,5.608 -1.28,7.634 -0.366,2.028 0.413,0.653 1.73,-3.054 l 2.394,-6.74 2.625,4.108 c 1.444,2.258 2.627,4.727 2.631,5.485 0,0.759 0.492,1.094 1.085,0.747 0.594,-0.348 1.42,-3.063 1.836,-6.035 l 0.757,-5.402 2.889,3.167 c 1.589,1.742 3.451,4.074 4.137,5.182 1.226,1.979 1.295,1.977 3.732,-0.09 1.366,-1.158 3.466,-3.928 4.666,-6.157 1.201,-2.227 2.344,-3.886 2.54,-3.684 0.196,0.2 0.637,2.497 0.978,5.103 0.341,2.606 0.646,4.834 0.677,4.952 0.17,0.647 8.701,-4.899 11.859,-7.708 2.028,-1.804 3.956,-3.028 4.281,-2.719 0.327,0.308 0.594,2.971 0.594,5.917 0,4.565 -0.485,5.789 -3.277,8.284 -3.21,2.87 -3.3,2.885 -4.486,0.786 -1.539,-2.724 -3.356,-2.763 -3.356,-0.072 0,1.963 -6.066,9.512 -7.644,9.512 -0.409,0 -1.688,-1.658 -2.84,-3.684 -1.152,-2.028 -2.391,-3.684 -2.754,-3.682 -1.556,0.01 -10.109,9.546 -10.105,11.267 0,1.369 0.576,1.018 2.076,-1.268 1.139,-1.737 3.415,-4.331 5.057,-5.764 3.326,-2.9 4.535,-2.195 5.818,3.395 0.365,1.593 1.001,2.895 1.411,2.895 1.422,0 8.867,-7.907 9.914,-10.529 l 1.052,-2.633 0.796,2.897 c 0.973,3.54 2.048,3.672 3.602,0.441 0.65,-1.349 3.857,-4.156 7.127,-6.236 l 5.947,-3.781 1.193,3.803 c 0.657,2.092 1.526,3.294 1.933,2.671 0.606,-0.928 -0.94,-7.231 -2.106,-8.588 -0.175,-0.203 -2.102,0.92 -4.282,2.495 l -3.965,2.864 -0.016,-5.127 c -0.01,-2.82 -0.316,-6.193 -0.685,-7.495 -0.721,-2.548 -2.635,-3.265 -2.635,-0.988 z m -77.975,-184.53 3.744,2.161 1.601,-2.165 c 2.133,-2.884 8.035,-2.851 11.952,0.067 l 2.995,2.231 2.508,-2.231 c 3.297,-2.934 9.455,-2.938 13.387,-0.01 2.752,2.05 3.136,2.091 4.956,0.531 1.085,-0.93 4.268,-1.988 7.072,-2.352 5.051,-0.656 5.127,-0.62 8.082,3.813 2.475,3.713 2.863,5.216 2.272,8.817 -0.392,2.388 -0.814,6.23 -0.938,8.539 -0.223,4.181 -0.199,4.208 5.891,6.328 3.362,1.171 7.256,2.742 8.65,3.49 2.433,1.306 9.138,9.186 9.138,10.739 0,0.412 -2.619,1.043 -5.821,1.401 -12.735,1.429 -14.892,8.268 -6.613,20.97 13.501,20.716 21.649,40.89 21.704,53.742 0.024,5.745 0.351,7.673 1.089,6.424 3.017,-5.105 -2.387,-26.511 -10.574,-41.882 l -3.296,-6.189 3.145,0.725 c 1.73,0.397 11.901,4.689 22.602,9.535 29.29,13.266 39.351,15.866 58.307,15.067 15.882,-0.668 22.644,-3.771 33.857,-15.531 5.941,-6.231 11.662,-10.689 22.13,-17.241 22.302,-13.959 23.232,-15.169 24.292,-31.585 1.075,-16.634 0.54,-17.536 -12.041,-20.316 -10.752,-2.376 -17.494,-7.388 -19.302,-14.352 -0.965,-3.72 1.067,-3.826 6.488,-0.343 l 3.973,2.554 1.767,-2.554 c 2.322,-3.357 7.259,-3.37 11.358,-0.03 l 3.097,2.522 3.166,-2.522 c 4.918,-3.919 11.459,-2.969 13.305,1.933 0.354,0.943 1.302,0.641 3.22,-1.026 3.593,-3.123 12.804,-4.463 13.799,-2.007 0.379,0.937 -0.341,3.251 -1.602,5.142 -5.36,8.036 -7.036,11.868 -7.106,16.243 -0.097,6.084 1.718,9.019 8.638,13.968 8.406,6.01 11.004,13.765 4.611,13.765 -3.947,0 -7.925,3.488 -10.464,9.174 -5.158,11.559 -4.147,24.515 3.595,46.069 7.863,21.895 8.737,25.932 8.768,40.575 0.025,11.838 -0.273,13.886 -2.966,20.377 -1.648,3.968 -4.989,9.877 -7.427,13.131 l -4.43,5.916 5.689,4.714 c 17.372,14.393 13.818,37.948 -7.095,47.024 -6.397,2.776 -7.996,3.021 -19.208,2.946 -6.726,-0.046 -16.983,-0.931 -22.792,-1.968 -5.923,-1.056 -15.949,-1.906 -22.826,-1.933 -10.925,-0.044 -12.779,0.225 -16.99,2.466 -4.39,2.337 -5.143,3.447 -6.002,8.847 -0.177,1.11 -0.953,2.218 -1.725,2.462 -1.494,0.471 -8.389,-5.515 -9.408,-8.166 -0.503,-1.308 -0.913,-1.217 -2.388,0.527 -0.979,1.159 -2.346,3.82 -3.039,5.914 -1.74,5.268 0.397,9.216 6.589,12.176 l 4.804,2.296 -2.833,1.758 c -5.846,3.627 -15.785,1.145 -19.379,-4.838 -1.018,-1.693 -2.126,-3.081 -2.465,-3.085 -0.339,-0.002 -2.271,1.611 -4.295,3.589 -7.548,7.374 -4.951,18.285 5.144,21.616 5.383,1.776 10.146,0.421 11.137,-3.168 1.513,-5.48 6.217,1.723 5.374,8.229 -0.561,4.325 -0.477,4.474 2.516,4.474 4.161,0 13.02,-5.462 15.76,-9.717 3.182,-4.944 2.95,-12.728 -0.552,-18.529 l -2.75,-4.555 3.598,0.72 c 5.274,1.057 10.398,4.332 12.991,8.305 2.74,4.199 3.035,12.377 0.604,16.79 -2.354,4.276 -2.084,4.955 1.398,3.51 5.921,-2.458 9.087,-5.169 11.462,-9.815 2.139,-4.183 2.258,-5.223 1.099,-9.578 -0.713,-2.686 -2.303,-6.221 -3.531,-7.854 -1.913,-2.544 -1.977,-2.97 -0.454,-2.97 2.838,0 8.763,2.685 10.867,4.926 1.064,1.132 2.614,3.918 3.446,6.192 l 1.511,4.136 1.737,-3.153 c 2.456,-4.457 7.231,-8.467 13.053,-10.963 6.262,-2.685 8.87,-2.836 5.595,-0.325 -2.208,1.694 -6.276,13.632 -5.044,14.8 0.726,0.688 9.228,-5.853 18.935,-14.568 9.182,-8.243 14.952,-10.943 23.385,-10.944 10.774,0 17.046,9.379 12.205,18.247 -2.824,5.169 -9.113,5.888 -12.789,1.461 -1.692,-2.037 -2.157,-3.657 -1.661,-5.792 0.607,-2.616 0.37,-2.964 -2.013,-2.964 -3.132,0 -9.305,4.006 -20.268,13.154 -16.718,13.95 -37.031,25.774 -51.698,30.094 -9.413,2.771 -29.522,3.853 -39.09,2.102 C 123.518,88.846 111.269,82.919 104.595,76.574 92.771,65.332 92.583,50.372 104.096,36.749 l 3.298,-3.902 -2.233,-3.469 c -3.248,-5.045 -2.97,-11.835 0.69,-16.836 1.612,-2.203 3.238,-4.004 3.614,-4.003 0.375,10e-4 0.786,1.417 0.914,3.147 0.323,4.376 2.201,7.307 5.425,8.468 2.903,1.045 4.78,0.552 18.074,-4.755 13.985,-5.582 36.985,-5.965 61.441,-1.024 11.99,2.422 26.127,2.279 32.347,-0.326 11.401,-4.777 14.043,-17.203 5.662,-26.636 -3.628,-4.083 -7.127,-5.746 -18.874,-8.97 -8.939,-2.454 -11.057,-2.616 -31.376,-2.414 -17.358,0.174 -23.597,-0.16 -30.682,-1.639 -7.694,-1.606 -12.425,-1.768 -35.022,-1.199 l -26.128,0.659 2.898,-2.4 c 1.593,-1.319 3.844,-2.942 5.002,-3.607 1.971,-1.131 1.906,-1.283 -1.023,-2.369 -1.722,-0.638 -5.542,-1.161 -8.49,-1.161 h -5.361 l -0.721,-4.555 c -0.397,-2.506 -0.366,-5.431 0.066,-6.5 0.64,-1.578 0.402,-1.805 -1.262,-1.2 -1.126,0.409 -4.266,1.215 -6.976,1.791 -2.711,0.575 -6.358,1.746 -8.108,2.602 -2.94,1.44 -3.266,1.402 -4.35,-0.515 -0.967,-1.711 -10.047,-8.469 -11.379,-8.469 -0.216,0 -0.493,1.303 -0.617,2.895 -0.124,1.592 -1.435,5.739 -2.911,9.213 -1.477,3.475 -3.019,7.266 -3.427,8.424 -0.615,1.747 -0.894,1.837 -1.636,0.526 -0.492,-0.869 -1.211,-3.238 -1.597,-5.264 -0.385,-2.028 -1.753,-5.321 -3.04,-7.318 l -2.338,-3.631 -1.493,3.105 c -1.6,3.333 -4.259,6.79 -5.221,6.79 -0.325,0 -0.879,-1.065 -1.23,-2.369 -0.734,-2.721 -7.038,-10.266 -8.578,-10.266 -0.566,0 -1.03,2.132 -1.03,4.739 0,2.605 -0.501,4.738 -1.112,4.738 -0.612,0 -1.112,-0.675 -1.112,-1.499 0,-2.003 -5.384,-7.978 -7.189,-7.978 -0.788,0 -2.056,-0.711 -2.818,-1.579 -1.984,-2.265 -3.608,-1.947 -2.773,0.543 0.391,1.167 0.137,3.892 -0.566,6.054 -0.702,2.163 -1.449,4.465 -1.659,5.115 -0.265,0.819 -2.194,0.602 -6.278,-0.707 -6.598,-2.115 -8.81,-1.741 -5.416,0.916 1.24,0.972 3.127,4.338 4.193,7.48 1.066,3.141 2.638,5.928 3.494,6.194 1.199,0.372 1.135,-0.087 -0.278,-1.998 -1.009,-1.364 -1.838,-3.204 -1.841,-4.089 0,-0.885 -0.763,-2.981 -1.688,-4.66 -0.924,-1.679 -1.505,-3.219 -1.291,-3.422 0.214,-0.202 2.724,0.751 5.579,2.12 l 5.189,2.488 0.022,-2.226 c 0.012,-1.224 0.637,-4.454 1.39,-7.177 l 1.368,-4.951 3.532,1.623 c 3.61,1.66 7.029,7.575 7.029,12.161 0,2.268 1.299,1.919 1.831,-0.49 0.157,-0.707 0.971,-3.362 1.812,-5.898 l 1.527,-4.612 2.419,2.912 c 1.33,1.602 2.998,4.743 3.706,6.981 1.229,3.885 3.159,5.555 3.159,2.734 0,-2.033 5.548,-9.324 6.618,-8.698 0.518,0.302 1.548,3.04 2.29,6.082 1.543,6.326 4.031,10.629 5.612,9.703 0.595,-0.348 0.826,-1.024 0.515,-1.501 -0.312,-0.478 0.966,-4.591 2.839,-9.141 1.874,-4.549 3.755,-9.13 4.181,-10.178 0.685,-1.686 1.303,-1.442 5.319,2.105 2.499,2.207 4.768,4.678 5.041,5.491 0.412,1.229 0.97,1.184 3.308,-0.266 3.268,-2.029 14.257,-5.297 15.105,-4.494 0.318,0.302 0.644,3.188 0.724,6.415 l 0.147,5.865 3.16,-0.655 c 1.737,-0.361 5.391,-0.338 8.12,0.049 l 4.961,0.704 -4.421,3.034 c -2.432,1.668 -4.891,3.827 -5.464,4.797 -0.61,1.034 -2.774,1.912 -5.227,2.12 -6.623,0.562 -18.363,7.147 -18.363,10.299 0,0.592 1.627,-0.415 3.614,-2.236 4.409,-4.041 10.534,-6.577 15.883,-6.577 h 4.003 l -2.476,3.293 c -1.423,1.892 -2.699,5.48 -2.998,8.433 -0.477,4.706 -0.974,5.454 -5.888,8.87 -2.951,2.052 -6.608,5.128 -8.124,6.835 L 66.374,8.536 64.967,4.852 c -0.774,-2.028 -1.72,-3.686 -2.102,-3.686 -0.382,0 -1.869,1.185 -3.305,2.633 -1.437,1.447 -2.9,2.627 -3.251,2.62 C 55.956,6.413 54.685,4.462 53.481,2.085 l -2.187,-4.321 -1.69,2.491 c -0.929,1.37 -3.125,3.794 -4.879,5.387 -1.754,1.591 -2.677,2.895 -2.05,2.895 0.626,0 2.791,-1.659 4.81,-3.687 l 3.672,-3.687 1.494,2.701 c 0.887,1.603 1.22,4.066 0.818,6.056 -0.585,2.902 -0.503,3.07 0.609,1.249 0.708,-1.158 2.856,-3.379 4.774,-4.935 l 3.487,-2.828 2.407,4.408 c 2.395,4.387 2.411,4.395 3.501,1.776 1.457,-3.504 12.003,-12.149 20.982,-17.199 1.383,-0.779 0.8,1.898 -1.755,8.054 -0.677,1.63 -1.231,4.57 -1.231,6.532 0,2.91 -0.84,4.206 -4.562,7.038 -5.374,4.089 -7.113,6.998 -8.125,13.595 -0.41,2.673 -1.351,5.646 -2.09,6.606 -1.097,1.425 -1.278,0.628 -0.985,-4.332 0.198,-3.344 -0.237,-7.501 -0.966,-9.238 l -1.326,-3.16 -1.025,2.633 c -0.563,1.447 -3.057,3.966 -5.541,5.595 -2.483,1.63 -4.227,3.236 -3.874,3.571 0.354,0.334 2.908,-1.151 5.679,-3.301 4.219,-3.274 5.149,-3.629 5.733,-2.186 0.687,1.694 -0.001,9.068 -1.327,14.221 -0.662,2.573 -0.605,2.559 2.569,-0.615 2.341,-2.34 3.636,-5.132 4.639,-10.003 1.273,-6.187 1.917,-7.217 7.638,-12.241 3.436,-3.016 6.426,-5.315 6.645,-5.108 0.218,0.207 0.652,8.01 0.963,17.343 0.597,17.893 -0.078,22.151 -4.387,27.679 l -2.214,2.841 3.481,3.754 c 4.54,4.898 6.625,8.824 7.529,14.18 l 0.737,4.357 -3.929,-3.72 c -3.216,-3.047 -4.752,-3.72 -8.478,-3.72 -3.689,0 -5.13,0.618 -7.616,3.267 -2.982,3.178 -8.267,6.237 -13.349,7.725 -1.878,0.55 -2.502,0.31 -2.502,-0.96 0,-0.931 -1.038,-3.617 -2.305,-5.971 l -2.305,-4.278 -4.828,4.773 c -2.962,2.927 -6.476,5.206 -9.092,5.894 -6.68,1.757 -7.042,1.582 -7.042,-3.396 0,-7.549 -3.223,-8.956 -9.024,-3.937 -4.423,3.825 -8.091,4.656 -16.477,3.734 L 2.01,78.906 3.176,75.981 c 0.972,-2.441 0.754,-3.47 -1.332,-6.244 -3.382,-4.499 -7.781,-6.448 -14.551,-6.448 -3.118,0 -7.021,-0.644 -8.672,-1.434 -1.651,-0.789 -5.754,-1.697 -9.117,-2.019 -3.363,-0.321 -6.947,-0.896 -7.966,-1.276 -1.593,-0.595 -1.767,-0.105 -1.255,3.518 0.786,5.545 -3.088,9.635 -9.124,9.635 -7.831,0 -11.443,-7.005 -8.377,-16.246 0.591,-1.779 1.363,-4.583 1.717,-6.233 0.366,-1.711 3.895,-6.253 8.215,-10.576 4.165,-4.167 8.101,-8.503 8.748,-9.636 0.645,-1.132 2.782,-2.95 4.747,-4.039 l 3.572,-1.979 -0.471,3.822 c -0.518,4.201 0.397,4.86 2.632,1.896 0.799,-1.06 2.829,-2.773 4.511,-3.807 2.649,-1.628 3.058,-1.661 3.058,-0.247 0,0.897 0.539,2.966 1.199,4.596 l 1.2,2.964 2.082,-4.033 c 1.146,-2.218 4.87,-7.259 8.277,-11.203 C -1.122,9.341 2.905,0.79 0.827,-1.179 c -0.843,-0.798 -3.122,-0.736 -7.846,0.213 -3.661,0.737 -8.19,1.125 -10.064,0.864 -3.826,-0.531 -4.128,-0.038 -1.774,2.91 2.484,3.11 2.088,3.623 -2.791,3.623 -5.646,0 -19.663,2.707 -25.043,4.836 -5.232,2.07 -6.439,1.554 -7.979,-3.408 -0.693,-2.233 -1.962,-6.28 -2.82,-8.993 l -1.56,-4.931 5.66,0.544 c 3.114,0.3 7.119,0.982 8.899,1.515 1.781,0.533 3.399,0.817 3.596,0.63 0.198,-0.187 -0.596,-2.114 -1.763,-4.282 l -2.123,-3.944 3.529,0.72 c 1.941,0.396 4.861,1.364 6.49,2.152 2.833,1.371 3.061,1.271 5.295,-2.316 2.748,-4.411 4.946,-4.23 5.435,0.447 0.504,4.836 2.095,4.121 5.087,-2.287 2.878,-6.162 5.872,-8.338 6.447,-4.685 0.19,1.213 1.74,3.187 3.444,4.387 3.447,2.428 6.043,1.7 7.532,-2.112 1.542,-3.945 -1.896,-8.013 -11.894,-14.073 -20.028,-12.141 -31.67,-28.744 -34.994,-49.907 -2.997,-19.089 6.365,-38.815 25.148,-52.982 8.989,-6.78 23.268,-13.935 22.361,-11.205 -3.854,11.596 -3.727,33.72 0.214,37.452 0.592,0.561 0.388,-1.748 -0.452,-5.13 -3.13,-12.597 -1.77,-22.634 6.252,-46.16 7.256,-21.277 6.251,-30.371 -4.017,-36.382 -3.298,-1.93 -5.422,-2.248 -14.289,-2.14 -9.622,0.116 -10.671,-0.077 -13.76,-2.538 -2.995,-2.387 -6.878,-10.223 -6.878,-13.88 0,-1.981 2.199,-1.719 6.522,0.777 z"
       style="fill:none;stroke:#000000;stroke-width:5.56;stroke-linecap:butt;stroke-linejoin:miter;stroke-miterlimit:4;stroke-dasharray:none;stroke-opacity:1"
       transform="matrix(1.3333333,0,0,-1.3333333,692.54947,322.94013)"
       clip-path="url(#clipPath16)" />
    <path
       id="path17"
       d="m 0,0 c 0.337,0.517 -0.408,3.122 -1.654,5.791 -1.944,4.162 -2.727,4.854 -5.495,4.854 -8.673,0 -22.617,3.876 -36.991,10.282 -8.3,3.7 -11.168,4.55 -12.163,3.607 -2.54,-2.405 1.681,-8.114 8.218,-11.115 5.799,-2.662 22.01,-5.934 29.404,-5.934 4.29,0 4.392,-0.193 1.951,-3.722 l -1.795,-2.595 4.852,-0.125 C -11.004,0.975 -7.318,0.557 -5.484,0.114 -0.72,-1.033 -0.675,-1.034 0,0 m -90.354,-56.991 c 0.623,0.589 0.352,1.496 -0.692,2.316 -2.286,1.797 -2.164,4.469 0.343,7.529 1.884,2.297 2.119,5.736 2.767,40.417 1.117,59.766 5.561,104.722 11.419,115.507 2.333,4.294 2.006,4.311 -4.021,0.21 -7.763,-5.282 -13.674,-12.16 -18.911,-22.006 -9.888,-18.589 -13.324,-43.598 -13.324,-96.982 0,-30.313 0.207,-34.278 1.933,-37.128 1.64,-2.706 1.728,-3.706 0.575,-6.597 -0.746,-1.874 -1.085,-3.665 -0.753,-3.979 2.208,-2.091 18.29,-1.536 20.664,0.713 m 6.69,-9.276 c 10.754,4.788 11.684,16.859 1.544,20.028 -4.211,1.316 -6.898,0.607 -8.51,-2.245 -1.234,-2.184 -0.409,-6.154 1.279,-6.154 0.571,0 1.038,-0.735 1.038,-1.633 0,-4.192 -16.419,-6.091 -23.152,-2.678 -2.366,1.199 -3.396,4.311 -1.427,4.311 1.471,0 2.488,3.171 1.737,5.414 -1.025,3.056 -4.104,4.115 -8.572,2.947 -10.08,-2.636 -9.796,-14.481 0.466,-19.506 8.415,-4.122 26.863,-4.372 35.597,-0.484 m -8.206,-11.945 c 0.387,2.566 -3.88,4.884 -12.272,6.665 -6.157,1.307 -8.873,0.566 -8.412,-2.296 0.252,-1.561 2.302,-2.703 8.119,-4.518 9.31,-2.905 12.11,-2.871 12.565,0.149 m 5.89,-0.532 c 1.774,1.799 3.226,3.921 3.226,4.717 0,2.581 -7.008,-1.986 -7.901,-5.149 -1.071,-3.794 0.666,-3.634 4.675,0.432 m -5.895,-7.928 c 0.34,2.253 -1.1,3.06 -12.86,7.198 -8.779,3.09 -12.665,1.633 -9.86,-3.697 0.978,-1.856 2.618,-2.704 6.297,-3.255 2.736,-0.41 6.476,-1.211 8.311,-1.781 4.901,-1.522 7.732,-0.985 8.112,1.535 m 0,-8.457 c 0.239,1.579 -0.738,2.633 -3.666,3.955 -6.315,2.852 -13.866,4.173 -15.685,2.744 -3.349,-2.633 -1.117,-6.168 4.296,-6.803 2.18,-0.256 5.134,-0.92 6.567,-1.477 4.16,-1.616 8.116,-0.879 8.488,1.581 m 6.007,-8.273 c 2.816,2.554 4.15,5.593 2.456,5.593 -1.949,0 -7.12,-4.64 -7.12,-6.389 0,-2.729 0.96,-2.565 4.664,0.796 m -6.332,-0.256 c 0,2.799 -5.773,5.786 -12.678,6.56 -5.576,0.625 -5.667,0.59 -5.667,-2.195 0,-2.305 0.877,-3.212 4.725,-4.888 6.184,-2.692 13.62,-2.407 13.62,0.523 m 53.679,-42.009 c 4.293,1.692 13.584,9.56 13.584,11.503 0,0.611 -2.564,3.432 -5.698,6.268 -6.596,5.967 -13.771,16.018 -15.63,21.895 -0.969,3.063 -5.653,8.309 -18.846,21.105 l -17.557,17.027 -5.06,-1.281 c -2.783,-0.705 -6.178,-1.299 -7.545,-1.32 -2.356,-0.036 -2.314,-0.171 0.818,-2.595 l 3.305,-2.557 4.633,2.57 c 4.491,2.493 4.65,2.508 5.204,0.502 0.325,-1.174 -0.375,-3.209 -1.617,-4.704 -1.203,-1.448 -1.889,-3.093 -1.524,-3.652 0.366,-0.561 -0.79,-1.732 -2.569,-2.603 -3.297,-1.614 -5.585,-6.929 -2.983,-6.929 2.34,0 7.502,6.369 6.907,8.522 -0.305,1.103 -0.157,2.237 0.327,2.521 2.01,1.176 1.885,-3.823 -0.158,-6.282 -1.203,-1.449 -1.889,-3.093 -1.524,-3.653 0.366,-0.56 -0.79,-1.731 -2.569,-2.602 -3.275,-1.604 -5.586,-6.929 -3.007,-6.929 2.527,0 7.604,6.085 6.975,8.361 -0.329,1.191 -0.201,2.398 0.283,2.682 1.354,0.792 2.084,-3.155 0.941,-5.088 -0.611,-1.036 -0.606,-2.45 0.015,-3.573 1.124,-2.031 -0.016,-5.933 -2.088,-7.146 -0.888,-0.52 -0.286,-1.539 1.868,-3.166 3.118,-2.355 3.178,-2.603 3.178,-12.991 0,-8.682 0.351,-10.923 1.945,-12.434 1.79,-1.696 1.946,-1.702 1.946,-0.076 0,1.776 3.118,3.948 5.669,3.948 0.753,0 5.454,-3.984 10.447,-8.853 5.024,-4.9 10.281,-9.068 11.769,-9.333 1.479,-0.264 3.081,-0.544 3.56,-0.623 0.477,-0.079 2.729,0.59 5.002,1.485 z m -61.525,-26.666 c 0.952,1.287 1.731,3.366 1.731,4.619 0,1.894 0.846,2.399 5.007,2.989 l 5.007,0.711 -3.34,2.661 c -3.966,3.162 -4.334,5.631 -0.837,5.637 3.482,0 9.38,3.616 10.277,6.291 0.416,1.244 0.154,2.905 -0.593,3.758 -1.953,2.229 -5.623,1.893 -6.305,-0.576 -0.733,-2.654 -1.959,-2.661 -4.74,-0.027 -4.184,3.962 -4.279,12.166 -0.195,16.942 1.925,2.251 1.908,2.398 -0.546,4.723 -2.64,2.5 -4.524,7.448 -3.285,8.622 0.395,0.374 2.48,0.076 4.635,-0.663 3.061,-1.047 4.27,-1.064 5.531,-0.072 3.82,3.003 -0.319,6.864 -6.446,6.012 -2.465,-0.343 -3.483,0 -3.838,1.279 -0.267,0.97 -2.424,2.237 -4.854,2.851 -4.342,1.097 -4.372,1.084 -4.372,-1.907 0,-3.278 -1.872,-3.897 -5.427,-1.793 -2.889,1.709 -5.691,0.381 -5.691,-2.695 0,-2.871 2.887,-4.287 8.06,-3.953 3.969,0.256 4.116,-2.695 0.347,-6.937 l -2.71,-3.05 2.147,-3.085 c 3.18,-4.568 2.912,-12.156 -0.562,-15.925 l -2.723,-2.954 -1.787,2.369 c -2.483,3.292 -5.879,3.071 -6.811,-0.442 -0.61,-2.302 -0.105,-3.353 2.776,-5.791 1.937,-1.639 4.764,-2.98 6.283,-2.98 3.76,0 3.613,-2.957 -0.295,-5.943 l -3.058,-2.337 4.725,-0.732 c 2.599,-0.404 4.726,-1.163 4.726,-1.686 0,-2.008 3.274,-8.255 4.327,-8.255 0.608,0 1.884,1.053 2.836,2.34 z m 228.928,-38.704 4.037,2.594 2.738,-2.594 c 3.589,-3.399 7.793,-3.323 11.243,0.203 1.506,1.538 2.858,2.605 3.004,2.369 0.148,-0.235 0.819,-1.376 1.492,-2.534 0.853,-1.466 2.607,-2.203 5.772,-2.427 3.813,-0.268 4.838,0.1 6.353,2.29 l 1.806,2.612 3.974,-2.554 c 10.878,-6.991 16.673,0.344 11.812,14.949 -2.472,7.426 -1.113,11.602 6.854,21.054 3.359,3.985 6.111,8.239 6.114,9.453 0,1.935 -0.621,2.194 -5.092,2.106 -4.279,-0.086 -5.531,0.374 -7.783,2.853 -3.663,4.033 -3.445,8.65 0.649,13.775 l 3.272,4.094 -5.804,3.939 c -3.192,2.166 -8.948,7.291 -12.792,11.389 -8.632,9.203 -17.12,13.568 -28.311,14.557 l -7.505,0.664 0.012,-5.68 c 0.014,-7.312 3.446,-14.347 12.813,-26.262 10.651,-13.548 11.395,-15.645 11.826,-33.353 l 0.364,-14.976 -3.082,-2.923 c -2.784,-2.643 -4.04,-2.98 -13.026,-3.498 -8.556,-0.494 -10.352,-0.935 -12.863,-3.16 -3.334,-2.953 -4.331,-4.56 -5.362,-8.639 -0.599,-2.377 -0.356,-2.896 1.36,-2.896 1.148,0 3.905,1.168 6.126,2.595 z M 51.387,57.694 c -1.627,1.541 -0.352,1.918 6.941,2.054 9.023,0.169 14.502,1.672 20.967,5.753 5.18,3.27 6.584,2.627 1.667,-0.764 -4.485,-3.092 -11.481,-5.47 -18.234,-6.198 -3.271,-0.351 -6.999,-0.84 -8.284,-1.084 -1.285,-0.244 -2.661,-0.136 -3.057,0.239 M 0.143,44.572 c -2.341,3.164 -2.179,5.261 0.669,8.69 2.058,2.478 2.999,2.815 6.593,2.358 2.306,-0.293 7.267,-2.33 11.025,-4.527 4.341,-2.537 8.831,-4.237 12.308,-4.659 3.011,-0.367 5.475,-0.504 5.475,-0.307 0,0.197 -1.251,2.235 -2.78,4.528 -3.63,5.447 -3.506,6.032 0.588,2.769 4.204,-3.35 9.231,-4.329 20.466,-3.988 l 5.49,0.167 -3.185,3.148 c -4.453,4.401 -3.083,4.797 1.835,0.528 4.612,-4.004 4.324,-4.285 -5.385,-5.255 -4.125,-0.411 -8.561,-0.112 -12.249,0.826 -5.516,1.403 -5.731,1.381 -4.685,-0.468 0.601,-1.066 1.577,-1.938 2.167,-1.938 0.59,0 1.073,-0.541 1.073,-1.2 0,-2.03 -11.916,-0.245 -17.611,2.638 C 8.93,54.468 7.292,55.039 4.196,54.063 2.473,53.52 0.748,51.931 0.154,50.338 -1.828,45.026 5.706,40.896 8.813,45.593 9.714,46.954 9.504,47.885 7.921,49.541 5.753,51.81 5.956,52.133 8.883,51.069 10.96,50.314 11.239,45.326 9.307,43.496 7.096,41.401 2.049,41.994 0.143,44.572 m 83.741,-8.655 c -2.573,2.317 -4.345,4.528 -3.939,4.913 0.407,0.385 0.865,0.495 1.017,0.245 0.153,-0.25 2.256,-2.461 4.673,-4.913 5.565,-5.646 4.422,-5.807 -1.751,-0.245 M 21.015,13.94 c -7.068,5.901 -8.14,7.251 -7.984,10.048 l 0.167,2.977 0.461,-2.875 c 0.269,-1.679 2.152,-4.194 4.524,-6.047 l 4.062,-3.171 2.496,2.888 c 1.373,1.588 2.515,3.479 2.537,4.203 0.058,1.888 0.397,1.729 5.181,-2.422 4.252,-3.689 4.318,-3.707 4.95,-1.316 0.353,1.332 0.228,3.84 -0.278,5.574 -1.389,4.764 -1.116,5.484 0.988,2.61 1.049,-1.431 2.735,-3.456 3.747,-4.498 1.763,-1.814 1.87,-1.792 2.526,0.526 0.377,1.333 0.691,3.77 0.7,5.417 l 0.015,2.995 3.833,-4.345 c 3.581,-4.059 3.911,-4.208 5.003,-2.275 0.644,1.139 1.178,3.878 1.188,6.088 0.012,2.855 0.312,3.576 1.038,2.489 1.213,-1.816 0.371,-6.758 -1.868,-10.969 L 52.694,18.814 50.585,22.1 c -2.697,4.201 -3.596,4.133 -5.326,-0.4 -1.636,-4.284 -2.699,-4.61 -4.293,-1.316 -1.032,2.132 -1.229,1.87 -1.96,-2.609 l -0.815,-4.976 -4.875,3.783 -4.876,3.784 -2.191,-2.492 C 25.043,16.504 24.04,14.79 24.021,14.066 23.976,12.497 22.803,12.448 21.016,13.94 Z m 29.651,-40.873 c 0,1.545 -4.537,5.732 -9.134,8.429 -3.609,2.119 -4.206,2.184 -4.214,0.455 -0.012,-2.623 -2.345,-9.213 -3.26,-9.213 -0.517,0 -1.282,1.288 -1.699,2.863 -0.417,1.573 -2.167,4.675 -3.888,6.892 l -3.131,4.032 -2.438,-3.735 c -2.272,-3.482 -6.209,-6.893 -7.956,-6.893 -0.417,0 -0.498,1.834 -0.18,4.076 0.344,2.434 0.078,4.367 -0.662,4.799 -0.682,0.4 -1.24,0.26 -1.24,-0.308 0,-1.313 -5.466,-7.514 -6.623,-7.514 -0.476,0 -1.143,1.777 -1.482,3.948 -0.339,2.172 -0.915,5.608 -1.28,7.634 -0.366,2.028 0.413,0.653 1.73,-3.054 l 2.394,-6.74 2.625,4.108 c 1.444,2.258 2.627,4.727 2.631,5.485 0,0.759 0.492,1.094 1.085,0.747 0.594,-0.348 1.42,-3.063 1.836,-6.035 l 0.757,-5.402 2.889,3.167 c 1.589,1.742 3.451,4.074 4.137,5.182 1.226,1.979 1.295,1.977 3.732,-0.09 1.366,-1.158 3.466,-3.928 4.666,-6.157 1.201,-2.227 2.344,-3.886 2.54,-3.684 0.196,0.2 0.637,2.497 0.978,5.103 0.341,2.606 0.646,4.834 0.677,4.952 0.17,0.647 8.701,-4.899 11.859,-7.708 2.028,-1.804 3.956,-3.028 4.281,-2.719 0.327,0.308 0.594,2.971 0.594,5.917 0,4.565 -0.485,5.789 -3.277,8.284 -3.21,2.87 -3.3,2.885 -4.486,0.786 -1.539,-2.724 -3.356,-2.763 -3.356,-0.072 0,1.963 -6.066,9.512 -7.644,9.512 -0.409,0 -1.688,-1.658 -2.84,-3.684 -1.152,-2.028 -2.391,-3.684 -2.754,-3.682 -1.556,0.01 -10.109,9.546 -10.105,11.267 0,1.369 0.576,1.018 2.076,-1.268 1.139,-1.737 3.415,-4.331 5.057,-5.764 3.326,-2.9 4.535,-2.195 5.818,3.395 0.365,1.593 1.001,2.895 1.411,2.895 1.422,0 8.867,-7.907 9.914,-10.529 l 1.052,-2.633 0.796,2.897 c 0.973,3.54 2.048,3.672 3.602,0.441 0.65,-1.349 3.857,-4.156 7.127,-6.236 l 5.947,-3.781 1.193,3.803 c 0.657,2.092 1.526,3.294 1.933,2.671 0.606,-0.928 -0.94,-7.231 -2.106,-8.588 -0.175,-0.203 -2.102,0.92 -4.282,2.495 l -3.965,2.864 -0.016,-5.127 c -0.01,-2.82 -0.316,-6.193 -0.685,-7.495 -0.721,-2.548 -2.635,-3.265 -2.635,-0.988 z m -77.975,-184.53 3.744,2.161 1.601,-2.165 c 2.133,-2.884 8.035,-2.851 11.952,0.067 l 2.995,2.231 2.508,-2.231 c 3.297,-2.934 9.455,-2.938 13.387,-0.01 2.752,2.05 3.136,2.091 4.956,0.531 1.085,-0.93 4.268,-1.988 7.072,-2.352 5.051,-0.656 5.127,-0.62 8.082,3.813 2.475,3.713 2.863,5.216 2.272,8.817 -0.392,2.388 -0.814,6.23 -0.938,8.539 -0.223,4.181 -0.199,4.208 5.891,6.328 3.362,1.171 7.256,2.742 8.65,3.49 2.433,1.306 9.138,9.186 9.138,10.739 0,0.412 -2.619,1.043 -5.821,1.401 -12.735,1.429 -14.892,8.268 -6.613,20.97 13.501,20.716 21.649,40.89 21.704,53.742 0.024,5.745 0.351,7.673 1.089,6.424 3.017,-5.105 -2.387,-26.511 -10.574,-41.882 l -3.296,-6.189 3.145,0.725 c 1.73,0.397 11.901,4.689 22.602,9.535 29.29,13.266 39.351,15.866 58.307,15.067 15.882,-0.668 22.644,-3.771 33.857,-15.531 5.941,-6.231 11.662,-10.689 22.13,-17.241 22.302,-13.959 23.232,-15.169 24.292,-31.585 1.075,-16.634 0.54,-17.536 -12.041,-20.316 -10.752,-2.376 -17.494,-7.388 -19.302,-14.352 -0.965,-3.72 1.067,-3.826 6.488,-0.343 l 3.973,2.554 1.767,-2.554 c 2.322,-3.357 7.259,-3.37 11.358,-0.03 l 3.097,2.522 3.166,-2.522 c 4.918,-3.919 11.459,-2.969 13.305,1.933 0.354,0.943 1.302,0.641 3.22,-1.026 3.593,-3.123 12.804,-4.463 13.799,-2.007 0.379,0.937 -0.341,3.251 -1.602,5.142 -5.36,8.036 -7.036,11.868 -7.106,16.243 -0.097,6.084 1.718,9.019 8.638,13.968 8.406,6.01 11.004,13.765 4.611,13.765 -3.947,0 -7.925,3.488 -10.464,9.174 -5.158,11.559 -4.147,24.515 3.595,46.069 7.863,21.895 8.737,25.932 8.768,40.575 0.025,11.838 -0.273,13.886 -2.966,20.377 -1.648,3.968 -4.989,9.877 -7.427,13.131 l -4.43,5.916 5.689,4.714 c 17.372,14.393 13.818,37.948 -7.095,47.024 -6.397,2.776 -7.996,3.021 -19.208,2.946 -6.726,-0.046 -16.983,-0.931 -22.792,-1.968 -5.923,-1.056 -15.949,-1.906 -22.826,-1.933 -10.925,-0.044 -12.779,0.225 -16.99,2.466 -4.39,2.337 -5.143,3.447 -6.002,8.847 -0.177,1.11 -0.953,2.218 -1.725,2.462 -1.494,0.471 -8.389,-5.515 -9.408,-8.166 -0.503,-1.308 -0.913,-1.217 -2.388,0.527 -0.979,1.159 -2.346,3.82 -3.039,5.914 -1.74,5.268 0.397,9.216 6.589,12.176 l 4.804,2.296 -2.833,1.758 c -5.846,3.627 -15.785,1.145 -19.379,-4.838 -1.018,-1.693 -2.126,-3.081 -2.465,-3.085 -0.339,-0.002 -2.271,1.611 -4.295,3.589 -7.548,7.374 -4.951,18.285 5.144,21.616 5.383,1.776 10.146,0.421 11.137,-3.168 1.513,-5.48 6.217,1.723 5.374,8.229 -0.561,4.325 -0.477,4.474 2.516,4.474 4.161,0 13.02,-5.462 15.76,-9.717 3.182,-4.944 2.95,-12.728 -0.552,-18.529 l -2.75,-4.555 3.598,0.72 c 5.274,1.057 10.398,4.332 12.991,8.305 2.74,4.199 3.035,12.377 0.604,16.79 -2.354,4.276 -2.084,4.955 1.398,3.51 5.921,-2.458 9.087,-5.169 11.462,-9.815 2.139,-4.183 2.258,-5.223 1.099,-9.578 -0.713,-2.686 -2.303,-6.221 -3.531,-7.854 -1.913,-2.544 -1.977,-2.97 -0.454,-2.97 2.838,0 8.763,2.685 10.867,4.926 1.064,1.132 2.614,3.918 3.446,6.192 l 1.511,4.136 1.737,-3.153 c 2.456,-4.457 7.231,-8.467 13.053,-10.963 6.262,-2.685 8.87,-2.836 5.595,-0.325 -2.208,1.694 -6.276,13.632 -5.044,14.8 0.726,0.688 9.228,-5.853 18.935,-14.568 9.182,-8.243 14.952,-10.943 23.385,-10.944 10.774,0 17.046,9.379 12.205,18.247 -2.824,5.169 -9.113,5.888 -12.789,1.461 -1.692,-2.037 -2.157,-3.657 -1.661,-5.792 0.607,-2.616 0.37,-2.964 -2.013,-2.964 -3.132,0 -9.305,4.006 -20.268,13.154 -16.718,13.95 -37.031,25.774 -51.698,30.094 -9.413,2.771 -29.522,3.853 -39.09,2.102 C 123.518,88.846 111.269,82.919 104.595,76.574 92.771,65.332 92.583,50.372 104.096,36.749 l 3.298,-3.902 -2.233,-3.469 c -3.248,-5.045 -2.97,-11.835 0.69,-16.836 1.612,-2.203 3.238,-4.004 3.614,-4.003 0.375,10e-4 0.786,1.417 0.914,3.147 0.323,4.376 2.201,7.307 5.425,8.468 2.903,1.045 4.78,0.552 18.074,-4.755 13.985,-5.582 36.985,-5.965 61.441,-1.024 11.99,2.422 26.127,2.279 32.347,-0.326 11.401,-4.777 14.043,-17.203 5.662,-26.636 -3.628,-4.083 -7.127,-5.746 -18.874,-8.97 -8.939,-2.454 -11.057,-2.616 -31.376,-2.414 -17.358,0.174 -23.597,-0.16 -30.682,-1.639 -7.694,-1.606 -12.425,-1.768 -35.022,-1.199 l -26.128,0.659 2.898,-2.4 c 1.593,-1.319 3.844,-2.942 5.002,-3.607 1.971,-1.131 1.906,-1.283 -1.023,-2.369 -1.722,-0.638 -5.542,-1.161 -8.49,-1.161 h -5.361 l -0.721,-4.555 c -0.397,-2.506 -0.366,-5.431 0.066,-6.5 0.64,-1.578 0.402,-1.805 -1.262,-1.2 -1.126,0.409 -4.266,1.215 -6.976,1.791 -2.711,0.575 -6.358,1.746 -8.108,2.602 -2.94,1.44 -3.266,1.402 -4.35,-0.515 -0.967,-1.711 -10.047,-8.469 -11.379,-8.469 -0.216,0 -0.493,1.303 -0.617,2.895 -0.124,1.592 -1.435,5.739 -2.911,9.213 -1.477,3.475 -3.019,7.266 -3.427,8.424 -0.615,1.747 -0.894,1.837 -1.636,0.526 -0.492,-0.869 -1.211,-3.238 -1.597,-5.264 -0.385,-2.028 -1.753,-5.321 -3.04,-7.318 l -2.338,-3.631 -1.493,3.105 c -1.6,3.333 -4.259,6.79 -5.221,6.79 -0.325,0 -0.879,-1.065 -1.23,-2.369 -0.734,-2.721 -7.038,-10.266 -8.578,-10.266 -0.566,0 -1.03,2.132 -1.03,4.739 0,2.605 -0.501,4.738 -1.112,4.738 -0.612,0 -1.112,-0.675 -1.112,-1.499 0,-2.003 -5.384,-7.978 -7.189,-7.978 -0.788,0 -2.056,-0.711 -2.818,-1.579 -1.984,-2.265 -3.608,-1.947 -2.773,0.543 0.391,1.167 0.137,3.892 -0.566,6.054 -0.702,2.163 -1.449,4.465 -1.659,5.115 -0.265,0.819 -2.194,0.602 -6.278,-0.707 -6.598,-2.115 -8.81,-1.741 -5.416,0.916 1.24,0.972 3.127,4.338 4.193,7.48 1.066,3.141 2.638,5.928 3.494,6.194 1.199,0.372 1.135,-0.087 -0.278,-1.998 -1.009,-1.364 -1.838,-3.204 -1.841,-4.089 0,-0.885 -0.763,-2.981 -1.688,-4.66 -0.924,-1.679 -1.505,-3.219 -1.291,-3.422 0.214,-0.202 2.724,0.751 5.579,2.12 l 5.189,2.488 0.022,-2.226 c 0.012,-1.224 0.637,-4.454 1.39,-7.177 l 1.368,-4.951 3.532,1.623 c 3.61,1.66 7.029,7.575 7.029,12.161 0,2.268 1.299,1.919 1.831,-0.49 0.157,-0.707 0.971,-3.362 1.812,-5.898 l 1.527,-4.612 2.419,2.912 c 1.33,1.602 2.998,4.743 3.706,6.981 1.229,3.885 3.159,5.555 3.159,2.734 0,-2.033 5.548,-9.324 6.618,-8.698 0.518,0.302 1.548,3.04 2.29,6.082 1.543,6.326 4.031,10.629 5.612,9.703 0.595,-0.348 0.826,-1.024 0.515,-1.501 -0.312,-0.478 0.966,-4.591 2.839,-9.141 1.874,-4.549 3.755,-9.13 4.181,-10.178 0.685,-1.686 1.303,-1.442 5.319,2.105 2.499,2.207 4.768,4.678 5.041,5.491 0.412,1.229 0.97,1.184 3.308,-0.266 3.268,-2.029 14.257,-5.297 15.105,-4.494 0.318,0.302 0.644,3.188 0.724,6.415 l 0.147,5.865 3.16,-0.655 c 1.737,-0.361 5.391,-0.338 8.12,0.049 l 4.961,0.704 -4.421,3.034 c -2.432,1.668 -4.891,3.827 -5.464,4.797 -0.61,1.034 -2.774,1.912 -5.227,2.12 -6.623,0.562 -18.363,7.147 -18.363,10.299 0,0.592 1.627,-0.415 3.614,-2.236 4.409,-4.041 10.534,-6.577 15.883,-6.577 h 4.003 l -2.476,3.293 c -1.423,1.892 -2.699,5.48 -2.998,8.433 -0.477,4.706 -0.974,5.454 -5.888,8.87 -2.951,2.052 -6.608,5.128 -8.124,6.835 L 66.374,8.536 64.967,4.852 c -0.774,-2.028 -1.72,-3.686 -2.102,-3.686 -0.382,0 -1.869,1.185 -3.305,2.633 -1.437,1.447 -2.9,2.627 -3.251,2.62 C 55.956,6.413 54.685,4.462 53.481,2.085 l -2.187,-4.321 -1.69,2.491 c -0.929,1.37 -3.125,3.794 -4.879,5.387 -1.754,1.591 -2.677,2.895 -2.05,2.895 0.626,0 2.791,-1.659 4.81,-3.687 l 3.672,-3.687 1.494,2.701 c 0.887,1.603 1.22,4.066 0.818,6.056 -0.585,2.902 -0.503,3.07 0.609,1.249 0.708,-1.158 2.856,-3.379 4.774,-4.935 l 3.487,-2.828 2.407,4.408 c 2.395,4.387 2.411,4.395 3.501,1.776 1.457,-3.504 12.003,-12.149 20.982,-17.199 1.383,-0.779 0.8,1.898 -1.755,8.054 -0.677,1.63 -1.231,4.57 -1.231,6.532 0,2.91 -0.84,4.206 -4.562,7.038 -5.374,4.089 -7.113,6.998 -8.125,13.595 -0.41,2.673 -1.351,5.646 -2.09,6.606 -1.097,1.425 -1.278,0.628 -0.985,-4.332 0.198,-3.344 -0.237,-7.501 -0.966,-9.238 l -1.326,-3.16 -1.025,2.633 c -0.563,1.447 -3.057,3.966 -5.541,5.595 -2.483,1.63 -4.227,3.236 -3.874,3.571 0.354,0.334 2.908,-1.151 5.679,-3.301 4.219,-3.274 5.149,-3.629 5.733,-2.186 0.687,1.694 -0.001,9.068 -1.327,14.221 -0.662,2.573 -0.605,2.559 2.569,-0.615 2.341,-2.34 3.636,-5.132 4.639,-10.003 1.273,-6.187 1.917,-7.217 7.638,-12.241 3.436,-3.016 6.426,-5.315 6.645,-5.108 0.218,0.207 0.652,8.01 0.963,17.343 0.597,17.893 -0.078,22.151 -4.387,27.679 l -2.214,2.841 3.481,3.754 c 4.54,4.898 6.625,8.824 7.529,14.18 l 0.737,4.357 -3.929,-3.72 c -3.216,-3.047 -4.752,-3.72 -8.478,-3.72 -3.689,0 -5.13,0.618 -7.616,3.267 -2.982,3.178 -8.267,6.237 -13.349,7.725 -1.878,0.55 -2.502,0.31 -2.502,-0.96 0,-0.931 -1.038,-3.617 -2.305,-5.971 l -2.305,-4.278 -4.828,4.773 c -2.962,2.927 -6.476,5.206 -9.092,5.894 -6.68,1.757 -7.042,1.582 -7.042,-3.396 0,-7.549 -3.223,-8.956 -9.024,-3.937 -4.423,3.825 -8.091,4.656 -16.477,3.734 L 2.01,78.906 3.176,75.981 c 0.972,-2.441 0.754,-3.47 -1.332,-6.244 -3.382,-4.499 -7.781,-6.448 -14.551,-6.448 -3.118,0 -7.021,-0.644 -8.672,-1.434 -1.651,-0.789 -5.754,-1.697 -9.117,-2.019 -3.363,-0.321 -6.947,-0.896 -7.966,-1.276 -1.593,-0.595 -1.767,-0.105 -1.255,3.518 0.786,5.545 -3.088,9.635 -9.124,9.635 -7.831,0 -11.443,-7.005 -8.377,-16.246 0.591,-1.779 1.363,-4.583 1.717,-6.233 0.366,-1.711 3.895,-6.253 8.215,-10.576 4.165,-4.167 8.101,-8.503 8.748,-9.636 0.645,-1.132 2.782,-2.95 4.747,-4.039 l 3.572,-1.979 -0.471,3.822 c -0.518,4.201 0.397,4.86 2.632,1.896 0.799,-1.06 2.829,-2.773 4.511,-3.807 2.649,-1.628 3.058,-1.661 3.058,-0.247 0,0.897 0.539,2.966 1.199,4.596 l 1.2,2.964 2.082,-4.033 c 1.146,-2.218 4.87,-7.259 8.277,-11.203 C -1.122,9.341 2.905,0.79 0.827,-1.179 c -0.843,-0.798 -3.122,-0.736 -7.846,0.213 -3.661,0.737 -8.19,1.125 -10.064,0.864 -3.826,-0.531 -4.128,-0.038 -1.774,2.91 2.484,3.11 2.088,3.623 -2.791,3.623 -5.646,0 -19.663,2.707 -25.043,4.836 -5.232,2.07 -6.439,1.554 -7.979,-3.408 -0.693,-2.233 -1.962,-6.28 -2.82,-8.993 l -1.56,-4.931 5.66,0.544 c 3.114,0.3 7.119,0.982 8.899,1.515 1.781,0.533 3.399,0.817 3.596,0.63 0.198,-0.187 -0.596,-2.114 -1.763,-4.282 l -2.123,-3.944 3.529,0.72 c 1.941,0.396 4.861,1.364 6.49,2.152 2.833,1.371 3.061,1.271 5.295,-2.316 2.748,-4.411 4.946,-4.23 5.435,0.447 0.504,4.836 2.095,4.121 5.087,-2.287 2.878,-6.162 5.872,-8.338 6.447,-4.685 0.19,1.213 1.74,3.187 3.444,4.387 3.447,2.428 6.043,1.7 7.532,-2.112 1.542,-3.945 -1.896,-8.013 -11.894,-14.073 -20.028,-12.141 -31.67,-28.744 -34.994,-49.907 -2.997,-19.089 6.365,-38.815 25.148,-52.982 8.989,-6.78 23.268,-13.935 22.361,-11.205 -3.854,11.596 -3.727,33.72 0.214,37.452 0.592,0.561 0.388,-1.748 -0.452,-5.13 -3.13,-12.597 -1.77,-22.634 6.252,-46.16 7.256,-21.277 6.251,-30.371 -4.017,-36.382 -3.298,-1.93 -5.422,-2.248 -14.289,-2.14 -9.622,0.116 -10.671,-0.077 -13.76,-2.538 -2.995,-2.387 -6.878,-10.223 -6.878,-13.88 0,-1.981 2.199,-1.719 6.522,0.777 z"
       style="fill:#ffb700;fill-opacity:1;fill-rule:nonzero;stroke:none"
       transform="matrix(1.3333333,0,0,-1.3333333,692.54947,322.94013)"
       clip-path="url(#clipPath18)" />
  </g>
</svg>
