<?xml version="1.0" encoding="UTF-8" standalone="no"?>
<!-- Created with Inkscape (http://www.inkscape.org/) -->

<svg
   version="1.1"
   id="svg1"
   width="880"
   height="586.66669"
   viewBox="0 0 880 586.66669"
   sodipodi:docname="mo.ai"
   xmlns:inkscape="http://www.inkscape.org/namespaces/inkscape"
   xmlns:sodipodi="http://sodipodi.sourceforge.net/DTD/sodipodi-0.dtd"
   xmlns="http://www.w3.org/2000/svg"
   xmlns:svg="http://www.w3.org/2000/svg">
  <defs
     id="defs1">
    <clipPath
       clipPathUnits="userSpaceOnUse"
       id="clipPath4">
      <path
         d="M 0,440 H 660 V 0 H 0 Z"
         transform="translate(-281.3164,-105.9893)"
         id="path4" />
    </clipPath>
  </defs>
  <sodipodi:namedview
     id="namedview1"
     pagecolor="#ffffff"
     bordercolor="#000000"
     borderopacity="0.25"
     inkscape:showpageshadow="2"
     inkscape:pageopacity="0.0"
     inkscape:pagecheckerboard="0"
     inkscape:deskcolor="#d1d1d1">
    <inkscape:page
       x="0"
       y="0"
       inkscape:label="1"
       id="page1"
       width="880"
       height="586.66669"
       margin="0"
       bleed="0" />
  </sodipodi:namedview>
  <g
     id="layer-MC0"
     inkscape:groupmode="layer"
     inkscape:label="Layer 1">
    <path
       id="path1"
       d="M 0,0 H 660 V 440 H 0 Z"
       style="fill:#00785e;fill-opacity:1;fill-rule:nonzero;stroke:none"
       transform="matrix(1.3333333,0,0,-1.3333333,0,586.66667)" />
    <path
       id="path2"
       d="m 0,0 -2.32,-11.931 -12.06,-1.475 10.62,-5.894 -2.313,-11.931 8.887,8.286 10.628,-5.894 -5.134,11.021 8.886,8.286 -12.059,-1.482 z m -184.723,0 -5.134,-11.014 -12.06,1.482 8.887,-8.286 -5.135,-11.021 10.628,5.894 8.887,-8.286 -2.313,11.931 10.621,5.894 -12.06,1.475 z m 161.699,38.4 -9.704,-7.312 -9.961,6.975 3.953,-11.494 -9.704,-7.312 12.153,0.208 3.96,-11.494 3.553,11.623 12.152,0.215 -9.961,6.968 z m -138.675,0 3.56,-11.623 -9.962,-6.968 12.153,-0.215 3.552,-11.623 3.96,11.494 12.153,-0.208 -9.703,7.312 3.953,11.494 -9.962,-6.975 z m 69.338,29.311 -5.422,-16.707 h -17.574 l 14.216,-10.327 -5.429,-16.7 14.209,10.312 14.208,-10.312 -5.428,16.7 14.215,10.327 H -86.94 Z"
       style="fill:#fbd116;fill-opacity:1;fill-rule:nonzero;stroke:none"
       transform="matrix(1.3333333,0,0,-1.3333333,563.1484,200.8932)" />
    <path
       id="path3"
       d="M 0,0 C 15.067,-5.987 31.492,-9.281 48.684,-9.281 65.876,-9.281 82.3,-5.987 97.367,0 H 48.684 Z m -21.621,11 c 4.258,-2.686 8.676,-5.139 13.242,-7.333 h 57.063 57.062 c 4.567,2.194 8.984,4.647 13.241,7.333 H 48.684 Z m -15.525,11.459 c 2.321,-1.99 4.71,-3.902 7.168,-5.73 h 78.662 78.661 c 2.458,1.828 4.846,3.74 7.169,5.73 h -85.83 z m -11.595,11.229 c 1.138,-1.244 2.303,-2.467 3.488,-3.667 H 142.62 c 1.185,1.2 2.351,2.423 3.488,3.667 z m 97.425,35.47 C 35.333,56.412 17.251,48.584 -2.65,48.584 h -57.871 c 1.706,-2.508 3.493,-4.954 5.363,-7.334 H 0.788 c 18.242,0 34.953,6.582 47.896,17.496 C 61.626,47.832 78.337,41.25 96.579,41.25 h 55.945 c 1.871,2.38 3.659,4.826 5.365,7.334 h -57.872 c -19.902,0 -37.983,7.828 -51.333,20.574 m 0,124.051 c -15.784,-13.64 -25.782,-33.8 -25.782,-56.282 0,-15.291 4.623,-29.506 12.547,-41.328 -9.731,12.57 -15.526,28.338 -15.526,45.453 0,11.369 2.558,22.144 7.126,31.783 -3.154,3.333 -5.551,7.393 -6.904,11.902 -6.121,-10.804 -9.618,-23.284 -9.618,-36.58 0,-16.539 5.409,-31.819 14.553,-44.173 -15.924,16.693 -38.377,27.099 -63.25,27.099 -1.337,0 -2.667,-0.033 -3.99,-0.092 2.503,-2.333 4.604,-5.09 6.188,-8.158 24.742,-0.037 47.078,-10.376 62.964,-26.948 -15.172,12.672 -34.699,20.303 -55.996,20.303 -11.902,0 -23.249,-2.383 -33.594,-6.696 10.628,-28.086 37.78,-48.075 69.573,-48.075 2.059,0 4.1,0.093 6.116,0.258 C 8.801,60.904 4.382,60.5 -0.129,60.5 c -20.059,0 -38.267,7.957 -51.648,20.883 -2.786,-1.071 -5.773,-1.74 -8.888,-1.926 13.629,-15.416 33.545,-25.144 55.724,-25.144 21.066,0 40.091,8.775 53.625,22.867 13.533,-14.092 32.559,-22.867 53.625,-22.867 22.177,0 42.094,9.728 55.723,25.144 -3.115,0.186 -6.102,0.855 -8.887,1.926 C 135.764,68.457 117.556,60.5 97.496,60.5 c -4.511,0 -8.93,0.404 -13.22,1.175 2.016,-0.165 4.057,-0.258 6.116,-0.258 31.794,0 58.945,19.989 69.574,48.075 -10.346,4.313 -21.693,6.696 -33.595,6.696 -21.298,0 -40.824,-7.631 -55.995,-20.303 15.886,16.572 38.222,26.911 62.963,26.948 1.584,3.068 3.685,5.825 6.187,8.158 -1.321,0.059 -2.652,0.092 -3.988,0.092 -24.873,0 -47.327,-10.406 -63.25,-27.099 9.143,12.354 14.552,27.634 14.552,44.173 0,13.296 -3.496,25.776 -9.618,36.58 -1.353,-4.509 -3.749,-8.569 -6.904,-11.902 4.568,-9.639 7.126,-20.414 7.126,-31.783 0,-17.115 -5.796,-32.883 -15.526,-45.453 7.924,11.822 12.547,26.037 12.547,41.328 0,22.482 -9.998,42.642 -25.781,56.282"
       style="fill:#ffffff;fill-opacity:1;fill-rule:nonzero;stroke:none"
       transform="matrix(1.3333333,0,0,-1.3333333,375.08853,445.3476)"
       clip-path="url(#clipPath4)" />
  </g>
</svg>
