<?xml version="1.0" encoding="UTF-8" standalone="no"?>
<!-- Created with Inkscape (http://www.inkscape.org/) -->

<svg
   version="1.1"
   id="svg1"
   width="1794.76"
   height="1200"
   viewBox="0 0 1794.76 1200"
   sodipodi:docname="md.ai"
   xmlns:inkscape="http://www.inkscape.org/namespaces/inkscape"
   xmlns:sodipodi="http://sodipodi.sourceforge.net/DTD/sodipodi-0.dtd"
   xmlns="http://www.w3.org/2000/svg"
   xmlns:svg="http://www.w3.org/2000/svg">
  <defs
     id="defs1">
    <clipPath
       clipPathUnits="userSpaceOnUse"
       id="clipPath6">
      <path
         d="M 0,900 H 1346.075 V 0 H 0 Z"
         transform="translate(-628.75001,-685.11232)"
         id="path6" />
    </clipPath>
    <clipPath
       clipPathUnits="userSpaceOnUse"
       id="clipPath8">
      <path
         d="M 0,900 H 1346.075 V 0 H 0 Z"
         transform="translate(-628.75001,-683.69632)"
         id="path8" />
    </clipPath>
    <clipPath
       clipPathUnits="userSpaceOnUse"
       id="clipPath10">
      <path
         d="M 0,900 H 1346.075 V 0 H 0 Z"
         transform="translate(-583.65622,-333.67291)"
         id="path10" />
    </clipPath>
    <clipPath
       clipPathUnits="userSpaceOnUse"
       id="clipPath12">
      <path
         d="M 0,900 H 1346.075 V 0 H 0 Z"
         transform="translate(-759.68364,-312.07711)"
         id="path12" />
    </clipPath>
    <clipPath
       clipPathUnits="userSpaceOnUse"
       id="clipPath14">
      <path
         d="M 0,900 H 1346.075 V 0 H 0 Z"
         transform="translate(-586.17041,-309.36331)"
         id="path14" />
    </clipPath>
    <clipPath
       clipPathUnits="userSpaceOnUse"
       id="clipPath16">
      <path
         d="M 0,900 H 1346.075 V 0 H 0 Z"
         transform="translate(-588.27292,-312.03121)"
         id="path16" />
    </clipPath>
    <clipPath
       clipPathUnits="userSpaceOnUse"
       id="clipPath18">
      <path
         d="M 0,900 H 1346.075 V 0 H 0 Z"
         transform="translate(-588.31642,-304.66501)"
         id="path18" />
    </clipPath>
    <clipPath
       clipPathUnits="userSpaceOnUse"
       id="clipPath20">
      <path
         d="M 0,900 H 1346.075 V 0 H 0 Z"
         transform="translate(-672.68602,-346.81051)"
         id="path20" />
    </clipPath>
    <clipPath
       clipPathUnits="userSpaceOnUse"
       id="clipPath22">
      <path
         d="M 0,900 H 1346.075 V 0 H 0 Z"
         transform="translate(-583.66552,-556.66991)"
         id="path22" />
    </clipPath>
    <clipPath
       clipPathUnits="userSpaceOnUse"
       id="clipPath24">
      <path
         d="M 0,900 H 1346.075 V 0 H 0 Z"
         transform="translate(-641.03272,-465.69141)"
         id="path24" />
    </clipPath>
    <clipPath
       clipPathUnits="userSpaceOnUse"
       id="clipPath26">
      <path
         d="M 0,900 H 1346.075 V 0 H 0 Z"
         transform="translate(-705.74562,-465.69141)"
         id="path26" />
    </clipPath>
    <clipPath
       clipPathUnits="userSpaceOnUse"
       id="clipPath28">
      <path
         d="M 0,900 H 1346.075 V 0 H 0 Z"
         transform="translate(-673.36622,-549.80221)"
         id="path28" />
    </clipPath>
    <clipPath
       clipPathUnits="userSpaceOnUse"
       id="clipPath30">
      <path
         d="M 0,900 H 1346.075 V 0 H 0 Z"
         transform="translate(-643.41362,-438.30371)"
         id="path30" />
    </clipPath>
    <clipPath
       clipPathUnits="userSpaceOnUse"
       id="clipPath32">
      <path
         d="M 0,900 H 1346.075 V 0 H 0 Z"
         transform="translate(-703.89752,-438.30371)"
         id="path32" />
    </clipPath>
    <clipPath
       clipPathUnits="userSpaceOnUse"
       id="clipPath34">
      <path
         d="M 0,900 H 1346.075 V 0 H 0 Z"
         transform="translate(-692.12992,-426.74801)"
         id="path34" />
    </clipPath>
    <clipPath
       clipPathUnits="userSpaceOnUse"
       id="clipPath36">
      <path
         d="M 0,900 H 1346.075 V 0 H 0 Z"
         transform="translate(-648.16702,-410.64941)"
         id="path36" />
    </clipPath>
    <clipPath
       clipPathUnits="userSpaceOnUse"
       id="clipPath38">
      <path
         d="M 0,900 H 1346.075 V 0 H 0 Z"
         transform="translate(-719.58152,-388.76951)"
         id="path38" />
    </clipPath>
    <clipPath
       clipPathUnits="userSpaceOnUse"
       id="clipPath40">
      <path
         d="M 0,900 H 1346.075 V 0 H 0 Z"
         transform="translate(-620.71481,-388.14451)"
         id="path40" />
    </clipPath>
    <clipPath
       clipPathUnits="userSpaceOnUse"
       id="clipPath42">
      <path
         d="M 0,900 H 1346.075 V 0 H 0 Z"
         transform="translate(-673.42142,-539.72662)"
         id="path42" />
    </clipPath>
    <clipPath
       clipPathUnits="userSpaceOnUse"
       id="clipPath44">
      <path
         d="M 0,900 H 1346.075 V 0 H 0 Z"
         transform="translate(-643.24852,-552.05471)"
         id="path44" />
    </clipPath>
    <clipPath
       clipPathUnits="userSpaceOnUse"
       id="clipPath46">
      <path
         d="M 0,900 H 1346.075 V 0 H 0 Z"
         transform="translate(-615.00592,-474.91211)"
         id="path46" />
    </clipPath>
    <clipPath
       clipPathUnits="userSpaceOnUse"
       id="clipPath48">
      <path
         d="M 0,900 H 1346.075 V 0 H 0 Z"
         transform="translate(-638.82622,-542.87992)"
         id="path48" />
    </clipPath>
    <clipPath
       clipPathUnits="userSpaceOnUse"
       id="clipPath50">
      <path
         d="M 0,900 H 1346.075 V 0 H 0 Z"
         transform="translate(-731.77252,-474.91211)"
         id="path50" />
    </clipPath>
    <clipPath
       clipPathUnits="userSpaceOnUse"
       id="clipPath52">
      <path
         d="M 0,900 H 1346.075 V 0 H 0 Z"
         transform="translate(-648.70952,-445.74121)"
         id="path52" />
    </clipPath>
    <clipPath
       clipPathUnits="userSpaceOnUse"
       id="clipPath54">
      <path
         d="M 0,900 H 1346.075 V 0 H 0 Z"
         transform="translate(-698.07812,-445.74121)"
         id="path54" />
    </clipPath>
    <clipPath
       clipPathUnits="userSpaceOnUse"
       id="clipPath56">
      <path
         d="M 0,900 H 1346.075 V 0 H 0 Z"
         transform="translate(-648.70952,-442.25681)"
         id="path56" />
    </clipPath>
    <clipPath
       clipPathUnits="userSpaceOnUse"
       id="clipPath58">
      <path
         d="M 0,900 H 1346.075 V 0 H 0 Z"
         transform="translate(-698.07812,-442.25681)"
         id="path58" />
    </clipPath>
    <clipPath
       clipPathUnits="userSpaceOnUse"
       id="clipPath60">
      <path
         d="M 0,900 H 1346.075 V 0 H 0 Z"
         transform="translate(-641.97952,-431.15141)"
         id="path60" />
    </clipPath>
    <clipPath
       clipPathUnits="userSpaceOnUse"
       id="clipPath62">
      <path
         d="M 0,900 H 1346.075 V 0 H 0 Z"
         transform="translate(-704.80762,-431.15141)"
         id="path62" />
    </clipPath>
    <clipPath
       clipPathUnits="userSpaceOnUse"
       id="clipPath64">
      <path
         d="M 0,900 H 1346.075 V 0 H 0 Z"
         transform="translate(-616.99172,-428.22751)"
         id="path64" />
    </clipPath>
    <clipPath
       clipPathUnits="userSpaceOnUse"
       id="clipPath66">
      <path
         d="M 0,900 H 1346.075 V 0 H 0 Z"
         transform="translate(-646.68652,-427.10641)"
         id="path66" />
    </clipPath>
    <clipPath
       clipPathUnits="userSpaceOnUse"
       id="clipPath68">
      <path
         d="M 0,900 H 1346.075 V 0 H 0 Z"
         transform="translate(-700.10062,-427.10641)"
         id="path68" />
    </clipPath>
    <clipPath
       clipPathUnits="userSpaceOnUse"
       id="clipPath70">
      <path
         d="M 0,900 H 1346.075 V 0 H 0 Z"
         transform="translate(-617.50631,-424.60551)"
         id="path70" />
    </clipPath>
    <clipPath
       clipPathUnits="userSpaceOnUse"
       id="clipPath72">
      <path
         d="M 0,900 H 1346.075 V 0 H 0 Z"
         transform="translate(-725.04252,-421.82911)"
         id="path72" />
    </clipPath>
    <clipPath
       clipPathUnits="userSpaceOnUse"
       id="clipPath74">
      <path
         d="M 0,900 H 1346.075 V 0 H 0 Z"
         transform="translate(-630.96581,-419.42971)"
         id="path74" />
    </clipPath>
    <clipPath
       clipPathUnits="userSpaceOnUse"
       id="clipPath76">
      <path
         d="M 0,900 H 1346.075 V 0 H 0 Z"
         transform="translate(-725.04252,-417.92191)"
         id="path76" />
    </clipPath>
    <clipPath
       clipPathUnits="userSpaceOnUse"
       id="clipPath78">
      <path
         d="M 0,900 H 1346.075 V 0 H 0 Z"
         transform="translate(-609.26902,-413.87701)"
         id="path78" />
    </clipPath>
    <clipPath
       clipPathUnits="userSpaceOnUse"
       id="clipPath80">
      <path
         d="M 0,900 H 1346.075 V 0 H 0 Z"
         transform="translate(-620.65972,-412.88381)"
         id="path80" />
    </clipPath>
    <clipPath
       clipPathUnits="userSpaceOnUse"
       id="clipPath82">
      <path
         d="M 0,900 H 1346.075 V 0 H 0 Z"
         transform="translate(-630.39602,-405.40921)"
         id="path82" />
    </clipPath>
    <clipPath
       clipPathUnits="userSpaceOnUse"
       id="clipPath84">
      <path
         d="M 0,900 H 1346.075 V 0 H 0 Z"
         transform="translate(-612.51461,-400.88671)"
         id="path84" />
    </clipPath>
    <clipPath
       clipPathUnits="userSpaceOnUse"
       id="clipPath86">
      <path
         d="M 0,900 H 1346.075 V 0 H 0 Z"
         transform="translate(-661.74562,-384.88091)"
         id="path86" />
    </clipPath>
    <clipPath
       clipPathUnits="userSpaceOnUse"
       id="clipPath88">
      <path
         d="M 0,900 H 1346.075 V 0 H 0 Z"
         transform="translate(-685.04201,-384.88091)"
         id="path88" />
    </clipPath>
    <clipPath
       clipPathUnits="userSpaceOnUse"
       id="clipPath90">
      <path
         d="M 0,900 H 1346.075 V 0 H 0 Z"
         transform="translate(-762.57962,-305.24611)"
         id="path90" />
    </clipPath>
    <clipPath
       clipPathUnits="userSpaceOnUse"
       id="clipPath92">
      <path
         d="M 0,900 H 1346.075 V 0 H 0 Z"
         transform="translate(-766.66554,-313.07131)"
         id="path92" />
    </clipPath>
    <clipPath
       clipPathUnits="userSpaceOnUse"
       id="clipPath94">
      <path
         d="M 0,900 H 1346.075 V 0 H 0 Z"
         transform="translate(-757.21142,-299.50491)"
         id="path94" />
    </clipPath>
    <clipPath
       clipPathUnits="userSpaceOnUse"
       id="clipPath96">
      <path
         d="M 0,900 H 1346.075 V 0 H 0 Z"
         transform="translate(-535.62011,-363.92871)"
         id="path96" />
    </clipPath>
    <clipPath
       clipPathUnits="userSpaceOnUse"
       id="clipPath98">
      <path
         d="M 0,900 H 1346.075 V 0 H 0 Z"
         transform="translate(-574.11331,-382.82131)"
         id="path98" />
    </clipPath>
    <clipPath
       clipPathUnits="userSpaceOnUse"
       id="clipPath100">
      <path
         d="M 0,900 H 1346.075 V 0 H 0 Z"
         transform="translate(-551.45122,-385.64361)"
         id="path100" />
    </clipPath>
    <clipPath
       clipPathUnits="userSpaceOnUse"
       id="clipPath102">
      <path
         d="M 0,900 H 1346.075 V 0 H 0 Z"
         transform="translate(-554.20951,-424.80761)"
         id="path102" />
    </clipPath>
    <clipPath
       clipPathUnits="userSpaceOnUse"
       id="clipPath104">
      <path
         d="M 0,900 H 1346.075 V 0 H 0 Z"
         transform="translate(-502.03612,-446.78911)"
         id="path104" />
    </clipPath>
    <clipPath
       clipPathUnits="userSpaceOnUse"
       id="clipPath106">
      <path
         d="M 0,900 H 1346.075 V 0 H 0 Z"
         transform="translate(-529.29491,-463.03421)"
         id="path106" />
    </clipPath>
    <clipPath
       clipPathUnits="userSpaceOnUse"
       id="clipPath108">
      <path
         d="M 0,900 H 1346.075 V 0 H 0 Z"
         transform="translate(-499.27831,-494.84371)"
         id="path108" />
    </clipPath>
    <clipPath
       clipPathUnits="userSpaceOnUse"
       id="clipPath110">
      <path
         d="M 0,900 H 1346.075 V 0 H 0 Z"
         transform="translate(-501.94432,-489.33691)"
         id="path110" />
    </clipPath>
    <clipPath
       clipPathUnits="userSpaceOnUse"
       id="clipPath112">
      <path
         d="M 0,900 H 1346.075 V 0 H 0 Z"
         transform="translate(-497.36621,-474.36081)"
         id="path112" />
    </clipPath>
    <clipPath
       clipPathUnits="userSpaceOnUse"
       id="clipPath114">
      <path
         d="M 0,900 H 1346.075 V 0 H 0 Z"
         transform="translate(-515.41261,-487.72801)"
         id="path114" />
    </clipPath>
    <clipPath
       clipPathUnits="userSpaceOnUse"
       id="clipPath116">
      <path
         d="M 0,900 H 1346.075 V 0 H 0 Z"
         transform="translate(-505.73191,-445.10741)"
         id="path116" />
    </clipPath>
    <clipPath
       clipPathUnits="userSpaceOnUse"
       id="clipPath118">
      <path
         d="M 0,900 H 1346.075 V 0 H 0 Z"
         transform="translate(-507.12941,-435.95021)"
         id="path118" />
    </clipPath>
    <clipPath
       clipPathUnits="userSpaceOnUse"
       id="clipPath120">
      <path
         d="M 0,900 H 1346.075 V 0 H 0 Z"
         transform="translate(-528.98242,-457.62841)"
         id="path120" />
    </clipPath>
    <clipPath
       clipPathUnits="userSpaceOnUse"
       id="clipPath122">
      <path
         d="M 0,900 H 1346.075 V 0 H 0 Z"
         transform="translate(-537.43121,-452.26861)"
         id="path122" />
    </clipPath>
    <clipPath
       clipPathUnits="userSpaceOnUse"
       id="clipPath124">
      <path
         d="M 0,900 H 1346.075 V 0 H 0 Z"
         transform="translate(-526.61041,-402.25591)"
         id="path124" />
    </clipPath>
    <clipPath
       clipPathUnits="userSpaceOnUse"
       id="clipPath126">
      <path
         d="M 0,900 H 1346.075 V 0 H 0 Z"
         transform="translate(-526.11431,-389.88181)"
         id="path126" />
    </clipPath>
    <clipPath
       clipPathUnits="userSpaceOnUse"
       id="clipPath128">
      <path
         d="M 0,900 H 1346.075 V 0 H 0 Z"
         transform="translate(-552.50881,-418.91501)"
         id="path128" />
    </clipPath>
    <clipPath
       clipPathUnits="userSpaceOnUse"
       id="clipPath130">
      <path
         d="M 0,900 H 1346.075 V 0 H 0 Z"
         transform="translate(-560.43361,-412.13871)"
         id="path130" />
    </clipPath>
    <clipPath
       clipPathUnits="userSpaceOnUse"
       id="clipPath132">
      <path
         d="M 0,900 H 1346.075 V 0 H 0 Z"
         transform="translate(-573.46972,-378.14161)"
         id="path132" />
    </clipPath>
    <clipPath
       clipPathUnits="userSpaceOnUse"
       id="clipPath134">
      <path
         d="M 0,900 H 1346.075 V 0 H 0 Z"
         transform="translate(-583.78471,-366.75101)"
         id="path134" />
    </clipPath>
    <clipPath
       clipPathUnits="userSpaceOnUse"
       id="clipPath136">
      <path
         d="M 0,900 H 1346.075 V 0 H 0 Z"
         transform="translate(-542.59811,-349.26461)"
         id="path136" />
    </clipPath>
    <clipPath
       clipPathUnits="userSpaceOnUse"
       id="clipPath138">
      <path
         d="M 0,900 H 1346.075 V 0 H 0 Z"
         transform="translate(-541.07182,-359.98441)"
         id="path138" />
    </clipPath>
    <clipPath
       clipPathUnits="userSpaceOnUse"
       id="clipPath140">
      <path
         d="M 0,900 H 1346.075 V 0 H 0 Z"
         transform="translate(-570.06841,-343.08691)"
         id="path140" />
    </clipPath>
    <clipPath
       clipPathUnits="userSpaceOnUse"
       id="clipPath142">
      <path
         d="M 0,900 H 1346.075 V 0 H 0 Z"
         transform="translate(-569.59912,-345.56931)"
         id="path142" />
    </clipPath>
    <clipPath
       clipPathUnits="userSpaceOnUse"
       id="clipPath144">
      <path
         d="M 0,900 H 1346.075 V 0 H 0 Z"
         transform="translate(-551.30422,-384.18161)"
         id="path144" />
    </clipPath>
    <clipPath
       clipPathUnits="userSpaceOnUse"
       id="clipPath146">
      <path
         d="M 0,900 H 1346.075 V 0 H 0 Z"
         transform="translate(-552.39841,-383.03221)"
         id="path146" />
    </clipPath>
    <clipPath
       clipPathUnits="userSpaceOnUse"
       id="clipPath148">
      <path
         d="M 0,900 H 1346.075 V 0 H 0 Z"
         transform="translate(-533.11961,-422.65621)"
         id="path148" />
    </clipPath>
    <clipPath
       clipPathUnits="userSpaceOnUse"
       id="clipPath150">
      <path
         d="M 0,900 H 1346.075 V 0 H 0 Z"
         transform="translate(-534.61822,-423.33691)"
         id="path150" />
    </clipPath>
    <clipPath
       clipPathUnits="userSpaceOnUse"
       id="clipPath152">
      <path
         d="M 0,900 H 1346.075 V 0 H 0 Z"
         transform="translate(-513.74902,-463.27341)"
         id="path152" />
    </clipPath>
    <clipPath
       clipPathUnits="userSpaceOnUse"
       id="clipPath154">
      <path
         d="M 0,900 H 1346.075 V 0 H 0 Z"
         transform="translate(-515.24761,-463.95361)"
         id="path154" />
    </clipPath>
    <clipPath
       clipPathUnits="userSpaceOnUse"
       id="clipPath156">
      <path
         d="M 0,900 H 1346.075 V 0 H 0 Z"
         transform="translate(-547.87501,-393.81641)"
         id="path156" />
    </clipPath>
    <clipPath
       clipPathUnits="userSpaceOnUse"
       id="clipPath158">
      <path
         d="M 0,900 H 1346.075 V 0 H 0 Z"
         transform="translate(-527.98972,-438.21191)"
         id="path158" />
    </clipPath>
    <clipPath
       clipPathUnits="userSpaceOnUse"
       id="clipPath160">
      <path
         d="M 0,900 H 1346.075 V 0 H 0 Z"
         transform="translate(-573.99371,-337.55271)"
         id="path160" />
    </clipPath>
    <clipPath
       clipPathUnits="userSpaceOnUse"
       id="clipPath162">
      <path
         d="M 0,900 H 1346.075 V 0 H 0 Z"
         transform="translate(-629.70611,-650.68262)"
         id="path162" />
    </clipPath>
    <clipPath
       clipPathUnits="userSpaceOnUse"
       id="clipPath164">
      <path
         d="M 0,900 H 1346.075 V 0 H 0 Z"
         transform="translate(-646.90721,-649.50592)"
         id="path164" />
    </clipPath>
    <clipPath
       clipPathUnits="userSpaceOnUse"
       id="clipPath166">
      <path
         d="M 0,900 H 1346.075 V 0 H 0 Z"
         transform="translate(-651.41212,-641.57182)"
         id="path166" />
    </clipPath>
    <clipPath
       clipPathUnits="userSpaceOnUse"
       id="clipPath168">
      <path
         d="M 0,900 H 1346.075 V 0 H 0 Z"
         transform="translate(-665.72662,-649.42292)"
         id="path168" />
    </clipPath>
    <clipPath
       clipPathUnits="userSpaceOnUse"
       id="clipPath170">
      <path
         d="M 0,900 H 1346.075 V 0 H 0 Z"
         transform="translate(-664.30132,-649.42292)"
         id="path170" />
    </clipPath>
    <clipPath
       clipPathUnits="userSpaceOnUse"
       id="clipPath172">
      <path
         d="M 0,900 H 1346.075 V 0 H 0 Z"
         transform="translate(-662.41652,-649.42292)"
         id="path172" />
    </clipPath>
    <clipPath
       clipPathUnits="userSpaceOnUse"
       id="clipPath174">
      <path
         d="M 0,900 H 1346.075 V 0 H 0 Z"
         transform="translate(-586.06402,-554.36521)"
         id="path174" />
    </clipPath>
  </defs>
  <sodipodi:namedview
     id="namedview1"
     pagecolor="#ffffff"
     bordercolor="#000000"
     borderopacity="0.25"
     inkscape:showpageshadow="2"
     inkscape:pageopacity="0.0"
     inkscape:pagecheckerboard="0"
     inkscape:deskcolor="#d1d1d1">
    <inkscape:page
       x="0"
       y="0"
       inkscape:label="1"
       id="page1"
       width="1794.76"
       height="1200"
       margin="0"
       bleed="0" />
  </sodipodi:namedview>
  <g
     id="layer-MC0"
     inkscape:groupmode="layer"
     inkscape:label="Layer 1">
    <path
       id="path1"
       d="M 0,0 H 1346.075 V 900 H 0 Z"
       style="fill:#cc092f;fill-opacity:1;fill-rule:nonzero;stroke:none"
       transform="matrix(1.3333333,0,0,-1.3333333,0,1200)" />
    <path
       id="path2"
       d="M 0,0 H 897.384 V 900 H 0 Z"
       style="fill:#ffd200;fill-opacity:1;fill-rule:nonzero;stroke:none"
       transform="matrix(1.3333333,0,0,-1.3333333,0,1200)" />
    <path
       id="path3"
       d="M 0,0 H 448.692 V 900 H 0 Z"
       style="fill:#0046ae;fill-opacity:1;fill-rule:nonzero;stroke:none"
       transform="matrix(1.3333333,0,0,-1.3333333,0,1200)" />
    <path
       id="path4"
       d="m 0,0 7.686,0.57 0.671,-6.554 7.07,2.987 1.912,-9.027 15.583,15.794 21.669,-10.683 -41.123,-73.281 -14.654,-10.83 26.413,-9.911 27.093,31.58 -3.916,-20.741 -8.054,-20.125 32.977,-18.993 35.818,21.154 -17.605,36.949 5.727,2.629 23.223,-33.639 25.291,12.54 -32.876,38.437 -21.623,46.245 22.809,7.529 15.537,-14.912 2.317,9.699 8.21,-3.972 -1.039,8.1 8.256,-1.802 -10.058,15.942 25.54,21.42 16.143,-50.472 23.811,-27.195 5.057,0.625 17.283,-21.365 -0.184,296.039 -31.901,33.594 -31.037,-25.283 1.296,-27.249 -13.937,-0.515 -20.74,-10.628 -11.612,-3.815 -5.47,-1.085 -7.125,7.741 -9.543,19.095 -0.625,18.828 5.884,12.283 -1.085,11.611 5.277,-0.101 -3.365,7.842 4.652,1.857 -6.968,6.142 2.427,2.84 -26.321,11.299 -20.079,1.342 -5.415,-2.371 -2.629,-4.91 5.313,-15.013 -5.681,-5.672 5.626,-10.996 0.212,-24.096 -4.496,-20.336 -9.028,-15.371 -4.743,-1.812 -11.309,2.584 -23.682,12.485 -14.967,0.827 -1.03,29.005 -28.693,23.058 -29.253,-31.58 -4.183,-9.285 1.342,-287.324 18.939,22.91 3.971,-0.984 19.555,21.163 16.622,41.895 4.899,17.394 22.396,-26.467 z"
       style="fill:#b07f55;fill-opacity:1;fill-rule:nonzero;stroke:none"
       transform="matrix(1.3333333,0,0,-1.3333333,800.10093,713.97787)" />
    <path
       id="path5"
       d="m 0,0 c -2.963,0 -5.551,-0.756 -7.061,-1.931 2.399,-0.698 4.143,-2.91 4.143,-5.601 v -6.824 h -2.636 -4.187 c -2.673,0 -4.886,1.719 -5.602,4.095 -1.175,-1.51 -1.929,-4.097 -1.929,-7.06 0,-2.963 0.754,-5.552 1.929,-7.059 0.7,2.399 2.911,4.142 5.602,4.142 h 4.187 2.636 v -2.637 -21.271 -8.895 c 0,-2.579 -1.612,-4.718 -3.859,-5.506 3.255,-0.443 6.056,-4.812 6.824,-7.202 0.769,2.385 3.571,6.759 6.825,7.202 -2.27,0.774 -3.908,2.911 -3.908,5.506 v 15.343 14.825 2.637 H 5.601 9.79 c 2.673,0 4.886,-1.719 5.601,-4.097 1.174,1.51 1.929,4.1 1.929,7.061 0,2.963 -0.754,5.551 -1.929,7.06 -0.7,-2.399 -2.912,-4.141 -5.601,-4.141 H 5.601 2.964 v 6.823 c 0,2.674 1.719,4.886 4.096,5.602 C 5.552,-0.755 2.962,0 0,0 Z"
       style="fill:#000000;fill-opacity:1;fill-rule:nonzero;stroke:none"
       transform="matrix(1.3333333,0,0,-1.3333333,838.33333,286.51693)"
       clip-path="url(#clipPath6)" />
    <path
       id="path7"
       d="m 0,0 c -1.542,0 -2.901,-0.289 -4.047,-0.658 1.53,-1.331 2.542,-3.259 2.542,-5.46 v -6.824 c 0,-0.098 -0.028,-0.191 -0.048,-0.284 v -1.082 h -1.083 c -0.092,-0.019 -0.185,-0.046 -0.282,-0.047 H -3.53 -5.556 -9.743 c -2.176,0 -4.081,0.995 -5.411,2.494 -0.383,-1.158 -0.706,-2.48 -0.706,-4.048 0,-1.543 0.288,-2.902 0.658,-4.047 1.33,1.53 3.257,2.54 5.459,2.54 h 4.187 0.895 1.742 1.412 c -0.009,-0.142 -0.048,-0.279 -0.048,-0.422 v -0.706 c 0.02,-0.092 0.048,-0.185 0.048,-0.282 v -2.637 -21.272 -8.895 c 0,-2.13 -1.098,-3.805 -2.542,-5.13 1.033,-0.637 1.922,-1.438 2.683,-2.354 0.678,-0.814 0.947,-1.61 1.412,-2.447 0.466,0.835 0.735,1.633 1.412,2.447 0.75,0.899 1.625,1.673 2.636,2.306 -1.456,1.322 -2.542,3.039 -2.542,5.178 v 15.342 14.826 0.377 2.259 1.366 h 1.13 c 0.092,0.018 0.185,0.045 0.282,0.045 H 5.6 9.789 c 2.175,0 4.08,-0.995 5.411,-2.493 0.382,1.157 0.707,2.478 0.707,4.047 0,1.542 -0.29,2.902 -0.659,4.048 -1.331,-1.53 -3.258,-2.541 -5.459,-2.541 H 5.6 2.964 c -0.096,0 -0.19,0.029 -0.282,0.048 H 1.599 v 1.082 c -0.019,0.091 -0.047,0.185 -0.048,0.283 v 6.824 c 0,2.176 0.997,4.08 2.494,5.412 -1.157,0.38 -2.478,0.706 -4.046,0.706 h -0.001 z"
       style="fill:#f5d402;fill-opacity:1;fill-rule:nonzero;stroke:none"
       transform="matrix(1.3333333,0,0,-1.3333333,838.33333,288.40493)"
       clip-path="url(#clipPath8)" />
    <path
       id="path9"
       d="m 0,0 -9.635,0.294 -9.92,-4.67 -3.217,-10.803 1.461,-4.964 10.803,-11.675 8.761,4.964 7.005,7.584 1.747,6.721 25.108,32.692 -1.168,8.172 -5.553,-3.502 -2.041,6.711 -3.502,-1.168 z"
       style="fill:#d10429;fill-opacity:1;fill-rule:nonzero;stroke:none"
       transform="matrix(1.3333333,0,0,-1.3333333,778.20827,755.1028)"
       clip-path="url(#clipPath10)" />
    <path
       id="path11"
       d="M 0,0 11.667,-10.518 15.16,-9.635 28.031,5.25 25.089,15.464 13.138,22.763 4.082,21.89 l -20.143,30.062 -3.502,1.462 -1.453,-5.838 -5.847,1.747 -2.335,-6.417 26.56,-35.91 z"
       style="fill:#d10429;fill-opacity:1;fill-rule:nonzero;stroke:none"
       transform="matrix(1.3333333,0,0,-1.3333333,1012.9115,783.8972)"
       clip-path="url(#clipPath12)" />
    <path
       id="path13"
       d="M 0,0 14.895,-8.126 11.282,-24.7 -3.613,-16.574 Z"
       style="fill:#000000;fill-opacity:1;fill-rule:nonzero;stroke:none"
       transform="matrix(1.3333333,0,0,-1.3333333,781.56053,787.5156)"
       clip-path="url(#clipPath14)" />
    <path
       id="path15"
       d="m 0,0 -4.376,-4.519 2.73,-6.024 5.317,2.447 L 0.001,0 Z m -71.49,156.583 -5.365,-2.448 60.618,-132.772 h 6.448 l -61.702,135.218 v 0.001 -0.001 z"
       style="fill:#000000;fill-opacity:1;fill-rule:nonzero;stroke:none"
       transform="matrix(1.3333333,0,0,-1.3333333,784.36387,783.9584)"
       clip-path="url(#clipPath16)" />
    <path
       id="path17"
       d="M 0,0 9.238,-5.04 6.997,-15.321 -2.242,-10.28 Z"
       style="fill:#f5d402;fill-opacity:1;fill-rule:nonzero;stroke:none"
       transform="matrix(1.3333333,0,0,-1.3333333,784.42187,793.78)"
       clip-path="url(#clipPath18)" />
    <path
       id="path19"
       d="m 0,0 36.792,20.143 43.191,20.427 8.183,12.559 v 70.349 l -175.155,0.284 0.294,-71.516 5.259,-8.467 33.271,-18.386 42.621,-19.555 z"
       style="fill:#0b45bb;fill-opacity:1;fill-rule:nonzero;stroke:none"
       transform="matrix(1.3333333,0,0,-1.3333333,896.91467,737.586)"
       clip-path="url(#clipPath20)" />
    <path
       id="path21"
       d="m 0,0 2.211,-6.447 -0.518,-82.129 3.06,-3.387 25.274,-3.013 27.344,4.001 c 0,0 15.878,-2.452 26.828,-4.144 0.011,-0.055 0.329,-1.646 0.329,-1.646 0,0 3.973,0.606 5.224,0.801 1.23,-0.191 5.177,-0.801 5.177,-0.801 l 0.329,1.646 c 10.95,1.692 26.828,4.144 26.828,4.144 l 27.345,-4.001 25.274,3.013 3.059,3.387 -0.518,82.129 2.212,6.447 -30.262,-0.233 c 0,0 -34.587,-0.344 -59.442,-0.614 -24.851,0.27 -59.49,0.614 -59.49,0.614 L 0.001,0 v 0 z"
       style="fill:#d10429;fill-opacity:1;fill-rule:nonzero;stroke:none"
       transform="matrix(1.3333333,0,0,-1.3333333,778.22067,457.77347)"
       clip-path="url(#clipPath22)" />
    <path
       id="path23"
       d="M 0,0 C 0,0 -18.743,4.582 -25.744,13.837 -37.983,2.827 -52.618,-0.988 -52.618,-0.988 c 0,0 15.267,-6.894 26.874,-15.673 C -20.396,-8.998 0,0 0,0"
       style="fill:#000000;fill-opacity:1;fill-rule:nonzero;stroke:none"
       transform="matrix(1.3333333,0,0,-1.3333333,854.71027,579.07813)"
       clip-path="url(#clipPath24)" />
    <path
       id="path25"
       d="m 0,0 c 0,0 20.396,-8.997 25.746,-16.661 11.605,8.779 26.871,15.673 26.871,15.673 0,0 -14.633,3.816 -26.871,14.825 C 18.745,4.583 0,0 0,0"
       style="fill:#000000;fill-opacity:1;fill-rule:nonzero;stroke:none"
       transform="matrix(1.3333333,0,0,-1.3333333,940.99413,579.07813)"
       clip-path="url(#clipPath26)" />
    <path
       id="path27"
       d="m 0,0 -5.272,-14.968 -14.355,6.825 6.824,-14.355 -14.966,-5.317 14.966,-5.319 -6.824,-14.308 14.355,6.824 5.272,-14.965 5.318,14.965 14.355,-6.824 -6.823,14.308 14.966,5.319 -14.966,5.317 6.823,14.355 -14.355,-6.825 z"
       style="fill:#000000;fill-opacity:1;fill-rule:nonzero;stroke:none"
       transform="matrix(1.3333333,0,0,-1.3333333,897.8216,466.9304)"
       clip-path="url(#clipPath28)" />
    <path
       id="path29"
       d="M 0,0 5.167,5.58 10.94,-0.202 5.581,-5.571 Z"
       style="fill:#f5d402;fill-opacity:1;fill-rule:nonzero;stroke:none"
       transform="matrix(1.3333333,0,0,-1.3333333,857.8848,615.59507)"
       clip-path="url(#clipPath30)" />
    <path
       id="path31"
       d="m 0,0 -5.571,6.196 -5.783,-5.984 5.167,-5.571 z"
       style="fill:#f5d402;fill-opacity:1;fill-rule:nonzero;stroke:none"
       transform="matrix(1.3333333,0,0,-1.3333333,938.53,615.59507)"
       clip-path="url(#clipPath32)" />
    <path
       id="path33"
       d="m 0,0 -2.675,-5.985 -0.212,-16.512 4.34,-9.285 5.773,-2.483 -0.818,21.679 3.916,15.067 z"
       style="fill:#f5d402;fill-opacity:1;fill-rule:nonzero;stroke:none"
       transform="matrix(1.3333333,0,0,-1.3333333,922.83987,631.00267)"
       clip-path="url(#clipPath34)" />
    <path
       id="path35"
       d="m 0,0 v -17.752 l 5.157,3.714 3.512,8.054 0.616,14.029 -2.684,8.467 -10.315,1.857 z"
       style="fill:#f5d402;fill-opacity:1;fill-rule:nonzero;stroke:none"
       transform="matrix(1.3333333,0,0,-1.3333333,864.22267,652.46747)"
       clip-path="url(#clipPath36)" />
    <path
       id="path37"
       d="M 0,0 -0.202,10.737 8.881,23.112 19.61,25.595 7.64,31.377 -3.916,28.895 -9.901,21.88 -10.526,10.526 -2.059,0.616 Z"
       style="fill:#f5d402;fill-opacity:1;fill-rule:nonzero;stroke:none"
       transform="matrix(1.3333333,0,0,-1.3333333,959.442,681.64067)"
       clip-path="url(#clipPath38)" />
    <path
       id="path39"
       d="m 0,0 3.099,5.782 4.945,-3.301 5.985,1.242 3.926,5.985 -2.684,5.571 -2.887,2.271 4.128,2.27 1.655,6.813 -5.581,6.399 -5.36,-0.828 -2.684,-2.058 -1.241,4.945 -6.399,3.723 -5.369,-2.068 -2.684,-5.571 1.452,-4.955 -5.58,0.615 -4.542,-4.33 -0.616,-5.782 3.098,-3.714 4.33,-1.444 2.483,0.203 -2.069,-5.159 1.655,-5.157 5.157,-2.887 z"
       style="fill:#f5d402;fill-opacity:1;fill-rule:nonzero;stroke:none"
       transform="matrix(1.3333333,0,0,-1.3333333,827.61973,682.474)"
       clip-path="url(#clipPath40)" />
    <path
       id="path41"
       d="m 0,0 3.389,-9.556 9.13,4.377 -4.331,-9.177 9.508,-3.39 -9.508,-3.388 4.331,-9.13 -9.13,4.33 -3.436,-9.507 -3.389,9.507 -9.13,-4.33 4.33,9.13 -9.507,3.388 9.507,3.39 -4.33,9.177 9.13,-4.377 z"
       style="fill:#ffd200;fill-opacity:1;fill-rule:nonzero;stroke:none"
       transform="matrix(1.3333333,0,0,-1.3333333,897.8952,480.36453)"
       clip-path="url(#clipPath42)" />
    <path
       id="path43"
       d="m 0,0 c -0.864,-6.046 -31.297,-18.617 -31.297,-43.958 0,-32.444 30.356,-40.099 30.356,-40.099 l -1.272,-2.306 -7.388,-13.46 c 0,0 12.544,-0.628 19.203,-6.308 8.028,-6.847 7.247,-21.355 7.247,-31.909 0,-8.315 -1.051,-17.091 -5.318,-20.707 -5.729,-4.858 -9.602,-5.218 -9.602,-10.92 0,-4.757 3.656,-5.711 9.602,-8.85 7.619,-4.019 7.264,-9.412 18.59,-9.412 11.327,0 11.018,5.392 18.637,9.412 5.947,3.139 9.602,4.093 9.602,8.85 0,5.702 -3.874,6.062 -9.602,10.92 -4.266,3.618 -5.317,12.393 -5.317,20.707 0,10.554 -0.781,25.062 7.247,31.909 6.659,5.679 19.202,6.308 19.203,6.308 l -7.39,13.46 -1.27,2.306 c 0,0 30.356,7.655 30.356,40.099 0,25.34 -30.433,37.912 -31.298,43.958 -2.974,-10.463 10.166,-24.914 10.166,-42.028 0,-22.143 -16.331,-23.203 -16.331,-23.203 -3.822,0 -5.37,-2.729 -6.873,-2.729 -3.214,0.335 -4.728,4.425 -7.907,4.425 -2.985,0 -5.277,-4.612 -9.223,-4.612 -3.946,0 -6.192,4.612 -9.179,4.612 -3.177,0 -4.691,-4.09 -7.906,-4.425 -1.502,0 -3.051,2.729 -6.873,2.729 0,0 -16.33,1.06 -16.33,23.203 0,17.114 13.142,31.567 10.165,42.028 z"
       style="fill:#000000;fill-opacity:1;fill-rule:nonzero;stroke:none"
       transform="matrix(1.3333333,0,0,-1.3333333,857.66467,463.92707)"
       clip-path="url(#clipPath44)" />
    <path
       id="path45"
       d="m 0,0 c 6.187,-7.082 16.003,-9.789 16.003,-9.789 -0.002,0 -15.72,-11.672 -15.72,-11.672 l -0.189,-0.235 -0.329,0.282 -17.413,10.92 c 0,0 11.111,3.831 17.649,10.495 L 0.001,0 Z"
       style="fill:#ffd200;fill-opacity:1;fill-rule:nonzero;stroke:none"
       transform="matrix(1.3333333,0,0,-1.3333333,820.00787,566.78387)"
       clip-path="url(#clipPath46)" />
    <path
       id="path47"
       d="m 0,0 c 1.248,-2.688 -10.166,-19.261 -10.166,-32.852 0,-16.666 8.887,-26.497 20.755,-26.497 2.264,0 4.74,-3.059 6.872,-3.059 3.477,0 5.79,3.859 7.908,3.859 2.691,0 4.505,-4.235 9.176,-4.235 4.674,0 6.534,4.235 9.225,4.235 2.117,0 4.43,-3.859 7.907,-3.859 2.134,0 4.607,3.059 6.872,3.059 11.868,0 20.756,9.831 20.756,26.497 0,13.591 -11.415,30.164 -10.166,32.852 0,0 22.261,-15.968 22.261,-34.781 0,-30.304 -30.733,-37.794 -30.733,-37.794 l 6.918,-15.577 c 0,0 -9.526,-1.429 -15.343,-6.119 -7.759,-6.256 -7.861,-23.16 -7.861,-34.591 0,-13.467 0.502,-19.173 5.367,-22.827 5.13,-3.855 8.988,-4.685 8.988,-8.614 0,-3.423 -3.994,-4.822 -9.177,-7.106 -5.896,-2.599 -6.484,-7.108 -15.014,-7.108 -8.53,0 -9.071,4.509 -14.966,7.108 -5.183,2.284 -9.179,3.682 -9.179,7.106 0,3.929 3.859,4.759 8.989,8.614 4.865,3.654 5.365,9.36 5.365,22.827 0,11.431 -0.101,28.335 -7.859,34.591 -5.818,4.692 -15.343,6.119 -15.343,6.119 l 6.917,15.577 c 0,0 -30.732,7.489 -30.732,37.794 C -22.263,-15.968 -0.002,0 -0.002,0 Z"
       style="fill:#ffd200;fill-opacity:1;fill-rule:nonzero;stroke:none"
       transform="matrix(1.3333333,0,0,-1.3333333,851.76827,476.16013)"
       clip-path="url(#clipPath48)" />
    <path
       id="path49"
       d="m 0,0 c 6.538,-6.663 17.649,-10.494 17.649,-10.494 0,0 -11.591,-5.774 -17.415,-10.92 0.219,-1.061 -0.287,-0.246 -0.328,-0.282 -0.271,-0.346 -0.104,0.13 -0.187,0.235 C -5.785,-15.145 -16,-9.789 -16,-9.789 c 0,0 9.814,2.707 16.001,9.789 z"
       style="fill:#ffd200;fill-opacity:1;fill-rule:nonzero;stroke:none"
       transform="matrix(1.3333333,0,0,-1.3333333,975.69667,566.78387)"
       clip-path="url(#clipPath50)" />
    <path
       id="path51"
       d="M 0,0 -7.295,-7.294 0,-14.589 7.295,-7.294 Z"
       style="fill:#000000;fill-opacity:1;fill-rule:nonzero;stroke:none"
       transform="matrix(1.3333333,0,0,-1.3333333,864.946,605.6784)"
       clip-path="url(#clipPath52)" />
    <path
       id="path53"
       d="M 0,0 -7.294,-7.294 0,-14.589 7.295,-7.294 Z"
       style="fill:#000000;fill-opacity:1;fill-rule:nonzero;stroke:none"
       transform="matrix(1.3333333,0,0,-1.3333333,930.7708,605.6784)"
       clip-path="url(#clipPath54)" />
    <path
       id="path55"
       d="M 0,0 3.813,-3.811 0,-7.671 l -3.86,3.86 z"
       style="fill:#ffd200;fill-opacity:1;fill-rule:nonzero;stroke:none"
       transform="matrix(1.3333333,0,0,-1.3333333,864.946,610.32427)"
       clip-path="url(#clipPath56)" />
    <path
       id="path57"
       d="M 0,0 3.86,-3.811 0,-7.671 l -3.812,3.86 z"
       style="fill:#ffd200;fill-opacity:1;fill-rule:nonzero;stroke:none"
       transform="matrix(1.3333333,0,0,-1.3333333,930.7708,610.32427)"
       clip-path="url(#clipPath58)" />
    <path
       id="path59"
       d="M 0,0 C 1.449,-3.585 4.894,-14.688 4.894,-28.004 4.894,-37.22 4,-42.076 4,-42.076 c 0,0 10.284,3.027 12.333,13.46 0.959,4.891 2.028,22.909 -2.919,25.98 L 0.001,0 Z"
       style="fill:#000000;fill-opacity:1;fill-rule:nonzero;stroke:none"
       transform="matrix(1.3333333,0,0,-1.3333333,855.97267,625.13147)"
       clip-path="url(#clipPath60)" />
    <path
       id="path61"
       d="m 0,0 -13.414,-2.637 c -4.947,-3.07 -3.878,-21.088 -2.918,-25.979 2.047,-10.434 12.331,-13.461 12.331,-13.461 0,0 -0.894,4.856 -0.894,14.073 0,13.315 3.445,24.419 4.896,28.003 l 0,0.001 z"
       style="fill:#000000;fill-opacity:1;fill-rule:nonzero;stroke:none"
       transform="matrix(1.3333333,0,0,-1.3333333,939.74347,625.13147)"
       clip-path="url(#clipPath62)" />
    <path
       id="path63"
       d="m 0,0 c -0.575,-0.024 -1.164,-0.09 -1.742,-0.234 -4.625,-1.161 -7.42,-5.87 -6.259,-10.495 0.177,-0.709 0.47,-1.362 0.8,-1.977 -0.674,0.225 -1.378,0.373 -2.118,0.424 -0.297,0.02 -0.603,0.01 -0.894,0 -4.377,-0.148 -8.026,-3.588 -8.33,-8.049 -0.326,-4.757 3.29,-8.853 8.049,-9.178 0.709,-0.048 1.4,-0.022 2.069,0.095 -0.409,-0.562 -0.763,-1.161 -1.034,-1.835 -1.781,-4.425 0.376,-9.517 4.801,-11.297 4.424,-1.779 9.467,0.424 11.247,4.848 0.272,0.676 0.424,1.335 0.518,2.024 0.408,-0.565 0.898,-1.084 1.458,-1.553 3.659,-3.059 9.131,-2.575 12.19,1.082 3.061,3.658 2.576,9.084 -1.083,12.143 -0.553,0.463 -1.167,0.827 -1.788,1.129 0.665,0.213 1.311,0.508 1.929,0.894 4.041,2.533 5.263,7.915 2.729,11.955 -1.741,2.777 -4.8,4.205 -7.859,4 C 13.292,-6.117 11.898,-6.55 10.635,-7.343 10.018,-7.729 9.47,-8.159 8.988,-8.66 8.989,-7.965 8.93,-7.25 8.753,-6.543 7.738,-2.495 4.018,0.173 -0.001,0 L 0,-0.001 v -0.001 z"
       style="fill:#000000;fill-opacity:1;fill-rule:nonzero;stroke:none"
       transform="matrix(1.3333333,0,0,-1.3333333,822.6556,629.03)"
       clip-path="url(#clipPath64)" />
    <path
       id="path65"
       d="m 0,0 7.201,-1.507 c 2.664,-3.676 2.212,-9.618 2.212,-17.886 0,-8.336 -6.26,-11.53 -6.26,-11.53 0,20.036 -2.065,24.854 -3.153,30.922 z"
       style="fill:#ffd200;fill-opacity:1;fill-rule:nonzero;stroke:none"
       transform="matrix(1.3333333,0,0,-1.3333333,862.24867,630.5248)"
       clip-path="url(#clipPath66)" />
    <path
       id="path67"
       d="m 0,0 c -1.089,-6.07 -3.152,-10.887 -3.152,-30.922 0,0 -6.26,3.194 -6.26,11.529 0,8.269 -0.452,14.209 2.212,17.886 z"
       style="fill:#ffd200;fill-opacity:1;fill-rule:nonzero;stroke:none"
       transform="matrix(1.3333333,0,0,-1.3333333,933.46747,630.5248)"
       clip-path="url(#clipPath68)" />
    <path
       id="path69"
       d="m 0,0 c 3.12,0.134 5.987,-1.936 6.778,-5.082 0.187,-0.75 0.207,-1.487 0.14,-2.213 -0.055,-0.601 -0.215,-1.147 -0.422,-1.693 -1.042,0.381 -2.169,0.565 -3.343,0.565 -2.903,0 -5.504,-1.278 -7.295,-3.296 -0.469,0.415 -0.878,0.875 -1.222,1.412 -0.386,0.597 -0.713,1.249 -0.895,1.977 -0.903,3.598 1.298,7.24 4.895,8.143 0.448,0.114 0.919,0.169 1.365,0.188 L 0.001,0 h 0.001 z"
       style="fill:#ffd200;fill-opacity:1;fill-rule:nonzero;stroke:none"
       transform="matrix(1.3333333,0,0,-1.3333333,823.34173,633.85933)"
       clip-path="url(#clipPath70)" />
    <path
       id="path71"
       d="m 0,0 c -11.048,0 -19.134,-8.515 -18.023,-18.966 0.935,-8.814 8.097,-16.198 16.942,-18.308 -1.51,2.47 -2.514,5.223 -2.824,8.141 -1.108,10.453 6.976,18.922 18.026,18.922 1.741,0 3.428,-0.216 5.082,-0.613 C 15.308,-4.437 7.973,0.001 0,0.001 L 0.001,0 H 0 v 0.001 z"
       style="fill:#000000;fill-opacity:1;fill-rule:nonzero;stroke:none"
       transform="matrix(1.3333333,0,0,-1.3333333,966.72333,637.5612)"
       clip-path="url(#clipPath72)" />
    <path
       id="path73"
       d="m 0,0 c 2.158,-0.072 4.227,-1.189 5.458,-3.153 1.971,-3.143 1.025,-7.302 -2.117,-9.272 -0.656,-0.411 -1.359,-0.684 -2.072,-0.847 -0.594,-0.138 -1.198,-0.124 -1.789,-0.094 0.004,0.095 0,0.184 0,0.283 0,3.998 -2.403,7.456 -5.835,8.988 0.242,0.586 0.527,1.146 0.94,1.648 0.443,0.536 0.977,1.02 1.602,1.412 1.178,0.739 2.515,1.079 3.811,1.035 l 0.001,0 z"
       style="fill:#ffd200;fill-opacity:1;fill-rule:nonzero;stroke:none"
       transform="matrix(1.3333333,0,0,-1.3333333,841.28773,640.7604)"
       clip-path="url(#clipPath74)" />
    <path
       id="path75"
       d="m 0,0 c 3.459,0 6.781,-1.06 9.649,-2.824 -10.783,-2.085 -18.544,-11.61 -17.415,-22.733 -3.436,2.846 -5.95,6.68 -6.4,10.919 C -15.041,-6.383 -9.044,0 0.001,0 Z"
       style="fill:#ffd200;fill-opacity:1;fill-rule:nonzero;stroke:none"
       transform="matrix(1.3333333,0,0,-1.3333333,966.72333,642.7708)"
       clip-path="url(#clipPath76)" />
    <path
       id="path77"
       d="M 0,0 C 0.783,-0.055 1.484,-0.271 2.164,-0.563 2.708,-0.802 3.211,-1.107 3.67,-1.458 2.363,-3.133 1.6,-5.246 1.6,-7.529 c 0,-1.792 0.481,-3.451 1.317,-4.896 -0.568,-0.356 -1.165,-0.638 -1.834,-0.801 -0.65,-0.158 -1.323,-0.235 -2.025,-0.187 -3.7,0.253 -6.512,3.452 -6.259,7.153 C -6.947,-2.56 -3.699,0.254 0,0"
       style="fill:#ffd200;fill-opacity:1;fill-rule:nonzero;stroke:none"
       transform="matrix(1.3333333,0,0,-1.3333333,812.35867,648.164)"
       clip-path="url(#clipPath78)" />
    <path
       id="path79"
       d="m 0,0 c 3.592,0 6.496,-2.95 6.496,-6.544 0,-3.592 -2.904,-6.495 -6.496,-6.495 -3.593,0 -6.496,2.903 -6.496,6.495 C -6.496,-2.95 -3.593,0 0,0"
       style="fill:#ffd200;fill-opacity:1;fill-rule:nonzero;stroke:none"
       transform="matrix(1.3333333,0,0,-1.3333333,827.54627,649.48827)"
       clip-path="url(#clipPath80)" />
    <path
       id="path81"
       d="m 0,0 c 0.643,-0.071 1.264,-0.226 1.882,-0.471 0.641,-0.255 1.278,-0.567 1.835,-1.035 2.844,-2.38 3.179,-6.614 0.801,-9.46 -2.381,-2.845 -6.616,-3.226 -9.461,-0.847 -0.6,0.502 -1.036,1.105 -1.412,1.742 -0.298,0.507 -0.492,1.046 -0.658,1.599 3.787,1.094 6.622,4.434 7.013,8.471 z"
       style="fill:#ffd200;fill-opacity:1;fill-rule:nonzero;stroke:none"
       transform="matrix(1.3333333,0,0,-1.3333333,840.528,659.4544)"
       clip-path="url(#clipPath82)" />
    <path
       id="path83"
       d="m 0,0 c 1.758,-2.604 4.759,-4.33 8.144,-4.33 0.71,0 1.4,0.091 2.069,0.235 0.141,-0.617 0.228,-1.24 0.188,-1.883 -0.043,-0.697 -0.149,-1.386 -0.423,-2.071 -1.384,-3.44 -5.313,-5.101 -8.754,-3.719 -3.441,1.384 -5.151,5.313 -3.766,8.755 0.28,0.694 0.667,1.299 1.13,1.835 0.407,0.473 0.894,0.848 1.412,1.177 v 0 0 z"
       style="fill:#ffd200;fill-opacity:1;fill-rule:nonzero;stroke:none"
       transform="matrix(1.3333333,0,0,-1.3333333,816.68613,665.4844)"
       clip-path="url(#clipPath84)" />
    <path
       id="path85"
       d="m 0,0 c -6.038,0 -9.883,-1.274 -9.883,-3.106 0,-1.834 3.846,-3.06 9.883,-3.06 1.609,0 3.436,0.937 3.436,3.06 C 3.436,-0.984 1.608,0 0,0"
       style="fill:#000000;fill-opacity:1;fill-rule:nonzero;stroke:none"
       transform="matrix(1.3333333,0,0,-1.3333333,882.32747,686.82547)"
       clip-path="url(#clipPath86)" />
    <path
       id="path87"
       d="m 0,0 c -1.609,0 -3.436,-0.985 -3.436,-3.106 -10e-4,-2.123 1.827,-3.06 3.436,-3.06 6.038,0 9.883,1.225 9.883,3.06 C 9.883,-1.273 6.037,0 0,0"
       style="fill:#000000;fill-opacity:1;fill-rule:nonzero;stroke:none"
       transform="matrix(1.3333333,0,0,-1.3333333,913.38933,686.82547)"
       clip-path="url(#clipPath88)" />
    <path
       id="path89"
       d="m 0,0 c -1.338,-0.135 -2.175,-0.928 -2.446,-1.46 -0.412,-0.806 -0.488,-1.908 0,-2.869 0,0 -3.294,1.03 -4.424,0.471 -1.065,-0.527 0,-16.05 0,-16.05 0,0 13.142,8.291 12.941,9.46 -0.211,1.243 -2.965,3.342 -2.965,3.342 1.065,0.17 1.895,0.838 2.307,1.646 0.432,0.851 0.49,3.28 -2.495,4.802 C 1.8,-0.088 0.805,0.081 -0.001,0 Z m 98.223,186.426 -10.448,-7.625 1.178,-2.493 c 0,0 -1.912,-0.657 -2.779,-2.353 -0.864,-1.698 0.566,-4.096 0.566,-4.096 0,0 -9.933,0.867 -11.484,-0.141 -1.404,-0.91 0.595,-7.791 -0.33,-13.602 -1.289,-8.099 -4.482,-7.419 -4.612,-8.989 -0.127,-1.525 1.224,-3.906 1.224,-3.906 0,0 -1.863,-0.586 -2.26,-1.366 -0.639,-1.251 0.445,-3.562 -0.329,-5.082 -4.322,-8.478 -10.701,-20.994 -14.92,-29.274 -0.589,-1.155 -2.172,-1.597 -2.966,-3.153 -0.731,-1.437 -0.14,-3.53 -0.14,-3.53 0,0 -2.796,-0.168 -3.766,-2.071 -1.03,-2.022 -0.424,-4.753 -0.424,-4.753 0,0 -1.767,-0.226 -2.636,-1.929 -0.928,-1.822 0.643,-2.777 0.238,-3.578 -5.671,-11.126 -12.351,-24.242 -16.426,-32.24 -1.499,-2.94 -6.746,-3.53 -9.791,-9.507 -2.955,-5.798 1.27,-10.071 1.27,-10.071 0,0 -4.387,-0.397 -5.553,-2.684 -1.187,-2.331 -0.248,-5.869 2.918,-7.482 3.167,-1.613 6.626,-0.308 7.815,2.023 1.165,2.287 -1.178,6.072 -1.178,6.072 0,0 5.942,-0.857 8.895,4.942 3.046,5.977 0.478,10.519 1.977,13.46 4.076,7.998 10.756,21.113 16.426,32.24 0.409,0.801 2.084,0.108 3.011,1.929 0.868,1.703 0,3.247 0,3.247 0,0 2.595,1.131 3.625,3.154 0.971,1.904 -0.517,4.283 -0.517,4.283 0,0 2.044,0.727 2.776,2.164 0.793,1.556 0.21,3.08 0.799,4.237 4.22,8.279 10.601,20.796 14.92,29.272 0.775,1.522 3.269,2.042 3.906,3.296 0.398,0.779 -0.234,2.635 -0.234,2.635 0,0 2.747,0.273 3.906,1.272 1.193,1.028 -1.23,3.232 4.566,9.036 4.158,4.163 10.864,6.612 10.777,8.283 -0.097,1.849 -6.636,9.366 -6.636,9.366 0,0 2.759,0.233 3.624,1.929 0.865,1.697 0.283,3.672 0.283,3.672 l 2.729,0.47 v 12.943 0.001 -0.001 h 0.001 z"
       style="fill:#000000;fill-opacity:1;fill-rule:nonzero;stroke:none"
       transform="matrix(1.3333333,0,0,-1.3333333,1016.7728,793.0052)"
       clip-path="url(#clipPath90)" />
    <path
       id="path91"
       d="M 0,0 C 0.165,0.024 0.354,0.013 0.518,0 0.912,-0.032 1.288,-0.153 1.6,-0.424 L 8.049,-6.023 C 8.882,-6.746 8.883,-8.034 8.095,-8.942 7.306,-9.851 6.009,-9.996 5.177,-9.272 l -6.402,5.554 c -0.834,0.723 -0.882,2.057 -0.093,2.965 C -0.948,-0.328 -0.493,-0.072 0,0 m -186.849,0 c 0.656,0.053 1.344,-0.185 1.836,-0.753 0.789,-0.908 0.739,-2.242 -0.093,-2.965 l -6.402,-5.554 c -0.833,-0.724 -2.129,-0.579 -2.918,0.33 -0.789,0.908 -0.785,2.195 0.047,2.919 l 6.448,5.599 c 0.311,0.273 0.689,0.393 1.082,0.424 M 4.091,4.235 c 0.169,0.029 0.353,0.013 0.517,0 0.394,-0.032 0.77,-0.199 1.082,-0.47 l 6.402,-5.554 c 0.833,-0.723 0.885,-2.057 0.093,-2.964 C 11.398,-5.661 10.1,-5.806 9.267,-5.082 L 2.82,0.52 C 1.987,1.242 1.937,2.528 2.726,3.437 c 0.37,0.424 0.86,0.714 1.366,0.8 V 4.236 Z m -195.03,0 c 0.653,0.053 1.388,-0.231 1.881,-0.799 0.788,-0.909 0.739,-2.195 -0.094,-2.918 l -6.447,-5.601 c -0.833,-0.724 -2.129,-0.579 -2.919,0.329 -0.789,0.907 -0.738,2.241 0.096,2.964 l 6.399,5.554 c 0.312,0.271 0.69,0.437 1.083,0.47 h 0.001 z M 7.722,8.565 c 0.166,0.028 0.353,0.014 0.518,0 C 8.634,8.533 9.056,8.367 9.37,8.096 L 15.771,2.542 C 16.603,1.819 16.654,0.484 15.865,-0.424 15.076,-1.33 13.732,-1.477 12.9,-0.751 l -6.401,5.6 C 5.667,5.571 5.616,6.857 6.406,7.768 6.775,8.192 7.229,8.482 7.723,8.567 V 8.566 Z m -202.284,0 c 0.655,0.054 1.342,-0.233 1.836,-0.799 0.788,-0.909 0.737,-2.196 -0.095,-2.919 l -6.4,-5.6 c -0.833,-0.725 -2.176,-0.579 -2.966,0.328 -0.788,0.908 -0.738,2.242 0.095,2.965 l 6.4,5.554 c 0.312,0.272 0.737,0.438 1.13,0.47 z m 205.576,2.306 c 0.218,0.026 0.44,-0.038 0.613,-0.187 L 14.262,8.378 C 14.605,8.079 14.635,7.528 14.309,7.154 13.982,6.778 13.429,6.715 13.086,7.013 l -2.637,2.306 c -0.345,0.298 -0.373,0.848 -0.047,1.223 0.164,0.187 0.393,0.305 0.613,0.329 h -0.001 0.001 z m -208.352,0 c 0.218,-0.023 0.448,-0.141 0.612,-0.329 0.325,-0.375 0.296,-0.925 -0.049,-1.223 l -2.635,-2.305 c -0.344,-0.298 -0.898,-0.235 -1.222,0.141 -0.326,0.375 -0.298,0.925 0.048,1.224 l 2.634,2.306 c 0.172,0.149 0.394,0.213 0.613,0.188 v -0.002 z m 83.173,35.202 c 0,0 -31.89,-73.304 -60.195,-84.576 0,0 12.315,-5.231 27.438,-13.084 2.206,-1.145 4.478,-2.375 6.777,-3.625 1.904,2.293 3.908,4.841 5.883,7.484 9.043,12.099 17.886,26.122 17.886,26.122 0.616,-3.642 -4.159,-14.889 -12.237,-28.759 -1.588,-2.725 -3.245,-5.574 -5.083,-8.47 2.05,-1.17 4.083,-2.353 6.119,-3.578 14.98,-9.014 29.049,-19.377 34.261,-28.897 5.213,9.52 19.282,19.882 34.264,28.897 2.034,1.225 4.068,2.408 6.117,3.578 -1.837,2.896 -3.494,5.743 -5.082,8.47 -8.078,13.87 -12.852,25.117 -12.236,28.759 0,0 8.843,-14.023 17.886,-26.122 1.973,-2.642 3.979,-5.191 5.882,-7.484 2.297,1.249 4.571,2.479 6.777,3.625 15.125,7.854 27.436,13.084 27.436,13.084 -28.304,11.27 -60.195,84.576 -60.195,84.576 l -4.705,-1.364 c 0,0 25.435,-63.343 50.311,-82.505 -5.657,-1.702 -12.278,-4.146 -19.109,-7.06 -8.3,9.723 -16.885,22.838 -23.86,34.5 -7.531,12.589 -13.696,34.685 -13.696,34.685 -3.492,-8.48 3.95,-51.08 18.967,-78.034 -12.419,-6.464 -23.47,-13.469 -28.757,-19.201 -5.286,5.733 -16.336,12.737 -28.755,19.201 15.016,26.952 22.457,69.554 18.966,78.034 0,0 -6.165,-22.095 -13.697,-34.685 -6.974,-11.662 -15.56,-24.777 -23.861,-34.5 -6.828,2.914 -13.45,5.358 -19.108,7.06 24.875,19.162 50.312,82.505 50.312,82.505 l -4.706,1.364 h -10e-4 z m 88.385,3.86 c 0.509,-0.32 1.145,-0.495 1.836,-0.66 1.051,-1.618 11.933,-18.411 18.637,-28.755 1.627,-2.512 9.704,-0.556 10.73,-0.753 4.289,-0.824 10.421,-5.37 11.014,-7.012 0.342,-0.948 -0.469,-2.493 -1.366,-2.542 -1.519,-0.08 -2.9,2.002 -7.859,3.53 -4.554,1.405 -7.97,-0.094 -11.906,2.824 0.203,-3.799 5.365,-6.696 5.365,-9.365 -3.339,0 -5.272,2.212 -5.272,2.212 0,0 0.283,-2.581 0.283,-4.753 0,-2.211 -2.588,-3.435 -2.588,-3.435 0,0 -1.483,6.048 -3.249,8.425 -7.102,9.561 -21.456,29.151 -23.954,32.568 0.505,2.635 0.894,4.566 0.894,4.566 l 5.835,-4.001 c 1.665,1.865 1.6,7.155 1.6,7.155 v -10e-4 z m -135.025,0 c 0,0 -0.062,-5.289 1.602,-7.155 l 5.836,4.001 c 0,0 0.389,-1.93 0.894,-4.566 -2.499,-3.417 -16.853,-23.006 -23.956,-32.568 -1.766,-2.375 -3.249,-8.424 -3.249,-8.424 0,0 -2.587,1.223 -2.587,3.434 0,2.172 0.283,4.754 0.283,4.754 0,0 -1.931,-2.212 -5.272,-2.212 0,2.669 5.161,5.565 5.365,9.365 -3.936,-2.918 -7.354,-1.42 -11.906,-2.825 -4.958,-1.526 -6.339,-3.61 -7.86,-3.53 -0.895,0.049 -1.706,1.594 -1.364,2.542 0.592,1.644 6.724,6.19 11.011,7.012 1.027,0.197 9.104,-1.758 10.732,0.753 6.703,10.344 17.587,27.137 18.636,28.756 0.692,0.165 1.328,0.34 1.834,0.659 v 10e-4 h 0.001 z m 133.95,17.601 -3.201,-1.599 c 0,0 4.491,-11.006 8.284,-12.802 0,0 -4.322,-0.367 -6.918,1.364 -0.466,-2.529 -1.083,-6.401 -1.083,-6.401 -2.063,0.067 -5.836,2.919 -5.836,2.919 -0.799,-2.013 -2.165,-7.719 -2.165,-7.719 -3.194,2.13 -13.037,13.603 -13.037,13.603 l -4.518,-2.964 c 0,0 16.325,-13.101 19.72,-19.957 0.192,1.126 0.363,2.046 0.564,3.153 2.996,-3.974 16.1,-21.368 22.685,-30.45 1.968,-2.716 2.098,-5.615 3.813,-8.143 3.325,-4.908 6.944,-7.285 10.683,-10.684 1.492,-1.357 5.732,-0.673 6.683,0.377 1.221,1.35 9.507,11.671 9.507,11.671 0,0 0.601,-0.504 0.941,-1.928 0,0 3.154,4.081 3.154,7.059 0,2.71 -1.168,5.999 -2.73,8.706 -1.487,2.577 -10.546,8.944 -14.542,8.944 -4.819,0 -7.031,-2.418 -10.166,3.011 -3.35,5.804 -14.039,21.192 -15.437,23.203 2.275,-0.02 4.282,0.236 4.282,0.236 -2.995,2.796 -10.683,18.402 -10.683,18.402 h 0.001 z m -132.865,0 c 0,0 -7.686,-15.605 -10.681,-18.4 0,0 2.007,-0.255 4.282,-0.236 -1.4,-2.011 -12.087,-17.399 -15.437,-23.203 -3.135,-5.429 -5.347,-3.012 -10.166,-3.012 -3.997,0 -13.055,-6.367 -14.543,-8.943 -1.563,-2.707 -2.728,-5.997 -2.728,-8.707 0,-2.978 3.153,-7.059 3.153,-7.059 0.34,1.425 0.941,1.929 0.941,1.929 0,0 8.286,-10.322 9.507,-11.671 0.951,-1.05 5.189,-1.734 6.684,-0.378 3.737,3.399 7.356,5.776 10.683,10.684 1.713,2.529 1.843,5.428 3.812,8.144 6.584,9.083 19.688,26.476 22.685,30.449 0.2,-1.106 0.372,-2.027 0.562,-3.153 3.396,6.855 19.721,19.956 19.721,19.956 l -4.518,2.965 c 0,0 -9.841,-11.472 -13.037,-13.602 0,0 -1.365,5.705 -2.165,7.719 0,0 -3.77,-2.853 -5.834,-2.92 0,0 -0.617,3.872 -1.083,6.402 -2.597,-1.731 -6.918,-1.365 -6.918,-1.365 3.794,1.796 8.283,12.802 8.283,12.802 l -3.199,1.6 -0.002,-0.002 z m 198.8,163.313 8.002,-7.435 7.907,7.387 V 0.282 C 49.802,3.409 39.08,17.098 39.08,22.967 V 230.85 Z m -264.735,0 V 22.964 c 0,-5.87 -10.719,-19.557 -15.908,-22.685 v 230.518 l 7.907,-7.388 8.001,7.435 z m 260.176,0.047 V 16.144 c 0,0 -13.385,13.535 -16.944,17.129 0.383,5.907 0.94,14.968 0.94,14.968 v 182.61 l 8.002,-7.436 8.001,7.483 v -0.001 h 10e-4 z m -255.607,0 8,-7.482 8.001,7.436 V 48.238 c 0,0 0.558,-9.061 0.941,-14.967 -3.557,-3.595 -16.942,-17.13 -16.942,-17.13 V 230.9 Z M 45.718,255.32 v -22.073 l -4.331,4.047 -3.247,3.012 v 7.954 l 3.247,3.011 4.331,4.048 z m -17.837,0 4.33,-4.047 3.248,-3.059 v -7.86 l -3.248,-3.06 -4.33,-4.046 v 22.073 z m -2.73,0 v -22.073 l -4.283,4.001 -3.294,3.105 v 7.86 l 7.578,7.106 h -0.001 z m -17.837,0 c 2.337,-3.095 4.963,-6.029 7.577,-7.623 v -7.389 l -3.247,-3.059 -4.33,-4.047 v 22.119 z m -201.199,0 v -22.119 l -4.331,4.047 -3.248,3.06 v 7.388 c 2.613,1.595 5.242,4.527 7.578,7.625 v -0.001 z m -17.838,0 7.578,-7.106 v -7.86 l -3.295,-3.105 -4.283,-4.001 v 22.073 z m -2.73,0 v -22.073 l -4.33,4.047 -3.246,3.06 v 7.86 l 3.246,3.059 z m -17.837,0 4.331,-4.047 3.248,-3.011 v -7.954 l -3.248,-3.012 -4.331,-4.046 v 22.073 -0.002 z m 280.695,0.049 6.589,-6.165 v -9.837 l -6.589,-6.166 z m -283.37,0 v -22.168 l -6.59,6.166 v 9.837 z m 252.545,23.673 7.578,-7.295 v -7.859 l -7.578,-7.06 z m -221.72,0 v -22.214 l -7.578,7.06 v 7.859 z m 219.035,1.224 v -24.05 c -4.973,2.679 -9.581,8.762 -11.342,11.249 4.969,2.435 10.202,10.903 11.342,12.802 z m -216.35,0 c 1.141,-1.898 6.374,-10.366 11.342,-12.802 -1.76,-2.487 -6.368,-8.569 -11.342,-11.249 v 24.05 z m 239.601,1.835 7.578,-7.954 v -10.258 l -7.578,-7.06 v 25.274 -0.001 z m -262.852,0 v -25.274 l -7.578,7.06 v 10.259 l 7.578,7.953 v 0.001 z m 260.176,2.07 V 256.78 l -7.578,7.107 v 8.754 l 7.578,11.529 v -0.001 0.001 z m -257.491,0 7.576,-11.529 v -8.754 l -7.576,-7.108 v 27.391 0.001 z m 274.756,1.789 c 1.418,-2.666 2.259,-5.093 2.259,-7.107 v -21.038 l -6.589,6.118 v 14.168 z m -292.031,0 4.331,-7.859 v -14.168 l -6.589,-6.118 v 21.038 c 0,2.014 0.845,4.441 2.259,7.107 z m 265.067,28.38 c 8.702,-6.345 17.956,-15.223 23.675,-23.109 -1.015,-2.18 -4.754,-10.213 -4.754,-10.213 0,0 -7.449,7.668 -9.364,9.649 v 2.447 c 0,2.256 -1.447,4.662 -2.825,6.447 l -2.73,-0.988 c 1.311,-1.542 2.872,-3.805 2.872,-5.836 v -3.012 l -8.144,-12.331 -6.917,7.435 -0.471,0.518 -0.894,0.942 v 1.366 c 0,2.317 -1.153,4.111 -2.211,5.317 l -2.779,-0.987 c 0.959,-0.876 2.26,-2.492 2.26,-4.707 v -2.354 C 10.676,280.915 4.879,273.335 0.264,271.746 v 17.18 l 0.236,5.836 c 6.366,2.208 25.272,19.532 25.272,19.532 v 0.047 h -10e-4 z m -238.093,0 v -0.046 c 0,0 18.906,-17.323 25.274,-19.532 l 0.235,-5.836 v -17.18 c -4.615,1.588 -10.413,9.169 -13.225,13.178 v 2.354 c 0,2.214 1.303,3.831 2.259,4.706 l -2.776,0.987 c -1.059,-1.207 -2.212,-2.999 -2.212,-5.317 v -1.365 l -0.894,-0.943 -0.47,-0.518 -6.919,-7.435 -8.141,12.331 v 3.012 c 0,2.03 1.561,4.293 2.871,5.836 l -2.731,0.988 c -1.378,-1.785 -2.824,-4.191 -2.824,-6.447 v -2.446 c -1.915,-1.982 -9.365,-9.65 -9.365,-9.65 0,0 -3.739,8.032 -4.753,10.213 5.704,7.902 14.954,16.749 23.673,23.11 l -0.001,-10e-4 z m 106.838,36.239 c 0.999,-0.01 1.926,-0.048 2.728,-0.048 10.534,0 17.943,-4.803 27.911,-9.224 2.612,-1.159 5.01,-2.097 7.151,-2.823 -1.341,-1.189 -2.385,-2.383 -2.682,-3.39 0,0 4.467,-0.827 6.494,-4.566 0,0 -4.247,-0.482 -4.942,-2.965 2.38,-0.179 4.743,-3.178 4.754,-6.072 l -6.024,1.884 c 0,0 1.459,-6.765 1.459,-14.119 0,-3.756 -5.411,-8.177 -5.411,-14.544 0,-19.981 5.033,-27.661 8.613,-33.838 1.4,-2.417 2.538,-5.198 4.894,-7.295 -10.313,5.491 -17.978,12.355 -17.978,18.731 v 24.144 H -81.2 V 272.31 c 0,-4.623 1.129,-6.778 1.129,-6.778 1.619,-5.115 4.892,-13.01 6.919,-16.189 -9.489,5.128 -14.308,11.55 -14.308,13.93 v 33.182 h -2.683 v -33.651 l 0.518,-2.306 c -1.151,-1.728 -2.646,-3.775 -3.671,-4.471 -1.024,0.695 -2.474,2.745 -3.625,4.471 l 0.518,2.306 v 33.651 h -2.683 v -33.182 c 0,-2.379 -4.82,-8.802 -14.308,-13.93 2.028,3.18 5.3,11.074 6.917,16.189 0,0 1.13,2.154 1.13,6.778 v 24.144 h -2.682 V 272.31 c 0,-6.369 -7.637,-13.244 -17.932,-18.731 2.332,2.099 3.454,4.892 4.847,7.295 3.914,6.755 8.754,15.337 8.754,39.769 0,9.17 -1.356,15.404 -3.718,19.767 -0.718,1.44 -1.685,5.272 3.811,5.272 2.848,0 9.367,-5.036 9.367,-5.036 0,0 -0.268,4.018 -3.578,6.306 -0.548,0.38 -1.458,1.574 -1.458,2.684 0,0.831 1.426,2.882 2.54,3.388 0.767,0.348 -11.2,2.433 -11.2,7.86 0,1.13 0.711,1.883 3.199,1.883 3.259,0 8.561,-3.906 13.273,-3.906 3.484,0 4.857,0.847 8.424,0.847 4.36,0 13.455,-8.254 16.566,-7.953 -3.478,2.183 -9.096,10.448 -17.601,10.448 -2.952,0 -5.624,-0.659 -8.379,-0.659 -3.531,0 -7.008,3.248 -10.824,3.248 -2.558,0 -5.415,-0.142 -5.837,0.519 -0.74,1.153 -0.074,1.823 0.612,2.776 1.295,1.799 4.934,2.322 8.519,2.447 1.076,0.037 2.15,0.056 3.153,0.048 v -10e-4 h 0.002 0.001 z m -0.236,2.964 c -3.287,0 -8.128,-0.089 -10.966,-1.977 -2.597,-1.724 -2.385,-3.966 -3.294,-4.753 -2.143,-1.854 -5.812,-1.788 -7.579,-1.788 -11.437,0 -11.86,-12.237 -11.86,-12.237 0,0 2.924,4.424 8.094,4.424 8.597,0 15.108,-4.683 15.108,-6.447 0,-0.715 -0.886,-0.847 -0.94,-0.847 -5.616,0 -14.09,3.232 -18.593,3.389 v -1.789 c 0.061,-0.04 0.102,-0.092 0.19,-0.142 -0.065,0.012 -0.126,0.035 -0.19,0.048 v -0.329 c 10.05,-3.496 20.238,-8.446 20.238,-30.262 0,-13.738 -1.644,-27.755 -8.517,-38.781 -2.435,-3.905 -5.901,-7.245 -10.072,-10.214 -1.856,0.56 -10.585,3.273 -16.708,6.683 -10.78,6.005 -16.37,11.979 -29.18,12.566 v 9.744 c 0,5.205 1.884,9.895 1.884,14.872 -5.401,1.448 -20.39,19.775 -34.217,27.909 -20.345,-13.177 -36.098,-34.811 -36.098,-44.759 0,0 0.611,-213.758 0,-288.225 0,-4.292 -2.588,-10.355 -2.588,-10.355 7.427,3.143 21.042,21.771 23.908,28.851 v -3.39 c 11.217,5.116 19.431,18.557 23.109,25.51 0.065,-1.005 0.237,-3.528 0.237,-3.528 10.02,8.784 22.777,60.712 22.777,60.712 l -0.658,10.919 c 0,0 -8.823,-42.397 -18.872,-51.113 v 182.565 l 7.954,-7.388 12.048,11.248 v 8.566 l -10.684,-9.977 v 25.838 c 1.61,2.435 2.677,4.253 3.482,5.694 1.73,-3.014 7.319,-12.254 13.884,-17.931 1.08,4.392 8.189,8.566 8.189,8.566 0,0 2.548,-6.902 6.447,-8.612 1.372,2.416 9.556,7.764 9.556,7.764 0,0 -7.002,-1.063 -9.838,-3.718 -2.435,0.545 -3.059,10.166 -3.059,10.166 0,0 -10.304,-5.019 -12.095,-8.613 -1.965,0.532 -5.023,8.264 -6.214,11.437 1.797,0.196 4.336,0.423 7.672,0.423 2.938,0 6.697,-1.392 10.636,-3.247 4.327,-2.037 8.854,-4.617 12.897,-6.449 5.177,-2.344 13.011,-2.82 15.295,-2.918 -2.616,-1.838 -5.492,-3.517 -8.612,-5.083 0,0 12.329,0.114 20.991,4.425 3.09,1.988 6.296,3.968 9.036,6.307 -1.189,-3.303 -3.039,-7.207 -5.932,-10.542 12.72,1.076 19.055,8.34 20.85,10.777 0.844,-2.183 2.347,-5.688 4.707,-8.706 2.36,3.018 3.908,6.523 4.754,8.706 1.798,-2.437 8.129,-9.701 20.848,-10.777 -2.891,3.335 -4.742,7.239 -5.93,10.542 2.739,-2.338 5.948,-4.319 9.037,-6.307 8.66,-4.311 20.991,-4.425 20.991,-4.425 -3.123,1.566 -6.045,3.249 -8.659,5.083 2.198,0.085 10.123,0.555 15.343,2.918 4.041,1.832 8.568,4.412 12.895,6.449 3.939,1.855 7.699,3.247 10.638,3.247 3.336,0 5.872,-0.227 7.671,-0.423 -1.191,-3.174 -4.248,-10.905 -6.213,-11.437 -1.792,3.594 -12.096,8.613 -12.096,8.613 0,0 -0.625,-9.621 -3.059,-10.166 -2.835,2.655 -9.837,3.718 -9.837,3.718 0,0 8.182,-5.348 9.554,-7.764 3.9,1.709 6.402,8.612 6.402,8.612 0,0 7.156,-4.175 8.236,-8.566 6.566,5.678 12.153,14.914 13.883,17.931 0.836,-1.487 1.952,-3.377 3.483,-5.694 v -25.838 l -10.684,9.977 v -8.566 l 12.049,-11.248 7.954,7.388 V 48.234 C 3.912,56.95 -4.91,99.347 -4.91,99.347 L -5.57,88.428 c 0,0 12.76,-51.928 22.78,-60.712 0,0 0.17,2.522 0.235,3.528 3.678,-6.953 11.893,-20.394 23.109,-25.51 v 3.39 c 2.865,-7.08 16.481,-25.708 23.907,-28.851 0,0 -2.587,6.063 -2.587,10.355 -0.612,74.467 0,288.225 0,288.225 0,9.949 -15.752,31.581 -36.099,44.759 C 11.951,315.478 -3.04,297.15 -8.44,295.703 c 0,-4.977 1.882,-9.667 1.882,-14.872 v -9.696 c -12.782,-0.599 -18.409,-6.614 -29.179,-12.614 -6.163,-3.433 -14.986,-6.154 -16.754,-6.682 -4.169,2.961 -7.592,6.308 -10.024,10.214 -5.858,9.398 -8.33,20.936 -8.33,32.661 0,4.956 5.553,10.536 5.553,14.544 0,6.059 -0.565,9.694 -0.565,9.694 1.97,-0.268 5.412,-3.765 5.412,-3.765 0,0 -0.118,10.056 -3.296,11.813 0,0 1.286,1.322 5.931,1.459 -1.305,3.306 -7.765,7.342 -7.765,7.342 0.323,0.578 0.92,1.078 1.694,1.506 1.622,0.897 3.902,1.489 5.647,1.836 -1.859,0.385 -4.001,0.975 -6.353,1.742 -5.371,1.75 -11.693,4.318 -17.602,7.153 -10.786,5.174 -19.002,5.506 -23.533,5.506 v -10e-4 h 10e-4 z"
       style="fill:#000000;fill-opacity:1;fill-rule:nonzero;stroke:none"
       transform="matrix(1.3333333,0,0,-1.3333333,1022.2207,782.5716)"
       clip-path="url(#clipPath92)" />
    <path
       id="path93"
       d="m 0,0 v -11.107 l 9.038,6.495 c 0,0 -1.226,2.164 -3.908,3.53 C 2.448,0.283 0,0.001 0,0.001 Z M 5.366,4.234 C 4.713,4.213 4.172,4.006 3.954,3.575 3.516,2.716 4.421,1.357 5.978,0.563 7.534,-0.229 9.163,-0.155 9.602,0.705 10.041,1.567 9.133,2.925 7.579,3.717 6.8,4.114 6.02,4.258 5.366,4.235 Z M 23.58,40.333 c -1.287,-0.036 -2.43,-0.643 -2.965,-1.693 -0.858,-1.683 0.123,-3.925 2.211,-4.989 2.089,-1.064 4.508,-0.552 5.366,1.129 0.858,1.683 -0.171,3.926 -2.259,4.99 -0.783,0.4 -1.582,0.585 -2.353,0.564 z m 27.627,51.864 c -1.114,-0.143 -1.648,-1.27 -1.648,-1.27 0,0 -11.444,-22.525 -15.482,-30.45 -1.291,-2.532 -6.723,-4.11 -8.849,-8.285 -2.142,-4.199 -0.63,-8.13 2.164,-9.553 2.794,-1.424 6.897,-0.389 9.037,3.811 2.127,4.174 0.217,9.519 1.506,12.049 4.038,7.929 15.484,30.451 15.484,30.451 0,0 1.127,1.983 -0.895,3.012 -0.505,0.258 -0.944,0.283 -1.317,0.234 h -10e-4 z m 1.553,5.79 c -0.761,-0.067 -1.365,-0.389 -1.648,-0.942 -0.561,-1.103 0.402,-2.724 2.165,-3.623 1.765,-0.9 3.673,-0.728 4.237,0.376 0.561,1.103 -0.402,2.724 -2.165,3.624 -0.883,0.45 -1.826,0.633 -2.588,0.565 z m 3.577,6.731 c -1.264,0.059 -2.369,-0.378 -2.824,-1.271 -0.728,-1.427 0.407,-3.477 2.542,-4.567 2.134,-1.088 4.449,-0.815 5.176,0.613 0.728,1.429 -0.408,3.477 -2.542,4.567 -0.8,0.406 -1.593,0.622 -2.353,0.658 z m 2.635,5.411 c -0.763,-0.066 -1.366,-0.39 -1.647,-0.941 -0.561,-1.104 0.401,-2.724 2.165,-3.625 1.764,-0.897 3.674,-0.727 4.236,0.377 0.562,1.104 -0.447,2.725 -2.212,3.625 -0.882,0.45 -1.779,0.632 -2.541,0.564 z m 19.532,37.135 c -0.949,-0.103 -1.64,-0.705 -2.024,-1.458 -0.571,-1.124 -0.261,-2.625 -4.801,-11.533 -1.99,-3.905 -2.791,-5.476 -4.943,-9.695 -2.186,-4.293 -5.365,-10.495 -5.365,-10.495 0,0 -1.08,-1.982 0.942,-3.012 2.021,-1.028 2.917,1.036 2.917,1.036 0,0 3.18,6.204 5.366,10.496 2.151,4.218 2.953,5.836 4.942,9.742 4.538,8.907 5.924,9.513 6.496,10.636 0.614,1.206 0.467,2.83 -1.554,3.861 -0.757,0.385 -1.407,0.483 -1.975,0.422 v 10e-4 z m 17.037,24.662 c 0,0 2.075,-5.233 2.118,-6.025 0.048,-0.909 -7.505,-6.307 -10.119,-11.436 -2.216,-4.349 -3.154,-6.778 -3.154,-6.778 l 3.013,-0.47 c 0,0 -0.208,3.095 0.518,4.518 0.785,1.542 0.991,3.43 4.518,6.212 3.74,2.95 8.795,5.529 8.754,6.308 -0.038,0.719 -5.647,7.671 -5.647,7.671 z m -1.836,0.753 c 0,0 -5.732,-1.1 -6.543,-1.884 -0.784,-0.756 -0.438,-8.52 -3.483,-14.495 -2.522,-4.954 -3.763,-6.778 -3.763,-6.778 l 1.552,-0.799 1.554,-0.753 c 0,0 0.724,2.01 3.248,6.966 3.044,5.974 9.542,10.308 9.693,11.389 0.159,1.114 -2.257,6.353 -2.257,6.353 v 0.001 z m -9.506,1.27 c -0.922,-0.011 -1.59,-0.043 -1.741,-0.141 -0.654,-0.423 0.235,-6.017 0.046,-10.777 -0.178,-4.488 -1.614,-5.752 -2.4,-7.295 -0.726,-1.424 -3.341,-3.107 -3.341,-3.107 l 2.164,-2.164 c 0,0 1.408,2.193 3.624,6.543 2.614,5.13 2.53,14.423 3.296,14.919 0.667,0.431 6.118,1.789 6.118,1.789 -0.001,0 -5.003,0.27 -7.764,0.234 H 84.2 84.199 Z m 11.53,7.201 c -1.109,-0.076 -2.088,-0.668 -2.588,-1.647 -0.798,-1.566 -0.023,-3.572 1.741,-4.471 1.766,-0.898 3.814,-0.343 4.614,1.223 0.798,1.567 0.021,3.572 -1.743,4.471 -0.661,0.337 -1.357,0.47 -2.023,0.423 h -0.001 z m 5.932,7.202 -6.119,-4.331 3.105,-1.601 3.107,-1.553 -0.093,7.484 z"
       style="fill:#f5d402;fill-opacity:1;fill-rule:nonzero;stroke:none"
       transform="matrix(1.3333333,0,0,-1.3333333,1009.6152,800.66013)"
       clip-path="url(#clipPath94)" />
    <path
       id="path95"
       d="m 0,0 c 0,0 5.106,-10.547 8.987,-11.993 -2.007,0.547 -8.524,-1.844 -8.524,-1.844 0,0 11.492,-10.265 21.237,-10.938 8.265,-0.57 12.278,3.555 12.278,3.555 l -1.656,8.756 c 0,0 -5.056,6.107 -13.148,8.924 -8.177,2.849 -19.175,3.538 -19.175,3.538 v 0.001 z"
       style="fill:#000000;fill-opacity:1;fill-rule:nonzero;stroke:none"
       transform="matrix(1.3333333,0,0,-1.3333333,714.16013,714.76173)"
       clip-path="url(#clipPath96)" />
    <path
       id="path97"
       d="m 0,0 c 0,0 -7.05,-6.036 -8.98,-13.026 -1.931,-6.992 1.257,-14.937 1.257,-14.937 l 5.925,-11.052 c 0,0 8.211,4.37 11.703,10.904 3.492,6.535 2.212,15.351 2.212,15.351 0,0 -6.505,-2.422 -7.332,-3.493 C 6.158,-9.005 -0.001,0 -0.001,0 h -0.001 0.001 z"
       style="fill:#000000;fill-opacity:1;fill-rule:nonzero;stroke:none"
       transform="matrix(1.3333333,0,0,-1.3333333,765.4844,689.5716)"
       clip-path="url(#clipPath98)" />
    <path
       id="path99"
       d="m 0,0 c 0,0 -8.019,-2.71 -15.805,-2.241 -7.418,0.447 -13.586,6.676 -13.586,6.676 0,0 6.149,4.161 9.184,3.607 -3.338,1.22 -8.179,9.582 -8.179,9.582 0,0 6.879,2.078 12.978,-0.221 6.099,-2.3 11.417,-8.982 11.417,-8.982 L 0.001,0 Z"
       style="fill:#000000;fill-opacity:1;fill-rule:nonzero;stroke:none"
       transform="matrix(1.3333333,0,0,-1.3333333,735.26827,685.80853)"
       clip-path="url(#clipPath100)" />
    <path
       id="path101"
       d="m 0,0 c 0,0 4.01,-8.304 3.06,-11.189 1.243,1.921 5.951,4.914 5.951,4.914 0,0 2.846,-13.445 0.124,-21.748 -2.721,-8.303 -11.008,-11.464 -11.008,-11.464 l -9.141,17.777 c 0,0 -1.361,6.586 1.49,11.802 C -6.674,-4.693 0,0.001 0,0.001 h 0.001 z"
       style="fill:#000000;fill-opacity:1;fill-rule:nonzero;stroke:none"
       transform="matrix(1.3333333,0,0,-1.3333333,738.946,633.58987)"
       clip-path="url(#clipPath102)" />
    <path
       id="path103"
       d="m 0,0 c 0,0 8.667,0.91 16.595,-2.374 6.629,-2.752 8.661,-7.753 8.661,-7.753 l 3.264,-8.753 c 0,0 -9.433,-3.537 -16.886,-0.832 -7.454,2.707 -12.931,11.657 -12.931,11.657 0,0 5.209,1.976 7.192,1.235 C 3.006,-5.542 0.002,0 0.002,0 V -0.001 H 0.001 Z"
       style="fill:#000000;fill-opacity:1;fill-rule:nonzero;stroke:none"
       transform="matrix(1.3333333,0,0,-1.3333333,669.38147,604.2812)"
       clip-path="url(#clipPath104)" />
    <path
       id="path105"
       d="m 0,0 c 0,0 3.804,-4.884 3.917,-10.502 1.015,2.986 5.763,6.288 5.763,6.288 0,0 4.883,-11.818 3.812,-20.209 -1.073,-8.392 -8.099,-13.355 -8.099,-13.355 l -8.762,16.632 c 0,0 -2.856,6.817 -2.015,12.105 C -4.542,-3.754 0,0.002 0,0.002 Z"
       style="fill:#000000;fill-opacity:1;fill-rule:nonzero;stroke:none"
       transform="matrix(1.3333333,0,0,-1.3333333,705.72653,582.62107)"
       clip-path="url(#clipPath106)" />
    <path
       id="path107"
       d="m 0,0 c 0,0 -1.571,-9.059 1.102,-14.277 2.389,-4.657 3.909,-5.679 3.909,-5.679 -4.554,3.006 -11.44,3.265 -11.44,3.265 0,0 2.451,-9.856 8.308,-14.352 5.857,-4.497 14.889,-3.446 14.889,-3.446 0,0 5.939,7.906 5.525,16.424 -0.413,8.518 -7.178,17.648 -7.178,17.648 0,0 -2.668,-5.534 -2.904,-9.666 -1.726,4.26 -12.213,10.082 -12.213,10.082 l 0,0.001 z"
       style="fill:#000000;fill-opacity:1;fill-rule:nonzero;stroke:none"
       transform="matrix(1.3333333,0,0,-1.3333333,665.7044,540.2084)"
       clip-path="url(#clipPath108)" />
    <path
       id="path109"
       d="m 0,0 c 0,0 -0.234,-6.62 1.956,-10.375 2.19,-3.756 7.082,-5.254 7.082,-5.254 0,0 0.234,6.618 -1.956,10.373 C 4.891,-1.5 0,0 0,0"
       style="fill:#097754;fill-opacity:1;fill-rule:nonzero;stroke:none"
       transform="matrix(1.3333333,0,0,-1.3333333,669.25907,547.5508)"
       clip-path="url(#clipPath110)" />
    <path
       id="path111"
       d="m 0,0 c 0,0 5.75,-0.338 9.072,-2.883 3.319,-2.545 4.605,-7.847 4.605,-7.847 0,0 -3.812,-0.387 -7.131,2.158 C 3.227,-6.026 0,0 0,0"
       style="fill:#097754;fill-opacity:1;fill-rule:nonzero;stroke:none"
       transform="matrix(1.3333333,0,0,-1.3333333,663.15493,567.51893)"
       clip-path="url(#clipPath112)" />
    <path
       id="path113"
       d="m 0,0 c 0,0 -1.912,-4.385 -1.691,-9.113 0.219,-4.728 2.978,-10.054 2.978,-10.054 0,0 2.495,5.675 2.275,10.405 C 3.343,-4.034 0.668,-1.338 0,0"
       style="fill:#097754;fill-opacity:1;fill-rule:nonzero;stroke:none"
       transform="matrix(1.3333333,0,0,-1.3333333,687.2168,549.696)"
       clip-path="url(#clipPath114)" />
    <path
       id="path115"
       d="m 0,0 c 0,0 2.824,-3.942 7.17,-6.092 4.347,-2.148 10.824,-2.228 10.824,-2.228 0,0 -3.233,4.193 -7.58,6.343 C 6.067,0.172 0,0.001 0,0.001 Z"
       style="fill:#097754;fill-opacity:1;fill-rule:nonzero;stroke:none"
       transform="matrix(1.3333333,0,0,-1.3333333,674.3092,606.52347)"
       clip-path="url(#clipPath116)" />
    <path
       id="path117"
       d="m 0,0 c 0,0 2.075,-4.064 5.869,-5.807 3.796,-1.743 11.56,-1.599 11.56,-1.599 0,0 -2.978,3.798 -6.774,5.541 C 6.86,-0.121 -0.001,0 -0.001,0 Z"
       style="fill:#097754;fill-opacity:1;fill-rule:nonzero;stroke:none"
       transform="matrix(1.3333333,0,0,-1.3333333,676.17253,618.73307)"
       clip-path="url(#clipPath118)" />
    <path
       id="path119"
       d="m 0,0 c 0,0 -2.294,-3.791 -2.069,-7.967 0.225,-4.178 2.966,-8.743 2.966,-8.743 0,0 1.928,5.233 1.703,9.411 C 2.375,-3.121 -0.001,0 -0.001,0 Z"
       style="fill:#097754;fill-opacity:1;fill-rule:nonzero;stroke:none"
       transform="matrix(1.3333333,0,0,-1.3333333,705.30987,589.8288)"
       clip-path="url(#clipPath120)" />
    <path
       id="path121"
       d="m 0,0 c 0,0 -3.925,-5.268 -4.488,-10.684 -0.564,-5.415 2.232,-10.978 2.232,-10.978 0,0 4.741,4.76 5.305,10.175 C 3.612,-6.07 0,-0.001 0,-0.001 Z"
       style="fill:#097754;fill-opacity:1;fill-rule:nonzero;stroke:none"
       transform="matrix(1.3333333,0,0,-1.3333333,716.57493,596.9752)"
       clip-path="url(#clipPath122)" />
    <path
       id="path123"
       d="m 0,0 c 0,0 0.472,-1.947 2.112,-4.015 1.639,-2.069 4.446,-4.257 4.446,-4.257 0,0 2.711,0.871 6.081,0.141 3.37,-0.73 7.852,-3.732 7.852,-3.732 0,0 -4.824,7.2 -9.833,9.999 C 5.649,0.934 0.002,0.001 0.002,0.001 H 0.001 Z"
       style="fill:#097754;fill-opacity:1;fill-rule:nonzero;stroke:none"
       transform="matrix(1.3333333,0,0,-1.3333333,702.1472,663.6588)"
       clip-path="url(#clipPath124)" />
    <path
       id="path125"
       d="m 0,0 c 0,0 6.245,2.668 11.388,1.979 5.144,-0.688 9.781,-4.753 9.781,-4.753 0,0 -6.951,-2.406 -12.094,-1.718 C 3.93,-3.804 -0.001,0 -0.001,0 L 0,0.001 Z"
       style="fill:#097754;fill-opacity:1;fill-rule:nonzero;stroke:none"
       transform="matrix(1.3333333,0,0,-1.3333333,701.48573,680.1576)"
       clip-path="url(#clipPath126)" />
    <path
       id="path127"
       d="m 0,0 c 0,0 -5.523,-5.851 -5.986,-10.929 -0.463,-5.076 4.478,-9.808 4.478,-9.808 0,0 -0.242,3.257 0.608,5.4 0.851,2.144 2.659,4.434 2.659,4.434 0,0 0.771,2.613 0.473,4.709 C 1.815,-3.265 0,0 0,0"
       style="fill:#097754;fill-opacity:1;fill-rule:nonzero;stroke:none"
       transform="matrix(1.3333333,0,0,-1.3333333,736.6784,641.44667)"
       clip-path="url(#clipPath128)" />
    <path
       id="path129"
       d="m 0,0 c 0,0 -5.206,-5.267 -6.581,-10.906 -1.376,-5.641 1.076,-11.655 1.076,-11.655 0,0 4.734,3.735 6.109,9.374 C 1.981,-7.547 -0.001,0 -0.001,0 Z"
       style="fill:#097754;fill-opacity:1;fill-rule:nonzero;stroke:none"
       transform="matrix(1.3333333,0,0,-1.3333333,747.2448,650.48173)"
       clip-path="url(#clipPath130)" />
    <path
       id="path131"
       d="M 0,0 C 0,0 2.358,-4.923 2.956,-9.04 3.555,-13.156 3,-14.581 3,-14.581 c 0,0 -2.438,-2.397 -3.531,-3.806 -1.405,-1.811 -1.611,-5.127 -1.611,-5.127 0,0 -4.896,7.279 -4.141,12.599 C -5.529,-5.596 0,0.001 0,0.001 Z"
       style="fill:#097754;fill-opacity:1;fill-rule:nonzero;stroke:none"
       transform="matrix(1.3333333,0,0,-1.3333333,764.62627,695.8112)"
       clip-path="url(#clipPath132)" />
    <path
       id="path133"
       d="m 0,0 c 0,0 -6.268,-4.14 -8.755,-8.388 -2.49,-4.244 -1.199,-8.594 -1.199,-8.594 0,0 4.467,0.393 6.956,4.639 2.488,4.245 2.997,12.344 2.997,12.344 l 0.001,0 z"
       style="fill:#097754;fill-opacity:1;fill-rule:nonzero;stroke:none"
       transform="matrix(1.3333333,0,0,-1.3333333,778.3796,710.99867)"
       clip-path="url(#clipPath134)" />
    <path
       id="path135"
       d="m 0,0 c 0,0 9.033,0.247 14.555,-1.111 5.522,-1.356 7.531,-4.317 7.531,-4.317 0,0 -6.208,-2.907 -11.73,-1.55 C 4.835,-5.621 -0.001,0.001 -0.001,0.001 V 0 Z"
       style="fill:#097754;fill-opacity:1;fill-rule:nonzero;stroke:none"
       transform="matrix(1.3333333,0,0,-1.3333333,723.46413,734.31387)"
       clip-path="url(#clipPath136)" />
    <path
       id="path137"
       d="m 0,0 c 0,0 4.076,-6.318 9.344,-8.611 7.261,-3.159 15.669,-1.627 15.669,-1.627 0,0 -4.568,5.597 -10.852,8.068 C 7.875,0.301 0,-0.001 0,-0.001 H 0.001 0 Z"
       style="fill:#097754;fill-opacity:1;fill-rule:nonzero;stroke:none"
       transform="matrix(1.3333333,0,0,-1.3333333,721.42907,720.0208)"
       clip-path="url(#clipPath138)" />
    <path
       id="path139"
       d="m 0,0 0.243,-3.252 c 5.402,-0.051 6.206,0.487 7.59,-1.215 0.923,-1.135 3.116,-2.125 5.321,-1.117 2.206,1.007 3.195,3.656 2.188,5.861 C 14.335,2.483 12.284,2.962 10.309,2.572 9.096,2.333 8.298,1.365 7.269,0.834 5.312,-0.18 -0.002,-0.001 -0.002,-0.001 h 0.001 z"
       style="fill:#000000;fill-opacity:1;fill-rule:nonzero;stroke:none"
       transform="matrix(1.3333333,0,0,-1.3333333,760.0912,742.5508)"
       clip-path="url(#clipPath140)" />
    <path
       id="path141"
       d="m 0,0 2.628,-1.926 c -2.819,-4.61 -3.699,-5.007 -2.988,-7.084 0.473,-1.383 0.152,-3.766 -1.871,-5.105 -2.022,-1.337 -4.793,-0.773 -6.131,1.249 -1.337,2.022 -0.658,4.013 0.719,5.483 0.847,0.904 2.088,1.067 3.083,1.658 C -2.664,-4.601 0,0.001 0,0.001 v 0 z"
       style="fill:#000000;fill-opacity:1;fill-rule:nonzero;stroke:none"
       transform="matrix(1.3333333,0,0,-1.3333333,759.46547,739.24093)"
       clip-path="url(#clipPath142)" />
    <path
       id="path143"
       d="m 0,0 0.243,-3.252 c 5.402,-0.05 6.205,0.487 7.59,-1.214 0.921,-1.134 3.116,-2.125 5.32,-1.117 2.207,1.007 3.196,3.655 2.187,5.86 C 14.333,2.484 12.283,2.962 10.308,2.572 9.094,2.332 8.297,1.365 7.27,0.834 5.312,-0.179 -0.002,-0.001 -0.002,-0.001 h 0.001 z"
       style="fill:#000000;fill-opacity:1;fill-rule:nonzero;stroke:none"
       transform="matrix(1.3333333,0,0,-1.3333333,735.07227,687.75787)"
       clip-path="url(#clipPath144)" />
    <path
       id="path145"
       d="m 0,0 2.298,-2.313 c -3.502,-4.114 -4.435,-4.371 -4.055,-6.532 0.254,-1.44 -0.435,-3.746 -2.642,-4.753 -2.206,-1.006 -4.853,-0.019 -5.862,2.188 -1.007,2.205 -0.026,4.067 1.564,5.305 0.975,0.758 2.229,0.729 3.303,1.157 C -3.347,-4.133 0,-0.001 0,-0.001 H -0.001 0 Z"
       style="fill:#000000;fill-opacity:1;fill-rule:nonzero;stroke:none"
       transform="matrix(1.3333333,0,0,-1.3333333,736.5312,689.2904)"
       clip-path="url(#clipPath146)" />
    <path
       id="path147"
       d="m 0,0 0.244,-3.252 c 5.402,-0.049 6.205,0.487 7.59,-1.216 0.923,-1.132 3.115,-2.123 5.322,-1.115 2.204,1.007 3.194,3.654 2.187,5.862 C 14.334,2.485 12.285,2.963 10.309,2.573 9.095,2.334 8.298,1.366 7.269,0.835 5.313,-0.178 -0.001,0.001 -0.001,0.001 v -0.002 z"
       style="fill:#000000;fill-opacity:1;fill-rule:nonzero;stroke:none"
       transform="matrix(1.3333333,0,0,-1.3333333,710.82613,636.4584)"
       clip-path="url(#clipPath148)" />
    <path
       id="path149"
       d="m 0,0 2.297,-2.313 c -3.502,-4.115 -4.433,-4.371 -4.055,-6.532 0.254,-1.44 -0.435,-3.746 -2.641,-4.753 -2.205,-1.006 -4.854,-0.017 -5.862,2.188 -1.006,2.206 -0.025,4.069 1.564,5.306 0.975,0.759 2.228,0.728 3.304,1.158 C -3.346,-4.131 0,0 0,0 v -0.001 z"
       style="fill:#000000;fill-opacity:1;fill-rule:nonzero;stroke:none"
       transform="matrix(1.3333333,0,0,-1.3333333,712.82427,635.5508)"
       clip-path="url(#clipPath150)" />
    <path
       id="path151"
       d="m 0,0 0.243,-3.251 c 5.402,-0.051 6.206,0.487 7.59,-1.214 0.923,-1.135 3.116,-2.125 5.321,-1.119 2.206,1.008 3.195,3.656 2.188,5.862 C 14.335,2.485 12.284,2.964 10.308,2.573 9.096,2.333 8.298,1.365 7.269,0.834 5.312,-0.178 -0.002,0 -0.002,0 v -0.001 h 0.001 z"
       style="fill:#000000;fill-opacity:1;fill-rule:nonzero;stroke:none"
       transform="matrix(1.3333333,0,0,-1.3333333,684.99867,582.30213)"
       clip-path="url(#clipPath152)" />
    <path
       id="path153"
       d="m 0,0 2.296,-2.314 c -3.501,-4.114 -4.434,-4.37 -4.054,-6.532 0.254,-1.44 -0.436,-3.745 -2.641,-4.752 -2.206,-1.007 -4.854,-0.019 -5.861,2.187 -1.008,2.205 -0.026,4.07 1.562,5.306 0.976,0.758 2.229,0.729 3.304,1.158 2.046,0.815 5.393,4.946 5.393,4.946 V 0 -10e-4 H 0 Z"
       style="fill:#000000;fill-opacity:1;fill-rule:nonzero;stroke:none"
       transform="matrix(1.3333333,0,0,-1.3333333,686.9968,581.3952)"
       clip-path="url(#clipPath154)" />
    <path
       id="path155"
       d="m 0,0 c -1.936,-0.804 -4.808,7.626 -6.917,12.244 -2.164,4.739 -6.556,12.043 -5.309,12.613 1.37,0.625 3.173,-3.21 5.387,-8.059 C -4.625,11.95 1.814,0.756 0,0.002 V 0 h 0.001 z"
       style="fill:#f5d402;fill-opacity:1;fill-rule:nonzero;stroke:none"
       transform="matrix(1.3333333,0,0,-1.3333333,730.5,674.91147)"
       clip-path="url(#clipPath156)" />
    <path
       id="path157"
       d="m 0,0 c -1.936,-0.807 -4.055,4.714 -6.163,9.332 -2.163,4.739 -4.27,8.086 -3.023,8.656 1.371,0.625 3.393,-3.528 5.164,-7.405 1.715,-3.759 5.836,-9.828 4.021,-10.584 z"
       style="fill:#f5d402;fill-opacity:1;fill-rule:nonzero;stroke:none"
       transform="matrix(1.3333333,0,0,-1.3333333,703.98627,615.71747)"
       clip-path="url(#clipPath158)" />
    <path
       id="path159"
       d="m 0,0 c -1.52,-0.406 -8.154,13.479 -13.517,25.229 -5.363,11.748 -9.356,21.253 -8.109,21.821 1.37,0.626 5.712,-10.472 11.078,-22.223 C -5.184,13.077 1.139,0.306 0.001,0 Z"
       style="fill:#f5d402;fill-opacity:1;fill-rule:nonzero;stroke:none"
       transform="matrix(1.3333333,0,0,-1.3333333,765.32493,749.92973)"
       clip-path="url(#clipPath160)" />
    <path
       id="path161"
       d="m 0,0 c 0,0 2.224,4.211 7.846,4.211 2.35,0 10.105,0.163 10.105,0.163 1.034,-2.686 5.745,-7.173 5.745,-11.839 0,0 -4.782,8.62 -18.132,8.62 -3.355,0 -5.565,-1.154 -5.565,-1.154 v 0 z"
       style="fill:#cc092f;fill-opacity:1;fill-rule:nonzero;stroke:none"
       transform="matrix(1.3333333,0,0,-1.3333333,839.60813,332.4232)"
       clip-path="url(#clipPath162)" />
    <path
       id="path163"
       d="m 0,0 c 0,0 -3.28,1.052 -3.28,2.153 0,1.403 1.593,1.403 2.546,0.31 0.655,-0.753 0.733,-2.464 0.733,-2.464 l 0.001,0 z"
       style="fill:#000000;fill-opacity:1;fill-rule:nonzero;stroke:none"
       transform="matrix(1.3333333,0,0,-1.3333333,862.54293,333.99213)"
       clip-path="url(#clipPath164)" />
    <path
       id="path165"
       d="m 0,0 c 0,0 -2.844,-2.995 -3.461,-4.594 -2.814,1.067 -7.722,6.124 -7.722,6.124 0,0 4.16,-2.429 11.182,-1.53 z"
       style="fill:#d10429;fill-opacity:1;fill-rule:nonzero;stroke:none"
       transform="matrix(1.3333333,0,0,-1.3333333,868.54947,344.57093)"
       clip-path="url(#clipPath166)" />
    <path
       id="path167"
       d="m 0,0 c 0.001,-2.053 -2.103,-3.717 -4.698,-3.718 -2.595,-10e-4 -4.7,1.662 -4.701,3.715 V 0 C -9.401,2.053 -7.297,3.718 -4.702,3.719 -2.106,3.72 -0.001,2.056 0,0.003 Z"
       style="fill:#000000;fill-opacity:1;fill-rule:nonzero;stroke:none"
       transform="matrix(1.3333333,0,0,-1.3333333,887.63547,334.1028)"
       clip-path="url(#clipPath168)" />
    <path
       id="path169"
       d="m 0,0 c 0,-1.808 -1.465,-3.273 -3.273,-3.273 -1.808,0 -3.273,1.465 -3.273,3.273 0,1.808 1.465,3.273 3.273,3.273 C -1.465,3.273 0,1.808 0,0"
       style="fill:#f5d402;fill-opacity:1;fill-rule:nonzero;stroke:none"
       transform="matrix(1.3333333,0,0,-1.3333333,885.73507,334.1028)"
       clip-path="url(#clipPath170)" />
    <path
       id="path171"
       d="m 0,0 c 0.02,-0.767 -0.586,-1.405 -1.353,-1.424 -0.767,-0.02 -1.404,0.586 -1.424,1.353 -10e-4,0.024 -10e-4,0.047 0,0.071 -0.02,0.767 0.586,1.405 1.353,1.425 C -0.657,1.444 -0.02,0.839 0,0.072 0.001,0.048 0.001,0.024 0,0"
       style="fill:#000000;fill-opacity:1;fill-rule:nonzero;stroke:none"
       transform="matrix(1.3333333,0,0,-1.3333333,883.222,334.1028)"
       clip-path="url(#clipPath172)" />
    <path
       id="path173"
       d="m 0,0 h 3.248 84.057 84.057 3.248 c 0,0 -2.354,-2.833 -2.354,-7.483 v -126.134 -19.11 c 0,-3.169 -3.289,-10.595 -22.26,-20.048 -31.361,-15.626 -55.466,-22.923 -62.69,-31.816 -7.225,8.893 -31.329,16.189 -62.69,31.816 -18.972,9.453 -22.262,16.879 -22.262,20.048 v 19.11 126.134 C 2.354,-2.832 0.001,0 0.001,0 Z m -10.259,4.612 c 0,0 8.001,-6.003 8.001,-12.095 v -126.135 -19.11 c 0,-3.826 1.182,-6.318 3.06,-8.752 1.876,-2.624 5.874,-6.248 10.023,-8.944 12.816,-8.322 34.242,-17.098 50.454,-24.473 13.509,-6.145 19.004,-8.624 26.026,-17.32 7.023,8.696 12.565,11.174 26.073,17.32 16.209,7.374 37.637,16.151 50.454,24.473 4.15,2.696 8.148,6.32 10.024,8.944 1.877,2.434 3.012,4.926 3.012,8.752 v 19.11 126.135 c 0,6.091 8.001,12.095 8.001,12.095 H 176.35 171.362 87.304 3.249 -1.74 h -8.519 0.001 10e-4 z"
       style="fill:#f5d402;fill-opacity:1;fill-rule:nonzero;stroke:none"
       transform="matrix(1.3333333,0,0,-1.3333333,781.41867,460.8464)"
       clip-path="url(#clipPath174)" />
  </g>
</svg>
