<?xml version="1.0" encoding="UTF-8" standalone="no"?>
<!-- Created with Inkscape (http://www.inkscape.org/) -->

<svg
   version="1.1"
   id="svg1"
   width="720"
   height="480"
   viewBox="0 0 720 480"
   sodipodi:docname="mh.ai"
   xmlns:inkscape="http://www.inkscape.org/namespaces/inkscape"
   xmlns:sodipodi="http://sodipodi.sourceforge.net/DTD/sodipodi-0.dtd"
   xmlns="http://www.w3.org/2000/svg"
   xmlns:svg="http://www.w3.org/2000/svg">
  <defs
     id="defs1" />
  <sodipodi:namedview
     id="namedview1"
     pagecolor="#ffffff"
     bordercolor="#000000"
     borderopacity="0.25"
     inkscape:showpageshadow="2"
     inkscape:pageopacity="0.0"
     inkscape:pagecheckerboard="0"
     inkscape:deskcolor="#d1d1d1">
    <inkscape:page
       x="0"
       y="0"
       inkscape:label="1"
       id="page1"
       width="720"
       height="480"
       margin="0.0078328401 0 0"
       bleed="0" />
  </sodipodi:namedview>
  <g
     id="layer-MC0"
     inkscape:groupmode="layer"
     inkscape:label="Layer 1">
    <path
       id="path1"
       d="M 0,0.006 H 540 V 360 H 0 Z"
       style="fill:#003893;fill-opacity:1;fill-rule:nonzero;stroke:none"
       transform="matrix(1.3333333,0,0,-1.3333333,0,480)" />
    <path
       id="path2"
       d="m 0,0 -4.187,69.63 -14.601,-38.36 6.516,40.506 -24.048,-33.258 16.799,37.445 -31.818,-25.905 25.905,31.818 -37.445,-16.772 33.258,24.021 -40.533,-6.516 38.361,14.601 -69.604,4.187 69.604,4.187 -38.361,14.601 40.533,-6.516 -33.258,24.048 37.445,-16.799 -25.905,31.819 31.818,-25.905 -16.799,37.444 24.048,-33.258 -6.516,40.506 L -4.187,133.19 0,202.794 4.187,133.19 l 14.601,38.334 -6.516,-40.506 24.022,33.258 -16.799,-37.444 31.845,25.905 -25.905,-31.819 37.444,16.799 -33.258,-24.048 40.506,6.516 -38.36,-14.601 69.63,-4.187 L 31.767,97.21 70.127,82.609 29.621,89.125 62.879,65.104 25.435,81.876 51.34,50.058 19.495,75.963 36.294,38.518 12.272,71.776 18.788,31.27 4.187,69.63 Z"
       style="fill:#ffffff;fill-opacity:1;fill-rule:nonzero;stroke:none"
       transform="matrix(1.3333333,0,0,-1.3333333,158.98693,291.50907)" />
    <path
       id="path3"
       d="M 0,0 V -11.521 L 540,195.84 v 141.12 z"
       style="fill:#ffffff;fill-opacity:1;fill-rule:nonzero;stroke:none"
       transform="matrix(1.3333333,0,0,-1.3333333,0,456.9516)" />
    <path
       id="path4"
       d="M 0,0 V -5.76 L 540,266.4 v 70.56 z"
       style="fill:#dd7500;fill-opacity:1;fill-rule:nonzero;stroke:none"
       transform="matrix(1.3333333,0,0,-1.3333333,0,456.9516)" />
  </g>
</svg>
