<?xml version="1.0" encoding="UTF-8" standalone="no"?>
<!-- Created with Inkscape (http://www.inkscape.org/) -->

<svg
   version="1.1"
   id="svg1"
   width="1200"
   height="800"
   viewBox="0 0 1200 800"
   sodipodi:docname="mt.ai"
   xmlns:inkscape="http://www.inkscape.org/namespaces/inkscape"
   xmlns:sodipodi="http://sodipodi.sourceforge.net/DTD/sodipodi-0.dtd"
   xmlns="http://www.w3.org/2000/svg"
   xmlns:svg="http://www.w3.org/2000/svg">
  <defs
     id="defs1">
    <clipPath
       clipPathUnits="userSpaceOnUse"
       id="clipPath4">
      <path
         d="M 0,600 H 900 V 0 H 0 Z"
         transform="translate(-100.51761,-508.51271)"
         id="path4" />
    </clipPath>
    <clipPath
       clipPathUnits="userSpaceOnUse"
       id="clipPath6">
      <path
         d="M 0,600 H 900 V 0 H 0 Z"
         transform="translate(-22.222201,-517.17241)"
         id="path6" />
    </clipPath>
    <clipPath
       clipPathUnits="userSpaceOnUse"
       id="clipPath8">
      <path
         d="M 0,600 H 900 V 0 H 0 Z"
         transform="translate(-25.253401,-514.14361)"
         id="path8" />
    </clipPath>
    <clipPath
       clipPathUnits="userSpaceOnUse"
       id="clipPath10">
      <path
         d="M 0,600 H 900 V 0 H 0 Z"
         transform="translate(-26.77,-512.62741)"
         id="path10" />
    </clipPath>
    <clipPath
       clipPathUnits="userSpaceOnUse"
       id="clipPath12">
      <path
         d="M 0,600 H 900 V 0 H 0 Z"
         transform="translate(-84.5356,-528.31931)"
         id="path12" />
    </clipPath>
    <clipPath
       clipPathUnits="userSpaceOnUse"
       id="clipPath14">
      <path
         d="M 0,600 H 900 V 0 H 0 Z"
         transform="translate(-71.143602,-520.28471)"
         id="path14" />
    </clipPath>
    <clipPath
       clipPathUnits="userSpaceOnUse"
       id="clipPath16">
      <path
         d="M 0,600 H 900 V 0 H 0 Z"
         transform="translate(-77.571804,-526.71291)"
         id="path16" />
    </clipPath>
    <clipPath
       clipPathUnits="userSpaceOnUse"
       id="clipPath18">
      <path
         d="M 0,600 H 900 V 0 H 0 Z"
         transform="translate(-139.4316,-515.46292)"
         id="path18" />
    </clipPath>
    <clipPath
       clipPathUnits="userSpaceOnUse"
       id="clipPath20">
      <path
         d="M 0,600 H 900 V 0 H 0 Z"
         transform="translate(-131.39601,-528.85551)"
         id="path20" />
    </clipPath>
    <clipPath
       clipPathUnits="userSpaceOnUse"
       id="clipPath22">
      <path
         d="M 0,600 H 900 V 0 H 0 Z"
         transform="translate(-137.82471,-522.42682)"
         id="path22" />
    </clipPath>
    <clipPath
       clipPathUnits="userSpaceOnUse"
       id="clipPath24">
      <path
         d="M 0,600 H 900 V 0 H 0 Z"
         transform="translate(-126.57471,-460.56591)"
         id="path24" />
    </clipPath>
    <clipPath
       clipPathUnits="userSpaceOnUse"
       id="clipPath26">
      <path
         d="M 0,600 H 900 V 0 H 0 Z"
         transform="translate(-139.96731,-468.60061)"
         id="path26" />
    </clipPath>
    <clipPath
       clipPathUnits="userSpaceOnUse"
       id="clipPath28">
      <path
         d="M 0,600 H 900 V 0 H 0 Z"
         transform="translate(-133.5391,-462.17241)"
         id="path28" />
    </clipPath>
    <clipPath
       clipPathUnits="userSpaceOnUse"
       id="clipPath30">
      <path
         d="M 0,600 H 900 V 0 H 0 Z"
         transform="translate(-71.679202,-473.42241)"
         id="path30" />
    </clipPath>
    <clipPath
       clipPathUnits="userSpaceOnUse"
       id="clipPath32">
      <path
         d="M 0,600 H 900 V 0 H 0 Z"
         transform="translate(-79.714404,-460.02981)"
         id="path32" />
    </clipPath>
    <clipPath
       clipPathUnits="userSpaceOnUse"
       id="clipPath34">
      <path
         d="M 0,600 H 900 V 0 H 0 Z"
         transform="translate(-73.286102,-466.45851)"
         id="path34" />
    </clipPath>
    <clipPath
       clipPathUnits="userSpaceOnUse"
       id="clipPath36">
      <path
         d="M 0,600 H 900 V 0 H 0 Z"
         transform="translate(-137.373,-494.44341)"
         id="path36" />
    </clipPath>
    <clipPath
       clipPathUnits="userSpaceOnUse"
       id="clipPath38">
      <path
         d="M 0,600 H 900 V 0 H 0 Z"
         transform="translate(-129.7969,-494.44291)"
         id="path38" />
    </clipPath>
    <clipPath
       clipPathUnits="userSpaceOnUse"
       id="clipPath40">
      <path
         d="M 0,600 H 900 V 0 H 0 Z"
         transform="translate(-94.9492,-468.68551)"
         id="path40" />
    </clipPath>
    <clipPath
       clipPathUnits="userSpaceOnUse"
       id="clipPath42">
      <path
         d="M 0,600 H 900 V 0 H 0 Z"
         transform="translate(-119.19141,-468.68551)"
         id="path42" />
    </clipPath>
    <clipPath
       clipPathUnits="userSpaceOnUse"
       id="clipPath44">
      <path
         d="M 0,600 H 900 V 0 H 0 Z"
         transform="translate(-104.54541,-468.68511)"
         id="path44" />
    </clipPath>
    <clipPath
       clipPathUnits="userSpaceOnUse"
       id="clipPath46">
      <path
         d="M 0,600 H 900 V 0 H 0 Z"
         transform="translate(-122.8501,-489.81351)"
         id="path46" />
    </clipPath>
    <clipPath
       clipPathUnits="userSpaceOnUse"
       id="clipPath48">
      <path
         d="M 0,600 H 900 V 0 H 0 Z"
         transform="translate(-120.7749,-490.50541)"
         id="path48" />
    </clipPath>
    <clipPath
       clipPathUnits="userSpaceOnUse"
       id="clipPath50">
      <path
         d="M 0,600 H 900 V 0 H 0 Z"
         transform="translate(-93.181202,-476.33691)"
         id="path50" />
    </clipPath>
    <clipPath
       clipPathUnits="userSpaceOnUse"
       id="clipPath52">
      <path
         d="M 0,600 H 900 V 0 H 0 Z"
         transform="translate(-107.11911,-483.76711)"
         id="path52" />
    </clipPath>
    <clipPath
       clipPathUnits="userSpaceOnUse"
       id="clipPath54">
      <path
         d="M 0,600 H 900 V 0 H 0 Z"
         transform="translate(-102.4561,-488.32761)"
         id="path54" />
    </clipPath>
    <clipPath
       clipPathUnits="userSpaceOnUse"
       id="clipPath56">
      <path
         d="M 0,600 H 900 V 0 H 0 Z"
         transform="translate(-93.5986,-492.08451)"
         id="path56" />
    </clipPath>
    <clipPath
       clipPathUnits="userSpaceOnUse"
       id="clipPath58">
      <path
         d="M 0,600 H 900 V 0 H 0 Z"
         transform="translate(-93.5986,-492.08451)"
         id="path58" />
    </clipPath>
    <clipPath
       clipPathUnits="userSpaceOnUse"
       id="clipPath60">
      <path
         d="M 0,600 H 900 V 0 H 0 Z"
         transform="translate(-102.25101,-510.02831)"
         id="path60" />
    </clipPath>
    <clipPath
       clipPathUnits="userSpaceOnUse"
       id="clipPath62">
      <path
         d="M 0,600 H 900 V 0 H 0 Z"
         transform="translate(-108.4512,-512.61622)"
         id="path62" />
    </clipPath>
    <clipPath
       clipPathUnits="userSpaceOnUse"
       id="clipPath64">
      <path
         d="M 0,600 H 900 V 0 H 0 Z"
         transform="translate(-99.3301,-486.58541)"
         id="path64" />
    </clipPath>
    <clipPath
       clipPathUnits="userSpaceOnUse"
       id="clipPath66">
      <path
         d="M 0,600 H 900 V 0 H 0 Z"
         transform="translate(-90.989702,-500.34571)"
         id="path66" />
    </clipPath>
    <clipPath
       clipPathUnits="userSpaceOnUse"
       id="clipPath68">
      <path
         d="M 0,600 H 900 V 0 H 0 Z"
         transform="translate(-90.989702,-500.34571)"
         id="path68" />
    </clipPath>
    <clipPath
       clipPathUnits="userSpaceOnUse"
       id="clipPath70">
      <path
         d="M 0,600 H 900 V 0 H 0 Z"
         transform="translate(-118.8535,-492.63181)"
         id="path70" />
    </clipPath>
    <clipPath
       clipPathUnits="userSpaceOnUse"
       id="clipPath72">
      <path
         d="M 0,600 H 900 V 0 H 0 Z"
         transform="translate(-118.8535,-492.63181)"
         id="path72" />
    </clipPath>
    <clipPath
       clipPathUnits="userSpaceOnUse"
       id="clipPath74">
      <path
         d="M 0,600 H 900 V 0 H 0 Z"
         transform="translate(-99.0229,-506.21092)"
         id="path74" />
    </clipPath>
    <clipPath
       clipPathUnits="userSpaceOnUse"
       id="clipPath76">
      <path
         d="M 0,600 H 900 V 0 H 0 Z"
         transform="translate(-95.679205,-511.62991)"
         id="path76" />
    </clipPath>
    <clipPath
       clipPathUnits="userSpaceOnUse"
       id="clipPath78">
      <path
         d="M 0,600 H 900 V 0 H 0 Z"
         transform="translate(-99.689005,-509.84911)"
         id="path78" />
    </clipPath>
    <clipPath
       clipPathUnits="userSpaceOnUse"
       id="clipPath80">
      <path
         d="M 0,600 H 900 V 0 H 0 Z"
         transform="translate(-103.20021,-507.91852)"
         id="path80" />
    </clipPath>
    <clipPath
       clipPathUnits="userSpaceOnUse"
       id="clipPath82">
      <path
         d="M 0,600 H 900 V 0 H 0 Z"
         transform="translate(-109.6812,-512.28322)"
         id="path82" />
    </clipPath>
    <clipPath
       clipPathUnits="userSpaceOnUse"
       id="clipPath84">
      <path
         d="M 0,600 H 900 V 0 H 0 Z"
         transform="translate(-114.73881,-509.13181)"
         id="path84" />
    </clipPath>
    <clipPath
       clipPathUnits="userSpaceOnUse"
       id="clipPath86">
      <path
         d="M 0,600 H 900 V 0 H 0 Z"
         transform="translate(-116.90631,-482.84471)"
         id="path86" />
    </clipPath>
    <clipPath
       clipPathUnits="userSpaceOnUse"
       id="clipPath88">
      <path
         d="M 0,600 H 900 V 0 H 0 Z"
         transform="translate(-119.87841,-482.23001)"
         id="path88" />
    </clipPath>
    <clipPath
       clipPathUnits="userSpaceOnUse"
       id="clipPath90">
      <path
         d="M 0,600 H 900 V 0 H 0 Z"
         transform="translate(-108.55371,-481.61471)"
         id="path90" />
    </clipPath>
    <clipPath
       clipPathUnits="userSpaceOnUse"
       id="clipPath92">
      <path
         d="M 0,600 H 900 V 0 H 0 Z"
         transform="translate(-135.0015,-485.51321)"
         id="path92" />
    </clipPath>
  </defs>
  <sodipodi:namedview
     id="namedview1"
     pagecolor="#ffffff"
     bordercolor="#000000"
     borderopacity="0.25"
     inkscape:showpageshadow="2"
     inkscape:pageopacity="0.0"
     inkscape:pagecheckerboard="0"
     inkscape:deskcolor="#d1d1d1">
    <inkscape:page
       x="0"
       y="0"
       inkscape:label="1"
       id="page1"
       width="1200"
       height="800"
       margin="0"
       bleed="0" />
  </sodipodi:namedview>
  <g
     id="layer-MC0"
     inkscape:groupmode="layer"
     inkscape:label="Flag of Malta">
    <path
       id="path1"
       d="M 450,0 H 900 V 600 H 450 Z"
       style="fill:#cf142b;fill-opacity:1;fill-rule:nonzero;stroke:none"
       transform="matrix(1.3333333,0,0,-1.3333333,0,800)" />
    <path
       id="path2"
       d="M 0,0 H 450 V 600 H 0 Z"
       style="fill:#ffffff;fill-opacity:1;fill-rule:nonzero;stroke:none"
       transform="matrix(1.3333333,0,0,-1.3333333,0,800)" />
    <path
       id="path3"
       d="m 0,0 c 0,-0.99 -1.12,-1.792 -2.502,-1.792 -1.382,0 -2.503,0.802 -2.503,1.792 0,0.99 1.121,1.792 2.503,1.792 C -1.12,1.792 0,0.99 0,0"
       style="fill:#f1eeee;fill-opacity:1;fill-rule:nonzero;stroke:none"
       transform="matrix(1.3333333,0,0,-1.3333333,134.02347,121.98307)"
       clip-path="url(#clipPath4)" />
    <path
       id="path5"
       d="m 0,0 v -45.457 h 45.455 c 0,-7.574 7.576,-15.15 15.152,-15.15 v -45.455 h 45.453 v 45.455 c 7.576,0 15.152,7.576 15.152,15.15 h 45.455 V 0 h -45.455 c 0,7.574 -7.576,15.15 -15.152,15.15 V 60.605 H 60.607 V 15.15 C 53.031,15.15 45.455,7.574 45.455,0 Z"
       style="fill:#e60d2e;fill-opacity:1;fill-rule:nonzero;stroke:none"
       transform="matrix(1.3333333,0,0,-1.3333333,29.6296,110.4368)"
       clip-path="url(#clipPath6)" />
    <path
       id="path7"
       d="m 0,0 v -39.397 h 45.452 c 0,-7.574 7.576,-15.15 15.153,-15.15 v -45.454 h 39.392 v 45.454 c 7.576,0 15.152,7.576 15.152,15.15 h 45.453 V 0 h -45.453 c 0,7.574 -7.576,15.15 -15.152,15.15 V 60.605 H 60.605 V 15.15 C 53.028,15.15 45.452,7.574 45.452,0 Z"
       style="fill:#96877d;fill-opacity:1;fill-rule:nonzero;stroke:none"
       transform="matrix(1.3333333,0,0,-1.3333333,33.6712,114.4752)"
       clip-path="url(#clipPath8)" />
    <path
       id="path9"
       d="m 0,0 v -36.364 h 45.452 c 0,-7.574 7.576,-15.154 15.152,-15.154 v -45.454 h 36.363 v 45.454 c 7.576,0 15.152,7.58 15.152,15.154 h 45.452 V 0 h -45.452 c 0,7.574 -7.576,15.15 -15.152,15.15 V 60.604 H 60.604 V 15.15 C 53.028,15.15 45.452,7.574 45.452,0 Z"
       style="fill:#cccccc;fill-opacity:1;fill-rule:nonzero;stroke:none"
       transform="matrix(1.3333333,0,0,-1.3333333,35.693333,116.4968)"
       clip-path="url(#clipPath10)" />
    <path
       id="path11"
       d="m 0,0 c 2.663,-2.663 1.943,-7.699 -1.607,-11.25 -3.55,-3.55 -8.587,-4.269 -11.249,-1.607 -2.663,2.663 -1.943,7.7 1.606,11.25 C -7.699,1.943 -2.663,2.663 0,0"
       style="fill:#96877d;fill-opacity:1;fill-rule:nonzero;stroke:none"
       transform="matrix(1.3333333,0,0,-1.3333333,112.71413,95.574267)"
       clip-path="url(#clipPath12)" />
    <path
       id="path13"
       d="M 0,0 1.071,1.072 5.357,-1.07 3.214,3.215 4.285,4.288 8.571,-4.284 0,0.002 Z"
       style="fill:#d0d0d0;fill-opacity:1;fill-rule:nonzero;stroke:none"
       transform="matrix(1.3333333,0,0,-1.3333333,94.858133,106.28707)"
       clip-path="url(#clipPath14)" />
    <path
       id="path15"
       d="M 0,0 1.071,1.072 7.5,-5.357 6.428,-6.428 Z"
       style="fill:#d0d0d0;fill-opacity:1;fill-rule:nonzero;stroke:none"
       transform="matrix(1.3333333,0,0,-1.3333333,103.42907,97.716133)"
       clip-path="url(#clipPath16)" />
    <path
       id="path17"
       d="m 0,0 c -2.663,-2.663 -7.699,-1.943 -11.25,1.607 -3.55,3.551 -4.269,8.587 -1.606,11.25 2.662,2.663 7.699,1.943 11.249,-1.607 C 1.943,7.7 2.663,2.663 0,0"
       style="fill:#96877d;fill-opacity:1;fill-rule:nonzero;stroke:none"
       transform="matrix(1.3333333,0,0,-1.3333333,185.9088,112.71613)"
       clip-path="url(#clipPath18)" />
    <path
       id="path19"
       d="M 0,0 1.071,-1.072 -1.071,-5.358 3.214,-3.216 4.286,-4.288 -4.285,-8.574 0,-0.002 Z"
       style="fill:#d0d0d0;fill-opacity:1;fill-rule:nonzero;stroke:none"
       transform="matrix(1.3333333,0,0,-1.3333333,175.19467,94.859333)"
       clip-path="url(#clipPath20)" />
    <path
       id="path21"
       d="M 0,0 1.071,-1.071 -5.357,-7.5 -6.428,-6.428 Z"
       style="fill:#d0d0d0;fill-opacity:1;fill-rule:nonzero;stroke:none"
       transform="matrix(1.3333333,0,0,-1.3333333,183.76627,103.43093)"
       clip-path="url(#clipPath22)" />
    <path
       id="path23"
       d="m 0,0 c -2.663,2.663 -1.943,7.699 1.607,11.25 3.55,3.55 8.587,4.269 11.249,1.607 2.663,-2.663 1.943,-7.7 -1.606,-11.25 C 7.699,-1.943 2.663,-2.663 0,0"
       style="fill:#96877d;fill-opacity:1;fill-rule:nonzero;stroke:none"
       transform="matrix(1.3333333,0,0,-1.3333333,168.76627,185.91213)"
       clip-path="url(#clipPath24)" />
    <path
       id="path25"
       d="M 0,0 -1.071,-1.072 -5.357,1.07 -3.214,-3.215 -4.286,-4.288 -8.571,4.283 0,-0.002 Z"
       style="fill:#d0d0d0;fill-opacity:1;fill-rule:nonzero;stroke:none"
       transform="matrix(1.3333333,0,0,-1.3333333,186.62307,175.1992)"
       clip-path="url(#clipPath26)" />
    <path
       id="path27"
       d="M 0,0 -1.071,-1.071 -7.5,5.357 -6.428,6.428 Z"
       style="fill:#d0d0d0;fill-opacity:1;fill-rule:nonzero;stroke:none"
       transform="matrix(1.3333333,0,0,-1.3333333,178.05213,183.77013)"
       clip-path="url(#clipPath28)" />
    <path
       id="path29"
       d="m 0,0 c 2.663,2.662 7.699,1.943 11.249,-1.607 3.55,-3.551 4.27,-8.587 1.607,-11.25 C 10.193,-15.52 5.157,-14.8 1.607,-11.25 -1.943,-7.699 -2.663,-2.663 0,0"
       style="fill:#96877d;fill-opacity:1;fill-rule:nonzero;stroke:none"
       transform="matrix(1.3333333,0,0,-1.3333333,95.572267,168.77013)"
       clip-path="url(#clipPath30)" />
    <path
       id="path31"
       d="M 0,0 -1.071,1.072 1.071,5.358 -3.214,3.216 -4.286,4.288 4.285,8.574 0,0.002 Z"
       style="fill:#d0d0d0;fill-opacity:1;fill-rule:nonzero;stroke:none"
       transform="matrix(1.3333333,0,0,-1.3333333,106.28587,186.62693)"
       clip-path="url(#clipPath32)" />
    <path
       id="path33"
       d="M 0,0 -1.071,1.071 5.357,7.5 6.428,6.428 Z"
       style="fill:#d0d0d0;fill-opacity:1;fill-rule:nonzero;stroke:none"
       transform="matrix(1.3333333,0,0,-1.3333333,97.7148,178.05533)"
       clip-path="url(#clipPath34)" />
    <path
       id="path35"
       d="m 0,0 c 0.004,-17.576 -14.242,-31.826 -31.818,-31.826 -17.575,0 -31.822,14.25 -31.817,31.826 -0.005,17.576 14.242,31.826 31.817,31.826 C -14.242,31.826 0.004,17.576 0,0 Z"
       style="fill:none;stroke:#96877d;stroke-width:0.514;stroke-linecap:butt;stroke-linejoin:miter;stroke-miterlimit:4;stroke-dasharray:none;stroke-opacity:1"
       transform="matrix(1.3333333,0,0,-1.3333333,183.164,140.74213)"
       clip-path="url(#clipPath36)" />
    <path
       id="path37"
       d="m 0,0 c 0.003,-13.391 -10.851,-24.249 -24.242,-24.249 -13.39,0 -24.245,10.858 -24.242,24.249 -0.003,13.391 10.852,24.249 24.242,24.249 C -10.851,24.249 0.003,13.391 0,0 Z"
       style="fill:none;stroke:#96877d;stroke-width:0.514;stroke-linecap:butt;stroke-linejoin:miter;stroke-miterlimit:4;stroke-dasharray:none;stroke-opacity:1"
       transform="matrix(1.3333333,0,0,-1.3333333,173.06253,140.7428)"
       clip-path="url(#clipPath38)" />
    <path
       id="path39"
       d="m 0,0 c 0.001,-0.542 -0.288,-1.043 -0.757,-1.315 -0.469,-0.272 -1.047,-0.272 -1.516,0 -0.47,0.272 -0.758,0.773 -0.757,1.315 -0.001,0.542 0.287,1.042 0.757,1.314 0.469,0.272 1.047,0.272 1.516,0 C -0.288,1.042 0.001,0.542 0,0"
       style="fill:#000000;fill-opacity:1;fill-rule:nonzero;stroke:none"
       transform="matrix(1.3333333,0,0,-1.3333333,126.59893,175.086)"
       clip-path="url(#clipPath40)" />
    <path
       id="path41"
       d="m 0,0 c 0,-0.542 -0.288,-1.043 -0.757,-1.315 -0.469,-0.272 -1.047,-0.272 -1.516,0 -0.47,0.272 -0.758,0.773 -0.757,1.315 -0.001,0.542 0.287,1.042 0.757,1.314 0.469,0.272 1.047,0.272 1.516,0 C -0.288,1.042 0,0.542 0,0"
       style="fill:#000000;fill-opacity:1;fill-rule:nonzero;stroke:none"
       transform="matrix(1.3333333,0,0,-1.3333333,158.92187,175.086)"
       clip-path="url(#clipPath42)" />
    <path
       id="path43"
       d="m 0,0 v -1.58 h -2.021 c -2.02,0 -2.02,-1.58 0,-1.58 H 0 v -1.579 c 0.007,-1.637 1.763,-1.836 1.892,-0.137 l 0.128,1.708 h 2.02 c 2.02,0 2.02,1.579 0,1.579 H 2.02 v 1.58 c 0,1.58 -2.02,1.58 -2.02,0 z"
       style="fill:#000000;fill-opacity:1;fill-rule:nonzero;stroke:none"
       transform="matrix(1.3333333,0,0,-1.3333333,139.39387,175.08653)"
       clip-path="url(#clipPath44)" />
    <path
       id="path45"
       d="m 0,0 c 0.532,0.135 1.409,0.026 1.409,0.026 0,0 0.077,-0.365 -0.154,-0.487 0.257,-0.147 1.179,-0.102 1.179,-0.102 0,0 -0.358,-0.276 -0.538,-0.385 0.333,-0.032 0.743,-0.461 0.743,-0.461 0,0 -0.768,-0.128 -1.101,0.051 0.204,-0.41 0.179,-0.768 0.179,-0.768 0,0 -1.243,0.307 -1.691,1.127"
       style="fill:#96877d;fill-opacity:1;fill-rule:nonzero;stroke:#000000;stroke-width:0.203;stroke-linecap:butt;stroke-linejoin:miter;stroke-miterlimit:4;stroke-dasharray:none;stroke-opacity:1"
       transform="matrix(1.3333333,0,0,-1.3333333,163.80013,146.91533)"
       clip-path="url(#clipPath46)" />
    <path
       id="path47"
       d="m 0,0 c -0.301,-0.743 -2.511,0.641 -2.511,0.641 0,0 0.974,-1.544 2.434,-1.717"
       style="fill:#96877d;fill-opacity:1;fill-rule:nonzero;stroke:#000000;stroke-width:0.203;stroke-linecap:butt;stroke-linejoin:miter;stroke-miterlimit:4;stroke-dasharray:none;stroke-opacity:1"
       transform="matrix(1.3333333,0,0,-1.3333333,161.0332,145.9928)"
       clip-path="url(#clipPath48)" />
    <path
       id="path49"
       d="m 0,0 h 25.877 l 1.998,1.588 -3.33,1.794 -5.124,1.743 -2.05,1.126 L 13.579,6.047 10.402,4.355 6.046,3.843 5.022,2.665 1.793,2.409 -3.279,2.511 5.175,1.179 -1.793,1.538 Z"
       style="fill:#96877d;fill-opacity:1;fill-rule:nonzero;stroke:#000000;stroke-width:0.203;stroke-linecap:butt;stroke-linejoin:miter;stroke-miterlimit:4;stroke-dasharray:none;stroke-opacity:1"
       transform="matrix(1.3333333,0,0,-1.3333333,124.2416,164.88413)"
       clip-path="url(#clipPath50)" />
    <path
       id="path51"
       d="m 0,0 c -3.241,1.742 -4.189,-2.549 -5.585,-3.587 1.883,-0.32 3.305,1.448 4.918,2.306 1.225,-3.333 3.152,-1.127 3.152,-1.127 0,0 2.011,-3.19 4.689,-1.742 0.73,-0.552 1.537,-0.052 1.537,-0.052 0,0 0.974,-0.179 1.179,0.256 0.512,-0.179 1.076,0.462 1.076,0.462 0,0 1.114,-0.013 1.332,0.563 1.653,-0.294 3.843,3.382 3.843,3.382 l 0.666,1.281 0.974,0.205 c 0,0 0.064,0.641 -0.461,0.615 -0.013,0.384 -0.346,0.589 -0.82,0.513 0.089,0.23 -0.256,0.409 -0.256,0.409 -0.923,-0.23 -0.974,-2.562 -0.974,-2.562 0,0 -1.614,-1.23 -2.204,-1.537 -0.025,1.332 -2.254,3.139 -1.793,3.997 0.461,0.858 1.909,-1.319 3.177,-0.923 1.268,0.398 1.891,2.047 1.947,3.332 -0.358,0.871 -1.23,2.305 -1.23,2.305 L 14.348,8.147 13.63,9.89 c 0,0 -1.511,-0.987 -1.486,-1.845 0.026,-0.858 1.589,-1.588 1.589,-1.588 0,0 -0.901,-0.564 -1.743,-0.308 -0.076,-0.871 1.025,-0.705 1.435,-0.717 0.205,-0.628 0.82,-0.974 0.82,-0.974 0,0 0.384,-0.961 -0.615,-0.871 -0.999,0.09 -2.178,2.392 -3.587,1.332 -1.499,-1.127 0.666,-3.177 0.666,-3.177 0,0 -1.319,-0.692 -2.101,-2.459 C 5.418,1.973 3.548,0.717 0,0"
       style="fill:#96877d;fill-opacity:1;fill-rule:nonzero;stroke:#000000;stroke-width:0.203;stroke-linecap:butt;stroke-linejoin:miter;stroke-miterlimit:4;stroke-dasharray:none;stroke-opacity:1"
       transform="matrix(1.3333333,0,0,-1.3333333,142.82547,154.9772)"
       clip-path="url(#clipPath52)" />
    <path
       id="path53"
       d="m 0,0 c 1.332,-1.255 0.403,-3.342 0.922,-3.741 0.551,-0.423 1.332,0.205 1.332,0.205 1.397,-0.371 3.895,0.41 3.895,0.41 1.1,-0.615 0.665,0.293 1.332,0.256 0.589,-1.511 2.562,-1.23 2.562,-1.23 0,0 -1.806,1.845 -2.92,2.358 C 6.264,-2.255 3.766,-2.332 3.331,-2.255 2.845,-2.169 3.151,-1.576 2.921,-1.23 3.839,-0.336 3.113,1.883 2.613,2.716 0.577,4.072 -1.855,1.748 0,0"
       style="fill:#96877d;fill-opacity:1;fill-rule:nonzero;stroke:#000000;stroke-width:0.203;stroke-linecap:butt;stroke-linejoin:miter;stroke-miterlimit:4;stroke-dasharray:none;stroke-opacity:1"
       transform="matrix(1.3333333,0,0,-1.3333333,136.60813,148.89653)"
       clip-path="url(#clipPath54)" />
    <path
       id="path55"
       d="m 0,0 c -1.676,-0.453 -4.583,2.165 -5.942,1.159 -1.359,-1.005 -0.725,-3.478 0.181,-4.71 0.885,-1.204 -1.296,-1.639 -1.885,-2.355 -0.553,-0.673 0.182,-1.449 0.182,-1.449 l 0.616,-0.399 -0.109,-0.906 0.326,-1.087 c 0,0 0.299,-0.263 0.399,0.073 0.28,-0.282 0.029,-1.094 0.724,-1.196 -0.248,0.52 0.182,1.956 0.182,1.956 0,0 1.213,-0.09 1.521,0.435 0.308,0.525 -0.289,1.667 -0.289,1.667 h 0.362 c -0.408,0.281 -0.544,1.123 -0.544,1.123 0,0 1.685,0.535 1.667,1.812 -0.018,1.277 -2.736,2.636 -1.739,3.297 1.105,0.734 3.025,-1.902 4.674,-0.689 1.632,1.202 0.58,0.037 0.58,0.037 0,0 0.745,1.678 -0.906,1.232"
       style="fill:#96877d;fill-opacity:1;fill-rule:nonzero;stroke:none"
       transform="matrix(1.3333333,0,0,-1.3333333,124.79813,143.88733)"
       clip-path="url(#clipPath56)" />
    <path
       id="path57"
       d="m 0,0 c -1.676,-0.453 -4.583,2.165 -5.942,1.159 -1.359,-1.005 -0.725,-3.478 0.181,-4.71 0.885,-1.204 -1.296,-1.639 -1.885,-2.355 -0.553,-0.673 0.182,-1.449 0.182,-1.449 l 0.616,-0.399 -0.109,-0.906 0.326,-1.087 c 0,0 0.299,-0.263 0.399,0.073 0.28,-0.282 0.029,-1.094 0.724,-1.196 -0.248,0.52 0.182,1.956 0.182,1.956 0,0 1.213,-0.09 1.521,0.435 0.308,0.525 -0.289,1.667 -0.289,1.667 h 0.362 c -0.408,0.281 -0.544,1.123 -0.544,1.123 0,0 1.685,0.535 1.667,1.812 -0.018,1.277 -2.736,2.636 -1.739,3.297 1.105,0.734 3.025,-1.902 4.674,-0.689 1.632,1.202 0.58,0.037 0.58,0.037 0,0 0.745,1.678 -0.906,1.232 z"
       style="fill:none;stroke:#000000;stroke-width:0.203;stroke-linecap:butt;stroke-linejoin:miter;stroke-miterlimit:4;stroke-dasharray:none;stroke-opacity:1"
       transform="matrix(1.3333333,0,0,-1.3333333,124.79813,143.88733)"
       clip-path="url(#clipPath58)" />
    <path
       id="path59"
       d="m 0,0 c -2.242,0.936 -6.821,0.993 -9.377,2.255 -1.121,-0.07 -1.621,-0.955 -1.665,-1.307 -1.173,0.058 -1.967,-1.787 -1.794,-2.152 -2.133,0.865 -3.126,-2.511 -2.434,-3.203 -1.819,-0.076 -1.595,-2.402 -1.768,-3.049 -0.583,-1.415 0.13,-1.891 1.281,-1.383 0.173,-0.615 -0.069,-0.959 -0.589,-1.076 3.158,-3.613 4.942,2.224 7.712,2.203 3.458,1.013 4.817,2.716 4.817,2.716 l 1.358,-0.179 z"
       style="fill:#96877d;fill-opacity:1;fill-rule:nonzero;stroke:#000000;stroke-width:0.203;stroke-linecap:butt;stroke-linejoin:miter;stroke-miterlimit:4;stroke-dasharray:none;stroke-opacity:1"
       transform="matrix(1.3333333,0,0,-1.3333333,136.33467,119.96227)"
       clip-path="url(#clipPath60)" />
    <path
       id="path61"
       d="m 0,0 c 0,-1.825 -1.479,-3.305 -3.305,-3.305 -1.825,0 -3.305,1.48 -3.305,3.305 0,1.825 1.48,3.305 3.305,3.305 C -1.479,3.305 0,1.825 0,0"
       style="fill:#96877d;fill-opacity:1;fill-rule:nonzero;stroke:#000000;stroke-width:0.203;stroke-linecap:round;stroke-linejoin:miter;stroke-miterlimit:4;stroke-dasharray:none;stroke-opacity:1"
       transform="matrix(1.3333333,0,0,-1.3333333,144.6016,116.51173)"
       clip-path="url(#clipPath62)" />
    <path
       id="path63"
       d="m 0,0 c -2.049,0.372 -5.444,2.498 -5.79,5.278 1.909,7.494 11.755,3.58 12.604,9.217 -0.216,3.719 0.45,7.4 2.512,10.511 0.961,1.217 2.204,1.537 2.204,1.537 0,0 0.222,-0.793 -0.103,-1.332 1.627,0.179 3.856,-0.73 5.381,-0.82 0.448,-0.91 0.409,-1.243 0.307,-1.793 -0.102,-0.551 -0.718,-0.411 -0.718,-0.411 -0.397,-0.376 -0.875,-0.76 -1.947,-0.563 -0.806,-0.615 -2.511,-0.769 -2.511,-0.769 0,0 3.562,-3.753 2.973,-4.919 0.743,-0.346 1.844,-1.998 1.844,-1.998 0,0 2.434,1.281 3.228,2.459 1.41,0 3.716,-1.473 4.869,-1.639 1.409,-1.14 2.818,-2.306 2.818,-2.306 0,0 -1.678,-1.102 -2.409,0.359 -0.884,-0.078 -2.792,2.036 -5.431,1.383 -0.077,-2.344 -2.665,-3.997 -2.665,-3.997 0,0 2.416,0.338 3.741,-0.461 1.37,-1.153 3.382,-2.716 3.382,-2.716 l 1.793,-3.074 c 0,0 -1.64,-0.282 -2.254,1.844 C 23.213,4.074 23.187,6.854 20.753,8.147 20.01,8.058 19.639,8.006 19.011,8.506 17.256,8.032 15.181,7.007 12.708,7.276 10.953,6.726 9.672,5.265 7.892,4.458 6.111,3.651 5.585,4.048 5.585,4.048 L 4.151,3.997 C 3.944,3.133 4.061,1.819 3.28,1.588 3.779,1.05 2.921,-1.243 2.05,-1.64 c 0.41,-1.473 1.611,-1.924 2.869,-2.664 0,0 1.115,0.512 1.845,-0.154 0.73,-0.666 1.486,-2.562 1.486,-2.562 0,0 -1.52,-0.103 -1.999,0.103 -0.478,0.205 -0.524,0.704 -1.075,0.563 -3.472,3.087 -5.303,1.859 -5.637,2.562 C -0.804,-3.072 0.359,-1.191 0,0"
       style="fill:#96877d;fill-opacity:1;fill-rule:nonzero;stroke:#000000;stroke-width:0.203;stroke-linecap:butt;stroke-linejoin:miter;stroke-miterlimit:4;stroke-dasharray:none;stroke-opacity:1"
       transform="matrix(1.3333333,0,0,-1.3333333,132.44013,151.21947)"
       clip-path="url(#clipPath64)" />
    <path
       id="path65"
       d="m 0,0 c 0.181,0.226 1.449,-0.254 1.449,-0.254 l 2.319,-1.449 4.711,-3.044 1.667,-2.427 -3.008,0.978 -4.167,3.587 -2.246,1.449 c 0,0 -0.906,0.933 -0.725,1.16"
       style="fill:#96877d;fill-opacity:1;fill-rule:nonzero;stroke:none"
       transform="matrix(1.3333333,0,0,-1.3333333,121.3196,132.8724)"
       clip-path="url(#clipPath66)" />
    <path
       id="path67"
       d="m 0,0 c 0.181,0.226 1.449,-0.254 1.449,-0.254 l 2.319,-1.449 4.711,-3.044 1.667,-2.427 -3.008,0.978 -4.167,3.587 -2.246,1.449 c 0,0 -0.906,0.933 -0.725,1.16 z"
       style="fill:none;stroke:#000000;stroke-width:0.203;stroke-linecap:butt;stroke-linejoin:miter;stroke-miterlimit:4;stroke-dasharray:none;stroke-opacity:1"
       transform="matrix(1.3333333,0,0,-1.3333333,121.3196,132.8724)"
       clip-path="url(#clipPath68)" />
    <path
       id="path69"
       d="m 0,0 c -1.627,0.41 -5.637,-4.458 -5.637,-4.458 l 3.024,-3.279 c 0,0 0.089,5.585 2.613,7.737"
       style="fill:#96877d;fill-opacity:1;fill-rule:nonzero;stroke:none"
       transform="matrix(1.3333333,0,0,-1.3333333,158.47133,143.1576)"
       clip-path="url(#clipPath70)" />
    <path
       id="path71"
       d="m 0,0 c -1.627,0.41 -5.637,-4.458 -5.637,-4.458 l 3.024,-3.279 c 0,0 0.089,5.585 2.613,7.737 z"
       style="fill:none;stroke:#000000;stroke-width:0.203;stroke-linecap:butt;stroke-linejoin:miter;stroke-miterlimit:4;stroke-dasharray:none;stroke-opacity:1"
       transform="matrix(1.3333333,0,0,-1.3333333,158.47133,143.1576)"
       clip-path="url(#clipPath72)" />
    <path
       id="path73"
       d="m 0,0 c -0.887,-1.137 -0.967,-3.429 0.187,-4.353 0.109,-1.391 1.292,-4.197 2.221,-4.46 1.015,-0.289 5.073,-1.23 6.662,-0.974 -0.304,-2.575 1.716,-4.641 3.587,-5.995 -0.014,-0.232 -0.017,-0.513 0.199,-0.799 0.209,-0.277 1.192,-0.327 1.235,-0.175 0.436,-0.613 2.548,-0.882 2.701,-0.609 0.148,0.266 -3.106,2.531 -3.828,3.222 -0.613,1.144 -1.775,3.694 -2.049,5.739 -1.598,1.901 -4.34,1.862 -4.34,1.862 l 0.086,3.724 0.154,4.202 -1.486,0.768 c 0,0 0.299,0.137 0.461,0.307 C 6.151,2.305 6.829,3.03 6.917,3.234 7.259,3.113 7.569,3.115 7.628,3.298 7.682,3.459 7.743,4.177 7.867,4.548 8.988,5.535 7.704,7.628 5.989,7.663 4.293,7.697 3.913,5.639 3.945,5.483 4.105,4.837 4.07,4.512 3.945,4.355 3.818,4.196 3.228,3.843 3.228,3.843 c 0,0 -0.948,0.449 -2.101,0 C -0.026,3.395 -1.32,2.793 -1.384,2.05 -1.909,1.973 -2.767,1.294 -2.921,0.717 c -0.461,0.09 -1.063,-0.294 -2.05,-1.896 -1.767,-0.781 -1.87,-4.56 -1.87,-4.56 0,0 -0.477,-0.695 -0.499,-1.063 -0.023,-0.368 0.166,-0.705 0.397,-0.641 0.025,-0.243 0.345,-0.461 0.486,-0.384 0.052,-0.243 0.403,-0.38 0.615,-0.346 0.019,-0.166 0.702,-0.125 0.756,0.026 0.06,0.166 -0.067,0.997 0.013,1.063 0.073,0.061 0.64,-0.372 0.794,-0.256 0.154,0.115 -0.029,0.484 -0.115,0.628 -0.077,0.128 -0.564,0.268 -0.679,0.871 -0.115,0.602 0.307,1.434 0.307,1.434 0,0 1.922,1.512 2.14,2.806 C -1.179,-1.742 -0.413,-0.477 0,0"
       style="fill:#96877d;fill-opacity:1;fill-rule:nonzero;stroke:#000000;stroke-width:0.203;stroke-linecap:butt;stroke-linejoin:miter;stroke-miterlimit:4;stroke-dasharray:none;stroke-opacity:1"
       transform="matrix(1.3333333,0,0,-1.3333333,132.03053,125.05213)"
       clip-path="url(#clipPath74)" />
    <path
       id="path75"
       d="m 0,0 c 0.439,1.073 2.024,0.974 2.024,0.974 0,0 0.567,1.492 2.703,0.602 0.804,0.621 2.921,-0.269 2.921,-0.269 0,0 0.792,1.056 1.832,0.935 1.925,-0.224 2.245,-1.989 2.126,-2.293 C 10.553,-0.317 8.728,0.805 7.34,0.487 6.53,0.029 5.217,-0.455 4.727,-1.115 3.443,-1.249 2.072,0.067 0,0"
       style="fill:#96877d;fill-opacity:1;fill-rule:nonzero;stroke:#000000;stroke-width:0.203;stroke-linecap:butt;stroke-linejoin:miter;stroke-miterlimit:4;stroke-dasharray:none;stroke-opacity:1"
       transform="matrix(1.3333333,0,0,-1.3333333,127.57227,117.8268)"
       clip-path="url(#clipPath76)" />
    <path
       id="path77"
       d="m 0,0 c 0.48,0.295 1.659,0.812 2.459,0.179 0.84,-0.903 2.127,-1.742 2.127,-1.742 L 6.046,-2.178 6.713,-2.587 6.277,-9.275 C 4.925,-7.892 3.659,-7.649 2.69,-6.021 2.171,-5.323 2.568,-3.645 1.666,-2.537 0.762,-1.428 -0.199,-0.679 0,0"
       style="fill:#96877d;fill-opacity:1;fill-rule:nonzero;stroke:#000000;stroke-width:0.203;stroke-linecap:butt;stroke-linejoin:miter;stroke-miterlimit:4;stroke-dasharray:none;stroke-opacity:1"
       transform="matrix(1.3333333,0,0,-1.3333333,132.91867,120.2012)"
       clip-path="url(#clipPath78)" />
    <path
       id="path79"
       d="M 0,0 C 0,0 0.766,0.145 0.979,-0.037 1.246,-0.127 1.504,-0.204 1.576,-0.435 1.866,-0.521 2.065,-0.67 2.065,-0.888 2.337,-0.96 2.446,-1.45 2.446,-1.45 L 2.192,-1.83 c 0,0 -0.29,0.272 -0.326,0.561 -0.183,0.091 -0.589,0.186 -0.688,0.454 -0.317,0.031 -0.521,0.194 -0.58,0.471 C 0.304,-0.412 0,0 0,0"
       style="fill:#96877d;fill-opacity:1;fill-rule:nonzero;stroke:#000000;stroke-width:0.203;stroke-linecap:butt;stroke-linejoin:miter;stroke-miterlimit:4;stroke-dasharray:none;stroke-opacity:1"
       transform="matrix(1.3333333,0,0,-1.3333333,137.60027,122.77533)"
       clip-path="url(#clipPath80)" />
    <path
       id="path81"
       d="m 0,0 c -0.436,0.487 -1.204,0.128 -1.204,0.128 l -2.05,-3.536 -0.897,-0.742 -0.077,-2.767 0.744,-2.588 -0.257,-1.999 c 0,0 1.033,0.968 1.153,1.512 0.115,0.519 -0.384,2.203 -0.384,2.203 0,0 -0.615,1.051 0.128,2.998 C -2.101,-2.844 -0.41,-1.23 0,0"
       style="fill:#96877d;fill-opacity:1;fill-rule:nonzero;stroke:#000000;stroke-width:0.203;stroke-linecap:butt;stroke-linejoin:miter;stroke-miterlimit:4;stroke-dasharray:none;stroke-opacity:1"
       transform="matrix(1.3333333,0,0,-1.3333333,146.2416,116.95573)"
       clip-path="url(#clipPath82)" />
    <path
       id="path83"
       d="m 0,0 c 0,0 -3.2,-4.573 -8.439,-6.2 -1.448,-0.346 -0.923,3.382 -0.923,3.382 l -0.359,-0.103 c 0,0 -0.807,-3.651 1.128,-3.689 5.265,1.037 9.215,6.58 9.215,6.58 z"
       style="fill:#96877d;fill-opacity:1;fill-rule:nonzero;stroke:#000000;stroke-width:0.203;stroke-linecap:butt;stroke-linejoin:miter;stroke-miterlimit:4;stroke-dasharray:none;stroke-opacity:1"
       transform="matrix(1.3333333,0,0,-1.3333333,152.98507,121.1576)"
       clip-path="url(#clipPath84)" />
    <path
       id="path85"
       d="m 0,0 c 0,0 -0.487,-0.359 -1.127,0 -0.333,0.769 -1.23,0.82 -1.23,0.82 0,0 -0.578,1.659 -1.486,1.179 -0.141,0.858 -1.128,0.409 -1.128,0.409 0,0 -0.025,1.243 -1.178,1.076 0.384,1.422 -1.589,1.333 -1.589,1.333 0,0 -0.064,1.601 -2.971,1.281 C -4.445,8.903 0.512,1.691 0.512,1.691"
       style="fill:#96877d;fill-opacity:1;fill-rule:nonzero;stroke:#000000;stroke-width:0.203;stroke-linecap:butt;stroke-linejoin:miter;stroke-miterlimit:4;stroke-dasharray:none;stroke-opacity:1"
       transform="matrix(1.3333333,0,0,-1.3333333,155.87507,156.20707)"
       clip-path="url(#clipPath86)" />
    <path
       id="path87"
       d="m 0,0 c 0,0 1.447,-1.627 2.203,-1.64 0.756,-0.013 0.82,1.589 0.82,1.589 0,0 0.244,-0.692 0.615,-0.513 -0.038,-0.487 0.461,-0.615 0.461,-0.615 0,0 -1.307,-3.036 -5.021,-0.154"
       style="fill:#96877d;fill-opacity:1;fill-rule:nonzero;stroke:#000000;stroke-width:0.203;stroke-linecap:butt;stroke-linejoin:miter;stroke-miterlimit:4;stroke-dasharray:none;stroke-opacity:1"
       transform="matrix(1.3333333,0,0,-1.3333333,159.83787,157.02667)"
       clip-path="url(#clipPath88)" />
    <path
       id="path89"
       d="m 0,0 -0.512,-2.101 c 0,0 -0.654,-0.589 -0.462,-0.717 0.193,-0.128 1.23,0.205 1.23,0.205 0,0 1.615,0.192 2.101,0.666 0.333,-0.756 1.076,-0.82 1.076,-0.82 0,0 0.051,0.32 -0.051,0.513 0.359,-0.064 0.666,0.051 0.666,0.051 0,0 0.205,0.589 -0.256,0.82 0.051,0.435 0.269,0.82 -0.512,0.768 -0.577,-0.614 -1.999,-1.319 -2.358,-1.076 -0.358,0.244 1.41,1.025 0.923,2.05"
       style="fill:#96877d;fill-opacity:1;fill-rule:nonzero;stroke:#000000;stroke-width:0.203;stroke-linecap:butt;stroke-linejoin:miter;stroke-miterlimit:4;stroke-dasharray:none;stroke-opacity:1"
       transform="matrix(1.3333333,0,0,-1.3333333,144.73827,157.84707)"
       clip-path="url(#clipPath90)" />
    <path
       id="path91"
       d="M 0,0 -0.482,-1.839 -0.626,-1.801 -0.6,-1.7 c 0.018,0.067 0.014,0.174 -0.011,0.319 -0.026,0.145 -0.081,0.285 -0.164,0.421 -0.084,0.135 -0.231,0.314 -0.441,0.535 L -2.885,1.372 -4.207,1.718 C -4.53,1.803 -4.742,1.82 -4.841,1.769 -4.976,1.699 -5.071,1.558 -5.127,1.345 L -5.172,1.174 -5.316,1.212 -4.729,3.451 -4.584,3.413 -4.634,3.227 C -4.692,3.003 -4.666,2.828 -4.556,2.699 -4.488,2.621 -4.306,2.542 -4.011,2.465 l 1.248,-0.328 2.587,0.867 c 0.304,0.103 0.497,0.177 0.577,0.221 0.081,0.044 0.192,0.15 0.333,0.317 0.039,0.045 0.072,0.117 0.098,0.216 L 0.976,3.72 0.384,1.465 0.241,1.503 0.271,1.62 C 0.303,1.741 0.304,1.861 0.274,1.978 0.244,2.096 0.172,2.169 0.058,2.199 -0.035,2.224 -0.225,2.189 -0.51,2.095 L -2.497,1.44 -1.144,-0.02 c 0.204,-0.219 0.364,-0.345 0.484,-0.376 0.072,-0.019 0.142,-0.017 0.209,0.005 0.067,0.022 0.125,0.065 0.176,0.126 0.051,0.061 0.095,0.162 0.131,0.302 z m -1.494,11.21 c 0.003,-0.051 0.004,-0.095 0.005,-0.133 0.001,-0.037 0.002,-0.068 0.003,-0.092 0.027,-0.519 0.16,-0.904 0.398,-1.156 0.238,-0.252 0.532,-0.369 0.88,-0.351 0.339,0.018 0.61,0.138 0.812,0.362 0.201,0.224 0.293,0.511 0.275,0.862 -0.008,0.154 -0.045,0.363 -0.109,0.626 z M -4.09,7.2 l -0.076,1.452 2.449,1.975 c -0.013,0.136 -0.021,0.247 -0.026,0.332 -0.002,0.035 -0.003,0.073 -0.004,0.113 -10e-4,0.04 -10e-4,0.082 0,0.125 L -3.328,11.115 C -3.671,11.097 -3.881,11.048 -3.96,10.969 -4.073,10.861 -4.124,10.706 -4.113,10.502 l 0.01,-0.212 -0.148,-0.008 -0.121,2.331 0.148,0.009 0.011,-0.205 c 0.012,-0.23 0.095,-0.391 0.251,-0.482 0.086,-0.052 0.283,-0.07 0.594,-0.054 l 3.515,0.183 c 0.343,0.018 0.554,0.066 0.633,0.145 0.112,0.111 0.163,0.269 0.152,0.475 L 0.921,12.889 1.07,12.897 1.173,10.914 C 1.203,10.336 1.183,9.908 1.113,9.629 1.043,9.351 0.9,9.11 0.684,8.907 0.468,8.704 0.203,8.594 -0.11,8.578 -0.444,8.561 -0.74,8.654 -0.998,8.86 -1.255,9.065 -1.447,9.394 -1.572,9.846 L -3.075,8.641 C -3.42,8.366 -3.647,8.132 -3.755,7.942 -3.863,7.751 -3.925,7.506 -3.942,7.208 Z m 4.313,9.666 -1.184,-0.484 -0.051,0.144 c 0.202,0.103 0.34,0.195 0.414,0.275 0.119,0.13 0.19,0.273 0.213,0.427 0.024,0.155 -0.002,0.338 -0.077,0.55 l -0.256,0.724 -3.925,-1.389 c -0.316,-0.112 -0.501,-0.215 -0.555,-0.311 -0.072,-0.134 -0.073,-0.3 -0.002,-0.5 l 0.063,-0.178 -0.14,-0.049 -0.771,2.178 0.14,0.05 0.065,-0.182 c 0.076,-0.217 0.197,-0.348 0.36,-0.392 0.101,-0.028 0.295,0.01 0.583,0.112 l 3.925,1.388 -0.219,0.618 c -0.084,0.24 -0.162,0.404 -0.234,0.493 -0.094,0.114 -0.226,0.194 -0.396,0.239 -0.169,0.045 -0.373,0.036 -0.612,-0.029 l -0.05,0.144 1.226,0.366 1.484,-4.194 z m -6.871,12.662 0.881,-1.188 -1.3,-5.111 2.525,1.872 c 0.269,0.199 0.415,0.354 0.437,0.464 0.031,0.146 -0.017,0.306 -0.145,0.478 l -0.112,0.152 0.119,0.088 1.13,-1.524 -0.12,-0.088 -0.115,0.155 c -0.137,0.185 -0.29,0.275 -0.46,0.269 -0.104,-0.004 -0.278,-0.096 -0.524,-0.278 l -3.69,-2.735 -0.086,0.116 1.386,5.499 -2.695,-1.998 c -0.27,-0.199 -0.416,-0.353 -0.439,-0.46 -0.03,-0.149 0.018,-0.308 0.144,-0.479 l 0.114,-0.155 -0.119,-0.088 -1.129,1.524 0.119,0.088 0.113,-0.151 c 0.138,-0.187 0.292,-0.279 0.462,-0.273 0.104,0.003 0.278,0.096 0.524,0.278 l 3.045,2.257 c 0.054,0.237 0.08,0.406 0.079,0.507 -0.001,0.101 -0.029,0.23 -0.082,0.387 -0.027,0.076 -0.087,0.178 -0.182,0.305 z m -6.463,1.191 0.518,2.332 -2.046,-1.25 z m -0.079,-0.308 -1.723,1.219 -0.798,-0.488 c -0.197,-0.121 -0.326,-0.223 -0.386,-0.309 -0.048,-0.067 -0.058,-0.149 -0.029,-0.247 0.027,-0.097 0.143,-0.229 0.347,-0.396 l -0.086,-0.121 -1.401,0.992 0.086,0.121 c 0.209,-0.099 0.36,-0.141 0.451,-0.128 0.186,0.026 0.461,0.152 0.824,0.378 l 4.155,2.553 0.115,-0.082 -1.07,-4.796 c -0.086,-0.385 -0.109,-0.658 -0.07,-0.819 0.039,-0.16 0.145,-0.31 0.318,-0.45 l -0.085,-0.121 -1.755,1.242 0.086,0.122 c 0.183,-0.117 0.324,-0.172 0.421,-0.166 0.099,0.006 0.173,0.045 0.224,0.117 0.068,0.096 0.132,0.28 0.191,0.549 l 0.184,0.83 z m -5.849,3.097 0.117,-0.068 -0.907,-1.257 -4.006,1.324 0.046,0.141 0.195,-0.064 c 0.219,-0.072 0.399,-0.053 0.54,0.059 0.08,0.063 0.169,0.243 0.266,0.538 l 1.105,3.339 c 0.106,0.322 0.138,0.536 0.094,0.641 -0.063,0.145 -0.192,0.25 -0.388,0.315 l -0.194,0.064 0.046,0.141 2.343,-0.775 -0.047,-0.141 c -0.274,0.093 -0.474,0.132 -0.603,0.115 -0.128,-0.017 -0.226,-0.059 -0.294,-0.127 -0.067,-0.068 -0.152,-0.256 -0.254,-0.564 l -1.075,-3.251 c -0.07,-0.21 -0.097,-0.362 -0.083,-0.455 0.013,-0.063 0.047,-0.118 0.102,-0.165 0.056,-0.046 0.25,-0.125 0.583,-0.235 l 0.378,-0.125 c 0.397,-0.131 0.685,-0.194 0.865,-0.188 0.179,0.005 0.359,0.061 0.541,0.166 0.182,0.105 0.392,0.296 0.63,0.572 m -7.257,1.943 0.131,-0.034 -0.523,-1.459 -4.217,0.164 0.006,0.148 0.205,-0.008 c 0.23,-0.009 0.398,0.06 0.503,0.206 0.059,0.083 0.095,0.281 0.107,0.591 l 0.137,3.514 c 0.013,0.34 -0.016,0.554 -0.088,0.642 -0.1,0.122 -0.253,0.187 -0.459,0.195 l -0.205,0.008 0.006,0.149 2.466,-0.096 -0.006,-0.149 c -0.289,0.014 -0.493,-0.005 -0.612,-0.056 -0.118,-0.052 -0.2,-0.12 -0.247,-0.204 -0.046,-0.084 -0.075,-0.288 -0.088,-0.612 l -0.133,-3.421 c -0.009,-0.222 0.007,-0.376 0.046,-0.46 0.03,-0.058 0.078,-0.101 0.144,-0.131 0.066,-0.029 0.274,-0.05 0.625,-0.064 l 0.397,-0.016 c 0.418,-0.016 0.712,0.003 0.884,0.059 0.171,0.055 0.329,0.158 0.474,0.309 0.145,0.151 0.294,0.393 0.447,0.725 m -9.621,-0.029 -1.46,1.891 -0.351,-2.372 z m 0.185,-0.258 -2.039,-0.542 -0.137,-0.927 c -0.033,-0.228 -0.037,-0.392 -0.01,-0.493 0.022,-0.08 0.079,-0.14 0.171,-0.181 0.093,-0.041 0.268,-0.036 0.527,0.013 l 0.038,-0.144 -1.658,-0.441 -0.039,0.144 c 0.21,0.097 0.339,0.186 0.387,0.265 0.099,0.16 0.179,0.451 0.238,0.874 l 0.7,4.827 0.136,0.036 2.998,-3.893 c 0.241,-0.313 0.436,-0.506 0.584,-0.579 0.148,-0.073 0.332,-0.087 0.55,-0.043 l 0.038,-0.143 -2.078,-0.553 -0.038,0.144 c 0.207,0.066 0.34,0.139 0.398,0.218 0.057,0.079 0.075,0.161 0.052,0.247 -0.03,0.113 -0.129,0.28 -0.298,0.498 z m -8.874,0.614 1.053,-1.367 -0.118,-0.077 c -0.352,0.283 -0.682,0.454 -0.988,0.514 -0.443,0.087 -0.878,-0.008 -1.305,-0.285 -0.582,-0.377 -0.876,-0.895 -0.881,-1.552 -0.002,-0.553 0.171,-1.099 0.519,-1.636 0.283,-0.437 0.624,-0.78 1.026,-1.031 0.402,-0.25 0.794,-0.371 1.175,-0.362 0.382,0.01 0.717,0.108 1.004,0.294 0.169,0.11 0.318,0.237 0.448,0.381 0.13,0.145 0.241,0.306 0.333,0.484 l -0.856,1.322 c -0.149,0.23 -0.263,0.369 -0.344,0.417 -0.081,0.048 -0.17,0.067 -0.267,0.057 -0.097,-0.01 -0.238,-0.075 -0.422,-0.195 l -0.083,0.129 1.77,1.147 0.084,-0.129 -0.084,-0.055 c -0.176,-0.113 -0.258,-0.25 -0.248,-0.409 0.009,-0.112 0.093,-0.291 0.251,-0.536 l 0.907,-1.4 c -0.168,-0.306 -0.357,-0.574 -0.567,-0.802 -0.209,-0.229 -0.468,-0.443 -0.776,-0.642 -0.884,-0.573 -1.739,-0.724 -2.565,-0.455 -0.619,0.202 -1.108,0.581 -1.468,1.137 -0.261,0.402 -0.414,0.851 -0.459,1.345 -0.055,0.587 0.041,1.128 0.289,1.623 0.208,0.413 0.54,0.767 0.997,1.063 0.166,0.108 0.327,0.192 0.48,0.253 0.154,0.061 0.385,0.127 0.694,0.196 0.156,0.035 0.257,0.065 0.299,0.093 0.043,0.028 0.066,0.071 0.071,0.13 0.005,0.059 -0.026,0.148 -0.093,0.267 z M -56.202,17.726 c 0.018,0.047 0.035,0.088 0.049,0.123 0.015,0.034 0.026,0.063 0.035,0.086 0.185,0.485 0.219,0.891 0.102,1.218 -0.116,0.327 -0.337,0.552 -0.662,0.676 -0.319,0.121 -0.615,0.12 -0.889,-0.003 -0.275,-0.124 -0.475,-0.349 -0.6,-0.677 -0.056,-0.146 -0.106,-0.351 -0.153,-0.617 z m 3.994,2.62 -0.517,-1.36 -3.037,-0.818 c -0.044,-0.129 -0.081,-0.234 -0.112,-0.314 -0.012,-0.032 -0.026,-0.067 -0.042,-0.104 -0.015,-0.038 -0.032,-0.076 -0.049,-0.115 l 1.479,-0.563 c 0.321,-0.122 0.533,-0.163 0.637,-0.122 0.147,0.053 0.256,0.175 0.329,0.365 l 0.076,0.199 0.139,-0.053 -0.831,-2.182 -0.139,0.053 0.073,0.191 c 0.082,0.216 0.07,0.396 -0.035,0.542 -0.057,0.083 -0.231,0.179 -0.522,0.289 l -3.29,1.253 c -0.32,0.122 -0.533,0.163 -0.637,0.122 -0.147,-0.055 -0.258,-0.18 -0.331,-0.373 l -0.073,-0.191 -0.139,0.053 0.707,1.855 c 0.205,0.541 0.397,0.925 0.573,1.152 0.177,0.226 0.405,0.389 0.684,0.487 0.28,0.099 0.567,0.092 0.86,-0.02 0.313,-0.119 0.545,-0.324 0.698,-0.616 0.153,-0.291 0.195,-0.67 0.127,-1.134 l 1.862,0.495 c 0.426,0.113 0.728,0.235 0.904,0.366 0.176,0.131 0.332,0.329 0.468,0.595 z m -7.893,-9.951 c -0.028,-0.487 0.131,-0.888 0.476,-1.203 0.428,-0.391 1.076,-0.611 1.942,-0.66 0.889,-0.051 1.583,0.101 2.083,0.454 0.38,0.271 0.584,0.646 0.611,1.125 0.029,0.511 -0.147,0.944 -0.527,1.299 -0.38,0.356 -0.999,0.558 -1.858,0.606 -0.93,0.052 -1.635,-0.092 -2.113,-0.433 -0.38,-0.273 -0.585,-0.669 -0.614,-1.188 m -0.289,0.092 c 0.04,0.706 0.343,1.304 0.908,1.791 0.565,0.487 1.25,0.708 2.052,0.663 0.826,-0.046 1.498,-0.346 2.014,-0.899 0.517,-0.552 0.754,-1.198 0.712,-1.939 -0.042,-0.749 -0.344,-1.364 -0.905,-1.843 -0.561,-0.48 -1.264,-0.696 -2.109,-0.648 -0.864,0.049 -1.553,0.383 -2.065,1.002 -0.445,0.537 -0.647,1.162 -0.607,1.873 m 1.342,-9.402 2.084,0.497 -0.23,0.966 c -0.053,0.221 -0.14,0.372 -0.263,0.452 -0.122,0.079 -0.332,0.101 -0.629,0.066 l -0.035,0.145 1.794,0.428 0.035,-0.145 c -0.205,-0.052 -0.35,-0.115 -0.435,-0.188 -0.084,-0.074 -0.139,-0.161 -0.166,-0.263 -0.027,-0.102 -0.019,-0.241 0.023,-0.418 l 0.23,-0.965 1.666,0.397 c 0.268,0.064 0.441,0.123 0.519,0.177 0.059,0.041 0.102,0.11 0.129,0.204 0.035,0.13 0.038,0.257 0.008,0.382 l -0.045,0.192 0.144,0.034 0.543,-2.275 -0.145,-0.034 -0.045,0.187 c -0.052,0.219 -0.154,0.363 -0.305,0.431 -0.098,0.043 -0.307,0.027 -0.624,-0.049 L -58.22,0.489 c -0.268,-0.064 -0.442,-0.123 -0.519,-0.177 -0.059,-0.041 -0.103,-0.108 -0.13,-0.2 -0.036,-0.127 -0.039,-0.255 -0.008,-0.383 l 0.044,-0.187 -0.145,-0.035 -0.939,3.945 1.152,0.328 0.033,-0.136 c -0.231,-0.127 -0.394,-0.249 -0.489,-0.367 -0.094,-0.118 -0.152,-0.249 -0.173,-0.393 -0.021,-0.143 0.002,-0.354 0.068,-0.63 z"
       style="fill:#000000;fill-opacity:1;fill-rule:nonzero;stroke:none"
       transform="matrix(1.3333333,0,0,-1.3333333,180.002,152.64907)"
       clip-path="url(#clipPath92)" />
  </g>
</svg>
