<svg height="1600" viewBox="0 0 2400 1600" width="2400" xmlns="http://www.w3.org/2000/svg"><g transform="matrix(1.3333333 0 0 -1.3333333 0 1600)"><path d="m0 600h1800v599.999h-1800z" fill="#fecb00"/><path d="m0 0h1800v600h-1800z" fill="#ea2839"/><path d="m0 400h1800v400h-1800z" fill="#34b233"/></g><g fill="#fff"><path d="m0 0 143.68 442.2 143.679-442.2z" transform="matrix(1.3333333 0 0 -1.3333333 1008.4271 856.26693)"/><path d="m0 0-376.158-273.295 143.679 442.2z" transform="matrix(1.3333333 0 0 -1.3333333 1354.9857 968.86973)"/><path d="m0 0-376.158 273.295h464.957z" transform="matrix(1.3333333 0 0 -1.3333333 1140.8008 1038.4636)"/><path d="m0 0h464.957l-376.158-273.295z" transform="matrix(1.3333333 0 0 -1.3333333 1140.8008 674.07027)"/><path d="m0 0 143.68-442.2-376.159 273.295z" transform="matrix(1.3333333 0 0 -1.3333333 1354.9857 743.6628)"/></g></svg>