<svg height="3200" viewBox="0 0 4781.4668 3200" width="4781.4668" xmlns="http://www.w3.org/2000/svg" xmlns:xlink="http://www.w3.org/1999/xlink"><clipPath id="a"><path d="m0 2400h3586.096v-2400h-3586.096z" transform="translate(-615.96191 -1770.2197)"/></clipPath><clipPath id="b"><path d="m0 2400h3586.096v-2400h-3586.096z" transform="translate(-615.96191 -1875.6509)"/></clipPath><clipPath id="c"><path d="m0 2400h3586.096v-2400h-3586.096z" transform="translate(-615.96191 -1770.2197)"/></clipPath><clipPath id="d"><path d="m0 2400h3586.096v-2400h-3586.096z" transform="translate(-528.10301 -1893.2227)"/></clipPath><clipPath id="e"><path d="m0 2400h3586.096v-2400h-3586.096z" transform="translate(-440.24411 -610.48142)"/></clipPath><clipPath id="f"><path d="m0 2400h3586.096v-2400h-3586.096z" transform="translate(-615.96191 -1113.0352)"/></clipPath><clipPath id="g"><path d="m0 2400h3586.096v-2400h-3586.096z" transform="translate(-615.96191 -1113.0352)"/></clipPath><clipPath id="h"><path d="m0 2400h3586.096v-2400h-3586.096z" transform="translate(-615.96191 -1055.0479)"/></clipPath><clipPath id="i"><path d="m0 2400h3586.096v-2400h-3586.096z" transform="translate(-615.96191 -868.78712)"/></clipPath><path d="m0 0h3586.096v2400h-3586.096z" fill="#c4272f" transform="matrix(1.3333333 0 0 -1.3333333 0 3200)"/><path d="m1195.366 0h1195.365v2400h-1195.365z" fill="#015197" transform="matrix(1.3333333 0 0 -1.3333333 0 3200)"/><path clip-path="url(#a)" d="m0 0c106.751 0 193.29-86.539 193.29-193.29s-86.539-193.289-193.29-193.289-193.29 86.538-193.29 193.289 86.539 193.29 193.29 193.29" fill="#f9cf02" transform="matrix(1.3333333 0 0 -1.3333333 821.28253 839.70707)"/><path clip-path="url(#b)" d="m0 0c116.456 0 210.862-94.406 210.862-210.862 0-116.455-94.406-210.861-210.862-210.861s-210.861 94.406-210.861 210.861c0 116.456 94.405 210.862 210.861 210.862" fill="#c4272f" transform="matrix(1.3333333 0 0 -1.3333333 821.28253 699.13213)"/><g fill="#f9cf02"><path clip-path="url(#c)" d="m0 0c77.637 0 140.575-62.937 140.575-140.574s-62.938-140.574-140.575-140.574-140.574 62.937-140.574 140.574 62.937 140.574 140.574 140.574" transform="matrix(1.3333333 0 0 -1.3333333 821.28253 839.70707)"/><path clip-path="url(#d)" d="m0 0c0-48.523 39.336-87.859 87.859-87.859s87.859 39.336 87.859 87.859c0 35.144-21.965 39.537-21.965 52.715 0 13.179 13.179 30.751-13.178 52.716 13.178-21.965-8.786-26.358-8.786-48.323 0-21.964 8.786-21.964 8.786-39.536 0-9.705-7.867-17.572-17.572-17.572s-17.572 7.867-17.572 17.572c0 17.572 17.572 35.143 17.572 61.501s-4.393 35.143-17.572 57.108-35.144 39.537-17.572 57.109c-26.358-8.786-13.179-43.93-13.179-65.894 0-21.965-17.572-35.144-17.572-61.502 0-26.357 13.179-30.75 13.179-48.322 0-9.705-7.867-17.572-17.572-17.572-9.704 0-17.571 7.867-17.571 17.572 0 17.572 8.786 17.572 8.786 39.536 0 21.965-21.965 26.358-8.786 48.323-26.358-21.965-13.179-39.537-13.179-52.716 0-13.178-21.965-17.571-21.965-52.715" transform="matrix(1.3333333 0 0 -1.3333333 704.13733 675.70307)"/><path clip-path="url(#e)" d="m0 0h351.436l-175.718-105.431zm0 738.016h351.436l-175.718-105.432zm0-702.872h351.436v70.287h-351.436zm0 492.01h351.436v70.287h-351.436zm386.58-632.585h175.718v843.446h-175.718zm-597.441 0h175.718v843.446h-175.718z" transform="matrix(1.3333333 0 0 -1.3333333 586.99213 2386.0248)"/><path clip-path="url(#f)" d="m0 0c102.869 0 186.261-83.393 186.261-186.262s-83.392-186.26-186.261-186.26-186.261 83.391-186.261 186.26 83.392 186.262 186.261 186.262" stroke="#c4272f" stroke-width="24" transform="matrix(1.3333333 0 0 -1.3333333 821.28253 1715.9531)"/></g><path clip-path="url(#g)" d="m0 0c51.435 0 93.131-41.696 93.131-93.131 0-51.434-41.696-93.131-93.131-93.131-51.434 0-93.13-41.695-93.13-93.13 0-51.434 41.696-93.13 93.13-93.13" fill="none" stroke="#c4272f" stroke-width="24" transform="matrix(1.3333333 0 0 -1.3333333 821.28253 1715.9531)"/><g fill="#c4272f"><path clip-path="url(#h)" d="m0 0c19.41 0 35.144-15.734 35.144-35.144 0-19.409-15.734-35.143-35.144-35.143-19.409 0-35.144 15.734-35.144 35.143 0 19.41 15.735 35.144 35.144 35.144" transform="matrix(1.3333333 0 0 -1.3333333 821.28253 1793.2695)"/><path clip-path="url(#i)" d="m0 0c19.41 0 35.144-15.734 35.144-35.144 0-19.409-15.734-35.143-35.144-35.143-19.409 0-35.144 15.734-35.144 35.143 0 19.41 15.735 35.144 35.144 35.144" transform="matrix(1.3333333 0 0 -1.3333333 821.28253 2041.6172)"/></g></svg>