<?xml version="1.0" encoding="UTF-8" standalone="no"?>
<!-- Created with Inkscape (http://www.inkscape.org/) -->

<svg
   version="1.1"
   id="svg1"
   width="1200"
   height="800"
   viewBox="0 0 1200 800"
   sodipodi:docname="mz.ai"
   xmlns:inkscape="http://www.inkscape.org/namespaces/inkscape"
   xmlns:sodipodi="http://sodipodi.sourceforge.net/DTD/sodipodi-0.dtd"
   xmlns="http://www.w3.org/2000/svg"
   xmlns:svg="http://www.w3.org/2000/svg">
  <defs
     id="defs1">
    <clipPath
       clipPathUnits="userSpaceOnUse"
       id="clipPath9">
      <path
         d="M 0,600 H 900 V 0 H 0 Z"
         transform="translate(-67.724102,-247.57231)"
         id="path9" />
    </clipPath>
    <clipPath
       clipPathUnits="userSpaceOnUse"
       id="clipPath11">
      <path
         d="M 0,600 H 900 V 0 H 0 Z"
         transform="translate(-78.342804,-260.5498)"
         id="path11" />
    </clipPath>
    <clipPath
       clipPathUnits="userSpaceOnUse"
       id="clipPath13">
      <path
         d="M 0,600 H 900 V 0 H 0 Z"
         transform="translate(-87.9067,-310.79541)"
         id="path13" />
    </clipPath>
    <clipPath
       clipPathUnits="userSpaceOnUse"
       id="clipPath15">
      <path
         d="M 0,600 H 900 V 0 H 0 Z"
         transform="translate(-33.496601,-241.5352)"
         id="path15" />
    </clipPath>
  </defs>
  <sodipodi:namedview
     id="namedview1"
     pagecolor="#ffffff"
     bordercolor="#000000"
     borderopacity="0.25"
     inkscape:showpageshadow="2"
     inkscape:pageopacity="0.0"
     inkscape:pagecheckerboard="0"
     inkscape:deskcolor="#d1d1d1">
    <inkscape:page
       x="0"
       y="0"
       inkscape:label="1"
       id="page1"
       width="1200"
       height="800"
       margin="0"
       bleed="0" />
  </sodipodi:namedview>
  <g
     id="layer-MC0"
     inkscape:groupmode="layer"
     inkscape:label="Layer 1">
    <path
       id="path1"
       d="M 0,0 H 900 V 600 H 0 Z"
       style="fill:#000000;fill-opacity:1;fill-rule:nonzero;stroke:none"
       transform="matrix(1.3333333,0,0,-1.3333333,0,800)" />
    <path
       id="path2"
       d="M 0,393.75 H 900 V 600 H 0 Z"
       style="fill:#ffffff;fill-opacity:1;fill-rule:nonzero;stroke:none"
       transform="matrix(1.3333333,0,0,-1.3333333,0,800)" />
    <path
       id="path3"
       d="M 0,412.5 H 900 V 600.001 H 0 Z"
       style="fill:#007168;fill-opacity:1;fill-rule:nonzero;stroke:none"
       transform="matrix(1.3333333,0,0,-1.3333333,0,800)" />
    <path
       id="path4"
       d="M 0,0 H 900 V 206.5 H 0 Z"
       style="fill:#ffffff;fill-opacity:1;fill-rule:nonzero;stroke:none"
       transform="matrix(1.3333333,0,0,-1.3333333,0,800)" />
    <path
       id="path5"
       d="M 0,0 H 900 V 187.5 H 0 Z"
       style="fill:#fce100;fill-opacity:1;fill-rule:nonzero;stroke:none"
       transform="matrix(1.3333333,0,0,-1.3333333,0,800)" />
    <path
       id="path6"
       d="m 0,0 v -600 l 393.75,299.999 z"
       style="fill:#d21034;fill-opacity:1;fill-rule:nonzero;stroke:none"
       transform="matrix(1.3333333,0,0,-1.3333333,0,-4e-4)" />
    <path
       id="path7"
       d="m 0,0 -73.154,53.56 -73.055,-53.576 28.333,86.124 -73.529,52.925 90.665,-0.332 27.612,86.283 27.701,-86.329 90.594,0.402 -73.544,-53.023 z"
       style="fill:#fce100;fill-opacity:1;fill-rule:nonzero;stroke:none"
       transform="matrix(1.3333333,0,0,-1.3333333,272.4928,549.9792)" />
    <path
       id="path8"
       d="m 0,0 h 52.699 c 4.24,-4.757 13.7,-6.696 22.711,0.057 C 91.928,9.102 123.883,0 123.883,0 l 6.292,6.686 -15.338,50.339 -5.506,5.899 c 0,0 -11.798,7.079 -34.216,4.72 -22.416,-2.36 -30.282,0.786 -30.282,0.786 0,0 -19.663,-2.36 -25.169,-5.113 -0.605,-0.489 -6.293,-6.292 -6.293,-6.292 z"
       style="fill:#ffffff;fill-opacity:1;fill-rule:nonzero;stroke:#000000;stroke-width:1.25;stroke-linecap:round;stroke-linejoin:round;stroke-miterlimit:4;stroke-dasharray:none;stroke-opacity:1"
       transform="matrix(1.3333333,0,0,-1.3333333,90.2988,469.9036)"
       clip-path="url(#clipPath9)" />
    <path
       id="path10"
       d="m 0,0 c 0,0 50.339,6.293 64.891,-12.978 -8.218,-5.623 -15.454,-6.086 -23.204,-0.393 1.234,2.057 18.091,19.664 60.958,13.765"
       style="fill:none;stroke:#000000;stroke-width:1.25;stroke-linecap:round;stroke-linejoin:round;stroke-miterlimit:4;stroke-dasharray:none;stroke-opacity:1"
       transform="matrix(1.3333333,0,0,-1.3333333,104.45707,452.60027)"
       clip-path="url(#clipPath11)" />
    <path
       id="path12"
       d="m 0,0 -5.238,-22.715 m 94.386,22.024 9.439,-44.048 M 44.314,0.094 43.921,-55.358"
       style="fill:#000000;fill-opacity:1;fill-rule:nonzero;stroke:#000000;stroke-width:1.25;stroke-linecap:round;stroke-linejoin:round;stroke-miterlimit:4;stroke-dasharray:none;stroke-opacity:1"
       transform="matrix(1.3333333,0,0,-1.3333333,117.20893,385.60613)"
       clip-path="url(#clipPath13)" />
    <path
       id="path14"
       d="m 0,0 12.394,-14.531 c 1.455,-0.868 2.748,-0.813 4.041,0 l 18.367,22.04 7.714,9.551 c 1.194,1.415 1.576,2.993 1.469,4.408 l 14.748,13.104 c 1.207,-0.083 1.925,-0.218 3.132,-0.301 -1.426,0.37 -2.471,1.064 -1.349,2.625 l 3.306,2.572 2.571,-3.306 c 0,0 -3.673,-4.775 -4.04,-4.775 h -4.041 l -7.714,-6.981 3.372,-2.98 5.076,-13.917 6.246,4.409 -4.042,14.325 8.817,9.552 -3.306,5.143 2.204,2.939 c 0,0 30.513,-19.211 42.269,-14.068 0.317,-0.116 0.71,13.7 0.71,13.7 0,0 -31.591,3.305 -32.327,9.552 -0.734,6.244 6.981,6.978 6.981,6.978 l -3.307,4.775 0.735,2.573 5.511,-6.98 12.489,10.654 73.469,-83.755 c 4.01,1.626 4.867,2.607 5.143,6.612 -0.103,0.101 -71.999,82.652 -71.999,82.652 l 5.51,5.877 c 1.086,1.224 1.467,1.745 1.469,3.675 l 8.448,7.346 c 2.541,-0.873 4.162,-2.396 5.511,-4.407 l 23.228,19.685 c 0.612,-0.612 2.471,-1.225 3.734,-0.536 l 38.402,36.861 -41.854,-29.562 -1.469,1.102 c 0,1.224 1.518,1.527 0,3.673 -1.626,1.952 -4.041,-1.837 -4.408,-1.837 -0.368,0 -6.058,2.011 -7.305,4.559 l -0.409,-6.762 -10.654,-9.919 -8.081,0.367 -11.756,-11.387 -1.468,-4.408 1.836,-3.674 c 0,0 -6.246,-5.511 -6.246,-5.142 0,0.366 -1.262,1.623 -1.316,1.786 l 5.357,4.826 0.735,3.306 -1.787,2.791 c -0.542,-0.394 -7.396,-7.567 -7.764,-6.832 -0.612,0.686 -19.835,22.408 -19.835,22.408 l 1.1,4.041 -12.489,13.592 C 62.575,129.57 55.373,129.835 53.904,119.917 52.76,117.587 43.25,119.55 43.25,119.55 L 38.108,118.447 9.087,77.305 25.25,57.836 l 33.062,41.877 0.981,11.864 6.937,-7.757 c 2.313,-0.297 4.517,-0.323 6.613,0.735 L 92.43,82.691 89.168,79.509 c 1.103,-1.224 1.861,-2.007 2.963,-3.231 1.103,0.735 2.155,1.617 3.257,2.352 0.368,-0.491 0.98,-1.422 1.348,-1.912 -1.642,-0.893 -2.793,-2.083 -4.435,-2.976 -2.626,1.712 -5.162,3.844 -4.969,7.236 L 76.312,71.795 75.944,69.958 43.25,42.774 40.312,42.407 39.577,33.958 60.883,51.59 v 2.572 l 2.204,-1.836 16.53,13.223 c 0,0 1.103,-1.469 0.736,-1.469 -0.368,0 -14.695,-13.225 -14.695,-13.225 L 65.292,49.387 62.72,47.183 61.25,48.284 41.414,30.652 H 38.475 L 27.455,19.631 c -2.843,-0.247 -5.306,-0.548 -7.714,-2.203 z"
       style="fill:#000000;fill-opacity:1;fill-rule:nonzero;stroke:#000000;stroke-width:1.25;stroke-linecap:round;stroke-linejoin:round;stroke-miterlimit:4;stroke-dasharray:none;stroke-opacity:1"
       transform="matrix(1.3333333,0,0,-1.3333333,44.662133,477.95307)"
       clip-path="url(#clipPath15)" />
  </g>
</svg>
