<?xml version="1.0" encoding="UTF-8" standalone="no"?>
<!-- Created with Inkscape (http://www.inkscape.org/) -->

<svg
   version="1.1"
   id="svg1"
   width="1333.3333"
   height="888.88934"
   viewBox="0 0 1333.3333 888.88934"
   sodipodi:docname="ms.ai"
   xmlns:inkscape="http://www.inkscape.org/namespaces/inkscape"
   xmlns:sodipodi="http://sodipodi.sourceforge.net/DTD/sodipodi-0.dtd"
   xmlns="http://www.w3.org/2000/svg"
   xmlns:svg="http://www.w3.org/2000/svg">
  <defs
     id="defs1">
    <clipPath
       clipPathUnits="userSpaceOnUse"
       id="clipPath7">
      <path
         d="M 0,666.667 H 1000 V 0 H 0 Z"
         transform="translate(-605.45122,-480.47181)"
         id="path7" />
    </clipPath>
    <clipPath
       clipPathUnits="userSpaceOnUse"
       id="clipPath9">
      <path
         d="M 0,666.667 H 1000 V 0 H 0 Z"
         transform="translate(-611.13671,-474.96161)"
         id="path9" />
    </clipPath>
    <clipPath
       clipPathUnits="userSpaceOnUse"
       id="clipPath11">
      <path
         d="M 0,666.667 H 1000 V 0 H 0 Z"
         transform="translate(-854.70902,-279.0749)"
         id="path11" />
    </clipPath>
    <clipPath
       clipPathUnits="userSpaceOnUse"
       id="clipPath13">
      <path
         d="M 0,666.667 H 1000 V 0 H 0 Z"
         transform="translate(-676.43072,-442.50701)"
         id="path13" />
    </clipPath>
    <clipPath
       clipPathUnits="userSpaceOnUse"
       id="clipPath15">
      <path
         d="M 0,666.667 H 1000 V 0 H 0 Z"
         transform="translate(-685.69241,-270.74671)"
         id="path15" />
    </clipPath>
    <clipPath
       clipPathUnits="userSpaceOnUse"
       id="clipPath17">
      <path
         d="M 0,666.667 H 1000 V 0 H 0 Z"
         transform="translate(-717.54982,-312.94891)"
         id="path17" />
    </clipPath>
    <clipPath
       clipPathUnits="userSpaceOnUse"
       id="clipPath19">
      <path
         d="M 0,666.667 H 1000 V 0 H 0 Z"
         transform="translate(-712.64842,-311.45281)"
         id="path19" />
    </clipPath>
    <clipPath
       clipPathUnits="userSpaceOnUse"
       id="clipPath21">
      <path
         d="M 0,666.667 H 1000 V 0 H 0 Z"
         transform="translate(-707.33892,-300.69791)"
         id="path21" />
    </clipPath>
    <clipPath
       clipPathUnits="userSpaceOnUse"
       id="clipPath23">
      <path
         d="M 0,666.667 H 1000 V 0 H 0 Z"
         transform="translate(-702.98242,-296.4782)"
         id="path23" />
    </clipPath>
    <clipPath
       clipPathUnits="userSpaceOnUse"
       id="clipPath25">
      <path
         d="M 0,666.667 H 1000 V 0 H 0 Z"
         transform="translate(-698.35451,-294.29951)"
         id="path25" />
    </clipPath>
    <clipPath
       clipPathUnits="userSpaceOnUse"
       id="clipPath27">
      <path
         d="M 0,666.667 H 1000 V 0 H 0 Z"
         transform="translate(-693.31541,-291.03091)"
         id="path27" />
    </clipPath>
    <clipPath
       clipPathUnits="userSpaceOnUse"
       id="clipPath29">
      <path
         d="M 0,666.667 H 1000 V 0 H 0 Z"
         transform="translate(-688.96001,-288.44401)"
         id="path29" />
    </clipPath>
    <clipPath
       clipPathUnits="userSpaceOnUse"
       id="clipPath31">
      <path
         d="M 0,666.667 H 1000 V 0 H 0 Z"
         transform="translate(-685.01171,-265.57391)"
         id="path31" />
    </clipPath>
    <clipPath
       clipPathUnits="userSpaceOnUse"
       id="clipPath33">
      <path
         d="M 0,666.667 H 1000 V 0 H 0 Z"
         transform="translate(-732.25202,-298.11101)"
         id="path33" />
    </clipPath>
    <clipPath
       clipPathUnits="userSpaceOnUse"
       id="clipPath35">
      <path
         d="M 0,666.667 H 1000 V 0 H 0 Z"
         transform="translate(-679.70312,-274.96741)"
         id="path35" />
    </clipPath>
    <clipPath
       clipPathUnits="userSpaceOnUse"
       id="clipPath37">
      <path
         d="M 0,666.667 H 1000 V 0 H 0 Z"
         transform="translate(-676.16312,-286.403)"
         id="path37" />
    </clipPath>
    <clipPath
       clipPathUnits="userSpaceOnUse"
       id="clipPath39">
      <path
         d="M 0,666.667 H 1000 V 0 H 0 Z"
         transform="translate(-741.75292,-399.95961)"
         id="path39" />
    </clipPath>
    <clipPath
       clipPathUnits="userSpaceOnUse"
       id="clipPath41">
      <path
         d="M 0,666.667 H 1000 V 0 H 0 Z"
         transform="translate(-752.14449,-410.77211)"
         id="path41" />
    </clipPath>
    <clipPath
       clipPathUnits="userSpaceOnUse"
       id="clipPath43">
      <path
         d="M 0,666.667 H 1000 V 0 H 0 Z"
         transform="translate(-724.10162,-382.08271)"
         id="path43" />
    </clipPath>
    <clipPath
       clipPathUnits="userSpaceOnUse"
       id="clipPath45">
      <path
         d="M 0,666.667 H 1000 V 0 H 0 Z"
         transform="translate(-724.96292,-334.21651)"
         id="path45" />
    </clipPath>
    <clipPath
       clipPathUnits="userSpaceOnUse"
       id="clipPath47">
      <path
         d="M 0,666.667 H 1000 V 0 H 0 Z"
         transform="translate(-771.67479,-216.13841)"
         id="path47" />
    </clipPath>
    <clipPath
       clipPathUnits="userSpaceOnUse"
       id="clipPath49">
      <path
         d="M 0,666.667 H 1000 V 0 H 0 Z"
         transform="translate(-730.65822,-203.7389)"
         id="path49" />
    </clipPath>
    <clipPath
       clipPathUnits="userSpaceOnUse"
       id="clipPath51">
      <path
         d="M 0,666.667 H 1000 V 0 H 0 Z"
         transform="translate(-751.06254,-432.97571)"
         id="path51" />
    </clipPath>
    <clipPath
       clipPathUnits="userSpaceOnUse"
       id="clipPath53">
      <path
         d="M 0,666.667 H 1000 V 0 H 0 Z"
         transform="translate(-752.14449,-410.77211)"
         id="path53" />
    </clipPath>
    <clipPath
       clipPathUnits="userSpaceOnUse"
       id="clipPath55">
      <path
         d="M 0,666.667 H 1000 V 0 H 0 Z"
         transform="translate(-746.15722,-418.60171)"
         id="path55" />
    </clipPath>
    <clipPath
       clipPathUnits="userSpaceOnUse"
       id="clipPath57">
      <path
         d="M 0,666.667 H 1000 V 0 H 0 Z"
         transform="translate(-746.99322,-421.58361)"
         id="path57" />
    </clipPath>
    <clipPath
       clipPathUnits="userSpaceOnUse"
       id="clipPath59">
      <path
         d="M 0,666.667 H 1000 V 0 H 0 Z"
         transform="translate(-753.51174,-432.97571)"
         id="path59" />
    </clipPath>
    <clipPath
       clipPathUnits="userSpaceOnUse"
       id="clipPath61">
      <path
         d="M 0,666.667 H 1000 V 0 H 0 Z"
         transform="translate(-759.99902,-430.52461)"
         id="path61" />
    </clipPath>
    <clipPath
       clipPathUnits="userSpaceOnUse"
       id="clipPath63">
      <path
         d="M 0,666.667 H 1000 V 0 H 0 Z"
         transform="translate(-767.71292,-414.30441)"
         id="path63" />
    </clipPath>
    <clipPath
       clipPathUnits="userSpaceOnUse"
       id="clipPath65">
      <path
         d="M 0,666.667 H 1000 V 0 H 0 Z"
         transform="translate(-761.51169,-420.28821)"
         id="path65" />
    </clipPath>
    <clipPath
       clipPathUnits="userSpaceOnUse"
       id="clipPath67">
      <path
         d="M 0,666.667 H 1000 V 0 H 0 Z"
         transform="translate(-773.47854,-413.51241)"
         id="path67" />
    </clipPath>
    <clipPath
       clipPathUnits="userSpaceOnUse"
       id="clipPath69">
      <path
         d="M 0,666.667 H 1000 V 0 H 0 Z"
         transform="translate(-762.95409,-427.85661)"
         id="path69" />
    </clipPath>
    <clipPath
       clipPathUnits="userSpaceOnUse"
       id="clipPath71">
      <path
         d="M 0,666.667 H 1000 V 0 H 0 Z"
         transform="translate(-770.23832,-433.11931)"
         id="path71" />
    </clipPath>
    <clipPath
       clipPathUnits="userSpaceOnUse"
       id="clipPath73">
      <path
         d="M 0,666.667 H 1000 V 0 H 0 Z"
         transform="translate(-752.64452,-391.74191)"
         id="path73" />
    </clipPath>
    <clipPath
       clipPathUnits="userSpaceOnUse"
       id="clipPath75">
      <path
         d="M 0,666.667 H 1000 V 0 H 0 Z"
         transform="translate(-771.39062,-344.45281)"
         id="path75" />
    </clipPath>
    <clipPath
       clipPathUnits="userSpaceOnUse"
       id="clipPath77">
      <path
         d="M 0,666.667 H 1000 V 0 H 0 Z"
         transform="translate(-764.39754,-344.66861)"
         id="path77" />
    </clipPath>
    <clipPath
       clipPathUnits="userSpaceOnUse"
       id="clipPath79">
      <path
         d="M 0,666.667 H 1000 V 0 H 0 Z"
         transform="translate(-759.13179,-342.43421)"
         id="path79" />
    </clipPath>
    <clipPath
       clipPathUnits="userSpaceOnUse"
       id="clipPath81">
      <path
         d="M 0,666.667 H 1000 V 0 H 0 Z"
         transform="translate(-749.40432,-336.66761)"
         id="path81" />
    </clipPath>
    <clipPath
       clipPathUnits="userSpaceOnUse"
       id="clipPath83">
      <path
         d="M 0,666.667 H 1000 V 0 H 0 Z"
         transform="translate(-770.16212,-336.09051)"
         id="path83" />
    </clipPath>
    <clipPath
       clipPathUnits="userSpaceOnUse"
       id="clipPath85">
      <path
         d="M 0,666.667 H 1000 V 0 H 0 Z"
         transform="translate(-766.20122,-334.07291)"
         id="path85" />
    </clipPath>
    <clipPath
       clipPathUnits="userSpaceOnUse"
       id="clipPath87">
      <path
         d="M 0,666.667 H 1000 V 0 H 0 Z"
         transform="translate(-748.89842,-296.58761)"
         id="path87" />
    </clipPath>
    <clipPath
       clipPathUnits="userSpaceOnUse"
       id="clipPath89">
      <path
         d="M 0,666.667 H 1000 V 0 H 0 Z"
         transform="translate(-750.19532,-316.33851)"
         id="path89" />
    </clipPath>
    <clipPath
       clipPathUnits="userSpaceOnUse"
       id="clipPath91">
      <path
         d="M 0,666.667 H 1000 V 0 H 0 Z"
         transform="translate(-744.86042,-291.10901)"
         id="path91" />
    </clipPath>
    <clipPath
       clipPathUnits="userSpaceOnUse"
       id="clipPath93">
      <path
         d="M 0,666.667 H 1000 V 0 H 0 Z"
         transform="translate(-745.07522,-203.8112)"
         id="path93" />
    </clipPath>
    <clipPath
       clipPathUnits="userSpaceOnUse"
       id="clipPath95">
      <path
         d="M 0,666.667 H 1000 V 0 H 0 Z"
         transform="translate(-752.79002,-223.4909)"
         id="path95" />
    </clipPath>
    <clipPath
       clipPathUnits="userSpaceOnUse"
       id="clipPath97">
      <path
         d="M 0,666.667 H 1000 V 0 H 0 Z"
         transform="translate(-758.27049,-233.43911)"
         id="path97" />
    </clipPath>
    <clipPath
       clipPathUnits="userSpaceOnUse"
       id="clipPath99">
      <path
         d="M 0,666.667 H 1000 V 0 H 0 Z"
         transform="translate(-755.38479,-215.5622)"
         id="path99" />
    </clipPath>
    <clipPath
       clipPathUnits="userSpaceOnUse"
       id="clipPath101">
      <path
         d="M 0,666.667 H 1000 V 0 H 0 Z"
         transform="translate(-766.20122,-249.0104)"
         id="path101" />
    </clipPath>
    <clipPath
       clipPathUnits="userSpaceOnUse"
       id="clipPath103">
      <path
         d="M 0,666.667 H 1000 V 0 H 0 Z"
         transform="translate(-770.81454,-219.0221)"
         id="path103" />
    </clipPath>
    <clipPath
       clipPathUnits="userSpaceOnUse"
       id="clipPath105">
      <path
         d="M 0,666.667 H 1000 V 0 H 0 Z"
         transform="translate(-713.21682,-319.94301)"
         id="path105" />
    </clipPath>
    <clipPath
       clipPathUnits="userSpaceOnUse"
       id="clipPath107">
      <path
         d="M 0,666.667 H 1000 V 0 H 0 Z"
         transform="translate(-710.62212,-319.00551)"
         id="path107" />
    </clipPath>
    <clipPath
       clipPathUnits="userSpaceOnUse"
       id="clipPath109">
      <path
         d="M 0,666.667 H 1000 V 0 H 0 Z"
         transform="translate(-708.38772,-318.86201)"
         id="path109" />
    </clipPath>
    <clipPath
       clipPathUnits="userSpaceOnUse"
       id="clipPath111">
      <path
         d="M 0,666.667 H 1000 V 0 H 0 Z"
         transform="translate(-728.27932,-437.80481)"
         id="path111" />
    </clipPath>
    <clipPath
       clipPathUnits="userSpaceOnUse"
       id="clipPath113">
      <path
         d="M 0,666.667 H 1000 V 0 H 0 Z"
         transform="translate(-729.83012,-436.47131)"
         id="path113" />
    </clipPath>
    <clipPath
       clipPathUnits="userSpaceOnUse"
       id="clipPath115">
      <path
         d="M 0,666.667 H 1000 V 0 H 0 Z"
         transform="translate(-729.93752,-434.23701)"
         id="path115" />
    </clipPath>
    <clipPath
       clipPathUnits="userSpaceOnUse"
       id="clipPath117">
      <path
         d="M 0,666.667 H 1000 V 0 H 0 Z"
         transform="translate(-721.07032,-434.63301)"
         id="path117" />
    </clipPath>
    <clipPath
       clipPathUnits="userSpaceOnUse"
       id="clipPath119">
      <path
         d="M 0,666.667 H 1000 V 0 H 0 Z"
         transform="translate(-771.31449,-192.9977)"
         id="path119" />
    </clipPath>
    <clipPath
       clipPathUnits="userSpaceOnUse"
       id="clipPath121">
      <path
         d="M 0,666.667 H 1000 V 0 H 0 Z"
         transform="translate(-773.90919,-193.6471)"
         id="path121" />
    </clipPath>
    <clipPath
       clipPathUnits="userSpaceOnUse"
       id="clipPath123">
      <path
         d="M 0,666.667 H 1000 V 0 H 0 Z"
         transform="translate(-776.36522,-194.5124)"
         id="path123" />
    </clipPath>
    <clipPath
       clipPathUnits="userSpaceOnUse"
       id="clipPath125">
      <path
         d="M 0,666.667 H 1000 V 0 H 0 Z"
         transform="translate(-778.30764,-195.5221)"
         id="path125" />
    </clipPath>
    <clipPath
       clipPathUnits="userSpaceOnUse"
       id="clipPath127">
      <path
         d="M 0,666.667 H 1000 V 0 H 0 Z"
         transform="translate(-749.94242,-428.43421)"
         id="path127" />
    </clipPath>
    <clipPath
       clipPathUnits="userSpaceOnUse"
       id="clipPath129">
      <path
         d="M 0,666.667 H 1000 V 0 H 0 Z"
         transform="translate(-750.57519,-429.68811)"
         id="path129" />
    </clipPath>
  </defs>
  <sodipodi:namedview
     id="namedview1"
     pagecolor="#ffffff"
     bordercolor="#000000"
     borderopacity="0.25"
     inkscape:showpageshadow="2"
     inkscape:pageopacity="0.0"
     inkscape:pagecheckerboard="0"
     inkscape:deskcolor="#d1d1d1">
    <inkscape:page
       x="0"
       y="0"
       inkscape:label="1"
       id="page1"
       width="1333.3333"
       height="888.88934"
       margin="0"
       bleed="0" />
  </sodipodi:namedview>
  <g
     id="layer-MC0"
     inkscape:groupmode="layer"
     inkscape:label="svg1">
    <path
       id="path1"
       d="M 0,0 H 1000 V 666.667 H 0 Z"
       style="fill:#00247d;fill-opacity:1;fill-rule:nonzero;stroke:none"
       transform="matrix(1.3333333,0,0,-1.3333333,0,888.88933)" />
    <path
       id="path2"
       d="m 0,0 -168.089,-112.059 48.411,-32.274 168.089,112.059 V 0 Z m -384.589,0 v -32.274 l 168.089,-112.059 48.411,32.274 L -336.178,0 Z m 0,-256.392 v -32.275 h 48.411 l 168.089,112.06 -48.411,32.274 z m 216.5,79.785 L 0,-288.667 h 48.411 v 32.274 l -168.089,112.06 z"
       style="fill:#ffffff;fill-opacity:1;fill-rule:nonzero;stroke:none"
       transform="matrix(1.3333333,0,0,-1.3333333,512.7852,1.3333333e-4)" />
    <path
       id="path3"
       d="m 0,0 v -96.223 h -180.417 v -96.221 H 0 v -96.223 h 72.166 v 96.223 h 180.417 v 96.221 H 72.166 V 0 Z"
       style="fill:#ffffff;fill-opacity:1;fill-rule:nonzero;stroke:none"
       transform="matrix(1.3333333,0,0,-1.3333333,240.5556,1.3333333e-4)" />
    <path
       id="path4"
       d="M 0,0 V -115.467 H -194.85 V -173.2 H 0 V -288.667 H 43.3 V -173.2 h 194.85 v 57.733 H 43.3 L 43.3,0 Z"
       style="fill:#cf142b;fill-opacity:1;fill-rule:nonzero;stroke:none"
       transform="matrix(1.3333333,0,0,-1.3333333,259.8,1.3333333e-4)" />
    <path
       id="path5"
       d="m 0,0 -144.334,-96.223 h 32.274 L 32.273,0 Z m -400.727,0 v -21.516 l 112.06,-74.707 h 32.274 z m 288.667,-192.444 144.333,-96.223 v 21.516 l -112.06,74.707 z m -144.333,0 -144.334,-96.223 h 32.274 l 144.333,96.223 z"
       style="fill:#cf142b;fill-opacity:1;fill-rule:nonzero;stroke:none"
       transform="matrix(1.3333333,0,0,-1.3333333,534.3024,1.3333333e-4)" />
    <path
       id="path6"
       d="m 0,0 h 256.858 l -0.305,-182.773 c 2.136,-73.474 -43.658,-119.065 -127.921,-139.623 -59.839,14.859 -128.836,45.593 -128.938,137.538 z"
       style="fill:#ffffff;fill-opacity:1;fill-rule:nonzero;stroke:none"
       transform="matrix(1.3333333,0,0,-1.3333333,807.26827,248.26027)"
       clip-path="url(#clipPath7)" />
    <path
       id="path8"
       d="m 0,0 h 245.474 l -0.292,-175.142 c 2.042,-70.404 -41.724,-114.092 -122.252,-133.791 -57.186,14.237 -123.125,43.689 -123.222,131.795 z"
       style="fill:#00a2bd;fill-opacity:1;fill-rule:nonzero;stroke:#000000;stroke-width:1;stroke-linecap:butt;stroke-linejoin:miter;stroke-miterlimit:4;stroke-dasharray:none;stroke-opacity:1"
       transform="matrix(1.3333333,0,0,-1.3333333,814.84893,255.6072)"
       clip-path="url(#clipPath9)" />
    <path
       id="path10"
       d="m 0,0 c -8.93,-67.204 -60.688,-96.567 -120.646,-112.152 -53.072,14.236 -110.168,36.965 -121.236,111.814 z"
       style="fill:#a53d08;fill-opacity:1;fill-rule:nonzero;stroke:none"
       transform="matrix(1.3333333,0,0,-1.3333333,1139.612,516.78947)"
       clip-path="url(#clipPath11)" />
    <path
       id="path12"
       d="m 0,0 47.91,-0.171 -0.342,22.074 17.453,-0.172 0.172,-21.902 h 47.74 l 0.171,-17.111 -47.911,-0.171 -0.382,-201.798 -17.026,-0.108 -0.217,202.077 -47.579,-0.171 z"
       style="fill:#000000;fill-opacity:1;fill-rule:nonzero;stroke:none"
       transform="matrix(1.3333333,0,0,-1.3333333,901.9076,298.88)"
       clip-path="url(#clipPath13)" />
    <path
       id="path14"
       d="M 0,0 43.7,-45.334 C 58.811,-28.726 48.329,33.355 28.454,44.789 26.072,37.438 22.021,28.624 17.715,25.782 8.241,19.326 -14.975,11.777 -7.215,6.943 c 1.77,2.452 6.399,4.765 8.576,-0.68 2.587,-8.576 -9.665,-9.122 -9.665,-9.122 0,0 -7.759,0.954 -9.122,8.85 -1.36,7.895 11.559,15.104 12.661,15.655 1.089,0.409 17.97,4.901 20.829,19.876 3.54,14.704 7.215,12.525 7.897,12.797 C 46.014,52.142 60.445,12.661 61.263,-15.11 62.079,-42.882 49.964,-61.261 47.784,-62.486 45.606,-63.712 -4.765,-2.723 -4.765,-2.723 Z"
       style="fill:#ff9a08;fill-opacity:1;fill-rule:nonzero;stroke:#000000;stroke-width:0.8;stroke-linecap:butt;stroke-linejoin:miter;stroke-miterlimit:4;stroke-dasharray:none;stroke-opacity:1"
       transform="matrix(1.3333333,0,0,-1.3333333,914.25653,527.89373)"
       clip-path="url(#clipPath15)" />
    <path
       id="path16"
       d="M 0,0 0.271,-81.817"
       style="fill:none;stroke:#000000;stroke-width:0.8;stroke-linecap:butt;stroke-linejoin:miter;stroke-miterlimit:4;stroke-dasharray:none;stroke-opacity:1"
       transform="matrix(1.3333333,0,0,-1.3333333,956.73307,471.62413)"
       clip-path="url(#clipPath17)" />
    <path
       id="path18"
       d="M 0,0 C 0,-0.136 0.271,-74.332 0.271,-74.332"
       style="fill:none;stroke:#000000;stroke-width:0.8;stroke-linecap:butt;stroke-linejoin:miter;stroke-miterlimit:4;stroke-dasharray:none;stroke-opacity:1"
       transform="matrix(1.3333333,0,0,-1.3333333,950.19787,473.61893)"
       clip-path="url(#clipPath19)" />
    <path
       id="path20"
       d="M 0,0 0.271,-59.084"
       style="fill:none;stroke:#000000;stroke-width:0.8;stroke-linecap:butt;stroke-linejoin:miter;stroke-miterlimit:4;stroke-dasharray:none;stroke-opacity:1"
       transform="matrix(1.3333333,0,0,-1.3333333,943.11853,487.9588)"
       clip-path="url(#clipPath21)" />
    <path
       id="path22"
       d="M 0,0 0.272,-48.875"
       style="fill:none;stroke:#000000;stroke-width:0.8;stroke-linecap:butt;stroke-linejoin:miter;stroke-miterlimit:4;stroke-dasharray:none;stroke-opacity:1"
       transform="matrix(1.3333333,0,0,-1.3333333,937.30987,493.58507)"
       clip-path="url(#clipPath23)" />
    <path
       id="path24"
       d="M 0,0 V -41.25"
       style="fill:none;stroke:#000000;stroke-width:0.8;stroke-linecap:butt;stroke-linejoin:miter;stroke-miterlimit:4;stroke-dasharray:none;stroke-opacity:1"
       transform="matrix(1.3333333,0,0,-1.3333333,931.13933,496.49)"
       clip-path="url(#clipPath25)" />
    <path
       id="path26"
       d="M 0,0 V -32.672"
       style="fill:none;stroke:#000000;stroke-width:0.8;stroke-linecap:butt;stroke-linejoin:miter;stroke-miterlimit:4;stroke-dasharray:none;stroke-opacity:1"
       transform="matrix(1.3333333,0,0,-1.3333333,924.42053,500.84813)"
       clip-path="url(#clipPath27)" />
    <path
       id="path28"
       d="M 0,0 V -25.048"
       style="fill:none;stroke:#000000;stroke-width:0.8;stroke-linecap:butt;stroke-linejoin:miter;stroke-miterlimit:4;stroke-dasharray:none;stroke-opacity:1"
       transform="matrix(1.3333333,0,0,-1.3333333,918.61333,504.29733)"
       clip-path="url(#clipPath29)" />
    <path
       id="path30"
       d="M 0,0 45.063,-51.597"
       style="fill:none;stroke:#ffdf00;stroke-width:0.8;stroke-linecap:round;stroke-linejoin:miter;stroke-miterlimit:4;stroke-dasharray:none;stroke-opacity:1"
       transform="matrix(1.3333333,0,0,-1.3333333,913.34893,534.7908)"
       clip-path="url(#clipPath31)" />
    <path
       id="path32"
       d="M 0,0 C 0,0 20.422,-44.654 1.497,-81.411"
       style="fill:none;stroke:#ffdf00;stroke-width:1.499;stroke-linecap:round;stroke-linejoin:miter;stroke-miterlimit:4;stroke-dasharray:none;stroke-opacity:1"
       transform="matrix(1.3333333,0,0,-1.3333333,976.336,491.408)"
       clip-path="url(#clipPath33)" />
    <path
       id="path34"
       d="M 0,0 C 0,0 1.497,3.948 3.403,2.314"
       style="fill:none;stroke:#ffdf00;stroke-width:1.499;stroke-linecap:round;stroke-linejoin:miter;stroke-miterlimit:4;stroke-dasharray:none;stroke-opacity:1"
       transform="matrix(1.3333333,0,0,-1.3333333,906.2708,522.26613)"
       clip-path="url(#clipPath35)" />
    <path
       id="path36"
       d="M 0,0 C 0,0 -8.168,-7.215 -3.676,-11.845"
       style="fill:none;stroke:#ffdf00;stroke-width:1.499;stroke-linecap:round;stroke-linejoin:miter;stroke-miterlimit:4;stroke-dasharray:none;stroke-opacity:1"
       transform="matrix(1.3333333,0,0,-1.3333333,901.5508,507.01867)"
       clip-path="url(#clipPath37)" />
    <path
       id="path38"
       d="m 0,0 c 3.025,2.595 4.595,4.181 6.468,3.893 1.873,-0.289 4.424,-0.144 6.297,0.432 1.88,0.577 11.176,1.731 14.999,0.433 1.298,-0.144 3.025,-0.865 5.69,-3.101 2.67,-2.233 6.563,-6.127 5.265,-16.939 -1.297,-10.813 -0.873,-15.438 -1.443,-21.482 -1.006,-10.669 -3.373,-19.454 -7.638,-18.743 5.765,-10.092 6.341,-18.742 10.088,-25.663 3.753,-6.92 6.056,-21.049 4.613,-36.332 -1.437,-15.282 -5.475,-49.595 6.633,-72.663 -2.019,-1.441 -6.917,0 -11.246,4.613 -4.323,4.615 -6.222,4.463 -9.804,1.731 -10.955,-8.363 -21.214,-18.441 -36.326,-8.363 -3.462,2.308 -4.557,5.075 -2.02,12.112 6.342,17.589 9.424,41.721 8.424,53.055 z"
       style="fill:#008021;fill-opacity:1;fill-rule:nonzero;stroke:#000000;stroke-width:0.063;stroke-linecap:butt;stroke-linejoin:miter;stroke-miterlimit:4;stroke-dasharray:none;stroke-opacity:1"
       transform="matrix(1.3333333,0,0,-1.3333333,989.00387,355.60987)"
       clip-path="url(#clipPath39)" />
    <path
       id="path40"
       d="m 0,0 c 0.791,-2.451 1.222,-5.622 -0.076,-8.506 -1.297,-2.883 -1.582,-6.344 0.576,-10.524 3.462,4.901 8.366,3.892 11.246,6.775 2.886,2.884 3.462,5.623 5.626,6.2 -2.164,1.874 -5.48,3.893 -4.759,9.371 0.722,5.479 8.361,9.948 1.444,18.311 -4.469,5.397 -10.962,3.892 -13.772,1.802 -1.323,-0.983 -2.449,-2.379 -2.88,-3.316 -0.436,-0.937 0.108,-3.07 -0.942,-4.326 -0.716,-0.864 -1.589,-1.724 -2.596,-2.45 -0.645,-0.469 -1.05,-1.152 -0.36,-1.947 0.278,-0.318 0.785,-0.385 1.342,-0.578 C -5.475,10.163 -5.841,9.516 -6.202,9.047 -6.544,8.607 -6.398,8.188 -5.987,7.83 -6.531,6.1 -5.48,5.912 -6.202,4.614 -6.828,3.492 -7.677,2.164 -5.335,0.865 -4.689,0.505 -1.62,-0.207 0,0"
       style="fill:#ffe1cf;fill-opacity:1;fill-rule:nonzero;stroke:#000000;stroke-width:0.063;stroke-linecap:butt;stroke-linejoin:miter;stroke-miterlimit:4;stroke-dasharray:none;stroke-opacity:1"
       transform="matrix(1.3333333,0,0,-1.3333333,1002.8593,341.1932)"
       clip-path="url(#clipPath41)" />
    <path
       id="path42"
       d="m 0,0 c -4.037,-1.01 -10.524,0.72 -15.429,0.144 -2.165,-0.255 -3.892,0.865 -3.601,3.027 0.285,2.163 0.576,5.478 0.139,8.507 -0.671,4.718 1.588,11.245 4.759,18.454 3.171,7.208 4.76,11.245 4.76,14.633 0,2.235 0.215,4.758 2.233,6.056 1.494,0.958 1.779,1.889 2.311,2.667 1.222,1.802 2.373,2.234 2.518,1.153 0.089,-0.643 -0.145,-1.225 -0.721,-2.091 1.298,1.082 3.5,2.344 4,2.704 0.506,0.36 3.069,2.163 3.209,0.468 1.012,0.505 1.696,0.469 1.949,-0.071 0.271,-0.585 0.107,-0.83 -0.398,-1.262 0.72,0.144 1.549,-1.118 0.107,-2.235 C 6.595,52.407 7.349,51.145 6.02,49.992 4.64,48.801 3.063,47.973 2.558,47.036 2.051,46.099 -1.373,43.467 -2.74,42.891 c -1.373,-0.577 -1.443,-1.368 -1.443,-3.388 0,-22.202 -2.664,-20.399 -2.664,-25.735 0,-1.442 -0.292,-2.74 1.152,-2.306 1.443,0.432 3.531,1.081 5.695,1.081 z"
       style="fill:#ffe1cf;fill-opacity:1;fill-rule:nonzero;stroke:#000000;stroke-width:0.063;stroke-linecap:butt;stroke-linejoin:miter;stroke-miterlimit:4;stroke-dasharray:none;stroke-opacity:1"
       transform="matrix(1.3333333,0,0,-1.3333333,965.4688,379.44573)"
       clip-path="url(#clipPath43)" />
    <path
       id="path44"
       d="m 0,0 c 6.519,3.259 13.986,4.47 17.879,5.479 3.892,1.009 10.094,4.036 13.119,5.622 3.031,1.587 5.481,3.75 7.208,4.326 1.734,0.576 3.671,1.769 4.76,3.892 5.62,10.957 8.651,19.75 8.651,27.393 0,5.046 -1.298,10.669 -6.202,6.632 C 40.808,49.55 35.789,42.234 34.46,36.908 32.441,28.835 30.713,27.104 30.276,25.52 29.846,23.933 28.214,23.935 26.239,23.5 17.733,21.626 15.714,20.329 9.373,15.571 3.031,10.813 -3.893,6.632 -8.506,4.037 c -4.613,-2.596 -5.474,-2.884 -6.487,-4.974 -1.006,-2.09 -1.943,-3.676 -2.81,-4.614 -0.867,-0.936 -1.114,-2.032 -0.936,-3.172 0.145,-0.937 -0.291,-5.261 -0.362,-6.704 -0.075,-1.441 0.286,-1.802 0.868,-1.874 0.576,-0.072 1.367,0.216 1.658,1.947 -0.291,-1.731 2.089,-1.154 2.234,0.143 -0.076,-1.874 2.449,-0.793 2.595,0.938 0,-1.226 1.911,-0.378 2.088,0.216 0.43,1.442 0.791,3.028 1.367,4.181 0.842,1.674 1.74,3.842 3.393,5.046 C -3.025,-3.46 -3.893,-1.946 0,0"
       style="fill:#ffe1cf;fill-opacity:1;fill-rule:nonzero;stroke:#000000;stroke-width:0.063;stroke-linecap:butt;stroke-linejoin:miter;stroke-miterlimit:4;stroke-dasharray:none;stroke-opacity:1"
       transform="matrix(1.3333333,0,0,-1.3333333,966.6172,443.26733)"
       clip-path="url(#clipPath45)" />
    <path
       id="path46"
       d="m 0,0 c 0.437,-1.586 1.229,-3.389 1.513,-4.47 0.291,-1.081 -0.215,-1.418 -0.5,-2.018 -1.513,-3.172 -3.139,-8.228 -3.392,-10.957 -0.14,-1.586 -1.222,-3.1 -1.728,-4.037 -0.557,-1.034 -0.341,-1.83 0.937,-2.811 0.613,-0.469 2.595,0.144 2.81,1.152 0.721,-0.719 2.018,-0.431 2.594,0.65 0.653,-0.65 1.735,-0.216 2.456,0.865 0.645,-0.433 1.582,0.433 1.943,1.01 1.013,-0.505 2.095,0.107 2.127,2.09 0.006,0.397 0.253,1.081 0.544,1.549 0.285,0.469 0.392,1.37 0.36,2.164 -0.038,0.792 0.469,2.377 1.152,3.496 0.684,1.117 1.873,3.099 1.368,4.973 -0.469,1.746 -1.222,1.586 -1.874,4.109 C 8.728,-0.576 6.563,1.73 4.329,1.875 2.095,2.019 0.798,0.505 0,0"
       style="fill:#ffe1cf;fill-opacity:1;fill-rule:nonzero;stroke:#000000;stroke-width:0.063;stroke-linecap:butt;stroke-linejoin:miter;stroke-miterlimit:4;stroke-dasharray:none;stroke-opacity:1"
       transform="matrix(1.3333333,0,0,-1.3333333,1028.8997,600.7048)"
       clip-path="url(#clipPath47)" />
    <path
       id="path48"
       d="M 0,0 C 2.02,-2.018 6.563,-2.09 9.734,1.299 8.582,1.803 6.057,2.956 4.905,3.894 3.316,2.308 1.513,0.506 0,0"
       style="fill:#ffe1cf;fill-opacity:1;fill-rule:nonzero;stroke:#000000;stroke-width:0.063;stroke-linecap:butt;stroke-linejoin:miter;stroke-miterlimit:4;stroke-dasharray:none;stroke-opacity:1"
       transform="matrix(1.3333333,0,0,-1.3333333,974.21093,617.23747)"
       clip-path="url(#clipPath49)" />
    <path
       id="path50"
       d="m 0,0 c 0.791,5.118 4.417,4.997 6.702,4.469 0.937,-0.216 3.246,-0.432 5.404,0.144 4.279,1.14 7.5,-0.36 7.07,-4.469 1.152,-0.865 2.374,-2.883 2.158,-4.614 -0.215,-1.73 0.145,-2.451 1.734,-2.667 1.582,-0.217 4.975,-2.163 2.734,-4.902 2.165,-1.298 3.823,-4.613 2.671,-6.848 -1.152,-2.235 -4.614,-2.596 -6.057,-0.576 -1.582,-0.721 -4.183,-0.866 -5.766,0.792 -1.082,-1.297 -3.822,-1.154 -4.328,0 -0.5,1.154 -1.354,1.771 -2.374,2.091 -1.157,0.36 -1.227,3.532 0.501,3.892 -0.216,0.938 -0.139,2.019 0.291,2.523 0.43,0.504 0.07,1.442 -0.937,2.235 C 8.791,-7.137 7.93,-4.109 8.937,-2.451 7.208,-3.028 3.386,-1.37 2.595,-0.217 1.797,0.937 0.722,1.009 0,0"
       style="fill:#870f00;fill-opacity:1;fill-rule:nonzero;stroke:#000000;stroke-width:0.063;stroke-linecap:butt;stroke-linejoin:miter;stroke-miterlimit:4;stroke-dasharray:none;stroke-opacity:1"
       transform="matrix(1.3333333,0,0,-1.3333333,1001.4167,311.5884)"
       clip-path="url(#clipPath51)" />
    <path
       id="path52"
       d="M 0,0 C 2.811,0.361 3.747,2.091 5.835,1.947"
       style="fill:none;stroke:#000000;stroke-width:0.063;stroke-linecap:butt;stroke-linejoin:miter;stroke-miterlimit:4;stroke-dasharray:none;stroke-opacity:1"
       transform="matrix(1.3333333,0,0,-1.3333333,1002.8593,341.1932)"
       clip-path="url(#clipPath53)" />
    <path
       id="path54"
       d="m 0,0 c 0.184,-0.162 0.418,-0.294 0.684,-0.44 0.57,-0.308 1.19,-0.344 1.766,-0.415"
       style="fill:none;stroke:#000000;stroke-width:0.063;stroke-linecap:butt;stroke-linejoin:miter;stroke-miterlimit:4;stroke-dasharray:none;stroke-opacity:1"
       transform="matrix(1.3333333,0,0,-1.3333333,994.87627,330.75373)"
       clip-path="url(#clipPath55)" />
    <path
       id="path56"
       d="M 0,0 C 0.393,-0.135 0.81,-0.333 1.184,-0.719"
       style="fill:none;stroke:#000000;stroke-width:0.063;stroke-linecap:butt;stroke-linejoin:miter;stroke-miterlimit:4;stroke-dasharray:none;stroke-opacity:1"
       transform="matrix(1.3333333,0,0,-1.3333333,995.99093,326.77787)"
       clip-path="url(#clipPath57)" />
    <path
       id="path58"
       d="m 0,0 c -1.658,1.586 2.81,4.829 7.499,0.216 0.874,-0.861 3.096,-0.865 3.747,-0.649"
       style="fill:none;stroke:#000000;stroke-width:0.063;stroke-linecap:butt;stroke-linejoin:miter;stroke-miterlimit:4;stroke-dasharray:none;stroke-opacity:1"
       transform="matrix(1.3333333,0,0,-1.3333333,1004.6823,311.5884)"
       clip-path="url(#clipPath59)" />
    <path
       id="path60"
       d="m 0,0 c 2.164,0.505 5.404,0.505 6.341,-1.946 0.943,-2.451 2.816,-0.866 4.329,-3.749 1.513,-2.884 3.893,-6.127 6.195,-3.892"
       style="fill:none;stroke:#000000;stroke-width:0.063;stroke-linecap:butt;stroke-linejoin:miter;stroke-miterlimit:4;stroke-dasharray:none;stroke-opacity:1"
       transform="matrix(1.3333333,0,0,-1.3333333,1013.332,314.85653)"
       clip-path="url(#clipPath61)" />
    <path
       id="path62"
       d="m 0,0 c -0.651,0.865 -0.937,2.74 -0.506,4.038 -0.867,1.009 -0.506,3.099 0,4.108"
       style="fill:none;stroke:#000000;stroke-width:0.063;stroke-linecap:butt;stroke-linejoin:miter;stroke-miterlimit:4;stroke-dasharray:none;stroke-opacity:1"
       transform="matrix(1.3333333,0,0,-1.3333333,1023.6172,336.48347)"
       clip-path="url(#clipPath63)" />
    <path
       id="path64"
       d="M 0,0 C 0.075,-0.865 1.228,-2.451 3.031,-2.739"
       style="fill:none;stroke:#000000;stroke-width:0.063;stroke-linecap:butt;stroke-linejoin:miter;stroke-miterlimit:4;stroke-dasharray:none;stroke-opacity:1"
       transform="matrix(1.3333333,0,0,-1.3333333,1015.3489,328.50507)"
       clip-path="url(#clipPath65)" />
    <path
       id="path66"
       d="M 0,0 C -1.006,1.297 -0.866,2.45 -0.646,4.037"
       style="fill:none;stroke:#000000;stroke-width:0.063;stroke-linecap:butt;stroke-linejoin:miter;stroke-miterlimit:4;stroke-dasharray:none;stroke-opacity:1"
       transform="matrix(1.3333333,0,0,-1.3333333,1031.3047,337.53947)"
       clip-path="url(#clipPath67)" />
    <path
       id="path68"
       d="M 0,0 C -0.069,-1.297 0.722,-3.027 2.089,-3.604 2.38,-4.324 3.822,-6.343 6.702,-6.055"
       style="fill:none;stroke:#000000;stroke-width:0.063;stroke-linecap:butt;stroke-linejoin:miter;stroke-miterlimit:4;stroke-dasharray:none;stroke-opacity:1"
       transform="matrix(1.3333333,0,0,-1.3333333,1017.2721,318.41387)"
       clip-path="url(#clipPath69)" />
    <path
       id="path70"
       d="M 0,0 C -1.582,1.228 -3.728,2.74 -6.562,3.114"
       style="fill:none;stroke:#000000;stroke-width:0.063;stroke-linecap:butt;stroke-linejoin:miter;stroke-miterlimit:4;stroke-dasharray:none;stroke-opacity:1"
       transform="matrix(1.3333333,0,0,-1.3333333,1026.9844,311.39693)"
       clip-path="url(#clipPath71)" />
    <path
       id="path72"
       d="m 0,0 c -2.449,-3.316 -4.037,-7.93 -2.88,-14.417 1.152,-6.488 3.026,-16.004 -1.733,-20.329"
       style="fill:none;stroke:#000000;stroke-width:0.063;stroke-linecap:butt;stroke-linejoin:miter;stroke-miterlimit:4;stroke-dasharray:none;stroke-opacity:1"
       transform="matrix(1.3333333,0,0,-1.3333333,1003.526,366.5668)"
       clip-path="url(#clipPath73)" />
    <path
       id="path74"
       d="m 0,0 c -3.316,0.721 -8.075,0.721 -10.671,-1.153 -2.595,-1.874 -6.923,-2.019 -9.803,-0.577"
       style="fill:none;stroke:#000000;stroke-width:0.063;stroke-linecap:butt;stroke-linejoin:miter;stroke-miterlimit:4;stroke-dasharray:none;stroke-opacity:1"
       transform="matrix(1.3333333,0,0,-1.3333333,1028.5208,429.61893)"
       clip-path="url(#clipPath75)" />
    <path
       id="path76"
       d="m 0,0 c -2.886,-0.504 -4.253,-2.522 -4.253,-7.857 0,-5.334 -1.152,-13.12 -0.145,-20.761"
       style="fill:none;stroke:#000000;stroke-width:0.063;stroke-linecap:butt;stroke-linejoin:miter;stroke-miterlimit:4;stroke-dasharray:none;stroke-opacity:1"
       transform="matrix(1.3333333,0,0,-1.3333333,1019.1967,429.3312)"
       clip-path="url(#clipPath77)" />
    <path
       id="path78"
       d="M 0,0 C -1.873,-0.505 -3.816,-0.576 -3.456,-5.623"
       style="fill:none;stroke:#000000;stroke-width:0.063;stroke-linecap:butt;stroke-linejoin:miter;stroke-miterlimit:4;stroke-dasharray:none;stroke-opacity:1"
       transform="matrix(1.3333333,0,0,-1.3333333,1012.1757,432.3104)"
       clip-path="url(#clipPath79)" />
    <path
       id="path80"
       d="M 0,0 C 0.069,3.1 1.152,5.983 3.171,5.479"
       style="fill:none;stroke:#000000;stroke-width:0.063;stroke-linecap:butt;stroke-linejoin:miter;stroke-miterlimit:4;stroke-dasharray:none;stroke-opacity:1"
       transform="matrix(1.3333333,0,0,-1.3333333,999.20573,439.9992)"
       clip-path="url(#clipPath81)" />
    <path
       id="path82"
       d="M 0,0 C 0.146,6.849 -1.366,8.795 -3.386,8.723 -0.646,8.65 1.222,8.315 2.38,-2.883 c 0.867,-8.362 2.614,-11.322 4.614,-17.878 5.19,-17.012 2.595,-43.252 5.19,-52.479"
       style="fill:none;stroke:#000000;stroke-width:0.063;stroke-linecap:butt;stroke-linejoin:miter;stroke-miterlimit:4;stroke-dasharray:none;stroke-opacity:1"
       transform="matrix(1.3333333,0,0,-1.3333333,1026.8828,440.76867)"
       clip-path="url(#clipPath83)" />
    <path
       id="path84"
       d="M 0,0 C 5.474,-15.86 8.36,-33.449 -0.576,-61.707 5.474,-78.431 11.53,-90.541 12.683,-97.462"
       style="fill:none;stroke:#000000;stroke-width:0.063;stroke-linecap:butt;stroke-linejoin:miter;stroke-miterlimit:4;stroke-dasharray:none;stroke-opacity:1"
       transform="matrix(1.3333333,0,0,-1.3333333,1021.6016,443.4588)"
       clip-path="url(#clipPath85)" />
    <path
       id="path86"
       d="m 0,0 c 1.006,3.604 -2.595,4.036 0.575,16.724 1.374,5.496 1.589,8.794 0.722,10.524"
       style="fill:none;stroke:#000000;stroke-width:0.063;stroke-linecap:butt;stroke-linejoin:miter;stroke-miterlimit:4;stroke-dasharray:none;stroke-opacity:1"
       transform="matrix(1.3333333,0,0,-1.3333333,998.5312,493.4392)"
       clip-path="url(#clipPath87)" />
    <path
       id="path88"
       d="M 0,0 C -1.297,-5.623 4.184,-16.147 1.443,-23.788"
       style="fill:none;stroke:#000000;stroke-width:0.063;stroke-linecap:butt;stroke-linejoin:miter;stroke-miterlimit:4;stroke-dasharray:none;stroke-opacity:1"
       transform="matrix(1.3333333,0,0,-1.3333333,1000.2604,467.10467)"
       clip-path="url(#clipPath89)" />
    <path
       id="path90"
       d="m 0,0 c 0,-4.902 1.151,-11.246 0.867,-16.148 -0.291,-4.902 1.709,-7.173 4.037,-11.822 8.361,-16.724 14.05,-28.657 13.259,-44.406 -0.139,-2.883 0.867,-8.938 -2.158,-10.668"
       style="fill:none;stroke:#000000;stroke-width:0.063;stroke-linecap:butt;stroke-linejoin:miter;stroke-miterlimit:4;stroke-dasharray:none;stroke-opacity:1"
       transform="matrix(1.3333333,0,0,-1.3333333,993.1472,500.744)"
       clip-path="url(#clipPath91)" />
    <path
       id="path92"
       d="M 0,0 C 0.867,-0.072 1.804,0.36 2.886,2.956 3.969,5.551 7.431,21.122 5.987,31.791"
       style="fill:none;stroke:#000000;stroke-width:0.063;stroke-linecap:butt;stroke-linejoin:miter;stroke-miterlimit:4;stroke-dasharray:none;stroke-opacity:1"
       transform="matrix(1.3333333,0,0,-1.3333333,993.4336,617.14107)"
       clip-path="url(#clipPath93)" />
    <path
       id="path94"
       d="M 0,0 C 0.431,-3.315 0.431,-10.092 -1.728,-15.426"
       style="fill:none;stroke:#000000;stroke-width:0.063;stroke-linecap:butt;stroke-linejoin:miter;stroke-miterlimit:4;stroke-dasharray:none;stroke-opacity:1"
       transform="matrix(1.3333333,0,0,-1.3333333,1003.72,590.90147)"
       clip-path="url(#clipPath95)" />
    <path
       id="path96"
       d="M 0,0 C 1.298,-7.064 1.152,-13.408 0.146,-17.877"
       style="fill:none;stroke:#000000;stroke-width:0.063;stroke-linecap:butt;stroke-linejoin:miter;stroke-miterlimit:4;stroke-dasharray:none;stroke-opacity:1"
       transform="matrix(1.3333333,0,0,-1.3333333,1011.0273,577.6372)"
       clip-path="url(#clipPath97)" />
    <path
       id="path98"
       d="M 0,0 C 0.146,-2.884 1.443,-10.093 -0.722,-10.67"
       style="fill:none;stroke:#000000;stroke-width:0.063;stroke-linecap:butt;stroke-linejoin:miter;stroke-miterlimit:4;stroke-dasharray:none;stroke-opacity:1"
       transform="matrix(1.3333333,0,0,-1.3333333,1007.1797,601.47307)"
       clip-path="url(#clipPath99)" />
    <path
       id="path100"
       d="M 0,0 C 5.328,-8.362 9.512,-28.979 13.979,-33.304"
       style="fill:none;stroke:#000000;stroke-width:0.063;stroke-linecap:butt;stroke-linejoin:miter;stroke-miterlimit:4;stroke-dasharray:none;stroke-opacity:1"
       transform="matrix(1.3333333,0,0,-1.3333333,1021.6016,556.87547)"
       clip-path="url(#clipPath101)" />
    <path
       id="path102"
       d="M 0,0 C -0.146,2.307 -0.291,5.478 -1.589,6.92"
       style="fill:none;stroke:#000000;stroke-width:0.063;stroke-linecap:butt;stroke-linejoin:miter;stroke-miterlimit:4;stroke-dasharray:none;stroke-opacity:1"
       transform="matrix(1.3333333,0,0,-1.3333333,1027.7527,596.85987)"
       clip-path="url(#clipPath103)" />
    <path
       id="path104"
       d="M 0,0 C 0.069,1.587 -0.216,3.101 1.513,5.551"
       style="fill:none;stroke:#000000;stroke-width:0.063;stroke-linecap:butt;stroke-linejoin:miter;stroke-miterlimit:4;stroke-dasharray:none;stroke-opacity:1"
       transform="matrix(1.3333333,0,0,-1.3333333,950.95573,462.29867)"
       clip-path="url(#clipPath105)" />
    <path
       id="path106"
       d="M 0,0 C 0.215,5.551 0.139,6.057 1.728,7.57"
       style="fill:none;stroke:#000000;stroke-width:0.063;stroke-linecap:butt;stroke-linejoin:miter;stroke-miterlimit:4;stroke-dasharray:none;stroke-opacity:1"
       transform="matrix(1.3333333,0,0,-1.3333333,947.49613,463.54867)"
       clip-path="url(#clipPath107)" />
    <path
       id="path108"
       d="M 0,0 C 0.069,3.965 -0.437,5.335 1.152,7.857"
       style="fill:none;stroke:#000000;stroke-width:0.063;stroke-linecap:butt;stroke-linejoin:miter;stroke-miterlimit:4;stroke-dasharray:none;stroke-opacity:1"
       transform="matrix(1.3333333,0,0,-1.3333333,944.51693,463.74)"
       clip-path="url(#clipPath109)" />
    <path
       id="path110"
       d="M 0,0 C -0.614,-0.396 -4.215,-3.135 -5.728,-4.289"
       style="fill:none;stroke:#000000;stroke-width:0.063;stroke-linecap:butt;stroke-linejoin:miter;stroke-miterlimit:4;stroke-dasharray:none;stroke-opacity:1"
       transform="matrix(1.3333333,0,0,-1.3333333,971.03907,305.1496)"
       clip-path="url(#clipPath111)" />
    <path
       id="path112"
       d="M 0,0 C -0.684,-0.107 -2.665,-1.73 -6.196,-4.469"
       style="fill:none;stroke:#000000;stroke-width:0.063;stroke-linecap:butt;stroke-linejoin:miter;stroke-miterlimit:4;stroke-dasharray:none;stroke-opacity:1"
       transform="matrix(1.3333333,0,0,-1.3333333,973.1068,306.9276)"
       clip-path="url(#clipPath113)" />
    <path
       id="path114"
       d="M 0,0 C -1.114,-0.504 -3.24,-2.56 -5.189,-3.929"
       style="fill:none;stroke:#000000;stroke-width:0.063;stroke-linecap:butt;stroke-linejoin:miter;stroke-miterlimit:4;stroke-dasharray:none;stroke-opacity:1"
       transform="matrix(1.3333333,0,0,-1.3333333,973.25,309.90667)"
       clip-path="url(#clipPath115)" />
    <path
       id="path116"
       d="M 0,0 C -0.538,-0.396 -1.582,-1.55 -2.088,-1.946"
       style="fill:none;stroke:#000000;stroke-width:0.063;stroke-linecap:butt;stroke-linejoin:miter;stroke-miterlimit:4;stroke-dasharray:none;stroke-opacity:1"
       transform="matrix(1.3333333,0,0,-1.3333333,961.42707,309.37867)"
       clip-path="url(#clipPath117)" />
    <path
       id="path118"
       d="M 0,0 C -0.323,0.361 -0.323,1.623 0.253,3.028"
       style="fill:none;stroke:#000000;stroke-width:0.063;stroke-linecap:butt;stroke-linejoin:miter;stroke-miterlimit:4;stroke-dasharray:none;stroke-opacity:1"
       transform="matrix(1.3333333,0,0,-1.3333333,1028.4193,631.55907)"
       clip-path="url(#clipPath119)" />
    <path
       id="path120"
       d="M 0,0 C -0.393,0.396 0,2.127 0.398,3.244"
       style="fill:none;stroke:#000000;stroke-width:0.063;stroke-linecap:butt;stroke-linejoin:miter;stroke-miterlimit:4;stroke-dasharray:none;stroke-opacity:1"
       transform="matrix(1.3333333,0,0,-1.3333333,1031.8789,630.6932)"
       clip-path="url(#clipPath121)" />
    <path
       id="path122"
       d="M 0,0 C -0.469,0.216 -0.614,1.226 0.069,2.595"
       style="fill:none;stroke:#000000;stroke-width:0.063;stroke-linecap:butt;stroke-linejoin:miter;stroke-miterlimit:4;stroke-dasharray:none;stroke-opacity:1"
       transform="matrix(1.3333333,0,0,-1.3333333,1035.1536,629.53947)"
       clip-path="url(#clipPath123)" />
    <path
       id="path124"
       d="M 0,0 C -0.322,0.107 -0.468,0.648 0.107,2.234"
       style="fill:none;stroke:#000000;stroke-width:0.063;stroke-linecap:butt;stroke-linejoin:miter;stroke-miterlimit:4;stroke-dasharray:none;stroke-opacity:1"
       transform="matrix(1.3333333,0,0,-1.3333333,1037.7435,628.1932)"
       clip-path="url(#clipPath125)" />
    <path
       id="path126"
       d="m 0,0 c 1.044,-1.37 2.126,-1.225 2.316,-2.108 0.19,-0.884 0.33,-0.947 0.532,-1.208 0.203,-0.262 -0.494,-0.209 -0.835,-0.068 -0.336,0.141 -1.184,0.126 -1.703,0.119 -0.512,-0.008 -1.126,0.598 -0.741,0.67 0.38,0.071 0.329,0.191 0.273,0.459 -0.057,0.269 0.215,0.694 0.373,0.771 C 0.38,-1.287 0.266,-1.301 0.12,-0.941 -0.032,-0.581 -0.222,0.295 0,0"
       style="fill:#000000;fill-opacity:1;fill-rule:nonzero;stroke:none"
       transform="matrix(1.3333333,0,0,-1.3333333,999.9232,317.64373)"
       clip-path="url(#clipPath127)" />
    <path
       id="path128"
       d="M 0,0 C 1.171,-0.137 3.189,-0.77 4.284,-1.981 5.146,-2.935 4.442,-2.682 4.006,-2.717 3.569,-2.754 2.715,-2.444 2.284,-1.903 1.86,-1.362 0.589,-0.676 -0.089,-0.497 -0.5,-0.391 -0.886,0.104 0,0"
       style="fill:#000000;fill-opacity:1;fill-rule:nonzero;stroke:none"
       transform="matrix(1.3333333,0,0,-1.3333333,1000.7669,315.97187)"
       clip-path="url(#clipPath129)" />
  </g>
</svg>
