<?xml version="1.0" encoding="UTF-8" standalone="no"?>
<!-- Created with Inkscape (http://www.inkscape.org/) -->

<svg
   version="1.1"
   id="svg1"
   width="1000"
   height="666.66669"
   viewBox="0 0 1000 666.66669"
   sodipodi:docname="mq.ai"
   xmlns:inkscape="http://www.inkscape.org/namespaces/inkscape"
   xmlns:sodipodi="http://sodipodi.sourceforge.net/DTD/sodipodi-0.dtd"
   xmlns="http://www.w3.org/2000/svg"
   xmlns:svg="http://www.w3.org/2000/svg">
  <defs
     id="defs1">
    <clipPath
       clipPathUnits="userSpaceOnUse"
       id="clipPath4">
      <path
         d="M 0,500 H 750 V 0 H 0 Z"
         transform="translate(0,-250.00001)"
         id="path4" />
    </clipPath>
    <clipPath
       clipPathUnits="userSpaceOnUse"
       id="clipPath6">
      <path
         d="M 0,500 H 750 V 0 H 0 Z"
         transform="translate(-226.3198,-339.00001)"
         id="path6" />
    </clipPath>
    <clipPath
       clipPathUnits="userSpaceOnUse"
       id="clipPath8">
      <path
         d="M 0,500 H 750 V 0 H 0 Z"
         transform="translate(-637.57031,-339.00001)"
         id="path8" />
    </clipPath>
    <clipPath
       clipPathUnits="userSpaceOnUse"
       id="clipPath10">
      <path
         d="M 0,500 H 750 V 0 H 0 Z"
         transform="translate(-226.3198,-52.750004)"
         id="path10" />
    </clipPath>
    <clipPath
       clipPathUnits="userSpaceOnUse"
       id="clipPath12">
      <path
         d="M 0,500 H 750 V 0 H 0 Z"
         transform="translate(-637.57031,-52.750004)"
         id="path12" />
    </clipPath>
  </defs>
  <sodipodi:namedview
     id="namedview1"
     pagecolor="#ffffff"
     bordercolor="#000000"
     borderopacity="0.25"
     inkscape:showpageshadow="2"
     inkscape:pageopacity="0.0"
     inkscape:pagecheckerboard="0"
     inkscape:deskcolor="#d1d1d1">
    <inkscape:page
       x="0"
       y="0"
       inkscape:label="1"
       id="page1"
       width="1000"
       height="666.66669"
       margin="0"
       bleed="0" />
  </sodipodi:namedview>
  <g
     id="layer-MC0"
     inkscape:groupmode="layer"
     inkscape:label="Layer 1">
    <path
       id="path1"
       d="M 0,0 H 750 V 500 H 0 Z"
       style="fill:#21428e;fill-opacity:1;fill-rule:nonzero;stroke:none"
       transform="matrix(1.3333333,0,0,-1.3333333,0,666.66667)" />
    <path
       id="path2"
       d="m 0,0 v -250 z m 0,-250 h 374.999 z m -375,0 H 0 Z m 375,0 v -250 z"
       style="fill:#000000;fill-opacity:1;fill-rule:nonzero;stroke:none"
       transform="matrix(1.3333333,0,0,-1.3333333,500.0004,-5.3333333e-4)" />
    <path
       id="path3"
       d="M 0,0 H 750 M 375,250 v -500"
       style="fill:none;stroke:#ffffff;stroke-width:72.5;stroke-linecap:butt;stroke-linejoin:miter;stroke-miterlimit:4;stroke-dasharray:none;stroke-opacity:1"
       transform="matrix(1.3333333,0,0,-1.3333333,0,333.33333)"
       clip-path="url(#clipPath4)" />
    <path
       id="path5"
       d="m 0,0 c 4.37,-1.61 5.98,-3.22 4.6,-4.6 -3.91,-3.91 -29.21,-7.36 -44.62,-6.21 -17.02,1.61 -35.42,7.13 -29.9,9.43 C -54.51,4.6 -14.03,5.29 0,0 m -66.47,128.8 c -0.69,-1.15 -2.53,-2.3 -3.68,-2.3 -1.38,0 -1.61,1.15 -0.92,2.3 0.69,1.38 2.53,2.3 3.68,2.3 1.38,0 1.61,-0.92 0.92,-2.3 m -16.56,4.83 c -5.52,-2.53 -9.89,-6.21 -9.89,-8.05 0,-2.07 3.22,-2.07 -0.92,-3.45 -3.91,-1.38 -14.49,-3.22 -21.85,-2.99 -2.53,0 -8.51,1.61 -10.12,1.61 -1.84,-0.23 7.82,-4.14 4.14,-3.22 -5.06,1.38 -8.05,1.84 -4.14,-0.69 2.99,-1.84 9.66,-1.84 19.09,-0.69 3.68,0.46 13.34,2.53 16.79,2.99 2.3,0.23 2.3,-1.84 3.68,-1.84 12.42,-0.69 34.5,-0.23 44.16,1.15 8.05,1.15 11.04,0.69 13.34,-2.07 4.6,-5.29 -0.23,-9.89 -13.34,-12.65 -16.1,-3.45 -22.77,-6.44 -28.98,-13.11 -14.95,-16.1 2.53,-34.27 35.19,-36.8 19.09,-1.61 31.51,-5.29 28.52,-8.28 -1.15,-1.15 -13.8,-2.99 -28.29,-4.14 -31.51,-2.53 -45.54,-6.9 -57.5,-18.4 -6.67,-6.44 -8.97,-10.35 -8.97,-15.64 0,-7.36 0,-7.36 -12.19,-7.36 -6.44,0 -15.41,0.92 -19.55,2.3 -6.44,1.61 -7.36,1.61 -5.06,-1.15 4.6,-5.52 17.71,-10.35 28.52,-10.35 8.28,0 12.88,-1.61 20.24,-6.9 14.72,-10.81 31.51,-14.95 59.34,-14.72 36.57,0.23 57.5,9.89 57.5,26.22 0,12.19 -13.8,19.32 -42.55,21.85 -14.49,1.38 -43.01,-0.92 -55.43,-4.6 -2.3,-0.69 0.23,0.92 5.75,3.68 6.67,3.22 17.71,5.52 32.66,6.9 33.12,2.76 48.07,10.12 48.07,23.92 0,13.34 -14.72,20.93 -46.23,23.92 -31.05,2.76 -33.35,8.28 -7.13,16.33 18.63,5.52 28.06,13.8 28.06,25.07 0,17.25 -9.43,23 -40.94,24.61 -19.09,0.92 -23.69,0.46 -31.97,-3.45"
       style="fill:#ffffff;fill-opacity:1;fill-rule:nonzero;stroke:none"
       transform="matrix(1.3333333,0,0,-1.3333333,301.75973,214.66667)"
       clip-path="url(#clipPath6)" />
    <path
       id="path7"
       d="M 0,0 C 4.37,-1.61 5.979,-3.22 4.6,-4.6 0.689,-8.51 -24.61,-11.96 -40.021,-10.81 -57.04,-9.2 -75.44,-3.68 -69.92,-1.38 -54.511,4.6 -14.03,5.29 0,0 m -66.471,128.8 c -0.689,-1.15 -2.529,-2.3 -3.679,-2.3 -1.38,0 -1.611,1.15 -0.92,2.3 0.69,1.38 2.53,2.3 3.679,2.3 1.38,0 1.611,-0.92 0.92,-2.3 m -16.559,4.83 c -5.521,-2.53 -9.89,-6.21 -9.89,-8.05 0,-2.07 3.22,-2.07 -0.92,-3.45 -3.91,-1.38 -14.49,-3.22 -21.85,-2.99 -2.531,0 -8.51,1.61 -10.121,1.61 -1.839,-0.23 7.821,-4.14 4.141,-3.22 -5.06,1.38 -8.051,1.84 -4.141,-0.69 2.991,-1.84 9.661,-1.84 19.09,-0.69 3.681,0.46 13.341,2.53 16.79,2.99 2.301,0.23 2.301,-1.84 3.681,-1.84 12.42,-0.69 34.5,-0.23 44.16,1.15 8.05,1.15 11.039,0.69 13.34,-2.07 4.6,-5.29 -0.23,-9.89 -13.34,-12.65 -16.1,-3.45 -22.77,-6.44 -28.98,-13.11 -14.951,-16.1 2.53,-34.27 35.19,-36.8 19.09,-1.61 31.51,-5.29 28.52,-8.28 -1.151,-1.15 -13.8,-2.99 -28.29,-4.14 -31.51,-2.53 -45.54,-6.9 -57.5,-18.4 -6.67,-6.44 -8.97,-10.35 -8.97,-15.64 0,-7.36 0,-7.36 -12.191,-7.36 -6.439,0 -15.41,0.92 -19.549,2.3 -6.441,1.61 -7.361,1.61 -5.06,-1.15 4.6,-5.52 17.71,-10.35 28.52,-10.35 8.28,0 12.879,-1.61 20.24,-6.9 14.72,-10.81 31.51,-14.95 59.34,-14.72 36.57,0.23 57.5,9.89 57.5,26.22 0,12.19 -13.8,19.32 -42.55,21.85 -14.49,1.38 -43.01,-0.92 -55.431,-4.6 -2.3,-0.69 0.231,0.92 5.75,3.68 6.671,3.22 17.711,5.52 32.66,6.9 33.12,2.76 48.071,10.12 48.071,23.92 0,13.34 -14.72,20.93 -46.231,23.92 -31.05,2.76 -33.349,8.28 -7.13,16.33 18.63,5.52 28.061,13.8 28.061,25.07 0,17.25 -9.431,23 -40.941,24.61 -19.089,0.92 -23.689,0.46 -31.969,-3.45"
       style="fill:#ffffff;fill-opacity:1;fill-rule:nonzero;stroke:none"
       transform="matrix(1.3333333,0,0,-1.3333333,850.09373,214.66667)"
       clip-path="url(#clipPath8)" />
    <path
       id="path9"
       d="m 0,0 c 4.37,-1.61 5.98,-3.22 4.6,-4.6 -3.91,-3.91 -29.21,-7.36 -44.62,-6.21 -17.02,1.61 -35.42,7.13 -29.9,9.43 C -54.51,4.6 -14.03,5.29 0,0 m -66.47,128.8 c -0.69,-1.15 -2.53,-2.3 -3.68,-2.3 -1.38,0 -1.61,1.15 -0.92,2.3 0.69,1.38 2.53,2.3 3.68,2.3 1.38,0 1.61,-0.92 0.92,-2.3 m -16.56,4.83 c -5.52,-2.53 -9.89,-6.21 -9.89,-8.05 0,-2.07 3.22,-2.07 -0.92,-3.45 -3.91,-1.38 -14.49,-3.22 -21.85,-2.99 -2.53,0 -8.51,1.61 -10.12,1.61 -1.84,-0.23 7.82,-4.14 4.14,-3.22 -5.06,1.38 -8.05,1.84 -4.14,-0.69 2.99,-1.84 9.66,-1.84 19.09,-0.69 3.68,0.46 13.34,2.53 16.79,2.99 2.3,0.23 2.3,-1.84 3.68,-1.84 12.42,-0.69 34.5,-0.23 44.16,1.15 8.05,1.15 11.04,0.69 13.34,-2.07 4.6,-5.29 -0.23,-9.89 -13.34,-12.65 -16.1,-3.45 -22.77,-6.44 -28.98,-13.11 -14.95,-16.1 2.53,-34.27 35.19,-36.8 19.09,-1.61 31.51,-5.29 28.52,-8.28 -1.15,-1.15 -13.8,-2.99 -28.29,-4.14 -31.51,-2.53 -45.54,-6.9 -57.5,-18.4 -6.67,-6.44 -8.97,-10.35 -8.97,-15.64 0,-7.36 0,-7.36 -12.19,-7.36 -6.44,0 -15.41,0.92 -19.55,2.3 -6.44,1.61 -7.36,1.61 -5.06,-1.15 4.6,-5.52 17.71,-10.35 28.52,-10.35 8.28,0 12.88,-1.61 20.24,-6.9 14.72,-10.81 31.51,-14.95 59.34,-14.72 36.57,0.23 57.5,9.89 57.5,26.22 0,12.19 -13.8,19.32 -42.55,21.85 -14.49,1.38 -43.01,-0.92 -55.43,-4.6 -2.3,-0.69 0.23,0.92 5.75,3.68 6.67,3.22 17.71,5.52 32.66,6.9 33.12,2.76 48.07,10.12 48.07,23.92 0,13.34 -14.72,20.93 -46.23,23.92 -31.05,2.76 -33.35,8.28 -7.13,16.33 18.63,5.52 28.06,13.8 28.06,25.07 0,17.25 -9.43,23 -40.94,24.61 -19.09,0.92 -23.69,0.46 -31.97,-3.45"
       style="fill:#ffffff;fill-opacity:1;fill-rule:nonzero;stroke:none"
       transform="matrix(1.3333333,0,0,-1.3333333,301.75973,596.33333)"
       clip-path="url(#clipPath10)" />
    <path
       id="path11"
       d="M 0,0 C 4.37,-1.61 5.979,-3.22 4.6,-4.6 0.689,-8.51 -24.61,-11.96 -40.021,-10.81 -57.04,-9.2 -75.44,-3.68 -69.92,-1.38 -54.511,4.6 -14.03,5.29 0,0 m -66.471,128.8 c -0.689,-1.15 -2.529,-2.3 -3.679,-2.3 -1.38,0 -1.611,1.15 -0.92,2.3 0.69,1.38 2.53,2.3 3.679,2.3 1.38,0 1.611,-0.92 0.92,-2.3 m -16.559,4.83 c -5.521,-2.53 -9.89,-6.21 -9.89,-8.05 0,-2.07 3.22,-2.07 -0.92,-3.45 -3.91,-1.38 -14.49,-3.22 -21.85,-2.99 -2.531,0 -8.51,1.61 -10.121,1.61 -1.839,-0.23 7.821,-4.14 4.141,-3.22 -5.06,1.38 -8.051,1.84 -4.141,-0.69 2.991,-1.84 9.661,-1.84 19.09,-0.69 3.681,0.46 13.341,2.53 16.79,2.99 2.301,0.23 2.301,-1.84 3.681,-1.84 12.42,-0.69 34.5,-0.23 44.16,1.15 8.05,1.15 11.039,0.69 13.34,-2.07 4.6,-5.29 -0.23,-9.89 -13.34,-12.65 -16.1,-3.45 -22.77,-6.44 -28.98,-13.11 -14.951,-16.1 2.53,-34.27 35.19,-36.8 19.09,-1.61 31.51,-5.29 28.52,-8.28 -1.151,-1.15 -13.8,-2.99 -28.29,-4.14 -31.51,-2.53 -45.54,-6.9 -57.5,-18.4 -6.67,-6.44 -8.97,-10.35 -8.97,-15.64 0,-7.36 0,-7.36 -12.191,-7.36 -6.439,0 -15.41,0.92 -19.549,2.3 -6.441,1.61 -7.361,1.61 -5.06,-1.15 4.6,-5.52 17.71,-10.35 28.52,-10.35 8.28,0 12.879,-1.61 20.24,-6.9 14.72,-10.81 31.51,-14.95 59.34,-14.72 36.57,0.23 57.5,9.89 57.5,26.22 0,12.19 -13.8,19.32 -42.55,21.85 -14.49,1.38 -43.01,-0.92 -55.431,-4.6 -2.3,-0.69 0.231,0.92 5.75,3.68 6.671,3.22 17.711,5.52 32.66,6.9 33.12,2.76 48.071,10.12 48.071,23.92 0,13.34 -14.72,20.93 -46.231,23.92 -31.05,2.76 -33.349,8.28 -7.13,16.33 18.63,5.52 28.061,13.8 28.061,25.07 0,17.25 -9.431,23 -40.941,24.61 -19.089,0.92 -23.689,0.46 -31.969,-3.45"
       style="fill:#ffffff;fill-opacity:1;fill-rule:nonzero;stroke:none"
       transform="matrix(1.3333333,0,0,-1.3333333,850.09373,596.33333)"
       clip-path="url(#clipPath12)" />
  </g>
</svg>
