<svg height="800" viewBox="0 0 1200 800" width="1200" xmlns="http://www.w3.org/2000/svg" xmlns:xlink="http://www.w3.org/1999/xlink"><clipPath id="a"><path d="m0 600h900v-600h-900z" transform="translate(-450.00001 -501.00001)"/></clipPath><clipPath id="b"><path d="m0 600h900v-600h-900z"/></clipPath><clipPath id="c"><path d="m0 600h900v-600h-900z" transform="translate(-450.00001 -576.00001)"/></clipPath><clipPath id="d"><path d="m0 600h900v-600h-900z" transform="translate(-467.77931 -575.22361)"/></clipPath><clipPath id="e"><path d="m0 600h900v-600h-900z" transform="translate(-485.42381 -572.90091)"/></clipPath><clipPath id="f"><path d="m0 600h900v-600h-900z" transform="translate(-502.79881 -569.04881)"/></clipPath><clipPath id="g"><path d="m0 600h900v-600h-900z" transform="translate(-519.77251 -563.69731)"/></clipPath><clipPath id="h"><path d="m0 600h900v-600h-900z" transform="translate(-536.21392 -556.88671)"/></clipPath><clipPath id="i"><path d="m0 600h900v-600h-900z" transform="translate(-552.00001 -548.66891)"/></clipPath><clipPath id="j"><path d="m0 600h900v-600h-900z" transform="translate(-567.00982 -539.10691)"/></clipPath><clipPath id="k"><path d="m0 600h900v-600h-900z" transform="translate(-581.12891 -528.27291)"/></clipPath><clipPath id="l"><path d="m0 600h900v-600h-900z" transform="translate(-594.25001 -516.25001)"/></clipPath><clipPath id="m"><path d="m0 600h900v-600h-900z" transform="translate(-606.27341 -503.12891)"/></clipPath><clipPath id="n"><path d="m0 600h900v-600h-900z" transform="translate(-617.10742 -489.00981)"/></clipPath><clipPath id="o"><path d="m0 600h900v-600h-900z" transform="translate(-626.66891 -474.00001)"/></clipPath><clipPath id="p"><path d="m0 600h900v-600h-900z" transform="translate(-634.88672 -458.21441)"/></clipPath><clipPath id="q"><path d="m0 600h900v-600h-900z" transform="translate(-641.69732 -441.77201)"/></clipPath><clipPath id="r"><path d="m0 600h900v-600h-900z" transform="translate(-647.04881 -424.79931)"/></clipPath><clipPath id="s"><path d="m0 600h900v-600h-900z" transform="translate(-249.0991 -407.42431)"/></clipPath><clipPath id="t"><path d="m0 600h900v-600h-900z" transform="translate(-252.95121 -424.79931)"/></clipPath><clipPath id="u"><path d="m0 600h900v-600h-900z" transform="translate(-258.30271 -441.77201)"/></clipPath><clipPath id="v"><path d="m0 600h900v-600h-900z" transform="translate(-265.11331 -458.21441)"/></clipPath><clipPath id="w"><path d="m0 600h900v-600h-900z" transform="translate(-273.33111 -474.00001)"/></clipPath><clipPath id="x"><path d="m0 600h900v-600h-900z" transform="translate(-282.89311 -489.00981)"/></clipPath><clipPath id="y"><path d="m0 600h900v-600h-900z" transform="translate(-293.7271 -503.12891)"/></clipPath><clipPath id="z"><path d="m0 600h900v-600h-900z" transform="translate(-305.75001 -516.25001)"/></clipPath><clipPath id="A"><path d="m0 600h900v-600h-900z" transform="translate(-318.87111 -528.27291)"/></clipPath><clipPath id="B"><path d="m0 600h900v-600h-900z" transform="translate(-332.99021 -539.10691)"/></clipPath><clipPath id="C"><path d="m0 600h900v-600h-900z" transform="translate(-348.00001 -548.66891)"/></clipPath><clipPath id="D"><path d="m0 600h900v-600h-900z" transform="translate(-363.78561 -556.88671)"/></clipPath><clipPath id="E"><path d="m0 600h900v-600h-900z" transform="translate(-380.22801 -563.69731)"/></clipPath><clipPath id="F"><path d="m0 600h900v-600h-900z" transform="translate(-397.20071 -569.04881)"/></clipPath><clipPath id="G"><path d="m0 600h900v-600h-900z" transform="translate(-414.57571 -572.90091)"/></clipPath><clipPath id="H"><path d="m0 600h900v-600h-900z" transform="translate(-432.22021 -575.22361)"/></clipPath><clipPath id="I"><path d="m0 600h900v-600h-900z"/></clipPath><clipPath id="J"><path d="m0 600h900v-600h-900z"/></clipPath><path d="m0 0h900v600h-900z" transform="matrix(1.3333333 0 0 -1.3333333 0 800)"/><g fill="#ce1126"><path clip-path="url(#a)" d="m0 0c71.245 0 129-57.755 129-129s-57.755-129-129-129-129 57.755-129 129 57.755 129 129 129" transform="matrix(1.3333333 0 0 -1.3333333 600 132)"/><path clip-path="url(#b)" d="m0 400h900v-200h-900z" transform="matrix(1.3333333 0 0 -1.3333333 0 800)"/><path clip-path="url(#c)" d="m0 0c-4.4 0-6-6.6-6-13 0-16 2-24 6-47 4.08 23 6 31.2 6 47 0 6.6-2 13-6 13" transform="matrix(1.3333333 0 0 -1.3333333 600 32)"/><path clip-path="url(#d)" d="m0 0c-4.383.384-6.552-6.052-7.109-12.428-1.395-15.939-.1-24.082 1.88-47.343 6.069 22.556 8.697 30.558 10.074 46.298.575 6.575-.86 13.124-4.845 13.473" transform="matrix(1.3333333 0 0 -1.3333333 623.70573 33.0352)"/><path clip-path="url(#e)" d="m0 0c-4.333.764-7.055-5.458-8.166-11.761-2.778-15.757-2.198-23.982-2.253-47.327 8.013 21.942 11.327 29.684 14.07 45.243 1.147 6.5.288 13.15-3.651 13.845" transform="matrix(1.3333333 0 0 -1.3333333 647.23173 36.132133)"/><path clip-path="url(#f)" d="m0 0c-4.25 1.139-7.504-4.822-9.16-11.004-4.141-15.455-4.279-23.7-6.369-46.952 9.894 21.161 13.871 28.584 17.961 43.846 1.708 6.375 1.432 13.075-2.432 14.11" transform="matrix(1.3333333 0 0 -1.3333333 670.3984 41.268267)"/><path clip-path="url(#g)" d="m0 0c-4.135 1.505-7.896-4.15-10.085-10.164-5.472-15.035-6.329-23.236-10.436-46.217 11.7 20.217 16.309 27.266 21.712 42.113 2.258 6.202 2.568 12.9-1.191 14.268" transform="matrix(1.3333333 0 0 -1.3333333 693.03 48.4036)"/><path clip-path="url(#h)" d="m0 0c-3.987 1.859-8.227-3.446-10.932-9.246-6.761-14.501-8.33-22.597-14.424-45.132 13.418 19.12 18.623 25.741 25.3 40.06 2.789 5.982 3.682 12.628.056 14.318" transform="matrix(1.3333333 0 0 -1.3333333 714.95187 57.4844)"/><path clip-path="url(#i)" d="m0 0c-3.811 2.2-8.496-2.715-11.696-8.258-8-13.857-10.268-21.784-18.304-43.703 15.033 17.878 20.796 24.02 28.696 37.703 3.3 5.716 4.768 12.258 1.304 14.258" transform="matrix(1.3333333 0 0 -1.3333333 736 68.441467)"/><path clip-path="url(#j)" d="m0 0c-3.604 2.524-8.701-1.965-12.371-7.208-9.178-13.106-12.128-20.806-22.044-41.941 16.535 16.5 22.811 22.116 31.873 35.059 3.786 5.406 5.818 11.796 2.542 14.09" transform="matrix(1.3333333 0 0 -1.3333333 756.01307 81.1908)"/><path clip-path="url(#k)" d="m0 0c-3.371 2.829-8.839-1.199-12.953-6.102-10.284-12.256-13.895-19.67-25.614-39.86 17.909 14.996 24.651 20.044 34.807 32.147 4.242 5.056 6.823 11.244 3.76 13.815" transform="matrix(1.3333333 0 0 -1.3333333 774.83853 95.636133)"/><path clip-path="url(#l)" d="m0 0c-3.111 3.111-8.91-.424-13.436-4.95-11.313-11.314-15.555-18.385-28.991-37.477 19.149 13.379 26.305 17.82 37.477 28.992 4.667 4.666 7.778 10.606 4.95 13.435" transform="matrix(1.3333333 0 0 -1.3333333 792.33333 111.66667)"/><path clip-path="url(#m)" d="m0 0c-2.829 3.37-8.913.354-13.815-3.76-12.257-10.285-17.1-16.959-32.148-34.807 20.241 11.658 27.757 15.458 39.86 25.614 5.057 4.243 8.673 9.889 6.103 12.953" transform="matrix(1.3333333 0 0 -1.3333333 808.36453 129.16147)"/><path clip-path="url(#n)" d="m0 0c-2.524 3.604-8.849 1.129-14.091-2.542-13.106-9.177-18.513-15.404-35.058-31.873 21.18 9.851 28.999 12.981 41.941 22.043 5.406 3.786 9.502 9.095 7.208 12.372" transform="matrix(1.3333333 0 0 -1.3333333 822.80987 147.98693)"/><path clip-path="url(#o)" d="m0 0c-2.2 3.811-8.716 1.896-14.258-1.304-13.856-8-19.785-13.732-37.703-28.696 21.958 7.967 30.02 10.404 43.703 18.304 5.716 3.3 10.258 8.232 8.258 11.696" transform="matrix(1.3333333 0 0 -1.3333333 835.55853 168)"/><path clip-path="url(#p)" d="m0 0c-1.859 3.987-8.518 2.648-14.317-.057-14.501-6.761-20.907-11.955-40.061-25.3 22.569 6.022 30.813 7.748 45.132 14.425 5.981 2.789 10.936 7.307 9.246 10.932" transform="matrix(1.3333333 0 0 -1.3333333 846.5156 189.04747)"/><path clip-path="url(#q)" d="m0 0c-1.505 4.135-8.254 3.381-14.269 1.192-15.034-5.472-21.868-10.088-42.113-21.713 23.009 4.032 31.371 5.033 46.218 10.437 6.202 2.257 11.532 6.325 10.164 10.084" transform="matrix(1.3333333 0 0 -1.3333333 855.5964 210.97067)"/><path clip-path="url(#r)" d="m0 0c-1.139 4.25-7.928 4.087-14.11 2.431-15.454-4.141-22.664-8.144-43.845-17.96 23.271 2.011 31.689 2.279 46.951 6.368 6.375 1.709 12.039 5.297 11.004 9.161" transform="matrix(1.3333333 0 0 -1.3333333 862.73173 233.60093)"/><path clip-path="url(#s)" d="m0 0c-.764-4.333 5.458-7.055 11.761-8.167 15.757-2.778 23.982-2.197 47.327-2.252-21.942 8.012-29.684 11.327-45.243 14.07-6.5 1.146-13.15.288-13.845-3.651" transform="matrix(1.3333333 0 0 -1.3333333 332.13213 256.7676)"/><path clip-path="url(#t)" d="m0 0c-1.139-4.25 4.822-7.504 11.004-9.161 15.455-4.141 23.7-4.279 46.952-6.368-21.161 9.893-28.584 13.87-43.846 17.96-6.375 1.708-13.075 1.432-14.11-2.431" transform="matrix(1.3333333 0 0 -1.3333333 337.26827 233.60093)"/><path clip-path="url(#u)" d="m0 0c-1.505-4.134 4.15-7.896 10.164-10.084 15.035-5.473 23.236-6.33 46.217-10.437-20.217 11.7-27.266 16.309-42.113 21.713-6.202 2.257-12.9 2.567-14.268-1.192" transform="matrix(1.3333333 0 0 -1.3333333 344.4036 210.97067)"/><path clip-path="url(#v)" d="m0 0c-1.859-3.988 3.446-8.228 9.246-10.932 14.501-6.762 22.597-8.33 45.132-14.425-19.12 13.418-25.741 18.623-40.06 25.3-5.982 2.79-12.628 3.682-14.318.057" transform="matrix(1.3333333 0 0 -1.3333333 353.4844 189.04747)"/><path clip-path="url(#w)" d="m0 0c-2.2-3.811 2.715-8.496 8.258-11.696 13.857-8 21.784-10.268 43.703-18.304-17.878 15.033-24.02 20.796-37.703 28.696-5.716 3.3-12.258 4.768-14.258 1.304" transform="matrix(1.3333333 0 0 -1.3333333 364.44147 168)"/><path clip-path="url(#x)" d="m0 0c-2.524-3.604 1.965-8.701 7.208-12.372 13.106-9.177 20.806-12.127 41.941-22.043-16.5 16.535-22.116 22.811-35.059 31.873-5.406 3.786-11.796 5.818-14.09 2.542" transform="matrix(1.3333333 0 0 -1.3333333 377.1908 147.98693)"/><path clip-path="url(#y)" d="m0 0c-2.829-3.371 1.199-8.839 6.102-12.953 12.256-10.284 19.67-13.895 39.86-25.614-14.996 17.909-20.044 24.651-32.147 34.807-5.056 4.242-11.244 6.824-13.815 3.76" transform="matrix(1.3333333 0 0 -1.3333333 391.63613 129.16147)"/><path clip-path="url(#z)" d="m0 0c-3.111-3.111.424-8.91 4.95-13.435 11.314-11.314 18.385-15.557 37.477-28.992-13.379 19.149-17.82 26.305-28.992 37.477-4.666 4.667-10.606 7.778-13.435 4.95" transform="matrix(1.3333333 0 0 -1.3333333 407.66667 111.66667)"/><path clip-path="url(#A)" d="m0 0c-3.37-2.828-.354-8.913 3.76-13.815 10.285-12.257 16.959-17.1 34.807-32.147-11.658 20.241-15.458 27.757-25.614 39.86-4.243 5.056-9.889 8.673-12.953 6.102" transform="matrix(1.3333333 0 0 -1.3333333 425.16147 95.636133)"/><path clip-path="url(#B)" d="m0 0c-3.604-2.523-1.129-8.848 2.542-14.09 9.177-13.107 15.404-18.513 31.873-35.059-9.851 21.181-12.981 28.999-22.043 41.941-3.786 5.407-9.095 9.502-12.372 7.208" transform="matrix(1.3333333 0 0 -1.3333333 443.98693 81.1908)"/><path clip-path="url(#C)" d="m0 0c-3.811-2.2-1.896-8.715 1.304-14.258 8-13.856 13.732-19.784 28.696-37.703-7.967 21.958-10.404 30.02-18.304 43.703-3.3 5.716-8.232 10.258-11.696 8.258" transform="matrix(1.3333333 0 0 -1.3333333 464 68.441467)"/><path clip-path="url(#D)" d="m0 0c-3.987-1.859-2.648-8.517.057-14.318 6.761-14.5 11.955-20.906 25.3-40.06-6.022 22.569-7.748 30.812-14.425 45.132-2.789 5.981-7.307 10.936-10.932 9.246" transform="matrix(1.3333333 0 0 -1.3333333 485.04747 57.4844)"/><path clip-path="url(#E)" d="m0 0c-4.135-1.505-3.381-8.254-1.192-14.268 5.472-15.035 10.088-21.869 21.713-42.113-4.032 23.008-5.033 31.37-10.437 46.217-2.257 6.202-6.325 11.532-10.084 10.164" transform="matrix(1.3333333 0 0 -1.3333333 506.97067 48.4036)"/><path clip-path="url(#F)" d="m0 0c-4.25-1.139-4.087-7.928-2.431-14.11 4.141-15.455 8.144-22.664 17.96-43.846-2.011 23.273-2.279 31.69-6.368 46.952-1.709 6.375-5.297 12.039-9.161 11.004" transform="matrix(1.3333333 0 0 -1.3333333 529.60093 41.268267)"/><path clip-path="url(#G)" d="m0 0c-4.333-.764-4.763-7.542-3.651-13.845 2.778-15.757 6.137-23.288 14.07-45.243.024 23.359.491 31.767-2.252 47.327-1.146 6.5-4.228 12.455-8.167 11.761" transform="matrix(1.3333333 0 0 -1.3333333 552.7676 36.132133)"/><path clip-path="url(#H)" d="m0 0c-4.383-.383-5.402-7.098-4.844-13.473 1.394-15.94 4.084-23.735 10.073-46.298 2.06 23.268 3.258 31.604 1.881 47.343-.575 6.575-3.125 12.777-7.11 12.428" transform="matrix(1.3333333 0 0 -1.3333333 576.2936 33.0352)"/></g><g transform="matrix(1.3333333 0 0 -1.3333333 0 800)"><path clip-path="url(#I)" d="m0 415h900v-15h-900z"/><path clip-path="url(#J)" d="m0 200h900v-200h-900z" fill="#339e35"/></g></svg>