<svg height="800" viewBox="0 0 1200 800" width="1200" xmlns="http://www.w3.org/2000/svg" xmlns:xlink="http://www.w3.org/1999/xlink"><clipPath id="a"><path d="m0 600h900v-600h-900z" transform="translate(-180 -490.00001)"/></clipPath><clipPath id="b"><path d="m0 600h900v-600h-900z" transform="translate(-180 -487.50001)"/></clipPath><path d="m0 0v-600l900 600z" fill="#003580" transform="matrix(1.3333333 0 0 -1.3333333 0 -.0004)"/><path d="m0 0-900-600h900z" fill="#009543" transform="matrix(1.3333333 0 0 -1.3333333 1200 -.0004)"/><path d="m0 0-720-480.001v-119.999h180l720 479.999v120.001z" fill="#fff" transform="matrix(1.3333333 0 0 -1.3333333 960 -.0004)"/><path d="m0 0-765-510v-90h135l765 510v90z" fill="#d21034" transform="matrix(1.3333333 0 0 -1.3333333 1020 -.0004)"/><path d="m0 0 15.529-42.044 34.471 28.647-7.574-44.177 44.177 7.574-28.647-34.471 42.044-15.529-42.044-15.529 28.647-34.471-44.177 7.574 7.574-44.177-34.471 28.647-15.529-42.044-15.529 42.044-34.471-28.647 7.574 44.177-44.177-7.574 28.647 34.471-42.044 15.529 42.044 15.529-28.647 34.471 44.177-7.574-7.574 44.177 34.471-28.647z" fill="#ffce00" transform="matrix(1.3333333 0 0 -1.3333333 240 86.666667)"/><path clip-path="url(#a)" d="m0 0c30.375 0 55-24.625 55-55s-24.625-55-55-55-55 24.625-55 55 24.625 55 55 55" fill="#ffce00" transform="matrix(1.3333333 0 0 -1.3333333 240 146.66667)"/><path clip-path="url(#b)" d="m0 0c-28.949 0-52.5-23.551-52.5-52.5s23.551-52.5 52.5-52.5 52.5 23.551 52.5 52.5-23.551 52.5-52.5 52.5m0-110c-31.706 0-57.5 25.794-57.5 57.5s25.794 57.5 57.5 57.5 57.5-25.794 57.5-57.5-25.794-57.5-57.5-57.5" fill="#003580" transform="matrix(1.3333333 0 0 -1.3333333 240 150)"/></svg>