<?xml version="1.0" encoding="UTF-8" standalone="no"?>
<!-- Created with Inkscape (http://www.inkscape.org/) -->

<svg
   version="1.1"
   id="svg1"
   width="1200"
   height="800"
   viewBox="0 0 1200 800"
   sodipodi:docname="na.ai"
   xmlns:inkscape="http://www.inkscape.org/namespaces/inkscape"
   xmlns:sodipodi="http://sodipodi.sourceforge.net/DTD/sodipodi-0.dtd"
   xmlns="http://www.w3.org/2000/svg"
   xmlns:svg="http://www.w3.org/2000/svg">
  <defs
     id="defs1">
    <clipPath
       clipPathUnits="userSpaceOnUse"
       id="clipPath7">
      <path
         d="M 0,600 H 900 V 0 H 0 Z"
         transform="translate(-180,-490.00001)"
         id="path7" />
    </clipPath>
    <clipPath
       clipPathUnits="userSpaceOnUse"
       id="clipPath9">
      <path
         d="M 0,600 H 900 V 0 H 0 Z"
         transform="translate(-180,-487.50001)"
         id="path9" />
    </clipPath>
  </defs>
  <sodipodi:namedview
     id="namedview1"
     pagecolor="#ffffff"
     bordercolor="#000000"
     borderopacity="0.25"
     inkscape:showpageshadow="2"
     inkscape:pageopacity="0.0"
     inkscape:pagecheckerboard="0"
     inkscape:deskcolor="#d1d1d1">
    <inkscape:page
       x="0"
       y="0"
       inkscape:label="1"
       id="page1"
       width="1200"
       height="800"
       margin="0"
       bleed="0" />
  </sodipodi:namedview>
  <g
     id="layer-MC0"
     inkscape:groupmode="layer"
     inkscape:label="Layer 1">
    <path
       id="path1"
       d="M 0,0 V -600 L 900,0 Z"
       style="fill:#003580;fill-opacity:1;fill-rule:nonzero;stroke:none"
       transform="matrix(1.3333333,0,0,-1.3333333,0,-4e-4)" />
    <path
       id="path2"
       d="M 0,0 -900,-600 H 0 Z"
       style="fill:#009543;fill-opacity:1;fill-rule:nonzero;stroke:none"
       transform="matrix(1.3333333,0,0,-1.3333333,1200,-4e-4)" />
    <path
       id="path3"
       d="M 0,0 -720,-480.001 V -600 h 180 l 720,479.999 V 0 Z"
       style="fill:#ffffff;fill-opacity:1;fill-rule:nonzero;stroke:none"
       transform="matrix(1.3333333,0,0,-1.3333333,960,-4e-4)" />
    <path
       id="path4"
       d="m 0,0 -765,-510 v -90 h 135 L 135,-90 V 0 Z"
       style="fill:#d21034;fill-opacity:1;fill-rule:nonzero;stroke:none"
       transform="matrix(1.3333333,0,0,-1.3333333,1020,-4e-4)" />
    <path
       id="path5"
       d="M 0,0 15.529,-42.044 50,-13.397 42.426,-57.574 86.603,-50 57.956,-84.471 100,-100 57.956,-115.529 86.603,-150 42.426,-142.426 50,-186.603 15.529,-157.956 0,-200 -15.529,-157.956 -50,-186.603 l 7.574,44.177 -44.177,-7.574 28.647,34.471 L -100,-100 -57.956,-84.471 -86.603,-50 -42.426,-57.574 -50,-13.397 -15.529,-42.044 Z"
       style="fill:#ffce00;fill-opacity:1;fill-rule:nonzero;stroke:none"
       transform="matrix(1.3333333,0,0,-1.3333333,240,86.666667)" />
    <path
       id="path6"
       d="m 0,0 c 30.375,0 55,-24.625 55,-55 0,-30.375 -24.625,-55 -55,-55 -30.375,0 -55,24.625 -55,55 0,30.375 24.625,55 55,55"
       style="fill:#ffce00;fill-opacity:1;fill-rule:nonzero;stroke:none"
       transform="matrix(1.3333333,0,0,-1.3333333,240,146.66667)"
       clip-path="url(#clipPath7)" />
    <path
       id="path8"
       d="m 0,0 c -28.949,0 -52.5,-23.551 -52.5,-52.5 0,-28.949 23.551,-52.5 52.5,-52.5 28.949,0 52.5,23.551 52.5,52.5 C 52.5,-23.551 28.949,0 0,0 m 0,-110 c -31.706,0 -57.5,25.794 -57.5,57.5 C -57.5,-20.794 -31.706,5 0,5 31.706,5 57.5,-20.794 57.5,-52.5 57.5,-84.206 31.706,-110 0,-110"
       style="fill:#003580;fill-opacity:1;fill-rule:nonzero;stroke:none"
       transform="matrix(1.3333333,0,0,-1.3333333,240,150)"
       clip-path="url(#clipPath9)" />
  </g>
</svg>
