<?xml version="1.0" encoding="UTF-8" standalone="no"?>
<!-- Created with Inkscape (http://www.inkscape.org/) -->

<svg
   version="1.1"
   id="svg1"
   width="1226.6667"
   height="817.77734"
   viewBox="0 0 1226.6667 817.77734"
   sodipodi:docname="nf.ai"
   xmlns:inkscape="http://www.inkscape.org/namespaces/inkscape"
   xmlns:sodipodi="http://sodipodi.sourceforge.net/DTD/sodipodi-0.dtd"
   xmlns="http://www.w3.org/2000/svg"
   xmlns:svg="http://www.w3.org/2000/svg">
  <defs
     id="defs1">
    <clipPath
       clipPathUnits="userSpaceOnUse"
       id="clipPath4">
      <path
         d="M 0,613.333 H 920 V 0 H 0 Z"
         transform="translate(-476.29301,-200.71661)"
         id="path4" />
    </clipPath>
  </defs>
  <sodipodi:namedview
     id="namedview1"
     pagecolor="#ffffff"
     bordercolor="#000000"
     borderopacity="0.25"
     inkscape:showpageshadow="2"
     inkscape:pageopacity="0.0"
     inkscape:pagecheckerboard="0"
     inkscape:deskcolor="#d1d1d1">
    <inkscape:page
       x="0"
       y="0"
       inkscape:label="1"
       id="page1"
       width="1226.6667"
       height="817.77734"
       margin="0"
       bleed="0" />
  </sodipodi:namedview>
  <g
     id="layer-MC0"
     inkscape:groupmode="layer"
     inkscape:label="Layer 1">
    <path
       id="path1"
       d="M 0,0 H 920 V 613.333 H 0 Z"
       style="fill:#007934;fill-opacity:1;fill-rule:nonzero;stroke:none"
       transform="matrix(1.3333333,0,0,-1.3333333,0,817.77733)" />
    <path
       id="path2"
       d="M 280,0 H 640 V 613.333 H 280 Z"
       style="fill:#ffffff;fill-opacity:1;fill-rule:nonzero;stroke:none"
       transform="matrix(1.3333333,0,0,-1.3333333,0,817.77733)" />
    <path
       id="path3"
       d="m 0,0 c 4.308,0.027 9.513,-0.979 10.267,-2.429 0.142,-0.297 0.1,-0.624 -0.175,-0.955 C 7.96,-5.949 -4.16,-3.615 -4.16,-3.615 v 3.124 c 1.079,0.313 2.564,0.481 4.159,0.491 z m -73.559,0.579 c 3.863,0.231 8.178,-2.136 8.668,-2.372 0.006,-0.002 0.026,10e-4 0.029,0 0,-0.133 -0.145,-4.28 -0.145,-4.28 0,0 -7.647,2.12 -10.064,6.391 0.485,0.132 1.002,0.23 1.512,0.261 m 43.541,2.197 c 4.224,0.197 8.813,-1.474 8.813,-1.474 0.109,-0.215 2.27,-4.452 0.35,-5.871 -0.072,-0.051 -0.15,-0.102 -0.233,-0.145 -2.357,-1.227 -13.62,0.959 -14.281,5.466 1.326,1.392 3.289,1.929 5.351,2.024 M 9.016,14.315 c 1.857,0.1 2.644,-0.47 1.192,-2.515 C 6.169,6.109 -4.276,8.444 -4.276,8.444 l -0.437,3.53 c 3.684,-0.144 10.418,2.165 13.728,2.341 z m -51.918,2.199 c 2.418,0.121 4.532,-1.456 6.748,-2.719 4.936,1.005 15.066,-0.78 15.066,-0.78 V 8.561 c 0,-0.004 -0.023,-0.026 -0.03,-0.03 -0.004,-0.002 -0.023,0.002 -0.028,0 -0.923,-0.159 -12.793,0.357 -15.445,2.025 -2.162,0 -8.284,3.213 -8.754,4.859 -0.005,0.014 -0.027,0.044 -0.03,0.058 -0.003,0.02 0.002,0.066 0,0.087 0,0.013 0,0.044 0,0.057 10e-4,0.012 -10e-4,0.046 0,0.058 10e-4,0.006 0,0.023 0,0.029 0.002,0.012 0.025,0.046 0.03,0.058 0.002,0.006 -0.003,0.023 0,0.029 0.845,0.448 1.67,0.685 2.443,0.723 M 3.401,25.335 C 4.25,25.369 4.955,25.284 5.351,25.046 5.398,25.015 5.458,24.966 5.496,24.93 5.508,24.918 5.543,24.885 5.554,24.872 5.57,24.852 5.6,24.807 5.612,24.785 5.624,24.763 5.632,24.722 5.642,24.698 5.713,24.482 5.686,24.184 5.496,23.831 3.7,20.483 -4.16,21.72 -4.16,21.72 v 2.342 c 0.002,0 0.027,0 0.028,0 0.444,-0.038 4.776,1.16 7.533,1.273 m 24.52,12.378 c 0.454,0.017 0.869,-0.075 1.163,-0.261 0.12,-0.08 0.238,-0.194 0.32,-0.318 0.111,-0.177 0.184,-0.418 0.203,-0.694 -1.195,-1.836 -7.378,-1.035 -7.765,-0.983 0.311,0.11 3.882,2.173 6.079,2.256 m -65.588,0.752 c 0.058,10e-4 0.112,0 0.174,0 11.445,-1.228 15.72,-5.487 16.928,-7.201 -2.282,-3.983 -20.37,4.948 -18.469,6.853 0.218,0.194 0.665,0.333 1.367,0.348 z m 67.739,15.269 c 2.237,0.022 3.944,-0.306 4.916,-1.011 h 0.03 c 0,-0.002 -10e-4,-0.027 0,-0.03 v -0.029 c -10e-4,-0.01 10e-4,-0.046 0,-0.058 -0.096,-0.691 -1.517,-3.945 -6.516,-5.35 -6.234,0.554 -32.692,-7.224 -33.216,-7.346 -0.002,0.002 -0.027,-0.002 -0.029,0 -0.002,0.01 0.001,0.044 0,0.058 -0.014,0.498 0.349,3.181 0.349,3.181 9.121,5.424 25.695,10.503 34.466,10.585 m -10.644,3.962 c 0.6,0.015 0.967,-0.083 1.017,-0.259 0.002,-0.014 0.002,-0.043 0,-0.058 -0.03,-0.148 -0.207,-0.371 -0.581,-0.637 -5.05,-3.569 -24.025,-7.229 -24.025,-7.229 0,0 0.235,2.494 0.348,3.093 0.529,0.008 18.7,4.98 23.24,5.091 z M 6.775,62.874 c 1.934,0.071 3.446,-0.043 3.898,-0.492 0.028,-0.029 0.069,-0.083 0.088,-0.115 0.01,-0.021 0.022,-0.066 0.028,-0.087 0.007,-0.023 -0.002,-0.065 0,-0.087 10e-4,-0.039 0.011,-0.103 0,-0.146 -0.021,-0.085 -0.08,-0.189 -0.145,-0.289 C 8.043,59.12 -4.597,58.737 -4.597,58.737 v 3.153 c 2.373,0.08 7.657,0.845 11.372,0.983 z m 19.662,17.988 c 1.937,0.074 2.772,-0.25 3.026,-0.694 0.019,-0.039 0.046,-0.103 0.058,-0.145 0.018,-0.075 0.035,-0.179 0.029,-0.259 C 29.487,79.19 28.863,78.503 28.387,78.057 26.479,76.271 -3.928,66.691 -3.928,66.691 c 0,0 -0.228,6.355 -0.116,6.913 17.777,5.356 26.472,7.107 30.482,7.258 z m -15.56,4.686 c 1.524,0.036 2.619,-0.138 2.85,-0.578 0.13,-0.3 -0.121,-0.741 -0.843,-1.331 -5.611,-4.575 -17.83,-5.466 -17.83,-5.466 v 5.032 h 0.029 c 0.694,0.082 10.73,2.222 15.794,2.343 m -15.853,8.907 c 0.471,-0.1 7.02,-0.315 8.232,-1.33 0.006,-0.004 0.023,-0.024 0.029,-0.029 0.004,-0.004 0.025,-0.024 0.029,-0.029 0.004,-0.004 0.025,-0.024 0.03,-0.029 0.011,-0.017 0.019,-0.043 0.029,-0.058 0.002,-0.006 0.026,-0.024 0.028,-0.029 0.011,-0.021 0.025,-0.065 0.03,-0.087 10e-4,-0.006 -10e-4,-0.023 0,-0.029 10e-4,-0.006 0,-0.023 0,-0.028 0,-0.013 10e-4,-0.047 0,-0.059 -10e-4,-0.006 10e-4,-0.022 0,-0.028 -0.002,-0.013 -0.025,-0.046 -0.03,-0.058 -0.002,-0.007 0.002,-0.023 0,-0.029 C 3.396,92.621 3.38,92.587 3.373,92.575 2.362,91.013 -4.48,90.435 -4.48,90.435 c 0,0 -0.336,3.061 -0.495,4.02 z m -51.451,9.92 c 3.834,0.241 13.337,-1.33 36.793,-9.804 l 0.785,-4.569 c 0,0 -39.055,12.535 -40.167,12.928 0.002,0 -0.001,0.025 0,0.029 10e-4,0.023 -0.006,0.082 0,0.145 0.014,0.114 0.072,0.294 0.203,0.462 0.276,0.335 0.905,0.717 2.386,0.81 z m 67.071,0.955 c 1.319,0.043 2.254,-0.032 2.472,-0.261 l 0.029,-0.028 c 0.006,-0.011 -0.002,-0.048 0,-0.059 0.001,-0.005 0.029,-0.023 0.029,-0.028 0,-0.007 -0.028,-0.023 -0.029,-0.029 -0.002,-0.013 0.006,-0.046 0,-0.058 -0.004,-0.007 -0.025,-0.022 -0.029,-0.029 -0.016,-0.026 -0.035,-0.06 -0.058,-0.087 -0.018,-0.021 -0.064,-0.065 -0.087,-0.087 -2.024,-1.736 -17.917,-5.061 -17.917,-5.061 0,0 -0.437,3.793 -0.437,3.904 0.441,-0.01 11.067,1.659 16.026,1.822 z m 1.512,11.943 c 1.364,0.06 2.361,0 2.676,-0.173 0.038,-0.024 0.073,-0.058 0.088,-0.087 0.002,-0.004 -10e-4,-0.023 0,-0.029 v -0.028 c -0.003,-0.013 0.006,-0.047 0,-0.059 -0.005,-0.005 -0.025,-0.022 -0.029,-0.028 -0.021,-0.026 -0.056,-0.059 -0.088,-0.087 -2.02,-1.785 -20.767,-5.466 -20.767,-5.466 0,0 -0.088,3.454 -0.088,3.788 0.532,0.114 12.635,1.925 18.208,2.169 m -58.52,2.372 c 6.551,0.336 26.397,-8.712 27.37,-8.994 0.002,-10e-4 0.027,0 0.029,0 -0.101,-0.404 -0.118,-3.672 -0.203,-4.194 -0.002,-0.014 0.002,-0.05 0,-0.058 -0.001,-0.002 -0.029,0.001 -0.029,0 -0.535,0.286 -27.737,11.51 -28.94,10.615 -0.751,1.768 0.027,2.542 1.774,2.631 z m 64.686,9.688 c 1.106,0.047 1.831,-0.048 2.007,-0.289 0.016,-0.027 0.027,-0.083 0.029,-0.115 -0.004,-0.116 -0.1,-0.263 -0.291,-0.434 -3.451,-3.099 -25.453,-6.854 -26.235,-6.912 h -0.029 c -0.002,0 -0.026,-0.002 -0.029,0 -0.002,0.002 -0.026,0.026 -0.029,0.029 -0.008,0.01 -0.023,0.044 -0.029,0.057 -0.002,0.007 0.002,0.024 0,0.03 -0.004,0.011 -0.027,0.044 -0.029,0.057 -0.14,0.719 0.315,3.234 0.348,3.587 10e-4,0.006 0,0.025 0,0.029 10e-4,-0.001 0.028,0.001 0.029,0 0.004,-0.001 0.025,-0.029 0.03,-0.029 0.006,-0.001 0.022,0 0.029,0 1.408,0.023 18.27,3.744 24.199,3.99 m -72.452,16.631 c 4.322,0.227 14.08,-2.052 35.95,-12.349 0,-0.107 0.195,-3.658 0.117,-3.991 -0.002,0 -0.027,-0.001 -0.03,0 -1.297,0.415 -39.353,13.708 -39.353,13.708 -0.04,0.145 -0.613,2.424 3.316,2.631 z m 63.465,0.52 c 0.881,0.045 1.501,-0.044 1.716,-0.26 0.007,-0.006 0.024,-0.023 0.029,-0.029 0.012,-0.02 0.023,-0.066 0.029,-0.087 0.004,-0.022 0.03,-0.063 0.03,-0.087 -0.012,-0.122 -0.105,-0.286 -0.262,-0.462 -2.693,-3.014 -17.161,-6.016 -17.161,-6.016 v 3.904 h 0.029 c 0.659,0.023 11.279,2.819 15.59,3.037 m -56.717,6.334 c 3.297,0.174 10.974,-1.626 28.068,-8.821 l 0.117,-4.251 c 0,0 -28.949,8.73 -29.958,10.18 -0.497,0.713 -1.422,2.722 1.774,2.892 z m 55.495,18.394 c 3.928,0.076 6.701,-0.258 5.672,-1.446 -2.806,-3.236 -22.192,-5.9 -22.192,-5.9 l -0.349,5.9 c 0.416,0.061 10.267,1.317 16.87,1.446 z m -40.487,10.122 c 4.114,0.146 13.969,-2.211 14.514,-2.083 0,-0.781 0.436,-4.475 -0.058,-5.234 -0.004,-0.006 -0.024,-0.023 -0.029,-0.029 -0.004,-0.006 -0.024,-0.024 -0.03,-0.029 -0.005,-0.004 -0.023,-0.025 -0.029,-0.029 -0.01,-0.006 -0.046,-0.024 -0.058,-0.029 -0.006,-0.002 -0.022,10e-4 -0.029,0 -0.012,-0.001 -0.045,-0.001 -0.058,0 -0.006,10e-4 -0.022,-0.002 -0.03,0 -0.837,0.208 -15.382,4.802 -15.939,6.681 -0.007,0.031 0,0.086 0,0.116 0.007,0.065 0.038,0.145 0.088,0.202 0.006,0.006 0.022,0.023 0.029,0.029 0.006,0.006 0.022,0.023 0.029,0.029 0.28,0.22 0.856,0.35 1.6,0.376 m -13.379,10.903 c 3.841,0.198 11.462,-0.701 25.77,-4.628 0,-0.302 0.29,-3.991 0.174,-4.598 -10e-4,-0.004 -0.027,-0.025 -0.029,-0.029 0,-0.004 0.001,-0.026 0,-0.029 -0.002,-0.002 -0.025,-0.028 -0.029,-0.029 -0.224,0.112 -26.031,7.486 -28.388,7.375 -0.064,-0.002 -0.142,-0.006 -0.203,0 -0.052,0.006 -0.126,0.018 -0.175,0.029 -0.064,0.016 -0.147,0.061 -0.203,0.087 -0.021,0.01 -0.068,0.018 -0.088,0.029 -0.006,0.004 -0.023,0.025 -0.029,0.029 -0.078,0.052 -0.156,0.133 -0.204,0.202 -0.004,0.006 -0.026,0.024 -0.029,0.029 -0.006,0.012 -0.023,0.046 -0.029,0.058 -0.002,0.006 0.002,0.023 0,0.029 -0.004,0.012 -0.026,0.046 -0.029,0.058 -10e-4,0.006 10e-4,0.023 0,0.028 -10e-4,0.013 0,0.046 0,0.059 0,0.012 -10e-4,0.044 0,0.058 0.004,0.031 0.018,0.082 0.029,0.115 0.032,0.079 0.097,0.181 0.174,0.261 0.395,0.383 1.383,0.769 3.287,0.867 z m 35.863,9.659 c 0.004,-10e-4 0.025,0.002 0.029,0 0.005,-10e-4 0.023,0.002 0.029,0 0.699,-0.183 5.57,-0.34 6.167,-1.156 0.006,-0.008 0.024,-0.021 0.028,-0.029 0.003,-0.004 -0.002,-0.025 0,-0.029 0.005,-0.008 0.028,-0.021 0.03,-0.029 0.001,-0.004 0,-0.025 0,-0.029 0.001,-0.004 0,-0.025 0,-0.029 0,-0.004 0.001,-0.025 0,-0.029 0,-0.004 0.001,-0.024 0,-0.028 0,-0.005 0.001,-0.025 0,-0.03 -0.002,-0.004 -0.028,-0.024 -0.03,-0.029 -0.002,-0.003 0.003,-0.024 0,-0.028 -0.008,-0.014 -0.019,-0.044 -0.028,-0.058 -0.005,-0.004 -0.026,-0.024 -0.029,-0.029 -0.004,-0.004 0.004,-0.024 0,-0.029 -1.01,-1.227 -5.506,-1.562 -5.731,-1.562 -0.002,0 -0.027,-0.001 -0.029,0 -0.002,0.001 0.002,0.028 0,0.029 -0.004,0.006 -0.025,0.023 -0.028,0.029 -0.206,0.415 -0.408,3.065 -0.408,3.065 m 0.669,7.26 c 0.207,0 11.97,-0.101 13.001,-1.62 0.008,-0.012 0.023,-0.045 0.03,-0.058 0.007,-0.02 0.024,-0.066 0.029,-0.087 0.002,-0.014 -10e-4,-0.044 0,-0.058 0,-0.021 0.004,-0.065 0,-0.086 -0.006,-0.022 -0.021,-0.065 -0.029,-0.087 -0.899,-1.897 -12.798,-3.037 -12.798,-3.037 l -0.234,5.032 z m -8.522,4.887 v -3.673 c 0,0 -6.009,0.306 -7.126,1.244 -0.006,0.004 -0.025,0.024 -0.029,0.029 -0.004,0.003 -0.025,0.024 -0.029,0.028 -0.004,0.005 -0.025,0.025 -0.03,0.03 -0.003,0.004 -0.025,0.024 -0.029,0.028 -0.01,0.014 -0.021,0.043 -0.029,0.058 -0.002,0.005 0.002,0.025 0,0.029 -0.002,0.004 -0.027,0.024 -0.029,0.029 -0.001,0.004 0.001,0.024 0,0.029 -0.001,0.01 0,0.047 0,0.058 0,0.006 0,0.024 0,0.029 0.001,0.006 -0.001,0.023 0,0.029 0.006,0.021 0.018,0.065 0.029,0.087 0.002,0.006 0.026,0.023 0.029,0.028 0.014,0.023 0.039,0.064 0.058,0.087 0.007,0.006 0.024,0.023 0.03,0.029 0.012,0.012 0.045,0.046 0.058,0.058 0.04,0.035 0.092,0.079 0.145,0.116 2.016,1.403 6.042,1.37 6.835,1.59 0.006,0.002 0.023,-0.002 0.029,0 0.007,0.002 0.024,0.027 0.03,0.029 0.004,0.002 0.025,-0.002 0.029,0 0.004,0.002 0.026,0.027 0.029,0.029 m 4.77,91.332 c -0.804,-8.704 -1.61,-17.412 -2.414,-26.116 -2.947,-0.444 -5.894,-0.886 -8.842,-1.33 0,0 6.141,-3.449 7.213,-6.912 0.172,-0.555 0.103,-1.014 -0.145,-1.36 -0.082,-0.108 -0.207,-0.227 -0.32,-0.318 -1.779,-1.367 -7.039,-0.723 -7.039,-0.723 0,0 6.968,-5.879 7.504,-8.011 0.012,-0.05 0.028,-0.096 0.029,-0.145 -0.001,-0.04 0.008,-0.106 0,-0.144 -0.008,-0.031 -0.046,-0.086 -0.058,-0.116 -0.048,-0.104 -0.134,-0.222 -0.233,-0.318 -1.638,-1.513 -9.366,-1.938 -9.366,-1.938 0,0 8.568,-6.109 9.104,-9.572 0.486,-3.14 0.079,-4.978 0,-5.293 -0.598,0.511 -14.415,12.122 -23.327,8.734 -0.444,-0.23 -0.706,-0.45 -0.814,-0.665 -0.048,-0.107 -0.057,-0.241 -0.029,-0.347 0.625,-1.931 13.227,-3.91 22.018,-11.511 -0.218,-1.902 -25.055,6.05 -25.973,1.07 0.777,-1.404 26.729,-5.145 28.649,-8.532 -9.558,-0.355 -29.303,2.104 -28.649,-1.041 -1.997,-3.631 18.649,-1.58 27.311,-4.54 2.54,-2.87 2.294,-5.28 -2.123,-5.582 -8.349,3.969 -27.034,6.918 -27.079,1.851 0,-0.006 -0.001,-0.024 0,-0.029 0.002,-0.006 0.027,-0.024 0.029,-0.029 0.008,-0.016 0.016,-0.043 0.029,-0.058 0.03,-0.028 0.096,-0.06 0.145,-0.087 2.11,-1.052 19.51,-0.539 26.061,-4.858 -9.288,-2.101 -40.782,4.261 -40.981,1.156 0.897,-1.45 5.88,-7.815 14.455,-7.548 8.575,0.267 28.414,-3.467 29.756,-6.131 0.041,-0.083 0.041,-0.169 0.028,-0.232 -0.58,-1.858 -26.126,5.669 -35.95,1.042 -10.182,-4.797 29.198,-1.889 35.63,-7.751 6.432,-5.862 -12.855,0.549 -12.855,0.549 0,0 -26.784,3.716 -30.803,1.851 -4.02,-1.866 -8.58,-6.131 -8.58,-6.131 0,0 2.672,-5.317 5.352,-4.251 0.408,0.162 0.687,0.195 0.844,0.144 0.003,-0.002 0.025,0.002 0.029,0 0.004,-0.002 0.025,-0.027 0.029,-0.029 0.006,-0.004 0.024,-0.024 0.029,-0.029 0.004,-0.006 0.024,-0.023 0.029,-0.029 0.002,-0.002 0.028,-0.025 0.029,-0.028 0.012,-0.027 0.025,-0.083 0.029,-0.116 0.063,-0.799 -1.832,-3.124 -1.832,-3.124 0,0 37.532,-9.041 45.839,-17.034 8.307,-7.994 -47.7,12.523 -47.7,12.523 0,0 -22.51,-8.259 1.338,-8.792 -2.658,-3.867 1.1,-6.246 1.338,-6.391 0,0 39.668,-8.268 43.687,-14.663 4.019,-6.395 -27.063,6.139 -34.031,9.601 -6.721,3.343 -25.432,-1.767 -26.497,-3.325 -0.007,-0.012 -0.024,-0.046 -0.028,-0.058 -0.002,-0.006 0.002,-0.023 0,-0.029 -0.002,-0.012 -10e-4,-0.047 0,-0.058 0.001,-0.006 -10e-4,-0.024 0,-0.029 0.002,-0.006 -0.002,-0.024 0,-0.029 0.002,-0.006 0.026,-0.024 0.028,-0.029 0.002,-0.006 -0.002,-0.024 0,-0.029 0.013,-0.021 0.042,-0.065 0.059,-0.086 0.004,-0.007 0.024,-0.024 0.029,-0.029 1.199,-1.314 9.55,-3.122 9.802,-5.38 0.001,-0.01 -0.001,-0.02 0,-0.028 0.003,-0.121 -0.034,-0.264 -0.088,-0.376 -1.052,-2.029 -11.016,-2.891 -11.431,-4.802 -0.006,-0.032 -0.029,-0.082 -0.029,-0.115 0,-2.133 50.125,-12.524 63.523,-23.715 13.399,-11.191 -39.382,13.333 -39.382,13.333 0,0 2.948,-3.995 0,-5.062 -2.947,-1.065 -13.419,14.921 -30.569,5.062 -3.124,-4.057 14.974,-7.276 19.575,-7.722 -1.571,-4.016 -2.941,-5.346 3.49,-9.342 0.704,-0.437 1.099,-0.701 1.251,-0.839 0.004,-0.003 0.025,-0.024 0.03,-0.028 l 0.028,-0.029 c 0.002,-0.002 0,-0.027 0,-0.029 0,-0.002 0.001,-0.028 0,-0.029 -0.001,-10e-4 -0.025,0 -0.028,0 -0.005,0 -0.025,-10e-4 -0.03,0 -0.996,0.155 -12.55,6.059 -13.758,6.304 -0.012,0.002 -0.049,0 -0.058,0 -0.004,0 -0.026,0.001 -0.029,0 0,-0.533 1.338,-6.94 1.338,-6.94 -5.937,4.795 -13.114,6.241 -19.836,1.33 -0.01,-0.285 -0.059,-4.883 6.69,-7.722 -3.804,-7.729 4.298,-5.329 17.161,-12.524 -19.116,4.969 -20.647,-4.259 -6.981,-6.39 13.667,-2.132 51.19,-3.467 60.033,-14.924 1.866,-2.416 2.372,-3.632 2.007,-4.02 -1.475,-1.329 -15.044,8.43 -17.015,8.792 -0.004,-0.001 -0.025,0.004 -0.029,0 -0.004,-0.003 -0.025,-0.024 -0.029,-0.029 -0.025,-0.031 -0.063,-0.093 -0.088,-0.144 -0.481,-1.06 -0.931,-5.669 -0.931,-5.669 -5.716,3.291 -10.961,6.242 -17.799,7.635 -0.536,-1.065 -0.424,-2.579 -0.96,-3.644 -6.205,4.45 -11.611,7.578 -20.622,8.012 -0.358,-1.422 -0.719,-2.86 -1.077,-4.281 0,0 -7.512,9.326 -22.25,0 -8.23,-5.867 31.088,-2.124 37.52,-9.052 6.431,-6.927 1.337,-7.983 1.337,-7.983 -5.358,1.954 -10.695,3.889 -16.054,5.843 0,0 -19.044,3.481 -24.404,-0.781 -5.358,-4.264 78.244,-14.658 80.655,-26.116 1.626,-6.213 -19.642,6.506 -38.044,11.973 -0.712,-2.034 -1.441,-4.068 -2.153,-6.102 -0.436,0.429 -7.555,7.313 -15.532,8.503 -0.002,-0.004 -0.027,-0.023 -0.029,-0.03 -10e-4,-0.01 0,-0.045 0,-0.057 0.012,-0.875 1.629,-7.116 1.629,-7.116 0,0 -20.613,9.604 -31.063,4.541 -10.451,-5.062 36.433,-7.726 40.72,-12.523 0.469,-0.524 0.664,-0.906 0.64,-1.156 -0.008,-0.044 -0.038,-0.11 -0.058,-0.145 -1.036,-1.508 -15.018,4.062 -16.404,1.301 -1.609,-3.197 -24.381,5.853 -24.113,1.591 0.269,-4.264 3.229,-6.652 3.229,-6.652 0,0 47.43,-4.527 49.038,-10.122 1.607,-5.595 -26.264,3.182 -26.264,3.182 0,0 -2.696,-3.978 -0.553,-5.843 0.084,-0.072 0.151,-0.142 0.175,-0.173 0,-0.002 -10e-4,-0.027 0,-0.029 -0.002,0.001 -0.025,-10e-4 -0.029,0 -0.969,0.317 -16.071,10.153 -14.601,2.603 -5.91,2.339 -21.166,9.587 -19.022,3.991 2.111,-5.513 41.904,-13.362 43.075,-13.593 -1.052,-0.082 -17.881,-1.482 -17.101,-5.871 -22.555,13.663 -22.502,5.47 -21.99,4.83 0.001,-10e-4 0,-0.028 0,-0.029 -1.267,0.199 -29.016,7.073 -6.951,-4.801 11.833,-6.367 14.717,-8.85 14.776,-9.804 0,-0.021 0.002,-0.067 0,-0.087 -0.004,-0.025 -0.02,-0.064 -0.029,-0.087 -0.002,-0.005 -0.026,-0.023 -0.029,-0.029 -0.01,-0.016 -0.018,-0.043 -0.029,-0.057 -0.004,-0.004 -0.025,-0.025 -0.03,-0.03 -0.003,-0.004 -0.024,-0.024 -0.029,-0.028 -0.004,-0.004 -0.024,-0.026 -0.029,-0.029 -0.005,-0.004 -0.023,-0.026 -0.029,-0.03 -0.458,-0.292 -1.567,-0.169 -1.891,-0.173 -0.013,-10e-4 -0.047,0.001 -0.058,0 -0.006,-0.002 -0.027,-0.026 -0.028,-0.029 l 0.028,-0.029 c 0.315,-0.465 2.046,-5.164 1.949,-5.986 -0.002,-0.014 -0.025,-0.047 -0.029,-0.058 -0.002,-0.004 0.002,-0.025 0,-0.029 -0.001,-0.002 -0.028,0.002 -0.029,0 -0.002,-0.001 0.002,-0.029 0,-0.03 -0.002,0 -0.027,10e-4 -0.029,0 -0.002,10e-4 -0.027,0 -0.03,0 -0.966,0.243 -15.581,8.008 -20.593,8.533 -5.092,0.533 -29.215,-6.654 -3.49,-17.844 25.725,-11.192 41.526,2.669 55.728,1.069 14.202,-1.598 20.914,-4.001 19.575,-8.531 -1.34,-4.529 -14.528,14.849 -28.388,-1.909 -15.766,3.102 -26.462,4.897 -18.324,-6.623 -25.747,9.568 -41.47,-2.919 -9.046,-7.982 31.863,-0.934 51.452,7.722 51.452,7.722 0,0 5.375,-9.878 13.147,-2.95 7.407,6.602 7.99,-1.801 8.261,-2.603 0.004,-0.012 0.025,-0.022 0.029,-0.029 0.002,-0.002 -0.002,-0.027 0,-0.029 h 0.029 c 0.572,0.143 7.475,3.21 7.475,3.21 h 1.891 v -63.944 c 8.664,-0.089 17.308,-0.171 25.972,-0.261 0,0 -8.306,55.675 -3.752,63.135 4.414,7.227 8.587,6.446 8.843,6.392 0,0 16.885,-5.052 18.76,-4.252 0.021,0.01 0.066,0.018 0.087,0.029 0.014,0.008 0.045,0.021 0.058,0.028 0.032,0.022 0.087,0.064 0.116,0.087 0.006,0.004 0.024,0.025 0.03,0.03 1.372,1.246 -0.026,6.161 8.551,5.408 2.648,0.958 1.638,5.156 3.345,6.189 0.03,0.018 0.084,0.042 0.116,0.058 0.065,0.03 0.162,0.064 0.233,0.087 0.099,0.028 0.233,0.046 0.349,0.057 2.679,0.267 54.392,-14.376 65.646,-0.52 -2.948,7.727 -13.144,0.526 -15.823,0.26 -2.411,0 -12.602,4.796 -18.498,0 -5.36,3.997 -29.726,6.652 -29.726,6.652 -3.216,3.197 58.149,-1.588 61.632,0.81 7.234,7.194 -13.393,6.388 -16.608,3.991 -5.717,3.464 -12.9,3.208 -17.277,0.809 -2.098,4.993 -22.024,2.83 -33.099,4.252 -3.545,2.068 -2.955,3.254 -0.553,4.54 23.135,-0.977 46.151,-3.98 69.398,-2.95 6.283,8.146 -7.91,11.218 -16.608,4.281 -5.106,8.35 -15.545,0.271 -22.512,1.07 -6.967,0.8 -3.752,9.314 5.09,7.982 8.844,-1.333 24.655,0.544 27.603,4.541 2.946,3.996 -1.76,8.045 -16.347,4.251 -4.937,4.798 -15.792,0.008 -20.884,-1.591 -6.773,3.758 -22.534,0.524 -27.892,-0.809 -5.248,3.243 27.601,8.531 27.601,8.531 12.68,0.224 19.831,2.404 23.851,3.471 19.168,10.215 -0.268,11.3 -10.326,3.875 -6.243,4.847 -12.172,-0.419 -17.799,-2.284 -5.277,-1.748 -15.033,-3.022 -16.231,-2.517 -0.013,0.007 -0.047,0.022 -0.058,0.029 -0.002,0.002 -0.026,0.027 -0.029,0.03 l -0.029,0.028 c -10e-4,0.003 0.001,0.026 0,0.029 0,0.002 -10e-4,0.026 0,0.03 0.004,0.011 0.02,0.043 0.029,0.057 0.79,1.219 15.241,10.036 15.241,10.036 0,0 18.76,1.347 22.512,1.88 2.286,0.324 10.299,4.097 10.296,5.495 -0.067,0.868 -3.405,0.788 -13.525,-1.764 -9.111,-0.8 -14.462,-0.284 -17.946,-0.55 -5.603,0.576 -7.963,1.164 -8.435,1.678 -0.018,0.021 -0.047,0.065 -0.058,0.086 -0.039,0.093 -0.014,0.201 0.058,0.29 0.018,0.02 0.063,0.066 0.088,0.086 1.373,1.091 10.237,1.88 10.237,1.88 0,0 27.064,2.468 28.854,3.875 0.005,0.007 0.023,0.024 0.029,0.03 0.01,0.011 0.022,0.046 0.028,0.057 0.002,0.007 0.029,0.025 0.029,0.03 0.558,11.001 -22.959,5.921 -23.587,5.841 0.067,7.737 -21.224,0.115 -22.221,0 -0.002,10e-4 -0.028,0 -0.029,0 -0.916,0.537 -1.316,1.104 -1.397,1.62 -0.026,0.197 -10e-4,0.418 0.059,0.608 0.533,1.595 3.752,2.834 3.752,2.834 5.895,1.421 14.71,1.864 17.014,3.73 0,0 16.64,0.146 18.616,4.541 -4.083,11.201 -35.213,-1.983 -39.382,-3.991 -0.835,0 -1.347,0.209 -1.6,0.55 -1.369,1.988 5.386,8.537 5.613,8.763 0.002,0.002 0.025,0.026 0.03,0.029 1.029,0.29 25.883,1.555 37.753,17.555 0.837,9.893 -14.195,-5.582 -14.195,-5.582 -1.122,12.831 -16.344,-0.814 -25.187,-1.88 -8.843,-1.066 -9.102,4.001 -2.938,4.8 6.162,0.799 13.124,0.277 16.608,9.602 3.483,9.326 13.947,-0.543 15.823,2.921 1.816,3.356 -3.424,6.217 -3.752,6.392 0,0 7.766,8.017 -4.828,7.751 -12.467,-0.264 -28.585,1.553 -28.911,1.59 0.782,0.297 13.479,5.059 25.421,4.801 12.327,-0.266 5.625,8.792 -6.166,8.792 -11.79,0 -17.947,3.991 -17.947,3.991 6.7,2.487 13.4,4.975 20.099,7.462 -0.447,1.865 -0.892,3.717 -1.339,5.582 0,0 11.786,9.332 -4.828,7.201 -16.613,-2.132 -18.498,-2.4 -18.498,-2.4 0,0 -32.705,-4.984 -33.478,-5.061 -0.002,0 -0.026,-10e-4 -0.029,0 -0.316,0.049 -3.556,1.049 -4.159,2.284 -0.018,0.041 -0.046,0.104 -0.059,0.145 -0.013,0.049 -0.024,0.123 -0.029,0.173 -0.004,0.059 -0.01,0.144 0,0.203 0.136,0.65 1.145,1.354 3.724,1.995 8.574,2.132 38.87,8.251 43.424,6.652 0.587,-0.206 1.016,-0.16 1.281,0.058 1.707,1.536 -3.975,11.338 -17.918,12.725 -16.077,1.598 -25.973,-3.991 -25.973,-3.991 0,0 -10.462,3.743 -0.814,6.941 9.646,3.196 24.925,-1.07 24.925,-1.07 0,0 17.141,5.07 2.939,7.201 -14.202,2.132 -18.681,-1.917 -25.189,-2.14 -2.597,3.224 22.297,3.985 23.85,6.652 -2.625,4.797 -18.027,0 -27.05,0 -3.837,1.618 -4.091,4.252 0.262,5.87 9.201,0.356 17.85,-0.181 27.05,0.174 -0.268,4.884 0.007,10.675 -0.262,15.559 -11.67,2.12 -25.354,-1.553 -31.906,-1.244 1.752,5.33 26.948,6.706 29.755,8.156 5.789,7.195 -24.167,0.111 -24.898,0 -5.317,0.781 -4.995,4.123 -1.629,6.131 7.772,0.889 25.198,-1.132 23.879,4.107 -1.01,4.909 -12.082,2.281 -16.637,1.215 -4.554,-1.066 -11.255,-0.261 -11.255,-0.261 -2.917,3.905 26.269,2.309 26.003,5.322 -0.381,3.458 -18.501,1.076 -24.666,0.809 -4.74,3.253 22.287,5.415 23.56,5.843 0.006,0.004 0.025,0.026 0.028,0.029 1.011,8.857 -18.759,0 -22.511,0 -0.645,0 -1.133,0.16 -1.484,0.433 -0.078,0.064 -0.167,0.158 -0.232,0.232 -1.288,1.494 -0.146,4.916 -0.146,4.916 0,0 7.045,3.148 7.475,3.904 0.002,0.007 0.027,0.024 0.029,0.03 0.001,0.002 0,0.026 0,0.029 0,0.001 0.001,0.026 0,0.028 -0.002,0.004 -0.026,0.025 -0.029,0.029 -0.016,0.023 -0.055,0.061 -0.087,0.087 -0.827,0.633 -5.673,2.232 -6.311,2.285 h -0.03 c -0.004,0.002 -0.025,0.027 -0.029,0.029 -0.008,0.006 -0.022,0.02 -0.029,0.029 -0.004,0.004 -0.026,0.023 -0.029,0.029 -0.365,0.745 0.087,6.044 0.087,6.044 0,0 5.582,4.16 5.934,5.814 0.002,0.013 -0.002,0.044 0,0.057 0.002,0.014 -10e-4,0.046 0,0.058 v 0.058 c -10e-4,0.012 0.002,0.046 0,0.058 -10e-4,0.006 10e-4,0.023 0,0.029 -0.004,0.016 -0.023,0.042 -0.029,0.058 -0.002,0.006 10e-4,0.023 0,0.029 -0.002,0.004 -0.027,0.024 -0.03,0.029 -0.006,0.01 -0.022,0.02 -0.029,0.028 -0.01,0.015 -0.018,0.046 -0.028,0.058 -0.005,0.004 -0.026,0.025 -0.03,0.029 -0.022,0.018 -0.06,0.042 -0.088,0.058 l -0.057,0.029 c -1.41,0.674 -7.243,-1.33 -7.243,-1.33 v 5.321 c 0,0 5.106,0.552 5.642,2.95 0.032,0.141 0.017,0.279 0,0.405 -0.008,0.05 -0.013,0.126 -0.028,0.174 -0.033,0.103 -0.084,0.224 -0.147,0.318 -0.009,0.014 -0.046,0.044 -0.057,0.058 -1.169,1.499 -5.934,1.706 -5.934,1.706 -0.893,9.325 -1.782,18.641 -2.676,27.966 z"
       style="fill:#007934;fill-opacity:1;fill-rule:nonzero;stroke:none"
       transform="matrix(1.3333333,0,0,-1.3333333,635.05733,550.1552)"
       clip-path="url(#clipPath4)" />
  </g>
</svg>
