<svg height="888.88934" viewBox="0 0 1333.3333 888.88934" width="1333.3333" xmlns="http://www.w3.org/2000/svg" xmlns:xlink="http://www.w3.org/1999/xlink"><clipPath id="a"><path d="m0 666.667h1000v-666.667h-1000z" transform="translate(-253.44381 -522.80541)"/></clipPath><clipPath id="b"><path d="m0 666.667h1000v-666.667h-1000z" transform="translate(-230.09331 -518.47631)"/></clipPath><clipPath id="c"><path d="m0 666.667h1000v-666.667h-1000z" transform="translate(-98.873005 -518.18132)"/></clipPath><clipPath id="d"><path d="m0 666.667h1000v-666.667h-1000z" transform="translate(-350.33301 -518.18132)"/></clipPath><clipPath id="e"><path d="m0 666.667h1000v-666.667h-1000z" transform="translate(-224.60301 -446.33561)"/></clipPath><clipPath id="f"><path d="m0 666.667h1000v-666.667h-1000z" transform="translate(-224.60301 -590.02701)"/></clipPath><path d="m0 0h1000v666.667h-1000z" fill="#fcd116" transform="matrix(1.3333333 0 0 -1.3333333 0 888.88933)"/><path d="m0 378h433v288.667h-433z" fill="#00247d" transform="matrix(1.3333333 0 0 -1.3333333 0 888.88933)"/><path d="m0 0-168.089-112.059 48.411-32.274 168.089 112.059v32.274zm-384.589 0v-32.274l168.089-112.059 48.411 32.274-168.089 112.059zm0-256.392v-32.275h48.411l168.089 112.06-48.411 32.274zm216.5 79.785 168.089-112.06h48.411v32.274l-168.089 112.06z" fill="#fff" transform="matrix(1.3333333 0 0 -1.3333333 512.7852 .000133)"/><path d="m0 0v-96.223h-180.417v-96.221h180.417v-96.223h72.166v96.223h180.417v96.221h-180.417v96.223z" fill="#fff" transform="matrix(1.3333333 0 0 -1.3333333 240.5556 .000133)"/><path d="m0 0v-115.467h-194.85v-57.733h194.85v-115.467h43.3v115.467h194.85v57.733h-194.85v115.467z" fill="#cf142b" transform="matrix(1.3333333 0 0 -1.3333333 259.8 .000133)"/><path d="m0 0-144.334-96.223h32.274l144.333 96.223zm-400.727 0v-21.516l112.06-74.707h32.274zm288.667-192.444 144.333-96.223v21.516l-112.06 74.707zm-144.333 0-144.334-96.223h32.274l144.333 96.223z" fill="#cf142b" transform="matrix(1.3333333 0 0 -1.3333333 534.3024 .000133)"/><path clip-path="url(#a)" d="m0 0c0-20.252-16.419-36.672-36.672-36.672-20.251 0-36.67 16.42-36.67 36.672 0 20.251 16.419 36.67 36.67 36.67 20.253 0 36.672-16.419 36.672-36.67" fill="#002868" transform="matrix(1.3333333 0 0 -1.3333333 337.92507 191.81547)"/><g fill="#fcd116"><path clip-path="url(#b)" d="m0 0 21.554 15.66h-26.642l-8.233 25.34-8.233-25.34h-26.642l21.554-15.66-8.233-25.338 21.554 15.66 21.553-15.66z" transform="matrix(1.3333333 0 0 -1.3333333 306.79107 197.5876)"/><path clip-path="url(#c)" d="m0 0 12.667 9.203h-15.658l-4.84 14.894-4.839-14.894h-15.659l12.668-9.203-4.84-14.895 12.67 9.206 12.672-9.206z" transform="matrix(1.3333333 0 0 -1.3333333 131.83067 197.98093)"/><path clip-path="url(#d)" d="m0 0 12.667 9.203h-15.658l-4.84 14.894-4.839-14.894h-15.659l12.668-9.203-4.839-14.895 12.669 9.206 12.672-9.206z" transform="matrix(1.3333333 0 0 -1.3333333 467.11067 197.98093)"/><path clip-path="url(#e)" d="m0 0 12.667 9.203h-15.658l-4.84 14.894-4.839-14.894h-15.659l12.668-9.203-4.84-14.895 12.67 9.206 12.672-9.206z" transform="matrix(1.3333333 0 0 -1.3333333 299.47067 293.7752)"/><path clip-path="url(#f)" d="m0 0 12.667 9.203h-15.658l-4.84 14.894-4.839-14.894h-15.659l12.668-9.203-4.84-14.895 12.67 9.206 12.672-9.206z" transform="matrix(1.3333333 0 0 -1.3333333 299.47067 102.18667)"/></g></svg>