<?xml version="1.0" encoding="UTF-8" standalone="no"?>
<!-- Created with Inkscape (http://www.inkscape.org/) -->

<svg
   version="1.1"
   id="svg1"
   width="1419.12"
   height="946.08264"
   viewBox="0 0 1419.12 946.08264"
   sodipodi:docname="np.ai"
   xmlns:inkscape="http://www.inkscape.org/namespaces/inkscape"
   xmlns:sodipodi="http://sodipodi.sourceforge.net/DTD/sodipodi-0.dtd"
   xmlns="http://www.w3.org/2000/svg"
   xmlns:svg="http://www.w3.org/2000/svg">
  <defs
     id="defs1">
    <clipPath
       clipPathUnits="userSpaceOnUse"
       id="clipPath5">
      <path
         d="M 0,709.562 H 1064.343 V 0 H 0 Z"
         transform="translate(-313.73521,-472.63971)"
         id="path5" />
    </clipPath>
    <clipPath
       clipPathUnits="userSpaceOnUse"
       id="clipPath7">
      <path
         d="M 0,709.562 H 1064.343 V 0 H 0 Z"
         transform="translate(-446.95681,-430.33161)"
         id="path7" />
    </clipPath>
    <clipPath
       clipPathUnits="userSpaceOnUse"
       id="clipPath9">
      <path
         d="M 0,709.562 H 1064.343 V 0 H 0 Z"
         transform="translate(-420.84011,-469.42191)"
         id="path9" />
    </clipPath>
    <clipPath
       clipPathUnits="userSpaceOnUse"
       id="clipPath11">
      <path
         d="M 0,709.562 H 1064.343 V 0 H 0 Z"
         transform="translate(-434.56721,-460.24961)"
         id="path11" />
    </clipPath>
    <clipPath
       clipPathUnits="userSpaceOnUse"
       id="clipPath13">
      <path
         d="M 0,709.562 H 1064.343 V 0 H 0 Z"
         transform="translate(-443.73911,-446.52301)"
         id="path13" />
    </clipPath>
    <clipPath
       clipPathUnits="userSpaceOnUse"
       id="clipPath15">
      <path
         d="M 0,709.562 H 1064.343 V 0 H 0 Z"
         transform="translate(-446.95681,-430.33161)"
         id="path15" />
    </clipPath>
    <clipPath
       clipPathUnits="userSpaceOnUse"
       id="clipPath17">
      <path
         d="M 0,709.562 H 1064.343 V 0 H 0 Z"
         transform="translate(-443.73911,-414.14361)"
         id="path17" />
    </clipPath>
    <clipPath
       clipPathUnits="userSpaceOnUse"
       id="clipPath19">
      <path
         d="M 0,709.562 H 1064.343 V 0 H 0 Z"
         transform="translate(-434.56721,-400.41801)"
         id="path19" />
    </clipPath>
    <clipPath
       clipPathUnits="userSpaceOnUse"
       id="clipPath21">
      <path
         d="M 0,709.562 H 1064.343 V 0 H 0 Z"
         transform="translate(-388.46121,-469.42191)"
         id="path21" />
    </clipPath>
    <clipPath
       clipPathUnits="userSpaceOnUse"
       id="clipPath23">
      <path
         d="M 0,709.562 H 1064.343 V 0 H 0 Z"
         transform="translate(-374.73521,-460.24961)"
         id="path23" />
    </clipPath>
    <clipPath
       clipPathUnits="userSpaceOnUse"
       id="clipPath25">
      <path
         d="M 0,709.562 H 1064.343 V 0 H 0 Z"
         transform="translate(-365.56281,-446.52301)"
         id="path25" />
    </clipPath>
    <clipPath
       clipPathUnits="userSpaceOnUse"
       id="clipPath27">
      <path
         d="M 0,709.562 H 1064.343 V 0 H 0 Z"
         transform="translate(-362.34411,-430.33161)"
         id="path27" />
    </clipPath>
    <clipPath
       clipPathUnits="userSpaceOnUse"
       id="clipPath29">
      <path
         d="M 0,709.562 H 1064.343 V 0 H 0 Z"
         transform="translate(-365.56281,-414.14361)"
         id="path29" />
    </clipPath>
    <clipPath
       clipPathUnits="userSpaceOnUse"
       id="clipPath31">
      <path
         d="M 0,709.562 H 1064.343 V 0 H 0 Z"
         transform="translate(-374.73521,-400.41801)"
         id="path31" />
    </clipPath>
    <clipPath
       clipPathUnits="userSpaceOnUse"
       id="clipPath33">
      <path
         d="M 0,709.562 H 1064.343 V 0 H 0 Z"
         transform="translate(-466.60191,-204.0582)"
         id="path33" />
    </clipPath>
    <clipPath
       clipPathUnits="userSpaceOnUse"
       id="clipPath35">
      <path
         d="M 0,709.562 H 1064.343 V 0 H 0 Z"
         transform="translate(-420.68391,-144.2183)"
         id="path35" />
    </clipPath>
    <clipPath
       clipPathUnits="userSpaceOnUse"
       id="clipPath37">
      <path
         d="M 0,709.562 H 1064.343 V 0 H 0 Z"
         transform="translate(-388.61411,-263.9019)"
         id="path37" />
    </clipPath>
    <clipPath
       clipPathUnits="userSpaceOnUse"
       id="clipPath39">
      <path
         d="M 0,709.562 H 1064.343 V 0 H 0 Z"
         transform="translate(-344.80891,-188.02691)"
         id="path39" />
    </clipPath>
    <clipPath
       clipPathUnits="userSpaceOnUse"
       id="clipPath41">
      <path
         d="M 0,709.562 H 1064.343 V 0 H 0 Z"
         transform="translate(-464.49201,-220.09331)"
         id="path41" />
    </clipPath>
    <clipPath
       clipPathUnits="userSpaceOnUse"
       id="clipPath43">
      <path
         d="M 0,709.562 H 1064.343 V 0 H 0 Z"
         transform="translate(-388.61411,-144.2183)"
         id="path43" />
    </clipPath>
    <clipPath
       clipPathUnits="userSpaceOnUse"
       id="clipPath45">
      <path
         d="M 0,709.562 H 1064.343 V 0 H 0 Z"
         transform="translate(-420.68391,-263.9019)"
         id="path45" />
    </clipPath>
    <clipPath
       clipPathUnits="userSpaceOnUse"
       id="clipPath47">
      <path
         d="M 0,709.562 H 1064.343 V 0 H 0 Z"
         transform="translate(-344.80891,-220.09331)"
         id="path47" />
    </clipPath>
    <clipPath
       clipPathUnits="userSpaceOnUse"
       id="clipPath49">
      <path
         d="M 0,709.562 H 1064.343 V 0 H 0 Z"
         transform="translate(-464.49201,-188.02691)"
         id="path49" />
    </clipPath>
    <clipPath
       clipPathUnits="userSpaceOnUse"
       id="clipPath51">
      <path
         d="M 0,709.562 H 1064.343 V 0 H 0 Z"
         transform="translate(-360.84411,-160.25351)"
         id="path51" />
    </clipPath>
    <clipPath
       clipPathUnits="userSpaceOnUse"
       id="clipPath53">
      <path
         d="M 0,709.562 H 1064.343 V 0 H 0 Z"
         transform="translate(-448.45681,-247.86681)"
         id="path53" />
    </clipPath>
    <clipPath
       clipPathUnits="userSpaceOnUse"
       id="clipPath55">
      <path
         d="M 0,709.562 H 1064.343 V 0 H 0 Z"
         transform="translate(-360.84411,-247.86681)"
         id="path55" />
    </clipPath>
    <clipPath
       clipPathUnits="userSpaceOnUse"
       id="clipPath57">
      <path
         d="M 0,709.562 H 1064.343 V 0 H 0 Z"
         transform="translate(-448.45681,-160.25351)"
         id="path57" />
    </clipPath>
  </defs>
  <sodipodi:namedview
     id="namedview1"
     pagecolor="#ffffff"
     bordercolor="#000000"
     borderopacity="0.25"
     inkscape:showpageshadow="2"
     inkscape:pageopacity="0.0"
     inkscape:pagecheckerboard="0"
     inkscape:deskcolor="#d1d1d1">
    <inkscape:page
       x="0"
       y="0"
       inkscape:label="1"
       id="page1"
       width="1419.12"
       height="946.08264"
       margin="0"
       bleed="0" />
  </sodipodi:namedview>
  <g
     id="layer-MC0"
     inkscape:groupmode="layer"
     inkscape:label="Layer 1">
    <path
       id="path1"
       d="M 0,0 H 1064.342 V 709.562 H 0 Z"
       style="fill:#ffffff;fill-opacity:1;fill-rule:nonzero;stroke:none"
       transform="matrix(1.3333333,0,0,-1.3333333,0,946.08267)" />
    <path
       id="path2"
       d="M 0,0 H 456.468 L 0,285.852 V -322.77 H 456.468 L 0,133.695 Z"
       style="fill:#dc143c;fill-opacity:1;fill-rule:nonzero;stroke:#003893;stroke-width:39.292;stroke-linecap:butt;stroke-linejoin:miter;stroke-miterlimit:4;stroke-dasharray:none;stroke-opacity:1"
       transform="matrix(1.3333333,0,0,-1.3333333,387.376,458.8228)" />
    <path
       id="path3"
       d="M 0,0 H 456.468 L 0,285.852 V -322.77 H 456.468 L 0,133.695 Z"
       style="fill:#dc143c;fill-opacity:1;fill-rule:nonzero;stroke:none"
       transform="matrix(1.3333333,0,0,-1.3333333,387.376,458.8228)" />
    <path
       id="path4"
       d="m 0,0 c 14.687,-37.375 50.757,-61.953 90.914,-61.953 40.16,0 76.226,24.578 90.918,61.953 0,-50.211 -40.707,-90.914 -90.918,-90.914 C 40.703,-90.914 0,-50.211 0,0"
       style="fill:#ffffff;fill-opacity:1;fill-rule:nonzero;stroke:none"
       transform="matrix(1.3333333,0,0,-1.3333333,418.3136,315.8964)"
       clip-path="url(#clipPath5)" />
    <path
       id="path6"
       d="m 0,0 c 0,-23.363 -18.941,-42.305 -42.308,-42.305 -23.364,0 -42.305,18.942 -42.305,42.305 0,23.367 18.941,42.308 42.305,42.308 C -18.941,42.308 0,23.367 0,0"
       style="fill:#ffffff;fill-opacity:1;fill-rule:nonzero;stroke:none"
       transform="matrix(1.3333333,0,0,-1.3333333,595.9424,372.3072)"
       clip-path="url(#clipPath7)" />
    <path
       id="path8"
       d="M 0,0 -4.726,18.539 -16.191,3.218"
       style="fill:#ffffff;fill-opacity:1;fill-rule:nonzero;stroke:none"
       transform="matrix(1.3333333,0,0,-1.3333333,561.12013,320.1868)"
       clip-path="url(#clipPath9)" />
    <path
       id="path10"
       d="M 0,0 2.726,18.937 -13.727,9.172"
       style="fill:#ffffff;fill-opacity:1;fill-rule:nonzero;stroke:none"
       transform="matrix(1.3333333,0,0,-1.3333333,579.42293,332.41653)"
       clip-path="url(#clipPath11)" />
    <path
       id="path12"
       d="M 0,0 9.765,16.453 -9.172,13.727"
       style="fill:#ffffff;fill-opacity:1;fill-rule:nonzero;stroke:none"
       transform="matrix(1.3333333,0,0,-1.3333333,591.65213,350.71867)"
       clip-path="url(#clipPath13)" />
    <path
       id="path14"
       d="M 0,0 15.321,11.465 -3.218,16.191"
       style="fill:#ffffff;fill-opacity:1;fill-rule:nonzero;stroke:none"
       transform="matrix(1.3333333,0,0,-1.3333333,595.9424,372.3072)"
       clip-path="url(#clipPath15)" />
    <path
       id="path16"
       d="M 0,0 18.539,4.727 3.218,16.188"
       style="fill:#ffffff;fill-opacity:1;fill-rule:nonzero;stroke:none"
       transform="matrix(1.3333333,0,0,-1.3333333,591.65213,393.8912)"
       clip-path="url(#clipPath17)" />
    <path
       id="path18"
       d="M 0,0 18.937,-2.727 9.172,13.726"
       style="fill:#ffffff;fill-opacity:1;fill-rule:nonzero;stroke:none"
       transform="matrix(1.3333333,0,0,-1.3333333,579.42293,412.192)"
       clip-path="url(#clipPath19)" />
    <path
       id="path20"
       d="M 0,0 4.727,18.539 16.188,3.218"
       style="fill:#ffffff;fill-opacity:1;fill-rule:nonzero;stroke:none"
       transform="matrix(1.3333333,0,0,-1.3333333,517.94827,320.1868)"
       clip-path="url(#clipPath21)" />
    <path
       id="path22"
       d="M 0,0 -2.727,18.937 13.726,9.172"
       style="fill:#ffffff;fill-opacity:1;fill-rule:nonzero;stroke:none"
       transform="matrix(1.3333333,0,0,-1.3333333,499.64693,332.41653)"
       clip-path="url(#clipPath23)" />
    <path
       id="path24"
       d="M 0,0 -9.766,16.453 9.172,13.727"
       style="fill:#ffffff;fill-opacity:1;fill-rule:nonzero;stroke:none"
       transform="matrix(1.3333333,0,0,-1.3333333,487.41707,350.71867)"
       clip-path="url(#clipPath25)" />
    <path
       id="path26"
       d="M 0,0 -15.32,11.465 3.219,16.191"
       style="fill:#ffffff;fill-opacity:1;fill-rule:nonzero;stroke:none"
       transform="matrix(1.3333333,0,0,-1.3333333,483.12547,372.3072)"
       clip-path="url(#clipPath27)" />
    <path
       id="path28"
       d="m 0,0 -18.539,4.727 15.32,11.461"
       style="fill:#ffffff;fill-opacity:1;fill-rule:nonzero;stroke:none"
       transform="matrix(1.3333333,0,0,-1.3333333,487.41707,393.8912)"
       clip-path="url(#clipPath29)" />
    <path
       id="path30"
       d="m 0,0 -18.938,-2.727 9.766,16.453"
       style="fill:#ffffff;fill-opacity:1;fill-rule:nonzero;stroke:none"
       transform="matrix(1.3333333,0,0,-1.3333333,499.64693,412.192)"
       clip-path="url(#clipPath31)" />
    <path
       id="path32"
       d="m 0,0 c 0,-34.215 -27.735,-61.953 -61.953,-61.953 -34.215,0 -61.953,27.738 -61.953,61.953 0,34.219 27.738,61.953 61.953,61.953 C -27.735,61.953 0,34.219 0,0"
       style="fill:#ffffff;fill-opacity:1;fill-rule:nonzero;stroke:none"
       transform="matrix(1.3333333,0,0,-1.3333333,622.13587,674.00507)"
       clip-path="url(#clipPath33)" />
    <path
       id="path34"
       d="M 0,0 -16.035,-37.844 -32.07,0"
       style="fill:#ffffff;fill-opacity:1;fill-rule:nonzero;stroke:none"
       transform="matrix(1.3333333,0,0,-1.3333333,560.91187,753.7916)"
       clip-path="url(#clipPath35)" />
    <path
       id="path36"
       d="M 0,0 16.035,37.844 32.07,0"
       style="fill:#ffffff;fill-opacity:1;fill-rule:nonzero;stroke:none"
       transform="matrix(1.3333333,0,0,-1.3333333,518.15213,594.21347)"
       clip-path="url(#clipPath37)" />
    <path
       id="path38"
       d="M 0,0 -37.844,16.031 0,32.066"
       style="fill:#ffffff;fill-opacity:1;fill-rule:nonzero;stroke:none"
       transform="matrix(1.3333333,0,0,-1.3333333,459.7452,695.38013)"
       clip-path="url(#clipPath39)" />
    <path
       id="path40"
       d="M 0,0 37.844,-16.035 0,-32.066"
       style="fill:#ffffff;fill-opacity:1;fill-rule:nonzero;stroke:none"
       transform="matrix(1.3333333,0,0,-1.3333333,619.32267,652.62493)"
       clip-path="url(#clipPath41)" />
    <path
       id="path42"
       d="m 0,0 -32.805,-24.758 5.035,40.793"
       style="fill:#ffffff;fill-opacity:1;fill-rule:nonzero;stroke:none"
       transform="matrix(1.3333333,0,0,-1.3333333,518.15213,753.7916)"
       clip-path="url(#clipPath43)" />
    <path
       id="path44"
       d="M 0,0 32.808,24.754 27.773,-16.035"
       style="fill:#ffffff;fill-opacity:1;fill-rule:nonzero;stroke:none"
       transform="matrix(1.3333333,0,0,-1.3333333,560.91187,594.21347)"
       clip-path="url(#clipPath45)" />
    <path
       id="path46"
       d="M 0,0 -24.758,32.809 16.035,27.773"
       style="fill:#ffffff;fill-opacity:1;fill-rule:nonzero;stroke:none"
       transform="matrix(1.3333333,0,0,-1.3333333,459.7452,652.62493)"
       clip-path="url(#clipPath47)" />
    <path
       id="path48"
       d="m 0,0 24.754,-32.808 -40.789,5.035"
       style="fill:#ffffff;fill-opacity:1;fill-rule:nonzero;stroke:none"
       transform="matrix(1.3333333,0,0,-1.3333333,619.32267,695.38013)"
       clip-path="url(#clipPath49)" />
    <path
       id="path50"
       d="m 0,0 -40.793,-5.034 24.758,32.807"
       style="fill:#ffffff;fill-opacity:1;fill-rule:nonzero;stroke:none"
       transform="matrix(1.3333333,0,0,-1.3333333,481.12547,732.41133)"
       clip-path="url(#clipPath51)" />
    <path
       id="path52"
       d="M 0,0 40.789,5.035 16.035,-27.773"
       style="fill:#ffffff;fill-opacity:1;fill-rule:nonzero;stroke:none"
       transform="matrix(1.3333333,0,0,-1.3333333,597.9424,615.5936)"
       clip-path="url(#clipPath53)" />
    <path
       id="path54"
       d="M 0,0 -5.035,40.789 27.77,16.035"
       style="fill:#ffffff;fill-opacity:1;fill-rule:nonzero;stroke:none"
       transform="matrix(1.3333333,0,0,-1.3333333,481.12547,615.5936)"
       clip-path="url(#clipPath55)" />
    <path
       id="path56"
       d="m 0,0 5.035,-40.793 -32.808,24.758"
       style="fill:#ffffff;fill-opacity:1;fill-rule:nonzero;stroke:none"
       transform="matrix(1.3333333,0,0,-1.3333333,597.9424,732.41133)"
       clip-path="url(#clipPath57)" />
  </g>
</svg>
