<?xml version="1.0" encoding="UTF-8" standalone="no"?>
<!-- Created with Inkscape (http://www.inkscape.org/) -->

<svg
   version="1.1"
   id="svg1"
   width="1333.3333"
   height="888.88934"
   viewBox="0 0 1333.3333 888.88934"
   sodipodi:docname="nz.ai"
   xmlns:inkscape="http://www.inkscape.org/namespaces/inkscape"
   xmlns:sodipodi="http://sodipodi.sourceforge.net/DTD/sodipodi-0.dtd"
   xmlns="http://www.w3.org/2000/svg"
   xmlns:svg="http://www.w3.org/2000/svg">
  <defs
     id="defs1" />
  <sodipodi:namedview
     id="namedview1"
     pagecolor="#ffffff"
     bordercolor="#000000"
     borderopacity="0.25"
     inkscape:showpageshadow="2"
     inkscape:pageopacity="0.0"
     inkscape:pagecheckerboard="0"
     inkscape:deskcolor="#d1d1d1">
    <inkscape:page
       x="0"
       y="0"
       inkscape:label="1"
       id="page1"
       width="1333.3333"
       height="888.88934"
       margin="0"
       bleed="0" />
  </sodipodi:namedview>
  <g
     id="layer-MC0"
     inkscape:groupmode="layer"
     inkscape:label="svg1">
    <path
       id="path1"
       d="M 0,0 H 1000 V 666.667 H 0 Z"
       style="fill:#00247d;fill-opacity:1;fill-rule:nonzero;stroke:none"
       transform="matrix(1.3333333,0,0,-1.3333333,0,888.88933)" />
    <path
       id="path2"
       d="m 0,0 -168.089,-112.059 48.411,-32.274 168.089,112.059 V 0 Z m -384.589,0 v -32.274 l 168.089,-112.059 48.411,32.274 L -336.178,0 Z m 0,-256.392 v -32.275 h 48.411 l 168.089,112.06 -48.411,32.274 z m 216.5,79.785 L 0,-288.667 h 48.411 v 32.274 l -168.089,112.06 z"
       style="fill:#ffffff;fill-opacity:1;fill-rule:nonzero;stroke:none"
       transform="matrix(1.3333333,0,0,-1.3333333,512.7852,1.3333333e-4)" />
    <path
       id="path3"
       d="m 0,0 v -96.223 h -180.417 v -96.221 H 0 v -96.223 h 72.166 v 96.223 h 180.417 v 96.221 H 72.166 V 0 Z"
       style="fill:#ffffff;fill-opacity:1;fill-rule:nonzero;stroke:none"
       transform="matrix(1.3333333,0,0,-1.3333333,240.5556,1.3333333e-4)" />
    <path
       id="path4"
       d="M 0,0 V -115.467 H -194.85 V -173.2 H 0 V -288.667 H 43.3 V -173.2 h 194.85 v 57.733 H 43.3 L 43.3,0 Z"
       style="fill:#cf142b;fill-opacity:1;fill-rule:nonzero;stroke:none"
       transform="matrix(1.3333333,0,0,-1.3333333,259.8,1.3333333e-4)" />
    <path
       id="path5"
       d="m 0,0 -144.334,-96.223 h 32.274 L 32.273,0 Z m -400.727,0 v -21.516 l 112.06,-74.707 h 32.274 z m 288.667,-192.444 144.333,-96.223 v 21.516 l -112.06,74.707 z m -144.333,0 -144.334,-96.223 h 32.274 l 144.333,96.223 z"
       style="fill:#cf142b;fill-opacity:1;fill-rule:nonzero;stroke:none"
       transform="matrix(1.3333333,0,0,-1.3333333,534.3024,1.3333333e-4)" />
    <path
       id="path6"
       d="M 0,0 V -23.664 L 47.327,0 Z"
       style="fill:#ffffff;fill-opacity:1;fill-rule:nonzero;stroke:none"
       transform="matrix(1.3333333,0,0,-1.3333333,986.5664,178.4672)" />
    <path
       id="path7"
       d="m 0,0 -13.909,19.145 52.197,8.673 z"
       style="fill:#ffffff;fill-opacity:1;fill-rule:nonzero;stroke:none"
       transform="matrix(1.3333333,0,0,-1.3333333,998.61853,215.5584)" />
    <path
       id="path8"
       d="M 0,0 V -23.664 L -47.327,0 Z"
       style="fill:#ffffff;fill-opacity:1;fill-rule:nonzero;stroke:none"
       transform="matrix(1.3333333,0,0,-1.3333333,986.5664,178.4672)" />
    <path
       id="path9"
       d="m 0,0 13.908,19.145 -52.197,8.673 z"
       style="fill:#ffffff;fill-opacity:1;fill-rule:nonzero;stroke:none"
       transform="matrix(1.3333333,0,0,-1.3333333,974.5156,215.5584)" />
    <path
       id="path10"
       d="m 0,0 -22.505,-7.312 37.13,-37.699 z"
       style="fill:#ffffff;fill-opacity:1;fill-rule:nonzero;stroke:none"
       transform="matrix(1.3333333,0,0,-1.3333333,1006.0664,192.6352)" />
    <path
       id="path11"
       d="M 0,0 13.909,19.144 38.288,-27.818 Z"
       style="fill:#ffffff;fill-opacity:1;fill-rule:nonzero;stroke:none"
       transform="matrix(1.3333333,0,0,-1.3333333,974.5156,215.5584)" />
    <path
       id="path12"
       d="m 0,0 22.505,-7.312 -7.88,52.323 z"
       style="fill:#ffffff;fill-opacity:1;fill-rule:nonzero;stroke:none"
       transform="matrix(1.3333333,0,0,-1.3333333,967.0664,192.6352)" />
    <path
       id="path13"
       d="m 0,0 -22.506,-7.312 7.881,52.323 z"
       style="fill:#ffffff;fill-opacity:1;fill-rule:nonzero;stroke:none"
       transform="matrix(1.3333333,0,0,-1.3333333,1006.0664,192.6352)" />
    <path
       id="path14"
       d="m 0,0 22.505,-7.312 -37.13,-37.699 z"
       style="fill:#ffffff;fill-opacity:1;fill-rule:nonzero;stroke:none"
       transform="matrix(1.3333333,0,0,-1.3333333,967.0664,192.6352)" />
    <path
       id="path15"
       d="m 0,0 -13.908,19.144 -24.38,-46.962 z"
       style="fill:#ffffff;fill-opacity:1;fill-rule:nonzero;stroke:none"
       transform="matrix(1.3333333,0,0,-1.3333333,998.6172,215.5584)" />
    <path
       id="path16"
       d="M 0,0 V -15.637 L 31.273,0 Z"
       style="fill:#cc142b;fill-opacity:1;fill-rule:nonzero;stroke:none"
       transform="matrix(1.3333333,0,0,-1.3333333,986.5664,185.42227)" />
    <path
       id="path17"
       d="m 0,0 -9.19,12.65 34.491,5.732 z"
       style="fill:#cc142b;fill-opacity:1;fill-rule:nonzero;stroke:none"
       transform="matrix(1.3333333,0,0,-1.3333333,994.53,209.93147)" />
    <path
       id="path18"
       d="M 0,0 V -15.637 L -31.273,0 Z"
       style="fill:#cc142b;fill-opacity:1;fill-rule:nonzero;stroke:none"
       transform="matrix(1.3333333,0,0,-1.3333333,986.5664,185.42227)" />
    <path
       id="path19"
       d="m 0,0 9.191,12.65 -34.492,5.732 z"
       style="fill:#cc142b;fill-opacity:1;fill-rule:nonzero;stroke:none"
       transform="matrix(1.3333333,0,0,-1.3333333,978.6028,209.93147)" />
    <path
       id="path20"
       d="M 0,0 -14.871,-4.832 9.664,-29.743 Z"
       style="fill:#cc142b;fill-opacity:1;fill-rule:nonzero;stroke:none"
       transform="matrix(1.3333333,0,0,-1.3333333,999.45187,194.78427)" />
    <path
       id="path21"
       d="m 0,0 9.191,12.65 16.11,-31.032 z"
       style="fill:#cc142b;fill-opacity:1;fill-rule:nonzero;stroke:none"
       transform="matrix(1.3333333,0,0,-1.3333333,978.6028,209.93213)" />
    <path
       id="path22"
       d="M 0,0 14.871,-4.832 9.664,29.743 Z"
       style="fill:#cc142b;fill-opacity:1;fill-rule:nonzero;stroke:none"
       transform="matrix(1.3333333,0,0,-1.3333333,973.68093,194.78427)" />
    <path
       id="path23"
       d="m 0,0 -14.871,-4.832 5.207,34.575 z"
       style="fill:#cc142b;fill-opacity:1;fill-rule:nonzero;stroke:none"
       transform="matrix(1.3333333,0,0,-1.3333333,999.45187,194.78427)" />
    <path
       id="path24"
       d="M 0,0 14.871,-4.832 -9.664,-29.743 Z"
       style="fill:#cc142b;fill-opacity:1;fill-rule:nonzero;stroke:none"
       transform="matrix(1.3333333,0,0,-1.3333333,973.68093,194.78427)" />
    <path
       id="path25"
       d="m 0,0 -9.191,12.65 -16.11,-31.032 z"
       style="fill:#cc142b;fill-opacity:1;fill-rule:nonzero;stroke:none"
       transform="matrix(1.3333333,0,0,-1.3333333,994.53,209.93213)" />
    <path
       id="path26"
       d="M 0,0 V -21.058 L 42.115,0 Z"
       style="fill:#ffffff;fill-opacity:1;fill-rule:nonzero;stroke:none"
       transform="matrix(1.3333333,0,0,-1.3333333,1151.7344,324.30387)" />
    <path
       id="path27"
       d="m 0,0 -12.378,17.036 46.449,7.719 z"
       style="fill:#ffffff;fill-opacity:1;fill-rule:nonzero;stroke:none"
       transform="matrix(1.3333333,0,0,-1.3333333,1162.4596,357.3104)" />
    <path
       id="path28"
       d="M 0,0 V -21.058 L -42.114,0 Z"
       style="fill:#ffffff;fill-opacity:1;fill-rule:nonzero;stroke:none"
       transform="matrix(1.3333333,0,0,-1.3333333,1151.7344,324.30387)" />
    <path
       id="path29"
       d="m 0,0 12.378,17.036 -46.449,7.719 z"
       style="fill:#ffffff;fill-opacity:1;fill-rule:nonzero;stroke:none"
       transform="matrix(1.3333333,0,0,-1.3333333,1141.0104,357.3104)" />
    <path
       id="path30"
       d="M 0,0 -20.026,-6.507 13.015,-40.054 Z"
       style="fill:#ffffff;fill-opacity:1;fill-rule:nonzero;stroke:none"
       transform="matrix(1.3333333,0,0,-1.3333333,1169.0872,336.91187)" />
    <path
       id="path31"
       d="M 0,0 12.378,17.036 34.072,-24.755 Z"
       style="fill:#ffffff;fill-opacity:1;fill-rule:nonzero;stroke:none"
       transform="matrix(1.3333333,0,0,-1.3333333,1141.0104,357.3104)" />
    <path
       id="path32"
       d="M 0,0 20.026,-6.507 13.014,40.054 Z"
       style="fill:#ffffff;fill-opacity:1;fill-rule:nonzero;stroke:none"
       transform="matrix(1.3333333,0,0,-1.3333333,1134.3828,336.91187)" />
    <path
       id="path33"
       d="m 0,0 -20.027,-6.507 7.012,46.561 z"
       style="fill:#ffffff;fill-opacity:1;fill-rule:nonzero;stroke:none"
       transform="matrix(1.3333333,0,0,-1.3333333,1169.0872,336.91187)" />
    <path
       id="path34"
       d="M 0,0 20.026,-6.507 -13.015,-40.054 Z"
       style="fill:#ffffff;fill-opacity:1;fill-rule:nonzero;stroke:none"
       transform="matrix(1.3333333,0,0,-1.3333333,1134.3828,336.91187)" />
    <path
       id="path35"
       d="M 0,0 -12.378,17.036 -34.072,-24.755 Z"
       style="fill:#ffffff;fill-opacity:1;fill-rule:nonzero;stroke:none"
       transform="matrix(1.3333333,0,0,-1.3333333,1162.4596,357.3104)" />
    <path
       id="path36"
       d="M 0,0 V -13.031 L 26.062,0 Z"
       style="fill:#cc142b;fill-opacity:1;fill-rule:nonzero;stroke:none"
       transform="matrix(1.3333333,0,0,-1.3333333,1151.7344,331.25893)" />
    <path
       id="path37"
       d="m 0,0 -7.659,10.542 28.743,4.777 z"
       style="fill:#cc142b;fill-opacity:1;fill-rule:nonzero;stroke:none"
       transform="matrix(1.3333333,0,0,-1.3333333,1158.3711,351.684)" />
    <path
       id="path38"
       d="M 0,0 V -13.031 L -26.061,0 Z"
       style="fill:#cc142b;fill-opacity:1;fill-rule:nonzero;stroke:none"
       transform="matrix(1.3333333,0,0,-1.3333333,1151.7344,331.25893)" />
    <path
       id="path39"
       d="m 0,0 7.659,10.542 -28.743,4.777 z"
       style="fill:#cc142b;fill-opacity:1;fill-rule:nonzero;stroke:none"
       transform="matrix(1.3333333,0,0,-1.3333333,1145.0989,351.684)" />
    <path
       id="path40"
       d="M 0,0 -12.393,-4.027 8.054,-24.786 Z"
       style="fill:#cc142b;fill-opacity:1;fill-rule:nonzero;stroke:none"
       transform="matrix(1.3333333,0,0,-1.3333333,1162.4727,339.0604)" />
    <path
       id="path41"
       d="m 0,0 7.659,10.542 13.425,-25.86 z"
       style="fill:#cc142b;fill-opacity:1;fill-rule:nonzero;stroke:none"
       transform="matrix(1.3333333,0,0,-1.3333333,1145.0989,351.684)" />
    <path
       id="path42"
       d="M 0,0 12.393,-4.027 8.053,24.786 Z"
       style="fill:#cc142b;fill-opacity:1;fill-rule:nonzero;stroke:none"
       transform="matrix(1.3333333,0,0,-1.3333333,1140.9973,339.0604)" />
    <path
       id="path43"
       d="m 0,0 -12.393,-4.027 4.339,28.813 z"
       style="fill:#cc142b;fill-opacity:1;fill-rule:nonzero;stroke:none"
       transform="matrix(1.3333333,0,0,-1.3333333,1162.4727,339.0604)" />
    <path
       id="path44"
       d="M 0,0 12.393,-4.027 -8.054,-24.786 Z"
       style="fill:#cc142b;fill-opacity:1;fill-rule:nonzero;stroke:none"
       transform="matrix(1.3333333,0,0,-1.3333333,1140.9973,339.0604)" />
    <path
       id="path45"
       d="m 0,0 -7.659,10.542 -13.425,-25.86 z"
       style="fill:#cc142b;fill-opacity:1;fill-rule:nonzero;stroke:none"
       transform="matrix(1.3333333,0,0,-1.3333333,1158.3711,351.684)" />
    <path
       id="path46"
       d="M 0,0 V -23.664 L 47.327,0 Z"
       style="fill:#ffffff;fill-opacity:1;fill-rule:nonzero;stroke:none"
       transform="matrix(1.3333333,0,0,-1.3333333,793.86973,372.34027)" />
    <path
       id="path47"
       d="m 0,0 -13.909,19.145 52.197,8.673 z"
       style="fill:#ffffff;fill-opacity:1;fill-rule:nonzero;stroke:none"
       transform="matrix(1.3333333,0,0,-1.3333333,805.92187,409.43147)" />
    <path
       id="path48"
       d="M 0,0 V -23.664 L -47.327,0 Z"
       style="fill:#ffffff;fill-opacity:1;fill-rule:nonzero;stroke:none"
       transform="matrix(1.3333333,0,0,-1.3333333,793.86973,372.34027)" />
    <path
       id="path49"
       d="m 0,0 13.909,19.145 -52.198,8.673 z"
       style="fill:#ffffff;fill-opacity:1;fill-rule:nonzero;stroke:none"
       transform="matrix(1.3333333,0,0,-1.3333333,781.81907,409.43147)" />
    <path
       id="path50"
       d="m 0,0 -22.505,-7.312 37.13,-37.699 z"
       style="fill:#ffffff;fill-opacity:1;fill-rule:nonzero;stroke:none"
       transform="matrix(1.3333333,0,0,-1.3333333,813.36973,386.50827)" />
    <path
       id="path51"
       d="M 0,0 13.909,19.144 38.288,-27.818 Z"
       style="fill:#ffffff;fill-opacity:1;fill-rule:nonzero;stroke:none"
       transform="matrix(1.3333333,0,0,-1.3333333,781.81907,409.43147)" />
    <path
       id="path52"
       d="M 0,0 22.506,-7.312 14.625,45.011 Z"
       style="fill:#ffffff;fill-opacity:1;fill-rule:nonzero;stroke:none"
       transform="matrix(1.3333333,0,0,-1.3333333,774.36973,386.50827)" />
    <path
       id="path53"
       d="m 0,0 -22.506,-7.312 7.881,52.323 z"
       style="fill:#ffffff;fill-opacity:1;fill-rule:nonzero;stroke:none"
       transform="matrix(1.3333333,0,0,-1.3333333,813.36973,386.50827)" />
    <path
       id="path54"
       d="M 0,0 22.506,-7.312 -14.625,-45.011 Z"
       style="fill:#ffffff;fill-opacity:1;fill-rule:nonzero;stroke:none"
       transform="matrix(1.3333333,0,0,-1.3333333,774.36973,386.50827)" />
    <path
       id="path55"
       d="m 0,0 -13.909,19.144 -24.38,-46.962 z"
       style="fill:#ffffff;fill-opacity:1;fill-rule:nonzero;stroke:none"
       transform="matrix(1.3333333,0,0,-1.3333333,805.92187,409.43147)" />
    <path
       id="path56"
       d="M 0,0 V -15.637 L 31.273,0 Z"
       style="fill:#cc142b;fill-opacity:1;fill-rule:nonzero;stroke:none"
       transform="matrix(1.3333333,0,0,-1.3333333,793.86973,379.296)" />
    <path
       id="path57"
       d="m 0,0 -9.19,12.65 34.491,5.732 z"
       style="fill:#cc142b;fill-opacity:1;fill-rule:nonzero;stroke:none"
       transform="matrix(1.3333333,0,0,-1.3333333,801.83333,403.8052)" />
    <path
       id="path58"
       d="M 0,0 V -15.637 L -31.273,0 Z"
       style="fill:#cc142b;fill-opacity:1;fill-rule:nonzero;stroke:none"
       transform="matrix(1.3333333,0,0,-1.3333333,793.86973,379.296)" />
    <path
       id="path59"
       d="m 0,0 9.191,12.65 -34.492,5.732 z"
       style="fill:#cc142b;fill-opacity:1;fill-rule:nonzero;stroke:none"
       transform="matrix(1.3333333,0,0,-1.3333333,785.90627,403.8052)" />
    <path
       id="path60"
       d="M 0,0 -14.871,-4.832 9.664,-29.742 Z"
       style="fill:#cc142b;fill-opacity:1;fill-rule:nonzero;stroke:none"
       transform="matrix(1.3333333,0,0,-1.3333333,806.7552,388.658)" />
    <path
       id="path61"
       d="m 0,0 9.191,12.65 16.11,-31.032 z"
       style="fill:#cc142b;fill-opacity:1;fill-rule:nonzero;stroke:none"
       transform="matrix(1.3333333,0,0,-1.3333333,785.90627,403.8052)" />
    <path
       id="path62"
       d="M 0,0 14.871,-4.832 9.664,29.743 Z"
       style="fill:#cc142b;fill-opacity:1;fill-rule:nonzero;stroke:none"
       transform="matrix(1.3333333,0,0,-1.3333333,780.9844,388.658)" />
    <path
       id="path63"
       d="m 0,0 -14.871,-4.832 5.207,34.575 z"
       style="fill:#cc142b;fill-opacity:1;fill-rule:nonzero;stroke:none"
       transform="matrix(1.3333333,0,0,-1.3333333,806.7552,388.658)" />
    <path
       id="path64"
       d="M 0,0 14.871,-4.832 -9.664,-29.742 Z"
       style="fill:#cc142b;fill-opacity:1;fill-rule:nonzero;stroke:none"
       transform="matrix(1.3333333,0,0,-1.3333333,780.9844,388.658)" />
    <path
       id="path65"
       d="M 0,0 -9.19,12.65 -25.301,-18.382 Z"
       style="fill:#cc142b;fill-opacity:1;fill-rule:nonzero;stroke:none"
       transform="matrix(1.3333333,0,0,-1.3333333,801.83333,403.8052)" />
    <path
       id="path66"
       d="M 0,0 V -26.27 L 52.539,0 Z"
       style="fill:#ffffff;fill-opacity:1;fill-rule:nonzero;stroke:none"
       transform="matrix(1.3333333,0,0,-1.3333333,986.5664,676.58373)" />
    <path
       id="path67"
       d="m 0,0 -15.44,21.253 57.945,9.629 z"
       style="fill:#ffffff;fill-opacity:1;fill-rule:nonzero;stroke:none"
       transform="matrix(1.3333333,0,0,-1.3333333,999.94533,717.7596)" />
    <path
       id="path68"
       d="M 0,0 V -26.27 L -52.539,0 Z"
       style="fill:#ffffff;fill-opacity:1;fill-rule:nonzero;stroke:none"
       transform="matrix(1.3333333,0,0,-1.3333333,986.5664,676.58373)" />
    <path
       id="path69"
       d="m 0,0 15.441,21.253 -57.946,9.629 z"
       style="fill:#ffffff;fill-opacity:1;fill-rule:nonzero;stroke:none"
       transform="matrix(1.3333333,0,0,-1.3333333,973.18747,717.7596)" />
    <path
       id="path70"
       d="m 0,0 -24.984,-8.118 41.219,-41.85 z"
       style="fill:#ffffff;fill-opacity:1;fill-rule:nonzero;stroke:none"
       transform="matrix(1.3333333,0,0,-1.3333333,1008.2148,692.3116)" />
    <path
       id="path71"
       d="M 0,0 15.441,21.252 42.506,-30.882 Z"
       style="fill:#ffffff;fill-opacity:1;fill-rule:nonzero;stroke:none"
       transform="matrix(1.3333333,0,0,-1.3333333,973.18747,717.7596)" />
    <path
       id="path72"
       d="M 0,0 24.983,-8.118 16.235,49.968 Z"
       style="fill:#ffffff;fill-opacity:1;fill-rule:nonzero;stroke:none"
       transform="matrix(1.3333333,0,0,-1.3333333,964.91933,692.3116)" />
    <path
       id="path73"
       d="m 0,0 -24.984,-8.118 8.749,58.086 z"
       style="fill:#ffffff;fill-opacity:1;fill-rule:nonzero;stroke:none"
       transform="matrix(1.3333333,0,0,-1.3333333,1008.2136,692.3116)" />
    <path
       id="path74"
       d="m 0,0 24.983,-8.118 -41.219,-41.85 z"
       style="fill:#ffffff;fill-opacity:1;fill-rule:nonzero;stroke:none"
       transform="matrix(1.3333333,0,0,-1.3333333,964.91933,692.3116)" />
    <path
       id="path75"
       d="M 0,0 -15.441,21.252 -42.506,-30.882 Z"
       style="fill:#ffffff;fill-opacity:1;fill-rule:nonzero;stroke:none"
       transform="matrix(1.3333333,0,0,-1.3333333,999.94533,717.7596)" />
    <path
       id="path76"
       d="M 0,0 V -18.242 L 36.485,0 Z"
       style="fill:#cc142b;fill-opacity:1;fill-rule:nonzero;stroke:none"
       transform="matrix(1.3333333,0,0,-1.3333333,986.5664,683.53947)" />
    <path
       id="path77"
       d="m 0,0 -10.723,14.759 40.241,6.686 z"
       style="fill:#cc142b;fill-opacity:1;fill-rule:nonzero;stroke:none"
       transform="matrix(1.3333333,0,0,-1.3333333,995.8568,712.1332)" />
    <path
       id="path78"
       d="M 0,0 V -18.242 L -36.485,0 Z"
       style="fill:#cc142b;fill-opacity:1;fill-rule:nonzero;stroke:none"
       transform="matrix(1.3333333,0,0,-1.3333333,986.5664,683.53947)" />
    <path
       id="path79"
       d="m 0,0 10.723,14.759 -40.241,6.686 z"
       style="fill:#cc142b;fill-opacity:1;fill-rule:nonzero;stroke:none"
       transform="matrix(1.3333333,0,0,-1.3333333,977.276,712.1332)" />
    <path
       id="path80"
       d="M 0,0 -17.351,-5.638 11.274,-34.7 Z"
       style="fill:#cc142b;fill-opacity:1;fill-rule:nonzero;stroke:none"
       transform="matrix(1.3333333,0,0,-1.3333333,1001.6003,694.46133)" />
    <path
       id="path81"
       d="M 0,0 10.723,14.759 29.518,-21.446 Z"
       style="fill:#cc142b;fill-opacity:1;fill-rule:nonzero;stroke:none"
       transform="matrix(1.3333333,0,0,-1.3333333,977.276,712.1332)" />
    <path
       id="path82"
       d="M 0,0 17.35,-5.638 11.274,34.7 Z"
       style="fill:#cc142b;fill-opacity:1;fill-rule:nonzero;stroke:none"
       transform="matrix(1.3333333,0,0,-1.3333333,971.53387,694.46133)" />
    <path
       id="path83"
       d="M 0,0 -17.35,-5.638 -11.274,34.7 Z"
       style="fill:#cc142b;fill-opacity:1;fill-rule:nonzero;stroke:none"
       transform="matrix(1.3333333,0,0,-1.3333333,1001.5989,694.46133)" />
    <path
       id="path84"
       d="M 0,0 17.35,-5.638 -11.275,-34.7 Z"
       style="fill:#cc142b;fill-opacity:1;fill-rule:nonzero;stroke:none"
       transform="matrix(1.3333333,0,0,-1.3333333,971.53387,694.46133)" />
    <path
       id="path85"
       d="M 0,0 -10.723,14.759 -29.518,-21.446 Z"
       style="fill:#cc142b;fill-opacity:1;fill-rule:nonzero;stroke:none"
       transform="matrix(1.3333333,0,0,-1.3333333,995.8568,712.1332)" />
  </g>
</svg>
