<svg height="400" viewBox="0 0 600 400" width="600" xmlns="http://www.w3.org/2000/svg"><path d="m0 0h450v300h-450z" fill="#fff" transform="matrix(1.3333333 0 0 -1.3333333 0 400)"/><g fill="#005293"><path d="m0 0-11.588-35.665 17.832-5.793z" transform="matrix(1.3333333 0 0 -1.3333333 150 50)"/><path d="m0 0 11.588-35.665-17.832-5.793z" transform="matrix(1.3333333 0 0 -1.3333333 150 50)"/><path d="m0 0h-37.5v-18.75z" transform="matrix(1.3333333 0 0 -1.3333333 197.5528 84.5488)"/><path d="m0 0-30.338-22.042-11.021 15.169z" transform="matrix(1.3333333 0 0 -1.3333333 197.5528 84.5488)"/><path d="m0 0-11.588 35.665-17.832-5.794z" transform="matrix(1.3333333 0 0 -1.3333333 179.38933 140.4512)"/><path d="m0 0-30.338 22.042 11.021 15.169z" transform="matrix(1.3333333 0 0 -1.3333333 179.38933 140.4512)"/><path d="m0 0 30.338 22.042-11.021 15.169z" transform="matrix(1.3333333 0 0 -1.3333333 120.61067 140.4512)"/><path d="m0 0 11.588 35.665 17.832-5.794z" transform="matrix(1.3333333 0 0 -1.3333333 120.61067 140.4512)"/><path d="m0 0 30.338-22.042 11.021 15.169z" transform="matrix(1.3333333 0 0 -1.3333333 102.4472 84.5488)"/><path d="m0 0h37.5v-18.75z" transform="matrix(1.3333333 0 0 -1.3333333 102.4472 84.5488)"/><path d="m0 0h225v150h-225z" transform="matrix(1.3333333 0 0 -1.3333333 0 400)"/></g><g fill="#d21034"><path d="m225 150h225v149.999h-225z" transform="matrix(1.3333333 0 0 -1.3333333 0 400)"/><path d="m0 0-11.588-35.665 17.832-5.794z" transform="matrix(1.3333333 0 0 -1.3333333 450 250)"/><path d="m0 0 11.588-35.665-17.832-5.794z" transform="matrix(1.3333333 0 0 -1.3333333 450 250)"/><path d="m0 0h-37.5v-18.75z" transform="matrix(1.3333333 0 0 -1.3333333 497.55333 284.54947)"/><path d="m0 0-30.339-22.042-11.02 15.169z" transform="matrix(1.3333333 0 0 -1.3333333 497.55333 284.54947)"/><path d="m0 0-11.588 35.664-17.833-5.794z" transform="matrix(1.3333333 0 0 -1.3333333 479.38933 340.45053)"/><path d="m0 0-30.338 22.042 11.021 15.169z" transform="matrix(1.3333333 0 0 -1.3333333 479.38933 340.45053)"/><path d="m0 0 30.338 22.042-11.021 15.169z" transform="matrix(1.3333333 0 0 -1.3333333 420.61067 340.45053)"/><path d="m0 0 11.588 35.664 17.833-5.794z" transform="matrix(1.3333333 0 0 -1.3333333 420.61067 340.45053)"/><path d="m0 0 30.339-22.042 11.02 15.169z" transform="matrix(1.3333333 0 0 -1.3333333 402.44667 284.54947)"/><path d="m0 0h37.5v-18.75z" transform="matrix(1.3333333 0 0 -1.3333333 402.44667 284.54947)"/></g></svg>