<svg height="450.66666" viewBox="0 0 673.81732 450.66666" width="673.81732" xmlns="http://www.w3.org/2000/svg" xmlns:xlink="http://www.w3.org/1999/xlink"><clipPath id="a"><path d="m0 338h505.363v-338h-505.363z" transform="translate(-138.62991 -169.25)"/></clipPath><clipPath id="b"><path d="m0 338h505.363v-338h-505.363z" transform="translate(-33.629901 -169.25)"/></clipPath><clipPath id="c"><path d="m0 338h505.363v-338h-505.363z" transform="translate(-41.129901 -160.8555)"/></clipPath><clipPath id="d"><path d="m0 338h505.363v-338h-505.363z" transform="translate(-41.129901 -177.645)"/></clipPath><clipPath id="e"><path d="m0 338h505.363v-338h-505.363z" transform="translate(-54.497101 -219.63281)"/></clipPath><clipPath id="f"><path d="m0 338h505.363v-338h-505.363z" transform="translate(-53.868202 -208.395)"/></clipPath><clipPath id="g"><path d="m0 338h505.363v-338h-505.363z" transform="translate(-65.734901 -220.26221)"/></clipPath><clipPath id="h"><path d="m0 338h505.363v-338h-505.363z" transform="translate(-104.87991 -240.50001)"/></clipPath><clipPath id="i"><path d="m0 338h505.363v-338h-505.363z" transform="translate(-96.4849 -233.00001)"/></clipPath><clipPath id="j"><path d="m0 338h505.363v-338h-505.363z" transform="translate(-113.2749 -233.00001)"/></clipPath><clipPath id="k"><path d="m0 338h505.363v-338h-505.363z" transform="translate(-155.2632 -219.63281)"/></clipPath><clipPath id="l"><path d="m0 338h505.363v-338h-505.363z" transform="translate(-144.0249 -220.26221)"/></clipPath><clipPath id="m"><path d="m0 338h505.363v-338h-505.363z" transform="translate(-155.8921 -208.395)"/></clipPath><clipPath id="n"><path d="m0 338h505.363v-338h-505.363z" transform="translate(-176.12991 -169.25)"/></clipPath><clipPath id="o"><path d="m0 338h505.363v-338h-505.363z" transform="translate(-168.62991 -177.645)"/></clipPath><clipPath id="p"><path d="m0 338h505.363v-338h-505.363z" transform="translate(-168.62991 -160.8555)"/></clipPath><clipPath id="q"><path d="m0 338h505.363v-338h-505.363z" transform="translate(-155.2632 -118.8672)"/></clipPath><clipPath id="r"><path d="m0 338h505.363v-338h-505.363z" transform="translate(-155.8921 -130.1055)"/></clipPath><clipPath id="s"><path d="m0 338h505.363v-338h-505.363z" transform="translate(-144.0249 -118.2383)"/></clipPath><clipPath id="t"><path d="m0 338h505.363v-338h-505.363z" transform="translate(-104.87991 -98.000002)"/></clipPath><clipPath id="u"><path d="m0 338h505.363v-338h-505.363z" transform="translate(-113.2749 -105.5)"/></clipPath><clipPath id="v"><path d="m0 338h505.363v-338h-505.363z" transform="translate(-96.4849 -105.5)"/></clipPath><clipPath id="w"><path d="m0 338h505.363v-338h-505.363z" transform="translate(-54.497101 -118.8672)"/></clipPath><clipPath id="x"><path d="m0 338h505.363v-338h-505.363z" transform="translate(-65.734901 -118.2383)"/></clipPath><clipPath id="y"><path d="m0 338h505.363v-338h-505.363z" transform="translate(-53.868202 -130.1055)"/></clipPath><clipPath id="z"><path d="m0 338h505.363v-338h-505.363z" transform="translate(-258.415 -169.25)"/></clipPath><clipPath id="A"><path d="m0 338h505.363v-338h-505.363z" transform="translate(-258.415 -169.25)"/></clipPath><clipPath id="B"><path d="m0 338h505.363v-338h-505.363z" transform="translate(-16.754901 -29.726601)"/></clipPath><clipPath id="C"><path d="m0 338h505.363v-338h-505.363z" transform="translate(-16.754901 -29.726601)"/></clipPath><clipPath id="D"><path d="m0 338h505.363v-338h-505.363z" transform="translate(-16.754901 -308.77291)"/></clipPath><clipPath id="E"><path d="m0 338h505.363v-338h-505.363z" transform="translate(-16.754901 -308.77291)"/></clipPath><path d="m0 .5h505.363v337.5h-505.363z" fill="#0038a8" transform="matrix(1.3333333 0 0 -1.3333333 0 450.66667)"/><path d="m0 .5h505.363v168.75h-505.363z" fill="#ce1126" transform="matrix(1.3333333 0 0 -1.3333333 0 450.66667)"/><path d="m0 0 292.165 168.681-292.165 168.681z" fill="#fff" transform="matrix(1.3333333 0 0 -1.3333333 0 449.90733)"/><g fill="#fcd116"><path clip-path="url(#a)" d="m0 0c0-18.641-15.109-33.75-33.75-33.75s-33.75 15.109-33.75 33.75 15.109 33.75 33.75 33.75 33.75-15.109 33.75-33.75" transform="matrix(1.3333333 0 0 -1.3333333 184.83987 225)"/><path clip-path="url(#b)" d="m0 0 4.383-4.383 66.867 4.383-66.867 4.383z" transform="matrix(1.3333333 0 0 -1.3333333 44.839867 225)"/><path clip-path="url(#c)" d="m0 0 3.578-3.574 60.172 11.969z" transform="matrix(1.3333333 0 0 -1.3333333 54.839867 236.19267)"/><path clip-path="url(#d)" d="m0 0 3.578 3.574 60.172-11.969z" transform="matrix(1.3333333 0 0 -1.3333333 54.839867 213.80667)"/><path clip-path="url(#e)" d="m0 0v-6.199l50.383-44.184-44.184 50.383z" transform="matrix(1.3333333 0 0 -1.3333333 72.6628 157.82293)"/><path clip-path="url(#f)" d="m0 0v-5.059l51.012-34.086z" transform="matrix(1.3333333 0 0 -1.3333333 71.824267 172.80667)"/><path clip-path="url(#g)" d="m0 0h5.059l34.086-51.012z" transform="matrix(1.3333333 0 0 -1.3333333 87.646533 156.98373)"/><path clip-path="url(#h)" d="m0 0-4.383-4.383 4.383-66.867 4.383 66.867z" transform="matrix(1.3333333 0 0 -1.3333333 139.83987 130)"/><path clip-path="url(#i)" d="m0 0-3.574-3.578 11.969-60.172z" transform="matrix(1.3333333 0 0 -1.3333333 128.64653 140)"/><path clip-path="url(#j)" d="m0 0 3.574-3.578-11.969-60.172z" transform="matrix(1.3333333 0 0 -1.3333333 151.0332 140)"/><path clip-path="url(#k)" d="m0 0h-6.199l-44.184-50.383 50.383 44.184z" transform="matrix(1.3333333 0 0 -1.3333333 207.0176 157.82293)"/><path clip-path="url(#l)" d="m0 0h-5.059l-34.086-51.012z" transform="matrix(1.3333333 0 0 -1.3333333 192.0332 156.98373)"/><path clip-path="url(#m)" d="m0 0v-5.059l-51.012-34.086z" transform="matrix(1.3333333 0 0 -1.3333333 207.85613 172.80667)"/><path clip-path="url(#n)" d="m0 0-4.383 4.383-66.867-4.383 66.867-4.383z" transform="matrix(1.3333333 0 0 -1.3333333 234.83987 225)"/><path clip-path="url(#o)" d="m0 0-3.578 3.574-60.172-11.969z" transform="matrix(1.3333333 0 0 -1.3333333 224.83987 213.80667)"/><path clip-path="url(#p)" d="m0 0-3.578-3.574-60.172 11.969z" transform="matrix(1.3333333 0 0 -1.3333333 224.83987 236.19267)"/><path clip-path="url(#q)" d="m0 0v6.199l-50.383 44.184 44.184-50.383z" transform="matrix(1.3333333 0 0 -1.3333333 207.0176 292.17707)"/><path clip-path="url(#r)" d="m0 0v5.059l-51.012 34.086z" transform="matrix(1.3333333 0 0 -1.3333333 207.85613 277.19267)"/><path clip-path="url(#s)" d="m0 0h-5.059l-34.086 51.012z" transform="matrix(1.3333333 0 0 -1.3333333 192.0332 293.0156)"/><path clip-path="url(#t)" d="m0 0 4.383 4.383-4.383 66.867-4.383-66.867z" transform="matrix(1.3333333 0 0 -1.3333333 139.83987 320)"/><path clip-path="url(#u)" d="m0 0 3.574 3.578-11.969 60.172z" transform="matrix(1.3333333 0 0 -1.3333333 151.0332 310)"/><path clip-path="url(#v)" d="m0 0-3.574 3.578 11.969 60.172z" transform="matrix(1.3333333 0 0 -1.3333333 128.64653 310)"/><path clip-path="url(#w)" d="m0 0h6.199l44.184 50.383-50.383-44.184z" transform="matrix(1.3333333 0 0 -1.3333333 72.6628 292.17707)"/><path clip-path="url(#x)" d="m0 0h5.059l34.086 51.012z" transform="matrix(1.3333333 0 0 -1.3333333 87.646533 293.0156)"/><path clip-path="url(#y)" d="m0 0v5.059l51.012 34.086z" transform="matrix(1.3333333 0 0 -1.3333333 71.824267 277.19267)"/><path clip-path="url(#z)" d="m0 0-12.683-4.41-.274-13.422-8.113 10.699-12.852-3.887 7.672 11.02z" transform="matrix(1.3333333 0 0 -1.3333333 344.55333 225)"/><path clip-path="url(#A)" d="m0 0-12.683 4.41-.274 13.422-8.113-10.699-12.852 3.887 7.672-11.02z" transform="matrix(1.3333333 0 0 -1.3333333 344.55333 225)"/><path clip-path="url(#B)" d="m0 0 2.523 13.188-11.488 6.949 13.32 1.675 3.059 13.075 5.711-12.153z" transform="matrix(1.3333333 0 0 -1.3333333 22.339867 411.0312)"/><path clip-path="url(#C)" d="m0 0 10.16 8.781 11.762-6.476-5.211 12.375 9.793 9.187-13.379-1.133z" transform="matrix(1.3333333 0 0 -1.3333333 22.339867 411.0312)"/><path clip-path="url(#D)" d="m0 0 10.16-8.781 11.762 6.477-5.211-12.375 9.793-9.188-13.379 1.133z" transform="matrix(1.3333333 0 0 -1.3333333 22.339867 38.969467)"/><path clip-path="url(#E)" d="m0 0 2.523-13.187-11.488-6.949 13.32-1.676 3.059-13.074 5.711 12.152z" transform="matrix(1.3333333 0 0 -1.3333333 22.339867 38.969467)"/></g></svg>