<?xml version="1.0" encoding="UTF-8" standalone="no"?>
<!-- Created with Inkscape (http://www.inkscape.org/) -->

<svg
   version="1.1"
   id="svg1"
   width="673.81732"
   height="450.66666"
   viewBox="0 0 673.81732 450.66666"
   sodipodi:docname="ph.ai"
   xmlns:inkscape="http://www.inkscape.org/namespaces/inkscape"
   xmlns:sodipodi="http://sodipodi.sourceforge.net/DTD/sodipodi-0.dtd"
   xmlns="http://www.w3.org/2000/svg"
   xmlns:svg="http://www.w3.org/2000/svg">
  <defs
     id="defs1">
    <clipPath
       clipPathUnits="userSpaceOnUse"
       id="clipPath5">
      <path
         d="M 0,338 H 505.363 V 0 H 0 Z"
         transform="translate(-138.62991,-169.25)"
         id="path5" />
    </clipPath>
    <clipPath
       clipPathUnits="userSpaceOnUse"
       id="clipPath7">
      <path
         d="M 0,338 H 505.363 V 0 H 0 Z"
         transform="translate(-33.629901,-169.25)"
         id="path7" />
    </clipPath>
    <clipPath
       clipPathUnits="userSpaceOnUse"
       id="clipPath9">
      <path
         d="M 0,338 H 505.363 V 0 H 0 Z"
         transform="translate(-41.129901,-160.8555)"
         id="path9" />
    </clipPath>
    <clipPath
       clipPathUnits="userSpaceOnUse"
       id="clipPath11">
      <path
         d="M 0,338 H 505.363 V 0 H 0 Z"
         transform="translate(-41.129901,-177.645)"
         id="path11" />
    </clipPath>
    <clipPath
       clipPathUnits="userSpaceOnUse"
       id="clipPath13">
      <path
         d="M 0,338 H 505.363 V 0 H 0 Z"
         transform="translate(-54.497101,-219.63281)"
         id="path13" />
    </clipPath>
    <clipPath
       clipPathUnits="userSpaceOnUse"
       id="clipPath15">
      <path
         d="M 0,338 H 505.363 V 0 H 0 Z"
         transform="translate(-53.868202,-208.395)"
         id="path15" />
    </clipPath>
    <clipPath
       clipPathUnits="userSpaceOnUse"
       id="clipPath17">
      <path
         d="M 0,338 H 505.363 V 0 H 0 Z"
         transform="translate(-65.734901,-220.26221)"
         id="path17" />
    </clipPath>
    <clipPath
       clipPathUnits="userSpaceOnUse"
       id="clipPath19">
      <path
         d="M 0,338 H 505.363 V 0 H 0 Z"
         transform="translate(-104.87991,-240.50001)"
         id="path19" />
    </clipPath>
    <clipPath
       clipPathUnits="userSpaceOnUse"
       id="clipPath21">
      <path
         d="M 0,338 H 505.363 V 0 H 0 Z"
         transform="translate(-96.4849,-233.00001)"
         id="path21" />
    </clipPath>
    <clipPath
       clipPathUnits="userSpaceOnUse"
       id="clipPath23">
      <path
         d="M 0,338 H 505.363 V 0 H 0 Z"
         transform="translate(-113.2749,-233.00001)"
         id="path23" />
    </clipPath>
    <clipPath
       clipPathUnits="userSpaceOnUse"
       id="clipPath25">
      <path
         d="M 0,338 H 505.363 V 0 H 0 Z"
         transform="translate(-155.2632,-219.63281)"
         id="path25" />
    </clipPath>
    <clipPath
       clipPathUnits="userSpaceOnUse"
       id="clipPath27">
      <path
         d="M 0,338 H 505.363 V 0 H 0 Z"
         transform="translate(-144.0249,-220.26221)"
         id="path27" />
    </clipPath>
    <clipPath
       clipPathUnits="userSpaceOnUse"
       id="clipPath29">
      <path
         d="M 0,338 H 505.363 V 0 H 0 Z"
         transform="translate(-155.8921,-208.395)"
         id="path29" />
    </clipPath>
    <clipPath
       clipPathUnits="userSpaceOnUse"
       id="clipPath31">
      <path
         d="M 0,338 H 505.363 V 0 H 0 Z"
         transform="translate(-176.12991,-169.25)"
         id="path31" />
    </clipPath>
    <clipPath
       clipPathUnits="userSpaceOnUse"
       id="clipPath33">
      <path
         d="M 0,338 H 505.363 V 0 H 0 Z"
         transform="translate(-168.62991,-177.645)"
         id="path33" />
    </clipPath>
    <clipPath
       clipPathUnits="userSpaceOnUse"
       id="clipPath35">
      <path
         d="M 0,338 H 505.363 V 0 H 0 Z"
         transform="translate(-168.62991,-160.8555)"
         id="path35" />
    </clipPath>
    <clipPath
       clipPathUnits="userSpaceOnUse"
       id="clipPath37">
      <path
         d="M 0,338 H 505.363 V 0 H 0 Z"
         transform="translate(-155.2632,-118.8672)"
         id="path37" />
    </clipPath>
    <clipPath
       clipPathUnits="userSpaceOnUse"
       id="clipPath39">
      <path
         d="M 0,338 H 505.363 V 0 H 0 Z"
         transform="translate(-155.8921,-130.1055)"
         id="path39" />
    </clipPath>
    <clipPath
       clipPathUnits="userSpaceOnUse"
       id="clipPath41">
      <path
         d="M 0,338 H 505.363 V 0 H 0 Z"
         transform="translate(-144.0249,-118.2383)"
         id="path41" />
    </clipPath>
    <clipPath
       clipPathUnits="userSpaceOnUse"
       id="clipPath43">
      <path
         d="M 0,338 H 505.363 V 0 H 0 Z"
         transform="translate(-104.87991,-98.000002)"
         id="path43" />
    </clipPath>
    <clipPath
       clipPathUnits="userSpaceOnUse"
       id="clipPath45">
      <path
         d="M 0,338 H 505.363 V 0 H 0 Z"
         transform="translate(-113.2749,-105.5)"
         id="path45" />
    </clipPath>
    <clipPath
       clipPathUnits="userSpaceOnUse"
       id="clipPath47">
      <path
         d="M 0,338 H 505.363 V 0 H 0 Z"
         transform="translate(-96.4849,-105.5)"
         id="path47" />
    </clipPath>
    <clipPath
       clipPathUnits="userSpaceOnUse"
       id="clipPath49">
      <path
         d="M 0,338 H 505.363 V 0 H 0 Z"
         transform="translate(-54.497101,-118.8672)"
         id="path49" />
    </clipPath>
    <clipPath
       clipPathUnits="userSpaceOnUse"
       id="clipPath51">
      <path
         d="M 0,338 H 505.363 V 0 H 0 Z"
         transform="translate(-65.734901,-118.2383)"
         id="path51" />
    </clipPath>
    <clipPath
       clipPathUnits="userSpaceOnUse"
       id="clipPath53">
      <path
         d="M 0,338 H 505.363 V 0 H 0 Z"
         transform="translate(-53.868202,-130.1055)"
         id="path53" />
    </clipPath>
    <clipPath
       clipPathUnits="userSpaceOnUse"
       id="clipPath55">
      <path
         d="M 0,338 H 505.363 V 0 H 0 Z"
         transform="translate(-258.415,-169.25)"
         id="path55" />
    </clipPath>
    <clipPath
       clipPathUnits="userSpaceOnUse"
       id="clipPath57">
      <path
         d="M 0,338 H 505.363 V 0 H 0 Z"
         transform="translate(-258.415,-169.25)"
         id="path57" />
    </clipPath>
    <clipPath
       clipPathUnits="userSpaceOnUse"
       id="clipPath59">
      <path
         d="M 0,338 H 505.363 V 0 H 0 Z"
         transform="translate(-16.754901,-29.726601)"
         id="path59" />
    </clipPath>
    <clipPath
       clipPathUnits="userSpaceOnUse"
       id="clipPath61">
      <path
         d="M 0,338 H 505.363 V 0 H 0 Z"
         transform="translate(-16.754901,-29.726601)"
         id="path61" />
    </clipPath>
    <clipPath
       clipPathUnits="userSpaceOnUse"
       id="clipPath63">
      <path
         d="M 0,338 H 505.363 V 0 H 0 Z"
         transform="translate(-16.754901,-308.77291)"
         id="path63" />
    </clipPath>
    <clipPath
       clipPathUnits="userSpaceOnUse"
       id="clipPath65">
      <path
         d="M 0,338 H 505.363 V 0 H 0 Z"
         transform="translate(-16.754901,-308.77291)"
         id="path65" />
    </clipPath>
  </defs>
  <sodipodi:namedview
     id="namedview1"
     pagecolor="#ffffff"
     bordercolor="#000000"
     borderopacity="0.25"
     inkscape:showpageshadow="2"
     inkscape:pageopacity="0.0"
     inkscape:pagecheckerboard="0"
     inkscape:deskcolor="#d1d1d1">
    <inkscape:page
       x="0"
       y="0"
       inkscape:label="1"
       id="page1"
       width="673.81732"
       height="450.66666"
       margin="0"
       bleed="0" />
  </sodipodi:namedview>
  <g
     id="layer-MC0"
     inkscape:groupmode="layer"
     inkscape:label="Layer 1">
    <path
       id="path1"
       d="M 0,0.5 H 505.363 V 338 H 0 Z"
       style="fill:#0038a8;fill-opacity:1;fill-rule:nonzero;stroke:none"
       transform="matrix(1.3333333,0,0,-1.3333333,0,450.66667)" />
    <path
       id="path2"
       d="M 0,0.5 H 505.363 V 169.25 H 0 Z"
       style="fill:#ce1126;fill-opacity:1;fill-rule:nonzero;stroke:none"
       transform="matrix(1.3333333,0,0,-1.3333333,0,450.66667)" />
    <path
       id="path3"
       d="M 0,0 292.165,168.681 0,337.362 Z"
       style="fill:#ffffff;fill-opacity:1;fill-rule:nonzero;stroke:none"
       transform="matrix(1.3333333,0,0,-1.3333333,0,449.90733)" />
    <path
       id="path4"
       d="m 0,0 c 0,-18.641 -15.109,-33.75 -33.75,-33.75 -18.641,0 -33.75,15.109 -33.75,33.75 0,18.641 15.109,33.75 33.75,33.75 C -15.109,33.75 0,18.641 0,0"
       style="fill:#fcd116;fill-opacity:1;fill-rule:nonzero;stroke:none"
       transform="matrix(1.3333333,0,0,-1.3333333,184.83987,225)"
       clip-path="url(#clipPath5)" />
    <path
       id="path6"
       d="M 0,0 4.383,-4.383 71.25,0 4.383,4.383 Z"
       style="fill:#fcd116;fill-opacity:1;fill-rule:nonzero;stroke:none"
       transform="matrix(1.3333333,0,0,-1.3333333,44.839867,225)"
       clip-path="url(#clipPath7)" />
    <path
       id="path8"
       d="M 0,0 3.578,-3.574 63.75,8.395 Z"
       style="fill:#fcd116;fill-opacity:1;fill-rule:nonzero;stroke:none"
       transform="matrix(1.3333333,0,0,-1.3333333,54.839867,236.19267)"
       clip-path="url(#clipPath9)" />
    <path
       id="path10"
       d="M 0,0 3.578,3.574 63.75,-8.395 Z"
       style="fill:#fcd116;fill-opacity:1;fill-rule:nonzero;stroke:none"
       transform="matrix(1.3333333,0,0,-1.3333333,54.839867,213.80667)"
       clip-path="url(#clipPath11)" />
    <path
       id="path12"
       d="M 0,0 V -6.199 L 50.383,-50.383 6.199,0 Z"
       style="fill:#fcd116;fill-opacity:1;fill-rule:nonzero;stroke:none"
       transform="matrix(1.3333333,0,0,-1.3333333,72.6628,157.82293)"
       clip-path="url(#clipPath13)" />
    <path
       id="path14"
       d="M 0,0 V -5.059 L 51.012,-39.145 Z"
       style="fill:#fcd116;fill-opacity:1;fill-rule:nonzero;stroke:none"
       transform="matrix(1.3333333,0,0,-1.3333333,71.824267,172.80667)"
       clip-path="url(#clipPath15)" />
    <path
       id="path16"
       d="M 0,0 H 5.059 L 39.145,-51.012 Z"
       style="fill:#fcd116;fill-opacity:1;fill-rule:nonzero;stroke:none"
       transform="matrix(1.3333333,0,0,-1.3333333,87.646533,156.98373)"
       clip-path="url(#clipPath17)" />
    <path
       id="path18"
       d="M 0,0 -4.383,-4.383 0,-71.25 4.383,-4.383 Z"
       style="fill:#fcd116;fill-opacity:1;fill-rule:nonzero;stroke:none"
       transform="matrix(1.3333333,0,0,-1.3333333,139.83987,130)"
       clip-path="url(#clipPath19)" />
    <path
       id="path20"
       d="M 0,0 -3.574,-3.578 8.395,-63.75 Z"
       style="fill:#fcd116;fill-opacity:1;fill-rule:nonzero;stroke:none"
       transform="matrix(1.3333333,0,0,-1.3333333,128.64653,140)"
       clip-path="url(#clipPath21)" />
    <path
       id="path22"
       d="M 0,0 3.574,-3.578 -8.395,-63.75 Z"
       style="fill:#fcd116;fill-opacity:1;fill-rule:nonzero;stroke:none"
       transform="matrix(1.3333333,0,0,-1.3333333,151.0332,140)"
       clip-path="url(#clipPath23)" />
    <path
       id="path24"
       d="M 0,0 H -6.199 L -50.383,-50.383 0,-6.199 Z"
       style="fill:#fcd116;fill-opacity:1;fill-rule:nonzero;stroke:none"
       transform="matrix(1.3333333,0,0,-1.3333333,207.0176,157.82293)"
       clip-path="url(#clipPath25)" />
    <path
       id="path26"
       d="M 0,0 H -5.059 L -39.145,-51.012 Z"
       style="fill:#fcd116;fill-opacity:1;fill-rule:nonzero;stroke:none"
       transform="matrix(1.3333333,0,0,-1.3333333,192.0332,156.98373)"
       clip-path="url(#clipPath27)" />
    <path
       id="path28"
       d="M 0,0 V -5.059 L -51.012,-39.145 Z"
       style="fill:#fcd116;fill-opacity:1;fill-rule:nonzero;stroke:none"
       transform="matrix(1.3333333,0,0,-1.3333333,207.85613,172.80667)"
       clip-path="url(#clipPath29)" />
    <path
       id="path30"
       d="M 0,0 -4.383,4.383 -71.25,0 -4.383,-4.383 Z"
       style="fill:#fcd116;fill-opacity:1;fill-rule:nonzero;stroke:none"
       transform="matrix(1.3333333,0,0,-1.3333333,234.83987,225)"
       clip-path="url(#clipPath31)" />
    <path
       id="path32"
       d="M 0,0 -3.578,3.574 -63.75,-8.395 Z"
       style="fill:#fcd116;fill-opacity:1;fill-rule:nonzero;stroke:none"
       transform="matrix(1.3333333,0,0,-1.3333333,224.83987,213.80667)"
       clip-path="url(#clipPath33)" />
    <path
       id="path34"
       d="M 0,0 -3.578,-3.574 -63.75,8.395 Z"
       style="fill:#fcd116;fill-opacity:1;fill-rule:nonzero;stroke:none"
       transform="matrix(1.3333333,0,0,-1.3333333,224.83987,236.19267)"
       clip-path="url(#clipPath35)" />
    <path
       id="path36"
       d="M 0,0 V 6.199 L -50.383,50.383 -6.199,0 Z"
       style="fill:#fcd116;fill-opacity:1;fill-rule:nonzero;stroke:none"
       transform="matrix(1.3333333,0,0,-1.3333333,207.0176,292.17707)"
       clip-path="url(#clipPath37)" />
    <path
       id="path38"
       d="M 0,0 V 5.059 L -51.012,39.145 Z"
       style="fill:#fcd116;fill-opacity:1;fill-rule:nonzero;stroke:none"
       transform="matrix(1.3333333,0,0,-1.3333333,207.85613,277.19267)"
       clip-path="url(#clipPath39)" />
    <path
       id="path40"
       d="M 0,0 H -5.059 L -39.145,51.012 Z"
       style="fill:#fcd116;fill-opacity:1;fill-rule:nonzero;stroke:none"
       transform="matrix(1.3333333,0,0,-1.3333333,192.0332,293.0156)"
       clip-path="url(#clipPath41)" />
    <path
       id="path42"
       d="M 0,0 4.383,4.383 0,71.25 -4.383,4.383 Z"
       style="fill:#fcd116;fill-opacity:1;fill-rule:nonzero;stroke:none"
       transform="matrix(1.3333333,0,0,-1.3333333,139.83987,320)"
       clip-path="url(#clipPath43)" />
    <path
       id="path44"
       d="M 0,0 3.574,3.578 -8.395,63.75 Z"
       style="fill:#fcd116;fill-opacity:1;fill-rule:nonzero;stroke:none"
       transform="matrix(1.3333333,0,0,-1.3333333,151.0332,310)"
       clip-path="url(#clipPath45)" />
    <path
       id="path46"
       d="M 0,0 -3.574,3.578 8.395,63.75 Z"
       style="fill:#fcd116;fill-opacity:1;fill-rule:nonzero;stroke:none"
       transform="matrix(1.3333333,0,0,-1.3333333,128.64653,310)"
       clip-path="url(#clipPath47)" />
    <path
       id="path48"
       d="M 0,0 H 6.199 L 50.383,50.383 0,6.199 Z"
       style="fill:#fcd116;fill-opacity:1;fill-rule:nonzero;stroke:none"
       transform="matrix(1.3333333,0,0,-1.3333333,72.6628,292.17707)"
       clip-path="url(#clipPath49)" />
    <path
       id="path50"
       d="M 0,0 H 5.059 L 39.145,51.012 Z"
       style="fill:#fcd116;fill-opacity:1;fill-rule:nonzero;stroke:none"
       transform="matrix(1.3333333,0,0,-1.3333333,87.646533,293.0156)"
       clip-path="url(#clipPath51)" />
    <path
       id="path52"
       d="M 0,0 V 5.059 L 51.012,39.145 Z"
       style="fill:#fcd116;fill-opacity:1;fill-rule:nonzero;stroke:none"
       transform="matrix(1.3333333,0,0,-1.3333333,71.824267,277.19267)"
       clip-path="url(#clipPath53)" />
    <path
       id="path54"
       d="M 0,0 -12.683,-4.41 -12.957,-17.832 -21.07,-7.133 -33.922,-11.02 -26.25,0 Z"
       style="fill:#fcd116;fill-opacity:1;fill-rule:nonzero;stroke:none"
       transform="matrix(1.3333333,0,0,-1.3333333,344.55333,225)"
       clip-path="url(#clipPath55)" />
    <path
       id="path56"
       d="M 0,0 -12.683,4.41 -12.957,17.832 -21.07,7.133 -33.922,11.02 -26.25,0 Z"
       style="fill:#fcd116;fill-opacity:1;fill-rule:nonzero;stroke:none"
       transform="matrix(1.3333333,0,0,-1.3333333,344.55333,225)"
       clip-path="url(#clipPath57)" />
    <path
       id="path58"
       d="m 0,0 2.523,13.188 -11.488,6.949 13.32,1.675 3.059,13.075 5.711,-12.153 z"
       style="fill:#fcd116;fill-opacity:1;fill-rule:nonzero;stroke:none"
       transform="matrix(1.3333333,0,0,-1.3333333,22.339867,411.0312)"
       clip-path="url(#clipPath59)" />
    <path
       id="path60"
       d="M 0,0 10.16,8.781 21.922,2.305 16.711,14.68 26.504,23.867 13.125,22.734 Z"
       style="fill:#fcd116;fill-opacity:1;fill-rule:nonzero;stroke:none"
       transform="matrix(1.3333333,0,0,-1.3333333,22.339867,411.0312)"
       clip-path="url(#clipPath61)" />
    <path
       id="path62"
       d="m 0,0 10.16,-8.781 11.762,6.477 -5.211,-12.375 9.793,-9.188 -13.379,1.133 z"
       style="fill:#fcd116;fill-opacity:1;fill-rule:nonzero;stroke:none"
       transform="matrix(1.3333333,0,0,-1.3333333,22.339867,38.969467)"
       clip-path="url(#clipPath63)" />
    <path
       id="path64"
       d="m 0,0 2.523,-13.187 -11.488,-6.949 13.32,-1.676 3.059,-13.074 5.711,12.152 z"
       style="fill:#fcd116;fill-opacity:1;fill-rule:nonzero;stroke:none"
       transform="matrix(1.3333333,0,0,-1.3333333,22.339867,38.969467)"
       clip-path="url(#clipPath65)" />
  </g>
</svg>
