<?xml version="1.0" encoding="UTF-8" standalone="no"?>
<!-- Created with Inkscape (http://www.inkscape.org/) -->

<svg
   version="1.1"
   id="svg1"
   width="902.07068"
   height="600"
   viewBox="0 0 902.07068 600"
   sodipodi:docname="pg.ai"
   xmlns:inkscape="http://www.inkscape.org/namespaces/inkscape"
   xmlns:sodipodi="http://sodipodi.sourceforge.net/DTD/sodipodi-0.dtd"
   xmlns="http://www.w3.org/2000/svg"
   xmlns:svg="http://www.w3.org/2000/svg">
  <defs
     id="defs1">
    <clipPath
       clipPathUnits="userSpaceOnUse"
       id="clipPath4">
      <path
         d="M 0,450 H 676.553 V 0 H 0 Z"
         transform="translate(-556.15621,-285.35251)"
         id="path4" />
    </clipPath>
    <clipPath
       clipPathUnits="userSpaceOnUse"
       id="clipPath6">
      <path
         d="M 0,450 H 676.553 V 0 H 0 Z"
         transform="translate(-218.75001,-228.90621)"
         id="path6" />
    </clipPath>
    <clipPath
       clipPathUnits="userSpaceOnUse"
       id="clipPath8">
      <path
         d="M 0,450 H 676.553 V 0 H 0 Z"
         transform="translate(-150.3267,-103.9063)"
         id="path8" />
    </clipPath>
    <clipPath
       clipPathUnits="userSpaceOnUse"
       id="clipPath10">
      <path
         d="M 0,450 H 676.553 V 0 H 0 Z"
         transform="translate(-181.0225,-151.7598)"
         id="path10" />
    </clipPath>
    <clipPath
       clipPathUnits="userSpaceOnUse"
       id="clipPath12">
      <path
         d="M 0,450 H 676.553 V 0 H 0 Z"
         transform="translate(-150.3267,-310.54981)"
         id="path12" />
    </clipPath>
    <clipPath
       clipPathUnits="userSpaceOnUse"
       id="clipPath14">
      <path
         d="M 0,450 H 676.553 V 0 H 0 Z"
         transform="translate(-81.5767,-222.6562)"
         id="path14" />
    </clipPath>
  </defs>
  <sodipodi:namedview
     id="namedview1"
     pagecolor="#ffffff"
     bordercolor="#000000"
     borderopacity="0.25"
     inkscape:showpageshadow="2"
     inkscape:pageopacity="0.0"
     inkscape:pagecheckerboard="0"
     inkscape:deskcolor="#d1d1d1">
    <inkscape:page
       x="0"
       y="0"
       inkscape:label="1"
       id="page1"
       width="902.07068"
       height="600"
       margin="0"
       bleed="0" />
  </sodipodi:namedview>
  <g
     id="layer-MC0"
     inkscape:groupmode="layer"
     inkscape:label="Layer 1">
    <path
       id="path1"
       d="M 0,0 H 676.552 V 450 H 0 Z"
       style="fill:#000000;fill-opacity:1;fill-rule:nonzero;stroke:none"
       transform="matrix(1.3333333,0,0,-1.3333333,0,600)" />
    <path
       id="path2"
       d="M 0,0 676.552,-450 V 0 Z"
       style="fill:#ce1126;fill-opacity:1;fill-rule:nonzero;stroke:none"
       transform="scale(1.3333333,-1.3333333)" />
    <path
       id="path3"
       d="m 0,0 c 6.281,-6.281 48.68,-34.547 48.68,-69.094 0,-34.547 -30.884,-33.501 -39.782,-32.453 9.946,-8.375 47.633,-6.805 47.633,32.453 C 56.531,-34.547 7.852,0 1.57,3.141 -4.711,6.281 -6.281,6.281 0,0 m -76.684,36.902 c -4.431,-5.723 -14.918,5.758 -27.48,6.02 -12.563,0.263 -21.462,-12.039 -25.125,-16.227 -3.664,-4.188 -15.441,-26.171 -15.18,-28.527 0.262,-2.355 7.329,6.543 9.946,8.113 0.261,-3.14 -2.879,-6.804 -2.094,-7.851 0.785,-1.047 9.159,6.281 12.039,6.543 0.785,-2.095 -1.57,-4.188 -0.785,-7.328 1.047,-1.047 5.758,5.234 8.898,6.542 0.524,-2.355 -2.879,-6.805 -1.047,-9.683 1.309,-0.261 9.159,8.898 11.778,9.946 2.617,1.047 -1.31,-8.637 0,-9.422 2.355,1.57 9.683,9.945 12.039,10.992 2.355,1.046 -0.261,-10.731 0.785,-10.731 2.879,2.094 10.207,12.039 10.992,13.609 0.785,1.571 -0.785,-15.179 7.328,-24.078 8.113,-8.899 20.415,-19.105 21.723,-19.105 1.57,2.879 -0.523,8.898 0.785,8.637 3.664,-3.926 10.469,-9.684 12.039,-9.684 1.57,0 -1.048,6.281 1.047,6.281 4.187,-3.926 16.226,-19.367 39.781,-26.433 -1.57,4.449 -4.973,8.375 -5.234,10.468 1.57,-0.261 7.067,-2.879 8.113,-2.617 1.047,0.262 -11.516,15.703 -10.73,17.797 2.879,0.262 4.188,-1.57 5.234,-0.261 -1.309,2.093 -12.301,14.394 -12.301,17.273 0,2.879 3.404,-0.524 4.449,0 1.047,0.524 -4.186,11.516 -3.14,12.824 1.047,1.308 12.561,-7.066 15.441,-7.066 2.879,0 0.785,10.207 2.094,10.731 1.309,0.523 10.993,-5.497 13.086,-5.497 2.094,0 1.832,4.45 2.617,3.926 C 21.199,1.57 43.969,-21.199 36.117,-47.895 28.266,-67 12.563,-77.207 -10.469,-68.832 c 1.309,-2.094 13.61,-12.301 26.957,-8.637 13.348,3.664 29.574,14.133 27.742,40.304 -1.832,26.172 -10.469,29.836 -11.777,33.762 -1.308,3.926 2.095,-1.046 4.973,-2.094 2.879,-1.047 -0.524,5.497 -1.309,8.376 -0.785,2.879 8.637,-6.02 10.992,-6.805 2.356,-0.785 -5.496,21.461 -7.851,23.031 -2.356,1.571 2.355,-0.522 3.926,-1.046 1.57,-0.524 -14.396,24.339 -17.797,24.339 -3.403,0 2.878,1.31 4.711,1.31 1.832,0 -18.32,16.226 -21.723,16.226 -3.402,0 7.327,4.189 8.375,4.45 1.832,-0.261 -23.293,13.347 -45.801,-0.261 -1.308,1.045 10.601,9.289 10.992,12.822 0.131,0.917 -3.924,2.88 -4.187,3.926 -0.262,1.047 6.281,4.188 6.543,6.543 -1.57,2.094 -4.449,1.309 -6.02,1.832 -0.391,1.962 5.497,6.805 4.973,8.898 -0.393,1.178 -4.712,1.57 -5.758,0.785 -1.047,-0.785 2.749,5.496 2.094,7.328 -0.523,0.785 -2.617,0.262 -4.711,-0.261 -1.309,0.261 6.805,11.515 5.234,13.086 -1.57,1.57 -23.555,-11.516 -31.668,-26.172 -8.113,-14.657 -1.831,-26.434 -2.879,-31.406 -1.046,-4.973 -2.356,-9.946 -5.757,-9.946 -3.403,0 -11.253,5.235 -13.871,7.852 -2.618,2.617 -3.141,4.449 -6.805,5.496 -3.664,1.047 -12.039,-2.094 -15.18,-2.356 -3.14,-0.261 -15.441,2.356 -16.226,1.571 -0.786,-0.786 12.039,-5.496 14.918,-7.067 2.879,-1.57 3.141,-3.664 5.234,-4.972 2.094,-1.308 21.723,-7.066 15.441,-15.18"
       style="fill:#fcd116;fill-opacity:1;fill-rule:nonzero;stroke:none"
       transform="matrix(1.3333333,0,0,-1.3333333,741.5416,219.53)"
       clip-path="url(#clipPath4)" />
    <path
       id="path5"
       d="M 0,0 6.562,-22.531 H 29.233 L 11.334,-36.302 17.897,-58.206 0,-44.437 -17.897,-57.58 l 6.562,21.278 -17.898,13.771 h 22.074 z"
       style="fill:#ffffff;fill-opacity:1;fill-rule:nonzero;stroke:none"
       transform="matrix(1.3333333,0,0,-1.3333333,291.66667,294.79173)"
       clip-path="url(#clipPath6)" />
    <path
       id="path7"
       d="M 0,0 6.562,-22.531 H 29.233 L 11.334,-36.302 17.897,-58.206 0,-44.437 -17.898,-57.58 l 6.563,21.278 -17.898,13.771 H -7.16 Z"
       style="fill:#ffffff;fill-opacity:1;fill-rule:nonzero;stroke:none"
       transform="matrix(1.3333333,0,0,-1.3333333,200.4356,461.45827)"
       clip-path="url(#clipPath8)" />
    <path
       id="path9"
       d="m 0,0 3.281,-11.266 h 11.336 l -8.95,-6.885 3.282,-10.953 -8.949,6.885 -8.949,-6.571 3.282,10.639 -8.949,6.885 H -3.58 Z"
       style="fill:#ffffff;fill-opacity:1;fill-rule:nonzero;stroke:none"
       transform="matrix(1.3333333,0,0,-1.3333333,241.36333,397.6536)"
       clip-path="url(#clipPath10)" />
    <path
       id="path11"
       d="M 0,0 6.562,-22.531 H 29.233 L 11.334,-36.301 17.897,-58.206 0,-44.437 -17.898,-57.58 l 6.563,21.279 -17.898,13.77 H -7.16 Z"
       style="fill:#ffffff;fill-opacity:1;fill-rule:nonzero;stroke:none"
       transform="matrix(1.3333333,0,0,-1.3333333,200.4356,185.9336)"
       clip-path="url(#clipPath12)" />
    <path
       id="path13"
       d="M 0,0 6.562,-22.531 H 29.233 L 11.334,-36.302 17.897,-58.206 0,-44.437 -17.898,-57.58 l 6.563,21.278 -17.898,13.771 H -7.16 Z"
       style="fill:#ffffff;fill-opacity:1;fill-rule:nonzero;stroke:none"
       transform="matrix(1.3333333,0,0,-1.3333333,108.76893,303.12507)"
       clip-path="url(#clipPath14)" />
  </g>
</svg>
