<svg height="600" viewBox="0 0 899.84003 600" width="899.84003" xmlns="http://www.w3.org/2000/svg" xmlns:xlink="http://www.w3.org/1999/xlink"><clipPath id="a"><path d="m0 0h674.88v450h-674.88z" transform="translate(.1201 -135)"/></clipPath><path d="m0 0h674.88v450h-674.88z" fill="#ed0000" transform="matrix(1.3333333 0 0 -1.3333333 0 600)"/><path d="m0 0h674.88zm0-180h674.88z" transform="matrix(1.3333333 0 0 -1.3333333 0 180)"/><path clip-path="url(#a)" d="m0 0h675m-675 180h675" fill="none" stroke="#fff" stroke-width="90" transform="matrix(1.3333333 0 0 -1.3333333 -.160133 420)"/><path d="m0 0 389.591 224.931-389.591 224.931z" fill="#0050f0" transform="matrix(1.3333333 0 0 -1.3333333 0 599.90787)"/><g fill="#fff"><path d="m0 0-23.175-71.328 35.664-11.59z" transform="matrix(1.3333333 0 0 -1.3333333 173.04293 200)"/><path d="m0 0 23.18-71.328-35.668-11.59z" transform="matrix(1.3333333 0 0 -1.3333333 173.04293 200)"/><path d="m0 0h-75v-37.5z" transform="matrix(1.3333333 0 0 -1.3333333 268.15173 269.09893)"/><path d="m0 0-60.675-44.082-22.043 30.336z" transform="matrix(1.3333333 0 0 -1.3333333 268.15173 269.09893)"/><path d="m0 0 60.676-44.082 22.043 30.336z" transform="matrix(1.3333333 0 0 -1.3333333 77.9388 269.09893)"/><path d="m0 0h75v-37.5z" transform="matrix(1.3333333 0 0 -1.3333333 77.9388 269.09893)"/><path d="m0 0-23.176 71.328-35.664-11.586z" transform="matrix(1.3333333 0 0 -1.3333333 231.82427 380.90107)"/><path d="m0 0-60.676 44.082 22.04 30.34z" transform="matrix(1.3333333 0 0 -1.3333333 231.82427 380.90107)"/><g transform="matrix(1.3333333 0 0 -1.3333333 114.26693 380.90107)"><path d="m0 0 60.676 44.082-22.043 30.34z"/><path d="m0 0 23.176 71.328 35.664-11.586z"/></g></g></svg>