<?xml version="1.0" encoding="UTF-8" standalone="no"?>
<!-- Created with Inkscape (http://www.inkscape.org/) -->

<svg
   version="1.1"
   id="svg1"
   width="1000"
   height="666.66669"
   viewBox="0 0 1000 666.66669"
   sodipodi:docname="sa.ai"
   xmlns:inkscape="http://www.inkscape.org/namespaces/inkscape"
   xmlns:sodipodi="http://sodipodi.sourceforge.net/DTD/sodipodi-0.dtd"
   xmlns="http://www.w3.org/2000/svg"
   xmlns:svg="http://www.w3.org/2000/svg">
  <defs
     id="defs1">
    <clipPath
       clipPathUnits="userSpaceOnUse"
       id="clipPath3">
      <path
         d="M 0,500 H 750 V 0 H 0 Z"
         transform="translate(-471.86821,-133.8311)"
         id="path3" />
    </clipPath>
  </defs>
  <sodipodi:namedview
     id="namedview1"
     pagecolor="#ffffff"
     bordercolor="#000000"
     borderopacity="0.25"
     inkscape:showpageshadow="2"
     inkscape:pageopacity="0.0"
     inkscape:pagecheckerboard="0"
     inkscape:deskcolor="#d1d1d1">
    <inkscape:page
       x="0"
       y="0"
       inkscape:label="1"
       id="page1"
       width="1000"
       height="666.66669"
       margin="0"
       bleed="0" />
  </sodipodi:namedview>
  <g
     id="layer-MC0"
     inkscape:groupmode="layer"
     inkscape:label="Layer 1">
    <path
       id="path1"
       d="M 0,0 H 750 V 500 H 0 Z"
       style="fill:#006c35;fill-opacity:1;fill-rule:nonzero;stroke:none"
       transform="matrix(1.3333333,0,0,-1.3333333,0,666.66667)" />
    <path
       id="path2"
       d="m 0,0 c 0.011,0.005 0.021,-0.005 0.031,0 9.132,-0.445 17.712,-0.086 26.844,-0.531 1.447,-1.231 0.724,-4.049 -0.219,-4.563 -0.042,-0.021 -0.113,-0.051 -0.156,-0.062 -0.034,-0.008 -0.091,10e-4 -0.125,0 -0.034,10e-4 -0.091,-0.008 -0.125,0 -2.97,0.074 -4.687,0.143 -7.656,0.219 -0.005,0.147 -0.022,0.306 -0.063,0.437 -0.704,2.086 -5.801,1.946 -7,0.313 -0.016,-0.024 -0.048,-0.07 -0.062,-0.094 -0.02,-0.032 -0.046,-0.092 -0.063,-0.125 -0.019,-0.042 -0.048,-0.113 -0.062,-0.156 -0.019,-0.062 -0.023,-0.154 -0.031,-0.219 -0.008,-0.075 -0.039,-0.171 -0.032,-0.25 C 7.272,-5.513 3.665,-4.898 -0.344,-4.75 -1.52,-3.286 -1.382,-0.637 0,0 m -4.25,22.594 c -0.008,-0.004 -0.023,-0.026 -0.031,-0.032 -5.928,-1.52 -5.743,-7.674 -1.938,-10.374 -62.594,0 -158.65,1.062 -179.25,1.062 -11.525,0 -47.987,1.375 -48.688,1.375 7.82,-11.437 19.147,-13.766 33.969,-14 27.802,0 156.621,0.344 193.28,0.344 -2.606,-4.627 0.237,-12.074 2.281,-13.438 0.044,-0.028 0.114,-0.072 0.156,-0.094 0.076,-0.038 0.177,-0.075 0.25,-0.093 0.025,-0.006 0.071,0.003 0.094,0 2.428,-0.573 3.495,1.184 4.313,2.468 3.937,-0.346 26.097,-0.667 28.125,0.032 0.006,0.003 0.024,0.028 0.031,0.031 1.372,-2.02 2.733,-3.927 5.344,-3.594 4.569,0.98 8.168,1.477 8.281,10.75 0,0 -0.467,15.802 -10.844,14.812 -2.455,-0.371 -9.344,-1.063 -9.344,-1.063 -7.971,0.949 -13.819,1.046 -22.781,1.375 0.827,1.051 2.288,5.304 0.5,6.844 -0.466,0.388 -1.161,0.604 -2.125,0.531 h -0.031 c -0.014,10e-4 -0.049,-0.002 -0.063,0 -0.007,0.002 -0.024,0.03 -0.031,0.032 -0.025,0.008 -0.069,0.016 -0.094,0.031 -0.048,0.033 -0.111,0.103 -0.156,0.156 -0.011,0.014 -0.052,0.048 -0.062,0.063 -0.454,0.66 -0.701,2.277 -1,2.687 l -0.032,0.031 c -0.004,0.003 -0.027,0.029 -0.031,0.032 -0.011,0.006 -0.051,0.027 -0.062,0.031 H -4.22 c -0.005,-0.001 -0.028,0.001 -0.031,0 z m 53.54,108.4 c -0.742,-0.023 -1.524,-0.126 -2.656,-0.219 -1.225,-0.26 -1.653,-0.796 -1.875,-2.281 0.088,-2.252 1.465,-2.14 2.875,-3.031 0.816,-1.04 1.347,-1.98 -0.063,-3.688 -1.337,-1.224 -2.289,-1.9 -3.625,-3.125 -0.631,-1.076 -1.024,-2.73 0.907,-3.25 3.563,-1.002 11.811,4.357 11.811,4.469 1.337,1.002 0.894,2.906 0.781,2.906 -0.778,0.891 -2.537,0.356 -3.718,0.5 -0.563,0 -2.41,0.274 -1.532,1.907 0.734,1.015 1.004,1.623 1.5,2.875 0.557,1.224 0.068,2.05 -1.937,2.718 -1.021,0.185 -1.727,0.242 -2.469,0.219 z m -128.16,4.781 c -0.437,0.023 -0.902,-0.045 -1.375,-0.281 -0.093,0 -4.206,-2.782 -5.531,-4.719 -0.809,-0.615 -0.717,-1.15 -0.469,-2.219 0.63,-1.448 1.74,-0.993 3,-0.312 1.672,0.228 2.48,-0.868 2.344,-2.875 -0.773,-2.504 0.343,-3.437 0.343,-3.594 0,-0.157 1.611,-1.539 3.5,-0.438 3.99,1.523 6.476,3.005 12.063,4.219 1.466,0.029 1.382,3.954 -0.938,4.094 -3.026,-0.152 -5.818,-0.307 -8.843,-2.688 -1.863,-0.43 -2.181,0.703 -2.595,1.719 -0.473,2.521 1.065,4.298 0.75,6.188 0.084,-0.083 -0.939,0.836 -2.25,0.906 z m -200.16,12.29 c -0.249,-0.008 -0.746,-0.751 -1.407,-1.594 -5.875,-9.36 -6.397,-23.331 -3.156,-27.5 1.723,-1.969 4.563,-2.835 6.656,-2.219 3.692,1.601 5.314,9.078 4.438,11.812 -1.231,1.929 -2.208,2.234 -3.438,0.594 -2.597,-5.273 -3.678,-1.666 -3.906,1.281 -0.398,5.589 0.144,10.736 0.75,14.812 0.323,2.089 0.312,2.821 0.063,2.813 z m 155.94,6.781 c 0.118,0.008 0.221,0 0.343,0 h 0.063 c 3.979,-1.081 9.846,-1.193 14.938,-1.719 4.148,-0.263 6.197,-3.51 2.312,-4.875 -3.832,-1.312 -7.513,-2.337 -7.531,-7.875 0.504,-2.743 0.398,-4.182 -0.031,-4.843 -0.033,-0.05 -0.087,-0.116 -0.125,-0.157 -0.005,-0.005 -0.025,-0.025 -0.031,-0.031 -0.006,-0.005 -0.026,-0.026 -0.031,-0.031 -0.006,-0.005 -0.025,-0.026 -0.031,-0.031 l -0.032,-0.032 c -0.01,-0.004 -0.051,-0.025 -0.062,-0.031 -0.056,-0.034 -0.127,-0.071 -0.188,-0.093 -0.053,-0.019 -0.13,-0.022 -0.187,-0.031 -0.911,-0.134 -2.234,0.735 -3.219,1.25 -2.363,1.696 -8.993,5.805 -9.937,14.625 -0.135,1.99 1.355,3.706 3.75,3.875 z m -63.844,8.719 c -1.552,-0.108 -2.937,-0.938 -2.313,-3.125 -0.093,-1.586 4.386,-3.516 4.657,-7.188 0.64,-1.513 -0.958,-6.361 0.375,-6.812 1.223,-0.504 2.921,3.352 3.562,6.937 0.355,1.965 -1.536,8.836 -4.75,10.062 -0.493,0.107 -1.014,0.162 -1.531,0.125 z m 213.31,9.625 c -1.756,-0.216 -3.426,-1.877 -2.656,-4.531 -0.482,-1.559 2.382,-7.012 3.125,-9.907 0.668,-2.06 -0.861,-7.887 0.531,-8.5 1.281,-0.686 4.65,3.46 4.531,8.657 0.371,2.672 -0.953,12.517 -4.312,14.188 -0.387,0.108 -0.814,0.144 -1.219,0.093 z m -251.16,3.93 c 0.968,-0.011 1.989,-0.489 2.531,-1.844 0.488,-1.242 0.023,-2.542 -0.562,-3.187 -0.003,-0.005 0.003,-0.027 0,-0.031 -0.009,-0.015 -0.022,-0.049 -0.032,-0.063 -0.414,-0.534 -1.869,-0.312 -2.906,-0.312 -1.254,0.055 -1.872,0.261 -2.625,1.281 -0.36,1.134 0.736,2.248 1.219,3.094 0.005,0.007 0.026,0.023 0.031,0.031 0.052,0.078 0.138,0.173 0.219,0.25 0.375,0.343 1.023,0.664 1.719,0.75 0.135,0.016 0.268,0.033 0.406,0.031 m -32,4.438 c -9.876,-0.181 -24.338,-12.946 -24.719,-20.032 10.421,5.005 20.657,9.822 31.25,15 -1.71,2.553 -0.104,4.852 -6.531,5.032 m 166.91,3.437 c 0.777,0.083 1.798,-0.182 2.781,-0.75 1.423,-0.823 2.3,-2.066 2.188,-2.969 -0.004,-0.024 0.005,-0.069 0,-0.093 -0.006,-0.024 -0.056,-0.071 -0.063,-0.094 -0.008,-0.023 -0.022,-0.071 -0.031,-0.094 -0.006,-0.015 -0.024,-0.048 -0.031,-0.062 -0.007,-0.015 -0.024,-0.049 -0.032,-0.063 -0.046,-0.076 -0.124,-0.156 -0.187,-0.219 -0.684,-0.638 -2.263,-0.547 -3.75,0.313 -1.41,0.815 -2.281,2.068 -2.188,2.969 0.003,0.025 0.027,0.069 0.032,0.093 0.023,0.112 0.067,0.214 0.125,0.313 0.02,0.035 0.038,0.093 0.062,0.125 0.005,0.006 0.027,0.025 0.031,0.031 0.042,0.049 0.106,0.115 0.157,0.156 0.226,0.179 0.548,0.306 0.906,0.344 m 119.96,2.01 c -0.104,0.018 -0.223,0.012 -0.344,-0.031 0,0 -19.059,-13.559 -19.531,-14.031 -1.89,-1.68 -0.944,-7.589 0,-6.906 1.366,-0.525 20.554,12.478 20.188,14 0.836,-0.05 1.239,6.689 -0.312,6.968 z m -137.97,5.656 c -0.743,-0.128 -1.459,-0.74 -1.719,-1.75 -0.163,-0.661 0.317,-1.761 -0.281,-2.094 -0.344,-0.346 -1.679,-0.145 -1.625,1.688 0,0.583 -0.429,1.224 -0.688,1.594 -0.26,0.17 -0.404,0.218 -0.875,0.218 -0.573,-0.023 -0.592,-0.174 -0.906,-0.656 -0.133,-0.491 -0.313,-0.974 -0.313,-1.531 -0.071,-0.652 -0.301,-0.873 -0.781,-0.969 -0.536,0 -0.409,-0.058 -0.844,0.219 -0.257,0.282 -0.593,0.393 -0.593,0.875 0,0.499 -0.1,1.295 -0.25,1.625 -0.228,0.3 -0.619,0.426 -1.032,0.531 -2.246,-0.008 -2.378,-2.558 -2.25,-3.531 -0.168,-0.183 -0.282,-4.79 2.782,-6.063 4.113,-1.961 13.916,-0.806 11.531,5.532 0,0.587 -0.161,2.556 -0.219,3.093 -0.42,0.978 -1.195,1.348 -1.937,1.22 z m -34.188,5.375 c -0.054,-0.019 -0.107,-0.065 -0.157,-0.094 -0.023,-0.014 -0.069,-0.045 -0.093,-0.062 -0.402,-0.302 -0.877,-0.999 -1.938,-1.75 -1.789,-2.035 -2.109,-3.452 -2,-7.531 0.102,-0.432 3.397,-9.592 6.188,-16.031 1.882,-6.693 3.623,-14.356 2.343,-21.594 -4.405,-9.569 -13.262,-18.15 -21.811,-22.812 -4.356,-1.395 -8.118,-0.92 -9.125,0.031 -0.008,0.008 -0.024,0.024 -0.031,0.031 -2.502,1.682 -2.559,4.676 -2.407,5.188 v 0.031 c 0.006,0.006 0.026,0.026 0.032,0.031 7.214,5.025 15.453,9.091 21.905,22.656 1.906,5.184 2.487,8.297 0.594,16.312 -0.738,2.987 -1.649,5.445 -3.687,7.563 0.005,0.006 0.026,0.025 0.031,0.031 1.228,0.588 4.414,-1.76 4.906,-0.282 -0.754,3.828 -3.346,8.966 -6.281,11.595 -2.57,2.334 -5.366,2.604 -7.719,0.468 -2.65,-1.474 -3.213,-6.77 -1.937,-11.406 1.417,-3.489 5.243,-4.101 7.968,-11.125 0,-0.007 0,-0.029 0,-0.031 0.057,-0.44 0.936,-5.242 -0.437,-7.187 -1.114,-3.475 -15.424,-14.759 -16.438,-15.438 -0.011,-0.011 -0.083,-0.052 -0.094,-0.063 -0.006,-0.006 -0.026,-0.026 -0.031,-0.031 -0.003,-0.002 -0.024,-0.025 -0.031,-0.031 l -0.032,-0.031 c -0.002,0 -0.027,-10e-4 -0.03,0 h -0.032 c -0.006,0.005 -0.025,0.025 -0.031,0.031 v 0.031 c -0.006,0.011 -0.026,0.051 -0.031,0.063 -0.043,0.281 0.033,0.999 0,2.156 -0.094,2.114 0.781,6.897 0.719,7.719 v 0.031 c -0.006,0.006 -0.026,0.025 -0.032,0.031 v 0.031 h -0.031 c -4.73,-3.054 -6.292,-12.416 -7.156,-15.188 -11.975,-8.274 -25.574,-14.43 -33.406,-22.812 -4.079,-6.37 28.104,7.315 31.844,8.969 0.032,-0.024 0.064,-0.063 0.094,-0.094 0.711,-0.782 0.771,-3.51 2.906,-5.969 3.345,-4.532 10.456,-7.322 17.375,-5.594 11.603,4.195 18.288,12.102 25.094,20.875 0.973,1.415 2.497,2.531 3.906,1.438 4.677,-10.47 18.161,-17.92 35.594,-18.688 4.034,4.906 2.105,7.318 0.468,8.344 -0.503,0.335 -8.669,3.518 -9.937,6.687 -0.798,2.949 1.143,5.565 5.032,7.531 11.193,1.354 22.195,2.858 32.844,6.282 0.107,3.577 2.215,8.926 3.625,11.25 0.978,1.612 1.608,1.771 1.844,2 0.007,0.008 0.024,0.023 0.031,0.031 0.003,0.004 0.028,0.027 0.031,0.031 0.006,0.005 0.026,0.026 0.031,0.031 v 0.063 c 0.006,0.071 -0.001,0.193 -0.031,0.312 l -1.812,1.063 -35.72,0.156 c -0.441,0.17 -0.769,0.34 -0.968,0.5 -0.015,0.013 -0.049,0.05 -0.063,0.063 -0.006,0.006 -0.025,0.025 -0.031,0.031 -0.006,0.006 -0.026,0.025 -0.031,0.031 -0.005,0.011 -0.027,0.051 -0.032,0.063 l -0.031,0.031 v 0.031 c -0.003,0.003 -0.027,0.028 -0.031,0.031 v 0.031 0.031 0.032 c 0,0.005 0,0.026 0,0.031 0,0.002 0,0.024 0,0.031 0,0.003 0,0.028 0,0.031 0,0.003 0,0.028 0,0.032 0,0.003 0,0.027 0,0.031 0.006,0.006 0.025,0.025 0.031,0.031 0.008,0.016 0.021,0.046 0.031,0.063 0.175,0.235 0.598,0.456 1.125,0.656 8.529,1.162 23.683,3.646 24.688,18.219 -0.157,7.59 -3.248,12.561 -12.561,13.938 -6.845,-0.53 -11.726,-7.149 -10.939,-14.438 -0.327,-1.963 0.664,-5.814 -1.343,-6.25 -13.128,-1.2 -27.457,-9.425 -27.938,-15.312 -0.003,0 -0.029,0 -0.032,0 -0.004,-0.006 -0.025,-0.026 -0.031,-0.032 l -0.062,-0.031 c -0.011,0.001 -0.052,0 -0.063,0 -0.021,-0.007 -0.072,-0.025 -0.094,-0.031 -0.005,-0.001 -0.023,0 -0.03,0 -0.018,0 -0.051,0 -0.063,0 -0.006,0 -0.023,0 -0.031,0 -0.013,0 -0.052,-0.001 -0.063,0 -0.034,0.007 -0.095,0.024 -0.125,0.031 -0.854,0.237 -1.954,1.647 -1.781,3.625 -0.5,10.177 -3.812,21.694 -9,30.562 -1.851,1.851 -2.658,2.601 -3.187,2.688 -0.017,0.002 -0.046,-0.001 -0.063,0 -0.022,0 -0.066,0 -0.094,0 -0.004,0 -0.026,0 -0.031,0 -0.003,0 -0.028,0 -0.031,0 -0.004,-0.001 -0.027,0.001 -0.031,0 z m 161.62,13.469 c -2.02,0.099 -4.169,-1.209 -4.719,-3.968 0.008,-1.628 0.734,-2.523 0.594,-4 -0.211,-0.845 -1.081,-1.401 -3.156,-0.407 0.324,0.299 -1.344,2.657 -1.344,2.657 -1.619,0.985 -3.78,-0.054 -5.188,-0.969 -0.774,-1.407 -1.346,-3.819 -0.468,-6.281 2.323,-4.293 10.293,-11.619 14.093,-11.688 0.071,3.87 0.448,9.017 0.657,12.218 0.089,1.209 0.373,2.541 1.531,2.844 1.157,0.303 3.165,-1.164 3.187,0.094 -0.211,2.462 -0.703,6.096 -2.093,7.812 -0.713,1.056 -1.882,1.629 -3.094,1.688 z m -195.25,0.907 c -0.507,0.051 -1.172,-0.135 -1.938,-0.594 -3.637,-1.968 -5.046,-7.804 -2.781,-11.219 2.116,-3.008 5.461,-1.907 5.906,-1.907 3.564,-0.445 5.688,6.688 5.688,6.688 0,0 0.107,2.006 -4.125,-1.781 -1.781,-0.334 -2.024,0.309 -2.469,1.312 -0.371,1.856 -0.291,3.737 0.563,5.594 0.394,1.113 0.002,1.82 -0.844,1.906 z m 138.12,1.375 c -0.743,-0.129 -1.459,-0.772 -1.719,-1.782 -0.163,-0.661 0.318,-1.73 -0.281,-2.062 -0.344,-0.347 -1.68,-0.145 -1.625,1.687 0,0.584 -0.429,1.224 -0.688,1.594 -0.259,0.171 -0.435,0.219 -0.906,0.219 -0.573,-0.024 -0.56,-0.174 -0.875,-0.656 -0.133,-0.491 -0.312,-0.975 -0.312,-1.532 -0.072,-0.652 -0.302,-0.873 -0.782,-0.968 -0.536,0 -0.44,-0.059 -0.875,0.218 -0.257,0.283 -0.562,0.393 -0.562,0.875 0,0.499 -0.131,1.296 -0.281,1.625 -0.228,0.301 -0.588,0.426 -1,0.532 -2.247,-0.008 -2.379,-2.559 -2.25,-3.532 -0.169,-0.183 -0.283,-4.79 2.781,-6.062 4.113,-1.962 11.857,-1.101 11.53,5.531 0,0.587 -0.16,2.557 -0.219,3.094 -0.418,0.977 -1.194,1.348 -1.937,1.219 z m -30.25,14.875 c 0.176,-0.784 0.352,-1.573 0.469,-2.375 0.393,-1.732 0.733,-3.453 1.093,-5.157 -1.516,2.089 -2.772,3.777 -3.312,4.375 -3.433,4.079 0.077,2.679 1.75,3.157 m 131.31,3.25 c -1.921,0.067 -4.016,-1.392 -3.188,-4.25 -0.481,-1.56 4.102,-6.856 4.844,-9.75 0.669,-2.061 -1.017,-8.7 0.375,-9.313 1.281,-0.686 3.082,4.588 3.75,9.469 0.371,2.672 -1.61,12.049 -4.969,13.719 -0.257,0.072 -0.538,0.115 -0.812,0.125 m -237.5,6.156 c 0.96,0.098 2.119,-0.784 2.688,-2.031 0.605,-1.331 0.301,-2.602 -0.688,-2.844 -0.99,-0.243 -2.269,0.638 -2.875,1.969 -0.606,1.33 -0.302,2.632 0.688,2.875 0.061,0.015 0.123,0.024 0.187,0.031 m 128.03,4.5 c -2.108,0.062 -4.44,-1.266 -3.531,-3.906 -0.53,-1.441 4.528,-6.327 5.343,-9 1.468,-4.109 -1.121,-8.028 0.407,-8.594 1.405,-0.634 3.36,4.241 4.093,8.75 0.848,3.644 -1.752,11.114 -5.437,12.656 -0.282,0.066 -0.573,0.085 -0.875,0.093 z m -164.34,0.094 c -0.596,-0.076 -1.254,-0.415 -2.031,-0.594 -2.553,-0.813 -4.942,-3.019 -4.188,-7.313 3.017,-18.332 4.984,-32.323 8,-50.656 0.464,-2.147 -1.336,-4.976 -3.656,-4.687 -3.945,2.669 -4.924,8.074 -11.656,7.843 -4.873,-0.058 -10.431,-5.361 -11.125,-10.468 -0.812,-4.059 -1.102,-8.461 0,-12 3.425,-4.119 7.528,-3.68 11.125,-2.75 2.958,1.217 5.392,4.132 6.437,3.437 0.004,-0.003 0.029,0.004 0.031,0 0.004,-0.004 -0.002,-0.027 0,-0.031 0.646,-1.128 -0.06,-10.663 -13.938,-18.031 -8.527,-3.829 -15.315,-4.745 -18.968,2.218 -2.263,4.352 0.164,20.925 -5.407,17.095 -16.475,-42.468 38.599,-48.395 44.75,-1.75 0.399,1.316 1.613,2.636 2.469,2.312 0.376,-0.16 0.72,-0.67 0.844,-1.625 -1.277,-42.235 -42.606,-45.13 -49.625,-31.844 -1.74,3.132 -2.263,10.103 -2.438,14.281 -0.317,2.527 -0.952,3.985 -1.687,4.563 -1.674,1.258 -3.925,-2.023 -4.406,-7.719 -0.697,-4.583 -0.5,-5.841 -0.5,-10.25 2.204,-33.359 55.388,-19.026 64.031,8.531 4.278,14.246 -0.087,24.993 1.344,26.312 0.012,0.01 0.049,0.022 0.062,0.031 0.014,0.008 0.048,0.024 0.063,0.031 0.014,0.006 0.046,0.027 0.062,0.031 0.049,0.014 0.131,0.031 0.188,0.032 5.279,-5.687 12.688,-0.723 14.312,1.25 0.696,0.986 2.438,1.62 3.656,0.343 4.118,-2.96 11.337,-1.565 12.844,3.657 0.871,5.105 1.607,10.36 1.781,15.812 -2.683,-0.833 -4.848,-1.457 -5.719,-2.375 -0.207,-0.227 -0.361,-0.478 -0.406,-0.75 -0.233,-1.509 -0.455,-3.023 -0.688,-4.532 -0.024,-0.124 -0.064,-0.239 -0.125,-0.343 -0.114,-0.185 -0.303,-0.356 -0.5,-0.469 -0.948,-0.518 -2.602,-0.222 -2.687,1.156 -1.276,5.802 -6.528,6.556 -9.719,-2.437 -2.147,-1.74 -6.061,-2.079 -6.469,0.531 0.522,6.034 -1.909,6.843 -6.781,4 -1.566,11.951 -3.12,23.361 -4.687,35.312 2.031,0.059 3.893,-1.414 5.75,0.906 -2.01,6.249 -6.261,18.963 -8.657,20.156 -0.019,0.009 -0.043,0.024 -0.062,0.031 -0.109,0.131 -0.237,0.251 -0.344,0.344 -0.044,0.038 -0.112,0.094 -0.156,0.125 -0.044,0.031 -0.112,0.069 -0.156,0.094 -0.096,0.052 -0.217,0.096 -0.313,0.125 -0.218,0.062 -0.43,0.091 -0.656,0.062 z m -42.156,0.062 c -1.162,-0.136 -2.256,-1.082 -2.782,-2.344 -0.194,-4.461 -0.22,-8.92 0.282,-13.031 2.029,-7.211 2.672,-13.553 3.656,-20.938 0.273,-9.891 -5.711,-4.279 -5.438,0.625 1.382,6.369 1.009,16.396 -0.218,18.938 -0.974,2.541 -2.101,3.169 -4.469,2.75 -1.88,0.115 -6.736,-5.177 -8.094,-13.938 0,0 -1.131,-4.496 -1.625,-8.5 -0.664,-4.524 -3.661,-7.729 -5.75,0.625 -1.805,6.072 -2.914,21.032 -5.937,17.531 -0.866,-11.681 -1.894,-32.235 8.031,-34.344 12.005,-1.154 5.374,20.294 9.719,24.188 0.821,1.924 2.343,1.959 2.468,-0.469 v -18.219 c -0.109,-5.922 3.788,-7.682 6.813,-8.906 3.148,0.243 5.235,0.157 6.469,-2.906 0.492,-10.502 1.008,-21.03 1.5,-31.531 0,0 7.277,-2.091 7.625,17.719 0.348,11.632 -2.317,21.393 -0.75,23.656 0.055,2.224 2.905,2.333 4.875,1.25 3.137,-2.213 4.53,-4.938 9.406,-3.844 7.42,2.044 11.89,5.646 12,11.344 -0.434,5.415 -1.06,10.835 -3.406,16.25 0.327,0.985 -1.421,3.547 -1.094,4.531 1.333,-2.088 3.351,-1.915 3.812,0 -1.262,4.162 -3.229,8.15 -6.406,9.875 -2.625,2.314 -6.468,1.824 -7.875,-3 -0.652,-5.558 2.015,-12.147 6.063,-17.531 0.86,-2.103 2.062,-5.602 1.531,-8.75 -2.154,-1.228 -4.29,-0.717 -6.094,1.188 0,0 -5.906,4.421 -5.906,5.406 1.567,10.035 0.338,11.184 -0.531,13.969 -0.607,3.844 -2.429,5.062 -3.907,7.687 -1.477,1.567 -3.481,1.567 -4.437,0 -2.61,-4.525 -1.386,-14.241 0.5,-18.593 1.363,-4.003 3.453,-6.5 2.469,-6.5 -0.81,-2.262 -2.5,-1.736 -3.719,0.875 -1.74,5.395 -2.094,13.437 -2.094,17.062 -0.522,4.494 -1.104,14.094 -4.062,16.53 -0.789,1.076 -1.721,1.45 -2.625,1.344 z m 223.469,0.85 c -0.413,-0.041 -0.916,-0.678 -1.687,-2.313 -1.855,-3.037 -3.114,-8.328 -2.969,-13.281 4.018,-27.813 5.25,-52.154 7.875,-79.969 0.214,-2.69 -0.18,-6.597 -1.969,-8.156 -6.614,-6.906 -16.15,-15.424 -26.53,-19.344 -1.117,-1.254 2.777,-6.599 7.813,-6.594 8.421,0.979 15.822,5.705 22.687,18.156 1.836,2.905 5.062,9.12 5.156,13.938 0.642,28.247 -1.423,50.209 -5.656,70.625 -0.271,1.989 -0.087,4.341 0.25,4.938 0.545,0.651 2.395,-0.015 3.375,1.593 1.44,1.47 -3.844,13.656 -6.844,18.345 -0.599,1.177 -0.968,2.115 -1.5,2.062 z m -144.249,0.062 c -1.422,-0.072 -2.677,-0.48 -3.75,-1.031 -2.727,-2.61 -3.366,-6.795 -1.219,-9.406 2.09,-0.987 4.174,-3.09 2.781,-4.25 -5.908,-6.311 -21.287,-16.857 -22.062,-18.781 -0.006,-0.016 -0.028,-0.048 -0.031,-0.063 -0.002,-0.013 0,-0.049 0,-0.062 0.001,-0.006 -0.001,-0.025 0,-0.031 0.005,-0.016 0.022,-0.05 0.031,-0.063 0.004,-0.004 0.027,-0.027 0.031,-0.031 0.006,-0.003 0.026,0.003 0.031,0 0.007,-0.003 0.025,-0.029 0.032,-0.031 0.007,-0.002 0.023,0.002 0.031,0 l 0.031,-0.032 c 0.781,-0.523 10.404,-0.511 11.469,-0.03 0.008,0.004 0.025,0.027 0.031,0.03 0.003,0.003 0.029,-10e-4 0.031,0 0.002,0.003 -0.002,0.03 0,0.032 3.308,1.218 19,19.156 19,19.156 -0.813,0.696 -1.562,1.21 -2.375,1.906 -0.87,0.754 -0.783,1.495 0,2.25 3.887,2.262 2.656,7.238 0.625,9.5 -1.682,0.755 -3.265,1.01 -4.687,0.938 z m -55.188,0.063 c -0.743,-0.129 -1.46,-0.741 -1.719,-1.75 -0.163,-0.661 0.286,-1.761 -0.312,-2.094 -0.344,-0.347 -1.649,-0.114 -1.594,1.719 0,0.584 -0.429,1.193 -0.688,1.562 -0.26,0.171 -0.435,0.219 -0.906,0.219 -0.574,-0.023 -0.56,-0.174 -0.875,-0.656 -0.14,-0.49 -0.32,-0.97 -0.32,-1.53 -0.071,-0.652 -0.333,-0.873 -0.813,-0.969 -0.536,0 -0.409,-0.058 -0.843,0.219 -0.258,0.282 -0.563,0.393 -0.563,0.875 0,0.499 -0.131,1.295 -0.281,1.625 -0.228,0.3 -0.588,0.456 -1,0.562 -2.247,-0.007 -2.41,-2.589 -2.281,-3.562 -0.168,-0.184 -0.252,-4.759 2.812,-6.031 4.114,-1.962 11.827,-1.133 11.5,5.5 0,0.586 -0.129,2.556 -0.187,3.093 -0.42,0.978 -1.195,1.348 -1.938,1.219 z m 215.03,0.593 c -0.347,-0.06 -0.861,-0.588 -1.812,-1.843 -2.353,-7.692 -3.18,-13.973 -2.282,-18.75 6.042,-31.534 12.234,-60.263 11.25,-90.281 2.866,-0.019 6.179,6.555 7.594,13.062 0.775,8.963 -0.517,14.419 -0.75,19.688 -0.232,5.269 -5.964,48.014 -7.125,52 -1.401,7.537 5.573,0.991 4.813,5.375 -2.411,5.526 -8.429,13.574 -10.313,18.375 -0.708,1.286 -0.795,2.475 -1.375,2.375 z m 88.312,0.469 c -0.413,-0.041 -0.916,-0.708 -1.688,-2.344 -1.854,-3.037 -2.492,-8.477 -1.75,-13.28 4.465,-30.203 7.783,-59.45 8.469,-86.22 -0.384,-2.541 -0.496,-3.892 -1.688,-7.093 -2.635,-3.379 -5.542,-7.615 -8.281,-9.657 -2.737,-2.041 -8.563,-3.986 -10.469,-5.5 -6.043,-3.493 -6.074,-7.511 -1.187,-7.655 8.421,0.977 18.386,1.668 25.25,12.03 1.837,2.904 3.999,10.776 4.094,15.594 0.642,28.247 -0.362,55.866 -4.594,76.281 -0.271,1.989 -1.149,6.56 -0.813,7.157 0.545,1.398 3.301,-0.14 4.282,1.468 1.439,1.47 -7.125,12.437 -10.125,17.125 -0.6,1.178 -0.969,2.147 -1.5,2.094 m -346.91,0.04 c -1.812,0.052 -3.812,-1.071 -3.031,-3.25 -0.455,-1.187 3.547,-5.2 4.25,-7.406 0.63,-1.57 -0.625,-6.627 0.687,-7.094 1.207,-0.523 2.868,3.501 3.5,7.219 0.35,2.037 0.085,9.008 -4.656,10.438 -0.243,0.055 -0.491,0.086 -0.75,0.094 z m 304.53,0.313 c -0.509,0.079 -1.064,-0.171 -1.688,-1.094 -1.193,-1.046 -2.476,-2.941 -2.437,-5.375 0.29,-4.289 1.054,-8.68 1.344,-12.969 0.102,-0.574 0.21,-1.145 0.312,-1.718 -0.461,0.587 -0.863,1.046 -1.094,1.28 -8.359,8.783 3.841,1.436 -1.593,8.22 -4.597,5.046 -5.942,6.652 -9.875,9.687 -1.973,1.275 -3.164,3.711 -3.813,-0.437 -0.258,-3.646 -0.526,-7.866 -0.281,-10.938 -0.015,-1.708 1.754,-4.922 3.281,-6.813 5.577,-6.852 11.273,-14.142 17,-21.75 1.205,-15.516 1.526,-29.739 2.75,-45.281 -0.174,-6.648 -2.218,-15.476 -4.156,-16.312 0,0 -2.96,-1.7 -4.938,0.187 -1.438,0.578 -7.187,9.594 -7.187,9.594 -2.944,2.698 -4.905,1.927 -7,0 -5.776,-5.577 -8.388,-16.023 -12.313,-23.219 -1.011,-1.606 -3.862,-2.972 -7.03,0.125 -8.049,10.996 -3.343,26.648 -4.345,22.625 -7.168,-8.078 -3.993,-21.465 -2.375,-24.344 2.365,-4.728 4.277,-7.755 8.875,-10.094 4.19,-3.083 7.452,-1.159 9.25,1 4.216,4.368 4.272,15.54 6.25,17.75 1.389,4.06 4.867,3.362 6.563,1.563 1.644,-2.364 3.585,-3.902 6,-5.188 3.932,-3.468 8.625,-4.098 13.25,-0.937 3.161,1.773 5.212,4.077 7.062,8.625 1.987,5.31 1.004,33.141 0.563,48.625 2.97,-4.183 5.901,-8.457 8.812,-12.781 1.279,-13.591 1.859,-26.977 1.438,-39.812 -0.301,-2.552 8.906,7.619 8.845,12.438 -0.042,4.215 0.007,8.036 0,11.594 4.465,-7.131 8.788,-14.381 12.875,-21.719 2.531,1.341 1.664,15.678 0.062,17.656 -4.278,7.178 -9.757,14.936 -14,20.938 -0.839,7.574 -1.981,16.511 -2.5,19.25 -0.809,4.269 -1.621,10.683 -2.845,15.75 -0.335,1.978 -1.348,8.298 -1.03,8.906 0.498,1.414 2.384,-0.045 3.313,1.594 1.389,1.514 -4.819,17.597 -7.97,22.188 -1.133,2.057 -3.182,1.345 -5.719,-2 -2.352,-2.201 -1.491,-7.224 -0.594,-12 2.333,-12.175 4.415,-24.573 6.063,-36.938 -3.05,4.534 -6.773,10.021 -10.438,15.312 -0.098,0.51 -0.468,2.38 -0.468,2.406 0,0.219 -0.505,9.959 -0.938,12.281 -0.076,0.942 -0.301,1.214 0.688,1.094 1.046,-0.881 1.189,-0.929 1.843,-1.219 1.058,-0.194 1.982,1.594 1.344,3.25 -3.27,6.032 -6.542,12.092 -9.812,18.125 -0.394,0.387 -0.835,0.796 -1.344,0.875 m -118,1.219 c -1.045,-0.095 -1.877,-0.707 -2.188,-2.25 -0.416,-3.63 -0.203,-5.604 0.407,-8.625 0.467,-2.015 3.4,-5.389 4.843,-7.344 6.897,-9.269 13.532,-18.583 19.939,-28.219 1.007,-7.155 1.745,-14.154 2.219,-21.125 1.038,-15.284 1.353,-34.31 0.406,-50.406 2.863,-0.113 7.451,4.624 9.062,11.562 1.047,9.597 -0.373,29.18 -0.468,34.844 -0.069,2.351 -0.213,5.157 -0.375,8.094 7.452,-12.179 14.682,-25.082 21.78,-39.25 2.588,1.229 2.015,15.798 0.5,17.844 -5.681,12.227 -13.528,24.296 -16.03,28.938 -0.904,1.676 -3.98,6.354 -7.625,11.75 -0.672,7.698 -1.402,14.219 -1.875,16.187 -1.173,8.139 3.344,-0.917 2.718,3.813 -1.465,8.127 -5.951,13.65 -11.25,21.094 -1.709,2.421 -1.674,2.915 -4.312,-0.594 -1.577,-3.576 -1.556,-6.552 -1.094,-9.343 -0.694,1.008 -1.552,2.203 -2.781,3.687 -4.576,3.926 -4.859,4.141 -8.656,7.344 -1.199,0.85 -3.478,2.158 -5.219,2 z m -39.812,0.718 c -1.017,-0.088 -2.144,-1.273 -3.063,-3.562 -0.788,-1.741 -1.751,-10.844 -1.593,-10.844 -0.629,-2.709 2.83,-3.857 4.406,-0.375 2.361,6.384 2.373,9.104 2.531,11.812 -0.368,2.063 -1.264,3.058 -2.281,2.969 z m 10.78,0.841 c -0.654,-0.089 -1.453,-0.926 -2.563,-2.938 -0.795,-2.108 -4.225,-5.297 -1.75,-11.875 2.025,-4.171 2.857,-10.949 1.938,-18.5 -1.403,-2.146 -1.723,-2.886 -3.563,-5.031 -2.584,-2.779 -5.383,-2.069 -7.531,-1.031 -2.006,1.352 -3.584,2.046 -4.5,6.343 0.165,6.849 0.564,18.059 -0.687,20.438 -1.846,3.684 -4.888,2.363 -6.188,1.25 -6.247,-5.712 -9.333,-15.357 -11.219,-23.03 -1.732,-5.594 -3.578,-3.976 -4.875,-1.72 -3.156,2.958 -3.377,26.083 -7.187,22.282 -6.102,-17.44 3.502,-36.545 10.156,-34.688 4.801,-1.988 7.847,7.15 9.812,17.155 1.345,2.808 2.372,3.131 3.063,1.688 -0.178,-13.306 0.954,-16.274 4.375,-20.312 7.631,-5.887 13.943,-0.746 14.438,-0.25 0.494,0.495 5.937,5.937 5.937,5.937 1.323,1.391 3.07,1.476 4.938,0.25 1.815,-1.65 1.582,-4.492 5.469,-6.468 3.27,-1.309 10.254,-0.318 11.874,2.5 2.181,3.736 2.709,5.02 3.719,6.437 1.557,2.071 4.219,1.154 4.219,0.5 -0.247,-1.155 -1.812,-2.294 -0.75,-4.375 1.85,-1.388 2.281,-0.496 3.375,-0.187 3.872,1.85 6.781,10.25 6.781,10.25 0.172,3.132 -1.61,2.895 -2.75,2.25 -1.485,-0.909 -1.576,-1.217 -3.063,-2.125 -1.892,-0.282 -5.559,-1.53 -7.375,1.281 -1.853,3.38 -1.863,8.091 -3.281,11.5 0,0.248 -2.475,5.36 -0.187,5.687 1.155,-0.214 3.639,-0.856 4.031,1.219 1.212,2.023 -2.614,7.762 -5.219,10.656 -2.261,2.482 -5.382,2.784 -8.406,0.25 -2.117,-1.948 -1.803,-4.124 -2.218,-6.187 -0.54,-2.37 -0.437,-5.305 1.968,-8.438 2.114,-4.168 5.954,-9.515 4.688,-17.062 0,0 -2.232,-3.591 -6.156,-3.125 -1.636,0.357 -4.302,1.065 -5.719,11.531 -1.072,7.922 0.268,19.022 -3.094,24.219 -0.759,1.961 -1.411,3.866 -2.5,3.719 z m -34.062,0.187 c -0.388,0.011 -0.968,-0.205 -1.781,-0.687 -1.829,-1.226 -5.452,-5.001 -5.563,-9.344 -0.111,-2.451 -0.573,-2.441 1.031,-4 1.159,-1.672 2.317,-1.507 4.656,-0.281 1.344,0.989 1.798,1.621 2.25,3.281 0.558,2.784 -2.929,-1.318 -3.375,1.781 -0.778,2.877 1.447,4.06 3.563,6.844 0.049,1.311 0.072,2.381 -0.781,2.406 z"
       style="fill:#ffffff;fill-opacity:1;fill-rule:nonzero;stroke:none"
       transform="matrix(1.3333333,0,0,-1.3333333,629.1576,488.2252)"
       clip-path="url(#clipPath3)" />
  </g>
</svg>
