<?xml version="1.0" encoding="UTF-8" standalone="no"?>
<!-- Created with Inkscape (http://www.inkscape.org/) -->

<svg
   version="1.1"
   id="svg1"
   width="1200"
   height="800"
   viewBox="0 0 1200 800"
   sodipodi:docname="sn.ai"
   xmlns:inkscape="http://www.inkscape.org/namespaces/inkscape"
   xmlns:sodipodi="http://sodipodi.sourceforge.net/DTD/sodipodi-0.dtd"
   xmlns="http://www.w3.org/2000/svg"
   xmlns:svg="http://www.w3.org/2000/svg">
  <defs
     id="defs1" />
  <sodipodi:namedview
     id="namedview1"
     pagecolor="#ffffff"
     bordercolor="#000000"
     borderopacity="0.25"
     inkscape:showpageshadow="2"
     inkscape:pageopacity="0.0"
     inkscape:pagecheckerboard="0"
     inkscape:deskcolor="#d1d1d1">
    <inkscape:page
       x="0"
       y="0"
       inkscape:label="1"
       id="page1"
       width="1200"
       height="800"
       margin="0"
       bleed="0" />
  </sodipodi:namedview>
  <g
     id="layer-MC0"
     inkscape:groupmode="layer"
     inkscape:label="Layer 1">
    <path
       id="path1"
       d="M 0,0 H 300 V 600 H 0 Z"
       style="fill:#00853f;fill-opacity:1;fill-rule:nonzero;stroke:none"
       transform="matrix(1.3333333,0,0,-1.3333333,0,800)" />
    <path
       id="path2"
       d="M 300,0 H 600.001 V 600 H 300 Z"
       style="fill:#fdef42;fill-opacity:1;fill-rule:nonzero;stroke:none"
       transform="matrix(1.3333333,0,0,-1.3333333,0,800)" />
    <path
       id="path3"
       d="M 600,0 H 900 V 600 H 600 Z"
       style="fill:#e31b23;fill-opacity:1;fill-rule:nonzero;stroke:none"
       transform="matrix(1.3333333,0,0,-1.3333333,0,800)" />
    <path
       id="path4"
       d="m 0,0 -30.902,-95.105 47.553,-15.452 z"
       style="fill:#00853f;fill-opacity:1;fill-rule:nonzero;stroke:none"
       transform="matrix(1.3333333,0,0,-1.3333333,600,266.66667)" />
    <path
       id="path5"
       d="m 0,0 30.901,-95.105 -47.552,-15.452 z"
       style="fill:#00853f;fill-opacity:1;fill-rule:nonzero;stroke:none"
       transform="matrix(1.3333333,0,0,-1.3333333,600,266.66667)" />
    <path
       id="path6"
       d="M 0,0 H -100 V -50 Z"
       style="fill:#00853f;fill-opacity:1;fill-rule:nonzero;stroke:none"
       transform="matrix(1.3333333,0,0,-1.3333333,726.80733,358.79747)" />
    <path
       id="path7"
       d="m 0,0 -80.901,-58.779 -29.39,40.451 z"
       style="fill:#00853f;fill-opacity:1;fill-rule:nonzero;stroke:none"
       transform="matrix(1.3333333,0,0,-1.3333333,726.80733,358.79747)" />
    <path
       id="path8"
       d="M 0,0 -30.901,95.105 -78.454,79.654 Z"
       style="fill:#00853f;fill-opacity:1;fill-rule:nonzero;stroke:none"
       transform="matrix(1.3333333,0,0,-1.3333333,678.37107,507.86853)" />
    <path
       id="path9"
       d="m 0,0 -80.901,58.778 29.388,40.451 z"
       style="fill:#00853f;fill-opacity:1;fill-rule:nonzero;stroke:none"
       transform="matrix(1.3333333,0,0,-1.3333333,678.37107,507.86853)" />
    <path
       id="path10"
       d="M 0,0 80.901,58.778 51.512,99.229 Z"
       style="fill:#00853f;fill-opacity:1;fill-rule:nonzero;stroke:none"
       transform="matrix(1.3333333,0,0,-1.3333333,521.62893,507.86853)" />
    <path
       id="path11"
       d="M 0,0 30.901,95.105 78.454,79.654 Z"
       style="fill:#00853f;fill-opacity:1;fill-rule:nonzero;stroke:none"
       transform="matrix(1.3333333,0,0,-1.3333333,521.62893,507.86853)" />
    <path
       id="path12"
       d="m 0,0 80.901,-58.779 29.39,40.451 z"
       style="fill:#00853f;fill-opacity:1;fill-rule:nonzero;stroke:none"
       transform="matrix(1.3333333,0,0,-1.3333333,473.19267,358.79747)" />
    <path
       id="path13"
       d="M 0,0 H 100 V -50 Z"
       style="fill:#00853f;fill-opacity:1;fill-rule:nonzero;stroke:none"
       transform="matrix(1.3333333,0,0,-1.3333333,473.19267,358.79747)" />
  </g>
</svg>
