<?xml version="1.0" encoding="UTF-8" standalone="no"?>
<!-- Created with Inkscape (http://www.inkscape.org/) -->

<svg
   version="1.1"
   id="svg1"
   width="5760"
   height="3840"
   viewBox="0 0 5760 3840"
   sodipodi:docname="sg.ai"
   xmlns:inkscape="http://www.inkscape.org/namespaces/inkscape"
   xmlns:sodipodi="http://sodipodi.sourceforge.net/DTD/sodipodi-0.dtd"
   xmlns="http://www.w3.org/2000/svg"
   xmlns:svg="http://www.w3.org/2000/svg">
  <defs
     id="defs1">
    <clipPath
       clipPathUnits="userSpaceOnUse"
       id="clipPath4">
      <path
         d="M 0,2880 H 4320 V 0 H 0 Z"
         transform="translate(-1481.6778,-2160.0001)"
         id="path4" />
    </clipPath>
    <clipPath
       clipPathUnits="userSpaceOnUse"
       id="clipPath6">
      <path
         d="M 0,2880 H 4320 V 0 H 0 Z"
         transform="translate(-1651.8351,-2160.0001)"
         id="path6" />
    </clipPath>
    <clipPath
       clipPathUnits="userSpaceOnUse"
       id="clipPath8">
      <path
         d="M 0,2880 H 4320 V 0 H 0 Z"
         transform="translate(-1007.1954,-2146.9356)"
         id="path8" />
    </clipPath>
    <clipPath
       clipPathUnits="userSpaceOnUse"
       id="clipPath10">
      <path
         d="M 0,2880 H 4320 V 0 H 0 Z"
         transform="translate(-1584.3838,-2146.9356)"
         id="path10" />
    </clipPath>
    <clipPath
       clipPathUnits="userSpaceOnUse"
       id="clipPath12">
      <path
         d="M 0,2880 H 4320 V 0 H 0 Z"
         transform="translate(-1296.0835,-2361.1471)"
         id="path12" />
    </clipPath>
    <clipPath
       clipPathUnits="userSpaceOnUse"
       id="clipPath14">
      <path
         d="M 0,2880 H 4320 V 0 H 0 Z"
         transform="translate(-1115.1948,-1804.1865)"
         id="path14" />
    </clipPath>
    <clipPath
       clipPathUnits="userSpaceOnUse"
       id="clipPath16">
      <path
         d="M 0,2880 H 4320 V 0 H 0 Z"
         transform="translate(-1476.3838,-1804.1865)"
         id="path16" />
    </clipPath>
  </defs>
  <sodipodi:namedview
     id="namedview1"
     pagecolor="#ffffff"
     bordercolor="#000000"
     borderopacity="0.25"
     inkscape:showpageshadow="2"
     inkscape:pageopacity="0.0"
     inkscape:pagecheckerboard="0"
     inkscape:deskcolor="#d1d1d1">
    <inkscape:page
       x="0"
       y="0"
       inkscape:label="1"
       id="page1"
       width="5760"
       height="3840"
       margin="0"
       bleed="0" />
  </sodipodi:namedview>
  <g
     id="layer-MC0"
     inkscape:groupmode="layer"
     inkscape:label="Layer 1">
    <path
       id="path1"
       d="M 0,1440 H 4319.999 V 2880 H 0 Z"
       style="fill:#ed2939;fill-opacity:1;fill-rule:nonzero;stroke:none"
       transform="matrix(1.3333333,0,0,-1.3333333,0,3840)" />
    <path
       id="path2"
       d="M 0,0 H 4319.999 V 1440 H 0 Z"
       style="fill:#ffffff;fill-opacity:1;fill-rule:nonzero;stroke:none"
       transform="matrix(1.3333333,0,0,-1.3333333,0,3840)" />
    <path
       id="path3"
       d="m 0,0 c 0,-299.062 -242.437,-541.5 -541.5,-541.5 -299.062,0 -541.5,242.438 -541.5,541.5 0,299.062 242.438,541.5 541.5,541.5 C -242.437,541.5 0,299.062 0,0"
       style="fill:#ffffff;fill-opacity:1;fill-rule:nonzero;stroke:none"
       transform="matrix(1.3333333,0,0,-1.3333333,1975.5703,960)"
       clip-path="url(#clipPath4)" />
    <path
       id="path5"
       d="m 0,0 c 0,-282.624 -229.111,-511.735 -511.735,-511.735 -282.623,0 -511.735,229.111 -511.735,511.735 0,282.624 229.112,511.735 511.735,511.735 C -229.111,511.735 0,282.624 0,0"
       style="fill:#ed2939;fill-opacity:1;fill-rule:nonzero;stroke:none"
       transform="matrix(1.3333333,0,0,-1.3333333,2202.4467,960)"
       clip-path="url(#clipPath6)" />
    <path
       id="path7"
       d="m 0,0 -73.561,56.43 -73.542,-56.457 28.313,90.995 -73.794,56.091 91.059,-0.193 27.935,91.124 27.964,-91.114 91.059,0.226 -73.776,-56.119 z"
       style="fill:#ffffff;fill-opacity:1;fill-rule:nonzero;stroke:none"
       transform="matrix(1.3333333,0,0,-1.3333333,1342.9271,977.41933)"
       clip-path="url(#clipPath8)" />
    <path
       id="path9"
       d="m 0,0 -73.561,56.43 -73.542,-56.457 28.313,90.995 -73.794,56.091 91.059,-0.193 27.935,91.124 27.964,-91.114 91.059,0.226 -73.776,-56.119 z"
       style="fill:#ffffff;fill-opacity:1;fill-rule:nonzero;stroke:none"
       transform="matrix(1.3333333,0,0,-1.3333333,2112.5117,977.41933)"
       clip-path="url(#clipPath10)" />
    <path
       id="path11"
       d="m 0,0 -73.561,56.43 -73.541,-56.457 28.313,90.994 -73.794,56.092 91.059,-0.193 27.934,91.124 27.965,-91.114 91.058,0.226 -73.776,-56.119 z"
       style="fill:#ffffff;fill-opacity:1;fill-rule:nonzero;stroke:none"
       transform="matrix(1.3333333,0,0,-1.3333333,1728.1113,691.804)"
       clip-path="url(#clipPath12)" />
    <path
       id="path13"
       d="m 0,0 -73.561,56.43 -73.542,-56.456 28.313,90.994 -73.794,56.092 91.059,-0.193 27.935,91.123 27.964,-91.114 91.059,0.226 -73.776,-56.118 z"
       style="fill:#ffffff;fill-opacity:1;fill-rule:nonzero;stroke:none"
       transform="matrix(1.3333333,0,0,-1.3333333,1486.9264,1434.418)"
       clip-path="url(#clipPath14)" />
    <path
       id="path15"
       d="m 0,0 -73.561,56.43 -73.542,-56.456 28.313,90.994 -73.794,56.092 91.059,-0.193 27.935,91.123 27.964,-91.114 91.059,0.226 -73.776,-56.118 z"
       style="fill:#ffffff;fill-opacity:1;fill-rule:nonzero;stroke:none"
       transform="matrix(1.3333333,0,0,-1.3333333,1968.5117,1434.418)"
       clip-path="url(#clipPath16)" />
  </g>
</svg>
