<svg height="600" width="900" xmlns="http://www.w3.org/2000/svg"><path d="m0 0h900v600h-900z" fill="#c00"/><g fill="#ffd700"><path d="m200 37.5-8.419 25.912h-27.245l22.042 16.014-8.42 25.912 22.042-16.015 22.043 16.015-8.42-25.912 22.042-16.014h-27.245zm0 13.5 5.389 16.583h17.437l-14.107 10.25 5.388 16.583-14.107-10.249-14.106 10.25 5.388-16.584-14.107-10.25h17.437z"/><g transform="matrix(.98932 0 0 .98674 3.83 3.766)"><path d="m137.437 171.694 18.863 18.994 17.789-17.666c27.058 29.021 55.438 56.995 82.287 86.128 4.034 4.062 10.598 4.085 14.66.05 4.063-4.034 4.085-10.598.05-14.66-28.818-27.19-57.725-54.602-86.552-81.891l23.965-23.8-33.34-4.616z"/><path d="m198.289 110.196c15.517 8.739 27.298 21.28 34.248 34.392 7.044 13.289 10.14 27.162 10.203 38.254.13 22.744-18.437 41.182-41.181 41.182-12.136 0-23.047-5.249-30.583-13.6l-4.17 3.51a6.22 6.22 0 0 0 -6.973 1.789 7.82 7.82 0 0 0 -6.404 5.291c-3.135 6.289-8.636 11.22-15.291 13.478q-.094.035-.176.078c-3.078 1.128-6.163 3.165-8.79 5.803-5.19 5.236-7.728 11.936-6.3 16.638a4 4 0 0 0 -.215 1.27 3.93 3.93 0 0 0 3.931 3.93 3.9 3.9 0 0 0 1.578-.336c4.693 1.059 11.068-1.546 16.054-6.559 2.826-2.85 4.944-6.224 5.983-9.53 2.317-6.623 7.297-12.02 13.623-15.054a3 3 0 0 0 .382-.223 7.82 7.82 0 0 0 4.225-5.214c9.702 11.445 24.253 18.753 40.519 19.136 29.833.702 52.133-21.258 53.164-52.837.519-15.892-5.63-36.385-19.641-53.19-10.709-12.845-26.41-23.509-44.187-28.209z"/></g></g></svg>