<svg height="533.33331" viewBox="0 0 800 533.33331" width="800" xmlns="http://www.w3.org/2000/svg" xmlns:xlink="http://www.w3.org/1999/xlink"><clipPath id="a"><path d="m0 400h600v-400h-600z" transform="translate(-64.042001 -204.2837)"/></clipPath><clipPath id="b"><path d="m0 400h600v-400h-600z" transform="translate(-492.85251 -245.71531)"/></clipPath><clipPath id="c"><path d="m0 400h600v-400h-600z" transform="translate(-125.9653 -240.00001)"/></clipPath><clipPath id="d"><path d="m0 400h600v-400h-600z" transform="translate(-471.44141 -234.2876)"/></clipPath><clipPath id="e"><path d="m0 400h600v-400h-600z" transform="translate(-468.58401 -234.2876)"/></clipPath><clipPath id="f"><path d="m0 400h600v-400h-600z" transform="translate(-465.72661 -234.28711)"/></clipPath><clipPath id="g"><path d="m0 400h600v-400h-600z" transform="translate(-469.99611 -228.57281)"/></clipPath><clipPath id="h"><path d="m0 400h600v-400h-600z" transform="translate(-103.10841 -222.85741)"/></clipPath><clipPath id="i"><path d="m0 400h600v-400h-600z" transform="translate(-448.58501 -217.145)"/></clipPath><clipPath id="j"><path d="m0 400h600v-400h-600z" transform="translate(-445.72751 -217.145)"/></clipPath><clipPath id="k"><path d="m0 400h600v-400h-600z" transform="translate(-442.87011 -217.14451)"/></clipPath><clipPath id="l"><path d="m0 400h600v-400h-600z" transform="translate(-511.36132 -203.40481)"/></clipPath><clipPath id="m"><path d="m0 400h600v-400h-600z" transform="translate(-495.21191 -166.2793)"/></clipPath><clipPath id="n"><path d="m0 400h600v-400h-600z" transform="translate(-507.36431 -157.7236)"/></clipPath><clipPath id="o"><path d="m0 400h600v-400h-600z" transform="translate(-516.58792 -152.36131)"/></clipPath><clipPath id="p"><path d="m0 400h600v-400h-600z" transform="translate(-526.17682 -179.1152)"/></clipPath><clipPath id="q"><path d="m0 400h600v-400h-600z" transform="translate(-524.58791 -166.4375)"/></clipPath><clipPath id="r"><path d="m0 400h600v-400h-600z" transform="translate(-80.7886 -196.1797)"/></clipPath><clipPath id="s"><path d="m0 400h600v-400h-600z" transform="translate(-72.106902 -173.5918)"/></clipPath><clipPath id="t"><path d="m0 400h600v-400h-600z" transform="translate(-78.990699 -162.44341)"/></clipPath><clipPath id="u"><path d="m0 400h600v-400h-600z" transform="translate(-87.224605 -154.6924)"/></clipPath><clipPath id="v"><path d="m0 400h600v-400h-600z" transform="translate(-104.90631 -180.01951)"/></clipPath><clipPath id="w"><path d="m0 400h600v-400h-600z" transform="translate(-102.8506 -167.00101)"/></clipPath><clipPath id="x"><path d="m0 400h600v-400h-600z" transform="translate(-442.85741 -199.999)"/></clipPath><clipPath id="y"><path d="m0 400h600v-400h-600z" transform="translate(-290.03031 -255.8984)"/></clipPath><clipPath id="z"><path d="m0 400h600v-400h-600z"/></clipPath><clipPath id="A"><path d="m0 400h600v-400h-600z"/></clipPath><clipPath id="B"><path d="m0 400h600v-400h-600z"/></clipPath><clipPath id="C"><path d="m0 400h600v-400h-600z"/></clipPath><clipPath id="D"><path d="m0 400h600v-400h-600z"/></clipPath><clipPath id="E"><path d="m0 400h600v-400h-600z"/></clipPath><clipPath id="F"><path d="m0 400h600v-400h-600z"/></clipPath><clipPath id="G"><path d="m0 400h600v-400h-600z"/></clipPath><clipPath id="H"><path d="m0 400h600v-400h-600z"/></clipPath><clipPath id="I"><path d="m0 400h600v-400h-600z"/></clipPath><clipPath id="J"><path d="m0 400h600v-400h-600z"/></clipPath><clipPath id="K"><path d="m0 400h600v-400h-600z"/></clipPath><clipPath id="L"><path d="m0 400h600v-400h-600z"/></clipPath><clipPath id="M"><path d="m0 400h600v-400h-600z"/></clipPath><clipPath id="N"><path d="m0 400h600v-400h-600z"/></clipPath><clipPath id="O"><path d="m0 400h600v-400h-600z"/></clipPath><clipPath id="P"><path d="m0 400h600v-400h-600z"/></clipPath><clipPath id="Q"><path d="m0 400h600v-400h-600z"/></clipPath><clipPath id="R"><path d="m0 400h600v-400h-600z"/></clipPath><clipPath id="S"><path d="m0 400h600v-400h-600z"/></clipPath><clipPath id="T"><path d="m0 400h600v-400h-600z"/></clipPath><clipPath id="U"><path d="m0 400h600v-400h-600z"/></clipPath><clipPath id="V"><path d="m0 400h600v-400h-600z"/></clipPath><clipPath id="W"><path d="m0 400h600v-400h-600z"/></clipPath><clipPath id="X"><path d="m0 400h600v-400h-600z" transform="translate(-253.80421 -270.4985)"/></clipPath><clipPath id="Y"><path d="m0 400h600v-400h-600z" transform="translate(-244.04301 -233.09621)"/></clipPath><clipPath id="Z"><path d="m0 400h600v-400h-600z" transform="translate(-255.09721 -223.43801)"/></clipPath><clipPath id="aa"><path d="m0 400h600v-400h-600z" transform="translate(-272.3467 -215.55911)"/></clipPath><clipPath id="ab"><path d="m0 400h600v-400h-600z" transform="translate(-278.311 -250.04831)"/></clipPath><clipPath id="ac"><path d="m0 400h600v-400h-600z" transform="translate(-280.0615 -235.6445)"/></clipPath><path d="m.006 0h599.988v400h-599.988z" fill="#3e5eb9" transform="matrix(1.3333333 0 0 -1.3333333 0 533.33333)"/><path d="m.006 71.433h599.988v257.139h-599.988z" fill="#ffd900" transform="matrix(1.3333333 0 0 -1.3333333 0 533.33333)"/><path d="m.006 100.006h599.988v199.995h-599.988z" fill="#b10c0c" transform="matrix(1.3333333 0 0 -1.3333333 0 533.33333)"/><g stroke="#000"><path clip-path="url(#a)" d="m0 0h477.255c2.333 0 4.224-1.918 4.224-4.285s-1.891-4.286-4.224-4.286h-477.255c-2.333 0-4.224 1.919-4.224 4.286s1.891 4.285 4.224 4.285" fill="#ffd900" stroke-width="1.35" transform="matrix(1.3333333 0 0 -1.3333333 85.389333 260.95507)"/><path clip-path="url(#b)" d="m0 0-24.285-8.572 24.285-8.571 24.285 8.571z" fill="#fff" stroke-width="2" transform="matrix(1.3333333 0 0 -1.3333333 657.13667 205.71293)"/><path clip-path="url(#c)" d="m0 0h350.921c1.716 0 3.107-1.279 3.107-2.857s-1.391-2.857-3.107-2.857h-350.921c-1.715 0-3.105 1.279-3.105 2.857s1.39 2.857 3.105 2.857" fill="#ffd900" stroke-width="1.25" transform="matrix(1.3333333 0 0 -1.3333333 167.95373 213.33333)"/><path clip-path="url(#d)" d="m0 0c1.427 0 2.858 1.429 2.858 2.857 0 1.429-1.431 2.857-2.858 2.857" fill="none" stroke-width="2.5" transform="matrix(1.3333333 0 0 -1.3333333 628.58853 220.94987)"/><path clip-path="url(#e)" d="m0 0c1.428 0 2.859 1.429 2.859 2.857 0 1.429-1.431 2.857-2.859 2.857" fill="none" stroke-width="2.5" transform="matrix(1.3333333 0 0 -1.3333333 624.77867 220.94987)"/><path clip-path="url(#f)" d="m0 0c1.428 0 2.858 1.429 2.858 2.857 0 1.429-1.43 2.858-2.858 2.858" fill="none" stroke-width="2.5" transform="matrix(1.3333333 0 0 -1.3333333 620.9688 220.95053)"/><path clip-path="url(#g)" d="m0 0-24.285-8.572 24.285-8.571 24.285 8.571z" fill="#fff" stroke-width="2" transform="matrix(1.3333333 0 0 -1.3333333 626.66147 228.5696)"/><path clip-path="url(#h)" d="m0 0h350.922c1.716 0 3.105-1.279 3.105-2.857s-1.389-2.857-3.105-2.857h-350.922c-1.715 0-3.105 1.279-3.105 2.857s1.39 2.857 3.105 2.857" fill="#ffd900" stroke-width="1.25" transform="matrix(1.3333333 0 0 -1.3333333 137.47787 236.19013)"/><path clip-path="url(#i)" d="m0 0c1.427 0 2.858 1.429 2.858 2.857 0 1.429-1.431 2.857-2.858 2.857" fill="none" stroke-width="2.5" transform="matrix(1.3333333 0 0 -1.3333333 598.11333 243.80667)"/><path clip-path="url(#j)" d="m0 0c1.428 0 2.858 1.429 2.858 2.857 0 1.429-1.43 2.857-2.858 2.857" fill="none" stroke-width="2.5" transform="matrix(1.3333333 0 0 -1.3333333 594.30333 243.80667)"/><path clip-path="url(#k)" d="m0 0c1.427 0 2.858 1.429 2.858 2.857 0 1.429-1.431 2.858-2.858 2.858" fill="none" stroke-width="2.5" transform="matrix(1.3333333 0 0 -1.3333333 590.49347 243.80733)"/><path clip-path="url(#l)" d="m0 0c-4.328-7.496 3.32 2.493 21.984-10.056 3.459-2.331 6.481-8.488 6.481-12.759-.878.588-1.529 1.895-2.497 2.743-1.354-1.357 1.293-7.577 1.679-10.517-2.918 1.632-2.636 2.406-3.605 4.413.193-2.426-.502-9.108.659-11.68-2.3.656-2.147 2.508-3.348 2.88.817-2.913-.711-6.082-.306-9.356-1.344 1.331-2.776 2.373-3.4 2.91-.105-1.56-2.584-5.657-2.641-7.131-1.141.689-1.45 1.763-1.64 2.486-1.418-1.78-6.455-8.357-6.778-10.363-3.881 3.428-13.822 11.775-15.117 16.206-1.144-2.516-2.8-3.364-6.073-5.2-1.294 7.022-6.13 14.914-3.544 20.933-1.832-1.087-3.341-2.173-5.173-3.51 1.736 10.169 10.588 22.094 23.319 28.001" fill="#3d5da7" transform="matrix(1.3333333 0 0 -1.3333333 681.81507 262.12693)"/></g><path clip-path="url(#m)" d="m0 0c1.797 3.592 3.451 4.731 4.612 7.044 2.052 4.064 2.344 7.3 4.131 6.825 1.788-.474 1.785-2.139-.529-6.136-2.316-3.997-3.416-4.85-8.214-7.733" fill="#a70000" transform="matrix(1.3333333 0 0 -1.3333333 660.28253 311.6276)"/><path clip-path="url(#n)" d="m0 0c-.23 2.735.562 3.877.418 5.639-.247 3.098-1.515 5.226.133 5.377 1.647.151 2.418-.906 2.424-4.029.004-3.123-.479-3.943-2.975-6.987" fill="#a70000" transform="matrix(1.3333333 0 0 -1.3333333 676.48573 323.0352)"/><path clip-path="url(#o)" d="m0 0c-.721 3.818-.182 5.512-.643 7.971-.801 4.329-2.388 7.176-.861 7.573 1.527.395 2.448-1.004 3.026-5.393.58-4.388.274-5.595-1.522-10.151" fill="#a70000" transform="matrix(1.3333333 0 0 -1.3333333 688.78387 330.18493)"/><path clip-path="url(#p)" d="m0 0c-2.252 1.709-3.566 1.823-5.019 2.922-2.557 1.928-3.852 3.99-4.674 2.966-.824-1.025-.24-2.144 2.441-3.922 2.681-1.779 3.588-1.919 7.252-1.966" fill="#a70000" transform="matrix(1.3333333 0 0 -1.3333333 701.56907 294.51307)"/><path clip-path="url(#q)" d="m0 0c-1.187 2.465-2.436 3.09-3.204 4.676-1.358 2.787-1.359 5.198-2.831 4.58s-1.591-1.881-.016-4.578c1.574-2.698 2.399-3.186 6.051-4.678" fill="#a70000" transform="matrix(1.3333333 0 0 -1.3333333 699.45053 311.41667)"/><path clip-path="url(#r)" d="m0 0c-.242 2.184.225 2.444-1.118 4.091 1.955-.818 2.03-2.991 4.406-1.448.874.451 1.254.465.193 2.89 2.478-.115 10.596-2.898 11.896-2.963 3.414-.157 9.644 3.586 13.969-1.016 4.151-4.196 2.764-8.551 2.764-14.362-1.667.799-.864 1.193-2.633 3.271 1.327-5.079-.072-14.237-.072-19.624-.681 1.299-.581.734-1.247 2.08-1.77-4.917-3.891-5.929-3.891-11.74-.639 2.279-.022 1.798-.733 2.996-1.721-3.733-13.26-6.923-8.813-10.687-4.014 2.354-5.774 2.107-7.595 4.223-.783-.506-1.407-1.464-2.136-2.776-7.056 3.246-4.533 10.25-10.062 14.927-.957-1.962-.52-1.676-1.554-4.869-1.12 4.434-1.426 7.251-2.685 10.511-1.086-1.808-.988-1.114-2.96-3.845-.816 5.401-2.145 6.676-1.62 10.249-2.095-1.478-.724-.88-2.818-2.7 1.984 13.841 10.558 24.067 16.709 20.792" fill="#3d5da7" stroke="#000" transform="matrix(1.3333333 0 0 -1.3333333 107.71813 271.7604)"/><path clip-path="url(#s)" d="m0 0c1.818 4.456 3.457 5.855 4.631 8.724 2.075 5.043 2.413 9.073 4.157 8.458 1.743-.615 1.714-2.691-.618-7.646-2.332-4.954-3.423-6.004-8.17-9.536" fill="#a70000" transform="matrix(1.3333333 0 0 -1.3333333 96.142533 301.8776)"/><path clip-path="url(#t)" d="m0 0c.729 3.995 1.879 5.45 2.352 8.022.839 4.525.371 7.893 1.991 7.716s1.987-1.884.908-6.385c-1.077-4.5-1.821-5.567-5.251-9.353" fill="#a70000" transform="matrix(1.3333333 0 0 -1.3333333 105.32093 316.74213)"/><path clip-path="url(#u)" d="m0 0c.206 3.874 1.113 5.386 1.249 7.88.246 4.388-.599 7.529.946 7.547 1.545.017 2.095-1.56 1.622-5.952-.474-4.393-1.046-5.49-3.817-9.475" fill="#a70000" transform="matrix(1.3333333 0 0 -1.3333333 116.29947 327.0768)"/><path clip-path="url(#v)" d="m0 0c-3.381 3.368-5.425 3.997-7.605 6.164-3.843 3.805-5.699 7.375-7.067 6.109-1.368-1.265-.545-3.163 3.5-6.784 4.045-3.62 5.452-4.147 11.172-5.489" fill="#a70000" transform="matrix(1.3333333 0 0 -1.3333333 139.87507 293.30733)"/><path clip-path="url(#w)" d="m0 0c-2.203 3.382-3.818 4.258-5.24 6.434-2.507 3.824-3.368 7.11-4.79 6.296-1.423-.813-1.105-2.531 1.613-6.237 2.717-3.707 3.81-4.389 8.417-6.493" fill="#a70000" transform="matrix(1.3333333 0 0 -1.3333333 137.13413 310.66533)"/><path clip-path="url(#x)" d="m0 0c-28.571-28.568-66.668-85.711-142.855-85.711-66.668 0-114.285 57.143-142.856 85.711 28.571 28.574 76.188 85.716 142.856 85.716 76.187 0 114.284-57.142 142.855-85.716" fill="#fff" stroke="#000" stroke-width="1.976" transform="matrix(1.3333333 0 0 -1.3333333 590.47653 266.668)"/><path clip-path="url(#y)" d="m0 0c7.601-8.549 1.254-11.996 9.299-12.557 8.485-.624 3.676-9.034 10.813-9.326 4.99-.218-.499-20.152 4.305-26.729 4.893-6.857 8.991-2.009 9.077-6.963.085-5.124-13.317-4.608-13.552-20.391-.393-9.096-11.31-9.678-11.831-15.53-.647-5.505 21.507-8.596 21.212-13.524-.303-4.913-23.922-4.143-24.95-9.747-.528-5.032 32.446-9.157 35.098-23.712-4.921-1.609-18.919-3.125-29.5-3.132-66.657-.049-114.279 57.147-142.85 85.715 28.571 28.574 76.188 85.716 142.855 85.716 0 0-19.789-18.082-9.971-29.815z" transform="matrix(1.3333333 0 0 -1.3333333 386.70707 192.13547)"/><g transform="matrix(1.3333333 0 0 -1.3333333 0 533.33333)"><g fill="#fff"><path clip-path="url(#z)" d="m210.479 230.478h6.927v-22.857h-6.927z"/><path clip-path="url(#A)" d="m210.479 192.383h6.927v-22.857h-6.927z"/><path clip-path="url(#B)" d="m224.33 230.478h6.926v-22.857h-6.926z"/><path clip-path="url(#C)" d="m224.33 192.383h6.926v-22.857h-6.926z"/><path clip-path="url(#D)" d="m238.181 230.478h6.927v-22.857h-6.927z"/><path clip-path="url(#E)" d="m238.181 192.383h6.927v-22.857h-6.927z"/><path clip-path="url(#F)" d="m252.037 230.478h6.926v-22.857h-6.926z"/><path clip-path="url(#G)" d="m252.037 192.383h6.926v-22.857h-6.926z"/><path clip-path="url(#H)" d="m265.888 230.478h6.927v-22.857h-6.927z"/><path clip-path="url(#I)" d="m265.888 192.383h6.927v-22.857h-6.927z"/><path clip-path="url(#J)" d="m279.739 230.478h6.926v-22.857h-6.926z"/><path clip-path="url(#K)" d="m279.739 192.383h6.926v-22.857h-6.926z"/></g><path clip-path="url(#L)" d="m315.238 230.478h6.927v-22.857h-6.927z"/><path clip-path="url(#M)" d="m315.238 192.383h6.927v-22.857h-6.927z"/><path clip-path="url(#N)" d="m329.09 230.478h6.927v-22.857h-6.927z"/><path clip-path="url(#O)" d="m329.09 192.383h6.927v-22.857h-6.927z"/><path clip-path="url(#P)" d="m342.941 230.478h6.926v-22.857h-6.926z"/><path clip-path="url(#Q)" d="m342.941 192.383h6.926v-22.857h-6.926z"/><path clip-path="url(#R)" d="m356.797 230.478h6.926v-22.857h-6.926z"/><path clip-path="url(#S)" d="m356.797 192.383h6.926v-22.857h-6.926z"/><path clip-path="url(#T)" d="m370.647 230.478h6.927v-22.857h-6.927z"/><path clip-path="url(#U)" d="m370.647 192.383h6.927v-22.857h-6.927z"/><path clip-path="url(#V)" d="m384.499 230.478h6.927v-22.857h-6.927z"/><path clip-path="url(#W)" d="m384.499 192.383h6.927v-22.857h-6.927z"/></g><path clip-path="url(#X)" d="m0 0c-3.958-7.655 6.93 2.545 23.998-10.269 3.163-2.38 7.697-11.787 7.697-16.146-3.634.773-10.07 4.36-10.07 4.36s7.553-7.565 7.553-16.284c-2.669 1.668-4.004 1.418-4.89 3.466 0-2.823 2.373-4.622 2.373-8.981-1.927 1.536-3.557 2.561-5.187 3.46 2.517-4.36-4.587-12.817-1.032-15.641-6.217.9-12.58 4.872-15.097 9.232-1.334-.899-1.479-2.311-1.531-3.816.196-.162-9.465 7.171-8.578 9.989-1.296-1.819-1.478-2.818-1.774-4.867-3.549 3.5-6.801 7-7.985 11.525-1.578-2.049-1.676-2.049-3.253-4.097-1.183 7.171-1.183 6.915 1.182 13.061-1.676-1.11-3.056-2.22-4.731-3.586 1.587 10.386 9.682 22.563 21.325 28.594" fill="#3d5da7" stroke="#000" transform="matrix(1.3333333 0 0 -1.3333333 338.4056 172.66867)"/><path clip-path="url(#Y)" d="m0 0c.633 5.275 2.012 7.262 2.424 10.659.735 5.974-.137 10.341 1.98 10.23 2.117-.11 2.727-2.314 1.68-8.275-1.046-5.962-1.928-7.41-6.084-12.614" fill="#a70000" transform="matrix(1.3333333 0 0 -1.3333333 325.39067 222.5384)"/><path clip-path="url(#Z)" d="m0 0c-.429 4.451.393 6.345.12 9.212-.47 5.044-2.028 8.461-.182 8.775 1.845.314 2.777-1.378 2.977-6.47.199-5.093-.294-6.451-2.915-11.517" fill="#a70000" transform="matrix(1.3333333 0 0 -1.3333333 340.1296 235.416)"/><path clip-path="url(#aa)" d="m0 0c-1.876 3.851-3.487 5-4.699 7.478-2.139 4.356-2.586 7.913-4.236 7.269-1.65-.645-1.559-2.485.824-6.749 2.382-4.264 3.46-5.134 8.111-7.998" fill="#a70000" transform="matrix(1.3333333 0 0 -1.3333333 363.12893 245.9212)"/><path clip-path="url(#ab)" d="m0 0c-4.778 2.515-7.231 2.547-10.311 4.163-5.422 2.833-8.578 6.035-9.698 4.273-1.121-1.762.374-3.514 5.964-6.09 5.59-2.576 7.308-2.699 14.045-2.346" fill="#a70000" transform="matrix(1.3333333 0 0 -1.3333333 371.08133 199.9356)"/><path clip-path="url(#ac)" d="m0 0c-3.479 2.895-5.537 3.321-7.78 5.182-3.953 3.267-5.92 6.475-7.241 5.175-1.32-1.301-.438-3.019 3.711-6.097s5.568-3.46 11.31-4.26" fill="#a70000" transform="matrix(1.3333333 0 0 -1.3333333 373.41533 219.14067)"/></svg>