<?xml version="1.0" encoding="UTF-8" standalone="no"?>
<!-- Created with Inkscape (http://www.inkscape.org/) -->

<svg
   version="1.1"
   id="svg1"
   width="800"
   height="533.33331"
   viewBox="0 0 800 533.33331"
   sodipodi:docname="sz.ai"
   xmlns:inkscape="http://www.inkscape.org/namespaces/inkscape"
   xmlns:sodipodi="http://sodipodi.sourceforge.net/DTD/sodipodi-0.dtd"
   xmlns="http://www.w3.org/2000/svg"
   xmlns:svg="http://www.w3.org/2000/svg">
  <defs
     id="defs1">
    <clipPath
       clipPathUnits="userSpaceOnUse"
       id="clipPath5">
      <path
         d="M 0,400 H 600 V 0 H 0 Z"
         transform="translate(-64.042001,-204.2837)"
         id="path5" />
    </clipPath>
    <clipPath
       clipPathUnits="userSpaceOnUse"
       id="clipPath7">
      <path
         d="M 0,400 H 600 V 0 H 0 Z"
         transform="translate(-492.85251,-245.71531)"
         id="path7" />
    </clipPath>
    <clipPath
       clipPathUnits="userSpaceOnUse"
       id="clipPath9">
      <path
         d="M 0,400 H 600 V 0 H 0 Z"
         transform="translate(-125.9653,-240.00001)"
         id="path9" />
    </clipPath>
    <clipPath
       clipPathUnits="userSpaceOnUse"
       id="clipPath11">
      <path
         d="M 0,400 H 600 V 0 H 0 Z"
         transform="translate(-471.44141,-234.2876)"
         id="path11" />
    </clipPath>
    <clipPath
       clipPathUnits="userSpaceOnUse"
       id="clipPath13">
      <path
         d="M 0,400 H 600 V 0 H 0 Z"
         transform="translate(-468.58401,-234.2876)"
         id="path13" />
    </clipPath>
    <clipPath
       clipPathUnits="userSpaceOnUse"
       id="clipPath15">
      <path
         d="M 0,400 H 600 V 0 H 0 Z"
         transform="translate(-465.72661,-234.28711)"
         id="path15" />
    </clipPath>
    <clipPath
       clipPathUnits="userSpaceOnUse"
       id="clipPath17">
      <path
         d="M 0,400 H 600 V 0 H 0 Z"
         transform="translate(-469.99611,-228.57281)"
         id="path17" />
    </clipPath>
    <clipPath
       clipPathUnits="userSpaceOnUse"
       id="clipPath19">
      <path
         d="M 0,400 H 600 V 0 H 0 Z"
         transform="translate(-103.10841,-222.85741)"
         id="path19" />
    </clipPath>
    <clipPath
       clipPathUnits="userSpaceOnUse"
       id="clipPath21">
      <path
         d="M 0,400 H 600 V 0 H 0 Z"
         transform="translate(-448.58501,-217.145)"
         id="path21" />
    </clipPath>
    <clipPath
       clipPathUnits="userSpaceOnUse"
       id="clipPath23">
      <path
         d="M 0,400 H 600 V 0 H 0 Z"
         transform="translate(-445.72751,-217.145)"
         id="path23" />
    </clipPath>
    <clipPath
       clipPathUnits="userSpaceOnUse"
       id="clipPath25">
      <path
         d="M 0,400 H 600 V 0 H 0 Z"
         transform="translate(-442.87011,-217.14451)"
         id="path25" />
    </clipPath>
    <clipPath
       clipPathUnits="userSpaceOnUse"
       id="clipPath27">
      <path
         d="M 0,400 H 600 V 0 H 0 Z"
         transform="translate(-511.36132,-203.40481)"
         id="path27" />
    </clipPath>
    <clipPath
       clipPathUnits="userSpaceOnUse"
       id="clipPath29">
      <path
         d="M 0,400 H 600 V 0 H 0 Z"
         transform="translate(-495.21191,-166.2793)"
         id="path29" />
    </clipPath>
    <clipPath
       clipPathUnits="userSpaceOnUse"
       id="clipPath31">
      <path
         d="M 0,400 H 600 V 0 H 0 Z"
         transform="translate(-507.36431,-157.7236)"
         id="path31" />
    </clipPath>
    <clipPath
       clipPathUnits="userSpaceOnUse"
       id="clipPath33">
      <path
         d="M 0,400 H 600 V 0 H 0 Z"
         transform="translate(-516.58792,-152.36131)"
         id="path33" />
    </clipPath>
    <clipPath
       clipPathUnits="userSpaceOnUse"
       id="clipPath35">
      <path
         d="M 0,400 H 600 V 0 H 0 Z"
         transform="translate(-526.17682,-179.1152)"
         id="path35" />
    </clipPath>
    <clipPath
       clipPathUnits="userSpaceOnUse"
       id="clipPath37">
      <path
         d="M 0,400 H 600 V 0 H 0 Z"
         transform="translate(-524.58791,-166.4375)"
         id="path37" />
    </clipPath>
    <clipPath
       clipPathUnits="userSpaceOnUse"
       id="clipPath39">
      <path
         d="M 0,400 H 600 V 0 H 0 Z"
         transform="translate(-80.7886,-196.1797)"
         id="path39" />
    </clipPath>
    <clipPath
       clipPathUnits="userSpaceOnUse"
       id="clipPath41">
      <path
         d="M 0,400 H 600 V 0 H 0 Z"
         transform="translate(-72.106902,-173.5918)"
         id="path41" />
    </clipPath>
    <clipPath
       clipPathUnits="userSpaceOnUse"
       id="clipPath43">
      <path
         d="M 0,400 H 600 V 0 H 0 Z"
         transform="translate(-78.990699,-162.44341)"
         id="path43" />
    </clipPath>
    <clipPath
       clipPathUnits="userSpaceOnUse"
       id="clipPath45">
      <path
         d="M 0,400 H 600 V 0 H 0 Z"
         transform="translate(-87.224605,-154.6924)"
         id="path45" />
    </clipPath>
    <clipPath
       clipPathUnits="userSpaceOnUse"
       id="clipPath47">
      <path
         d="M 0,400 H 600 V 0 H 0 Z"
         transform="translate(-104.90631,-180.01951)"
         id="path47" />
    </clipPath>
    <clipPath
       clipPathUnits="userSpaceOnUse"
       id="clipPath49">
      <path
         d="M 0,400 H 600 V 0 H 0 Z"
         transform="translate(-102.8506,-167.00101)"
         id="path49" />
    </clipPath>
    <clipPath
       clipPathUnits="userSpaceOnUse"
       id="clipPath51">
      <path
         d="M 0,400 H 600 V 0 H 0 Z"
         transform="translate(-442.85741,-199.999)"
         id="path51" />
    </clipPath>
    <clipPath
       clipPathUnits="userSpaceOnUse"
       id="clipPath53">
      <path
         d="M 0,400 H 600 V 0 H 0 Z"
         transform="translate(-290.03031,-255.8984)"
         id="path53" />
    </clipPath>
    <clipPath
       clipPathUnits="userSpaceOnUse"
       id="clipPath55">
      <path
         d="M 0,400 H 600 V 0 H 0 Z"
         id="path55" />
    </clipPath>
    <clipPath
       clipPathUnits="userSpaceOnUse"
       id="clipPath57">
      <path
         d="M 0,400 H 600 V 0 H 0 Z"
         id="path57" />
    </clipPath>
    <clipPath
       clipPathUnits="userSpaceOnUse"
       id="clipPath59">
      <path
         d="M 0,400 H 600 V 0 H 0 Z"
         id="path59" />
    </clipPath>
    <clipPath
       clipPathUnits="userSpaceOnUse"
       id="clipPath61">
      <path
         d="M 0,400 H 600 V 0 H 0 Z"
         id="path61" />
    </clipPath>
    <clipPath
       clipPathUnits="userSpaceOnUse"
       id="clipPath63">
      <path
         d="M 0,400 H 600 V 0 H 0 Z"
         id="path63" />
    </clipPath>
    <clipPath
       clipPathUnits="userSpaceOnUse"
       id="clipPath65">
      <path
         d="M 0,400 H 600 V 0 H 0 Z"
         id="path65" />
    </clipPath>
    <clipPath
       clipPathUnits="userSpaceOnUse"
       id="clipPath67">
      <path
         d="M 0,400 H 600 V 0 H 0 Z"
         id="path67" />
    </clipPath>
    <clipPath
       clipPathUnits="userSpaceOnUse"
       id="clipPath69">
      <path
         d="M 0,400 H 600 V 0 H 0 Z"
         id="path69" />
    </clipPath>
    <clipPath
       clipPathUnits="userSpaceOnUse"
       id="clipPath71">
      <path
         d="M 0,400 H 600 V 0 H 0 Z"
         id="path71" />
    </clipPath>
    <clipPath
       clipPathUnits="userSpaceOnUse"
       id="clipPath73">
      <path
         d="M 0,400 H 600 V 0 H 0 Z"
         id="path73" />
    </clipPath>
    <clipPath
       clipPathUnits="userSpaceOnUse"
       id="clipPath75">
      <path
         d="M 0,400 H 600 V 0 H 0 Z"
         id="path75" />
    </clipPath>
    <clipPath
       clipPathUnits="userSpaceOnUse"
       id="clipPath77">
      <path
         d="M 0,400 H 600 V 0 H 0 Z"
         id="path77" />
    </clipPath>
    <clipPath
       clipPathUnits="userSpaceOnUse"
       id="clipPath79">
      <path
         d="M 0,400 H 600 V 0 H 0 Z"
         id="path79" />
    </clipPath>
    <clipPath
       clipPathUnits="userSpaceOnUse"
       id="clipPath81">
      <path
         d="M 0,400 H 600 V 0 H 0 Z"
         id="path81" />
    </clipPath>
    <clipPath
       clipPathUnits="userSpaceOnUse"
       id="clipPath83">
      <path
         d="M 0,400 H 600 V 0 H 0 Z"
         id="path83" />
    </clipPath>
    <clipPath
       clipPathUnits="userSpaceOnUse"
       id="clipPath85">
      <path
         d="M 0,400 H 600 V 0 H 0 Z"
         id="path85" />
    </clipPath>
    <clipPath
       clipPathUnits="userSpaceOnUse"
       id="clipPath87">
      <path
         d="M 0,400 H 600 V 0 H 0 Z"
         id="path87" />
    </clipPath>
    <clipPath
       clipPathUnits="userSpaceOnUse"
       id="clipPath89">
      <path
         d="M 0,400 H 600 V 0 H 0 Z"
         id="path89" />
    </clipPath>
    <clipPath
       clipPathUnits="userSpaceOnUse"
       id="clipPath91">
      <path
         d="M 0,400 H 600 V 0 H 0 Z"
         id="path91" />
    </clipPath>
    <clipPath
       clipPathUnits="userSpaceOnUse"
       id="clipPath93">
      <path
         d="M 0,400 H 600 V 0 H 0 Z"
         id="path93" />
    </clipPath>
    <clipPath
       clipPathUnits="userSpaceOnUse"
       id="clipPath95">
      <path
         d="M 0,400 H 600 V 0 H 0 Z"
         id="path95" />
    </clipPath>
    <clipPath
       clipPathUnits="userSpaceOnUse"
       id="clipPath97">
      <path
         d="M 0,400 H 600 V 0 H 0 Z"
         id="path97" />
    </clipPath>
    <clipPath
       clipPathUnits="userSpaceOnUse"
       id="clipPath99">
      <path
         d="M 0,400 H 600 V 0 H 0 Z"
         id="path99" />
    </clipPath>
    <clipPath
       clipPathUnits="userSpaceOnUse"
       id="clipPath101">
      <path
         d="M 0,400 H 600 V 0 H 0 Z"
         id="path101" />
    </clipPath>
    <clipPath
       clipPathUnits="userSpaceOnUse"
       id="clipPath103">
      <path
         d="M 0,400 H 600 V 0 H 0 Z"
         transform="translate(-253.80421,-270.4985)"
         id="path103" />
    </clipPath>
    <clipPath
       clipPathUnits="userSpaceOnUse"
       id="clipPath105">
      <path
         d="M 0,400 H 600 V 0 H 0 Z"
         transform="translate(-244.04301,-233.09621)"
         id="path105" />
    </clipPath>
    <clipPath
       clipPathUnits="userSpaceOnUse"
       id="clipPath107">
      <path
         d="M 0,400 H 600 V 0 H 0 Z"
         transform="translate(-255.09721,-223.43801)"
         id="path107" />
    </clipPath>
    <clipPath
       clipPathUnits="userSpaceOnUse"
       id="clipPath109">
      <path
         d="M 0,400 H 600 V 0 H 0 Z"
         transform="translate(-272.3467,-215.55911)"
         id="path109" />
    </clipPath>
    <clipPath
       clipPathUnits="userSpaceOnUse"
       id="clipPath111">
      <path
         d="M 0,400 H 600 V 0 H 0 Z"
         transform="translate(-278.311,-250.04831)"
         id="path111" />
    </clipPath>
    <clipPath
       clipPathUnits="userSpaceOnUse"
       id="clipPath113">
      <path
         d="M 0,400 H 600 V 0 H 0 Z"
         transform="translate(-280.0615,-235.6445)"
         id="path113" />
    </clipPath>
  </defs>
  <sodipodi:namedview
     id="namedview1"
     pagecolor="#ffffff"
     bordercolor="#000000"
     borderopacity="0.25"
     inkscape:showpageshadow="2"
     inkscape:pageopacity="0.0"
     inkscape:pagecheckerboard="0"
     inkscape:deskcolor="#d1d1d1">
    <inkscape:page
       x="0"
       y="0"
       inkscape:label="1"
       id="page1"
       width="800"
       height="533.33331"
       margin="0 0.0080000004 0 0.0080159502"
       bleed="0" />
  </sodipodi:namedview>
  <g
     id="layer-MC0"
     inkscape:groupmode="layer"
     inkscape:label="Layer 1">
    <path
       id="path1"
       d="M 0.006,0 H 599.994 V 400 H 0.006 Z"
       style="fill:#3e5eb9;fill-opacity:1;fill-rule:nonzero;stroke:none"
       transform="matrix(1.3333333,0,0,-1.3333333,0,533.33333)" />
    <path
       id="path2"
       d="M 0.006,71.433 H 599.994 V 328.572 H 0.006 Z"
       style="fill:#ffd900;fill-opacity:1;fill-rule:nonzero;stroke:none"
       transform="matrix(1.3333333,0,0,-1.3333333,0,533.33333)" />
    <path
       id="path3"
       d="M 0.006,100.006 H 599.994 V 300.001 H 0.006 Z"
       style="fill:#b10c0c;fill-opacity:1;fill-rule:nonzero;stroke:none"
       transform="matrix(1.3333333,0,0,-1.3333333,0,533.33333)" />
    <path
       id="path4"
       d="m 0,0 h 477.255 c 2.333,0 4.224,-1.918 4.224,-4.285 0,-2.367 -1.891,-4.286 -4.224,-4.286 H 0 c -2.333,0 -4.224,1.919 -4.224,4.286 C -4.224,-1.918 -2.333,0 0,0"
       style="fill:#ffd900;fill-opacity:1;fill-rule:nonzero;stroke:#000000;stroke-width:1.35;stroke-linecap:butt;stroke-linejoin:miter;stroke-miterlimit:4;stroke-dasharray:none;stroke-opacity:1"
       transform="matrix(1.3333333,0,0,-1.3333333,85.389333,260.95507)"
       clip-path="url(#clipPath5)" />
    <path
       id="path6"
       d="M 0,0 -24.285,-8.572 0,-17.143 24.285,-8.572 Z"
       style="fill:#ffffff;fill-opacity:1;fill-rule:nonzero;stroke:#000000;stroke-width:2;stroke-linecap:butt;stroke-linejoin:miter;stroke-miterlimit:4;stroke-dasharray:none;stroke-opacity:1"
       transform="matrix(1.3333333,0,0,-1.3333333,657.13667,205.71293)"
       clip-path="url(#clipPath7)" />
    <path
       id="path8"
       d="m 0,0 h 350.921 c 1.716,0 3.107,-1.279 3.107,-2.857 0,-1.578 -1.391,-2.857 -3.107,-2.857 H 0 c -1.715,0 -3.105,1.279 -3.105,2.857 C -3.105,-1.279 -1.715,0 0,0"
       style="fill:#ffd900;fill-opacity:1;fill-rule:nonzero;stroke:#000000;stroke-width:1.25;stroke-linecap:butt;stroke-linejoin:miter;stroke-miterlimit:4;stroke-dasharray:none;stroke-opacity:1"
       transform="matrix(1.3333333,0,0,-1.3333333,167.95373,213.33333)"
       clip-path="url(#clipPath9)" />
    <path
       id="path10"
       d="M 0,0 C 1.427,0 2.858,1.429 2.858,2.857 2.858,4.286 1.427,5.714 0,5.714"
       style="fill:none;stroke:#000000;stroke-width:2.5;stroke-linecap:butt;stroke-linejoin:miter;stroke-miterlimit:4;stroke-dasharray:none;stroke-opacity:1"
       transform="matrix(1.3333333,0,0,-1.3333333,628.58853,220.94987)"
       clip-path="url(#clipPath11)" />
    <path
       id="path12"
       d="M 0,0 C 1.428,0 2.859,1.429 2.859,2.857 2.859,4.286 1.428,5.714 0,5.714"
       style="fill:none;stroke:#000000;stroke-width:2.5;stroke-linecap:butt;stroke-linejoin:miter;stroke-miterlimit:4;stroke-dasharray:none;stroke-opacity:1"
       transform="matrix(1.3333333,0,0,-1.3333333,624.77867,220.94987)"
       clip-path="url(#clipPath13)" />
    <path
       id="path14"
       d="M 0,0 C 1.428,0 2.858,1.429 2.858,2.857 2.858,4.286 1.428,5.715 0,5.715"
       style="fill:none;stroke:#000000;stroke-width:2.5;stroke-linecap:butt;stroke-linejoin:miter;stroke-miterlimit:4;stroke-dasharray:none;stroke-opacity:1"
       transform="matrix(1.3333333,0,0,-1.3333333,620.9688,220.95053)"
       clip-path="url(#clipPath15)" />
    <path
       id="path16"
       d="M 0,0 -24.285,-8.572 0,-17.143 24.285,-8.572 Z"
       style="fill:#ffffff;fill-opacity:1;fill-rule:nonzero;stroke:#000000;stroke-width:2;stroke-linecap:butt;stroke-linejoin:miter;stroke-miterlimit:4;stroke-dasharray:none;stroke-opacity:1"
       transform="matrix(1.3333333,0,0,-1.3333333,626.66147,228.5696)"
       clip-path="url(#clipPath17)" />
    <path
       id="path18"
       d="m 0,0 h 350.922 c 1.716,0 3.105,-1.279 3.105,-2.857 0,-1.578 -1.389,-2.857 -3.105,-2.857 H 0 c -1.715,0 -3.105,1.279 -3.105,2.857 C -3.105,-1.279 -1.715,0 0,0"
       style="fill:#ffd900;fill-opacity:1;fill-rule:nonzero;stroke:#000000;stroke-width:1.25;stroke-linecap:butt;stroke-linejoin:miter;stroke-miterlimit:4;stroke-dasharray:none;stroke-opacity:1"
       transform="matrix(1.3333333,0,0,-1.3333333,137.47787,236.19013)"
       clip-path="url(#clipPath19)" />
    <path
       id="path20"
       d="M 0,0 C 1.427,0 2.858,1.429 2.858,2.857 2.858,4.286 1.427,5.714 0,5.714"
       style="fill:none;stroke:#000000;stroke-width:2.5;stroke-linecap:butt;stroke-linejoin:miter;stroke-miterlimit:4;stroke-dasharray:none;stroke-opacity:1"
       transform="matrix(1.3333333,0,0,-1.3333333,598.11333,243.80667)"
       clip-path="url(#clipPath21)" />
    <path
       id="path22"
       d="M 0,0 C 1.428,0 2.858,1.429 2.858,2.857 2.858,4.286 1.428,5.714 0,5.714"
       style="fill:none;stroke:#000000;stroke-width:2.5;stroke-linecap:butt;stroke-linejoin:miter;stroke-miterlimit:4;stroke-dasharray:none;stroke-opacity:1"
       transform="matrix(1.3333333,0,0,-1.3333333,594.30333,243.80667)"
       clip-path="url(#clipPath23)" />
    <path
       id="path24"
       d="M 0,0 C 1.427,0 2.858,1.429 2.858,2.857 2.858,4.286 1.427,5.715 0,5.715"
       style="fill:none;stroke:#000000;stroke-width:2.5;stroke-linecap:butt;stroke-linejoin:miter;stroke-miterlimit:4;stroke-dasharray:none;stroke-opacity:1"
       transform="matrix(1.3333333,0,0,-1.3333333,590.49347,243.80733)"
       clip-path="url(#clipPath25)" />
    <path
       id="path26"
       d="m 0,0 c -4.328,-7.496 3.32,2.493 21.984,-10.056 3.459,-2.331 6.481,-8.488 6.481,-12.759 -0.878,0.588 -1.529,1.895 -2.497,2.743 -1.354,-1.357 1.293,-7.577 1.679,-10.517 -2.918,1.632 -2.636,2.406 -3.605,4.413 0.193,-2.426 -0.502,-9.108 0.659,-11.68 -2.3,0.656 -2.147,2.508 -3.348,2.88 0.817,-2.913 -0.711,-6.082 -0.306,-9.356 -1.344,1.331 -2.776,2.373 -3.4,2.91 -0.105,-1.56 -2.584,-5.657 -2.641,-7.131 -1.141,0.689 -1.45,1.763 -1.64,2.486 -1.418,-1.78 -6.455,-8.357 -6.778,-10.363 -3.881,3.428 -13.822,11.775 -15.117,16.206 -1.144,-2.516 -2.8,-3.364 -6.073,-5.2 -1.294,7.022 -6.13,14.914 -3.544,20.933 -1.832,-1.087 -3.341,-2.173 -5.173,-3.51 C -21.583,-17.832 -12.731,-5.907 0,0"
       style="fill:#3d5da7;fill-opacity:1;fill-rule:nonzero;stroke:#000000;stroke-width:1;stroke-linecap:butt;stroke-linejoin:miter;stroke-miterlimit:4;stroke-dasharray:none;stroke-opacity:1"
       transform="matrix(1.3333333,0,0,-1.3333333,681.81507,262.12693)"
       clip-path="url(#clipPath27)" />
    <path
       id="path28"
       d="m 0,0 c 1.797,3.592 3.451,4.731 4.612,7.044 2.052,4.064 2.344,7.3 4.131,6.825 C 10.531,13.395 10.528,11.73 8.214,7.733 5.898,3.736 4.798,2.883 0,0"
       style="fill:#a70000;fill-opacity:1;fill-rule:nonzero;stroke:none"
       transform="matrix(1.3333333,0,0,-1.3333333,660.28253,311.6276)"
       clip-path="url(#clipPath29)" />
    <path
       id="path30"
       d="M 0,0 C -0.23,2.735 0.562,3.877 0.418,5.639 0.171,8.737 -1.097,10.865 0.551,11.016 2.198,11.167 2.969,10.11 2.975,6.987 2.979,3.864 2.496,3.044 0,0"
       style="fill:#a70000;fill-opacity:1;fill-rule:nonzero;stroke:none"
       transform="matrix(1.3333333,0,0,-1.3333333,676.48573,323.0352)"
       clip-path="url(#clipPath31)" />
    <path
       id="path32"
       d="M 0,0 C -0.721,3.818 -0.182,5.512 -0.643,7.971 -1.444,12.3 -3.031,15.147 -1.504,15.544 0.023,15.939 0.944,14.54 1.522,10.151 2.102,5.763 1.796,4.556 0,0"
       style="fill:#a70000;fill-opacity:1;fill-rule:nonzero;stroke:none"
       transform="matrix(1.3333333,0,0,-1.3333333,688.78387,330.18493)"
       clip-path="url(#clipPath33)" />
    <path
       id="path34"
       d="M 0,0 C -2.252,1.709 -3.566,1.823 -5.019,2.922 -7.576,4.85 -8.871,6.912 -9.693,5.888 -10.517,4.863 -9.933,3.744 -7.252,1.966 -4.571,0.187 -3.664,0.047 0,0"
       style="fill:#a70000;fill-opacity:1;fill-rule:nonzero;stroke:none"
       transform="matrix(1.3333333,0,0,-1.3333333,701.56907,294.51307)"
       clip-path="url(#clipPath35)" />
    <path
       id="path36"
       d="M 0,0 C -1.187,2.465 -2.436,3.09 -3.204,4.676 -4.562,7.463 -4.563,9.874 -6.035,9.256 -7.507,8.638 -7.626,7.375 -6.051,4.678 -4.477,1.98 -3.652,1.492 0,0"
       style="fill:#a70000;fill-opacity:1;fill-rule:nonzero;stroke:none"
       transform="matrix(1.3333333,0,0,-1.3333333,699.45053,311.41667)"
       clip-path="url(#clipPath37)" />
    <path
       id="path38"
       d="M 0,0 C -0.242,2.184 0.225,2.444 -1.118,4.091 0.837,3.273 0.912,1.1 3.288,2.643 4.162,3.094 4.542,3.108 3.481,5.533 5.959,5.418 14.077,2.635 15.377,2.57 c 3.414,-0.157 9.644,3.586 13.969,-1.016 4.151,-4.196 2.764,-8.551 2.764,-14.362 -1.667,0.799 -0.864,1.193 -2.633,3.271 1.327,-5.079 -0.072,-14.237 -0.072,-19.624 -0.681,1.299 -0.581,0.734 -1.247,2.08 -1.77,-4.917 -3.891,-5.929 -3.891,-11.74 -0.639,2.279 -0.022,1.798 -0.733,2.996 -1.721,-3.733 -13.26,-6.923 -8.813,-10.687 -4.014,2.354 -5.774,2.107 -7.595,4.223 -0.783,-0.506 -1.407,-1.464 -2.136,-2.776 -7.056,3.246 -4.533,10.25 -10.062,14.927 -0.957,-1.962 -0.52,-1.676 -1.554,-4.869 -1.12,4.434 -1.426,7.251 -2.685,10.511 -1.086,-1.808 -0.988,-1.114 -2.96,-3.845 -0.816,5.401 -2.145,6.676 -1.62,10.249 -2.095,-1.478 -0.724,-0.88 -2.818,-2.7 C -14.725,-6.951 -6.151,3.275 0,0"
       style="fill:#3d5da7;fill-opacity:1;fill-rule:nonzero;stroke:#000000;stroke-width:1;stroke-linecap:butt;stroke-linejoin:miter;stroke-miterlimit:4;stroke-dasharray:none;stroke-opacity:1"
       transform="matrix(1.3333333,0,0,-1.3333333,107.71813,271.7604)"
       clip-path="url(#clipPath39)" />
    <path
       id="path40"
       d="m 0,0 c 1.818,4.456 3.457,5.855 4.631,8.724 2.075,5.043 2.413,9.073 4.157,8.458 C 10.531,16.567 10.502,14.491 8.17,9.536 5.838,4.582 4.747,3.532 0,0"
       style="fill:#a70000;fill-opacity:1;fill-rule:nonzero;stroke:none"
       transform="matrix(1.3333333,0,0,-1.3333333,96.142533,301.8776)"
       clip-path="url(#clipPath41)" />
    <path
       id="path42"
       d="m 0,0 c 0.729,3.995 1.879,5.45 2.352,8.022 0.839,4.525 0.371,7.893 1.991,7.716 C 5.963,15.561 6.33,13.854 5.251,9.353 4.174,4.853 3.43,3.786 0,0"
       style="fill:#a70000;fill-opacity:1;fill-rule:nonzero;stroke:none"
       transform="matrix(1.3333333,0,0,-1.3333333,105.32093,316.74213)"
       clip-path="url(#clipPath43)" />
    <path
       id="path44"
       d="M 0,0 C 0.206,3.874 1.113,5.386 1.249,7.88 1.495,12.268 0.65,15.409 2.195,15.427 3.74,15.444 4.29,13.867 3.817,9.475 3.343,5.082 2.771,3.985 0,0"
       style="fill:#a70000;fill-opacity:1;fill-rule:nonzero;stroke:none"
       transform="matrix(1.3333333,0,0,-1.3333333,116.29947,327.0768)"
       clip-path="url(#clipPath45)" />
    <path
       id="path46"
       d="m 0,0 c -3.381,3.368 -5.425,3.997 -7.605,6.164 -3.843,3.805 -5.699,7.375 -7.067,6.109 -1.368,-1.265 -0.545,-3.163 3.5,-6.784 C -7.127,1.869 -5.72,1.342 0,0"
       style="fill:#a70000;fill-opacity:1;fill-rule:nonzero;stroke:none"
       transform="matrix(1.3333333,0,0,-1.3333333,139.87507,293.30733)"
       clip-path="url(#clipPath47)" />
    <path
       id="path48"
       d="m 0,0 c -2.203,3.382 -3.818,4.258 -5.24,6.434 -2.507,3.824 -3.368,7.11 -4.79,6.296 -1.423,-0.813 -1.105,-2.531 1.613,-6.237 C -5.7,2.786 -4.607,2.104 0,0"
       style="fill:#a70000;fill-opacity:1;fill-rule:nonzero;stroke:none"
       transform="matrix(1.3333333,0,0,-1.3333333,137.13413,310.66533)"
       clip-path="url(#clipPath49)" />
    <path
       id="path50"
       d="m 0,0 c -28.571,-28.568 -66.668,-85.711 -142.855,-85.711 -66.668,0 -114.285,57.143 -142.856,85.711 28.571,28.574 76.188,85.716 142.856,85.716 C -66.668,85.716 -28.571,28.574 0,0"
       style="fill:#ffffff;fill-opacity:1;fill-rule:nonzero;stroke:#000000;stroke-width:1.976;stroke-linecap:butt;stroke-linejoin:miter;stroke-miterlimit:4;stroke-dasharray:none;stroke-opacity:1"
       transform="matrix(1.3333333,0,0,-1.3333333,590.47653,266.668)"
       clip-path="url(#clipPath51)" />
    <path
       id="path52"
       d="m 0,0 c 7.601,-8.549 1.254,-11.996 9.299,-12.557 8.485,-0.624 3.676,-9.034 10.813,-9.326 4.99,-0.218 -0.499,-20.152 4.305,-26.729 4.893,-6.857 8.991,-2.009 9.077,-6.963 0.085,-5.124 -13.317,-4.608 -13.552,-20.391 -0.393,-9.096 -11.31,-9.678 -11.831,-15.53 -0.647,-5.505 21.507,-8.596 21.212,-13.524 -0.303,-4.913 -23.922,-4.143 -24.95,-9.747 -0.528,-5.032 32.446,-9.157 35.098,-23.712 -4.921,-1.609 -18.919,-3.125 -29.5,-3.132 -66.657,-0.049 -114.279,57.147 -142.85,85.715 28.571,28.574 76.188,85.716 142.855,85.716 0,0 -19.789,-18.082 -9.971,-29.815 z"
       style="fill:#000000;fill-opacity:1;fill-rule:nonzero;stroke:none"
       transform="matrix(1.3333333,0,0,-1.3333333,386.70707,192.13547)"
       clip-path="url(#clipPath53)" />
    <path
       id="path54"
       d="m 210.479,230.478 h 6.927 v -22.857 h -6.927 z"
       style="fill:#ffffff;fill-opacity:1;fill-rule:nonzero;stroke:none"
       transform="matrix(1.3333333,0,0,-1.3333333,0,533.33333)"
       clip-path="url(#clipPath55)" />
    <path
       id="path56"
       d="m 210.479,192.383 h 6.927 v -22.857 h -6.927 z"
       style="fill:#ffffff;fill-opacity:1;fill-rule:nonzero;stroke:none"
       transform="matrix(1.3333333,0,0,-1.3333333,0,533.33333)"
       clip-path="url(#clipPath57)" />
    <path
       id="path58"
       d="m 224.33,230.478 h 6.926 v -22.857 h -6.926 z"
       style="fill:#ffffff;fill-opacity:1;fill-rule:nonzero;stroke:none"
       transform="matrix(1.3333333,0,0,-1.3333333,0,533.33333)"
       clip-path="url(#clipPath59)" />
    <path
       id="path60"
       d="m 224.33,192.383 h 6.926 v -22.857 h -6.926 z"
       style="fill:#ffffff;fill-opacity:1;fill-rule:nonzero;stroke:none"
       transform="matrix(1.3333333,0,0,-1.3333333,0,533.33333)"
       clip-path="url(#clipPath61)" />
    <path
       id="path62"
       d="m 238.181,230.478 h 6.927 v -22.857 h -6.927 z"
       style="fill:#ffffff;fill-opacity:1;fill-rule:nonzero;stroke:none"
       transform="matrix(1.3333333,0,0,-1.3333333,0,533.33333)"
       clip-path="url(#clipPath63)" />
    <path
       id="path64"
       d="m 238.181,192.383 h 6.927 v -22.857 h -6.927 z"
       style="fill:#ffffff;fill-opacity:1;fill-rule:nonzero;stroke:none"
       transform="matrix(1.3333333,0,0,-1.3333333,0,533.33333)"
       clip-path="url(#clipPath65)" />
    <path
       id="path66"
       d="m 252.037,230.478 h 6.926 v -22.857 h -6.926 z"
       style="fill:#ffffff;fill-opacity:1;fill-rule:nonzero;stroke:none"
       transform="matrix(1.3333333,0,0,-1.3333333,0,533.33333)"
       clip-path="url(#clipPath67)" />
    <path
       id="path68"
       d="m 252.037,192.383 h 6.926 v -22.857 h -6.926 z"
       style="fill:#ffffff;fill-opacity:1;fill-rule:nonzero;stroke:none"
       transform="matrix(1.3333333,0,0,-1.3333333,0,533.33333)"
       clip-path="url(#clipPath69)" />
    <path
       id="path70"
       d="m 265.888,230.478 h 6.927 v -22.857 h -6.927 z"
       style="fill:#ffffff;fill-opacity:1;fill-rule:nonzero;stroke:none"
       transform="matrix(1.3333333,0,0,-1.3333333,0,533.33333)"
       clip-path="url(#clipPath71)" />
    <path
       id="path72"
       d="m 265.888,192.383 h 6.927 v -22.857 h -6.927 z"
       style="fill:#ffffff;fill-opacity:1;fill-rule:nonzero;stroke:none"
       transform="matrix(1.3333333,0,0,-1.3333333,0,533.33333)"
       clip-path="url(#clipPath73)" />
    <path
       id="path74"
       d="m 279.739,230.478 h 6.926 v -22.857 h -6.926 z"
       style="fill:#ffffff;fill-opacity:1;fill-rule:nonzero;stroke:none"
       transform="matrix(1.3333333,0,0,-1.3333333,0,533.33333)"
       clip-path="url(#clipPath75)" />
    <path
       id="path76"
       d="m 279.739,192.383 h 6.926 v -22.857 h -6.926 z"
       style="fill:#ffffff;fill-opacity:1;fill-rule:nonzero;stroke:none"
       transform="matrix(1.3333333,0,0,-1.3333333,0,533.33333)"
       clip-path="url(#clipPath77)" />
    <path
       id="path78"
       d="m 315.238,230.478 h 6.927 v -22.857 h -6.927 z"
       style="fill:#000000;fill-opacity:1;fill-rule:nonzero;stroke:none"
       transform="matrix(1.3333333,0,0,-1.3333333,0,533.33333)"
       clip-path="url(#clipPath79)" />
    <path
       id="path80"
       d="m 315.238,192.383 h 6.927 v -22.857 h -6.927 z"
       style="fill:#000000;fill-opacity:1;fill-rule:nonzero;stroke:none"
       transform="matrix(1.3333333,0,0,-1.3333333,0,533.33333)"
       clip-path="url(#clipPath81)" />
    <path
       id="path82"
       d="m 329.09,230.478 h 6.927 v -22.857 h -6.927 z"
       style="fill:#000000;fill-opacity:1;fill-rule:nonzero;stroke:none"
       transform="matrix(1.3333333,0,0,-1.3333333,0,533.33333)"
       clip-path="url(#clipPath83)" />
    <path
       id="path84"
       d="m 329.09,192.383 h 6.927 v -22.857 h -6.927 z"
       style="fill:#000000;fill-opacity:1;fill-rule:nonzero;stroke:none"
       transform="matrix(1.3333333,0,0,-1.3333333,0,533.33333)"
       clip-path="url(#clipPath85)" />
    <path
       id="path86"
       d="m 342.941,230.478 h 6.926 v -22.857 h -6.926 z"
       style="fill:#000000;fill-opacity:1;fill-rule:nonzero;stroke:none"
       transform="matrix(1.3333333,0,0,-1.3333333,0,533.33333)"
       clip-path="url(#clipPath87)" />
    <path
       id="path88"
       d="m 342.941,192.383 h 6.926 v -22.857 h -6.926 z"
       style="fill:#000000;fill-opacity:1;fill-rule:nonzero;stroke:none"
       transform="matrix(1.3333333,0,0,-1.3333333,0,533.33333)"
       clip-path="url(#clipPath89)" />
    <path
       id="path90"
       d="m 356.797,230.478 h 6.926 v -22.857 h -6.926 z"
       style="fill:#000000;fill-opacity:1;fill-rule:nonzero;stroke:none"
       transform="matrix(1.3333333,0,0,-1.3333333,0,533.33333)"
       clip-path="url(#clipPath91)" />
    <path
       id="path92"
       d="m 356.797,192.383 h 6.926 v -22.857 h -6.926 z"
       style="fill:#000000;fill-opacity:1;fill-rule:nonzero;stroke:none"
       transform="matrix(1.3333333,0,0,-1.3333333,0,533.33333)"
       clip-path="url(#clipPath93)" />
    <path
       id="path94"
       d="m 370.647,230.478 h 6.927 v -22.857 h -6.927 z"
       style="fill:#000000;fill-opacity:1;fill-rule:nonzero;stroke:none"
       transform="matrix(1.3333333,0,0,-1.3333333,0,533.33333)"
       clip-path="url(#clipPath95)" />
    <path
       id="path96"
       d="m 370.647,192.383 h 6.927 v -22.857 h -6.927 z"
       style="fill:#000000;fill-opacity:1;fill-rule:nonzero;stroke:none"
       transform="matrix(1.3333333,0,0,-1.3333333,0,533.33333)"
       clip-path="url(#clipPath97)" />
    <path
       id="path98"
       d="m 384.499,230.478 h 6.927 v -22.857 h -6.927 z"
       style="fill:#000000;fill-opacity:1;fill-rule:nonzero;stroke:none"
       transform="matrix(1.3333333,0,0,-1.3333333,0,533.33333)"
       clip-path="url(#clipPath99)" />
    <path
       id="path100"
       d="m 384.499,192.383 h 6.927 v -22.857 h -6.927 z"
       style="fill:#000000;fill-opacity:1;fill-rule:nonzero;stroke:none"
       transform="matrix(1.3333333,0,0,-1.3333333,0,533.33333)"
       clip-path="url(#clipPath101)" />
    <path
       id="path102"
       d="m 0,0 c -3.958,-7.655 6.93,2.545 23.998,-10.269 3.163,-2.38 7.697,-11.787 7.697,-16.146 -3.634,0.773 -10.07,4.36 -10.07,4.36 0,0 7.553,-7.565 7.553,-16.284 -2.669,1.668 -4.004,1.418 -4.89,3.466 0,-2.823 2.373,-4.622 2.373,-8.981 -1.927,1.536 -3.557,2.561 -5.187,3.46 2.517,-4.36 -4.587,-12.817 -1.032,-15.641 -6.217,0.9 -12.58,4.872 -15.097,9.232 -1.334,-0.899 -1.479,-2.311 -1.531,-3.816 0.196,-0.162 -9.465,7.171 -8.578,9.989 -1.296,-1.819 -1.478,-2.818 -1.774,-4.867 -3.549,3.5 -6.801,7 -7.985,11.525 -1.578,-2.049 -1.676,-2.049 -3.253,-4.097 -1.183,7.171 -1.183,6.915 1.182,13.061 -1.676,-1.11 -3.056,-2.22 -4.731,-3.586 C -19.738,-18.208 -11.643,-6.031 0,0"
       style="fill:#3d5da7;fill-opacity:1;fill-rule:nonzero;stroke:#000000;stroke-width:1;stroke-linecap:butt;stroke-linejoin:miter;stroke-miterlimit:4;stroke-dasharray:none;stroke-opacity:1"
       transform="matrix(1.3333333,0,0,-1.3333333,338.4056,172.66867)"
       clip-path="url(#clipPath103)" />
    <path
       id="path104"
       d="M 0,0 C 0.633,5.275 2.012,7.262 2.424,10.659 3.159,16.633 2.287,21 4.404,20.889 6.521,20.779 7.131,18.575 6.084,12.614 5.038,6.652 4.156,5.204 0,0"
       style="fill:#a70000;fill-opacity:1;fill-rule:nonzero;stroke:none"
       transform="matrix(1.3333333,0,0,-1.3333333,325.39067,222.5384)"
       clip-path="url(#clipPath105)" />
    <path
       id="path106"
       d="m 0,0 c -0.429,4.451 0.393,6.345 0.12,9.212 -0.47,5.044 -2.028,8.461 -0.182,8.775 1.845,0.314 2.777,-1.378 2.977,-6.47 C 3.114,6.424 2.621,5.066 0,0"
       style="fill:#a70000;fill-opacity:1;fill-rule:nonzero;stroke:none"
       transform="matrix(1.3333333,0,0,-1.3333333,340.1296,235.416)"
       clip-path="url(#clipPath107)" />
    <path
       id="path108"
       d="m 0,0 c -1.876,3.851 -3.487,5 -4.699,7.478 -2.139,4.356 -2.586,7.913 -4.236,7.269 -1.65,-0.645 -1.559,-2.485 0.824,-6.749 C -5.729,3.734 -4.651,2.864 0,0"
       style="fill:#a70000;fill-opacity:1;fill-rule:nonzero;stroke:none"
       transform="matrix(1.3333333,0,0,-1.3333333,363.12893,245.9212)"
       clip-path="url(#clipPath109)" />
    <path
       id="path110"
       d="m 0,0 c -4.778,2.515 -7.231,2.547 -10.311,4.163 -5.422,2.833 -8.578,6.035 -9.698,4.273 -1.121,-1.762 0.374,-3.514 5.964,-6.09 C -8.455,-0.23 -6.737,-0.353 0,0"
       style="fill:#a70000;fill-opacity:1;fill-rule:nonzero;stroke:none"
       transform="matrix(1.3333333,0,0,-1.3333333,371.08133,199.9356)"
       clip-path="url(#clipPath111)" />
    <path
       id="path112"
       d="m 0,0 c -3.479,2.895 -5.537,3.321 -7.78,5.182 -3.953,3.267 -5.92,6.475 -7.241,5.175 C -16.341,9.056 -15.459,7.338 -11.31,4.26 -7.161,1.182 -5.742,0.8 0,0"
       style="fill:#a70000;fill-opacity:1;fill-rule:nonzero;stroke:none"
       transform="matrix(1.3333333,0,0,-1.3333333,373.41533,219.14067)"
       clip-path="url(#clipPath113)" />
  </g>
</svg>
