<?xml version="1.0" encoding="UTF-8" standalone="no"?>
<!-- Created with Inkscape (http://www.inkscape.org/) -->

<svg
   version="1.1"
   id="svg1"
   width="900"
   height="600"
   viewBox="0 0 900 600"
   sodipodi:docname="sx.ai"
   xmlns:inkscape="http://www.inkscape.org/namespaces/inkscape"
   xmlns:sodipodi="http://sodipodi.sourceforge.net/DTD/sodipodi-0.dtd"
   xmlns="http://www.w3.org/2000/svg"
   xmlns:svg="http://www.w3.org/2000/svg">
  <defs
     id="defs1">
    <clipPath
       clipPathUnits="userSpaceOnUse"
       id="clipPath5">
      <path
         d="M 0,450 H 675 V 0 H 0 Z"
         transform="translate(-151.4346,-280.1899)"
         id="path5" />
    </clipPath>
    <clipPath
       clipPathUnits="userSpaceOnUse"
       id="clipPath7">
      <path
         d="M 0,450 H 675 V 0 H 0 Z"
         transform="translate(-151.4346,-280.1899)"
         id="path7" />
    </clipPath>
    <clipPath
       clipPathUnits="userSpaceOnUse"
       id="clipPath9">
      <path
         d="M 0,450 H 675 V 0 H 0 Z"
         transform="translate(-149.7012,-284.54151)"
         id="path9" />
    </clipPath>
    <clipPath
       clipPathUnits="userSpaceOnUse"
       id="clipPath11">
      <path
         d="M 0,450 H 675 V 0 H 0 Z"
         transform="translate(-167.17191,-220.1611)"
         id="path11" />
    </clipPath>
    <clipPath
       clipPathUnits="userSpaceOnUse"
       id="clipPath13">
      <path
         d="M 0,450 H 675 V 0 H 0 Z"
         transform="translate(-150.2959,-216.37401)"
         id="path13" />
    </clipPath>
    <clipPath
       clipPathUnits="userSpaceOnUse"
       id="clipPath15">
      <path
         d="M 0,450 H 675 V 0 H 0 Z"
         transform="translate(-150.2959,-216.37401)"
         id="path15" />
    </clipPath>
    <clipPath
       clipPathUnits="userSpaceOnUse"
       id="clipPath17">
      <path
         d="M 0,450 H 675 V 0 H 0 Z"
         transform="translate(-158.69871,-192.90231)"
         id="path17" />
    </clipPath>
    <clipPath
       clipPathUnits="userSpaceOnUse"
       id="clipPath19">
      <path
         d="M 0,450 H 675 V 0 H 0 Z"
         transform="translate(-76.543899,-193.2354)"
         id="path19" />
    </clipPath>
    <clipPath
       clipPathUnits="userSpaceOnUse"
       id="clipPath21">
      <path
         d="M 0,450 H 675 V 0 H 0 Z"
         transform="translate(-93.4507,-197.89941)"
         id="path21" />
    </clipPath>
    <clipPath
       clipPathUnits="userSpaceOnUse"
       id="clipPath23">
      <path
         d="M 0,450 H 675 V 0 H 0 Z"
         transform="translate(-85.712905,-208.34571)"
         id="path23" />
    </clipPath>
    <clipPath
       clipPathUnits="userSpaceOnUse"
       id="clipPath25">
      <path
         d="M 0,450 H 675 V 0 H 0 Z"
         transform="translate(-145.0767,-197.8584)"
         id="path25" />
    </clipPath>
    <clipPath
       clipPathUnits="userSpaceOnUse"
       id="clipPath27">
      <path
         d="M 0,450 H 675 V 0 H 0 Z"
         transform="translate(-137.3389,-208.2949)"
         id="path27" />
    </clipPath>
    <clipPath
       clipPathUnits="userSpaceOnUse"
       id="clipPath29">
      <path
         d="M 0,450 H 675 V 0 H 0 Z"
         transform="translate(-144.9961,-219.3457)"
         id="path29" />
    </clipPath>
    <clipPath
       clipPathUnits="userSpaceOnUse"
       id="clipPath31">
      <path
         d="M 0,450 H 675 V 0 H 0 Z"
         transform="translate(-137.25831,-229.77201)"
         id="path31" />
    </clipPath>
    <clipPath
       clipPathUnits="userSpaceOnUse"
       id="clipPath33">
      <path
         d="M 0,450 H 675 V 0 H 0 Z"
         transform="translate(-93.359905,-219.3955)"
         id="path33" />
    </clipPath>
    <clipPath
       clipPathUnits="userSpaceOnUse"
       id="clipPath35">
      <path
         d="M 0,450 H 675 V 0 H 0 Z"
         transform="translate(-85.622102,-229.8223)"
         id="path35" />
    </clipPath>
    <clipPath
       clipPathUnits="userSpaceOnUse"
       id="clipPath37">
      <path
         d="M 0,450 H 675 V 0 H 0 Z"
         transform="translate(-112.4731,-219.376)"
         id="path37" />
    </clipPath>
    <clipPath
       clipPathUnits="userSpaceOnUse"
       id="clipPath39">
      <path
         d="M 0,450 H 675 V 0 H 0 Z"
         transform="translate(-104.7451,-229.80181)"
         id="path39" />
    </clipPath>
    <clipPath
       clipPathUnits="userSpaceOnUse"
       id="clipPath41">
      <path
         d="M 0,450 H 675 V 0 H 0 Z"
         transform="translate(-127.2031,-219.3457)"
         id="path41" />
    </clipPath>
    <clipPath
       clipPathUnits="userSpaceOnUse"
       id="clipPath43">
      <path
         d="M 0,450 H 675 V 0 H 0 Z"
         transform="translate(-119.46531,-229.792)"
         id="path43" />
    </clipPath>
    <clipPath
       clipPathUnits="userSpaceOnUse"
       id="clipPath45">
      <path
         d="M 0,450 H 675 V 0 H 0 Z"
         transform="translate(-129.82281,-223.39551)"
         id="path45" />
    </clipPath>
    <clipPath
       clipPathUnits="userSpaceOnUse"
       id="clipPath47">
      <path
         d="M 0,450 H 675 V 0 H 0 Z"
         transform="translate(-129.82281,-223.39551)"
         id="path47" />
    </clipPath>
    <clipPath
       clipPathUnits="userSpaceOnUse"
       id="clipPath49">
      <path
         d="M 0,450 H 675 V 0 H 0 Z"
         transform="translate(-99.082502,-214.7119)"
         id="path49" />
    </clipPath>
    <clipPath
       clipPathUnits="userSpaceOnUse"
       id="clipPath51">
      <path
         d="M 0,450 H 675 V 0 H 0 Z"
         transform="translate(-102.9214,-192.9834)"
         id="path51" />
    </clipPath>
    <clipPath
       clipPathUnits="userSpaceOnUse"
       id="clipPath53">
      <path
         d="M 0,450 H 675 V 0 H 0 Z"
         transform="translate(-126.2158,-192.9736)"
         id="path53" />
    </clipPath>
    <clipPath
       clipPathUnits="userSpaceOnUse"
       id="clipPath55">
      <path
         d="M 0,450 H 675 V 0 H 0 Z"
         transform="translate(-140.9761,-236.34961)"
         id="path55" />
    </clipPath>
    <clipPath
       clipPathUnits="userSpaceOnUse"
       id="clipPath57">
      <path
         d="M 0,450 H 675 V 0 H 0 Z"
         transform="translate(-105.9141,-259.3477)"
         id="path57" />
    </clipPath>
    <clipPath
       clipPathUnits="userSpaceOnUse"
       id="clipPath59">
      <path
         d="M 0,450 H 675 V 0 H 0 Z"
         transform="translate(-110.32671,-257.44381)"
         id="path59" />
    </clipPath>
    <clipPath
       clipPathUnits="userSpaceOnUse"
       id="clipPath61">
      <path
         d="M 0,450 H 675 V 0 H 0 Z"
         transform="translate(-114.0244,-268.07131)"
         id="path61" />
    </clipPath>
    <clipPath
       clipPathUnits="userSpaceOnUse"
       id="clipPath63">
      <path
         d="M 0,450 H 675 V 0 H 0 Z"
         transform="translate(-150.59811,-272.4028)"
         id="path63" />
    </clipPath>
    <clipPath
       clipPathUnits="userSpaceOnUse"
       id="clipPath65">
      <path
         d="M 0,450 H 675 V 0 H 0 Z"
         transform="translate(-100.6948,-222.5488)"
         id="path65" />
    </clipPath>
    <clipPath
       clipPathUnits="userSpaceOnUse"
       id="clipPath67">
      <path
         d="M 0,450 H 675 V 0 H 0 Z"
         transform="translate(-105.22851,-222.5488)"
         id="path67" />
    </clipPath>
    <clipPath
       clipPathUnits="userSpaceOnUse"
       id="clipPath69">
      <path
         d="M 0,450 H 675 V 0 H 0 Z"
         transform="translate(-110.18601,-222.5488)"
         id="path69" />
    </clipPath>
    <clipPath
       clipPathUnits="userSpaceOnUse"
       id="clipPath71">
      <path
         d="M 0,450 H 675 V 0 H 0 Z"
         transform="translate(-115.7676,-222.5293)"
         id="path71" />
    </clipPath>
    <clipPath
       clipPathUnits="userSpaceOnUse"
       id="clipPath73">
      <path
         d="M 0,450 H 675 V 0 H 0 Z"
         transform="translate(-120.73491,-222.5293)"
         id="path73" />
    </clipPath>
    <clipPath
       clipPathUnits="userSpaceOnUse"
       id="clipPath75">
      <path
         d="M 0,450 H 675 V 0 H 0 Z"
         transform="translate(-125.6719,-222.51861)"
         id="path75" />
    </clipPath>
    <clipPath
       clipPathUnits="userSpaceOnUse"
       id="clipPath77">
      <path
         d="M 0,450 H 675 V 0 H 0 Z"
         transform="translate(-114.6895,-153.97851)"
         id="path77" />
    </clipPath>
    <clipPath
       clipPathUnits="userSpaceOnUse"
       id="clipPath79">
      <path
         d="M 0,450 H 675 V 0 H 0 Z"
         transform="translate(-30.237801,-229.3384)"
         id="path79" />
    </clipPath>
    <clipPath
       clipPathUnits="userSpaceOnUse"
       id="clipPath81">
      <path
         d="M 0,450 H 675 V 0 H 0 Z"
         transform="translate(-39.134301,-204.84961)"
         id="path81" />
    </clipPath>
    <clipPath
       clipPathUnits="userSpaceOnUse"
       id="clipPath83">
      <path
         d="M 0,450 H 675 V 0 H 0 Z"
         transform="translate(-39.134301,-204.84961)"
         id="path83" />
    </clipPath>
    <clipPath
       clipPathUnits="userSpaceOnUse"
       id="clipPath85">
      <path
         d="M 0,450 H 675 V 0 H 0 Z"
         transform="translate(-22.6108,-214.46001)"
         id="path85" />
    </clipPath>
    <clipPath
       clipPathUnits="userSpaceOnUse"
       id="clipPath87">
      <path
         d="M 0,450 H 675 V 0 H 0 Z"
         transform="translate(-67.748501,-143.8047)"
         id="path87" />
    </clipPath>
    <clipPath
       clipPathUnits="userSpaceOnUse"
       id="clipPath89">
      <path
         d="M 0,450 H 675 V 0 H 0 Z"
         transform="translate(-198.1338,-229.1875)"
         id="path89" />
    </clipPath>
    <clipPath
       clipPathUnits="userSpaceOnUse"
       id="clipPath91">
      <path
         d="M 0,450 H 675 V 0 H 0 Z"
         transform="translate(-189.44871,-204.7588)"
         id="path91" />
    </clipPath>
    <clipPath
       clipPathUnits="userSpaceOnUse"
       id="clipPath93">
      <path
         d="M 0,450 H 675 V 0 H 0 Z"
         transform="translate(-189.44871,-204.7588)"
         id="path93" />
    </clipPath>
    <clipPath
       clipPathUnits="userSpaceOnUse"
       id="clipPath95">
      <path
         d="M 0,450 H 675 V 0 H 0 Z"
         transform="translate(-205.90191,-214.2988)"
         id="path95" />
    </clipPath>
    <clipPath
       clipPathUnits="userSpaceOnUse"
       id="clipPath97">
      <path
         d="M 0,450 H 675 V 0 H 0 Z"
         transform="translate(-161.37891,-143.7334)"
         id="path97" />
    </clipPath>
    <clipPath
       clipPathUnits="userSpaceOnUse"
       id="clipPath99">
      <path
         d="M 0,450 H 675 V 0 H 0 Z"
         transform="translate(-103.1431,-140.76171)"
         id="path99" />
    </clipPath>
    <clipPath
       clipPathUnits="userSpaceOnUse"
       id="clipPath101">
      <path
         d="M 0,450 H 675 V 0 H 0 Z"
         transform="translate(-111.415,-140.35941)"
         id="path101" />
    </clipPath>
    <clipPath
       clipPathUnits="userSpaceOnUse"
       id="clipPath103">
      <path
         d="M 0,450 H 675 V 0 H 0 Z"
         transform="translate(-118.82031,-147.2695)"
         id="path103" />
    </clipPath>
    <clipPath
       clipPathUnits="userSpaceOnUse"
       id="clipPath105">
      <path
         d="M 0,450 H 675 V 0 H 0 Z"
         transform="translate(-157.55031,-159.126)"
         id="path105" />
    </clipPath>
    <clipPath
       clipPathUnits="userSpaceOnUse"
       id="clipPath107">
      <path
         d="M 0,450 H 675 V 0 H 0 Z"
         transform="translate(-168.5122,-152.9512)"
         id="path107" />
    </clipPath>
    <clipPath
       clipPathUnits="userSpaceOnUse"
       id="clipPath109">
      <path
         d="M 0,450 H 675 V 0 H 0 Z"
         transform="translate(-178.15431,-157.0312)"
         id="path109" />
    </clipPath>
    <clipPath
       clipPathUnits="userSpaceOnUse"
       id="clipPath111">
      <path
         d="M 0,450 H 675 V 0 H 0 Z"
         transform="translate(-189.3984,-165.9463)"
         id="path111" />
    </clipPath>
    <clipPath
       clipPathUnits="userSpaceOnUse"
       id="clipPath113">
      <path
         d="M 0,450 H 675 V 0 H 0 Z"
         transform="translate(-194.3149,-172.3428)"
         id="path113" />
    </clipPath>
    <clipPath
       clipPathUnits="userSpaceOnUse"
       id="clipPath115">
      <path
         d="M 0,450 H 675 V 0 H 0 Z"
         transform="translate(-197.1763,-177.3193)"
         id="path115" />
    </clipPath>
    <clipPath
       clipPathUnits="userSpaceOnUse"
       id="clipPath117">
      <path
         d="M 0,450 H 675 V 0 H 0 Z"
         transform="translate(-200.79351,-187)"
         id="path117" />
    </clipPath>
    <clipPath
       clipPathUnits="userSpaceOnUse"
       id="clipPath119">
      <path
         d="M 0,450 H 675 V 0 H 0 Z"
         transform="translate(-200.13871,-197.5264)"
         id="path119" />
    </clipPath>
    <clipPath
       clipPathUnits="userSpaceOnUse"
       id="clipPath121">
      <path
         d="M 0,450 H 675 V 0 H 0 Z"
         transform="translate(-28.2427,-198.0303)"
         id="path121" />
    </clipPath>
    <clipPath
       clipPathUnits="userSpaceOnUse"
       id="clipPath123">
      <path
         d="M 0,450 H 675 V 0 H 0 Z"
         transform="translate(-27.7192,-187.1611)"
         id="path123" />
    </clipPath>
    <clipPath
       clipPathUnits="userSpaceOnUse"
       id="clipPath125">
      <path
         d="M 0,450 H 675 V 0 H 0 Z"
         transform="translate(-31.315901,-177.25881)"
         id="path125" />
    </clipPath>
    <clipPath
       clipPathUnits="userSpaceOnUse"
       id="clipPath127">
      <path
         d="M 0,450 H 675 V 0 H 0 Z"
         transform="translate(-39.214801,-165.52251)"
         id="path127" />
    </clipPath>
    <clipPath
       clipPathUnits="userSpaceOnUse"
       id="clipPath129">
      <path
         d="M 0,450 H 675 V 0 H 0 Z"
         transform="translate(-46.660601,-158.9043)"
         id="path129" />
    </clipPath>
    <clipPath
       clipPathUnits="userSpaceOnUse"
       id="clipPath131">
      <path
         d="M 0,450 H 675 V 0 H 0 Z"
         transform="translate(-57.572302,-153.3643)"
         id="path131" />
    </clipPath>
    <clipPath
       clipPathUnits="userSpaceOnUse"
       id="clipPath133">
      <path
         d="M 0,450 H 675 V 0 H 0 Z"
         transform="translate(-68.967302,-295.65231)"
         id="path133" />
    </clipPath>
    <clipPath
       clipPathUnits="userSpaceOnUse"
       id="clipPath135">
      <path
         d="M 0,450 H 675 V 0 H 0 Z"
         transform="translate(-74.921902,-269.64261)"
         id="path135" />
    </clipPath>
    <clipPath
       clipPathUnits="userSpaceOnUse"
       id="clipPath137">
      <path
         d="M 0,450 H 675 V 0 H 0 Z"
         transform="translate(-77.229504,-269.8945)"
         id="path137" />
    </clipPath>
    <clipPath
       clipPathUnits="userSpaceOnUse"
       id="clipPath139">
      <path
         d="M 0,450 H 675 V 0 H 0 Z"
         transform="translate(-82.7305,-268.22221)"
         id="path139" />
    </clipPath>
    <clipPath
       clipPathUnits="userSpaceOnUse"
       id="clipPath141">
      <path
         d="M 0,450 H 675 V 0 H 0 Z"
         transform="translate(-75.879399,-265.27101)"
         id="path141" />
    </clipPath>
    <clipPath
       clipPathUnits="userSpaceOnUse"
       id="clipPath143">
      <path
         d="M 0,450 H 675 V 0 H 0 Z"
         transform="translate(-79.617204,-264.5356)"
         id="path143" />
    </clipPath>
    <clipPath
       clipPathUnits="userSpaceOnUse"
       id="clipPath145">
      <path
         d="M 0,450 H 675 V 0 H 0 Z"
         transform="translate(-84.3931,-262.31931)"
         id="path145" />
    </clipPath>
    <clipPath
       clipPathUnits="userSpaceOnUse"
       id="clipPath147">
      <path
         d="M 0,450 H 675 V 0 H 0 Z"
         transform="translate(-82.952102,-262.73241)"
         id="path147" />
    </clipPath>
    <clipPath
       clipPathUnits="userSpaceOnUse"
       id="clipPath149">
      <path
         d="M 0,450 H 675 V 0 H 0 Z"
         transform="translate(-82.045405,-260.44581)"
         id="path149" />
    </clipPath>
    <clipPath
       clipPathUnits="userSpaceOnUse"
       id="clipPath151">
      <path
         d="M 0,450 H 675 V 0 H 0 Z"
         transform="translate(-81.2998,-259.95211)"
         id="path151" />
    </clipPath>
  </defs>
  <sodipodi:namedview
     id="namedview1"
     pagecolor="#ffffff"
     bordercolor="#000000"
     borderopacity="0.25"
     inkscape:showpageshadow="2"
     inkscape:pageopacity="0.0"
     inkscape:pagecheckerboard="0"
     inkscape:deskcolor="#d1d1d1">
    <inkscape:page
       x="0"
       y="0"
       inkscape:label="1"
       id="page1"
       width="900"
       height="600"
       margin="0"
       bleed="0" />
  </sodipodi:namedview>
  <g
     id="layer-MC0"
     inkscape:groupmode="layer"
     inkscape:label="Layer 1">
    <path
       id="path1"
       d="M 0,0 H 675 V 450 H 0 Z"
       style="fill:#012a87;fill-opacity:1;fill-rule:nonzero;stroke:none"
       transform="matrix(1.3333333,0,0,-1.3333333,0,600)" />
    <path
       id="path2"
       d="M 0,225 H 675 V 450 H 0 Z"
       style="fill:#dc171d;fill-opacity:1;fill-rule:nonzero;stroke:none"
       transform="matrix(1.3333333,0,0,-1.3333333,0,600)" />
    <path
       id="path3"
       d="m 0,0 v -450 l 300,225 z"
       style="fill:#ffffff;fill-opacity:1;fill-rule:nonzero;stroke:none"
       transform="scale(1.3333333,-1.3333333)" />
    <path
       id="path4"
       d="m 0,0 0.101,3.485 c 0,0 -1.874,2.982 0.292,6.185 0,0 -4.605,2.438 -3.537,6.256 0,0 -4.171,1.068 -3.858,5.651 0,0 -4.504,0.313 -4.968,4.151 0,0 -4.504,-0.746 -6.488,2.991 0,0 -4.393,-0.856 -5.632,2.217 0,0 -4.262,-1.471 -6.801,2.145 0,0 -4.504,-1.823 -6.398,1.592 -1.864,-3.405 -6.368,-1.592 -6.368,-1.592 -2.498,-3.606 -6.801,-2.115 -6.801,-2.115 -1.199,-3.083 -5.582,-2.206 -5.582,-2.206 -1.974,-3.738 -6.468,-2.992 -6.468,-2.992 -0.443,-3.828 -4.937,-4.14 -4.937,-4.14 0.363,-4.594 -3.808,-5.641 -3.808,-5.641 1.098,-3.818 -3.506,-6.256 -3.506,-6.256 2.226,-3.213 0.372,-6.175 0.372,-6.175 L -74.487,0.342 0.02,0"
       style="fill:#ffff00;fill-opacity:1;fill-rule:nonzero;stroke:none"
       transform="matrix(1.3333333,0,0,-1.3333333,201.9128,226.41347)"
       clip-path="url(#clipPath5)" />
    <path
       id="path6"
       d="m 0,0 0.101,3.485 c 0,0 -1.874,2.982 0.292,6.185 0,0 -4.605,2.438 -3.537,6.256 0,0 -4.171,1.068 -3.858,5.651 0,0 -4.504,0.313 -4.968,4.151 0,0 -4.504,-0.746 -6.488,2.991 0,0 -4.393,-0.856 -5.632,2.217 0,0 -4.262,-1.471 -6.801,2.145 0,0 -4.504,-1.823 -6.398,1.592 -1.864,-3.405 -6.368,-1.592 -6.368,-1.592 -2.498,-3.606 -6.801,-2.115 -6.801,-2.115 -1.199,-3.083 -5.582,-2.206 -5.582,-2.206 -1.974,-3.738 -6.468,-2.992 -6.468,-2.992 -0.443,-3.828 -4.937,-4.14 -4.937,-4.14 0.363,-4.594 -3.808,-5.641 -3.808,-5.641 1.098,-3.818 -3.506,-6.256 -3.506,-6.256 2.226,-3.213 0.372,-6.175 0.372,-6.175 L -74.487,0.342 0.02,0 Z"
       style="fill:#f9d90f;fill-opacity:1;fill-rule:nonzero;stroke:#000000;stroke-width:0.271;stroke-linecap:butt;stroke-linejoin:miter;stroke-miterlimit:4;stroke-dasharray:none;stroke-opacity:1"
       transform="matrix(1.3333333,0,0,-1.3333333,201.9128,226.41347)"
       clip-path="url(#clipPath7)" />
    <path
       id="path8"
       d="m 0,0 c -11.708,1.168 -25.178,3.949 -35.586,-1.904 -6.972,4.1 -16.675,3.848 -24.947,3.052 -4.493,-0.806 -9.773,-0.806 -14.458,-1.571 l -0.735,-0.101 c -8.514,-0.574 -16.242,1.944 -23.637,5.249 2.347,-13.328 4.957,-26.987 6.237,-40.949 2.791,-20.671 -9.784,-38.027 -4.625,-58.447 3.083,-9.801 13.854,-15.493 23.717,-16.621 9.552,-0.564 19.436,-2.125 28.272,-4.05 1.682,-0.342 3.667,-1.128 4.826,-1.632 2.438,-1.017 4.222,-2.508 5.793,-4.109 5.33,5.549 13.149,7.101 20.867,7.917 13.903,1.622 31.042,0.736 39.555,13.337 v 0.705 c 4.625,6.971 4.02,17.599 2.005,25.487 -0.131,2.76 -0.866,5.187 -1.269,7.806 -8.494,22.434 -1.219,47.658 2.438,70.273 C 23.99,1.995 19.012,0.846 14.045,-0.373 10.076,-0.907 5.663,-0.665 1.653,-0.454 L -0.01,0"
       style="fill:#dc171d;fill-opacity:1;fill-rule:nonzero;stroke:none"
       transform="matrix(1.3333333,0,0,-1.3333333,199.6016,220.61133)"
       clip-path="url(#clipPath9)" />
    <path
       id="path10"
       d="M 0,0 C -0.05,-1.471 0.746,-2.629 1.038,-3.999 2.66,-13.8 4.232,-26.795 -5.864,-32.88 c -11.173,-7.101 -25.813,-4.059 -38.74,-7.816 -2.579,-0.716 -6.135,-3.093 -7.949,-4.765 -1.169,0.766 -2.338,1.943 -3.839,2.629 -10.639,5.661 -24.462,3.768 -36.462,6.819 -6.036,1.905 -12.323,6.599 -13.844,12.774 -3.929,16.188 5.471,29.979 4.363,46.046 -0.716,12.259 -2.781,24.035 -5.612,35.529 9.38,-4.372 20.251,-5.097 30.8,-3.002 7.809,1.088 16.907,1.119 24.231,-2.186 4.03,1.733 8.756,2.509 13.108,2.992 8.262,-0.806 17.149,-2.307 25.662,-2.236 5.683,0.292 10.852,1.934 15.798,4.12 C -1.279,39.025 -6.912,19.12 0,0.001"
       style="fill:#62afe1;fill-opacity:1;fill-rule:nonzero;stroke:none"
       transform="matrix(1.3333333,0,0,-1.3333333,222.89587,306.45187)"
       clip-path="url(#clipPath11)" />
    <path
       id="path12"
       d="m 0,0 -0.091,17.87 h 2.207 l -27.324,17.639 -0.051,9.167 h 2.64 l -13.652,9.782 -13.592,-9.772 h 2.63 l 0.05,-9.157 -27.173,-17.618 2.166,-0.02 L -72.089,0.04 0,-0.01"
       style="fill:#ffffff;fill-opacity:1;fill-rule:nonzero;stroke:none"
       transform="matrix(1.3333333,0,0,-1.3333333,200.39453,311.50133)"
       clip-path="url(#clipPath13)" />
    <path
       id="path14"
       d="m 0,0 -0.091,17.87 h 2.207 l -27.324,17.639 -0.051,9.167 h 2.64 l -13.652,9.782 -13.592,-9.772 h 2.63 l 0.05,-9.157 -27.173,-17.618 2.166,-0.02 L -72.089,0.04 0,-0.01 Z"
       style="fill:none;stroke:#000000;stroke-width:1.164;stroke-linecap:butt;stroke-linejoin:miter;stroke-miterlimit:4;stroke-dasharray:none;stroke-opacity:1"
       transform="matrix(1.3333333,0,0,-1.3333333,200.39453,311.50133)"
       clip-path="url(#clipPath15)" />
    <path
       id="path16"
       d="m 0,0 v -5.591 l -88.008,0.101 -0.031,5.561 z"
       style="fill:#ffffff;fill-opacity:1;fill-rule:nonzero;stroke:#000000;stroke-width:1.164;stroke-linecap:butt;stroke-linejoin:miter;stroke-miterlimit:4;stroke-dasharray:none;stroke-opacity:1"
       transform="matrix(1.3333333,0,0,-1.3333333,211.59827,342.79693)"
       clip-path="url(#clipPath17)" />
    <path
       id="path18"
       d="m 0,0 -0.081,18.928 3.567,0.009 -0.201,-19.149 0.221,18.988 -5.138,0.152 v 4.059 l 78.658,-0.091 0.031,-4.018 H 72.21 l 0.091,-19.16 -0.171,19.16 h 3.607 l 0.08,-18.948"
       style="fill:#ffffff;fill-opacity:1;fill-rule:nonzero;stroke:#000000;stroke-width:1.164;stroke-linecap:butt;stroke-linejoin:miter;stroke-miterlimit:4;stroke-dasharray:none;stroke-opacity:1"
       transform="matrix(1.3333333,0,0,-1.3333333,102.05853,342.3528)"
       clip-path="url(#clipPath19)" />
    <path
       id="path20"
       d="M 0,0 -0.061,13.196 H -10.62 L -10.559,0.01 0,0"
       style="fill:none;stroke:#000000;stroke-width:1.164;stroke-linecap:butt;stroke-linejoin:miter;stroke-miterlimit:4;stroke-dasharray:none;stroke-opacity:1"
       transform="matrix(1.3333333,0,0,-1.3333333,124.60093,336.13413)"
       clip-path="url(#clipPath21)" />
    <path
       id="path22"
       d="M 0,0 0.03,-7.666 H 4.856 L 4.836,0 H 0"
       style="fill:none;stroke:#000000;stroke-width:1.164;stroke-linecap:butt;stroke-linejoin:miter;stroke-miterlimit:4;stroke-dasharray:none;stroke-opacity:1"
       transform="matrix(1.3333333,0,0,-1.3333333,114.28387,322.20573)"
       clip-path="url(#clipPath23)" />
    <path
       id="path24"
       d="M 0,0 -0.061,13.187 -10.579,13.196 -10.539,0 H 0"
       style="fill:none;stroke:#000000;stroke-width:1.164;stroke-linecap:butt;stroke-linejoin:miter;stroke-miterlimit:4;stroke-dasharray:none;stroke-opacity:1"
       transform="matrix(1.3333333,0,0,-1.3333333,193.4356,336.1888)"
       clip-path="url(#clipPath25)" />
    <path
       id="path26"
       d="M 0,0 0.05,-7.646 H 4.887 L 4.836,0 H 0"
       style="fill:none;stroke:#000000;stroke-width:1.164;stroke-linecap:butt;stroke-linejoin:miter;stroke-miterlimit:4;stroke-dasharray:none;stroke-opacity:1"
       transform="matrix(1.3333333,0,0,-1.3333333,183.11853,322.27347)"
       clip-path="url(#clipPath27)" />
    <path
       id="path28"
       d="M 0,0 -0.061,13.196 H -10.599 L -10.559,0 H 0.01 Z"
       style="fill:none;stroke:#000000;stroke-width:1.164;stroke-linecap:butt;stroke-linejoin:miter;stroke-miterlimit:4;stroke-dasharray:none;stroke-opacity:1"
       transform="matrix(1.3333333,0,0,-1.3333333,193.32813,307.53907)"
       clip-path="url(#clipPath29)" />
    <path
       id="path30"
       d="M 0,0 0.03,-7.656 H 4.856 V 0 H 0"
       style="fill:none;stroke:#000000;stroke-width:1.164;stroke-linecap:butt;stroke-linejoin:miter;stroke-miterlimit:4;stroke-dasharray:none;stroke-opacity:1"
       transform="matrix(1.3333333,0,0,-1.3333333,183.01107,293.63733)"
       clip-path="url(#clipPath31)" />
    <path
       id="path32"
       d="m 0,0 -0.07,13.177 -10.539,0.01 0.05,-13.176 10.559,0 z"
       style="fill:none;stroke:#000000;stroke-width:1.164;stroke-linecap:butt;stroke-linejoin:miter;stroke-miterlimit:4;stroke-dasharray:none;stroke-opacity:1"
       transform="matrix(1.3333333,0,0,-1.3333333,124.47987,307.47267)"
       clip-path="url(#clipPath33)" />
    <path
       id="path34"
       d="M 0,0 0.03,-7.646 4.866,-7.656 4.826,0 H 0"
       style="fill:none;stroke:#000000;stroke-width:1.164;stroke-linecap:butt;stroke-linejoin:miter;stroke-miterlimit:4;stroke-dasharray:none;stroke-opacity:1"
       transform="matrix(1.3333333,0,0,-1.3333333,114.1628,293.57027)"
       clip-path="url(#clipPath35)" />
    <path
       id="path36"
       d="M 0,0 -0.051,13.166 -10.6,13.186 -10.549,0 H 0"
       style="fill:none;stroke:#000000;stroke-width:1.164;stroke-linecap:butt;stroke-linejoin:miter;stroke-miterlimit:4;stroke-dasharray:none;stroke-opacity:1"
       transform="matrix(1.3333333,0,0,-1.3333333,149.96413,307.49867)"
       clip-path="url(#clipPath37)" />
    <path
       id="path38"
       d="M 0,0 0.02,-7.636 4.856,-7.666 4.826,0 H 0"
       style="fill:none;stroke:#000000;stroke-width:1.164;stroke-linecap:butt;stroke-linejoin:miter;stroke-miterlimit:4;stroke-dasharray:none;stroke-opacity:1"
       transform="matrix(1.3333333,0,0,-1.3333333,139.66013,293.5976)"
       clip-path="url(#clipPath39)" />
    <path
       id="path40"
       d="M 0,0 -0.071,13.196 -10.609,13.216 -10.559,0.03 0,0"
       style="fill:none;stroke:#000000;stroke-width:1.164;stroke-linecap:butt;stroke-linejoin:miter;stroke-miterlimit:4;stroke-dasharray:none;stroke-opacity:1"
       transform="matrix(1.3333333,0,0,-1.3333333,169.60413,307.53907)"
       clip-path="url(#clipPath41)" />
    <path
       id="path42"
       d="M 0,0 0.03,-7.666 H 4.866 L 4.836,0 H 0"
       style="fill:none;stroke:#000000;stroke-width:1.164;stroke-linecap:butt;stroke-linejoin:miter;stroke-miterlimit:4;stroke-dasharray:none;stroke-opacity:1"
       transform="matrix(1.3333333,0,0,-1.3333333,159.28707,293.61067)"
       clip-path="url(#clipPath43)" />
    <path
       id="path44"
       d="m 0,0 0.111,-30.422 -30.559,0.05 L -30.559,0.03 -0.01,0"
       style="fill:#ffffff;fill-opacity:1;fill-rule:nonzero;stroke:none"
       transform="matrix(1.3333333,0,0,-1.3333333,173.09707,302.13933)"
       clip-path="url(#clipPath45)" />
    <path
       id="path46"
       d="m 0,0 0.111,-30.422 -30.559,0.05 L -30.559,0.03 -0.01,0 Z"
       style="fill:none;stroke:#000000;stroke-width:1.164;stroke-linecap:butt;stroke-linejoin:miter;stroke-miterlimit:4;stroke-dasharray:none;stroke-opacity:1"
       transform="matrix(1.3333333,0,0,-1.3333333,173.09707,302.13933)"
       clip-path="url(#clipPath47)" />
    <path
       id="path48"
       d="M 0,0 30.771,-0.021"
       style="fill:none;stroke:#000000;stroke-width:1.164;stroke-linecap:butt;stroke-linejoin:miter;stroke-miterlimit:4;stroke-dasharray:none;stroke-opacity:1"
       transform="matrix(1.3333333,0,0,-1.3333333,132.11,313.71747)"
       clip-path="url(#clipPath49)" />
    <path
       id="path50"
       d="M 0,0 -0.111,21.507"
       style="fill:none;stroke:#000000;stroke-width:1.164;stroke-linecap:butt;stroke-linejoin:miter;stroke-miterlimit:4;stroke-dasharray:none;stroke-opacity:1"
       transform="matrix(1.3333333,0,0,-1.3333333,137.22853,342.6888)"
       clip-path="url(#clipPath51)" />
    <path
       id="path52"
       d="M 0,0 -0.101,21.486"
       style="fill:none;stroke:#000000;stroke-width:1.164;stroke-linecap:butt;stroke-linejoin:miter;stroke-miterlimit:4;stroke-dasharray:none;stroke-opacity:1"
       transform="matrix(1.3333333,0,0,-1.3333333,168.28773,342.70187)"
       clip-path="url(#clipPath53)" />
    <path
       id="path54"
       d="M 0,0 -17.208,12.572 -36.543,12.592 -53.621,0.05 0,0"
       style="fill:none;stroke:#000000;stroke-width:1.164;stroke-linecap:butt;stroke-linejoin:miter;stroke-miterlimit:4;stroke-dasharray:none;stroke-opacity:1"
       transform="matrix(1.3333333,0,0,-1.3333333,187.96813,284.8672)"
       clip-path="url(#clipPath55)" />
    <path
       id="path56"
       d="M 0,0 0.03,-7.666 16.302,-7.676 16.271,-0.01 0,0"
       style="fill:none;stroke:#000000;stroke-width:1.164;stroke-linecap:butt;stroke-linejoin:miter;stroke-miterlimit:4;stroke-dasharray:none;stroke-opacity:1"
       transform="matrix(1.3333333,0,0,-1.3333333,141.2188,254.20307)"
       clip-path="url(#clipPath57)" />
    <path
       id="path58"
       d="M 0,0 0.03,-3.818 H 7.496 L 7.476,0 H 0"
       style="fill:none;stroke:#000000;stroke-width:1.164;stroke-linecap:butt;stroke-linejoin:miter;stroke-miterlimit:4;stroke-dasharray:none;stroke-opacity:1"
       transform="matrix(1.3333333,0,0,-1.3333333,147.10227,256.7416)"
       clip-path="url(#clipPath59)" />
    <path
       id="path60"
       d="M 0,0 9.038,-6.396 -8.987,-6.376 0,0"
       style="fill:none;stroke:#000000;stroke-width:1.164;stroke-linecap:butt;stroke-linejoin:miter;stroke-miterlimit:4;stroke-dasharray:none;stroke-opacity:1"
       transform="matrix(1.3333333,0,0,-1.3333333,152.03253,242.5716)"
       clip-path="url(#clipPath61)" />
    <path
       id="path62"
       d="m 0,0 c 2.569,0.061 3.234,-10.577 3.234,-15.855 2.217,-0.615 7.103,-3.698 9.269,-6.478 l -24.825,0.03 c 2.136,2.75 6.992,5.843 9.178,6.457 0,5.279 0.544,15.916 3.144,15.856"
       style="fill:#ffffff;fill-opacity:1;fill-rule:nonzero;stroke:#000000;stroke-width:1.164;stroke-linecap:butt;stroke-linejoin:miter;stroke-miterlimit:4;stroke-dasharray:none;stroke-opacity:1"
       transform="matrix(1.3333333,0,0,-1.3333333,200.79747,236.79627)"
       clip-path="url(#clipPath63)" />
    <path
       id="path64"
       d="M 0,0 H 2.227 L 1.572,-1.198 c 0,0 1.078,-1.381 0.02,-2.962 L 2.176,-5.258 H 0.03 l 0.585,1.037 c 0,0 -1.099,1.833 0.05,3.023 L 0,0"
       style="fill:none;stroke:#000000;stroke-width:1.164;stroke-linecap:butt;stroke-linejoin:miter;stroke-miterlimit:4;stroke-dasharray:none;stroke-opacity:1"
       transform="matrix(1.3333333,0,0,-1.3333333,134.25973,303.26827)"
       clip-path="url(#clipPath65)" />
    <path
       id="path66"
       d="M 0,0 H 2.227 L 1.582,-1.198 c 0,0 1.078,-1.34 0.01,-2.962 L 2.167,-5.258 H 0.03 l 0.575,1.037 c 0,0 -1.078,1.833 0.05,3.023 L 0,0"
       style="fill:none;stroke:#000000;stroke-width:1.164;stroke-linecap:butt;stroke-linejoin:miter;stroke-miterlimit:4;stroke-dasharray:none;stroke-opacity:1"
       transform="matrix(1.3333333,0,0,-1.3333333,140.30467,303.26827)"
       clip-path="url(#clipPath67)" />
    <path
       id="path68"
       d="M 0,0 H 2.216 L 1.551,-1.198 c 0,0 1.089,-1.381 0.021,-2.962 l 0.584,-1.128 -2.126,0.03 0.564,1.037 c 0,0 -1.088,1.824 0.041,3.023 L -0.01,0 Z"
       style="fill:none;stroke:#000000;stroke-width:1.164;stroke-linecap:butt;stroke-linejoin:miter;stroke-miterlimit:4;stroke-dasharray:none;stroke-opacity:1"
       transform="matrix(1.3333333,0,0,-1.3333333,146.91467,303.26827)"
       clip-path="url(#clipPath69)" />
    <path
       id="path70"
       d="M 0,0 H 2.237 L 1.582,-1.209 c 0,0 1.078,-1.351 0.01,-2.941 L 2.187,-5.269 H 0.03 l 0.574,1.047 c 0,0 -1.067,1.844 0.081,3.013 L 0.01,0 Z"
       style="fill:none;stroke:#000000;stroke-width:1.164;stroke-linecap:butt;stroke-linejoin:miter;stroke-miterlimit:4;stroke-dasharray:none;stroke-opacity:1"
       transform="matrix(1.3333333,0,0,-1.3333333,154.3568,303.29427)"
       clip-path="url(#clipPath71)" />
    <path
       id="path72"
       d="M 0,0 H 2.216 L 1.562,-1.209 c 0,0 1.078,-1.351 0.02,-2.932 L 2.166,-5.269 H 0.03 l 0.554,1.047 c 0,0 -1.078,1.834 0.081,3.013 L 0,0"
       style="fill:none;stroke:#000000;stroke-width:1.164;stroke-linecap:butt;stroke-linejoin:miter;stroke-miterlimit:4;stroke-dasharray:none;stroke-opacity:1"
       transform="matrix(1.3333333,0,0,-1.3333333,160.97987,303.29427)"
       clip-path="url(#clipPath73)" />
    <path
       id="path74"
       d="M 0,0 2.227,0.011 1.562,-1.198 c 0,0 1.098,-1.351 0.03,-2.942 L 2.156,-5.258 H 0.01 l 0.574,1.047 c 0,0 -1.078,1.834 0.071,3.013 L 0,0"
       style="fill:none;stroke:#000000;stroke-width:1.164;stroke-linecap:butt;stroke-linejoin:miter;stroke-miterlimit:4;stroke-dasharray:none;stroke-opacity:1"
       transform="matrix(1.3333333,0,0,-1.3333333,167.56253,303.30853)"
       clip-path="url(#clipPath75)" />
    <path
       id="path76"
       d="m 0,0 c 11.446,-0.03 25.521,2.307 32.11,5.712 l 14.478,1.279 0.293,-17.669 c -12.262,-6.759 -40.594,-8.21 -46.82,-8.16 -6.237,-0.05 -34.912,1.421 -47.234,8.21 l 0.161,17.68 14.509,-1.3 C -25.904,2.357 -11.405,0 0.03,0 H 0"
       style="fill:#f9d90f;fill-opacity:1;fill-rule:nonzero;stroke:#000000;stroke-width:0.271;stroke-linecap:butt;stroke-linejoin:miter;stroke-miterlimit:4;stroke-dasharray:none;stroke-opacity:1"
       transform="matrix(1.3333333,0,0,-1.3333333,152.91933,394.69533)"
       clip-path="url(#clipPath77)" />
    <path
       id="path78"
       d="M 0,0 12.755,-4.06 8.907,-24.71 -3.174,-26.583 c 0,0 -2.035,10.859 3.174,26.593"
       style="fill:#f9d90f;fill-opacity:1;fill-rule:nonzero;stroke:#000000;stroke-width:0.271;stroke-linecap:butt;stroke-linejoin:miter;stroke-miterlimit:4;stroke-dasharray:none;stroke-opacity:1"
       transform="matrix(1.3333333,0,0,-1.3333333,40.317067,294.21547)"
       clip-path="url(#clipPath79)" />
    <path
       id="path80"
       d="m 0,0 -12.07,-2.095 7.637,10.86 z"
       style="fill:#f9b60f;fill-opacity:1;fill-rule:nonzero;stroke:none"
       transform="matrix(1.3333333,0,0,-1.3333333,52.179067,326.8672)"
       clip-path="url(#clipPath81)" />
    <path
       id="path82"
       d="M 0,0 -12.07,-2.095 -4.433,8.765 0,0"
       style="fill:none;stroke:#000000;stroke-width:0.271;stroke-linecap:butt;stroke-linejoin:miter;stroke-miterlimit:4;stroke-dasharray:none;stroke-opacity:1"
       transform="matrix(1.3333333,0,0,-1.3333333,52.179067,326.8672)"
       clip-path="url(#clipPath83)" />
    <path
       id="path84"
       d="m 0,0 12.302,-0.887 c 0.272,-10.416 1.531,-50.176 49.016,-52.342 L 59.837,-67.694 C 2.045,-68.288 -2.348,-18.918 0,0"
       style="fill:#f9d90f;fill-opacity:1;fill-rule:nonzero;stroke:#000000;stroke-width:0.271;stroke-linecap:butt;stroke-linejoin:miter;stroke-miterlimit:4;stroke-dasharray:none;stroke-opacity:1"
       transform="matrix(1.3333333,0,0,-1.3333333,30.147733,314.05333)"
       clip-path="url(#clipPath85)" />
    <path
       id="path86"
       d="M 0,0 14.488,3.173"
       style="fill:none;stroke:#000000;stroke-width:0.271;stroke-linecap:butt;stroke-linejoin:miter;stroke-miterlimit:4;stroke-dasharray:none;stroke-opacity:1"
       transform="matrix(1.3333333,0,0,-1.3333333,90.331333,408.2604)"
       clip-path="url(#clipPath87)" />
    <path
       id="path88"
       d="m 0,0 -12.715,-4.02 4.03,-20.62 12.101,-1.944 c 0,0 1.944,10.85 -3.416,26.604 z"
       style="fill:#f9d90f;fill-opacity:1;fill-rule:nonzero;stroke:#000000;stroke-width:0.271;stroke-linecap:butt;stroke-linejoin:miter;stroke-miterlimit:4;stroke-dasharray:none;stroke-opacity:1"
       transform="matrix(1.3333333,0,0,-1.3333333,264.1784,294.41667)"
       clip-path="url(#clipPath89)" />
    <path
       id="path90"
       d="M 0,0 12.101,-2.165 4.363,8.694 Z"
       style="fill:#f9b60f;fill-opacity:1;fill-rule:nonzero;stroke:none"
       transform="matrix(1.3333333,0,0,-1.3333333,252.59827,326.98827)"
       clip-path="url(#clipPath91)" />
    <path
       id="path92"
       d="M 0,0 12.101,-2.165 4.363,8.694 0,0"
       style="fill:none;stroke:#000000;stroke-width:0.271;stroke-linecap:butt;stroke-linejoin:miter;stroke-miterlimit:4;stroke-dasharray:none;stroke-opacity:1"
       transform="matrix(1.3333333,0,0,-1.3333333,252.59827,326.98827)"
       clip-path="url(#clipPath93)" />
    <path
       id="path94"
       d="m 0,0 -12.312,-0.847 c -0.182,-10.405 -1.088,-50.175 -48.574,-52.291 l 1.613,-14.456 C -1.481,-68.258 2.488,-18.918 0,0"
       style="fill:#f9d90f;fill-opacity:1;fill-rule:nonzero;stroke:#000000;stroke-width:0.271;stroke-linecap:butt;stroke-linejoin:miter;stroke-miterlimit:4;stroke-dasharray:none;stroke-opacity:1"
       transform="matrix(1.3333333,0,0,-1.3333333,274.53587,314.26827)"
       clip-path="url(#clipPath95)" />
    <path
       id="path96"
       d="M 0,0 -14.529,3.174"
       style="fill:none;stroke:#000000;stroke-width:0.271;stroke-linecap:butt;stroke-linejoin:miter;stroke-miterlimit:4;stroke-dasharray:none;stroke-opacity:1"
       transform="matrix(1.3333333,0,0,-1.3333333,215.17187,408.35547)"
       clip-path="url(#clipPath97)" />
    <path
       id="path98"
       d="M 0,0 0.232,3.496 2.902,3.314 C 3.768,3.244 4.413,3.466 4.846,3.909 5.3,4.342 5.531,4.906 5.562,5.541 5.622,6.286 5.431,6.891 4.987,7.344 4.564,7.768 3.97,7.999 3.214,8.069 L -0.615,8.312 -1.139,0.091 0,0.021 M 3.859,4.514 C 3.537,4.302 3.093,4.251 2.589,4.271 L 0.292,4.393 0.484,7.253 2.761,7.133 C 3.214,7.103 3.567,7.012 3.789,6.881 4.252,6.639 4.454,6.195 4.403,5.581 4.373,5.058 4.191,4.715 3.859,4.514"
       style="fill:#012a87;fill-opacity:1;fill-rule:nonzero;stroke:none"
       transform="matrix(1.3333333,0,0,-1.3333333,137.52413,412.31773)"
       clip-path="url(#clipPath99)" />
    <path
       id="path100"
       d="M 0,0 0.02,3.516 2.65,3.476 C 3.113,3.476 3.456,3.435 3.698,3.324 4.081,3.143 4.272,2.77 4.292,2.256 L 4.363,0.876 C 4.373,0.544 4.383,0.342 4.403,0.201 4.443,0.11 4.453,0 4.503,-0.07 H 5.914 L 5.894,0.11 C 5.733,0.191 5.602,0.362 5.551,0.614 5.501,0.766 5.471,1.007 5.461,1.31 L 5.44,2.407 C 5.42,2.901 5.33,3.243 5.148,3.435 4.977,3.656 4.755,3.848 4.403,3.969 4.796,4.17 5.088,4.412 5.3,4.704 5.511,5.026 5.612,5.439 5.612,5.943 5.612,6.89 5.229,7.535 4.443,7.877 4.02,8.068 3.476,8.169 2.841,8.18 L -1.108,8.22 -1.139,-0.021 H 0 M 0.05,7.283 2.841,7.253 C 3.244,7.213 3.566,7.162 3.798,7.051 4.231,6.85 4.433,6.447 4.433,5.862 4.433,5.309 4.272,4.936 3.959,4.714 3.657,4.513 3.224,4.422 2.7,4.422 l -2.68,0.03 0.02,2.831"
       style="fill:#012a87;fill-opacity:1;fill-rule:nonzero;stroke:none"
       transform="matrix(1.3333333,0,0,-1.3333333,148.55333,412.85413)"
       clip-path="url(#clipPath101)" />
    <path
       id="path102"
       d="m 0,0 c -0.534,-0.815 -0.746,-1.753 -0.695,-2.901 0.08,-1.229 0.464,-2.246 1.179,-3.012 0.796,-0.766 1.853,-1.158 3.153,-1.078 1.391,0.06 2.439,0.585 3.154,1.552 0.574,0.876 0.856,1.903 0.796,3.153 C 7.506,-1.158 7.174,-0.252 6.569,0.434 5.804,1.35 4.685,1.753 3.164,1.692 1.723,1.602 0.675,1.068 -0.01,0 m 1.36,-5.187 c -0.504,0.614 -0.776,1.379 -0.836,2.286 -0.06,1.148 0.161,2.014 0.685,2.609 C 1.723,0.343 2.408,0.645 3.295,0.695 4.191,0.745 4.927,0.453 5.471,-0.11 6.035,-0.654 6.348,-1.431 6.408,-2.377 6.438,-3.304 6.277,-4.12 5.854,-4.835 5.441,-5.561 4.746,-5.974 3.718,-6.004 2.65,-6.054 1.854,-5.802 1.35,-5.187"
       style="fill:#012a87;fill-opacity:1;fill-rule:nonzero;stroke:none"
       transform="matrix(1.3333333,0,0,-1.3333333,158.42707,403.64067)"
       clip-path="url(#clipPath103)" />
    <path
       id="path104"
       d="M 0,0 C 0.786,0.131 1.471,0.101 2.105,-0.121 3.022,-0.402 3.637,-1.088 4.03,-2.125 L 2.892,-2.286 C 2.649,-1.723 2.297,-1.34 1.823,-1.118 1.37,-0.916 0.786,-0.866 0.131,-0.967 -0.645,-1.088 -1.27,-1.471 -1.703,-2.095 c -0.423,-0.655 -0.554,-1.542 -0.362,-2.67 0.15,-0.936 0.503,-1.722 1.067,-2.246 0.514,-0.544 1.28,-0.735 2.288,-0.594 0.745,0.121 1.35,0.422 1.773,0.936 0.433,0.494 0.564,1.239 0.423,2.196 L 0.836,-4.886 0.705,-3.969 4.382,-3.404 5.098,-7.767 4.373,-7.877 3.919,-6.87 C 3.607,-7.323 3.305,-7.676 3.032,-7.877 2.579,-8.24 1.964,-8.462 1.199,-8.572 c -0.998,-0.152 -1.905,0.02 -2.72,0.553 -0.907,0.665 -1.492,1.663 -1.704,3.042 -0.241,1.351 -0.029,2.509 0.595,3.426 0.594,0.886 1.461,1.4 2.63,1.561"
       style="fill:#012a87;fill-opacity:1;fill-rule:nonzero;stroke:none"
       transform="matrix(1.3333333,0,0,-1.3333333,210.06707,387.832)"
       clip-path="url(#clipPath105)" />
    <path
       id="path106"
       d="M 0,0 -1.29,3.304 1.159,4.19 C 1.622,4.332 1.944,4.412 2.176,4.392 2.62,4.332 2.942,4.069 3.164,3.566 L 3.728,2.307 C 3.849,1.994 3.949,1.813 4.03,1.723 4.06,1.611 4.141,1.541 4.201,1.471 l 1.33,0.493 -0.07,0.172 C 5.259,2.136 5.078,2.246 4.937,2.468 4.826,2.619 4.735,2.841 4.594,3.093 L 4.151,4.13 C 3.959,4.573 3.758,4.855 3.526,5.017 3.285,5.147 2.992,5.229 2.65,5.259 2.912,5.57 3.113,5.883 3.184,6.245 3.264,6.618 3.224,7.041 3.053,7.505 2.71,8.381 2.096,8.864 1.219,8.925 0.766,8.955 0.231,8.864 -0.373,8.643 L -4.081,7.323 -1.088,-0.423 0,-0.021 M -2.64,6.81 0,7.767 C 0.353,7.907 0.675,7.948 0.937,7.918 1.42,7.878 1.783,7.596 1.985,7.011 2.176,6.527 2.176,6.095 1.955,5.792 1.733,5.479 1.38,5.258 0.856,5.067 L -1.622,4.181 -2.64,6.81"
       style="fill:#012a87;fill-opacity:1;fill-rule:nonzero;stroke:none"
       transform="matrix(1.3333333,0,0,-1.3333333,224.68293,396.06507)"
       clip-path="url(#clipPath107)" />
    <path
       id="path108"
       d="M 0,0 -4.705,6.87 0.463,10.164 1.027,9.328 -3.204,6.628 -1.753,4.532 2.156,7.041 2.69,6.245 -1.219,3.727 0.373,1.41 4.685,4.17 5.249,3.354 Z"
       style="fill:#012a87;fill-opacity:1;fill-rule:nonzero;stroke:none"
       transform="matrix(1.3333333,0,0,-1.3333333,237.53907,390.62507)"
       clip-path="url(#clipPath109)" />
    <path
       id="path110"
       d="M 0,0 C 0.957,1.058 1.168,2.186 0.604,3.465 0.282,4.16 -0.212,4.835 -0.907,5.43 -1.763,6.195 -2.67,6.588 -3.617,6.658 -4.675,6.739 -5.572,6.356 -6.348,5.51 l -2.297,-2.468 6.338,-5.53 2.297,2.477 m -7.114,3.234 1.341,1.481 C -5.148,5.369 -4.494,5.661 -3.769,5.58 -3.043,5.52 -2.308,5.137 -1.521,4.452 -1.31,4.281 -1.119,4.069 -0.917,3.827 -0.574,3.384 -0.373,2.991 -0.242,2.599 -0.131,2.104 -0.161,1.662 -0.333,1.229 -0.434,1.017 -0.625,0.766 -0.897,0.463 l -1.35,-1.471 -4.877,4.241"
       style="fill:#012a87;fill-opacity:1;fill-rule:nonzero;stroke:none"
       transform="matrix(1.3333333,0,0,-1.3333333,252.5312,378.73827)"
       clip-path="url(#clipPath111)" />
    <path
       id="path112"
       d="M 0,0 -7.305,4.281 -6.71,5.228 0.604,0.967 0,-0.01"
       style="fill:#012a87;fill-opacity:1;fill-rule:nonzero;stroke:none"
       transform="matrix(1.3333333,0,0,-1.3333333,259.08653,370.2096)"
       clip-path="url(#clipPath113)" />
    <path
       id="path114"
       d="M 0,0 -7.879,3.152 -5.562,8.693 -4.604,8.33 -6.499,3.757 -4.121,2.83 -2.347,7.031 -1.44,6.658 -3.194,2.458 -0.544,1.38 1.401,6.004 2.358,5.641 -0.01,0"
       style="fill:#012a87;fill-opacity:1;fill-rule:nonzero;stroke:none"
       transform="matrix(1.3333333,0,0,-1.3333333,262.90173,363.57427)"
       clip-path="url(#clipPath115)" />
    <path
       id="path116"
       d="m 0,0 -8.292,1.833 0.272,1.279 7.667,2.589 -6.73,1.481 0.242,1.007 L 1.451,6.406 1.189,5.157 -6.479,2.518 0.242,1.067 0.01,0"
       style="fill:#012a87;fill-opacity:1;fill-rule:nonzero;stroke:none"
       transform="matrix(1.3333333,0,0,-1.3333333,267.72467,350.66667)"
       clip-path="url(#clipPath117)" />
    <path
       id="path118"
       d="M 0,0 0.101,1.038 C 0.584,1.027 0.987,1.108 1.29,1.27 1.894,1.592 2.247,2.216 2.337,3.123 2.368,3.556 2.357,3.929 2.257,4.281 2.076,4.977 1.693,5.35 1.068,5.409 0.615,5.46 0.282,5.35 0.041,5.098 -0.171,4.815 -0.403,4.393 -0.574,3.808 L -0.957,2.72 C -1.199,2.015 -1.42,1.521 -1.672,1.249 -2.065,0.726 -2.62,0.554 -3.325,0.604 c -0.745,0.071 -1.36,0.374 -1.793,0.958 -0.454,0.523 -0.635,1.279 -0.524,2.206 0.07,0.856 0.352,1.571 0.856,2.145 0.464,0.534 1.189,0.786 2.116,0.686 L -2.761,5.551 c -0.453,0 -0.805,-0.071 -1.078,-0.262 -0.473,-0.263 -0.735,-0.816 -0.816,-1.633 -0.07,-0.675 0.02,-1.128 0.282,-1.47 0.252,-0.292 0.585,-0.473 0.957,-0.503 0.414,-0.041 0.726,0.09 0.948,0.402 0.161,0.212 0.352,0.675 0.604,1.431 l 0.383,1.148 C -1.3,5.187 -1.078,5.591 -0.826,5.883 -0.363,6.356 0.242,6.558 0.987,6.508 1.915,6.407 2.569,6.024 2.902,5.329 3.234,4.624 3.365,3.849 3.285,2.962 3.184,1.965 2.852,1.179 2.257,0.645 1.652,0.111 0.907,-0.07 0,0"
       style="fill:#012a87;fill-opacity:1;fill-rule:nonzero;stroke:none"
       transform="matrix(1.3333333,0,0,-1.3333333,266.8516,336.63147)"
       clip-path="url(#clipPath119)" />
    <path
       id="path120"
       d="M 0,0 0.192,-1.027 C -0.272,-1.129 -0.645,-1.31 -0.907,-1.552 -1.39,-2.005 -1.562,-2.68 -1.39,-3.606 c 0.07,-0.393 0.211,-0.776 0.393,-1.088 0.363,-0.625 0.846,-0.877 1.451,-0.776 0.443,0.08 0.745,0.251 0.886,0.564 0.131,0.322 0.232,0.796 0.262,1.41 l 0.051,1.159 c 0.04,0.715 0.12,1.279 0.282,1.591 0.252,0.564 0.715,0.917 1.42,1.028 C 4.111,0.423 4.776,0.252 5.35,-0.182 5.925,-0.574 6.308,-1.27 6.449,-2.187 6.62,-3.032 6.539,-3.788 6.207,-4.463 5.895,-5.128 5.28,-5.53 4.343,-5.702 l -0.181,1.038 c 0.433,0.161 0.755,0.312 0.966,0.534 0.373,0.402 0.484,0.997 0.343,1.813 C 5.36,-1.652 5.128,-1.219 4.786,-1.008 4.454,-0.756 4.111,-0.655 3.749,-0.716 3.335,-0.786 3.063,-1.008 2.932,-1.38 2.852,-1.622 2.791,-2.126 2.741,-2.911 L 2.68,-4.11 C 2.65,-4.674 2.569,-5.138 2.378,-5.46 2.076,-6.044 1.572,-6.407 0.827,-6.527 c -0.937,-0.162 -1.663,0.059 -2.177,0.654 -0.524,0.595 -0.856,1.3 -1.017,2.176 -0.182,1.038 -0.051,1.853 0.362,2.498 0.423,0.665 1.099,1.057 2.005,1.188"
       style="fill:#012a87;fill-opacity:1;fill-rule:nonzero;stroke:none"
       transform="matrix(1.3333333,0,0,-1.3333333,37.656933,335.9596)"
       clip-path="url(#clipPath121)" />
    <path
       id="path122"
       d="M 0,0 8.11,2.438 9.995,-3.274 9.007,-3.587 7.466,1.107 4.997,0.362 6.428,-3.97 5.481,-4.271 4.07,0.07 1.32,-0.746 2.892,-5.541 1.924,-5.823 Z"
       style="fill:#012a87;fill-opacity:1;fill-rule:nonzero;stroke:none"
       transform="matrix(1.3333333,0,0,-1.3333333,36.958933,350.45187)"
       clip-path="url(#clipPath123)" />
    <path
       id="path124"
       d="m 0,0 7.456,3.959 0.796,-1.391 -5.128,-5.429 7.496,1.29 0.765,-1.381 -7.435,-3.939 -0.534,0.917 4.393,2.317 c 0.161,0.091 0.402,0.221 0.765,0.413 0.343,0.161 0.736,0.373 1.129,0.574 L 2.247,-3.939 1.703,-2.972 6.791,2.438 6.549,2.316 C 6.388,2.216 6.116,2.085 5.743,1.873 5.37,1.642 5.098,1.501 4.917,1.43 L 0.534,-0.917 0,0.01"
       style="fill:#012a87;fill-opacity:1;fill-rule:nonzero;stroke:none"
       transform="matrix(1.3333333,0,0,-1.3333333,41.754533,363.65493)"
       clip-path="url(#clipPath125)" />
    <path
       id="path126"
       d="M 0,0 2.609,2.388 4.454,0.514 C 5.048,-0.091 5.652,-0.372 6.287,-0.353 6.942,-0.322 7.496,-0.08 7.99,0.383 8.544,0.877 8.806,1.451 8.806,2.075 8.796,2.67 8.524,3.234 8.01,3.768 L 5.36,6.468 -0.806,0.807 -0.01,0 M 5.995,0.756 C 5.622,0.837 5.259,1.058 4.897,1.431 L 3.315,3.053 5.441,4.997 7.022,3.375 C 7.335,3.073 7.526,2.78 7.637,2.528 7.778,2.045 7.637,1.602 7.184,1.188 6.781,0.816 6.378,0.665 5.995,0.756"
       style="fill:#012a87;fill-opacity:1;fill-rule:nonzero;stroke:none"
       transform="matrix(1.3333333,0,0,-1.3333333,52.2864,379.30333)"
       clip-path="url(#clipPath127)" />
    <path
       id="path128"
       d="M 0,0 4.474,7.001 9.753,3.788 9.209,2.952 4.866,5.561 3.516,3.436 7.516,1.018 6.992,0.212 3.002,2.619 1.481,0.242 5.874,-2.397 5.35,-3.224 Z"
       style="fill:#012a87;fill-opacity:1;fill-rule:nonzero;stroke:none"
       transform="matrix(1.3333333,0,0,-1.3333333,62.214133,388.1276)"
       clip-path="url(#clipPath129)" />
    <path
       id="path130"
       d="M 0,0 1.119,3.345 3.627,2.528 C 4.07,2.418 4.393,2.256 4.554,2.085 4.866,1.813 4.957,1.4 4.796,0.896 l -0.373,-1.33 c -0.08,-0.332 -0.121,-0.544 -0.161,-0.644 0,-0.101 0,-0.212 0.02,-0.282 l 1.32,-0.433 0.07,0.191 c -0.141,0.111 -0.211,0.312 -0.211,0.564 0.03,0.151 0.07,0.393 0.161,0.685 L 5.944,0.705 C 6.065,1.179 6.116,1.521 6.005,1.772 5.904,2.045 5.743,2.276 5.461,2.508 5.884,2.579 6.237,2.71 6.549,2.932 6.841,3.183 7.083,3.535 7.224,4.029 7.526,4.916 7.365,5.661 6.7,6.226 6.368,6.518 5.894,6.77 5.28,7.001 L 1.521,8.159 -1.098,0.343 0,0 M 2.317,6.89 5.007,6.034 C 5.39,5.923 5.663,5.771 5.854,5.61 6.196,5.288 6.287,4.815 6.085,4.251 5.914,3.768 5.663,3.445 5.27,3.304 4.927,3.243 4.483,3.243 3.97,3.404 l -2.539,0.817 0.886,2.67"
       style="fill:#012a87;fill-opacity:1;fill-rule:nonzero;stroke:none"
       transform="matrix(1.3333333,0,0,-1.3333333,76.763067,395.51427)"
       clip-path="url(#clipPath131)" />
    <path
       id="path132"
       d="m 0,0 c 0.967,2.337 9.945,8.704 39.415,5.914 0,0 4.977,-3.043 7.899,-2.65 1.673,0.222 -0.977,-0.101 -3.153,1.713 -2.227,1.803 -2.701,5.51 2.377,5.419 C 51.586,10.265 70.478,9.197 70.84,7.495 71.172,5.782 60.845,5.067 57.006,5.158 53.148,5.269 53.601,3.314 57.44,3.465 69.43,3.889 82.527,8.12 96.361,-1.662 c 1.642,-1.189 -4.171,-1.38 -8.675,0.534 0,0 -12.201,-0.635 -17.471,0.232 0,0 -4.06,-3.294 -9.34,-2.972 0.686,-1.713 -1.944,-8.099 -18.548,-3.294 -2.741,-0.846 -12.736,-2.519 -11.647,0.453 -2.63,0 -7.244,-0.846 -7.93,0.645 -0.665,1.481 8.121,3.707 9.663,5.298 0,0 -18.58,-0.181 -22.096,1.099 0,0 -10.962,-2.458 -10.317,-0.323"
       style="fill:#bc715f;fill-opacity:1;fill-rule:nonzero;stroke:none"
       transform="matrix(1.3333333,0,0,-1.3333333,91.9564,205.79693)"
       clip-path="url(#clipPath133)" />
    <path
       id="path134"
       d="m 0,0 c 0.393,0.534 0.554,1.501 1.401,1.481 1.844,-0.494 3.093,-3.858 5.36,-1.672 0.796,0.171 1.108,-0.917 1.773,-1.048 0.423,-1.864 1.924,0.383 3.043,0.252 2.398,1.068 5.37,1.32 8.211,0.796 0.081,-1.833 -1.35,-3.858 -3.153,-4.906 0.03,-1.843 1.713,-3.022 1.682,-4.886 -0.292,-0.695 -0.05,-1.783 -1.098,-2.004 -1.33,0.231 -2.65,0.372 -3.748,1.118 -0.141,0.131 -0.252,0.403 -0.534,0.312 -0.131,-0.614 0.836,-1.229 1.219,-1.863 -0.675,-1.139 -1.783,-0.101 -2.71,-0.111 -0.282,-0.655 -0.01,-1.481 -0.685,-1.904 -1.179,0.03 -1.421,1.319 -2.146,1.954 -0.736,-0.806 0.524,-1.279 0.705,-1.924 -0.453,-2.407 -0.393,-4.775 -2.811,-6.356 l -1.622,-0.806 c -0.444,1.219 -0.161,3.062 -0.464,4.332 -0.957,-1.562 -1.702,-2.922 -3.103,-4.242 -1.642,0.534 -2.599,2.478 -2.962,4.08 -0.685,1.874 -0.292,4.11 1.179,5.47 -0.504,0.977 -2.227,0.756 -2.469,2.146 -2.579,1.682 -4.01,-2.942 -5.682,-0.534 -0.534,2.246 0.111,5.037 1.733,6.709 -0.363,0.917 -1.562,0.675 -2.277,1.209 -1.622,1.38 -3.97,2.83 -3.849,5.329 C -8.564,4.604 -3.244,3.375 -0.01,0"
       style="fill:#008830;fill-opacity:1;fill-rule:nonzero;stroke:none"
       transform="matrix(1.3333333,0,0,-1.3333333,99.895867,240.47653)"
       clip-path="url(#clipPath135)" />
    <path
       id="path136"
       d="M 0,0 C -0.111,-2.035 1.37,-0.554 2.468,-1.793 1.612,-1.451 0.987,-3.274 0.141,-2.226 L -0.383,-2.73 c 0.302,-0.705 0.907,-0.796 0.282,-1.562 -0.917,-0.352 -1.108,0.807 -1.531,1.26 -0.071,0.201 0.141,0.584 -0.202,0.715 -0.514,-0.443 -1.068,-0.604 -1.783,-0.524 -0.192,0.393 -0.574,0.907 -0.192,1.209 0.705,0.947 1.804,-0.343 2.338,0.322 0.08,0.585 -0.433,1.31 0.232,1.713 C -0.776,0.322 -0.182,0.574 0,0"
       style="fill:#f9d90f;fill-opacity:1;fill-rule:nonzero;stroke:none"
       transform="matrix(1.3333333,0,0,-1.3333333,102.97267,240.14067)"
       clip-path="url(#clipPath137)" />
    <path
       id="path138"
       d="m 0,0 c 0.05,-0.393 -0.202,-0.947 0.312,-1.219 0.666,0.363 1.381,0.081 1.764,-0.574 0,-0.363 0.111,-0.826 -0.363,-0.997 l -1.038,0.191 c 0.071,0.212 -0.262,0.333 -0.393,0.534 -0.453,0.141 -0.725,-0.231 -1.068,-0.463 0.252,-0.393 0.856,-0.605 0.716,-1.108 -0.615,-0.615 -0.917,0.524 -1.593,0.241 -0.463,0.172 0.162,1.129 -0.564,1.421 -0.856,0 -0.282,-1.411 -1.38,-0.857 -0.393,0.444 -0.776,1.038 -0.352,1.532 0.453,0.302 1.239,0.232 1.622,-0.172 C -1.663,-0.725 -1.592,2.136 0,0"
       style="fill:#f9d90f;fill-opacity:1;fill-rule:nonzero;stroke:none"
       transform="matrix(1.3333333,0,0,-1.3333333,110.30733,242.3704)"
       clip-path="url(#clipPath139)" />
    <path
       id="path140"
       d="m 0,0 c 0.443,-0.645 -0.101,-1.521 0.473,-2.247 0.897,1.683 1.754,-0.352 2.821,-0.201 0.333,-0.393 0.111,-0.947 0.172,-1.4 -1.31,-0.353 -2.902,-0.766 -4.07,0.292 l -0.323,-0.383 c 0.695,-0.644 1.35,-1.37 0.796,-2.448 -0.988,-0.211 -2.519,-0.241 -3.013,0.776 -0.252,0.846 0.605,1.45 -0.302,2.125 -0.655,-0.816 -0.625,-1.904 -1.995,-1.168 -0.846,0.463 -1.098,1.43 -0.675,2.236 0.887,1.4 2.428,-0.04 3.386,0.645 0.13,1.189 -0.303,2.236 0.785,2.901 C -0.998,1.289 -0.564,0.584 0,0"
       style="fill:#f9d90f;fill-opacity:1;fill-rule:nonzero;stroke:none"
       transform="matrix(1.3333333,0,0,-1.3333333,101.17253,246.30533)"
       clip-path="url(#clipPath141)" />
    <path
       id="path142"
       d="M 0,0 C -0.443,-2.035 -1.975,0.11 -2.69,0.191 -1.733,1.894 -1.128,-0.363 0,0"
       style="fill:#ffffff;fill-opacity:1;fill-rule:nonzero;stroke:none"
       transform="matrix(1.3333333,0,0,-1.3333333,106.15627,247.28587)"
       clip-path="url(#clipPath143)" />
    <path
       id="path144"
       d="m 0,0 c -1.068,-0.292 -0.897,1.038 -1.421,1.551 l 0.403,0.383 C -0.625,1.46 -0.333,0.625 0,0"
       style="fill:#ffffff;fill-opacity:1;fill-rule:nonzero;stroke:none"
       transform="matrix(1.3333333,0,0,-1.3333333,112.52413,250.24093)"
       clip-path="url(#clipPath145)" />
    <path
       id="path146"
       d="M 0,0 C 0.302,-0.705 -0.695,-1.27 0.161,-1.793 0.423,-1.562 0.756,-1.25 0.896,-1.118 1.632,-1.34 2.479,-1.461 2.982,-2.186 3.526,-3.687 2.015,-3.647 1.159,-4.06 l -0.857,0.03 c 0.202,0.424 -0.363,0.595 -0.504,0.887 -0.392,0.101 -0.725,-0.02 -0.946,-0.353 0.191,-0.957 1.35,-1.692 0.161,-2.538 -1.018,0.06 -2.59,-0.333 -2.489,1.068 -0.383,0.796 1.028,2.014 -0.483,2.065 -0.494,-1.068 -1.039,-2.096 -2.338,-1.088 l 0.161,1.521 c 1.24,-0.04 2.7,-0.252 3.264,1.128 0.353,1.007 -0.624,1.934 0.252,2.73 C -1.36,1.682 -0.645,0.836 0,0"
       style="fill:#f9d90f;fill-opacity:1;fill-rule:nonzero;stroke:none"
       transform="matrix(1.3333333,0,0,-1.3333333,110.6028,249.69013)"
       clip-path="url(#clipPath147)" />
    <path
       id="path148"
       d="m 0,0 c 0.312,-0.756 -0.544,-0.806 -0.947,-1.179 -0.544,-0.05 -0.927,0.171 -1.26,0.534 -0.241,0.917 0.434,1.007 0.957,1.37 C -0.645,0.977 -0.393,0.272 0,0"
       style="fill:#000000;fill-opacity:1;fill-rule:nonzero;stroke:none"
       transform="matrix(1.3333333,0,0,-1.3333333,109.39387,252.73893)"
       clip-path="url(#clipPath149)" />
    <path
       id="path150"
       d="M 0,0 C -0.131,-0.182 -0.322,-0.121 -0.524,-0.171 L -0.715,0.735 C -0.312,0.705 0.211,0.574 0,0"
       style="fill:#ffffff;fill-opacity:1;fill-rule:nonzero;stroke:none"
       transform="matrix(1.3333333,0,0,-1.3333333,108.39973,253.3972)"
       clip-path="url(#clipPath151)" />
  </g>
</svg>
