<svg height="800" viewBox="0 0 1200 800" width="1200" xmlns="http://www.w3.org/2000/svg"><g transform="matrix(1.3333333 0 0 -1.3333333 0 800)"><path d="m0 0h900v600h-900z"/><path d="m0 200h900v400h-900z" fill="#fff"/><path d="m0 400h900v200.001h-900z" fill="#ce1126"/></g><g fill="#007a3d"><path d="m0 0-20.086-61.819 38.042-12.361" transform="matrix(1.3333333 0 0 -1.3333333 360 313.33333)"/><path d="m0 0 20.086-61.819-38.042-12.361" transform="matrix(1.3333333 0 0 -1.3333333 360 313.33333)"/><path d="m0 0h-65v-40" transform="matrix(1.3333333 0 0 -1.3333333 442.42507 373.2188)"/><path d="m0 0-52.586-38.206-23.512 32.361" transform="matrix(1.3333333 0 0 -1.3333333 442.42507 373.2188)"/><path d="m0 0 52.586-38.206 23.512 32.361" transform="matrix(1.3333333 0 0 -1.3333333 277.57493 373.2188)"/><path d="m0 0h65v-40" transform="matrix(1.3333333 0 0 -1.3333333 277.57493 373.2188)"/><path d="m0 0-20.086 61.818-38.042-12.36" transform="matrix(1.3333333 0 0 -1.3333333 410.94147 470.11453)"/><path d="m0 0-52.586 38.206 23.511 32.36" transform="matrix(1.3333333 0 0 -1.3333333 410.94147 470.11453)"/><path d="m0 0 52.586 38.206-23.511 32.36" transform="matrix(1.3333333 0 0 -1.3333333 309.05853 470.11453)"/><path d="m0 0 20.086 61.818 38.042-12.36" transform="matrix(1.3333333 0 0 -1.3333333 309.05853 470.11453)"/><path d="m0 0-20.086-61.819 38.042-12.361" transform="matrix(1.3333333 0 0 -1.3333333 840 313.33333)"/><path d="m0 0 20.086-61.819-38.042-12.361" transform="matrix(1.3333333 0 0 -1.3333333 840 313.33333)"/><path d="m0 0h-65v-40" transform="matrix(1.3333333 0 0 -1.3333333 922.42453 373.2188)"/><path d="m0 0-52.586-38.206-23.512 32.361" transform="matrix(1.3333333 0 0 -1.3333333 922.42453 373.2188)"/><path d="m0 0 52.586-38.206 23.512 32.361" transform="matrix(1.3333333 0 0 -1.3333333 757.57547 373.2188)"/><path d="m0 0h65v-40" transform="matrix(1.3333333 0 0 -1.3333333 757.57547 373.2188)"/><path d="m0 0-20.086 61.818-38.043-12.36" transform="matrix(1.3333333 0 0 -1.3333333 890.94147 470.11453)"/><path d="m0 0-52.586 38.206 23.511 32.36" transform="matrix(1.3333333 0 0 -1.3333333 890.94147 470.11453)"/><g transform="matrix(1.3333333 0 0 -1.3333333 789.05853 470.11453)"><path d="m0 0 52.586 38.206-23.512 32.36"/><path d="m0 0 20.086 61.818 38.042-12.36"/></g></g></svg>