<svg height="1601.7467" viewBox="0 0 2400 1601.7467" width="2400" xmlns="http://www.w3.org/2000/svg" xmlns:xlink="http://www.w3.org/1999/xlink"><clipPath id="a"><path d="m0 1201.315h1800v-1201.315h-1800z" transform="translate(-390.88131 -175.39168)"/></clipPath><clipPath id="b"><path d="m0 1201.315h1800v-1201.315h-1800z" transform="translate(-379.63041 -157.3331)"/></clipPath><clipPath id="c"><path d="m0 1201.315h1800v-1201.315h-1800z" transform="translate(-369.08011 -1014.5865)"/></clipPath><clipPath id="d"><path d="m0 1201.315h1800v-1201.315h-1800z" transform="translate(-378.56151 -985.40482)"/></clipPath><clipPath id="e"><path d="m0 1201.315h1800v-1201.315h-1800z" transform="translate(-369.08011 -1014.5865)"/></clipPath><clipPath id="f"><path d="m0 1201.315h1800v-1201.315h-1800z" transform="translate(-359.59811 -985.40482)"/></clipPath><clipPath id="g"><path d="m0 1201.315h1800v-1201.315h-1800z" transform="translate(-384.42191 -1003.44)"/></clipPath><clipPath id="h"><path d="m0 1201.315h1800v-1201.315h-1800z" transform="translate(-359.59811 -985.40443)"/></clipPath><clipPath id="i"><path d="m0 1201.315h1800v-1201.315h-1800z" transform="translate(-353.73781 -1003.44)"/></clipPath><clipPath id="j"><path d="m0 1201.315h1800v-1201.315h-1800z" transform="translate(-384.42141 -1003.44)"/></clipPath><clipPath id="k"><path d="m0 1201.315h1800v-1201.315h-1800z" transform="translate(-353.73781 -1003.44)"/></clipPath><clipPath id="l"><path d="m0 1201.315h1800v-1201.315h-1800z" transform="translate(-378.56151 -985.40443)"/></clipPath><clipPath id="m"><path d="m0 1201.315h1800v-1201.315h-1800z" transform="translate(-565.73581 -840.94732)"/></clipPath><clipPath id="n"><path d="m0 1201.315h1800v-1201.315h-1800z" transform="translate(-573.63721 -816.62902)"/></clipPath><clipPath id="o"><path d="m0 1201.315h1800v-1201.315h-1800z" transform="translate(-565.73581 -840.94732)"/></clipPath><clipPath id="p"><path d="m0 1201.315h1800v-1201.315h-1800z" transform="translate(-557.83451 -816.62902)"/></clipPath><clipPath id="q"><path d="m0 1201.315h1800v-1201.315h-1800z" transform="translate(-578.52101 -831.65832)"/></clipPath><clipPath id="r"><path d="m0 1201.315h1800v-1201.315h-1800z" transform="translate(-557.83451 -816.62902)"/></clipPath><clipPath id="s"><path d="m0 1201.315h1800v-1201.315h-1800z" transform="translate(-552.95071 -831.65832)"/></clipPath><clipPath id="t"><path d="m0 1201.315h1800v-1201.315h-1800z" transform="translate(-578.52052 -831.65832)"/></clipPath><clipPath id="u"><path d="m0 1201.315h1800v-1201.315h-1800z" transform="translate(-552.95071 -831.65832)"/></clipPath><clipPath id="v"><path d="m0 1201.315h1800v-1201.315h-1800z" transform="translate(-573.63721 -816.62902)"/></clipPath><clipPath id="w"><path d="m0 1201.315h1800v-1201.315h-1800z" transform="translate(-139.64751 -783.75302)"/></clipPath><clipPath id="x"><path d="m0 1201.315h1800v-1201.315h-1800z" transform="translate(-149.1289 -754.57142)"/></clipPath><clipPath id="y"><path d="m0 1201.315h1800v-1201.315h-1800z" transform="translate(-139.64751 -783.75302)"/></clipPath><clipPath id="z"><path d="m0 1201.315h1800v-1201.315h-1800z" transform="translate(-130.1655 -754.57142)"/></clipPath><clipPath id="A"><path d="m0 1201.315h1800v-1201.315h-1800z" transform="translate(-154.9893 -772.60652)"/></clipPath><clipPath id="B"><path d="m0 1201.315h1800v-1201.315h-1800z" transform="translate(-130.1655 -754.57092)"/></clipPath><clipPath id="C"><path d="m0 1201.315h1800v-1201.315h-1800z" transform="translate(-124.30521 -772.60652)"/></clipPath><clipPath id="D"><path d="m0 1201.315h1800v-1201.315h-1800z" transform="translate(-154.9888 -772.60652)"/></clipPath><clipPath id="E"><path d="m0 1201.315h1800v-1201.315h-1800z" transform="translate(-124.30521 -772.60652)"/></clipPath><clipPath id="F"><path d="m0 1201.315h1800v-1201.315h-1800z" transform="translate(-149.1289 -754.57092)"/></clipPath><clipPath id="G"><path d="m0 1201.315h1800v-1201.315h-1800z" transform="translate(-369.08011 -421.50891)"/></clipPath><clipPath id="H"><path d="m0 1201.315h1800v-1201.315h-1800z" transform="translate(-380.14211 -387.46303)"/></clipPath><clipPath id="I"><path d="m0 1201.315h1800v-1201.315h-1800z" transform="translate(-369.08011 -421.50891)"/></clipPath><clipPath id="J"><path d="m0 1201.315h1800v-1201.315h-1800z" transform="translate(-358.01761 -387.46303)"/></clipPath><clipPath id="K"><path d="m0 1201.315h1800v-1201.315h-1800z" transform="translate(-386.97901 -408.50399)"/></clipPath><clipPath id="L"><path d="m0 1201.315h1800v-1201.315h-1800z" transform="translate(-358.01811 -387.46303)"/></clipPath><clipPath id="M"><path d="m0 1201.315h1800v-1201.315h-1800z" transform="translate(-351.18071 -408.50399)"/></clipPath><clipPath id="N"><path d="m0 1201.315h1800v-1201.315h-1800z" transform="translate(-386.97851 -408.50399)"/></clipPath><clipPath id="O"><path d="m0 1201.315h1800v-1201.315h-1800z" transform="translate(-351.18071 -408.50399)"/></clipPath><clipPath id="P"><path d="m0 1201.315h1800v-1201.315h-1800z" transform="translate(-380.14161 -387.46303)"/></clipPath><path d="m0 0h1800v1201.315h-1800z" fill="#00247d" transform="matrix(1.3333333 0 0 -1.3333333 0 1601.7467)"/><path clip-path="url(#a)" d="m0 0c-17.935.15 168.624 99.432 324.769 226.6 204.644 166.667 645.396 433.509 774.971 476.87 13.544 4.532-27.777-23.073-33.14-32.015-138.342-163.741-27.925-472.724 144.973-628.049 51.99-39.762 49.327-41.85 145.707-45.746v-9z" fill="#fed100" transform="matrix(1.3333333 0 0 -1.3333333 521.17507 1367.8911)"/><path clip-path="url(#b)" d="m0 0s-13.164-9.403-13.125-16.406c.043-7.773 14.766-18.047 14.766-18.047l1338.744-14.766 24.61 16.407-34.453 21.328z" fill="#fed100" transform="matrix(1.3333333 0 0 -1.3333333 506.17387 1391.9692)"/><g fill="#fff"><path clip-path="url(#c)" d="m0 0v-24.823l49.647 24.823z" transform="matrix(1.3333333 0 0 -1.3333333 492.1068 248.96467)"/><path clip-path="url(#d)" d="m0 0-14.591 20.083 54.757 9.099z" transform="matrix(1.3333333 0 0 -1.3333333 504.74867 287.8736)"/><path clip-path="url(#e)" d="m0 0v-24.823l-49.647 24.823z" transform="matrix(1.3333333 0 0 -1.3333333 492.1068 248.96467)"/><path clip-path="url(#f)" d="m0 0 14.591 20.083-54.757 9.099z" transform="matrix(1.3333333 0 0 -1.3333333 479.46413 287.8736)"/><path clip-path="url(#g)" d="m0 0-23.608-7.671 38.95-39.546z" transform="matrix(1.3333333 0 0 -1.3333333 512.56253 263.82667)"/><path clip-path="url(#h)" d="m0 0 14.591 20.083 25.575-49.265z" transform="matrix(1.3333333 0 0 -1.3333333 479.46413 287.87413)"/><path clip-path="url(#i)" d="m0 0 23.608-7.671-8.266 54.888z" transform="matrix(1.3333333 0 0 -1.3333333 471.6504 263.82667)"/><path clip-path="url(#j)" d="m0 0-23.608-7.671 8.266 54.888z" transform="matrix(1.3333333 0 0 -1.3333333 512.56187 263.82667)"/><path clip-path="url(#k)" d="m0 0 23.608-7.671-38.95-39.546z" transform="matrix(1.3333333 0 0 -1.3333333 471.6504 263.82667)"/><path clip-path="url(#l)" d="m0 0-14.591 20.083-25.575-49.265z" transform="matrix(1.3333333 0 0 -1.3333333 504.74867 287.87413)"/><path clip-path="url(#m)" d="m0 0v-20.687l41.373 20.687z" transform="matrix(1.3333333 0 0 -1.3333333 754.3144 480.4836)"/><path clip-path="url(#n)" d="m0 0-12.159 16.736 45.631 7.582z" transform="matrix(1.3333333 0 0 -1.3333333 764.8496 512.908)"/><path clip-path="url(#o)" d="m0 0v-20.687l-41.373 20.687z" transform="matrix(1.3333333 0 0 -1.3333333 754.3144 480.4836)"/><path clip-path="url(#p)" d="m0 0 12.159 16.736-45.63 7.582z" transform="matrix(1.3333333 0 0 -1.3333333 743.77933 512.908)"/><path clip-path="url(#q)" d="m0 0-19.674-6.392 32.459-32.956z" transform="matrix(1.3333333 0 0 -1.3333333 771.36133 492.86893)"/><path clip-path="url(#r)" d="m0 0 12.159 16.735 21.312-41.053z" transform="matrix(1.3333333 0 0 -1.3333333 743.77933 512.908)"/><path clip-path="url(#s)" d="m0 0 19.674-6.392-6.889 45.74z" transform="matrix(1.3333333 0 0 -1.3333333 737.2676 492.86893)"/><path clip-path="url(#t)" d="m0 0-19.674-6.392 6.889 45.74z" transform="matrix(1.3333333 0 0 -1.3333333 771.36067 492.86893)"/><path clip-path="url(#u)" d="m0 0 19.674-6.392-32.459-32.956z" transform="matrix(1.3333333 0 0 -1.3333333 737.2676 492.86893)"/><path clip-path="url(#v)" d="m0 0-12.159 16.735-21.312-41.053z" transform="matrix(1.3333333 0 0 -1.3333333 764.8496 512.908)"/><path clip-path="url(#w)" d="m0 0v-24.824l49.647 24.824z" transform="matrix(1.3333333 0 0 -1.3333333 186.19667 556.74267)"/><path clip-path="url(#x)" d="m0 0-14.591 20.083 54.757 9.099z" transform="matrix(1.3333333 0 0 -1.3333333 198.83853 595.65147)"/><path clip-path="url(#y)" d="m0 0v-24.824l-49.647 24.824z" transform="matrix(1.3333333 0 0 -1.3333333 186.19667 556.74267)"/><path clip-path="url(#z)" d="m0 0 14.591 20.083-54.757 9.099z" transform="matrix(1.3333333 0 0 -1.3333333 173.554 595.65147)"/><path clip-path="url(#A)" d="m0 0-23.608-7.671 38.95-39.546z" transform="matrix(1.3333333 0 0 -1.3333333 206.6524 571.60467)"/><path clip-path="url(#B)" d="m0 0 14.591 20.083 25.575-49.265z" transform="matrix(1.3333333 0 0 -1.3333333 173.554 595.65213)"/><path clip-path="url(#C)" d="m0 0 23.609-7.671-8.267 54.888z" transform="matrix(1.3333333 0 0 -1.3333333 165.74027 571.60467)"/><path clip-path="url(#D)" d="m0 0-23.608-7.671 8.266 54.888z" transform="matrix(1.3333333 0 0 -1.3333333 206.65173 571.60467)"/><path clip-path="url(#E)" d="m0 0 23.609-7.671-38.951-39.546z" transform="matrix(1.3333333 0 0 -1.3333333 165.74027 571.60467)"/><path clip-path="url(#F)" d="m0 0-14.591 20.083-25.575-49.265z" transform="matrix(1.3333333 0 0 -1.3333333 198.83853 595.65213)"/><path clip-path="url(#G)" d="m0 0v-28.961l57.921 28.961z" transform="matrix(1.3333333 0 0 -1.3333333 492.1068 1039.7348)"/><path clip-path="url(#H)" d="m0 0-17.023 23.43 63.882 10.616z" transform="matrix(1.3333333 0 0 -1.3333333 506.85613 1085.1293)"/><path clip-path="url(#I)" d="m0 0v-28.961l-57.922 28.961z" transform="matrix(1.3333333 0 0 -1.3333333 492.1068 1039.7348)"/><path clip-path="url(#J)" d="m0 0 17.023 23.43-63.882 10.616z" transform="matrix(1.3333333 0 0 -1.3333333 477.3568 1085.1293)"/><path clip-path="url(#K)" d="m0 0-27.543-8.949 45.442-46.138z" transform="matrix(1.3333333 0 0 -1.3333333 515.972 1057.0747)"/><path clip-path="url(#L)" d="m0 0 17.023 23.43 29.837-57.476z" transform="matrix(1.3333333 0 0 -1.3333333 477.35747 1085.1293)"/><path clip-path="url(#M)" d="m0 0 27.543-8.949-9.644 64.036z" transform="matrix(1.3333333 0 0 -1.3333333 468.24093 1057.0747)"/><path clip-path="url(#N)" d="m0 0-27.543-8.949 9.644 64.036z" transform="matrix(1.3333333 0 0 -1.3333333 515.97133 1057.0747)"/><path clip-path="url(#O)" d="m0 0 27.543-8.949-45.442-46.138z" transform="matrix(1.3333333 0 0 -1.3333333 468.24093 1057.0747)"/><path clip-path="url(#P)" d="m0 0-17.023 23.43-29.837-57.476z" transform="matrix(1.3333333 0 0 -1.3333333 506.85547 1085.1293)"/></g></svg>