<?xml version="1.0" encoding="UTF-8" standalone="no"?>
<!-- Created with Inkscape (http://www.inkscape.org/) -->

<svg
   version="1.1"
   id="svg1"
   width="2400"
   height="1601.7467"
   viewBox="0 0 2400 1601.7467"
   sodipodi:docname="tk.ai"
   xmlns:inkscape="http://www.inkscape.org/namespaces/inkscape"
   xmlns:sodipodi="http://sodipodi.sourceforge.net/DTD/sodipodi-0.dtd"
   xmlns="http://www.w3.org/2000/svg"
   xmlns:svg="http://www.w3.org/2000/svg">
  <defs
     id="defs1">
    <clipPath
       clipPathUnits="userSpaceOnUse"
       id="clipPath3">
      <path
         d="M 0,1201.315 H 1800 V 0 H 0 Z"
         transform="translate(-390.88131,-175.39168)"
         id="path3" />
    </clipPath>
    <clipPath
       clipPathUnits="userSpaceOnUse"
       id="clipPath5">
      <path
         d="M 0,1201.315 H 1800 V 0 H 0 Z"
         transform="translate(-379.63041,-157.3331)"
         id="path5" />
    </clipPath>
    <clipPath
       clipPathUnits="userSpaceOnUse"
       id="clipPath7">
      <path
         d="M 0,1201.315 H 1800 V 0 H 0 Z"
         transform="translate(-369.08011,-1014.5865)"
         id="path7" />
    </clipPath>
    <clipPath
       clipPathUnits="userSpaceOnUse"
       id="clipPath9">
      <path
         d="M 0,1201.315 H 1800 V 0 H 0 Z"
         transform="translate(-378.56151,-985.40482)"
         id="path9" />
    </clipPath>
    <clipPath
       clipPathUnits="userSpaceOnUse"
       id="clipPath11">
      <path
         d="M 0,1201.315 H 1800 V 0 H 0 Z"
         transform="translate(-369.08011,-1014.5865)"
         id="path11" />
    </clipPath>
    <clipPath
       clipPathUnits="userSpaceOnUse"
       id="clipPath13">
      <path
         d="M 0,1201.315 H 1800 V 0 H 0 Z"
         transform="translate(-359.59811,-985.40482)"
         id="path13" />
    </clipPath>
    <clipPath
       clipPathUnits="userSpaceOnUse"
       id="clipPath15">
      <path
         d="M 0,1201.315 H 1800 V 0 H 0 Z"
         transform="translate(-384.42191,-1003.44)"
         id="path15" />
    </clipPath>
    <clipPath
       clipPathUnits="userSpaceOnUse"
       id="clipPath17">
      <path
         d="M 0,1201.315 H 1800 V 0 H 0 Z"
         transform="translate(-359.59811,-985.40443)"
         id="path17" />
    </clipPath>
    <clipPath
       clipPathUnits="userSpaceOnUse"
       id="clipPath19">
      <path
         d="M 0,1201.315 H 1800 V 0 H 0 Z"
         transform="translate(-353.73781,-1003.44)"
         id="path19" />
    </clipPath>
    <clipPath
       clipPathUnits="userSpaceOnUse"
       id="clipPath21">
      <path
         d="M 0,1201.315 H 1800 V 0 H 0 Z"
         transform="translate(-384.42141,-1003.44)"
         id="path21" />
    </clipPath>
    <clipPath
       clipPathUnits="userSpaceOnUse"
       id="clipPath23">
      <path
         d="M 0,1201.315 H 1800 V 0 H 0 Z"
         transform="translate(-353.73781,-1003.44)"
         id="path23" />
    </clipPath>
    <clipPath
       clipPathUnits="userSpaceOnUse"
       id="clipPath25">
      <path
         d="M 0,1201.315 H 1800 V 0 H 0 Z"
         transform="translate(-378.56151,-985.40443)"
         id="path25" />
    </clipPath>
    <clipPath
       clipPathUnits="userSpaceOnUse"
       id="clipPath27">
      <path
         d="M 0,1201.315 H 1800 V 0 H 0 Z"
         transform="translate(-565.73581,-840.94732)"
         id="path27" />
    </clipPath>
    <clipPath
       clipPathUnits="userSpaceOnUse"
       id="clipPath29">
      <path
         d="M 0,1201.315 H 1800 V 0 H 0 Z"
         transform="translate(-573.63721,-816.62902)"
         id="path29" />
    </clipPath>
    <clipPath
       clipPathUnits="userSpaceOnUse"
       id="clipPath31">
      <path
         d="M 0,1201.315 H 1800 V 0 H 0 Z"
         transform="translate(-565.73581,-840.94732)"
         id="path31" />
    </clipPath>
    <clipPath
       clipPathUnits="userSpaceOnUse"
       id="clipPath33">
      <path
         d="M 0,1201.315 H 1800 V 0 H 0 Z"
         transform="translate(-557.83451,-816.62902)"
         id="path33" />
    </clipPath>
    <clipPath
       clipPathUnits="userSpaceOnUse"
       id="clipPath35">
      <path
         d="M 0,1201.315 H 1800 V 0 H 0 Z"
         transform="translate(-578.52101,-831.65832)"
         id="path35" />
    </clipPath>
    <clipPath
       clipPathUnits="userSpaceOnUse"
       id="clipPath37">
      <path
         d="M 0,1201.315 H 1800 V 0 H 0 Z"
         transform="translate(-557.83451,-816.62902)"
         id="path37" />
    </clipPath>
    <clipPath
       clipPathUnits="userSpaceOnUse"
       id="clipPath39">
      <path
         d="M 0,1201.315 H 1800 V 0 H 0 Z"
         transform="translate(-552.95071,-831.65832)"
         id="path39" />
    </clipPath>
    <clipPath
       clipPathUnits="userSpaceOnUse"
       id="clipPath41">
      <path
         d="M 0,1201.315 H 1800 V 0 H 0 Z"
         transform="translate(-578.52052,-831.65832)"
         id="path41" />
    </clipPath>
    <clipPath
       clipPathUnits="userSpaceOnUse"
       id="clipPath43">
      <path
         d="M 0,1201.315 H 1800 V 0 H 0 Z"
         transform="translate(-552.95071,-831.65832)"
         id="path43" />
    </clipPath>
    <clipPath
       clipPathUnits="userSpaceOnUse"
       id="clipPath45">
      <path
         d="M 0,1201.315 H 1800 V 0 H 0 Z"
         transform="translate(-573.63721,-816.62902)"
         id="path45" />
    </clipPath>
    <clipPath
       clipPathUnits="userSpaceOnUse"
       id="clipPath47">
      <path
         d="M 0,1201.315 H 1800 V 0 H 0 Z"
         transform="translate(-139.64751,-783.75302)"
         id="path47" />
    </clipPath>
    <clipPath
       clipPathUnits="userSpaceOnUse"
       id="clipPath49">
      <path
         d="M 0,1201.315 H 1800 V 0 H 0 Z"
         transform="translate(-149.1289,-754.57142)"
         id="path49" />
    </clipPath>
    <clipPath
       clipPathUnits="userSpaceOnUse"
       id="clipPath51">
      <path
         d="M 0,1201.315 H 1800 V 0 H 0 Z"
         transform="translate(-139.64751,-783.75302)"
         id="path51" />
    </clipPath>
    <clipPath
       clipPathUnits="userSpaceOnUse"
       id="clipPath53">
      <path
         d="M 0,1201.315 H 1800 V 0 H 0 Z"
         transform="translate(-130.1655,-754.57142)"
         id="path53" />
    </clipPath>
    <clipPath
       clipPathUnits="userSpaceOnUse"
       id="clipPath55">
      <path
         d="M 0,1201.315 H 1800 V 0 H 0 Z"
         transform="translate(-154.9893,-772.60652)"
         id="path55" />
    </clipPath>
    <clipPath
       clipPathUnits="userSpaceOnUse"
       id="clipPath57">
      <path
         d="M 0,1201.315 H 1800 V 0 H 0 Z"
         transform="translate(-130.1655,-754.57092)"
         id="path57" />
    </clipPath>
    <clipPath
       clipPathUnits="userSpaceOnUse"
       id="clipPath59">
      <path
         d="M 0,1201.315 H 1800 V 0 H 0 Z"
         transform="translate(-124.30521,-772.60652)"
         id="path59" />
    </clipPath>
    <clipPath
       clipPathUnits="userSpaceOnUse"
       id="clipPath61">
      <path
         d="M 0,1201.315 H 1800 V 0 H 0 Z"
         transform="translate(-154.9888,-772.60652)"
         id="path61" />
    </clipPath>
    <clipPath
       clipPathUnits="userSpaceOnUse"
       id="clipPath63">
      <path
         d="M 0,1201.315 H 1800 V 0 H 0 Z"
         transform="translate(-124.30521,-772.60652)"
         id="path63" />
    </clipPath>
    <clipPath
       clipPathUnits="userSpaceOnUse"
       id="clipPath65">
      <path
         d="M 0,1201.315 H 1800 V 0 H 0 Z"
         transform="translate(-149.1289,-754.57092)"
         id="path65" />
    </clipPath>
    <clipPath
       clipPathUnits="userSpaceOnUse"
       id="clipPath67">
      <path
         d="M 0,1201.315 H 1800 V 0 H 0 Z"
         transform="translate(-369.08011,-421.50891)"
         id="path67" />
    </clipPath>
    <clipPath
       clipPathUnits="userSpaceOnUse"
       id="clipPath69">
      <path
         d="M 0,1201.315 H 1800 V 0 H 0 Z"
         transform="translate(-380.14211,-387.46303)"
         id="path69" />
    </clipPath>
    <clipPath
       clipPathUnits="userSpaceOnUse"
       id="clipPath71">
      <path
         d="M 0,1201.315 H 1800 V 0 H 0 Z"
         transform="translate(-369.08011,-421.50891)"
         id="path71" />
    </clipPath>
    <clipPath
       clipPathUnits="userSpaceOnUse"
       id="clipPath73">
      <path
         d="M 0,1201.315 H 1800 V 0 H 0 Z"
         transform="translate(-358.01761,-387.46303)"
         id="path73" />
    </clipPath>
    <clipPath
       clipPathUnits="userSpaceOnUse"
       id="clipPath75">
      <path
         d="M 0,1201.315 H 1800 V 0 H 0 Z"
         transform="translate(-386.97901,-408.50399)"
         id="path75" />
    </clipPath>
    <clipPath
       clipPathUnits="userSpaceOnUse"
       id="clipPath77">
      <path
         d="M 0,1201.315 H 1800 V 0 H 0 Z"
         transform="translate(-358.01811,-387.46303)"
         id="path77" />
    </clipPath>
    <clipPath
       clipPathUnits="userSpaceOnUse"
       id="clipPath79">
      <path
         d="M 0,1201.315 H 1800 V 0 H 0 Z"
         transform="translate(-351.18071,-408.50399)"
         id="path79" />
    </clipPath>
    <clipPath
       clipPathUnits="userSpaceOnUse"
       id="clipPath81">
      <path
         d="M 0,1201.315 H 1800 V 0 H 0 Z"
         transform="translate(-386.97851,-408.50399)"
         id="path81" />
    </clipPath>
    <clipPath
       clipPathUnits="userSpaceOnUse"
       id="clipPath83">
      <path
         d="M 0,1201.315 H 1800 V 0 H 0 Z"
         transform="translate(-351.18071,-408.50399)"
         id="path83" />
    </clipPath>
    <clipPath
       clipPathUnits="userSpaceOnUse"
       id="clipPath85">
      <path
         d="M 0,1201.315 H 1800 V 0 H 0 Z"
         transform="translate(-380.14161,-387.46303)"
         id="path85" />
    </clipPath>
  </defs>
  <sodipodi:namedview
     id="namedview1"
     pagecolor="#ffffff"
     bordercolor="#000000"
     borderopacity="0.25"
     inkscape:showpageshadow="2"
     inkscape:pageopacity="0.0"
     inkscape:pagecheckerboard="0"
     inkscape:deskcolor="#d1d1d1">
    <inkscape:page
       x="0"
       y="0"
       inkscape:label="1"
       id="page1"
       width="2400"
       height="1601.7467"
       margin="0"
       bleed="0" />
  </sodipodi:namedview>
  <g
     id="layer-MC0"
     inkscape:groupmode="layer"
     inkscape:label="svg2">
    <path
       id="path1"
       d="M 0,0 H 1800 V 1201.315 H 0 Z"
       style="fill:#00247d;fill-opacity:1;fill-rule:nonzero;stroke:none"
       transform="matrix(1.3333333,0,0,-1.3333333,0,1601.7467)" />
    <path
       id="path2"
       d="m 0,0 c -17.935,0.15 168.624,99.432 324.769,226.6 204.644,166.667 645.396,433.509 774.971,476.87 13.544,4.532 -27.777,-23.073 -33.14,-32.015 C 928.258,507.714 1038.675,198.731 1211.573,43.406 1263.563,3.644 1260.9,1.556 1357.28,-2.34 v -9 z"
       style="fill:#fed100;fill-opacity:1;fill-rule:nonzero;stroke:none"
       transform="matrix(1.3333333,0,0,-1.3333333,521.17507,1367.8911)"
       clip-path="url(#clipPath3)" />
    <path
       id="path4"
       d="m 0,0 c 0,0 -13.164,-9.403 -13.125,-16.406 0.043,-7.773 14.766,-18.047 14.766,-18.047 l 1338.744,-14.766 24.61,16.407 -34.453,21.328 z"
       style="fill:#fed100;fill-opacity:1;fill-rule:nonzero;stroke:none"
       transform="matrix(1.3333333,0,0,-1.3333333,506.17387,1391.9692)"
       clip-path="url(#clipPath5)" />
    <path
       id="path6"
       d="M 0,0 V -24.823 L 49.647,0 Z"
       style="fill:#ffffff;fill-opacity:1;fill-rule:nonzero;stroke:none"
       transform="matrix(1.3333333,0,0,-1.3333333,492.1068,248.96467)"
       clip-path="url(#clipPath7)" />
    <path
       id="path8"
       d="m 0,0 -14.591,20.083 54.757,9.099 z"
       style="fill:#ffffff;fill-opacity:1;fill-rule:nonzero;stroke:none"
       transform="matrix(1.3333333,0,0,-1.3333333,504.74867,287.8736)"
       clip-path="url(#clipPath9)" />
    <path
       id="path10"
       d="M 0,0 V -24.823 L -49.647,0 Z"
       style="fill:#ffffff;fill-opacity:1;fill-rule:nonzero;stroke:none"
       transform="matrix(1.3333333,0,0,-1.3333333,492.1068,248.96467)"
       clip-path="url(#clipPath11)" />
    <path
       id="path12"
       d="m 0,0 14.591,20.083 -54.757,9.099 z"
       style="fill:#ffffff;fill-opacity:1;fill-rule:nonzero;stroke:none"
       transform="matrix(1.3333333,0,0,-1.3333333,479.46413,287.8736)"
       clip-path="url(#clipPath13)" />
    <path
       id="path14"
       d="m 0,0 -23.608,-7.671 38.95,-39.546 z"
       style="fill:#ffffff;fill-opacity:1;fill-rule:nonzero;stroke:none"
       transform="matrix(1.3333333,0,0,-1.3333333,512.56253,263.82667)"
       clip-path="url(#clipPath15)" />
    <path
       id="path16"
       d="M 0,0 14.591,20.083 40.166,-29.182 Z"
       style="fill:#ffffff;fill-opacity:1;fill-rule:nonzero;stroke:none"
       transform="matrix(1.3333333,0,0,-1.3333333,479.46413,287.87413)"
       clip-path="url(#clipPath17)" />
    <path
       id="path18"
       d="M 0,0 23.608,-7.671 15.342,47.217 Z"
       style="fill:#ffffff;fill-opacity:1;fill-rule:nonzero;stroke:none"
       transform="matrix(1.3333333,0,0,-1.3333333,471.6504,263.82667)"
       clip-path="url(#clipPath19)" />
    <path
       id="path20"
       d="m 0,0 -23.608,-7.671 8.266,54.888 z"
       style="fill:#ffffff;fill-opacity:1;fill-rule:nonzero;stroke:none"
       transform="matrix(1.3333333,0,0,-1.3333333,512.56187,263.82667)"
       clip-path="url(#clipPath21)" />
    <path
       id="path22"
       d="m 0,0 23.608,-7.671 -38.95,-39.546 z"
       style="fill:#ffffff;fill-opacity:1;fill-rule:nonzero;stroke:none"
       transform="matrix(1.3333333,0,0,-1.3333333,471.6504,263.82667)"
       clip-path="url(#clipPath23)" />
    <path
       id="path24"
       d="M 0,0 -14.591,20.083 -40.166,-29.182 Z"
       style="fill:#ffffff;fill-opacity:1;fill-rule:nonzero;stroke:none"
       transform="matrix(1.3333333,0,0,-1.3333333,504.74867,287.87413)"
       clip-path="url(#clipPath25)" />
    <path
       id="path26"
       d="M 0,0 V -20.687 L 41.373,0 Z"
       style="fill:#ffffff;fill-opacity:1;fill-rule:nonzero;stroke:none"
       transform="matrix(1.3333333,0,0,-1.3333333,754.3144,480.4836)"
       clip-path="url(#clipPath27)" />
    <path
       id="path28"
       d="m 0,0 -12.159,16.736 45.631,7.582 z"
       style="fill:#ffffff;fill-opacity:1;fill-rule:nonzero;stroke:none"
       transform="matrix(1.3333333,0,0,-1.3333333,764.8496,512.908)"
       clip-path="url(#clipPath29)" />
    <path
       id="path30"
       d="M 0,0 V -20.687 L -41.373,0 Z"
       style="fill:#ffffff;fill-opacity:1;fill-rule:nonzero;stroke:none"
       transform="matrix(1.3333333,0,0,-1.3333333,754.3144,480.4836)"
       clip-path="url(#clipPath31)" />
    <path
       id="path32"
       d="m 0,0 12.159,16.736 -45.63,7.582 z"
       style="fill:#ffffff;fill-opacity:1;fill-rule:nonzero;stroke:none"
       transform="matrix(1.3333333,0,0,-1.3333333,743.77933,512.908)"
       clip-path="url(#clipPath33)" />
    <path
       id="path34"
       d="M 0,0 -19.674,-6.392 12.785,-39.348 Z"
       style="fill:#ffffff;fill-opacity:1;fill-rule:nonzero;stroke:none"
       transform="matrix(1.3333333,0,0,-1.3333333,771.36133,492.86893)"
       clip-path="url(#clipPath35)" />
    <path
       id="path36"
       d="M 0,0 12.159,16.735 33.471,-24.318 Z"
       style="fill:#ffffff;fill-opacity:1;fill-rule:nonzero;stroke:none"
       transform="matrix(1.3333333,0,0,-1.3333333,743.77933,512.908)"
       clip-path="url(#clipPath37)" />
    <path
       id="path38"
       d="m 0,0 19.674,-6.392 -6.889,45.74 z"
       style="fill:#ffffff;fill-opacity:1;fill-rule:nonzero;stroke:none"
       transform="matrix(1.3333333,0,0,-1.3333333,737.2676,492.86893)"
       clip-path="url(#clipPath39)" />
    <path
       id="path40"
       d="m 0,0 -19.674,-6.392 6.889,45.74 z"
       style="fill:#ffffff;fill-opacity:1;fill-rule:nonzero;stroke:none"
       transform="matrix(1.3333333,0,0,-1.3333333,771.36067,492.86893)"
       clip-path="url(#clipPath41)" />
    <path
       id="path42"
       d="M 0,0 19.674,-6.392 -12.785,-39.348 Z"
       style="fill:#ffffff;fill-opacity:1;fill-rule:nonzero;stroke:none"
       transform="matrix(1.3333333,0,0,-1.3333333,737.2676,492.86893)"
       clip-path="url(#clipPath43)" />
    <path
       id="path44"
       d="M 0,0 -12.159,16.735 -33.471,-24.318 Z"
       style="fill:#ffffff;fill-opacity:1;fill-rule:nonzero;stroke:none"
       transform="matrix(1.3333333,0,0,-1.3333333,764.8496,512.908)"
       clip-path="url(#clipPath45)" />
    <path
       id="path46"
       d="M 0,0 V -24.824 L 49.647,0 Z"
       style="fill:#ffffff;fill-opacity:1;fill-rule:nonzero;stroke:none"
       transform="matrix(1.3333333,0,0,-1.3333333,186.19667,556.74267)"
       clip-path="url(#clipPath47)" />
    <path
       id="path48"
       d="m 0,0 -14.591,20.083 54.757,9.099 z"
       style="fill:#ffffff;fill-opacity:1;fill-rule:nonzero;stroke:none"
       transform="matrix(1.3333333,0,0,-1.3333333,198.83853,595.65147)"
       clip-path="url(#clipPath49)" />
    <path
       id="path50"
       d="M 0,0 V -24.824 L -49.647,0 Z"
       style="fill:#ffffff;fill-opacity:1;fill-rule:nonzero;stroke:none"
       transform="matrix(1.3333333,0,0,-1.3333333,186.19667,556.74267)"
       clip-path="url(#clipPath51)" />
    <path
       id="path52"
       d="m 0,0 14.591,20.083 -54.757,9.099 z"
       style="fill:#ffffff;fill-opacity:1;fill-rule:nonzero;stroke:none"
       transform="matrix(1.3333333,0,0,-1.3333333,173.554,595.65147)"
       clip-path="url(#clipPath53)" />
    <path
       id="path54"
       d="m 0,0 -23.608,-7.671 38.95,-39.546 z"
       style="fill:#ffffff;fill-opacity:1;fill-rule:nonzero;stroke:none"
       transform="matrix(1.3333333,0,0,-1.3333333,206.6524,571.60467)"
       clip-path="url(#clipPath55)" />
    <path
       id="path56"
       d="M 0,0 14.591,20.083 40.166,-29.182 Z"
       style="fill:#ffffff;fill-opacity:1;fill-rule:nonzero;stroke:none"
       transform="matrix(1.3333333,0,0,-1.3333333,173.554,595.65213)"
       clip-path="url(#clipPath57)" />
    <path
       id="path58"
       d="M 0,0 23.609,-7.671 15.342,47.217 Z"
       style="fill:#ffffff;fill-opacity:1;fill-rule:nonzero;stroke:none"
       transform="matrix(1.3333333,0,0,-1.3333333,165.74027,571.60467)"
       clip-path="url(#clipPath59)" />
    <path
       id="path60"
       d="m 0,0 -23.608,-7.671 8.266,54.888 z"
       style="fill:#ffffff;fill-opacity:1;fill-rule:nonzero;stroke:none"
       transform="matrix(1.3333333,0,0,-1.3333333,206.65173,571.60467)"
       clip-path="url(#clipPath61)" />
    <path
       id="path62"
       d="M 0,0 23.609,-7.671 -15.342,-47.217 Z"
       style="fill:#ffffff;fill-opacity:1;fill-rule:nonzero;stroke:none"
       transform="matrix(1.3333333,0,0,-1.3333333,165.74027,571.60467)"
       clip-path="url(#clipPath63)" />
    <path
       id="path64"
       d="M 0,0 -14.591,20.083 -40.166,-29.182 Z"
       style="fill:#ffffff;fill-opacity:1;fill-rule:nonzero;stroke:none"
       transform="matrix(1.3333333,0,0,-1.3333333,198.83853,595.65213)"
       clip-path="url(#clipPath65)" />
    <path
       id="path66"
       d="M 0,0 V -28.961 L 57.921,0 Z"
       style="fill:#ffffff;fill-opacity:1;fill-rule:nonzero;stroke:none"
       transform="matrix(1.3333333,0,0,-1.3333333,492.1068,1039.7348)"
       clip-path="url(#clipPath67)" />
    <path
       id="path68"
       d="M 0,0 -17.023,23.43 46.859,34.046 Z"
       style="fill:#ffffff;fill-opacity:1;fill-rule:nonzero;stroke:none"
       transform="matrix(1.3333333,0,0,-1.3333333,506.85613,1085.1293)"
       clip-path="url(#clipPath69)" />
    <path
       id="path70"
       d="M 0,0 V -28.961 L -57.922,0 Z"
       style="fill:#ffffff;fill-opacity:1;fill-rule:nonzero;stroke:none"
       transform="matrix(1.3333333,0,0,-1.3333333,492.1068,1039.7348)"
       clip-path="url(#clipPath71)" />
    <path
       id="path72"
       d="M 0,0 17.023,23.43 -46.859,34.046 Z"
       style="fill:#ffffff;fill-opacity:1;fill-rule:nonzero;stroke:none"
       transform="matrix(1.3333333,0,0,-1.3333333,477.3568,1085.1293)"
       clip-path="url(#clipPath73)" />
    <path
       id="path74"
       d="M 0,0 -27.543,-8.949 17.899,-55.087 Z"
       style="fill:#ffffff;fill-opacity:1;fill-rule:nonzero;stroke:none"
       transform="matrix(1.3333333,0,0,-1.3333333,515.972,1057.0747)"
       clip-path="url(#clipPath75)" />
    <path
       id="path76"
       d="M 0,0 17.023,23.43 46.86,-34.046 Z"
       style="fill:#ffffff;fill-opacity:1;fill-rule:nonzero;stroke:none"
       transform="matrix(1.3333333,0,0,-1.3333333,477.35747,1085.1293)"
       clip-path="url(#clipPath77)" />
    <path
       id="path78"
       d="M 0,0 27.543,-8.949 17.899,55.087 Z"
       style="fill:#ffffff;fill-opacity:1;fill-rule:nonzero;stroke:none"
       transform="matrix(1.3333333,0,0,-1.3333333,468.24093,1057.0747)"
       clip-path="url(#clipPath79)" />
    <path
       id="path80"
       d="m 0,0 -27.543,-8.949 9.644,64.036 z"
       style="fill:#ffffff;fill-opacity:1;fill-rule:nonzero;stroke:none"
       transform="matrix(1.3333333,0,0,-1.3333333,515.97133,1057.0747)"
       clip-path="url(#clipPath81)" />
    <path
       id="path82"
       d="M 0,0 27.543,-8.949 -17.899,-55.087 Z"
       style="fill:#ffffff;fill-opacity:1;fill-rule:nonzero;stroke:none"
       transform="matrix(1.3333333,0,0,-1.3333333,468.24093,1057.0747)"
       clip-path="url(#clipPath83)" />
    <path
       id="path84"
       d="M 0,0 -17.023,23.43 -46.86,-34.046 Z"
       style="fill:#ffffff;fill-opacity:1;fill-rule:nonzero;stroke:none"
       transform="matrix(1.3333333,0,0,-1.3333333,506.85547,1085.1293)"
       clip-path="url(#clipPath85)" />
  </g>
</svg>
