<svg height="1066.6667" viewBox="0 0 1600 1066.6667" width="1600" xmlns="http://www.w3.org/2000/svg" xmlns:xlink="http://www.w3.org/1999/xlink"><clipPath id="a"><path d="m0 800h1200v-800h-1200z" transform="translate(-600.00002 -600.00001)"/></clipPath><clipPath id="b"><path d="m0 800h1200v-800h-1200z" transform="translate(-600.00002 -550.00002)"/></clipPath><clipPath id="c"><path d="m0 800h1200v-800h-1200z" transform="translate(-640.00001 -520.00002)"/></clipPath><clipPath id="d"><path d="m0 800h1200v-800h-1200z" transform="translate(-550.00001 -400.00001)"/></clipPath><path d="m0 0h1200v800h-1200z" fill="#e70013" transform="matrix(1.3333333 0 0 -1.3333333 0 1066.6667)"/><path clip-path="url(#a)" d="m0 0c110.457 0 200-89.543 200-200s-89.543-200-200-200-200 89.543-200 200 89.543 200 200 200" fill="#fff" transform="matrix(1.3333333 0 0 -1.3333333 800 266.66667)"/><path clip-path="url(#b)" d="m0 0c82.843 0 150-67.157 150-150s-67.157-150-150-150-150 67.157-150 150 67.157 150 150 150" fill="#e70013" transform="matrix(1.3333333 0 0 -1.3333333 800 333.33333)"/><path clip-path="url(#c)" d="m0 0c66.274 0 120-53.726 120-120s-53.726-120-120-120-120 53.726-120 120 53.726 120 120 120" fill="#fff" transform="matrix(1.3333333 0 0 -1.3333333 853.33333 373.33333)"/><path clip-path="url(#d)" d="m0 0 162.812 52.901-100.624-138.497v171.191l100.624-138.496z" fill="#e70013" transform="matrix(1.3333333 0 0 -1.3333333 733.33333 533.33333)"/></svg>