<svg height="888.88934" viewBox="0 0 1333.3333 888.88934" width="1333.3333" xmlns="http://www.w3.org/2000/svg"><path d="m0 0h1000v666.667h-1000z" fill="#5b97b1" transform="matrix(1.3333333 0 0 -1.3333333 0 888.88933)"/><path d="m0 378h433v288.667h-433z" fill="#00247d" transform="matrix(1.3333333 0 0 -1.3333333 0 888.88933)"/><path d="m0 0-168.089-112.059 48.411-32.274 168.089 112.059v32.274zm-384.589 0v-32.274l168.089-112.059 48.411 32.274-168.089 112.059zm0-256.392v-32.275h48.411l168.089 112.06-48.411 32.274zm216.5 79.785 168.089-112.06h48.411v32.274l-168.089 112.06z" fill="#fff" transform="matrix(1.3333333 0 0 -1.3333333 512.7852 .000133)"/><path d="m0 0v-96.223h-180.417v-96.221h180.417v-96.223h72.166v96.223h180.417v96.221h-180.417v96.223z" fill="#fff" transform="matrix(1.3333333 0 0 -1.3333333 240.5556 .000133)"/><path d="m0 0v-115.467h-194.85v-57.733h194.85v-115.467h43.3v115.467h194.85v57.733h-194.85v115.467z" fill="#cf142b" transform="matrix(1.3333333 0 0 -1.3333333 259.8 .000133)"/><path d="m0 0-144.334-96.223h32.274l144.333 96.223zm-400.727 0v-21.516l112.06-74.707h32.274zm288.667-192.444 144.333-96.223v21.516l-112.06 74.707zm-144.333 0-144.334-96.223h32.274l144.333 96.223z" fill="#cf142b" transform="matrix(1.3333333 0 0 -1.3333333 534.3024 .000133)"/><g fill="#ffce00"><path d="m0 0 9.607 29.705 9.604-29.706 31.162.022-25.227-18.332 9.651-29.69-25.194 18.376-25.198-18.372 9.657 29.689-25.224 18.336z" transform="matrix(1.3333333 0 0 -1.3333333 1191.5027 187.49973)"/><path d="m0 0 9.608 29.706 9.603-29.707 31.162.022-25.227-18.331 9.652-29.691-25.194 18.377-25.198-18.373 9.657 29.689-25.225 18.336z" transform="matrix(1.3333333 0 0 -1.3333333 1069.8307 533.50307)"/><path d="m0 0 9.607 29.705 9.604-29.707 31.162.023-25.227-18.332 9.651-29.691-25.194 18.377-25.198-18.372 9.657 29.689-25.224 18.336z" transform="matrix(1.3333333 0 0 -1.3333333 1191.5027 455.17627)"/><path d="m0 0 9.608 29.705 9.603-29.706 31.163.022-25.228-18.332 9.652-29.69-25.194 18.377-25.198-18.373 9.656 29.689-25.224 18.336z" transform="matrix(1.3333333 0 0 -1.3333333 668.31507 706.12413)"/><path d="m0 0-9.608-29.706-9.603 29.707-31.162-.022 25.227 18.331-9.652 29.691 25.194-18.377 25.198 18.373-9.656-29.689 25.224-18.336z" transform="matrix(1.3333333 0 0 -1.3333333 857.11067 560.23867)"/><path d="m0 0-9.608-29.705-9.604 29.707-31.162-.023 25.228 18.332-9.652 29.69 25.194-18.376 25.198 18.372-9.657-29.689 25.224-18.336z" transform="matrix(1.3333333 0 0 -1.3333333 1001.2083 360.95613)"/><path d="m0 0-9.608-29.706-9.603 29.707-31.163-.022 25.228 18.332-9.652 29.69 25.194-18.376 25.198 18.372-9.657-29.689 25.225-18.336z" transform="matrix(1.3333333 0 0 -1.3333333 1122.3112 319.56627)"/><path d="m0 0-9.608-29.705-9.604 29.706-31.162-.022 25.228 18.332-9.652 29.69 25.194-18.377 25.198 18.373-9.657-29.689 25.224-18.336z" transform="matrix(1.3333333 0 0 -1.3333333 1001.2083 664.4796)"/><path d="m0 0-9.608-29.705-9.603 29.706-31.162-.022 25.227 18.332-9.652 29.69 25.194-18.377 25.198 18.373-9.656-29.689 25.224-18.336z" transform="matrix(1.3333333 0 0 -1.3333333 857.11067 699.73747)"/></g></svg>