<?xml version="1.0" encoding="UTF-8" standalone="no"?>
<!-- Created with Inkscape (http://www.inkscape.org/) -->

<svg
   version="1.1"
   id="svg1"
   width="974.11731"
   height="650"
   viewBox="0 0 974.11731 650"
   sodipodi:docname="us.ai"
   xmlns:inkscape="http://www.inkscape.org/namespaces/inkscape"
   xmlns:sodipodi="http://sodipodi.sourceforge.net/DTD/sodipodi-0.dtd"
   xmlns="http://www.w3.org/2000/svg"
   xmlns:svg="http://www.w3.org/2000/svg">
  <defs
     id="defs1" />
  <sodipodi:namedview
     id="namedview1"
     pagecolor="#ffffff"
     bordercolor="#000000"
     borderopacity="0.25"
     inkscape:showpageshadow="2"
     inkscape:pageopacity="0.0"
     inkscape:pagecheckerboard="0"
     inkscape:deskcolor="#d1d1d1">
    <inkscape:page
       x="0"
       y="0"
       inkscape:label="1"
       id="page1"
       width="974.11731"
       height="650"
       margin="0"
       bleed="0" />
  </sodipodi:namedview>
  <g
     id="layer-MC0"
     inkscape:groupmode="layer"
     inkscape:label="Layer 1">
    <path
       id="path1"
       d="M 0,0 H 730.588 V 487.5 H 0 Z"
       style="fill:#ffffff;fill-opacity:1;fill-rule:nonzero;stroke:none"
       transform="matrix(1.3333333,0,0,-1.3333333,0,650)" />
    <path
       id="path2"
       d="m 0,450 h 730.588 v 37.5 H 0 Z"
       style="fill:#b22234;fill-opacity:1;fill-rule:nonzero;stroke:none"
       transform="matrix(1.3333333,0,0,-1.3333333,0,650)" />
    <path
       id="path3"
       d="m 0,375 h 730.588 v 37.499 H 0 Z"
       style="fill:#b22234;fill-opacity:1;fill-rule:nonzero;stroke:none"
       transform="matrix(1.3333333,0,0,-1.3333333,0,650)" />
    <path
       id="path4"
       d="m 0,300 h 730.588 v 37.5 H 0 Z"
       style="fill:#b22234;fill-opacity:1;fill-rule:nonzero;stroke:none"
       transform="matrix(1.3333333,0,0,-1.3333333,0,650)" />
    <path
       id="path5"
       d="m 0,225 h 730.588 v 37.5 H 0 Z"
       style="fill:#b22234;fill-opacity:1;fill-rule:nonzero;stroke:none"
       transform="matrix(1.3333333,0,0,-1.3333333,0,650)" />
    <path
       id="path6"
       d="m 0,150 h 730.588 v 37.499 H 0 Z"
       style="fill:#b22234;fill-opacity:1;fill-rule:nonzero;stroke:none"
       transform="matrix(1.3333333,0,0,-1.3333333,0,650)" />
    <path
       id="path7"
       d="m 0,75 h 730.588 v 37.5 H 0 Z"
       style="fill:#b22234;fill-opacity:1;fill-rule:nonzero;stroke:none"
       transform="matrix(1.3333333,0,0,-1.3333333,0,650)" />
    <path
       id="path8"
       d="M 0,0 H 730.588 V 37.5 H 0 Z"
       style="fill:#b22234;fill-opacity:1;fill-rule:nonzero;stroke:none"
       transform="matrix(1.3333333,0,0,-1.3333333,0,650)" />
    <path
       id="path9"
       d="M 0,225 H 365.625 V 487.5 H 0 Z"
       style="fill:#3c3b6e;fill-opacity:1;fill-rule:nonzero;stroke:none"
       transform="matrix(1.3333333,0,0,-1.3333333,0,650)" />
    <path
       id="path10"
       d="m 0,0 -3.372,-10.375 h -10.91 l 8.828,-6.414 -3.371,-10.375 8.824,6.414 8.824,-6.414 -3.371,10.375 8.828,6.414 H 3.37 Z"
       style="fill:#ffffff;fill-opacity:1;fill-rule:nonzero;stroke:none"
       transform="matrix(1.3333333,0,0,-1.3333333,39.884133,16.4896)" />
    <path
       id="path11"
       d="m 0,0 -3.371,-10.375 h -10.91 l 8.825,-6.412 -3.372,-10.377 8.826,6.413 8.827,-6.413 -3.371,10.375 8.828,6.414 H 3.371 Z"
       style="fill:#ffffff;fill-opacity:1;fill-rule:nonzero;stroke:none"
       transform="matrix(1.3333333,0,0,-1.3333333,121.784,16.4896)" />
    <path
       id="path12"
       d="m 0,0 -3.371,-10.375 h -10.91 l 8.825,-6.412 -3.372,-10.377 8.826,6.413 8.826,-6.413 -3.371,10.375 8.824,6.414 H 3.371 Z"
       style="fill:#ffffff;fill-opacity:1;fill-rule:nonzero;stroke:none"
       transform="matrix(1.3333333,0,0,-1.3333333,203.68493,16.4896)" />
    <path
       id="path13"
       d="m 0,0 -3.371,-10.375 h -10.905 l 8.823,-6.414 -3.371,-10.375 8.826,6.413 8.826,-6.413 -3.372,10.377 8.825,6.412 H 3.371 Z"
       style="fill:#ffffff;fill-opacity:1;fill-rule:nonzero;stroke:none"
       transform="matrix(1.3333333,0,0,-1.3333333,285.5808,16.4896)" />
    <path
       id="path14"
       d="m 0,0 -3.371,-10.375 h -10.91 l 8.828,-6.414 -3.371,-10.375 8.826,6.413 8.826,-6.413 -3.371,10.377 8.824,6.412 H 3.372 Z"
       style="fill:#ffffff;fill-opacity:1;fill-rule:nonzero;stroke:none"
       transform="matrix(1.3333333,0,0,-1.3333333,367.48187,16.4896)" />
    <path
       id="path15"
       d="m 0,0 -3.371,-10.375 8.824,6.414 8.824,-6.414 L 10.906,0 19.734,6.414 H 8.824 L 5.453,16.789 2.082,6.414 h -10.91 z"
       style="fill:#ffffff;fill-opacity:1;fill-rule:nonzero;stroke:none"
       transform="matrix(1.3333333,0,0,-1.3333333,442.112,38.875067)" />
    <path
       id="path16"
       d="m 0,0 -3.372,-10.375 h -10.905 l 8.824,-6.41 -3.371,-10.375 8.826,6.41 8.827,-6.41 -3.372,10.376 8.824,6.409 H 3.372 Z"
       style="fill:#ffffff;fill-opacity:1;fill-rule:nonzero;stroke:none"
       transform="matrix(1.3333333,0,0,-1.3333333,80.8308,51.593733)" />
    <path
       id="path17"
       d="m 0,0 -3.372,-10.375 h -10.909 l 8.828,-6.412 -3.371,-10.373 8.826,6.41 8.826,-6.41 -3.371,10.376 8.824,6.409 H 3.372 Z"
       style="fill:#ffffff;fill-opacity:1;fill-rule:nonzero;stroke:none"
       transform="matrix(1.3333333,0,0,-1.3333333,162.73187,51.593733)" />
    <path
       id="path18"
       d="m 0,0 -3.372,-10.375 h -10.909 l 8.828,-6.412 -3.371,-10.373 8.824,6.411 8.824,-6.411 -3.371,10.373 8.828,6.412 H 3.372 Z"
       style="fill:#ffffff;fill-opacity:1;fill-rule:nonzero;stroke:none"
       transform="matrix(1.3333333,0,0,-1.3333333,244.63293,51.593733)" />
    <path
       id="path19"
       d="M 0,0 -3.372,-10.375 H -14.28 l 8.824,-6.409 -3.372,-10.376 8.826,6.41 8.826,-6.41 -3.37,10.373 8.827,6.412 H 3.372 Z"
       style="fill:#ffffff;fill-opacity:1;fill-rule:nonzero;stroke:none"
       transform="matrix(1.3333333,0,0,-1.3333333,326.534,51.593733)" />
    <path
       id="path20"
       d="m 0,0 -3.373,-10.375 h -10.909 l 8.824,-6.409 -3.371,-10.376 8.826,6.41 8.826,-6.41 -3.371,10.375 8.824,6.41 H 3.371 Z"
       style="fill:#ffffff;fill-opacity:1;fill-rule:nonzero;stroke:none"
       transform="matrix(1.3333333,0,0,-1.3333333,408.43627,51.593733)" />
    <path
       id="path21"
       d="m 0,0 -3.371,-10.375 h -10.911 l 8.827,-6.411 -3.37,-10.374 8.824,6.411 8.824,-6.411 -3.37,10.374 8.827,6.411 H 3.37 Z"
       style="fill:#ffffff;fill-opacity:1;fill-rule:nonzero;stroke:none"
       transform="matrix(1.3333333,0,0,-1.3333333,39.884133,86.6928)" />
    <path
       id="path22"
       d="m 0,0 -3.371,-10.375 h -10.91 l 8.824,-6.409 -3.371,-10.376 8.826,6.41 8.827,-6.41 -3.371,10.374 8.828,6.411 H 3.371 Z"
       style="fill:#ffffff;fill-opacity:1;fill-rule:nonzero;stroke:none"
       transform="matrix(1.3333333,0,0,-1.3333333,121.784,86.6928)" />
    <path
       id="path23"
       d="m 0,0 -3.371,-10.375 h -10.91 l 8.824,-6.409 -3.371,-10.376 8.826,6.41 8.826,-6.41 -3.371,10.374 8.824,6.411 H 3.371 Z"
       style="fill:#ffffff;fill-opacity:1;fill-rule:nonzero;stroke:none"
       transform="matrix(1.3333333,0,0,-1.3333333,203.68493,86.6928)" />
    <path
       id="path24"
       d="m 0,0 -3.371,-10.375 h -10.905 l 8.823,-6.41 -3.371,-10.375 8.826,6.41 8.826,-6.41 -3.371,10.376 8.824,6.409 H 3.371 Z"
       style="fill:#ffffff;fill-opacity:1;fill-rule:nonzero;stroke:none"
       transform="matrix(1.3333333,0,0,-1.3333333,285.5808,86.6928)" />
    <path
       id="path25"
       d="m 0,0 -3.371,-10.375 h -10.91 l 8.827,-6.411 -3.37,-10.374 8.826,6.41 8.826,-6.41 -3.371,10.376 8.824,6.409 H 3.371 Z"
       style="fill:#ffffff;fill-opacity:1;fill-rule:nonzero;stroke:none"
       transform="matrix(1.3333333,0,0,-1.3333333,367.48187,86.6928)" />
    <path
       id="path26"
       d="m 0,0 -3.371,-10.375 h -10.91 l 8.827,-6.411 -3.37,-10.374 8.824,6.411 8.824,-6.411 -3.37,10.374 8.827,6.411 H 3.371 Z"
       style="fill:#ffffff;fill-opacity:1;fill-rule:nonzero;stroke:none"
       transform="matrix(1.3333333,0,0,-1.3333333,449.38293,86.6928)" />
    <path
       id="path27"
       d="m 0,0 -3.371,-10.375 h -10.906 l 8.824,-6.413 -3.371,-10.376 8.826,6.413 8.827,-6.413 -3.372,10.377 8.824,6.412 H 3.371 Z"
       style="fill:#ffffff;fill-opacity:1;fill-rule:nonzero;stroke:none"
       transform="matrix(1.3333333,0,0,-1.3333333,80.8308,121.79173)" />
    <path
       id="path28"
       d="m 0,0 -3.371,-10.375 h -10.91 l 8.828,-6.414 -3.371,-10.375 8.826,6.413 8.826,-6.413 -3.372,10.377 8.825,6.412 H 3.371 Z"
       style="fill:#ffffff;fill-opacity:1;fill-rule:nonzero;stroke:none"
       transform="matrix(1.3333333,0,0,-1.3333333,162.73187,121.79173)" />
    <path
       id="path29"
       d="m 0,0 -3.371,-10.375 h -10.91 l 8.828,-6.414 -3.371,-10.375 8.824,6.414 8.824,-6.414 -3.371,10.375 8.828,6.414 H 3.371 Z"
       style="fill:#ffffff;fill-opacity:1;fill-rule:nonzero;stroke:none"
       transform="matrix(1.3333333,0,0,-1.3333333,244.63293,121.79173)" />
    <path
       id="path30"
       d="M 0,0 -3.371,-10.375 H -14.28 l 8.824,-6.412 -3.372,-10.377 8.826,6.413 8.826,-6.413 -3.371,10.375 8.828,6.414 H 3.371 Z"
       style="fill:#ffffff;fill-opacity:1;fill-rule:nonzero;stroke:none"
       transform="matrix(1.3333333,0,0,-1.3333333,326.534,121.79173)" />
    <path
       id="path31"
       d="m 0,0 -3.371,-10.375 h -10.911 l 8.825,-6.411 -3.372,-10.378 8.826,6.413 8.826,-6.413 -3.371,10.376 8.824,6.413 H 3.37 Z"
       style="fill:#ffffff;fill-opacity:1;fill-rule:nonzero;stroke:none"
       transform="matrix(1.3333333,0,0,-1.3333333,408.43627,121.79173)" />
    <path
       id="path32"
       d="m 0,0 -3.371,-10.375 h -10.911 l 8.828,-6.414 -3.371,-10.374 8.824,6.413 8.824,-6.413 -3.371,10.374 8.828,6.414 H 3.37 Z"
       style="fill:#ffffff;fill-opacity:1;fill-rule:nonzero;stroke:none"
       transform="matrix(1.3333333,0,0,-1.3333333,39.884133,156.89067)" />
    <path
       id="path33"
       d="m 0,0 -3.371,-10.375 h -10.91 l 8.825,-6.412 -3.372,-10.376 8.826,6.412 8.827,-6.412 -3.371,10.374 8.828,6.414 H 3.371 Z"
       style="fill:#ffffff;fill-opacity:1;fill-rule:nonzero;stroke:none"
       transform="matrix(1.3333333,0,0,-1.3333333,121.784,156.89067)" />
    <path
       id="path34"
       d="m 0,0 -3.371,-10.375 h -10.91 l 8.825,-6.412 -3.372,-10.376 8.826,6.413 8.826,-6.413 -3.371,10.374 8.824,6.414 H 3.371 Z"
       style="fill:#ffffff;fill-opacity:1;fill-rule:nonzero;stroke:none"
       transform="matrix(1.3333333,0,0,-1.3333333,203.68493,156.89067)" />
    <path
       id="path35"
       d="m 0,0 -3.371,-10.375 h -10.905 l 8.823,-6.414 -3.371,-10.374 8.826,6.413 8.826,-6.413 -3.372,10.376 8.825,6.412 H 3.371 Z"
       style="fill:#ffffff;fill-opacity:1;fill-rule:nonzero;stroke:none"
       transform="matrix(1.3333333,0,0,-1.3333333,285.5808,156.89067)" />
    <path
       id="path36"
       d="m 0,0 -3.371,-10.375 h -10.91 l 8.828,-6.414 -3.371,-10.374 8.826,6.412 8.826,-6.412 -3.371,10.376 8.824,6.412 H 3.371 Z"
       style="fill:#ffffff;fill-opacity:1;fill-rule:nonzero;stroke:none"
       transform="matrix(1.3333333,0,0,-1.3333333,367.48187,156.89067)" />
    <path
       id="path37"
       d="m 0,0 -3.371,-10.375 h -10.91 l 8.828,-6.414 -3.371,-10.374 8.824,6.413 8.824,-6.413 -3.371,10.374 8.828,6.414 H 3.371 Z"
       style="fill:#ffffff;fill-opacity:1;fill-rule:nonzero;stroke:none"
       transform="matrix(1.3333333,0,0,-1.3333333,449.38293,156.89067)" />
    <path
       id="path38"
       d="m 0,0 -3.371,-10.375 h -10.906 l 8.824,-6.414 -3.371,-10.375 8.826,6.413 8.827,-6.413 -3.372,10.377 8.824,6.412 H 3.371 Z"
       style="fill:#ffffff;fill-opacity:1;fill-rule:nonzero;stroke:none"
       transform="matrix(1.3333333,0,0,-1.3333333,80.8308,191.9896)" />
    <path
       id="path39"
       d="m 0,0 -3.371,-10.375 h -10.91 l 8.828,-6.415 -3.371,-10.374 8.826,6.413 8.826,-6.413 -3.372,10.377 8.825,6.412 H 3.371 Z"
       style="fill:#ffffff;fill-opacity:1;fill-rule:nonzero;stroke:none"
       transform="matrix(1.3333333,0,0,-1.3333333,162.73187,191.9896)" />
    <path
       id="path40"
       d="m 0,0 -3.371,-10.375 h -10.91 l 8.828,-6.415 -3.371,-10.374 8.824,6.414 8.824,-6.414 -3.371,10.374 8.828,6.415 H 3.371 Z"
       style="fill:#ffffff;fill-opacity:1;fill-rule:nonzero;stroke:none"
       transform="matrix(1.3333333,0,0,-1.3333333,244.63293,191.9896)" />
    <path
       id="path41"
       d="M 0,0 -3.371,-10.375 H -14.28 l 8.824,-6.412 -3.372,-10.377 8.826,6.413 8.826,-6.413 -3.371,10.374 8.828,6.415 H 3.371 Z"
       style="fill:#ffffff;fill-opacity:1;fill-rule:nonzero;stroke:none"
       transform="matrix(1.3333333,0,0,-1.3333333,326.534,191.9896)" />
    <path
       id="path42"
       d="m 0,0 -3.372,-10.375 h -10.91 l 8.824,-6.412 -3.371,-10.377 8.826,6.413 8.826,-6.413 -3.371,10.375 8.824,6.414 H 3.37 Z"
       style="fill:#ffffff;fill-opacity:1;fill-rule:nonzero;stroke:none"
       transform="matrix(1.3333333,0,0,-1.3333333,408.43627,191.9896)" />
    <path
       id="path43"
       d="m 0,0 -3.372,-10.375 h -10.91 l 8.827,-6.411 -3.37,-10.374 8.824,6.411 8.824,-6.411 -3.37,10.374 8.827,6.411 H 3.371 Z"
       style="fill:#ffffff;fill-opacity:1;fill-rule:nonzero;stroke:none"
       transform="matrix(1.3333333,0,0,-1.3333333,39.884133,227.09373)" />
    <path
       id="path44"
       d="m 0,0 -3.372,-10.375 h -10.909 l 8.824,-6.409 -3.371,-10.376 8.826,6.41 8.827,-6.41 -3.371,10.374 8.828,6.411 H 3.372 Z"
       style="fill:#ffffff;fill-opacity:1;fill-rule:nonzero;stroke:none"
       transform="matrix(1.3333333,0,0,-1.3333333,121.784,227.09373)" />
    <path
       id="path45"
       d="m 0,0 -3.372,-10.375 h -10.909 l 8.824,-6.409 -3.371,-10.376 8.826,6.41 8.826,-6.41 -3.371,10.374 8.824,6.411 H 3.372 Z"
       style="fill:#ffffff;fill-opacity:1;fill-rule:nonzero;stroke:none"
       transform="matrix(1.3333333,0,0,-1.3333333,203.68493,227.09373)" />
    <path
       id="path46"
       d="m 0,0 -3.372,-10.375 h -10.904 l 8.823,-6.411 -3.371,-10.374 8.826,6.41 8.826,-6.41 -3.371,10.376 8.824,6.409 H 3.372 Z"
       style="fill:#ffffff;fill-opacity:1;fill-rule:nonzero;stroke:none"
       transform="matrix(1.3333333,0,0,-1.3333333,285.5808,227.09373)" />
    <path
       id="path47"
       d="m 0,0 -3.372,-10.375 h -10.909 l 8.827,-6.411 -3.37,-10.374 8.826,6.41 8.826,-6.41 -3.371,10.376 8.824,6.409 H 3.372 Z"
       style="fill:#ffffff;fill-opacity:1;fill-rule:nonzero;stroke:none"
       transform="matrix(1.3333333,0,0,-1.3333333,367.48187,227.09373)" />
    <path
       id="path48"
       d="m 0,0 -3.372,-10.375 h -10.909 l 8.827,-6.411 -3.37,-10.374 8.824,6.411 8.824,-6.411 -3.37,10.374 8.827,6.411 H 3.372 Z"
       style="fill:#ffffff;fill-opacity:1;fill-rule:nonzero;stroke:none"
       transform="matrix(1.3333333,0,0,-1.3333333,449.38293,227.09373)" />
    <path
       id="path49"
       d="M 0,0 -3.371,10.375 -6.742,0 h -10.906 l 8.824,-6.41 -3.371,-10.375 8.826,6.41 8.827,-6.41 L 2.086,-6.408 10.91,0 Z"
       style="fill:#ffffff;fill-opacity:1;fill-rule:nonzero;stroke:none"
       transform="matrix(1.3333333,0,0,-1.3333333,85.3256,276.02613)" />
    <path
       id="path50"
       d="M 0,0 -3.371,10.375 -6.742,0 h -10.91 l 8.828,-6.411 -3.371,-10.374 8.826,6.41 8.826,-6.41 L 2.085,-6.409 10.91,0 Z"
       style="fill:#ffffff;fill-opacity:1;fill-rule:nonzero;stroke:none"
       transform="matrix(1.3333333,0,0,-1.3333333,167.22667,276.02613)" />
    <path
       id="path51"
       d="M 0,0 -3.371,10.375 -6.742,0 h -10.91 l 8.828,-6.411 -3.371,-10.374 8.824,6.411 8.824,-6.411 L 2.082,-6.411 10.91,0 Z"
       style="fill:#ffffff;fill-opacity:1;fill-rule:nonzero;stroke:none"
       transform="matrix(1.3333333,0,0,-1.3333333,249.12773,276.02613)" />
    <path
       id="path52"
       d="M 0,0 -3.371,10.375 -6.742,0 h -10.909 l 8.824,-6.409 -3.372,-10.376 8.826,6.41 8.826,-6.41 L 2.083,-6.411 10.91,0 Z"
       style="fill:#ffffff;fill-opacity:1;fill-rule:nonzero;stroke:none"
       transform="matrix(1.3333333,0,0,-1.3333333,331.02867,276.02613)" />
    <path
       id="path53"
       d="M 0,0 -3.37,10.375 -6.741,0 h -10.911 l 8.824,-6.408 -3.371,-10.377 8.826,6.41 8.826,-6.41 L 2.082,-6.41 10.906,0 Z"
       style="fill:#ffffff;fill-opacity:1;fill-rule:nonzero;stroke:none"
       transform="matrix(1.3333333,0,0,-1.3333333,412.92973,276.02613)" />
    <path
       id="path54"
       d="M 0,0 Z M 3.371,4.641 0.001,15.016 -3.37,4.641 H -14.281 L -5.453,-1.773 -8.824,-12.148 0,-5.734 8.824,-12.148 5.453,-1.773 14.281,4.641 Z"
       style="fill:#ffffff;fill-opacity:1;fill-rule:nonzero;stroke:none"
       transform="matrix(1.3333333,0,0,-1.3333333,39.882933,317.31253)" />
    <path
       id="path55"
       d="M 0,0 -3.371,10.375 -6.742,0 h -10.91 l 8.825,-6.412 -3.372,-10.377 8.826,6.413 8.827,-6.413 L 2.083,-6.414 10.911,0 Z"
       style="fill:#ffffff;fill-opacity:1;fill-rule:nonzero;stroke:none"
       transform="matrix(1.3333333,0,0,-1.3333333,126.27867,311.12507)" />
    <path
       id="path56"
       d="M 0,0 -3.371,10.375 -6.742,0 h -10.91 l 8.825,-6.412 -3.372,-10.377 8.826,6.413 8.826,-6.413 L 2.082,-6.414 10.906,0 Z"
       style="fill:#ffffff;fill-opacity:1;fill-rule:nonzero;stroke:none"
       transform="matrix(1.3333333,0,0,-1.3333333,208.17973,311.12507)" />
    <path
       id="path57"
       d="M 0,0 -3.371,10.375 -6.742,0 h -10.905 l 8.824,-6.414 -3.372,-10.375 8.826,6.413 8.826,-6.413 L 2.085,-6.412 10.91,0 Z"
       style="fill:#ffffff;fill-opacity:1;fill-rule:nonzero;stroke:none"
       transform="matrix(1.3333333,0,0,-1.3333333,290.0756,311.12507)" />
    <path
       id="path58"
       d="M 0,0 -3.371,10.375 -6.742,0 h -10.91 l 8.828,-6.414 -3.371,-10.375 8.826,6.413 8.826,-6.413 L 2.085,-6.412 10.91,0 Z"
       style="fill:#ffffff;fill-opacity:1;fill-rule:nonzero;stroke:none"
       transform="matrix(1.3333333,0,0,-1.3333333,371.97667,311.12507)" />
    <path
       id="path59"
       d="M 0,0 Z M 3.371,4.641 0,15.016 -3.371,4.641 h -10.91 L -5.453,-1.773 -8.824,-12.148 0,-5.734 8.824,-12.148 5.453,-1.773 14.281,4.641 Z"
       style="fill:#ffffff;fill-opacity:1;fill-rule:nonzero;stroke:none"
       transform="matrix(1.3333333,0,0,-1.3333333,449.38293,317.31253)" />
  </g>
</svg>
