<svg height="650" viewBox="0 0 974.11731 650" width="974.11731" xmlns="http://www.w3.org/2000/svg"><g transform="matrix(1.3333333 0 0 -1.3333333 0 650)"><path d="m0 0h730.588v487.5h-730.588z" fill="#fff"/><path d="m0 450h730.588v37.5h-730.588z" fill="#b22234"/><path d="m0 375h730.588v37.499h-730.588z" fill="#b22234"/><path d="m0 300h730.588v37.5h-730.588z" fill="#b22234"/><path d="m0 225h730.588v37.5h-730.588z" fill="#b22234"/><path d="m0 150h730.588v37.499h-730.588z" fill="#b22234"/><path d="m0 75h730.588v37.5h-730.588z" fill="#b22234"/><path d="m0 0h730.588v37.5h-730.588z" fill="#b22234"/><path d="m0 225h365.625v262.5h-365.625z" fill="#3c3b6e"/></g><g fill="#fff"><path d="m0 0-3.372-10.375h-10.91l8.828-6.414-3.371-10.375 8.824 6.414 8.824-6.414-3.371 10.375 8.828 6.414h-10.91z" transform="matrix(1.3333333 0 0 -1.3333333 39.884133 16.4896)"/><path d="m0 0-3.371-10.375h-10.91l8.825-6.412-3.372-10.377 8.826 6.413 8.827-6.413-3.371 10.375 8.828 6.414h-10.911z" transform="matrix(1.3333333 0 0 -1.3333333 121.784 16.4896)"/><path d="m0 0-3.371-10.375h-10.91l8.825-6.412-3.372-10.377 8.826 6.413 8.826-6.413-3.371 10.375 8.824 6.414h-10.906z" transform="matrix(1.3333333 0 0 -1.3333333 203.68493 16.4896)"/><path d="m0 0-3.371-10.375h-10.905l8.823-6.414-3.371-10.375 8.826 6.413 8.826-6.413-3.372 10.377 8.825 6.412h-10.91z" transform="matrix(1.3333333 0 0 -1.3333333 285.5808 16.4896)"/><path d="m0 0-3.371-10.375h-10.91l8.828-6.414-3.371-10.375 8.826 6.413 8.826-6.413-3.371 10.377 8.824 6.412h-10.909z" transform="matrix(1.3333333 0 0 -1.3333333 367.48187 16.4896)"/><path d="m0 0-3.371-10.375 8.824 6.414 8.824-6.414-3.371 10.375 8.828 6.414h-10.91l-3.371 10.375-3.371-10.375h-10.91z" transform="matrix(1.3333333 0 0 -1.3333333 442.112 38.875067)"/><path d="m0 0-3.372-10.375h-10.905l8.824-6.41-3.371-10.375 8.826 6.41 8.827-6.41-3.372 10.376 8.824 6.409h-10.909z" transform="matrix(1.3333333 0 0 -1.3333333 80.8308 51.593733)"/><path d="m0 0-3.372-10.375h-10.909l8.828-6.412-3.371-10.373 8.826 6.41 8.826-6.41-3.371 10.376 8.824 6.409h-10.909z" transform="matrix(1.3333333 0 0 -1.3333333 162.73187 51.593733)"/><path d="m0 0-3.372-10.375h-10.909l8.828-6.412-3.371-10.373 8.824 6.411 8.824-6.411-3.371 10.373 8.828 6.412h-10.909z" transform="matrix(1.3333333 0 0 -1.3333333 244.63293 51.593733)"/><path d="m0 0-3.372-10.375h-10.908l8.824-6.409-3.372-10.376 8.826 6.41 8.826-6.41-3.37 10.373 8.827 6.412h-10.909z" transform="matrix(1.3333333 0 0 -1.3333333 326.534 51.593733)"/><path d="m0 0-3.373-10.375h-10.909l8.824-6.409-3.371-10.376 8.826 6.41 8.826-6.41-3.371 10.375 8.824 6.41h-10.905z" transform="matrix(1.3333333 0 0 -1.3333333 408.43627 51.593733)"/><path d="m0 0-3.371-10.375h-10.911l8.827-6.411-3.37-10.374 8.824 6.411 8.824-6.411-3.37 10.374 8.827 6.411h-10.91z" transform="matrix(1.3333333 0 0 -1.3333333 39.884133 86.6928)"/><path d="m0 0-3.371-10.375h-10.91l8.824-6.409-3.371-10.376 8.826 6.41 8.827-6.41-3.371 10.374 8.828 6.411h-10.911z" transform="matrix(1.3333333 0 0 -1.3333333 121.784 86.6928)"/><path d="m0 0-3.371-10.375h-10.91l8.824-6.409-3.371-10.376 8.826 6.41 8.826-6.41-3.371 10.374 8.824 6.411h-10.906z" transform="matrix(1.3333333 0 0 -1.3333333 203.68493 86.6928)"/><path d="m0 0-3.371-10.375h-10.905l8.823-6.41-3.371-10.375 8.826 6.41 8.826-6.41-3.371 10.376 8.824 6.409h-10.91z" transform="matrix(1.3333333 0 0 -1.3333333 285.5808 86.6928)"/><path d="m0 0-3.371-10.375h-10.91l8.827-6.411-3.37-10.374 8.826 6.41 8.826-6.41-3.371 10.376 8.824 6.409h-10.91z" transform="matrix(1.3333333 0 0 -1.3333333 367.48187 86.6928)"/><path d="m0 0-3.371-10.375h-10.91l8.827-6.411-3.37-10.374 8.824 6.411 8.824-6.411-3.37 10.374 8.827 6.411h-10.91z" transform="matrix(1.3333333 0 0 -1.3333333 449.38293 86.6928)"/><path d="m0 0-3.371-10.375h-10.906l8.824-6.413-3.371-10.376 8.826 6.413 8.827-6.413-3.372 10.377 8.824 6.412h-10.91z" transform="matrix(1.3333333 0 0 -1.3333333 80.8308 121.79173)"/><path d="m0 0-3.371-10.375h-10.91l8.828-6.414-3.371-10.375 8.826 6.413 8.826-6.413-3.372 10.377 8.825 6.412h-10.91z" transform="matrix(1.3333333 0 0 -1.3333333 162.73187 121.79173)"/><path d="m0 0-3.371-10.375h-10.91l8.828-6.414-3.371-10.375 8.824 6.414 8.824-6.414-3.371 10.375 8.828 6.414h-10.91z" transform="matrix(1.3333333 0 0 -1.3333333 244.63293 121.79173)"/><path d="m0 0-3.371-10.375h-10.909l8.824-6.412-3.372-10.377 8.826 6.413 8.826-6.413-3.371 10.375 8.828 6.414h-10.91z" transform="matrix(1.3333333 0 0 -1.3333333 326.534 121.79173)"/><path d="m0 0-3.371-10.375h-10.911l8.825-6.411-3.372-10.378 8.826 6.413 8.826-6.413-3.371 10.376 8.824 6.413h-10.906z" transform="matrix(1.3333333 0 0 -1.3333333 408.43627 121.79173)"/><path d="m0 0-3.371-10.375h-10.911l8.828-6.414-3.371-10.374 8.824 6.413 8.824-6.413-3.371 10.374 8.828 6.414h-10.91z" transform="matrix(1.3333333 0 0 -1.3333333 39.884133 156.89067)"/><path d="m0 0-3.371-10.375h-10.91l8.825-6.412-3.372-10.376 8.826 6.412 8.827-6.412-3.371 10.374 8.828 6.414h-10.911z" transform="matrix(1.3333333 0 0 -1.3333333 121.784 156.89067)"/><path d="m0 0-3.371-10.375h-10.91l8.825-6.412-3.372-10.376 8.826 6.413 8.826-6.413-3.371 10.374 8.824 6.414h-10.906z" transform="matrix(1.3333333 0 0 -1.3333333 203.68493 156.89067)"/><path d="m0 0-3.371-10.375h-10.905l8.823-6.414-3.371-10.374 8.826 6.413 8.826-6.413-3.372 10.376 8.825 6.412h-10.91z" transform="matrix(1.3333333 0 0 -1.3333333 285.5808 156.89067)"/><path d="m0 0-3.371-10.375h-10.91l8.828-6.414-3.371-10.374 8.826 6.412 8.826-6.412-3.371 10.376 8.824 6.412h-10.91z" transform="matrix(1.3333333 0 0 -1.3333333 367.48187 156.89067)"/><path d="m0 0-3.371-10.375h-10.91l8.828-6.414-3.371-10.374 8.824 6.413 8.824-6.413-3.371 10.374 8.828 6.414h-10.91z" transform="matrix(1.3333333 0 0 -1.3333333 449.38293 156.89067)"/><path d="m0 0-3.371-10.375h-10.906l8.824-6.414-3.371-10.375 8.826 6.413 8.827-6.413-3.372 10.377 8.824 6.412h-10.91z" transform="matrix(1.3333333 0 0 -1.3333333 80.8308 191.9896)"/><path d="m0 0-3.371-10.375h-10.91l8.828-6.415-3.371-10.374 8.826 6.413 8.826-6.413-3.372 10.377 8.825 6.412h-10.91z" transform="matrix(1.3333333 0 0 -1.3333333 162.73187 191.9896)"/><path d="m0 0-3.371-10.375h-10.91l8.828-6.415-3.371-10.374 8.824 6.414 8.824-6.414-3.371 10.374 8.828 6.415h-10.91z" transform="matrix(1.3333333 0 0 -1.3333333 244.63293 191.9896)"/><path d="m0 0-3.371-10.375h-10.909l8.824-6.412-3.372-10.377 8.826 6.413 8.826-6.413-3.371 10.374 8.828 6.415h-10.91z" transform="matrix(1.3333333 0 0 -1.3333333 326.534 191.9896)"/><path d="m0 0-3.372-10.375h-10.91l8.824-6.412-3.371-10.377 8.826 6.413 8.826-6.413-3.371 10.375 8.824 6.414h-10.906z" transform="matrix(1.3333333 0 0 -1.3333333 408.43627 191.9896)"/><path d="m0 0-3.372-10.375h-10.91l8.827-6.411-3.37-10.374 8.824 6.411 8.824-6.411-3.37 10.374 8.827 6.411h-10.909z" transform="matrix(1.3333333 0 0 -1.3333333 39.884133 227.09373)"/><path d="m0 0-3.372-10.375h-10.909l8.824-6.409-3.371-10.376 8.826 6.41 8.827-6.41-3.371 10.374 8.828 6.411h-10.91z" transform="matrix(1.3333333 0 0 -1.3333333 121.784 227.09373)"/><path d="m0 0-3.372-10.375h-10.909l8.824-6.409-3.371-10.376 8.826 6.41 8.826-6.41-3.371 10.374 8.824 6.411h-10.905z" transform="matrix(1.3333333 0 0 -1.3333333 203.68493 227.09373)"/><path d="m0 0-3.372-10.375h-10.904l8.823-6.411-3.371-10.374 8.826 6.41 8.826-6.41-3.371 10.376 8.824 6.409h-10.909z" transform="matrix(1.3333333 0 0 -1.3333333 285.5808 227.09373)"/><path d="m0 0-3.372-10.375h-10.909l8.827-6.411-3.37-10.374 8.826 6.41 8.826-6.41-3.371 10.376 8.824 6.409h-10.909z" transform="matrix(1.3333333 0 0 -1.3333333 367.48187 227.09373)"/><path d="m0 0-3.372-10.375h-10.909l8.827-6.411-3.37-10.374 8.824 6.411 8.824-6.411-3.37 10.374 8.827 6.411h-10.909z" transform="matrix(1.3333333 0 0 -1.3333333 449.38293 227.09373)"/><path d="m0 0-3.371 10.375-3.371-10.375h-10.906l8.824-6.41-3.371-10.375 8.826 6.41 8.827-6.41-3.372 10.377 8.824 6.408z" transform="matrix(1.3333333 0 0 -1.3333333 85.3256 276.02613)"/><path d="m0 0-3.371 10.375-3.371-10.375h-10.91l8.828-6.411-3.371-10.374 8.826 6.41 8.826-6.41-3.372 10.376 8.825 6.409z" transform="matrix(1.3333333 0 0 -1.3333333 167.22667 276.02613)"/><path d="m0 0-3.371 10.375-3.371-10.375h-10.91l8.828-6.411-3.371-10.374 8.824 6.411 8.824-6.411-3.371 10.374 8.828 6.411z" transform="matrix(1.3333333 0 0 -1.3333333 249.12773 276.02613)"/><path d="m0 0-3.371 10.375-3.371-10.375h-10.909l8.824-6.409-3.372-10.376 8.826 6.41 8.826-6.41-3.37 10.374 8.827 6.411z" transform="matrix(1.3333333 0 0 -1.3333333 331.02867 276.02613)"/><path d="m0 0-3.37 10.375-3.371-10.375h-10.911l8.824-6.408-3.371-10.377 8.826 6.41 8.826-6.41-3.371 10.375 8.824 6.41z" transform="matrix(1.3333333 0 0 -1.3333333 412.92973 276.02613)"/><path d="m3.371 4.641-3.37 10.375-3.371-10.375h-10.911l8.828-6.414-3.371-10.375 8.824 6.414 8.824-6.414-3.371 10.375 8.828 6.414z" transform="matrix(1.3333333 0 0 -1.3333333 39.882933 317.31253)"/><path d="m0 0-3.371 10.375-3.371-10.375h-10.91l8.825-6.412-3.372-10.377 8.826 6.413 8.827-6.413-3.371 10.375 8.828 6.414z" transform="matrix(1.3333333 0 0 -1.3333333 126.27867 311.12507)"/><path d="m0 0-3.371 10.375-3.371-10.375h-10.91l8.825-6.412-3.372-10.377 8.826 6.413 8.826-6.413-3.371 10.375 8.824 6.414z" transform="matrix(1.3333333 0 0 -1.3333333 208.17973 311.12507)"/><path d="m0 0-3.371 10.375-3.371-10.375h-10.905l8.824-6.414-3.372-10.375 8.826 6.413 8.826-6.413-3.372 10.377 8.825 6.412z" transform="matrix(1.3333333 0 0 -1.3333333 290.0756 311.12507)"/><path d="m0 0-3.371 10.375-3.371-10.375h-10.91l8.828-6.414-3.371-10.375 8.826 6.413 8.826-6.413-3.372 10.377 8.825 6.412z" transform="matrix(1.3333333 0 0 -1.3333333 371.97667 311.12507)"/><path d="m3.371 4.641-3.371 10.375-3.371-10.375h-10.91l8.828-6.414-3.371-10.375 8.824 6.414 8.824-6.414-3.371 10.375 8.828 6.414z" transform="matrix(1.3333333 0 0 -1.3333333 449.38293 317.31253)"/></g></svg>