<svg height="250" viewBox="0 0 373.89734 250" width="373.89734" xmlns="http://www.w3.org/2000/svg" xmlns:xlink="http://www.w3.org/1999/xlink"><clipPath id="a"><path d="m0 187.5h280.423v-187.5h-280.423z" transform="translate(-75.000002 -157.5)"/></clipPath><clipPath id="b"><path d="m0 187.5h280.423v-187.5h-280.423z" transform="translate(-82.500002 -157.5)"/></clipPath><clipPath id="c"><path d="m0 187.5h280.423v-187.5h-280.423z" transform="translate(-66.000002 -144)"/></clipPath><clipPath id="d"><path d="m0 187.5h280.423v-187.5h-280.423z" transform="translate(-66.000002 -144)"/></clipPath><clipPath id="e"><path d="m0 187.5h280.423v-187.5h-280.423z" transform="translate(-70.280802 -140.8911)"/></clipPath><clipPath id="f"><path d="m0 187.5h280.423v-187.5h-280.423z" transform="translate(-70.280802 -140.8911)"/></clipPath><clipPath id="g"><path d="m0 187.5h280.423v-187.5h-280.423z" transform="translate(-68.645002 -135.8589)"/></clipPath><clipPath id="h"><path d="m0 187.5h280.423v-187.5h-280.423z" transform="translate(-68.645002 -135.8589)"/></clipPath><clipPath id="i"><path d="m0 187.5h280.423v-187.5h-280.423z" transform="translate(-63.355001 -135.8589)"/></clipPath><clipPath id="j"><path d="m0 187.5h280.423v-187.5h-280.423z" transform="translate(-63.355001 -135.8589)"/></clipPath><clipPath id="k"><path d="m0 187.5h280.423v-187.5h-280.423z" transform="translate(-61.718801 -140.8911)"/></clipPath><clipPath id="l"><path d="m0 187.5h280.423v-187.5h-280.423z" transform="translate(-61.718801 -140.8911)"/></clipPath><clipPath id="m"><path d="m0 187.5h280.423v-187.5h-280.423z" transform="translate(-84.000002 -144)"/></clipPath><clipPath id="n"><path d="m0 187.5h280.423v-187.5h-280.423z" transform="translate(-84.000002 -144)"/></clipPath><clipPath id="o"><path d="m0 187.5h280.423v-187.5h-280.423z" transform="translate(-88.2808 -140.8911)"/></clipPath><clipPath id="p"><path d="m0 187.5h280.423v-187.5h-280.423z" transform="translate(-88.2808 -140.8911)"/></clipPath><clipPath id="q"><path d="m0 187.5h280.423v-187.5h-280.423z" transform="translate(-86.645005 -135.8589)"/></clipPath><clipPath id="r"><path d="m0 187.5h280.423v-187.5h-280.423z" transform="translate(-86.645005 -135.8589)"/></clipPath><clipPath id="s"><path d="m0 187.5h280.423v-187.5h-280.423z" transform="translate(-81.355 -135.8589)"/></clipPath><clipPath id="t"><path d="m0 187.5h280.423v-187.5h-280.423z" transform="translate(-81.355 -135.8589)"/></clipPath><clipPath id="u"><path d="m0 187.5h280.423v-187.5h-280.423z" transform="translate(-79.718799 -140.8911)"/></clipPath><clipPath id="v"><path d="m0 187.5h280.423v-187.5h-280.423z" transform="translate(-79.718799 -140.8911)"/></clipPath><clipPath id="w"><path d="m0 187.5h280.423v-187.5h-280.423z" transform="translate(-102 -144)"/></clipPath><clipPath id="x"><path d="m0 187.5h280.423v-187.5h-280.423z" transform="translate(-102 -144)"/></clipPath><clipPath id="y"><path d="m0 187.5h280.423v-187.5h-280.423z" transform="translate(-106.2808 -140.8911)"/></clipPath><clipPath id="z"><path d="m0 187.5h280.423v-187.5h-280.423z" transform="translate(-106.2808 -140.8911)"/></clipPath><clipPath id="A"><path d="m0 187.5h280.423v-187.5h-280.423z" transform="translate(-104.64501 -135.8589)"/></clipPath><clipPath id="B"><path d="m0 187.5h280.423v-187.5h-280.423z" transform="translate(-104.64501 -135.8589)"/></clipPath><clipPath id="C"><path d="m0 187.5h280.423v-187.5h-280.423z" transform="translate(-99.355 -135.8589)"/></clipPath><clipPath id="D"><path d="m0 187.5h280.423v-187.5h-280.423z" transform="translate(-99.355 -135.8589)"/></clipPath><clipPath id="E"><path d="m0 187.5h280.423v-187.5h-280.423z" transform="translate(-97.7188 -140.8911)"/></clipPath><clipPath id="F"><path d="m0 187.5h280.423v-187.5h-280.423z" transform="translate(-97.7188 -140.8911)"/></clipPath><clipPath id="G"><path d="m0 187.5h280.423v-187.5h-280.423z" transform="translate(-120 -144)"/></clipPath><clipPath id="H"><path d="m0 187.5h280.423v-187.5h-280.423z" transform="translate(-120 -144)"/></clipPath><clipPath id="I"><path d="m0 187.5h280.423v-187.5h-280.423z" transform="translate(-124.2808 -140.8911)"/></clipPath><clipPath id="J"><path d="m0 187.5h280.423v-187.5h-280.423z" transform="translate(-124.2808 -140.8911)"/></clipPath><clipPath id="K"><path d="m0 187.5h280.423v-187.5h-280.423z" transform="translate(-122.64501 -135.8589)"/></clipPath><clipPath id="L"><path d="m0 187.5h280.423v-187.5h-280.423z" transform="translate(-122.64501 -135.8589)"/></clipPath><clipPath id="M"><path d="m0 187.5h280.423v-187.5h-280.423z" transform="translate(-117.355 -135.8589)"/></clipPath><clipPath id="N"><path d="m0 187.5h280.423v-187.5h-280.423z" transform="translate(-117.355 -135.8589)"/></clipPath><clipPath id="O"><path d="m0 187.5h280.423v-187.5h-280.423z" transform="translate(-115.7188 -140.8911)"/></clipPath><clipPath id="P"><path d="m0 187.5h280.423v-187.5h-280.423z" transform="translate(-115.7188 -140.8911)"/></clipPath><clipPath id="Q"><path d="m0 187.5h280.423v-187.5h-280.423z" transform="translate(-138 -144)"/></clipPath><clipPath id="R"><path d="m0 187.5h280.423v-187.5h-280.423z" transform="translate(-138 -144)"/></clipPath><clipPath id="S"><path d="m0 187.5h280.423v-187.5h-280.423z" transform="translate(-142.28121 -140.8911)"/></clipPath><clipPath id="T"><path d="m0 187.5h280.423v-187.5h-280.423z" transform="translate(-142.28121 -140.8911)"/></clipPath><clipPath id="U"><path d="m0 187.5h280.423v-187.5h-280.423z" transform="translate(-140.64501 -135.8589)"/></clipPath><clipPath id="V"><path d="m0 187.5h280.423v-187.5h-280.423z" transform="translate(-140.64501 -135.8589)"/></clipPath><clipPath id="W"><path d="m0 187.5h280.423v-187.5h-280.423z" transform="translate(-135.355 -135.8589)"/></clipPath><clipPath id="X"><path d="m0 187.5h280.423v-187.5h-280.423z" transform="translate(-135.355 -135.8589)"/></clipPath><clipPath id="Y"><path d="m0 187.5h280.423v-187.5h-280.423z" transform="translate(-133.7187 -140.8911)"/></clipPath><clipPath id="Z"><path d="m0 187.5h280.423v-187.5h-280.423z" transform="translate(-133.7187 -140.8911)"/></clipPath><clipPath id="aa"><path d="m0 187.5h280.423v-187.5h-280.423z" transform="translate(-84.000002 -162)"/></clipPath><clipPath id="ab"><path d="m0 187.5h280.423v-187.5h-280.423z" transform="translate(-84.000002 -162)"/></clipPath><clipPath id="ac"><path d="m0 187.5h280.423v-187.5h-280.423z" transform="translate(-88.2808 -158.8911)"/></clipPath><clipPath id="ad"><path d="m0 187.5h280.423v-187.5h-280.423z" transform="translate(-88.2808 -158.8911)"/></clipPath><clipPath id="ae"><path d="m0 187.5h280.423v-187.5h-280.423z" transform="translate(-86.645005 -153.8589)"/></clipPath><clipPath id="af"><path d="m0 187.5h280.423v-187.5h-280.423z" transform="translate(-86.645005 -153.8589)"/></clipPath><clipPath id="ag"><path d="m0 187.5h280.423v-187.5h-280.423z" transform="translate(-81.355 -153.8589)"/></clipPath><clipPath id="ah"><path d="m0 187.5h280.423v-187.5h-280.423z" transform="translate(-81.355 -153.8589)"/></clipPath><clipPath id="ai"><path d="m0 187.5h280.423v-187.5h-280.423z" transform="translate(-79.718799 -158.8911)"/></clipPath><clipPath id="aj"><path d="m0 187.5h280.423v-187.5h-280.423z" transform="translate(-79.718799 -158.8911)"/></clipPath><clipPath id="ak"><path d="m0 187.5h280.423v-187.5h-280.423z" transform="translate(-102 -162)"/></clipPath><clipPath id="al"><path d="m0 187.5h280.423v-187.5h-280.423z" transform="translate(-102 -162)"/></clipPath><clipPath id="am"><path d="m0 187.5h280.423v-187.5h-280.423z" transform="translate(-106.2808 -158.8911)"/></clipPath><clipPath id="an"><path d="m0 187.5h280.423v-187.5h-280.423z" transform="translate(-106.2808 -158.8911)"/></clipPath><clipPath id="ao"><path d="m0 187.5h280.423v-187.5h-280.423z" transform="translate(-104.64501 -153.8589)"/></clipPath><clipPath id="ap"><path d="m0 187.5h280.423v-187.5h-280.423z" transform="translate(-104.64501 -153.8589)"/></clipPath><clipPath id="aq"><path d="m0 187.5h280.423v-187.5h-280.423z" transform="translate(-99.355 -153.8589)"/></clipPath><clipPath id="ar"><path d="m0 187.5h280.423v-187.5h-280.423z" transform="translate(-99.355 -153.8589)"/></clipPath><clipPath id="as"><path d="m0 187.5h280.423v-187.5h-280.423z" transform="translate(-97.7188 -158.8911)"/></clipPath><clipPath id="at"><path d="m0 187.5h280.423v-187.5h-280.423z" transform="translate(-97.7188 -158.8911)"/></clipPath><clipPath id="au"><path d="m0 187.5h280.423v-187.5h-280.423z" transform="translate(-120 -162)"/></clipPath><clipPath id="av"><path d="m0 187.5h280.423v-187.5h-280.423z" transform="translate(-120 -162)"/></clipPath><clipPath id="aw"><path d="m0 187.5h280.423v-187.5h-280.423z" transform="translate(-124.2808 -158.8911)"/></clipPath><clipPath id="ax"><path d="m0 187.5h280.423v-187.5h-280.423z" transform="translate(-124.2808 -158.8911)"/></clipPath><clipPath id="ay"><path d="m0 187.5h280.423v-187.5h-280.423z" transform="translate(-122.64501 -153.8589)"/></clipPath><clipPath id="az"><path d="m0 187.5h280.423v-187.5h-280.423z" transform="translate(-122.64501 -153.8589)"/></clipPath><clipPath id="aA"><path d="m0 187.5h280.423v-187.5h-280.423z" transform="translate(-117.355 -153.8589)"/></clipPath><clipPath id="aB"><path d="m0 187.5h280.423v-187.5h-280.423z" transform="translate(-117.355 -153.8589)"/></clipPath><clipPath id="aC"><path d="m0 187.5h280.423v-187.5h-280.423z" transform="translate(-115.7188 -158.8911)"/></clipPath><clipPath id="aD"><path d="m0 187.5h280.423v-187.5h-280.423z" transform="translate(-115.7188 -158.8911)"/></clipPath><clipPath id="aE"><path d="m0 187.5h280.423v-187.5h-280.423z" transform="translate(-138 -162)"/></clipPath><clipPath id="aF"><path d="m0 187.5h280.423v-187.5h-280.423z" transform="translate(-138 -162)"/></clipPath><clipPath id="aG"><path d="m0 187.5h280.423v-187.5h-280.423z" transform="translate(-142.28121 -158.8911)"/></clipPath><clipPath id="aH"><path d="m0 187.5h280.423v-187.5h-280.423z" transform="translate(-142.28121 -158.8911)"/></clipPath><clipPath id="aI"><path d="m0 187.5h280.423v-187.5h-280.423z" transform="translate(-140.64501 -153.8589)"/></clipPath><clipPath id="aJ"><path d="m0 187.5h280.423v-187.5h-280.423z" transform="translate(-140.64501 -153.8589)"/></clipPath><clipPath id="aK"><path d="m0 187.5h280.423v-187.5h-280.423z" transform="translate(-135.355 -153.8589)"/></clipPath><clipPath id="aL"><path d="m0 187.5h280.423v-187.5h-280.423z" transform="translate(-135.355 -153.8589)"/></clipPath><clipPath id="aM"><path d="m0 187.5h280.423v-187.5h-280.423z" transform="translate(-133.7187 -158.8911)"/></clipPath><clipPath id="aN"><path d="m0 187.5h280.423v-187.5h-280.423z" transform="translate(-133.7187 -158.8911)"/></clipPath><clipPath id="aO"><path d="m0 187.5h280.423v-187.5h-280.423z" transform="translate(-102 -180)"/></clipPath><clipPath id="aP"><path d="m0 187.5h280.423v-187.5h-280.423z" transform="translate(-102 -180)"/></clipPath><clipPath id="aQ"><path d="m0 187.5h280.423v-187.5h-280.423z" transform="translate(-106.2808 -176.8911)"/></clipPath><clipPath id="aR"><path d="m0 187.5h280.423v-187.5h-280.423z" transform="translate(-106.2808 -176.8911)"/></clipPath><clipPath id="aS"><path d="m0 187.5h280.423v-187.5h-280.423z" transform="translate(-104.64501 -171.8589)"/></clipPath><clipPath id="aT"><path d="m0 187.5h280.423v-187.5h-280.423z" transform="translate(-104.64501 -171.8589)"/></clipPath><clipPath id="aU"><path d="m0 187.5h280.423v-187.5h-280.423z" transform="translate(-99.355 -171.8589)"/></clipPath><clipPath id="aV"><path d="m0 187.5h280.423v-187.5h-280.423z" transform="translate(-99.355 -171.8589)"/></clipPath><clipPath id="aW"><path d="m0 187.5h280.423v-187.5h-280.423z" transform="translate(-97.7188 -176.8911)"/></clipPath><clipPath id="aX"><path d="m0 187.5h280.423v-187.5h-280.423z" transform="translate(-97.7188 -176.8911)"/></clipPath><clipPath id="aY"><path d="m0 187.5h280.423v-187.5h-280.423z" transform="translate(-120 -180)"/></clipPath><clipPath id="aZ"><path d="m0 187.5h280.423v-187.5h-280.423z" transform="translate(-120 -180)"/></clipPath><clipPath id="a0"><path d="m0 187.5h280.423v-187.5h-280.423z" transform="translate(-124.2808 -176.8911)"/></clipPath><clipPath id="a1"><path d="m0 187.5h280.423v-187.5h-280.423z" transform="translate(-124.2808 -176.8911)"/></clipPath><clipPath id="a2"><path d="m0 187.5h280.423v-187.5h-280.423z" transform="translate(-122.64501 -171.8589)"/></clipPath><clipPath id="a3"><path d="m0 187.5h280.423v-187.5h-280.423z" transform="translate(-122.64501 -171.8589)"/></clipPath><clipPath id="a4"><path d="m0 187.5h280.423v-187.5h-280.423z" transform="translate(-117.355 -171.8589)"/></clipPath><clipPath id="a5"><path d="m0 187.5h280.423v-187.5h-280.423z" transform="translate(-117.355 -171.8589)"/></clipPath><clipPath id="a6"><path d="m0 187.5h280.423v-187.5h-280.423z" transform="translate(-115.7188 -176.8911)"/></clipPath><clipPath id="a7"><path d="m0 187.5h280.423v-187.5h-280.423z" transform="translate(-115.7188 -176.8911)"/></clipPath><clipPath id="a8"><path d="m0 187.5h280.423v-187.5h-280.423z" transform="translate(-138 -180)"/></clipPath><clipPath id="a9"><path d="m0 187.5h280.423v-187.5h-280.423z" transform="translate(-138 -180)"/></clipPath><clipPath id="ba"><path d="m0 187.5h280.423v-187.5h-280.423z" transform="translate(-142.28121 -176.8911)"/></clipPath><clipPath id="bb"><path d="m0 187.5h280.423v-187.5h-280.423z" transform="translate(-142.28121 -176.8911)"/></clipPath><clipPath id="bc"><path d="m0 187.5h280.423v-187.5h-280.423z" transform="translate(-140.64501 -171.8589)"/></clipPath><clipPath id="bd"><path d="m0 187.5h280.423v-187.5h-280.423z" transform="translate(-140.64501 -171.8589)"/></clipPath><clipPath id="be"><path d="m0 187.5h280.423v-187.5h-280.423z" transform="translate(-135.355 -171.8589)"/></clipPath><clipPath id="bf"><path d="m0 187.5h280.423v-187.5h-280.423z" transform="translate(-135.355 -171.8589)"/></clipPath><clipPath id="bg"><path d="m0 187.5h280.423v-187.5h-280.423z" transform="translate(-133.7187 -176.8911)"/></clipPath><clipPath id="bh"><path d="m0 187.5h280.423v-187.5h-280.423z" transform="translate(-133.7187 -176.8911)"/></clipPath><g transform="matrix(1.3333333 0 0 -1.3333333 0 250)"><path d="m0 127.5h280.424v59.999h-280.424z" fill="#0099b5"/><path d="m0 60h280.424v67.5h-280.424z" fill="#ce1126"/><path d="m0 63.75h280.424v60h-280.424z" fill="#fff"/><path d="m0 0h280.424v60h-280.424z" fill="#1eb53a"/></g><path clip-path="url(#a)" d="m0 0c0-12.426-10.074-22.5-22.5-22.5s-22.5 10.074-22.5 22.5 10.074 22.5 22.5 22.5 22.5-10.074 22.5-22.5" fill="#fff" transform="matrix(1.3333333 0 0 -1.3333333 100 40)"/><path clip-path="url(#b)" d="m0 0c0-12.426-10.074-22.5-22.5-22.5s-22.5 10.074-22.5 22.5 10.074 22.5 22.5 22.5 22.5-10.074 22.5-22.5" fill="#0099b5" transform="matrix(1.3333333 0 0 -1.3333333 110 40)"/><g fill="#fff"><path clip-path="url(#c)" d="m0 0-1.391-4.281 2.141-.696" transform="matrix(1.3333333 0 0 -1.3333333 88 58)"/><path clip-path="url(#d)" d="m0 0 1.391-4.281-2.141-.696" transform="matrix(1.3333333 0 0 -1.3333333 88 58)"/><path clip-path="url(#e)" d="m0 0h-4.5v-2.25" transform="matrix(1.3333333 0 0 -1.3333333 93.707733 62.1452)"/><path clip-path="url(#f)" d="m0 0-3.64-2.645-1.325 1.82" transform="matrix(1.3333333 0 0 -1.3333333 93.707733 62.1452)"/><path clip-path="url(#g)" d="m0 0-1.391 4.282-2.141-.696" transform="matrix(1.3333333 0 0 -1.3333333 91.526667 68.8548)"/><path clip-path="url(#h)" d="m0 0-3.641 2.645 1.324 1.82" transform="matrix(1.3333333 0 0 -1.3333333 91.526667 68.8548)"/><path clip-path="url(#i)" d="m0 0 3.641 2.645-1.324 1.82" transform="matrix(1.3333333 0 0 -1.3333333 84.473333 68.8548)"/><path clip-path="url(#j)" d="m0 0 1.391 4.282 2.141-.696" transform="matrix(1.3333333 0 0 -1.3333333 84.473333 68.8548)"/><path clip-path="url(#k)" d="m0 0 3.64-2.645 1.325 1.82" transform="matrix(1.3333333 0 0 -1.3333333 82.291733 62.1452)"/><path clip-path="url(#l)" d="m0 0h4.5v-2.25" transform="matrix(1.3333333 0 0 -1.3333333 82.291733 62.1452)"/><path clip-path="url(#m)" d="m0 0-1.391-4.281 2.141-.696" transform="matrix(1.3333333 0 0 -1.3333333 112 58)"/><path clip-path="url(#n)" d="m0 0 1.391-4.281-2.141-.696" transform="matrix(1.3333333 0 0 -1.3333333 112 58)"/><path clip-path="url(#o)" d="m0 0h-4.5v-2.25" transform="matrix(1.3333333 0 0 -1.3333333 117.70773 62.1452)"/><path clip-path="url(#p)" d="m0 0-3.64-2.645-1.325 1.82" transform="matrix(1.3333333 0 0 -1.3333333 117.70773 62.1452)"/><path clip-path="url(#q)" d="m0 0-1.391 4.282-2.141-.696" transform="matrix(1.3333333 0 0 -1.3333333 115.52667 68.8548)"/><path clip-path="url(#r)" d="m0 0-3.641 2.645 1.324 1.82" transform="matrix(1.3333333 0 0 -1.3333333 115.52667 68.8548)"/><path clip-path="url(#s)" d="m0 0 3.641 2.645-1.324 1.82" transform="matrix(1.3333333 0 0 -1.3333333 108.47333 68.8548)"/><path clip-path="url(#t)" d="m0 0 1.391 4.282 2.141-.696" transform="matrix(1.3333333 0 0 -1.3333333 108.47333 68.8548)"/><path clip-path="url(#u)" d="m0 0 3.64-2.645 1.325 1.82" transform="matrix(1.3333333 0 0 -1.3333333 106.29173 62.1452)"/><path clip-path="url(#v)" d="m0 0h4.5v-2.25" transform="matrix(1.3333333 0 0 -1.3333333 106.29173 62.1452)"/><path clip-path="url(#w)" d="m0 0-1.391-4.281 2.141-.696" transform="matrix(1.3333333 0 0 -1.3333333 136 58)"/><path clip-path="url(#x)" d="m0 0 1.391-4.281-2.141-.696" transform="matrix(1.3333333 0 0 -1.3333333 136 58)"/><path clip-path="url(#y)" d="m0 0h-4.5v-2.25" transform="matrix(1.3333333 0 0 -1.3333333 141.70773 62.1452)"/><path clip-path="url(#z)" d="m0 0-3.64-2.645-1.325 1.82" transform="matrix(1.3333333 0 0 -1.3333333 141.70773 62.1452)"/><path clip-path="url(#A)" d="m0 0-1.391 4.282-2.141-.696" transform="matrix(1.3333333 0 0 -1.3333333 139.52667 68.8548)"/><path clip-path="url(#B)" d="m0 0-3.641 2.645 1.324 1.82" transform="matrix(1.3333333 0 0 -1.3333333 139.52667 68.8548)"/><path clip-path="url(#C)" d="m0 0 3.641 2.645-1.324 1.82" transform="matrix(1.3333333 0 0 -1.3333333 132.47333 68.8548)"/><path clip-path="url(#D)" d="m0 0 1.391 4.282 2.141-.696" transform="matrix(1.3333333 0 0 -1.3333333 132.47333 68.8548)"/><path clip-path="url(#E)" d="m0 0 3.64-2.645 1.325 1.82" transform="matrix(1.3333333 0 0 -1.3333333 130.29173 62.1452)"/><path clip-path="url(#F)" d="m0 0h4.5v-2.25" transform="matrix(1.3333333 0 0 -1.3333333 130.29173 62.1452)"/><path clip-path="url(#G)" d="m0 0-1.391-4.281 2.141-.696" transform="matrix(1.3333333 0 0 -1.3333333 160 58)"/><path clip-path="url(#H)" d="m0 0 1.391-4.281-2.141-.696" transform="matrix(1.3333333 0 0 -1.3333333 160 58)"/><path clip-path="url(#I)" d="m0 0h-4.5v-2.25" transform="matrix(1.3333333 0 0 -1.3333333 165.70773 62.1452)"/><path clip-path="url(#J)" d="m0 0-3.64-2.645-1.325 1.82" transform="matrix(1.3333333 0 0 -1.3333333 165.70773 62.1452)"/><path clip-path="url(#K)" d="m0 0-1.391 4.282-2.141-.696" transform="matrix(1.3333333 0 0 -1.3333333 163.52667 68.8548)"/><path clip-path="url(#L)" d="m0 0-3.641 2.645 1.324 1.82" transform="matrix(1.3333333 0 0 -1.3333333 163.52667 68.8548)"/><path clip-path="url(#M)" d="m0 0 3.641 2.645-1.324 1.82" transform="matrix(1.3333333 0 0 -1.3333333 156.47333 68.8548)"/><path clip-path="url(#N)" d="m0 0 1.391 4.282 2.141-.696" transform="matrix(1.3333333 0 0 -1.3333333 156.47333 68.8548)"/><path clip-path="url(#O)" d="m0 0 3.64-2.645 1.325 1.82" transform="matrix(1.3333333 0 0 -1.3333333 154.29173 62.1452)"/><path clip-path="url(#P)" d="m0 0h4.5v-2.25" transform="matrix(1.3333333 0 0 -1.3333333 154.29173 62.1452)"/><path clip-path="url(#Q)" d="m0 0-1.391-4.281 2.141-.696" transform="matrix(1.3333333 0 0 -1.3333333 184 58)"/><path clip-path="url(#R)" d="m0 0 1.391-4.281-2.141-.696" transform="matrix(1.3333333 0 0 -1.3333333 184 58)"/><path clip-path="url(#S)" d="m0 0h-4.5v-2.25" transform="matrix(1.3333333 0 0 -1.3333333 189.70827 62.1452)"/><path clip-path="url(#T)" d="m0 0-3.64-2.645-1.325 1.82" transform="matrix(1.3333333 0 0 -1.3333333 189.70827 62.1452)"/><path clip-path="url(#U)" d="m0 0-1.391 4.282-2.141-.696" transform="matrix(1.3333333 0 0 -1.3333333 187.52667 68.8548)"/><path clip-path="url(#V)" d="m0 0-3.641 2.645 1.324 1.82" transform="matrix(1.3333333 0 0 -1.3333333 187.52667 68.8548)"/><path clip-path="url(#W)" d="m0 0 3.641 2.645-1.324 1.82" transform="matrix(1.3333333 0 0 -1.3333333 180.47333 68.8548)"/><path clip-path="url(#X)" d="m0 0 1.391 4.282 2.141-.696" transform="matrix(1.3333333 0 0 -1.3333333 180.47333 68.8548)"/><path clip-path="url(#Y)" d="m0 0 3.64-2.645 1.325 1.82" transform="matrix(1.3333333 0 0 -1.3333333 178.2916 62.1452)"/><path clip-path="url(#Z)" d="m0 0h4.5v-2.25" transform="matrix(1.3333333 0 0 -1.3333333 178.2916 62.1452)"/><path clip-path="url(#aa)" d="m0 0-1.391-4.281 2.141-.696" transform="matrix(1.3333333 0 0 -1.3333333 112 34)"/><path clip-path="url(#ab)" d="m0 0 1.391-4.281-2.141-.696" transform="matrix(1.3333333 0 0 -1.3333333 112 34)"/><path clip-path="url(#ac)" d="m0 0h-4.5v-2.25" transform="matrix(1.3333333 0 0 -1.3333333 117.70773 38.1452)"/><path clip-path="url(#ad)" d="m0 0-3.64-2.645-1.325 1.82" transform="matrix(1.3333333 0 0 -1.3333333 117.70773 38.1452)"/><path clip-path="url(#ae)" d="m0 0-1.391 4.282-2.141-.696" transform="matrix(1.3333333 0 0 -1.3333333 115.52667 44.8548)"/><path clip-path="url(#af)" d="m0 0-3.641 2.645 1.324 1.82" transform="matrix(1.3333333 0 0 -1.3333333 115.52667 44.8548)"/><path clip-path="url(#ag)" d="m0 0 3.641 2.645-1.324 1.82" transform="matrix(1.3333333 0 0 -1.3333333 108.47333 44.8548)"/><path clip-path="url(#ah)" d="m0 0 1.391 4.282 2.141-.696" transform="matrix(1.3333333 0 0 -1.3333333 108.47333 44.8548)"/><path clip-path="url(#ai)" d="m0 0 3.64-2.645 1.325 1.82" transform="matrix(1.3333333 0 0 -1.3333333 106.29173 38.1452)"/><path clip-path="url(#aj)" d="m0 0h4.5v-2.25" transform="matrix(1.3333333 0 0 -1.3333333 106.29173 38.1452)"/><path clip-path="url(#ak)" d="m0 0-1.391-4.281 2.141-.696" transform="matrix(1.3333333 0 0 -1.3333333 136 34)"/><path clip-path="url(#al)" d="m0 0 1.391-4.281-2.141-.696" transform="matrix(1.3333333 0 0 -1.3333333 136 34)"/><path clip-path="url(#am)" d="m0 0h-4.5v-2.25" transform="matrix(1.3333333 0 0 -1.3333333 141.70773 38.1452)"/><path clip-path="url(#an)" d="m0 0-3.64-2.645-1.325 1.82" transform="matrix(1.3333333 0 0 -1.3333333 141.70773 38.1452)"/><path clip-path="url(#ao)" d="m0 0-1.391 4.282-2.141-.696" transform="matrix(1.3333333 0 0 -1.3333333 139.52667 44.8548)"/><path clip-path="url(#ap)" d="m0 0-3.641 2.645 1.324 1.82" transform="matrix(1.3333333 0 0 -1.3333333 139.52667 44.8548)"/><path clip-path="url(#aq)" d="m0 0 3.641 2.645-1.324 1.82" transform="matrix(1.3333333 0 0 -1.3333333 132.47333 44.8548)"/><path clip-path="url(#ar)" d="m0 0 1.391 4.282 2.141-.696" transform="matrix(1.3333333 0 0 -1.3333333 132.47333 44.8548)"/><path clip-path="url(#as)" d="m0 0 3.64-2.645 1.325 1.82" transform="matrix(1.3333333 0 0 -1.3333333 130.29173 38.1452)"/><path clip-path="url(#at)" d="m0 0h4.5v-2.25" transform="matrix(1.3333333 0 0 -1.3333333 130.29173 38.1452)"/><path clip-path="url(#au)" d="m0 0-1.391-4.281 2.141-.696" transform="matrix(1.3333333 0 0 -1.3333333 160 34)"/><path clip-path="url(#av)" d="m0 0 1.391-4.281-2.141-.696" transform="matrix(1.3333333 0 0 -1.3333333 160 34)"/><path clip-path="url(#aw)" d="m0 0h-4.5v-2.25" transform="matrix(1.3333333 0 0 -1.3333333 165.70773 38.1452)"/><path clip-path="url(#ax)" d="m0 0-3.64-2.645-1.325 1.82" transform="matrix(1.3333333 0 0 -1.3333333 165.70773 38.1452)"/><path clip-path="url(#ay)" d="m0 0-1.391 4.282-2.141-.696" transform="matrix(1.3333333 0 0 -1.3333333 163.52667 44.8548)"/><path clip-path="url(#az)" d="m0 0-3.641 2.645 1.324 1.82" transform="matrix(1.3333333 0 0 -1.3333333 163.52667 44.8548)"/><path clip-path="url(#aA)" d="m0 0 3.641 2.645-1.324 1.82" transform="matrix(1.3333333 0 0 -1.3333333 156.47333 44.8548)"/><path clip-path="url(#aB)" d="m0 0 1.391 4.282 2.141-.696" transform="matrix(1.3333333 0 0 -1.3333333 156.47333 44.8548)"/><path clip-path="url(#aC)" d="m0 0 3.64-2.645 1.325 1.82" transform="matrix(1.3333333 0 0 -1.3333333 154.29173 38.1452)"/><path clip-path="url(#aD)" d="m0 0h4.5v-2.25" transform="matrix(1.3333333 0 0 -1.3333333 154.29173 38.1452)"/><path clip-path="url(#aE)" d="m0 0-1.391-4.281 2.141-.696" transform="matrix(1.3333333 0 0 -1.3333333 184 34)"/><path clip-path="url(#aF)" d="m0 0 1.391-4.281-2.141-.696" transform="matrix(1.3333333 0 0 -1.3333333 184 34)"/><path clip-path="url(#aG)" d="m0 0h-4.5v-2.25" transform="matrix(1.3333333 0 0 -1.3333333 189.70827 38.1452)"/><path clip-path="url(#aH)" d="m0 0-3.64-2.645-1.325 1.82" transform="matrix(1.3333333 0 0 -1.3333333 189.70827 38.1452)"/><path clip-path="url(#aI)" d="m0 0-1.391 4.282-2.141-.696" transform="matrix(1.3333333 0 0 -1.3333333 187.52667 44.8548)"/><path clip-path="url(#aJ)" d="m0 0-3.641 2.645 1.324 1.82" transform="matrix(1.3333333 0 0 -1.3333333 187.52667 44.8548)"/><path clip-path="url(#aK)" d="m0 0 3.641 2.645-1.324 1.82" transform="matrix(1.3333333 0 0 -1.3333333 180.47333 44.8548)"/><path clip-path="url(#aL)" d="m0 0 1.391 4.282 2.141-.696" transform="matrix(1.3333333 0 0 -1.3333333 180.47333 44.8548)"/><path clip-path="url(#aM)" d="m0 0 3.64-2.645 1.325 1.82" transform="matrix(1.3333333 0 0 -1.3333333 178.2916 38.1452)"/><path clip-path="url(#aN)" d="m0 0h4.5v-2.25" transform="matrix(1.3333333 0 0 -1.3333333 178.2916 38.1452)"/><path clip-path="url(#aO)" d="m0 0-1.391-4.281 2.141-.696" transform="matrix(1.3333333 0 0 -1.3333333 136 10)"/><path clip-path="url(#aP)" d="m0 0 1.391-4.281-2.141-.696" transform="matrix(1.3333333 0 0 -1.3333333 136 10)"/><path clip-path="url(#aQ)" d="m0 0h-4.5v-2.25" transform="matrix(1.3333333 0 0 -1.3333333 141.70773 14.1452)"/><path clip-path="url(#aR)" d="m0 0-3.64-2.645-1.325 1.82" transform="matrix(1.3333333 0 0 -1.3333333 141.70773 14.1452)"/><path clip-path="url(#aS)" d="m0 0-1.391 4.282-2.141-.696" transform="matrix(1.3333333 0 0 -1.3333333 139.52667 20.8548)"/><path clip-path="url(#aT)" d="m0 0-3.641 2.645 1.324 1.82" transform="matrix(1.3333333 0 0 -1.3333333 139.52667 20.8548)"/><path clip-path="url(#aU)" d="m0 0 3.641 2.645-1.324 1.82" transform="matrix(1.3333333 0 0 -1.3333333 132.47333 20.8548)"/><path clip-path="url(#aV)" d="m0 0 1.391 4.282 2.141-.696" transform="matrix(1.3333333 0 0 -1.3333333 132.47333 20.8548)"/><path clip-path="url(#aW)" d="m0 0 3.64-2.645 1.325 1.82" transform="matrix(1.3333333 0 0 -1.3333333 130.29173 14.1452)"/><path clip-path="url(#aX)" d="m0 0h4.5v-2.25" transform="matrix(1.3333333 0 0 -1.3333333 130.29173 14.1452)"/><path clip-path="url(#aY)" d="m0 0-1.391-4.281 2.141-.696" transform="matrix(1.3333333 0 0 -1.3333333 160 10)"/><path clip-path="url(#aZ)" d="m0 0 1.391-4.281-2.141-.696" transform="matrix(1.3333333 0 0 -1.3333333 160 10)"/><path clip-path="url(#a0)" d="m0 0h-4.5v-2.25" transform="matrix(1.3333333 0 0 -1.3333333 165.70773 14.1452)"/><path clip-path="url(#a1)" d="m0 0-3.64-2.645-1.325 1.82" transform="matrix(1.3333333 0 0 -1.3333333 165.70773 14.1452)"/><path clip-path="url(#a2)" d="m0 0-1.391 4.282-2.141-.696" transform="matrix(1.3333333 0 0 -1.3333333 163.52667 20.8548)"/><path clip-path="url(#a3)" d="m0 0-3.641 2.645 1.324 1.82" transform="matrix(1.3333333 0 0 -1.3333333 163.52667 20.8548)"/><path clip-path="url(#a4)" d="m0 0 3.641 2.645-1.324 1.82" transform="matrix(1.3333333 0 0 -1.3333333 156.47333 20.8548)"/><path clip-path="url(#a5)" d="m0 0 1.391 4.282 2.141-.696" transform="matrix(1.3333333 0 0 -1.3333333 156.47333 20.8548)"/><path clip-path="url(#a6)" d="m0 0 3.64-2.645 1.325 1.82" transform="matrix(1.3333333 0 0 -1.3333333 154.29173 14.1452)"/><path clip-path="url(#a7)" d="m0 0h4.5v-2.25" transform="matrix(1.3333333 0 0 -1.3333333 154.29173 14.1452)"/><path clip-path="url(#a8)" d="m0 0-1.391-4.281 2.141-.696" transform="matrix(1.3333333 0 0 -1.3333333 184 10)"/><path clip-path="url(#a9)" d="m0 0 1.391-4.281-2.141-.696" transform="matrix(1.3333333 0 0 -1.3333333 184 10)"/><path clip-path="url(#ba)" d="m0 0h-4.5v-2.25" transform="matrix(1.3333333 0 0 -1.3333333 189.70827 14.1452)"/><path clip-path="url(#bb)" d="m0 0-3.64-2.645-1.325 1.82" transform="matrix(1.3333333 0 0 -1.3333333 189.70827 14.1452)"/><path clip-path="url(#bc)" d="m0 0-1.391 4.282-2.141-.696" transform="matrix(1.3333333 0 0 -1.3333333 187.52667 20.8548)"/><path clip-path="url(#bd)" d="m0 0-3.641 2.645 1.324 1.82" transform="matrix(1.3333333 0 0 -1.3333333 187.52667 20.8548)"/><path clip-path="url(#be)" d="m0 0 3.641 2.645-1.324 1.82" transform="matrix(1.3333333 0 0 -1.3333333 180.47333 20.8548)"/><path clip-path="url(#bf)" d="m0 0 1.391 4.282 2.141-.696" transform="matrix(1.3333333 0 0 -1.3333333 180.47333 20.8548)"/><path clip-path="url(#bg)" d="m0 0 3.64-2.645 1.325 1.82" transform="matrix(1.3333333 0 0 -1.3333333 178.2916 14.1452)"/><path clip-path="url(#bh)" d="m0 0h4.5v-2.25" transform="matrix(1.3333333 0 0 -1.3333333 178.2916 14.1452)"/></g></svg>