<svg height="1066.6667" viewBox="0 0 1600 1066.6667" width="1600" xmlns="http://www.w3.org/2000/svg"><path d="m0 0h1200v800h-1200z" fill="#da251d" transform="matrix(1.3333333 0 0 -1.3333333 0 1066.6667)"/><g fill="#ff0"><path d="m0 0-55.623-171.19 114.127-37.082" transform="matrix(1.3333333 0 0 -1.3333333 800 292)"/><path d="m0 0 55.623-171.19-114.127-37.082" transform="matrix(1.3333333 0 0 -1.3333333 800 292)"/><path d="m0 0h-180v-120" transform="matrix(1.3333333 0 0 -1.3333333 1028.2539 457.836)"/><path d="m0 0-145.623-105.802-70.535 97.083" transform="matrix(1.3333333 0 0 -1.3333333 1028.2539 457.836)"/><path d="m0 0-55.623 171.19-114.127-37.082" transform="matrix(1.3333333 0 0 -1.3333333 941.06907 726.164)"/><path d="m0 0-145.624 105.802 70.535 97.081" transform="matrix(1.3333333 0 0 -1.3333333 941.06907 726.164)"/><path d="m0 0h180v-120" transform="matrix(1.3333333 0 0 -1.3333333 571.7468 457.836)"/><path d="m0 0 145.623-105.802 70.534 97.083" transform="matrix(1.3333333 0 0 -1.3333333 571.7468 457.836)"/><g transform="matrix(1.3333333 0 0 -1.3333333 658.9316 726.164)"><path d="m0 0 55.623 171.19 114.127-37.082"/><path d="m0 0 145.623 105.802-70.534 97.081"/></g></g></svg>