<?xml version="1.0" encoding="UTF-8" standalone="no"?>
<!-- Created with Inkscape (http://www.inkscape.org/) -->

<svg
   version="1.1"
   id="svg1"
   width="717.22803"
   height="480"
   viewBox="0 0 717.22803 480"
   sodipodi:docname="vu.ai"
   xmlns:inkscape="http://www.inkscape.org/namespaces/inkscape"
   xmlns:sodipodi="http://sodipodi.sourceforge.net/DTD/sodipodi-0.dtd"
   xmlns="http://www.w3.org/2000/svg"
   xmlns:svg="http://www.w3.org/2000/svg">
  <defs
     id="defs1">
    <clipPath
       clipPathUnits="userSpaceOnUse"
       id="clipPath9">
      <path
         d="M 0,360 H 537.921 V 0 H 0 Z"
         transform="translate(-72.935502,-145.56351)"
         id="path9" />
    </clipPath>
    <clipPath
       clipPathUnits="userSpaceOnUse"
       id="clipPath11">
      <path
         d="M 0,360 H 537.921 V 0 H 0 Z"
         transform="translate(-57.301801,-172.2666)"
         id="path11" />
    </clipPath>
    <clipPath
       clipPathUnits="userSpaceOnUse"
       id="clipPath13">
      <path
         d="M 0,360 H 537.921 V 0 H 0 Z"
         transform="translate(-59.490202,-175.5811)"
         id="path13" />
    </clipPath>
    <clipPath
       clipPathUnits="userSpaceOnUse"
       id="clipPath15">
      <path
         d="M 0,360 H 537.921 V 0 H 0 Z"
         transform="translate(-93.329605,-172.2666)"
         id="path15" />
    </clipPath>
    <clipPath
       clipPathUnits="userSpaceOnUse"
       id="clipPath17">
      <path
         d="M 0,360 H 537.921 V 0 H 0 Z"
         transform="translate(-91.141105,-175.5811)"
         id="path17" />
    </clipPath>
  </defs>
  <sodipodi:namedview
     id="namedview1"
     pagecolor="#ffffff"
     bordercolor="#000000"
     borderopacity="0.25"
     inkscape:showpageshadow="2"
     inkscape:pageopacity="0.0"
     inkscape:pagecheckerboard="0"
     inkscape:deskcolor="#d1d1d1">
    <inkscape:page
       x="0"
       y="0"
       inkscape:label="1"
       id="page1"
       width="717.22803"
       height="480"
       margin="0"
       bleed="0" />
  </sodipodi:namedview>
  <g
     id="layer-MC0"
     inkscape:groupmode="layer"
     inkscape:label="Layer 1">
    <path
       id="path1"
       d="M 0,180 H 537.921 V 360 H 0 Z"
       style="fill:#d21034;fill-opacity:1;fill-rule:nonzero;stroke:none"
       transform="matrix(1.3333333,0,0,-1.3333333,0,480)" />
    <path
       id="path2"
       d="M 0,0 H 537.921 V 180 H 0 Z"
       style="fill:#009543;fill-opacity:1;fill-rule:nonzero;stroke:none"
       transform="matrix(1.3333333,0,0,-1.3333333,0,480)" />
    <path
       id="path3"
       d="m 0,0 v -360 l 349.145,180 z"
       style="fill:#000000;fill-opacity:1;fill-rule:nonzero;stroke:none"
       transform="scale(1.3333333,-1.3333333)" />
    <path
       id="path4"
       d="M 0,147.789 H 537.921 V 212.21 H 0 Z"
       style="fill:#000000;fill-opacity:1;fill-rule:nonzero;stroke:none"
       transform="matrix(1.3333333,0,0,-1.3333333,0,480)" />
    <path
       id="path5"
       d="M 0,0 299.527,154.42 0,308.839 Z"
       style="fill:#fdce12;fill-opacity:1;fill-rule:nonzero;stroke:none"
       transform="matrix(1.3333333,0,0,-1.3333333,0,445.8924)" />
    <path
       id="path6"
       d="m 0,170.527 h 537.921 v 18.947 H 0 Z"
       style="fill:#fdce12;fill-opacity:1;fill-rule:nonzero;stroke:none"
       transform="matrix(1.3333333,0,0,-1.3333333,0,480)" />
    <path
       id="path7"
       d="M 0,0 258.178,133.103 0,266.205 Z"
       style="fill:#000000;fill-opacity:1;fill-rule:nonzero;stroke:none"
       transform="matrix(1.3333333,0,0,-1.3333333,0,417.4704)" />
    <path
       id="path8"
       d="m 0,0 v -20.511 c 17.844,0 52.863,13.674 52.863,57.699 0,44.024 -37.354,52.196 -48.528,52.196 -11.172,0 -45.691,-8.005 -45.691,-44.025 0,-36.02 33.852,-39.355 40.522,-39.355 6.67,0 31.685,6.003 28.85,33.018 0,-7.67 -8.672,-23.847 -26.849,-23.847 -18.177,0 -29.516,13.509 -29.516,26.849 0,13.341 11.006,31.184 30.183,31.184 19.177,0 33.185,-17.008 33.185,-34.186 C 35.019,21.846 21.512,0 0,0"
       style="fill:#fdce12;fill-opacity:1;fill-rule:nonzero;stroke:none"
       transform="matrix(1.3333333,0,0,-1.3333333,97.247333,285.91533)"
       clip-path="url(#clipPath9)" />
    <path
       id="path10"
       d="m 0,0 1.063,-0.688 c 0,0 8.442,19.261 31.143,32.956 C 29.329,30.705 14.133,23.138 0,0"
       style="fill:#fdce12;fill-opacity:1;fill-rule:nonzero;stroke:#fdce12;stroke-width:1;stroke-linecap:butt;stroke-linejoin:miter;stroke-miterlimit:4;stroke-dasharray:none;stroke-opacity:1"
       transform="matrix(1.3333333,0,0,-1.3333333,76.4024,250.3112)"
       clip-path="url(#clipPath11)" />
    <path
       id="path12"
       d="m 0,0 c 0,0 -2.626,5.378 -0.312,7.754 2.313,2.376 1.25,-6.317 1.25,-6.317 l 1.001,1.439 c 0,0 -1.564,6.566 0.187,7.942 1.751,1.376 0.876,-6.316 0.876,-6.316 l 1.063,1.376 c 0,0 -1.126,6.378 0.562,7.567 1.689,1.188 0.626,-6.004 0.626,-6.004 L 6.504,8.88 c 0,0 -0.938,6.065 1.125,7.504 C 9.693,17.822 7.88,10.63 7.88,10.63 l 1.375,1.501 c 0,0 -0.625,5.566 1.126,6.817 1.751,1.25 0.25,-5.253 0.25,-5.253 l 1.251,1.313 c 0,0 -0.375,5.19 1.313,6.378 1.689,1.189 0.125,-4.94 0.125,-4.94 l 1.314,1.251 c 0,0 -0.313,5.191 1.813,6.191 2.126,1 -0.375,-4.878 -0.375,-4.878 l 1.438,1.251 c 0,0 0.438,6.066 2.252,6.629 1.813,0.563 -0.813,-5.379 -0.813,-5.379 l 1.313,1.064 c 0,0 0.688,5.19 2.688,5.816 2.002,0.625 -1.25,-4.753 -1.25,-4.753 l 1.313,1 c 0,0 1.439,5.191 3.315,5.754 1.876,0.562 -1.939,-4.878 -1.939,-4.878 l 1.251,0.875 c 0,0 2.063,4.691 3.752,5.004 1.688,0.312 -1.876,-3.878 -1.876,-3.878 l 1.563,0.938 c 0,0 2.689,4.878 3.628,3.377 0.937,-1.501 -3.753,-3.689 -3.753,-3.689 l -1.563,-0.876 c 0,0 5.691,2.689 6.379,1.313 0.687,-1.375 -7.818,-2.251 -7.818,-2.251 l -1.375,-0.938 c 0,0 5.69,1.564 5.003,0.125 -0.688,-1.438 -6.316,-1.126 -6.316,-1.126 L 21.95,23.45 c 0,0 5.691,1.376 4.94,0.063 -0.75,-1.313 -6.316,-1.188 -6.316,-1.188 l -1.375,-1.126 c 0,0 5.565,1.439 4.753,-0.25 -0.814,-1.689 -7.13,-1.626 -7.13,-1.626 l -1.563,-1.438 c 0,0 5.878,2.001 5.378,0.438 -0.5,-1.564 -7.192,-2.377 -7.192,-2.377 l -1.501,-1.501 c 0,0 6.316,2.126 4.44,0.188 -1.875,-1.939 -6.44,-2.439 -6.44,-2.439 L 8.13,10.005 c 0,0 6.254,3.752 5.378,1.626 C 12.632,9.505 6.504,8.066 6.504,8.066 l -1.251,-1.5 c 0,0 5.628,3.252 5.066,1.438 C 9.756,6.19 3.752,4.252 3.752,4.252 l -1,-1.376 c 0,0 6.628,3.94 6.065,1.939 C 8.255,2.813 1.939,1.375 1.939,1.375 L 1.126,0.125 c 0,0 6.128,3.501 6.191,1.813 C 7.379,0.25 0.125,-1.438 0.125,-1.438 Z"
       style="fill:#fdce12;fill-opacity:1;fill-rule:nonzero;stroke:none"
       transform="matrix(1.3333333,0,0,-1.3333333,79.320267,245.89187)"
       clip-path="url(#clipPath13)" />
    <path
       id="path14"
       d="m 0,0 -1.063,-0.688 c 0,0 -8.442,19.261 -31.143,32.956 C -29.329,30.705 -14.133,23.138 0,0"
       style="fill:#fdce12;fill-opacity:1;fill-rule:nonzero;stroke:#fdce12;stroke-width:1;stroke-linecap:butt;stroke-linejoin:miter;stroke-miterlimit:4;stroke-dasharray:none;stroke-opacity:1"
       transform="matrix(1.3333333,0,0,-1.3333333,124.43947,250.3112)"
       clip-path="url(#clipPath15)" />
    <path
       id="path16"
       d="M 0,0 C 0,0 2.626,5.378 0.313,7.754 -2.001,10.13 -0.938,1.437 -0.938,1.437 l -1.001,1.439 c 0,0 1.564,6.566 -0.187,7.942 -1.751,1.376 -0.876,-6.316 -0.876,-6.316 l -1.062,1.376 c 0,0 1.125,6.378 -0.563,7.567 -1.689,1.188 -0.626,-6.004 -0.626,-6.004 L -6.504,8.88 c 0,0 0.938,6.065 -1.125,7.504 -2.064,1.438 -0.25,-5.754 -0.25,-5.754 l -1.376,1.501 c 0,0 0.625,5.566 -1.126,6.817 -1.751,1.25 -0.25,-5.253 -0.25,-5.253 l -1.251,1.313 c 0,0 0.376,5.19 -1.313,6.378 -1.689,1.189 -0.125,-4.94 -0.125,-4.94 l -1.313,1.251 c 0,0 0.312,5.191 -1.814,6.191 -2.126,1 0.375,-4.878 0.375,-4.878 l -1.438,1.251 c 0,0 -0.437,6.066 -2.251,6.629 -1.814,0.563 0.813,-5.379 0.813,-5.379 l -1.314,1.064 c 0,0 -0.687,5.19 -2.688,5.816 -2.002,0.625 1.25,-4.753 1.25,-4.753 l -1.313,1 c 0,0 -1.439,5.191 -3.314,5.754 -1.877,0.562 1.938,-4.878 1.938,-4.878 l -1.251,0.875 c 0,0 -2.063,4.691 -3.752,5.004 -1.688,0.312 1.877,-3.878 1.877,-3.878 l -1.564,0.938 c 0,0 -2.689,4.878 -3.627,3.377 -0.938,-1.501 3.752,-3.689 3.752,-3.689 l 1.564,-0.876 c 0,0 -5.692,2.689 -6.379,1.313 -0.688,-1.375 7.817,-2.251 7.817,-2.251 l 1.375,-0.938 c 0,0 -5.69,1.564 -5.002,0.125 0.687,-1.438 6.316,-1.126 6.316,-1.126 l 1.313,-0.938 c 0,0 -5.69,1.376 -4.94,0.063 0.75,-1.313 6.316,-1.188 6.316,-1.188 l 1.375,-1.126 c 0,0 -5.565,1.439 -4.752,-0.25 0.813,-1.689 7.129,-1.626 7.129,-1.626 l 1.563,-1.438 c 0,0 -5.878,2.001 -5.378,0.438 0.5,-1.564 7.192,-2.377 7.192,-2.377 l 1.501,-1.501 c 0,0 -6.316,2.126 -4.44,0.188 1.876,-1.939 6.441,-2.439 6.441,-2.439 l 1.814,-2.189 c 0,0 -6.254,3.752 -5.378,1.626 0.875,-2.126 7.003,-3.565 7.003,-3.565 l 1.251,-1.5 c 0,0 -5.628,3.252 -5.065,1.438 0.562,-1.814 6.566,-3.752 6.566,-3.752 l 1.001,-1.376 c 0,0 -6.629,3.94 -6.066,1.939 0.563,-2.002 6.878,-3.44 6.878,-3.44 l 0.813,-1.25 c 0,0 -6.128,3.501 -6.191,1.813 -0.062,-1.688 7.192,-3.376 7.192,-3.376 z"
       style="fill:#fdce12;fill-opacity:1;fill-rule:nonzero;stroke:none"
       transform="matrix(1.3333333,0,0,-1.3333333,121.52147,245.89187)"
       clip-path="url(#clipPath17)" />
  </g>
</svg>
