<svg height="480" viewBox="0 0 717.22803 480" width="717.22803" xmlns="http://www.w3.org/2000/svg" xmlns:xlink="http://www.w3.org/1999/xlink"><clipPath id="a"><path d="m0 360h537.921v-360h-537.921z" transform="translate(-72.935502 -145.56351)"/></clipPath><clipPath id="b"><path d="m0 360h537.921v-360h-537.921z" transform="translate(-57.301801 -172.2666)"/></clipPath><clipPath id="c"><path d="m0 360h537.921v-360h-537.921z" transform="translate(-59.490202 -175.5811)"/></clipPath><clipPath id="d"><path d="m0 360h537.921v-360h-537.921z" transform="translate(-93.329605 -172.2666)"/></clipPath><clipPath id="e"><path d="m0 360h537.921v-360h-537.921z" transform="translate(-91.141105 -175.5811)"/></clipPath><path d="m0 180h537.921v180h-537.921z" fill="#d21034" transform="matrix(1.3333333 0 0 -1.3333333 0 480)"/><path d="m0 0h537.921v180h-537.921z" fill="#009543" transform="matrix(1.3333333 0 0 -1.3333333 0 480)"/><path d="m0 0v-360l349.145 180z" transform="scale(1.3333333 -1.3333333)"/><path d="m0 147.789h537.921v64.421h-537.921z" transform="matrix(1.3333333 0 0 -1.3333333 0 480)"/><path d="m0 0 299.527 154.42-299.527 154.419z" fill="#fdce12" transform="matrix(1.3333333 0 0 -1.3333333 0 445.8924)"/><path d="m0 170.527h537.921v18.947h-537.921z" fill="#fdce12" transform="matrix(1.3333333 0 0 -1.3333333 0 480)"/><path d="m0 0 258.178 133.103-258.178 133.102z" transform="matrix(1.3333333 0 0 -1.3333333 0 417.4704)"/><g fill="#fdce12"><path clip-path="url(#a)" d="m0 0v-20.511c17.844 0 52.863 13.674 52.863 57.699 0 44.024-37.354 52.196-48.528 52.196-11.172 0-45.691-8.005-45.691-44.025s33.852-39.355 40.522-39.355 31.685 6.003 28.85 33.018c0-7.67-8.672-23.847-26.849-23.847s-29.516 13.509-29.516 26.849c0 13.341 11.006 31.184 30.183 31.184s33.185-17.008 33.185-34.186c0-17.176-13.507-39.022-35.019-39.022" transform="matrix(1.3333333 0 0 -1.3333333 97.247333 285.91533)"/><path clip-path="url(#b)" d="m0 0 1.063-.688s8.442 19.261 31.143 32.956c-2.877-1.563-18.073-9.13-32.206-32.268" stroke="#fdce12" transform="matrix(1.3333333 0 0 -1.3333333 76.4024 250.3112)"/><path clip-path="url(#c)" d="m0 0s-2.626 5.378-.312 7.754c2.313 2.376 1.25-6.317 1.25-6.317l1.001 1.439s-1.564 6.566.187 7.942.876-6.316.876-6.316l1.063 1.376s-1.126 6.378.562 7.567c1.689 1.188.626-6.004.626-6.004l1.251 1.439s-.938 6.065 1.125 7.504c2.064 1.438.251-5.754.251-5.754l1.375 1.501s-.625 5.566 1.126 6.817c1.751 1.25.25-5.253.25-5.253l1.251 1.313s-.375 5.19 1.313 6.378c1.689 1.189.125-4.94.125-4.94l1.314 1.251s-.313 5.191 1.813 6.191-.375-4.878-.375-4.878l1.438 1.251s.438 6.066 2.252 6.629c1.813.563-.813-5.379-.813-5.379l1.313 1.064s.688 5.19 2.688 5.816c2.002.625-1.25-4.753-1.25-4.753l1.313 1s1.439 5.191 3.315 5.754c1.876.562-1.939-4.878-1.939-4.878l1.251.875s2.063 4.691 3.752 5.004c1.688.312-1.876-3.878-1.876-3.878l1.563.938s2.689 4.878 3.628 3.377c.937-1.501-3.753-3.689-3.753-3.689l-1.563-.876s5.691 2.689 6.379 1.313c.687-1.375-7.818-2.251-7.818-2.251l-1.375-.938s5.69 1.564 5.003.125c-.688-1.438-6.316-1.126-6.316-1.126l-1.314-.938s5.691 1.376 4.94.063c-.75-1.313-6.316-1.188-6.316-1.188l-1.375-1.126s5.565 1.439 4.753-.25c-.814-1.689-7.13-1.626-7.13-1.626l-1.563-1.438s5.878 2.001 5.378.438c-.5-1.564-7.192-2.377-7.192-2.377l-1.501-1.501s6.316 2.126 4.44.188c-1.875-1.939-6.44-2.439-6.44-2.439l-1.814-2.189s6.254 3.752 5.378 1.626-7.004-3.565-7.004-3.565l-1.251-1.5s5.628 3.252 5.066 1.438c-.563-1.814-6.567-3.752-6.567-3.752l-1-1.376s6.628 3.94 6.065 1.939c-.562-2.002-6.878-3.44-6.878-3.44l-.813-1.25s6.128 3.501 6.191 1.813c.062-1.688-7.192-3.376-7.192-3.376z" transform="matrix(1.3333333 0 0 -1.3333333 79.320267 245.89187)"/><path clip-path="url(#d)" d="m0 0-1.063-.688s-8.442 19.261-31.143 32.956c2.877-1.563 18.073-9.13 32.206-32.268" stroke="#fdce12" transform="matrix(1.3333333 0 0 -1.3333333 124.43947 250.3112)"/><path clip-path="url(#e)" d="m0 0s2.626 5.378.313 7.754c-2.314 2.376-1.251-6.317-1.251-6.317l-1.001 1.439s1.564 6.566-.187 7.942-.876-6.316-.876-6.316l-1.062 1.376s1.125 6.378-.563 7.567c-1.689 1.188-.626-6.004-.626-6.004l-1.251 1.439s.938 6.065-1.125 7.504c-2.064 1.438-.25-5.754-.25-5.754l-1.376 1.501s.625 5.566-1.126 6.817c-1.751 1.25-.25-5.253-.25-5.253l-1.251 1.313s.376 5.19-1.313 6.378c-1.689 1.189-.125-4.94-.125-4.94l-1.313 1.251s.312 5.191-1.814 6.191.375-4.878.375-4.878l-1.438 1.251s-.437 6.066-2.251 6.629.813-5.379.813-5.379l-1.314 1.064s-.687 5.19-2.688 5.816c-2.002.625 1.25-4.753 1.25-4.753l-1.313 1s-1.439 5.191-3.314 5.754c-1.877.562 1.938-4.878 1.938-4.878l-1.251.875s-2.063 4.691-3.752 5.004c-1.688.312 1.877-3.878 1.877-3.878l-1.564.938s-2.689 4.878-3.627 3.377 3.752-3.689 3.752-3.689l1.564-.876s-5.692 2.689-6.379 1.313c-.688-1.375 7.817-2.251 7.817-2.251l1.375-.938s-5.69 1.564-5.002.125c.687-1.438 6.316-1.126 6.316-1.126l1.313-.938s-5.69 1.376-4.94.063 6.316-1.188 6.316-1.188l1.375-1.126s-5.565 1.439-4.752-.25 7.129-1.626 7.129-1.626l1.563-1.438s-5.878 2.001-5.378.438c.5-1.564 7.192-2.377 7.192-2.377l1.501-1.501s-6.316 2.126-4.44.188c1.876-1.939 6.441-2.439 6.441-2.439l1.814-2.189s-6.254 3.752-5.378 1.626c.875-2.126 7.003-3.565 7.003-3.565l1.251-1.5s-5.628 3.252-5.065 1.438c.562-1.814 6.566-3.752 6.566-3.752l1.001-1.376s-6.629 3.94-6.066 1.939c.563-2.002 6.878-3.44 6.878-3.44l.813-1.25s-6.128 3.501-6.191 1.813c-.062-1.688 7.192-3.376 7.192-3.376z" transform="matrix(1.3333333 0 0 -1.3333333 121.52147 245.89187)"/></g></svg>