<svg height="1866.6667" viewBox="0 0 2800 1866.6667" width="2800" xmlns="http://www.w3.org/2000/svg" xmlns:xlink="http://www.w3.org/1999/xlink"><clipPath id="a"><path d="m0 1400h2100v-1400h-2100z" transform="translate(-1916.4249 -1231.6655)"/></clipPath><clipPath id="b"><path d="m0 1400h2100v-1400h-2100z" transform="translate(-1685.7129 -1055.8945)"/></clipPath><clipPath id="c"><path d="m0 1400h2100v-1400h-2100z" transform="translate(-1770.9435 -1104.4863)"/></clipPath><clipPath id="d"><path d="m0 1400h2100v-1400h-2100z" transform="translate(-1724.3448 -1210.1216)"/></clipPath><clipPath id="e"><path d="m0 1400h2100v-1400h-2100z" transform="translate(-1746.8271 -1097.2837)"/></clipPath><clipPath id="f"><path d="m0 1400h2100v-1400h-2100z" transform="translate(-1782.0684 -1068.3252)"/></clipPath><clipPath id="g"><path d="m0 1400h2100v-1400h-2100z" transform="translate(-1545.5752 -1226.7124)"/></clipPath><clipPath id="h"><path d="m0 1400h2100v-1400h-2100z" transform="translate(-1718.2413 -1160.9219)"/></clipPath><clipPath id="i"><path d="m0 1400h2100v-1400h-2100z" transform="translate(-1713.9474 -1221.1968)"/></clipPath><clipPath id="j"><path d="m0 1400h2100v-1400h-2100z" transform="translate(-1659.1836 -1208.3936)"/></clipPath><clipPath id="k"><path d="m0 1400h2100v-1400h-2100z" transform="translate(-1690.0137 -1134.8691)"/></clipPath><clipPath id="l"><path d="m0 1400h2100v-1400h-2100z" transform="translate(-1714.2228 -1250.5679)"/></clipPath><clipPath id="m"><path d="m0 1400h2100v-1400h-2100z" transform="translate(-1861.8691 -1213.249)"/></clipPath><clipPath id="n"><path d="m0 1400h2100v-1400h-2100z" transform="translate(-1873.6134 -1173.2881)"/></clipPath><clipPath id="o"><path d="m0 1400h2100v-1400h-2100z" transform="translate(-1532.2599 -1233.0156)"/></clipPath><g transform="matrix(1.3333333 0 0 -1.3333333 0 1866.6667)"><path d="m0 0h2100v1400h-2100z" fill="#198a00"/><path d="m1850 0h249.999v900h-249.999z" fill="#ef7d00"/><path d="m1600 0h250v900h-250z"/><path d="m1350 0h250v900h-250z" fill="#de2010"/></g><g fill="#ef7d00" stroke="#000" stroke-linecap="round" stroke-linejoin="round" stroke-width="2.25"><path clip-path="url(#a)" d="m0 0s86.002 33.706 94.335 40.656c3.789-4.17-34.477-46.563-108.732-62.2 67.435 14.594 125.023 60.462 136.768 59.073 3.409-.696 2.65-44.826-151.923-83.05 106.837 25.714 168.97 72.973 168.213 67.76.757-1.042-10.607-37.181-104.185-65.327 26.141 5.561 96.987 45.173 96.23 37.528 2.273-3.127-68.573-86.523-196.627-59.42 102.292-24.324 168.59 34.401 178.063 33.359 1.894-.348-18.945-51.428-147.754-54.556 61.756 5.907 43.947.348 43.947.348s-36.372-26.061-80.318-8.34c34.476-8.688 38.263-9.035 39.021-11.814-2.272-3.474-30.686-8.688-57.963 4.865 21.972-8.339 41.674-9.731 42.051-12.858-.377-1.041-14.395-8.339-26.897-3.128-12.501 5.214-127.675 70.193-127.675 70.193l196.248 49.344z" transform="matrix(1.3333333 0 0 -1.3333333 2555.2331 224.446)"/><path clip-path="url(#b)" d="m0 0c-17.258 0-17.733-14.085-17.733-14.085s-1.425-1.017-.475-7.844c2.85 4.649 4.275 6.101 4.275 6.101 1.901-.291 9.816-2.469 22.324 6.534-11.401-10.89-4.59-14.956-4.59-14.956s-2.693-8.569 6.014-10.312c-2.69 3.486-1.106 6.536-1.106 6.536s12.189 1.161 11.398 14.811c.477-12.342 7.759-15.391 7.759-15.391s0-6.826 7.915-7.408c-4.273 3.487-3.324 8.86-3.324 8.86s10.291 6.824 1.583 18.442c5.225 2.76 9.5 10.455 9.5 10.455s-7.124 2.76-10.448 5.082c-1.586 3.051-.159 19.751-.159 19.751l-4.276 21.638-12.192-33.692c.474 4.792.792-14.522-16.465-14.522" transform="matrix(1.3333333 0 0 -1.3333333 2247.6172 458.80733)"/><path clip-path="url(#c)" d="m0 0c.378-.348 12.882-13.207 25.005-12.51 4.545 3.474-9.472 11.119-9.472 12.857 4.925-4.171 25.762-20.502 39.024-14.595 5.302 6.95-9.473 5.907-25.764 24.672 11.364-6.95 39.78-22.239 53.04-16.332 5.685 5.56-29.552 22.935-41.296 36.487l-30.307 14.246-41.296-30.927z" transform="matrix(1.3333333 0 0 -1.3333333 2361.2579 394.01827)"/><path clip-path="url(#d)" d="m0 0s14.018 7.645 70.088 3.822c6.062-.695 38.265 10.077 48.494 13.205 16.29 2.78 68.193 13.204 82.212 22.934 9.85 1.042-2.654-16.68-15.154-20.849-13.262-5.56-61.375-20.85-78.425-18.765 20.459-.347 9.095-15.637-25.004-8.339 16.292-8.34 10.229-9.73 10.229-9.73s-28.792-1.39-36.369 4.517c19.322-6.602 11.365-9.034 11.365-9.034s-19.7-1.738-28.794 2.085c14.017-3.823 6.82-6.255 6.82-6.255s-11.365-1.737-20.837 1.39c-9.471 3.127-23.867 25.019-24.625 25.019" transform="matrix(1.3333333 0 0 -1.3333333 2299.1263 253.1712)"/><path clip-path="url(#e)" d="m0 0 2.06-33.981s-1.11-1.744-2.06-2.761c-.95-1.015-26.283 3.632-22.8-14.085 0-7.261.159-9.149 5.543-13.215-1.426 4.792-.95 8.131-.95 8.131s7.124-3.921 14.091 6.826c-4.749-10.601-1.427-14.377-.318-14.668 1.109-1.889-1.898-10.455 7.6-10.31-3.64 3.196-1.898 7.843-1.898 7.843s9.974 1.45 6.491 18.006c3.642 3.34 5.066.146 5.066.146s1.108-9.875 9.817-7.843c3.959-2.032-.633-7.405-.633-7.405s6.332-.146 8.232 4.793c1.901 4.936 4.116 13.795-6.334 17.425-1.265 3.485 4.118 3.776 4.118 3.776s6.65-2.032 8.548-5.082c1.901-3.05 1.268 7.986-6.965 9.148-10.132.292-10.765 2.178-10.765 2.613 0 .437-1.742 24.687-2.534 31.658z" transform="matrix(1.3333333 0 0 -1.3333333 2329.1028 403.62173)"/><path clip-path="url(#f)" d="m0 0c.125 1.558-17.285 23.059-12.868 25.838 4.415-.834 11.655-10.613 17.521-7.439-1.778 3.812-7.018 1.665-12.968 11.424-5.95 11.032-6.818 27.593-27.656 45.658 13.491-19.117 44.093-30.322 45.389-24.748s-26.946 26.652-25.5 31.733c5.617-10.433 33.975-33.679 54.868-31.754 1.432 4.476-17.11 13.509-21.882 21.943-13.346 8.223-49.064 36.462-49.78 43.011-12.997 17.387-21.11 22.646-24.889 24.649-1.461 1.578-1.827 3.086-2.112 4.045-8.068 17.446 2.618 23.111 8.873 23.949 5.149.524 6.643-.183 10.347 1.462-4.387 1.575-8.771 3.046-13.156 4.62 5.718-3.847 20.325-.46 17.159-11.541 6.404 2.234 20.03 17.104-15.444 20.46-11.544 12.147-59.008 19.128-70.888-33.888.948-.744 1.445-1.354 4.464-3.422-14.989 6.663-55.421 11.802-69.993 13.961-39.363 10.417-80.244 35.52-84.173 32.433-5.256-2.14 23.784-26.92 22.274-27.468-25.18 13.466-48.182 23.006-69.586 31.687-15.057 5.162-30.139 17.182-31.802 14.896-5.541-10.53 24.141-36.996 29.662-40.11 5.523-2.978 48.948-21.453 48.307-21.684-65.405 27.229-76.371 32.165-79.653 35.305-5.765 1.19-19.807 18.581-23.721 17.462-2.143-1.93 2.154-29.408 33.365-41.743 5.087-3.401 66.901-23.739 66.295-25.334-.151-.398-70.799 26.744-73.543 27.715-13.62 4.899-30.334 22.07-33.458 20.139-2.982-1.752 7.704-20.338 21.468-26.168 7.215-2.92 34.887-15.491 59.818-23.492 1.592-.528-44.814 16.141-67.125 24.693-10.117 5.149-14.881 11.568-16.422 10.187-2.279-1.381 3.683-28.837 75.381-44.33 1.889-.737 25.238 5.074 24.084 4.303-.289-.193-23.186-4.764-25.416-4.609-1.983.279-14.527-1.362-14.755-1.958-.757-1.857 4.545-11.688 41.565-9.638 4.732.261 30.415 8.579 28.258 6.789-1.079-.895-34.973-10.996-37.555-11.196-2.241-.29-14.149-1.432-14.589-2.594-.537-1.584 8.814-8.581 28.693-9.702 17.603-.857 51.049 9.865 50.379 9.17-.672-.695-32.244-10.618-33.07-11.223-1.143-.593-12.704-1.168-13.109-1.982-.943-2.026 16.676-17.138 68.786-1.01-5.236-6.486-30.493-10.922-30.457-12.089-.117-.848 5.565-5.883 14.395-7.685 4.415-.901 10.46-.717 15.983.083 9.918 1.821 20.37 5.42 33.65 16.677 1.587-3.532-33.175-19.668-31.543-21.206 7.538-6.411 32.576.826 34.216 1.667 1.642.842 48.216 24.93 48.056 27.718.723-3.573-60.046-33.859-59.39-35.101 3.9-5.709 24.66.299 25.651.825.991.523 26.493 13.159 27.193 13.532.697.372-29.973-16.464-27.242-19.027-1.32-10.933 47.899 7.546 51.756 9.847 1.93 1.151-23.643-10.313-23.712-15.759 8.236-12.77 34.604-8.719 38.67-5.91 2.035 1.405-2.393-9.487-.966-8.497.497.204 5.735 5.886 7.749 9.997-.643-3.567-3.533-9.188-5.22-15.637-1.689-6.449-2.172-13.726-4.49-21.458-.532-3.396 16.248 6.64 13.811 30.631 1.436-12.479-5.299-35.813-3.537-37.026 3.525-2.426 13.271 11.621 14.256 21.12 2.894-4.798 8.968-14.813 14.193-17.118-.569 7.259.1 6.926-2.252 14.06 1.356 9.47 1.545 22.578 1.873 37.379 14.2-24.947 19.863-35.482 15.896-54.587 4.222-1.615 10.966 13.335 10.423 21.03 5.421-21.382 28.823-24.587 29.195-23.965" transform="matrix(1.3333333 0 0 -1.3333333 2376.0912 442.23307)"/><path clip-path="url(#g)" d="m0 0s-9.665-6.697-21.691-6.303c3.006-11.031 27.919-2.561 27.919-2.561s-12.027-12.213-20.617-14.182c5.154-3.94 26.845-2.561 30.496-.591s10.094 9.652 10.094 9.652-22.336-23.638-25.556-23.441c-.43-2.758 23.409-1.773 28.348 2.364s17.395 10.243 17.395 10.243-32.644-20.88-34.148-20.88c12.242-2.955 36.725 3.546 52.403 12.41-23.195-14.183-25.341-16.743-37.154-21.471 10.525-2.167 15.892-8.667 51.543 5.516 20.403 8.863 31.998 25.015 31.998 25.015-12.671-15.561-32.644-28.759-54.761-41.759-1.291-2.363 23.621-12.014 55.405 18.32" transform="matrix(1.3333333 0 0 -1.3333333 2060.7669 231.05013)"/><path clip-path="url(#h)" d="m0 0s2.147-9.258 10.737-16.35c8.592-7.09 9.237-13.984 9.237-13.984" transform="matrix(1.3333333 0 0 -1.3333333 2290.9883 318.7708)"/><path clip-path="url(#i)" d="m0 0s3.006-8.273 11.811-13.591c9.02-5.319 22.552-22.062 23.625-25.016 1.039-3.577 6.226-29.351 5.798-32.107" transform="matrix(1.3333333 0 0 -1.3333333 2285.2631 238.40427)"/><path clip-path="url(#j)" d="m0 0c.645-3.152-12.672-19.107 5.582-37.82-16.537-18.514-16.535-20.879-16.535-20.879s9.234-4.727 25.771 8.273c27.274-30.729 18.185-44.792 18.185-44.792" transform="matrix(1.3333333 0 0 -1.3333333 2212.2448 255.4752)"/><path clip-path="url(#k)" d="m0 0s-2.512 3.301 1.967 15.627c4.033-4.456 8.518-5.407 10.484-7.211 1.965-1.804 22.559-4.538 23.867-17.161" transform="matrix(1.3333333 0 0 -1.3333333 2253.3516 353.50787)"/><path clip-path="url(#l)" d="m0 0c0 .927-4.146 9.088-19.616-1.113 8.292-.464 16.48-4.822 19.616 1.113" transform="matrix(1.3333333 0 0 -1.3333333 2285.6303 199.2428)"/><path clip-path="url(#m)" d="m0 0c.757-.348 46.221-9.382 61.375-4.865-19.322-23.629-57.966-7.645-57.966-7.645 18.943-5.212 19.702-4.865 25.762-9.729 1.895-4.517-34.854-2.433-46.979 3.822 33.72-9.729 34.477-9.035 35.615-12.857 1.516-5.212-55.314 1.39-60.239 8.339 15.155-10.772 23.49-12.857 31.825-17.721-10.23-4.17-29.172-8.339-64.029 14.247 45.842-38.224 87.138-35.791 93.579-42.741-15.912-21.544-77.667 12.857-106.081 30.232-28.414 17.374 62.133-42.047 70.47-41.004-4.169-5.907-34.099-.695-35.993 2.085" transform="matrix(1.3333333 0 0 -1.3333333 2482.4921 249.00133)"/><path clip-path="url(#n)" d="m0 0c-5.303-.695-21.215-.695-23.487-.348" transform="matrix(1.3333333 0 0 -1.3333333 2498.1511 302.28253)"/><path clip-path="url(#o)" d="m0 0s34.576-16.743 49.18-15.561c-3.866-3.349-9.665-4.728-9.665-4.728 3.651-1.378 13.745-6.303 28.994-3.151-3.652-3.349-8.376-7.092-8.376-7.092s13.1-4.53 27.919 2.561c-4.51-5.121-7.088-8.864-7.088-8.864l10.308-.591" transform="matrix(1.3333333 0 0 -1.3333333 2043.0131 222.64587)"/></g></svg>