<svg height="800" viewBox="0 0 1200 800" width="1200" xmlns="http://www.w3.org/2000/svg"><g transform="matrix(1.3333333 0 0 -1.3333333 0 800)"><path d="m0 0h300v600h-300z" fill="#00853f"/><path d="m300 0h300.001v600h-300.001z" fill="#fdef42"/><path d="m600 0h300v600h-300z" fill="#e31b23"/></g><g fill="#00853f"><path d="m0 0-30.902-95.105 47.553-15.452z" transform="matrix(1.3333333 0 0 -1.3333333 600 266.66667)"/><path d="m0 0 30.901-95.105-47.552-15.452z" transform="matrix(1.3333333 0 0 -1.3333333 600 266.66667)"/><path d="m0 0h-100v-50z" transform="matrix(1.3333333 0 0 -1.3333333 726.80733 358.79747)"/><path d="m0 0-80.901-58.779-29.39 40.451z" transform="matrix(1.3333333 0 0 -1.3333333 726.80733 358.79747)"/><path d="m0 0-30.901 95.105-47.553-15.451z" transform="matrix(1.3333333 0 0 -1.3333333 678.37107 507.86853)"/><path d="m0 0-80.901 58.778 29.388 40.451z" transform="matrix(1.3333333 0 0 -1.3333333 678.37107 507.86853)"/><path d="m0 0 80.901 58.778-29.389 40.451z" transform="matrix(1.3333333 0 0 -1.3333333 521.62893 507.86853)"/><path d="m0 0 30.901 95.105 47.553-15.451z" transform="matrix(1.3333333 0 0 -1.3333333 521.62893 507.86853)"/><g transform="matrix(1.3333333 0 0 -1.3333333 473.19267 358.79747)"><path d="m0 0 80.901-58.779 29.39 40.451z"/><path d="m0 0h100v-50z"/></g></g></svg>