<?xml version="1.0" encoding="UTF-8" standalone="no"?>
<!-- Created with Inkscape (http://www.inkscape.org/) -->

<svg
   width="144"
   height="96"
   viewBox="0 0 144 96"
   version="1.1"
   id="svg5"
   inkscape:version="1.2.2 (732a01da63, 2022-12-09)"
   sodipodi:docname="rect.svg"
   xml:space="preserve"
   xmlns:inkscape="http://www.inkscape.org/namespaces/inkscape"
   xmlns:sodipodi="http://sodipodi.sourceforge.net/DTD/sodipodi-0.dtd"
   xmlns:xlink="http://www.w3.org/1999/xlink"
   xmlns="http://www.w3.org/2000/svg"
   xmlns:svg="http://www.w3.org/2000/svg"><sodipodi:namedview
     id="namedview7"
     pagecolor="#505050"
     bordercolor="#eeeeee"
     borderopacity="1"
     inkscape:showpageshadow="0"
     inkscape:pageopacity="0"
     inkscape:pagecheckerboard="0"
     inkscape:deskcolor="#505050"
     inkscape:document-units="px"
     showgrid="false"
     inkscape:zoom="4"
     inkscape:cx="26.5"
     inkscape:cy="27.5"
     inkscape:window-width="2560"
     inkscape:window-height="1377"
     inkscape:window-x="1912"
     inkscape:window-y="-8"
     inkscape:window-maximized="1"
     inkscape:current-layer="layer1"
     showguides="false"><inkscape:grid
       type="xygrid"
       id="grid2501"
       empspacing="8"
       originx="0"
       originy="0"
       color="#000000"
       opacity="0.14901961"
       empcolor="#000000"
       empopacity="0.30196078" /></sodipodi:namedview><defs
     id="defs2"><linearGradient
       id="arms"
       inkscape:swatch="solid"><stop
         style="stop-color:#ffdd00;stop-opacity:1;"
         offset="0"
         id="stop10417" /></linearGradient><linearGradient
       id="background"
       inkscape:swatch="solid"><stop
         style="stop-color:#bb1122;stop-opacity:1;"
         offset="0"
         id="stop1517" /></linearGradient><linearGradient
       inkscape:collect="always"
       xlink:href="#background"
       id="linearGradient1521"
       x1="0"
       y1="12.7"
       x2="38.099998"
       y2="12.7"
       gradientUnits="userSpaceOnUse" /><linearGradient
       inkscape:collect="always"
       xlink:href="#arms"
       id="linearGradient8758"
       x1="0.10335286"
       y1="4.0312786"
       x2="4.1299806"
       y2="4.0312786"
       gradientUnits="userSpaceOnUse" /><linearGradient
       inkscape:collect="always"
       xlink:href="#background"
       id="linearGradient8764"
       x1="1.1100098"
       y1="4.1323061"
       x2="3.1233234"
       y2="4.1323061"
       gradientUnits="userSpaceOnUse" /></defs><g
     inkscape:label="su"
     inkscape:groupmode="layer"
     id="layer1"
     transform="matrix(3.7795276,0,0,3.7795276,24,0)"><rect
       style="display:inline;fill:url(#linearGradient1521);fill-opacity:1.0;stroke:none;stroke-width:0.264999;stroke-linecap:round;stroke-dasharray:none"
       id="rect5982"
       width="38.099998"
       height="25.4"
       x="-6.3499999"
       y="0"
       inkscape:label="background" /><g
       id="g8809"
       inkscape:label="coat of arms"><g
         id="g8743"
         inkscape:label="star"
         style="stroke:none"><path
           id="path8731"
           style="display:inline;font-variation-settings:'wght' 700;fill-opacity:1.0;paint-order:stroke fill markers;fill-rule:evenodd;stroke:none;fill:url(#linearGradient8758)"
           d="M 2.1166666 2.1166666 L 1.6412435 3.5791097 L 0.10335286 3.5791097 L 1.3477213 4.4829305 L 0.87229817 5.9458902 L 2.1166666 5.0420694 L 3.3610351 5.9458902 L 2.8856119 4.4829305 L 4.1299804 3.5791097 L 2.5920898 3.5791097 L 2.1166666 2.1166666 z " /><path
           id="path8733"
           style="display:inline;font-variation-settings:'wght' 700;fill-opacity:1.0;paint-order:stroke fill markers;fill-rule:evenodd;stroke:none;stroke-opacity:1;fill:url(#linearGradient8764)"
           d="M 2.1166666 3.175 L 1.8789551 3.9062215 L 1.1100098 3.9062215 L 1.732194 4.3583903 L 1.4944824 5.0896118 L 2.1166666 4.637443 L 2.7388509 5.0896118 L 2.5011393 4.3583903 L 3.1233235 3.9062215 L 2.3543782 3.9062215 L 2.1166666 3.175 z " /></g><g
         style="display:inline;fill:#ffd700;fill-opacity:1"
         id="g2900"
         transform="matrix(0.05584154,0,0,0.05569588,-8.9560806,0.21256651)"
         inkscape:label="hammer and sickle"><path
           id="rect4165-6"
           d="m 137.43744,171.69421 18.86296,18.9937 17.78834,-17.66589 c 27.05847,29.021 55.43807,56.99501 82.28704,86.12782 4.03444,4.06233 10.59815,4.085 14.66056,0.0506 4.06232,-4.03445 4.08499,-10.59815 0.0506,-14.66056 -28.81871,-27.1901 -57.72545,-54.60143 -86.55328,-81.89095 l 23.96499,-23.80003 -33.34026,-4.61605 z"
           style="display:inline;fill:#ffd700;fill-opacity:1;stroke:none;stroke-width:0.489191;stroke-miterlimit:4;stroke-dasharray:none;stroke-dashoffset:0;stroke-opacity:1" /><path
           id="path4179-3"
           d="m 198.2887,110.1955 c 15.51743,8.7394 27.29872,21.28122 34.2484,34.3924 7.04394,13.28902 10.13959,27.16218 10.20325,38.25433 0.13054,22.74374 -18.43771,41.18184 -41.18183,41.18184 -12.13597,0 -23.04607,-5.24868 -30.58302,-13.60085 l -4.16863,3.51033 c -0.70999,-0.27231 -1.46387,-0.41221 -2.22429,-0.41276 -1.82948,1.9e-4 -3.56621,0.80531 -4.74859,2.20136 -2.97368,0.38896 -5.46251,2.44529 -6.40534,5.29224 -3.13486,6.28843 -8.63524,11.21997 -15.29104,13.4776 -0.0637,0.0216 -0.11992,0.05 -0.1758,0.0783 -3.07749,1.12758 -6.16259,3.1643 -8.78919,5.80245 -5.19155,5.23656 -7.72858,11.93658 -6.30024,16.63822 -0.14098,0.40857 -0.21361,0.83759 -0.21498,1.26979 1.5e-4,2.17082 1.75991,3.93058 3.93073,3.93073 0.54341,-0.002 1.08053,-0.11639 1.57745,-0.33632 4.69369,1.05881 11.06885,-1.54582 16.05444,-6.55917 2.82624,-2.85072 4.94356,-6.22349 5.98303,-9.53062 2.31696,-6.62278 7.29699,-12.01856 13.62281,-15.05312 0.15105,-0.0725 0.27303,-0.14714 0.38218,-0.22358 2.12082,-1.01408 3.67251,-2.92895 4.225,-5.2139 9.70222,11.44481 24.25255,18.75299 40.51876,19.13577 29.83352,0.70205 52.13299,-21.25802 53.16414,-52.83642 0.51894,-15.89259 -5.62993,-36.3847 -19.6412,-53.19089 -10.70835,-12.84441 -26.40987,-23.50795 -44.18699,-28.20777 z"
           style="fill:#ffd700;fill-opacity:1;stroke:none;stroke-width:0.500035;stroke-miterlimit:4;stroke-dasharray:none;stroke-dashoffset:0;stroke-opacity:1" /></g></g><g
       id="g28008"
       style="display:none;fill:none;stroke:#000000;stroke-width:0.0264583;stroke-linecap:round;stroke-linejoin:round;stroke-dasharray:none;stroke-opacity:1"
       inkscape:label="guides (hide me)"><rect
         style="font-variation-settings:'wght' 700;stroke-width:0.0264583;stroke-linecap:round;stroke-linejoin:round;stroke-dasharray:none;paint-order:stroke fill markers"
         id="rect1593"
         width="8.4666662"
         height="8.4666662"
         x="-2.1166666"
         y="6.3499999" /><path
         sodipodi:type="star"
         style="font-variation-settings:'wght' 700;display:inline;fill:none;fill-opacity:1;stroke:#000000;stroke-width:0.1;stroke-linecap:round;stroke-linejoin:round;stroke-dasharray:none;stroke-opacity:1;paint-order:stroke fill markers"
         id="path8694"
         inkscape:flatsided="true"
         sodipodi:sides="5"
         sodipodi:cx="32"
         sodipodi:cy="16"
         sodipodi:r1="8"
         sodipodi:r2="6.472136"
         sodipodi:arg1="-1.5707963"
         sodipodi:arg2="-0.9424778"
         inkscape:rounded="0"
         inkscape:randomized="0"
         d="m 32,8 7.608452,5.527864 -2.90617,8.944272 -9.404564,0 -2.90617,-8.944272 z"
         inkscape:transform-center-y="-0.76393205"
         transform="matrix(0.26458333,0,0,0.26458333,-6.3499999,0)" /><path
         sodipodi:type="star"
         style="font-variation-settings:'wght' 700;display:inline;fill:none;fill-opacity:1;stroke:#000000;stroke-width:0.1;stroke-linecap:round;stroke-linejoin:round;stroke-dasharray:none;stroke-opacity:1;paint-order:stroke fill markers"
         id="path8724"
         inkscape:flatsided="true"
         sodipodi:sides="5"
         sodipodi:cx="32"
         sodipodi:cy="16"
         sodipodi:r1="4"
         sodipodi:r2="3.236068"
         sodipodi:arg1="-1.5707963"
         sodipodi:arg2="-0.9424778"
         inkscape:rounded="0"
         inkscape:randomized="0"
         d="m 32,12 3.804226,2.763932 -1.453085,4.472136 -4.702282,0 -1.453085,-4.472136 z"
         inkscape:transform-center-y="-0.38196604"
         transform="matrix(0.26458333,0,0,0.26458333,-6.3499999,0)" /><g
         id="g7157"
         inkscape:label="hamsick redraw"
         style="display:none;stroke-width:0.0264583;stroke-dasharray:none"><g
           id="svgg"
           transform="matrix(0.10715627,0,0,0.10715627,-6.3499999,0)"
           style="display:none;fill:none;fill-opacity:1;stroke:#000000;stroke-width:0.246914;stroke-dasharray:none;stroke-opacity:1"
           inkscape:label="ref"><path
             id="path0"
             d="m 60.935,18.471 c -1.837878,3.215295 -2.912615,7.586098 -7.474176,6.868229 -3.786487,0.608738 -7.778676,0.774992 -11.438683,1.702349 3.641328,3.374506 7.459306,6.569385 11.143859,9.902422 -0.851009,4.656835 -1.94129,9.306507 -2.544,13.982 4.63634,-2.110224 9.209528,-4.35926 13.816,-6.535 4.710978,2.065869 9.257613,4.512117 14.001,6.491 C 77.762268,46.214942 76.702491,41.612279 75.881,36.969 79.493174,33.522953 83.434568,30.434166 87,26.941 81.943074,25.921591 76.679249,25.800139 71.679937,24.642703 68.987932,20.721431 67.116214,16.279864 64.533,12.28 c -1.351836,1.965213 -2.424106,4.117137 -3.598,6.191 z m -1.028,32.993 c -4.312903,0.695196 -8.68913,2.025485 -12.359906,4.433898 -1.842915,3.514651 4.108273,0.623984 5.902906,0.919102 7.925592,-0.740968 15.78368,2.833481 21.672968,7.952325 5.507708,5.353495 9.344383,12.596215 10.270811,20.253931 0.188025,4.422168 0.309168,9.128927 -1.538058,13.239433 C 81.098147,97.69812 78.66984,94.34223 76.103402,92.643396 67.900482,85.801525 59.553436,79.126376 51.497363,72.105824 50.749294,69.498138 58.320423,66.719997 53.611,64.6 c -2.451686,-3.683563 -6.166064,-1.715239 -9.445,-0.504 -2.775218,1.497221 -4.320854,4.55907 -6.607477,6.708145 -1.185867,1.523023 -3.306648,3.19126 -3.828235,4.806375 2.552354,2.188249 4.997227,4.733991 7.844212,6.41998 2.32748,-1.582164 4.186432,-6.89444 6.800178,-2.647506 9.630656,8.938343 19.393131,17.734568 28.970697,26.734756 1.368688,2.03605 -4.203958,3.76919 -5.921906,4.76023 -7.158416,2.75521 -15.429844,1.49344 -22.000469,-2.22451 1.732947,-2.66378 -1.200248,-9.629849 -4.572736,-5.94182 -1.882111,3.61978 -5.014765,-4.181 -7.20208,0.28565 -2.695885,2.59151 3.702153,6.10506 -0.286305,7.41612 -2.860722,1.72649 -7.008885,6.00778 -3.080051,8.92201 2.786636,3.12386 6.965131,0.44691 8.431979,-2.59527 2.101909,-4.21803 5.752881,2.57785 8.788021,2.713 6.282071,3.32823 13.842323,3.81583 20.739078,2.5068 5.264353,-1.2726 10.180794,-3.83143 14.279094,-7.36596 2.899816,2.49303 5.401329,5.57972 8.8,7.407 3.080249,10e-4 6.20301,-3.60922 6.95004,-6.41848 -1.53629,-3.3895 -5.131114,-5.22423 -7.80804,-7.65352 -2.979782,-2.54932 2.496675,-6.24007 2.283245,-9.617031 C 100.64757,84.349142 96.049614,68.195562 84.729141,58.951217 80.671497,55.486861 75.760108,53.007864 70.456991,52.091647 66.994294,51.402288 63.42752,51.098515 59.907,51.464 Z"
             stroke="none"
             fill="#dbab6b"
             fill-rule="evenodd"
             style="fill:none;fill-opacity:1;stroke:#000000;stroke-width:0.246914;stroke-dasharray:none;stroke-opacity:1"
             inkscape:label="path0" /></g><g
           id="g7079"
           inkscape:label="redraw"
           style="stroke-width:0.0264583;stroke-dasharray:none"><path
             style="font-variation-settings:'wght' 700;fill:none;fill-opacity:1;stroke:#000000;stroke-width:0.0264583;stroke-linecap:round;stroke-linejoin:round;stroke-dasharray:none;stroke-opacity:1;paint-order:stroke fill markers"
             d="M -1.4221354,8.2764973 C -1.5836383,8.4535928 -1.7451412,8.6306883 -1.9066441,8.8077838 -2.1950725,8.5651531 -2.4835008,8.3225225 -2.7719292,8.0798918 -2.4250356,7.6910982 -2.0781419,7.3023047 -1.7312483,6.9135111 -1.4759503,6.82289 -1.2206522,6.7322688 -0.96535422,6.6416477 -0.77534229,6.7946316 -0.58533036,6.9476156 -0.39531843,7.1005995 -0.55512332,7.2925603 -0.71492822,7.484521 -0.87473311,7.6764818 1.0049234,9.2472472 2.8845798,10.818013 4.7642363,12.388778 4.4884754,12.659667 4.2127146,12.930556 3.9369537,13.201445 2.1505907,11.559796 0.36422763,9.9181465 -1.4221354,8.2764973 Z"
             id="path7076"
             sodipodi:nodetypes="cccccccccc" /><path
             style="font-variation-settings:'wght' 700;fill:none;fill-opacity:1;stroke:#000000;stroke-width:0.0264583;stroke-linecap:round;stroke-linejoin:round;stroke-dasharray:none;stroke-opacity:1;paint-order:stroke fill markers"
             d="m -2.1668142,11.713505 c -0.3040191,0.211449 -0.6080382,0.422898 -0.9120573,0.634347 0.2046282,0.225091 0.4092564,0.450182 0.6138846,0.675273 0.2816075,-0.231912 0.563215,-0.463824 0.8448225,-0.695736 0.69898796,0.407793 1.44790734,0.851252 2.28752996,0.805352 C 1.4300243,13.106895 2.2328642,12.897884 2.8119874,12.378583 3.7270557,11.40737 4.2157816,10.001531 3.9426178,8.6769088 3.7463106,7.6492141 3.2429436,6.6170643 2.3600966,6.0145509 1.3322938,5.3774416 -0.05002351,5.3128655 -1.1139164,5.898437 -1.365387,5.9860286 -1.349162,6.2888686 -1.0476972,6.1721458 -0.4478861,6.0063115 0.19883828,6.052882 0.76601987,6.310941 1.6770549,6.6952331 2.2919885,7.5641923 2.6266639,8.4665442 2.904085,9.212556 2.8925553,10.078579 2.4813009,10.775084 c -0.3396545,0.666447 -1.0022966,1.15931 -1.75302942,1.23293 -0.62305592,0.07641 -1.26662635,-0.07222 -1.81092338,-0.377143 -0.1142575,-0.240872 0.31156907,-0.504744 -0.038868,-0.6227 -0.1091914,-0.06087 -0.2223552,-0.239588 -0.3239712,-0.07572 -0.105981,0.04571 -0.2048409,0.262556 -0.3161852,0.179368 -0.1141959,-0.0797 -0.2283918,-0.159399 -0.3425877,-0.239098 -0.1570963,0.125402 -0.3141927,0.250803 -0.471289,0.376205 0.1362464,0.15486 0.2724927,0.309719 0.4087388,0.464579 z"
             id="path7103"
             sodipodi:nodetypes="ccccaaaaascsaasscccccc" /></g></g><path
         style="font-variation-settings:'wght' 700;fill:none;fill-opacity:1;stroke:#000000;stroke-width:0.0264583;stroke-linecap:round;stroke-linejoin:round;stroke-dasharray:none;stroke-opacity:1;paint-order:stroke fill markers"
         d="M 2.1166667,2.1166666 0.87252123,5.9457526 4.1297362,3.5792473 H 0.10359709 L 3.3608121,5.9457526 Z"
         id="path8727" /><path
         style="font-variation-settings:'wght' 700;fill:none;fill-opacity:1;stroke:#000000;stroke-width:0.0264583;stroke-linecap:round;stroke-linejoin:round;stroke-dasharray:none;stroke-opacity:1;paint-order:stroke fill markers"
         d="M 2.1166667,3.175 1.4945939,5.0895429 3.1232014,3.9062903 H 1.1101319 l 1.6286075,1.1832526 z"
         id="path8729" /></g></g></svg>
