<svg height="2222.2268" viewBox="0 0 3333.3333 2222.2268" width="3333.3333" xmlns="http://www.w3.org/2000/svg"><g transform="matrix(1.3333333 0 0 -1.3333333 0 2222.2267)"><g fill="#003897"><path d="m1100 0h1400v630.333h-1400z"/><path d="m0 0h700v630.333h-700z"/><path d="m1100 1030.333h1400v636.333h-1400z"/><path d="m0 1030.333h700v636.333h-700z"/></g><g fill="#fff"><path d="m700 1030.333h100v636.333h-100z"/><path d="m1100 930.333h1400v100h-1400z"/><path d="m0 930.334h700v100h-700z"/><path d="m800 1030.333h-100v-100h100z"/><path d="m1000 1030.333h100v636.333h-100z"/><path d="m1000 630.333h100v100h-100z"/><path d="m1000 930.333h100v100h-100z"/><path d="m1000 0h100v630.333h-100z"/><path d="m1100 630.333h1400v100h-1400z"/><path d="m700 630.333h100v100h-100z"/><path d="m700 0h100v630.333h-100z"/><path d="m0 630.333h700v100h-700z"/></g><g fill="#d72828"><path d="m1000 1030.333h-200v-100h200z"/><path d="m800 930.333h-100v-200h100z"/><path d="m800 730.333h200v200h-200z"/><path d="m800 0h200v630.333h-200z"/><path d="m0 730.333h700v200.001h-700z"/><path d="m1100 730.333h1400v200h-1400z"/><path d="m800 630.333h200v100h-200z"/><path d="m800 1030.333h200v636.333h-200z"/><path d="m1000 730.333h100v200h-100z"/></g></g></svg>