<?xml version="1.0" encoding="UTF-8" standalone="no"?>
<!-- Created with Inkscape (http://www.inkscape.org/) -->

<svg
   width="135"
   height="135"
   viewBox="0 0 122.72728 122.72728"
   version="1.1"
   id="svg1"
   inkscape:version="1.4 (e7c3feb1, 2024-10-09)"
   sodipodi:docname="logo copy.svg"
   inkscape:export-filename="logo.png"
   inkscape:export-xdpi="96"
   inkscape:export-ydpi="96"
   xmlns:inkscape="http://www.inkscape.org/namespaces/inkscape"
   xmlns:sodipodi="http://sodipodi.sourceforge.net/DTD/sodipodi-0.dtd"
   xmlns:xlink="http://www.w3.org/1999/xlink"
   xmlns="http://www.w3.org/2000/svg"
   xmlns:svg="http://www.w3.org/2000/svg">
  <sodipodi:namedview
     id="namedview1"
     pagecolor="#ffffff"
     bordercolor="#000000"
     borderopacity="0.25"
     inkscape:showpageshadow="2"
     inkscape:pageopacity="0.0"
     inkscape:pagecheckerboard="0"
     inkscape:deskcolor="#d1d1d1"
     inkscape:document-units="mm"
     showguides="false"
     inkscape:current-layer="layer1"
     showgrid="false" />
  <defs
     id="defs1">
    <linearGradient
       id="linearGradient4"
       inkscape:collect="always">
      <stop
         style="stop-color:#efd6a4;stop-opacity:1;"
         offset="0"
         id="stop4" />
      <stop
         style="stop-color:#efbbf6;stop-opacity:1;"
         offset="1"
         id="stop5" />
    </linearGradient>
    <linearGradient
       id="linearGradient1"
       inkscape:collect="always">
      <stop
         style="stop-color:#efd6a4;stop-opacity:1;"
         offset="0"
         id="stop1" />
      <stop
         style="stop-color:#efbbf6;stop-opacity:1;"
         offset="1"
         id="stop2" />
    </linearGradient>
    <clipPath
       clipPathUnits="userSpaceOnUse"
       id="clipPath16">
      <circle
         style="fill:#da4704;stroke:#0c1a2c;stroke-width:1.72658;stroke-linejoin:round;stroke-miterlimit:4.8;stroke-opacity:0.0686131"
         id="circle16"
         cx="666.66663"
         cy="654"
         r="649.13672" />
    </clipPath>
    <linearGradient
       inkscape:collect="always"
       xlink:href="#linearGradient1"
       id="linearGradient2"
       x1="-30.003248"
       y1="578.65802"
       x2="224.30498"
       y2="454.62363"
       gradientUnits="userSpaceOnUse" />
    <linearGradient
       inkscape:collect="always"
       xlink:href="#linearGradient4"
       id="linearGradient5"
       x1="-30.003143"
       y1="578.65778"
       x2="224.30507"
       y2="454.62338"
       gradientUnits="userSpaceOnUse" />
  </defs>
  <g
     inkscape:label="Layer 1"
     inkscape:groupmode="layer"
     id="layer1"
     transform="translate(135.57631,-283.91333)">
    <g
       id="g1"
       transform="matrix(0.26367188,0,0,0.26367188,-99.828649,209.05338)">
      <circle
         style="fill:#222250;fill-opacity:1;stroke:none;stroke-width:63.0793;stroke-linejoin:round;stroke-miterlimit:4.8"
         id="path2"
         cx="97.15097"
         cy="516.64062"
         r="232.72728" />
      <path
         style="fill:#008000"
         d="M 0.18511384,986.33333 C 0.28874087,806.26381 0.85252446,670.82944 1.4658628,678.66667 4.4247299,716.475 5.6424562,728.78763 8.1182852,745.93038 38.066413,953.2926 166.2431,1132.1399 355.76578,1231.0093 c 11.4062,5.9503 20.91831,10.1433 21.53227,9.4916 1.22263,-1.298 4.56976,-32.7988 6.85356,-64.5009 2.00157,-27.7844 0.79081,-84.12 -2.07754,-96.6667 -3.18815,-13.9455 -7.9736,-22.8197 -14.53876,-26.9609 -13.69747,-8.6401 -16.76451,-11.0732 -28.20137,-22.3724 -17.07253,-16.8671 -36.67895,-42.54954 -55.93432,-73.26842 -14.53374,-23.18628 -14.33783,-29.9511 1.47257,-50.85017 12.19424,-16.11902 16.15974,-24.45902 18.16215,-38.19753 1.28893,-8.84337 1.2219,-11.10019 -0.41537,-13.98494 -3.17141,-5.58779 -7.91423,-8.20497 -20.48753,-11.30542 l -11.86854,-2.92666 -3.5976,4.30934 c -3.50443,4.19774 -3.6701,4.2478 -6.39739,1.93323 -1.53988,-1.30685 -6.51946,-9.7884 -11.06573,-18.84788 -13.37442,-26.65157 -23.10268,-35.25293 -47.66696,-42.1453 -6.85562,-1.92359 -14.14821,-4.74206 -16.20575,-6.26326 -3.50768,-2.59334 -5.64067,-2.77839 -34.2019,-2.96725 -28.55612,-0.18883 -30.80477,-0.38383 -35.95986,-3.11845 -13.92764,-7.3882 -16.540668,-14.69011 -23.848051,-66.64172 -5.294567,-37.64157 -14.336712,-52.93853 -29.101823,-49.23272 -6.038716,1.51562 -6.901694,7.08767 -3.1614,20.4124 4.488393,15.98982 5.085623,19.88083 3.636521,23.69226 -1.683511,4.42797 -7.246648,7.88726 -11.120495,6.91498 -6.779386,-1.70151 -10.566111,-13.42285 -17.573951,-54.398 -1.212071,-7.08703 -2.907583,-13.76579 -3.767806,-14.84168 -1.099299,-1.37492 -5.599841,-2.20165 -15.146142,-2.78231 L 1.5024608,634.66437 0.96461317,638.99885 C 0.66879695,641.38282 0.33074326,498.58333 0.21338275,321.66667 L 0,0 h 666.66663 666.66667 l -0.2355,321.66667 c -0.1295,176.91666 -0.5795,317.46666 -1,312.33333 l -0.7645,-9.33333 L 1326.451,634 c -4.4848,8.57347 -5.8492,13.604 -5.3188,19.61046 0.1106,1.25242 2.9011,3.85944 6.2011,5.79336 l 6,3.51624 V 985.46003 1308 l -329,-0.1976 c -180.95002,-0.1087 -320.60001,-0.6725 -310.33334,-1.2529 95.22241,-5.383 173.97734,-24.2582 255.46004,-61.2261 20.99344,-9.5245 53.2066,-26.881 53.2066,-28.6677 0,-0.8111 -1.2105,-8.0404 -2.69006,-16.0652 -4.78205,-25.9371 -7.9766,-56.4205 -7.9766,-76.1151 0,-27.1801 2.01051,-35.0749 12.00536,-47.1421 14.9172,-18.0101 18.5731,-39.7122 14.1102,-83.75942 -1.6986,-16.76412 -2.0337,-18.03448 -5.9788,-22.66667 -12.91615,-15.16558 -14.29108,-21.69106 -9.4937,-45.05775 6.2934,-30.65339 0.2614,-40.64192 -32.15948,-53.25402 -10.14522,-3.9466 -16.70857,-7.30839 -18.3551,-9.40161 l -2.56298,-3.2583 -9.11608,3.46694 c -39.15369,14.89055 -78.54231,23.54797 -88.73435,19.50334 -6.90255,-2.73921 -32.47187,-39.36876 -40.83766,-58.50234 -8.44254,-19.30913 -11.20142,-31.8503 -11.11368,-50.52008 0.0857,-18.24255 2.04857,-43.57737 5.05273,-65.21672 1.78401,-12.85045 2.71387,-15.82245 7.509,-24 9.96772,-16.99884 29.48976,-34.53023 44.6437,-40.09141 3.5003,-1.28453 7.11418,-3.25414 8.03085,-4.3769 1.14828,-1.40644 1.66666,-7.58127 1.66666,-19.85275 0,-13.92933 0.47898,-18.7414 2.19762,-22.07849 5.48244,-10.64527 13.91868,-18.11495 24.62486,-21.80353 3.09914,-1.06774 12.28192,-2.5179 20.40616,-3.22257 17.72191,-1.53715 26.17348,-4.10791 32.61952,-9.92205 l 4.81851,-4.34616 24.66666,1.14471 c 13.56667,0.62959 29.61516,1.51445 35.66326,1.96634 l 10.9966,0.82163 4.2238,13.86151 c 4.2216,13.85452 4.2261,13.8619 9.0034,14.64162 15.5415,2.5366 29.4463,8.86379 29.4463,13.39915 0,3.25807 6.2451,14.2532 10.8013,19.01685 2.3627,2.47021 6.3908,5.36664 8.9513,6.43652 4.1469,1.73269 5.2831,1.7056 10.3984,-0.24794 7.7032,-2.9419 11.4712,-8.99985 10.9218,-17.55945 -0.3761,-5.85999 -0.1332,-6.42722 3.2769,-7.65453 2.4802,-0.89263 6.9741,-0.85142 13.76,0.12619 11.029,1.5889 16.5569,5.10961 16.5569,10.5451 0,7.32735 3.3047,7.95269 49.1985,9.30988 27.4462,0.81165 28.4954,0.74945 27.5763,-1.63498 -3.492,-9.05967 -3.9164,-13.55525 -1.6118,-17.07261 1.2713,-1.94016 3.7403,-4.17862 5.4867,-4.97435 2.6752,-1.21887 3.309,-2.73207 4.0235,-9.60595 0.4664,-4.48754 0.6558,-12.25623 0.4208,-17.26375 l -0.4273,-9.10458 -29.8972,0.0684 c -16.4434,0.0376 -30.3163,0.53468 -30.8286,1.10458 -0.5123,0.5699 -1.9752,4.43713 -3.251,8.59385 -1.2758,4.15671 -3.4884,9.47947 -4.9168,11.82834 -2.2575,3.71203 -3.1537,4.17993 -6.8518,3.57688 -6.5624,-1.07015 -19.5201,-7.23461 -20.4833,-9.7447 -1.8721,-4.87852 6.7518,-11.34517 16.7035,-12.52525 5.7184,-0.6781 5.8531,-0.80717 6.2887,-6.02627 0.2448,-2.93333 1.1232,-12.62935 1.9519,-21.5467 1.0447,-11.24035 1.0833,-17.00471 0.1261,-18.79337 -1.9023,-3.55447 -21.3537,-7.88336 -25.4859,-5.67186 -3.3754,1.80647 -3.114,2.97649 4.0856,18.28662 8.1922,17.42089 8.3012,16.63923 -2.8198,20.221 -8.928,2.87546 -15.9547,3.01699 -15.9547,0.32137 0,-0.62268 -3.0725,-5.11206 -6.8277,-9.9764 -6.5279,-8.45591 -6.754,-9.02224 -5.1488,-12.8974 1.1221,-2.70901 1.4451,-7.79891 0.9741,-15.34835 l -0.7046,-11.29522 -15.8508,-15.64985 c -8.718,-8.60741 -20.6339,-20.91322 -26.4799,-27.34624 -12.3303,-13.56855 -17.3418,-15.85842 -21.3428,-9.75205 -2.1733,3.31686 -2.1704,3.82748 0.055,9.65586 4.3938,11.505 17.4956,29.14751 30.6951,41.33319 12.9672,11.97111 16.3434,17.44032 14.7312,23.86354 -0.6179,2.46204 -1.7122,3.26435 -4.4601,3.26996 -7.3831,0.0151 -13.5784,2.6114 -14.442,6.05237 -1.0112,4.02859 -4.8386,4.30081 -8.5326,0.60686 -3.3122,-3.3122 -3.3122,-4.1742 0,-10.66666 1.4667,-2.87491 2.6667,-6.42504 2.6667,-7.88918 0,-1.72319 -5.2466,-7.25579 -14.876,-15.68701 -14.2818,-12.50465 -22.4573,-21.65215 -22.4573,-25.12727 0,-5.56614 -10.7663,-6.27984 -29.10857,-1.92961 -13.18842,3.1279 -22.24539,8.65236 -34.98874,21.34201 -10.25094,10.20772 -15.81815,20.52204 -16.51479,30.59674 -0.42646,6.16749 -1.18766,7.74752 -6.26999,13.01466 -7.47115,7.74282 -15.76398,13.84978 -17.41851,12.82722 -0.71542,-0.44215 -9.6638,-1.18124 -19.88528,-1.64241 l -18.58451,-0.83849 -4.75966,-11.04207 -4.75965,-11.04208 5.06611,-21.95792 5.06612,-21.95793 h 29.07872 29.07873 l -0.0601,-9.66666 c -0.0868,-13.95716 -1.50212,-16.30124 -14.62049,-24.21524 -11.04259,-6.66173 -17.85802,-13.82962 -16.50418,-17.35768 0.58252,-1.51804 16.85923,-11.1042 35.18481,-20.72208 17.38909,-9.12639 24.08306,-15.94513 29.40184,-29.94988 4.79451,-12.62432 9.72257,-20.27625 15.6165,-24.24817 4.09646,-2.7606 4.5679,-2.79262 13.28111,-0.90209 6.44923,1.39932 13.61133,1.75856 25.03383,1.25564 18.759,-0.82595 56.7108,-5.56426 63.1376,-7.88279 4.3836,-1.58143 4.454,-1.73042 3.6036,-7.62866 -2.4719,-17.14477 -2.441,-19.26753 0.3309,-22.69677 2.4435,-3.02296 3.8436,-3.3784 15.6996,-3.98562 12.8808,-0.65969 13.03,-0.70621 14.2725,-4.44986 0.9438,-2.84339 0.6748,-5.0715 -1.0829,-8.96936 -1.9476,-4.31901 -2.0462,-5.53856 -0.5896,-7.29366 3.6092,-4.34884 13.3311,-8.76058 22.7648,-10.33052 8.6923,-1.44656 9.8423,-1.98613 10.564,-4.9566 1.6357,-6.73267 -4.5386,-22.63045 -8.7996,-22.65755 -0.7878,-0.005 -5.7079,4.47195 -10.9335,9.9488 -12.6248,13.23179 -18.4043,14.56343 -22.7961,5.25243 -1.0058,-2.13235 -4.0707,-6.27701 -6.811,-9.21034 -2.7402,-2.93334 -5.3641,-6.42409 -5.8308,-7.75723 -1.3787,-3.93778 2.8967,-21.53417 9.917,-40.81665 6.882,-18.90244 7.8817,-24.63115 4.523,-25.92 -3.2185,-1.23504 -16.035,4.20797 -23.1484,9.8308 -11.1423,8.80748 -15.1674,16.2676 -14.9592,27.72574 0.1865,10.26281 -3.5009,16.8194 -10.8262,19.25036 -4.8924,1.62354 -5.7604,2.47565 -6.1109,5.99884 -0.3675,3.69363 0.2452,4.46232 6.0941,7.64569 3.5765,1.94656 7.5506,5.31323 8.8314,7.48148 2.0412,3.45534 2.1343,4.88626 0.7537,11.58495 -2.5463,12.35587 -6.304,17.7553 -13.5544,19.47655 -5.0887,1.20809 -7.5216,9.30992 -5.2952,17.63409 2.182,8.15841 2.0831,8.53204 -2.2582,8.53204 -2.1105,0 -6.0242,0.91378 -8.6971,2.03062 -5.7174,2.38887 -8.4813,1.36652 -12.835,-4.74765 -2.205,-3.09666 -3.1471,-7.08053 -3.9838,-16.8462 -1.6401,-19.14254 -3.748,-20.07191 -19.1502,-8.44312 -8.26476,6.23995 -10.5005,6.50202 -17.11647,2.00635 C 987.6822,297.5 984.93591,296 984.27733,296 c -2.99045,0 -5.50441,-5.4787 -6.79455,-14.80747 -0.77135,-5.57745 -2.06034,-11.87121 -2.86443,-13.98613 -2.75197,-7.23821 -0.69624,-11.08363 14.1879,-26.53973 7.76815,-8.06667 18.74485,-19.46667 24.39255,-25.33334 10.8779,-11.29951 18.8422,-20.85104 21.2255,-25.45554 0.7939,-1.53389 1.797,-5.73389 2.2291,-9.33334 1.3307,-11.08576 3.571,-19.59706 6.9145,-26.26958 3.226,-6.43798 13.0712,-17.39321 18.9231,-21.05674 3.118,-1.95198 2.9502,-2.12112 -13.3333,-13.44072 C 988.00455,77.266435 913.34924,43.110431 838.66662,23.474381 815.19133,17.302102 779.77909,10.317511 778.63348,11.633645 c -1.57635,1.810999 -5.30019,12.325026 -5.30019,14.964765 0,4.381365 3.70256,6.734923 10.59523,6.734923 6.10667,0 6.44355,0.193928 7.2381,4.166667 2.46717,12.335843 -0.7116,43.838198 -5.79429,57.422928 -4.5023,12.033462 -5.04161,12.270962 -27.29631,12.020432 l -19.16976,-0.2158 -1.45315,4.16852 c -1.83903,5.27544 -1.84364,9.45475 -0.0149,13.4685 1.31554,2.88729 2.89812,3.34662 18.54222,5.38175 22.92285,2.98202 24.01948,3.45168 24.01948,10.28688 0,6.21133 -2.86707,12.59998 -6.53569,14.56336 -1.47601,0.78994 -6.86174,1.00656 -13.08811,0.52641 -12.28072,-0.94702 -14.96186,-0.23923 -35.0257,9.24632 -7.69056,3.63586 -16.99156,7.94125 -20.66888,9.56753 -7.911,3.49862 -13.88157,9.90035 -19.36552,20.76398 -4.20646,8.33296 -4.35342,8.42253 -16.38296,9.98479 -3.52011,0.45715 -9.29559,1.69102 -12.83439,2.74193 l -6.43418,1.91075 -4.20006,15.26363 c -7.35632,26.73392 -13.09098,40.02528 -21.08871,48.87782 -9.80002,10.84745 -19.52397,12.23188 -31.2418,4.44799 -10.4241,-6.92449 -30.58285,-28.07656 -36.89244,-38.71031 -7.42642,-12.51598 -9.57488,-19.2479 -9.57488,-30.0017 0,-13.98176 3.67639,-22.17729 15.49979,-34.55271 5.40845,-5.66096 9.83355,-10.62945 9.83355,-11.04109 0,-0.41164 -2.11525,-1.44653 -4.70054,-2.29976 -7.74237,-2.55521 -12.6328,-7.51137 -12.6328,-12.80259 0,-4.96991 -0.53973,-4.57932 14,-10.13139 6.69439,-2.55628 8.06629,-3.62667 8.40619,-6.55867 0.51375,-4.4318 -3.05665,-5.53163 -12.90404,-3.97496 -5.44506,0.86074 -7.44239,0.68141 -8.92519,-0.80139 -2.47051,-2.47051 -2.44575,-2.77882 1.42304,-17.71982 1.80394,-6.96666 3.29191,-13.747447 3.30661,-15.068405 0.0147,-1.320958 -3.05631,-5.559604 -6.82447,-9.419213 -4.8033,-4.919879 -7.94615,-9.781626 -10.51437,-16.264924 l -3.66319,-9.247455 -18.77807,-0.369692 -18.77807,-0.369693 -3.42842,6.765674 c -1.88564,3.72112 -4.45403,7.075724 -5.70755,7.454675 -1.25352,0.37895 -4.23097,1.646231 -6.61655,2.816178 -3.26895,1.603179 -5.08449,1.786788 -7.37017,0.745362 -4.15689,-1.894006 -9.87611,-14.129226 -13.75834,-29.433442 -1.77957,-7.015258 -3.48968,-13.009122 -3.80026,-13.319697 -0.31057,-0.310575 -5.39827,1.045051 -11.30599,3.012502 -9.60269,3.197988 -10.60102,3.839314 -9.4179,6.050004 1.96383,3.669448 1.60646,10.315323 -0.8309,15.451665 -2.11955,4.466624 -11.51782,13.232952 -17.63031,16.444844 -6.77335,3.559146 -13.41366,10.990255 -15.53926,17.389845 -4.16237,12.531732 -11.23762,16.148112 -26.42016,13.504192 -17.7707,-3.09463 -20.20016,-2.07267 -24.18619,10.17402 C 352.56695,124.36347 348.23334,128 340.68542,128 c -5.52704,0 -15.95142,-4.46535 -21.03762,-9.01161 -2.95951,-2.64532 -2.14107,-5.40572 4.44392,-14.98839 2.77162,-4.033333 5.45622,-8.780904 5.96578,-10.550158 0.91988,-3.193891 0.87069,-3.185465 -6.89885,1.181885 -13.02132,7.319433 -41.56654,26.351053 -57.80599,38.540323 -8.4227,6.32204 -15.86761,11.88868 -16.54424,12.37032 -0.71237,0.50707 -0.32177,2.79017 0.92789,5.42364 1.18698,2.50136 2.87225,9.0073 3.74506,14.45763 0.90455,5.64854 3.50723,13.92102 6.05277,19.23839 5.15853,10.77565 5.50805,14.29576 1.78875,18.01506 -2.27094,2.27095 -3.76007,2.5498 -9.81562,1.83809 -7.9514,-0.93453 -7.46546,-1.30511 -15.59652,11.89402 -4.61603,7.4932 -9.98453,10.25747 -19.92106,10.25747 -8.70685,0 -15.64886,-3.55047 -25.74423,-13.16682 L 182.37202,206 l -9.51935,10.08212 c -5.23564,5.54516 -12.06831,13.12719 -15.18371,16.84895 l -5.66436,6.76684 5.93895,0.8906 c 3.26643,0.48983 7.64921,1.74379 9.73952,2.78657 5.73162,2.85931 20.3659,4.56907 39.35974,4.59851 18.97854,0.0294 23.72866,-1.21072 29.10326,-7.59807 6.11341,-7.26538 8.92715,-8.33756 21.24195,-8.09425 15.25472,0.3014 22.48721,-2.28087 32.21283,-11.50116 11.56288,-10.96209 26.12783,-15.34547 38.39033,-11.55372 7.25386,2.243 12.73331,1.73034 21.65892,-2.02639 18.73846,-7.88691 26.39964,-1.21617 20.17009,17.56248 -4.58383,13.81771 -12.75881,19.23048 -29.06221,19.2425 -9.55312,0.007 -13.50674,2.95597 -24.73602,18.45004 -7.65167,10.55772 -11.519,14.57295 -18.19393,18.88972 -8.68301,5.61541 -13.46172,11.35986 -19.65979,23.63286 -6.61575,13.10005 -9.53684,30.71901 -5.83492,35.19419 3.08734,3.73222 9.31349,6.78504 24.19381,11.86275 18.48199,6.30673 26.87135,9.91352 28.25096,12.14578 0.58953,0.95388 1.10563,7.75354 1.14689,15.11034 0.0528,9.41727 0.80582,15.47341 2.54432,20.46282 2.80455,8.04889 11.07163,17.57985 15.24863,17.57985 5.48683,0 7.03932,-4.27671 11.75979,-32.39534 l 2.19281,-13.06201 9.66661,-4.5872 c 13.89416,-6.59335 14.30254,-7.48853 15.49039,-33.95545 1.57722,-35.14255 4.2416,-46.71337 12.07378,-52.43395 2.92855,-2.139 6.39346,-2.70871 19.33333,-3.17885 19.37165,-0.70382 22.40633,0.66576 27.81391,12.55273 6.9211,15.21398 7.65393,16.467 11.54633,19.74224 5.65888,4.76163 9.81295,4.27758 15.56195,-1.81337 2.66373,-2.82216 5.77353,-6.50728 6.91068,-8.18916 1.76555,-2.61132 2.48783,-2.83302 4.94516,-1.5179 3.36572,1.80128 12.20593,13.892 20.82247,28.47882 10.8763,18.41233 23.49816,43.23241 23.49816,46.20762 0,4.50874 -3.15113,10.93421 -8.47334,17.27797 -5.33563,6.35976 -5.95162,8.20719 -2.73653,8.20719 3.35567,0 18.3677,16.00767 21.66147,23.09814 6.90635,14.86717 5.15071,18.63775 -8.63783,18.55143 -5.10488,-0.032 -11.42377,-0.95315 -14.04196,-2.0471 -4.22838,-1.76673 -4.86466,-2.68462 -5.6938,-8.21367 -0.59881,-3.99317 -2.27529,-7.72645 -4.67647,-10.41384 -3.71342,-4.15604 -3.88762,-4.19952 -22.01693,-5.49513 -20.11474,-1.4375 -39.53987,0.104 -42.83508,3.39922 -1.64075,1.64075 -0.9049,3.39688 5.44329,12.9905 6.05135,9.14503 7.34052,12.10401 7.34052,16.84842 0,8.69381 3.99268,11.28203 17.40409,11.28203 5.7078,0 11.32688,0.36419 12.48686,0.80932 8.40181,3.22407 -7.42678,16.66879 -30.3406,25.77113 -18.06209,7.17504 -29.68268,6.73786 -32.20574,-1.2116 -1.33758,-4.21434 -2.78212,-3.23561 -5.35932,3.63115 -2.94339,7.84243 -11.46958,23.63434 -16.538,30.6311 -4.4639,6.16223 -17.2358,15.57049 -30.64781,22.57632 -7.74907,4.04776 -11.17046,5.04641 -18.15329,5.29865 -4.7325,0.17095 -9.21392,0.68743 -9.9587,1.14773 -1.91169,1.18149 -1.68027,11.12106 0.52159,22.40241 3.98304,20.40733 4.23187,18.86357 -3.69105,22.90047 -8.08535,4.11965 -21.96395,18.94651 -26.24981,28.04332 -2.61671,5.554 -4.83639,14.31882 -7.2598,28.66666 -4.42244,26.18317 -5.68461,31.14961 -8.75349,34.44367 -3.34088,3.58601 -6.44702,2.4812 -11.25492,-4.00322 -6.41643,-8.65384 -17.41791,-17.98679 -26.43541,-22.42609 -12.63304,-6.21922 -31.78562,-9.73887 -48.89792,-8.9859 -16.33863,0.71892 -23.82266,3.38036 -30.32237,10.78312 -6.7537,7.69204 -7.67662,12.99783 -7.68643,44.18842 -0.005,15.4 -0.508,29.84079 -1.11813,32.09065 -1.58643,5.84998 3.43165,11.46806 12.90474,14.44771 9.26428,2.91397 13.59468,1.85371 16.3771,-4.00981 3.01385,-6.35123 14.61864,-17.48405 22.51176,-21.59621 9.31716,-4.85405 22.37003,-5.07959 26.1178,-0.45129 3.50551,4.32912 3.21348,7.11254 -2.1178,20.18562 -5.94444,14.57661 -5.92309,15.65153 0.33333,16.78505 8.613,1.56048 18.43091,5.7705 21.78038,9.33965 2.99638,3.1929 3.17461,4.18576 2.57051,14.3197 -1.05321,17.66811 -0.57037,28.61627 1.36491,30.94814 1.48648,1.7911 3.54645,1.99173 12.65752,1.23279 14.36458,-1.19657 17.15925,0.28923 25.76858,13.69992 9.37671,14.60602 11.39556,16.93212 13.8711,15.98217 1.16623,-0.44753 5.55893,-5.98115 9.76154,-12.29693 10.74473,-16.14746 30.58897,-32.67716 39.22959,-32.67716 2.0272,0 5.82267,2.76199 10.94628,7.96569 10.33069,10.49217 13.35134,11.26804 39.23712,10.07833 14.1781,-0.65162 20.45762,-0.49083 21.0948,0.54015 0.49899,0.80738 0.20755,3.5881 -0.64765,6.17938 -2.1158,6.41094 -0.85002,10.33919 5.57894,17.31379 7.09501,7.69717 16.28574,12.7885 31.1197,17.23918 22.09127,6.62811 38.11418,17.18234 44.52794,29.3304 3.99827,7.57298 3.6116,14.28604 -1.31928,22.90431 -4.77309,8.34249 -4.38018,11.11544 1.57498,11.11544 5.09519,0 47.91818,10.77681 64.54968,16.24454 27.18714,8.93797 46.05752,21.68982 53.7471,36.32016 3.16189,6.01586 3.55913,8.25149 3.57189,20.10197 0.0183,17.01283 -2.50317,22.58793 -16.95851,37.49613 -6.30131,6.4986 -10.41413,11.8307 -10.28451,13.3333 0.97389,11.2897 0.25131,22.168 -1.93762,29.1706 -4.6842,14.985 -15.20675,34.8151 -22.56057,42.5159 -6.38148,6.6827 -7.9329,7.5489 -20.24444,11.3028 -7.33333,2.236 -16.89572,4.988 -21.24975,6.1155 -4.35404,1.1274 -8.39485,2.8035 -8.97959,3.7245 -0.58474,0.921 -1.07235,5.7439 -1.08358,10.7174 -0.0246,10.879 -2.49931,17.4315 -7.58204,20.0753 -2.07444,1.079 -5.25144,3.5456 -7.06,5.4814 -2.99798,3.2087 -3.30941,4.694 -3.52735,16.8222 -0.15423,8.5824 -0.84955,14.0383 -1.95953,15.3757 -2.30166,2.7733 -7.74049,1.6683 -20.57444,-4.1803 -6.0884,-2.7746 -12.23029,-4.6171 -15.39092,-4.6171 -4.76392,0 -5.25946,0.3239 -5.25946,3.438 0,2.2154 1.89671,5.373 5.33333,8.8789 6.33862,6.4663 6.7479,10.2435 1.81129,16.7157 -4.82818,6.3301 -13.14189,9.8576 -20.76881,8.8122 -5.59828,-0.7674 -6.01094,-0.6004 -7.42775,3.0047 -0.82507,2.0994 -2.36665,8.9172 -3.42572,15.1505 -1.05907,6.2333 -2.31277,12.2888 -2.78602,13.4566 -0.70733,1.7455 2.41279,3.1125 17.53495,7.6823 47.29673,14.2927 94.79541,23.2885 141.72872,26.8423 10.63333,0.8051 25.63333,1.9554 33.33333,2.5562 7.79328,0.6081 -131.85781,1.1744 -314.99998,1.2775 L 0,1308 Z M 1224.8156,1010.3262 c 17.6471,-26.71568 49.88,-85.40832 47.9594,-87.32889 -1.3586,-1.35858 -13.3071,6.88501 -22.3667,15.43139 -15.9705,15.06583 -25.4041,31.96744 -30.5079,54.65945 -1.8422,8.19065 -3.5879,28.20935 -2.3957,27.47255 0.5117,-0.3162 3.8016,-4.9217 7.3109,-10.2345 z m 81.851,-174.98619 c 0,-0.363 2.1459,-8.81708 4.7687,-18.78685 2.6228,-9.96978 4.5398,-18.35572 4.2601,-18.63544 -0.2797,-0.27971 -4.6756,0.96172 -9.7687,2.75873 -10.9646,3.8687 -16.8892,4.17064 -20.0386,1.02125 -5.4611,-5.46111 -15.2058,-34.55936 -15.2419,-45.51352 -0.025,-7.4486 -0.2925,-7.87891 -8.293,-13.32248 -3.4723,-2.3626 -6.9941,-5.5678 -7.8263,-7.12267 -0.8321,-1.55486 -1.9292,-11.59538 -2.4379,-22.31225 -0.8488,-17.88115 -1.2316,-20.0486 -4.6497,-26.3289 -3.2086,-5.89525 -16.2184,-23.94621 -25.6862,-35.63922 -5.5993,-6.91536 -17.7863,-5.82312 -17.7215,1.58825 0.041,4.73618 4.8968,16.40951 11.0135,26.47876 15.9054,26.18315 35.884,76.61716 56.2701,142.04851 l 3.6061,11.57418 8.8727,0.83048 c 4.8799,0.45676 10.0726,1.01667 11.5393,1.24424 4.702,0.72958 11.3333,0.798 11.3333,0.11693 z m -109.3273,-333.355 c 2.1383,-5.2682 3.8618,-7.56902 6.0889,-8.12797 3.5292,-0.88579 13.0256,3.28814 24.9577,10.96965 l 7.7192,4.96942 9.6141,-2.24848 c 5.2877,-1.23666 10.5906,-2.24079 11.7841,-2.23139 1.1936,0.009 2.8384,-0.78811 3.6551,-1.77225 2.0737,-2.49865 -4.0612,-8.424 -14.0319,-13.55253 -7.7674,-3.99527 -7.8034,-4.04165 -10.8497,-14 -5.7179,-18.69151 -7.3404,-21.95125 -11.1478,-22.39736 -2.7301,-0.31988 -4.6111,0.93585 -8.8762,5.92556 l -5.4119,6.33145 -13.9935,-5.59222 c -15.2417,-6.09107 -17.7303,-6.52393 -21.5307,-3.745 -2.4526,1.79339 -2.4562,2.00253 -0.1235,7.17556 2.7499,6.09813 2.7256,6.17235 -6.7019,20.48986 -9.2611,14.06476 -7.266,19.44792 7.7989,21.04305 4.607,0.4878 9.5764,1.59408 11.0431,2.4584 5.0662,2.98558 6.9081,1.93713 10.006,-5.69575 z m -148.3394,63.24152 c -1.2833,-0.74747 -2.3333,-2.11609 -2.3333,-3.04137 0,-0.92528 -1.1188,-2.88326 -2.4863,-4.35107 -4.5821,-4.91829 -5.5776,-7.91947 -4.0657,-12.25662 1.2348,-3.54206 2.1969,-4.12845 8.1078,-4.9414 6.0743,-0.83543 7.2288,-0.54702 12.2422,3.05826 3.0444,2.18937 6.3996,5.48466 7.456,7.32286 1.7094,2.97449 1.6613,3.73812 -0.4373,6.94089 -1.2968,1.97929 -4.8611,4.73525 -7.9206,6.12436 -6.3864,2.89963 -7.3664,3.00578 -10.5628,1.14409 z M 897.36392,397.66667 c 0.0169,-3.48334 1.20307,-14.13334 2.63603,-23.66667 4.16781,-27.72805 3.21799,-45.73607 -2.74724,-52.08576 -1.69372,-1.80289 -6.26848,-4.73794 -10.16613,-6.52234 -6.14536,-2.81344 -7.08663,-3.74952 -7.08663,-7.04754 0,-4.13839 5.36175,-10.05658 15.86671,-17.51332 10.0982,-7.168 14.23958,-5.09568 18.32347,9.16896 1.15473,4.03333 4.95628,12.73333 8.4479,19.33333 3.49162,6.6 8.0669,16.5 10.16729,22 2.98578,7.81843 5.35062,11.47115 10.84009,16.74354 3.86166,3.70894 7.02073,7.90894 7.02015,9.33333 -0.002,4.5708 -7.48602,18.58782 -11.91411,22.31381 -2.35919,1.98513 -5.89341,3.61644 -7.85381,3.62515 -5.07965,0.0226 -15.61563,3.06689 -24.73027,7.14573 -4.30791,1.92781 -8.05791,3.50511 -8.33333,3.50511 -0.27542,0 -0.48697,-2.85 -0.47012,-6.33333 z m -27.68974,-12.02191 c -0.55416,-1.44565 -3.02413,-4.31648 -5.48883,-6.37961 -4.28533,-3.58714 -4.43493,-4.01741 -3.42161,-9.84148 0.5828,-3.34968 1.09937,-10.58027 1.14793,-16.06797 l 0.0883,-9.97764 10.0855,-5.42177 c 5.54703,-2.98197 11.88016,-6.69967 14.07362,-8.26156 2.19347,-1.56188 4.58173,-2.43215 5.30724,-1.93393 1.71049,1.17464 5.05909,22.60612 5.13859,32.88766 0.0611,7.89751 0.0103,8.00609 -4.80669,10.28187 -2.67763,1.26503 -8.52422,5.6847 -12.99243,9.82148 -7.33155,6.78771 -8.22231,7.26501 -9.1316,4.89295 z M 429.4255,269.1034 c -1.38379,-3.17354 -3.43453,-8.00693 -4.55719,-10.74087 -1.14031,-2.77693 -3.98914,-6.19289 -6.45477,-7.73974 -4.53602,-2.84576 -4.55614,-2.84615 -21.95289,-0.42617 l -6.20599,0.86329 0.79824,-3.99118 c 1.21151,-6.05757 15.54504,-27.63676 20.70616,-31.17322 3.58936,-2.45947 6.07156,-3.05823 11.70143,-2.82264 6.77259,0.2834 7.19914,0.10657 8.16989,-3.38693 1.50311,-5.40936 0.97965,-18.94255 -0.80159,-20.72379 -0.84589,-0.84589 -3.47842,-1.55842 -5.85006,-1.5834 l -4.31209,-0.0454 -0.74051,-10 c -0.8867,-11.9741 -2.77549,-15.34 -10.19907,-18.17509 -6.21983,-2.37537 -11.40934,-1.69758 -14.361,1.87567 -1.04468,1.26468 -4.0559,4.6359 -6.6916,7.4916 l -4.79218,5.19218 -11.51745,-0.8853 c -8.89201,-0.68349 -12.99306,-0.39518 -17.99074,1.26478 -8.69138,2.88681 -10.37411,2.02732 -10.37411,-5.29881 0,-4.68716 -0.54109,-6.12373 -2.54626,-6.76014 -3.79333,-1.20396 -5.78413,-4.2301 -4.8074,-7.30752 1.1807,-3.72005 37.29547,-35.8313 41.47975,-36.88149 1.8436,-0.46271 5.56943,-0.36786 8.27962,0.21078 9.32738,1.99147 15.37992,1.0345 28.26095,-4.46834 16.16583,-6.90612 19.15147,-7.59998 24.02176,-5.58264 3.13554,1.29879 4.39124,3.06292 5.97412,8.39304 1.10226,3.71174 2.00747,9.78972 2.01156,13.50662 0.008,7.07872 2.01505,16.20249 3.80845,17.31088 0.57777,0.35708 4.56267,-0.26792 8.85533,-1.38889 9.12034,-2.38165 15.2474,-1.5863 20.12935,2.61297 2.98161,2.56468 3.63281,4.52956 4.56467,13.77324 1.1294,11.2032 4.75687,20.38788 11.02948,27.92639 7.06175,8.48691 7.75827,12.61112 3.5856,21.23072 -4.40126,9.09179 -12.73374,11.18568 -20.0418,5.03635 -3.96136,-3.33327 -4.38653,-3.42496 -5.9523,-1.28364 -0.92741,1.26831 -2.09285,6.03367 -2.58986,10.58967 -1.10259,10.10724 -1.78463,11.35804 -12.95155,23.75187 -4.88869,5.42581 -11.5236,13.16361 -14.74426,17.19512 -7.55077,9.45181 -9.70699,9.85834 -12.94169,2.44005 z m 362.1917,-19.00997 c -1.04861,-1.04861 -8.14147,-5.94169 -15.76191,-10.87352 -7.62043,-4.93182 -16.10534,-11.09564 -18.85534,-13.69736 -5.21835,-4.93699 -6.59928,-10.32587 -3,-11.70705 1.34303,-0.51537 2,-2.62617 2,-6.42585 0,-7.91147 2.22278,-13.42603 6.12911,-15.20587 4.49201,-2.0467 17.07841,-1.86985 33.20422,0.46653 19.04491,2.75932 29.03432,2.62674 31.79335,-0.42196 1.21366,-1.34108 2.20665,-3.36761 2.20665,-4.50341 0,-1.1358 0.83287,-2.75631 1.85082,-3.60113 3.63185,-3.01417 12.5922,7.1316 15.61896,17.68527 1.75486,6.11885 0.12372,9.78474 -5.9353,13.33924 -3.04396,1.78573 -12.79934,10.1412 -21.67862,18.56773 -19.98899,18.96976 -23.11987,20.82946 -27.57194,16.37738 z M 301.76974,186.02228 c -1.55297,-1.08774 -4.44763,-4.74893 -6.43257,-8.13598 -3.42772,-5.84896 -8.57445,-9.25357 -19.67052,-13.01222 -5.05098,-1.71096 -2.68676,-7.05516 6.93023,-15.66547 5.09496,-4.56164 9.22391,-8.6497 9.17544,-9.08458 -0.50854,-4.56275 0.44418,-5.45736 5.81182,-5.45736 7.76855,0 13.83251,4.40235 16.39728,11.90418 1.11021,3.2473 2.01856,7.02521 2.01856,8.39535 0,1.40797 1.79635,3.47876 4.13131,4.76248 13.07258,7.18706 13.53162,10.25811 2.53204,16.94 -4.40182,2.67396 -8.7642,5.62264 -9.69418,6.55262 -1.57369,1.57369 -6.8843,4.7787 -7.91817,4.7787 -0.25171,0 -1.72826,-0.88997 -3.28124,-1.97772 z"
         id="path15"
         clip-path="url(#clipPath16)"
         transform="matrix(0.33611074,0,0,0.33611074,-126.92284,296.82419)" />
      <path
         style="fill:#0b192b;fill-opacity:1;stroke:#0b192b;stroke-width:45.5362;stroke-dasharray:none;stroke-opacity:1"
         d="m -2.4116163,652.10632 c -10.2772967,-3.36987 -18.9170857,-10.13023 -24.4908367,-19.16331 -6.690228,-10.8425 -1.879371,-35.63425 8.878904,-45.7556 8.3669591,-7.87161 14.7873074,-9.63202 31.55946,-8.65337 14.089918,0.82217 15.480369,0.64535 19.383251,-2.46475 9.199843,-7.3311 11.156037,-17.20063 8.73394,-44.06505 -2.14139,-23.75099 -7.31988,-47.26754 -16.981864,-77.11802 -4.38129,-13.53591 -7.324318,-25.25666 -7.050937,-28.08072 0.433402,-4.47708 1.570492,-5.39686 14.889057,-12.04354 18.684061,-9.32435 68.447002,-25.73347 93.464572,-30.81955 25.07218,-5.09716 39.71657,-4.82044 45.35624,0.85708 6.37139,6.41414 30.55783,73.5116 41.81525,116.00293 11.34129,42.80792 13.62552,76.40276 6.30132,92.67581 -4.67095,10.37801 -15.45793,20.93165 -26.42494,25.85336 -7.66486,3.43977 -10.6229,3.96935 -19.14103,3.42679 -20.40183,-1.29952 -29.31642,-10.36234 -29.31642,-29.80394 0,-15.99966 6.25532,-28.14253 17.47179,-33.91629 4.12734,-2.12459 10.68653,-3.60952 18.8882,-4.27608 11.07315,-0.89994 13.1189,-1.54567 17.22962,-5.43853 l 4.66458,-4.41736 -0.77151,-15.93768 c -0.91222,-18.84441 -5.88516,-39.31852 -19.53987,-80.44744 -11.44486,-34.47269 -14.01373,-37.94927 -28.03644,-37.94282 -4.88377,0.002 -17.07611,2.06881 -27.0941,4.59234 -20.39973,5.13871 -60.419938,18.3158 -69.143655,22.7663 -7.460585,3.80612 -12.062721,9.82778 -12.062721,15.78348 0,2.63446 3.036314,19.84233 6.747361,38.23973 7.660877,37.9786 9.954256,56.97725 9.937816,82.32604 -0.01503,23.17144 -2.036712,35.06786 -8.175903,48.11057 -9.67753,20.55992 -22.225498,29.5786 -42.399266,30.47392 -5.9880424,0.26574 -12.59938356,-0.0783 -14.6918683,-0.7643 z"
         id="path1" />
      <path
         style="fill:url(#linearGradient5);fill-opacity:1;stroke:url(#linearGradient2);stroke-width:28.4602;stroke-dasharray:none;stroke-opacity:1"
         d="M -2.2979761,652.10658 C -12.575274,648.73671 -21.21507,641.97635 -26.788825,632.94327 c -6.690222,-10.8425 -1.879361,-35.63425 8.878913,-45.75559 8.3669561,-7.87162 14.7873057,-9.63203 31.559462,-8.65337 14.089916,0.82216 15.480362,0.64534 19.383243,-2.46475 9.199846,-7.33111 11.15604,-17.20064 8.733943,-44.06506 -2.14139,-23.75099 -7.31988,-47.26754 -16.981861,-77.11802 -4.381289,-13.53591 -7.324322,-25.25666 -7.050944,-28.08071 0.433403,-4.47709 1.570494,-5.39687 14.889064,-12.04355 18.684058,-9.32435 68.447005,-25.73347 93.464575,-30.81954 25.07218,-5.09717 39.71657,-4.82044 45.35624,0.85707 6.37139,6.41414 30.55783,73.51161 41.81525,116.00293 11.34129,42.80793 13.62552,76.40277 6.30132,92.67581 -4.67094,10.37801 -15.45793,20.93165 -26.42494,25.85336 -7.66486,3.43978 -10.6229,3.96935 -19.14102,3.42679 -20.40184,-1.29952 -29.31643,-10.36234 -29.31643,-29.80394 0,-15.99965 6.25532,-28.14252 17.47179,-33.91629 4.12735,-2.12459 10.68653,-3.60951 18.8882,-4.27607 11.07316,-0.89994 13.1189,-1.54568 17.22962,-5.43854 l 4.66458,-4.41736 -0.77151,-15.93768 c -0.91222,-18.84441 -5.88516,-39.31851 -19.53987,-80.44744 -11.44486,-34.47269 -14.01373,-37.94927 -28.03644,-37.94282 -4.88376,0.002 -17.07611,2.06881 -27.09409,4.59234 -20.39973,5.13871 -60.419954,18.3158 -69.143671,22.76631 -7.460585,3.80612 -12.062721,9.82777 -12.062721,15.78348 0,2.63445 3.036314,19.84233 6.747361,38.23973 7.660877,37.97859 9.954256,56.97725 9.937816,82.32603 -0.01503,23.17145 -2.036712,35.06786 -8.175903,48.11058 -9.67753,20.55991 -22.225494,29.57859 -42.399269,30.47391 -5.9880356,0.26574 -12.59937808,-0.0783 -14.6918591,-0.7643 z"
         id="path1-4" />
    </g>
  </g>
</svg>
