<svg height="800" viewBox="0 0 1200 800" width="1200" xmlns="http://www.w3.org/2000/svg" xmlns:xlink="http://www.w3.org/1999/xlink"><clipPath id="a"><path d="m0 600h900v-600h-900z" transform="translate(-410.40621 -122.9688)"/></clipPath><clipPath id="b"><path d="m0 600h900v-600h-900z" transform="translate(-688.90622 -521.03122)"/></clipPath><path d="m0 0h900v600h-900z" fill="#fff" transform="matrix(1.3333333 0 0 -1.3333333 0 800)"/><path clip-path="url(#a)" d="m0 0-.469-.531-3.031-3.407-.875-.999 1.187-.563 4.157-1.937-13-9.563-1.032-.781 1-.813s2.041-1.695 4.094-3.562c1.027-.934 2.071-1.909 2.813-2.719.371-.404.66-.765.844-1.031.137-.2.177-.383.187-.344.006-.099.027-.2.094-.344.093-.201.316-.43.562-.531.493-.2.779-.044.938.031.317.151.439.301.656.5.434.398 1.002.976 1.656 1.719 1.307 1.485 3 3.576 4.719 5.719 2.883 3.593 5.332 6.76 6.188 7.875.859-1.119 3.307-4.285 6.187-7.875 1.719-2.143 3.412-4.234 4.719-5.719.654-.743 1.222-1.321 1.656-1.719.217-.199.339-.349.656-.5.159-.075.445-.231.938-.031.246.101.469.33.562.531.067.144.088.245.094.344.01-.039.05.144.187.344.184.266.473.627.844 1.031.742.81 1.786 1.785 2.813 2.719 2.053 1.867 4.094 3.562 4.094 3.562l1 .813-1.032.781-13 9.563 4.156 1.937 1.188.563-.875.999-3.031 3.407-.469.531-.688-.281-9.999-4.281-10.001 4.281zm56.25 2.625c-5.942.023-14.002-1.686-24.938-6.875l-1.562-.75 1.437-.969s17.712-12.077 39.532.469l.812.469-.406.844s-.901 1.791-3.187 3.468c-2.287 1.678-6.014 3.322-11.688 3.344m-91.125 0c-5.673-.022-9.402-1.666-11.688-3.344-2.285-1.677-3.187-3.468-3.187-3.468l-.406-.844.812-.469c21.82-12.546 39.531-.469 39.531-.469l1.438.969-1.563.75c-10.935 5.189-18.995 6.898-24.937 6.875m117.406 3.469c-2.792-.224-4.916-2.609-5.843-4.969-.495-1.259-.72-2.598-.282-3.781.439-1.184 1.71-2.031 3.282-2.031 1.663 0 3.014.687 3.906 1.656.891.968 1.367 2.156 1.656 3.312.578 2.314.375 4.563.375 4.563l-.062.593-.532.219c-.645.275-1.307.422-1.937.438-.193.005-.376.014-.563 0m-144.25 0c-.63-.016-1.292-.163-1.937-.438l-.532-.219-.062-.593s-.203-2.249.375-4.563c.289-1.156.764-2.344 1.656-3.312.892-.969 2.244-1.656 3.906-1.656 1.571 0 2.843.847 3.282 2.031.439 1.183.213 2.522-.282 3.781-.989 2.518-3.334 5.046-6.406 4.969m137.438 12.281c-6.313.01-15.154-2.159-24.344-11.063l-1.5-1.437 2.063-.281c16.171-2.156 24.563.115 29 3.125 2.218 1.505 3.412 3.196 4.031 4.531s.687 2.406.687 2.406l.032.656-.594.282s-3.206 1.517-8.156 1.75c-.398.018-.798.03-1.219.031m-130.063 0c-.421-.001-.821-.013-1.219-.031-4.95-.233-8.156-1.75-8.156-1.75l-.594-.282.032-.656s.068-1.071.687-2.406 1.813-3.026 4.031-4.531c4.437-3.01 12.829-5.281 29.001-3.125l2.062.281-1.5 1.437c-9.19 8.904-18.031 11.073-24.344 11.063m161.094.906c-5.834-.1-11.906-1.125-16.281-4.406-1.442-1.081-2.342-2.181-2.563-3.406-.22-1.226.448-2.377 1.438-3.125 1.981-1.496 5.375-2.153 9.531-2.219 8.312-.133 19.61 2.392 26.594 9.375l1.219 1.25-1.688.437s-7.349 1.89-15.75 2.094c-.817.02-1.667.015-2.5 0m-194.625 0c-8.402-.204-15.75-2.094-15.75-2.094l-1.688-.437 1.219-1.25c6.983-6.983 18.282-9.508 26.594-9.375 4.156.066 7.55.723 9.531 2.219.991.748 1.658 1.899 1.438 3.125-.22 1.225-1.121 2.325-2.563 3.406-4.999 3.75-12.244 4.565-18.781 4.406m143.688 7.875c-5.415.027-17.347-2.908-28.688-24.375l-.938-1.75 1.969.281c17.022 2.432 24.939 8.464 28.532 14.032 3.592 5.567 2.781 10.656 2.781 10.656l-.125.625-.563.187s-1.163.335-2.968.344m-90.251 0c-1.805-.009-2.968-.344-2.968-.344l-.563-.187-.125-.625s-.811-5.089 2.781-10.656c3.593-5.568 11.51-11.6 28.532-14.032l1.969-.281-.938 1.75c-11.341 21.467-23.273 24.402-28.688 24.375m161.969 1.625c-1.301.036-2.437-.596-3.312-1.437s-1.545-1.925-1.938-3.032c-.392-1.106-.533-2.228-.187-3.281.345-1.052 1.427-1.906 2.75-1.906 1.382 0 2.529.656 3.25 1.531.72.875 1.083 1.923 1.312 2.938.459 2.028.313 3.968.313 3.968l-.032.594-.531.25c-.557.266-1.125.362-1.625.375m-233.687 0c-.501-.013-1.068-.109-1.625-.375l-.532-.25-.031-.594s-.146-1.94.313-3.968c.229-1.015.591-2.063 1.312-2.938s1.869-1.531 3.25-1.531c1.323 0 2.405.854 2.75 1.906.346 1.053.205 2.175-.187 3.281-.392 1.107-1.063 2.191-1.938 3.032s-2.012 1.473-3.312 1.437m175.312 2.438c-2.792-.224-4.916-2.609-5.843-4.969-.495-1.259-.72-2.598-.282-3.781.439-1.184 1.71-2.032 3.282-2.032 1.663 0 3.014.688 3.906 1.657.891.968 1.367 2.156 1.656 3.312.578 2.314.375 4.563.375 4.563l-.062.593-.532.219c-.645.275-1.307.422-1.937.438-.193.005-.376.014-.563 0m-117.5 0c-.63-.016-1.292-.163-1.937-.438l-.532-.219-.062-.593s-.203-2.249.375-4.563c.289-1.156.764-2.344 1.656-3.312.892-.969 2.244-1.657 3.906-1.657 1.571 0 2.843.848 3.282 2.032.439 1.183.213 2.522-.282 3.781-.989 2.518-3.334 5.046-6.406 4.969m171.25 9.562c-6.063-.222-16.646-3.212-28.843-17.5l-1.5-1.75 2.281.094c15.402.54 23.95 4.75 28.625 8.937 2.337 2.094 3.693 4.179 4.469 5.751.775 1.571.999 2.718.999 2.718l.125.782-.75.312s-1.603.604-4.249.656c-.364.007-.752.015-1.157 0m-225.594 0c-2.646-.052-4.25-.656-4.25-.656l-.75-.312.125-.782s.225-1.147 1-2.718c.776-1.572 2.132-3.657 4.469-5.751 4.675-4.187 13.223-8.397 28.625-8.937l2.281-.094-1.5 1.75c-13.01 15.241-24.189 17.614-30 17.5m258.657 2.907c-2.856.043-6.075-.16-9.5-.844-11.099-2.22-16.688-10.563-16.688-10.563l-.75-1.156 1.313-.375s11.48-3.278 24.593 0c6.574 1.644 9.777 4.176 11.282 6.438.752 1.13 1.068 2.158 1.187 2.937.118.779.031 1.375.031 1.375l-.125.625-.593.188s-4.464 1.278-10.75 1.375m-290.563 0c-6.286-.097-10.75-1.375-10.75-1.375l-.593-.188-.125-.625s-.088-.596.031-1.375c.118-.779.435-1.807 1.187-2.937 1.505-2.262 4.709-4.794 11.282-6.438 13.113-3.278 24.593 0 24.593 0l1.313.375-.75 1.156s-5.589 8.343-16.688 10.563c-3.425.684-6.644.887-9.5.844m236.157 2.312c-6.854-.149-18.79-3.493-24.782-21.469l-.531-1.562 1.625.25c12.502 1.902 19.939 7.137 24.219 11.906 4.279 4.769 5.437 9.156 5.437 9.156l.25.969-.968.25s-1.629.437-4.125.5c-.357.009-.736.009-1.125 0m-182.876 0c-2.496-.063-4.125-.5-4.125-.5l-.968-.25.25-.969s1.158-4.387 5.437-9.156c4.28-4.769 11.717-10.004 24.219-11.906l1.625-.25-.531 1.562c-5.992 17.976-17.928 21.32-24.782 21.469-.389.009-.768.009-1.125 0m197.501 4.719c-2.792-.225-4.917-2.615-5.844-4.969-.495-1.255-.69-2.568-.25-3.75.439-1.182 1.679-2.031 3.25-2.031 1.662 0 3.013.659 3.906 1.625s1.367 2.19 1.656 3.344c.579 2.306.375 4.531.375 4.531l-.062.594-.531.218c-.645.275-1.308.422-1.938.438-.191.005-.377.014-.562 0m-211.563 0c-.63-.016-1.292-.163-1.938-.438l-.531-.218-.062-.594s-.204-2.225.375-4.531c.289-1.154.764-2.378 1.656-3.344s2.245-1.625 3.906-1.625c1.57 0 2.811.849 3.25 2.031.44 1.182.245 2.495-.25 3.75-.989 2.511-3.337 5.046-6.406 4.969m258.906 3.687c-4.081.061-7.525-1.951-9.094-4.281-.784-1.165-1.148-2.635-.406-3.812.742-1.178 2.268-1.688 4.375-1.688 4.568 0 6.942 2.182 7.875 4.344.934 2.162.625 4.25.625 4.25l-.094.687-.656.157c-.878.219-1.777.331-2.625.343m-305.687 0c-.848-.012-1.748-.124-2.625-.343l-.656-.157-.094-.687s-.309-2.088.625-4.25c.933-2.162 3.307-4.344 7.875-4.344 2.107 0 3.633.51 4.375 1.688.741 1.177.378 2.647-.406 3.812-1.569 2.33-5.013 4.342-9.094 4.281m300.656 14.813c-2.089-.088-5.422-.823-9.313-3.781-4.446-3.382-9.614-9.632-14.656-21.032l-.844-1.875 2 .5s6.024 1.511 12.25 5.344c6.227 3.833 12.787 10.09 13.625 19.594l.063.844-.813.218s-.597.154-1.5.188c-.246.009-.513.012-.812 0m-296.437 0c-.903-.034-1.5-.188-1.5-.188l-.813-.218.063-.844c.838-9.504 7.398-15.761 13.624-19.594 6.227-3.833 12.25-5.344 12.25-5.344l2-.5-.843 1.875c-5.042 11.4-10.21 17.65-14.657 21.032-4.446 3.381-8.158 3.855-10.124 3.781m329.093 5.469-1.156-.032c-13.027-.383-19.76-4.044-23.188-7.781-3.427-3.737-3.468-7.594-3.468-7.594v-.906l.906-.094s7.678-.76 16.156.782c4.61.837 7.27 4.568 8.75 7.937 1.481 3.369 1.875 6.531 1.875 6.531zm-360.937 0 .125-1.157s.394-3.162 1.875-6.531c1.48-3.369 4.14-7.1 8.75-7.937 8.478-1.542 16.156-.782 16.156-.782l.906.094v.906s-.041 3.857-3.468 7.594c-3.428 3.737-10.161 7.398-23.188 7.781zm313.25.968c-2.789-.079-6.684-1.325-10.813-5.781s-8.554-12.079-12.625-25.031l-.593-2 1.937.75s4.301 1.683 9.75 6.25c5.449 4.566 12.123 12.068 17 23.719l.344.812-.782.438s-1.291.716-3.312.843c-.289.019-.589.009-.906 0m-266.469 0c-2.021-.127-3.313-.843-3.313-.843l-.781-.438.344-.812c4.877-11.651 11.551-19.153 17-23.719 5.449-4.567 9.75-6.25 9.75-6.25l1.937-.75-.593 2c-4.071 12.952-8.496 20.575-12.625 25.031-4.13 4.456-8.023 5.702-10.813 5.781-.317.009-.617.019-.906 0m287.031 24.438-1.562-.563s-8.969-3.239-8.969-11.531c0-7.625.75-15.187.75-15.187l.25-2.438 1.531 1.906s1.545 1.906 3.094 4.313 3.187 5.2 3.187 7.625c0 1.758.376 5.39.75 8.5.375 3.109.75 5.75.75 5.75zm-306.687 0 .219-1.625s.376-2.641.75-5.75c.373-3.11.75-6.742.75-8.5 0-2.425 1.639-5.218 3.187-7.625s3.094-4.313 3.094-4.313l1.531-1.906.25 2.438s.75 7.562.75 15.187c0 8.292-8.969 11.531-8.969 11.531zm333.562 7.25c-2.16-.037-4.385-1.186-6.656-2.75-2.271-1.565-4.571-3.6-6.625-5.625-4.106-4.051-7.281-8.063-7.281-8.063l-.063-.062-.031-.063s-2.46-4.374-4.375-8.687c-.958-2.157-1.779-4.275-2.094-5.969-.157-.848-.246-1.594.063-2.344.154-.375.461-.768.875-.968.414-.201.859-.227 1.281-.157 2.596.433 6.903 2.356 11.406 4.938s9.087 5.813 11.875 9c2.908 3.323 3.834 8.24 4.125 12.312.291 4.073-.094 7.375-.094 7.375l-.093.625-.594.188c-.563.187-1.153.26-1.719.25m-360.437 0c-.566.01-1.156-.063-1.719-.25l-.594-.188-.093-.625s-.385-3.302-.094-7.375c.291-4.072 1.217-8.989 4.125-12.312 2.788-3.187 7.372-6.418 11.875-9s8.81-4.505 11.406-4.938c.422-.07.867-.044 1.281.157.415.2.721.593.875.968.308.75.22 1.496.063 2.344-.315 1.694-1.136 3.812-2.094 5.969-1.915 4.313-4.375 8.687-4.375 8.687l-.031.063-.063.062s-3.174 4.012-7.281 8.063c-2.053 2.025-4.354 4.06-6.625 5.625-2.271 1.564-4.496 2.713-6.656 2.75" fill="#435024" transform="matrix(1.3333333 0 0 -1.3333333 547.20827 636.0416)"/><path clip-path="url(#b)" d="m0 0c-.586-.009-1.189-.104-1.812-.312-1.248-.416-2.501-1.631-2.813-3.188-.173-.865-2.06-3.691-3.969-5.781-1.54-1.687-2.482-2.523-3-3-1.329.374-4.317 1.167-8.187 1.562-2.439.249-4.995.298-7.313-.25-2.317-.548-4.605-1.909-5.437-4.406-.813-2.437-4.992-6.953-8.969-10.375-3.832-3.297-7.149-5.601-7.406-5.781l-12.313-2.157-.812-.156-.5-.656-4.782-6.844-11.937-1.406-1.313-.156-.375-1.219s-.704-2.298-1.968-4.406c-.633-1.054-1.417-2.008-2.157-2.594-.739-.586-1.3-.788-2-.688-3.13.448-7.47.012-11.218-.468-3.748-.481-6.813-1.063-6.813-1.063l-2.25-.437.719-2.157s.027.036 0-.375c-.027-.41-.141-1.096-.719-2-1.156-1.807-4.288-4.624-12.344-7.187-16.206-5.156-26.846-13.413-27.874-14.219-7.846 1.358-12.808 1.464-15.813 1.063-1.566-.209-2.662-.552-3.406-.875-.372-.162-.656-.323-.875-.469-.22-.146-.469-.344-.469-.344l-.094-.094-.062-.093s-2.727-3.456-6.813-6.907c-4.086-3.45-9.482-6.687-14.312-6.687-5.935 0-9.259-1.288-11.531-2.375-2.273-1.087-3.056-1.755-5.594-1.438-6.695.837-11.959-3.636-12.938-4.5l-36.125 1.5c-.25.08-3.482 1.084-7.531 2.188-4.202 1.146-8.757 2.344-11.687 2.344-1.495 0-5.49 1.248-10.594 2.5s-11.55 2.423-19 2.031c-6.397-.336-15.538 3.255-22.875 7.062-7.338 3.809-12.906 7.688-12.906 7.688l-2.844 2-.281-3.469-1.5-18.875-.063-.719.406-.593 6.375-9.219c-.05-.978-.762-13.882-6.062-24.656-2.752-5.593-6.624-10.337-12.063-12.5s-12.686-1.936-22.75 3.187c-10.614 5.404-19.277 7.317-26.406 6.875-7.129-.441-12.676-3.292-16.781-7.093-8.211-7.603-11.093-18.942-12.5-22.813-2.55-7.012-10.067-8.433-10.438-8.5-.659.056-17.786 1.5-24.75 1.5-.927 0-2.175.612-3.5 1.906-1.325 1.295-2.622 3.169-3.75 5.063-2.255 3.788-3.75 7.625-3.75 7.625l-3.812-1 3.031-19.656v-.125l.063-.125 3.781-12.875.25-.907.875-.343 7.719-3.219-1.375-12.125-.063-.594.281-.531 3.563-7.094v-7.125-1.687l1.687-.282 8.219-1.25.688-12 .031-.75.531-.562 4.438-4.438.093-.093 15.032-17.282.562-.656.844-.031 16.5-.719 6.25-7.625.406-.5.656-.156 8.782-2.219 6.593-3.656.125-.063.094-.031s3.525-1.397 8.656-5.062c1.465-1.046 2.561-1.642 3.875-1.719.657-.038 1.424.136 2 .562s.901.985 1.063 1.469c.253.761.146 1.298.094 1.813l5.75 3.843.062.032 7.094 4.25 7.437.687 6.657-2.687 11.25-10.5v-7.469h.031c-.021-.191-.205-1.771 0-3.719.108-1.031.302-2.116.812-3.187.51-1.072 1.482-2.23 2.938-2.594 2.872-.718 1.984-.813 8.031-.813 3.852 0 6.416 2.527 7.75 4.75 1.334 2.225 1.781 4.407 1.781 4.407l.031.187v.219 11.125c.159.529 1.5 5.052 1.5 8.531 0 .177.064.337.344.656.28.321.775.694 1.312 1 .987.565 1.837.857 2 .907 0 0 .093.031.094.031.004.001.094.031.094.031.165.03 2.09.374 4.531 1.031 2.545.686 5.427 1.532 7.469 3.063 2.654 1.99 5.253 2.641 5.312 2.656l9.344 2.188 10.563-2.813 8.062-5.156 1.969-1.25.906 2.156 2.063 4.813 4.406 3.093 11.5.719.906.063.563.718 4.187 5.625 9.282 3.532.312.125.282.25 4.687 4.031h9.125.813l.593.594 3.688 3.687.094.094 6.312 5.594 13.031 2.156 1.75.312-.093 1.75c-.743 14.459 1.847 23.741 4.531 29.375 2.347 4.93 4.314 6.663 4.844 7.094h4.5s2.606-.038 5.156-1.312c1.17-.586 2.519-.642 3.562-.25 1.043.391 1.762 1.101 2.282 1.75.71.889.801 1.343 1 1.843l2.468 1.407.219-1.094.25-1.188 1.156-.312 8.032-2.188c.252-.158 5.894-3.699 9.625-5.937 1.906-1.144 3.092-2.052 4.875-2.25.89-.099 2.242.407 2.812 1.312.569.906.625 1.735.625 2.657 0 .849.584 2.638 1.281 4.031.69 1.38 1.393 2.355 1.407 2.375v.031l5.218 5.875 9.688-.656 5.562-4.844.438-.375.593-.094s5.297-.769 8.094-1.468c3.856-.964 6.875 1.031 6.875 1.031l1.125.75-.281 1.312-2.25 10.594-.063.313-.156.25-5.312 9.093-.219.375-.375.282-6.156 4.093c-.189 1.065-.616 2.942-2.094 5.75-2.039 3.873-5.873 8.853-12.938 13.563-2.92 1.947-4.364 4.694-4.999 8-.637 3.306-.35 7.13.375 10.75 1.419 7.102 4.384 13.111 4.499 13.343l3.907 4.563 11.468 2.875 9.094 2.25 1.156.281.282 1.156 1.218 4.938 4.188 1.219.719.187.406.594 2.937 4.437.063.094.031.031 5.188 6.688.093.094.063.093 6.094 10.188 3.187-.563 1.219-.187.719.969 6.125 8.218 9.531-.687 1.062-.094.625.844 5.125 6.594 7.313 5.093.312.219.188.313 2.437 3.656h6.5.469l.406.219 3.032 1.5.531.25.281.5 2.282 3.781.187.312.063.375 1.25 7.563 9.031.625 1.656.125.187 1.656.563 5.782h11.063 1.968v1.968 6.375l7.281 3.969.969.531.063 1.094.781 12.094.062 1.375-1.25.562s-1.858.849-4 1.188c-.535.084-1.101.165-1.687.156" fill="#d87503" transform="matrix(1.3333333 0 0 -1.3333333 918.5416 105.29173)"/></svg>