<svg height="600" viewBox="0 0 847.008 600" width="847.008" xmlns="http://www.w3.org/2000/svg"><g transform="matrix(1.3333333 0 0 -1.3333333 0 600)"><path d="m.113 0h635.143v450h-635.143z" fill="#cf142b"/><path d="m.113 150h635.143v300h-635.143z" fill="#00247d"/><path d="m.113 300h635.143v150h-635.143z" fill="#fc0"/></g><g fill="#fff"><path d="m0 0-8.804-16.555 9.933-5.281z" transform="matrix(1.3333333 0 0 -1.3333333 457.982 218.11453)"/><path d="m0 0 2.61-18.566-11.141-1.567z" transform="matrix(1.3333333 0 0 -1.3333333 457.982 218.11453)"/><path d="m0 0-18.469 3.253-1.953-11.078z" transform="matrix(1.3333333 0 0 -1.3333333 478.39867 239.25453)"/><path d="m0 0-16.855-8.219-4.929 10.109z" transform="matrix(1.3333333 0 0 -1.3333333 478.39867 239.25453)"/><path d="m0 0 13.023-13.484 8.094 7.812z" transform="matrix(1.3333333 0 0 -1.3333333 431.56533 231)"/><path d="m0 0 18.466-3.254-1.954-11.078z" transform="matrix(1.3333333 0 0 -1.3333333 431.56533 231)"/><path d="m0 0-2.609 18.566-11.141-1.566z" transform="matrix(1.3333333 0 0 -1.3333333 464.59667 265.20253)"/><path d="m0 0-13.023 13.488 8.093 7.812z" transform="matrix(1.3333333 0 0 -1.3333333 464.59667 265.20253)"/><path d="m0 0 16.856 8.219-4.934 10.109z" transform="matrix(1.3333333 0 0 -1.3333333 435.65387 260.09893)"/><path d="m0 0 8.805 16.554 9.933-5.281z" transform="matrix(1.3333333 0 0 -1.3333333 435.65387 260.09893)"/><path d="m0 0-13.934-12.547 7.528-8.359z" transform="matrix(1.3333333 0 0 -1.3333333 524.88307 242.46413)"/><path d="m0 0-3.897-18.34-11.005 2.336z" transform="matrix(1.3333333 0 0 -1.3333333 524.88307 242.46413)"/><path d="m0 0-16.237 9.375-5.625-9.743z" transform="matrix(1.3333333 0 0 -1.3333333 536.83627 269.31187)"/><path d="m0 0-18.648-1.961-1.176 11.187z" transform="matrix(1.3333333 0 0 -1.3333333 536.83627 269.31187)"/><path d="m0 0 7.629-17.129 10.277 4.574z" transform="matrix(1.3333333 0 0 -1.3333333 495.65387 245.53587)"/><path d="m0 0 16.238-9.375-5.625-9.743z" transform="matrix(1.3333333 0 0 -1.3333333 495.65387 245.53587)"/><path d="m0 0 3.898 18.339-11.003 2.34z" transform="matrix(1.3333333 0 0 -1.3333333 514.99773 288.97853)"/><path d="m0 0-7.629 17.129 10.277 4.578z" transform="matrix(1.3333333 0 0 -1.3333333 514.99773 288.97853)"/><path d="m0 0 18.649 1.957-1.176 11.188z" transform="matrix(1.3333333 0 0 -1.3333333 489.54453 274.2812)"/><path d="m0 0 13.934 12.543 7.527-8.359z" transform="matrix(1.3333333 0 0 -1.3333333 489.54453 274.2812)"/><path d="m0 0-17.386-7.023 4.214-10.43z" transform="matrix(1.3333333 0 0 -1.3333333 579.4248 288.2292)"/><path d="m0 0-9.938-15.902-9.539 5.964z" transform="matrix(1.3333333 0 0 -1.3333333 579.4248 288.2292)"/><path d="m0 0-12.051 14.363-8.617-7.23z" transform="matrix(1.3333333 0 0 -1.3333333 581.4716 317.54693)"/><path d="m0 0-18.191 4.535 2.718 10.918z" transform="matrix(1.3333333 0 0 -1.3333333 581.4716 317.54693)"/><path d="m0 0 1.309-18.703 11.222.785z" transform="matrix(1.3333333 0 0 -1.3333333 550.90387 281.11973)"/><path d="m0 0 12.055-14.363-8.617-7.231z" transform="matrix(1.3333333 0 0 -1.3333333 550.90387 281.11973)"/><path d="m0 0 9.938 15.902-9.54 5.961z" transform="matrix(1.3333333 0 0 -1.3333333 554.2216 328.55733)"/><path d="m0 0-1.309 18.707 11.223.785z" transform="matrix(1.3333333 0 0 -1.3333333 554.2216 328.55733)"/><path d="m0 0 18.195-4.535 2.719 10.914z" transform="matrix(1.3333333 0 0 -1.3333333 535.33107 306.04173)"/><path d="m0 0 17.387 7.023 4.215-10.429z" transform="matrix(1.3333333 0 0 -1.3333333 535.33107 306.04173)"/><path d="m0 0-18.739-.656.394-11.242z" transform="matrix(1.3333333 0 0 -1.3333333 615.01987 349.88547)"/><path d="m0 0-14.774-11.543-6.926 8.863z" transform="matrix(1.3333333 0 0 -1.3333333 615.01987 349.88547)"/><path d="m0 0-6.414 17.617-10.57-3.847z" transform="matrix(1.3333333 0 0 -1.3333333 606.9196 378.13547)"/><path d="m0 0-15.543 10.484 6.289 9.328z" transform="matrix(1.3333333 0 0 -1.3333333 606.9196 378.13547)"/><path d="m0 0-5.168-18.023 10.817-3.102z" transform="matrix(1.3333333 0 0 -1.3333333 590.65387 333.45307)"/><path d="m0 0 6.414-17.617-10.57-3.848z" transform="matrix(1.3333333 0 0 -1.3333333 590.65387 333.45307)"/><path d="m0 0 14.773 11.543-6.925 8.863z" transform="matrix(1.3333333 0 0 -1.3333333 577.54973 379.16147)"/><path d="m0 0 5.168 18.023 10.812-3.101z" transform="matrix(1.3333333 0 0 -1.3333333 577.54973 379.16147)"/><path d="m0 0 15.543-10.484 6.293 9.328z" transform="matrix(1.3333333 0 0 -1.3333333 567.49773 351.54693)"/><path d="m0 0 18.738.656.391-11.242z" transform="matrix(1.3333333 0 0 -1.3333333 567.49773 351.54693)"/><path d="m0 0 14.774-11.543 6.926 8.863z" transform="matrix(1.3333333 0 0 -1.3333333 229.74707 349.88547)"/><path d="m0 0 18.739-.656-.395-11.242z" transform="matrix(1.3333333 0 0 -1.3333333 229.74707 349.88547)"/><path d="m0 0-6.414-17.617 10.57-3.848z" transform="matrix(1.3333333 0 0 -1.3333333 254.11227 333.45307)"/><path d="m0 0 5.168-18.023-10.817-3.102z" transform="matrix(1.3333333 0 0 -1.3333333 254.11227 333.45307)"/><path d="m0 0 15.543 10.484-6.289 9.328z" transform="matrix(1.3333333 0 0 -1.3333333 237.84733 378.13547)"/><path d="m0 0 6.414 17.617 10.57-3.847z" transform="matrix(1.3333333 0 0 -1.3333333 237.84733 378.13547)"/><path d="m0 0-18.738.656-.391-11.242z" transform="matrix(1.3333333 0 0 -1.3333333 277.26853 351.54693)"/><path d="m0 0-15.543-10.484-6.293 9.328z" transform="matrix(1.3333333 0 0 -1.3333333 277.26853 351.54693)"/><path d="m0 0-5.168 18.023-10.812-3.101z" transform="matrix(1.3333333 0 0 -1.3333333 267.2164 379.16147)"/><path d="m0 0-14.773 11.543 6.925 8.863z" transform="matrix(1.3333333 0 0 -1.3333333 267.2164 379.16147)"/><path d="m0 0 9.937-15.902 9.539 5.964z" transform="matrix(1.3333333 0 0 -1.3333333 265.34213 288.2292)"/><path d="m0 0 17.386-7.023-4.214-10.43z" transform="matrix(1.3333333 0 0 -1.3333333 265.34213 288.2292)"/><path d="m0 0-12.054-14.363 8.617-7.231z" transform="matrix(1.3333333 0 0 -1.3333333 293.8616 281.11973)"/><path d="m0 0-1.308-18.703-11.223.785z" transform="matrix(1.3333333 0 0 -1.3333333 293.8616 281.11973)"/><path d="m0 0 18.191 4.535-2.719 10.918z" transform="matrix(1.3333333 0 0 -1.3333333 263.2952 317.54693)"/><path d="m0 0 12.05 14.363 8.618-7.23z" transform="matrix(1.3333333 0 0 -1.3333333 263.2952 317.54693)"/><path d="m0 0-17.387 7.023-4.214-10.429z" transform="matrix(1.3333333 0 0 -1.3333333 309.4352 306.04173)"/><path d="m0 0-18.195-4.535-2.719 10.914z" transform="matrix(1.3333333 0 0 -1.3333333 309.4352 306.04173)"/><path d="m0 0 1.309 18.707-11.223.785z" transform="matrix(1.3333333 0 0 -1.3333333 290.54453 328.55733)"/><path d="m0 0-9.937 15.902 9.539 5.961z" transform="matrix(1.3333333 0 0 -1.3333333 290.54453 328.55733)"/><path d="m0 0 3.898-18.34 11.004 2.336z" transform="matrix(1.3333333 0 0 -1.3333333 319.88307 242.46413)"/><path d="m0 0 13.934-12.547-7.528-8.359z" transform="matrix(1.3333333 0 0 -1.3333333 319.88307 242.46413)"/><path d="m0 0-16.238-9.375 5.625-9.743z" transform="matrix(1.3333333 0 0 -1.3333333 349.11227 245.53587)"/><path d="m0 0-7.629-17.129-10.277 4.574z" transform="matrix(1.3333333 0 0 -1.3333333 349.11227 245.53587)"/><path d="m0 0 18.649-1.961 1.175 11.187z" transform="matrix(1.3333333 0 0 -1.3333333 307.93 269.31187)"/><path d="m0 0 16.238 9.375 5.625-9.743z" transform="matrix(1.3333333 0 0 -1.3333333 307.93 269.31187)"/><path d="m0 0-13.934 12.543-7.527-8.359z" transform="matrix(1.3333333 0 0 -1.3333333 355.2216 274.2812)"/><path d="m0 0-18.649 1.957 1.176 11.188z" transform="matrix(1.3333333 0 0 -1.3333333 355.2216 274.2812)"/><path d="m0 0 7.629 17.129-10.277 4.578z" transform="matrix(1.3333333 0 0 -1.3333333 329.76853 288.97853)"/><path d="m0 0-3.898 18.339 11.004 2.34z" transform="matrix(1.3333333 0 0 -1.3333333 329.76853 288.97853)"/><path d="m0 0-2.61-18.566 11.141-1.567z" transform="matrix(1.3333333 0 0 -1.3333333 386.7848 218.11453)"/><path d="m0 0 8.804-16.555-9.933-5.281z" transform="matrix(1.3333333 0 0 -1.3333333 386.7848 218.11453)"/><path d="m0 0-18.465-3.254 1.954-11.078z" transform="matrix(1.3333333 0 0 -1.3333333 413.2008 231)"/><path d="m0 0-13.023-13.484-8.094 7.812z" transform="matrix(1.3333333 0 0 -1.3333333 413.2008 231)"/><path d="m0 0 16.856-8.219 4.929 10.109z" transform="matrix(1.3333333 0 0 -1.3333333 366.36747 239.25453)"/><path d="m0 0 18.469 3.253 1.953-11.078z" transform="matrix(1.3333333 0 0 -1.3333333 366.36747 239.25453)"/><path d="m0 0-8.805 16.554-9.933-5.281z" transform="matrix(1.3333333 0 0 -1.3333333 409.11227 260.09893)"/><path d="m0 0-16.856 8.219 4.934 10.109z" transform="matrix(1.3333333 0 0 -1.3333333 409.11227 260.09893)"/><g transform="matrix(1.3333333 0 0 -1.3333333 380.1696 265.20253)"><path d="m0 0 13.023 13.488-8.093 7.812z"/><path d="m0 0 2.609 18.566 11.141-1.566z"/></g></g></svg>