<svg height="800" viewBox="0 0 1200 800" width="1200" xmlns="http://www.w3.org/2000/svg"><path d="m0 0h900v600h-900z" fill="#002b7f" transform="matrix(1.3333333 0 0 -1.3333333 0 800)"/><path d="m0 150h900v75h-900z" fill="#f9e814" transform="matrix(1.3333333 0 0 -1.3333333 0 800)"/><g fill="#fff"><path d="m0 0-20.601-63.404 31.702-10.3z" transform="matrix(1.3333333 0 0 -1.3333333 266.66667 177.778)"/><path d="m0 0 20.601-63.404-31.702-10.3z" transform="matrix(1.3333333 0 0 -1.3333333 266.66667 177.778)"/><path d="m0 0h-66.667v-33.333z" transform="matrix(1.3333333 0 0 -1.3333333 351.20507 239.19853)"/><path d="m0 0-53.935-39.186-19.592 26.968z" transform="matrix(1.3333333 0 0 -1.3333333 351.20507 239.19853)"/><path d="m0 0 53.935-39.186 19.592 26.968z" transform="matrix(1.3333333 0 0 -1.3333333 182.12827 239.19853)"/><path d="m0 0h66.667v-33.333z" transform="matrix(1.3333333 0 0 -1.3333333 182.12827 239.19853)"/><path d="m0 0-20.601 63.404-31.702-10.3z" transform="matrix(1.3333333 0 0 -1.3333333 318.914 338.57947)"/><path d="m0 0-53.934 39.186 19.593 26.967z" transform="matrix(1.3333333 0 0 -1.3333333 318.914 338.57947)"/><path d="m0 0 53.935 39.186-19.594 26.967z" transform="matrix(1.3333333 0 0 -1.3333333 214.41933 338.57947)"/><path d="m0 0 20.601 63.404 31.702-10.3z" transform="matrix(1.3333333 0 0 -1.3333333 214.41933 338.57947)"/><path d="m0 0-15.451-47.553 23.777-7.725z" transform="matrix(1.3333333 0 0 -1.3333333 133.33333 66.666667)"/><path d="m0 0 15.451-47.553-23.777-7.725z" transform="matrix(1.3333333 0 0 -1.3333333 133.33333 66.666667)"/><path d="m0 0h-50v-25z" transform="matrix(1.3333333 0 0 -1.3333333 196.73693 112.7324)"/><path d="m0 0-40.451-29.389-14.695 20.225z" transform="matrix(1.3333333 0 0 -1.3333333 196.73693 112.7324)"/><path d="m0 0 40.451-29.389 14.695 20.225z" transform="matrix(1.3333333 0 0 -1.3333333 69.929733 112.7324)"/><path d="m0 0h50v-25z" transform="matrix(1.3333333 0 0 -1.3333333 69.929733 112.7324)"/><path d="m0 0-15.451 47.553-23.776-7.726z" transform="matrix(1.3333333 0 0 -1.3333333 172.51893 187.2676)"/><path d="m0 0-40.451 29.389 14.695 20.226z" transform="matrix(1.3333333 0 0 -1.3333333 172.51893 187.2676)"/><g transform="matrix(1.3333333 0 0 -1.3333333 94.147733 187.2676)"><path d="m0 0 40.451 29.389-14.695 20.226z"/><path d="m0 0 15.451 47.553 23.776-7.726z"/></g></g></svg>