<svg height="600" viewBox="0 0 899.84003 600" width="899.84003" xmlns="http://www.w3.org/2000/svg" xmlns:xlink="http://www.w3.org/1999/xlink"><clipPath id="a"><path d="m0 450h674.88v-450h-674.88z" transform="translate(-257.00101 -91.406305)"/></clipPath><clipPath id="b"><path d="m0 450h674.88v-450h-674.88z" transform="translate(-257.0005 -91.406305)"/></clipPath><clipPath id="c"><path d="m0 450h674.88v-450h-674.88z" transform="translate(-257.00101 -91.406305)"/></clipPath><clipPath id="d"><path d="m0 450h674.88v-450h-674.88z" transform="translate(-417.75881 -91.406305)"/></clipPath><clipPath id="e"><path d="m0 450h674.88v-450h-674.88z" transform="translate(-417.75881 -91.406305)"/></clipPath><clipPath id="f"><path d="m0 0h674.88v450h-674.88z" transform="translate(-417.75881 -91.406305)"/></clipPath><clipPath id="g"><path d="m0 0h674.88v450h-674.88z" transform="translate(.1201 -292.50001)"/></clipPath><clipPath id="h"><path d="m0 450h674.88v-450h-674.88z" transform="translate(-390.81841 -157.5)"/></clipPath><clipPath id="i"><path d="m0 450h674.88v-450h-674.88z" transform="translate(-283.94191 -157.5)"/></clipPath><clipPath id="j"><path d="m0 450h674.88v-450h-674.88z" transform="translate(-348.62991 -225.00001)"/></clipPath><clipPath id="k"><path d="m0 450h674.88v-450h-674.88z" transform="translate(-340.19241 -208.5469)"/></clipPath><clipPath id="l"><path d="m0 450h674.88v-450h-674.88z" transform="translate(-334.56791 -241.45311)"/></clipPath><clipPath id="m"><path d="m0 450h674.88v-450h-674.88z" transform="translate(-334.56791 -208.5469)"/></clipPath><clipPath id="n"><path d="m0 450h674.88v-450h-674.88z" transform="translate(-340.19241 -241.45311)"/></clipPath><g transform="matrix(1.3333333 0 0 -1.3333333 0 600)"><path d="m0 0h674.88v450h-674.88z" fill="#fff"/><path d="m0 315h674.88v135h-674.88z"/><path d="m0 0h674.88v135h-674.88z" fill="#060"/></g><path clip-path="url(#a)" d="m0 0 4.871-2.813 131.383 227.555c7.684 2.063 11.902 9.368 16.121 16.676 2.813 4.871 14.063 24.356 18.938 49.676-19.493-16.883-30.743-36.367-33.555-41.238-4.219-7.309-8.438-14.614-6.379-22.301z" transform="matrix(1.3333333 0 0 -1.3333333 342.668 478.12493)"/><path clip-path="url(#b)" d="m0 0 4.872-2.813 131.383 227.555c7.683 2.063 11.902 9.368 16.12 16.675 2.813 4.872 14.063 24.356 18.938 49.676-19.492-16.882-30.742-36.366-33.555-41.237-4.218-7.309-8.437-14.614-6.379-22.302z" fill="none" stroke="#000" stroke-miterlimit="10" stroke-width="2.813" transform="matrix(1.3333333 0 0 -1.3333333 342.66733 478.12493)"/><path clip-path="url(#c)" d="m0 0 4.871-2.813 131.383 227.555c7.684 2.063 11.902 9.368 16.121 16.676 2.813 4.871 14.063 24.356 18.938 49.676-19.493-16.883-30.743-36.367-33.555-41.238-4.219-7.309-8.438-14.614-6.379-22.301z" fill="#fff" transform="matrix(1.3333333 0 0 -1.3333333 342.668 478.12493)"/><path clip-path="url(#d)" d="m0 0-4.871-2.813-131.383 227.555c-7.684 2.063-11.902 9.368-16.121 16.676-2.813 4.871-14.063 24.356-18.938 49.676 19.493-16.883 30.743-36.367 33.555-41.238 4.219-7.309 8.438-14.614 6.379-22.301z" transform="matrix(1.3333333 0 0 -1.3333333 557.01173 478.12493)"/><path clip-path="url(#e)" d="m0 0-4.872-2.813-131.382 227.555c-7.683 2.063-11.902 9.367-16.121 16.676-2.812 4.871-14.062 24.355-18.938 49.676 19.493-16.883 30.743-36.368 33.556-41.239 4.218-7.308 8.437-14.613 6.378-22.3z" fill="none" stroke="#000" stroke-miterlimit="10" stroke-width="2.813" transform="matrix(1.3333333 0 0 -1.3333333 557.01173 478.12493)"/><path clip-path="url(#f)" d="m0 0-4.871-2.813-131.383 227.555c-7.684 2.063-11.902 9.368-16.121 16.676-2.813 4.871-14.063 24.356-18.938 49.676 19.493-16.883 30.743-36.367 33.555-41.238 4.219-7.309 8.438-14.614 6.379-22.301z" fill="#fff" transform="matrix(1.3333333 0 0 -1.3333333 557.01173 478.12493)"/><path clip-path="url(#g)" d="m0 0v-135h284.062c8.438-22.5 36.563-67.5 53.438-67.5s45 45 53.438 67.5h284.062v135h-284.062c-8.438 22.5-36.563 67.5-53.438 67.5s-45-45-53.438-67.5z" fill="#b00" transform="matrix(1.3333333 0 0 -1.3333333 -.160133 210)"/><path clip-path="url(#h)" d="m0 0c8.437 22.5 14.062 45 14.062 67.5s-5.625 45-14.062 67.5c-8.438-22.5-14.063-45-14.063-67.5s5.625-45 14.063-67.5" transform="matrix(1.3333333 0 0 -1.3333333 521.0912 390)"/><path clip-path="url(#i)" d="m0 0c-8.437 22.5-14.062 45-14.062 67.5s5.625 45 14.062 67.5c8.438-22.5 14.063-45 14.063-67.5s-5.625-45-14.063-67.5" transform="matrix(1.3333333 0 0 -1.3333333 378.5892 390)"/><g fill="#fff"><path clip-path="url(#j)" d="m0 0c0-9.32-5.035-16.875-11.25-16.875s-11.25 7.555-11.25 16.875 5.035 16.875 11.25 16.875 11.25-7.555 11.25-16.875" transform="matrix(1.3333333 0 0 -1.3333333 464.83987 300)"/><path clip-path="url(#k)" d="m0 0s11.25-22.5 11.25-59.063c0-36.562-11.25-59.062-11.25-59.062z" transform="matrix(1.3333333 0 0 -1.3333333 453.58987 321.93747)"/><path clip-path="url(#l)" d="m0 0s-11.25 22.5-11.25 59.063c0 36.562 11.25 59.062 11.25 59.062z" transform="matrix(1.3333333 0 0 -1.3333333 446.09053 278.06253)"/><path clip-path="url(#m)" d="m0 0s-11.25-22.5-11.25-59.063c0-36.562 11.25-59.062 11.25-59.062z" transform="matrix(1.3333333 0 0 -1.3333333 446.09053 321.93747)"/><path clip-path="url(#n)" d="m0 0s11.25 22.5 11.25 59.063c0 36.562-11.25 59.062-11.25 59.062z" transform="matrix(1.3333333 0 0 -1.3333333 453.58987 278.06253)"/></g></svg>