<svg version="1.1" xmlns="http://www.w3.org/2000/svg" width="96" height="96" viewBox="0 0 96 96">
<style><![CDATA[.A{fill:#fff}.B{fill:#fc2}.C{fill:#c12}.D{fill:#111}]]></style>
	<g transform="scale(3)">
		<path class="A" d="M0 0h32v32H0z"/>
		<path class="D" d="M0 8v24h32v-8z"/>
		<g class="B">
			<path d="M0 0h32v16z"/>
			<path d="M0 16v16h32z"/>
			</g>
		</g>
		<g class="C">
			<path mask="url(#crescent)" d="M0 0h96v96H0z"/>
			</g>
	<mask id="crescent">
		<path fill="black" d="M0 0h32v32H0z"/>
		<g>
			<path fill="white" d="M48 20v-5l4 3l-2 1l1 2z"/>
			<path id="stage" fill="white" stroke="black" stroke-width="2" stroke-linejoin="round" paint-order="stroke" d="M44 23h8l1 5l-1 -2l-1 2l-1 -2l-1 2l-1 -2l-1 2l-1 -2l-1 2l-1 -2l-1 2z"/>
			<ellipse fill="black" cx="48" cy="23" rx="5" ry="2"/>
			<ellipse fill="white" cx="48" cy="23" rx="4" ry="1"/>
			</g>
		</mask>
	</svg>