<svg height="800" viewBox="0 0 1200.6667 800" width="1200.6667" xmlns="http://www.w3.org/2000/svg" xmlns:xlink="http://www.w3.org/1999/xlink"><clipPath id="a"><path d="m0 600h900.5v-600h-900.5z" transform="translate(-428.00001 -307.97121)"/></clipPath><clipPath id="b"><path d="m0 600h900.5v-600h-900.5z" transform="translate(-433.74271 -319.15721)"/></clipPath><clipPath id="c"><path d="m0 600h900.5v-600h-900.5z" transform="translate(-447.97121 -277.17681)"/></clipPath><clipPath id="d"><path d="m0 600h900.5v-600h-900.5z" transform="translate(-456.02831 -277.17681)"/></clipPath><clipPath id="e"><path d="m0 600h900.5v-600h-900.5z" transform="translate(-416.72021 -221.73441)"/></clipPath><clipPath id="f"><path d="m0 600h900.5v-600h-900.5z" transform="translate(-467.80471 -223.33011)"/></clipPath><clipPath id="g"><path d="m0 600h900.5v-600h-900.5z" transform="translate(-518.46682 -216.58791)"/></clipPath><clipPath id="h"><path d="m0 600h900.5v-600h-900.5z" transform="translate(-368.85691 -190.2861)"/></clipPath><clipPath id="i"><path d="m0 600h900.5v-600h-900.5z" transform="translate(-452.00001 -415.71441)"/></clipPath><clipPath id="j"><path d="m0 600h900.5v-600h-900.5z" transform="translate(-392.00001 -399.63721)"/></clipPath><clipPath id="k"><path d="m0 600h900.5v-600h-900.5z" transform="translate(-348.07711 -355.71441)"/></clipPath><clipPath id="l"><path d="m0 600h900.5v-600h-900.5z" transform="translate(-332.00001 -295.71391)"/></clipPath><clipPath id="m"><path d="m0 600h900.5v-600h-900.5z" transform="translate(-512.00002 -399.63721)"/></clipPath><clipPath id="n"><path d="m0 600h900.5v-600h-900.5z" transform="translate(-555.92291 -355.71441)"/></clipPath><clipPath id="o"><path d="m0 600h900.5v-600h-900.5z" transform="translate(-572.00002 -295.71391)"/></clipPath><path d="m0 0h900.5v600h-900.5z" fill="#060" transform="matrix(1.3333333 0 0 -1.3333333 0 800)"/><path d="m0 171.428h900.5v428.572h-900.5z" fill="#fff" transform="matrix(1.3333333 0 0 -1.3333333 0 800)"/><path d="m0 428.571h900.5v171.429h-900.5z" fill="#c00" transform="matrix(1.3333333 0 0 -1.3333333 0 800)"/><path clip-path="url(#a)" d="m0 0c2.975 5.116 9.533 6.851 14.648 3.876 3.198-1.859 5.21-5.236 5.323-8.933v-42.857h8.057v42.857c.182 5.914 5.124 10.562 11.038 10.381 3.698-.114 7.075-2.126 8.934-5.324 4.396 13.255-2.785 27.564-16.04 31.96-13.254 4.397-27.564-2.784-31.96-16.039-1.714-5.169-1.714-10.753 0-15.921" fill="#f8c300" transform="matrix(1.3333333 0 0 -1.3333333 570.66667 389.37173)"/><path clip-path="url(#b)" d="m0 0c7.212 1.474 14.56-1.82 18.257-8.186 3.698 6.366 11.045 9.66 18.257 8.186-1.385 10.083-10.681 17.134-20.764 15.749-8.188-1.124-14.625-7.562-15.75-15.749" fill="#fff" transform="matrix(1.3333333 0 0 -1.3333333 578.3236 374.45707)"/><g fill="#f8c300"><path clip-path="url(#c)" d="m0 0c-1.609-17.916-17.437-31.137-35.354-29.527-7.246.651-14.064 3.708-19.37 8.685-6.92-17.371-26.612-25.844-43.984-18.924-2.557 1.02-4.98 2.346-7.217 3.953 3.129-31.223 49.931-24.849 53.418 5.509 14.703-25.812 47.033-18.42 56.494 13.2z" transform="matrix(1.3333333 0 0 -1.3333333 597.29493 430.43093)"/><path clip-path="url(#d)" d="m0 0c1.609-17.916 17.438-31.137 35.354-29.527 7.246.651 14.065 3.708 19.371 8.685 6.92-17.371 26.612-25.844 43.983-18.924 2.558 1.02 4.981 2.346 7.217 3.953-3.128-31.223-49.93-24.849-53.417 5.509-14.703-25.812-47.034-18.42-56.494 13.2z" transform="matrix(1.3333333 0 0 -1.3333333 608.03773 430.43093)"/><path clip-path="url(#e)" d="m0 0c-6.53-14.097-19.582-16.519-30.998-5.139 0 0 4.589 3.243 9.502 4.137-.921 3.921.968 9.344 3.631 12.277 2.792-1.908 6.689-5.733 7.679-10.177 6.883.89 10.186-1.099 10.186-1.099z" transform="matrix(1.3333333 0 0 -1.3333333 555.62693 504.35413)"/><path clip-path="url(#f)" d="m0 0c-8.738-12.845-22.01-13.109-31.421-.023 0 0 5.056 2.452 10.049 2.534-.271 4.018 2.476 9.062 5.581 11.523 2.444-2.338 5.666-6.746 5.92-11.293 6.935-.241 9.871-2.741 9.871-2.741" transform="matrix(1.3333333 0 0 -1.3333333 623.7396 502.22653)"/><path clip-path="url(#g)" d="m0 0c-10.712-11.251-23.85-9.352-31.005 5.093 0 0 5.388 1.595 10.327.864.388 4.009 3.919 8.538 7.383 10.46 2.031-2.704 4.492-7.578 4.003-12.105 6.803-1.368 9.292-4.313 9.292-4.313z" transform="matrix(1.3333333 0 0 -1.3333333 691.28907 511.21613)"/></g><path clip-path="url(#h)" d="m0 0c54.252 16.148 112.034 16.148 166.286 0" fill="none" stroke="#f8c300" stroke-width="16" transform="matrix(1.3333333 0 0 -1.3333333 491.8092 546.2852)"/><g fill="#f8c300"><path clip-path="url(#i)" d="m0 0 12.596-38.765-32.976 23.958h40.76l-32.975-23.958z" transform="matrix(1.3333333 0 0 -1.3333333 602.66667 245.71413)"/><path clip-path="url(#j)" d="m0 0 12.595-38.765-32.975 23.958h40.76l-32.975-23.958z" transform="matrix(1.3333333 0 0 -1.3333333 522.66667 267.1504)"/><path clip-path="url(#k)" d="m0 0 12.595-38.765-32.975 23.958h40.759l-32.975-23.958z" transform="matrix(1.3333333 0 0 -1.3333333 464.1028 325.71413)"/><path clip-path="url(#l)" d="m0 0 12.595-38.765-32.975 23.958h40.76l-32.975-23.958z" transform="matrix(1.3333333 0 0 -1.3333333 442.66667 405.7148)"/><path clip-path="url(#m)" d="m0 0-12.596-38.765 32.976 23.958h-40.76l32.976-23.958z" transform="matrix(1.3333333 0 0 -1.3333333 682.66667 267.1504)"/><path clip-path="url(#n)" d="m0 0-12.595-38.765 32.975 23.958h-40.76l32.976-23.958z" transform="matrix(1.3333333 0 0 -1.3333333 741.23053 325.71413)"/><path clip-path="url(#o)" d="m0 0-12.596-38.765 32.976 23.958h-40.76l32.976-23.958z" transform="matrix(1.3333333 0 0 -1.3333333 762.66667 405.7148)"/></g></svg>