<svg height="1200" viewBox="0 0 1200 1200" width="1200" xmlns="http://www.w3.org/2000/svg" xmlns:xlink="http://www.w3.org/1999/xlink"><clipPath id="a"><path d="m0 600h900v-600h-900z" transform="translate(-225.00001 -513.75001)"/></clipPath><clipPath id="b"><path d="m0 600h900v-600h-900z" transform="translate(-225.00001 -506.25001)"/></clipPath><path d="m0 1200h1200v-1199.99998h-1200z" fill="#E0001F" stroke-width="1.63299"/><path d="m0 599.99869h599.99999v-600.00000333h-599.99999z" fill="#002364" stroke-width="1.63299"/><g transform="matrix(1.25 0 0 1.25 -75.000005 49.998687)"><g fill="#fff"><path d="m0 0 112.5 30-112.5 30-112.5-30m142.5 0-30-112.5-30 112.5 30 112.5" transform="matrix(1.3333333 0 0 -1.3333333 300 240)"/><path d="m0 0 112.428-30.269-82.428 82.231-112.428 30.269m123.409-71.25-82.231-82.428 30.269 112.428 82.231 82.428" transform="matrix(1.3333333 0 0 -1.3333333 280 234.64133)"/><path d="m0 0 82.231-82.428-30.269 112.428-82.231 82.428m71.25-123.409-112.428-30.269 82.428 82.231 112.428 30.269" transform="matrix(1.3333333 0 0 -1.3333333 265.35867 220)"/></g><path clip-path="url(#a)" d="m0 0c35.208 0 63.75-28.542 63.75-63.75s-28.542-63.75-63.75-63.75-63.75 28.542-63.75 63.75 28.542 63.75 63.75 63.75" fill="#002364" transform="matrix(1.3333333 0 0 -1.3333333 300 115)"/><path clip-path="url(#b)" d="m0 0c31.066 0 56.25-25.184 56.25-56.25s-25.184-56.25-56.25-56.25-56.25 25.184-56.25 56.25 25.184 56.25 56.25 56.25" fill="#fff" transform="matrix(1.3333333 0 0 -1.3333333 300 125)"/></g></svg>