<svg height="800" viewBox="0 0 1200 800" width="1200" xmlns="http://www.w3.org/2000/svg"><path d="m0 0h900v600h-900z" fill="#4189dd" transform="matrix(1.3333333 0 0 -1.3333333 0 800)"/><path d="m0 166.667h900v33.332h-900zm0 0v-33.334zm0-66.667h900v33.333h-900z" fill="#f9d616" transform="matrix(1.3333333 0 0 -1.3333333 0 800)"/><path d="m0 0 23.57-76.43 76.43-23.57-76.43-23.57-23.57-76.43-23.57 76.43-76.43 23.57 76.43 23.57z" fill="#fff" transform="matrix(1.3333333 0 0 -1.3333333 177.778 44.444667)"/><path d="m0 0 18.158-58.879 58.88-18.159-58.88-18.157-18.158-58.88-18.158 58.88-58.88 18.157 58.88 18.159z" fill="#d21034" transform="matrix(1.3333333 0 0 -1.3333333 177.778 75.0612)"/></svg>