<svg height="888.88934" viewBox="0 0 1333.3333 888.88934" width="1333.3333" xmlns="http://www.w3.org/2000/svg" xmlns:xlink="http://www.w3.org/1999/xlink"><clipPath id="a"><path d="m0 666.667h1000v-666.667h-1000z" transform="translate(-605.45122 -480.47181)"/></clipPath><clipPath id="b"><path d="m0 666.667h1000v-666.667h-1000z" transform="translate(-611.13671 -474.96161)"/></clipPath><clipPath id="c"><path d="m0 666.667h1000v-666.667h-1000z" transform="translate(-854.70902 -279.0749)"/></clipPath><clipPath id="d"><path d="m0 666.667h1000v-666.667h-1000z" transform="translate(-676.43072 -442.50701)"/></clipPath><clipPath id="e"><path d="m0 666.667h1000v-666.667h-1000z" transform="translate(-685.69241 -270.74671)"/></clipPath><clipPath id="f"><path d="m0 666.667h1000v-666.667h-1000z" transform="translate(-717.54982 -312.94891)"/></clipPath><clipPath id="g"><path d="m0 666.667h1000v-666.667h-1000z" transform="translate(-712.64842 -311.45281)"/></clipPath><clipPath id="h"><path d="m0 666.667h1000v-666.667h-1000z" transform="translate(-707.33892 -300.69791)"/></clipPath><clipPath id="i"><path d="m0 666.667h1000v-666.667h-1000z" transform="translate(-702.98242 -296.4782)"/></clipPath><clipPath id="j"><path d="m0 666.667h1000v-666.667h-1000z" transform="translate(-698.35451 -294.29951)"/></clipPath><clipPath id="k"><path d="m0 666.667h1000v-666.667h-1000z" transform="translate(-693.31541 -291.03091)"/></clipPath><clipPath id="l"><path d="m0 666.667h1000v-666.667h-1000z" transform="translate(-688.96001 -288.44401)"/></clipPath><clipPath id="m"><path d="m0 666.667h1000v-666.667h-1000z" transform="translate(-685.01171 -265.57391)"/></clipPath><clipPath id="n"><path d="m0 666.667h1000v-666.667h-1000z" transform="translate(-732.25202 -298.11101)"/></clipPath><clipPath id="o"><path d="m0 666.667h1000v-666.667h-1000z" transform="translate(-679.70312 -274.96741)"/></clipPath><clipPath id="p"><path d="m0 666.667h1000v-666.667h-1000z" transform="translate(-676.16312 -286.403)"/></clipPath><clipPath id="q"><path d="m0 666.667h1000v-666.667h-1000z" transform="translate(-741.75292 -399.95961)"/></clipPath><clipPath id="r"><path d="m0 666.667h1000v-666.667h-1000z" transform="translate(-752.14449 -410.77211)"/></clipPath><clipPath id="s"><path d="m0 666.667h1000v-666.667h-1000z" transform="translate(-724.10162 -382.08271)"/></clipPath><clipPath id="t"><path d="m0 666.667h1000v-666.667h-1000z" transform="translate(-724.96292 -334.21651)"/></clipPath><clipPath id="u"><path d="m0 666.667h1000v-666.667h-1000z" transform="translate(-771.67479 -216.13841)"/></clipPath><clipPath id="v"><path d="m0 666.667h1000v-666.667h-1000z" transform="translate(-730.65822 -203.7389)"/></clipPath><clipPath id="w"><path d="m0 666.667h1000v-666.667h-1000z" transform="translate(-751.06254 -432.97571)"/></clipPath><clipPath id="x"><path d="m0 666.667h1000v-666.667h-1000z" transform="translate(-752.14449 -410.77211)"/></clipPath><clipPath id="y"><path d="m0 666.667h1000v-666.667h-1000z" transform="translate(-746.15722 -418.60171)"/></clipPath><clipPath id="z"><path d="m0 666.667h1000v-666.667h-1000z" transform="translate(-746.99322 -421.58361)"/></clipPath><clipPath id="A"><path d="m0 666.667h1000v-666.667h-1000z" transform="translate(-753.51174 -432.97571)"/></clipPath><clipPath id="B"><path d="m0 666.667h1000v-666.667h-1000z" transform="translate(-759.99902 -430.52461)"/></clipPath><clipPath id="C"><path d="m0 666.667h1000v-666.667h-1000z" transform="translate(-767.71292 -414.30441)"/></clipPath><clipPath id="D"><path d="m0 666.667h1000v-666.667h-1000z" transform="translate(-761.51169 -420.28821)"/></clipPath><clipPath id="E"><path d="m0 666.667h1000v-666.667h-1000z" transform="translate(-773.47854 -413.51241)"/></clipPath><clipPath id="F"><path d="m0 666.667h1000v-666.667h-1000z" transform="translate(-762.95409 -427.85661)"/></clipPath><clipPath id="G"><path d="m0 666.667h1000v-666.667h-1000z" transform="translate(-770.23832 -433.11931)"/></clipPath><clipPath id="H"><path d="m0 666.667h1000v-666.667h-1000z" transform="translate(-752.64452 -391.74191)"/></clipPath><clipPath id="I"><path d="m0 666.667h1000v-666.667h-1000z" transform="translate(-771.39062 -344.45281)"/></clipPath><clipPath id="J"><path d="m0 666.667h1000v-666.667h-1000z" transform="translate(-764.39754 -344.66861)"/></clipPath><clipPath id="K"><path d="m0 666.667h1000v-666.667h-1000z" transform="translate(-759.13179 -342.43421)"/></clipPath><clipPath id="L"><path d="m0 666.667h1000v-666.667h-1000z" transform="translate(-749.40432 -336.66761)"/></clipPath><clipPath id="M"><path d="m0 666.667h1000v-666.667h-1000z" transform="translate(-770.16212 -336.09051)"/></clipPath><clipPath id="N"><path d="m0 666.667h1000v-666.667h-1000z" transform="translate(-766.20122 -334.07291)"/></clipPath><clipPath id="O"><path d="m0 666.667h1000v-666.667h-1000z" transform="translate(-748.89842 -296.58761)"/></clipPath><clipPath id="P"><path d="m0 666.667h1000v-666.667h-1000z" transform="translate(-750.19532 -316.33851)"/></clipPath><clipPath id="Q"><path d="m0 666.667h1000v-666.667h-1000z" transform="translate(-744.86042 -291.10901)"/></clipPath><clipPath id="R"><path d="m0 666.667h1000v-666.667h-1000z" transform="translate(-745.07522 -203.8112)"/></clipPath><clipPath id="S"><path d="m0 666.667h1000v-666.667h-1000z" transform="translate(-752.79002 -223.4909)"/></clipPath><clipPath id="T"><path d="m0 666.667h1000v-666.667h-1000z" transform="translate(-758.27049 -233.43911)"/></clipPath><clipPath id="U"><path d="m0 666.667h1000v-666.667h-1000z" transform="translate(-755.38479 -215.5622)"/></clipPath><clipPath id="V"><path d="m0 666.667h1000v-666.667h-1000z" transform="translate(-766.20122 -249.0104)"/></clipPath><clipPath id="W"><path d="m0 666.667h1000v-666.667h-1000z" transform="translate(-770.81454 -219.0221)"/></clipPath><clipPath id="X"><path d="m0 666.667h1000v-666.667h-1000z" transform="translate(-713.21682 -319.94301)"/></clipPath><clipPath id="Y"><path d="m0 666.667h1000v-666.667h-1000z" transform="translate(-710.62212 -319.00551)"/></clipPath><clipPath id="Z"><path d="m0 666.667h1000v-666.667h-1000z" transform="translate(-708.38772 -318.86201)"/></clipPath><clipPath id="aa"><path d="m0 666.667h1000v-666.667h-1000z" transform="translate(-728.27932 -437.80481)"/></clipPath><clipPath id="ab"><path d="m0 666.667h1000v-666.667h-1000z" transform="translate(-729.83012 -436.47131)"/></clipPath><clipPath id="ac"><path d="m0 666.667h1000v-666.667h-1000z" transform="translate(-729.93752 -434.23701)"/></clipPath><clipPath id="ad"><path d="m0 666.667h1000v-666.667h-1000z" transform="translate(-721.07032 -434.63301)"/></clipPath><clipPath id="ae"><path d="m0 666.667h1000v-666.667h-1000z" transform="translate(-771.31449 -192.9977)"/></clipPath><clipPath id="af"><path d="m0 666.667h1000v-666.667h-1000z" transform="translate(-773.90919 -193.6471)"/></clipPath><clipPath id="ag"><path d="m0 666.667h1000v-666.667h-1000z" transform="translate(-776.36522 -194.5124)"/></clipPath><clipPath id="ah"><path d="m0 666.667h1000v-666.667h-1000z" transform="translate(-778.30764 -195.5221)"/></clipPath><clipPath id="ai"><path d="m0 666.667h1000v-666.667h-1000z" transform="translate(-749.94242 -428.43421)"/></clipPath><clipPath id="aj"><path d="m0 666.667h1000v-666.667h-1000z" transform="translate(-750.57519 -429.68811)"/></clipPath><path d="m0 0h1000v666.667h-1000z" fill="#00247d" transform="matrix(1.3333333 0 0 -1.3333333 0 888.88933)"/><path d="m0 0-168.089-112.059 48.411-32.274 168.089 112.059v32.274zm-384.589 0v-32.274l168.089-112.059 48.411 32.274-168.089 112.059zm0-256.392v-32.275h48.411l168.089 112.06-48.411 32.274zm216.5 79.785 168.089-112.06h48.411v32.274l-168.089 112.06z" fill="#fff" transform="matrix(1.3333333 0 0 -1.3333333 512.7852 .000133)"/><path d="m0 0v-96.223h-180.417v-96.221h180.417v-96.223h72.166v96.223h180.417v96.221h-180.417v96.223z" fill="#fff" transform="matrix(1.3333333 0 0 -1.3333333 240.5556 .000133)"/><path d="m0 0v-115.467h-194.85v-57.733h194.85v-115.467h43.3v115.467h194.85v57.733h-194.85v115.467z" fill="#cf142b" transform="matrix(1.3333333 0 0 -1.3333333 259.8 .000133)"/><path d="m0 0-144.334-96.223h32.274l144.333 96.223zm-400.727 0v-21.516l112.06-74.707h32.274zm288.667-192.444 144.333-96.223v21.516l-112.06 74.707zm-144.333 0-144.334-96.223h32.274l144.333 96.223z" fill="#cf142b" transform="matrix(1.3333333 0 0 -1.3333333 534.3024 .000133)"/><path clip-path="url(#a)" d="m0 0h256.858l-.305-182.773c2.136-73.474-43.658-119.065-127.921-139.623-59.839 14.859-128.836 45.593-128.938 137.538z" fill="#fff" transform="matrix(1.3333333 0 0 -1.3333333 807.26827 248.26027)"/><path clip-path="url(#b)" d="m0 0h245.474l-.292-175.142c2.042-70.404-41.724-114.092-122.252-133.791-57.186 14.237-123.125 43.689-123.222 131.795z" fill="#00a2bd" stroke="#000" transform="matrix(1.3333333 0 0 -1.3333333 814.84893 255.6072)"/><path clip-path="url(#c)" d="m0 0c-8.93-67.204-60.688-96.567-120.646-112.152-53.072 14.236-110.168 36.965-121.236 111.814z" fill="#a53d08" transform="matrix(1.3333333 0 0 -1.3333333 1139.612 516.78947)"/><path clip-path="url(#d)" d="m0 0 47.91-.171-.342 22.074 17.453-.172.172-21.902h47.74l.171-17.111-47.911-.171-.382-201.798-17.026-.108-.217 202.077-47.579-.171z" transform="matrix(1.3333333 0 0 -1.3333333 901.9076 298.88)"/><path clip-path="url(#e)" d="m0 0 43.7-45.334c15.111 16.608 4.629 78.689-15.246 90.123-2.382-7.351-6.433-16.165-10.739-19.007-9.474-6.456-32.69-14.005-24.93-18.839 1.77 2.452 6.399 4.765 8.576-.68 2.587-8.576-9.665-9.122-9.665-9.122s-7.759.954-9.122 8.85c-1.36 7.895 11.559 15.104 12.661 15.655 1.089.409 17.97 4.901 20.829 19.876 3.54 14.704 7.215 12.525 7.897 12.797 22.053-2.177 36.484-41.658 37.302-69.429.816-27.772-11.299-46.151-13.479-47.376-2.178-1.226-52.549 59.763-52.549 59.763z" fill="#ff9a08" stroke="#000" stroke-width=".8" transform="matrix(1.3333333 0 0 -1.3333333 914.25653 527.89373)"/><g fill="none"><g stroke-width=".8"><path clip-path="url(#f)" d="m0 0 .271-81.817" stroke="#000" transform="matrix(1.3333333 0 0 -1.3333333 956.73307 471.62413)"/><path clip-path="url(#g)" d="m0 0c0-.136.271-74.332.271-74.332" stroke="#000" transform="matrix(1.3333333 0 0 -1.3333333 950.19787 473.61893)"/><path clip-path="url(#h)" d="m0 0 .271-59.084" stroke="#000" transform="matrix(1.3333333 0 0 -1.3333333 943.11853 487.9588)"/><path clip-path="url(#i)" d="m0 0 .272-48.875" stroke="#000" transform="matrix(1.3333333 0 0 -1.3333333 937.30987 493.58507)"/><path clip-path="url(#j)" d="m0 0v-41.25" stroke="#000" transform="matrix(1.3333333 0 0 -1.3333333 931.13933 496.49)"/><path clip-path="url(#k)" d="m0 0v-32.672" stroke="#000" transform="matrix(1.3333333 0 0 -1.3333333 924.42053 500.84813)"/><path clip-path="url(#l)" d="m0 0v-25.048" stroke="#000" transform="matrix(1.3333333 0 0 -1.3333333 918.61333 504.29733)"/><path clip-path="url(#m)" d="m0 0 45.063-51.597" stroke="#ffdf00" stroke-linecap="round" transform="matrix(1.3333333 0 0 -1.3333333 913.34893 534.7908)"/></g><path clip-path="url(#n)" d="m0 0s20.422-44.654 1.497-81.411" stroke="#ffdf00" stroke-linecap="round" stroke-width="1.499" transform="matrix(1.3333333 0 0 -1.3333333 976.336 491.408)"/><path clip-path="url(#o)" d="m0 0s1.497 3.948 3.403 2.314" stroke="#ffdf00" stroke-linecap="round" stroke-width="1.499" transform="matrix(1.3333333 0 0 -1.3333333 906.2708 522.26613)"/><path clip-path="url(#p)" d="m0 0s-8.168-7.215-3.676-11.845" stroke="#ffdf00" stroke-linecap="round" stroke-width="1.499" transform="matrix(1.3333333 0 0 -1.3333333 901.5508 507.01867)"/></g><g stroke="#000" stroke-width=".063"><path clip-path="url(#q)" d="m0 0c3.025 2.595 4.595 4.181 6.468 3.893 1.873-.289 4.424-.144 6.297.432 1.88.577 11.176 1.731 14.999.433 1.298-.144 3.025-.865 5.69-3.101 2.67-2.233 6.563-6.127 5.265-16.939-1.297-10.813-.873-15.438-1.443-21.482-1.006-10.669-3.373-19.454-7.638-18.743 5.765-10.092 6.341-18.742 10.088-25.663 3.753-6.92 6.056-21.049 4.613-36.332-1.437-15.282-5.475-49.595 6.633-72.663-2.019-1.441-6.917 0-11.246 4.613-4.323 4.615-6.222 4.463-9.804 1.731-10.955-8.363-21.214-18.441-36.326-8.363-3.462 2.308-4.557 5.075-2.02 12.112 6.342 17.589 9.424 41.721 8.424 53.055z" fill="#008021" transform="matrix(1.3333333 0 0 -1.3333333 989.00387 355.60987)"/><g fill="#ffe1cf"><path clip-path="url(#r)" d="m0 0c.791-2.451 1.222-5.622-.076-8.506-1.297-2.883-1.582-6.344.576-10.524 3.462 4.901 8.366 3.892 11.246 6.775 2.886 2.884 3.462 5.623 5.626 6.2-2.164 1.874-5.48 3.893-4.759 9.371.722 5.479 8.361 9.948 1.444 18.311-4.469 5.397-10.962 3.892-13.772 1.802-1.323-.983-2.449-2.379-2.88-3.316-.436-.937.108-3.07-.942-4.326-.716-.864-1.589-1.724-2.596-2.45-.645-.469-1.05-1.152-.36-1.947.278-.318.785-.385 1.342-.578-.324-.649-.69-1.296-1.051-1.765-.342-.44-.196-.859.215-1.217-.544-1.73.507-1.918-.215-3.216-.626-1.122-1.475-2.45.867-3.749.646-.36 3.715-1.072 5.335-.865" transform="matrix(1.3333333 0 0 -1.3333333 1002.8593 341.1932)"/><path clip-path="url(#s)" d="m0 0c-4.037-1.01-10.524.72-15.429.144-2.165-.255-3.892.865-3.601 3.027.285 2.163.576 5.478.139 8.507-.671 4.718 1.588 11.245 4.759 18.454 3.171 7.208 4.76 11.245 4.76 14.633 0 2.235.215 4.758 2.233 6.056 1.494.958 1.779 1.889 2.311 2.667 1.222 1.802 2.373 2.234 2.518 1.153.089-.643-.145-1.225-.721-2.091 1.298 1.082 3.5 2.344 4 2.704.506.36 3.069 2.163 3.209.468 1.012.505 1.696.469 1.949-.071.271-.585.107-.83-.398-1.262.72.144 1.549-1.118.107-2.235.759.253 1.513-1.009.184-2.162-1.38-1.191-2.957-2.019-3.462-2.956-.507-.937-3.931-3.569-5.298-4.145-1.373-.577-1.443-1.368-1.443-3.388 0-22.202-2.664-20.399-2.664-25.735 0-1.442-.292-2.74 1.152-2.306 1.443.432 3.531 1.081 5.695 1.081z" transform="matrix(1.3333333 0 0 -1.3333333 965.4688 379.44573)"/><path clip-path="url(#t)" d="m0 0c6.519 3.259 13.986 4.47 17.879 5.479 3.892 1.009 10.094 4.036 13.119 5.622 3.031 1.587 5.481 3.75 7.208 4.326 1.734.576 3.671 1.769 4.76 3.892 5.62 10.957 8.651 19.75 8.651 27.393 0 5.046-1.298 10.669-6.202 6.632-4.607-3.794-9.626-11.11-10.955-16.436-2.019-8.073-3.747-9.804-4.184-11.388-.43-1.587-2.062-1.585-4.037-2.02-8.506-1.874-10.525-3.171-16.866-7.929-6.342-4.758-13.266-8.939-17.879-11.534-4.613-2.596-5.474-2.884-6.487-4.974-1.006-2.09-1.943-3.676-2.81-4.614-.867-.936-1.114-2.032-.936-3.172.145-.937-.291-5.261-.362-6.704-.075-1.441.286-1.802.868-1.874.576-.072 1.367.216 1.658 1.947-.291-1.731 2.089-1.154 2.234.143-.076-1.874 2.449-.793 2.595.938 0-1.226 1.911-.378 2.088.216.43 1.442.791 3.028 1.367 4.181.842 1.674 1.74 3.842 3.393 5.046 1.873 1.37 1.005 2.884 4.898 4.83" transform="matrix(1.3333333 0 0 -1.3333333 966.6172 443.26733)"/><path clip-path="url(#u)" d="m0 0c.437-1.586 1.229-3.389 1.513-4.47.291-1.081-.215-1.418-.5-2.018-1.513-3.172-3.139-8.228-3.392-10.957-.14-1.586-1.222-3.1-1.728-4.037-.557-1.034-.341-1.83.937-2.811.613-.469 2.595.144 2.81 1.152.721-.719 2.018-.431 2.594.65.653-.65 1.735-.216 2.456.865.645-.433 1.582.433 1.943 1.01 1.013-.505 2.095.107 2.127 2.09.006.397.253 1.081.544 1.549.285.469.392 1.37.36 2.164-.038.792.469 2.377 1.152 3.496.684 1.117 1.873 3.099 1.368 4.973-.469 1.746-1.222 1.586-1.874 4.109-1.582 1.659-3.747 3.965-5.981 4.11-2.234.144-3.531-1.37-4.329-1.875" transform="matrix(1.3333333 0 0 -1.3333333 1028.8997 600.7048)"/><path clip-path="url(#v)" d="m0 0c2.02-2.018 6.563-2.09 9.734 1.299-1.152.504-3.677 1.657-4.829 2.595-1.589-1.586-3.392-3.388-4.905-3.894" transform="matrix(1.3333333 0 0 -1.3333333 974.21093 617.23747)"/></g><path clip-path="url(#w)" d="m0 0c.791 5.118 4.417 4.997 6.702 4.469.937-.216 3.246-.432 5.404.144 4.279 1.14 7.5-.36 7.07-4.469 1.152-.865 2.374-2.883 2.158-4.614-.215-1.73.145-2.451 1.734-2.667 1.582-.217 4.975-2.163 2.734-4.902 2.165-1.298 3.823-4.613 2.671-6.848s-4.614-2.596-6.057-.576c-1.582-.721-4.183-.866-5.766.792-1.082-1.297-3.822-1.154-4.328 0-.5 1.154-1.354 1.771-2.374 2.091-1.157.36-1.227 3.532.501 3.892-.216.938-.139 2.019.291 2.523s.07 1.442-.937 2.235c-1.012.793-1.873 3.821-.866 5.479-1.729-.577-5.551 1.081-6.342 2.234-.798 1.154-1.873 1.226-2.595.217" fill="#870f00" transform="matrix(1.3333333 0 0 -1.3333333 1001.4167 311.5884)"/><g fill="none"><path clip-path="url(#x)" d="m0 0c2.811.361 3.747 2.091 5.835 1.947" transform="matrix(1.3333333 0 0 -1.3333333 1002.8593 341.1932)"/><path clip-path="url(#y)" d="m0 0c.184-.162.418-.294.684-.44.57-.308 1.19-.344 1.766-.415" transform="matrix(1.3333333 0 0 -1.3333333 994.87627 330.75373)"/><path clip-path="url(#z)" d="m0 0c.393-.135.81-.333 1.184-.719" transform="matrix(1.3333333 0 0 -1.3333333 995.99093 326.77787)"/><path clip-path="url(#A)" d="m0 0c-1.658 1.586 2.81 4.829 7.499.216.874-.861 3.096-.865 3.747-.649" transform="matrix(1.3333333 0 0 -1.3333333 1004.6823 311.5884)"/><path clip-path="url(#B)" d="m0 0c2.164.505 5.404.505 6.341-1.946.943-2.451 2.816-.866 4.329-3.749 1.513-2.884 3.893-6.127 6.195-3.892" transform="matrix(1.3333333 0 0 -1.3333333 1013.332 314.85653)"/><path clip-path="url(#C)" d="m0 0c-.651.865-.937 2.74-.506 4.038-.867 1.009-.506 3.099 0 4.108" transform="matrix(1.3333333 0 0 -1.3333333 1023.6172 336.48347)"/><path clip-path="url(#D)" d="m0 0c.075-.865 1.228-2.451 3.031-2.739" transform="matrix(1.3333333 0 0 -1.3333333 1015.3489 328.50507)"/><path clip-path="url(#E)" d="m0 0c-1.006 1.297-.866 2.45-.646 4.037" transform="matrix(1.3333333 0 0 -1.3333333 1031.3047 337.53947)"/><path clip-path="url(#F)" d="m0 0c-.069-1.297.722-3.027 2.089-3.604.291-.72 1.733-2.739 4.613-2.451" transform="matrix(1.3333333 0 0 -1.3333333 1017.2721 318.41387)"/><path clip-path="url(#G)" d="m0 0c-1.582 1.228-3.728 2.74-6.562 3.114" transform="matrix(1.3333333 0 0 -1.3333333 1026.9844 311.39693)"/><path clip-path="url(#H)" d="m0 0c-2.449-3.316-4.037-7.93-2.88-14.417 1.152-6.488 3.026-16.004-1.733-20.329" transform="matrix(1.3333333 0 0 -1.3333333 1003.526 366.5668)"/><path clip-path="url(#I)" d="m0 0c-3.316.721-8.075.721-10.671-1.153-2.595-1.874-6.923-2.019-9.803-.577" transform="matrix(1.3333333 0 0 -1.3333333 1028.5208 429.61893)"/><path clip-path="url(#J)" d="m0 0c-2.886-.504-4.253-2.522-4.253-7.857 0-5.334-1.152-13.12-.145-20.761" transform="matrix(1.3333333 0 0 -1.3333333 1019.1967 429.3312)"/><path clip-path="url(#K)" d="m0 0c-1.873-.505-3.816-.576-3.456-5.623" transform="matrix(1.3333333 0 0 -1.3333333 1012.1757 432.3104)"/><path clip-path="url(#L)" d="m0 0c.069 3.1 1.152 5.983 3.171 5.479" transform="matrix(1.3333333 0 0 -1.3333333 999.20573 439.9992)"/><path clip-path="url(#M)" d="m0 0c.146 6.849-1.366 8.795-3.386 8.723 2.74-.073 4.608-.408 5.766-11.606.867-8.362 2.614-11.322 4.614-17.878 5.19-17.012 2.595-43.252 5.19-52.479" transform="matrix(1.3333333 0 0 -1.3333333 1026.8828 440.76867)"/><path clip-path="url(#N)" d="m0 0c5.474-15.86 8.36-33.449-.576-61.707 6.05-16.724 12.106-28.834 13.259-35.755" transform="matrix(1.3333333 0 0 -1.3333333 1021.6016 443.4588)"/><path clip-path="url(#O)" d="m0 0c1.006 3.604-2.595 4.036.575 16.724 1.374 5.496 1.589 8.794.722 10.524" transform="matrix(1.3333333 0 0 -1.3333333 998.5312 493.4392)"/><path clip-path="url(#P)" d="m0 0c-1.297-5.623 4.184-16.147 1.443-23.788" transform="matrix(1.3333333 0 0 -1.3333333 1000.2604 467.10467)"/><path clip-path="url(#Q)" d="m0 0c0-4.902 1.151-11.246.867-16.148-.291-4.902 1.709-7.173 4.037-11.822 8.361-16.724 14.05-28.657 13.259-44.406-.139-2.883.867-8.938-2.158-10.668" transform="matrix(1.3333333 0 0 -1.3333333 993.1472 500.744)"/><path clip-path="url(#R)" d="m0 0c.867-.072 1.804.36 2.886 2.956 1.083 2.595 4.545 18.166 3.101 28.835" transform="matrix(1.3333333 0 0 -1.3333333 993.4336 617.14107)"/><path clip-path="url(#S)" d="m0 0c.431-3.315.431-10.092-1.728-15.426" transform="matrix(1.3333333 0 0 -1.3333333 1003.72 590.90147)"/><path clip-path="url(#T)" d="m0 0c1.298-7.064 1.152-13.408.146-17.877" transform="matrix(1.3333333 0 0 -1.3333333 1011.0273 577.6372)"/><path clip-path="url(#U)" d="m0 0c.146-2.884 1.443-10.093-.722-10.67" transform="matrix(1.3333333 0 0 -1.3333333 1007.1797 601.47307)"/><path clip-path="url(#V)" d="m0 0c5.328-8.362 9.512-28.979 13.979-33.304" transform="matrix(1.3333333 0 0 -1.3333333 1021.6016 556.87547)"/><path clip-path="url(#W)" d="m0 0c-.146 2.307-.291 5.478-1.589 6.92" transform="matrix(1.3333333 0 0 -1.3333333 1027.7527 596.85987)"/><path clip-path="url(#X)" d="m0 0c.069 1.587-.216 3.101 1.513 5.551" transform="matrix(1.3333333 0 0 -1.3333333 950.95573 462.29867)"/><path clip-path="url(#Y)" d="m0 0c.215 5.551.139 6.057 1.728 7.57" transform="matrix(1.3333333 0 0 -1.3333333 947.49613 463.54867)"/><path clip-path="url(#Z)" d="m0 0c.069 3.965-.437 5.335 1.152 7.857" transform="matrix(1.3333333 0 0 -1.3333333 944.51693 463.74)"/><path clip-path="url(#aa)" d="m0 0c-.614-.396-4.215-3.135-5.728-4.289" transform="matrix(1.3333333 0 0 -1.3333333 971.03907 305.1496)"/><path clip-path="url(#ab)" d="m0 0c-.684-.107-2.665-1.73-6.196-4.469" transform="matrix(1.3333333 0 0 -1.3333333 973.1068 306.9276)"/><path clip-path="url(#ac)" d="m0 0c-1.114-.504-3.24-2.56-5.189-3.929" transform="matrix(1.3333333 0 0 -1.3333333 973.25 309.90667)"/><path clip-path="url(#ad)" d="m0 0c-.538-.396-1.582-1.55-2.088-1.946" transform="matrix(1.3333333 0 0 -1.3333333 961.42707 309.37867)"/><path clip-path="url(#ae)" d="m0 0c-.323.361-.323 1.623.253 3.028" transform="matrix(1.3333333 0 0 -1.3333333 1028.4193 631.55907)"/><path clip-path="url(#af)" d="m0 0c-.393.396 0 2.127.398 3.244" transform="matrix(1.3333333 0 0 -1.3333333 1031.8789 630.6932)"/><path clip-path="url(#ag)" d="m0 0c-.469.216-.614 1.226.069 2.595" transform="matrix(1.3333333 0 0 -1.3333333 1035.1536 629.53947)"/><path clip-path="url(#ah)" d="m0 0c-.322.107-.468.648.107 2.234" transform="matrix(1.3333333 0 0 -1.3333333 1037.7435 628.1932)"/></g></g><path clip-path="url(#ai)" d="m0 0c1.044-1.37 2.126-1.225 2.316-2.108.19-.884.33-.947.532-1.208.203-.262-.494-.209-.835-.068-.336.141-1.184.126-1.703.119-.512-.008-1.126.598-.741.67.38.071.329.191.273.459-.057.269.215.694.373.771.165.078.051.064-.095.424-.152.36-.342 1.236-.12.941" transform="matrix(1.3333333 0 0 -1.3333333 999.9232 317.64373)"/><path clip-path="url(#aj)" d="m0 0c1.171-.137 3.189-.77 4.284-1.981.862-.954.158-.701-.278-.736-.437-.037-1.291.273-1.722.814-.424.541-1.695 1.227-2.373 1.406-.411.106-.797.601.089.497" transform="matrix(1.3333333 0 0 -1.3333333 1000.7669 315.97187)"/></svg>