<svg height="400" viewBox="0 0 600 400" width="600" xmlns="http://www.w3.org/2000/svg" xmlns:xlink="http://www.w3.org/1999/xlink"><clipPath id="a"><path d="m0 300h450v-300h-450z" transform="translate(-35.393601 -212.35941)"/></clipPath><clipPath id="b"><path d="m0 300h450v-300h-450z" transform="translate(-251.08591 -218.96731)"/></clipPath><clipPath id="c"><path d="m0 300h450v-300h-450z" transform="translate(-259.687 -216.35841)"/></clipPath><clipPath id="d"><path d="m0 300h450v-300h-450z" transform="translate(-267.6133 -212.12161)"/></clipPath><clipPath id="e"><path d="m0 300h450v-300h-450z" transform="translate(-274.561 -206.41941)"/></clipPath><clipPath id="f"><path d="m0 300h450v-300h-450z" transform="translate(-280.26271 -199.47171)"/></clipPath><clipPath id="g"><path d="m0 300h450v-300h-450z" transform="translate(-284.49951 -191.54541)"/></clipPath><clipPath id="h"><path d="m0 300h450v-300h-450z" transform="translate(-287.10891 -182.9443)"/></clipPath><clipPath id="i"><path d="m0 300h450v-300h-450z" transform="translate(-287.98971 -174)"/></clipPath><clipPath id="j"><path d="m0 300h450v-300h-450z" transform="translate(-287.10891 -165.05571)"/></clipPath><clipPath id="k"><path d="m0 300h450v-300h-450z" transform="translate(-284.49951 -156.4546)"/></clipPath><clipPath id="l"><path d="m0 300h450v-300h-450z" transform="translate(-280.26271 -148.5283)"/></clipPath><clipPath id="m"><path d="m0 300h450v-300h-450z" transform="translate(-274.561 -141.58011)"/></clipPath><clipPath id="n"><path d="m0 300h450v-300h-450z" transform="translate(-267.6133 -135.87891)"/></clipPath><clipPath id="o"><path d="m0 300h450v-300h-450z" transform="translate(-259.687 -131.6416)"/></clipPath><clipPath id="p"><path d="m0 300h450v-300h-450z" transform="translate(-216.6694 -135.87891)"/></clipPath><clipPath id="q"><path d="m0 300h450v-300h-450z" transform="translate(-209.72221 -141.58011)"/></clipPath><clipPath id="r"><path d="m0 300h450v-300h-450z" transform="translate(-204.02001 -148.5283)"/></clipPath><clipPath id="s"><path d="m0 300h450v-300h-450z" transform="translate(-199.7832 -156.4546)"/></clipPath><clipPath id="t"><path d="m0 300h450v-300h-450z" transform="translate(-197.17431 -165.05571)"/></clipPath><clipPath id="u"><path d="m0 300h450v-300h-450z" transform="translate(-196.29351 -174)"/></clipPath><clipPath id="v"><path d="m0 300h450v-300h-450z" transform="translate(-197.17431 -182.9443)"/></clipPath><clipPath id="w"><path d="m0 300h450v-300h-450z" transform="translate(-199.7832 -191.54541)"/></clipPath><clipPath id="x"><path d="m0 300h450v-300h-450z" transform="translate(-204.02001 -199.47171)"/></clipPath><clipPath id="y"><path d="m0 300h450v-300h-450z" transform="translate(-209.72221 -206.41941)"/></clipPath><clipPath id="z"><path d="m0 300h450v-300h-450z" transform="translate(-242.09031 -214.3135)"/></clipPath><clipPath id="A"><path d="m0 300h450v-300h-450z" transform="translate(-242.14161 -219.84811)"/></clipPath><clipPath id="B"><path d="m0 300h450v-300h-450z" transform="translate(-251.08591 -129.03321)"/></clipPath><clipPath id="C"><path d="m0 300h450v-300h-450z" transform="translate(-242.14161 -128.1514)"/></clipPath><clipPath id="D"><path d="m0 300h450v-300h-450z" transform="translate(-233.19681 -129.03321)"/></clipPath><clipPath id="E"><path d="m0 300h450v-300h-450z" transform="translate(-224.59621 -131.6416)"/></clipPath><clipPath id="F"><path d="m0 300h450v-300h-450z" transform="translate(-216.6694 -212.12161)"/></clipPath><clipPath id="G"><path d="m0 300h450v-300h-450z" transform="translate(-224.59621 -216.35841)"/></clipPath><clipPath id="H"><path d="m0 300h450v-300h-450z" transform="translate(-233.19681 -218.96731)"/></clipPath><clipPath id="I"><path d="m0 300h450v-300h-450z" transform="translate(-240.7402 -103.51461)"/></clipPath><clipPath id="J"><path d="m0 300h450v-300h-450z" transform="translate(-247.79001 -79.989302)"/></clipPath><clipPath id="K"><path d="m0 300h450v-300h-450z" transform="translate(-224.02981 -84.3994)"/></clipPath><clipPath id="L"><path d="m0 300h450v-300h-450z" transform="translate(-223.9399 -84.0898)"/></clipPath><clipPath id="M"><path d="m0 300h450v-300h-450z" transform="translate(-224.00001 -83.0254)"/></clipPath><clipPath id="N"><path d="m0 300h450v-300h-450z" transform="translate(-219.43951 -83.471702)"/></clipPath><clipPath id="O"><path d="m0 300h450v-300h-450z" transform="translate(-223.9399 -83.558605)"/></clipPath><clipPath id="P"><path d="m0 300h450v-300h-450z" transform="translate(-36.000001 -21.876998)"/></clipPath><clipPath id="Q"><path d="m0 300h450v-300h-450z" transform="translate(-35.393601 -87.6406)"/></clipPath><clipPath id="R"><path d="m0 300h450v-300h-450z" transform="translate(-36.606401 -87.6406)"/></clipPath><clipPath id="S"><path d="m0 300h450v-300h-450z" transform="translate(-36.000001 -21.876998)"/></clipPath><clipPath id="T"><path d="m0 300h450v-300h-450z" transform="translate(-35.393601 -194.11671)"/></clipPath><clipPath id="U"><path d="m0 300h450v-300h-450z" transform="translate(-36.606401 -194.11671)"/></clipPath><clipPath id="V"><path d="m0 300h450v-300h-450z" transform="translate(-36.606401 -212.35941)"/></clipPath><clipPath id="W"><path d="m0 300h450v-300h-450z" transform="translate(-36.606401 -105.88281)"/></clipPath><clipPath id="X"><path d="m0 300h450v-300h-450z" transform="translate(-35.393601 -105.88281)"/></clipPath><clipPath id="Y"><path d="m0 300h450v-300h-450z" transform="translate(-36.000001 -278.12301)"/></clipPath><clipPath id="Z"><path d="m0 300h450v-300h-450z" transform="translate(-36.000001 -278.12301)"/></clipPath><path d="m0 0h450v300h-450z" fill="#00afca" transform="matrix(1.3333333 0 0 -1.3333333 0 400)"/><g fill="#fec50c"><path clip-path="url(#a)" d="m0 0c0-6.081 5.459-9.207 9.749-9.207 5.78 0 8.857 3.456 8.857 7.98 0 2.564-.47 4.173-1.652 6.627 0 0-9.534 19.828-13.246 27.496-.463.957-.612 2.045-.612 3.642 0 2.465 2.391 4.48 4.898 4.542 2.285.057 4.776-2.131 4.776-4.624 0-3.028-1.571-4.378-3.184-4.378-1.985 0-2.776.816-2.776 2.21 0 .97.469 1.391 1.143 1.391 1.702 0 1.225-2.292 1.225-2.292.845.185 1.54 1.049 1.142 2.128.619.138 1.199.463 1.654.982-.457.442-.98.784-1.654.9.399 1.316-.133 1.959-1.285 2.23.232-.506.24-.972.163-1.412-1.813.516-4.592-.304-4.592-3.437 0-3.109 2.158-5.727 6.205-5.073-.963-.46-1.453-1.402-1.551-2.455.734.286 1.551.327 1.551.327-.474-.834-1.131-1.553-1.103-3.191.751.341 1.447.972 2.409.572-1.509-2.968.344-7.053 5.061-8.019-1.726 2.023-2.572 4.208-2.572 6.383 0 7.049 1.96 8.234 1.96 13.135 0 2.05-1.054 4.264-3.143 5.769v-.082c1.381.369 2.265 1.049 2.773 1.973-3.154.894-7.739.878-10.202-.091-2.83-.327-4.805-2.499-5.388-3.601-.582-1.101-1.712-5.086 0-8.674 1.875-3.926 10.714-22.667 13.47-28.559.584-1.25.939-2.575.939-4.01 0-3.609-3.307-4.869-5.184-4.869-2.245 0-4.531 1.71-4.531 3.846 0 1.354.735 2.169 1.796 2.169 2.538 0 2.383-2.159 1.878-3.519 1.579.71 2.497 1.978 2.245 3.315.894.122 1.745.546 2.53 1.432-.618.78-1.372 1.37-2.53 1.391.506 2.073-.883 2.95-2.245 3.436.431-1.521.714-3.273-1.878-3.273-1.889 0-3.377-.327-4.245-1.555-.051 1.637-.204 8.102-.204 8.102-.109 2.429 3.252 2.36 5.388 1.636-.806 2.799-2.459 4.311-6.286 3.929.929.388 1.918 1.262 1.918 2.945 0 2.278-1.848 4.802-3.061 5.548l-.607-23.715z" transform="matrix(1.3333333 0 0 -1.3333333 47.191467 116.85413)"/><path clip-path="url(#b)" d="m0 0c2.359-.438 3.534.856 3.884 2.621.469 2.353-.538 14.201-.538 14.201s-5.464-10.561-5.931-12.914c-.352-1.765.232-3.44 2.585-3.908" transform="matrix(1.3333333 0 0 -1.3333333 334.7812 108.0436)"/><path clip-path="url(#c)" d="m0 0c2.228-.891 3.632.15 4.321 1.812.918 2.217 2.242 14.034 2.242 14.034s-7.419-9.293-8.337-11.509c-.688-1.662-.442-3.419 1.774-4.337" transform="matrix(1.3333333 0 0 -1.3333333 346.24933 111.52213)"/><path clip-path="url(#d)" d="m0 0c2.011-1.308 3.592-.561 4.592.935 1.332 1.994 4.937 13.326 4.937 13.326s-9.09-7.667-10.422-9.661c-1-1.496-1.102-3.267.893-4.6" transform="matrix(1.3333333 0 0 -1.3333333 356.81773 117.1712)"/><path clip-path="url(#e)" d="m0 0c1.717-1.675 3.414-1.251 4.686.021 1.696 1.697 7.442 12.107 7.442 12.107s-10.411-5.746-12.107-7.442c-1.272-1.272-1.717-2.99-.021-4.686" transform="matrix(1.3333333 0 0 -1.3333333 366.08133 124.77413)"/><path clip-path="url(#f)" d="m0 0c1.358-1.978 3.104-1.893 4.6-.893 1.995 1.332 9.661 10.422 9.661 10.422s-11.331-3.604-13.326-4.937c-1.496-1-2.268-2.597-.935-4.592" transform="matrix(1.3333333 0 0 -1.3333333 373.6836 134.03773)"/><path clip-path="url(#g)" d="m0 0c.946-2.205 2.675-2.462 4.337-1.774 2.217.919 11.509 8.337 11.509 8.337s-11.817-1.324-14.033-2.242c-1.662-.689-2.731-2.105-1.813-4.321" transform="matrix(1.3333333 0 0 -1.3333333 379.33267 144.60613)"/><path clip-path="url(#h)" d="m0 0c.497-2.347 2.143-2.937 3.908-2.585 2.353.467 12.914 5.931 12.914 5.931s-11.848 1.007-14.201.539c-1.765-.351-3.089-1.532-2.621-3.885" transform="matrix(1.3333333 0 0 -1.3333333 382.81187 156.07427)"/><path clip-path="url(#i)" d="m0 0c.03-2.399 1.529-3.298 3.328-3.298 2.399 0 13.824 3.298 13.824 3.298s-11.425 3.298-13.824 3.298c-1.799 0-3.328-.899-3.328-3.298" transform="matrix(1.3333333 0 0 -1.3333333 383.98627 168)"/><path clip-path="url(#j)" d="m0 0c-.439-2.359.856-3.534 2.621-3.885 2.353-.468 14.201.539 14.201.539s-10.561 5.464-12.914 5.931c-1.765.352-3.44-.232-3.908-2.585" transform="matrix(1.3333333 0 0 -1.3333333 382.81187 179.92573)"/><path clip-path="url(#k)" d="m0 0c-.89-2.228.151-3.632 1.813-4.321 2.216-.918 14.033-2.242 14.033-2.242s-9.292 7.418-11.509 8.337c-1.662.688-3.419.442-4.337-1.774" transform="matrix(1.3333333 0 0 -1.3333333 379.33267 191.39387)"/><path clip-path="url(#l)" d="m0 0c-1.308-2.012-.561-3.593.935-4.592 1.995-1.333 13.326-4.937 13.326-4.937s-7.666 9.09-9.661 10.422c-1.496 1-3.267 1.101-4.6-.893" transform="matrix(1.3333333 0 0 -1.3333333 373.6836 201.96227)"/><path clip-path="url(#m)" d="m0 0c-1.675-1.717-1.251-3.413.021-4.686 1.696-1.696 12.107-7.442 12.107-7.442s-5.746 10.411-7.442 12.107c-1.272 1.272-2.99 1.717-4.686.021" transform="matrix(1.3333333 0 0 -1.3333333 366.08133 211.22653)"/><path clip-path="url(#n)" d="m0 0c-1.978-1.358-1.893-3.104-.893-4.601 1.332-1.994 10.422-9.661 10.422-9.661s-3.605 11.332-4.937 13.326c-1 1.497-2.597 2.268-4.592.936" transform="matrix(1.3333333 0 0 -1.3333333 356.81773 218.82813)"/><path clip-path="url(#o)" d="m0 0c-2.205-.945-2.462-2.675-1.774-4.337.918-2.217 8.337-11.509 8.337-11.509s-1.324 11.817-2.242 14.034c-.689 1.662-2.105 2.73-4.321 1.812" transform="matrix(1.3333333 0 0 -1.3333333 346.24933 224.47787)"/><path clip-path="url(#p)" d="m0 0c-2.011 1.308-3.592.561-4.591-.936-1.333-1.994-4.938-13.326-4.938-13.326s9.09 7.667 10.423 9.661c.999 1.497 1.101 3.268-.894 4.601" transform="matrix(1.3333333 0 0 -1.3333333 288.89253 218.82813)"/><path clip-path="url(#q)" d="m0 0c-1.718 1.676-3.414 1.251-4.686-.021-1.696-1.696-7.442-12.107-7.442-12.107s10.41 5.746 12.107 7.442c1.272 1.273 1.717 2.99.021 4.686" transform="matrix(1.3333333 0 0 -1.3333333 279.6296 211.22653)"/><path clip-path="url(#r)" d="m0 0c-1.357 1.978-3.104 1.893-4.6.893-1.994-1.332-9.661-10.422-9.661-10.422s11.332 3.604 13.326 4.937c1.496.999 2.268 2.597.935 4.592" transform="matrix(1.3333333 0 0 -1.3333333 272.02667 201.96227)"/><path clip-path="url(#s)" d="m0 0c-.946 2.205-2.675 2.462-4.337 1.774-2.217-.919-11.509-8.337-11.509-8.337s11.817 1.324 14.034 2.242c1.662.689 2.73 2.105 1.812 4.321" transform="matrix(1.3333333 0 0 -1.3333333 266.3776 191.39387)"/><path clip-path="url(#t)" d="m0 0c-.498 2.347-2.144 2.937-3.908 2.585-2.353-.467-12.914-5.931-12.914-5.931s11.848-1.007 14.201-.539c1.765.351 3.089 1.532 2.621 3.885" transform="matrix(1.3333333 0 0 -1.3333333 262.89907 179.92573)"/><path clip-path="url(#u)" d="m0 0c-.03 2.399-1.529 3.298-3.329 3.298-2.399 0-13.823-3.298-13.823-3.298s11.424-3.298 13.823-3.298c1.8 0 3.329.899 3.329 3.298" transform="matrix(1.3333333 0 0 -1.3333333 261.72467 168)"/><path clip-path="url(#v)" d="m0 0c.438 2.359-.856 3.534-2.621 3.885-2.353.468-14.201-.539-14.201-.539s10.561-5.464 12.914-5.931c1.764-.352 3.44.232 3.908 2.585" transform="matrix(1.3333333 0 0 -1.3333333 262.89907 156.07427)"/><path clip-path="url(#w)" d="m0 0c.891 2.228-.15 3.632-1.812 4.321-2.217.918-14.034 2.242-14.034 2.242s9.292-7.418 11.509-8.337c1.662-.688 3.419-.442 4.337 1.774" transform="matrix(1.3333333 0 0 -1.3333333 266.3776 144.60613)"/><path clip-path="url(#x)" d="m0 0c1.308 2.011.561 3.592-.935 4.592-1.994 1.333-13.326 4.937-13.326 4.937s7.667-9.09 9.661-10.422c1.496-1 3.267-1.102 4.6.893" transform="matrix(1.3333333 0 0 -1.3333333 272.02667 134.03773)"/><path clip-path="url(#y)" d="m0 0c1.675 1.718 1.251 3.414-.021 4.686-1.697 1.696-12.107 7.442-12.107 7.442s5.746-10.41 7.442-12.107c1.272-1.272 2.99-1.717 4.686-.021" transform="matrix(1.3333333 0 0 -1.3333333 279.6296 124.77413)"/><path clip-path="url(#z)" d="m0 0c22.293 0 40.365-18.072 40.365-40.365s-18.072-40.364-40.365-40.364-40.365 18.071-40.365 40.364 18.072 40.365 40.365 40.365" transform="matrix(1.3333333 0 0 -1.3333333 322.78707 114.24867)"/><path clip-path="url(#A)" d="m0 0c2.399.03 3.298 1.529 3.298 3.329 0 2.398-3.298 13.823-3.298 13.823s-3.298-11.425-3.298-13.823c0-1.8.899-3.329 3.298-3.329" transform="matrix(1.3333333 0 0 -1.3333333 322.85547 106.8692)"/><path clip-path="url(#B)" d="m0 0c-2.347-.498-2.937-2.144-2.585-3.908.467-2.353 5.931-12.914 5.931-12.914s1.007 11.847.538 14.201c-.35 1.765-1.531 3.089-3.884 2.621" transform="matrix(1.3333333 0 0 -1.3333333 334.7812 227.95573)"/><path clip-path="url(#C)" d="m0 0c-2.399-.029-3.298-1.529-3.298-3.328 0-2.399 3.298-13.823 3.298-13.823s3.298 11.424 3.298 13.823c0 1.799-.899 3.328-3.298 3.328" transform="matrix(1.3333333 0 0 -1.3333333 322.85547 229.13147)"/><path clip-path="url(#D)" d="m0 0c-2.358.438-3.533-.856-3.884-2.621-.468-2.354.538-14.201.538-14.201s5.464 10.561 5.932 12.914c.351 1.764-.233 3.439-2.586 3.908" transform="matrix(1.3333333 0 0 -1.3333333 310.92907 227.95573)"/><path clip-path="url(#E)" d="m0 0c-2.228.891-3.633-.15-4.321-1.812-.918-2.217-2.243-14.034-2.243-14.034s7.419 9.292 8.337 11.509c.689 1.662.443 3.419-1.773 4.337" transform="matrix(1.3333333 0 0 -1.3333333 299.4616 224.47787)"/><path clip-path="url(#F)" d="m0 0c1.978 1.357 1.893 3.104.894 4.6-1.333 1.994-10.423 9.661-10.423 9.661s3.605-11.332 4.938-13.326c.999-1.496 2.596-2.268 4.591-.935" transform="matrix(1.3333333 0 0 -1.3333333 288.89253 117.1712)"/><path clip-path="url(#G)" d="m0 0c2.205.945 2.462 2.675 1.773 4.337-.918 2.216-8.337 11.509-8.337 11.509s1.325-11.817 2.243-14.034c.688-1.662 2.105-2.73 4.321-1.812" transform="matrix(1.3333333 0 0 -1.3333333 299.4616 111.52213)"/><path clip-path="url(#H)" d="m0 0c2.347.498 2.937 2.143 2.586 3.908-.468 2.353-5.932 12.914-5.932 12.914s-1.006-11.848-.538-14.201c.351-1.765 1.531-3.089 3.884-2.621" transform="matrix(1.3333333 0 0 -1.3333333 310.92907 108.0436)"/><path clip-path="url(#I)" d="m0 0-.697-1.393-.774-1.78-.464-.85-.387-.775-.309-.619-.388-.387-.928.774-1.006.697-1.084.541-1.16.465-1.239.309-1.238.31-1.238.232-1.316.155-2.708.232-2.709.077-2.631.155-2.476.309-1.393.233-1.315.309-.697.233-.697.232-.619.31-.542.309-.851.541-.851.619-.929.697-.851.774-1.78 1.702-1.78 1.703-1.779 1.625-1.626 1.47-.773.542-.774.542-.697.31-.696.232-1.316.31-1.161.386-1.161.387-1.161.542-1.006.464-1.005.619-.929.619-.852.619-.928.697-.774.697-.774.773-.774.774-1.47 1.626-1.393 1.702-2.786 3.637-2.941 3.714-1.702 1.781-1.78 1.779-1.006.929-1.006.851-1.084.774-1.16.851-.233-.077-.232-.232-.232-.31-.155-.387-.232-.696-.077-.31-.542.233-.464.231-.542.233-.464.155h-1.006l-.542-.155-.542-.233.542-.696.696-.929.697-1.083.619-1.161.619-1.238.464-1.16.155-.619.155-.465.077-.542v-.464h-.851-3.327l.619-.929.696-.928.774-.929.851-.852.852-.85.851-.852.851-.696.774-.542-.851-.077-1.161-.077-1.161-.156-.851-.077.696-.619.852-.619.928-.696 1.006-.698 1.006-.618 1.006-.542.929-.309.851-.233.387-.077.31-.077.232-.078.155-.155.077-.077v-.309l-.077-.156-.155-.463-.078-.465-.077-.31v-.231l.077-.388.078-.31.155-.154.232-.155.309-.154.387-.078.387-.155.387-.154.387-.155.31-.233.077-.077v-.154l-.077-.078-.31-.232-.309-.232-.31-.31-.31-.387v-.309l-.077-.31.077-.386.078-.465 1.315-.464 1.394-.465.619-.154.619-.233.464-.232.387-.232-2.554-2.012.696-.619.852-.464 1.083-.542 1.084-.387 1.238-.387 1.16-.232 1.007-.233h.929l-.852-.619-1.084-.696-1.16-.619-.851-.619.774-.542 1.083-.541 1.238-.619 1.471-.698 3.404-1.469 3.715-1.471 3.869-1.393 3.792-1.238 1.703-.542 1.548-.387 1.392-.386 1.239-.233-2.476.233-2.322.309-2.322.387-2.166.464-2.167.619-2.09.619-2.012.696-1.934.775-3.792 1.548-3.561 1.547-1.702.697-1.702.696-1.626.619-1.625.619.387.233.465.154.618.232.697.155 1.47.465 1.316.463-2.321.388-3.173.619-1.548.464-1.316.387-.542.232-.464.233-.387.231-.232.233v.077l.078.078.231.077.233.154.619.233.851.232 1.858.542 1.547.541-3.792.697-2.941.464-1.083.233-.851.309-.31.155-.309.232-.232.154-.155.233.232.155.696.154 1.007.156 1.16.231 1.239.155 1.083.31.542.154.464.155.309.233.31.231-.619.233-.619.232-.774.154-.774.156-1.78.231-1.78.233-.928.232-.851.154-.852.31-.851.309-.774.388-.696.541-.619.542-.465.696.155.078.31.078h.386l.619-.078 1.394-.078 1.547-.077 1.703-.155h2.166l.62.078.464.154.31.156-1.858.773-2.476 1.084-1.393.696-1.471.697-1.47.773-1.47.775-1.393.851-1.316.928-1.238.929-1.083.928-.465.542-.464.465-.31.464-.309.542-.31.464-.155.542-.077.464-.077.542h.542l.619-.077.619-.233.619-.232 1.238-.774 1.393-.773.619-.388.697-.387.696-.309.619-.233.697-.154.619-.077h.696l.62.231-1.858 1.394-2.089 1.779-2.399 2.09-2.4 2.321-2.398 2.477-2.245 2.476-1.005 1.316-1.007 1.238-.851 1.238-.774 1.162-.155.309v.541l.078.233.077.232.233.154.232.233.231.154.31.078.31.077h.619l.387-.077.31-.078.309-.231.232-.233 1.393-1.392 1.625-1.625 1.703-1.781 1.857-1.78 1.857-1.625 1.858-1.548.928-.619.851-.541.929-.465.852-.309-.62.386-.696.698-.929.927-1.006 1.162-2.244 2.708-2.477 3.173-1.238 1.702-1.161 1.703-1.083 1.703-1.084 1.625-.928 1.548-.774 1.393-.542 1.315-.464 1.084-.077.386v.619l.077.233.155.232.155.232.154.155.233.154.541.155.465.155h1.083l.31-.077.232-.078.309-.155.233-.232.619-.541.619-.774 1.392-1.78 1.471-2.244 1.702-2.399 1.781-2.477.928-1.16.929-1.161 1.006-1.006 1.083-.929-1.316 2.554-1.47 2.94-.774 1.625-.696 1.626-.697 1.702-.619 1.703-.541 1.78-.542 1.702-.387 1.703-.31 1.702-.154 1.625-.078 1.548.078.774.077.696.077.697.155.696.155.233.078.232.231.232.155.155.542.232.542.155h.541l.465-.078.232-.077.155-.078.077-.154.078-.232.774-2.477.696-2.631.696-2.708.697-2.632.696-2.631.929-2.476.464-1.161.542-1.161.619-1.083.697-1.083-.465 2.243-.309 2.012-.31 1.858-.155 1.703-.154 1.47-.078 1.315.078 1.084.077.928.155.774.232.619.155.232.154.233.155.155.232.154.233.078h.696l.619-.232.619-.31.542-2.477.542-2.398.619-2.245.696-2.167.774-2.166.851-2.167.929-2.244 1.083-2.244.774-1.471.774-1.471.851-1.47.852-1.47.929-1.393.928-1.393 1.006-1.393 1.006-1.393 1.857-2.322 1.935-2.167 2.012-2.166 2.09-2.012 2.167-2.012 2.244-1.858 2.321-1.78 2.399-1.702 1.625-1.083 1.703-1.007 1.78-1.006 1.702-.928 2.709-1.316 2.631-1.238 2.786-1.083 2.786-1.006 2.631-.852 2.709-.696 2.786-.619 2.708-.542 2.864-.387 2.785-.309 2.864-.233 2.863-.154" transform="matrix(1.3333333 0 0 -1.3333333 320.98693 261.98053)"/><path clip-path="url(#J)" d="m0 0 1.315-.155.62-.232.154-.078v-.077h-.154l-.155-.077-1.238-.233h-1.006l-3.25.233-3.947.077-4.256.077-4.412-.077-2.089-.077-2.09-.155-1.857-.155-1.78-.155-1.47-.231-1.316-.31-.465-.155-.464-.155-.387-.155-.309-.232.155.774.309.774-.541-.155-.542-.155-.465-.231-.464-.233-.387-.232-.309-.31-.233-.387-.077-.386-.232.541-.155.465-.077.542-.077.463.077.387.077.465.078.387.232.386.154.31.31.387.309.309.31.31.852.542.928.542c.501-.305 1.065-.525 1.625-.696.486-.065 1.063.013 1.625.154.945-.832 2.208-.73 3.018.155.148.161.327.408.387.619.128.447.104 1.031 0 1.547l.929.078 1.083.155 1.161.309 1.238.31 1.238.232 1.161.31 1.084.154.928.078-.386-.309-.929-.698-1.084-.85-.774-.542 1.007-.233.851-.154-.619-.696-.619-.698-.62-.696-.464-.619.619-.232.619-.155.697-.154h1.393l.697.154.696.155.542.309.619-.309.619-.232.619-.155.619-.154 1.393-.156 1.47-.154z" transform="matrix(1.3333333 0 0 -1.3333333 330.38667 293.3476)"/><path clip-path="url(#K)" d="m0 0 .232-.078.232-.077.078-.233.077-.231-.077-.233-.078-.232-.232-.154h-.542l-.154.154-.155.232-.077.233.077.231.155.233.154.077z" transform="matrix(1.3333333 0 0 -1.3333333 298.7064 287.46747)"/><path clip-path="url(#L)" d="m0 0 .155-.077.077-.155-.077-.155-.155-.077-.155.077-.077.155.077.155z" transform="matrix(1.3333333 0 0 -1.3333333 298.58653 287.88027)"/><path clip-path="url(#M)" d="m0 0c-.392-.001-.71.317-.71.709s.318.71.71.709c.392.001.71-.317.71-.709s-.318-.71-.71-.709" transform="matrix(1.3333333 0 0 -1.3333333 298.66667 289.29947)"/><path clip-path="url(#N)" d="m0 0 1.78-.774.465.387.619.464.696.387.619.387 2.322.928 2.012.929 1.006.388.851.464.851.464.697.464 1.78 1.161 1.78 1.161 1.702 1.084 1.548 1.083 1.161.928.928.852 1.006.929 1.084 1.005.387.387.464.31.542.309.619.31 1.315.619 1.316.465 1.78.464 1.935.464 2.012.387 2.244.387 2.708.31 2.709.386 2.786.31 2.709.465.928.154.851.232.929.233.929.231.929 1.161 1.47 1.625 1.006 1.006 1.161.929 1.315 1.006 1.548 1.006 2.321 1.393 2.477 1.239 2.554 1.315 2.476 1.161 2.322 1.16 2.166 1.084 1.781.929 1.392.929.387 1.16.542 1.161.697 1.161.851 1.16.929 1.239 1.16 1.238 1.238 1.393 1.548 1.47 1.393 1.238 1.47 1.239.775.542.773.541.852.464.851.464.851.388.851.31.929.231.852.232.928.078.851.078.929-.078.851-.155-.077-.928-.232-.929-.31-.929-.387-1.006-.542-1.006-.696-1.006-.852-1.083-1.005-1.083.773.077.697.154.541.155.542.233.465.154.541.155.697.077.774.078.077-.542v-.541l-.077-.542-.155-.465-.232-.464-.309-.465-.31-.387-.387-.386-1.626-1.548-1.625-1.471.929-.077 1.006-.31 1.007-.309.773-.154-.929-.697-1.083-.697-1.084-.696-1.238-.697-1.238-.696-1.238-.774-1.238-.851-1.161-.929.542-.078.696-.308.31-.078.31-.155.231-.077.232.077-1.547-.851-1.935-.929-.929-.464-.773-.465-.387-.232-.232-.232-.156-.232-.154-.232.077-.31.156-.231.309-.233.232-.232-.078-.31-.154-.232-.309-.232-.31-.232-.697-.387-.929-.387-.928-.309-.851-.31-.619-.309-.465-.233 1.548-1.548-.542-.542-.541-.386-.465-.233-.541-.231-1.084-.155h-1.471l.155-.697.233-.696.154-.774.155-.774-1.316-1.006-1.625-1.161-1.779-1.161-2.013-1.16-1.16-.619-1.161-.542-1.238-.465-1.316-.464-1.393-.465-1.47-.308-1.548-.31-1.625-.232 2.863-.078h2.477l2.321.232 2.09.232 1.934.387 1.703.465 1.702.619 1.626.619 2.166 1.006 2.09 1.161 2.012 1.237 2.089 1.239-1.238.619-1.238.388-.619.231-.619.31-.697.309-.696.387.619.465.696.309.852.31.928.232 1.858.387 1.934.232 1.702.232 1.548.155.619.154.542.156.31.154.232.232-.078.078-.154.155-.232.077-.31.154-.852.156-1.083.154-1.083.078-1.084.154-.928.233-.619.232 2.089.464 2.089.465 1.858.387 1.548.386 1.315.387 1.161.465.542.231.387.233.387.232.309.31-.077.077-.155.155-.31.077-.387.077-1.005.078h-1.162l-1.238.078-1.16.077-1.006.154-.619.155.541.233.542.231 1.857.542 1.625.464 1.471.388 1.393.464 1.47.465 1.47.619.697.386.62.387.231.233.232.309.233.232.077.232-.077.232-.233.155-.232.078h-2.166l-1.007-.078h-1.392l-.387.078-.31.154-.309.155 3.094 2.012 2.865 1.858 2.553 1.625 2.245 1.547.928.774.851.774.697.774.619.774.464.851.387.851.232.929v1.006h-.542l-.541-.077-.619-.233-.619-.231-1.238-.775-1.316-.773-.697-.388-.619-.387-.696-.309-.697-.232-.619-.155-.619-.077h-.696l-.619.232 1.857 1.393 2.089 1.779 2.399 2.09 2.399 2.321 2.399 2.477 2.244 2.477 1.006 1.315 1.007 1.238.85 1.239.775 1.161.154.309.077.232-.077.309-.077.233-.077.232-.233.154-.232.233-.232.077-.31.155-.309.077h-.619l-.309-.077-.388-.077-.231-.232-.31-.233-1.393-1.392-1.625-1.625-1.703-1.781-1.857-1.78-1.857-1.625-1.858-1.548-.929-.619-.851-.541-.929-.465-.773-.386.542.463.696.698.929.928 1.006 1.161 2.244 2.709 2.476 3.172 1.239 1.703 1.161 1.702 1.16 1.626 1.006 1.702.928 1.548.775 1.393.619 1.315.387 1.084.077.386v.62l-.077.232-.156.232-.154.232-.154.155-.233.077-.464.233-.542.154h-1.083l-.31-.077-.232-.077-.31-.155-.232-.232-.619-.542-.619-.774-1.393-1.78-1.47-2.244-1.625-2.399-1.78-2.477-1.006-1.16-.929-1.161-1.006-1.006-1.084-.929 1.394 2.554 1.392 2.94.774 1.625.697 1.626.696 1.703.62 1.702.541 1.78.542 1.702.386 1.703.31 1.702.155 1.625.077 1.548-.077.774-.077.696-.078.697-.154.697-.078.232-.155.232-.232.232-.155.155-.542.232-.541.155h-.542l-.464-.077-.155-.078-.232-.077-.077-.155-.077-.232-.775-2.554-.696-2.554-.696-2.708-.697-2.632-.697-2.631-.929-2.476-.464-1.238-.542-1.084-.619-1.16-.696-1.006.465 2.244.309 2.012.31 1.857.154 1.703.155 1.47.078 1.316-.078 1.083-.078.928-.154.774-.232.62-.156.232-.154.232-.154.155-.233.077-.232.077-.232.078h-.232l-.232-.078-.619-.154-.62-.31-.542-2.476-.541-2.399-.619-2.244-.697-2.167-.773-2.167-.852-2.167-.929-2.244-1.083-2.244-.774-1.471-.774-1.47-.851-1.47-.851-1.471-.928-1.393-.929-1.393-1.006-1.393-1.006-1.392-1.858-2.323-1.934-2.167-2.013-2.166-2.089-2.012-2.167-2.012-2.244-1.857-2.322-1.781-2.399-1.702-1.625-1.083-1.702-1.084-1.703-1.006-1.703-1.006-2.708-1.238-2.709-1.238-2.785-1.006-2.786-1.006-2.322-.696-2.322-.697-2.398-.541-2.4-.542-2.399-.387-2.476-.31-2.399-.309-2.476-.156-.233-.077-.232-.077-.464-.232-.542-.387-.774-.696-1.006-.929-1.238-1.238-1.47-1.625-1.393-1.625-1.625-1.781-.852-.851-.851-.851-1.006-.774-1.006-.774-.774-.542-.774-.464-.851-.387-.851-.387-1.858-.773-1.857-.698-1.857-.696-1.625-.619-.697-.31-.697-.386-.619-.31-.464-.309-.464-.464-.387-.388-.232-.387-.155-.386-.077-.542zm62.221-7.274-.542-.233-.542-.077-.464-.077-.387.077-.387.077-.387.154-.309.156-.388.232-.619.464-.619.465-.309.231-.387.156-.31.077h-.386l-.697-1.471-.929-1.856-.309-.465-.31-.387-.31-.232-.309-.233-.387-.154h-.387l-.387.154-.464.233-.155.232-.155.232-.155.31-.154.387-.155.696-.077.465-.465-.388-.464-.541-.387-.619-.465-.697-.541-.697-.542-.542-.309-.308-.387-.233-.387-.155-.464-.154h-.233l-.387-.077-.387.077-.309.154-.929 1.084-1.006 1.083-.696-1.083-.774-.929-.387-.386-.387-.388-.387-.31-.387-.231-.31-.155-.386-.077h-.387l-.31.077-.31.155-.232.231-.309.388-.155.464-.155.465-.309.773-.078.387-.155.31-.154.155h-.155l-2.09-3.405-.309-.31-.542-.232-.619-.155-.619-.155h-.696l-.542.155-.155.077-.232.233-.078.154v.31l.31 3.405-.232-.077-.31-.155-.309-.155-.31-.309-.619-.697-.697-.774-.696-.852-.851-.696-.387-.309-.387-.31-.464-.231-.387-.079-.542-.077-.387.077-.154.079-.155.154-.078.232v.232l.078 1.007.155 1.005.077.542-.077.464-.078.464-.31.542-.464-.696-.774-1.006-.929-1.006-1.005-1.007-.542-.386-.542-.387-.464-.154-.387-.156-.155.077h-.232l-.155.156-.077.077-.155.232-.078.232v.309l-.077.388.077 2.94-1.934-1.315-2.321-1.471-.542-.232-.62-.31-.541-.154-.619-.155-.542-.155h-.542l-.541.078-.465.155.232.619.233.541.232.542.309.465.31.464.309.465.388.386.386.387.851.619 1.007.619 1.006.464 1.16.388 1.161.309 1.316.232 1.315.232 1.316.156 2.863.154 2.941.077h5.882l1.47.078 1.393.077 1.393.077 1.315.156 1.316.231 1.161.233 1.161.309 1.083.464 1.006.465.852.619.851.619.696.852-.774 1.547.619.078.619.154.619.31.542.386.232.156.233.232.155.31.154.231.078.31v.542l-.155.309 1.315.233 1.393.154 1.47.077h1.548l3.173-.154 3.251-.233 3.327-.386 3.25-.31 3.173-.31 2.941-.154v-1.084l-.078-.464-.154-.465-.155-.463-.155-.388-.232-.31-.309-.386-.542-.541-.697-.465-.697-.31-.773-.154-.852-.155-.851.077-.774.078-.851.231-.774.388-.773.387-.62.541-.619.619v-1.316l-.232-1.702-.155-.851-.232-.774-.155-.309-.232-.233-.155-.232-.232-.154" transform="matrix(1.3333333 0 0 -1.3333333 292.586 288.7044)"/><path clip-path="url(#O)" d="m0 0c-.16 0-.29.13-.29.29 0 .159.13.289.29.289s.29-.13.29-.289c0-.16-.13-.29-.29-.29" stroke="#00afca" stroke-width=".381" transform="matrix(1.3333333 0 0 -1.3333333 298.58653 288.58853)"/><path clip-path="url(#P)" d="m0 0s-2.883-2.423-3.862-1.208c-1.575 1.955 4.841 11.69 4.841 15.119 0 5.628-3.754 7.158-8.391 7.962-3.111.539-8.178-.226-8.178-.226.954-1.282 1.574-1.66 3.182-1.762-1.79-.929-3.612-2.946-3.612-6.085 0-4.841 1.993-6.837 1.993-12.295 0-3.027-2.483-6.882-2.483-6.882 4.389.439 6.564 4.503 5.326 7.75.699.101 1.333-.057 1.878-.573.321.9-.186 1.945-.865 2.846.547.291.949.116 1.82-.064-.083.928-.639 1.913-1.998 2.841 3.945-1.025 6.373 1.725 6.373 4.603 0 2.175-1.524 3.734-3.013 3.734-.482 0-1.189-.198-1.588-.496-.281.598-.136 1.399.154 1.998-1.092-.289-1.785-.938-1.291-2.287-.839-.078-1.506-.361-1.96-.9.46-.589 1.157-.928 1.96-.9-.611-1.26.069-1.965 1.061-2.537 0 0-.631 2.537.979 2.537.724 0 1.384-.237 1.384-1.303 0-.93-.812-2.216-2.689-2.135-1.878.082-3.4 1.295-3.4 4.292 0 2.765 2.23 4.14 5.168 4.229 2.65.082 4.65-1.354 4.65-4.087 0-3.639-5.252-11.933-5.252-15.175 0-2.433 2.188-3.79 4.328-3.79 2.776 0 5.117 2.748 5.117 2.748l-1.63 2.045z" transform="matrix(1.3333333 0 0 -1.3333333 48 370.83067)"/><path clip-path="url(#Q)" d="m0 0c0 6.081 5.459 9.206 9.749 9.206 5.78 0 8.857-3.455 8.857-7.978 0-2.565-.47-4.174-1.652-6.628 0 0-9.534-19.828-13.246-27.496-.463-.957-.612-2.045-.612-3.642 0-2.465 2.391-4.48 4.898-4.541 2.285-.058 4.776 2.13 4.776 4.623 0 3.028-1.571 4.378-3.184 4.378-1.985 0-2.776-.816-2.776-2.209 0-.972.469-1.392 1.143-1.392 1.702 0 1.225 2.291 1.225 2.291.845-.184 1.54-1.049 1.142-2.127.619-.137 1.199-.463 1.654-.982-.457-.442-.98-.784-1.654-.9.399-1.316-.133-1.959-1.285-2.23.232.506.24.972.163 1.411-1.813-.515-4.592.306-4.592 3.438 0 3.109 2.158 5.727 6.205 5.073-.963.46-1.453 1.402-1.551 2.455.734-.286 1.551-.327 1.551-.327-.474.834-1.131 1.553-1.103 3.191.751-.341 1.447-.972 2.409-.573-1.509 2.97.344 7.054 5.061 8.02-1.726-2.024-2.572-4.208-2.572-6.383 0-7.049 1.96-8.234 1.96-13.134 0-2.051-1.054-4.265-3.143-5.77v.082c1.381-.37 2.265-1.049 2.773-1.973-3.154-.895-7.739-.878-10.202.091-2.83.328-4.805 2.499-5.388 3.601-.582 1.101-1.712 5.086 0 8.673 1.875 3.927 10.714 22.668 13.47 28.56.584 1.25.939 2.575.939 4.009 0 3.61-3.307 4.87-5.184 4.87-2.245 0-4.531-1.71-4.531-3.846 0-1.354.735-2.169 1.796-2.169 2.538 0 2.383 2.159 1.878 3.518 1.579-.71 2.497-1.977 2.245-3.313.894-.123 1.745-.547 2.53-1.433-.618-.78-1.372-1.37-2.53-1.39.506-2.075-.883-2.951-2.245-3.438.431 1.523.714 3.274-1.878 3.274-1.889 0-3.377.327-4.245 1.554-.051-1.636-.204-8.101-.204-8.101-.109-2.429 3.252-2.36 5.388-1.637-.806-2.798-2.459-4.31-6.286-3.928.929-.388 1.918-1.262 1.918-2.945 0-2.278-1.848-4.802-3.061-5.548l-.607 23.715z" transform="matrix(1.3333333 0 0 -1.3333333 47.191467 283.14587)"/><path clip-path="url(#R)" d="m0 0c0 6.081-5.459 9.206-9.749 9.206-5.78 0-8.857-3.455-8.857-7.978 0-2.565.47-4.174 1.652-6.628 0 0 9.534-19.828 13.246-27.496.463-.957.612-2.045.612-3.642 0-2.465-2.391-4.48-4.898-4.541-2.285-.058-4.776 2.13-4.776 4.623 0 3.028 1.571 4.378 3.184 4.378 1.985 0 2.776-.816 2.776-2.209 0-.972-.469-1.392-1.143-1.392-1.702 0-1.225 2.291-1.225 2.291-.845-.184-1.54-1.049-1.142-2.127-.619-.137-1.199-.463-1.654-.982.457-.442.98-.784 1.654-.9-.399-1.316.133-1.959 1.285-2.23-.232.506-.24.972-.163 1.411 1.813-.515 4.592.306 4.592 3.438 0 3.109-2.158 5.727-6.205 5.073.963.46 1.453 1.402 1.551 2.455-.734-.286-1.551-.327-1.551-.327.474.834 1.131 1.553 1.103 3.191-.75-.341-1.447-.972-2.409-.573 1.509 2.97-.344 7.054-5.061 8.02 1.726-2.024 2.572-4.208 2.572-6.383 0-7.049-1.96-8.234-1.96-13.134 0-2.051 1.054-4.265 3.143-5.77v.082c-1.381-.37-2.265-1.049-2.773-1.973 3.154-.895 7.739-.878 10.202.091 2.83.328 4.805 2.499 5.388 3.601.582 1.101 1.712 5.086 0 8.673-1.875 3.927-10.714 22.668-13.47 28.56-.584 1.25-.939 2.575-.939 4.009 0 3.61 3.307 4.87 5.184 4.87 2.245 0 4.531-1.71 4.531-3.846 0-1.354-.735-2.169-1.796-2.169-2.538 0-2.383 2.159-1.878 3.518-1.579-.71-2.497-1.977-2.245-3.313-.894-.123-1.745-.547-2.53-1.433.618-.78 1.372-1.37 2.53-1.39-.506-2.075.883-2.951 2.245-3.438-.431 1.523-.714 3.274 1.878 3.274 1.889 0 3.377.327 4.245 1.554.051-1.636.204-8.101.204-8.101.109-2.429-3.252-2.36-5.388-1.637.806-2.798 2.459-4.31 6.286-3.928-.929-.388-1.918-1.262-1.918-2.945 0-2.278 1.848-4.802 3.061-5.548l.607 23.715z" transform="matrix(1.3333333 0 0 -1.3333333 48.808533 283.14587)"/><path clip-path="url(#S)" d="m0 0s2.883-2.423 3.862-1.208c1.575 1.955-4.841 11.69-4.841 15.119 0 5.628 3.754 7.158 8.391 7.962 3.111.539 8.178-.226 8.178-.226-.954-1.282-1.574-1.66-3.182-1.762 1.79-.929 3.612-2.946 3.612-6.085 0-4.841-1.993-6.837-1.993-12.295 0-3.027 2.483-6.882 2.483-6.882-4.389.439-6.564 4.503-5.326 7.75-.699.101-1.333-.057-1.878-.573-.321.9.186 1.945.865 2.846-.547.291-.949.116-1.82-.064.083.928.639 1.913 1.998 2.841-3.945-1.025-6.373 1.725-6.373 4.603 0 2.175 1.524 3.734 3.013 3.734.482 0 1.189-.198 1.588-.496.281.598.136 1.399-.154 1.998 1.092-.289 1.785-.938 1.291-2.287.839-.078 1.506-.361 1.96-.9-.46-.589-1.157-.928-1.96-.9.611-1.26-.069-1.965-1.061-2.537 0 0 .631 2.537-.979 2.537-.724 0-1.384-.237-1.384-1.303 0-.93.812-2.216 2.689-2.135 1.878.082 3.4 1.295 3.4 4.292 0 2.765-2.23 4.14-5.168 4.229-2.65.082-4.65-1.354-4.65-4.087 0-3.639 5.252-11.933 5.252-15.175 0-2.433-2.188-3.79-4.328-3.79-2.776 0-5.117 2.748-5.117 2.748l1.63 2.045z" transform="matrix(1.3333333 0 0 -1.3333333 48 370.83067)"/><path clip-path="url(#T)" d="m0 0c0 6.081 5.459 9.207 9.749 9.207 5.78 0 8.857-3.457 8.857-7.98 0-2.564-.47-4.173-1.652-6.627 0 0-9.534-19.828-13.246-27.496-.463-.957-.612-2.045-.612-3.642 0-2.465 2.391-4.48 4.898-4.542 2.285-.057 4.776 2.131 4.776 4.624 0 3.028-1.571 4.378-3.184 4.378-1.985 0-2.776-.816-2.776-2.21 0-.97.469-1.391 1.143-1.391 1.702 0 1.225 2.292 1.225 2.292.845-.185 1.54-1.05 1.142-2.128.619-.138 1.199-.463 1.654-.982-.457-.442-.98-.784-1.654-.9.399-1.316-.133-1.959-1.285-2.23.232.506.24.972.163 1.412-1.813-.516-4.592.304-4.592 3.437 0 3.109 2.158 5.727 6.205 5.073-.963.46-1.453 1.402-1.551 2.455.734-.287 1.551-.327 1.551-.327-.474.834-1.131 1.553-1.103 3.191.751-.341 1.447-.972 2.409-.573-1.509 2.969.344 7.053 5.061 8.02-1.726-2.023-2.572-4.208-2.572-6.383 0-7.049 1.96-8.234 1.96-13.135 0-2.05-1.054-4.264-3.143-5.769v.082c1.381-.37 2.265-1.049 2.773-1.973-3.154-.895-7.739-.878-10.202.091-2.83.327-4.805 2.499-5.388 3.601-.582 1.101-1.712 5.086 0 8.674 1.875 3.926 10.714 22.667 13.47 28.559.584 1.25.939 2.575.939 4.009 0 3.61-3.307 4.87-5.184 4.87-2.245-0-4.531-1.71-4.531-3.847 0-1.353.735-2.168 1.796-2.168 2.538 0 2.383 2.159 1.878 3.519 1.579-.71 2.497-1.978 2.245-3.315.894-.122 1.745-.546 2.53-1.432-.618-.78-1.372-1.37-2.53-1.391.506-2.073-.883-2.95-2.245-3.436.431 1.521.714 3.273-1.878 3.273-1.889 0-3.377.327-4.245 1.554-.051-1.636-.204-8.101-.204-8.101-.109-2.429 3.252-2.36 5.388-1.636-.806-2.799-2.459-4.312-6.286-3.929.929-.388 1.918-1.262 1.918-2.945 0-2.278-1.848-4.802-3.061-5.548l-.607 23.715z" transform="matrix(1.3333333 0 0 -1.3333333 47.191467 141.17773)"/><path clip-path="url(#U)" d="m0 0c0 6.081-5.459 9.207-9.749 9.207-5.78 0-8.857-3.457-8.857-7.98 0-2.564.47-4.173 1.652-6.627 0 0 9.534-19.828 13.246-27.496.463-.957.612-2.045.612-3.642 0-2.465-2.391-4.48-4.898-4.542-2.285-.057-4.776 2.131-4.776 4.624 0 3.028 1.571 4.378 3.184 4.378 1.985 0 2.776-.816 2.776-2.21 0-.97-.469-1.391-1.143-1.391-1.702 0-1.225 2.292-1.225 2.292-.845-.185-1.54-1.05-1.142-2.128-.619-.138-1.199-.463-1.654-.982.457-.442.98-.784 1.654-.9-.399-1.316.133-1.959 1.285-2.23-.232.506-.24.972-.163 1.412 1.813-.516 4.592.304 4.592 3.437 0 3.109-2.158 5.727-6.205 5.073.963.46 1.453 1.402 1.551 2.455-.734-.287-1.551-.327-1.551-.327.474.834 1.131 1.553 1.103 3.191-.75-.341-1.447-.972-2.409-.573 1.509 2.969-.344 7.053-5.061 8.02 1.726-2.023 2.572-4.208 2.572-6.383 0-7.049-1.96-8.234-1.96-13.135 0-2.05 1.054-4.264 3.143-5.769v.082c-1.381-.37-2.265-1.049-2.773-1.973 3.154-.895 7.739-.878 10.202.091 2.83.327 4.805 2.499 5.388 3.601.582 1.101 1.712 5.086 0 8.674-1.875 3.926-10.714 22.667-13.47 28.559-.584 1.25-.939 2.575-.939 4.009 0 3.61 3.307 4.87 5.184 4.87 2.245 0 4.531-1.71 4.531-3.847 0-1.353-.735-2.168-1.796-2.168-2.538 0-2.383 2.159-1.878 3.519-1.579-.71-2.497-1.978-2.245-3.315-.894-.122-1.745-.546-2.53-1.432.618-.78 1.372-1.37 2.53-1.391-.506-2.073.883-2.95 2.245-3.436-.431 1.521-.714 3.273 1.878 3.273 1.889 0 3.377.327 4.245 1.554.051-1.636.204-8.101.204-8.101.109-2.429-3.252-2.36-5.388-1.636.806-2.799 2.459-4.312 6.286-3.929-.929-.388-1.918-1.262-1.918-2.945 0-2.278 1.848-4.802 3.061-5.548l.607 23.715z" transform="matrix(1.3333333 0 0 -1.3333333 48.808533 141.17773)"/><path clip-path="url(#V)" d="m0 0c0-6.081-5.459-9.207-9.749-9.207-5.78 0-8.857 3.456-8.857 7.98 0 2.564.47 4.173 1.652 6.627 0 0 9.534 19.828 13.246 27.496.463.957.612 2.045.612 3.642 0 2.465-2.391 4.48-4.898 4.542-2.285.057-4.776-2.131-4.776-4.624 0-3.028 1.571-4.378 3.184-4.378 1.985 0 2.776.816 2.776 2.21 0 .97-.469 1.391-1.143 1.391-1.702 0-1.225-2.292-1.225-2.292-.845.185-1.54 1.049-1.142 2.128-.619.138-1.199.463-1.654.982.457.442.98.784 1.654.9-.399 1.316.133 1.959 1.285 2.23-.232-.506-.24-.972-.163-1.412 1.813.516 4.592-.304 4.592-3.437 0-3.109-2.158-5.727-6.205-5.073.963-.46 1.453-1.402 1.551-2.455-.734.286-1.551.327-1.551.327.474-.834 1.131-1.553 1.103-3.191-.75.341-1.447.972-2.409.572 1.509-2.968-.344-7.053-5.061-8.019 1.726 2.023 2.572 4.208 2.572 6.383 0 7.049-1.96 8.234-1.96 13.135 0 2.05 1.054 4.264 3.143 5.769v-.082c-1.381.369-2.265 1.049-2.773 1.973 3.154.894 7.739.878 10.202-.091 2.83-.327 4.805-2.499 5.388-3.601.582-1.101 1.712-5.086 0-8.674-1.875-3.926-10.714-22.667-13.47-28.559-.584-1.25-.939-2.575-.939-4.01 0-3.609 3.307-4.869 5.184-4.869 2.245 0 4.531 1.71 4.531 3.846 0 1.354-.735 2.169-1.796 2.169-2.538 0-2.383-2.159-1.878-3.519-1.579.71-2.497 1.978-2.245 3.315-.894.122-1.745.546-2.53 1.432.618.78 1.372 1.37 2.53 1.391-.506 2.073.883 2.95 2.245 3.436-.431-1.521-.714-3.273 1.878-3.273 1.889 0 3.377-.327 4.245-1.555.051 1.637.204 8.102.204 8.102.109 2.429-3.252 2.36-5.388 1.636.806 2.799 2.459 4.311 6.286 3.929-.929.388-1.918 1.262-1.918 2.945 0 2.278 1.848 4.802 3.061 5.548l.607-23.715z" transform="matrix(1.3333333 0 0 -1.3333333 48.808533 116.85413)"/><path clip-path="url(#W)" d="m0 0c0-6.08-5.459-9.206-9.749-9.206-5.78 0-8.857 3.456-8.857 7.979 0 2.565.47 4.173 1.652 6.628 0 0 9.534 19.828 13.246 27.495.463.958.612 2.046.612 3.642 0 2.465-2.391 4.481-4.898 4.542-2.285.057-4.776-2.131-4.776-4.624 0-3.027 1.571-4.378 3.184-4.378 1.985 0 2.776.817 2.776 2.21 0 .971-.469 1.391-1.143 1.391-1.702 0-1.225-2.291-1.225-2.291-.845.185-1.54 1.049-1.142 2.128-.619.137-1.199.462-1.654.981.457.442.98.784 1.654.9-.399 1.317.133 1.959 1.285 2.231-.232-.507-.24-.973-.163-1.412 1.813.515 4.592-.305 4.592-3.437 0-3.11-2.158-5.728-6.205-5.074.963-.46 1.453-1.401 1.551-2.455-.734.287-1.551.328-1.551.328.474-.835 1.131-1.554 1.103-3.191-.75.341-1.447.972-2.409.572 1.509-2.969-.344-7.053-5.061-8.02 1.726 2.024 2.572 4.208 2.572 6.384 0 7.049-1.96 8.234-1.96 13.134 0 2.05 1.054 4.265 3.143 5.77v-.082c-1.381.369-2.265 1.049-2.773 1.973 3.154.894 7.739.878 10.202-.091 2.83-.328 4.805-2.5 5.388-3.601.582-1.102 1.712-5.086 0-8.674-1.875-3.927-10.714-22.668-13.47-28.56-.584-1.249-.939-2.574-.939-4.009 0-3.609 3.307-4.87 5.184-4.87 2.245 0 4.531 1.711 4.531 3.847 0 1.354-.735 2.168-1.796 2.168-2.538 0-2.383-2.158-1.878-3.518-1.579.71-2.497 1.977-2.245 3.314-.894.122-1.745.547-2.53 1.432.618.78 1.372 1.37 2.53 1.391-.506 2.074.883 2.95 2.245 3.437-.431-1.522-.714-3.274 1.878-3.274 1.889 0 3.377-.327 4.245-1.554.051 1.636.204 8.101.204 8.101.109 2.43-3.252 2.361-5.388 1.637.806 2.799 2.459 4.311 6.286 3.928-.929.388-1.918 1.262-1.918 2.946 0 2.278 1.848 4.802 3.061 5.548l.607-23.716z" transform="matrix(1.3333333 0 0 -1.3333333 48.808533 258.82293)"/><path clip-path="url(#X)" d="m0 0c0-6.08 5.459-9.206 9.749-9.206 5.78 0 8.857 3.456 8.857 7.979 0 2.565-.47 4.173-1.652 6.628 0 0-9.534 19.828-13.246 27.495-.463.958-.612 2.046-.612 3.642 0 2.465 2.391 4.481 4.898 4.542 2.285.057 4.776-2.131 4.776-4.624 0-3.027-1.571-4.378-3.184-4.378-1.985 0-2.776.817-2.776 2.21 0 .971.469 1.391 1.143 1.391 1.702 0 1.225-2.291 1.225-2.291.845.185 1.54 1.049 1.142 2.128.619.137 1.199.462 1.654.981-.457.442-.98.784-1.654.9.399 1.317-.133 1.959-1.285 2.231.232-.507.24-.973.163-1.412-1.813.515-4.592-.305-4.592-3.437 0-3.11 2.158-5.728 6.205-5.074-.963-.46-1.453-1.401-1.551-2.455.734.287 1.551.328 1.551.328-.474-.835-1.131-1.554-1.103-3.191.751.341 1.447.972 2.409.572-1.509-2.969.344-7.053 5.061-8.02-1.726 2.024-2.572 4.208-2.572 6.384 0 7.049 1.96 8.234 1.96 13.134 0 2.05-1.054 4.265-3.143 5.77v-.082c1.381.369 2.265 1.049 2.773 1.973-3.154.894-7.739.878-10.202-.091-2.83-.328-4.805-2.5-5.388-3.601-.582-1.102-1.712-5.086 0-8.674 1.875-3.927 10.714-22.668 13.47-28.56.584-1.249.939-2.574.939-4.009 0-3.609-3.307-4.87-5.184-4.87-2.245 0-4.531 1.711-4.531 3.847 0 1.354.735 2.168 1.796 2.168 2.538 0 2.383-2.158 1.878-3.518 1.579.71 2.497 1.977 2.245 3.314.894.122 1.745.547 2.53 1.432-.618.78-1.372 1.37-2.53 1.391.506 2.074-.883 2.95-2.245 3.437.431-1.522.714-3.274-1.878-3.274-1.889 0-3.377-.327-4.245-1.554-.051 1.636-.204 8.101-.204 8.101-.109 2.43 3.252 2.361 5.388 1.637-.806 2.799-2.459 4.311-6.286 3.928.929.388 1.918 1.262 1.918 2.946 0 2.278-1.848 4.802-3.061 5.548l-.607-23.716z" transform="matrix(1.3333333 0 0 -1.3333333 47.191467 258.82293)"/><path clip-path="url(#Y)" d="m0 0s2.883 2.423 3.862 1.208c1.575-1.955-4.841-11.69-4.841-15.119 0-5.628 3.754-7.158 8.391-7.962 3.111-.539 8.178.226 8.178.226-.954 1.282-1.574 1.659-3.182 1.762 1.79.929 3.612 2.946 3.612 6.085 0 4.842-1.993 6.837-1.993 12.295 0 3.027 2.483 6.882 2.483 6.882-4.389-.439-6.564-4.502-5.326-7.75-.699-.101-1.333.057-1.878.573-.321-.9.186-1.945.865-2.845-.547-.292-.949-.117-1.82.062.083-.927.639-1.912 1.998-2.839-3.945 1.024-6.373-1.726-6.373-4.604 0-2.175 1.524-3.733 3.013-3.733.482 0 1.189.198 1.588.495.281-.598.136-1.399-.154-1.997 1.092.288 1.785.937 1.291 2.286.839.077 1.506.36 1.96.9-.46.589-1.157.928-1.96.9.611 1.26-.069 1.966-1.061 2.537 0 0 .631-2.537-.979-2.537-.724 0-1.384.236-1.384 1.303 0 .929.812 2.216 2.689 2.134 1.878-.081 3.4-1.294 3.4-4.291 0-2.765-2.23-4.14-5.168-4.229-2.65-.082-4.65 1.354-4.65 4.087 0 3.639 5.252 11.932 5.252 15.174 0 2.433-2.188 3.791-4.328 3.791-2.776 0-5.117-2.748-5.117-2.748l1.63-2.045z" transform="matrix(1.3333333 0 0 -1.3333333 48 29.169333)"/><path clip-path="url(#Z)" d="m0 0s-2.883 2.423-3.862 1.208c-1.575-1.955 4.841-11.69 4.841-15.119 0-5.628-3.754-7.158-8.391-7.962-3.111-.539-8.178.226-8.178.226.954 1.282 1.574 1.659 3.182 1.762-1.79.929-3.612 2.946-3.612 6.085 0 4.842 1.993 6.837 1.993 12.295 0 3.027-2.483 6.882-2.483 6.882 4.389-.439 6.564-4.502 5.326-7.75.699-.101 1.333.057 1.878.573.321-.9-.186-1.945-.865-2.845.547-.292.949-.117 1.82.062-.083-.927-.639-1.912-1.998-2.839 3.945 1.024 6.373-1.726 6.373-4.604 0-2.175-1.524-3.733-3.013-3.733-.482 0-1.189.198-1.588.495-.281-.598-.136-1.399.154-1.997-1.092.288-1.785.937-1.291 2.286-.839.077-1.506.36-1.96.9.46.589 1.157.928 1.96.9-.611 1.26.069 1.966 1.061 2.537 0 0-.631-2.537.979-2.537.724 0 1.384.236 1.384 1.303 0 .929-.812 2.216-2.689 2.134-1.878-.081-3.4-1.294-3.4-4.291 0-2.765 2.23-4.14 5.168-4.229 2.65-.082 4.65 1.354 4.65 4.087 0 3.639-5.252 11.932-5.252 15.174 0 2.433 2.188 3.791 4.328 3.791 2.776 0 5.117-2.748 5.117-2.748l-1.63-2.045z" transform="matrix(1.3333333 0 0 -1.3333333 48 29.169333)"/></g></svg>