<svg height="400" viewBox="0 0 600 400" width="600" xmlns="http://www.w3.org/2000/svg"><path d="m0 0h450v300h-450z" fill="#002b7f" transform="matrix(1.3333333 0 0 -1.3333333 0 400)"/><path d="m0 137.5h450v25h-450z" fill="#ffc61e" transform="matrix(1.3333333 0 0 -1.3333333 0 400)"/><path d="m0 0-6.471 25.852-18.529-19.153 7.322 25.623-25.623-7.322 19.153 18.529-25.852 6.471 25.852 6.471-19.153 18.529 25.623-7.322-7.322 25.623 18.529-19.153 6.471 25.852 6.471-25.852 18.529 19.153-7.322-25.623 25.623 7.322-19.153-18.529 25.852-6.471-25.852-6.471 19.153-18.529-25.623 7.322 7.322-25.623-18.529 19.153z" fill="#fff" transform="matrix(1.3333333 0 0 -1.3333333 160.66667 350)"/></svg>