<svg height="888.88934" viewBox="0 0 1333.3333 888.88934" width="1333.3333" xmlns="http://www.w3.org/2000/svg" xmlns:xlink="http://www.w3.org/1999/xlink"><clipPath id="a"><path d="m0 666.667h1000v-666.667h-1000z" transform="translate(-739.54002 -233.43721)"/></clipPath><clipPath id="b"><path d="m0 666.667h1000v-666.667h-1000z" transform="translate(-787.27929 -229.48111)"/></clipPath><linearGradient id="c"><stop offset="0" stop-color="#474747"/><stop offset="1" stop-color="#f50"/></linearGradient><linearGradient id="d" gradientTransform="matrix(1.9136393 23.247658 -53.855888 .8260495 751.83478 432.48282)" gradientUnits="userSpaceOnUse" spreadMethod="pad" x1="0" x2="1" xlink:href="#c" y1="0" y2="0"/><clipPath id="e"><path d="m0 666.667h1000v-666.667h-1000z" transform="translate(-719.22362 -425.35071)"/></clipPath><clipPath id="f"><path d="m0 666.667h1000v-666.667h-1000z" transform="translate(-787.29302 -354.08851)"/></clipPath><clipPath id="g"><path d="m0 666.667h1000v-666.667h-1000z" transform="translate(-818.60942 -386.44991)"/></clipPath><clipPath id="h"><path d="m815.089 393.586h60.621v-154.829h-60.621z" transform="translate(-818.60942 -386.44991)"/></clipPath><clipPath id="i"><path d="m0 666.667h1000v-666.667h-1000z" transform="matrix(1.3333333 0 0 -1.3333333 0 888.88933)"/></clipPath><clipPath id="j"><path d="m0 666.667h1000v-666.667h-1000z" transform="translate(-808.50295 -142.2175)"/></clipPath><clipPath id="k"><path d="m0 666.667h1000v-666.667h-1000z" transform="translate(-704.64552 -139.84831)"/></clipPath><clipPath id="l"><path d="m0 666.667h1000v-666.667h-1000z" transform="translate(-704.64552 -139.84831)"/></clipPath><clipPath id="m"><path d="m0 666.667h1000v-666.667h-1000z" transform="translate(-732.99802 -255.7028)"/></clipPath><clipPath id="n"><path d="m0 666.667h1000v-666.667h-1000z" transform="translate(-765.54984 -228.8132)"/></clipPath><clipPath id="o"><path d="m0 666.667h1000v-666.667h-1000z" transform="translate(-767.26374 -231.1217)"/></clipPath><clipPath id="p"><path d="m0 666.667h1000v-666.667h-1000z" transform="translate(-770.54004 -232.46261)"/></clipPath><clipPath id="q"><path d="m0 666.667h1000v-666.667h-1000z" transform="translate(-775.53122 -231.2702)"/></clipPath><clipPath id="r"><path d="m0 666.667h1000v-666.667h-1000z" transform="translate(-778.51074 -229.55731)"/></clipPath><clipPath id="s"><path d="m0 666.667h1000v-666.667h-1000z" transform="translate(-741.78812 -245.57291)"/></clipPath><clipPath id="t"><path d="m0 666.667h1000v-666.667h-1000z" transform="translate(-741.56452 -242.89031)"/></clipPath><clipPath id="u"><path d="m0 666.667h1000v-666.667h-1000z" transform="translate(-745.88482 -245.49871)"/></clipPath><clipPath id="v"><path d="m0 666.667h1000v-666.667h-1000z" transform="translate(-749.83202 -243.41281)"/></clipPath><clipPath id="w"><path d="m0 666.667h1000v-666.667h-1000z" transform="translate(-751.69434 -242.444)"/></clipPath><clipPath id="x"><path d="m0 666.667h1000v-666.667h-1000z" transform="translate(-750.27932 -235.81511)"/></clipPath><clipPath id="y"><path d="m0 666.667h1000v-666.667h-1000z" transform="translate(-752.21679 -238.04951)"/></clipPath><clipPath id="z"><path d="m0 666.667h1000v-666.667h-1000z" transform="translate(-756.75984 -239.31511)"/></clipPath><clipPath id="A"><path d="m0 666.667h1000v-666.667h-1000z" transform="translate(-761.15432 -238.943)"/></clipPath><clipPath id="B"><path d="m0 666.667h1000v-666.667h-1000z" transform="translate(-763.98542 -237.45281)"/></clipPath><clipPath id="C"><path d="m0 666.667h1000v-666.667h-1000z" transform="translate(-759.66504 -243.41281)"/></clipPath><clipPath id="D"><path d="m0 666.667h1000v-666.667h-1000z" transform="translate(-761.67684 -245.34931)"/></clipPath><clipPath id="E"><path d="m0 666.667h1000v-666.667h-1000z" transform="translate(-764.87889 -246.6149)"/></clipPath><clipPath id="F"><path d="m0 666.667h1000v-666.667h-1000z" transform="translate(-769.05084 -245.945)"/></clipPath><clipPath id="G"><path d="m0 666.667h1000v-666.667h-1000z" transform="translate(-771.58299 -243.5612)"/></clipPath><clipPath id="H"><path d="m0 666.667h1000v-666.667h-1000z" transform="translate(-758.02644 -229.92941)"/></clipPath><clipPath id="I"><path d="m0 666.667h1000v-666.667h-1000z" transform="translate(-754.59962 -231.49381)"/></clipPath><clipPath id="J"><path d="m0 666.667h1000v-666.667h-1000z" transform="translate(-750.95019 -231.64321)"/></clipPath><clipPath id="K"><path d="m0 666.667h1000v-666.667h-1000z" transform="translate(-747.96972 -231.19601)"/></clipPath><clipPath id="L"><path d="m0 666.667h1000v-666.667h-1000z" transform="translate(-746.40532 -228.58951)"/></clipPath><clipPath id="M"><path d="m0 666.667h1000v-666.667h-1000z" transform="translate(-709.35742 -350.87661)"/></clipPath><clipPath id="N"><path d="m0 666.667h1000v-666.667h-1000z" transform="translate(-718.13482 -351.10711)"/></clipPath><clipPath id="O"><path d="m0 666.667h1000v-666.667h-1000z" transform="translate(-742.56352 -299.3258)"/></clipPath><clipPath id="P"><path d="m0 666.667h1000v-666.667h-1000z" transform="translate(-732.94822 -505.51922)"/></clipPath><clipPath id="Q"><path d="m0 666.667h1000v-666.667h-1000z" transform="translate(-717.13282 -505.51922)"/></clipPath><clipPath id="R"><path d="m0 666.667h1000v-666.667h-1000z" transform="translate(-780.45512 -336.83851)"/></clipPath><clipPath id="S"><path d="m0 666.667h1000v-666.667h-1000z" transform="translate(-725.26952 -335.89811)"/></clipPath><clipPath id="T"><path d="m0 666.667h1000v-666.667h-1000z" transform="translate(-778.52642 -330.68131)"/></clipPath><clipPath id="U"><path d="m0 666.667h1000v-666.667h-1000z" transform="translate(-737.47562 -327.09241)"/></clipPath><clipPath id="V"><path d="m0 666.667h1000v-666.667h-1000z" transform="translate(-747.31642 -320.87951)"/></clipPath><clipPath id="W"><path d="m0 666.667h1000v-666.667h-1000z" transform="translate(-750.81354 -315.08071)"/></clipPath><clipPath id="X"><path d="m0 666.667h1000v-666.667h-1000z" transform="translate(-755.99319 -316.59931)"/></clipPath><clipPath id="Y"><path d="m0 666.667h1000v-666.667h-1000z" transform="translate(-753.53222 -281.80831)"/></clipPath><clipPath id="Z"><path d="m0 666.667h1000v-666.667h-1000z" transform="translate(-755.47562 -290.64421)"/></clipPath><clipPath id="aa"><path d="m0 666.667h1000v-666.667h-1000z" transform="translate(-754.95699 -294.64811)"/></clipPath><clipPath id="ab"><path d="m0 666.667h1000v-666.667h-1000z" transform="translate(-756.51069 -302.93131)"/></clipPath><clipPath id="ac"><path d="m0 666.667h1000v-666.667h-1000z" transform="translate(-750.16599 -322.81221)"/></clipPath><clipPath id="ad"><path d="m0 666.667h1000v-666.667h-1000z" transform="translate(-757.93554 -327.64421)"/></clipPath><clipPath id="ae"><path d="m0 666.667h1000v-666.667h-1000z" transform="translate(-759.87789 -336.75651)"/></clipPath><clipPath id="af"><path d="m0 666.667h1000v-666.667h-1000z" transform="translate(-751.60554 -275.24771)"/></clipPath><clipPath id="ag"><path d="m0 666.667h1000v-666.667h-1000z" transform="translate(-749.20412 -278.80631)"/></clipPath><clipPath id="ah"><path d="m0 666.667h1000v-666.667h-1000z" transform="translate(-749.19432 -280.8698)"/></clipPath><clipPath id="ai"><path d="m0 666.667h1000v-666.667h-1000z" transform="translate(-742.65232 -297.15401)"/></clipPath><clipPath id="aj"><path d="m0 666.667h1000v-666.667h-1000z" transform="translate(-740.36132 -294.69301)"/></clipPath><clipPath id="ak"><path d="m0 666.667h1000v-666.667h-1000z" transform="translate(-740.16892 -290.70281)"/></clipPath><clipPath id="al"><path d="m0 666.667h1000v-666.667h-1000z" transform="translate(-738.49022 -312.92641)"/></clipPath><clipPath id="am"><path d="m0 666.667h1000v-666.667h-1000z" transform="translate(-735.57032 -304.55531)"/></clipPath><clipPath id="an"><path d="m0 666.667h1000v-666.667h-1000z" transform="translate(-739.59182 -305.89811)"/></clipPath><clipPath id="ao"><path d="m0 666.667h1000v-666.667h-1000z" transform="translate(-739.59182 -305.89811)"/></clipPath><clipPath id="ap"><path d="m0 666.667h1000v-666.667h-1000z" transform="translate(-737.19632 -323.90791)"/></clipPath><clipPath id="aq"><path d="m0 666.667h1000v-666.667h-1000z" transform="translate(-738.73542 -325.19401)"/></clipPath><clipPath id="ar"><path d="m0 666.667h1000v-666.667h-1000z" transform="translate(-739.54002 -321.35421)"/></clipPath><clipPath id="as"><path d="m0 666.667h1000v-666.667h-1000z" transform="translate(-737.12112 -326.94891)"/></clipPath><linearGradient id="at" gradientTransform="matrix(.1084775 -13.199777 20.337645 .0704054 746.56323 344.34686)" gradientUnits="userSpaceOnUse" spreadMethod="pad" x1="0" x2="1" y1="0" y2="0"><stop offset="0" stop-color="#b50000"/><stop offset="1" stop-color="#ffc500"/></linearGradient><clipPath id="au"><path d="m0 666.667h1000v-666.667h-1000z" transform="translate(-673.52441 -152.2135)"/></clipPath><clipPath id="av"><path d="m0 666.667h1000v-666.667h-1000z" transform="translate(-667.54982 -218.84731)"/></clipPath><clipPath id="aw"><path d="m0 666.667h1000v-666.667h-1000z" transform="translate(-839.7607 -154.5104)"/></clipPath><clipPath id="ax"><path d="m0 666.667h1000v-666.667h-1000z" transform="translate(-845.3125 -220.7546)"/></clipPath><clipPath id="ay"><path d="m0 666.667h1000v-666.667h-1000z" transform="translate(-660.68072 -164.8073)"/></clipPath><clipPath id="az"><path d="m0 666.667h1000v-666.667h-1000z" transform="translate(-786.64839 -353.17641)"/></clipPath><clipPath id="aA"><path d="m0 666.667h1000v-666.667h-1000z" transform="translate(-717.50682 -350.98701)"/></clipPath><clipPath id="aB"><path d="m0 666.667h1000v-666.667h-1000z" transform="translate(-741.47562 -288.75851)"/></clipPath><clipPath id="aC"><path d="m0 666.667h1000v-666.667h-1000z" transform="translate(-733.06252 -304.54651)"/></clipPath><clipPath id="aD"><path d="m0 666.667h1000v-666.667h-1000z" transform="translate(-768.55472 -299.04361)"/></clipPath><clipPath id="aE"><path d="m665.636 171.795h14.681v-13.882h-14.681z" transform="matrix(.64870135 .76104304 .76104304 -.64870135 -558.7354 -407.89277)"/></clipPath><clipPath id="aF"><path d="m665.636 171.795h14.681v-13.882h-14.681z" transform="matrix(1.3333333 0 0 -1.3333333 0 888.88933)"/></clipPath><clipPath id="aG"><path d="m0 666.667h1000v-666.667h-1000z" transform="matrix(1.3333333 0 0 -1.3333333 0 888.88933)"/></clipPath><clipPath id="aH"><path d="m670.435 178.111h14.939v-14.879h-14.939z" transform="matrix(.70225682 .71192371 .71192371 -.70225682 -593.87066 -365.43084)"/></clipPath><clipPath id="aI"><path d="m670.435 178.111h14.939v-14.879h-14.939z" transform="matrix(1.3333333 0 0 -1.3333333 0 888.88933)"/></clipPath><clipPath id="aJ"><path d="m0 666.667h1000v-666.667h-1000z" transform="matrix(1.3333333 0 0 -1.3333333 0 888.88933)"/></clipPath><clipPath id="aK"><path d="m675.953 183.354h14.351v-15.022h-14.351z" transform="matrix(.79922231 .57713757 .60156202 -.80831943 -647.70994 -254.62319)"/></clipPath><clipPath id="aL"><path d="m675.953 183.354h14.351v-15.022h-14.351z" transform="matrix(1.3333333 0 0 -1.3333333 0 888.88933)"/></clipPath><clipPath id="aM"><path d="m0 666.667h1000v-666.667h-1000z" transform="matrix(1.3333333 0 0 -1.3333333 0 888.88933)"/></clipPath><clipPath id="aN"><path d="m684.828 190.664h13.278v-15.134h-13.278z" transform="matrix(.82844526 .56007008 .56007008 -.82845426 -672.0032 -238.25261)"/></clipPath><clipPath id="aO"><path d="m684.828 190.664h13.278v-15.134h-13.278z" transform="matrix(1.3333333 0 0 -1.3333333 0 888.88933)"/></clipPath><clipPath id="aP"><path d="m0 666.667h1000v-666.667h-1000z" transform="matrix(1.3333333 0 0 -1.3333333 0 888.88933)"/></clipPath><clipPath id="aQ"><path d="m690.767 194.461h12.576v-15.539h-12.576z" transform="matrix(.9022201 .43127582 .43127582 -.9022201 -705.71424 -134.85567)"/></clipPath><clipPath id="aR"><path d="m690.767 194.461h12.576v-15.539h-12.576z" transform="matrix(1.3333333 0 0 -1.3333333 0 888.88933)"/></clipPath><clipPath id="aS"><path d="m0 666.667h1000v-666.667h-1000z" transform="matrix(1.3333333 0 0 -1.3333333 0 888.88933)"/></clipPath><clipPath id="aT"><path d="m697.041 198.543h12.881v-15.763h-12.881z" transform="matrix(.91363666 .40653165 .40653165 -.91363666 -716.23275 -114.46158)"/></clipPath><clipPath id="aU"><path d="m697.041 198.543h12.881v-15.763h-12.881z" transform="matrix(1.3333333 0 0 -1.3333333 0 888.88933)"/></clipPath><clipPath id="aV"><path d="m0 666.667h1000v-666.667h-1000z" transform="matrix(1.3333333 0 0 -1.3333333 0 888.88933)"/></clipPath><clipPath id="aW"><path d="m703.816 202.013h12.538v-15.688h-12.538z" transform="matrix(.92776789 .37315775 .37315775 -.92776789 -727.24662 -87.499492)"/></clipPath><clipPath id="aX"><path d="m703.816 202.013h12.538v-15.688h-12.538z" transform="matrix(1.3333333 0 0 -1.3333333 0 888.88933)"/></clipPath><clipPath id="aY"><path d="m0 666.667h1000v-666.667h-1000z" transform="matrix(1.3333333 0 0 -1.3333333 0 888.88933)"/></clipPath><clipPath id="aZ"><path d="m740.067 210.485h9.118v-14.306h-9.118z" transform="matrix(.99654745 .08302533 .08302533 -.99654745 -754.93342 138.13804)"/></clipPath><clipPath id="a0"><path d="m740.067 210.485h9.118v-14.306h-9.118z" transform="matrix(1.3333333 0 0 -1.3333333 0 888.88933)"/></clipPath><clipPath id="a1"><path d="m0 666.667h1000v-666.667h-1000z" transform="matrix(1.3333333 0 0 -1.3333333 0 888.88933)"/></clipPath><clipPath id="a2"><path d="m760.703 210.953h8.212v-13.808h-8.212z" transform="matrix(.99988823 -.01495116 -.01495116 -.99988823 -757.66931 212.79162)"/></clipPath><clipPath id="a3"><path d="m760.703 210.953h8.212v-13.808h-8.212z" transform="matrix(1.3333333 0 0 -1.3333333 0 888.88933)"/></clipPath><clipPath id="a4"><path d="m0 666.667h1000v-666.667h-1000z" transform="matrix(1.3333333 0 0 -1.3333333 0 888.88933)"/></clipPath><clipPath id="a5"><path d="m798.763 201.07h13.73v-15.857h-13.73z" transform="matrix(.86910695 -.49462418 -.49462418 -.86910695 -600.64018 563.67442)"/></clipPath><clipPath id="a6"><path d="m798.763 201.07h13.73v-15.857h-13.73z" transform="matrix(1.3333333 0 0 -1.3333333 0 888.88933)"/></clipPath><clipPath id="a7"><path d="m0 666.667h1000v-666.667h-1000z" transform="matrix(1.3333333 0 0 -1.3333333 0 888.88933)"/></clipPath><clipPath id="a8"><path d="m817.032 189.247h14.446v-15.251h-14.446z" transform="matrix(.76826858 -.64012764 -.64012764 -.76826858 -513.29023 664.49322)"/></clipPath><clipPath id="a9"><path d="m817.032 189.247h14.446v-15.251h-14.446z" transform="matrix(1.3333333 0 0 -1.3333333 0 888.88933)"/></clipPath><clipPath id="ba"><path d="m0 666.667h1000v-666.667h-1000z" transform="matrix(1.3333333 0 0 -1.3333333 0 888.88933)"/></clipPath><clipPath id="bb"><path d="m807.469 197.317h10.437v-14.592h-10.437z" transform="matrix(.98723362 -.18785433 -.16108614 -.9993925 -767.47444 339.95602)"/></clipPath><clipPath id="bc"><path d="m807.469 197.317h10.437v-14.592h-10.437z" transform="matrix(1.3333333 0 0 -1.3333333 0 888.88933)"/></clipPath><clipPath id="bd"><path d="m0 666.667h1000v-666.667h-1000z" transform="matrix(1.3333333 0 0 -1.3333333 0 888.88933)"/></clipPath><clipPath id="be"><path d="m746.527 211.434h9.649v-14.481h-9.649z" transform="matrix(.99036106 .13366696 .13863149 -.91608537 -768.4865 84.195453)"/></clipPath><clipPath id="bf"><path d="m746.527 211.434h9.649v-14.481h-9.649z" transform="matrix(1.3333333 0 0 -1.3333333 0 888.88933)"/></clipPath><clipPath id="bg"><path d="m0 666.667h1000v-666.667h-1000z" transform="matrix(1.3333333 0 0 -1.3333333 0 888.88933)"/></clipPath><clipPath id="bh"><path d="m711.09 205.238h12.215v-15.601h-12.215z" transform="matrix(.93793647 .34680708 .34680708 -.93793647 -737.17778 -66.214483)"/></clipPath><clipPath id="bi"><path d="m711.09 205.238h12.215v-15.601h-12.215z" transform="matrix(1.3333333 0 0 -1.3333333 0 888.88933)"/></clipPath><clipPath id="bj"><path d="m0 666.667h1000v-666.667h-1000z" transform="matrix(1.3333333 0 0 -1.3333333 0 888.88933)"/></clipPath><clipPath id="bk"><path d="m828.161 179.369h15.322v-15.296h-15.322z" transform="matrix(.70468141 -.70952386 -.70952386 -.70468141 -463.16761 711.37491)"/></clipPath><clipPath id="bl"><path d="m828.161 179.369h15.322v-15.296h-15.322z" transform="matrix(1.3333333 0 0 -1.3333333 0 888.88933)"/></clipPath><clipPath id="bm"><path d="m0 666.667h1000v-666.667h-1000z" transform="matrix(1.3333333 0 0 -1.3333333 0 888.88933)"/></clipPath><clipPath id="bn"><path d="m772.344 210.249h10.502v-14.99h-10.502z" transform="matrix(.98042188 -.19690859 -.19690859 -.98042188 -718.4666 349.23053)"/></clipPath><clipPath id="bo"><path d="m772.344 210.249h10.502v-14.99h-10.502z" transform="matrix(1.3333333 0 0 -1.3333333 0 888.88933)"/></clipPath><clipPath id="bp"><path d="m0 666.667h1000v-666.667h-1000z" transform="matrix(1.3333333 0 0 -1.3333333 0 888.88933)"/></clipPath><clipPath id="bq"><path d="m719.356 207.388h11.608v-15.159h-11.608z" transform="matrix(.98279188 .18471648 .18471648 -.98279188 -744.97138 59.752046)"/></clipPath><clipPath id="br"><path d="m719.356 207.388h11.608v-15.159h-11.608z" transform="matrix(1.3333333 0 0 -1.3333333 0 888.88933)"/></clipPath><clipPath id="bs"><path d="m0 666.667h1000v-666.667h-1000z" transform="matrix(1.3333333 0 0 -1.3333333 0 888.88933)"/></clipPath><clipPath id="bt"><path d="m733.267 209.696h8.574v-14.358h-8.574z" transform="matrix(.9946309 .10348584 .10348584 -.9946309 -750.9537 122.43408)"/></clipPath><clipPath id="bu"><path d="m733.267 209.696h8.574v-14.358h-8.574z" transform="matrix(1.3333333 0 0 -1.3333333 0 888.88933)"/></clipPath><clipPath id="bv"><path d="m0 666.667h1000v-666.667h-1000z" transform="matrix(1.3333333 0 0 -1.3333333 0 888.88933)"/></clipPath><clipPath id="bw"><path d="m754.537 211.081h7.544v-13.868h-7.544z" transform="matrix(.99967431 .02551984 .02551984 -.99967431 -759.6741 182.05894)"/></clipPath><clipPath id="bx"><path d="m754.537 211.081h7.544v-13.868h-7.544z" transform="matrix(1.3333333 0 0 -1.3333333 0 888.88933)"/></clipPath><clipPath id="by"><path d="m0 666.667h1000v-666.667h-1000z" transform="matrix(1.3333333 0 0 -1.3333333 0 888.88933)"/></clipPath><clipPath id="bz"><path d="m792.466 204.293h13.005v-15.458h-13.005z" transform="matrix(.87036442 -.49240814 -.49240814 -.87036442 -595.00628 561.83149)"/></clipPath><clipPath id="bA"><path d="m792.466 204.293h13.005v-15.458h-13.005z" transform="matrix(1.3333333 0 0 -1.3333333 0 888.88933)"/></clipPath><clipPath id="bB"><path d="m0 666.667h1000v-666.667h-1000z" transform="matrix(1.3333333 0 0 -1.3333333 0 888.88933)"/></clipPath><clipPath id="bC"><path d="m768.052 210.678h4.631v-13.951h-4.631z" transform="matrix(.9934028 -.11467751 -.11467751 -.9934028 -740.38443 288.03377)"/></clipPath><clipPath id="bD"><path d="m768.052 210.678h4.631v-13.951h-4.631z" transform="matrix(1.3333333 0 0 -1.3333333 0 888.88933)"/></clipPath><clipPath id="bE"><path d="m0 666.667h1000v-666.667h-1000z" transform="matrix(1.3333333 0 0 -1.3333333 0 888.88933)"/></clipPath><clipPath id="bF"><path d="m832.825 174.217h14.599v-14.329h-14.599z" transform="matrix(.6872585 -.72641293 -.72641293 -.6872585 -452.64688 722.41704)"/></clipPath><clipPath id="bG"><path d="m832.825 174.217h14.599v-14.329h-14.599z" transform="matrix(1.3333333 0 0 -1.3333333 0 888.88933)"/></clipPath><clipPath id="bH"><path d="m0 666.667h1000v-666.667h-1000z" transform="matrix(1.3333333 0 0 -1.3333333 0 888.88933)"/></clipPath><clipPath id="bI"><path d="m811.238 193.496h13.624v-15.018h-13.624z" transform="matrix(.80056451 -.59924662 -.59924662 -.80056451 -540.06331 636.43955)"/></clipPath><clipPath id="bJ"><path d="m811.238 193.496h13.624v-15.018h-13.624z" transform="matrix(1.3333333 0 0 -1.3333333 0 888.88933)"/></clipPath><clipPath id="bK"><path d="m0 666.667h1000v-666.667h-1000z" transform="matrix(1.3333333 0 0 -1.3333333 0 888.88933)"/></clipPath><clipPath id="bL"><path d="m779.313 208.653h12.729v-15.741h-12.729z" transform="matrix(.95925254 -.28255003 -.28255003 -.95926154 -692.31402 411.92704)"/></clipPath><clipPath id="bM"><path d="m779.313 208.653h12.729v-15.741h-12.729z" transform="matrix(1.3333333 0 0 -1.3333333 0 888.88933)"/></clipPath><clipPath id="bN"><path d="m0 666.667h1000v-666.667h-1000z" transform="matrix(1.3333333 0 0 -1.3333333 0 888.88933)"/></clipPath><clipPath id="bO"><path d="m821.94 184.654h15.929v-15.596h-15.929z" transform="matrix(.67352514 -.73916432 -.73916432 -.67352514 -423.92295 729.88414)"/></clipPath><clipPath id="bP"><path d="m821.94 184.654h15.929v-15.596h-15.929z" transform="matrix(1.3333333 0 0 -1.3333333 0 888.88933)"/></clipPath><clipPath id="bQ"><path d="m0 666.667h1000v-666.667h-1000z" transform="matrix(1.3333333 0 0 -1.3333333 0 888.88933)"/></clipPath><clipPath id="bR"><path d="m0 666.667h1000v-666.667h-1000z" transform="translate(-825.86042 -385.60121)"/></clipPath><clipPath id="bS"><path d="m0 666.667h1000v-666.667h-1000z" transform="translate(-826.543 -386.17151)"/></clipPath><clipPath id="bT"><path d="m0 666.667h1000v-666.667h-1000z" transform="translate(-826.65625 -385.94301)"/></clipPath><clipPath id="bU"><path d="m0 666.667h1000v-666.667h-1000z" transform="translate(-826.543 -385.82971)"/></clipPath><clipPath id="bV"><path d="m0 666.667h1000v-666.667h-1000z" transform="translate(-826.4287 -385.94301)"/></clipPath><clipPath id="bW"><path d="m0 666.667h1000v-666.667h-1000z" transform="translate(-826.543 -385.94301)"/></clipPath><clipPath id="bX"><path d="m0 666.667h1000v-666.667h-1000z" transform="translate(-826.20212 -385.71551)"/></clipPath><clipPath id="bY"><path d="m0 666.667h1000v-666.667h-1000z" transform="translate(-863.51665 -372.97431)"/></clipPath><clipPath id="bZ"><path d="m0 666.667h1000v-666.667h-1000z" transform="translate(-826.20212 -385.60121)"/></clipPath><clipPath id="b0"><path d="m0 666.667h1000v-666.667h-1000z" transform="translate(-826.543 -385.82971)"/></clipPath><linearGradient id="b1"><stop offset="0" stop-color="#d5dfff"/><stop offset="1" stop-color="#fff"/></linearGradient><linearGradient id="b2" gradientTransform="matrix(21.489788 2.827976 -.8978887 67.683907 836.13416 313.43991)" gradientUnits="userSpaceOnUse" spreadMethod="pad" x1="0" x2="1" xlink:href="#b1" y1="0" y2="0"/><clipPath id="b3"><path d="m0 666.667h1000v-666.667h-1000z" transform="translate(-819.0928 -372.29171)"/></clipPath><clipPath id="b4"><path d="m0 666.667h1000v-666.667h-1000z" transform="translate(-801.39452 -376.47531)"/></clipPath><clipPath id="b5"><path d="m0 666.667h1000v-666.667h-1000z" transform="translate(-802.0381 -376.95771)"/></clipPath><clipPath id="b6"><path d="m0 666.667h1000v-666.667h-1000z" transform="translate(-814.42682 -380.33661)"/></clipPath><clipPath id="b7"><path d="m0 666.667h1000v-666.667h-1000z" transform="translate(-846.44432 -248.7272)"/></clipPath><clipPath id="b8"><path d="m0 666.667h1000v-666.667h-1000z" transform="translate(-844.3525 -312.60121)"/></clipPath><clipPath id="b9"><path d="m0 666.667h1000v-666.667h-1000z" transform="translate(-830.1943 -331.90881)"/></clipPath><clipPath id="ca"><path d="m0 666.667h1000v-666.667h-1000z" transform="translate(-827.62015 -380.33661)"/></clipPath><clipPath id="cb"><path d="m0 666.667h1000v-666.667h-1000z" transform="translate(-832.60742 -380.57781)"/></clipPath><clipPath id="cc"><path d="m0 666.667h1000v-666.667h-1000z" transform="translate(-772.36824 -393.77801)"/></clipPath><clipPath id="cd"><path d="m0 666.667h1000v-666.667h-1000z" transform="translate(-789.70412 -426.03781)"/></clipPath><clipPath id="ce"><path d="m0 666.667h1000v-666.667h-1000z" transform="translate(-799.65332 -433.27361)"/></clipPath><clipPath id="cf"><path d="m0 666.667h1000v-666.667h-1000z" transform="translate(-797.39162 -435.68571)"/></clipPath><clipPath id="cg"><path d="m0 666.667h1000v-666.667h-1000z" transform="translate(-787.44242 -370.41181)"/></clipPath><clipPath id="ch"><path d="m0 666.667h1000v-666.667h-1000z" transform="translate(-805.38182 -388.80241)"/></clipPath><clipPath id="ci"><path d="m0 666.667h1000v-666.667h-1000z" transform="translate(-729.70612 -389.85811)"/></clipPath><clipPath id="cj"><path d="m0 666.667h1000v-666.667h-1000z" transform="translate(-709.95802 -382.92351)"/></clipPath><clipPath id="ck"><path d="m0 666.667h1000v-666.667h-1000z" transform="translate(-709.95802 -382.92351)"/></clipPath><clipPath id="cl"><path d="m0 666.667h1000v-666.667h-1000z" transform="translate(-711.61622 -401.16371)"/></clipPath><clipPath id="cm"><path d="m0 666.667h1000v-666.667h-1000z" transform="translate(-699.70702 -402.06901)"/></clipPath><clipPath id="cn"><path d="m0 666.667h1000v-666.667h-1000z" transform="translate(-698.50102 -384.28091)"/></clipPath><clipPath id="co"><path d="m0 666.667h1000v-666.667h-1000z" transform="translate(-700.00882 -424.98261)"/></clipPath><clipPath id="cp"><path d="m0 666.667h1000v-666.667h-1000z" transform="translate(-681.69632 -445.10611)"/></clipPath><clipPath id="cq"><path d="m0 666.667h1000v-666.667h-1000z" transform="translate(-686.89361 -431.91671)"/></clipPath><clipPath id="cr"><path d="m0 666.667h1000v-666.667h-1000z" transform="translate(-733.47462 -505.02941)"/></clipPath><clipPath id="cs"><path d="m0 666.667h1000v-666.667h-1000z" transform="translate(-771.39654 -427.05141)"/></clipPath><clipPath id="ct"><path d="m0 666.667h1000v-666.667h-1000z" transform="translate(-759.09279 -428.93471)"/></clipPath><clipPath id="cu"><path d="m0 666.667h1000v-666.667h-1000z" transform="translate(-750.17972 -429.68771)"/></clipPath><clipPath id="cv"><path d="m0 666.667h1000v-666.667h-1000z" transform="translate(-728.71392 -427.05141)"/></clipPath><clipPath id="cw"><path d="m0 666.667h1000v-666.667h-1000z" transform="translate(-741.01762 -428.93471)"/></clipPath><clipPath id="cx"><path d="m0 666.667h1000v-666.667h-1000z" transform="translate(-749.93162 -429.68771)"/></clipPath><clipPath id="cy"><path d="m0 666.667h1000v-666.667h-1000z" transform="translate(-774.47559 -353.46551)"/></clipPath><clipPath id="cz"><path d="m0 666.667h1000v-666.667h-1000z" transform="translate(-729.30182 -351.73111)"/></clipPath><clipPath id="cA"><path d="m0 666.667h1000v-666.667h-1000z" transform="translate(-733.66702 -370.93621)"/></clipPath><clipPath id="cB"><path d="m0 666.667h1000v-666.667h-1000z" transform="translate(-734.89942 -401.96161)"/></clipPath><clipPath id="cC"><path d="m0 666.667h1000v-666.667h-1000z" transform="translate(-725.10842 -402.12761)"/></clipPath><clipPath id="cD"><path d="m0 666.667h1000v-666.667h-1000z" transform="translate(-773.83502 -402.68031)"/></clipPath><clipPath id="cE"><path d="m0 666.667h1000v-666.667h-1000z" transform="translate(-750.10449 -386.86001)"/></clipPath><clipPath id="cF"><path d="m0 666.667h1000v-666.667h-1000z" transform="translate(-724.83202 -367.23791)"/></clipPath><clipPath id="cG"><path d="m0 666.667h1000v-666.667h-1000z" transform="translate(-718.38382 -407.50851)"/></clipPath><clipPath id="cH"><path d="m0 666.667h1000v-666.667h-1000z" transform="translate(-775.10739 -412.90101)"/></clipPath><clipPath id="cI"><path d="m0 666.667h1000v-666.667h-1000z" transform="translate(-746.39552 -416.88301)"/></clipPath><clipPath id="cJ"><path d="m0 666.667h1000v-666.667h-1000z" transform="translate(-746.39552 -416.88301)"/></clipPath><clipPath id="cK"><path d="m0 666.667h1000v-666.667h-1000z" transform="translate(-749.89842 -418.70671)"/></clipPath><clipPath id="cL"><path d="m0 666.667h1000v-666.667h-1000z" transform="translate(-734.90232 -441.64611)"/></clipPath><linearGradient id="cM" gradientTransform="matrix(7.7111278 0 0 13.828277 781.87488 435.52432)" gradientUnits="userSpaceOnUse" spreadMethod="pad" x1="0" x2="1" xlink:href="#c" y1="0" y2="0"/><clipPath id="cN"><path d="m0 666.667h1000v-666.667h-1000z" transform="translate(-751.28522 -441.99821)"/></clipPath><clipPath id="cO"><path d="m0 666.667h1000v-666.667h-1000z" transform="translate(-766.25882 -442.87911)"/></clipPath><clipPath id="cP"><path d="m0 666.667h1000v-666.667h-1000z" transform="translate(-723.39652 -498.99771)"/></clipPath><clipPath id="cQ"><path d="m0 666.667h1000v-666.667h-1000z" transform="translate(-726.78612 -499.23111)"/></clipPath><clipPath id="cR"><path d="m0 666.667h1000v-666.667h-1000z" transform="translate(-824.70902 -254.7536)"/></clipPath><clipPath id="cS"><path d="m0 666.667h1000v-666.667h-1000z" transform="translate(-830.32525 -250.06801)"/></clipPath><linearGradient id="cT" gradientTransform="matrix(-79.929642 11.157025 -74.441925 -11.979499 870.46368 224.45734)" gradientUnits="userSpaceOnUse" spreadMethod="pad" x1="0" x2="1" xlink:href="#b1" y1="0" y2="0"/><clipPath id="cU"><path d="m0 666.667h1000v-666.667h-1000z" transform="translate(-788.17682 -224.81611)"/></clipPath><linearGradient id="cV" gradientTransform="matrix(-6.8007512 17.239672 -13.759377 -8.5209322 813.60498 311.38022)" gradientUnits="userSpaceOnUse" spreadMethod="pad" x1="0" x2="1" xlink:href="#b1" y1="0" y2="0"/><clipPath id="cW"><path d="m0 666.667h1000v-666.667h-1000z" transform="translate(-813.01465 -347.19791)"/></clipPath><clipPath id="cX"><path d="m0 666.667h1000v-666.667h-1000z" transform="translate(-690.51371 -286.817)"/></clipPath><clipPath id="cY"><path d="m0 666.667h1000v-666.667h-1000z" transform="translate(-713.79592 -286.4381)"/></clipPath><clipPath id="cZ"><path d="m0 666.667h1000v-666.667h-1000z" transform="translate(-711.90332 -301.01331)"/></clipPath><clipPath id="c0"><path d="m0 666.667h1000v-666.667h-1000z" transform="translate(-653.60252 -233.43721)"/></clipPath><clipPath id="c1"><path d="m0 666.667h1000v-666.667h-1000z" transform="translate(-722.69342 -266.5631)"/></clipPath><clipPath id="c2"><path d="m0 666.667h1000v-666.667h-1000z" transform="translate(-699.78911 -232.30141)"/></clipPath><clipPath id="c3"><path d="m0 666.667h1000v-666.667h-1000z" transform="translate(-732.72562 -255.9626)"/></clipPath><clipPath id="c4"><path d="m0 666.667h1000v-666.667h-1000z" transform="translate(-728.56052 -229.08371)"/></clipPath><clipPath id="c5"><path d="m0 666.667h1000v-666.667h-1000z" transform="translate(-732.15722 -247.63441)"/></clipPath><clipPath id="c6"><path d="m0 666.667h1000v-666.667h-1000z" transform="translate(-728.75002 -259.74871)"/></clipPath><clipPath id="c7"><path d="m0 666.667h1000v-666.667h-1000z" transform="translate(-718.71782 -273.56701)"/></clipPath><clipPath id="c8"><path d="m0 666.667h1000v-666.667h-1000z" transform="translate(-716.25682 -278.11001)"/></clipPath><clipPath id="c9"><path d="m0 666.667h1000v-666.667h-1000z" transform="translate(-694.67771 -243.09151)"/></clipPath><clipPath id="da"><path d="m0 666.667h1000v-666.667h-1000z" transform="translate(-686.53912 -232.11301)"/></clipPath><clipPath id="db"><path d="m0 666.667h1000v-666.667h-1000z" transform="translate(-687.92972 -366.54171)"/></clipPath><clipPath id="dc"><path d="m0 666.667h1000v-666.667h-1000z" transform="translate(-677.96972 -382.40591)"/></clipPath><clipPath id="dd"><path d="m0 666.667h1000v-666.667h-1000z" transform="translate(-676.06742 -381.23501)"/></clipPath><clipPath id="de"><path d="m0 666.667h1000v-666.667h-1000z" transform="translate(-692.80862 -373.67251)"/></clipPath><clipPath id="df"><path d="m0 666.667h1000v-666.667h-1000z" transform="translate(-693.66502 -379.10901)"/></clipPath><clipPath id="dg"><path d="m0 666.667h1000v-666.667h-1000z" transform="translate(-694.18952 -380.68421)"/></clipPath><clipPath id="dh"><path d="m0 666.667h1000v-666.667h-1000z" transform="translate(-695.24021 -382.25941)"/></clipPath><clipPath id="di"><path d="m0 666.667h1000v-666.667h-1000z" transform="translate(-693.83981 -383.48401)"/></clipPath><clipPath id="dj"><path d="m0 666.667h1000v-666.667h-1000z" transform="translate(-694.54001 -384.00941)"/></clipPath><clipPath id="dk"><path d="m0 666.667h1000v-666.667h-1000z" transform="translate(-692.96482 -378.93331)"/></clipPath><clipPath id="dl"><path d="m0 666.667h1000v-666.667h-1000z" transform="translate(-672.48632 -346.55241)"/></clipPath><clipPath id="dm"><path d="m0 666.667h1000v-666.667h-1000z" transform="translate(-699.79102 -335.52601)"/></clipPath><clipPath id="dn"><path d="m0 666.667h1000v-666.667h-1000z" transform="translate(-686.41112 -388.75651)"/></clipPath><clipPath id="do"><path d="m0 666.667h1000v-666.667h-1000z" transform="translate(-668.43262 -377.68131)"/></clipPath><clipPath id="dp"><path d="m0 666.667h1000v-666.667h-1000z" transform="translate(-668.43262 -377.68131)"/></clipPath><clipPath id="dq"><path d="m0 666.667h1000v-666.667h-1000z" transform="translate(-695.32811 -384.29751)"/></clipPath><clipPath id="dr"><path d="m0 666.667h1000v-666.667h-1000z" transform="translate(-696.68162 -384.53971)"/></clipPath><clipPath id="ds"><path d="m0 666.667h1000v-666.667h-1000z" transform="translate(-671.14751 -362.15201)"/></clipPath><clipPath id="dt"><path d="m0 666.667h1000v-666.667h-1000z" transform="translate(-701.76272 -329.68031)"/></clipPath><clipPath id="du"><path d="m0 666.667h1000v-666.667h-1000z" transform="translate(-670.18462 -248.9801)"/></clipPath><clipPath id="dv"><path d="m0 666.667h1000v-666.667h-1000z" transform="translate(-694.74512 -326.23991)"/></clipPath><clipPath id="dw"><path d="m0 666.667h1000v-666.667h-1000z" transform="translate(-635.23541 -298.30831)"/></clipPath><clipPath id="dx"><path d="m0 666.667h1000v-666.667h-1000z" transform="translate(-674.51861 -290.05241)"/></clipPath><clipPath id="dy"><path d="m0 666.667h1000v-666.667h-1000z" transform="translate(-658.97072 -281.03971)"/></clipPath><clipPath id="dz"><path d="m0 666.667h1000v-666.667h-1000z" transform="translate(-672.45512 -270.58271)"/></clipPath><clipPath id="dA"><path d="m0 666.667h1000v-666.667h-1000z" transform="translate(-669.70312 -252.9704)"/></clipPath><clipPath id="dB"><path d="m0 666.667h1000v-666.667h-1000z" transform="translate(-654.98051 -252.902)"/></clipPath><clipPath id="dC"><path d="m0 666.667h1000v-666.667h-1000z" transform="translate(-654.98051 -252.902)"/></clipPath><clipPath id="dD"><path d="m0 666.667h1000v-666.667h-1000z" transform="translate(-665.35162 -241.07)"/></clipPath><clipPath id="dE"><path d="m0 666.667h1000v-666.667h-1000z" transform="translate(-704.63772 -295.68721)"/></clipPath><clipPath id="dF"><path d="m0 666.667h1000v-666.667h-1000z" transform="translate(-703.11912 -289.61201)"/></clipPath><path d="m0 0h1000v666.667h-1000z" fill="#00247d" transform="matrix(1.3333333 0 0 -1.3333333 0 888.88933)"/><path d="m0 0-168.089-112.059 48.411-32.274 168.089 112.059v32.274zm-384.589 0v-32.274l168.089-112.059 48.411 32.274-168.089 112.059zm0-256.392v-32.275h48.411l168.089 112.06-48.411 32.274zm216.5 79.785 168.089-112.06h48.411v32.274l-168.089 112.06z" fill="#fff" transform="matrix(1.3333333 0 0 -1.3333333 512.7852 .000133)"/><path d="m0 0v-96.223h-180.417v-96.221h180.417v-96.223h72.166v96.223h180.417v96.221h-180.417v96.223z" fill="#fff" transform="matrix(1.3333333 0 0 -1.3333333 240.5556 .000133)"/><path d="m0 0v-115.467h-194.85v-57.733h194.85v-115.467h43.3v115.467h194.85v57.733h-194.85v115.467z" fill="#cf142b" transform="matrix(1.3333333 0 0 -1.3333333 259.8 .000133)"/><path d="m0 0-144.334-96.223h32.274l144.333 96.223zm-400.727 0v-21.516l112.06-74.707h32.274zm288.667-192.444 144.333-96.223v21.516l-112.06 74.707zm-144.333 0-144.334-96.223h32.274l144.333 96.223z" fill="#cf142b" transform="matrix(1.3333333 0 0 -1.3333333 534.3024 .000133)"/><path clip-path="url(#a)" d="m0 0s-2.65-7.003-4.165-7.003c-1.514 0-7.003 3.028-7.003 3.028s-3.976-6.435-6.058-6.814-7.571.946-7.571.946-5.301 0-5.489.757c-.19.758.188 2.273.188 2.273s-7.571-6.058-9.274-5.679c-1.704.378-7.383 7.571-7.383 7.571l-.946-3.786-10.789.379-9.465 6.057s-5.3-8.708-5.489-8.518c-.19.189-9.276-2.082-9.276-2.082l-.567 1.703-6.058 3.597s4.733 6.625 4.733 6.814c0 .19-2.272.946-2.272.946l-3.407-2.838-7.004-4.543-7.004 3.217 3.029 5.679.378 4.164 5.49 8.329 67.198 65.304 33.125-61.14z" fill="#6a4c2d" stroke="#000" transform="matrix(1.3333333 0 0 -1.3333333 986.05333 577.63973)"/><path clip-path="url(#b)" d="m0 0 17.492.628-7.445 3.678 66.647 2.511-9.419 3.588-8.341 11.302-34.536 2.602s-2.6 1.973-6.817.987c-.179 2.69-3.408 6.188-3.408 6.188l-21.259 1.616-13.276-9.06 8.97-22.964z" fill="#fff" stroke="#000" transform="matrix(1.3333333 0 0 -1.3333333 1049.7057 582.91453)"/><path d="m753.84 444.992-2.467-2.906s-8.896 10.923-16.471-.528c-1.497 4.316-8.544 2.29-8.544 2.29s-2.29-2.731-2.29-5.021-3.083-7.487-3.083-7.487l-1.762-5.989 63.947-1.233s-2.465 9.487-5.196 11.098c.772 5.488-2.908 8.368-2.908 8.368l-7.75-.618s-1.145-.792-1.233.353-7.223 7.84-7.223 7.84z" fill="url(#d)" transform="matrix(1.3333333 0 0 -1.3333333 0 888.88933)"/><path clip-path="url(#e)" d="m0 0 1.762 5.99s3.083 5.197 3.083 7.487 2.29 5.02 2.29 5.02 7.046 2.026 8.544-2.29c7.574 11.451 16.47.528 16.47.528l2.467 2.907 5.021 6.166s7.134-6.694 7.222-7.839 1.233-.353 1.233-.353l7.751.617s3.679-2.88 2.907-8.368c2.731-1.611 5.196-11.098 5.196-11.098z" fill="none" stroke="#000" transform="matrix(1.3333333 0 0 -1.3333333 958.9648 321.75507)"/><path clip-path="url(#f)" d="m0 0c1.336.821 5.548 2.157 5.034 8.321-.513 6.163-5.855 6.883-8.835 6.677-2.979-.205-5.65-2.773-5.65-2.773l-9.862 6.266s4.93 31.128 10.17 33.08c4.976 3.585 5.856 5.137 5.856 5.958 0 .823-1.85 2.877-1.85 2.877l-32.155 3.801-30.408-3.596s-2.363-3.595-2.055-5.033c.309-1.438.411-2.979 5.856-7.191 6.024-4.634 10.17-31.231 10.17-31.231s-8.527-4.213-9.041-3.699c-.513.514-3.082 1.027-4.417.822s-5.752-2.466-5.752-8.321 4.417-9.246 4.417-9.246 29.073 3.391 33.388-4.623c4.212 9.657 31.847 6.266 35.134 7.911" fill="#656263" stroke="#000" transform="matrix(1.3333333 0 0 -1.3333333 1049.724 416.77133)"/><path clip-path="url(#g)" d="m0 0s.322 3.379 2.735 4.988 18.503 2.413 22.365 0c3.861-2.414 5.309-14.32 5.309-14.32s2.413-4.183 2.574-7.239c.161-3.057.483-5.149.483-5.149s12.871-16.733 13.032-31.857c1.448-10.297 1.126-37.809-2.895-48.267-.162-13.032-5.632-21.559-5.632-21.559s1.287-2.252 1.127-4.666c-.162-2.413-1.45-4.666-1.45-4.666l18.825-9.331-6.918 2.574s7.08-5.953 6.918-5.792c-.16.16-7.883 3.7-7.883 3.7s4.826-4.827 4.666-4.666c-.161.162-11.423 5.148-11.423 5.148s5.309-4.987 4.986-4.826c-.321.161-8.526 4.023-8.526 4.023s5.148-5.47 4.987-5.149c-.16.322-7.401 3.218-7.401 3.218l.322-2.735s-5.792.321-5.792 4.666c-2.896 1.608-4.827 3.861-4.827 3.861l-13.353 2.252-15.125 45.211 3.541 76.423.964 3.861z" transform="matrix(1.3333333 0 0 -1.3333333 1091.4792 373.6228)"/><g clip-path="url(#i)" opacity=".978546"><path clip-path="url(#h)" d="m0 0s.322 3.379 2.735 4.988 18.503 2.413 22.365 0c3.861-2.414 5.309-14.32 5.309-14.32s2.413-4.183 2.574-7.239c.161-3.057.483-5.149.483-5.149s12.871-16.733 13.032-31.857c1.448-10.297 1.126-37.809-2.895-48.267-.162-13.032-5.632-21.559-5.632-21.559s1.287-2.252 1.127-4.666c-.162-2.413-1.45-4.666-1.45-4.666l18.825-9.331-6.918 2.574s7.08-5.953 6.918-5.792c-.16.16-7.883 3.7-7.883 3.7s4.826-4.827 4.666-4.666c-.161.162-11.423 5.148-11.423 5.148s5.309-4.987 4.986-4.826c-.321.161-8.526 4.023-8.526 4.023s5.148-5.47 4.987-5.149c-.16.322-7.401 3.218-7.401 3.218l.322-2.735s-5.792.321-5.792 4.666c-2.896 1.608-4.827 3.861-4.827 3.861l-13.353 2.252-15.125 45.211 3.541 76.423.964 3.861z" fill="none" stroke="#000" stroke-linejoin="round" stroke-width="1.25" transform="matrix(1.3333333 0 0 -1.3333333 1091.4792 373.6228)"/></g><path clip-path="url(#j)" d="m0 0s-7.746 16.301-11.608 16.528c-3.486 6.644 12.111 60.962 42.282 64.058 16.588-1.366 1.364-19.121-9.542-13.657 1.362-4.781 6.816-11.611 6.816-11.611s-21.587-9.333-27.948-55.318" fill="#fb0" stroke="#000" stroke-width=".993" transform="matrix(1.3333333 0 0 -1.3333333 1078.0039 699.266)"/><path clip-path="url(#k)" d="m0 0s6.411 18.548 10.305 18.776c3.891.23-10.305 61.827-41.218 62.285-16.716-1.375-1.374-19.236 9.617-13.74-1.374-4.808-6.869-11.677-6.869-11.677s21.753-9.389 28.165-55.644" fill="#fb0" transform="matrix(1.3333333 0 0 -1.3333333 939.52733 702.42493)"/><path clip-path="url(#l)" d="m0 0s6.411 18.548 10.305 18.776c3.891.23-10.305 61.827-41.218 62.285-16.716-1.375-1.374-19.236 9.617-13.74-1.374-4.808-6.869-11.677-6.869-11.677s21.753-9.389 28.165-55.644z" fill="none" stroke="#000" transform="matrix(1.3333333 0 0 -1.3333333 939.52733 702.42493)"/><path clip-path="url(#m)" d="m0 0c-.075.149-7.673-2.383-2.756-10.652.372 3.203 3.799 5.14 3.799 5.14s-5.215-6.182.298-11.397c.67 4.916 3.799 6.48 3.799 6.48s-3.873-11.396.074-13.706c.447 4.545 3.352 6.556 3.352 6.556s-3.501-10.205-.372-12.515c.372 3.874 2.979 5.587 2.979 5.587s-1.565-10.577 2.533-11.322c.074 3.724 3.054 7.375 3.054 7.375s-1.341-8.642 5.065-9.014c.074 3.278 1.267 7.002 1.267 7.002s2.904-9.162 7.15-7.672c-.074 2.681.074 7.746 0 7.746s2.682-8.714 7.747-7.076c-.745 2.458.298 5.364.298 5.364s2.682-5.438 7.524-3.651c.819 1.64-.224 4.842-.224 4.842s7.076-7.3 9.236-2.904c2.161 4.394-5.661 5.883-5.661 5.883h5.289s-1.714 4.47-8.864 5.439c2.458 1.116 4.991.298 4.991.298s-1.49 5.586-8.79 6.181c2.831.969 5.959.299 5.959.299s-.969 5.288-9.013 6.779c1.267 1.415 4.693.968 4.693.968s-3.202 4.991-6.853 4.693c-3.65-.298-36.649 3.351-36.574 3.277" fill="#00713d" stroke="#000" transform="matrix(1.3333333 0 0 -1.3333333 977.33067 547.95227)"/><g fill="none" stroke="#3ec26d" stroke-linecap="round" stroke-width="1.25"><path clip-path="url(#n)" d="m0 0s2.904-1.416 2.83-2.683" transform="matrix(1.3333333 0 0 -1.3333333 1020.7331 583.80507)"/><path clip-path="url(#o)" d="m0 0s3.724-2.606 3.649-4.544" transform="matrix(1.3333333 0 0 -1.3333333 1023.0183 580.72707)"/><path clip-path="url(#p)" d="m0 0s2.979-1.862 3.129-4.768" transform="matrix(1.3333333 0 0 -1.3333333 1027.3867 578.9392)"/><path clip-path="url(#q)" d="m0 0s1.49-3.203.968-3.799" transform="matrix(1.3333333 0 0 -1.3333333 1034.0416 580.52907)"/><path clip-path="url(#r)" d="m0 0c.224-2.532-.224-2.756-.224-2.756" transform="matrix(1.3333333 0 0 -1.3333333 1038.0143 582.81293)"/><path clip-path="url(#s)" d="m0 0s3.501-2.234 3.203-5.363" transform="matrix(1.3333333 0 0 -1.3333333 989.0508 561.4588)"/><path clip-path="url(#t)" d="m0 0s1.639-1.563 1.267-2.606" transform="matrix(1.3333333 0 0 -1.3333333 988.75267 565.0356)"/><path clip-path="url(#u)" d="m0 0s2.309-3.204 1.564-5.438" transform="matrix(1.3333333 0 0 -1.3333333 994.51307 561.55773)"/><path clip-path="url(#v)" d="m0 0s1.043-2.011.074-3.129" transform="matrix(1.3333333 0 0 -1.3333333 999.776 564.33893)"/><path clip-path="url(#w)" d="m0 0s1.267-2.011.149-2.682" transform="matrix(1.3333333 0 0 -1.3333333 1002.2591 565.63067)"/><path clip-path="url(#x)" d="m0 0s3.277-.745 3.725-3.203" transform="matrix(1.3333333 0 0 -1.3333333 1000.3724 574.4692)"/><path clip-path="url(#y)" d="m0 0s3.426-.224 3.799-3.873" transform="matrix(1.3333333 0 0 -1.3333333 1002.9557 571.49)"/><path clip-path="url(#z)" d="m0 0c.074 0 2.31-3.947 1.937-5.214" transform="matrix(1.3333333 0 0 -1.3333333 1009.0131 569.80253)"/><path clip-path="url(#A)" d="m0 0s.895-3.799.224-4.99" transform="matrix(1.3333333 0 0 -1.3333333 1014.8724 570.29867)"/><path clip-path="url(#B)" d="m0 0c0-.074.074-4.395.074-4.395" transform="matrix(1.3333333 0 0 -1.3333333 1018.6472 572.2856)"/><path clip-path="url(#C)" d="m0 0s2.16-.82 2.012-2.905" transform="matrix(1.3333333 0 0 -1.3333333 1012.8867 564.33893)"/><path clip-path="url(#D)" d="m0 0s2.756-1.564 2.458-4.544" transform="matrix(1.3333333 0 0 -1.3333333 1015.5691 561.75693)"/><path clip-path="url(#E)" d="m0 0s2.385-2.83 1.49-5.959" transform="matrix(1.3333333 0 0 -1.3333333 1019.8385 560.06947)"/><path clip-path="url(#F)" d="m0 0s-.895-3.501-.521-4.917" transform="matrix(1.3333333 0 0 -1.3333333 1025.4011 560.96267)"/><path clip-path="url(#G)" d="m0 0s-1.564-1.191-.745-2.682" transform="matrix(1.3333333 0 0 -1.3333333 1028.7773 564.14107)"/><path clip-path="url(#H)" d="m0 0s.521-2.681 0-3.128" transform="matrix(1.3333333 0 0 -1.3333333 1010.7019 582.3168)"/><path clip-path="url(#I)" d="m0 0s1.714-2.979 1.117-4.469" transform="matrix(1.3333333 0 0 -1.3333333 1006.1328 580.23093)"/><path clip-path="url(#J)" d="m0 0s1.937-2.234 1.862-4.022" transform="matrix(1.3333333 0 0 -1.3333333 1001.2669 580.03173)"/><path clip-path="url(#K)" d="m0 0s1.788-1.713 1.639-2.681" transform="matrix(1.3333333 0 0 -1.3333333 997.29293 580.628)"/><path clip-path="url(#L)" d="m0 0s1.714-1.788 1.64-2.16" transform="matrix(1.3333333 0 0 -1.3333333 995.20707 584.10333)"/></g><path clip-path="url(#M)" d="m0 0c8.213.146 16.424.293 24.637.439 0 0 16.278 0 18.038-5.279 3.079 7.04 17.158 6.6 17.158 6.6 8.506.293 17.011.587 25.517.88.146-20.532.294-41.062.44-61.593-4.986-23.904-22.291-40.769-41.355-47.955-22.731 7.334-37.103 26.544-41.795 48.395-.88 19.504-1.76 39.008-2.64 58.513" fill="#fff" stroke="#000" transform="matrix(1.3333333 0 0 -1.3333333 945.80987 421.05387)"/><path clip-path="url(#N)" d="m0 0 35.888-95.637 32.421 97.721c-10.057-.648-31.636 1.583-34.317-7.594-4.147 8.214-26.848 4.903-33.992 5.51" fill="#006b00" stroke="#000" transform="matrix(1.3333333 0 0 -1.3333333 957.51307 420.74653)"/><path clip-path="url(#O)" d="m0 0c1.38-.722 1.342 25.956 3.154 26.783.519 2.21.779 3.177 1.425 5.523-1.554 2.762-8.546 2.624-11.137.277 1.165-3.729 1.684-4.971 1.684-4.971 3.497-5.66 2.803-28.214 4.874-27.612" fill="#ffc900" stroke="#006b00" stroke-linecap="round" stroke-width=".689" transform="matrix(1.3333333 0 0 -1.3333333 990.08467 489.78827)"/><path clip-path="url(#P)" d="m0 0s2.535 2.881 2.65 3.573c.116.691 11.524 1.152 18.323 13.828 3.802 6.684 0 2.766 0 2.766l-.231 3.226s4.725 4.495 2.997 6.915-1.153-3.112-3.919-2.996c-2.765.115-1.267 5.992-1.267 5.992s-.23.691-1.037 1.037c-1.153-.115-.807-2.19-1.844-2.42-1.037-.231-1.959 4.84-1.959 4.84s-1.729 2.304-3.227-4.955c.807-7.721 5.762-6.223 5.762-11.294 0-5.07-4.379-8.988-5.646-9.103-1.268-.116-.807 4.263-.807 4.263s-.691 2.075-1.152 2.075 2.535.461 2.075 6.222c-1.038 6.915-1.845-1.613-3.689-1.267-1.843.346-.461 6.338.231 7.029.691.692-.807 3.573-4.84-3.802-.346-3.573-.807.922-1.613.691-1.383-2.881-1.153-4.955.806-7.606 2.881-2.65 4.725-5.301 4.61-6.683-.116-1.383-1.614-4.495-3.688-4.495s.115 3.803 0 5.071c-.115 1.267-3.572 5.877-3.572 5.877s-2.42 3.918-2.19 4.033c.231.116-.23.692-1.382-3.342-1.153-4.033-2.537 2.651-2.537 2.651s-1.612-4.956 1.845-7.952c-2.65.346-2.881-.691-2.881-.691 0-1.383 3.573-1.959 4.034-4.379.46-2.42-3.688-3.803-3.688-3.803s1.729-2.42 6.568 2.305c.116-2.996-1.843-5.07-1.843-5.07 1.613-.73 2.881-.654 3.111-2.536" fill="#cdad56" stroke="#000" stroke-linejoin="round" stroke-width="1.25" transform="matrix(1.3333333 0 0 -1.3333333 977.26427 214.86373)"/><path clip-path="url(#Q)" d="m0 0s-2.153 3.198-2.251 3.827-10.595-.795-15.561 12.007c-3.23 6.082 0 2.517 0 2.517l.196 2.936s-3.438 4.204-1.969 6.406c1.468 2.203.863-2.831 2.751-2.841 2.349.105 1.077 5.452 1.077 5.452s.194.63.881.944c.978-.104 1.376-3.26 2.258-3.469.88-.21 2.699 3.712 3.276 4.519.806.116.777 3.249 2.049-3.357-.686-7.025-6.506-5.662-6.506-10.276s3.719-8.179 4.794-8.284c1.077-.105.686 3.88.686 3.88s.587 1.887.978 1.887c.392 0-3.42-.732-3.029 4.51.882 4.909 2.834-.315 4.399-.001 1.567.315-.183 5.192.266 5.936.104.744 2.413 3.942 3.304-3.115.294-3.25 2.067 2.798 2.753 2.588 1.174-2.621-.52-6.122-2.183-8.533-2.446-2.412-3.552-5.054-3.454-6.313.098-1.258.679-2.822 2.44-2.822 1.762 0 .594 2.193.692 3.347.097 1.153 3.034 4.886 3.034 4.886.576.922.097 2.643.707 3.44.956-.01 1.349 1.321 2.327-2.35.979-3.67 2.152 2.412 2.152 2.412s1.37-4.509-1.565-7.235c2.251.314 2.446-.629 2.446-.629 0-1.259-1.074-1.783-1.466-3.985s1.172-3.46 1.172-3.46-1.467-2.202-5.578 2.097c-.097-2.727 1.567-4.614 1.567-4.614-1.371-.664-2.447-.594-2.643-2.307" fill="#cdad56" stroke="#000" stroke-linejoin="round" stroke-width="1.099" transform="matrix(1.3333333 0 0 -1.3333333 956.17707 214.86373)"/><path clip-path="url(#R)" d="m0 0c-2.146 1.947-2.402.246-3.458.682-.517.216-.923.702-1.372 1.142-.392.402-.857.568-1.374.785-.194-.576-.391-1.153-.585-1.73-.196-.576.543-1.531.526-2.398-.146-1.287-.671-2.351-2.285-2.793.46.913.722.958.581 2.07-.069.556-1.626 1.543-1.434 2.07.286.846.772 1.825.413 2.67-.664-.452-1.529-.216-2.192-.491-.556-.248-.594-1.284-1.369-1.715-.794-.371-2.545-.188-4.006.643.893.676 1.631.219 2.525.898.447.339.426 1.79.873 2.129s1.516.7 1.964 1.039c-.402.458-.38 1.183-.783 1.64-.402.458-2.183.359-2.586.816-.802.915-.65 2.12-1.454 3.035 2.08-.746 1.779-1.76 2.3-1.683.986.472 1.97.566 2.487.349.516-.218 1.5-1.504 2.017-1.721.195.577.48 1.309.675 1.886.196.577-.877 1.577-.682 2.154.391 1.153 1.361 2.173 1.751 3.327.14-1.113.324-2.048.465-3.161.069-.556 1.163-.845 1.233-1.402.071-.556-.571-1.847-.501-2.403.598.118 1.462.038 2.058.157.598.119.994 1.507 1.592 1.626 1.194.238 2.055.165 3.271-.063-.893-.834-1.587-.778-2.146-1.544-.447-.339.174-1.457-1.118-2.242-.486-.281-1.762.058-2.208-.282.401-.457.803-.914 1.205-1.372.401-.458 2.206-.67 2.607-1.128.804-.916 1.23-2.009 1.01-2.99" fill="#ffc900" transform="matrix(1.3333333 0 0 -1.3333333 1040.6068 439.77133)"/><path clip-path="url(#S)" d="m0 0c2.147 1.948 2.402.247 3.458.682.517.217.923.703 1.373 1.142.391.403.856.569 1.372.786.196-.577.391-1.153.587-1.73.195-.576-.545-1.531-.527-2.398.145-1.287.67-2.351 2.284-2.794-.46.914-.721.958-.58 2.071.069.556 1.625 1.543 1.433 2.07-.285.845-.771 1.824-.412 2.67.664-.453 1.529-.216 2.192-.491.556-.248.594-1.284 1.369-1.715.794-.372 2.545-.188 4.007.642-.895.677-1.633.22-2.526.899-.447.339-.426 1.79-.873 2.129s-1.517.7-1.965 1.039c.404.457.382 1.182.784 1.64.402.457 2.183.359 2.585.816.804.915.651 2.12 1.455 3.035-2.08-.747-1.779-1.76-2.301-1.683-.985.472-1.969.566-2.486.348-.516-.217-1.5-1.503-2.017-1.721-.195.578-.481 1.31-.675 1.887-.196.576.878 1.576.682 2.153-.391 1.154-1.36 2.174-1.75 3.328-.141-1.114-.325-2.048-.465-3.161-.071-.556-1.165-.846-1.235-1.402s.572-1.847.502-2.404c-.597.119-1.461.039-2.059.157-.597.12-.993 1.507-1.591 1.627-1.195.238-2.055.165-3.271-.063.893-.834 1.587-.778 2.147-1.544.446-.339-.176-1.457 1.117-2.242.486-.281 1.762.057 2.209-.282-.403-.457-.804-.915-1.206-1.373-.401-.457-2.206-.67-2.607-1.128-.804-.915-1.23-2.008-1.01-2.99" fill="#ffc900" transform="matrix(1.3333333 0 0 -1.3333333 967.026 441.0252)"/><path d="m0 0c-1.943-1.519-14.505-4.693-14.634-15.601-.129-10.906 2.202-13.391-.129-13.668-4.533 0-5.18 12.15-5.05 17.535.128 5.383.258 4.555.258 4.555s3.108-.828 2.849-3.452c-.259-2.622 3.107 6.489 1.943 8.975 2.072-2.072 4.791-1.243 4.791-1.105 0 .139-1.553 1.795-2.201 3.037-.647 1.244 2.331-.689 2.331-.689s.129 2.07-2.461 1.933c-3.367 0 .519 1.103.519 1.103s1.942-1.794 3.237.139c-1.425 1.518-3.496 2.347-3.496 2.347s-1.813 3.452-4.273 4.141c-2.85.691-2.461-1.242-5.699-.966-.647-1.242-.647-1.381.648-1.794-2.201-1.519-1.036-4.556-1.036-4.556s3.496 1.518 3.366-.967c-.129-2.486-2.072-2.071-3.366-.553-1.165.691-1.554-.689-1.554-.689l1.812-1.933s-3.497.138-4.403-2.209c1.944.138 2.98-.415 2.98-.415s-4.016-1.795-4.405-2.761c-.386-.967-.517 1.105-.647 1.105-.129 0-3.884 1.38-3.884 1.38l-1.297-5.97s2.592-2.59 4.016-1.761c1.426.828 4.014 3.314 5.568 2.623-4.532-3.452-9.064-8.421-11.524-9.112-.649.553-2.85 2.762-3.756 1.657-.906-1.104-.26-2.485.906-2.347 1.165.138-3.755-1.105-2.719-3.175 1.037-2.072.907-1.933 1.813-1.382.906.554-.776.691 2.59 1.657 3.367.967 3.237 1.934 3.237 1.934s-.647-1.52-2.46-1.934c-1.812-.414-3.238-.414-2.849-.966.388-.553 1.165-1.518.907-2.071-.26-.552 3.755 2.899 4.791.139 2.719.137 4.532 3.451 3.237 5.383.13-2.071 1.424-2.76.648-3.727-.778-.966 6.085 3.176 2.718 5.661.908-2.071 1.036-3.728 1.036-3.728s1.555.138 1.944.69c.387.553-.778-1.519-.259-1.933.517-.414 2.978-2.761 1.942-4.418-.647.966-.777 2.486-1.553 2.348-.779-.139-4.016-2.486-5.957-2.624-1.943-.138 2.331-7.18 2.331-7.18s-2.98.415-3.368.139-2.331 2.485-2.719.828c-.648-2.07.647-1.242.647-1.242s-1.683.829-2.59-.139c-.906-.966-1.812-1.932-1.166-2.346.649-.415 3.497-.415 3.886-.276.388.138-3.237-.276-3.496-.691-.261-.413-.777-1.933 0-2.485.776-.551 2.719.277 2.848.69.13.415.259-1.519.259-1.519s3.368-.275 3.368 3.176.259-2.484.259-2.484 3.367-.553 3.495 2.898c.129 3.451.388-2.347.388-2.347s2.202.691 2.202 1.243-.13-6.903-1.682-8.974c-2.461 1.657-4.016-1.105-4.016-1.105s.13-4.003-.129-4.97c-.258-.966 1.684.553 1.814.967.129.414 2.46 1.519 2.59 1.794.128.277.776 1.658.776 1.658s-.519-1.933-1.425-2.209c-.905-.277-1.812-1.243-1.425-2.072.39-.828 1.815-1.38 2.331-2.209.519-.828 2.332 4.832 2.332 4.832l.129-1.242s2.331.552 2.59 1.657c.259 1.104-2.46 2.07-.259 3.866 2.201 1.794 0-1.657 0-1.657s.778-2.624 1.295-2.624c.518 0 1.813 4.971.518 6.213-1.295 1.243 1.942-1.518 1.942-1.518s1.815 5.107-.129 5.799c-1.942.689-2.848.965-2.848.965s1.035 1.381.517 1.519c-.517.138 2.72-3.037 3.238-2.209.517.828 1.294 3.314-2.46 4.694-3.756 1.38-.13 5.246-.13 5.246s2.332-2.76 4.014-1.241c1.684 1.518-.13 1.518-.13 1.518s4.792 3.036 4.921 4.555c-.906.139-2.461-.137-2.461-.137s2.721 1.794 2.074 4.694c-1.037-1.518-2.461-1.519-2.461-1.519s2.331 2.347 1.942 4.555c-1.425-1.103-1.295-1.931-2.201-1.656-.906.276-2.461 8.975 1.165 9.527 3.626.551 1.684-4.281 1.813-4.281s5.439 2.21 0 5.8c1.295.414 4.014-2.071 4.014-2.071s-1.165 6.075-6.992 2.346c1.425 1.519 2.331 2.486 3.496 2.209 1.166-.276 5.311.138 5.311 1.381-1.037.828-3.239-.414-4.405 0-1.165.414 8.288 1.105 7.512 5.798" style="fill:#ffc900;stroke:#006b00;stroke-width:.689;stroke-linecap:round;stroke-linejoin:round;clip-path:url(#T)" transform="matrix(1.3333333 0 0 -1.3333333 1038.0352 447.98093)"/><path clip-path="url(#U)" d="m0 0s5.18 2.899 7.77-.69" fill="none" stroke="#006b00" stroke-linecap="round" stroke-width="1.25" transform="matrix(1.3333333 0 0 -1.3333333 983.3008 452.76613)"/><path clip-path="url(#V)" d="m0 0c-.129 0-1.812-1.795-2.201-1.795" fill="none" stroke="#006b00" stroke-linecap="round" stroke-width="1.25" transform="matrix(1.3333333 0 0 -1.3333333 996.42187 461.05)"/><path clip-path="url(#W)" d="m0 0s4.791-.414 7.899 4.694" fill="none" stroke="#006b00" stroke-linecap="round" stroke-width="1.25" transform="matrix(1.3333333 0 0 -1.3333333 1001.0847 468.78173)"/><path clip-path="url(#X)" d="m0 0s.389-2.761 1.165-2.761c.777 0-1.295-.69-2.071-.137.906-1.244 1.424-3.453 0-4.281" fill="none" stroke="#006b00" stroke-linecap="round" stroke-width="1.25" transform="matrix(1.3333333 0 0 -1.3333333 1007.9909 466.75693)"/><path clip-path="url(#Y)" d="m0 0s-1.683-1.933-3.755-2.07" fill="#e80000" stroke="#006b00" stroke-linecap="round" stroke-width="1.25" transform="matrix(1.3333333 0 0 -1.3333333 1004.7096 513.14493)"/><path clip-path="url(#Z)" d="m0 0s-1.036 5.522-.389 6.903c.389 1.794 2.072 2.486 3.368 4.832" fill="none" stroke="#006b00" stroke-linecap="round" stroke-width="1.25" transform="matrix(1.3333333 0 0 -1.3333333 1007.3008 501.36373)"/><path clip-path="url(#aa)" d="m0 0s-1.295-3.313-6.992-2.209" fill="none" stroke="#006b00" stroke-linecap="round" stroke-width="1.25" transform="matrix(1.3333333 0 0 -1.3333333 1006.6093 496.0252)"/><path clip-path="url(#ab)" d="m0 0s.389-4.418-4.791-2.761" fill="none" stroke="#006b00" stroke-linecap="round" stroke-width="1.25" transform="matrix(1.3333333 0 0 -1.3333333 1008.6809 484.98093)"/><path clip-path="url(#ac)" d="m0 0s-2.072-1.933-1.295-4.556" fill="none" stroke="#006b00" stroke-linecap="round" stroke-width="1.25" transform="matrix(1.3333333 0 0 -1.3333333 1000.2213 458.47307)"/><path clip-path="url(#ad)" d="m0 0s2.72 1.104 3.237 1.657c.519.552 1.425 1.656 1.684 2.486.259.828-1.813 2.07-.777 3.865.647.828 1.553.967 3.108 0 1.554-.967-1.425 3.037-2.979 3.176-1.553.137-2.589-1.105-2.978-.83-.389.277.13-1.104-.518-1.104-.647 0 1.295-1.104 1.165-1.794s2.073-3.038 1.943-3.59c-.129-.553-3.238-3.727-3.885-3.866" fill="#006b00" transform="matrix(1.3333333 0 0 -1.3333333 1010.5807 452.0304)"/><path d="m0 0c1.182.287 1.372-.031 1.166-1.104-.554.297-.758.548-1.166 1.104" style="fill:#ffc900;stroke:#ffc900;stroke-width:1.25;stroke-linecap:round;stroke-linejoin:round;clip-path:url(#ae)" transform="matrix(1.3333333 0 0 -1.3333333 1013.1705 439.88067)"/><path clip-path="url(#af)" d="m0 0s-.437-2.89.63-3.132c-.053 1.118.227 1.883.49 2.181-.227.112-1.067.932-1.12.951" fill="#e80000" stroke="#006b00" stroke-linejoin="round" stroke-width="1.25" transform="matrix(1.3333333 0 0 -1.3333333 1002.1407 521.8924)"/><path clip-path="url(#ag)" d="m0 0c-.979.148-2.635-.718-2.159-1.764.796.731 1.533-.06 2.09.685.171.204.123.817.069 1.079" fill="#e80000" stroke="#006b00" stroke-linejoin="round" stroke-width="1.25" transform="matrix(1.3333333 0 0 -1.3333333 998.9388 517.1476)"/><path clip-path="url(#ah)" d="m0 0s-1.545.262-1.759-.879c1.067.145 1.385.267 1.738.027.103.245.003.794.021.852" fill="#e80000" stroke="#006b00" stroke-linejoin="round" stroke-width="1.25" transform="matrix(1.3333333 0 0 -1.3333333 998.92573 514.39627)"/><path clip-path="url(#ai)" d="m0 0s.927-.373 1.189-1.38c.735.485 1.084 2.629-1.189 1.38" fill="#e80000" stroke="#006b00" stroke-linejoin="round" transform="matrix(1.3333333 0 0 -1.3333333 990.20307 492.684)"/><path clip-path="url(#aj)" d="m0 0c.035.019 1.941 1.249 2.134.074-.403-.428-.577-.708-.892-.802-.245.001-.735.802-1.242.728" fill="#e80000" stroke="#006b00" stroke-linejoin="round" transform="matrix(1.3333333 0 0 -1.3333333 987.1484 495.96533)"/><path clip-path="url(#ak)" d="m0 0c.035.02 1.225 1.138 1.679.392.455-.746-.367-.708-.367-.708s-.42.205-1.312.316" fill="#e80000" stroke="#006b00" stroke-linejoin="round" transform="matrix(1.3333333 0 0 -1.3333333 986.89187 501.2856)"/><path clip-path="url(#al)" d="m0 0c-.018 0-1.521.615-2.15-.503.996-.131 1.346-.504 1.8-.877-.122.467-.332 1.175.35 1.38" fill="#e80000" stroke="#006b00" stroke-linejoin="round" transform="matrix(1.3333333 0 0 -1.3333333 984.6536 471.65413)"/><path clip-path="url(#am)" d="m0 0s.069 1.884.909 2.647c.472-.279.612-.726.927-1.286-.63-.148-1.469-.186-1.836-1.361" fill="#e80000" stroke="#006b00" stroke-linejoin="round" transform="matrix(1.3333333 0 0 -1.3333333 980.7604 482.8156)"/><path clip-path="url(#an)" d="m0 0s-1.661-.82-1.119-1.715c.542.614 1.137.429 1.137.447 0 .019 0 1.249-.018 1.268" fill="#e80000" transform="matrix(1.3333333 0 0 -1.3333333 986.1224 481.0252)"/><path clip-path="url(#ao)" d="m0 0s-1.661-.82-1.119-1.715c.542.614 1.137.429 1.137.447 0 .019 0 1.249-.018 1.268z" fill="none" stroke="#006b00" stroke-linejoin="round" transform="matrix(1.3333333 0 0 -1.3333333 986.1224 481.0252)"/><path clip-path="url(#ap)" d="m0 0c-.595-.708.734-2.256 2.134-2.032.349 1.678-1.784 2.554-2.134 2.032" fill="#ffc900" stroke="#006b00" stroke-linejoin="round" transform="matrix(1.3333333 0 0 -1.3333333 982.9284 457.01213)"/><path clip-path="url(#aq)" d="m0 0s.262-1.323 1.469-.969c-.193 1.026-1.032 1.789-1.032 1.789-.052-.298.174-.763-.437-.82" fill="#e80000" stroke="#006b00" stroke-linejoin="round" transform="matrix(1.3333333 0 0 -1.3333333 984.98053 455.29733)"/><path clip-path="url(#ar)" d="m0 0s.664-.765 1.976.802c-.595-.187-1.644.372-1.644.372s0-1.081-.332-1.174" fill="#e80000" stroke="#006b00" stroke-linejoin="round" transform="matrix(1.3333333 0 0 -1.3333333 986.05333 460.41707)"/><path clip-path="url(#as)" d="m0 0c-.594-.709.247-1.697 1.646-1.474.35 1.678-1.295 1.995-1.646 1.474" fill="#ffc900" stroke="#006b00" stroke-linejoin="round" transform="matrix(1.3333333 0 0 -1.3333333 982.82813 452.95747)"/><path d="m742.349 339.377c-1.138-.796-6.143-3.753-4.664-5.801s5.574 1.593 8.531-.797c2.957-2.389 2.957-.226 2.957-.226s4.323-1.593 5.575-1.252-.909-.114.797.91c1.706 1.023-3.413-.228-3.869 1.933-.796 1.366.114 3.072-1.705 2.503-1.251 1.594.795 2.729.34 4.437-1.251-.91-1.933.342-2.957-1.934-2.388.455-.341 3.754-2.958 4.096 0-2.389-1.934-2.503-2.047-3.869" fill="url(#at)" transform="matrix(1.3333333 0 0 -1.3333333 0 888.88933)"/><path clip-path="url(#au)" d="m0 0c3.616.873 23.213-4.326 30.768-12.427-1.604 14.426-5.601 25.479-5.601 25.479s-11.678 3.33-13.28 1.727c-2.352-2.476-9.413-9.895-11.887-14.779" fill="#c01500" stroke="#000" transform="matrix(1.3333333 0 0 -1.3333333 898.03253 685.938)"/><path clip-path="url(#av)" d="m0 0c-1.374-.229-2.748-1.146-4.121-3.435-1.604-3.892-2.748-13.739-5.038-16.029-2.29-2.289-4.351-2.518-4.351-4.579s.229-6.869 6.411-8.701c6.183-.23 16.03 9.846 16.03 9.846s5.037 5.496 7.098 11.449c-11.907-4.122-20.38 6.87-16.029 11.449" fill="#c01500" stroke="#000" transform="matrix(1.3333333 0 0 -1.3333333 890.0664 597.09293)"/><path clip-path="url(#aw)" d="m0 0c-3.589.868-23.411-4.301-30.907-12.354 1.591 14.341 5.556 25.33 5.556 25.33 1.384.377 11.462 3.311 13.054 1.717 2.332-2.462 9.843-9.838 12.297-14.693" fill="#c01500" stroke="#000" stroke-width=".993" transform="matrix(1.3333333 0 0 -1.3333333 1119.6809 682.87547)"/><path clip-path="url(#ax)" d="m0 0c1.363-.228 1.845-2.019 2.958-4.295 1.59-3.869 3.229-9.507 5.502-11.783 2.271-2.277 4.317-5.65 4.317-7.698s-.479-4.817-6.614-6.637c-6.135-.229-15.024 7.649-15.024 7.649s-4.999 5.464-7.045 11.382c11.816-4.097 19.469 6.453 15.906 11.382" fill="#c01500" stroke="#000" stroke-width=".993" transform="matrix(1.3333333 0 0 -1.3333333 1127.0833 594.54987)"/><path clip-path="url(#ay)" d="m0 0s12.365-8.473 12.594-12.365c33.203 49.231 117.927 64.574 166.242 3.434 6.412 8.473 13.053 11.221 13.053 11.221-50.835 66.405-152.046 58.162-191.889-2.29" fill="#fb0" stroke="#000" transform="matrix(1.3333333 0 0 -1.3333333 880.9076 669.14627)"/><path clip-path="url(#az)" d="m0 0 4.84.114-8.643-10.946 10.371-12.101-20.397-25.697 19.245-23.163c-2.112-5.186-4.571-9.911-7.836-14.174l-11.062 12.215 20.05 25.007-16.478 18.668z" fill="#1e5aa6" stroke="#000" transform="matrix(1.3333333 0 0 -1.3333333 1048.8645 417.98747)"/><path clip-path="url(#aA)" d="m0 0-5.186-.116 9.68-10.486-10.257-12.792 21.32-23.162-17.632-23.624c2.113-5.185 5.147-10.947 8.412-15.21l10.487 13.252-21.549 23.969 15.788 20.051z" fill="#1e5aa6" stroke="#000" transform="matrix(1.3333333 0 0 -1.3333333 956.67573 420.90667)"/><path clip-path="url(#aB)" d="m0 0-7.605-10.141 27.195-31.459c4.802 2.42 8.567 5.185 12.677 8.527l-14.174 16.364 5.761 16.939 8.297-9.564-25.927-33.073c-4.341 1.844-9.143 4.724-13.484 8.297l13.713 17.401z" fill="#1e5aa6" stroke="#000" transform="matrix(1.3333333 0 0 -1.3333333 988.63413 503.878)"/><path clip-path="url(#aC)" d="m0 0 4.956-6.224-3.227 8.412z" fill="#1e5aa6" stroke="#000" transform="matrix(1.3333333 0 0 -1.3333333 977.41667 482.82733)"/><path clip-path="url(#aD)" d="m0 0c.108.115 3.999 5.302 3.999 5.302l-1.514 2.073z" fill="#1e5aa6" stroke="#000" stroke-width=".968" transform="matrix(1.3333333 0 0 -1.3333333 1024.7396 490.16453)"/><g clip-path="url(#aG)"><g clip-path="url(#aF)"><text clip-path="url(#aE)" transform="matrix(.86493518 -1.0147241 1.0147241 .86493518 897.16853 674.72787)"><tspan font-family="Arial" font-size="11.0894" font-weight="700" x="0" y="0">L</tspan></text></g></g><g clip-path="url(#aJ)"><g clip-path="url(#aI)"><text clip-path="url(#aH)" transform="matrix(.93634242 -.94923161 .94923161 .93634242 902.9448 667.33693)"><tspan font-family="Arial" font-size="11.0894" font-weight="700" x="0" y="0">E</tspan></text></g></g><g clip-path="url(#aM)"><g clip-path="url(#aL)"><text clip-path="url(#aK)" transform="matrix(1.0851262 -.77477674 .80756528 1.0729138 908.47187 660.24747)"><tspan font-family="Arial" font-size="10.3939" font-weight="700" x="0" y="0">O</tspan></text></g></g><g clip-path="url(#aP)"><g clip-path="url(#aO)"><text clip-path="url(#aN)" transform="matrix(1.1045974 -.74675451 .74675451 1.1045854 920.2092 650.23827)"><tspan font-family="Arial" font-size="11.0894" font-weight="700" x="0" y="0">T</tspan></text></g></g><g clip-path="url(#aS)"><g clip-path="url(#aR)"><text clip-path="url(#aQ)" transform="matrix(1.2029602 -.57503446 .57503446 1.2029602 926.4928 645.30533)"><tspan font-family="Arial" font-size="11.0894" font-weight="700" x="0" y="0">E</tspan></text></g></g><g clip-path="url(#aV)"><g clip-path="url(#aU)"><text clip-path="url(#aT)" transform="matrix(1.2181823 -.54204223 .54204223 1.2181823 934.54507 640.096)"><tspan font-family="Arial" font-size="11.0894" font-weight="700" x="0" y="0">R</tspan></text></g></g><g clip-path="url(#aY)"><g clip-path="url(#aX)"><text clip-path="url(#aW)" transform="matrix(1.2370239 -.49754369 .49754369 1.2370239 943.15627 635.29133)"><tspan font-family="Arial" font-size="11.0894" font-weight="700" x="0" y="0">R</tspan></text></g></g><g clip-path="url(#a1)"><g clip-path="url(#a0)"><text clip-path="url(#aZ)" transform="matrix(1.3287299 -.11070044 .11070044 1.3287299 987.81067 621.76973)"><tspan font-family="Arial" font-size="11.0894" font-weight="700" x="0" y="0">R</tspan></text></g></g><g clip-path="url(#a4)"><g clip-path="url(#a3)"><text clip-path="url(#a2)" transform="matrix(1.3331843 .01993488 -.01993488 1.3331843 1014.3548 620.30293)"><tspan font-family="Arial" font-size="11.0894" font-weight="700" x="0" y="0">R</tspan></text></g></g><g clip-path="url(#a7)"><g clip-path="url(#a6)"><text clip-path="url(#a5)" transform="matrix(1.1588093 .65949893 -.65949893 1.1588093 1067.7701 631.81973)"><tspan font-family="Arial" font-size="11.0894" font-weight="700" x="0" y="0">R</tspan></text></g></g><g clip-path="url(#ba)"><g clip-path="url(#a9)"><text clip-path="url(#a8)" transform="matrix(1.0243581 .85350351 -.85350351 1.0243581 1092.9403 646.30533)"><tspan font-family="Arial" font-size="11.0894" font-weight="700" x="0" y="0">E</tspan></text></g></g><g clip-path="url(#bd)"><g clip-path="url(#bc)"><text clip-path="url(#bb)" transform="matrix(1.3103849 .24631111 -.21121316 1.2944424 1077.4901 637.87333)"><tspan font-family="Arial" font-size="10.8724" font-weight="700" x="0" y="0">O</tspan></text></g></g><g clip-path="url(#bg)"><g clip-path="url(#bf)"><text clip-path="url(#be)" transform="matrix(1.3193627 -.19250957 .19965958 1.4263359 997.102 620.85733)"><tspan font-family="Arial" font-size="10.1072" font-weight="700" x="0" y="0">O</tspan></text></g></g><g clip-path="url(#bj)"><g clip-path="url(#bi)"><text clip-path="url(#bh)" transform="matrix(1.250582 -.46240945 .46240945 1.250582 952.51947 630.818)"><tspan font-family="Arial" font-size="11.0894" font-weight="700" x="0" y="0">A</tspan></text></g></g><g clip-path="url(#bm)"><g clip-path="url(#bl)"><text clip-path="url(#bk)" transform="matrix(.93957521 .94603182 -.94603182 .93957521 1108.1641 658.6704)"><tspan font-family="Arial" font-size="11.0894" font-weight="700" x="0" y="0">A</tspan></text></g></g><g clip-path="url(#bp)"><g clip-path="url(#bo)"><text clip-path="url(#bn)" transform="matrix(1.3072291 .26254477 -.26254477 1.3072291 1030.8891 620.99467)"><tspan font-family="Arial" font-size="11.0894" font-weight="700" x="0" y="0">A</tspan></text></g></g><g clip-path="url(#bs)"><g clip-path="url(#br)"><text clip-path="url(#bq)" transform="matrix(1.3103891 -.24628862 .24628862 1.3103891 961.48613 627.11293)"><tspan font-family="Arial" font-size="11.0894" font-weight="700" x="0" y="0">M</tspan></text></g></g><g clip-path="url(#bv)"><g clip-path="url(#bu)"><text clip-path="url(#bt)" transform="matrix(1.3261746 -.13798112 .13798112 1.3261746 979.00213 622.90293)"><tspan font-family="Arial" font-size="11.0894" font-weight="700" x="0" y="0">P</tspan></text></g></g><g clip-path="url(#by)"><g clip-path="url(#bx)"><text clip-path="url(#bw)" transform="matrix(1.3328991 -.03402645 .03402645 1.3328991 1006.3741 620.37413)"><tspan font-family="Arial" font-size="11.0894" font-weight="700" x="0" y="0">P</tspan></text></g></g><g clip-path="url(#bB)"><g clip-path="url(#bA)"><text clip-path="url(#bz)" transform="matrix(1.1604859 .65654419 -.65654419 1.1604859 1059.3636 627.53973)"><tspan font-family="Arial" font-size="11.0894" font-weight="700" x="0" y="0">P</tspan></text></g></g><g clip-path="url(#bE)"><g clip-path="url(#bD)"><text clip-path="url(#bC)" transform="matrix(1.324537 .15290334 -.15290334 1.324537 1024.7079 620.5852)"><tspan font-family="Arial" font-size="11.0894" font-weight="700" x="0" y="0">I</tspan></text></g></g><g clip-path="url(#bH)"><g clip-path="url(#bG)"><text clip-path="url(#bF)" transform="matrix(.91634467 .96855058 -.96855058 .91634467 1114.478 665.31773)"><tspan font-family="Arial" font-size="11.0894" font-weight="700" x="0" y="0">T</tspan></text></g></g><g clip-path="url(#bK)"><g clip-path="url(#bJ)"><text clip-path="url(#bI)" transform="matrix(1.0674193 .79899545 -.79899545 1.0674193 1084.9863 641.0496)"><tspan font-family="Arial" font-size="11.0894" font-weight="700" x="0" y="0">T</tspan></text></g></g><g clip-path="url(#bN)"><g clip-path="url(#bM)"><text clip-path="url(#bL)" transform="matrix(1.2790044 .37673013 -.37673013 1.2789924 1040.658 622.85333)"><tspan font-family="Arial" font-size="11.0895" font-weight="700" x="0" y="0">M</tspan></text></g></g><g clip-path="url(#bQ)"><g clip-path="url(#bP)"><text clip-path="url(#bO)" transform="matrix(.89803352 .98555242 -.98555242 .89803352 1100.0361 651.2272)"><tspan font-family="Arial" font-size="11.0894" font-weight="700" x="0" y="0">G</tspan></text></g></g><path clip-path="url(#bR)" d="m0 0s4.778 4.097 8.191 4.21" fill="none" stroke="#fff700" stroke-linecap="round" transform="matrix(1.3333333 0 0 -1.3333333 1101.1472 374.7544)"/><path clip-path="url(#bS)" d="m0 0c.113.113 28.556 4.095 29.466 5.005" fill="none" stroke="#fff700" stroke-linecap="round" transform="matrix(1.3333333 0 0 -1.3333333 1102.0573 373.994)"/><path clip-path="url(#bT)" d="m0 0c.114.114 31.855 2.73 31.855 2.73" fill="none" stroke="#fff700" stroke-linecap="round" transform="matrix(1.3333333 0 0 -1.3333333 1102.2083 374.29867)"/><path clip-path="url(#bU)" d="m0 0s33.789 1.593 35.837-.114" fill="none" stroke="#fff700" stroke-linecap="round" transform="matrix(1.3333333 0 0 -1.3333333 1102.0573 374.44973)"/><path clip-path="url(#bV)" d="m0 0s33.107-.228 33.676-1.023" fill="none" stroke="#fff700" stroke-linecap="round" transform="matrix(1.3333333 0 0 -1.3333333 1101.9049 374.29867)"/><path clip-path="url(#bW)" d="m0 0 31.854-2.616" fill="none" stroke="#fff700" stroke-linecap="round" transform="matrix(1.3333333 0 0 -1.3333333 1102.0573 374.29867)"/><path clip-path="url(#bX)" d="m0 0c.113 0 32.424-2.845 35.608-6.939" fill="none" stroke="#fff700" stroke-linecap="round" transform="matrix(1.3333333 0 0 -1.3333333 1101.6028 374.602)"/><path clip-path="url(#bY)" d="m0 0c-.113.113-11.034 13.083-37.429 12.855" fill="none" stroke="#fff700" stroke-linecap="round" transform="matrix(1.3333333 0 0 -1.3333333 1151.3555 391.59027)"/><path clip-path="url(#bZ)" d="m0 0s18.316-1.25 24.118-7.622" fill="none" stroke="#fff700" stroke-linecap="round" transform="matrix(1.3333333 0 0 -1.3333333 1101.6028 374.7544)"/><path clip-path="url(#b0)" d="m0 0s11.832 2.274 24.232-12.629" fill="none" stroke="#fff700" stroke-linecap="round" transform="matrix(1.3333333 0 0 -1.3333333 1102.0573 374.44973)"/><path d="m813.462 354.916c-.805-3.219.483-24.456.804-25.743s-.161-26.707-.804-31.053c-.645-4.343 1.287-24.454 2.896-28.959s8.687-14.642 8.687-14.642l5.507-2.851-.68 3.173s5.31-4.665 12.55-.804c4.023 2.091 2.412 17.698 2.412 17.698s5.149-3.862 5.954 8.849-12.067 16.572-12.227 15.767c-.162-.804 1.608-3.539 1.608-6.917 0-3.38-2.413-7.08-1.931-9.332.483-2.254 3.701-10.458-.964-12.711-4.667-2.253-9.01 4.988-11.907 7.239-3.701 4.826-5.792 28.8-6.274 35.879-.484 7.079 3.377 19.147 4.988 20.272 1.609 2.254 9.652 3.54 9.008 12.069-.643 8.525-10.135 9.008-9.974 15.766.16 6.758 12.389 9.814 12.389 11.423s-16.411 2.252-16.411 2.252c.161 0-4.827-14.158-5.631-17.375" fill="url(#b2)" transform="matrix(1.3333333 0 0 -1.3333333 0 888.88933)"/><path clip-path="url(#b3)" d="m0 0s16.411-.644 16.411-2.252c0-1.609-12.228-4.666-12.389-11.424s9.332-7.24 9.975-15.766c.644-8.529-7.4-9.815-9.01-12.068-1.609-1.126-5.47-13.193-4.987-20.272.482-7.079 2.573-31.053 6.274-35.879 2.897-2.252 7.241-9.492 11.907-7.239 4.666 2.252 1.447 10.457.965 12.71-.483 2.252 1.93 5.953 1.93 9.332s-1.769 6.114-1.608 6.918c.16.804 13.032-3.057 12.227-15.768-.804-12.71-5.953-8.849-5.953-8.849s1.61-15.606-2.413-17.698c-7.24-3.861-12.55.805-12.55.805l.681-3.174-5.508 2.852s-7.078 10.136-8.687 14.641-3.54 24.616-2.896 28.96c.643 4.345 1.125 29.766.804 31.053s-1.609 22.523-.804 25.742c.804 3.218 5.792 17.376 5.631 17.376z" fill="none" stroke="#000" transform="matrix(1.3333333 0 0 -1.3333333 1092.1237 392.5004)"/><path clip-path="url(#b4)" d="m0 0s11.423 11.101 18.02 9.813c3.378 0 .161-2.413.161-2.413s5.792-.482 6.596-3.056c.16-1.126-2.735-1.448-2.735-1.448s2.414-.483 2.574-2.575c.161-2.092-24.455-.482-24.616-.321" fill="#ff7000" stroke="#000" transform="matrix(1.3333333 0 0 -1.3333333 1068.526 386.92227)"/><path clip-path="url(#b5)" d="m0 0s12.228 1.608 17.376 6.757" fill="none" stroke="#000" transform="matrix(1.3333333 0 0 -1.3333333 1069.3841 386.27907)"/><path clip-path="url(#b6)" d="m0 0s9.01.321 9.01-.966" fill="none" stroke="#000" transform="matrix(1.3333333 0 0 -1.3333333 1085.9024 381.77387)"/><path clip-path="url(#b7)" d="m0 0s7.723 1.771 9.813 4.505c1.289.966 8.046-10.136-9.813-4.505" fill="#fff" stroke="#000" stroke-linejoin="round" stroke-width="1.25" transform="matrix(1.3333333 0 0 -1.3333333 1128.5924 557.25307)"/><path clip-path="url(#b8)" d="m0 0s.966-5.953-1.771-9.976c-1.447-1.608-5.791-4.343-5.791-6.274s1.609-4.505 1.288-6.758c-.323-2.253-2.736-4.505-2.575-6.435 0-1.931 2.735-12.228 2.413-12.389" fill="none" stroke="#fff" stroke-linecap="round" stroke-width="1.25" transform="matrix(1.3333333 0 0 -1.3333333 1125.8033 472.08773)"/><path clip-path="url(#b9)" d="m0 0s-6.114-2.093-7.401-8.207" fill="none" stroke="#fff" stroke-linecap="round" stroke-width="1.25" transform="matrix(1.3333333 0 0 -1.3333333 1106.9257 446.34427)"/><path clip-path="url(#ca)" d="m0 0s2.092-5.793 8.849-.322c-4.344 5.952-8.849.161-8.849.322" fill="#c75b00" stroke="#000" transform="matrix(1.3333333 0 0 -1.3333333 1103.4935 381.77387)"/><path clip-path="url(#cb)" d="m0 0c0-.312-.324-.563-.724-.563s-.724.251-.724.563c0 .311.324.562.724.562s.724-.251.724-.562" transform="matrix(1.3333333 0 0 -1.3333333 1110.1432 381.45227)"/><path clip-path="url(#cc)" d="m0 0s12.813-13.869 21.104-13.719c1.508-4.07-3.764-7.856-5.875-9.665-4.22 1.357-8.035-.248-17.833 11.813.603 7.687 2.754 11.269 2.604 11.571" fill="#fff" stroke="#000" transform="matrix(1.3333333 0 0 -1.3333333 1029.8243 363.852)"/><path clip-path="url(#cd)" d="m0 0c1.658 5.125 4.975 9.196 7.839 9.648-.754 3.919 6.029 21.255 25.777 27.888 1.206-8.894-8.441-17.638-8.441-17.638s29.094 4.975 34.973 12.362c-.603-3.317-6.482-23.969-37.536-23.818 11.758-11.155-3.768-20.049-10.402-17.337 12.211 9.347-3.467 14.925-12.21 8.895" fill="#fff" stroke="#000" transform="matrix(1.3333333 0 0 -1.3333333 1052.9388 320.83893)"/><path clip-path="url(#ce)" d="m0 0c5.879 3.769 7.989 3.769 12.813 3.015-3.466-.452-3.466-.603-3.466-.603s-.302-.453 1.808-2.412c-2.412.603-4.522 1.959-11.155 0" fill="#cccccd" stroke="#ccc" transform="matrix(1.3333333 0 0 -1.3333333 1066.2044 311.1912)"/><path clip-path="url(#cf)" d="m0 0s11.608 6.181 18.09 10.401" fill="none" stroke="#000" transform="matrix(1.3333333 0 0 -1.3333333 1063.1888 307.97507)"/><path clip-path="url(#cg)" d="m0 0s15.979-4.372 17.788 18.542c-3.467 9.949-8.291 31.355-.904 37.536-6.783 4.673-14.17-.151-14.17-.151-.452-1.055-6.483-9.648 1.658-24.722-19.296 5.125-11.457-13.115-11.457-13.115.754 2.864 11.005 5.577 13.567-9.045 1.056-3.618-6.934-9.195-6.482-9.045" fill="#00f" stroke="#000" transform="matrix(1.3333333 0 0 -1.3333333 1049.9232 395.00693)"/><path clip-path="url(#ch)" d="m0 0s16.884 9.045 16.432 30.301c-14.322-.301-19.447-18.844-19.447-18.844z" fill="#00f" stroke="#000" transform="matrix(1.3333333 0 0 -1.3333333 1073.8424 370.48613)"/><path clip-path="url(#ci)" d="m0 0s-12.512-10.854-19.598-7.387c-5.275-3.165-11.456 2.412-11.456 2.412s7.236-26.682 33.164-7.386c-.452 5.879-1.808 11.909-2.11 12.361" fill="#fff" stroke="#000" transform="matrix(1.3333333 0 0 -1.3333333 972.94147 369.07853)"/><path clip-path="url(#cj)" d="m0 0c1.056 5.578 5.427 8.291 8.895 3.016 4.672-.906 9.345 18.24-7.237 15.074 4.673 25.024-9.346 34.37-9.346 34.37s-4.975-27.737-2.713-32.862c2.26-5.126-3.317 9.497-21.256 13.567-.302-20.954 20.05-30.753 20.05-30.753s5.728-5.276 11.607-2.412" fill="#00f" transform="matrix(1.3333333 0 0 -1.3333333 946.61067 378.32467)"/><path clip-path="url(#ck)" d="m0 0c1.056 5.578 5.427 8.291 8.895 3.016 4.672-.906 9.345 18.24-7.237 15.074 4.673 25.024-9.346 34.37-9.346 34.37s-4.975-27.737-2.713-32.862c2.26-5.126-3.317 9.497-21.256 13.567-.302-20.954 20.05-30.753 20.05-30.753s5.728-5.276 11.607-2.412z" fill="none" stroke="#000" transform="matrix(1.3333333 0 0 -1.3333333 946.61067 378.32467)"/><path clip-path="url(#cl)" d="m0 0s-7.839-6.633-6.03-15.678" fill="none" stroke="#000" transform="matrix(1.3333333 0 0 -1.3333333 948.8216 354.0044)"/><path clip-path="url(#cm)" d="m0 0s-1.809-6.482 2.11-15.678" fill="none" stroke="#000" transform="matrix(1.3333333 0 0 -1.3333333 932.94267 352.79733)"/><path clip-path="url(#cn)" d="m0 0s3.618 5.879 11.457-1.659" fill="none" stroke="#000" transform="matrix(1.3333333 0 0 -1.3333333 931.33467 376.5148)"/><path clip-path="url(#co)" d="m0 0c0 .15-11.909 0-4.824-12.06-5.277-1.658-17.034 6.03-8.894 16.281-26.682.603-37.537 13.416-37.537 25.175 7.839-8.141 26.532-4.824 33.165-9.799-8.14 7.537-6.482 17.939-6.482 17.939s22.762-6.784 26.833-26.984c-1.357-3.919-1.959-10.854-2.261-10.552" fill="#fff" stroke="#000" transform="matrix(1.3333333 0 0 -1.3333333 933.34507 322.24587)"/><path clip-path="url(#cp)" d="m0 0c4.393-4.47 15.681-5.805 21.408-10.78" fill="none" stroke="#000" transform="matrix(1.3333333 0 0 -1.3333333 908.9284 295.41453)"/><path clip-path="url(#cq)" d="m0 0s9.345 1.206 12.053-2.11c-3.657 0-4.875.904-10.157-1.056 1.49.754 1.083 2.111 1.896 2.111.812 0-3.386 1.055-3.792 1.055" fill="#cccccd" stroke="#ccc" stroke-width=".948" transform="matrix(1.3333333 0 0 -1.3333333 915.85813 313.0004)"/><g stroke="#000"><path clip-path="url(#cr)" d="m0 0s5.126 4.522 10.703.452c-2.519-7.53-11.607-4.673-11.607-4.673s.301-3.769-.603-5.577c1.819-1.368 3.317-5.88 3.317-5.88s9.345 2.261 11.305-1.809c3.579.494 6.181 0 6.181 0s7.236 1.809 9.799 1.809c2.562 0 10.703-2.11 11.457-3.618.753-1.507 3.467-11.607 5.275-11.456 1.81.15-4.371-2.413-6.029.15s-1.206-3.316-1.206-3.316 5.125-5.427 5.728-6.633-3.166-11.005-.301-17.788c-2.51-.232-2.714-2.865-2.714-2.865-.138-2.986-3.919-3.768-3.919-3.768l-.905 4.07-2.562-1.508 1.055 3.166s3.466 8.442 3.768 11.156c.302 2.713-3.165 7.537-5.879 7.537s-4.673-8.593-4.673-8.593-1.357-6.482-.905-7.085c.453-.603-1.808 2.11-1.808 2.11s-1.206-3.919-2.111-5.125c-.904-1.206-2.864-1.658-2.864-1.658s-1.356 3.92-.904 5.427 7.386 7.387 6.783 11.607c-.603 4.222 0 3.166-.151 3.317s-3.618 3.166-3.768 4.824c-.151 1.658-4.523-2.111-10.251-.905-1.754-3.063-1.96-10.703-1.96-10.703s-.603-9.195.603-10.25c1.206-1.056-3.015-3.317-3.015-3.317l-3.015-4.07s-1.055 2.562-1.055 2.412c0-.151-2.111-1.508-2.111-1.508l1.206 3.015c-.073 2.282 2.931 8.516 2.931 13.792s.386 10.931.386 10.931-5.577.301-5.427-5.427-1.357-6.03-1.056-7.688c.302-1.659 1.81-6.332 1.358-7.688-.452-1.357-2.262-1.809-2.262-1.809l-.452-.754s-5.577-2.563-5.427-3.618-.15 3.015-.15 3.015l-.302 4.372s3.316 2.11 3.316 7.386-.764 6.026-.613 7.232c.15 1.206.915 5.582.764 6.034s-3.165-1.206-4.071-1.206c-.904 0 1.659 3.166 1.96 5.427.302 2.261-3.014-2.111-5.728.452 1.262 2.784 3.166 3.618 3.468 5.728.3 2.111-2.111-1.808-4.222-.301.172 2.023 2.262 3.769 2.262 3.769s-1.718.21-2.412 0c-1.357.452 1.507 2.563 1.658 5.577.15 3.016-1.658 4.222-1.658 4.372 0 .151-3.015 2.714-3.467 3.769s-.452 2.261-.452 2.261-4.976-3.618-10.855 4.071c5.384 4.596 11.155 1.205 11.155 1.205s1.508 4.221 8.443 3.92c6.934-.302 8.291-4.221 7.989-3.769" fill="#923f00" transform="matrix(1.3333333 0 0 -1.3333333 977.96613 215.5168)"/><path clip-path="url(#cs)" d="m0 0c.126 0 12.806-.376 12.932-7.156.125-6.78-3.893-5.022-4.018-5.022-.126 0-9.291 1.13-9.291 1.13z" fill="#00f" transform="matrix(1.3333333 0 0 -1.3333333 1028.5287 319.48747)"/><path clip-path="url(#ct)" d="m0 0s15.819.125 14.94-6.78c-.878-6.904-4.896-5.524-4.896-5.524l-7.658.628z" fill="#fffeff" transform="matrix(1.3333333 0 0 -1.3333333 1012.1237 316.9764)"/><path clip-path="url(#cu)" d="m0 0 9.164-.753s5.524-.753 5.274-6.026c-.251-5.273-5.65-5.399-5.65-5.399l-8.914.503z" fill="#00f" transform="matrix(1.3333333 0 0 -1.3333333 1000.2396 315.9724)"/><path clip-path="url(#cv)" d="m0 0c-.125 0-12.806-.376-12.931-7.156-.126-6.78 3.892-5.022 4.018-5.022.125 0 9.29 1.13 9.29 1.13z" fill="#fff" transform="matrix(1.3333333 0 0 -1.3333333 971.61853 319.48747)"/><path clip-path="url(#cw)" d="m0 0s-15.819.125-14.94-6.78c.878-6.904 4.896-5.524 4.896-5.524l7.658.628z" fill="#00f" transform="matrix(1.3333333 0 0 -1.3333333 988.02347 316.9764)"/><path clip-path="url(#cx)" d="m0 0-9.165-.753s-5.524-.753-5.273-6.026c.25-5.273 5.649-5.399 5.649-5.399l8.914.503z" fill="#fff" transform="matrix(1.3333333 0 0 -1.3333333 999.9088 315.9724)"/><path clip-path="url(#cy)" d="m0 0s6.59 9.713 9.365 8.672c2.428-.81.578-8.325-.578-9.019z" fill="#5e0043" transform="matrix(1.3333333 0 0 -1.3333333 1032.6341 417.602)"/><path clip-path="url(#cz)" d="m0 0c-2.081 2.891-5.087 10.869-7.861 8.672-2.429-.81-.578-8.325.578-9.019z" fill="#5e0043" transform="matrix(1.3333333 0 0 -1.3333333 972.4024 419.91453)"/><path clip-path="url(#cA)" d="m0 0s12.842-7.91 17.054-8.116c4.212-.205 17.567 10.273 17.567 10.273" fill="none" transform="matrix(1.3333333 0 0 -1.3333333 978.22267 394.30773)"/><path clip-path="url(#cB)" d="m0 0 2.466 3.082 12.328-6.267 12.533 5.547 2.466-2.568-13.972-9.862z" fill="#5e0043" transform="matrix(1.3333333 0 0 -1.3333333 979.86587 352.94053)"/></g><path clip-path="url(#cC)" d="m0 0c1.002-1.265 8.97-10.953 10.408-18.966s-.822 10.992-.822 10.992 9.862-4.829 10.17-7.911c.308-3.081 4.716.209 4.927.736l-28.554 18.546z" fill="#474747" stroke="#474747" stroke-linejoin="round" stroke-width="1.25" transform="matrix(1.3333333 0 0 -1.3333333 966.8112 352.7192)"/><path clip-path="url(#cD)" d="m0 0s-10.376-13.663-9.143-28.56c-2.14 7.133-.411 18.904-.411 18.904l-2.259-1.439s-2.364-10.068-5.343-11.609c-.502 1.2-.411 1.644-.411 1.644s-3.185-4.109-3.801-4.52.206-13.869.206-13.869 1.069-9.754 2.302-9.652c-1.403-.687-3.124-1.753-3.124-1.753l-1.279 26.045 2.922 2.927s3.904 4.726 4.212 9.349c-1.694-1.438-3.596-1.85-3.596-1.85s-.513-6.574-2.054-7.499-1.583-2.639-1.583-2.639l-.367 8.592z" fill="#474747" stroke="#474747" stroke-linejoin="round" stroke-width="1.25" transform="matrix(1.3333333 0 0 -1.3333333 1031.78 351.98227)"/><path clip-path="url(#cE)" d="m0 0 2.004-41.088" fill="none" stroke="#000" stroke-linecap="round" stroke-width="1.25" transform="matrix(1.3333333 0 0 -1.3333333 1000.1393 373.076)"/><path clip-path="url(#cF)" d="m0 0s4.726-2.773 6.472-11.198c15.41 1.131 20.238-4.315 20.238-4.315s12.637 6.062 18.492 4.932c2.055 4.314 7.91 9.862 7.91 9.862" fill="none" stroke="#000" transform="matrix(1.3333333 0 0 -1.3333333 966.44267 399.2388)"/><path clip-path="url(#cG)" d="m0 0 31.721-20.752 28.559 19.211s5.958 3.288 5.445 5.65c-.514 2.364-2.569 1.439-3.596 1.028s-29.895-20.855-29.895-20.855l-30.717 19.416s-2.26.72-2.671-.719c-.41-1.438.846-2.259 1.154-2.979" fill="#b4b6b9" stroke="#000" transform="matrix(1.3333333 0 0 -1.3333333 957.84507 345.54467)"/><path clip-path="url(#cH)" d="m0 0s-8.116 3.446-8.116.46.229-3.293 1.531-5.207-.995-3.139-.995-3.139-.307.842-.766 2.144-4.823 2.221-5.206 3.752.918 3.981-1.684 4.287c-2.604.307-5.13-1.071-5.666-4.058-.536-2.986-3.906-9.953-3.906-9.953l.46 15.849c5.717-.408 16.334-1.659 24.501-2.604-2.45.383.918-.152.842-.995-.229-.689-1.072-.765-.995-.536" fill="#474747" stroke="#474747" stroke-linejoin="round" stroke-width="1.25" transform="matrix(1.3333333 0 0 -1.3333333 1033.4765 338.35467)"/><path clip-path="url(#cI)" d="m0 0c-1.455 0-8.729-.842-10.565-1.915-1.838-1.071 2.985-2.755 2.373-4.21-.613-1.456-.69-4.365-2.987-3.752s-10.029 4.441-10.258 5.742c-.231 1.302-1.838 1.379-1.838 1.379s22.203 2.985 23.275 2.756" fill="#474747" transform="matrix(1.3333333 0 0 -1.3333333 995.194 333.04533)"/><path clip-path="url(#cJ)" d="m0 0c-1.455 0-8.729-.842-10.565-1.915-1.838-1.071 2.985-2.755 2.373-4.21-.613-1.456-.69-4.365-2.987-3.752s-10.029 4.441-10.258 5.742c-.231 1.302-1.838 1.379-1.838 1.379s22.203 2.985 23.275 2.756z" fill="none" stroke="#474747" stroke-linejoin="round" stroke-width="1.25" transform="matrix(1.3333333 0 0 -1.3333333 995.194 333.04533)"/><path clip-path="url(#cK)" d="m0 0-.056-19.472" fill="none" stroke="#000" transform="matrix(1.3333333 0 0 -1.3333333 999.86453 330.61373)"/><path clip-path="url(#cL)" d="m0 0s-8.896-14.445-9.072-14.886" fill="none" stroke="#000" transform="matrix(1.3333333 0 0 -1.3333333 979.86973 300.02787)"/><path d="m754.75 435.384c.148 1.687-3.465 6.614-3.465 6.614zm-.031-.168c.073-.057.146-.121.219-.192l-.188.36c-.005-.061-.016-.117-.031-.168m3.348-6.165s-1.603 4.49-3.129 5.973z" fill="url(#cM)" transform="matrix(1.3333333 0 0 -1.3333333 0 888.88933)"/><path clip-path="url(#cN)" d="m0 0s3.875-5.285 3.435-6.782c1.586-1.233 3.347-6.166 3.347-6.166" fill="none" stroke="#000" transform="matrix(1.3333333 0 0 -1.3333333 1001.7136 299.5584)"/><path clip-path="url(#cO)" d="m0 0s-8.368-11.803-8.104-12.684" fill="none" stroke="#000" transform="matrix(1.3333333 0 0 -1.3333333 1021.6784 298.38387)"/><path clip-path="url(#cP)" d="m0 0c-.189-.66-1.256-.916-2.382-.571s-1.885 1.159-1.695 1.82c.189.659 1.256.915 2.382.57 1.126-.344 1.884-1.159 1.695-1.819" transform="matrix(1.3333333 0 0 -1.3333333 964.52867 223.55907)"/><path clip-path="url(#cQ)" d="m0 0c.189-.66 1.256-.916 2.382-.571 1.125.345 1.885 1.159 1.695 1.82-.189.659-1.256.915-2.382.57s-1.884-1.159-1.695-1.819" transform="matrix(1.3333333 0 0 -1.3333333 969.04813 223.24787)"/><path clip-path="url(#cR)" d="m0 0s-3.103-.581-3.006-.872c.098-.291-9.017-.582-9.211-.291s-1.357-1.552-1.357-1.552l1.454.873s2.23-2.327 2.909-2.133-.291-.873-.097-1.067c.194-.193.872.388.872.388l15.069.253z" fill="#ff7000" stroke="#000" stroke-linejoin="round" transform="matrix(1.3333333 0 0 -1.3333333 1099.612 549.21787)"/><path clip-path="url(#cS)" d="m0 0-12.307-.356s-3.102-2.812-3.296-3.491c-.194-.678 2.037-.873 2.037-.873l.678-2.326 1.551.581s10.465-1.556 20.071.582c4.848 1.696 5.697 3.734 2.303 4.969-3.393 1.236-10.939.866-11.037.914" fill="#ff7000" stroke="#000" stroke-linejoin="round" stroke-width="1.25" transform="matrix(1.3333333 0 0 -1.3333333 1107.1003 555.46533)"/><path d="m796.967 233.787 8.073-3.768-18.119-.538.538-1.884-4.754.18s5.292-2.063 5.472-2.961l22.155.988-4.126 3.497 59.92 2.422-2.062 4.754z" fill="url(#cT)" transform="matrix(1.3333333 0 0 -1.3333333 0 888.88933)"/><path clip-path="url(#cU)" d="m0 0 22.155.987-4.126 3.498 59.92 2.422-2.062 4.754-67.097-2.69 8.073-3.768-18.119-.538.538-1.884-4.754.18s5.292-2.064 5.472-2.961z" fill="none" stroke="#000" transform="matrix(1.3333333 0 0 -1.3333333 1050.9024 589.13453)"/><path d="m794.888 343.501.352-19.885s12.671 6.863 18.831 5.279c-.353 6.16-.353 14.08-1.056 18.302-.677.339-2.24.703-4.396.703-3.451.001-8.424-.933-13.731-4.399" fill="url(#cV)" transform="matrix(1.3333333 0 0 -1.3333333 0 888.88933)"/><g fill="none" stroke="#000"><path clip-path="url(#cW)" d="m0 0c-1.761.88-9.504 1.936-18.127-3.696l.353-19.886s12.67 6.863 18.83 5.279c-.353 6.159-.353 14.079-1.056 18.303z" transform="matrix(1.3333333 0 0 -1.3333333 1084.0195 425.9588)"/><path clip-path="url(#cX)" d="m0 0-52.243-51.865" transform="matrix(1.3333333 0 0 -1.3333333 920.68493 506.46667)"/><path clip-path="url(#cY)" d="m0 0-42.4-55.84" transform="matrix(1.3333333 0 0 -1.3333333 951.72787 506.97187)"/><path clip-path="url(#cZ)" d="m0 0-56.597-68.522" transform="matrix(1.3333333 0 0 -1.3333333 949.2044 487.53827)"/><path clip-path="url(#c0)" d="m0 0 5.489 6.437" transform="matrix(1.3333333 0 0 -1.3333333 871.47 577.63973)"/><path clip-path="url(#c1)" d="m0 0-21.958-30.286" transform="matrix(1.3333333 0 0 -1.3333333 963.5912 533.47187)"/><path clip-path="url(#c2)" d="m0 0 .567-11.546" transform="matrix(1.3333333 0 0 -1.3333333 933.05213 579.15413)"/><path clip-path="url(#c3)" d="m0 0-23.283-29.15" transform="matrix(1.3333333 0 0 -1.3333333 976.96747 547.60587)"/><path clip-path="url(#c4)" d="m0 0 9.465 15.521" transform="matrix(1.3333333 0 0 -1.3333333 971.414 583.4444)"/><path clip-path="url(#c5)" d="m0 0-11.357-12.872" transform="matrix(1.3333333 0 0 -1.3333333 976.2096 558.71013)"/><path clip-path="url(#c6)" d="m0 0-7.761-9.465" transform="matrix(1.3333333 0 0 -1.3333333 971.66667 542.55773)"/><path clip-path="url(#c7)" d="m0 0s-23.661-34.641-23.282-37.479" transform="matrix(1.3333333 0 0 -1.3333333 958.2904 524.13333)"/><path clip-path="url(#c8)" d="m0 0c-.567-.379-20.443-26.69-20.443-26.69" transform="matrix(1.3333333 0 0 -1.3333333 955.00907 518.076)"/><path clip-path="url(#c9)" d="m0 0-3.596-4.354" transform="matrix(1.3333333 0 0 -1.3333333 926.23693 564.76733)"/><path clip-path="url(#da)" d="m0 0-5.489-7.193" transform="matrix(1.3333333 0 0 -1.3333333 915.38547 579.40533)"/></g><path clip-path="url(#db)" d="m0 0s-1.604-5.037 0-7.557c1.603-2.518 11.678-22.897 11.678-22.897s6.87 8.473 9.388 8.701c2.52.229 1.374-21.982 1.374-21.982s-4.122-3.894-6.64-3.664c-2.519.228 6.182-8.702 5.953-16.258-.229-7.557-11.449-45.11-15.57-45.797-4.122-.687 1.832 6.87 1.602 8.931-.228 2.06-1.374.686-2.29 2.976s1.374 5.725.916 8.015-2.518 1.831-2.747 3.434c-.229 1.604 1.373 2.062 1.145 3.893-.23 1.832-2.748 1.374-2.519 2.977s.458.916.229 3.893-.687-2.061-3.206-2.29-4.58-5.954-4.58-5.954-5.038-7.099-10.075-3.892c2.977-6.412.687-9.16-.458-9.388-1.145-.23.916-5.038-1.832-5.267s2.061-10.763-1.144-11.679c3.434-1.602.686-3.664.686-3.664s-7.937-.659-6.182-10.991c-23.357 8.243-34.806 22.441-34.577 36.867s4.809 27.478 16.029 32.286c3.206 11.909 8.701 24.731 8.701 24.731s-.916 5.266-.229 8.702c.687 3.435 3.893 6.869 3.893 6.869s-.458 8.243-.229 12.364c.229 4.122 1.831 5.954 2.061 8.244.228 2.29-.688 13.968 1.602 16.029 2.291 2.06 6.641 1.832 8.931 3.206s5.267 3.892 8.243 3.664c2.977-.23 5.496-2.29 5.496-2.29s11.22 0 11.908-4.352c.686-4.349-2.29-5.953-2.29-5.953s1.602-6.182-5.267-11.907" fill="#8a9396" stroke="#2b2b2b" transform="matrix(1.3333333 0 0 -1.3333333 917.2396 400.16707)"/><path clip-path="url(#dc)" d="m0 0c.359-.664-.46-1.803-1.829-2.544s-2.77-.804-3.129-.141c-.359.664.459 1.803 1.828 2.544 1.369.742 2.771.804 3.13.141" fill="#cecfcf" stroke="#2b2b2b" transform="matrix(1.3333333 0 0 -1.3333333 903.9596 379.0148)"/><path clip-path="url(#dd)" d="m0 0c0-.418-.381-.758-.851-.758-.469 0-.85.34-.85.758 0 .419.381.759.85.759.47 0 .851-.34.851-.759" transform="matrix(1.3333333 0 0 -1.3333333 901.4232 380.576)"/><path clip-path="url(#de)" d="m0 0s2.781-12.417-.544-20.993" fill="none" stroke="#2b2b2b" stroke-width=".625" transform="matrix(1.3333333 0 0 -1.3333333 923.7448 390.65933)"/><path clip-path="url(#df)" d="m0 0s5.426-7.177 4.726-16.104" fill="none" stroke="#2b2b2b" stroke-width=".625" transform="matrix(1.3333333 0 0 -1.3333333 924.88667 383.41067)"/><path clip-path="url(#dg)" d="m0 0c.176 0 4.551-3.852 4.376-6.477" fill="none" stroke="#2b2b2b" stroke-width=".625" transform="matrix(1.3333333 0 0 -1.3333333 925.586 381.3104)"/><path clip-path="url(#dh)" d="m0 0s2.976-2.101 3.676-4.201" fill="none" stroke="#2b2b2b" stroke-width=".625" transform="matrix(1.3333333 0 0 -1.3333333 926.98693 379.21013)"/><path clip-path="url(#di)" d="m0 0s-10.677-17.328-9.276-28.18" fill="none" stroke="#000" transform="matrix(1.3333333 0 0 -1.3333333 925.11973 377.57733)"/><path clip-path="url(#dj)" d="m0 0s-14.178-8.401-16.804-35.881" fill="none" stroke="#2b2b2b" stroke-width=".625" transform="matrix(1.3333333 0 0 -1.3333333 926.05333 376.8768)"/><path clip-path="url(#dk)" d="m0 0-5.602-4.2" fill="none" stroke="#000" transform="matrix(1.3333333 0 0 -1.3333333 923.95307 383.64493)"/><path clip-path="url(#dl)" d="m0 0s7.876 32.731 21.879 37.457" fill="none" stroke="#2b2b2b" stroke-width=".625" transform="matrix(1.3333333 0 0 -1.3333333 896.6484 426.81947)"/><path clip-path="url(#dm)" d="m0 0s7.526 9.451 9.276 9.102c1.75-.351 1.226-21.879 1.226-21.879s-5.602-4.202-6.826-4.026c-1.226.175 6.301-10.152 6.126-14.003-.176-3.85-.351-3.85-.351-3.85s0 2.275-1.75 5.951-.7 7.876-12.077 17.153c-2.801 5.776 5.601-3.501 7.352-2.1 1.75 1.4-3.152 13.477-2.976 13.652" fill="#2b2b2b" stroke="#2b2b2b" transform="matrix(1.3333333 0 0 -1.3333333 933.05467 441.52133)"/><path clip-path="url(#dn)" d="m0 0s-3.165-.863-3.596-2.158c-.431-1.294-2.301-2.588-3.308-2.157s-2.876 2.013-2.876 2.013" fill="none" stroke="#2b2b2b" transform="matrix(1.3333333 0 0 -1.3333333 915.2148 370.54733)"/><path clip-path="url(#do)" d="m0 0s-4.746-4.746-2.445-5.321c2.301-.575 4.746 3.739 4.746 3.739s0-7.335 2.013-6.185c2.014 1.151 7.911 5.323 7.911 5.323s2.013.143 2.445 0c.432-.145 5.466-4.459 8.773-2.877-1.869-4.89-4.027-5.466-4.027-5.466s-3.451-4.458-7.91-3.451-5.61 2.876-5.61 2.876-3.739-.287-4.889 1.438c-1.151 1.726-1.582 2.733-1.582 2.733s-2.157-2.158-2.734-1.151c-.575 1.007 0 6.905 3.309 8.342" fill="#2b2b2b" transform="matrix(1.3333333 0 0 -1.3333333 891.24347 385.31427)"/><path clip-path="url(#dp)" d="m0 0s-4.746-4.746-2.445-5.321c2.301-.575 4.746 3.739 4.746 3.739s0-7.335 2.013-6.185c2.014 1.151 7.911 5.323 7.911 5.323s2.013.143 2.445 0c.432-.145 5.466-4.459 8.773-2.877-1.869-4.89-4.027-5.466-4.027-5.466s-3.451-4.458-7.91-3.451-5.61 2.876-5.61 2.876-3.739-.287-4.889 1.438c-1.151 1.726-1.582 2.733-1.582 2.733s-2.157-2.158-2.734-1.151c-.575 1.007 0 6.905 3.309 8.342z" fill="none" stroke="#2b2b2b" stroke-linejoin="round" stroke-width="1.25" transform="matrix(1.3333333 0 0 -1.3333333 891.24347 385.31427)"/><path clip-path="url(#dq)" d="m0 0s-8.773 2.589-11.794-1.726c-3.02-4.315-2.301-6.759-.719-7.191" fill="none" stroke="#2b2b2b" transform="matrix(1.3333333 0 0 -1.3333333 927.10413 376.49267)"/><path clip-path="url(#dr)" d="m0 0c0-1.034-.74-1.873-1.654-1.873-.913 0-1.654.839-1.654 1.873s.741 1.873 1.654 1.873c.914 0 1.654-.839 1.654-1.873" transform="matrix(1.3333333 0 0 -1.3333333 928.9088 376.16973)"/><path clip-path="url(#ds)" d="m0 0s3.578-5.504 7.843-7.017-2.958-2.821-7.224.069c-3.096 4.196-2.269 7.223-2.269 7.223s.825.826 1.65-.275" fill="#2b2b2b" stroke="#2b2b2b" transform="matrix(1.3333333 0 0 -1.3333333 894.86333 406.02)"/><path clip-path="url(#dt)" d="m0 0s-10.045 13.966-12.934 14.723c-2.889.756 2.202 1.375 5.297-1.583 3.096-2.958-.825 4.816-.825 4.816z" fill="#2b2b2b" stroke="#2b2b2b" transform="matrix(1.3333333 0 0 -1.3333333 935.6836 449.3156)"/><path clip-path="url(#du)" d="m0 0c3.853 1.032 20.64-9.631 24.423-12.314 3.784-2.683 11.696-.963 11.696-.963s-3.646-2.202-5.917-2.752c-2.27-.551 6.742-.551 6.742-.551s-21.465-5.916-43.273 5.573c-1.995 8.944 4.678 10.939 6.329 11.007" fill="#2b2b2b" stroke="#2b2b2b" stroke-linejoin="round" stroke-width="1.25" transform="matrix(1.3333333 0 0 -1.3333333 893.57947 556.91587)"/><path clip-path="url(#dv)" d="m0 0s-2.82.551-4.266 2.201c-1.444 1.652-3.507 5.711-5.64 7.431s-12.797 7.567-16.65 7.155c-3.852-.413-5.022.412-5.504.894-.481.482-2.063-.206-1.789-2.202.276-1.995-2.958-6.398-1.788-8.461 1.169-2.065 6.673-10.457 7.775-10.733 1.1-.275.412-4.885.412-4.885s4.885-4.953 6.123-5.228c1.238-.276 2.476-1.17 2.339-2.339-.138-1.17-5.366-7.568-5.366-7.568s-5.641-2.958-5.71-4.61c-.069-1.65 1.376-5.091 5.847-6.191 4.472-1.101 16.512-.206 17.131.825.619 1.032 1.582 7.224 1.17 7.843-.413.619-3.371 2.477-4.885 2.202-1.513-.275-2.889-1.514-2.752-1.789.138-.275-2.133-1.444-2.133-.344 0 1.101 4.472 6.054 4.885 5.642.412-.413 6.742-1.032 7.911-4.197 1.17-3.165 1.17-5.435 4.473-5.091 3.302.343 7.911 3.371 8.324 9.7.413 6.33-3.715 10.595-4.747 11.214-1.032.62-4.472 2.683-4.747 3.646-.275.964-.963 4.128-.413 4.885" fill="#2b2b2b" stroke="#2b2b2b" transform="matrix(1.3333333 0 0 -1.3333333 926.3268 453.9028)"/><path clip-path="url(#dw)" d="m0 0s10.664 2.752 13.416 2.683 13.14-4.884 16.167-7.843c3.027-2.958 9.219-9.976 13.278-9.357 4.059.62 5.229 1.446 5.229 1.446l-1.583-3.028s-3.302-.894-4.953-.481c-1.652.413-4.885 1.444-8.118 4.609-3.234 3.165-13.209 11.696-21.671 11.076-8.462-.619-13.347-8.943-13.347-8.943s.068 4.059.412 4.953c.345.895-1.788-1.926-1.788-1.926z" fill="#2b2b2b" stroke="#2b2b2b" transform="matrix(1.3333333 0 0 -1.3333333 846.98053 491.14493)"/><path clip-path="url(#dx)" d="m0 0c.069-.068 2.684-.757 7.087-.757 4.402 0 6.741 1.927 6.741 1.927l-.274 1.72.687 2.408s3.371-3.441 3.303-4.128c-.069-.689-1.376-.964-1.376-.964l-.481 1.651-1.17-1.444s-6.399-5.091-9.908-4.334c-3.508.757-6.742 3.026-5.847 3.577.894.55 1.376.344 1.238.344" fill="#2b2b2b" stroke="#2b2b2b" transform="matrix(1.3333333 0 0 -1.3333333 899.35813 502.1528)"/><path clip-path="url(#dy)" d="m0 0s-3.853.069-5.572-.757c-1.721-.825-2.34-1.857-3.509-1.72-1.17.138-2.065 1.652-1.721 2.271.483.963 2.752 2.201 7.087 1.857 4.334-.343 3.715-1.651 3.715-1.651" fill="#2b2b2b" stroke="#2b2b2b" transform="matrix(1.3333333 0 0 -1.3333333 878.6276 514.16973)"/><path clip-path="url(#dz)" d="m0 0c0 .207-.275 5.642-2.408 7.843-2.133 2.202-4.747 2.202-5.916 1.927-1.17-.276 4.334-2.684 4.884-4.266s2.339-5.985 1.858-7.086c-.482-1.101-1.376 3.096-4.747 4.266-3.371 1.169-8.05.549-7.087-.964.964-1.513 4.747-.137 6.674-3.371 1.926-3.234 3.371-6.673 3.371-6.673l.619 2.339 1.72.481.206 4.473z" fill="#2b2b2b" stroke="#2b2b2b" transform="matrix(1.3333333 0 0 -1.3333333 896.6068 528.1124)"/><path clip-path="url(#dA)" d="m0 0-3.509 7.018s-1.1 4.471-4.058 5.71c-2.959 1.238-6.88 1.032-6.95-.482-.068-1.514 6.33-3.439 6.743-4.266.413-.825.207-2.201-.344-2.269-.551-.069-3.371 1.031-4.816.687-1.445-.343-2.27-2.201-4.403-1.651-2.133.551-3.922 7.361-3.096 8.05.826.687-1.583-1.238-2.064.55-.482 1.789.688 7.361-.138 8.049-.825.688-4.815 3.096-4.885 3.578-.068.481.208 27.381 22.705 5.09-9.632 11.421-13.416 10.183-15.206 10.251-1.306 0-10.043-.756-12.246-11.901-2.201-11.145-4.815-4.197-4.815-4.197s-.481-4.816 1.857-6.192c2.339-1.376-1.1-5.366-1.1-5.366s-4.196 10.251-3.577 14.723c-.827-3.577-.757-12.452 4.54-22.153 6.192-6.536 12.04-12.59 27.588-19.401 8.187 12.522 7.774 14.034 7.774 14.172" fill="#2b2b2b" stroke="#2b2b2b" stroke-linejoin="round" stroke-width="1.25" transform="matrix(1.3333333 0 0 -1.3333333 892.93747 551.59547)"/><path clip-path="url(#dB)" d="m0 0s4.541-.551 5.779-2.89c1.239-2.339 1.788-5.916 1.788-5.916.757 1.513 1.101 2.821 2.615 3.921 1.513 1.101 2.614 1.239 2.546 2.065-.07.825-4.817 5.847-7.224 6.122-2.408.275-6.605-2.615-6.605-2.615s-.756-1.1 1.101-.687" fill="#8a9396" transform="matrix(1.3333333 0 0 -1.3333333 873.30733 551.68667)"/><path clip-path="url(#dC)" d="m0 0s4.541-.551 5.779-2.89c1.239-2.339 1.788-5.916 1.788-5.916.757 1.513 1.101 2.821 2.615 3.921 1.513 1.101 2.614 1.239 2.546 2.065-.07.825-4.817 5.847-7.224 6.122-2.408.275-6.605-2.615-6.605-2.615s-.756-1.1 1.101-.687z" fill="none" stroke="#2b2b2b" stroke-linejoin="round" stroke-width="1.25" transform="matrix(1.3333333 0 0 -1.3333333 873.30733 551.68667)"/><path clip-path="url(#dD)" d="m0 0s11.768-5.365 31.148-5.711" fill="none" stroke="#8a9396" stroke-linecap="round" stroke-width="1.25" transform="matrix(1.3333333 0 0 -1.3333333 887.13547 567.46267)"/><path clip-path="url(#dE)" d="m0 0s-1.013-9.872-8.606-29.363" fill="none" stroke="#2b2b2b" stroke-linecap="round" stroke-width="1.25" transform="matrix(1.3333333 0 0 -1.3333333 939.51693 494.63973)"/><path clip-path="url(#dF)" d="m0 0s-2.278-7.088-8.606-12.403" fill="none" stroke="#2b2b2b" transform="matrix(1.3333333 0 0 -1.3333333 937.49213 502.74)"/></svg>