<svg height="800" viewBox="0 0 800 800" width="800" xmlns="http://www.w3.org/2000/svg" xmlns:xlink="http://www.w3.org/1999/xlink"><clipPath id="a"><path d="m0 600h899.861v-600h-899.861z" transform="translate(-431.86111 -390.00001)"/></clipPath><clipPath id="b"><path d="m0 600h899.861v-600h-899.861z" transform="translate(-450.86111 -375.00001)"/></clipPath><clipPath id="c"><path d="m0 600h899.861v-600h-899.861z" transform="translate(-567.24101 -264.66991)"/></clipPath><g stroke-width="1.08874"><path d="m0 800h800v-799.99998h-800z" fill="#0098c3"/><path d="m0 533.33334h800v-266.66666h-800z" fill="#e00034"/><path d="m0 800h800v-266.66666h-800z" fill="#00ae65"/></g><path clip-path="url(#a)" d="m0 0c49.706 0 90-40.294 90-90s-40.294-90-90-90-90 40.294-90 90 40.294 90 90 90" fill="#fff" transform="matrix(1.3333333 0 0 -1.3333333 360.00007 280)"/><path clip-path="url(#b)" d="m0 0c41.422 0 75-33.579 75-75s-33.578-75-75-75c-41.421 0-75 33.579-75 75s33.579 75 75 75" fill="#e00034" transform="matrix(1.3333333 0 0 -1.3333333 385.3334 300)"/><path clip-path="url(#c)" d="m0 0-25.797 12.24-9.548-26.91-9.586 26.897-25.779-12.277 12.24 25.797-26.91 9.548 26.897 9.586-12.277 25.78 25.797-12.241 9.548 26.91 9.586-26.896 25.779 12.276-12.24-25.797 26.91-9.548-26.896-9.586z" fill="#fff" transform="matrix(1.3333333 0 0 -1.3333333 540.5066 447.1068)"/></svg>