<?xml version="1.0" encoding="UTF-8" standalone="no"?>
<svg
   height="800"
   viewBox="0 0 800 800"
   width="800"
   version="1.1"
   id="svg9"
   sodipodi:docname="rect copy.svg"
   inkscape:version="1.4 (e7c3feb1, 2024-10-09)"
   xmlns:inkscape="http://www.inkscape.org/namespaces/inkscape"
   xmlns:sodipodi="http://sodipodi.sourceforge.net/DTD/sodipodi-0.dtd"
   xmlns="http://www.w3.org/2000/svg"
   xmlns:svg="http://www.w3.org/2000/svg">
  <defs
     id="defs9" />
  <sodipodi:namedview
     id="namedview9"
     pagecolor="#ffffff"
     bordercolor="#000000"
     borderopacity="0.25"
     inkscape:showpageshadow="2"
     inkscape:pageopacity="0.0"
     inkscape:pagecheckerboard="0"
     inkscape:deskcolor="#d1d1d1"
     inkscape:current-layer="svg9" />
  <clipPath
     id="a">
    <path
       d="M 0,600 H 899.861 V 0 H 0 Z"
       transform="translate(-431.86111,-390.00001)"
       id="path1" />
  </clipPath>
  <clipPath
     id="b">
    <path
       d="M 0,600 H 899.861 V 0 H 0 Z"
       transform="translate(-450.86111,-375.00001)"
       id="path2" />
  </clipPath>
  <clipPath
     id="c">
    <path
       d="M 0,600 H 899.861 V 0 H 0 Z"
       transform="translate(-567.24101,-264.66991)"
       id="path3" />
  </clipPath>
  <path
     d="M 0,800 H 800 V 2e-5 H 0 Z"
     fill="#0098c3"
     id="path4"
     style="stroke-width:1.08874" />
  <path
     d="M 0,533.33334 H 800 V 266.66668 H 0 Z"
     fill="#e00034"
     id="path5"
     style="stroke-width:1.08874" />
  <path
     d="M 0,800 H 800 V 533.33334 H 0 Z"
     fill="#00ae65"
     id="path6"
     style="stroke-width:1.08874" />
  <g
     id="g9"
     transform="translate(-215.81473)">
    <path
       clip-path="url(#a)"
       d="m 0,0 c 49.706,0 90,-40.294 90,-90 0,-49.706 -40.294,-90 -90,-90 -49.706,0 -90,40.294 -90,90 0,49.706 40.294,90 90,90"
       fill="#ffffff"
       transform="matrix(1.3333333,0,0,-1.3333333,575.8148,280)"
       id="path7" />
    <path
       clip-path="url(#b)"
       d="m 0,0 c 41.422,0 75,-33.579 75,-75 0,-41.421 -33.578,-75 -75,-75 -41.421,0 -75,33.579 -75,75 0,41.421 33.579,75 75,75"
       fill="#e00034"
       transform="matrix(1.3333333,0,0,-1.3333333,601.14813,300)"
       id="path8" />
    <path
       clip-path="url(#c)"
       d="m 0,0 -25.797,12.24 -9.548,-26.91 -9.586,26.897 -25.779,-12.277 12.24,25.797 -26.91,9.548 26.897,9.586 -12.277,25.78 25.797,-12.241 9.548,26.91 9.586,-26.896 L -0.05,70.71 -12.29,44.913 14.62,35.365 -12.276,25.779 Z"
       fill="#ffffff"
       transform="matrix(1.3333333,0,0,-1.3333333,756.32133,447.1068)"
       id="path9" />
  </g>
</svg>
