<svg height="888.88934" viewBox="0 0 1333.3333 888.88934" width="1333.3333" xmlns="http://www.w3.org/2000/svg" xmlns:xlink="http://www.w3.org/1999/xlink"><clipPath id="a"><path d="m0 666.667h1000v-666.667h-1000z" transform="translate(-608.43461 -475.66671)"/></clipPath><clipPath id="b"><path d="m0 666.667h1000v-666.667h-1000z" transform="translate(-608.41022 -249.57101)"/></clipPath><clipPath id="c"><path d="m0 666.667h1000v-666.667h-1000z" transform="translate(-733.27542 -470.70381)"/></clipPath><clipPath id="d"><path d="m0 666.667h1000v-666.667h-1000z" transform="translate(-608.43461 -475.66671)"/></clipPath><clipPath id="e"><path d="m0 666.667h1000v-666.667h-1000z" transform="translate(-732.14062 -431.00551)"/></clipPath><clipPath id="f"><path d="m0 666.667h1000v-666.667h-1000z" transform="translate(-735.03812 -431.36251)"/></clipPath><clipPath id="g"><path d="m0 666.667h1000v-666.667h-1000z" transform="translate(-731.57522 -436.10421)"/></clipPath><clipPath id="h"><path d="m0 666.667h1000v-666.667h-1000z" transform="translate(-721.98542 -450.21991)"/></clipPath><clipPath id="i"><path d="m0 666.667h1000v-666.667h-1000z" transform="translate(-724.57322 -445.26331)"/></clipPath><clipPath id="j"><path d="m0 666.667h1000v-666.667h-1000z" transform="translate(-740.41412 -445.37081)"/></clipPath><clipPath id="k"><path d="m0 666.667h1000v-666.667h-1000z" transform="translate(-705.19142 -449.70671)"/></clipPath><clipPath id="l"><path d="m0 666.667h1000v-666.667h-1000z" transform="translate(-751.94919 -440.61881)"/></clipPath><clipPath id="m"><path d="m0 666.667h1000v-666.667h-1000z" transform="translate(-727.95022 -425.00501)"/></clipPath><clipPath id="n"><path d="m0 666.667h1000v-666.667h-1000z" transform="translate(-739.64162 -425.48601)"/></clipPath><clipPath id="o"><path d="m0 666.667h1000v-666.667h-1000z" transform="translate(-690.63281 -381.16961)"/></clipPath><clipPath id="p"><path d="m0 666.667h1000v-666.667h-1000z" transform="translate(-655.54202 -381.27601)"/></clipPath><clipPath id="q"><path d="m0 666.667h1000v-666.667h-1000z" transform="translate(-659.82232 -374.21741)"/></clipPath><clipPath id="r"><path d="m0 666.667h1000v-666.667h-1000z" transform="translate(-665.17091 -374.21741)"/></clipPath><clipPath id="s"><path d="m0 666.667h1000v-666.667h-1000z" transform="translate(-672.55472 -371.43621)"/></clipPath><clipPath id="t"><path d="m0 666.667h1000v-666.667h-1000z" transform="translate(-661.10552 -370.68521)"/></clipPath><clipPath id="u"><path d="m0 666.667h1000v-666.667h-1000z" transform="translate(-693.20122 -385.98501)"/></clipPath><clipPath id="v"><path d="m0 666.667h1000v-666.667h-1000z" transform="translate(-716.84472 -391.22721)"/></clipPath><clipPath id="w"><path d="m0 666.667h1000v-666.667h-1000z" transform="translate(-708.60642 -396.15011)"/></clipPath><clipPath id="x"><path d="m0 666.667h1000v-666.667h-1000z" transform="translate(-710.31742 -384.06021)"/></clipPath><clipPath id="y"><path d="m0 666.667h1000v-666.667h-1000z" transform="translate(-723.37012 -379.67251)"/></clipPath><clipPath id="z"><path d="m0 666.667h1000v-666.667h-1000z" transform="translate(-737.70612 -388.98111)"/></clipPath><clipPath id="A"><path d="m0 666.667h1000v-666.667h-1000z" transform="translate(-755.14554 -385.34341)"/></clipPath><clipPath id="B"><path d="m0 666.667h1000v-666.667h-1000z" transform="translate(-768.41019 -388.87271)"/></clipPath><clipPath id="C"><path d="m0 666.667h1000v-666.667h-1000z" transform="translate(-787.88094 -376.89131)"/></clipPath><clipPath id="D"><path d="m0 666.667h1000v-666.667h-1000z" transform="translate(-748.72462 -373.78871)"/></clipPath><clipPath id="E"><path d="m0 666.667h1000v-666.667h-1000z" transform="translate(-791.73339 -374.53871)"/></clipPath><clipPath id="F"><path d="m0 666.667h1000v-666.667h-1000z" transform="translate(-808.74325 -377.85321)"/></clipPath><clipPath id="G"><path d="m0 666.667h1000v-666.667h-1000z" transform="translate(-802.32422 -376.99971)"/></clipPath><clipPath id="H"><path d="m0 666.667h1000v-666.667h-1000z" transform="translate(-800.29105 -375.07291)"/></clipPath><clipPath id="I"><path d="m0 666.667h1000v-666.667h-1000z" transform="translate(-700.29102 -358.37171)"/></clipPath><clipPath id="J"><path d="m0 666.667h1000v-666.667h-1000z" transform="translate(-702.22562 -284.8688)"/></clipPath><clipPath id="K"><path d="m0 666.667h1000v-666.667h-1000z" transform="translate(-712.70312 -286.47821)"/></clipPath><clipPath id="L"><path d="m0 666.667h1000v-666.667h-1000z" transform="translate(-685.52732 -255.8708)"/></clipPath><clipPath id="M"><path d="m0 666.667h1000v-666.667h-1000z" transform="translate(-693.71872 -251.77511)"/></clipPath><clipPath id="N"><path d="m0 666.667h1000v-666.667h-1000z" transform="translate(-764.51762 -251.5817)"/></clipPath><clipPath id="O"><path d="m0 666.667h1000v-666.667h-1000z" transform="translate(-773.48934 -257.237)"/></clipPath><clipPath id="P"><path d="m0 666.667h1000v-666.667h-1000z" transform="translate(-743.74122 -326.68331)"/></clipPath><clipPath id="Q"><path d="m0 666.667h1000v-666.667h-1000z" transform="translate(-808.10845 -380.16281)"/></clipPath><clipPath id="R"><path d="m0 666.667h1000v-666.667h-1000z" transform="translate(-760.55762 -330.54361)"/></clipPath><clipPath id="S"><path d="m0 666.667h1000v-666.667h-1000z" transform="translate(-758.90229 -277.1999)"/></clipPath><clipPath id="T"><path d="m0 666.667h1000v-666.667h-1000z" transform="translate(-692.01862 -256.88641)"/></clipPath><clipPath id="U"><path d="m0 666.667h1000v-666.667h-1000z" transform="translate(-795.01952 -294.32681)"/></clipPath><clipPath id="V"><path d="m0 666.667h1000v-666.667h-1000z" transform="translate(-795.10164 -329.09241)"/></clipPath><clipPath id="W"><path d="m0 666.667h1000v-666.667h-1000z" transform="translate(-664.71292 -328.91471)"/></clipPath><clipPath id="X"><path d="m0 666.667h1000v-666.667h-1000z" transform="translate(-774.73442 -246.09931)"/></clipPath><clipPath id="Y"><path d="m0 666.667h1000v-666.667h-1000z" transform="translate(-793.26954 -219.4928)"/></clipPath><clipPath id="Z"><path d="m0 666.667h1000v-666.667h-1000z" transform="translate(-805.6777 -227.2634)"/></clipPath><clipPath id="aa"><path d="m0 666.667h1000v-666.667h-1000z" transform="translate(-773.08892 -207.83371)"/></clipPath><clipPath id="ab"><path d="m0 666.667h1000v-666.667h-1000z" transform="translate(-682.05472 -220.985)"/></clipPath><clipPath id="ac"><path d="m0 666.667h1000v-666.667h-1000z" transform="translate(-662.62012 -218.59441)"/></clipPath><clipPath id="ad"><path d="m0 666.667h1000v-666.667h-1000z" transform="translate(-655.44431 -222.33071)"/></clipPath><clipPath id="ae"><path d="m0 666.667h1000v-666.667h-1000z" transform="translate(-655.59671 -236.8298)"/></clipPath><clipPath id="af"><path d="m0 666.667h1000v-666.667h-1000z" transform="translate(-684.89362 -248.0417)"/></clipPath><clipPath id="ag"><path d="m0 666.667h1000v-666.667h-1000z" transform="translate(-757.54202 -289.00361)"/></clipPath><clipPath id="ah"><path d="m0 666.667h1000v-666.667h-1000z" transform="translate(-759.18849 -289.15201)"/></clipPath><clipPath id="ai"><path d="m0 666.667h1000v-666.667h-1000z" transform="translate(-719.42482 -365.83661)"/></clipPath><clipPath id="aj"><path d="m0 666.667h1000v-666.667h-1000z" transform="translate(-716.58402 -354.32681)"/></clipPath><clipPath id="ak"><path d="m0 666.667h1000v-666.667h-1000z" transform="translate(-720.17292 -349.54261)"/></clipPath><clipPath id="al"><path d="m0 666.667h1000v-666.667h-1000z" transform="translate(-728.54202 -323.23311)"/></clipPath><clipPath id="am"><path d="m0 666.667h1000v-666.667h-1000z" transform="translate(-729.58982 -323.53291)"/></clipPath><clipPath id="an"><path d="m0 666.667h1000v-666.667h-1000z" transform="translate(-726.15142 -350.88831)"/></clipPath><clipPath id="ao"><path d="m0 666.667h1000v-666.667h-1000z" transform="translate(-736.61522 -325.32781)"/></clipPath><clipPath id="ap"><path d="m0 666.667h1000v-666.667h-1000z" transform="translate(-739.90432 -326.67251)"/></clipPath><clipPath id="aq"><path d="m0 666.667h1000v-666.667h-1000z" transform="translate(-657.96872 -372.91861)"/></clipPath><clipPath id="ar"><path d="m0 666.667h1000v-666.667h-1000z" transform="translate(-680.06642 -281.95181)"/></clipPath><clipPath id="as"><path d="m0 666.667h1000v-666.667h-1000z" transform="translate(-675.32711 -269.0876)"/></clipPath><clipPath id="at"><path d="m0 666.667h1000v-666.667h-1000z" transform="translate(-671.16802 -260.1872)"/></clipPath><clipPath id="au"><path d="m0 666.667h1000v-666.667h-1000z" transform="translate(-720.01462 -268.0211)"/></clipPath><clipPath id="av"><path d="m0 666.667h1000v-666.667h-1000z" transform="translate(-726.68852 -260.0915)"/></clipPath><clipPath id="aw"><path d="m0 666.667h1000v-666.667h-1000z" transform="translate(-716.91892 -272.56801)"/></clipPath><clipPath id="ax"><path d="m0 666.667h1000v-666.667h-1000z" transform="translate(-710.53612 -271.40791)"/></clipPath><clipPath id="ay"><path d="m0 666.667h1000v-666.667h-1000z" transform="translate(-747.09672 -258.446)"/></clipPath><clipPath id="az"><path d="m0 666.667h1000v-666.667h-1000z" transform="translate(-793.62114 -283.78781)"/></clipPath><clipPath id="aA"><path d="m0 666.667h1000v-666.667h-1000z" transform="translate(-717.01462 -239.0036)"/></clipPath><clipPath id="aB"><path d="m0 666.667h1000v-666.667h-1000z" transform="translate(-720.78812 -229.235)"/></clipPath><clipPath id="aC"><path d="m0 666.667h1000v-666.667h-1000z" transform="translate(-670.16891 -351.27991)"/></clipPath><clipPath id="aD"><path d="m0 666.667h1000v-666.667h-1000z" transform="translate(-674.63282 -348.50941)"/></clipPath><clipPath id="aE"><path d="m0 666.667h1000v-666.667h-1000z" transform="translate(-680.94041 -355.43331)"/></clipPath><clipPath id="aF"><path d="m0 666.667h1000v-666.667h-1000z" transform="translate(-684.63572 -350.66371)"/></clipPath><clipPath id="aG"><path d="m0 666.667h1000v-666.667h-1000z" transform="translate(-708.94922 -344.20181)"/></clipPath><clipPath id="aH"><path d="m0 666.667h1000v-666.667h-1000z" transform="translate(-715.56352 -333.89131)"/></clipPath><clipPath id="aI"><path d="m0 666.667h1000v-666.667h-1000z" transform="translate(-676.01662 -310.96261)"/></clipPath><clipPath id="aJ"><path d="m0 666.667h1000v-666.667h-1000z" transform="translate(-722.33592 -294.4967)"/></clipPath><clipPath id="aK"><path d="m0 666.667h1000v-666.667h-1000z" transform="translate(-740.80182 -298.3454)"/></clipPath><clipPath id="aL"><path d="m0 666.667h1000v-666.667h-1000z" transform="translate(-726.18262 -283.4186)"/></clipPath><clipPath id="aM"><path d="m0 666.667h1000v-666.667h-1000z" transform="translate(-739.72362 -285.57191)"/></clipPath><clipPath id="aN"><path d="m0 666.667h1000v-666.667h-1000z" transform="translate(-720.79792 -273.41671)"/></clipPath><clipPath id="aO"><path d="m0 666.667h1000v-666.667h-1000z" transform="translate(-714.94822 -288.3434)"/></clipPath><clipPath id="aP"><path d="m0 666.667h1000v-666.667h-1000z" transform="translate(-717.25782 -298.8053)"/></clipPath><clipPath id="aQ"><path d="m0 666.667h1000v-666.667h-1000z" transform="translate(-719.72072 -305.73111)"/></clipPath><clipPath id="aR"><path d="m0 666.667h1000v-666.667h-1000z" transform="translate(-722.95212 -306.34731)"/></clipPath><clipPath id="aS"><path d="m0 666.667h1000v-666.667h-1000z" transform="translate(-725.41112 -307.11591)"/></clipPath><clipPath id="aT"><path d="m0 666.667h1000v-666.667h-1000z" transform="translate(-728.33692 -308.19301)"/></clipPath><clipPath id="aU"><path d="m0 666.667h1000v-666.667h-1000z" transform="translate(-731.72272 -308.96351)"/></clipPath><clipPath id="aV"><path d="m0 666.667h1000v-666.667h-1000z" transform="translate(-734.95412 -309.88641)"/></clipPath><clipPath id="aW"><path d="m0 666.667h1000v-666.667h-1000z" transform="translate(-739.10842 -310.65491)"/></clipPath><clipPath id="aX"><path d="m0 666.667h1000v-666.667h-1000z" transform="translate(-742.95612 -311.73111)"/></clipPath><clipPath id="aY"><path d="m0 666.667h1000v-666.667h-1000z" transform="translate(-746.03322 -312.65591)"/></clipPath><clipPath id="aZ"><path d="m0 666.667h1000v-666.667h-1000z" transform="translate(-749.41802 -312.96261)"/></clipPath><clipPath id="a0"><path d="m0 666.667h1000v-666.667h-1000z" transform="translate(-753.11229 -314.19501)"/></clipPath><clipPath id="a1"><path d="m0 666.667h1000v-666.667h-1000z" transform="translate(-757.11234 -315.11881)"/></clipPath><clipPath id="a2"><path d="m0 666.667h1000v-666.667h-1000z" transform="translate(-722.79692 -318.81221)"/></clipPath><clipPath id="a3"><path d="m0 666.667h1000v-666.667h-1000z" transform="translate(-726.02932 -319.73401)"/></clipPath><clipPath id="a4"><path d="m0 666.667h1000v-666.667h-1000z" transform="translate(-728.49122 -320.34931)"/></clipPath><clipPath id="a5"><path d="m0 666.667h1000v-666.667h-1000z" transform="translate(-731.72272 -320.96551)"/></clipPath><clipPath id="a6"><path d="m0 666.667h1000v-666.667h-1000z" transform="translate(-734.79982 -321.58171)"/></clipPath><clipPath id="a7"><path d="m0 666.667h1000v-666.667h-1000z" transform="translate(-738.18362 -322.34931)"/></clipPath><clipPath id="a8"><path d="m0 666.667h1000v-666.667h-1000z" transform="translate(-740.80182 -323.11981)"/></clipPath><clipPath id="a9"><path d="m0 666.667h1000v-666.667h-1000z" transform="translate(-743.10842 -323.73501)"/></clipPath><clipPath id="ba"><path d="m0 666.667h1000v-666.667h-1000z" transform="translate(-745.11042 -323.88931)"/></clipPath><clipPath id="bb"><path d="m0 666.667h1000v-666.667h-1000z" transform="translate(-748.18652 -325.11981)"/></clipPath><clipPath id="bc"><path d="m0 666.667h1000v-666.667h-1000z" transform="translate(-750.80372 -325.58171)"/></clipPath><clipPath id="bd"><path d="m0 666.667h1000v-666.667h-1000z" transform="translate(-753.26664 -326.19691)"/></clipPath><clipPath id="be"><path d="m0 666.667h1000v-666.667h-1000z" transform="translate(-755.72754 -326.96741)"/></clipPath><clipPath id="bf"><path d="m0 666.667h1000v-666.667h-1000z" transform="translate(-757.57419 -326.96741)"/></clipPath><clipPath id="bg"><path d="m0 666.667h1000v-666.667h-1000z" transform="translate(-760.19042 -310.34631)"/></clipPath><clipPath id="bh"><path d="m0 666.667h1000v-666.667h-1000z" transform="translate(-760.19042 -297.7301)"/></clipPath><clipPath id="bi"><path d="m0 666.667h1000v-666.667h-1000z" transform="translate(-695.86912 -283.5719)"/></clipPath><clipPath id="bj"><path d="m0 666.667h1000v-666.667h-1000z" transform="translate(-693.86621 -285.88051)"/></clipPath><clipPath id="bk"><path d="m0 666.667h1000v-666.667h-1000z" transform="translate(-697.25201 -286.64911)"/></clipPath><clipPath id="bl"><path d="m0 666.667h1000v-666.667h-1000z" transform="translate(-696.94631 -288.95671)"/></clipPath><clipPath id="bm"><path d="m0 666.667h1000v-666.667h-1000z" transform="translate(-693.25102 -288.4967)"/></clipPath><clipPath id="bn"><path d="m0 666.667h1000v-666.667h-1000z" transform="translate(-693.25102 -290.80441)"/></clipPath><clipPath id="bo"><path d="m0 666.667h1000v-666.667h-1000z" transform="translate(-697.25201 -291.72721)"/></clipPath><clipPath id="bp"><path d="m0 666.667h1000v-666.667h-1000z" transform="translate(-693.40622 -294.1901)"/></clipPath><clipPath id="bq"><path d="m0 666.667h1000v-666.667h-1000z" transform="translate(-696.79102 -294.80531)"/></clipPath><clipPath id="br"><path d="m0 666.667h1000v-666.667h-1000z" transform="translate(-694.94432 -297.1139)"/></clipPath><clipPath id="bs"><path d="m0 666.667h1000v-666.667h-1000z" transform="translate(-696.48242 -297.7301)"/></clipPath><clipPath id="bt"><path d="m0 666.667h1000v-666.667h-1000z" transform="translate(-696.02051 -300.34541)"/></clipPath><clipPath id="bu"><path d="m0 666.667h1000v-666.667h-1000z" transform="translate(-694.02052 -299.88251)"/></clipPath><clipPath id="bv"><path d="m0 666.667h1000v-666.667h-1000z" transform="translate(-692.63672 -302.65301)"/></clipPath><clipPath id="bw"><path d="m0 666.667h1000v-666.667h-1000z" transform="translate(-695.56052 -303.42251)"/></clipPath><clipPath id="bx"><path d="m0 666.667h1000v-666.667h-1000z" transform="translate(-694.32911 -304.80731)"/></clipPath><clipPath id="by"><path d="m0 666.667h1000v-666.667h-1000z" transform="translate(-695.71391 -306.19401)"/></clipPath><clipPath id="bz"><path d="m0 666.667h1000v-666.667h-1000z" transform="translate(-693.25102 -308.03871)"/></clipPath><clipPath id="bA"><path d="m0 666.667h1000v-666.667h-1000z" transform="translate(-695.40622 -308.50061)"/></clipPath><clipPath id="bB"><path d="m0 666.667h1000v-666.667h-1000z" transform="translate(-694.94432 -311.27111)"/></clipPath><clipPath id="bC"><path d="m0 666.667h1000v-666.667h-1000z" transform="translate(-692.48342 -310.65491)"/></clipPath><clipPath id="bD"><path d="m0 666.667h1000v-666.667h-1000z" transform="translate(-692.32912 -313.42451)"/></clipPath><clipPath id="bE"><path d="m0 666.667h1000v-666.667h-1000z" transform="translate(-694.86911 -314.46161)"/></clipPath><clipPath id="bF"><path d="m0 666.667h1000v-666.667h-1000z" transform="translate(-692.25292 -316.01821)"/></clipPath><clipPath id="bG"><path d="m0 666.667h1000v-666.667h-1000z" transform="translate(-694.38281 -316.59441)"/></clipPath><clipPath id="bH"><path d="m0 666.667h1000v-666.667h-1000z" transform="translate(-692.03032 -318.28191)"/></clipPath><clipPath id="bI"><path d="m0 666.667h1000v-666.667h-1000z" transform="translate(-694.11622 -318.63741)"/></clipPath><clipPath id="bJ"><path d="m0 666.667h1000v-666.667h-1000z" transform="translate(-691.94042 -320.01331)"/></clipPath><clipPath id="bK"><path d="m0 666.667h1000v-666.667h-1000z" transform="translate(-694.02731 -320.63351)"/></clipPath><clipPath id="bL"><path d="m0 666.667h1000v-666.667h-1000z" transform="translate(-691.31932 -322.63151)"/></clipPath><clipPath id="bM"><path d="m0 666.667h1000v-666.667h-1000z" transform="translate(-691.31932 -322.63151)"/></clipPath><clipPath id="bN"><path d="m0 666.667h1000v-666.667h-1000z" transform="translate(-693.62792 -323.20861)"/></clipPath><clipPath id="bO"><path d="m0 666.667h1000v-666.667h-1000z" transform="translate(-691.45312 -324.71741)"/></clipPath><clipPath id="bP"><path d="m0 666.667h1000v-666.667h-1000z" transform="translate(-693.71582 -325.16181)"/></clipPath><clipPath id="bQ"><path d="m0 666.667h1000v-666.667h-1000z" transform="translate(-691.49711 -327.11391)"/></clipPath><clipPath id="bR"><path d="m0 666.667h1000v-666.667h-1000z" transform="translate(-693.09472 -327.55731)"/></clipPath><clipPath id="bS"><path d="m0 666.667h1000v-666.667h-1000z" transform="translate(-691.27541 -328.93521)"/></clipPath><clipPath id="bT"><path d="m0 666.667h1000v-666.667h-1000z" transform="translate(-692.96192 -329.82291)"/></clipPath><clipPath id="bU"><path d="m0 666.667h1000v-666.667h-1000z" transform="translate(-691.27541 -330.48891)"/></clipPath><clipPath id="bV"><path d="m0 666.667h1000v-666.667h-1000z" transform="translate(-692.65142 -331.37661)"/></clipPath><clipPath id="bW"><path d="m0 666.667h1000v-666.667h-1000z" transform="translate(-691.05371 -332.04071)"/></clipPath><clipPath id="bX"><path d="m0 666.667h1000v-666.667h-1000z" transform="translate(-691.14161 -333.50551)"/></clipPath><clipPath id="bY"><path d="m0 666.667h1000v-666.667h-1000z" transform="translate(-691.27541 -334.61491)"/></clipPath><clipPath id="bZ"><path d="m0 666.667h1000v-666.667h-1000z" transform="translate(-692.38382 -334.21651)"/></clipPath><clipPath id="b0"><path d="m0 666.667h1000v-666.667h-1000z" transform="translate(-692.42872 -333.06221)"/></clipPath><clipPath id="b1"><path d="m0 666.667h1000v-666.667h-1000z" transform="translate(-716.04392 -311.62271)"/></clipPath><clipPath id="b2"><path d="m0 666.667h1000v-666.667h-1000z" transform="translate(-717.77542 -313.53291)"/></clipPath><clipPath id="b3"><path d="m0 666.667h1000v-666.667h-1000z" transform="translate(-715.55572 -315.97431)"/></clipPath><clipPath id="b4"><path d="m0 666.667h1000v-666.667h-1000z" transform="translate(-713.69142 -314.06511)"/></clipPath><clipPath id="b5"><path d="m0 666.667h1000v-666.667h-1000z" transform="translate(-711.87112 -317.12761)"/></clipPath><clipPath id="b6"><path d="m0 666.667h1000v-666.667h-1000z" transform="translate(-713.86912 -317.92641)"/></clipPath><clipPath id="b7"><path d="m0 666.667h1000v-666.667h-1000z" transform="translate(-712.89452 -320.05531)"/></clipPath><clipPath id="b8"><path d="m0 666.667h1000v-666.667h-1000z" transform="translate(-710.85062 -319.34631)"/></clipPath><clipPath id="b9"><path d="m0 666.667h1000v-666.667h-1000z" transform="translate(-710.09472 -321.34441)"/></clipPath><clipPath id="ca"><path d="m0 666.667h1000v-666.667h-1000z" transform="translate(-712.04882 -321.92061)"/></clipPath><clipPath id="cb"><path d="m0 666.667h1000v-666.667h-1000z" transform="translate(-710.71682 -323.82881)"/></clipPath><clipPath id="cc"><path d="m0 666.667h1000v-666.667h-1000z" transform="translate(-709.56252 -323.47531)"/></clipPath><clipPath id="cd"><path d="m0 666.667h1000v-666.667h-1000z" transform="translate(-708.23242 -325.07291)"/></clipPath><clipPath id="ce"><path d="m0 666.667h1000v-666.667h-1000z" transform="translate(-709.96092 -325.51821)"/></clipPath><clipPath id="cf"><path d="m0 666.667h1000v-666.667h-1000z" transform="translate(-707.12212 -326.66961)"/></clipPath><clipPath id="cg"><path d="m0 666.667h1000v-666.667h-1000z" transform="translate(-708.58692 -327.11391)"/></clipPath><clipPath id="ch"><path d="m0 666.667h1000v-666.667h-1000z" transform="translate(-706.05762 -328.22431)"/></clipPath><clipPath id="ci"><path d="m0 666.667h1000v-666.667h-1000z" transform="translate(-707.83302 -328.62471)"/></clipPath><clipPath id="cj"><path d="m0 666.667h1000v-666.667h-1000z" transform="translate(-706.54492 -329.51141)"/></clipPath><clipPath id="ck"><path d="m0 666.667h1000v-666.667h-1000z" transform="translate(-707.16602 -330.08951)"/></clipPath><clipPath id="cl"><path d="m0 666.667h1000v-666.667h-1000z" transform="translate(-706.19042 -331.37661)"/></clipPath><clipPath id="cm"><path d="m0 666.667h1000v-666.667h-1000z" transform="translate(-705.56842 -331.28781)"/></clipPath><clipPath id="cn"><path d="m0 666.667h1000v-666.667h-1000z" transform="translate(-703.48342 -334.30531)"/></clipPath><clipPath id="co"><path d="m0 666.667h1000v-666.667h-1000z" transform="translate(-703.65922 -335.14911)"/></clipPath><clipPath id="cp"><path d="m0 666.667h1000v-666.667h-1000z" transform="translate(-706.74222 -179.9831)"/></clipPath><clipPath id="cq"><path d="m0 666.667h1000v-666.667h-1000z" transform="translate(-737.98832 -187.60321)"/></clipPath><clipPath id="cr"><path d="m0 666.667h1000v-666.667h-1000z" transform="translate(-748.65622 -179.9831)"/></clipPath><clipPath id="cs"><path d="m0 666.667h1000v-666.667h-1000z" transform="translate(-775.32812 -196.7477)"/></clipPath><clipPath id="ct"><path d="m0 666.667h1000v-666.667h-1000z" transform="translate(-829.43552 -221.1335)"/></clipPath><clipPath id="cu"><path d="m0 666.667h1000v-666.667h-1000z" transform="translate(-843.1543 -239.4245)"/></clipPath><clipPath id="cv"><path d="m0 666.667h1000v-666.667h-1000z" transform="translate(-679.30661 -191.4128)"/></clipPath><clipPath id="cw"><path d="m0 666.667h1000v-666.667h-1000z" transform="translate(-621.39062 -236.37661)"/></clipPath><clipPath id="cx"><path d="m0 666.667h1000v-666.667h-1000z" transform="translate(-613.00682 -243.99481)"/></clipPath><path d="m0 0h999v666.667h-999z" fill="#cf142b" transform="matrix(1.3333333 0 0 -1.3333333 0 888.88933)"/><path d="m0 378h433v288.667h-433z" fill="#00247d" transform="matrix(1.3333333 0 0 -1.3333333 0 888.88933)"/><path d="m0 0-168.089-112.059 48.411-32.274 168.089 112.059v32.274zm-384.589 0v-32.274l168.089-112.059 48.411 32.274-168.089 112.059zm0-256.392v-32.275h48.411l168.089 112.06-48.411 32.274zm216.5 79.785 168.089-112.06h48.411v32.274l-168.089 112.06z" fill="#fff" transform="matrix(1.3333333 0 0 -1.3333333 512.7852 .000133)"/><path d="m0 0v-96.223h-180.417v-96.221h180.417v-96.223h72.166v96.223h180.417v96.221h-180.417v96.223z" fill="#fff" transform="matrix(1.3333333 0 0 -1.3333333 240.5556 .000133)"/><path d="m0 0v-115.467h-194.85v-57.733h194.85v-115.467h43.3v115.467h194.85v57.733h-194.85v115.467z" fill="#cf142b" transform="matrix(1.3333333 0 0 -1.3333333 259.8 .000133)"/><path d="m0 0-144.334-96.223h32.274l144.333 96.223zm-400.727 0v-21.516l112.06-74.707h32.274zm288.667-192.444 144.333-96.223v21.516l-112.06 74.707zm-144.333 0-144.334-96.223h32.274l144.333 96.223z" fill="#cf142b" transform="matrix(1.3333333 0 0 -1.3333333 534.3024 .000133)"/><path clip-path="url(#a)" d="m0 0v-229.384c2.716-32.843 71.162-53.519 118.884-88.401 62.594 41.982 123.302 50.474 125.743 97.544l.762 220.241z" fill="#fff" transform="matrix(1.3333333 0 0 -1.3333333 811.24613 254.66707)"/><path clip-path="url(#b)" d="m0 0 2.563-13.101 8.543-10.253 61.805-39.87 45.284-28.197 88.29 48.133 30.475 23.355 5.982 30.474-3.704 7.119.855-7.404-2.28-5.982-2.561 1.711-1.708 11.107-.287-8.258-4.272-4.845-.853 5.985 1.139 4.27-1.709 4.841-.57-9.683-2.278-4.273-1.994 2.85.854 4.273-.284 3.985-1.425 1.996-.286-4.274-.853-1.423.286-2.561-1.71-1.711-1.14 3.417.571 3.134-.571 2.846-1.139 3.136.287-5.128-2.849-6.266-2.279-1.424-1.424 1.71.286 5.981-1.994 3.416.568-7.404-2.847-6.552-1.708 1.996-.857 1.992v3.135l3.136 7.974-3.136-2.849-2.56-6.834-1.14-1.992-1.424 3.416 1.994 7.69-1.14 1.422-2.562-9.397-2.28-1.424-1.708.57-1.139-.57-137.85-7.691-3.702 5.412-.853-5.412-2.28-1.992-2.277 9.969-1.709-10.54-2.28 5.127 1.141 11.68-1.141.852-1.707-6.265v-8.83l-.856-5.98-1.709 1.14-2.278 5.411-.284 8.83.852 6.265-2.277-7.404v-9.115l-.284-4.555-2.851 6.265-1.423 5.128-2.848 5.979 1.71-7.689v-3.989l-4.843 4.274-2.562 11.961-.57-8.83 1.14-4.271-1.424-1.71-2.849 5.128-1.708 6.833-1.993 6.552v-10.536l1.424-5.697-1.14-1.426-2.278 1.139-.854 6.269-.572 9.112-2.276-6.265-.571-6.549-.854-5.127-1.424-3.42z" fill="#2f8f22" stroke="#000" stroke-width=".38" transform="matrix(1.3333333 0 0 -1.3333333 811.2136 556.128)"/><path clip-path="url(#c)" d="m0 0-5.704-4.548-5.992.072-1.01-2.02-.072-2.817-.722-.867-.144-1.514h-3.322l-2.238 1.371-.649-.865-2.238-6.28-1.298-.867h-1.515l-2.021-1.805h-2.021v-1.805l1.948-2.454 1.517-1.155.577-2.599 1.444-2.238-2.021-1.95-1.588-1.659-.795-1.228h-.65l-.432 1.444-.723 1.662-1.804-1.012-1.659-1.154.07-1.805 2.671-3.392 2.527-.145-2.238-4.26h-.359l-.145 2.528-1.154.938-.721-.146-1.661-1.082-1.154-1.732-.291-1.083-.577-1.011-.722-1.66.218-1.516 1.226-1.66 1.3-1.083 2.67-.866.939-.217h4.692l-1.373-3.033-1.225-3.319-1.516-2.815-.939-.362-.433.577v1.517l1.805 4.115-.145 1.372-1.082-.433h-1.373l-.65.433-2.816-2.309-1.877-2.744-.431-2.021.578-2.815 1.659-2.96 1.373-1.011 1.011-.433.361-.505-.506-1.01 1.083-1.156 1.948-.865-.578-.866-1.514-1.516-.939-1.373-.722-1.948.793-2.599-.793-1.371-1.805-.651-2.743-.576-1.804-.867-.434-1.876-1.011-1.734-3.609-1.3-2.888-.361-3.102-.36h-1.733l-.938 1.444v2.31l-1.589 2.67-1.659 1.949-2.815 1.082-1.951.217-1.876-.58-1.515-1.804h-1.3l-1.949 2.384-1.588 1.154-.938.143-1.733-.504-3.321-3.464-1.733.144-2.095 1.37-2.092-1.227-1.011-.361-1.805-1.732-.073-2.383 1.085-2.814 1.01-1.082 1.153-.289.434-2.382.648-1.084 2.674-2.6-1.949-2.671-.362-1.731-.072-3.033.434-1.516 3.753-4.981-.216-1.082-3.537-2.6-3.248-3.105-1.011-2.526.069-1.804.145-.431-3.247-2.382-.29-2.743.652-4.622 1.442-2.021 2.238-1.444 1.949-.65 2.526.216 2.021 1.229 1.3 1.153.36 3.321 2.382-1.66 2.816-3.537 2.092-3.248.073-.866-3.177.071-1.227.361-3.248-.145-1.876-.723-1.661.075-.865.36-2.166-1.085-4.115-2.021-3.25-1.876-1.298-.144-1.876-1.517-1.443-.288-2.31-2.816-.577-1.876.216-3.465 1.082-2.31.216-3.971.506-.791-.29-2.601-1.298-1.803-.216-1.299-.722-1.734-1.082-1.515-.146-3.899-.649-3.754.215-5.053.217-4.982-1.516-3.102-1.227-1.589-.29-1.877-.433-1.299h1.877l.94.794-.29-1.588 3.681 3.754.29-1.661 1.661 1.3.144 2.887-.074 1.445.94-2.311.577-.577 1.228 1.153.288 1.301.651-2.383.721-.794 1.734 1.949.217 4.622-1.084 3.032.289.288 1.732-4.115.722-1.444 1.588-2.382.723-2.742 2.454.433 1.154 7.146 1.878-6.063 2.382-9.167 1.516-5.272 1.877-3.173 1.153-3.538 1.661-2.671 2.599-3.465 2.742-2.095 3.539-1.083 4.763-.07.074-1.805-1.806-1.661-.722-1.516-1.948-3.248-1.3-1.228-4.836.073-2.817 1.299-1.516.362-3.175-.58-2.454-1.876-1.155.072-2.455-1.153-1.227-1.591-.576-2.094-1.589-2.526-.724-1.516.652-2.091-.868-1.59-.215-5.919 1.372-3.463 2.238-2.312 1.515-1.01.867.432-.217 3.825.794 2.023 1.589-.94 2.383 1.154 1.947-1.516-.722-2.671.29-3.248 1.444-3.537 2.525-3.248 1.949-1.515.146.865-.146 7.436 1.661 1.446 2.022.07 2.381 1.806 1.227.289 1.154.866.146 1.298 1.011-.36.649-2.382-.144-2.671-.433-.362.506-.791.216-.725h1.876l4.549 4.188 1.082 2.526.36 3.972.939.722.07 1.011-.866 1.586 1.156.29.144-.503h1.516l2.381 1.513 1.299 1.59 1.01.289 5.271 5.343 3.753-1.373 5.775-2.238 4.042-1.01.94-.507 1.805-.069 1.731-.941 2.022-2.596.576-1.014-.649-.359-2.166 1.08-.866-.359-2.454-2.095-.073-4.043 2.311-2.885 5.126-.363 2.237 1.084 1.948-1.084 2.6 1.084 2.382.794 3.322-1.228 1.732-.432 1.659.288 1.516 1.155 2.382-.363 2.239.074 1.443 1.084 1.229 1.949.648 1.513-.288 2.024-1.227 1.443-1.515.576h-1.589l.216.867 2.167 1.297 7.65 3.973 1.445.215 2.093 1.516 2.02.145 3.25 2.526 1.226-.649 1.3-1.083 2.526-2.382 1.735-2.456 1.225-.936 1.443-2.601 1.878-2.02 1.373-.864 1.586-.219-1.01-1.587-.433-1.661.505-2.456-.866-2.96v-3.462l1.155-3.033 1.444 1.01 5.123 4.838 1.806.215 1.806 1.302.937 2.741.578 1.732.793-1.155 1.155-2.885 2.31-2.312 1.589-.648.144-3.466.072-3.681.793-.289 2.671 1.877 2.238 2.741 1.444 3.395.432 3.319-.651 2.889-.216 1.949.721 2.019 2.312-2.452 1.877-.939.794-5.631 1.804.938 2.165 2.454 1.95 2.96.505 3.321-.361 4.91-.721 4.764-2.816 3.897-1.155.288-1.298 1.592-.217 1.009-3.682 2.889-2.887.577-2.526-.939-1.3-2.164h-.867l-2.96 2.453-.145 1.806-1.442 1.442-.073.577 1.66 1.302 1.877.215 3.103 1.586 2.6 1.95 2.238 2.889 1.95 2.959.649 3.463 1.372 3.899 2.094 6.716 1.444 5.919 1.804.866 2.237.939 1.877 1.804 1.082.217.865 1.588 1.085.071.288 2.166.651 1.011 1.299.505s.361-3.322 0-3.682-2.599-4.765-2.599-4.765l-.724-2.886-.141-.867 2.02-.362 2.309.938h1.155l2.526 2.888 2.239 4.26.793 4.33.938-1.371.216-2.311-.794-3.536-.65-3.033-.72-1.011.648-1.3 1.878 1.229 1.876.432 5.27 5.847 2.166 7.579v7.364l-.722.793 1.153 1.299-.144 2.6-.793 2.309-1.298 1.373-2.311-1.733-1.444.216-1.588 2.961-.218 4.403-.577.722.216 1.66 1.301 2.527.07 3.753-1.441 3.609-2.167 2.673-1.659.575-2.095.217-1.734 1.227-1.009.362-1.589-.146-1.516 1.878-2.309-.072-1.3.866-1.227-.578s-2.382.651-2.815.722c-.433.072-1.734.072-1.734.072l-2.094 1.804-.649-.431-2.527.144-3.826 1.227.362 1.084 2.96 2.599 1.95.793 2.815-2.454 2.237-1.661 2.961-.792 3.537 1.081 2.238 2.383-.578 2.238-.65 5.341-2.6 3.392-1.226 6.137-2.743 3.897-.866 1.66-.291 1.949.507 2.238 4.114 2.165 1.517 2.454-.651 3.539-.938 3.103-2.743 4.188 2.094 2.452 1.226 3.106.29 1.659-.29 2.021-.937 1.299.577.579-.577 1.228-3.248 1.009-2.454.938-1.156-.578-3.177.361-1.588-.794-3.033-1.299-3.246-1.588-2.527-.289-4.619-2.961-3.106-1.37-5.631.216-2.381.433-4.477 4.404-.937.29-.361 1.732-1.228.505-2.02-1.009.433 2.237-.578 2.742-2.164 3.538-1.806 1.011-3.103.938-.866-2.31.287-3.319-1.299-.795-.576.073.072 2.309.144 3.971-.939 2.599-1.949 3.899.433.362 1.805-3.683 1.805-.578 2.309-.938 2.601-.577 3.031.794 1.299 1.371 1.805 2.599.145 2.671-2.022 2.599v1.228l.869 1.371-1.229 1.371-2.815-.144-1.735-1.806-.721-2.165v-.939l-1.155.362-.794 1.949-.937 4.186-.939 1.228-.866 2.166-1.805 2.888 2.743-3.682 1.373-1.588 2.96-1.444 1.732-.578 2.455.578 2.31.651.938 2.094 1.011 2.309v1.588l.433.433-1.01 1.228-.939 5.341s-1.661-.36-2.093-.721c-.433-.362-1.517-2.166-1.517-2.166l-.65-1.372-1.516.649-1.442 2.093-1.229 1.227-.576.146-.29.577h.866s.507-.289 1.805.722c1.299 1.01 2.382 1.443 2.382 1.443s.65.434 1.012.723c.36.289 1.587 4.187 1.587 4.187l-.144 1.806-1.805-1.012-2.309-1.66-2.312.217-3.103 2.888.29.865 2.165 1.445 1.3 3.03 1.444 5.054s-.362.289-1.155.432c-.794.146-1.515 1.589-1.515 1.589l-1.516.937-1.949 1.734v7.29l-2.382.506-5.27-.578-1.299 2.959-.722 1.228-.432 2.021-2.382-.723-3.249-1.154-1.155.072-1.515 1.227-1.3.433-1.804 1.3z" stroke="#000" stroke-width=".38" transform="matrix(1.3333333 0 0 -1.3333333 977.70053 261.28427)"/><path clip-path="url(#d)" d="m0 0v-229.384c2.716-32.843 71.162-53.519 118.884-88.401 62.594 41.982 123.302 50.474 125.743 97.544l.762 220.241z" fill="none" stroke="#000" stroke-width="6.847" transform="matrix(1.3333333 0 0 -1.3333333 811.24613 254.66707)"/><path clip-path="url(#e)" d="m0 0c-.28-6.222-5.624-4.915-7.151-3.213-1.469 5.689 7.055 7.248 7.151 3.213" fill="#d40000" stroke="#000" stroke-width=".38" transform="matrix(1.3333333 0 0 -1.3333333 976.18747 314.21533)"/><path clip-path="url(#f)" d="m0 0c.557-4.914 6.192-5.597 7.259-3.538 1.862 4.693-5.135 7.674-7.259 3.538" fill="#d40000" stroke="#000" stroke-width=".38" transform="matrix(1.3333333 0 0 -1.3333333 980.0508 313.73933)"/><path clip-path="url(#g)" d="m0 0v-1.077l-.592-.108-.215.269-.161 1.67-.323.161v.754l.753.053v.701h-.915l-.324-.701-.163-.969.379-.809-.379-.646-.699-.377-.97-.917-.648-.322-1.509-.162-1.238.594-1.241 1.185s-.538.862-.593 1.077c-.053.215-.378.97-.378.97l-.324.808-.593.647-.916.108-.268-1.132-.323-.43-.756-.108-.805.7-.54.916-.594 1.187-.484.808-.701 1.022-.324.593-.323 1.402-.81 1.023-.538.862-.86.7-.917.701h-1.077l-.701.538-1.022.971-.756 1.023-.482.592.107.54.377.486.808.484.808.054.917.215.916.485.162.647.161 1.078.97 1.724.43 1.239.054.97 1.401.216 1.348-.162.97-.271 1.023-.322 1.185.593.97 1.24.323 2.154.43 1.994.487 1.131h2.479l.859-.593.702.322.645.324 1.565-.16h.806s.648 1.023.917 1.185c.269.161 1.563 1.886 1.563 1.886l1.67.431.861-.109 1.187-1.348.968-.592.864-.055 2.047-1.346s.647-.539.863-.43c.215.107 2.049.916 2.049.916l1.614.107 1.725.593.593-1.346s.862-2.048 1.132-2.264c.27-.215 1.347-2.261 1.347-2.261s.539.269.809.323c.268.053 1.507-.27 1.507-.27l3.557-.162.485.539.375-.647-.482-2.478.214-1.886.647-2.533.808-1.185 1.079-.053 1.4-1.187.055-1.185-1.078-.377-.97.323-1.241-.7-1.939-1.131-1.618-1.617-1.399-1.993-.917-1.993-.914-.647-.81.324-.809-.054-.377-.97-.808-.969-.701-2.479-1.508-1.67-1.564-.754-1.13-.863h-.753l-1.293 1.241-.593.538-.161 1.939-1.241.972h-.917l1.347-1.079.055-1.454-.753-.646-.379.107-.376.755h-.433l-.054-1.455-1.616-1.886-1.616 1.347-.054 1.724z" fill="#d40000" stroke="#000" stroke-linejoin="round" stroke-width=".38" transform="matrix(1.3333333 0 0 -1.3333333 975.4336 307.41707)"/><path clip-path="url(#h)" d="m0 0v-1.885l-.701-1.131h-1.239l-.753-.809-.216-.646 1.4-1.293 1.293-.916.538-.648.324-.16 5.389.054.646-.647 1.186.862 1.456 2.209 4.58-.054 2.423-1.777.162-1.456.539-.216 1.292 1.131 1.077.053.539-.7h.971l3.179 2.857.539.754 1.186.054-.162.916-1.292.323-1.13 1.131-.326 1.887-1.023.16-1.777-.916-3.072-1.508-1.024-.754-.916-.054s-.376.323-.593.323h-1.184l-.972-.809h-.754l-.27.27-4.148.324-3.448.862-1.78 1.185-1.13.916-.325.322z" stroke="#000" stroke-width=".38" transform="matrix(1.3333333 0 0 -1.3333333 962.6472 288.59613)"/><path clip-path="url(#i)" d="m0 0h2.37l.593-.485v-.646l-1.131-.485-1.994-.107-1.401.215-.972.862-.214 1.724 1.292 1.455h1.24l.109-.485z" fill="#fffcfc" stroke="#000" stroke-width=".38" transform="matrix(1.3333333 0 0 -1.3333333 966.0976 295.20493)"/><path clip-path="url(#j)" d="m0 0-.377-.322v-.647l.483-.323 2.373-.109 2.585 2.047.055.81-1.56 1.346h-1.348l-.217-.376.325-.701.43-.647-.43-.862z" fill="#fffcfc" stroke="#000" stroke-width=".38" transform="matrix(1.3333333 0 0 -1.3333333 987.2188 295.0616)"/><path clip-path="url(#k)" d="m0 0 2.407-.077 1.243-1.866 1.088-1.164 1.086-.855.934-.155 1.786-2.641v-.311l1.396-1.243.39-1.63.155-.544-.078-.699-.777-.466-.932.156-.544.389-1.707-1.477-1.089-1.476-.698-.156-1.866-2.018-.931-.312-1.475-1.087-2.33.078-1.476 1.786-.309.7-.078 1.398 1.321.932.621-.699-.31-.699.076-.855.779-.31.775.078 2.797 2.408.699.389 1.631 1.63 1.011.544-.077 1.009-1.166 1.786-.387 1.243-.311 1.165-.309.856-1.089 1.241-.621.7-.234.699-1.087.855-.31.156v.542z" fill="#d40000" stroke="#000" stroke-width=".38" transform="matrix(1.3333333 0 0 -1.3333333 940.2552 289.2804)"/><path clip-path="url(#l)" d="m0 0h1.243l1.321.622 1.01.854h.932l.622-.621 1.01.077.621.777.233.932.854 1.165.233 1.165.777 1.632.234 1.165-1.942.077-2.252-1.943-1.709-.077-1.399-1.475-1.086-.155-1.166-1.709-.387-1.01.156-1.011z" fill="#a00" stroke="#000" stroke-width=".38" transform="matrix(1.3333333 0 0 -1.3333333 1002.5989 301.3976)"/><path clip-path="url(#m)" d="m0 0-1.478-1.476-.387-1.319.621-1.32 1.399-.234 1.01.543.932-1.086.155-1.864 1.864-2.019.854-.233.7.777.776.776.078.777 1.244.543.31 2.33.7-.853 1.163.699 1.478.154v1.943l-.544 1.32-1.167.854-1.785.778-1.942.699-.931-.079-1.712-1.011-1.863-.619z" fill="#d40000" stroke="#000" stroke-linejoin="round" stroke-width=".38" transform="matrix(1.3333333 0 0 -1.3333333 970.60027 322.216)"/><path clip-path="url(#n)" d="m0 0 2.804.128c1.924 1.248 2.757 6.33 4.081 9.689 2.053 2.663 4.576 3.46 7.65 2.04l1.785-.51 2.295-1.784h1.656l1.149-.255 1.785-.128 3.189 2.55-.127-2.677-2.168-1.912-4.463-1.659-3.444 2.04-.127-.51 7.397-8.159h.637l1.275-1.275.637.51.128 2.167 2.551 2.294.254-3.314.892-1.657v-3.188l-2.422-3.06-3.824-.51-4.463 2.804-.127 1.275-4.081 4.718v-2.04l2.423-4.973.382-1.912.893-.893.638-1.531v-1.913l1.146-2.677 2.04-.254.513 1.274v1.785l2.167 2.168 1.403.127.51-.764-.638-.638-.255-1.402v-.893l1.786-2.422.51-1.53-2.678-4.08-1.786-.511-3.187.511-1.913 1.274h-1.019l-2.934 4.464-.381 2.167-3.954 6.248-.129-1.275 1.532-1.913.764-2.933.765-5.227 2.295-4.463.126-8.288.767-.892h1.018l1.276 1.018 1.02 1.403-.256 4.846h1.403l2.423-1.404 1.785-2.931.637-1.276v-2.678l-.891-.127-1.786-1.913-2.934-1.274h-5.098l-1.148 1.02h-1.019l-.765.764h-1.403l-3.954 5.611-.126 9.307.509 2.039v2.806h-.636v-2.806l-.64-1.786-.127-2.549.127-7.013 4.208-6.758 3.061-1.531.892-1.019h-1.403l.128-1.021-1.149.255-.253-.509-.638.254-1.15.767-1.53-.256-1.017-.511h-2.677l-1.15 2.296-.891 1.786-3.061 2.804h-2.295l-.509 1.657.382 2.933.64 2.678v7.14l-.513-8.161-1.401-4.59-.511-.382-.128-5.227.894-2.423 3.569-3.953-2.423-.255-1.785.764-1.913-.381-2.932.638-3.316 1.146-2.167 2.168-1.02 2.423-.383 2.421-.51 2.551.51 2.039.255 2.04-1.019-2.294v-3.443-2.04l-1.403.382v1.531l-1.148 1.53-.254 2.04-.382 3.059-.13 4.973.13 3.061.636 3.442-.51.128-.384-4.337-.254-8.542-.892-.256-2.039-2.805h-4.592l-1.785 1.53 3.444 3.698-.383 2.933-.384 3.441-.382 5.865-3.954-4.207-4.461-3.188h-3.825l-2.168 2.678-.384 3.059.256 2.169 2.295 3.061 1.655.253.64.638.382-.51-.891-2.55-.894-1.913.764-1.785 2.17-.255 2.804 4.334 2.168 5.102 1.657 2.55v1.402l-1.528-1.147-1.786-.383-5.227-.129-3.06 1.914-.51 1.53.127 1.402.129 1.912 3.314 2.169.127-4.59 2.169 1.786v.892l2.805 3.698 6.757 5.992h4.08l2.422-1.786 1.019-.254 2.933-2.806.127-3.569 3.444-2.806-2.04-2.422.125-1.276 1.915-1.402 1.784.51.766-4.718 2.167-1.275 1.147-.127 4.336 5.101 1.913.254 1.148 2.55-.512 2.04z" fill="#d40000" stroke="#000" stroke-linejoin="round" stroke-width=".38" transform="matrix(1.3333333 0 0 -1.3333333 986.1888 321.57467)"/><path clip-path="url(#o)" d="m0 0v-.747l1.498-2.033-.107-2.14-7.597-3.851-3.315-.215-1.712-1.605-4.387-1.39-1.924.428.319 1.069.214 1.819-.214 1.069-1.389.749v1.714l1.711.534-.536.747-.962.11.214 2.245.428.854.108.537-.108 1.07-.428.963-1.177.322-3.423-1.393-.535.537-1.606-1.711-.855-.108-.107 1.391-1.712 2.248v.429l-3.209.534-2.247-2.89h-1.605l-1.175.856h-.965l-1.068-.641-.644.213-.963-1.713h-.533l-.643 1.393-.856 1.39-.32.858.429 1.71 1.39.856 1.709.857 1.287.213 1.496-.856.643-1.39 1.927 1.819 1.924 2.139 1.604.642 2.033-.32 2.248-2.997 2.138-.212 2.568 1.819.963.535 2.356-.321 2.353-1.284 2.46-3.637.429-3.53.534-.964 4.279.322 4.494.855z" fill="#d40000" stroke="#000" stroke-width=".38" transform="matrix(1.3333333 0 0 -1.3333333 920.84373 380.6632)"/><path clip-path="url(#p)" d="m0 0 1.392-2.459-.107-4.387-.536-.536-2.031 1.713-1.072 1.496-1.07 1.819v1.604l1.07.856 1.39.321z" fill="#5656a6" stroke="#000" stroke-width=".38" transform="matrix(1.3333333 0 0 -1.3333333 874.056 380.52133)"/><path clip-path="url(#q)" d="m0 0 3.102 6.419v1.711l-1.178 1.714h-1.605l-1.711-1.606v-5.67z" fill="#5656a6" stroke="#000" stroke-width=".38" transform="matrix(1.3333333 0 0 -1.3333333 879.76307 389.9328)"/><path clip-path="url(#r)" d="m0 0 1.712.748 4.173 3.959.641 1.177-.322.962-1.176.856-.747.214-1.713-.749-.963-.962-1.925-3.423z" fill="#5656a6" stroke="#000" stroke-width=".38" transform="matrix(1.3333333 0 0 -1.3333333 886.89453 389.9328)"/><path clip-path="url(#s)" d="m0 0-1.499-1.071-1.712.107-3.101 2.141.107.428 1.925.322 1.711.749 1.712-.107.964-.856.32-.964z" fill="#5656a6" stroke="#000" stroke-width=".38" transform="matrix(1.3333333 0 0 -1.3333333 896.7396 393.64107)"/><path clip-path="url(#t)" d="m0 0 2.888-2.674 2.141-1.39 1.711-.641 2.14-1.178h4.494l4.064.429 2.034.749 3.957.107 3.211 1.497 2.352 1.605 2.353.106 1.287 1.285h1.711l3.422 2.568 4.815 2.138 5.028 1.818 5.458 1.07 2.246-.106.855-.642 1.071-1.818.426-.857-.534-1.818-2.031-1.178-.429 1.285 1.283 1.07-.32.641-2.034.322h-1.391l-1.282-1.284-.215-2.889 1.712-1.496 1.818-1.178 1.606-.107 1.925 1.174 2.569 2.248 1.496 2.568-.429 3.744-.854 2.355-2.569 1.925-3.209 1.285-5.562-.108-3.317-.855-1.285-.429-3.529-2.353-1.605-.107-3.531-2.353-1.392-.534-1.605-.641-2.461-1.072-4.708-2.137-3.208-1.927-1.605-.215-3.743-2.353-5.35-.428-.963.536-2.462.32-1.604.644-1.605.855-2.245 2.674-.643.429h-2.033l-.641-.858z" fill="#dfda4d" stroke="#000" stroke-width=".38" transform="matrix(1.3333333 0 0 -1.3333333 881.474 394.6424)"/><path clip-path="url(#u)" d="m0 0-1.178-5.242 1.391-1.498-.108-1.712.749-.748 1.39.748 1.391.963 1.389.536 1.606.855.213.964 1.711.855 1.82.536 2.353.641 2.355.322-1.712 1.177-4.921 3.208-2.034.215-.749-.641-2.887-.108-1.603-.427z" fill="#d40000" transform="matrix(1.3333333 0 0 -1.3333333 924.26827 374.24267)"/><g stroke="#000"><path clip-path="url(#v)" d="m0 0-3.423.107h-2.249l-1.817.747-1.498 1.499-.214 1.391-1.069 1.711-1.07 1.07h-1.605l-2.245-1.498-.964-1.924-.213-3.103 1.283-2.675 4.279-3.21 2.461-.533 1.714.746 3.85 1.713 2.461 1.604.858 1.391z" fill="#d40000" stroke-width=".38" transform="matrix(1.3333333 0 0 -1.3333333 955.79293 367.25307)"/><path clip-path="url(#w)" d="m0 0 1.924 2.031.107 4.602-.534.428.534 1.818.214 1.498h-.748l-4.173-3.958-2.889-.428-1.496-.857-.108-1.07 1.178-.748 2.139.214 1.176-.107z" fill="#d40000" stroke-width=".38" transform="matrix(1.3333333 0 0 -1.3333333 944.80853 360.6892)"/><path clip-path="url(#x)" d="m0 0 3.743.321 2.997-.215 1.497-.428 2.996-1.605 1.713-.857 3.317.215-1.284 1.604-1.285 1.605-.857 1.605-.213 1.604-.747-.213-.856.213-1.07 1.39-.641 2.034-.43 2.674-.854.109-.643-1.285.643-.64.64-1.284-1.069-1.391-.107-1.071-1.39-1.07-1.927-.856-1.819-.748-2.033-.749z" fill="#d40000" stroke-width=".38" transform="matrix(1.3333333 0 0 -1.3333333 947.08987 376.80907)"/><path clip-path="url(#y)" d="m0 0 .643-5.35-1.177-3.315 2.462-.107h2.886l2.568.536 2.461.214 2.248-.108 1.818-.214 2.246.856.108 1.711-.535 1.498 1.068 3.317-.429.749z" fill="#d9d24d" stroke-width=".38" transform="matrix(1.3333333 0 0 -1.3333333 964.49347 382.65933)"/><path clip-path="url(#z)" d="m0 0 .107-4.6 1.606-1.391h1.496l1.178.641.321.962-1.07.642-.429 1.284-2.246 2.461h-.963z" fill="#d40000" stroke-width=".38" transform="matrix(1.3333333 0 0 -1.3333333 983.60813 370.24787)"/><path clip-path="url(#A)" d="m0 0 4.599-3.103 1.391-.428 1.283.428 2.14 1.712 1.068 2.354.11 1.711-1.07.107-1.711-1.177-2.461-.214-1.925-.321h-1.499l-1.499-.321z" fill="#d40000" stroke-width=".38" transform="matrix(1.3333333 0 0 -1.3333333 1006.8607 375.09813)"/><path clip-path="url(#B)" d="m0 0-.854-1.391-.857-2.139-1.926-2.033.108-1.498h-.858l.11-1.176 1.496-1.176 4.174-.642 3.317 4.279v1.177l-1.82 2.14-1.286.32z" fill="#d40000" stroke-width=".38" transform="matrix(1.3333333 0 0 -1.3333333 1024.5469 370.3924)"/><path clip-path="url(#C)" d="m0 0 2.141-1.07v-.749l-.857-1.178-.533-2.245-.215-1.392-2.568-.107-2.674.963-1.499.963h-1.39l-.749.64-1.283.857-1.605 1.071-1.711 2.245-1.176 1.498v1.07l1.604 2.033 1.606.534h7.168l3.315 1.178 2.674 2.246 3.21.641.749.857 2.141.428 5.348 2.782 2.995-.535 2.997.107 2.567-.748.964-.856-.535-.321-1.391.108-1.605-.857-.214-2.889 1.283-2.353-.32-.643-1.605.108-1.069.536-.536.963v.963l-1.068 1.497-.856.32h-1.924l-.643-4.064h-.965l-1.817 1.604-2.676.322-1.819-1.605.642-2.14 2.676-2.567h1.39l1.284-1.497-.108-1.177-1.925.429-1.926.426-1.604.751-1.284-.214-1.499.857-1.498.641-.961.428z" fill="#d40000" stroke-width=".38" transform="matrix(1.3333333 0 0 -1.3333333 1050.5079 386.3676)"/><path clip-path="url(#D)" d="m0 0-.642-.429-.962.429-.536 1.497 1.07.964 2.353-.107 2.14-1.926v-2.782l-2.889-1.392-2.994-.749-3.317.964-2.034 2.782-.535 1.925.429 3.317.535 2.141 2.889 2.139 3.101.963 3.637.536 4.176-1.07 8.449-3.21 5.671-2.567 6.312-3.319 3.745-1.71 4.922-2.353 2.996-1.07 3.422.428 1.498-.107 2.996.963 2.032.215 4.493 5.242 1.818 1.07-.212-2.352-2.997-3.319-2.566-2.888-1.069-.108-1.391-1.175-2.674.108-6.206-.322-2.995.961-4.708.964-5.562 2.46-4.388 2.248-2.141.32-3.317 1.712-2.031.213-1.177.857-3.639 1.069-2.996 1.071-2.887.321-2.248.32-1.068-.641-1.07-1.498-.535-2.033.749-2.461 1.285-.215 1.176.535.427.856z" fill="#d9d34a" stroke-width=".38" transform="matrix(1.3333333 0 0 -1.3333333 998.29947 390.5044)"/><path clip-path="url(#E)" d="m0 0h2.461l1.391-.748h2.781v-1.071l-1.606-1.176-3.102-.857-1.392-.64-1.068.107-.749.962v1.498l.641 1.284z" fill="#48489c" stroke-width=".38" transform="matrix(1.3333333 0 0 -1.3333333 1055.6445 389.5044)"/><path clip-path="url(#F)" d="m0 0s1.713.965 2.031 1.712c.323.749 1.071 2.354 1.071 2.354l.643 2.783-.855 2.352-1.605.428-1.39-.107-.749-.748-.212-2.034.747-1.711.642-.963-.107-1.818z" fill="#48489c" stroke-width=".38" transform="matrix(1.3333333 0 0 -1.3333333 1078.3243 385.08507)"/><path clip-path="url(#G)" d="m0 0 1.712.854 1.068 2.034.11 2.247-.857 1.713-1.178 1.281h-1.604l-.429-2.994 1.177-1.177v-3.958z" fill="#48489c" stroke-width=".38" transform="matrix(1.3333333 0 0 -1.3333333 1069.7656 386.22307)"/><path clip-path="url(#H)" d="m0 0 .642.749.323 1.605-.643 2.353-.965 1.07-1.174 1.07-1.286.855h-1.82l-1.175-.963.32-1.926 2.141-1.604 1.712-.321z" fill="#48489c" stroke-width=".38" transform="matrix(1.3333333 0 0 -1.3333333 1067.0547 388.79213)"/><path clip-path="url(#I)" d="m0 0-3.115-.376-2.203-.27-1.452-.86-1.181.7-.699-.429-2.633 1.396-3.064-1.667-1.451-1.288h-.911l-.7.912-1.397-.969-.806.808-.86.482-5.802-4.19-2.096.698-.914-.805-.378-.323-.212-.913-.862 2.259-.751-.538-1.289.431-.914-1.291-.215-3.385.537-4.244 1.399-4.676 1.288-1.934 1.075-.215.323 1.344.592-2.525.859-.859.27-4.568 3.492-7.845.322-4.029.16-6.985-1.289-1.561-1.665-2.525.054-.75-1.719-3.279.106-4.997.377-.429.109-4.783 1.343-.107 1.074-1.182 2.365.214v1.451l.322-1.665 1.88-2.473 1.612-1.288 1.127-.054.591.859-.053 5.373.375-5.91 1.182.054 1.507 1.343 1.988.269.645-.054s.537-.323.805-.806c.269-.483 1.237-.914 1.237-.914l.699-1.451.859-.323.43.915-.59 11.445-.592 9.348-.644 11.874-.646 15.155-.107 4.835-.753.644.055 1.558 1.827.538 1.074.322-.484 1.449-.536 4.836v1.827l.645.538 1.289.052.914-1.074 1.774-7.36.913-.323 3.223.055 7.308-11.554 2.579-3.869 3.547-6.608 4.622-6.608 1.45-1.935.967-.109.322 7.04 2.044 1.773-1.72 12.143-1.397.268-1.934 1.773-1.074-.16-1.074-1.774-1.343 1.504-.163 1.721-1.235.803h-.912l-1.184 1.612-.643.163-.752-.698-.163 5.478-1.181 2.579-.215 1.559-2.203 3.116-2.31.537s-1.02 2.312-1.02 2.634c0 .323-.432 1.451-.432 1.451z" fill="#e4cb5e" stroke-width=".19" transform="matrix(1.3333333 0 0 -1.3333333 933.72133 411.0604)"/><g stroke-width=".38"><path clip-path="url(#J)" d="m0 0-1.558 1.986-.537 2.096-.215 4.514-.483 4.3-.86 6.662-1.397 8.22-1.128 6.663-.43 3.922-.913 4.622-.376 3.17-.377 2.633-.323 3.761 1.075-3.386 1.774-7.898 1.986-5.481.807-3.707v-2.096l1.397-3.006.914-3.817 1.879-8.059 1.989-6.611 1.02-4.78.16-1.827-2.095-.7-1.02-.483z" fill="#dcc56a" transform="matrix(1.3333333 0 0 -1.3333333 936.3008 509.06427)"/><path clip-path="url(#K)" d="m0 0 1.13 5.427 1.344 4.137.589 2.794.43 2.257-.108 3.385-.912 1.987-4.191 8.437-2.526 5.103-1.022 2.634-1.88 3.278-2.525 5.266-2.257 3.921-1.88 3.225-1.773 2.366-.536-.486 1.61-6.017 1.343-5.157 1.29-5.696 2.149-7.468 1.237-5.16 1.235-3.17 1.182-4.459 3.278-10.64.646-2.793 1.612-3.226z" fill="#e2cc75" transform="matrix(1.3333333 0 0 -1.3333333 950.2708 506.9184)"/><path clip-path="url(#L)" d="m0 0-1.366-1.363-2.147 1.363.975 2.536 3.512.586 1.951-2.926-.781-2.925-2.732-2.729-3.316-.977-3.316-.388-3.9.193-5.268 1.173-4.094 4.875-3.122 6.241-2.338 5.266-2.732 10.727-1.366 4.487-.585 4.095-2.925 5.658 1.168.974 10.144 8.972h.586l2.146 1.951 3.704 7.022.391.389 1.17 4.29-.196 7.411-.974 3.511-2.34 3.901s-.78 1.366 0 1.17c.779-.195-2.145 3.317-2.145 3.317l-3.512 3.707v.778l-2.534 2.536-1.756.975h-1.365l-.586.781-2.537.779-1.168-1.169-.781-2.537v-.975l1.754-.78.585.39-.585.977.195 1.17 1.368.974 1.559-1.168-.195-2.926-1.17-1.366-2.925-.196-2.341 1.171-.974 1.951-.78 2.924.78 1.756 1.171.974 1.95-.389 3.12.781.975.39 2.536-.39 1.756-1.756 1.949-1.17 4.877-5.462 1.364-1.364 2.536-3.707 3.121-7.022.78-4.875-.389-4.876-2.536-7.022-2.926-4.485-4.095-5.072-7.021-5.853-.975-.194-1.56-1.952 2.731-5.85 4.29-17.945 3.511-7.411 5.071-5.265 3.9-2.147 5.073-.586 4.485 1.172 1.951 1.753z" fill="#ddd457" transform="matrix(1.3333333 0 0 -1.3333333 914.0364 547.72827)"/><path clip-path="url(#M)" d="m0 0-.585-.974.78-1.561 1.951-.39 1.365 1.756v1.952l-1.171 2.144-1.56.392-1.755-.196-2.536-1.756-1.366-1.56-.78-3.705 1.951-6.048 3.121-4.095 7.801-5.071 8.388-3.12 5.264-.78 3.903-3.902 1.951-4.68-1.755-2.927-2.341-.195v1.17l.974.196 1.171 1.17-.584 1.17-2.34 1.366-1.951-1.56-.197-3.512 1.754-1.756 2.536-.583 1.951.781 1.95 2.146.198 2.535-.78 3.706-3.319 4.679-3.508 1.756-8.778 3.122-5.656 2.143-4.097 2.929-3.705 3.9-2.145 5.654.974 3.706 2.147 1.561 1.17-.389z" fill="#dbd45d" transform="matrix(1.3333333 0 0 -1.3333333 924.95827 553.1892)"/><path clip-path="url(#N)" d="m0 0 1.561-.976.196-1.559-1.756-.78-2.34.389v2.339l1.364 2.926 3.903.196 1.755-2.146 1.171-4.095-1.171-4.292-4.487-3.705-6.241-4.292-6.826-2.925-10.142-4.875-2.925-2.143-2.537-4.682 1.562-2.733 1.95-.389v.975l-.586.781.39 2.146 1.171 1.169 2.339-1.366.587-2.925-2.147-2.146-2.341-.39-3.705 1.756-1.171 1.949-.194 2.733 1.56 2.536 3.121 3.119 4.877 2.733 7.021 2.925 10.336 5.069 7.216 7.803v3.119l-1.561 1.95z" fill="#e5dc5e" transform="matrix(1.3333333 0 0 -1.3333333 1019.3568 553.44707)"/><path clip-path="url(#O)" d="m0 0v-1.753h1.365l1.366.194.585 2.339-1.17 1.56-1.56.197-1.951-.39-2.145-1.56-.195-3.122.973-2.144 1.952-2.925 3.51-1.755 3.51-.976 5.268.39 6.046 2.925 5.656 4.095 2.34 5.657 2.925 10.337 3.705 13.067 2.341 4.875 1.95 1.757-.585.779h-1.755l-4.486 3.315-4.68 2.926-6.047 7.216-3.12 6.047-.976 8.581 1.756 8.389 3.705 6.241 6.046 5.071 5.462 3.9 5.461.193.777-2.144-.777-1.756-1.171.976-1.755.195-.779-2.926 1.948-.974 3.511.39.976 2.339-.389 3.315-2.536 2.342-4.489-.39-3.315-.39-4.097-2.34-4.289-4.486-2.924-4.291-3.708-6.046-1.17-5.461.196-9.558 4.878-10.336 4.29-5.462 8.384-5.655 1.368-.976-2.535-5.656-3.707-11.898-2.339-9.556-1.951-4.096-6.241-5.461-7.023-2.729-6.045.193-2.926 2.146-.781 1.951-.195 2.924z" fill="#d7d643" transform="matrix(1.3333333 0 0 -1.3333333 1031.3191 545.90667)"/><path clip-path="url(#P)" d="m0 0-.416.828 1.381 1.516 2.616.549 2.067 1.655 2.62 1.654 2.756.689 3.584-3.031-1.24-.968-1.242.139-2.343-1.515-1.79-1.104-1.516.275-1.379.415-.827-.69h-1.242l-.966-.552z" fill="#ccc" transform="matrix(1.3333333 0 0 -1.3333333 991.65493 453.3116)"/><path clip-path="url(#Q)" d="m0 0v-1.93l-1.929-.276-.137 2.618z" fill="#48489c" transform="matrix(1.3333333 0 0 -1.3333333 1077.4779 382.0056)"/><path clip-path="url(#R)" d="m0 0 1.377.549h2.067l1.104-3.031v-.966l1.791.552h3.308l2.342-1.104 2.068-2.067 2.205-1.242h1.791v.966h1.792l.414-.552 1.928-.275 1.38.413.413-1.241-.275-1.652-.415-1.243.552-5.235 2.481-8.96 4.687-7.582-1.791.828-3.998.552-1.242-.552-1.653.138-1.93-1.791-.965-.137-.826-.69-1.516 2.067-5.789 7.718-1.516 1.654-3.307 7.166-4.549 9.788-.277 3.998-1.101 1.103-.551.138v.69z" fill="#ccc" transform="matrix(1.3333333 0 0 -1.3333333 1014.0768 448.16453)"/><path clip-path="url(#S)" d="m0 0 2.344-1.103-.138 1.103 1.654-1.103s1.515-.276 2.342-.137c.825.137 2.618 1.928 2.618 1.928l.552 3.721 3.584 6.204 2.617 1.516.83.138 2.479 2.757 4.686 2.48 2.205.828 3.584-.688 2.62-1.243.551-2.205.414-5.926 1.654-1.243 1.379.692 1.24 1.514 3.031 1.105 2.206-.275-.139-2.758-.963-5.1-1.516-5.375-2.481-8.544-2.342-6.066-5.79-4.412-4.548-2.892h-7.306l-2.204 2.066 2.756.692.965 1.65.276 2.896-2.48 1.792-2.481-.139-3.307-1.931-1.244-1.65-.688-1.932h-1.239l-2.759.139-2.067-1.379-1.516-1.928-.414-2.895.691-2.068 1.515-.965 2.757.138.689.55h.552l-2.482-2.754-3.169-3.309-4.136-2.757-2.756-.825-4.549-1.656-3.307-1.516-3.723-.138-3.859-3.444-2.619-2.07-1.792-2.48-.827-4.273v-3.168l2.066-2.756-.275-.829-1.24.14-.69.549h-3.032l-.828 1.242-1.515-.277-2.205-.688-.965-.966-1.655.829.966 2.479.138 2.342-.689 3.172-2.067 4.137-1.791 1.926-3.172 1.931-6.064 1.793-6.615 2.477-4.824 2.346-1.792 2.756-.69 3.445 1.104-1.102-.966 3.858 1.378-1.789.967-.138 2.757-3.448 2.205-.414.551-.273h.688l.138.273 2.067-1.102 2.344-.689h3.308l-2.894.689-3.585 1.653-3.72 2.069-2.068 2.754-.277 1.241-1.103.138.139.829.827.965 1.103-.139.277-.826 1.103.415 1.79-1.381 3.033-.273 2.204-.276-1.927 1.102-3.033 1.653-3.032 2.758-.966.138-3.033 4.684-1.654 4.549-1.378 4.824v5.653l1.79 4.546 2.62 4.136 1.515 1.378 1.241-.413 3.17 2.342 2.205.69 2.896-.136 2.205-.691 3.17-.965 1.515-1.929 1.516-.139.412-1.102-.825-.276 1.103-1.516-.414-.965.965-1.24-.137-1.791-1.791-2.069 1.24-2.066-.14-.692 1.517-1.653 1.379-2.065 2.344-.414 5.512-.14 3.996.415 2.344.139-.966 1.102 1.655.415 2.067.414 3.721 2.892s2.895 4.964 3.447 5.652c.551.689 1.652 3.032 1.652 3.032l4.687 4.825 1.79.689 4.137 2.067h4.273l1.104-1.243 1.791-.275 1.654-2.066.826-5.653-2.619-1.79h-2.202l-1.517.965-.414-.827z" fill="#ccc" transform="matrix(1.3333333 0 0 -1.3333333 1011.8697 519.28947)"/><path clip-path="url(#T)" d="m0 0s.324.648.65.648c.325 0 1.054.08 1.054.08l.08 4.215s-.566.323-.649.648c-.08.322-.08 1.864-.08 1.864l-.567.567-.081 17.019-1.622 4.376-1.377 2.35-1.134.891-1.784.161-2.026-1.297-1.216-.648-2.594.565-.97.651-1.542.079-1.378 2.513-2.835.891-1.296.406-3.89.324-1.134.081-1.461-.974-1.702-2.025-1.214-2.349-.162-3.81.892-1.216v-1.781l.405-.73v-1.54l-1.297 1.54-1.297 3.16-.647 1.945-.567-.811.161-2.594.08-2.105.73-1.947.73-2.753 1.216-3.485.971-3.729.893-3.565 1.701-3.241 1.459-2.026 3.323-3.323 2.107-1.458 3.241-1.136 3.646.079 1.133.814-1.458 1.376s-.242.89-.242 1.215c0 .326.485 1.946.485 1.946l1.54 1.621 4.457.81 1.54-1.135 2.026-2.269z" fill="#ccc" transform="matrix(1.3333333 0 0 -1.3333333 922.69147 546.37413)"/><path clip-path="url(#U)" d="m0 0v-2.434l.567-.324.163-.809 2.51-.407-.244.811-1.621 1.54-.405 1.136z" fill="#fffcfc" transform="matrix(1.3333333 0 0 -1.3333333 1060.026 496.4536)"/><path clip-path="url(#V)" d="m0 0-1.701-1.542-1.136-2.188-.404-2.268-.73-2.837-.324-2.188.324-4.782.163-2.592 1.538-2.433.81-.242.973-1.944 1.377 3.808.65-.486.404-2.836 2.27-1.945s-2.108 1.053-2.594 1.053-.566-.565-.566-.565l.566-1.216 1.296-1.297 2.271-.89 4.213-.081-.972-.972h-2.917l-.732-.567 1.055-1.54 1.296-2.025 2.351-1.135 2.429.647h.811l-.405-.971 1.216-.891 1.053-.971.973-1.054.809-.162v-1.216l-1.458-3.648-.326-1.7-.809-1.378-.485-2.105-1.459-2.513-.162-.891h.729l1.053 1.378 1.541.648 1.864 2.432s1.053-.327 1.297.162c.243.486 1.378 3.889 1.378 3.889l1.134.243.567 3.566.973-3.323.812-4.214-.326-3.567-2.107-3.888-.565-.651.323-1.295h1.54l1.783 1.866 3.078 4.132 1.218 4.133.648 8.024 1.377-3.73 1.297-3.645.65-2.836-.973-3.728-1.216-4.378 1.621 1.137 3.405 3.809 2.673 3.968.73 2.918.649 5.592-.406 4.376.161 1.621.568.891-.081 2.918-.567 1.215-1.944-2.593-.811-.162-2.27 1.54-.566.162-1.297 1.864-.889 2.999.079 3.403h-.486s.244 2.837.486 3.567c.244.728.567 2.105.567 2.105l-.405 2.999-1.539 2.837-1.864 1.619-2.998.892-3.487.973-2.025 1.619-3.81.405-1.944-.243-3.647 1.702-2.35.892-2.998.079-2.836.326z" fill="#d40000" transform="matrix(1.3333333 0 0 -1.3333333 1060.1355 450.09947)"/><path clip-path="url(#W)" d="m0 0-7.475.148-1.195.598-1.793-1.493h-3.438l-3.738-2.094-2.541-1.942-1.344.148-5.233-4.783.747-3.886.598-1.047.299-3.737.149-5.38-1.195-.898-1.794-4.486-1.047-3.885-.896-7.623.747-5.68-1.047-2.989-2.093-3.29-.448-1.644 1.793 1.196-.297.599.896-1.345 2.24 4.036.899-1.496.894-.148v5.082l-1.044 7.923 2.541-8.224.598-2.988.448.15.299 6.727 1.643-3.737.151-3.288.746-.599.451.897v4.933l-2.693 7.923-1.345 7.326 3.588-9.567 2.094-1.943 1.942-5.233 1.647-2.989.298-1.943 1.195.747.45.746-1.047.748.747.597-.151 2.69-.895 6.277h-.896l-3.14 6.577 2.84-4.037h1.196l.15 1.049-1.345 2.69-.299 3.14 2.691-3.888.895.448-1.494 4.337-.298 4.933.897-2.093-.15-2.392 1.944-2.393 1.942-1.045 1.495 1.792-1.048.749-.447 2.091-1.496 1.794v2.393l2.096-3.738 1.941-1.346 1.944-.448 1.944 1.345 3.287 3.738-.446.449-3.441-.151-2.69 1.794-2.391 2.241v1.943l.448-.296 1.045-2.095 1.945-1.944 2.241-.297 2.842-.151 3.137 2.84 1.646 5.382.448 2.989-.597 3.737-1.945 4.335-1.196 1.945z" fill="#d40000" transform="matrix(1.3333333 0 0 -1.3333333 886.28387 450.3364)"/><path clip-path="url(#X)" d="m0 0-7.924-8.219-1.047.298-2.84-2.392-.148-2.541 2.69-2.095 1.047-1.943.748.151 2.69-3.288 2.543-3.589 1.047-.6.745-1.642-1.343-1.943.448-1.198 2.092.301 2.394-.152 1.493-.896.598-2.691v-1.044l1.645.895 1.346 1.943.149 4.784-.297 1.344.445 3.589.449-4.783 1.048-1.495.746.599.896-3.141 1.944-1.943 1.047-1.792.152 1.194-.152 2.392 1.048 2.691 1.196 3.139 1.196.749 1.045-.453 1.498-1.492-.152-.598 1.346.15-.301 3.587-1.941 2.691-2.99 1.941-1.495 1.494-1.345 2.393 2.093-1.196 2.242-2.094 2.092-1.046 1.496-.297 2.543-4.934 1.643-2.392.299 3.289 1.195 3.738 1.198 1.642 1.494.152 1.944-.599-.449 2.243-1.495 2.84-2.989 2.69-3.14 2.391-2.69 1.199-2.393-2.095-.747-.298-1.346-1.197-1.045.448-3.439 3.291-.897.596-1.494 3.588-2.243 1.048-3.439-.3z" fill="#d40000" transform="matrix(1.3333333 0 0 -1.3333333 1032.9792 560.75693)"/><path clip-path="url(#Y)" d="m0 0-1.644-2.243v-3.736l.747-1.795-.747-7.025 3.738 5.231 1.344 2.692-.15 3.586-1.047 1.646-1.196 1.046z" fill="#4f4d9f" transform="matrix(1.3333333 0 0 -1.3333333 1057.6927 596.23227)"/><path clip-path="url(#Z)" d="m0 0-1.196-.297-1.346-2.839-.297-3.737.746-1.942v-2.693l.3-1.642 1.344 1.94 1.943 3.29.297 2.392v3.287l-.896 1.496z" fill="#4f4d9f" transform="matrix(1.3333333 0 0 -1.3333333 1074.2369 585.87147)"/><path clip-path="url(#aa)" d="m0 0 1.943 1.345 1.495 1.047 1.946 2.539-.301 1.943-1.197.897-1.494.598-1.345-.15-1.495-2.092.15-4.187z" fill="#4f4d9f" transform="matrix(1.3333333 0 0 -1.3333333 1030.7852 611.77773)"/><path clip-path="url(#ab)" d="m0 0 1.494-.596v-4.037l-2.54-2.84-2.839-2.093.148 2.691-.747.894v2.843l.599.746v1.344l2.54 1.348z" fill="#4748a5" transform="matrix(1.3333333 0 0 -1.3333333 909.40627 594.24267)"/><path clip-path="url(#ac)" d="m0 0 2.093.15 2.242-1.343.895-2.543-1.343-1.198-.747-1.194-.449-1.944.299-3.141.15-2.84-2.541 3.142-2.092 3.287-.152 3.288.748 2.84z" fill="#4748a5" transform="matrix(1.3333333 0 0 -1.3333333 883.49347 597.43013)"/><path clip-path="url(#ad)" d="m0 0-.598-2.091-.747-.448-.896-1.197v-4.483l-1.495.893-1.645 2.095-.895 2.243.298 5.678.748 2.393 1.793.599 1.794-.599 1.494-3.438z" fill="#4748a5" transform="matrix(1.3333333 0 0 -1.3333333 873.92573 592.4484)"/><path clip-path="url(#ae)" d="m0 0-.897-2.239-2.393-1.793c-.365 2.387.864 3.64 3.29 4.032" fill="#4748a5" transform="matrix(1.3333333 0 0 -1.3333333 874.12893 573.11627)"/><path clip-path="url(#af)" d="m0 0 1.048-1.792.897-2.84 1.493-1.646-.148-.896 2.092-1.792 2.093-3.289 3.438-2.839-2.541-2.244-5.979-4.485-1.945-.599-2.54 1.498.298-3.589 1.047-1.646-2.691.599-3.14-.297-1.943-1.646-.45-1.643-.746 1.195-1.048 1.645-.298.298-.597-.448.448-.297.149-2.99-.747-.6-.15-.895-3.437-2.241-.897 2.241-1.197 2.541-2.093 1.048-2.241-.301-2.541-1.494.746 2.092 1.495 2.392 2.84 2.392 2.84 1.793 2.242.895.599.301-.75.747-4.183-1.195-2.99-1.944-3.14-2.243-2.391-3.435-1.196-.897v2.539l-1.347 3.439-.448 2.244-1.346 1.642h-1.643l-2.242-.448 1.645 2.84 3.287 1.792 1.496 2.542 2.69 2.244 2.242.448 3.29-.448 1.642-.899 3.141-.148 1.942.148 2.393 1.198 1.944 3.589 2.689 3.884 3.142 1.645z" fill="#d40000" transform="matrix(1.3333333 0 0 -1.3333333 913.19147 558.16707)"/><path clip-path="url(#ag)" d="m0 0-4.333-1.198-2.99-2.393-3.887-4.034-3.14-5.682-3.587-4.335-6.579-2.689-5.979-.151-4.634 1.343-1.644 2.544-.449 3.287-.597 4.037-1.346 2.542-2.093 2.542-2.391 1.644 2.543 10.764.746 2.391v3.14l.448 4.184 2.242 3.737 2.242 2.093 3.887 1.794 6.875 1.793 6.877 2.242 7.176 1.643 8.072 1.945 3.437.297-.297-4.484.897-1.644-.151-11.66-.746-10.315z" fill="#784421" transform="matrix(1.3333333 0 0 -1.3333333 1010.056 503.5512)"/><path clip-path="url(#ah)" d="m0 0 4.185-.897 3.289-1.944 1.343-1.943 1.794 1.495.747 2.542 3.14 1.792 4.785 4.185-4.038 6.13-2.094 2.991-2.839 3.287-3.439 6.277-3.887 8.522h-2.092l-.299-16.891.151-6.128z" fill="#784421" transform="matrix(1.3333333 0 0 -1.3333333 1012.2513 503.35333)"/></g></g><path clip-path="url(#ai)" d="m0 0-1.346-4.036 4.636.748z" fill="#76401b" transform="matrix(1.3333333 0 0 -1.3333333 959.23307 401.1072)"/><g stroke="#000"><path clip-path="url(#aj)" d="m0 0 .151-3.14 12.856 4.036v1.196z" fill="#a05a2c" stroke-width=".38" transform="matrix(1.3333333 0 0 -1.3333333 955.44533 416.4536)"/><path clip-path="url(#ak)" d="m0 0-.299-2.989.897-6.577 3.289-18.087h1.644l.15 2.839z" fill="#44b3cc" stroke-width=".38" transform="matrix(1.3333333 0 0 -1.3333333 960.23053 422.83253)"/><path clip-path="url(#al)" d="m0 0-5.979 26.16 4.484-26.608z" fill="#50aece" stroke-width=".38" transform="matrix(1.3333333 0 0 -1.3333333 971.38933 457.91187)"/><path clip-path="url(#am)" d="m0 0 2.092.746-7.774 25.114z" fill="#50afce" stroke-width=".38" transform="matrix(1.3333333 0 0 -1.3333333 972.7864 457.51213)"/><path clip-path="url(#an)" d="m0 0 9.118-26.16-1.794-.597z" fill="#50abce" stroke-width=".38" transform="matrix(1.3333333 0 0 -1.3333333 968.20187 421.03827)"/><path clip-path="url(#ao)" d="m0 0-8.819 26.457 11.212-26.16z" fill="#50b0ce" stroke-width=".38" transform="matrix(1.3333333 0 0 -1.3333333 982.1536 455.11893)"/><path clip-path="url(#ap)" d="m0 0-10.465 25.263 13.005-25.563z" fill="#50b3ce" stroke-width=".38" transform="matrix(1.3333333 0 0 -1.3333333 986.53907 453.326)"/><path clip-path="url(#aq)" d="m0 0-1.411-.216-1.734-1.411-.759-1.844.109-3.362 1.192-2.06 2.062-2.17.976-1.626-.543-2.927-2.927-1.844-3.146-2.278-1.193-1.844-.435-2.06.111-2.17.432-.541 2.387.11 1.409.431 2.169.217 2.06-.325 3.144-2.169 4.448-4.014 1.95-2.278-1.408 3.363-.759 4.014-.542 4.012.651 2.386 1.085 1.519 1.193-.652.975.543 1.303-.652 1.085.652 1.734-.543 2.167 1.085 3.255 2.494h2.276l.653-.542 1.301.542.758-1.085 2.713 2.061 2.168 1.084 2.168-.867 2.821-.65 1.085.975 2.277.11 3.144.432 1.52-1.084 1.515-3.686 1.085-1.194 1.628-.325.868-.433 1.517-3.796 1.085-3.037.543-3.687-.219-.975.976.107 1.519-1.516 1.302-.652 1.084-1.193.323-1.951.87.107.759.976 1.519-.326 1.301-1.409 1.299-.109-2.278 15.075-2.169 1.193-.108 3.469 5.097 1.846.109 1.3-.759 2.17-.976 1.952-1.952-.217 1.518 4.88 3.796-3.905-1.736-.217 1.517-5.963 6.509 1.084 1.192-1.628-.433-1.409.544-.976.323-1.736 1.953-2.492 5.098-11.062 4.878-9.977 2.17 2.277 2.278.541 2.495 1.736 1.517.543 1.084 1.408 2.821.11 4.228-3.796.653.975 4.01.219 1.301-2.602.219-1.086 1.627.651 4.446-.975 2.711-2.169 2.059-.867.543-1.087 1.193 1.412.868-.11 1.41-.326 4.446.326 2.279 4.556s2.058 4.228 3.037 5.313c.975 1.084 4.988 5.422 4.988 5.422l4.879 3.255 3.687 2.06 3.47.433 3.255.11-.108 2.927-1.302 2.82-3.254 4.228-.651 3.362v2.062l2.82 1.844 3.362 2.711.11 2.82-.976 3.471-1.953 2.926-.651.543-1.085.216-1.518-.974-3.036-4.23-3.362-3.362-4.121-2.495-4.772-.542-7.59 1.192-5.313 1.628-6.617 2.494-6.941 3.254-3.796.761-5.748 2.818-2.169.11-.109-.977 1.734-1.734-.431-3.037-1.519-1.626-2.819-.11s.325-.219-1.301-.651c-1.628-.435-3.037 0-3.037 0l-2.711 1.627-2.603.433h-5.206l-5.747-.544-6.507-.541-3.253-2.82-2.821-.434-3.037.759-3.143 3.687.108 2.059 2.277 2.822-1.193.108-7.158-2.603-4.447-2.494-2.384-1.519-1.736.109-2.279-2.06-2.819-.217-1.628-1.734-.542.215-4.554-1.192-4.121-.759s-5.206-.76-5.748-.76c-.543 0-5.53.652-5.53.652l-3.689 1.844-1.734 1.951-1.628 1.085-2.168 2.276.109 1.736z" fill="#64b4d1" stroke-width=".38" transform="matrix(1.3333333 0 0 -1.3333333 877.2916 391.66453)"/><path clip-path="url(#ar)" d="m0 0 .579-2.903 1.936-3.484 3.674-3.191-3.094 2.225 2.321-3.096-3.965 2.514 3.868-2.514-4.063 5.804z" fill="none" stroke-width=".38" transform="matrix(1.3333333 0 0 -1.3333333 906.7552 512.9536)"/><path clip-path="url(#as)" d="m0 0-1.451-1.547-2.516.386.097-3.193 3.481-5.127-3.481 4.835.098 3.288 2.418-.19z" fill="#fffcfc" stroke-width=".38" transform="matrix(1.3333333 0 0 -1.3333333 900.43613 530.10587)"/><path clip-path="url(#at)" d="m0 0-.774 2.226v2.513z" fill="#fffcfc" stroke-width=".38" transform="matrix(1.3333333 0 0 -1.3333333 894.89067 541.97307)"/><path clip-path="url(#au)" d="m0 0 .482-2.806 1.935-3.382 1.257-1.646z" fill="#666" stroke-width=".38" transform="matrix(1.3333333 0 0 -1.3333333 960.01947 531.52787)"/><path clip-path="url(#av)" d="m0 0-1.839.577-1.644 1.551-2.322 4.156 2.418-3.095z" fill="#808080" stroke-width=".38" transform="matrix(1.3333333 0 0 -1.3333333 968.918 542.10067)"/><path clip-path="url(#aw)" d="m0 0-1.159-1.159-1.935-.485s-1.933.194-2.321.485c-.386.289-2.516 1.547-2.516 1.547l2.516-1.354h4.448z" fill="#666" stroke-width=".38" transform="matrix(1.3333333 0 0 -1.3333333 955.89187 525.46533)"/><path clip-path="url(#ax)" d="m0 0 .291-8.222.773-3.192 1.159-2.321 1.549-2.419.386.966 1.645-1.16.485.486-1.646 1.642-1.645 2.226-.969 2.321-1.062 3.966-.387 4.255h1.353l-.387.774z" fill="#666" stroke-width=".114" transform="matrix(1.3333333 0 0 -1.3333333 947.38147 527.01213)"/><path clip-path="url(#ay)" d="m0 0 3.096.29 2.902 2.419.483 1.646 1.354.968-.193-2.806.675-1.453 1.838-.58 1.159-1.062 2.034-.194 2.9 1.835 2.129 2.226 1.838 1.646 1.353.581.485 2.707h.87l.193 1.258-.387 2.416-.87 2.323-1.16 1.548-1.935 1.741-.869-.388 2.126-2.03 1.742-2.226.096-3.481-.483-1.354-2.612-3-3.385-3.675-1.645-.773-3.481.481-1.259 1.646-.289 1.16-.388 1.16v1.355l.485.967-3.578-4.062-1.452-.095z" fill="#808080" stroke-width=".114" transform="matrix(1.3333333 0 0 -1.3333333 996.12893 544.29467)"/><path clip-path="url(#az)" d="m0 0 .774.677.871-1.259.195-3.48.096-.098v-2.321l-1.353-2.516-2.903-3.095-3.385-1.449-3.096-.386-2.129.481-.773 1.258-.483 1.257v2.901l.581 1.161.193-.579-.097-3.193 1.063-1.257 2.224-.676 2.031.676 2.419.677 2.031 1.16.097.678-.774.096.193.29h1.161l1.451 2.903.482 2.419v1.934l-.578.58-.292.482v.679z" fill="#808080" stroke-width=".19" transform="matrix(1.3333333 0 0 -1.3333333 1058.1615 510.5056)"/><path clip-path="url(#aA)" d="m0 0-4.837-2.321-4.448-1.354-2.419.387 4.738-1.741 1.84 1.45 2.9 1.452z" fill="#666" stroke-width=".38" transform="matrix(1.3333333 0 0 -1.3333333 956.01947 570.21787)"/><path clip-path="url(#aB)" d="m0 0 2.611-.773 1.257-.486 2.709-.386-2.032-1.255 2.61-.579s-2.512-.292-2.899-.292c-.388 0-1.742-.871-1.742-.871s-.29-1.55.581-1.451c.872.098 2.127.292 2.61.292.484 0 2.032-.292 2.032-.292l.968-.774-.581-.872-4.062-.096.581-.485h3.289l-3.192-2.127 3.867.098 3.095-1.258v-.774l-2.997-.679-.678 1.164-3.868-1.065-.774-.968-1.45.968 1.16 2.514-.097 2.612-.581 2.032-1.354 2.997z" fill="#999" stroke-width=".152" transform="matrix(1.3333333 0 0 -1.3333333 961.0508 583.24267)"/><path clip-path="url(#aC)" d="m0 0-.615-4.617 1.231-3.231.155-4.463-.155 4.924-1.231 2.462z" fill="#fffcfc" stroke-width=".38" transform="matrix(1.3333333 0 0 -1.3333333 893.55853 420.51613)"/><path clip-path="url(#aD)" d="m0 0v-5.848l1.076-1.384-.305-6.156.922-1.845v-10.157" fill="none" stroke-width=".38" transform="matrix(1.3333333 0 0 -1.3333333 899.5104 424.21013)"/><path clip-path="url(#aE)" d="m0 0-1.23-2.308.461-4.155.308-2.923-.462-4.615" fill="none" stroke-width=".38" transform="matrix(1.3333333 0 0 -1.3333333 907.92053 414.97827)"/><path clip-path="url(#aF)" d="m0 0-.156-7.231.462-2.308v-4.003l.154-6.155v-4.155l-3.54 4.311 3.693-4.618.616-4.461.924-1.694-.615-2.308.153-3.847v-3.694-7.231l-3.54 8.617.309-17.85.309 10.309 1.231 1.848 2-5.08.307-2.308-.462 8.619" stroke-width=".38" transform="matrix(1.3333333 0 0 -1.3333333 912.8476 421.33773)"/><path clip-path="url(#aG)" d="m0 0-.156-7.079.769-3.846.616-4.154" fill="none" stroke-width=".38" transform="matrix(1.3333333 0 0 -1.3333333 945.2656 429.9536)"/><path clip-path="url(#aH)" d="m0 0 1.385-15.389" fill="#e2d67e" stroke-width=".38" transform="matrix(1.3333333 0 0 -1.3333333 954.08467 443.70093)"/><path clip-path="url(#aI)" d="m0 0 .308-8.926.616-3.847.153-4.154" fill="#ddd690" stroke-width=".38" transform="matrix(1.3333333 0 0 -1.3333333 901.35547 474.27253)"/><path clip-path="url(#aJ)" d="m0 0v1.54l6.771 1.54-1.078-.77.155-4.618" fill="#d38d5f" stroke-width=".38" transform="matrix(1.3333333 0 0 -1.3333333 963.11453 496.22707)"/><path clip-path="url(#aK)" d="m0 0v2.001l6.771 1.23-1.541-.308.309-4.77" fill="#d38d5f" stroke-width=".38" transform="matrix(1.3333333 0 0 -1.3333333 987.73573 491.09547)"/><path clip-path="url(#aL)" d="m0 0v1.54l5.694 1.075-.154-5.693" fill="#d38d5f" stroke-width=".38" transform="matrix(1.3333333 0 0 -1.3333333 968.24347 510.99787)"/><path clip-path="url(#aM)" d="m0 0v2.463l6.154 1.077.309-5.384" fill="#d38d5f" stroke-width=".38" transform="matrix(1.3333333 0 0 -1.3333333 986.29813 508.1268)"/><path clip-path="url(#aN)" d="m0 0 23.85 5.386" fill="#fffcfc" stroke-width=".761" transform="matrix(1.3333333 0 0 -1.3333333 961.06387 524.33373)"/><path clip-path="url(#aO)" d="m0 0 2.465-.309 40.623 9.234" fill="#c87137" stroke-width=".761" transform="matrix(1.3333333 0 0 -1.3333333 953.26427 504.43147)"/><path clip-path="url(#aP)" d="m0 0 6.309.926 35.085 9.232" fill="#c87137" stroke-width=".723" transform="matrix(1.3333333 0 0 -1.3333333 956.34373 490.48227)"/><g stroke-width=".38"><path clip-path="url(#aQ)" d="m0 0v-3.847l-1.385-.308v1.846z" fill="#d38d5f" transform="matrix(1.3333333 0 0 -1.3333333 959.6276 481.24787)"/><path clip-path="url(#aR)" d="m0 0 .153-3.848h-1.078l-.306 3.386z" fill="#d38d5f" transform="matrix(1.3333333 0 0 -1.3333333 963.93613 480.42627)"/><path clip-path="url(#aS)" d="m0 0-1.075-.614v-3.077l1.54.307z" fill="#d38d5f" transform="matrix(1.3333333 0 0 -1.3333333 967.2148 479.40147)"/><path clip-path="url(#aT)" d="m0 0-1.077-.924v-2.769l1.691.154z" fill="#d38d5f" transform="matrix(1.3333333 0 0 -1.3333333 971.11587 477.96533)"/><path clip-path="url(#aU)" d="m0 0-1.54-.616v-3.077l1.694.306z" fill="#d38d5f" transform="matrix(1.3333333 0 0 -1.3333333 975.63027 476.938)"/><path clip-path="url(#aV)" d="m0 0-1.385-.155v-3.847l1.695.308z" fill="#d38d5f" transform="matrix(1.3333333 0 0 -1.3333333 979.9388 475.70747)"/><path clip-path="url(#aW)" d="m0 0-1.538-.614.154-2.615 1.538.459z" fill="#d38d5f" transform="matrix(1.3333333 0 0 -1.3333333 985.47787 474.6828)"/><path clip-path="url(#aX)" d="m0 0-1.538-.769v-2.616h1.384z" fill="#d38d5f" transform="matrix(1.3333333 0 0 -1.3333333 990.60813 473.24787)"/><path clip-path="url(#aY)" d="m0 0-1.231-.615v-2.924h1.54z" fill="#d38d5f" transform="matrix(1.3333333 0 0 -1.3333333 994.71093 472.0148)"/><path clip-path="url(#aZ)" d="m0 0-1.231-.769v-2.307h1.695z" fill="#d38d5f" transform="matrix(1.3333333 0 0 -1.3333333 999.224 471.60587)"/><path clip-path="url(#a0)" d="m0 0-1.386-.616.156-2.308 1.384.308z" fill="#d38d5f" transform="matrix(1.3333333 0 0 -1.3333333 1004.1497 469.96267)"/><path clip-path="url(#a1)" d="m0 0-1.539-.77v-2.462l1.849.154z" fill="#d38d5f" transform="matrix(1.3333333 0 0 -1.3333333 1009.4831 468.73093)"/><path clip-path="url(#a2)" d="m0 0-.154-3.386 2.463.614-.309 3.232z" fill="#5db7d2" transform="matrix(1.3333333 0 0 -1.3333333 963.7292 463.8064)"/><path clip-path="url(#a3)" d="m0 0v-2.77h1.077v2.924z" fill="#5db7d2" transform="matrix(1.3333333 0 0 -1.3333333 968.03907 462.57733)"/><path clip-path="url(#a4)" d="m0 0v-3.077l1.538.462-.154 2.769z" fill="#5db7d2" transform="matrix(1.3333333 0 0 -1.3333333 971.3216 461.75693)"/><path clip-path="url(#a5)" d="m0 0 .154-2.308h1.383l.155 2.77z" fill="#5db7d2" transform="matrix(1.3333333 0 0 -1.3333333 975.63027 460.93533)"/><path clip-path="url(#a6)" d="m0 0v-2.464h2.153l-.307 2.772z" fill="#5db7d2" transform="matrix(1.3333333 0 0 -1.3333333 979.73307 460.11373)"/><path clip-path="url(#a7)" d="m0 0v-2.308l1.848.462-.462 2.463z" fill="#5db7d2" transform="matrix(1.3333333 0 0 -1.3333333 984.2448 459.09027)"/><path clip-path="url(#a8)" d="m0 0v-2.308l1.383.308-.306 2z" fill="#ccc" transform="matrix(1.3333333 0 0 -1.3333333 987.73573 458.06293)"/><path clip-path="url(#a9)" d="m0 0v-1.846h.925v2z" fill="#ccc" transform="matrix(1.3333333 0 0 -1.3333333 990.8112 457.24267)"/><path clip-path="url(#ba)" d="m0 0 .153-1.691 1.539.305-.154 2.001z" fill="#ccc" transform="matrix(1.3333333 0 0 -1.3333333 993.48053 457.03693)"/><path clip-path="url(#bb)" d="m0 0v-2.309h.925l.306 2.309z" fill="#ccc" transform="matrix(1.3333333 0 0 -1.3333333 997.582 455.39627)"/><path clip-path="url(#bc)" d="m0 0v-2.001l1.231-.154-.308 2.154h-.923z" fill="#ccc" transform="matrix(1.3333333 0 0 -1.3333333 1001.0716 454.7804)"/><path clip-path="url(#bd)" d="m0 0v-2.308l1.23-.154v2.001z" fill="#ccc" transform="matrix(1.3333333 0 0 -1.3333333 1004.3555 453.96013)"/><path clip-path="url(#be)" d="m0 0-.462-2.615h1.386l-.155 2z" fill="#ccc" transform="matrix(1.3333333 0 0 -1.3333333 1007.6367 452.9328)"/><path clip-path="url(#bf)" d="m0 0v-2.155l2.001.925-.31 2.309z" fill="#ccc" transform="matrix(1.3333333 0 0 -1.3333333 1010.0989 452.9328)"/></g><path clip-path="url(#bg)" d="m0 0 6 1.078" fill="none" stroke-width=".989" transform="matrix(1.3333333 0 0 -1.3333333 1013.5872 475.09427)"/><path clip-path="url(#bh)" d="m0 0 13.233 3.537" fill="#fffcfc" stroke-width="1.103" transform="matrix(1.3333333 0 0 -1.3333333 1013.5872 491.91587)"/><g stroke-width=".38"><g fill="#ddd690"><path clip-path="url(#bi)" d="m0 0-1.694-1.692.154-.617h2l.617 1.386z" transform="matrix(1.3333333 0 0 -1.3333333 927.82547 510.79347)"/><path clip-path="url(#bj)" d="m0 0 .309-1.847 1.384.155.769 1.383-.153 1.078-1.385-.308z" transform="matrix(1.3333333 0 0 -1.3333333 925.15493 507.71533)"/><path clip-path="url(#bk)" d="m0 0 .462-1.23h2.616v.922l-1.076.462z" transform="matrix(1.3333333 0 0 -1.3333333 929.66933 506.69053)"/><path clip-path="url(#bl)" d="m0 0 .152-1.384h1.848l.923 1.233-1.076.922z" transform="matrix(1.3333333 0 0 -1.3333333 929.26173 503.61373)"/><path clip-path="url(#bm)" d="m0 0-.308-.925.924-.461 2.003.461v.771z" transform="matrix(1.3333333 0 0 -1.3333333 924.33467 504.22707)"/><path clip-path="url(#bn)" d="m0 0v-1.077l2.001-.154.617.923-.77.616z" transform="matrix(1.3333333 0 0 -1.3333333 924.33467 501.15013)"/><path clip-path="url(#bo)" d="m0 0-.306-.923 1.845-.462.923.77-1.383.925z" transform="matrix(1.3333333 0 0 -1.3333333 929.66933 499.91973)"/><path clip-path="url(#bp)" d="m0 0-.308-1.385 1.231-.154 1.077.769.154 1.076-1.231.156z" transform="matrix(1.3333333 0 0 -1.3333333 924.5416 496.63587)"/><path clip-path="url(#bq)" d="m0 0v-1.384l2.002-.46v2l-.924.306z" transform="matrix(1.3333333 0 0 -1.3333333 929.05467 495.8156)"/><path clip-path="url(#br)" d="m0 0h-1.846l-.156-2.152 2.155.922z" transform="matrix(1.3333333 0 0 -1.3333333 926.5924 492.73747)"/><path clip-path="url(#bs)" d="m0 0-.769-1.539h2.155l.923 1.999-1.232.308z" transform="matrix(1.3333333 0 0 -1.3333333 928.6432 491.91587)"/><path clip-path="url(#bt)" d="m0 0 .156-1.232 2.002.308-.772 1.538z" transform="matrix(1.3333333 0 0 -1.3333333 928.02733 488.4288)"/><path clip-path="url(#bu)" d="m0 0-1.384.309.155-1.695 2 .308z" transform="matrix(1.3333333 0 0 -1.3333333 925.36067 489.046)"/><path clip-path="url(#bv)" d="m0 0-.154-1.539h2.463l-.462 1.539z" transform="matrix(1.3333333 0 0 -1.3333333 923.5156 485.352)"/><path clip-path="url(#bw)" d="m0 0v-1.847h2.309l-.464 1.847z" transform="matrix(1.3333333 0 0 -1.3333333 927.414 484.326)"/><path clip-path="url(#bx)" d="m0 0-1.538-1.845-.616 1.538 1.076 1.847z" transform="matrix(1.3333333 0 0 -1.3333333 925.77213 482.4796)"/><path clip-path="url(#by)" d="m0 0-.308-1.54h1.999v1.54l-.766.461z" transform="matrix(1.3333333 0 0 -1.3333333 927.61853 480.63067)"/><path clip-path="url(#bz)" d="m0 0h-1.076l-.154-1.232h1.845z" transform="matrix(1.3333333 0 0 -1.3333333 924.33467 478.17107)"/></g><path clip-path="url(#bA)" d="m0 0-.308-1.385h1.54v1.385z" fill="#e2d67e" transform="matrix(1.3333333 0 0 -1.3333333 927.20827 477.5552)"/><path clip-path="url(#bB)" d="m0 0-.308-1.384h2.154l.156 1.23z" fill="#e2d67e" transform="matrix(1.3333333 0 0 -1.3333333 926.5924 473.8612)"/><path clip-path="url(#bC)" d="m0 0-.309-2 1.846.768v1.077z" fill="#e2d67e" transform="matrix(1.3333333 0 0 -1.3333333 923.3112 474.6828)"/><path clip-path="url(#bD)" d="m0 0-.615-1.23.923-.463.77 1.078-.307.923z" fill="#e2d67e" transform="matrix(1.3333333 0 0 -1.3333333 923.10547 470.99)"/><path clip-path="url(#bE)" d="m0 0-.486-1.02.798-1.375 1.109.267.047 1.553-1.245.622z" fill="#e2d67e" transform="matrix(1.3333333 0 0 -1.3333333 926.49213 469.6072)"/><path clip-path="url(#bF)" d="m0 0-.401-1.11.799-.71s.664.265.664.49c0 .22.223.931.223.931l-.887.533z" fill="#e2d67e" transform="matrix(1.3333333 0 0 -1.3333333 923.00387 467.53173)"/><path clip-path="url(#bG)" d="m0 0-.267-1.243.622-.4 1.11-.088s.044.843.044 1.154c0 .309-.8.665-.8.665z" fill="#e2d67e" transform="matrix(1.3333333 0 0 -1.3333333 925.84373 466.76347)"/><path clip-path="url(#bH)" d="m0 0-.09-1.242.934-.223s.488.486.488.664c0 .177-.445.977-.445.977z" fill="#e2d67e" transform="matrix(1.3333333 0 0 -1.3333333 922.70707 464.51347)"/><path clip-path="url(#bI)" d="m0 0-.178-1.021s.356-.488.8-.488c.442 0 .62.443.62.619 0 .18-.178.934-.178.934z" fill="#e2d67e" transform="matrix(1.3333333 0 0 -1.3333333 925.48827 464.03947)"/><path clip-path="url(#bJ)" d="m0 0-.31-1.022.887-.399.667.888-.711.486z" fill="#e2d67e" transform="matrix(1.3333333 0 0 -1.3333333 922.5872 462.20493)"/><path clip-path="url(#bK)" d="m0 0-.133-.931s.62-.444.844-.31c.223.133.487.709.487.709l-.8.532z" fill="#e2d67e" transform="matrix(1.3333333 0 0 -1.3333333 925.36973 461.378)"/></g></g><path clip-path="url(#bL)" d="m0 0-.221-1.153s.664-.622.842-.534c.179.089 1.11.356 1.11.356l-.488 1.153s-.576.134-.754.134c-.177 0-.533 0-.489.044" fill="#e2d67e" transform="matrix(1.3333333 0 0 -1.3333333 921.75907 458.714)"/><g stroke="#000"><path clip-path="url(#bM)" d="m0 0-.221-1.153s.664-.622.842-.534c.179.089 1.11.356 1.11.356l-.488 1.153s-.576.134-.754.134c-.177 0-.533 0-.489.044z" fill="none" stroke-width=".38" transform="matrix(1.3333333 0 0 -1.3333333 921.75907 458.714)"/><path clip-path="url(#bN)" d="m0 0-.265-1.108 1.507-.268s.223 1.244-.087 1.244c-.313-.001-1.067.088-1.155.132" fill="#e2d67e" stroke-width=".38" transform="matrix(1.3333333 0 0 -1.3333333 924.8372 457.94453)"/><path clip-path="url(#bO)" d="m0 0-.266-.666.753-.576.622.353-.4.845z" fill="#e2d67e" stroke-width=".38" transform="matrix(1.3333333 0 0 -1.3333333 921.93747 455.9328)"/><path clip-path="url(#bP)" d="m0 0-.575-.889.93-.397.798.619z" fill="#e2d67e" stroke-width=".38" transform="matrix(1.3333333 0 0 -1.3333333 924.9544 455.34027)"/><path clip-path="url(#bQ)" d="m0 0-.398-.666.443-.709.711.577z" fill="#e2d67e" stroke-width=".38" transform="matrix(1.3333333 0 0 -1.3333333 921.99613 452.73747)"/><path clip-path="url(#bR)" d="m0 0-.354-.488.533-.708.885.487.09.399-.399.489z" fill="#e2d67e" stroke-width=".38" transform="matrix(1.3333333 0 0 -1.3333333 924.12627 452.14627)"/><path clip-path="url(#bS)" d="m0 0-.399-.932.886-.488.491.62-.313.711z" fill="#e2d67e" stroke-width=".38" transform="matrix(1.3333333 0 0 -1.3333333 921.70053 450.30907)"/><path clip-path="url(#bT)" d="m0 0-.488-.623.666-.665.842.489-.576.71z" fill="#e2d67e" stroke-width=".38" transform="matrix(1.3333333 0 0 -1.3333333 923.9492 449.12547)"/><path clip-path="url(#bU)" d="m0 0h-.355v-.754l1.02.089-.178.754z" fill="#e2d67e" stroke-width=".38" transform="matrix(1.3333333 0 0 -1.3333333 921.70053 448.23747)"/><path clip-path="url(#bV)" d="m0 0-.045-.843.932.133-.045.754z" fill="#e2d67e" stroke-width=".38" transform="matrix(1.3333333 0 0 -1.3333333 923.5352 447.05387)"/><path clip-path="url(#bW)" d="m0 0-.31-.442.532-.711.533.489s.178.664 0 .664z" fill="#e2d67e" stroke-width=".38" transform="matrix(1.3333333 0 0 -1.3333333 921.40493 446.1684)"/><path clip-path="url(#bX)" d="m0 0-.397-.354.486-.488.621.31z" fill="#e2d67e" stroke-width=".38" transform="matrix(1.3333333 0 0 -1.3333333 921.52213 444.21533)"/><path clip-path="url(#bY)" d="m0 0-.488-.709h.843z" fill="#e2d67e" stroke-width=".38" transform="matrix(1.3333333 0 0 -1.3333333 921.70053 442.73613)"/><path clip-path="url(#bZ)" d="m0 0 .09-.711h.71z" fill="#e2d67e" stroke-width=".38" transform="matrix(1.3333333 0 0 -1.3333333 923.1784 443.26733)"/><path clip-path="url(#b0)" d="m0 0s-.176-.932 0-.932c.178 0 .666.134.666.134z" fill="#e2d67e" stroke-width=".38" transform="matrix(1.3333333 0 0 -1.3333333 923.23827 444.8064)"/><path clip-path="url(#b1)" d="m0 0-.975-1.331.088-1.377 1.288-1.198 1.199 1.687z" fill="#d3c55f" stroke-width=".38" transform="matrix(1.3333333 0 0 -1.3333333 954.7252 473.3924)"/><path clip-path="url(#b2)" d="m0 0-1.198-1.732 1.154-1.821 1.198.753s.178 1.512-.045 1.779c-.222.265-1.153 1.066-1.109 1.021" fill="#d3c75f" stroke-width=".38" transform="matrix(1.3333333 0 0 -1.3333333 957.03387 470.84547)"/><path clip-path="url(#b3)" d="m0 0s-.532-.799-.532-.979c0-.176.311-1.462.311-1.462l.754-.978s.842.267.931.534c.089.264.4 1.287.4 1.287l-1.02 1.332z" fill="#e2d67e" stroke-width=".38" transform="matrix(1.3333333 0 0 -1.3333333 954.07427 467.59027)"/><path clip-path="url(#b4)" d="m0 0-.222-.443s-.132-1.067.133-1.244c.267-.177 1.066-1.022 1.066-1.022s.708.444.708.666c0 .223-.532 1.6-.532 1.6l-.62.62z" fill="#d3c95f" stroke-width=".38" transform="matrix(1.3333333 0 0 -1.3333333 951.58853 470.13587)"/><path clip-path="url(#b5)" d="m0 0-.354-.843.443-1.154.845-.843s.93.176.93.356v1.242l-.578.976-.975.443z" fill="#e2d67e" stroke-width=".38" transform="matrix(1.3333333 0 0 -1.3333333 949.16147 466.05253)"/><path clip-path="url(#b6)" d="m0 0-.222-.666s.089-.933.266-1.02c.178-.088.888-.445.888-.445l.62 1.022-.62 1.287z" fill="#e2d67e" stroke-width=".38" transform="matrix(1.3333333 0 0 -1.3333333 951.82547 464.98747)"/><path clip-path="url(#b7)" d="m0 0-.445-.976.266-.709.622-.311s.709.355.709.533v.932l-.798.489z" fill="#e2d67e" stroke-width=".38" transform="matrix(1.3333333 0 0 -1.3333333 950.526 462.14893)"/><path clip-path="url(#b8)" d="m0 0-.576-.754.222-.933.976-.31.665.8-.534 1.064z" fill="#e2d67e" stroke-width=".38" transform="matrix(1.3333333 0 0 -1.3333333 947.8008 463.09427)"/><path clip-path="url(#b9)" d="m0 0-.486-.443v-.578l.754-.579.709.357-.177.8-.355.532z" fill="#e2d67e" stroke-width=".38" transform="matrix(1.3333333 0 0 -1.3333333 946.79293 460.43013)"/><path clip-path="url(#ca)" d="m0 0-.312-.709.445-.933.712.4-.136.8z" fill="#e2d67e" stroke-width=".38" transform="matrix(1.3333333 0 0 -1.3333333 949.3984 459.66187)"/><path clip-path="url(#cb)" d="m0 0-.176-1.598 1.109.178.266.843-.397.623z" fill="#e2d67e" stroke-width=".38" transform="matrix(1.3333333 0 0 -1.3333333 947.6224 457.1176)"/><path clip-path="url(#cc)" d="m0 0c-.177-.044-.798-.089-.798-.089l.179-1.597.708.087.267.578-.089.709z" fill="#e2d67e" stroke-width=".38" transform="matrix(1.3333333 0 0 -1.3333333 946.08333 457.58893)"/><path clip-path="url(#cd)" d="m0 0-.532-.667.532-.887.488.089.309.665z" fill="#e2d67e" stroke-width=".38" transform="matrix(1.3333333 0 0 -1.3333333 944.30987 455.4588)"/><path clip-path="url(#ce)" d="m0 0-.443-.489.356-.533.443-.044.444.534-.399.486z" fill="#e2d67e" stroke-width=".38" transform="matrix(1.3333333 0 0 -1.3333333 946.61453 454.86507)"/><path clip-path="url(#cf)" d="m0 0-.312-.842.844-.222.221.533-.265.489z" fill="#e2d67e" stroke-width=".38" transform="matrix(1.3333333 0 0 -1.3333333 942.82947 453.32987)"/><path clip-path="url(#cg)" d="m0 0-.088-.976.931.089-.089.798z" fill="#e2d67e" stroke-width=".38" transform="matrix(1.3333333 0 0 -1.3333333 944.78253 452.73747)"/><path clip-path="url(#ch)" d="m0 0 .044-.843h.932s.311.976-.089.932c-.4-.045-.798-.132-.887-.089" fill="#e2d67e" stroke-width=".38" transform="matrix(1.3333333 0 0 -1.3333333 941.41013 451.25693)"/><path clip-path="url(#ci)" d="m0 0v-.844l.976.134-.222.753z" fill="#e2d67e" stroke-width=".38" transform="matrix(1.3333333 0 0 -1.3333333 943.77733 450.72307)"/><path clip-path="url(#cj)" d="m0 0h-.977l.134-.844.887.089z" fill="#e2d67e" stroke-width=".38" transform="matrix(1.3333333 0 0 -1.3333333 942.05987 449.5408)"/><path clip-path="url(#ck)" d="m0 0-.133-.8 1.022.045v.755z" fill="#e2d67e" stroke-width=".38" transform="matrix(1.3333333 0 0 -1.3333333 942.888 448.77)"/><path clip-path="url(#cl)" d="m0 0-.044-.933s1.108-.176 1.108 0c0 .179-.221.799-.221.799z" fill="#e2d67e" stroke-width=".38" transform="matrix(1.3333333 0 0 -1.3333333 941.5872 447.05387)"/><path clip-path="url(#cm)" d="m0 0h-.888l.091-1.021h1.065l.131.709z" fill="#e2d67e" stroke-width=".38" transform="matrix(1.3333333 0 0 -1.3333333 940.75787 447.17227)"/><path clip-path="url(#cn)" d="m0 0-.445-.443 1.377-2.175h.842l-.797 1.109s.131.531-.089.619c-.221.089-.399.089-.399.089z" fill="#e2d67e" stroke-width=".38" transform="matrix(1.3333333 0 0 -1.3333333 937.97787 443.14893)"/><path clip-path="url(#co)" d="m0 0-.31-.399 1.643-1.11v-.93l.755-.711.619-.176-.22.753-.31.842-.623.49-.442.797s-.222.045-.4.09c-.176.043-.355.31-.355.31z" fill="#e2d67e" stroke-width=".38" transform="matrix(1.3333333 0 0 -1.3333333 938.21227 442.02387)"/></g><path clip-path="url(#cp)" d="m0 0c-.74 13.461 11.434 26.925-21.337 40.39" fill="none" stroke="#4dcf4a" stroke-width=".761" transform="matrix(1.3333333 0 0 -1.3333333 942.32293 648.91187)"/><path clip-path="url(#cq)" d="m0 0c0 17.782-10.161 25.401-30.483 22.862" fill="none" stroke="#38bb26" stroke-width=".951" transform="matrix(1.3333333 0 0 -1.3333333 983.9844 638.75173)"/><path clip-path="url(#cr)" d="m0 0c-10.739 12.931-25.084 11.433-41.914 0" fill="none" stroke="#51c757" stroke-width=".761" transform="matrix(1.3333333 0 0 -1.3333333 998.20827 648.91187)"/><path clip-path="url(#cs)" d="m0 0c-4.079 7.602-18.968 2.595-35.055-3.813" fill="none" stroke="#51c757" stroke-width=".761" transform="matrix(1.3333333 0 0 -1.3333333 1033.7708 626.55907)"/><path clip-path="url(#ct)" d="m0 0c-4.064 11.685-11.176 18.29-21.338 19.814" fill="none" stroke="#7acb73" stroke-width=".685" transform="matrix(1.3333333 0 0 -1.3333333 1105.914 594.04467)"/><path clip-path="url(#cu)" d="m0 0c-2.696 6.036-5.518 11.825-12.192 9.907" fill="none" stroke="#4cb135" stroke-width=".951" transform="matrix(1.3333333 0 0 -1.3333333 1124.2057 569.65667)"/><path clip-path="url(#cv)" d="m0 0c3.55 12.188-.301 16.974-6.857 19.053" fill="none" stroke="#60c85a" stroke-width="1.065" transform="matrix(1.3333333 0 0 -1.3333333 905.74213 633.67227)"/><path clip-path="url(#cw)" d="m0 0c6.783 2.944 12.199 8.62 22.099 5.332" fill="none" stroke="#71ce5b" stroke-width=".989" transform="matrix(1.3333333 0 0 -1.3333333 828.5208 573.72053)"/><path clip-path="url(#cx)" d="m0 0c5.539-.116 9.407-2.278 10.668-7.619" fill="none" stroke="#71ce5b" stroke-width=".989" transform="matrix(1.3333333 0 0 -1.3333333 817.3424 563.56293)"/></svg>