<svg height="666.66669" viewBox="0 0 1000 666.66669" width="1000" xmlns="http://www.w3.org/2000/svg" xmlns:xlink="http://www.w3.org/1999/xlink"><clipPath id="a"><path d="m0 500h750v-500h-750z" transform="translate(-405.40041 -250.00001)"/></clipPath><g transform="matrix(1.3333333 0 0 -1.3333333 0 666.66667)"><path d="m0 0h750v500h-750z" fill="#239e46"/><path d="m0 125h750v375h-750z"/><path d="m0 375h750v125h-750z" fill="#e70013"/></g><path clip-path="url(#a)" d="m0 0 84.1 27.3-52-71.5v88.4l52-71.5zm13.8 44.2c-24.411 17.42-58.322 11.752-75.741-12.659-17.42-24.411-11.753-58.321 12.658-75.741 18.871-13.467 44.211-13.467 63.083 0-24.411-24.404-63.984-24.4-88.389.012-24.404 24.411-24.399 63.983.012 88.388 24.406 24.4 63.971 24.4 88.377 0" fill="#fff" transform="matrix(1.3333333 0 0 -1.3333333 540.53387 333.33333)"/></svg>