<svg height="600" viewBox="0 0 899.84003 600" width="899.84003" xmlns="http://www.w3.org/2000/svg" xmlns:xlink="http://www.w3.org/1999/xlink"><clipPath id="a"><path d="m0 0h674.88v450h-674.88z" transform="translate(-337.37991 -225.00001)"/></clipPath><clipPath id="b"><path d="m0 .08 337.38 224.92-337.38 224.92z" transform="translate(.1201 -450.00001)"/></clipPath><clipPath id="c"><path d="m0 0h674.88v450h-674.88z" transform="translate(-337.37991 -225.00001)"/></clipPath><path d="m0 0h674.88v450h-674.88z" fill="#002395" transform="matrix(1.3333333 0 0 -1.3333333 0 600)"/><path d="m0 225h674.88v225h-674.88z" fill="#de3831" transform="matrix(1.3333333 0 0 -1.3333333 0 600)"/><path d="m0 0 337.38 224.92-337.38 224.92zm337.38 224.92h337.5z" transform="matrix(1.3333333 0 0 -1.3333333 0 599.8936)"/><path clip-path="url(#a)" d="m0 0h337.5m-675 225 337.5-225-337.5-225" fill="none" stroke="#fff" stroke-width="150" transform="matrix(1.3333333 0 0 -1.3333333 449.83987 300)"/><path d="m0 0 337.38 224.92-337.38 224.92z" transform="matrix(1.3333333 0 0 -1.3333333 0 599.8932)"/><g fill="none"><path clip-path="url(#b)" d="m0 0 337.5-225-337.5-225" stroke="#ffb612" stroke-width="150" transform="matrix(1.3333333 0 0 -1.3333333 -.160133 0)"/><path clip-path="url(#c)" d="m0 0h337.5m-675 225 337.5-225-337.5-225" stroke="#007a4d" stroke-width="90" transform="matrix(1.3333333 0 0 -1.3333333 449.83987 300)"/></g></svg>