<?xml version="1.0" encoding="UTF-8" standalone="no"?>
<svg
   width="96"
   height="96"
   version="1.1"
   id="svg14"
   sodipodi:docname="nz.svg"
   inkscape:version="1.2.2 (732a01da63, 2022-12-09)"
   xml:space="preserve"
   xmlns:inkscape="http://www.inkscape.org/namespaces/inkscape"
   xmlns:sodipodi="http://sodipodi.sourceforge.net/DTD/sodipodi-0.dtd"
   xmlns:xlink="http://www.w3.org/1999/xlink"
   xmlns="http://www.w3.org/2000/svg"
   xmlns:svg="http://www.w3.org/2000/svg"><defs
     id="defs18"><clipPath
       id="c1"><path
         d="M0,0H6V3H0z"
         id="path26789" /></clipPath><clipPath
       id="c2"><path
         d="M0,0V1.5H6V3H6zM6,0H3V3H0V3z"
         id="path26792" /></clipPath><path
       id="Star7"
       d="M0,-360 69.421398,-144.155019 281.459334,-224.456329 155.988466,-35.603349 350.974048,80.107536 125.093037,99.758368 156.198146,324.348792 0,160 -156.198146,324.348792 -125.093037,99.758368 -350.974048,80.107536 -155.988466,-35.603349 -281.459334,-224.456329 -69.421398,-144.155019z" /><path
       id="Star5"
       d="M0,-210 54.859957,-75.508253 199.721868,-64.893569 88.765275,28.841586 123.434903,169.893569 0,93.333333 -123.434903,169.893569 -88.765275,28.841586 -199.721868,-64.893569 -54.859957,-75.508253z" /><clipPath
       id="c1-9"><path
         d="M0,0H6V3H0z"
         id="path29052" /></clipPath><clipPath
       id="c2-1"><path
         d="M0,0V1.5H6V3H6zM6,0H3V3H0V3z"
         id="path29055" /></clipPath><path
       id="Star7-6"
       d="M0,-360 69.421398,-144.155019 281.459334,-224.456329 155.988466,-35.603349 350.974048,80.107536 125.093037,99.758368 156.198146,324.348792 0,160 -156.198146,324.348792 -125.093037,99.758368 -350.974048,80.107536 -155.988466,-35.603349 -281.459334,-224.456329 -69.421398,-144.155019z" /><path
       id="Star5-9"
       d="M0,-210 54.859957,-75.508253 199.721868,-64.893569 88.765275,28.841586 123.434903,169.893569 0,93.333333 -123.434903,169.893569 -88.765275,28.841586 -199.721868,-64.893569 -54.859957,-75.508253z" /><clipPath
       id="c1-2"><path
         d="M0,0H6V3H0z"
         id="path30603" /></clipPath><clipPath
       id="c2-8"><path
         d="M0,0V1.5H6V3H6zM6,0H3V3H0V3z"
         id="path30606" /></clipPath><path
       id="Star7-67"
       d="M0,-360 69.421398,-144.155019 281.459334,-224.456329 155.988466,-35.603349 350.974048,80.107536 125.093037,99.758368 156.198146,324.348792 0,160 -156.198146,324.348792 -125.093037,99.758368 -350.974048,80.107536 -155.988466,-35.603349 -281.459334,-224.456329 -69.421398,-144.155019z" /><path
       id="Star5-5"
       d="M0,-210 54.859957,-75.508253 199.721868,-64.893569 88.765275,28.841586 123.434903,169.893569 0,93.333333 -123.434903,169.893569 -88.765275,28.841586 -199.721868,-64.893569 -54.859957,-75.508253z" /><clipPath
       id="Canton"><path
         d="M 0,0 L 600,0 L 600,300 L 0,300 z"
         id="path280606" /></clipPath><clipPath
       id="Diagonals"><path
         d="M 0,0 L 300,150 L 0,150 z M 300,0 L 600,0 L 300,150 z M 300,150 L 600,150 L 600,300 z M 300,150 L 300,300 L 0,300 z"
         id="path280609" /></clipPath><g
       id="Pentagram"><g
         id="Arm"
         transform="translate(0,-0.324925)"><path
           d="M 0,0 L 0,0.5 L 1,0 z"
           id="path280612" /><path
           d="M 0,0 L 0,-0.5 L 1,0 z"
           transform="rotate(-36,1,0)"
           id="path280614" /></g><use
         xlink:href="#Arm"
         transform="scale(-1,1)"
         id="use280617" /><use
         xlink:href="#Arm"
         transform="rotate(72,0,0)"
         id="use280619" /><use
         xlink:href="#Arm"
         transform="rotate(-72,0,0)"
         id="use280621" /><use
         xlink:href="#Arm"
         transform="rotate(-72,0,0) scale(-1,1)"
         id="use280623" /></g></defs><sodipodi:namedview
     id="namedview16"
     pagecolor="#505050"
     bordercolor="#eeeeee"
     borderopacity="1"
     inkscape:showpageshadow="0"
     inkscape:pageopacity="0"
     inkscape:pagecheckerboard="0"
     inkscape:deskcolor="#505050"
     showgrid="true"
     inkscape:zoom="9.4469466"
     inkscape:cx="31.121167"
     inkscape:cy="42.341723"
     inkscape:window-width="2560"
     inkscape:window-height="1377"
     inkscape:window-x="1912"
     inkscape:window-y="-8"
     inkscape:window-maximized="1"
     inkscape:current-layer="svg14"><inkscape:grid
       type="xygrid"
       id="grid3475"
       empspacing="8" /></sodipodi:namedview><g
     id="g31768"
     inkscape:label="nz"><rect
       style="fill:#012169;stroke-width:6.25981;stroke-linecap:round;fill-opacity:1"
       id="rect23460"
       width="600"
       height="600"
       x="0"
       y="0"
       transform="scale(0.16)" /><g
       id="g1587"
       transform="scale(0.16)"
       inkscape:label="union jack"><path
         id="path4673"
         style="color:#000000;display:inline;fill:#ffffff;-inkscape-stroke:none"
         d="M 0,0 V 42.431641 L 107.57446,150 0,257.56836 V 300 H 42.431641 L 150,192.42554 257.56836,300 H 300 V 257.56836 L 192.42554,150 300,42.431641 V 0 H 257.56836 L 150,107.57446 42.431641,0 Z" /><path
         id="path5492"
         style="color:#000000;display:inline;fill:#cf142b;-inkscape-stroke:none"
         d="M 0,0 V 28.283691 L 121.71631,150 0,271.71631 V 300 H 28.283691 L 150,178.28369 271.71631,300 H 300 V 271.71631 L 178.28369,150 300,28.283691 V 0 H 271.71631 L 150,121.71631 28.283691,0 Z" /><path
         d="M 150,150 V 120 L 30,0 H 0 Z m 0,0 h 30 L 300,30 V 0 Z m 0,0 v 30 l 120,120 h 30 z m 0,0 H 120 L 0,270 v 30 z"
         fill="#ffffff"
         id="path8"
         style="display:inline" /><path
         d="M 150,0 V 300 M 0,150 h 300"
         stroke="#ffffff"
         stroke-width="100"
         id="path10"
         style="display:inline" /><path
         d="M 150,0 V 300 M 0,150 h 300"
         stroke="#cf142b"
         stroke-width="60"
         id="path12"
         style="display:inline;stroke:#c8102e;stroke-opacity:1" /></g><g
       id="Southern_Cross"
       transform="matrix(0.10666667,0,0,0.10666667,-24.000002,15.999999)"><g
         id="Gamma_Crucis"><use
           xlink:href="#Pentagram"
           fill="#ffffff"
           transform="matrix(45.4,0,0,45.4,900,120)"
           id="use280638" /><use
           xlink:href="#Pentagram"
           fill="#c8102e"
           transform="matrix(30,0,0,30,900,120)"
           id="use280640" /></g><g
         transform="rotate(82,900,240)"
         id="g280653"><g
           id="Delta_Crucis"><use
             xlink:href="#Pentagram"
             fill="#ffffff"
             transform="matrix(5.6225933,-40.00683,40.00683,5.6225933,900,120)"
             id="use280643" /><use
             xlink:href="#Pentagram"
             fill="#c8102e"
             transform="matrix(3.4793275,-24.756702,24.756702,3.4793275,900,120)"
             id="use280645" /></g><g
           id="Beta_Crucis"><use
             xlink:href="#Pentagram"
             fill="#ffffff"
             transform="matrix(6.3184588,-44.95817,44.95817,6.3184588,900,380)"
             id="use280648" /><use
             xlink:href="#Pentagram"
             fill="#c8102e"
             transform="matrix(4.175193,-29.708042,29.708042,4.175193,900,380)"
             id="use280650" /></g></g><g
         id="Alpha_Crucis"><use
           xlink:href="#Pentagram"
           fill="#ffffff"
           transform="matrix(50.4,0,0,50.4,900,480)"
           id="use280655" /><use
           xlink:href="#Pentagram"
           fill="#c8102e"
           transform="matrix(35,0,0,35,900,480)"
           id="use280657" /></g></g></g></svg>
