<svg version="1.0" xmlns="http://www.w3.org/2000/svg" width="96" height="96" viewBox="0 0 600 600">
<style>
<![CDATA[.R{fill:#d12}.W{fill:#fff}.Y{fill:#fff}.N{fill:#000}.sketch{stroke:#08f;fill:none;stroke-linecap:round;stroke-linejoin:round}]]>
.leg {
    transform: rotate(calc(var(--n)*360deg/5));
    transform-origin: 0px 0px;
}
.petal {
    transform: rotate(calc(var(--n)*360deg/5));
    transform-origin: 300px 300px;
}
</style>
	<path class="R" d="M0 0h600v600H0z"/>
	<g class="thing">
		<mask id="mask0">
			<g id="petal" transform="translate(0,-100)">
				<circle class="Y" cx="300" cy="300" r="100"/>
				<path class="N" d="M0 0h150v-125H0z" transform="rotate(30 250,300) translate(250 300)"/>
				<path class="N" d="M0 0h140v-120H0z" transform="rotate(45 250,300) translate(250 300)"/>
				<circle class="Y" cx="250" cy="300" r="50"/>
				<circle class="N" cx="340" cy="300" r="40" transform="rotate(45 250,300)"/>
				<circle class="N" cx="250" cy="210" r="40" transform="rotate(30 250,300)"/>
				<g id="star" transform="translate(250,300)">
					<g id="q">
						<path id="t" d="M0,-20V0H10" transform="rotate(18 0,-20)"/>
						<use href="#t" transform="scale(-1,1)"/>
						</g>
					<use href="#q" class="leg" style="--n:1"/>
					<use href="#q" class="leg" style="--n:2"/>
					<use href="#q" class="leg" style="--n:3"/>
					<use href="#q" class="leg" style="--n:4"/>
					<use href="#q" class="leg" style="--n:5"/>
					</g>
				</g>
			</mask>
		<mask id="mask1">
			<use href="#petal" class="petal" style="--n:1"/>
			</mask>
		<mask id="mask2">
			<use href="#petal" class="petal" style="--n:2"/>
			</mask>
		<mask id="mask3">
			<use href="#petal" class="petal" style="--n:3"/>
			</mask>
		<mask id="mask4">
			<use href="#petal" class="petal" style="--n:4"/>
			</mask>
		<path class="W" d="M0 0h600v600H0z" mask="url(#mask0)"/>
		<path class="W" d="M0 0h600v600H0z" mask="url(#mask1)"/>
		<path class="W" d="M0 0h600v600H0z" mask="url(#mask2)"/>
		<path class="W" d="M0 0h600v600H0z" mask="url(#mask3)"/>
		<path class="W" d="M0 0h600v600H0z" mask="url(#mask4)"/>
		</g>
</svg>