<?xml version="1.0" encoding="UTF-8" standalone="no"?>
<svg
   height="600"
   viewBox="0 0 600 600"
   width="600"
   version="1.1"
   id="svg12"
   sodipodi:docname="square.svg"
   inkscape:version="1.4 (e7c3feb1, 2024-10-09)"
   xmlns:inkscape="http://www.inkscape.org/namespaces/inkscape"
   xmlns:sodipodi="http://sodipodi.sourceforge.net/DTD/sodipodi-0.dtd"
   xmlns="http://www.w3.org/2000/svg"
   xmlns:svg="http://www.w3.org/2000/svg">
  <defs
     id="defs12" />
  <sodipodi:namedview
     id="namedview12"
     pagecolor="#ffffff"
     bordercolor="#000000"
     borderopacity="0.25"
     inkscape:showpageshadow="2"
     inkscape:pageopacity="0.0"
     inkscape:pagecheckerboard="0"
     inkscape:deskcolor="#d1d1d1"
     inkscape:current-layer="svg12" />
  <path
     d="M 0,600 H 600 V 1.5e-5 H 0 Z"
     fill="#c8313e"
     id="path1"
     style="stroke-width:1.08947" />
  <path
     d="M 0,600 H 600 V 400 H 0 Z"
     fill="#4aa657"
     id="path2"
     style="stroke-width:1.08947" />
  <path
     d="M 0,600 H 133.33333 V 1.5e-5 H 0 Z"
     fill="#ffffff"
     id="path3"
     style="stroke-width:1.33333" />
  <g
     fill="#c8313e"
     id="g12">
    <path
       d="m 47.826,435.246 h 2.608 V 450 H 47.826 Z M 17.391,450 v -7.377 h -4.347 v -7.377 H 8.696 v -7.377 H 4.348 v -7.377 H 0 v -7.378 h 4.348 v -7.376 h 4.348 v -7.377 h 4.348 v -7.378 h 4.347 v -7.377 h 4.349 v -7.376 h 4.347 v 7.376 h 4.347 v 7.377 h 4.348 v 7.378 h 4.348 v 7.377 h 4.348 v 7.376 h 4.348 v 7.378 h -4.348 v 7.377 H 39.13 v 7.377 h -4.348 v 7.377 H 30.434 V 450 Z M 0,435.246 h 4.348 v 7.376 H 0 Z m 47.826,-51.64 h 2.608 v 14.755 H 47.826 Z M 0,390.983 h 4.348 v 7.377 H 0 Z m 34.782,-7.377 v -7.376 h -4.348 v -7.378 h -4.347 v -7.376 h 4.347 v -7.378 h 4.348 v -7.377 h 4.348 v 7.377 h 4.348 v 7.378 h 4.348 v 7.376 h -4.348 v 7.378 H 39.13 v 7.376 z m -26.086,0 V 376.23 H 4.348 v -7.378 H 0 v -7.376 h 4.348 v -7.378 h 4.348 v -7.377 h 4.348 v 7.377 h 4.347 v 7.378 h 4.349 v 7.376 h -4.349 v 7.378 h -4.347 v 7.376 z m 39.13,-51.638 h 2.608 v 14.754 h -2.608 z m -47.826,0 h 4.348 v 7.376 H 0 Z"
       transform="matrix(1.3333333,0,0,-1.3333333,0,600)"
       id="path4" />
    <path
       d="m 0,0 v -7.376 h -4.349 v -7.378 h -4.347 v -7.376 h -4.348 v -7.377 h -4.348 v -7.378 h -4.348 v -14.753 h 4.348 v -7.378 h 4.348 v -7.377 h 4.348 v -7.377 h 4.347 v 7.377 H 0 v 7.377 h 4.347 v 7.378 h -8.696 v 7.376 H 8.695 v -7.376 h 4.348 v -7.378 h 4.348 v -7.377 H 13.043 V -73.77 H 8.695 v -7.377 H 4.347 v -7.377 H 0 v -7.377 h -4.349 v -7.377 h -4.347 v 7.377 h -4.348 v 7.377 h -4.348 v 7.377 h -4.348 v -22.131 h 4.348 v -7.377 h 4.348 v -7.377 h 4.348 v -7.378 h 4.347 v -4.426 h 8.696 v 19.181 h 4.348 v 7.377 h 4.348 v 7.377 h 4.348 v 7.377 h 4.348 v 7.377 h 4.348 v 7.377 h 2.608 v 29.508 h -2.608 v 7.377 h -4.348 v 7.378 h -4.348 v 7.377 h -4.348 v 7.376 H 8.695 v 7.378 H 4.347 V 0 Z m -21.74,-73.77 h 4.348 v 7.377 h -4.348 z m 47.827,-22.131 h 2.608 v 7.377 h -2.608 z m -8.696,-7.377 v -14.754 h 4.348 v -7.378 h 4.348 v -4.426 h 2.608 v 11.804 h -2.608 v 7.377 h -4.348 v 7.377 z m -8.696,-26.558 h 4.348 v 4.426 H 8.695 Z"
       transform="matrix(1.3333333,0,0,-1.3333333,28.986,127.8696)"
       id="path5" />
    <path
       d="m 0,0 v -7.377 h -4.348 v -7.377 h -4.348 v -7.377 h -4.348 v -7.377 h -4.348 v -7.378 h 4.348 v -7.376 h 4.348 v -7.377 h 4.348 v -7.378 H 0 v -7.377 h 4.348 v -7.376 h 4.347 v 7.376 h 4.349 v 7.377 h 4.347 v 7.378 h 4.348 v 7.377 h 4.348 v 7.376 h 4.347 v 7.378 h -4.347 v 7.377 h -4.348 v 7.377 h -4.348 v 7.377 H 13.044 V 0 Z m -20,-14.754 h 2.608 V 0 H -20 Z m 46.087,0 h 4.348 v 7.376 h -4.348 z m 0,-44.263 h 4.348 v 7.377 H 26.087 Z M -20,-66.394 h 2.608 v 14.755 H -20 Z m 37.391,0 v -7.376 h -4.347 v -7.378 H 8.695 v -7.376 h 4.349 v -7.378 h 4.347 v -7.377 h 4.348 v 7.377 h 4.348 v 7.378 h 4.347 v 7.376 h -4.347 v 7.378 h -4.348 v 7.376 z m -26.087,0 v -7.376 h -4.348 v -7.378 h -4.348 v -7.376 h 4.348 v -7.378 h 4.348 v -7.377 h 4.348 v 7.377 H 0 v 7.378 h 4.348 v 7.376 H 0 v 7.378 h -4.348 v 7.376 z M -20,-118.032 h 2.608 v 14.754 H -20 Z m 46.087,0 h 4.348 v 7.376 h -4.348 z"
       transform="matrix(1.3333333,0,0,-1.3333333,92.754,0)"
       id="path6" />
    <path
       d="m 69.565,228.688 h -4.348 v -4.426 h 4.348 z M 60.87,250.82 h -4.348 v -7.377 h -4.348 v -7.378 h -2.609 v -11.803 h 2.609 v 4.426 h 4.348 v 7.377 h 4.348 z m -8.696,14.754 h -2.608 v -7.377 h 2.608 z M 100,287.705 h -4.348 v -7.377 H 100 Z m 0,29.508 h -4.348 v 7.377 h -4.348 v 7.377 h -4.347 v 7.377 h -4.348 v 7.377 h -4.348 v 7.377 h -4.348 v -7.377 h -4.348 v -7.377 h -4.348 v -7.377 H 60.87 v -7.377 h -4.348 v -7.377 h -4.348 v -7.377 h -2.609 v -29.508 h 2.609 v -7.377 h 4.348 v -7.377 h 4.348 v -7.377 h 4.347 v -7.377 h 4.348 v -7.377 h 4.348 v -19.181 h 8.696 v 4.426 h 4.348 v 7.377 h 4.347 v 7.378 h 4.348 v 7.377 H 100 v 22.131 h -4.348 v -7.377 h -4.348 v -7.377 h -4.347 v -7.377 h -4.348 v 7.377 h -4.348 v 7.377 h -4.348 v 7.377 h -4.348 v 7.377 h -4.348 v 7.377 H 60.87 v 7.377 h 4.347 v 7.377 h 4.348 v 7.377 h 13.044 v -7.377 h -8.696 v -7.377 h 4.348 v -7.377 h 4.348 v -7.377 h 4.348 v 7.377 h 4.347 v 7.377 h 4.348 v 7.377 H 100 Z"
       transform="matrix(1.3333333,0,0,-1.3333333,0,600)"
       id="path7" />
    <path
       d="m 47.826,103.279 h 2.608 v 14.755 H 47.826 Z M 0,110.655 h 4.348 v 7.378 H 0 Z m 34.782,-7.376 v -7.378 h -4.348 v -7.377 h -4.347 v -7.376 h 4.347 V 73.77 h 4.348 v -7.376 h 4.348 v 7.376 h 4.348 v 7.378 h 4.348 v 7.376 h -4.348 v 7.377 H 39.13 v 7.378 z m -26.086,0 V 95.901 H 4.348 V 88.524 H 0 V 81.148 H 4.348 V 73.77 h 4.348 v -7.376 h 4.348 v 7.376 h 4.347 v 7.378 h 4.349 v 7.376 h -4.349 v 7.377 h -4.347 v 7.378 z M 21.74,73.77 V 66.394 H 17.391 V 59.017 H 13.044 V 51.639 H 8.696 V 44.263 H 4.348 V 36.886 H 0 v -7.379 h 4.348 v -7.376 h 4.348 v -7.377 h 4.348 V 7.377 h 4.347 V 0 h 13.043 v 7.377 h 4.348 v 7.377 h 4.348 v 7.377 h 4.348 v 7.376 h 4.348 v 7.379 h -4.348 v 7.377 H 39.13 v 7.376 h -4.348 v 7.378 h -4.348 v 7.377 H 26.087 V 73.77 Z M 47.826,51.639 h 2.608 V 66.394 H 47.826 Z M 0,51.639 h 4.348 v 7.377 H 0 Z M 47.826,0 h 2.608 V 14.754 H 47.826 Z M 0,7.377 h 4.348 v 7.376 H 0 Z"
       transform="matrix(1.3333333,0,0,-1.3333333,0,600)"
       id="path8" />
    <path
       d="m 0,0 v -4.426 h -4.348 v -7.377 h -4.348 v -14.754 h 4.348 v 7.376 H 0 v 7.378 H 2.608 V 0 Z m -17.392,-4.426 h 4.348 V 0 h -4.348 z M -30.435,0 v -4.426 h -4.347 v -7.377 h -4.348 v -7.378 h -4.348 v -7.376 h -4.348 v -22.132 h 4.348 v 7.377 h 4.348 v 7.378 h 4.348 v 7.377 h 4.347 v -7.377 h 4.348 v -7.378 h 4.347 v -7.377 h 4.348 v -7.377 h 4.348 v -7.377 h 4.348 v -7.377 h -4.348 v -7.377 h -4.348 v -7.377 h -13.043 v 7.377 h 8.695 v 7.377 h -4.347 v 7.377 h -4.348 v 7.377 h -4.347 v -7.377 h -4.348 v -7.377 h -4.348 v -7.377 h -4.348 v -14.754 h 4.348 v -7.376 h 4.348 v -7.378 h 4.348 v -7.378 h 4.347 v -7.376 h 4.348 v -7.378 h 4.347 v 7.378 h 4.348 v 7.376 h 4.348 v 7.378 h 4.348 v 7.378 h 4.348 v 7.376 H 0 v 7.377 h 2.608 v 29.508 H 0 v 7.377 h -4.348 v 7.377 h -4.348 v 7.378 h -4.348 v 7.377 h -4.348 v 7.376 H -21.74 V 0 Z M 0,-41.312 h 2.608 v 7.377 H 0 Z m -47.826,-22.131 h 4.348 v 7.376 h -4.348 z"
       transform="matrix(1.3333333,0,0,-1.3333333,63.768,299.016)"
       id="path9" />
    <g
       transform="matrix(1.3333333,0,0,-1.3333333,0,600)"
       id="g11">
      <path
         d="M 95.652,110.655 H 100 v 7.378 h -4.348 z m -46.086,-7.376 h 2.608 v 14.755 h -2.608 z m 37.39,0 V 95.901 H 82.609 V 88.524 H 78.26 v -7.376 h 4.349 V 73.77 h 4.347 v -7.376 h 4.348 v 7.376 h 4.348 v 7.378 H 100 v 7.376 h -4.348 v 7.377 h -4.348 v 7.378 z m -26.086,0 v -7.378 h -4.348 v -7.377 h -4.348 v -7.376 h 4.348 V 73.77 h 4.348 v -7.376 h 4.348 v 7.376 h 4.348 v 7.378 h 4.347 v 7.376 h -4.347 v 7.377 h -4.348 v 7.378 z M 73.913,73.77 V 66.394 H 69.566 V 59.017 H 65.218 V 51.639 H 60.87 v -7.376 h -4.348 v -7.377 h -4.348 v -7.379 h 4.348 v -7.376 h 4.348 v -7.377 h 4.348 V 7.377 h 4.348 V 0 h 13.043 v 7.377 h 4.347 v 7.377 h 4.348 v 7.377 h 4.348 v 7.376 H 100 v 7.379 h -4.348 v 7.377 h -4.348 v 7.376 h -4.348 v 7.378 h -4.347 v 7.377 H 78.26 V 73.77 Z M 49.566,51.639 h 2.608 v 14.755 h -2.608 z m 46.086,0 H 100 v 7.377 h -4.348 z m 0,-44.262 H 100 v 7.376 H 95.652 Z M 49.566,0 h 2.608 v 14.754 h -2.608 z"
         id="path10" />
      <path
         d="m 69.565,221.312 h -4.348 v 4.426 h 4.348 z M 60.87,199.181 h -4.348 v 7.377 h -4.348 v 7.377 h -2.609 v 11.803 h 2.609 v -4.426 h 4.348 v -7.377 h 4.348 z m -8.696,-14.755 h -2.608 v 7.378 h 2.608 z M 100,162.295 h -4.348 v 7.377 H 100 Z m 0,-29.508 h -4.348 v -7.377 h -4.348 v -7.377 h -4.347 v -7.378 h -4.348 v -7.377 h -4.348 v -7.377 h -4.348 v 7.377 h -4.348 v 7.377 h -4.348 v 7.378 H 60.87 v 7.377 h -4.348 v 7.377 h -4.348 v 7.377 h -2.609 v 29.508 h 2.609 v 7.377 h 4.348 v 7.377 h 4.348 v 7.378 h 4.347 v 7.377 h 4.348 v 7.377 h 4.348 v 19.18 h 8.696 v -4.426 h 4.348 v -7.377 h 4.347 v -7.377 h 4.348 v -7.377 H 100 v -22.132 h -4.348 v 7.377 h -4.348 v 7.378 h -4.347 v 7.377 h -4.348 v -7.377 h -4.348 v -7.378 h -4.348 v -7.377 h -4.348 v -7.377 h -4.348 v -7.377 H 60.87 v -7.377 h 4.347 v -7.377 h 4.348 v -7.377 h 13.044 v 7.377 h -8.696 v 7.377 h 4.348 v 7.377 h 4.348 v 7.377 h 4.348 v -7.377 h 4.347 v -7.377 h 4.348 v -7.377 H 100 Z"
         id="path11" />
    </g>
  </g>
</svg>
