<svg height="533.33331" viewBox="0 0 800 533.33331" width="800" xmlns="http://www.w3.org/2000/svg"><path d="m0 0h600v400h-600z" fill="#6ab2e7" transform="matrix(1.3333333 0 0 -1.3333333 0 533.33333)"/><path d="m0 0h600v200h-600z" fill="#12ad2b" transform="matrix(1.3333333 0 0 -1.3333333 0 533.33333)"/><path d="m0 0v-200-200l173.205 100 173.205 100-173.205 100z" fill="#fff" transform="matrix(1.3333333 0 0 -1.3333333 0 .000533)"/><path d="m0 0 12.411-38.197h40.162l-32.492-23.607 12.411-38.196-32.492 23.606-32.492-23.606 12.411 38.196-32.492 23.607h40.162z" fill="#d7141a" transform="matrix(1.3333333 0 0 -1.3333333 176.76427 200)"/></svg>