<?xml version="1.0" encoding="UTF-8" standalone="no"?>
<!-- Created with Inkscape (http://www.inkscape.org/) -->

<svg
   width="96"
   height="96"
   viewBox="0 0 96.000001 96"
   version="1.1"
   id="svg5"
   inkscape:version="1.2.2 (732a01da63, 2022-12-09)"
   sodipodi:docname="square_v2.svg"
   inkscape:export-filename="square_v3.svg"
   inkscape:export-xdpi="96"
   inkscape:export-ydpi="96"
   xmlns:inkscape="http://www.inkscape.org/namespaces/inkscape"
   xmlns:sodipodi="http://sodipodi.sourceforge.net/DTD/sodipodi-0.dtd"
   xmlns="http://www.w3.org/2000/svg"
   xmlns:svg="http://www.w3.org/2000/svg">
  <sodipodi:namedview
     id="namedview7"
     pagecolor="#505050"
     bordercolor="#eeeeee"
     borderopacity="1"
     inkscape:showpageshadow="0"
     inkscape:pageopacity="0"
     inkscape:pagecheckerboard="0"
     inkscape:deskcolor="#505050"
     inkscape:document-units="px"
     showgrid="true"
     inkscape:zoom="7.856742"
     inkscape:cx="15.655344"
     inkscape:cy="35.383623"
     inkscape:window-width="1920"
     inkscape:window-height="1017"
     inkscape:window-x="-8"
     inkscape:window-y="-8"
     inkscape:window-maximized="1"
     inkscape:current-layer="layer1">
    <inkscape:grid
       type="xygrid"
       id="grid2138"
       originx="0"
       originy="0"
       empspacing="6" />
  </sodipodi:namedview>
  <defs
     id="defs2">
    <inkscape:path-effect
       effect="copy_rotate"
       starting_point="0,0"
       origin="48,48"
       id="path-effect9543"
       is_visible="true"
       lpeversion="1.2"
       lpesatellites=""
       method="normal"
       num_copies="6"
       starting_angle="0"
       rotation_angle="60"
       gap="-0.01"
       copies_to_360="true"
       mirror_copies="false"
       split_items="false"
       link_styles="false" />
    <inkscape:path-effect
       effect="mirror_symmetry"
       start_point="84,48"
       end_point="0,48"
       center_point="42,48"
       id="path-effect8755"
       is_visible="true"
       lpeversion="1.2"
       lpesatellites=""
       mode="free"
       discard_orig_path="false"
       fuse_paths="false"
       oposite_fuse="false"
       split_items="false"
       split_open="false"
       link_styles="false" />
    <inkscape:path-effect
       effect="mirror_symmetry"
       start_point="48,0"
       end_point="48,96"
       center_point="48,48"
       id="path-effect8027"
       is_visible="true"
       lpeversion="1.2"
       lpesatellites=""
       mode="free"
       discard_orig_path="false"
       fuse_paths="false"
       oposite_fuse="false"
       split_items="false"
       split_open="false"
       link_styles="false" />
  </defs>
  <g
     inkscape:label="Layer 1"
     inkscape:groupmode="layer"
     id="layer1">
    <rect
       style="fill:#113399;stroke-width:2;stroke-linecap:round;stroke-linejoin:round;fill-opacity:1"
       id="rect5146"
       width="96"
       height="96"
       x="0"
       y="0" />
    <rect
       style="fill:#cc1133;fill-opacity:1;stroke-width:2;stroke-linecap:round;stroke-linejoin:round"
       id="rect5202"
       width="72"
       height="72"
       x="12"
       y="12" />
    <g
       id="g7653"
       inkscape:path-effect="#path-effect9543"
       class="UnoptimicedTransforms">
      <path
         style="fill:#ffffff;fill-opacity:1;stroke-width:2;stroke-linecap:round;stroke-linejoin:round"
         d="m 48,18 -9,21 -21,9 h 30 z m 0,0 9,21 21,9 H 48 Z M 48,78 39,57 18,48 h 30 z m 0,0 9,-21 21,-9 H 48 Z M 22.019238,33 35.705771,51.294229 33,73.980762 48,48 Z m 0,0 22.686533,2.705771 L 63,22.019238 48,48 Z M 73.980762,63 51.294229,60.294229 33,73.980762 48,48 Z m 0,0 L 60.294229,44.705771 63,22.019238 48,48 Z M 22.019238,63 44.705771,60.294229 63,73.980762 48,48 Z m 0,0 L 35.705771,44.705771 33,22.019238 48,48 Z M 73.980762,33 60.294229,51.294229 63,73.980762 48,48 Z m 0,0 L 51.294229,35.705771 33,22.019238 48,48 Z M 48,78 57,57 78,48 H 48 Z m 0,0 -9,-21 -21,-9 h 30 z m 0,-60 9,21 21,9 H 48 Z m 0,0 -9,21 -21,9 H 48 Z M 73.980762,63 60.294229,44.705771 63,22.019238 48,48 Z m 0,0 L 51.294229,60.294229 33,73.980762 48,48 Z M 22.019238,33 44.705771,35.705771 63,22.019238 48,48 Z m 0,0 L 35.705771,51.294229 33,73.980762 48,48 Z M 73.980762,33 51.294229,35.705771 33,22.019238 48,48 Z m 0,0 L 60.294229,51.294229 63,73.980762 48,48 Z M 22.019238,63 35.705771,44.705771 33,22.019238 48,48 Z m 0,0 L 44.705771,60.294229 63,73.980762 48,48 Z"
         id="path7650"
         sodipodi:nodetypes="ccccc"
         inkscape:path-effect="#path-effect8027;#path-effect8755"
         inkscape:original-d="M 48,18 39,39 18,48 H 48 Z"
         class="UnoptimicedTransforms" />
    </g>
  </g>
</svg>
