<svg height="800" viewBox="0 0 1200 800" width="1200" xmlns="http://www.w3.org/2000/svg" xmlns:xlink="http://www.w3.org/1999/xlink"><clipPath id="a"><path d="m0 600h900v-600h-900z" transform="translate(-325.19241 -383.20511)"/></clipPath><clipPath id="b"><path d="m0 600h900v-600h-900z" transform="translate(-325.19241 -383.20511)"/></clipPath><clipPath id="c"><path d="m0 600h900v-600h-900z" transform="translate(-293.99071 -105.8545)"/></clipPath><clipPath id="d"><path d="m0 600h900v-600h-900z" transform="translate(-283.17381 -98.643602)"/></clipPath><clipPath id="e"><path d="m0 600h900v-600h-900z" transform="translate(-751.61822 -410.93991)"/></clipPath><clipPath id="f"><path d="m0 600h900v-600h-900z" transform="translate(-740.80182 -403.72901)"/></clipPath><clipPath id="g"><path d="m0 600h900v-600h-900z" transform="translate(-694.41502 -462.94341)"/></clipPath><clipPath id="h"><path d="m0 600h900v-600h-900z" transform="translate(-701.62602 -452.12701)"/></clipPath><path d="m0 0h900v600h-900z" fill="#fff" transform="matrix(1.3333333 0 0 -1.3333333 0 800)"/><path d="m0 0 83.205 124.808m-114.407-104.007 83.205 124.808m-114.407-104.006 83.205 124.807" transform="matrix(1.3333333 0 0 -1.3333333 281.04747 307.55013)"/><path d="m0 0-20.801 13.867 83.205 124.808 20.802-13.867zm31.202-20.801-20.802 13.867 83.206 124.808 20.801-13.868zm31.202-20.802-20.801 13.868 83.205 124.807 20.801-13.867z" transform="matrix(1.3333333 0 0 -1.3333333 211.7096 261.32493)"/><path d="m0 0 83.205 124.808m-114.407-104.006 83.205 124.807m-114.406-104.006 83.205 124.807" transform="matrix(1.3333333 0 0 -1.3333333 891.21747 714.33067)"/><path d="m0 0-20.801 13.867 83.205 124.808 20.801-13.867zm31.201-20.801-20.801 13.867 83.205 124.808 20.801-13.867zm31.202-20.802-20.8 13.868 83.205 124.807 20.8-13.867z" transform="matrix(1.3333333 0 0 -1.3333333 821.88027 668.10547)"/><path d="m0 0 104.007-69.337" transform="matrix(1.3333333 0 0 -1.3333333 835.74733 557.16533)"/><path d="m0 0-104.007 69.337 13.867 20.801 104.007-69.337z" fill="#fff" transform="matrix(1.3333333 0 0 -1.3333333 965.1784 663.48173)"/><path clip-path="url(#a)" d="m0 0c45.953 68.929 139.083 87.555 208.013 41.603 68.929-45.954 87.555-139.083 41.602-208.013s-139.083-87.556-208.012-41.603c-68.93 45.953-87.556 139.084-41.603 208.013" fill="#c60c30" transform="matrix(1.3333333 0 0 -1.3333333 433.58987 289.05987)"/><path clip-path="url(#b)" d="m0 0c-22.977-34.465-13.663-81.03 20.801-104.006 34.465-22.976 81.03-13.664 104.007 20.801 22.976 34.465 69.542 43.778 104.005 20.801 34.465-22.976 43.779-69.541 20.802-104.006-45.953-68.93-139.083-87.556-208.012-41.603-68.93 45.953-87.556 139.084-41.603 208.013" fill="#003478" transform="matrix(1.3333333 0 0 -1.3333333 433.58987 289.05987)"/><path clip-path="url(#c)" d="m0 0-83.205 124.808m52.003-145.609-83.205 124.808m52.003-145.61-83.205 124.808" transform="matrix(1.3333333 0 0 -1.3333333 391.9876 658.86067)"/><path clip-path="url(#d)" d="m0 0-83.205 124.808 21.633 14.421 83.206-124.807zm-31.202-20.801-83.205 124.808 21.634 14.422 83.204-124.808zm-31.202-20.802-83.204 124.808 21.633 14.422 83.204-124.808z" transform="matrix(1.3333333 0 0 -1.3333333 377.56507 668.4752)"/><path clip-path="url(#e)" d="m0 0-83.205 124.808m52.003-145.609-83.205 124.807m52.004-145.609-83.205 124.808" transform="matrix(1.3333333 0 0 -1.3333333 1002.1576 252.08013)"/><path clip-path="url(#f)" d="m0 0-83.205 124.808 21.633 14.421 83.205-124.807zm-31.202-20.801-83.205 124.807 21.633 14.422 83.205-124.807zm-31.201-20.802-83.205 124.808 21.632 14.422 83.205-124.808z" transform="matrix(1.3333333 0 0 -1.3333333 987.73573 261.69467)"/><path clip-path="url(#g)" d="m0 0 31.201 20.801m-98.805-65.87 36.402 24.268m-457.628-305.086 31.202 20.802" transform="matrix(1.3333333 0 0 -1.3333333 925.88667 182.74213)"/><path clip-path="url(#h)" d="m0 0-14.422 21.633 31.201 20.801 14.422-21.633zm-67.604-45.07-14.422 21.634 36.402 24.268 14.422-21.634zm-421.225-280.817-14.423 21.633 31.202 20.802 14.423-21.633z" fill="#fff" transform="matrix(1.3333333 0 0 -1.3333333 935.50133 197.164)"/></svg>