<svg height="1440" viewBox="0 0 2160 1440" width="2160" xmlns="http://www.w3.org/2000/svg"><path d="m0 0h1620v1080h-1620z" fill="#ce1126" transform="matrix(1.3333333 0 0 -1.3333333 0 1440)"/><path d="m0 540h810v540h-810z" fill="#002b7f" transform="matrix(1.3333333 0 0 -1.3333333 0 1440)"/><g fill="#fff"><path d="m0 0-17.705 54.492-17.705-54.492h-57.295l46.352-33.677-17.704-54.491 46.352 33.677 46.352-33.677-17.705 54.491 46.353 33.677z" transform="matrix(1.3333333 0 0 -1.3333333 564.94013 572.44267)"/><path d="m0 0-14.165 42.973-14.164-42.973h-45.836l37.082-26.557-14.164-42.97 37.082 26.557 37.082-26.557-14.164 42.97 37.082 26.557z" transform="matrix(1.3333333 0 0 -1.3333333 340.21947 267.29747)"/><path d="m0 0 34.764 24.787h-42.971l-13.279 40.105-13.279-40.105h-42.971l34.764-24.787-13.28-40.108 34.766 24.789 34.766-24.789z" transform="matrix(1.3333333 0 0 -1.3333333 794.98107 266.5228)"/><path d="m0 0-14.164-42.97 37.082 26.556 37.082-26.556-14.164 42.97 37.082 26.557h-45.835l-14.165 42.973-14.164-42.973h-45.836z" transform="matrix(1.3333333 0 0 -1.3333333 510.77533 122.7064)"/><path d="m0 0-8.852 27.242-8.851-27.242h-28.649l23.177-16.84-8.853-27.246 23.176 16.839 23.176-16.839-8.852 27.246 23.176 16.84z" transform="matrix(1.3333333 0 0 -1.3333333 663.13547 401.2188)"/></g></svg>