<?xml version="1.0" encoding="UTF-8" standalone="no"?>
<svg
   height="356"
   viewBox="0 0 533.33331 356"
   width="533.33331"
   version="1.1"
   id="svg27"
   sodipodi:docname="rect.svg"
   inkscape:version="1.4 (e7c3feb1, 2024-10-09)"
   xmlns:inkscape="http://www.inkscape.org/namespaces/inkscape"
   xmlns:sodipodi="http://sodipodi.sourceforge.net/DTD/sodipodi-0.dtd"
   xmlns="http://www.w3.org/2000/svg"
   xmlns:svg="http://www.w3.org/2000/svg">
  <defs
     id="defs27" />
  <sodipodi:namedview
     id="namedview27"
     pagecolor="#ffffff"
     bordercolor="#000000"
     borderopacity="0.25"
     inkscape:showpageshadow="2"
     inkscape:pageopacity="0.0"
     inkscape:pagecheckerboard="0"
     inkscape:deskcolor="#d1d1d1"
     inkscape:current-layer="svg27" />
  <clipPath
     id="a">
    <path
       d="m0 0h400v266.666h-400z"
       transform="translate(-200.00001 -183)"
       id="path1" />
  </clipPath>
  <clipPath
     id="b">
    <path
       d="m0 0h400v266.666h-400z"
       transform="translate(-200.00001 -226.00001)"
       id="path2" />
  </clipPath>
  <clipPath
     id="c">
    <path
       d="m0 0h400v266.666h-400z"
       transform="translate(-200.00001 -266.50001)"
       id="path3" />
  </clipPath>
  <clipPath
     id="d">
    <path
       d="m0 0h400v266.666h-400z"
       transform="translate(-200.00001 -367.00001)"
       id="path4" />
  </clipPath>
  <clipPath
     id="e">
    <path
       d="m0 0h400v266.666h-400z"
       transform="translate(-316.75001 -335.71681)"
       id="path5" />
  </clipPath>
  <clipPath
     id="f">
    <path
       d="m0 0h400v266.666h-400z"
       transform="translate(-402.21681 -250.25001)"
       id="path6" />
  </clipPath>
  <clipPath
     id="g">
    <path
       d="m0 0h400v266.666h-400z"
       transform="translate(-134.4331 -171.0088)"
       id="path7" />
  </clipPath>
  <clipPath
     id="h">
    <path
       d="m198.898 229.192.624-2.94-1.783-1.782-.892-.891-8.382-3.03-1.783.891-4.101-4.989-.356-3.297-2.943-.891-2.408-3.564h-2.05v-4.722-1.515l-4.19-10.068.891-2.674-1.783-6.86-1.427-1.515v-4.099l-4.19-1.515-.892-.623.267-1.159-1.426.624-.624-3.564-19.616-4.455-2.675-1.247-4.726 5.702-.624.535-1.784.891-10.074 4.811-.892.891-1.784 2.049-3.566 4.189-.891-1.515v.267l-6.598 1.783-3.211 4.186-4.457 6.238.534 3.831h-1.783l-.892-6.237-.267-2.049 2.408-6.238-1.249-.891 2.14-.623.535-4.722 2.139-1.159-.623-1.515 2.675-.891-1.783-1.158 1.783-1.247.624 1.782 1.158-2.05 1.784.624 3.3-5.702h1.783l.267-1.426h-5.617l.267-3.029 1.516.356-.624-1.515 1.158-.623-1.425-5.346 1.783.891 2.675.891.534-2.05 2.14 2.941 1.427-4.099 3.567 3.564 4.815-.891-5.351-5.97 1.159-2.673 2.943.268-2.318-1.426-.357-.356-1.159-11.227-2.407.535 1.515-10.693-.624-1.426-.891 1.158-2.051-1.514.892-4.722.891-2.406 2.407-2.317 3.567 1.427.892 3.296.267-1.783 6.509 2.05-.268-4.455h2.051l-4.458-.535.892-3.029.827-.276.065.008-.012-.026 1.795-.597-1.427-7.128 3.209-5.881v-1.515l1.516-6.86 8.293-2.673 7.757-3.833.623-2.404 3.211 1.246.357.268 6.509-2.94.267 2.316 6.598-3.563-.356 2.405 2.675.891 5.082-3.564 1.783 2.941h1.159l4.19.356.892 1.426 11.859-2.674 2.407-1.159 6.242-2.672h7.4l-.892 2.941 2.141.89 3.565-3.563 1.428-6.505-2.319-.267 1.783-.892.268-2.673-1.783-.623 1.159-1.782-1.427-.624-1.248-3.564h-2.051l.268-5.346-1.784-1.782 1.516-2.049v1.515l6.241-3.921 7.133 1.782 2.408-1.426 1.782-.891 1.784-.891 6.51 1.159 3.566-1.159 8.024 4.722 1.159-2.048 5.35 2.048-1.159-2.672 1.159-.891 1.784 2.673 8.024 3.831 5.974 3.565 5.35-1.159-2.05 3.296 6.776 6.237-3.567 1.783 1.516 2.672 4.726.891 3.031 2.94-1.516 3.297 6.242.536-4.191 2.137.891 2.05 1.249 3.831 4.101 1.783.892 3.029 3.566 1.158.624 3.564-2.407 5.97 10.433 8.554-2.052 1.247 2.052 3.208-1.16 1.247-.892 1.158 4.726 6.505-4.726.891-1.783 2.406.892 4.187-1.516 4.723 3.567 2.94-2.943 7.752 2.943 4.188-2.408.267-3.567-2.405-2.942 1.247-1.159 2.317-1.248 1.782-4.102.623-2.674 2.673 1.159.891-2.943 2.05 2.675 3.296.268 3.564 3.298 2.941-6.241 15.77-.891 1.515-.625 4.99 2.408.623-1.516 6.505-5.617 3.565-2.407-2.674-.624 3.297h-2.051l.624-1.515-2.407.357-.625 3.207-1.783-.534-9.184 3.207-3.299-1.158-3.566-1.782h-.536l.268.267.268 2.406-1.428.267-1.247 6.861h-1.784l-1.426-2.673-1.783 1.159-.357 2.672-4.102-1.425-3.298.534-5.351.357-4.457 3.831-.625.624-2.942 2.316-3.567.357-.267 2.673-4.191-2.406-.267-.267-8.024 1.782-.625.267-1.515-1.515-9.185 2.139-.891 4.722zm32.99-10.068h.267l.625-.624-.269.268h-.623zm-98.079-47.58-1.784.891 1.784-.891.624-.535zm79.088 52.035-.625.267zm-110.562-20.494-1.783-1.247v-.267l.534-1.159zm-1.516-6.237.267-1.515 1.784-.267v2.317zm-4.19-8.91 1.782-1.247-.891 2.138zm0-1.782.891-2.673.891 2.317v.356zm5.973-12.207 2.943-4.187.356 2.138zm29.692-63.262-.065-.008-1.986-.259-1.783-2.406 2.942.624.88 2.023zm100.217-64.42-1.782.891zm0 0-1.782.891z"
       transform="translate(-200.00001 -183)"
       id="path8" />
  </clipPath>
  <clipPath
     id="i">
    <path
       d="m198.898 229.192.624-2.94-1.783-1.782-.892-.891-8.382-3.03-1.783.891-4.101-4.989-.356-3.297-2.943-.891-2.408-3.564h-2.05v-4.722-1.515l-4.19-10.068.891-2.674-1.783-6.86-1.427-1.515v-4.099l-4.19-1.515-.892-.623.267-1.159-1.426.624-.624-3.564-19.616-4.455-2.675-1.247-4.726 5.702-.624.535-1.784.891-10.074 4.811-.892.891-1.784 2.049-3.566 4.189-.891-1.515v.267l-6.598 1.783-3.211 4.186-4.457 6.238.534 3.831h-1.783l-.892-6.237-.267-2.049 2.408-6.238-1.249-.891 2.14-.623.535-4.722 2.139-1.159-.623-1.515 2.675-.891-1.783-1.158 1.783-1.247.624 1.782 1.158-2.05 1.784.624 3.3-5.702h1.783l.267-1.426h-5.617l.267-3.029 1.516.356-.624-1.515 1.158-.623-1.425-5.346 1.783.891 2.675.891.534-2.05 2.14 2.941 1.427-4.099 3.567 3.564 4.815-.891-5.351-5.97 1.159-2.673 2.943.268-2.318-1.426-.357-.356-1.159-11.227-2.407.535 1.515-10.693-.624-1.426-.891 1.158-2.051-1.514.892-4.722.891-2.406 2.407-2.317 3.567 1.427.892 3.296.267-1.783 6.509 2.05-.268-4.455h2.051l-4.458-.535.892-3.029.827-.276.065.008-.012-.026 1.795-.597-1.427-7.128 3.209-5.881v-1.515l1.516-6.86 8.293-2.673 7.757-3.833.623-2.404 3.211 1.246.357.268 6.509-2.94.267 2.316 6.598-3.563-.356 2.405 2.675.891 5.082-3.564 1.783 2.941h1.159l4.19.356.892 1.426 11.859-2.674 2.407-1.159 6.242-2.672h7.4l-.892 2.941 2.141.89 3.565-3.563 1.428-6.505-2.319-.267 1.783-.892.268-2.673-1.783-.623 1.159-1.782-1.427-.624-1.248-3.564h-2.051l.268-5.346-1.784-1.782 1.516-2.049v1.515l6.241-3.921 7.133 1.782 2.408-1.426 1.782-.891 1.784-.891 6.51 1.159 3.566-1.159 8.024 4.722 1.159-2.048 5.35 2.048-1.159-2.672 1.159-.891 1.784 2.673 8.024 3.831 5.974 3.565 5.35-1.159-2.05 3.296 6.776 6.237-3.567 1.783 1.516 2.672 4.726.891 3.031 2.94-1.516 3.297 6.242.536-4.191 2.137.891 2.05 1.249 3.831 4.101 1.783.892 3.029 3.566 1.158.624 3.564-2.407 5.97 10.433 8.554-2.052 1.247 2.052 3.208-1.16 1.247-.892 1.158 4.726 6.505-4.726.891-1.783 2.406.892 4.187-1.516 4.723 3.567 2.94-2.943 7.752 2.943 4.188-2.408.267-3.567-2.405-2.942 1.247-1.159 2.317-1.248 1.782-4.102.623-2.674 2.673 1.159.891-2.943 2.05 2.675 3.296.268 3.564 3.298 2.941-6.241 15.77-.891 1.515-.625 4.99 2.408.623-1.516 6.505-5.617 3.565-2.407-2.674-.624 3.297h-2.051l.624-1.515-2.407.357-.625 3.207-1.783-.534-9.184 3.207-3.299-1.158-3.566-1.782h-.536l.268.267.268 2.406-1.428.267-1.247 6.861h-1.784l-1.426-2.673-1.783 1.159-.357 2.672-4.102-1.425-3.298.534-5.351.357-4.457 3.831-.625.624-2.942 2.316-3.567.357-.267 2.673-4.191-2.406-.267-.267-8.024 1.782-.625.267-1.515-1.515-9.185 2.139-.891 4.722zm32.99-10.068h.267l.625-.624-.269.268h-.623zm-98.079-47.58-1.784.891 1.784-.891.624-.535zm79.088 52.035-.625.267zm-110.562-20.494-1.783-1.247v-.267l.534-1.159zm-1.516-6.237.267-1.515 1.784-.267v2.317zm-4.19-8.91 1.782-1.247-.891 2.138zm0-1.782.891-2.673.891 2.317v.356zm5.973-12.207 2.943-4.187.356 2.138zm29.692-63.262-.065-.008-1.986-.259-1.783-2.406 2.942.624.88 2.023zm100.217-64.42-1.782.891zm0 0-1.782.891z"
       transform="translate(-200.00001 -226.00001)"
       id="path9" />
  </clipPath>
  <clipPath
     id="j">
    <path
       d="m198.898 229.192.624-2.94-1.783-1.782-.892-.891-8.382-3.03-1.783.891-4.101-4.989-.356-3.297-2.943-.891-2.408-3.564h-2.05v-4.722-1.515l-4.19-10.068.891-2.674-1.783-6.86-1.427-1.515v-4.099l-4.19-1.515-.892-.623.267-1.159-1.426.624-.624-3.564-19.616-4.455-2.675-1.247-4.726 5.702-.624.535-1.784.891-10.074 4.811-.892.891-1.784 2.049-3.566 4.189-.891-1.515v.267l-6.598 1.783-3.211 4.186-4.457 6.238.534 3.831h-1.783l-.892-6.237-.267-2.049 2.408-6.238-1.249-.891 2.14-.623.535-4.722 2.139-1.159-.623-1.515 2.675-.891-1.783-1.158 1.783-1.247.624 1.782 1.158-2.05 1.784.624 3.3-5.702h1.783l.267-1.426h-5.617l.267-3.029 1.516.356-.624-1.515 1.158-.623-1.425-5.346 1.783.891 2.675.891.534-2.05 2.14 2.941 1.427-4.099 3.567 3.564 4.815-.891-5.351-5.97 1.159-2.673 2.943.268-2.318-1.426-.357-.356-1.159-11.227-2.407.535 1.515-10.693-.624-1.426-.891 1.158-2.051-1.514.892-4.722.891-2.406 2.407-2.317 3.567 1.427.892 3.296.267-1.783 6.509 2.05-.268-4.455h2.051l-4.458-.535.892-3.029.827-.276.065.008-.012-.026 1.795-.597-1.427-7.128 3.209-5.881v-1.515l1.516-6.86 8.293-2.673 7.757-3.833.623-2.404 3.211 1.246.357.268 6.509-2.94.267 2.316 6.598-3.563-.356 2.405 2.675.891 5.082-3.564 1.783 2.941h1.159l4.19.356.892 1.426 11.859-2.674 2.407-1.159 6.242-2.672h7.4l-.892 2.941 2.141.89 3.565-3.563 1.428-6.505-2.319-.267 1.783-.892.268-2.673-1.783-.623 1.159-1.782-1.427-.624-1.248-3.564h-2.051l.268-5.346-1.784-1.782 1.516-2.049v1.515l6.241-3.921 7.133 1.782 2.408-1.426 1.782-.891 1.784-.891 6.51 1.159 3.566-1.159 8.024 4.722 1.159-2.048 5.35 2.048-1.159-2.672 1.159-.891 1.784 2.673 8.024 3.831 5.974 3.565 5.35-1.159-2.05 3.296 6.776 6.237-3.567 1.783 1.516 2.672 4.726.891 3.031 2.94-1.516 3.297 6.242.536-4.191 2.137.891 2.05 1.249 3.831 4.101 1.783.892 3.029 3.566 1.158.624 3.564-2.407 5.97 10.433 8.554-2.052 1.247 2.052 3.208-1.16 1.247-.892 1.158 4.726 6.505-4.726.891-1.783 2.406.892 4.187-1.516 4.723 3.567 2.94-2.943 7.752 2.943 4.188-2.408.267-3.567-2.405-2.942 1.247-1.159 2.317-1.248 1.782-4.102.623-2.674 2.673 1.159.891-2.943 2.05 2.675 3.296.268 3.564 3.298 2.941-6.241 15.77-.891 1.515-.625 4.99 2.408.623-1.516 6.505-5.617 3.565-2.407-2.674-.624 3.297h-2.051l.624-1.515-2.407.357-.625 3.207-1.783-.534-9.184 3.207-3.299-1.158-3.566-1.782h-.536l.268.267.268 2.406-1.428.267-1.247 6.861h-1.784l-1.426-2.673-1.783 1.159-.357 2.672-4.102-1.425-3.298.534-5.351.357-4.457 3.831-.625.624-2.942 2.316-3.567.357-.267 2.673-4.191-2.406-.267-.267-8.024 1.782-.625.267-1.515-1.515-9.185 2.139-.891 4.722zm32.99-10.068h.267l.625-.624-.269.268h-.623zm-98.079-47.58-1.784.891 1.784-.891.624-.535zm79.088 52.035-.625.267zm-110.562-20.494-1.783-1.247v-.267l.534-1.159zm-1.516-6.237.267-1.515 1.784-.267v2.317zm-4.19-8.91 1.782-1.247-.891 2.138zm0-1.782.891-2.673.891 2.317v.356zm5.973-12.207 2.943-4.187.356 2.138zm29.692-63.262-.065-.008-1.986-.259-1.783-2.406 2.942.624.88 2.023zm100.217-64.42-1.782.891zm0 0-1.782.891z"
       transform="translate(-200.00001 -266.50001)"
       id="path10" />
  </clipPath>
  <clipPath
     id="k">
    <path
       d="m198.898 229.192.624-2.94-1.783-1.782-.892-.891-8.382-3.03-1.783.891-4.101-4.989-.356-3.297-2.943-.891-2.408-3.564h-2.05v-4.722-1.515l-4.19-10.068.891-2.674-1.783-6.86-1.427-1.515v-4.099l-4.19-1.515-.892-.623.267-1.159-1.426.624-.624-3.564-19.616-4.455-2.675-1.247-4.726 5.702-.624.535-1.784.891-10.074 4.811-.892.891-1.784 2.049-3.566 4.189-.891-1.515v.267l-6.598 1.783-3.211 4.186-4.457 6.238.534 3.831h-1.783l-.892-6.237-.267-2.049 2.408-6.238-1.249-.891 2.14-.623.535-4.722 2.139-1.159-.623-1.515 2.675-.891-1.783-1.158 1.783-1.247.624 1.782 1.158-2.05 1.784.624 3.3-5.702h1.783l.267-1.426h-5.617l.267-3.029 1.516.356-.624-1.515 1.158-.623-1.425-5.346 1.783.891 2.675.891.534-2.05 2.14 2.941 1.427-4.099 3.567 3.564 4.815-.891-5.351-5.97 1.159-2.673 2.943.268-2.318-1.426-.357-.356-1.159-11.227-2.407.535 1.515-10.693-.624-1.426-.891 1.158-2.051-1.514.892-4.722.891-2.406 2.407-2.317 3.567 1.427.892 3.296.267-1.783 6.509 2.05-.268-4.455h2.051l-4.458-.535.892-3.029.827-.276.065.008-.012-.026 1.795-.597-1.427-7.128 3.209-5.881v-1.515l1.516-6.86 8.293-2.673 7.757-3.833.623-2.404 3.211 1.246.357.268 6.509-2.94.267 2.316 6.598-3.563-.356 2.405 2.675.891 5.082-3.564 1.783 2.941h1.159l4.19.356.892 1.426 11.859-2.674 2.407-1.159 6.242-2.672h7.4l-.892 2.941 2.141.89 3.565-3.563 1.428-6.505-2.319-.267 1.783-.892.268-2.673-1.783-.623 1.159-1.782-1.427-.624-1.248-3.564h-2.051l.268-5.346-1.784-1.782 1.516-2.049v1.515l6.241-3.921 7.133 1.782 2.408-1.426 1.782-.891 1.784-.891 6.51 1.159 3.566-1.159 8.024 4.722 1.159-2.048 5.35 2.048-1.159-2.672 1.159-.891 1.784 2.673 8.024 3.831 5.974 3.565 5.35-1.159-2.05 3.296 6.776 6.237-3.567 1.783 1.516 2.672 4.726.891 3.031 2.94-1.516 3.297 6.242.536-4.191 2.137.891 2.05 1.249 3.831 4.101 1.783.892 3.029 3.566 1.158.624 3.564-2.407 5.97 10.433 8.554-2.052 1.247 2.052 3.208-1.16 1.247-.892 1.158 4.726 6.505-4.726.891-1.783 2.406.892 4.187-1.516 4.723 3.567 2.94-2.943 7.752 2.943 4.188-2.408.267-3.567-2.405-2.942 1.247-1.159 2.317-1.248 1.782-4.102.623-2.674 2.673 1.159.891-2.943 2.05 2.675 3.296.268 3.564 3.298 2.941-6.241 15.77-.891 1.515-.625 4.99 2.408.623-1.516 6.505-5.617 3.565-2.407-2.674-.624 3.297h-2.051l.624-1.515-2.407.357-.625 3.207-1.783-.534-9.184 3.207-3.299-1.158-3.566-1.782h-.536l.268.267.268 2.406-1.428.267-1.247 6.861h-1.784l-1.426-2.673-1.783 1.159-.357 2.672-4.102-1.425-3.298.534-5.351.357-4.457 3.831-.625.624-2.942 2.316-3.567.357-.267 2.673-4.191-2.406-.267-.267-8.024 1.782-.625.267-1.515-1.515-9.185 2.139-.891 4.722zm32.99-10.068h.267l.625-.624-.269.268h-.623zm-98.079-47.58-1.784.891 1.784-.891.624-.535zm79.088 52.035-.625.267zm-110.562-20.494-1.783-1.247v-.267l.534-1.159zm-1.516-6.237.267-1.515 1.784-.267v2.317zm-4.19-8.91 1.782-1.247-.891 2.138zm0-1.782.891-2.673.891 2.317v.356zm5.973-12.207 2.943-4.187.356 2.138zm29.692-63.262-.065-.008-1.986-.259-1.783-2.406 2.942.624.88 2.023zm100.217-64.42-1.782.891zm0 0-1.782.891z"
       transform="translate(-200.00001 -367.00001)"
       id="path11" />
  </clipPath>
  <clipPath
     id="l">
    <path
       d="m198.898 229.192.624-2.94-1.783-1.782-.892-.891-8.382-3.03-1.783.891-4.101-4.989-.356-3.297-2.943-.891-2.408-3.564h-2.05v-4.722-1.515l-4.19-10.068.891-2.674-1.783-6.86-1.427-1.515v-4.099l-4.19-1.515-.892-.623.267-1.159-1.426.624-.624-3.564-19.616-4.455-2.675-1.247-4.726 5.702-.624.535-1.784.891-10.074 4.811-.892.891-1.784 2.049-3.566 4.189-.891-1.515v.267l-6.598 1.783-3.211 4.186-4.457 6.238.534 3.831h-1.783l-.892-6.237-.267-2.049 2.408-6.238-1.249-.891 2.14-.623.535-4.722 2.139-1.159-.623-1.515 2.675-.891-1.783-1.158 1.783-1.247.624 1.782 1.158-2.05 1.784.624 3.3-5.702h1.783l.267-1.426h-5.617l.267-3.029 1.516.356-.624-1.515 1.158-.623-1.425-5.346 1.783.891 2.675.891.534-2.05 2.14 2.941 1.427-4.099 3.567 3.564 4.815-.891-5.351-5.97 1.159-2.673 2.943.268-2.318-1.426-.357-.356-1.159-11.227-2.407.535 1.515-10.693-.624-1.426-.891 1.158-2.051-1.514.892-4.722.891-2.406 2.407-2.317 3.567 1.427.892 3.296.267-1.783 6.509 2.05-.268-4.455h2.051l-4.458-.535.892-3.029.827-.276.065.008-.012-.026 1.795-.597-1.427-7.128 3.209-5.881v-1.515l1.516-6.86 8.293-2.673 7.757-3.833.623-2.404 3.211 1.246.357.268 6.509-2.94.267 2.316 6.598-3.563-.356 2.405 2.675.891 5.082-3.564 1.783 2.941h1.159l4.19.356.892 1.426 11.859-2.674 2.407-1.159 6.242-2.672h7.4l-.892 2.941 2.141.89 3.565-3.563 1.428-6.505-2.319-.267 1.783-.892.268-2.673-1.783-.623 1.159-1.782-1.427-.624-1.248-3.564h-2.051l.268-5.346-1.784-1.782 1.516-2.049v1.515l6.241-3.921 7.133 1.782 2.408-1.426 1.782-.891 1.784-.891 6.51 1.159 3.566-1.159 8.024 4.722 1.159-2.048 5.35 2.048-1.159-2.672 1.159-.891 1.784 2.673 8.024 3.831 5.974 3.565 5.35-1.159-2.05 3.296 6.776 6.237-3.567 1.783 1.516 2.672 4.726.891 3.031 2.94-1.516 3.297 6.242.536-4.191 2.137.891 2.05 1.249 3.831 4.101 1.783.892 3.029 3.566 1.158.624 3.564-2.407 5.97 10.433 8.554-2.052 1.247 2.052 3.208-1.16 1.247-.892 1.158 4.726 6.505-4.726.891-1.783 2.406.892 4.187-1.516 4.723 3.567 2.94-2.943 7.752 2.943 4.188-2.408.267-3.567-2.405-2.942 1.247-1.159 2.317-1.248 1.782-4.102.623-2.674 2.673 1.159.891-2.943 2.05 2.675 3.296.268 3.564 3.298 2.941-6.241 15.77-.891 1.515-.625 4.99 2.408.623-1.516 6.505-5.617 3.565-2.407-2.674-.624 3.297h-2.051l.624-1.515-2.407.357-.625 3.207-1.783-.534-9.184 3.207-3.299-1.158-3.566-1.782h-.536l.268.267.268 2.406-1.428.267-1.247 6.861h-1.784l-1.426-2.673-1.783 1.159-.357 2.672-4.102-1.425-3.298.534-5.351.357-4.457 3.831-.625.624-2.942 2.316-3.567.357-.267 2.673-4.191-2.406-.267-.267-8.024 1.782-.625.267-1.515-1.515-9.185 2.139-.891 4.722zm32.99-10.068h.267l.625-.624-.269.268h-.623zm-98.079-47.58-1.784.891 1.784-.891.624-.535zm79.088 52.035-.625.267zm-110.562-20.494-1.783-1.247v-.267l.534-1.159zm-1.516-6.237.267-1.515 1.784-.267v2.317zm-4.19-8.91 1.782-1.247-.891 2.138zm0-1.782.891-2.673.891 2.317v.356zm5.973-12.207 2.943-4.187.356 2.138zm29.692-63.262-.065-.008-1.986-.259-1.783-2.406 2.942.624.88 2.023zm100.217-64.42-1.782.891zm0 0-1.782.891z"
       transform="translate(-316.75001 -335.71681)"
       id="path12" />
  </clipPath>
  <clipPath
     id="m">
    <path
       d="m198.898 229.192.624-2.94-1.783-1.782-.892-.891-8.382-3.03-1.783.891-4.101-4.989-.356-3.297-2.943-.891-2.408-3.564h-2.05v-4.722-1.515l-4.19-10.068.891-2.674-1.783-6.86-1.427-1.515v-4.099l-4.19-1.515-.892-.623.267-1.159-1.426.624-.624-3.564-19.616-4.455-2.675-1.247-4.726 5.702-.624.535-1.784.891-10.074 4.811-.892.891-1.784 2.049-3.566 4.189-.891-1.515v.267l-6.598 1.783-3.211 4.186-4.457 6.238.534 3.831h-1.783l-.892-6.237-.267-2.049 2.408-6.238-1.249-.891 2.14-.623.535-4.722 2.139-1.159-.623-1.515 2.675-.891-1.783-1.158 1.783-1.247.624 1.782 1.158-2.05 1.784.624 3.3-5.702h1.783l.267-1.426h-5.617l.267-3.029 1.516.356-.624-1.515 1.158-.623-1.425-5.346 1.783.891 2.675.891.534-2.05 2.14 2.941 1.427-4.099 3.567 3.564 4.815-.891-5.351-5.97 1.159-2.673 2.943.268-2.318-1.426-.357-.356-1.159-11.227-2.407.535 1.515-10.693-.624-1.426-.891 1.158-2.051-1.514.892-4.722.891-2.406 2.407-2.317 3.567 1.427.892 3.296.267-1.783 6.509 2.05-.268-4.455h2.051l-4.458-.535.892-3.029.827-.276.065.008-.012-.026 1.795-.597-1.427-7.128 3.209-5.881v-1.515l1.516-6.86 8.293-2.673 7.757-3.833.623-2.404 3.211 1.246.357.268 6.509-2.94.267 2.316 6.598-3.563-.356 2.405 2.675.891 5.082-3.564 1.783 2.941h1.159l4.19.356.892 1.426 11.859-2.674 2.407-1.159 6.242-2.672h7.4l-.892 2.941 2.141.89 3.565-3.563 1.428-6.505-2.319-.267 1.783-.892.268-2.673-1.783-.623 1.159-1.782-1.427-.624-1.248-3.564h-2.051l.268-5.346-1.784-1.782 1.516-2.049v1.515l6.241-3.921 7.133 1.782 2.408-1.426 1.782-.891 1.784-.891 6.51 1.159 3.566-1.159 8.024 4.722 1.159-2.048 5.35 2.048-1.159-2.672 1.159-.891 1.784 2.673 8.024 3.831 5.974 3.565 5.35-1.159-2.05 3.296 6.776 6.237-3.567 1.783 1.516 2.672 4.726.891 3.031 2.94-1.516 3.297 6.242.536-4.191 2.137.891 2.05 1.249 3.831 4.101 1.783.892 3.029 3.566 1.158.624 3.564-2.407 5.97 10.433 8.554-2.052 1.247 2.052 3.208-1.16 1.247-.892 1.158 4.726 6.505-4.726.891-1.783 2.406.892 4.187-1.516 4.723 3.567 2.94-2.943 7.752 2.943 4.188-2.408.267-3.567-2.405-2.942 1.247-1.159 2.317-1.248 1.782-4.102.623-2.674 2.673 1.159.891-2.943 2.05 2.675 3.296.268 3.564 3.298 2.941-6.241 15.77-.891 1.515-.625 4.99 2.408.623-1.516 6.505-5.617 3.565-2.407-2.674-.624 3.297h-2.051l.624-1.515-2.407.357-.625 3.207-1.783-.534-9.184 3.207-3.299-1.158-3.566-1.782h-.536l.268.267.268 2.406-1.428.267-1.247 6.861h-1.784l-1.426-2.673-1.783 1.159-.357 2.672-4.102-1.425-3.298.534-5.351.357-4.457 3.831-.625.624-2.942 2.316-3.567.357-.267 2.673-4.191-2.406-.267-.267-8.024 1.782-.625.267-1.515-1.515-9.185 2.139-.891 4.722zm32.99-10.068h.267l.625-.624-.269.268h-.623zm-98.079-47.58-1.784.891 1.784-.891.624-.535zm79.088 52.035-.625.267zm-110.562-20.494-1.783-1.247v-.267l.534-1.159zm-1.516-6.237.267-1.515 1.784-.267v2.317zm-4.19-8.91 1.782-1.247-.891 2.138zm0-1.782.891-2.673.891 2.317v.356zm5.973-12.207 2.943-4.187.356 2.138zm29.692-63.262-.065-.008-1.986-.259-1.783-2.406 2.942.624.88 2.023zm100.217-64.42-1.782.891zm0 0-1.782.891z"
       transform="translate(-402.21681 -250.25001)"
       id="path13" />
  </clipPath>
  <path
     d="M -2.5058594e-6,355.77733 H 533.33332 V 0.222665 H -2.5058594e-6 Z"
     fill="#072b5f"
     id="path14"
     style="stroke-width:1.33333" />
  <path
     clip-path="url(#g)"
     d="m 0,0 -0.624,0.535 -1.783,0.891 1.783,-0.891 z m -2.14,-60.321 -2.05,-0.268 -1.784,-2.405 2.943,0.623 z m 0,0 -2.05,-0.268 -1.784,-2.405 2.943,0.623 z m 0,0 -2.05,-0.268 -1.784,-2.405 2.943,0.623 z m -31.742,90.883 0.535,-1.159 1.248,2.674 -1.783,-1.248 z m 2.319,-6.504 v 2.316 l -2.051,-0.535 0.267,-1.514 z m -2.319,6.504 0.535,-1.159 1.248,2.674 -1.783,-1.248 z m 2.319,-6.504 v 2.316 l -2.051,-0.535 0.267,-1.514 z m -2.319,6.504 0.535,-1.159 1.248,2.674 -1.783,-1.248 z m 2.319,-6.504 v 2.316 l -2.051,-0.535 0.267,-1.514 z m -5.35,-6.238 -0.892,-0.891 1.784,-1.247 z m 0.892,-2.673 h -1.784 l 0.892,-2.673 0.892,2.317 z m 7.132,-16.395 0.357,2.139 -3.299,2.049 z m -8.024,19.068 -0.892,-0.891 1.784,-1.247 z m 0.892,-2.673 h -1.784 l 0.892,-2.673 0.892,2.317 z m 7.132,-16.395 0.357,2.139 -3.299,2.049 z m -8.024,19.068 -0.892,-0.891 1.784,-1.247 z m 0.892,-2.673 h -1.784 l 0.892,-2.673 0.892,2.317 z m 7.132,-16.395 0.357,2.139 -3.299,2.049 z m 125.184,-122.603 1.784,-0.89 m -1.784,0.89 1.784,-0.89 z m 2.051,171.342 -0.624,0.624 h -0.267 v -0.356 h 0.624 z m -2.051,-171.342 -2.407,1.426 -7.133,-1.782 -6.241,3.921 v -1.515 l -1.515,2.049 1.783,1.782 -0.268,5.346 h 2.051 l 1.248,3.564 1.427,0.624 -1.159,1.782 1.783,0.624 -0.268,2.673 -1.783,0.891 2.318,0.267 -1.426,6.505 -3.567,3.563 -2.139,-0.89 0.891,-2.941 h -7.4 l -6.242,2.673 -2.407,1.158 -11.859,2.674 -0.892,-1.426 -4.19,-0.356 h -1.159 l -1.783,-2.941 -5.083,3.565 -2.675,-0.892 0.357,-2.405 -6.598,3.563 -0.268,-2.316 -6.508,2.94 -0.357,-0.267 -3.21,-1.247 -0.624,2.405 -7.757,3.832 -8.293,2.673 -1.515,6.86 v 1.515 l -3.21,5.881 1.427,7.128 -2.675,0.891 -0.892,3.03 4.458,0.534 h -2.051 l 0.268,4.455 -6.509,-2.049 -0.267,1.782 -0.892,-3.297 -3.567,-1.425 -2.407,2.316 -0.892,2.406 -0.891,4.722 2.05,1.515 0.892,-1.159 0.624,1.426 -1.516,10.693 2.408,-0.535 1.159,11.226 0.357,0.357 2.318,1.426 -2.943,-0.267 -1.159,2.672 5.35,5.97 -4.815,0.891 -3.566,-3.564 -1.427,4.099 -2.14,-2.941 -0.535,2.05 -2.675,-0.891 -1.783,-0.891 1.427,5.346 -1.159,0.623 0.624,1.515 -1.516,-0.356 -0.267,3.029 h 5.617 l -0.268,1.426 h -1.783 l -3.299,5.702 -1.783,-0.623 -1.159,2.049 -0.625,-1.782 -1.783,1.247 1.783,1.159 -2.674,0.891 0.624,1.514 -2.14,1.159 -0.535,4.722 -2.14,0.624 1.248,0.891 -2.407,6.237 0.268,2.049 0.891,6.237 h 1.783 l -0.535,-3.831 4.458,-6.237 3.21,-4.188 6.598,-1.782 v -0.267 l 0.892,1.515 3.566,-4.188 1.783,-2.05 0.893,-0.891 L -2.407,1.426 -0.624,0.535 0,0 4.726,-5.702 7.4,-4.455 27.017,0 27.641,3.564 29.067,2.941 28.8,4.099 l 0.891,0.624 4.191,1.514 v 4.099 l 1.427,1.515 1.783,6.86 -0.892,2.674 4.191,10.068 v 1.515 4.722 h 2.05 l 2.408,3.564 2.943,0.892 0.356,3.296 4.102,4.99 1.783,-0.891 8.381,3.029 0.892,0.891 1.783,1.782 -0.624,2.941 h 1.783 l 0.891,-4.723 9.185,-2.138 1.515,1.514 0.624,-0.267 8.025,-1.782 0.267,0.268 4.191,2.405 0.267,-2.673 3.567,-0.356 2.942,-2.317 0.624,-0.624 4.458,-3.831 5.351,-0.356 3.299,-0.535 4.101,1.426 0.357,-2.674 1.783,-1.158 1.427,2.673 h 1.783 l 1.248,-6.861 1.427,-0.267 -0.268,-2.406 -0.268,-0.267 h 0.536 l 3.566,1.782 3.299,1.158 9.183,-3.207 1.784,0.534 0.625,-3.207 2.407,-0.357 -0.624,1.515 h 2.051 l 0.624,-3.297 2.407,2.674 5.617,-3.565 1.516,-6.504 -2.408,-0.624 0.624,-4.99 0.892,-1.514 6.241,-15.771 -3.299,-2.941 -0.267,-3.564 -2.675,-3.296 2.942,-2.05 -1.159,-0.89 2.675,-2.674 4.102,-0.623 1.248,-1.782 1.159,-2.317 2.942,-1.247 3.567,2.405 2.408,-0.267 -2.943,-4.188 2.943,-7.752 -3.568,-2.94 1.517,-4.722 -0.892,-4.188 1.784,-2.406 4.725,-0.891 -4.725,-6.505 0.891,-1.158 1.159,-1.247 -2.05,-3.208 2.05,-1.247 -10.432,-8.554 2.407,-5.969 -0.624,-3.565 -3.566,-1.158 -0.892,-3.029 -4.102,-1.783 -1.248,-3.831 -0.891,-2.049 4.19,-2.138 -6.241,-0.535 1.516,-3.297 -3.032,-2.941 -4.725,-0.89 -1.516,-2.673 3.567,-1.782 -6.777,-6.238 2.051,-3.296 -5.35,1.159 -5.974,-3.565 -8.025,-3.831 -1.783,-2.674 -1.159,0.892 1.159,2.673 -5.349,-2.049 -1.16,2.049 -8.024,-4.723 -3.566,1.158 -6.51,-1.158 -1.783,0.892 M 78.463,52.57 77.839,52.837 Z"
     fill="#ffffff"
     transform="matrix(1.3333333,0,0,-1.3333333,172.80799,133.034)"
     id="path21" />
</svg>
