<svg height="240" viewBox="0 0 361.284 240" width="361.284" xmlns="http://www.w3.org/2000/svg" xmlns:xlink="http://www.w3.org/1999/xlink"><clipPath id="a"><path d="m0 0h270.963v180h-270.963z" transform="translate(-285.48141 -180)"/></clipPath><clipPath id="b"><path d="m0 0h270.963v180h-270.963z" transform="translate(-135.48141 -141)"/></clipPath><clipPath id="c"><path d="m0 0h270.963v180h-270.963z" transform="translate(-125.0889 -122.3994)"/></clipPath><clipPath id="d"><path d="m0 0h270.963v180h-270.963z" transform="translate(-126.95991 -121.3193)"/></clipPath><clipPath id="e"><path d="m0 0h270.963v180h-270.963z" transform="translate(-102.2139 -83.024402)"/></clipPath><clipPath id="f"><path d="m0 0h270.963v180h-270.963z" transform="translate(-104.08491 -81.944305)"/></clipPath><clipPath id="g"><path d="m0 0h270.963v180h-270.963z" transform="translate(-148.1655 -82.7695)"/></clipPath><clipPath id="h"><path d="m0 0h270.963v180h-270.963z" transform="translate(-150.0361 -81.6895)"/></clipPath><path d="m0 0v-8.711l135.481-81.289 135.482 81.289v8.711zm0-171.289v-8.711h270.963v8.711l-135.482 81.289z" fill="#ce1126" transform="scale(1.3333333 -1.3333333)"/><path d="m0 0-135.481-90 135.481-90zm-270.963 0v-180l135.482 90z" fill="#1eb53a" transform="matrix(1.3333333 0 0 -1.3333333 361.284 0)"/><path d="m0 0 135.481 81.289zm-135.481 81.289 135.481-81.289zm135.481-81.289 135.481-81.289zm-135.481-81.289 135.481 81.289z" transform="matrix(1.3333333 0 0 -1.3333333 180.642 120)"/><path clip-path="url(#a)" d="m0 0-300-180m0 180 300-180" fill="none" stroke="#fff" stroke-width="22.5" transform="matrix(1.3333333 0 0 -1.3333333 380.64187 0)"/><path clip-path="url(#b)" d="m0 0c28.167 0 51-22.834 51-51 0-28.167-22.833-51-51-51-28.166 0-51 22.833-51 51 0 28.166 22.834 51 51 51" fill="#fff" transform="matrix(1.3333333 0 0 -1.3333333 180.64187 52)"/><path clip-path="url(#c)" d="m0 0 3.464-6-3.464-6h6.929l3.464-6 3.463 6h6.929l-3.464 6 3.464 6h-6.929l-3.463 6-3.464-6z" fill="#1eb53a" transform="matrix(1.3333333 0 0 -1.3333333 166.7852 76.8008)"/><path clip-path="url(#d)" d="m0 0 2.84-4.92-2.84-4.92h5.681l2.84-4.919 2.841 4.919h5.681l-2.84 4.92 2.84 4.92h-5.681l-2.841 4.921-2.84-4.92z" fill="#ce1126" transform="matrix(1.3333333 0 0 -1.3333333 169.27987 78.240933)"/><path clip-path="url(#e)" d="m0 0 3.464-6-3.464-6h6.929l3.464-6 3.463 6h6.929l-3.464 6 3.464 6h-6.929l-3.463 6-3.464-6z" fill="#1eb53a" transform="matrix(1.3333333 0 0 -1.3333333 136.2852 129.3008)"/><path clip-path="url(#f)" d="m0 0 2.84-4.92-2.84-4.92h5.681l2.84-4.919 2.841 4.919h5.681l-2.84 4.92 2.84 4.92h-5.681l-2.841 4.921-2.84-4.92z" fill="#ce1126" transform="matrix(1.3333333 0 0 -1.3333333 138.77987 130.74093)"/><path clip-path="url(#g)" d="m0 0 3.464-6-3.464-6h6.928l3.464-6 3.464 6h6.928l-3.464 6 3.464 6h-6.928l-3.464 6-3.464-6z" fill="#1eb53a" transform="matrix(1.3333333 0 0 -1.3333333 197.554 129.64067)"/><path clip-path="url(#h)" d="m0 0 2.841-4.92-2.841-4.92h5.681l2.84-4.92 2.841 4.92h5.681l-2.84 4.92 2.84 4.92h-5.681l-2.841 4.92-2.84-4.92z" fill="#ce1126" transform="matrix(1.3333333 0 0 -1.3333333 200.04813 131.08067)"/></svg>