<svg height="661.33331" viewBox="0 0 992 661.33331" width="992" xmlns="http://www.w3.org/2000/svg" xmlns:xlink="http://www.w3.org/1999/xlink"><clipPath id="a"><path d="m0 496h744v-496h-744z" transform="translate(-437.96191 -317.40621)"/></clipPath><clipPath id="b"><path d="m0 496h744v-496h-744z" transform="translate(-432.45901 -178.2949)"/></clipPath><clipPath id="c"><path d="m0 496h744v-496h-744z" transform="translate(-301.06841 -306.33251)"/></clipPath><clipPath id="d"><path d="m0 496h744v-496h-744z" transform="translate(-254.85991 -361.15091)"/></clipPath><clipPath id="e"><path d="m0 496h744v-496h-744z" transform="translate(-191.89011 -387.65381)"/></clipPath><clipPath id="f"><path d="m0 496h744v-496h-744z" transform="translate(-200.95021 -362.05761)"/></clipPath><clipPath id="g"><path d="m0 496h744v-496h-744z" transform="translate(-299.25681 -237.4697)"/></clipPath><clipPath id="h"><path d="m0 496h744v-496h-744z" transform="translate(-278.64361 -243.81251)"/></clipPath><clipPath id="i"><path d="m0 496h744v-496h-744z" transform="translate(-259.61721 -250.38181)"/></clipPath><clipPath id="j"><path d="m0 496h744v-496h-744z" transform="translate(-241.94871 -263.97311)"/></clipPath><clipPath id="k"><path d="m0 496h744v-496h-744z" transform="translate(-234.47461 -277.33841)"/></clipPath><clipPath id="l"><path d="m0 496h744v-496h-744z" transform="translate(-208.42531 -292.51561)"/></clipPath><clipPath id="m"><path d="m0 496h744v-496h-744z" transform="translate(-184.6416 -306.10691)"/></clipPath><clipPath id="n"><path d="m0 496h744v-496h-744z" transform="translate(-157.0068 -324.90821)"/></clipPath><clipPath id="o"><path d="m0 496h744v-496h-744z" transform="translate(-133.6768 -350.05221)"/></clipPath><clipPath id="p"><path d="m0 496h744v-496h-744z" transform="translate(-109.43901 -372.25151)"/></clipPath><clipPath id="q"><path d="m0 496h744v-496h-744z" transform="translate(-99.6997 -393.77051)"/></clipPath><clipPath id="r"><path d="m0 496h744v-496h-744z" transform="translate(-481.87601 -305.81301)"/></clipPath><clipPath id="s"><path d="m0 496h744v-496h-744z" transform="translate(-528.08692 -360.63131)"/></clipPath><clipPath id="t"><path d="m0 496h744v-496h-744z" transform="translate(-591.05572 -387.13431)"/></clipPath><clipPath id="u"><path d="m0 496h744v-496h-744z" transform="translate(-581.99611 -361.53811)"/></clipPath><clipPath id="v"><path d="m0 496h744v-496h-744z" transform="translate(-483.68951 -236.95021)"/></clipPath><clipPath id="w"><path d="m0 496h744v-496h-744z" transform="translate(-504.30082 -243.293)"/></clipPath><clipPath id="x"><path d="m0 496h744v-496h-744z" transform="translate(-523.32911 -249.86231)"/></clipPath><clipPath id="y"><path d="m0 496h744v-496h-744z" transform="translate(-540.99802 -263.4536)"/></clipPath><clipPath id="z"><path d="m0 496h744v-496h-744z" transform="translate(-548.47171 -276.81881)"/></clipPath><clipPath id="A"><path d="m0 496h744v-496h-744z" transform="translate(-574.52051 -291.99611)"/></clipPath><clipPath id="B"><path d="m0 496h744v-496h-744z" transform="translate(-598.30471 -305.58741)"/></clipPath><clipPath id="C"><path d="m0 496h744v-496h-744z" transform="translate(-625.93952 -324.38871)"/></clipPath><clipPath id="D"><path d="m0 496h744v-496h-744z" transform="translate(-649.26952 -349.53271)"/></clipPath><clipPath id="E"><path d="m0 496h744v-496h-744z" transform="translate(-673.50682 -371.73191)"/></clipPath><clipPath id="F"><path d="m0 496h744v-496h-744z" transform="translate(-683.24612 -393.25101)"/></clipPath><clipPath id="G"><path d="m0 496h744v-496h-744z" transform="translate(-568.43261 -278.35891)"/></clipPath><clipPath id="H"><path d="m0 496h744v-496h-744z" transform="translate(-629.97272 -252.25201)"/></clipPath><clipPath id="I"><path d="m0 496h744v-496h-744z" transform="translate(-478.81741 -116.2832)"/></clipPath><clipPath id="J"><path d="m0 496h744v-496h-744z" transform="translate(-611.97851 -297.7412)"/></clipPath><clipPath id="K"><path d="m0 496h744v-496h-744z" transform="translate(-490.88961 -90.674802)"/></clipPath><clipPath id="L"><path d="m0 496h744v-496h-744z" transform="translate(-37.631801 -309.26511)"/></clipPath><clipPath id="M"><path d="m0 496h744v-496h-744z" transform="translate(-654.96292 -306.88721)"/></clipPath><clipPath id="N"><path d="m0 496h744v-496h-744z" transform="translate(-353.58591 -398.35991)"/></clipPath><clipPath id="O"><path d="m0 496h744v-496h-744z" transform="translate(-361.68121 -407.48101)"/></clipPath><clipPath id="P"><path d="m0 496h744v-496h-744z" transform="translate(-299.11621 -98.461902)"/></clipPath><clipPath id="Q"><path d="m0 496h744v-496h-744z" transform="translate(-179.25981 -281.97221)"/></clipPath><clipPath id="R"><path d="m0 496h744v-496h-744z" transform="translate(-202.72021 -264.3179)"/></clipPath><clipPath id="S"><path d="m0 496h744v-496h-744z" transform="translate(-164.16111 -256.65191)"/></clipPath><clipPath id="T"><path d="m0 496h744v-496h-744z" transform="translate(-219.90921 -245.50201)"/></clipPath><clipPath id="U"><path d="m0 496h744v-496h-744z" transform="translate(-228.271 -225.0605)"/></clipPath><clipPath id="V"><path d="m0 496h744v-496h-744z" transform="translate(-171.5937 -230.1719)"/></clipPath><clipPath id="W"><path d="m0 496h744v-496h-744z" transform="translate(-174.84621 -207.63871)"/></clipPath><clipPath id="X"><path d="m0 496h744v-496h-744z" transform="translate(-236.16801 -202.5293)"/></clipPath><clipPath id="Y"><path d="m0 496h744v-496h-744z" transform="translate(-186.46 -186.0352)"/></clipPath><clipPath id="Z"><path d="m0 496h744v-496h-744z" transform="translate(-250.105 -189.0557)"/></clipPath><clipPath id="aa"><path d="m0 496h744v-496h-744z" transform="translate(-264.27391 -176.74411)"/></clipPath><clipPath id="ab"><path d="m0 496h744v-496h-744z" transform="translate(-209.68801 -152.35351)"/></clipPath><clipPath id="ac"><path d="m0 496h744v-496h-744z" transform="translate(-196.9131 -166.291)"/></clipPath><clipPath id="ad"><path d="m0 496h744v-496h-744z" transform="translate(-299.09371 -115.5332)"/></clipPath><clipPath id="ae"><path d="m0 496h744v-496h-744z" transform="translate(-469.59281 -229.67581)"/></clipPath><clipPath id="af"><path d="m0 496h744v-496h-744z" transform="translate(-454.99801 -192.0937)"/></clipPath><clipPath id="ag"><path d="m0 496h744v-496h-744z" transform="translate(-471.05181 -193.5527)"/></clipPath><clipPath id="ah"><path d="m0 496h744v-496h-744z" transform="translate(-470.50491 -207.2354)"/></clipPath><clipPath id="ai"><path d="m0 496h744v-496h-744z" transform="translate(-486.74121 -157.0654)"/></clipPath><clipPath id="aj"><path d="m0 496h744v-496h-744z" transform="translate(-520.30861 -154.6934)"/></clipPath><clipPath id="ak"><path d="m0 496h744v-496h-744z" transform="translate(-526.32811 -157.6123)"/></clipPath><clipPath id="al"><path d="m0 496h744v-496h-744z" transform="translate(-312.37991 -227.3018)"/></clipPath><clipPath id="am"><path d="m0 496h744v-496h-744z" transform="translate(-327.41801 -191.9375)"/></clipPath><clipPath id="an"><path d="m0 496h744v-496h-744z" transform="translate(-311.80811 -193.61911)"/></clipPath><clipPath id="ao"><path d="m0 496h744v-496h-744z" transform="translate(-312.13281 -207.08011)"/></clipPath><clipPath id="ap"><path d="m0 496h744v-496h-744z" transform="translate(-295.67481 -157.1318)"/></clipPath><clipPath id="aq"><path d="m0 496h744v-496h-744z" transform="translate(-262.41991 -154.7783)"/></clipPath><clipPath id="ar"><path d="m0 496h744v-496h-744z" transform="translate(-256.3999 -157.1299)"/></clipPath><clipPath id="as"><path d="m0 496h744v-496h-744z" transform="translate(-424.32521 -171.10741)"/></clipPath><clipPath id="at"><path d="m0 496h744v-496h-744z" transform="translate(-417.89451 -166.37791)"/></clipPath><clipPath id="au"><path d="m0 496h744v-496h-744z" transform="translate(-411.65231 -162.02731)"/></clipPath><clipPath id="av"><path d="m0 496h744v-496h-744z" transform="translate(-402.76271 -156.73141)"/></clipPath><clipPath id="aw"><path d="m0 496h744v-496h-744z" transform="translate(-397.08891 -153.5156)"/></clipPath><clipPath id="ax"><path d="m0 496h744v-496h-744z" transform="translate(-385.74021 -152.9482)"/></clipPath><clipPath id="ay"><path d="m0 496h744v-496h-744z" transform="translate(-378.36331 -157.10941)"/></clipPath><clipPath id="az"><path d="m0 496h744v-496h-744z" transform="translate(-403.89841 -148.2187)"/></clipPath><clipPath id="aA"><path d="m0 496h744v-496h-744z" transform="translate(-357.55811 -170.918)"/></clipPath><clipPath id="aB"><path d="m0 496h744v-496h-744z" transform="translate(-364.93511 -165.4316)"/></clipPath><clipPath id="aC"><path d="m0 496h744v-496h-744z" transform="translate(-371.55521 -161.8379)"/></clipPath><clipPath id="aD"><path d="m0 496h744v-496h-744z" transform="translate(-377.98541 -147.6523)"/></clipPath><clipPath id="aE"><path d="m0 496h744v-496h-744z" transform="translate(-373.44531 -149.9219)"/></clipPath><clipPath id="aF"><path d="m0 496h744v-496h-744z" transform="translate(-366.63721 -153.1367)"/></clipPath><clipPath id="aG"><path d="m0 496h744v-496h-744z" transform="translate(-358.50291 -157.48831)"/></clipPath><clipPath id="aH"><path d="m0 496h744v-496h-744z" transform="translate(-305.04981 -331.76421)"/></clipPath><clipPath id="aI"><path d="m0 496h744v-496h-744z" transform="translate(-305.04981 -331.76371)"/></clipPath><clipPath id="aJ"><path d="m0 496h744v-496h-744z" transform="translate(-314.08301 -274.69141)"/></clipPath><clipPath id="aK"><path d="m0 496h744v-496h-744z" transform="translate(-341.93461 -274.69141)"/></clipPath><clipPath id="aL"><path d="m0 496h744v-496h-744z" transform="translate(-369.78611 -274.69141)"/></clipPath><clipPath id="aM"><path d="m0 496h744v-496h-744z" transform="translate(-467.26861 -274.69141)"/></clipPath><clipPath id="aN"><path d="m0 496h744v-496h-744z" transform="translate(-439.41701 -274.69141)"/></clipPath><clipPath id="aO"><path d="m0 496h744v-496h-744z" transform="translate(-411.56451 -274.69141)"/></clipPath><clipPath id="aP"><path d="m0 496h744v-496h-744z" transform="translate(-305.04981 -331.76371)"/></clipPath><clipPath id="aQ"><path d="m0 496h744v-496h-744z" transform="translate(-305.04981 -331.76421)"/></clipPath><path d="m0 0h744v496h-744z" fill="#fff" transform="matrix(1.3333333 0 0 -1.3333333 0 661.33333)"/><g stroke="#000"><path clip-path="url(#a)" d="m0 0c0 3.42-1.111 10.061-4.726 12.36-4.642 2.414-4.642 3.899-5.013 7.055s7.797 9.096 7.797 9.096-7.426 3.342-10.21 2.971c-2.784-.372-8.168-.928-8.91-1.671-.743-.743-4.827 13.366-2.228 15.594 2.6 2.228 7.981-5.198 7.981-5.198s3.527 8.168-8.91 23.762c4.27 30.445-24.133 37.5-30.63 37.314-5.382.742-19.306-4.27-21.533-10.953-7.055-2.413-7.426-8.54-7.426-8.54s-14.479-2.599-16.336-15.223c8.539 7.054 14.108-.743 14.108-.743s7.426-5.198 11.324-5.384c3.897-.186-3.713-12.995-5.94-15.223-2.228-2.228-11.51-10.768-11.139-11.324s7.24-2.599 6.869-5.755c-.372-3.156-21.163-12.81-20.049-15.223 5.384 1.671 9.581.384 9.581.384.75-5.271-1.35-11.34-4.932-13.305z" fill="#ffd600" stroke-width="1.484" transform="matrix(1.3333333 0 0 -1.3333333 583.9492 238.12507)"/><g stroke-linejoin="round"><path clip-path="url(#b)" d="m0 0s.945-11.16-3.783-15.889c20.995-1.324 32.344-22.699 32.533-27.807.188-5.106-6.432-9.077-6.432-9.077s2.271-9.081-6.431-10.594c.189-8.701-5.863-8.701-5.863-8.701s-2.27-7.188-9.268-6.81c-2.081-10.403-12.862-10.214-12.862-10.214s-6.242-15.133-15.51-9.269c-5.863-12.862-21.373-12.295-27.237 0-3.215.188-10.402-4.16-14.753 8.701-9.646-1.703-13.429 10.592-13.429 10.592s-6.432.568-8.891 6.999c-7.565 1.513-6.241 9.079-6.241 9.079s-7.565 2.08-7.377 10.403c-6.053 3.595-5.485 10.025-5.485 10.025s4.729 22.319 32.155 27.049c-4.351 6.242-3.783 15.322-3.783 15.322z" fill="#ffd600" stroke-linecap="round" stroke-width="1.484" transform="matrix(1.3333333 0 0 -1.3333333 576.612 423.6068)"/><path clip-path="url(#c)" d="m0 0s-14.949-16.084-22.425-4.079c-7.475 12.006 10.419 15.405 10.646 15.632.227.225 10.42 3.397 11.325 22.198.907 18.802-22.425 31.034-28.994 32.62s-25.822 1.586-25.822 1.586-70.445 16.989-77.693 22.199c-7.249 5.211-73.844 17.443-73.844 17.443s-10.646 1.359-9.739-8.156c.906-9.514 9.739-10.646 9.739-10.646s-7.476-5.89-6.569-11.1c.906-5.211 6.569-13.591 18.348-12.232-1.359-18.575 24.463-21.52 24.463-21.52s2.718-26.73 26.503-25.371c5.663-18.347 26.955-19.028 26.955-19.028s9.965-12.459 24.462-13.364c8.381-20.84 26.502-14.951 26.502-14.951s-1.358-13.138 7.022-13.138c-4.304-14.95 11.777-16.989 17.894-14.044 1.586-3.17 7.021-12.912 19.48-6.797 7.474-11.099 19.707-5.889 19.707-5.889s2.718-8.835 13.364-5.436c10.648 3.399-11.55 73.62-11.324 74.073" fill="#ffd600" transform="matrix(1.3333333 0 0 -1.3333333 401.42453 252.89)"/><path clip-path="url(#d)" d="m0 0s16.535-1.813 14.497-27.409" fill="#ffd600" stroke-linecap="round" transform="matrix(1.3333333 0 0 -1.3333333 339.8132 179.7988)"/><path clip-path="url(#e)" d="m0 0s-31.712-21.747 27.635-28.541" fill="#ffd600" stroke-linecap="round" transform="matrix(1.3333333 0 0 -1.3333333 255.85347 144.4616)"/><path clip-path="url(#f)" d="m0 0c-.226-.453-14.95-17.895 12.231-23.105-12.911-12.233 11.326-16.31 11.326-16.31s-4.984-12.911 9.513-16.309c-4.756-13.365 10.873-12.686 10.873-12.686s.453-16.309 19.028-16.084c-.227-11.1 12.684-11.779 12.684-11.779s3.851-12.005 16.308-8.381c1.359-8.381 9.967-6.569 9.967-6.569" fill="#ffd600" stroke-linecap="round" transform="matrix(1.3333333 0 0 -1.3333333 267.9336 178.58987)"/><path clip-path="url(#g)" d="m0 0s.68 11.553-2.038 13.818" fill="#f7f308" stroke-linecap="round" transform="matrix(1.3333333 0 0 -1.3333333 399.00907 344.70707)"/><path clip-path="url(#h)" d="m0 0c.227.227 5.437 10.646 3.624 12.459" fill="#f7f308" stroke-linecap="round" transform="matrix(1.3333333 0 0 -1.3333333 371.5248 336.25)"/><path clip-path="url(#i)" d="m0 0 14.044 13.818" fill="#f7f308" stroke-linecap="round" transform="matrix(1.3333333 0 0 -1.3333333 346.15627 327.49093)"/><path clip-path="url(#j)" d="m0 0c.227.227 21.292 13.364 21.292 13.364" fill="#f7f308" stroke-linecap="round" transform="matrix(1.3333333 0 0 -1.3333333 322.59827 309.3692)"/><path clip-path="url(#k)" d="m0 0c.227.227 12.004 5.21 12.458 9.515" fill="#f7f308" stroke-linecap="round" transform="matrix(1.3333333 0 0 -1.3333333 312.6328 291.5488)"/><path clip-path="url(#l)" d="m0 0s28.54-6.117 33.525.453" fill="#ffd600" stroke-linecap="round" transform="matrix(1.3333333 0 0 -1.3333333 277.9004 271.31253)"/><path clip-path="url(#m)" d="m0 0c1.132 0 42.81-4.531 46.661.679" fill="#ffd600" stroke-linecap="round" transform="matrix(1.3333333 0 0 -1.3333333 246.1888 253.1908)"/><path clip-path="url(#n)" d="m0 0c.679.227 49.379-9.062 63.196-2.038" fill="#ffd600" stroke-linecap="round" transform="matrix(1.3333333 0 0 -1.3333333 209.3424 228.1224)"/><path clip-path="url(#o)" d="m0 0c1.133 0 64.782-15.404 74.296-10.646" fill="#ffd600" stroke-linecap="round" transform="matrix(1.3333333 0 0 -1.3333333 178.23573 194.59707)"/><path clip-path="url(#p)" d="m0 0c.453 0 75.882-17.67 85.395-10.419" fill="#ffd600" stroke-linecap="round" transform="matrix(1.3333333 0 0 -1.3333333 145.91867 164.998)"/><path clip-path="url(#q)" d="m0 0c.226 0 72.258-23.558 78.373-17.668" fill="#ffd600" stroke-linecap="round" transform="matrix(1.3333333 0 0 -1.3333333 132.93293 136.306)"/><path clip-path="url(#r)" d="m0 0s14.951-16.083 22.425-4.079c7.475 12.006-10.418 15.405-10.646 15.632-.226.225-10.42 3.397-11.326 22.198-.905 18.802 22.425 31.034 28.993 32.62 6.57 1.586 25.823 1.586 25.823 1.586s70.445 16.989 77.693 22.199c7.249 5.211 73.843 17.443 73.843 17.443s10.647 1.359 9.74-8.156c-.906-9.514-9.74-10.646-9.74-10.646s7.475-5.89 6.569-11.1c-.907-5.21-6.569-13.591-18.349-12.232 1.36-18.575-24.463-21.52-24.463-21.52s-2.719-26.73-26.501-25.371c-5.663-18.347-26.957-19.028-26.957-19.028s-9.965-12.459-24.462-13.364c-8.38-20.84-26.502-14.951-26.502-14.951s1.359-13.138-7.022-13.138c4.304-14.95-11.777-16.989-17.893-14.044-1.585-3.171-7.024-12.912-19.481-6.797-7.473-11.099-19.705-5.889-19.705-5.889s-2.718-8.835-13.364-5.436 11.553 73.62 11.325 74.073" fill="#ffd600" transform="matrix(1.3333333 0 0 -1.3333333 642.50133 253.58267)"/><path clip-path="url(#s)" d="m0 0s-16.536-1.813-14.497-27.409" fill="#ffd600" stroke-linecap="round" transform="matrix(1.3333333 0 0 -1.3333333 704.11587 180.4916)"/><path clip-path="url(#t)" d="m0 0s31.711-21.747-27.635-28.541" fill="#ffd600" stroke-linecap="round" transform="matrix(1.3333333 0 0 -1.3333333 788.07427 145.15427)"/><path clip-path="url(#u)" d="m0 0c.228-.453 14.949-17.895-12.233-23.105 12.911-12.233-11.326-16.31-11.326-16.31s4.984-12.911-9.513-16.309c4.757-13.365-10.872-12.686-10.872-12.686s-.453-16.309-19.029-16.084c.228-11.1-12.683-11.779-12.683-11.779s-3.852-12.005-16.31-8.381c-1.359-8.381-9.967-6.569-9.967-6.569" fill="#ffd600" stroke-linecap="round" transform="matrix(1.3333333 0 0 -1.3333333 775.9948 179.28253)"/><path clip-path="url(#v)" d="m0 0s-.68 11.553 2.038 13.818" fill="#f7f308" stroke-linecap="round" transform="matrix(1.3333333 0 0 -1.3333333 644.91933 345.39973)"/><path clip-path="url(#w)" d="m0 0c-.227.227-5.436 10.646-3.624 12.459" fill="#f7f308" stroke-linecap="round" transform="matrix(1.3333333 0 0 -1.3333333 672.40107 336.94267)"/><path clip-path="url(#x)" d="m0 0-14.045 13.818" fill="#f7f308" stroke-linecap="round" transform="matrix(1.3333333 0 0 -1.3333333 697.77213 328.1836)"/><path clip-path="url(#y)" d="m0 0c-.228.227-21.292 13.364-21.292 13.364" fill="#ffd600" stroke-linecap="round" transform="matrix(1.3333333 0 0 -1.3333333 721.33067 310.06187)"/><path clip-path="url(#z)" d="m0 0c-.228.227-12.005 5.21-12.459 9.515" fill="#f7f308" stroke-linecap="round" transform="matrix(1.3333333 0 0 -1.3333333 731.2956 292.2416)"/><path clip-path="url(#A)" d="m0 0s-28.54-6.117-33.522.453" fill="#ffd600" stroke-linecap="round" transform="matrix(1.3333333 0 0 -1.3333333 766.02733 272.0052)"/><path clip-path="url(#B)" d="m0 0c-1.134 0-42.811-4.531-46.661.679" fill="#ffd600" stroke-linecap="round" transform="matrix(1.3333333 0 0 -1.3333333 797.7396 253.88347)"/><path clip-path="url(#C)" d="m0 0c-.68.227-49.381-9.062-63.198-2.038" fill="#ffd600" stroke-linecap="round" transform="matrix(1.3333333 0 0 -1.3333333 834.586 228.81507)"/><path clip-path="url(#D)" d="m0 0c-1.132 0-64.782-15.402-74.296-10.646" fill="#ffd600" stroke-linecap="round" transform="matrix(1.3333333 0 0 -1.3333333 865.69267 195.28973)"/><path clip-path="url(#E)" d="m0 0c-.452 0-75.882-17.67-85.396-10.419" fill="#ffd600" stroke-linecap="round" transform="matrix(1.3333333 0 0 -1.3333333 898.00907 165.6908)"/><path clip-path="url(#F)" d="m0 0c-.227 0-72.258-23.558-78.374-17.668" fill="#ffd600" stroke-linecap="round" transform="matrix(1.3333333 0 0 -1.3333333 910.9948 136.99867)"/></g><path clip-path="url(#G)" d="m0 0s-4.429-63.296-4.644-63.152c-.213.145-9.237 11.057-9.237 11.057l-27.847-87.303 6.509-19.044-16.213-53.163-13.371 16.961-21.6-8.686 17.339 55.993 16.018 11.509 28.844 86.007-16.008-2.004z" fill="#00cede" stroke-width="1.484" transform="matrix(1.3333333 0 0 -1.3333333 757.91013 290.18813)"/><path clip-path="url(#H)" d="m0 0s-33.681-53.773-33.802-53.545c-.122.229-2.951 14.104-2.951 14.104l-55.345-51.34-59.097-57.025-.163 11.745-20.223 2.498 26.747 20.464 13.697 2.257 86.345 78.263-15.069 5.762z" fill="#00cede" stroke-width="1.484" transform="matrix(1.3333333 0 0 -1.3333333 839.9636 324.99733)"/><path clip-path="url(#I)" d="m0 0c.365.764 30.729 26.707 30.729 26.707" fill="none" stroke-width="1.515" transform="matrix(1.3333333 0 0 -1.3333333 638.4232 506.28907)"/><g stroke-width="1.484"><path clip-path="url(#J)" d="m0 0s-16.463-61.278-16.646-61.095c-.182.182-6.95 12.621-6.95 12.621l-66.763-114.691 2.743-19.939-23.961-43.9-9.878 19.207-22.863-4.391 25.606 46.461 17.927 8.232 67.494 113.229-16.097 1.097z" fill="#00cede" transform="matrix(1.3333333 0 0 -1.3333333 815.97133 264.34507)"/><path clip-path="url(#K)" d="m0 0c0 .365 23.048 40.608 23.048 40.608" fill="none" transform="matrix(1.3333333 0 0 -1.3333333 654.51947 540.4336)"/><path clip-path="url(#L)" d="m0 0 40.241-.183-4.024-9.695 17.56-69.51 21.218 69.327-7.5 10.061h41.887l-8.963-9.695-34.57-99.326 8.962-12.987h-40.241l8.963 12.987-33.839 98.96z" fill="#00cede" transform="matrix(1.3333333 0 0 -1.3333333 50.175733 248.97987)"/><path clip-path="url(#M)" d="m0 0h38.229l-6.219-8.597-.184-101.155 8.598-9.512h-40.424l8.048 10.243-.183 100.241z" fill="#00cede" transform="matrix(1.3333333 0 0 -1.3333333 873.28387 252.1504)"/><path clip-path="url(#N)" d="m0 0s4.902-6.157 6.727-6.727c1.824-.57 12.085-5.587 11.516-9.007-.57-3.42-7.297-5.131-7.297-5.131" fill="none" transform="matrix(1.3333333 0 0 -1.3333333 471.44787 130.1868)"/><path clip-path="url(#O)" d="m0 0 10.261-9.805s1.823-8.437 9.12-7.753c7.298.684 6.272 3.763 6.272 3.763s-8.778 6.157-15.733 4.675" fill="none" transform="matrix(1.3333333 0 0 -1.3333333 482.2416 118.02533)"/><g stroke-linejoin="round"><path clip-path="url(#P)" d="m0 0 13.705 11.383s-3.02 6.272-13.938 6.04c-10.22 7.2-27.873 24.158-27.873 24.158l-8.827 23.926s7.201 2.09 8.827 7.897c1.625 5.808-.465 13.009-1.162 13.705-.697.697-7.897-1.161-9.988-4.181-2.091-3.021-5.343-14.635-10.221-10.686s.697 8.362.697 8.362 4.878 6.04 4.646 9.292-6.503 13.008-7.201 13.24c-.697.232-2.09-12.776-3.949-14.17-1.858-1.395-4.413-7.201-8.13-3.949-3.716 3.252 1.858 8.131 1.858 8.131s10.453 5.574.232 23.926c-3.02-7.898-8.826-13.008-8.826-13.008s-2.788-4.878-5.343-.697 3.02 8.13 3.02 8.13 9.059 5.343 9.292 13.241c.232 7.897-10.917 16.957-10.917 16.957s-.696-14.634-4.181-16.493c-3.485-1.858-4.878-4.878-8.827-1.626s3.02 10.453 3.02 10.453 12.079 12.079 11.382 19.048-1.394 8.13-1.394 8.13-9.059-5.575-10.22-8.362c-1.162-2.788-4.878-12.776-9.524-9.756-3.252 3.716 2.788 10.917 2.788 10.917s4.413 4.878 4.181 6.969-3.716 8.362-10.453 14.402c-.929 1.858-1.394 9.292-1.394 9.292s-5.11-6.04-4.877-9.292c.232-3.252-.465-9.756.232-16.957s-5.575 2.323-5.575 2.323l1.162 23.229s-8.827 10.686-19.512 14.634c3.949-5.807 3.716-11.382 3.716-11.382s-4.413-9.524-4.413-12.079 5.11-13.705 14.634-21.138c-14.402 15.563-32.287 10.453-37.63 13.473 2.555-3.02 10.221-14.402 9.292-17.422s13.705-9.291 13.705-9.291l15.563-.233s7.665-5.342 8.362-8.826-11.149 6.504-15.795 6.271c-4.646-.232-16.957 1.625-16.957 1.625s7.433-6.968 7.665-9.988 3.484-9.988 7.898-11.847c4.413-1.858 16.259-2.556 16.259-2.556s5.11 3.021 6.04-.231c.929-3.252-6.736-5.808-6.736-5.808s-7.897 0-10.453 2.091-3.02 5.575-14.401 6.969c-1.162-9.524 6.271-19.28 6.271-19.28s31.358 2.555 31.125-4.182c-.232-6.736-26.015-.696-26.944 1.395-.929 2.09 1.162-13.24 7.201-16.492s19.512-1.627 21.138-.93 7.665 1.394 7.665-2.091-30.661-6.272-31.125-5.343c-.465.93 4.646-11.847 16.957-11.15s17.653 4.414 17.653 4.414 7.433 1.395 8.129-1.626c.697-3.02-7.433-4.413-7.433-4.413s-19.512-.465-20.208.465c-.697.929 4.414-12.312 18.118-12.08 10.221.931 10.917 5.344 13.008 6.04 3.02.696 9.524.696 10.453.464s17.189-11.613 17.189-11.613z" fill="#188400" transform="matrix(1.3333333 0 0 -1.3333333 398.8216 530.0508)"/><path clip-path="url(#Q)" d="m0 0s-.465-22.3 10.685-29.037" fill="none" stroke-linecap="round" transform="matrix(1.3333333 0 0 -1.3333333 239.01307 285.3704)"/><path clip-path="url(#R)" d="m0 0s7.433-11.382-5.11-15.563" fill="none" stroke-linecap="round" transform="matrix(1.3333333 0 0 -1.3333333 270.2936 308.90947)"/><path clip-path="url(#S)" d="m0 0s-.929-12.775 21.603-11.847" fill="none" stroke-linecap="round" transform="matrix(1.3333333 0 0 -1.3333333 218.88147 319.1308)"/><path clip-path="url(#T)" d="m0 0s-3.716-9.059-12.775-8.594" fill="none" stroke-linecap="round" transform="matrix(1.3333333 0 0 -1.3333333 293.21227 333.99733)"/><path clip-path="url(#U)" d="m0 0c0-1.16 1.626-13.473-10.22-13.239" fill="none" stroke-linecap="round" transform="matrix(1.3333333 0 0 -1.3333333 304.36133 361.25267)"/><path clip-path="url(#V)" d="m0 0s14.866-9.293 21.602-8.596" fill="none" stroke-linecap="round" transform="matrix(1.3333333 0 0 -1.3333333 228.7916 354.43747)"/><path clip-path="url(#W)" d="m0 0s6.968-7.434 19.744-5.573" fill="none" stroke-linecap="round" transform="matrix(1.3333333 0 0 -1.3333333 233.12827 384.48173)"/><path clip-path="url(#X)" d="m0 0c0-.931-2.322-8.131-7.433-9.062" fill="none" stroke-linecap="round" transform="matrix(1.3333333 0 0 -1.3333333 314.89067 391.29427)"/><path clip-path="url(#Y)" d="m0 0s5.575-7.2 20.208-3.252" fill="none" stroke-linecap="round" transform="matrix(1.3333333 0 0 -1.3333333 248.61333 413.2864)"/><path clip-path="url(#Z)" d="m0 0s-2.323-11.382-8.362-11.613" fill="none" stroke-linecap="round" transform="matrix(1.3333333 0 0 -1.3333333 333.47333 409.25907)"/><path clip-path="url(#aa)" d="m0 0s-4.646-13.705-16.492-11.614" fill="none" stroke-linecap="round" transform="matrix(1.3333333 0 0 -1.3333333 352.3652 425.67453)"/><path clip-path="url(#ab)" d="m0 0s4.646-4.182 16.027.931" fill="none" stroke-linecap="round" transform="matrix(1.3333333 0 0 -1.3333333 279.584 458.19533)"/><path clip-path="url(#ac)" d="m0 0c.929 0 6.736-4.878 20.673 2.555" fill="none" stroke-linecap="round" transform="matrix(1.3333333 0 0 -1.3333333 262.5508 439.612)"/><path clip-path="url(#ad)" d="m0 0s-8.679-3.886-.259-16.969" fill="none" stroke-linecap="round" transform="matrix(1.3333333 0 0 -1.3333333 398.7916 507.28907)"/></g><path clip-path="url(#ae)" d="m0 0s9.121-8.757 9.304-10.582c.183-1.824 2.372-10.397 4.743-11.676 2.371-1.278 11.677-8.757 12.953-11.676 1.276-2.92 9.486-15.325 9.486-15.325s7.662-15.689 12.77-16.967c5.108-1.276 19.521.913 22.439-6.021 2.918-6.933 2.189-16.967 2.189-16.967s-3.467-3.101-5.108-1.277c-1.64 1.825-4.56-9.12-9.669-6.02-6.958 14.816-25.168 12.397-25.168 12.397s4.006 6.212-12.23 11.685c-25.357-4.379-32.838 22.075-32.838 22.075l-14.433 12.519z" fill="#ffd600" transform="matrix(1.3333333 0 0 -1.3333333 626.12373 355.09893)"/><path clip-path="url(#af)" d="m0 0 11.311-5.291-.912 9.669" fill="#ffd600" transform="matrix(1.3333333 0 0 -1.3333333 606.664 405.2084)"/><path clip-path="url(#ag)" d="m0 0 10.398-5.107-4.195 8.391" fill="#ffd600" transform="matrix(1.3333333 0 0 -1.3333333 628.06907 403.26307)"/><path clip-path="url(#ah)" d="m0 0 10.216-5.474-4.743 10.581" fill="#ffd600" transform="matrix(1.3333333 0 0 -1.3333333 627.33987 385.01947)"/><path clip-path="url(#ai)" d="m0 0s-11.676 15.324-11.493 15.324c.182 0 19.885-3.831 19.885-3.831l-7.297 15.69 18.061-4.744" fill="#ffd600" transform="matrix(1.3333333 0 0 -1.3333333 648.98827 451.9128)"/><path clip-path="url(#aj)" d="m0 0s11.493-2.556 11.129-21.711" fill="#ffd600" transform="matrix(1.3333333 0 0 -1.3333333 693.7448 455.07547)"/><path clip-path="url(#ak)" d="m0 0s12.406.729 11.676-18.608" fill="#ffd600" transform="matrix(1.3333333 0 0 -1.3333333 701.7708 451.1836)"/><path clip-path="url(#al)" d="m0 0s-9.122-8.757-9.304-10.581c-.183-1.823-3.885-9.264-6.256-10.541-2.372-1.276-10.541-9.514-11.818-12.434-1.277-2.919-9.108-15.703-9.108-15.703s-8.986-13.041-14.094-14.318c-6.243-.521-18.196-1.736-21.115-8.668-2.919-6.934 1.594-17.534 4.999-17.534 5.107-2.271 7.438-4.615 9.08-2.79 2.776-.824 1.188-3.201 6.297-.1-3.883 4.977-3.468 9.784.424 11.045 3.882 1.328 10.205-4.58 10.205-4.58s2.302 10.743 18.539 16.218c25.358-4.38 32.172 16.084 33.947 20.965 3.998 5.441 10.216 6.89 15.324 10.335z" fill="#ffd600" transform="matrix(1.3333333 0 0 -1.3333333 416.50653 358.26427)"/><path clip-path="url(#am)" d="m0 0-11.755-6.178.912 8.338" fill="none" stroke-linecap="round" stroke-linejoin="round" transform="matrix(1.3333333 0 0 -1.3333333 436.55733 405.41667)"/><path clip-path="url(#an)" d="m0 0-11.064-5.107 5.083 8.613" fill="none" stroke-linecap="round" stroke-linejoin="round" transform="matrix(1.3333333 0 0 -1.3333333 415.74413 403.17453)"/><path clip-path="url(#ao)" d="m0 0-9.55-4.143 3.412 7.033" fill="none" stroke-linecap="round" stroke-linejoin="round" transform="matrix(1.3333333 0 0 -1.3333333 416.17707 385.22653)"/><path clip-path="url(#ap)" d="m0 0c1.775 3.55 10.788 14.659 10.605 14.659-.182 0-18.554-3.832-18.554-3.832l5.966 15.469-16.064-3.19" fill="none" stroke-linecap="round" stroke-linejoin="round" transform="matrix(1.3333333 0 0 -1.3333333 394.23307 451.82427)"/><path clip-path="url(#aq)" d="m0 0s-13.952-2.555-8.48-19.818" fill="none" stroke-linecap="round" stroke-linejoin="round" transform="matrix(1.3333333 0 0 -1.3333333 349.8932 454.96227)"/><path clip-path="url(#ar)" d="m0 0s-15.242-.405-9.973-19.365" fill="none" transform="matrix(1.3333333 0 0 -1.3333333 341.86653 451.8268)"/></g><path clip-path="url(#as)" d="m0 0c0 .188 5.106-12.862-5.863-15.133 28.182 2.08 36.127-30.074 36.127-30.074" fill="none" stroke-linecap="round" stroke-linejoin="round" stroke-width="1.854" transform="matrix(1.3333333 0 0 -1.3333333 565.76693 433.19013)"/><path clip-path="url(#at)" d="m0 0s2.459-9.458-5.674-14.187c29.506-6.432 36.316-37.074 36.316-37.074" fill="none" stroke-linecap="round" stroke-linejoin="round" stroke-width="1.484" transform="matrix(1.3333333 0 0 -1.3333333 557.19267 439.49613)"/><path clip-path="url(#au)" d="m0 0c0-.379 2.838-12.295-6.432-14.188 18.349 4.919 37.452-41.613 37.452-41.613" fill="none" stroke-linecap="round" stroke-linejoin="round" stroke-width="1.484" transform="matrix(1.3333333 0 0 -1.3333333 548.86973 445.29693)"/><path clip-path="url(#av)" d="m0 0s4.729-9.078-3.972-11.916c16.455-1.702 21.752-55.801 21.752-55.801" fill="none" stroke-linecap="round" stroke-linejoin="round" stroke-width="1.484" transform="matrix(1.3333333 0 0 -1.3333333 537.01693 452.35813)"/><path clip-path="url(#aw)" d="m0 0s2.647-10.024-5.863-13.051c17.212 9.078 13.996-60.908 13.996-60.908" fill="none" stroke-linecap="round" stroke-linejoin="round" stroke-width="1.484" transform="matrix(1.3333333 0 0 -1.3333333 529.45187 456.64587)"/><path clip-path="url(#ax)" d="m0 0s-3.594-10.593 4.351-12.673c-15.7 4.35-12.673-60.72-12.673-60.72" fill="none" stroke-linecap="round" stroke-linejoin="round" stroke-width="1.484" transform="matrix(1.3333333 0 0 -1.3333333 514.32027 457.4024)"/><path clip-path="url(#ay)" d="m0 0s-2.459-9.646 7.187-14.564c-16.076 10.213-22.696-54.288-22.696-54.288" fill="none" stroke-linecap="round" stroke-linejoin="round" stroke-width="1.484" transform="matrix(1.3333333 0 0 -1.3333333 504.4844 451.85413)"/><path clip-path="url(#az)" d="m0 0s29.315-28.184 29.128-48.99" fill="none" stroke-linecap="round" stroke-linejoin="round" stroke-width="1.484" transform="matrix(1.3333333 0 0 -1.3333333 538.5312 463.7084)"/><path clip-path="url(#aA)" d="m0 0c0-.189-3.594-15.133 6.81-15.511" fill="none" stroke-linecap="round" stroke-linejoin="round" stroke-width="1.484" transform="matrix(1.3333333 0 0 -1.3333333 476.74413 433.44267)"/><path clip-path="url(#aB)" d="m0 0c0-.378-2.838-12.672 5.484-13.239" fill="none" stroke-linecap="round" stroke-linejoin="round" stroke-width="1.484" transform="matrix(1.3333333 0 0 -1.3333333 486.58013 440.75787)"/><path clip-path="url(#aC)" d="m0 0s-5.107-12.295 7.375-13.997" fill="none" stroke-linecap="round" stroke-linejoin="round" stroke-width="1.484" transform="matrix(1.3333333 0 0 -1.3333333 495.40693 445.54947)"/><path clip-path="url(#aD)" d="m0 0c-.189 0-24.399-22.511-28.184-48.612" fill="none" stroke-linecap="round" stroke-linejoin="round" stroke-width="1.484" transform="matrix(1.3333333 0 0 -1.3333333 503.98053 464.4636)"/><path clip-path="url(#aE)" d="m0 0c-.188 0-30.83-19.104-32.911-43.505" fill="none" stroke-linecap="round" stroke-linejoin="round" stroke-width="1.484" transform="matrix(1.3333333 0 0 -1.3333333 497.92707 461.43747)"/><path clip-path="url(#aF)" d="m0 0s-34.046-19.859-32.533-37.83" fill="none" stroke-linecap="round" stroke-linejoin="round" stroke-width="1.484" transform="matrix(1.3333333 0 0 -1.3333333 488.8496 457.15107)"/><path clip-path="url(#aG)" d="m0 0s-25.345-4.729-31.587-31.967" fill="none" stroke-linecap="round" stroke-linejoin="round" stroke-width="1.484" transform="matrix(1.3333333 0 0 -1.3333333 478.00387 451.34893)"/><path clip-path="url(#aH)" d="m0 0s24.51-13.536 42.07-12.804 43.899 12.073 43.899 12.073 23.412-13.17 42.436-11.341c19.022 1.829 45.363 12.072 45.363 12.072 15.729-78.534-20.121-149.02-87.799-180.726-71.824 32.804-106.699 111.704-85.969 180.726z" fill="none" stroke-width="1.484" transform="matrix(1.3333333 0 0 -1.3333333 406.73307 218.98107)"/><path clip-path="url(#aI)" d="m0 0s24.511-13.536 42.069-12.805c17.561.732 43.9 12.074 43.9 12.074s23.412-13.17 42.435-11.342c19.024 1.829 45.362 12.073 45.362 12.073 15.73-78.534-20.12-149.02-87.797-180.727-71.824 32.806-106.698 111.705-85.969 180.727" fill="#fff" transform="matrix(1.3333333 0 0 -1.3333333 406.73307 218.98173)"/></g><g fill="#be0a2f"><path clip-path="url(#aJ)" d="m0 0v-49.103l13.926-23.48v72.583z" transform="matrix(1.3333333 0 0 -1.3333333 418.77733 295.07813)"/><path clip-path="url(#aK)" d="m0 0v-88.907l13.926-12.962v101.869z" transform="matrix(1.3333333 0 0 -1.3333333 455.9128 295.07813)"/><path clip-path="url(#aL)" d="m0 0v-112.393l13.926-7.732v120.125z" transform="matrix(1.3333333 0 0 -1.3333333 493.04813 295.07813)"/><path clip-path="url(#aM)" d="m0 0v-49.115l-13.926-23.685v72.8z" transform="matrix(1.3333333 0 0 -1.3333333 623.0248 295.07813)"/><path clip-path="url(#aN)" d="m0 0v-89.345l-13.926-12.699v102.045h13.926z" transform="matrix(1.3333333 0 0 -1.3333333 585.88933 295.07813)"/><path clip-path="url(#aO)" d="m0 0v-112.179l-13.926-8.296v120.475z" transform="matrix(1.3333333 0 0 -1.3333333 548.75267 295.07813)"/></g><g stroke="#000"><path clip-path="url(#aP)" d="m0 0s6.128-3.384 14.449-6.676c8.323-3.294 18.84-6.494 27.619-6.127 17.56.731 43.899 12.073 43.899 12.073s23.413-13.169 42.436-11.342c19.023 1.829 45.362 12.073 45.362 12.073 3.841-22.804 5.761-34.45 2.378-57.072h-181.036c-2.302 22.575-2.179 32.804 4.893 57.071" fill="#002768" transform="matrix(1.3333333 0 0 -1.3333333 406.73307 218.98173)"/><path clip-path="url(#aQ)" d="m0 0s24.51-13.536 42.07-12.804 43.899 12.073 43.899 12.073 23.412-13.17 42.436-11.341c19.022 1.829 45.363 12.072 45.363 12.072 15.729-78.534-20.121-149.02-87.799-180.726-71.824 32.804-106.699 111.704-85.969 180.726z" fill="none" stroke-width="1.484" transform="matrix(1.3333333 0 0 -1.3333333 406.73307 218.98107)"/></g></svg>