<svg height="800" viewBox="0 0 1200 800" width="1200" xmlns="http://www.w3.org/2000/svg" xmlns:xlink="http://www.w3.org/1999/xlink"><clipPath id="a"><path d="m0 600h900v-600h-900z" transform="translate(-172.92141 -539.90231)"/></clipPath><clipPath id="b"><path d="m0 600h900v-600h-900z" transform="translate(-251.60211 -502.07861)"/></clipPath><clipPath id="c"><path d="m0 600h900v-600h-900z" transform="translate(-686.22172 -176.6025)"/></clipPath><clipPath id="d"><path d="m0 600h900v-600h-900z" transform="translate(-764.90229 -138.7783)"/></clipPath><clipPath id="e"><path d="m0 600h900v-600h-900z" transform="translate(-686.22172 -539.90231)"/></clipPath><clipPath id="f"><path d="m0 600h900v-600h-900z" transform="translate(-764.90229 -502.07861)"/></clipPath><clipPath id="g"><path d="m0 600h900v-600h-900z" transform="translate(-172.92141 -176.6025)"/></clipPath><clipPath id="h"><path d="m0 600h900v-600h-900z" transform="translate(-251.60211 -138.7783)"/></clipPath><path d="m0 0h900v600h-900z" fill="#fff" transform="matrix(1.3333333 0 0 -1.3333333 0 800)"/><g fill="#e8112d"><path d="m0 0v-240h-390v-120h390v-240h120.001v240h389.999v120h-389.999v240z" transform="matrix(1.3333333 0 0 -1.3333333 519.9996 -.0004)"/><path clip-path="url(#a)" d="m0 0c7.315-38.491 7.315-78.014 0-116.504 13.566 1.692 27.291 1.692 40.857 0-7.315 38.49-7.315 78.013 0 116.504-13.566-1.693-27.291-1.693-40.857 0" transform="matrix(1.3333333 0 0 -1.3333333 230.56187 80.130267)"/><path clip-path="url(#b)" d="m0 0c-38.49-7.315-78.014-7.315-116.504 0 1.692-13.566 1.692-27.291 0-40.857 38.49 7.315 78.014 7.315 116.504 0-1.692 13.566-1.692 27.291 0 40.857" transform="matrix(1.3333333 0 0 -1.3333333 335.46947 130.56187)"/><path clip-path="url(#c)" d="m0 0c7.314-38.49 7.314-78.015 0-116.505 13.566 1.692 27.29 1.692 40.856 0-7.314 38.49-7.314 78.015 0 116.505-13.566-1.693-27.29-1.693-40.856 0" transform="matrix(1.3333333 0 0 -1.3333333 914.96227 564.53)"/><path clip-path="url(#d)" d="m0 0c-38.49-7.314-78.015-7.314-116.505 0 1.693-13.566 1.693-27.29 0-40.856 38.49 7.314 78.015 7.314 116.505 0-1.692 13.566-1.692 27.29 0 40.856" transform="matrix(1.3333333 0 0 -1.3333333 1019.8697 614.96227)"/><path clip-path="url(#e)" d="m0 0c7.314-38.491 7.314-78.014 0-116.504 13.566 1.692 27.29 1.692 40.856 0-7.314 38.49-7.314 78.013 0 116.504-13.566-1.693-27.29-1.693-40.856 0" transform="matrix(1.3333333 0 0 -1.3333333 914.96227 80.130267)"/><path clip-path="url(#f)" d="m0 0c-38.49-7.315-78.015-7.315-116.505 0 1.693-13.566 1.693-27.291 0-40.857 38.49 7.315 78.015 7.315 116.505 0-1.692 13.566-1.692 27.291 0 40.857" transform="matrix(1.3333333 0 0 -1.3333333 1019.8697 130.56187)"/><path clip-path="url(#g)" d="m0 0c7.315-38.49 7.315-78.015 0-116.505 13.566 1.692 27.291 1.692 40.857 0-7.315 38.49-7.315 78.015 0 116.505-13.566-1.693-27.291-1.693-40.857 0" transform="matrix(1.3333333 0 0 -1.3333333 230.56187 564.53)"/><path clip-path="url(#h)" d="m0 0c-38.49-7.314-78.014-7.314-116.504 0 1.692-13.566 1.692-27.29 0-40.856 38.49 7.314 78.014 7.314 116.504 0-1.692 13.566-1.692 27.29 0 40.856" transform="matrix(1.3333333 0 0 -1.3333333 335.46947 614.96227)"/></g></svg>