<svg xmlns="http://www.w3.org/2000/svg" width="144" height="96">
<path style="fill:#fc0" d="M0 0H144V91H0Z" fill="#fc0"/>
<path style="fill:#026" d="m 0,96 v -5 l 12,-8 12,8 12,-8 12,8 12,-8 12,8 12,-8 12,8 12,-8 12,8 12,-8 12,8 v 5 z" fill="#037"/>
<path style="fill:#026" d="M 0,78 V 65 l 12,-8 12,8 12,-8 12,8 12,-8 12,8 12,-8 12,8 12,-8 12,8 12,-8 12,8 V 78 L 132,70 120,78 108,70 96,78 84,70 72,78 60,70 48,78 36,70 24,78 12,70 Z" fill="#037"/>
<path style="fill:#026" d="M 0,52 V 39 l 12,-8 12,8 12,-8 12,8 12,-8 12,8 12,-8 12,8 12,-8 12,8 12,-8 12,8 V 52 L 132,44 120,52 108,44 96,52 84,44 72,52 60,44 48,52 36,44 24,52 12,44 Z" fill="#037"/>
<path style="fill:#026" d="M 0,26 V 13 l 12,-8 12,8 12,-8 12,8 12,-8 12,8 12,-8 12,8 12,-8 12,8 12,-8 12,8 V 26 L 132,18 120,26 108,18 96,26 84,18 72,26 60,18 48,26 36,18 24,26 12,18 Z" fill="#037"/>
</svg>
