<svg height="888.88934" viewBox="0 0 1333.3333 888.88934" width="1333.3333" xmlns="http://www.w3.org/2000/svg" xmlns:xlink="http://www.w3.org/1999/xlink"><clipPath id="a"><path d="m0 666.667h1000v-666.667h-1000z" transform="translate(-259.2358 -391.47621)"/></clipPath><clipPath id="b"><path d="m0 666.667h1000v-666.667h-1000z" transform="translate(-259.2358 -498.77751)"/></clipPath><clipPath id="c"><path d="m0 666.667h1000v-666.667h-1000z" transform="translate(-259.2358 -611.07832)"/></clipPath><clipPath id="d"><path d="m0 666.667h1000v-666.667h-1000z"/></clipPath><clipPath id="e"><path d="m0 666.667h1000v-666.667h-1000z" transform="translate(-433.00001 -666.66672)"/></clipPath><clipPath id="f"><path d="m0 666.667h1000v-666.667h-1000z"/></clipPath><clipPath id="g"><path d="m0 666.667h1000v-666.667h-1000z"/></clipPath><clipPath id="h"><path d="m0 666.667h1000v-666.667h-1000z" transform="translate(-433.00001 -377.99971)"/></clipPath><clipPath id="i"><path d="m0 666.667h1000v-666.667h-1000z" transform="translate(-774.20124 -163.87471)"/></clipPath><clipPath id="j"><path d="m0 666.667h1000v-666.667h-1000z" transform="translate(-932.65232 -237.2555)"/></clipPath><clipPath id="k"><path d="m0 666.667h1000v-666.667h-1000z" transform="translate(0 -48.654004)"/></clipPath><clipPath id="l"><path d="m0 666.667h1000v-666.667h-1000z" transform="translate(-774.20124 -101.2555)"/></clipPath><clipPath id="m"><path d="m0 666.667h1000v-666.667h-1000z" transform="translate(-1000 -142.86691)"/></clipPath><clipPath id="n"><path d="m0 666.667h1000v-666.667h-1000z" transform="translate(-774.20124 -216.55631)"/></clipPath><clipPath id="o"><path d="m0 666.667h1000v-666.667h-1000z" transform="translate(-1000 -257.16761)"/></clipPath><clipPath id="p"><path d="m0 666.667h1000v-666.667h-1000z" transform="translate(-774.20124 -330.85711)"/></clipPath><clipPath id="q"><path d="m0 666.667h1000v-666.667h-1000z" transform="translate(-736.83302 -473.92841)"/></clipPath><clipPath id="r"><path d="m0 666.667h1000v-666.667h-1000z" transform="translate(-736.83302 -473.92891)"/></clipPath><clipPath id="s"><path d="m0 666.667h1000v-666.667h-1000z" transform="translate(-779.37009 -328.68811)"/></clipPath><clipPath id="t"><path d="m0 666.667h1000v-666.667h-1000z" transform="translate(-779.36912 -328.68911)"/></clipPath><clipPath id="u"><path d="m0 666.667h1000v-666.667h-1000z" transform="translate(-791.37992 -336.60711)"/></clipPath><clipPath id="v"><path d="m0 666.667h1000v-666.667h-1000z" transform="translate(-627.75782 -514.17692)"/></clipPath><clipPath id="w"><path d="m0 666.667h1000v-666.667h-1000z" transform="translate(-627.75881 -514.17842)"/></clipPath><clipPath id="x"><path d="m0 666.667h1000v-666.667h-1000z" transform="translate(-621.57911 -500.41911)"/></clipPath><clipPath id="y"><path d="m0 666.667h1000v-666.667h-1000z" transform="translate(-873.35552 -486.88931)"/></clipPath><clipPath id="z"><path d="m0 666.667h1000v-666.667h-1000z" transform="translate(-873.35455 -486.88931)"/></clipPath><clipPath id="A"><path d="m0 666.667h1000v-666.667h-1000z" transform="translate(-861.5947 -497.63831)"/></clipPath><clipPath id="B"><path d="m0 666.667h1000v-666.667h-1000z" transform="translate(-870.49322 -356.86691)"/></clipPath><clipPath id="C"><path d="m0 666.667h1000v-666.667h-1000z" transform="translate(-870.49412 -356.86691)"/></clipPath><clipPath id="D"><path d="m0 666.667h1000v-666.667h-1000z" transform="translate(-875.17382 -371.05631)"/></clipPath><clipPath id="E"><path d="m0 666.667h1000v-666.667h-1000z" transform="translate(-642.26762 -349.26631)"/></clipPath><clipPath id="F"><path d="m0 666.667h1000v-666.667h-1000z" transform="translate(-642.26861 -349.26631)"/></clipPath><clipPath id="G"><path d="m0 666.667h1000v-666.667h-1000z" transform="translate(-655.08892 -342.33661)"/></clipPath><clipPath id="H"><path d="m0 666.667h1000v-666.667h-1000z" transform="translate(-841.62602 -551.84541)"/></clipPath><clipPath id="I"><path d="m0 666.667h1000v-666.667h-1000z" transform="translate(-841.62602 -551.84441)"/></clipPath><clipPath id="J"><path d="m0 666.667h1000v-666.667h-1000z" transform="translate(-841.3252 -539.95532)"/></clipPath><clipPath id="K"><path d="m0 666.667h1000v-666.667h-1000z" transform="translate(-726.44242 -578.50361)"/></clipPath><clipPath id="L"><path d="m0 666.667h1000v-666.667h-1000z" transform="translate(-726.44242 -578.50311)"/></clipPath><clipPath id="M"><path d="m0 666.667h1000v-666.667h-1000z" transform="translate(-719.48342 -568.22481)"/></clipPath><clipPath id="N"><path d="m0 666.667h1000v-666.667h-1000z" transform="translate(-599.05961 -419.04261)"/></clipPath><clipPath id="O"><path d="m0 666.667h1000v-666.667h-1000z" transform="translate(-599.05961 -419.04361)"/></clipPath><clipPath id="P"><path d="m0 666.667h1000v-666.667h-1000z" transform="translate(-644.20702 -420.92201)"/></clipPath><clipPath id="Q"><path d="m0 666.667h1000v-666.667h-1000z" transform="translate(-696.30572 -199.51531)"/></clipPath><clipPath id="R"><path d="m0 666.667h1000v-666.667h-1000z" transform="translate(-744.59182 -276.96061)"/></clipPath><clipPath id="S"><path d="m0 666.667h1000v-666.667h-1000z" transform="translate(-744.59182 -276.96061)"/></clipPath><clipPath id="T"><path d="m0 666.667h1000v-666.667h-1000z" transform="translate(-715.11332 -240.05341)"/></clipPath><clipPath id="U"><path d="m0 666.667h1000v-666.667h-1000z" transform="translate(-715.11432 -240.0524)"/></clipPath><clipPath id="V"><path d="m0 666.667h1000v-666.667h-1000z" transform="translate(-711.95412 -234.09341)"/></clipPath><clipPath id="W"><path d="m0 666.667h1000v-666.667h-1000z" transform="translate(-711.95512 -234.09341)"/></clipPath><clipPath id="X"><path d="m0 666.667h1000v-666.667h-1000z" transform="translate(-776.37992 -238.94401)"/></clipPath><clipPath id="Y"><path d="m0 666.667h1000v-666.667h-1000z" transform="translate(-776.37992 -238.943)"/></clipPath><clipPath id="Z"><path d="m0 666.667h1000v-666.667h-1000z" transform="translate(-772.04882 -233.7731)"/></clipPath><clipPath id="aa"><path d="m0 666.667h1000v-666.667h-1000z" transform="translate(-772.04979 -233.77411)"/></clipPath><clipPath id="ab"><path d="m0 666.667h1000v-666.667h-1000z" transform="translate(-686.96482 -241.08461)"/></clipPath><clipPath id="ac"><path d="m0 666.667h1000v-666.667h-1000z" transform="translate(-800.47855 -241.08461)"/></clipPath><clipPath id="ad"><path d="m0 666.667h1000v-666.667h-1000z"/></clipPath><clipPath id="ae"><path d="m0 666.667h1000v-666.667h-1000z" transform="translate(-737.33202 -324.70671)"/></clipPath><clipPath id="af"><path d="m0 666.667h1000v-666.667h-1000z" transform="translate(-753.33114 -299.9606)"/></clipPath><clipPath id="ag"><path d="m0 666.667h1000v-666.667h-1000z" transform="translate(-735.42292 -298.66081)"/></clipPath><clipPath id="ah"><path d="m0 666.667h1000v-666.667h-1000z" transform="translate(-732.68362 -255.52211)"/></clipPath><clipPath id="ai"><path d="m0 666.667h1000v-666.667h-1000z" transform="translate(-688.51562 -216.1442)"/></clipPath><clipPath id="aj"><path d="m0 666.667h1000v-666.667h-1000z" transform="translate(-793.91799 -248.21351)"/></clipPath><clipPath id="ak"><path d="m0 666.667h1000v-666.667h-1000z" transform="translate(-688.63382 -217.3337)"/></clipPath><clipPath id="al"><path d="m0 666.667h1000v-666.667h-1000z" transform="translate(-686.05571 -249.94111)"/></clipPath><clipPath id="am"><path d="m0 666.667h1000v-666.667h-1000z" transform="translate(-686.05571 -249.94111)"/></clipPath><clipPath id="an"><path d="m0 666.667h1000v-666.667h-1000z" transform="translate(-680.62702 -259.59241)"/></clipPath><clipPath id="ao"><path d="m0 666.667h1000v-666.667h-1000z" transform="translate(-679.49512 -270.91181)"/></clipPath><clipPath id="ap"><path d="m0 666.667h1000v-666.667h-1000z" transform="translate(-682.88482 -281.4713)"/></clipPath><clipPath id="aq"><path d="m0 666.667h1000v-666.667h-1000z" transform="translate(-690.05471 -290.1491)"/></clipPath><clipPath id="ar"><path d="m0 666.667h1000v-666.667h-1000z" transform="translate(-699.86432 -296.1803)"/></clipPath><clipPath id="as"><path d="m0 666.667h1000v-666.667h-1000z" transform="translate(-710.80472 -295.4303)"/></clipPath><clipPath id="at"><path d="m0 666.667h1000v-666.667h-1000z" transform="translate(-721.74322 -293.62081)"/></clipPath><clipPath id="au"><path d="m0 666.667h1000v-666.667h-1000z" transform="translate(-732.68362 -292.49191)"/></clipPath><clipPath id="av"><path d="m0 666.667h1000v-666.667h-1000z" transform="translate(-801.3877 -249.94111)"/></clipPath><clipPath id="aw"><path d="m0 666.667h1000v-666.667h-1000z" transform="translate(-806.8174 -259.59241)"/></clipPath><clipPath id="ax"><path d="m0 666.667h1000v-666.667h-1000z" transform="translate(-807.94825 -270.91181)"/></clipPath><clipPath id="ay"><path d="m0 666.667h1000v-666.667h-1000z" transform="translate(-804.5596 -281.4713)"/></clipPath><clipPath id="az"><path d="m0 666.667h1000v-666.667h-1000z" transform="translate(-797.38869 -290.1491)"/></clipPath><clipPath id="aA"><path d="m0 666.667h1000v-666.667h-1000z" transform="translate(-787.58012 -296.1803)"/></clipPath><clipPath id="aB"><path d="m0 666.667h1000v-666.667h-1000z" transform="translate(-776.63874 -295.4303)"/></clipPath><clipPath id="aC"><path d="m0 666.667h1000v-666.667h-1000z" transform="translate(-765.70022 -293.62081)"/></clipPath><clipPath id="aD"><path d="m0 666.667h1000v-666.667h-1000z" transform="translate(-754.75982 -292.49191)"/></clipPath><clipPath id="aE"><path d="m0 666.667h1000v-666.667h-1000z" transform="translate(-748.51172 -259.4411)"/></clipPath><clipPath id="aF"><path d="m0 666.667h1000v-666.667h-1000z" transform="translate(-748.51172 -266.99281)"/></clipPath><clipPath id="aG"><path d="m0 666.667h1000v-666.667h-1000z" transform="translate(-748.51172 -273.02111)"/></clipPath><clipPath id="aH"><path d="m0 666.667h1000v-666.667h-1000z" transform="translate(-748.51172 -278.52991)"/></clipPath><clipPath id="aI"><path d="m0 666.667h1000v-666.667h-1000z" transform="translate(-748.51172 -296.1803)"/></clipPath><clipPath id="aJ"><path d="m0 666.667h1000v-666.667h-1000z" transform="translate(-748.51172 -295.4303)"/></clipPath><clipPath id="aK"><path d="m0 666.667h1000v-666.667h-1000z" transform="translate(-748.51172 -291.5114)"/></clipPath><clipPath id="aL"><path d="m0 666.667h1000v-666.667h-1000z" transform="translate(-748.51172 -286.151)"/></clipPath><clipPath id="aM"><path d="m0 666.667h1000v-666.667h-1000z" transform="translate(-749.70122 -241.22231)"/></clipPath><clipPath id="aN"><path d="m0 666.667h1000v-666.667h-1000z" transform="translate(-692.53522 -231.30341)"/></clipPath><clipPath id="aO"><path d="m0 666.667h1000v-666.667h-1000z" transform="translate(-806.6074 -231.30341)"/></clipPath><clipPath id="aP"><path d="m0 666.667h1000v-666.667h-1000z"/></clipPath><clipPath id="aQ"><path d="m0 666.667h1000v-666.667h-1000z" transform="translate(-763.25102 -217.2038)"/></clipPath><clipPath id="aR"><path d="m0 666.667h1000v-666.667h-1000z" transform="translate(-763.25004 -217.2038)"/></clipPath><clipPath id="aS"><path d="m0 666.667h1000v-666.667h-1000z" transform="translate(-688.73632 -213.32591)"/></clipPath><clipPath id="aT"><path d="m0 666.667h1000v-666.667h-1000z" transform="translate(-800.8291 -213.32591)"/></clipPath><clipPath id="aU"><path d="m0 666.667h1000v-666.667h-1000z" transform="translate(-726.30182 -217.2038)"/></clipPath><clipPath id="aV"><path d="m0 666.667h1000v-666.667h-1000z" transform="translate(-726.30272 -217.2038)"/></clipPath><clipPath id="aW"><path d="m0 666.667h1000v-666.667h-1000z" transform="translate(-732.67382 -222.10321)"/></clipPath><clipPath id="aX"><path d="m0 666.667h1000v-666.667h-1000z" transform="translate(-733.32322 -215.47531)"/></clipPath><clipPath id="aY"><path d="m0 666.667h1000v-666.667h-1000z" transform="translate(-706.65532 -217.42351)"/></clipPath><clipPath id="aZ"><path d="m0 666.667h1000v-666.667h-1000z" transform="translate(-709.26372 -211.1852)"/></clipPath><clipPath id="a0"><path d="m0 666.667h1000v-666.667h-1000z" transform="translate(-756.78999 -222.10321)"/></clipPath><clipPath id="a1"><path d="m0 666.667h1000v-666.667h-1000z" transform="translate(-756.14259 -215.47531)"/></clipPath><clipPath id="a2"><path d="m0 666.667h1000v-666.667h-1000z" transform="translate(-782.80082 -217.42351)"/></clipPath><clipPath id="a3"><path d="m0 666.667h1000v-666.667h-1000z" transform="translate(-780.20019 -211.1852)"/></clipPath><clipPath id="a4"><path d="m0 666.667h1000v-666.667h-1000z" transform="translate(-786.77829 -188.3669)"/></clipPath><clipPath id="a5"><path d="m0 666.667h1000v-666.667h-1000z" transform="translate(-786.77829 -188.3669)"/></clipPath><clipPath id="a6"><path d="m0 666.667h1000v-666.667h-1000z" transform="translate(-701.39452 -205.4948)"/></clipPath><clipPath id="a7"><path d="m0 666.667h1000v-666.667h-1000z" transform="translate(-694.12502 -199.4255)"/></clipPath><clipPath id="a8"><path d="m0 666.667h1000v-666.667h-1000z" transform="translate(-694.12301 -199.4245)"/></clipPath><clipPath id="a9"><path d="m0 666.667h1000v-666.667h-1000z" transform="translate(-693.35452 -197.7155)"/></clipPath><clipPath id="ba"><path d="m0 666.667h1000v-666.667h-1000z" transform="translate(-693.35452 -197.71651)"/></clipPath><clipPath id="bb"><path d="m0 666.667h1000v-666.667h-1000z" transform="translate(-694.85452 -196.77601)"/></clipPath><clipPath id="bc"><path d="m0 666.667h1000v-666.667h-1000z" transform="translate(-694.85452 -196.77511)"/></clipPath><clipPath id="bd"><path d="m0 666.667h1000v-666.667h-1000z" transform="translate(-693.53612 -197.93521)"/></clipPath><clipPath id="be"><path d="m0 666.667h1000v-666.667h-1000z" transform="translate(-693.53422 -197.9362)"/></clipPath><clipPath id="bf"><path d="m0 666.667h1000v-666.667h-1000z" transform="translate(-716.09372 -205.71451)"/></clipPath><clipPath id="bg"><path d="m0 666.667h1000v-666.667h-1000z" transform="translate(-716.09372 -205.71451)"/></clipPath><clipPath id="bh"><path d="m0 666.667h1000v-666.667h-1000z" transform="translate(-715.31252 -203.9948)"/></clipPath><clipPath id="bi"><path d="m0 666.667h1000v-666.667h-1000z" transform="translate(-715.31352 -203.99581)"/></clipPath><clipPath id="bj"><path d="m0 666.667h1000v-666.667h-1000z" transform="translate(-716.81252 -203.0651)"/></clipPath><clipPath id="bk"><path d="m0 666.667h1000v-666.667h-1000z" transform="translate(-716.81252 -203.06611)"/></clipPath><clipPath id="bl"><path d="m0 666.667h1000v-666.667h-1000z" transform="translate(-715.50492 -204.21451)"/></clipPath><clipPath id="bm"><path d="m0 666.667h1000v-666.667h-1000z" transform="translate(-715.50392 -204.21451)"/></clipPath><clipPath id="bn"><path d="m0 666.667h1000v-666.667h-1000z" transform="translate(-743.35062 -208.6559)"/></clipPath><clipPath id="bo"><path d="m0 666.667h1000v-666.667h-1000z" transform="translate(-743.35162 -208.6559)"/></clipPath><clipPath id="bp"><path d="m0 666.667h1000v-666.667h-1000z" transform="translate(-742.19142 -207.18421)"/></clipPath><clipPath id="bq"><path d="m0 666.667h1000v-666.667h-1000z" transform="translate(-742.19242 -207.18521)"/></clipPath><clipPath id="br"><path d="m0 666.667h1000v-666.667h-1000z" transform="translate(-743.42192 -205.91471)"/></clipPath><clipPath id="bs"><path d="m0 666.667h1000v-666.667h-1000z" transform="translate(-743.42192 -205.91671)"/></clipPath><clipPath id="bt"><path d="m0 666.667h1000v-666.667h-1000z" transform="translate(-742.42192 -207.35611)"/></clipPath><clipPath id="bu"><path d="m0 666.667h1000v-666.667h-1000z" transform="translate(-742.42092 -207.35611)"/></clipPath><clipPath id="bv"><path d="m0 666.667h1000v-666.667h-1000z" transform="translate(-768.62109 -203.42641)"/></clipPath><clipPath id="bw"><path d="m0 666.667h1000v-666.667h-1000z" transform="translate(-768.62109 -203.42551)"/></clipPath><clipPath id="bx"><path d="m0 666.667h1000v-666.667h-1000z" transform="translate(-767.84079 -205.13641)"/></clipPath><clipPath id="by"><path d="m0 666.667h1000v-666.667h-1000z" transform="translate(-767.83982 -205.1354)"/></clipPath><clipPath id="bz"><path d="m0 666.667h1000v-666.667h-1000z" transform="translate(-769.34079 -206.0759)"/></clipPath><clipPath id="bA"><path d="m0 666.667h1000v-666.667h-1000z" transform="translate(-769.33982 -206.0768)"/></clipPath><clipPath id="bB"><path d="m0 666.667h1000v-666.667h-1000z" transform="translate(-768.03032 -204.9167)"/></clipPath><clipPath id="bC"><path d="m0 666.667h1000v-666.667h-1000z" transform="translate(-768.03032 -204.91571)"/></clipPath><clipPath id="bD"><path d="m0 666.667h1000v-666.667h-1000z" transform="translate(-790.79004 -197.63641)"/></clipPath><clipPath id="bE"><path d="m0 666.667h1000v-666.667h-1000z" transform="translate(-790.78914 -197.6374)"/></clipPath><clipPath id="bF"><path d="m0 666.667h1000v-666.667h-1000z" transform="translate(-790.00884 -199.34641)"/></clipPath><clipPath id="bG"><path d="m0 666.667h1000v-666.667h-1000z" transform="translate(-790.00982 -199.34641)"/></clipPath><clipPath id="bH"><path d="m0 666.667h1000v-666.667h-1000z" transform="translate(-791.50884 -200.28581)"/></clipPath><clipPath id="bI"><path d="m0 666.667h1000v-666.667h-1000z" transform="translate(-791.50982 -200.28581)"/></clipPath><clipPath id="bJ"><path d="m0 666.667h1000v-666.667h-1000z" transform="translate(-790.18854 -199.1257)"/></clipPath><clipPath id="bK"><path d="m0 666.667h1000v-666.667h-1000z" transform="translate(-790.18952 -199.1257)"/></clipPath><path clip-path="url(#a)" d="m0 0c59.419 0 79.226-40.92 158.452-40.92 39.612 0 59.419 40.92 99.033 40.92 59.419 0 79.225-40.92 158.452-40.92 39.612 0 59.419 40.92 99.028 40.92 59.421 0 79.232-40.92 158.452-40.92 39.62 0 52.433 11.596 67.347 19.912v60.522c-14.914-8.316-27.727-27.752-67.347-27.752-79.22 0-99.031 40.92-158.452 40.92-39.609 0-59.416-40.92-99.028-40.92-79.227 0-99.033 40.92-158.452 40.92-39.614 0-59.421-40.92-99.033-40.92-79.226 0-99.033 40.92-158.452 40.92" fill="#002b7f" transform="matrix(1.3333333 0 0 -1.3333333 345.64773 366.92107)"/><path clip-path="url(#b)" d="m0 0c59.419 0 79.226-40.92 158.452-40.92 39.612 0 59.419 40.92 99.033 40.92 59.419 0 79.225-40.92 158.452-40.92 39.612 0 59.419 40.92 99.028 40.92 59.421 0 79.232-40.92 158.452-40.92 39.62 0 52.433 11.595 67.347 19.912v60.522c-14.914-8.317-27.727-27.753-67.347-27.753-79.22 0-99.031 40.92-158.452 40.92-39.609 0-59.416-40.92-99.028-40.92-79.227 0-99.033 40.92-158.452 40.92-39.614 0-59.421-40.92-99.033-40.92-79.226 0-99.033 40.92-158.452 40.92" fill="#002b7f" transform="matrix(1.3333333 0 0 -1.3333333 345.64773 223.85267)"/><path clip-path="url(#c)" d="m0 0c59.419 0 79.226-40.92 158.452-40.92 39.612 0 59.419 40.92 99.033 40.92 59.419 0 79.225-40.92 158.452-40.92 39.612 0 59.419 40.92 99.028 40.92 59.421 0 79.232-40.92 158.452-40.92 39.62 0 52.433 11.596 67.347 19.912v60.522c-14.914-8.317-27.727-27.753-67.347-27.753-79.22 0-99.031 40.92-158.452 40.92-39.609 0-59.416-40.92-99.028-40.92-79.227 0-99.033 40.92-158.452 40.92-39.614 0-59.421-40.92-99.033-40.92-79.226 0-99.033 40.92-158.452 40.92" fill="#002b7f" transform="matrix(1.3333333 0 0 -1.3333333 345.64773 74.118267)"/><path clip-path="url(#d)" d="m0 666.667h433v-288.667h-433z" fill="#00247d" transform="matrix(1.3333333 0 0 -1.3333333 0 888.88933)"/><path clip-path="url(#e)" d="m0 0v-32.273l-384.589-256.394h-48.411v32.275l384.589 256.392zm-433 0v-32.274l384.589-256.393h48.411v32.274l-384.589 256.393z" fill="#fff" transform="matrix(1.3333333 0 0 -1.3333333 577.33333 .0004)"/><path clip-path="url(#f)" d="m0 474.222h433v96.222h-433zm180.417-96.222h72.167v288.667h-72.167z" fill="#fff" transform="matrix(1.3333333 0 0 -1.3333333 0 888.88933)"/><path clip-path="url(#g)" d="m194.85 378h43.3v288.667h-43.3zm-194.85 115.466h433v57.733h-433z" fill="#cf142b" transform="matrix(1.3333333 0 0 -1.3333333 0 888.88933)"/><path clip-path="url(#h)" d="m0 0-144.333 96.223h32.273l112.06-74.706zm-176.607 192.445 144.334 96.222h32.273l-144.333-96.222zm-256.393 96.222 144.333-96.222h-32.273l-112.06 74.706zm0-288.667 144.333 96.223h32.274l-144.333-96.223z" fill="#cf142b" transform="matrix(1.3333333 0 0 -1.3333333 577.33333 384.88973)"/><path clip-path="url(#i)" d="m0 0c-39.609 0-59.416-40.92-99.028-40.92-79.227 0-99.034 40.92-158.452 40.92-39.614 0-59.421-40.92-99.034-40.92-79.225 0-99.032 40.92-158.452 40.92-39.613 0-59.42-40.92-99.033-40.92-79.226 0-99.034 40.92-158.452 40.92-.588 0-1.171-.011-1.75-.028v-62.619c.579.017 1.162.028 1.75.028 59.42 0 79.226-40.921 158.452-40.921 39.613 0 59.42 40.921 99.033 40.921 59.42 0 79.227-40.921 158.452-40.921 39.613 0 59.42 40.921 99.034 40.921 59.418 0 79.225-40.921 158.452-40.921 39.612 0 59.419 40.921 99.028 40.921 59.421 0 79.231-40.921 158.451-40.921 39.62 0 52.434 19.436 67.348 27.753v54.779c-14.914-8.316-27.728-19.912-67.348-19.912-79.22 0-99.03 40.92-158.451 40.92" fill="#fff" transform="matrix(1.3333333 0 0 -1.3333333 1032.2683 670.38973)"/><path clip-path="url(#j)" d="m0 0c-79.22 0-99.03 40.92-158.451 40.92-39.61 0-59.416-40.92-99.028-40.92-79.227 0-99.034 40.92-158.453 40.92-39.613 0-59.421-40.92-99.033-40.92-79.225 0-99.033 40.92-158.452 40.92-39.613 0-59.42-40.92-99.033-40.92-79.226 0-99.034 40.92-158.452 40.92-.588 0-1.171-.011-1.75-.028v-61.62c.579.018 1.162.029 1.75.029 59.42 0 79.226-40.921 158.452-40.921 39.613 0 59.42 40.921 99.033 40.921 59.419 0 79.227-40.921 158.452-40.921 39.612 0 59.42 40.921 99.033 40.921 59.419 0 79.226-40.921 158.453-40.921 39.612 0 59.418 40.921 99.028 40.921 59.421 0 79.231-40.921 158.451-40.921 39.62 0 52.434 19.436 67.348 27.753v53.779c-14.914-8.316-27.728-19.912-67.348-19.912" fill="#fff" transform="matrix(1.3333333 0 0 -1.3333333 1243.5364 572.54867)"/><path clip-path="url(#k)" d="m0 0v-.108c.58.017 1.163.028 1.75.028 59.418 0 79.227-40.92 158.453-40.92 39.612 0 59.419 40.92 99.032 40.92 59.42 0 79.227-40.92 158.452-40.92 39.613 0 59.42 40.92 99.034 40.92 59.419 0 79.225-40.92 158.452-40.92 39.612 0 59.419 40.92 99.028 40.92 59.421 0 79.232-40.92 158.451-40.92 39.62 0 52.434 11.596 67.348 19.912v60.522-39.434z" fill="#002b7f" transform="matrix(1.3333333 0 0 -1.3333333 0 824.01733)"/><path clip-path="url(#l)" d="m0 0c-39.609 0-59.416-40.921-99.028-40.921-79.227 0-99.034 40.921-158.452 40.921-39.614 0-59.421-40.921-99.034-40.921-79.225 0-99.032 40.921-158.452 40.921-39.613 0-59.42-40.921-99.033-40.921-79.226 0-99.032 40.921-158.452 40.921-.588 0-1.171-.011-1.75-.028v-52.574h1000v39.434c-14.914-8.316-27.728-27.753-67.348-27.753-79.22 0-99.03 40.921-158.451 40.921" fill="#002b7f" transform="matrix(1.3333333 0 0 -1.3333333 1032.2683 753.882)"/><path clip-path="url(#m)" d="m0 0v60.521z" fill="#002b7f" transform="matrix(1.3333333 0 0 -1.3333333 1333.3333 698.40013)"/><path clip-path="url(#n)" d="m0 0c-39.609 0-59.416-40.921-99.028-40.921-79.227 0-99.034 40.921-158.452 40.921-39.614 0-59.421-40.921-99.034-40.921-79.225 0-99.032 40.921-158.452 40.921-39.613 0-59.42-40.921-99.033-40.921-79.226 0-99.032 40.921-158.452 40.921-.588 0-1.171-.011-1.75-.028v-52.682c.579.018 1.162.028 1.75.028 59.418 0 79.226-40.92 158.452-40.92 39.613 0 59.42 40.92 99.033 40.92 59.42 0 79.227-40.92 158.452-40.92 39.613 0 59.42 40.92 99.034 40.92 59.418 0 79.225-40.92 158.452-40.92 39.612 0 59.419 40.92 99.028 40.92 59.421 0 79.231-40.92 158.451-40.92 39.62 0 52.434 11.596 67.348 19.913v60.521c-14.914-8.316-27.728-27.753-67.348-27.753-79.22 0-99.03 40.921-158.451 40.921" fill="#002b7f" transform="matrix(1.3333333 0 0 -1.3333333 1032.2683 600.1476)"/><path clip-path="url(#o)" d="m0 0v60.521z" fill="#002b7f" transform="matrix(1.3333333 0 0 -1.3333333 1333.3333 545.9992)"/><path clip-path="url(#p)" d="m0 0c-39.609 0-59.416-40.92-99.028-40.92-79.227 0-99.034 40.92-158.452 40.92-39.614 0-59.421-40.92-99.034-40.92-79.225 0-99.032 40.92-158.452 40.92-39.613 0-59.42-40.92-99.033-40.92-79.226 0-99.032 40.92-158.452 40.92-.588 0-1.171-.011-1.75-.028v-52.682c.579.018 1.162.028 1.75.028 59.418 0 79.226-40.92 158.452-40.92 39.613 0 59.42 40.92 99.033 40.92 59.42 0 79.227-40.92 158.452-40.92 39.613 0 59.42 40.92 99.034 40.92 59.418 0 79.225-40.92 158.452-40.92 39.612 0 59.419 40.92 99.028 40.92 59.421 0 79.231-40.92 158.451-40.92 39.62 0 52.434 11.596 67.348 19.913v60.521c-14.914-8.316-27.728-27.752-67.348-27.752-79.22 0-99.03 40.92-158.451 40.92" fill="#002b7f" transform="matrix(1.3333333 0 0 -1.3333333 1032.2683 447.74653)"/><path clip-path="url(#q)" d="m0 0-4.111-390.835c0-20.569 18.6-20.569 20.568 0l-4.118 390.835z" fill="#a24300" transform="matrix(1.3333333 0 0 -1.3333333 982.444 256.9848)"/><path clip-path="url(#r)" d="m0 0-4.11-390.835c0-20.569 18.598-20.569 20.568 0l-4.119 390.835z" fill="none" stroke="#fff" stroke-width="1.494" transform="matrix(1.3333333 0 0 -1.3333333 982.444 256.98413)"/><path clip-path="url(#s)" d="m0 0-12.939 14.199-3.201-14.348-5.619 20.778-5.261-10.459-.928 22.117-5.261-10.457-.929 22.117-5.26-10.46-2.991 26.009-5.259-10.46-2.989 26.011-5.259-10.47-3 26.008-1.491 13.009 2.619 5.23 6.76-2.539 10.88-10.322 21.759-20.627-13.509 5.079 21.77-20.628-13.511 5.079 21.759-20.63-13.509 5.092 19.698-16.749-13.509 5.089 19.699-16.749-13.509 5.089 14.999-18.088-15.57 8.97z" fill="#006d00" transform="matrix(1.3333333 0 0 -1.3333333 1039.1601 450.63853)"/><path clip-path="url(#t)" d="m0 0-12.939 14.198-3.201-14.35-5.618 20.781-5.259-10.46-.932 22.118-5.259-10.46-.93 22.119-5.259-10.458-2.991 26.007-5.259-10.458-2.991 26.007-5.257-10.469-3.002 26.008-1.488 13.01 2.618 5.229 6.76-2.54 10.879-10.318 21.759-20.631-13.509 5.082 21.771-20.63-13.512 5.081 21.759-20.631-13.508 5.092 19.699-16.75-13.51 5.089 19.699-16.748-13.51 5.089 15.001-18.089-15.57 8.97z" fill="none" stroke="#fff" stroke-width=".8" transform="matrix(1.3333333 0 0 -1.3333333 1039.1588 450.6372)"/><path clip-path="url(#u)" d="m0 0-26.449 19.29-1.701-27.36m26.659 21.07-29.088 14.059-8.448-24.808m31.347 22.408-29.089 14.061-8.45-24.811m31.348 22.408-31.148 17.952-6.389-28.699m29.29 26.297-31.151 17.939-6.389-28.687m29.278 26.296-31.139 17.939-6.386-28.697m55.894-64.575-57.766 108.822" fill="none" stroke="#000" stroke-width=".097" transform="matrix(1.3333333 0 0 -1.3333333 1055.1732 440.07987)"/><path clip-path="url(#v)" d="m0 0 21.129-8.058-6.139 15.978 18.47-18.2-1.741 13.06 14.939-21.807-1.74 13.058 14.939-21.818-1.741 13.068 19.34-24.739-1.74 13.061 19.349-24.731-1.751 13.061 19.35-24.728 9.669-12.359.87-6.531-7.931-.698-50.185 15.418 15.858 1.389-33.457 10.281 15.859 1.39-33.458 10.278 15.858 1.39-29.057 7.369 15.859 1.39-29.06 7.36 15.861 1.39-25.53 10.969 20.249-1.52z" fill="#006d00" transform="matrix(1.3333333 0 0 -1.3333333 837.0104 203.32013)"/><path clip-path="url(#w)" d="m0 0 21.128-8.06-6.14 15.979 18.471-18.199-1.741 13.059 14.937-21.808-1.736 13.059 14.938-21.82-1.74 13.069 19.339-24.738-1.741 13.06 19.349-24.728-1.75 13.059 19.348-24.73 9.671-12.358.87-6.529-7.931-.701-50.186 15.419 15.857 1.39-33.456 10.279 15.858 1.39-33.457 10.278 15.86 1.393-29.058 7.368 15.858 1.39-29.058 7.359 15.858 1.391-25.528 10.97 20.248-1.521z" fill="none" stroke="#fff" stroke-width=".96" transform="matrix(1.3333333 0 0 -1.3333333 837.01173 203.31813)"/><path clip-path="url(#x)" d="m0 0 36.978-6.661-15.81 28.34m-11.498-34.039 36.118-.139-7.891 29.038m-15.027-37.648 36.116-.141-7.887 29.04m-15.032-37.661 40.518-3.048-12.288 31.958m-10.63-40.578 40.518-3.048-12.29 31.947m-10.629-40.568 40.517-3.048-12.289 31.947m-93.314 38.068 123.203-81.684" fill="none" stroke="#000" stroke-width=".116" transform="matrix(1.3333333 0 0 -1.3333333 828.77213 221.66387)"/><path clip-path="url(#y)" d="m0 0-17.609-12.869 19.429-2.16-27.098-6.43 14.458-4.301-29.349-2.13 14.45-4.308-29.348-2.13 14.447-4.3-34.318-4.27 14.461-4.309-34.32-4.269 14.45-4.311-34.317-4.27-17.158-2.14-7.232 2.15 2.711 6.448 12.628 10.731 25.28 21.46-5.411-12.882 25.269 21.46-5.409-12.889 25.278 21.469-5.409-12.888 20.298 19.319-5.4-12.881 20.3 19.308-5.401-12.878 22.56 15.019-10.37-15.029z" fill="#006d00" transform="matrix(1.3333333 0 0 -1.3333333 1164.474 239.7036)"/><path clip-path="url(#z)" d="m0 0-17.607-12.869 19.428-2.161-27.1-6.428 14.461-4.301-29.349-2.129 14.449-4.31-29.349-2.132 14.449-4.297-34.319-4.272 14.462-4.309-34.32-4.269 14.45-4.311-34.319-4.269-17.158-2.141-7.231 2.152 2.712 6.45 12.628 10.727 25.279 21.461-5.409-12.881 25.267 21.459-5.408-12.889 25.278 21.469-5.411-12.89 20.299 19.319-5.398-12.879 20.298 19.308-5.401-12.878 22.559 15.019-10.37-15.029z" fill="none" stroke="#fff" stroke-width=".984" transform="matrix(1.3333333 0 0 -1.3333333 1164.4727 239.7036)"/><path clip-path="url(#A)" d="m0 0-23.01-25.758 36.591-.021m-30.739 23.638-15.78-27.907 33.879-6.46m-33 27.938-15.776-27.908 33.877-6.469m-32.988 27.948-20.75-30.058 38.838-4.319m-37.958 25.797-20.749-30.058 38.85-4.32m-37.959 25.8-20.75-30.058 38.839-4.322m80.345 55.788-139.053-60.046" fill="none" stroke="#000" stroke-width=".119" transform="matrix(1.3333333 0 0 -1.3333333 1148.7929 225.3716)"/><path clip-path="url(#B)" d="m0 0-21.907 6.349 7.828-15.429-20.338 16.659 3.131-12.86-17.221 20.53 3.142-12.858-17.221 20.527 3.142-12.858-21.92 23.087 3.14-12.868-21.92 23.097 3.141-12.868-21.92 23.088-10.959 11.55-1.569 6.43 7.82 1.32 17.208-3.791 34.42-7.589-15.641-2.64 34.417-7.579-15.638-2.64 34.418-7.59-15.639-2.639 29.728-5.03-15.649-2.639 29.728-5.03-15.638-2.639 26.6-8.901-20.341-.089z" fill="#006d00" transform="matrix(1.3333333 0 0 -1.3333333 1160.6576 413.0668)"/><path clip-path="url(#C)" d="m0 0-21.909 6.349 7.829-15.428-20.339 16.657 3.13-12.859-17.218 20.528 3.138-12.857-17.218 20.528 3.141-12.859-21.918 23.087 3.137-12.867-21.916 23.099 3.139-12.871-21.921 23.09-10.956 11.548-1.571 6.432 7.818 1.318 17.209-3.789 34.42-7.591-15.64-2.639 34.417-7.58-15.639-2.639 34.419-7.591-15.639-2.639 29.728-5.03-15.648-2.64 29.728-5.03-15.64-2.639 26.599-8.899-20.337-.09z" fill="none" stroke="#fff" stroke-width=".972" transform="matrix(1.3333333 0 0 -1.3333333 1160.6588 413.0668)"/><path clip-path="url(#D)" d="m0 0-37.546 3.699 18.786-26.968m7.801 34.806-35.979-2.718 10.969-28.29m10.93 38.679-35.976-2.72 10.966-28.288m10.921 38.677-40.667-.168 15.669-30.84m6.219 41.237-40.667-.168 15.668-30.848m6.221 41.236-40.667-.159 15.668-30.85m97.004-30.506-131.452 71.576" fill="none" stroke="#000" stroke-width=".118" transform="matrix(1.3333333 0 0 -1.3333333 1166.8984 394.1476)"/><path clip-path="url(#E)" d="m0 0 10.989 15.369-16.76-2.419 20.709 11.76-13.239.589 23.81 8.45-13.24.589 23.809 8.45-13.239.599 27.329 11.461-13.24.589 27.34 11.459-13.25.6 41.005 17.189 6.621-.299-.42-6.321-7.47-12.359-14.949-24.707.849 12.658-14.936-24.708.849 12.649-14.939-24.708.851 12.648-11.42-21.686.849 12.647-11.419-21.689.85 12.651-14.52-18.391 4.37 15.669z" fill="#006d00" transform="matrix(1.3333333 0 0 -1.3333333 856.3568 423.20093)"/><path clip-path="url(#F)" d="m0 0 10.989 15.371-16.76-2.42 20.709 11.76-13.238.589 23.808 8.449-13.238.588 23.807 8.449-13.237.603 27.325 11.458-13.236.591 27.337 11.459-13.25.601 41.007 17.189 6.621-.302-.419-6.321-7.472-12.357-14.946-24.709.846 12.66-14.935-24.709.848 12.649-14.941-24.709.852 12.651-11.421-21.689.851 12.646-11.418-21.686.849 12.649-14.518-18.39 4.369 15.669z" fill="none" stroke="#fff" stroke-width=".843" transform="matrix(1.3333333 0 0 -1.3333333 856.35813 423.20093)"/><path clip-path="url(#G)" d="m0 0 11.839 28.029-30.431-8.148m32.261-14.141 5.219 28.307-30.008-1.818m35.355-17.449 5.223 28.319-30.009-1.832m35.356-17.449 8.742 31.329-33.527-4.829m38.877-14.439 8.748 31.328-33.537-4.84m38.878-14.439 8.748 31.337-33.539-4.837m-51.015-67.498 98.643 84.384" fill="none" stroke="#000" stroke-width=".102" transform="matrix(1.3333333 0 0 -1.3333333 873.45187 432.44053)"/><path clip-path="url(#H)" d="m0 0-21.249-14.23-3.489 15.249-12.538-21.088-2.25 10.15-10.25-21.639-1.442 9.958-7.948-22.179-4.552 10.7-7.969-26.988-4.548 10.7-7.969-26.988-4.551 10.7-7.969-26.989-3.991-13.49 2.281-5.35 8.53 2.8 14.788 10.938 29.589 21.89-17.069-5.599 29.589 21.887-17.069-5.598 29.587 21.889-17.07-5.601 29.559 17.08-20.169-4.859 31.86 16.539-19.36-5.05 23.349 18.538-20.201-9.669z" fill="#006d00" transform="matrix(1.3333333 0 0 -1.3333333 1122.168 153.09547)"/><path clip-path="url(#I)" d="m0 0-21.248-14.229-3.49 15.25-12.54-21.089-2.248 10.15-10.249-21.639-1.441 9.959-7.951-22.178-4.548 10.699-7.971-26.988-4.55 10.699-7.968-26.989-4.551 10.7-7.968-26.989-3.992-13.489 2.281-5.35 8.53 2.799 14.789 10.941 29.589 21.888-17.071-5.599 29.589 21.888-17.067-5.599 29.586 21.888-17.068-5.599 29.558 17.078-20.171-4.86 31.859 16.54-19.357-5.049 23.348 18.539-20.2-9.67z" fill="none" stroke="#fff" stroke-width=".934" transform="matrix(1.3333333 0 0 -1.3333333 1122.168 153.0968)"/><path clip-path="url(#J)" d="m0 0-31.556-16.148 6.088 24.487m20.929-19.368-34.128-11.189-1.329 19.559m23.737-20.04-31.797-11.74-3.688 20.121m25.315-20.41-34.148-15.999-2.598 24.668m24.487-25.017-34.408-15.94-2.858 24.73m24.229-24.959-33.889-16.06-2.859 24.73m80.513 62.785-30.707-26.428-59.466-77.376" fill="none" stroke="#000" stroke-width=".113" transform="matrix(1.3333333 0 0 -1.3333333 1121.7669 168.94893)"/><path clip-path="url(#K)" d="m0 0 9.49-21.669 12.239 11.45-2.11-23.619 8.089 7.658-4.4-23.056 7.28 7.859-6.689-22.489 10.371 7.089-9.58-26.597 10.368 7.088-9.579-26.597 10.37 7.088-9.589-26.597-4.79-13.3-5.181-3.541-5.589 6.211-5.969 15.968-11.95 31.929 11.159-12.418-11.95 31.926 11.159-12.417-11.949 31.926 11.16-12.418-14.839 27.818 14.249-13.188-17.128 28.386 13.449-12.989-8.66 26.29 11.36-17.299z" fill="#006d00" transform="matrix(1.3333333 0 0 -1.3333333 968.58987 117.5512)"/><path clip-path="url(#L)" d="m0 0 9.489-21.668 12.24 11.449-2.11-23.617 8.089 7.658-4.398-23.058 7.278 7.86-6.69-22.49 10.371 7.089-9.58-26.599 10.371 7.092-9.58-26.599 10.368 7.09-9.59-26.599-4.789-13.298-5.179-3.54-5.591 6.209-5.97 15.968-11.949 31.928 11.161-12.419-11.951 31.929 11.16-12.419-11.948 31.928 11.157-12.42-14.838 27.818 14.25-13.189-17.13 28.388 13.449-12.989-8.659 26.29 11.36-17.3z" fill="none" stroke="#fff" stroke-width=".888" transform="matrix(1.3333333 0 0 -1.3333333 968.58987 117.55187)"/><path clip-path="url(#M)" d="m0 0 17.119-27.917 9.668 23.628m-29.606-7.151 22.319-24.849 13.009 16.089m-32.418-6.449 19.997-24.268 15.359 15.508m-33.997-6.058 19.429-28.958 17.2 19.876m-36.089-10.368 19.68-29.018 17.448 19.819m-35.828-10.44 19.168-28.888 17.45 19.818m-30.558 89.655 10.15-36.318 3.749-92.663" fill="none" stroke="#000" stroke-width=".108" transform="matrix(1.3333333 0 0 -1.3333333 959.3112 131.25627)"/><path clip-path="url(#N)" d="m0 0 27.759 19.23-13.9 7.16 24.319-4.15-8.348 11.008 23.627-8.83-8.35 11.011 23.63-8.819-8.35 11.007 28.488-9.658-8.35 11.01 27.8-14.33-8.35 11.01 28.499-9.661 13.897-7.168 4.181-5.501-5.561-3.85-15.277-2.178-24.649-10.171 4.508 8.819-30.556-4.37 11.109 7.69-31.248-9.039 11.1 7.69-26.379-9.878 11.788 12.369-27.069-14.55 11.791 12.358-22.199-15.379 12.48 17.041z" fill="#006d00" transform="matrix(1.3333333 0 0 -1.3333333 798.74613 330.16587)"/><path clip-path="url(#O)" d="m0 0 27.76 19.229-13.902 7.16 24.32-4.151-8.349 11.009 23.628-8.828-8.349 11.009 23.628-8.82-8.348 11.009 28.486-9.658-8.349 11.009 27.799-14.33-8.348 11.009 28.496-9.66 13.9-7.169 4.18-5.499-5.559-3.851-15.278-2.179-24.651-10.169 4.51 8.818-30.558-4.37 11.109 7.692-31.247-9.041 11.099 7.691-26.379-9.879 11.79 12.368-27.07-14.549 11.789 12.36-22.197-15.381 12.481 17.041z" fill="none" stroke="#fff" stroke-width=".898" transform="matrix(1.3333333 0 0 -1.3333333 798.74613 330.16453)"/><path clip-path="url(#P)" d="m0 0 22.608 18.081-18.136 12.277m-29.92-33.898 17.789 19.219-14.179 5.27m6.561-23.138 22.896 20.06-18.449 10.138m28.4-26.219 24.778 14.94-22.529 16.279m15.29-31.618 27.058 14.47-22.35 17.547m19.921-34.026 21.928 13.477-22.349 17.539m-95.675-27.118 28.699 12.399 15.278 2.192 12.749.219 21.98-1.36 19.82-.859 39.236-4.43" fill="none" stroke="#000" stroke-width=".109" transform="matrix(1.3333333 0 0 -1.3333333 858.94267 327.66)"/><path clip-path="url(#Q)" d="m0 0 47.926 8.601 49.917-8.601-23.159-9.628-42.737-.691z" fill="#9d9d9d" stroke="#000" stroke-width=".192" transform="matrix(1.3333333 0 0 -1.3333333 928.4076 622.86893)"/><path clip-path="url(#R)" d="m0 0c-8.381-2.91-17.66 4.101-32.758-7.339 0 0-26.339 11.258-28.338-14.77-.082-1.06 4.17-7.409 4.759-6.958 3.31 2.549-1.569-2.46-1.569-3.19 0-.731.478-1.131.65-1.451.159-.33.559-.809.651-2.188.079-1.371-2.991-5.13-1.693-6.5 1.29-1.379 1.372-5.35 1.372-6.482 0-1.129.81-4.277 1.37-4.928.569-.65 1.538-2.27 1.538-3.639 0-1.38.572-5.182.321-6.152-.239-.967 1.461-2.188 3-2.67 1.53-.489 21.369-.829 49.197-.348 27.839.489 37.128-3.911 48.627.269 1.779.64 2.1 2.099 1.94 2.91-.161.809 0 3.4.49 4.05.481.64 3.719 5.819 3.069 6.789.611.55 5.15-2.619 2.26.21-.74.73.42 8.381.811 9.991.41 1.61 1.02 4.638 1.77 5.199.739.571-1.27 2.67-1.129 3.049.148.391.688 1.582 1.438 2.12 0 0 1.411 6.581.54 9.808-.86 3.241-4.018 17.791-23.757 14.881 0 0-26.428 10.16-34.559 7.339" fill="#c00" transform="matrix(1.3333333 0 0 -1.3333333 992.78907 519.60853)"/><path clip-path="url(#S)" d="m0 0c-8.381-2.91-17.66 4.101-32.758-7.339 0 0-26.339 11.258-28.338-14.77-.082-1.06 4.17-7.409 4.759-6.958 3.31 2.549-1.569-2.46-1.569-3.19 0-.731.478-1.131.65-1.451.159-.33.559-.809.651-2.188.079-1.371-2.991-5.13-1.693-6.5 1.29-1.379 1.372-5.35 1.372-6.482 0-1.129.81-4.277 1.37-4.928.569-.65 1.538-2.27 1.538-3.639 0-1.38.572-5.182.321-6.152-.239-.967 1.461-2.188 3-2.67 1.53-.489 21.369-.829 49.197-.348 27.839.489 37.128-3.911 48.627.269 1.779.64 2.1 2.099 1.94 2.91-.161.809 0 3.4.49 4.05.481.64 3.719 5.819 3.069 6.789.611.55 5.15-2.619 2.26.21-.74.73.42 8.381.811 9.991.41 1.61 1.02 4.638 1.77 5.199.739.571-1.27 2.67-1.129 3.049.148.391.688 1.582 1.438 2.12 0 0 1.411 6.581.54 9.808-.86 3.241-4.018 17.791-23.757 14.881 0 0-26.428 10.16-34.559 7.339z" fill="none" stroke="#000" stroke-width=".31" transform="matrix(1.3333333 0 0 -1.3333333 992.78907 519.60853)"/><path clip-path="url(#T)" d="m0 0c-.06-.241-.39-5.52-.44-5.671 0 .021.271 5.12.271 5.141-.011.009.021-1.15.021-1.14.047.149.079 1.47.148 1.67m-3.51-.32c.12-.18.22-.33.299-.469l.282-1.131c.01-.02 1.17-3.851 1.18-3.871-.092.141-1.641 5.25-1.761 5.471m-.809 20.44c-1.29-.461-2.59-11.581-1.472-15.17.77-2.49 1.702-4.17 2.242-5.199-1.121 1.718-3.639 5.01-6.491 4.759-3.589-.33-2.629-11.86-2.46-12.589.01-.011.01-.011.01-.021 0 0 0-.01.011-.01.129.292 1 5.171 4.541 5.491 2.339.21 4.49-2.329 5.298-3.42.049-.361.09-.712.141-1.06-.392-1.141-.409-3.74-1.641-7.119-1.479-4.091-7.439-5.03-8.439-5.161.25.021 9.85.881 12.999 1.16.01.01.03.01.04.01h.02.04c3.15.289 12.74 1.149 12.999 1.17-1.02-.051-7.189-.199-9.628 3.54-2.031 3.09-2.56 5.64-3.221 6.679-.051.361-.079.709-.13 1.07.529 1.211 2.02 4.07 4.349 4.28 3.55.321 5.581-4.301 5.78-4.559h.011v.01.018c0 .742-1.879 12.2-5.461 11.87-2.86-.248-4.518-3.919-5.189-5.798.269 1.109.72 3.4.84 5.468.22 3.771-3.778 14.698-5.12 14.581z" fill="#f7d917" transform="matrix(1.3333333 0 0 -1.3333333 953.4844 568.81813)"/><path clip-path="url(#U)" d="m0 0c-.061-.238-.391-5.52-.439-5.669-.001.021.268 5.12.269 5.142-.01.008.02-1.151.021-1.143.049.152.078 1.472.149 1.67zm-3.511-.32c.121-.178.222-.329.301-.468l.28-1.131c.01-.02 1.17-3.851 1.179-3.87-.09.14-1.639 5.249-1.76 5.469zm-.809 20.44c-1.29-.46-2.589-11.578-1.469-15.168.77-2.491 1.699-4.17 2.239-5.201-1.121 1.719-3.64 5.011-6.489 4.76-3.591-.33-2.63-11.86-2.461-12.59.011-.009.011-.009.01-.02 0 0 .001-.009.01-.009.13.289 1.001 5.17 4.54 5.488 2.34.21 4.49-2.327 5.3-3.42.049-.357.089-.708.139-1.059-.389-1.139-.408-3.74-1.639-7.119-1.479-4.091-7.44-5.029-8.439-5.16.25.02 9.85.879 12.999 1.159.01.011.029.01.04.011.01.001.01.001.019-.001.01.001.03.001.041.002 3.15.29 12.739 1.147 13 1.169-1.021-.051-7.191-.2-9.63 3.541-2.03 3.089-2.56 5.64-3.22 6.678-.05.36-.08.71-.13 1.07.53 1.21 2.019 4.071 4.349 4.28 3.55.322 5.58-4.3 5.78-4.559l.011-.001-.001.009c0 .011 0 .011.001.021-.001.74-1.881 12.2-5.461 11.869-2.86-.249-4.519-3.918-5.189-5.8.269 1.111.72 3.401.84 5.472.219 3.77-3.78 14.697-5.12 14.577-.02.001-.05.001-.07.001z" fill="none" stroke="#000" stroke-width=".187" transform="matrix(1.3333333 0 0 -1.3333333 953.48573 568.81947)"/><path clip-path="url(#V)" d="m0 0s.96.809 2.01.911c1.049.09 2.188-.532 2.188-.532l.231-1.9s-1.14.62-2.189.531c-1.05-.101-2.01-.909-2.01-.909z" fill="#f7d917" transform="matrix(1.3333333 0 0 -1.3333333 949.27213 576.7648)"/><path clip-path="url(#W)" d="m0 0s.96.811 2.01.91c1.049.091 2.188-.528 2.188-.528l.231-1.903s-1.14.623-2.189.531c-1.052-.1-2.011-.91-2.011-.91z" fill="none" stroke="#000" stroke-width=".187" transform="matrix(1.3333333 0 0 -1.3333333 949.27347 576.7648)"/><path clip-path="url(#X)" d="m0 0c-.1-.22-1.521-5.321-1.609-5.46 0 .021 1.328 4.948 1.328 4.98 0 0-.21-1.129-.21-1.12.082.128.391 1.418.491 1.6m-3.488.42c.068-.199.137-.371.189-.52 0-.009.038-1.171.038-1.171 0-.029.351-4.009.341-4.03-.049.161-.51 5.481-.568 5.721m3.448 20.148c-1.359-.181-4.94-10.789-4.601-14.529.241-2.591.812-4.421 1.121-5.55-.729 1.92-2.521 5.66-5.36 6-3.568.431-5.04-11.051-5.019-11.801v-.009c0-.008.009-.008.009-.019.19.259 2.051 4.849 5.591 4.429 2.32-.278 3.899-3.21 4.47-4.449-.03-.361-.062-.709-.09-1.07-.622-1.029-1.18-3.571-3.082-6.62-2.299-3.699-8.319-3.379-9.328-3.289.251-.041 9.82-1.19 12.958-1.572h.041.011c.02-.008.03-.008.041-.008 3.148-.381 12.707-1.53 12.958-1.561-1.001.162-7.071 1.3-8.681 5.46-1.339 3.451-1.329 6.059-1.759 7.208.031.362.07.712.1 1.071.77 1.08 2.821 3.571 5.14 3.292 3.541-.43 4.57-5.371 4.71-5.67.01 0 .01.01.01.01v.01c.159.74.699 12.328-2.872 12.758-2.849.341-5.237-2.9-6.289-4.599.502 1.028 1.41 3.169 1.971 5.178 1.001 3.64-.651 15.159-1.979 15.33-.02 0-.041.011-.071 0" fill="#f7d917" transform="matrix(1.3333333 0 0 -1.3333333 1035.1732 570.29733)"/><path clip-path="url(#Y)" d="m0 0c-.1-.219-1.521-5.319-1.61-5.458 0 .018 1.331 4.948 1.33 4.979 0 0-.209-1.13-.21-1.121.08.13.39 1.42.49 1.6zm-3.49.42c.07-.199.139-.368.19-.52.001-.009.04-1.171.04-1.171-.001-.028.35-4.007.339-4.03-.049.161-.51 5.482-.569 5.721zm3.45 20.149c-1.359-.18-4.94-10.789-4.6-14.529.241-2.59.81-4.42 1.12-5.549-.729 1.919-2.52 5.658-5.359 5.998-3.57.43-5.04-11.049-5.019-11.799l-.001-.009c.001-.011.009-.01.01-.02.19.259 2.049 4.849 5.589 4.43 2.321-.279 3.9-3.209 4.469-4.449-.029-.362-.06-.71-.089-1.072-.621-1.029-1.18-3.569-3.081-6.62-2.298-3.699-8.318-3.38-9.327-3.289.249-.04 9.819-1.188 12.958-1.569.011-.001.03-.001.041 0l.01-.001c.018-.01.029-.009.04-.01 3.149-.38 12.709-1.529 12.959-1.56-.999.16-7.07 1.3-8.68 5.459-1.34 3.45-1.33 6.061-1.76 7.209.03.362.071.711.101 1.073.77 1.079 2.819 3.568 5.138 3.289 3.541-.43 4.57-5.37 4.71-5.669.011-.001.01.01.01.01l.001.009c.159.74.698 12.33-2.87 12.76-2.85.338-5.24-2.902-6.291-4.601.501 1.031 1.411 3.169 1.971 5.181.999 3.639-.65 15.159-1.98 15.327-.019 0-.04.01-.07.001z" fill="none" stroke="#000" stroke-width=".187" transform="matrix(1.3333333 0 0 -1.3333333 1035.1732 570.29867)"/><path clip-path="url(#Z)" d="m0 0s1.111.592 2.161.461c1.039-.12 2.029-.96 2.029-.96l-.169-1.909s-.98.84-2.029.97c-1.05.118-2.15-.471-2.15-.471z" fill="#f7d917" transform="matrix(1.3333333 0 0 -1.3333333 1029.3984 577.19187)"/><g stroke="#000"><path clip-path="url(#aa)" d="m0 0s1.11.59 2.16.458c1.04-.117 2.029-.958 2.029-.958l-.169-1.909s-.98.84-2.03.969c-1.05.121-2.15-.471-2.15-.471z" fill="none" stroke-width=".187" transform="matrix(1.3333333 0 0 -1.3333333 1029.3997 577.19053)"/><path clip-path="url(#ab)" d="m0 0 5.12 6.238s.481-.619 0 0c-10.49 13.56-11.02 21.339-9.841 25.279 1.181 3.939 3.541 8.21 9.841 13.469 6.299 5.251 10.639 2.33 16.549 2.33 5.9 0 7.479-1.31 12.59-1.971 5.119-.658 18.899-1.319 18.899-1.319v3.62s.54-.099 0 0c-6.08 1.129-13.78 0-18.899 1.311-5.111 1.309-9.442 1.639-14.95 1.639-5.519 0-9.469 1.609-13.009-.69-3.54-2.301-7.869-6.24-11.021-9.519-3.148-3.29-4.727-9.851-4.328-14.12.389-4.27 1.968-7.879 4.328-11.169 2.361-3.28 1.972-5.91 2.752-8.209.789-2.291 1.969-7.219 1.969-6.889" fill="#f7d917" stroke-width=".148" transform="matrix(1.3333333 0 0 -1.3333333 915.95307 567.4432)"/><path clip-path="url(#ac)" d="m0 0-5.119 6.238s-.482-.619 0 0c10.49 13.56 11.019 21.339 9.84 25.279-1.18 3.939-3.54 8.21-9.84 13.469-6.3 5.251-10.639 2.33-16.55 2.33-5.9 0-7.479-1.31-12.589-1.971-5.12-.658-18.899-1.319-18.899-1.319v3.62s-.54-.099 0 0c6.079 1.129 13.779 0 18.899 1.311 5.11 1.309 9.441 1.639 14.949 1.639 5.52 0 9.469 1.609 13.009-.69 3.541-2.301 7.869-6.24 11.021-9.519 3.148-3.29 4.727-9.851 4.329-14.12-.39-4.27-1.969-7.879-4.329-11.169-2.361-3.28-1.971-5.91-2.752-8.209-.788-2.291-1.969-7.219-1.969-6.889" fill="#f7d917" stroke-width=".148" transform="matrix(1.3333333 0 0 -1.3333333 1067.3047 567.4432)"/><path clip-path="url(#ad)" d="m735.151 291.701h18.249v-37.438h-18.249z" fill="#f7d917" stroke-width=".172" transform="matrix(1.3333333 0 0 -1.3333333 0 888.88933)"/><path clip-path="url(#ae)" d="m0 0s1.969-1.597 3.469-3.647c1.51-2.061 2.56-4.57 2.56-4.57s-2.508 1.05-4.569 2.56c-2.051 1.501-3.65 3.469-3.65 3.469v-13.89s1.599 1.961 3.65 3.472c2.061 1.509 4.569 2.559 4.569 2.559s-.809-2.081-1.329-4.569c-.471-2.25-4.321-7.432-4.321-7.432l11.251-.75s-1.871 5.932-2.629 8.182c-.812 2.419-1.142 4.569-1.142 4.569s2.511-1.05 4.57-2.559c2.06-1.511 3.66-3.472 3.66-3.472v13.89s-1.6-1.968-3.66-3.469c-2.059-1.51-4.57-2.56-4.57-2.56s1.05 2.509 2.56 4.57c1.511 2.05 3.472 3.647 3.472 3.647z" fill="#f7d917" stroke-width=".103" transform="matrix(1.3333333 0 0 -1.3333333 983.10933 455.94707)"/><path clip-path="url(#af)" d="m0 0c0-12.079-18.108-12.079-18.108 0 0 12.067 18.108 12.067 18.108 0" fill="#f7d917" stroke-width=".103" transform="matrix(1.3333333 0 0 -1.3333333 1004.4415 488.94187)"/><path clip-path="url(#ag)" d="m0 0h18.009s.268 3.479-1.04 4.779h-5.59l-.101 5.23h-5.299l-.099-5.23s-3.761-.189-5.491-.189c-.788-2.13-.67-2.312-.67-2.312z" fill="#f7d917" stroke-width=".103" transform="matrix(1.3333333 0 0 -1.3333333 980.56387 490.67493)"/><path clip-path="url(#ah)" d="m0 0s3.279-2.67 5.798-6.11c2.521-3.428 4.27-7.629 4.27-7.629s-4.201 1.759-7.629 4.28c-3.429 2.509-6.099 5.791-6.099 5.791v-23.19s2.67 3.279 6.099 5.8c3.428 2.52 7.629 4.271 7.629 4.271s-1.749-4.192-4.27-7.632c-2.519-3.43-5.798-6.1-5.798-6.1h23.187s-3.279 2.67-5.8 6.1c-2.509 3.44-4.27 7.632-4.27 7.632s4.2-1.751 7.631-4.271c3.43-2.521 6.1-5.8 6.1-5.8v23.19s-2.67-3.282-6.1-5.791c-3.431-2.521-7.631-4.28-7.631-4.28s1.761 4.201 4.27 7.629c2.521 3.44 5.8 6.11 5.8 6.11z" fill="#f7d917" stroke-width=".155" transform="matrix(1.3333333 0 0 -1.3333333 976.91147 548.1932)"/><path clip-path="url(#ai)" d="m0 0 11.42 2.012s-3.691 2.057-6.771 5.009c-3.08 2.939-5.529 6.768-5.529 6.768s4.428-1 8.247-2.879c3.822-1.889 7.023-4.649 7.023-4.649l-4.033 22.839s-2.057-3.702-4.999-6.771c-2.938-3.079-6.768-5.539-6.768-5.539s.998 4.439 2.88 8.261c1.879 3.819 4.648 7.018 4.648 7.018l-11.419-2.019z" fill="#f7d917" stroke-width=".155" transform="matrix(1.3333333 0 0 -1.3333333 918.0208 600.69707)"/><path clip-path="url(#aj)" d="m0 0s2.77-3.199 4.651-7.019c1.889-3.822 2.89-8.26 2.89-8.26s-3.829 2.46-6.78 5.539c-2.94 3.069-5 6.77-5 6.77l-4.03-22.839s3.201 2.76 7.02 4.65c3.819 1.879 8.261 2.879 8.261 2.879s-2.46-3.829-5.54-6.768c-3.072-2.952-6.771-5.01-6.771-5.01l11.42-2.011 5.299 30.049z" fill="#f7d917" stroke-width=".155" transform="matrix(1.3333333 0 0 -1.3333333 1058.5573 557.938)"/><path clip-path="url(#ak)" d="m0 0 .082-16.639s27.797 9.469 55.606 9.469c27.799 0 55.607-9.469 55.607-9.469v16.639s-27.828 9.47-55.647 9.47c-27.828 0-55.648-9.47-55.648-9.47" fill="#f7d917" stroke-width=".155" transform="matrix(1.3333333 0 0 -1.3333333 918.1784 599.11107)"/></g><path clip-path="url(#al)" d="m0 0c.019-2.357-1.881-4.267-4.231-4.267-2.36 0-4.259 1.91-4.239 4.267-.02 2.351 1.879 4.271 4.239 4.271 2.35 0 4.25-1.92 4.231-4.271" fill="#fff" transform="matrix(1.3333333 0 0 -1.3333333 914.74093 555.63453)"/><g stroke="#000"><path clip-path="url(#am)" d="m0 0c.019-2.357-1.881-4.267-4.231-4.267-2.36 0-4.259 1.91-4.239 4.267-.02 2.351 1.879 4.271 4.239 4.271 2.35 0 4.25-1.92 4.231-4.271z" fill="none" stroke-width=".136" transform="matrix(1.3333333 0 0 -1.3333333 914.74093 555.63453)"/><g fill="#fff"><path clip-path="url(#an)" d="m0 0c.018-2.351-1.882-4.27-4.231-4.27-2.361 0-4.26 1.919-4.24 4.27-.02 2.35 1.879 4.27 4.24 4.27 2.349 0 4.249-1.92 4.231-4.27" stroke-width=".136" transform="matrix(1.3333333 0 0 -1.3333333 907.50267 542.76613)"/><path clip-path="url(#ao)" d="m0 0c.021-2.35-1.879-4.27-4.229-4.27-2.36 0-4.259 1.92-4.239 4.27-.02 2.35 1.879 4.27 4.239 4.27 2.35 0 4.25-1.92 4.229-4.27" stroke-width=".136" transform="matrix(1.3333333 0 0 -1.3333333 905.99347 527.6736)"/><path clip-path="url(#ap)" d="m0 0c.021-2.35-1.879-4.27-4.229-4.27s-4.25 1.92-4.229 4.27c-.021 2.35 1.879 4.27 4.229 4.27s4.25-1.92 4.229-4.27" stroke-width=".136" transform="matrix(1.3333333 0 0 -1.3333333 910.51307 513.59427)"/><path clip-path="url(#aq)" d="m0 0c.021-2.357-1.879-4.268-4.229-4.268-2.36 0-4.259 1.911-4.239 4.268-.02 2.35 1.879 4.27 4.239 4.27 2.35 0 4.25-1.92 4.229-4.27" stroke-width=".136" transform="matrix(1.3333333 0 0 -1.3333333 920.07293 502.02387)"/><path clip-path="url(#ar)" d="m0 0c.021-2.351-1.879-4.271-4.229-4.271-2.361 0-4.26 1.92-4.24 4.271-.02 2.36 1.879 4.27 4.24 4.27 2.35 0 4.25-1.91 4.229-4.27" stroke-width=".136" transform="matrix(1.3333333 0 0 -1.3333333 933.1524 493.98227)"/><path clip-path="url(#as)" d="m0 0c.018-2.351-1.882-4.27-4.231-4.27-2.361 0-4.26 1.919-4.24 4.27-.02 2.35 1.879 4.27 4.24 4.27 2.349 0 4.249-1.92 4.231-4.27" stroke-width=".136" transform="matrix(1.3333333 0 0 -1.3333333 947.7396 494.98227)"/><path clip-path="url(#at)" d="m0 0c.021-2.36-1.879-4.271-4.239-4.271-2.351 0-4.25 1.911-4.232 4.271-.018 2.35 1.881 4.27 4.232 4.27 2.36 0 4.26-1.92 4.239-4.27" stroke-width=".136" transform="matrix(1.3333333 0 0 -1.3333333 962.32427 497.39493)"/><path clip-path="url(#au)" d="m0 0c.019-2.36-1.881-4.28-4.241-4.28-2.351 0-4.25 1.92-4.23 4.28-.02 2.35 1.879 4.27 4.23 4.27 2.36 0 4.26-1.92 4.241-4.27" stroke-width=".136" transform="matrix(1.3333333 0 0 -1.3333333 976.91147 498.90013)"/><path clip-path="url(#av)" d="m0 0c-.018-2.357 1.882-4.267 4.231-4.267 2.361 0 4.26 1.91 4.24 4.267.02 2.351-1.879 4.271-4.24 4.271-2.349 0-4.249-1.92-4.231-4.271" stroke-width=".136" transform="matrix(1.3333333 0 0 -1.3333333 1068.5169 555.63453)"/><path clip-path="url(#aw)" d="m0 0c-.019-2.351 1.881-4.27 4.231-4.27 2.36 0 4.259 1.919 4.239 4.27.02 2.35-1.879 4.27-4.239 4.27-2.35 0-4.25-1.92-4.231-4.27" stroke-width=".136" transform="matrix(1.3333333 0 0 -1.3333333 1075.7565 542.76613)"/><path clip-path="url(#ax)" d="m0 0c-.021-2.35 1.879-4.27 4.229-4.27 2.36 0 4.26 1.92 4.239 4.27.021 2.35-1.879 4.27-4.239 4.27-2.35 0-4.25-1.92-4.229-4.27" stroke-width=".136" transform="matrix(1.3333333 0 0 -1.3333333 1077.2643 527.6736)"/><path clip-path="url(#ay)" d="m0 0c-.021-2.35 1.879-4.27 4.229-4.27 2.349 0 4.249 1.92 4.228 4.27.021 2.35-1.879 4.27-4.228 4.27-2.35 0-4.25-1.92-4.229-4.27" stroke-width=".136" transform="matrix(1.3333333 0 0 -1.3333333 1072.7461 513.59427)"/><path clip-path="url(#az)" d="m0 0c-.02-2.357 1.88-4.268 4.229-4.268 2.361 0 4.26 1.911 4.24 4.268.02 2.35-1.879 4.27-4.24 4.27-2.349 0-4.249-1.92-4.229-4.27" stroke-width=".136" transform="matrix(1.3333333 0 0 -1.3333333 1063.1849 502.02387)"/><path clip-path="url(#aA)" d="m0 0c-.021-2.351 1.879-4.271 4.229-4.271 2.36 0 4.259 1.92 4.239 4.271.02 2.36-1.879 4.27-4.239 4.27-2.35 0-4.25-1.91-4.229-4.27" stroke-width=".136" transform="matrix(1.3333333 0 0 -1.3333333 1050.1068 493.98227)"/><path clip-path="url(#aB)" d="m0 0c-.018-2.351 1.882-4.27 4.231-4.27 2.361 0 4.26 1.919 4.24 4.27.02 2.35-1.879 4.27-4.24 4.27-2.349 0-4.249-1.92-4.231-4.27" stroke-width=".136" transform="matrix(1.3333333 0 0 -1.3333333 1035.5183 494.98227)"/><path clip-path="url(#aC)" d="m0 0c-.02-2.36 1.88-4.271 4.239-4.271 2.351 0 4.25 1.911 4.232 4.271.018 2.35-1.881 4.27-4.232 4.27-2.359 0-4.259-1.92-4.239-4.27" stroke-width=".136" transform="matrix(1.3333333 0 0 -1.3333333 1020.9336 497.39493)"/><path clip-path="url(#aD)" d="m0 0c-.018-2.36 1.882-4.28 4.242-4.28 2.35 0 4.249 1.92 4.229 4.28.02 2.35-1.879 4.27-4.229 4.27-2.36 0-4.26-1.92-4.242-4.27" stroke-width=".136" transform="matrix(1.3333333 0 0 -1.3333333 1006.3464 498.90013)"/><path clip-path="url(#aE)" d="m0 0c.021-2.35-1.879-4.27-4.229-4.27-2.361 0-4.26 1.92-4.242 4.27-.018 2.36 1.881 4.27 4.242 4.27 2.35 0 4.25-1.91 4.229-4.27" stroke-width=".136" transform="matrix(1.3333333 0 0 -1.3333333 998.0156 542.96787)"/><path clip-path="url(#aF)" d="m0 0c.021-2.36-1.879-4.28-4.229-4.28-2.361 0-4.26 1.92-4.242 4.28-.018 2.35 1.881 4.27 4.242 4.27 2.35 0 4.25-1.92 4.229-4.27" stroke-width=".136" transform="matrix(1.3333333 0 0 -1.3333333 998.0156 532.89893)"/><path clip-path="url(#aG)" d="m0 0c.021-2.35-1.879-4.27-4.229-4.27-2.361 0-4.26 1.92-4.242 4.27-.018 2.35 1.881 4.27 4.242 4.27 2.35 0 4.25-1.92 4.229-4.27" stroke-width=".136" transform="matrix(1.3333333 0 0 -1.3333333 998.0156 524.8612)"/><path clip-path="url(#aH)" d="m0 0c.021-2.35-1.879-4.27-4.229-4.27-2.361 0-4.26 1.92-4.242 4.27-.018 2.35 1.881 4.27 4.242 4.27 2.35 0 4.25-1.92 4.229-4.27" stroke-width=".136" transform="matrix(1.3333333 0 0 -1.3333333 998.0156 517.51613)"/><path clip-path="url(#aI)" d="m0 0c.021-2.351-1.879-4.271-4.229-4.271-2.361 0-4.26 1.92-4.242 4.271-.018 2.36 1.881 4.27 4.242 4.27 2.35 0 4.25-1.91 4.229-4.27" stroke-width=".136" transform="matrix(1.3333333 0 0 -1.3333333 998.0156 493.98227)"/><path clip-path="url(#aJ)" d="m0 0c.021-2.351-1.879-4.27-4.229-4.27-2.361 0-4.26 1.919-4.242 4.27-.018 2.35 1.881 4.27 4.242 4.27 2.35 0 4.25-1.92 4.229-4.27" stroke-width=".136" transform="matrix(1.3333333 0 0 -1.3333333 998.0156 494.98227)"/><path clip-path="url(#aK)" d="m0 0c.021-2.36-1.879-4.28-4.229-4.28-2.361 0-4.26 1.92-4.242 4.28-.018 2.35 1.881 4.27 4.242 4.27 2.35 0 4.25-1.92 4.229-4.27" stroke-width=".136" transform="matrix(1.3333333 0 0 -1.3333333 998.0156 500.20747)"/><path clip-path="url(#aL)" d="m0 0c.021-2.351-1.879-4.271-4.229-4.271-2.361 0-4.26 1.92-4.242 4.271-.018 2.35 1.881 4.27 4.242 4.27 2.35 0 4.25-1.92 4.229-4.27" stroke-width=".136" transform="matrix(1.3333333 0 0 -1.3333333 998.0156 507.35467)"/><path clip-path="url(#aM)" d="m0 0c0-7.287-10.93-7.287-10.93 0 0 7.291 10.93 7.291 10.93 0" stroke-width=".206" transform="matrix(1.3333333 0 0 -1.3333333 999.6016 567.2596)"/><path clip-path="url(#aN)" d="m0 0c0-7.288-10.94-7.288-10.94 0 0 7.29 10.94 7.29 10.94 0" stroke-width=".206" transform="matrix(1.3333333 0 0 -1.3333333 923.38027 580.4848)"/><path clip-path="url(#aO)" d="m0 0c0-7.288-10.938-7.288-10.938 0 0 7.29 10.938 7.29 10.938 0" stroke-width=".206" transform="matrix(1.3333333 0 0 -1.3333333 1075.4765 580.4848)"/></g><path clip-path="url(#aP)" d="m736.321 222.654h16.908v-7.37h-16.908z" fill="#002b7f" stroke-width=".16" transform="matrix(1.3333333 0 0 -1.3333333 0 888.88933)"/></g><path clip-path="url(#aQ)" d="m0 0c.049-2.209 3.489-4.329 7.68-4.759 4.19-.43 7.539 1.011 7.49 3.22-.062 2.199-3.5 4.329-7.68 4.749-4.19.43-7.552-1.009-7.49-3.21" fill="#3e8225" transform="matrix(1.3333333 0 0 -1.3333333 1017.668 599.28427)"/><path clip-path="url(#aR)" d="m0 0c.05-2.209 3.49-4.33 7.68-4.758 4.189-.43 7.54 1.01 7.49 3.218-.061 2.199-3.5 4.331-7.68 4.75-4.19.431-7.551-1.008-7.49-3.21z" fill="none" stroke="#000" stroke-width=".273" transform="matrix(1.3333333 0 0 -1.3333333 1017.6667 599.28427)"/><path clip-path="url(#aS)" d="m0 0-4.242-4.239 4.91-2.831 11.43 3.058-2.04 6.472z" fill="#c00" stroke="#000" stroke-width=".206" transform="matrix(1.3333333 0 0 -1.3333333 918.31507 604.4548)"/><path clip-path="url(#aT)" d="m0 0 4.229-4.239-4.91-2.831-11.429 3.058 2.04 6.472z" fill="#c00" stroke="#000" stroke-width=".206" transform="matrix(1.3333333 0 0 -1.3333333 1067.7721 604.4548)"/><path clip-path="url(#aU)" d="m0 0c-.049-2.209-3.489-4.329-7.68-4.759-4.187-.43-7.538 1.011-7.487 3.22.059 2.199 3.499 4.329 7.688 4.749 4.19.43 7.541-1.009 7.479-3.21" fill="#3e8225" transform="matrix(1.3333333 0 0 -1.3333333 968.4024 599.28427)"/><path clip-path="url(#aV)" d="m0 0c-.051-2.209-3.49-4.33-7.68-4.76-4.19-.427-7.54 1.012-7.49 3.22.061 2.2 3.5 4.331 7.691 4.752 4.189.43 7.538-1.013 7.479-3.212z" fill="none" stroke="#000" stroke-width=".273" transform="matrix(1.3333333 0 0 -1.3333333 968.4036 599.28427)"/><path clip-path="url(#aW)" d="m0 0c0-1.149-.942-2.079-2.092-2.079-1.138 0-2.078.93-2.078 2.079 0 2.78 4.17 2.78 4.17 0" fill="#fff" stroke="#000" stroke-width=".19" transform="matrix(1.3333333 0 0 -1.3333333 976.8984 592.75173)"/><path clip-path="url(#aX)" d="m0 0c0-1.151-.941-2.081-2.091-2.081-1.139 0-2.079.93-2.079 2.081 0 2.771 4.17 2.771 4.17 0" fill="#fff" stroke="#000" stroke-width=".19" transform="matrix(1.3333333 0 0 -1.3333333 977.76427 601.58893)"/><path clip-path="url(#aY)" d="m0 0c0-1.149-.932-2.078-2.081-2.078s-2.079.929-2.079 2.078c0 2.77 4.16 2.77 4.16 0" fill="#fff" stroke="#000" stroke-width=".19" transform="matrix(1.3333333 0 0 -1.3333333 942.20707 598.99133)"/><path clip-path="url(#aZ)" d="m0 0c0-1.149-.939-2.081-2.089-2.081-1.141 0-2.081.932-2.081 2.081 0 2.77 4.17 2.77 4.17 0" fill="#fff" stroke="#000" stroke-width=".19" transform="matrix(1.3333333 0 0 -1.3333333 945.68493 607.30907)"/><path clip-path="url(#a0)" d="m0 0c0-1.149.932-2.079 2.081-2.079s2.078.93 2.078 2.079c0 2.78-4.159 2.78-4.159 0" fill="#fff" stroke="#000" stroke-width=".19" transform="matrix(1.3333333 0 0 -1.3333333 1009.0533 592.75173)"/><path clip-path="url(#a1)" d="m0 0c0-1.151.929-2.081 2.078-2.081 1.15 0 2.081.93 2.081 2.081 0 2.771-4.159 2.771-4.159 0" fill="#fff" stroke="#000" stroke-width=".19" transform="matrix(1.3333333 0 0 -1.3333333 1008.1901 601.58893)"/><path clip-path="url(#a2)" d="m0 0c0-1.149.929-2.078 2.078-2.078 1.15 0 2.081.929 2.081 2.078 0 2.77-4.159 2.77-4.159 0" fill="#fff" stroke="#000" stroke-width=".19" transform="matrix(1.3333333 0 0 -1.3333333 1043.7344 598.99133)"/><path clip-path="url(#a3)" d="m0 0c0-1.149.929-2.081 2.078-2.081 1.152 0 2.081.932 2.081 2.081 0 2.77-4.159 2.77-4.159 0" fill="#fff" stroke="#000" stroke-width=".19" transform="matrix(1.3333333 0 0 -1.3333333 1040.2669 607.30907)"/><path clip-path="url(#a4)" d="m0 0c1.59.269 11.182 2.55 13.201 3.769-1.3 2.349-3.639 4.19-1.82 3.419.978-.419 1.749 2.821-1.09 5.291-8.261-2.71-28.059-7.649-52.937-7.649-25.458 0-45.498 5.199-53.757 7.907-2.84-2.469-1.959-5.278-2.13-6.327 0-.011 0-1.331.519-2.381 2.8-3.039 11.87-4.539 13.459-4.81 7.46-1.3 14.93-3.258 41.898-3.258 24.948 0 35.198 2.738 42.657 4.039" fill="#fff" transform="matrix(1.3333333 0 0 -1.3333333 1049.0377 637.73347)"/><path clip-path="url(#a5)" d="m0 0c1.59.269 11.182 2.55 13.201 3.769-1.3 2.349-3.639 4.19-1.82 3.419.978-.419 1.749 2.821-1.09 5.291-8.261-2.71-28.059-7.649-52.937-7.649-25.458 0-45.498 5.199-53.757 7.907-2.84-2.469-1.959-5.278-2.13-6.327 0-.011 0-1.331.519-2.381 2.8-3.039 11.87-4.539 13.459-4.81 7.46-1.3 14.93-3.258 41.898-3.258 24.948 0 35.198 2.738 42.657 4.039z" fill="none" stroke="#000" stroke-width=".326" transform="matrix(1.3333333 0 0 -1.3333333 1049.0377 637.73347)"/><path clip-path="url(#a6)" d="m0 0c-1.59-.279-11.698-3.86-13.721-5.079v-.03c.172-1.05-1.748-5.939 1.091-8.419 8.261 2.711 31.438 10.779 56.317 10.779 25.459 0 46.548-8.068 54.798-10.779 2.839 2.48.919 7.369 1.088 8.419v.03c-2.019 1.219-12.129 4.8-13.708 5.079-7.469 1.29-15.2 6.11-42.168 6.11-24.938 0-36.237-4.82-43.697-6.11" fill="#fff" stroke="#000" stroke-width=".326" transform="matrix(1.3333333 0 0 -1.3333333 935.19267 614.89627)"/><path clip-path="url(#a7)" d="m0 0c.059-.351-.221-.671-.6-.709-.38-.041-.731.22-.759.568-.062.351.219.671.598.711.39.039.73-.219.761-.57" transform="matrix(1.3333333 0 0 -1.3333333 925.5 622.98867)"/><path clip-path="url(#a8)" d="m0 0c.062-.35-.218-.669-.599-.71-.379-.04-.73.221-.76.571-.059.351.22.669.599.71.392.039.733-.22.76-.571z" fill="none" stroke="#000" stroke-width=".132" transform="matrix(1.3333333 0 0 -1.3333333 925.49733 622.99)"/><path clip-path="url(#a9)" d="m0 0c.051-.351-.23-.671-.609-.709-.379-.041-.73.21-.761.568-.049.351.221.671.599.712.392.038.732-.22.771-.571" transform="matrix(1.3333333 0 0 -1.3333333 924.47267 625.26867)"/><path clip-path="url(#ba)" d="m0 0c.051-.352-.229-.67-.61-.712-.379-.039-.732.212-.76.57-.051.351.221.671.599.71.392.04.73-.218.771-.568z" fill="none" stroke="#000" stroke-width=".132" transform="matrix(1.3333333 0 0 -1.3333333 924.47267 625.26733)"/><path clip-path="url(#bb)" d="m0 0c.051-.351-.221-.671-.609-.709-.382-.041-.73.22-.761.568-.051.351.221.681.599.712.392.038.732-.21.771-.571" transform="matrix(1.3333333 0 0 -1.3333333 926.47267 626.52133)"/><path clip-path="url(#bc)" d="m0 0c.051-.349-.221-.669-.609-.709-.382-.04-.731.219-.761.569-.051.351.22.68.599.71.39.04.732-.209.771-.57z" fill="none" stroke="#000" stroke-width=".132" transform="matrix(1.3333333 0 0 -1.3333333 926.47267 626.52253)"/><path clip-path="url(#bd)" d="m0 0 5.97 2.76-2.863-1.92 1.951.261-1.72-.97 2.951.12z" transform="matrix(1.3333333 0 0 -1.3333333 924.7148 624.97573)"/><path clip-path="url(#be)" d="m0 0 5.97 2.76-2.859-1.92 1.949.259-1.721-.969 2.951.12z" fill="none" stroke="#000" stroke-width=".264" transform="matrix(1.3333333 0 0 -1.3333333 924.71227 624.9744)"/><path clip-path="url(#bf)" d="m0 0c.051-.351-.221-.681-.6-.719-.391-.031-.729.22-.77.571-.051.358.221.678.609.719.382.038.73-.219.761-.571" transform="matrix(1.3333333 0 0 -1.3333333 954.7916 614.60333)"/><path clip-path="url(#bg)" d="m0 0c.049-.349-.222-.681-.601-.72-.39-.031-.729.222-.77.572-.049.357.22.679.611.717.379.042.73-.218.76-.569z" fill="none" stroke="#000" stroke-width=".132" transform="matrix(1.3333333 0 0 -1.3333333 954.7916 614.60333)"/><path clip-path="url(#bh)" d="m0 0c.051-.348-.22-.668-.599-.709-.389-.041-.729.22-.76.57-.059.349.22.669.599.709.381.041.732-.209.76-.57" transform="matrix(1.3333333 0 0 -1.3333333 953.75 616.89627)"/><path clip-path="url(#bi)" d="m0 0c.051-.351-.221-.671-.6-.71-.391-.041-.729.219-.759.569-.062.35.22.671.599.71s.731-.209.76-.569z" fill="none" stroke="#000" stroke-width=".132" transform="matrix(1.3333333 0 0 -1.3333333 953.75133 616.89493)"/><path clip-path="url(#bj)" d="m0 0c.062-.351-.22-.67-.599-.709-.381-.041-.729.221-.76.568-.059.351.22.671.599.712.381.038.732-.219.76-.571" transform="matrix(1.3333333 0 0 -1.3333333 955.75 618.13587)"/><path clip-path="url(#bk)" d="m0 0c.062-.35-.218-.671-.6-.71-.379-.042-.729.219-.759.569-.059.35.22.671.599.71.381.039.73-.221.76-.569z" fill="none" stroke="#000" stroke-width=".132" transform="matrix(1.3333333 0 0 -1.3333333 955.75 618.13453)"/><path clip-path="url(#bl)" d="m0 0 5.969 2.771-2.862-1.92 1.951.26-1.72-.969 2.941.12z" transform="matrix(1.3333333 0 0 -1.3333333 954.00653 616.60333)"/><path clip-path="url(#bm)" d="m0 0 5.969 2.771-2.86-1.919 1.95.258-1.719-.968 2.938.119z" fill="none" stroke="#000" stroke-width=".264" transform="matrix(1.3333333 0 0 -1.3333333 954.0052 616.60333)"/><path clip-path="url(#bn)" d="m0 0c-.028-.351-.368-.602-.75-.54-.389.049-.658.379-.609.729.041.351.381.6.76.551.381-.061.661-.391.599-.74" transform="matrix(1.3333333 0 0 -1.3333333 991.13413 610.68147)"/><path clip-path="url(#bo)" d="m0 0c-.028-.351-.371-.6-.749-.539-.39.049-.66.379-.61.729.039.349.379.601.76.55.378-.06.659-.391.599-.74z" fill="none" stroke="#000" stroke-width=".132" transform="matrix(1.3333333 0 0 -1.3333333 991.13547 610.68147)"/><path clip-path="url(#bp)" d="m0 0c-.028-.358-.379-.599-.761-.548-.379.049-.647.39-.598.74.03.348.371.589.75.54.388-.051.66-.381.609-.732" transform="matrix(1.3333333 0 0 -1.3333333 989.58853 612.64373)"/><path clip-path="url(#bq)" d="m0 0c-.03-.36-.382-.599-.761-.551-.379.051-.651.391-.598.74.028.351.369.59.749.542.389-.051.66-.381.61-.731z" fill="none" stroke="#000" stroke-width=".132" transform="matrix(1.3333333 0 0 -1.3333333 989.58987 612.6424)"/><path clip-path="url(#br)" d="m0 0c-.03-.349-.371-.599-.75-.551-.389.062-.66.392-.608.74.027.351.379.602.756.55.382-.058.651-.388.602-.739" transform="matrix(1.3333333 0 0 -1.3333333 991.2292 614.3364)"/><path clip-path="url(#bs)" d="m0 0c-.031-.351-.37-.6-.75-.552-.391.062-.661.392-.608.741.028.351.378.599.757.55.381-.059.651-.389.601-.739z" fill="none" stroke="#000" stroke-width=".132" transform="matrix(1.3333333 0 0 -1.3333333 991.2292 614.33373)"/><path clip-path="url(#bt)" d="m0 0 6.461 1.249-3.241-1.181 1.961-.209-1.903-.53 2.891-.589z" transform="matrix(1.3333333 0 0 -1.3333333 989.89587 612.41453)"/><path clip-path="url(#bu)" d="m0 0 6.461 1.249-3.241-1.179 1.961-.211-1.902-.53 2.892-.59z" fill="none" stroke="#000" stroke-width=".264" transform="matrix(1.3333333 0 0 -1.3333333 989.89453 612.41453)"/><path clip-path="url(#bv)" d="m0 0c.049.349-.22.668-.602.709-.388.041-.729-.21-.77-.57-.048-.349.221-.669.612-.71.379-.04.73.22.76.571" transform="matrix(1.3333333 0 0 -1.3333333 1024.8281 617.65413)"/><path clip-path="url(#bw)" d="m0 0c.049.352-.221.671-.602.711-.389.04-.728-.21-.767-.571-.051-.349.218-.669.609-.709.379-.039.73.218.76.569z" fill="none" stroke="#000" stroke-width=".132" transform="matrix(1.3333333 0 0 -1.3333333 1024.8281 617.65533)"/><path clip-path="url(#bx)" d="m0 0c.049.349-.221.679-.6.72-.391.038-.731-.221-.759-.572-.062-.35.219-.678.598-.719.379-.04.73.22.761.571" transform="matrix(1.3333333 0 0 -1.3333333 1023.7877 615.37413)"/><path clip-path="url(#by)" d="m0 0c.051.351-.22.68-.599.719-.391.041-.729-.219-.759-.57-.062-.349.219-.679.597-.718.382-.04.733.22.761.569z" fill="none" stroke="#000" stroke-width=".132" transform="matrix(1.3333333 0 0 -1.3333333 1023.7864 615.37547)"/><path clip-path="url(#bz)" d="m0 0c.059.349-.221.668-.602.709-.378.041-.729-.22-.757-.57-.062-.349.217-.668.598-.709.379-.041.73.209.761.57" transform="matrix(1.3333333 0 0 -1.3333333 1025.7877 614.12147)"/><path clip-path="url(#bA)" d="m0 0c.062.35-.218.668-.6.71-.379.039-.729-.222-.759-.571-.059-.351.22-.669.599-.711.381-.039.731.212.76.572z" fill="none" stroke="#000" stroke-width=".132" transform="matrix(1.3333333 0 0 -1.3333333 1025.7864 614.12027)"/><path clip-path="url(#bB)" d="m0 0 5.97-2.76-2.86 1.92 1.951-.262-1.72.971 2.938-.12z" transform="matrix(1.3333333 0 0 -1.3333333 1024.0404 615.66707)"/><path clip-path="url(#bC)" d="m0 0 5.97-2.759-2.859 1.92 1.949-.262-1.719.971 2.938-.121z" fill="none" stroke="#000" stroke-width=".264" transform="matrix(1.3333333 0 0 -1.3333333 1024.0404 615.6684)"/><path clip-path="url(#bD)" d="m0 0c.049.351-.221.67-.602.709-.389.041-.729-.21-.768-.568-.051-.351.221-.671.609-.712.379-.038.73.22.761.571" transform="matrix(1.3333333 0 0 -1.3333333 1054.3867 625.37413)"/><path clip-path="url(#bE)" d="m0 0c.051.349-.221.669-.6.71-.389.038-.731-.212-.77-.571-.049-.351.221-.67.609-.711.382-.039.731.221.761.572z" fill="none" stroke="#000" stroke-width=".132" transform="matrix(1.3333333 0 0 -1.3333333 1054.3855 625.3728)"/><path clip-path="url(#bF)" d="m0 0c.052.358-.22.678-.599.719-.391.041-.732-.22-.76-.571-.061-.348.22-.678.599-.719.381-.031.73.22.76.571" transform="matrix(1.3333333 0 0 -1.3333333 1053.3451 623.09413)"/><path clip-path="url(#bG)" d="m0 0c.05.36-.22.681-.602.72-.388.04-.729-.219-.759-.57-.059-.349.222-.68.601-.719.38-.031.73.218.76.569z" fill="none" stroke="#000" stroke-width=".132" transform="matrix(1.3333333 0 0 -1.3333333 1053.3464 623.09413)"/><path clip-path="url(#bH)" d="m0 0c.06.351-.22.67-.599.709-.391.041-.732-.221-.76-.568-.061-.351.22-.671.599-.712.381-.038.73.21.76.571" transform="matrix(1.3333333 0 0 -1.3333333 1055.3451 621.8416)"/><path clip-path="url(#bI)" d="m0 0c.059.35-.221.671-.6.71-.391.041-.729-.219-.759-.569-.062-.35.217-.671.599-.71.379-.039.729.209.76.569z" fill="none" stroke="#000" stroke-width=".132" transform="matrix(1.3333333 0 0 -1.3333333 1055.3464 621.8416)"/><path clip-path="url(#bJ)" d="m0 0 5.979-2.759-2.869 1.92 1.961-.262-1.72.971 2.938-.121z" transform="matrix(1.3333333 0 0 -1.3333333 1053.5847 623.3884)"/><path clip-path="url(#bK)" d="m0 0 5.98-2.76-2.872 1.921 1.962-.26-1.72.969 2.94-.119z" fill="none" stroke="#000" stroke-width=".264" transform="matrix(1.3333333 0 0 -1.3333333 1053.586 623.3884)"/></svg>