<svg height="600" viewBox="0 0 900 600" width="900" xmlns="http://www.w3.org/2000/svg" xmlns:xlink="http://www.w3.org/1999/xlink"><clipPath id="a"><path d="m0 450h675v-450h-675z" transform="translate(-151.4346 -280.1899)"/></clipPath><clipPath id="b"><path d="m0 450h675v-450h-675z" transform="translate(-151.4346 -280.1899)"/></clipPath><clipPath id="c"><path d="m0 450h675v-450h-675z" transform="translate(-149.7012 -284.54151)"/></clipPath><clipPath id="d"><path d="m0 450h675v-450h-675z" transform="translate(-167.17191 -220.1611)"/></clipPath><clipPath id="e"><path d="m0 450h675v-450h-675z" transform="translate(-150.2959 -216.37401)"/></clipPath><clipPath id="f"><path d="m0 450h675v-450h-675z" transform="translate(-150.2959 -216.37401)"/></clipPath><clipPath id="g"><path d="m0 450h675v-450h-675z" transform="translate(-158.69871 -192.90231)"/></clipPath><clipPath id="h"><path d="m0 450h675v-450h-675z" transform="translate(-76.543899 -193.2354)"/></clipPath><clipPath id="i"><path d="m0 450h675v-450h-675z" transform="translate(-93.4507 -197.89941)"/></clipPath><clipPath id="j"><path d="m0 450h675v-450h-675z" transform="translate(-85.712905 -208.34571)"/></clipPath><clipPath id="k"><path d="m0 450h675v-450h-675z" transform="translate(-145.0767 -197.8584)"/></clipPath><clipPath id="l"><path d="m0 450h675v-450h-675z" transform="translate(-137.3389 -208.2949)"/></clipPath><clipPath id="m"><path d="m0 450h675v-450h-675z" transform="translate(-144.9961 -219.3457)"/></clipPath><clipPath id="n"><path d="m0 450h675v-450h-675z" transform="translate(-137.25831 -229.77201)"/></clipPath><clipPath id="o"><path d="m0 450h675v-450h-675z" transform="translate(-93.359905 -219.3955)"/></clipPath><clipPath id="p"><path d="m0 450h675v-450h-675z" transform="translate(-85.622102 -229.8223)"/></clipPath><clipPath id="q"><path d="m0 450h675v-450h-675z" transform="translate(-112.4731 -219.376)"/></clipPath><clipPath id="r"><path d="m0 450h675v-450h-675z" transform="translate(-104.7451 -229.80181)"/></clipPath><clipPath id="s"><path d="m0 450h675v-450h-675z" transform="translate(-127.2031 -219.3457)"/></clipPath><clipPath id="t"><path d="m0 450h675v-450h-675z" transform="translate(-119.46531 -229.792)"/></clipPath><clipPath id="u"><path d="m0 450h675v-450h-675z" transform="translate(-129.82281 -223.39551)"/></clipPath><clipPath id="v"><path d="m0 450h675v-450h-675z" transform="translate(-129.82281 -223.39551)"/></clipPath><clipPath id="w"><path d="m0 450h675v-450h-675z" transform="translate(-99.082502 -214.7119)"/></clipPath><clipPath id="x"><path d="m0 450h675v-450h-675z" transform="translate(-102.9214 -192.9834)"/></clipPath><clipPath id="y"><path d="m0 450h675v-450h-675z" transform="translate(-126.2158 -192.9736)"/></clipPath><clipPath id="z"><path d="m0 450h675v-450h-675z" transform="translate(-140.9761 -236.34961)"/></clipPath><clipPath id="A"><path d="m0 450h675v-450h-675z" transform="translate(-105.9141 -259.3477)"/></clipPath><clipPath id="B"><path d="m0 450h675v-450h-675z" transform="translate(-110.32671 -257.44381)"/></clipPath><clipPath id="C"><path d="m0 450h675v-450h-675z" transform="translate(-114.0244 -268.07131)"/></clipPath><clipPath id="D"><path d="m0 450h675v-450h-675z" transform="translate(-150.59811 -272.4028)"/></clipPath><clipPath id="E"><path d="m0 450h675v-450h-675z" transform="translate(-100.6948 -222.5488)"/></clipPath><clipPath id="F"><path d="m0 450h675v-450h-675z" transform="translate(-105.22851 -222.5488)"/></clipPath><clipPath id="G"><path d="m0 450h675v-450h-675z" transform="translate(-110.18601 -222.5488)"/></clipPath><clipPath id="H"><path d="m0 450h675v-450h-675z" transform="translate(-115.7676 -222.5293)"/></clipPath><clipPath id="I"><path d="m0 450h675v-450h-675z" transform="translate(-120.73491 -222.5293)"/></clipPath><clipPath id="J"><path d="m0 450h675v-450h-675z" transform="translate(-125.6719 -222.51861)"/></clipPath><clipPath id="K"><path d="m0 450h675v-450h-675z" transform="translate(-114.6895 -153.97851)"/></clipPath><clipPath id="L"><path d="m0 450h675v-450h-675z" transform="translate(-30.237801 -229.3384)"/></clipPath><clipPath id="M"><path d="m0 450h675v-450h-675z" transform="translate(-39.134301 -204.84961)"/></clipPath><clipPath id="N"><path d="m0 450h675v-450h-675z" transform="translate(-39.134301 -204.84961)"/></clipPath><clipPath id="O"><path d="m0 450h675v-450h-675z" transform="translate(-22.6108 -214.46001)"/></clipPath><clipPath id="P"><path d="m0 450h675v-450h-675z" transform="translate(-67.748501 -143.8047)"/></clipPath><clipPath id="Q"><path d="m0 450h675v-450h-675z" transform="translate(-198.1338 -229.1875)"/></clipPath><clipPath id="R"><path d="m0 450h675v-450h-675z" transform="translate(-189.44871 -204.7588)"/></clipPath><clipPath id="S"><path d="m0 450h675v-450h-675z" transform="translate(-189.44871 -204.7588)"/></clipPath><clipPath id="T"><path d="m0 450h675v-450h-675z" transform="translate(-205.90191 -214.2988)"/></clipPath><clipPath id="U"><path d="m0 450h675v-450h-675z" transform="translate(-161.37891 -143.7334)"/></clipPath><clipPath id="V"><path d="m0 450h675v-450h-675z" transform="translate(-103.1431 -140.76171)"/></clipPath><clipPath id="W"><path d="m0 450h675v-450h-675z" transform="translate(-111.415 -140.35941)"/></clipPath><clipPath id="X"><path d="m0 450h675v-450h-675z" transform="translate(-118.82031 -147.2695)"/></clipPath><clipPath id="Y"><path d="m0 450h675v-450h-675z" transform="translate(-157.55031 -159.126)"/></clipPath><clipPath id="Z"><path d="m0 450h675v-450h-675z" transform="translate(-168.5122 -152.9512)"/></clipPath><clipPath id="aa"><path d="m0 450h675v-450h-675z" transform="translate(-178.15431 -157.0312)"/></clipPath><clipPath id="ab"><path d="m0 450h675v-450h-675z" transform="translate(-189.3984 -165.9463)"/></clipPath><clipPath id="ac"><path d="m0 450h675v-450h-675z" transform="translate(-194.3149 -172.3428)"/></clipPath><clipPath id="ad"><path d="m0 450h675v-450h-675z" transform="translate(-197.1763 -177.3193)"/></clipPath><clipPath id="ae"><path d="m0 450h675v-450h-675z" transform="translate(-200.79351 -187)"/></clipPath><clipPath id="af"><path d="m0 450h675v-450h-675z" transform="translate(-200.13871 -197.5264)"/></clipPath><clipPath id="ag"><path d="m0 450h675v-450h-675z" transform="translate(-28.2427 -198.0303)"/></clipPath><clipPath id="ah"><path d="m0 450h675v-450h-675z" transform="translate(-27.7192 -187.1611)"/></clipPath><clipPath id="ai"><path d="m0 450h675v-450h-675z" transform="translate(-31.315901 -177.25881)"/></clipPath><clipPath id="aj"><path d="m0 450h675v-450h-675z" transform="translate(-39.214801 -165.52251)"/></clipPath><clipPath id="ak"><path d="m0 450h675v-450h-675z" transform="translate(-46.660601 -158.9043)"/></clipPath><clipPath id="al"><path d="m0 450h675v-450h-675z" transform="translate(-57.572302 -153.3643)"/></clipPath><clipPath id="am"><path d="m0 450h675v-450h-675z" transform="translate(-68.967302 -295.65231)"/></clipPath><clipPath id="an"><path d="m0 450h675v-450h-675z" transform="translate(-74.921902 -269.64261)"/></clipPath><clipPath id="ao"><path d="m0 450h675v-450h-675z" transform="translate(-77.229504 -269.8945)"/></clipPath><clipPath id="ap"><path d="m0 450h675v-450h-675z" transform="translate(-82.7305 -268.22221)"/></clipPath><clipPath id="aq"><path d="m0 450h675v-450h-675z" transform="translate(-75.879399 -265.27101)"/></clipPath><clipPath id="ar"><path d="m0 450h675v-450h-675z" transform="translate(-79.617204 -264.5356)"/></clipPath><clipPath id="as"><path d="m0 450h675v-450h-675z" transform="translate(-84.3931 -262.31931)"/></clipPath><clipPath id="at"><path d="m0 450h675v-450h-675z" transform="translate(-82.952102 -262.73241)"/></clipPath><clipPath id="au"><path d="m0 450h675v-450h-675z" transform="translate(-82.045405 -260.44581)"/></clipPath><clipPath id="av"><path d="m0 450h675v-450h-675z" transform="translate(-81.2998 -259.95211)"/></clipPath><path d="m0 0h675v450h-675z" fill="#012a87" transform="matrix(1.3333333 0 0 -1.3333333 0 600)"/><path d="m0 225h675v225h-675z" fill="#dc171d" transform="matrix(1.3333333 0 0 -1.3333333 0 600)"/><path d="m0 0v-450l300 225z" fill="#fff" transform="scale(1.3333333 -1.3333333)"/><path clip-path="url(#a)" d="m0 0 .101 3.485s-1.874 2.982.292 6.185c0 0-4.605 2.438-3.537 6.256 0 0-4.171 1.068-3.858 5.651 0 0-4.504.313-4.968 4.151 0 0-4.504-.746-6.488 2.991 0 0-4.393-.856-5.632 2.217 0 0-4.262-1.471-6.801 2.145 0 0-4.504-1.823-6.398 1.592-1.864-3.405-6.368-1.592-6.368-1.592-2.498-3.606-6.801-2.115-6.801-2.115-1.199-3.083-5.582-2.206-5.582-2.206-1.974-3.738-6.468-2.992-6.468-2.992-.443-3.828-4.937-4.14-4.937-4.14.363-4.594-3.808-5.641-3.808-5.641 1.098-3.818-3.506-6.256-3.506-6.256 2.226-3.213.372-6.175.372-6.175l-.1-3.214 74.507-.342" fill="#ff0" transform="matrix(1.3333333 0 0 -1.3333333 201.9128 226.41347)"/><path clip-path="url(#b)" d="m0 0 .101 3.485s-1.874 2.982.292 6.185c0 0-4.605 2.438-3.537 6.256 0 0-4.171 1.068-3.858 5.651 0 0-4.504.313-4.968 4.151 0 0-4.504-.746-6.488 2.991 0 0-4.393-.856-5.632 2.217 0 0-4.262-1.471-6.801 2.145 0 0-4.504-1.823-6.398 1.592-1.864-3.405-6.368-1.592-6.368-1.592-2.498-3.606-6.801-2.115-6.801-2.115-1.199-3.083-5.582-2.206-5.582-2.206-1.974-3.738-6.468-2.992-6.468-2.992-.443-3.828-4.937-4.14-4.937-4.14.363-4.594-3.808-5.641-3.808-5.641 1.098-3.818-3.506-6.256-3.506-6.256 2.226-3.213.372-6.175.372-6.175l-.1-3.214 74.507-.342z" fill="#f9d90f" stroke="#000" stroke-width=".271" transform="matrix(1.3333333 0 0 -1.3333333 201.9128 226.41347)"/><path clip-path="url(#c)" d="m0 0c-11.708 1.168-25.178 3.949-35.586-1.904-6.972 4.1-16.675 3.848-24.947 3.052-4.493-.806-9.773-.806-14.458-1.571l-.735-.101c-8.514-.574-16.242 1.944-23.637 5.249 2.347-13.328 4.957-26.987 6.237-40.949 2.791-20.671-9.784-38.027-4.625-58.447 3.083-9.801 13.854-15.493 23.717-16.621 9.552-.564 19.436-2.125 28.272-4.05 1.682-.342 3.667-1.128 4.826-1.632 2.438-1.017 4.222-2.508 5.793-4.109 5.33 5.549 13.149 7.101 20.867 7.917 13.903 1.622 31.042.736 39.555 13.337v.705c4.625 6.971 4.02 17.599 2.005 25.487-.131 2.76-.866 5.187-1.269 7.806-8.494 22.434-1.219 47.658 2.438 70.273-4.463-2.447-9.441-3.596-14.408-4.815-3.969-.534-8.382-.292-12.392-.081l-1.663.454" fill="#dc171d" transform="matrix(1.3333333 0 0 -1.3333333 199.6016 220.61133)"/><path clip-path="url(#d)" d="m0 0c-.05-1.471.746-2.629 1.038-3.999 1.622-9.801 3.194-22.796-6.902-28.881-11.173-7.101-25.813-4.059-38.74-7.816-2.579-.716-6.135-3.093-7.949-4.765-1.169.766-2.338 1.943-3.839 2.629-10.639 5.661-24.462 3.768-36.462 6.819-6.036 1.905-12.323 6.599-13.844 12.774-3.929 16.188 5.471 29.979 4.363 46.046-.716 12.259-2.781 24.035-5.612 35.529 9.38-4.372 20.251-5.097 30.8-3.002 7.809 1.088 16.907 1.119 24.231-2.186 4.03 1.733 8.756 2.509 13.108 2.992 8.262-.806 17.149-2.307 25.662-2.236 5.683.292 10.852 1.934 15.798 4.12-2.931-18.999-8.564-38.904-1.652-58.023" fill="#62afe1" transform="matrix(1.3333333 0 0 -1.3333333 222.89587 306.45187)"/><path clip-path="url(#e)" d="m0 0-.091 17.87h2.207l-27.324 17.639-.051 9.167h2.64l-13.652 9.782-13.592-9.772h2.63l.05-9.157-27.173-17.618 2.166-.02.101-17.851 72.089-.05" fill="#fff" transform="matrix(1.3333333 0 0 -1.3333333 200.39453 311.50133)"/><path clip-path="url(#f)" d="m0 0-.091 17.87h2.207l-27.324 17.639-.051 9.167h2.64l-13.652 9.782-13.592-9.772h2.63l.05-9.157-27.173-17.618 2.166-.02.101-17.851 72.089-.05z" fill="none" stroke="#000" stroke-width="1.164" transform="matrix(1.3333333 0 0 -1.3333333 200.39453 311.50133)"/><path clip-path="url(#g)" d="m0 0v-5.591l-88.008.101-.031 5.561z" fill="#fff" stroke="#000" stroke-width="1.164" transform="matrix(1.3333333 0 0 -1.3333333 211.59827 342.79693)"/><path clip-path="url(#h)" d="m0 0-.081 18.928 3.567.009-.201-19.149.221 18.988-5.138.152v4.059l78.658-.091.031-4.018h-4.847l.091-19.16-.171 19.16h3.607l.08-18.948" fill="#fff" stroke="#000" stroke-width="1.164" transform="matrix(1.3333333 0 0 -1.3333333 102.05853 342.3528)"/><path clip-path="url(#i)" d="m0 0-.061 13.196h-10.559l.061-13.186z" fill="none" stroke="#000" stroke-width="1.164" transform="matrix(1.3333333 0 0 -1.3333333 124.60093 336.13413)"/><path clip-path="url(#j)" d="m0 0 .03-7.666h4.826l-.02 7.666z" fill="none" stroke="#000" stroke-width="1.164" transform="matrix(1.3333333 0 0 -1.3333333 114.28387 322.20573)"/><path clip-path="url(#k)" d="m0 0-.061 13.187-10.518.009.04-13.196z" fill="none" stroke="#000" stroke-width="1.164" transform="matrix(1.3333333 0 0 -1.3333333 193.4356 336.1888)"/><path clip-path="url(#l)" d="m0 0 .05-7.646h4.837l-.051 7.646z" fill="none" stroke="#000" stroke-width="1.164" transform="matrix(1.3333333 0 0 -1.3333333 183.11853 322.27347)"/><path clip-path="url(#m)" d="m0 0-.061 13.196h-10.538l.04-13.196h10.569z" fill="none" stroke="#000" stroke-width="1.164" transform="matrix(1.3333333 0 0 -1.3333333 193.32813 307.53907)"/><path clip-path="url(#n)" d="m0 0 .03-7.656h4.826v7.656z" fill="none" stroke="#000" stroke-width="1.164" transform="matrix(1.3333333 0 0 -1.3333333 183.01107 293.63733)"/><path clip-path="url(#o)" d="m0 0-.07 13.177-10.539.01.05-13.176h10.559z" fill="none" stroke="#000" stroke-width="1.164" transform="matrix(1.3333333 0 0 -1.3333333 124.47987 307.47267)"/><path clip-path="url(#p)" d="m0 0 .03-7.646 4.836-.01-.04 7.656z" fill="none" stroke="#000" stroke-width="1.164" transform="matrix(1.3333333 0 0 -1.3333333 114.1628 293.57027)"/><path clip-path="url(#q)" d="m0 0-.051 13.166-10.549.02.051-13.186z" fill="none" stroke="#000" stroke-width="1.164" transform="matrix(1.3333333 0 0 -1.3333333 149.96413 307.49867)"/><path clip-path="url(#r)" d="m0 0 .02-7.636 4.836-.03-.03 7.666z" fill="none" stroke="#000" stroke-width="1.164" transform="matrix(1.3333333 0 0 -1.3333333 139.66013 293.5976)"/><path clip-path="url(#s)" d="m0 0-.071 13.196-10.538.02.05-13.186z" fill="none" stroke="#000" stroke-width="1.164" transform="matrix(1.3333333 0 0 -1.3333333 169.60413 307.53907)"/><path clip-path="url(#t)" d="m0 0 .03-7.666h4.836l-.03 7.666z" fill="none" stroke="#000" stroke-width="1.164" transform="matrix(1.3333333 0 0 -1.3333333 159.28707 293.61067)"/><path clip-path="url(#u)" d="m0 0 .111-30.422-30.559.05-.111 30.402 30.549-.03" fill="#fff" transform="matrix(1.3333333 0 0 -1.3333333 173.09707 302.13933)"/><g stroke="#000"><path clip-path="url(#v)" d="m0 0 .111-30.422-30.559.05-.111 30.402 30.549-.03z" fill="none" stroke-width="1.164" transform="matrix(1.3333333 0 0 -1.3333333 173.09707 302.13933)"/><path clip-path="url(#w)" d="m0 0 30.771-.021" fill="none" stroke-width="1.164" transform="matrix(1.3333333 0 0 -1.3333333 132.11 313.71747)"/><path clip-path="url(#x)" d="m0 0-.111 21.507" fill="none" stroke-width="1.164" transform="matrix(1.3333333 0 0 -1.3333333 137.22853 342.6888)"/><path clip-path="url(#y)" d="m0 0-.101 21.486" fill="none" stroke-width="1.164" transform="matrix(1.3333333 0 0 -1.3333333 168.28773 342.70187)"/><path clip-path="url(#z)" d="m0 0-17.208 12.572-19.335.02-17.078-12.542z" fill="none" stroke-width="1.164" transform="matrix(1.3333333 0 0 -1.3333333 187.96813 284.8672)"/><path clip-path="url(#A)" d="m0 0 .03-7.666 16.272-.01-.031 7.666z" fill="none" stroke-width="1.164" transform="matrix(1.3333333 0 0 -1.3333333 141.2188 254.20307)"/><path clip-path="url(#B)" d="m0 0 .03-3.818h7.466l-.02 3.818z" fill="none" stroke-width="1.164" transform="matrix(1.3333333 0 0 -1.3333333 147.10227 256.7416)"/><path clip-path="url(#C)" d="m0 0 9.038-6.396-18.025.02z" fill="none" stroke-width="1.164" transform="matrix(1.3333333 0 0 -1.3333333 152.03253 242.5716)"/><path clip-path="url(#D)" d="m0 0c2.569.061 3.234-10.577 3.234-15.855 2.217-.615 7.103-3.698 9.269-6.478l-24.825.03c2.136 2.75 6.992 5.843 9.178 6.457 0 5.279.544 15.916 3.144 15.856" fill="#fff" stroke-width="1.164" transform="matrix(1.3333333 0 0 -1.3333333 200.79747 236.79627)"/><path clip-path="url(#E)" d="m0 0h2.227l-.655-1.198s1.078-1.381.02-2.962l.584-1.098h-2.146l.585 1.037s-1.099 1.833.05 3.023z" fill="none" stroke-width="1.164" transform="matrix(1.3333333 0 0 -1.3333333 134.25973 303.26827)"/><path clip-path="url(#F)" d="m0 0h2.227l-.645-1.198s1.078-1.34.01-2.962l.575-1.098h-2.137l.575 1.037s-1.078 1.833.05 3.023z" fill="none" stroke-width="1.164" transform="matrix(1.3333333 0 0 -1.3333333 140.30467 303.26827)"/><path clip-path="url(#G)" d="m0 0h2.216l-.665-1.198s1.089-1.381.021-2.962l.584-1.128-2.126.03.564 1.037s-1.088 1.824.041 3.023l-.645 1.198z" fill="none" stroke-width="1.164" transform="matrix(1.3333333 0 0 -1.3333333 146.91467 303.26827)"/><path clip-path="url(#H)" d="m0 0h2.237l-.655-1.209s1.078-1.351.01-2.941l.595-1.119h-2.157l.574 1.047s-1.067 1.844.081 3.013l-.675 1.209z" fill="none" stroke-width="1.164" transform="matrix(1.3333333 0 0 -1.3333333 154.3568 303.29427)"/><path clip-path="url(#I)" d="m0 0h2.216l-.654-1.209s1.078-1.351.02-2.932l.584-1.128h-2.136l.554 1.047s-1.078 1.834.081 3.013z" fill="none" stroke-width="1.164" transform="matrix(1.3333333 0 0 -1.3333333 160.97987 303.29427)"/><path clip-path="url(#J)" d="m0 0 2.227.011-.665-1.209s1.098-1.351.03-2.942l.564-1.118h-2.146l.574 1.047s-1.078 1.834.071 3.013z" fill="none" stroke-width="1.164" transform="matrix(1.3333333 0 0 -1.3333333 167.56253 303.30853)"/><path clip-path="url(#K)" d="m0 0c11.446-.03 25.521 2.307 32.11 5.712l14.478 1.279.293-17.669c-12.262-6.759-40.594-8.21-46.82-8.16-6.237-.05-34.912 1.421-47.234 8.21l.161 17.68 14.509-1.3c6.599-3.395 21.098-5.752 32.533-5.752z" fill="#f9d90f" stroke-width=".271" transform="matrix(1.3333333 0 0 -1.3333333 152.91933 394.69533)"/><path clip-path="url(#L)" d="m0 0 12.755-4.06-3.848-20.65-12.081-1.873s-2.035 10.859 3.174 26.593" fill="#f9d90f" stroke-width=".271" transform="matrix(1.3333333 0 0 -1.3333333 40.317067 294.21547)"/></g><path clip-path="url(#M)" d="m0 0-12.07-2.095 7.637 10.86z" fill="#f9b60f" transform="matrix(1.3333333 0 0 -1.3333333 52.179067 326.8672)"/><path clip-path="url(#N)" d="m0 0-12.07-2.095 7.637 10.86z" fill="none" stroke="#000" stroke-width=".271" transform="matrix(1.3333333 0 0 -1.3333333 52.179067 326.8672)"/><path clip-path="url(#O)" d="m0 0 12.302-.887c.272-10.416 1.531-50.176 49.016-52.342l-1.481-14.465c-57.792-.594-62.185 48.776-59.837 67.694" fill="#f9d90f" stroke="#000" stroke-width=".271" transform="matrix(1.3333333 0 0 -1.3333333 30.147733 314.05333)"/><path clip-path="url(#P)" d="m0 0 14.488 3.173" fill="none" stroke="#000" stroke-width=".271" transform="matrix(1.3333333 0 0 -1.3333333 90.331333 408.2604)"/><path clip-path="url(#Q)" d="m0 0-12.715-4.02 4.03-20.62 12.101-1.944s1.944 10.85-3.416 26.604z" fill="#f9d90f" stroke="#000" stroke-width=".271" transform="matrix(1.3333333 0 0 -1.3333333 264.1784 294.41667)"/><path clip-path="url(#R)" d="m0 0 12.101-2.165-7.738 10.859z" fill="#f9b60f" transform="matrix(1.3333333 0 0 -1.3333333 252.59827 326.98827)"/><path clip-path="url(#S)" d="m0 0 12.101-2.165-7.738 10.859z" fill="none" stroke="#000" stroke-width=".271" transform="matrix(1.3333333 0 0 -1.3333333 252.59827 326.98827)"/><path clip-path="url(#T)" d="m0 0-12.312-.847c-.182-10.405-1.088-50.175-48.574-52.291l1.613-14.456c57.792-.664 61.761 48.676 59.273 67.594" fill="#f9d90f" stroke="#000" stroke-width=".271" transform="matrix(1.3333333 0 0 -1.3333333 274.53587 314.26827)"/><path clip-path="url(#U)" d="m0 0-14.529 3.174" fill="none" stroke="#000" stroke-width=".271" transform="matrix(1.3333333 0 0 -1.3333333 215.17187 408.35547)"/><g fill="#012a87"><path clip-path="url(#V)" d="m0 0 .232 3.496 2.67-.182c.866-.07 1.511.152 1.944.595.454.433.685.997.716 1.632.06.745-.131 1.35-.575 1.803-.423.424-1.017.655-1.773.725l-3.829.243-.524-8.221 1.139-.07m3.859 4.493c-.322-.212-.766-.263-1.27-.243l-2.297.122.192 2.86 2.277-.12c.453-.03.806-.121 1.028-.252.463-.242.665-.686.614-1.3-.03-.523-.212-.866-.544-1.067" transform="matrix(1.3333333 0 0 -1.3333333 137.52413 412.31773)"/><path clip-path="url(#W)" d="m0 0 .02 3.516 2.63-.04c.463 0 .806-.041 1.048-.152.383-.181.574-.554.594-1.068l.071-1.38c.01-.332.02-.534.04-.675.04-.091.05-.201.1-.271h1.411l-.02.18c-.161.081-.292.252-.343.504-.05.152-.08.393-.09.696l-.021 1.097c-.02.494-.11.836-.292 1.028-.171.221-.393.413-.745.534.393.201.685.443.897.735.211.322.312.735.312 1.239 0 .947-.383 1.592-1.169 1.934-.423.191-.967.292-1.602.303l-3.949.04-.031-8.241h1.139m.05 7.304 2.791-.03c.403-.04.725-.091.957-.202.433-.201.635-.604.635-1.189 0-.553-.161-.926-.474-1.148-.302-.201-.735-.292-1.259-.292l-2.68.03.02 2.831" transform="matrix(1.3333333 0 0 -1.3333333 148.55333 412.85413)"/><path clip-path="url(#X)" d="m0 0c-.534-.815-.746-1.753-.695-2.901.08-1.229.464-2.246 1.179-3.012.796-.766 1.853-1.158 3.153-1.078 1.391.06 2.439.585 3.154 1.552.574.876.856 1.903.796 3.153-.081 1.128-.413 2.034-1.018 2.72-.765.916-1.884 1.319-3.405 1.258-1.441-.09-2.489-.624-3.174-1.692m1.36-5.187c-.504.614-.776 1.379-.836 2.286-.06 1.148.161 2.014.685 2.609.524.635 1.209.937 2.096.987.896.05 1.632-.242 2.176-.805.564-.544.877-1.321.937-2.267.03-.927-.131-1.743-.554-2.458-.413-.726-1.108-1.139-2.136-1.169-1.068-.05-1.864.202-2.368.817" transform="matrix(1.3333333 0 0 -1.3333333 158.42707 403.64067)"/><path clip-path="url(#Y)" d="m0 0c.786.131 1.471.101 2.105-.121.917-.281 1.532-.967 1.925-2.004l-1.138-.161c-.243.563-.595.946-1.069 1.168-.453.202-1.037.252-1.692.151-.776-.121-1.401-.504-1.834-1.128-.423-.655-.554-1.542-.362-2.67.15-.936.503-1.722 1.067-2.246.514-.544 1.28-.735 2.288-.594.745.121 1.35.422 1.773.936.433.494.564 1.239.423 2.196l-2.65-.413-.131.917 3.677.565.716-4.363-.725-.11-.454 1.007c-.312-.453-.614-.806-.887-1.007-.453-.363-1.068-.585-1.833-.695-.998-.152-1.905.02-2.72.553-.907.665-1.492 1.663-1.704 3.042-.241 1.351-.029 2.509.595 3.426.594.886 1.461 1.4 2.63 1.561" transform="matrix(1.3333333 0 0 -1.3333333 210.06707 387.832)"/><path clip-path="url(#Z)" d="m0 0-1.29 3.304 2.449.886c.463.142.785.222 1.017.202.444-.06.766-.323.988-.826l.564-1.259c.121-.313.221-.494.302-.584.03-.112.111-.182.171-.252l1.33.493-.07.172c-.202 0-.383.11-.524.332-.111.151-.202.373-.343.625l-.443 1.037c-.192.443-.393.725-.625.887-.241.13-.534.212-.876.242.262.311.463.624.534.986.08.373.04.796-.131 1.26-.343.876-.957 1.359-1.834 1.42-.453.03-.988-.061-1.592-.282l-3.708-1.32 2.993-7.746 1.088.402m-2.64 6.831 2.64.957c.353.14.675.181.937.151.483-.04.846-.322 1.048-.907.191-.484.191-.916-.03-1.219-.222-.313-.575-.534-1.099-.725l-2.478-.886z" transform="matrix(1.3333333 0 0 -1.3333333 224.68293 396.06507)"/><path clip-path="url(#aa)" d="m0 0-4.705 6.87 5.168 3.294.564-.836-4.231-2.7 1.451-2.096 3.909 2.509.534-.796-3.909-2.518 1.592-2.317 4.312 2.76.564-.816z" transform="matrix(1.3333333 0 0 -1.3333333 237.53907 390.62507)"/><path clip-path="url(#ab)" d="m0 0c.957 1.058 1.168 2.186.604 3.465-.322.695-.816 1.37-1.511 1.965-.856.765-1.763 1.158-2.71 1.228-1.058.081-1.955-.302-2.731-1.148l-2.297-2.468 6.338-5.53 2.297 2.477m-7.114 3.234 1.341 1.481c.635.665 1.289.957 2.014.876.726-.06 1.461-.443 2.248-1.128.211-.171.402-.383.604-.625.343-.443.544-.836.675-1.228.111-.495.081-.937-.091-1.37-.101-.212-.292-.463-.564-.766l-1.35-1.471-4.877 4.241" transform="matrix(1.3333333 0 0 -1.3333333 252.5312 378.73827)"/><path clip-path="url(#ac)" d="m0 0-7.305 4.281.595.947 7.314-4.261-.604-.977" transform="matrix(1.3333333 0 0 -1.3333333 259.08653 370.2096)"/><path clip-path="url(#ad)" d="m0 0-7.879 3.152 2.317 5.541.958-.363-1.895-4.573 2.378-.927 1.774 4.201.907-.373-1.754-4.2 2.65-1.078 1.945 4.624.957-.363-2.368-5.641" transform="matrix(1.3333333 0 0 -1.3333333 262.90173 363.57427)"/><path clip-path="url(#ae)" d="m0 0-8.292 1.833.272 1.279 7.667 2.589-6.73 1.481.242 1.007 8.292-1.783-.262-1.249-7.668-2.639 6.721-1.451-.232-1.067" transform="matrix(1.3333333 0 0 -1.3333333 267.72467 350.66667)"/><path clip-path="url(#af)" d="m0 0 .101 1.038c.483-.011.886.07 1.189.232.604.322.957.946 1.047 1.853.031.433.02.806-.08 1.158-.181.696-.564 1.069-1.189 1.128-.453.051-.786-.059-1.027-.311-.212-.283-.444-.705-.615-1.29l-.383-1.088c-.242-.705-.463-1.199-.715-1.471-.393-.523-.948-.695-1.653-.645-.745.071-1.36.374-1.793.958-.454.523-.635 1.279-.524 2.206.07.856.352 1.571.856 2.145.464.534 1.189.786 2.116.686l-.091-1.048c-.453 0-.805-.071-1.078-.262-.473-.263-.735-.816-.816-1.633-.07-.675.02-1.128.282-1.47.252-.292.585-.473.957-.503.414-.041.726.09.948.402.161.212.352.675.604 1.431l.383 1.148c.181.523.403.927.655 1.219.463.473 1.068.675 1.813.625.928-.101 1.582-.484 1.915-1.179.332-.705.463-1.48.383-2.367-.101-.997-.433-1.783-1.028-2.317-.605-.534-1.35-.715-2.257-.645" transform="matrix(1.3333333 0 0 -1.3333333 266.8516 336.63147)"/><path clip-path="url(#ag)" d="m0 0 .192-1.027c-.464-.102-.837-.283-1.099-.525-.483-.453-.655-1.128-.483-2.054.07-.393.211-.776.393-1.088.363-.625.846-.877 1.451-.776.443.08.745.251.886.564.131.322.232.796.262 1.41l.051 1.159c.04.715.12 1.279.282 1.591.252.564.715.917 1.42 1.028.756.141 1.421-.03 1.995-.464.575-.392.958-1.088 1.099-2.005.171-.845.09-1.601-.242-2.276-.312-.665-.927-1.067-1.864-1.239l-.181 1.038c.433.161.755.312.966.534.373.402.484.997.343 1.813-.111.665-.343 1.098-.685 1.309-.332.252-.675.353-1.037.292-.414-.07-.686-.292-.817-.664-.08-.242-.141-.746-.191-1.531l-.061-1.199c-.03-.564-.111-1.028-.302-1.35-.302-.584-.806-.947-1.551-1.067-.937-.162-1.663.059-2.177.654-.524.595-.856 1.3-1.017 2.176-.182 1.038-.051 1.853.362 2.498.423.665 1.099 1.057 2.005 1.188" transform="matrix(1.3333333 0 0 -1.3333333 37.656933 335.9596)"/><path clip-path="url(#ah)" d="m0 0 8.11 2.438 1.885-5.712-.988-.313-1.541 4.694-2.469-.745 1.431-4.332-.947-.301-1.411 4.341-2.75-.816 1.572-4.795-.968-.282z" transform="matrix(1.3333333 0 0 -1.3333333 36.958933 350.45187)"/><path clip-path="url(#ai)" d="m0 0 7.456 3.959.796-1.391-5.128-5.429 7.496 1.29.765-1.381-7.435-3.939-.534.917 4.393 2.317c.161.091.402.221.765.413.343.161.736.373 1.129.574l-7.456-1.269-.544.967 5.088 5.41-.242-.122c-.161-.1-.433-.231-.806-.443-.373-.231-.645-.372-.826-.443l-4.383-2.347-.534.927" transform="matrix(1.3333333 0 0 -1.3333333 41.754533 363.65493)"/><path clip-path="url(#aj)" d="m0 0 2.609 2.388 1.845-1.874c.594-.605 1.198-.886 1.833-.867.655.031 1.209.273 1.703.736.554.494.816 1.068.816 1.692-.01.595-.282 1.159-.796 1.693l-2.65 2.7-6.166-5.661.796-.807m6.005.756c-.373.081-.736.302-1.098.675l-1.582 1.622 2.126 1.944 1.581-1.622c.313-.302.504-.595.615-.847.141-.483 0-.926-.453-1.34-.403-.372-.806-.523-1.189-.432" transform="matrix(1.3333333 0 0 -1.3333333 52.2864 379.30333)"/><path clip-path="url(#ak)" d="m0 0 4.474 7.001 5.279-3.213-.544-.836-4.343 2.609-1.35-2.125 4-2.418-.524-.806-3.99 2.407-1.521-2.377 4.393-2.639-.524-.827z" transform="matrix(1.3333333 0 0 -1.3333333 62.214133 388.1276)"/><path clip-path="url(#al)" d="m0 0 1.119 3.345 2.508-.817c.443-.11.766-.272.927-.443.312-.272.403-.685.242-1.189l-.373-1.33c-.08-.332-.121-.544-.161-.644 0-.101 0-.212.02-.282l1.32-.433.07.191c-.141.111-.211.312-.211.564.03.151.07.393.161.685l.322 1.058c.121.474.172.816.061 1.067-.101.273-.262.504-.544.736.423.071.776.202 1.088.424.292.251.534.603.675 1.097.302.887.141 1.632-.524 2.197-.332.292-.806.544-1.42.775l-3.759 1.158-2.619-7.816zm2.317 6.89 2.69-.856c.383-.111.656-.263.847-.424.342-.322.433-.795.231-1.359-.171-.483-.422-.806-.815-.947-.343-.061-.787-.061-1.3.1l-2.539.817.886 2.67" transform="matrix(1.3333333 0 0 -1.3333333 76.763067 395.51427)"/></g><path clip-path="url(#am)" d="m0 0c.967 2.337 9.945 8.704 39.415 5.914 0 0 4.977-3.043 7.899-2.65 1.673.222-.977-.101-3.153 1.713-2.227 1.803-2.701 5.51 2.377 5.419 5.048-.131 23.94-1.199 24.302-2.901.332-1.713-9.995-2.428-13.834-2.337-3.858.111-3.405-1.844.434-1.693 11.99.424 25.087 4.655 38.921-5.127 1.642-1.189-4.171-1.38-8.675.534 0 0-12.201-.635-17.471.232 0 0-4.06-3.294-9.34-2.972.686-1.713-1.944-8.099-18.548-3.294-2.741-.846-12.736-2.519-11.647.453-2.63 0-7.244-.846-7.93.645-.665 1.481 8.121 3.707 9.663 5.298 0 0-18.58-.181-22.096 1.099 0 0-10.962-2.458-10.317-.323" fill="#bc715f" transform="matrix(1.3333333 0 0 -1.3333333 91.9564 205.79693)"/><path clip-path="url(#an)" d="m0 0c.393.534.554 1.501 1.401 1.481 1.844-.494 3.093-3.858 5.36-1.672.796.171 1.108-.917 1.773-1.048.423-1.864 1.924.383 3.043.252 2.398 1.068 5.37 1.32 8.211.796.081-1.833-1.35-3.858-3.153-4.906.03-1.843 1.713-3.022 1.682-4.886-.292-.695-.05-1.783-1.098-2.004-1.33.231-2.65.372-3.748 1.118-.141.131-.252.403-.534.312-.131-.614.836-1.229 1.219-1.863-.675-1.139-1.783-.101-2.71-.111-.282-.655-.01-1.481-.685-1.904-1.179.03-1.421 1.319-2.146 1.954-.736-.806.524-1.279.705-1.924-.453-2.407-.393-4.775-2.811-6.356l-1.622-.806c-.444 1.219-.161 3.062-.464 4.332-.957-1.562-1.702-2.922-3.103-4.242-1.642.534-2.599 2.478-2.962 4.08-.685 1.874-.292 4.11 1.179 5.47-.504.977-2.227.756-2.469 2.146-2.579 1.682-4.01-2.942-5.682-.534-.534 2.246.111 5.037 1.733 6.709-.363.917-1.562.675-2.277 1.209-1.622 1.38-3.97 2.83-3.849 5.329 4.443 1.672 9.763.443 12.997-2.932" fill="#008830" transform="matrix(1.3333333 0 0 -1.3333333 99.895867 240.47653)"/><path clip-path="url(#ao)" d="m0 0c-.111-2.035 1.37-.554 2.468-1.793-.856.342-1.481-1.481-2.327-.433l-.524-.504c.302-.705.907-.796.282-1.562-.917-.352-1.108.807-1.531 1.26-.071.201.141.584-.202.715-.514-.443-1.068-.604-1.783-.524-.192.393-.574.907-.192 1.209.705.947 1.804-.343 2.338.322.08.585-.433 1.31.232 1.713.463-.081 1.057.171 1.239-.403" fill="#f9d90f" transform="matrix(1.3333333 0 0 -1.3333333 102.97267 240.14067)"/><path clip-path="url(#ap)" d="m0 0c.05-.393-.202-.947.312-1.219.666.363 1.381.081 1.764-.574 0-.363.111-.826-.363-.997l-1.038.191c.071.212-.262.333-.393.534-.453.141-.725-.231-1.068-.463.252-.393.856-.605.716-1.108-.615-.615-.917.524-1.593.241-.463.172.162 1.129-.564 1.421-.856 0-.282-1.411-1.38-.857-.393.444-.776 1.038-.352 1.532.453.302 1.239.232 1.622-.172.674.746.745 3.607 2.337 1.471" fill="#f9d90f" transform="matrix(1.3333333 0 0 -1.3333333 110.30733 242.3704)"/><path clip-path="url(#aq)" d="m0 0c.443-.645-.101-1.521.473-2.247.897 1.683 1.754-.352 2.821-.201.333-.393.111-.947.172-1.4-1.31-.353-2.902-.766-4.07.292l-.323-.383c.695-.644 1.35-1.37.796-2.448-.988-.211-2.519-.241-3.013.776-.252.846.605 1.45-.302 2.125-.655-.816-.625-1.904-1.995-1.168-.846.463-1.098 1.43-.675 2.236.887 1.4 2.428-.04 3.386.645.13 1.189-.303 2.236.785 2.901.947.161 1.381-.544 1.945-1.128" fill="#f9d90f" transform="matrix(1.3333333 0 0 -1.3333333 101.17253 246.30533)"/><path clip-path="url(#ar)" d="m0 0c-.443-2.035-1.975.11-2.69.191.957 1.703 1.562-.554 2.69-.191" fill="#fff" transform="matrix(1.3333333 0 0 -1.3333333 106.15627 247.28587)"/><path clip-path="url(#as)" d="m0 0c-1.068-.292-.897 1.038-1.421 1.551l.403.383c.393-.474.685-1.309 1.018-1.934" fill="#fff" transform="matrix(1.3333333 0 0 -1.3333333 112.52413 250.24093)"/><path clip-path="url(#at)" d="m0 0c.302-.705-.695-1.27.161-1.793.262.231.595.543.735.675.736-.222 1.583-.343 2.086-1.068.544-1.501-.967-1.461-1.823-1.874l-.857.03c.202.424-.363.595-.504.887-.392.101-.725-.02-.946-.353.191-.957 1.35-1.692.161-2.538-1.018.06-2.59-.333-2.489 1.068-.383.796 1.028 2.014-.483 2.065-.494-1.068-1.039-2.096-2.338-1.088l.161 1.521c1.24-.04 2.7-.252 3.264 1.128.353 1.007-.624 1.934.252 2.73 1.26.292 1.975-.554 2.62-1.39" fill="#f9d90f" transform="matrix(1.3333333 0 0 -1.3333333 110.6028 249.69013)"/><path clip-path="url(#au)" d="m0 0c.312-.756-.544-.806-.947-1.179-.544-.05-.927.171-1.26.534-.241.917.434 1.007.957 1.37.605.252.857-.453 1.25-.725" transform="matrix(1.3333333 0 0 -1.3333333 109.39387 252.73893)"/><path clip-path="url(#av)" d="m0 0c-.131-.182-.322-.121-.524-.171l-.191.906c.403-.03.926-.161.715-.735" fill="#fff" transform="matrix(1.3333333 0 0 -1.3333333 108.39973 253.3972)"/></svg>