<svg height="480" viewBox="0 0 720 480" width="720" xmlns="http://www.w3.org/2000/svg"><path d="m0 .006h540v359.994h-540z" fill="#003893" transform="matrix(1.3333333 0 0 -1.3333333 0 480)"/><path d="m0 0-4.187 69.63-14.601-38.36 6.516 40.506-24.048-33.258 16.799 37.445-31.818-25.905 25.905 31.818-37.445-16.772 33.258 24.021-40.533-6.516 38.361 14.601-69.604 4.187 69.604 4.187-38.361 14.601 40.533-6.516-33.258 24.048 37.445-16.799-25.905 31.819 31.818-25.905-16.799 37.444 24.048-33.258-6.516 40.506 14.601-38.334 4.187 69.604 4.187-69.604 14.601 38.334-6.516-40.506 24.022 33.258-16.799-37.444 31.845 25.905-25.905-31.819 37.444 16.799-33.258-24.048 40.506 6.516-38.36-14.601 69.63-4.187-69.63-4.187 38.36-14.601-40.506 6.516 33.258-24.021-37.444 16.772 25.905-31.818-31.845 25.905 16.799-37.445-24.022 33.258 6.516-40.506-14.601 38.36z" fill="#fff" transform="matrix(1.3333333 0 0 -1.3333333 158.98693 291.50907)"/><g transform="matrix(1.3333333 0 0 -1.3333333 0 456.9516)"><path d="m0 0v-11.521l540 207.361v141.12z" fill="#fff"/><path d="m0 0v-5.76l540 272.16v70.56z" fill="#dd7500"/></g></svg>