<svg height="300" viewBox="0 0 450 300" width="450" xmlns="http://www.w3.org/2000/svg" xmlns:xlink="http://www.w3.org/1999/xlink"><clipPath id="a"><path d="m0 0h337.5v225h-337.5z" transform="translate(-205.79301 -119.5308)"/></clipPath><clipPath id="b"><path d="m0 0h337.5v225h-337.5z" transform="translate(-137.52 -113.00001)"/></clipPath><clipPath id="c"><path d="m0 0h337.5v225h-337.5z" transform="translate(-199.7695 -113.00001)"/></clipPath><clipPath id="d"><path d="m0 0h337.5v225h-337.5z"/></clipPath><clipPath id="e"><path d="m0 0h337.5v225h-337.5z" transform="translate(56.250001 -32.644501)"/></clipPath><clipPath id="f"><path d="m0 0h337.5v225h-337.5z" transform="translate(-178.9492 -188.1021)"/></clipPath><clipPath id="g"><path d="m0 0h337.5v225h-337.5z" transform="translate(-145.82421 -192.02001)"/></clipPath><clipPath id="h"><path d="m0 0h337.5v225h-337.5z" transform="translate(-165.12111 -194.84811)"/></clipPath><clipPath id="i"><path d="m0 0h337.5v225h-337.5z" transform="translate(-159.9492 -190.08201)"/></clipPath><clipPath id="j"><path d="m0 0h337.5v225h-337.5z" transform="translate(-162.98001 -193.9219)"/></clipPath><clipPath id="k"><path d="m0 0h337.5v225h-337.5z" transform="translate(-158.65191 -195.1719)"/></clipPath><clipPath id="l"><path d="m0 0h337.5v225h-337.5z" transform="translate(-134.7232 -194.125)"/></clipPath><clipPath id="m"><path d="m0 0h337.5v225h-337.5z" transform="translate(-148.7769 -195.1719)"/></clipPath><clipPath id="n"><path d="m0 0h337.5v225h-337.5z" transform="translate(56.250001 -96.929702)"/></clipPath><clipPath id="o"><path d="m0 0h337.5v225h-337.5z" transform="translate(56.250001 -64.785204)"/></clipPath><path d="m0 .5h337.5v224.5h-337.5z" fill="#ce1126" transform="matrix(1.3333333 0 0 -1.3333333 0 300)"/><g fill="#fcd116" stroke="#bd9c08"><path clip-path="url(#a)" d="m0 0c6.57-1.758 16.508-1.32 20.973-6.531-6.571 1.762-14.664-8.859-20.973-6.531 5.57-3.902-81.031 0-74.086 0-6.57 1.758-16.508 1.32-20.973 6.531 6.571-1.761 14.664 8.859 20.973 6.531-5.57 3.903-15.234 6.922-17.473 13.313 5.571-3.903 16.903 3.336 21.942-1.035-3.903 5.57-12.055 11.683-11.867 18.484 3.898-5.57 17.027-2.59 20.261-8.481-1.758 6.571-7.058 15.04-4.828 21.43 1.762-6.566 14.981-8.199 16.145-14.894.59 6.773-1.801 16.578 2.789 21.785-.594-6.774 11.347-12.821 10.074-19.52 2.875 6.164 4.461 16.121 10.074 19.52-2.875-6.16 6.5-15.899 2.789-21.785 4.809 4.808 9.449 13.714 16.145 14.894-4.809-4.808.32-17.058-4.828-21.43 6.16 2.876 13.433 9.661 20.261 8.481-6.164-2.875-5.55-16.16-11.867-18.484 6.774.589 15.879 4.433 21.942 1.035-6.774-.594-10.528-13.313-17.473-13.313" fill-rule="evenodd" stroke-width="1.125" transform="matrix(1.3333333 0 0 -1.3333333 274.39067 140.6256)"/><path clip-path="url(#b)" d="m0 0-23.692 9.684 25.574.996-18.949 17.203 24.371-7.809-11.922 22.645 20.231-15.676-3.457 25.359 13.648-21.648 5.426 25.012 5.422-25.012 13.648 21.648-3.457-25.359 20.231 15.676-11.922-22.645 24.371 7.809-18.949-17.203 25.574-.996-23.691-9.684 23.691-9.684h-109.84z" fill-rule="evenodd" stroke-linejoin="round" stroke-width="1.125" transform="matrix(1.3333333 0 0 -1.3333333 183.36 149.33333)"/><path clip-path="url(#c)" d="m0 0c0-17.129-13.891-31.02-31.02-31.02-17.132 0-31.02 13.891-31.02 31.02 0 17.133 13.888 31.02 31.02 31.02 17.129 0 31.02-13.887 31.02-31.02" stroke-linecap="round" stroke-width="1.35" transform="matrix(1.3333333 0 0 -1.3333333 266.35933 149.33333)"/></g><path clip-path="url(#d)" d="m-56.25 101.75h450v-101.25h-450z" fill="#003f87" transform="matrix(1.3333333 0 0 -1.3333333 0 300)"/><g fill-rule="evenodd"><path clip-path="url(#e)" d="m0 0c15 0 30-9.645 45-9.645s30 9.645 45 9.645 30-9.645 45-9.645 30 9.645 45 9.645 30-9.645 45-9.645 30 9.645 45 9.645 30-9.645 45-9.645 30 9.645 45 9.645 30-9.645 45-9.645 30 9.645 45 9.645v16.07c-15 0-30-9.644-45-9.644s-30 9.644-45 9.644-30-9.644-45-9.644-30 9.644-45 9.644-30-9.644-45-9.644-30 9.644-45 9.644-30-9.644-45-9.644-30 9.644-45 9.644-30-9.644-45-9.644-30 9.644-45 9.644z" fill="#fff" transform="matrix(1.3333333 0 0 -1.3333333 -75 256.474)"/><g fill="#fcd116"><g stroke="#bd9c08" stroke-width=".9"><path clip-path="url(#f)" d="m0 0 16.633-.11c.109.703-1.426 2.106-2.731 2.309-4.211.664-7.371-.699-12.48-.754z" transform="matrix(1.3333333 0 0 -1.3333333 238.59893 49.1972)"/><path clip-path="url(#g)" d="m0 0c3.906-4.938 11.477-8.368 18.711-8.411 9.75-.062 20.562 7.829 33.641 10.246l-42.688.879c-5.523 3.782-9.715 3.305-12.574.957l-8.16-.246c-1.156-.629.953-3.257 2.664-3.355z" transform="matrix(1.3333333 0 0 -1.3333333 194.43227 43.973333)"/><path clip-path="url(#h)" d="m0 0c-1.555 7.14-7.281 10.214-14.168 11.129-7.957 1.054-26.269 2.136-38.43 5.628 5.262-5.175 16.282-7.757 23.938-8.929 8.105-1.235 16-3.039 22.254-7.762z" transform="matrix(1.3333333 0 0 -1.3333333 220.16147 40.202533)"/></g><path clip-path="url(#i)" d="m0 0c2.547-3.262 6.492-3.078 10.734-.23 4.231 2.839 8.825 10.836 11.047 10.968 15.52.903 34.293 7.45 43.246 12.512-11.351-1.609-22.605-3.434-34.058-3.477-19.535-.078-21.848-8.976-29.809-15.214" transform="matrix(1.3333333 0 0 -1.3333333 213.2656 46.557333)"/></g></g><g fill="none" stroke="#bd9c08" stroke-width=".9"><path clip-path="url(#j)" d="m0 0c4.165 2.652 7.551 6.113 11.45 9.004 6.453 4.789 13.91 4.929 21.918 5.027 7.093.086 19.531 3.051 26.281 4.633m-62.68-22.504c2.547-3.262 6.492-3.078 10.735-.23 4.23 2.839 8.824 10.836 11.046 10.968 15.52.903 34.293 7.45 43.247 12.512-11.352-1.609-22.606-3.434-34.059-3.477-19.535-.078-21.848-8.976-29.809-15.214" stroke-linecap="round" transform="matrix(1.3333333 0 0 -1.3333333 217.30667 41.437467)"/><path clip-path="url(#k)" d="m0 0c-1.23 6.383-7.203 8.301-14.754 9.445-8.21 1.25-16.586 1.942-24.777 4.207-2.031.563-3.926 1.551-5.887 2.328" transform="matrix(1.3333333 0 0 -1.3333333 211.53587 39.7708)"/><path clip-path="url(#l)" d="m0 0h9.722m16.821-8.363c7.707-.563 13.433 1.754 20.007 5.031" stroke-linecap="round" transform="matrix(1.3333333 0 0 -1.3333333 179.63093 41.166667)"/></g><path clip-path="url(#m)" d="m0 0c0-.672-.543-1.215-1.215-1.215-.671 0-1.214.543-1.214 1.215s.543 1.215 1.214 1.215c.672 0 1.215-.543 1.215-1.215" fill="#bd9c08" transform="matrix(1.3333333 0 0 -1.3333333 198.3692 39.7708)"/><g fill="#fff" fill-rule="evenodd"><path clip-path="url(#n)" d="m0 0c15 0 30-9.645 45-9.645s30 9.645 45 9.645 30-9.645 45-9.645 30 9.645 45 9.645 30-9.645 45-9.645 30 9.645 45 9.645 30-9.645 45-9.645 30 9.645 45 9.645 30-9.645 45-9.645 30 9.645 45 9.645v16.07c-15 0-30-9.644-45-9.644s-30 9.644-45 9.644-30-9.644-45-9.644-30 9.644-45 9.644-30-9.644-45-9.644-30 9.644-45 9.644-30-9.644-45-9.644-30 9.644-45 9.644-30-9.644-45-9.644-30 9.644-45 9.644z" transform="matrix(1.3333333 0 0 -1.3333333 -75 170.7604)"/><path clip-path="url(#o)" d="m0 0c15 0 30-9.641 45-9.641s30 9.641 45 9.641 30-9.641 45-9.641 30 9.641 45 9.641 30-9.641 45-9.641 30 9.641 45 9.641 30-9.641 45-9.641 30 9.641 45 9.641 30-9.641 45-9.641 30 9.641 45 9.641v16.07c-15 0-30-9.64-45-9.64s-30 9.64-45 9.64-30-9.64-45-9.64-30 9.64-45 9.64-30-9.64-45-9.64-30 9.64-45 9.64-30-9.64-45-9.64-30 9.64-45 9.64-30-9.64-45-9.64-30 9.64-45 9.64z" transform="matrix(1.3333333 0 0 -1.3333333 -75 213.61973)"/></g></svg>