<svg height="800" viewBox="0 0 1200 800" width="1200" xmlns="http://www.w3.org/2000/svg" xmlns:xlink="http://www.w3.org/1999/xlink"><clipPath id="a"><path d="m0 0h900v600h-900z" transform="translate(-450.00001 -568.75001)"/></clipPath><clipPath id="b"><path d="m0 0h900v600h-900z" transform="translate(-450.00001 -612.50002)"/></clipPath><clipPath id="c"><path d="m0 0h900v600h-900z" transform="translate(-450.00001 -500.00002)"/></clipPath><clipPath id="d"><path d="m0 0h900v600h-900z" transform="translate(-450.00001 -500.00002)"/></clipPath><clipPath id="e"><path d="m0 0h900v600h-900z" transform="translate(-521.32912 -448.17631)"/></clipPath><clipPath id="f"><path d="m0 0h900v600h-900z" transform="translate(-521.32912 -448.17631)"/></clipPath><clipPath id="g"><path d="m0 0h900v600h-900z" transform="translate(-494.08401 -364.32371)"/></clipPath><clipPath id="h"><path d="m0 0h900v600h-900z" transform="translate(-494.08401 -364.32371)"/></clipPath><clipPath id="i"><path d="m0 0h900v600h-900z" transform="translate(-405.91601 -364.32371)"/></clipPath><clipPath id="j"><path d="m0 0h900v600h-900z" transform="translate(-405.91601 -364.32371)"/></clipPath><clipPath id="k"><path d="m0 0h900v600h-900z" transform="translate(-378.67091 -448.17631)"/></clipPath><clipPath id="l"><path d="m0 0h900v600h-900z" transform="translate(-378.67091 -448.17631)"/></clipPath><path d="m0 0h900v600h-900z" fill="#006233" transform="matrix(1.3333333 0 0 -1.3333333 0 800)"/><path clip-path="url(#a)" d="m0 0c107.005 0 193.75-86.745 193.75-193.75s-86.745-193.75-193.75-193.75-193.75 86.745-193.75 193.75 86.745 193.75 193.75 193.75" fill="#ffc400" transform="matrix(1.3333333 0 0 -1.3333333 600 41.666667)"/><path clip-path="url(#b)" d="m0 0c103.554 0 187.5-83.947 187.5-187.5s-83.946-187.5-187.5-187.5c-103.553 0-187.5 83.947-187.5 187.5s83.947 187.5 187.5 187.5" fill="#006233" transform="matrix(1.3333333 0 0 -1.3333333 600 -16.666667)"/><g fill="#ffc400"><path clip-path="url(#c)" d="m0 0-23.176-71.329 35.664-11.588" transform="matrix(1.3333333 0 0 -1.3333333 600 133.33333)"/><path clip-path="url(#d)" d="m0 0 23.177-71.329-35.665-11.588" transform="matrix(1.3333333 0 0 -1.3333333 600 133.33333)"/><path clip-path="url(#e)" d="m0 0h-75v-37.5" transform="matrix(1.3333333 0 0 -1.3333333 695.10547 202.4316)"/><path clip-path="url(#f)" d="m0 0-60.676-44.084-22.042 30.338" transform="matrix(1.3333333 0 0 -1.3333333 695.10547 202.4316)"/><path clip-path="url(#g)" d="m0 0-23.177 71.329-35.664-11.588" transform="matrix(1.3333333 0 0 -1.3333333 658.77867 314.23507)"/><path clip-path="url(#h)" d="m0 0-60.676 44.084 22.041 30.338" transform="matrix(1.3333333 0 0 -1.3333333 658.77867 314.23507)"/><path clip-path="url(#i)" d="m0 0 60.677 44.084-22.043 30.338" transform="matrix(1.3333333 0 0 -1.3333333 541.22133 314.23507)"/><path clip-path="url(#j)" d="m0 0 23.176 71.329 35.665-11.588" transform="matrix(1.3333333 0 0 -1.3333333 541.22133 314.23507)"/><path clip-path="url(#k)" d="m0 0 60.676-44.084 22.042 30.338" transform="matrix(1.3333333 0 0 -1.3333333 504.89453 202.4316)"/><path clip-path="url(#l)" d="m0 0h75v-37.5" transform="matrix(1.3333333 0 0 -1.3333333 504.89453 202.4316)"/></g></svg>