<?xml version="1.0" encoding="UTF-8" standalone="no"?>
<svg
   fill="none"
   height="500"
   viewBox="0 0 500 500"
   width="500"
   version="1.1"
   id="svg2"
   sodipodi:docname="square.svg"
   inkscape:version="1.4 (e7c3feb1, 2024-10-09)"
   xmlns:inkscape="http://www.inkscape.org/namespaces/inkscape"
   xmlns:sodipodi="http://sodipodi.sourceforge.net/DTD/sodipodi-0.dtd"
   xmlns="http://www.w3.org/2000/svg"
   xmlns:svg="http://www.w3.org/2000/svg">
  <defs
     id="defs2" />
  <sodipodi:namedview
     id="namedview2"
     pagecolor="#ffffff"
     bordercolor="#000000"
     borderopacity="0.25"
     inkscape:showpageshadow="2"
     inkscape:pageopacity="0.0"
     inkscape:pagecheckerboard="0"
     inkscape:deskcolor="#d1d1d1"
     inkscape:current-layer="svg2" />
  <path
     d="M 0,0 H 500 V 500 H 0 Z"
     fill="#0043ff"
     stroke-linecap="round"
     stroke-linejoin="round"
     stroke-width="17.1473"
     id="path1" />
  <path
     d="m 303.26705,244.31818 c 0,12.31818 -0.66591,24.19205 -1.83069,35.51137 H 198.56364 c -1.22046,-11.31932 -1.83069,-23.19319 -1.83069,-35.51137 0,-12.31818 0.66591,-24.19204 1.83069,-35.51136 h 102.87272 c 1.22046,11.31932 1.83069,23.19318 1.83069,35.51136 z m 15.97954,-35.51136 h 68.30455 c 2.94091,11.375 4.49431,23.24886 4.49431,35.51136 0,12.2625 -1.5534,24.13637 -4.49431,35.51137 h -68.30455 c 1.16591,-11.43069 1.77614,-23.30455 1.77614,-35.51137 0,-12.20682 -0.61023,-24.08068 -1.77614,-35.51136 z M 381.725,191.05114 h -64.75227 c -5.54887,-35.45569 -16.53523,-65.14091 -30.68409,-84.1175 43.44545,11.48568 78.79091,43.00159 95.38068,84.1175 z m -82.73068,0 h -97.98864 c 3.38409,-20.19659 8.6,-38.06364 14.98068,-52.54546 5.82614,-13.09545 12.31819,-22.58295 18.58864,-28.57579 6.21477,-5.88159 11.375,-7.65716 15.425,-7.65716 4.05,0 9.21023,1.77557 15.425,7.65716 6.27045,5.99284 12.7625,15.48034 18.58864,28.57579 6.43636,14.42614 11.59659,32.29318 14.98068,52.54546 z m -115.96705,0 H 118.275 c 16.64545,-41.11591 51.93523,-72.63182 95.43636,-84.1175 -14.14886,18.97659 -25.13522,48.66181 -30.68409,84.1175 z m -70.57841,17.75568 h 68.30341 c -1.16477,11.43068 -1.775,23.30454 -1.775,35.51136 0,12.20682 0.61023,24.08068 1.775,35.51137 h -68.30341 c -2.94091,-11.375 -4.49431,-23.24887 -4.49431,-35.51137 0,-12.2625 1.5534,-24.13636 4.49431,-35.51136 z M 215.98636,350.075 C 209.55,335.64886 204.38977,317.78182 201.00568,297.58523 h 97.98864 c -3.38409,20.19659 -8.6,38.06363 -14.98068,52.48977 -5.82614,13.09545 -12.31819,22.58295 -18.58864,28.57614 -6.21477,5.9375 -11.375,7.7125 -15.425,7.7125 -4.05,0 -9.21023,-1.775 -15.425,-7.65682 -6.27045,-5.99318 -12.7625,-15.48068 -18.58864,-28.57614 z m -32.95909,-52.48977 c 5.54887,35.45568 16.53523,65.14091 30.68409,84.11704 -43.50113,-11.48522 -78.79091,-43.00113 -95.43636,-84.11704 z m 198.69773,0 c -16.64545,41.11591 -51.93523,72.63182 -95.38182,84.11704 14.15,-18.97613 25.08068,-48.66136 30.68409,-84.11704 z"
     fill="#ffffff"
     stroke-width="11.3636"
     id="path2" />
</svg>
