<svg height="800" viewBox="0 0 800 800" width="800" xmlns="http://www.w3.org/2000/svg" xmlns:xlink="http://www.w3.org/1999/xlink"><clipPath id="a"><path d="m0 600h900v-600h-900z" transform="translate(-325.19241 -383.20511)"/></clipPath><clipPath id="b"><path d="m0 600h900v-600h-900z" transform="translate(-325.19241 -383.20511)"/></clipPath><clipPath id="c"><path d="m0 600h900v-600h-900z" transform="translate(-293.99071 -105.8545)"/></clipPath><clipPath id="d"><path d="m0 600h900v-600h-900z" transform="translate(-283.17381 -98.643602)"/></clipPath><clipPath id="e"><path d="m0 600h900v-600h-900z" transform="translate(-751.61822 -410.93991)"/></clipPath><clipPath id="f"><path d="m0 600h900v-600h-900z" transform="translate(-740.80182 -403.72901)"/></clipPath><clipPath id="g"><path d="m0 600h900v-600h-900z" transform="translate(-694.41502 -462.94341)"/></clipPath><clipPath id="h"><path d="m0 600h900v-600h-900z" transform="translate(-701.62602 -452.12701)"/></clipPath><path d="m0 799.99998h800v-799.99998h-800z" fill="#fff" stroke-width="1.08866"/><g stroke-width="1.33333" transform="translate(41.02507)"><path d="m81.04747 307.55013 110.94-166.41066m-152.54267 138.67599 110.94-166.41066m-152.54266 138.67466 110.94-166.409324"/><path d="m11.7096 261.32493-27.73467-18.48933 110.94-166.410665 27.736 18.489332zm41.60267 27.73467-27.736-18.48934 110.94133-166.41066 27.73466 18.49067zm41.60266 27.736-27.73466-18.49067 110.93999-166.40933 27.73467 18.48933z"/></g><g stroke-width="1.33333" transform="translate(-41.0243)"><path d="m691.21747 714.33067 110.94003-166.41066m-152.5427 138.67466 110.94-166.40933m-152.54133 138.67466 110.94-166.40932"/><path d="m621.88027 668.10547-27.73467-18.48933 110.94-166.41067 27.73467 18.48934zm41.60133 27.73467-27.73466-18.48934 110.93999-166.41066 27.73467 18.48933zm41.60267 27.736-27.73333-18.49067 110.93999-166.40933 27.73337 18.48933z"/><path d="m635.74733 557.16533 138.676 92.44933"/><path d="m765.1784 663.48173-138.676-92.44933 18.48934-27.73467 138.67599 92.44933z" fill="#fff"/></g><path clip-path="url(#a)" d="m0 0c45.953 68.929 139.083 87.555 208.013 41.603 68.929-45.954 87.555-139.083 41.602-208.013s-139.083-87.556-208.012-41.603c-68.93 45.953-87.556 139.084-41.603 208.013" fill="#c60c30" transform="matrix(1.3333333 0 0 -1.3333333 233.58987 289.05987)"/><path clip-path="url(#b)" d="m0 0c-22.977-34.465-13.663-81.03 20.801-104.006 34.465-22.976 81.03-13.664 104.007 20.801 22.976 34.465 69.542 43.778 104.005 20.801 34.465-22.976 43.779-69.541 20.802-104.006-45.953-68.93-139.083-87.556-208.012-41.603-68.93 45.953-87.556 139.084-41.603 208.013" fill="#003478" transform="matrix(1.3333333 0 0 -1.3333333 233.58987 289.05987)"/><path clip-path="url(#g)" d="m0 0 31.201 20.801m-98.805-65.87 36.402 24.268m-457.628-305.086 31.202 20.802" transform="matrix(1.3333333 0 0 -1.3333333 725.88667 182.74213)"/><path clip-path="url(#c)" d="m0 0-83.205 124.808m52.003-145.609-83.205 124.808m52.003-145.61-83.205 124.808" transform="matrix(1.3333333 0 0 -1.3333333 233.56653 658.86067)"/><path clip-path="url(#d)" d="m0 0-83.205 124.808 21.633 14.421 83.206-124.807zm-31.202-20.801-83.205 124.808 21.634 14.422 83.204-124.808zm-31.202-20.802-83.204 124.808 21.633 14.422 83.204-124.808z" transform="matrix(1.3333333 0 0 -1.3333333 219.144 668.4752)"/><path clip-path="url(#h)" d="m-488.829-325.887-14.423 21.633 31.202 20.802 14.423-21.633z" fill="#fff" transform="matrix(1.3333333 0 0 -1.3333333 777.08026 197.164)"/><g transform="translate(-41.57973)"><path clip-path="url(#e)" d="m0 0-83.205 124.808m52.003-145.609-83.205 124.807m52.004-145.609-83.205 124.808" transform="matrix(1.3333333 0 0 -1.3333333 802.1576 252.08013)"/><path clip-path="url(#f)" d="m0 0-83.205 124.808 21.633 14.421 83.205-124.807zm-31.202-20.801-83.205 124.807 21.633 14.422 83.205-124.807zm-31.201-20.802-83.205 124.808 21.632 14.422 83.205-124.808z" transform="matrix(1.3333333 0 0 -1.3333333 787.73573 261.69467)"/><path d="m738.96905 194.85294-19.22933-28.844 41.6013-27.73467 19.2294 28.844zm-90.13866 60.09333-19.22934-28.84533 48.536-32.35734 19.22933 28.84534z" fill="#fff" stroke-width="1.33333"/></g></svg>