<?xml version="1.0" encoding="UTF-8" standalone="no"?>
<svg
   version="1.0"
   width="96"
   height="96"
   viewBox="-2100 -1470 96 96"
   xml:space="preserve"
   id="svg145"
   sodipodi:docname="square_v3.svg"
   inkscape:version="1.2.2 (732a01da63, 2022-12-09)"
   inkscape:export-filename="square_v6.svg"
   inkscape:export-xdpi="96"
   inkscape:export-ydpi="96"
   xmlns:inkscape="http://www.inkscape.org/namespaces/inkscape"
   xmlns:sodipodi="http://sodipodi.sourceforge.net/DTD/sodipodi-0.dtd"
   xmlns:xlink="http://www.w3.org/1999/xlink"
   xmlns="http://www.w3.org/2000/svg"
   xmlns:svg="http://www.w3.org/2000/svg"><sodipodi:namedview
   id="namedview18"
   pagecolor="#505050"
   bordercolor="#eeeeee"
   borderopacity="1"
   inkscape:showpageshadow="0"
   inkscape:pageopacity="0"
   inkscape:pagecheckerboard="0"
   inkscape:deskcolor="#505050"
   showgrid="false"
   inkscape:zoom="7.5719351"
   inkscape:cx="34.469392"
   inkscape:cy="33.809059"
   inkscape:window-width="2560"
   inkscape:window-height="1377"
   inkscape:window-x="1912"
   inkscape:window-y="-8"
   inkscape:window-maximized="1"
   inkscape:current-layer="svg145"><inkscape:grid
     type="xygrid"
     id="grid801"
     empspacing="6" /></sodipodi:namedview>
  <defs
   id="defs41"><linearGradient
     id="linearGradient19459"
     inkscape:swatch="solid"><stop
       style="stop-color:#ffffff;stop-opacity:1;"
       offset="0"
       id="stop19457" /></linearGradient><linearGradient
     id="linearGradient19426"><stop
       style="stop-color:#ffffff;stop-opacity:1;"
       offset="0"
       id="stop19424" /></linearGradient><linearGradient
     id="linearGradient3379"><stop
       style="stop-color:#000000;stop-opacity:1;"
       offset="0"
       id="stop3377" /></linearGradient><linearGradient
     id="linearGradient3373"
     inkscape:swatch="solid"><stop
       style="stop-color:#221177;stop-opacity:1;"
       offset="0"
       id="stop3371" /></linearGradient><g
     id="a"
     fill="#fff">
      <g
   id="e">
        <path
   id="d"
   transform="rotate(18,3.157,-0.5)"
   d="M 0,0 V 1 H 0.5 Z" />
        <use
   xlink:href="#d"
   transform="scale(-1,1)"
   id="use29" />
      </g>
      <use
   xlink:href="#e"
   transform="rotate(72)"
   id="use32" />
      <use
   xlink:href="#e"
   transform="rotate(-72)"
   id="use34" />
      <use
   xlink:href="#e"
   transform="rotate(144)"
   id="use36" />
      <use
   xlink:href="#e"
   transform="rotate(-144)"
   id="use38" />
    </g><path
     id="c"
     d="M0 0a31.5 35 0 0 0 0-70A31.5 35 0 0 0 0 0m0-13a18.5 22 0 0 0 0-44 18.5 22 0 0 0 0 44"
     fill-rule="evenodd" /><path
     id="h"
     d="M-31.5 0h33a30 30 0 0 0 30-30v-10a30 30 0 0 0-30-30h-33zm13-13h19a19 19 0 0 0 19-19v-6a19 19 0 0 0-19-19h-19z"
     fill-rule="evenodd" /><path
     id="j"
     d="M0 0h63v-13H12v-18h40v-12H12v-14h48v-13H0z"
     transform="translate(-31.5)" /><path
     id="k"
     d="M-31.5 0h12v-48l14 48h11l14-48V0h12v-70H14L0-22l-14-48h-17.5z" /><path
     id="m"
     d="M-26.25 0h52.5v-12h-40.5v-16h33v-12h-33v-11H25v-12h-51.25z" /><path
     id="b"
     d="M-31.5 0h13v-26h28a22 22 0 0 0 0-44h-40zm13-39h27a9 9 0 0 0 0-18h-27z"
     fill-rule="evenodd" /><path
     id="q"
     d="M-15.75-22C-15.75-15-9-11.5 1-11.5s14.74-3.25 14.75-7.75c0-14.25-46.75-5.25-46.5-30.25C-30.5-71-6-70 3-70s26 4 25.75 21.25H13.5c0-7.5-7-10.25-15-10.25-7.75 0-13.25 1.25-13.25 8.5-.25 11.75 46.25 4 46.25 28.75C31.5-3.5 13.5 0 0 0c-11.5 0-31.55-4.5-31.5-22z" /><use
     id="s"
     xlink:href="#a-2"
     transform="scale(31.5)" /><use
     id="v"
     xlink:href="#a-2"
     transform="scale(26.25)" /><use
     id="t"
     xlink:href="#a-2"
     transform="scale(21)" /><use
     id="u"
     xlink:href="#a-2"
     transform="scale(15)" /><use
     id="x"
     xlink:href="#a-2"
     transform="scale(10.5)" /><g
     id="f">
      <use
   xlink:href="#b"
   id="use1225" />
      <path
   d="M28 0c0-10 0-32-15-32H-6c22 0 22 22 22 32"
   id="path1227" />
    </g><g
     id="p">
      <use
   xlink:href="#c"
   id="use1230" />
      <path
   d="M5-35h26.5v10H5z"
   id="path1232" />
      <path
   d="M21.5-35h10V0h-10z"
   id="path1234" />
      <path
   fill="#fff"
   d="M0-47h40v12H0z"
   id="path1236" />
    </g><g
     id="a-2"
     fill="#fff">
      <g
   id="e-2">
        <path
   id="d-5"
   transform="rotate(18 3.157 -.5)"
   d="M0 0v1h.5z" />
        <use
   xlink:href="#d-5"
   transform="scale(-1 1)"
   id="use1240" />
      </g>
      <use
   xlink:href="#e-2"
   transform="rotate(72)"
   id="use1243" />
      <use
   xlink:href="#e-2"
   transform="rotate(-72)"
   id="use1245" />
      <use
   xlink:href="#e-2"
   transform="rotate(144)"
   id="use1247" />
      <use
   xlink:href="#e-2"
   transform="rotate(-144)"
   id="use1249" />
    </g><linearGradient
     inkscape:collect="always"
     xlink:href="#linearGradient3373"
     id="linearGradient3381"
     x1="-2112"
     y1="-1380"
     x2="-2016"
     y2="-1380"
     gradientUnits="userSpaceOnUse" /><linearGradient
     inkscape:collect="always"
     xlink:href="#linearGradient3373"
     id="linearGradient19428"
     x1="-2100"
     y1="-1422"
     x2="-2004"
     y2="-1422"
     gradientUnits="userSpaceOnUse" /><linearGradient
     inkscape:collect="always"
     xlink:href="#linearGradient19459"
     id="linearGradient19461"
     x1="-2115"
     y1="-1380"
     x2="-2013"
     y2="-1380"
     gradientUnits="userSpaceOnUse" /><clipPath
     clipPathUnits="userSpaceOnUse"
     id="clipPath19585"><path
       style="font-variation-settings:'wght' 700;fill:#ffffff;fill-opacity:1;stroke-width:0;stroke-linecap:square"
       d="m -2052,-1452 30,30 -30,30 -30,-30 z"
       id="path19587" /></clipPath></defs>
  <path
   style="fill:#084;stroke-width:6;stroke-linecap:square"
   d="m -2100,-1470 h 96 v 96 h -96 z"
   id="path43" />
  
  
<g
   id="g2641"
   style="display:inline"
   clip-path="url(#clipPath19585)"><rect
     style="font-variation-settings:'wght' 700;fill:url(#linearGradient19428);fill-opacity:1;stroke-width:0;stroke-linecap:square"
     id="rect19422"
     width="96"
     height="96"
     x="-2100"
     y="-1470" /><circle
     style="font-variation-settings:'wght' 700;fill:url(#linearGradient19461);fill-opacity:1;stroke-width:0;stroke-linecap:square"
     id="circle2643"
     cx="-2064"
     cy="-1380"
     r="51" /><circle
     style="font-variation-settings:'wght' 700;fill:url(#linearGradient3381);fill-opacity:1;stroke-width:0;stroke-linecap:square"
     id="path2584"
     cx="-2064"
     cy="-1380"
     r="48" /></g><path
   id="path19415"
   style="fill:#ffcc00;fill-opacity:1;stroke-width:6;stroke-linecap:square"
   d="M -2052 -1462 L -2092 -1422 L -2052 -1382 L -2012 -1422 L -2052 -1462 z M -2052 -1442 A 20 20 0 0 1 -2032 -1422 A 20 20 0 0 1 -2052 -1402 A 20 20 0 0 1 -2072 -1422 A 20 20 0 0 1 -2052 -1442 z " /></svg>
