<?xml version="1.0" encoding="UTF-8" standalone="no"?>
<svg
   width="144"
   height="96"
   viewBox="0 0 144 96"
   version="1.1"
   id="svg3"
   sodipodi:docname="rect_v9.svg"
   inkscape:version="1.4.2 (ebf0e940d0, 2025-05-08)"
   inkscape:export-filename="rect_v9.png"
   inkscape:export-xdpi="96"
   inkscape:export-ydpi="96"
   xmlns:inkscape="http://www.inkscape.org/namespaces/inkscape"
   xmlns:sodipodi="http://sodipodi.sourceforge.net/DTD/sodipodi-0.dtd"
   xmlns="http://www.w3.org/2000/svg"
   xmlns:svg="http://www.w3.org/2000/svg">
  <defs
     id="defs3">
    <inkscape:path-effect
       effect="fillet_chamfer"
       id="path-effect14"
       is_visible="true"
       lpeversion="1"
       nodesatellites_param="F,0,0,1,0,1.3333333,0,1 @ F,0,0,1,0,0.66666667,0,1 @ F,0,0,1,0,0.66666667,0,1 @ F,0,0,1,0,0.33333333,0,1 @ F,0,0,1,0,0.33333333,0,1 @ F,0,0,1,0,0.66666667,0,1 @ F,0,0,1,0,0.66666667,0,1 @ F,0,0,1,0,0.33333333,0,1 @ F,0,0,1,0,0.33333333,0,1 @ F,0,0,1,0,0.66666667,0,1 @ F,0,0,1,0,0.66666667,0,1 @ F,0,0,1,0,0.33333333,0,1 @ F,0,0,1,0,0.33333333,0,1 @ F,0,0,1,0,0.66666667,0,1 @ F,0,0,1,0,0.66666667,0,1 @ F,0,0,1,0,0.33333333,0,1 @ F,0,0,1,0,0.33333333,0,1 @ F,0,1,1,0,1.3333333,0,1 @ F,0,0,1,0,0.66666667,0,1 @ F,0,0,1,0,0.66666667,0,1 @ F,0,0,1,0,1.3333333,0,1 @ F,0,0,1,0,1.3333333,0,1 @ F,0,0,1,0,1.3333333,0,1"
       radius="2"
       unit="px"
       method="auto"
       mode="F"
       chamfer_steps="1"
       flexible="false"
       use_knot_distance="true"
       apply_no_radius="true"
       apply_with_radius="true"
       only_selected="true"
       hide_knots="false" />
    <inkscape:path-effect
       effect="fillet_chamfer"
       id="path-effect11"
       is_visible="true"
       lpeversion="1"
       nodesatellites_param="F,0,0,1,0,0,0,1 @ F,0,0,1,0,0,0,1 @ F,0,0,1,0,0,0,1 @ F,0,1,1,0,0,0,1 @ F,0,1,1,0,0,0,1 @ F,0,0,1,0,0,0,1 @ F,0,0,1,0,0,0,1 @ F,0,0,1,0,0,0,1 @ F,0,0,1,0,0,0,1 @ F,0,0,1,0,0,0,1 @ F,0,0,1,0,0,0,1 @ F,0,0,1,0,0,0,1 @ F,0,0,1,0,0,0,1 @ F,0,0,1,0,0,0,1 @ F,0,0,1,0,0,0,1 @ F,0,0,1,0,0,0,1 @ F,0,0,1,0,0,0,1 @ F,0,0,1,0,0,0,1 @ F,0,0,1,0,0,0,1 @ F,0,0,1,0,0,0,1 @ F,0,0,1,0,0,0,1 @ F,0,0,1,0,0,0,1"
       radius="1"
       unit="px"
       method="auto"
       mode="F"
       chamfer_steps="1"
       flexible="false"
       use_knot_distance="true"
       apply_no_radius="true"
       apply_with_radius="true"
       only_selected="true"
       hide_knots="false" />
  </defs>
  <sodipodi:namedview
     id="namedview3"
     pagecolor="#333333"
     bordercolor="#000000"
     borderopacity="0.25"
     inkscape:showpageshadow="2"
     inkscape:pageopacity="0.0"
     inkscape:pagecheckerboard="0"
     inkscape:deskcolor="#333333"
     showgrid="false"
     inkscape:zoom="11.313708"
     inkscape:cx="60.104077"
     inkscape:cy="55.507882"
     inkscape:window-width="2560"
     inkscape:window-height="1368"
     inkscape:window-x="1920"
     inkscape:window-y="0"
     inkscape:window-maximized="1"
     inkscape:current-layer="svg3">
    <inkscape:grid
       id="grid3"
       units="px"
       originx="0"
       originy="0"
       spacingx="1"
       spacingy="1"
       empcolor="#0099e5"
       empopacity="0.30196078"
       color="#0099e5"
       opacity="0.14901961"
       empspacing="8"
       enabled="true"
       visible="false" />
  </sodipodi:namedview>
  <rect
     fill="#ffffff"
     width="144"
     height="96"
     id="rect1"
     x="0"
     y="0"
     style="display:inline" />
  <g
     fill="#cc1122"
     id="g3"
     style="display:inline">
    <rect
       width="24"
       height="96"
       x="60"
       id="rect2"
       y="0" />
    <rect
       width="144"
       height="24"
       y="36"
       id="rect3"
       x="0" />
  </g>
  <g
     id="g11"
     style="display:inline">
    <path
       id="path13"
       style="display:inline;fill:#ffffff;fill-opacity:1;stroke:#111111;stroke-width:4;stroke-linecap:square;stroke-linejoin:miter;stroke-dasharray:none;stroke-opacity:1;paint-order:stroke fill markers"
       d="m 72,16 -9.238281,16 h -18.47461 l 9.238282,16 -9.238282,16 h 18.47461 L 72,80 81.238281,64 h 18.47461 L 90.474609,48 99.712891,32 h -18.47461 z" />
  </g>
  <g
     id="g9"
     style="display:inline;fill:#cc1122;fill-opacity:1;stroke:#000000;stroke-width:2;stroke-dasharray:none;stroke-opacity:1">
    <path
       style="fill:#cc1122;fill-opacity:1;stroke:#111111;stroke-width:1.33333;stroke-linecap:round;stroke-linejoin:round;stroke-dasharray:none;stroke-opacity:1;paint-order:stroke fill markers"
       d="m 65.666667,50 v -8.666666 a 0.66666667,0.66666667 135 0 1 0.666667,-0.666667 H 67 a 0.66666667,0.66666667 45 0 1 0.666667,0.666667 V 49 A 0.33333333,0.33333333 45 0 0 68,49.333333 0.333333,0.333333 134.99994 0 0 68.333333,49 V 38.666667 A 0.66666667,0.66666667 135 0 1 69,38 h 0.666666 a 0.66666667,0.66666667 45 0 1 0.666667,0.666667 v 10 A 0.33333333,0.33333333 45 0 0 70.666666,49 h 10e-7 A 0.33333333,0.33333333 135 0 0 71,48.666667 v -12 A 0.66666667,0.66666667 135 0 1 71.666667,36 h 0.666666 A 0.66666667,0.66666667 45 0 1 73,36.666667 v 11.666667 a 0.33333333,0.33333333 45 0 0 0.333333,0.333333 h 10e-7 a 0.33333333,0.33333333 135 0 0 0.333333,-0.333333 v -11 a 0.66666667,0.66666667 135 0 1 0.666667,-0.666667 H 75 a 0.66666669,0.66666669 44.999999 0 1 0.666667,0.666667 l 0,13.666666 A 0.33333334,0.33333334 44.999999 0 0 76.000001,51.333333 0.33333297,0.33333297 134.99994 0 0 76.333333,51 l 0,-1.666667 a 8.2163635,8.2163635 99.217476 0 1 0.421637,-2.598244 l 0.03421,-0.102633 A 0.92495074,0.92495074 144.21748 0 1 77.666667,46 h 0.666666 a 0.6134219,0.6134219 47.381822 0 1 0.611303,0.664364 l -0.500576,6.006908 a 4.3753132,4.3753132 111.71172 0 1 -0.943654,2.369886 l -1.000812,1.251017 a 2.7741661,2.7741661 154.3299 0 1 -2.16626,1.041158 H 69 A 1.8499011,1.8499011 35.782526 0 1 67.24503,56.068422 L 66.088304,52.598244 A 8.21637,8.21637 80.782526 0 1 65.666667,50 Z"
       id="path11"
       sodipodi:nodetypes="cccccccccccccccccccccccc"
       transform="matrix(1.5,0,0,1.5,-35.5,-24)"
       inkscape:path-effect="#path-effect14"
       inkscape:original-d="M 65.666667,51.333333 V 40.666667 h 2 v 8.666666 h 0.666666 V 38 h 2 V 49 H 71 V 36 h 2 v 12.666667 h 0.666667 v -12 h 2 l 0,14.666666 h 0.666666 L 76.333333,48 77,46 h 2 l -0.666667,8 -2.666666,3.333333 h -8 z" />
  </g>
</svg>
