<?xml version="1.0" encoding="UTF-8" standalone="no"?>
<svg
   width="96"
   height="96"
   viewBox="0 0 96 96"
   version="1.1"
   id="svg3"
   sodipodi:docname="square_v8.svg"
   inkscape:version="1.4.2 (ebf0e940d0, 2025-05-08)"
   inkscape:export-filename="rect_v8.png"
   inkscape:export-xdpi="96"
   inkscape:export-ydpi="96"
   xmlns:inkscape="http://www.inkscape.org/namespaces/inkscape"
   xmlns:sodipodi="http://sodipodi.sourceforge.net/DTD/sodipodi-0.dtd"
   xmlns="http://www.w3.org/2000/svg"
   xmlns:svg="http://www.w3.org/2000/svg">
  <defs
     id="defs3">
    <inkscape:path-effect
       effect="fillet_chamfer"
       id="path-effect11"
       is_visible="true"
       lpeversion="1"
       nodesatellites_param="F,0,1,1,0,1,0,1 @ F,0,0,1,0,1,0,1 @ F,0,0,1,0,1,0,1 @ F,0,0,1,0,0.5,0,1 @ F,0,0,1,0,0.5,0,1 @ F,0,0,1,0,1,0,1 @ F,0,0,1,0,1,0,1 @ F,0,0,1,0,0.5,0,1 @ F,0,0,1,0,0.5,0,1 @ F,0,0,1,0,1,0,1 @ F,0,0,1,0,1,0,1 @ F,0,0,1,0,0.5,0,1 @ F,0,0,1,0,0.5,0,1 @ F,0,0,1,0,1,0,1 @ F,0,0,1,0,1,0,1 @ F,0,0,1,0,0.5,0,1 @ F,0,0,1,0,0.5,0,1 @ F,0,0,1,0,1,0,1 @ F,0,0,1,0,1,0,1 @ F,0,0,1,0,1,0,1 @ F,0,0,1,0,1,0,1 @ F,0,0,1,0,1,0,1"
       radius="1"
       unit="px"
       method="auto"
       mode="F"
       chamfer_steps="1"
       flexible="false"
       use_knot_distance="true"
       apply_no_radius="true"
       apply_with_radius="true"
       only_selected="true"
       hide_knots="false" />
  </defs>
  <sodipodi:namedview
     id="namedview3"
     pagecolor="#333333"
     bordercolor="#000000"
     borderopacity="0.25"
     inkscape:showpageshadow="2"
     inkscape:pageopacity="0.0"
     inkscape:pagecheckerboard="0"
     inkscape:deskcolor="#333333"
     showgrid="true"
     inkscape:zoom="11.313708"
     inkscape:cx="59.485358"
     inkscape:cy="36.415999"
     inkscape:window-width="2560"
     inkscape:window-height="1368"
     inkscape:window-x="1920"
     inkscape:window-y="0"
     inkscape:window-maximized="1"
     inkscape:current-layer="svg3">
    <inkscape:grid
       id="grid3"
       units="px"
       originx="0"
       originy="0"
       spacingx="1"
       spacingy="1"
       empcolor="#0099e5"
       empopacity="0.30196078"
       color="#0099e5"
       opacity="0.14901961"
       empspacing="4"
       enabled="true"
       visible="true" />
  </sodipodi:namedview>
  <rect
     fill="#ffffff"
     width="96"
     height="96"
     id="rect1"
     x="0"
     y="0"
     style="display:inline" />
  <g
     fill="#cc1122"
     id="g3"
     style="display:inline"
     transform="translate(-24)">
    <rect
       width="20"
       height="96"
       x="62"
       id="rect2"
       y="0" />
    <rect
       width="96"
       height="20"
       y="38"
       id="rect3"
       x="24" />
  </g>
  <g
     id="g9"
     style="fill:#cc1122;fill-opacity:1;stroke:#000000;stroke-width:2;stroke-dasharray:none;stroke-opacity:1"
     transform="translate(-24)">
    <path
       id="path4"
       style="display:inline;fill:#ffffff;stroke:#000000;stroke-width:4;stroke-linecap:square;stroke-linejoin:miter;stroke-dasharray:none;stroke-opacity:1;paint-order:stroke fill markers"
       d="M 72,24 65.072266,36 H 51.214844 l 6.927734,12 -6.927734,12 H 65.072266 L 72,72 78.927734,60 H 92.785156 L 85.857422,48 92.785156,36 H 78.927734 Z" />
    <path
       style="fill:#cc1122;fill-opacity:1;stroke:#000000;stroke-width:2;stroke-linecap:round;stroke-linejoin:round;stroke-dasharray:none;stroke-opacity:1;paint-order:stroke fill markers"
       d="m 65,51 v -9 a 1,1 135 0 1 1,-1 1,1 45 0 1 1,1 v 7.5 A 0.5,0.5 45 0 0 67.5,50 0.5,0.5 135 0 0 68,49.5 V 39 a 1,1 135 0 1 1,-1 1,1 45 0 1 1,1 v 9.5 A 0.5,0.5 45 0 0 70.5,49 0.5,0.5 135 0 0 71,48.5 V 37 a 1,1 135 0 1 1,-1 1,1 45 0 1 1,1 V 48.5 A 0.5,0.5 45 0 0 73.5,49 0.5,0.5 135 0 0 74,48.5 V 38 a 1,1 135 0 1 1,-1 1,1 45 0 1 1,1 V 50.5 A 0.5,0.5 45 0 0 76.5,51 0.5,0.5 135 0 0 77,50.5 V 47 a 1,1 135 0 1 1,-1 1,1 45 0 1 1,1 v 5 a 3.6103173,3.6103173 105.48188 0 1 -0.514496,1.857493 l -1.971008,3.285014 A 1.7661904,1.7661904 150.48188 0 1 75,58 l -7,0 A 1.3874259,1.3874259 35.782526 0 1 66.683772,57.051317 L 65.316228,52.948683 A 6.1622777,6.1622777 80.782526 0 1 65,51 Z"
       id="path11"
       sodipodi:nodetypes="ccccccccccccccccccccccc"
       inkscape:path-effect="#path-effect11"
       inkscape:original-d="M 65,52 V 41 h 2 v 9 h 1 V 38 h 2 v 11 h 1 V 36 h 2 v 13 h 1 V 37 h 2 v 14 h 1 v -5 h 2 v 7 l -3,5 h -9 z" />
  </g>
</svg>
