<svg height="1200" viewBox="0 0 1794.76 1200" width="1794.76" xmlns="http://www.w3.org/2000/svg" xmlns:xlink="http://www.w3.org/1999/xlink"><clipPath id="a"><path d="m0 900h1346.075v-900h-1346.075z" transform="translate(-628.75001 -685.11232)"/></clipPath><clipPath id="b"><path d="m0 900h1346.075v-900h-1346.075z" transform="translate(-628.75001 -683.69632)"/></clipPath><clipPath id="c"><path d="m0 900h1346.075v-900h-1346.075z" transform="translate(-583.65622 -333.67291)"/></clipPath><clipPath id="d"><path d="m0 900h1346.075v-900h-1346.075z" transform="translate(-759.68364 -312.07711)"/></clipPath><clipPath id="e"><path d="m0 900h1346.075v-900h-1346.075z" transform="translate(-586.17041 -309.36331)"/></clipPath><clipPath id="f"><path d="m0 900h1346.075v-900h-1346.075z" transform="translate(-588.27292 -312.03121)"/></clipPath><clipPath id="g"><path d="m0 900h1346.075v-900h-1346.075z" transform="translate(-588.31642 -304.66501)"/></clipPath><clipPath id="h"><path d="m0 900h1346.075v-900h-1346.075z" transform="translate(-672.68602 -346.81051)"/></clipPath><clipPath id="i"><path d="m0 900h1346.075v-900h-1346.075z" transform="translate(-583.66552 -556.66991)"/></clipPath><clipPath id="j"><path d="m0 900h1346.075v-900h-1346.075z" transform="translate(-641.03272 -465.69141)"/></clipPath><clipPath id="k"><path d="m0 900h1346.075v-900h-1346.075z" transform="translate(-705.74562 -465.69141)"/></clipPath><clipPath id="l"><path d="m0 900h1346.075v-900h-1346.075z" transform="translate(-673.36622 -549.80221)"/></clipPath><clipPath id="m"><path d="m0 900h1346.075v-900h-1346.075z" transform="translate(-643.41362 -438.30371)"/></clipPath><clipPath id="n"><path d="m0 900h1346.075v-900h-1346.075z" transform="translate(-703.89752 -438.30371)"/></clipPath><clipPath id="o"><path d="m0 900h1346.075v-900h-1346.075z" transform="translate(-692.12992 -426.74801)"/></clipPath><clipPath id="p"><path d="m0 900h1346.075v-900h-1346.075z" transform="translate(-648.16702 -410.64941)"/></clipPath><clipPath id="q"><path d="m0 900h1346.075v-900h-1346.075z" transform="translate(-719.58152 -388.76951)"/></clipPath><clipPath id="r"><path d="m0 900h1346.075v-900h-1346.075z" transform="translate(-620.71481 -388.14451)"/></clipPath><clipPath id="s"><path d="m0 900h1346.075v-900h-1346.075z" transform="translate(-673.42142 -539.72662)"/></clipPath><clipPath id="t"><path d="m0 900h1346.075v-900h-1346.075z" transform="translate(-643.24852 -552.05471)"/></clipPath><clipPath id="u"><path d="m0 900h1346.075v-900h-1346.075z" transform="translate(-615.00592 -474.91211)"/></clipPath><clipPath id="v"><path d="m0 900h1346.075v-900h-1346.075z" transform="translate(-638.82622 -542.87992)"/></clipPath><clipPath id="w"><path d="m0 900h1346.075v-900h-1346.075z" transform="translate(-731.77252 -474.91211)"/></clipPath><clipPath id="x"><path d="m0 900h1346.075v-900h-1346.075z" transform="translate(-648.70952 -445.74121)"/></clipPath><clipPath id="y"><path d="m0 900h1346.075v-900h-1346.075z" transform="translate(-698.07812 -445.74121)"/></clipPath><clipPath id="z"><path d="m0 900h1346.075v-900h-1346.075z" transform="translate(-648.70952 -442.25681)"/></clipPath><clipPath id="A"><path d="m0 900h1346.075v-900h-1346.075z" transform="translate(-698.07812 -442.25681)"/></clipPath><clipPath id="B"><path d="m0 900h1346.075v-900h-1346.075z" transform="translate(-641.97952 -431.15141)"/></clipPath><clipPath id="C"><path d="m0 900h1346.075v-900h-1346.075z" transform="translate(-704.80762 -431.15141)"/></clipPath><clipPath id="D"><path d="m0 900h1346.075v-900h-1346.075z" transform="translate(-616.99172 -428.22751)"/></clipPath><clipPath id="E"><path d="m0 900h1346.075v-900h-1346.075z" transform="translate(-646.68652 -427.10641)"/></clipPath><clipPath id="F"><path d="m0 900h1346.075v-900h-1346.075z" transform="translate(-700.10062 -427.10641)"/></clipPath><clipPath id="G"><path d="m0 900h1346.075v-900h-1346.075z" transform="translate(-617.50631 -424.60551)"/></clipPath><clipPath id="H"><path d="m0 900h1346.075v-900h-1346.075z" transform="translate(-725.04252 -421.82911)"/></clipPath><clipPath id="I"><path d="m0 900h1346.075v-900h-1346.075z" transform="translate(-630.96581 -419.42971)"/></clipPath><clipPath id="J"><path d="m0 900h1346.075v-900h-1346.075z" transform="translate(-725.04252 -417.92191)"/></clipPath><clipPath id="K"><path d="m0 900h1346.075v-900h-1346.075z" transform="translate(-609.26902 -413.87701)"/></clipPath><clipPath id="L"><path d="m0 900h1346.075v-900h-1346.075z" transform="translate(-620.65972 -412.88381)"/></clipPath><clipPath id="M"><path d="m0 900h1346.075v-900h-1346.075z" transform="translate(-630.39602 -405.40921)"/></clipPath><clipPath id="N"><path d="m0 900h1346.075v-900h-1346.075z" transform="translate(-612.51461 -400.88671)"/></clipPath><clipPath id="O"><path d="m0 900h1346.075v-900h-1346.075z" transform="translate(-661.74562 -384.88091)"/></clipPath><clipPath id="P"><path d="m0 900h1346.075v-900h-1346.075z" transform="translate(-685.04201 -384.88091)"/></clipPath><clipPath id="Q"><path d="m0 900h1346.075v-900h-1346.075z" transform="translate(-762.57962 -305.24611)"/></clipPath><clipPath id="R"><path d="m0 900h1346.075v-900h-1346.075z" transform="translate(-766.66554 -313.07131)"/></clipPath><clipPath id="S"><path d="m0 900h1346.075v-900h-1346.075z" transform="translate(-757.21142 -299.50491)"/></clipPath><clipPath id="T"><path d="m0 900h1346.075v-900h-1346.075z" transform="translate(-535.62011 -363.92871)"/></clipPath><clipPath id="U"><path d="m0 900h1346.075v-900h-1346.075z" transform="translate(-574.11331 -382.82131)"/></clipPath><clipPath id="V"><path d="m0 900h1346.075v-900h-1346.075z" transform="translate(-551.45122 -385.64361)"/></clipPath><clipPath id="W"><path d="m0 900h1346.075v-900h-1346.075z" transform="translate(-554.20951 -424.80761)"/></clipPath><clipPath id="X"><path d="m0 900h1346.075v-900h-1346.075z" transform="translate(-502.03612 -446.78911)"/></clipPath><clipPath id="Y"><path d="m0 900h1346.075v-900h-1346.075z" transform="translate(-529.29491 -463.03421)"/></clipPath><clipPath id="Z"><path d="m0 900h1346.075v-900h-1346.075z" transform="translate(-499.27831 -494.84371)"/></clipPath><clipPath id="aa"><path d="m0 900h1346.075v-900h-1346.075z" transform="translate(-501.94432 -489.33691)"/></clipPath><clipPath id="ab"><path d="m0 900h1346.075v-900h-1346.075z" transform="translate(-497.36621 -474.36081)"/></clipPath><clipPath id="ac"><path d="m0 900h1346.075v-900h-1346.075z" transform="translate(-515.41261 -487.72801)"/></clipPath><clipPath id="ad"><path d="m0 900h1346.075v-900h-1346.075z" transform="translate(-505.73191 -445.10741)"/></clipPath><clipPath id="ae"><path d="m0 900h1346.075v-900h-1346.075z" transform="translate(-507.12941 -435.95021)"/></clipPath><clipPath id="af"><path d="m0 900h1346.075v-900h-1346.075z" transform="translate(-528.98242 -457.62841)"/></clipPath><clipPath id="ag"><path d="m0 900h1346.075v-900h-1346.075z" transform="translate(-537.43121 -452.26861)"/></clipPath><clipPath id="ah"><path d="m0 900h1346.075v-900h-1346.075z" transform="translate(-526.61041 -402.25591)"/></clipPath><clipPath id="ai"><path d="m0 900h1346.075v-900h-1346.075z" transform="translate(-526.11431 -389.88181)"/></clipPath><clipPath id="aj"><path d="m0 900h1346.075v-900h-1346.075z" transform="translate(-552.50881 -418.91501)"/></clipPath><clipPath id="ak"><path d="m0 900h1346.075v-900h-1346.075z" transform="translate(-560.43361 -412.13871)"/></clipPath><clipPath id="al"><path d="m0 900h1346.075v-900h-1346.075z" transform="translate(-573.46972 -378.14161)"/></clipPath><clipPath id="am"><path d="m0 900h1346.075v-900h-1346.075z" transform="translate(-583.78471 -366.75101)"/></clipPath><clipPath id="an"><path d="m0 900h1346.075v-900h-1346.075z" transform="translate(-542.59811 -349.26461)"/></clipPath><clipPath id="ao"><path d="m0 900h1346.075v-900h-1346.075z" transform="translate(-541.07182 -359.98441)"/></clipPath><clipPath id="ap"><path d="m0 900h1346.075v-900h-1346.075z" transform="translate(-570.06841 -343.08691)"/></clipPath><clipPath id="aq"><path d="m0 900h1346.075v-900h-1346.075z" transform="translate(-569.59912 -345.56931)"/></clipPath><clipPath id="ar"><path d="m0 900h1346.075v-900h-1346.075z" transform="translate(-551.30422 -384.18161)"/></clipPath><clipPath id="as"><path d="m0 900h1346.075v-900h-1346.075z" transform="translate(-552.39841 -383.03221)"/></clipPath><clipPath id="at"><path d="m0 900h1346.075v-900h-1346.075z" transform="translate(-533.11961 -422.65621)"/></clipPath><clipPath id="au"><path d="m0 900h1346.075v-900h-1346.075z" transform="translate(-534.61822 -423.33691)"/></clipPath><clipPath id="av"><path d="m0 900h1346.075v-900h-1346.075z" transform="translate(-513.74902 -463.27341)"/></clipPath><clipPath id="aw"><path d="m0 900h1346.075v-900h-1346.075z" transform="translate(-515.24761 -463.95361)"/></clipPath><clipPath id="ax"><path d="m0 900h1346.075v-900h-1346.075z" transform="translate(-547.87501 -393.81641)"/></clipPath><clipPath id="ay"><path d="m0 900h1346.075v-900h-1346.075z" transform="translate(-527.98972 -438.21191)"/></clipPath><clipPath id="az"><path d="m0 900h1346.075v-900h-1346.075z" transform="translate(-573.99371 -337.55271)"/></clipPath><clipPath id="aA"><path d="m0 900h1346.075v-900h-1346.075z" transform="translate(-629.70611 -650.68262)"/></clipPath><clipPath id="aB"><path d="m0 900h1346.075v-900h-1346.075z" transform="translate(-646.90721 -649.50592)"/></clipPath><clipPath id="aC"><path d="m0 900h1346.075v-900h-1346.075z" transform="translate(-651.41212 -641.57182)"/></clipPath><clipPath id="aD"><path d="m0 900h1346.075v-900h-1346.075z" transform="translate(-665.72662 -649.42292)"/></clipPath><clipPath id="aE"><path d="m0 900h1346.075v-900h-1346.075z" transform="translate(-664.30132 -649.42292)"/></clipPath><clipPath id="aF"><path d="m0 900h1346.075v-900h-1346.075z" transform="translate(-662.41652 -649.42292)"/></clipPath><clipPath id="aG"><path d="m0 900h1346.075v-900h-1346.075z" transform="translate(-586.06402 -554.36521)"/></clipPath><path d="m0 0h1346.075v900h-1346.075z" fill="#cc092f" transform="matrix(1.3333333 0 0 -1.3333333 0 1200)"/><path d="m0 0h897.384v900h-897.384z" fill="#ffd200" transform="matrix(1.3333333 0 0 -1.3333333 0 1200)"/><path d="m0 0h448.692v900h-448.692z" fill="#0046ae" transform="matrix(1.3333333 0 0 -1.3333333 0 1200)"/><path d="m0 0 7.686.57.671-6.554 7.07 2.987 1.912-9.027 15.583 15.794 21.669-10.683-41.123-73.281-14.654-10.83 26.413-9.911 27.093 31.58-3.916-20.741-8.054-20.125 32.977-18.993 35.818 21.154-17.605 36.949 5.727 2.629 23.223-33.639 25.291 12.54-32.876 38.437-21.623 46.245 22.809 7.529 15.537-14.912 2.317 9.699 8.21-3.972-1.039 8.1 8.256-1.802-10.058 15.942 25.54 21.42 16.143-50.472 23.811-27.195 5.057.625 17.283-21.365-.184 296.039-31.901 33.594-31.037-25.283 1.296-27.249-13.937-.515-20.74-10.628-11.612-3.815-5.47-1.085-7.125 7.741-9.543 19.095-.625 18.828 5.884 12.283-1.085 11.611 5.277-.101-3.365 7.842 4.652 1.857-6.968 6.142 2.427 2.84-26.321 11.299-20.079 1.342-5.415-2.371-2.629-4.91 5.313-15.013-5.681-5.672 5.626-10.996.212-24.096-4.496-20.336-9.028-15.371-4.743-1.812-11.309 2.584-23.682 12.485-14.967.827-1.03 29.005-28.693 23.058-29.253-31.58-4.183-9.285 1.342-287.324 18.939 22.91 3.971-.984 19.555 21.163 16.622 41.895 4.899 17.394 22.396-26.467z" fill="#b07f55" transform="matrix(1.3333333 0 0 -1.3333333 800.10093 713.97787)"/><path clip-path="url(#a)" d="m0 0c-2.963 0-5.551-.756-7.061-1.931 2.399-.698 4.143-2.91 4.143-5.601v-6.824h-2.636-4.187c-2.673 0-4.886 1.719-5.602 4.095-1.175-1.51-1.929-4.097-1.929-7.06s.754-5.552 1.929-7.059c.7 2.399 2.911 4.142 5.602 4.142h4.187 2.636v-2.637-21.271-8.895c0-2.579-1.612-4.718-3.859-5.506 3.255-.443 6.056-4.812 6.824-7.202.769 2.385 3.571 6.759 6.825 7.202-2.27.774-3.908 2.911-3.908 5.506v15.343 14.825 2.637h2.637 4.189c2.673 0 4.886-1.719 5.601-4.097 1.174 1.51 1.929 4.1 1.929 7.061 0 2.963-.754 5.551-1.929 7.06-.7-2.399-2.912-4.141-5.601-4.141h-4.189-2.637v6.823c0 2.674 1.719 4.886 4.096 5.602-1.508 1.173-4.098 1.928-7.06 1.928z" transform="matrix(1.3333333 0 0 -1.3333333 838.33333 286.51693)"/><path clip-path="url(#b)" d="m0 0c-1.542 0-2.901-.289-4.047-.658 1.53-1.331 2.542-3.259 2.542-5.46v-6.824c0-.098-.028-.191-.048-.284v-1.082h-1.083c-.092-.019-.185-.046-.282-.047h-.612-2.026-4.187c-2.176 0-4.081.995-5.411 2.494-.383-1.158-.706-2.48-.706-4.048 0-1.543.288-2.902.658-4.047 1.33 1.53 3.257 2.54 5.459 2.54h4.187.895 1.742 1.412c-.009-.142-.048-.279-.048-.422v-.706c.02-.092.048-.185.048-.282v-2.637-21.272-8.895c0-2.13-1.098-3.805-2.542-5.13 1.033-.637 1.922-1.438 2.683-2.354.678-.814.947-1.61 1.412-2.447.466.835.735 1.633 1.412 2.447.75.899 1.625 1.673 2.636 2.306-1.456 1.322-2.542 3.039-2.542 5.178v15.342 14.826.377 2.259 1.366h1.13c.092.018.185.045.282.045h2.636 4.189c2.175 0 4.08-.995 5.411-2.493.382 1.157.707 2.478.707 4.047 0 1.542-.29 2.902-.659 4.048-1.331-1.53-3.258-2.541-5.459-2.541h-4.189-2.636c-.096 0-.19.029-.282.048h-1.083v1.082c-.019.091-.047.185-.048.283v6.824c0 2.176.997 4.08 2.494 5.412-1.157.38-2.478.706-4.046.706h-.001z" fill="#f5d402" transform="matrix(1.3333333 0 0 -1.3333333 838.33333 288.40493)"/><path clip-path="url(#c)" d="m0 0-9.635.294-9.92-4.67-3.217-10.803 1.461-4.964 10.803-11.675 8.761 4.964 7.005 7.584 1.747 6.721 25.108 32.692-1.168 8.172-5.553-3.502-2.041 6.711-3.502-1.168z" fill="#d10429" transform="matrix(1.3333333 0 0 -1.3333333 778.20827 755.1028)"/><path clip-path="url(#d)" d="m0 0 11.667-10.518 3.493.883 12.871 14.885-2.942 10.214-11.951 7.299-9.056-.873-20.143 30.062-3.502 1.462-1.453-5.838-5.847 1.747-2.335-6.417 26.56-35.91z" fill="#d10429" transform="matrix(1.3333333 0 0 -1.3333333 1012.9115 783.8972)"/><path clip-path="url(#e)" d="m0 0 14.895-8.126-3.613-16.574-14.895 8.126z" transform="matrix(1.3333333 0 0 -1.3333333 781.56053 787.5156)"/><path clip-path="url(#f)" d="m0 0-4.376-4.519 2.73-6.024 5.317 2.447-3.67 8.096zm-71.49 156.583-5.365-2.448 60.618-132.772h6.448l-61.702 135.218v.001-.001z" transform="matrix(1.3333333 0 0 -1.3333333 784.36387 783.9584)"/><path clip-path="url(#g)" d="m0 0 9.238-5.04-2.241-10.281-9.239 5.041z" fill="#f5d402" transform="matrix(1.3333333 0 0 -1.3333333 784.42187 793.78)"/><path clip-path="url(#h)" d="m0 0 36.792 20.143 43.191 20.427 8.183 12.559v70.349l-175.155.284.294-71.516 5.259-8.467 33.271-18.386 42.621-19.555z" fill="#0b45bb" transform="matrix(1.3333333 0 0 -1.3333333 896.91467 737.586)"/><path clip-path="url(#i)" d="m0 0 2.211-6.447-.518-82.129 3.06-3.387 25.274-3.013 27.344 4.001s15.878-2.452 26.828-4.144c.011-.055.329-1.646.329-1.646s3.973.606 5.224.801c1.23-.191 5.177-.801 5.177-.801l.329 1.646c10.95 1.692 26.828 4.144 26.828 4.144l27.345-4.001 25.274 3.013 3.059 3.387-.518 82.129 2.212 6.447-30.262-.233s-34.587-.344-59.442-.614c-24.851.27-59.49.614-59.49.614l-30.263.233z" fill="#d10429" transform="matrix(1.3333333 0 0 -1.3333333 778.22067 457.77347)"/><path clip-path="url(#j)" d="m0 0s-18.743 4.582-25.744 13.837c-12.239-11.01-26.874-14.825-26.874-14.825s15.267-6.894 26.874-15.673c5.348 7.663 25.744 16.661 25.744 16.661" transform="matrix(1.3333333 0 0 -1.3333333 854.71027 579.07813)"/><path clip-path="url(#k)" d="m0 0s20.396-8.997 25.746-16.661c11.605 8.779 26.871 15.673 26.871 15.673s-14.633 3.816-26.871 14.825c-7.001-9.254-25.746-13.837-25.746-13.837" transform="matrix(1.3333333 0 0 -1.3333333 940.99413 579.07813)"/><path clip-path="url(#l)" d="m0 0-5.272-14.968-14.355 6.825 6.824-14.355-14.966-5.317 14.966-5.319-6.824-14.308 14.355 6.824 5.272-14.965 5.318 14.965 14.355-6.824-6.823 14.308 14.966 5.319-14.966 5.317 6.823 14.355-14.355-6.825z" transform="matrix(1.3333333 0 0 -1.3333333 897.8216 466.9304)"/><g fill="#f5d402"><path clip-path="url(#m)" d="m0 0 5.167 5.58 5.773-5.782-5.359-5.369z" transform="matrix(1.3333333 0 0 -1.3333333 857.8848 615.59507)"/><path clip-path="url(#n)" d="m0 0-5.571 6.196-5.783-5.984 5.167-5.571z" transform="matrix(1.3333333 0 0 -1.3333333 938.53 615.59507)"/><path clip-path="url(#o)" d="m0 0-2.675-5.985-.212-16.512 4.34-9.285 5.773-2.483-.818 21.679 3.916 15.067z" transform="matrix(1.3333333 0 0 -1.3333333 922.83987 631.00267)"/><path clip-path="url(#p)" d="m0 0v-17.752l5.157 3.714 3.512 8.054.616 14.029-2.684 8.467-10.315 1.857z" transform="matrix(1.3333333 0 0 -1.3333333 864.22267 652.46747)"/><path clip-path="url(#q)" d="m0 0-.202 10.737 9.083 12.375 10.729 2.483-11.97 5.782-11.556-2.482-5.985-7.015-.625-11.354 8.467-9.91z" transform="matrix(1.3333333 0 0 -1.3333333 959.442 681.64067)"/><path clip-path="url(#r)" d="m0 0 3.099 5.782 4.945-3.301 5.985 1.242 3.926 5.985-2.684 5.571-2.887 2.271 4.128 2.27 1.655 6.813-5.581 6.399-5.36-.828-2.684-2.058-1.241 4.945-6.399 3.723-5.369-2.068-2.684-5.571 1.452-4.955-5.58.615-4.542-4.33-.616-5.782 3.098-3.714 4.33-1.444 2.483.203-2.069-5.159 1.655-5.157 5.157-2.887z" transform="matrix(1.3333333 0 0 -1.3333333 827.61973 682.474)"/></g><path clip-path="url(#s)" d="m0 0 3.389-9.556 9.13 4.377-4.331-9.177 9.508-3.39-9.508-3.388 4.331-9.13-9.13 4.33-3.436-9.507-3.389 9.507-9.13-4.33 4.33 9.13-9.507 3.388 9.507 3.39-4.33 9.177 9.13-4.377z" fill="#ffd200" transform="matrix(1.3333333 0 0 -1.3333333 897.8952 480.36453)"/><path clip-path="url(#t)" d="m0 0c-.864-6.046-31.297-18.617-31.297-43.958 0-32.444 30.356-40.099 30.356-40.099l-1.272-2.306-7.388-13.46s12.544-.628 19.203-6.308c8.028-6.847 7.247-21.355 7.247-31.909 0-8.315-1.051-17.091-5.318-20.707-5.729-4.858-9.602-5.218-9.602-10.92 0-4.757 3.656-5.711 9.602-8.85 7.619-4.019 7.264-9.412 18.59-9.412 11.327 0 11.018 5.392 18.637 9.412 5.947 3.139 9.602 4.093 9.602 8.85 0 5.702-3.874 6.062-9.602 10.92-4.266 3.618-5.317 12.393-5.317 20.707 0 10.554-.781 25.062 7.247 31.909 6.659 5.679 19.202 6.308 19.203 6.308l-7.39 13.46-1.27 2.306s30.356 7.655 30.356 40.099c0 25.34-30.433 37.912-31.298 43.958-2.974-10.463 10.166-24.914 10.166-42.028 0-22.143-16.331-23.203-16.331-23.203-3.822 0-5.37-2.729-6.873-2.729-3.214.335-4.728 4.425-7.907 4.425-2.985 0-5.277-4.612-9.223-4.612s-6.192 4.612-9.179 4.612c-3.177 0-4.691-4.09-7.906-4.425-1.502 0-3.051 2.729-6.873 2.729 0 0-16.33 1.06-16.33 23.203 0 17.114 13.142 31.567 10.165 42.028z" transform="matrix(1.3333333 0 0 -1.3333333 857.66467 463.92707)"/><path clip-path="url(#u)" d="m0 0c6.187-7.082 16.003-9.789 16.003-9.789-.002 0-15.72-11.672-15.72-11.672l-.189-.235-.329.282-17.413 10.92s11.111 3.831 17.649 10.495v-.001z" fill="#ffd200" transform="matrix(1.3333333 0 0 -1.3333333 820.00787 566.78387)"/><path clip-path="url(#v)" d="m0 0c1.248-2.688-10.166-19.261-10.166-32.852 0-16.666 8.887-26.497 20.755-26.497 2.264 0 4.74-3.059 6.872-3.059 3.477 0 5.79 3.859 7.908 3.859 2.691 0 4.505-4.235 9.176-4.235 4.674 0 6.534 4.235 9.225 4.235 2.117 0 4.43-3.859 7.907-3.859 2.134 0 4.607 3.059 6.872 3.059 11.868 0 20.756 9.831 20.756 26.497 0 13.591-11.415 30.164-10.166 32.852 0 0 22.261-15.968 22.261-34.781 0-30.304-30.733-37.794-30.733-37.794l6.918-15.577s-9.526-1.429-15.343-6.119c-7.759-6.256-7.861-23.16-7.861-34.591 0-13.467.502-19.173 5.367-22.827 5.13-3.855 8.988-4.685 8.988-8.614 0-3.423-3.994-4.822-9.177-7.106-5.896-2.599-6.484-7.108-15.014-7.108s-9.071 4.509-14.966 7.108c-5.183 2.284-9.179 3.682-9.179 7.106 0 3.929 3.859 4.759 8.989 8.614 4.865 3.654 5.365 9.36 5.365 22.827 0 11.431-.101 28.335-7.859 34.591-5.818 4.692-15.343 6.119-15.343 6.119l6.917 15.577s-30.732 7.489-30.732 37.794c0 18.813 22.261 34.781 22.261 34.781z" fill="#ffd200" transform="matrix(1.3333333 0 0 -1.3333333 851.76827 476.16013)"/><path clip-path="url(#w)" d="m0 0c6.538-6.663 17.649-10.494 17.649-10.494s-11.591-5.774-17.415-10.92c.219-1.061-.287-.246-.328-.282-.271-.346-.104.13-.187.235-5.504 6.316-15.719 11.672-15.719 11.672s9.814 2.707 16.001 9.789z" fill="#ffd200" transform="matrix(1.3333333 0 0 -1.3333333 975.69667 566.78387)"/><path clip-path="url(#x)" d="m0 0-7.295-7.294 7.295-7.295 7.295 7.295z" transform="matrix(1.3333333 0 0 -1.3333333 864.946 605.6784)"/><path clip-path="url(#y)" d="m0 0-7.294-7.294 7.294-7.295 7.295 7.295z" transform="matrix(1.3333333 0 0 -1.3333333 930.7708 605.6784)"/><path clip-path="url(#z)" d="m0 0 3.813-3.811-3.813-3.86-3.86 3.86z" fill="#ffd200" transform="matrix(1.3333333 0 0 -1.3333333 864.946 610.32427)"/><path clip-path="url(#A)" d="m0 0 3.86-3.811-3.86-3.86-3.812 3.86z" fill="#ffd200" transform="matrix(1.3333333 0 0 -1.3333333 930.7708 610.32427)"/><path clip-path="url(#B)" d="m0 0c1.449-3.585 4.894-14.688 4.894-28.004 0-9.216-.894-14.072-.894-14.072s10.284 3.027 12.333 13.46c.959 4.891 2.028 22.909-2.919 25.98l-13.413 2.636z" transform="matrix(1.3333333 0 0 -1.3333333 855.97267 625.13147)"/><path clip-path="url(#C)" d="m0 0-13.414-2.637c-4.947-3.07-3.878-21.088-2.918-25.979 2.047-10.434 12.331-13.461 12.331-13.461s-.894 4.856-.894 14.073c0 13.315 3.445 24.419 4.896 28.003v.001z" transform="matrix(1.3333333 0 0 -1.3333333 939.74347 625.13147)"/><path clip-path="url(#D)" d="m0 0c-.575-.024-1.164-.09-1.742-.234-4.625-1.161-7.42-5.87-6.259-10.495.177-.709.47-1.362.8-1.977-.674.225-1.378.373-2.118.424-.297.02-.603.01-.894 0-4.377-.148-8.026-3.588-8.33-8.049-.326-4.757 3.29-8.853 8.049-9.178.709-.048 1.4-.022 2.069.095-.409-.562-.763-1.161-1.034-1.835-1.781-4.425.376-9.517 4.801-11.297 4.424-1.779 9.467.424 11.247 4.848.272.676.424 1.335.518 2.024.408-.565.898-1.084 1.458-1.553 3.659-3.059 9.131-2.575 12.19 1.082 3.061 3.658 2.576 9.084-1.083 12.143-.553.463-1.167.827-1.788 1.129.665.213 1.311.508 1.929.894 4.041 2.533 5.263 7.915 2.729 11.955-1.741 2.777-4.8 4.205-7.859 4-1.391-.093-2.785-.526-4.048-1.319-.617-.386-1.165-.816-1.647-1.317.001.695-.058 1.41-.235 2.117-1.015 4.048-4.735 6.716-8.754 6.543l.001-.001v-.001z" transform="matrix(1.3333333 0 0 -1.3333333 822.6556 629.03)"/><path clip-path="url(#E)" d="m0 0 7.201-1.507c2.664-3.676 2.212-9.618 2.212-17.886 0-8.336-6.26-11.53-6.26-11.53 0 20.036-2.065 24.854-3.153 30.922z" fill="#ffd200" transform="matrix(1.3333333 0 0 -1.3333333 862.24867 630.5248)"/><path clip-path="url(#F)" d="m0 0c-1.089-6.07-3.152-10.887-3.152-30.922 0 0-6.26 3.194-6.26 11.529 0 8.269-.452 14.209 2.212 17.886z" fill="#ffd200" transform="matrix(1.3333333 0 0 -1.3333333 933.46747 630.5248)"/><path clip-path="url(#G)" d="m0 0c3.12.134 5.987-1.936 6.778-5.082.187-.75.207-1.487.14-2.213-.055-.601-.215-1.147-.422-1.693-1.042.381-2.169.565-3.343.565-2.903 0-5.504-1.278-7.295-3.296-.469.415-.878.875-1.222 1.412-.386.597-.713 1.249-.895 1.977-.903 3.598 1.298 7.24 4.895 8.143.448.114.919.169 1.365.188v-.001h.001z" fill="#ffd200" transform="matrix(1.3333333 0 0 -1.3333333 823.34173 633.85933)"/><path clip-path="url(#H)" d="m0 0c-11.048 0-19.134-8.515-18.023-18.966.935-8.814 8.097-16.198 16.942-18.308-1.51 2.47-2.514 5.223-2.824 8.141-1.108 10.453 6.976 18.922 18.026 18.922 1.741 0 3.428-.216 5.082-.613-3.895 6.387-11.23 10.825-19.203 10.825l.001-.001h-.001v.001z" transform="matrix(1.3333333 0 0 -1.3333333 966.72333 637.5612)"/><g fill="#ffd200"><path clip-path="url(#I)" d="m0 0c2.158-.072 4.227-1.189 5.458-3.153 1.971-3.143 1.025-7.302-2.117-9.272-.656-.411-1.359-.684-2.072-.847-.594-.138-1.198-.124-1.789-.094.004.095 0 .184 0 .283 0 3.998-2.403 7.456-5.835 8.988.242.586.527 1.146.94 1.648.443.536.977 1.02 1.602 1.412 1.178.739 2.515 1.079 3.811 1.035h.001z" transform="matrix(1.3333333 0 0 -1.3333333 841.28773 640.7604)"/><path clip-path="url(#J)" d="m0 0c3.459 0 6.781-1.06 9.649-2.824-10.783-2.085-18.544-11.61-17.415-22.733-3.436 2.846-5.95 6.68-6.4 10.919-.875 8.255 5.122 14.638 14.167 14.638z" transform="matrix(1.3333333 0 0 -1.3333333 966.72333 642.7708)"/><path clip-path="url(#K)" d="m0 0c.783-.055 1.484-.271 2.164-.563.544-.239 1.047-.544 1.506-.895-1.307-1.675-2.07-3.788-2.07-6.071 0-1.792.481-3.451 1.317-4.896-.568-.356-1.165-.638-1.834-.801-.65-.158-1.323-.235-2.025-.187-3.7.253-6.512 3.452-6.259 7.153.254 3.7 3.502 6.514 7.201 6.26" transform="matrix(1.3333333 0 0 -1.3333333 812.35867 648.164)"/><path clip-path="url(#L)" d="m0 0c3.592 0 6.496-2.95 6.496-6.544 0-3.592-2.904-6.495-6.496-6.495-3.593 0-6.496 2.903-6.496 6.495 0 3.594 2.903 6.544 6.496 6.544" transform="matrix(1.3333333 0 0 -1.3333333 827.54627 649.48827)"/><path clip-path="url(#M)" d="m0 0c.643-.071 1.264-.226 1.882-.471.641-.255 1.278-.567 1.835-1.035 2.844-2.38 3.179-6.614.801-9.46-2.381-2.845-6.616-3.226-9.461-.847-.6.502-1.036 1.105-1.412 1.742-.298.507-.492 1.046-.658 1.599 3.787 1.094 6.622 4.434 7.013 8.471z" transform="matrix(1.3333333 0 0 -1.3333333 840.528 659.4544)"/><path clip-path="url(#N)" d="m0 0c1.758-2.604 4.759-4.33 8.144-4.33.71 0 1.4.091 2.069.235.141-.617.228-1.24.188-1.883-.043-.697-.149-1.386-.423-2.071-1.384-3.44-5.313-5.101-8.754-3.719-3.441 1.384-5.151 5.313-3.766 8.755.28.694.667 1.299 1.13 1.835.407.473.894.848 1.412 1.177z" transform="matrix(1.3333333 0 0 -1.3333333 816.68613 665.4844)"/></g><path clip-path="url(#O)" d="m0 0c-6.038 0-9.883-1.274-9.883-3.106 0-1.834 3.846-3.06 9.883-3.06 1.609 0 3.436.937 3.436 3.06 0 2.122-1.828 3.106-3.436 3.106" transform="matrix(1.3333333 0 0 -1.3333333 882.32747 686.82547)"/><path clip-path="url(#P)" d="m0 0c-1.609 0-3.436-.985-3.436-3.106-.001-2.123 1.827-3.06 3.436-3.06 6.038 0 9.883 1.225 9.883 3.06 0 1.833-3.846 3.106-9.883 3.106" transform="matrix(1.3333333 0 0 -1.3333333 913.38933 686.82547)"/><path clip-path="url(#Q)" d="m0 0c-1.338-.135-2.175-.928-2.446-1.46-.412-.806-.488-1.908 0-2.869 0 0-3.294 1.03-4.424.471-1.065-.527 0-16.05 0-16.05s13.142 8.291 12.941 9.46c-.211 1.243-2.965 3.342-2.965 3.342 1.065.17 1.895.838 2.307 1.646.432.851.49 3.28-2.495 4.802-1.118.57-2.113.739-2.919.658zm98.223 186.426-10.448-7.625 1.178-2.493s-1.912-.657-2.779-2.353c-.864-1.698.566-4.096.566-4.096s-9.933.867-11.484-.141c-1.404-.91.595-7.791-.33-13.602-1.289-8.099-4.482-7.419-4.612-8.989-.127-1.525 1.224-3.906 1.224-3.906s-1.863-.586-2.26-1.366c-.639-1.251.445-3.562-.329-5.082-4.322-8.478-10.701-20.994-14.92-29.274-.589-1.155-2.172-1.597-2.966-3.153-.731-1.437-.14-3.53-.14-3.53s-2.796-.168-3.766-2.071c-1.03-2.022-.424-4.753-.424-4.753s-1.767-.226-2.636-1.929c-.928-1.822.643-2.777.238-3.578-5.671-11.126-12.351-24.242-16.426-32.24-1.499-2.94-6.746-3.53-9.791-9.507-2.955-5.798 1.27-10.071 1.27-10.071s-4.387-.397-5.553-2.684c-1.187-2.331-.248-5.869 2.918-7.482 3.167-1.613 6.626-.308 7.815 2.023 1.165 2.287-1.178 6.072-1.178 6.072s5.942-.857 8.895 4.942c3.046 5.977.478 10.519 1.977 13.46 4.076 7.998 10.756 21.113 16.426 32.24.409.801 2.084.108 3.011 1.929.868 1.703 0 3.247 0 3.247s2.595 1.131 3.625 3.154c.971 1.904-.517 4.283-.517 4.283s2.044.727 2.776 2.164c.793 1.556.21 3.08.799 4.237 4.22 8.279 10.601 20.796 14.92 29.272.775 1.522 3.269 2.042 3.906 3.296.398.779-.234 2.635-.234 2.635s2.747.273 3.906 1.272c1.193 1.028-1.23 3.232 4.566 9.036 4.158 4.163 10.864 6.612 10.777 8.283-.097 1.849-6.636 9.366-6.636 9.366s2.759.233 3.624 1.929c.865 1.697.283 3.672.283 3.672l2.729.47v12.943.001-.001h.001z" transform="matrix(1.3333333 0 0 -1.3333333 1016.7728 793.0052)"/><path clip-path="url(#R)" d="m0 0c.165.024.354.013.518 0 .394-.032.77-.153 1.082-.424l6.449-5.599c.833-.723.834-2.011.046-2.919-.789-.909-2.086-1.054-2.918-.33l-6.402 5.554c-.834.723-.882 2.057-.093 2.965.37.425.825.681 1.318.753m-186.849 0c.656.053 1.344-.185 1.836-.753.789-.908.739-2.242-.093-2.965l-6.402-5.554c-.833-.724-2.129-.579-2.918.33-.789.908-.785 2.195.047 2.919l6.448 5.599c.311.273.689.393 1.082.424m190.94 4.235c.169.029.353.013.517 0 .394-.032.77-.199 1.082-.47l6.402-5.554c.833-.723.885-2.057.093-2.964-.787-.908-2.085-1.053-2.918-.329l-6.447 5.602c-.833.722-.883 2.008-.094 2.917.37.424.86.714 1.366.8v-.001zm-195.03 0c.653.053 1.388-.231 1.881-.799.788-.909.739-2.195-.094-2.918l-6.447-5.601c-.833-.724-2.129-.579-2.919.329-.789.907-.738 2.241.096 2.964l6.399 5.554c.312.271.69.437 1.083.47h.001zm198.661 4.33c.166.028.353.014.518 0 .394-.032.816-.198 1.13-.469l6.401-5.554c.832-.723.883-2.058.094-2.966-.789-.906-2.133-1.053-2.965-.327l-6.401 5.6c-.832.722-.883 2.008-.093 2.919.369.424.823.714 1.317.799v-.001zm-202.284 0c.655.054 1.342-.233 1.836-.799.788-.909.737-2.196-.095-2.919l-6.4-5.6c-.833-.725-2.176-.579-2.966.328-.788.908-.738 2.242.095 2.965l6.4 5.554c.312.272.737.438 1.13.47zm205.576 2.306c.218.026.44-.038.613-.187l2.635-2.306c.343-.299.373-.85.047-1.224-.327-.376-.88-.439-1.223-.141l-2.637 2.306c-.345.298-.373.848-.047 1.223.164.187.393.305.613.329h-.001.001zm-208.352 0c.218-.023.448-.141.612-.329.325-.375.296-.925-.049-1.223l-2.635-2.305c-.344-.298-.898-.235-1.222.141-.326.375-.298.925.048 1.224l2.634 2.306c.172.149.394.213.613.188v-.002zm83.173 35.202s-31.89-73.304-60.195-84.576c0 0 12.315-5.231 27.438-13.084 2.206-1.145 4.478-2.375 6.777-3.625 1.904 2.293 3.908 4.841 5.883 7.484 9.043 12.099 17.886 26.122 17.886 26.122.616-3.642-4.159-14.889-12.237-28.759-1.588-2.725-3.245-5.574-5.083-8.47 2.05-1.17 4.083-2.353 6.119-3.578 14.98-9.014 29.049-19.377 34.261-28.897 5.213 9.52 19.282 19.882 34.264 28.897 2.034 1.225 4.068 2.408 6.117 3.578-1.837 2.896-3.494 5.743-5.082 8.47-8.078 13.87-12.852 25.117-12.236 28.759 0 0 8.843-14.023 17.886-26.122 1.973-2.642 3.979-5.191 5.882-7.484 2.297 1.249 4.571 2.479 6.777 3.625 15.125 7.854 27.436 13.084 27.436 13.084-28.304 11.27-60.195 84.576-60.195 84.576l-4.705-1.364s25.435-63.343 50.311-82.505c-5.657-1.702-12.278-4.146-19.109-7.06-8.3 9.723-16.885 22.838-23.86 34.5-7.531 12.589-13.696 34.685-13.696 34.685-3.492-8.48 3.95-51.08 18.967-78.034-12.419-6.464-23.47-13.469-28.757-19.201-5.286 5.733-16.336 12.737-28.755 19.201 15.016 26.952 22.457 69.554 18.966 78.034 0 0-6.165-22.095-13.697-34.685-6.974-11.662-15.56-24.777-23.861-34.5-6.828 2.914-13.45 5.358-19.108 7.06 24.875 19.162 50.312 82.505 50.312 82.505l-4.706 1.364h-.001zm88.385 3.86c.509-.32 1.145-.495 1.836-.66 1.051-1.618 11.933-18.411 18.637-28.755 1.627-2.512 9.704-.556 10.73-.753 4.289-.824 10.421-5.37 11.014-7.012.342-.948-.469-2.493-1.366-2.542-1.519-.08-2.9 2.002-7.859 3.53-4.554 1.405-7.97-.094-11.906 2.824.203-3.799 5.365-6.696 5.365-9.365-3.339 0-5.272 2.212-5.272 2.212s.283-2.581.283-4.753c0-2.211-2.588-3.435-2.588-3.435s-1.483 6.048-3.249 8.425c-7.102 9.561-21.456 29.151-23.954 32.568.505 2.635.894 4.566.894 4.566l5.835-4.001c1.665 1.865 1.6 7.155 1.6 7.155v-.001zm-135.025 0s-.062-5.289 1.602-7.155l5.836 4.001s.389-1.93.894-4.566c-2.499-3.417-16.853-23.006-23.956-32.568-1.766-2.375-3.249-8.424-3.249-8.424s-2.587 1.223-2.587 3.434c0 2.172.283 4.754.283 4.754s-1.931-2.212-5.272-2.212c0 2.669 5.161 5.565 5.365 9.365-3.936-2.918-7.354-1.42-11.906-2.825-4.958-1.526-6.339-3.61-7.86-3.53-.895.049-1.706 1.594-1.364 2.542.592 1.644 6.724 6.19 11.011 7.012 1.027.197 9.104-1.758 10.732.753 6.703 10.344 17.587 27.137 18.636 28.756.692.165 1.328.34 1.834.659v.001h.001zm133.95 17.601-3.201-1.599s4.491-11.006 8.284-12.802c0 0-4.322-.367-6.918 1.364-.466-2.529-1.083-6.401-1.083-6.401-2.063.067-5.836 2.919-5.836 2.919-.799-2.013-2.165-7.719-2.165-7.719-3.194 2.13-13.037 13.603-13.037 13.603l-4.518-2.964s16.325-13.101 19.72-19.957c.192 1.126.363 2.046.564 3.153 2.996-3.974 16.1-21.368 22.685-30.45 1.968-2.716 2.098-5.615 3.813-8.143 3.325-4.908 6.944-7.285 10.683-10.684 1.492-1.357 5.732-.673 6.683.377 1.221 1.35 9.507 11.671 9.507 11.671s.601-.504.941-1.928c0 0 3.154 4.081 3.154 7.059 0 2.71-1.168 5.999-2.73 8.706-1.487 2.577-10.546 8.944-14.542 8.944-4.819 0-7.031-2.418-10.166 3.011-3.35 5.804-14.039 21.192-15.437 23.203 2.275-.02 4.282.236 4.282.236-2.995 2.796-10.683 18.402-10.683 18.402h.001zm-132.865 0s-7.686-15.605-10.681-18.4c0 0 2.007-.255 4.282-.236-1.4-2.011-12.087-17.399-15.437-23.203-3.135-5.429-5.347-3.012-10.166-3.012-3.997 0-13.055-6.367-14.543-8.943-1.563-2.707-2.728-5.997-2.728-8.707 0-2.978 3.153-7.059 3.153-7.059.34 1.425.941 1.929.941 1.929s8.286-10.322 9.507-11.671c.951-1.05 5.189-1.734 6.684-.378 3.737 3.399 7.356 5.776 10.683 10.684 1.713 2.529 1.843 5.428 3.812 8.144 6.584 9.083 19.688 26.476 22.685 30.449.2-1.106.372-2.027.562-3.153 3.396 6.855 19.721 19.956 19.721 19.956l-4.518 2.965s-9.841-11.472-13.037-13.602c0 0-1.365 5.705-2.165 7.719 0 0-3.77-2.853-5.834-2.92 0 0-.617 3.872-1.083 6.402-2.597-1.731-6.918-1.365-6.918-1.365 3.794 1.796 8.283 12.802 8.283 12.802l-3.199 1.6-.002-.002zm198.8 163.313 8.002-7.435 7.907 7.387v-230.517c-5.187 3.127-15.909 16.816-15.909 22.685v207.883zm-264.735 0v-207.883c0-5.87-10.719-19.557-15.908-22.685v230.518l7.907-7.388 8.001 7.435zm260.176.047v-214.75s-13.385 13.535-16.944 17.129c.383 5.907.94 14.968.94 14.968v182.61l8.002-7.436 8.001 7.483v-.001h.001zm-255.607 0 8-7.482 8.001 7.436v-182.61s.558-9.061.941-14.967c-3.557-3.595-16.942-17.13-16.942-17.13v214.759zm266.804 24.426v-22.073l-4.331 4.047-3.247 3.012v7.954l3.247 3.011 4.331 4.048zm-17.837 0 4.33-4.047 3.248-3.059v-7.86l-3.248-3.06-4.33-4.046v22.073zm-2.73 0v-22.073l-4.283 4.001-3.294 3.105v7.86l7.578 7.106h-.001zm-17.837 0c2.337-3.095 4.963-6.029 7.577-7.623v-7.389l-3.247-3.059-4.33-4.047v22.119zm-201.199 0v-22.119l-4.331 4.047-3.248 3.06v7.388c2.613 1.595 5.242 4.527 7.578 7.625v-.001zm-17.838 0 7.578-7.106v-7.86l-3.295-3.105-4.283-4.001v22.073zm-2.73 0v-22.073l-4.33 4.047-3.246 3.06v7.86l3.246 3.059zm-17.837 0 4.331-4.047 3.248-3.011v-7.954l-3.248-3.012-4.331-4.046v22.073-.002zm280.695.049 6.589-6.165v-9.837l-6.589-6.166zm-283.37 0v-22.168l-6.59 6.166v9.837zm252.545 23.673 7.578-7.295v-7.859l-7.578-7.06zm-221.72 0v-22.214l-7.578 7.06v7.859zm219.035 1.224v-24.05c-4.973 2.679-9.581 8.762-11.342 11.249 4.969 2.435 10.202 10.903 11.342 12.802zm-216.35 0c1.141-1.898 6.374-10.366 11.342-12.802-1.76-2.487-6.368-8.569-11.342-11.249v24.05zm239.601 1.835 7.578-7.954v-10.258l-7.578-7.06v25.274-.001zm-262.852 0v-25.274l-7.578 7.06v10.259l7.578 7.953v.001zm260.176 2.07v-27.391l-7.578 7.107v8.754l7.578 11.529v-.001.001zm-257.491 0 7.576-11.529v-8.754l-7.576-7.108v27.391.001zm274.756 1.789c1.418-2.666 2.259-5.093 2.259-7.107v-21.038l-6.589 6.118v14.168zm-292.031 0 4.331-7.859v-14.168l-6.589-6.118v21.038c0 2.014.845 4.441 2.259 7.107zm265.067 28.38c8.702-6.345 17.956-15.223 23.675-23.109-1.015-2.18-4.754-10.213-4.754-10.213s-7.449 7.668-9.364 9.649v2.447c0 2.256-1.447 4.662-2.825 6.447l-2.73-.988c1.311-1.542 2.872-3.805 2.872-5.836v-3.012l-8.144-12.331-6.917 7.435-.471.518-.894.942v1.366c0 2.317-1.153 4.111-2.211 5.317l-2.779-.987c.959-.876 2.26-2.492 2.26-4.707v-2.354c-2.813-4.009-8.61-11.589-13.225-13.178v17.18l.236 5.836c6.366 2.208 25.272 19.532 25.272 19.532v.047h-.001zm-238.093 0v-.046s18.906-17.323 25.274-19.532l.235-5.836v-17.18c-4.615 1.588-10.413 9.169-13.225 13.178v2.354c0 2.214 1.303 3.831 2.259 4.706l-2.776.987c-1.059-1.207-2.212-2.999-2.212-5.317v-1.365l-.894-.943-.47-.518-6.919-7.435-8.141 12.331v3.012c0 2.03 1.561 4.293 2.871 5.836l-2.731.988c-1.378-1.785-2.824-4.191-2.824-6.447v-2.446c-1.915-1.982-9.365-9.65-9.365-9.65s-3.739 8.032-4.753 10.213c5.704 7.902 14.954 16.749 23.673 23.11l-.001-.001zm106.838 36.239c.999-.01 1.926-.048 2.728-.048 10.534 0 17.943-4.803 27.911-9.224 2.612-1.159 5.01-2.097 7.151-2.823-1.341-1.189-2.385-2.383-2.682-3.39 0 0 4.467-.827 6.494-4.566 0 0-4.247-.482-4.942-2.965 2.38-.179 4.743-3.178 4.754-6.072l-6.024 1.884s1.459-6.765 1.459-14.119c0-3.756-5.411-8.177-5.411-14.544 0-19.981 5.033-27.661 8.613-33.838 1.4-2.417 2.538-5.198 4.894-7.295-10.313 5.491-17.978 12.355-17.978 18.731v24.144h-2.683v-24.144c0-4.623 1.129-6.778 1.129-6.778 1.619-5.115 4.892-13.01 6.919-16.189-9.489 5.128-14.308 11.55-14.308 13.93v33.182h-2.683v-33.651l.518-2.306c-1.151-1.728-2.646-3.775-3.671-4.471-1.024.695-2.474 2.745-3.625 4.471l.518 2.306v33.651h-2.683v-33.182c0-2.379-4.82-8.802-14.308-13.93 2.028 3.18 5.3 11.074 6.917 16.189 0 0 1.13 2.154 1.13 6.778v24.144h-2.682v-24.144c0-6.369-7.637-13.244-17.932-18.731 2.332 2.099 3.454 4.892 4.847 7.295 3.914 6.755 8.754 15.337 8.754 39.769 0 9.17-1.356 15.404-3.718 19.767-.718 1.44-1.685 5.272 3.811 5.272 2.848 0 9.367-5.036 9.367-5.036s-.268 4.018-3.578 6.306c-.548.38-1.458 1.574-1.458 2.684 0 .831 1.426 2.882 2.54 3.388.767.348-11.2 2.433-11.2 7.86 0 1.13.711 1.883 3.199 1.883 3.259 0 8.561-3.906 13.273-3.906 3.484 0 4.857.847 8.424.847 4.36 0 13.455-8.254 16.566-7.953-3.478 2.183-9.096 10.448-17.601 10.448-2.952 0-5.624-.659-8.379-.659-3.531 0-7.008 3.248-10.824 3.248-2.558 0-5.415-.142-5.837.519-.74 1.153-.074 1.823.612 2.776 1.295 1.799 4.934 2.322 8.519 2.447 1.076.037 2.15.056 3.153.048v-.001h.002.001zm-.236 2.964c-3.287 0-8.128-.089-10.966-1.977-2.597-1.724-2.385-3.966-3.294-4.753-2.143-1.854-5.812-1.788-7.579-1.788-11.437 0-11.86-12.237-11.86-12.237s2.924 4.424 8.094 4.424c8.597 0 15.108-4.683 15.108-6.447 0-.715-.886-.847-.94-.847-5.616 0-14.09 3.232-18.593 3.389v-1.789c.061-.04.102-.092.19-.142-.065.012-.126.035-.19.048v-.329c10.05-3.496 20.238-8.446 20.238-30.262 0-13.738-1.644-27.755-8.517-38.781-2.435-3.905-5.901-7.245-10.072-10.214-1.856.56-10.585 3.273-16.708 6.683-10.78 6.005-16.37 11.979-29.18 12.566v9.744c0 5.205 1.884 9.895 1.884 14.872-5.401 1.448-20.39 19.775-34.217 27.909-20.345-13.177-36.098-34.811-36.098-44.759 0 0 .611-213.758 0-288.225 0-4.292-2.588-10.355-2.588-10.355 7.427 3.143 21.042 21.771 23.908 28.851v-3.39c11.217 5.116 19.431 18.557 23.109 25.51.065-1.005.237-3.528.237-3.528 10.02 8.784 22.777 60.712 22.777 60.712l-.658 10.919s-8.823-42.397-18.872-51.113v182.565l7.954-7.388 12.048 11.248v8.566l-10.684-9.977v25.838c1.61 2.435 2.677 4.253 3.482 5.694 1.73-3.014 7.319-12.254 13.884-17.931 1.08 4.392 8.189 8.566 8.189 8.566s2.548-6.902 6.447-8.612c1.372 2.416 9.556 7.764 9.556 7.764s-7.002-1.063-9.838-3.718c-2.435.545-3.059 10.166-3.059 10.166s-10.304-5.019-12.095-8.613c-1.965.532-5.023 8.264-6.214 11.437 1.797.196 4.336.423 7.672.423 2.938 0 6.697-1.392 10.636-3.247 4.327-2.037 8.854-4.617 12.897-6.449 5.177-2.344 13.011-2.82 15.295-2.918-2.616-1.838-5.492-3.517-8.612-5.083 0 0 12.329.114 20.991 4.425 3.09 1.988 6.296 3.968 9.036 6.307-1.189-3.303-3.039-7.207-5.932-10.542 12.72 1.076 19.055 8.34 20.85 10.777.844-2.183 2.347-5.688 4.707-8.706 2.36 3.018 3.908 6.523 4.754 8.706 1.798-2.437 8.129-9.701 20.848-10.777-2.891 3.335-4.742 7.239-5.93 10.542 2.739-2.338 5.948-4.319 9.037-6.307 8.66-4.311 20.991-4.425 20.991-4.425-3.123 1.566-6.045 3.249-8.659 5.083 2.198.085 10.123.555 15.343 2.918 4.041 1.832 8.568 4.412 12.895 6.449 3.939 1.855 7.699 3.247 10.638 3.247 3.336 0 5.872-.227 7.671-.423-1.191-3.174-4.248-10.905-6.213-11.437-1.792 3.594-12.096 8.613-12.096 8.613s-.625-9.621-3.059-10.166c-2.835 2.655-9.837 3.718-9.837 3.718s8.182-5.348 9.554-7.764c3.9 1.709 6.402 8.612 6.402 8.612s7.156-4.175 8.236-8.566c6.566 5.678 12.153 14.914 13.883 17.931.836-1.487 1.952-3.377 3.483-5.694v-25.838l-10.684 9.977v-8.566l12.049-11.248 7.954 7.388v-182.565c-10.051 8.716-18.873 51.113-18.873 51.113l-.66-10.919s12.76-51.928 22.78-60.712c0 0 .17 2.522.235 3.528 3.678-6.953 11.893-20.394 23.109-25.51v3.39c2.865-7.08 16.481-25.708 23.907-28.851 0 0-2.587 6.063-2.587 10.355-.612 74.467 0 288.225 0 288.225 0 9.949-15.752 31.581-36.099 44.759-13.824-8.134-28.815-26.462-34.215-27.909 0-4.977 1.882-9.667 1.882-14.872v-9.696c-12.782-.599-18.409-6.614-29.179-12.614-6.163-3.433-14.986-6.154-16.754-6.682-4.169 2.961-7.592 6.308-10.024 10.214-5.858 9.398-8.33 20.936-8.33 32.661 0 4.956 5.553 10.536 5.553 14.544 0 6.059-.565 9.694-.565 9.694 1.97-.268 5.412-3.765 5.412-3.765s-.118 10.056-3.296 11.813c0 0 1.286 1.322 5.931 1.459-1.305 3.306-7.765 7.342-7.765 7.342.323.578.92 1.078 1.694 1.506 1.622.897 3.902 1.489 5.647 1.836-1.859.385-4.001.975-6.353 1.742-5.371 1.75-11.693 4.318-17.602 7.153-10.786 5.174-19.002 5.506-23.533 5.506v-.001h.001z" transform="matrix(1.3333333 0 0 -1.3333333 1022.2207 782.5716)"/><path clip-path="url(#S)" d="m0 0v-11.107l9.038 6.495s-1.226 2.164-3.908 3.53c-2.682 1.365-5.13 1.083-5.13 1.083zm5.366 4.234c-.653-.021-1.194-.228-1.412-.659-.438-.859.467-2.218 2.024-3.012 1.556-.792 3.185-.718 3.624.142.439.862-.469 2.22-2.023 3.012-.779.397-1.559.541-2.213.518zm18.214 36.099c-1.287-.036-2.43-.643-2.965-1.693-.858-1.683.123-3.925 2.211-4.989 2.089-1.064 4.508-.552 5.366 1.129.858 1.683-.171 3.926-2.259 4.99-.783.4-1.582.585-2.353.564zm27.627 51.864c-1.114-.143-1.648-1.27-1.648-1.27s-11.444-22.525-15.482-30.45c-1.291-2.532-6.723-4.11-8.849-8.285-2.142-4.199-.63-8.13 2.164-9.553 2.794-1.424 6.897-.389 9.037 3.811 2.127 4.174.217 9.519 1.506 12.049 4.038 7.929 15.484 30.451 15.484 30.451s1.127 1.983-.895 3.012c-.505.258-.944.283-1.317.234h-.001zm1.553 5.79c-.761-.067-1.365-.389-1.648-.942-.561-1.103.402-2.724 2.165-3.623 1.765-.9 3.673-.728 4.237.376.561 1.103-.402 2.724-2.165 3.624-.883.45-1.826.633-2.588.565zm3.577 6.731c-1.264.059-2.369-.378-2.824-1.271-.728-1.427.407-3.477 2.542-4.567 2.134-1.088 4.449-.815 5.176.613.728 1.429-.408 3.477-2.542 4.567-.8.406-1.593.622-2.353.658zm2.635 5.411c-.763-.066-1.366-.39-1.647-.941-.561-1.104.401-2.724 2.165-3.625 1.764-.897 3.674-.727 4.236.377s-.447 2.725-2.212 3.625c-.882.45-1.779.632-2.541.564zm19.532 37.135c-.949-.103-1.64-.705-2.024-1.458-.571-1.124-.261-2.625-4.801-11.533-1.99-3.905-2.791-5.476-4.943-9.695-2.186-4.293-5.365-10.495-5.365-10.495s-1.08-1.982.942-3.012c2.021-1.028 2.917 1.036 2.917 1.036s3.18 6.204 5.366 10.496c2.151 4.218 2.953 5.836 4.942 9.742 4.538 8.907 5.924 9.513 6.496 10.636.614 1.206.467 2.83-1.554 3.861-.757.385-1.407.483-1.975.422v.001zm17.037 24.662s2.075-5.233 2.118-6.025c.048-.909-7.505-6.307-10.119-11.436-2.216-4.349-3.154-6.778-3.154-6.778l3.013-.47s-.208 3.095.518 4.518c.785 1.542.991 3.43 4.518 6.212 3.74 2.95 8.795 5.529 8.754 6.308-.038.719-5.647 7.671-5.647 7.671zm-1.836.753s-5.732-1.1-6.543-1.884c-.784-.756-.438-8.52-3.483-14.495-2.522-4.954-3.763-6.778-3.763-6.778l1.552-.799 1.554-.753s.724 2.01 3.248 6.966c3.044 5.974 9.542 10.308 9.693 11.389.159 1.114-2.257 6.353-2.257 6.353v.001zm-9.506 1.27c-.922-.011-1.59-.043-1.741-.141-.654-.423.235-6.017.046-10.777-.178-4.488-1.614-5.752-2.4-7.295-.726-1.424-3.341-3.107-3.341-3.107l2.164-2.164s1.408 2.193 3.624 6.543c2.614 5.13 2.53 14.423 3.296 14.919.667.431 6.118 1.789 6.118 1.789-.001 0-5.003.27-7.764.234h-.001-.001zm11.53 7.201c-1.109-.076-2.088-.668-2.588-1.647-.798-1.566-.023-3.572 1.741-4.471 1.766-.898 3.814-.343 4.614 1.223.798 1.567.021 3.572-1.743 4.471-.661.337-1.357.47-2.023.423h-.001zm5.932 7.202-6.119-4.331 3.105-1.601 3.107-1.553-.093 7.484z" fill="#f5d402" transform="matrix(1.3333333 0 0 -1.3333333 1009.6152 800.66013)"/><path clip-path="url(#T)" d="m0 0s5.106-10.547 8.987-11.993c-2.007.547-8.524-1.844-8.524-1.844s11.492-10.265 21.237-10.938c8.265-.57 12.278 3.555 12.278 3.555l-1.656 8.756s-5.056 6.107-13.148 8.924c-8.177 2.849-19.175 3.538-19.175 3.538v.001z" transform="matrix(1.3333333 0 0 -1.3333333 714.16013 714.76173)"/><path clip-path="url(#U)" d="m0 0s-7.05-6.036-8.98-13.026c-1.931-6.992 1.257-14.937 1.257-14.937l5.925-11.052s8.211 4.37 11.703 10.904c3.492 6.535 2.212 15.351 2.212 15.351s-6.505-2.422-7.332-3.493c1.373 7.248-4.786 16.253-4.786 16.253h-.001.001z" transform="matrix(1.3333333 0 0 -1.3333333 765.4844 689.5716)"/><path clip-path="url(#V)" d="m0 0s-8.019-2.71-15.805-2.241c-7.418.447-13.586 6.676-13.586 6.676s6.149 4.161 9.184 3.607c-3.338 1.22-8.179 9.582-8.179 9.582s6.879 2.078 12.978-.221c6.099-2.3 11.417-8.982 11.417-8.982l3.992-8.421z" transform="matrix(1.3333333 0 0 -1.3333333 735.26827 685.80853)"/><path clip-path="url(#W)" d="m0 0s4.01-8.304 3.06-11.189c1.243 1.921 5.951 4.914 5.951 4.914s2.846-13.445.124-21.748c-2.721-8.303-11.008-11.464-11.008-11.464l-9.141 17.777s-1.361 6.586 1.49 11.802c2.85 5.215 9.524 9.909 9.524 9.909h.001z" transform="matrix(1.3333333 0 0 -1.3333333 738.946 633.58987)"/><path clip-path="url(#X)" d="m0 0s8.667.91 16.595-2.374c6.629-2.752 8.661-7.753 8.661-7.753l3.264-8.753s-9.433-3.537-16.886-.832c-7.454 2.707-12.931 11.657-12.931 11.657s5.209 1.976 7.192 1.235c-2.889 1.278-5.893 6.82-5.893 6.82v-.001h-.001z" transform="matrix(1.3333333 0 0 -1.3333333 669.38147 604.2812)"/><path clip-path="url(#Y)" d="m0 0s3.804-4.884 3.917-10.502c1.015 2.986 5.763 6.288 5.763 6.288s4.883-11.818 3.812-20.209c-1.073-8.392-8.099-13.355-8.099-13.355l-8.762 16.632s-2.856 6.817-2.015 12.105c.842 5.287 5.384 9.043 5.384 9.043z" transform="matrix(1.3333333 0 0 -1.3333333 705.72653 582.62107)"/><path clip-path="url(#Z)" d="m0 0s-1.571-9.059 1.102-14.277c2.389-4.657 3.909-5.679 3.909-5.679-4.554 3.006-11.44 3.265-11.44 3.265s2.451-9.856 8.308-14.352c5.857-4.497 14.889-3.446 14.889-3.446s5.939 7.906 5.525 16.424c-.413 8.518-7.178 17.648-7.178 17.648s-2.668-5.534-2.904-9.666c-1.726 4.26-12.213 10.082-12.213 10.082v.001z" transform="matrix(1.3333333 0 0 -1.3333333 665.7044 540.2084)"/><g fill="#097754"><path clip-path="url(#aa)" d="m0 0s-.234-6.62 1.956-10.375c2.19-3.756 7.082-5.254 7.082-5.254s.234 6.618-1.956 10.373c-2.191 3.756-7.082 5.256-7.082 5.256" transform="matrix(1.3333333 0 0 -1.3333333 669.25907 547.5508)"/><path clip-path="url(#ab)" d="m0 0s5.75-.338 9.072-2.883c3.319-2.545 4.605-7.847 4.605-7.847s-3.812-.387-7.131 2.158c-3.319 2.546-6.546 8.572-6.546 8.572" transform="matrix(1.3333333 0 0 -1.3333333 663.15493 567.51893)"/><path clip-path="url(#ac)" d="m0 0s-1.912-4.385-1.691-9.113c.219-4.728 2.978-10.054 2.978-10.054s2.495 5.675 2.275 10.405c-.219 4.728-2.894 7.424-3.562 8.762" transform="matrix(1.3333333 0 0 -1.3333333 687.2168 549.696)"/><path clip-path="url(#ad)" d="m0 0s2.824-3.942 7.17-6.092c4.347-2.148 10.824-2.228 10.824-2.228s-3.233 4.193-7.58 6.343c-4.347 2.149-10.414 1.978-10.414 1.978z" transform="matrix(1.3333333 0 0 -1.3333333 674.3092 606.52347)"/><path clip-path="url(#ae)" d="m0 0s2.075-4.064 5.869-5.807c3.796-1.743 11.56-1.599 11.56-1.599s-2.978 3.798-6.774 5.541c-3.795 1.744-10.656 1.865-10.656 1.865z" transform="matrix(1.3333333 0 0 -1.3333333 676.17253 618.73307)"/><path clip-path="url(#af)" d="m0 0s-2.294-3.791-2.069-7.967c.225-4.178 2.966-8.743 2.966-8.743s1.928 5.233 1.703 9.411-2.601 7.299-2.601 7.299z" transform="matrix(1.3333333 0 0 -1.3333333 705.30987 589.8288)"/><path clip-path="url(#ag)" d="m0 0s-3.925-5.268-4.488-10.684c-.564-5.415 2.232-10.978 2.232-10.978s4.741 4.76 5.305 10.175c.563 5.417-3.049 11.486-3.049 11.486z" transform="matrix(1.3333333 0 0 -1.3333333 716.57493 596.9752)"/><path clip-path="url(#ah)" d="m0 0s.472-1.947 2.112-4.015c1.639-2.069 4.446-4.257 4.446-4.257s2.711.871 6.081.141 7.852-3.732 7.852-3.732-4.824 7.2-9.833 9.999c-5.009 2.798-10.656 1.865-10.656 1.865h-.001z" transform="matrix(1.3333333 0 0 -1.3333333 702.1472 663.6588)"/><path clip-path="url(#ai)" d="m0 0s6.245 2.668 11.388 1.979c5.144-.688 9.781-4.753 9.781-4.753s-6.951-2.406-12.094-1.718c-5.145.688-9.076 4.492-9.076 4.492l.001.001z" transform="matrix(1.3333333 0 0 -1.3333333 701.48573 680.1576)"/><path clip-path="url(#aj)" d="m0 0s-5.523-5.851-5.986-10.929c-.463-5.076 4.478-9.808 4.478-9.808s-.242 3.257.608 5.4c.851 2.144 2.659 4.434 2.659 4.434s.771 2.613.473 4.709c-.417 2.929-2.232 6.194-2.232 6.194" transform="matrix(1.3333333 0 0 -1.3333333 736.6784 641.44667)"/><path clip-path="url(#ak)" d="m0 0s-5.206-5.267-6.581-10.906c-1.376-5.641 1.076-11.655 1.076-11.655s4.734 3.735 6.109 9.374c1.377 5.64-.605 13.187-.605 13.187z" transform="matrix(1.3333333 0 0 -1.3333333 747.2448 650.48173)"/><path clip-path="url(#al)" d="m0 0s2.358-4.923 2.956-9.04c.599-4.116.044-5.541.044-5.541s-2.438-2.397-3.531-3.806c-1.405-1.811-1.611-5.127-1.611-5.127s-4.896 7.279-4.141 12.599c.754 5.319 6.283 10.916 6.283 10.916z" transform="matrix(1.3333333 0 0 -1.3333333 764.62627 695.8112)"/><path clip-path="url(#am)" d="m0 0s-6.268-4.14-8.755-8.388c-2.49-4.244-1.199-8.594-1.199-8.594s4.467.393 6.956 4.639c2.488 4.245 2.997 12.344 2.997 12.344h.001z" transform="matrix(1.3333333 0 0 -1.3333333 778.3796 710.99867)"/><path clip-path="url(#an)" d="m0 0s9.033.247 14.555-1.111c5.522-1.356 7.531-4.317 7.531-4.317s-6.208-2.907-11.73-1.55c-5.521 1.357-10.357 6.979-10.357 6.979v-.001z" transform="matrix(1.3333333 0 0 -1.3333333 723.46413 734.31387)"/><path clip-path="url(#ao)" d="m0 0s4.076-6.318 9.344-8.611c7.261-3.159 15.669-1.627 15.669-1.627s-4.568 5.597-10.852 8.068c-6.286 2.471-14.161 2.169-14.161 2.169h.001-.001z" transform="matrix(1.3333333 0 0 -1.3333333 721.42907 720.0208)"/></g><path clip-path="url(#ap)" d="m0 0 .243-3.252c5.402-.051 6.206.487 7.59-1.215.923-1.135 3.116-2.125 5.321-1.117 2.206 1.007 3.195 3.656 2.188 5.861-1.007 2.206-3.058 2.685-5.033 2.295-1.213-.239-2.011-1.207-3.04-1.738-1.957-1.014-7.271-.835-7.271-.835h.001z" transform="matrix(1.3333333 0 0 -1.3333333 760.0912 742.5508)"/><path clip-path="url(#aq)" d="m0 0 2.628-1.926c-2.819-4.61-3.699-5.007-2.988-7.084.473-1.383.152-3.766-1.871-5.105-2.022-1.337-4.793-.773-6.131 1.249-1.337 2.022-.658 4.013.719 5.483.847.904 2.088 1.067 3.083 1.658 1.896 1.124 4.56 5.726 4.56 5.726z" transform="matrix(1.3333333 0 0 -1.3333333 759.46547 739.24093)"/><path clip-path="url(#ar)" d="m0 0 .243-3.252c5.402-.05 6.205.487 7.59-1.214.921-1.134 3.116-2.125 5.32-1.117 2.207 1.007 3.196 3.655 2.187 5.86-1.007 2.207-3.057 2.685-5.032 2.295-1.214-.24-2.011-1.207-3.038-1.738-1.958-1.013-7.272-.835-7.272-.835h.001z" transform="matrix(1.3333333 0 0 -1.3333333 735.07227 687.75787)"/><path clip-path="url(#as)" d="m0 0 2.298-2.313c-3.502-4.114-4.435-4.371-4.055-6.532.254-1.44-.435-3.746-2.642-4.753-2.206-1.006-4.853-.019-5.862 2.188-1.007 2.205-.026 4.067 1.564 5.305.975.758 2.229.729 3.303 1.157 2.047.815 5.394 4.947 5.394 4.947h-.001.001z" transform="matrix(1.3333333 0 0 -1.3333333 736.5312 689.2904)"/><path clip-path="url(#at)" d="m0 0 .244-3.252c5.402-.049 6.205.487 7.59-1.216.923-1.132 3.115-2.123 5.322-1.115 2.204 1.007 3.194 3.654 2.187 5.862-1.009 2.206-3.058 2.684-5.034 2.294-1.214-.239-2.011-1.207-3.04-1.738-1.956-1.013-7.27-.834-7.27-.834v-.002z" transform="matrix(1.3333333 0 0 -1.3333333 710.82613 636.4584)"/><path clip-path="url(#au)" d="m0 0 2.297-2.313c-3.502-4.115-4.433-4.371-4.055-6.532.254-1.44-.435-3.746-2.641-4.753-2.205-1.006-4.854-.017-5.862 2.188-1.006 2.206-.025 4.069 1.564 5.306.975.759 2.228.728 3.304 1.158 2.047.815 5.393 4.946 5.393 4.946v-.001z" transform="matrix(1.3333333 0 0 -1.3333333 712.82427 635.5508)"/><path clip-path="url(#av)" d="m0 0 .243-3.251c5.402-.051 6.206.487 7.59-1.214.923-1.135 3.116-2.125 5.321-1.119 2.206 1.008 3.195 3.656 2.188 5.862-1.007 2.207-3.058 2.686-5.034 2.295-1.212-.24-2.01-1.208-3.039-1.739-1.957-1.012-7.271-.834-7.271-.834v-.001h.001z" transform="matrix(1.3333333 0 0 -1.3333333 684.99867 582.30213)"/><path clip-path="url(#aw)" d="m0 0 2.296-2.314c-3.501-4.114-4.434-4.37-4.054-6.532.254-1.44-.436-3.745-2.641-4.752-2.206-1.007-4.854-.019-5.861 2.187-1.008 2.205-.026 4.07 1.562 5.306.976.758 2.229.729 3.304 1.158 2.046.815 5.393 4.946 5.393 4.946v.001-.001h.001z" transform="matrix(1.3333333 0 0 -1.3333333 686.9968 581.3952)"/><path clip-path="url(#ax)" d="m0 0c-1.936-.804-4.808 7.626-6.917 12.244-2.164 4.739-6.556 12.043-5.309 12.613 1.37.625 3.173-3.21 5.387-8.059 2.214-4.848 8.653-16.042 6.839-16.796v-.002h.001z" fill="#f5d402" transform="matrix(1.3333333 0 0 -1.3333333 730.5 674.91147)"/><path clip-path="url(#ay)" d="m0 0c-1.936-.807-4.055 4.714-6.163 9.332-2.163 4.739-4.27 8.086-3.023 8.656 1.371.625 3.393-3.528 5.164-7.405 1.715-3.759 5.836-9.828 4.021-10.584z" fill="#f5d402" transform="matrix(1.3333333 0 0 -1.3333333 703.98627 615.71747)"/><path clip-path="url(#az)" d="m0 0c-1.52-.406-8.154 13.479-13.517 25.229-5.363 11.748-9.356 21.253-8.109 21.821 1.37.626 5.712-10.472 11.078-22.223 5.364-11.75 11.687-24.521 10.549-24.827z" fill="#f5d402" transform="matrix(1.3333333 0 0 -1.3333333 765.32493 749.92973)"/><path clip-path="url(#aA)" d="m0 0s2.224 4.211 7.846 4.211c2.35 0 10.105.163 10.105.163 1.034-2.686 5.745-7.173 5.745-11.839 0 0-4.782 8.62-18.132 8.62-3.355 0-5.565-1.154-5.565-1.154z" fill="#cc092f" transform="matrix(1.3333333 0 0 -1.3333333 839.60813 332.4232)"/><path clip-path="url(#aB)" d="m0 0s-3.28 1.052-3.28 2.153c0 1.403 1.593 1.403 2.546.31.655-.753.733-2.464.733-2.464h.001z" transform="matrix(1.3333333 0 0 -1.3333333 862.54293 333.99213)"/><path clip-path="url(#aC)" d="m0 0s-2.844-2.995-3.461-4.594c-2.814 1.067-7.722 6.124-7.722 6.124s4.16-2.429 11.182-1.53z" fill="#d10429" transform="matrix(1.3333333 0 0 -1.3333333 868.54947 344.57093)"/><path clip-path="url(#aD)" d="m0 0c.001-2.053-2.103-3.717-4.698-3.718s-4.7 1.662-4.701 3.715v.003c-.002 2.053 2.102 3.718 4.697 3.719 2.596.001 4.701-1.663 4.702-3.716z" transform="matrix(1.3333333 0 0 -1.3333333 887.63547 334.1028)"/><path clip-path="url(#aE)" d="m0 0c0-1.808-1.465-3.273-3.273-3.273s-3.273 1.465-3.273 3.273 1.465 3.273 3.273 3.273 3.273-1.465 3.273-3.273" fill="#f5d402" transform="matrix(1.3333333 0 0 -1.3333333 885.73507 334.1028)"/><path clip-path="url(#aF)" d="m0 0c.02-.767-.586-1.405-1.353-1.424-.767-.02-1.404.586-1.424 1.353-.001.024-.001.047 0 .071-.02.767.586 1.405 1.353 1.425.767.019 1.404-.586 1.424-1.353.001-.024.001-.048 0-.072" transform="matrix(1.3333333 0 0 -1.3333333 883.222 334.1028)"/><path clip-path="url(#aG)" d="m0 0h3.248 84.057 84.057 3.248s-2.354-2.833-2.354-7.483v-126.134-19.11c0-3.169-3.289-10.595-22.26-20.048-31.361-15.626-55.466-22.923-62.69-31.816-7.225 8.893-31.329 16.189-62.69 31.816-18.972 9.453-22.262 16.879-22.262 20.048v19.11 126.134c0 4.651-2.353 7.483-2.353 7.483zm-10.259 4.612s8.001-6.003 8.001-12.095v-126.135-19.11c0-3.826 1.182-6.318 3.06-8.752 1.876-2.624 5.874-6.248 10.023-8.944 12.816-8.322 34.242-17.098 50.454-24.473 13.509-6.145 19.004-8.624 26.026-17.32 7.023 8.696 12.565 11.174 26.073 17.32 16.209 7.374 37.637 16.151 50.454 24.473 4.15 2.696 8.148 6.32 10.024 8.944 1.877 2.434 3.012 4.926 3.012 8.752v19.11 126.135c0 6.091 8.001 12.095 8.001 12.095h-8.519-4.988-84.058-84.055-4.989-8.519.001.001z" fill="#f5d402" transform="matrix(1.3333333 0 0 -1.3333333 781.41867 460.8464)"/></svg>