<svg xmlns="http://www.w3.org/2000/svg" width="144" height="96">
<style>
.trans1 {
	transform: rotate(atan2(2, 3));
	transform-origin: 72px 48px;
}
.trans2 {
	transform: rotate(atan2(3, 2));
	transform-origin: 72px 48px;
}
</style>
<defs>
	<clipPath id="cut">
		<path d="M 0 0 L 144 96 H 0 Z"/>
		</clipPath>
	</defs>
<path fill="#fff" d="M0 0h144v96H0z"/>
<circle fill="#c13" cx="72" cy="48" r="24"/>
<circle fill="#037" cx="72" cy="48" r="24" clip-path="url(#cut)"/>
<g transform="rotate(33.69 72 48)">
	<circle fill="#c13" cx="60" cy="48" r="12"/>
	<circle fill="#037" cx="84" cy="48" r="12"/>
	</g>
<g fill="#111">
	<g class="trans1">
		<g transform="translate(112 36)">
			<rect width="4" height="11" x="0" y="0" />
			<rect width="4" height="11" x="6" y="0" />
			<rect width="4" height="11" x="12" y="0" />
			<rect width="4" height="11" x="0" y="13" />
			<rect width="4" height="11" x="6" y="13" />
			<rect width="4" height="11" x="12" y="13" />
			</g>
		<g transform="translate(16 36)">
			<rect width="4" height="24" x="0" y="0" />
			<rect width="4" height="24" x="6" y="0" />
			<rect width="4" height="24" x="12" y="0" />
			</g>
		</g>
	<g class="trans2">
		<g transform="translate(60 -8)">
			<rect width="11" height="4" x="0" y="0" />
			<rect width="11" height="4" x="13" y="0" />
			<rect width="24" height="4" x="0" y="6" />
			<rect width="11" height="4" x="0" y="12" />
			<rect width="11" height="4" x="13" y="12" />
			</g>
		<g transform="translate(60 88)">
			<rect width="24" height="4" x="0" y="0" />
			<rect width="11" height="4" x="0" y="6" />
			<rect width="11" height="4" x="13" y="6" />
			<rect width="24" height="4" x="0" y="12" />
			</g>
		</g>
	</g>
</svg>