<?xml version="1.0" encoding="UTF-8" standalone="no"?>
<svg
   width="96"
   height="96"
   version="1.1"
   id="svg2294"
   sodipodi:docname="square_v4.svg"
   inkscape:version="1.2.2 (732a01da63, 2022-12-09)"
   inkscape:export-filename="square_v3.svg"
   inkscape:export-xdpi="96"
   inkscape:export-ydpi="96"
   xmlns:inkscape="http://www.inkscape.org/namespaces/inkscape"
   xmlns:sodipodi="http://sodipodi.sourceforge.net/DTD/sodipodi-0.dtd"
   xmlns="http://www.w3.org/2000/svg"
   xmlns:svg="http://www.w3.org/2000/svg">
  <defs
     id="defs2298">
    <linearGradient
       id="linearGradient4662"
       inkscape:swatch="solid">
      <stop
         style="stop-color:#ffcc00;stop-opacity:1;"
         offset="0"
         id="stop4660" />
    </linearGradient>
  </defs>
  <sodipodi:namedview
     id="namedview2296"
     pagecolor="#505050"
     bordercolor="#eeeeee"
     borderopacity="1"
     inkscape:showpageshadow="0"
     inkscape:pageopacity="0"
     inkscape:pagecheckerboard="0"
     inkscape:deskcolor="#505050"
     showgrid="false"
     inkscape:zoom="2.6770833"
     inkscape:cx="17.182879"
     inkscape:cy="-25.774319"
     inkscape:window-width="2560"
     inkscape:window-height="1377"
     inkscape:window-x="1912"
     inkscape:window-y="-8"
     inkscape:window-maximized="1"
     inkscape:current-layer="svg2294">
    <inkscape:grid
       type="xygrid"
       id="grid3610"
       empspacing="8" />
  </sodipodi:namedview>
  <path
     fill="#c13"
     d="M0 0h96v96H0z"
     id="path2290"
     style="fill:#004499;fill-opacity:1" />
  <path
     fill="#fff"
     d="M0 32h96v32H0z"
     id="path2292" />
  <g
     id="g4672"
     style="fill:#ffaa00;fill-opacity:1">
    <path
       id="text4392"
       style="font-style:normal;font-variant:normal;font-weight:normal;font-stretch:normal;font-size:16px;font-family:Urbanist;-inkscape-font-specification:'Urbanist, @wght=900';font-variant-ligatures:normal;font-variant-caps:normal;font-variant-numeric:normal;font-variant-east-asian:normal;font-variation-settings:'wght' 900;text-align:center;text-anchor:middle;fill:#ffaa00;fill-opacity:1;stroke-width:0;stroke-linecap:square"
       d="M 24.515625 34.591797 C 23.758292 34.591797 23.047525 34.744828 22.380859 35.048828 C 21.714193 35.347494 21.125807 35.763542 20.619141 36.296875 C 20.112474 36.830208 19.715734 37.448344 19.427734 38.152344 C 19.139735 38.85101 18.996094 39.600391 18.996094 40.400391 C 18.996094 41.20039 19.139735 41.952251 19.427734 42.65625 C 19.715734 43.354916 20.112474 43.970573 20.619141 44.503906 C 21.125807 45.037239 21.714193 45.455766 22.380859 45.759766 C 23.047525 46.058432 23.758292 46.207031 24.515625 46.207031 C 25.278291 46.207031 25.99349 46.058432 26.660156 45.759766 C 27.326822 45.455766 27.913256 45.037239 28.419922 44.503906 C 28.926588 43.970573 29.320849 43.354916 29.603516 42.65625 C 29.891515 41.952251 30.035156 41.20039 30.035156 40.400391 C 30.035156 39.600391 29.891515 38.85101 29.603516 38.152344 C 29.320849 37.448344 28.926588 36.830208 28.419922 36.296875 C 27.913256 35.763542 27.326822 35.347494 26.660156 35.048828 C 25.99349 34.744828 25.278291 34.591797 24.515625 34.591797 z M 76.027344 34.591797 C 75.270011 34.591797 74.559244 34.744828 73.892578 35.048828 C 73.225912 35.347494 72.639479 35.763542 72.132812 36.296875 C 71.626146 36.830208 71.227453 37.448344 70.939453 38.152344 C 70.651453 38.85101 70.507812 39.600391 70.507812 40.400391 C 70.507813 41.20039 70.651453 41.952251 70.939453 42.65625 C 71.227453 43.354916 71.626146 43.970573 72.132812 44.503906 C 72.639479 45.037239 73.225912 45.455766 73.892578 45.759766 C 74.559244 46.058432 75.270011 46.207031 76.027344 46.207031 C 76.79001 46.207031 77.505209 46.058432 78.171875 45.759766 C 78.838541 45.455766 79.424974 45.037239 79.931641 44.503906 C 80.438307 43.970573 80.832568 43.354916 81.115234 42.65625 C 81.403234 41.952251 81.548828 41.20039 81.548828 40.400391 C 81.548828 39.600391 81.403234 38.85101 81.115234 38.152344 C 80.832568 37.448344 80.438307 36.830208 79.931641 36.296875 C 79.424974 35.763542 78.838541 35.347494 78.171875 35.048828 C 77.505209 34.744828 76.79001 34.591797 76.027344 34.591797 z M 34.867188 34.695312 C 34.248521 34.695312 33.671479 34.831516 33.132812 35.103516 C 32.59948 35.375515 32.169083 35.752422 31.84375 36.232422 C 31.518417 36.712421 31.355469 37.264672 31.355469 37.888672 C 31.355469 38.438005 31.506021 38.949162 31.804688 39.423828 C 32.103354 39.898494 32.546146 40.307105 33.132812 40.648438 C 33.719479 40.98977 34.444595 41.237912 35.308594 41.392578 C 35.65526 41.451245 35.976724 41.604802 36.275391 41.855469 C 36.574057 42.100802 36.724609 42.390037 36.724609 42.720703 C 36.724609 42.944703 36.649333 43.136875 36.5 43.296875 C 36.350667 43.456875 36.160974 43.578729 35.931641 43.664062 C 35.707641 43.749396 35.478807 43.792969 35.244141 43.792969 C 34.940141 43.792969 34.631073 43.722651 34.316406 43.583984 C 34.007073 43.445318 33.729708 43.28237 33.484375 43.095703 C 33.244375 42.909037 33.076469 42.746088 32.980469 42.607422 L 30.996094 43.96875 C 31.284093 44.390083 31.665959 44.769995 32.140625 45.111328 C 32.615291 45.447328 33.126448 45.714776 33.675781 45.912109 C 34.225114 46.109443 34.753099 46.207031 35.259766 46.207031 C 35.953098 46.207031 36.590542 46.058432 37.171875 45.759766 C 37.758541 45.461099 38.228078 45.047531 38.580078 44.519531 C 38.937411 43.991532 39.115234 43.385791 39.115234 42.703125 C 39.115234 41.951126 38.923062 41.332989 38.539062 40.847656 C 38.155063 40.35699 37.641426 39.957771 36.996094 39.648438 C 36.350761 39.339104 35.635562 39.086005 34.851562 38.888672 C 34.680896 38.846005 34.51051 38.778167 34.339844 38.6875 C 34.174511 38.5915 34.035828 38.477083 33.923828 38.34375 C 33.811828 38.205083 33.755859 38.054005 33.755859 37.888672 C 33.755859 37.728672 33.811828 37.589989 33.923828 37.472656 C 34.041161 37.355323 34.184802 37.265698 34.355469 37.207031 C 34.526135 37.143031 34.694042 37.111328 34.859375 37.111328 C 35.083375 37.111328 35.333995 37.169776 35.611328 37.287109 C 35.893995 37.399109 36.098037 37.593761 36.220703 37.871094 L 38.404297 36.847656 C 38.228297 36.458323 37.965807 36.100724 37.619141 35.775391 C 37.272474 35.450058 36.865817 35.189521 36.396484 34.992188 C 35.927152 34.794854 35.41652 34.695312 34.867188 34.695312 z M 4.1640625 34.800781 L 4.1640625 46 L 7.8769531 46 C 8.6502857 46 9.3729225 45.856359 10.044922 45.568359 C 10.722255 45.275026 11.316126 44.871374 11.828125 44.359375 C 12.345458 43.842042 12.747157 43.248171 13.035156 42.576172 C 13.328489 41.898839 13.476562 41.173723 13.476562 40.400391 C 13.476562 39.627058 13.328489 38.904421 13.035156 38.232422 C 12.747157 37.555089 12.345458 36.959265 11.828125 36.447266 C 11.316126 35.929933 10.722255 35.528234 10.044922 35.240234 C 9.3729225 34.946901 8.6502857 34.800781 7.8769531 34.800781 L 4.1640625 34.800781 z M 14.916016 34.800781 L 14.916016 46 L 17.316406 46 L 17.316406 34.800781 L 14.916016 34.800781 z M 44.396484 34.800781 L 44.396484 41.328125 C 44.396484 42.229457 44.588657 43.051636 44.972656 43.792969 C 45.361989 44.528968 45.897412 45.115401 46.580078 45.552734 C 47.268077 45.990067 48.059079 46.207031 48.955078 46.207031 C 49.627077 46.207031 50.242209 46.082698 50.796875 45.832031 C 51.351541 45.581365 51.830995 45.231203 52.236328 44.783203 C 52.641661 44.335204 52.953209 43.819088 53.171875 43.232422 C 53.390541 42.640422 53.5 42.005458 53.5 41.328125 L 53.5 34.800781 L 51.099609 34.800781 L 51.099609 41.328125 C 51.099609 41.786791 51.016896 42.205318 50.851562 42.583984 C 50.686229 42.957317 50.443047 43.256469 50.123047 43.480469 C 49.803047 43.699135 49.413744 43.808594 48.955078 43.808594 C 48.501745 43.808594 48.112442 43.696656 47.787109 43.472656 C 47.46711 43.248656 47.223401 42.949505 47.052734 42.576172 C 46.882068 42.197506 46.796875 41.781458 46.796875 41.328125 L 46.796875 34.800781 L 44.396484 34.800781 z M 55.179688 34.800781 L 55.179688 46 L 57.580078 46 L 57.580078 39.136719 L 61.675781 46 L 64.267578 46 L 64.267578 34.800781 L 61.867188 34.800781 L 61.867188 41.664062 L 57.771484 34.800781 L 55.179688 34.800781 z M 66.427734 34.800781 L 66.427734 46 L 68.828125 46 L 68.828125 34.800781 L 66.427734 34.800781 z M 82.748047 34.800781 L 82.748047 46 L 85.148438 46 L 85.148438 39.136719 L 89.244141 46 L 91.835938 46 L 91.835938 34.800781 L 89.435547 34.800781 L 89.435547 41.664062 L 85.339844 34.800781 L 82.748047 34.800781 z M 24.515625 36.992188 C 24.942291 36.992187 25.343464 37.082339 25.716797 37.263672 C 26.095463 37.439672 26.428797 37.685334 26.716797 38 C 27.004797 38.309333 27.228672 38.669412 27.388672 39.080078 C 27.554005 39.490744 27.636719 39.931058 27.636719 40.400391 C 27.636719 40.869723 27.554005 41.310037 27.388672 41.720703 C 27.228672 42.131369 27.004797 42.493927 26.716797 42.808594 C 26.428797 43.117927 26.095463 43.363589 25.716797 43.544922 C 25.343464 43.720922 24.942291 43.808594 24.515625 43.808594 C 24.088959 43.808594 23.68726 43.720922 23.308594 43.544922 C 22.935261 43.363589 22.604406 43.117927 22.316406 42.808594 C 22.028407 42.493927 21.802052 42.131369 21.636719 41.720703 C 21.476719 41.310037 21.396484 40.869723 21.396484 40.400391 C 21.396484 39.931058 21.476719 39.490744 21.636719 39.080078 C 21.802052 38.669412 22.028407 38.309333 22.316406 38 C 22.604406 37.685334 22.935261 37.439672 23.308594 37.263672 C 23.68726 37.082339 24.088959 36.992188 24.515625 36.992188 z M 76.027344 36.992188 C 76.45401 36.992187 76.855183 37.082339 77.228516 37.263672 C 77.607182 37.439672 77.940516 37.685334 78.228516 38 C 78.516515 38.309333 78.740391 38.669412 78.900391 39.080078 C 79.065724 39.490744 79.148438 39.931058 79.148438 40.400391 C 79.148437 40.869723 79.065724 41.310037 78.900391 41.720703 C 78.740391 42.131369 78.516515 42.493927 78.228516 42.808594 C 77.940516 43.117927 77.607182 43.363589 77.228516 43.544922 C 76.855183 43.720922 76.45401 43.808594 76.027344 43.808594 C 75.600678 43.808594 75.198979 43.720922 74.820312 43.544922 C 74.44698 43.363589 74.116125 43.117927 73.828125 42.808594 C 73.540125 42.493927 73.313771 42.131369 73.148438 41.720703 C 72.988438 41.310037 72.908203 40.869723 72.908203 40.400391 C 72.908203 39.931058 72.988438 39.490744 73.148438 39.080078 C 73.313771 38.669412 73.540125 38.309333 73.828125 38 C 74.116125 37.685334 74.44698 37.439672 74.820312 37.263672 C 75.198979 37.082339 75.600678 36.992188 76.027344 36.992188 z M 6.5644531 37.199219 L 7.8769531 37.199219 C 8.314286 37.199219 8.7234223 37.281932 9.1074219 37.447266 C 9.4914215 37.612599 9.831667 37.845865 10.125 38.144531 C 10.423666 38.437864 10.654979 38.776157 10.820312 39.160156 C 10.990979 39.544156 11.076172 39.957724 11.076172 40.400391 C 11.076172 40.843057 10.990979 41.259105 10.820312 41.648438 C 10.654979 42.032437 10.423666 42.370729 10.125 42.664062 C 9.8263336 42.957396 9.483609 43.186229 9.0996094 43.351562 C 8.7156098 43.516896 8.3089527 43.599609 7.8769531 43.599609 L 6.5644531 43.599609 L 6.5644531 37.199219 z M 12.136719 49.800781 L 12.136719 61 L 18.935547 61 L 18.935547 58.599609 L 14.535156 58.599609 L 14.535156 49.800781 L 12.136719 49.800781 z M 20.935547 49.800781 L 20.935547 61 L 23.335938 61 L 23.335938 49.800781 L 20.935547 49.800781 z M 25.496094 49.800781 L 25.496094 61 L 30.34375 61 C 30.935749 61 31.471172 60.856359 31.951172 60.568359 C 32.436505 60.28036 32.823328 59.893536 33.111328 59.408203 C 33.399328 58.92287 33.544922 58.387447 33.544922 57.800781 C 33.544922 57.102115 33.343359 56.477067 32.943359 55.927734 C 32.54336 55.378402 32.032203 54.996536 31.408203 54.783203 C 31.829536 54.559203 32.170308 54.240218 32.431641 53.824219 C 32.692974 53.408219 32.824219 52.946119 32.824219 52.439453 C 32.824219 51.95412 32.704844 51.511328 32.464844 51.111328 C 32.230177 50.711329 31.911718 50.394823 31.511719 50.160156 C 31.111719 49.920156 30.668927 49.800781 30.183594 49.800781 L 25.496094 49.800781 z M 34.744141 49.800781 L 34.744141 61 L 41.880859 61 L 41.880859 58.599609 L 37.144531 58.599609 L 37.144531 56.199219 L 40.791016 56.199219 L 40.791016 53.800781 L 37.144531 53.800781 L 37.144531 52.199219 L 41.880859 52.199219 L 41.880859 49.800781 L 34.744141 49.800781 z M 43.640625 49.800781 L 43.640625 61 L 46.039062 61 L 46.039062 56.648438 L 46.871094 56.648438 L 49.400391 61 L 52.167969 61 L 49.511719 56.423828 C 49.911718 56.231828 50.259401 55.978729 50.552734 55.664062 C 50.851401 55.344063 51.080235 54.979026 51.240234 54.568359 C 51.400234 54.15236 51.480469 53.704609 51.480469 53.224609 C 51.480469 52.60061 51.332396 52.029052 51.039062 51.511719 C 50.751063 50.989053 50.359281 50.573005 49.863281 50.263672 C 49.367282 49.954339 48.812551 49.800781 48.199219 49.800781 L 43.640625 49.800781 z M 53.447266 49.800781 L 53.447266 61 L 57.160156 61 C 57.933489 61 58.656126 60.856359 59.328125 60.568359 C 60.005458 60.275026 60.599329 59.871374 61.111328 59.359375 C 61.628661 58.842042 62.032313 58.248171 62.320312 57.576172 C 62.613646 56.898839 62.759766 56.173723 62.759766 55.400391 C 62.759766 54.627058 62.613646 53.904421 62.320312 53.232422 C 62.032313 52.555089 61.628661 51.959265 61.111328 51.447266 C 60.599329 50.929933 60.005458 50.528234 59.328125 50.240234 C 58.656126 49.946901 57.933489 49.800781 57.160156 49.800781 L 53.447266 49.800781 z M 66.984375 49.800781 L 62.919922 61 L 65.464844 61 L 66.103516 59.240234 L 70.568359 59.240234 L 71.207031 61 L 73.751953 61 L 69.6875 49.800781 L 66.984375 49.800781 z M 75.03125 49.800781 L 75.03125 61 L 78.744141 61 C 79.517473 61 80.24011 60.856359 80.912109 60.568359 C 81.589442 60.275026 82.183313 59.871374 82.695312 59.359375 C 83.212645 58.842042 83.616297 58.248171 83.904297 57.576172 C 84.19763 56.898839 84.34375 56.173723 84.34375 55.400391 C 84.34375 54.627058 84.19763 53.904421 83.904297 53.232422 C 83.616297 52.555089 83.212645 51.959265 82.695312 51.447266 C 82.183313 50.929933 81.589442 50.528234 80.912109 50.240234 C 80.24011 49.946901 79.517473 49.800781 78.744141 49.800781 L 75.03125 49.800781 z M 27.888672 51.800781 L 29.544922 51.800781 C 29.742255 51.800781 29.920078 51.849839 30.080078 51.951172 C 30.245411 52.047172 30.376656 52.180896 30.472656 52.351562 C 30.568656 52.516896 30.615234 52.706589 30.615234 52.919922 C 30.615234 53.117255 30.568656 53.299511 30.472656 53.464844 C 30.376656 53.630177 30.245411 53.759469 30.080078 53.855469 C 29.920078 53.951469 29.742255 54 29.544922 54 L 27.888672 54 L 27.888672 51.800781 z M 46.039062 51.847656 L 47.912109 51.847656 C 48.125442 51.847656 48.320094 51.903625 48.496094 52.015625 C 48.672094 52.122292 48.813255 52.265932 48.919922 52.447266 C 49.026588 52.628599 49.080078 52.830162 49.080078 53.048828 C 49.080078 53.267495 49.026588 53.467104 48.919922 53.648438 C 48.813255 53.829771 48.672094 53.975891 48.496094 54.087891 C 48.320094 54.194557 48.125442 54.248047 47.912109 54.248047 L 46.039062 54.248047 L 46.039062 51.847656 z M 55.847656 52.199219 L 57.160156 52.199219 C 57.597489 52.199219 58.008579 52.281932 58.392578 52.447266 C 58.776578 52.612599 59.11487 52.845865 59.408203 53.144531 C 59.706869 53.437864 59.938182 53.776157 60.103516 54.160156 C 60.274182 54.544156 60.359375 54.957724 60.359375 55.400391 C 60.359375 55.843057 60.274182 56.259105 60.103516 56.648438 C 59.938182 57.032437 59.706869 57.370729 59.408203 57.664062 C 59.109537 57.957396 58.768765 58.186229 58.384766 58.351562 C 58.000766 58.516896 57.592156 58.599609 57.160156 58.599609 L 55.847656 58.599609 L 55.847656 52.199219 z M 77.431641 52.199219 L 78.744141 52.199219 C 79.181474 52.199219 79.592563 52.281932 79.976562 52.447266 C 80.360562 52.612599 80.698854 52.845865 80.992188 53.144531 C 81.290854 53.437864 81.522167 53.776157 81.6875 54.160156 C 81.858166 54.544156 81.943359 54.957724 81.943359 55.400391 C 81.943359 55.843057 81.858166 56.259105 81.6875 56.648438 C 81.522167 57.032437 81.290854 57.370729 80.992188 57.664062 C 80.693521 57.957396 80.35275 58.186229 79.96875 58.351562 C 79.58475 58.516896 79.17614 58.599609 78.744141 58.599609 L 77.431641 58.599609 L 77.431641 52.199219 z M 68.328125 53.128906 L 69.6875 56.839844 L 66.984375 56.839844 L 68.328125 53.128906 z M 27.888672 56 L 29.935547 56 C 30.207547 56 30.455688 56.065886 30.679688 56.199219 C 30.903687 56.332552 31.083464 56.514808 31.216797 56.744141 C 31.35013 56.973474 31.416016 57.229052 31.416016 57.511719 C 31.416016 57.783718 31.35013 58.034339 31.216797 58.263672 C 31.083464 58.487672 30.903687 58.667448 30.679688 58.800781 C 30.455688 58.934114 30.207547 59 29.935547 59 L 27.888672 59 L 27.888672 56 z " />
  </g>
</svg>
