<svg height="888.88934" viewBox="0 0 1333.3333 888.88934" width="1333.3333" xmlns="http://www.w3.org/2000/svg"><path d="m0 0h1000v666.667h-1000z" fill="#00247d" transform="matrix(1.3333333 0 0 -1.3333333 0 888.88933)"/><path d="m0 0-168.089-112.059 48.411-32.274 168.089 112.059v32.274zm-384.589 0v-32.274l168.089-112.059 48.411 32.274-168.089 112.059zm0-256.392v-32.275h48.411l168.089 112.06-48.411 32.274zm216.5 79.785 168.089-112.06h48.411v32.274l-168.089 112.06z" fill="#fff" transform="matrix(1.3333333 0 0 -1.3333333 512.7852 .000133)"/><path d="m0 0v-96.223h-180.417v-96.221h180.417v-96.223h72.166v96.223h180.417v96.221h-180.417v96.223z" fill="#fff" transform="matrix(1.3333333 0 0 -1.3333333 240.5556 .000133)"/><path d="m0 0v-115.467h-194.85v-57.733h194.85v-115.467h43.3v115.467h194.85v57.733h-194.85v115.467z" fill="#cf142b" transform="matrix(1.3333333 0 0 -1.3333333 259.8 .000133)"/><path d="m0 0-144.334-96.223h32.274l144.333 96.223zm-400.727 0v-21.516l112.06-74.707h32.274zm288.667-192.444 144.333-96.223v21.516l-112.06 74.707zm-144.333 0-144.334-96.223h32.274l144.333 96.223z" fill="#cf142b" transform="matrix(1.3333333 0 0 -1.3333333 534.3024 .000133)"/><g fill="#fff"><path d="m0 0 17.575-54.644 53.68 20.33-31.765-47.811 49.364-29.294-57.185-4.975 7.874-56.857-39.543 41.606-39.543-41.606 7.875 56.857-57.185 4.975 49.363 29.294-31.764 47.811 53.679-20.33z" transform="matrix(1.3333333 0 0 -1.3333333 287.9564 540.86507)"/><path d="m0 0 8.369-26.021 25.563 9.681-15.126-22.766 23.506-13.95-27.231-2.369 3.75-27.075-18.831 19.812-18.83-19.812 3.75 27.075-27.231 2.369 23.506 13.95-15.126 22.766 25.563-9.681z" transform="matrix(1.3333333 0 0 -1.3333333 979.40627 661.36107)"/><path d="m0 0 8.369-26.021 25.562 9.681-15.126-22.767 23.507-13.95-27.232-2.369 3.75-27.074-18.83 19.812-18.83-19.812 3.75 27.074-27.231 2.369 23.506 13.95-15.126 22.767 25.562-9.681z" transform="matrix(1.3333333 0 0 -1.3333333 776.8776 340.6892)"/><path d="m0 0 8.369-26.021 25.563 9.681-15.126-22.767 23.506-13.95-27.231-2.368 3.75-27.076-18.831 19.813-18.83-19.813 3.75 27.076-27.231 2.368 23.506 13.95-15.126 22.767 25.563-9.681z" transform="matrix(1.3333333 0 0 -1.3333333 979.40627 121.28227)"/><path d="m0 0 8.369-26.021 25.563 9.681-15.126-22.767 23.506-13.95-27.231-2.369 3.75-27.074-18.831 19.812-18.83-19.812 3.75 27.074-27.231 2.369 23.506 13.95-15.126 22.767 25.563-9.681z" transform="matrix(1.3333333 0 0 -1.3333333 1159.4323 286.68147)"/><path d="m0 0 6.614-16.214 17.463-1.279-13.376-11.3 4.18-17.005-14.881 9.23-14.88-9.23 4.18 17.005-13.376 11.3 17.463 1.279z" transform="matrix(1.3333333 0 0 -1.3333333 1060.418 449.18667)"/></g></svg>