<?xml version="1.0" encoding="UTF-8" standalone="no"?>
<svg
   height="888.88934"
   viewBox="0 0 888.88901 888.88934"
   width="888.88898"
   version="1.1"
   id="svg11"
   sodipodi:docname="rect copy.svg"
   inkscape:version="1.4 (e7c3feb1, 2024-10-09)"
   xmlns:inkscape="http://www.inkscape.org/namespaces/inkscape"
   xmlns:sodipodi="http://sodipodi.sourceforge.net/DTD/sodipodi-0.dtd"
   xmlns="http://www.w3.org/2000/svg"
   xmlns:svg="http://www.w3.org/2000/svg">
  <defs
     id="defs11" />
  <sodipodi:namedview
     id="namedview11"
     pagecolor="#ffffff"
     bordercolor="#000000"
     borderopacity="0.25"
     inkscape:showpageshadow="2"
     inkscape:pageopacity="0.0"
     inkscape:pagecheckerboard="0"
     inkscape:deskcolor="#d1d1d1"
     inkscape:current-layer="svg11" />
  <g
     id="g13"
     transform="scale(0.66666677,1)">
    <path
       d="M 0,0 H 1000 V 666.667 H 0 Z"
       fill="#00247d"
       transform="matrix(1.3333333,0,0,-1.3333333,0,888.88933)"
       id="path1" />
  </g>
  <path
     d="m 192.44879,540.86507 23.43333,72.85866 71.57333,-27.10666 -42.35333,63.748 65.81867,39.05866 -76.24667,6.63334 10.49867,75.80933 -52.724,-55.47467 -52.724,55.47467 10.5,-75.80933 -76.246657,-6.63334 65.817327,-39.05866 -42.351997,-63.748 71.571997,27.10666 z"
     id="path6"
     style="fill:#ffffff;stroke-width:1.33333" />
  <g
     id="g14"
     transform="matrix(0.94875632,0,0,0.94875632,-281.08083,20.994166)">
    <path
       d="m 979.40627,661.36107 11.15867,34.69467 34.08396,-12.908 -20.168,30.35466 31.3414,18.6 -36.30803,3.15867 5.00003,36.1 -25.10803,-26.416 -25.10667,26.416 5,-36.1 -36.308,-3.15867 31.34134,-18.6 -20.168,-30.35466 34.084,12.908 z"
       id="path7"
       style="fill:#ffffff;stroke-width:1.33333" />
    <path
       d="m 776.8776,340.6892 11.15867,34.69467 34.08266,-12.908 -20.168,30.356 31.34267,18.59999 -36.30933,3.15867 5,36.09867 -25.10667,-26.416 -25.10667,26.416 5,-36.09867 -36.308,-3.15867 31.34134,-18.59999 -20.168,-30.356 34.08266,12.908 z"
       id="path8"
       style="fill:#ffffff;stroke-width:1.33333" />
    <path
       d="m 979.40627,121.28227 11.15867,34.69467 34.08396,-12.908 -20.168,30.356 31.3414,18.59999 -36.30803,3.15734 5.00003,36.10133 -25.10803,-26.41733 -25.10667,26.41733 5,-36.10133 -36.308,-3.15734 31.34134,-18.59999 -20.168,-30.356 34.084,12.908 z"
       id="path9"
       style="fill:#ffffff;stroke-width:1.33333" />
    <path
       d="m 1159.4323,286.68147 11.1587,34.69467 34.084,-12.908 -20.168,30.356 31.3413,18.59999 -36.308,3.15867 5,36.09867 -25.108,-26.416 -25.1067,26.416 5,-36.09867 -36.308,-3.15867 31.3414,-18.59999 -20.168,-30.356 34.084,12.908 z"
       id="path10"
       style="fill:#ffffff;stroke-width:1.33333" />
    <path
       d="m 1060.418,449.18667 8.8187,21.61867 23.284,1.70533 -17.8347,15.06667 5.5733,22.67333 -19.8413,-12.30667 -19.84,12.30667 5.5733,-22.67333 -17.8346,-15.06667 23.284,-1.70533 z"
       id="path11"
       style="fill:#ffffff;stroke-width:1.33333" />
  </g>
  <g
     id="g12"
     transform="matrix(4.0093646,0,0,4.0093646,-2529.9091,1615.7739)">
    <path
       d="m 631,-403 v 13.57824 L 665.42368,-355 631,-320.57824 V -307 h 13.57824 L 679,-341.42368 713.42176,-307 H 727 v -13.57824 L 692.57632,-355 727,-389.42176 V -403 H 713.42176 L 679,-368.57632 644.57824,-403 Z"
       fill="#ffffff"
       id="path2-9"
       style="stroke-width:0.32" />
    <path
       d="m 631,-403 v 9 l 23,23 h 9 z m 87,0 -23,23 v 9 l 32,-32 z m -55,64 -32,32 h 9 l 23,-23 z m 32,0 32,32 v -9 l -23,-23 z"
       fill="#cf142b"
       stroke-linecap="round"
       stroke-linejoin="round"
       stroke-width="0.5"
       id="path3-3" />
    <path
       d="m 679,-403 v 96 m -48,-48 h 96"
       stroke="#ffffff"
       stroke-width="32"
       id="path4-7" />
    <path
       d="m 679,-403 v 96 m -48,-48 h 96"
       stroke="#cf142b"
       stroke-width="19.2"
       id="path5-4" />
  </g>
</svg>
