<svg height="888.88934" viewBox="0 0 888.88901 888.88934" width="888.88898" xmlns="http://www.w3.org/2000/svg"><path d="m0 0h1000v666.667h-1000z" fill="#00247d" transform="matrix(.888889 0 0 -1.3333333 0 888.88933)"/><path d="m192.44879 540.86507 23.43333 72.85866 71.57333-27.10666-42.35333 63.748 65.81867 39.05866-76.24667 6.63334 10.49867 75.80933-52.724-55.47467-52.724 55.47467 10.5-75.80933-76.246657-6.63334 65.817327-39.05866-42.351997-63.748 71.571997 27.10666z" fill="#fff" stroke-width="1.33333"/><g fill="#fff" stroke-width="1.33333" transform="matrix(.94875632 0 0 .94875632 -281.08083 20.994166)"><path d="m979.40627 661.36107 11.15867 34.69467 34.08396-12.908-20.168 30.35466 31.3414 18.6-36.30803 3.15867 5.00003 36.1-25.10803-26.416-25.10667 26.416 5-36.1-36.308-3.15867 31.34134-18.6-20.168-30.35466 34.084 12.908z"/><path d="m776.8776 340.6892 11.15867 34.69467 34.08266-12.908-20.168 30.356 31.34267 18.59999-36.30933 3.15867 5 36.09867-25.10667-26.416-25.10667 26.416 5-36.09867-36.308-3.15867 31.34134-18.59999-20.168-30.356 34.08266 12.908z"/><path d="m979.40627 121.28227 11.15867 34.69467 34.08396-12.908-20.168 30.356 31.3414 18.59999-36.30803 3.15734 5.00003 36.10133-25.10803-26.41733-25.10667 26.41733 5-36.10133-36.308-3.15734 31.34134-18.59999-20.168-30.356 34.084 12.908z"/><path d="m1159.4323 286.68147 11.1587 34.69467 34.084-12.908-20.168 30.356 31.3413 18.59999-36.308 3.15867 5 36.09867-25.108-26.416-25.1067 26.416 5-36.09867-36.308-3.15867 31.3414-18.59999-20.168-30.356 34.084 12.908z"/><path d="m1060.418 449.18667 8.8187 21.61867 23.284 1.70533-17.8347 15.06667 5.5733 22.67333-19.8413-12.30667-19.84 12.30667 5.5733-22.67333-17.8346-15.06667 23.284-1.70533z"/></g><g transform="matrix(4.0093646 0 0 4.0093646 -2529.9091 1615.7739)"><path d="m631-403v13.57824l34.42368 34.42176-34.42368 34.42176v13.57824h13.57824l34.42176-34.42368 34.42176 34.42368h13.57824v-13.57824l-34.42368-34.42176 34.42368-34.42176v-13.57824h-13.57824l-34.42176 34.42368-34.42176-34.42368z" fill="#fff" stroke-width=".32"/><path d="m631-403v9l23 23h9zm87 0-23 23v9l32-32zm-55 64-32 32h9l23-23zm32 0 32 32v-9l-23-23z" fill="#cf142b" stroke-linecap="round" stroke-linejoin="round" stroke-width=".5"/><path d="m679-403v96m-48-48h96" stroke="#fff" stroke-width="32"/><path d="m679-403v96m-48-48h96" stroke="#cf142b" stroke-width="19.2"/></g></svg>