<svg height="888.88934" viewBox="0 0 1333.3333 888.88934" width="1333.3333" xmlns="http://www.w3.org/2000/svg"><path d="m0 0h1000v666.667h-1000z" fill="#00247d" transform="matrix(1.3333333 0 0 -1.3333333 0 888.88933)"/><path d="m0 0-168.089-112.059 48.411-32.274 168.089 112.059v32.274zm-384.589 0v-32.274l168.089-112.059 48.411 32.274-168.089 112.059zm0-256.392v-32.275h48.411l168.089 112.06-48.411 32.274zm216.5 79.785 168.089-112.06h48.411v32.274l-168.089 112.06z" fill="#fff" transform="matrix(1.3333333 0 0 -1.3333333 512.7852 .000133)"/><path d="m0 0v-96.223h-180.417v-96.221h180.417v-96.223h72.166v96.223h180.417v96.221h-180.417v96.223z" fill="#fff" transform="matrix(1.3333333 0 0 -1.3333333 240.5556 .000133)"/><path d="m0 0v-115.467h-194.85v-57.733h194.85v-115.467h43.3v115.467h194.85v57.733h-194.85v115.467z" fill="#cf142b" transform="matrix(1.3333333 0 0 -1.3333333 259.8 .000133)"/><path d="m0 0-144.334-96.223h32.274l144.333 96.223zm-400.727 0v-21.516l112.06-74.707h32.274zm288.667-192.444 144.333-96.223v21.516l-112.06 74.707zm-144.333 0-144.334-96.223h32.274l144.333 96.223z" fill="#cf142b" transform="matrix(1.3333333 0 0 -1.3333333 534.3024 .000133)"/><g fill="#fff"><path d="m0 0v-23.664l47.327 23.664z" transform="matrix(1.3333333 0 0 -1.3333333 986.5664 178.4672)"/><path d="m0 0-13.909 19.145 52.197 8.673z" transform="matrix(1.3333333 0 0 -1.3333333 998.61853 215.5584)"/><path d="m0 0v-23.664l-47.327 23.664z" transform="matrix(1.3333333 0 0 -1.3333333 986.5664 178.4672)"/><path d="m0 0 13.908 19.145-52.197 8.673z" transform="matrix(1.3333333 0 0 -1.3333333 974.5156 215.5584)"/><path d="m0 0-22.505-7.312 37.13-37.699z" transform="matrix(1.3333333 0 0 -1.3333333 1006.0664 192.6352)"/><path d="m0 0 13.909 19.144 24.379-46.962z" transform="matrix(1.3333333 0 0 -1.3333333 974.5156 215.5584)"/><path d="m0 0 22.505-7.312-7.88 52.323z" transform="matrix(1.3333333 0 0 -1.3333333 967.0664 192.6352)"/><path d="m0 0-22.506-7.312 7.881 52.323z" transform="matrix(1.3333333 0 0 -1.3333333 1006.0664 192.6352)"/><path d="m0 0 22.505-7.312-37.13-37.699z" transform="matrix(1.3333333 0 0 -1.3333333 967.0664 192.6352)"/><path d="m0 0-13.908 19.144-24.38-46.962z" transform="matrix(1.3333333 0 0 -1.3333333 998.6172 215.5584)"/></g><path d="m0 0v-15.637l31.273 15.637z" fill="#cc142b" transform="matrix(1.3333333 0 0 -1.3333333 986.5664 185.42227)"/><path d="m0 0-9.19 12.65 34.491 5.732z" fill="#cc142b" transform="matrix(1.3333333 0 0 -1.3333333 994.53 209.93147)"/><path d="m0 0v-15.637l-31.273 15.637z" fill="#cc142b" transform="matrix(1.3333333 0 0 -1.3333333 986.5664 185.42227)"/><path d="m0 0 9.191 12.65-34.492 5.732z" fill="#cc142b" transform="matrix(1.3333333 0 0 -1.3333333 978.6028 209.93147)"/><path d="m0 0-14.871-4.832 24.535-24.911z" fill="#cc142b" transform="matrix(1.3333333 0 0 -1.3333333 999.45187 194.78427)"/><path d="m0 0 9.191 12.65 16.11-31.032z" fill="#cc142b" transform="matrix(1.3333333 0 0 -1.3333333 978.6028 209.93213)"/><path d="m0 0 14.871-4.832-5.207 34.575z" fill="#cc142b" transform="matrix(1.3333333 0 0 -1.3333333 973.68093 194.78427)"/><path d="m0 0-14.871-4.832 5.207 34.575z" fill="#cc142b" transform="matrix(1.3333333 0 0 -1.3333333 999.45187 194.78427)"/><path d="m0 0 14.871-4.832-24.535-24.911z" fill="#cc142b" transform="matrix(1.3333333 0 0 -1.3333333 973.68093 194.78427)"/><path d="m0 0-9.191 12.65-16.11-31.032z" fill="#cc142b" transform="matrix(1.3333333 0 0 -1.3333333 994.53 209.93213)"/><g fill="#fff"><path d="m0 0v-21.058l42.115 21.058z" transform="matrix(1.3333333 0 0 -1.3333333 1151.7344 324.30387)"/><path d="m0 0-12.378 17.036 46.449 7.719z" transform="matrix(1.3333333 0 0 -1.3333333 1162.4596 357.3104)"/><path d="m0 0v-21.058l-42.114 21.058z" transform="matrix(1.3333333 0 0 -1.3333333 1151.7344 324.30387)"/><path d="m0 0 12.378 17.036-46.449 7.719z" transform="matrix(1.3333333 0 0 -1.3333333 1141.0104 357.3104)"/><path d="m0 0-20.026-6.507 33.041-33.547z" transform="matrix(1.3333333 0 0 -1.3333333 1169.0872 336.91187)"/><path d="m0 0 12.378 17.036 21.694-41.791z" transform="matrix(1.3333333 0 0 -1.3333333 1141.0104 357.3104)"/><path d="m0 0 20.026-6.507-7.012 46.561z" transform="matrix(1.3333333 0 0 -1.3333333 1134.3828 336.91187)"/><path d="m0 0-20.027-6.507 7.012 46.561z" transform="matrix(1.3333333 0 0 -1.3333333 1169.0872 336.91187)"/><path d="m0 0 20.026-6.507-33.041-33.547z" transform="matrix(1.3333333 0 0 -1.3333333 1134.3828 336.91187)"/><path d="m0 0-12.378 17.036-21.694-41.791z" transform="matrix(1.3333333 0 0 -1.3333333 1162.4596 357.3104)"/></g><path d="m0 0v-13.031l26.062 13.031z" fill="#cc142b" transform="matrix(1.3333333 0 0 -1.3333333 1151.7344 331.25893)"/><path d="m0 0-7.659 10.542 28.743 4.777z" fill="#cc142b" transform="matrix(1.3333333 0 0 -1.3333333 1158.3711 351.684)"/><path d="m0 0v-13.031l-26.061 13.031z" fill="#cc142b" transform="matrix(1.3333333 0 0 -1.3333333 1151.7344 331.25893)"/><path d="m0 0 7.659 10.542-28.743 4.777z" fill="#cc142b" transform="matrix(1.3333333 0 0 -1.3333333 1145.0989 351.684)"/><path d="m0 0-12.393-4.027 20.447-20.759z" fill="#cc142b" transform="matrix(1.3333333 0 0 -1.3333333 1162.4727 339.0604)"/><path d="m0 0 7.659 10.542 13.425-25.86z" fill="#cc142b" transform="matrix(1.3333333 0 0 -1.3333333 1145.0989 351.684)"/><path d="m0 0 12.393-4.027-4.34 28.813z" fill="#cc142b" transform="matrix(1.3333333 0 0 -1.3333333 1140.9973 339.0604)"/><path d="m0 0-12.393-4.027 4.339 28.813z" fill="#cc142b" transform="matrix(1.3333333 0 0 -1.3333333 1162.4727 339.0604)"/><path d="m0 0 12.393-4.027-20.447-20.759z" fill="#cc142b" transform="matrix(1.3333333 0 0 -1.3333333 1140.9973 339.0604)"/><path d="m0 0-7.659 10.542-13.425-25.86z" fill="#cc142b" transform="matrix(1.3333333 0 0 -1.3333333 1158.3711 351.684)"/><g fill="#fff"><path d="m0 0v-23.664l47.327 23.664z" transform="matrix(1.3333333 0 0 -1.3333333 793.86973 372.34027)"/><path d="m0 0-13.909 19.145 52.197 8.673z" transform="matrix(1.3333333 0 0 -1.3333333 805.92187 409.43147)"/><path d="m0 0v-23.664l-47.327 23.664z" transform="matrix(1.3333333 0 0 -1.3333333 793.86973 372.34027)"/><path d="m0 0 13.909 19.145-52.198 8.673z" transform="matrix(1.3333333 0 0 -1.3333333 781.81907 409.43147)"/><path d="m0 0-22.505-7.312 37.13-37.699z" transform="matrix(1.3333333 0 0 -1.3333333 813.36973 386.50827)"/><path d="m0 0 13.909 19.144 24.379-46.962z" transform="matrix(1.3333333 0 0 -1.3333333 781.81907 409.43147)"/><path d="m0 0 22.506-7.312-7.881 52.323z" transform="matrix(1.3333333 0 0 -1.3333333 774.36973 386.50827)"/><path d="m0 0-22.506-7.312 7.881 52.323z" transform="matrix(1.3333333 0 0 -1.3333333 813.36973 386.50827)"/><path d="m0 0 22.506-7.312-37.131-37.699z" transform="matrix(1.3333333 0 0 -1.3333333 774.36973 386.50827)"/><path d="m0 0-13.909 19.144-24.38-46.962z" transform="matrix(1.3333333 0 0 -1.3333333 805.92187 409.43147)"/></g><path d="m0 0v-15.637l31.273 15.637z" fill="#cc142b" transform="matrix(1.3333333 0 0 -1.3333333 793.86973 379.296)"/><path d="m0 0-9.19 12.65 34.491 5.732z" fill="#cc142b" transform="matrix(1.3333333 0 0 -1.3333333 801.83333 403.8052)"/><path d="m0 0v-15.637l-31.273 15.637z" fill="#cc142b" transform="matrix(1.3333333 0 0 -1.3333333 793.86973 379.296)"/><path d="m0 0 9.191 12.65-34.492 5.732z" fill="#cc142b" transform="matrix(1.3333333 0 0 -1.3333333 785.90627 403.8052)"/><path d="m0 0-14.871-4.832 24.535-24.91z" fill="#cc142b" transform="matrix(1.3333333 0 0 -1.3333333 806.7552 388.658)"/><path d="m0 0 9.191 12.65 16.11-31.032z" fill="#cc142b" transform="matrix(1.3333333 0 0 -1.3333333 785.90627 403.8052)"/><path d="m0 0 14.871-4.832-5.207 34.575z" fill="#cc142b" transform="matrix(1.3333333 0 0 -1.3333333 780.9844 388.658)"/><path d="m0 0-14.871-4.832 5.207 34.575z" fill="#cc142b" transform="matrix(1.3333333 0 0 -1.3333333 806.7552 388.658)"/><path d="m0 0 14.871-4.832-24.535-24.91z" fill="#cc142b" transform="matrix(1.3333333 0 0 -1.3333333 780.9844 388.658)"/><path d="m0 0-9.19 12.65-16.111-31.032z" fill="#cc142b" transform="matrix(1.3333333 0 0 -1.3333333 801.83333 403.8052)"/><g fill="#fff"><path d="m0 0v-26.27l52.539 26.27z" transform="matrix(1.3333333 0 0 -1.3333333 986.5664 676.58373)"/><path d="m0 0-15.44 21.253 57.945 9.629z" transform="matrix(1.3333333 0 0 -1.3333333 999.94533 717.7596)"/><path d="m0 0v-26.27l-52.539 26.27z" transform="matrix(1.3333333 0 0 -1.3333333 986.5664 676.58373)"/><path d="m0 0 15.441 21.253-57.946 9.629z" transform="matrix(1.3333333 0 0 -1.3333333 973.18747 717.7596)"/><path d="m0 0-24.984-8.118 41.219-41.85z" transform="matrix(1.3333333 0 0 -1.3333333 1008.2148 692.3116)"/><path d="m0 0 15.441 21.252 27.065-52.134z" transform="matrix(1.3333333 0 0 -1.3333333 973.18747 717.7596)"/><path d="m0 0 24.983-8.118-8.748 58.086z" transform="matrix(1.3333333 0 0 -1.3333333 964.91933 692.3116)"/><path d="m0 0-24.984-8.118 8.749 58.086z" transform="matrix(1.3333333 0 0 -1.3333333 1008.2136 692.3116)"/><path d="m0 0 24.983-8.118-41.219-41.85z" transform="matrix(1.3333333 0 0 -1.3333333 964.91933 692.3116)"/><path d="m0 0-15.441 21.252-27.065-52.134z" transform="matrix(1.3333333 0 0 -1.3333333 999.94533 717.7596)"/></g><path d="m0 0v-18.242l36.485 18.242z" fill="#cc142b" transform="matrix(1.3333333 0 0 -1.3333333 986.5664 683.53947)"/><path d="m0 0-10.723 14.759 40.241 6.686z" fill="#cc142b" transform="matrix(1.3333333 0 0 -1.3333333 995.8568 712.1332)"/><path d="m0 0v-18.242l-36.485 18.242z" fill="#cc142b" transform="matrix(1.3333333 0 0 -1.3333333 986.5664 683.53947)"/><path d="m0 0 10.723 14.759-40.241 6.686z" fill="#cc142b" transform="matrix(1.3333333 0 0 -1.3333333 977.276 712.1332)"/><path d="m0 0-17.351-5.638 28.625-29.062z" fill="#cc142b" transform="matrix(1.3333333 0 0 -1.3333333 1001.6003 694.46133)"/><path d="m0 0 10.723 14.759 18.795-36.205z" fill="#cc142b" transform="matrix(1.3333333 0 0 -1.3333333 977.276 712.1332)"/><path d="m0 0 17.35-5.638-6.076 40.338z" fill="#cc142b" transform="matrix(1.3333333 0 0 -1.3333333 971.53387 694.46133)"/><path d="m0 0-17.35-5.638 6.076 40.338z" fill="#cc142b" transform="matrix(1.3333333 0 0 -1.3333333 1001.5989 694.46133)"/><path d="m0 0 17.35-5.638-28.625-29.062z" fill="#cc142b" transform="matrix(1.3333333 0 0 -1.3333333 971.53387 694.46133)"/><path d="m0 0-10.723 14.759-18.795-36.205z" fill="#cc142b" transform="matrix(1.3333333 0 0 -1.3333333 995.8568 712.1332)"/></svg>