<?xml version="1.0" encoding="UTF-8" standalone="no"?>
<svg
   width="1050"
   height="700"
   viewBox="-2100 -1470 4410 2940"
   version="1.1"
   id="svg1072"
   xmlns:xlink="http://www.w3.org/1999/xlink"
   xmlns="http://www.w3.org/2000/svg"
   xmlns:svg="http://www.w3.org/2000/svg">
  <defs
     id="defs5783">
    <g
       id="G">
      <clipPath
         id="g">
        <path
           d="m -31.5,0 v -70 h 63 V 0 Z M 0,-47 v 12 h 31.5 v -12 z"
           id="path923" />
      </clipPath>
      <use
         clip-path="url(#g)"
         xlink:href="#O"
         id="use926" />
      <path
         d="m 5,-35 h 26.5 v 10 H 5 Z"
         id="path928" />
      <path
         d="m 21.5,-35 h 10 V 0 h -10 z"
         id="path930" />
    </g>
    <g
       id="s"
       fill="#fff">
      <g
         id="c">
        <path
           id="t"
           transform="rotate(18,0,-1)"
           d="M 0,-1 V 0 H 0.5" />
        <use
           transform="scale(-1,1)"
           xlink:href="#t"
           id="use939" />
      </g>
      <use
         transform="rotate(72)"
         xlink:href="#c"
         id="use942" />
      <use
         transform="rotate(-72)"
         xlink:href="#c"
         id="use944" />
      <use
         transform="rotate(144)"
         xlink:href="#c"
         id="use946" />
      <use
         transform="rotate(-144)"
         xlink:href="#c"
         id="use948" />
    </g>
    <path
       id="O"
       d="M 0,0 A 31.5,35 0 0 0 0,-70 31.5,35 0 0 0 0,0 m 0,-13 a 18.5,22 0 0 0 0,-44 18.5,22 0 0 0 0,44"
       fill-rule="evenodd" />
  </defs>
  <clipPath
     id="B">
    <circle
       r="735"
       cx="0"
       cy="0"
       id="circle974" />
  </clipPath>
  <g
     id="g8330">
    <path
       d="M -2100,-1470 H 2310 V 1470 H -2100 Z"
       fill="#084"
       id="path977" />
    <path
       d="M -1638,0 105,1113 1848,0 105,-1113 Z"
       fill="#fc0"
       id="path979" />
    <circle
       r="735"
       fill="#217"
       cx="105"
       cy="0"
       id="circle981" />
    <path
       d="m -2205,1470 a 1785,1785 0 0 1 3570,0 h -105 a 1680,1680 0 1 0 -3360,0 z"
       clip-path="url(#B)"
       fill="#ffffff"
       transform="translate(105)"
       id="path983" />
  </g>
</svg>
