<?xml version="1.0" encoding="UTF-8" standalone="no"?>
<svg
   version="1.0"
   width="96"
   height="96"
   viewBox="-2100 -1470 96 96"
   xml:space="preserve"
   id="svg145"
   xmlns:xlink="http://www.w3.org/1999/xlink"
   xmlns="http://www.w3.org/2000/svg"
   xmlns:svg="http://www.w3.org/2000/svg">
  <defs
   id="defs41"><g
     id="a"
     fill="#fff">
      <g
   id="e">
        <path
   id="d"
   transform="rotate(18,3.157,-0.5)"
   d="M 0,0 V 1 H 0.5 Z" />
        <use
   xlink:href="#d"
   transform="scale(-1,1)"
   id="use29" />
      </g>
      <use
   xlink:href="#e"
   transform="rotate(72)"
   id="use32" />
      <use
   xlink:href="#e"
   transform="rotate(-72)"
   id="use34" />
      <use
   xlink:href="#e"
   transform="rotate(144)"
   id="use36" />
      <use
   xlink:href="#e"
   transform="rotate(-144)"
   id="use38" />
    </g></defs>
  <path
   style="fill:#084;stroke-width:6;stroke-linecap:square"
   d="m -2100,-1470 h 96 v 96 h -96 z"
   id="path43" />
  <path
   style="fill:#fc0;fill-opacity:1;stroke-width:6;stroke-linecap:square"
   d="m -2092,-1422 40,-40 40,40 -40,40 z"
   id="path45" />
  <g
   style="display:inline"
   transform="matrix(0.0272,0,0,0.0272,-2052,-1422)"
   id="g143">
    <path
   d="M 698.022,218.738 C 680.148,202.769 663.185,185.596 644.709,170.457 A 1679.7,1679.7 0 0 0 222.911,-82.123 1680.4,1680.4 0 0 0 -90.712,-177.42 1679,1679 0 0 0 -253.947,-201.777 1681,1681 0 0 0 -420.002,-210 a 1681,1681 0 0 0 -166.05,8.222 c -41.288,4.099 -81.987,11.199 -122.667,18.303 A 735,735 0 0 0 -735.002,0 a 735,735 0 0 0 735,735 735,735 0 0 0 698.024,-516.262"
   style="fill:#217;fill-opacity:1;stroke:none;stroke-opacity:1"
   id="path47" />
    <path
   d="m 724.986,101.672 c -4.72,-3.95 -8.969,-8.532 -13.726,-12.43 A 1784.8,1784.8 0 0 0 263.087,-179.12 1786,1786 0 0 0 99.135,-237.838 1785,1785 0 0 0 -243.58,-306.264 1785,1785 0 0 0 -420.002,-315 c -59.174,0 -118.044,2.938 -176.418,8.735 -25.337,2.515 -50.145,7.649 -75.278,11.235 a 735,735 0 0 0 -37.02,111.555 c 40.679,-7.104 81.378,-14.204 122.665,-18.303 A 1681,1681 0 0 1 -420.002,-210 c 55.698,0 111.112,2.767 166.055,8.222 a 1679,1679 0 0 1 322.555,64.394 1680.4,1680.4 0 0 1 302.486,125.292 1679.7,1679.7 0 0 1 273.616,182.549 c 18.476,15.139 35.44,32.312 53.313,48.281 a 735,735 0 0 0 26.964,-117.066"
   style="fill:#fff;fill-opacity:1"
   id="path49" />
    <path
   d="m -0.002,-735 a 735,735 0 0 0 -671.696,439.97 c 25.133,-3.586 49.94,-8.72 75.278,-11.235 a 1785,1785 0 0 1 176.418,-8.735 1784,1784 0 0 1 349.856,34.618 1785,1785 0 0 1 169.281,42.543 1785.7,1785.7 0 0 1 321.405,133.129 1785,1785 0 0 1 290.72,193.952 c 4.757,3.898 9.006,8.48 13.726,12.43 A 735,735 0 0 0 734.998,0 a 735,735 0 0 0 -735,-735"
   style="fill:#217;fill-opacity:1;stroke:none;stroke-opacity:1"
   id="path51" />
    
    
    
    
    
    
    
    
    
    
    
    
    
    
    
    
    
    
    
    
    
    
    
    
    
    
    
    
  </g>
</svg>
