<svg height="235.29333" viewBox="0 0 350.66534 235.29333" width="350.66534" xmlns="http://www.w3.org/2000/svg"><g transform="matrix(1.3333333 0 0 -1.3333333 0 235.29333)"><path d="m0 1.117h263v175.333h-263z" fill="#003893"/><path d="m0 44.117h263v44.117h-263z" fill="#fff"/><path d="m0 58.822h263v14.706h-263z" fill="#ce1126"/></g><g fill="#fc0"><path d="m0 0 5.186-3.768-1.981-6.096 5.187 3.767 5.186-3.767-1.981 6.096 5.186 3.768h-6.41l-1.981 6.098-1.981-6.098z" transform="matrix(1.3333333 0 0 -1.3333333 119.64667 84.600267)"/><path d="m0 0 5.186-3.769-1.981-6.096 5.186 3.767 5.187-3.767-1.981 6.096 5.186 3.769h-6.411l-1.981 6.097-1.981-6.097z" transform="matrix(1.3333333 0 0 -1.3333333 85.132933 96.027333)"/><path d="m0 0 5.187-3.769-1.982-6.096 5.187 3.768 5.186-3.768-1.981 6.097 5.186 3.768h-6.41l-1.981 6.097-1.981-6.097z" transform="matrix(1.3333333 0 0 -1.3333333 153.9096 95.671867)"/><path d="m0 0 5.186-3.769-1.981-6.096 5.187 3.768 5.186-3.768-1.981 6.097 5.186 3.768h-6.41l-1.981 6.097-1.981-6.097z" transform="matrix(1.3333333 0 0 -1.3333333 175.3328 125.38413)"/><path d="m0 0 5.186-3.769-1.981-6.096 5.187 3.768 5.186-3.768-1.981 6.096 5.186 3.769h-6.41l-1.981 6.097-1.981-6.097z" transform="matrix(1.3333333 0 0 -1.3333333 175.3328 161.46227)"/><path d="m0 0 5.186-3.768-1.981-6.096 5.187 3.767 5.186-3.767-1.981 6.096 5.186 3.768h-6.41l-1.981 6.098-1.981-6.098z" transform="matrix(1.3333333 0 0 -1.3333333 154.1564 191.26693)"/><path d="m0 0 5.186-3.769-1.981-6.096 5.187 3.767 5.186-3.767-1.981 6.096 5.186 3.769h-6.411l-1.98 6.097-1.982-6.097z" transform="matrix(1.3333333 0 0 -1.3333333 119.6648 202.2552)"/><path d="m0 0 5.186-3.768-1.981-6.097 5.187 3.768 5.186-3.768-1.981 6.097 5.186 3.768h-6.411l-1.98 6.097-1.982-6.097z" transform="matrix(1.3333333 0 0 -1.3333333 84.6108 190.8216)"/><path d="m0 0 5.186-3.768-1.981-6.097 5.187 3.768 5.186-3.768-1.981 6.097 5.186 3.768h-6.41l-1.981 6.097-1.981-6.097z" transform="matrix(1.3333333 0 0 -1.3333333 63.879067 161.2852)"/><path d="m0 0 5.186-3.769-1.981-6.096 5.187 3.767 5.186-3.767-1.981 6.096 5.186 3.769h-6.411l-1.98 6.097-1.982-6.097z" transform="matrix(1.3333333 0 0 -1.3333333 63.972133 125.04427)"/></g></svg>