<svg height="933.33331" viewBox="0 0 1396 933.33331" width="1396" xmlns="http://www.w3.org/2000/svg" xmlns:xlink="http://www.w3.org/1999/xlink"><clipPath id="a"><path d="m0 700h1047v-700h-1047z" transform="translate(-523.00001 -462.50001)"/></clipPath><path d="m0 0h1046.5v700h-1046.5z" fill="#d20000" transform="matrix(1.3333333 0 0 -1.3333333 0 933.33333)"/><g fill="#ffe600"><path d="m0 0-366.45-337.5-366.451 337.5h-156.549v-.335l523-349.665 523.5 350zm-418.801 0 52.351-300.001 52.349 300.001zm52.351-350 523.5-70v140zm-523-69.933 523 69.933-523-349.666v-.334h156.549l366.451 337.5 366.45-337.5h157.05l-523.5 350-523 69.933zm470.649-280.067h104.7l-52.349 300z" transform="matrix(1.3333333 0 0 -1.3333333 1185.9336 -.000267)"/><path clip-path="url(#a)" d="m0 0c62.132 0 112.5-50.368 112.5-112.5s-50.368-112.5-112.5-112.5-112.5 50.368-112.5 112.5 50.368 112.5 112.5 112.5" stroke="#d20000" transform="matrix(1.3333333 0 0 -1.3333333 697.33333 316.66667)"/></g></svg>