<svg height="600" viewBox="0 0 900 600" width="900" xmlns="http://www.w3.org/2000/svg" xmlns:xlink="http://www.w3.org/1999/xlink"><clipPath id="a"><path d="m0 450h675v-450h-675z" transform="translate(-119.34021 -300.55521)"/></clipPath><clipPath id="b"><path d="m0 450h675v-450h-675z" transform="translate(-119.3398 -300.55421)"/></clipPath><clipPath id="c"><path d="m0 450h675v-450h-675z" transform="translate(-113.4213 -297.05031)"/></clipPath><clipPath id="d"><path d="m0 450h675v-450h-675z" transform="translate(-124.9999 -325.00001)"/></clipPath><clipPath id="e"><path d="m0 450h675v-450h-675z" transform="translate(-103.71081 -311.71871)"/></clipPath><clipPath id="f"><path d="m0 450h675v-450h-675z" transform="translate(-103.71081 -311.71871)"/></clipPath><clipPath id="g"><path d="m0 450h675v-450h-675z" transform="translate(-97.050205 -313.42191)"/></clipPath><clipPath id="h"><path d="m0 450h675v-450h-675z" transform="translate(-124.9999 -325.00001)"/></clipPath><clipPath id="i"><path d="m0 450h675v-450h-675z" transform="translate(-100.55511 -330.66021)"/></clipPath><clipPath id="j"><path d="m0 450h675v-450h-675z" transform="translate(-100.55511 -330.66061)"/></clipPath><clipPath id="k"><path d="m0 450h675v-450h-675z" transform="translate(-97.051202 -336.57811)"/></clipPath><clipPath id="l"><path d="m0 450h675v-450h-675z" transform="translate(-124.9999 -325.00001)"/></clipPath><clipPath id="m"><path d="m0 450h675v-450h-675z" transform="translate(-111.7191 -346.28911)"/></clipPath><clipPath id="n"><path d="m0 450h675v-450h-675z" transform="translate(-111.7191 -346.28961)"/></clipPath><clipPath id="o"><path d="m0 450h675v-450h-675z" transform="translate(-113.4223 -352.94921)"/></clipPath><clipPath id="p"><path d="m0 450h675v-450h-675z" transform="translate(-124.9999 -325.00001)"/></clipPath><clipPath id="q"><path d="m0 450h675v-450h-675z" transform="translate(-130.66011 -349.44481)"/></clipPath><clipPath id="r"><path d="m0 450h675v-450h-675z" transform="translate(-130.6606 -349.44581)"/></clipPath><clipPath id="s"><path d="m0 450h675v-450h-675z" transform="translate(-136.578 -352.94971)"/></clipPath><clipPath id="t"><path d="m0 450h675v-450h-675z" transform="translate(-124.9999 -325.00001)"/></clipPath><clipPath id="u"><path d="m0 450h675v-450h-675z" transform="translate(-146.289 -338.28121)"/></clipPath><clipPath id="v"><path d="m0 450h675v-450h-675z" transform="translate(-146.289 -338.28121)"/></clipPath><clipPath id="w"><path d="m0 450h675v-450h-675z" transform="translate(-152.9496 -336.57861)"/></clipPath><clipPath id="x"><path d="m0 450h675v-450h-675z" transform="translate(-124.9999 -325.00001)"/></clipPath><clipPath id="y"><path d="m0 450h675v-450h-675z" transform="translate(-149.44521 -319.33981)"/></clipPath><clipPath id="z"><path d="m0 450h675v-450h-675z" transform="translate(-149.44521 -319.33941)"/></clipPath><clipPath id="A"><path d="m0 450h675v-450h-675z" transform="translate(-152.9491 -313.42191)"/></clipPath><clipPath id="B"><path d="m0 450h675v-450h-675z" transform="translate(-124.9999 -325.00001)"/></clipPath><clipPath id="C"><path d="m0 450h675v-450h-675z" transform="translate(-138.2812 -303.71091)"/></clipPath><clipPath id="D"><path d="m0 450h675v-450h-675z" transform="translate(-138.28071 -303.71091)"/></clipPath><clipPath id="E"><path d="m0 450h675v-450h-675z" transform="translate(-136.578 -297.0508)"/></clipPath><clipPath id="F"><path d="m0 450h675v-450h-675z" transform="translate(-124.9999 -325.00001)"/></clipPath><clipPath id="G"><path d="m0 450h675v-450h-675z" transform="translate(-155.24991 -325.00001)"/></clipPath><clipPath id="H"><path d="m0 450h675v-450h-675z" transform="translate(-139.3012 -334.62501)"/></clipPath><clipPath id="I"><path d="m0 450h675v-450h-675z" transform="translate(-131.0512 -331.32421)"/></clipPath><clipPath id="J"><path d="m0 450h675v-450h-675z" transform="translate(-124.9999 -316.75001)"/></clipPath><clipPath id="K"><path d="m0 450h675v-450h-675z" transform="translate(-110.6991 -334.62501)"/></clipPath><clipPath id="L"><path d="m0 450h675v-450h-675z" transform="translate(-118.9491 -331.32421)"/></clipPath><clipPath id="M"><path d="m0 450h675v-450h-675z" transform="translate(-124.9999 -316.75001)"/></clipPath><clipPath id="N"><path d="m0 450h675v-450h-675z" transform="translate(-124.9999 -304.10211)"/></clipPath><g transform="matrix(1.3333333 0 0 -1.3333333 0 600)"><path d="m.12 0h674.88v450h-674.88z" fill="#fff"/><g fill="#0038a8"><path d="m250 350h425v50h-425z"/><path d="m250 250h425v49.999h-425z"/><path d="m.12 150h674.88v50h-674.88z"/><path d="m.12 50h674.88v49.999h-674.88z"/></g></g><path clip-path="url(#a)" d="m0 0 8.277-12.356c-34.008-24.609-13.246-39.164-37.347-47.043 14.992 14.629-2.36 15.864 10.269 46.352" fill="#fcd116" transform="matrix(1.3333333 0 0 -1.3333333 159.12027 199.25973)"/><g stroke="#000" stroke-miterlimit="20" stroke-width="1.65"><path clip-path="url(#b)" d="m0 0 8.277-12.355c-34.007-24.609-13.245-39.165-37.347-47.042 14.992 14.628-2.36 15.862 10.269 46.351" fill="none" stroke-linecap="square" transform="matrix(1.3333333 0 0 -1.3333333 159.11973 199.26107)"/><path clip-path="url(#c)" d="m0 0c-18.761-30.921-6.457-47.925-23.152-55.894" fill="none" transform="matrix(1.3333333 0 0 -1.3333333 151.2284 203.93293)"/><path clip-path="url(#d)" d="m0 0h16.5l-16.5-90.75-16.5 90.75h16.5v-90.75" fill="#fcd116" transform="matrix(1.3333333 0 0 -1.3333333 166.66653 166.66667)"/></g><path clip-path="url(#e)" d="m0 0-2.883-14.59c-41.449 6.644-37.058-18.328-59.672-6.859 20.946-.254 9.547 12.886 40.035 25.515" fill="#fcd116" transform="matrix(1.3333333 0 0 -1.3333333 138.28107 184.37507)"/><path d="m0 0-2.883-14.59c-41.449 6.644-37.058-18.328-59.672-6.859 20.946-.254 9.548 12.887 40.035 25.515" style="fill:none;stroke:#000;stroke-width:1.65;stroke-linecap:square;stroke-miterlimit:20;clip-path:url(#f)" transform="matrix(1.3333333 0 0 -1.3333333 138.28107 184.37507)"/><path clip-path="url(#g)" d="m0 0c-35.132-8.598-38.453-29.321-55.894-23.152" fill="none" stroke="#000" stroke-miterlimit="20" stroke-width="1.65" transform="matrix(1.3333333 0 0 -1.3333333 129.40027 182.10413)"/><path clip-path="url(#h)" d="m0 0 11.668-11.668-75.84-52.504 52.504 75.84 11.668-11.668-64.172-64.172" fill="#fcd116" stroke="#000" stroke-miterlimit="20" stroke-width="1.65" transform="matrix(1.3333333 0 0 -1.3333333 166.66653 166.66667)"/><path clip-path="url(#i)" d="m0 0-12.356-8.277c-24.609 34.008-39.164 13.246-47.043 37.347 14.629-14.992 15.864 2.36 46.352-10.269" fill="#fcd116" transform="matrix(1.3333333 0 0 -1.3333333 134.07347 159.11973)"/><path d="m0 0-12.356-8.278c-24.609 34.008-39.164 13.247-47.043 37.348 14.629-14.992 15.863 2.359 46.352-10.27" style="fill:none;stroke:#000;stroke-width:1.65;stroke-linecap:square;stroke-miterlimit:20;clip-path:url(#j)" transform="matrix(1.3333333 0 0 -1.3333333 134.07347 159.1192)"/><path clip-path="url(#k)" d="m0 0c-30.922 18.762-47.926 6.457-55.895 23.152" fill="none" stroke="#000" stroke-miterlimit="20" stroke-width="1.65" transform="matrix(1.3333333 0 0 -1.3333333 129.4016 151.2292)"/><path clip-path="url(#l)" d="m0 0v-16.5l-90.75 16.5 90.75 16.5v-16.5h-90.75" fill="#fcd116" stroke="#000" stroke-miterlimit="20" stroke-width="1.65" transform="matrix(1.3333333 0 0 -1.3333333 166.66653 166.66667)"/><path clip-path="url(#m)" d="m0 0-14.59 2.883c6.644 41.449-18.328 37.058-6.859 59.672-.254-20.946 12.886-9.547 25.515-40.035" fill="#fcd116" transform="matrix(1.3333333 0 0 -1.3333333 148.9588 138.2812)"/><path d="m0 0-14.59 2.883c6.645 41.448-18.328 37.058-6.86 59.671-.254-20.945 12.887-9.547 25.515-40.034" style="fill:none;stroke:#000;stroke-width:1.65;stroke-linecap:square;stroke-miterlimit:20;clip-path:url(#n)" transform="matrix(1.3333333 0 0 -1.3333333 148.9588 138.28053)"/><path clip-path="url(#o)" d="m0 0c-8.598 35.133-29.32 38.453-23.153 55.895" fill="none" stroke="#000" stroke-miterlimit="20" stroke-width="1.65" transform="matrix(1.3333333 0 0 -1.3333333 151.22973 129.40107)"/><path clip-path="url(#p)" d="m0 0-11.668-11.668-52.504 75.84 75.84-52.504-11.668-11.668-64.172 64.172" fill="#fcd116" stroke="#000" stroke-miterlimit="20" stroke-width="1.65" transform="matrix(1.3333333 0 0 -1.3333333 166.66653 166.66667)"/><path clip-path="url(#q)" d="m0 0-8.277 12.356c34.008 24.609 13.246 39.164 37.347 47.043-14.992-14.629 2.36-15.864-10.269-46.352" fill="#fcd116" transform="matrix(1.3333333 0 0 -1.3333333 174.21347 134.0736)"/><path d="m0 0-8.278 12.355c34.008 24.609 13.246 39.164 37.347 47.043-14.991-14.629 2.36-15.864-10.268-46.352" style="fill:none;stroke:#000;stroke-width:1.65;stroke-linecap:square;stroke-miterlimit:20;clip-path:url(#r)" transform="matrix(1.3333333 0 0 -1.3333333 174.21413 134.07227)"/><path clip-path="url(#s)" d="m0 0c18.762 30.921 6.457 47.926 23.152 55.894" fill="none" stroke="#000" stroke-miterlimit="20" stroke-width="1.65" transform="matrix(1.3333333 0 0 -1.3333333 182.104 129.4004)"/><path clip-path="url(#t)" d="m0 0h-16.5l16.5 90.75 16.5-90.75h-16.5v90.75" fill="#fcd116" stroke="#000" stroke-miterlimit="20" stroke-width="1.65" transform="matrix(1.3333333 0 0 -1.3333333 166.66653 166.66667)"/><path clip-path="url(#u)" d="m0 0 2.883 14.59c41.449-6.644 37.058 18.328 59.672 6.859-20.946.254-9.547-12.886-40.035-25.515" fill="#fcd116" transform="matrix(1.3333333 0 0 -1.3333333 195.052 148.9584)"/><path d="m0 0 2.883 14.59c41.45-6.645 37.058 18.328 59.672 6.86-20.946.254-9.548-12.887-40.035-25.516" style="fill:none;stroke:#000;stroke-width:1.65;stroke-linecap:square;stroke-miterlimit:20;clip-path:url(#v)" transform="matrix(1.3333333 0 0 -1.3333333 195.052 148.9584)"/><path clip-path="url(#w)" d="m0 0c35.132 8.597 38.453 29.32 55.894 23.152" fill="none" stroke="#000" stroke-miterlimit="20" stroke-width="1.65" transform="matrix(1.3333333 0 0 -1.3333333 203.9328 151.22853)"/><path clip-path="url(#x)" d="m0 0-11.668 11.668 75.84 52.504-52.504-75.84-11.668 11.668 64.172 64.172" fill="#fcd116" stroke="#000" stroke-miterlimit="20" stroke-width="1.65" transform="matrix(1.3333333 0 0 -1.3333333 166.66653 166.66667)"/><path clip-path="url(#y)" d="m0 0 12.356 8.277c24.609-34.008 39.164-13.246 47.043-37.347-14.629 14.992-15.864-2.36-46.352 10.269" fill="#fcd116" transform="matrix(1.3333333 0 0 -1.3333333 199.26027 174.2136)"/><path d="m0 0 12.355 8.278c24.609-34.008 39.164-13.246 47.044-37.348-14.63 14.992-15.863-2.359-46.352 10.27" style="fill:none;stroke:#000;stroke-width:1.65;stroke-linecap:square;stroke-miterlimit:20;clip-path:url(#z)" transform="matrix(1.3333333 0 0 -1.3333333 199.26027 174.21413)"/><path clip-path="url(#A)" d="m0 0c30.922-18.762 47.926-6.457 55.895-23.152" fill="none" stroke="#000" stroke-miterlimit="20" stroke-width="1.65" transform="matrix(1.3333333 0 0 -1.3333333 203.93213 182.10413)"/><path clip-path="url(#B)" d="m0 0v16.5l90.75-16.5-90.75-16.5v16.5h90.75" fill="#fcd116" stroke="#000" stroke-miterlimit="20" stroke-width="1.65" transform="matrix(1.3333333 0 0 -1.3333333 166.66653 166.66667)"/><path clip-path="url(#C)" d="m0 0 14.59-2.883c-6.644-41.449 18.328-37.058 6.859-59.672.254 20.946-12.886 9.547-25.515 40.035" fill="#fcd116" transform="matrix(1.3333333 0 0 -1.3333333 184.37493 195.05213)"/><g stroke="#000" stroke-miterlimit="20" stroke-width="1.65"><path clip-path="url(#D)" d="m0 0 14.59-2.883c-6.645-41.449 18.328-37.059 6.86-59.672.254 20.946-12.887 9.547-25.515 40.036" fill="none" stroke-linecap="square" transform="matrix(1.3333333 0 0 -1.3333333 184.37427 195.05213)"/><path clip-path="url(#E)" d="m0 0c8.598-35.132 29.32-38.453 23.153-55.895" fill="none" transform="matrix(1.3333333 0 0 -1.3333333 182.104 203.93227)"/><g fill="#fcd116"><path clip-path="url(#F)" d="m0 0 11.668 11.668 52.504-75.84-75.84 52.504 11.668 11.668 64.172-64.172" transform="matrix(1.3333333 0 0 -1.3333333 166.66653 166.66667)"/><path clip-path="url(#G)" d="m0 0c0-16.707-13.543-30.25-30.25-30.25s-30.25 13.543-30.25 30.25 13.543 30.25 30.25 30.25 30.25-13.543 30.25-30.25" transform="matrix(1.3333333 0 0 -1.3333333 206.99987 166.66667)"/></g></g><path clip-path="url(#H)" d="m0 0c1.926-1.648.273-5.227-1.653-5.227-1.921 0-5.5 3.301-3.847 5.5m13.472 2.204c-1.921-2.204-3.023 1.648-9.898 1.648s-7.977-4.125-9.074-3.301c-1.102.824 5.773 5.778 7.972 6.051 2.204.273 8.528-1.926 11-4.398" transform="matrix(1.3333333 0 0 -1.3333333 185.73493 153.83333)"/><path clip-path="url(#I)" d="m0 0c1.097 1.653 2.472-1.648 5.5-1.648 3.023 0 4.676.824 6.597 2.199 1.926 1.375-2.75-3.301-5.773-3.301s-7.148 1.653-6.324 2.75m-.824.824c.273 3.301 3.023 3.852 7.421 3.852 4.403 0 6.329-3.301 7.977-4.125-1.926 0-3.574 2.75-7.977 2.75-4.398 0-4.398 0-7.421-2.75" transform="matrix(1.3333333 0 0 -1.3333333 174.73493 158.2344)"/><path clip-path="url(#J)" d="m0 0c1.926 0 2.477 1.375 4.676 1.375s5.222-.824 6.597-1.926c.278-.273-.824 2.199-3.023 2.477-2.199.273-1.375 3.847-3.852 4.398 0-1.097.829-.824 1.102-2.472 0-1.375-2.477-1.375-3.023 0 .546-2.204-1.102-2.204-2.477-2.204m0-11.824c6.875 0 5.773 1.375 14.852 5.227-6.602-.824-7.977-3.028-14.852-3.028h-1.375m17.324.551c-1.097 1.926-.824 1.375-3.023 4.403 2.199-1.653 2.75-2.477 3.023-4.403m-15.949 3.852c1.648 0 2.199.551 4.398.551 2.204 0 7.426-3.028 10.454-1.926-6.329-2.477-3.852-.824-14.852-.824h-1.375m16.773 18.699c3.579 1.926 1.375 4.676 0 5.222.551-.546 2.75-3.296 0-5.222" transform="matrix(1.3333333 0 0 -1.3333333 166.66653 177.66667)"/><path clip-path="url(#K)" d="m0 0c-1.926-1.648-.273-5.227 1.653-5.227 1.921 0 5.5 3.301 3.847 5.5m-13.472 2.204c1.921-2.204 3.023 1.648 9.898 1.648s7.977-4.125 9.074-3.301c1.102.824-5.773 5.778-7.972 6.051-2.204.273-8.528-1.926-11-4.398" transform="matrix(1.3333333 0 0 -1.3333333 147.5988 153.83333)"/><path clip-path="url(#L)" d="m0 0c-1.097 1.653-2.472-1.648-5.5-1.648-3.023 0-4.676.824-6.597 2.199-1.926 1.375 2.75-3.301 5.773-3.301s7.148 1.653 6.324 2.75m.824.824c-.273 3.301-3.023 3.852-7.421 3.852-4.403 0-6.329-3.301-7.977-4.125 1.926 0 3.574 2.75 7.977 2.75 4.398 0 4.398 0 7.421-2.75" transform="matrix(1.3333333 0 0 -1.3333333 158.5988 158.2344)"/><path clip-path="url(#M)" d="m0 0c-1.926 0-2.477 1.375-4.676 1.375s-5.222-.824-6.597-1.926c-.278-.273.824 2.199 3.023 2.477 2.199.273 1.375 3.847 3.852 4.398 0-1.097-.829-.824-1.102-2.472 0-1.375 2.477-1.375 3.023 0-.546-2.204 1.102-2.204 2.477-2.204m0-11.824c-6.875 0-5.773 1.375-14.852 5.227 6.602-.824 7.977-3.028 14.852-3.028h1.375m-17.324.551c1.097 1.926.824 1.375 3.023 4.403-2.199-1.653-2.75-2.477-3.023-4.403m15.949 3.852c-1.648 0-2.199.551-4.398.551-2.204 0-7.426-3.028-10.454-1.926 6.329-2.477 3.852-.824 14.852-.824h1.375m-16.773 18.699c-3.579 1.926-1.375 4.676 0 5.222-.551-.546-2.75-3.296 0-5.222" transform="matrix(1.3333333 0 0 -1.3333333 166.66653 177.66667)"/><path clip-path="url(#N)" d="m0 0c-1.375 0-4.949-.829 0-.829s1.375.829 0 .829" transform="matrix(1.3333333 0 0 -1.3333333 166.66653 194.53053)"/></svg>