<svg height="1066.6667" viewBox="0 0 1600 1066.6667" width="1600" xmlns="http://www.w3.org/2000/svg"><path d="m0 0h1200v800h-1200z" fill="#4189dd" transform="matrix(1.3333333 0 0 -1.3333333 0 1066.6667)"/><g fill="#fff"><path d="m0 0-59.514-183.167 91.582-29.757z" transform="matrix(1.3333333 0 0 -1.3333333 800 276.54293)"/><path d="m0 0 59.515-183.167-91.584-29.757z" transform="matrix(1.3333333 0 0 -1.3333333 800 276.54293)"/><path d="m0 0h-192.592v-96.296z" transform="matrix(1.3333333 0 0 -1.3333333 1044.2213 453.98107)"/><path d="m0 0-155.811-113.203-56.601 77.906z" transform="matrix(1.3333333 0 0 -1.3333333 1044.2213 453.98107)"/><path d="m0 0 155.811-113.203 56.602 77.906z" transform="matrix(1.3333333 0 0 -1.3333333 555.778 453.98107)"/><path d="m0 0h192.592v-96.296z" transform="matrix(1.3333333 0 0 -1.3333333 555.778 453.98107)"/><path d="m0 0-59.515 183.167-91.583-29.758z" transform="matrix(1.3333333 0 0 -1.3333333 950.93747 741.08067)"/><path d="m0 0-155.811 113.203 56.602 77.905z" transform="matrix(1.3333333 0 0 -1.3333333 950.93747 741.08067)"/><g transform="matrix(1.3333333 0 0 -1.3333333 649.06253 741.08067)"><path d="m0 0 155.811 113.203-56.602 77.905z"/><path d="m0 0 59.515 183.167 91.583-29.758z"/></g></g></svg>