<svg xmlns="http://www.w3.org/2000/svg" width="144" height="96" viewBox="0 0 90 60">
<style><![CDATA[.A{fill:#c23}.B{fill:#059}.C{fill:#fd2}.D{fill:#012}]]></style>
	<path class="A" d="M0 0h90v60H0z"/>
	<path class="B" d="M30 0h30v60H30z"/>
	<g class="C">
		<path id="tr" d="M20 51l-5 -3h10z"/>
		<use transform="translate(0 -21)" href="#tr"/>
		<path id="sq" d="M15 45h10v2h-10z"/>
		<use transform="translate(0 -14)" href="#sq"/>
		<path id="wall" d="M9 51h5v-24h-5z"/>
		<use transform="translate(17 0)" href="#wall"/>
		<g id="yinyang">
			<circle cx="20" cy="39" r="5"/>
			<circle clip-path="url(#circleLeft)" transform="translate(0 2.65)" class="A" cx="20" cy="39" r="2.95"/>
			<circle clip-path="url(#circleRight)" transform="translate(0 -2.65)" class="A" cx="20" cy="39" r="2.95"/>
			<g id="r1" transform="translate(0 -2.65)">
				<circle class="C" cx="20" cy="39" r="2.35"/>
				<circle class="A" cx="20" cy="39" r="1"/>
				</g>
			<g id="r2" transform="translate(0 5.3)"><use href="#r1"/></g>
			</g>
		<g id="sunCrescent">
			<circle cx="20" cy="20.5" r="5.5"/>
			<circle class="A" cx="20" cy="18" r="6"/>
			<circle cx="20" cy="19" r="4"/>
			</g>
		<g id="flame">
		<path transform="scale(.1)" d="M204.2035 60c-4.97 2.255-6.827 6.321-7.227 10.371-.25 3.41 1.255 7.251 1.405 10.586 0 5.739-5.938 7.629-5.938 15.82 0 2.815 2.6 5.917 2.6 13.223-.45 3.835-2.59 4.7-5 5a5 5 0 0 1-5-5 5 5 0 0 1 1.385-3.44 5 5 0 0 1 .51-.5c1.14-1.15 2.705-1.595 2.695-4.63 0-1.56-1.01-2.98-1.975-5.742-.91-2.68-.25-7.16 1.915-9.805-3.5 1.35-5.657 4.705-6.757 7.715-1.16 3.7-.15 5.831-1.74 8.906-.97 1.99-2.125 2.815-3.22 4.475-1.295 1.81-2.815 6.043-2.815 8.008a25 25 0 0 0 50 0c0-1.965-1.5-6.198-2.795-8.008-1.095-1.66-2.27-2.485-3.24-4.475-1.57-3.075-.56-5.206-1.72-8.906-1.1-3.01-3.26-6.364-6.758-7.715 2.165 2.645 2.825 7.125 1.915 9.805-.97 2.76-1.99 4.18-1.99 5.742 0 3.035 1.555 3.48 2.695 4.63a5 5 0 0 1 .51.5 5 5 0 0 1 1.385 3.44 5 5 0 0 1-5 5c-2.765-.35-4.75-1.64-5-5 0-9.626 4.12-10.24 4.12-17.363 0-10.171-9.121-14.986-9.121-22.422 0-2.52.59-6.815 4.16-10.2275z"/>
			</g>
		</g>
	<clipPath id="circleLeft"><path d="M15 45h5v-12h-5z"/></clipPath>
	<clipPath id="circleRight"><path d="M20 45h5v-12h-5z"/></clipPath>
	</svg>