<svg height="800" viewBox="0 0 1200 800" width="1200" xmlns="http://www.w3.org/2000/svg" xmlns:xlink="http://www.w3.org/1999/xlink"><clipPath id="a"><path d="m0 600h900v-600h-900z" transform="translate(-216.37701 -477.71141)"/></clipPath><clipPath id="b"><path d="m0 600h900v-600h-900z" transform="translate(-144.4561 -474.83941)"/></clipPath><clipPath id="c"><path d="m0 600h900v-600h-900z" transform="translate(-149.5498 -478.52051)"/></clipPath><clipPath id="d"><path d="m0 600h900v-600h-900z" transform="translate(-154.6431 -481.04831)"/></clipPath><clipPath id="e"><path d="m0 600h900v-600h-900z" transform="translate(-159.7363 -482.22901)"/></clipPath><clipPath id="f"><path d="m0 600h900v-600h-900z" transform="translate(-164.83011 -482.45171)"/></clipPath><clipPath id="g"><path d="m0 600h900v-600h-900z" transform="translate(-169.9233 -484.03521)"/></clipPath><clipPath id="h"><path d="m0 600h900v-600h-900z" transform="translate(-175.01661 -484.03521)"/></clipPath><clipPath id="i"><path d="m0 600h900v-600h-900z" transform="translate(-180.1104 -483.57571)"/></clipPath><clipPath id="j"><path d="m0 600h900v-600h-900z" transform="translate(-185.2036 -483.11621)"/></clipPath><clipPath id="k"><path d="m0 600h900v-600h-900z" transform="translate(-190.2969 -480.12891)"/></clipPath><clipPath id="l"><path d="m0 600h900v-600h-900z" transform="translate(-195.3906 -479.66941)"/></clipPath><clipPath id="m"><path d="m0 600h900v-600h-900z" transform="translate(-200.48391 -479.66941)"/></clipPath><clipPath id="n"><path d="m0 600h900v-600h-900z" transform="translate(-205.57761 -479.66941)"/></clipPath><clipPath id="o"><path d="m0 600h900v-600h-900z" transform="translate(-176.3955 -482.07711)"/></clipPath><clipPath id="p"><path d="m0 600h900v-600h-900z" transform="translate(-212.81541 -491.95751)"/></clipPath><clipPath id="q"><path d="m0 600h900v-600h-900z" transform="translate(-201.7129 -494.62991)"/></clipPath><clipPath id="r"><path d="m0 600h900v-600h-900z" transform="translate(-190.4497 -497.45851)"/></clipPath><clipPath id="s"><path d="m0 600h900v-600h-900z" transform="translate(-179.14311 -499.34421)"/></clipPath><clipPath id="t"><path d="m0 600h900v-600h-900z" transform="translate(-167.8359 -500.45951)"/></clipPath><clipPath id="u"><path d="m0 600h900v-600h-900z" transform="translate(-156.7495 -499.82761)"/></clipPath><clipPath id="v"><path d="m0 600h900v-600h-900z" transform="translate(-146.17971 -496.20851)"/></clipPath><clipPath id="w"><path d="m0 600h900v-600h-900z" transform="translate(-137.27541 -489.66021)"/></clipPath><clipPath id="x"><path d="m0 600h900v-600h-900z" transform="translate(-130.95651 -480.52641)"/></clipPath><clipPath id="y"><path d="m0 600h900v-600h-900z" transform="translate(-127.91211 -469.78421)"/></clipPath><clipPath id="z"><path d="m0 600h900v-600h-900z" transform="translate(-128.0269 -458.63961)"/></clipPath><clipPath id="A"><path d="m0 600h900v-600h-900z" transform="translate(-130.1523 -447.72511)"/></clipPath><clipPath id="B"><path d="m0 600h900v-600h-900z" transform="translate(-214.99851 -480.46871)"/></clipPath><clipPath id="C"><path d="m0 600h900v-600h-900z" transform="translate(-227.56051 -477.71141)"/></clipPath><clipPath id="D"><path d="m0 600h900v-600h-900z" transform="translate(-299.4814 -474.83941)"/></clipPath><clipPath id="E"><path d="m0 600h900v-600h-900z" transform="translate(-294.3877 -478.52051)"/></clipPath><clipPath id="F"><path d="m0 600h900v-600h-900z" transform="translate(-289.29441 -481.04831)"/></clipPath><clipPath id="G"><path d="m0 600h900v-600h-900z" transform="translate(-284.2012 -482.22901)"/></clipPath><clipPath id="H"><path d="m0 600h900v-600h-900z" transform="translate(-279.10741 -482.45171)"/></clipPath><clipPath id="I"><path d="m0 600h900v-600h-900z" transform="translate(-274.01421 -484.03521)"/></clipPath><clipPath id="J"><path d="m0 600h900v-600h-900z" transform="translate(-268.92091 -484.03521)"/></clipPath><clipPath id="K"><path d="m0 600h900v-600h-900z" transform="translate(-263.82711 -483.57571)"/></clipPath><clipPath id="L"><path d="m0 600h900v-600h-900z" transform="translate(-258.7339 -483.11621)"/></clipPath><clipPath id="M"><path d="m0 600h900v-600h-900z" transform="translate(-253.64061 -480.12891)"/></clipPath><clipPath id="N"><path d="m0 600h900v-600h-900z" transform="translate(-248.54691 -479.66941)"/></clipPath><clipPath id="O"><path d="m0 600h900v-600h-900z" transform="translate(-243.45361 -479.66941)"/></clipPath><clipPath id="P"><path d="m0 600h900v-600h-900z" transform="translate(-238.35991 -479.66941)"/></clipPath><clipPath id="Q"><path d="m0 600h900v-600h-900z" transform="translate(-267.54201 -482.07711)"/></clipPath><clipPath id="R"><path d="m0 600h900v-600h-900z" transform="translate(-231.12211 -491.95751)"/></clipPath><clipPath id="S"><path d="m0 600h900v-600h-900z" transform="translate(-242.2246 -494.62991)"/></clipPath><clipPath id="T"><path d="m0 600h900v-600h-900z" transform="translate(-253.4878 -497.45851)"/></clipPath><clipPath id="U"><path d="m0 600h900v-600h-900z" transform="translate(-264.79441 -499.34421)"/></clipPath><clipPath id="V"><path d="m0 600h900v-600h-900z" transform="translate(-276.10161 -500.45951)"/></clipPath><clipPath id="W"><path d="m0 600h900v-600h-900z" transform="translate(-287.188 -499.82761)"/></clipPath><clipPath id="X"><path d="m0 600h900v-600h-900z" transform="translate(-297.75781 -496.20851)"/></clipPath><clipPath id="Y"><path d="m0 600h900v-600h-900z" transform="translate(-306.66211 -489.66021)"/></clipPath><clipPath id="Z"><path d="m0 600h900v-600h-900z" transform="translate(-312.98101 -480.52641)"/></clipPath><clipPath id="aa"><path d="m0 600h900v-600h-900z" transform="translate(-316.02541 -469.78421)"/></clipPath><clipPath id="ab"><path d="m0 600h900v-600h-900z" transform="translate(-315.91061 -458.63961)"/></clipPath><clipPath id="ac"><path d="m0 600h900v-600h-900z" transform="translate(-313.78521 -447.72511)"/></clipPath><clipPath id="ad"><path d="m0 600h900v-600h-900z" transform="translate(-228.93901 -480.46871)"/></clipPath><clipPath id="ae"><path d="m0 600h900v-600h-900z" transform="translate(-221.96871 -522.50002)"/></clipPath><clipPath id="af"><path d="m0 600h900v-600h-900z" transform="translate(-224.1133 -525.04691)"/></clipPath><clipPath id="ag"><path d="m0 600h900v-600h-900z" transform="translate(-221.96871 -528.83741)"/></clipPath><clipPath id="ah"><path d="m0 600h900v-600h-900z" transform="translate(-221.96871 -510.45511)"/></clipPath><clipPath id="ai"><path d="m0 600h900v-600h-900z" transform="translate(-211.84371 -497.43751)"/></clipPath><clipPath id="aj"><path d="m0 600h900v-600h-900z" transform="translate(-232.1875 -482.31251)"/></clipPath><clipPath id="ak"><path d="m0 600h900v-600h-900z" transform="translate(-232.1875 -482.31251)"/></clipPath><clipPath id="al"><path d="m0 600h900v-600h-900z" transform="translate(-221.95311 -445.31251)"/></clipPath><clipPath id="am"><path d="m0 600h900v-600h-900z" transform="translate(-297.10641 -380.97411)"/></clipPath><clipPath id="an"><path d="m0 600h900v-600h-900z" transform="translate(-221.96871 -489.05961)"/></clipPath><clipPath id="ao"><path d="m0 600h900v-600h-900z" transform="translate(-221.96871 -481.70651)"/></clipPath><clipPath id="ap"><path d="m0 600h900v-600h-900z" transform="translate(-221.96871 -473.89401)"/></clipPath><clipPath id="aq"><path d="m0 600h900v-600h-900z" transform="translate(-221.96871 -465.39211)"/></clipPath><clipPath id="ar"><path d="m0 600h900v-600h-900z" transform="translate(-221.96871 -455.74171)"/></clipPath><clipPath id="as"><path d="m0 600h900v-600h-900z" transform="translate(-302.78121 -420.16891)"/></clipPath><clipPath id="at"><path d="m0 600h900v-600h-900z" transform="translate(-221.96871 -394.41651)"/></clipPath><path d="m0 0h900v600h-900z" fill="#002b7f" transform="matrix(1.3333333 0 0 -1.3333333 0 800)"/><path d="m0 0h900v300h-900z" fill="#ce1126" transform="matrix(1.3333333 0 0 -1.3333333 0 800)"/><path clip-path="url(#a)" d="m0 0-1.838-62.5h-63.419c-7.803 15.168-14.246 28.051-14.246 45.496 0 14.6 11.482 26.195 28.032 26.195 17.52 0 36.769-5.903 51.471-9.191" fill="#ffd83d" transform="matrix(1.3333333 0 0 -1.3333333 288.50267 163.05147)"/><g stroke="#000" stroke-linecap="round" stroke-linejoin="round"><g stroke-width="1.5"><g fill="#ffd83d"><path clip-path="url(#b)" d="m0 0v-36.076" transform="matrix(1.3333333 0 0 -1.3333333 192.60813 166.8808)"/><path clip-path="url(#c)" d="m0 0v-48.034" transform="matrix(1.3333333 0 0 -1.3333333 199.39973 161.97267)"/><path clip-path="url(#d)" d="m0 0v-57.225" transform="matrix(1.3333333 0 0 -1.3333333 206.1908 158.60227)"/><path clip-path="url(#e)" d="m0 0v-44.881" transform="matrix(1.3333333 0 0 -1.3333333 212.98173 157.028)"/><path clip-path="url(#f)" d="m0 0v-45.326" transform="matrix(1.3333333 0 0 -1.3333333 219.77347 156.73107)"/><path clip-path="url(#g)" d="m0 0v-46.885" transform="matrix(1.3333333 0 0 -1.3333333 226.5644 154.61973)"/><path clip-path="url(#h)" d="m0 0v-46.885" transform="matrix(1.3333333 0 0 -1.3333333 233.35547 154.61973)"/><path clip-path="url(#i)" d="m0 0v-46.885" transform="matrix(1.3333333 0 0 -1.3333333 240.1472 155.2324)"/><path clip-path="url(#j)" d="m0 0v-46.885" transform="matrix(1.3333333 0 0 -1.3333333 246.93813 155.84507)"/><path clip-path="url(#k)" d="m0 0v-46.885" transform="matrix(1.3333333 0 0 -1.3333333 253.7292 159.82813)"/><path clip-path="url(#l)" d="m0 0v-52.859" transform="matrix(1.3333333 0 0 -1.3333333 260.5208 160.4408)"/><path clip-path="url(#m)" d="m0 0v-46.885" transform="matrix(1.3333333 0 0 -1.3333333 267.31187 160.4408)"/><path clip-path="url(#n)" d="m0 0v-46.885" transform="matrix(1.3333333 0 0 -1.3333333 274.10347 160.4408)"/></g><path clip-path="url(#o)" d="m0 0c10.763-1.775 34.406-12.837 31.709-27.803-3.821-21.21-16.207-12.698-32.628-9.651l-12.408-4.136c-4.44-4.532-10.978-8.683-15.396-3.217h-7.352v-28.722h81.342v69.393z" transform="matrix(1.3333333 0 0 -1.3333333 235.194 157.23053)"/></g><g fill="#ffd83d" stroke-width="2"><path clip-path="url(#p)" d="m0 0c2.729 0 4.94-2.211 4.94-4.94 0-2.728-2.211-4.94-4.94-4.94s-4.94 2.212-4.94 4.94c0 2.729 2.211 4.94 4.94 4.94" transform="matrix(1.3333333 0 0 -1.3333333 283.75387 144.05667)"/><path clip-path="url(#q)" d="m0 0c2.729 0 4.94-2.212 4.94-4.94 0-2.729-2.211-4.941-4.94-4.941s-4.94 2.212-4.94 4.941c0 2.728 2.211 4.94 4.94 4.94" transform="matrix(1.3333333 0 0 -1.3333333 268.95053 140.49347)"/><path clip-path="url(#r)" d="m0 0c2.729 0 4.94-2.212 4.94-4.94 0-2.729-2.211-4.94-4.94-4.94s-4.94 2.211-4.94 4.94c0 2.728 2.211 4.94 4.94 4.94" transform="matrix(1.3333333 0 0 -1.3333333 253.93293 136.722)"/><path clip-path="url(#s)" d="m0 0c2.729 0 4.94-2.212 4.94-4.94s-2.211-4.94-4.94-4.94-4.94 2.212-4.94 4.94 2.211 4.94 4.94 4.94" transform="matrix(1.3333333 0 0 -1.3333333 238.85747 134.20773)"/><path clip-path="url(#t)" d="m0 0c2.729 0 4.94-2.212 4.94-4.94s-2.211-4.94-4.94-4.94c-2.728 0-4.94 2.212-4.94 4.94s2.212 4.94 4.94 4.94" transform="matrix(1.3333333 0 0 -1.3333333 223.7812 132.72067)"/><path clip-path="url(#u)" d="m0 0c2.728 0 4.94-2.212 4.94-4.94s-2.212-4.94-4.94-4.94c-2.729 0-4.94 2.212-4.94 4.94s2.211 4.94 4.94 4.94" transform="matrix(1.3333333 0 0 -1.3333333 208.99933 133.5632)"/><path clip-path="url(#v)" d="m0 0c2.728 0 4.94-2.212 4.94-4.94s-2.212-4.94-4.94-4.94c-2.729 0-4.94 2.212-4.94 4.94s2.211 4.94 4.94 4.94" transform="matrix(1.3333333 0 0 -1.3333333 194.90627 138.38867)"/><path clip-path="url(#w)" d="m0 0c2.729 0 4.94-2.212 4.94-4.94 0-2.729-2.211-4.941-4.94-4.941s-4.94 2.212-4.94 4.941c0 2.728 2.211 4.94 4.94 4.94" transform="matrix(1.3333333 0 0 -1.3333333 183.03387 147.11973)"/><path clip-path="url(#x)" d="m0 0c2.729 0 4.94-2.212 4.94-4.94 0-2.729-2.211-4.941-4.94-4.941s-4.94 2.212-4.94 4.941c0 2.728 2.211 4.94 4.94 4.94" transform="matrix(1.3333333 0 0 -1.3333333 174.60867 159.29813)"/><path clip-path="url(#y)" d="m0 0c2.729 0 4.94-2.212 4.94-4.94 0-2.729-2.211-4.941-4.94-4.941s-4.94 2.212-4.94 4.941c0 2.728 2.211 4.94 4.94 4.94" transform="matrix(1.3333333 0 0 -1.3333333 170.54947 173.62107)"/><path clip-path="url(#z)" d="m0 0c2.729 0 4.94-2.212 4.94-4.94s-2.211-4.94-4.94-4.94-4.94 2.212-4.94 4.94 2.211 4.94 4.94 4.94" transform="matrix(1.3333333 0 0 -1.3333333 170.70253 188.48053)"/><path clip-path="url(#A)" d="m0 0c2.729 0 4.94-2.212 4.94-4.94s-2.211-4.94-4.94-4.94-4.94 2.212-4.94 4.94 2.211 4.94 4.94 4.94" transform="matrix(1.3333333 0 0 -1.3333333 173.5364 203.0332)"/><path clip-path="url(#B)" d="m0 0-.459-6.434c-12.291 1.883-29.716 8.732-45.957 8.732-15.006 0-26.654-6.003-26.654-21.14 0-14.918 6.318-28.485 14.706-42.279l-8.732-4.136c-7.802 15.168-14.246 28.051-14.246 45.496 0 14.599 11.483 28.952 31.25 28.952 17.52 0 35.39-5.903 50.092-9.191" transform="matrix(1.3333333 0 0 -1.3333333 286.66467 159.37507)"/></g></g><path clip-path="url(#C)" d="m0 0 1.838-62.5h63.419c7.803 15.168 14.246 28.051 14.246 45.496 0 14.6-11.482 26.195-28.032 26.195-17.52 0-36.769-5.903-51.471-9.191" fill="#ffd83d" transform="matrix(1.3333333 0 0 -1.3333333 303.414 163.05147)"/><g stroke="#000" stroke-linecap="round" stroke-linejoin="round"><g stroke-width="1.5"><g fill="#ffd83d"><path clip-path="url(#D)" d="m0 0v-36.076" transform="matrix(1.3333333 0 0 -1.3333333 399.30853 166.8808)"/><path clip-path="url(#E)" d="m0 0v-48.034" transform="matrix(1.3333333 0 0 -1.3333333 392.51693 161.97267)"/><path clip-path="url(#F)" d="m0 0v-57.225" transform="matrix(1.3333333 0 0 -1.3333333 385.72587 158.60227)"/><path clip-path="url(#G)" d="m0 0v-44.881" transform="matrix(1.3333333 0 0 -1.3333333 378.93493 157.028)"/><path clip-path="url(#H)" d="m0 0v-45.326" transform="matrix(1.3333333 0 0 -1.3333333 372.1432 156.73107)"/><path clip-path="url(#I)" d="m0 0v-46.885" transform="matrix(1.3333333 0 0 -1.3333333 365.35227 154.61973)"/><path clip-path="url(#J)" d="m0 0v-46.885" transform="matrix(1.3333333 0 0 -1.3333333 358.5612 154.61973)"/><path clip-path="url(#K)" d="m0 0v-46.885" transform="matrix(1.3333333 0 0 -1.3333333 351.76947 155.2324)"/><path clip-path="url(#L)" d="m0 0v-46.885" transform="matrix(1.3333333 0 0 -1.3333333 344.97853 155.84507)"/><path clip-path="url(#M)" d="m0 0v-46.885" transform="matrix(1.3333333 0 0 -1.3333333 338.18747 159.82813)"/><path clip-path="url(#N)" d="m0 0v-52.859" transform="matrix(1.3333333 0 0 -1.3333333 331.39587 160.4408)"/><path clip-path="url(#O)" d="m0 0v-46.885" transform="matrix(1.3333333 0 0 -1.3333333 324.6048 160.4408)"/><path clip-path="url(#P)" d="m0 0v-46.885" transform="matrix(1.3333333 0 0 -1.3333333 317.8132 160.4408)"/></g><path clip-path="url(#Q)" d="m0 0c-10.763-1.775-34.406-12.837-31.709-27.803 3.821-21.21 16.207-12.698 32.628-9.651l12.408-4.136c4.44-4.532 10.978-8.683 15.396-3.217h7.352v-28.722h-81.342v69.393z" transform="matrix(1.3333333 0 0 -1.3333333 356.72267 157.23053)"/></g><g fill="#ffd83d" stroke-width="2"><path clip-path="url(#R)" d="m0 0c-2.729 0-4.94-2.211-4.94-4.94 0-2.728 2.211-4.94 4.94-4.94s4.94 2.212 4.94 4.94c0 2.729-2.211 4.94-4.94 4.94" transform="matrix(1.3333333 0 0 -1.3333333 308.1628 144.05667)"/><path clip-path="url(#S)" d="m0 0c-2.729 0-4.94-2.212-4.94-4.94 0-2.729 2.211-4.941 4.94-4.941s4.94 2.212 4.94 4.941c0 2.728-2.211 4.94-4.94 4.94" transform="matrix(1.3333333 0 0 -1.3333333 322.96613 140.49347)"/><path clip-path="url(#T)" d="m0 0c-2.729 0-4.94-2.212-4.94-4.94 0-2.729 2.211-4.94 4.94-4.94s4.94 2.211 4.94 4.94c0 2.728-2.211 4.94-4.94 4.94" transform="matrix(1.3333333 0 0 -1.3333333 337.98373 136.722)"/><path clip-path="url(#U)" d="m0 0c-2.729 0-4.94-2.212-4.94-4.94s2.211-4.94 4.94-4.94 4.94 2.212 4.94 4.94-2.211 4.94-4.94 4.94" transform="matrix(1.3333333 0 0 -1.3333333 353.0592 134.20773)"/><path clip-path="url(#V)" d="m0 0c-2.729 0-4.94-2.212-4.94-4.94s2.211-4.94 4.94-4.94c2.728 0 4.94 2.212 4.94 4.94s-2.212 4.94-4.94 4.94" transform="matrix(1.3333333 0 0 -1.3333333 368.13547 132.72067)"/><path clip-path="url(#W)" d="m0 0c-2.728 0-4.94-2.212-4.94-4.94s2.212-4.94 4.94-4.94c2.729 0 4.94 2.212 4.94 4.94s-2.211 4.94-4.94 4.94" transform="matrix(1.3333333 0 0 -1.3333333 382.91733 133.5632)"/><path clip-path="url(#X)" d="m0 0c-2.728 0-4.94-2.212-4.94-4.94s2.212-4.94 4.94-4.94c2.729 0 4.94 2.212 4.94 4.94s-2.211 4.94-4.94 4.94" transform="matrix(1.3333333 0 0 -1.3333333 397.0104 138.38867)"/><path clip-path="url(#Y)" d="m0 0c-2.729 0-4.94-2.212-4.94-4.94 0-2.729 2.211-4.941 4.94-4.941s4.94 2.212 4.94 4.941c0 2.728-2.211 4.94-4.94 4.94" transform="matrix(1.3333333 0 0 -1.3333333 408.8828 147.11973)"/><path clip-path="url(#Z)" d="m0 0c-2.729 0-4.94-2.212-4.94-4.94 0-2.729 2.211-4.941 4.94-4.941s4.94 2.212 4.94 4.941c0 2.728-2.211 4.94-4.94 4.94" transform="matrix(1.3333333 0 0 -1.3333333 417.308 159.29813)"/><path clip-path="url(#aa)" d="m0 0c-2.729 0-4.94-2.212-4.94-4.94 0-2.729 2.211-4.941 4.94-4.941s4.94 2.212 4.94 4.941c0 2.728-2.211 4.94-4.94 4.94" transform="matrix(1.3333333 0 0 -1.3333333 421.3672 173.62107)"/><path clip-path="url(#ab)" d="m0 0c-2.729 0-4.94-2.212-4.94-4.94s2.211-4.94 4.94-4.94 4.94 2.212 4.94 4.94-2.211 4.94-4.94 4.94" transform="matrix(1.3333333 0 0 -1.3333333 421.21413 188.48053)"/><path clip-path="url(#ac)" d="m0 0c-2.729 0-4.94-2.212-4.94-4.94s2.211-4.94 4.94-4.94 4.94 2.212 4.94 4.94-2.211 4.94-4.94 4.94" transform="matrix(1.3333333 0 0 -1.3333333 418.38027 203.0332)"/><path clip-path="url(#ad)" d="m0 0 .459-6.434c12.291 1.883 29.716 8.732 45.957 8.732 15.006 0 26.654-6.003 26.654-21.14 0-14.918-6.318-28.485-14.706-42.279l8.732-4.136c7.802 15.168 14.246 28.051 14.246 45.496 0 14.599-11.483 28.952-31.25 28.952-17.52 0-35.39-5.903-50.092-9.191" transform="matrix(1.3333333 0 0 -1.3333333 305.252 159.37507)"/><path clip-path="url(#ae)" d="m0 0-5.156-9.625 5.156-9.656 5.156 9.656zm0 24.375-5.156-9.656 5.156-9.625 5.156 9.625z" transform="matrix(1.3333333 0 0 -1.3333333 295.95827 103.33333)"/><path clip-path="url(#af)" d="m0 0 8.105-5.156 8.132 5.156-8.132 5.156zm-20.526 0 8.131-5.156 8.106 5.156-8.106 5.156z" transform="matrix(1.3333333 0 0 -1.3333333 298.81773 99.937467)"/><path clip-path="url(#ag)" d="m0 0c2.157 0 3.906-1.749 3.906-3.906s-1.749-3.906-3.906-3.906-3.906 1.749-3.906 3.906 1.749 3.906 3.906 3.906" transform="matrix(1.3333333 0 0 -1.3333333 295.95827 94.883467)"/><path clip-path="url(#ah)" d="m0 0c5.774 0 10.455-4.681 10.455-10.455s-4.681-10.455-10.455-10.455-10.455 4.681-10.455 10.455 4.681 10.455 10.455 10.455" transform="matrix(1.3333333 0 0 -1.3333333 295.95827 119.3932)"/></g><path clip-path="url(#ai)" d="m0 0c3.295.55 6.674.844 10.125.844s6.83-.294 10.125-.844m-.031 5.281c-2.432.405-4.917.67-7.438.781v6.626m-5.281 0c0-3.115-.022-4.925-.031-6.626-2.521-.111-5.006-.376-7.438-.781" fill="none" stroke-width="1.5" transform="matrix(1.3333333 0 0 -1.3333333 282.45827 136.75)"/></g><path clip-path="url(#aj)" d="m0 0-6.875-1.156c1.149-8.751 1.942-27.265 5.719-41.594l10.812-4.375c-6.647 12.646-8.664 30.043-9.656 47.125m-20.437 0c-.992-17.082-3.009-34.479-9.657-47.125l10.813 4.375c3.776 14.329 4.57 32.843 5.718 41.594z" fill="#ffd83d" transform="matrix(1.3333333 0 0 -1.3333333 309.58333 156.91667)"/><g stroke="#000" stroke-linecap="round" stroke-linejoin="round"><path clip-path="url(#ak)" d="m0 0-6.875-1.156c1.149-8.751 1.942-27.265 5.719-41.594l10.812-4.375c-6.647 12.646-8.664 30.043-9.656 47.125zm-20.437 0c-.992-17.082-3.009-34.479-9.657-47.125l10.813 4.375c3.776 14.329 4.57 32.843 5.718 41.594z" fill="none" stroke-width="2" transform="matrix(1.3333333 0 0 -1.3333333 309.58333 156.91667)"/><path clip-path="url(#al)" d="m0 0c-12.914 0-22.399-6.086-22.969-21.594-3.156 5.555-16.51 23.026-28.969 20.688-7.409-1.391-13.957-11.666-12.843-23.438-6.135 17.63-24.107 20.519-37.219 10.094 11.642-9.572 16.821-37.835 26.625-50.094h75.375 75.375c9.804 12.259 15.014 40.522 26.656 50.094-13.112 10.425-31.084 7.536-37.218-10.094 1.113 11.772-5.466 22.047-12.875 23.438-12.459 2.338-25.781-15.133-28.938-20.688-.569 15.508-10.086 21.594-23 21.594" fill="#ffd83d" stroke-width="2" transform="matrix(1.3333333 0 0 -1.3333333 295.93747 206.25)"/><g stroke-width="1.5"><path clip-path="url(#am)" d="m0 0c0-5.581-33.662-11.719-75.138-11.719s-75.137 6.138-75.137 11.719 33.661 8.502 75.137 8.502 75.138-2.921 75.138-8.502" transform="matrix(1.3333333 0 0 -1.3333333 396.14187 292.03453)"/><path clip-path="url(#an)" d="m0 0c1.935 0 3.504-1.569 3.504-3.504s-1.569-3.504-3.504-3.504-3.504 1.569-3.504 3.504 1.569 3.504 3.504 3.504" fill="#ffd83d" transform="matrix(1.3333333 0 0 -1.3333333 295.95827 147.92053)"/><path clip-path="url(#ao)" d="m0 0c2.062 0 3.734-1.672 3.734-3.734s-1.672-3.734-3.734-3.734-3.734 1.672-3.734 3.734 1.672 3.734 3.734 3.734" fill="#ffd83d" transform="matrix(1.3333333 0 0 -1.3333333 295.95827 157.72467)"/><path clip-path="url(#ap)" d="m0 0c2.252 0 4.079-1.826 4.079-4.079 0-2.252-1.827-4.078-4.079-4.078s-4.079 1.826-4.079 4.078c0 2.253 1.827 4.079 4.079 4.079" fill="#ffd83d" transform="matrix(1.3333333 0 0 -1.3333333 295.95827 168.14133)"/><path clip-path="url(#aq)" d="m0 0c2.57 0 4.653-2.083 4.653-4.653s-2.083-4.653-4.653-4.653-4.653 2.083-4.653 4.653 2.083 4.653 4.653 4.653" fill="#ffd83d" transform="matrix(1.3333333 0 0 -1.3333333 295.95827 179.4772)"/><path clip-path="url(#ar)" d="m0 0c2.824 0 5.113-2.289 5.113-5.113s-2.289-5.112-5.113-5.112-5.113 2.288-5.113 5.112 2.289 5.113 5.113 5.113" fill="#ffd83d" transform="matrix(1.3333333 0 0 -1.3333333 295.95827 192.3444)"/></g></g><path clip-path="url(#as)" d="m0 0c-.293-.026-.7-.22-1.094-.531-1.051-.829-4.259-4.13-5.531-5.844s-2.606-1.435-2.938-.937c-.331.498-.813 1.816-1.062 2.812-.367 1.468-1.261 1.576-1.344 0s.596-3.419 1.094-6.156-.057-7.257-2.344-12.594c-.746-1.742.599-1.075 1.594.75 2.446 4.485 8.543 9.42 14.625 13.844 1.181.859.94 1.731-.719 1.344-1.658-.387-2.55-1.719-4.375-1.719-.611 0-1.267-.015-1.156 1.312.11 1.327 1.757 4.424 3.25 6.469.657.9.488 1.294 0 1.25m-161.625 0c-.488.044-.657-.35 0-1.25 1.493-2.045 3.14-5.142 3.25-6.469.111-1.327-.545-1.312-1.156-1.312-1.825 0-2.717 1.332-4.375 1.719-1.659.387-1.9-.485-.719-1.344 6.083-4.424 12.179-9.359 14.625-13.844.995-1.825 2.34-2.492 1.594-.75-2.287 5.337-2.842 9.857-2.344 12.594s1.177 4.58 1.094 6.156-.977 1.468-1.344 0c-.249-.996-.731-2.314-1.062-2.812-.332-.498-1.666-.777-2.938.937s-4.48 5.015-5.531 5.844c-.394.311-.801.505-1.094.531m140.719 4.173c-.272-.028-.548-.157-.688-.406-.497-.885-1.609-2.314-2.343-3.5-.719-1.162.401-1.366.843-.813.443.553 1.714 1.601 2.875 3.094.726.933.181 1.532-.437 1.625-.093.014-.159.01-.25 0m-120.063 0c-.618-.093-1.163-.692-.437-1.625 1.161-1.493 2.432-2.541 2.875-3.094.442-.553 1.562-.349.844.813-.735 1.186-1.847 2.615-2.344 3.5-.187.332-.567.462-.938.406m133.407 1.421c-.395-.028-.855-.381-.938-.907-.166-1.05-.344-2.161-.344-3.156s.724-1.175 1-.125c.277 1.051.613 1.978.844 3.094.166.802-.168 1.122-.562 1.094m-146.5 0c-.395.028-.729-.292-.563-1.094.231-1.116.567-2.043.844-3.094.276-1.05 1-.87 1 .125s-.178 2.106-.344 3.156c-.083.526-.543.879-.937.907m132 3.954c-.212-.038-.481-.287-.813-.813-1.327-2.101-2.065-2.982-2.562-3.812-.499-.829.014-1.715.843-.719 1.002 1.202 2 2.271 2.719 3.156.539.664.448 2.302-.187 2.188m-117.5 0c-.636.114-.727-1.524-.188-2.188.719-.885 1.717-1.954 2.719-3.156.829-.996 1.342-.11.844.719-.498.83-1.236 1.711-2.563 3.812-.332.526-.601.775-.812.813m136.281-1.736c-.546.008-1.171-.333-1.281-.968-.222-1.272-.303-1.964-.469-3.125s.723-1.548 1-.719c.276.83 1.101 2.265 1.5 3.594.249.829-.204 1.212-.75 1.218m-155.063 0c-.546-.006-.999-.389-.75-1.218.399-1.329 1.224-2.764 1.5-3.594.277-.829 1.166-.442 1 .719s-.247 1.853-.468 3.125c-.111.635-.736.976-1.282.968m124.469 2.423c-.256-.047-.563-.378-.813-1.093-.663-1.908-2.89-6.112-3.968-7.688-1.079-1.576-2.421-.856-3.25.969-1.244 2.737-2.03 1.12-1.25-.563 2.073-4.479 1.809-11.622.437-20.312-.249-1.576.637-1.41.969 0 1.623 6.898 5.82 12.586 11.875 17.562 1.192.98.329 1.675-.5 1.094-.829-.58-1.9-1.179-2.813-1.594-.912-.414-1.594-.243-1.843 1-.249 1.245.183 3.91 1.593 8.969.255.913.059 1.563-.281 1.656-.048.014-.103.01-.156 0m-94.031 0c-.34-.093-.536-.743-.281-1.656 1.41-5.059 1.842-7.724 1.593-8.969-.248-1.243-.931-1.414-1.843-1-.913.415-1.984 1.014-2.813 1.594-.829.581-1.692-.114-.5-1.094 6.055-4.976 10.252-10.664 11.875-17.562.332-1.41 1.218-1.576.969 0-1.372 8.69-1.636 15.833.437 20.312.78 1.683-.006 3.3-1.25.563-.829-1.825-2.171-2.545-3.25-.969-1.078 1.576-3.305 5.78-3.969 7.688-.249.715-.556 1.046-.812 1.093-.053.01-.107.014-.156 0m63.906-1.985c-.302-.047-.605-.336-.75-.938-.387-1.603-.498-2.917-.719-3.968s1.123-1.036 1.344.125c.229 1.202.606 2.433.937 3.593.182.636-.191 1.127-.625 1.188-.062.009-.124.01-.187 0m-33.813 0c-.433-.061-.806-.552-.625-1.188.332-1.16.709-2.391.938-3.593.221-1.161 1.565-1.176 1.344-.125s-.332 2.365-.719 3.968c-.145.602-.448.891-.75.938-.063.01-.125.009-.188 0m109.657.719c-.258.003-.586-.074-1-.281-1.659-.83-2.305-1.671-2.969-2.501-.664-.829-.182-1.745 1.063-.75 1.062.851 2.149 1.587 3.062 2.25.684.498.618 1.274-.156 1.282m-185.313 0c-.774-.008-.84-.784-.156-1.282.913-.663 2-1.399 3.063-2.25 1.244-.995 1.726-.079 1.062.75-.664.83-1.31 1.671-2.969 2.501-.414.207-.742.284-1 .281m175.563.344c-.532.007-1.255-.375-1.532-1.094-.553-1.438-.672-2.233-1.281-3.782-.608-1.547.909-1.213 1.406-.218.499.995 1.282 2.475 1.876 3.781.414.913.063 1.306-.469 1.313m-165.813 0c-.532-.007-.883-.4-.468-1.313.593-1.306 1.376-2.786 1.875-3.781.497-.995 2.014-1.329 1.406.218-.609 1.549-.728 2.344-1.281 3.782-.277.719-1 1.101-1.532 1.094m170.844 1c-.304-.017-.702-.287-1.156-.969-.829-1.244-1.429-2.004-1.844-2.75s-.173-1.715.656-.969c1.046.942 1.681 1.558 2.594 2.719.627.799.418 2.004-.25 1.969m-175.875 0c-.668.035-.877-1.17-.25-1.969.913-1.161 1.548-1.777 2.594-2.719.829-.746 1.071.223.656.969s-1.015 1.506-1.844 2.75c-.454.682-.852.952-1.156.969m144.188 3.329c-.348.027-.762-.19-1.032-.75-.718-1.493-.923-2.7-1.531-3.75-.608-1.051.252-1.611.75-.782.498.83 1.585 2.281 2.219 3.438.587 1.071.172 1.798-.406 1.844m-112.5 0c-.579-.046-.994-.773-.407-1.844.634-1.157 1.721-2.608 2.219-3.438.498-.829 1.358-.269.75.782-.608 1.05-.812 2.257-1.531 3.75-.27.56-.684.777-1.031.75m91.531.406c-.441-.012-1.006-.495-1.188-1.281-.331-1.438-.317-1.822-.594-3.094-.276-1.272.88-1.471 1.157-.531.276.94.97 2.904 1.156 3.906.104.56-.075.884-.344.969-.056.017-.124.033-.187.031m-70.563 0c-.063.002-.131-.014-.187-.031-.269-.085-.448-.409-.344-.969.186-1.002.88-2.966 1.156-3.906.277-.94 1.433-.741 1.156.531-.276 1.272-.262 1.656-.593 3.094-.182.786-.747 1.269-1.188 1.281m35.281-1.61c-.719 0-.818-.966-.843-1.75-.083-2.572-1.15-5.069-2.063-6.313-.912-1.244-2.256-.913-3.5-.25-1.244.664-1.985 1.161-3.312 2.156s-2.334.414-.75-1.844c4.617-6.58 9.625-12.204 9.625-22.937 0-1.388.242-1.812.843-1.812.602 0 .875.424.875 1.812 0 10.733 4.977 16.357 9.594 22.937 1.584 2.258.577 2.839-.75 1.844-1.326-.995-2.068-1.492-3.312-2.156-1.244-.663-2.588-.994-3.5.25-.913 1.244-1.98 3.741-2.063 6.313-.025.784-.124 1.75-.844 1.75m14.25 1.187c-.35 0-.698-.295-.843-1-.387-1.88-.538-3.084-.594-3.969-.055-.885.887-1.545 1.219-.218.374 1.496.887 2.526 1.218 3.687.208.726-.416 1.5-1 1.5m-28.5 0c-.583 0-1.207-.774-1-1.5.332-1.161.845-2.191 1.219-3.687.332-1.327 1.275-.667 1.219.218-.055.885-.207 2.089-.594 3.969-.145.705-.493 1-.844 1m67.032 2.798c-.334.034-.673-.221-.875-1.031-.277-1.106-.56-2.007-.781-2.782-.222-.774.384-1.716.937-.5.534 1.174.884 1.551 1.438 2.657.345.691-.163 1.599-.719 1.656m-105.563 0c-.556-.057-1.064-.965-.718-1.656.553-1.106.903-1.483 1.437-2.657.553-1.216 1.159-.274.938.5-.222.775-.505 1.676-.782 2.782-.202.81-.541 1.065-.875 1.031m93.188.687c-.4.077-.866-.282-1.157-1.25-.664-2.211-.935-3.677-1.156-4.562s.697-1.164 1.25.219c.553 1.382 1.183 2.533 1.625 3.75.35.962-.048 1.746-.562 1.843m-80.813 0c-.514-.097-.912-.881-.562-1.843.442-1.217 1.072-2.368 1.625-3.75.553-1.383 1.471-1.104 1.25-.219s-.492 2.351-1.157 4.562c-.29.968-.756 1.327-1.156 1.25m85.5.969c-.348-.074-.751-.41-1-1.156-.663-1.991-.762-2.606-1.094-3.656-.332-1.051.652-1.38 1.094-.219.502 1.318 1.221 2.565 1.719 3.781.249.608.001 1.126-.406 1.25-.102.031-.197.025-.313 0m-90.5 0c-.407-.124-.655-.642-.406-1.25.498-1.216 1.217-2.463 1.719-3.781.442-1.161 1.426-.832 1.093.219-.331 1.05-.43 1.665-1.093 3.656-.332.995-.905 1.281-1.313 1.156m94.813.063c-.333-.011-.72-.295-1.032-1-.829-1.88-1.129-2.866-1.406-3.75-.276-.886.572-1.679 1.125-.407.621 1.43 1.267 2.267 1.875 3.594.381.83-.008 1.581-.562 1.563m-98.813 0c-.554.018-.943-.733-.562-1.563.608-1.327 1.254-2.164 1.875-3.594.553-1.272 1.401-.479 1.125.407-.277.884-.577 1.87-1.406 3.75-.312.705-.699.989-1.032 1m59.094.17c-.329-.09-.625-.476-.625-1.312 0-1.493.101-3.132.156-3.906.056-.774 1-1.169 1-.063 0 1.291.255 2.698.531 3.969.139.636-.287 1.193-.75 1.312-.115.031-.203.031-.312 0m-19.688 0c-.462-.119-.888-.676-.75-1.312.277-1.271.532-2.678.532-3.969 0-1.106.945-.711 1 .063s.156 2.413.156 3.906c0 1.115-.475 1.432-.938 1.312m15.438 1.75c-.334-.042-.615-.325-.656-.968-.111-1.714.014-3.022.125-3.906.111-.885 1.202-1.486 1.312.062.107 1.499.383 2.692.438 3.687.03.545-.494 1.055-1 1.125-.073.011-.149.01-.219 0m-11.094 0c-.506-.07-1.03-.58-1-1.125.055-.995.331-2.188.438-3.687.11-1.548 1.201-.947 1.312-.062.111.884.236 2.192.125 3.906-.041.643-.322.926-.656.968-.069.01-.146.011-.219 0m7.688.563c-.553-.007-1.153-.484-1.125-1.563.055-2.156-.034-2.901.187-4.062s1.092-1.524 1.313-.031c.195 1.317.399 3.269.562 4.312.138.885-.385 1.351-.937 1.344m-4.063 0c-.552.007-1.075-.459-.937-1.344.163-1.043.367-2.995.562-4.312.221-1.493 1.092-1.13 1.313.031s.132 1.906.187 4.062c.028 1.079-.572 1.556-1.125 1.563" transform="matrix(1.3333333 0 0 -1.3333333 403.70827 239.7748)"/><path d="m0 0v-7.124m7.474 6.703-.272-6.469m6.283 6.307-.271-6.47m5.498 6.143-.326-6.466m5.067 6.14-.384-6.464m5.612 6.462-.442-6.46m5.335 5.955-.804-6.424m5.678 5.774-.803-6.425m5.84 6.75-.803-6.425m6.157 4.615-1.113-6.379m6.597 6.385-1.033-6.392m6.189 5.884-1.271-6.349m5.291 5.544-1.187-6.365m5.52 5.653-1.728-6.24m5.738 5.07-1.95-6.175m-77.366 12.821.272-6.469m-6.283 6.307.271-6.47m-5.498 6.143.326-6.466m-5.067 6.14.384-6.464m-5.612 6.462.442-6.46m-5.335 5.955.804-6.424m-5.678 5.774.803-6.425m-5.84 6.75.803-6.425m-6.157 4.615 1.113-6.379m-6.597 6.385 1.033-6.392m-6.189 5.884 1.271-6.349m-5.291 5.544 1.187-6.365m-5.52 5.653 1.728-6.24m-5.738 5.07 1.95-6.175" style="fill:#ffd83d;stroke:#000;stroke-width:1.5;stroke-linecap:round;stroke-linejoin:round;clip-path:url(#at)" transform="matrix(1.3333333 0 0 -1.3333333 295.95827 274.11133)"/></svg>