<svg height="800" viewBox="0 0 1208.892 800" width="1208.892" xmlns="http://www.w3.org/2000/svg" xmlns:xlink="http://www.w3.org/1999/xlink"><clipPath id="a"><path d="m0 600h906.669v-600h-906.669z" transform="translate(-371.32131 -389.55661)"/></clipPath><clipPath id="b"><path d="m0 600h906.669v-600h-906.669z" transform="translate(-241.78711 -376.95701)"/></clipPath><clipPath id="c"><path d="m0 600h906.669v-600h-906.669z" transform="translate(-244.38721 -367.25491)"/></clipPath><clipPath id="d"><path d="m0 600h906.669v-600h-906.669z" transform="translate(-244.38721 -356.05081)"/></clipPath><clipPath id="e"><path d="m0 600h906.669v-600h-906.669z" transform="translate(-300.00201 -461.85451)"/></clipPath><clipPath id="f"><path d="m0 600h906.669v-600h-906.669z" transform="translate(-278.17141 -490.96191)"/></clipPath><clipPath id="g"><path d="m0 600h906.669v-600h-906.669z" transform="translate(-321.83251 -490.96191)"/></clipPath><clipPath id="h"><path d="m0 600h906.669v-600h-906.669z" transform="translate(-227.82861 -485.01071)"/></clipPath><g transform="matrix(1.3333333 0 0 -1.3333333 0 800)"><path d="m0 0h906.669v600h-906.669z" fill="#ed1c24"/><path d="m0 200h906.669v400h-906.669z" fill="#005da4"/><path d="m0 400h906.669v200.001h-906.669z" fill="#fff"/></g><path clip-path="url(#a)" d="m0 0 6.301 92.982c-49.129 23.281-106.112 23.281-155.24 0l6.3-92.982c2.829-41.781 31.232-77.445 71.32-89.554 40.088 12.109 68.49 47.773 71.319 89.554" fill="#005da4" transform="matrix(1.3333333 0 0 -1.3333333 495.09507 280.5912)"/><path clip-path="url(#b)" d="m0 0c6.749-30.372 28.794-55.057 58.215-65.181 29.42 10.124 51.467 34.809 58.215 65.181l-29.108 38.811-11.643-15.525-17.464 34.93-17.465-34.93-11.643 15.525z" fill="#fff" transform="matrix(1.3333333 0 0 -1.3333333 322.3828 297.39067)"/><path clip-path="url(#c)" d="m0 0c5.358-9.281 17.227-12.461 26.508-7.103 6.004 3.466 13.401 3.466 19.405 0s13.401-3.466 19.405 0 13.401 3.466 19.405 0c9.281-5.358 21.149-2.178 26.507 7.103h.001v-5.602c-5.358-9.281-17.227-12.46-26.508-7.102-6.004 3.466-13.401 3.466-19.405 0-6.004-3.467-13.401-3.467-19.405 0-6.004 3.466-13.401 3.466-19.405 0-9.281-5.358-21.149-2.179-26.508 7.102z" fill="#005da4" transform="matrix(1.3333333 0 0 -1.3333333 325.8496 310.3268)"/><path clip-path="url(#d)" d="m0 0c5.358-9.281 17.227-12.461 26.508-7.103 6.004 3.467 13.401 3.467 19.405 0 6.004-3.465 13.401-3.465 19.405 0 6.004 3.467 13.401 3.467 19.405 0 9.281-5.358 21.149-2.178 26.507 7.103h.001v-5.602c-5.358-9.281-17.227-12.46-26.508-7.102-6.004 3.467-13.401 3.467-19.405 0-6.004-3.466-13.401-3.466-19.405 0-6.004 3.467-13.401 3.467-19.405 0-9.281-5.358-21.149-2.179-26.508 7.102z" fill="#005da4" transform="matrix(1.3333333 0 0 -1.3333333 325.8496 325.2656)"/><g fill="#fd0"><path clip-path="url(#e)" d="m0 0 1.456-4.756 4.846 1.117-3.391-3.638 3.391-3.638-4.846 1.117-1.456-4.756-1.456 4.756-4.846-1.117 3.391 3.638-3.391 3.638 4.846-1.117z" transform="matrix(1.3333333 0 0 -1.3333333 400.00267 184.194)"/><path clip-path="url(#f)" d="m0 0 1.456-4.756 4.846 1.117-3.391-3.638 3.391-3.638-4.846 1.117-1.456-4.756-1.456 4.756-4.846-1.117 3.391 3.638-3.391 3.638 4.846-1.117z" transform="matrix(1.3333333 0 0 -1.3333333 370.8952 145.38413)"/><path clip-path="url(#g)" d="m0 0 1.456-4.756 4.846 1.117-3.391-3.638 3.391-3.638-4.846 1.117-1.456-4.756-1.455 4.756-4.847-1.117 3.391 3.638-3.391 3.638 4.847-1.117z" transform="matrix(1.3333333 0 0 -1.3333333 429.11 145.38413)"/></g><path clip-path="url(#h)" d="m0 0 6.442-95.078c2.634-38.834 28.678-72.138 65.731-84.056 37.055 11.918 63.098 45.222 65.732 84.056l6.442 95.078c1.802-.854 3.617-1.677 5.446-2.471l-6.3-92.982c-2.829-41.781-31.232-77.445-71.32-89.554-40.088 12.109-68.49 47.773-71.319 89.554l-6.301 92.982c1.829.794 3.645 1.617 5.447 2.471" fill="#ed1c24" transform="matrix(1.3333333 0 0 -1.3333333 303.77147 153.31907)"/></svg>