<svg height="666.66669" viewBox="0 0 1000 666.66669" width="1000" xmlns="http://www.w3.org/2000/svg" xmlns:xlink="http://www.w3.org/1999/xlink"><clipPath id="a"><path d="m0 500h750v-500h-750z" transform="translate(-471.86821 -133.8311)"/></clipPath><path d="m0 0h750v500h-750z" fill="#006c35" transform="matrix(1.3333333 0 0 -1.3333333 0 666.66667)"/><path clip-path="url(#a)" d="m0 0c.011.005.021-.005.031 0 9.132-.445 17.712-.086 26.844-.531 1.447-1.231.724-4.049-.219-4.563-.042-.021-.113-.051-.156-.062-.034-.008-.091.001-.125 0-.034.001-.091-.008-.125 0-2.97.074-4.687.143-7.656.219-.005.147-.022.306-.063.437-.704 2.086-5.801 1.946-7 .313-.016-.024-.048-.07-.062-.094-.02-.032-.046-.092-.063-.125-.019-.042-.048-.113-.062-.156-.019-.062-.023-.154-.031-.219-.008-.075-.039-.171-.032-.25-4.009-.482-7.616.133-11.625.281-1.176 1.464-1.038 4.113.344 4.75m-4.25 22.594c-.008-.004-.023-.026-.031-.032-5.928-1.52-5.743-7.674-1.938-10.374-62.594 0-158.65 1.062-179.25 1.062-11.525 0-47.987 1.375-48.688 1.375 7.82-11.437 19.147-13.766 33.969-14 27.802 0 156.621.344 193.28.344-2.606-4.627.237-12.074 2.281-13.438.044-.028.114-.072.156-.094.076-.038.177-.075.25-.093.025-.006.071.003.094 0 2.428-.573 3.495 1.184 4.313 2.468 3.937-.346 26.097-.667 28.125.032.006.003.024.028.031.031 1.372-2.02 2.733-3.927 5.344-3.594 4.569.98 8.168 1.477 8.281 10.75 0 0-.467 15.802-10.844 14.812-2.455-.371-9.344-1.063-9.344-1.063-7.971.949-13.819 1.046-22.781 1.375.827 1.051 2.288 5.304.5 6.844-.466.388-1.161.604-2.125.531h-.031c-.014.001-.049-.002-.063 0-.007.002-.024.03-.031.032-.025.008-.069.016-.094.031-.048.033-.111.103-.156.156-.011.014-.052.048-.062.063-.454.66-.701 2.277-1 2.687l-.032.031c-.004.003-.027.029-.031.032-.011.006-.051.027-.062.031h-.031c-.005-.001-.028.001-.031 0zm53.54 108.4c-.742-.023-1.524-.126-2.656-.219-1.225-.26-1.653-.796-1.875-2.281.088-2.252 1.465-2.14 2.875-3.031.816-1.04 1.347-1.98-.063-3.688-1.337-1.224-2.289-1.9-3.625-3.125-.631-1.076-1.024-2.73.907-3.25 3.563-1.002 11.811 4.357 11.811 4.469 1.337 1.002.894 2.906.781 2.906-.778.891-2.537.356-3.718.5-.563 0-2.41.274-1.532 1.907.734 1.015 1.004 1.623 1.5 2.875.557 1.224.068 2.05-1.937 2.718-1.021.185-1.727.242-2.469.219zm-128.16 4.781c-.437.023-.902-.045-1.375-.281-.093 0-4.206-2.782-5.531-4.719-.809-.615-.717-1.15-.469-2.219.63-1.448 1.74-.993 3-.312 1.672.228 2.48-.868 2.344-2.875-.773-2.504.343-3.437.343-3.594s1.611-1.539 3.5-.438c3.99 1.523 6.476 3.005 12.063 4.219 1.466.029 1.382 3.954-.938 4.094-3.026-.152-5.818-.307-8.843-2.688-1.863-.43-2.181.703-2.595 1.719-.473 2.521 1.065 4.298.75 6.188.084-.083-.939.836-2.25.906zm-200.16 12.29c-.249-.008-.746-.751-1.407-1.594-5.875-9.36-6.397-23.331-3.156-27.5 1.723-1.969 4.563-2.835 6.656-2.219 3.692 1.601 5.314 9.078 4.438 11.812-1.231 1.929-2.208 2.234-3.438.594-2.597-5.273-3.678-1.666-3.906 1.281-.398 5.589.144 10.736.75 14.812.323 2.089.312 2.821.063 2.813zm155.94 6.781c.118.008.221 0 .343 0h.063c3.979-1.081 9.846-1.193 14.938-1.719 4.148-.263 6.197-3.51 2.312-4.875-3.832-1.312-7.513-2.337-7.531-7.875.504-2.743.398-4.182-.031-4.843-.033-.05-.087-.116-.125-.157-.005-.005-.025-.025-.031-.031-.006-.005-.026-.026-.031-.031-.006-.005-.025-.026-.031-.031l-.032-.032c-.01-.004-.051-.025-.062-.031-.056-.034-.127-.071-.188-.093-.053-.019-.13-.022-.187-.031-.911-.134-2.234.735-3.219 1.25-2.363 1.696-8.993 5.805-9.937 14.625-.135 1.99 1.355 3.706 3.75 3.875zm-63.844 8.719c-1.552-.108-2.937-.938-2.313-3.125-.093-1.586 4.386-3.516 4.657-7.188.64-1.513-.958-6.361.375-6.812 1.223-.504 2.921 3.352 3.562 6.937.355 1.965-1.536 8.836-4.75 10.062-.493.107-1.014.162-1.531.125zm213.31 9.625c-1.756-.216-3.426-1.877-2.656-4.531-.482-1.559 2.382-7.012 3.125-9.907.668-2.06-.861-7.887.531-8.5 1.281-.686 4.65 3.46 4.531 8.657.371 2.672-.953 12.517-4.312 14.188-.387.108-.814.144-1.219.093zm-251.16 3.93c.968-.011 1.989-.489 2.531-1.844.488-1.242.023-2.542-.562-3.187-.003-.005.003-.027 0-.031-.009-.015-.022-.049-.032-.063-.414-.534-1.869-.312-2.906-.312-1.254.055-1.872.261-2.625 1.281-.36 1.134.736 2.248 1.219 3.094.005.007.026.023.031.031.052.078.138.173.219.25.375.343 1.023.664 1.719.75.135.016.268.033.406.031m-32 4.438c-9.876-.181-24.338-12.946-24.719-20.032 10.421 5.005 20.657 9.822 31.25 15-1.71 2.553-.104 4.852-6.531 5.032m166.91 3.437c.777.083 1.798-.182 2.781-.75 1.423-.823 2.3-2.066 2.188-2.969-.004-.024.005-.069 0-.093-.006-.024-.056-.071-.063-.094-.008-.023-.022-.071-.031-.094-.006-.015-.024-.048-.031-.062-.007-.015-.024-.049-.032-.063-.046-.076-.124-.156-.187-.219-.684-.638-2.263-.547-3.75.313-1.41.815-2.281 2.068-2.188 2.969.003.025.027.069.032.093.023.112.067.214.125.313.02.035.038.093.062.125.005.006.027.025.031.031.042.049.106.115.157.156.226.179.548.306.906.344m119.96 2.01c-.104.018-.223.012-.344-.031 0 0-19.059-13.559-19.531-14.031-1.89-1.68-.944-7.589 0-6.906 1.366-.525 20.554 12.478 20.188 14 .836-.05 1.239 6.689-.312 6.968zm-137.97 5.656c-.743-.128-1.459-.74-1.719-1.75-.163-.661.317-1.761-.281-2.094-.344-.346-1.679-.145-1.625 1.688 0 .583-.429 1.224-.688 1.594-.26.17-.404.218-.875.218-.573-.023-.592-.174-.906-.656-.133-.491-.313-.974-.313-1.531-.071-.652-.301-.873-.781-.969-.536 0-.409-.058-.844.219-.257.282-.593.393-.593.875 0 .499-.1 1.295-.25 1.625-.228.3-.619.426-1.032.531-2.246-.008-2.378-2.558-2.25-3.531-.168-.183-.282-4.79 2.782-6.063 4.113-1.961 13.916-.806 11.531 5.532 0 .587-.161 2.556-.219 3.093-.42.978-1.195 1.348-1.937 1.22zm-34.188 5.375c-.054-.019-.107-.065-.157-.094-.023-.014-.069-.045-.093-.062-.402-.302-.877-.999-1.938-1.75-1.789-2.035-2.109-3.452-2-7.531.102-.432 3.397-9.592 6.188-16.031 1.882-6.693 3.623-14.356 2.343-21.594-4.405-9.569-13.262-18.15-21.811-22.812-4.356-1.395-8.118-.92-9.125.031-.008.008-.024.024-.031.031-2.502 1.682-2.559 4.676-2.407 5.188v.031c.006.006.026.026.032.031 7.214 5.025 15.453 9.091 21.905 22.656 1.906 5.184 2.487 8.297.594 16.312-.738 2.987-1.649 5.445-3.687 7.563.005.006.026.025.031.031 1.228.588 4.414-1.76 4.906-.282-.754 3.828-3.346 8.966-6.281 11.595-2.57 2.334-5.366 2.604-7.719.468-2.65-1.474-3.213-6.77-1.937-11.406 1.417-3.489 5.243-4.101 7.968-11.125 0-.007 0-.029 0-.031.057-.44.936-5.242-.437-7.187-1.114-3.475-15.424-14.759-16.438-15.438-.011-.011-.083-.052-.094-.063-.006-.006-.026-.026-.031-.031-.003-.002-.024-.025-.031-.031l-.032-.031c-.002 0-.027-.001-.03 0h-.032c-.006.005-.025.025-.031.031v.031c-.006.011-.026.051-.031.063-.043.281.033.999 0 2.156-.094 2.114.781 6.897.719 7.719v.031c-.006.006-.026.025-.032.031v.031h-.031c-4.73-3.054-6.292-12.416-7.156-15.188-11.975-8.274-25.574-14.43-33.406-22.812-4.079-6.37 28.104 7.315 31.844 8.969.032-.024.064-.063.094-.094.711-.782.771-3.51 2.906-5.969 3.345-4.532 10.456-7.322 17.375-5.594 11.603 4.195 18.288 12.102 25.094 20.875.973 1.415 2.497 2.531 3.906 1.438 4.677-10.47 18.161-17.92 35.594-18.688 4.034 4.906 2.105 7.318.468 8.344-.503.335-8.669 3.518-9.937 6.687-.798 2.949 1.143 5.565 5.032 7.531 11.193 1.354 22.195 2.858 32.844 6.282.107 3.577 2.215 8.926 3.625 11.25.978 1.612 1.608 1.771 1.844 2 .007.008.024.023.031.031.003.004.028.027.031.031.006.005.026.026.031.031v.063c.006.071-.001.193-.031.312l-1.812 1.063-35.72.156c-.441.17-.769.34-.968.5-.015.013-.049.05-.063.063-.006.006-.025.025-.031.031s-.026.025-.031.031c-.005.011-.027.051-.032.063l-.031.031v.031c-.003.003-.027.028-.031.031v.031.031.032.031.031.031.032.031c.006.006.025.025.031.031.008.016.021.046.031.063.175.235.598.456 1.125.656 8.529 1.162 23.683 3.646 24.688 18.219-.157 7.59-3.248 12.561-12.561 13.938-6.845-.53-11.726-7.149-10.939-14.438-.327-1.963.664-5.814-1.343-6.25-13.128-1.2-27.457-9.425-27.938-15.312-.003 0-.029 0-.032 0-.004-.006-.025-.026-.031-.032l-.062-.031c-.011.001-.052 0-.063 0-.021-.007-.072-.025-.094-.031-.005-.001-.023 0-.03 0-.018 0-.051 0-.063 0-.006 0-.023 0-.031 0-.013 0-.052-.001-.063 0-.034.007-.095.024-.125.031-.854.237-1.954 1.647-1.781 3.625-.5 10.177-3.812 21.694-9 30.562-1.851 1.851-2.658 2.601-3.187 2.688-.017.002-.046-.001-.063 0-.022 0-.066 0-.094 0-.004 0-.026 0-.031 0-.003 0-.028 0-.031 0-.004-.001-.027.001-.031 0zm161.62 13.469c-2.02.099-4.169-1.209-4.719-3.968.008-1.628.734-2.523.594-4-.211-.845-1.081-1.401-3.156-.407.324.299-1.344 2.657-1.344 2.657-1.619.985-3.78-.054-5.188-.969-.774-1.407-1.346-3.819-.468-6.281 2.323-4.293 10.293-11.619 14.093-11.688.071 3.87.448 9.017.657 12.218.089 1.209.373 2.541 1.531 2.844 1.157.303 3.165-1.164 3.187.094-.211 2.462-.703 6.096-2.093 7.812-.713 1.056-1.882 1.629-3.094 1.688zm-195.25.907c-.507.051-1.172-.135-1.938-.594-3.637-1.968-5.046-7.804-2.781-11.219 2.116-3.008 5.461-1.907 5.906-1.907 3.564-.445 5.688 6.688 5.688 6.688s.107 2.006-4.125-1.781c-1.781-.334-2.024.309-2.469 1.312-.371 1.856-.291 3.737.563 5.594.394 1.113.002 1.82-.844 1.906zm138.12 1.375c-.743-.129-1.459-.772-1.719-1.782-.163-.661.318-1.73-.281-2.062-.344-.347-1.68-.145-1.625 1.687 0 .584-.429 1.224-.688 1.594-.259.171-.435.219-.906.219-.573-.024-.56-.174-.875-.656-.133-.491-.312-.975-.312-1.532-.072-.652-.302-.873-.782-.968-.536 0-.44-.059-.875.218-.257.283-.562.393-.562.875 0 .499-.131 1.296-.281 1.625-.228.301-.588.426-1 .532-2.247-.008-2.379-2.559-2.25-3.532-.169-.183-.283-4.79 2.781-6.062 4.113-1.962 11.857-1.101 11.53 5.531 0 .587-.16 2.557-.219 3.094-.418.977-1.194 1.348-1.937 1.219zm-30.25 14.875c.176-.784.352-1.573.469-2.375.393-1.732.733-3.453 1.093-5.157-1.516 2.089-2.772 3.777-3.312 4.375-3.433 4.079.077 2.679 1.75 3.157m131.31 3.25c-1.921.067-4.016-1.392-3.188-4.25-.481-1.56 4.102-6.856 4.844-9.75.669-2.061-1.017-8.7.375-9.313 1.281-.686 3.082 4.588 3.75 9.469.371 2.672-1.61 12.049-4.969 13.719-.257.072-.538.115-.812.125m-237.5 6.156c.96.098 2.119-.784 2.688-2.031.605-1.331.301-2.602-.688-2.844-.99-.243-2.269.638-2.875 1.969-.606 1.33-.302 2.632.688 2.875.061.015.123.024.187.031m128.03 4.5c-2.108.062-4.44-1.266-3.531-3.906-.53-1.441 4.528-6.327 5.343-9 1.468-4.109-1.121-8.028.407-8.594 1.405-.634 3.36 4.241 4.093 8.75.848 3.644-1.752 11.114-5.437 12.656-.282.066-.573.085-.875.093zm-164.34.094c-.596-.076-1.254-.415-2.031-.594-2.553-.813-4.942-3.019-4.188-7.313 3.017-18.332 4.984-32.323 8-50.656.464-2.147-1.336-4.976-3.656-4.687-3.945 2.669-4.924 8.074-11.656 7.843-4.873-.058-10.431-5.361-11.125-10.468-.812-4.059-1.102-8.461 0-12 3.425-4.119 7.528-3.68 11.125-2.75 2.958 1.217 5.392 4.132 6.437 3.437.004-.003.029.004.031 0 .004-.004-.002-.027 0-.031.646-1.128-.06-10.663-13.938-18.031-8.527-3.829-15.315-4.745-18.968 2.218-2.263 4.352.164 20.925-5.407 17.095-16.475-42.468 38.599-48.395 44.75-1.75.399 1.316 1.613 2.636 2.469 2.312.376-.16.72-.67.844-1.625-1.277-42.235-42.606-45.13-49.625-31.844-1.74 3.132-2.263 10.103-2.438 14.281-.317 2.527-.952 3.985-1.687 4.563-1.674 1.258-3.925-2.023-4.406-7.719-.697-4.583-.5-5.841-.5-10.25 2.204-33.359 55.388-19.026 64.031 8.531 4.278 14.246-.087 24.993 1.344 26.312.012.01.049.022.062.031.014.008.048.024.063.031.014.006.046.027.062.031.049.014.131.031.188.032 5.279-5.687 12.688-.723 14.312 1.25.696.986 2.438 1.62 3.656.343 4.118-2.96 11.337-1.565 12.844 3.657.871 5.105 1.607 10.36 1.781 15.812-2.683-.833-4.848-1.457-5.719-2.375-.207-.227-.361-.478-.406-.75-.233-1.509-.455-3.023-.688-4.532-.024-.124-.064-.239-.125-.343-.114-.185-.303-.356-.5-.469-.948-.518-2.602-.222-2.687 1.156-1.276 5.802-6.528 6.556-9.719-2.437-2.147-1.74-6.061-2.079-6.469.531.522 6.034-1.909 6.843-6.781 4-1.566 11.951-3.12 23.361-4.687 35.312 2.031.059 3.893-1.414 5.75.906-2.01 6.249-6.261 18.963-8.657 20.156-.019.009-.043.024-.062.031-.109.131-.237.251-.344.344-.044.038-.112.094-.156.125s-.112.069-.156.094c-.096.052-.217.096-.313.125-.218.062-.43.091-.656.062zm-42.156.062c-1.162-.136-2.256-1.082-2.782-2.344-.194-4.461-.22-8.92.282-13.031 2.029-7.211 2.672-13.553 3.656-20.938.273-9.891-5.711-4.279-5.438.625 1.382 6.369 1.009 16.396-.218 18.938-.974 2.541-2.101 3.169-4.469 2.75-1.88.115-6.736-5.177-8.094-13.938 0 0-1.131-4.496-1.625-8.5-.664-4.524-3.661-7.729-5.75.625-1.805 6.072-2.914 21.032-5.937 17.531-.866-11.681-1.894-32.235 8.031-34.344 12.005-1.154 5.374 20.294 9.719 24.188.821 1.924 2.343 1.959 2.468-.469v-18.219c-.109-5.922 3.788-7.682 6.813-8.906 3.148.243 5.235.157 6.469-2.906.492-10.502 1.008-21.03 1.5-31.531 0 0 7.277-2.091 7.625 17.719.348 11.632-2.317 21.393-.75 23.656.055 2.224 2.905 2.333 4.875 1.25 3.137-2.213 4.53-4.938 9.406-3.844 7.42 2.044 11.89 5.646 12 11.344-.434 5.415-1.06 10.835-3.406 16.25.327.985-1.421 3.547-1.094 4.531 1.333-2.088 3.351-1.915 3.812 0-1.262 4.162-3.229 8.15-6.406 9.875-2.625 2.314-6.468 1.824-7.875-3-.652-5.558 2.015-12.147 6.063-17.531.86-2.103 2.062-5.602 1.531-8.75-2.154-1.228-4.29-.717-6.094 1.188 0 0-5.906 4.421-5.906 5.406 1.567 10.035.338 11.184-.531 13.969-.607 3.844-2.429 5.062-3.907 7.687-1.477 1.567-3.481 1.567-4.437 0-2.61-4.525-1.386-14.241.5-18.593 1.363-4.003 3.453-6.5 2.469-6.5-.81-2.262-2.5-1.736-3.719.875-1.74 5.395-2.094 13.437-2.094 17.062-.522 4.494-1.104 14.094-4.062 16.53-.789 1.076-1.721 1.45-2.625 1.344zm223.469.85c-.413-.041-.916-.678-1.687-2.313-1.855-3.037-3.114-8.328-2.969-13.281 4.018-27.813 5.25-52.154 7.875-79.969.214-2.69-.18-6.597-1.969-8.156-6.614-6.906-16.15-15.424-26.53-19.344-1.117-1.254 2.777-6.599 7.813-6.594 8.421.979 15.822 5.705 22.687 18.156 1.836 2.905 5.062 9.12 5.156 13.938.642 28.247-1.423 50.209-5.656 70.625-.271 1.989-.087 4.341.25 4.938.545.651 2.395-.015 3.375 1.593 1.44 1.47-3.844 13.656-6.844 18.345-.599 1.177-.968 2.115-1.5 2.062zm-144.249.062c-1.422-.072-2.677-.48-3.75-1.031-2.727-2.61-3.366-6.795-1.219-9.406 2.09-.987 4.174-3.09 2.781-4.25-5.908-6.311-21.287-16.857-22.062-18.781-.006-.016-.028-.048-.031-.063-.002-.013 0-.049 0-.062.001-.006-.001-.025 0-.031.005-.016.022-.05.031-.063l.031-.031c.006-.003.026.003.031 0 .007-.003.025-.029.032-.031s.023.002.031 0l.031-.032c.781-.523 10.404-.511 11.469-.03.008.004.025.027.031.03.003.003.029-.001.031 0 .002.003-.002.03 0 .032 3.308 1.218 19 19.156 19 19.156-.813.696-1.562 1.21-2.375 1.906-.87.754-.783 1.495 0 2.25 3.887 2.262 2.656 7.238.625 9.5-1.682.755-3.265 1.01-4.687.938zm-55.188.063c-.743-.129-1.46-.741-1.719-1.75-.163-.661.286-1.761-.312-2.094-.344-.347-1.649-.114-1.594 1.719 0 .584-.429 1.193-.688 1.562-.26.171-.435.219-.906.219-.574-.023-.56-.174-.875-.656-.14-.49-.32-.97-.32-1.53-.071-.652-.333-.873-.813-.969-.536 0-.409-.058-.843.219-.258.282-.563.393-.563.875 0 .499-.131 1.295-.281 1.625-.228.3-.588.456-1 .562-2.247-.007-2.41-2.589-2.281-3.562-.168-.184-.252-4.759 2.812-6.031 4.114-1.962 11.827-1.133 11.5 5.5 0 .586-.129 2.556-.187 3.093-.42.978-1.195 1.348-1.938 1.219zm215.03.593c-.347-.06-.861-.588-1.812-1.843-2.353-7.692-3.18-13.973-2.282-18.75 6.042-31.534 12.234-60.263 11.25-90.281 2.866-.019 6.179 6.555 7.594 13.062.775 8.963-.517 14.419-.75 19.688-.232 5.269-5.964 48.014-7.125 52-1.401 7.537 5.573.991 4.813 5.375-2.411 5.526-8.429 13.574-10.313 18.375-.708 1.286-.795 2.475-1.375 2.375zm88.312.469c-.413-.041-.916-.708-1.688-2.344-1.854-3.037-2.492-8.477-1.75-13.28 4.465-30.203 7.783-59.45 8.469-86.22-.384-2.541-.496-3.892-1.688-7.093-2.635-3.379-5.542-7.615-8.281-9.657-2.737-2.041-8.563-3.986-10.469-5.5-6.043-3.493-6.074-7.511-1.187-7.655 8.421.977 18.386 1.668 25.25 12.03 1.837 2.904 3.999 10.776 4.094 15.594.642 28.247-.362 55.866-4.594 76.281-.271 1.989-1.149 6.56-.813 7.157.545 1.398 3.301-.14 4.282 1.468 1.439 1.47-7.125 12.437-10.125 17.125-.6 1.178-.969 2.147-1.5 2.094m-346.91.04c-1.812.052-3.812-1.071-3.031-3.25-.455-1.187 3.547-5.2 4.25-7.406.63-1.57-.625-6.627.687-7.094 1.207-.523 2.868 3.501 3.5 7.219.35 2.037.085 9.008-4.656 10.438-.243.055-.491.086-.75.094zm304.53.313c-.509.079-1.064-.171-1.688-1.094-1.193-1.046-2.476-2.941-2.437-5.375.29-4.289 1.054-8.68 1.344-12.969.102-.574.21-1.145.312-1.718-.461.587-.863 1.046-1.094 1.28-8.359 8.783 3.841 1.436-1.593 8.22-4.597 5.046-5.942 6.652-9.875 9.687-1.973 1.275-3.164 3.711-3.813-.437-.258-3.646-.526-7.866-.281-10.938-.015-1.708 1.754-4.922 3.281-6.813 5.577-6.852 11.273-14.142 17-21.75 1.205-15.516 1.526-29.739 2.75-45.281-.174-6.648-2.218-15.476-4.156-16.312 0 0-2.96-1.7-4.938.187-1.438.578-7.187 9.594-7.187 9.594-2.944 2.698-4.905 1.927-7 0-5.776-5.577-8.388-16.023-12.313-23.219-1.011-1.606-3.862-2.972-7.03.125-8.049 10.996-3.343 26.648-4.345 22.625-7.168-8.078-3.993-21.465-2.375-24.344 2.365-4.728 4.277-7.755 8.875-10.094 4.19-3.083 7.452-1.159 9.25 1 4.216 4.368 4.272 15.54 6.25 17.75 1.389 4.06 4.867 3.362 6.563 1.563 1.644-2.364 3.585-3.902 6-5.188 3.932-3.468 8.625-4.098 13.25-.937 3.161 1.773 5.212 4.077 7.062 8.625 1.987 5.31 1.004 33.141.563 48.625 2.97-4.183 5.901-8.457 8.812-12.781 1.279-13.591 1.859-26.977 1.438-39.812-.301-2.552 8.906 7.619 8.845 12.438-.042 4.215.007 8.036 0 11.594 4.465-7.131 8.788-14.381 12.875-21.719 2.531 1.341 1.664 15.678.062 17.656-4.278 7.178-9.757 14.936-14 20.938-.839 7.574-1.981 16.511-2.5 19.25-.809 4.269-1.621 10.683-2.845 15.75-.335 1.978-1.348 8.298-1.03 8.906.498 1.414 2.384-.045 3.313 1.594 1.389 1.514-4.819 17.597-7.97 22.188-1.133 2.057-3.182 1.345-5.719-2-2.352-2.201-1.491-7.224-.594-12 2.333-12.175 4.415-24.573 6.063-36.938-3.05 4.534-6.773 10.021-10.438 15.312-.098.51-.468 2.38-.468 2.406 0 .219-.505 9.959-.938 12.281-.076.942-.301 1.214.688 1.094 1.046-.881 1.189-.929 1.843-1.219 1.058-.194 1.982 1.594 1.344 3.25-3.27 6.032-6.542 12.092-9.812 18.125-.394.387-.835.796-1.344.875m-118 1.219c-1.045-.095-1.877-.707-2.188-2.25-.416-3.63-.203-5.604.407-8.625.467-2.015 3.4-5.389 4.843-7.344 6.897-9.269 13.532-18.583 19.939-28.219 1.007-7.155 1.745-14.154 2.219-21.125 1.038-15.284 1.353-34.31.406-50.406 2.863-.113 7.451 4.624 9.062 11.562 1.047 9.597-.373 29.18-.468 34.844-.069 2.351-.213 5.157-.375 8.094 7.452-12.179 14.682-25.082 21.78-39.25 2.588 1.229 2.015 15.798.5 17.844-5.681 12.227-13.528 24.296-16.03 28.938-.904 1.676-3.98 6.354-7.625 11.75-.672 7.698-1.402 14.219-1.875 16.187-1.173 8.139 3.344-.917 2.718 3.813-1.465 8.127-5.951 13.65-11.25 21.094-1.709 2.421-1.674 2.915-4.312-.594-1.577-3.576-1.556-6.552-1.094-9.343-.694 1.008-1.552 2.203-2.781 3.687-4.576 3.926-4.859 4.141-8.656 7.344-1.199.85-3.478 2.158-5.219 2zm-39.812.718c-1.017-.088-2.144-1.273-3.063-3.562-.788-1.741-1.751-10.844-1.593-10.844-.629-2.709 2.83-3.857 4.406-.375 2.361 6.384 2.373 9.104 2.531 11.812-.368 2.063-1.264 3.058-2.281 2.969zm10.78.841c-.654-.089-1.453-.926-2.563-2.938-.795-2.108-4.225-5.297-1.75-11.875 2.025-4.171 2.857-10.949 1.938-18.5-1.403-2.146-1.723-2.886-3.563-5.031-2.584-2.779-5.383-2.069-7.531-1.031-2.006 1.352-3.584 2.046-4.5 6.343.165 6.849.564 18.059-.687 20.438-1.846 3.684-4.888 2.363-6.188 1.25-6.247-5.712-9.333-15.357-11.219-23.03-1.732-5.594-3.578-3.976-4.875-1.72-3.156 2.958-3.377 26.083-7.187 22.282-6.102-17.44 3.502-36.545 10.156-34.688 4.801-1.988 7.847 7.15 9.812 17.155 1.345 2.808 2.372 3.131 3.063 1.688-.178-13.306.954-16.274 4.375-20.312 7.631-5.887 13.943-.746 14.438-.25.494.495 5.937 5.937 5.937 5.937 1.323 1.391 3.07 1.476 4.938.25 1.815-1.65 1.582-4.492 5.469-6.468 3.27-1.309 10.254-.318 11.874 2.5 2.181 3.736 2.709 5.02 3.719 6.437 1.557 2.071 4.219 1.154 4.219.5-.247-1.155-1.812-2.294-.75-4.375 1.85-1.388 2.281-.496 3.375-.187 3.872 1.85 6.781 10.25 6.781 10.25.172 3.132-1.61 2.895-2.75 2.25-1.485-.909-1.576-1.217-3.063-2.125-1.892-.282-5.559-1.53-7.375 1.281-1.853 3.38-1.863 8.091-3.281 11.5 0 .248-2.475 5.36-.187 5.687 1.155-.214 3.639-.856 4.031 1.219 1.212 2.023-2.614 7.762-5.219 10.656-2.261 2.482-5.382 2.784-8.406.25-2.117-1.948-1.803-4.124-2.218-6.187-.54-2.37-.437-5.305 1.968-8.438 2.114-4.168 5.954-9.515 4.688-17.062 0 0-2.232-3.591-6.156-3.125-1.636.357-4.302 1.065-5.719 11.531-1.072 7.922.268 19.022-3.094 24.219-.759 1.961-1.411 3.866-2.5 3.719zm-34.062.187c-.388.011-.968-.205-1.781-.687-1.829-1.226-5.452-5.001-5.563-9.344-.111-2.451-.573-2.441 1.031-4 1.159-1.672 2.317-1.507 4.656-.281 1.344.989 1.798 1.621 2.25 3.281.558 2.784-2.929-1.318-3.375 1.781-.778 2.877 1.447 4.06 3.563 6.844.049 1.311.072 2.381-.781 2.406z" fill="#fff" transform="matrix(1.3333333 0 0 -1.3333333 629.1576 488.2252)"/></svg>