<svg height="1333.3333" viewBox="0 0 2000 1333.3333" width="2000" xmlns="http://www.w3.org/2000/svg"><path d="m0 0h1500v1000h-1500z" fill="#d52b1e" transform="matrix(1.3333333 0 0 -1.3333333 0 1333.3333)"/><path d="m0 0 500-499.999h1000v499.999z" fill="#fff" transform="matrix(1.3333333 0 0 -1.3333333 0 .000133)"/><path d="m0 500h500v499.999h-500z" fill="#0039a6" transform="matrix(1.3333333 0 0 -1.3333333 0 1333.3333)"/><g fill="#fff"><path d="m0 0-38.627-118.882 59.441-19.314z" transform="matrix(1.3333333 0 0 -1.3333333 333.33333 166.66667)"/><path d="m0 0 38.627-118.882-59.441-19.314z" transform="matrix(1.3333333 0 0 -1.3333333 333.33333 166.66667)"/><path d="m0 0h-125v-62.5z" transform="matrix(1.3333333 0 0 -1.3333333 491.8424 281.83067)"/><path d="m0 0-101.127-73.473-36.736 50.564z" transform="matrix(1.3333333 0 0 -1.3333333 491.8424 281.83067)"/><path d="m0 0 101.127-73.473 36.736 50.564z" transform="matrix(1.3333333 0 0 -1.3333333 174.82427 281.83067)"/><path d="m0 0h125v-62.5z" transform="matrix(1.3333333 0 0 -1.3333333 174.82427 281.83067)"/><path d="m0 0-38.627 118.882-59.441-19.314z" transform="matrix(1.3333333 0 0 -1.3333333 431.29747 468.16933)"/><path d="m0 0-101.127 73.473 36.736 50.564z" transform="matrix(1.3333333 0 0 -1.3333333 431.29747 468.16933)"/><g transform="matrix(1.3333333 0 0 -1.3333333 235.3692 468.16933)"><path d="m0 0 101.127 73.473-36.736 50.564z"/><path d="m0 0 38.627 118.882 59.441-19.314z"/></g></g></svg>