<?xml version="1.0" encoding="UTF-8" standalone="no"?>
<svg
   height="1000"
   viewBox="0 0 999.99999 1000"
   width="1000"
   version="1.1"
   id="svg14"
   sodipodi:docname="square.svg"
   inkscape:version="1.4 (e7c3feb1, 2024-10-09)"
   xmlns:inkscape="http://www.inkscape.org/namespaces/inkscape"
   xmlns:sodipodi="http://sodipodi.sourceforge.net/DTD/sodipodi-0.dtd"
   xmlns="http://www.w3.org/2000/svg"
   xmlns:svg="http://www.w3.org/2000/svg">
  <defs
     id="defs14" />
  <sodipodi:namedview
     id="namedview14"
     pagecolor="#ffffff"
     bordercolor="#000000"
     borderopacity="0.25"
     inkscape:showpageshadow="2"
     inkscape:pageopacity="0.0"
     inkscape:pagecheckerboard="0"
     inkscape:deskcolor="#d1d1d1"
     inkscape:current-layer="svg14" />
  <path
     d="M 0,1000 H 1000 V 0 H 0 Z"
     fill="#d52b1e"
     id="path1"
     style="stroke-width:0.816495" />
  <path
     d="M 0,9.9750002e-5 333.33333,499.9991 H 1000 V 9.9750002e-5 Z"
     fill="#ffffff"
     id="path2"
     style="stroke-width:0.816495" />
  <path
     d="M 0,500 H 500 V 9.9999752e-4 H 0 Z"
     fill="#0039a6"
     id="path3"
     style="stroke-width:0.999998" />
  <g
     fill="#ffffff"
     id="g14"
     transform="scale(0.75000002)">
    <path
       d="m 0,0 -38.627,-118.882 59.441,-19.314 z"
       transform="matrix(1.3333333,0,0,-1.3333333,333.33333,166.66667)"
       id="path4" />
    <path
       d="m 0,0 38.627,-118.882 -59.441,-19.314 z"
       transform="matrix(1.3333333,0,0,-1.3333333,333.33333,166.66667)"
       id="path5" />
    <path
       d="M 0,0 H -125 V -62.5 Z"
       transform="matrix(1.3333333,0,0,-1.3333333,491.8424,281.83067)"
       id="path6" />
    <path
       d="m 0,0 -101.127,-73.473 -36.736,50.564 z"
       transform="matrix(1.3333333,0,0,-1.3333333,491.8424,281.83067)"
       id="path7" />
    <path
       d="m 0,0 101.127,-73.473 36.736,50.564 z"
       transform="matrix(1.3333333,0,0,-1.3333333,174.82427,281.83067)"
       id="path8" />
    <path
       d="M 0,0 H 125 V -62.5 Z"
       transform="matrix(1.3333333,0,0,-1.3333333,174.82427,281.83067)"
       id="path9" />
    <path
       d="M 0,0 -38.627,118.882 -98.068,99.568 Z"
       transform="matrix(1.3333333,0,0,-1.3333333,431.29747,468.16933)"
       id="path10" />
    <path
       d="m 0,0 -101.127,73.473 36.736,50.564 z"
       transform="matrix(1.3333333,0,0,-1.3333333,431.29747,468.16933)"
       id="path11" />
    <g
       transform="matrix(1.3333333,0,0,-1.3333333,235.3692,468.16933)"
       id="g13">
      <path
         d="M 0,0 101.127,73.473 64.391,124.037 Z"
         id="path12" />
      <path
         d="M 0,0 38.627,118.882 98.068,99.568 Z"
         id="path13" />
    </g>
  </g>
</svg>
