<svg height="533.33331" viewBox="0 0 800 533.33331" width="800" xmlns="http://www.w3.org/2000/svg" xmlns:xlink="http://www.w3.org/1999/xlink"><clipPath id="a"><path d="m0 400h600v-400h-600z" transform="translate(-279.87501 -124.5938)"/></clipPath><clipPath id="b"><path d="m0 400h600v-400h-600z" transform="translate(-244.00831 -129.69241)"/></clipPath><clipPath id="c"><path d="m0 400h600v-400h-600z" transform="translate(-229.67721 -142.8965)"/></clipPath><clipPath id="d"><path d="m0 400h600v-400h-600z" transform="translate(-282.87351 -218.99951)"/></clipPath><clipPath id="e"><path d="m0 400h600v-400h-600z" transform="translate(-262.7134 -186.3496)"/></clipPath><clipPath id="f"><path d="m0 400h600v-400h-600z" transform="translate(-266.1133 -203.39501)"/></clipPath><clipPath id="g"><path d="m0 400h600v-400h-600z" transform="translate(-266.1133 -192.11131)"/></clipPath><clipPath id="h"><path d="m0 400h600v-400h-600z" transform="translate(-270.97171 -204.11521)"/></clipPath><clipPath id="i"><path d="m0 400h600v-400h-600z" transform="translate(-279.71631 -203.39501)"/></clipPath><clipPath id="j"><path d="m0 400h600v-400h-600z" transform="translate(-279.71631 -192.11131)"/></clipPath><clipPath id="k"><path d="m0 400h600v-400h-600z" transform="translate(-284.5747 -204.11521)"/></clipPath><clipPath id="l"><path d="m0 400h600v-400h-600z" transform="translate(-293.56251 -203.39501)"/></clipPath><clipPath id="m"><path d="m0 400h600v-400h-600z" transform="translate(-293.56251 -192.11131)"/></clipPath><clipPath id="n"><path d="m0 400h600v-400h-600z" transform="translate(-298.4209 -204.11521)"/></clipPath><clipPath id="o"><path d="m0 400h600v-400h-600z" transform="translate(-307.89451 -203.39501)"/></clipPath><clipPath id="p"><path d="m0 400h600v-400h-600z" transform="translate(-307.89451 -192.11131)"/></clipPath><clipPath id="q"><path d="m0 400h600v-400h-600z" transform="translate(-312.75291 -204.11521)"/></clipPath><clipPath id="r"><path d="m0 400h600v-400h-600z" transform="translate(-321.74021 -203.39501)"/></clipPath><clipPath id="s"><path d="m0 400h600v-400h-600z" transform="translate(-321.74021 -192.11131)"/></clipPath><clipPath id="t"><path d="m0 400h600v-400h-600z" transform="translate(-326.59861 -204.11521)"/></clipPath><clipPath id="u"><path d="m0 400h600v-400h-600z" transform="translate(-214.3735 -185.62891)"/></clipPath><clipPath id="v"><path d="m0 400h600v-400h-600z" transform="translate(-212.9146 -211.79641)"/></clipPath><clipPath id="w"><path d="m0 400h600v-400h-600z" transform="translate(-219.47361 -238.68461)"/></clipPath><clipPath id="x"><path d="m0 400h600v-400h-600z" transform="translate(-383.68361 -185.3887)"/></clipPath><clipPath id="y"><path d="m0 400h600v-400h-600z" transform="translate(-384.46871 -212.09371)"/></clipPath><clipPath id="z"><path d="m0 400h600v-400h-600z" transform="translate(-365.59371 -256.53121)"/></clipPath><clipPath id="A"><path d="m0 400h600v-400h-600z" transform="translate(-319.55571 -208.5557)"/></clipPath><clipPath id="B"><path d="m0 400h600v-400h-600z" transform="translate(-277.28811 -208.9766)"/></clipPath><clipPath id="C"><path d="m0 400h600v-400h-600z" transform="translate(-277.22751 -210.65621)"/></clipPath><clipPath id="D"><path d="m0 400h600v-400h-600z" transform="translate(-319.55471 -211.55711)"/></clipPath><clipPath id="E"><path d="m0 400h600v-400h-600z" transform="translate(-234.53521 -264.13231)"/></clipPath><clipPath id="F"><path d="m0 400h600v-400h-600z" transform="translate(-257.27491 -280.81301)"/></clipPath><clipPath id="G"><path d="m0 400h600v-400h-600z" transform="translate(-319.40621 -284.9375)"/></clipPath><clipPath id="H"><path d="m0 400h600v-400h-600z" transform="translate(-344.68751 -274.56251)"/></clipPath><clipPath id="I"><path d="m0 400h600v-400h-600z" transform="translate(-289.93551 -178.418)"/></clipPath><clipPath id="J"><path d="m0 400h600v-400h-600z" transform="translate(-308.04791 -178.418)"/></clipPath><clipPath id="K"><path d="m0 400h600v-400h-600z" transform="translate(-283.21441 -156.13771)"/></clipPath><clipPath id="L"><path d="m0 400h600v-400h-600z" transform="translate(-381.76761 -156.8818)"/></clipPath><clipPath id="M"><path d="m0 400h600v-400h-600z" transform="translate(-215.1025 -156.8818)"/></clipPath><clipPath id="N"><path d="m0 400h600v-400h-600z" transform="translate(-218.25981 -170.02441)"/></clipPath><clipPath id="O"><path d="m0 400h600v-400h-600z" transform="translate(-379.06931 -170.02441)"/></clipPath><clipPath id="P"><path d="m0 400h600v-400h-600z" transform="translate(-290.89111 -169.7852)"/></clipPath><clipPath id="Q"><path d="m0 400h600v-400h-600z" transform="translate(-281.65971 -176.26561)"/></clipPath><clipPath id="R"><path d="m0 400h600v-400h-600z" transform="translate(-315.42481 -176.26561)"/></clipPath><clipPath id="S"><path d="m0 400h600v-400h-600z" transform="translate(-290.62501 -287.4014)"/></clipPath><path d="m0 0h600v400h-600z" fill="#ce1126" transform="matrix(1.3333333 0 0 -1.3333333 0 533.33333)"/><path d="m0 100h600v200h-600z" fill="#fff" transform="matrix(1.3333333 0 0 -1.3333333 0 533.33333)"/><path clip-path="url(#a)" d="m0 0c-6.178-.349-12.334-4.518-15.219-6.75 5.18-2.268 10.711-4.037 16.594-5.25 9.375-1.574 18.75-1.563 28.125-1.563 1.53.193 3.045.411 4.531.657l19.75 6.656s-9.501 6.271-17.031 6c-7.531-.271-12.615-7.639-18.688-7.094-6.072.544-8.504 7.344-17.25 7.344-.273 0-.539.016-.812 0" fill="#083d9c" stroke="#083d9c" stroke-width="1.645" transform="matrix(1.3333333 0 0 -1.3333333 373.16667 367.20827)"/><path clip-path="url(#b)" d="m0 0 112.226-.48s-9.716 10.323-21.134 10.562c-11.417.242-8.258-4.801-17.003-5.52-8.745-.721-10.932 5.281-18.948 5.042-8.015-.241-12.632-5.042-18.703-5.284-6.073-.239-13.847 6.004-18.462 5.762-4.616-.239-21.134-7.201-21.134-7.201z" fill="#083d9c" stroke="#083d9c" stroke-width="1.546" transform="matrix(1.3333333 0 0 -1.3333333 325.3444 360.41013)"/><path clip-path="url(#c)" d="m0 0 138.459-.48c2.186 3.12-6.801 10.562-15.059 11.284-6.804-.241-11.66-6.962-17.247-7.203-5.588-.24-11.903 6.962-18.219 6.721-6.315-.24-12.874-6.721-19.191-6.721-6.315 0-10.93 6.962-18.946 6.962s-11.66-7.682-17.733-7.202c-6.074.481-11.418 7.682-17.247 7.682s-15.546-8.643-17.489-8.162c-1.944.48 2.427-3.602 2.672-2.881" fill="#083d9c" stroke="#083d9c" stroke-width="1.546" transform="matrix(1.3333333 0 0 -1.3333333 306.23627 342.80467)"/><g stroke="#630810"><path clip-path="url(#d)" d="m0 0 31.823-8.404v44.895c-14.576-.721-26.72 27.368-.972 29.288-25.263 3.601-28.179-2.881-31.093-9.842z" fill="#ce1126" stroke-linejoin="round" stroke-width="1.932" transform="matrix(1.3333333 0 0 -1.3333333 377.16467 241.334)"/><g fill="#630810" stroke-linecap="round"><path clip-path="url(#e)" d="m0 0 71.903-.24" stroke-width="2.792" transform="matrix(1.3333333 0 0 -1.3333333 350.28453 284.8672)"/><path clip-path="url(#f)" d="m0 0 8.502-11.284" stroke-width="1.806" transform="matrix(1.3333333 0 0 -1.3333333 354.81773 262.14)"/><path clip-path="url(#g)" d="m0 0 9.231 11.042" stroke-width="1.806" transform="matrix(1.3333333 0 0 -1.3333333 354.81773 277.18493)"/><path clip-path="url(#h)" d="m0 0-.243-6.962" stroke-width="1.806" transform="matrix(1.3333333 0 0 -1.3333333 361.2956 261.17973)"/><path clip-path="url(#i)" d="m0 0 8.502-11.284" stroke-width="1.806" transform="matrix(1.3333333 0 0 -1.3333333 372.95507 262.14)"/><path clip-path="url(#j)" d="m0 0 9.231 11.042" stroke-width="1.806" transform="matrix(1.3333333 0 0 -1.3333333 372.95507 277.18493)"/><path clip-path="url(#k)" d="m0 0-.243-6.962" stroke-width="1.806" transform="matrix(1.3333333 0 0 -1.3333333 379.43293 261.17973)"/><path clip-path="url(#l)" d="m0 0 8.502-11.284" stroke-width="1.806" transform="matrix(1.3333333 0 0 -1.3333333 391.41667 262.14)"/><path clip-path="url(#m)" d="m0 0 9.231 11.042" stroke-width="1.806" transform="matrix(1.3333333 0 0 -1.3333333 391.41667 277.18493)"/><path clip-path="url(#n)" d="m0 0-.243-6.962" stroke-width="1.806" transform="matrix(1.3333333 0 0 -1.3333333 397.89453 261.17973)"/><path clip-path="url(#o)" d="m0 0 8.502-11.284" stroke-width="1.806" transform="matrix(1.3333333 0 0 -1.3333333 410.526 262.14)"/><path clip-path="url(#p)" d="m0 0 9.231 11.042" stroke-width="1.806" transform="matrix(1.3333333 0 0 -1.3333333 410.526 277.18493)"/><path clip-path="url(#q)" d="m0 0-.243-6.962" stroke-width="1.806" transform="matrix(1.3333333 0 0 -1.3333333 417.00387 261.17973)"/><path clip-path="url(#r)" d="m0 0 8.503-11.284" stroke-width="1.806" transform="matrix(1.3333333 0 0 -1.3333333 428.98693 262.14)"/><path clip-path="url(#s)" d="m0 0 9.231 11.042" stroke-width="1.806" transform="matrix(1.3333333 0 0 -1.3333333 428.98693 277.18493)"/><path clip-path="url(#t)" d="m0 0-.242-6.962" stroke-width="1.806" transform="matrix(1.3333333 0 0 -1.3333333 435.4648 261.17973)"/></g></g><g fill="#ff9c10"><path clip-path="url(#u)" d="m0 0 30.606-.24v18.966l-34.98 1.679z" transform="matrix(1.3333333 0 0 -1.3333333 285.83133 285.82813)"/><path clip-path="url(#v)" d="m0 0 32.551-3.121-.242 13.444-31.822 12.484z" transform="matrix(1.3333333 0 0 -1.3333333 283.88613 250.93813)"/><path clip-path="url(#w)" d="m0 0 25.021-12.003 3.572 3.686s-2.301 1.567-2.187 3.008c.044 1.458 2.315 1.68 2.358 3.262.042 1.459-2.573 1.634-2.601 3.093-.171 1.581 2.016 3.276 2.016 3.276l-22.591 19.446z" transform="matrix(1.3333333 0 0 -1.3333333 292.63147 215.0872)"/><path clip-path="url(#x)" d="m0 0h-32.308l-.242 18.486 35.465 2.641z" transform="matrix(1.3333333 0 0 -1.3333333 511.57813 286.1484)"/><path clip-path="url(#y)" d="m0 0c-.408 3.001-.836 5.995-1.531 8.938-.932 3.939-2.12 7.816-3.563 11.593-.106.279-.265.535-.375.813l-27.625-11.563.25-13.687z" transform="matrix(1.3333333 0 0 -1.3333333 512.62493 250.54173)"/><path clip-path="url(#z)" d="m0 0-16.531-12.5c-.008-.01-.027-.05-.031-.063-.001-.004 0-.026 0-.031-.001-.005 0-.026 0-.031v-.031-.032c0-.011-.002-.049 0-.062.142-.717 1.602-2.48 1.812-3.781-.11-1.976-1.805-2.851-2.094-3.719-.007-.022-.026-.071-.031-.094-.003-.014.002-.047 0-.062-.002-.023 0-.072 0-.094.001-.015-.002-.048 0-.062.002-.015-.003-.049 0-.063.004-.014.026-.049.031-.062.018-.047.035-.113.063-.157.454-.688 2.062-1.088 2.062-2.531 0-1.576-1.469-2.513-1.656-2.625 1.905-1.257 2.253-2.788 2.656-4.344l24.75 12.875c-2.952 6.217-6.629 12.103-11.031 17.469" transform="matrix(1.3333333 0 0 -1.3333333 487.45827 191.29173)"/><path clip-path="url(#A)" d="m0 0 13.846.6.242 5.523z" transform="matrix(1.3333333 0 0 -1.3333333 426.07427 255.25907)"/><path clip-path="url(#B)" d="m0 0-14.575.42v5.762z" transform="matrix(1.3333333 0 0 -1.3333333 369.71747 254.69787)"/><path clip-path="url(#C)" d="m0 0-14.514 7.383v9.602s-1.701-.239-1.458 1.681c.08 4.001 10.667-7.303 16.093-10.983z" transform="matrix(1.3333333 0 0 -1.3333333 369.63667 252.4584)"/><path clip-path="url(#D)" d="m0 0-.06 6.241s13.116 11.703 15.909 13.864c0-2.401-1.517-4.26-1.517-4.26v-9.124z" transform="matrix(1.3333333 0 0 -1.3333333 426.07293 251.2572)"/><path clip-path="url(#E)" d="m0 0c.243-.24 14.718-16.14 14.718-16.14.406 1.507 3.743 1.736 7.143 1.495 3.402-.239 6.113.226 6.113-2.175 0-2.4-1.725-2.059-1.725-3.74s2.585-1.54 2.585-3.698c0-2.161-1.875-1.721-1.884-3.393-.006-1.383 1.956-1.457 1.956-1.457l13.785-13.205.06 14.105-28.42 44.053z" transform="matrix(1.3333333 0 0 -1.3333333 312.7136 181.15693)"/><path clip-path="url(#F)" d="m0 0c.216-.641 19.25-38.905 19.25-38.905s.216 35.913 3.46 37.836l-5.406 9.834z" transform="matrix(1.3333333 0 0 -1.3333333 343.0332 158.916)"/><path clip-path="url(#G)" d="m0 0-7.187-24.844s3.469-.432 6.281-.218c.703.053 1.115-.091 1.343-.313.048-.05.094-.13.125-.187.021-.042.05-.112.063-.157.028-.109.038-.256.031-.375-.05-.678-.531-1.437-.531-1.437l-.031-16 20.312 35.875c-4.146 2.117-8.557 3.935-13.25 5.406-2.441.923-4.81 1.652-7.156 2.25" transform="matrix(1.3333333 0 0 -1.3333333 425.87493 153.41667)"/><path clip-path="url(#H)" d="m0 0-25.125-38.625-.031-14.875 16.531 15.687c.202.192.352.361.437.5.027.046.047.116.063.157.008.024.027.071.031.093.002.016-.001.049 0 .063 0 .014.002.049 0 .062-.002.014.004.05 0 .063s-.025.05-.031.062c-.016.031-.04.066-.063.094-.399.471-1.712.741-1.843 2.156.026.279.093.513.187.688.359.63 1.098.742 1.563 1.312.242.309.406.759.406 1.501 0 .52-.062.874-.156 1.093-.012.025-.019.073-.032.094-.025.042-.065.093-.093.125-.005.005-.027.026-.032.031-.004.005-.026.027-.031.032-.216.182-.514.217-.781.406-.013.009-.05.021-.063.031-.025.021-.069.068-.093.094-.036.039-.09.106-.125.156-.161.245-.312.642-.407 1.25-.048.242-.063.502 0 .75.012.043.046.114.063.156.014.034.046.092.062.125.054.1.134.219.219.313.022.023.07.071.094.094.581.527 1.783.937 4.031.937 4.077 0 8.363.782 9.063-.875.07.071 9.042 9.043 12.843 12.969-4.843 5.046-10.424 9.524-16.687 13.281" transform="matrix(1.3333333 0 0 -1.3333333 459.58333 167.25)"/></g><path clip-path="url(#I)" d="m0 0c-6.922-11.33-25.425-7.97-29.752-.06-1.297.364-.53 48.8-.53 48.8s-2.067.93-2.163 2.42c-.094 1.504 2.812 1.64 2.812 3.566 0 1.923-2.968 1.169-3.028 3.106.014 1.851 3.169 1.596 3.028 3.307-.167 1.928-3.534 1.643-3.678 3.421-.108 1.412 2.409 2.643 3.109 3.278-.453-.022-2.339.028-2.351.034-1.766-.036-3.534-.071-5.3-.107-3.765-.004.065-.811.01-2.958-.035-1.403-1.91-2.336-2.077-3.556-.06-1.252 2.682-2.131 2.717-3.634.031-1.341-2.694-1.432-2.596-2.678.169-2.108 2.414-2.572 2.38-3.848-.035-1.275-3.02-1.761-3.029-2.778.105-1.969.433-49.808.433-49.808 4.758-24.37 32.228-30.568 40.015 1.495" fill="#ce1126" stroke="#630810" stroke-linejoin="round" stroke-width="1.932" transform="matrix(1.3333333 0 0 -1.3333333 386.58067 295.44267)"/><path clip-path="url(#J)" d="m0 0c6.922-11.33 25.425-7.97 29.752-.06 1.296.364.53 48.8.53 48.8s2.068.93 2.162 2.42c.095 1.504-2.629 1.64-2.629 3.566 0 1.923 2.787 1.169 2.845 3.106-.013 1.851-2.926 1.715-2.784 3.427.166 1.928 2.453 1.702 2.583 3.48.109 1.532-1.436 2.464-2.136 3.099.453-.022 2.217.028 2.231.034 1.765-.036 3.533-.071 5.299-.107 3.765-.004-.066-.811-.009-2.958.033-1.403 1.908-2.336 2.077-3.556.058-1.252-2.684-2.131-2.719-3.634-.03-1.341 2.695-1.432 2.597-2.678-.169-2.108-2.414-2.572-2.38-3.848.034-1.275 3.021-1.761 3.028-2.778-.103-1.969-.431-49.808-.431-49.808-4.76-24.37-32.228-30.568-40.016 1.495" fill="#ce1126" stroke="#630810" stroke-linejoin="round" stroke-width="1.932" transform="matrix(1.3333333 0 0 -1.3333333 410.73053 295.44267)"/><path clip-path="url(#K)" d="m0 0 30.909.019c.24.24-6.92 10.549-15.45 9.822-9.501-.245-15.956-9.841-15.459-9.841" fill="#083d9c" stroke="#083d9c" stroke-width="1.546" transform="matrix(1.3333333 0 0 -1.3333333 377.6192 325.14973)"/><path clip-path="url(#L)" d="m0 0h-42.294s5.475 3.197 6.967 6.147c2.735-1.475 1.989-2.95 7.464-3.196 5.472-.246 10.697 6.146 15.923 5.901 5.223-.247 11.94-9.098 11.94-8.852" fill="#083d9c" stroke="#083d9c" stroke-width="1.546" transform="matrix(1.3333333 0 0 -1.3333333 509.02347 324.1576)"/><path clip-path="url(#M)" d="m0 0h42.294s-5.474 3.197-6.967 6.147c-2.736-1.475-1.99-2.95-7.464-3.196-5.471-.246-10.696 6.146-15.922 5.901-5.224-.247-11.941-9.098-11.941-8.852" fill="#083d9c" stroke="#083d9c" stroke-width="1.546" transform="matrix(1.3333333 0 0 -1.3333333 286.80333 324.1576)"/><path clip-path="url(#N)" d="m0 0 30.121-.239s-1.943 4.08-2.185 9.122c-7.776 2.639-14.091-5.762-19.678-6.002-5.586-.239-11.415 6.002-11.415 6.002z" fill="#083d9c" stroke="#083d9c" stroke-width="1.546" transform="matrix(1.3333333 0 0 -1.3333333 291.01307 306.63413)"/><path clip-path="url(#O)" d="m0 0-30.122-.239s1.944 4.08 2.186 9.122c7.775 2.639 14.089-5.762 19.677-6.002 5.586-.239 11.416 6.002 11.416 6.002z" fill="#083d9c" stroke="#083d9c" stroke-width="1.546" transform="matrix(1.3333333 0 0 -1.3333333 505.42573 306.63413)"/><path clip-path="url(#P)" d="m0 0 15.302.479s.244 4.561-7.773 4.561c-8.015 0-7.286-5.281-7.529-5.04" fill="#083d9c" stroke="#083d9c" stroke-width="1.546" transform="matrix(1.3333333 0 0 -1.3333333 387.8548 306.95307)"/><path clip-path="url(#Q)" d="m0 0c2.672 1.441 5.101 2.881 6.802 6.242l-10.446-.239s-4.856-2.882-7.287-6.003z" fill="#630810" stroke="#630810" stroke-linecap="round" stroke-width="2.792" transform="matrix(1.3333333 0 0 -1.3333333 375.54627 298.31253)"/><path clip-path="url(#R)" d="m0 0c-2.673 1.441-5.101 2.881-6.801 6.242l10.445-.239s4.857-2.882 7.287-6.003z" fill="#630810" stroke="#630810" stroke-linecap="round" stroke-width="2.792" transform="matrix(1.3333333 0 0 -1.3333333 420.5664 298.31253)"/><path clip-path="url(#S)" d="m0 0c12.5 0 23.437 0 35.938-4.724 70.312-22.047 79.687-121.26 17.187-159.056-10.937-7.873-21.875-11.024-34.375-12.598-9.375 0-18.75 0-28.125 1.574-68.75 14.174-90.625 105.513-39.063 152.757 14.063 12.598 29.688 18.899 48.438 22.047m-290.625-187.401h600v200h-600z" fill="#fff" transform="matrix(1.3333333 0 0 -1.3333333 387.5 150.13147)"/></svg>