<svg height="600" viewBox="0 0 900 600" width="900" xmlns="http://www.w3.org/2000/svg" xmlns:xlink="http://www.w3.org/1999/xlink"><clipPath id="a"><path d="m0 .001h675v449.999h-675z" transform="translate(-.0002 .000503)"/></clipPath><clipPath id="b"><path d="m0 .001h675v449.999h-675z" transform="translate(-.0002 .000503)"/></clipPath><path d="m0 0v-449.999h.003l674.997 449.999z" fill="#1eb53a" transform="scale(1.3333333 -1.3333333)"/><path d="m0 0-674.997-449.999h674.997z" fill="#00a3dd" transform="matrix(1.3333333 0 0 -1.3333333 900 0)"/><path d="m0 0-674.997-449.999z" transform="matrix(1.3333333 0 0 -1.3333333 900 0)"/><path clip-path="url(#a)" d="m0 0 675 450" fill="none" stroke="#fcd116" stroke-width="178.125" transform="matrix(1.3333333 0 0 -1.3333333 .000267 600.00067)"/><path d="m0 0-674.997-449.999z" transform="matrix(1.3333333 0 0 -1.3333333 900 0)"/><path clip-path="url(#b)" d="m0 0 675 450" fill="none" stroke="#000" stroke-width="121.875" transform="matrix(1.3333333 0 0 -1.3333333 .000267 600.00067)"/></svg>