<svg height="199.75467" viewBox="0 0 300.20667 199.75467" width="300.20667" xmlns="http://www.w3.org/2000/svg" xmlns:xlink="http://www.w3.org/1999/xlink"><clipPath id="a"><path d="m0 0h225.155v149.817h-225.155z" transform="translate(-152.51991 -74.816902)"/></clipPath><clipPath id="b"><path d="m0 0h225.155v149.817h-225.155z" transform="translate(-113.8183 -104.419)"/></clipPath><clipPath id="c"><path d="m0 0h225.155v149.817h-225.155z" transform="translate(-116.2231 -45.128901)"/></clipPath><clipPath id="d"><path d="m0 0h225.155v149.817h-225.155z" transform="translate(-132.4506 -95.951203)"/></clipPath><clipPath id="e"><path d="m0 0h225.155v149.817h-225.155z" transform="translate(-142.9731 -65.188499)"/></clipPath><clipPath id="f"><path d="m0 0h225.155v149.817h-225.155z" transform="translate(-89.4682 -64.308599)"/></clipPath><clipPath id="g"><path d="m0 0h225.155v149.817h-225.155z" transform="translate(-99.183505 -95.591302)"/></clipPath><clipPath id="h"><path d="m0 0h225.155v149.817h-225.155z" transform="translate(-86.851 -84.351102)"/></clipPath><clipPath id="i"><path d="m0 0h225.155v149.817h-225.155z" transform="translate(-97.305602 -53.643599)"/></clipPath><clipPath id="j"><path d="m0 0h225.155v149.817h-225.155z" transform="translate(-140.37831 -85.169002)"/></clipPath><clipPath id="k"><path d="m0 0h225.155v149.817h-225.155z" transform="translate(-130.6332 -53.933601)"/></clipPath><clipPath id="l"><path d="m0 0h225.155v149.817h-225.155z" transform="translate(-89.790902 -82.986302)"/></clipPath><clipPath id="m"><path d="m0 0h225.155v149.817h-225.155z" transform="translate(-122.0707 -60.261704)"/></clipPath><clipPath id="n"><path d="m0 0h225.155v149.817h-225.155z" transform="translate(-112.6635 -24.188503)"/></clipPath><clipPath id="o"><path d="m0 0h225.155v149.817h-225.155z" transform="translate(-67.530701 -24.188503)"/></clipPath><clipPath id="p"><path d="m0 0h225.155v149.817h-225.155z" transform="translate(-59.288501 -61.191404)"/></clipPath><clipPath id="q"><path d="m0 0h225.155v149.817h-225.155z" transform="translate(-158.16351 -128.2925)"/></clipPath><clipPath id="r"><path d="m0 0h225.155v149.817h-225.155z" transform="translate(-171.1225 -93.044002)"/></clipPath><clipPath id="s"><path d="m0 0h225.155v149.817h-225.155z" transform="translate(-138.9828 -67.256902)"/></clipPath><clipPath id="t"><path d="m0 0h225.155v149.817h-225.155z" transform="translate(-108.7909 -93.044002)"/></clipPath><clipPath id="u"><path d="m0 0h225.155v149.817h-225.155z" transform="translate(-119.93301 -127.7744)"/></clipPath><clipPath id="v"><path d="m0 0h225.155v149.817h-225.155z" transform="translate(-119.37441 -75.919002)"/></clipPath><clipPath id="w"><path d="m0 0h225.155v149.817h-225.155z" transform="translate(-121.5697 -75.942902)"/></clipPath><clipPath id="x"><path d="m0 0h225.155v149.817h-225.155z" transform="translate(-120.4701 -76.515202)"/></clipPath><clipPath id="y"><path d="m0 0h225.155v149.817h-225.155z" transform="translate(-103.9677 -59.175801)"/></clipPath><clipPath id="z"><path d="m0 0h225.155v149.817h-225.155z" transform="translate(-114.1767 -57.767601)"/></clipPath><clipPath id="A"><path d="m0 0h225.155v149.817h-225.155z" transform="translate(-115.43691 -57.751004)"/></clipPath><clipPath id="B"><path d="m0 0h225.155v149.817h-225.155z" transform="translate(-116.7885 -57.801801)"/></clipPath><clipPath id="C"><path d="m0 0h225.155v149.817h-225.155z" transform="translate(-118.0492 -57.785204)"/></clipPath><clipPath id="D"><path d="m0 0h225.155v149.817h-225.155z" transform="translate(-124.0854 -59.207001)"/></clipPath><clipPath id="E"><path d="m0 0h225.155v149.817h-225.155z" transform="translate(-116.48091 -64.497104)"/></clipPath><clipPath id="F"><path d="m0 0h225.155v149.817h-225.155z" transform="translate(-114.6415 -64.641599)"/></clipPath><clipPath id="G"><path d="m0 0h225.155v149.817h-225.155z" transform="translate(-113.32461 -66.996104)"/></clipPath><clipPath id="H"><path d="m0 0h225.155v149.817h-225.155z" transform="translate(-115.16451 -67.344704)"/></clipPath><clipPath id="I"><path d="m0 0h225.155v149.817h-225.155z" transform="translate(-117.7533 -67.157204)"/></clipPath><clipPath id="J"><path d="m0 0h225.155v149.817h-225.155z" transform="translate(-116.33931 -68.008799)"/></clipPath><clipPath id="K"><path d="m0 0h225.155v149.817h-225.155z" transform="translate(-114.55611 -69.238304)"/></clipPath><clipPath id="L"><path d="m0 0h225.155v149.817h-225.155z" transform="translate(-112.90521 -69.982402)"/></clipPath><clipPath id="M"><path d="m0 0h225.155v149.817h-225.155z" transform="translate(-111.3373 -87.987802)"/></clipPath><clipPath id="N"><path d="m0 0h225.155v149.817h-225.155z" transform="translate(-119.7631 -64.227599)"/></clipPath><clipPath id="O"><path d="m0 0h225.155v149.817h-225.155z" transform="translate(-117.9789 -64.697302)"/></clipPath><clipPath id="P"><path d="m0 0h225.155v149.817h-225.155z" transform="translate(-117.1029 -67.249004)"/></clipPath><clipPath id="Q"><path d="m0 0h225.155v149.817h-225.155z" transform="translate(-118.975 -67.263704)"/></clipPath><clipPath id="R"><path d="m0 0h225.155v149.817h-225.155z" transform="translate(-121.4887 -66.618202)"/></clipPath><clipPath id="S"><path d="m0 0h225.155v149.817h-225.155z" transform="translate(-120.2494 -67.708004)"/></clipPath><clipPath id="T"><path d="m0 0h225.155v149.817h-225.155z" transform="translate(-118.7143 -69.234404)"/></clipPath><clipPath id="U"><path d="m0 0h225.155v149.817h-225.155z" transform="translate(-117.2221 -70.261702)"/></clipPath><clipPath id="V"><path d="m0 0h225.155v149.817h-225.155z" transform="translate(-115.3656 -81.924302)"/></clipPath><clipPath id="W"><path d="m0 0h225.155v149.817h-225.155z" transform="translate(-116.7504 -83.309102)"/></clipPath><clipPath id="X"><path d="m0 0h225.155v149.817h-225.155z" transform="translate(-117.7641 -84.991702)"/></clipPath><clipPath id="Y"><path d="m0 0h225.155v149.817h-225.155z" transform="translate(-116.1342 -85.020502)"/></clipPath><clipPath id="Z"><path d="m0 0h225.155v149.817h-225.155z" transform="translate(-116.49261 -86.180702)"/></clipPath><clipPath id="aa"><path d="m0 0h225.155v149.817h-225.155z" transform="translate(-116.349 -87.592802)"/></clipPath><clipPath id="ab"><path d="m0 0h225.155v149.817h-225.155z" transform="translate(-114.5785 -85.971702)"/></clipPath><clipPath id="ac"><path d="m0 0h225.155v149.817h-225.155z" transform="translate(-114.9423 -87.471702)"/></clipPath><clipPath id="ad"><path d="m0 0h225.155v149.817h-225.155z" transform="translate(-112.94721 -87.459002)"/></clipPath><clipPath id="ae"><path d="m0 0h225.155v149.817h-225.155z" transform="translate(-115.42521 -89.358902)"/></clipPath><clipPath id="af"><path d="m0 0h225.155v149.817h-225.155z" transform="translate(-113.7367 -89.194402)"/></clipPath><clipPath id="ag"><path d="m0 0h225.155v149.817h-225.155z" transform="translate(-111.17571 -87.393102)"/></clipPath><clipPath id="ah"><path d="m0 0h225.155v149.817h-225.155z" transform="translate(-111.59511 -88.256902)"/></clipPath><clipPath id="ai"><path d="m0 0h225.155v149.817h-225.155z" transform="translate(-112.10781 -89.238302)"/></clipPath><clipPath id="aj"><path d="m0 0h225.155v149.817h-225.155z" transform="translate(-115.5424 -85.065402)"/></clipPath><clipPath id="ak"><path d="m0 0h225.155v149.817h-225.155z" transform="translate(-122.265 -75.026902)"/></clipPath><clipPath id="al"><path d="m0 0h225.155v149.817h-225.155z" transform="translate(-122.8861 -72.867202)"/></clipPath><clipPath id="am"><path d="m0 0h225.155v149.817h-225.155z" transform="translate(-123.17421 -69.716804)"/></clipPath><clipPath id="an"><path d="m0 0h225.155v149.817h-225.155z" transform="translate(-123.2709 -67.179704)"/></clipPath><clipPath id="ao"><path d="m0 0h225.155v149.817h-225.155z" transform="translate(-119.2924 -80.394102)"/></clipPath><clipPath id="ap"><path d="m0 0h225.155v149.817h-225.155z" transform="translate(-118.4008 -77.565402)"/></clipPath><clipPath id="aq"><path d="m0 0h225.155v149.817h-225.155z" transform="translate(-116.94861 -76.120102)"/></clipPath><clipPath id="ar"><path d="m0 0h225.155v149.817h-225.155z" transform="translate(-118.3266 -80.610902)"/></clipPath><clipPath id="as"><path d="m0 0h225.155v149.817h-225.155z" transform="translate(-117.18891 -79.681202)"/></clipPath><clipPath id="at"><path d="m0 0h225.155v149.817h-225.155z" transform="translate(-117.1762 -78.758302)"/></clipPath><clipPath id="au"><path d="m0 0h225.155v149.817h-225.155z" transform="translate(-117.03261 -82.398902)"/></clipPath><clipPath id="av"><path d="m0 0h225.155v149.817h-225.155z" transform="translate(-115.50231 -81.654802)"/></clipPath><clipPath id="aw"><path d="m0 0h225.155v149.817h-225.155z" transform="translate(-115.5268 -81.900902)"/></clipPath><clipPath id="ax"><path d="m0 0h225.155v149.817h-225.155z" transform="translate(-116.16351 -82.938002)"/></clipPath><clipPath id="ay"><path d="m0 0h225.155v149.817h-225.155z" transform="translate(-119.0238 -82.717802)"/></clipPath><clipPath id="az"><path d="m0 0h225.155v149.817h-225.155z" transform="translate(-117.1342 -83.836902)"/></clipPath><clipPath id="aA"><path d="m0 0h225.155v149.817h-225.155z" transform="translate(-117.05121 -86.337902)"/></clipPath><clipPath id="aB"><path d="m0 0h225.155v149.817h-225.155z" transform="translate(-116.6127 -88.188002)"/></clipPath><clipPath id="aC"><path d="m0 0h225.155v149.817h-225.155z" transform="translate(-116.0512 -89.960502)"/></clipPath><clipPath id="aD"><path d="m0 0h225.155v149.817h-225.155z" transform="translate(-114.831 -91.988302)"/></clipPath><clipPath id="aE"><path d="m0 0h225.155v149.817h-225.155z" transform="translate(-110.45301 -93.928202)"/></clipPath><clipPath id="aF"><path d="m0 0h225.155v149.817h-225.155z" transform="translate(-113.1576 -92.678203)"/></clipPath><clipPath id="aG"><path d="m0 0h225.155v149.817h-225.155z" transform="translate(-109.4877 -90.347702)"/></clipPath><clipPath id="aH"><path d="m0 0h225.155v149.817h-225.155z" transform="translate(-113.0971 -92.426302)"/></clipPath><clipPath id="aI"><path d="m0 0h225.155v149.817h-225.155z" transform="translate(-110.7387 -91.194802)"/></clipPath><clipPath id="aJ"><path d="m0 0h225.155v149.817h-225.155z" transform="translate(-109.5517 -91.267603)"/></clipPath><g transform="matrix(1.3333333 0 0 -1.3333333 0 199.75467)"><path d="m0 0h225.155v149.817h-225.155z" fill="#006b3f"/><path d="m0 56.066h225.155v12.5h-225.155z" fill="#fff"/><path d="m0 68.566h225.155v12.5h-225.155z"/><path d="m0 81.067h225.155v12.5h-225.155z" fill="#fcd116"/><path d="m96.271 0h12.5v149.817h-12.5z" fill="#fcd116"/><path d="m108.771 0h12.499v149.817h-12.499z"/><path d="m121.271 0h12.5v149.817h-12.5z" fill="#fff"/></g><path clip-path="url(#a)" d="m0 0c.169-20.71-16.483-37.636-37.193-37.805s-37.636 16.483-37.805 37.193c-.002.204-.002.408 0 .612-.169 20.71 16.483 37.636 37.193 37.805 20.709.169 37.636-16.483 37.805-37.193.002-.204.002-.408 0-.612" fill="#d41c30" transform="matrix(1.3333333 0 0 -1.3333333 203.35987 99.9988)"/><g fill="#006b3f" stroke="#000" stroke-width=".5"><path clip-path="url(#b)" d="m0 0c0 .055 1.203 3.43 1.203 3.43l1.092-3.375s3.663-.11 3.663-.055-2.898-2.212-2.898-2.212 1.367-3.873 1.313-3.763c-.056.11-3.17 2.322-3.17 2.322s-3.17-2.212-3.116-2.212c.056 0 1.203 3.653 1.203 3.653l-2.843 2.157z" transform="matrix(1.3333333 0 0 -1.3333333 151.75773 60.529333)"/><path clip-path="url(#c)" d="m0 0c0-.055-1.202-3.43-1.202-3.43l-1.093 3.375s-3.663.11-3.663.055 2.898 2.212 2.898 2.212-1.367 3.873-1.312 3.763 3.17-2.326 3.17-2.326 3.17 2.216 3.114 2.216c-.055 0-1.202-3.653-1.202-3.653l2.843-2.157z" transform="matrix(1.3333333 0 0 -1.3333333 154.96413 139.5828)"/><path clip-path="url(#d)" d="m0 0c0-.055-1.203-3.43-1.203-3.43l-1.095 3.375s-3.66.11-3.66.055 2.895 2.212 2.895 2.212-1.364 3.873-1.309 3.763c.052-.11 3.169-2.322 3.169-2.322s3.171 2.212 3.116 2.212c-.056 0-1.203-3.653-1.203-3.653l2.843-2.157z" transform="matrix(1.3333333 0 0 -1.3333333 176.6008 71.819733)"/><path clip-path="url(#e)" d="m0 0c0-.055-1.202-3.43-1.202-3.43l-1.093 3.375s-3.662.111-3.662.055c0-.055 2.897 2.213 2.897 2.213s-1.368 3.872-1.312 3.763c.055-.111 3.17-2.324 3.17-2.324s3.17 2.213 3.114 2.213c-.052 0-1.202-3.652-1.202-3.652l2.843-2.157z" transform="matrix(1.3333333 0 0 -1.3333333 190.6308 112.83667)"/><path clip-path="url(#f)" d="m0 0c0-.055-1.202-3.427-1.202-3.427l-1.093 3.372s-3.663.113-3.663.055c0-.055 2.898 2.215 2.898 2.215s-1.367 3.873-1.313 3.761c.056-.111 3.171-2.324 3.171-2.324s3.17 2.213 3.115 2.213c-.056 0-1.203-3.65-1.203-3.65l2.843-2.157z" transform="matrix(1.3333333 0 0 -1.3333333 119.29093 114.00987)"/><path clip-path="url(#g)" d="m0 0c0-.055-1.203-3.43-1.203-3.43l-1.095 3.375s-3.66.11-3.66.055 2.895 2.212 2.895 2.212-1.365 3.873-1.31 3.763c.053-.11 3.17-2.322 3.17-2.322s3.17 2.212 3.115 2.212-1.202-3.653-1.202-3.653l2.842-2.157z" transform="matrix(1.3333333 0 0 -1.3333333 132.24467 72.2996)"/><path clip-path="url(#h)" d="m0 0c0 .056 1.202 3.431 1.202 3.431l1.093-3.375s3.663-.111 3.663-.056c0 .056-2.898-2.212-2.898-2.212s1.367-3.873 1.312-3.763-3.17 2.323-3.17 2.323-3.17-2.213-3.115-2.213c.053 0 1.203 3.653 1.203 3.653l-2.843 2.157z" transform="matrix(1.3333333 0 0 -1.3333333 115.80133 87.286533)"/><path clip-path="url(#i)" d="m0 0c0 .058 1.203 3.431 1.203 3.431l1.092-3.373s3.663-.113 3.663-.058c0 .058-2.895-2.212-2.895-2.212s1.365-3.873 1.31-3.76c-.055.11-3.17 2.323-3.17 2.323s-3.17-2.213-3.115-2.213 1.202 3.65 1.202 3.65l-2.842 2.157z" transform="matrix(1.3333333 0 0 -1.3333333 129.7408 128.22987)"/><path clip-path="url(#j)" d="m0 0c0 .057 1.202 3.43 1.202 3.43l1.093-3.373s3.663-.112 3.663-.057c0 .057-2.897-2.212-2.897-2.212s1.366-3.873 1.312-3.76c-.056.11-3.171 2.322-3.171 2.322s-3.17-2.212-3.115-2.212 1.203 3.65 1.203 3.65l-2.843 2.157z" transform="matrix(1.3333333 0 0 -1.3333333 187.17107 86.196)"/><path clip-path="url(#k)" d="m0 0c0 .056 1.203 3.431 1.203 3.431l1.092-3.375s3.662-.111 3.662-.056c0 .056-2.897-2.212-2.897-2.212s1.367-3.873 1.312-3.763c-.055.113-3.169 2.326-3.169 2.326s-3.171-2.213-3.116-2.213c.056 0 1.203 3.65 1.203 3.65l-2.843 2.157z" transform="matrix(1.3333333 0 0 -1.3333333 174.1776 127.8432)"/></g><g fill="#009543"><path clip-path="url(#l)" d="m0 0h.179z" transform="matrix(1.3333333 0 0 -1.3333333 119.7212 89.106267)"/><path clip-path="url(#m)" d="m0 0h.179z" transform="matrix(1.3333333 0 0 -1.3333333 162.76093 119.40573)"/><path clip-path="url(#n)" d="m0 0h.179z" transform="matrix(1.3333333 0 0 -1.3333333 150.218 167.50333)"/><path clip-path="url(#o)" d="m0 0h.179z" transform="matrix(1.3333333 0 0 -1.3333333 90.040933 167.50333)"/><path clip-path="url(#p)" d="m0 0h.179z" transform="matrix(1.3333333 0 0 -1.3333333 79.051333 118.16613)"/><path clip-path="url(#q)" d="m0 0h-.179z" transform="matrix(1.3333333 0 0 -1.3333333 210.88467 28.698)"/><path clip-path="url(#r)" d="m0 0h-.178z" transform="matrix(1.3333333 0 0 -1.3333333 228.16333 75.696)"/><path clip-path="url(#s)" d="m0 0h-.179z" transform="matrix(1.3333333 0 0 -1.3333333 185.3104 110.0788)"/><path clip-path="url(#t)" d="m0 0h-.179z" transform="matrix(1.3333333 0 0 -1.3333333 145.05453 75.696)"/><path clip-path="url(#u)" d="m0 0h-.179z" transform="matrix(1.3333333 0 0 -1.3333333 159.91067 29.3888)"/></g><g stroke="#000" stroke-width=".375"><path clip-path="url(#v)" d="m0 0c1.23.128 2.582-4.702 3.017-10.789.435-6.088-.211-11.126-1.443-11.254-1.232-.129-2.583 4.702-3.017 10.789-.435 6.087.212 11.126 1.443 11.254" fill="#006b3f" transform="matrix(1.3333333 0 0 -1.3333333 159.16587 98.529333)"/><path clip-path="url(#w)" d="m0 0c1.303.135 2.713-4.689 3.15-10.776.438-6.087-.264-11.131-1.566-11.266-1.303-.136-2.713 4.688-3.15 10.775-.438 6.088.264 11.131 1.566 11.267" fill="#006b3f" transform="matrix(1.3333333 0 0 -1.3333333 162.09293 98.497467)"/><path clip-path="url(#x)" d="m0 0c1.043.11 2.268-5.256 2.737-11.985s.004-12.273-1.038-12.384c-1.042-.11-2.267 5.256-2.736 11.986-.469 6.728-.005 12.273 1.037 12.383" fill="#006b3f" transform="matrix(1.3333333 0 0 -1.3333333 160.6268 97.7344)"/><path clip-path="url(#y)" d="m0 0c1.914.079 1.083 1.104 2.05 1.648.966.544 2.341.185 2.754-.496.412-.681.081-1.349.612-1.358.532-.01 14.982.597 15.502.025.522-.569.608-1.693.068-2.131-.54-.442-18.809-.646-19.438-.184-.629.456-1.55 2.383-1.548 2.496" fill="#9c4a00" transform="matrix(1.3333333 0 0 -1.3333333 138.6236 120.8536)"/><path clip-path="url(#z)" d="m0 0c-.035-1.444 2.1-1.035 2.13-2.241-.064-1.278-3.581-.078-3.615 2.261.147 2.336 3.589 3.491 3.631 2.156.032-1.109-2.111-.732-2.146-2.176" fill="#fcd116" transform="matrix(1.3333333 0 0 -1.3333333 152.2356 122.7312)"/><path clip-path="url(#A)" d="m0 0c-.035-1.444 2.101-1.035 2.13-2.241-.065-1.278-3.581-.078-3.615 2.261.146 2.335 3.589 3.49 3.631 2.156.032-1.109-2.112-.732-2.146-2.176" fill="#fcd116" transform="matrix(1.3333333 0 0 -1.3333333 153.91587 122.75333)"/><path clip-path="url(#B)" d="m0 0c-.035-1.443 2.101-1.034 2.13-2.24-.064-1.28-3.581-.079-3.615 2.26.146 2.335 3.589 3.49 3.631 2.156.032-1.109-2.111-.732-2.146-2.176" fill="#fcd116" transform="matrix(1.3333333 0 0 -1.3333333 155.718 122.6856)"/><path clip-path="url(#C)" d="m0 0c-.035-1.443 2.1-1.034 2.129-2.24-.064-1.28-3.581-.079-3.614 2.26.145 2.335 3.588 3.49 3.631 2.156.031-1.109-2.112-.732-2.146-2.176" fill="#fcd116" transform="matrix(1.3333333 0 0 -1.3333333 157.39893 122.70773)"/><path clip-path="url(#D)" d="m0 0c.674-.011 1.207-.573 1.193-1.256s-.571-1.229-1.245-1.22c-.674.011-1.207.574-1.193 1.256.015.684.572 1.23 1.245 1.22" fill="#9c4a00" transform="matrix(1.3333333 0 0 -1.3333333 165.4472 120.812)"/><path clip-path="url(#E)" d="m0 0c.596.09 1.193-.905 1.335-2.223.14-1.317-.23-2.457-.825-2.548-.596-.089-1.194.906-1.334 2.223-.141 1.318.227 2.458.824 2.548" fill="#006b3f" transform="matrix(1.3333333 0 0 -1.3333333 155.30787 113.75853)"/><path clip-path="url(#F)" d="m0 0c.596.091 1.194-.904 1.334-2.222.142-1.317-.228-2.458-.824-2.548-.596-.089-1.193.905-1.334 2.222-.141 1.318.228 2.458.824 2.548" fill="#006b3f" transform="matrix(1.3333333 0 0 -1.3333333 152.85533 113.56587)"/><path clip-path="url(#G)" d="m0 0c.596.09 1.193-.905 1.334-2.223.141-1.316-.228-2.458-.824-2.548-.596-.089-1.194.906-1.334 2.223-.141 1.318.228 2.458.824 2.548" fill="#006b3f" transform="matrix(1.3333333 0 0 -1.3333333 151.09947 110.42653)"/><path clip-path="url(#H)" d="m0 0c.572.091 1.162-1.014 1.316-2.467.156-1.453-.184-2.705-.756-2.796-.574-.09-1.164 1.015-1.318 2.468-.155 1.453.185 2.704.758 2.795" fill="#006b3f" transform="matrix(1.3333333 0 0 -1.3333333 153.55267 109.96173)"/><path clip-path="url(#I)" d="m0 0c.573.089 1.155-.944 1.301-2.307.144-1.362-.202-2.539-.776-2.627-.573-.088-1.156.944-1.3 2.307-.146 1.362.202 2.539.775 2.627" fill="#009543" transform="matrix(1.3333333 0 0 -1.3333333 157.0044 110.21173)"/><path clip-path="url(#J)" d="m0 0c.574.089 1.156-.943 1.302-2.307.145-1.362-.202-2.539-.776-2.628-.573-.087-1.156.945-1.301 2.308-.145 1.362.202 2.538.775 2.627" fill="#009543" transform="matrix(1.3333333 0 0 -1.3333333 155.11907 109.07627)"/><path clip-path="url(#K)" d="m0 0c.574.088 1.156-.944 1.302-2.308.144-1.362-.202-2.538-.776-2.627-.573-.088-1.156.944-1.301 2.307-.145 1.362.202 2.539.775 2.628" fill="#009543" transform="matrix(1.3333333 0 0 -1.3333333 152.74147 107.43693)"/><path clip-path="url(#L)" d="m0 0c.573.089 1.156-.944 1.301-2.307.145-1.362-.202-2.539-.775-2.628-.573-.088-1.156.945-1.301 2.307-.145 1.363.202 2.539.775 2.628" fill="#006b3f" transform="matrix(1.3333333 0 0 -1.3333333 150.54027 106.4448)"/><path clip-path="url(#M)" d="m0 0s-3.664-3.18-3.253-11.786c.461-8.655 8.099-12.723 8.099-12.723s1.946 2.456 1.719 9.411c-.544 10.167-4.151 14.659-4.151 14.659z" fill="#9461c9" transform="matrix(1.3333333 0 0 -1.3333333 148.44973 82.4376)"/><g fill="#006b3f"><path clip-path="url(#N)" d="m0 0c.603-.019 1.013-1.104.917-2.425s-.662-2.378-1.265-2.36c-.603.017-1.013 1.103-.918 2.425.097 1.321.663 2.378 1.266 2.36" transform="matrix(1.3333333 0 0 -1.3333333 159.68413 114.11787)"/><path clip-path="url(#O)" d="m0 0c.603-.018 1.014-1.103.917-2.424-.097-1.322-.663-2.379-1.266-2.36-.602.017-1.012 1.102-.917 2.424.097 1.321.663 2.378 1.266 2.36" transform="matrix(1.3333333 0 0 -1.3333333 157.3052 113.4916)"/><path clip-path="url(#P)" d="m0 0c.603-.019 1.013-1.104.917-2.425-.097-1.321-.663-2.378-1.266-2.36-.602.017-1.013 1.103-.917 2.425.096 1.321.662 2.378 1.266 2.36" transform="matrix(1.3333333 0 0 -1.3333333 156.1372 110.08933)"/><path clip-path="url(#Q)" d="m0 0c.58-.013.964-1.205.856-2.662-.107-1.457-.664-2.629-1.244-2.615-.58.012-.963 1.204-.856 2.662.107 1.457.664 2.628 1.244 2.615" transform="matrix(1.3333333 0 0 -1.3333333 158.63333 110.06973)"/><path clip-path="url(#R)" d="m0 0c.58-.015.969-1.135.869-2.502-.099-1.366-.65-2.462-1.231-2.447-.579.015-.969 1.135-.869 2.502.1 1.366.652 2.462 1.231 2.447" transform="matrix(1.3333333 0 0 -1.3333333 161.98493 110.9304)"/><path clip-path="url(#S)" d="m0 0c.581-.015.97-1.135.87-2.502-.099-1.366-.651-2.462-1.231-2.447-.58.014-.97 1.136-.869 2.502.1 1.366.651 2.462 1.23 2.447" transform="matrix(1.3333333 0 0 -1.3333333 160.33253 109.47733)"/><path clip-path="url(#T)" d="m0 0c.58-.015.969-1.135.869-2.501s-.651-2.462-1.23-2.447c-.581.014-.97 1.135-.87 2.502.1 1.366.651 2.462 1.231 2.446" transform="matrix(1.3333333 0 0 -1.3333333 158.28573 107.44213)"/><path clip-path="url(#U)" d="m0 0c.58-.015.969-1.135.869-2.502-.1-1.366-.65-2.462-1.231-2.447-.579.015-.969 1.135-.869 2.502.1 1.366.651 2.462 1.231 2.447" transform="matrix(1.3333333 0 0 -1.3333333 156.29613 106.0724)"/></g><path clip-path="url(#V)" d="m0 0c1.593.615 4.559-2.792 6.624-7.609 2.066-4.818 2.45-9.222.857-9.837-1.591-.615-4.556 2.792-6.623 7.61-2.066 4.817-2.449 9.221-.858 9.836" fill="#d41c30" transform="matrix(1.3333333 0 0 -1.3333333 153.8208 90.522267)"/><path clip-path="url(#W)" d="m0 0c.744-.014 1.339-.558 1.327-1.214-.012-.658-.624-1.18-1.369-1.167s-1.339.557-1.327 1.214c.012.658.624 1.18 1.369 1.167" fill="#009543" transform="matrix(1.3333333 0 0 -1.3333333 155.6672 88.675867)"/><path clip-path="url(#X)" d="m0 0c.667-.012 1.198-.555 1.187-1.212-.012-.657-.562-1.181-1.229-1.168-.667.011-1.198.554-1.187 1.212.012.656.562 1.18 1.229 1.168" fill="#009543" transform="matrix(1.3333333 0 0 -1.3333333 157.0188 86.4324)"/><path clip-path="url(#Y)" d="m0 0c.668-.012 1.199-.554 1.187-1.211-.011-.658-.562-1.182-1.228-1.169-.668.011-1.199.554-1.188 1.211.012.658.563 1.181 1.229 1.169" fill="#009543" transform="matrix(1.3333333 0 0 -1.3333333 154.8456 86.394)"/><g fill="#006b3f"><path clip-path="url(#Z)" d="m0 0c.698-.012 1.255-.523 1.244-1.14s-.586-1.107-1.283-1.095c-.698.012-1.256.523-1.244 1.14.011.617.586 1.108 1.283 1.095" transform="matrix(1.3333333 0 0 -1.3333333 155.32347 84.847067)"/><path clip-path="url(#aa)" d="m0 0c.698-.013 1.256-.523 1.244-1.14-.011-.617-.586-1.108-1.284-1.095-.697.012-1.254.523-1.243 1.14s.585 1.107 1.283 1.095" transform="matrix(1.3333333 0 0 -1.3333333 155.132 82.964267)"/><path clip-path="url(#ab)" d="m0 0c.667-.012 1.198-.554 1.187-1.212-.012-.657-.562-1.18-1.229-1.169-.667.012-1.199.555-1.187 1.212.012.658.562 1.181 1.229 1.169" transform="matrix(1.3333333 0 0 -1.3333333 152.77133 85.125733)"/><path clip-path="url(#ac)" d="m0 0c.667-.012 1.199-.543 1.187-1.187-.012-.645-.562-1.157-1.229-1.145-.666.012-1.198.544-1.187 1.188.012.644.562 1.156 1.229 1.144" transform="matrix(1.3333333 0 0 -1.3333333 153.2564 83.125733)"/><path clip-path="url(#ad)" d="m0 0c.745-.014 1.338-.557 1.327-1.214-.012-.658-.625-1.18-1.369-1.167-.745.013-1.339.557-1.328 1.214.012.658.625 1.18 1.37 1.167" transform="matrix(1.3333333 0 0 -1.3333333 150.59627 83.142667)"/><path clip-path="url(#ae)" d="m0 0c.698-.012 1.255-.523 1.244-1.14s-.586-1.108-1.283-1.095c-.699.012-1.256.523-1.245 1.14.012.617.586 1.108 1.284 1.095" transform="matrix(1.3333333 0 0 -1.3333333 153.90027 80.609467)"/><path clip-path="url(#af)" d="m0 0c.667-.012 1.198-.543 1.187-1.187-.012-.644-.562-1.157-1.229-1.145-.666.012-1.198.543-1.187 1.188.012.644.562 1.156 1.229 1.144" transform="matrix(1.3333333 0 0 -1.3333333 151.64893 80.8288)"/><path clip-path="url(#ag)" d="m0 0c.667-.012 1.198-.554 1.187-1.211-.012-.658-.562-1.181-1.229-1.17-.667.012-1.199.555-1.187 1.212.012.658.562 1.181 1.229 1.169" transform="matrix(1.3333333 0 0 -1.3333333 148.23427 83.230533)"/><path clip-path="url(#ah)" d="m0 0c.667-.012 1.199-.543 1.187-1.187-.011-.644-.562-1.157-1.229-1.145-.666.012-1.198.543-1.187 1.188.012.644.562 1.156 1.229 1.144" transform="matrix(1.3333333 0 0 -1.3333333 148.79347 82.0788)"/><path clip-path="url(#ai)" d="m0 0c.667-.012 1.199-.544 1.187-1.187-.011-.645-.562-1.157-1.229-1.146-.666.013-1.198.544-1.187 1.188.012.645.562 1.157 1.229 1.145" transform="matrix(1.3333333 0 0 -1.3333333 149.47707 80.770267)"/><path clip-path="url(#aj)" d="m0 0c2.043.721 5.696-3.344 8.162-9.081 2.466-5.735 2.809-10.97.766-11.691-2.042-.721-5.696 3.344-8.161 9.081-2.465 5.735-2.809 10.97-.767 11.691" transform="matrix(1.3333333 0 0 -1.3333333 154.05653 86.334133)"/><path clip-path="url(#ak)" d="m0 0c.378.18 1.117-.642 1.651-1.836s.66-2.307.281-2.488c-.378-.179-1.118.642-1.652 1.836-.533 1.195-.659 2.308-.28 2.488" transform="matrix(1.3333333 0 0 -1.3333333 163.02 99.7188)"/><path clip-path="url(#al)" d="m0 0c3.202-3.899 2.798-6.376 2.465-8.472-1.006 2.416-1.556 3.937-4.76 7.837-3.202 3.901-1.604 6.637-1.384 8.079.482-1.248.476-3.544 3.679-7.444" transform="matrix(1.3333333 0 0 -1.3333333 163.84813 102.5984)"/><path clip-path="url(#am)" d="m0 0c3.203-3.899 2.799-6.376 2.465-8.471-1.007 2.416-1.556 3.937-4.759 7.837-3.203 3.901-1.604 6.637-1.385 8.079.483-1.248.477-3.545 3.679-7.445" transform="matrix(1.3333333 0 0 -1.3333333 164.23227 106.79893)"/><path clip-path="url(#an)" d="m0 0c3.28-3.83 2.926-6.314 2.633-8.416-1.054 2.394-1.634 3.902-4.914 7.733-3.281 3.831-1.737 6.602-1.546 8.048.507-1.237.547-3.534 3.827-7.365" transform="matrix(1.3333333 0 0 -1.3333333 164.3612 110.18173)"/><path clip-path="url(#ao)" d="m0 0c.751.19 2.121-1.379 3.062-3.506.94-2.128 1.094-4.007.343-4.198-.75-.191-2.12 1.379-3.06 3.506-.941 2.128-1.095 4.007-.345 4.198" transform="matrix(1.3333333 0 0 -1.3333333 159.05653 92.562533)"/><path clip-path="url(#ap)" d="m0 0c.675.116 1.814-1.218 2.546-2.979.73-1.761.775-3.283.1-3.399-.674-.116-1.814 1.218-2.544 2.979-.731 1.761-.777 3.282-.102 3.399" transform="matrix(1.3333333 0 0 -1.3333333 157.86773 96.334133)"/><path clip-path="url(#aq)" d="m0 0c.678.102 1.79-1.256 2.483-3.031.695-1.777.709-3.299.032-3.401-.677-.101-1.789 1.256-2.484 3.032-.693 1.776-.708 3.298-.031 3.4" transform="matrix(1.3333333 0 0 -1.3333333 155.93147 98.2612)"/><path clip-path="url(#ar)" d="m0 0c.545.1 1.496-.884 2.125-2.197.627-1.313.694-2.458.149-2.557-.545-.1-1.497.882-2.125 2.196-.628 1.312-.695 2.458-.149 2.558" transform="matrix(1.3333333 0 0 -1.3333333 157.7688 92.273467)"/><path clip-path="url(#as)" d="m0 0c.551.07 1.439-.964 1.985-2.309.545-1.344.54-2.491-.01-2.561-.551-.069-1.44.964-1.986 2.308-.545 1.346-.54 2.492.011 2.562" transform="matrix(1.3333333 0 0 -1.3333333 156.25187 93.513067)"/><path clip-path="url(#at)" d="m0 0c.946-2.314 1.329-4.394.854-4.644-.474-.25-1.628 1.425-2.575 3.739" transform="matrix(1.3333333 0 0 -1.3333333 156.23493 94.7436)"/><path clip-path="url(#au)" d="m0 0c.552.07 1.439-.963 1.985-2.308.545-1.345.54-2.492-.01-2.561-.55-.07-1.44.963-1.985 2.308-.545 1.344-.54 2.492.01 2.561" transform="matrix(1.3333333 0 0 -1.3333333 156.04347 89.889467)"/><path clip-path="url(#av)" d="m0 0c.553.059 1.418-.992 1.933-2.346.514-1.356.485-2.502-.068-2.561-.552-.059-1.418.991-1.932 2.347-.516 1.354-.485 2.501.067 2.56" transform="matrix(1.3333333 0 0 -1.3333333 154.00307 90.8816)"/><path clip-path="url(#aw)" d="m0 0c.92-1.563 1.415-3.023 1.105-3.259s-1.307.842-2.227 2.405" transform="matrix(1.3333333 0 0 -1.3333333 154.03573 90.553467)"/><path clip-path="url(#ax)" d="m0 0c.92-1.564 1.415-3.024 1.104-3.26-.308-.235-1.306.843-2.225 2.406" transform="matrix(1.3333333 0 0 -1.3333333 154.88467 89.170667)"/><path clip-path="url(#ay)" d="m0 0c1.281-2.135 1.971-4.13 1.538-4.453-.432-.321-1.821 1.15-3.102 3.286" transform="matrix(1.3333333 0 0 -1.3333333 158.6984 89.464267)"/><path clip-path="url(#az)" d="m0 0c.923-1.726 1.421-3.337 1.111-3.596-.308-.259-1.308.931-2.231 2.658" transform="matrix(1.3333333 0 0 -1.3333333 156.17893 87.972133)"/></g><g fill="#9461c9"><path clip-path="url(#aA)" d="m0 0c-.616-.621-.013-1.781.552-2.2.633-.574 4.185-4.322 6.692-1.168-2.009.036-5.757 4.751-7.244 3.368" transform="matrix(1.3333333 0 0 -1.3333333 156.06827 84.637467)"/><path clip-path="url(#aB)" d="m0 0c-.616-.621-.013-1.781.552-2.2.633-.574 4.185-4.322 6.691-1.169-2.008.037-5.756 4.751-7.243 3.369" transform="matrix(1.3333333 0 0 -1.3333333 155.4836 82.170667)"/><path clip-path="url(#aC)" d="m0 0c-.616-.621-.013-1.781.552-2.201.632-.573 4.185-4.321 6.692-1.167-2.009.036-5.757 4.751-7.244 3.368" transform="matrix(1.3333333 0 0 -1.3333333 154.73493 79.807333)"/><path clip-path="url(#aD)" d="m0 0c-.616-.621-.013-1.781.551-2.2.633-.574 4.186-4.322 6.693-1.169-2.009.037-5.757 4.752-7.244 3.369" transform="matrix(1.3333333 0 0 -1.3333333 153.108 77.1036)"/><path clip-path="url(#aE)" d="m0 0c1.27.945 3.603 1.221 5.419.296 1.515-.742 4.038-3.768 5.935-4.484-1.335-.238-2.147-.037-3.001.373-1.685-1.22-2.284-1.402-4.002-1.642-2.388-.345-4.37.277-5.066 1.522-.71 1.175-.404 3.06.715 3.935" transform="matrix(1.3333333 0 0 -1.3333333 147.27067 74.517067)"/></g><path clip-path="url(#aF)" d="m0 0c.604-.011 1.089-.304 1.083-.654-.007-.35-.501-.625-1.105-.615-.604.011-1.089.304-1.083.654s.501.626 1.105.615" fill="#d41c30" transform="matrix(1.3333333 0 0 -1.3333333 150.8768 76.183733)"/><path clip-path="url(#aG)" d="m0 0c.789.293 1.573.142 1.752-.34.179-.481-.316-1.109-1.106-1.403-.789-.293-1.573-.141-1.752.34-.178.481.317 1.11 1.106 1.403" fill="#fcd116" transform="matrix(1.3333333 0 0 -1.3333333 145.9836 79.291067)"/></g><path clip-path="url(#aH)" d="m0 0c.217-.004.391-.159.387-.347-.003-.188-.182-.337-.399-.333s-.39.159-.387.347c.003.187.182.337.399.333" transform="matrix(1.3333333 0 0 -1.3333333 150.79613 76.5196)"/><path clip-path="url(#aI)" d="m0 0c.101-.487-.261-1.146-1.045-1.378-.799-.331-1.405-1.081-1.754-2.307-1.214 2.796-.442 3.978.847 4.266 1.109.354 1.778.309 1.952-.581" fill="#fcd116" stroke="#000" stroke-width=".375" transform="matrix(1.3333333 0 0 -1.3333333 147.6516 78.1616)"/><path clip-path="url(#aJ)" d="m0 0c.153.008.285-.113.293-.271.009-.156-.108-.29-.262-.298-.153-.008-.284.112-.293.27-.009.157.108.291.262.299" transform="matrix(1.3333333 0 0 -1.3333333 146.06893 78.064533)"/></svg>