<svg height="1200" viewBox="0 0 1200 1200" width="1200" xmlns="http://www.w3.org/2000/svg" xmlns:xlink="http://www.w3.org/1999/xlink"><clipPath id="a"><path d="m0 666.667h1000v-666.667h-1000z" transform="translate(-499.99221 -536.79171)"/></clipPath><path d="m0 1200h1200v-1199.99998111h-1200z" fill="#f00" stroke-width="1.46969"/><path d="m300 1200h600v-1199.99998111h-600z" fill="#fff" stroke-width="1.46969"/><path clip-path="url(#a)" d="m0 0-34.113-63.626c-3.871-6.915-10.806-6.273-17.741-2.411l-24.698 12.789 18.407-97.727c3.871-17.855-8.548-17.855-14.677-10.134l-43.101 48.251-6.998-24.503c-.807-3.218-4.354-6.598-9.677-5.793l-54.502 11.459 14.315-52.045c3.065-11.58 5.455-16.375-3.093-19.429l-19.427-9.131 93.822-76.208c3.713-2.882 5.589-8.067 4.267-12.763l-8.211-26.946c32.304 3.724 61.249 9.325 93.569 12.776 2.854.304 7.63-4.404 7.61-7.71l-4.28-98.724h15.707l-2.473 98.512c-.019 3.306 4.315 8.226 7.167 7.922 32.32-3.451 61.266-9.052 93.569-12.776l-8.211 26.946c-1.322 4.696.554 9.881 4.268 12.763l93.821 76.208-19.425 9.131c-8.549 3.054-6.159 7.849-3.094 19.429l14.314 52.045-54.501-11.459c-5.323-.805-8.871 2.574-9.677 5.792l-6.998 24.504-43.101-48.251c-6.129-7.721-18.549-7.721-14.678 10.134l18.407 97.727-24.697-12.789c-6.935-3.862-13.87-4.504-17.741 2.411" fill="#f00" transform="matrix(1.1999994 0 0 -1.1999994 599.991 346.87513)"/></svg>