<svg height="96" viewBox="0 0 25.399999 25.4" width="96" xmlns="http://www.w3.org/2000/svg" xmlns:xlink="http://www.w3.org/1999/xlink"><path d="m.000002 0h25.399998v25.4h-25.399998z" fill="#dc1324" stroke-width=".051848"/><path d="m0 0h10.583333v25.4h-10.583333z" fill="#179944" stroke-width=".052917"/><g transform="matrix(.06349967 0 0 .06349967 -4.657038 .00002)"><path d="m318.23975 262.03646c-30.21234-.90487-168.74125-87.38046-169.69106-101.14321l7.64965-12.75734c13.74098 19.96635 155.36273 104.05893 169.27127 101.07795z" fill="#f0d313" fill-rule="evenodd"/><path d="m154.59239 146.40465c-2.7101 7.29369 36.14932 31.31787 82.90269 59.75354 46.75248 28.43391 87.06529 46.00578 90.05318 43.48606.18256-.32544 1.47014-2.54088 1.35197-2.52324-.56001.84402-1.92344 1.11037-4.0506.49741-12.63066-3.64331-45.57514-18.76514-86.37387-43.50634-40.79785-24.74297-76.29369-47.54389-81.81089-57.23206-.38363-.67116-.65702-1.89618-.60146-2.84868l-.13405-.002-1.1747 2.05317-.16139.32191h-.00088zm164.36346 116.03662c-.51238.92957-1.46749.96044-3.28157.76112-11.29986-1.2506-45.58925-17.92465-86.16221-42.21253-47.21196-28.26369-86.20367-54.01119-81.96787-60.74396l1.15088-2.03465.22665.0706c-3.80366 11.40531 76.94806 57.57778 81.70154 60.52171 46.72426 28.9472 86.11459 45.85055 89.60077 41.45847l-1.26819 2.18105v-.002z" fill="#f0d313" stroke="#f0d313" stroke-linecap="round" stroke-linejoin="round" stroke-width=".572931"/><path d="m240.16725 169.23027c30.23703-.23901 67.54959-4.13191 89.02312-12.69031l-4.62648-7.51681c-12.69239 7.02469-50.21043 11.64432-84.65239 12.33488-40.73612-.37483-69.48978-4.16807-83.89748-13.83507l-4.3672 8.00453c26.48364 11.20688 53.62253 13.58725 88.52043 13.70278" fill="#f0d313" fill-rule="evenodd"/><path d="m330.44092 156.71106c-.73904 1.18181-14.74283 6.01134-35.37325 9.57528-13.98791 2.13254-32.23367 3.95552-55.00448 3.97757-21.63315.0203-39.30479-1.51959-52.68418-3.33287-21.65609-3.39549-32.83336-8.12007-36.96509-9.78959.39509-.78581.64908-1.33703 1.03006-2.07081 11.89515 4.73605 23.12446 7.59179 36.27897 9.61585 13.29121 1.80005 30.7503 3.36197 52.27586 3.34169 22.6641-.0229 40.70878-1.98438 54.61556-4.05342 21.15516-3.41224 32.71077-7.80345 34.33436-9.84251l1.49395 2.57881h-.002zm-4.0603-7.62265c-2.29295 1.8415-13.71805 5.89316-33.81933 9.10344-13.41467 1.92264-30.4725 3.64331-52.26528 3.66448-20.70362.0203-37.61946-1.37495-50.48471-3.24909-20.41436-2.66612-31.27856-7.47536-35.19598-8.87765.3898-.67381.78666-1.34232 1.1941-2.01349 3.04787 1.53459 13.53285 5.79086 34.22589 8.72244 12.71973 1.80358 29.66114 3.14766 50.26158 3.1265 21.69048-.0221 38.55341-1.77624 51.88342-3.6883 20.20535-2.77989 31.07748-7.9472 32.72753-9.24102l1.47278 2.45093v.002z" fill="#f0d313" stroke="#f0d313" stroke-linecap="round" stroke-linejoin="round" stroke-width=".573158"/><path d="m140.88051 205.65725c18.59764 10.00302 59.90523 15.04421 98.99395 15.39082 35.59108.0564 81.95817-5.50158 99.29733-14.68968l-.47712-10.01184c-5.4246 8.47726-55.11295 16.60879-99.2056 16.2763-44.09266-.3325-85.03779-7.14288-98.68705-15.9588l.0794 8.99143" fill="#f0d313" fill-rule="evenodd"/><path d="m340.12248 204.21879.00088 2.38743c-2.60603 3.11591-18.94598 7.8255-39.43707 11.14161-15.59474 2.39095-35.92709 4.19453-61.2616 4.19453-24.06898 0-43.26278-1.71626-58.14847-4.00138-23.52925-3.42636-38.57898-9.42623-41.59951-11.21746l.0132-2.78519c9.07481 6.03339 33.66059 10.44664 41.91699 11.79778 14.7878 2.27013 33.86784 3.97317 57.81688 3.97317 25.21634 0 45.43403-1.79123 60.93088-4.16631 14.70138-2.12373 35.644-7.64647 39.76691-11.32418h.00088zm.01-8.49225.00088 2.38743c-2.60603 3.11415-18.94598 7.82373-39.43707 11.13985-15.59474 2.39095-35.92709 4.19453-61.2616 4.19453-24.06898 0-43.26278-1.7145-58.14847-4.00139-23.52925-3.42459-38.57898-9.42446-41.59951-11.21569l.0132-2.78518c9.07481 6.0325 33.66059 10.44663 41.91699 11.79601 14.7878 2.27189 33.86784 3.97581 57.81688 3.97581 25.21634 0 45.43403-1.79211 60.93088-4.16896 14.70138-2.12372 35.644-7.64646 39.76691-11.32417l.00088.002z" fill="#f0d313" stroke="#f0d313" stroke-linecap="round" stroke-linejoin="round" stroke-width=".572822"/><path d="m239.78715 260.3202c-42.77156-.25489-79.42092-11.65932-87.15965-13.54403l5.64332 8.83444c13.67042 5.75028 49.42377 14.32014 81.9273 13.37117 32.50353-.94809 60.90972-3.46605 80.92811-13.21066l5.78618-9.15547c-13.6422 6.42497-60.0675 13.63928-87.12526 13.70455" fill="#f0d313" fill-rule="evenodd"/><path d="m323.30101 253.71796c-.85016 1.2991-1.71708 2.58233-2.59634 3.8294-9.44168 3.32934-24.31944 6.82449-30.59684 7.84402-12.8238 2.64231-32.66492 4.59405-50.27394 4.60287-37.89021-.55474-68.90508-7.9719-83.49621-14.29897l-1.17734-2.02407.19225-.30427 1.99664.77435c25.94832 9.28335 55.0909 12.98664 82.69809 13.65163 17.53758.0617 35.09456-2.00996 49.29237-4.54908 21.77073-4.3621 30.57391-7.64999 33.27519-9.14047l.68701-.38541zm5.01716-8.27529c.022.0256.0441.0503.0653.0776-.63585 1.07332-1.29111 2.16517-1.96224 3.26231-5.03568 1.80005-18.7017 5.79879-38.65923 8.58926-13.14922 1.79123-21.32184 3.52602-47.47918 4.03402-49.01545-1.24707-80.74995-10.83117-88.28937-13.19478l-1.11737-2.14312c28.40619 7.41539 57.42178 12.59152 89.40763 13.12069 23.9314-.50976 34.11212-2.27189 47.15198-4.04989 23.27086-3.61862 34.9958-7.44979 38.51548-8.55575-.0441-.0635-.0961-.13053-.15433-.19932l2.52313-.9428-.002.002z" fill="#f0d313" stroke="#f0d313" stroke-linecap="round" stroke-linejoin="round" stroke-width=".549852"/><path d="m239.84095 111.05277c49.11687 0 88.77442 39.93623 88.77442 89.06322 0 49.12521-39.65843 88.79334-88.77442 88.79334-49.11687 0-88.90847-39.8013-88.90847-88.92828s39.7916-88.92652 88.90847-88.92652v-.002zm0-8.80005c53.81567 0 97.70813 43.90058 97.70813 97.72833 0 53.82686-43.89246 97.72921-97.70813 97.72921s-97.70813-43.90146-97.70813-97.72921 43.89246-97.72833 97.70813-97.72833" fill="#f0d313" fill-rule="evenodd"/><path d="m239.90709 101.07797c54.53354 0 99.01071 44.48266 99.01071 99.02214 0 54.53772-44.47805 99.02038-99.01071 99.02038-54.53354 0-99.0107-44.4809-99.0107-99.02038s44.47804-99.02214 99.0107-99.02214zm0 2.17841c53.09603 0 96.83328 43.58219 96.83328 96.84373 0 53.25978-43.73636 96.84197-96.83328 96.84197-53.09603 0-96.83239-43.58219-96.83239-96.84197s43.73636-96.84373 96.83239-96.84373z" fill="#f0d313" fill-rule="evenodd" stroke="#f0d313" stroke-width=".572822"/><path d="m239.9944 109.30828c49.73068 0 90.69345 40.82083 90.69345 90.70364 0 49.88369-40.96277 90.70275-90.69345 90.70275-49.7298 0-90.69345-40.81906-90.69345-90.70275 0-49.88281 40.96365-90.70364 90.69345-90.70364zm0 2.17841c48.53658 0 88.51514 39.83922 88.51514 88.52523 0 48.68512-39.97944 88.52434-88.51514 88.52434s-88.51514-39.83922-88.51514-88.52434c0-48.68601 39.97856-88.52523 88.51514-88.52523z" fill="#f0d313" fill-rule="evenodd" stroke="#f0d313" stroke-width=".572822"/><path d="m235.89971 299.85338h8.61446v-199.24108h-8.61446z" fill="#f0d313" fill-rule="evenodd"/><path d="m237.02061 100.68286h6.01901" stroke="#f0d313" stroke-linecap="round" stroke-width=".572822"/><path d="m237.0312 299.64436h6.04811" stroke="#f0d313" stroke-linecap="round" stroke-width=".572822"/><path d="m243.12781 99.546033h2.15979l.0185 201.251027h-2.16155l-.0159-201.251027h-.00088zm-8.42132.0018h2.17655l.003 201.247507h-2.17831v-201.247507h-.00088z" fill="#f0d313" stroke="#f0d313" stroke-linecap="round" stroke-linejoin="round" stroke-width=".572957"/><path d="m140.54186 195.88353c12.41636-11.43089 58.22696-18.84275 98.87225-18.65049 40.64528.19138 88.78059 8.54252 99.25234 18.40707l.10495 8.52488c-8.76967-8.24883-46.1669-18.08604-99.27704-18.19628-53.11102-.11025-91.67236 9.99772-98.95426 18.41677l.002-8.50195" fill="#f0d313" fill-rule="evenodd"/><path d="m140.51717 196.27952v7.35719" stroke="#f0d313" stroke-linecap="round" stroke-width=".572428"/><path d="m338.99188 196.58291v7.35542" stroke="#f0d313" stroke-linecap="round" stroke-width=".572428"/><path d="m239.95472 184.7675c23.38285-.0432 46.06988 2.21544 64.06517 5.71941 18.56942 3.71211 31.63662 8.35555 36.10524 13.57137l-.005 2.58233c-5.38844-6.49023-22.97276-11.24832-36.51796-13.96824-17.85771-3.47398-40.39306-5.71677-63.64715-5.67355-24.53816.0459-47.38658 2.36978-64.98413 5.8032-14.1202 2.80193-32.95065 8.36789-35.30182 13.858v-2.68905c1.29111-3.8003 15.31254-9.47915 34.98433-13.41703 17.72896-3.45723 40.61971-5.74146 65.30162-5.78644zm.01-8.49225c23.38285-.0423 46.06988 2.21721 64.06518 5.71941 18.56941 3.71387 31.63661 8.35555 36.10523 13.57137l-.005 2.58234c-5.38845-6.48847-22.97277-11.24657-36.51797-13.96649-17.85771-3.47574-40.39306-5.71853-63.64715-5.67355-24.53816.0441-47.27634 2.36979-64.87477 5.80144-13.62633 2.58321-33.22581 8.36965-35.41206 13.85976v-2.69081c1.29111-3.75885 15.59651-9.64142 34.98521-13.41703 17.72896-3.45723 40.61971-5.7397 65.30162-5.78644z" fill="#f0d313" stroke="#f0d313" stroke-linecap="round" stroke-linejoin="round" stroke-width=".572822"/><path d="m239.47849 132.96205c36.84867-.18433 68.98974 5.15232 83.69464 12.68501l5.36375 9.27895c-12.78058-6.888-47.45624-14.05027-89.00548-12.97871-33.85373.20814-70.02686 3.7271-88.17649 13.40998l6.40352-10.70946c14.89539-7.72408 50.02171-11.64256 81.72006-11.68401" fill="#f0d313" fill-rule="evenodd"/><path d="m324.10619 147.14549 3.6502 5.86052" stroke="#f0d313" stroke-linecap="round" stroke-width=".574094"/><path d="m239.96618 140.62439c21.0167-.0556 41.32523 1.12977 57.47646 4.04371 15.04091 2.7993 29.38511 7.00088 31.43554 9.26043l1.59008 2.80987c-4.98806-3.25702-17.40089-6.88358-33.3387-9.906-16.00571-3.00832-36.30013-4.00492-57.20042-3.95024-23.72151-.0811-42.15246 1.17123-57.96856 3.92907-16.728 3.13002-28.33388 7.60148-31.19743 9.72609l1.55833-2.97039c5.56306-2.8381 14.39006-6.25917 29.22284-8.9297 16.35671-2.98802 34.98256-3.88408 58.42274-4.01284zm-.009-8.48432c20.11275-.0529 39.97239 1.06804 55.4516 3.85058 12.20911 2.37684 24.28329 6.08718 28.70428 9.38918l2.32559 3.69535c-3.95359-4.39473-18.83575-8.55927-31.9735-10.89202-15.36104-2.64936-34.39522-3.69799-54.50797-3.86556-21.10754.0591-40.6153 1.35202-55.75233 4.1081-14.44121 2.74814-23.76031 6.00163-27.70332 8.54252l2.04514-3.08681c5.44136-2.86456 14.2322-5.4954 25.30277-7.64647 15.24904-2.77636 34.87585-4.03578 56.10774-4.09487z" fill="#f0d313" stroke="#f0d313" stroke-linecap="round" stroke-linejoin="round" stroke-width=".573158"/><path d="m289.1492 241.26225c-18.21754-3.40078-36.46946-3.89467-49.21653-3.74474-61.40712.71967-81.24383 12.60917-83.66466 16.20927l-4.58944-7.48154c15.63355-11.33211 49.07278-17.68653 88.58658-17.03742 20.51754.33602 38.22357 1.69863 53.11896 4.58347l-4.2358 7.47272" fill="#f0d313" fill-rule="evenodd"/><path d="m152.69805 247.28064 3.01259 5.18672" stroke="#f0d313" stroke-linecap="round" stroke-width=".572822"/><path d="m239.58167 236.46182c17.08164.25488 33.84932.96044 50.03317 3.97845l-1.17205 2.06905c-15.03121-2.7746-31.05456-3.83646-48.80292-3.75003-22.66322-.17727-45.58483 1.93939-65.54149 7.66675-6.2968 1.75242-16.72093 5.80055-17.78363 9.14576l-1.16588-1.92264c.33601-1.97732 6.63634-6.08101 18.4142-9.39006 22.85812-6.5458 44.23905-7.64911 66.0186-7.79904v.002zm.77519-8.59632c17.69809.33073 35.97471 1.14918 53.73983 4.66814l-1.22056 2.15371c-16.04187-3.18471-31.36851-4.24657-52.4152-4.57024-22.73466.0414-46.85126 1.66246-68.77809 8.03716-7.07906 2.06199-19.29698 6.52022-19.70442 10.04977l-1.16588-2.06552c.26545-3.20587 10.84215-7.38805 20.35792-10.1556 22.09615-6.42408 46.27537-8.07597 69.1864-8.11742z" fill="#f0d313" stroke="#f0d313" stroke-linecap="round" stroke-linejoin="round" stroke-width=".549852"/><path d="m156.89857 144.51553c30.4187-.39511 170.90809 85.84852 171.32171 101.72971l-8.70353 13.34118c-3.9236-18.43618-146.48018-102.36207-169.99709-100.78074z" fill="#f0d313" fill-rule="evenodd"/><path d="m327.5809 247.37765-7.37891 11.44941" stroke="#f0d313" stroke-linecap="round" stroke-width=".572977"/><path d="m156.6728 145.26959-6.86387 12.71941" stroke="#f0d313" stroke-linecap="round" stroke-width=".572977"/><path d="m148.64922 158.29415c5.64597-3.8294 47.13876 14.65528 90.55499 40.83406 43.30071 26.25374 84.67709 55.92148 80.94222 61.47333l-1.2285 1.93234-.56354.4445c.12083-.0864.74345-.84755-.0609-2.90601-1.84494-6.07043-31.19478-29.49136-79.89363-58.8954-47.47476-28.30868-87.04147-45.37078-90.99682-40.49363l1.24702-2.38919h-.00089zm180.44238 88.92652c3.56996-7.05203-34.91642-36.04421-82.63195-64.27174-48.81261-27.66574-83.99361-43.95085-90.42005-39.09486l-1.42781 2.59909c-.0124.14287.052-.17727.35364-.4101 1.16853-1.01953 3.1052-.95074 3.97916-.96662 11.06528.16581 42.66662 14.70908 87.0062 40.1285 19.42751 11.31536 82.07106 51.4906 81.83206 62.78919.0168.97102.0803 1.17123-.28485 1.65189l1.5936-2.42359v-.002z" fill="#f0d313" stroke="#f0d313" stroke-linecap="round" stroke-linejoin="round" stroke-width=".573005"/><path d="m180.59627 211.00712c0 16.27101 6.6628 30.98714 17.45733 41.74246 10.81481 10.77825 25.51177 17.57893 41.80852 17.57893 16.3814 0 31.24681-6.65251 42.01576-17.38931 10.76895-10.73504 17.44322-25.55171 17.44587-41.88004h-.002v-79.18896l-118.73982-.14111.0123 79.27803h.002z" fill="#fff" stroke="#fff" stroke-width=".670372"/><path d="m182.81867 211.11913v.045c0 15.55663 6.44144 29.72419 16.77474 40.00944 10.35357 10.30464 24.61399 16.71197 40.21403 16.71197 15.68117 0 29.9116-6.36059 40.22197-16.62554 10.30771-10.26496 16.69712-24.43253 16.69889-40.04384h-.002v-76.82622l-113.83819-.0185-.0697 76.74773m91.0224-53.74661.004 48.89062-.0414 5.17173h.00088c0 1.36084-.082 2.91218-.24076 4.23333-.92512 7.72937-4.48008 14.46655-9.74506 19.70795-6.16364 6.13569-14.67139 9.94128-24.04693 9.94128-9.32704 0-17.639-3.93788-23.8291-10.10003-6.34972-6.32002-10.02992-14.98601-10.02992-23.94657l-.0132-54.02266 67.94028.12259.002.002z" fill="#dc1324" stroke="#dc1324" stroke-width=".507344"/><use transform="translate(.00573 26.057065)" xlink:href="#a"/><use transform="translate(-.06747 51.79972)" xlink:href="#a"/><use transform="translate(-20.793141 26.057065)" xlink:href="#a"/><use transform="translate(20.750801 26.057065)" xlink:href="#a"/><g id="a"><path d="m232.63049 176.38549v.005c0 2.21192.84927 4.22717 2.21182 5.68943 1.36519 1.46667 3.24541 2.37772 5.30202 2.37772 2.06718 0 3.94388-.90487 5.3029-2.36537 1.35813-1.45874 2.20212-3.47222 2.20212-5.69296v-10.76766l-14.99152-.0123-.0273 10.7659" fill="#002c77"/></g><g id="b"><path d="m190.19141 154.43388c.13493-5.52098 4.05235-6.82802 4.08057-6.84742.0282-.0185 4.23139 1.40758 4.21728 6.89857l-8.29785-.0512" fill="#f0d313"/><path d="m186.8093 147.68612-.68172 6.34471 4.14055.009c.0397-5.24934 3.97387-6.12246 4.06912-6.10306.0891-.005 3.98886 1.16064 4.09292 6.10306h4.15113l-.74962-6.39322-15.02238.0379v.002z" fill="#f0d313" stroke="#dc1324" stroke-width=".499365"/><path d="m185.85066 154.05994h16.94583c.35717 0 .64908.35277.64908.78404 0 .43039-.29191.78141-.64908.78141h-16.94583c-.35717 0-.64908-.35102-.64908-.78141 0-.43127.29191-.78404.64908-.78404z" fill="#f0d313" stroke="#dc1324" stroke-width=".49943"/><path d="m192.01431 154.02907c.0185-3.31259 2.26208-4.2501 2.27355-4.24833.00088 0 2.34234.96661 2.36086 4.24833z" fill="none" stroke="#dc1324" stroke-width=".497032"/><path d="m186.20784 145.05439h16.2447c.34218 0 .62263.31839.62263.70468 0 .38717-.28045.70467-.62263.70467h-16.2447c-.34218 0-.62263-.31573-.62263-.70467 0-.38629.28045-.70468.62263-.70468z" fill="#f0d313" stroke="#dc1324" stroke-width=".499011"/><path d="m186.5509 146.46551h15.5383c.32719 0 .59529.31662.59529.70379 0 .38805-.2681.70467-.59529.70467h-15.5383c-.32719 0-.59529-.31662-.59529-.70467 0-.38717.2681-.70379.59529-.70379z" fill="#f0d313" stroke="#dc1324" stroke-width=".499011"/><path d="m191.57159 135.88217 1.22673.002v.87136h.89513v-.89076l1.25672.004v.88723h.89778v-.89076h1.2576l-.002 2.01171c0 .31574-.25398.52035-.54854.52035h-4.41129c-.29633 0-.56972-.23724-.5706-.52652l-.003-1.9879h.00088z" fill="#f0d313" stroke="#dc1324" stroke-width=".500253"/><path d="m196.19278 138.57386.27691 6.45143-4.30282-.0159.28486-6.45231 3.74105.0168" fill="#f0d313" stroke="#dc1324" stroke-width=".498978"/><use transform="translate(10.60889)" xlink:href="#d"/><use transform="translate(10.60889 -.010585)" xlink:href="#c"/><path id="c" d="m186.3022 139.04482 1.19939.003v.87224h.8775v-.89253l1.22938.004v.889h.87926v-.89253l1.23025.002-.002 2.01171c0 .31398-.2487.51859-.5362.51859h-4.31693c-.28926 0-.55824-.23548-.55913-.52564l-.003-1.98879h.00088z" fill="#f0d313" stroke="#dc1324" stroke-width=".500173"/><path id="d" d="m190.94014 141.55925.13141 3.47751-4.12556.002.11641-3.47927h3.87863-.00089z" fill="#f0d313" stroke="#dc1324" stroke-width=".501277"/><path d="m193.89806 140.61027c-.0265-.62706.87661-.63411.86603 0v1.53635h-.86603z" fill="#dc1324" fill-rule="evenodd"/><use transform="translate(10.64108)" xlink:href="#e"/><path id="e" d="m188.56605 142.84424c-.003-.6059.83693-.61824.82635 0v1.1871h-.82635z" fill="#dc1324" fill-rule="evenodd"/></g><use transform="translate(45.714042)" xlink:href="#b"/><use transform="translate(90.918781)" xlink:href="#b"/><use transform="translate(0 46.31963)" xlink:href="#b"/><use transform="translate(90.84999 46.32063)" xlink:href="#b"/><use transform="translate(90.84999 46.32063)" xlink:href="#b"/><use transform="matrix(.70710678 -.70710678 .70710678 .70710678 -35.466588 274.259502)" xlink:href="#b"/><use transform="matrix(.70710678 .70710678 -.70710678 .70710678 240.443171 -.495304)" xlink:href="#b"/></g></svg>