<?xml version="1.0" encoding="UTF-8" standalone="no"?>
<svg
   height="1200"
   viewBox="0 0 1200 1200"
   width="1200"
   version="1.1"
   id="svg9"
   sodipodi:docname="rect copy.svg"
   inkscape:version="1.4 (e7c3feb1, 2024-10-09)"
   xmlns:inkscape="http://www.inkscape.org/namespaces/inkscape"
   xmlns:sodipodi="http://sodipodi.sourceforge.net/DTD/sodipodi-0.dtd"
   xmlns="http://www.w3.org/2000/svg"
   xmlns:svg="http://www.w3.org/2000/svg">
  <defs
     id="defs9" />
  <sodipodi:namedview
     id="namedview9"
     pagecolor="#ffffff"
     bordercolor="#000000"
     borderopacity="0.25"
     inkscape:showpageshadow="2"
     inkscape:pageopacity="0.0"
     inkscape:pagecheckerboard="0"
     inkscape:deskcolor="#d1d1d1"
     inkscape:current-layer="svg9" />
  <clipPath
     id="a">
    <path
       d="M 0,600 H 900 V 0 H 0 Z"
       transform="translate(-225.00001,-513.75001)"
       id="path1" />
  </clipPath>
  <clipPath
     id="b">
    <path
       d="M 0,600 H 900 V 0 H 0 Z"
       transform="translate(-225.00001,-506.25001)"
       id="path2" />
  </clipPath>
  <path
     d="M 0,1200 H 1200 V 2e-5 H 0 Z"
     fill="#fe0000"
     id="path3"
     style="stroke-width:1.63299" />
  <path
     d="M 0,599.99869 H 599.99999 V -0.00131333 H 0 Z"
     fill="#000095"
     id="path4"
     style="stroke-width:1.63299" />
  <g
     id="g9"
     transform="matrix(1.25,0,0,1.25,-75.000005,49.998687)">
    <g
       fill="#ffffff"
       id="g7">
      <path
         d="M 0,0 112.5,30 0,60 -112.5,30 M 30,30 0,-82.5 -30,30 0,142.5"
         transform="matrix(1.3333333,0,0,-1.3333333,300,240)"
         id="path5" />
      <path
         d="M 0,0 112.428,-30.269 30,51.962 -82.428,82.231 M 40.981,10.981 -41.25,-71.447 -10.981,40.981 71.25,123.409"
         transform="matrix(1.3333333,0,0,-1.3333333,280,234.64133)"
         id="path6" />
      <path
         d="M 0,0 82.231,-82.428 51.962,30 -30.269,112.428 M 40.981,-10.981 -71.447,-41.25 10.981,40.981 123.409,71.25"
         transform="matrix(1.3333333,0,0,-1.3333333,265.35867,220)"
         id="path7" />
    </g>
    <path
       clip-path="url(#a)"
       d="m 0,0 c 35.208,0 63.75,-28.542 63.75,-63.75 0,-35.208 -28.542,-63.75 -63.75,-63.75 -35.208,0 -63.75,28.542 -63.75,63.75 C -63.75,-28.542 -35.208,0 0,0"
       fill="#000095"
       transform="matrix(1.3333333,0,0,-1.3333333,300,115)"
       id="path8" />
    <path
       clip-path="url(#b)"
       d="m 0,0 c 31.066,0 56.25,-25.184 56.25,-56.25 0,-31.066 -25.184,-56.25 -56.25,-56.25 -31.066,0 -56.25,25.184 -56.25,56.25 C -56.25,-25.184 -31.066,0 0,0"
       fill="#ffffff"
       transform="matrix(1.3333333,0,0,-1.3333333,300,125)"
       id="path9" />
  </g>
</svg>
