<svg height="600" width="900" xmlns="http://www.w3.org/2000/svg" xmlns:xlink="http://www.w3.org/1999/xlink"><g stroke-width=".94868"><path d="m0 0h900v200h-900z"/><path d="m0 200h900v200h-900z" fill="#d00"/><path d="m0 400h900v200h-900z" fill="#ffce00"/></g><g transform="matrix(.2046 0 0 .20455 283.49 254.74)"><path d="m224.25 214.16h1177.3l-215.53 670.59h-746.21z" fill="#ffc709"/><path d="m1361.7 188.7c0 302.82-245.42 548.3-548.16 548.3s-548.16-245.48-548.16-548.3 245.42-548.3 548.16-548.3 548.16 245.48 548.16 548.3z" fill="#d00"/><g transform="translate(-896.58 -1479.2)"><use height="1052.3621" transform="matrix(-1 0 0 1 3344.2 -55.4)" width="744.09399" xlink:href="#a"/><use height="1052.3621" transform="matrix(-1 0 0 1 3362.8 -41.478)" width="744.09399" xlink:href="#a"/><use height="1052.3621" transform="matrix(-1 0 0 1 3381.3 -27.626)" width="744.09399" xlink:href="#a"/><use height="1052.3621" transform="matrix(-1 0 0 1 3399.8 -13.725)" width="744.09399" xlink:href="#a"/><use height="1052.3621" transform="matrix(-1 0 0 1 3418.4 .166)" width="744.09399" xlink:href="#a"/><use height="1052.3621" transform="translate(74.619 -55.507)" width="744.09399" xlink:href="#a"/><use height="1052.3621" transform="translate(55.84 -41.547)" width="744.09399" xlink:href="#a"/><use height="1052.3621" transform="translate(37.06 -27.587)" width="744.09399" xlink:href="#a"/><use height="1052.3621" transform="translate(18.475 -13.765)" width="744.09399" xlink:href="#a"/><path id="a" d="m1605.7 2445.3 175.52 82.975 18.546-13.92-164.76-77.69z" fill="#ffc709" fill-rule="evenodd" stroke="#ba6d00" stroke-width="6.25"/><path d="m1718 1214.4-249.53 13.406v147l249.53 13.407h27.032l208.06-30.563v-112.69l-208.06-30.562h-27.032z" stroke="#000" stroke-linejoin="round" stroke-miterlimit="5" stroke-width="12.5"/><g fill="#ffc709"><g stroke="#000" stroke-width="13.75"><rect height="734.85" rx="21.866" stroke-linejoin="round" width="129.76" x="1644.5" y="1465"/><path d="m2002.9 1700.1c-73.748 76.148-176.98 123.56-291.28 123.56-81.712 0-157.75-24.284-221.44-65.906l-51.906 76.719c78.503 51.663 172.4 81.812 273.34 81.812 140.09 0 266.67-58.007 357.22-151.19z"/><path d="m1662.7 1371.5-357.4 660.16 404.59-522.12 404.62 522.12-357.37-660.16-47.219 66.313z" fill-rule="evenodd"/></g><path d="m1717.6 1221.4-171.4 8.215-71.18 28.571v86.284l70.25 28.572 172.33 9.145h26.278l202.27-29.668v-102.85l-202.27-28.272z"/><g stroke="#000" stroke-linejoin="round"><rect height="121.74" rx="59.397" stroke-miterlimit="5" stroke-width="17.717" width="118.79" x="1649.9" y="1351.9"/><path d="m1734.8 1412.9c0 14.646-11.873 26.518-26.518 26.518-14.646 0-26.518-11.872-26.518-26.518 0-14.645 11.872-26.518 26.518-26.518s26.518 11.873 26.518 26.518z" stroke-width="6.25" transform="matrix(.94883 0 0 .94873 88.46 71.264)"/></g></g></g><g id="b"><path d="m1247.4 2299.7-224.6-251.16-88.148-315.16 31.395-291.01 143.69-278.93 222.18-171.47 132.83-49.508 37.432 54.338 65.205 19.32-37.432 31.395-4.83 80.903-227.01 148.52-137.66 229.43-13.282 258.41 68.827 224.6 263.24 251.16z" fill="#ffc709" fill-rule="evenodd" transform="translate(-896.58 -1479.2)"/><g transform="translate(-896.58 -1479.2)"><use height="1052.3621" transform="matrix(.99945599 -.03298074 .03298074 .99945599 -82.218619 115.899771)" width="744.09399" xlink:href="#c"/><use height="1052.3621" transform="matrix(.99934996 -.03605069 .03605069 .99934996 -151.937423 83.440076)" width="744.09399" xlink:href="#d"/><use height="1052.3621" transform="translate(-120.22 6.374)" width="744.09399" xlink:href="#d"/><use height="1052.3621" transform="matrix(.99979998 -.02000014 .02000014 .99979998 -84.660016 90.104241)" width="744.09399" xlink:href="#c"/><use height="1052.3621" transform="matrix(.8859 .00018 -.0002 .98766 147.29 -.549)" width="744.09399" xlink:href="#c"/><use height="1052.3621" transform="translate(56.086 -19.554)" width="744.09399" xlink:href="#c"/><use height="1052.3621" transform="translate(-25.226 -14.844)" width="744.09399" xlink:href="#d"/><use height="1052.3621" transform="matrix(.99814544 -.06087433 .06087433 .99814544 -49.458293 100.415786)" width="744.09399" xlink:href="#d"/><use height="1052.3621" transform="matrix(.99954102 -.03029428 .03029428 .99954102 80.769141 100.879336)" width="744.09399" xlink:href="#c"/><use height="1052.3621" transform="translate(23.908 16.696)" width="744.09399" xlink:href="#c"/><path id="c" d="m991.04 1855.7s8.816 28.993 30.208 63.997c23.738 36.412 41.25 34.847 41.25 34.847s26.613 4.846 30.367-15.943c1.408-20.788-12.67-28.277-12.67-28.746 0 .47-15.355-11.274-35.193-20.158-17.023-11.23-15.931-11.004-25.785-24.612-6.1-15.485-4.22-4.702-19.22-65.23s-21.253-94.227-21.723-94.227l-21.489 4.22 19.463 88.135 6.815 30.032z" fill="#ffc709" fill-rule="evenodd" stroke="#ba6d00" stroke-linejoin="round" stroke-width="6.25"/><path id="d" d="m1049.2 1688.7 40.824 156.99s4.887 17.056 7.605 34.465c-.567 20.693-4.535 28.816-4.535 28.816-.469 0-2.601 10.942-4.009 22.192-.938 15.473 5.575 26.246 5.575 25.777 0 .47 4.996 8.28 20.158 9.688 17.507-.469 20.153-12.969 20.153-12.969s2.704-1.25 1.977-18.75-9.477-45-9.477-45l-58.75-212z" fill="#ffc709" fill-rule="evenodd" stroke="#ba6d00" stroke-linejoin="round" stroke-width="6.25"/><use height="1052.3621" transform="matrix(.99724501 -.07417811 .07417811 .99724501 28.729848 156.310919)" width="744.09399" xlink:href="#c"/><path d="m1130.6 1752.8 56.093 149.92s6.544 16.225 10.965 33.105c1.48 20.6-1.664 29.215-1.664 29.215-.467.066-1.507 11.217-1.796 22.572.594 15.476 8.134 25.241 8.088 24.776.046.465 5.785 7.508 21.001 6.768 17.363-2.932 18.76-15.7 18.76-15.7s2.565-16.637-2.231-32.95c-3.858-20.536-40.613-87.868-55.16-133.38l-32.424-99.188-21.632 14.86z" fill="#ffc709" fill-rule="evenodd" stroke="#ba6d00" stroke-linejoin="round" stroke-width="6.25"/><use height="1052.3621" transform="translate(35.036 6.846)" width="744.09399" xlink:href="#e"/><use height="1052.3621" transform="translate(19.367 -.654)" width="744.09399" xlink:href="#e"/><use height="1052.3621" transform="matrix(.99154028 .12979939 -.12979939 .99154028 310.769402 -167.802522)" width="744.09399" xlink:href="#e"/><use height="1052.3621" transform="matrix(.98926723 -.14611756 .14611756 .98926723 -295.493232 158.909099)" width="744.09399" xlink:href="#f"/><path id="e" d="m1072.7 1170.1s-21.079 23.845-50.19 72.22c-28.174 47.437-29.37 49.377-42.5 85-9.377 34.685-9.465 46.408-2.966 65.781 8.377 15.619 16.578 18.907 24.216 19.22 7.642.311 11.565-1.783 17.184-10.415 11.25-25.524-2.93-38.336-7.184-59.586s-2.492-4.917-2.5-20.654c2.338-20.9 8.903-26.373 11.719-32.004 4.223-7.977 7.196-13.982 30.78-49.175 24.523-37.54 36.25-58.167 36.25-58.167s2.586-8.389-3.078-12.5c-5.433-3.943-11.731.28-11.731.28z" fill="#ffc709" fill-rule="evenodd" stroke="#ba6d00" stroke-width="6.25"/><use height="1052.3621" transform="translate(-22.622 -33.453)" width="744.09399" xlink:href="#f"/><use height="1052.3621" transform="matrix(.99313395 .11698275 -.11698275 .99313395 309.19255 -143.574928)" width="744.09399" xlink:href="#e"/><use height="1052.3621" transform="translate(-5.051 -25.44)" width="744.09399" xlink:href="#f"/><use height="1052.3621" transform="matrix(.99265424 .12098581 -.12098581 .99265424 276.33073 -169.608024)" width="744.09399" xlink:href="#e"/><path id="f" d="m1286.7 1173.4s-46.059 55.185-62.915 76.435c-20.14 23.127-40.427 57.023-57.5 74.062-19.888 15.63-37.496 16.092-51.25 25.938-15.63 10.316-19.061 15.935-21.25 26.25-1.719 14.07 10.528 26.25 25 23.75 14.004.316 32.5-19.499 32.5-19.499s25.15-34.354 42.5-58c38.466-56.495 110.75-137.5 110.75-137.5z" fill="#ffc709" fill-rule="evenodd" stroke="#ba6d00" stroke-width="6.25"/><use height="1052.3621" transform="matrix(1.1057 -.04355 .05268 1.0476 -211.82 44.918)" width="744.09399" xlink:href="#f"/><use height="1052.3621" transform="matrix(.99866312 .05169106 -.05169106 .99866312 30.629058 -74.489334)" width="744.09399" xlink:href="#g"/><use height="1052.3621" transform="matrix(1.1249 -.12498 .14275 .99186 -325.25 250.87)" width="744.09399" xlink:href="#f"/><path id="g" d="m1324.2 1275.3s-6.23 8.363-58.655 83.36c-47.265 81.565-54.3 96.83-54.3 96.83s-7.486 15.67-15.618 20.67-22.424 5.238-26.882 2.188c-4.25-2.909-6.561-3.277-8.75-18.439 1.096-9.061 3.527-12.779 7.089-16.34 7.298-6.149 11.134-7.314 20.31-10.76 8.972-5.259 12.28-10.048 18.114-18.916 11.406-20.209 16.454-30.062 35.838-59.656 25.086-39.079 45.157-63.142 68.334-93.953z" fill="#ffc709" fill-rule="evenodd" stroke="#ba6d00" stroke-width="6.25"/><path d="m1627.2 871.97c-72.039 7.589-141.32 24.504-206.53 49.656l5.563 11.156c65.15-24.995 133.59-41.324 202.97-48.687 6.042-.688 4.705-12.78-2-12.125z" fill="#ffc709" stroke="#ba6d00" stroke-linecap="round" stroke-linejoin="round" stroke-width="5.138"/><path d="m1668.8 891.22c-66.162 3.428-119.49 13.526-174.59 29.625-21.417 6.145-42.544 13.26-63.344 21.25l5.656 11.312c74.64-28.388 153.64-45.218 233.38-49.75 7.35-.791 6.315-12.316-1.093-12.437z" fill="#ffc709" stroke="#ba6d00" stroke-linecap="round" stroke-linejoin="round" stroke-width="5"/><path d="m1638.2 916.41c-67.278 6.84-133.73 22.318-197 46.25l4.75 9.5c62.308-23.442 127.75-38.576 193.97-45.375 6.136-.44 4.892-10.941-1.718-10.375z" fill="#ffc709" stroke="#ba6d00" stroke-linecap="round" stroke-linejoin="round" stroke-width="5"/><path d="m1449.7 979.66 5.624 11.219c88.963-32.381 168.24-44.792 236.41-46.813 7.067-.435 7.09-11.94-.938-12.375-77.424 2.686-166.49 19.969-241.09 47.97z" fill="#ffc709" stroke="#ba6d00" stroke-linecap="round" stroke-linejoin="round" stroke-width="5"/><path d="m1654.7 956.06c-59.264 4.9-125.95 18.84-194.69 44.187l5.75 11.469c59.114-21.89 138.31-39.447 191.09-43.344 7.331-1.085 5.606-12.904-2.157-12.313zm-183.31 66.843 5.594 11.188c60.176-22.09 158.98-42.998 216.34-42.032 6.196-.487 5.684-12.043-.53-12.53-71.942-.037-147.16 16.439-221.41 43.374zm176.75-16.687c-56.398 6.454-112.14 19.568-165.53 39.093l5.593 11.157c50.278-18.164 105.78-32.172 161.38-37.719 8.241-1.158 7.091-13.05-1.438-12.531zm-154.38 61.375 5.625 11.187c49.246-17.663 127.05-34.129 180-36.875 7.696-.875 6.671-12.483-1.063-12.687-61.984 2.355-129.53 19.075-184.56 38.375zm190.16-11.375c-45.906.347-126.34 17.26-177.97 35.656l5.624 11.219c49.353-17.464 130.65-33.535 172.94-34.532 8.523-.089 8.325-12.254-.594-12.343zm-39.156 29.031c-43.047 6.133-85.594 16.451-126.66 30.906l5.593 11.157c39.217-14.212 82.915-24.7 123.66-30.032 7.856-1.662 5.985-13.723-2.594-12.031zm37.563 20.563c-47.42 1.697-109.34 15.641-153.78 31.187l5.625 11.219c41.43-14.296 100.58-28.175 148.34-29.907 8.659-.476 7.925-13.029-.188-12.5z" fill="#ffc709" stroke="#ba6d00" stroke-linecap="round" stroke-linejoin="round" stroke-width="5"/><use height="1052.3621" transform="matrix(-.34285 .88667 -.90474 -.33395 3477.8 854.28)" width="744.09399" xlink:href="#h"/><use height="1052.3621" transform="matrix(-.61506 -.66895 -.68365 .60157 3316.9 691.16)" width="744.09399" xlink:href="#h"/><use height="1052.3621" transform="matrix(.08304 .9138 -.90737 .08363 3016.6 99.302)" width="744.09399" xlink:href="#h"/><use height="1052.3621" transform="matrix(-.53344 -.68936 -.68821 .54105 3192.2 841.39)" width="744.09399" xlink:href="#h"/><use height="1052.3621" transform="matrix(.1898 .8771 -.87789 .18963 2808.2 -31.802)" width="744.09399" xlink:href="#h"/><use height="1052.3621" transform="matrix(-.49109 -.68533 -.65436 .54712 3045 852.35)" width="744.09399" xlink:href="#h"/><use height="1052.3621" transform="matrix(.36579 .78043 -.81444 .35051 2481.5 -198.43)" width="744.09399" xlink:href="#h"/><use height="1052.3621" transform="matrix(-.63748 -.5981 -.60016 .65277 3042.7 610.86)" width="744.09399" xlink:href="#h"/><use height="1052.3621" transform="matrix(-.67017 -.4812 -.485 .67525 2829.4 493.66)" width="744.09399" xlink:href="#h"/><use height="1052.3621" transform="matrix(.37133 .75773 -.7967 .35316 2397.7 -146.03)" width="744.09399" xlink:href="#h"/><use height="1052.3621" transform="matrix(.4625 .71801 -.74338 .44672 2175.2 -239.82)" width="744.09399" xlink:href="#h"/><use height="1052.3621" transform="matrix(-.6759 -.53733 -.48467 .73335 2793.3 479.05)" width="744.09399" xlink:href="#h"/><use height="1052.3621" transform="matrix(-.34609 1.0219 -.99494 -.35334 3562.6 617.3)" width="744.09399" xlink:href="#h"/><use height="1052.3621" transform="matrix(.27564 .98697 -1.0023 .27076 2925.6 -443.52)" width="744.09399" xlink:href="#h"/><use height="1052.3621" transform="matrix(.32902 1.0597 -1.0334 .33885 2874.4 -601.98)" width="744.09399" xlink:href="#h"/><use height="1052.3621" transform="matrix(.39445 1.0045 -.97463 .40676 2654.3 -641.52)" width="744.09399" xlink:href="#h"/><use height="1052.3621" transform="matrix(.5287 .87511 -.8929 .51082 2329.7 -667.55)" width="744.09399" xlink:href="#h"/><use height="1052.3621" transform="matrix(.55278 .8687 -.87166 .54975 2224.3 -695.51)" width="744.09399" xlink:href="#h"/><use height="1052.3621" transform="matrix(.54569 .8703 -.87608 .53907 2193.9 -646.09)" width="744.09399" xlink:href="#h"/><use height="1052.3621" transform="matrix(.64306 .79514 -.79481 .64351 1918.4 -719.24)" width="744.09399" xlink:href="#h"/><use height="1052.3621" transform="matrix(-.90214 -.4821 -.47596 .91378 3261.3 -164.29)" width="744.09399" xlink:href="#h"/><use height="1052.3621" transform="matrix(-.1512 1.0759 -.9885 -.16455 3427.6 265.66)" width="744.09399" xlink:href="#h"/><use height="1052.3621" transform="matrix(-.62515 -.86299 -.86142 .62629 3629.3 738.96)" width="744.09399" xlink:href="#h"/><use height="1052.3621" transform="matrix(.11322 1.0537 -1.0677 .11173 3255.8 -187.44)" width="744.09399" xlink:href="#h"/><use height="1052.3621" transform="matrix(-.64277 -.89528 -.85986 .66925 3573.7 714.92)" width="744.09399" xlink:href="#h"/><use height="1052.3621" transform="matrix(-.63115 -.81145 -.80261 .6381 3401.3 725.68)" width="744.09399" xlink:href="#h"/><use height="1052.3621" transform="matrix(.24308 1.15 -1.1305 .24727 3178.2 -491.24)" width="744.09399" xlink:href="#h"/><use height="1052.3621" transform="matrix(.41988 .99784 -1.0229 .40958 2755 -595.91)" width="744.09399" xlink:href="#h"/><use height="1052.3621" transform="matrix(-.70073 -.74975 -.71343 .7364 3252.8 527.55)" width="744.09399" xlink:href="#h"/><use height="1052.3621" transform="matrix(.5179 .96263 -.9768 .51038 2521.4 -702.5)" width="744.09399" xlink:href="#h"/><use height="1052.3621" transform="matrix(.55508 .88011 -.89278 .5472 2286.4 -655.25)" width="744.09399" xlink:href="#h"/><use height="1052.3621" transform="matrix(-.84349 -.63046 -.63617 .83592 3196.7 280.27)" width="744.09399" xlink:href="#h"/><use height="1052.3621" transform="matrix(1.0261 -.52763 .57308 .90658 -861.66 1048.4)" width="744.09399" xlink:href="#h"/><use height="1052.3621" transform="matrix(.99696 -.64269 .64906 .98717 -930.82 1060)" width="744.09399" xlink:href="#h"/><use height="1052.3621" transform="matrix(.81456123 -.58007759 .58007759 .81456123 -592.228871 1352.827919)" width="744.09399" xlink:href="#h"/><use height="1052.3621" transform="matrix(-.63793 .7701 .7701 .63793 447.74 256.14)" width="744.09399" xlink:href="#h"/><use height="1052.3621" transform="matrix(.97004 -.37286 .3686 .98128 -359.44 775.6)" width="744.09399" xlink:href="#h"/><use height="1052.3621" transform="matrix(.8722059 -.4891389 .4891389 .8722059 -387.219831 1051.694928)" width="744.09399" xlink:href="#h"/><use height="1052.3621" transform="matrix(-.58195 .85154 .84328 .58765 306.33 315.27)" width="744.09399" xlink:href="#h"/><use height="1052.3621" transform="matrix(.88368 -.55974 .56506 .87535 -583.41 1190.9)" width="744.09399" xlink:href="#h"/><use height="1052.3621" transform="matrix(-.46424 .8347 .80512 .52054 355.42 408.48)" width="744.09399" xlink:href="#h"/><use height="1052.3621" transform="matrix(.80058 -.52202 .5226 .80015 -338.18 1241.3)" width="744.09399" xlink:href="#h"/><use height="1052.3621" transform="matrix(-.50844 .75055 .761 .49413 518.21 565.62)" width="744.09399" xlink:href="#h"/><use height="1052.3621" transform="matrix(.7556706 -.65495186 .65495186 .7556706 -495.32393 1475.829653)" width="744.09399" xlink:href="#h"/><use height="1052.3621" transform="matrix(-.48563 .9168 .91866 .48464 131.57 481.12)" width="744.09399" xlink:href="#h"/><use height="1052.3621" transform="matrix(-.47861 .87803 .87803 .47861 246.4 569.17)" width="744.09399" xlink:href="#h"/><use height="1052.3621" transform="matrix(-.60015 .7999 .7999 .60015 577.92 381.37)" width="744.09399" xlink:href="#h"/><use height="1052.3621" transform="matrix(.93572 .48854 -.4967 .91625 983.92 -666.37)" width="744.09399" xlink:href="#h"/><use height="1052.3621" transform="matrix(.98045 .4224 -.42792 .95725 802.46 -617.11)" width="744.09399" xlink:href="#h"/><use height="1052.3621" transform="matrix(1.0653 .35814 -.38603 .96596 635.75 -512.67)" width="744.09399" xlink:href="#h"/><use height="1052.3621" transform="matrix(1.0342 .27943 -.27337 1.0685 457 -558.32)" width="744.09399" xlink:href="#h"/><use height="1052.3621" transform="matrix(1.0494 .23015 -.23551 1.0252 370.94 -374.89)" width="744.09399" xlink:href="#h"/><use height="1052.3621" transform="matrix(.8039 .78185 -.83622 .7512 1803.7 -700.17)" width="744.09399" xlink:href="#h"/><use height="1052.3621" transform="matrix(-1.0415 -.17548 -.17684 1.0329 2387.8 -249.43)" width="744.09399" xlink:href="#h"/><use height="1052.3621" transform="matrix(.88004 .61124 -.62697 .85748 1324 -663.13)" width="744.09399" xlink:href="#h"/><use height="1052.3621" transform="matrix(.72028 .60984 -.70802 .6916 1725.5 -343.75)" width="744.09399" xlink:href="#h"/><use height="1052.3621" transform="matrix(-.8395 -.14096 -.129 .89646 2187.2 36.142)" width="744.09399" xlink:href="#h"/><use height="1052.3621" transform="matrix(.7423 .47088 -.50093 .79345 1313.9 -339.04)" width="744.09399" xlink:href="#h"/><use height="1052.3621" transform="matrix(-1.0234 -.12887 -.12838 1.0338 2266.3 -233.74)" width="744.09399" xlink:href="#h"/><use height="1052.3621" transform="matrix(1.0283 .46798 -.47623 1.01 896.68 -729.98)" width="744.09399" xlink:href="#h"/><use height="1052.3621" transform="matrix(-.87003 -.03643 -.03643 .85326 2036.3 66.667)" width="744.09399" xlink:href="#h"/><use height="1052.3621" transform="matrix(.79186 .38861 -.44686 .75714 1159.6 -141.37)" width="744.09399" xlink:href="#h"/><use height="1052.3621" transform="matrix(-1.0589 .05105 .05195 1.0526 1963.6 -373.05)" width="744.09399" xlink:href="#h"/><use height="1052.3621" transform="matrix(1.0118 .3628 -.33766 1.0865 649.49 -700.97)" width="744.09399" xlink:href="#h"/><use height="1052.3621" transform="matrix(-.87306 .01354 .01144 .92685 1945.7 -61.61)" width="744.09399" xlink:href="#h"/><use height="1052.3621" transform="matrix(.82078 .32755 -.36634 .80568 982.14 -111.39)" width="744.09399" xlink:href="#h"/><use height="1052.3621" transform="matrix(-1.0378 .1234 .1227 1.0408 1808.5 -354.41)" width="744.09399" xlink:href="#h"/><use height="1052.3621" transform="matrix(1.0529 .18293 -.17535 1.0978 319.08 -485.4)" width="744.09399" xlink:href="#h"/><use height="1052.3621" transform="matrix(1.0478 .13047 -.12924 1.0578 181.22 -283.99)" width="744.09399" xlink:href="#h"/><use height="1052.3621" transform="matrix(-.89014 .16278 .15955 .87093 1693.1 -46.42)" width="744.09399" xlink:href="#h"/><use height="1052.3621" transform="matrix(.94222 .19602 -.25044 .9056 659.68 -102.94)" width="744.09399" xlink:href="#h"/><use height="1052.3621" transform="matrix(-1.0165 .21025 .20196 1.0421 1647.4 -377.18)" width="744.09399" xlink:href="#h"/><use height="1052.3621" transform="matrix(1.0293 .07198 -.06964 1.0633 148.85 -258.28)" width="744.09399" xlink:href="#h"/><use height="1052.3621" transform="matrix(-.86515 .24476 .25295 .86173 1505.6 -51.742)" width="744.09399" xlink:href="#h"/><use height="1052.3621" transform="matrix(.83975 .13523 -.16684 .91506 608.98 -5.917)" width="744.09399" xlink:href="#h"/><use height="1052.3621" transform="matrix(-.86777 .21145 .27276 .83445 1476.5 77.494)" width="744.09399" xlink:href="#h"/><path id="h" d="m900.43 1739.5s15.461 103.83 68.067 77.083c35.912-41.935-68.067-77.083-68.067-77.083z" fill="#ffc709" fill-rule="evenodd" stroke="#ba6d00" stroke-linejoin="round" stroke-width="6.289"/></g><g fill-rule="evenodd"><path d="m203.8 476.44s-58.75.731-97.934-11.692c-51.443-14.065-71.931-61.602-71.931-61.602s-7.54 10.884-7.071 26.37c.469 14.077 10.527 46.572 35.78 80.972 26.192 42.378 44.02 92.343 65.14 125.16 16.895 29.531 52.554 56.25 52.554 56.25s113.48-13.564 124.45-15.91c14.615-2.23 114.88-25.34 137.38-26.59s73.592 2.031 73.592 2.031-17.985-33.127-26.666-39.53c-17.362-14.382-38.347-20.246-60.063-41.25-11.863-13.028-31.863-36.093-43.113-48.593-14.065-13.439-24.684-26.674-40-35.291-12.5-8.148-142.12-10.323-142.12-10.323z" stroke="#ba6d00" stroke-width="3.125"/><path d="m1356.9 2074.5s-41.712 1.061-61.792 3.633c-22.193 3.514-69.893 9.28-108.19 13.201-34.403 3.8-63.547 6.018-102.37 6.428l-70.52-3.226c2.25 4.184 8.532 15.455 14.77 24.422 7.5 11.49 13.398 19.137 27.125 31.92 11.263 10.666 18.22 16.209 21.445 18.68 8.447-.94 61.798-7.336 83.336-10.315 35.439-3.45 53.422-8.194 94.226-16.838 21.33-4.349 70.77-14.752 83.633-15.458 14.505-1.178 66.088 1.543 71.484 2.014a2260.5 2260.5 0 0 1 -13.094-21.792c-7.996-13.516-14.187-16.995-25.437-24.52-4.453-2.903-14.249-8-14.614-8.149z" fill="#ffc709" transform="translate(-896.58 -1479.2)"/><path d="m972.03 2008.8c3.285 6.1 11.951 23.578 19.686 39.21 9.903 21.415 15.361 33.087 22.594 47.141 15.72 1.173 31.058 1.622 70.2 2.872 38.828-.41 67.95-2.635 102.35-6.422 38.294-3.907 86.017-9.638 108.21-13.14 20.08-2.563 62.422-3.579 62.422-3.579s-18.809-11.367-27.559-18.867c-10.861-10.08-15.85-17.276-24.706-26.602-11.496-.938-27.5-1.015-45-2.265-30.639-1.72-77.735 1.484-103.98 1.484s-70.626-.897-108.05-5.25c-50.796-3.65-63.027-12-76.166-14.581z" fill="#d00" transform="translate(-896.58 -1479.2)"/><path d="m33.155 413.67c7.78 12.043 15.612 24.313 28.135 34.53 21.247 15.17 26.724 18.184 67.78 27.815 36.99 5.857 45.319 4.236 94.635 5.755 48.063 1.48 61.946 2.6 93.037 5.115 15.03 1.216 20.062 2.478 26.536 3.517" fill="none" stroke="#ffc709" stroke-linecap="round" stroke-width="5"/></g></g><use height="1052.3621" transform="matrix(-1 0 0 1 1627.6 0)" width="744.09399" xlink:href="#b"/><path d="m612.8 696.56c-6.853.057-14.156 1.007-21.219 2.25-47.084 8.161-82.561 35.759-199.88 63.5-40.408 11.07-81.719 14.689-129.44 12.313-3.527-.986-6.35-4.945-6.406-9.094l-11.5-6.563c-5.032 7.774-1.963 15.728-.157 20.563 1.488 3.982 3.862 8.488 7.375 11.281 84.813 60.39 86.998 73.376 135.78 119.41 26.897 26.516 35.008 34.9 124.56 20.688 17.666 28.65 21.485 43.6 72.438 28.781l8.562 21.469c7.925 14.797 18.782 15.023 46.344 9.156 71.38-15.355 92.028-32.759 173.53-34.562 81.532 1.8 102.17 19.205 173.56 34.562 27.562 5.867 38.419 5.641 46.343-9.156l8.563-21.469c50.953 14.818 54.772-.13 72.437-28.781 89.555 14.211 97.665 5.828 124.56-20.688 48.784-46.03 50.97-59.016 135.78-119.41 3.514-2.793 5.856-7.298 7.344-11.281 1.807-4.835 4.907-12.79-.125-20.563l-11.5 6.563c-.056 4.15-2.88 8.108-6.406 9.094-47.718 2.376-89.03-1.244-129.44-12.313-117.31-27.741-152.79-55.339-199.88-63.5-18.833-3.314-39.499-4.563-48.28 7.656-10.149 12.37-18.571 35.85-33.095 57.72-27.226-8.649-48.849-16.62-71.125-21.313-29.753-6.268-51.209-5.884-68.75-5.884-17.251 0-38.978-.381-68.719 5.884-22.275 4.692-43.898 12.664-71.125 21.312-14.523-21.869-22.946-45.349-33.093-57.719-5.49-7.637-15.64-10-27.063-9.906z" fill-rule="evenodd" stroke="#ba6d00" stroke-width="3.125"/><path d="m604.12 754.9c7.34 13.074 10.326 23.414 13.165 34.8" fill="none" stroke="#ffc709" stroke-width="5"/><g fill-rule="evenodd"><path d="m319.73 841.63c29.99-3.253 38.725-4.077 63.524-8.199 23.263-4.242 42.465-8.503 63.375-14.158 6.333 9.425 12.224 18.472 18.784 27.822 5.88 9.374 8.5 12.818 17.622 32.145-18.824 1.709-34.401 4.562-54.205 7.1-16.99 2.212-36.467 4.876-56.398 7.314-7.64-7.49-13.47-13.622-21.79-22.242-10.153-10.23-17.894-18.196-30.912-29.782zm210.38-6.406c-30.18 6.365-33.915 6.974-56.58 14.313 11.512 20.044 17.964 38.982 25.98 55.635 23.245-5.267 35.064-7.713 57.568-12.355l-11.406-24.5-15.562-33.094z" fill="#d00"/><path d="m372.34 893.59c18.443-2.192 36.554-4.716 55.328-7.173 21.949-2.945 36.725-5.417 56.88-7.431 4.164 9.688 6.307 14.893 11.244 25.782 4.13 9.089 9.585 17.714 13.695 25.054-13.345 1.857-23.57 3.448-38.244 4.974-15.85 1.336-21.578 1.845-34.402 1.02-12.615-1.137-21.844-3.602-33.066-12.375-7.257-5.85-18.805-17.613-31.435-29.851zm127.18 11.578c20.055-4.68 38.053-8.467 59.221-12.701 5.04 12.15 7.012 17.695 11.31 30.217 4.48 12.603 8.216 24.019 12.325 36.028-10.054 2.704-13.798 3.553-25.038 4.995-9.087.669-17.58-.295-24.142-5.563-5.262-3.794-12.751-15.307-19.795-27.637-5.321-9.485-9.005-15.26-13.881-25.34z" fill="#ffc709"/><path d="m801.21 813.28c-17.643.945-35.264 3.178-41.03 4.562-33.994 8.32-54.277 15.407-77.532 23.22-41.155 13.754-54.127 20.082-77.281 27.155-18.313 5.613-31.322 8.646-48 12.47 8.018 19.033 14.008 36.376 21.218 57.093 20.94-3.597 37.722-7.336 58.594-13.625 23.401-7.71 43.97-14.264 69.188-21.906 21.827-6.608 37.313-10.325 66.343-15.25 11.593-1.092 20.027-1.764 28.813-2.063v.031c4.185-.141 7.766-.197 11.281-.218 3.524.02 7.116.076 11.313.218v-.03c8.778.298 17.23.971 28.812 2.062 29.03 4.925 44.517 8.642 66.344 15.25 25.219 7.642 45.787 14.197 69.187 21.906 20.873 6.29 37.655 10.028 58.594 13.625 7.21-20.717 13.201-38.06 21.22-57.094-16.679-3.823-29.688-6.856-48-12.469-23.155-7.073-36.127-13.401-77.282-27.156-23.255-7.812-43.538-14.899-77.532-23.219-5.766-1.384-23.387-3.617-41.03-4.562-10.801-.445-12.475-.445-23.22 0z" fill="#d00"/><path d="m802.96 884.72v.062c-19.31.325-32.887 1.894-61.718 8.094-47.74 11.108-89.448 27.453-116.91 34.968-16.153 4.087-30.11 6.976-45.718 10.063 5.122 16.14 10.712 30.883 16.562 44.25 6.156 10.06 14.934 11.19 24.5 10.062 15.285-2.346 27.846-5.047 43.313-9.03 30.714-8.269 55.775-16.819 85.125-22.813 23.467-4.267 42.074-5.503 64.687-6.157 22.616.654 41.22 1.89 64.688 6.157 29.35 5.994 54.442 14.544 85.156 22.812 15.467 3.984 28.028 6.685 43.312 9.031 9.567 1.128 18.345-.003 24.5-10.062 5.85-13.367 11.44-28.11 16.563-44.25-15.607-3.087-29.597-5.976-45.75-10.063-27.459-7.515-69.134-23.86-116.88-34.968-28.818-6.197-42.423-7.768-61.719-8.094v-.063c-3.789-.022-6.584.03-9.875.032-3.285-.002-6.06-.054-9.844-.032z" fill="#ffc709"/></g><path d="m1021.2 755.68c-5.785 12.036-10.327 23.155-13.425 34.023" fill="none" stroke="#ffc709" stroke-width="5"/><path d="m1305.9 841.63c-29.99-3.253-38.726-4.077-63.524-8.199-23.264-4.242-42.465-8.503-63.375-14.158-6.334 9.425-12.225 18.472-18.784 27.822-5.881 9.374-8.5 12.818-17.623 32.145 18.824 1.709 34.402 4.562 54.206 7.1 16.99 2.212 36.467 4.876 56.397 7.314 7.64-7.49 13.471-13.622 21.79-22.242 10.153-10.23 17.894-18.196 30.913-29.782zm-210.38-6.406c30.18 6.365 33.915 6.974 56.579 14.313-11.512 20.044-17.963 38.982-25.98 55.635-23.244-5.267-35.063-7.713-57.568-12.355l11.406-24.5 15.563-33.094z" fill="#d00" fill-rule="evenodd"/><path d="m1253.3 893.59c-18.443-2.192-36.554-4.716-55.329-7.173-21.948-2.945-36.725-5.417-56.88-7.431-4.163 9.688-6.307 14.893-11.244 25.782-4.13 9.089-9.584 17.714-13.695 25.054 13.346 1.857 23.57 3.448 38.244 4.974 15.85 1.336 21.579 1.845 34.402 1.02 12.616-1.137 21.845-3.602 33.066-12.375 7.257-5.85 18.805-17.613 31.436-29.851zm-127.18 11.578c-20.055-4.68-38.053-8.467-59.222-12.701-5.04 12.15-7.011 17.695-11.31 30.217-4.479 12.603-8.216 24.019-12.324 36.028 10.053 2.704 13.797 3.553 25.038 4.995 9.086.669 17.579-.295 24.142-5.563 5.262-3.794 12.75-15.307 19.794-27.637 5.322-9.485 9.006-15.26 13.882-25.34z" fill="#ffc709" fill-rule="evenodd"/><g fill="none" stroke="#ffc709"><path d="m517.06 807.39c4.797 13.349 15.247 30.372 22.054 44.726 2.897 5.542 12.275 25.16 19.082 43.104m-127.48-101.94c11.187 17.484 21.655 33.531 33.623 50.68 8.627 12.565 14.02 24.8 19.552 37.43m710.76-86.294c-11.186 17.483-21.394 31.715-33.362 48.864-8.627 12.565-14.02 24.8-19.552 37.43m-33.238-75.277c-4.797 13.348-15.247 31.668-22.054 46.022-2.897 5.542-12.275 25.16-19.082 43.104" stroke-width="3.125"/><path d="m249.8 762.02c-1.84 2.8-.622 7.08.8 9.66 1.208 2.194 5.206 7.426 10.616 8.18 40.887 1.612 67.194 1.086 109.44-7.022 44.635-10.542 84.819-20.502 129.96-37.38 26.56-9.58 58.206-23.147 77.206-28.33 23.89-6.431 47.244-10.466 55.562-.321 5.968 9.343-13.87 20.312-33.897 26.95-23.269 7.06-45.163 10.685-68.57 13.76-24.707 4.523-50.927 9.458-73.023 16.18-13.833 4.477-29.648 15.733-27.948 25.571 2.864 12.867 21.18 9.194 37.516 3.778l108.34-41.364c12.353-4.513 25.605-2.994 28.4 3.643 2.447 6.786.495 16.185-16.166 19.534l-51.867 8.757c-18.407 3.344-20.462 16.72-19.064 21.546 1.544 5.017 9.025 12.037 31.189 6.745 50.877-12.46 86.357-30.142 119.23-40.265 80.102-27.202 95.002-29.251 145.21-29.45 48.435.1 63.786 1.772 145.38 29.45 32.87 10.123 68.35 27.806 119.23 40.265 22.164 5.292 29.385-2.506 30.93-7.523 1.397-4.825-1.177-15.35-18.806-20.768l-51.866-8.757c-16.661-3.35-18.613-12.748-16.167-19.534 2.796-6.637 16.048-8.156 28.401-3.643l108.34 41.364c16.335 5.416 35.43 9.608 38.294-3.259 1.7-9.838-11.003-20.835-28.727-26.09-22.096-6.722-48.315-11.657-73.023-16.18-23.407-3.075-45.3-6.7-68.57-13.76-20.027-6.638-39.865-17.348-34.156-26.95 9.615-10.404 33.488-6.37 55.822.321 19 5.183 50.646 18.75 77.206 28.33 45.138 16.878 85.321 26.838 129.96 37.38 42.248 8.108 68.555 8.634 109.44 7.021 5.41-.753 9.408-5.985 10.616-8.18 1.421-2.58 2.64-6.86.8-9.659" stroke-width="5"/></g></g></svg>