<svg xmlns="http://www.w3.org/2000/svg" viewBox="0 0 900 600">
<path fill="#c13" d="M0 0H900V600H0z"/>
<path fill="#48d" d="M0 600h900V300"/>
<path fill="#194" d="M0 0h900v300"/>
<path fill="#ec2" d="M211.5 445.795c-12.973 3.582-20.41 13.647-20.22 23.142l63.853-.256c.574-10.204-7.82-19.64-20.6-23.357 62.518-1.291 116.829-24.709 126.698-39.734-9.767-4.239-21.06 2.583-29.11 1.013 19.114-8.834 76.377-45.897 67.067-85.632-7.237 22.07-29.16 40.33-38.497 45.233 21.39-32.48 50.6-66.297 25.258-92.483 1.28 15.177-9.644 31.88-14.469 33.135 12.409-34.32 24.248-77.409-2.637-105.814 3.531 10.267 2.105 39.23-2.756 40.53-1.497-23.336-5.48-72.422-30.056-71.724 7.806 6.949 11.221 25.915 11.395 45.072-5.601-13.124-11.967-23.005-25.581-32.696-11.014-21.122-30.61-38.623-50.21-51.16 2.2 15.374 4.022 27.504 25.489 43.45-11.193-.696-22.382-21.914-34.344-22.502-9.515-.459-16.981 8.621-32.53 3.396 1.722 5.133 8.976 7.406 10.507 11.202-3.33 2.3-11.236-.359-17.81-3.782 9.042 12.316 23.052 19.558 34.945 17.114 14.144-2.72 29.31-1.282 43.773 6.948-3.694 1.897-18.073 1.885-27.3.73 8.388 8.492 14.013 14.12 28.597 14.027 13.026-.085 19.855-6.948 23.2-2.698 8.17 9.681 13.668 19.357 20.502 30.755-15.097 1.667-10.545-17.074-27.358-26.66-9.447 19.552 10.865 42.73 24.692 52.365.185 14.696 2.334 26.992 8.567 38.182 4.202 7.889 9.635 15.963 7.586 33.767-8.277-6.028-16.366-26.36-13.39-42.498-10.36 2.825-14.41 21.041-9.527 30.212 3.648 6.98 6.082 20.341 1.876 26.313-4.1 5.565-4.53 4.942-4.476 16.884.147 7.146-3.845 15.597-10.347 21.488 1.357-5.034 2.905-13.697 1.401-19.112-5.14 8.718-18.034 17.74-22.094 27.114-3.987 9.395-4.998 25.668-24.294 29.42-24.824 4.928-33.391 9.23-49.364 15.766-1.773-12.132 3.533-37.432 13.678-35.989 9.905 1.763 39.937-10.347 29.194-35.647-2.122 7.974-9.2 15.755-16.852 16.1 8.267-10.726 23.022-21.833 15.836-39.806-3.994 7.64-10.277 16.808-19.804 21.967 10.214-19.572 1.187-25.427-10.94-9.307-4.581 6.219-7.347 18.68-10.258 34.507-4.763-12.872-4.448-29.817-10.093-43.575-5.897-14.88 7.825-18.808 14.283-17.614 15.812 4.222 42.237 4.22 40.274-21.904-6.829 8.837-18.805 11.566-31.738 8.385 14.525-10.606 25.993-30.557 9.808-40.973-.54 11.046-9.088 23.43-20.5 29.134-2.67-9.32-2.67-19.211-.38-30.054-6.373 6.707-11.027 20.663-14.728 36.529-.279-15.683 2.688-26.983 4.888-35.418 3.335-12.323 11.624-4.305 24.313-3.397 12.22.694 29.045-6.06 25.83-22.63-4.173 6.555-12.738 9.106-21.489 8.413 10.536-6.382 28.892-17.724 18.825-35.169-4.229 6.607-5.599 12.26-17.838 14.286 3.206-7.374 3.738-17.8 13.238-21.93-16.947-3.375-26.65 7.747-31.582 25.165-2-12.076-4.38-16.522-4.854-25.356 9.16-10.174 10.12-30.078-9.713-34.53-1.177 10.268-.827 12.714 1.429 21.074-9.31-5.53-22.431-8.582-31.167-.761 5.918 6.387 15.079 12.01 29.199 5.044-3.335 10.911-12.01 9.044-23.93 4.883 7.285 13.685 16.48 16.117 26.628 14.54 5.313 14.007 5.547 24.65-9.98 45.05.719-12.677-.182-22.121-10.254-32.37-8.63-8.454-15.646.36-2.158 19.154-8.182-6.026-17.443-18.256-20.231-30.484-2.698 15.106-.269 32.91 8.094 42.892-3.956 4.226-8.453-.45-15.107-10.79 2.518 33.091 16.635 39.476 35.609 32.1.54 18.163.54 34.98 1.618 56.921-11.062-15.914-25.087-27.785-32.912-30.752-2.427 8.902 6.746 20.5 11.87 26.975-7.822-1.619-24.818-14.567-24.818-14.567-1.71 14.748 17.357 28.416 29.675 34.53-14.476-.63-20.863-6.114-30.215-15.107.18 40.914 44.33 33.81 52.605 27.515 1.079 20.143 2.617 43.429 3.696 63.572-12.481-2.178-11.5-5.93-22.18-6.92-29.64-1.155-53.153-35.581-60.94-60.905-2.233 4.167-.46 8.528-2.504 13.648-4.813-12.43-10.96-28.484-19.206-35.955 2.1 7.247 2.322 14.61 1.592 28.154-2.83-8.775-5.462-11.466-5.652-21.767.18-7.908 7.63-13.744 7.217-24.867-.305-8.121-7.713-25.723-8.802-39.35-3.587 14.025-5.838 28.81-11.332 37.491 2.73-14.976 1.855-25.312 6.473-35.39 5.335-10.612 9.872-20.085 6.32-30.794-3.407 4.136-2.235 7.894-10.793 17.943-1.858-10.928 11.066-28.42 23.608-35.452 8.846-4.66 19.997-21.332 12.733-32.759-8.319 5.975-12.054 14.047-23.806 27.84 8.382-32.767 30.161-41.34 56.235-41.452 5.77-.027 17.402-2.11 20.666-9.744-7.35 2.837-16.039 3.198-23.771 1.65 5.628-8.262 17.48-7.188 28.522-7.237 8.663-.041 22.187-1.215 27.654-13.553-10.567 4.578-27.048 5.53-37.425 2.288 16.503-8.55 42.352-9.471 55.61-20.693-15.111-11.277-52.924 2.627-76.808 19.008 6.675-6.104 17.226-16.932 23.046-25.673-13.062-6.263-46.097 30.334-57.477 52.08-10.81 6.103-15.133 15.672-19.33 22.35 5.76-19.462 6.37-33.585 11.175-49.611-37.053 12.755-21.651 81.215-29.71 97.593.948-18.083.18-41.312-7.265-53.29-11.413 8.706-12.334 59.95-1.619 102.613-3.87-11.417-11.172-22.075-13.515-35.97-16.89 30.806 9.901 67.149 32.305 95.857-16.866-8.784-33.542-27.68-44.496-43.521 3.023 55.136 60.6 66.592 69.54 80.143-12.133-5.647-35.327-16.823-45.17-5.113 16.023 3.7 28.803 7.975 39.102 14.726 14.943 18.656 43.238 26.816 92.517 28.876"/>
</svg>