<svg height="400" viewBox="0 0 600 400" width="600" xmlns="http://www.w3.org/2000/svg" xmlns:xlink="http://www.w3.org/1999/xlink"><clipPath id="a"><path d="m0 300h450v-300h-450z" transform="translate(-225.00001 -103.0947)"/></clipPath><clipPath id="b"><path d="m0 300h450v-300h-450z" transform="translate(-225.40531 -148.7998)"/></clipPath><clipPath id="c"><path d="m0 300h450v-300h-450z" transform="translate(-234.9697 -167.1396)"/></clipPath><clipPath id="d"><path d="m0 300h450v-300h-450z" transform="translate(-226.58011 -142.4697)"/></clipPath><clipPath id="e"><path d="m0 300h450v-300h-450z" transform="translate(-196.7344 -176.7549)"/></clipPath><clipPath id="f"><path d="m0 300h450v-300h-450z" transform="translate(-201.5449 -172.7349)"/></clipPath><clipPath id="g"><path d="m0 300h450v-300h-450z" transform="translate(-205.91991 -169.1499)"/></clipPath><clipPath id="h"><path d="m0 300h450v-300h-450z" transform="translate(-210.6553 -167.1396)"/></clipPath><clipPath id="i"><path d="m0 300h450v-300h-450z" transform="translate(-215.03031 -167.1396)"/></clipPath><clipPath id="j"><path d="m0 300h450v-300h-450z" transform="translate(-253.2646 -176.7549)"/></clipPath><clipPath id="k"><path d="m0 300h450v-300h-450z" transform="translate(-248.45511 -172.7349)"/></clipPath><clipPath id="l"><path d="m0 300h450v-300h-450z" transform="translate(-244.0801 -169.1499)"/></clipPath><clipPath id="m"><path d="m0 300h450v-300h-450z" transform="translate(-239.34471 -167.1396)"/></clipPath><clipPath id="n"><path d="m0 300h450v-300h-450z" transform="translate(-214.24021 -152.08011)"/></clipPath><clipPath id="o"><path d="m0 300h450v-300h-450z" transform="translate(-235.75981 -152.08011)"/></clipPath><clipPath id="p"><path d="m0 300h450v-300h-450z" transform="translate(-238.9141 -140.52981)"/></clipPath><clipPath id="q"><path d="m0 300h450v-300h-450z" transform="translate(-230.8486 -120.5908)"/></clipPath><clipPath id="r"><path d="m0 300h450v-300h-450z" transform="translate(-211.08501 -140.52981)"/></clipPath><clipPath id="s"><path d="m0 300h450v-300h-450z" transform="translate(-215.37991 -147.54)"/></clipPath><clipPath id="t"><path d="m0 300h450v-300h-450z" transform="translate(-219.04491 -138.5244)"/></clipPath><clipPath id="u"><path d="m0 300h450v-300h-450z" transform="translate(-219.04491 -120.5908)"/></clipPath><clipPath id="v"><path d="m0 300h450v-300h-450z" transform="translate(-207.4951 -119.0146)"/></clipPath><clipPath id="w"><path d="m0 300h450v-300h-450z" transform="translate(-242.60941 -119.0146)"/></clipPath><clipPath id="x"><path d="m0 300h450v-300h-450z" transform="translate(-211.4443 -118.23051)"/></clipPath><clipPath id="y"><path d="m0 300h450v-300h-450z" transform="translate(-238.55961 -118.23051)"/></clipPath><clipPath id="z"><path d="m0 300h450v-300h-450z" transform="translate(-201.5449 -119.8047)"/></clipPath><clipPath id="A"><path d="m0 300h450v-300h-450z" transform="translate(-211.08501 -112.4697)"/></clipPath><clipPath id="B"><path d="m0 300h450v-300h-450z" transform="translate(-222.44041 -117.00981)"/></clipPath><clipPath id="C"><path d="m0 300h450v-300h-450z" transform="translate(-222.44041 -117.00981)"/></clipPath><clipPath id="D"><path d="m0 300h450v-300h-450z" transform="translate(-248.45511 -119.8047)"/></clipPath><clipPath id="E"><path d="m0 300h450v-300h-450z" transform="translate(-238.9141 -112.4697)"/></clipPath><clipPath id="F"><path d="m0 300h450v-300h-450z" transform="translate(-227.55961 -117.00981)"/></clipPath><clipPath id="G"><path d="m0 300h450v-300h-450z" transform="translate(-202.33501 -119.0146)"/></clipPath><clipPath id="H"><path d="m0 300h450v-300h-450z" transform="translate(-206.2744 -117.79491)"/></clipPath><clipPath id="I"><path d="m0 300h450v-300h-450z" transform="translate(-220.62501 -116.2197)"/></clipPath><clipPath id="J"><path d="m0 300h450v-300h-450z" transform="translate(-216.25 -116.2197)"/></clipPath><clipPath id="K"><path d="m0 300h450v-300h-450z" transform="translate(-247.6699 -119.0146)"/></clipPath><clipPath id="L"><path d="m0 300h450v-300h-450z" transform="translate(-243.7246 -117.79491)"/></clipPath><clipPath id="M"><path d="m0 300h450v-300h-450z" transform="translate(-229.375 -116.2197)"/></clipPath><clipPath id="N"><path d="m0 300h450v-300h-450z" transform="translate(-233.75001 -116.2197)"/></clipPath><clipPath id="O"><path d="m0 300h450v-300h-450z" transform="translate(-234.6943 -147.54)"/></clipPath><clipPath id="P"><path d="m0 300h450v-300h-450z" transform="translate(-224.9902 -136.3848)"/></clipPath><clipPath id="Q"><path d="m0 300h450v-300h-450z" transform="translate(-238.60941 -165.98001)"/></clipPath><clipPath id="R"><path d="m211.813 165.971c-.143 0-.285.017-.425.043-.006-.696.03-1.417.073-2.072.161-2.45.592-4.909 1.244-7.275 2.054-7.447 6.258-13.776 12.285-18.576 6.033 4.804 10.241 11.139 12.3 18.592.654 2.365 1.085 4.825 1.248 7.274.042.642.078 1.346.074 2.027-.142-.009-.282-.013-.424-.013-3.103 0-10.31 1.592-13.087 3.978-2.91-2.204-10.236-3.978-13.288-3.978"/></clipPath><clipPath id="S"><path d="m211.813 165.971c-.143 0-.285.017-.425.043-.006-.696.03-1.417.073-2.072.161-2.45.592-4.909 1.244-7.275 2.054-7.447 6.258-13.776 12.285-18.576 6.033 4.804 10.241 11.139 12.3 18.592.654 2.365 1.085 4.825 1.248 7.274.042.642.078 1.346.074 2.027-.142-.009-.282-.013-.424-.013-3.103 0-10.31 1.592-13.087 3.978-2.91-2.204-10.236-3.978-13.288-3.978"/></clipPath><clipPath id="T"><path d="m0 300h450v-300h-450z" transform="translate(-230.79981 -138.5244)"/></clipPath><clipPath id="U"><path d="m0 300h450v-300h-450z" transform="translate(-224.1367 -105.3369)"/></clipPath><clipPath id="V"><path d="m0 300h450v-300h-450z" transform="translate(-231.15531 -173.4526)"/></clipPath><clipPath id="W"><path d="m0 300h450v-300h-450z" transform="translate(-231.15531 -173.4526)"/></clipPath><clipPath id="X"><path d="m0 300h450v-300h-450z" transform="translate(-223.05961 -186.2148)"/></clipPath><clipPath id="Y"><path d="m0 300h450v-300h-450z" transform="translate(-224.82421 -186.43071)"/></clipPath><clipPath id="Z"><path d="m0 300h450v-300h-450z" transform="translate(-226.39161 -186.0972)"/></clipPath><clipPath id="aa"><path d="m0 300h450v-300h-450z" transform="translate(-228.3721 -185.646)"/></clipPath><clipPath id="ab"><path d="m0 300h450v-300h-450z" transform="translate(-221.04001 -190.1938)"/></clipPath><clipPath id="ac"><path d="m0 300h450v-300h-450z" transform="translate(-216.21781 -195.3696)"/></clipPath><clipPath id="ad"><path d="m0 300h450v-300h-450z" transform="translate(-224.41111 -194.0757)"/></clipPath><clipPath id="ae"><path d="m0 300h450v-300h-450z" transform="translate(-238.60941 -165.98001)"/></clipPath><path d="m0 0h450v150h-450z" transform="matrix(1.3333333 0 0 -1.3333333 0 400)"/><path d="m0 150h450v149.999h-450z" fill="#ce1126" transform="matrix(1.3333333 0 0 -1.3333333 0 400)"/><path d="m0 100h450v100h-450z" fill="#fff" transform="matrix(1.3333333 0 0 -1.3333333 0 400)"/><path d="m0 0c9.972 0 19.512.789 25.106 2.367 2.368.429 2.368 1.65 2.368 3.228 2.368.789 1.148 3.585 2.797 3.585-1.649-.431-2.007 2.798-4.016 2.366 0 2.798-2.798 3.156-5.165 2.369-4.735-1.579-13.128-1.937-21.091-1.937-7.962.358-16.283.358-21.089 1.937-2.367.787-5.163.429-5.163-2.369-2.01.432-2.368-2.798-4.018-2.366 1.65 0 .43-2.796 2.797-3.585 0-1.578 0-2.799 2.44-3.228 5.522-1.578 15.064-2.367 25.033-2.367z" style="fill:#fff;stroke:#c09300;stroke-width:1.189;stroke-linecap:round;stroke-linejoin:round;clip-path:url(#a)" transform="matrix(1.3333333 0 0 -1.3333333 300 262.5404)"/><path d="m0 0 34.244-31.79-2.438 57.735c-.359 8.75-7.962 6.743-13.487 3.587-5.594-3.587-11.978-3.587-18.721-1.219-6.744-2.368-13.127-2.368-18.723 1.219-5.523 3.156-13.126 5.164-13.485-3.587l-2.44-57.735z" style="fill:#fff;stroke:#c09300;stroke-width:.635;stroke-linecap:round;stroke-linejoin:round;clip-path:url(#b)" transform="matrix(1.3333333 0 0 -1.3333333 300.5404 201.60027)"/><g fill="#c09300"><path clip-path="url(#c)" d="m0 0 1.148-27.828 3.228-3.156-1.22 30.625c-.788.001-2.797.001-3.156.359z" transform="matrix(1.3333333 0 0 -1.3333333 313.29293 177.1472)"/><path clip-path="url(#d)" d="m0 0 4.807-21.877-1.579-1.578-1.651 1.22-2.725 19.508 1.148-19.508-1.579-2.009-1.578 2.009 1.147 19.508-2.724-19.508-1.652-1.22-1.577 1.578 4.806 21.877z" stroke="#c09300" stroke-linecap="square" stroke-width=".537" transform="matrix(1.3333333 0 0 -1.3333333 302.1068 210.0404)"/><path clip-path="url(#e)" d="m0 0-2.366-56.16-4.019-3.584 2.44 57.735c1.147.789 3.157 2.009 3.945 2.009z" transform="matrix(1.3333333 0 0 -1.3333333 262.31253 164.3268)"/><path clip-path="url(#f)" d="m0 0-2.009-46.978-4.016-4.11 2.439 54.245c.789-.788 3.156-2.724 3.586-3.155z" transform="matrix(1.3333333 0 0 -1.3333333 268.72653 169.6868)"/><path clip-path="url(#g)" d="m0 0-1.577-39.181-3.228-3.154 2.009 44.702c.787-.789 2.365-1.937 2.796-2.367" transform="matrix(1.3333333 0 0 -1.3333333 274.55987 174.4668)"/><path clip-path="url(#h)" d="m0 0-1.579-33.393-3.156-2.56 1.578 37.172c.789-.358 2.367-1.219 3.157-1.219z" transform="matrix(1.3333333 0 0 -1.3333333 280.87373 177.1472)"/><path clip-path="url(#i)" d="m0 0-1.149-27.828-3.228-3.156 1.221 30.625c.787.001 2.796.001 3.156.359z" transform="matrix(1.3333333 0 0 -1.3333333 286.70707 177.1472)"/><path clip-path="url(#j)" d="m0 0 2.367-56.16 4.018-3.584-2.44 57.735c-1.147.789-3.157 2.009-3.945 2.009z" transform="matrix(1.3333333 0 0 -1.3333333 337.68613 164.3268)"/><path clip-path="url(#k)" d="m0 0 2.009-46.978 4.015-4.11-2.438 54.245c-.79-.788-3.157-2.724-3.586-3.155z" transform="matrix(1.3333333 0 0 -1.3333333 331.27347 169.6868)"/><path clip-path="url(#l)" d="m0 0 1.577-39.181 3.228-3.154-2.009 44.702c-.787-.789-2.366-1.937-2.796-2.367" transform="matrix(1.3333333 0 0 -1.3333333 325.44013 174.4668)"/><path clip-path="url(#m)" d="m0 0 1.578-33.393 3.157-2.56-1.579 37.172c-.789-.358-2.367-1.219-3.156-1.219z" transform="matrix(1.3333333 0 0 -1.3333333 319.12627 177.1472)"/></g><g stroke="#c09300" stroke-linecap="round" stroke-linejoin="round"><path clip-path="url(#n)" d="m0 0-9.541-33.853 13.128-2.008 5.595 25.462z" fill="#fff" stroke-width=".594" transform="matrix(1.3333333 0 0 -1.3333333 285.6536 197.22653)"/><path clip-path="url(#o)" d="m0 0 9.539-33.853-13.125-2.008-5.596 25.462z" fill="#fff" stroke-width=".594" transform="matrix(1.3333333 0 0 -1.3333333 314.3464 197.22653)"/><g stroke-width=".635"><g fill="none"><path clip-path="url(#p)" d="m0 0-1.146-2.796-6.204 5.923" transform="matrix(1.3333333 0 0 -1.3333333 318.55213 212.62693)"/><path clip-path="url(#q)" d="m0 0 1.396 6.6 1.217 6.711 2.92-3.955 1.281 4.56 4.088-4.192-2.079-7.626-2.869 4.717-1.578-4.806-2.944 4.581m-4.431 6.639 4.359-6.621" transform="matrix(1.3333333 0 0 -1.3333333 307.79813 239.21227)"/><path clip-path="url(#r)" d="m0 0 1.147-2.796 6.203 5.923" transform="matrix(1.3333333 0 0 -1.3333333 281.44667 212.62693)"/><path clip-path="url(#s)" d="m0 0 1.298-12.174 3.945 5.165" transform="matrix(1.3333333 0 0 -1.3333333 287.1732 203.28)"/><path clip-path="url(#t)" d="m0 0 2.154-7.437" transform="matrix(1.3333333 0 0 -1.3333333 292.05987 215.3008)"/><path clip-path="url(#u)" d="m0 0-1.395 6.6-1.217 6.711-2.921-3.955-1.28 4.56-4.087-4.192 2.078-7.626 2.869 4.717 1.578-4.806 2.945 4.581m4.43 6.639-4.358-6.621" transform="matrix(1.3333333 0 0 -1.3333333 292.05987 239.21227)"/><path clip-path="url(#v)" d="m0 0 2.649 3.722 1.727-5.729 2.367 4.017 1.579-4.807" transform="matrix(1.3333333 0 0 -1.3333333 276.66013 241.31387)"/><path clip-path="url(#w)" d="m0 0-2.649 3.722-1.727-5.729-2.367 4.017-1.579-4.807" transform="matrix(1.3333333 0 0 -1.3333333 323.4792 241.31387)"/></g><path clip-path="url(#x)" d="m0 0c3.228-.432 6.814-.79 9.613-.432 1.576 0 2.725-2.724-.431-3.156-2.796-.357-7.173 0-9.54.432-2.008.358-6.384 1.147-9.183 1.937-2.797 1.219-.787 3.584.789 3.227 2.44-.789 5.596-1.579 8.753-2.008z" fill="#fff" transform="matrix(1.3333333 0 0 -1.3333333 281.92573 242.35933)"/><path clip-path="url(#y)" d="m0 0c-3.229-.432-6.814-.79-9.54-.432-1.65 0-2.798-2.724.358-3.156 2.798-.357 7.173 0 9.539.432 2.009.358 6.384 1.147 9.182 1.937 2.798 1.219.79 3.584-.789 3.227-2.438-.789-5.594-1.579-8.75-2.008" fill="#fff" transform="matrix(1.3333333 0 0 -1.3333333 318.07947 242.35933)"/><path clip-path="url(#z)" d="m0 0c-2.438.431-3.586-2.366-2.796-3.943.358.789 2.007.789 2.366 1.577.43 1.219-.359 1.219.43 2.366" fill="#fff" transform="matrix(1.3333333 0 0 -1.3333333 268.72653 240.2604)"/><path clip-path="url(#A)" d="m0 0c0 1.577 1.577 1.383 1.577 2.961 0 .789-.43 2.008-1.219 2.008s-1.578-.788-1.578-1.577c-.359-1.579 1.22-1.816 1.22-3.392" fill="#fff" transform="matrix(1.3333333 0 0 -1.3333333 281.44667 250.0404)"/></g></g><path clip-path="url(#B)" d="m0 0c2.365 0 2.13-3.156.981-4.735 0 1.147-2.007 1.579-2.007 2.366 0 1.221 1.813 1.221 1.026 2.369" fill="#fff" transform="matrix(1.3333333 0 0 -1.3333333 296.5872 243.98693)"/><g stroke="#c09300"><g stroke-linecap="round" stroke-linejoin="round"><path clip-path="url(#C)" d="m0 0c2.365 0 2.13-3.156.981-4.735 0 1.147-2.007 1.579-2.007 2.366 0 1.221 1.813 1.221 1.026 2.369z" fill="none" stroke-width=".635" transform="matrix(1.3333333 0 0 -1.3333333 296.5872 243.98693)"/><path clip-path="url(#D)" d="m0 0c2.438.431 3.587-2.366 2.798-3.943-.36.789-2.009.789-2.368 1.577-.43 1.219.359 1.219-.43 2.366" fill="#fff" stroke-width=".635" transform="matrix(1.3333333 0 0 -1.3333333 331.27347 240.2604)"/><path clip-path="url(#E)" d="m0 0c0 1.577-1.575 1.383-1.575 2.961 0 .789.429 2.008 1.219 2.008.788 0 1.577-.788 1.577-1.577.359-1.579-1.22-1.816-1.22-3.392z" fill="#fff" stroke-width=".635" transform="matrix(1.3333333 0 0 -1.3333333 318.55213 250.0404)"/><path clip-path="url(#F)" d="m0 0c-2.366 0-2.132-3.156-.983-4.735 0 1.147 2.007 1.579 2.007 2.366 0 1.221-1.812 1.221-1.024 2.369" fill="#fff" stroke-width=".635" transform="matrix(1.3333333 0 0 -1.3333333 303.4128 243.98693)"/><path clip-path="url(#G)" d="m0 0c.79 0 2.009-.358 2.368-.788z" fill="none" stroke-width=".446" transform="matrix(1.3333333 0 0 -1.3333333 269.78 241.31387)"/><path clip-path="url(#H)" d="m0 0c.431 0 2.01-.358 2.798-.788z" fill="none" stroke-width=".446" transform="matrix(1.3333333 0 0 -1.3333333 275.03253 242.94013)"/><path clip-path="url(#I)" d="m0 0c-.789 0-2.367 0-2.797-.357z" fill="none" stroke-width=".446" transform="matrix(1.3333333 0 0 -1.3333333 294.16667 245.0404)"/><path clip-path="url(#J)" d="m0 0c-.43.432-2.009.432-2.797 0z" fill="none" stroke-width=".446" transform="matrix(1.3333333 0 0 -1.3333333 288.33333 245.0404)"/><path clip-path="url(#K)" d="m0 0c-.789 0-1.937-.358-2.368-.788z" fill="#fff" stroke-width=".446" transform="matrix(1.3333333 0 0 -1.3333333 330.22653 241.31387)"/><path clip-path="url(#L)" d="m0 0c-.43 0-2.009-.358-2.798-.788z" fill="#fff" stroke-width=".446" transform="matrix(1.3333333 0 0 -1.3333333 324.96613 242.94013)"/><path clip-path="url(#M)" d="m0 0c.789 0 2.367 0 2.797-.357z" fill="#fff" stroke-width=".446" transform="matrix(1.3333333 0 0 -1.3333333 305.83333 245.0404)"/><path clip-path="url(#N)" d="m0 0c.43.432 2.009.432 2.797 0z" fill="#fff" stroke-width=".446" transform="matrix(1.3333333 0 0 -1.3333333 311.66667 245.0404)"/><path clip-path="url(#O)" d="m0 0-1.298-12.174-3.945 5.165" fill="none" stroke-width=".635" transform="matrix(1.3333333 0 0 -1.3333333 312.92573 203.28)"/></g><path clip-path="url(#P)" d="m0 0c16.32 12.553 14.921 30.941 14.921 30.941-.431-.086-.84-.129-1.271-.129-3.422 0-11.588 1.959-13.494 4.447-2.04-2.252-10.385-4.447-13.787-4.447-.431 0-.86.043-1.27.129 0 0-1.421-18.387 14.9-30.941z" fill="#fff" stroke-width=".575" transform="matrix(1.3333333 0 0 -1.3333333 299.98693 218.1536)"/></g><path clip-path="url(#Q)" d="m0 0c-.14-.009-.281-.013-.423-.013-3.103 0-10.31 1.592-13.088 3.978-2.91-2.204-10.235-3.978-13.288-3.978-.142 0-.284.017-.425.043-.007-.696.029-1.416.073-2.072.161-2.45.59-4.909 1.243-7.276 2.054-7.447 6.258-13.776 12.287-18.578 6.032 4.806 10.241 11.141 12.3 18.594.654 2.365 1.085 4.824 1.248 7.275.042.642.078 1.345.073 2.027" fill="#fff" transform="matrix(1.3333333 0 0 -1.3333333 318.14587 178.69333)"/><path clip-path="url(#R)" d="m207.9 174.296h11.786v-40.644h-11.786z" fill="#c09300" transform="matrix(1.3333333 0 0 -1.3333333 0 400)"/><path clip-path="url(#S)" d="m229.993 174.296h12.412v-40.644h-12.412z" fill="#c09300" transform="matrix(1.3333333 0 0 -1.3333333 0 400)"/><path d="m0 0-2.155-7.437" style="fill:none;stroke:#c09300;stroke-width:.635;stroke-linecap:round;stroke-linejoin:round;clip-path:url(#T)" transform="matrix(1.3333333 0 0 -1.3333333 307.73307 215.3008)"/><path clip-path="url(#U)" d="m0 0c0 .017-.094.074-.208.126-.221.101-.41.255-.525.426-.081.119-.176.421-.179.566 0 .073-.024.105-.086.117-.254.056-.902.127-1.379.152-.3.014-.86.058-1.246.096-.838.083-1.157.072-1.269-.046-.043-.044-.095-.133-.117-.198-.022-.064-.104-.201-.182-.304-.078-.105-.142-.206-.142-.227.001-.021-.017-.038-.036-.038-.021-.001-.068-.029-.106-.065-.094-.089-.288-.222-.387-.266-.046-.021-.127-.063-.178-.091-.135-.077-1.072-.086-1.224-.012-.059.029-.159.053-.222.052-.064-.001-.148.022-.187.049-.06.041-.067.066-.036.152.042.122.168.154.652.161.27.004.348.021.505.102.189.098.51.333.535.392.007.016.044.057.083.089.038.034.08.117.092.186.013.07.055.191.096.269.083.164.073.263-.068.668-.147.418-.199.512-.366.652-.209.177-.204.261.031.499.102.103.247.278.319.387.119.175.145.195.25.187.101-.009.133-.039.224-.208.141-.259.335-.707.335-.776 0-.031.025-.106.054-.168.03-.063.075-.172.1-.244.058-.179.093-.198.402-.223.327-.028.331-.024.36.414.01.167.036.32.057.341.021.02.037.068.037.107-.002.088-.187.603-.235.649-.065.062-.038.246.057.404.051.087.107.158.124.158s.094.042.172.095c.196.13.489.161.614.066.081-.061.093-.105.112-.386.019-.288.031-.326.12-.4.055-.045.141-.082.191-.082.049-.001.121-.026.158-.057.056-.049.189-.06.791-.065.833-.006 1.299-.028 1.357-.064.024-.014.168-.025.323-.024.155.002.492-.011.749-.025.453-.027.474-.03.583-.135l.115-.106.009-.48c.008-.553.042-.624.283-.621.212.001.271.067.288.312.009.118.037.23.062.25.028.022.074.097.105.169.062.151.324.414.445.451.045.012.114.052.156.088.04.036.124.075.186.085.27.052.567.152.638.214.047.044.138.072.25.077.143.007.189-.007.252-.078.089-.1.105-.178.14-.673.015-.204.045-.414.069-.467.022-.052.051-.307.063-.563l.022-.469-.117-.153-.117-.154-1.213-.011c-.667-.005-1.27-.021-1.342-.035-.141-.026-.174-.101-.171-.377.001-.086-.024-.156-.07-.196-.039-.035-.081-.103-.093-.15-.022-.091-.271-.278-.43-.326-.052-.016-.118-.048-.15-.072-.088-.07-.369-.204-.429-.204-.032-.001-.056.012-.056.031m.317 1.151c.083.064.085.08.082.743l-.003.676-.102.088c-.097.085-.132.089-.821.116-.398.016-.787.049-.867.074-.104.033-.198.035-.334.009-.124-.022-.27-.021-.421.002-.562.088-.935.018-1.07-.201-.064-.102-.064-.114-.003-.211.035-.055.107-.109.159-.118s.173-.04.269-.067c.106-.033.333-.052.581-.052.225.001.603-.011.84-.025.237-.016.566-.032.733-.036.216-.004.331-.025.409-.073l.106-.064-.021-.349c-.022-.334-.019-.351.065-.423.101-.086.221-.153.275-.152.021 0 .077.028.123.063m2.896 1.089c.083.031.1.056.083.115-.013.041-.042.153-.066.247-.036.146-.054.169-.133.169-.086 0-.245-.09-.39-.22-.071-.064-.115-.22-.077-.273.085-.114.336-.131.583-.038m3.155-1.947c-.122.125-.147.178-.149.3-.002.123.022.173.141.293.219.22.326.226.704.035.362-.184.484-.2.517-.069.031.125.239.238.437.239.125.001.195-.024.295-.102.126-.097.132-.112.135-.34.002-.231-.001-.239-.144-.368-.14-.121-.161-.129-.333-.112-.219.022-.351.122-.386.295-.025.125-.069.154-.103.069-.009-.027-.063-.06-.119-.075-.102-.025-.274-.134-.397-.25-.046-.043-.128-.063-.26-.064-.177-.002-.202.008-.338.149m3.422.224-.085.057.075.104c.042.057.138.124.215.149.261.085.438.192.651.396.118.11.213.229.212.262 0 .035.046.116.102.181.098.113.102.135.094.498-.007.373-.027.45-.165.665-.067.104-.29.265-.519.376-.151.073-.205.224-.127.351.032.053.136.252.231.441.093.189.19.384.215.434.069.136.236.143.35.016.107-.122.279-.427.28-.498.001-.026.034-.077.073-.112.086-.076.27-.394.271-.466.001-.028.045-.123.1-.209.067-.108.099-.213.102-.33.003-.095.03-.231.06-.306.091-.213.062-.932-.046-1.134-.044-.084-.094-.155-.108-.155-.016 0-.078-.067-.139-.148-.116-.154-.514-.434-.618-.435-.035-.001-.087-.037-.117-.082-.051-.077-.085-.083-.539-.097-.399-.014-.496-.006-.568.042m2.977.323c-.044.041-.032.218.018.256.026.019.088.048.14.063.052.016.119.049.149.074.03.027.14.06.242.076.372.054.694.347.695.63.002.08-.011.161-.026.182-.042.064-.689.025-1.041-.063-.083-.021-.124-.004-.225.091l-.125.118-.018.529-.017.529.162.179c.089.1.202.243.25.322.05.078.099.148.114.153.013.006.089.069.168.139.157.14.416.281.591.323.06.015.127.052.149.08.022.03.088.058.148.063.091.007.124-.016.213-.151.058-.089.109-.21.112-.27.003-.059.031-.172.062-.251s.068-.237.082-.35c.015-.115.046-.229.069-.256.056-.067.51-.098.59-.041.044.031.062.129.075.372.009.188.04.377.072.441.031.062.068.165.082.23.036.177.332.586.509.704.086.057.177.124.203.147.025.024.084.055.13.07.112.034.139.081.138.24-.001.137-.116.295-.352.486-.058.047-.105.112-.105.148-.001.101.109.294.282.497.089.102.161.2.162.216 0 .017.059.068.131.113.101.063.149.073.222.048.101-.036.129-.085.222-.394.122-.408.151-.527.181-.758.017-.13.043-.253.056-.275.014-.022.181-.071.369-.113.189-.04.378-.094.422-.121.044-.025.123-.058.174-.073.128-.035.302-.16.304-.218 0-.025.015-.046.031-.046.041 0 .23-.275.403-.587.196-.352.184-.344.497-.34.251.001.28.01.35.097.042.053.076.14.075.195-.001.112.096.245.331.453.09.08.201.179.245.219.145.131.311.236.375.238.034 0 .219-.065.412-.144.284-.115.369-.169.454-.285.186-.251.583-.354.779-.203.052.04.112.073.135.073.022 0 .04.026.04.055 0 .076-.153.492-.2.545-.021.024-.056.169-.077.323-.022.153-.074.353-.117.442-.051.108-.085.273-.1.502-.014.187-.058.46-.098.607-.041.147-.075.312-.075.368-.004.267-.23.615-.458.71-.053.022-.137.063-.19.09-.134.073-.313.063-.392-.023-.037-.04-.103-.073-.146-.073-.08 0-.32-.195-.32-.258 0-.018-.055-.034-.123-.034-.1-.002-.146.026-.244.148-.069.082-.123.166-.123.187-.001.022-.069.095-.152.163-.123.102-.151.149-.152.254-.002.103.017.138.091.171.051.024.093.058.093.077 0 .02.062.046.139.061.077.012.276.058.44.101.415.108 1.16.114 1.342.011.066-.037.165-.078.218-.089.122-.027.448-.327.514-.475.028-.063.067-.123.086-.135.019-.011.048-.088.062-.173.016-.083.052-.2.08-.259.041-.089.098-.459.156-1.025.01-.102.086-.447.145-.664.022-.079.064-.263.094-.408s.082-.291.115-.326c.031-.034.059-.089.06-.125.001-.14.388-.377.615-.375.196.002.49.135.675.304.104.097.229.186.279.198.102.027.266-.051.325-.152.071-.124.19-.232.346-.319.169-.094.231-.218.167-.337-.021-.039-.068-.073-.103-.073-.037 0-.155-.042-.264-.092-.11-.051-.232-.093-.27-.093-.039 0-.251-.059-.473-.131-.222-.071-.614-.174-.871-.227-.455-.094-1.065-.263-1.14-.315-.021-.015-.105-.038-.188-.054-.253-.044-.276-.057-.299-.188-.031-.161-.374-.521-.628-.656-.176-.094-.212-.099-.651-.098-.255.001-.495.009-.532.019-.037.012-.079.069-.094.126-.012.059-.075.14-.137.182-.12.079-.256.077-.563-.01l-.136-.039-.022-.355c-.013-.195-.046-.394-.073-.442-.028-.046-.067-.117-.085-.158-.021-.039-.123-.145-.228-.235s-.258-.226-.34-.301c-.169-.155-.314-.179-.416-.067-.037.041-.111.071-.173.07-.126-.002-.418.118-.602.247-.112.078-.348.463-.35.569 0 .022-.034.071-.075.11-.06.056-.125.07-.31.067-.129-.002-.311-.02-.403-.042-.093-.019-.318-.055-.502-.076-.182-.021-.386-.062-.452-.09-.066-.027-.191-.061-.279-.077-.231-.039-.3-.123-.298-.358.001-.124-.017-.209-.052-.238-.029-.023-.062-.089-.075-.144-.031-.146-.338-.444-.557-.541-.102-.046-.249-.115-.324-.155-.114-.06-.213-.073-.564-.077-.236-.002-.44.006-.452.02m5.813 1.735c.106.081.113.196.022.277-.11.095-.309.093-.513-.004-.122-.058-.156-.094-.155-.164 0-.061.029-.101.085-.122.127-.048.494-.04.561.013m-4.74.429c.129.065.16.138.127.296-.05.239-.351.31-.496.116-.045-.059-.081-.122-.081-.14s-.025-.053-.055-.078c-.044-.035-.046-.061-.012-.122.024-.041.062-.088.085-.101.071-.045.321-.028.432.029m2.978.557c.014.061.012.201-.004.31-.022.157-.051.22-.141.297-.136.116-.206.105-.366-.058-.104-.104-.12-.145-.123-.334-.005-.296.035-.334.355-.331.255.002.255.002.279.116m1.333.127c.161.074.18.095.18.201 0 .163-.148.355-.367.476-.233.128-.317.126-.42-.011-.081-.108-.081-.117-.023-.277.035-.092.062-.19.062-.22 0-.072.228-.252.317-.252.04-.001.154.037.251.083m2.995.026c.231.1.297.224.206.388-.079.141-.193.198-.379.185-.215-.015-.393-.156-.391-.314.001-.103.026-.138.161-.228.089-.057.174-.106.189-.108.015-.001.111.033.214.077m-31.552-2.837c-.057.019-.103.048-.103.062-.001.034-.356.251-.411.25-.022 0-.051.044-.063.099-.011.055-.057.205-.1.335-.075.229-.074.403.003.449.057.034.036.147-.039.209-.044.038-.162.067-.329.076-.352.024-.392.035-.517.138-.088.074-.113.132-.14.325-.02.138-.06.263-.099.303-.069.072-.186.091-.221.037-.011-.018-.07-.042-.133-.055-.076-.016-.126-.053-.15-.117-.02-.05-.079-.149-.132-.217-.093-.12-.107-.125-.338-.127-.132-.002-.297.018-.365.045-.147.058-.31.083-.718.111-.585.039-.854-.004-.9-.146-.063-.196-.535-.6-.741-.633-.082-.014-.223-.048-.312-.078-.089-.029-.178-.044-.198-.032s-.217.043-.439.07c-.418.052-.571.123-.572.262-.002.085.255.214.354.178.106-.038.281-.036.281.004 0 .018.091.053.202.076s.224.065.248.095c.024.029.094.053.152.053.09 0 .129.034.219.171.061.094.111.194.11.221 0 .027.032.092.074.143.043.055.072.147.072.226-.002.074.023.206.055.293.052.149.051.173-.031.409-.046.138-.107.263-.132.279-.027.014-.068.084-.093.152-.066.184.006.349.27.632.029.03.063.107.078.173.025.121.109.189.237.19.093.001.269-.193.27-.298.001-.044.03-.116.063-.161.036-.05.074-.212.096-.411.036-.343.096-.694.141-.829.039-.114.244-.273.354-.273.052-.001.198-.023.322-.05.124-.028.322-.049.441-.048.217.001.218.001.439.223.122.122.222.241.22.263-.006.145-.489.403-.877.473-.136.022-.232.189-.203.35.026.137.207.374.384.502.068.049.291.136.498.194l.375.104.104.202c.198.387.613.692.945.696.167.001.202-.019.334-.184.037-.046.107-.131.154-.189.148-.183.23-.398.208-.539-.02-.132.036-.342.092-.341.052.001.598-.532.624-.608.014-.039.039-.07.057-.069.047 0 .115-.24.117-.414.002-.258-.055-.296-.455-.303-.191-.004-.424-.028-.516-.057l-.169-.049-.008-.2c-.012-.27.055-.345.35-.388.121-.018.239-.049.261-.069.021-.02.083-.036.137-.036.053.001.131-.021.171-.049.066-.045.074-.097.079-.511l.005-.463.122-.036c.067-.021.142-.056.167-.079.089-.083.206-.049.254.076.024.064.058.149.076.189.017.04.047.283.065.541.02.258.058.533.086.613s.068.338.088.575.057.453.079.479c.024.029.05.254.059.513.013.37.03.477.082.532.054.06.063.142.059.518l-.005.446-.151.125c-.101.083-.15.154-.15.215-.002.13.033.168.22.236.093.033.236.086.319.115.082.032.165.075.185.099.066.075.274.207.328.208.029.001.08-.029.115-.064.081-.084.088-.426.012-.57-.032-.06-.053-.2-.052-.341.002-.132-.024-.31-.055-.397-.032-.091-.073-.419-.096-.77-.022-.337-.059-.648-.084-.692-.024-.044-.043-.189-.043-.325.002-.135-.022-.383-.052-.552-.031-.168-.071-.451-.089-.629-.019-.177-.058-.379-.087-.446-.029-.068-.062-.239-.074-.381-.011-.141-.051-.312-.089-.382s-.067-.155-.067-.189c.001-.092-.193-.425-.248-.427-.024 0-.061-.031-.081-.068-.021-.036-.088-.078-.151-.09-.063-.013-.159-.055-.216-.094-.12-.083-.47-.126-.618-.077m-1.162 3.566c.098.069.107.161.015.184-.116.029-.21.189-.218.371-.014.327-.167.346-.452.056-.082-.084-.207-.198-.277-.251l-.13-.099.094-.094c.157-.158.332-.221.621-.222.184-.001.289.015.347.055m16.887-2.971c-.078.108-.082.133-.046.332.022.119.041.321.044.449.002.129.025.269.049.313s.042.133.042.201c-.002.093.031.152.147.262.082.078.148.16.148.181-.001.048.292.273.354.274.024.001.074.034.111.074.036.04.112.073.168.073s.145.039.199.084c.093.078.099.102.096.396-.002.189-.027.378-.065.478-.033.091-.056.2-.051.244.004.043-.007.248-.026.456-.029.336-.044.388-.131.476-.054.053-.119.097-.145.097-.047 0-.224.206-.198.232.257.276.717.71.769.726.106.034.265-.038.305-.137.019-.048.049-.264.062-.477.014-.213.043-.485.065-.604.021-.119.058-.491.082-.828.024-.336.06-.668.081-.737.02-.068.052-.376.068-.683.016-.306.047-.62.068-.696.072-.262.374-.421.589-.307.036.018.196.055.356.081.373.059.38.071.347.603-.024.369-.036.421-.125.531-.055.068-.142.133-.194.145-.102.023-.167.111-.168.228 0 .083.193.277.315.315.041.013.152.086.248.164.212.173.351.186.483.045.084-.091.094-.138.121-.62.023-.372.048-.552.092-.629.046-.078.063-.206.067-.473.001-.248.023-.406.064-.498.053-.118.053-.147.007-.247-.029-.062-.065-.149-.077-.192-.032-.102-.088-.118-.433-.127-.154-.004-.349-.027-.431-.049-.082-.023-.301-.045-.487-.05-.791-.02-1.873-.111-1.933-.164-.044-.038-.169-.052-.504-.056l-.448-.004-.085.117zm1.139.776.196.058-.013.187-.014.188-.155.008c-.131.008-.172-.006-.253-.091-.146-.153-.161-.261-.052-.34.05-.036.093-.067.093-.067.002 0 .092.026.198.057m-14.525-.332-.141.121.02.302c.01.165.042.365.073.445s.054.261.054.404c-.002.143.023.33.052.416.029.084.076.402.106.705.03.302.069.591.089.641.018.051.034.185.033.297-.002.112.027.311.064.44.044.151.069.361.068.577-.001.187.015.398.037.466.02.07.037.166.037.211-.001.089.129.296.185.296.018 0 .094-.086.169-.192s.225-.274.334-.376c.481-.443.459-.404.303-.551-.058-.054-.121-.097-.142-.097-.02-.001-.083-.047-.137-.103-.083-.085-.1-.136-.1-.298.001-.108-.024-.262-.057-.342-.051-.131-.105-.616-.124-1.134-.004-.109-.023-.223-.043-.252-.019-.031-.042-.29-.05-.579-.009-.288-.032-.547-.051-.576s-.035-.118-.037-.197c-.006-.293-.071-.559-.158-.65-.069-.072-.123-.09-.265-.092-.151-.002-.201.016-.319.118m-10.959.492c-.183.048-.277.186-.279.404-.002.167.01.193.127.284.075.059.195.11.288.123.134.018.183.007.29-.069.276-.194.334-.385.175-.571-.17-.197-.331-.243-.601-.171m42.528.574c-.112.095-.136.138-.138.257-.001.206.117.357.373.473.342.154.481.134.609-.093.171-.301.163-.424-.042-.626-.113-.112-.133-.118-.392-.121-.254-.002-.283.005-.41.11m-44.553.039c-.243.06-.383.304-.311.544.064.218.101.239.42.243.358.003.427-.057.43-.372.002-.177-.011-.218-.1-.3-.103-.097-.303-.149-.439-.115m-1.524.464c-.248.233-.208.403.159.676.157.117.252.104.431-.059.276-.252.288-.413.044-.627-.121-.108-.173-.129-.314-.131-.146-.002-.188.016-.32.141m4.839.019c-.114.037-.393.104-.62.148-.526.102-1.342.286-1.562.352-.093.029-.262.072-.376.098-.209.046-.316.078-.658.193-.105.034-.359.104-.565.155-.207.052-.448.122-.537.16-.089.036-.193.067-.233.066-.039-.001-.128.029-.196.065-.069.037-.234.077-.367.09-.276.024-.483.122-.6.283-.1.137-.103.243-.01.432.039.079.071.173.072.208 0 .035.034.092.075.126s.074.078.073.097c0 .043.174.295.277.402.136.14.415.273.573.275.093.002.175.027.215.066.044.044.146.07.326.084l.262.02.102.182c.056.099.103.229.103.289.001.059.028.156.06.217.031.058.08.205.107.325.105.45.18.702.225.745.065.064.058.092-.054.231-.06.075-.132.122-.184.122-.125-.002-.329-.077-.393-.144-.129-.135-.299-.224-.429-.225-.178-.002-.406.125-.492.274-.066.116-.066.124.011.282.052.103.118.176.182.201.156.06.553.03.645-.049.064-.055.113-.06.32-.037.136.015.253.041.263.057.011.017.094.041.184.056.091.012.174.047.185.075.012.027.079.062.151.075.074.014.152.048.175.076.024.028.092.051.151.052.082.001.121-.025.171-.114.055-.102.057-.144.017-.351-.025-.13-.076-.296-.113-.37-.038-.074-.069-.197-.068-.274.001-.088-.025-.171-.072-.224-.041-.045-.073-.12-.073-.165s-.024-.108-.057-.139c-.031-.031-.074-.158-.096-.282-.021-.124-.059-.259-.084-.299-.026-.04-.056-.148-.069-.241-.012-.092-.048-.188-.077-.211-.029-.025-.054-.096-.053-.158 0-.063-.03-.174-.067-.246-.038-.074-.079-.219-.093-.325-.012-.104-.045-.223-.071-.263-.026-.039-.06-.154-.072-.252-.015-.1-.05-.219-.08-.264-.049-.075-.047-.093.022-.183.11-.147.437-.252.769-.248.257.001.272.006.364.12.056.069.106.19.121.29.014.093.049.216.077.27.029.055.052.192.052.304-.002.19-.012.211-.137.308-.124.096-.131.112-.09.2.042.091.212.169.373.171.034.001.101.031.15.068s.125.079.17.094c.044.013.144.083.222.152.164.148.266.151.348.012.052-.086.051-.113-.005-.27-.035-.095-.062-.245-.06-.333 0-.088-.023-.184-.05-.217-.03-.031-.069-.13-.089-.219-.021-.09-.062-.228-.093-.307s-.056-.21-.056-.29-.034-.21-.073-.287c-.106-.206-.094-.331.041-.392.031-.012.099-.047.151-.075.051-.029.162-.052.244-.052.083 0 .223-.03.312-.068.09-.038.27-.078.401-.09.232-.02.239-.018.342.096.065.071.124.195.153.321.025.112.055.241.066.285.036.137-.022.319-.139.426-.207.191-.121.445.149.447.116.002.433.129.517.207.225.213.366.27.504.201.109-.055.144-.204.076-.325-.028-.049-.075-.187-.102-.306s-.084-.331-.125-.472c-.04-.141-.101-.385-.132-.541-.031-.158-.089-.383-.127-.5-.039-.118-.07-.244-.069-.282 0-.037-.035-.15-.078-.249-.125-.288-.313-.345-.703-.212m-4.216 2.2c.129.111.131.225.006.277-.079.034-.125.027-.281-.048-.157-.075-.184-.103-.175-.179.008-.085.077-.114.31-.134.021-.002.083.036.14.084m27.13-1.533c-.21.072-.287.175-.305.407-.017.242.006.28.263.42l.182.1.174-.077c.239-.107.347-.222.356-.384.008-.173-.12-.352-.321-.442-.175-.078-.186-.079-.349-.024m-.182 1.241c-.1.036-.258.259-.257.361 0 .194.286.509.464.511.087.001.327-.124.417-.218.163-.169.127-.446-.077-.603-.101-.078-.4-.107-.547-.051m-27.463 1.961c-.266.051-.407.262-.34.512.081.304.326.479.557.398.146-.053.414-.323.415-.42.001-.111-.141-.376-.201-.377-.026-.001-.067-.023-.091-.051-.05-.059-.207-.087-.34-.062" fill="#c09300" transform="matrix(1.3333333 0 0 -1.3333333 298.84893 259.5508)"/><path clip-path="url(#V)" d="m0 0c.333-.02-.45 1.784-.45 1.784.882-.902 4.215-1.117 4.215-1.117-2 .882-4 7.547-3.765 12.86.217 5.332-.765 7.43-1.548 8.214-1 1-4.215 1.882-6.333 1.999-1.195.059-.999-.902-.999-.902-2.216.569-4.431.785-5.431.118-.941-.627-1.137-3.764-.451-3.215 1.666 1.333 3.117.118 4.117-1.333.882-1.274.824-4.881-.451-9.096-1.333-4.43-4.979-8.861-4.979-8.861 1.98 0 4.764 1.764 4.764 1.764l-.667-2.764c2.097 1 3.764 2.549 3.764 2.549l1.999-2.098c.667.882 2 2.098 2 2.098s1.667-1.765 4.215-2" fill="#fff" transform="matrix(1.3333333 0 0 -1.3333333 308.20707 168.72987)"/><path clip-path="url(#W)" d="m0 0c.333-.02-.45 1.784-.45 1.784.882-.902 4.215-1.117 4.215-1.117-2 .882-4 7.547-3.765 12.86.217 5.332-.765 7.43-1.548 8.214-1 1-4.215 1.882-6.333 1.999-1.195.059-.999-.902-.999-.902-2.216.569-4.431.785-5.431.118-.941-.627-1.137-3.764-.451-3.215 1.666 1.333 3.117.118 4.117-1.333.882-1.274.824-4.881-.451-9.096-1.333-4.43-4.979-8.861-4.979-8.861 1.98 0 4.764 1.764 4.764 1.764l-.667-2.764c2.097 1 3.764 2.549 3.764 2.549l1.999-2.098c.667.882 2 2.098 2 2.098s1.667-1.765 4.215-2z" fill="none" stroke="#c09300" stroke-width=".635" transform="matrix(1.3333333 0 0 -1.3333333 308.20707 168.72987)"/><path clip-path="url(#X)" d="m0 0s-1.118-8.214-3.215-10.547" fill="none" stroke="#c09300" stroke-width=".635" transform="matrix(1.3333333 0 0 -1.3333333 297.4128 151.7136)"/><path clip-path="url(#Y)" d="m0 0s-.432-8.312-1.882-10.978" fill="none" stroke="#c09300" stroke-width=".635" transform="matrix(1.3333333 0 0 -1.3333333 299.7656 151.42573)"/><path clip-path="url(#Z)" d="m0 0s0-9.096.549-10.645" fill="none" stroke="#c09300" stroke-width=".635" transform="matrix(1.3333333 0 0 -1.3333333 301.85547 151.8704)"/><path clip-path="url(#aa)" d="m0 0s.451-7.645 2.333-10.41" fill="none" stroke="#c09300" stroke-width=".635" transform="matrix(1.3333333 0 0 -1.3333333 304.49613 152.472)"/><path clip-path="url(#ab)" d="m0 0c-.098.726-.274 1.294-.529 1.667-1 1.45-2.451 2.666-4.117 1.333 0 0 .568 1.764 1.784 1.823.94.058 3.078-.706 4.96-3.921 0 0-1.393.314-1.726.019-.627-.548-.372-.921-.372-.921" fill="#c09300" stroke="#c09300" stroke-width=".635" transform="matrix(1.3333333 0 0 -1.3333333 294.72 146.40827)"/><path clip-path="url(#ac)" d="m0 0c.138.451.353.863.627 1.039 1 .667 3.215.451 5.43-.118 0 0-.196.961 1 .902 2.118-.117 5.333-1 6.333-1.999.234-.255.508-.628.744-1.196h-.039c-.491.686-1.882.646-2.216.607-.529-.058-.862-.039-1.568-.215-.333-.079-.842-.177-1.118-.392-.215-.177-.391-.824-.724-.824-.53 0-.491.137-.628.295-.177.215-.275.529-.451.509-.548-.098-1.431.333-2.548 1.216-1.117.882-1.549 1.097-3 .999-1.431-.117-1.882-.921-1.882-.921z" fill="#c09300" stroke="#c09300" stroke-width=".635" transform="matrix(1.3333333 0 0 -1.3333333 288.2904 139.5072)"/><path clip-path="url(#ad)" d="m0 0c.334 0 .589.255.589.588s-.255.588-.589.588c-.312 0-.587-.255-.587-.588s.275-.588.587-.588" fill="#fff" transform="matrix(1.3333333 0 0 -1.3333333 299.2148 141.2324)"/><path clip-path="url(#ae)" d="m0 0c-.14-.009-.281-.013-.423-.013-3.103 0-10.31 1.592-13.088 3.978-2.91-2.204-10.235-3.978-13.288-3.978-.142 0-.284.017-.425.043-.007-.696.029-1.416.073-2.072.161-2.45.59-4.909 1.243-7.276 2.054-7.447 6.258-13.776 12.287-18.578 6.032 4.806 10.241 11.141 12.3 18.594.654 2.365 1.085 4.824 1.248 7.275.042.642.078 1.345.073 2.027z" fill="none" stroke="#c09300" stroke-width=".458" transform="matrix(1.3333333 0 0 -1.3333333 318.14587 178.69333)"/></svg>