<svg height="888.88934" viewBox="0 0 1328.2292 888.88934" width="1328.2292" xmlns="http://www.w3.org/2000/svg"><path d="m0 0h996.172v666.667h-996.172z" fill="#00247d" transform="matrix(1.3333333 0 0 -1.3333333 0 888.88933)"/><path d="m0 0-168.089-112.059 48.411-32.274 168.089 112.059v32.274zm-380.761 0v-34.826l164.261-109.507 48.411 32.274-168.089 112.059zm0-253.84v-34.827h44.583l168.089 112.06-48.411 32.274zm212.672 77.233 168.089-112.06h48.411v32.274l-168.089 112.06z" fill="#fff" transform="matrix(1.3333333 0 0 -1.3333333 507.6816 .000133)"/><path d="m0 0v-96.223h-176.589v-96.221h176.589v-96.223h72.167v96.223h180.416v96.221h-180.416v96.223z" fill="#fff" transform="matrix(1.3333333 0 0 -1.3333333 235.452 .000133)"/><path d="m0 0v-115.467h-191.022v-57.733h191.022v-115.467h43.3v115.467h194.85v57.733h-194.85v115.467z" fill="#cf142b" transform="matrix(1.3333333 0 0 -1.3333333 254.6964 .000133)"/><path d="m0 0-144.333-96.223h32.274l144.333 96.223zm-396.898-24.068 108.232-72.155h32.273l-140.505 93.671zm284.839-168.376 144.333-96.223v21.516l-112.059 74.707zm-144.334 0-140.505-93.671v-2.552h28.446l144.333 96.223z" fill="#cf142b" transform="matrix(1.3333333 0 0 -1.3333333 529.1976 .000133)"/><g fill="#fff"><path d="m0 0 8.128-24.813h26.737l-21.603-16.042 8.128-25.026-21.39 15.401-21.818-15.401 8.128 25.026-21.39 16.042h26.737" transform="matrix(1.3333333 0 0 -1.3333333 969.30467 192.3852)"/><path d="m0 0-25.572-5.915-2.796-26.59-13.59 23.151-25.687-5.474 17.581 19.66-13.023 23.308 23.941-10.69 18.09 19.606-2.705-25.74" transform="matrix(1.3333333 0 0 -1.3333333 1107.4544 264.98347)"/><path d="m0 0-25.796 4.835-13.225-23.236-3.166 26.658-25.724 5.285 23.986 10.96-2.581 26.574 17.645-19.393 24.433 10.706-12.799-22.495" transform="matrix(1.3333333 0 0 -1.3333333 1176.8672 337.48813)"/><path d="m0 0-21.504 15.046-21.632-15.712 8.112 25.59-21.253 15.427 26.373.089 8.609 25.272 8.075-24.945 26.672-.326-20.938-15.212" transform="matrix(1.3333333 0 0 -1.3333333 1208.5781 432.66907)"/><path d="m0 0-13.466 22.526-26.168-5.486 17.871 20.033-13.082 22.773 24.101-10.712 18.197 19.539-2.838-26.067 24.204-11.207-25.33-5.315" transform="matrix(1.3333333 0 0 -1.3333333 1200.7357 533.5252)"/><path d="m0 0-3.332 26.031-26.178 5.438 24.392 11.215-2.883 26.102 17.806-19.457 24.491 10.63-13.025-22.755 17.703-19.951-25.343 5.259z" transform="matrix(1.3333333 0 0 -1.3333333 1151.4623 621.84413)"/><path d="m0 0-21.504 15.045-21.633-15.712 8.112 25.592-21.253 15.427 26.374.088 8.609 25.273 8.074-24.946 26.673-.325-20.939-15.213" transform="matrix(1.3333333 0 0 -1.3333333 1127.582 681.36373)"/><path d="m0 0-13.466 22.526-26.168-5.486 17.871 20.033-13.081 22.772 24.101-10.711 18.196 19.538-2.838-26.066 24.204-11.207-25.33-5.315" transform="matrix(1.3333333 0 0 -1.3333333 1025.6224 728.03173)"/><path d="m0 0-3.332 26.03-26.178 5.438 24.392 11.215-2.883 26.102 17.806-19.456 24.491 10.63-13.025-22.756 17.703-19.951-25.343 5.259z" transform="matrix(1.3333333 0 0 -1.3333333 913.60547 728.1072)"/><path d="m0 0-21.504 15.045-21.633-15.712 8.113 25.592-21.254 15.427 26.374.088 8.609 25.273 8.074-24.946 26.673-.325-20.939-15.213" transform="matrix(1.3333333 0 0 -1.3333333 867.4792 681.36373)"/><path d="m0 0 25.33 5.315-24.204 11.206 2.838 26.067-18.197-19.539-24.101 10.712 13.082-22.772-17.871-20.033 26.168 5.486 13.466-22.527z" transform="matrix(1.3333333 0 0 -1.3333333 791.27733 586.30253)"/><path d="m0 0-13.466 22.526-26.168-5.486 17.871 20.033-13.081 22.772 24.101-10.712 18.196 19.539-2.838-26.066 24.204-11.206-25.33-5.316" transform="matrix(1.3333333 0 0 -1.3333333 814.28907 361.8344)"/><path d="m0 0-21.504 15.045-21.632-15.712 8.112 25.591-21.253 15.428 26.373.088 8.609 25.272 8.075-24.945 26.672-.325-20.938-15.213" transform="matrix(1.3333333 0 0 -1.3333333 786.76693 432.95427)"/><path d="m0 0-3.332 26.03-26.178 5.438 24.392 11.215-2.883 26.102 17.806-19.456 24.491 10.63-13.025-22.756 17.703-19.951-25.343 5.259z" transform="matrix(1.3333333 0 0 -1.3333333 738.20707 533.60067)"/><path d="m0 0-3.333 26.031-26.177 5.438 24.391 11.214-2.883 26.103 17.806-19.457 24.492 10.63-13.025-22.755 17.702-19.952-25.342 5.259z" transform="matrix(1.3333333 0 0 -1.3333333 869.11453 307.43733)"/></g></svg>