<svg width="605" height="72.5" viewBox="0 0 605 72.5" xmlns="http://www.w3.org/2000/svg">
  <path d="m10.541 4.043 16.751 43L44.792.918l16.75 46.125 17.79-43h10.545l-28.75 68.413-16.544-45.58-17.25 45.622L0 4.043Zm81.207 31.873q0-13.584 9.959-23.331 9.917-9.751 23.834-9.751 13.75 0 23.584 9.834Q159 22.498 159 36.29q0 13.875-9.918 23.547-9.959 9.705-24.041 9.705-12.458 0-22.375-8.624-10.92-9.544-10.92-25.002m9.794.125q0 10.666 7.166 17.54 7.124 6.88 16.46 6.88 10.125 0 17.083-7.004 6.958-7.083 6.958-17.25 0-10.292-6.879-17.25-6.83-7-16.913-7-10.042 0-16.959 7-6.916 6.917-6.916 17.084M193 40.958l19.918 27.417h-11.882L182.66 42.043h-1.75v26.332h-9.706V4.043h11.376q12.748 0 18.414 4.789 6.251 5.333 6.251 14.086 0 6.834-3.915 11.747t-10.333 6.293m-12.087-7.374h3.084q13.795 0 13.795-10.545 0-9.872-13.417-9.872h-3.462Zm51.382-29.54V59.25h18.917v9.124h-28.623V4.043Zm28.127 64.33V4.045h13.5q9.707 0 15.334 1.916 6.04 1.874 10.96 6.372 9.956 9.086 9.956 23.875 0 14.835-10.375 24-5.208 4.585-10.919 6.376-5.329 1.792-15.121 1.792zm9.71-9.123h4.373q6.538 0 10.874-1.376 4.335-1.459 7.834-4.626 7.166-6.539 7.166-17.042 0-10.583-7.082-17.167-6.376-5.873-18.792-5.873h-4.377zm114.958-45.627-7.877 4.668q-2.207-3.832-4.206-5-2.087-1.334-5.379-1.334-4.04 0-6.704 2.29-2.669 2.253-2.669 5.67 0 4.709 7 7.581l6.418 2.627q7.83 3.167 11.455 7.748 3.629 4.543 3.629 11.168 0 8.875-5.92 14.665-5.956 5.835-14.792 5.835-8.372 0-13.833-4.958-5.375-4.96-6.705-13.958l9.83-2.17q.67 5.67 2.336 7.835 2.997 4.165 8.75 4.165 4.539 0 7.54-3.038 3-3.043 3-7.71 0-1.875-.54-3.417-.502-1.584-1.625-2.873-1.085-1.334-2.834-2.456-1.75-1.172-4.165-2.211l-6.21-2.586q-13.21-5.582-13.21-16.33 0-7.25 5.541-12.126 5.545-4.917 13.795-4.917 11.124 0 17.375 10.832m32.33-.457v55.208h-9.706V13.167h-14.793V4.043h39.25v9.124zM475.13 52.75h-27.545l-7.166 15.625h-10.458L461.793.003l30.709 68.372h-10.62zm-3.96-9.124-9.544-21.876-10 21.876zm59.542-8.75h26.581v2.125q0 7.249-1.708 12.831-1.663 5.167-5.624 9.668-8.958 10.084-22.79 10.084-13.501 0-23.128-9.751-9.626-9.79-9.626-23.501 0-14 9.793-23.747Q514 2.792 528.044 2.792q7.54 0 14.083 3.084 6.251 3.08 12.29 9.997l-6.916 6.626q-7.914-10.541-19.29-10.541-10.205 0-17.122 7.04-6.916 6.917-6.916 17.334 0 10.752 7.706 17.71 7.208 6.456 15.625 6.456 7.166 0 12.873-4.83 5.707-4.876 6.376-11.668h-16.04zm74.29-21.709h-25.791v15.458h25.043v9.124h-25.043v21.502h25.791v9.124h-35.501V4.043h35.501z" aria-label="WORLD STAGE"/>
  <path d="M123.81 63.514c-4.245-.397-7.42-1.308-10.848-3.103a27.06 27.06 0 0 1-13.689-17.737 24.6 24.6 0 0 1-.68-6.055c0-7.215 2.77-13.886 7.891-19.011a26.53 26.53 0 0 1 19.011-7.888c4.475 0 8.353.945 12.322 3.001a26.99 26.99 0 0 1 13.946 18.051c.65 2.861.824 6.463.446 9.215-.84 6.07-3.466 11.395-7.71 15.64a26.9 26.9 0 0 1-15.583 7.69c-1.263.167-4.214.284-5.106.197m5.737-3.613c4.49-.813 8.334-2.782 11.792-6.036l1.05-.99-.389-.473c-.506-.62-1.697-2.974-2.025-4.021-.34-1.058-.36-2.464-.053-3.337a3.8 3.8 0 0 0 .208-.942c0-.196-.288-1.122-.643-2.052-1.107-2.918-1.183-2.986-3.137-2.842-1.784.132-2.355.09-3.008-.208-1.512-.688-2.37-2.184-2.37-4.12 0-1.41.37-2.392 1.557-4.108.779-1.134 1.047-1.481 1.463-1.893.408-.409.442-.726.14-1.316-.635-1.247-.197-2.18 1.198-2.55.28-.076.532-.197.563-.265a3.8 3.8 0 0 0-.125-.923c-.14-.627-.238-.839-.491-1.054a1.13 1.13 0 0 0-.567-.265c-.59 0-.454-.56.34-1.383.831-.88.983-.85 1.954.367.355.446.782.567 1.224.336.613-.318.703-.922.257-1.72-.219-.389-.264-.574-.204-.816.076-.31.953-1.21 1.176-1.21.064 0 .2-.094.302-.207.185-.2.159-.227-1.009-.983a26.5 26.5 0 0 0-3.912-2.185c-.982-.415-1.134-.378-1.738.446-.87 1.18-1.633 1.69-3.432 2.29-1.576.53-2.204.881-2.782 1.55a2.3 2.3 0 0 1-.703.605c-.597.151-1.534-.404-1.738-1.032-.099-.295-.08-.446.11-.918.31-.771.324-1.663.037-2.06-.2-.272-.763-.612-1.414-.85-.23-.087-.14-.144.843-.518a25 25 0 0 1 2.211-.71l1.421-.382c.193-.057-.706-.076-2.316-.057-2.128.03-2.877.08-3.897.264a21.5 21.5 0 0 0-6.217 2.004c-1.365.669-2.79 1.542-2.79 1.708 0 .06.163.083.393.049.22-.034.658-.09.975-.128.719-.084 2.268-.567 3.111-.976 1.058-.506 1.357-.567 2.51-.521 1.681.068 2.41.567 2.623 1.791.11.639.102.703-.121 1.013-.265.378-.911.786-1.622 1.028-.623.212-.695.408-.227.631.945.454 1.64 1.682 1.709 3.04.022.468-.008.982-.068 1.137-.102.257-.17.29-.586.29s-.544-.06-1.01-.472a2.3 2.3 0 0 0-.676-.476c-.174 0-1.13.7-2.116 1.542-.405.348-1.21.975-1.788 1.402-1.87 1.38-3.152 2.907-3.9 4.66l-.303.707-.227-.378a2.7 2.7 0 0 0-.68-.676c-.4-.272-.54-.303-1.281-.303-1.19 0-1.682.227-2.313 1.097-.265.362-.303.495-.303 1.19 0 .73.023.801.322 1.104.276.276.378.31.703.257a1.5 1.5 0 0 0 .654-.322c.302-.29.816-.517.963-.427.053.034.099.238.099.458 0 .294.143.635.536 1.285.597.982.832 1.55.832 2.003 0 .408.4.669.88.578a3.8 3.8 0 0 0 .858-.321c1.134-.575 2.329-.605 3.829-.102 1.451.491 2.528 1.13 3.98 2.37 1.61 1.375 2.294 1.852 3.144 2.177l1.104.427c.665.26.99.756.907 1.39-.034.261-.2.756-.37 1.108-.545 1.115-.756 1.761-.85 2.596-.114.964-.224 1.202-.946 2.023-1.001 1.145-2.702 3.855-4.146 6.61-.873 1.663-1.02 2.196-.79 2.872.129.37.204.435.718.613.62.207 2.382.548 3.69.706.434.053 1.881.084 3.212.065 1.916-.027 2.683-.08 3.689-.265zm-13.826-2.396a20 20 0 0 1-.97-5.862c0-1.096-.436-3.077-.832-3.83a7.6 7.6 0 0 0-1.236-1.51c-1.051-1.036-1.523-1.649-1.875-2.431-.533-1.18-.45-2.215.276-3.42.514-.855.726-1.475.605-1.8-.057-.15-.363-.359-.87-.593-.782-.363-1.292-.707-2.615-1.773-.907-.725-1.678-1.11-2.623-1.307a5.7 5.7 0 0 1-1.047-.31 1.74 1.74 0 0 1-.884-1.213c-.121-.749-.28-.908-1.198-1.202-.394-.125-.5.756-.492 4.1 0 2.586.03 3.111.238 4.268.443 2.464.994 4.157 2.075 6.372a24.2 24.2 0 0 0 8.667 9.789c1.096.722 2.986 1.761 3.057 1.69a5.3 5.3 0 0 0-.276-.968m29.292-28.101c.737-.155 1.55-.537 1.625-.756.023-.076-.121-.159-.363-.2a11 11 0 0 1-1.323-.427c-1.364-.53-1.867-.616-2.759-.47-.952.156-2.177.549-2.131.681.075.23.8.71 1.39.919a6.56 6.56 0 0 0 3.56.253"/>
</svg>

