<svg width="605" height="72.5" viewBox="0 0 605 72.5" xmlns="http://www.w3.org/2000/svg">
   <g id="logo">
      <path fill="currentColor" d="m10.54158 4.0416572 16.749998 42.9999978 17.499999-46.12499799 16.750001 46.12499799 17.791665-42.9999978h10.541665l-28.749996 68.4166678-16.541666-45.583335-17.249999 45.625-27.33333318-68.4583328zm81.208331 31.8749998q0-13.583332 9.958339-23.333331 9.91666-9.7500022 23.83333-9.7500022 13.75 0 23.58333 9.8333322 9.875 9.833335 9.875 23.625002 0 13.874998-9.91667 23.541667-9.95833 9.708334-24.04166 9.708334-12.45833 0-22.375-8.625002-10.916669-9.541668-10.916669-25zm9.791669.124989q0 10.666666 7.16666 17.541665 7.125 6.874999 16.45834 6.874999 10.125 0 17.08333-6.999999 6.95833-7.083334 6.95833-17.249999 0-10.291666-6.875-17.25-6.83333-6.999999-16.91666-6.999999-10.04167 0-16.95834 6.999999-6.91666 6.916669-6.91666 17.083334zm91.45833 4.916665 19.91666 27.416669h-11.875l-18.375-26.333336h-1.75v26.333336h-9.70833v-64.3333228h11.375q12.75 0 18.41667 4.7916665 6.24999 5.3333353 6.24999 14.0833333 0 6.833333-3.91666 11.749998-3.91667 4.916669-10.33333 6.291668zm-12.08334-7.374999h3.08333q13.79167 0 13.79167-10.541666 0-9.875-13.41666-9.875h-3.45834zm51.375-29.5416548v55.2083318h18.91667v9.125002h-28.625v-64.3333338zm28.125 64.3333338v-64.3333338h13.49999q9.70834 0 15.33334 1.9166663 6.04166 1.8750002 10.95833 6.3750015 9.95833 9.083333 9.95833 23.874998 0 14.833334-10.375 24.000002-5.20833 4.58333-10.91666 6.374998-5.33333 1.791668-15.125 1.791668zm9.70833-9.125002h4.375q6.54167 0 10.875-1.374998 4.33333-1.458333 7.83333-4.625 7.16667-6.541667 7.16667-17.041668 0-10.583331-7.08333-17.166665-6.37501-5.875001-18.79167-5.875001h-4.375zm114.95833-45.625-7.87501 4.666668q-2.20834-3.833332-4.20831-5-2.08335-1.333332-5.37502-1.333332-4.04167 0-6.70835 2.291665-2.66664 2.249999-2.66664 5.666666 0 4.708334 6.99998 7.583335l6.41669 2.625q7.83332 3.166666 11.45834 7.75 3.62498 4.541665 3.62498 11.166667 0 8.874998-5.91666 14.666665-5.95834 5.833336-14.79165 5.833336-8.37501 0-13.83336-4.958335-5.37498-4.958334-6.70832-13.958333l9.83334-2.166668q.66667 5.666666 2.33333 7.833335 2.99999 4.166664 8.74997 4.166664 4.54171 0 7.5417-3.041666 3-3.041667 3-7.708332 0-1.874999-.54168-3.416666-.5-1.583333-1.62501-2.875001-1.08332-1.333333-2.83332-2.458334-1.74999-1.166667-4.16666-2.208334l-6.20836-2.583331q-13.2083-5.583336-13.2083-16.333333 0-7.249999 5.54165-12.1250011 5.54165-4.9166667 13.79167-4.9166667 11.12499 0 17.375 10.8333318zm32.33333-.458332v55.208334h-9.70831v-55.208334h-14.79169v-9.1249998h39.25001v9.1249998zm57.70834 39.583334h-27.54169l-7.16666 15.625h-10.45832l31.83334-68.37500077 30.70833 68.37500077h-10.625zm-3.95833-9.124999-9.54168-21.875002-10.00001 21.875002zm59.54166-8.750002h26.58332v2.125q0 7.249999-1.70834 12.833335-1.66666 5.166665-5.62499 9.666664-8.95834 10.083335-22.79166 10.083335-13.50001 0-23.12502-9.749999-9.62497-9.791669-9.62497-23.500002 0-13.999998 9.79165-23.749997 9.79169-9.7916688 23.83333-9.7916688 7.54166 0 14.08334 3.0833331 6.25001 3.0833336 12.29165 10.0000017l-6.91664 6.624999q-7.91666-10.541666-19.29167-10.541666-10.20834 0-17.12502 7.041664-6.91664 6.916668-6.91664 17.333334 0 10.750001 7.70834 17.708335 7.2083 6.458333 15.62496 6.458333 7.1667 0 12.87502-4.833334 5.70833-4.875 6.375-11.666668h-16.04166zm74.29168-21.708333h-25.79166v15.458332h25.04165v9.125002h-25.04165v21.499998h25.79166v9.125002h-35.50001v-64.3333338h35.50001z"/>
      <path fill="currentColor" d="m120.66638 60.622882c-.94094-.186026-1.81628-.445615-1.94522-.576871-.36201-.368512-1.07324-2.612349-1.50743-4.755688-.50519-2.493707-.7741-3.03177-2.62916-5.26064-.84494-1.015215-1.75343-2.251865-2.01887-2.748108-.44187-.826113-.47353-1.022135-.37503-2.322576.12322-1.626714.73674-3.514614 1.45271-4.470228.6384-.852069 2.39783-1.811341 3.3198-1.809985 1.53989.0022 2.0372.300167 4.34719 2.604158l2.19977 2.193995h1.90185c4.39211 0 5.47321.690775 5.48244 3.502947.004 1.154248-.0813 1.566812-.50513 2.445141-.65432 1.356504-1.5066 2.085054-3.96905 3.392821-2.30226 1.222677-2.28599 1.19924-2.86867 4.133735-.44343 2.233149-.87141 3.838526-1.05029 3.939488-.0681.03854-.89395-.08216-1.83491-.268189zm24.93999-11.424299c-.1597-.406338-.42088-1.589984-.5804-2.630325-.68136-4.44388-.79065-5.00575-1.01624-5.224747-.1306-.12679-.88256-.407977-1.671-.624866-1.7418-.479144-2.64224-1.153695-3.15037-2.360128-.8646-2.052682-.6851-3.4436.60002-4.649536.42616-.399909 1.09809-.894993 1.49319-1.100193.8955-.465092 7.16771-2.606482 7.6345-2.606482 1.07265 0 1.46627 7.755137.59024 11.6288-.19517.862929-.57413 2.19193-.84218 2.953343-.53582 1.522102-2.42042 5.352936-2.63336 5.352936-.0737 0-.26469-.332457-.4244-.738802zm-34.10799-10.389732c-3.31142-1.522692-4.08244-2.355949-5.07459-5.484034-.17709-.558369-.6172-1.377943-.97803-1.821285-1.40568-1.727201-1.86207-2.362632-2.27885-3.172761l-.43266-.840897.59021-1.374111c2.81246-6.547857 8.63057-11.677674 15.5646-13.72332 1.57879-.465764 4.59528-.982798 4.75934-.815757.0485.04921.25564.747188.4607 1.551132.61978 2.429526.27226 3.966983-1.57248 6.956749l-1.05122 1.703748-.11337 2.215009c-.0623 1.218255-.1728 2.350812-.24541 2.516799-.0725.165986-.7692.59411-1.54793.951393-1.70286.78127-2.10827 1.189276-2.35756 2.372691-.23748 1.12736-.66585 2.188526-.88342 2.188526-.0909 0-.42048-.48739-.73235-1.083089-.31188-.595698-.68527-1.182955-.82973-1.305032-.35611-.300864-4.55463.409075-5.03466.851321-.33782.31124-1.05296 2.383487-1.05296 3.051166 0 .745724.58625 1.638022 1.32996 2.024285.74307.385924 1.41113.39353 3.58148.04078.47536-.07726.73417-.02066.96096.210251.4202.427769.30654.839579-.35315 1.279724-.48214.321668-.54964.471436-.54192 1.202264.009.824706.00098.83535-.62578.878076-.35558.02425-1.03323-.140046-1.54118-.37362zm24.61879-12.041262c-.29722-.12723-.59342-.371955-.65822-.543828-.27634-.733104-.0903-2.034518.53318-3.729038l.65096-1.76935-.56031-1.443467c-.30814-.793914-.55851-1.634567-.55632-1.868125.006-.599408.65782-1.995529 1.20404-2.577445l.4614-.491534.93309.555449c2.52134 1.500878 5.29952 4.07283 7.18594 6.652497 1.09361 1.495503 3.01817 5.071859 2.83156 5.261817-.0567.05766-.70352.144073-1.43754.192031-1.73394.11328-2.37764-.187462-3.11401-1.454882-.92831-1.597821-1.11327-1.596335-3.71837.02996-1.96677 1.227795-2.93976 1.53506-3.7554 1.185927z"/>
   </g>
</svg>