<?xml version="1.0" encoding="UTF-8" standalone="no"?>
<svg
   height="650"
   viewBox="0 0 975 650"
   width="975"
   version="1.1"
   id="svg39"
   sodipodi:docname="rect-small.svg"
   inkscape:version="1.4 (e7c3feb1, 2024-10-09)"
   xmlns:inkscape="http://www.inkscape.org/namespaces/inkscape"
   xmlns:sodipodi="http://sodipodi.sourceforge.net/DTD/sodipodi-0.dtd"
   xmlns="http://www.w3.org/2000/svg"
   xmlns:svg="http://www.w3.org/2000/svg">
  <defs
     id="defs39" />
  <sodipodi:namedview
     id="namedview39"
     pagecolor="#ffffff"
     bordercolor="#000000"
     borderopacity="0.25"
     inkscape:showpageshadow="2"
     inkscape:pageopacity="0.0"
     inkscape:pagecheckerboard="0"
     inkscape:deskcolor="#d1d1d1"
     inkscape:current-layer="svg39" />
  <path
     d="m0 650h975v-649.99998375h-975z"
     fill="#fff"
     stroke-width="1.33393"
     id="path1" />
  <g
     fill="#b22234"
     transform="matrix(1.3345415 0 0 -1.3333333 0 650.00001)"
     id="g8">
    <path
       d="m0 450h730.588v37.5h-730.588z"
       id="path2" />
    <path
       d="m0 375h730.588v37.499h-730.588z"
       id="path3" />
    <path
       d="m0 300h730.588v37.5h-730.588z"
       id="path4" />
    <path
       d="m0 225h730.588v37.5h-730.588z"
       id="path5" />
    <path
       d="m0 150h730.588v37.499h-730.588z"
       id="path6" />
    <path
       d="m0 75h730.588v37.5h-730.588z"
       id="path7" />
    <path
       d="m0 0h730.588v37.5h-730.588z"
       id="path8" />
  </g>
  <path
     d="M 0,350.00001 H 487.49999 V 1.625e-5 H 0 Z"
     fill="#3c3b6e"
     id="path9"
     style="stroke-width:1.33333" />
  <g
     id="g1">
    <path
       d="m 79.884133,36.4896 -4.496,13.833333 H 60.841467 l 11.770666,8.552 -4.494666,13.833333 11.765333,-8.552 11.765333,8.552 -4.494667,-13.833333 11.770667,-8.552 H 84.377466 Z"
       fill="#ffffff"
       id="path10"
       style="stroke-width:1.33333" />
    <path
       d="m 145.7849,36.4896 -4.49467,13.833333 h -14.54666 l 11.76666,8.549333 -4.496,13.836 11.768,-8.550667 11.76934,8.550667 -4.49467,-13.833333 11.77067,-8.552 h -14.548 z"
       fill="#ffffff"
       id="path11"
       style="stroke-width:1.33333" />
  </g>
  <path
     d="m 211.68835,36.4896 -4.49467,13.833333 h -14.54666 l 11.76666,8.549333 -4.496,13.836 11.768,-8.550667 11.768,8.550667 -4.49466,-13.833333 11.76533,-8.552 h -14.54133 z"
     fill="#ffffff"
     id="path12"
     style="stroke-width:1.33333" />
  <path
     d="m 277.57846,36.4896 -4.49467,13.833333 h -14.54 l 11.764,8.552 -4.49466,13.833333 11.768,-8.550667 11.768,8.550667 -4.496,-13.836 11.76666,-8.549333 h -14.54666 z"
     fill="#ffffff"
     id="path13"
     style="stroke-width:1.33333" />
  <g
     id="g2">
    <path
       d="m 343.48056,36.4896 -4.49467,13.833333 h -14.54666 l 11.77066,8.552 -4.49466,13.833333 11.768,-8.550667 11.768,8.550667 -4.49467,-13.836 11.76533,-8.549333 h -14.54533 z"
       fill="#ffffff"
       id="path14"
       style="stroke-width:1.33333" />
    <path
       d="m 402.112,58.875067 -4.49467,13.833333 11.76534,-8.552 11.76533,8.552 -4.49467,-13.833333 11.77067,-8.552 H 413.87733 L 409.38267,36.489734 404.888,50.323067 h -14.54667 z"
       fill="#ffffff"
       id="path15"
       style="stroke-width:1.33333" />
  </g>
  <path
     d="m 112.83385,96.693137 -4.49467,13.833333 H 93.792518 l 11.765332,8.54534 -4.49467,13.83466 11.768,-8.54666 11.76934,8.54666 -4.49467,-13.832 11.77067,-8.548 h -14.548 z"
     fill="#ffffff"
     id="path17"
     style="stroke-width:1.33333" />
  <path
     d="m 178.7373,96.693137 -4.49468,13.833333 h -14.54666 l 11.76533,8.54534 -4.49467,13.83466 11.768,-8.54666 11.768,8.54666 -4.49466,-13.832 11.76533,-8.548 h -14.54133 z"
     fill="#ffffff"
     id="path18"
     style="stroke-width:1.33333" />
  <path
     d="m 244.62741,96.693137 -4.49467,13.833333 h -14.54 l 11.764,8.54667 -4.49466,13.83333 11.768,-8.54666 11.768,8.54666 -4.49467,-13.83466 11.76533,-8.54534 h -14.54666 z"
     fill="#ffffff"
     id="path19"
     style="stroke-width:1.33333" />
  <path
     d="m 310.52951,96.693137 -4.49467,13.833333 h -14.54666 l 11.76933,8.548 -4.49333,13.832 11.76801,-8.54666 11.768,8.54666 -4.49467,-13.83466 11.76533,-8.54534 h -14.54666 z"
     fill="#ffffff"
     id="path20"
     style="stroke-width:1.33333" />
  <path
     d="m 376.43162,96.693103 -4.49467,13.833327 h -14.54666 l 11.76933,8.548 -4.49333,13.832 11.76533,-8.548 11.76533,8.548 -4.49333,-13.832 11.76933,-8.548 h -14.54667 z"
     fill="#ffffff"
     id="path21"
     style="stroke-width:1.33333" />
  <path
     d="M 79.884133,156.89107 75.389466,170.7244 H 60.841467 l 11.770666,8.552 -4.494666,13.832 11.765333,-8.55066 11.765333,8.55066 -4.494667,-13.832 11.770667,-8.552 H 84.377466 Z"
     fill="#ffffff"
     id="path22"
     style="stroke-width:1.33333" />
  <path
     d="m 145.78496,156.89134 -4.49467,13.83333 h -14.54666 l 11.76666,8.54934 -4.496,13.83466 11.768,-8.54933 11.76934,8.54933 -4.49467,-13.832 11.77067,-8.552 h -14.548 z"
     fill="#ffffff"
     id="path23"
     style="stroke-width:1.33333" />
  <path
     d="m 211.68845,156.89134 -4.49467,13.83333 h -14.54666 l 11.76666,8.54934 -4.496,13.83466 11.768,-8.55066 11.768,8.55066 -4.49466,-13.832 11.76533,-8.552 h -14.54133 z"
     fill="#ffffff"
     id="path24"
     style="stroke-width:1.33333" />
  <path
     d="m 277.57862,156.89134 -4.49467,13.83333 h -14.54 l 11.764,8.552 -4.49466,13.832 11.768,-8.55066 11.768,8.55066 -4.496,-13.83466 11.76666,-8.54934 h -14.54666 z"
     fill="#ffffff"
     id="path25"
     style="stroke-width:1.33333" />
  <path
     d="m 343.48077,156.89134 -4.49467,13.83333 h -14.54666 l 11.77066,8.552 -4.49466,13.832 11.768,-8.54933 11.768,8.54933 -4.49467,-13.83466 11.76533,-8.54934 h -14.54666 z"
     fill="#ffffff"
     id="path26"
     style="stroke-width:1.33333" />
  <path
     d="m 409.38293,156.89114 -4.49467,13.83332 H 390.3416 l 11.77066,8.552 -4.49466,13.832 11.76533,-8.55066 11.76533,8.55066 -4.49466,-13.832 11.77066,-8.552 H 413.8776 Z"
     fill="#ffffff"
     id="path27"
     style="stroke-width:1.33333" />
  <path
     d="m 112.83385,217.09354 -4.496,13.83333 H 93.792519 l 11.765331,8.54534 -4.49467,13.83466 11.768,-8.54666 11.76934,8.54666 -4.49467,-13.832 11.77067,-8.548 h -14.54667 z"
     fill="#ffffff"
     id="path29"
     style="stroke-width:1.33333" />
  <path
     d="m 178.7373,217.09354 -4.49601,13.83333 h -14.54533 l 11.76533,8.54534 -4.49467,13.83466 11.768,-8.54666 11.768,8.54666 -4.49466,-13.832 11.76533,-8.548 h -14.54 z"
     fill="#ffffff"
     id="path30"
     style="stroke-width:1.33333" />
  <path
     d="m 244.62741,217.09354 -4.496,13.83333 h -14.53867 l 11.764,8.548 -4.49466,13.832 11.768,-8.54666 11.768,8.54666 -4.49467,-13.83466 11.76533,-8.54534 h -14.54533 z"
     fill="#ffffff"
     id="path31"
     style="stroke-width:1.33333" />
  <path
     d="m 310.52951,217.09354 -4.496,13.83333 h -14.54533 l 11.76933,8.548 -4.49333,13.832 11.76801,-8.54666 11.768,8.54666 -4.49467,-13.83466 11.76533,-8.54534 h -14.54533 z"
     fill="#ffffff"
     id="path32"
     style="stroke-width:1.33333" />
  <path
     d="m 376.43162,217.09317 -4.496,13.83333 h -14.54533 l 11.76933,8.548 -4.49333,13.832 11.76533,-8.548 11.76533,8.548 -4.49333,-13.832 11.76933,-8.548 h -14.54533 z"
     fill="#ffffff"
     id="path33"
     style="stroke-width:1.33333" />
  <path
     d="M 84.3776,291.12453 79.884266,277.2912 75.3896,291.12453 h -14.548 l 11.770667,8.552 -4.494667,13.83333 11.765333,-8.552 11.765333,8.552 -4.494667,-13.83333 11.770667,-8.552 z"
     fill="#ffffff"
     id="path34"
     style="stroke-width:1.33333" />
  <path
     d="m 150.27973,291.12507 -4.49467,-13.83333 -4.49466,13.83333 h -14.54667 l 11.76667,8.54933 -4.496,13.836 11.768,-8.55066 11.76933,8.55066 -4.49467,-13.83333 11.77067,-8.552 z"
     fill="#ffffff"
     id="path35"
     style="stroke-width:1.33333" />
  <path
     d="m 216.1832,291.12507 -4.49467,-13.83333 -4.49466,13.83333 H 192.6472 l 11.76667,8.54933 -4.496,13.836 11.768,-8.55066 11.768,8.55066 -4.49467,-13.83333 11.76533,-8.552 z"
     fill="#ffffff"
     id="path36"
     style="stroke-width:1.33333" />
  <path
     d="m 282.07333,291.12507 -4.49467,-13.83333 -4.49466,13.83333 h -14.54 l 11.76533,8.552 -4.496,13.83333 11.768,-8.55066 11.768,8.55066 -4.496,-13.836 11.76667,-8.54933 z"
     fill="#ffffff"
     id="path37"
     style="stroke-width:1.33333" />
  <path
     d="m 347.97546,291.12507 -4.49467,-13.83333 -4.49466,13.83333 h -14.54667 l 11.77067,8.552 -4.49467,13.83333 11.768,-8.55066 11.768,8.55066 -4.496,-13.836 11.76667,-8.54933 z"
     fill="#ffffff"
     id="path38"
     style="stroke-width:1.33333" />
  <path
     d="m 413.8776,291.12453 -4.49467,-13.83333 -4.49467,13.83333 H 390.3416 l 11.77066,8.552 -4.49466,13.83333 11.76533,-8.552 11.76533,8.552 -4.49466,-13.83333 11.77066,-8.552 z"
     fill="#ffffff"
     id="path39"
     style="stroke-width:1.33333" />
</svg>
