<svg height="650" viewBox="0 0 650 650" width="650" xmlns="http://www.w3.org/2000/svg"><path d="m0 650h650v-649.99998375h-650z" fill="#fff" stroke-width="1.08915"/><g fill="#b22234" transform="matrix(.88969433 0 0 -1.3333333 0 650.00001)"><path d="m0 450h730.588v37.5h-730.588z"/><path d="m0 375h730.588v37.499h-730.588z"/><path d="m0 300h730.588v37.5h-730.588z"/><path d="m0 225h730.588v37.5h-730.588z"/><path d="m0 150h730.588v37.499h-730.588z"/><path d="m0 75h730.588v37.5h-730.588z"/><path d="m0 0h730.588v37.5h-730.588z"/></g><path d="m0 350.00001h325v-349.99999375h-325z" fill="#3c3b6e" stroke-width="1.08866"/><g fill="#fff" stroke-width="1.33333" transform="translate(9.999999 .000013)"><path d="m27.751269 16.4896-4.496 13.833333h-14.546666l11.770666 8.552-4.494666 13.833333 11.765333-8.552 11.765333 8.552-4.494667-13.833333 11.770667-8.552h-14.546667z"/><path d="m77.651136 16.4896-4.49467 13.833333h-14.54666l11.76666 8.549333-4.496 13.836 11.768-8.550667 11.76934 8.550667-4.49467-13.833333 11.770674-8.552h-14.548004z"/><path d="m127.55207 16.4896-4.49467 13.833333h-14.54666l11.76666 8.549333-4.496 13.836 11.768-8.550667 11.768 8.550667-4.49466-13.833333 11.76533-8.552h-14.54133z"/><path d="m177.44794 16.4896-4.49467 13.833333h-14.54l11.764 8.552-4.49466 13.833333 11.768-8.550667 11.768 8.550667-4.496-13.836 11.76666-8.549333h-14.54666z"/><path d="m227.34901 16.4896-4.49467 13.833333h-14.54666l11.77066 8.552-4.49466 13.833333 11.768-8.550667 11.768 8.550667-4.49467-13.836 11.76533-8.549333h-14.54533z"/><path d="m269.97914 38.875067-4.49467 13.833333 11.76534-8.552 11.76533 8.552-4.49467-13.833333 11.77067-8.552h-14.54667l-4.49466-13.833333-4.49467 13.833333h-14.54667z"/><path d="m52.697936 51.593733-4.496 13.833333h-14.54l11.765334 8.546666-4.494667 13.833333 11.768-8.546666 11.769333 8.546666-4.496-13.834666 11.765333-8.545333h-14.545333z"/><path d="m102.59901 51.593733-4.496 13.833333h-14.545334l11.770664 8.549333-4.494664 13.830666 11.768004-8.546666 11.768 8.546666-4.49467-13.834666 11.76533-8.545333h-14.54533z"/><path d="m152.50007 51.593733-4.496 13.833333h-14.54533l11.77066 8.549333-4.49466 13.830666 11.76533-8.547999 11.76533 8.547999-4.49466-13.830666 11.77066-8.549333h-14.54533z"/><path d="m202.40114 51.593733-4.496 13.833333h-14.544l11.76533 8.545333-4.496 13.834666 11.768-8.546666 11.768 8.546666-4.49333-13.830666 11.76933-8.549333h-14.54533z"/><path d="m252.30341 51.593733-4.49733 13.833333h-14.54534l11.76534 8.545333-4.49467 13.834666 11.768-8.546666 11.768 8.546666-4.49467-13.833333 11.76534-8.546666h-14.54z"/><path d="m27.751269 86.6928-4.494667 13.83333h-14.547999l11.769333 8.548-4.493333 13.832 11.765333-8.548 11.765333 8.548-4.493334-13.832 11.769334-8.548h-14.546667z"/><path d="m77.651136 86.6928-4.49467 13.83333h-14.54666l11.76533 8.54534-4.49467 13.83466 11.768-8.54666 11.76934 8.54666-4.49467-13.832 11.770674-8.548h-14.548004z"/><path d="m127.55207 86.6928-4.49467 13.83333h-14.54666l11.76533 8.54534-4.49467 13.83466 11.768-8.54666 11.768 8.54666-4.49466-13.832 11.76533-8.548h-14.54133z"/><path d="m177.44794 86.6928-4.49467 13.83333h-14.54l11.764 8.54667-4.49466 13.83333 11.768-8.54666 11.768 8.54666-4.49467-13.83466 11.76533-8.54534h-14.54666z"/><path d="m227.34901 86.6928-4.49467 13.83333h-14.54666l11.76933 8.548-4.49333 13.832 11.768-8.54666 11.768 8.54666-4.49467-13.83466 11.76533-8.54534h-14.54666z"/><path d="m277.25007 86.6928-4.49467 13.83333h-14.54666l11.76933 8.548-4.49333 13.832 11.76533-8.548 11.76533 8.548-4.49333-13.832 11.76933-8.548h-14.54666z"/><path d="m52.697936 121.79173-4.494667 13.83333h-14.541333l11.765334 8.55067-4.494667 13.83467 11.768-8.55067 11.769333 8.55067-4.496-13.836 11.765333-8.54934h-14.546666z"/><path d="m102.59901 121.79173-4.49467 13.83333h-14.546664l11.770664 8.552-4.494664 13.83334 11.768004-8.55067 11.768 8.55067-4.496-13.836 11.76666-8.54934h-14.54666z"/><path d="m152.50007 121.79173-4.49467 13.83333h-14.54666l11.77066 8.552-4.49466 13.83334 11.76533-8.552 11.76533 8.552-4.49466-13.83334 11.77066-8.552h-14.54666z"/><path d="m202.40114 121.79173-4.49467 13.83333h-14.54533l11.76533 8.54934-4.496 13.836 11.768-8.55067 11.768 8.55067-4.49466-13.83334 11.77066-8.552h-14.54666z"/><path d="m252.30341 121.79173-4.49467 13.83333h-14.548l11.76667 8.548-4.496 13.83734 11.768-8.55067 11.768 8.55067-4.49467-13.83467 11.76534-8.55067h-14.54134z"/><path d="m27.751269 156.89067-4.494667 13.83333h-14.547999l11.770666 8.552-4.494666 13.832 11.765333-8.55066 11.765333 8.55066-4.494667-13.832 11.770667-8.552h-14.546667z"/><path d="m77.651136 156.89067-4.49467 13.83333h-14.54666l11.76666 8.54934-4.496 13.83466 11.768-8.54933 11.76934 8.54933-4.49467-13.832 11.770674-8.552h-14.548004z"/><path d="m127.55207 156.89067-4.49467 13.83333h-14.54666l11.76666 8.54934-4.496 13.83466 11.768-8.55066 11.768 8.55066-4.49466-13.832 11.76533-8.552h-14.54133z"/><path d="m177.44794 156.89067-4.49467 13.83333h-14.54l11.764 8.552-4.49466 13.832 11.768-8.55066 11.768 8.55066-4.496-13.83466 11.76666-8.54934h-14.54666z"/><path d="m227.34901 156.89067-4.49467 13.83333h-14.54666l11.77066 8.552-4.49466 13.832 11.768-8.54933 11.768 8.54933-4.49467-13.83466 11.76533-8.54934h-14.54666z"/><path d="m277.25007 156.89067-4.49467 13.83333h-14.54666l11.77066 8.552-4.49466 13.832 11.76533-8.55066 11.76533 8.55066-4.49466-13.832 11.77066-8.552h-14.54666z"/><path d="m52.697936 191.9896-4.494667 13.83333h-14.541333l11.765334 8.552-4.494667 13.83334 11.768-8.55067 11.769333 8.55067-4.496-13.836 11.765333-8.54934h-14.546666z"/><path d="m102.59901 191.9896-4.49467 13.83333h-14.546664l11.770664 8.55334-4.494664 13.832 11.768004-8.55067 11.768 8.55067-4.496-13.836 11.76666-8.54934h-14.54666z"/><path d="m152.50007 191.9896-4.49467 13.83333h-14.54666l11.77066 8.55334-4.49466 13.832 11.76533-8.552 11.76533 8.552-4.49466-13.832 11.77066-8.55334h-14.54666z"/><path d="m202.40114 191.9896-4.49467 13.83333h-14.54533l11.76533 8.54934-4.496 13.836 11.768-8.55067 11.768 8.55067-4.49466-13.832 11.77066-8.55334h-14.54666z"/><path d="m252.30341 191.9896-4.496 13.83333h-14.54667l11.76534 8.54934-4.49467 13.836 11.768-8.55067 11.768 8.55067-4.49467-13.83334 11.76534-8.552h-14.54134z"/><path d="m27.751269 227.09373-4.496 13.83333h-14.546666l11.769333 8.548-4.493333 13.832 11.765333-8.548 11.765333 8.548-4.493334-13.832 11.769334-8.548h-14.545333z"/><path d="m77.651136 227.09373-4.496 13.83333h-14.54533l11.76533 8.54534-4.49467 13.83466 11.768-8.54666 11.76934 8.54666-4.49467-13.832 11.770674-8.548h-14.546674z"/><path d="m127.55207 227.09373-4.496 13.83333h-14.54533l11.76533 8.54534-4.49467 13.83466 11.768-8.54666 11.768 8.54666-4.49466-13.832 11.76533-8.548h-14.54z"/><path d="m177.44794 227.09373-4.496 13.83333h-14.53867l11.764 8.548-4.49466 13.832 11.768-8.54666 11.768 8.54666-4.49467-13.83466 11.76533-8.54534h-14.54533z"/><path d="m227.34901 227.09373-4.496 13.83333h-14.54533l11.76933 8.548-4.49333 13.832 11.768-8.54666 11.768 8.54666-4.49467-13.83466 11.76533-8.54534h-14.54533z"/><path d="m277.25007 227.09373-4.496 13.83333h-14.54533l11.76933 8.548-4.49333 13.832 11.76533-8.548 11.76533 8.548-4.49333-13.832 11.76933-8.548h-14.54533z"/><path d="m57.192736 276.02613-4.494667-13.83333-4.494666 13.83333h-14.541333l11.765333 8.54667-4.494667 13.83333 11.768-8.54667 11.769333 8.54667-4.496-13.836 11.765333-8.544z"/><path d="m107.09381 276.02613-4.49467-13.83333-4.49466 13.83333h-14.546674l11.770674 8.548-4.494674 13.832 11.768004-8.54667 11.768 8.54667-4.496-13.83467 11.76667-8.54533z"/><path d="m156.99487 276.02613-4.49467-13.83333-4.49466 13.83333h-14.54667l11.77067 8.548-4.49467 13.832 11.76533-8.548 11.76534 8.548-4.49467-13.832 11.77067-8.548z"/><path d="m206.89581 276.02613-4.49467-13.83333-4.49466 13.83333h-14.54534l11.76534 8.54533-4.496 13.83467 11.768-8.54667 11.768 8.54667-4.49334-13.832 11.76934-8.548z"/><path d="m256.79687 276.02613-4.49333-13.83333-4.49467 13.83333h-14.548l11.76533 8.544-4.49466 13.836 11.768-8.54667 11.768 8.54667-4.49467-13.83333 11.76533-8.54667z"/><path d="m32.244736 311.12453-4.493334-13.83333-4.494666 13.83333h-14.548l11.770667 8.552-4.494667 13.83333 11.765333-8.552 11.765333 8.552-4.494667-13.83333 11.770667-8.552z"/><path d="m82.145806 311.12507-4.49467-13.83333-4.49466 13.83333h-14.54667l11.76667 8.54933-4.496 13.836 11.768-8.55066 11.76933 8.55066-4.49467-13.83333 11.770674-8.552z"/><path d="m132.04687 311.12507-4.49467-13.83333-4.49466 13.83333h-14.54667l11.76667 8.54933-4.496 13.836 11.768-8.55066 11.768 8.55066-4.49467-13.83333 11.76533-8.552z"/><path d="m181.94274 311.12507-4.49467-13.83333-4.49466 13.83333h-14.54l11.76533 8.552-4.496 13.83333 11.768-8.55066 11.768 8.55066-4.496-13.836 11.76667-8.54933z"/><path d="m231.84381 311.12507-4.49467-13.83333-4.49466 13.83333h-14.54667l11.77067 8.552-4.49467 13.83333 11.768-8.55066 11.768 8.55066-4.496-13.836 11.76667-8.54933z"/><path d="m281.74474 311.12453-4.49467-13.83333-4.49467 13.83333h-14.54666l11.77066 8.552-4.49466 13.83333 11.76533-8.552 11.76533 8.552-4.49466-13.83333 11.77066-8.552z"/></g></svg>