<?xml version="1.0" encoding="UTF-8" standalone="no"?>
<svg
   height="650"
   viewBox="0 0 650 650"
   width="650"
   version="1.1"
   id="svg34"
   sodipodi:docname="square-small.svg"
   inkscape:version="1.4 (e7c3feb1, 2024-10-09)"
   xmlns:inkscape="http://www.inkscape.org/namespaces/inkscape"
   xmlns:sodipodi="http://sodipodi.sourceforge.net/DTD/sodipodi-0.dtd"
   xmlns="http://www.w3.org/2000/svg"
   xmlns:svg="http://www.w3.org/2000/svg">
  <defs
     id="defs34" />
  <sodipodi:namedview
     id="namedview34"
     pagecolor="#ffffff"
     bordercolor="#000000"
     borderopacity="0.25"
     inkscape:showpageshadow="2"
     inkscape:pageopacity="0.0"
     inkscape:pagecheckerboard="0"
     inkscape:deskcolor="#d1d1d1"
     inkscape:current-layer="svg34" />
  <path
     d="m0 650h650v-649.99998375h-650z"
     fill="#fff"
     stroke-width="1.08915"
     id="path1" />
  <g
     fill="#b22234"
     transform="matrix(.88969433 0 0 -1.3333333 0 650.00001)"
     id="g8">
    <path
       d="m0 450h730.588v37.5h-730.588z"
       id="path2" />
    <path
       d="m0 375h730.588v37.499h-730.588z"
       id="path3" />
    <path
       d="m0 300h730.588v37.5h-730.588z"
       id="path4" />
    <path
       d="m0 225h730.588v37.5h-730.588z"
       id="path5" />
    <path
       d="m0 150h730.588v37.499h-730.588z"
       id="path6" />
    <path
       d="m0 75h730.588v37.5h-730.588z"
       id="path7" />
    <path
       d="m0 0h730.588v37.5h-730.588z"
       id="path8" />
  </g>
  <path
     d="m0 350.00001h325v-349.99999375h-325z"
     fill="#3c3b6e"
     stroke-width="1.08866"
     id="path9" />
  <path
     d="M 67.751267,46.489613 63.255268,60.322946 H 48.708601 l 11.770667,8.552 -4.494666,13.833333 11.765333,-8.552 11.765333,8.552 -4.494668,-13.833333 11.770668,-8.552 H 72.244601 Z"
     id="path10"
     style="fill:#ffffff;stroke-width:1.33333" />
  <path
     d="m 115.12756,46.489613 -4.49467,13.833333 H 96.086234 l 11.766656,8.549333 -4.49599,13.836 11.76799,-8.550667 11.76934,8.550667 -4.49467,-13.833333 11.77068,-8.552 h -14.54801 z"
     id="path11"
     style="fill:#ffffff;stroke-width:1.33333" />
  <path
     d="m 162.50654,46.489613 -4.49467,13.833333 h -14.54666 l 11.76666,8.549333 -4.496,13.836 11.768,-8.550667 11.768,8.550667 -4.49466,-13.833333 11.76533,-8.552 h -14.54133 z"
     id="path12"
     style="fill:#ffffff;stroke-width:1.33333" />
  <path
     d="m 209.87217,46.489613 -4.49467,13.833333 h -14.54 l 11.764,8.552 -4.49466,13.833333 11.768,-8.550667 11.768,8.550667 -4.496,-13.836 11.76666,-8.549333 h -14.54666 z"
     id="path13"
     style="fill:#ffffff;stroke-width:1.33333" />
  <path
     d="m 249.97914,68.87508 -4.49467,13.833333 11.76534,-8.552 11.76533,8.552 -4.49467,-13.833333 11.77067,-8.552 h -14.54667 l -4.49466,-13.833333 -4.49467,13.833333 h -14.54667 z"
     id="path14"
     style="fill:#ffffff;stroke-width:1.33333" />
  <path
     d="m 67.751267,101.69302 -4.494666,13.83332 h -14.548 l 11.769333,8.548 -4.493333,13.832 11.765333,-8.548 11.765333,8.548 -4.493333,-13.832 11.769334,-8.548 H 72.244601 Z"
     id="path15"
     style="fill:#ffffff;stroke-width:1.33333" />
  <path
     d="m 115.12763,101.69315 -4.49467,13.83333 H 96.086301 l 11.765329,8.54534 -4.49467,13.83466 11.768,-8.54666 11.76934,8.54666 -4.49467,-13.832 11.77068,-8.548 H 119.6223 Z"
     id="path16"
     style="fill:#ffffff;stroke-width:1.33333" />
  <path
     d="m 162.50667,101.69315 -4.49467,13.83333 h -14.54666 l 11.76533,8.54534 -4.49467,13.83466 11.768,-8.54666 11.768,8.54666 -4.49466,-13.832 11.76533,-8.548 h -14.54133 z"
     id="path17"
     style="fill:#ffffff;stroke-width:1.33333" />
  <path
     d="m 209.87238,101.69315 -4.49467,13.83333 h -14.54 l 11.764,8.54667 -4.49466,13.83333 11.768,-8.54666 11.768,8.54666 -4.49467,-13.83466 11.76533,-8.54534 h -14.54666 z"
     id="path18"
     style="fill:#ffffff;stroke-width:1.33333" />
  <path
     d="m 257.25007,101.69312 -4.49467,13.83332 h -14.54666 l 11.76933,8.548 -4.49333,13.832 11.76533,-8.548 11.76533,8.548 -4.49333,-13.832 11.76933,-8.548 h -14.54666 z"
     id="path19"
     style="fill:#ffffff;stroke-width:1.33333" />
  <path
     d="m 67.751267,156.89108 -4.494666,13.83333 h -14.548 l 11.770667,8.552 -4.494666,13.832 11.765333,-8.55066 11.765333,8.55066 -4.494668,-13.832 11.770668,-8.552 H 72.244601 Z"
     id="path20"
     style="fill:#ffffff;stroke-width:1.33333" />
  <path
     d="m 115.12763,156.89135 -4.49467,13.83333 H 96.086301 l 11.766659,8.54934 -4.496,13.83466 11.768,-8.54933 11.76934,8.54933 -4.49467,-13.832 11.77068,-8.552 H 119.6223 Z"
     id="path21"
     style="fill:#ffffff;stroke-width:1.33333" />
  <path
     d="m 162.50667,156.89135 -4.49467,13.83333 h -14.54666 l 11.76666,8.54934 -4.496,13.83466 11.768,-8.55066 11.768,8.55066 -4.49466,-13.832 11.76533,-8.552 h -14.54133 z"
     id="path22"
     style="fill:#ffffff;stroke-width:1.33333" />
  <path
     d="m 209.87238,156.89135 -4.49467,13.83333 h -14.54 l 11.764,8.552 -4.49466,13.832 11.768,-8.55066 11.768,8.55066 -4.496,-13.83466 11.76666,-8.54934 h -14.54666 z"
     id="path23"
     style="fill:#ffffff;stroke-width:1.33333" />
  <path
     d="m 257.25007,156.89114 -4.49467,13.83333 h -14.54666 l 11.77066,8.552 -4.49466,13.832 11.76533,-8.55066 11.76533,8.55066 -4.49466,-13.832 11.77066,-8.552 h -14.54666 z"
     id="path24"
     style="fill:#ffffff;stroke-width:1.33333" />
  <path
     d="m 67.751267,212.09314 -4.495999,13.83333 H 48.708601 l 11.769333,8.548 -4.493333,13.832 11.765333,-8.548 11.765333,8.548 -4.493333,-13.832 11.769334,-8.548 H 72.245935 Z"
     id="path25"
     style="fill:#ffffff;stroke-width:1.33333" />
  <path
     d="m 115.12763,212.09355 -4.496,13.83333 H 96.086302 l 11.765328,8.54534 -4.49467,13.83466 11.768,-8.54666 11.76934,8.54666 -4.49467,-13.832 11.77068,-8.548 h -14.54668 z"
     id="path26"
     style="fill:#ffffff;stroke-width:1.33333" />
  <path
     d="m 162.50667,212.09355 -4.496,13.83333 h -14.54533 l 11.76533,8.54534 -4.49467,13.83466 11.768,-8.54666 11.768,8.54666 -4.49466,-13.832 11.76533,-8.548 h -14.54 z"
     id="path27"
     style="fill:#ffffff;stroke-width:1.33333" />
  <path
     d="m 209.87238,212.09355 -4.496,13.83333 h -14.53867 l 11.764,8.548 -4.49466,13.832 11.768,-8.54666 11.768,8.54666 -4.49467,-13.83466 11.76533,-8.54534 h -14.54533 z"
     id="path28"
     style="fill:#ffffff;stroke-width:1.33333" />
  <path
     d="m 257.25007,212.09318 -4.496,13.83333 h -14.54533 l 11.76933,8.548 -4.49333,13.832 11.76533,-8.548 11.76533,8.548 -4.49333,-13.832 11.76933,-8.548 h -14.54533 z"
     id="path29"
     style="fill:#ffffff;stroke-width:1.33333" />
  <path
     d="m 72.244735,281.12454 -4.493334,-13.83333 -4.494666,13.83333 h -14.548 l 11.770667,8.552 -4.494667,13.83333 11.765332,-8.552 11.765333,8.552 -4.494666,-13.83333 11.770667,-8.552 z"
     id="path30"
     style="fill:#ffffff;stroke-width:1.33333" />
  <path
     d="m 119.6224,281.12508 -4.49467,-13.83333 -4.49465,13.83333 H 96.086404 l 11.766666,8.54933 -4.49599,13.836 11.76799,-8.55066 11.76933,8.55066 -4.49467,-13.83333 11.77067,-8.552 z"
     id="path31"
     style="fill:#ffffff;stroke-width:1.33333" />
  <path
     d="m 167.0014,281.12508 -4.49467,-13.83333 -4.49466,13.83333 H 143.4654 l 11.76667,8.54933 -4.496,13.836 11.768,-8.55066 11.768,8.55066 -4.49467,-13.83333 11.76533,-8.552 z"
     id="path32"
     style="fill:#ffffff;stroke-width:1.33333" />
  <path
     d="m 214.36707,281.12508 -4.49467,-13.83333 -4.49466,13.83333 h -14.54 l 11.76533,8.552 -4.496,13.83333 11.768,-8.55066 11.768,8.55066 -4.496,-13.836 11.76667,-8.54933 z"
     id="path33"
     style="fill:#ffffff;stroke-width:1.33333" />
  <path
     d="m 261.74474,281.12454 -4.49467,-13.83333 -4.49467,13.83333 h -14.54666 l 11.77066,8.552 -4.49466,13.83333 11.76533,-8.552 11.76533,8.552 -4.49466,-13.83333 11.77066,-8.552 z"
     id="path34"
     style="fill:#ffffff;stroke-width:1.33333" />
</svg>
