<?xml version="1.0" encoding="UTF-8" standalone="no"?>
<svg
   height="650"
   viewBox="0 0 650 650"
   width="650"
   version="1.1"
   id="svg124"
   sodipodi:docname="square.svg"
   inkscape:version="1.2.2 (732a01da63, 2022-12-09)"
   xmlns:inkscape="http://www.inkscape.org/namespaces/inkscape"
   xmlns:sodipodi="http://sodipodi.sourceforge.net/DTD/sodipodi-0.dtd"
   xmlns="http://www.w3.org/2000/svg"
   xmlns:svg="http://www.w3.org/2000/svg">
  <defs
     id="defs128" />
  <sodipodi:namedview
     id="namedview126"
     pagecolor="#505050"
     bordercolor="#eeeeee"
     borderopacity="1"
     inkscape:showpageshadow="0"
     inkscape:pageopacity="0"
     inkscape:pagecheckerboard="0"
     inkscape:deskcolor="#505050"
     showgrid="false"
     inkscape:zoom="1.5815385"
     inkscape:cx="213.71595"
     inkscape:cy="325"
     inkscape:window-width="2560"
     inkscape:window-height="1377"
     inkscape:window-x="1912"
     inkscape:window-y="-8"
     inkscape:window-maximized="1"
     inkscape:current-layer="svg124" />
  <path
     d="m0 650h650v-649.99998375h-650z"
     fill="#fff"
     stroke-width="1.08915"
     id="path2" />
  <g
     fill="#b22234"
     transform="matrix(.88969433 0 0 -1.3333333 0 650.00001)"
     id="g18"
     style="fill:#b31942;fill-opacity:1">
    <path
       d="m0 450h730.588v37.5h-730.588z"
       id="path4"
       style="fill:#b31942;fill-opacity:1" />
    <path
       d="m0 375h730.588v37.499h-730.588z"
       id="path6"
       style="fill:#b31942;fill-opacity:1" />
    <path
       d="m0 300h730.588v37.5h-730.588z"
       id="path8"
       style="fill:#b31942;fill-opacity:1" />
    <path
       d="m0 225h730.588v37.5h-730.588z"
       id="path10"
       style="fill:#b31942;fill-opacity:1" />
    <path
       d="m0 150h730.588v37.499h-730.588z"
       id="path12"
       style="fill:#b31942;fill-opacity:1" />
    <path
       d="m0 75h730.588v37.5h-730.588z"
       id="path14"
       style="fill:#b31942;fill-opacity:1" />
    <path
       d="m0 0h730.588v37.5h-730.588z"
       id="path16"
       style="fill:#b31942;fill-opacity:1" />
  </g>
  <path
     d="m0 350.00001h325v-349.99999375h-325z"
     fill="#3c3b6e"
     stroke-width="1.08866"
     id="path20"
     style="fill:#0a3161;fill-opacity:1" />
  <g
     fill="#fff"
     stroke-width="1.33333"
     transform="translate(9.999999 .000013)"
     id="g122">
    <path
       d="m27.751269 16.4896-4.496 13.833333h-14.546666l11.770666 8.552-4.494666 13.833333 11.765333-8.552 11.765333 8.552-4.494667-13.833333 11.770667-8.552h-14.546667z"
       id="path22" />
    <path
       d="m77.651136 16.4896-4.49467 13.833333h-14.54666l11.76666 8.549333-4.496 13.836 11.768-8.550667 11.76934 8.550667-4.49467-13.833333 11.770674-8.552h-14.548004z"
       id="path24" />
    <path
       d="m127.55207 16.4896-4.49467 13.833333h-14.54666l11.76666 8.549333-4.496 13.836 11.768-8.550667 11.768 8.550667-4.49466-13.833333 11.76533-8.552h-14.54133z"
       id="path26" />
    <path
       d="m177.44794 16.4896-4.49467 13.833333h-14.54l11.764 8.552-4.49466 13.833333 11.768-8.550667 11.768 8.550667-4.496-13.836 11.76666-8.549333h-14.54666z"
       id="path28" />
    <path
       d="m227.34901 16.4896-4.49467 13.833333h-14.54666l11.77066 8.552-4.49466 13.833333 11.768-8.550667 11.768 8.550667-4.49467-13.836 11.76533-8.549333h-14.54533z"
       id="path30" />
    <path
       d="m269.97914 38.875067-4.49467 13.833333 11.76534-8.552 11.76533 8.552-4.49467-13.833333 11.77067-8.552h-14.54667l-4.49466-13.833333-4.49467 13.833333h-14.54667z"
       id="path32" />
    <path
       d="m52.697936 51.593733-4.496 13.833333h-14.54l11.765334 8.546666-4.494667 13.833333 11.768-8.546666 11.769333 8.546666-4.496-13.834666 11.765333-8.545333h-14.545333z"
       id="path34" />
    <path
       d="m102.59901 51.593733-4.496 13.833333h-14.545334l11.770664 8.549333-4.494664 13.830666 11.768004-8.546666 11.768 8.546666-4.49467-13.834666 11.76533-8.545333h-14.54533z"
       id="path36" />
    <path
       d="m152.50007 51.593733-4.496 13.833333h-14.54533l11.77066 8.549333-4.49466 13.830666 11.76533-8.547999 11.76533 8.547999-4.49466-13.830666 11.77066-8.549333h-14.54533z"
       id="path38" />
    <path
       d="m202.40114 51.593733-4.496 13.833333h-14.544l11.76533 8.545333-4.496 13.834666 11.768-8.546666 11.768 8.546666-4.49333-13.830666 11.76933-8.549333h-14.54533z"
       id="path40" />
    <path
       d="m252.30341 51.593733-4.49733 13.833333h-14.54534l11.76534 8.545333-4.49467 13.834666 11.768-8.546666 11.768 8.546666-4.49467-13.833333 11.76534-8.546666h-14.54z"
       id="path42" />
    <path
       d="m27.751269 86.6928-4.494667 13.83333h-14.547999l11.769333 8.548-4.493333 13.832 11.765333-8.548 11.765333 8.548-4.493334-13.832 11.769334-8.548h-14.546667z"
       id="path44" />
    <path
       d="m77.651136 86.6928-4.49467 13.83333h-14.54666l11.76533 8.54534-4.49467 13.83466 11.768-8.54666 11.76934 8.54666-4.49467-13.832 11.770674-8.548h-14.548004z"
       id="path46" />
    <path
       d="m127.55207 86.6928-4.49467 13.83333h-14.54666l11.76533 8.54534-4.49467 13.83466 11.768-8.54666 11.768 8.54666-4.49466-13.832 11.76533-8.548h-14.54133z"
       id="path48" />
    <path
       d="m177.44794 86.6928-4.49467 13.83333h-14.54l11.764 8.54667-4.49466 13.83333 11.768-8.54666 11.768 8.54666-4.49467-13.83466 11.76533-8.54534h-14.54666z"
       id="path50" />
    <path
       d="m227.34901 86.6928-4.49467 13.83333h-14.54666l11.76933 8.548-4.49333 13.832 11.768-8.54666 11.768 8.54666-4.49467-13.83466 11.76533-8.54534h-14.54666z"
       id="path52" />
    <path
       d="m277.25007 86.6928-4.49467 13.83333h-14.54666l11.76933 8.548-4.49333 13.832 11.76533-8.548 11.76533 8.548-4.49333-13.832 11.76933-8.548h-14.54666z"
       id="path54" />
    <path
       d="m52.697936 121.79173-4.494667 13.83333h-14.541333l11.765334 8.55067-4.494667 13.83467 11.768-8.55067 11.769333 8.55067-4.496-13.836 11.765333-8.54934h-14.546666z"
       id="path56" />
    <path
       d="m102.59901 121.79173-4.49467 13.83333h-14.546664l11.770664 8.552-4.494664 13.83334 11.768004-8.55067 11.768 8.55067-4.496-13.836 11.76666-8.54934h-14.54666z"
       id="path58" />
    <path
       d="m152.50007 121.79173-4.49467 13.83333h-14.54666l11.77066 8.552-4.49466 13.83334 11.76533-8.552 11.76533 8.552-4.49466-13.83334 11.77066-8.552h-14.54666z"
       id="path60" />
    <path
       d="m202.40114 121.79173-4.49467 13.83333h-14.54533l11.76533 8.54934-4.496 13.836 11.768-8.55067 11.768 8.55067-4.49466-13.83334 11.77066-8.552h-14.54666z"
       id="path62" />
    <path
       d="m252.30341 121.79173-4.49467 13.83333h-14.548l11.76667 8.548-4.496 13.83734 11.768-8.55067 11.768 8.55067-4.49467-13.83467 11.76534-8.55067h-14.54134z"
       id="path64" />
    <path
       d="m27.751269 156.89067-4.494667 13.83333h-14.547999l11.770666 8.552-4.494666 13.832 11.765333-8.55066 11.765333 8.55066-4.494667-13.832 11.770667-8.552h-14.546667z"
       id="path66" />
    <path
       d="m77.651136 156.89067-4.49467 13.83333h-14.54666l11.76666 8.54934-4.496 13.83466 11.768-8.54933 11.76934 8.54933-4.49467-13.832 11.770674-8.552h-14.548004z"
       id="path68" />
    <path
       d="m127.55207 156.89067-4.49467 13.83333h-14.54666l11.76666 8.54934-4.496 13.83466 11.768-8.55066 11.768 8.55066-4.49466-13.832 11.76533-8.552h-14.54133z"
       id="path70" />
    <path
       d="m177.44794 156.89067-4.49467 13.83333h-14.54l11.764 8.552-4.49466 13.832 11.768-8.55066 11.768 8.55066-4.496-13.83466 11.76666-8.54934h-14.54666z"
       id="path72" />
    <path
       d="m227.34901 156.89067-4.49467 13.83333h-14.54666l11.77066 8.552-4.49466 13.832 11.768-8.54933 11.768 8.54933-4.49467-13.83466 11.76533-8.54934h-14.54666z"
       id="path74" />
    <path
       d="m277.25007 156.89067-4.49467 13.83333h-14.54666l11.77066 8.552-4.49466 13.832 11.76533-8.55066 11.76533 8.55066-4.49466-13.832 11.77066-8.552h-14.54666z"
       id="path76" />
    <path
       d="m52.697936 191.9896-4.494667 13.83333h-14.541333l11.765334 8.552-4.494667 13.83334 11.768-8.55067 11.769333 8.55067-4.496-13.836 11.765333-8.54934h-14.546666z"
       id="path78" />
    <path
       d="m102.59901 191.9896-4.49467 13.83333h-14.546664l11.770664 8.55334-4.494664 13.832 11.768004-8.55067 11.768 8.55067-4.496-13.836 11.76666-8.54934h-14.54666z"
       id="path80" />
    <path
       d="m152.50007 191.9896-4.49467 13.83333h-14.54666l11.77066 8.55334-4.49466 13.832 11.76533-8.552 11.76533 8.552-4.49466-13.832 11.77066-8.55334h-14.54666z"
       id="path82" />
    <path
       d="m202.40114 191.9896-4.49467 13.83333h-14.54533l11.76533 8.54934-4.496 13.836 11.768-8.55067 11.768 8.55067-4.49466-13.832 11.77066-8.55334h-14.54666z"
       id="path84" />
    <path
       d="m252.30341 191.9896-4.496 13.83333h-14.54667l11.76534 8.54934-4.49467 13.836 11.768-8.55067 11.768 8.55067-4.49467-13.83334 11.76534-8.552h-14.54134z"
       id="path86" />
    <path
       d="m27.751269 227.09373-4.496 13.83333h-14.546666l11.769333 8.548-4.493333 13.832 11.765333-8.548 11.765333 8.548-4.493334-13.832 11.769334-8.548h-14.545333z"
       id="path88" />
    <path
       d="m77.651136 227.09373-4.496 13.83333h-14.54533l11.76533 8.54534-4.49467 13.83466 11.768-8.54666 11.76934 8.54666-4.49467-13.832 11.770674-8.548h-14.546674z"
       id="path90" />
    <path
       d="m127.55207 227.09373-4.496 13.83333h-14.54533l11.76533 8.54534-4.49467 13.83466 11.768-8.54666 11.768 8.54666-4.49466-13.832 11.76533-8.548h-14.54z"
       id="path92" />
    <path
       d="m177.44794 227.09373-4.496 13.83333h-14.53867l11.764 8.548-4.49466 13.832 11.768-8.54666 11.768 8.54666-4.49467-13.83466 11.76533-8.54534h-14.54533z"
       id="path94" />
    <path
       d="m227.34901 227.09373-4.496 13.83333h-14.54533l11.76933 8.548-4.49333 13.832 11.768-8.54666 11.768 8.54666-4.49467-13.83466 11.76533-8.54534h-14.54533z"
       id="path96" />
    <path
       d="m277.25007 227.09373-4.496 13.83333h-14.54533l11.76933 8.548-4.49333 13.832 11.76533-8.548 11.76533 8.548-4.49333-13.832 11.76933-8.548h-14.54533z"
       id="path98" />
    <path
       d="m57.192736 276.02613-4.494667-13.83333-4.494666 13.83333h-14.541333l11.765333 8.54667-4.494667 13.83333 11.768-8.54667 11.769333 8.54667-4.496-13.836 11.765333-8.544z"
       id="path100" />
    <path
       d="m107.09381 276.02613-4.49467-13.83333-4.49466 13.83333h-14.546674l11.770674 8.548-4.494674 13.832 11.768004-8.54667 11.768 8.54667-4.496-13.83467 11.76667-8.54533z"
       id="path102" />
    <path
       d="m156.99487 276.02613-4.49467-13.83333-4.49466 13.83333h-14.54667l11.77067 8.548-4.49467 13.832 11.76533-8.548 11.76534 8.548-4.49467-13.832 11.77067-8.548z"
       id="path104" />
    <path
       d="m206.89581 276.02613-4.49467-13.83333-4.49466 13.83333h-14.54534l11.76534 8.54533-4.496 13.83467 11.768-8.54667 11.768 8.54667-4.49334-13.832 11.76934-8.548z"
       id="path106" />
    <path
       d="m256.79687 276.02613-4.49333-13.83333-4.49467 13.83333h-14.548l11.76533 8.544-4.49466 13.836 11.768-8.54667 11.768 8.54667-4.49467-13.83333 11.76533-8.54667z"
       id="path108" />
    <path
       d="m32.244736 311.12453-4.493334-13.83333-4.494666 13.83333h-14.548l11.770667 8.552-4.494667 13.83333 11.765333-8.552 11.765333 8.552-4.494667-13.83333 11.770667-8.552z"
       id="path110" />
    <path
       d="m82.145806 311.12507-4.49467-13.83333-4.49466 13.83333h-14.54667l11.76667 8.54933-4.496 13.836 11.768-8.55066 11.76933 8.55066-4.49467-13.83333 11.770674-8.552z"
       id="path112" />
    <path
       d="m132.04687 311.12507-4.49467-13.83333-4.49466 13.83333h-14.54667l11.76667 8.54933-4.496 13.836 11.768-8.55066 11.768 8.55066-4.49467-13.83333 11.76533-8.552z"
       id="path114" />
    <path
       d="m181.94274 311.12507-4.49467-13.83333-4.49466 13.83333h-14.54l11.76533 8.552-4.496 13.83333 11.768-8.55066 11.768 8.55066-4.496-13.836 11.76667-8.54933z"
       id="path116" />
    <path
       d="m231.84381 311.12507-4.49467-13.83333-4.49466 13.83333h-14.54667l11.77067 8.552-4.49467 13.83333 11.768-8.55066 11.768 8.55066-4.496-13.836 11.76667-8.54933z"
       id="path118" />
    <path
       d="m281.74474 311.12453-4.49467-13.83333-4.49467 13.83333h-14.54666l11.77066 8.552-4.49466 13.83333 11.76533-8.552 11.76533 8.552-4.49466-13.83333 11.77066-8.552z"
       id="path120" />
  </g>
</svg>
