<svg height="600" viewBox="0 0 600 600" width="600" xmlns="http://www.w3.org/2000/svg"><path d="m0 600h600v-599.999985h-600z" fill="#c8313e" stroke-width="1.08947"/><path d="m0 600h600v-200h-600z" fill="#4aa657" stroke-width="1.08947"/><path d="m0 600h133.33333v-599.999985h-133.33333z" fill="#fff" stroke-width="1.33333"/><g fill="#c8313e"><path d="m47.826 435.246h2.608v14.754h-2.608zm-30.435 14.754v-7.377h-4.347v-7.377h-4.348v-7.377h-4.348v-7.377h-4.348v-7.378h4.348v-7.376h4.348v-7.377h4.348v-7.378h4.347v-7.377h4.349v-7.376h4.347v7.376h4.347v7.377h4.348v7.378h4.348v7.377h4.348v7.376h4.348v7.378h-4.348v7.377h-4.348v7.377h-4.348v7.377h-4.348v7.377zm-17.391-14.754h4.348v7.376h-4.348zm47.826-51.64h2.608v14.755h-2.608zm-47.826 7.377h4.348v7.377h-4.348zm34.782-7.377v-7.376h-4.348v-7.378h-4.347v-7.376h4.347v-7.378h4.348v-7.377h4.348v7.377h4.348v7.378h4.348v7.376h-4.348v7.378h-4.348v7.376zm-26.086 0v-7.376h-4.348v-7.378h-4.348v-7.376h4.348v-7.378h4.348v-7.377h4.348v7.377h4.347v7.378h4.349v7.376h-4.349v7.378h-4.347v7.376zm39.13-51.638h2.608v14.754h-2.608zm-47.826 0h4.348v7.376h-4.348z" transform="matrix(1.3333333 0 0 -1.3333333 0 600)"/><path d="m0 0v-7.376h-4.349v-7.378h-4.347v-7.376h-4.348v-7.377h-4.348v-7.378h-4.348v-14.753h4.348v-7.378h4.348v-7.377h4.348v-7.377h4.347v7.377h4.349v7.377h4.347v7.378h-8.696v7.376h13.044v-7.376h4.348v-7.378h4.348v-7.377h-4.348v-7.377h-4.348v-7.377h-4.348v-7.377h-4.347v-7.377h-4.349v-7.377h-4.347v7.377h-4.348v7.377h-4.348v7.377h-4.348v-22.131h4.348v-7.377h4.348v-7.377h4.348v-7.378h4.347v-4.426h8.696v19.181h4.348v7.377h4.348v7.377h4.348v7.377h4.348v7.377h4.348v7.377h2.608v29.508h-2.608v7.377h-4.348v7.378h-4.348v7.377h-4.348v7.376h-4.348v7.378h-4.348v7.376zm-21.74-73.77h4.348v7.377h-4.348zm47.827-22.131h2.608v7.377h-2.608zm-8.696-7.377v-14.754h4.348v-7.378h4.348v-4.426h2.608v11.804h-2.608v7.377h-4.348v7.377zm-8.696-26.558h4.348v4.426h-4.348z" transform="matrix(1.3333333 0 0 -1.3333333 28.986 127.8696)"/><path d="m0 0v-7.377h-4.348v-7.377h-4.348v-7.377h-4.348v-7.377h-4.348v-7.378h4.348v-7.376h4.348v-7.377h4.348v-7.378h4.348v-7.377h4.348v-7.376h4.347v7.376h4.349v7.377h4.347v7.378h4.348v7.377h4.348v7.376h4.347v7.378h-4.347v7.377h-4.348v7.377h-4.348v7.377h-4.347v7.377zm-20-14.754h2.608v14.754h-2.608zm46.087 0h4.348v7.376h-4.348zm0-44.263h4.348v7.377h-4.348zm-46.087-7.377h2.608v14.755h-2.608zm37.391 0v-7.376h-4.347v-7.378h-4.349v-7.376h4.349v-7.378h4.347v-7.377h4.348v7.377h4.348v7.378h4.347v7.376h-4.347v7.378h-4.348v7.376zm-26.087 0v-7.376h-4.348v-7.378h-4.348v-7.376h4.348v-7.378h4.348v-7.377h4.348v7.377h4.348v7.378h4.348v7.376h-4.348v7.378h-4.348v7.376zm-11.304-51.638h2.608v14.754h-2.608zm46.087 0h4.348v7.376h-4.348z" transform="matrix(1.3333333 0 0 -1.3333333 92.754 0)"/><path d="m69.565 228.688h-4.348v-4.426h4.348zm-8.695 22.132h-4.348v-7.377h-4.348v-7.378h-2.609v-11.803h2.609v4.426h4.348v7.377h4.348zm-8.696 14.754h-2.608v-7.377h2.608zm47.826 22.131h-4.348v-7.377h4.348zm0 29.508h-4.348v7.377h-4.348v7.377h-4.347v7.377h-4.348v7.377h-4.348v7.377h-4.348v-7.377h-4.348v-7.377h-4.348v-7.377h-4.347v-7.377h-4.348v-7.377h-4.348v-7.377h-2.609v-29.508h2.609v-7.377h4.348v-7.377h4.348v-7.377h4.347v-7.377h4.348v-7.377h4.348v-19.181h8.696v4.426h4.348v7.377h4.347v7.378h4.348v7.377h4.348v22.131h-4.348v-7.377h-4.348v-7.377h-4.347v-7.377h-4.348v7.377h-4.348v7.377h-4.348v7.377h-4.348v7.377h-4.348v7.377h-4.347v7.377h4.347v7.377h4.348v7.377h13.044v-7.377h-8.696v-7.377h4.348v-7.377h4.348v-7.377h4.348v7.377h4.347v7.377h4.348v7.377h4.348z" transform="matrix(1.3333333 0 0 -1.3333333 0 600)"/><path d="m47.826 103.279h2.608v14.755h-2.608zm-47.826 7.376h4.348v7.378h-4.348zm34.782-7.376v-7.378h-4.348v-7.377h-4.347v-7.376h4.347v-7.378h4.348v-7.376h4.348v7.376h4.348v7.378h4.348v7.376h-4.348v7.377h-4.348v7.378zm-26.086 0v-7.378h-4.348v-7.377h-4.348v-7.376h4.348v-7.378h4.348v-7.376h4.348v7.376h4.347v7.378h4.349v7.376h-4.349v7.377h-4.347v7.378zm13.044-29.509v-7.376h-4.349v-7.377h-4.347v-7.378h-4.348v-7.376h-4.348v-7.377h-4.348v-7.379h4.348v-7.376h4.348v-7.377h4.348v-7.377h4.347v-7.377h13.043v7.377h4.348v7.377h4.348v7.377h4.348v7.376h4.348v7.379h-4.348v7.377h-4.348v7.376h-4.348v7.378h-4.348v7.377h-4.347v7.376zm26.086-22.131h2.608v14.755h-2.608zm-47.826 0h4.348v7.377h-4.348zm47.826-51.639h2.608v14.754h-2.608zm-47.826 7.377h4.348v7.376h-4.348z" transform="matrix(1.3333333 0 0 -1.3333333 0 600)"/><path d="m0 0v-4.426h-4.348v-7.377h-4.348v-14.754h4.348v7.376h4.348v7.378h2.608v11.803zm-17.392-4.426h4.348v4.426h-4.348zm-13.043 4.426v-4.426h-4.347v-7.377h-4.348v-7.378h-4.348v-7.376h-4.348v-22.132h4.348v7.377h4.348v7.378h4.348v7.377h4.347v-7.377h4.348v-7.378h4.347v-7.377h4.348v-7.377h4.348v-7.377h4.348v-7.377h-4.348v-7.377h-4.348v-7.377h-13.043v7.377h8.695v7.377h-4.347v7.377h-4.348v7.377h-4.347v-7.377h-4.348v-7.377h-4.348v-7.377h-4.348v-14.754h4.348v-7.376h4.348v-7.378h4.348v-7.378h4.347v-7.376h4.348v-7.378h4.347v7.378h4.348v7.376h4.348v7.378h4.348v7.378h4.348v7.376h4.348v7.377h2.608v29.508h-2.608v7.377h-4.348v7.377h-4.348v7.378h-4.348v7.377h-4.348v7.376h-4.348v19.181zm30.435-41.312h2.608v7.377h-2.608zm-47.826-22.131h4.348v7.376h-4.348z" transform="matrix(1.3333333 0 0 -1.3333333 63.768 299.016)"/><g transform="matrix(1.3333333 0 0 -1.3333333 0 600)"><path d="m95.652 110.655h4.348v7.378h-4.348zm-46.086-7.376h2.608v14.755h-2.608zm37.39 0v-7.378h-4.347v-7.377h-4.349v-7.376h4.349v-7.378h4.347v-7.376h4.348v7.376h4.348v7.378h4.348v7.376h-4.348v7.377h-4.348v7.378zm-26.086 0v-7.378h-4.348v-7.377h-4.348v-7.376h4.348v-7.378h4.348v-7.376h4.348v7.376h4.348v7.378h4.347v7.376h-4.347v7.377h-4.348v7.378zm13.043-29.509v-7.376h-4.347v-7.377h-4.348v-7.378h-4.348v-7.376h-4.348v-7.377h-4.348v-7.379h4.348v-7.376h4.348v-7.377h4.348v-7.377h4.348v-7.377h13.043v7.377h4.347v7.377h4.348v7.377h4.348v7.376h4.348v7.379h-4.348v7.377h-4.348v7.376h-4.348v7.378h-4.347v7.377h-4.349v7.376zm-24.347-22.131h2.608v14.755h-2.608zm46.086 0h4.348v7.377h-4.348zm0-44.262h4.348v7.376h-4.348zm-46.086-7.377h2.608v14.754h-2.608z"/><path d="m69.565 221.312h-4.348v4.426h4.348zm-8.695-22.131h-4.348v7.377h-4.348v7.377h-2.609v11.803h2.609v-4.426h4.348v-7.377h4.348zm-8.696-14.755h-2.608v7.378h2.608zm47.826-22.131h-4.348v7.377h4.348zm0-29.508h-4.348v-7.377h-4.348v-7.377h-4.347v-7.378h-4.348v-7.377h-4.348v-7.377h-4.348v7.377h-4.348v7.377h-4.348v7.378h-4.347v7.377h-4.348v7.377h-4.348v7.377h-2.609v29.508h2.609v7.377h4.348v7.377h4.348v7.378h4.347v7.377h4.348v7.377h4.348v19.18h8.696v-4.426h4.348v-7.377h4.347v-7.377h4.348v-7.377h4.348v-22.132h-4.348v7.377h-4.348v7.378h-4.347v7.377h-4.348v-7.377h-4.348v-7.378h-4.348v-7.377h-4.348v-7.377h-4.348v-7.377h-4.347v-7.377h4.347v-7.377h4.348v-7.377h13.044v7.377h-8.696v7.377h4.348v7.377h4.348v7.377h4.348v-7.377h4.347v-7.377h4.348v-7.377h4.348z"/></g></g></svg>