<svg height="960" viewBox="0 0 1440 960" width="1440" xmlns="http://www.w3.org/2000/svg" xmlns:xlink="http://www.w3.org/1999/xlink"><clipPath id="a"><path d="m0 720h1080v-720h-1080z" transform="translate(-886.50002 -566.20021)"/></clipPath><g transform="matrix(1.3333333 0 0 -1.3333333 0 960)"><path d="m0 360h1080v360h-1080z" fill="#00a1de"/><path d="m0 180h1080v180h-1080z" fill="#fad201"/><path d="m0 0h1080v180h-1080z" fill="#20603d"/></g><g fill="#e5be01"><path d="m0 0-80.407-4.699 76.451-25.35-78.884 16.273 67.286-44.274-71.985 36.134 53.534-60.179-60.18 53.534 36.135-71.984-44.273 67.285 16.272-78.884-25.349 76.452-4.7-80.408-1 117.1z" transform="matrix(1.3333333 0 0 -1.3333333 1336.7995 250.80013)"/><path d="m0 0-80.407 4.699 76.451 25.35-78.884-16.272 67.286 44.273-71.985-36.134 53.534 60.179-60.18-53.534 36.135 71.984-44.273-67.285 16.272 78.884-25.349-76.452-4.7 80.408-1-117.1z" transform="matrix(1.3333333 0 0 -1.3333333 1336.7995 250.80013)"/><path d="m0 0 80.407-4.699-76.451-25.35 78.884 16.273-67.286-44.274 71.985 36.134-53.534-60.179 60.18 53.534-36.135-71.984 44.273 67.285-16.272-78.884 25.349 76.452 4.7-80.408 1 117.1z" transform="matrix(1.3333333 0 0 -1.3333333 1027.2005 250.80013)"/><path d="m0 0 80.407 4.699-76.451 25.35 78.884-16.272-67.286 44.273 71.985-36.134-53.534 60.179 60.18-53.534-36.135 71.984 44.273-67.285-16.272 78.884 25.349-76.452 4.7 80.408 1-117.1z" transform="matrix(1.3333333 0 0 -1.3333333 1027.2005 250.80013)"/><path clip-path="url(#a)" d="m0 0c18.943 0 34.3-15.357 34.3-34.3 0-18.944-15.357-34.3-34.3-34.3s-34.3 15.356-34.3 34.3c0 18.943 15.357 34.3 34.3 34.3" stroke="#00a1de" stroke-width="3.4" transform="matrix(1.3333333 0 0 -1.3333333 1182 205.0664)"/></g></svg>