<svg xmlns="http://www.w3.org/2000/svg" width="144" height="96" viewBox="0 0 144 96">
	<path fill="#e02" d="M0 0h144v96H0z"/>
	<path fill="#111" fill-rule="evenodd" d="M76.156 76.058c-.964-.836-2.133-2.529-2.116-4.16.086-1.218.92-1.925 1.46-.44.762 1.64 2.397 4.352 4.65 2.761.985-.722.97-1.786-.38-1.664-1.667-.114-2.69-1.031-3.437-3.393-.135-1.298.405-1.266 1.159-.43.969 1.112 2.897 2.792 5.024 1.891 1.183-.495 1.516-1.518-.27-1.77-1.69.025-3.071-1.07-4.445-2.743-.753-.925.358-1.86 1.025-1.072.595.511 1.429 1.453 2.143 1.583.826.162 1.85.082 2.983-.519 1.223-1.023.826-1.762-.658-1.932-1.15.057-1.777.495-3.262-.495-2.667-1.803-4.788-4.212-5.12-7.11-.217-1.907.808-2.484 1.66-2.265 2.317.597 3.833 4.928 5.437 7.307.525.685 1.007.697 1.349.485a41 41 0 0 0 1.8-1.621s4.717.847 7.286 1.685l-2.86 1.016c-1.084-.598-2.39.047-2.39 1.085-1.026.708-.943 1.54-.501 2.341.135-.558.25-1.283 1.06-1.38 1.155.478 2.501-.204 2.501-1.106l3.374-1.327 3.41 1.93c0 1.305 1.235 1.718 2.521 1.366.606.376.996 1.03 1.201 1.727.38-1.007.3-1.718-.294-2.212.341-1.301-1.483-2.553-2.895-1.72l-2.453-1.408 4.198-.117c.487.862 2.248.91 2.762 0 .438-.12.81-.197 1.666.44-.27-1.03-.795-1.47-1.582-1.47-.599-1.06-2.764-1.056-3.077.138l-4.372.121 2.594-1.847c.969.572 2.327-.063 2.6-1.102.385-.459.861-.674 1.798-.363-.483-.855-1.163-1.11-2.392-.53-1.121-.85-2.599.18-2.375 1.036l-3.45 2.348c-2.506-.747-7.043-1.911-7.043-1.911.54-.568 1.088-1.096 1.628-1.672.194-.338-.103-.73-.517-.812-4.048-.836-6.365-2.468-7.77-6.615-.587-1.737.683-2.256 1.12-1.194.603 1.478 1.269 3.093 3.087 4.343.627.439 2.493.08 1.389-.966-1.143-.942-1.635-1.347-2.198-3.636 0-1.16 1.182-1.68 1.841-.569.706 2.281.778 3.263 2.056 4.733.968 1.112 2.23 1.859 2.856 1.842 1.128-.016 2.263-1.233.755-2.118-2.215-.885-3.024-2.094-3.35-3.247-.357-2.013.033-2.987 1.247-1.997 1.721 1.956 5.008 5.6 6.73 7.297 1.929 1.478 4.143 1.526 5.905.025 1.008-1.161.65-2.41-.929-2.143-3.563.3-6.261-1.469-9.222-6.25-.58-1.08-.738-2.63.54-1.477 1.475 1.997 3.627 3.693 5.627 4.424 2.008.721 3.666.323 4.31-.31.775-.774.57-2.726-.77-2.255-1.104.39-2.659.486-4.278-.139-1.62-.633-3.302-1.996-5.088-4.31-.611-1.306-.412-2.41.826-1.737 2.929 2.485 6.707 4.497 8.635 3.288 1.42-.885 1.445-3.158-.357-3.011-3.628.494-5-.309-8.485-3.385-.793-.593-.738-2.095.524-1.136 2.93 1.891 6.929 2.63 8.5 1.64 1.414-.885 1.207-3.589-1.174-2.631-1.905 1.16-4.009 1.128-8.223-1.883-1.063-.885-.27-2.038.603-1.542 3.39 1.932 8.326 2.76 9.612-1.17.5-1.5-.405-2.377-1.73-1.338-2.913 2.695-6.215 1.371-8.064.016-.53-.312-1.5-1.892.206-1.599 4.413 1.007 8.778.13 9.572-2.995.46-1.015-.445-2.809-2.056-1.306-2.119 2.093-4.365 2.166-7.19 2.15-1.437-.3-1.453-1.883-.246-2.118 2.23.048 4.428-.926 6.19-1.916 1.723-.99 3.151-2.378 3.604-4.302.278-1.72-1.381-3.547-2.38-1.72-1.477 2.67-4.748 5.186-8.383 5.64-.19-.316-.666-1.128-1.254-.9-1.067.414-2.34.968-3.649 1.59-2.823 1.34-4 1.986-3.66 4.302.353 2.417-1.51 3.944-3.049 3.523-1.342-.362-2.082-1.574-1.842-3.677.193-1.676 1.875-3.702 3.77-4.765 1.228-.687 3.08-1.062 5.31-1.558 1.358-.267 2.05-.795 2.128-1.348 0 0-.927.68-2.413.577-.702-.05-1.172-.359-1.35-.674.517-.105 1.453.017 2.294.017 1.12-.01 3.717-.26 4.406-1.835.214-1.039-.468-1.226-1.104-.56-.682.72-.963 1.366-2.333 1.607-.833.147-1.667.317-2.738.057.603-.717 1.562-1.45 2.38-1.315.27.045.627.293.914.74.175-1.137-.136-2.42-3.175-1.884.048-.86-1.762-1.234-2.85-1.217-.619.015-1.88.381-2.793.818-1.445.448-2.873.772-4.556.894.976.836 1.159.885 2.134 1.59-1.475.552-2.618 1.689-3.134 2.436 0 0 1.722-.048 2.159.146-1.803.527-2.612.844-3.565 1.818.334.057.834.154 1.048.236.223.08.165.227-.015.365-.388.296-1.993 2.16-2.461 2.606-.468-.447-2.073-2.31-2.46-2.607-.181-.137-.24-.284-.016-.364.214-.082.714-.179 1.048-.236-.953-.974-1.762-1.29-3.565-1.818.437-.194 2.16-.146 2.16-.146-.517-.748-1.66-1.884-3.135-2.435.975-.706 1.158-.755 2.134-1.59-1.683-.123-3.111-.447-4.556-.895-.912-.437-2.174-.803-2.794-.818-1.087-.017-2.897.357-2.849 1.217-3.04-.536-3.35.747-3.175 1.883.287-.446.644-.694.913-.739.819-.135 1.778.598 2.381 1.315-1.071.26-1.905.09-2.738-.057-1.37-.241-1.65-.888-2.333-1.607-.636-.666-1.318-.479-1.104.56.69 1.575 3.287 1.826 4.406 1.835.84 0 1.777-.122 2.293-.017-.177.315-.647.624-1.35.674-1.485.102-2.412-.577-2.412-.577.079.553.77 1.08 2.127 1.348 2.23.496 4.083.871 5.31 1.558 1.896 1.063 3.578 3.09 3.77 4.765.241 2.103-.5 3.315-1.841 3.677-1.54.421-3.402-1.106-3.049-3.523.34-2.316-.837-2.962-3.66-4.302a56 56 0 0 0-3.65-1.59c-.587-.228-1.063.584-1.253.9-3.635-.454-6.906-2.97-8.382-5.64-1-1.827-2.659 0-2.381 1.72.453 1.924 1.881 3.312 3.604 4.302 1.762.99 3.96 1.964 6.19 1.916 1.207.235 1.191 1.818-.246 2.118-2.825.016-5.071-.057-7.19-2.15-1.611-1.503-2.517.291-2.056 1.306.794 3.125 5.159 4.002 9.572 2.995 1.706-.293.735 1.287.206 1.599-1.849 1.355-5.15 2.679-8.063-.016-1.326-1.039-2.23-.162-1.73 1.339 1.285 3.928 6.222 3.1 9.611 1.169.873-.496 1.666.657.603 1.542-4.214 3.011-6.318 3.044-8.223 1.883-2.381-.958-2.588 1.746-1.175 2.63 1.572.99 5.572.252 8.501-1.64 1.262-.958 1.317.544.524 1.137-3.485 3.076-4.857 3.88-8.485 3.385-1.802-.147-1.778 2.126-.357 3.011 1.928 1.209 5.706-.803 8.635-3.288 1.238-.673 1.437.431.826 1.738-1.786 2.313-3.468 3.676-5.088 4.31-1.619.624-3.174.527-4.278.138-1.34-.471-1.545 1.481-.77 2.256.643.632 2.302 1.03 4.31.309 2-.73 4.152-2.427 5.627-4.424 1.278-1.153 1.12.397.54 1.477-2.96 4.781-5.659 6.55-9.222 6.25-1.58-.267-1.937.982-.929 2.143 1.762 1.5 3.976 1.453 5.905-.025 1.722-1.696 5.009-5.34 6.73-7.297 1.214-.99 1.604-.016 1.247 1.997-.326 1.153-1.135 2.362-3.35 3.247-1.508.885-.373 2.102.755 2.118.626.017 1.889-.73 2.856-1.842 1.278-1.47 1.35-2.452 2.056-4.733.66-1.111 1.841-.591 1.841.569-.563 2.29-1.055 2.694-2.198 3.636-1.104 1.047.762 1.405 1.389.966 1.818-1.25 2.484-2.865 3.088-4.343.436-1.062 1.706-.543 1.119 1.194-1.405 4.147-3.722 5.779-7.77 6.615-.414.081-.711.474-.517.812.54.576 1.088 1.104 1.628 1.672 0 0-4.537 1.164-7.042 1.911l-3.451-2.348c.224-.855-1.254-1.885-2.375-1.036-1.229-.58-1.91-.325-2.392.53.937-.311 1.413-.096 1.799.363.272 1.039 1.63 1.674 2.599 1.102l2.594 1.847-4.372-.121c-.313-1.194-2.478-1.199-3.077-.139-.787 0-1.312.44-1.582 1.47.856-.636 1.228-.56 1.666-.44.514.91 2.275.863 2.762 0l4.198.118-2.453 1.408c-1.412-.833-3.236.419-2.895 1.72-.594.494-.674 1.205-.294 2.212.205-.698.595-1.35 1.2-1.727 1.287.352 2.523-.061 2.523-1.366l3.409-1.93 3.374 1.327c0 .902 1.346 1.584 2.502 1.106.81.097.924.822 1.059 1.38.442-.802.525-1.633-.5-2.341 0-1.038-1.307-1.683-2.39-1.085l-2.86-1.016c2.568-.838 7.286-1.685 7.286-1.685.643.616 1.157 1.07 1.8 1.621.34.212.823.2 1.348-.485 1.604-2.38 3.12-6.71 5.437-7.307.852-.219 1.877.358 1.66 2.264-.332 2.899-2.453 5.308-5.12 7.11-1.485.99-2.111.553-3.262.496-1.484.17-1.881.909-.658 1.932 1.134.6 2.157.681 2.983.52.714-.13 1.548-1.073 2.143-1.584.667-.787 1.778.147 1.025 1.072-1.374 1.672-2.754 2.768-4.445 2.744-1.786.251-1.453 1.274-.27 1.77 2.127.9 4.055-.78 5.024-1.892.754-.836 1.294-.868 1.159.43-.746 2.362-1.77 3.279-3.437 3.393-1.35-.122-1.365.942-.38 1.664 2.253 1.59 3.888-1.12 4.65-2.76.54-1.486 1.374-.779 1.46.438.017 1.632-1.152 3.325-2.117 4.161-.963.836 4.157 6.153 4.157 6.153s5.12-5.317 4.156-6.153m6.863-60.202c-.797 0-1.29.28-1.29.619 0 .343.493.624 1.29.624.792 0 1.295-.306 1.295-.65 0-.34-.503-.593-1.295-.593m-22.038 0c.797 0 1.29.28 1.29.619 0 .343-.493.624-1.29.624-.792 0-1.295-.306-1.295-.65 0-.34.503-.593 1.295-.593"/>
</svg>