<svg height="1000" viewBox="0 0 999.99999 1000" width="1000" xmlns="http://www.w3.org/2000/svg"><path d="m0 1000h1000v-1000h-1000z" fill="#d52b1e" stroke-width=".816495"/><path d="m0 .00009975 333.33333 499.99900025h666.66667v-499.99900025z" fill="#fff" stroke-width=".816495"/><path d="m0 500h500v-499.999h-500z" fill="#0039a6" stroke-width=".999998"/><g fill="#fff" transform="scale(.75000002)"><path d="m0 0-38.627-118.882 59.441-19.314z" transform="matrix(1.3333333 0 0 -1.3333333 333.33333 166.66667)"/><path d="m0 0 38.627-118.882-59.441-19.314z" transform="matrix(1.3333333 0 0 -1.3333333 333.33333 166.66667)"/><path d="m0 0h-125v-62.5z" transform="matrix(1.3333333 0 0 -1.3333333 491.8424 281.83067)"/><path d="m0 0-101.127-73.473-36.736 50.564z" transform="matrix(1.3333333 0 0 -1.3333333 491.8424 281.83067)"/><path d="m0 0 101.127-73.473 36.736 50.564z" transform="matrix(1.3333333 0 0 -1.3333333 174.82427 281.83067)"/><path d="m0 0h125v-62.5z" transform="matrix(1.3333333 0 0 -1.3333333 174.82427 281.83067)"/><path d="m0 0-38.627 118.882-59.441-19.314z" transform="matrix(1.3333333 0 0 -1.3333333 431.29747 468.16933)"/><path d="m0 0-101.127 73.473 36.736 50.564z" transform="matrix(1.3333333 0 0 -1.3333333 431.29747 468.16933)"/><g transform="matrix(1.3333333 0 0 -1.3333333 235.3692 468.16933)"><path d="m0 0 101.127 73.473-36.736 50.564z"/><path d="m0 0 38.627 118.882 59.441-19.314z"/></g></g></svg>