<svg height="888.88934" viewBox="0 0 1333.3333 888.88934" width="1333.3333" xmlns="http://www.w3.org/2000/svg" xmlns:xlink="http://www.w3.org/1999/xlink"><clipPath id="a"><path d="m0 666.667h1000v-666.667h-1000z" transform="translate(-645.11722 -309.49281)"/></clipPath><clipPath id="b"><path d="m0 666.667h1000v-666.667h-1000z" transform="translate(-631.62112 -443.02361)"/></clipPath><clipPath id="c"><path d="m0 666.667h1000v-666.667h-1000z" transform="translate(-661.71002 -346.58361)"/></clipPath><clipPath id="d"><path d="m0 666.667h1000v-666.667h-1000z" transform="translate(-698.30662 -363.49771)"/></clipPath><clipPath id="e"><path d="m0 666.667h1000v-666.667h-1000z" transform="translate(-645.11722 -309.49281)"/></clipPath><clipPath id="f"><path d="m0 666.667h1000v-666.667h-1000z" transform="translate(-689.85352 -374.17251)"/></clipPath><clipPath id="g"><path d="m0 666.667h1000v-666.667h-1000z" transform="translate(-590.18071 -316.08661)"/></clipPath><clipPath id="h"><path d="m0 666.667h1000v-666.667h-1000z" transform="translate(-636.06641 -189.9362)"/></clipPath><clipPath id="i"><path d="m0 666.667h1000v-666.667h-1000z" transform="translate(-643.96682 -173.57881)"/></clipPath><clipPath id="j"><path d="m0 666.667h1000v-666.667h-1000z" transform="translate(-662.81642 -158.18821)"/></clipPath><clipPath id="k"><path d="m0 666.667h1000v-666.667h-1000z" transform="translate(-790.63089 -315.80831)"/></clipPath><clipPath id="l"><path d="m0 666.667h1000v-666.667h-1000z" transform="translate(-729.63672 -331.88831)"/></clipPath><clipPath id="m"><path d="m0 666.667h1000v-666.667h-1000z" transform="translate(-792.85352 -331.88831)"/></clipPath><clipPath id="n"><path d="m0 666.667h1000v-666.667h-1000z" transform="translate(-786.01952 -211.70281)"/></clipPath><clipPath id="o"><path d="m0 666.667h1000v-666.667h-1000z" transform="translate(-749.85742 -170.6833)"/></clipPath><clipPath id="p"><path d="m0 666.667h1000v-666.667h-1000z" transform="translate(-721.31932 -220.15501)"/></clipPath><clipPath id="q"><path d="m0 666.667h1000v-666.667h-1000z" transform="translate(-718.28422 -244.52701)"/></clipPath><clipPath id="r"><path d="m0 666.667h1000v-666.667h-1000z" transform="translate(-696.22751 -221.6921)"/></clipPath><clipPath id="s"><path d="m0 666.667h1000v-666.667h-1000z" transform="translate(-698.32322 -221.6921)"/></clipPath><clipPath id="t"><path d="m0 666.667h1000v-666.667h-1000z" transform="translate(-712.01172 -220.7243)"/></clipPath><clipPath id="u"><path d="m0 666.667h1000v-666.667h-1000z" transform="translate(-715.19342 -220.4675)"/></clipPath><clipPath id="v"><path d="m0 666.667h1000v-666.667h-1000z" transform="translate(-725.83402 -220.39811)"/></clipPath><clipPath id="w"><path d="m0 666.667h1000v-666.667h-1000z" transform="translate(-729.19822 -220.58951)"/></clipPath><clipPath id="x"><path d="m0 666.667h1000v-666.667h-1000z" transform="translate(-744.08892 -221.5964)"/></clipPath><clipPath id="y"><path d="m0 666.667h1000v-666.667h-1000z" transform="translate(-690.41801 -173.6081)"/></clipPath><clipPath id="z"><path d="m0 666.667h1000v-666.667h-1000z" transform="translate(-746.82812 -173.0231)"/></clipPath><clipPath id="A"><path d="m0 666.667h1000v-666.667h-1000z" transform="translate(-749.85742 -170.6833)"/></clipPath><clipPath id="B"><path d="m0 666.667h1000v-666.667h-1000z" transform="translate(-708.62112 -278.96941)"/></clipPath><clipPath id="C"><path d="m0 666.667h1000v-666.667h-1000z" transform="translate(-728.32232 -253.53001)"/></clipPath><clipPath id="D"><path d="m0 666.667h1000v-666.667h-1000z" transform="translate(-730.12302 -254.05141)"/></clipPath><clipPath id="E"><path d="m0 666.667h1000v-666.667h-1000z" transform="translate(-765.39549 -346.38831)"/></clipPath><clipPath id="F"><path d="m0 666.667h1000v-666.667h-1000z" transform="translate(-703.89752 -339.11201)"/></clipPath><clipPath id="G"><path d="m0 666.667h1000v-666.667h-1000z" transform="translate(-765.39549 -346.38831)"/></clipPath><clipPath id="H"><path d="m0 666.667h1000v-666.667h-1000z" transform="translate(-762.90819 -331.91571)"/></clipPath><clipPath id="I"><path d="m0 666.667h1000v-666.667h-1000z" transform="translate(-701.63572 -391.63741)"/></clipPath><clipPath id="J"><path d="m0 666.667h1000v-666.667h-1000z" transform="translate(-674.32622 -389.00161)"/></clipPath><clipPath id="K"><path d="m0 666.667h1000v-666.667h-1000z" transform="translate(-790.63089 -315.80831)"/></clipPath><clipPath id="L"><path d="m0 666.667h1000v-666.667h-1000z" transform="translate(-820.02055 -445.56271)"/></clipPath><clipPath id="M"><path d="m0 666.667h1000v-666.667h-1000z" transform="translate(-763.78029 -404.04361)"/></clipPath><clipPath id="N"><path d="m0 666.667h1000v-666.667h-1000z" transform="translate(-798.66992 -346.02801)"/></clipPath><clipPath id="O"><path d="m0 666.667h1000v-666.667h-1000z" transform="translate(-843.30662 -324.12661)"/></clipPath><clipPath id="P"><path d="m0 666.667h1000v-666.667h-1000z" transform="translate(-813.75685 -192.39811)"/></clipPath><clipPath id="Q"><path d="m0 666.667h1000v-666.667h-1000z" transform="translate(-804.2227 -174.48211)"/></clipPath><clipPath id="R"><path d="m0 666.667h1000v-666.667h-1000z" transform="translate(-782.50779 -158.1286)"/></clipPath><clipPath id="S"><path d="m0 666.667h1000v-666.667h-1000z" transform="translate(-757.08114 -379.02111)"/></clipPath><clipPath id="T"><path d="m0 666.667h1000v-666.667h-1000z" transform="translate(-754.14264 -406.04561)"/></clipPath><clipPath id="U"><path d="m0 666.667h1000v-666.667h-1000z" transform="translate(-729.77542 -462.33761)"/></clipPath><clipPath id="V"><path d="m0 666.667h1000v-666.667h-1000z" transform="translate(-734.76272 -495.33121)"/></clipPath><clipPath id="W"><path d="m0 666.667h1000v-666.667h-1000z" transform="translate(-706.20702 -429.90051)"/></clipPath><clipPath id="X"><path d="m0 666.667h1000v-666.667h-1000z" transform="translate(-711.42192 -439.82391)"/></clipPath><clipPath id="Y"><path d="m0 666.667h1000v-666.667h-1000z" transform="translate(-717.43852 -491.44941)"/></clipPath><clipPath id="Z"><path d="m0 666.667h1000v-666.667h-1000z" transform="translate(-697.47752 -451.52411)"/></clipPath><clipPath id="aa"><path d="m0 666.667h1000v-666.667h-1000z" transform="translate(-707.35252 -432.98261)"/></clipPath><clipPath id="ab"><path d="m0 666.667h1000v-666.667h-1000z" transform="translate(-692.48441 -420.47091)"/></clipPath><clipPath id="ac"><path d="m0 666.667h1000v-666.667h-1000z" transform="translate(-738.89162 -493.91081)"/></clipPath><clipPath id="ad"><path d="m0 666.667h1000v-666.667h-1000z" transform="translate(-696.78322 -412.15401)"/></clipPath><clipPath id="ae"><path d="m0 666.667h1000v-666.667h-1000z" transform="translate(-714.66312 -419.64181)"/></clipPath><clipPath id="af"><path d="m0 666.667h1000v-666.667h-1000z" transform="translate(-743.49802 -417.35461)"/></clipPath><clipPath id="ag"><path d="m0 666.667h1000v-666.667h-1000z" transform="translate(-699.48632 -420.12421)"/></clipPath><clipPath id="ah"><path d="m0 666.667h1000v-666.667h-1000z" transform="translate(-728.66412 -419.77601)"/></clipPath><clipPath id="ai"><path d="m0 666.667h1000v-666.667h-1000z" transform="translate(-756.25202 -415.68771)"/></clipPath><clipPath id="aj"><path d="m0 666.667h1000v-666.667h-1000z" transform="translate(-760.96779 -415.68771)"/></clipPath><path d="m0 0h1000v666.667h-1000z" fill="#00247d" transform="matrix(1.3333333 0 0 -1.3333333 0 888.88933)"/><path d="m0 0-168.089-112.059 48.411-32.274 168.089 112.059v32.274zm-384.589 0v-32.274l168.089-112.059 48.411 32.274-168.089 112.059zm0-256.392v-32.275h48.411l168.089 112.06-48.411 32.274zm216.5 79.785 168.089-112.06h48.411v32.274l-168.089 112.06z" fill="#fff" transform="matrix(1.3333333 0 0 -1.3333333 512.7852 .000133)"/><path d="m0 0v-96.223h-180.417v-96.221h180.417v-96.223h72.166v96.223h180.417v96.221h-180.417v96.223z" fill="#fff" transform="matrix(1.3333333 0 0 -1.3333333 240.5556 .000133)"/><path d="m0 0v-115.467h-194.85v-57.733h194.85v-115.467h43.3v115.467h194.85v57.733h-194.85v115.467z" fill="#cf142b" transform="matrix(1.3333333 0 0 -1.3333333 259.8 .000133)"/><path d="m0 0-144.334-96.223h32.274l144.333 96.223zm-400.727 0v-21.516l112.06-74.707h32.274zm288.667-192.444 144.333-96.223v21.516l-112.06 74.707zm-144.333 0-144.334-96.223h32.274l144.333 96.223z" fill="#cf142b" transform="matrix(1.3333333 0 0 -1.3333333 534.3024 .000133)"/><g stroke="#000" stroke-width=".444"><path clip-path="url(#a)" d="m0 0c-10.67-9.052-20.833-22.24-23.329-34.16-7.028-33.571-16.362-41.033-30.778-33.828 0-18.021 15.804-19.406 22.739-8.872 0-16.914 6.129-31.571 19.956-44.081 5.825-5.267 6.933-1.663 4.163 4.154-2.774 5.826-2.774 24.68-8.317 35.493 8.873-6.377 21.901-2.774 20.793 14.69-11.37-6.649-22.664-6.389-23.846 9.431-1.385 18.574 5.865 45.525 18.619 57.173" fill="#f7e017" transform="matrix(1.3333333 0 0 -1.3333333 860.15627 476.23227)"/><path clip-path="url(#b)" d="m0 0c.752 6.659-.674 13.501-5.535 17.791-9.403 8.278-18.615 5.535-25.466-1.133-10.262 5.548-15.71-14.119-27.353-10.792 1.94-6.379 4.992-9.148 10.81-6.929-6.101-5.548 0-12.199-7.208-18.855 13.033-4.158 19.966 3.049 19.41 15.524 4.992-4.436 12.75-4.158 16.909.834-6.929 2.218-6.963 8.253-4.159 13.862 4.159 8.317 23.699 7.996 22.592-10.302" fill="#f7e017" transform="matrix(1.3333333 0 0 -1.3333333 842.16147 298.1912)"/><path clip-path="url(#c)" d="m0 0c-14.695-7.762-41.589-4.437-44.085 14.695-2.496 19.131 16.08 27.723 21.072 30.219 7.78 3.89 13.863-3.047 11.369-11.088 8.592 3.049 10.537 13.028 6.378 18.85 11.365-.829 21.902 7.767 26.338 19.966-3.985-3.799-14.855-1.228-23.807-.656 2.769 3.052 2.735 8.974 1.906 12.021-9.429-9.703-23.013-5.267-41.033-33.272 2.769 9.708 8.039 29.114 11.088 41.868.303 1.276.538 2.53.685 3.837 1.108 18.298-18.407 18.624-22.565 10.307 4.558-5.145 2.161-11.145.529-20.244-1.939-10.815-6.1-35.768-9.703-44.085-1.107 13.032-9.701 13.865-11.369 20.243-2.495-1.667-3.877-6.099-3.322-9.151-3.051 3.326-13.586-.834-17.467 4.159-4.16-8.318 2.496-16.636 9.423-20.238-4.019-.279-4.987-5.132-9.423-5.132 5.96-6.929 12.054-9.702 19.127-10.258 7.071-.552 12.337-3.187 16.634-11.783 6.934-13.861 33.34-22.873 58.225-10.258" fill="#337321" transform="matrix(1.3333333 0 0 -1.3333333 882.28 426.77787)"/><path clip-path="url(#d)" d="m0 0c-8.314-23.013-31.054-39.371-41.311-41.867-17.456-4.246-53.062-21.528-62.623-30.427-1.509.334-2.908.881-3.919 1.592-4.71 3.331-8.592 14.139-.273 23.291 26.06 24.398 54.06 13.861 71.529 30.497-14.695-7.762-41.589-4.437-44.085 14.695 15.807-4.159 44.363-4.437 67.098 19.961 3.047-3.326 11.921-13.861 13.584-17.742" fill="#f7e017" transform="matrix(1.3333333 0 0 -1.3333333 931.07547 404.22573)"/><path clip-path="url(#e)" d="m0 0c-13.17-11.175-20.004-38.599-18.619-57.173.387-5.172 1.837-8.67 4.033-10.819.972 10.536 8.296 37.76 27.02 49.91 15.802 10.259 40.482 33.271 49.629 59.609-1.664 4.715-4.437 8.04-9.703 11.367-9.056-24.855-33.372-36.78-52.36-52.894" fill="#337321" transform="matrix(1.3333333 0 0 -1.3333333 860.15627 476.23227)"/><path clip-path="url(#f)" d="m0 0c-4.719-7.072-15.389-16.775-25.647-20.656 2.217 2.492 2.908 5.682 3.046 8.318-13.031-4.993-39.09-4.437-49.628-.556 15.807-4.159 44.363-4.437 67.098 19.961 2.218-2.497 4.154-4.711 5.131-7.067" fill="#316d3a" transform="matrix(1.3333333 0 0 -1.3333333 919.80467 389.99267)"/><path clip-path="url(#g)" d="m0 0c-21.195-19.839-7.212-37.151 1.106-41.032-2.218-13.863 10.814-12.199 10.536-23.847 5.267 3.052 6.656 11.092 5.823 17.469 6.654-7.211 23.563.829 27.171-12.477 2.218 14.695-9.153 29.39-23.291 28.001 5.826 5.27 2.496 13.866-3.047 16.084-1.109-10.814-13.306-10.814-18.025-7.489-4.71 3.331-8.592 14.14-.273 23.291" fill="#337321" transform="matrix(1.3333333 0 0 -1.3333333 786.9076 467.44053)"/><path clip-path="url(#h)" d="m0 0c-2.318-1.32-2.149-4.302-.694-6.238 2.908-3.882-2.054-12.677 7.344-14.556 2.775-.556 4.911 1.141 5.96 4.297 2.914 8.734-6.377 9.707-7.206 13.862-.833 4.158-3.467 3.746-5.404 2.635" fill="#f7e017" transform="matrix(1.3333333 0 0 -1.3333333 848.08853 635.64107)"/></g><path clip-path="url(#i)" d="m0 0c-3.112-1.433-5.825-3.465-4.575-13.445.513-4.128.278-14.139-3.325-14.278 2.213-1.111 6.928-2.289 8.869.274 1.871-3.118 6.099-2.219 7.766 1.667 2.214-1.802 5.266 1.245 5.266 3.881 1.94-1.246 5.821.555 4.849 6.51 2.362-.829 5.409.834 6.516 2.358-3.465.694-12.194 5.41-14.278 9.152-2.079 3.741-7.484 5.548-11.088 3.881" fill="#f7e017" transform="matrix(1.3333333 0 0 -1.3333333 858.6224 657.45093)"/><path clip-path="url(#j)" d="m0 0c-2.283.491-9.285 5.062-12.197 9.916m7.348-16.427c-1.944.904-6.654 7.002-7.697 10.948m2.432-14.829c-1.529 1.176-4.438 5.197-4.923 8.734m-2.844-10.401c-.969 1.385-1.315 7.21-.62 10.749m4.361 260.407c2.451 1.398 6.169 1.554 10.298 1.284m-63.042 35.416c1.393 2.067 2.956 4.012 4.688 5.696m43.346-286.102c-3.112-1.433-5.825-3.465-4.575-13.446.513-4.128.279-14.138-3.325-14.277 2.214-1.111 6.929-2.289 8.869.273 1.871-3.118 6.1-2.218 7.767 1.667 2.214-1.801 5.265 1.246 5.265 3.881 1.941-1.246 5.822.556 4.849 6.511 2.362-.829 5.409.834 6.517 2.357-3.465.695-12.195 5.411-14.279 9.153-2.079 3.741-7.484 5.548-11.088 3.881z" fill="none" stroke="#000" stroke-width=".444" transform="matrix(1.3333333 0 0 -1.3333333 883.7552 677.97173)"/><path clip-path="url(#k)" d="m0 0c34.104-28.556 36.323-51.291 31.052-64.601-2.77 12.477-16.912 31.886-31.608 36.874z" fill="#f7e017" stroke="#000" stroke-width=".444" transform="matrix(1.3333333 0 0 -1.3333333 1054.1745 467.8116)"/><path clip-path="url(#l)" d="m0 0h63.217v-74.859c0-63.768-35.49-101.471-71.534-121.437-36.046 19.966-71.535 57.669-71.535 121.437v74.859h44.363c.069-3.881.417-9.702 4.993-15.524 10.462 1.038 22.317 8.87 30.496 15.524" fill="#337321" stroke="#000" stroke-width=".444" transform="matrix(1.3333333 0 0 -1.3333333 972.84893 446.3716)"/><path clip-path="url(#m)" d="m0 0v-74.859c0-19.248-3.238-36.123-8.743-50.853l-62.791 115.177-62.791-115.177c-5.509 14.73-8.743 31.605-8.743 50.853v74.859z" fill="#006ec7" stroke="#000" stroke-width=".444" transform="matrix(1.3333333 0 0 -1.3333333 1057.138 446.3716)"/><path clip-path="url(#n)" d="m0 0c-1.106-3.395-3.116-8.908-4.676-12.304l-60.024 111.552-60.027-111.552c-1.557 3.396-3.568 8.909-4.675 12.304l64.702 119.969z" fill="#f7e017" transform="matrix(1.3333333 0 0 -1.3333333 1048.026 606.61893)"/><g stroke="#000" stroke-width=".444"><g fill="#f7e017"><path clip-path="url(#o)" d="m0 0c1.667-.834 4.728-2.37 6.117-2.926 3.329 6.655 3.882 16.078 2.774 24.398-3.608-9.153-15.806-8.87-19.131-14.418 2.049-1.025 3.945-2.367 5.583-3.546-4.163-4.154-13.902-11.149-19.445-12.812v59.47c0 4.159-1.389 7.624-1.389 11.093v12.294c0 2.769-.551 6.79-3.047 6.79s-3.048-4.021-3.048-6.79v-12.294c0-3.469-1.389-7.489-1.389-11.093v-59.47c-3.048 8.874-14.991 5.834-20.534 14.708 2.166.53 4.449.691 6.672.265-4.158 14.14-15.524 15.247-17.747 19.405 0-5.821-2.491-19.405 1.39-25.23.872 1.045 2.178 2.118 3.755 3.081 4.71-10.262 25.909-10.287 30.901-27.201 4.006 6.213 18.437 13.427 28.538 24.276" transform="matrix(1.3333333 0 0 -1.3333333 999.80987 661.3116)"/><path clip-path="url(#p)" d="m0 0c4.71 0 19.683 1.537 25.092 1.537 1.407 0 2.549 2.106 2.549 4.701 0 2.601-1.142 4.706-2.549 4.706-5.409 0-20.382 1.534-25.092 1.534-4.711 0-19.684-1.534-25.092-1.534-1.407 0-2.549-2.105-2.549-4.706 0-2.595 1.142-4.701 2.549-4.701 5.408 0 20.381-1.537 25.092-1.537" transform="matrix(1.3333333 0 0 -1.3333333 961.75907 595.34933)"/><path clip-path="url(#q)" d="m0 0c-1.002.807-2.318 1.293-3.755 1.293-3.143 0-5.687-2.322-5.687-5.191 0-2.866 2.544-5.189 5.687-5.189 3.139 0 5.683 2.323 5.683 5.189 0 2.217 3.225 2.217 3.225 0 0-4.494-3.99-8.136-8.908-8.136-4.923 0-8.912 3.642-8.912 8.136 0 4.493 3.989 8.134 8.912 8.134 1.476 0 2.864-.326 4.094-.907-.113-.747-.339-2.131-.339-3.329" transform="matrix(1.3333333 0 0 -1.3333333 957.71227 562.85333)"/><path clip-path="url(#r)" d="m0 0c1.41 0 2.548 2.105 2.548 4.701 0 2.601-1.138 4.706-2.548 4.706" transform="matrix(1.3333333 0 0 -1.3333333 928.30333 593.29987)"/><path clip-path="url(#s)" d="m0 0c1.407 0 2.548 2.105 2.548 4.701 0 2.601-1.141 4.706-2.548 4.706" transform="matrix(1.3333333 0 0 -1.3333333 931.0976 593.29987)"/><path clip-path="url(#t)" d="m0 0c1.692 0 3.068 2.539 3.068 5.669 0 3.135-1.376 5.674-3.068 5.674" transform="matrix(1.3333333 0 0 -1.3333333 949.34893 594.59027)"/><path clip-path="url(#u)" d="m0 0c1.776 0 3.218 2.652 3.218 5.926 0 3.278-1.442 5.929-3.218 5.929" transform="matrix(1.3333333 0 0 -1.3333333 953.5912 594.93267)"/><path clip-path="url(#v)" d="m0 0c1.793 0 3.247 2.688 3.247 5.995 0 3.313-1.454 6-3.247 6" transform="matrix(1.3333333 0 0 -1.3333333 967.77867 595.0252)"/><path clip-path="url(#w)" d="m0 0c1.775 0 3.208 2.601 3.208 5.804 0 3.208-1.433 5.808-3.208 5.808" transform="matrix(1.3333333 0 0 -1.3333333 972.26427 594.77)"/><path clip-path="url(#x)" d="m0 0c1.432 0 2.601 2.149 2.601 4.797 0 2.652-1.169 4.802-2.601 4.802" transform="matrix(1.3333333 0 0 -1.3333333 992.11853 593.42747)"/><path clip-path="url(#y)" d="m0 0c1.715 1.047 3.756 1.949 5.931 2.479" transform="matrix(1.3333333 0 0 -1.3333333 920.55733 657.41187)"/><path clip-path="url(#z)" d="m0 0c-.508.364-1.055.751-1.628 1.168" transform="matrix(1.3333333 0 0 -1.3333333 995.7708 658.19187)"/><path clip-path="url(#A)" d="m0 0c3.887 4.168 7.12 8.877 8.891 14.264" transform="matrix(1.3333333 0 0 -1.3333333 999.80987 661.3116)"/></g><path clip-path="url(#B)" d="m0 0c0 1.351 1.111 1.932 2.404 2.913 1.564 1.177 2.189 1.733 3.609 1.733h18.193c1.351 0 1.663-.348 1.663-1.598v-24.744c0-1.246-.312-1.594-1.663-1.594h-24.206v23.533" fill="#fff" transform="matrix(1.3333333 0 0 -1.3333333 944.82813 516.93013)"/><path clip-path="url(#C)" d="m0 0c2.392 0 1.961.052 3.642 1.732 1.749 1.749 1.585 1.594 1.585 3.205v22.625c0 1.168-.292 1.49-1.542 1.49h-16.839c-1.316 0-1.894-.517-3.334-1.619-1.199-.916-2.215-1.458-2.215-2.722v-24.711z" fill="#e5e5e5" transform="matrix(1.3333333 0 0 -1.3333333 971.0964 550.84933)"/><path clip-path="url(#D)" d="m0 0c0-1.246-.309-1.593-1.662-1.593h-18.195c-1.354 0-1.645.347-1.645 1.593v24.745c0 1.245.291 1.593 1.645 1.593h18.195c1.353 0 1.662-.348 1.662-1.593z" fill="#fff" transform="matrix(1.3333333 0 0 -1.3333333 973.49733 550.15413)"/><path clip-path="url(#E)" d="m0 0c3.546-3.951 4.71-9.277 2.778-14.473h-5.265c2.214 6.655.833 13.006-8.597 13.835-14.095 1.246-30.496-26.06-55.171-29.386-7.212 8.596-6.825 24.966 2.325 32.729-4.726 13.635-14.72 28.63-21.631 35.124-4.529.734-9.755 1.103-13.137.903 3.604 7.767 13.88 15.938 22.197 19.263 1.346 1.966 2.792 3.859 4.146 5.552.83 10.675 51.565 5.682 62.378-.968 0-11.922 4.711-51.765 9.977-62.579" fill="#96877d" transform="matrix(1.3333333 0 0 -1.3333333 1020.5273 427.03827)"/></g><path clip-path="url(#F)" d="m0 0c-1.207 18.481-8.674 33.697-19.175 44.068 4.987-1.384 15.246-1.384 22.179 3.604 9.151 6.103 32.994 16.774 41.728 12.202.695-1.527 1.107-4.992.551-7.21-2.079 5.543-25.088-3.048-31.603-5.683-6.24-2.913-9.009-6.794-6.795-15.528-3.603 3.052-2.357 5.964-6.099 8.178 1.524-3.603 2.77-10.118 3.191-15.384-1.389 3.741-3.885 11.781-9.29 16.495 4.714-9.15 8.804-31.121 6.863-42.764 3.743 0 11.991 3.672 15.316 6.308-2.908-4.159-11.296-7.073-16.706-8.18-2.422-2.913-4.089-10.396-3.949-14.555-.413 5.127 1.202 17.63 3.789 18.449" transform="matrix(1.3333333 0 0 -1.3333333 938.53 436.74)"/><path clip-path="url(#G)" d="m0 0c-4.589 5.11-13.154 7.875-24.115 4.91 1.662.829 5.265 2.218 8.456 2.77-.412 2.913-3.047 15.389-3.464 18.441l3.052 1.246c1.518-7.488 3.459-16.08 4.71-19.549.972-.277 3.186-.69 5.131-1.662-.834 2.912-5.548 23.846-5.405 26.06l4.155 2.219c1.663-11.366 4.298-27.863 7.48-34.435" transform="matrix(1.3333333 0 0 -1.3333333 1020.5273 427.03827)"/><path clip-path="url(#H)" d="m0 0c2.214 6.654.833 13.006-8.597 13.835-7.305.646-15.233-6.456-24.614-13.835z" fill="#96877d" stroke="#000" stroke-width=".444" transform="matrix(1.3333333 0 0 -1.3333333 1017.2109 446.33507)"/><path clip-path="url(#I)" d="m0 0c-4.158-.556-13.449.277-18.163 1.801.273 1.255.76 2.549 1.38 3.92-2.913-1.941-8.447-5.721-10.527-8.357 6.655-1.385 20.39-2.074 27.31 2.636" fill="#96877d" transform="matrix(1.3333333 0 0 -1.3333333 935.51427 366.70613)"/><g stroke="#000" stroke-width=".444"><path clip-path="url(#J)" d="m0 0c6.654-1.385 20.39-2.074 27.31 2.636 16.08 10.952 31.603 17.33 47.132 18.159m-68.933-25.579c1.793-.291 3.472-.643 4.887-1.037 4.988-1.385 15.247-1.385 22.179 3.603 6.933 4.992 25.787 20.517 47.133 22.184m-65.14-4.584c-2.513-3.674-4.701-7.607-5.422-10.945 4.714-1.524 14.005-2.357 18.164-1.801m-.17-42.544c1.528-4.42 2.527-8.692 2.666-12.49m-2.496 55.034c-4.159-.556-13.45.277-18.164 1.801.274 1.254.76 2.548 1.38 3.919-2.913-1.94-8.447-5.72-10.526-8.356 6.654-1.385 20.39-2.074 27.31 2.636z" fill="none" transform="matrix(1.3333333 0 0 -1.3333333 899.1016 370.22053)"/><path clip-path="url(#K)" d="m0 0c23.29-16.079 40.481-31.607 45.47-56.561 4.992-24.948 14.422-31.604 26.064-24.948-2.774-14.418-17.191-16.085-29.389-4.992 1.106-16.636-5.548-36.602-22.736-43.808-1.106 9.985 5.487 17.885 3.604 26.065-.834 3.603-1.108 11.92 3.602 15.801-9.146-3.052-23.563 2.775-24.948 16.358 10.535-4.992 24.119-5.821 29.385 7.484 5.271 13.31 3.052 36.045-31.052 64.601" fill="#337321" transform="matrix(1.3333333 0 0 -1.3333333 1054.1745 467.8116)"/><path clip-path="url(#L)" d="m0 0c7.207 18.854 26.064 16.914 32.438 8.875 18.576 10.53 21.072-13.312 36.874-8.597-.279-4.437-5.544-8.595-11.366-8.317 6.1-5.544-2.496-13.862 10.532-18.854-11.087-5.544-26.616.278-30.77 15.524-3.604-7.206-16.636-7.206-21.906-1.384 11.369 3.051 10.536 13.586 4.163 17.747-6.425 4.184-17.747 2.491-19.965-4.994" fill="#337321" transform="matrix(1.3333333 0 0 -1.3333333 1093.3607 294.80573)"/><path clip-path="url(#M)" d="m0 0c5.17-16.687 15.876-32.194 27.406-42.765 13.311-12.199 33.407-9.151 44.636 2.496.278-23.22-23.772-25.022-37.152-17.747-5.895 3.209-10.665 1.525-4.988-3.602 8.592-7.763 27.397-13.536 49.624-18.299 38.82-8.318 24.957-39.093 13.588-38.814 3.261.07 5.931 3.481 1.246 7.692-33.683 30.289-102.166 18.367-101.059 86.017-7.206-17.743-36.869-10.81-23.013 10.258 4.438-3.603 12.204-3.881 14.422 1.662 1.724 4.316.595 11.822-7.171 18.268 1.275.105 4.02 0 3.737 3.188.348-1.873 2.045-4.646 6.412-3.708 1.251-1.976 2.557-3.274 4.333-2.566.348.139 1.389.66.972 2.635.348-3.672 4.71-4.992 7.007-4.715" fill="#337321" transform="matrix(1.3333333 0 0 -1.3333333 1018.3737 350.16453)"/><path clip-path="url(#N)" d="m0 0c16.08-10.536 34.266-10.527 51.019 8.873 5.265 6.101 13.583 11.366 19.409 11.922 5.817.556 5.544 6.099 9.98 7.21-2.773.829-3.885 4.159-8.044 3.742 10.397 3.604 7.35 11.922 12.477 15.941-4.159-1.523-10.67 4.714-16.636-3.186 1.527 3.603-.556 7.9-2.075 9.563.551-4.159-8.183-4.992-9.846-15.523-.933-5.913-4.158-5.549-4.714 3.603-.404 6.694-3.604 25.231-7.485 34.655-3.885 9.426-4.771 22.366.499 24.306-.793 1.343-1.904 2.527-3.269 3.422-6.424 4.184-17.747 2.492-19.964-4.993-7.211-18.853 13.032-29.667 11.365-50.184-3.047 15.251-27.723 19.131-27.445 34.105-8.041-3.604-6.933-10.259-3.881-15.529-4.993 7.766-16.362-4.988-26.065 5.548-1.107-13.866 11.092-19.132 21.072-19.688-4.992-8.873 1.663-16.356 8.319-18.852.277 15.527 32.115 9.155 32.436-17.465.279-22.736-24.119-24.676-37.152-17.47" fill="#f7e017" transform="matrix(1.3333333 0 0 -1.3333333 1064.8932 427.51867)"/><path clip-path="url(#O)" d="m0 0c38.819-8.318 24.957-39.093 13.588-38.814-7.237.172-14.14 6.238-14.557 11.504-8.316-4.437-6.093-13.168.279-16.635-17.465 2.079-24.815-9.426-25.232-22.041 3.192 5.821 12.895 6.238 16.497 4.992 3.608-1.25 12.893-1.941 16.641 2.214-3.053-2.63 1.935-8.73-2.362-13.444 14.555.556 20.937 14.139 18.441 20.1 18.85 17.19 15.246 45.191-23.295 52.124" fill="#f7e017" transform="matrix(1.3333333 0 0 -1.3333333 1124.4088 456.72053)"/><path clip-path="url(#P)" d="m0 0c2.53-1.581 2.209-4.897.503-6.994-3.42-4.206 1.731-14.244-8.838-15.928-3.117-.5-5.427 1.488-6.465 5.057-2.87 9.872 7.54 10.554 8.648 15.16 1.115 4.601 4.037 4.028 6.152 2.705" fill="#f7e017" transform="matrix(1.3333333 0 0 -1.3333333 1085.0091 632.35853)"/></g><path clip-path="url(#Q)" d="m0 0c3.413-1.737 6.352-4.12 4.524-15.208-.755-4.584-.924-15.768 3.09-16.084-2.525-1.142-7.84-2.249-9.892.698-2.223-3.398-6.903-2.214-8.592 2.198-2.558-1.919-5.826 1.619-5.709 4.557-2.223-1.306-6.478.873-5.136 7.485-2.665-.825-5.994 1.164-7.167 2.917 3.899.621 13.853 5.5 16.336 9.59 2.483 4.084 8.596 5.861 12.546 3.847" fill="#f7e017" transform="matrix(1.3333333 0 0 -1.3333333 1072.2969 656.24653)"/><path clip-path="url(#R)" d="m0 0c2.575.442 10.589 5.243 14.049 10.531m-8.913-18.016c2.201.921 7.731 7.528 9.065 11.891m-3.356-16.449c1.754 1.246 5.178 5.605 5.873 9.529m2.719-11.726c1.145 1.507 1.788 7.988 1.167 11.961m1.111 18.633c3.413-1.738 6.351-4.121 4.524-15.208-.756-4.584-.925-15.768 3.09-16.084-2.525-1.142-7.84-2.249-9.892.698-2.223-3.399-6.903-2.214-8.592 2.197-2.558-1.919-5.826 1.619-5.709 4.558-2.223-1.306-6.478.873-5.136 7.485-2.665-.825-5.994 1.163-7.167 2.917 3.898.62 13.853 5.5 16.336 9.59 2.483 4.084 8.596 5.86 12.546 3.847z" fill="none" stroke="#000" stroke-width=".444" transform="matrix(1.3333333 0 0 -1.3333333 1043.3437 678.0512)"/><path clip-path="url(#S)" d="m0 0c-.465-28.417 11.349-42.795 27.711-52.154-6.083 3.636-3.448 16.114-11.631 20.133 1.945.139 4.992-2.634 9.847-1.523-2.359 5.266-6.24 13.305-15.251 14.416 2.357.274 7.488-.556 10.817.691-4.719 7.211-17.194 3.743-21.493 18.437" fill="#f7e017" stroke="#000" stroke-width=".444" transform="matrix(1.3333333 0 0 -1.3333333 1009.4415 383.52787)"/><path clip-path="url(#T)" d="m0 0c-.999.33-1.845 1.337-2.674 2.644-4.367-.938-6.064 1.835-6.412 3.708.282-3.188-2.474-3.07-3.76-3.17 7.806-6.456 8.922-13.961 7.194-18.286-2.218-5.542-9.985-5.265-14.422-1.662-.551-11.782 14.7-15.663 20.243-.829 0-2.496 3.19-2.218 4.019-5.548 3.96 6.377.973 15.528-4.188 23.143" fill="#f7e017" stroke="#000" stroke-width=".444" transform="matrix(1.3333333 0 0 -1.3333333 1005.5235 347.4952)"/><path clip-path="url(#U)" d="m0 0c-6.928 6.377-10.119 17.053-9.846 23.147.283 6.103 2.779 12.755 11.648 9.986-2.775 0-.829-5.55-3.742-6.101 2.357-.833 5.547 1.107 5.96 2.354.555-1.941 4.159-1.386 4.436-3.604 1.386 1.112-.138 6.517-2.218 7.629 1.525.828 2.359 5.126 1.662 7.205-1.384-.278-3.463-2.218-3.88-4.992.695 2.218-.139 7.766-4.02 8.595-1.111-1.523-1.385-5.265.139-7.344-3.603.829-8.873-1.524-10.118-4.576.277 3.672.781 8.903 3.051 12.198.759 1.111-1.116 3.052-2.571.417-2.699 5.266-9.906 8.041-13.097 5.406-3.19-2.632-7.484 1.249-10.119-2.91s-11.556-4.597-11.092-9.012c.278-2.635-.36-6.702-1.663-8.178-3.186-3.604 1.524-6.24 2.358-9.426-.556 10.537 16.218 31.053 32.993 23.013-1.527-2.635-2.861-7.896-3.329-14.282-.692-9.425.694-22.734 9.841-30.498z" fill="#337321" stroke="#000" stroke-width=".444" transform="matrix(1.3333333 0 0 -1.3333333 973.03387 272.4392)"/><path clip-path="url(#V)" d="m0 0c-.091 2.496 4.229 5.739 10.055 5.682 6.998-.07 12.403-6.447 18.02-5.821 5.613.625 2.84-2.496 1.663-3.33-1.18-.83-1.871-2.08-1.454-3.604.412-1.523-.305-2.521-2.566-1.107-4.992 3.118-9.985-1.25-16.566 1.178-5.714 2.105-9.012 3.259-9.152 7.002" fill="#cf142b" stroke="#000" stroke-width=".444" transform="matrix(1.3333333 0 0 -1.3333333 979.6836 228.44773)"/><path clip-path="url(#W)" d="m0 0c-2.77 8.729-13.306 18.298-18.437 20.517l-.274 4.71c2.77 1.111 9.421 6.377 12.473 9.289 20.795-9.979 49.073 4.159 62.105 18.854l4.992-3.052-2.496-3.324-2.634 1.384c-3.188-3.88-15.094-15.081-18.699-17.439 4.85-1.224 11.475-2.07 13.293-1.971 11.644 8.318 20.794 15.807 25.231 16.363l3.743-4.992-3.326-2.359-2.635 1.525c-12.477-10.259-26.616-32.715-32.164-47.684-7.762 1.662-35.489.551-41.172 8.179" fill="#96877d" transform="matrix(1.3333333 0 0 -1.3333333 941.60933 315.68867)"/><path clip-path="url(#X)" d="m0 0 2.552 2.553-2.552 2.548-2.549-2.548zm-4.104-1.472c8.871.278 28.14-1.245 32.855-1.94 4.715-.69 12.61-2.63 11.504-4.987m-44.359 1.523c-1.871 10.328 1.108 21.767 6.373 25.231 11.509-7.623 31.197-7.623 42.839.69m-13.293 1.971c-1.793.452-3.338.973-4.309 1.498-2.223-2.08-7.768-3.881-14.835-4.159m-17.886-28.278c-2.769 8.729-13.306 18.298-18.437 20.516l-.274 4.71c2.77 1.112 9.421 6.377 12.473 9.29 20.795-9.98 49.073 4.158 62.105 18.854l4.993-3.052-2.497-3.325-2.634 1.385c-3.188-3.881-15.094-15.081-18.699-17.439 4.85-1.224 11.475-2.071 13.293-1.971 11.644 8.317 20.794 15.807 25.231 16.363l3.743-4.992-3.326-2.359-2.635 1.525c-12.476-10.259-26.616-32.716-32.164-47.685-7.762 1.663-35.489.551-41.172 8.18z" fill="none" stroke="#000" stroke-width=".444" transform="matrix(1.3333333 0 0 -1.3333333 948.56253 302.45747)"/><path clip-path="url(#Y)" d="m0 0c-3.192 4.433-11.974 5.839-13.862-.139-.833-2.635-2.079-5.409-4.163-6.655-2.075-1.246-1.589-5.026-.69-6.655 2.218-4.019.278-7.9 4.575-10.536 0 3.192 4.71 6.517 8.735 7.35 4.019.829 10.119 4.437 10.948 8.456.834 4.02 2.219 7.346-5.543 8.179" fill="#337321" stroke="#000" stroke-width=".444" transform="matrix(1.3333333 0 0 -1.3333333 956.58467 233.62347)"/><path clip-path="url(#Z)" d="m0 0h1.106l.017-7.585c.226-.078.479-.182.66-.347l6.534 3.769.556-.96-6.555-3.807c.043-.234.078-.508.026-.746l6.529-3.778-.556-.959-6.572 3.776c-.183-.155-.399-.321-.634-.399l-.005-7.54h-1.106l-.018 7.584c-.23.077-.482.182-.665.347l-6.533-3.768-.552.959 6.557 3.808c-.044.234-.083.507-.031.747l-6.526 3.776.552.96 6.577-3.777c.182.156.4.321.634.399z" fill="#96877d" stroke="#000" stroke-width=".444" transform="matrix(1.3333333 0 0 -1.3333333 929.97 286.8572)"/><path clip-path="url(#aa)" d="m0 0c-2.383-2.396-5.678-3.881-9.319-3.881-7.26 0-13.142 5.878-13.142 13.136 0 7.255 5.882 13.133 13.142 13.133 4.258 0 8.044-2.028 10.449-5.176-.682-1.649-1.463-5.361-1.525-7.041-.455 4.529-4.28 8.057-8.924 8.057-4.962 0-8.982-4.02-8.982-8.973 0-4.958 4.02-8.977 8.982-8.977 4.145 0 7.736 2.899 8.763 6.724-.004-1.65.036-5.617.556-7.002" fill="#96877d" stroke="#000" stroke-width=".444" transform="matrix(1.3333333 0 0 -1.3333333 943.13667 311.5792)"/><path clip-path="url(#ab)" d="m0 0c-.829.973-2.357 3.603-2.219 5.544 1.246.14 3.605-.691 4.716-1.802-.139 1.389-.691 4.438-.417 5.822 1.528-.551 4.715-2.353 5.821-4.433-.277 1.386-.833 4.989-.277 7.207 1.667-.968 4.437-3.603 4.992-5.404.139 2.769 1.107 7.345 1.941 8.456 1.245-1.25 3.185-2.357 4.436-4.02.274 2.218 1.385 4.849 3.047 5.544 1.25-1.385 3.191-4.576 3.605-8.179 1.25.417 2.912 2.496 3.602 3.603.694-1.107 1.39-3.047.977-5.404 1.519 1.384 3.321 3.325 3.742 4.987 1.107-.829 3.186-2.908 3.742-5.126-.278 1.801-.139 4.988-.694 6.793 2.079-1.111 3.741-3.051 4.158-5.13.556 1.94 1.802 5.404 2.908 6.237 1.111-2.218 2.223-4.853 2.085-7.071.69 1.389 1.802 3.885 2.908 4.437.973-1.524.834-4.85.556-6.652.973 1.386 2.774 3.049 3.881 3.604.139-.833.278-2.496 0-3.743 1.246.691 3.33 4.433 4.02 6.374 1.945-.968 3.881-4.298 4.02-5.96 1.385.555 4.163 3.051 4.988 4.436 0-.968.421-3.603-.139-5.683.834.833 1.667 2.497 2.084 3.187.551-1.385.139-4.711-.417-6.513 1.25 1.107 3.052 1.802 4.16 1.802.138-2.357-1.525-6.516-3.052-9.568-13.311 3.747-41.173 5.132-69.174 6.655" fill="#337321" stroke="#000" stroke-width=".444" transform="matrix(1.3333333 0 0 -1.3333333 923.31253 328.26147)"/><path clip-path="url(#ac)" d="m0 0c-.064 1.021 2.219 3.334 6.3 3.313 4.896-.031 9.421-3.625 13.348-3.369 3.934.256 1.994-1.02 1.169-1.363-.825-.339-1.311-.852-1.02-1.472.29-.625-.214-1.033-1.794-.455-3.494 1.276-6.989-.508-11.599.481-3.999.865-6.308 1.333-6.404 2.865" fill="#f7e017" transform="matrix(1.3333333 0 0 -1.3333333 985.1888 230.3416)"/><path clip-path="url(#ad)" d="m0 0c-4.16-4.988-8.318-4.159-9.152-.969-.829 3.187 2.222 4.711 1.111 7.485s1.802 4.019 3.187 2.774c1.385-1.251 5.822 2.769 7.766-1.39 1.941-4.158 3.465-7.067 2.354-8.729-1.108-1.667-4.437-.834-5.266.829" fill="#f7e017" stroke="#000" stroke-width=".444" transform="matrix(1.3333333 0 0 -1.3333333 929.04427 339.35067)"/><path clip-path="url(#ae)" d="m0 0c-.781 1.824 3.539 5.335 5.753 2.839 2.218-2.496 5.686 2.704 7.628-1.245 1.94-3.951 2.56-6.03 3.533-8.249.973-2.218-5.266-3.399-7.211-1.459.282-1.314-5.388-2.344-6.928 1.389-.83 2.011-1.732 4.299-2.775 6.725" fill="#f7e017" stroke="#000" stroke-width=".444" transform="matrix(1.3333333 0 0 -1.3333333 952.88413 329.36693)"/><path clip-path="url(#af)" d="m0 0c-1.042 1.94 4.024 4.71 6.655 1.176.69 1.454 5.682 1.732 6.031-2.496.346-4.229.485-6.721.624-8.388.138-1.663-3.047-3.186-5.339 1.042-4.09-.833-5.961 1.455-6.443 3.881-.486 2.427-.972 3.604-1.528 4.785" fill="#f7e017" stroke="#000" stroke-width=".444" transform="matrix(1.3333333 0 0 -1.3333333 991.33067 332.41653)"/><path clip-path="url(#ag)" d="m0 0c-.624 1.389 3.534 4.159 6.374 2.079 2.843-2.079 6.78 1.797 8.461-1.94 3.394-7.554 3.602-8.109 2.561-9.564-1.042-1.454-5.474-.903-6.585 1.106-.209-1.385-4.034-1.154-6.026-.068-2.289 1.25-3.886 5.895-4.785 8.387" fill="#337321" stroke="#000" stroke-width=".444" transform="matrix(1.3333333 0 0 -1.3333333 932.6484 328.72373)"/><path clip-path="url(#ah)" d="m0 0c-.968 2.149 5.548 4.02 8.388.278 1.454 1.32 4.645 1.389 6.446-2.699 1.802-4.09 2.08-6.379.764-7.42-.929-.728-4.302-1.315-5.41.556-1.523-.973-6.237-.139-7.275 2.496-1.037 2.631-1.94 4.919-2.913 6.789" fill="#337321" stroke="#000" stroke-width=".444" transform="matrix(1.3333333 0 0 -1.3333333 971.55213 329.188)"/><path clip-path="url(#ai)" d="m0 0c-.139 1.945 3.399 2.843 4.716 0 1.314-2.839 5.525-.283 5.889-4.989.067-.902-.485-4.366-1.8-6.029-1.316-1.663-7.762 0-8.179 3.533-.417 3.534-.556 5.544-.626 7.485" fill="#337321" transform="matrix(1.3333333 0 0 -1.3333333 1008.336 334.63907)"/><path clip-path="url(#aj)" d="m0 0c.551-1.038.759-2.076.833-3.812m-10.883 4.437c.139-4.09 5.613-4.368 5.817-7.277m-5.266-.347c-1.106 2.081-2.839 4.089-4.294 4.784m-10.123 6.581c.833-1.176 1.454-2.148 1.94-3.255m-.139-6.308c-.829 1.315-1.662 2.496-1.866 3.464m-13.866 4.854c2.426-.278 4.09-2.565 4.849-3.603.769-1.043 2.361-2.913 3.607-3.122m-7.211-.556c-.967.695-2.422 2.084-3.185 3.538m-10.884-3.26c-.899 1.181-2.075 3.122-2.496 4.646m-11.018-4.298c-1.524 2.079-3.607 5.409-6.239 1.801m65.708 1.733c-.138 1.945 3.4 2.843 4.716 0 1.314-2.839 5.525-.283 5.89-4.989.066-.902-.486-4.366-1.801-6.029-1.316-1.663-7.762 0-8.179 3.533-.417 3.534-.556 5.544-.626 7.485z" fill="none" stroke="#000" stroke-width=".444" transform="matrix(1.3333333 0 0 -1.3333333 1014.6237 334.63907)"/></svg>