<svg version="1.1" xmlns="http://www.w3.org/2000/svg" xmlns:xlink="http://www.w3.org/1999/xlink" width="144" height="96" viewBox="0 0 1080 720">
<style><![CDATA[.B{fill:#fd0}.C{fill:#c12}]]></style>
	<g>
		<path class="B" d="m0 0h1080v720h-1080z"/>
		<path d="m0 50v320l1080 150v-170z" fill="#fff"/>
		<path d="m0 220v150l1080 300v-150z"/>
		</g>
	<g class="C" transform="translate(-180)">
		<path d="m695.74 569.72c-19.36-2.57-37.11-8.73-49.44-17.17-2.39-1.64-4.64-2.98-4.99-2.98-0.36 0-0.65 1.82-0.65 4.07 0 6.37-2.56 9.58-9 11.25-6.16 1.6-15.56-1.63-23.18-7.95-7.89-6.55-17-11.55-24.71-13.55-6.35-1.66-14.78-1.39-20.87 0.65-2.83 0.95-6.05 2.29-7.17 2.98-1.11 0.69-2.36 1.25-2.76 1.25-1.08 0-0.93-6.85 0.2-9.04 1.49-2.87 5.16-5.7 9.44-7.26 2.16-0.79 3.93-1.8 3.93-2.25s-0.73-2.1-1.62-3.65c-2.9-5.08-1.71-10 3.35-13.87 5.18-3.96 13.95-4.64 21.7-1.69 1.95 0.74 3.77 1.35 4.04 1.35 1.02 0 0.4-1.43-2.41-5.52-3.24-4.74-3.88-7.08-3.48-12.72 0.52-7.14 6.34-12.98 13.47-13.5 5.82-0.42 9.44 1.54 18.03 9.72 25.65 24.46 53.54 37.94 86.07 41.59 8.21 0.92 24.73 0.43 34.42-1.03 29.27-4.41 58.76-19.13 81.79-40.82 6.38-6.01 9.45-7.6 14.68-7.62 4.55-0.02 7.74 1.45 11 5.05 2.97 3.3 3.98 6.43 3.66 11.44-0.21 3.21-0.73 4.79-2.64 7.9-2.82 4.59-2.34 5.01 3.24 2.85 7.54-2.94 16.83-1.58 21.84 3.18 4.41 4.19 4.83 8.38 1.4 14.06-1.25 2.08-2.27 4.03-2.27 4.34 0 0.57 0.95 0.84 5.53 1.58 5.99 0.96 9.42 5.41 9.42 12.21 0 2.04-0.25 3.7-0.56 3.7-0.3 0-2.57-0.83-5.04-1.85-6.98-2.88-10.95-3.62-19.11-3.57-6.21 0.04-8.35 0.33-12.68 1.74-6.63 2.17-13.72 6.35-19.5 11.5-6.37 5.68-10.38 7.47-16.58 7.42-5.76-0.06-9.7-1.73-11.78-5.02-1.11-1.76-1.27-2.83-1-6.81 0.18-2.59 0.14-4.71-0.07-4.71-0.22 0-2.46 1.42-4.99 3.17-6.64 4.56-10.87 6.82-18.47 9.83-23.18 9.17-56.63 13.14-82.24 9.75zm10.6-44.55c-38.58-3.703-75.494-23.798-97.939-55.657-24.37-33.235-32.05-77.117-24.611-117.24 3.953-18.267 11.929-36.546 25.544-49.554-10.85 23.003-14.516 49.369-8.73 74.29 8.989 49.753 51.036 91.87 101.34 99.156 19.9 5.761 40.487-0.324 59.496-6.493 41.935-14.779 73.879-54.583 77.777-99.079 3.336-24.078-0.36-49.114-11.207-70.916 6.183 3.269 13.987 16.087 18.589 24.707 16.003 31.003 16.734 68.155 7.313 101.24-12.78 42.097-44.965 78.978-87.511 92.382-19.308 6.308-39.842 8.231-60.058 7.168z"/>
		<g id="A" class="C">
			<path d="m512.02 469.9c-2.528-0.396-5.316 2.092-4.363 4.697 1.823 2.633 4.964 3.92 7.798 5.18 6.792 2.722 14.179 3.782 21.471 3.606-2.513-6e-3 0.863 0.026 1.802-1e-3 5.774 0.017 11.516-1.023 16.944-2.98 3.018-1.061 6.864-2.024 8.101-5.363 1.207-2.174-0.98-4.346-3.186-3.911-3.071 0.671-5.943 2.064-8.99 2.858-6.572 1.853-13.494 2.57-20.303 2.012-4.979-0.608-9.804-2.2-14.41-4.143-1.597-0.705-3.096-1.732-4.865-1.954z"/>
			<path d="m514.83 459.52c-2.556-0.381-4.758 2.561-3.692 4.908 1.965 2.848 5.267 4.365 8.356 5.699 5.371 2.149 11.204 3.047 16.975 2.875-2.192-6e-3 0.753 0.026 1.565-1e-3 4.907 6e-3 9.788-0.964 14.325-2.831 2.773-1.079 6.169-2.125 7.324-5.177 0.896-1.677 0.213-4.116-1.9-4.248-1.929-0.095-3.593 1.132-5.378 1.683-6.485 2.682-13.622 3.818-20.614 3.215-4.357-0.561-8.519-2.168-12.47-4.031-1.485-0.717-2.821-1.836-4.491-2.092zm3.45-9.95c-2.191-0.263-3.698 2.209-3.329 4.182 0.327 1.733 1.882 2.898 3.169 3.961 5.329 3.897 12.083 5.557 18.626 5.34-2.542-9e-3 3.409 0.042 1.595-7e-3 4.144-0.017 8.238-1.031 11.966-2.825 2.489-1.082 5.412-2.336 6.25-5.177 0.401-1.324 0.652-3.227-0.841-3.97-1.564-0.874-3.117 0.47-4.539 1.016-4.789 2.437-10.125 3.793-15.507 3.768-4.651 0.157-9.033-1.799-13.068-3.907-1.464-0.746-2.671-2.042-4.321-2.38zm-36.75-146.87c-3.257 3.261-0.77 9.271-0.946 13.543 1.688 13.158 3.785 26.484 8.697 38.87 6.015 12.102 18.791 18.573 26.533 29.268 2.768 5.155 1.785 11.355 2.368 16.994 0.458 15.366 0.316 30.743 0.047 46.111 6.939 3.482 14.474 6.986 22.456 5.647 4.731-1.13 13.512-1.833 14.496-6.544l-0.983-79.506c-2.69-8.118-10.951-12.32-17.129-17.514-5.099-5.026-9.844-10.435-14.188-16.099-2.622-4.418-12.868-6.009-9.161 1.676 2.173 6.654 7.72 11.61 9.109 18.602 0.303 3.832 4.878 10.879 0.973 13.114-2.484-4.222-6.082-7.815-10.682-9.957-4.432-3.304-11.759-4.68-13.359-10.517-1.175-8.28-5.415-15.782-10.887-21.986 1.41-7.437 5e-3 -16.737-6.423-21.49l-0.921-0.213zm9.91 1.49c-2.963 0.478-2.862 4.254-1.491 6.239 1.458 4.288 1.855 8.945 1.066 13.409 5.267 6.166 9.347 13.543 10.576 21.64 0.03 3.044 3.233 4.051 5.309 5.555 4.871 3.102 10.348 5.351 14.686 9.233 0.913 0.976 1.602 2.027 0.957 0.035-0.677-2.546-1.025-5.358-3.021-7.285-2.735-2.939-6.15-5.563-10.133-6.459-0.332-4.114-2.291-7.893-4.102-11.532-2.007-3.479-4.103-7.207-7.541-9.463 0.138-6.098 0.038-12.495-2.586-18.122-0.77-1.445-1.903-3.163-3.72-3.25zm8.29 2.43c-2.064 0.613-1.67 3.159-1.016 4.716 0.989 4.316 1.144 8.773 1.063 13.184 3.791 3 6.162 7.35 8.322 11.586 1.353 2.83 2.637 5.752 3.156 8.865 3.076 1.019 5.767 2.946 8.171 5.077-0.953-2.882-3.077-5.113-4.504-7.744-1.552-2.737-3.034-5.591-3.69-8.692-2.958-3.158-4.587-7.63-3.941-11.952 0.133-4.776-1.409-9.711-4.606-13.311-0.805-0.793-1.766-1.669-2.954-1.73zm9.43 1.35c-1.122 0.198-1.805 1.266-2.406 2.137-0.232 0.873 0.838 1.811 1.008 2.76a21.77 21.77 0 0 1 1.416 10.426c-0.086 2.502 0.809 4.946 2.084 7.065 0.368-1.563 1.816-2.686 3.386-2.841 0.571-0.1 1.411 0.188 1.078-0.683-0.399-4.785-1.128-9.598-2.801-14.119-0.648-1.615-1.384-3.315-2.784-4.42-0.284-0.202-0.623-0.375-0.982-0.325z"/>
			</g>
		<use transform="matrix(-1,0,0,1,1440,0)" width="100%" height="100%" xlink:href="#A"/>
			<path d="m715.67 475.98c-13.493-1.285-25.667-11.12-29.829-24 0.224-2.219 2.987 1.241 4.292 1.474 2.45 1.361 5.1 2.48 7.921 2.654 3.557 1.529 5.756 5.035 9.152 6.863 1.576 1.228 7.154 3.641 6.118-0.264-1.307-2.04-2.206-4.624-1.081-6.961 1.892-4.15 4.802-7.764 7.731-11.226 2.153-0.72 3.594 3.526 5.134 4.957 2.131 3.279 4.7 7.279 3.447 11.352-1.22 1.509-2.022 6.047 1.241 4.522 4.021-1.769 7.316-4.742 10.651-7.517 2.918-2.038 6.654-2.182 9.712-3.97 1.418-0.359 4.371-3.195 4.986-1.623-1.676 4.488-4.482 8.507-7.482 12.211-4.859 5.55-11.432 9.725-18.786 10.902-4.346 0.796-8.806 0.964-13.207 0.627zm15.86-15.76c0.297-2.708-0.32-5.474-1.703-7.935-2.123-4.326-5.121-8.166-8.046-11.961-2.757-1.615-4.287 3.658-6.12 5.171-2.857 4.277-6.443 8.656-6.617 14.036-1.607 2.501-4.604-2.041-5.896-3.536-2.467-3.491-4.336-7.621-4.03-11.987-0.292-7.036 1.057-14.041 3.62-20.581 1.935-5.583 5.076-11.006 4.756-17.105 0.224-4.591-0.707-9.658-4.426-12.745-3.538-2.776 2.292-3.367 4.143-1.928 3.169 0.213 4.883 5.448 7.777 4.152 1.153-2.735 1.382-5.997 3.76-8.13 2.334-3.196 4.773 1.356 5.572 3.488 1.647 1.872-0.093 6.507 2.582 6.628 3.206-2.247 5.492-6.023 9.592-6.845 1.662-0.948 4.503-0.127 2.311 1.785-3.034 2.844-5.626 6.4-6.179 10.631-0.928 5.307 0.399 10.69 2.712 15.47 4.447 9.39 7.885 19.996 5.636 30.444-1.043 4.644-4.198 8.645-8.031 11.341-0.485 0.293-1.25 0.272-1.413-0.395zm-4.8-70.59c-1.456-2.624-3.224-5.21-5.673-6.995-2.381-5e-3 -3.851 2.998-5.468 4.572-1.134 2.11-2.512 5.639-5.305 2.88-4.444-2.593-5.231-8.275-5.202-12.958-0.28-7.591 2.777-14.674 5.492-21.587 1.727-4.328 1.302-9.199 0.248-13.634-1.327-5.092-5.414-8.623-8.56-12.595 0.214-1.536 4.235-0.697 5.748-0.405 3.359 0.851 5.366 3.825 7.87 5.926 1.782-0.539 1.054-4.139 1.884-5.833 0.061-2.382 3.233-5.523 4.541-2.112 1.959 2.167-0.063 6.464 2.469 7.814 2.411-0.893 3.601-3.528 5.867-4.72 2.23-1.52 5.378-1.69 7.778-0.496 0.845 2.213-2.64 4.055-3.65 5.977-4.052 5.006-5.476 11.91-3.74 18.112 1.376 4.865 3.813 9.406 4.655 14.434 1.013 5.652 0.979 11.589-0.484 17.159-0.875 3.382-3.802 5.64-6.826 7.045-0.746-0.694-1.139-1.714-1.644-2.583zm-15.12-62.74c-3.36-2.46-4.47-4.81-4.47-9.46 0-2.38 0.44-3.67 2.01-5.83 2.31-3.2 1.89-4.21-1.38-3.27-5.26 1.51-7.77 0.13-7.95-4.35-0.08-2.19 0.38-3.12 3.33-6.66 2.36-2.84 3.22-4.33 2.75-4.8-0.46-0.46-3.25 1.96-8.98 7.79-4.57 4.65-9.71 9.4-11.42 10.56-9.84 6.64-19.24 7.67-23.53 2.56-2.2-2.61-2.08-4.08 0.46-5.66 1.17-0.72 3.14-2.38 4.39-3.69 2.95-3.07 11.74-9.41 16.1-11.61 3.54-1.79 4.38-3 2.08-3-2.98 0-12.54 6.22-19.79 12.88-2.13 1.97-5.2 4.16-6.81 4.87-3.62 1.6-10.73 2.19-13.89 1.15-2.23-0.74-6.3-4.58-6.3-5.95 0-0.36 0.93-1.16 2.06-1.77 1.13-0.6 3.16-2.07 4.5-3.24 5.8-5.09 16.79-10.33 25.51-12.16 2.77-0.58 1.75-1.98-1.34-1.84-5.99 0.26-17.88 5.83-24.98 11.69-8.32 6.86-20.87 6.21-24.91-1.29-0.7-1.29-1.11-2.5-0.91-2.69 0.19-0.19 2.66-0.93 5.49-1.65 3.06-0.77 9.12-3.28 14.91-6.17 9.11-4.54 11.81-5.51 18.08-6.52 2.82-0.45 2.97-1.83 0.23-2.15-3.53-0.42-8.94 1.35-18.5 6.05-12.28 6.04-15.72 7.08-22.19 6.7-5.9-0.36-9.23-1.87-14.02-6.4-3.13-2.97-7.57-10.51-6.7-11.38 0.21-0.21 1.65 0 3.2 0.45 1.72 0.51 6.65 0.85 12.59 0.86 8.31 0.02 10.52-0.2 14.95-1.48 7.41-2.14 17.26-7.15 24-12.18 12.89-9.64 23.4-13.51 36.8-13.57 12.37-0.05 20.24 2.81 27.21 9.88 2.36 2.39 4.37 3.94 4.7 3.61 0.31-0.31 0.65-4.49 0.75-9.29 0 0 3.64-0.35 4.41 0.67 0 7.79 0.09 8.4 1.22 8.4 0.74 0 1.53-0.76 2.02-1.94 1.06-2.55 4.98-6.04 9.17-8.16 9.05-4.59 24.71-4.73 37.29-0.34 5.3 1.86 11.18 5.18 16.78 9.5 5.62 4.32 17.11 10.1 23.9 12.03 6.87 1.95 18.98 2.44 25.19 1.03 2.56-0.58 4.96-1.06 5.34-1.06 2.29 0-1.61 7.63-6.19 12.1-8.37 8.18-19.26 8.14-34.58-0.12-9.55-5.14-20.97-7.95-20.97-5.15 0 0.58 0.6 0.97 1.49 0.97 3.32 0 9.73 2.23 18.67 6.47 9.67 4.6 15.1 6.54 18.32 6.54 2.34 0 2.41 1.45 0.23 4.65-2.31 3.41-6.23 5.1-11.77 5.09-5.29-0.02-8.23-1.18-12.96-5.11-7.91-6.58-27.62-13.92-26.86-10 0.15 0.78 1.1 1.26 3.13 1.57 6.86 1.05 14.91 4.89 23.15 11.06 2.54 1.91 5.18 3.79 5.85 4.19 1.13 0.66 1.15 0.86 0.26 2.53-1.48 2.76-5.21 4.9-9.25 5.32-5.23 0.54-9.78-1.02-14.49-4.96-9.94-8.32-19.31-14.34-22.31-14.34-2.45 0-1.35 1.35 2.97 3.64 5.68 3.01 11.52 7.08 15.82 11.03 2.03 1.88 4.32 3.74 5.08 4.15 1.8 0.96 1.73 2.37-0.25 4.96-2.02 2.64-5.36 3.8-9.69 3.34-8.64-0.91-15.38-5.08-25.97-16.07-4.14-4.29-7.83-7.8-8.21-7.8-1.41 0-0.58 1.91 2.15 4.97 3.38 3.78 4.03 5.91 2.75 8.98-1.13 2.72-3.01 3.35-6.87 2.31-3.95-1.07-4.57-0.1-1.98 3.12 3.86 4.81 3.29 10.7-1.44 14.75-1.47 1.25-3.01 2.28-3.43 2.28-0.41 0-1.45-1.07-2.32-2.38-3.04-4.62-5.71-4.59-8.67 0.08-1.03 1.63-1.9 2.95-1.93 2.94-0.04-0.01-1.43-1.01-3.08-2.23z"/>
			<path d="m726.67 233.03-5.13 4.06-4.6-3.47v27.74l9.73 0.12zm-31.78-28.78c-1.02 13.11-4.35 22.26-8.98 32.35l11.1-10.29 7.72 9.17 8.36-9.33 8.53 7.88 8.2-8.2 8.52 9.97 7.4-8.2 12.54 9c-4.55-10.09-10.71-18.64-9.94-32.84-12.15 9.03-41.02 10.66-53.45 0.49zm22.06-6.69c-4.46 0.08-9.16 0.14-13.39 0.97-2.93 0.58-5.59 1.53-7.81 3.1 0.36 8.53 41 12.09 51.9 0.16-2.29-1.67-5.09-2.66-8.17-3.26-4.07-0.79-8.57-0.87-12.84-0.94l0.02 7.04-9.71-0.03zm7.95-43.59-6.31 0.05v49.38l6.44 0.03z"/>
			<path d="m724.89 155.24-2.41 23.64 24.32 11.88-12.31-16.46 16.81-5.45z"/>
			<path d="m722.18 149.08c-3.69 0-6.42 1.38-6.42 3.02s2.73 3.03 6.42 3.03 6.4-1.39 6.4-3.03-2.71-3.02-6.4-3.02z"/>
			</g>
	</svg>