<svg width="400" height="400" id="svg1325" xmlns="http://www.w3.org/2000/svg">
  <path d="M 0,400 400,400 400,0 0,0 0,400 z" id="path1341" style="fill-opacity: 1; stroke: none; fill: rgb(0, 96, 53);"/>
  <path d="m 50,350 300,0 0,-300 -300,0 0,300 z" id="path1339" style="fill:#ed1c24;fill-opacity:1;stroke:none"/>
  <path d="M 278.33765,261.86491 C 248.12531,260.96004 109.5964,174.48445 108.64659,160.7217 l 7.64965,-12.75734 c 13.74098,19.96635 155.36273,104.05893 169.27127,101.07795 l -7.22986,12.8226" id="path1343" style="fill:#fff200;stroke:none"/>
  <path d="m 114.69029,146.2331 c -2.7101,7.29369 36.14932,31.31787 82.90269,59.75354 46.75248,28.43391 87.06529,46.00578 90.05318,43.48606 0.18256,-0.32544 1.47014,-2.54088 1.35197,-2.52324 -0.56001,0.84402 -1.92344,1.11037 -4.0506,0.49741 -12.63066,-3.64331 -45.57514,-18.76514 -86.37387,-43.50634 -40.79785,-24.74297 -76.29369,-47.54389 -81.81089,-57.23206 -0.38363,-0.67116 -0.65702,-1.89618 -0.60146,-2.84868 l -0.13405,-0.002 -1.1747,2.05317 -0.16139,0.32191 -8.8e-4,0 z m 164.36346,116.03662 c -0.51238,0.92957 -1.46749,0.96044 -3.28157,0.76112 -11.29986,-1.2506 -45.58925,-17.92465 -86.16221,-42.21253 -47.21196,-28.26369 -86.20367,-54.01119 -81.96787,-60.74396 l 1.15088,-2.03465 0.22665,0.0706 c -3.80366,11.40531 76.94806,57.57778 81.70154,60.52171 46.72426,28.9472 86.11459,45.85055 89.60077,41.45847 l -1.26819,2.18105 0,-0.002 z" id="path1347" style="fill:#fff200;stroke:#000000;stroke-width:0.57293051;stroke-linecap:round;stroke-linejoin:round"/>
  <path d="m 200.26515,169.05872 c 30.23703,-0.23901 67.54959,-4.13191 89.02312,-12.69031 l -4.62648,-7.51681 c -12.69239,7.02469 -50.21043,11.64432 -84.65239,12.33488 -40.73612,-0.37483 -69.48978,-4.16807 -83.89748,-13.83507 l -4.3672,8.00453 c 26.48364,11.20688 53.62253,13.58725 88.52043,13.70278" id="path1349" style="fill:#fff200;stroke:none"/>
  <path d="m 290.53882,156.53951 c -0.73904,1.18181 -14.74283,6.01134 -35.37325,9.57528 -13.98791,2.13254 -32.23367,3.95552 -55.00448,3.97757 -21.63315,0.0203 -39.30479,-1.51959 -52.68418,-3.33287 -21.65609,-3.39549 -32.83336,-8.12007 -36.96509,-9.78959 0.39509,-0.78581 0.64908,-1.33703 1.03006,-2.07081 11.89515,4.73605 23.12446,7.59179 36.27897,9.61585 13.29121,1.80005 30.7503,3.36197 52.27586,3.34169 22.6641,-0.0229 40.70878,-1.98438 54.61556,-4.05342 21.15516,-3.41224 32.71077,-7.80345 34.33436,-9.84251 l 1.49395,2.57881 -0.002,0 z m -4.0603,-7.62265 c -2.29295,1.8415 -13.71805,5.89316 -33.81933,9.10344 -13.41467,1.92264 -30.4725,3.64331 -52.26528,3.66448 -20.70362,0.0203 -37.61946,-1.37495 -50.48471,-3.24909 -20.41436,-2.66612 -31.27856,-7.47536 -35.19598,-8.87765 0.3898,-0.67381 0.78666,-1.34232 1.1941,-2.01349 3.04787,1.53459 13.53285,5.79086 34.22589,8.72244 12.71973,1.80358 29.66114,3.14766 50.26158,3.1265 21.69048,-0.0221 38.55341,-1.77624 51.88342,-3.6883 20.20535,-2.77989 31.07748,-7.9472 32.72753,-9.24102 l 1.47278,2.45093 0,0.002 z" id="path1353" style="fill:#fff200;stroke:#000000;stroke-width:0.57315809;stroke-linecap:round;stroke-linejoin:round"/>
  <path d="m 100.97841,205.4857 c 18.59764,10.00302 59.90523,15.04421 98.99395,15.39082 35.59108,0.0564 81.95817,-5.50158 99.29733,-14.68968 L 298.79257,196.175 c -5.4246,8.47726 -55.11295,16.60879 -99.2056,16.2763 -44.09266,-0.3325 -85.03779,-7.14288 -98.68705,-15.9588 l 0.0794,8.99143" id="path1355" style="fill:#fff200;stroke:none"/>
  <path d="m 300.22038,204.04724 8.8e-4,2.38743 c -2.60603,3.11591 -18.94598,7.8255 -39.43707,11.14161 -15.59474,2.39095 -35.92709,4.19453 -61.2616,4.19453 -24.06898,0 -43.26278,-1.71626 -58.14847,-4.00138 -23.52925,-3.42636 -38.57898,-9.42623 -41.59951,-11.21746 l 0.0132,-2.78519 c 9.07481,6.03339 33.66059,10.44664 41.91699,11.79778 14.7878,2.27013 33.86784,3.97317 57.81688,3.97317 25.21634,0 45.43403,-1.79123 60.93088,-4.16631 14.70138,-2.12373 35.644,-7.64647 39.76691,-11.32418 l 8.8e-4,0 z m 0.01,-8.49225 8.8e-4,2.38743 c -2.60603,3.11415 -18.94598,7.82373 -39.43707,11.13985 -15.59474,2.39095 -35.92709,4.19453 -61.2616,4.19453 -24.06898,0 -43.26278,-1.7145 -58.14847,-4.00139 -23.52925,-3.42459 -38.57898,-9.42446 -41.59951,-11.21569 l 0.0132,-2.78518 c 9.07481,6.0325 33.66059,10.44663 41.91699,11.79601 14.7878,2.27189 33.86784,3.97581 57.81688,3.97581 25.21634,0 45.43403,-1.79211 60.93088,-4.16896 14.70138,-2.12372 35.644,-7.64646 39.76691,-11.32417 l 8.8e-4,0.002 z" id="path1359" style="fill:#fff200;stroke:#000000;stroke-width:0.57282209;stroke-linecap:round;stroke-linejoin:round"/>
  <path d="m 199.88505,260.14865 c -42.77156,-0.25489 -79.42092,-11.65932 -87.15965,-13.54403 l 5.64332,8.83444 c 13.67042,5.75028 49.42377,14.32014 81.9273,13.37117 32.50353,-0.94809 60.90972,-3.46605 80.92811,-13.21066 l 5.78618,-9.15547 c -13.6422,6.42497 -60.0675,13.63928 -87.12526,13.70455" id="path1361" style="fill:#fff200;stroke:none"/>
  <path d="m 283.39891,253.54641 c -0.85016,1.2991 -1.71708,2.58233 -2.59634,3.8294 -9.44168,3.32934 -24.31944,6.82449 -30.59684,7.84402 -12.8238,2.64231 -32.66492,4.59405 -50.27394,4.60287 -37.89021,-0.55474 -68.90508,-7.9719 -83.49621,-14.29897 l -1.17734,-2.02407 0.19225,-0.30427 1.99664,0.77435 c 25.94832,9.28335 55.0909,12.98664 82.69809,13.65163 17.53758,0.0617 35.09456,-2.00996 49.29237,-4.54908 21.77073,-4.3621 30.57391,-7.64999 33.27519,-9.14047 l 0.68701,-0.38541 -8.8e-4,0 z m 5.01716,-8.27529 c 0.022,0.0256 0.0441,0.0503 0.0653,0.0776 -0.63585,1.07332 -1.29111,2.16517 -1.96224,3.26231 -5.03568,1.80005 -18.7017,5.79879 -38.65923,8.58926 -13.14922,1.79123 -21.32184,3.52602 -47.47918,4.03402 -49.01545,-1.24707 -80.74995,-10.83117 -88.28937,-13.19478 l -1.11737,-2.14312 c 28.40619,7.41539 57.42178,12.59152 89.40763,13.12069 23.9314,-0.50976 34.11212,-2.27189 47.15198,-4.04989 23.27086,-3.61862 34.9958,-7.44979 38.51548,-8.55575 -0.0441,-0.0635 -0.0961,-0.13053 -0.15433,-0.19932 l 2.52313,-0.9428 -0.002,0.002 z" id="path1365" style="fill:#fff200;stroke:#000000;stroke-width:0.54985231;stroke-linecap:round;stroke-linejoin:round"/>
  <path d="m 199.93885,110.88098 v 0.002 c -49.11687,0 -88.90847,39.79954 -88.90847,88.92652 0,49.12698 39.7916,88.92828 88.90847,88.92828 49.11599,0 88.77442,-39.66813 88.77442,-88.79334 0,-49.12699 -39.65755,-89.06322 -88.77442,-89.06322 z m 0,-8.79981 c 53.81567,0 97.70813,43.90058 97.70813,97.72833 0,53.82686 -43.89246,97.72921 -97.70813,97.72921 -53.81567,0 -97.70813,-43.90146 -97.70813,-97.72921 0,-53.82775 43.89246,-97.72833 97.70813,-97.72833" id="path1367" style="fill:#fff200;stroke:none"/>
  <path d="m 200.00499,100.90642 c 54.53354,0 99.01071,44.48266 99.01071,99.02214 0,54.53772 -44.47805,99.02038 -99.01071,99.02038 -54.53354,0 -99.0107,-44.4809 -99.0107,-99.02038 0,-54.53948 44.47804,-99.02214 99.0107,-99.02214 z m -96.83239,99.02214 c 0,53.25978 43.73636,96.84197 96.83239,96.84197 53.09692,0 96.83328,-43.58219 96.83328,-96.84197 0,-53.26154 -43.73725,-96.84373 -96.83328,-96.84373 -53.09603,0 -96.83239,43.58395 -96.83239,96.84373 z" id="path1371" style="fill:#fff200;stroke:#000000;stroke-width:0.57282209;stroke-linecap:round;stroke-linejoin:round"/>
  <path d="m 200.0923,109.13673 c 49.73068,0 90.69345,40.82083 90.69345,90.70364 0,49.88369 -40.96277,90.70275 -90.69345,90.70275 -49.7298,0 -90.69345,-40.81906 -90.69345,-90.70275 0,-49.88281 40.96365,-90.70364 90.69345,-90.70364 z m -88.51514,90.70364 c 0,48.68512 39.97944,88.52434 88.51514,88.52434 48.5357,0 88.51514,-39.83922 88.51514,-88.52434 0,-48.68601 -39.97856,-88.52523 -88.51514,-88.52523 -48.53658,0 -88.51514,39.83922 -88.51514,88.52523 z" id="path1375" style="fill:#fff200;stroke:#000000;stroke-width:0.57282209;stroke-linecap:round;stroke-linejoin:round"/>
  <path d="m 195.99761,299.47281 h 8.61446 v -198.9615 h -8.61446 z" id="path1377" style="fill:#fff200;stroke:#000000;stroke-width:0.57282209"/>
  <path d="m 203.22571,99.374486 2.15979,0 0.0185,201.251024 -2.16155,0 -0.0159,-201.251024 -8.8e-4,0 z m -8.42132,0.0018 2.17655,0 0.003,201.247504 -2.17831,0 0,-201.247504 -8.8e-4,0 z" id="path1385" style="fill:#fff200;stroke:#000000;stroke-width:0.57295704;stroke-linecap:round;stroke-linejoin:round"/>
  <path d="m 100.63976,195.71198 c 12.41636,-11.43089 58.22696,-18.84275 98.87225,-18.65049 40.64528,0.19138 88.78059,8.54252 99.25234,18.40707 l 0.10495,8.52488 c -8.76967,-8.24883 -46.1669,-18.08604 -99.27704,-18.19628 -53.11102,-0.11025 -91.67236,9.99772 -98.95426,18.41677 l 0.002,-8.50195" id="path1387" style="fill:#fff200;stroke:none"/>
  <path d="m 100.61507,196.10797 0,7.35719" id="path1389" style="fill:none;stroke:#000000;stroke-width:0.57242781;stroke-linecap:round;stroke-linejoin:round"/>
  <path d="m 299.08978,196.41136 0,7.35542" id="path1391" style="fill:none;stroke:#000000;stroke-width:0.57242781;stroke-linecap:round;stroke-linejoin:round"/>
  <path d="m 200.05262,184.59595 c 23.38285,-0.0432 46.06988,2.21544 64.06517,5.71941 18.56942,3.71211 31.63662,8.35555 36.10524,13.57137 l -0.005,2.58233 c -5.38844,-6.49023 -22.97276,-11.24832 -36.51796,-13.96824 -17.85771,-3.47398 -40.39306,-5.71677 -63.64715,-5.67355 -24.53816,0.0459 -47.38658,2.36978 -64.98413,5.8032 -14.1202,2.80193 -32.95065,8.36789 -35.30182,13.858 l 0,-2.68905 c 1.29111,-3.8003 15.31254,-9.47915 34.98433,-13.41703 17.72896,-3.45723 40.61971,-5.74146 65.30162,-5.78644 z m 0.01,-8.49225 c 23.38285,-0.0423 46.06988,2.21721 64.06518,5.71941 18.56941,3.71387 31.63661,8.35555 36.10523,13.57137 l -0.005,2.58234 c -5.38845,-6.48847 -22.97277,-11.24657 -36.51797,-13.96649 -17.85771,-3.47574 -40.39306,-5.71853 -63.64715,-5.67355 -24.53816,0.0441 -47.27634,2.36979 -64.87477,5.80144 -13.62633,2.58321 -33.22581,8.36965 -35.41206,13.85976 l 0,-2.69081 c 1.29111,-3.75885 15.59651,-9.64142 34.98521,-13.41703 17.72896,-3.45723 40.61971,-5.7397 65.30162,-5.78644 z" id="path1395" style="fill:#fff200;stroke:#000000;stroke-width:0.57282209;stroke-linecap:round;stroke-linejoin:round"/>
  <path d="m 199.57639,132.7905 c 36.84867,-0.18433 68.98974,5.15232 83.69464,12.68501 l 5.36375,9.27895 c -12.78058,-6.888 -47.45624,-14.05027 -89.00548,-12.97871 -33.85373,0.20814 -70.02686,3.7271 -88.17649,13.40998 l 6.40352,-10.70946 c 14.89539,-7.72408 50.02171,-11.64256 81.72006,-11.68401" id="path1397" style="fill:#fff200;stroke:none"/>
  <path d="m 284.20409,146.97394 3.6502,5.86052" id="path1399" style="fill:none;stroke:#000000;stroke-width:0.57409382;stroke-linecap:round;stroke-linejoin:round"/>
  <path d="m 200.06408,140.45284 c 21.0167,-0.0556 41.32523,1.12977 57.47646,4.04371 15.04091,2.7993 29.38511,7.00088 31.43554,9.26043 l 1.59008,2.80987 c -4.98806,-3.25702 -17.40089,-6.88358 -33.3387,-9.906 -16.00571,-3.00832 -36.30013,-4.00492 -57.20042,-3.95024 -23.72151,-0.0811 -42.15246,1.17123 -57.96856,3.92907 -16.728,3.13002 -28.33388,7.60148 -31.19743,9.72609 l 1.55833,-2.97039 c 5.56306,-2.8381 14.39006,-6.25917 29.22284,-8.9297 16.35671,-2.98802 34.98256,-3.88408 58.42274,-4.01284 l -8.8e-4,0 z m -0.009,-8.48432 c 20.11275,-0.0529 39.97239,1.06804 55.4516,3.85058 12.20911,2.37684 24.28329,6.08718 28.70428,9.38918 l 2.32559,3.69535 c -3.95359,-4.39473 -18.83575,-8.55927 -31.9735,-10.89202 -15.36104,-2.64936 -34.39522,-3.69799 -54.50797,-3.86556 -21.10754,0.0591 -40.6153,1.35202 -55.75233,4.1081 -14.44121,2.74814 -23.76031,6.00163 -27.70332,8.54252 l 2.04514,-3.08681 c 5.44136,-2.86456 14.2322,-5.4954 25.30277,-7.64647 15.24904,-2.77636 34.87585,-4.03578 56.10774,-4.09487 z" id="path1403" style="fill:#fff200;stroke:#000000;stroke-width:0.57315809;stroke-linecap:round;stroke-linejoin:round"/>
  <path d="m 249.2471,241.0907 c -18.21754,-3.40078 -36.46946,-3.89467 -49.21653,-3.74474 -61.40712,0.71967 -81.24383,12.60917 -83.66466,16.20927 l -4.58944,-7.48154 c 15.63355,-11.33211 49.07278,-17.68653 88.58658,-17.03742 20.51754,0.33602 38.22357,1.69863 53.11896,4.58347 l -4.2358,7.47272" id="path1405" style="fill:#fff200;stroke:none"/>
  <path d="m 112.79595,247.10909 3.01259,5.18672" id="path1407" style="fill:none;stroke:#000000;stroke-width:0.57282209;stroke-linecap:round;stroke-linejoin:round"/>
  <path d="m 199.67957,236.29027 c 17.08164,0.25488 33.84932,0.96044 50.03317,3.97845 l -1.17205,2.06905 c -15.03121,-2.7746 -31.05456,-3.83646 -48.80292,-3.75003 -22.66322,-0.17727 -45.58483,1.93939 -65.54149,7.66675 -6.2968,1.75242 -16.72093,5.80055 -17.78363,9.14576 l -1.16588,-1.92264 c 0.33601,-1.97732 6.63634,-6.08101 18.4142,-9.39006 22.85812,-6.5458 44.23905,-7.64911 66.0186,-7.79904 l 0,0.002 z m 0.77519,-8.59632 c 17.69809,0.33073 35.97471,1.14918 53.73983,4.66814 l -1.22056,2.15371 c -16.04187,-3.18471 -31.36851,-4.24657 -52.4152,-4.57024 -22.73466,0.0414 -46.85126,1.66246 -68.77809,8.03716 -7.07906,2.06199 -19.29698,6.52022 -19.70442,10.04977 l -1.16588,-2.06552 c 0.26545,-3.20587 10.84215,-7.38805 20.35792,-10.1556 22.09615,-6.42408 46.27537,-8.07597 69.1864,-8.11742 z" id="path1411" style="fill:#fff200;stroke:#000000;stroke-width:0.54985231;stroke-linecap:round;stroke-linejoin:round"/>
  <path d="m 116.99647,144.34398 c 30.4187,-0.39511 170.90809,85.84852 171.32171,101.72971 l -8.70353,13.34118 C 275.69105,240.97869 133.13447,157.0528 109.61756,158.63413 l 7.37891,-14.29015" id="path1419" style="fill:#fff200;stroke:none"/>
  <path d="m 287.6788,247.2061 -7.37891,11.44941" id="path1421" style="fill:none;stroke:#000000;stroke-width:0.5729773;stroke-linecap:round;stroke-linejoin:round"/>
  <path d="m 116.7707,145.09804 -6.86387,12.71941" id="path1423" style="fill:none;stroke:#000000;stroke-width:0.5729773;stroke-linecap:round;stroke-linejoin:round"/>
  <path d="m 108.74712,158.1226 c 5.64597,-3.8294 47.13876,14.65528 90.55499,40.83406 43.30071,26.25374 84.67709,55.92148 80.94222,61.47333 l -1.2285,1.93234 -0.56354,0.4445 c 0.12083,-0.0864 0.74345,-0.84755 -0.0609,-2.90601 -1.84494,-6.07043 -31.19478,-29.49136 -79.89363,-58.8954 -47.47476,-28.30868 -87.04147,-45.37078 -90.99682,-40.49363 l 1.24702,-2.38919 -8.9e-4,0 z m 180.44238,88.92652 c 3.56996,-7.05203 -34.91642,-36.04421 -82.63195,-64.27174 -48.81261,-27.66574 -83.99361,-43.95085 -90.42005,-39.09486 l -1.42781,2.59909 c -0.0124,0.14287 0.052,-0.17727 0.35364,-0.4101 1.16853,-1.01953 3.1052,-0.95074 3.97916,-0.96662 11.06528,0.16581 42.66662,14.70908 87.0062,40.1285 19.42751,11.31536 82.07106,51.4906 81.83206,62.78919 0.0168,0.97102 0.0803,1.17123 -0.28485,1.65189 l 1.5936,-2.42359 0,-0.002 z" id="path1427" style="fill:#fff200;stroke:#000000;stroke-width:0.57300466;stroke-linecap:round;stroke-linejoin:round"/>
  <path d="m 140.69417,210.83557 c 0,16.27101 6.6628,30.98714 17.45733,41.74246 10.81481,10.77825 25.51177,17.57893 41.80852,17.57893 16.3814,0 31.24681,-6.65251 42.01576,-17.38931 10.76895,-10.73504 17.44322,-25.55171 17.44587,-41.88004 l -0.002,0 0,-79.18896 -118.73982,-0.14111 0.0123,79.27803 0.002,0 z" id="path1431" style="fill:#ffffff;stroke:#000000;stroke-width:0.67037189;stroke-linejoin:bevel"/>
  <path d="m 142.91657,210.94758 0,0.045 0,0 c 0,15.55663 6.44144,29.72419 16.77474,40.00944 10.35357,10.30464 24.61399,16.71197 40.21403,16.71197 15.68117,0 29.9116,-6.36059 40.22197,-16.62554 10.30771,-10.26496 16.69712,-24.43253 16.69889,-40.04384 l -0.002,0 0,-76.82622 -113.83819,-0.0185 -0.0697,76.74773 m 91.0224,-53.74661 0.004,48.89062 -0.0414,5.17173 8.8e-4,0 c 0,1.36084 -0.082,2.91218 -0.24076,4.23333 -0.92512,7.72937 -4.48008,14.46655 -9.74506,19.70795 -6.16364,6.13569 -14.67139,9.94128 -24.04693,9.94128 -9.32704,0 -17.639,-3.93788 -23.8291,-10.10003 -6.34972,-6.32002 -10.02992,-14.98601 -10.02992,-23.94657 l -0.0132,-54.02266 67.94028,0.12259 0.002,0.002 z" id="path1435" style="fill:#ed1c24;stroke:#000000;stroke-width:0.50734437"/>
  <path d="m 192.72839,176.21394 0,0.005 c 0,2.21192 0.84927,4.22717 2.21182,5.68943 1.36519,1.46667 3.24541,2.37772 5.30202,2.37772 2.06718,0 3.94388,-0.90487 5.3029,-2.36537 1.35813,-1.45874 2.20212,-3.47222 2.20212,-5.69296 l 0,0 0,-10.76766 -14.99152,-0.0123 -0.0273,10.7659" id="use3438" style="fill:#2e2c70;fill-opacity:1" transform="matrix(1, 0, 0, 1, 0.033069998025894165, 26.01650047302246)"/>
  <path d="m 192.72839,176.21394 0,0.005 c 0,2.21192 0.84927,4.22717 2.21182,5.68943 1.36519,1.46667 3.24541,2.37772 5.30202,2.37772 2.06718,0 3.94388,-0.90487 5.3029,-2.36537 1.35813,-1.45874 2.20212,-3.47222 2.20212,-5.69296 l 0,0 0,-10.76766 -14.99152,-0.0123 -0.0273,10.7659" id="use3434" style="fill:#2e2c70;fill-opacity:1" transform="matrix(1, 0, 0, 1, -0.0674699991941452, 51.799720764160156)"/>
  <path d="m 192.72839,176.21394 0,0.005 c 0,2.21192 0.84927,4.22717 2.21182,5.68943 1.36519,1.46667 3.24541,2.37772 5.30202,2.37772 2.06718,0 3.94388,-0.90487 5.3029,-2.36537 1.35813,-1.45874 2.20212,-3.47222 2.20212,-5.69296 l 0,0 0,-10.76766 -14.99152,-0.0123 -0.0273,10.7659" id="use3440" style="fill:#2e2c70;fill-opacity:1" transform="matrix(1, 0, 0, 1, -20.820480346679688, 26.01650047302246)"/>
  <path d="m 192.72839,176.21394 0,0.005 c 0,2.21192 0.84927,4.22717 2.21182,5.68943 1.36519,1.46667 3.24541,2.37772 5.30202,2.37772 2.06718,0 3.94388,-0.90487 5.3029,-2.36537 1.35813,-1.45874 2.20212,-3.47222 2.20212,-5.69296 l 0,0 0,-10.76766 -14.99152,-0.0123 -0.0273,10.7659" id="use3436" style="fill:#2e2c70;fill-opacity:1" transform="matrix(1, 0, 0, 1, 20.75079917907715, 26.01650047302246)"/>
  <path d="m 192.72839,176.21394 0,0.005 c 0,2.21192 0.84927,4.22717 2.21182,5.68943 1.36519,1.46667 3.24541,2.37772 5.30202,2.37772 2.06718,0 3.94388,-0.90487 5.3029,-2.36537 1.35813,-1.45874 2.20212,-3.47222 2.20212,-5.69296 l 0,0 0,-10.76766 -14.99152,-0.0123 -0.0273,10.7659" id="path1485" style="fill:#2e2c70;fill-opacity:1"/>
  <g transform="translate(-39.9021,-0.1715465)" id="g6250">
    <path d="m 190.19141,154.43388 c 0.13493,-5.52098 4.05235,-6.82802 4.08057,-6.84742 0.0282,-0.0185 4.23139,1.40758 4.21728,6.89857 l -8.29785,-0.0512" id="path1497" style="fill:#fff200;stroke:none"/>
    <path d="m 186.8093,147.68612 -0.68172,6.34471 4.14055,0.009 c 0.0397,-5.24934 3.97387,-6.12246 4.06912,-6.10306 0.0891,-0.005 3.98886,1.16064 4.09292,6.10306 l 4.15113,0 -0.74962,-6.39322 -15.02238,0.0379 0,0.002 z" id="path1501" style="fill:#fff200;stroke:#000000;stroke-width:0.49936473"/>
    <path d="m 185.85066,154.05994 16.94583,0 c 0.35717,0 0.64908,0.35277 0.64908,0.78404 l 0,0 c 0,0.43039 -0.29191,0.78141 -0.64908,0.78141 l -16.94583,0 c -0.35717,0 -0.64908,-0.35102 -0.64908,-0.78141 l 0,0 c 0,-0.43127 0.29191,-0.78404 0.64908,-0.78404 z" id="path1505" style="fill:#fff200;stroke:#000000;stroke-width:0.49943003"/>
    <path d="m 192.01431,154.02907 c 0.0185,-3.31259 2.26208,-4.2501 2.27355,-4.24833 8.8e-4,0 2.34234,0.96661 2.36086,4.24833 l -4.63441,0" id="path1509" style="fill:none;stroke:#000000;stroke-width:0.49703202"/>
    <path d="m 186.20784,145.05439 16.2447,0 c 0.34218,0 0.62263,0.31839 0.62263,0.70468 l 0,0 c 0,0.38717 -0.28045,0.70467 -0.62263,0.70467 l -16.2447,0 c -0.34218,0 -0.62263,-0.31573 -0.62263,-0.70467 l 0,0 c 0,-0.38629 0.28045,-0.70468 0.62263,-0.70468 z" id="path1513" style="fill:#fff200;stroke:#000000;stroke-width:0.49901107"/>
    <path d="m 186.5509,146.46551 15.5383,0 c 0.32719,0 0.59529,0.31662 0.59529,0.70379 l 0,0 c 0,0.38805 -0.2681,0.70467 -0.59529,0.70467 l -15.5383,0 c -0.32719,0 -0.59529,-0.31662 -0.59529,-0.70467 l 0,0 c 0,-0.38717 0.2681,-0.70379 0.59529,-0.70379 z" id="path1517" style="fill:#fff200;stroke:#000000;stroke-width:0.49901107"/>
    <path d="m 191.57159,135.88217 1.22673,0.002 0,0.87136 0.89513,0 0,-0.89076 1.25672,0.004 0,0.88723 0.89778,0 0,-0.89076 1.2576,0 -0.002,2.01171 c 0,0.31574 -0.25398,0.52035 -0.54854,0.52035 l -4.41129,0 c -0.29633,0 -0.56972,-0.23724 -0.5706,-0.52652 l -0.003,-1.9879 8.8e-4,0 z" id="path1521" style="fill:#fff200;stroke:#000000;stroke-width:0.50025284"/>
    <path d="m 196.19278,138.57386 0.27691,6.45143 -4.30282,-0.0159 0.28486,-6.45231 3.74105,0.0168" id="path1525" style="fill:#fff200;stroke:#000000;stroke-width:0.49897757"/>
    <path d="m 190.94014,141.55925 0.13141,3.47751 -4.12556,0.002 0.11641,-3.47927 3.87863,0 -8.9e-4,0 z" id="use4366" style="fill:#fff200;stroke:#000000;stroke-width:0.50127673" transform="matrix(1, 0, 0, 1, 10.608890533447266, 0)"/>
    <path d="m 186.3022,139.04482 1.19939,0.003 0,0.87224 0.8775,0 0,-0.89253 1.22938,0.004 0,0.889 0.87926,0 0,-0.89253 1.23025,0.002 -0.002,2.01171 c 0,0.31398 -0.2487,0.51859 -0.5362,0.51859 l -4.31693,0 c -0.28926,0 -0.55824,-0.23548 -0.55913,-0.52564 l -0.003,-1.98879 8.8e-4,0 z" id="use4660" style="fill:#fff200;stroke:#000000;stroke-width:0.50017256" transform="matrix(1, 0, 0, 1, 10.608890533447266, -0.010585000738501549)"/>
    <path d="m 186.3022,139.04482 1.19939,0.003 0,0.87224 0.8775,0 0,-0.89253 1.22938,0.004 0,0.889 0.87926,0 0,-0.89253 1.23025,0.002 -0.002,2.01171 c 0,0.31398 -0.2487,0.51859 -0.5362,0.51859 l -4.31693,0 c -0.28926,0 -0.55824,-0.23548 -0.55913,-0.52564 l -0.003,-1.98879 8.8e-4,0 z" id="path1537" style="fill:#fff200;stroke:#000000;stroke-width:0.50017256"/>
    <path d="m 190.94014,141.55925 0.13141,3.47751 -4.12556,0.002 0.11641,-3.47927 3.87863,0 -8.9e-4,0 z" id="path1541" style="fill:#fff200;stroke:#000000;stroke-width:0.50127673"/>
    <path d="m 193.89806,140.61027 c -0.0265,-0.62706 0.87661,-0.63411 0.86603,0 l 0,1.53635 -0.86603,0 0,-1.53635" id="path1543" style="fill:#000000;stroke:none"/>
    <path d="m 188.56605,142.84424 c -0.003,-0.6059 0.83693,-0.61824 0.82635,0 l 0,1.1871 -0.82635,0 0,-1.1871" id="use4362" style="fill:#000000;stroke:none" transform="matrix(1, 0, 0, 1, 10.641079902648926, 0)"/>
    <path d="m 188.56605,142.84424 c -0.003,-0.6059 0.83693,-0.61824 0.82635,0 l 0,1.1871 -0.82635,0 0,-1.1871" id="path1547" style="fill:#000000;stroke:none"/>
  </g>
  <g transform="matrix(1, 0, 0, 1, 5.8119354248046875, -0.17154651880264282)" id="use4984">
    <path d="m 190.19141,154.43388 c 0.13493,-5.52098 4.05235,-6.82802 4.08057,-6.84742 0.0282,-0.0185 4.23139,1.40758 4.21728,6.89857 l -8.29785,-0.0512" style="fill:#fff200;stroke:none"/>
    <path d="m 186.8093,147.68612 -0.68172,6.34471 4.14055,0.009 c 0.0397,-5.24934 3.97387,-6.12246 4.06912,-6.10306 0.0891,-0.005 3.98886,1.16064 4.09292,6.10306 l 4.15113,0 -0.74962,-6.39322 -15.02238,0.0379 0,0.002 z" style="fill:#fff200;stroke:#000000;stroke-width:0.49936473"/>
    <path d="m 185.85066,154.05994 16.94583,0 c 0.35717,0 0.64908,0.35277 0.64908,0.78404 l 0,0 c 0,0.43039 -0.29191,0.78141 -0.64908,0.78141 l -16.94583,0 c -0.35717,0 -0.64908,-0.35102 -0.64908,-0.78141 l 0,0 c 0,-0.43127 0.29191,-0.78404 0.64908,-0.78404 z" style="fill:#fff200;stroke:#000000;stroke-width:0.49943003"/>
    <path d="m 192.01431,154.02907 c 0.0185,-3.31259 2.26208,-4.2501 2.27355,-4.24833 8.8e-4,0 2.34234,0.96661 2.36086,4.24833 l -4.63441,0" style="fill:none;stroke:#000000;stroke-width:0.49703202"/>
    <path d="m 186.20784,145.05439 16.2447,0 c 0.34218,0 0.62263,0.31839 0.62263,0.70468 l 0,0 c 0,0.38717 -0.28045,0.70467 -0.62263,0.70467 l -16.2447,0 c -0.34218,0 -0.62263,-0.31573 -0.62263,-0.70467 l 0,0 c 0,-0.38629 0.28045,-0.70468 0.62263,-0.70468 z" style="fill:#fff200;stroke:#000000;stroke-width:0.49901107"/>
    <path d="m 186.5509,146.46551 15.5383,0 c 0.32719,0 0.59529,0.31662 0.59529,0.70379 l 0,0 c 0,0.38805 -0.2681,0.70467 -0.59529,0.70467 l -15.5383,0 c -0.32719,0 -0.59529,-0.31662 -0.59529,-0.70467 l 0,0 c 0,-0.38717 0.2681,-0.70379 0.59529,-0.70379 z" style="fill:#fff200;stroke:#000000;stroke-width:0.49901107"/>
    <path d="m 191.57159,135.88217 1.22673,0.002 0,0.87136 0.89513,0 0,-0.89076 1.25672,0.004 0,0.88723 0.89778,0 0,-0.89076 1.2576,0 -0.002,2.01171 c 0,0.31574 -0.25398,0.52035 -0.54854,0.52035 l -4.41129,0 c -0.29633,0 -0.56972,-0.23724 -0.5706,-0.52652 l -0.003,-1.9879 8.8e-4,0 z" style="fill:#fff200;stroke:#000000;stroke-width:0.50025284"/>
    <path d="m 196.19278,138.57386 0.27691,6.45143 -4.30282,-0.0159 0.28486,-6.45231 3.74105,0.0168" style="fill:#fff200;stroke:#000000;stroke-width:0.49897757"/>
    <path d="m 190.94014,141.55925 0.13141,3.47751 -4.12556,0.002 0.11641,-3.47927 3.87863,0 -8.9e-4,0 z" style="fill:#fff200;stroke:#000000;stroke-width:0.50127673" transform="matrix(1, 0, 0, 1, 10.608890533447266, 0)"/>
    <path d="m 186.3022,139.04482 1.19939,0.003 0,0.87224 0.8775,0 0,-0.89253 1.22938,0.004 0,0.889 0.87926,0 0,-0.89253 1.23025,0.002 -0.002,2.01171 c 0,0.31398 -0.2487,0.51859 -0.5362,0.51859 l -4.31693,0 c -0.28926,0 -0.55824,-0.23548 -0.55913,-0.52564 l -0.003,-1.98879 8.8e-4,0 z" style="fill:#fff200;stroke:#000000;stroke-width:0.50017256" transform="matrix(1, 0, 0, 1, 10.608890533447266, -0.010585000738501549)"/>
    <path d="m 186.3022,139.04482 1.19939,0.003 0,0.87224 0.8775,0 0,-0.89253 1.22938,0.004 0,0.889 0.87926,0 0,-0.89253 1.23025,0.002 -0.002,2.01171 c 0,0.31398 -0.2487,0.51859 -0.5362,0.51859 l -4.31693,0 c -0.28926,0 -0.55824,-0.23548 -0.55913,-0.52564 l -0.003,-1.98879 8.8e-4,0 z" style="fill:#fff200;stroke:#000000;stroke-width:0.50017256"/>
    <path d="m 190.94014,141.55925 0.13141,3.47751 -4.12556,0.002 0.11641,-3.47927 3.87863,0 -8.9e-4,0 z" style="fill:#fff200;stroke:#000000;stroke-width:0.50127673"/>
    <path d="m 193.89806,140.61027 c -0.0265,-0.62706 0.87661,-0.63411 0.86603,0 l 0,1.53635 -0.86603,0 0,-1.53635" style="fill:#000000;stroke:none"/>
    <path d="m 188.56605,142.84424 c -0.003,-0.6059 0.83693,-0.61824 0.82635,0 l 0,1.1871 -0.82635,0 0,-1.1871" style="fill:#000000;stroke:none" transform="matrix(1, 0, 0, 1, 10.641079902648926, 0)"/>
    <path d="m 188.56605,142.84424 c -0.003,-0.6059 0.83693,-0.61824 0.82635,0 l 0,1.1871 -0.82635,0 0,-1.1871" style="fill:#000000;stroke:none"/>
  </g>
  <g transform="matrix(1, 0, 0, 1, 51.01667785644531, -0.17154651880264282)" id="use4982">
    <path d="m 190.19141,154.43388 c 0.13493,-5.52098 4.05235,-6.82802 4.08057,-6.84742 0.0282,-0.0185 4.23139,1.40758 4.21728,6.89857 l -8.29785,-0.0512" style="fill:#fff200;stroke:none"/>
    <path d="m 186.8093,147.68612 -0.68172,6.34471 4.14055,0.009 c 0.0397,-5.24934 3.97387,-6.12246 4.06912,-6.10306 0.0891,-0.005 3.98886,1.16064 4.09292,6.10306 l 4.15113,0 -0.74962,-6.39322 -15.02238,0.0379 0,0.002 z" style="fill:#fff200;stroke:#000000;stroke-width:0.49936473"/>
    <path d="m 185.85066,154.05994 16.94583,0 c 0.35717,0 0.64908,0.35277 0.64908,0.78404 l 0,0 c 0,0.43039 -0.29191,0.78141 -0.64908,0.78141 l -16.94583,0 c -0.35717,0 -0.64908,-0.35102 -0.64908,-0.78141 l 0,0 c 0,-0.43127 0.29191,-0.78404 0.64908,-0.78404 z" style="fill:#fff200;stroke:#000000;stroke-width:0.49943003"/>
    <path d="m 192.01431,154.02907 c 0.0185,-3.31259 2.26208,-4.2501 2.27355,-4.24833 8.8e-4,0 2.34234,0.96661 2.36086,4.24833 l -4.63441,0" style="fill:none;stroke:#000000;stroke-width:0.49703202"/>
    <path d="m 186.20784,145.05439 16.2447,0 c 0.34218,0 0.62263,0.31839 0.62263,0.70468 l 0,0 c 0,0.38717 -0.28045,0.70467 -0.62263,0.70467 l -16.2447,0 c -0.34218,0 -0.62263,-0.31573 -0.62263,-0.70467 l 0,0 c 0,-0.38629 0.28045,-0.70468 0.62263,-0.70468 z" style="fill:#fff200;stroke:#000000;stroke-width:0.49901107"/>
    <path d="m 186.5509,146.46551 15.5383,0 c 0.32719,0 0.59529,0.31662 0.59529,0.70379 l 0,0 c 0,0.38805 -0.2681,0.70467 -0.59529,0.70467 l -15.5383,0 c -0.32719,0 -0.59529,-0.31662 -0.59529,-0.70467 l 0,0 c 0,-0.38717 0.2681,-0.70379 0.59529,-0.70379 z" style="fill:#fff200;stroke:#000000;stroke-width:0.49901107"/>
    <path d="m 191.57159,135.88217 1.22673,0.002 0,0.87136 0.89513,0 0,-0.89076 1.25672,0.004 0,0.88723 0.89778,0 0,-0.89076 1.2576,0 -0.002,2.01171 c 0,0.31574 -0.25398,0.52035 -0.54854,0.52035 l -4.41129,0 c -0.29633,0 -0.56972,-0.23724 -0.5706,-0.52652 l -0.003,-1.9879 8.8e-4,0 z" style="fill:#fff200;stroke:#000000;stroke-width:0.50025284"/>
    <path d="m 196.19278,138.57386 0.27691,6.45143 -4.30282,-0.0159 0.28486,-6.45231 3.74105,0.0168" style="fill:#fff200;stroke:#000000;stroke-width:0.49897757"/>
    <path d="m 190.94014,141.55925 0.13141,3.47751 -4.12556,0.002 0.11641,-3.47927 3.87863,0 -8.9e-4,0 z" style="fill:#fff200;stroke:#000000;stroke-width:0.50127673" transform="matrix(1, 0, 0, 1, 10.608890533447266, 0)"/>
    <path d="m 186.3022,139.04482 1.19939,0.003 0,0.87224 0.8775,0 0,-0.89253 1.22938,0.004 0,0.889 0.87926,0 0,-0.89253 1.23025,0.002 -0.002,2.01171 c 0,0.31398 -0.2487,0.51859 -0.5362,0.51859 l -4.31693,0 c -0.28926,0 -0.55824,-0.23548 -0.55913,-0.52564 l -0.003,-1.98879 8.8e-4,0 z" style="fill:#fff200;stroke:#000000;stroke-width:0.50017256" transform="matrix(1, 0, 0, 1, 10.608890533447266, -0.010585000738501549)"/>
    <path d="m 186.3022,139.04482 1.19939,0.003 0,0.87224 0.8775,0 0,-0.89253 1.22938,0.004 0,0.889 0.87926,0 0,-0.89253 1.23025,0.002 -0.002,2.01171 c 0,0.31398 -0.2487,0.51859 -0.5362,0.51859 l -4.31693,0 c -0.28926,0 -0.55824,-0.23548 -0.55913,-0.52564 l -0.003,-1.98879 8.8e-4,0 z" style="fill:#fff200;stroke:#000000;stroke-width:0.50017256"/>
    <path d="m 190.94014,141.55925 0.13141,3.47751 -4.12556,0.002 0.11641,-3.47927 3.87863,0 -8.9e-4,0 z" style="fill:#fff200;stroke:#000000;stroke-width:0.50127673"/>
    <path d="m 193.89806,140.61027 c -0.0265,-0.62706 0.87661,-0.63411 0.86603,0 l 0,1.53635 -0.86603,0 0,-1.53635" style="fill:#000000;stroke:none"/>
    <path d="m 188.56605,142.84424 c -0.003,-0.6059 0.83693,-0.61824 0.82635,0 l 0,1.1871 -0.82635,0 0,-1.1871" style="fill:#000000;stroke:none" transform="matrix(1, 0, 0, 1, 10.641079902648926, 0)"/>
    <path d="m 188.56605,142.84424 c -0.003,-0.6059 0.83693,-0.61824 0.82635,0 l 0,1.1871 -0.82635,0 0,-1.1871" style="fill:#000000;stroke:none"/>
  </g>
  <g transform="matrix(1, 0, 0, 1, -39.902099609375, 46.14808315038681)" id="use4980">
    <path d="m 190.19141,154.43388 c 0.13493,-5.52098 4.05235,-6.82802 4.08057,-6.84742 0.0282,-0.0185 4.23139,1.40758 4.21728,6.89857 l -8.29785,-0.0512" style="fill:#fff200;stroke:none"/>
    <path d="m 186.8093,147.68612 -0.68172,6.34471 4.14055,0.009 c 0.0397,-5.24934 3.97387,-6.12246 4.06912,-6.10306 0.0891,-0.005 3.98886,1.16064 4.09292,6.10306 l 4.15113,0 -0.74962,-6.39322 -15.02238,0.0379 0,0.002 z" style="fill:#fff200;stroke:#000000;stroke-width:0.49936473"/>
    <path d="m 185.85066,154.05994 16.94583,0 c 0.35717,0 0.64908,0.35277 0.64908,0.78404 l 0,0 c 0,0.43039 -0.29191,0.78141 -0.64908,0.78141 l -16.94583,0 c -0.35717,0 -0.64908,-0.35102 -0.64908,-0.78141 l 0,0 c 0,-0.43127 0.29191,-0.78404 0.64908,-0.78404 z" style="fill:#fff200;stroke:#000000;stroke-width:0.49943003"/>
    <path d="m 192.01431,154.02907 c 0.0185,-3.31259 2.26208,-4.2501 2.27355,-4.24833 8.8e-4,0 2.34234,0.96661 2.36086,4.24833 l -4.63441,0" style="fill:none;stroke:#000000;stroke-width:0.49703202"/>
    <path d="m 186.20784,145.05439 16.2447,0 c 0.34218,0 0.62263,0.31839 0.62263,0.70468 l 0,0 c 0,0.38717 -0.28045,0.70467 -0.62263,0.70467 l -16.2447,0 c -0.34218,0 -0.62263,-0.31573 -0.62263,-0.70467 l 0,0 c 0,-0.38629 0.28045,-0.70468 0.62263,-0.70468 z" style="fill:#fff200;stroke:#000000;stroke-width:0.49901107"/>
    <path d="m 186.5509,146.46551 15.5383,0 c 0.32719,0 0.59529,0.31662 0.59529,0.70379 l 0,0 c 0,0.38805 -0.2681,0.70467 -0.59529,0.70467 l -15.5383,0 c -0.32719,0 -0.59529,-0.31662 -0.59529,-0.70467 l 0,0 c 0,-0.38717 0.2681,-0.70379 0.59529,-0.70379 z" style="fill:#fff200;stroke:#000000;stroke-width:0.49901107"/>
    <path d="m 191.57159,135.88217 1.22673,0.002 0,0.87136 0.89513,0 0,-0.89076 1.25672,0.004 0,0.88723 0.89778,0 0,-0.89076 1.2576,0 -0.002,2.01171 c 0,0.31574 -0.25398,0.52035 -0.54854,0.52035 l -4.41129,0 c -0.29633,0 -0.56972,-0.23724 -0.5706,-0.52652 l -0.003,-1.9879 8.8e-4,0 z" style="fill:#fff200;stroke:#000000;stroke-width:0.50025284"/>
    <path d="m 196.19278,138.57386 0.27691,6.45143 -4.30282,-0.0159 0.28486,-6.45231 3.74105,0.0168" style="fill:#fff200;stroke:#000000;stroke-width:0.49897757"/>
    <path d="m 190.94014,141.55925 0.13141,3.47751 -4.12556,0.002 0.11641,-3.47927 3.87863,0 -8.9e-4,0 z" style="fill:#fff200;stroke:#000000;stroke-width:0.50127673" transform="matrix(1, 0, 0, 1, 10.608890533447266, 0)"/>
    <path d="m 186.3022,139.04482 1.19939,0.003 0,0.87224 0.8775,0 0,-0.89253 1.22938,0.004 0,0.889 0.87926,0 0,-0.89253 1.23025,0.002 -0.002,2.01171 c 0,0.31398 -0.2487,0.51859 -0.5362,0.51859 l -4.31693,0 c -0.28926,0 -0.55824,-0.23548 -0.55913,-0.52564 l -0.003,-1.98879 8.8e-4,0 z" style="fill:#fff200;stroke:#000000;stroke-width:0.50017256" transform="matrix(1, 0, 0, 1, 10.608890533447266, -0.010585000738501549)"/>
    <path d="m 186.3022,139.04482 1.19939,0.003 0,0.87224 0.8775,0 0,-0.89253 1.22938,0.004 0,0.889 0.87926,0 0,-0.89253 1.23025,0.002 -0.002,2.01171 c 0,0.31398 -0.2487,0.51859 -0.5362,0.51859 l -4.31693,0 c -0.28926,0 -0.55824,-0.23548 -0.55913,-0.52564 l -0.003,-1.98879 8.8e-4,0 z" style="fill:#fff200;stroke:#000000;stroke-width:0.50017256"/>
    <path d="m 190.94014,141.55925 0.13141,3.47751 -4.12556,0.002 0.11641,-3.47927 3.87863,0 -8.9e-4,0 z" style="fill:#fff200;stroke:#000000;stroke-width:0.50127673"/>
    <path d="m 193.89806,140.61027 c -0.0265,-0.62706 0.87661,-0.63411 0.86603,0 l 0,1.53635 -0.86603,0 0,-1.53635" style="fill:#000000;stroke:none"/>
    <path d="m 188.56605,142.84424 c -0.003,-0.6059 0.83693,-0.61824 0.82635,0 l 0,1.1871 -0.82635,0 0,-1.1871" style="fill:#000000;stroke:none" transform="matrix(1, 0, 0, 1, 10.641079902648926, 0)"/>
    <path d="m 188.56605,142.84424 c -0.003,-0.6059 0.83693,-0.61824 0.82635,0 l 0,1.1871 -0.82635,0 0,-1.1871" style="fill:#000000;stroke:none"/>
  </g>
  <g transform="matrix(1, 0, 0, 1, 51.01667785644531, 46.14808315038681)" id="use5100">
    <path d="m 190.19141,154.43388 c 0.13493,-5.52098 4.05235,-6.82802 4.08057,-6.84742 0.0282,-0.0185 4.23139,1.40758 4.21728,6.89857 l -8.29785,-0.0512" style="fill:#fff200;stroke:none"/>
    <path d="m 186.8093,147.68612 -0.68172,6.34471 4.14055,0.009 c 0.0397,-5.24934 3.97387,-6.12246 4.06912,-6.10306 0.0891,-0.005 3.98886,1.16064 4.09292,6.10306 l 4.15113,0 -0.74962,-6.39322 -15.02238,0.0379 0,0.002 z" style="fill:#fff200;stroke:#000000;stroke-width:0.49936473"/>
    <path d="m 185.85066,154.05994 16.94583,0 c 0.35717,0 0.64908,0.35277 0.64908,0.78404 l 0,0 c 0,0.43039 -0.29191,0.78141 -0.64908,0.78141 l -16.94583,0 c -0.35717,0 -0.64908,-0.35102 -0.64908,-0.78141 l 0,0 c 0,-0.43127 0.29191,-0.78404 0.64908,-0.78404 z" style="fill:#fff200;stroke:#000000;stroke-width:0.49943003"/>
    <path d="m 192.01431,154.02907 c 0.0185,-3.31259 2.26208,-4.2501 2.27355,-4.24833 8.8e-4,0 2.34234,0.96661 2.36086,4.24833 l -4.63441,0" style="fill:none;stroke:#000000;stroke-width:0.49703202"/>
    <path d="m 186.20784,145.05439 16.2447,0 c 0.34218,0 0.62263,0.31839 0.62263,0.70468 l 0,0 c 0,0.38717 -0.28045,0.70467 -0.62263,0.70467 l -16.2447,0 c -0.34218,0 -0.62263,-0.31573 -0.62263,-0.70467 l 0,0 c 0,-0.38629 0.28045,-0.70468 0.62263,-0.70468 z" style="fill:#fff200;stroke:#000000;stroke-width:0.49901107"/>
    <path d="m 186.5509,146.46551 15.5383,0 c 0.32719,0 0.59529,0.31662 0.59529,0.70379 l 0,0 c 0,0.38805 -0.2681,0.70467 -0.59529,0.70467 l -15.5383,0 c -0.32719,0 -0.59529,-0.31662 -0.59529,-0.70467 l 0,0 c 0,-0.38717 0.2681,-0.70379 0.59529,-0.70379 z" style="fill:#fff200;stroke:#000000;stroke-width:0.49901107"/>
    <path d="m 191.57159,135.88217 1.22673,0.002 0,0.87136 0.89513,0 0,-0.89076 1.25672,0.004 0,0.88723 0.89778,0 0,-0.89076 1.2576,0 -0.002,2.01171 c 0,0.31574 -0.25398,0.52035 -0.54854,0.52035 l -4.41129,0 c -0.29633,0 -0.56972,-0.23724 -0.5706,-0.52652 l -0.003,-1.9879 8.8e-4,0 z" style="fill:#fff200;stroke:#000000;stroke-width:0.50025284"/>
    <path d="m 196.19278,138.57386 0.27691,6.45143 -4.30282,-0.0159 0.28486,-6.45231 3.74105,0.0168" style="fill:#fff200;stroke:#000000;stroke-width:0.49897757"/>
    <path d="m 190.94014,141.55925 0.13141,3.47751 -4.12556,0.002 0.11641,-3.47927 3.87863,0 -8.9e-4,0 z" style="fill:#fff200;stroke:#000000;stroke-width:0.50127673" transform="matrix(1, 0, 0, 1, 10.608890533447266, 0)"/>
    <path d="m 186.3022,139.04482 1.19939,0.003 0,0.87224 0.8775,0 0,-0.89253 1.22938,0.004 0,0.889 0.87926,0 0,-0.89253 1.23025,0.002 -0.002,2.01171 c 0,0.31398 -0.2487,0.51859 -0.5362,0.51859 l -4.31693,0 c -0.28926,0 -0.55824,-0.23548 -0.55913,-0.52564 l -0.003,-1.98879 8.8e-4,0 z" style="fill:#fff200;stroke:#000000;stroke-width:0.50017256" transform="matrix(1, 0, 0, 1, 10.608890533447266, -0.010585000738501549)"/>
    <path d="m 186.3022,139.04482 1.19939,0.003 0,0.87224 0.8775,0 0,-0.89253 1.22938,0.004 0,0.889 0.87926,0 0,-0.89253 1.23025,0.002 -0.002,2.01171 c 0,0.31398 -0.2487,0.51859 -0.5362,0.51859 l -4.31693,0 c -0.28926,0 -0.55824,-0.23548 -0.55913,-0.52564 l -0.003,-1.98879 8.8e-4,0 z" style="fill:#fff200;stroke:#000000;stroke-width:0.50017256"/>
    <path d="m 190.94014,141.55925 0.13141,3.47751 -4.12556,0.002 0.11641,-3.47927 3.87863,0 -8.9e-4,0 z" style="fill:#fff200;stroke:#000000;stroke-width:0.50127673"/>
    <path d="m 193.89806,140.61027 c -0.0265,-0.62706 0.87661,-0.63411 0.86603,0 l 0,1.53635 -0.86603,0 0,-1.53635" style="fill:#000000;stroke:none"/>
    <path d="m 188.56605,142.84424 c -0.003,-0.6059 0.83693,-0.61824 0.82635,0 l 0,1.1871 -0.82635,0 0,-1.1871" style="fill:#000000;stroke:none" transform="matrix(1, 0, 0, 1, 10.641079902648926, 0)"/>
    <path d="m 188.56605,142.84424 c -0.003,-0.6059 0.83693,-0.61824 0.82635,0 l 0,1.1871 -0.82635,0 0,-1.1871" style="fill:#000000;stroke:none"/>
  </g>
  <g transform="matrix(0.7071067811865476, 0.7071067811865476, -0.7071067811865476, 0.7071067811865476, 200.54107263405433, -0.6668523663580288)" id="use5132">
    <path d="m 190.19141,154.43388 c 0.13493,-5.52098 4.05235,-6.82802 4.08057,-6.84742 0.0282,-0.0185 4.23139,1.40758 4.21728,6.89857 l -8.29785,-0.0512" style="fill:#fff200;stroke:none"/>
    <path d="m 186.8093,147.68612 -0.68172,6.34471 4.14055,0.009 c 0.0397,-5.24934 3.97387,-6.12246 4.06912,-6.10306 0.0891,-0.005 3.98886,1.16064 4.09292,6.10306 l 4.15113,0 -0.74962,-6.39322 -15.02238,0.0379 0,0.002 z" style="fill:#fff200;stroke:#000000;stroke-width:0.49936473"/>
    <path d="m 185.85066,154.05994 16.94583,0 c 0.35717,0 0.64908,0.35277 0.64908,0.78404 l 0,0 c 0,0.43039 -0.29191,0.78141 -0.64908,0.78141 l -16.94583,0 c -0.35717,0 -0.64908,-0.35102 -0.64908,-0.78141 l 0,0 c 0,-0.43127 0.29191,-0.78404 0.64908,-0.78404 z" style="fill:#fff200;stroke:#000000;stroke-width:0.49943003"/>
    <path d="m 192.01431,154.02907 c 0.0185,-3.31259 2.26208,-4.2501 2.27355,-4.24833 8.8e-4,0 2.34234,0.96661 2.36086,4.24833 l -4.63441,0" style="fill:none;stroke:#000000;stroke-width:0.49703202"/>
    <path d="m 186.20784,145.05439 16.2447,0 c 0.34218,0 0.62263,0.31839 0.62263,0.70468 l 0,0 c 0,0.38717 -0.28045,0.70467 -0.62263,0.70467 l -16.2447,0 c -0.34218,0 -0.62263,-0.31573 -0.62263,-0.70467 l 0,0 c 0,-0.38629 0.28045,-0.70468 0.62263,-0.70468 z" style="fill:#fff200;stroke:#000000;stroke-width:0.49901107"/>
    <path d="m 186.5509,146.46551 15.5383,0 c 0.32719,0 0.59529,0.31662 0.59529,0.70379 l 0,0 c 0,0.38805 -0.2681,0.70467 -0.59529,0.70467 l -15.5383,0 c -0.32719,0 -0.59529,-0.31662 -0.59529,-0.70467 l 0,0 c 0,-0.38717 0.2681,-0.70379 0.59529,-0.70379 z" style="fill:#fff200;stroke:#000000;stroke-width:0.49901107"/>
    <path d="m 191.57159,135.88217 1.22673,0.002 0,0.87136 0.89513,0 0,-0.89076 1.25672,0.004 0,0.88723 0.89778,0 0,-0.89076 1.2576,0 -0.002,2.01171 c 0,0.31574 -0.25398,0.52035 -0.54854,0.52035 l -4.41129,0 c -0.29633,0 -0.56972,-0.23724 -0.5706,-0.52652 l -0.003,-1.9879 8.8e-4,0 z" style="fill:#fff200;stroke:#000000;stroke-width:0.50025284"/>
    <path d="m 196.19278,138.57386 0.27691,6.45143 -4.30282,-0.0159 0.28486,-6.45231 3.74105,0.0168" style="fill:#fff200;stroke:#000000;stroke-width:0.49897757"/>
    <path d="m 190.94014,141.55925 0.13141,3.47751 -4.12556,0.002 0.11641,-3.47927 3.87863,0 -8.9e-4,0 z" style="fill:#fff200;stroke:#000000;stroke-width:0.50127673" transform="matrix(1, 0, 0, 1, 10.608890533447266, 0)"/>
    <path d="m 186.3022,139.04482 1.19939,0.003 0,0.87224 0.8775,0 0,-0.89253 1.22938,0.004 0,0.889 0.87926,0 0,-0.89253 1.23025,0.002 -0.002,2.01171 c 0,0.31398 -0.2487,0.51859 -0.5362,0.51859 l -4.31693,0 c -0.28926,0 -0.55824,-0.23548 -0.55913,-0.52564 l -0.003,-1.98879 8.8e-4,0 z" style="fill:#fff200;stroke:#000000;stroke-width:0.50017256" transform="matrix(1, 0, 0, 1, 10.608890533447266, -0.010585000738501549)"/>
    <path d="m 186.3022,139.04482 1.19939,0.003 0,0.87224 0.8775,0 0,-0.89253 1.22938,0.004 0,0.889 0.87926,0 0,-0.89253 1.23025,0.002 -0.002,2.01171 c 0,0.31398 -0.2487,0.51859 -0.5362,0.51859 l -4.31693,0 c -0.28926,0 -0.55824,-0.23548 -0.55913,-0.52564 l -0.003,-1.98879 8.8e-4,0 z" style="fill:#fff200;stroke:#000000;stroke-width:0.50017256"/>
    <path d="m 190.94014,141.55925 0.13141,3.47751 -4.12556,0.002 0.11641,-3.47927 3.87863,0 -8.9e-4,0 z" style="fill:#fff200;stroke:#000000;stroke-width:0.50127673"/>
    <path d="m 193.89806,140.61027 c -0.0265,-0.62706 0.87661,-0.63411 0.86603,0 l 0,1.53635 -0.86603,0 0,-1.53635" style="fill:#000000;stroke:none"/>
    <path d="m 188.56605,142.84424 c -0.003,-0.6059 0.83693,-0.61824 0.82635,0 l 0,1.1871 -0.82635,0 0,-1.1871" style="fill:#000000;stroke:none" transform="matrix(1, 0, 0, 1, 10.641079902648926, 0)"/>
    <path d="m 188.56605,142.84424 c -0.003,-0.6059 0.83693,-0.61824 0.82635,0 l 0,1.1871 -0.82635,0 0,-1.1871" style="fill:#000000;stroke:none"/>
  </g>
  <g transform="matrix(0.7071067811865476, -0.7071067811865476, 0.7071067811865476, 0.7071067811865476, -75.36868397167765, 274.08794692986964)" id="use5274">
    <path d="m 190.19141,154.43388 c 0.13493,-5.52098 4.05235,-6.82802 4.08057,-6.84742 0.0282,-0.0185 4.23139,1.40758 4.21728,6.89857 l -8.29785,-0.0512" style="fill:#fff200;stroke:none"/>
    <path d="m 186.8093,147.68612 -0.68172,6.34471 4.14055,0.009 c 0.0397,-5.24934 3.97387,-6.12246 4.06912,-6.10306 0.0891,-0.005 3.98886,1.16064 4.09292,6.10306 l 4.15113,0 -0.74962,-6.39322 -15.02238,0.0379 0,0.002 z" style="fill:#fff200;stroke:#000000;stroke-width:0.49936473"/>
    <path d="m 185.85066,154.05994 16.94583,0 c 0.35717,0 0.64908,0.35277 0.64908,0.78404 l 0,0 c 0,0.43039 -0.29191,0.78141 -0.64908,0.78141 l -16.94583,0 c -0.35717,0 -0.64908,-0.35102 -0.64908,-0.78141 l 0,0 c 0,-0.43127 0.29191,-0.78404 0.64908,-0.78404 z" style="fill:#fff200;stroke:#000000;stroke-width:0.49943003"/>
    <path d="m 192.01431,154.02907 c 0.0185,-3.31259 2.26208,-4.2501 2.27355,-4.24833 8.8e-4,0 2.34234,0.96661 2.36086,4.24833 l -4.63441,0" style="fill:none;stroke:#000000;stroke-width:0.49703202"/>
    <path d="m 186.20784,145.05439 16.2447,0 c 0.34218,0 0.62263,0.31839 0.62263,0.70468 l 0,0 c 0,0.38717 -0.28045,0.70467 -0.62263,0.70467 l -16.2447,0 c -0.34218,0 -0.62263,-0.31573 -0.62263,-0.70467 l 0,0 c 0,-0.38629 0.28045,-0.70468 0.62263,-0.70468 z" style="fill:#fff200;stroke:#000000;stroke-width:0.49901107"/>
    <path d="m 186.5509,146.46551 15.5383,0 c 0.32719,0 0.59529,0.31662 0.59529,0.70379 l 0,0 c 0,0.38805 -0.2681,0.70467 -0.59529,0.70467 l -15.5383,0 c -0.32719,0 -0.59529,-0.31662 -0.59529,-0.70467 l 0,0 c 0,-0.38717 0.2681,-0.70379 0.59529,-0.70379 z" style="fill:#fff200;stroke:#000000;stroke-width:0.49901107"/>
    <path d="m 191.57159,135.88217 1.22673,0.002 0,0.87136 0.89513,0 0,-0.89076 1.25672,0.004 0,0.88723 0.89778,0 0,-0.89076 1.2576,0 -0.002,2.01171 c 0,0.31574 -0.25398,0.52035 -0.54854,0.52035 l -4.41129,0 c -0.29633,0 -0.56972,-0.23724 -0.5706,-0.52652 l -0.003,-1.9879 8.8e-4,0 z" style="fill:#fff200;stroke:#000000;stroke-width:0.50025284"/>
    <path d="m 196.19278,138.57386 0.27691,6.45143 -4.30282,-0.0159 0.28486,-6.45231 3.74105,0.0168" style="fill:#fff200;stroke:#000000;stroke-width:0.49897757"/>
    <path d="m 190.94014,141.55925 0.13141,3.47751 -4.12556,0.002 0.11641,-3.47927 3.87863,0 -8.9e-4,0 z" style="fill:#fff200;stroke:#000000;stroke-width:0.50127673" transform="matrix(1, 0, 0, 1, 10.608890533447266, 0)"/>
    <path d="m 186.3022,139.04482 1.19939,0.003 0,0.87224 0.8775,0 0,-0.89253 1.22938,0.004 0,0.889 0.87926,0 0,-0.89253 1.23025,0.002 -0.002,2.01171 c 0,0.31398 -0.2487,0.51859 -0.5362,0.51859 l -4.31693,0 c -0.28926,0 -0.55824,-0.23548 -0.55913,-0.52564 l -0.003,-1.98879 8.8e-4,0 z" style="fill:#fff200;stroke:#000000;stroke-width:0.50017256" transform="matrix(1, 0, 0, 1, 10.608890533447266, -0.010585000738501549)"/>
    <path d="m 186.3022,139.04482 1.19939,0.003 0,0.87224 0.8775,0 0,-0.89253 1.22938,0.004 0,0.889 0.87926,0 0,-0.89253 1.23025,0.002 -0.002,2.01171 c 0,0.31398 -0.2487,0.51859 -0.5362,0.51859 l -4.31693,0 c -0.28926,0 -0.55824,-0.23548 -0.55913,-0.52564 l -0.003,-1.98879 8.8e-4,0 z" style="fill:#fff200;stroke:#000000;stroke-width:0.50017256"/>
    <path d="m 190.94014,141.55925 0.13141,3.47751 -4.12556,0.002 0.11641,-3.47927 3.87863,0 -8.9e-4,0 z" style="fill:#fff200;stroke:#000000;stroke-width:0.50127673"/>
    <path d="m 193.89806,140.61027 c -0.0265,-0.62706 0.87661,-0.63411 0.86603,0 l 0,1.53635 -0.86603,0 0,-1.53635" style="fill:#000000;stroke:none"/>
    <path d="m 188.56605,142.84424 c -0.003,-0.6059 0.83693,-0.61824 0.82635,0 l 0,1.1871 -0.82635,0 0,-1.1871" style="fill:#000000;stroke:none" transform="matrix(1, 0, 0, 1, 10.641079902648926, 0)"/>
    <path d="m 188.56605,142.84424 c -0.003,-0.6059 0.83693,-0.61824 0.82635,0 l 0,1.1871 -0.82635,0 0,-1.1871" style="fill:#000000;stroke:none"/>
  </g>
  <path d="m 217.09368,195.59954 v 0 m 3.97299,4.00182 v 0 m -3.97299,4.16763 v 0 m 8.13029,0 v 0 m 0,-8.16944 v 0" id="use5944" style="stroke:#ffffff;stroke-linecap:round;stroke-width:2.97203"/>
  <path d="m 217.09368,195.59954 v 0 m 3.97299,4.00182 v 0 m -3.97299,4.16763 v 0 m 8.13029,0 v 0 m 0,-8.16944 v 0" id="use5946" style="stroke:#ffffff;stroke-linecap:round;stroke-width:2.97203" transform="matrix(1, 0, 0, 1, -20.746835708618164, 0)"/>
  <path d="m 217.09368,195.59954 v 0 m 3.97299,4.00182 v 0 m -3.97299,4.16763 v 0 m 8.13029,0 v 0 m 0,-8.16944 v 0" id="use5948" style="stroke:#ffffff;stroke-linecap:round;stroke-width:2.97203" transform="matrix(1, 0, 0, 1, -41.54482650756836, 0)"/>
  <path d="m 217.09368,195.59954 v 0 m 3.97299,4.00182 v 0 m -3.97299,4.16763 v 0 m 8.13029,0 v 0 m 0,-8.16944 v 0" id="use5950" style="stroke:#ffffff;stroke-linecap:round;stroke-width:2.97203" transform="matrix(1, 0, 0, 1, -20.819154739379883, 25.743539810180664)"/>
  <path d="m 217.09368,195.59954 v 0 m 3.97299,4.00182 v 0 m -3.97299,4.16763 v 0 m 8.13029,0 v 0 m 0,-8.16944 v 0" id="use5952" style="stroke:#ffffff;stroke-linecap:round;stroke-width:2.97203" transform="matrix(1, 0, 0, 1, -20.752124786376953, -26.056184768676758)"/>
</svg>