<?xml version="1.0" encoding="UTF-8" standalone="no"?>
<!-- Created with Inkscape (http://www.inkscape.org/) -->

<svg
   width="144"
   height="96"
   viewBox="0 0 144 96"
   version="1.1"
   id="svg5"
   inkscape:version="1.2.2 (732a01da63, 2022-12-09)"
   sodipodi:docname="rect.svg"
   xml:space="preserve"
   xmlns:inkscape="http://www.inkscape.org/namespaces/inkscape"
   xmlns:sodipodi="http://sodipodi.sourceforge.net/DTD/sodipodi-0.dtd"
   xmlns:xlink="http://www.w3.org/1999/xlink"
   xmlns="http://www.w3.org/2000/svg"
   xmlns:svg="http://www.w3.org/2000/svg"><sodipodi:namedview
     id="namedview7"
     pagecolor="#505050"
     bordercolor="#eeeeee"
     borderopacity="1"
     inkscape:showpageshadow="0"
     inkscape:pageopacity="0"
     inkscape:pagecheckerboard="0"
     inkscape:deskcolor="#505050"
     inkscape:document-units="px"
     showgrid="false"
     inkscape:zoom="4.0000002"
     inkscape:cx="61.999997"
     inkscape:cy="28.749999"
     inkscape:window-width="2560"
     inkscape:window-height="1377"
     inkscape:window-x="1912"
     inkscape:window-y="-8"
     inkscape:window-maximized="1"
     inkscape:current-layer="layer1"><inkscape:grid
       type="xygrid"
       id="grid2501"
       empspacing="3"
       originx="0"
       originy="0"
       color="#000000"
       opacity="0.14901961"
       empcolor="#000000"
       empopacity="0.30196078" /></sodipodi:namedview><defs
     id="defs2"><linearGradient
       id="cross"
       inkscape:swatch="solid"><stop
         style="stop-color:#ee1122;stop-opacity:1;"
         offset="0"
         id="stop1523" /></linearGradient><linearGradient
       id="background"
       inkscape:swatch="solid"><stop
         style="stop-color:#ffffff;stop-opacity:1;"
         offset="0"
         id="stop1517" /></linearGradient><linearGradient
       inkscape:collect="always"
       xlink:href="#background"
       id="linearGradient1521"
       x1="0"
       y1="12.7"
       x2="38.099998"
       y2="12.7"
       gradientUnits="userSpaceOnUse" /><linearGradient
       inkscape:collect="always"
       xlink:href="#cross"
       id="linearGradient13088"
       x1="0"
       y1="12.7"
       x2="38.099998"
       y2="12.7"
       gradientUnits="userSpaceOnUse" /><linearGradient
       inkscape:collect="always"
       xlink:href="#cross"
       id="linearGradient1578"
       gradientUnits="userSpaceOnUse"
       x1="0"
       y1="12.7"
       x2="38.099998"
       y2="12.7"
       gradientTransform="translate(5.2916675)" /><linearGradient
       inkscape:collect="always"
       xlink:href="#cross"
       id="linearGradient2216"
       gradientUnits="userSpaceOnUse"
       x1="0"
       y1="12.7"
       x2="38.099998"
       y2="12.7" /><linearGradient
       inkscape:collect="always"
       xlink:href="#cross"
       id="linearGradient2218"
       gradientUnits="userSpaceOnUse"
       x1="0"
       y1="12.7"
       x2="38.099998"
       y2="12.7" /><linearGradient
       inkscape:collect="always"
       xlink:href="#cross"
       id="linearGradient2220"
       gradientUnits="userSpaceOnUse"
       x1="0"
       y1="12.7"
       x2="38.099998"
       y2="12.7" /><linearGradient
       inkscape:collect="always"
       xlink:href="#cross"
       id="linearGradient2234"
       gradientUnits="userSpaceOnUse"
       x1="0"
       y1="12.7"
       x2="38.099998"
       y2="12.7" /><linearGradient
       inkscape:collect="always"
       xlink:href="#cross"
       id="linearGradient2236"
       gradientUnits="userSpaceOnUse"
       x1="0"
       y1="12.7"
       x2="38.099998"
       y2="12.7" /><linearGradient
       inkscape:collect="always"
       xlink:href="#cross"
       id="linearGradient2238"
       gradientUnits="userSpaceOnUse"
       x1="0"
       y1="12.7"
       x2="38.099998"
       y2="12.7" /><linearGradient
       inkscape:collect="always"
       xlink:href="#cross"
       id="linearGradient2240"
       gradientUnits="userSpaceOnUse"
       x1="0"
       y1="12.7"
       x2="38.099998"
       y2="12.7" /><linearGradient
       inkscape:collect="always"
       xlink:href="#cross"
       id="linearGradient2242"
       gradientUnits="userSpaceOnUse"
       x1="0"
       y1="12.7"
       x2="38.099998"
       y2="12.7" /><linearGradient
       inkscape:collect="always"
       xlink:href="#cross"
       id="linearGradient2244"
       gradientUnits="userSpaceOnUse"
       x1="0"
       y1="12.7"
       x2="38.099998"
       y2="12.7" /></defs><g
     inkscape:label="ge"
     inkscape:groupmode="layer"
     id="layer1"
     transform="scale(3.7795276)"><rect
       style="fill:url(#linearGradient1521);fill-opacity:1;stroke:none;stroke-width:0.264999;stroke-linecap:round;stroke-dasharray:none"
       id="rect5982"
       width="38.099998"
       height="25.4"
       x="0"
       y="0"
       inkscape:label="background" /><g
       id="g13082"
       style="fill-opacity:1.0;fill:url(#linearGradient13088);stroke:none"
       inkscape:label="cross"><rect
         style="fill:url(#linearGradient1578);fill-opacity:1;stroke:none"
         id="rect8946"
         width="4.7624989"
         height="25.4"
         x="16.668751"
         y="0" /><rect
         style="fill-opacity:1;stroke:none"
         id="rect10452"
         width="38.099998"
         height="4.7625003"
         x="0"
         y="-15.08125"
         transform="scale(1,-1)" /><g
         id="g2208"><g
           id="g1134"
           style="display:inline"><path
             id="rect965"
             style="font-variation-settings:'wght' 700;display:inline;fill-opacity:1;stroke:none"
             d="M 5.7712239,4.1992268 A 9.6572914,9.6572914 0 0 1 5.8208333,5.1593749 9.6572914,9.6572914 0 0 1 5.7701904,6.119523 11.244792,11.244792 0 0 1 8.3343749,5.8208333 11.244792,11.244792 0 0 1 10.898559,6.117456 9.6572914,9.6572914 0 0 1 10.847917,5.1593749 9.6572914,9.6572914 0 0 1 10.899076,4.1992268 11.244792,11.244792 0 0 1 8.3343749,4.4979166 11.244792,11.244792 0 0 1 5.7712239,4.1992268 Z" /><path
             id="rect1184"
             style="font-variation-settings:'wght' 700;fill-opacity:1;stroke:none;stroke-width:0.264583;stroke-dasharray:none;stroke-opacity:1"
             d="M 9.2981404,2.5915731 A 9.6572914,9.6572914 0 0 1 8.3343749,2.6458333 9.6572914,9.6572914 0 0 1 7.37371,2.5920898 11.244792,11.244792 0 0 1 7.6729166,5.1593749 11.244792,11.244792 0 0 1 7.3706095,7.7271768 9.6572914,9.6572914 0 0 1 8.3343749,7.6729166 9.6572914,9.6572914 0 0 1 9.2965901,7.7214924 11.244792,11.244792 0 0 1 8.9958332,5.1593749 11.244792,11.244792 0 0 1 9.2981404,2.5915731 Z" /></g><g
           id="g2214"
           style="display:inline;fill:url(#linearGradient2220)"
           transform="translate(21.43125)"><path
             id="path2210"
             style="font-variation-settings:'wght' 700;display:inline;fill:url(#linearGradient2216);fill-opacity:1;stroke:none"
             d="M 5.7712239,4.1992268 A 9.6572914,9.6572914 0 0 1 5.8208333,5.1593749 9.6572914,9.6572914 0 0 1 5.7701904,6.119523 11.244792,11.244792 0 0 1 8.3343749,5.8208333 11.244792,11.244792 0 0 1 10.898559,6.117456 9.6572914,9.6572914 0 0 1 10.847917,5.1593749 9.6572914,9.6572914 0 0 1 10.899076,4.1992268 11.244792,11.244792 0 0 1 8.3343749,4.4979166 11.244792,11.244792 0 0 1 5.7712239,4.1992268 Z" /><path
             id="path2212"
             style="font-variation-settings:'wght' 700;fill:url(#linearGradient2218);fill-opacity:1;stroke:none;stroke-width:0.264583;stroke-dasharray:none;stroke-opacity:1"
             d="M 9.2981404,2.5915731 A 9.6572914,9.6572914 0 0 1 8.3343749,2.6458333 9.6572914,9.6572914 0 0 1 7.37371,2.5920898 11.244792,11.244792 0 0 1 7.6729166,5.1593749 11.244792,11.244792 0 0 1 7.3706095,7.7271768 9.6572914,9.6572914 0 0 1 8.3343749,7.6729166 9.6572914,9.6572914 0 0 1 9.2965901,7.7214924 11.244792,11.244792 0 0 1 8.9958332,5.1593749 11.244792,11.244792 0 0 1 9.2981404,2.5915731 Z" /></g><g
           id="g2226"
           style="display:inline;fill:url(#linearGradient2244)"
           transform="translate(0,15.08125)"><path
             id="path2222"
             style="font-variation-settings:'wght' 700;display:inline;fill:url(#linearGradient2240);fill-opacity:1;stroke:none"
             d="M 5.7712239,4.1992268 A 9.6572914,9.6572914 0 0 1 5.8208333,5.1593749 9.6572914,9.6572914 0 0 1 5.7701904,6.119523 11.244792,11.244792 0 0 1 8.3343749,5.8208333 11.244792,11.244792 0 0 1 10.898559,6.117456 9.6572914,9.6572914 0 0 1 10.847917,5.1593749 9.6572914,9.6572914 0 0 1 10.899076,4.1992268 11.244792,11.244792 0 0 1 8.3343749,4.4979166 11.244792,11.244792 0 0 1 5.7712239,4.1992268 Z" /><path
             id="path2224"
             style="font-variation-settings:'wght' 700;fill:url(#linearGradient2242);fill-opacity:1;stroke:none;stroke-width:0.264583;stroke-dasharray:none;stroke-opacity:1"
             d="M 9.2981404,2.5915731 A 9.6572914,9.6572914 0 0 1 8.3343749,2.6458333 9.6572914,9.6572914 0 0 1 7.37371,2.5920898 11.244792,11.244792 0 0 1 7.6729166,5.1593749 11.244792,11.244792 0 0 1 7.3706095,7.7271768 9.6572914,9.6572914 0 0 1 8.3343749,7.6729166 9.6572914,9.6572914 0 0 1 9.2965901,7.7214924 11.244792,11.244792 0 0 1 8.9958332,5.1593749 11.244792,11.244792 0 0 1 9.2981404,2.5915731 Z" /></g><g
           id="g2232"
           style="display:inline;fill:url(#linearGradient2238)"
           transform="translate(21.43125,15.08125)"><path
             id="path2228"
             style="font-variation-settings:'wght' 700;display:inline;fill:url(#linearGradient2234);fill-opacity:1;stroke:none"
             d="M 5.7712239,4.1992268 A 9.6572914,9.6572914 0 0 1 5.8208333,5.1593749 9.6572914,9.6572914 0 0 1 5.7701904,6.119523 11.244792,11.244792 0 0 1 8.3343749,5.8208333 11.244792,11.244792 0 0 1 10.898559,6.117456 9.6572914,9.6572914 0 0 1 10.847917,5.1593749 9.6572914,9.6572914 0 0 1 10.899076,4.1992268 11.244792,11.244792 0 0 1 8.3343749,4.4979166 11.244792,11.244792 0 0 1 5.7712239,4.1992268 Z" /><path
             id="path2230"
             style="font-variation-settings:'wght' 700;fill:url(#linearGradient2236);fill-opacity:1;stroke:none;stroke-width:0.264583;stroke-dasharray:none;stroke-opacity:1"
             d="M 9.2981404,2.5915731 A 9.6572914,9.6572914 0 0 1 8.3343749,2.6458333 9.6572914,9.6572914 0 0 1 7.37371,2.5920898 11.244792,11.244792 0 0 1 7.6729166,5.1593749 11.244792,11.244792 0 0 1 7.3706095,7.7271768 9.6572914,9.6572914 0 0 1 8.3343749,7.6729166 9.6572914,9.6572914 0 0 1 9.2965901,7.7214924 11.244792,11.244792 0 0 1 8.9958332,5.1593749 11.244792,11.244792 0 0 1 9.2981404,2.5915731 Z" /></g></g></g></g><g
     id="g4714"
     transform="scale(3.7795276)"
     inkscape:label="guides"
     style="display:none;fill:none;stroke:#000000;stroke-width:0.0264583;stroke-dasharray:none;stroke-opacity:1"><g
       id="g6973"><circle
         style="font-variation-settings:'wght' 700;fill:none;fill-opacity:1;stroke:#000000;stroke-width:0.0264583;stroke-linejoin:round;stroke-dasharray:none;stroke-opacity:1"
         id="path8582"
         cx="20.505209"
         cy="5.1593747"
         r="9.6572914" /><circle
         style="font-variation-settings:'wght' 700;fill:none;fill-opacity:1;stroke:#000000;stroke-width:0.0264583;stroke-linejoin:round;stroke-dasharray:none;stroke-opacity:1"
         id="circle8593"
         cx="-3.8364575"
         cy="5.1593742"
         r="9.6572914" /><circle
         style="font-variation-settings:'wght' 700;fill:none;fill-opacity:1;stroke:#000000;stroke-width:0.0264583;stroke-linejoin:round;stroke-dasharray:none;stroke-opacity:1"
         id="circle8595"
         cx="8.3343754"
         cy="-7.0114589"
         r="9.6572914" /><circle
         style="font-variation-settings:'wght' 700;fill:none;fill-opacity:1;stroke:#000000;stroke-width:0.0264583;stroke-linejoin:round;stroke-dasharray:none;stroke-opacity:1"
         id="circle8597"
         cx="8.3343754"
         cy="17.330208"
         r="9.6572914" /><circle
         style="font-variation-settings:'wght' 700;fill:none;fill-opacity:1;stroke:#000000;stroke-width:0.0264583;stroke-linejoin:round;stroke-dasharray:none;stroke-opacity:1"
         id="path8508"
         cx="20.240625"
         cy="5.1593747"
         r="11.244792" /><circle
         style="font-variation-settings:'wght' 700;fill:none;fill-opacity:1;stroke:#000000;stroke-width:0.0264583;stroke-linejoin:round;stroke-dasharray:none;stroke-opacity:1"
         id="circle8510"
         cx="-3.5718744"
         cy="5.1593747"
         r="11.244792" /><circle
         style="font-variation-settings:'wght' 700;fill:none;fill-opacity:1;stroke:#000000;stroke-width:0.0264583;stroke-linejoin:round;stroke-dasharray:none;stroke-opacity:1"
         id="circle8543"
         cx="8.3343754"
         cy="-6.7468753"
         r="11.244792" /><circle
         style="font-variation-settings:'wght' 700;fill:none;fill-opacity:1;stroke:#000000;stroke-width:0.0264583;stroke-linejoin:round;stroke-dasharray:none;stroke-opacity:1"
         id="circle8545"
         cx="8.3343754"
         cy="17.065624"
         r="11.244792" /></g><g
       id="g911"
       style="display:inline"
       transform="translate(21.43125)"><circle
         style="font-variation-settings:'wght' 700;fill:none;fill-opacity:1;stroke:#000000;stroke-width:0.0264583;stroke-linejoin:round;stroke-dasharray:none;stroke-opacity:1"
         id="circle895"
         cx="20.505209"
         cy="5.1593747"
         r="9.6572914" /><circle
         style="font-variation-settings:'wght' 700;fill:none;fill-opacity:1;stroke:#000000;stroke-width:0.0264583;stroke-linejoin:round;stroke-dasharray:none;stroke-opacity:1"
         id="circle897"
         cx="-3.8364575"
         cy="5.1593742"
         r="9.6572914" /><circle
         style="font-variation-settings:'wght' 700;fill:none;fill-opacity:1;stroke:#000000;stroke-width:0.0264583;stroke-linejoin:round;stroke-dasharray:none;stroke-opacity:1"
         id="circle899"
         cx="8.3343754"
         cy="-7.0114589"
         r="9.6572914" /><circle
         style="font-variation-settings:'wght' 700;fill:none;fill-opacity:1;stroke:#000000;stroke-width:0.0264583;stroke-linejoin:round;stroke-dasharray:none;stroke-opacity:1"
         id="circle901"
         cx="8.3343754"
         cy="17.330208"
         r="9.6572914" /><circle
         style="font-variation-settings:'wght' 700;fill:none;fill-opacity:1;stroke:#000000;stroke-width:0.0264583;stroke-linejoin:round;stroke-dasharray:none;stroke-opacity:1"
         id="circle903"
         cx="20.240625"
         cy="5.1593747"
         r="11.244792" /><circle
         style="font-variation-settings:'wght' 700;fill:none;fill-opacity:1;stroke:#000000;stroke-width:0.0264583;stroke-linejoin:round;stroke-dasharray:none;stroke-opacity:1"
         id="circle905"
         cx="-3.5718744"
         cy="5.1593747"
         r="11.244792" /><circle
         style="font-variation-settings:'wght' 700;fill:none;fill-opacity:1;stroke:#000000;stroke-width:0.0264583;stroke-linejoin:round;stroke-dasharray:none;stroke-opacity:1"
         id="circle907"
         cx="8.3343754"
         cy="-6.7468753"
         r="11.244792" /><circle
         style="font-variation-settings:'wght' 700;fill:none;fill-opacity:1;stroke:#000000;stroke-width:0.0264583;stroke-linejoin:round;stroke-dasharray:none;stroke-opacity:1"
         id="circle909"
         cx="8.3343754"
         cy="17.065624"
         r="11.244792" /></g><g
       id="g2321"
       style="display:inline"
       transform="translate(21.43125,15.08125)"><circle
         style="font-variation-settings:'wght' 700;fill:none;fill-opacity:1;stroke:#000000;stroke-width:0.0264583;stroke-linejoin:round;stroke-dasharray:none;stroke-opacity:1"
         id="circle2305"
         cx="20.505209"
         cy="5.1593747"
         r="9.6572914" /><circle
         style="font-variation-settings:'wght' 700;fill:none;fill-opacity:1;stroke:#000000;stroke-width:0.0264583;stroke-linejoin:round;stroke-dasharray:none;stroke-opacity:1"
         id="circle2307"
         cx="-3.8364575"
         cy="5.1593742"
         r="9.6572914" /><circle
         style="font-variation-settings:'wght' 700;fill:none;fill-opacity:1;stroke:#000000;stroke-width:0.0264583;stroke-linejoin:round;stroke-dasharray:none;stroke-opacity:1"
         id="circle2309"
         cx="8.3343754"
         cy="-7.0114589"
         r="9.6572914" /><circle
         style="font-variation-settings:'wght' 700;fill:none;fill-opacity:1;stroke:#000000;stroke-width:0.0264583;stroke-linejoin:round;stroke-dasharray:none;stroke-opacity:1"
         id="circle2311"
         cx="8.3343754"
         cy="17.330208"
         r="9.6572914" /><circle
         style="font-variation-settings:'wght' 700;fill:none;fill-opacity:1;stroke:#000000;stroke-width:0.0264583;stroke-linejoin:round;stroke-dasharray:none;stroke-opacity:1"
         id="circle2313"
         cx="20.240625"
         cy="5.1593747"
         r="11.244792" /><circle
         style="font-variation-settings:'wght' 700;fill:none;fill-opacity:1;stroke:#000000;stroke-width:0.0264583;stroke-linejoin:round;stroke-dasharray:none;stroke-opacity:1"
         id="circle2315"
         cx="-3.5718744"
         cy="5.1593747"
         r="11.244792" /><circle
         style="font-variation-settings:'wght' 700;fill:none;fill-opacity:1;stroke:#000000;stroke-width:0.0264583;stroke-linejoin:round;stroke-dasharray:none;stroke-opacity:1"
         id="circle2317"
         cx="8.3343754"
         cy="-6.7468753"
         r="11.244792" /><circle
         style="font-variation-settings:'wght' 700;fill:none;fill-opacity:1;stroke:#000000;stroke-width:0.0264583;stroke-linejoin:round;stroke-dasharray:none;stroke-opacity:1"
         id="circle2319"
         cx="8.3343754"
         cy="17.065624"
         r="11.244792" /></g><g
       id="g2339"
       style="display:inline"
       transform="translate(2.3217187e-7,15.08125)"><circle
         style="font-variation-settings:'wght' 700;fill:none;fill-opacity:1;stroke:#000000;stroke-width:0.0264583;stroke-linejoin:round;stroke-dasharray:none;stroke-opacity:1"
         id="circle2323"
         cx="20.505209"
         cy="5.1593747"
         r="9.6572914" /><circle
         style="font-variation-settings:'wght' 700;fill:none;fill-opacity:1;stroke:#000000;stroke-width:0.0264583;stroke-linejoin:round;stroke-dasharray:none;stroke-opacity:1"
         id="circle2325"
         cx="-3.8364575"
         cy="5.1593742"
         r="9.6572914" /><circle
         style="font-variation-settings:'wght' 700;fill:none;fill-opacity:1;stroke:#000000;stroke-width:0.0264583;stroke-linejoin:round;stroke-dasharray:none;stroke-opacity:1"
         id="circle2327"
         cx="8.3343754"
         cy="-7.0114589"
         r="9.6572914" /><circle
         style="font-variation-settings:'wght' 700;fill:none;fill-opacity:1;stroke:#000000;stroke-width:0.0264583;stroke-linejoin:round;stroke-dasharray:none;stroke-opacity:1"
         id="circle2329"
         cx="8.3343754"
         cy="17.330208"
         r="9.6572914" /><circle
         style="font-variation-settings:'wght' 700;fill:none;fill-opacity:1;stroke:#000000;stroke-width:0.0264583;stroke-linejoin:round;stroke-dasharray:none;stroke-opacity:1"
         id="circle2331"
         cx="20.240625"
         cy="5.1593747"
         r="11.244792" /><circle
         style="font-variation-settings:'wght' 700;fill:none;fill-opacity:1;stroke:#000000;stroke-width:0.0264583;stroke-linejoin:round;stroke-dasharray:none;stroke-opacity:1"
         id="circle2333"
         cx="-3.5718744"
         cy="5.1593747"
         r="11.244792" /><circle
         style="font-variation-settings:'wght' 700;fill:none;fill-opacity:1;stroke:#000000;stroke-width:0.0264583;stroke-linejoin:round;stroke-dasharray:none;stroke-opacity:1"
         id="circle2335"
         cx="8.3343754"
         cy="-6.7468753"
         r="11.244792" /><circle
         style="font-variation-settings:'wght' 700;fill:none;fill-opacity:1;stroke:#000000;stroke-width:0.0264583;stroke-linejoin:round;stroke-dasharray:none;stroke-opacity:1"
         id="circle2337"
         cx="8.3343754"
         cy="17.065624"
         r="11.244792" /></g></g></svg>
