<?xml version="1.0" encoding="UTF-8" standalone="no"?>
<svg
   height="800"
   viewBox="0 0 800 800"
   width="800"
   version="1.1"
   id="svg23"
   sodipodi:docname="rect copy.svg"
   inkscape:version="1.4 (e7c3feb1, 2024-10-09)"
   xmlns:inkscape="http://www.inkscape.org/namespaces/inkscape"
   xmlns:sodipodi="http://sodipodi.sourceforge.net/DTD/sodipodi-0.dtd"
   xmlns="http://www.w3.org/2000/svg"
   xmlns:svg="http://www.w3.org/2000/svg">
  <defs
     id="defs23" />
  <sodipodi:namedview
     id="namedview23"
     pagecolor="#ffffff"
     bordercolor="#000000"
     borderopacity="0.25"
     inkscape:showpageshadow="2"
     inkscape:pageopacity="0.0"
     inkscape:pagecheckerboard="0"
     inkscape:deskcolor="#d1d1d1"
     inkscape:current-layer="svg23" />
  <clipPath
     id="a">
    <path
       d="M 0,600 H 900 V 0 H 0 Z"
       transform="translate(-325.19241,-383.20511)"
       id="path1" />
  </clipPath>
  <clipPath
     id="b">
    <path
       d="M 0,600 H 900 V 0 H 0 Z"
       transform="translate(-325.19241,-383.20511)"
       id="path2" />
  </clipPath>
  <clipPath
     id="c">
    <path
       d="M 0,600 H 900 V 0 H 0 Z"
       transform="translate(-293.99071,-105.8545)"
       id="path3" />
  </clipPath>
  <clipPath
     id="d">
    <path
       d="M 0,600 H 900 V 0 H 0 Z"
       transform="translate(-283.17381,-98.643602)"
       id="path4" />
  </clipPath>
  <clipPath
     id="e">
    <path
       d="M 0,600 H 900 V 0 H 0 Z"
       transform="translate(-751.61822,-410.93991)"
       id="path5" />
  </clipPath>
  <clipPath
     id="f">
    <path
       d="M 0,600 H 900 V 0 H 0 Z"
       transform="translate(-740.80182,-403.72901)"
       id="path6" />
  </clipPath>
  <clipPath
     id="g">
    <path
       d="M 0,600 H 900 V 0 H 0 Z"
       transform="translate(-694.41502,-462.94341)"
       id="path7" />
  </clipPath>
  <clipPath
     id="h">
    <path
       d="M 0,600 H 900 V 0 H 0 Z"
       transform="translate(-701.62602,-452.12701)"
       id="path8" />
  </clipPath>
  <path
     d="M 0,799.99998 H 800 V 0 H 0 Z"
     fill="#ffffff"
     id="path9"
     style="stroke-width:1.08866" />
  <g
     id="g31"
     transform="translate(41.02507)">
    <path
       d="m 81.04747,307.55013 110.94,-166.41066 M 39.4448,279.81546 150.3848,113.4048 M -2.15786,252.07946 108.78214,85.670136"
       id="path10"
       style="stroke-width:1.33333" />
    <path
       d="m 11.7096,261.32493 -27.73467,-18.48933 110.94,-166.410665 27.736,18.489332 z m 41.60267,27.73467 -27.736,-18.48934 110.94133,-166.41066 27.73466,18.49067 z m 41.60266,27.736 -27.73466,-18.49067 110.93999,-166.40933 27.73467,18.48933 z"
       id="path11"
       style="stroke-width:1.33333" />
  </g>
  <g
     id="g29"
     transform="translate(-41.0243)">
    <path
       d="M 691.21747,714.33067 802.1575,547.92001 M 649.6148,686.59467 760.5548,520.18534 M 608.01347,658.86 l 110.94,-166.40932"
       id="path12"
       style="stroke-width:1.33333" />
    <path
       d="m 621.88027,668.10547 -27.73467,-18.48933 110.94,-166.41067 27.73467,18.48934 z m 41.60133,27.73467 -27.73466,-18.48934 110.93999,-166.41066 27.73467,18.48933 z m 41.60267,27.736 -27.73333,-18.49067 110.93999,-166.40933 27.73337,18.48933 z"
       id="path13"
       style="stroke-width:1.33333" />
    <path
       d="m 635.74733,557.16533 138.676,92.44933"
       id="path14"
       style="stroke-width:1.33333" />
    <path
       d="m 765.1784,663.48173 -138.676,-92.44933 18.48934,-27.73467 138.67599,92.44933 z"
       fill="#ffffff"
       id="path15"
       style="stroke-width:1.33333" />
  </g>
  <path
     clip-path="url(#a)"
     d="M 0,0 C 45.953,68.929 139.083,87.555 208.013,41.603 276.942,-4.351 295.568,-97.48 249.615,-166.41 203.662,-235.34 110.532,-253.966 41.603,-208.013 -27.327,-162.06 -45.953,-68.929 0,0"
     fill="#c60c30"
     transform="matrix(1.3333333,0,0,-1.3333333,233.58987,289.05987)"
     id="path16" />
  <path
     clip-path="url(#b)"
     d="m 0,0 c -22.977,-34.465 -13.663,-81.03 20.801,-104.006 34.465,-22.976 81.03,-13.664 104.007,20.801 22.976,34.465 69.542,43.778 104.005,20.801 34.465,-22.976 43.779,-69.541 20.802,-104.006 C 203.662,-235.34 110.532,-253.966 41.603,-208.013 -27.327,-162.06 -45.953,-68.929 0,0"
     fill="#003478"
     transform="matrix(1.3333333,0,0,-1.3333333,233.58987,289.05987)"
     id="path17" />
  <path
     clip-path="url(#g)"
     d="m 0,0 31.201,20.801 m -98.805,-65.87 36.402,24.268 m -457.628,-305.086 31.202,20.802"
     transform="matrix(1.3333333,0,0,-1.3333333,725.88667,182.74213)"
     id="path22" />
  <g
     id="g28"
     transform="translate(41.57893)">
    <path
       clip-path="url(#c)"
       d="m 0,0 -83.205,124.808 m 52.003,-145.609 -83.205,124.808 m 52.003,-145.61 -83.205,124.808"
       transform="matrix(1.3333333,0,0,-1.3333333,191.9876,658.86067)"
       id="path18" />
    <path
       clip-path="url(#d)"
       d="m 0,0 -83.205,124.808 21.633,14.421 83.206,-124.807 z m -31.202,-20.801 -83.205,124.808 21.634,14.422 83.204,-124.808 z m -31.202,-20.802 -83.204,124.808 21.633,14.422 83.204,-124.808 z"
       transform="matrix(1.3333333,0,0,-1.3333333,177.56507,668.4752)"
       id="path19" />
    <path
       clip-path="url(#h)"
       d="m -488.829,-325.887 -14.423,21.633 31.202,20.802 14.423,-21.633 z"
       fill="#ffffff"
       transform="matrix(1.3333333,0,0,-1.3333333,735.50133,197.164)"
       id="path23"
       sodipodi:nodetypes="ccccc" />
  </g>
  <g
     id="g30"
     transform="translate(-41.57973)">
    <path
       clip-path="url(#e)"
       d="m 0,0 -83.205,124.808 m 52.003,-145.609 -83.205,124.807 m 52.004,-145.609 -83.205,124.808"
       transform="matrix(1.3333333,0,0,-1.3333333,802.1576,252.08013)"
       id="path20" />
    <path
       clip-path="url(#f)"
       d="m 0,0 -83.205,124.808 21.633,14.421 83.205,-124.807 z m -31.202,-20.801 -83.205,124.807 21.633,14.422 83.205,-124.807 z m -31.201,-20.802 -83.205,124.808 21.632,14.422 83.205,-124.808 z"
       transform="matrix(1.3333333,0,0,-1.3333333,787.73573,261.69467)"
       id="path21" />
    <path
       d="m 738.96905,194.85294 -19.22933,-28.844 41.6013,-27.73467 19.2294,28.844 z m -90.13866,60.09333 -19.22934,-28.84533 48.536,-32.35734 19.22933,28.84534 z"
       style="fill:#ffffff;stroke-width:1.33333"
       id="path1-1" />
  </g>
</svg>
