<svg xmlns="http://www.w3.org/2000/svg" viewBox="0 0 60 40">
<style>
.på
{	fill:
		#fff;
	}

.av
{	fill:
		#000;
	}

.K
{	fill:
		#111;
	}

.flip
{	scale:
		-1 1;
	transform-origin:
		30px 20px;
	}

.Q
{	stroke:
		#6ff;
	stroke-width:
		calc( 60px / 1000);
	fill:
		none;
	stroke-linecap:
		round;
	stroke-linejoin:
		round;
	}
	</style>
<defs>
	<path id="rekt" d="M0 0h60v40H0z"/>
	<path id="halvV" d="M0 0h30v40H0z"/>
	<path id="halvH" d="M30 0h60v40H30z"/>
	<path id="skaft" d="M29 30v-16h2v16z"/>
	<path id="sned" d="M26 24v-2l15 2v2z"/>
	<path id="snedÖ" d="M26 0v22l60 8V0z"/>
	<path id="snedU" d="M26 40v-16l60 8V40z"/>
	<circle id="r8" r="8" cx="36" cy="23"/>
	<circle id="r9" r="9" cx="40" cy="22"/>
	<circle id="r14" r="14" cx="30" cy="29"/>
	<circle id="r16V" r="16" cx="15" cy="5"/>
	<circle id="r16H" r="16" cx="45" cy="5"/>
	<circle id="r20" r="20" cx="55" cy="25"/>
	<circle id="r22" r="22" cx="55" cy="25"/>
	<circle id="spets" r="16" cx="30" cy="5"/>
	</defs>
<mask id="pil">
	<use class="på" href="#rekt"/>
	<g class="av" fill-rule="evenodd">
		<circle r="16" cx="15" cy="5"/>
		<circle r="16" cx="45" cy="5"/>
		<circle r="14" cx="30" cy="29"/>
		</g>
	</mask>
<mask id="r8p">
	<use class="på" href="#r8"/>
	</mask>
<mask id="r8a">
	<use class="på" href="#rekt"/>
	<use class="av" href="#r8"/>
	</mask>
<mask id="r9p">
	<use class="på" href="#r9"/>
	</mask>
<mask id="r9a">
	<use class="på" href="#rekt"/>
	<use class="av" href="#r9"/>
	</mask>
<mask id="r20p">
	<use class="på" href="#r20"/>
	</mask>
<mask id="r20a">
	<use class="på" href="#rekt"/>
	<use class="av" href="#r20"/>
	</mask>
<mask id="r22p">
	<use class="på" href="#r22"/>
	</mask>
<mask id="r22a">
	<use class="på" href="#rekt"/>
	<use class="av" href="#r22"/>
	</mask>
<mask id="sÖp">
	<use class="på" href="#snedÖ"/>
	</mask>
<mask id="sÖa">
	<use class="på" href="#rekt"/>
	<use class="av" href="#snedÖ"/>
	</mask>
<mask id="sUp">
	<use class="på" href="#snedU"/>
	</mask>
<mask id="sUa">
	<use class="på" href="#rekt"/>
	<use class="av" href="#snedU"/>
	</mask>
<g class="K" id="treudd">
	<g id="pigg" mask="url(#r20a)">
		<g mask="url(#sUa)">
			<g mask="url(#r9p)">
				<use href="#r9" mask="url(#r8a)"/>
				<use href="#halvH" mask="url(#r22p)"/>
				</g>
			<use href="#halvH" mask="url(#sÖa)"/>
			</g>
		</g>
	<use class="flip" href="#pigg"/>
	<use href="#spets" mask="url(#pil)"/>
	<use href="#skaft"/>
	</g>
</svg>