<svg height="800" viewBox="0 0 1200 800" width="1200" xmlns="http://www.w3.org/2000/svg"><path d="m0 0h900v600h-900z" fill="#fff" transform="matrix(1.3333333 0 0 -1.3333333 0 800)"/><path d="m0 0v-236.001h-386v-127.999h386v-236h128v236h386v127.999h-386v236.001z" fill="#e8112d" transform="matrix(1.3333333 0 0 -1.3333333 514.6668 -.0004)"/><g fill="#f9dd16"><path d="m0 0 25 25h225v50h-225l-25 25z" transform="matrix(1.3333333 0 0 -1.3333333 300 466.66667)"/><path d="m0 0 25-25v-225h50v225l25 25z" transform="matrix(1.3333333 0 0 -1.3333333 533.33333 100)"/><path d="m0 0-25 25v225h-50v-225l-25-25z" transform="matrix(1.3333333 0 0 -1.3333333 666.66667 700)"/><path d="m0 0-25-25h-225v-50h225l25-25z" transform="matrix(1.3333333 0 0 -1.3333333 900 333.33333)"/></g></svg>