<?xml version="1.0" encoding="UTF-8" standalone="no"?>
<svg
   height="600"
   width="600"
   version="1.1"
   id="svg5"
   sodipodi:docname="rect copy.svg"
   inkscape:version="1.4 (e7c3feb1, 2024-10-09)"
   xmlns:inkscape="http://www.inkscape.org/namespaces/inkscape"
   xmlns:sodipodi="http://sodipodi.sourceforge.net/DTD/sodipodi-0.dtd"
   xmlns="http://www.w3.org/2000/svg"
   xmlns:svg="http://www.w3.org/2000/svg">
  <defs
     id="defs5" />
  <sodipodi:namedview
     id="namedview5"
     pagecolor="#ffffff"
     bordercolor="#000000"
     borderopacity="0.25"
     inkscape:showpageshadow="2"
     inkscape:pageopacity="0.0"
     inkscape:pagecheckerboard="0"
     inkscape:deskcolor="#d1d1d1"
     inkscape:current-layer="svg5" />
  <path
     d="M 0,0 H 600 V 600 H 0 Z"
     fill="#cc0000"
     id="path1"
     style="stroke-width:0.816497" />
  <g
     fill="#ffd700"
     id="g5">
    <path
       d="m 200,37.5 -8.419,25.912 h -27.245 l 22.042,16.014 -8.42,25.912 22.042,-16.015 22.043,16.015 -8.42,-25.912 22.042,-16.014 H 208.42 Z m 0,13.5 5.389,16.583 h 17.437 l -14.107,10.25 5.388,16.583 L 200,84.167 l -14.106,10.25 5.388,-16.584 -14.107,-10.25 h 17.437 z"
       id="path2" />
    <g
       transform="matrix(0.98932,0,0,0.98674,3.83,3.766)"
       id="g4">
      <path
         d="m 137.437,171.694 18.863,18.994 17.789,-17.666 c 27.058,29.021 55.438,56.995 82.287,86.128 4.034,4.062 10.598,4.085 14.66,0.05 4.063,-4.034 4.085,-10.598 0.05,-14.66 -28.818,-27.19 -57.725,-54.602 -86.552,-81.891 l 23.965,-23.8 -33.34,-4.616 z"
         id="path3" />
      <path
         d="m 198.289,110.196 c 15.517,8.739 27.298,21.28 34.248,34.392 7.044,13.289 10.14,27.162 10.203,38.254 0.13,22.744 -18.437,41.182 -41.181,41.182 -12.136,0 -23.047,-5.249 -30.583,-13.6 l -4.17,3.51 a 6.22,6.22 0 0 0 -6.973,1.789 7.82,7.82 0 0 0 -6.404,5.291 c -3.135,6.289 -8.636,11.22 -15.291,13.478 q -0.094,0.035 -0.176,0.078 c -3.078,1.128 -6.163,3.165 -8.79,5.803 -5.19,5.236 -7.728,11.936 -6.3,16.638 a 4,4 0 0 0 -0.215,1.27 3.93,3.93 0 0 0 3.931,3.93 3.9,3.9 0 0 0 1.578,-0.336 c 4.693,1.059 11.068,-1.546 16.054,-6.559 2.826,-2.85 4.944,-6.224 5.983,-9.53 2.317,-6.623 7.297,-12.02 13.623,-15.054 a 3,3 0 0 0 0.382,-0.223 7.82,7.82 0 0 0 4.225,-5.214 c 9.702,11.445 24.253,18.753 40.519,19.136 29.833,0.702 52.133,-21.258 53.164,-52.837 0.519,-15.892 -5.63,-36.385 -19.641,-53.19 -10.709,-12.845 -26.41,-23.509 -44.187,-28.209 z"
         id="path4" />
    </g>
  </g>
</svg>
