<svg height="240" viewBox="0 0 240 240" width="240" xmlns="http://www.w3.org/2000/svg" xmlns:xlink="http://www.w3.org/1999/xlink"><clipPath id="a"><path d="m0 0h270.963v180h-270.963z" transform="translate(-285.48141 -180)"/></clipPath><clipPath id="b"><path d="m0 0h270.963v180h-270.963z" transform="translate(-135.48141 -141)"/></clipPath><clipPath id="c"><path d="m0 0h270.963v180h-270.963z" transform="translate(-125.0889 -122.3994)"/></clipPath><clipPath id="d"><path d="m0 0h270.963v180h-270.963z" transform="translate(-126.95991 -121.3193)"/></clipPath><clipPath id="e"><path d="m0 0h270.963v180h-270.963z" transform="translate(-102.2139 -83.024402)"/></clipPath><clipPath id="f"><path d="m0 0h270.963v180h-270.963z" transform="translate(-104.08491 -81.944305)"/></clipPath><clipPath id="g"><path d="m0 0h270.963v180h-270.963z" transform="translate(-148.1655 -82.7695)"/></clipPath><clipPath id="h"><path d="m0 0h270.963v180h-270.963z" transform="translate(-150.0361 -81.6895)"/></clipPath><path d="m-.0000015 0v11.614666l119.9995515 108.385334 120.00045-108.385334v-11.614666zm0 228.38533v11.61466h240.0000015v-11.61466l-120.00045-108.38533z" fill="#ce1126" stroke-width="1.08672"/><path d="m240.59492 0-119.99955 120 119.99955 119.99999zm-239.99999595 0v239.99999l120.00044595-119.99999z" fill="#1eb53a" stroke-width="1.08673"/><path d="m120 120 179.99933-108.385331zm-179.999331-108.385331 179.999331 108.385331zm179.999331 108.385331 179.99933 108.38533zm-179.999331 108.38533 179.999331-108.38533z" stroke-width="1.33096"/><path clip-path="url(#a)" d="m-240.32092-180 180.642016 180m-180.642016 0 180.642016-180" fill="none" stroke="#fff" stroke-width="22.5" transform="matrix(1.3285946 0 0 -1.3333333 319.28907 0)"/><path clip-path="url(#b)" d="m0 0c28.167 0 51-22.834 51-51 0-28.167-22.833-51-51-51-28.166 0-51 22.833-51 51 0 28.166 22.834 51 51 51" fill="#fff" transform="matrix(1.3333333 0 0 -1.3333333 120 52)"/><path clip-path="url(#c)" d="m0 0 3.464-6-3.464-6h6.929l3.464-6 3.463 6h6.929l-3.464 6 3.464 6h-6.929l-3.463 6-3.464-6z" fill="#1eb53a" transform="matrix(1.3333333 0 0 -1.3333333 106.14333 76.8008)"/><path clip-path="url(#d)" d="m0 0 2.84-4.92-2.84-4.92h5.681l2.84-4.919 2.841 4.919h5.681l-2.84 4.92 2.84 4.92h-5.681l-2.841 4.921-2.84-4.92z" fill="#ce1126" transform="matrix(1.3333333 0 0 -1.3333333 108.638 78.240933)"/><path clip-path="url(#e)" d="m0 0 3.464-6-3.464-6h6.929l3.464-6 3.463 6h6.929l-3.464 6 3.464 6h-6.929l-3.463 6-3.464-6z" fill="#1eb53a" transform="matrix(1.3333333 0 0 -1.3333333 75.64333 129.3008)"/><path clip-path="url(#f)" d="m0 0 2.84-4.92-2.84-4.92h5.681l2.84-4.919 2.841 4.919h5.681l-2.84 4.92 2.84 4.92h-5.681l-2.841 4.921-2.84-4.92z" fill="#ce1126" transform="matrix(1.3333333 0 0 -1.3333333 78.138 130.74093)"/><path clip-path="url(#g)" d="m0 0 3.464-6-3.464-6h6.928l3.464-6 3.464 6h6.928l-3.464 6 3.464 6h-6.928l-3.464 6-3.464-6z" fill="#1eb53a" transform="matrix(1.3333333 0 0 -1.3333333 136.91213 129.64067)"/><path clip-path="url(#h)" d="m0 0 2.841-4.92-2.841-4.92h5.681l2.84-4.92 2.841 4.92h5.681l-2.84 4.92 2.84 4.92h-5.681l-2.841 4.92-2.84-4.92z" fill="#ce1126" transform="matrix(1.3333333 0 0 -1.3333333 139.40626 131.08067)"/></svg>