<?xml version="1.0" encoding="UTF-8" standalone="no"?>
<!-- Created with Inkscape (http://www.inkscape.org/) -->

<svg
   width="96"
   height="96"
   viewBox="0 0 96 96"
   version="1.1"
   id="svg5"
   inkscape:version="1.2.2 (732a01da63, 2022-12-09)"
   sodipodi:docname="square.svg"
   xml:space="preserve"
   xmlns:inkscape="http://www.inkscape.org/namespaces/inkscape"
   xmlns:sodipodi="http://sodipodi.sourceforge.net/DTD/sodipodi-0.dtd"
   xmlns:xlink="http://www.w3.org/1999/xlink"
   xmlns="http://www.w3.org/2000/svg"
   xmlns:svg="http://www.w3.org/2000/svg"><sodipodi:namedview
     id="namedview7"
     pagecolor="#505050"
     bordercolor="#eeeeee"
     borderopacity="1"
     inkscape:showpageshadow="0"
     inkscape:pageopacity="0"
     inkscape:pagecheckerboard="0"
     inkscape:deskcolor="#505050"
     inkscape:document-units="px"
     showgrid="false"
     inkscape:zoom="1.4142135"
     inkscape:cx="-119.14749"
     inkscape:cy="27.577165"
     inkscape:window-width="1920"
     inkscape:window-height="1017"
     inkscape:window-x="-8"
     inkscape:window-y="-8"
     inkscape:window-maximized="1"
     inkscape:current-layer="layer1"><inkscape:grid
       type="xygrid"
       id="grid2501"
       empspacing="12"
       originx="0"
       originy="0"
       spacingy="1"
       spacingx="1"
       units="px"
       visible="true"
       color="#000000"
       opacity="0.14901961"
       empcolor="#000000"
       empopacity="0.30196078" /></sodipodi:namedview><defs
     id="defs2"><linearGradient
       id="sides"
       inkscape:swatch="solid"><stop
         style="stop-color:#cc0022;stop-opacity:1;"
         offset="0"
         id="stop3798" /></linearGradient><linearGradient
       id="top"
       inkscape:label="left"><stop
         style="stop-color:#111111;stop-opacity:1;"
         offset="0"
         id="stop10417" /></linearGradient><linearGradient
       id="bottom"
       inkscape:label="right"><stop
         style="stop-color:#dd1133;stop-opacity:1;"
         offset="0"
         id="stop1523" /></linearGradient><linearGradient
       id="mid"
       inkscape:swatch="solid"><stop
         style="stop-color:#ffffff;stop-opacity:1;"
         offset="0"
         id="stop1517" /></linearGradient><linearGradient
       inkscape:collect="always"
       xlink:href="#mid"
       id="linearGradient3812"
       gradientUnits="userSpaceOnUse"
       x1="0"
       y1="12.7"
       x2="25.4"
       y2="12.7" /><linearGradient
       inkscape:collect="always"
       xlink:href="#sides"
       id="linearGradient3814"
       gradientUnits="userSpaceOnUse"
       x1="0"
       y1="12.7"
       x2="25.4"
       y2="12.7" /></defs><g
     inkscape:label="ca"
     inkscape:groupmode="layer"
     id="layer1"
     transform="scale(3.7795276)"><g
       id="g3796"
       style="fill-opacity:1;fill:url(#linearGradient3812);stroke:none"
       inkscape:label="white"><rect
         style="font-variation-settings:'wght' 700;stroke-width:0;stroke-linecap:square;fill-opacity:1;stroke:none"
         id="rect877"
         width="25.4"
         height="25.4"
         x="0"
         y="0"
         inkscape:label="mid" /></g><g
       id="g3806"
       style="fill-opacity:1;fill:url(#linearGradient3814);stroke:none"
       inkscape:label="red"><rect
         style="font-variation-settings:'wght' 700;fill-opacity:1;stroke:none;stroke-width:0;stroke-linecap:square"
         id="rect3804"
         width="6.3499999"
         height="25.4"
         x="0"
         y="0"
         inkscape:label="left" /><rect
         style="font-variation-settings:'wght' 700;fill-opacity:1;stroke:none;stroke-width:0;stroke-linecap:square"
         id="rect6554"
         width="6.3500018"
         height="25.4"
         x="19.049999"
         y="0"
         inkscape:label="right" /><path
         id="rect7318"
         style="font-variation-settings:'wght' 700;stroke:none;stroke-width:0;stroke-linecap:square"
         d="M 12.7 7.4083333 L 11.821501 9.1332926 A 0.17197895 0.17197895 0 0 1 11.580688 9.204606 L 10.715625 8.7048949 L 11.255127 11.488188 A 0.17197895 0.17197895 0 0 1 10.961605 11.639083 L 9.8422932 10.437606 L 9.5647908 11.091313 A 0.17197895 0.17197895 0 0 1 9.3715209 11.192082 L 7.9375 10.887707 L 8.4294596 12.400793 A 0.17197895 0.17197895 0 0 1 8.3395426 12.610083 L 7.7788533 12.872082 L 10.268624 14.88798 A 0.17197895 0.17197895 0 0 1 10.321334 15.08125 L 10.014376 15.92771 L 12.287105 15.528251 A 0.25135385 0.25135385 0 0 1 12.581144 15.787667 L 12.461772 18.071248 L 12.938228 18.071248 L 12.818856 15.787667 A 0.25135385 0.25135385 0 0 1 13.112895 15.528251 L 15.385624 15.92771 L 15.078666 15.08125 A 0.17197895 0.17197895 0 0 1 15.131376 14.88798 L 17.621147 12.872082 L 17.060457 12.610083 A 0.17197895 0.17197895 0 0 1 16.97054 12.400793 L 17.4625 10.887707 L 16.028479 11.192082 A 0.17197895 0.17197895 0 0 1 15.835209 11.091313 L 15.557707 10.437606 L 14.438395 11.639083 A 0.17197895 0.17197895 0 0 1 14.144873 11.488188 L 14.684375 8.7048949 L 13.819311 9.204606 A 0.17197895 0.17197895 0 0 1 13.578499 9.1332926 L 12.7 7.4083333 z "
         inkscape:label="leaf" /></g></g></svg>
