<svg height="666.66669" viewBox="0 0 992.24268 666.66669" width="992.24268" xmlns="http://www.w3.org/2000/svg" xmlns:xlink="http://www.w3.org/1999/xlink"><clipPath id="a"><path d="m0 500h744.182v-500h-744.182z" transform="translate(-398.00261 -206.97071)"/></clipPath><clipPath id="b"><path d="m0 500h744.182v-500h-744.182z" transform="translate(-372.81411 -192.59471)"/></clipPath><clipPath id="c"><path d="m0 500h744.182v-500h-744.182z" transform="translate(-377.53391 -195.92681)"/></clipPath><clipPath id="d"><path d="m0 500h744.182v-500h-744.182z" transform="translate(-382.25361 -198.8672)"/></clipPath><clipPath id="e"><path d="m0 500h744.182v-500h-744.182z" transform="translate(-386.97331 -201.77051)"/></clipPath><clipPath id="f"><path d="m0 500h744.182v-500h-744.182z" transform="translate(-291.5065 -184.5332)"/></clipPath><clipPath id="g"><path d="m0 500h744.182v-500h-744.182z" transform="translate(-281.15061 -248.8398)"/></clipPath><clipPath id="h"><path d="m0 500h744.182v-500h-744.182z"/></clipPath><clipPath id="i"><path d="m0 500h744.182v-500h-744.182z"/></clipPath><clipPath id="j"><path d="m0 500h744.182v-500h-744.182z" transform="translate(-256.24821 -406.98241)"/></clipPath><clipPath id="k"><path d="m0 500h744.182v-500h-744.182z"/></clipPath><clipPath id="l"><path d="m0 500h744.182v-500h-744.182z"/></clipPath><clipPath id="m"><path d="m0 500h744.182v-500h-744.182z" transform="translate(-324.36351 -437.56101)"/></clipPath><clipPath id="n"><path d="m0 500h744.182v-500h-744.182z" transform="translate(-316.85611 -451.96531)"/></clipPath><clipPath id="o"><path d="m0 500h744.182v-500h-744.182z"/></clipPath><clipPath id="p"><path d="m0 500h744.182v-500h-744.182z" transform="translate(-244.6516 -434.20411)"/></clipPath><clipPath id="q"><path d="m0 500h744.182v-500h-744.182z"/></clipPath><clipPath id="r"><path d="m0 500h744.182v-500h-744.182z" transform="translate(-335.56321 -141.8457)"/></clipPath><clipPath id="s"><path d="m0 500h744.182v-500h-744.182z" transform="translate(-330.80241 -206.72661)"/></clipPath><clipPath id="t"><path d="m0 500h744.182v-500h-744.182z" transform="translate(-360.41031 -191.3379)"/></clipPath><clipPath id="u"><path d="m0 500h744.182v-500h-744.182z" transform="translate(-365.84441 -188.00981)"/></clipPath><clipPath id="v"><path d="m0 500h744.182v-500h-744.182z" transform="translate(-371.65011 -183.57131)"/></clipPath><clipPath id="w"><path d="m0 500h744.182v-500h-744.182z" transform="translate(-373.42941 -171.52151)"/></clipPath><clipPath id="x"><path d="m0 500h744.182v-500h-744.182z" transform="translate(-375.01631 -176.8965)"/></clipPath><clipPath id="y"><path d="m0 500h744.182v-500h-744.182z" transform="translate(-367.47141 -168.4287)"/></clipPath><clipPath id="z"><path d="m0 500h744.182v-500h-744.182z" transform="translate(-365.32881 -174.3057)"/></clipPath><clipPath id="A"><path d="m0 500h744.182v-500h-744.182z" transform="translate(-342.10371 -201.2949)"/></clipPath><clipPath id="B"><path d="m0 500h744.182v-500h-744.182z" transform="translate(-354.38251 -194.8359)"/></clipPath><clipPath id="C"><path d="m0 500h744.182v-500h-744.182z" transform="translate(-348.24291 -198.0605)"/></clipPath><clipPath id="D"><path d="m0 500h744.182v-500h-744.182z" transform="translate(-374.22921 -171.5088)"/></clipPath><clipPath id="E"><path d="m0 500h744.182v-500h-744.182z" transform="translate(-374.22921 -171.5088)"/></clipPath><clipPath id="F"><path d="m0 500h744.182v-500h-744.182z" transform="translate(-447.28781 -248.8398)"/></clipPath><clipPath id="G"><path d="m0 500h744.182v-500h-744.182z" transform="translate(-299.278 -308.89891)"/></clipPath><clipPath id="H"><path d="m0 500h744.182v-500h-744.182z"/></clipPath><clipPath id="I"><path d="m0 500h744.182v-500h-744.182z"/></clipPath><clipPath id="J"><path d="m0 500h744.182v-500h-744.182z" transform="translate(-472.19011 -406.98241)"/></clipPath><clipPath id="K"><path d="m0 500h744.182v-500h-744.182z" transform="translate(-293.968 -338.07371)"/></clipPath><clipPath id="L"><path d="m0 500h744.182v-500h-744.182z"/></clipPath><clipPath id="M"><path d="m0 500h744.182v-500h-744.182z" transform="translate(-483.78781 -434.20411)"/></clipPath><clipPath id="N"><path d="m0 500h744.182v-500h-744.182z"/></clipPath><clipPath id="O"><path d="m0 500h744.182v-500h-744.182z" transform="translate(-310.87471 -299.9268)"/></clipPath><path d="m0 0h744.182v500h-744.182z" fill="#fff" transform="matrix(1.3333333 0 0 -1.3333333 0 666.66667)"/><path d="m0 0h744.182v165.039h-744.182z" fill="#da000c" transform="matrix(1.3333333 0 0 -1.3333333 0 666.66667)"/><path d="m0 0v-15.747h33.752v15.747h-10.559v-7.873h-13.366v7.873zm0 21.606v-15.686h9.827v7.874h13.366v-7.874h10.559v15.686z" fill="#f8d80e" stroke="#000" transform="matrix(1.3333333 0 0 -1.3333333 432.97293 621.41933)"/><path d="m248.147 272.845h232.145v-85.923h-232.145z" transform="matrix(1.3333333 0 0 -1.3333333 0 666.66667)"/><path d="m0 0h-76.307l-16.914-11.133v-11.796h93.221" fill="#da000c" stroke="#000" stroke-linecap="square" transform="matrix(1.3333333 0 0 -1.3333333 417.44627 400.6888)"/><path d="m0 0h76.307l16.914-11.133v-11.796h-93.221" fill="#da000c" stroke="#000" stroke-linecap="square" transform="matrix(1.3333333 0 0 -1.3333333 553.8056 400.6888)"/><path d="m0 0h288.711z" transform="matrix(1.3333333 0 0 -1.3333333 293.1516 415.53307)"/><g stroke="#000"><path d="m0 0h288.711" fill="none" stroke-linecap="square" transform="matrix(1.3333333 0 0 -1.3333333 293.152 415.53253)"/><path d="m0 0-19.104-9.216v-13.733h72.693 72.693v13.733l-19.104 9.216h-53.589z" fill="#da000c" transform="matrix(1.3333333 0 0 -1.3333333 414.17413 408.36587)"/><g stroke-linecap="round"><path clip-path="url(#a)" d="m0 0c-2.621-.772-5.937-2.448-10.01-4.7-4.072-2.252-8.73-5.086-13.123-7.995-3.256-2.158-5.975-4.312-8.667-6.409-.938-.732-2.232-1.497-3.052-2.198-.957-.819-1.613-1.601-2.379-2.38-.502-.509-1.17-1.024-1.587-1.526-1.056-1.27-2.076-2.374-2.076-4.7 0-.422.012-.845.061-1.281 1.514 1.814 3.687 3.076 6.104 3.357.011-.001.053-.001.061 0 .061-.001.182.001.244 0h.061c.238.019.428 0 .672 0 .243 0 .432.019.67 0 .367-.029.691-.116 1.039-.184.132.123.237.246.366.367.443.412.682.7 1.22 1.159 1.074.919 2.844 2.082 4.211 3.113 2.213 1.669 4.218 3.271 6.836 5.005 4.238 2.807 8.751 5.543 12.635 7.69 3.883 2.148 7.331 3.697 8.667 4.09z" fill="#f8d80e" stroke-width=".768" transform="matrix(1.3333333 0 0 -1.3333333 530.67013 390.70573)"/><path clip-path="url(#b)" d="m0 0v-7.64" transform="matrix(1.3333333 0 0 -1.3333333 497.08547 409.87373)"/><path clip-path="url(#c)" d="m0 0v-7.583" transform="matrix(1.3333333 0 0 -1.3333333 503.37853 405.43093)"/><path clip-path="url(#d)" d="m0 0v-7.535" transform="matrix(1.3333333 0 0 -1.3333333 509.67147 401.5104)"/><path clip-path="url(#e)" d="m0 0v-7.776" transform="matrix(1.3333333 0 0 -1.3333333 515.9644 397.63933)"/></g><path clip-path="url(#f)" d="m0 0h145.426" transform="matrix(1.3333333 0 0 -1.3333333 388.67533 420.6224)"/><path clip-path="url(#g)" d="m0 0c10.986 0 19.958-9.158 19.958-20.446v-28.87h14.344v109.375h-78.675v-109.375h24.415v28.87c0 10.846 8.818 20.446 19.958 20.446" fill="#da000c" stroke-linecap="square" transform="matrix(1.3333333 0 0 -1.3333333 374.86747 334.88027)"/></g><path clip-path="url(#h)" d="m263.689 382.887h36.178v-66.327h-36.178z" transform="matrix(1.3333333 0 0 -1.3333333 0 666.66667)"/><path clip-path="url(#i)" d="m229.149 317.762h68.302v-8.863h-68.302zm70.617 9.081h-31.658v11.231h-23.212v-11.231h-15.747v11.231h-9.4v-20.386h80.017" fill="#da000c" stroke="#000" transform="matrix(1.3333333 0 0 -1.3333333 0 666.66667)"/><path clip-path="url(#j)" d="m0 0v-68.909h11.86v18.921c0 7.089 5.004 12.889 12.005 13.245.225.011.443 0 .671 0 7.318 0 13.245-5.927 13.245-13.245v-18.921h11.291v68.909z" fill="#da000c" stroke="#000" transform="matrix(1.3333333 0 0 -1.3333333 341.66427 124.02347)"/><path clip-path="url(#k)" d="m334.538 425.095h57.282v-104.013h-57.282z" transform="matrix(1.3333333 0 0 -1.3333333 0 666.66667)"/><g stroke="#000"><g fill="#da000c"><path clip-path="url(#l)" d="m377.464 409.424h5.677v-21.79h-5.677zm-32.165 0h5.676v-21.79h-5.676zm16.113 5.859h2.807 2.808v-29.785h-2.808-2.807zm-30.884 9.766v-87.036h18.188v25.818c0 5.955 3.814 14.221 15.503 14.221 11.69 0 15.503-8.266 15.503-14.221v-25.818h18.189v87.036h-33.692z" transform="matrix(1.3333333 0 0 -1.3333333 0 666.66667)"/><path clip-path="url(#m)" d="m0 0v-12.39h39.856 39.855v12.39h-39.855z" stroke-linecap="square" transform="matrix(1.3333333 0 0 -1.3333333 432.48467 83.252)"/><path clip-path="url(#n)" d="m0 0v-14.404h47.363 47.364v14.404h-11.903v-7.935h-13.428v7.935h-15.319v-7.935h-6.714-6.714v7.935h-15.319v-7.935h-13.428v7.935z" stroke-linecap="square" transform="matrix(1.3333333 0 0 -1.3333333 422.4748 64.046267)"/><path clip-path="url(#o)" d="m251.976 406.982h57.129v9.338h-57.129z" stroke-linecap="square" transform="matrix(1.3333333 0 0 -1.3333333 0 666.66667)"/><path clip-path="url(#p)" d="m0 0v-17.883h68.542v17.883h-10.559v-9.094h-12.756v9.094h-19.47v-9.094h-12.757v9.094z" stroke-linecap="square" transform="matrix(1.3333333 0 0 -1.3333333 326.20213 87.727867)"/></g><path clip-path="url(#q)" d="m358.461 121.774h9.747v-113.506h-9.747z" fill="#f8d80e" transform="matrix(1.3333333 0 0 -1.3333333 0 666.66667)"/><path clip-path="url(#r)" d="m0 0h-5.432v-8.667h5.432l27.771-16.113 27.771 16.113h5.433v8.667h-5.433l-27.771 16.113zm27.771 7.752 20.752-12.086-20.752-12.023-20.751 12.023z" fill="#f8d80e" stroke-width="1.024" transform="matrix(1.3333333 0 0 -1.3333333 447.4176 477.53907)"/><path clip-path="url(#s)" d="m0 0-2.319-6.471c7.501-2.71 18.144-7.98 26.673-13.122 4.263-2.571 7.995-5.098 10.558-7.202 1.282-1.052 2.267-2.028 2.808-2.685.067-.082.145-.18.183-.245.007-.012-.006-.048 0-.06.043-.091.095-.186.122-.244-.049-.438-.128-.908-.244-1.221-.01-.025-.051-.1-.061-.123-.005-.011.006-.051 0-.061-.006-.009-.055-.051-.061-.06-.041-.053-.079-.133-.122-.184-.009-.009-.052-.051-.061-.06-.01-.011-.051-.052-.061-.062-.022-.018-.097-.043-.122-.061-.042-.026-.132-.098-.184-.121-.278-.114-.734-.184-1.464-.184-.433 0-.783.063-1.038.122-.098.024-.227.03-.305.062-.025.009-.099.048-.122.06-.066.035-.131.083-.183.122-.017.017-.053.054-.061.062-.005.006-.056.052-.061.06-.016.027-.047.101-.062.122h-.06c-.006 0-.055.001-.062 0h-.06-.122c-.19 0-.365.019-.55 0-2.241-.226-4.14-1.824-4.761-4.028.001-.005 0-.056 0-.061.008-.008.054-.053.062-.061.03-.028.091-.09.122-.122 1.567-1.893 4.258-3.174 7.263-3.174 3.161 0 5.918 1.323 7.446 3.296 1.529 1.973 1.892 4.215 1.892 6.042 0 2.132-.957 3.369-1.953 4.578s-2.29 2.374-3.784 3.602c-2.989 2.453-6.904 5.069-11.352 7.751-8.897 5.364-19.689 10.767-27.894 13.733" fill="#f8d80e" stroke-width=".768" transform="matrix(1.3333333 0 0 -1.3333333 441.06987 391.0312)"/><g stroke-linecap="round"><path clip-path="url(#t)" d="m0 0-.61-6.522" transform="matrix(1.3333333 0 0 -1.3333333 480.54707 411.54947)"/><path clip-path="url(#u)" d="m0 0-1.684-6.387" transform="matrix(1.3333333 0 0 -1.3333333 487.79253 415.98693)"/><path clip-path="url(#v)" d="m0 0-3.533-4.956" transform="matrix(1.3333333 0 0 -1.3333333 495.53347 421.90493)"/><path clip-path="url(#w)" d="m0 0-5.099 2.735" transform="matrix(1.3333333 0 0 -1.3333333 497.90587 437.97133)"/><path clip-path="url(#x)" d="m0 0-5.851-.548" transform="matrix(1.3333333 0 0 -1.3333333 500.02173 430.80467)"/><path clip-path="url(#y)" d="m0 0-.4 5.141" transform="matrix(1.3333333 0 0 -1.3333333 489.96187 442.09507)"/><path clip-path="url(#z)" d="m0 0-4.83-3.56" transform="matrix(1.3333333 0 0 -1.3333333 487.10507 434.25907)"/><path clip-path="url(#A)" d="m0 0v-6.084" transform="matrix(1.3333333 0 0 -1.3333333 456.13827 398.27347)"/><path clip-path="url(#B)" d="m0 0v-6.902" transform="matrix(1.3333333 0 0 -1.3333333 472.51 406.88547)"/><path clip-path="url(#C)" d="m0 0v-6.482" transform="matrix(1.3333333 0 0 -1.3333333 464.32387 402.586)"/></g></g><path clip-path="url(#D)" d="m0 0c-.099-.147-.197-.341-.305-.488-.812-1.048-1.975-1.922-3.357-2.503v-14.77l3.906-2.259v18.005c0 .685-.05 1.368-.183 2.015-.006.002-.055 0-.061 0m-11.292 7.63c-4.53-.696-7.995-4.819-7.995-9.645v-21.545c0-5.307 4.216-9.705 9.399-9.705.135 0 .233-.005.367 0 .133-.005.231 0 .366 0 3.685 0 6.883 2.241 8.423 5.433l-3.358 2.015c-.834-2.071-2.794-3.48-5.065-3.48-.088 0-.173.001-.244 0h-.122c-.035-.003-.092 0-.123 0-.071.001-.156 0-.244 0-3.029 0-5.493 2.496-5.493 5.737v21.545c0 3.242 2.464 5.677 5.493 5.677.086 0 .172-.001.244 0 .031-.001.089.003.123 0h.122c.072-.001.158 0 .244 0 .851 0 1.66-.2 2.38-.55.005 0 .057.001.061 0 .159.03.322.08.427.123.05.032.152.102.183.121.01.012.051.051.061.062h.062c.01.01.05.051.061.061l.061.061c.037.05.087.138.122.184 0 .005.001.053 0 .06l.061.061c.008.017.045.09.061.123.116.312.194.783.244 1.22-.027.059-.079.154-.122.245v.06c-.041.064-.125.173-.183.244-.397.482-1.078 1.103-1.892 1.831-.006-.001-.056 0-.061 0-.058.014-.186.049-.244.062h-.062c-.031-.001-.103-.001-.122 0-.011-.001-.053-.001-.06 0-.035-.001-.099 0-.123 0-.063-.003-.187-.005-.244 0-.239.018-.428 0-.671 0-.153 0-.232-.001-.366 0-.135-.001-.214 0-.367 0-.243 0-.433.018-.671 0-.057-.005-.181-.003-.244 0-.024 0-.088-.001-.122 0-.016-.001-.051.001-.061 0-.025-.001-.102-.002-.122 0h-.061c-.036-.006-.087.005-.123 0" fill="#f8d80e" transform="matrix(1.3333333 0 0 -1.3333333 498.97227 437.98827)"/><path clip-path="url(#E)" d="m0 0c-.099-.147-.197-.341-.305-.488-.812-1.048-1.975-1.922-3.357-2.503v-14.77l3.906-2.259v18.005c0 .685-.05 1.368-.183 2.015-.006.002-.055 0-.061 0zm-11.292 7.63c-4.53-.696-7.995-4.819-7.995-9.645v-21.545c0-5.307 4.216-9.705 9.399-9.705.135 0 .233-.005.367 0 .133-.005.231 0 .366 0 3.685 0 6.883 2.241 8.423 5.433l-3.358 2.015c-.834-2.071-2.794-3.48-5.065-3.48-.088 0-.173.001-.244 0h-.122c-.035-.003-.092 0-.123 0-.071.001-.156 0-.244 0-3.029 0-5.493 2.496-5.493 5.737v21.545c0 3.242 2.464 5.677 5.493 5.677.086 0 .172-.001.244 0 .031-.001.089.003.123 0h.122c.072-.001.158 0 .244 0 .851 0 1.66-.2 2.38-.55.005 0 .057.001.061 0 .159.03.322.08.427.123.05.032.152.102.183.121.01.012.051.051.061.062h.062c.01.01.05.051.061.061l.061.061c.037.05.087.138.122.184 0 .005.001.053 0 .06l.061.061c.008.017.045.09.061.123.116.312.194.783.244 1.22-.027.059-.079.154-.122.245v.06c-.041.064-.125.173-.183.244-.397.482-1.078 1.103-1.892 1.831-.006-.001-.056 0-.061 0-.058.014-.186.049-.244.062h-.062c-.031-.001-.103-.001-.122 0-.011-.001-.053-.001-.06 0-.035-.001-.099 0-.123 0-.063-.003-.187-.005-.244 0-.239.018-.428 0-.671 0-.153 0-.232-.001-.366 0-.135-.001-.214 0-.367 0-.243 0-.433.018-.671 0-.057-.005-.181-.003-.244 0-.024 0-.088-.001-.122 0-.016-.001-.051.001-.061 0-.025-.001-.102-.002-.122 0h-.061c-.036-.006-.087.005-.123 0z" fill="none" stroke="#000" stroke-width="1.024" transform="matrix(1.3333333 0 0 -1.3333333 498.97227 437.98827)"/><path clip-path="url(#F)" d="m0 0c-10.985 0-19.958-9.158-19.958-20.446v-28.87h-14.343v109.375h78.674v-109.375h-24.414v28.87c0 10.846-8.818 20.446-19.959 20.446" fill="#da000c" stroke="#000" stroke-linecap="square" transform="matrix(1.3333333 0 0 -1.3333333 596.38373 334.88027)"/><path clip-path="url(#G)" d="m0 0v-8.972h64.941 64.942v8.972h-64.942z" fill="#da000c" stroke="#000" stroke-linecap="round" transform="matrix(1.3333333 0 0 -1.3333333 399.03733 254.80147)"/><path clip-path="url(#H)" d="m464.751 382.887h-36.179v-66.327h36.179z" transform="matrix(1.3333333 0 0 -1.3333333 0 666.66667)"/><g stroke="#000"><path clip-path="url(#I)" d="m499.29 317.762h-68.301v-8.863h68.301zm-70.617 9.081h31.658v11.231h23.213v-11.231h15.746v11.231h9.4v-20.386h-80.017" fill="#da000c" transform="matrix(1.3333333 0 0 -1.3333333 0 666.66667)"/><path clip-path="url(#J)" d="m0 0v-68.909h-11.859v18.921c0 7.089-5.004 12.889-12.005 13.245-.226.011-.443 0-.671 0-7.318 0-13.245-5.927-13.245-13.245v-18.921h-11.292v68.909z" fill="#da000c" transform="matrix(1.3333333 0 0 -1.3333333 629.5868 124.02347)"/><path clip-path="url(#K)" d="m0 0v-29.175h70.251 70.252v29.175h-13.306v-11.23h-17.699v11.23h-23.744v-11.23h-15.503-15.502v11.23h-23.743v-11.23h-17.7v11.23z" fill="#da000c" transform="matrix(1.3333333 0 0 -1.3333333 391.95733 215.90173)"/><path clip-path="url(#L)" d="m476.464 406.982h-57.129v9.338h57.129z" fill="#da000c" stroke-linecap="square" transform="matrix(1.3333333 0 0 -1.3333333 0 666.66667)"/><path clip-path="url(#M)" d="m0 0v-17.883h-68.543v17.883h10.559v-9.094h12.756v9.094h19.47v-9.094h12.757v9.094z" fill="#da000c" stroke-linecap="square" transform="matrix(1.3333333 0 0 -1.3333333 645.0504 87.727867)"/><path clip-path="url(#N)" d="m358.461 111.955h9.747v-97.773h-9.747z" fill="#f8d80e" transform="matrix(1.3333333 0 0 -1.3333333 0 666.66667)"/><path clip-path="url(#O)" d="m0 0v-106.14h25.085v39.734c0 18.716 12.493 27.527 28.26 27.527 15.154 0 28.259-8.811 28.259-27.527v-39.734h25.085v106.14h-53.344z" fill="#da000c" stroke-linejoin="round" transform="matrix(1.3333333 0 0 -1.3333333 414.4996 266.76427)"/></g></svg>