<svg height="266.34134" viewBox="0 0 399.51199 266.34134" width="399.51199" xmlns="http://www.w3.org/2000/svg" xmlns:xlink="http://www.w3.org/1999/xlink"><clipPath id="a"><path d="m0 0h299.634v199.756h-299.634z" transform="translate(-149.6343 -152.2855)"/></clipPath><clipPath id="b"><path d="m97.134 99.786c0-28.996 23.505-52.501 52.5-52.501s52.501 23.505 52.501 52.501c0 28.995-23.506 52.499-52.501 52.499s-52.5-23.504-52.5-52.499" transform="translate(7.8657 5.2145)"/></clipPath><clipPath id="c"><path d="m0 0h299.634v199.756h-299.634z" transform="translate(-121.6177 -116.0404)"/></clipPath><clipPath id="d"><path d="m0 0h299.634v199.756h-299.634z" transform="translate(-127.96041 -115.7699)"/></clipPath><clipPath id="e"><path d="m0 0h299.634v199.756h-299.634z" transform="translate(-138.3198 -114.602)"/></clipPath><clipPath id="f"><path d="m0 0h299.634v199.756h-299.634z" transform="translate(-169.3071 -108.12931)"/></clipPath><clipPath id="g"><path d="m0 0h299.634v199.756h-299.634z" transform="translate(-170.3877 -107.6596)"/></clipPath><clipPath id="h"><path d="m0 0h299.634v199.756h-299.634z" transform="translate(-184.67721 -98.977002)"/></clipPath><clipPath id="i"><path d="m0 0h299.634v199.756h-299.634z" transform="translate(-177.3823 -101.4242)"/></clipPath><clipPath id="j"><path d="m0 0h299.634v199.756h-299.634z" transform="translate(-190.041 -95.430102)"/></clipPath><clipPath id="k"><path d="m0 0h299.634v199.756h-299.634z" transform="translate(-104.55321 -119.13421)"/></clipPath><clipPath id="l"><path d="m0 0h299.634v199.756h-299.634z" transform="translate(-197.77341 -92.767002)"/></clipPath><clipPath id="m"><path d="m0 0h299.634v199.756h-299.634z" transform="translate(-117.3037 -116.9272)"/></clipPath><clipPath id="n"><path d="m0 0h299.634v199.756h-299.634z" transform="translate(-111.95211 -118.69861)"/></clipPath><clipPath id="o"><path d="m0 0h299.634v199.756h-299.634z" transform="translate(-163.48581 -112.0961)"/></clipPath><clipPath id="p"><path d="m0 0h299.634v199.756h-299.634z" transform="translate(-157.8628 -113.1752)"/></clipPath><clipPath id="q"><path d="m0 0h299.634v199.756h-299.634z" transform="translate(-176.1015 -105.83731)"/></clipPath><clipPath id="r"><path d="m0 0h299.634v199.756h-299.634z" transform="translate(-151.68891 -114.83731)"/></clipPath><clipPath id="s"><path d="m0 0h299.634v199.756h-299.634z" transform="translate(-170.58591 -107.6078)"/></clipPath><clipPath id="t"><path d="m0 0h299.634v199.756h-299.634z" transform="translate(-167.8887 -116.75431)"/></clipPath><clipPath id="u"><path d="m0 0h299.634v199.756h-299.634z" transform="translate(-104.6377 -109.9096)"/></clipPath><clipPath id="v"><path d="m0 0h299.634v199.756h-299.634z" transform="translate(-162.5293 -102.893)"/></clipPath><clipPath id="w"><path d="m0 0h299.634v199.756h-299.634z" transform="translate(-115.6191 -90.5756)"/></clipPath><clipPath id="x"><path d="m0 0h299.634v199.756h-299.634z" transform="translate(-111.4116 -89.392002)"/></clipPath><clipPath id="y"><path d="m0 0h299.634v199.756h-299.634z" transform="translate(-103.2085 -83.008205)"/></clipPath><clipPath id="z"><path d="m0 0h299.634v199.756h-299.634z" transform="translate(-127.9194 -98.257205)"/></clipPath><clipPath id="A"><path d="m0 0h299.634v199.756h-299.634z" transform="translate(-120.8589 -82.577502)"/></clipPath><clipPath id="B"><path d="m0 0h299.634v199.756h-299.634z" transform="translate(-119.3779 -77.083399)"/></clipPath><clipPath id="C"><path d="m0 0h299.634v199.756h-299.634z" transform="translate(-126.4678 -72.902704)"/></clipPath><clipPath id="D"><path d="m0 0h299.634v199.756h-299.634z" transform="translate(-147.83691 -91.748405)"/></clipPath><clipPath id="E"><path d="m0 0h299.634v199.756h-299.634z" transform="translate(-142.8472 -87.0209)"/></clipPath><clipPath id="F"><path d="m0 0h299.634v199.756h-299.634z" transform="translate(-146.05521 -83.4008)"/></clipPath><clipPath id="G"><path d="m0 0h299.634v199.756h-299.634z" transform="translate(-153.9048 -87.160602)"/></clipPath><clipPath id="H"><path d="m0 0h299.634v199.756h-299.634z" transform="translate(-147.49461 -76.674199)"/></clipPath><clipPath id="I"><path d="m0 0h299.634v199.756h-299.634z" transform="translate(-148.91451 -58.938904)"/></clipPath><clipPath id="J"><path d="m0 0h299.634v199.756h-299.634z" transform="translate(-159.7119 -70.797304)"/></clipPath><clipPath id="K"><path d="m0 0h299.634v199.756h-299.634z" transform="translate(-163.52931 -65.034604)"/></clipPath><clipPath id="L"><path d="m0 0h299.634v199.756h-299.634z" transform="translate(-170.43651 -68.939802)"/></clipPath><clipPath id="M"><path d="m0 0h299.634v199.756h-299.634z" transform="translate(-174.228 -71.347099)"/></clipPath><clipPath id="N"><path d="m0 0h299.634v199.756h-299.634z" transform="translate(-174.04641 -66.383202)"/></clipPath><clipPath id="O"><path d="m0 0h299.634v199.756h-299.634z" transform="translate(-174.4878 -60.899802)"/></clipPath><clipPath id="P"><path d="m0 0h299.634v199.756h-299.634z" transform="translate(-179.71341 -70.407604)"/></clipPath><clipPath id="Q"><path d="m0 0h299.634v199.756h-299.634z" transform="translate(-183.5986 -73.128304)"/></clipPath><clipPath id="R"><path d="m0 0h299.634v199.756h-299.634z" transform="translate(-186.7539 -77.224002)"/></clipPath><clipPath id="S"><path d="m0 0h299.634v199.756h-299.634z" transform="translate(-184.2715 -82.091202)"/></clipPath><clipPath id="T"><path d="m0 0h299.634v199.756h-299.634z" transform="translate(-192.2817 -81.298205)"/></clipPath><path d="m0 0h299.634v199.756h-299.634z" fill="#009b3a" transform="matrix(1.3333333 0 0 -1.3333333 0 266.34133)"/><path d="m0 0 124.5-79.5 124.501 79.5-124.501 79.5z" fill="#fedf00" transform="matrix(1.3333333 0 0 -1.3333333 33.5124 133.29387)"/><path clip-path="url(#a)" d="m0 0c28.995 0 52.5-23.505 52.5-52.5s-23.505-52.5-52.5-52.5-52.5 23.505-52.5 52.5 23.505 52.5 52.5 52.5" fill="#002776" transform="matrix(1.3333333 0 0 -1.3333333 199.5124 63.294)"/><path clip-path="url(#b)" d="m0 0c0 70.416 57.084 127.5 127.5 127.5s127.5-57.084 127.5-127.5h-7.5c0 66.274-53.726 120-120 120s-120-53.726-120-120z" fill="#fff" transform="matrix(1.3333333 0 0 -1.3333333 -10.4876 273.294)"/><g fill="#009b3a"><path clip-path="url(#c)" d="m0 0 4.497-.157.032.928-3.64.126.045 1.286 2.855-.1.03.856-2.856.1.036 1 3.426-.12.033.929-4.284.149z" transform="matrix(1.3333333 0 0 -1.3333333 162.15693 111.6208)"/><path clip-path="url(#d)" d="m0 0 .854-.074.299 3.415.698-3.503.782-.068 1.295 3.329-.299-3.416.854-.075.436 4.981-1.245.109-1.296-3.328-.697 3.502-1.245.109z" transform="matrix(1.3333333 0 0 -1.3333333 170.61387 111.98147)"/><path clip-path="url(#e)" d="m0 0 3.696-.636.145.846-2.851.489.194 1.127 2.323-.399.145.844-2.323.4.133.774 2.763-.475.145.844-3.608.621z" transform="matrix(1.3333333 0 0 -1.3333333 184.4264 113.53867)"/><path clip-path="url(#f)" d="m0 0 1.736-.755-.285-.655-1.736.755z" transform="matrix(1.3333333 0 0 -1.3333333 225.7428 122.16893)"/><path clip-path="url(#g)" d="m0 0 .655-.285-.997-2.292-.655.284z" transform="matrix(1.3333333 0 0 -1.3333333 227.1836 122.7952)"/><path clip-path="url(#h)" d="m0 0c-.269-.422.004-.893.606-1.275.602-.384 1.013-.371 1.186-.1.547.858-2.615 2.11-1.64 3.606.84 1.287 2.278.286 2.82-.059.542-.346 1.413-1.239.736-2.269l-.919.585c.288.452-.028.887-.51 1.194-.467.297-.846.433-1.125-.004-.466-.699 2.633-2.016 1.683-3.507-.7-1.1-1.919-.619-2.733-.102-.692.442-1.728 1.483-1.053 2.535z" transform="matrix(1.3333333 0 0 -1.3333333 246.23627 134.372)"/><path clip-path="url(#i)" d="m0 0 3.917-2.216.457.808-3.171 1.794.633 1.119 2.487-1.406.423.746-2.488 1.406.493.87 2.984-1.688.457.808-3.73 2.111z" transform="matrix(1.3333333 0 0 -1.3333333 236.50973 131.10907)"/><path clip-path="url(#j)" d="m0 0c-.29-.407-.042-.892.539-1.306.581-.415.992-.423 1.179-.161.591.829-2.501 2.244-1.449 3.688.906 1.24 2.289.166 2.813-.207.523-.374 1.346-1.312.616-2.305l-.887.633c.311.436.018.886-.447 1.218-.451.322-.822.477-1.124.055-.501-.673 2.524-2.15 1.497-3.591-.757-1.06-1.948-.517-2.733.043-.669.477-1.649 1.57-.92 2.585z" transform="matrix(1.3333333 0 0 -1.3333333 253.388 139.1012)"/><path clip-path="url(#k)" d="m0 0c1.699 0 1.699-3.047 0-3.047-1.7 0-1.7 3.047 0 3.047m2.233-1.247c-.169 1.371-1.304 2.358-2.538 2.207-1.233-.151-2.096-1.385-1.928-2.755.168-1.371 1.304-2.358 2.537-2.207 1.234.151 2.097 1.385 1.929 2.755" transform="matrix(1.3333333 0 0 -1.3333333 139.40427 107.49573)"/><path clip-path="url(#l)" d="m0 0c1.403-.96-.318-3.475-1.721-2.515-1.402.96.319 3.474 1.721 2.515m1.139-2.291c.635 1.226.256 2.684-.848 3.255-1.103.571-2.513.041-3.148-1.185-.635-1.225-.255-2.682.848-3.255 1.103-.571 2.512-.041 3.148 1.185" transform="matrix(1.3333333 0 0 -1.3333333 263.69787 142.652)"/><path clip-path="url(#m)" d="m0 0c-.384.001-1.123-.005-1.123-.005s-.044 2.526-.055 3.143c1.034.013 1.07.013 1.471.013.742-.012 1.055-.566 1.211-.924.056-.399.058-.56.071-.905-.045-.371-.156-.677-.469-.97-.514-.345-.774-.352-1.106-.352m2.04 3.159c-.551.888-1.662.93-1.662.93l-2.5-.039.087-4.999s1.983-.001 2.51.049c.526.049 1.146.353 1.55.885s.4 1.161.397 1.548.058.915-.382 1.626" transform="matrix(1.3333333 0 0 -1.3333333 156.40493 110.4384)"/><path clip-path="url(#n)" d="m0 0c-.195-.163-.742-.17-.742-.17l-1.546-.101s-.061.871-.09 1.282c.234-.002 1.464.101 1.486.102.247.008.527.033.527.033s.202-.007.404-.183c.039-.026.208-.176.202-.43-.007-.254-.152-.484-.241-.533m.562-.777s.522.442.657 1.075-.257 1.15-.423 1.299c-.166.148-.515.499-1.03.478-.516-.019-3.064-.197-3.064-.197l.278-4.993.926.064-.13 1.853 1.609.112.386.027s.498-.814.546-1.317c.032-.296.027-.548.027-.548h.903s.023.89-.234 1.422-.451.725-.451.725" transform="matrix(1.3333333 0 0 -1.3333333 149.26947 108.07653)"/><path clip-path="url(#o)" d="m0 0c1.643-.436.861-3.381-.782-2.944-1.642.435-.861 3.381.782 2.944m1.838-1.778c.189 1.368-.655 2.614-1.886 2.784s-2.382-.801-2.571-2.168c-.189-1.368.656-2.614 1.887-2.784 1.23-.171 2.381.8 2.57 2.168" transform="matrix(1.3333333 0 0 -1.3333333 217.98107 116.87987)"/><path clip-path="url(#p)" d="m0 0c-.238-.09-.757.083-.757.083l-1.494.409s.227.844.334 1.241c.221-.078 1.417-.382 1.438-.389.236-.073.508-.142.508-.142s.189-.072.323-.304c.028-.037.139-.234.05-.472s-.302-.408-.402-.426m.277-.918s.639.248.973.802c.334.553.133 1.171.024 1.365-.108.194-.323.64-.817.79-.494.149-2.959.815-2.959.815l-1.371-4.81.897-.241.483 1.793 1.556-.42.375-.101s.204-.932.084-1.424c-.066-.29-.152-.526-.152-.526l.852-.295s.313.833.245 1.42c-.07.588-.19.832-.19.832" transform="matrix(1.3333333 0 0 -1.3333333 210.48373 115.44107)"/><path clip-path="url(#q)" d="m0 0c-.245-.069-.747.146-.747.146l-1.454.535s.298.821.438 1.209c.214-.097 1.38-.502 1.4-.51.23-.094.495-.185.495-.185s.181-.088.295-.33c.025-.039.119-.246.01-.475s-.335-.381-.437-.39m.199-.938s.656.192 1.037.715c.379.524.231 1.157.14 1.359-.091.203-.268.665-.747.856-.48.192-2.88 1.063-2.88 1.063l-1.773-4.675.872-.317.634 1.746 1.515-.551.365-.132s.124-.947-.037-1.426c-.09-.283-.197-.512-.197-.512l.825-.366s.382.804.363 1.395-.117.845-.117.845" transform="matrix(1.3333333 0 0 -1.3333333 234.802 125.22493)"/><path clip-path="url(#r)" d="m0 0c-.235-.096-.758.064-.758.064l-1.504.373s.207.85.304 1.25c.223-.073 1.426-.349 1.447-.355.239-.068.512-.13.512-.13s.191-.067.329-.296c.029-.036.146-.23.062-.47-.084-.241-.292-.415-.392-.436m.3-.911s.632.263.952.824c.321.562.105 1.174-.007 1.366-.114.192-.339.632-.837.77-.497.138-2.978.743-2.978.743l-1.255-4.84.903-.221.44 1.804 1.566-.382.377-.091" transform="matrix(1.3333333 0 0 -1.3333333 202.25187 113.22493)"/><path clip-path="url(#s)" d="m0 0c-.128.058-.263.098-.397.14-.392-.738-1.257-1.263-2.028-.735-1.403.96.318 3.474 1.72 2.515.339-.233.492-.555.515-.897.212-.09.441-.131.654-.229.089-.041.178-.084.267-.125.072.92-.345 1.801-1.145 2.215-1.103.571-2.512.041-3.148-1.185-.635-1.226-.255-2.683.848-3.255s2.513-.041 3.148 1.185c.025.049.046.098.068.147-.168.074-.334.151-.502.224" transform="matrix(1.3333333 0 0 -1.3333333 227.44787 122.86427)"/></g><g fill="#fff"><path clip-path="url(#t)" d="m0 0-1.111-.807.424-1.306-1.111.806-1.111-.806.425 1.306-1.111.807h1.373l.424 1.306.425-1.306z" transform="matrix(1.3333333 0 0 -1.3333333 223.8516 110.66893)"/><path clip-path="url(#u)" d="m0 0 1.322-.961-.505-1.555 1.323.961 1.322-.961-.505 1.555 1.323.961h-1.635l-.505 1.555-.505-1.555z" transform="matrix(1.3333333 0 0 -1.3333333 139.51693 119.7952)"/><path clip-path="url(#v)" d="m0 0 .915-.665-.349-1.076.915.665.915-.665-.35 1.076.916.665h-1.131l-.35 1.075-.344-1.075z" transform="matrix(1.3333333 0 0 -1.3333333 216.70573 129.15067)"/><path clip-path="url(#w)" d="m0 0 .561-.393-.217-.666.557.405.557-.405-.213.655.557.404h-.689l-.212.654-.213-.654z" transform="matrix(1.3333333 0 0 -1.3333333 154.1588 145.57387)"/><path clip-path="url(#x)" d="m0 0-.498-1.554h-1.633l1.322-.961-.505-1.554 1.322.961 1.323-.961-.505 1.554 1.322.961h-1.634l-.506 1.554" transform="matrix(1.3333333 0 0 -1.3333333 148.5488 147.152)"/><path clip-path="url(#y)" d="m0 0 1.102-.801-.421-1.296 1.102.801 1.102-.801-.421 1.296 1.102.801h-1.362l-.421 1.295-.421-1.295z" transform="matrix(1.3333333 0 0 -1.3333333 137.61133 155.66373)"/><path clip-path="url(#z)" d="m0 0 1.08-.785-.413-1.27 1.08.785 1.08-.785-.412 1.27 1.08.785h-1.335l-.413 1.27-.413-1.27z" transform="matrix(1.3333333 0 0 -1.3333333 170.5592 135.33173)"/><path clip-path="url(#A)" d="m0 0 .996-.724-.38-1.171.996.724.996-.724-.381 1.171.997.724h-1.232l-.38 1.171-.381-1.171z" transform="matrix(1.3333333 0 0 -1.3333333 161.1452 156.238)"/><path clip-path="url(#B)" d="m0 0 .915-.664-.349-1.076.915.665.915-.665-.35 1.076.916.664h-1.131l-.35 1.076-.345-1.076z" transform="matrix(1.3333333 0 0 -1.3333333 159.17053 163.56347)"/><path clip-path="url(#C)" d="m0 0 1.323-.961-.506-1.556 1.323.962 1.322-.962-.505 1.556 1.323.961h-1.635l-.505 1.554-.505-1.554z" transform="matrix(1.3333333 0 0 -1.3333333 168.62373 169.13773)"/><path clip-path="url(#D)" d="m0 0 1.111-.806-.424-1.306 1.111.806 1.111-.806-.425 1.306 1.111.806h-1.379l-.419 1.306-.424-1.306z" transform="matrix(1.3333333 0 0 -1.3333333 197.11587 144.01013)"/><path clip-path="url(#E)" d="m0 0 .915-.665-.349-1.076.913.667.917-.667-.35 1.076.916.665h-1.131l-.35 1.075-.35-1.075z" transform="matrix(1.3333333 0 0 -1.3333333 190.46293 150.31347)"/><path clip-path="url(#F)" d="m0 0 .557-.404-.213-.655.557.404.557-.404-.213.655.557.404h-.689l-.212.654-.213-.654z" transform="matrix(1.3333333 0 0 -1.3333333 194.74027 155.14027)"/><path clip-path="url(#G)" d="m0 0 1.111-.807-.424-1.306 1.11.807 1.111-.807-.424 1.306 1.111.807h-1.373l-.425 1.306-.418-1.306z" transform="matrix(1.3333333 0 0 -1.3333333 205.2064 150.1272)"/><path clip-path="url(#H)" d="m0 0 1.323-.961-.506-1.555 1.323.961 1.322-.961-.505 1.555 1.322.961h-1.634l-.505 1.555-.498-1.555z" transform="matrix(1.3333333 0 0 -1.3333333 196.65947 164.10907)"/><path clip-path="url(#I)" d="m0 0 .424-.308-.161-.499.424.309.424-.309-.162.499.424.308h-.524l-.162.499-.16-.499z" transform="matrix(1.3333333 0 0 -1.3333333 198.55267 187.75613)"/><path clip-path="url(#J)" d="m0 0 .915-.665-.349-1.075.915.664.915-.664-.35 1.076.916.664h-1.131l-.35 1.076-.344-1.076z" transform="matrix(1.3333333 0 0 -1.3333333 212.9492 171.94493)"/><path clip-path="url(#K)" d="m0 0 1.111-.807-.424-1.306 1.11.807 1.112-.807-.425 1.306 1.111.807h-1.373l-.425 1.306-.423-1.306z" transform="matrix(1.3333333 0 0 -1.3333333 218.03907 179.62853)"/><path clip-path="url(#L)" d="m0 0 .916.665h-1.132l-.349 1.075-.345-1.075h-1.136l.915-.665-.349-1.076.915.665.915-.665z" transform="matrix(1.3333333 0 0 -1.3333333 227.24867 174.4216)"/><path clip-path="url(#M)" d="m0 0 .916-.665-.35-1.075.915.664.915-.664-.35 1.075.916.665h-1.131l-.35 1.076-.35-1.076z" transform="matrix(1.3333333 0 0 -1.3333333 232.304 171.21187)"/><path clip-path="url(#N)" d="m0 0 1.111-.807-.424-1.306 1.11.807 1.111-.807-.424 1.306 1.111.807h-1.373l-.425 1.306-.424-1.306z" transform="matrix(1.3333333 0 0 -1.3333333 232.06187 177.8304)"/><path clip-path="url(#O)" d="m0 0 .915-.665-.349-1.076.915.665.915-.665-.35 1.076.916.665h-1.137l-.344 1.076-.344-1.076z" transform="matrix(1.3333333 0 0 -1.3333333 232.6504 185.1416)"/><path clip-path="url(#P)" d="m0 0 .916-.664-.35-1.076.915.665.915-.665-.349 1.076.915.664h-1.131l-.35 1.076-.35-1.076z" transform="matrix(1.3333333 0 0 -1.3333333 239.61787 172.46453)"/><path clip-path="url(#Q)" d="m0 0 1.111-.808-.424-1.305 1.11.807 1.112-.807-.425 1.305 1.111.808h-1.373l-.425 1.306-.418-1.306-1.347.006" transform="matrix(1.3333333 0 0 -1.3333333 244.79813 168.83693)"/><path clip-path="url(#R)" d="m0 0 1.111-.807-.424-1.306 1.11.807 1.112-.807-.425 1.306 1.111.807h-1.373l-.425 1.306-.424-1.306z" transform="matrix(1.3333333 0 0 -1.3333333 249.0052 163.376)"/><path clip-path="url(#S)" d="m0 0 1.322-.961-.505-1.555 1.323.961 1.322-.961-.505 1.555 1.323.961h-1.635l-.505 1.555-.506-1.555z" transform="matrix(1.3333333 0 0 -1.3333333 245.69533 156.8864)"/><path clip-path="url(#T)" d="m0 0 .915-.665-.349-1.075.915.664.915-.664-.35 1.075.915.665h-1.13l-.35 1.076-.345-1.076z" transform="matrix(1.3333333 0 0 -1.3333333 256.3756 157.94373)"/></g></svg>