<?xml version="1.0" encoding="UTF-8" standalone="no"?>
<svg
   version="1.0"
   width="96"
   height="96"
   viewBox="-2100 -1470 96 96"
   xml:space="preserve"
   id="svg145"
   xmlns:xlink="http://www.w3.org/1999/xlink"
   xmlns="http://www.w3.org/2000/svg"
   xmlns:svg="http://www.w3.org/2000/svg">
  <defs
   id="defs41"><linearGradient
     id="linearGradient19459"><stop
       style="stop-color:#ffffff;stop-opacity:1;"
       offset="0"
       id="stop19457" /></linearGradient><linearGradient
     id="linearGradient3373"><stop
       style="stop-color:#221177;stop-opacity:1;"
       offset="0"
       id="stop3371" /></linearGradient><g
     id="a"
     fill="#ffffff">
      <g
   id="e">
        <path
   id="d"
   transform="rotate(18,3.157,-0.5)"
   d="M 0,0 V 1 H 0.5 Z" />
        <use
   xlink:href="#d"
   transform="scale(-1,1)"
   id="use29" />
      </g>
      <use
   xlink:href="#e"
   transform="rotate(72)"
   id="use32" />
      <use
   xlink:href="#e"
   transform="rotate(-72)"
   id="use34" />
      <use
   xlink:href="#e"
   transform="rotate(144)"
   id="use36" />
      <use
   xlink:href="#e"
   transform="rotate(-144)"
   id="use38" />
    </g><g
     id="a-2"
     fill="#ffffff">
      <g
   id="e-2">
        <path
   id="d-5"
   transform="rotate(18,3.157,-0.5)"
   d="M 0,0 V 1 H 0.5 Z" />
        <use
   xlink:href="#d-5"
   transform="scale(-1,1)"
   id="use1240" />
      </g>
      <use
   xlink:href="#e-2"
   transform="rotate(72)"
   id="use1243" />
      <use
   xlink:href="#e-2"
   transform="rotate(-72)"
   id="use1245" />
      <use
   xlink:href="#e-2"
   transform="rotate(144)"
   id="use1247" />
      <use
   xlink:href="#e-2"
   transform="rotate(-144)"
   id="use1249" />
    </g><linearGradient
     xlink:href="#linearGradient3373"
     id="linearGradient3381"
     x1="-2112"
     y1="-1380"
     x2="-2016"
     y2="-1380"
     gradientUnits="userSpaceOnUse" /><linearGradient
     xlink:href="#linearGradient3373"
     id="linearGradient19428"
     x1="-2100"
     y1="-1422"
     x2="-2004"
     y2="-1422"
     gradientUnits="userSpaceOnUse" /><linearGradient
     xlink:href="#linearGradient19459"
     id="linearGradient19461"
     x1="-2115"
     y1="-1380"
     x2="-2013"
     y2="-1380"
     gradientUnits="userSpaceOnUse" /><clipPath
     clipPathUnits="userSpaceOnUse"
     id="clipPath19585"><path
       style="font-variation-settings:'wght' 700;fill:#ffffff;fill-opacity:1;stroke-width:0;stroke-linecap:square"
       d="m -2052,-1452 30,30 -30,30 -30,-30 z"
       id="path19587" /></clipPath></defs>
  <path
   style="fill:#008844;stroke-width:6;stroke-linecap:square"
   d="m -2100,-1470 h 96 v 96 h -96 z"
   id="path43" />
  
  
<g
   id="g2641"
   style="display:inline"
   clip-path="url(#clipPath19585)"><rect
     style="font-variation-settings:'wght' 700;fill:url(#linearGradient19428);fill-opacity:1;stroke-width:0;stroke-linecap:square"
     id="rect19422"
     width="96"
     height="96"
     x="-2100"
     y="-1470" /><circle
     style="font-variation-settings:'wght' 700;fill:url(#linearGradient19461);fill-opacity:1;stroke-width:0;stroke-linecap:square"
     id="circle2643"
     cx="-2064"
     cy="-1380"
     r="51" /><circle
     style="font-variation-settings:'wght' 700;fill:url(#linearGradient3381);fill-opacity:1;stroke-width:0;stroke-linecap:square"
     id="path2584"
     cx="-2064"
     cy="-1380"
     r="48" /></g><path
   id="path19415"
   style="fill:#ffcc00;fill-opacity:1;stroke-width:6;stroke-linecap:square"
   d="m -2052,-1462 -40,40 40,40 40,-40 z m 0,20 a 20,20 0 0 1 20,20 20,20 0 0 1 -20,20 20,20 0 0 1 -20,-20 20,20 0 0 1 20,-20 z" /></svg>
