<svg version="1.0" width="96" height="96" viewBox="-2100 -1470 96 96" xml:space="preserve" xmlns:xlink="http://www.w3.org/1999/xlink" xmlns="http://www.w3.org/2000/svg">
  <defs>
    <path id="c" d="M0 0a31.5 35 0 0 0 0-70A31.5 35 0 0 0 0 0m0-13a18.5 22 0 0 0 0-44 18.5 22 0 0 0 0 44" fill-rule="evenodd"/>
    <path id="h" d="M-31.5 0h33a30 30 0 0 0 30-30v-10a30 30 0 0 0-30-30h-33zm13-13h19a19 19 0 0 0 19-19v-6a19 19 0 0 0-19-19h-19z" fill-rule="evenodd"/>
    <path id="j" d="M0 0h63v-13H12v-18h40v-12H12v-14h48v-13H0z" transform="translate(-31.5)"/>
    <path id="k" d="M-31.5 0h12v-48l14 48h11l14-48V0h12v-70H14L0-22l-14-48h-17.5z"/>
    <path id="m" d="M-26.25 0h52.5v-12h-40.5v-16h33v-12h-33v-11H25v-12h-51.25z"/>
    <path id="b" d="M-31.5 0h13v-26h28a22 22 0 0 0 0-44h-40zm13-39h27a9 9 0 0 0 0-18h-27z" fill-rule="evenodd"/>
    <path id="q" d="M-15.75-22C-15.75-15-9-11.5 1-11.5s14.74-3.25 14.75-7.75c0-14.25-46.75-5.25-46.5-30.25C-30.5-71-6-70 3-70s26 4 25.75 21.25H13.5c0-7.5-7-10.25-15-10.25-7.75 0-13.25 1.25-13.25 8.5-.25 11.75 46.25 4 46.25 28.75C31.5-3.5 13.5 0 0 0c-11.5 0-31.55-4.5-31.5-22z"/>
    <use id="s" xlink:href="#a" transform="scale(31.5)"/>
    <use id="v" xlink:href="#a" transform="scale(26.25)"/>
    <use id="t" xlink:href="#a" transform="scale(21)"/>
    <use id="u" xlink:href="#a" transform="scale(15)"/>
    <use id="x" xlink:href="#a" transform="scale(10.5)"/>
    <g id="f">
      <use xlink:href="#b"/>
      <path d="M28 0c0-10 0-32-15-32H-6c22 0 22 22 22 32"/>
    </g>
    <g id="p">
      <use xlink:href="#c"/>
      <path d="M5-35h26.5v10H5z"/>
      <path d="M21.5-35h10V0h-10z"/>
      <path fill="#fff" d="M0-47h40v12H0z"/>
    </g>
    <g id="a" fill="#fff">
      <g id="e">
        <path id="d" transform="rotate(18 3.157 -.5)" d="M0 0v1h.5z"/>
        <use xlink:href="#d" transform="scale(-1 1)"/>
      </g>
      <use xlink:href="#e" transform="rotate(72)"/>
      <use xlink:href="#e" transform="rotate(-72)"/>
      <use xlink:href="#e" transform="rotate(144)"/>
      <use xlink:href="#e" transform="rotate(-144)"/>
    </g>
  </defs>
  <path style="fill:#009c3b;stroke-width:6;stroke-linecap:square" d="M-2100-1470h96v96h-96z"/>
  <path style="fill:#ffdf00;fill-opacity:1;stroke-width:6;stroke-linecap:square" d="m-2092-1422 40-40 40 40-40 40z"/>
  <g style="display:inline" transform="translate(-2052 -1422)scale(.0272)">
    <path d="M698.022 218.738c-17.874-15.969-34.837-33.142-53.313-48.281a1679.7 1679.7 0 0 0-421.798-252.58A1680.4 1680.4 0 0 0-90.712-177.42a1679 1679 0 0 0-163.235-24.357A1681 1681 0 0 0-420.002-210a1681 1681 0 0 0-166.05 8.222c-41.288 4.099-81.987 11.199-122.667 18.303A735 735 0 0 0-735.002 0a735 735 0 0 0 735 735 735 735 0 0 0 698.024-516.262" style="fill:#002776;fill-opacity:1;stroke:none;stroke-opacity:1"/>
    <path d="M724.986 101.672c-4.72-3.95-8.969-8.532-13.726-12.43A1784.8 1784.8 0 0 0 263.087-179.12a1786 1786 0 0 0-163.952-58.718 1785 1785 0 0 0-342.715-68.426A1785 1785 0 0 0-420.002-315c-59.174 0-118.044 2.938-176.418 8.735-25.337 2.515-50.145 7.649-75.278 11.235a735 735 0 0 0-37.02 111.555c40.679-7.104 81.378-14.204 122.665-18.303A1681 1681 0 0 1-420.002-210c55.698 0 111.112 2.767 166.055 8.222a1679 1679 0 0 1 322.555 64.394A1680.4 1680.4 0 0 1 371.094-12.092 1679.7 1679.7 0 0 1 644.71 170.457c18.476 15.139 35.44 32.312 53.313 48.281a735 735 0 0 0 26.964-117.066" style="fill:#fff;fill-opacity:1"/>
    <path d="M-.002-735a735 735 0 0 0-671.696 439.97c25.133-3.586 49.94-8.72 75.278-11.235A1785 1785 0 0 1-420.002-315a1784 1784 0 0 1 349.856 34.618 1785 1785 0 0 1 169.281 42.543A1785.7 1785.7 0 0 1 420.54-104.71 1785 1785 0 0 1 711.26 89.242c4.757 3.898 9.006 8.48 13.726 12.43A735 735 0 0 0 734.998 0a735 735 0 0 0-735-735" style="fill:#002776;fill-opacity:1;stroke:none;stroke-opacity:1"/>
    <g fill="#00923f" transform="translate(-420 1470)">
      <g transform="rotate(-7)">
        <use xlink:href="#c" transform="translate(0 -1697.5)"/>
        <use xlink:href="#f" transform="rotate(3 32412.455 848.75)"/>
        <use xlink:href="#h" transform="rotate(6 16195.115 848.75)"/>
        <use xlink:href="#j" transform="rotate(9 10784.391 848.75)"/>
        <use xlink:href="#k" transform="rotate(12 8075.317 848.75)"/>
      </g>
      <use xlink:href="#m" transform="rotate(9.75 9951.259 848.75)"/>
      <g transform="rotate(14.5)">
        <use xlink:href="#b" transform="translate(0 -1697.5)"/>
        <use xlink:href="#f" transform="rotate(3 32412.455 848.75)"/>
        <use xlink:href="#c" transform="rotate(6 16195.115 848.75)"/>
        <use xlink:href="#p" transform="rotate(9 10784.391 848.75)"/>
        <use xlink:href="#f" transform="rotate(12 8075.317 848.75)"/>
        <use xlink:href="#j" transform="rotate(15 6446.896 848.75)"/>
        <use xlink:href="#q" transform="rotate(18 5358.797 848.75)"/>
        <use xlink:href="#q" transform="rotate(21 4579.445 848.75)"/>
        <use xlink:href="#c" transform="rotate(24 3993.055 848.75)"/>
      </g>
    </g>
    <use xlink:href="#s" transform="rotate(22 39.54 -1609.366)"/>
    <use xlink:href="#s" transform="rotate(-5 1759.483 6215.257)"/>
    <use xlink:href="#t" transform="rotate(5 -3095.307 -7035.927)"/>
    <use xlink:href="#u" transform="translate(-463 132)"/>
    <use xlink:href="#v" transform="translate(-382 250)"/>
    <use xlink:href="#v" transform="translate(-404 323)"/>
    <use xlink:href="#s" transform="translate(228 -228)"/>
    <use xlink:href="#s" transform="translate(515 258)"/>
    <use xlink:href="#t" transform="rotate(5 -2726.249 7198.312)"/>
    <use xlink:href="#v" transform="rotate(2 -8979.829 15773.015)"/>
    <use xlink:href="#v" transform="translate(368 477)"/>
    <use xlink:href="#t" transform="translate(367 551)"/>
    <use xlink:href="#t" transform="translate(441 419)"/>
    <use xlink:href="#v" transform="translate(500 382)"/>
    <use xlink:href="#t" transform="translate(365 405)"/>
    <use xlink:href="#v" transform="rotate(30 -195.98 -507.487)"/>
    <use xlink:href="#t" transform="rotate(17 223.786 650.616)"/>
    <use xlink:href="#s" transform="translate(0 330)"/>
    <use xlink:href="#v" transform="translate(85 184)"/>
    <use xlink:href="#v" transform="rotate(-10 674.373 59)"/>
    <use xlink:href="#t" transform="rotate(-10 1014.565 514.912)"/>
    <use xlink:href="#u" transform="rotate(-10 1324.531 328.956)"/>
    <use xlink:href="#v" transform="translate(220 495)"/>
    <use xlink:href="#t" transform="rotate(5 -4782.81 3455.883)"/>
    <use xlink:href="#t" transform="rotate(5 -4637.176 2061.205)"/>
    <use xlink:href="#s" transform="translate(-295 390)"/>
    <use xlink:href="#x" transform="translate(0 575)"/>
  </g>
</svg>
