<?xml version="1.0" encoding="UTF-8" standalone="no"?>
<svg
   height="613.33331"
   viewBox="0 0 920 613.33331"
   width="920"
   version="1.1"
   id="svg22"
   sodipodi:docname="rect.svg"
   inkscape:version="1.4 (e7c3feb1, 2024-10-09)"
   xmlns:inkscape="http://www.inkscape.org/namespaces/inkscape"
   xmlns:sodipodi="http://sodipodi.sourceforge.net/DTD/sodipodi-0.dtd"
   xmlns="http://www.w3.org/2000/svg"
   xmlns:svg="http://www.w3.org/2000/svg">
  <defs
     id="defs22" />
  <sodipodi:namedview
     id="namedview22"
     pagecolor="#ffffff"
     bordercolor="#000000"
     borderopacity="0.25"
     inkscape:showpageshadow="2"
     inkscape:pageopacity="0.0"
     inkscape:pagecheckerboard="0"
     inkscape:deskcolor="#d1d1d1"
     inkscape:current-layer="svg22" />
  <path
     d="m0 0h690v460h-690z"
     fill="#fff"
     id="path1"
     transform="matrix(1.3333333 0 0 -1.3333333 0 613.33333)" />
  <path
     d="m0 280h690v180h-690z"
     id="path2"
     transform="matrix(1.3333333 0 0 -1.3333333 0 613.33333)" />
  <g
     fill="#fcd116"
     id="g21">
    <path
       d="m0 0 147.118-29.264 7.316 36.78"
       transform="matrix(1.3333333 0 0 -1.3333333 260 240)"
       id="path3" />
    <path
       d="m0 0 147.118 29.264 7.316-36.78"
       transform="matrix(1.3333333 0 0 -1.3333333 260 240)"
       id="path4" />
    <path
       d="m0 0 124.721-83.335 20.834 31.18"
       transform="matrix(1.3333333 0 0 -1.3333333 275.224 163.4636)"
       id="path5" />
    <path
       d="m0 0 147.118-29.263-7.316-36.78"
       transform="matrix(1.3333333 0 0 -1.3333333 275.224 163.4636)"
       id="path6" />
    <path
       d="m0 0 83.335-124.72 31.18 20.834"
       transform="matrix(1.3333333 0 0 -1.3333333 318.5788 98.5788)"
       id="path7" />
    <path
       d="m0 0 124.72-83.335-20.834-31.181"
       transform="matrix(1.3333333 0 0 -1.3333333 318.5788 98.5788)"
       id="path8" />
    <path
       d="m0 0 29.263-147.118 36.78 7.316"
       transform="matrix(1.3333333 0 0 -1.3333333 383.4636 55.224)"
       id="path9" />
    <path
       d="m0 0 83.335-124.721-31.18-20.833"
       transform="matrix(1.3333333 0 0 -1.3333333 383.4636 55.224)"
       id="path10" />
    <path
       d="m0 0-29.264-147.118 36.78-7.316"
       transform="matrix(1.3333333 0 0 -1.3333333 460 40)"
       id="path11" />
    <path
       d="m0 0 29.264-147.118-36.78-7.316"
       transform="matrix(1.3333333 0 0 -1.3333333 460 40)"
       id="path12" />
    <path
       d="m0 0-83.335-124.721 31.18-20.833"
       transform="matrix(1.3333333 0 0 -1.3333333 536.5364 55.224)"
       id="path13" />
    <path
       d="m0 0-29.264-147.118-36.779 7.316"
       transform="matrix(1.3333333 0 0 -1.3333333 536.5364 55.224)"
       id="path14" />
    <path
       d="m0 0-124.721-83.335 20.834-31.181"
       transform="matrix(1.3333333 0 0 -1.3333333 601.42187 98.5788)"
       id="path15" />
    <path
       d="m0 0-83.336-124.72-31.18 20.834"
       transform="matrix(1.3333333 0 0 -1.3333333 601.42187 98.5788)"
       id="path16" />
    <path
       d="m0 0-147.118-29.263 7.316-36.78"
       transform="matrix(1.3333333 0 0 -1.3333333 644.776 163.4636)"
       id="path17" />
    <path
       d="m0 0-124.721-83.335-20.833 31.18"
       transform="matrix(1.3333333 0 0 -1.3333333 644.776 163.4636)"
       id="path18" />
    <g
       transform="matrix(1.3333333 0 0 -1.3333333 660 240)"
       id="g20">
      <path
         d="m0 0-147.118 29.264-7.316-36.78"
         id="path19" />
      <path
         d="m0 0-147.118-29.264-7.316 36.78"
         id="path20" />
    </g>
  </g>
  <path
     d="m0 180h690v100h-690z"
     fill="#0072c6"
     id="path21"
     transform="matrix(1.3333333 0 0 -1.3333333 0 613.33333)" />
  <path
     d="m0 0-345.001-460-344.999 460v-460h690z"
     fill="#ce1126"
     id="path22"
     transform="matrix(1.3333333 0 0 -1.3333333 920.0004 .000133)" />
</svg>
