<svg height="600" viewBox="0 0 900.12665 600" width="900.12665" xmlns="http://www.w3.org/2000/svg" xmlns:xlink="http://www.w3.org/1999/xlink"><clipPath id="a"><path d="m0 0h675v450h-675z" transform="translate(0 -61.363299)"/></clipPath><path d="m0 0h675v450h-675z" fill="#bf0a30" transform="matrix(1.3333333 0 0 -1.3333333 0 600)"/><path d="m0 0h675zm0-81.821h675zm0-81.816h675zm0-81.816h675zm0-81.821h675z" transform="matrix(1.3333333 0 0 -1.3333333 0 81.8172)"/><path clip-path="url(#a)" d="m0 0h675.095m-675.095 81.82h675.095m-675.095 81.817h675.095m-675.095 81.816h675.095m-675.095 81.821h675.095" fill="none" stroke="#fff" stroke-width="40.909" transform="matrix(1.3333333 0 0 -1.3333333 0 518.18227)"/><path d="m0 245.453h204.547v204.547h-204.547z" fill="#002868" transform="matrix(1.3333333 0 0 -1.3333333 0 600)"/><g fill="#fff"><path d="m0 0-18.964-58.36 29.183-9.48z" transform="matrix(1.3333333 0 0 -1.3333333 136.36387 54.546933)"/><path d="m0 0 18.961-58.36-29.179-9.48z" transform="matrix(1.3333333 0 0 -1.3333333 136.36387 54.546933)"/><path d="m0 0h-61.363v-30.683z" transform="matrix(1.3333333 0 0 -1.3333333 214.17707 111.0788)"/><path d="m0 0-49.645-36.07-18.035 24.82z" transform="matrix(1.3333333 0 0 -1.3333333 214.17707 111.0788)"/><path d="m0 0 49.645-36.07 18.031 24.82z" transform="matrix(1.3333333 0 0 -1.3333333 58.552133 111.0788)"/><path d="m0 0h61.363v-30.683z" transform="matrix(1.3333333 0 0 -1.3333333 58.552133 111.0788)"/><path d="m0 0-18.961 58.359-29.18-9.48z" transform="matrix(1.3333333 0 0 -1.3333333 184.45307 202.55733)"/><path d="m0 0-49.645 36.07 18.035 24.821z" transform="matrix(1.3333333 0 0 -1.3333333 184.45307 202.55733)"/><g transform="matrix(1.3333333 0 0 -1.3333333 88.2708 202.55733)"><path d="m0 0 49.645 36.07-18.036 24.821z"/><path d="m0 0 18.965 58.359 29.18-9.48z"/></g></g></svg>