<svg height="900" viewBox="0 0 900 900" width="900" xmlns="http://www.w3.org/2000/svg" xmlns:xlink="http://www.w3.org/1999/xlink"><clipPath id="a"><path d="m0 0h674.88v450h-674.88z" transform="translate(.1201 -135)"/></clipPath><path d="m0 900.00001h900v-899.999995h-900z" fill="#ed0000" stroke-width="1.63314"/><path d="m0 180h899.83998zm0 239.99999h899.83998z" stroke-width="1.33333"/><path clip-path="url(#a)" d="m0 0h675m-675 180h675" fill="none" stroke="#fff" stroke-width="90" transform="matrix(1.3335704 0 0 -2 -.160161 630.00001)"/><path d="m0 899.86182 519.54703-449.862-519.54703-449.862z" fill="#0050f0" stroke-width="1.63314"/><g fill="#fff" transform="matrix(1.1828849 0 0 1.1828849 -14.253829 106.43045)"><path d="m0 0-23.175-71.328 35.664-11.59z" transform="matrix(1.3333333 0 0 -1.3333333 173.04293 200)"/><path d="m0 0 23.18-71.328-35.668-11.59z" transform="matrix(1.3333333 0 0 -1.3333333 173.04293 200)"/><path d="m0 0h-75v-37.5z" transform="matrix(1.3333333 0 0 -1.3333333 268.15173 269.09893)"/><path d="m0 0-60.675-44.082-22.043 30.336z" transform="matrix(1.3333333 0 0 -1.3333333 268.15173 269.09893)"/><path d="m0 0 60.676-44.082 22.043 30.336z" transform="matrix(1.3333333 0 0 -1.3333333 77.9388 269.09893)"/><path d="m0 0h75v-37.5z" transform="matrix(1.3333333 0 0 -1.3333333 77.9388 269.09893)"/><path d="m0 0-23.176 71.328-35.664-11.586z" transform="matrix(1.3333333 0 0 -1.3333333 231.82427 380.90107)"/><path d="m0 0-60.676 44.082 22.04 30.34z" transform="matrix(1.3333333 0 0 -1.3333333 231.82427 380.90107)"/><g transform="matrix(1.3333333 0 0 -1.3333333 114.26693 380.90107)"><path d="m0 0 60.676 44.082-22.043 30.34z"/><path d="m0 0 23.176 71.328 35.664-11.586z"/></g></g></svg>