<svg height="666.66669" viewBox="0 0 1000 666.66669" width="1000" xmlns="http://www.w3.org/2000/svg" xmlns:xlink="http://www.w3.org/1999/xlink"><clipPath id="a"><path d="m0 500h750v-500h-750z" transform="translate(0 -250.00001)"/></clipPath><clipPath id="b"><path d="m0 500h750v-500h-750z" transform="translate(-226.3198 -339.00001)"/></clipPath><clipPath id="c"><path d="m0 500h750v-500h-750z" transform="translate(-637.57031 -339.00001)"/></clipPath><clipPath id="d"><path d="m0 500h750v-500h-750z" transform="translate(-226.3198 -52.750004)"/></clipPath><clipPath id="e"><path d="m0 500h750v-500h-750z" transform="translate(-637.57031 -52.750004)"/></clipPath><path d="m0 0h750v500h-750z" fill="#21428e" transform="matrix(1.3333333 0 0 -1.3333333 0 666.66667)"/><path d="m0 0v-250zm0-250h374.999zm-375 0h375zm375 0v-250z" transform="matrix(1.3333333 0 0 -1.3333333 500.0004 -.000533)"/><path clip-path="url(#a)" d="m0 0h750m-375 250v-500" fill="none" stroke="#fff" stroke-width="72.5" transform="matrix(1.3333333 0 0 -1.3333333 0 333.33333)"/><g fill="#fff"><path clip-path="url(#b)" d="m0 0c4.37-1.61 5.98-3.22 4.6-4.6-3.91-3.91-29.21-7.36-44.62-6.21-17.02 1.61-35.42 7.13-29.9 9.43 15.41 5.98 55.89 6.67 69.92 1.38m-66.47 128.8c-.69-1.15-2.53-2.3-3.68-2.3-1.38 0-1.61 1.15-.92 2.3.69 1.38 2.53 2.3 3.68 2.3 1.38 0 1.61-.92.92-2.3m-16.56 4.83c-5.52-2.53-9.89-6.21-9.89-8.05 0-2.07 3.22-2.07-.92-3.45-3.91-1.38-14.49-3.22-21.85-2.99-2.53 0-8.51 1.61-10.12 1.61-1.84-.23 7.82-4.14 4.14-3.22-5.06 1.38-8.05 1.84-4.14-.69 2.99-1.84 9.66-1.84 19.09-.69 3.68.46 13.34 2.53 16.79 2.99 2.3.23 2.3-1.84 3.68-1.84 12.42-.69 34.5-.23 44.16 1.15 8.05 1.15 11.04.69 13.34-2.07 4.6-5.29-.23-9.89-13.34-12.65-16.1-3.45-22.77-6.44-28.98-13.11-14.95-16.1 2.53-34.27 35.19-36.8 19.09-1.61 31.51-5.29 28.52-8.28-1.15-1.15-13.8-2.99-28.29-4.14-31.51-2.53-45.54-6.9-57.5-18.4-6.67-6.44-8.97-10.35-8.97-15.64 0-7.36 0-7.36-12.19-7.36-6.44 0-15.41.92-19.55 2.3-6.44 1.61-7.36 1.61-5.06-1.15 4.6-5.52 17.71-10.35 28.52-10.35 8.28 0 12.88-1.61 20.24-6.9 14.72-10.81 31.51-14.95 59.34-14.72 36.57.23 57.5 9.89 57.5 26.22 0 12.19-13.8 19.32-42.55 21.85-14.49 1.38-43.01-.92-55.43-4.6-2.3-.69.23.92 5.75 3.68 6.67 3.22 17.71 5.52 32.66 6.9 33.12 2.76 48.07 10.12 48.07 23.92 0 13.34-14.72 20.93-46.23 23.92-31.05 2.76-33.35 8.28-7.13 16.33 18.63 5.52 28.06 13.8 28.06 25.07 0 17.25-9.43 23-40.94 24.61-19.09.92-23.69.46-31.97-3.45" transform="matrix(1.3333333 0 0 -1.3333333 301.75973 214.66667)"/><path clip-path="url(#c)" d="m0 0c4.37-1.61 5.979-3.22 4.6-4.6-3.911-3.91-29.21-7.36-44.621-6.21-17.019 1.61-35.419 7.13-29.899 9.43 15.409 5.98 55.89 6.67 69.92 1.38m-66.471 128.8c-.689-1.15-2.529-2.3-3.679-2.3-1.38 0-1.611 1.15-.92 2.3.69 1.38 2.53 2.3 3.679 2.3 1.38 0 1.611-.92.92-2.3m-16.559 4.83c-5.521-2.53-9.89-6.21-9.89-8.05 0-2.07 3.22-2.07-.92-3.45-3.91-1.38-14.49-3.22-21.85-2.99-2.531 0-8.51 1.61-10.121 1.61-1.839-.23 7.821-4.14 4.141-3.22-5.06 1.38-8.051 1.84-4.141-.69 2.991-1.84 9.661-1.84 19.09-.69 3.681.46 13.341 2.53 16.79 2.99 2.301.23 2.301-1.84 3.681-1.84 12.42-.69 34.5-.23 44.16 1.15 8.05 1.15 11.039.69 13.34-2.07 4.6-5.29-.23-9.89-13.34-12.65-16.1-3.45-22.77-6.44-28.98-13.11-14.951-16.1 2.53-34.27 35.19-36.8 19.09-1.61 31.51-5.29 28.52-8.28-1.151-1.15-13.8-2.99-28.29-4.14-31.51-2.53-45.54-6.9-57.5-18.4-6.67-6.44-8.97-10.35-8.97-15.64 0-7.36 0-7.36-12.191-7.36-6.439 0-15.41.92-19.549 2.3-6.441 1.61-7.361 1.61-5.06-1.15 4.6-5.52 17.71-10.35 28.52-10.35 8.28 0 12.879-1.61 20.24-6.9 14.72-10.81 31.51-14.95 59.34-14.72 36.57.23 57.5 9.89 57.5 26.22 0 12.19-13.8 19.32-42.55 21.85-14.49 1.38-43.01-.92-55.431-4.6-2.3-.69.231.92 5.75 3.68 6.671 3.22 17.711 5.52 32.66 6.9 33.12 2.76 48.071 10.12 48.071 23.92 0 13.34-14.72 20.93-46.231 23.92-31.05 2.76-33.349 8.28-7.13 16.33 18.63 5.52 28.061 13.8 28.061 25.07 0 17.25-9.431 23-40.941 24.61-19.089.92-23.689.46-31.969-3.45" transform="matrix(1.3333333 0 0 -1.3333333 850.09373 214.66667)"/><path clip-path="url(#d)" d="m0 0c4.37-1.61 5.98-3.22 4.6-4.6-3.91-3.91-29.21-7.36-44.62-6.21-17.02 1.61-35.42 7.13-29.9 9.43 15.41 5.98 55.89 6.67 69.92 1.38m-66.47 128.8c-.69-1.15-2.53-2.3-3.68-2.3-1.38 0-1.61 1.15-.92 2.3.69 1.38 2.53 2.3 3.68 2.3 1.38 0 1.61-.92.92-2.3m-16.56 4.83c-5.52-2.53-9.89-6.21-9.89-8.05 0-2.07 3.22-2.07-.92-3.45-3.91-1.38-14.49-3.22-21.85-2.99-2.53 0-8.51 1.61-10.12 1.61-1.84-.23 7.82-4.14 4.14-3.22-5.06 1.38-8.05 1.84-4.14-.69 2.99-1.84 9.66-1.84 19.09-.69 3.68.46 13.34 2.53 16.79 2.99 2.3.23 2.3-1.84 3.68-1.84 12.42-.69 34.5-.23 44.16 1.15 8.05 1.15 11.04.69 13.34-2.07 4.6-5.29-.23-9.89-13.34-12.65-16.1-3.45-22.77-6.44-28.98-13.11-14.95-16.1 2.53-34.27 35.19-36.8 19.09-1.61 31.51-5.29 28.52-8.28-1.15-1.15-13.8-2.99-28.29-4.14-31.51-2.53-45.54-6.9-57.5-18.4-6.67-6.44-8.97-10.35-8.97-15.64 0-7.36 0-7.36-12.19-7.36-6.44 0-15.41.92-19.55 2.3-6.44 1.61-7.36 1.61-5.06-1.15 4.6-5.52 17.71-10.35 28.52-10.35 8.28 0 12.88-1.61 20.24-6.9 14.72-10.81 31.51-14.95 59.34-14.72 36.57.23 57.5 9.89 57.5 26.22 0 12.19-13.8 19.32-42.55 21.85-14.49 1.38-43.01-.92-55.43-4.6-2.3-.69.23.92 5.75 3.68 6.67 3.22 17.71 5.52 32.66 6.9 33.12 2.76 48.07 10.12 48.07 23.92 0 13.34-14.72 20.93-46.23 23.92-31.05 2.76-33.35 8.28-7.13 16.33 18.63 5.52 28.06 13.8 28.06 25.07 0 17.25-9.43 23-40.94 24.61-19.09.92-23.69.46-31.97-3.45" transform="matrix(1.3333333 0 0 -1.3333333 301.75973 596.33333)"/><path clip-path="url(#e)" d="m0 0c4.37-1.61 5.979-3.22 4.6-4.6-3.911-3.91-29.21-7.36-44.621-6.21-17.019 1.61-35.419 7.13-29.899 9.43 15.409 5.98 55.89 6.67 69.92 1.38m-66.471 128.8c-.689-1.15-2.529-2.3-3.679-2.3-1.38 0-1.611 1.15-.92 2.3.69 1.38 2.53 2.3 3.679 2.3 1.38 0 1.611-.92.92-2.3m-16.559 4.83c-5.521-2.53-9.89-6.21-9.89-8.05 0-2.07 3.22-2.07-.92-3.45-3.91-1.38-14.49-3.22-21.85-2.99-2.531 0-8.51 1.61-10.121 1.61-1.839-.23 7.821-4.14 4.141-3.22-5.06 1.38-8.051 1.84-4.141-.69 2.991-1.84 9.661-1.84 19.09-.69 3.681.46 13.341 2.53 16.79 2.99 2.301.23 2.301-1.84 3.681-1.84 12.42-.69 34.5-.23 44.16 1.15 8.05 1.15 11.039.69 13.34-2.07 4.6-5.29-.23-9.89-13.34-12.65-16.1-3.45-22.77-6.44-28.98-13.11-14.951-16.1 2.53-34.27 35.19-36.8 19.09-1.61 31.51-5.29 28.52-8.28-1.151-1.15-13.8-2.99-28.29-4.14-31.51-2.53-45.54-6.9-57.5-18.4-6.67-6.44-8.97-10.35-8.97-15.64 0-7.36 0-7.36-12.191-7.36-6.439 0-15.41.92-19.549 2.3-6.441 1.61-7.361 1.61-5.06-1.15 4.6-5.52 17.71-10.35 28.52-10.35 8.28 0 12.879-1.61 20.24-6.9 14.72-10.81 31.51-14.95 59.34-14.72 36.57.23 57.5 9.89 57.5 26.22 0 12.19-13.8 19.32-42.55 21.85-14.49 1.38-43.01-.92-55.431-4.6-2.3-.69.231.92 5.75 3.68 6.671 3.22 17.711 5.52 32.66 6.9 33.12 2.76 48.071 10.12 48.071 23.92 0 13.34-14.72 20.93-46.231 23.92-31.05 2.76-33.349 8.28-7.13 16.33 18.63 5.52 28.061 13.8 28.061 25.07 0 17.25-9.431 23-40.941 24.61-19.089.92-23.689.46-31.969-3.45" transform="matrix(1.3333333 0 0 -1.3333333 850.09373 596.33333)"/></g></svg>