<svg height="300" viewBox="0 0 449.33334 300" width="449.33334" xmlns="http://www.w3.org/2000/svg" xmlns:xlink="http://www.w3.org/1999/xlink"><clipPath id="a"><path d="m0 225h337v-225h-337z" transform="translate(-114.375 -112.5)"/></clipPath><clipPath id="b"><path d="m0 225h337v-225h-337z" transform="translate(-136.875 -112.5)"/></clipPath><clipPath id="c"><path d="m0 225h337v-225h-337z" transform="translate(-66.085901 -151.6328)"/></clipPath><clipPath id="d"><path d="m0 225h337v-225h-337z" transform="translate(-66.085901 -127.47711)"/></clipPath><clipPath id="e"><path d="m0 225h337v-225h-337z" transform="translate(-66.085901 -103.3203)"/></clipPath><clipPath id="f"><path d="m0 225h337v-225h-337z" transform="translate(-66.085901 -79.164099)"/></clipPath><g transform="matrix(1.3333333 0 0 -1.3333333 0 300)"><path d="m0 0h337v225h-337z" fill="#ffc61e"/><path d="m0 0h337v168.75h-337z" fill="#fff"/><path d="m0 0h337v112.5h-337z" fill="#ce1126"/><path d="m0 0h337v56.25h-337z" fill="#3a75c4"/></g><path d="m0 0v-225l187.5 112.5z" fill="#3d8e33" transform="scale(1.3333333 -1.3333333)"/><path clip-path="url(#a)" d="m0 0c0-27.961-22.664-50.625-50.625-50.625s-50.625 22.664-50.625 50.625 22.664 50.625 50.625 50.625 50.625-22.664 50.625-50.625" fill="#fff" transform="matrix(1.3333333 0 0 -1.3333333 152.5 150)"/><path clip-path="url(#b)" d="m0 0c0-27.961-22.664-50.625-50.625-50.625s-50.625 22.664-50.625 50.625 22.664 50.625 50.625 50.625 50.625-22.664 50.625-50.625" fill="#3d8e33" transform="matrix(1.3333333 0 0 -1.3333333 182.5 150)"/><g fill="#fff"><path clip-path="url(#c)" d="m0 0h6.809l2.105 6.476 2.105-6.476h6.809l-5.508-4.004 2.106-6.481-5.512 4.004-5.512-4.004 2.106 6.481z" transform="matrix(1.3333333 0 0 -1.3333333 88.114533 97.822933)"/><path clip-path="url(#d)" d="m0 0h6.809l2.105 6.476 2.105-6.476h6.809l-5.508-4.004 2.106-6.481-5.512 4.004-5.512-4.004 2.106 6.481z" transform="matrix(1.3333333 0 0 -1.3333333 88.114533 130.03053)"/><path clip-path="url(#e)" d="m0 0h6.809l2.105 6.477 2.105-6.477h6.809l-5.508-4.004 2.106-6.48-5.512 4.004-5.512-4.004 2.106 6.48z" transform="matrix(1.3333333 0 0 -1.3333333 88.114533 162.2396)"/><path clip-path="url(#f)" d="m0 0h6.809l2.105 6.477 2.105-6.477h6.809l-5.508-4.004 2.106-6.48-5.512 4.004-5.512-4.004 2.106 6.48z" transform="matrix(1.3333333 0 0 -1.3333333 88.114533 194.44787)"/></g></svg>