<svg height="300" viewBox="0 0 450 300" width="450" xmlns="http://www.w3.org/2000/svg"><path d="m0 .23h337.5v224.77h-337.5z" fill="#009b3a" transform="matrix(1.3333333 0 0 -1.3333333 0 300)"/><path d="m0 0 168.75-111.624v223.248zm-168.75-111.624 168.75 111.624-168.75 111.624z" transform="matrix(1.3333333 0 0 -1.3333333 225 149.6928)"/><path d="m0 0-138.036-91.306-138.036 91.306h-30.714v-21.609l137.058-90.661-137.058-90.66v-22.07h30.019l138.731 91.768 138.731-91.768h30.019v22.07l-137.059 90.66 137.059 90.661v21.609z" fill="#fed100" transform="matrix(1.3333333 0 0 -1.3333333 409.0484 0)"/></svg>