<svg xmlns="http://www.w3.org/2000/svg" width="96" height="96" viewBox="0 0 8 8">
	<path fill="#111" d="M0 0H8v8H0z"/>
	<g fill="#fc0">
		<path d="M 4,1 4.1950903,2.0192147 4.7653669,1.152241 4.5555702,2.1685304 5.4142136,1.5857865 4.8314696,2.4444298 5.8477591,2.2346332 4.9807853,2.8049097 6,3 4.9807853,3.1950903 5.847759,3.7653669 4.8314696,3.5555702 5.4142135,4.4142136 4.5555702,3.8314696 4.7653668,4.8477591 4.1950903,3.9807853 4,5 3.8049097,3.9807853 3.2346331,4.847759 3.4444298,3.8314696 2.5857864,4.4142135 3.1685304,3.5555702 2.1522409,3.7653668 3.0192147,3.1950903 2,3 3.0192147,2.8049097 2.152241,2.2346331 3.1685304,2.4444298 2.5857865,1.5857864 3.4444298,2.1685304 3.2346332,1.1522409 3.8049097,2.0192147 Z"/>
		</g>
	<path fill="#07c" d="M0 3H8v8H0z"/>
	<path fill="#fff" d="M0 5H8v8H0z"/>
	<g fill="#c12">
		<path d="M0 0L4 8H0z"/>
		<path d="M8 0v8H4z"/>
		</g>
</svg>