<svg xmlns="http://www.w3.org/2000/svg" xmlns:xlink="http://www.w3.org/1999/xlink" width="600" height="600" viewBox="0 0 158.75 158.75">
  <g transform="translate(0 -138.25)">
    <path fill="#001643" d="M0 138.25h158.75V297H0z" paint-order="markers fill stroke"/>
    <path fill="#eb0000" d="M43.656 150.156h71.438v99.219H43.656z" style="mix-blend-mode:normal"/>
    <use xlink:href="#b" width="100%" height="100%" transform="matrix(-1 0 0 1 158.75 0)"/>
    <g id="b" fill="#fff" display="inline">
      <path stroke-width="2.646" d="M51.741 207.09c6.634 19.983 2.064 22.258 9.527 27.062 3.46 2.228 9.349 1.613 12.906 2.28 1.684.305 2.555 2.327 2.555 2.327h2.646l1.497-12.122-1.497-20.124-4.873-1.441 1.391 26.02c-4.248 0-7.17-.048-9.582-1.967-2.059-1.637-4.72-5.429-4.764-8.96l5.72 1.163z" paint-order="stroke fill markers"/>
      <path stroke-width="2.117" d="m80.698 236.146-1.323 6.254c-1.091-.016-1.132-.38-1.132-.38l-1.029-5.564z"/>
    </g>
    <path fill="#fff" stroke="#eb0000" stroke-width="2.117" d="m68.263 203.8 11.112 2.713 11.113-2.712-1.853 8.797-9.26 2.117-9.26-2.117z"/>
    <path fill="none" stroke="#eb0000" stroke-width="2.117" d="M79.375 206.513v8.202"/>
    <circle cx="79.375" cy="198.201" r="6.989" fill="#fff" stroke="#eb0000" stroke-width="4.233" paint-order="stroke fill markers"/>
    <g fill="#fff" stroke-width=".265" aria-label="HAMBURG" font-family="Eurostile#2-Extended" font-size="11.289" font-weight="700" letter-spacing="0" style="line-height:1.25;-inkscape-font-specification:&quot;Eurostile Bold&quot;;text-align:center;mix-blend-mode:lighten" text-anchor="middle" word-spacing="0">
      <path d="M36.621 272.498h2.506v-3.093h5.284v3.093h2.506v-8.173H44.41v2.913h-5.284v-2.913h-2.506zM47.814 272.498h2.8l.734-1.445h5.08l.779 1.445h2.788l-4.493-8.173h-3.263zm6.051-6.276 1.626 3.07h-3.206ZM60.897 272.498h2.438v-5.87h.023l3.285 5.87h1.874l3.285-5.87h.022v5.87h2.439v-8.173h-3.85l-2.833 5.26-2.834-5.26h-3.85zM75.956 272.498h7.981q.576 0 1.016-.09.452-.102.78-.327.338-.237.518-.666.181-.43.181-1.084 0-.937-.35-1.389-.339-.463-1.151-.564v-.034q.304-.09.508-.192.214-.113.372-.305.158-.203.237-.53.09-.339.09-.847 0-1.174-.71-1.66-.712-.485-2.258-.485h-7.214zm2.506-3.24h4.493q.452 0 .677.147t.226.53q0 .34-.237.475-.226.124-.666.124h-4.493zm0-2.969H82.9q.36 0 .542.158.191.147.191.486t-.191.485q-.181.147-.542.147h-4.437zM87.95 269.586q0 1.535.813 2.269.824.734 2.54.734h3.59q1.716 0 2.529-.734.824-.734.824-2.27v-5.26H95.74v4.719q0 .779-.316 1.117-.316.328-1.084.328h-2.484q-.767 0-1.083-.328-.316-.338-.316-1.117v-4.719H87.95zM102.451 266.357h3.917q.632 0 .892.17.26.169.26.688v.271q0 .452-.215.655-.214.203-.711.203h-4.143zm-2.506 6.141h2.506v-2.122h3.94q.587 0 .801.248.226.249.226.892v.982h2.506v-1.388q0-.486-.101-.813-.102-.339-.294-.53-.18-.193-.418-.294-.237-.113-.553-.17v-.022q.824-.192 1.107-.655.293-.474.293-1.354v-.52q0-.576-.124-1.016-.113-.44-.395-.756-.271-.316-.745-.486t-1.186-.169h-7.563zM111.472 269.63q0 .881.237 1.468.249.576.7.904.463.316 1.106.451.655.136 1.558.136h3.014q1.242 0 1.93-.068.7-.057 1.175-.294.474-.237.7-.733.237-.497.237-1.366v-2.326h-5.622v1.693h3.116v.238q0 .282-.113.462-.102.181-.282.271-.181.09-.407.124t-.508.034h-2.675q-.497 0-.802-.067-.293-.08-.474-.26-.17-.18-.248-.508-.068-.327-.068-.87v-1.015q0-.542.068-.87.079-.327.248-.507.18-.181.474-.249.305-.079.802-.079h2.72q.678 0 .971.18.294.17.294.735h2.46v-.26q0-.666-.124-1.129-.112-.463-.451-.79-.327-.339-.982-.52-.644-.18-1.682-.18h-3.77q-.904 0-1.559.135-.643.125-1.106.452-.451.327-.7.914-.237.576-.237 1.457z" style="-inkscape-font-specification:&quot;Eurostile#2-Extended Bold&quot;"/>
    </g>
    <path fill="none" stroke="#1e9af5" stroke-width="1.587" d="M47.625 276.627h63.5" style="mix-blend-mode:lighten"/>
    <g fill="#fff" stroke-width=".265" aria-label="WELTBÜHNE" font-family="Helvetica" font-size="6.35" font-weight="700" letter-spacing="3.175" style="line-height:1.25;-inkscape-font-specification:&quot;Eurostile Bold&quot;;text-align:center;mix-blend-mode:lighten" text-anchor="middle" word-spacing="0">
      <path d="M46.794 257.267h1.014l.605 2.617.13.728.133-.713.515-2.632h1.007l.543 2.617.14.728.14-.7.61-2.645h.97l-1.286 4.57h-.912l-.552-2.673-.161-.883-.161.883-.552 2.673h-.887zM56.378 261.837v-4.57h3.352v.809H57.31v.97h2.22v.794h-2.22v1.175h2.53v.822zM63.767 261.837v-4.57h.955v3.748h2.263v.822zM69.97 258.076v-.81h3.703v.81h-1.367v3.761h-.962v-3.761zM77.425 261.837v-4.57h2.22q.84.012 1.19.486.211.292.211.698 0 .419-.21.673-.118.143-.348.26.35.128.527.403.18.276.18.67 0 .406-.205.729-.13.214-.325.36-.22.167-.521.229-.298.062-.648.062zm.911-.794h1.123q.3 0 .468-.08.304-.15.304-.57 0-.357-.295-.49-.164-.075-.462-.078h-1.138zm0-1.975h1.123q.3 0 .487-.111.189-.115.189-.404 0-.319-.248-.421-.214-.072-.546-.072h-1.005zM85.173 260.076v-2.81h.97v2.81q0 .471.112.688.174.385.757.385.58 0 .753-.385.112-.217.112-.688v-2.81h.97v2.81q0 .728-.226 1.135-.422.744-1.61.744-1.187 0-1.612-.744-.226-.407-.226-1.135m.812-3.234v-.735h.81v.735zm1.241 0v-.735h.809v.735zM92.93 261.837v-4.57h.946v1.742h1.786v-1.742h.95v4.57h-.95v-2.04h-1.786v2.04zM100.685 261.837v-4.57h1.002l1.82 3.19v-3.19h.89v4.57h-.955l-1.867-3.246v3.246zM108.493 261.837v-4.57h3.351v.809h-2.418v.97h2.22v.794h-2.22v1.175h2.53v.822z" style="-inkscape-font-specification:&quot;Helvetica Bold&quot;"/>
    </g>
    <g fill="#fff" stroke-width=".265" aria-label="1984" font-family="Helvetica" font-size="8.467" font-weight="700" letter-spacing="9.525" style="line-height:1.25;-inkscape-font-specification:&quot;Eurostile Bold&quot;;text-align:center;mix-blend-mode:lighten" text-anchor="middle" word-spacing="0">
      <path d="M56.098 281.244v-.802q.558-.025.781-.075.356-.078.579-.314.153-.16.232-.43.045-.16.045-.24h.98v5.995h-1.207v-4.134zM70 281.492q0-.963.555-1.559.558-.6 1.447-.6 1.368 0 1.877 1.212.29.686.29 1.807 0 1.087-.278 1.815-.53 1.385-1.943 1.385-.674 0-1.211-.397-.538-.401-.616-1.166h1.174q.041.265.223.43t.484.165q.583 0 .818-.645.129-.355.162-1.037-.162.202-.344.31-.33.198-.814.198-.715 0-1.27-.492-.553-.496-.553-1.426m1.196-.108q0 .534.215.802.219.265.67.265.243 0 .458-.14.401-.257.401-.89 0-.508-.24-.805-.235-.298-.649-.298-.301 0-.516.17-.34.264-.34.896M84.21 283.716q0-.504.227-.914.232-.409.674-.616-.434-.289-.566-.624-.128-.339-.128-.632 0-.653.492-1.112.491-.463 1.389-.463.897 0 1.389.463.492.459.492 1.112 0 .293-.133.632-.128.335-.562.583.442.248.666.657.223.41.223.914 0 .757-.562 1.29-.558.53-1.563.53t-1.521-.53q-.517-.533-.517-1.29m1.224-.078q0 .442.227.686.231.244.637.244.405 0 .632-.244.232-.244.232-.686 0-.46-.236-.695-.232-.24-.628-.24-.397 0-.633.24-.231.236-.231.695m.107-2.576q0 .327.198.533.203.207.559.207.36 0 .554-.207.198-.206.198-.533 0-.356-.198-.554-.195-.203-.554-.203-.356 0-.559.203-.198.198-.198.554M98.448 284.088v-1.03l2.203-3.637h1.323v3.745h.678v.922h-.678v1.29h-1.153v-1.29zm.872-.922h1.5v-2.588z" style="-inkscape-font-specification:&quot;Helvetica Bold&quot;"/>
    </g>
  </g>
</svg>
