<svg xmlns="http://www.w3.org/2000/svg" width="800" height="600" viewBox="0 0 211.667 158.75">
  <path fill="#002877" d="M0 0h211.667v158.75H0z" paint-order="markers fill stroke"/>
  <path fill="#fff" stroke="#fff" stroke-linejoin="round" stroke-width="10.583" d="M10.583 10.583h190.5v137.583h-190.5z" paint-order="stroke fill markers"/>
  <path fill="none" stroke="#60b4f3" stroke-linejoin="round" stroke-width="7.938" d="M10.583 10.583h190.5v137.583h-190.5z" paint-order="stroke fill markers"/>
  <path fill="#fff" stroke="#fff" stroke-linejoin="round" stroke-width="5.292" d="M10.583 10.583h190.5v137.583h-190.5z" paint-order="stroke fill markers"/>
  <path fill="#002877" d="M161.641 66.323s-.436 3.638-6.113 5.894c5.677 2.257 6.113 5.896 6.113 5.896 1.492-1.674 1.165-3.312 1.165-3.312s3.13 1.347 4.22-2.584c-1.09-3.93-4.22-2.583-4.22-2.583s.327-1.637-1.165-3.311m.141 4.61c1.247-.013 2.471.566 3.116 1.303-1.146 1.31-4.124 2.12-5.804 0 .735-.928 1.718-1.295 2.688-1.304" paint-order="stroke fill markers"/>
  <path fill="#002877" d="M156.096 51.049c-2.756.03-.789 4.362-.789 4.362s-4.663-1.07-5.236 4.749c2.238-3.066 10.143 1.026 1.966 11.2 13.857-4.72 12.407-20.401 4.059-20.311m1.535 4.413c.59-.311 1.441-.088 2.111 2.25.343 1.197.73 4.192-2.146 8.38.696-5.184-2.357-7.535-3.273-8.06 1.296-.78 3.033.873 3.033.873-.88-1.28-.438-3.066.275-3.443M156.096 93.386c-2.756-.03-.789-4.362-.789-4.362s-4.663 1.07-5.236-4.749c2.238 3.066 10.143-1.026 1.966-11.2 13.857 4.72 12.407 20.401 4.059 20.311m1.535-4.413c.59.311 1.441.088 2.111-2.25.343-1.197.73-4.192-2.146-8.38.696 5.184-2.357 7.535-3.273 8.06 1.296.78 3.033-.873 3.033-.873-.88 1.28-.438 3.066.275 3.443" paint-order="stroke fill markers"/>
  <g fill="#002877" stroke="#002877" stroke-width=".388" aria-label="PORTO" font-family="Aventine" font-size="24.807" font-weight="400" letter-spacing="4.651" style="line-height:1.25;-inkscape-font-specification:&quot;Eurostile Bold&quot;;text-align:center" text-anchor="middle" word-spacing="0">
    <path d="M75.15 209.92c1.588-1.316 1.44-4.739.596-6.079-.868-1.389-2.208-2.108-3.572-2.356-.472-.1-.943-.124-1.39-.174h-.024c-1.365-.099-3.076.124-4.64.1-.347 0-.446-.05-.47.074-.025.099.099.198.198.347.595.918.794 2.977.819 4.664.148 6.648.099 8.533.024 10.022-.024.794-.148 2.257-.818 2.753-.1.075-.124.224.099.224 2.158 0 4.564.025 4.564.025.174 0 .249-.125.1-.199-.596-.347-.893-1.836-.918-2.704 0-.695-.025-2.58-.05-5.333h1.017c2.258-.025 3.697-.745 4.466-1.365zm-5.482.669c-.025-3.597-.025-7.417.075-8.112.024-.149.074-.322.223-.422.1-.074.223-.099.322-.124h.05c.273 0 .67.1 1.017.323a3.7 3.7 0 0 1 1.588 1.81c.248.62.57 2.68.074 4.243-.198.595-.397 1.042-1.042 1.687-.372.347-1.34.62-2.307.595zM88.598 201.212c-3.97-.298-6.674 3.423-6.971 8.88-.199 3.772.868 6.798 2.952 8.41 1.885 1.464 4.217 1.266 5.631.62 2.53-1.165 3.97-4.415 4.068-8.111.174-5.235-1.91-9.501-5.68-9.8zm-.025 17.712c-1.886.075-3.076-3.498-3.572-8.186-.497-4.689.124-8.559 2.183-8.732 1.835-.174 2.877 2.232 3.423 5.606.124.819.248 1.687.298 2.605.397 4.664-.124 8.633-2.332 8.707zM112.503 220.71c-2.332-2.927-4.416-8.558-4.54-9.848-.024-.05-.05-.199.15-.223.793-.248 1.066-.521 1.463-.844.72-.57 1.067-1.563 1.166-2.63a7.4 7.4 0 0 0-.1-2.108c-.099-.52-.272-.992-.496-1.315a5.17 5.17 0 0 0-2.034-1.86 7 7 0 0 0-1.538-.496c-.471-.075-.918-.15-1.389-.174h-.025c-1.34-.1-1.91-.05-3.274.05-1.29.099-1.886-.075-1.836.124 0 .099.1.223.223.446.372.546.546 1.662.596 2.034.124.72.223 1.563.223 2.233.1 5.557.05 9.575-.025 10.915-.025.77-.347 1.761-.769 2.109-.174.124-.149.273.074.297 2.159 0 4.565.025 4.565.025.174 0 .223-.174.074-.223-.496-.372-.793-1.365-.868-2.233-.05-.67-.05-2.952-.074-5.656 0-.05 0-.124.05-.149.024-.05.347-.024.396 0 .05.05.1.15.124.199.819 2.332 1.737 4.44 3.15 6.177.695.942 2.978 2.803 4.243 3.2.471.174.496 0 .471-.05zm-5.135-12.354c-.174.521-.372.943-.992 1.538-.323.298-1.141.571-2.01.596-.173 0-.297-.124-.297-.273-.025-3.523-.025-7.17.074-7.84a.65.65 0 0 1 .223-.42c.1-.075.248-.1.323-.125h.05c.297 0 .67.1 1.016.323a4 4 0 0 1 1.613 1.81c.05.125.1.273.124.472.198.868.347 2.48-.074 3.77-.025.05-.025.1-.05.15zM129.034 205.479c-.075-.819-.224-3.126-.298-4.019-.05-.248-.124-.298-.298-.273-.298.05-.992.174-2.108.223-.298.025-.77.05-1.315.05h-.15c-1.612 0-4.29 0-5.233-.05a15 15 0 0 1-2.109-.223c-.174-.025-.273.025-.298.248-.099.893-.223 3.2-.322 4.044a19 19 0 0 1-.124 1.19c-.025.1.124.298.322-.05.174-.322 1.687-2.728 2.233-3.373.67-.794 1.141-1.215 1.612-1.215.521 0 .645.47.645 2.108 0 4.217.025 7.666.025 10.072-.025 1.091-.05 1.637-.074 2.282-.025.422-.05 1.092-.223 1.662.024 0 0 .025 0 .025-.125.447-.298.843-.596 1.042-.099.074-.124.223.1.223.818 0 1.661.025 2.406.025h.173c1.141 0 1.985.025 1.985.025.05 0 .074-.025.1-.025.098-.05.123-.124.024-.198-.248-.125-.447-.472-.57-.844v-.025c-.224-.595-.298-1.315-.298-1.81 0-.422 0-1.315-.025-2.556-.025-4.217 0-11.113.05-11.51a.7.7 0 0 1 .123-.323c.025-.025.05-.074.1-.099h.024c.025 0 .05-.025.1-.025h.024c.497 0 .918.372 1.588 1.166.546.645 2.06 3.051 2.233 3.374.198.347.347.174.322.074-.05-.347-.099-.893-.149-1.215zM141.458 201.212c-3.97-.298-6.673 3.423-6.97 8.88-.2 3.772.867 6.798 2.951 8.41 1.886 1.464 4.217 1.266 5.631.62 2.53-1.165 3.97-4.415 4.069-8.111.173-5.235-1.91-9.501-5.681-9.8zm-.025 17.712c-1.885.075-3.076-3.498-3.572-8.186-.496-4.689.124-8.559 2.183-8.732 1.836-.174 2.878 2.232 3.423 5.606.124.819.248 1.687.298 2.605.397 4.664-.124 8.633-2.332 8.707z" style="-inkscape-font-specification:Aventine" transform="translate(0 -138.25)"/>
  </g>
  <g fill="#002877" stroke="#002877" stroke-width=".465" aria-label="PALCO MUNDIAL" font-family="Aventine" font-size="14.894" font-weight="400" letter-spacing="2.793" style="line-height:1.25;-inkscape-font-specification:&quot;Eurostile Bold&quot;;text-align:center" text-anchor="middle" word-spacing="0">
    <path d="M49.65 273.04c.954-.789.864-2.844.358-3.648-.521-.834-1.326-1.266-2.145-1.415-.283-.06-.566-.075-.834-.105h-.015c-.819-.06-1.847.075-2.785.06-.209 0-.268-.03-.283.045-.015.06.06.119.12.208.357.551.476 1.788.49 2.8.09 3.992.06 5.124.016 6.018-.015.476-.09 1.355-.492 1.653-.06.045-.074.134.06.134 1.295 0 2.74.015 2.74.015.104 0 .15-.075.06-.12-.358-.208-.536-1.101-.551-1.623 0-.417-.015-1.549-.03-3.202h.61c1.356-.015 2.22-.447 2.681-.82zm-3.291.403c-.015-2.16-.015-4.453.045-4.87.014-.09.044-.194.134-.254.06-.044.134-.06.193-.074h.03c.164 0 .402.06.61.193.507.283.82.745.954 1.088.149.372.342 1.608.045 2.547-.12.357-.239.625-.626 1.012-.223.209-.804.373-1.385.358zM60.11 278.596c-.552-.283-1.37-3.008-1.58-3.619-.148-.372-2.501-7.209-2.501-7.209a.088.088 0 0 0-.164 0c-2.458 8.118-2.473 8.118-2.577 8.475-.626 2.07-1.102 2.324-1.177 2.368-.104.06-.09.164.03.164h1.713c.045 0 .09 0 .12-.015s.044-.06-.016-.09c-.03-.014-.521-.446-.179-1.98l.313-1.162a.21.21 0 0 1 .209-.149l2.264.015c.06 0 .119.045.134.09l.387 1.191c.477 1.579-.09 1.951-.09 1.951-.074.045-.044.15.045.15h3.054c.044 0 .104-.016.104-.075 0 0 .015-.075-.09-.105zm-3.68-3.619-2.055-.015c-.06 0-.104-.06-.09-.104l1.029-3.545c.06-.194.104-.104.119 0l1.087 3.545c.015.06-.03.119-.09.119zM69.6 275.513c-.014-.074-.059-.104-.104-.09-.06 0-.134.09-.178.165-.402.566-1.102 1.727-1.922 2.323-.595.417-.968.447-1.236.387-.238-.06-.342-.268-.357-.566 0-.417-.03-4.691-.045-6.166.015-1.072.015-1.43.03-1.817.03-.849.149-1.385.357-1.683.045-.06.06-.149-.074-.164-1.326 0-2.458-.015-2.458-.015-.104 0-.074.134 0 .179.253.164.313 1.475.343 2.204v1.311c.03 3.009.015 4.051 0 4.811-.03 1.087-.15 1.892-.402 2.19-.06.059-.06.163.074.163h3.634s1.534-.015 1.817.075c.15.044.18-.015.18-.075-.046-.968.118-2.16.267-2.949.03-.104.075-.223.075-.283zM78.697 268.424h-.03s-1.46-.894-2.8-.566c-2.785.685-3.217 5.019-3.143 6.39.06 1.206.343 2.353.864 3.127.521.804 1.415 1.52 2.92 1.52.878 0 1.727-.418 2.04-.745.045-.06.09-.135-.045-.12-.104.015-1.042.075-1.95-.461-2.563-1.475-2.34-6.792-1.416-8.639.194-.387.521-.715.983-.67 1.132.104 1.743 2.19 1.877 2.576.03.12.06.209.074.239.03.06.134.06.15-.015.044-.12.133-.64.238-1.281.044-.253.089-.492.193-.924.015-.104.03-.193.06-.283.015-.074 0-.134-.015-.148zM86.087 267.813c-2.383-.179-4.006 2.055-4.185 5.332-.12 2.264.521 4.081 1.772 5.05 1.132.878 2.532.759 3.381.372 1.52-.7 2.384-2.652 2.443-4.87.104-3.144-1.147-5.705-3.41-5.884zm-.015 10.634c-1.132.045-1.846-2.1-2.144-4.915s.074-5.138 1.31-5.243c1.102-.104 1.728 1.341 2.056 3.367.074.491.149 1.012.178 1.564.239 2.8-.074 5.183-1.4 5.227zM108.945 278.611c-.536-.521-.551-1.325-.596-2.264-.03-.506-.06-5.69-.03-6.36.06-.968.209-1.757.566-1.966.045-.03.06-.134-.015-.149h-2.591c-.134 0-.179.09-.179.12-.357 1.191-1.4 5.213-2.13 7.417-.015.06-.09.06-.119 0-.938-2.815-2.443-7.417-2.443-7.417-.015-.015-.044-.12-.178-.12h-2.622c-.09.015-.09.135-.015.164.105.045.596.611.715 1.639.075.67.06 6.39 0 6.896-.06.521-.104 1.49-.625 2.055-.06.075-.09.179 0 .164.06 0 1.385-.03 1.876-.015.134-.015.105-.074.06-.134-.253-.268-.506-.626-.596-1.996-.06-.7-.06-6.166-.06-6.166v-.82c0-.044.045-.059.06-.029.268.64 2.74 8.192 3.203 9.577.03.075.134.075.148 0 .82-2.532 2.711-8.951 2.92-9.592.015-.03.074-.015.074.015v.82s.06 5.063.045 5.868c-.03.893-.075 1.727-.521 2.308-.06.06-.075.134.06.134.357 0 2.487 0 2.963.015.104 0 .09-.104.03-.164zM119.194 267.932c-.015-.015-.045-.03-.104-.03-.73 0-1.802-.015-1.802-.015-.06 0-.075.03-.09.06s-.015.074.03.09c.179.104.313.387.417.759.149.566.209 1.862.209 2.517 0 .134.014 1.624.03 2.487 0 0-.045 1.683-.09 2.354-.06.864-.655 1.727-1.55 1.727-.893 0-1.533-.863-1.533-1.727l-.015-.283v-2.294c0-.238 0-.67.015-1.057v-.105c.015-.387.015-.76.015-.908 0-.67.015-1.222.015-1.624.015-.06.015-.119.015-.164v-.134q.022-.313.044-.58v-.03c.06-.388.12-.7.253-.924.045-.06.075-.134-.06-.149h-1.623c-.342 0-.625-.015-.849-.015h-.015c-.089.015-.089.12-.014.18.074.059.134.163.208.342.12.342.209.893.238 1.772v.03c.015.328.015.7.015 1.117v1.117c0 1.087-.015 2.279-.015 2.95v.729c0 1.504 1.058 2.74 2.786 2.74s2.8-1.236 2.8-2.74v-3.039c.015-1.414.015-2.144.015-2.502.03-.357.074-1.236.149-1.549.104-.447.253-.804.476-.953.045-.045.075-.104.03-.149zM129.844 267.902h-1.817c-.09 0-.12.105-.045.15.462.252.61 1.697.625 2.8l.015 3.47c0 .044-.044.06-.06.015-1.489-2.652-3.931-6.316-3.931-6.316-.015-.03-.06-.119-.18-.119h-1.22c-.18.015-.358.015-.477.015l-.194-.015c-.074.03-.06.134 0 .164.12.03.581.596.656 1.46.06.685.044 5.913.015 6.42-.045 1.042-.12 2.278-.64 2.665-.075.045-.075.15.014.15.983-.03 1.192-.016 1.892 0 .119-.016.104-.15.03-.194-.537-.343-.552-1.594-.626-2.592-.045-.7 0-4.528 0-4.528v-.82c0-.029.06-.044.074-.014.581.968 4.96 8.103 5.08 8.311.133.194.208.149.193-.03-.015-.164-.03-5.69-.03-5.69s.015-2.025.03-2.278c.045-1.192.179-2.517.655-2.86.09-.045.075-.164-.06-.164zM140.097 271c-.715-1.608-1.758-2.562-3.173-2.949-.67-.179-2.666-.164-2.666-.164-.64.015-.64.09-.64.15-.03.148.312.014.402 1.176.03.521.044 1.191.074 1.713.09 2.204.104 3.574.075 5.034-.03 1.236-.12 2.145-.462 2.577-.164.134-.104.238.03.238h2.383c1.832.015 3.009-.357 3.783-1.296 1.266-1.608.938-4.766.194-6.479zm-1.624 4.692c-.149.7-.313 1.221-.82 1.966-.282.432-.878.745-1.295.655-.238-.044-.328-.253-.342-.55-.03-.984-.12-8.446-.015-9.22.03-.164.238-.164.432-.134.223.03 1.28.298 1.891 2.338.283.909.521 3.113.15 4.945zM146.5 276.362v-.09c-.015-.58-.03-3.038-.015-5.287 0-.238.014-.476.014-.67.03-.968.075-1.817.328-2.264.045-.074.075-.149-.06-.149h-.416c-.715 0-1.356 0-1.713-.015h-.343c-.104 0-.104.12-.03.164.239.224.417.894.462 2.458 0 .09.015.268.015.476.015 1.817 0 3.739 0 4.677 0 .238-.015.402-.015.492-.045 1.564-.223 2.234-.462 2.442-.074.075-.074.179.03.179h.343c.357 0 .998-.015 1.713-.015h.417c.134-.015.104-.09.06-.149-.254-.462-.299-1.296-.328-2.249zM158.232 278.596c-.552-.283-1.37-3.008-1.58-3.619-.148-.372-2.501-7.209-2.501-7.209a.088.088 0 0 0-.164 0c-2.458 8.118-2.473 8.118-2.577 8.475-.626 2.07-1.102 2.324-1.177 2.368-.104.06-.09.164.03.164h1.713c.045 0 .09 0 .12-.015s.044-.06-.016-.09c-.03-.014-.521-.446-.179-1.98l.313-1.162a.21.21 0 0 1 .209-.149l2.264.015c.06 0 .119.045.134.09l.387 1.191c.477 1.579-.09 1.951-.09 1.951-.074.045-.044.15.045.15h3.054c.044 0 .104-.016.104-.075 0 0 .015-.075-.09-.105zm-3.68-3.619-2.055-.015c-.06 0-.104-.06-.09-.104l1.029-3.545c.06-.194.104-.104.119 0l1.087 3.545c.015.06-.03.119-.09.119zM167.723 275.513c-.015-.074-.06-.104-.105-.09-.06 0-.134.09-.178.165-.402.566-1.102 1.727-1.922 2.323-.595.417-.968.447-1.236.387-.238-.06-.342-.268-.357-.566 0-.417-.03-4.691-.045-6.166.015-1.072.015-1.43.03-1.817.03-.849.149-1.385.357-1.683.045-.06.06-.149-.074-.164-1.326 0-2.458-.015-2.458-.015-.104 0-.074.134 0 .179.253.164.313 1.475.343 2.204v1.311c.03 3.009.015 4.051 0 4.811-.03 1.087-.15 1.892-.402 2.19-.06.059-.06.163.074.163h3.634s1.534-.015 1.817.075c.15.044.18-.015.18-.075-.046-.968.118-2.16.267-2.949.03-.104.075-.223.075-.283z" style="-inkscape-font-specification:Aventine" transform="translate(0 -138.25)"/>
  </g>
  <path fill="#002877" d="M50.025 66.323s.437 3.638 6.114 5.894c-5.677 2.257-6.114 5.896-6.114 5.896-1.492-1.674-1.164-3.312-1.164-3.312s-3.13 1.347-4.221-2.584c1.092-3.93 4.221-2.583 4.221-2.583s-.328-1.637 1.164-3.311m-.14 4.61c-1.247-.013-2.472.566-3.116 1.303 1.146 1.31 4.124 2.12 5.804 0-.735-.928-1.719-1.295-2.688-1.304" paint-order="stroke fill markers"/>
  <path fill="#002877" d="M55.571 51.049c2.756.03.789 4.362.789 4.362s4.663-1.07 5.236 4.749c-2.238-3.066-10.143 1.026-1.966 11.2-13.857-4.72-12.407-20.401-4.059-20.311m-1.535 4.413c-.59-.311-1.442-.088-2.111 2.25-.343 1.197-.73 4.192 2.146 8.38-.696-5.184 2.357-7.535 3.273-8.06-1.296-.78-3.033.873-3.033.873.88-1.28.438-3.066-.275-3.443M55.571 93.386c2.756-.03.789-4.362.789-4.362s4.663 1.07 5.236-4.749c-2.238 3.066-10.143-1.026-1.966-11.2-13.857 4.72-12.407 20.401-4.059 20.311m-1.535-4.413c-.59.311-1.442.088-2.111-2.25-.343-1.197-.73-4.192 2.146-8.38-.696 5.184 2.357 7.535 3.273 8.06-1.296.78-3.033-.873-3.033-.873.88 1.28.438 3.066-.275 3.443" paint-order="stroke fill markers"/>
  <g stroke-width="2.058">
    <path fill="#60b4f3" stroke="#002877" stroke-linejoin="round" d="M325.768 386.162c-1.527-.041-2.826.716-3.013 1.753 2.922 1.035 2.252 3.48 1.682 5.033-.838 2.283-1.83 2.69-3.077 3.729-15.171 12.638-3.94 38.7 19.898 38.7 23.837 0 35.069-26.062 19.897-38.7-1.247-1.04-2.24-1.446-3.077-3.729-.57-1.553-1.24-3.998 1.682-5.033-.399-2.212-5.858-3.15-7.79 2.218-3.525-5.368-8.435-.726-8.435-.726s.167 6.354 6.44 5.944c-3.29 4.036 2.205 8.15 3.909 6.593-.45-2.618.041-3.006.742-3.481.683-.462 1.678.432 2.45.71 12.313 4.412 10.158 30.89-15.818 32.229-25.977-1.34-28.132-27.817-15.82-32.23.774-.277 1.769-1.17 2.451-.709.701.475 1.191.863.742 3.481 1.704 1.557 7.2-2.557 3.909-6.593 6.273.41 6.44-5.944 6.44-5.944s-4.91-4.642-8.434.726c-1.027-2.852-3.048-3.924-4.778-3.971z" paint-order="stroke fill markers" transform="matrix(.77126 0 0 .77146 -134.466 -213.869)"/>
    <path fill="#60b4f3" stroke="#002877" stroke-linejoin="round" d="M341.258 428.557c-2.186-.043-6.044-2.057-6.044-6.943 0 0-7.898-.113-9.093-8.73 10.252 4.969 15.137-8.471 15.137-8.471s4.884 13.44 15.136 8.471c-1.195 8.617-9.093 8.73-9.093 8.73 0 4.886-3.857 6.9-6.043 6.943z" paint-order="stroke fill markers" transform="matrix(.77126 0 0 .77146 -134.466 -213.869)"/>
    <path fill="#002877" stroke="#002877" stroke-linejoin="round" stroke-width=".686" d="M341.258 423.876c-3.048-.037-3.829-5.575-3.829-5.575-3.54 1.475-5.873-2.788-5.873-2.788 2.64.372 8.252.149 9.702-7.323 1.45 7.472 7.062 7.695 9.701 7.323 0 0-2.379 4.684-5.873 2.788 0 0-.78 5.538-3.828 5.575z" paint-order="stroke fill markers" transform="matrix(.77126 0 0 .77146 -134.466 -213.869)"/>
    <path fill="#60b4f3" stroke="#002877" stroke-linejoin="round" d="M478.3 389.514c-1.823 4.199-7.417 6.98-11.434 4.31.114 9.569 10.018 4.007 11.433-4.31z" paint-order="stroke fill markers" transform="matrix(.77126 0 0 .77146 -243.017 -205.452)"/>
    <path fill="#60b4f3" stroke="#002877" stroke-linejoin="round" stroke-width="1.587" d="M478.3 389.514c-1.823 4.199-7.417 6.98-11.434 4.31.114 9.569 10.018 4.007 11.433-4.31z" paint-order="stroke fill markers" transform="matrix(-.77126 0 0 .77146 500.483 -205.452)"/>
  </g>
  <g stroke-width="2.058">
    <path fill="#60b4f3" stroke="#002877" stroke-linejoin="round" d="M325.768 386.162c-1.527-.041-2.826.716-3.013 1.753 2.922 1.035 2.252 3.48 1.682 5.033-.838 2.283-1.83 2.69-3.077 3.729-15.171 12.638-3.94 38.7 19.898 38.7 23.837 0 35.069-26.062 19.897-38.7-1.247-1.04-2.24-1.446-3.077-3.729-.57-1.553-1.24-3.998 1.682-5.033-.399-2.212-5.858-3.15-7.79 2.218-3.525-5.368-8.435-.726-8.435-.726s.167 6.354 6.44 5.944c-3.29 4.036 2.205 8.15 3.909 6.593-.45-2.618.041-3.006.742-3.481.683-.462 1.678.432 2.45.71 12.313 4.412 10.158 30.89-15.818 32.229-25.977-1.34-28.132-27.817-15.82-32.23.774-.277 1.769-1.17 2.451-.709.701.475 1.191.863.742 3.481 1.704 1.557 7.2-2.557 3.909-6.593 6.273.41 6.44-5.944 6.44-5.944s-4.91-4.642-8.434.726c-1.027-2.852-3.048-3.924-4.778-3.971z" paint-order="stroke fill markers" transform="matrix(-.77126 0 0 .77146 346.132 -213.869)"/>
    <path fill="#60b4f3" stroke="#002877" stroke-linejoin="round" d="M341.258 428.557c-2.186-.043-6.044-2.057-6.044-6.943 0 0-7.898-.113-9.093-8.73 10.252 4.969 15.137-8.471 15.137-8.471s4.884 13.44 15.136 8.471c-1.195 8.617-9.093 8.73-9.093 8.73 0 4.886-3.857 6.9-6.043 6.943z" paint-order="stroke fill markers" transform="matrix(-.77126 0 0 .77146 346.132 -213.869)"/>
    <path fill="#002877" stroke="#002877" stroke-linejoin="round" stroke-width=".686" d="M341.258 423.876c-3.048-.037-3.829-5.575-3.829-5.575-3.54 1.475-5.873-2.788-5.873-2.788 2.64.372 8.252.149 9.702-7.323 1.45 7.472 7.062 7.695 9.701 7.323 0 0-2.379 4.684-5.873 2.788 0 0-.78 5.538-3.828 5.575z" paint-order="stroke fill markers" transform="matrix(-.77126 0 0 .77146 346.132 -213.869)"/>
    <path fill="#60b4f3" stroke="#002877" stroke-linejoin="round" d="M478.3 389.514c-1.823 4.199-7.417 6.98-11.434 4.31.114 9.569 10.018 4.007 11.433-4.31z" paint-order="stroke fill markers" transform="matrix(-.77126 0 0 .77146 454.684 -205.452)"/>
    <path fill="#60b4f3" stroke="#002877" stroke-linejoin="round" stroke-width="1.587" d="M478.3 389.514c-1.823 4.199-7.417 6.98-11.434 4.31.114 9.569 10.018 4.007 11.433-4.31z" paint-order="stroke fill markers" transform="matrix(.77126 0 0 .77146 -288.817 -205.452)"/>
  </g>
  <g stroke-width="2.058">
    <path fill="#60b4f3" stroke="#002877" stroke-linejoin="round" d="M325.768 386.162c-1.527-.041-2.826.716-3.013 1.753 2.922 1.035 2.252 3.48 1.682 5.033-.838 2.283-1.83 2.69-3.077 3.729-15.171 12.638-3.94 38.7 19.898 38.7 23.837 0 35.069-26.062 19.897-38.7-1.247-1.04-2.24-1.446-3.077-3.729-.57-1.553-1.24-3.998 1.682-5.033-.399-2.212-5.858-3.15-7.79 2.218-3.525-5.368-8.435-.726-8.435-.726s.167 6.354 6.44 5.944c-3.29 4.036 2.205 8.15 3.909 6.593-.45-2.618.041-3.006.742-3.481.683-.462 1.678.432 2.45.71 12.313 4.412 10.158 30.89-15.818 32.229-25.977-1.34-28.132-27.817-15.82-32.23.774-.277 1.769-1.17 2.451-.709.701.475 1.191.863.742 3.481 1.704 1.557 7.2-2.557 3.909-6.593 6.273.41 6.44-5.944 6.44-5.944s-4.91-4.642-8.434.726c-1.027-2.852-3.048-3.924-4.778-3.971z" paint-order="stroke fill markers" transform="matrix(-.77126 0 0 -.77146 346.132 358.304)"/>
    <path fill="#60b4f3" stroke="#002877" stroke-linejoin="round" d="M341.258 428.557c-2.186-.043-6.044-2.057-6.044-6.943 0 0-7.898-.113-9.093-8.73 10.252 4.969 15.137-8.471 15.137-8.471s4.884 13.44 15.136 8.471c-1.195 8.617-9.093 8.73-9.093 8.73 0 4.886-3.857 6.9-6.043 6.943z" paint-order="stroke fill markers" transform="matrix(-.77126 0 0 -.77146 346.132 358.304)"/>
    <path fill="#002877" stroke="#002877" stroke-linejoin="round" stroke-width=".686" d="M341.258 423.876c-3.048-.037-3.829-5.575-3.829-5.575-3.54 1.475-5.873-2.788-5.873-2.788 2.64.372 8.252.149 9.702-7.323 1.45 7.472 7.062 7.695 9.701 7.323 0 0-2.379 4.684-5.873 2.788 0 0-.78 5.538-3.828 5.575z" paint-order="stroke fill markers" transform="matrix(-.77126 0 0 -.77146 346.132 358.304)"/>
    <path fill="#60b4f3" stroke="#002877" stroke-linejoin="round" d="M478.3 389.514c-1.823 4.199-7.417 6.98-11.434 4.31.114 9.569 10.018 4.007 11.433-4.31z" paint-order="stroke fill markers" transform="matrix(-.77126 0 0 -.77146 454.684 349.887)"/>
    <path fill="#60b4f3" stroke="#002877" stroke-linejoin="round" stroke-width="1.587" d="M478.3 389.514c-1.823 4.199-7.417 6.98-11.434 4.31.114 9.569 10.018 4.007 11.433-4.31z" paint-order="stroke fill markers" transform="matrix(.77126 0 0 -.77146 -288.817 349.887)"/>
  </g>
  <g stroke-width="2.058">
    <path fill="#60b4f3" stroke="#002877" stroke-linejoin="round" d="M325.768 386.162c-1.527-.041-2.826.716-3.013 1.753 2.922 1.035 2.252 3.48 1.682 5.033-.838 2.283-1.83 2.69-3.077 3.729-15.171 12.638-3.94 38.7 19.898 38.7 23.837 0 35.069-26.062 19.897-38.7-1.247-1.04-2.24-1.446-3.077-3.729-.57-1.553-1.24-3.998 1.682-5.033-.399-2.212-5.858-3.15-7.79 2.218-3.525-5.368-8.435-.726-8.435-.726s.167 6.354 6.44 5.944c-3.29 4.036 2.205 8.15 3.909 6.593-.45-2.618.041-3.006.742-3.481.683-.462 1.678.432 2.45.71 12.313 4.412 10.158 30.89-15.818 32.229-25.977-1.34-28.132-27.817-15.82-32.23.774-.277 1.769-1.17 2.451-.709.701.475 1.191.863.742 3.481 1.704 1.557 7.2-2.557 3.909-6.593 6.273.41 6.44-5.944 6.44-5.944s-4.91-4.642-8.434.726c-1.027-2.852-3.048-3.924-4.778-3.971z" paint-order="stroke fill markers" transform="matrix(.77126 0 0 -.77146 -134.466 358.304)"/>
    <path fill="#60b4f3" stroke="#002877" stroke-linejoin="round" d="M341.258 428.557c-2.186-.043-6.044-2.057-6.044-6.943 0 0-7.898-.113-9.093-8.73 10.252 4.969 15.137-8.471 15.137-8.471s4.884 13.44 15.136 8.471c-1.195 8.617-9.093 8.73-9.093 8.73 0 4.886-3.857 6.9-6.043 6.943z" paint-order="stroke fill markers" transform="matrix(.77126 0 0 -.77146 -134.466 358.304)"/>
    <path fill="#002877" stroke="#002877" stroke-linejoin="round" stroke-width=".686" d="M341.258 423.876c-3.048-.037-3.829-5.575-3.829-5.575-3.54 1.475-5.873-2.788-5.873-2.788 2.64.372 8.252.149 9.702-7.323 1.45 7.472 7.062 7.695 9.701 7.323 0 0-2.379 4.684-5.873 2.788 0 0-.78 5.538-3.828 5.575z" paint-order="stroke fill markers" transform="matrix(.77126 0 0 -.77146 -134.466 358.304)"/>
    <path fill="#60b4f3" stroke="#002877" stroke-linejoin="round" d="M478.3 389.514c-1.823 4.199-7.417 6.98-11.434 4.31.114 9.569 10.018 4.007 11.433-4.31z" paint-order="stroke fill markers" transform="matrix(.77126 0 0 -.77146 -243.017 349.887)"/>
    <path fill="#60b4f3" stroke="#002877" stroke-linejoin="round" stroke-width="1.587" d="M478.3 389.514c-1.823 4.199-7.417 6.98-11.434 4.31.114 9.569 10.018 4.007 11.433-4.31z" paint-order="stroke fill markers" transform="matrix(-.77126 0 0 -.77146 500.483 349.887)"/>
  </g>
</svg>
