<svg xmlns="http://www.w3.org/2000/svg" width="640" height="480" viewBox="0 0 169.333 127">
  <g transform="translate(0 -138.25)">
    <path fill="#0059e8" d="M0 138.25h169.333v127H0z" paint-order="markers fill stroke"/>
    <path fill="#fcc900" d="M0 214.979h142.875v21.167H0z"/>
    <path fill="#cd3706" d="m127 138.25 21.167 21.167 21.166-21.167z"/>
    <path fill="#fff" d="m84.667 138.25 21.166 21.167L127 138.25Z"/>
    <path fill="#d6063d" d="M42.333 138.25 63.5 159.417l21.167-21.167Z"/>
    <path fill="#fb0" d="m0 138.25 21.167 21.167 21.166-21.167z"/>
    <path fill="#cd3706" d="m42.333 265.25-21.166-21.167L0 265.25Z"/>
    <path fill="#fff" d="M84.667 265.25 63.5 244.083 42.333 265.25Z"/>
    <path fill="#d6063d" d="m127 265.25-21.167-21.167-21.166 21.167Z"/>
    <path fill="#fb0" d="m169.333 265.25-21.166-21.167L127 265.25Z"/>
    <rect width="137.583" height="21.167" y="209.687" fill="#d6063d" ry="0"/>
    <path fill="#046b05" d="M26.458 172.646h142.875v31.75H26.458z"/>
    <rect width="137.583" height="31.75" x="31.75" y="167.354" fill="#fcc900" ry="0"/>
    <g fill="#fff" stroke-width=".265" aria-label="VERDENFESTIVAL" font-family="Vollkorn" font-size="14.111" font-weight="700" letter-spacing="0" style="line-height:1.25;-inkscape-font-specification:&quot;Noto Sans Bold&quot;;text-align:center" text-anchor="middle" word-spacing="0">
      <path d="M15.17 215.501q.903 0 1.411-.042 0 .466-.113.875-.38.085-.635.423-.24.325-.55 1.115-1.171 3.034-2.92 7.183-.297.098-.96.098Q9.823 220.92 8.51 218q-.325-.734-.494-1.044-.17-.31-.325-.438-.155-.14-.395-.183-.113-.339-.084-.875.635.042 2.032.042 1.354 0 2.088-.042 0 .452-.085.875-.395.042-.564.155-.17.099-.17.339 0 .296.297.973 1.058 2.583 1.707 4.6 1.045-2.412 1.849-4.698.141-.424.141-.664 0-.606-.677-.705-.1-.339-.085-.875.522.042 1.425.042M24.191 222.317q.776.113 1.072.41-.282.86-.437 2.342-1.411-.029-3.387-.029-2.046 0-4.035.043 0-.565.084-.875.395-.028.593-.141.212-.127.282-.424.085-.31.085-.931v-4.967q0-.579-.085-.847-.07-.282-.268-.395-.198-.127-.607-.17-.084-.267-.084-.874 1.1.042 3.175.042 2.878 0 3.88-.042.028.593.099 1.27.085.677.197 1.115-.423.211-1.072.211-.127-.818-.579-1.27-.451-.451-1.538-.451h-.973v3.5h.409q.762 0 1.03-.212.282-.226.296-.847.424-.141 1.002-.141-.056.931-.056 1.609 0 .776.056 1.65-.649 0-.973-.112-.057-.635-.34-.861-.281-.226-1.015-.226h-.41v1.976q0 .606.1.931.112.31.352.437.254.127.734.127h.17q.705 0 1.128-.183.424-.198.663-.579.24-.395.452-1.086M33.87 223.037q.382.663.636.874.268.212.832.254 0 .494-.113.875-1.933 0-2.737.127-.395-.733-.819-1.721l-.155-.353q-.325-.734-.607-1.157-.282-.438-.734-.86l-.366.013-.367-.014v1.623q0 .635.07.945t.24.424.494.14q.085.227.085.876-.847-.043-2.117-.043-1.157 0-1.961.043 0-.537.084-.875.395-.028.593-.141.197-.127.282-.41.085-.296.085-.874v-5.052q0-.579-.085-.861-.07-.282-.268-.395t-.607-.155q-.084-.283-.084-.861 1.312.042 2.088.042.254 0 1.044-.028.988-.028 1.637-.028 1.637 0 2.47.705.846.706.846 1.82 0 1.101-.592 1.821-.593.706-1.595.96.508.324.818.762.325.423.904 1.524m-3.908-2.837q.903 0 1.51-.508.606-.508.606-1.467 0-.903-.465-1.397-.466-.508-1.369-.508-.452 0-.804.113v3.71q.296.057.522.057M40.25 215.473q2.357 0 3.782.974 1.425.96 1.425 3.584 0 2.088-.917 3.203-.917 1.1-2.088 1.454-1.157.352-2.244.352-2.046 0-4.036.043 0-.565.085-.875.395-.028.593-.141.211-.127.282-.424.085-.31.085-.931v-4.967q0-.579-.085-.847-.07-.282-.268-.395-.198-.127-.607-.17-.085-.338-.085-.874.847.042 2.512.042.452 0 .692-.014zm.297 8.692q1.157 0 1.919-.818.762-.833.762-3.076 0-2.103-.875-3.034-.86-.931-2.201-.931-.48 0-.776.127v6.237q0 .606.098.931.1.31.34.437.253.127.733.127M53.323 222.317q.776.113 1.072.41-.282.86-.437 2.342-1.411-.029-3.387-.029-2.046 0-4.036.043 0-.565.085-.875.395-.028.593-.141.211-.127.282-.424.084-.31.084-.931v-4.967q0-.579-.084-.847-.07-.282-.268-.395-.198-.127-.607-.17-.085-.267-.085-.874 1.1.042 3.175.042 2.879 0 3.88-.042.029.593.1 1.27.084.677.197 1.115-.423.211-1.072.211-.127-.818-.579-1.27-.451-.451-1.538-.451h-.974v3.5h.41q.762 0 1.03-.212.282-.226.296-.847.423-.141 1.002-.141-.057.931-.057 1.609 0 .776.057 1.65-.65 0-.974-.112-.056-.635-.338-.861t-1.016-.226h-.41v1.976q0 .606.1.931.112.31.352.437.254.127.734.127h.169q.706 0 1.129-.183.423-.198.663-.579.24-.395.452-1.086M63.101 215.501q.903 0 1.425-.042 0 .536-.084.875-.353.028-.537.197-.183.17-.254.593-.07.41-.07 1.228v6.688q-.381.113-.988.113l-5.263-6.999v4.008q0 .818.084 1.242.085.423.297.606.225.17.663.198.099.282.099.875-.607-.043-1.58-.043-1.102 0-1.638.043 0-.593.099-.875.423-.028.65-.212.225-.183.324-.607.098-.423.098-1.227v-5.221l-.14-.184q-.156-.211-.34-.296-.183-.085-.592-.127-.099-.353-.099-.875.508.042 1.51.042.988 0 1.312-.042l4.587 6.195v-3.302q0-.819-.085-1.228t-.325-.578q-.225-.17-.691-.212-.085-.395-.085-.875.621.042 1.623.042M68.796 216.334v3.909h.678q.762 0 1.044-.226t.296-.847q.41-.14.988-.14-.042.69-.042 1.608 0 .987.042 1.665-.607 0-.96-.113-.056-.65-.338-.875-.282-.226-1.03-.226h-.678v1.482q0 .62.127.96.141.338.438.493.31.141.86.184.1.282.1.875-.734-.043-2.287-.043-1.65 0-2.427.043 0-.621.085-.875.395-.028.593-.141.197-.127.282-.41.084-.296.084-.874v-5.038q0-.579-.084-.847-.07-.282-.268-.395-.184-.127-.593-.17-.099-.31-.099-.874 1.143.042 3.161.042 2.963 0 3.937-.042.099 1.58.296 2.385-.395.211-1.072.211-.113-.818-.564-1.27-.452-.451-1.539-.451zM80.746 222.317q.776.113 1.072.41-.282.86-.437 2.342-1.412-.029-3.387-.029-2.046 0-4.036.043 0-.565.085-.875.395-.028.593-.141.211-.127.282-.424.084-.31.084-.931v-4.967q0-.579-.084-.847-.07-.282-.268-.395-.198-.127-.607-.17-.085-.267-.085-.874 1.1.042 3.175.042 2.879 0 3.88-.042.029.593.1 1.27.084.677.197 1.115-.423.211-1.072.211-.127-.818-.579-1.27-.452-.451-1.538-.451h-.974v3.5h.41q.761 0 1.03-.212.282-.226.296-.847.423-.141 1.002-.141-.057.931-.057 1.609 0 .776.057 1.65-.65 0-.974-.112-.056-.635-.339-.861-.282-.226-1.016-.226h-.409v1.976q0 .606.1.931.112.31.352.437.254.127.734.127h.169q.705 0 1.129-.183.423-.198.663-.579.24-.395.452-1.086M86.065 225.167q-.89 0-1.665-.211-.762-.212-1.538-.635.169-.875.169-2.216.494-.14 1.298-.14.07 1.24.452 1.749.395.508 1.326.508.79 0 1.171-.325.381-.338.381-.846 0-.395-.24-.678-.225-.296-.592-.494-.353-.211-.988-.508-.889-.409-1.453-.762-.55-.366-.946-.973t-.395-1.51q0-1.355.875-2.046.875-.706 2.3-.706.762 0 1.51.184.762.183 1.157.437 0 1.34.099 2.018-.226.113-.579.17-.338.056-.677.056-.198-1.115-.593-1.538-.38-.424-1.03-.424-.593 0-.945.283-.353.268-.353.79 0 .423.254.748.268.31.65.536.394.226 1.071.536.904.423 1.468.776t.96.946q.395.592.395 1.453 0 1.27-.918 2.046-.903.776-2.624.776M98.402 215.459q-.028 1.1.226 2.498-.423.183-1.129.183-.113-.931-.48-1.355t-1.115-.423h-.493v6.42q0 .593.098.875.1.283.353.41.254.113.804.14.113.269.113.876-.818-.043-2.342-.043-1.778 0-2.639.043 0-.494.127-.875.55-.028.819-.141.282-.127.395-.41.113-.296.113-.874v-6.42h-.325q-.833 0-1.2.422-.366.41-.578 1.355-.762 0-1.115-.183.127-.607.212-1.285t.085-1.213q1.016.042 4.05.042 2.525 0 4.021-.042M100.248 217.745q0-.579-.085-.847-.07-.282-.268-.395-.183-.127-.592-.17-.1-.31-.1-.874.72.042 2.16.042 1.227 0 2.074-.042 0 .24-.014.466-.014.225-.085.409-.395.042-.592.155-.198.113-.283.395-.07.282-.07.86v5.039q0 .578.085.874.084.283.282.41.197.113.592.14.085.297.085.876-.72-.043-2.004-.043-1.354 0-2.23.043 0-.508.1-.875.395-.028.592-.141.198-.127.268-.41.085-.296.085-.874zM112.24 215.501q.902 0 1.41-.042 0 .466-.113.875-.38.085-.635.423-.24.325-.55 1.115-1.171 3.034-2.921 7.183-.296.098-.96.098-1.58-4.233-2.892-7.154-.325-.734-.494-1.044-.17-.31-.325-.438-.155-.14-.395-.183-.113-.339-.085-.875.635.042 2.032.042 1.355 0 2.089-.042 0 .452-.085.875-.395.042-.564.155-.17.099-.17.339 0 .296.297.973 1.058 2.583 1.707 4.6 1.044-2.412 1.849-4.698.14-.424.14-.664 0-.606-.676-.705-.1-.339-.085-.875.522.042 1.425.042M121.7 224.208q.113.38.113.875-.677-.043-1.947-.043-1.454 0-2.089.043 0-.565.099-.875.339-.07.494-.17.155-.112.155-.31 0-.17-.183-.607l-.325-.762q-1.877 0-3.443.1l-.184.465q-.14.395-.14.62 0 .58.677.664.098.339.098.875-.48-.043-1.51-.043-.874 0-1.27.043 0-.522.113-.875.353-.057.565-.339.226-.296.564-1.129l2.964-7.253q.197-.042.395-.056.211-.014.451-.014l3.232 7.239q.296.663.465.973.184.31.34.438.154.113.366.14m-4.036-2.639-.762-1.778q-.367-.833-.663-1.806-.282.931-.62 1.792l-.706 1.792zM127.174 224.165q.903 0 1.355-.409t.762-1.44q.776.114 1.086.41-.31.974-.437 2.343-1.44-.029-3.274-.029-2.046 0-4.036.043 0-.565.085-.875.395-.028.593-.141.211-.127.282-.424.085-.31.085-.931v-4.967q0-.565-.085-.847-.07-.282-.268-.395-.198-.127-.607-.17-.085-.338-.085-.874 1.101.042 2.117.042 1.284 0 2.13-.042 0 .607-.098.875-.395.042-.593.155t-.282.41q-.07.281-.07.874v4.897q0 .606.098.931.1.31.34.437.253.127.733.127z" style="-inkscape-font-specification:&quot;Vollkorn Bold&quot;"/>
    </g>
    <g fill="#cd3706" stroke-width=".285" aria-label="BERGEN 90" font-family="Friz Quadrata" font-size="24.326" font-weight="700" letter-spacing="0" style="line-height:1.25;-inkscape-font-specification:&quot;Noto Sans Bold&quot;;text-align:center" text-anchor="middle" word-spacing="0">
      <path d="M37.94 174.713h8.053q1.295 0 2.221.368.927.356 1.461.938.547.582.772 1.224.238.641.238 1.294 0 1.248-.737 2.198-.736.95-2.066 1.33 1.08.107 1.948.677.879.558 1.377 1.52.5.95.5 2.186 0 1.627-.76 2.839-.761 1.2-2.115 1.829-1.342.63-2.97.63H37.94q1.022-.796 1.022-2.65v-11.723q0-1.852-1.022-2.66m5.642 2.53v4.038q.19.024.582.024.831 0 1.318-.618.487-.617.487-1.686 0-1.105-.498-1.509-.5-.415-1.117-.415-.404 0-.772.166m0 6.26v5.499q.808.261 1.485.261 1.116 0 1.568-.915.45-.926.45-1.96 0-1.163-.545-2.019-.535-.867-1.841-.867zM52.811 174.713h9.407q.356 0 .606-.095v3.623q-.7-1.093-2.138-1.093h-2.233v4.264h3.528v3.302q-.654-.88-1.735-.88h-1.793v4.752q0 .285.119.44.13.142.522.213.404.072 1.2.072h1.948q1.52 0 2.756-1.26l-.974 3.695H52.81q1.021-.796 1.021-2.65v-11.723q0-1.852-1.021-2.66M65.306 174.713h8.267q1.046 0 1.984.344.938.333 1.603.939.666.593 1.034 1.413.368.808.368 1.758 0 1.473-.89 2.601-.88 1.117-2.353 1.604l2.708 4.525q.321.546 1.295 1.924.974 1.366 1.627 1.924l-3.551.167q-.89 0-1.568-.214-.665-.226-1.152-.653t-.843-.962q-.345-.547-.796-1.426l-2.09-4.252v4.692q0 .867.213 1.532.214.653.808 1.116h-6.664q1.022-.795 1.022-2.648v-11.724q0-1.852-1.022-2.66m5.642 2.435v6.034q1.342-.238 2.103-1.248.76-1.01.76-2.209 0-.831-.368-1.413-.369-.594-.927-.88-.546-.284-1.128-.284zM94.027 174.867v3.457q-1.723-1.414-3.956-1.414-3.005 0-3.92 1.972-.902 1.96-.902 4.015 0 1.77.475 3.29.475 1.508 1.509 2.447 1.045.926 2.613.926.689 0 1.223-.107v-4.668q0-.784-.487-1.413-.095-.131-.368-.357h5.226v8.243q-1.342.428-2.72.701-1.366.273-2.755.273-2.59 0-4.787-.997-2.198-1.01-3.492-2.97t-1.295-4.691q0-2.162.7-3.908.714-1.758 1.973-2.958 1.27-1.211 2.993-1.84 1.734-.642 3.789-.642.748 0 1.84.13 1.094.131 2.34.511M97.234 174.713h9.407q.356 0 .606-.095v3.623q-.701-1.093-2.138-1.093h-2.233v4.264h3.527v3.302q-.653-.88-1.734-.88h-1.793v4.752q0 .285.118.44.131.142.523.213.404.072 1.2.072h1.948q1.52 0 2.755-1.26l-.974 3.695H97.234q1.021-.796 1.021-2.65v-11.723q0-1.852-1.021-2.66M109.73 174.713h5.13l7.982 10.488v-7.828q0-1.852-1.021-2.66h4.466q-.606.487-.82 1.128-.202.642-.202 1.532v14.812q-.998-.214-1.888-.558-.88-.357-1.663-.832-1.093-.689-1.889-1.746l-6.129-7.958v8.006q0 .867.214 1.532.214.653.808 1.116h-4.478q1.021-.795 1.021-2.648v-10.702q0-2.316-1.532-3.682M135.302 192.232l.926-2.09q1.39-.261 2.578-.95 1.2-.69 2.114-1.806.926-1.128 1.437-2.637.511-1.52.511-3.385 0-1.746-.392-2.732-.392-.997-.938-1.354-.547-.368-1.105-.368-.38 0-.82.202-.439.19-.831.915-.392.724-.392 2.114 0 1.497.57 2.554.582 1.045 1.746 1.045.535 0 1.236-.261l-1.022 2.328q-.831.297-1.58.297-1.128 0-2.126-.38-.986-.38-1.722-1.117-.737-.736-1.152-1.794-.404-1.069-.404-2.328 0-1.698.796-3.135.796-1.438 2.292-2.28 1.497-.844 3.528-.844 1.829 0 3.171.689 1.354.689 2.162 1.793.82 1.093 1.2 2.388t.38 2.577q0 2.043-.867 3.944-.868 1.888-2.507 3.397t-3.884 2.363-4.905.855M156.29 174.226q1.568 0 2.85.665 1.295.665 2.186 1.877.89 1.2 1.354 2.838.463 1.64.463 3.623 0 2.031-.51 3.706-.511 1.663-1.461 2.85t-2.233 1.818-2.78.63q-2.055 0-3.634-1.176-1.568-1.176-2.435-3.231-.856-2.067-.856-4.597 0-1.758.44-3.373.451-1.627 1.354-2.91.915-1.295 2.245-2.008 1.33-.712 3.017-.712m-2.435 8.766q0 3.884.736 5.226.737 1.342 1.616 1.342 2.316 0 2.316-6.33 0-2.448-.357-3.837-.344-1.402-.855-1.936-.51-.547-1.08-.547-.559 0-1.093.463-.535.452-.915 1.818-.368 1.354-.368 3.8" style="-inkscape-font-specification:&quot;Friz Quadrata Bold&quot;"/>
    </g>
  </g>
</svg>
