<svg xmlns="http://www.w3.org/2000/svg" xmlns:xlink="http://www.w3.org/1999/xlink" width="1280" height="720" viewBox="0 0 338.667 190.5">
  <defs>
    <clipPath id="h" clipPathUnits="userSpaceOnUse">
      <path d="M334.698 291.708h34.396v52.917h-34.396z" style="fill:#000;fill-opacity:1;stroke:none;stroke-width:2.64583;stroke-miterlimit:4;stroke-dasharray:none;stroke-opacity:1;paint-order:stroke fill markers"/>
    </clipPath>
    <clipPath id="i" clipPathUnits="userSpaceOnUse">
      <path d="M419.365 349.917h21.167v44.979h-21.167z" style="fill:#00fe03;fill-opacity:1;stroke:none;stroke-width:2.64583;stroke-miterlimit:4;stroke-dasharray:none;stroke-opacity:1;paint-order:stroke fill markers"/>
    </clipPath>
    <clipPath id="j" clipPathUnits="userSpaceOnUse">
      <path d="M394.229 371.083h42.333v26.458h-42.333z" style="fill:#000;fill-opacity:1;stroke:none;stroke-width:7.9375;stroke-miterlimit:4;stroke-dasharray:none;stroke-opacity:1;paint-order:stroke fill markers"/>
    </clipPath>
    <clipPath id="l" clipPathUnits="userSpaceOnUse">
      <path d="M532.445-180.557h21.167v34.396h-21.167z" style="fill:#fcda00;fill-opacity:1;stroke:none;stroke-width:2.64583;stroke-miterlimit:4;stroke-dasharray:none;stroke-opacity:1;paint-order:stroke fill markers" transform="rotate(50.23)"/>
    </clipPath>
  </defs>
  <g transform="translate(0 -138.25)">
    <path d="M0 138.25h338.667v190.5H0z" style="fill:#0f0827;fill-opacity:1;stroke:none;stroke-width:2.44412;stroke-linecap:round;stroke-linejoin:round;stroke-miterlimit:4;stroke-dasharray:none;stroke-opacity:1;paint-order:markers fill stroke"/>
    <g transform="translate(-205.045 -95.25)">
      <use xlink:href="#a" width="100%" height="100%" transform="translate(3.969)"/>
      <path id="a" d="M329.406 299.646h2.646v26.458h-2.646z" style="fill:#00fe03;fill-opacity:1;stroke:none;stroke-width:2.64583;stroke-miterlimit:4;stroke-dasharray:none;stroke-opacity:1;paint-order:stroke fill markers"/>
      <g id="b">
        <path d="M339.99 291.708h13.229v10.583H339.99z" style="fill:#00fe03;fill-opacity:1;stroke:none;stroke-width:2.11668;paint-order:stroke fill markers"/>
        <path d="M-302.292 354.542h10.583v1.323h-10.583z" style="fill:#00fe03;fill-opacity:1;stroke:none;stroke-width:2.11667;paint-order:stroke fill markers" transform="rotate(-90)"/>
        <path d="M328.083 291.708h10.584v2.646h7.937v5.292h-7.937v2.646h-10.584z" style="fill:#fcda00;fill-opacity:1;stroke:#0f0827;stroke-width:2.64583;stroke-miterlimit:4;stroke-dasharray:none;stroke-opacity:1;paint-order:stroke fill markers"/>
        <path d="M357.187 291.708h7.937v10.583h-7.937z" style="fill:#00fe03;fill-opacity:1;stroke:none;stroke-width:2.11667;paint-order:stroke fill markers"/>
      </g>
      <use xlink:href="#b" width="100%" height="100%" style="stroke:#0f0827;stroke-opacity:1" transform="translate(0 31.75)"/>
      <circle cx="349.25" cy="312.875" r="9.26" style="fill:#23d4ff;fill-opacity:1;stroke:#0f0827;stroke-width:2.64583;stroke-miterlimit:4;stroke-dasharray:none;stroke-opacity:1;paint-order:stroke fill markers"/>
      <circle cx="349.25" cy="312.875" r="5.292" style="fill:#d40000;fill-opacity:1;stroke:#0f0827;stroke-width:2.64583;stroke-miterlimit:4;stroke-dasharray:none;stroke-opacity:1;paint-order:stroke fill markers"/>
    </g>
    <circle cx="232.84" cy="217.625" r="21.167" style="fill:#00fe03;fill-opacity:1;stroke:none;stroke-width:2.64583;stroke-miterlimit:4;stroke-dasharray:none;stroke-opacity:1;paint-order:stroke fill markers"/>
    <circle cx="232.84" cy="217.625" r="15.875" style="fill:#23d4ff;fill-opacity:1;stroke:#0f0827;stroke-width:5.29167;stroke-miterlimit:4;stroke-dasharray:none;stroke-opacity:1;paint-order:stroke fill markers"/>
    <path d="M119.069 258.635h13.229v25.135h-13.229z" style="fill:#00fe03;fill-opacity:1;stroke:none;stroke-width:2.64583;stroke-miterlimit:4;stroke-dasharray:none;stroke-opacity:1;paint-order:stroke fill markers"/>
    <path d="M123.038 257.312h5.292v26.459h3.969v7.937h-13.23v-7.937h3.97z" style="fill:#00fe03;fill-opacity:1;stroke:#0f0827;stroke-width:2.64583;stroke-miterlimit:4;stroke-dasharray:none;stroke-opacity:1;paint-order:stroke fill markers"/>
    <circle cx="125.684" cy="250.036" r="5.953" style="fill:#ff580a;fill-opacity:1;stroke:none;stroke-width:2.64583;stroke-miterlimit:4;stroke-dasharray:none;stroke-opacity:1;paint-order:stroke fill markers"/>
    <g transform="translate(-216.951 -105.833)">
      <use xlink:href="#c" width="100%" height="100%" transform="matrix(1 0 0 -1 0 752.75)"/>
      <use xlink:href="#d" id="c" width="100%" height="100%" x="0" y="0" transform="matrix(0 -1 -1 0 793.094 762.667)"/>
      <g id="d">
        <path d="M398.198 363.146h3.969v26.458h-3.969zM403.49 363.146h2.646v26.458h-2.646z" style="fill:#ff580a;fill-opacity:1;stroke:none;stroke-width:2.64583;stroke-miterlimit:4;stroke-dasharray:none;stroke-opacity:1;paint-order:stroke fill markers"/>
      </g>
      <path d="M396.875 355.208h10.583v10.583h-10.583z" style="fill:#00fe03;fill-opacity:1;stroke:#0f0827;stroke-width:2.64583;stroke-miterlimit:4;stroke-dasharray:none;stroke-opacity:1;paint-order:stroke fill markers"/>
      <path d="M424.656 355.208h10.583v10.583h-10.583z" style="fill:#fcda00;fill-opacity:1;stroke:#0f0827;stroke-width:2.64583;stroke-miterlimit:4;stroke-dasharray:none;stroke-opacity:1;paint-order:stroke fill markers"/>
      <path d="M396.875 382.99h10.583v14.552h-10.583z" style="fill:#f50000;fill-opacity:1;stroke:#0f0827;stroke-width:2.64582;stroke-miterlimit:4;stroke-dasharray:none;stroke-opacity:1;paint-order:stroke fill markers"/>
      <path d="M424.656 386.958h10.583v10.583h-10.583z" style="fill:#23d4ff;fill-opacity:1;stroke:#0f0827;stroke-width:2.64583;stroke-miterlimit:4;stroke-dasharray:none;stroke-opacity:1;paint-order:stroke fill markers"/>
      <path id="e" d="M407.458 371.083h2.646v10.583h-2.646z" style="fill:#ff580a;fill-opacity:1;stroke:none;stroke-width:2.64583;stroke-miterlimit:4;stroke-dasharray:none;stroke-opacity:1;paint-order:stroke fill markers"/>
      <use xlink:href="#e" id="f" width="100%" height="100%" x="0" y="0" transform="translate(3.969)"/>
      <use xlink:href="#f" id="g" width="100%" height="100%" x="0" y="0" transform="translate(3.969)"/>
      <use xlink:href="#g" width="100%" height="100%" transform="translate(3.969)"/>
      <path d="M399.521 357.854h5.292v5.292h-5.292z" style="fill:#0f0827;fill-opacity:1;stroke:none;stroke-width:2.64583;stroke-miterlimit:4;stroke-dasharray:none;stroke-opacity:1;paint-order:stroke fill markers"/>
      <path d="M427.302 389.604h5.292v5.292h-5.292z" style="fill:#0f0827;fill-opacity:1;stroke:none;stroke-width:2.64584;stroke-miterlimit:4;stroke-dasharray:none;stroke-opacity:1;paint-order:stroke fill markers"/>
    </g>
    <g clip-path="url(#h)" transform="translate(-251.347 -95.25)">
      <path d="M333.375 291.708h7.93L351.89 297l10.583-5.292h7.945v42.334h-37.042Z" style="fill:#d40000;fill-opacity:1;stroke:none;stroke-width:2.64583;stroke-miterlimit:4;stroke-dasharray:none;stroke-opacity:1;paint-order:stroke fill markers"/>
      <path d="M333.375 291.708h7.93l10.584 2.646 10.583-2.646h7.945V297h-37.042z" style="fill:#fcda00;fill-opacity:1;stroke:#0f0827;stroke-width:2.6458;stroke-miterlimit:4;stroke-dasharray:none;stroke-opacity:1;paint-order:stroke fill markers"/>
      <path d="M333.375 319.49h37.042v2.646h-37.042zM354.542 323.458v10.584h-5.292v-10.584Z" style="fill:#ff580a;fill-opacity:1;stroke:#0f0827;stroke-width:2.64582;stroke-miterlimit:4;stroke-dasharray:none;stroke-opacity:1;paint-order:stroke fill markers"/>
      <path d="M339.99 289.13v30.427a11.906 11.906 0 0 0 11.906 11.907 11.906 11.906 0 0 0 11.906-11.907v-30.426z" style="fill:#0f0827;fill-opacity:1;stroke:none;stroke-width:2.64583;stroke-miterlimit:4;stroke-dasharray:none;stroke-opacity:1;paint-order:stroke fill markers"/>
      <path d="M342.635 282.516v37.041a9.26 9.26 0 0 0 9.26 9.26 9.26 9.26 0 0 0 9.261-9.26v-37.041Z" style="fill:none;fill-opacity:1;stroke:#fcda00;stroke-width:2.64583;stroke-miterlimit:4;stroke-dasharray:none;stroke-opacity:1;paint-order:stroke fill markers"/>
    </g>
    <g style="stroke:none" transform="translate(-243.41 -95.25)">
      <circle cx="310.224" cy="304.276" r="12.568" style="fill:#23d4ff;fill-opacity:1;stroke:none;stroke-width:2.64583;stroke-miterlimit:4;stroke-dasharray:none;stroke-opacity:1;paint-order:stroke fill markers"/>
      <circle cx="310.224" cy="321.474" r="12.568" style="fill:#23d4ff;fill-opacity:1;stroke:none;stroke-width:2.64583;stroke-miterlimit:4;stroke-dasharray:none;stroke-opacity:1;paint-order:stroke fill markers"/>
      <path d="M297.656 291.708h12.568v42.333h-12.568z" style="fill:#23d4ff;fill-opacity:1;stroke:none;stroke-width:2.64583;stroke-miterlimit:4;stroke-dasharray:none;stroke-opacity:1;paint-order:stroke fill markers"/>
    </g>
    <path d="M50.278 209.687h15.875v15.875H50.278z" style="fill:#0f0827;fill-opacity:1;stroke:none;stroke-width:2.64583;stroke-miterlimit:4;stroke-dasharray:none;stroke-opacity:1;paint-order:stroke fill markers"/>
    <path d="M52.924 204.396v9.26h13.89a4.63 4.63 0 0 0 4.63-4.63 4.63 4.63 0 0 0-4.63-4.63h-.013zM52.924 221.594v9.26h13.89a4.63 4.63 0 0 0 4.63-4.63 4.63 4.63 0 0 0-4.63-4.63h-.013z" style="fill:#0f0827;fill-opacity:1;stroke:none;stroke-width:2.64583;stroke-miterlimit:4;stroke-dasharray:none;stroke-opacity:1;paint-order:stroke fill markers"/>
    <path d="M54.247 214.979h11.906v5.292H54.247z" style="fill:#fcda00;fill-opacity:1;stroke:none;stroke-width:2.64583;stroke-miterlimit:4;stroke-dasharray:none;stroke-opacity:1;paint-order:stroke fill markers"/>
    <path d="M67.476 213.656H64.83v1.323H60.86v5.292h3.969v1.323h2.646zM62.846 196.458h2.646v7.938h-2.646zM62.846 230.854h2.646v7.938h-2.646z" style="fill:#fcda00;fill-opacity:1;stroke:#0f0827;stroke-width:2.64583;stroke-miterlimit:4;stroke-dasharray:none;stroke-opacity:1;paint-order:stroke fill markers"/>
    <path d="M51.601 197.781h1.323v39.688h-1.323z" style="fill:#fcda00;fill-opacity:1;stroke:none;stroke-width:2.64583;stroke-miterlimit:4;stroke-dasharray:none;stroke-opacity:1;paint-order:stroke fill markers"/>
    <path d="M44.986 196.458h7.938v6.615h-2.646V233.5h2.646v5.292h-7.938z" style="fill:#00fe03;fill-opacity:1;stroke:#0f0827;stroke-width:2.64583;stroke-miterlimit:4;stroke-dasharray:none;stroke-opacity:1;paint-order:stroke fill markers"/>
    <path d="M137.59 253.344h2.646v38.365h-2.646z" style="fill:#23d4ff;fill-opacity:1;stroke:#0f0827;stroke-width:7.9375;stroke-miterlimit:4;stroke-dasharray:none;stroke-opacity:1;paint-order:stroke fill markers"/>
    <path d="M148.174 277.156v14.552h21.166l-9.26-14.552z" style="fill:#fcda00;fill-opacity:1;stroke:none;stroke-width:7.9375;stroke-miterlimit:4;stroke-dasharray:none;stroke-opacity:1;paint-order:stroke fill markers"/>
    <path d="M141.559 253.344v38.364h5.292V255.99h11.906v-2.646z" style="fill:#fcda00;fill-opacity:1;stroke:none;stroke-width:10.5833;stroke-miterlimit:4;stroke-dasharray:none;stroke-opacity:1;paint-order:stroke fill markers"/>
    <path d="M137.59 249.375h22.49l1.323 2.646H137.59z" style="fill:#00fe03;fill-opacity:1;stroke:none;stroke-width:10.5833;stroke-miterlimit:4;stroke-dasharray:none;stroke-opacity:1;paint-order:stroke fill markers"/>
    <g clip-path="url(#i)" transform="translate(-259.285 -105.833)">
      <circle cx="419.365" cy="371.083" r="15.875" style="fill:#00fe03;fill-opacity:1;stroke:none;stroke-width:10.5833;stroke-miterlimit:4;stroke-dasharray:none;stroke-opacity:1;paint-order:stroke fill markers"/>
      <circle cx="419.365" cy="371.083" r="11.906" style="fill:#00fe03;fill-opacity:1;stroke:#0f0827;stroke-width:2.64584;stroke-miterlimit:4;stroke-dasharray:none;stroke-opacity:1;paint-order:stroke fill markers"/>
    </g>
    <path d="M134.944 275.833h22.523l23.813 31.75" style="fill:none;fill-opacity:1;stroke:#0f0827;stroke-width:10.5833;stroke-miterlimit:4;stroke-dasharray:none;stroke-opacity:1;paint-order:stroke fill markers"/>
    <path d="M396.875 381.667h19.877l23.812 31.75" clip-path="url(#j)" style="fill:none;fill-opacity:1;stroke:#f50000;stroke-width:7.9375;stroke-miterlimit:4;stroke-dasharray:none;stroke-opacity:1;paint-order:stroke fill markers" transform="translate(-259.285 -105.833)"/>
    <path d="M97.903 249.375a15.875 15.875 0 0 0-15.875 15.875v26.458h31.75V265.25a15.875 15.875 0 0 0-15.875-15.875z" style="fill:#fcda00;fill-opacity:1;stroke:#0f0827;stroke-width:2.64583;stroke-miterlimit:4;stroke-dasharray:none;stroke-opacity:1;paint-order:stroke fill markers"/>
    <path d="M97.857 253.344c-6.558.025-11.86 5.348-11.86 11.906v10.583h23.812V265.25c0-6.576-5.33-11.906-11.906-11.906z" style="fill:#23d4ff;fill-opacity:1;stroke:#0f0827;stroke-width:2.64583;stroke-miterlimit:4;stroke-dasharray:none;stroke-opacity:1;paint-order:stroke fill markers"/>
    <circle cx="97.903" cy="262.604" r="5.292" style="fill:#0f0827;fill-opacity:1;stroke:none;stroke-width:2.64583;stroke-miterlimit:4;stroke-dasharray:none;stroke-opacity:1;paint-order:stroke fill markers"/>
    <path d="M92.611 262.604h10.583v13.229H92.611z" style="fill:#0f0827;fill-opacity:1;stroke:none;stroke-width:2.64583;stroke-miterlimit:4;stroke-dasharray:none;stroke-opacity:1;paint-order:stroke fill markers"/>
    <path d="M85.996 274.51h23.813v17.198H85.996z" style="fill:#0f0827;fill-opacity:1;stroke:#0f0827;stroke-width:2.64583;stroke-miterlimit:4;stroke-dasharray:none;stroke-opacity:1;paint-order:stroke fill markers"/>
    <path d="M85.996 277.156h1.323v14.552h-1.323z" style="fill:#ff580a;fill-opacity:1;stroke:none;stroke-width:2.64583;stroke-miterlimit:4;stroke-dasharray:none;stroke-opacity:1;paint-order:stroke fill markers"/>
    <path d="M91.288 277.156h1.323v14.552h-1.323zM103.194 277.156h1.323v14.552h-1.323z" style="fill:#fcda00;fill-opacity:1;stroke:none;stroke-width:2.64583;stroke-miterlimit:4;stroke-dasharray:none;stroke-opacity:1;paint-order:stroke fill markers"/>
    <path d="M108.486 277.156h1.323v14.552h-1.323zM105.84 277.156h1.323v14.552h-1.323zM88.642 277.156h1.323v14.552h-1.323z" style="fill:#ff580a;fill-opacity:1;stroke:none;stroke-width:2.64583;stroke-miterlimit:4;stroke-dasharray:none;stroke-opacity:1;paint-order:stroke fill markers"/>
    <path d="M82.028 277.156h11.906v1.323h7.938v-1.323h11.906v-5.291h-31.75Z" style="fill:#fcda00;fill-opacity:1;stroke:#0f0827;stroke-width:2.64583;stroke-miterlimit:4;stroke-dasharray:none;stroke-opacity:1;paint-order:stroke fill markers"/>
    <path d="M82.028 289.062h10.583v2.646H82.028zM103.194 289.062h10.583v2.646h-10.583z" style="fill:#ff580a;fill-opacity:1;stroke:#0f0827;stroke-width:2.64583;stroke-miterlimit:4;stroke-dasharray:none;stroke-opacity:1;paint-order:stroke fill markers"/>
    <circle cx="239.455" cy="270.542" r="7.938" style="fill:#d40000;fill-opacity:1;stroke:#0f0827;stroke-width:2.64583;stroke-miterlimit:4;stroke-dasharray:none;stroke-opacity:1;paint-order:stroke fill markers"/>
    <circle cx="239.455" cy="270.542" r="5.292" style="fill:#00fe03;fill-opacity:1;stroke:#0f0827;stroke-width:2.64583;stroke-miterlimit:4;stroke-dasharray:none;stroke-opacity:1;paint-order:stroke fill markers"/>
    <use xlink:href="#k" width="100%" height="100%" style="fill:#0f0827;fill-opacity:1" transform="rotate(180 239.455 270.542)"/>
    <g id="k">
      <path d="M500.009 355.208a18.52 18.52 0 0 0-18.467 18.521h7.937a10.583 10.583 0 0 1 10.563-10.583h.02v-7.938z" style="fill:#fcda00;fill-opacity:1;stroke:none;stroke-width:2.64583;stroke-miterlimit:4;stroke-dasharray:none;stroke-opacity:1;paint-order:stroke fill markers" transform="translate(-259.285 -105.833)"/>
      <path d="M500.063 355.208h5.291v7.938h-5.291l-1.323-3.969z" style="fill:#fcda00;fill-opacity:1;stroke:none;stroke-width:2.64583;stroke-miterlimit:4;stroke-dasharray:none;stroke-opacity:1;paint-order:stroke fill markers" transform="translate(-259.285 -105.833)"/>
      <path d="M480.219 372.406h10.583v7.938h-10.583z" style="fill:#0f0827;fill-opacity:1;stroke:none;stroke-width:2.64582;stroke-miterlimit:4;stroke-dasharray:none;stroke-opacity:1;paint-order:stroke fill markers" transform="translate(-259.285 -105.833)"/>
      <path d="M511.969 355.208h2.646v9.26h-2.646z" style="fill:#ff580a;fill-opacity:1;stroke:none;stroke-width:2.64583;stroke-miterlimit:4;stroke-dasharray:none;stroke-opacity:1;paint-order:stroke fill markers" transform="translate(-259.285 -105.833)"/>
      <path d="M506.677 355.208H508v7.938h-1.323zM509.323 355.208h1.323v9.26h-1.323z" style="fill:#fcda00;fill-opacity:1;stroke:none;stroke-width:2.64583;stroke-miterlimit:4;stroke-dasharray:none;stroke-opacity:1;paint-order:stroke fill markers" transform="translate(-259.285 -105.833)"/>
      <path d="M481.542 373.729h10.583v5.292h-10.583z" style="fill:#d40000;fill-opacity:1;stroke:none;stroke-width:2.64582;stroke-miterlimit:4;stroke-dasharray:none;stroke-opacity:1;paint-order:stroke fill markers" transform="translate(-259.285 -105.833)"/>
    </g>
    <path d="M174.632 196.458h2.646v42.333h-2.646z" style="fill:#fcda00;fill-opacity:1;stroke:none;stroke-width:2.64582;stroke-miterlimit:4;stroke-dasharray:none;stroke-opacity:1;paint-order:stroke fill markers"/>
    <path d="M165.372 196.458h7.937v42.333h-7.937zM199.767 196.458h7.938v42.333h-7.938z" style="fill:#d40000;fill-opacity:1;stroke:none;stroke-width:2.64583;stroke-miterlimit:4;stroke-dasharray:none;stroke-opacity:1;paint-order:stroke fill markers"/>
    <path d="M195.799 196.458h2.646v42.333h-2.646z" style="fill:#fcda00;fill-opacity:1;stroke:none;stroke-width:2.64582;stroke-miterlimit:4;stroke-dasharray:none;stroke-opacity:1;paint-order:stroke fill markers"/>
    <path d="M165.372 236.146h11.906v2.646h-11.906zM195.799 196.458h11.906v2.646h-11.906zM165.372 196.458h11.906v2.646h-11.906zM195.799 236.146h11.906v2.646h-11.906z" style="fill:#ff580a;fill-opacity:1;stroke:#0f0827;stroke-width:2.64583;stroke-miterlimit:4;stroke-dasharray:none;stroke-opacity:1;paint-order:stroke fill markers"/>
    <g clip-path="url(#l)" transform="rotate(-50.23 228.14 570.75)">
      <path d="M465.667 281.125h2.646v63.5h-2.646zM469.635 281.125h2.646v63.5h-2.646zM473.604 281.125h2.646v63.5h-2.646zM477.573 281.125h2.646v63.5h-2.646z" style="fill:#fcda00;fill-opacity:1;stroke:none;stroke-width:2.64583;stroke-miterlimit:4;stroke-dasharray:none;stroke-opacity:1;paint-order:stroke fill markers"/>
    </g>
    <path d="M280.465 196.458v7.938a5.29 5.29 0 0 1 5.292 5.291h7.937a13.23 13.23 0 0 0-13.229-13.229" style="fill:#ff580a;fill-opacity:1;stroke:none;stroke-width:2.64583;stroke-miterlimit:4;stroke-dasharray:none;stroke-opacity:1;paint-order:stroke fill markers"/>
    <path d="M271.205 196.458c-7.3.008-13.215 5.929-13.215 13.23l-.014 2.645h7.937l.014-2.646c.016-2.922 2.37-5.291 5.292-5.291v-7.938z" style="fill:#fcda00;fill-opacity:1;stroke:none;stroke-width:2.64583;stroke-miterlimit:4;stroke-dasharray:none;stroke-opacity:1;paint-order:stroke fill markers"/>
    <path d="M272.542 203.073v-6.615h6.6v6.615h-1.323v2.646h-3.954v-2.646z" style="fill:#23d4ff;fill-opacity:1;stroke:#0f0827;stroke-width:2.64583;stroke-miterlimit:4;stroke-dasharray:none;stroke-opacity:1;paint-order:stroke fill markers"/>
    <path d="M283.097 207.042h11.906v5.292h-11.906z" style="fill:#0f0827;fill-opacity:1;stroke:none;stroke-width:2.64583;stroke-miterlimit:4;stroke-dasharray:none;stroke-opacity:1;paint-order:stroke fill markers"/>
    <path d="M257.976 213.656h35.719v1.323h-35.719zM257.976 221.594h35.719v1.323h-35.719z" style="fill:#fcda00;fill-opacity:1;stroke:none;stroke-width:2.64583;stroke-miterlimit:4;stroke-dasharray:none;stroke-opacity:1;paint-order:stroke fill markers"/>
    <path d="M285.757 224.24h7.938v14.552h-7.938zM257.976 228.208h7.938v10.583h-7.938z" style="fill:#23d4ff;fill-opacity:1;stroke:#0f0827;stroke-width:2.64583;stroke-miterlimit:4;stroke-dasharray:none;stroke-opacity:1;paint-order:stroke fill markers"/>
    <path d="M261.944 236.146h27.781v2.646h-27.781zM264.59 232.177h22.49v2.646h-22.49z" style="fill:#fcda00;fill-opacity:1;stroke:#0f0827;stroke-width:2.64584;stroke-miterlimit:4;stroke-dasharray:none;stroke-opacity:1;paint-order:stroke fill markers"/>
    <path d="M257.976 216.302h35.719v3.969h-35.719z" style="fill:#ff580a;fill-opacity:1;stroke:none;stroke-width:2.64583;stroke-miterlimit:4;stroke-dasharray:none;stroke-opacity:1;paint-order:stroke fill markers"/>
    <path id="m" d="M229.526 195.135v5.292h1.323v34.396h-1.323v5.292h6.615v-5.292h-1.323v-34.396h1.323v-5.292z" style="fill:#fcda00;fill-opacity:1;stroke:#0f0827;stroke-width:2.64583;stroke-miterlimit:4;stroke-dasharray:none;stroke-opacity:1;paint-order:stroke fill markers"/>
    <use xlink:href="#m" id="n" width="100%" height="100%" x="0" y="0" transform="rotate(-60 232.503 217.052)"/>
    <use xlink:href="#n" width="100%" height="100%" transform="rotate(-60 232.833 217.625)"/>
    <circle cx="232.833" cy="217.625" r="9.26" style="fill:#fcda00;fill-opacity:1;stroke:#0f0827;stroke-width:2.64583;stroke-miterlimit:4;stroke-dasharray:none;stroke-opacity:1;paint-order:stroke fill markers"/>
    <circle cx="232.84" cy="217.625" r="5.292" style="fill:#ff580a;fill-opacity:1;stroke:#0f0827;stroke-width:2.64583;stroke-miterlimit:4;stroke-dasharray:none;stroke-opacity:1;paint-order:stroke fill markers"/>
    <g aria-label="ESCENARIO MUNDIAL 1991" style="font-weight:700;font-size:16.9333px;line-height:1.25;font-family:&quot;Noto Sans&quot;;-inkscape-font-specification:&quot;Noto Sans Bold&quot;;text-align:center;letter-spacing:0;word-spacing:0;text-anchor:middle;fill:#fff;stroke-width:.264583">
      <path d="M59.08 172.22h6.55q.247 0 .421-.066v2.521q-.488-.76-1.488-.76h-1.555v2.968h2.456v2.299q-.455-.612-1.207-.612h-1.249v3.307q0 .199.083.306.09.1.364.149.28.05.835.05h1.356q1.058 0 1.918-.877l-.678 2.571h-7.805q.71-.554.71-1.843v-8.161q0-1.29-.71-1.852M75.444 172.393v2.167q-.265-.157-.703-.348-.43-.19-.926-.322-.488-.14-.91-.14-.603 0-1.091.24-.48.239-.48.826 0 .413.166.678.173.256.48.446.305.182.909.463 1.232.596 1.901 1.017.67.414 1.191 1.183.53.76.53 1.868 0 1.01-.522 1.91-.512.902-1.62 1.472-1.1.562-2.745.562-.81 0-1.646-.173-.835-.166-1.843-.57l-.513-2.572q.876.736 1.877 1.1 1 .355 1.885.355 1.05 0 1.463-.422.414-.43.414-.984 0-.38-.149-.644-.14-.265-.422-.463-.28-.207-.769-.447l-.893-.446q-.975-.505-1.57-.91-.596-.413-1.018-1.108-.413-.694-.413-1.687 0-.967.496-1.777.496-.819 1.488-1.298.993-.488 2.373-.488 1.522 0 3.06.512M86.614 172.22l.165 2.455q-.62-.43-1.356-.678-.727-.248-1.455-.248-1.463 0-2.2.794-.735.786-.917 1.637-.182.844-.182 1.513 0 1.513.38 2.49.38.975.984 1.487.612.513 1.274.703.67.182 1.29.182.777 0 1.835-.339 1.067-.339 1.96-.819l-.827 2.407q-.76.272-1.637.438-.877.173-2.043.173-1.595 0-2.844-.487-1.24-.497-2.075-1.373t-1.257-2.017-.422-2.406q0-1.348.463-2.49.472-1.148 1.323-1.992.86-.851 2.05-1.306 1.2-.463 2.58-.463 1.44 0 2.911.339M88.582 172.22h6.548q.248 0 .422-.066v2.521q-.488-.76-1.488-.76h-1.555v2.968h2.456v2.299q-.455-.612-1.207-.612h-1.249v3.307q0 .199.083.306.09.1.364.149.28.05.835.05h1.356q1.058 0 1.918-.877l-.678 2.571h-7.805q.71-.554.71-1.843v-8.161q0-1.29-.71-1.852M97.28 172.22h3.572l5.556 7.3v-5.448q0-1.29-.711-1.852h3.109q-.422.339-.57.785-.141.447-.141 1.067v10.31q-.695-.149-1.315-.388-.612-.248-1.157-.58-.761-.479-1.315-1.214l-4.266-5.54v5.573q0 .603.148 1.066.15.455.563.777h-3.117q.71-.554.71-1.843v-7.45q0-1.612-1.066-2.563M112.436 172.22h4.3l3.505 9.773q.339.934.686 1.389.356.455.72.694h-5.408q.372-.206.554-.52.19-.315.19-.695 0-.124-.05-.356t-.099-.355l-.595-1.662h-3.555l-.587 1.695q-.174.471-.174.827 0 .645.595 1.066h-3.588q.471-.496.744-.942.281-.455.52-1.141l2.73-7.888q.165-.455.165-.901 0-.273-.149-.505-.149-.24-.504-.48m.777 6.573h2.472l-1.224-3.588zM122.15 172.22h5.755q.728 0 1.381.24.653.231 1.116.653.463.413.72.984.256.562.256 1.223 0 1.026-.62 1.811-.612.777-1.637 1.116l1.885 3.15q.223.38.901 1.34.678.95 1.133 1.34l-2.472.115q-.62 0-1.092-.149-.463-.157-.802-.454t-.587-.67q-.24-.38-.554-.992l-1.455-2.96v3.266q0 .603.149 1.066.149.455.562.777h-4.638q.71-.554.71-1.843v-8.161q0-1.29-.71-1.852m3.928 1.695v4.2q.934-.165 1.464-.868t.529-1.538q0-.579-.257-.984-.256-.413-.644-.612-.38-.198-.786-.198z" style="font-style:normal;font-variant:normal;font-weight:700;font-stretch:normal;font-family:&quot;Friz Quadrata&quot;;-inkscape-font-specification:&quot;Friz Quadrata Bold&quot;;fill:#fff;stroke-width:.264583"/>
      <path d="M132.701 172.22h4.638q-.405.322-.562.777-.149.455-.149 1.075v8.16q0 .604.15 1.067.148.455.561.777h-4.638q.711-.554.711-1.843v-8.161q0-1.29-.711-1.852M138.472 178.272q0-1.215.43-2.365.43-1.149 1.29-2.058.86-.918 2.108-1.439 1.249-.53 2.82-.53 1.472 0 2.662.456 1.2.454 2.042 1.298.844.835 1.29 1.967t.447 2.481q0 1.761-.802 3.208-.802 1.439-2.324 2.282-1.52.843-3.53.843-1.604 0-2.828-.512-1.224-.521-2.034-1.414-.802-.893-1.19-1.984-.38-1.092-.38-2.233m3.382-.48q0 1.208.273 2.109.28.893.785 1.497.505.603 1.083.884.58.273 1.216.273 1.14 0 2.05-.901.91-.91.91-2.96 0-.951-.199-1.827-.19-.877-.603-1.588-.405-.72-1.009-1.124-.595-.406-1.372-.406-.819 0-1.538.414-.711.413-1.158 1.314-.438.902-.438 2.316M157.134 172.22h4.068l2.604 7.028 2.166-7.028h4.333q-.364.19-.53.512-.165.315-.165.778 0 .272.017.405l.802 7.673q.09.917.264 1.43.182.504.629 1.058h-4.655q.562-.587.562-1.306 0-.322-.074-.96l-.538-5.522-2.472 8.012q-1.083-.397-1.794-.935-.232-.173-.372-.306-.14-.14-.29-.405-.148-.273-.273-.628l-2.116-5.689-.629 5.689q-.016.223-.016.612 0 .488.157.827.165.339.57.611h-3.398q.654-.62.827-2.017l.984-7.665q.05-.421.05-.562 0-1-.711-1.612M171.801 172.22h4.639q-.422.339-.57.785-.141.447-.141 1.067v5.688q0 1.05.314 1.811t1.331.76q.703 0 1.216-.636.512-.645.512-2.224v-5.4q0-.611-.14-1.066-.14-.454-.57-.785h4.638q-.406.322-.563.777-.148.455-.148 1.075v8.16q0 .604.148 1.067.15.455.563.777h-3.812v-1.521q-.33.653-.835 1.067t-1.125.603-1.306.19q-1.521 0-2.282-.686-.752-.686-.96-1.57-.198-.894-.198-1.878v-6.21q0-.611-.14-1.066-.14-.454-.57-.785M184.229 172.22h3.571l5.557 7.3v-5.448q0-1.29-.711-1.852h3.108q-.421.339-.57.785-.14.447-.14 1.067v10.31q-.695-.149-1.315-.388-.612-.248-1.158-.58-.76-.479-1.315-1.214l-4.266-5.54v5.573q0 .603.149 1.066.149.455.562.777h-3.117q.711-.554.711-1.843v-7.45q0-1.612-1.066-2.563M196.962 172.22h5.159q1.389 0 2.522.43 1.14.421 1.951 1.215.819.794 1.249 1.877t.43 2.406q0 2.026-.778 3.283-.769 1.248-1.868 1.81-1.1.554-2.06.695-.95.14-1.727.14h-4.878q.71-.554.71-1.843v-8.161q0-1.29-.71-1.852m3.753 2.05v7.789q.472.157 1.083.157 1.108 0 1.795-.57.694-.571.992-1.489.298-.926.298-2.009 0-2.216-.836-3.134-.835-.926-2.158-.926-.52 0-1.174.182M209.397 172.22h4.638q-.405.322-.562.777-.149.455-.149 1.075v8.16q0 .604.15 1.067.148.455.561.777h-4.638q.711-.554.711-1.843v-8.161q0-1.29-.711-1.852M217.64 172.22h4.3l3.506 9.773q.339.934.686 1.389.355.455.72.694h-5.408q.372-.206.554-.52.19-.315.19-.695 0-.124-.05-.356t-.099-.355l-.595-1.662h-3.556l-.587 1.695q-.173.471-.173.827 0 .645.595 1.066h-3.588q.471-.496.744-.942.28-.455.52-1.141l2.73-7.888q.165-.455.165-.901 0-.273-.15-.505-.148-.24-.504-.48m.778 6.573h2.472l-1.224-3.588zM235.731 181.588l-.694 2.488h-7.681q.71-.554.71-1.843v-8.161q0-1.29-.71-1.852h4.638q-.405.322-.562.777-.15.455-.15 1.075v8.02q.977.29 2.051.29 1.423 0 2.398-.794M246.331 171.88v10.353q0 .603.149 1.066.149.455.562.777h-4.638q.71-.554.71-1.843v-6.93q-.958-.355-1.76-.537 1.364-.347 2.571-1.025 1.207-.686 2.406-1.86M251.606 184.415l.645-1.455q.967-.182 1.794-.661.835-.48 1.472-1.257.645-.786 1-1.836.356-1.058.356-2.356 0-1.215-.273-1.902-.273-.694-.653-.942-.38-.257-.769-.257-.265 0-.57.141-.306.132-.58.637-.272.504-.272 1.471 0 1.042.397 1.778.405.728 1.215.728.372 0 .86-.182l-.711 1.62q-.579.207-1.1.207-.785 0-1.48-.265-.686-.264-1.199-.777-.512-.512-.802-1.248-.28-.744-.28-1.62 0-1.183.553-2.184.554-1 1.596-1.587t2.456-.587q1.273 0 2.207.48.943.479 1.505 1.248.57.76.835 1.662t.265 1.794q0 1.422-.604 2.745-.603 1.315-1.744 2.365t-2.704 1.645-3.415.595M262.454 184.415l.645-1.455q.967-.182 1.794-.661.835-.48 1.472-1.257.645-.786 1-1.836.356-1.058.356-2.356 0-1.215-.273-1.902-.273-.694-.653-.942-.38-.257-.77-.257-.264 0-.57.141-.305.132-.578.637-.273.504-.273 1.471 0 1.042.397 1.778.405.728 1.215.728.372 0 .86-.182l-.711 1.62q-.579.207-1.1.207-.785 0-1.48-.265-.686-.264-1.199-.777-.512-.512-.802-1.248-.28-.744-.28-1.62 0-1.183.553-2.184.554-1 1.596-1.587t2.456-.587q1.273 0 2.207.48.943.479 1.505 1.248.57.76.835 1.662t.265 1.794q0 1.422-.604 2.745-.603 1.315-1.744 2.365t-2.704 1.645-3.415.595M278.875 171.88v10.353q0 .603.149 1.066.148.455.562.777h-4.639q.711-.554.711-1.843v-6.93q-.959-.355-1.76-.537 1.364-.347 2.57-1.025 1.208-.686 2.407-1.86" style="font-style:normal;font-variant:normal;font-weight:700;font-stretch:normal;font-family:&quot;Friz Quadrata&quot;;-inkscape-font-specification:&quot;Friz Quadrata Bold&quot;;fill:#fff;stroke-width:.264583"/>
    </g>
  </g>
</svg>
