<svg fill="none" height="500" viewBox="0 0 500 500" width="500" xmlns="http://www.w3.org/2000/svg"><path d="m0 0h500v500h-500z" fill="#0043ff" stroke-linecap="round" stroke-linejoin="round" stroke-width="17.1473"/><path d="m303.26705 244.31818c0 12.31818-.66591 24.19205-1.83069 35.51137h-102.87272c-1.22046-11.31932-1.83069-23.19319-1.83069-35.51137s.66591-24.19204 1.83069-35.51136h102.87272c1.22046 11.31932 1.83069 23.19318 1.83069 35.51136zm15.97954-35.51136h68.30455c2.94091 11.375 4.49431 23.24886 4.49431 35.51136s-1.5534 24.13637-4.49431 35.51137h-68.30455c1.16591-11.43069 1.77614-23.30455 1.77614-35.51137s-.61023-24.08068-1.77614-35.51136zm62.47841-17.75568h-64.75227c-5.54887-35.45569-16.53523-65.14091-30.68409-84.1175 43.44545 11.48568 78.79091 43.00159 95.38068 84.1175zm-82.73068 0h-97.98864c3.38409-20.19659 8.6-38.06364 14.98068-52.54546 5.82614-13.09545 12.31819-22.58295 18.58864-28.57579 6.21477-5.88159 11.375-7.65716 15.425-7.65716s9.21023 1.77557 15.425 7.65716c6.27045 5.99284 12.7625 15.48034 18.58864 28.57579 6.43636 14.42614 11.59659 32.29318 14.98068 52.54546zm-115.96705 0h-64.75227c16.64545-41.11591 51.93523-72.63182 95.43636-84.1175-14.14886 18.97659-25.13522 48.66181-30.68409 84.1175zm-70.57841 17.75568h68.30341c-1.16477 11.43068-1.775 23.30454-1.775 35.51136s.61023 24.08068 1.775 35.51137h-68.30341c-2.94091-11.375-4.49431-23.24887-4.49431-35.51137s1.5534-24.13636 4.49431-35.51136zm103.5375 141.26818c-6.43636-14.42614-11.59659-32.29318-14.98068-52.48977h97.98864c-3.38409 20.19659-8.6 38.06363-14.98068 52.48977-5.82614 13.09545-12.31819 22.58295-18.58864 28.57614-6.21477 5.9375-11.375 7.7125-15.425 7.7125s-9.21023-1.775-15.425-7.65682c-6.27045-5.99318-12.7625-15.48068-18.58864-28.57614zm-32.95909-52.48977c5.54887 35.45568 16.53523 65.14091 30.68409 84.11704-43.50113-11.48522-78.79091-43.00113-95.43636-84.11704zm198.69773 0c-16.64545 41.11591-51.93523 72.63182-95.38182 84.11704 14.15-18.97613 25.08068-48.66136 30.68409-84.11704z" fill="#fff" stroke-width="11.3636"/></svg>