<svg height="800" viewBox="0 0 1200 800" width="1200" xmlns="http://www.w3.org/2000/svg" xmlns:xlink="http://www.w3.org/1999/xlink"><clipPath id="a"><path d="m0 600h900v-600h-900z" transform="translate(-100.51761 -508.51271)"/></clipPath><clipPath id="b"><path d="m0 600h900v-600h-900z" transform="translate(-22.222201 -517.17241)"/></clipPath><clipPath id="c"><path d="m0 600h900v-600h-900z" transform="translate(-25.253401 -514.14361)"/></clipPath><clipPath id="d"><path d="m0 600h900v-600h-900z" transform="translate(-26.77 -512.62741)"/></clipPath><clipPath id="e"><path d="m0 600h900v-600h-900z" transform="translate(-84.5356 -528.31931)"/></clipPath><clipPath id="f"><path d="m0 600h900v-600h-900z" transform="translate(-71.143602 -520.28471)"/></clipPath><clipPath id="g"><path d="m0 600h900v-600h-900z" transform="translate(-77.571804 -526.71291)"/></clipPath><clipPath id="h"><path d="m0 600h900v-600h-900z" transform="translate(-139.4316 -515.46292)"/></clipPath><clipPath id="i"><path d="m0 600h900v-600h-900z" transform="translate(-131.39601 -528.85551)"/></clipPath><clipPath id="j"><path d="m0 600h900v-600h-900z" transform="translate(-137.82471 -522.42682)"/></clipPath><clipPath id="k"><path d="m0 600h900v-600h-900z" transform="translate(-126.57471 -460.56591)"/></clipPath><clipPath id="l"><path d="m0 600h900v-600h-900z" transform="translate(-139.96731 -468.60061)"/></clipPath><clipPath id="m"><path d="m0 600h900v-600h-900z" transform="translate(-133.5391 -462.17241)"/></clipPath><clipPath id="n"><path d="m0 600h900v-600h-900z" transform="translate(-71.679202 -473.42241)"/></clipPath><clipPath id="o"><path d="m0 600h900v-600h-900z" transform="translate(-79.714404 -460.02981)"/></clipPath><clipPath id="p"><path d="m0 600h900v-600h-900z" transform="translate(-73.286102 -466.45851)"/></clipPath><clipPath id="q"><path d="m0 600h900v-600h-900z" transform="translate(-137.373 -494.44341)"/></clipPath><clipPath id="r"><path d="m0 600h900v-600h-900z" transform="translate(-129.7969 -494.44291)"/></clipPath><clipPath id="s"><path d="m0 600h900v-600h-900z" transform="translate(-94.9492 -468.68551)"/></clipPath><clipPath id="t"><path d="m0 600h900v-600h-900z" transform="translate(-119.19141 -468.68551)"/></clipPath><clipPath id="u"><path d="m0 600h900v-600h-900z" transform="translate(-104.54541 -468.68511)"/></clipPath><clipPath id="v"><path d="m0 600h900v-600h-900z" transform="translate(-122.8501 -489.81351)"/></clipPath><clipPath id="w"><path d="m0 600h900v-600h-900z" transform="translate(-120.7749 -490.50541)"/></clipPath><clipPath id="x"><path d="m0 600h900v-600h-900z" transform="translate(-93.181202 -476.33691)"/></clipPath><clipPath id="y"><path d="m0 600h900v-600h-900z" transform="translate(-107.11911 -483.76711)"/></clipPath><clipPath id="z"><path d="m0 600h900v-600h-900z" transform="translate(-102.4561 -488.32761)"/></clipPath><clipPath id="A"><path d="m0 600h900v-600h-900z" transform="translate(-93.5986 -492.08451)"/></clipPath><clipPath id="B"><path d="m0 600h900v-600h-900z" transform="translate(-93.5986 -492.08451)"/></clipPath><clipPath id="C"><path d="m0 600h900v-600h-900z" transform="translate(-102.25101 -510.02831)"/></clipPath><clipPath id="D"><path d="m0 600h900v-600h-900z" transform="translate(-108.4512 -512.61622)"/></clipPath><clipPath id="E"><path d="m0 600h900v-600h-900z" transform="translate(-99.3301 -486.58541)"/></clipPath><clipPath id="F"><path d="m0 600h900v-600h-900z" transform="translate(-90.989702 -500.34571)"/></clipPath><clipPath id="G"><path d="m0 600h900v-600h-900z" transform="translate(-90.989702 -500.34571)"/></clipPath><clipPath id="H"><path d="m0 600h900v-600h-900z" transform="translate(-118.8535 -492.63181)"/></clipPath><clipPath id="I"><path d="m0 600h900v-600h-900z" transform="translate(-118.8535 -492.63181)"/></clipPath><clipPath id="J"><path d="m0 600h900v-600h-900z" transform="translate(-99.0229 -506.21092)"/></clipPath><clipPath id="K"><path d="m0 600h900v-600h-900z" transform="translate(-95.679205 -511.62991)"/></clipPath><clipPath id="L"><path d="m0 600h900v-600h-900z" transform="translate(-99.689005 -509.84911)"/></clipPath><clipPath id="M"><path d="m0 600h900v-600h-900z" transform="translate(-103.20021 -507.91852)"/></clipPath><clipPath id="N"><path d="m0 600h900v-600h-900z" transform="translate(-109.6812 -512.28322)"/></clipPath><clipPath id="O"><path d="m0 600h900v-600h-900z" transform="translate(-114.73881 -509.13181)"/></clipPath><clipPath id="P"><path d="m0 600h900v-600h-900z" transform="translate(-116.90631 -482.84471)"/></clipPath><clipPath id="Q"><path d="m0 600h900v-600h-900z" transform="translate(-119.87841 -482.23001)"/></clipPath><clipPath id="R"><path d="m0 600h900v-600h-900z" transform="translate(-108.55371 -481.61471)"/></clipPath><clipPath id="S"><path d="m0 600h900v-600h-900z" transform="translate(-135.0015 -485.51321)"/></clipPath><path d="m450 0h450v600h-450z" fill="#cf142b" transform="matrix(1.3333333 0 0 -1.3333333 0 800)"/><path d="m0 0h450v600h-450z" fill="#fff" transform="matrix(1.3333333 0 0 -1.3333333 0 800)"/><path clip-path="url(#a)" d="m0 0c0-.99-1.12-1.792-2.502-1.792s-2.503.802-2.503 1.792 1.121 1.792 2.503 1.792 2.502-.802 2.502-1.792" fill="#f1eeee" transform="matrix(1.3333333 0 0 -1.3333333 134.02347 121.98307)"/><path clip-path="url(#b)" d="m0 0v-45.457h45.455c0-7.574 7.576-15.15 15.152-15.15v-45.455h45.453v45.455c7.576 0 15.152 7.576 15.152 15.15h45.455v45.457h-45.455c0 7.574-7.576 15.15-15.152 15.15v45.455h-45.453v-45.455c-7.576 0-15.152-7.576-15.152-15.15z" fill="#e60d2e" transform="matrix(1.3333333 0 0 -1.3333333 29.6296 110.4368)"/><path clip-path="url(#c)" d="m0 0v-39.397h45.452c0-7.574 7.576-15.15 15.153-15.15v-45.454h39.392v45.454c7.576 0 15.152 7.576 15.152 15.15h45.453v39.397h-45.453c0 7.574-7.576 15.15-15.152 15.15v45.455h-39.392v-45.455c-7.577 0-15.153-7.576-15.153-15.15z" fill="#96877d" transform="matrix(1.3333333 0 0 -1.3333333 33.6712 114.4752)"/><path clip-path="url(#d)" d="m0 0v-36.364h45.452c0-7.574 7.576-15.154 15.152-15.154v-45.454h36.363v45.454c7.576 0 15.152 7.58 15.152 15.154h45.452v36.364h-45.452c0 7.574-7.576 15.15-15.152 15.15v45.454h-36.363v-45.454c-7.576 0-15.152-7.576-15.152-15.15z" fill="#ccc" transform="matrix(1.3333333 0 0 -1.3333333 35.693333 116.4968)"/><path clip-path="url(#e)" d="m0 0c2.663-2.663 1.943-7.699-1.607-11.25-3.55-3.55-8.587-4.269-11.249-1.607-2.663 2.663-1.943 7.7 1.606 11.25 3.551 3.55 8.587 4.27 11.25 1.607" fill="#96877d" transform="matrix(1.3333333 0 0 -1.3333333 112.71413 95.574267)"/><path clip-path="url(#f)" d="m0 0 1.071 1.072 4.286-2.142-2.143 4.285 1.071 1.073 4.286-8.572-8.571 4.286z" fill="#d0d0d0" transform="matrix(1.3333333 0 0 -1.3333333 94.858133 106.28707)"/><path clip-path="url(#g)" d="m0 0 1.071 1.072 6.429-6.429-1.072-1.071z" fill="#d0d0d0" transform="matrix(1.3333333 0 0 -1.3333333 103.42907 97.716133)"/><path clip-path="url(#h)" d="m0 0c-2.663-2.663-7.699-1.943-11.25 1.607-3.55 3.551-4.269 8.587-1.606 11.25 2.662 2.663 7.699 1.943 11.249-1.607s4.27-8.587 1.607-11.25" fill="#96877d" transform="matrix(1.3333333 0 0 -1.3333333 185.9088 112.71613)"/><path clip-path="url(#i)" d="m0 0 1.071-1.072-2.142-4.286 4.285 2.142 1.072-1.072-8.571-4.286 4.285 8.572z" fill="#d0d0d0" transform="matrix(1.3333333 0 0 -1.3333333 175.19467 94.859333)"/><path clip-path="url(#j)" d="m0 0 1.071-1.071-6.428-6.429-1.071 1.072z" fill="#d0d0d0" transform="matrix(1.3333333 0 0 -1.3333333 183.76627 103.43093)"/><path clip-path="url(#k)" d="m0 0c-2.663 2.663-1.943 7.699 1.607 11.25 3.55 3.55 8.587 4.269 11.249 1.607 2.663-2.663 1.943-7.7-1.606-11.25-3.551-3.55-8.587-4.27-11.25-1.607" fill="#96877d" transform="matrix(1.3333333 0 0 -1.3333333 168.76627 185.91213)"/><path clip-path="url(#l)" d="m0 0-1.071-1.072-4.286 2.142 2.143-4.285-1.072-1.073-4.285 8.571 8.571-4.285z" fill="#d0d0d0" transform="matrix(1.3333333 0 0 -1.3333333 186.62307 175.1992)"/><path clip-path="url(#m)" d="m0 0-1.071-1.071-6.429 6.428 1.072 1.071z" fill="#d0d0d0" transform="matrix(1.3333333 0 0 -1.3333333 178.05213 183.77013)"/><path clip-path="url(#n)" d="m0 0c2.663 2.662 7.699 1.943 11.249-1.607 3.55-3.551 4.27-8.587 1.607-11.25s-7.699-1.943-11.249 1.607c-3.55 3.551-4.27 8.587-1.607 11.25" fill="#96877d" transform="matrix(1.3333333 0 0 -1.3333333 95.572267 168.77013)"/><path clip-path="url(#o)" d="m0 0-1.071 1.072 2.142 4.286-4.285-2.142-1.072 1.072 8.571 4.286-4.285-8.572z" fill="#d0d0d0" transform="matrix(1.3333333 0 0 -1.3333333 106.28587 186.62693)"/><path clip-path="url(#p)" d="m0 0-1.071 1.071 6.428 6.429 1.071-1.072z" fill="#d0d0d0" transform="matrix(1.3333333 0 0 -1.3333333 97.7148 178.05533)"/><path clip-path="url(#q)" d="m0 0c.004-17.576-14.242-31.826-31.818-31.826-17.575 0-31.822 14.25-31.817 31.826-.005 17.576 14.242 31.826 31.817 31.826 17.576 0 31.822-14.25 31.818-31.826z" fill="none" stroke="#96877d" stroke-width=".514" transform="matrix(1.3333333 0 0 -1.3333333 183.164 140.74213)"/><path clip-path="url(#r)" d="m0 0c.003-13.391-10.851-24.249-24.242-24.249-13.39 0-24.245 10.858-24.242 24.249-.003 13.391 10.852 24.249 24.242 24.249 13.391 0 24.245-10.858 24.242-24.249z" fill="none" stroke="#96877d" stroke-width=".514" transform="matrix(1.3333333 0 0 -1.3333333 173.06253 140.7428)"/><path clip-path="url(#s)" d="m0 0c.001-.542-.288-1.043-.757-1.315s-1.047-.272-1.516 0c-.47.272-.758.773-.757 1.315-.001.542.287 1.042.757 1.314.469.272 1.047.272 1.516 0s.758-.772.757-1.314" transform="matrix(1.3333333 0 0 -1.3333333 126.59893 175.086)"/><path clip-path="url(#t)" d="m0 0c0-.542-.288-1.043-.757-1.315s-1.047-.272-1.516 0c-.47.272-.758.773-.757 1.315-.001.542.287 1.042.757 1.314.469.272 1.047.272 1.516 0s.757-.772.757-1.314" transform="matrix(1.3333333 0 0 -1.3333333 158.92187 175.086)"/><path clip-path="url(#u)" d="m0 0v-1.58h-2.021c-2.02 0-2.02-1.58 0-1.58h2.021v-1.579c.007-1.637 1.763-1.836 1.892-.137l.128 1.708h2.02c2.02 0 2.02 1.579 0 1.579h-2.02v1.58c0 1.58-2.02 1.58-2.02 0z" transform="matrix(1.3333333 0 0 -1.3333333 139.39387 175.08653)"/><g fill="#96877d"><g stroke="#000" stroke-width=".203"><path clip-path="url(#v)" d="m0 0c.532.135 1.409.026 1.409.026s.077-.365-.154-.487c.257-.147 1.179-.102 1.179-.102s-.358-.276-.538-.385c.333-.032.743-.461.743-.461s-.768-.128-1.101.051c.204-.41.179-.768.179-.768s-1.243.307-1.691 1.127" transform="matrix(1.3333333 0 0 -1.3333333 163.80013 146.91533)"/><path clip-path="url(#w)" d="m0 0c-.301-.743-2.511.641-2.511.641s.974-1.544 2.434-1.717" transform="matrix(1.3333333 0 0 -1.3333333 161.0332 145.9928)"/><path clip-path="url(#x)" d="m0 0h25.877l1.998 1.588-3.33 1.794-5.124 1.743-2.05 1.126-3.792-.204-3.177-1.692-4.356-.512-1.024-1.178-3.229-.256-5.072.102 8.454-1.332-6.968.359z" transform="matrix(1.3333333 0 0 -1.3333333 124.2416 164.88413)"/><path clip-path="url(#y)" d="m0 0c-3.241 1.742-4.189-2.549-5.585-3.587 1.883-.32 3.305 1.448 4.918 2.306 1.225-3.333 3.152-1.127 3.152-1.127s2.011-3.19 4.689-1.742c.73-.552 1.537-.052 1.537-.052s.974-.179 1.179.256c.512-.179 1.076.462 1.076.462s1.114-.013 1.332.563c1.653-.294 3.843 3.382 3.843 3.382l.666 1.281.974.205s.064.641-.461.615c-.013.384-.346.589-.82.513.089.23-.256.409-.256.409-.923-.23-.974-2.562-.974-2.562s-1.614-1.23-2.204-1.537c-.025 1.332-2.254 3.139-1.793 3.997s1.909-1.319 3.177-.923c1.268.398 1.891 2.047 1.947 3.332-.358.871-1.23 2.305-1.23 2.305l-.819.051-.718 1.743s-1.511-.987-1.486-1.845c.026-.858 1.589-1.588 1.589-1.588s-.901-.564-1.743-.308c-.076-.871 1.025-.705 1.435-.717.205-.628.82-.974.82-.974s.384-.961-.615-.871-2.178 2.392-3.587 1.332c-1.499-1.127.666-3.177.666-3.177s-1.319-.692-2.101-2.459c-3.19 2.69-5.06 1.434-8.608.717" transform="matrix(1.3333333 0 0 -1.3333333 142.82547 154.9772)"/><path clip-path="url(#z)" d="m0 0c1.332-1.255.403-3.342.922-3.741.551-.423 1.332.205 1.332.205 1.397-.371 3.895.41 3.895.41 1.1-.615.665.293 1.332.256.589-1.511 2.562-1.23 2.562-1.23s-1.806 1.845-2.92 2.358c-.859-.513-3.357-.59-3.792-.513-.486.086-.18.679-.41 1.025.918.894.192 3.113-.308 3.946-2.036 1.356-4.468-.968-2.613-2.716" transform="matrix(1.3333333 0 0 -1.3333333 136.60813 148.89653)"/></g><path clip-path="url(#A)" d="m0 0c-1.676-.453-4.583 2.165-5.942 1.159-1.359-1.005-.725-3.478.181-4.71.885-1.204-1.296-1.639-1.885-2.355-.553-.673.182-1.449.182-1.449l.616-.399-.109-.906.326-1.087s.299-.263.399.073c.28-.282.029-1.094.724-1.196-.248.52.182 1.956.182 1.956s1.213-.09 1.521.435-.289 1.667-.289 1.667h.362c-.408.281-.544 1.123-.544 1.123s1.685.535 1.667 1.812-2.736 2.636-1.739 3.297c1.105.734 3.025-1.902 4.674-.689 1.632 1.202.58.037.58.037s.745 1.678-.906 1.232" transform="matrix(1.3333333 0 0 -1.3333333 124.79813 143.88733)"/></g><path clip-path="url(#B)" d="m0 0c-1.676-.453-4.583 2.165-5.942 1.159-1.359-1.005-.725-3.478.181-4.71.885-1.204-1.296-1.639-1.885-2.355-.553-.673.182-1.449.182-1.449l.616-.399-.109-.906.326-1.087s.299-.263.399.073c.28-.282.029-1.094.724-1.196-.248.52.182 1.956.182 1.956s1.213-.09 1.521.435-.289 1.667-.289 1.667h.362c-.408.281-.544 1.123-.544 1.123s1.685.535 1.667 1.812-2.736 2.636-1.739 3.297c1.105.734 3.025-1.902 4.674-.689 1.632 1.202.58.037.58.037s.745 1.678-.906 1.232z" fill="none" stroke="#000" stroke-width=".203" transform="matrix(1.3333333 0 0 -1.3333333 124.79813 143.88733)"/><g fill="#96877d"><g stroke="#000" stroke-width=".203"><path clip-path="url(#C)" d="m0 0c-2.242.936-6.821.993-9.377 2.255-1.121-.07-1.621-.955-1.665-1.307-1.173.058-1.967-1.787-1.794-2.152-2.133.865-3.126-2.511-2.434-3.203-1.819-.076-1.595-2.402-1.768-3.049-.583-1.415.13-1.891 1.281-1.383.173-.615-.069-.959-.589-1.076 3.158-3.613 4.942 2.224 7.712 2.203 3.458 1.013 4.817 2.716 4.817 2.716l1.358-.179z" transform="matrix(1.3333333 0 0 -1.3333333 136.33467 119.96227)"/><path clip-path="url(#D)" d="m0 0c0-1.825-1.479-3.305-3.305-3.305-1.825 0-3.305 1.48-3.305 3.305s1.48 3.305 3.305 3.305c1.826 0 3.305-1.48 3.305-3.305" stroke-linecap="round" transform="matrix(1.3333333 0 0 -1.3333333 144.6016 116.51173)"/><path clip-path="url(#E)" d="m0 0c-2.049.372-5.444 2.498-5.79 5.278 1.909 7.494 11.755 3.58 12.604 9.217-.216 3.719.45 7.4 2.512 10.511.961 1.217 2.204 1.537 2.204 1.537s.222-.793-.103-1.332c1.627.179 3.856-.73 5.381-.82.448-.91.409-1.243.307-1.793-.102-.551-.718-.411-.718-.411-.397-.376-.875-.76-1.947-.563-.806-.615-2.511-.769-2.511-.769s3.562-3.753 2.973-4.919c.743-.346 1.844-1.998 1.844-1.998s2.434 1.281 3.228 2.459c1.41 0 3.716-1.473 4.869-1.639 1.409-1.14 2.818-2.306 2.818-2.306s-1.678-1.102-2.409.359c-.884-.078-2.792 2.036-5.431 1.383-.077-2.344-2.665-3.997-2.665-3.997s2.416.338 3.741-.461c1.37-1.153 3.382-2.716 3.382-2.716l1.793-3.074s-1.64-.282-2.254 1.844c-.615-1.716-.641 1.064-3.075 2.357-.743-.089-1.114-.141-1.742.359-1.755-.474-3.83-1.499-6.303-1.23-1.755-.55-3.036-2.011-4.816-2.818-1.781-.807-2.307-.41-2.307-.41l-1.434-.051c-.207-.864-.09-2.178-.871-2.409.499-.538-.359-2.831-1.23-3.228.41-1.473 1.611-1.924 2.869-2.664 0 0 1.115.512 1.845-.154s1.486-2.562 1.486-2.562-1.52-.103-1.999.103c-.478.205-.524.704-1.075.563-3.472 3.087-5.303 1.859-5.637 2.562-.343.72.82 2.601.461 3.792" transform="matrix(1.3333333 0 0 -1.3333333 132.44013 151.21947)"/></g><path clip-path="url(#F)" d="m0 0c.181.226 1.449-.254 1.449-.254l2.319-1.449 4.711-3.044 1.667-2.427-3.008.978-4.167 3.587-2.246 1.449s-.906.933-.725 1.16" transform="matrix(1.3333333 0 0 -1.3333333 121.3196 132.8724)"/></g><path clip-path="url(#G)" d="m0 0c.181.226 1.449-.254 1.449-.254l2.319-1.449 4.711-3.044 1.667-2.427-3.008.978-4.167 3.587-2.246 1.449s-.906.933-.725 1.16z" fill="none" stroke="#000" stroke-width=".203" transform="matrix(1.3333333 0 0 -1.3333333 121.3196 132.8724)"/><path clip-path="url(#H)" d="m0 0c-1.627.41-5.637-4.458-5.637-4.458l3.024-3.279s.089 5.585 2.613 7.737" fill="#96877d" transform="matrix(1.3333333 0 0 -1.3333333 158.47133 143.1576)"/><g stroke="#000" stroke-width=".203"><path clip-path="url(#I)" d="m0 0c-1.627.41-5.637-4.458-5.637-4.458l3.024-3.279s.089 5.585 2.613 7.737z" fill="none" transform="matrix(1.3333333 0 0 -1.3333333 158.47133 143.1576)"/><g fill="#96877d"><path clip-path="url(#J)" d="m0 0c-.887-1.137-.967-3.429.187-4.353.109-1.391 1.292-4.197 2.221-4.46 1.015-.289 5.073-1.23 6.662-.974-.304-2.575 1.716-4.641 3.587-5.995-.014-.232-.017-.513.199-.799.209-.277 1.192-.327 1.235-.175.436-.613 2.548-.882 2.701-.609.148.266-3.106 2.531-3.828 3.222-.613 1.144-1.775 3.694-2.049 5.739-1.598 1.901-4.34 1.862-4.34 1.862l.086 3.724.154 4.202-1.486.768s.299.137.461.307c.361-.154 1.039.571 1.127.775.342-.121.652-.119.711.064.054.161.115.879.239 1.25 1.121.987-.163 3.08-1.878 3.115-1.696.034-2.076-2.024-2.044-2.18.16-.646.125-.971 0-1.128-.127-.159-.717-.512-.717-.512s-.948.449-2.101 0c-1.153-.448-2.447-1.05-2.511-1.793-.525-.077-1.383-.756-1.537-1.333-.461.09-1.063-.294-2.05-1.896-1.767-.781-1.87-4.56-1.87-4.56s-.477-.695-.499-1.063c-.023-.368.166-.705.397-.641.025-.243.345-.461.486-.384.052-.243.403-.38.615-.346.019-.166.702-.125.756.026.06.166-.067.997.013 1.063.073.061.64-.372.794-.256.154.115-.029.484-.115.628-.077.128-.564.268-.679.871-.115.602.307 1.434.307 1.434s1.922 1.512 2.14 2.806c1.447-.141 2.213 1.124 2.626 1.601" transform="matrix(1.3333333 0 0 -1.3333333 132.03053 125.05213)"/><path clip-path="url(#K)" d="m0 0c.439 1.073 2.024.974 2.024.974s.567 1.492 2.703.602c.804.621 2.921-.269 2.921-.269s.792 1.056 1.832.935c1.925-.224 2.245-1.989 2.126-2.293-1.053-.266-2.878.856-4.266.538-.81-.458-2.123-.942-2.613-1.602-1.284-.134-2.655 1.182-4.727 1.115" transform="matrix(1.3333333 0 0 -1.3333333 127.57227 117.8268)"/><path clip-path="url(#L)" d="m0 0c.48.295 1.659.812 2.459.179.84-.903 2.127-1.742 2.127-1.742l1.46-.615.667-.409-.436-6.688c-1.352 1.383-2.618 1.626-3.587 3.254-.519.698-.122 2.376-1.024 3.484-.904 1.109-1.865 1.858-1.666 2.537" transform="matrix(1.3333333 0 0 -1.3333333 132.91867 120.2012)"/><path clip-path="url(#M)" d="m0 0s.766.145.979-.037c.267-.09.525-.167.597-.398.29-.086.489-.235.489-.453.272-.072.381-.562.381-.562l-.254-.38s-.29.272-.326.561c-.183.091-.589.186-.688.454-.317.031-.521.194-.58.471-.294-.068-.598.344-.598.344" transform="matrix(1.3333333 0 0 -1.3333333 137.60027 122.77533)"/><path clip-path="url(#N)" d="m0 0c-.436.487-1.204.128-1.204.128l-2.05-3.536-.897-.742-.077-2.767.744-2.588-.257-1.999s1.033.968 1.153 1.512c.115.519-.384 2.203-.384 2.203s-.615 1.051.128 2.998 2.434 3.561 2.844 4.791" transform="matrix(1.3333333 0 0 -1.3333333 146.2416 116.95573)"/><path clip-path="url(#O)" d="m0 0s-3.2-4.573-8.439-6.2c-1.448-.346-.923 3.382-.923 3.382l-.359-.103s-.807-3.651 1.128-3.689c5.265 1.037 9.215 6.58 9.215 6.58z" transform="matrix(1.3333333 0 0 -1.3333333 152.98507 121.1576)"/><path clip-path="url(#P)" d="m0 0s-.487-.359-1.127 0c-.333.769-1.23.82-1.23.82s-.578 1.659-1.486 1.179c-.141.858-1.128.409-1.128.409s-.025 1.243-1.178 1.076c.384 1.422-1.589 1.333-1.589 1.333s-.064 1.601-2.971 1.281c6.264 2.805 11.221-4.407 11.221-4.407" transform="matrix(1.3333333 0 0 -1.3333333 155.87507 156.20707)"/><path clip-path="url(#Q)" d="m0 0s1.447-1.627 2.203-1.64.82 1.589.82 1.589.244-.692.615-.513c-.038-.487.461-.615.461-.615s-1.307-3.036-5.021-.154" transform="matrix(1.3333333 0 0 -1.3333333 159.83787 157.02667)"/><path clip-path="url(#R)" d="m0 0-.512-2.101s-.654-.589-.462-.717c.193-.128 1.23.205 1.23.205s1.615.192 2.101.666c.333-.756 1.076-.82 1.076-.82s.051.32-.051.513c.359-.064.666.051.666.051s.205.589-.256.82c.051.435.269.82-.512.768-.577-.614-1.999-1.319-2.358-1.076-.358.244 1.41 1.025.923 2.05" transform="matrix(1.3333333 0 0 -1.3333333 144.73827 157.84707)"/></g></g><path clip-path="url(#S)" d="m0 0-.482-1.839-.144.038.026.101c.018.067.014.174-.011.319-.026.145-.081.285-.164.421-.084.135-.231.314-.441.535l-1.669 1.797-1.322.346c-.323.085-.535.102-.634.051-.135-.07-.23-.211-.286-.424l-.045-.171-.144.038.587 2.239.145-.038-.05-.186c-.058-.224-.032-.399.078-.528.068-.078.25-.157.545-.234l1.248-.328 2.587.867c.304.103.497.177.577.221.081.044.192.15.333.317.039.045.072.117.098.216l.144-.038-.592-2.255-.143.038.03.117c.032.121.033.241.003.358-.03.118-.102.191-.216.221-.093.025-.283-.01-.568-.104l-1.987-.655 1.353-1.46c.204-.219.364-.345.484-.376.072-.019.142-.017.209.005s.125.065.176.126.095.162.131.302zm-1.494 11.21c.003-.051.004-.095.005-.133.001-.037.002-.068.003-.092.027-.519.16-.904.398-1.156s.532-.369.88-.351c.339.018.61.138.812.362.201.224.293.511.275.862-.008.154-.045.363-.109.626zm-2.596-4.01-.076 1.452 2.449 1.975c-.013.136-.021.247-.026.332-.002.035-.003.073-.004.113s-.001.082 0 .125l-1.581-.082c-.343-.018-.553-.067-.632-.146-.113-.108-.164-.263-.153-.467l.01-.212-.148-.008-.121 2.331.148.009.011-.205c.012-.23.095-.391.251-.482.086-.052.283-.07.594-.054l3.515.183c.343.018.554.066.633.145.112.111.163.269.152.475l-.011.205.149.008.103-1.983c.03-.578.01-1.006-.06-1.285-.07-.278-.213-.519-.429-.722s-.481-.313-.794-.329c-.334-.017-.63.076-.888.282-.257.205-.449.534-.574.986l-1.503-1.205c-.345-.275-.572-.509-.68-.699-.108-.191-.17-.436-.187-.734zm4.313 9.666-1.184-.484-.051.144c.202.103.34.195.414.275.119.13.19.273.213.427.024.155-.002.338-.077.55l-.256.724-3.925-1.389c-.316-.112-.501-.215-.555-.311-.072-.134-.073-.3-.002-.5l.063-.178-.14-.049-.771 2.178.14.05.065-.182c.076-.217.197-.348.36-.392.101-.028.295.01.583.112l3.925 1.388-.219.618c-.084.24-.162.404-.234.493-.094.114-.226.194-.396.239-.169.045-.373.036-.612-.029l-.05.144 1.226.366 1.484-4.194zm-6.871 12.662.881-1.188-1.3-5.111 2.525 1.872c.269.199.415.354.437.464.031.146-.017.306-.145.478l-.112.152.119.088 1.13-1.524-.12-.088-.115.155c-.137.185-.29.275-.46.269-.104-.004-.278-.096-.524-.278l-3.69-2.735-.086.116 1.386 5.499-2.695-1.998c-.27-.199-.416-.353-.439-.46-.03-.149.018-.308.144-.479l.114-.155-.119-.088-1.129 1.524.119.088.113-.151c.138-.187.292-.279.462-.273.104.003.278.096.524.278l3.045 2.257c.054.237.08.406.079.507s-.029.23-.082.387c-.027.076-.087.178-.182.305zm-6.463 1.191.518 2.332-2.046-1.25zm-.079-.308-1.723 1.219-.798-.488c-.197-.121-.326-.223-.386-.309-.048-.067-.058-.149-.029-.247.027-.097.143-.229.347-.396l-.086-.121-1.401.992.086.121c.209-.099.36-.141.451-.128.186.026.461.152.824.378l4.155 2.553.115-.082-1.07-4.796c-.086-.385-.109-.658-.07-.819.039-.16.145-.31.318-.45l-.085-.121-1.755 1.242.086.122c.183-.117.324-.172.421-.166.099.006.173.045.224.117.068.096.132.28.191.549l.184.83zm-5.849 3.097.117-.068-.907-1.257-4.006 1.324.046.141.195-.064c.219-.072.399-.053.54.059.08.063.169.243.266.538l1.105 3.339c.106.322.138.536.094.641-.063.145-.192.25-.388.315l-.194.064.046.141 2.343-.775-.047-.141c-.274.093-.474.132-.603.115-.128-.017-.226-.059-.294-.127-.067-.068-.152-.256-.254-.564l-1.075-3.251c-.07-.21-.097-.362-.083-.455.013-.063.047-.118.102-.165.056-.046.25-.125.583-.235l.378-.125c.397-.131.685-.194.865-.188.179.005.359.061.541.166s.392.296.63.572m-7.257 1.943.131-.034-.523-1.459-4.217.164.006.148.205-.008c.23-.009.398.06.503.206.059.083.095.281.107.591l.137 3.514c.013.34-.016.554-.088.642-.1.122-.253.187-.459.195l-.205.008.006.149 2.466-.096-.006-.149c-.289.014-.493-.005-.612-.056-.118-.052-.2-.12-.247-.204-.046-.084-.075-.288-.088-.612l-.133-3.421c-.009-.222.007-.376.046-.46.03-.058.078-.101.144-.131.066-.029.274-.05.625-.064l.397-.016c.418-.016.712.003.884.059.171.055.329.158.474.309s.294.393.447.725m-9.621-.029-1.46 1.891-.351-2.372zm.185-.258-2.039-.542-.137-.927c-.033-.228-.037-.392-.01-.493.022-.08.079-.14.171-.181.093-.041.268-.036.527.013l.038-.144-1.658-.441-.039.144c.21.097.339.186.387.265.099.16.179.451.238.874l.7 4.827.136.036 2.998-3.893c.241-.313.436-.506.584-.579s.332-.087.55-.043l.038-.143-2.078-.553-.038.144c.207.066.34.139.398.218.057.079.075.161.052.247-.03.113-.129.28-.298.498zm-8.874.614 1.053-1.367-.118-.077c-.352.283-.682.454-.988.514-.443.087-.878-.008-1.305-.285-.582-.377-.876-.895-.881-1.552-.002-.553.171-1.099.519-1.636.283-.437.624-.78 1.026-1.031.402-.25.794-.371 1.175-.362.382.01.717.108 1.004.294.169.11.318.237.448.381.13.145.241.306.333.484l-.856 1.322c-.149.23-.263.369-.344.417s-.17.067-.267.057-.238-.075-.422-.195l-.083.129 1.77 1.147.084-.129-.084-.055c-.176-.113-.258-.25-.248-.409.009-.112.093-.291.251-.536l.907-1.4c-.168-.306-.357-.574-.567-.802-.209-.229-.468-.443-.776-.642-.884-.573-1.739-.724-2.565-.455-.619.202-1.108.581-1.468 1.137-.261.402-.414.851-.459 1.345-.055.587.041 1.128.289 1.623.208.413.54.767.997 1.063.166.108.327.192.48.253.154.061.385.127.694.196.156.035.257.065.299.093.043.028.066.071.071.13s-.026.148-.093.267zm-11.596-18.052c.018.047.035.088.049.123.015.034.026.063.035.086.185.485.219.891.102 1.218-.116.327-.337.552-.662.676-.319.121-.615.12-.889-.003-.275-.124-.475-.349-.6-.677-.056-.146-.106-.351-.153-.617zm3.994 2.62-.517-1.36-3.037-.818c-.044-.129-.081-.234-.112-.314-.012-.032-.026-.067-.042-.104-.015-.038-.032-.076-.049-.115l1.479-.563c.321-.122.533-.163.637-.122.147.053.256.175.329.365l.076.199.139-.053-.831-2.182-.139.053.073.191c.082.216.07.396-.035.542-.057.083-.231.179-.522.289l-3.29 1.253c-.32.122-.533.163-.637.122-.147-.055-.258-.18-.331-.373l-.073-.191-.139.053.707 1.855c.205.541.397.925.573 1.152.177.226.405.389.684.487.28.099.567.092.86-.02.313-.119.545-.324.698-.616.153-.291.195-.67.127-1.134l1.862.495c.426.113.728.235.904.366s.332.329.468.595zm-7.893-9.951c-.028-.487.131-.888.476-1.203.428-.391 1.076-.611 1.942-.66.889-.051 1.583.101 2.083.454.38.271.584.646.611 1.125.029.511-.147.944-.527 1.299-.38.356-.999.558-1.858.606-.93.052-1.635-.092-2.113-.433-.38-.273-.585-.669-.614-1.188m-.289.092c.04.706.343 1.304.908 1.791s1.25.708 2.052.663c.826-.046 1.498-.346 2.014-.899.517-.552.754-1.198.712-1.939-.042-.749-.344-1.364-.905-1.843-.561-.48-1.264-.696-2.109-.648-.864.049-1.553.383-2.065 1.002-.445.537-.647 1.162-.607 1.873m1.342-9.402 2.084.497-.23.966c-.053.221-.14.372-.263.452-.122.079-.332.101-.629.066l-.035.145 1.794.428.035-.145c-.205-.052-.35-.115-.435-.188-.084-.074-.139-.161-.166-.263s-.019-.241.023-.418l.23-.965 1.666.397c.268.064.441.123.519.177.059.041.102.11.129.204.035.13.038.257.008.382l-.045.192.144.034.543-2.275-.145-.034-.045.187c-.052.219-.154.363-.305.431-.098.043-.307.027-.624-.049l-3.425-.817c-.268-.064-.442-.123-.519-.177-.059-.041-.103-.108-.13-.2-.036-.127-.039-.255-.008-.383l.044-.187-.145-.035-.939 3.945 1.152.328.033-.136c-.231-.127-.394-.249-.489-.367-.094-.118-.152-.249-.173-.393-.021-.143.002-.354.068-.63z" transform="matrix(1.3333333 0 0 -1.3333333 180.002 152.64907)"/></svg>