<svg height="800" viewBox="0 0 1200 800" width="1200" xmlns="http://www.w3.org/2000/svg" xmlns:xlink="http://www.w3.org/1999/xlink"><clipPath id="a"><path d="m0 600h900v-600h-900z" transform="translate(-67.724102 -247.57231)"/></clipPath><clipPath id="b"><path d="m0 600h900v-600h-900z" transform="translate(-78.342804 -260.5498)"/></clipPath><clipPath id="c"><path d="m0 600h900v-600h-900z" transform="translate(-87.9067 -310.79541)"/></clipPath><clipPath id="d"><path d="m0 600h900v-600h-900z" transform="translate(-33.496601 -241.5352)"/></clipPath><g transform="matrix(1.3333333 0 0 -1.3333333 0 800)"><path d="m0 0h900v600h-900z"/><path d="m0 393.75h900v206.25h-900z" fill="#fff"/><path d="m0 412.5h900v187.501h-900z" fill="#007168"/><path d="m0 0h900v206.5h-900z" fill="#fff"/><path d="m0 0h900v187.5h-900z" fill="#fce100"/></g><path d="m0 0v-600l393.75 299.999z" fill="#d21034" transform="matrix(1.3333333 0 0 -1.3333333 0 -.0004)"/><path d="m0 0-73.154 53.56-73.055-53.576 28.333 86.124-73.529 52.925 90.665-.332 27.612 86.283 27.701-86.329 90.594.402-73.544-53.023z" fill="#fce100" transform="matrix(1.3333333 0 0 -1.3333333 272.4928 549.9792)"/><g stroke="#000" stroke-linecap="round" stroke-linejoin="round" stroke-width="1.25"><path clip-path="url(#a)" d="m0 0h52.699c4.24-4.757 13.7-6.696 22.711.057 16.518 9.045 48.473-.057 48.473-.057l6.292 6.686-15.338 50.339-5.506 5.899s-11.798 7.079-34.216 4.72c-22.416-2.36-30.282.786-30.282.786s-19.663-2.36-25.169-5.113c-.605-.489-6.293-6.292-6.293-6.292z" fill="#fff" transform="matrix(1.3333333 0 0 -1.3333333 90.2988 469.9036)"/><path clip-path="url(#b)" d="m0 0s50.339 6.293 64.891-12.978c-8.218-5.623-15.454-6.086-23.204-.393 1.234 2.057 18.091 19.664 60.958 13.765" fill="none" transform="matrix(1.3333333 0 0 -1.3333333 104.45707 452.60027)"/><path clip-path="url(#c)" d="m0 0-5.238-22.715m94.386 22.024 9.439-44.048m-54.273 44.833-.393-55.452" transform="matrix(1.3333333 0 0 -1.3333333 117.20893 385.60613)"/><path clip-path="url(#d)" d="m0 0 12.394-14.531c1.455-.868 2.748-.813 4.041 0l18.367 22.04 7.714 9.551c1.194 1.415 1.576 2.993 1.469 4.408l14.748 13.104c1.207-.083 1.925-.218 3.132-.301-1.426.37-2.471 1.064-1.349 2.625l3.306 2.572 2.571-3.306s-3.673-4.775-4.04-4.775h-4.041l-7.714-6.981 3.372-2.98 5.076-13.917 6.246 4.409-4.042 14.325 8.817 9.552-3.306 5.143 2.204 2.939s30.513-19.211 42.269-14.068c.317-.116.71 13.7.71 13.7s-31.591 3.305-32.327 9.552c-.734 6.244 6.981 6.978 6.981 6.978l-3.307 4.775.735 2.573 5.511-6.98 12.489 10.654 73.469-83.755c4.01 1.626 4.867 2.607 5.143 6.612-.103.101-71.999 82.652-71.999 82.652l5.51 5.877c1.086 1.224 1.467 1.745 1.469 3.675l8.448 7.346c2.541-.873 4.162-2.396 5.511-4.407l23.228 19.685c.612-.612 2.471-1.225 3.734-.536l38.402 36.861-41.854-29.562-1.469 1.102c0 1.224 1.518 1.527 0 3.673-1.626 1.952-4.041-1.837-4.408-1.837-.368 0-6.058 2.011-7.305 4.559l-.409-6.762-10.654-9.919-8.081.367-11.756-11.387-1.468-4.408 1.836-3.674s-6.246-5.511-6.246-5.142c0 .366-1.262 1.623-1.316 1.786l5.357 4.826.735 3.306-1.787 2.791c-.542-.394-7.396-7.567-7.764-6.832-.612.686-19.835 22.408-19.835 22.408l1.1 4.041-12.489 13.592c-4.553 1.571-11.755 1.836-13.224-8.082-1.144-2.33-10.654-.367-10.654-.367l-5.142-1.103-29.021-41.142 16.163-19.469 33.062 41.877.981 11.864 6.937-7.757c2.313-.297 4.517-.323 6.613.735l19.587-21.864-3.262-3.182c1.103-1.224 1.861-2.007 2.963-3.231 1.103.735 2.155 1.617 3.257 2.352.368-.491.98-1.422 1.348-1.912-1.642-.893-2.793-2.083-4.435-2.976-2.626 1.712-5.162 3.844-4.969 7.236l-11.02-9.183-.368-1.837-32.694-27.184-2.938-.367-.735-8.449 21.306 17.632v2.572l2.204-1.836 16.53 13.223s1.103-1.469.736-1.469c-.368 0-14.695-13.225-14.695-13.225l-.366-1.468-2.572-2.204-1.47 1.101-19.836-17.632h-2.939l-11.02-11.021c-2.843-.247-5.306-.548-7.714-2.203z" transform="matrix(1.3333333 0 0 -1.3333333 44.662133 477.95307)"/></g></svg>