<svg height="356" viewBox="0 0 533.33331 356" width="533.33331" xmlns="http://www.w3.org/2000/svg" xmlns:xlink="http://www.w3.org/1999/xlink"><clipPath id="a"><path d="m0 0h400v266.666h-400z" transform="translate(-134.4331 -171.0088)"/></clipPath><path d="m-.00000251 355.77733h533.33332251v-355.554665h-533.33332251z" fill="#072b5f" stroke-width="1.33333"/><path clip-path="url(#a)" d="m0 0-.624.535-1.783.891 1.783-.891zm-2.14-60.321-2.05-.268-1.784-2.405 2.943.623zm0 0-2.05-.268-1.784-2.405 2.943.623zm0 0-2.05-.268-1.784-2.405 2.943.623zm-31.742 90.883.535-1.159 1.248 2.674-1.783-1.248zm2.319-6.504v2.316l-2.051-.535.267-1.514zm-2.319 6.504.535-1.159 1.248 2.674-1.783-1.248zm2.319-6.504v2.316l-2.051-.535.267-1.514zm-2.319 6.504.535-1.159 1.248 2.674-1.783-1.248zm2.319-6.504v2.316l-2.051-.535.267-1.514zm-5.35-6.238-.892-.891 1.784-1.247zm.892-2.673h-1.784l.892-2.673.892 2.317zm7.132-16.395.357 2.139-3.299 2.049zm-8.024 19.068-.892-.891 1.784-1.247zm.892-2.673h-1.784l.892-2.673.892 2.317zm7.132-16.395.357 2.139-3.299 2.049zm-8.024 19.068-.892-.891 1.784-1.247zm.892-2.673h-1.784l.892-2.673.892 2.317zm7.132-16.395.357 2.139-3.299 2.049zm125.184-122.603 1.784-.89m-1.784.89 1.784-.89zm2.051 171.342-.624.624h-.267v-.356h.624zm-2.051-171.342-2.407 1.426-7.133-1.782-6.241 3.921v-1.515l-1.515 2.049 1.783 1.782-.268 5.346h2.051l1.248 3.564 1.427.624-1.159 1.782 1.783.624-.268 2.673-1.783.891 2.318.267-1.426 6.505-3.567 3.563-2.139-.89.891-2.941h-7.4l-6.242 2.673-2.407 1.158-11.859 2.674-.892-1.426-4.19-.356h-1.159l-1.783-2.941-5.083 3.565-2.675-.892.357-2.405-6.598 3.563-.268-2.316-6.508 2.94-.357-.267-3.21-1.247-.624 2.405-7.757 3.832-8.293 2.673-1.515 6.86v1.515l-3.21 5.881 1.427 7.128-2.675.891-.892 3.03 4.458.534h-2.051l.268 4.455-6.509-2.049-.267 1.782-.892-3.297-3.567-1.425-2.407 2.316-.892 2.406-.891 4.722 2.05 1.515.892-1.159.624 1.426-1.516 10.693 2.408-.535 1.159 11.226.357.357 2.318 1.426-2.943-.267-1.159 2.672 5.35 5.97-4.815.891-3.566-3.564-1.427 4.099-2.14-2.941-.535 2.05-2.675-.891-1.783-.891 1.427 5.346-1.159.623.624 1.515-1.516-.356-.267 3.029h5.617l-.268 1.426h-1.783l-3.299 5.702-1.783-.623-1.159 2.049-.625-1.782-1.783 1.247 1.783 1.159-2.674.891.624 1.514-2.14 1.159-.535 4.722-2.14.624 1.248.891-2.407 6.237.268 2.049.891 6.237h1.783l-.535-3.831 4.458-6.237 3.21-4.188 6.598-1.782v-.267l.892 1.515 3.566-4.188 1.783-2.05.893-.891 10.075-4.811 1.783-.891.624-.535 4.726-5.702 2.674 1.247 19.617 4.455.624 3.564 1.426-.623-.267 1.158.891.624 4.191 1.514v4.099l1.427 1.515 1.783 6.86-.892 2.674 4.191 10.068v1.515 4.722h2.05l2.408 3.564 2.943.892.356 3.296 4.102 4.99 1.783-.891 8.381 3.029.892.891 1.783 1.782-.624 2.941h1.783l.891-4.723 9.185-2.138 1.515 1.514.624-.267 8.025-1.782.267.268 4.191 2.405.267-2.673 3.567-.356 2.942-2.317.624-.624 4.458-3.831 5.351-.356 3.299-.535 4.101 1.426.357-2.674 1.783-1.158 1.427 2.673h1.783l1.248-6.861 1.427-.267-.268-2.406-.268-.267h.536l3.566 1.782 3.299 1.158 9.183-3.207 1.784.534.625-3.207 2.407-.357-.624 1.515h2.051l.624-3.297 2.407 2.674 5.617-3.565 1.516-6.504-2.408-.624.624-4.99.892-1.514 6.241-15.771-3.299-2.941-.267-3.564-2.675-3.296 2.942-2.05-1.159-.89 2.675-2.674 4.102-.623 1.248-1.782 1.159-2.317 2.942-1.247 3.567 2.405 2.408-.267-2.943-4.188 2.943-7.752-3.568-2.94 1.517-4.722-.892-4.188 1.784-2.406 4.725-.891-4.725-6.505.891-1.158 1.159-1.247-2.05-3.208 2.05-1.247-10.432-8.554 2.407-5.969-.624-3.565-3.566-1.158-.892-3.029-4.102-1.783-1.248-3.831-.891-2.049 4.19-2.138-6.241-.535 1.516-3.297-3.032-2.941-4.725-.89-1.516-2.673 3.567-1.782-6.777-6.238 2.051-3.296-5.35 1.159-5.974-3.565-8.025-3.831-1.783-2.674-1.159.892 1.159 2.673-5.349-2.049-1.16 2.049-8.024-4.723-3.566 1.158-6.51-1.158-1.783.892m-19.616 177.311-.624.267z" fill="#fff" transform="matrix(1.3333333 0 0 -1.3333333 172.80799 133.034)"/></svg>