<?xml version="1.0" encoding="UTF-8" standalone="no"?>
<!-- Created with Inkscape (http://www.inkscape.org/) -->

<svg
   width="144"
   height="96"
   viewBox="0 0 144 96"
   version="1.1"
   id="svg5"
   inkscape:version="1.2.2 (732a01da63, 2022-12-09)"
   sodipodi:docname="rect.svg"
   xml:space="preserve"
   xmlns:inkscape="http://www.inkscape.org/namespaces/inkscape"
   xmlns:sodipodi="http://sodipodi.sourceforge.net/DTD/sodipodi-0.dtd"
   xmlns:xlink="http://www.w3.org/1999/xlink"
   xmlns="http://www.w3.org/2000/svg"
   xmlns:svg="http://www.w3.org/2000/svg"><sodipodi:namedview
     id="namedview7"
     pagecolor="#505050"
     bordercolor="#eeeeee"
     borderopacity="1"
     inkscape:showpageshadow="0"
     inkscape:pageopacity="0"
     inkscape:pagecheckerboard="0"
     inkscape:deskcolor="#505050"
     inkscape:document-units="px"
     showgrid="false"
     inkscape:zoom="3.9999998"
     inkscape:cx="-13.250001"
     inkscape:cy="26.000001"
     inkscape:window-width="2560"
     inkscape:window-height="1377"
     inkscape:window-x="1912"
     inkscape:window-y="-8"
     inkscape:window-maximized="1"
     inkscape:current-layer="layer1"><inkscape:grid
       type="xygrid"
       id="grid2501"
       empspacing="12"
       originx="0"
       originy="0"
       spacingy="1"
       spacingx="1"
       units="px"
       visible="true"
       color="#000000"
       opacity="0.14901961"
       empcolor="#000000"
       empopacity="0.30196078" /></sodipodi:namedview><defs
     id="defs2"><linearGradient
       id="sides"
       inkscape:swatch="solid"><stop
         style="stop-color:#cc0022;stop-opacity:1;"
         offset="0"
         id="stop3798" /></linearGradient><linearGradient
       id="top"
       inkscape:label="left"><stop
         style="stop-color:#111111;stop-opacity:1;"
         offset="0"
         id="stop10417" /></linearGradient><linearGradient
       id="bottom"
       inkscape:label="right"><stop
         style="stop-color:#dd1133;stop-opacity:1;"
         offset="0"
         id="stop1523" /></linearGradient><linearGradient
       id="mid"
       inkscape:swatch="solid"><stop
         style="stop-color:#ffffff;stop-opacity:1;"
         offset="0"
         id="stop1517" /></linearGradient><linearGradient
       inkscape:collect="always"
       xlink:href="#mid"
       id="linearGradient3812"
       gradientUnits="userSpaceOnUse"
       x1="0"
       y1="12.7"
       x2="25.4"
       y2="12.7" /><linearGradient
       inkscape:collect="always"
       xlink:href="#sides"
       id="linearGradient3814"
       gradientUnits="userSpaceOnUse"
       x1="0"
       y1="12.7"
       x2="25.4"
       y2="12.7" /></defs><g
     inkscape:label="ca"
     inkscape:groupmode="layer"
     id="layer1"
     transform="scale(3.7795276)"><g
       id="g3796"
       style="fill:url(#linearGradient3812);fill-opacity:1;stroke:none"
       inkscape:label="white"><rect
         style="font-variation-settings:'wght' 700;fill-opacity:1;stroke:none;stroke-width:0;stroke-linecap:square"
         id="rect877"
         width="38.099998"
         height="25.4"
         x="0"
         y="0"
         inkscape:label="mid" /></g><g
       id="g3806"
       style="fill:url(#linearGradient3814);fill-opacity:1;stroke:none"
       inkscape:label="red"><rect
         style="font-variation-settings:'wght' 700;fill-opacity:1;stroke:none;stroke-width:0;stroke-linecap:square"
         id="rect3804"
         width="9.5249996"
         height="25.4"
         x="0"
         y="0"
         inkscape:label="left" /><rect
         style="font-variation-settings:'wght' 700;fill-opacity:1;stroke:none;stroke-width:0;stroke-linecap:square"
         id="rect6554"
         width="9.5249987"
         height="25.4"
         x="28.574999"
         y="0"
         inkscape:label="right" /><path
         id="rect2404"
         style="font-variation-settings:'wght' 700;stroke-width:0;stroke-linecap:square"
         d="M 19.05 4.7625 L 17.732251 7.349939 A 0.25796875 0.25796875 0 0 1 17.371033 7.457426 L 16.073438 6.7070842 L 16.883207 10.88254 A 0.25796875 0.25796875 0 0 1 16.442407 11.108366 L 14.763957 9.3069255 L 14.346928 10.287227 A 0.25796875 0.25796875 0 0 1 14.05754 10.437606 L 11.90625 9.9813029 L 12.64419 12.251449 A 0.25796875 0.25796875 0 0 1 12.509314 12.565125 L 11.668022 12.957865 L 15.402677 15.98197 A 0.25796875 0.25796875 0 0 1 15.482259 16.271875 L 15.021822 17.542082 L 18.430916 16.942635 A 0.37703126 0.37703126 0 0 1 18.8712 17.331759 L 18.692916 20.756356 L 19.407084 20.756356 L 19.228801 17.331759 A 0.37703126 0.37703126 0 0 1 19.669084 16.942635 L 23.078178 17.542082 L 22.617741 16.271875 A 0.25796875 0.25796875 0 0 1 22.697323 15.98197 L 26.431978 12.957865 L 25.590686 12.565125 A 0.25796875 0.25796875 0 0 1 25.455811 12.251449 L 26.19375 9.9813029 L 24.04246 10.437606 A 0.25796875 0.25796875 0 0 1 23.753072 10.287227 L 23.336043 9.3069255 L 21.657593 11.108366 A 0.25796875 0.25796875 0 0 1 21.216793 10.88254 L 22.026563 6.7070842 L 20.728967 7.457426 A 0.25796875 0.25796875 0 0 1 20.367749 7.349939 L 19.05 4.7625 z "
         inkscape:label="leaf" /></g></g></svg>
