<?xml version="1.0" encoding="UTF-8" standalone="no"?>
<svg
   height="600"
   viewBox="0 0 600 600"
   width="600"
   version="1.1"
   id="svg10"
   sodipodi:docname="square.svg"
   inkscape:version="1.4 (e7c3feb1, 2024-10-09)"
   xmlns:inkscape="http://www.inkscape.org/namespaces/inkscape"
   xmlns:sodipodi="http://sodipodi.sourceforge.net/DTD/sodipodi-0.dtd"
   xmlns="http://www.w3.org/2000/svg"
   xmlns:svg="http://www.w3.org/2000/svg">
  <defs
     id="defs10" />
  <sodipodi:namedview
     id="namedview10"
     pagecolor="#ffffff"
     bordercolor="#000000"
     borderopacity="0.25"
     inkscape:showpageshadow="2"
     inkscape:pageopacity="0.0"
     inkscape:pagecheckerboard="0"
     inkscape:deskcolor="#d1d1d1"
     inkscape:current-layer="svg10" />
  <clipPath
     id="a">
    <path
       d="m0 0h674.88v450h-674.88z"
       transform="translate(-337.37991 -225.00001)"
       id="path1" />
  </clipPath>
  <clipPath
     id="b">
    <path
       d="m0 .08 337.38 224.92-337.38 224.92z"
       transform="translate(.1201 -450.00001)"
       id="path2" />
  </clipPath>
  <clipPath
     id="c">
    <path
       d="m0 0h674.88v450h-674.88z"
       transform="translate(-337.37991 -225.00001)"
       id="path3" />
  </clipPath>
  <path
     d="m0 599.99999h600v-299.99999h-600z"
     fill="#002395"
     stroke-width=".76987"
     id="path4" />
  <path
     d="m0 300.00001h600v-299.999995h-600z"
     fill="#de3831"
     stroke-width="1.08876"
     id="path5" />
  <path
     clip-path="url(#a)"
     d="m-112.37991 0h225.00001m-450.00001 225 225-225-225-225"
     fill="none"
     stroke="#fff"
     stroke-width="150"
     transform="matrix(1.3333333 0 0 -1.3333333 449.83987 300)"
     id="path7" />
  <g
     fill="none"
     id="g10">
    <path
       clip-path="url(#b)"
       d="M -12.15689,-19.248408 304.06855,-225 -4.5588336,-430.75159"
       stroke="#ffb612"
       stroke-width="150"
       transform="matrix(0.88920505,0,0,-1.3338076,-0.106793,-3.8e-5)"
       id="path9"
       sodipodi:nodetypes="ccc" />
    <path
       clip-path="url(#c)"
       d="m-112.37991 0h225.00001m-450.00001 225 225-225-225-225"
       stroke="#007a4d"
       stroke-width="90"
       transform="matrix(1.3333333 0 0 -1.3333333 449.83987 299.99999)"
       id="path10" />
  </g>
  <path
     d="M 0,458.5 158.5,300 0,141.5 Z"
     stroke-width="0.488477"
     id="path6"
     sodipodi:nodetypes="cccc" />
</svg>
