<svg xmlns="http://www.w3.org/2000/svg" width="144" height="96">
	<path fill="#038" d="M0 0h144v96H0z"/>
	<path fill="#fc0" d="M0 0h144v32H0z"/>
	<path fill="#c13" d="M0 64h144v32H0z"/>
	<g fill="#ffffff" transform="translate(24 0)">
		<path d="m 22.984731,58.943559 6.307692,-4.25459 -7.603817,-0.265533 5.995542,4.684231 -2.097173,-7.313713 z"/>
		<path d="m 31.113359,44.864363 -4.890619,5.828411 7.382449,-1.84065 -7.054434,-2.850177 4.031866,6.452333 z"/>
		<path d="m 34,39.751288 1.581886,7.442189 3.094635,-6.950665 -6.589112,3.804224 7.566772,0.795301 z"/>
		<path d="m 43.137851,36.425383 -1.058894,7.534407 5.285277,-5.473062 -7.492862,1.321194 6.838431,3.335324 z"/>
		<path d="m 52.862149,36.425383 -3.571952,6.717863 6.838431,-3.335324 -7.492862,-1.321194 5.285274,5.473062 z"/>
		<path d="M 57.323479,40.24281 60.418114,47.193477 62,39.751288 56.345817,44.842337 63.91259,44.047036 Z"/>
		<path d="m 64.886641,44.864361 0.530738,7.589919 4.031866,-6.452333 -7.054434,2.850174 7.382449,1.840653 z"/>
		<path d="m 70.413025,51.793952 -2.097173,7.313713 5.995541,-4.684229 -7.603816,0.265531 6.307693,4.254592 z"/>
		</g>
</svg>