<svg height="666.66669" viewBox="0 0 1000 666.66669" width="1000" xmlns="http://www.w3.org/2000/svg" xmlns:xlink="http://www.w3.org/1999/xlink"><clipPath id="a"><path d="m0 500h750v-500h-750z" transform="translate(-352.38621 -215.67291)"/></clipPath><path d="m0 0h750v500h-750z" fill="#ed1c24" transform="matrix(1.3333333 0 0 -1.3333333 0 666.66667)"/><path d="m0 125h750v250h-750z" fill="#fff" transform="matrix(1.3333333 0 0 -1.3333333 0 666.66667)"/><path clip-path="url(#a)" d="m0 0c4.282.981 8.211-4.569 5.831-8.273-4.269-.379-6.485 4.687-5.831 8.273m15.427 2.764c4.271 1.846 9.795-3.262 7.471-7.587-1.661-3.523-8.136-2.342-7.921 1.738-.011 1.952-.168 3.953.45 5.849m-31.71 2.375c4.131.407 7.915-3.692 7.373-7.764 2.99-2.942-2.305-8.424-5.284-5.377-2.625 3.181-2.611 7.496-3.628 11.303-.046.845.58 1.941 1.539 1.838m110.942 6.764c4.46.768 7.972-5.595 4.788-8.888-3.015-4.546-10.203-5.738-14.314-2.012-1.602 3.768 1.648 7.695 5.108 8.904 1.487.633 2.895 1.444 4.418 1.996m-22.065 4.781c3.926 1.924 8.147-4.307 4.862-7.217-4.112-4.732-12.026-5.611-16.942-1.636-.591 4.188 3.592 7.229 7.308 7.829 1.562.442 3.116 1.102 4.772 1.024m-104.599 15.22c3.078.902 7.564-.046 8.413-3.578.359-3.319-3.291-5.046-5.966-5.868-4.287-1.323-8.48-3.495-13.089-3.203-3.456 1.974-4.696 6.016-5.928 9.541 3.335 3.127 8.245 2.21 12.379 2.992 1.396.071 2.794.106 4.191.116m67.432 6.765c4.648 1.167 2.98-8.547-.901-5.177-1.289 1.531-.599 4.05.901 5.177m-10.737 6.374c3.606-2.191 5.747-6.277 6.195-10.4-1.728-3.852-8.403-2.923-9.155 1.179-1.32 3.244-.104 7.418 2.96 9.221m-30.766.651c3.111 2.201 7.124-3.172 4.535-5.676-3.101-2.185-7.125 3.104-4.535 5.676m19.35 3.512c3.815-.486 2.579-7.097-.948-6.875-3.786.702-2.919 7.248.948 6.875m57.904 8.294c4.549 1.198 7.853-6.072 3.946-8.702-3.572-3.245-10.516 1.054-8.654 5.682.926 1.716 2.778 2.857 4.708 3.02m-102.003 15.968c4.192-.573 6.923-4.381 8.472-8.007.379-4.418-6.14-6.842-8.984-3.627-3.198 2.006-5.997 6.132-4.321 9.961 1.033 1.52 3.091 2.148 4.833 1.673m17.05 2.862c3.695 2.01 7.619-4.032 4.476-6.697-2.082-3.061-7.427-4.311-9.784-.908-1.958 3.324 1.208 8.909 5.308 7.605m66.016 1.17c4.468 1.388 9.849-3.217 8.399-7.886-1.991-3.62-6.917-4.078-10.445-2.725-4.051.2-6.777 6.29-3.167 8.869 1.493 1.128 3.376 1.592 5.213 1.742m-29.823 3.903c4.078-1.909.964-8.714-3.143-7.733-4.258.5-4.179 7.987.517 7.311.885.044 1.799.066 2.626.422m13.834.781c4.361-2.059 2.148-9.916-2.637-9.428-3.931.996-3.417 7.737.541 8.274.749.287 1.434.708 2.096 1.154m-34.777 16.164c3.045-2.898 1.247-8.491-2.508-9.828-2.707-1.505-6.396-5.067-9.344-2.137-1.6 3.579 2.415 6.275 4.776 8.262 2.108 1.638 4.434 3.126 7.076 3.703m46.725 8.293c4.14-1.511 2.68-8.822-1.688-8.728-4.131-.554-6.054 6.337-2.203 7.971 1.247.443 2.554.815 3.891.757m-27.699.032c4.297-.845 3.533-8.331-.804-8.397-3.173-.706-6.593-2.872-9.803-1.249-2.611 2.761 1.163 6.844 4.077 7.742 2.235.45 4.291 1.465 6.53 1.904m12.035 1.009c4.239.758 5.136-6.977.902-7.341-4.413-.79-6.049 7.83-.902 7.341m-41.09 4.228c4.356-.13 3.686-7.981-.602-7.457-4.165.268-3.91 8.3.602 7.457m27.757 47.417c-5.366-11.3-15.472-19.198-25.131-26.671-1.589-1.388-5.54-4.076-2.674-6.121 2.456 2.744 9.195-.89 5.278-3.841-3.508-3.284-8.339-4.487-12.235-7.197-3.45-1.874-6.949-3.831-9.685-6.701-.187-4.483 5.561-2.001 7.894-3.868 3.037-3.248-1.288-8.722-5.275-7.47-5.097-.156-8.617-4.641-10.544-8.92-3.987-6.165-11.543-7.991-17.558-11.5-3.441-2.006-6.781-4.226-9.984-6.567-4.131-2.825-.538-8.416 3.857-7.044 4.745.473 9.014 4.201 13.926 3.127 4.454-1.565 5.704-7.387 4.186-11.451-1.124-3.255-3.848-5.547-6.032-8.089-3.544-3.591-8.179-5.922-13.066-7.034-4.723-1.585-8.968-4.479-12.067-8.385-3.595-3.62-7.177-7.299-11.31-10.318-1.305-3.331 2.379-6.169 5.451-6.08 6.472.407 10.958 5.705 16.47 8.427 4.574 2.056 9.958-2.874 8.839-7.64-.354-4.636-4.695-6.989-8.554-8.415-11.346-5.704-21.197-13.974-29.945-23.1-1.809-3.691-6.782-2.605-9.46-5.177-1.745-3.255 2.634-4.972 5.246-4.637 11.225 1.35 21.699 6.095 31.622 11.315 3.69 1.764 7.155 4.086 10.991 5.492 3.604.891 8.629-.677 9.274-4.777-.006-4.331-4.295-6.728-7.692-8.419-10.475-5.504-21.971-8.546-33.167-12.185-4.191 1.172-7.349-6.285-2.751-7.626 4.862-1.667 10.031-.331 15.005-.112 15.378 2.356 28.828 10.678 43.203 16.056 5.977 1.949 13.031-.77 15.98-6.37 2.964-4.991 2.693-11.555-.433-16.405-4.94-10.568-12.45-20.281-22.532-26.358-6.328-3.133-13.715-4.331-19.139-9.128-5.016-1.654 2.515-8.432 3.603-3.052 3.015 4.11 8.331 5.339 13.153 5.509 7.247.789 14.944 2.126 20.575 7.143 5.048 3.92 10.023 9.328 16.878 9.412 3.789-.449 7.536-3.493 11.384-1.635 3.366 1.541 8.647.637 9.527-3.501 1.606-4.843 6.598-7.046 10.556-9.637 1.432-2.012 6.193-7.2 7.291-2.626-.886 3.263.38 8.255 4.659 7.165 3.739-.167 7.302-1.546 11.032-1.771 4.969-1.03 9.114-4.431 11.936-8.539 1.94-2.68 6.192-7.286 9.351-3.731 1.96 3.676-1.782 6.741-4.828 8.054-4.442 2.753-8.239 6.419-12.124 9.889-5.724 5.346-10.668 12.146-11.576 20.133-1.233 7.963-.584 16.085.455 24.027 1.309 5.113 7.847 7.904 12.418 5.187 6.433-2.935 12.821-7.135 20.196-6.679 10.656-.23 21.608 1.811 32.022-1.277 10.134-3.192 17.381-11.745 27.253-15.446 2.21-1.343 5.037-.065 5.846 2.296.979 2.121.288 4.835-1.756 6.044-11.44 11.548-27.077 17.159-40.315 26.183-4.167 1.059-4.926 7.764-1.073 9.699 5.065 3.682 12.232 1.968 16.725-1.828 3.796-2.222 8.072-3.888 12.524-3.892 4.561 1.427 2.349 8.027-1.734 8.524-7.399 4.178-12.699 11.033-19.109 16.466-3.69 3.125-7.73 6.289-12.69 6.895-2.711.495-5.486.603-8.233.418-2.576 2.8.858 7.087 4.19 6.737 3.418-.231 6.816-.485 10.23-.009 3.816.279 7.627.675 11.456.7 3.091-2.104 9.267 1.531 6.478 5.16-3.048 2.67-7.453 2.438-11.095 3.808-6.396 2.099-12.906 3.795-19.498 5.125-4.611.276-4.042 6.345.011 7.014 2.652.989 4.958-1.049 7.504-1.365 4.348-.934 8.837-.922 13.184-1.869 3.685 1.819.836 7.203-2.497 7.516-7.866 2.813-14.663 7.889-21.308 12.827-7.337 5.518-13.994 11.899-21.42 17.289-2.695 1.67-7.112 2.151-7.821 5.852-.25 3.404 3.758 4.955 6.599 4.159 4.03-1.191 7.786-3.263 11.893-4.281 3.223-.547 6.546-1.501 9.653-1.095 3.943 2.477-1.692 4.061-3.731 4.921-5.257 2.835-9.928 6.613-14.66 10.215-3.999 3.413 3.391 4.921 5.933 3.607 4.25-1.778 4.734 4.415 1.557 5.973-3.743 1.592-6.962 4.234-10.356 6.538-6.132 4.365-13.078 7.821-20.617 8.781-8.452.85-16.341 5.71-20.825 12.938-2.781 4.119-4.821 8.674-6.794 13.218" fill="#00a651" transform="matrix(1.3333333 0 0 -1.3333333 469.84827 379.1028)"/></svg>