<svg height="800" viewBox="0 0 1200 800" width="1200" xmlns="http://www.w3.org/2000/svg" xmlns:xlink="http://www.w3.org/1999/xlink"><clipPath id="a"><path d="m0 600h900v-600h-900z" transform="translate(0 -360.00001)"/></clipPath><g transform="matrix(1.3333333 0 0 -1.3333333 0 800)"><path d="m0 0h900v600h-900z" fill="#ed2939"/><path d="m0 360h240v240h-240z" fill="#fff"/><path d="m0 360h120v240h-120z" fill="#002395"/></g><path clip-path="url(#a)" d="m0 0h360v240" fill="none" stroke="#fff" transform="matrix(1.3333333 0 0 -1.3333333 0 320)"/><path d="m0 0 72 72v-144zm-24-24-72-72h144zm-24 24-72 72v-144zm24 24-72 72h144z" fill="#fff" transform="matrix(1.3333333 0 0 -1.3333333 872 400)"/></svg>